<svg version="1" xmlns="http://www.w3.org/2000/svg" width="2845.333" height="2845.333" viewBox="0 0 2134.000000 2134.000000"><path d="M1012 1.1C714.3 16.4 437.9 154.8 246.6 384.4 159.5 488.9 94.5 606.6 52.2 736c-50.7 155.1-64.9 323.5-41.1 486 13.4 91 37.7 177.7 74.1 263.5 9.5 22.6 33.9 72.6 46.3 95 80.8 146.5 195.9 273.1 334 367.6 148.8 101.8 323 164.5 502 180.8 64.1 5.8 130.5 6 193 .5 179.8-15.7 350-75.9 500.4-176.8 176.9-118.6 315-288.4 394.9-485.6 44-108.8 68.9-220.2 76.3-342.5 1.5-24.8 1.5-90.7 0-115.5-6.8-113.2-28-214.3-66.3-317-83.7-224.1-244.7-417.2-450.8-540.6-50.1-30-111-59.9-162-79.5C1343.6 30 1235.8 7.1 1118.5 1c-21.8-1.1-83.6-1.1-106.5.1zm76.3 122.9c21.9 2.9 30.1 6.6 48.9 21.7 11 8.8 16.5 15.3 23.2 26.9 6.2 10.8 9.1 19.5 11.1 33.9 2.1 14.7 1.5 31.3-1.5 43-1.3 5-2.3 12.9-2.7 21.2l-.6 13.3h10.9c23.8 0 154.1 3.1 172.9 4 56.5 2.9 121 12.2 156.5 22.6 15 4.3 26.5 8.6 49 18.1 33.7 14.4 50 24.1 78 46.6 40.8 32.8 69.2 71.8 89.3 122.7 11.2 28.4 15.8 45.6 20.1 76 4.5 31.7 5.1 40.2 5.1 74.5 0 40.4-1.8 61-9.6 112-4.2 28-5.3 32.3-9.7 41.9-7.8 16.6-15.1 25.5-30.8 37.7-22.5 17.4-44.1 23.2-72.9 19.5-15.8-2.1-21.8-3.7-30.9-8.3-8.6-4.3-25.5-17.2-32.3-24.7-8.1-8.8-17.5-26.1-20.1-36.8-1.8-7.1-4.2-26.5-4.2-33.3.1-3.3.7-9.2 1.5-13 5.8-27.5 8.5-52.6 9.2-87 .6-30.7-.5-46.2-4.6-63-6.4-26.2-13.6-40.6-27-54.7-20.1-21.1-48.9-33.8-99.1-43.7-30.1-6-67.2-8-184.5-10.1-67.6-1.2-73.3-1.5-98-4.5-29.2-3.7-38.2-6-58.5-14.9l-10.2-4.5-10.2 4.3c-21 9-30.5 11.5-56.6 15-20.9 2.8-36.8 3.5-105.5 4.6-124.2 1.9-158 4.4-199.4 14.6-37.6 9.3-59.8 20-77 37.2-15.1 15.1-23 31.1-29.7 60.2-7.2 31.3-5.1 91.8 5.1 146 1.8 9.5 1.8 26.3.1 36-1.6 8.6-10.9 31.6-15.7 38.7-4.7 6.9-17.4 19.8-24.5 24.9-7.3 5.2-30.2 15-39.9 17.1-11.7 2.5-38.3.4-51.5-4-9.7-3.3-25.3-12.3-32.4-18.8-7.3-6.7-20.6-24-24.6-31.9-4.3-8.6-5.8-14.2-8.9-34-9.6-59.5-13.7-113.4-11.2-149 2.4-35 8.4-72.8 14.7-93.8 7.3-23.9 19.5-53.6 29.4-71.1 9.1-16.2 29.6-43.4 44-58.5 18.7-19.6 51-43.7 76-56.9 54.8-28.9 110.8-43.4 198-51.2 33.1-2.9 110.3-5.5 167.5-5.5 12.7 0 29.4-.3 37.3-.7l14.2-.6v-11c0-8.2-.7-14.2-2.7-23.6-2.2-10.4-2.7-15.1-2.7-27.1 0-8.3.5-17 1.2-20.2 1.8-7.7 11.3-29.9 15.8-36.7 5-7.5 18.5-20.9 26-25.8 7.7-4.9 29.1-13.9 37.5-15.7 9.5-2.1 30.2-1.9 47.2.4zm-6.8 418c43.7 2.6 83.9 8.6 113.9 17 22.1 6.2 70.1 25.6 95.7 38.6 20.6 10.4 49.5 30.6 68.7 48 12.4 11.3 31.2 34.2 41.9 51.5 11.9 19 26.7 54.9 30.7 74.4 5.2 25.4 7.9 55.3 6.6 74.9-2.4 35.6-7.8 59.4-20.7 91.1-14.8 36.4-26.2 56.8-48.3 86.4-23.6 31.7-48.2 58.2-87 94.1-35.3 32.6-38.5 36.5-43.1 53-2.2 7.9-2.4 10.1-2.3 33 0 15.1.7 31 1.8 41.5 3.6 36.3 7.3 68.5 7.9 69.1 1.6 1.6 48.7-7.9 72.4-14.7 29.1-8.4 43.1-14.2 64.9-27 17-10 24-15.3 37.9-29 12.6-12.4 14.8-15.1 22-27.1 15.1-25.1 33.7-40.2 60.8-49.3 21.7-7.2 47.6-4.9 72.2 6.5 15.5 7.1 23.3 13.7 36.3 30.8 8.2 10.8 12 18 15.8 30.7 5.7 19.2 3.8 49.8-4.4 68.6-7.2 16.5-34.4 53.9-56.3 77.4-7.9 8.4-24.5 22.7-40.4 34.9-29.6 22.7-51.8 35.9-84.8 50.5-52.3 23.1-93.8 34.6-156.2 43.2-12.1 1.7-23.1 3.3-24.4 3.5-2.3.5-2.4.6-1.7 8.7 2.7 35.5 3.1 169.9.6 205.7-3.2 46.3-9.7 84.7-18.5 110-12.7 36.5-25.7 60.7-46.9 87.2-12.2 15.3-21.5 24.7-34.6 35.3-22.3 17.8-31.5 23.8-48.4 31.2-27.5 12.1-37 14.9-60.6 17.9-23.4 2.9-40.8.5-58.4-8.2-10.6-5.2-30-20.7-36.3-29-5.5-7.4-12-19.8-14.6-27.9-5.3-16.2-7-37.8-4.3-51.4 2-9.8 10.2-29.6 15.9-38.5 5.1-7.8 15.5-18.6 23.5-24.3 10.2-7.3 37.2-18.3 45-18.3 9.5 0 23.1-16.5 29.1-35.5 7.9-24.6 9.6-39.8 10.7-96.5.6-31.5-1-142.3-2.2-150l-.5-3.5h-44.2c-46.2-.1-60.7-.8-98.7-5-74.7-8.3-125.5-22-186-50-33.6-15.5-65.5-36.1-95-61-10-8.5-14.2-13-19.7-21.1-9.4-13.8-13.3-24.8-15.9-44.2-2.9-22.7-1.1-34.8 8.1-53.8 9.9-20.5 24.6-36.8 39.8-44.3 24.3-12.1 30.3-13.6 51.7-13.5 15 0 17.2.3 24 2.6 20.3 7 31.8 13.1 41.9 22.4 10.8 9.9 37.1 26.4 56 35.2 20.6 9.5 56.3 19.9 91 26.3 23.8 4.4 69.2 7.2 109.1 6.7l24.5-.3-.3-5c-.2-2.8-1.7-17.3-3.3-32.3-6.8-62.2-8.1-86.9-6-114.2 3.7-48.5 13.9-83.3 35-118.9 17.3-29.3 35.3-49.7 78.6-89.3 27-24.7 49.3-48.6 59.5-63.8 14-20.9 19.9-32.4 24.5-47.6 3.1-10.3 3.6-13 3.6-22.3-.1-29.2-11.9-44-51-63.7-18.6-9.3-61.8-22.6-82.6-25.3-21.6-2.8-79.2-4.1-98-2.1-20.8 2.2-47.3 12.2-68.2 25.8-10.3 6.8-29.8 25.1-37.3 35.1-11.8 15.8-18.9 30.8-24.8 52.6-2.5 9.4-2.7 11.3-2.7 31.5 0 20 .2 22.2 2.7 32 6.5 25.5 11.2 36.8 23.6 56 6.2 9.7 12.4 16.6 26.4 29.5 5.4 4.9 11.6 11.5 13.9 14.5 13.4 17.8 21.7 49.8 18.9 72.7-2.8 22.6-15.8 46.9-33.9 63.4-7.2 6.6-23.6 15.3-38.6 20.6-7.7 2.7-8.8 2.8-27 2.8s-19.3-.1-26.9-2.8c-11.2-3.9-28-12-32.9-15.9-14.9-11.6-36.9-34.4-53-55.1-32-40.9-55.9-93.4-66.2-145.2-5.8-28.9-7-40.9-7-70.5 0-26.6.6-33.6 5.1-63 13.9-89.4 72.7-176.4 154.3-228 28.6-18.1 62.8-33.8 94.1-43.3 20.5-6.2 46.4-10.7 72.2-12.6 16.5-1.2 61.7-1.2 81.3-.1z"/></svg>