<svg id="Layer_1" data-name="Layer 1" xmlns="http://www.w3.org/2000/svg" viewBox="0 0 1242 2208"><defs><style>.cls-1{fill:#f6eabe;}.cls-2{fill:#999;}.cls-3{fill:none;stroke:#000;stroke-miterlimit:10;}</style></defs><rect class="cls-1" width="1242" height="2208"/><path d="M651.94,216.75V360.47l8.73-10.33c96.87,46.85,221.53,118.31,285,166l-36.52,47.64c-55.58-45.26-165.15-112-257.25-160.39V828.13H596.36V216.75H289.08v-52.4h701.1v52.4Z"/><path d="M242.15,1856.69a98.85,98.85,0,0,1-6.18,13.56v39.59h-3.84v-33.35a61.73,61.73,0,0,1-5.46,7,32.86,32.86,0,0,0-2.28-3.9c5.58-5.87,10.8-14.87,14-24Zm34.2,29.21c-2,1.38-4.44,2.7-6.84,4,2,5.82,5.82,11.16,10.62,13.62a15.86,15.86,0,0,0-2.64,3.06c-4.92-3-8.76-8.76-10.86-15.3-1,.54-2.1,1-3.12,1.5,2.1,6.3,1.26,12.72-1.38,15.24a6.51,6.51,0,0,1-5,1.92c-1,0-2.4-.06-3.72-.12a9.47,9.47,0,0,0-1-3.48,34.56,34.56,0,0,0,4,.24,3.38,3.38,0,0,0,3-1.14c1.44-1.32,2.1-4.86,1.44-8.94a58.72,58.72,0,0,1-19.5,11.4,11.72,11.72,0,0,0-2.34-2.82c7.44-2.22,16.26-7,21.12-11.82a24.37,24.37,0,0,0-1.62-3.66,57.71,57.71,0,0,1-16.74,9.66,16.14,16.14,0,0,0-2.22-2.64c5.82-1.74,13.38-5.58,17.52-9.3a16.53,16.53,0,0,0-2.82-3,39.59,39.59,0,0,1-12.3,6.17,14.66,14.66,0,0,0-2.28-2.58c6.54-2.1,10.86-4.62,13.68-7.25h-9.54v-9.36c-1.08,1-2.22,1.92-3.42,2.88a9.62,9.62,0,0,0-2.64-2.52,45.51,45.51,0,0,0,13.92-16.26l3.84.72a35.7,35.7,0,0,1-2,3.54h11.1l.78-.18,2.34,1.68a52.13,52.13,0,0,1-4.8,6.84h13v12.66H257.93a16.53,16.53,0,0,1-1.38,1.62,22.17,22.17,0,0,1,6,7.85,118.29,118.29,0,0,0,11.1-6.66Zm-25-23.09a54.58,54.58,0,0,1-4.2,5.16h11.58a33.35,33.35,0,0,0,3.72-5.16Zm-4,14.69H256a15.14,15.14,0,0,0,2.46-6.42h-11.1Zm24.72-6.42H261.83a18.56,18.56,0,0,1-1.8,6.42h12.06Z"/><path d="M310.73,1889.5a27.67,27.67,0,0,0,1,3.72c-17.28,8.16-19.38,9.36-20.82,10.62a13.28,13.28,0,0,0-2.22-3.3c1.2-.66,3.42-2.52,3.42-5.22v-35.21h4.26v36Zm21.48-31.61c-.9,14.34-2.52,25.32-6.54,33.83,5.28,5,11.28,11.34,14.16,15.6l-3.42,2.58a102.78,102.78,0,0,0-12.54-14.64c-4,6.48-9.6,11.34-17.94,15.12A18.64,18.64,0,0,0,303,1907c19.38-7.62,23.64-22.5,25-49.31Zm-18.3,19c-1.62-3.84-5.52-9.9-8.94-14.28l3.3-1.74a70.56,70.56,0,0,1,9.24,13.91Z"/><path d="M375.41,1882.79a37.53,37.53,0,0,0,24.6,21.83,15.05,15.05,0,0,0-2.76,3.66c-12.36-4.14-21.12-13.08-25.92-25.49h-9.72v20.93l14.7-3.78a17.38,17.38,0,0,0,.36,3.72c-16.38,4.44-18.48,5.16-19.86,6.06a16.15,16.15,0,0,0-1.62-3.6,3.58,3.58,0,0,0,2.28-3.54v-19.79H345.83v-4h11.64v-23.16h4.14v23.16h37.08v4Zm17-24.42c-5.88,7-14.94,13.2-23.16,17.21a21.52,21.52,0,0,0-3.3-3.12c8.52-3.59,17.22-9.41,22.56-15.71Z"/><path d="M422.87,1890.22c-.9-2-3.18-5.88-5-8.88v28.5h-3.78v-29c-2.1,6.89-5,13.61-7.86,17.69a25.52,25.52,0,0,0-2.1-3.48c3.78-5.1,7.68-14.75,9.54-23.16h-8.1v-3.65h8.52v-13h3.78v13H425v2.4h8.22v-6.36h-7.2V1861h7.2v-5.58H437V1861h10.08v-5.58h3.78V1861h7.38v3.36h-7.38v6.36h8.7v3.48h-16v4.56h13.62v20H427.07v-20h12.84v-4.56H424.37v-2.23h-6.54v4.87c1.8,2.16,6.3,8.69,7.26,10.25Zm15.66,12.12a52.66,52.66,0,0,1-13.14,7.62,22.16,22.16,0,0,0-2.64-2.7c4.38-1.62,9.66-4.56,12.18-7Zm-7.92-15.17h9.3v-5.41h-9.3Zm0,8.45h9.3v-5.52h-9.3Zm6.42-24.95h10.08v-6.36H437Zm6.6,11.09v5.41h10v-5.41Zm10,8.34h-10v5.52h10Zm-5,10.32a87.48,87.48,0,0,1,11.64,7.08l-3,2.52a83.75,83.75,0,0,0-11.52-7.44Z"/><path d="M516,1869.77s-.06,1.56-.06,2.1c-1,24.11-1.86,32.51-4.2,35.27a6,6,0,0,1-4.68,2.22c-2,.12-5.88,0-9.48-.18a10,10,0,0,0-1.38-4.14,91.18,91.18,0,0,0,9.3.42c1.26,0,2-.12,2.58-.9,1.86-1.8,2.82-9.9,3.66-30.83H490.67c-1.38,11.69-6.24,25.07-21.84,35.45a14.36,14.36,0,0,0-3.12-2.88c14.7-9.6,19.44-21.78,20.88-32.57H467.45v-4H487c.18-2.64.24-5.16.24-7.44v-6.9h4v7c0,2.28-.06,4.8-.24,7.38Zm-37.2-2.22a49.8,49.8,0,0,0-6.42-9l3.42-1.56a50.25,50.25,0,0,1,6.6,8.82Zm21.9,27.35a69.41,69.41,0,0,0-8.28-11.88l3.18-1.61a65.09,65.09,0,0,1,8.58,11.51Z"/><path d="M544.43,1887a95.7,95.7,0,0,0-5.7-8.82v31.68h-4v-30.65c-2.28,6.59-5.34,13.19-8.52,17a19.45,19.45,0,0,0-2.34-3.6c3.9-4.55,8-13.19,10-20.76h-8.34v-3.77h9.24v-12.78h4v12.78h8v3.77h-8v1.62c1.8,2.17,7,8.71,8.16,10.32Zm11.22-1.32c-1.86,7-4.86,13.8-8.1,18.36a32.68,32.68,0,0,0-3.18-2.16c3.36-4.2,6.06-10.62,7.62-16.92Zm23.7-11.39v3.77H564.53v26.64c0,2.4-.48,3.54-2.1,4.26s-4.44.78-8.64.78a15.21,15.21,0,0,0-1.26-4.08c3.24.12,6.06.06,6.84,0s1.14-.24,1.14-1V1878.1h-12.9v-3.77Zm-3.18-10.5h-26v-3.72h26Zm-3.84,21a91.83,91.83,0,0,1,7,18l-3.66,1.32a90.53,90.53,0,0,0-6.66-18.3Z"/><path d="M593.69,1873a91.18,91.18,0,0,0-8.28-13.26l3.48-1.62a89.16,89.16,0,0,1,8.46,12.89Zm-8.22,32.27a173.8,173.8,0,0,0,9.18-20l3.48,2c-2.52,6.6-5.88,14.34-8.7,20Zm53.64.48h-31V1910h-3.72v-35.69a61.58,61.58,0,0,1-6.18,8,22,22,0,0,0-3-2.81c5.88-5.65,10.92-14.46,14-23.58l3.66.9a84.13,84.13,0,0,1-3.84,9.3h28.86v3.54h-13V1878h11.76v3.53H624.89v8.4h11.7v3.54h-11.7V1902h14.22Zm-18.06-36h-13V1878h13Zm0,11.87h-13v8.4h13Zm-13,20.52h13v-8.58h-13Zm15-36.11a43.05,43.05,0,0,0-4.38-8.58l3.36-1.56a45.84,45.84,0,0,1,4.62,8.4Z"/><path d="M646.19,1908.7c4.68-2,7.26-4.92,7.56-9.18a7.35,7.35,0,0,1-1.14.12c-2.34,0-4.26-1.38-4.26-4.08a4,4,0,0,1,4.32-4.14c3.18,0,4.86,2.64,4.86,6.66,0,6.48-4,11.28-10.08,13.44Z"/><path d="M726.35,1904.44c0,2.76-.66,4.14-2.64,4.86s-5.76.66-11.22.66a15.26,15.26,0,0,0-1.5-4.08c4.5.18,8.64.12,9.9.06s1.5-.36,1.5-1.5v-34.86h-40V1910h-4v-44.27h16.5a99,99,0,0,0,3.9-10.5l4.86.84c-1.38,3.18-2.94,6.78-4.44,9.66h27.12Zm-32.1-7v4.32h-3.66v-23.93h23.34v19.61Zm0-16v12.42h16v-12.42Z"/><path d="M763.19,1863.71v10.86l.66-.78c7.32,3.54,16.74,8.93,21.54,12.53l-2.76,3.6c-4.2-3.42-12.48-8.46-19.44-12.12v32.1H759v-46.19H735.77v-4h53v4Z"/><path d="M846.59,1873.61v36.17h-4V1907H797.93V1874H802v29.15h40.56v-29.57Zm-.24-10.56H798.23v-3.72h48.12Zm-38.64,33.77v-26.75h28.8v26.75Zm3.42-15.06h9.12v-8.27h-9.12Zm0,11.64h9.12V1885h-9.12ZM833,1873.49h-9.18v8.27H833Zm0,11.51h-9.18v8.4H833Z"/><path d="M909.59,1879.91v4.31H855.11v-4.31Z"/><path d="M957.71,1895c-1.32,3.3-2.82,7.08-4.32,10.14h15.42v3.66h-53v-3.66h33.66a74.49,74.49,0,0,0,4.2-11.1Zm7.62-36A38.92,38.92,0,0,1,955,1876a38.27,38.27,0,0,0,14.4,6.54,15.2,15.2,0,0,0-2.58,3.48,38.15,38.15,0,0,1-14.82-7.56,41.8,41.8,0,0,1-9.36,5.52,23.91,23.91,0,0,1,2.58,6.06h21.12v3.66H918.71V1890h22.5a25.39,25.39,0,0,0-2-4.74l-.48.18a10.68,10.68,0,0,0-2.16-3.42,39.06,39.06,0,0,0,12.6-6.23,39.51,39.51,0,0,1-8.46-14.1l.24-.06h-2.34v-3.54h23.58l.72-.18ZM923,1883.44h-3.66v-24.17H923Zm8,10.62a38.23,38.23,0,0,1,4,9.18l-3.9,1.14a35.06,35.06,0,0,0-3.72-9.24Zm3.24-8.39h-3.66v-29.1h3.66Zm10.08-24a32.26,32.26,0,0,0,7.68,11.82,33.46,33.46,0,0,0,8.4-11.82Z"/><path d="M1026.59,1873.61v36.17h-4V1907H977.93V1874H982v29.15h40.56v-29.57Zm-.24-10.56H978.23v-3.72h48.12Zm-38.64,33.77v-26.75h28.8v26.75Zm3.42-15.06h9.12v-8.27h-9.12Zm0,11.64h9.12V1885h-9.12Zm21.84-19.91h-9.18v8.27H1013Zm0,11.51h-9.18v8.4H1013Z"/><path d="M425.63,1956.88l-8.1,2.52v17.76c0,2.4-.6,3.42-2,4.08s-3.84.78-7.8.72a14,14,0,0,0-1.26-3.66c2.76.06,5.34.06,6.06.06s1.14-.3,1.14-1.14V1960.6l-8,2.46-1.2-3.89c2.52-.67,5.76-1.57,9.24-2.59v-13.25h-8.52v-3.78h8.52v-12.18h3.9v12.18h7.2v3.78h-7.2v12.11c2.46-.77,5-1.5,7.56-2.27Zm25.68-9.84c3.36,0,3.9-1,4.26-7.61a12.2,12.2,0,0,0,3.72,1.56c-.66,7.8-1.92,9.72-7.74,9.72H437.21c-6.6,0-8.46-1.14-8.46-6.06v-17h4v9.12c7.26-1.56,15.24-3.66,19.74-5.64l3.12,2.94c-6,2.4-15,4.5-22.86,6v4.62c0,2,.72,2.39,4.62,2.39Zm-22.5,8.94h28v25.74h-4v-2.52H432.59V1982h-3.78Zm3.78,3.48v6.36h20.22v-6.36Zm20.22,16.38v-6.72H432.59v6.72Z"/><path d="M480.83,1957.48a55.25,55.25,0,0,1-12.66,19.08,26.09,26.09,0,0,0-3.54-2.4,46.53,46.53,0,0,0,12.12-17.7Zm37.62-11.1v4H494.39v26.34c0,2.7-.72,3.84-2.64,4.56s-5.52.72-10.8.72a16.61,16.61,0,0,0-1.44-4.2c4.2.12,8,.18,9.12.12s1.5-.36,1.5-1.32v-26.22H466v-4Zm-5.22-10.49H471.29v-4h41.94Zm-6.3,20.75c4.44,5.58,9.18,13.14,11,18.18l-4,1.74c-1.62-5-6.24-12.72-10.68-18.48Z"/><path d="M553.19,1935.71v10.86l.66-.78c7.32,3.54,16.74,8.93,21.54,12.53l-2.76,3.6c-4.2-3.42-12.48-8.46-19.44-12.12v32.1H549v-46.19H525.77v-4h53v4Z"/><path d="M613.85,1935.23c-.72,2.64-1.62,5.52-2.46,7.92h24.3V1982h-4v-3.18H592.61V1982h-3.9v-38.87h18.6a80.35,80.35,0,0,0,1.92-7.92H586v-3.78h52.62v3.78Zm-21.24,39.89h9v-28.25h-9Zm26-28.25H605.27v7h13.32Zm0,10.31H605.27v7.2h13.32Zm-13.32,17.94h13.32v-7.44H605.27Zm26.4-28.25h-9.42v28.25h9.42Z"/><path d="M661.25,1928c-1,2.94-2.1,6.3-3.18,8.88h10.14v38.75h-16.8v4.8h-3.66v-43.55h6.66a64.68,64.68,0,0,0,2.58-9.72Zm3.3,12.47H651.41v13.08h13.14Zm0,31.56v-14.88H651.41v14.88Zm33.06-33.17c-1,27.53-1.8,36.71-4.2,39.59a5.6,5.6,0,0,1-4.56,2.28,74.94,74.94,0,0,1-8.82-.12,9.42,9.42,0,0,0-1.32-3.9c3.9.36,7.5.36,8.82.36s1.92-.12,2.52-.9c2-2.1,2.94-11.34,3.72-35.7H678.05a55.33,55.33,0,0,1-5.64,10.68,36.22,36.22,0,0,0-3.36-2.22c4.08-5.33,7.32-13.61,9.18-21.89l3.84.84c-.78,3-1.62,6-2.64,8.88h18.18Zm-12.78,27a106.51,106.51,0,0,0-9.3-13.92l3.06-1.79a102.47,102.47,0,0,1,9.6,13.61Z"/><path d="M723.53,1928.63a90.29,90.29,0,0,1-6.18,12.84v40.43h-4v-34.19a70.15,70.15,0,0,1-6.36,7.79,23.56,23.56,0,0,0-2.28-3.9c5.94-5.81,11.58-14.81,15.06-24Zm35.76,47v3.84H721.85v-3.84h21.06a266.82,266.82,0,0,0,5.88-30.05l4.14.77c-1.56,9.25-4,21.18-6.3,29.28Zm-2.52-33.47H724.49v-3.84h32.28Zm-24.12,30.53a209.72,209.72,0,0,0-4.2-25.8l3.6-.71a205.18,205.18,0,0,1,4.56,25.37Zm6.84-35.21a72.34,72.34,0,0,0-2.88-9.48l3.72-1a88.64,88.64,0,0,1,3.06,9.36Z"/><path d="M818.69,1977.1v3.06h-52.8v-3.06H774v-25.19h13.86c.18-1.15.48-2.41.72-3.78H766.49V1945h22.68c.18-1.2.42-2.46.6-3.6H769.49v-11.7h46.2v11.7H793.85c-.24,1.14-.48,2.4-.72,3.6h24.3v3.18h-25q-.45,2.05-.9,3.78h18.84v25.19Zm-35.34-44.45h-10v5.7h10Zm-5.52,22v3.59h28.56v-3.59Zm28.56,6.11H777.83v3.66h28.56Zm-28.56,10h28.56v-3.84H777.83Zm0,6.36h28.56v-3.9H777.83Zm9.24-38.75h10.38v-5.7H787.07Zm14,0h10.56v-5.7H801.11Z"/><path d="M843.59,1971.88a9,9,0,1,1-9.06-9A9,9,0,0,1,843.59,1971.88Zm-2.82,0a6.21,6.21,0,1,0-6.24,6.24A6.22,6.22,0,0,0,840.77,1971.88Z"/><path d="M499.13,2016.17c4.44,10.31,12.24,20,20.76,24.71a23.11,23.11,0,0,0-3.06,3.36c-9-5.58-16.92-16.32-21.6-28.07h-1v22.43h14.28v4H494.27V2054h-4.14v-11.4H475.91v-4h14.22v-22.43h-1.08c-4.74,11.75-12.66,22.43-21.3,28.25a24.18,24.18,0,0,0-2.88-3.18c8-4.92,15.66-14.76,20.16-25.07H466.37v-4h23.76v-12.72h4.14v12.72h24v4Z"/><path d="M573.83,2005.07c-4.32,12.12-10.08,22.68-18.6,31.25a65.72,65.72,0,0,0,24.42,14.1,17.56,17.56,0,0,0-2.76,3.54,66.69,66.69,0,0,1-24.66-14.76,72.92,72.92,0,0,1-25.38,14.7,14.53,14.53,0,0,0-2.16-3.36,69.86,69.86,0,0,0,24.78-14.1,89.37,89.37,0,0,1-18.18-29.27l3.6-1.08a80.51,80.51,0,0,0,17.52,27.53c8.16-8.21,13.62-18.41,17.4-29.87ZM553.25,2015a102.25,102.25,0,0,0-5.88-14.45l3.42-1.38a105.48,105.48,0,0,1,6.06,14.28Z"/><path d="M614.69,2048.62a70.7,70.7,0,0,0,7.38.36c2.1.06,14.76,0,17.58-.06a16.36,16.36,0,0,0-1.44,3.84H622c-12.3,0-19.92-1.92-24.72-10.38a31.55,31.55,0,0,1-9.48,11.7,19.84,19.84,0,0,0-3.06-2.82c6.3-4.14,10.2-10.92,11.82-19.86l4,.6a55.92,55.92,0,0,1-1.5,6.06c2.34,5.64,6.3,8.52,11.7,9.84v-18.54H586v-3.6h52.68v3.6H614.69v7.08h20v3.6h-20Zm17.22-27.17h-39.6v-19.56h39.6Zm-4-16.44H596.21v5.16h31.68Zm0,8.1H596.21v5.27h31.68Z"/><path d="M673.19,2007.71v10.86l.66-.78c7.32,3.54,16.74,8.93,21.54,12.53l-2.76,3.6c-4.2-3.42-12.48-8.46-19.44-12.12v32.1H669v-46.19H645.77v-4h53v4Z"/><path d="M727.49,2013.71c-.18,3.29-.48,6.59-.9,10h25.5s-.06,1.37-.12,2c-1.26,17-2.4,23.46-4.8,25.8-1.26,1.38-2.64,1.8-4.86,1.92a87,87,0,0,1-10-.24,9,9,0,0,0-1.38-3.84c4.26.36,8.46.42,10,.42a4,4,0,0,0,2.82-.72c1.74-1.56,2.88-7.44,4-21.48H726c-1.92,10.68-6.42,20.7-17.82,26.64a11.83,11.83,0,0,0-2.88-3.12c15.54-7.68,17.1-23.46,17.82-37.31H706.67v-3.84H758v3.84Zm5.64-4a74.52,74.52,0,0,0-4.2-9.18l3.84-1.5A65.56,65.56,0,0,1,737,2008Z"/><path d="M783.59,2043.88a9,9,0,1,1-9.06-9A9,9,0,0,1,783.59,2043.88Zm-2.82,0a6.21,6.21,0,1,0-6.24,6.24A6.22,6.22,0,0,0,780.77,2043.88Z"/><rect class="cls-2" x="1113.23" y="1207" width="65" height="321" rx="12"/><path class="cls-1" d="M1157.28,1245.79a27.61,27.61,0,0,0,11.5,8.1,11.65,11.65,0,0,0-2.15,2.55,30.77,30.77,0,0,1-12.8-10.65h-15.95a34.39,34.39,0,0,1-13,11.3,11.43,11.43,0,0,0-2.15-2.55,30.39,30.39,0,0,0,11.6-8.75h-11.1v-2.85h10v-16.15h-7.7V1224h7.7v-5h3.3v5H1155v-5h3.35v5H1166v2.8h-7.65v16.15h9.8v2.85Zm-10,14.5h17.3v2.85H1127v-2.85h16.9v-5.6h-10.45v-2.8h10.45v-4.4h3.35v4.4h10.65v2.8h-10.65Zm-10.8-33.5v3.6H1155v-3.6Zm0,9.8H1155v-3.65h-18.55Zm0,6.35H1155v-3.8h-18.55Z"/><path class="cls-1" d="M1141.48,1287.54s0,1.15,0,1.55c-.6,15.85-1.2,21.2-2.6,23a3.71,3.71,0,0,1-2.8,1.45,32.65,32.65,0,0,1-4.45,0,9.25,9.25,0,0,0-.85-3c1.75.15,3.2.15,3.9.15a1.42,1.42,0,0,0,1.45-.65c1-1.2,1.6-6,2.15-19.35h-6.8c-.55,10-2,18.25-6.45,23.65a9.53,9.53,0,0,0-2.55-2.35c5.45-6.45,5.9-17.85,6.1-31.55h-5.2v-3.1h20.1v3.1h-11.65c0,2.45-.1,4.85-.2,7.15Zm-7.9-10.45a33.47,33.47,0,0,0-4.25-7.15l2.9-1.15a31.92,31.92,0,0,1,4.4,7Zm23.85-7.45a15.26,15.26,0,0,1-.85,2.55c2.65,5.45,7.7,11.35,12.45,14a13,13,0,0,0-2.45,2.75c-4.25-2.7-8.5-8-11.4-13.3a32.61,32.61,0,0,1-11,13.6,12.79,12.79,0,0,0-2.35-2.65c5.85-3.6,10.35-10.2,12.5-17.85Zm-8.3,32.45a74,74,0,0,1,13.6,8.25l-2.25,2.9c-2.85-2.6-8.75-6.3-13.4-8.65Zm9.5-4.85a66.22,66.22,0,0,0-8.6-6.85l2.15-2.2a67.46,67.46,0,0,1,8.75,6.55Z"/><path class="cls-1" d="M1156.43,1339.44a37.72,37.72,0,0,0,12.55,9.3,11.69,11.69,0,0,0-2.4,2.6c-5-2.8-10.55-7.3-13.8-11.9h-14a43.85,43.85,0,0,1-14.45,12.1,10,10,0,0,0-2.1-2.55,41.83,41.83,0,0,0,12.45-9.55h-11.25v-2.8H1137c.9-1.25,1.75-2.55,2.5-3.85h-10.7v-2.65h12.1c.6-1.25,1.1-2.5,1.6-3.75h-16.35v-2.8h17.25a41.59,41.59,0,0,0,1.1-4.65l3.35.4c-.3,1.4-.6,2.85-1,4.25h18.85v2.8h-19.75a29.31,29.31,0,0,1-1.5,3.75h18.8v2.65h-20.1a34,34,0,0,1-2.3,3.85H1168v2.8Zm-13.85,16.4c-3.75,3.6-10.6,7-16.3,8.45a14.19,14.19,0,0,0-2-2.6c5.65-1.2,12.3-4,15.75-7.1Zm4.7-3v11.7H1144v-11.7h-14.1V1350H1144v-4.1c-2.9.35-5.9.65-8.6.8a9,9,0,0,0-.8-2.4c6.45-.55,14.1-1.5,18.45-2.65l1.9,2.45a66,66,0,0,1-7.65,1.4v4.5h14.4v2.8Zm3.25,1.25a152.92,152.92,0,0,1,15,8.15l-1.85,2.3a118,118,0,0,0-14.9-8.45Z"/><path class="cls-1" d="M1136.13,1405.74v8.65h-3.2v-8.65h-10v-3h10v-4.2h-8v-16.6h8v-4.3h-9.4v-2.95h9.4v-5.7h3.2v5.7h9.8v2.95h-9.8v4.3h8.3v16.6h-8.3v4.2h9.95v3Zm-8.15-16.85h13.45v-4.4H1128Zm0,6.95h13.45v-4.45H1128Zm38.4,14.45c0,2-.5,3-1.85,3.6s-3.45.6-7,.55a17.36,17.36,0,0,0-1.1-3.2c2.65.1,5,.1,5.7,0s1.05-.25,1.05-1v-12h-11.65c-.75,5.85-2.7,12-7.25,16.4a9.87,9.87,0,0,0-2.55-1.95c6.45-6.3,7.1-15.4,7.1-22.65v-18.65h17.6Zm-3.25-15.15v-8.85h-11.2v3.7c0,1.65,0,3.35-.15,5.15Zm-11.2-20.7v8.8h11.2v-8.8Z"/><path class="cls-1" d="M1136.58,1432.44v32.1h-3.3v-32.1h-2.75a49.68,49.68,0,0,1-5.4,9.75,22.6,22.6,0,0,0-2.9-2c4-5.1,7.25-13.15,9.15-21.25l3.45.7a92.54,92.54,0,0,1-3,9.55h13.9v3.25Zm31.9,0h-7.75V1460c0,2.25-.5,3.3-2,3.85s-4.3.65-8.15.65a14.17,14.17,0,0,0-1.2-3.55c3.2.1,6.1.1,7,.1s1.1-.3,1.1-1v-27.55h-7.7a47.66,47.66,0,0,1-5.25,9.7,30.88,30.88,0,0,0-2.8-2c4-5.1,7-13.05,8.85-21.2l3.3.65a93.23,93.23,0,0,1-2.85,9.6h17.55Z"/><path class="cls-1" d="M1167.78,1494.29v2.5h-44.15v-2.5h20.25v-3.2H1127v-2.3h16.85v-3h-15.45v-2.25h15.45v-3.2h-20.15v-2.5h20.15v-3H1129v-2.35h14.85v-3.55h3.25v3.55h14.45v5.4h6.15v2.5h-6.15v5.45h-14.45v3h17.3v2.3h-17.3v3.2Zm-37.75,5h31.75v15.25h-3.25v-1.6h-25.3v1.7H1130Zm3.2,2.4v3.2h25.3v-3.2Zm25.3,8.85v-3.4h-25.3v3.4Zm-11.4-32.7h11.15v-3h-11.15Zm0,5.7h11.15v-3.2h-11.15Z"/><rect class="cls-2" x="1113.23" y="431" width="65" height="126" rx="12"/><path class="cls-1" d="M1132.93,460.82c1.25,1.6,4.9,6.7,5.7,8.05l-2,2.45c-.7-1.5-2.35-4.4-3.75-6.65V491h-3.15V466.57c-1.5,5.05-3.5,9.9-5.55,12.85a14.83,14.83,0,0,0-1.75-3.1c2.9-4,5.8-11.5,7.2-18h-6.2v-3.15h6.3v-9.65h3.15v9.65h5.45v3.15h-5.45Zm19.1.7a19.47,19.47,0,0,0,.45,2.65c-10.15,2.7-11.6,3.15-12.5,3.75a12.13,12.13,0,0,0-1.1-3.2c.7-.2,1.55-.5,1.55-2.2v-16.7h3.25v6.5H1152v2.9h-8.35v8.3Zm2.35,5.5-2,3.75h12.65V491h-3.4v-1.75h-17v2h-3.3V470.77h7.9c.55-1.5,1.2-3.25,1.55-4.6Zm7.3,6.5h-17v5.05h17Zm0,13v-5.3h-17v5.3Zm2.25-22.4c1.25,0,1.5-.75,1.65-5.25a9.16,9.16,0,0,0,2.85,1.25c-.3,5.45-1.2,6.95-4.15,6.95h-5.85c-3.65,0-4.55-.95-4.55-4.45V445.87h3.25v6.5h10.2v2.9h-10.2v7.35c0,1.3.25,1.5,1.65,1.5Z"/><path class="cls-1" d="M1167.78,520.87v2.5h-44.15v-2.5h20.25v-3.2H1127v-2.3h16.85v-3h-15.45v-2.25h15.45v-3.2h-20.15v-2.5h20.15v-3.05H1129V499h14.85v-3.55h3.25V499h14.45v5.4h6.15v2.5h-6.15v5.45h-14.45v3h17.3v2.3h-17.3v3.2Zm-37.75,5h31.75v15.25h-3.25v-1.6h-25.3v1.7H1130Zm3.2,2.4v3.2h25.3v-3.2Zm25.3,8.85v-3.4h-25.3v3.4Zm-11.4-32.7h11.15v-3.05h-11.15Zm0,5.7h11.15v-3.2h-11.15Z"/><line class="cls-3" x1="601.5" y1="792.5" x2="601.5" y2="783.5"/><path d="M632.61,1675.6c9.29-81.14,9.67-162.92,9.18-244.48q-.74-122.92-1.73-245.85-.48-69-1-138.11c-.09-12.55-11-24.58-24-24s-24.1,10.55-24,24q.87,123.67,1.75,247.35c.57,81.56,2.25,163.22.41,244.77-1,45.53-3.46,91.06-8.64,136.32-.66,5.7,3.15,13.09,7,17,4.17,4.16,11,7.29,17,7,6.2-.28,12.64-2.32,17-7,4.57-5,6.26-10.29,7-17Z"/><path d="M949.28,1016.18q-130.12-.69-260.25-.69-129.46,0-258.92.67-73,.39-146.06,1c-12.55.1-24.58,11-24,24s10.55,24.11,24,24q130.13-1.07,260.25-1.44,129.45-.37,258.92-.08,73,.17,146.06.56c12.56.06,24.58-11.09,24-24-.59-13.06-10.54-23.93-24-24Z"/><path d="M628.83,1657.9c-8.31-14.36-18-27.72-28.17-40.82-8.92-11.51-18.44-22.55-28.22-33.34-20.79-22.92-42.37-45.16-63.64-67.65l-37.39-39.51a28.3,28.3,0,0,0-18-7.47,28.3,28.3,0,0,0-18,7.47l-4,5.16a25.27,25.27,0,0,0-3.48,12.87l.91,6.78a25.45,25.45,0,0,0,6.56,11.25l53.85,56.92c16.82,17.78,33.86,35.38,50.2,53.6,8.82,9.83,17.4,19.88,25.47,30.34l-4-5.16a322.58,322.58,0,0,1,23.91,35.3,24.57,24.57,0,0,0,25.4,12.18,18.84,18.84,0,0,0,9.48-3l5.17-4a25.52,25.52,0,0,0,6.55-11.26l.91-6.78a25.32,25.32,0,0,0-3.48-12.87Z"/><path d="M635.67,1680.21a322.7,322.7,0,0,1,23.91-35.31l-4,5.16c14.44-18.67,30.43-36,46.61-53.2q26.31-27.93,52.74-55.75l30.18-31.91a26.24,26.24,0,0,0,0-36.06l-5.16-4a25.52,25.52,0,0,0-12.87-3.48l-6.78.91a25.55,25.55,0,0,0-11.25,6.56l-66.55,70.34c-20.32,21.47-41,42.75-59.37,65.92-11.42,14.37-22.3,29.16-31.5,45.07a18.9,18.9,0,0,0-3,9.48,26.22,26.22,0,0,0,12.17,25.41l6.1,2.57a25.74,25.74,0,0,0,13.55,0l6.1-2.57a25.61,25.61,0,0,0,9.14-9.15Z"/></svg>