<svg id="Layer_1" data-name="Layer 1" xmlns="http://www.w3.org/2000/svg" viewBox="0 0 1242 2208"><defs><style>.cls-1{fill:#f6eabe;}.cls-2{fill:#999;}.cls-3{fill:none;stroke:#000;stroke-miterlimit:10;}</style></defs><rect class="cls-1" width="1242" height="2208"/><path d="M944.21,281.72V649.34h-54V603.29H654.41V862.13H599.62V603.29h-235v50H312.2V281.72H599.62V139.59h54.79V281.72ZM599.62,550.88V333.33h-235V550.88Zm290.6,0V333.33H654.41V550.88Z"/><path d="M241.92,1889.69a98.85,98.85,0,0,1-6.18,13.56v39.59H231.9v-33.35a61.73,61.73,0,0,1-5.46,7,32.86,32.86,0,0,0-2.28-3.9c5.58-5.87,10.8-14.87,14-24Zm34.2,29.21c-2,1.38-4.44,2.7-6.84,4,2,5.82,5.82,11.16,10.62,13.62a15.86,15.86,0,0,0-2.64,3.06c-4.92-3-8.76-8.76-10.86-15.3-1,.54-2.1,1-3.12,1.5,2.1,6.3,1.26,12.72-1.38,15.24a6.51,6.51,0,0,1-5,1.92c-1,0-2.4-.06-3.72-.12a9.47,9.47,0,0,0-1-3.48,34.56,34.56,0,0,0,4,.24,3.38,3.38,0,0,0,3-1.14c1.44-1.32,2.1-4.86,1.44-8.94a58.72,58.72,0,0,1-19.5,11.4,11.72,11.72,0,0,0-2.34-2.82c7.44-2.22,16.26-7,21.12-11.82a24.37,24.37,0,0,0-1.62-3.66,57.71,57.71,0,0,1-16.74,9.66,16.14,16.14,0,0,0-2.22-2.64c5.82-1.74,13.38-5.58,17.52-9.3a16.53,16.53,0,0,0-2.82-3,39.59,39.59,0,0,1-12.3,6.17,14.66,14.66,0,0,0-2.28-2.58c6.54-2.1,10.86-4.62,13.68-7.25h-9.54v-9.36c-1.08,1-2.22,1.92-3.42,2.88a9.62,9.62,0,0,0-2.64-2.52,45.51,45.51,0,0,0,13.92-16.26l3.84.72a35.7,35.7,0,0,1-2,3.54h11.1l.78-.18,2.34,1.68a52.13,52.13,0,0,1-4.8,6.84h13v12.66H257.7a16.53,16.53,0,0,1-1.38,1.62,22.17,22.17,0,0,1,6,7.85,118.29,118.29,0,0,0,11.1-6.66Zm-25-23.09a54.58,54.58,0,0,1-4.2,5.16h11.58a33.35,33.35,0,0,0,3.72-5.16Zm-4,14.69h8.64a15.14,15.14,0,0,0,2.46-6.42h-11.1Zm24.72-6.42H261.6a18.56,18.56,0,0,1-1.8,6.42h12.06Z"/><path d="M305.16,1901.63a67.9,67.9,0,0,1-7.2,12.24v28.85h-4v-24a41.57,41.57,0,0,1-7.26,6.41,17,17,0,0,0-2-3.48c7-5,12.3-12.23,16.14-20H286v-3.84h16.44a65.25,65.25,0,0,0,3.3-9.42l4.08,1c-.9,2.82-1.86,5.64-3,8.4H338.1v3.84Zm32.94,36.23v3.72H302v-3.72h16v-17.52H304.32v-3.71H318v-11.82h4v11.82h13.8v3.71H322v17.52Z"/><path d="M399.36,1912.91v4.31H344.88v-4.31Z"/><path d="M418.26,1899.89h7.2v3.78h-7.2v3.06c1.62,2.22,6,8.94,7,10.67l-2.4,2.88c-.84-1.86-2.88-5.64-4.56-8.64v31.26h-3.72v-30.23c-2.1,7-5,13.79-7.92,17.87a21,21,0,0,0-2.22-3.72c3.9-5.1,7.8-14.75,9.72-23.15H405.3v-3.78h9.24v-11.58h3.72Zm39.6,22.07a77.93,77.93,0,0,1-10.68,7.26,27,27,0,0,0,12.42,9.84,19.57,19.57,0,0,0-2.76,3.48c-9.72-4.32-15.66-13.56-18.78-25.5h-6.3v20.46l11.34-2.76a20.69,20.69,0,0,0,.18,3.48c-12.48,3.48-14.22,4-15.3,4.8a18.6,18.6,0,0,0-1.68-3.48c.72-.42,1.56-1.08,1.56-3.36V1891h26.46v26H441.6a40.25,40.25,0,0,0,3.78,9.3,76.49,76.49,0,0,0,9.84-7.13Zm-26.1-27.41v7.68h18.66v-7.68Zm0,19h18.66v-7.92H431.76Z"/><path d="M519.12,1937.08v3.66H465v-3.66h8.64v-34.73h14.1c.36-1.5.6-3.24.84-5H466.8v-3.66h22.32c.24-1.92.48-3.78.6-5.34l4.38.42c-.24,1.56-.54,3.24-.84,4.92H517.2v3.66H492.6c-.36,1.74-.72,3.54-1.08,5h19.32v34.73Zm-41.64-31.31v5.4h29.34v-5.4Zm29.34,8.57H477.48v5.1h29.34Zm-29.34,13.8h29.34v-5.52H477.48Zm0,8.94h29.34v-5.76H477.48Z"/><path d="M544.92,1919.68a15.1,15.1,0,0,0,0,3.3c-15,3.06-16.92,3.6-18.12,4.32a33.47,33.47,0,0,0-1.26-3.66c1.2-.24,2.64-1.74,4.44-4a87.43,87.43,0,0,0,6.3-8.46c-7.56,1-9.06,1.38-9.9,1.8a20.34,20.34,0,0,0-1.26-3.84c1.08-.23,2.1-1.61,3.42-3.72a92.15,92.15,0,0,0,8-16.91l3.78,1.8a97.72,97.72,0,0,1-9.78,18.11l8-.77c1.38-2.23,2.64-4.5,3.84-6.72l3.3,2a125.25,125.25,0,0,1-13.2,19Zm.9,13.8-19.5,5.64-.84-3.9c4.92-1.08,12.42-3.18,19.8-5.16Zm32.88-14.34a50.06,50.06,0,0,1-12.06,12.66c2,4.56,4.38,7.14,7.2,7.14,1.68,0,2.34-1.44,2.64-6.78a10.78,10.78,0,0,0,3,2.16c-.72,6.54-2,8.52-6,8.52-4.32,0-7.62-3.24-10-8.76a70.36,70.36,0,0,1-16,7.8,15.29,15.29,0,0,0-2.52-3.24,67.16,67.16,0,0,0,17.16-8,75.29,75.29,0,0,1-3.06-13.62l-11.58,2.23-.66-3.61,11.76-2.15c-.36-2.7-.6-5.53-.78-8.46l-9.18,1.38-.66-3.6,9.6-1.38c-.24-4.26-.36-8.58-.42-13.14h4c0,4.38.06,8.58.24,12.6l14.58-2.16.66,3.48-15,2.28c.18,2.88.42,5.63.78,8.27l15.24-2.88.66,3.54-15.48,2.95a83.84,83.84,0,0,0,2.58,11.93,44.15,44.15,0,0,0,10-10.74Zm-5.7-22a47.55,47.55,0,0,0-8.82-5.34l2.22-2.22a42.19,42.19,0,0,1,8.88,5Z"/><path d="M601,1889c-1,2.94-2.1,6.3-3.18,8.88H608v38.75h-16.8v4.8h-3.66v-43.55h6.66a64.68,64.68,0,0,0,2.58-9.72Zm3.3,12.47H591.18v13.08h13.14Zm0,31.56v-14.88H591.18v14.88Zm33.06-33.17c-1,27.53-1.8,36.71-4.2,39.59a5.6,5.6,0,0,1-4.56,2.28,74.94,74.94,0,0,1-8.82-.12,9.42,9.42,0,0,0-1.32-3.9c3.9.36,7.5.36,8.82.36s1.92-.12,2.52-.9c2-2.1,2.94-11.34,3.72-35.7H617.82a55.33,55.33,0,0,1-5.64,10.68,36.22,36.22,0,0,0-3.36-2.22c4.08-5.33,7.32-13.61,9.18-21.89l3.84.84c-.78,3-1.62,6-2.64,8.88h18.18Zm-12.78,27a106.51,106.51,0,0,0-9.3-13.92l3.06-1.79a102.47,102.47,0,0,1,9.6,13.61Z"/><path d="M695.82,1899.05v27.77h-4.08v-3.48H673.92v19.56h-4.14v-19.56H652v3.78h-4v-28.07h21.72v-10.74h4.14v10.74Zm-26,20.33V1903H652v16.43Zm22,0V1903H673.92v16.43Z"/><path d="M707.82,1901.63h4.08v41.45h-4.08Zm4-12.42a42.73,42.73,0,0,1,7.5,8.4l-3.3,2.16a47.19,47.19,0,0,0-7.26-8.7Zm9.12,16.25h22.2v26.94H720.9ZM756.36,1938c0,2.34-.54,3.42-2,4.08s-4,.72-7.62.72a20.32,20.32,0,0,0-1.32-3.78c2.58.12,5.16.06,5.82.06.84,0,1.08-.3,1.08-1.08v-42.41h-29v-3.78h33.06Zm-31.86-20.81h14.82v-8.34H724.5Zm0,11.87h14.82v-8.46H724.5Z"/><path d="M791.28,1901.87c-.48,26.69-.84,35.33-2.76,37.85a4.59,4.59,0,0,1-3.84,2.16,38.73,38.73,0,0,1-7,0,9.48,9.48,0,0,0-1.2-4c2.88.18,5.52.24,6.6.24a1.89,1.89,0,0,0,2-1c1.38-1.74,1.92-10,2.4-33.59h-9.6c-.54,16.14-2.64,30.65-10.8,39.41a13,13,0,0,0-3-2.7c7.68-7.92,9.48-21.54,9.9-36.71h-8.52v-3.84h8.64c.06-3.48.06-7,.06-10.62H778c0,3.6,0,7.14-.12,10.62h13.38Zm25.26-6v45.83h-4v-4H800.22v4.44h-3.84v-46.25Zm-4,38v-34.13H800.22v34.13Z"/><path d="M878.76,1936.18v4H825.3v-4h22.62v-46.85h4.14v18.54h22.62v4H852.06v24.3Z"/><path d="M936.9,1890.83v52.07h-3.84v-2.34H890.94v2.34h-3.72v-52.07Zm-3.84,46.25v-42.71H890.94v42.71Zm-11.82-23.33a23.65,23.65,0,0,0,10.68,7.49,16,16,0,0,0-2.34,2.64,26,26,0,0,1-11.94-10.13H906.72a40.89,40.89,0,0,1-3.9,4.38H920s0,.77-.06,1.25c-.18,4.56-.48,6.6-1.2,7.38a3.37,3.37,0,0,1-2.64,1,34.82,34.82,0,0,1-4.8-.12,7.81,7.81,0,0,0-.78-2.46c2,.18,3.84.18,4.44.18a1.37,1.37,0,0,0,1.32-.36c.3-.36.48-1.56.6-4.26H905.34V1930c0,1.56.54,1.86,3.54,1.86H919.8c2.16,0,2.58-.66,2.82-4.92a10,10,0,0,0,2.88,1.14c-.36,5.22-1.44,6.54-5.34,6.54h-11.4c-5.22,0-6.72-.84-6.72-4.56v-11.22a37.68,37.68,0,0,1-7.74,5.34,18.48,18.48,0,0,0-2.28-2.76,31.85,31.85,0,0,0,10.5-7.67H893.7v-2.83h11a26,26,0,0,0,2.46-4.19h-10.5V1904H908.4a44.1,44.1,0,0,0,2.34-8.09l3.42.36a58.9,58.9,0,0,1-2.22,7.73h6.48a44.53,44.53,0,0,0,3.42-7.07l3.18,1c-1.08,2.1-2.28,4.26-3.36,6h6.54v2.77H910.8a38.46,38.46,0,0,1-2.22,4.19h22v2.83Zm-19.14-10.14a18.11,18.11,0,0,0-3.42-5.46l2.58-1.08a17.19,17.19,0,0,1,3.54,5.34Z"/><path d="M970.56,1915.42V1943h-3.9v-27.54H956.4c-.18,10.08-1.74,20-8.88,27.9a15.89,15.89,0,0,0-2.94-2.7c6.54-7.2,7.86-16.14,8.1-25.2h-7.92v-3.71h8v-15.9h-7.08v-3.72h30.66v3.72h-5.76v15.9h6.54v3.71Zm-3.9-3.71v-15.9h-10.2v15.9Zm33.18,11.69c-5,8.16-13.68,15.36-23,19.62a14.41,14.41,0,0,0-2.82-3.24c9-3.66,17.58-10.38,22.08-17.82Zm-3.24-32.51c-4.32,5.46-11.16,10.74-17.16,14a15.73,15.73,0,0,0-2.88-2.75c5.76-2.88,12.6-8,16.32-12.78Zm1.8,16.37A65.72,65.72,0,0,1,980,1922.38a20.87,20.87,0,0,0-2.82-2.82c6.18-3.12,13.5-8.64,17.58-13.79Z"/><path d="M1006,1941.7c4.68-2,7.26-4.92,7.56-9.18a7.35,7.35,0,0,1-1.14.12c-2.34,0-4.26-1.38-4.26-4.08a4,4,0,0,1,4.32-4.14c3.18,0,4.86,2.64,4.86,6.66,0,6.48-4,11.28-10.08,13.44Z"/><path d="M455.4,1989.88l-8.1,2.52v17.76c0,2.4-.6,3.42-2,4.08s-3.84.78-7.8.72a14,14,0,0,0-1.26-3.66c2.76.06,5.34.06,6.06.06s1.14-.3,1.14-1.14V1993.6l-8,2.46-1.2-3.89c2.52-.67,5.76-1.57,9.24-2.59v-13.25h-8.52v-3.78h8.52v-12.18h3.9v12.18h7.2v3.78h-7.2v12.11c2.46-.77,5-1.5,7.56-2.27Zm25.68-9.84c3.36,0,3.9-1,4.26-7.61a12.2,12.2,0,0,0,3.72,1.56c-.66,7.8-1.92,9.72-7.74,9.72H467c-6.6,0-8.46-1.14-8.46-6.06v-17h4v9.12c7.26-1.56,15.24-3.66,19.74-5.64l3.12,2.94c-6,2.4-15,4.5-22.86,6v4.62c0,2,.72,2.39,4.62,2.39Zm-22.5,8.94h28v25.74h-4v-2.52H462.36V2015h-3.78Zm3.78,3.48v6.36h20.22v-6.36Zm20.22,16.38v-6.72H462.36v6.72Z"/><path d="M510.6,1990.48a55.25,55.25,0,0,1-12.66,19.08,26.09,26.09,0,0,0-3.54-2.4,46.53,46.53,0,0,0,12.12-17.7Zm37.62-11.1v4H524.16v26.34c0,2.7-.72,3.84-2.64,4.56s-5.52.72-10.8.72a16.61,16.61,0,0,0-1.44-4.2c4.2.12,8,.18,9.12.12s1.5-.36,1.5-1.32v-26.22H495.72v-4ZM543,1968.89H501.06v-4H543Zm-6.3,20.75c4.44,5.58,9.18,13.14,11,18.18l-4,1.74c-1.62-5-6.24-12.72-10.68-18.48Z"/><path d="M574.92,1991.68a15.1,15.1,0,0,0,0,3.3c-15,3.06-16.92,3.6-18.12,4.32a33.47,33.47,0,0,0-1.26-3.66c1.2-.24,2.64-1.74,4.44-4a87.43,87.43,0,0,0,6.3-8.46c-7.56,1-9.06,1.38-9.9,1.8a20.34,20.34,0,0,0-1.26-3.84c1.08-.23,2.1-1.61,3.42-3.72a92.15,92.15,0,0,0,8-16.91l3.78,1.8a97.72,97.72,0,0,1-9.78,18.11l8-.77c1.38-2.23,2.64-4.5,3.84-6.72l3.3,2a125.25,125.25,0,0,1-13.2,19Zm.9,13.8-19.5,5.64-.84-3.9c4.92-1.08,12.42-3.18,19.8-5.16Zm32.88-14.34a50.06,50.06,0,0,1-12.06,12.66c2,4.56,4.38,7.14,7.2,7.14,1.68,0,2.34-1.44,2.64-6.78a10.78,10.78,0,0,0,3,2.16c-.72,6.54-2,8.52-6,8.52-4.32,0-7.62-3.24-10-8.76a70.36,70.36,0,0,1-16,7.8,15.29,15.29,0,0,0-2.52-3.24,67.16,67.16,0,0,0,17.16-8,75.29,75.29,0,0,1-3.06-13.62l-11.58,2.23-.66-3.61,11.76-2.15c-.36-2.7-.6-5.53-.78-8.46l-9.18,1.38-.66-3.6,9.6-1.38c-.24-4.26-.36-8.58-.42-13.14h4c0,4.38.06,8.58.24,12.6l14.58-2.16.66,3.48-15,2.28c.18,2.88.42,5.63.78,8.27l15.24-2.88.66,3.54-15.48,2.95a83.84,83.84,0,0,0,2.58,11.93,44.15,44.15,0,0,0,10-10.74Zm-5.7-22a47.55,47.55,0,0,0-8.82-5.34l2.22-2.22a42.19,42.19,0,0,1,8.88,5Z"/><path d="M631,1961c-1,2.94-2.1,6.3-3.18,8.88H638v38.75h-16.8v4.8h-3.66v-43.55h6.66a64.68,64.68,0,0,0,2.58-9.72Zm3.3,12.47H621.18v13.08h13.14Zm0,31.56v-14.88H621.18v14.88Zm33.06-33.17c-1,27.53-1.8,36.71-4.2,39.59a5.6,5.6,0,0,1-4.56,2.28,74.94,74.94,0,0,1-8.82-.12,9.42,9.42,0,0,0-1.32-3.9c3.9.36,7.5.36,8.82.36s1.92-.12,2.52-.9c2-2.1,2.94-11.34,3.72-35.7H647.82a55.33,55.33,0,0,1-5.64,10.68,36.22,36.22,0,0,0-3.36-2.22c4.08-5.33,7.32-13.61,9.18-21.89l3.84.84c-.78,3-1.62,6-2.64,8.88h18.18Zm-12.78,27a106.51,106.51,0,0,0-9.3-13.92l3.06-1.79a102.47,102.47,0,0,1,9.6,13.61Z"/><path d="M725.82,1971.05v27.77h-4.08v-3.48H703.92v19.56h-4.14v-19.56H682v3.78h-4v-28.07h21.72v-10.74h4.14v10.74Zm-26,20.33V1975H682v16.43Zm22,0V1975H703.92v16.43Z"/><path d="M737.82,1973.63h4.08v41.45h-4.08Zm4-12.42a42.73,42.73,0,0,1,7.5,8.4l-3.3,2.16a47.19,47.19,0,0,0-7.26-8.7Zm9.12,16.25h22.2v26.94H750.9ZM786.36,2010c0,2.34-.54,3.42-2,4.08s-4,.72-7.62.72a20.32,20.32,0,0,0-1.32-3.78c2.58.12,5.16.06,5.82.06.84,0,1.08-.3,1.08-1.08v-42.41h-29v-3.78h33.06Zm-31.86-20.81h14.82v-8.34H754.5Zm0,11.87h14.82v-8.46H754.5Z"/><path d="M813.36,2004.88a9,9,0,1,1-9.06-9A9,9,0,0,1,813.36,2004.88Zm-2.82,0a6.21,6.21,0,1,0-6.24,6.24A6.22,6.22,0,0,0,810.54,2004.88Z"/><path d="M423.9,2049.17c4.44,10.31,12.24,20,20.76,24.71a23.11,23.11,0,0,0-3.06,3.36c-9-5.58-16.92-16.32-21.6-28.07h-1v22.43h14.28v4H419V2087H414.9v-11.4H400.68v-4H414.9v-22.43h-1.08c-4.74,11.75-12.66,22.43-21.3,28.25a24.18,24.18,0,0,0-2.88-3.18c8-4.92,15.66-14.76,20.16-25.07H391.14v-4H414.9v-12.72H419v12.72h24v4Z"/><path d="M498.6,2038.07c-4.32,12.12-10.08,22.68-18.6,31.25a65.72,65.72,0,0,0,24.42,14.1,17.56,17.56,0,0,0-2.76,3.54A66.69,66.69,0,0,1,477,2072.2a72.92,72.92,0,0,1-25.38,14.7,14.53,14.53,0,0,0-2.16-3.36,69.86,69.86,0,0,0,24.78-14.1,89.37,89.37,0,0,1-18.18-29.27l3.6-1.08a80.51,80.51,0,0,0,17.52,27.53c8.16-8.21,13.62-18.41,17.4-29.87ZM478,2048a102.25,102.25,0,0,0-5.88-14.45l3.42-1.38a105.48,105.48,0,0,1,6.06,14.28Z"/><path d="M539.46,2081.62a70.7,70.7,0,0,0,7.38.36c2.1.06,14.76,0,17.58-.06a16.36,16.36,0,0,0-1.44,3.84H546.72c-12.3,0-19.92-1.92-24.72-10.38a31.55,31.55,0,0,1-9.48,11.7,19.84,19.84,0,0,0-3.06-2.82c6.3-4.14,10.2-10.92,11.82-19.86l4,.6a55.92,55.92,0,0,1-1.5,6.06c2.34,5.64,6.3,8.52,11.7,9.84v-18.54H510.72v-3.6H563.4v3.6H539.46v7.08h20v3.6h-20Zm17.22-27.17h-39.6v-19.56h39.6Zm-4-16.44H521v5.16h31.68Zm0,8.1H521v5.27h31.68Z"/><path d="M620.82,2043.05v27.77h-4.08v-3.48H598.92v19.56h-4.14v-19.56H577v3.78h-4v-28.07h21.72v-10.74h4.14v10.74Zm-26,20.33V2047H577v16.43Zm22,0V2047H598.92v16.43Z"/><path d="M660.78,2064.4c4.08,10,12.06,16.38,24.18,19a18.87,18.87,0,0,0-2.52,3.54c-12.72-3.24-20.88-10.5-25.38-22-2.58,8.82-9.18,16.8-25,22.14a14.76,14.76,0,0,0-2.22-3.48c14.4-4.74,20.58-11.7,23.1-19.26H630.36v-3.9H637v-19.73h17.7v-8.46h4v8.46h18.78v19.73h6.18v3.9Zm-6.78-3.9a51.4,51.4,0,0,0,.72-9.12v-6.77H641v15.89Zm4.74-15.89v6.77a51.37,51.37,0,0,1-.66,9.12h15.3v-15.89Z"/><path d="M689.7,2072.26l3.48-3.06a113.53,113.53,0,0,1,13.5,13.38L703,2085.7A97.41,97.41,0,0,0,689.7,2072.26Z"/><path d="M770.82,2043.05v27.77h-4.08v-3.48H748.92v19.56h-4.14v-19.56H727v3.78h-4v-28.07h21.72v-10.74h4.14v10.74Zm-26,20.33V2047H727v16.43Zm22,0V2047H748.92v16.43Z"/><path d="M782.82,2045.63h4.08v41.45h-4.08Zm4-12.42a42.73,42.73,0,0,1,7.5,8.4l-3.3,2.16a47.19,47.19,0,0,0-7.26-8.7Zm9.12,16.25h22.2v26.94H795.9ZM831.36,2082c0,2.34-.54,3.42-2,4.08s-4,.72-7.62.72a20.32,20.32,0,0,0-1.32-3.78c2.58.12,5.16.06,5.82.06.84,0,1.08-.3,1.08-1.08v-42.41h-29v-3.78h33.06Zm-31.86-20.81h14.82v-8.34H799.5Zm0,11.87h14.82v-8.46H799.5Z"/><path d="M858.36,2076.88a9,9,0,1,1-9.06-9A9,9,0,0,1,858.36,2076.88Zm-2.82,0a6.21,6.21,0,1,0-6.24,6.24A6.22,6.22,0,0,0,855.54,2076.88Z"/><rect class="cls-2" x="1113" y="1251" width="65" height="270" rx="12"/><path class="cls-1" d="M1157.05,1289.79a27.61,27.61,0,0,0,11.5,8.1,11.65,11.65,0,0,0-2.15,2.55,30.77,30.77,0,0,1-12.8-10.65h-15.95a34.39,34.39,0,0,1-13,11.3,11.43,11.43,0,0,0-2.15-2.55,30.39,30.39,0,0,0,11.6-8.75H1123v-2.85h10v-16.15h-7.7V1268h7.7v-5h3.3v5h18.55v-5h3.35v5h7.65v2.8h-7.65v16.15h9.8v2.85Zm-10,14.5h17.3v2.85H1126.8v-2.85h16.9v-5.6h-10.45v-2.8h10.45v-4.4h3.35v4.4h10.65v2.8h-10.65Zm-10.8-33.5v3.6h18.55v-3.6Zm0,9.8h18.55v-3.65h-18.55Zm0,6.35h18.55v-3.8h-18.55Z"/><path class="cls-1" d="M1141.25,1331.54s0,1.15,0,1.55c-.6,15.85-1.2,21.2-2.6,23a3.71,3.71,0,0,1-2.8,1.45,32.65,32.65,0,0,1-4.45,0,9.25,9.25,0,0,0-.85-3c1.75.15,3.2.15,3.9.15a1.42,1.42,0,0,0,1.45-.65c1-1.2,1.6-6,2.15-19.35h-6.8c-.55,10-2,18.25-6.45,23.65a9.53,9.53,0,0,0-2.55-2.35c5.45-6.45,5.9-17.85,6.1-31.55h-5.2v-3.1h20.1v3.1h-11.65c0,2.45-.1,4.85-.2,7.15Zm-7.9-10.45a33.47,33.47,0,0,0-4.25-7.15l2.9-1.15a31.92,31.92,0,0,1,4.4,7Zm23.85-7.45a15.26,15.26,0,0,1-.85,2.55c2.65,5.45,7.7,11.35,12.45,14a13,13,0,0,0-2.45,2.75c-4.25-2.7-8.5-8-11.4-13.3a32.61,32.61,0,0,1-11,13.6,12.79,12.79,0,0,0-2.35-2.65c5.85-3.6,10.35-10.2,12.5-17.85Zm-8.3,32.45a74,74,0,0,1,13.6,8.25l-2.25,2.9c-2.85-2.6-8.75-6.3-13.4-8.65Zm9.5-4.85a66.22,66.22,0,0,0-8.6-6.85l2.15-2.2a67.46,67.46,0,0,1,8.75,6.55Z"/><path class="cls-1" d="M1164,1366.19v29.3h-3.5v-2.55h-13.3v15.6h-3.45v-15.6h-13.4v2.75H1127v-29.5Zm-33.65,3.2V1378h13.4v-8.65Zm13.4,20.35v-8.5h-13.4v8.5Zm16.75-20.35h-13.3V1378h13.3Zm0,20.35v-8.5h-13.3v8.5Z"/><path class="cls-1" d="M1166.25,1428.09v9.3h-3.15V1431h-35.4v6.4h-3v-9.3h6.95v-12.95h27.7v12.95Zm-6.45,26.6c0,1.85-.45,2.7-1.85,3.2s-3.9.5-7.7.45a8.57,8.57,0,0,0-1.1-2.75c3,.05,5.65.05,6.4.05s1-.25,1-1v-6.2c-7.3,1.45-14.85,3-20.45,4l-1.1-3c5.4-.8,13.6-2.3,21.55-3.75V1437h-22.2v5.3c0,4.85-.65,11.55-4.35,16.2a13.29,13.29,0,0,0-2.7-2c3.45-4.25,3.85-10,3.85-14.25v-8h28.6Zm-25-26.6h7.45v-6.9H1156v-3.35h-21.2Zm2.45,11.7a75.14,75.14,0,0,1,17.7,3l-.9,2.6c-4-1.5-11.7-2.9-17.7-3.35Zm18.75-16.3h-10.75v4.6H1156Z"/><path class="cls-1" d="M1160,1475.09a51.83,51.83,0,0,1-12,19.6,49.94,49.94,0,0,0,20.5,10.5,16.79,16.79,0,0,0-2.25,3,50.92,50.92,0,0,1-20.75-11.1c-5.65,5-12.55,8.6-21,11.3a15.53,15.53,0,0,0-2-3.05c8.35-2.45,15.1-5.9,20.6-10.6a57.05,57.05,0,0,1-12.2-19.65h-7.75v-3.25h44.75v3.25Zm-25.75,0a52.13,52.13,0,0,0,11.3,17.3,47.46,47.46,0,0,0,10.7-17.3Zm11.25-3.55a38.13,38.13,0,0,0-3.8-7.8l3.4-1a39,39,0,0,1,4,7.65Z"/><rect class="cls-2" x="1113" y="417" width="65" height="126" rx="12"/><path class="cls-1" d="M1132.7,446.82c1.25,1.6,4.9,6.7,5.7,8.05l-2,2.45c-.7-1.5-2.35-4.4-3.75-6.65V477h-3.15V452.57c-1.5,5.05-3.5,9.9-5.55,12.85a14.83,14.83,0,0,0-1.75-3.1c2.9-4,5.8-11.5,7.2-18h-6.2v-3.15h6.3v-9.65h3.15v9.65h5.45v3.15h-5.45Zm19.1.7a19.47,19.47,0,0,0,.45,2.65c-10.15,2.7-11.6,3.15-12.5,3.75a12.13,12.13,0,0,0-1.1-3.2c.7-.2,1.55-.5,1.55-2.2v-16.7h3.25v6.5h8.35v2.9h-8.35v8.3Zm2.35,5.5-2,3.75h12.65V477h-3.4v-1.75h-17v2h-3.3V456.77h7.9c.55-1.5,1.2-3.25,1.55-4.6Zm7.3,6.5h-17v5.05h17Zm0,13v-5.3h-17v5.3Zm2.25-22.4c1.25,0,1.5-.75,1.65-5.25a9.16,9.16,0,0,0,2.85,1.25c-.3,5.45-1.2,6.95-4.15,6.95h-5.85c-3.65,0-4.55-.95-4.55-4.45V431.87h3.25v6.5h10.2v2.9h-10.2v7.35c0,1.3.25,1.5,1.65,1.5Z"/><path class="cls-1" d="M1167.55,506.87v2.5H1123.4v-2.5h20.25v-3.2H1126.8v-2.3h16.85v-3H1128.2v-2.25h15.45v-3.2H1123.5v-2.5h20.15v-3.05H1128.8V485h14.85v-3.55h3.25V485h14.45v5.4h6.15v2.5h-6.15v5.45H1146.9v3h17.3v2.3h-17.3v3.2Zm-37.75,5h31.75v15.25h-3.25v-1.6H1133v1.7h-3.2Zm3.2,2.4v3.2h25.3v-3.2Zm25.3,8.85v-3.4H1133v3.4Zm-11.4-32.7h11.15v-3.05H1146.9Zm0,5.7h11.15v-3.2H1146.9Z"/><line class="cls-3" x1="601.5" y1="792.5" x2="601.5" y2="783.5"/><path d="M608.06,1056.16q0,130.13.72,260.25.69,129.46,2,258.92.75,73,1.72,146.05c.17,12.54,10.92,24.58,24,24,12.86-.58,24.18-10.55,24-24q-1.72-130.12-2.78-260.24-1.05-129.47-1.46-258.92-.22-73-.24-146.06c0-12.55-11-24.58-24-24s-24,10.55-24,24Z"/><path d="M620,1219.5c-25.19,3.07-50.49,5.14-75.7,8-26.92,3-53.93,6.67-80.23,13.3a306.24,306.24,0,0,0-30.61,9.4,300.76,300.76,0,0,0-34.84,15.21,189.85,189.85,0,0,0-26.25,16.39c-9.6,7.2-18.84,14.77-26.84,23.76A176.78,176.78,0,0,0,332.6,1322a99,99,0,0,0-7.12,11.92,123.07,123.07,0,0,0-11.25,31.25c-2.15,10.82-3.36,22-2.37,33.06a130.92,130.92,0,0,0,3,19.39,118.31,118.31,0,0,0,6.65,18.38,96.86,96.86,0,0,0,18.28,27.24c4.74,5.11,10.21,9.34,15.77,13.52a109.59,109.59,0,0,0,14.49,9.13,235.27,235.27,0,0,0,21.54,9.73c5.42,2.21,10.93,4.23,16.48,6.11,11.25,3.81,22.7,7,34.26,9.72,25.57,6,51.75,9.55,77.9,11.83,24.33,2.13,48.76,2.92,73.18,3.15q8.83.08,17.66.07a19.22,19.22,0,0,0,9.83-2.2,26.18,26.18,0,0,0,15.67-23.3l-.91-6.78a25.43,25.43,0,0,0-6.55-11.25c-5-4.58-11.13-7.47-18-7.47-31,0-62-.61-92.79-3.39q-12.91-1.17-25.75-2.88l6.78.91c-25.71-3.47-51.22-8.79-75.86-17-6.91-2.3-13.76-4.8-20.47-7.62l6.09,2.57c-10-4.24-19.8-9.29-28.48-15.93l5.16,4a79.9,79.9,0,0,1-14.42-14.34l4,5.16a78.34,78.34,0,0,1-9.9-17.06L368,1416a83.36,83.36,0,0,1-5.62-20.85l.91,6.77a92.08,92.08,0,0,1,0-23.92l-.91,6.78a99,99,0,0,1,6.9-25.22l-2.57,6.09a103.14,103.14,0,0,1,13.27-22.5l-4,5.16a141.66,141.66,0,0,1,25.31-25l-5.16,4a204.83,204.83,0,0,1,45.34-25.93l-6.1,2.57c23.33-9.83,47.92-16.07,72.82-20.41,7.85-1.36,15.72-2.54,23.62-3.6l-6.78.91c24.64-3.3,49.41-5.4,74.13-8,6.94-.73,13.87-1.5,20.8-2.35a19.16,19.16,0,0,0,9.82-2.2,22.89,22.89,0,0,0,13.48-13.48,19.16,19.16,0,0,0,2.2-9.82l-.91-6.78A25.45,25.45,0,0,0,638,1227l-5.16-4A25.32,25.32,0,0,0,620,1219.5Z"/><path d="M637,1526.5c25.19-3.07,50.49-5.14,75.7-8,26.92-3,53.93-6.67,80.23-13.3a306.24,306.24,0,0,0,30.61-9.4,300.76,300.76,0,0,0,34.84-15.21,189.85,189.85,0,0,0,26.25-16.39c9.6-7.2,18.84-14.77,26.84-23.76A176.78,176.78,0,0,0,924.4,1424a99,99,0,0,0,7.12-11.92,123.07,123.07,0,0,0,11.25-31.25c2.15-10.82,3.36-22,2.37-33.06a130.92,130.92,0,0,0-3-19.39,118.31,118.31,0,0,0-6.65-18.38,96.86,96.86,0,0,0-18.28-27.24c-4.74-5.11-10.21-9.34-15.77-13.52a109.59,109.59,0,0,0-14.49-9.13,235.27,235.27,0,0,0-21.54-9.73c-5.42-2.21-10.93-4.23-16.48-6.11-11.25-3.81-22.7-7-34.26-9.72-25.57-6-51.75-9.55-77.9-11.83-24.33-2.13-48.76-2.92-73.18-3.15q-8.83-.08-17.66-.07a19.22,19.22,0,0,0-9.83,2.2,26.18,26.18,0,0,0-15.67,23.3l.91,6.78a25.43,25.43,0,0,0,6.55,11.25c5,4.58,11.13,7.47,18,7.47,31,0,62,.61,92.79,3.39q12.91,1.17,25.75,2.88l-6.78-.91c25.71,3.47,51.22,8.79,75.86,17,6.91,2.3,13.76,4.8,20.47,7.62l-6.09-2.57c10,4.24,19.8,9.29,28.48,15.93l-5.16-4a79.9,79.9,0,0,1,14.42,14.34l-4-5.16a78.34,78.34,0,0,1,9.9,17.06L889,1330a83.36,83.36,0,0,1,5.62,20.85l-.91-6.77a92.08,92.08,0,0,1,0,23.92l.91-6.78a99,99,0,0,1-6.9,25.22l2.57-6.09a103.14,103.14,0,0,1-13.27,22.5l4-5.16a141.66,141.66,0,0,1-25.31,25l5.16-4a204.83,204.83,0,0,1-45.34,25.93l6.1-2.57c-23.33,9.83-47.92,16.07-72.82,20.41-7.85,1.36-15.72,2.54-23.62,3.6l6.78-.91c-24.64,3.3-49.41,5.4-74.13,8-6.94.73-13.87,1.5-20.8,2.35a19.16,19.16,0,0,0-9.82,2.2,22.89,22.89,0,0,0-13.48,13.48,19.16,19.16,0,0,0-2.2,9.82l.91,6.78A25.45,25.45,0,0,0,619,1519l5.16,4A25.32,25.32,0,0,0,637,1526.5Z"/></svg>