<svg id="Layer_1" data-name="Layer 1" xmlns="http://www.w3.org/2000/svg" viewBox="0 0 1242 2208"><defs><style>.cls-1{fill:#f6eabe;}.cls-2{fill:#999;}.cls-3{fill:none;stroke:#000;stroke-linecap:round;stroke-miterlimit:10;stroke-width:50px;}</style></defs><rect class="cls-1" width="1242" height="2208"/><path d="M906.84,325.21c-97.66,144.51-275.52,311.25-439.08,410.5,7.94,5.55,16.67,11.11,25.41,17.46,50,31.76,114.33,37.32,203.26,37.32,94.48,0,211.2-6.35,287.42-13.5-5.55,13.5-14.29,41.29-15.08,56.38-59.55,4-198.5,8.73-273.93,8.73-96.07,0-161.18-8.73-213.58-42.87-31.76-19.85-56.38-46.06-73.84-46.06-25.41,0-62.73,45.26-101.63,97.66l-39.7-47.63C318.49,746.82,368.51,704,408.21,704a61.58,61.58,0,0,1,11.91,1.58c145.3-84.16,307.28-230.25,397-352.53H307.37V301.39H856l11.12-3.17Zm-266-28.58c-16.67-34.14-52.4-92.1-83.37-132.6l46-23.82c31.76,41.29,69.08,96.87,85,129.42Z"/><rect class="cls-2" x="1113" y="450" width="65" height="126" rx="12"/><path class="cls-1" d="M1132.7,479.82c1.25,1.6,4.9,6.7,5.7,8.05l-2,2.45c-.7-1.5-2.35-4.4-3.75-6.65V510h-3.15V485.57c-1.5,5.05-3.5,9.9-5.55,12.85a14.83,14.83,0,0,0-1.75-3.1c2.9-4,5.8-11.5,7.2-18h-6.2v-3.15h6.3v-9.65h3.15v9.65h5.45v3.15h-5.45Zm19.1.7a19.47,19.47,0,0,0,.45,2.65c-10.15,2.7-11.6,3.15-12.5,3.75a12.13,12.13,0,0,0-1.1-3.2c.7-.2,1.55-.5,1.55-2.2v-16.7h3.25v6.5h8.35v2.9h-8.35v8.3Zm2.35,5.5-2,3.75h12.65V510h-3.4v-1.75h-17v2h-3.3V489.77h7.9c.55-1.5,1.2-3.25,1.55-4.6Zm7.3,6.5h-17v5.05h17Zm0,13v-5.3h-17v5.3Zm2.25-22.4c1.25,0,1.5-.75,1.65-5.25a9.16,9.16,0,0,0,2.85,1.25c-.3,5.45-1.2,6.95-4.15,6.95h-5.85c-3.65,0-4.55-.95-4.55-4.45V464.87h3.25v6.5h10.2v2.9h-10.2v7.35c0,1.3.25,1.5,1.65,1.5Z"/><path class="cls-1" d="M1167.55,539.87v2.5H1123.4v-2.5h20.25v-3.2H1126.8v-2.3h16.85v-3H1128.2v-2.25h15.45v-3.2H1123.5v-2.5h20.15v-3H1128.8V518h14.85v-3.55h3.25V518h14.45v5.4h6.15v2.5h-6.15v5.45H1146.9v3h17.3v2.3h-17.3v3.2Zm-37.75,5h31.75v15.25h-3.25v-1.6H1133v1.7h-3.2Zm3.2,2.4v3.2h25.3v-3.2Zm25.3,8.85v-3.4H1133v3.4Zm-11.4-32.7h11.15v-3H1146.9Zm0,5.7h11.15v-3.2H1146.9Z"/><path d="M274,1774.49H259.22v35.15h-4v-38.87H274Z"/><path d="M331.7,1819.12v3.9H278.18v-3.9h8.4v-34.5h4.08v34.5h14.52v-47.57h4.14v20h19.8v4h-19.8v23.58Z"/><path d="M336,1822.84h14.82v-35.15h4v38.87H336Z"/><path d="M391.16,1770.17l3.24,1.74c-7.08,7.26-11.28,16.2-11.28,26.76s4.2,19.49,11.28,26.75l-3.24,1.74c-7.32-7.5-11.94-17-11.94-28.49S383.84,1777.67,391.16,1770.17Z"/><path d="M414.92,1772.69a98.85,98.85,0,0,1-6.18,13.56v39.59H404.9v-33.35a61.73,61.73,0,0,1-5.46,7,32.86,32.86,0,0,0-2.28-3.9c5.58-5.87,10.8-14.87,14-24Zm34.2,29.21c-2,1.38-4.44,2.7-6.84,4,2,5.82,5.82,11.16,10.62,13.62a15.86,15.86,0,0,0-2.64,3.06c-4.92-3-8.76-8.76-10.86-15.3-1,.54-2.1,1-3.12,1.5,2.1,6.3,1.26,12.72-1.38,15.24a6.51,6.51,0,0,1-5,1.92c-1,0-2.4-.06-3.72-.12a9.47,9.47,0,0,0-1-3.48,34.56,34.56,0,0,0,4,.24,3.38,3.38,0,0,0,3-1.14c1.44-1.32,2.1-4.86,1.44-8.94a58.72,58.72,0,0,1-19.5,11.4,11.72,11.72,0,0,0-2.34-2.82c7.44-2.22,16.26-7,21.12-11.82a24.37,24.37,0,0,0-1.62-3.66,57.71,57.71,0,0,1-16.74,9.66,16.14,16.14,0,0,0-2.22-2.64c5.82-1.74,13.38-5.58,17.52-9.3a16.53,16.53,0,0,0-2.82-3,39.59,39.59,0,0,1-12.3,6.17,14.66,14.66,0,0,0-2.28-2.58c6.54-2.1,10.86-4.62,13.68-7.26h-9.54v-9.35c-1.08,1-2.22,1.92-3.42,2.88a9.81,9.81,0,0,0-2.64-2.53,45.41,45.41,0,0,0,13.92-16.25l3.84.72a35.7,35.7,0,0,1-2,3.54h11.1l.78-.18,2.34,1.68a52.13,52.13,0,0,1-4.8,6.84h13v12.65H430.7a15.52,15.52,0,0,1-1.38,1.63,22.17,22.17,0,0,1,6,7.85,120.47,120.47,0,0,0,11.1-6.66Zm-25-23.09a54.58,54.58,0,0,1-4.2,5.16h11.58a33.35,33.35,0,0,0,3.72-5.16Zm-4,14.69h8.64a15.14,15.14,0,0,0,2.46-6.42h-11.1Zm24.72-6.42H434.6a18.56,18.56,0,0,1-1.8,6.42h12.06Z"/><path d="M512.36,1795.91v4.31H457.88v-4.31Z"/><path d="M539.42,1809.94a68.66,68.66,0,0,1-18.18,16.26,34.82,34.82,0,0,0-3.12-2.82c6.48-3.72,13.62-9.72,17.16-14.94Zm25.92-34.07v26.75H524.78v-26.75Zm-36.54,22.92h32.34v-19.14H528.8Zm25.32,9.47c6,4.56,13.56,11,17.28,15.36l-3.6,2.46c-3.48-4.38-10.92-11-17-15.78Z"/><path d="M629.12,1820.44c0,2.76-.66,4.14-2.64,4.86s-5.76.66-11.22.66a15.26,15.26,0,0,0-1.5-4.08c4.5.18,8.64.12,9.9.06s1.5-.36,1.5-1.5v-34.86h-40V1826h-4v-44.27h16.5a99,99,0,0,0,3.9-10.5l4.86.84c-1.38,3.18-2.94,6.78-4.44,9.66h27.12Zm-32.1-7v4.32h-3.66v-23.93H616.7v19.61Zm0-16v12.42h16v-12.42Z"/><path d="M663.5,1780.37l2.7.9c-3.24,23.4-12.72,37.25-25.32,44.27a15.08,15.08,0,0,0-3.24-3.24A41.32,41.32,0,0,0,654.92,1805a77,77,0,0,0-10.08-7.8l2.4-2.64a78.16,78.16,0,0,1,9.36,6.84,67.66,67.66,0,0,0,4.92-17.09H649.7a56.85,56.85,0,0,1-8.7,16.13,25,25,0,0,0-3.3-2.58c5.52-6.23,9.36-16.07,11.58-26.57l3.9.72c-.6,2.94-1.38,5.76-2.22,8.52h11.7Zm13.92,9.05c5.28,4,11.88,9.72,15.12,13.5l-3.18,2.76A112,112,0,0,0,675.92,1793V1826h-4.08v-54.59h4.08v19.25Z"/><path d="M714,1772c-1,2.94-2.1,6.3-3.18,8.88H721v38.75h-16.8v4.8h-3.66v-43.55h6.66a64.68,64.68,0,0,0,2.58-9.72Zm3.3,12.47H704.18v13.08h13.14Zm0,31.56v-14.88H704.18v14.88Zm33.06-33.17c-1,27.53-1.8,36.71-4.2,39.59a5.6,5.6,0,0,1-4.56,2.28,74.94,74.94,0,0,1-8.82-.12,9.42,9.42,0,0,0-1.32-3.9c3.9.36,7.5.36,8.82.36s1.92-.12,2.52-.9c2-2.1,2.94-11.34,3.72-35.7H730.82a55.33,55.33,0,0,1-5.64,10.68,36.22,36.22,0,0,0-3.36-2.22c4.08-5.34,7.32-13.61,9.18-21.89l3.84.84c-.78,3-1.62,6-2.64,8.88h18.18Zm-12.78,27a106.51,106.51,0,0,0-9.3-13.92l3.06-1.79a102.47,102.47,0,0,1,9.6,13.61Z"/><path d="M774.38,1821.1c0,2-.42,3.06-1.68,3.72s-3.12.72-6.42.66a13.62,13.62,0,0,0-1.08-3.48c2.34.06,4.32.06,4.92,0s.9-.18.9-1v-15.36h-7.56c-.42,7-1.38,14.52-3.54,20.28a11.35,11.35,0,0,0-2.88-1.68c3.18-8.52,3.42-20.52,3.42-29.28v-21.47h13.92ZM771,1802v-10.67h-7.26V1795c0,2.15,0,4.55-.12,7Zm-7.26-24.77v10.43H771v-10.43Zm26.52,26.51a68.55,68.55,0,0,1,4.44,15.48l-2.94,1.08a35.09,35.09,0,0,0-.66-3.72c-10.92,2-12.6,2.4-13.56,3a19.1,19.1,0,0,0-1.2-3.36c.84-.18,1.56-1.62,2.34-3.6a79.57,79.57,0,0,0,4-13.79h-6.48V1795h7.68v-9.66h-6.6v-3.78h6.6v-9.9h3.36v9.9h6.36v3.78h-6.36V1795h7.38v3.84h-8.34a100,100,0,0,1-5.16,16.13l9.3-1.44a80,80,0,0,0-2.88-9.06Zm20.22,7.74c0,2-.36,3.12-1.68,3.78s-3.24.78-6.06.78a16.45,16.45,0,0,0-1.26-3.78c2.22.06,4.14.06,4.74.06s.72-.24.72-.9v-32.75h-6.78V1826h-3.54v-51.17H810.5Z"/><path d="M818.84,1827.16l-3.24-1.74c7.08-7.26,11.28-16.2,11.28-26.75s-4.2-19.5-11.28-26.76l3.24-1.74c7.32,7.5,11.94,17,11.94,28.5S826.16,1819.66,818.84,1827.16Z"/><path d="M868.16,1784.62a67.64,67.64,0,0,1-7.2,12.25v28.85h-4v-24a41.57,41.57,0,0,1-7.26,6.41,17,17,0,0,0-2-3.48c7-5,12.3-12.23,16.14-20H849v-3.83h16.44a65.25,65.25,0,0,0,3.3-9.42l4.08,1c-.9,2.82-1.86,5.64-3,8.4H901.1v3.83Zm32.94,36.24v3.72H865v-3.72h16v-17.52H867.32v-3.72H881v-11.81h4v11.81h13.8v3.72H885v17.52Z"/><path d="M961.76,1819.18v4H908.3v-4h22.62v-46.85h4.14v18.54h22.62v4H935.06v24.3Z"/><path d="M969,1824.7c4.68-2,7.26-4.92,7.56-9.18a7.35,7.35,0,0,1-1.14.12c-2.34,0-4.26-1.38-4.26-4.08a4,4,0,0,1,4.32-4.14c3.18,0,4.86,2.64,4.86,6.66,0,6.48-4,11.28-10.08,13.44Z"/><path d="M394,1846.49H379.22v35.15h-4v-38.87H394Z"/><path d="M452.36,1867.91v4.31H397.88v-4.31Z"/><path d="M456,1894.84h14.82v-35.15h4v38.87H456Z"/><path d="M511.16,1842.17l3.24,1.74c-7.08,7.26-11.28,16.2-11.28,26.76s4.2,19.49,11.28,26.75l-3.24,1.74c-7.32-7.5-11.94-17-11.94-28.49S503.84,1849.67,511.16,1842.17Z"/><path d="M534.92,1844.69a98.85,98.85,0,0,1-6.18,13.56v39.59H524.9v-33.35a61.73,61.73,0,0,1-5.46,7,32.86,32.86,0,0,0-2.28-3.9c5.58-5.87,10.8-14.87,14-24Zm34.2,29.21c-2,1.38-4.44,2.7-6.84,4,2,5.82,5.82,11.16,10.62,13.62a15.86,15.86,0,0,0-2.64,3.06c-4.92-3-8.76-8.76-10.86-15.3-1,.54-2.1,1-3.12,1.5,2.1,6.3,1.26,12.72-1.38,15.24a6.51,6.51,0,0,1-5,1.92c-1,0-2.4-.06-3.72-.12a9.47,9.47,0,0,0-1-3.48,34.56,34.56,0,0,0,4,.24,3.38,3.38,0,0,0,3-1.14c1.44-1.32,2.1-4.86,1.44-8.94a58.72,58.72,0,0,1-19.5,11.4,11.72,11.72,0,0,0-2.34-2.82c7.44-2.22,16.26-7,21.12-11.82a24.37,24.37,0,0,0-1.62-3.66,57.71,57.71,0,0,1-16.74,9.66,16.14,16.14,0,0,0-2.22-2.64c5.82-1.74,13.38-5.58,17.52-9.3a16.53,16.53,0,0,0-2.82-3,39.59,39.59,0,0,1-12.3,6.17,14.66,14.66,0,0,0-2.28-2.58c6.54-2.1,10.86-4.62,13.68-7.26h-9.54v-9.35c-1.08,1-2.22,1.92-3.42,2.88a9.81,9.81,0,0,0-2.64-2.53,45.41,45.41,0,0,0,13.92-16.25l3.84.72a35.7,35.7,0,0,1-2,3.54h11.1l.78-.18,2.34,1.68a52.13,52.13,0,0,1-4.8,6.84h13v12.65H550.7a15.52,15.52,0,0,1-1.38,1.63,22.17,22.17,0,0,1,6,7.85,120.47,120.47,0,0,0,11.1-6.66Zm-25-23.09a54.58,54.58,0,0,1-4.2,5.16h11.58a33.35,33.35,0,0,0,3.72-5.16Zm-4,14.69h8.64a15.14,15.14,0,0,0,2.46-6.42h-11.1Zm24.72-6.42H554.6a18.56,18.56,0,0,1-1.8,6.42h12.06Z"/><path d="M589.34,1879.54c2.28-1,4.62-2,7-3l.84,3.54c-6.42,2.94-13.14,5.94-18.36,8.22l-1.56-4c2.28-.78,5.16-2,8.28-3.3v-19.5h-7.8v-3.77h7.8V1844h3.78v13.74h7.14v3.77h-7.14Zm35,13.44c3.54,0,4.14-1.62,4.56-8.7a10.25,10.25,0,0,0,3.6,1.62c-.66,8.1-1.92,10.68-8,10.68H609.38c-6.66,0-8.52-1.5-8.52-7.62v-19.55l-5,2.15-1.56-3.48,6.6-2.75v-16.5h3.78v14.88l8.64-3.67v-16.73h3.78v15.18l8.52-3.6.9-.78.72-.66,2.82,1.13-.18.79c0,11.16-.18,20.45-.66,22.67-.36,2.4-1.5,3.42-3.24,3.78a28.16,28.16,0,0,1-5.52.36,13,13,0,0,0-1-3.48c1.5.12,3.54.12,4.2.12.9,0,1.56-.3,1.86-1.68.36-1.56.48-8.64.48-18.35l-8.94,3.78v22.19h-3.78v-20.64l-8.64,3.67V1889c0,3.24.78,4,4.8,4Z"/><path d="M666.62,1851.23c-.72,2.64-1.62,5.52-2.46,7.92h24.3V1898h-4v-3.18H645.38V1898h-3.9v-38.87h18.6a80.35,80.35,0,0,0,1.92-7.92H638.78v-3.78H691.4v3.78Zm-21.24,39.89h9v-28.25h-9Zm26-28.25H658v7h13.32Zm0,10.31H658v7.2h13.32ZM658,1891.12h13.32v-7.44H658Zm26.4-28.25H675v28.25h9.42Z"/><path d="M698.84,1899.16l-3.24-1.74c7.08-7.26,11.28-16.2,11.28-26.75s-4.2-19.5-11.28-26.76l3.24-1.74c7.32,7.5,11.94,17,11.94,28.5S706.16,1891.66,698.84,1899.16Z"/><path d="M748.16,1856.62a67.64,67.64,0,0,1-7.2,12.25v28.85h-4v-24a41.57,41.57,0,0,1-7.26,6.41,17,17,0,0,0-2-3.48c7-5,12.3-12.23,16.14-20H729v-3.83h16.44a65.25,65.25,0,0,0,3.3-9.42l4.08,1c-.9,2.82-1.86,5.64-3,8.4H781.1v3.83Zm32.94,36.24v3.72H745v-3.72h16v-17.52H747.32v-3.72H761v-11.81h4v11.81h13.8v3.72H765v17.52Z"/><path d="M816,1851.71v10.86l.66-.78c7.32,3.54,16.74,8.93,21.54,12.53l-2.76,3.6c-4.2-3.42-12.48-8.46-19.44-12.12v32.1h-4.2v-46.19H788.54v-4h53v4Z"/><path d="M866.36,1887.88a9,9,0,1,1-9.06-9A9,9,0,0,1,866.36,1887.88Zm-2.82,0a6.21,6.21,0,1,0-6.24,6.24A6.22,6.22,0,0,0,863.54,1887.88Z"/><path d="M249.92,1916.69a98.85,98.85,0,0,1-6.18,13.56v39.59H239.9v-33.35a61.73,61.73,0,0,1-5.46,7,32.86,32.86,0,0,0-2.28-3.9c5.58-5.87,10.8-14.87,14-24Zm34.2,29.21c-2,1.38-4.44,2.7-6.84,4,2,5.82,5.82,11.16,10.62,13.62a15.86,15.86,0,0,0-2.64,3.06c-4.92-3-8.76-8.76-10.86-15.3-1,.54-2.1,1-3.12,1.5,2.1,6.3,1.26,12.72-1.38,15.24a6.51,6.51,0,0,1-5,1.92c-1,0-2.4-.06-3.72-.12a9.47,9.47,0,0,0-1-3.48,34.56,34.56,0,0,0,4,.24,3.38,3.38,0,0,0,3-1.14c1.44-1.32,2.1-4.86,1.44-8.94a58.72,58.72,0,0,1-19.5,11.4,11.72,11.72,0,0,0-2.34-2.82c7.44-2.22,16.26-7,21.12-11.82a24.37,24.37,0,0,0-1.62-3.66,57.71,57.71,0,0,1-16.74,9.66,16.14,16.14,0,0,0-2.22-2.64c5.82-1.74,13.38-5.58,17.52-9.3a16.53,16.53,0,0,0-2.82-3,39.59,39.59,0,0,1-12.3,6.17,14.66,14.66,0,0,0-2.28-2.58c6.54-2.1,10.86-4.62,13.68-7.26h-9.54v-9.35c-1.08,1-2.22,1.92-3.42,2.88a9.81,9.81,0,0,0-2.64-2.53,45.41,45.41,0,0,0,13.92-16.25l3.84.72a35.7,35.7,0,0,1-2,3.54h11.1l.78-.18,2.34,1.68a52.13,52.13,0,0,1-4.8,6.84h13v12.65H265.7a15.52,15.52,0,0,1-1.38,1.63,22.17,22.17,0,0,1,6,7.85,120.47,120.47,0,0,0,11.1-6.66Zm-25-23.09a54.58,54.58,0,0,1-4.2,5.16h11.58a33.35,33.35,0,0,0,3.72-5.16Zm-4,14.69h8.64a15.14,15.14,0,0,0,2.46-6.42h-11.1Zm24.72-6.42H269.6a18.56,18.56,0,0,1-1.8,6.42h12.06Z"/><path d="M347.36,1939.91v4.31H292.88v-4.31Z"/><path d="M384,1917c-.48.9-1,1.74-1.56,2.58,7.26,9,15.78,14.93,25.44,19.73a12.66,12.66,0,0,0-2.88,3.54c-9.3-5-17.28-10.85-24.9-20.15a71,71,0,0,1-24.66,20,17.42,17.42,0,0,0-2.94-3.47c11.22-5,22-13.92,28-23.88Zm-6,15.66H382V1970H378Z"/><path d="M442.28,1915.55c-.06,2.1-.12,5.1-.42,8.64.9,7,4.56,32.51,25.74,42a12.63,12.63,0,0,0-2.88,3.36c-15.42-7.26-21.72-22.74-24.6-34-2.64,12.23-8.94,26.33-24.06,34.19a13.77,13.77,0,0,0-3.12-3.06c25-12.48,24.78-42.11,25-51.11Z"/><path d="M526,1921v3.54h-52V1921h24.36c-.66-1.56-1.44-3.42-2.16-4.86l3.48-1.14c1,1.86,2.1,4.26,2.82,6Zm-2.7,44.63c0,2.16-.6,3.06-2.28,3.6s-4.56.6-8.88.6a14.09,14.09,0,0,0-1.44-3.24c3.36.18,6.6.12,7.5.06s1.14-.24,1.14-1v-14.34h-21.3a92.53,92.53,0,0,1-5.88,8.16l15.36-1.44c-1-1.44-2.1-2.88-3.12-4.14l2.7-1.56a89.58,89.58,0,0,1,7.2,9.9l-2.82,2c-.48-1-1.2-2.1-1.92-3.24-18.42,1.92-20.46,2.22-21.84,2.82-.24-.84-.84-2.82-1.26-3.9,1-.24,2.16-1.5,3.6-3.36a59.84,59.84,0,0,0,3.6-5.22H480.62V1970h-3.84v-22.2h19c.84-1.38,1.68-2.93,2.4-4.43H480.56v-16.68h3.78v13.43h31.32v-13.43h3.9v16.68H502.7c-.84,1.43-1.62,3-2.52,4.43h23.16ZM510,1938.83c-2.28-1.38-5.64-3.3-9.24-5.16a123.42,123.42,0,0,1-11.16,5.58,15,15,0,0,0-2-2.41,112,112,0,0,0,10.32-4.61c-2.94-1.56-6-3.06-8.7-4.32l1.74-2c3,1.38,6.48,3.06,9.84,4.68a51.08,51.08,0,0,0,7.2-5l2.64,1.26a64.84,64.84,0,0,1-7.08,5.1c3.3,1.62,6.24,3.24,8.4,4.5Z"/><path d="M586.7,1944.46H573.2v25.62h-4.08v-25.62H551.66c-.78,9.48-3.9,18.78-15,25.74a16,16,0,0,0-3.12-2.88c10.2-6.36,13.26-14.52,14-22.86H533.36v-3.84h14.46c.06-.9.06-1.79.06-2.7v-14.75H535.64v-3.84h49.14v3.84H573.2v17.45h13.5Zm-17.58-3.84v-17.45H551.9v14.75c0,.91,0,1.8-.06,2.7Z"/><path d="M646.34,1922.51H602.12v13.14c0,9.6-.78,23.57-6.36,33.17a13.59,13.59,0,0,0-3.36-2c5.28-9.18,5.82-22,5.82-31.13v-16.86h48.12Zm-30.18,32.27a97.9,97.9,0,0,1-10.62,12.6c-.78-.6-2.4-1.68-3.36-2.28a63.59,63.59,0,0,0,10.32-11.58Zm10.26-4.44v15.12c0,2.16-.48,3.24-2.1,3.84s-4.68.6-9.36.6a14.79,14.79,0,0,0-1.26-3.54c3.66.12,6.78.12,7.68.06s1.2-.3,1.2-1v-15.06H607.82V1929H619.7a42.46,42.46,0,0,0,2.34-5.75l4.62.72c-.9,1.68-1.86,3.48-2.7,5h17.52v21.3Zm-14.76-12.17h25.8v-5.88h-25.8Zm0,8.93h25.8v-5.88h-25.8Zm23.4,6.54c3.66,3.72,8.46,8.88,10.92,11.94l-3.3,2.16a158.14,158.14,0,0,0-10.8-12.42Z"/><path d="M664.34,1951.54c2.28-1,4.62-2,7-3l.84,3.54c-6.42,2.94-13.14,5.94-18.36,8.22l-1.56-4c2.28-.78,5.16-2,8.28-3.3v-19.5h-7.8v-3.77h7.8V1916h3.78v13.74h7.14v3.77h-7.14Zm35,13.44c3.54,0,4.14-1.62,4.56-8.7a10.25,10.25,0,0,0,3.6,1.62c-.66,8.1-1.92,10.68-8,10.68H684.38c-6.66,0-8.52-1.5-8.52-7.62v-19.55l-5,2.15-1.56-3.48,6.6-2.75v-16.5h3.78v14.88l8.64-3.67v-16.73h3.78v15.18l8.52-3.6.9-.78.72-.66,2.82,1.13-.18.79c0,11.16-.18,20.45-.66,22.67-.36,2.4-1.5,3.42-3.24,3.78a28.16,28.16,0,0,1-5.52.36,13,13,0,0,0-1-3.48c1.5.12,3.54.12,4.2.12.9,0,1.56-.3,1.86-1.68.36-1.56.48-8.64.48-18.35l-8.94,3.78v22.19h-3.78v-20.64l-8.64,3.67V1961c0,3.24.78,4,4.8,4Z"/><path d="M714,1968.7c4.68-2,7.26-4.92,7.56-9.18a7.35,7.35,0,0,1-1.14.12c-2.34,0-4.26-1.38-4.26-4.08a4,4,0,0,1,4.32-4.14c3.18,0,4.86,2.64,4.86,6.66,0,6.48-4,11.28-10.08,13.44Z"/><path d="M794.12,1964.44c0,2.76-.66,4.14-2.64,4.86s-5.76.66-11.22.66a15.26,15.26,0,0,0-1.5-4.08c4.5.18,8.64.12,9.9.06s1.5-.36,1.5-1.5v-34.86h-40V1970h-4v-44.27h16.5a99,99,0,0,0,3.9-10.5l4.86.84c-1.38,3.18-2.94,6.78-4.44,9.66h27.12Zm-32.1-7v4.32h-3.66v-23.93H781.7v19.61Zm0-16v12.42h16v-12.42Z"/><path d="M856.58,1924.91v3.66H803.42v-3.66h15.12a45.12,45.12,0,0,0-5.64-8.28l3.66-1.38a49.14,49.14,0,0,1,6.06,8.52l-2.94,1.14h18.18a79.77,79.77,0,0,0,5.76-9.9l4.14,1.44c-1.68,2.82-3.6,5.94-5.46,8.46Zm-27.78,40.25c0,2.16-.48,3.24-2,3.9s-4.26.66-8.34.66a17,17,0,0,0-1.32-3.54c3.12.12,5.94.12,6.72.06s1.14-.3,1.14-1.08v-8.52H811.1v13.08h-3.84v-35.57H828.8Zm-17.7-27.54v6.24H825v-6.24ZM825,1953.46V1947H811.1v6.42Zm15.24,5.64h-3.72v-24.41h3.72Zm8.4-26.22h3.9v31.92c0,2.52-.6,3.6-2.34,4.26s-4.8.72-9.36.72a17,17,0,0,0-1.5-3.84c3.78.12,7,.12,8,.06s1.32-.3,1.32-1.2Z"/><path d="M882.44,1929.47a79,79,0,0,1-6.72,9.11v31.56h-4V1943a77.73,77.73,0,0,1-7.14,6.54c-.6-.78-2-2.52-2.82-3.29a66.67,66.67,0,0,0,16.86-18.13Zm-2.4-12.66a73.78,73.78,0,0,1-15.3,14.69,29.68,29.68,0,0,0-2.34-3.17,57.46,57.46,0,0,0,13.8-13Zm37,22.44h-9.18v25.49c0,2.52-.66,3.78-2.52,4.44s-5.22.6-11.22.6a14.6,14.6,0,0,0-1.32-3.84c4.44.18,8.4.18,9.54.06s1.5-.3,1.5-1.32v-25.43H883.4v-3.84h33.66Zm-1.74-16.5H886V1919h29.34Z"/><path d="M951.92,1964.38a52.89,52.89,0,0,0,11.46,1c1.8,0,11.76,0,14.16-.06a12.71,12.71,0,0,0-1.44,3.9H963.2c-13,0-22.68-2.28-28.62-13.08-2,5.52-5,10.62-9.3,14a20.52,20.52,0,0,0-2.94-2.64c7.38-5.64,10.26-16.14,11.16-25l4.14.48a72.42,72.42,0,0,1-1.62,8.34c2.64,6.36,6.72,10,11.88,11.94v-24.53H924v-3.79h23.82v-8.63H929.18v-3.72h18.66v-7.08h4.08v7.08H971.6v3.72H951.92v8.63H976v3.79H951.92v9.77H972v3.66h-20.1Z"/><path d="M1001.36,1959.88a9,9,0,1,1-9.06-9A9,9,0,0,1,1001.36,1959.88Zm-2.82,0a6.21,6.21,0,1,0-6.24,6.24A6.22,6.22,0,0,0,998.54,1959.88Z"/><path d="M131.9,2004.17c4.44,10.31,12.24,20,20.76,24.71a23.11,23.11,0,0,0-3.06,3.36c-9-5.58-16.92-16.32-21.6-28.07h-1v22.43h14.28v4H127V2042H122.9v-11.4H108.68v-4H122.9v-22.43h-1.08c-4.74,11.75-12.66,22.43-21.3,28.25a24.18,24.18,0,0,0-2.88-3.18c8-4.92,15.66-14.76,20.16-25.07H99.14v-4H122.9v-12.72H127v12.72h24v4Z"/><path d="M206.6,1993.07c-4.32,12.12-10.08,22.68-18.6,31.25a65.72,65.72,0,0,0,24.42,14.1,17.56,17.56,0,0,0-2.76,3.54A66.69,66.69,0,0,1,185,2027.2a72.92,72.92,0,0,1-25.38,14.7,14.53,14.53,0,0,0-2.16-3.36,69.86,69.86,0,0,0,24.78-14.1,89.37,89.37,0,0,1-18.18-29.27l3.6-1.08a80.51,80.51,0,0,0,17.52,27.53c8.16-8.21,13.62-18.41,17.4-29.87ZM186,2003a102.25,102.25,0,0,0-5.88-14.45l3.42-1.38a105.48,105.48,0,0,1,6.06,14.28Z"/><path d="M268.76,2001.77s-.06,1.56-.06,2.1c-1,24.11-1.86,32.51-4.2,35.27a6,6,0,0,1-4.68,2.22c-2,.12-5.88,0-9.48-.18A10,10,0,0,0,249,2037a91.18,91.18,0,0,0,9.3.42c1.26,0,2-.12,2.58-.9,1.86-1.8,2.82-9.9,3.66-30.83H243.44c-1.38,11.69-6.24,25.07-21.84,35.45a14.36,14.36,0,0,0-3.12-2.88c14.7-9.6,19.44-21.78,20.88-32.57H220.22v-4h19.56c.18-2.65.24-5.16.24-7.44v-6.9h4v7c0,2.28-.06,4.8-.24,7.38Zm-37.2-2.22a49.8,49.8,0,0,0-6.42-9l3.42-1.56a50.25,50.25,0,0,1,6.6,8.82Zm21.9,27.35a69.41,69.41,0,0,0-8.28-11.88l3.18-1.61a65.09,65.09,0,0,1,8.58,11.51Z"/><path d="M331.58,1996.91v3.66H278.42v-3.66h15.12a45.12,45.12,0,0,0-5.64-8.28l3.66-1.38a49.14,49.14,0,0,1,6.06,8.52l-2.94,1.14h18.18a79.77,79.77,0,0,0,5.76-9.9l4.14,1.44c-1.68,2.82-3.6,5.94-5.46,8.46Zm-27.78,40.25c0,2.16-.48,3.24-2,3.9s-4.26.66-8.34.66a17,17,0,0,0-1.32-3.54c3.12.12,5.94.12,6.72.06s1.14-.3,1.14-1.08v-8.52H286.1v13.08h-3.84v-35.57H303.8Zm-17.7-27.54v6.24H300v-6.24ZM300,2025.46V2019H286.1v6.42Zm15.24,5.64h-3.72v-24.41h3.72Zm8.4-26.22h3.9v31.92c0,2.52-.6,3.6-2.34,4.26s-4.8.72-9.36.72a17,17,0,0,0-1.5-3.84c3.78.12,7,.12,8,.06s1.32-.3,1.32-1.2Z"/><path d="M354.92,2002.12a68.61,68.61,0,0,1-4.92,7.56V2042h-4v-27.42a66,66,0,0,1-6.66,6.48,23.3,23.3,0,0,0-2.22-3.84,55.8,55.8,0,0,0,14.34-16.43Zm-.84-13.25a57.7,57.7,0,0,1-14,14.28,20,20,0,0,0-2.1-3.24c4.62-3.12,9.78-8.16,12.3-12.42Zm38.16,47.39v3.84h-38v-3.84h17v-16H358v-3.78h13.2v-13.91H355.88v-3.84h34.86v3.84H375.38v13.91h13.44v3.78H375.38v16ZM373,1998.41a52.93,52.93,0,0,0-5.16-10l3.6-1.32a52,52,0,0,1,5.4,9.72Z"/><path d="M399,2040.7c4.68-2,7.26-4.92,7.56-9.18a7.35,7.35,0,0,1-1.14.12c-2.34,0-4.26-1.38-4.26-4.08a4,4,0,0,1,4.32-4.14c3.18,0,4.86,2.64,4.86,6.66,0,6.48-4,11.28-10.08,13.44Z"/><path d="M481.94,2003.92v3.84H438.38v.36c0,9.84-1,24.24-7.86,34a14.68,14.68,0,0,0-3.3-2.76c6.42-9.18,7.08-22.08,7.08-31.26v-15.35c14.22-.9,30.9-2.58,40.08-4.86l3.36,3.24c-10.26,2.4-25.68,4-39.36,4.92v7.85Zm-38.22,12.66H477.5V2042h-4.14v-3.12H447.74v3.18h-4Zm4,3.78v14.82h25.62v-14.82Z"/><path d="M501.74,1988.57a123.56,123.56,0,0,1-4.08,12.6V2042h-3.78v-32.51a51.63,51.63,0,0,1-4.26,6.77,18.44,18.44,0,0,0-2.16-4c4.56-6,8.28-15.23,10.5-24.59Zm5.94,41.27v12H504v-51.77h16.26v18.23H507.68v6.78h11.16v3.42H507.68v7.92H519.5v3.42Zm0-36.35v11.39h9v-11.39Zm32.52,20.34a41,41,0,0,1-7.5,17.45,26.55,26.55,0,0,0,10,7.56,18.29,18.29,0,0,0-2.46,3.06,27.55,27.55,0,0,1-9.78-7.86,36.82,36.82,0,0,1-12.36,8.1,10.14,10.14,0,0,0-2.1-2.94,31,31,0,0,0,12.3-8.1,51.85,51.85,0,0,1-6-13.85l2.64-.67H521v-3.41h16.2l.72-.13Zm-.78-5.58H522.68v-3.48h13.08v-11.22H522.68v-3.48h16.74Zm-14,8.33a40.27,40.27,0,0,0,5.1,11.7,33.44,33.44,0,0,0,5.4-11.7Z"/><path d="M565,1988.63a84.89,84.89,0,0,1-6.18,12.9v40.31H555v-34.31a62.31,62.31,0,0,1-6.42,7.91,20.27,20.27,0,0,0-2.34-3.84c6-5.81,11.64-14.81,15.06-24ZM602.84,2007v3.65H561.92V2007h10.74v-8.52H564.5v-3.54h8.16v-7h3.78v7H588.2v-7H592v7h8.52v3.54H592V2007Zm-34.44,8.69h29v26.16h-3.9v-2.46H572.24v2.76H568.4Zm3.84,3.42v6.72h21.24v-6.72ZM593.48,2036v-6.9H572.24v6.9Zm-17-29H588.2v-8.52H576.44Z"/><path d="M658.76,2001.77s-.06,1.56-.06,2.1c-1,24.11-1.86,32.51-4.2,35.27a6,6,0,0,1-4.68,2.22c-2,.12-5.88,0-9.48-.18A10,10,0,0,0,639,2037a91.18,91.18,0,0,0,9.3.42c1.26,0,2-.12,2.58-.9,1.86-1.8,2.82-9.9,3.66-30.83H633.44c-1.38,11.69-6.24,25.07-21.84,35.45a14.36,14.36,0,0,0-3.12-2.88c14.7-9.6,19.44-21.78,20.88-32.57H610.22v-4h19.56c.18-2.65.24-5.16.24-7.44v-6.9h4v7c0,2.28-.06,4.8-.24,7.38Zm-37.2-2.22a49.8,49.8,0,0,0-6.42-9l3.42-1.56a50.25,50.25,0,0,1,6.6,8.82Zm21.9,27.35a69.41,69.41,0,0,0-8.28-11.88l3.18-1.61a65.09,65.09,0,0,1,8.58,11.51Z"/><path d="M694.64,2030c-9.42,2.16-19.5,4.5-26.58,6.12l-.72-4,4.32-.9v-40.91h19.26v36.89l3.42-.78Zm-19.38-36v9.3h11.88V1994Zm11.88,12.9H675.26V2016h11.88Zm-11.88,23.63c3.66-.72,7.68-1.62,11.88-2.52v-8.4H675.26Zm45.24-27.42c-.66,25.26-1.26,33.72-3.24,36.36a5.17,5.17,0,0,1-4.2,2.1,65.3,65.3,0,0,1-8.22-.12,8,8,0,0,0-1.2-3.78c3.48.24,6.72.3,7.92.3s1.68-.12,2.28-.9c1.56-1.8,2.22-9.84,2.76-32.21h-9.84c-.9,15.59-4.2,29.33-16.44,37.31a10,10,0,0,0-3-2.94c11.7-7.14,14.7-19.86,15.54-34.37H693V2001H703c.18-4.49.18-9,.18-13.67h3.9c0,4.68,0,9.18-.18,13.67H720.5Z"/><path d="M747.38,2027.44c.3,1,.9,2.52,1.2,3.3-9.9,7.2-11.4,8.4-12.24,9.54a13,13,0,0,0-2.28-2.76c1.08-.9,3.18-3,3.18-5.94V2010H728v-3.84h13v25.73Zm-6.54-26.4a71.66,71.66,0,0,0-9.06-9.17l2.58-2.52a69,69,0,0,1,9.18,8.94Zm39.3,35.64c0,2.64-.6,3.9-2.4,4.56s-4.92.78-9.84.78a14.53,14.53,0,0,0-1.38-4c3.84.12,7.38.06,8.4.06s1.38-.36,1.38-1.44v-42.47H747.14v-3.72h33Zm-8.46-32.76h-23v-3.47h23Zm-16.92,25.26v4.14h-3.6v-23.1h17.52v19Zm0-15.47v12H765v-12Z"/><path d="M789,2040.7c4.68-2,7.26-4.92,7.56-9.18a7.35,7.35,0,0,1-1.14.12c-2.34,0-4.26-1.38-4.26-4.08a4,4,0,0,1,4.32-4.14c3.18,0,4.86,2.64,4.86,6.66,0,6.48-4,11.28-10.08,13.44Z"/><path d="M832,2009.62c2,2.05,7.68,8.59,8.94,10.2l-2.52,3.24a96.69,96.69,0,0,0-6.42-8.88v27.66h-3.78v-29.58c-2.4,7.2-5.7,14.22-9.06,18.42a27.23,27.23,0,0,0-2.16-3.6c4.2-5,8.52-14.63,10.74-23.09h-9.42v-3.72h9.9v-13H832v13h8.76V2004H832Zm38.16-18.71v50.45h-3.9v-3.48h-19v3.66H843.5v-50.63Zm-22.86,3.78v10.5h19v-10.5Zm0,25h19v-10.8h-19Zm19,14.58V2023.3h-19v10.92Z"/><path d="M907.1,2008.54h19.68v33.54h-4.14v-2.64H882.2v-4h40.44v-10H885.26v-3.84h37.38v-9.18h-39.3v-4h19.5v-21.23h4.26Zm-16.68-3.23a57,57,0,0,0-7.8-13.8l3.54-1.5a58.1,58.1,0,0,1,8,13.61ZM927.56,1991a144.46,144.46,0,0,1-8.76,14.82l-3.3-1.45a91.67,91.67,0,0,0,7.86-14.87Z"/><path d="M991.58,2015.26h-24V2036c0,3.06-.84,4.32-3,5s-5.94.78-12.06.72a21.82,21.82,0,0,0-1.74-4.14c5,.18,9.6.12,10.92.06s1.74-.42,1.74-1.62v-20.7h-25v-4h25v-15.65H942.62v-4h44.76v4h-19.8v15.65h24Z"/><path d="M1024,1990.49h-14.82v35.15h-4v-38.87H1024Z"/><path d="M1044,1988c-1,2.94-2.1,6.3-3.18,8.88H1051v38.75h-16.8v4.8h-3.66v-43.55h6.66a64.68,64.68,0,0,0,2.58-9.72Zm3.3,12.47h-13.14v13.08h13.14Zm0,31.56v-14.88h-13.14v14.88Zm33.06-33.17c-1,27.53-1.8,36.71-4.2,39.59a5.6,5.6,0,0,1-4.56,2.28,74.94,74.94,0,0,1-8.82-.12,9.42,9.42,0,0,0-1.32-3.9c3.9.36,7.5.36,8.82.36s1.92-.12,2.52-.9c2-2.1,2.94-11.34,3.72-35.7h-15.72a55.33,55.33,0,0,1-5.64,10.68,36.22,36.22,0,0,0-3.36-2.22c4.08-5.34,7.32-13.61,9.18-21.89l3.84.84c-.78,3-1.62,6-2.64,8.88h18.18Zm-12.78,27a106.51,106.51,0,0,0-9.3-13.92l3.06-1.79a102.47,102.47,0,0,1,9.6,13.61Z"/><path d="M1086,2038.84h14.82v-35.15h4v38.87H1086Z"/><path d="M1136.36,2031.88a9,9,0,1,1-9.06-9A9,9,0,0,1,1136.36,2031.88Zm-2.82,0a6.21,6.21,0,1,0-6.24,6.24A6.22,6.22,0,0,0,1133.54,2031.88Z"/><rect class="cls-2" x="1113" y="1173" width="65" height="271" rx="12"/><path class="cls-1" d="M1158.05,1212.79a27.61,27.61,0,0,0,11.5,8.1,11.65,11.65,0,0,0-2.15,2.55,30.77,30.77,0,0,1-12.8-10.65h-15.95a34.39,34.39,0,0,1-13,11.3,11.43,11.43,0,0,0-2.15-2.55,30.39,30.39,0,0,0,11.6-8.75H1124v-2.85h10v-16.15h-7.7V1191h7.7v-5h3.3v5h18.55v-5h3.35v5h7.65v2.8h-7.65v16.15h9.8v2.85Zm-10,14.5h17.3v2.85H1127.8v-2.85h16.9v-5.6h-10.45v-2.8h10.45v-4.4h3.35v4.4h10.65v2.8h-10.65Zm-10.8-33.5v3.6h18.55v-3.6Zm0,9.8h18.55v-3.65h-18.55Zm0,6.35h18.55v-3.8h-18.55Z"/><path class="cls-1" d="M1142.25,1254.54s0,1.15,0,1.55c-.6,15.85-1.2,21.2-2.6,23a3.71,3.71,0,0,1-2.8,1.45,32.65,32.65,0,0,1-4.45,0,9.25,9.25,0,0,0-.85-3c1.75.15,3.2.15,3.9.15a1.42,1.42,0,0,0,1.45-.65c1-1.2,1.6-6,2.15-19.35h-6.8c-.55,10-2,18.25-6.45,23.65a9.53,9.53,0,0,0-2.55-2.35c5.45-6.45,5.9-17.85,6.1-31.55h-5.2v-3.1h20.1v3.1h-11.65c0,2.45-.1,4.85-.2,7.15Zm-7.9-10.45a33.47,33.47,0,0,0-4.25-7.15l2.9-1.15a31.92,31.92,0,0,1,4.4,7Zm23.85-7.45a15.26,15.26,0,0,1-.85,2.55c2.65,5.45,7.7,11.35,12.45,14a13,13,0,0,0-2.45,2.75c-4.25-2.7-8.5-8-11.4-13.3a32.61,32.61,0,0,1-11,13.6,12.79,12.79,0,0,0-2.35-2.65c5.85-3.6,10.35-10.2,12.5-17.85Zm-8.3,32.45a74,74,0,0,1,13.6,8.25l-2.25,2.9c-2.85-2.6-8.75-6.3-13.4-8.65Zm9.5-4.85a66.22,66.22,0,0,0-8.6-6.85l2.15-2.2a67.46,67.46,0,0,1,8.75,6.55Z"/><path class="cls-1" d="M1165,1289.19v29.3h-3.5v-2.55h-13.3v15.6h-3.45v-15.6h-13.4v2.75H1128v-29.5Zm-33.65,3.2V1301h13.4v-8.65Zm13.4,20.35v-8.5h-13.4v8.5Zm16.75-20.35h-13.3V1301h13.3Zm0,20.35v-8.5h-13.3v8.5Z"/><path class="cls-1" d="M1167.25,1351.09v9.3h-3.15V1354h-35.4v6.4h-3v-9.3h6.95v-12.95h27.7v12.95Zm-6.45,26.6c0,1.85-.45,2.7-1.85,3.2s-3.9.5-7.7.45a8.57,8.57,0,0,0-1.1-2.75c3,.05,5.65.05,6.4.05s1-.25,1-1v-6.2c-7.3,1.45-14.85,3-20.45,4l-1.1-3c5.4-.8,13.6-2.3,21.55-3.75V1360h-22.2v5.3c0,4.85-.65,11.55-4.35,16.2a13.29,13.29,0,0,0-2.7-2c3.45-4.25,3.85-10,3.85-14.25v-8h28.6Zm-25-26.6h7.45v-6.9H1157v-3.35h-21.2Zm2.45,11.7a75.14,75.14,0,0,1,17.7,3l-.9,2.6c-4-1.5-11.7-2.9-17.7-3.35Zm18.75-16.3h-10.75v4.6H1157Z"/><path class="cls-1" d="M1161,1398.09a51.83,51.83,0,0,1-12,19.6,49.94,49.94,0,0,0,20.5,10.5,16.79,16.79,0,0,0-2.25,3,50.92,50.92,0,0,1-20.75-11.1c-5.65,5-12.55,8.6-21,11.3a15.53,15.53,0,0,0-2-3.05c8.35-2.45,15.1-5.9,20.6-10.6a57.05,57.05,0,0,1-12.2-19.65h-7.75v-3.25h44.75v3.25Zm-25.75,0a52.13,52.13,0,0,0,11.3,17.3,47.46,47.46,0,0,0,10.7-17.3Zm11.25-3.55a38.13,38.13,0,0,0-3.8-7.8l3.4-1a39,39,0,0,1,4,7.65Z"/><path d="M413.33,1123.33c-3.33,38.81-6.35,77.66-7.75,116.59-1.4,38.74-1.18,77.58,2,116.23,1.78,21.37,4.45,42.69,8.06,63.83,3,17.79,6.64,35.63,11.76,53,8.79,29.75,22.73,58.37,43.83,81.37a118,118,0,0,0,14.36,13.28c6.68,5.23,13.39,10.2,20.93,14.11a134.65,134.65,0,0,0,24.22,9.83,142.34,142.34,0,0,0,27.11,4.71c3.73.34,7.46.48,11.2.47a26.31,26.31,0,0,0,18-7.47c4.43-4.42,7.76-11.68,7.47-18-.29-6.59-2.46-13.43-7.47-18s-11.12-7.48-18-7.47a121.18,121.18,0,0,1-16.26-1l6.78.91a104.89,104.89,0,0,1-26.09-7.06l6.09,2.57a104.76,104.76,0,0,1-23.07-13.54l5.16,4a123.12,123.12,0,0,1-21.56-21.84l4,5.16a171.2,171.2,0,0,1-21.59-37.71l2.57,6.09c-9.79-23.3-15.2-48.26-19.59-73.06q-2.25-12.7-4-25.48l.91,6.78a807,807,0,0,1-6.67-104.8c-.11-34.84,1.51-69.68,3.91-104.43,1.36-19.65,3-39.29,4.65-58.91.53-6.18-3.23-13.79-7.47-18-4.42-4.43-11.68-7.76-18-7.47-6.6.29-13.44,2.46-18,7.47l-4,5.16a25.27,25.27,0,0,0-3.48,12.87Z"/><path d="M665,1025.5q2.76,32.31,5.2,64.64,2.82,38.17,4.86,76.42c1.43,27.31,2.5,54.64,3,82s.53,54.47-.36,81.68c-.81,24.82-2.32,49.64-5.27,74.3q-.5,4.21-1.07,8.41l.92-6.78c-3.55,26.24-8.91,52.35-19.18,76.86l2.57-6.09a172.49,172.49,0,0,1-21.73,38l4-5.16a123.92,123.92,0,0,1-21.45,21.73l5.16-4A105.15,105.15,0,0,1,599,1540.91l6.09-2.57a105.6,105.6,0,0,1-26.87,7.29l6.78-.91a122.11,122.11,0,0,1-15.88,1,26.29,26.29,0,0,0-18,7.47c-4.42,4.42-7.75,11.68-7.47,18,.3,6.6,2.47,13.44,7.47,18a26.54,26.54,0,0,0,18,7.47c24.41,0,49.12-6.16,69.86-19.24,19.57-12.34,35.38-29.52,47.59-49.07,22.28-35.69,30.91-77,36.25-118.14,5.3-40.87,6.62-82.25,6.69-123.42.08-44.6-1.58-89.18-4.1-133.7-2.19-38.73-5.09-77.42-8.35-116.07q-.49-5.79-1-11.57c-.59-6.88-2.45-13-7.47-18-4.43-4.42-11.68-7.75-18-7.47-6.6.3-13.44,2.46-18,7.47-4.36,4.74-8,11.36-7.47,18Z"/><path d="M425,1241.55a390.82,390.82,0,0,0,101.31,38.25c35.71,7.91,72.64,11,109.11,7.85a433.87,433.87,0,0,0,58.79-9.13c16.53-3.77,33.2-8.2,48.89-14.7,9.25-3.84,18.36-7.84,26.86-13.16a127.14,127.14,0,0,0,41.44-40.77c5.3-8.11,9.21-16.82,12.94-25.74,7.05-16.93,10.36-35,12-53.15s.81-36.68-1.09-54.9c-.48-4.56-1-9.12-1.62-13.67a28.24,28.24,0,0,0-7.47-18c-4.42-4.43-11.67-7.76-18-7.47-6.59.29-13.43,2.46-18,7.47l-4,5.16a25.37,25.37,0,0,0-3.49,12.87c3.27,25.32,5.2,51,1.81,76.46l.91-6.78A153.92,153.92,0,0,1,775,1170.87l2.57-6.09a121.17,121.17,0,0,1-15.27,26.45l4-5.16a102.9,102.9,0,0,1-18,18.07l5.16-4a130.47,130.47,0,0,1-28.89,16.57l6.1-2.57a257,257,0,0,1-31.19,10.42q-16.93,4.7-34.24,8-9.78,1.83-19.65,3.15l6.78-.91a338.69,338.69,0,0,1-70.59,2.19q-9.85-.75-19.67-2.08l6.78.92a359.91,359.91,0,0,1-72-17.51q-10-3.54-19.71-7.65l6.09,2.57q-16.67-7.05-32.6-15.7a26.77,26.77,0,0,0-19.65-2.57c-5.92,1.63-12.33,6.2-15.24,11.72-3.13,5.92-4.7,13.09-2.57,19.65,2,6.21,5.83,12,11.71,15.24Z"/><line class="cls-3" x1="283.5" y1="1584" x2="930.5" y2="1584"/></svg>