<svg id="Layer_1" data-name="Layer 1" xmlns="http://www.w3.org/2000/svg" viewBox="0 0 1242 2208"><defs><style>.cls-1{fill:#f6eabe;}.cls-2{fill:#999;}.cls-3,.cls-4{fill:none;}.cls-4{stroke:#000;stroke-linecap:round;stroke-miterlimit:10;stroke-width:50px;}</style></defs><rect class="cls-1" width="1242" height="2208"/><path d="M499.61,166.86C475,227.2,446.41,287.54,413.06,343.92V870.33h-52.4V424.9c-27,37.32-57.17,72.26-86.55,103.22-5.56-12.7-22.23-38.9-32.55-51.61C324.13,397.91,401.15,275.63,448,150.18Zm461.3,590.73v55.58H470.23V757.59ZM925.18,339.15H516.28V284.37h408.9Z"/><rect class="cls-2" x="1114" y="437" width="65" height="126" rx="12"/><path class="cls-1" d="M1133.7,466.82c1.25,1.6,4.9,6.7,5.7,8.05l-2,2.45c-.7-1.5-2.35-4.4-3.75-6.65V497h-3.15V472.57c-1.5,5.05-3.5,9.9-5.55,12.85a14.83,14.83,0,0,0-1.75-3.1c2.9-4,5.8-11.5,7.2-18h-6.2v-3.15h6.3v-9.65h3.15v9.65h5.45v3.15h-5.45Zm19.1.7a19.47,19.47,0,0,0,.45,2.65c-10.15,2.7-11.6,3.15-12.5,3.75a12.13,12.13,0,0,0-1.1-3.2c.7-.2,1.55-.5,1.55-2.2v-16.7h3.25v6.5h8.35v2.9h-8.35v8.3Zm2.35,5.5-2,3.75h12.65V497h-3.4v-1.75h-17v2h-3.3V476.77h7.9c.55-1.5,1.2-3.25,1.55-4.6Zm7.3,6.5h-17v5.05h17Zm0,13v-5.3h-17v5.3Zm2.25-22.4c1.25,0,1.5-.75,1.65-5.25a9.16,9.16,0,0,0,2.85,1.25c-.3,5.45-1.2,6.95-4.15,6.95h-5.85c-3.65,0-4.55-.95-4.55-4.45V451.87h3.25v6.5h10.2v2.9h-10.2v7.35c0,1.3.25,1.5,1.65,1.5Z"/><path class="cls-1" d="M1168.55,526.87v2.5H1124.4v-2.5h20.25v-3.2H1127.8v-2.3h16.85v-3H1129.2v-2.25h15.45v-3.2H1124.5v-2.5h20.15v-3.05H1129.8V505h14.85v-3.55h3.25V505h14.45v5.4h6.15v2.5h-6.15v5.45H1147.9v3h17.3v2.3h-17.3v3.2Zm-37.75,5h31.75v15.25h-3.25v-1.6H1134v1.7h-3.2Zm3.2,2.4v3.2h25.3v-3.2Zm25.3,8.85v-3.4H1134v3.4Zm-11.4-32.7h11.15v-3.05H1147.9Zm0,5.7h11.15v-3.2H1147.9Z"/><path d="M244,1845.49H229.22v35.15h-4v-38.87H244Z"/><path d="M277.28,1842.55c-.06,2.1-.12,5.1-.42,8.64.9,7,4.56,32.51,25.74,42a12.63,12.63,0,0,0-2.88,3.36c-15.42-7.26-21.72-22.74-24.6-34-2.64,12.23-8.94,26.33-24.06,34.19a13.77,13.77,0,0,0-3.12-3.06c25-12.48,24.78-42.11,25-51.11Z"/><path d="M306,1893.84h14.82v-35.15h4v38.87H306Z"/><path d="M358.16,1855.62a67.64,67.64,0,0,1-7.2,12.25v28.85h-4v-24a41.57,41.57,0,0,1-7.26,6.41,17,17,0,0,0-2-3.48c7-5,12.3-12.23,16.14-20H339v-3.83h16.44a65.25,65.25,0,0,0,3.3-9.42l4.08,1c-.9,2.82-1.86,5.64-3,8.4H391.1v3.83Zm32.94,36.24v3.72H355v-3.72h16v-17.52H357.32v-3.72H371v-11.81h4v11.81h13.8v3.72H375v17.52Z"/><path d="M418.52,1857.12c-3.48,13.74-9,27.06-18.84,36.12a31.63,31.63,0,0,0-2.64-3.12c9-8.1,14.22-20.33,17.46-33H399.32v-3.89h16.14c.78-3.66,1.44-7.32,2-10.86l4,.54c-.54,3.36-1.2,6.84-2,10.32h31.08v3.89Zm33.18,34.2v3.84H408.92v-3.84h19.74v-18.54H415v-3.84h33.84v3.84H432.74v18.54Z"/><path d="M459,1895.7c4.68-2,7.26-4.92,7.56-9.18a7.35,7.35,0,0,1-1.14.12c-2.34,0-4.26-1.38-4.26-4.08a4,4,0,0,1,4.32-4.14c3.18,0,4.86,2.64,4.86,6.66,0,6.48-4,11.28-10.08,13.44Z"/><path d="M514,1845.49H499.22v35.15h-4v-38.87H514Z"/><path d="M571.46,1886.46v4.38H518.6v-4.38Zm-5-35.51v4.26H523.64V1851Z"/><path d="M576,1893.84h14.82v-35.15h4v38.87H576Z"/><path d="M628.16,1855.62a67.64,67.64,0,0,1-7.2,12.25v28.85h-4v-24a41.57,41.57,0,0,1-7.26,6.41,17,17,0,0,0-2-3.48c7-5,12.3-12.23,16.14-20H609v-3.83h16.44a65.25,65.25,0,0,0,3.3-9.42l4.08,1c-.9,2.82-1.86,5.64-3,8.4H661.1v3.83Zm32.94,36.24v3.72H625v-3.72h16v-17.52H627.32v-3.72H641v-11.81h4v11.81h13.8v3.72H645v17.52Z"/><path d="M689.78,1857.54a74.71,74.71,0,0,1-5.76,11.94h32.7v27.3h-4.14v-3.12H685.22v3.42h-4v-23.4a50.91,50.91,0,0,1-11.46,11.52,21.84,21.84,0,0,0-2.64-3.18c8.64-5.94,14.46-14.76,18.36-24.48H669.08v-3.89H686.9a86,86,0,0,0,3.12-11.34l4.14.84c-.84,3.48-1.8,7-3,10.5h30v3.89Zm-4.56,15.78v16.5h27.36v-16.5Z"/><path d="M729,1895.7c4.68-2,7.26-4.92,7.56-9.18a7.35,7.35,0,0,1-1.14.12c-2.34,0-4.26-1.38-4.26-4.08a4,4,0,0,1,4.32-4.14c3.18,0,4.86,2.64,4.86,6.66,0,6.48-4,11.28-10.08,13.44Z"/><path d="M784,1845.49H769.22v35.15h-4v-38.87H784Z"/><path d="M817.28,1842.55c-.06,2.1-.12,5.1-.42,8.64.9,7,4.56,32.51,25.74,42a12.63,12.63,0,0,0-2.88,3.36c-15.42-7.26-21.72-22.74-24.6-34-2.64,12.23-8.94,26.33-24.06,34.19a13.77,13.77,0,0,0-3.12-3.06c25-12.48,24.78-42.11,25-51.11Z"/><path d="M846,1893.84h14.82v-35.15h4v38.87H846Z"/><path d="M915.32,1856.83v34.79c0,2.7-.66,3.9-2.46,4.56-2,.72-5.22.78-10.26.78a18.19,18.19,0,0,0-1.38-4.08c4,.12,7.62.12,8.76.06s1.32-.3,1.32-1.32v-34.79H900.74v7.08c0,10.49-1.38,23.69-15.18,33.47a13.94,13.94,0,0,0-3-2.94c13-9,14.22-21.12,14.22-30.6v-7H878.84v-4h52.38v4Zm-24.42,7.25c-1.86,7.21-5,14.1-8.58,18.66a30.77,30.77,0,0,0-3.42-2.28c3.6-4.2,6.42-10.62,8-17.09Zm14.52-11.51a52.51,52.51,0,0,0-5-9.24l3.72-1.26a55.47,55.47,0,0,1,5.22,9Zm16.68,10.8c3.84,6.05,7.86,14.21,9.3,19.31l-3.72,1.62c-1.38-5.1-5.16-13.38-9-19.55Z"/><path d="M986.72,1885.2h-4v-3H947.6a27.53,27.53,0,0,1-7.56,15.12,14.66,14.66,0,0,0-3-2.76c6.42-6.18,7.38-14.7,7.38-21v-8h42.3Zm-19.8-34.31v6.3H988v3.48H943v-3.48H962.9v-6.3H939.5v-3.48h23.4v-5.22h4v5.22h23.7v3.48ZM948.38,1869v4.62c0,1.56-.06,3.3-.24,5.1H963V1869Zm34.38,0h-15.9v9.72h15.9Z"/><path d="M999,1895.7c4.68-2,7.26-4.92,7.56-9.18a7.35,7.35,0,0,1-1.14.12c-2.34,0-4.26-1.38-4.26-4.08a4,4,0,0,1,4.32-4.14c3.18,0,4.86,2.64,4.86,6.66,0,6.48-4,11.28-10.08,13.44Z"/><path d="M339.14,1916.05c-.54.78-1.08,1.62-1.74,2.4,5.4,5.76,15.18,12.47,25,16a17.52,17.52,0,0,0-2.82,3.47,75.67,75.67,0,0,1-24.42-16.73A64.51,64.51,0,0,1,321,1933H349.4v3.72H320.78v-3.6a82.62,82.62,0,0,1-10,5.46,19,19,0,0,0-2.88-3.42c11.76-5,22.14-12.59,27.42-20.69Zm-28.62,28.37h49.32v3.84H333.38a113.31,113.31,0,0,1-12.6,14.34l28.26-2.22c-2.34-2.64-4.86-5.34-7.26-7.62l3.36-1.74c5.34,4.74,11,11.28,13.68,15.78l-3.54,2.1a37.32,37.32,0,0,0-3.42-5c-32,2.7-35.22,2.94-37.32,3.72-.24-.84-.9-3-1.38-4.14,1.26-.18,2.58-1.38,4.5-3.18A95.51,95.51,0,0,0,328,1948.26H310.52Z"/><path d="M369.08,1965.48c3.06-2.58,5.64-7,7.08-10.44l3.3,1.5c-1.68,3.6-4.08,8-7.14,10.86Zm51.72-36.9v3.25H369.56v-3.25h14.16a23.89,23.89,0,0,0-2.34-5.45l3.36-.84H372.26V1919h21.9c-.72-1.44-1.56-2.94-2.34-4.2l3.78-.9a39.9,39.9,0,0,1,2.94,5.1h19.2v3.3H405.86l3.24.78c-1,1.92-2,3.84-3,5.51Zm-7,23.7H392.66a47.07,47.07,0,0,1,8.82,6.24L399,1961a48.61,48.61,0,0,0-9.3-6.9l2-1.8H376.58V1935h37.2Zm-3.9-14.45H380.36v4.43h29.52Zm0,7.13H380.36v4.44h29.52Zm-8.22,20.16c2.58,0,3-.72,3.24-6.24a12.08,12.08,0,0,0,3.54,1.38c-.48,6.66-1.74,8.22-6.42,8.22H390.44c-5.82,0-7.38-1-7.38-5v-8H387v8c0,1.38.54,1.68,3.72,1.68ZM385,1922.29a26.19,26.19,0,0,1,2.76,6.18l-.48.11H402a59.18,59.18,0,0,0,3.06-6.29Zm27.66,32.21a46.55,46.55,0,0,1,8,10.2l-3.36,1.74a49,49,0,0,0-7.8-10.56Z"/><path d="M481.46,1958.46v4.38H428.6v-4.38Zm-5-35.51v4.26H433.64V1923Z"/><path d="M517.28,1914.55c-.06,2.1-.12,5.1-.42,8.64.9,7,4.56,32.51,25.74,42a12.63,12.63,0,0,0-2.88,3.36c-15.42-7.26-21.72-22.74-24.6-34-2.64,12.23-8.94,26.33-24.06,34.19a13.77,13.77,0,0,0-3.12-3.06c25-12.48,24.78-42.11,25-51.11Z"/><path d="M596.6,1928.11c-7.38,10.91-20.82,23.51-33.18,31,.6.42,1.26.84,1.92,1.32,3.78,2.4,8.64,2.82,15.36,2.82,7.14,0,16-.48,21.72-1a17.18,17.18,0,0,0-1.14,4.26c-4.5.3-15,.66-20.7.66-7.26,0-12.18-.66-16.14-3.24-2.4-1.5-4.26-3.48-5.58-3.48-1.92,0-4.74,3.42-7.68,7.38l-3-3.6c4-4.26,7.74-7.5,10.74-7.5a4.63,4.63,0,0,1,.9.12c11-6.36,23.22-17.39,30-26.63H551.3v-3.9h41.46l.84-.24ZM576.5,1926a70.73,70.73,0,0,0-6.3-10l3.48-1.8a70.87,70.87,0,0,1,6.42,9.78Z"/><path d="M610.82,1927.62h4.08v41.46h-4.08Zm4-12.41a42.73,42.73,0,0,1,7.5,8.4l-3.3,2.16a47.19,47.19,0,0,0-7.26-8.7Zm9.12,16.25h22.2v26.94H623.9ZM659.36,1964c0,2.34-.54,3.42-2,4.08s-4,.72-7.62.72a20.32,20.32,0,0,0-1.32-3.78c2.58.12,5.16.06,5.82.06.84,0,1.08-.3,1.08-1.08v-42.41h-29v-3.78h33.06Zm-31.86-20.81h14.82v-8.34H627.5Zm0,11.87h14.82v-8.46H627.5Z"/><path d="M721.82,1962.84v3.9h-53.4v-3.9h34.5c.54-3.06,1-6.54,1.5-10h-27.3c2-7.86,4.62-21.17,6.24-31h-13V1918H720v3.84h-32.4c-.54,3.12-1.2,6.48-1.86,10h21.6l.72-.19,2.94.37c-.78,8-2.46,21-4,30.89ZM705,1949c.6-4.92,1.2-9.71,1.62-13.5H685c-.9,4.8-1.86,9.54-2.7,13.5Z"/><path d="M742,1936.62c2,2.05,7.68,8.59,8.94,10.2l-2.52,3.24a96.69,96.69,0,0,0-6.42-8.88v27.66h-3.78v-29.58c-2.4,7.2-5.7,14.22-9.06,18.42a27.23,27.23,0,0,0-2.16-3.6c4.2-5,8.52-14.63,10.74-23.09h-9.42v-3.72h9.9v-13H742v13h8.76V1931H742Zm38.16-18.71v50.45h-3.9v-3.48h-19v3.66H753.5v-50.63Zm-22.86,3.78v10.5h19v-10.5Zm0,25h19v-10.8h-19Zm19,14.58V1950.3h-19v10.92Z"/><path d="M817.1,1939.56v6.54h22.56v3.6H817.1v14.46c0,2.4-.54,3.42-2.22,4.08s-4.5.66-8.88.6a18.21,18.21,0,0,0-1.38-3.66c3.36.12,6.42.06,7.26,0s1.2-.24,1.2-1V1949.7H790.7v-3.6h22.38v-6.54H789.44V1936h15a41.21,41.21,0,0,0-4.2-9l3.6-1a39.16,39.16,0,0,1,4.5,9.17l-2.52.78h14.76a69.43,69.43,0,0,0,5-9.89l4.08.9c-1.5,3-3.24,6.29-4.92,9h15.84v3.6Zm-11.82,13.74a46.79,46.79,0,0,1-11.34,13.38,23.6,23.6,0,0,0-3.3-2.46,35.52,35.52,0,0,0,10.8-12.12Zm32.4-28H793.16v-3.42h20.4a55.09,55.09,0,0,0-3.24-6.54l3.9-.9a48.9,48.9,0,0,1,3.84,7.44h19.62Zm-10.86,26.63c4.14,3.72,9.24,8.88,11.52,12.3l-3.42,2.34a75.25,75.25,0,0,0-11.34-12.6Z"/><path d="M893.18,1949.64a31,31,0,0,1-10.44,10.8,70.6,70.6,0,0,0,17.76,4.14,14.6,14.6,0,0,0-2.22,3.54,69.93,69.93,0,0,1-19.38-5.52,68.42,68.42,0,0,1-16.74,5.46,13.93,13.93,0,0,0-1.8-3.36,65.31,65.31,0,0,0,14.76-4.08,35.4,35.4,0,0,1-9.84-8.16,38.28,38.28,0,0,1-15,16,16.8,16.8,0,0,0-2.46-3.18c8.7-4.68,14.16-12,17.34-22.2H854.48v-3.48h11.7c.48-1.79.84-3.59,1.2-5.45l3.72.41c-.36,1.75-.66,3.42-1.08,5h25.62v3.48H869.06c-.54,1.74-1.14,3.48-1.74,5.1h23l.66-.12Zm-39.42-10.92h-3.48V1929h10.56c-.66-2-1.56-4.32-2.4-6.18l3.06-1.14a57.47,57.47,0,0,1,2.88,7.32h9.9c-.6-2.1-1.38-4.74-2.16-6.78l3.12-.9c1,2.4,2,5.58,2.64,7.68h6.42a58.9,58.9,0,0,0,4.8-8.64l3.6,1.2c-1.44,2.46-3.12,5.22-4.68,7.44H900v9.77h-3.54v-6.3H853.76Zm42.72-20.33c-10.86,1.8-29.16,2.88-43.86,3.12a13.7,13.7,0,0,0-.78-3.18c14.64-.36,33-1.5,43.26-3.18Zm-27.6,33.29a33.74,33.74,0,0,0,10.08,7.14,28.92,28.92,0,0,0,8.76-7.14Z"/><path d="M926.36,1958.88a9,9,0,1,1-9.06-9A9,9,0,0,1,926.36,1958.88Zm-2.82,0a6.21,6.21,0,1,0-6.24,6.24A6.22,6.22,0,0,0,923.54,1958.88Z"/><path d="M491.9,2003.17c4.44,10.31,12.24,20,20.76,24.71a23.11,23.11,0,0,0-3.06,3.36c-9-5.58-16.92-16.32-21.6-28.07h-1v22.43h14.28v4H487V2041H482.9v-11.4H468.68v-4H482.9v-22.43h-1.08c-4.74,11.75-12.66,22.43-21.3,28.25a24.18,24.18,0,0,0-2.88-3.18c8-4.92,15.66-14.76,20.16-25.07H459.14v-4H482.9v-12.72H487v12.72h24v4Z"/><path d="M566.6,1992.07c-4.32,12.12-10.08,22.68-18.6,31.25a65.72,65.72,0,0,0,24.42,14.1,17.56,17.56,0,0,0-2.76,3.54A66.69,66.69,0,0,1,545,2026.2a72.92,72.92,0,0,1-25.38,14.7,14.53,14.53,0,0,0-2.16-3.36,69.86,69.86,0,0,0,24.78-14.1,89.37,89.37,0,0,1-18.18-29.27l3.6-1.08a80.51,80.51,0,0,0,17.52,27.53c8.16-8.21,13.62-18.41,17.4-29.87ZM546,2002a102.25,102.25,0,0,0-5.88-14.45l3.42-1.38a105.48,105.48,0,0,1,6.06,14.28Z"/><path d="M607.46,2035.62a70.7,70.7,0,0,0,7.38.36c2.1.06,14.76,0,17.58-.06a16.36,16.36,0,0,0-1.44,3.84H614.72c-12.3,0-19.92-1.92-24.72-10.38a31.55,31.55,0,0,1-9.48,11.7,19.84,19.84,0,0,0-3.06-2.82c6.3-4.14,10.2-10.92,11.82-19.86l4,.6a55.92,55.92,0,0,1-1.5,6.06c2.34,5.64,6.3,8.52,11.7,9.84v-18.54H578.72v-3.6H631.4v3.6H607.46v7.08h20v3.6h-20Zm17.22-27.17h-39.6v-19.56h39.6Zm-4-16.44H589v5.16h31.68Zm0,8.1H589v5.27h31.68Z"/><path d="M657,1987.69a102.15,102.15,0,0,1-6.54,13.38v39.77h-4v-33.66a77.44,77.44,0,0,1-6.54,7.8,23.31,23.31,0,0,0-2.46-3.9c6.24-5.93,12.06-15.17,15.6-24.65Zm34.86,44.63v4.2H654.74v-4.2Zm-2.7-31.61h-30.9v-4.14h30.9Z"/><path d="M743.18,2021.64a31,31,0,0,1-10.44,10.8,70.6,70.6,0,0,0,17.76,4.14,14.6,14.6,0,0,0-2.22,3.54,69.93,69.93,0,0,1-19.38-5.52,68.42,68.42,0,0,1-16.74,5.46,13.93,13.93,0,0,0-1.8-3.36,65.31,65.31,0,0,0,14.76-4.08,35.4,35.4,0,0,1-9.84-8.16,38.28,38.28,0,0,1-15,16,16.8,16.8,0,0,0-2.46-3.18c8.7-4.68,14.16-12,17.34-22.2H704.48v-3.48h11.7c.48-1.79.84-3.59,1.2-5.45l3.72.41c-.36,1.75-.66,3.42-1.08,5h25.62v3.48H719.06c-.54,1.74-1.14,3.48-1.74,5.1h23l.66-.12Zm-39.42-10.92h-3.48V2001h10.56c-.66-2-1.56-4.32-2.4-6.18l3.06-1.14a57.47,57.47,0,0,1,2.88,7.32h9.9c-.6-2.1-1.38-4.74-2.16-6.78l3.12-.9c1,2.4,2,5.58,2.64,7.68h6.42a58.9,58.9,0,0,0,4.8-8.64l3.6,1.2c-1.44,2.46-3.12,5.22-4.68,7.44H750v9.77h-3.54v-6.3H703.76Zm42.72-20.33c-10.86,1.8-29.16,2.88-43.86,3.12a13.7,13.7,0,0,0-.78-3.18c14.64-.36,33-1.5,43.26-3.18Zm-27.6,33.29a33.74,33.74,0,0,0,10.08,7.14,28.92,28.92,0,0,0,8.76-7.14Z"/><path d="M776.36,2030.88a9,9,0,1,1-9.06-9A9,9,0,0,1,776.36,2030.88Zm-2.82,0a6.21,6.21,0,1,0-6.24,6.24A6.22,6.22,0,0,0,773.54,2030.88Z"/><line class="cls-3" x1="621" y1="351" x2="621" y2="351"/><rect class="cls-2" x="1114" y="1203" width="65" height="271" rx="12"/><path class="cls-1" d="M1159.05,1242.79a27.61,27.61,0,0,0,11.5,8.1,11.65,11.65,0,0,0-2.15,2.55,30.77,30.77,0,0,1-12.8-10.65h-15.95a34.39,34.39,0,0,1-13,11.3,11.43,11.43,0,0,0-2.15-2.55,30.39,30.39,0,0,0,11.6-8.75H1125v-2.85h10v-16.15h-7.7V1221h7.7v-5h3.3v5h18.55v-5h3.35v5h7.65v2.8h-7.65v16.15h9.8v2.85Zm-10,14.5h17.3v2.85H1128.8v-2.85h16.9v-5.6h-10.45v-2.8h10.45v-4.4h3.35v4.4h10.65v2.8h-10.65Zm-10.8-33.5v3.6h18.55v-3.6Zm0,9.8h18.55v-3.65h-18.55Zm0,6.35h18.55v-3.8h-18.55Z"/><path class="cls-1" d="M1143.25,1284.54s0,1.15,0,1.55c-.6,15.85-1.2,21.2-2.6,23a3.71,3.71,0,0,1-2.8,1.45,32.65,32.65,0,0,1-4.45,0,9.25,9.25,0,0,0-.85-3c1.75.15,3.2.15,3.9.15a1.42,1.42,0,0,0,1.45-.65c1-1.2,1.6-6,2.15-19.35h-6.8c-.55,10-2,18.25-6.45,23.65a9.53,9.53,0,0,0-2.55-2.35c5.45-6.45,5.9-17.85,6.1-31.55h-5.2v-3.1h20.1v3.1h-11.65c0,2.45-.1,4.85-.2,7.15Zm-7.9-10.45a33.47,33.47,0,0,0-4.25-7.15l2.9-1.15a31.92,31.92,0,0,1,4.4,7Zm23.85-7.45a15.26,15.26,0,0,1-.85,2.55c2.65,5.45,7.7,11.35,12.45,14a13,13,0,0,0-2.45,2.75c-4.25-2.7-8.5-8-11.4-13.3a32.61,32.61,0,0,1-11,13.6,12.79,12.79,0,0,0-2.35-2.65c5.85-3.6,10.35-10.2,12.5-17.85Zm-8.3,32.45a74,74,0,0,1,13.6,8.25l-2.25,2.9c-2.85-2.6-8.75-6.3-13.4-8.65Zm9.5-4.85a66.22,66.22,0,0,0-8.6-6.85l2.15-2.2a67.46,67.46,0,0,1,8.75,6.55Z"/><path class="cls-1" d="M1166,1319.19v29.3h-3.5v-2.55h-13.3v15.6h-3.45v-15.6h-13.4v2.75H1129v-29.5Zm-33.65,3.2V1331h13.4v-8.65Zm13.4,20.35v-8.5h-13.4v8.5Zm16.75-20.35h-13.3V1331h13.3Zm0,20.35v-8.5h-13.3v8.5Z"/><path class="cls-1" d="M1168.25,1381.09v9.3h-3.15V1384h-35.4v6.4h-3v-9.3h6.95v-12.95h27.7v12.95Zm-6.45,26.6c0,1.85-.45,2.7-1.85,3.2s-3.9.5-7.7.45a8.57,8.57,0,0,0-1.1-2.75c3,.05,5.65.05,6.4.05s1-.25,1-1v-6.2c-7.3,1.45-14.85,3-20.45,4l-1.1-3c5.4-.8,13.6-2.3,21.55-3.75V1390h-22.2v5.3c0,4.85-.65,11.55-4.35,16.2a13.29,13.29,0,0,0-2.7-2c3.45-4.25,3.85-10,3.85-14.25v-8h28.6Zm-25-26.6h7.45v-6.9H1158v-3.35h-21.2Zm2.45,11.7a75.14,75.14,0,0,1,17.7,3l-.9,2.6c-4-1.5-11.7-2.9-17.7-3.35Zm18.75-16.3h-10.75v4.6H1158Z"/><path class="cls-1" d="M1162,1428.09a51.83,51.83,0,0,1-12,19.6,49.94,49.94,0,0,0,20.5,10.5,16.79,16.79,0,0,0-2.25,3,50.92,50.92,0,0,1-20.75-11.1c-5.65,5-12.55,8.6-21,11.3a15.53,15.53,0,0,0-2-3.05c8.35-2.45,15.1-5.9,20.6-10.6a57.05,57.05,0,0,1-12.2-19.65h-7.75v-3.25h44.75v3.25Zm-25.75,0a52.13,52.13,0,0,0,11.3,17.3,47.46,47.46,0,0,0,10.7-17.3Zm11.25-3.55a38.13,38.13,0,0,0-3.8-7.8l3.4-1a39,39,0,0,1,4,7.65Z"/><path d="M339.62,1107.09a201.14,201.14,0,0,1,22.46,24.58l-4-5.16c14.73,19.11,26.32,40.41,35.72,62.59l-2.57-6.09c14.2,33.79,23,69.45,29.42,105.47q2.91,16.43,5.12,33l-.91-6.78c5.77,43.11,8.28,86.59,8.86,130.07.59,43.72-.76,87.44-2.76,131.1-1.12,24.38-2.44,48.74-3.75,73.11-.34,6.31,3.08,13.64,7.47,18s11.68,7.75,18,7.47c6.59-.3,13.43-2.47,18-7.47a27.73,27.73,0,0,0,7.47-18c2.14-39.83,4.32-79.65,5.57-119.52,1.27-40.19,1.61-80.43,0-120.61a1015.32,1015.32,0,0,0-12.38-124.65c-6.09-37-14.53-73.79-28.5-108.65-14.1-35.16-32.39-68.65-58.77-96.2-2.73-2.85-5.55-5.6-8.46-8.28a26.74,26.74,0,0,0-18-7.47c-6.25,0-13.72,2.78-18,7.47-4.46,4.86-7.77,11.24-7.47,18,.3,6.61,2.47,13.43,7.47,18Z"/><line class="cls-4" x1="356.75" y1="1089.47" x2="279.37" y2="1405.73"/><line class="cls-4" x1="531.5" y1="1248.5" x2="921.5" y2="1248.5"/><line class="cls-4" x1="532" y1="1489.5" x2="922" y2="1489.5"/></svg>