<svg id="Layer_1" data-name="Layer 1" xmlns="http://www.w3.org/2000/svg" viewBox="0 0 1242 2208"><defs><style>.cls-1{fill:#f6eabe;}.cls-2{fill:#999;}.cls-3,.cls-4{fill:none;}.cls-4{stroke:#000;stroke-linecap:round;stroke-miterlimit:10;stroke-width:50px;}</style></defs><rect class="cls-1" width="1242" height="2208"/><path d="M579,644.84C468.64,695.65,347.16,748.85,260.61,787l-19.05-54c31-11.91,68.28-27.79,109.57-45.26l-12.7-497,53.19-1.59,11.91,476.39c52.41-23,108.78-47.64,163.56-72.25Zm352.54,224.7C894.22,814,818,728.21,748.92,656,687,751.23,598.06,821.9,471,874.3,463.88,864,441.64,840.16,429.73,829,706,729,790.21,536.06,825.94,189.09l57.16,5.56c-19.05,172.29-50,307.27-106.39,414.46C849,680.57,933.92,771.08,976,828.25ZM624.26,464.6C603.62,409.82,552,328.83,502,270.87l45.26-23c53.19,58,104,135.78,126.24,189Z"/><rect class="cls-2" x="1114" y="437" width="65" height="126" rx="12"/><path class="cls-1" d="M1133.7,466.82c1.25,1.6,4.9,6.7,5.7,8.05l-2,2.45c-.7-1.5-2.35-4.4-3.75-6.65V497h-3.15V472.57c-1.5,5.05-3.5,9.9-5.55,12.85a14.83,14.83,0,0,0-1.75-3.1c2.9-4,5.8-11.5,7.2-18h-6.2v-3.15h6.3v-9.65h3.15v9.65h5.45v3.15h-5.45Zm19.1.7a19.47,19.47,0,0,0,.45,2.65c-10.15,2.7-11.6,3.15-12.5,3.75a12.13,12.13,0,0,0-1.1-3.2c.7-.2,1.55-.5,1.55-2.2v-16.7h3.25v6.5h8.35v2.9h-8.35v8.3Zm2.35,5.5-2,3.75h12.65V497h-3.4v-1.75h-17v2h-3.3V476.77h7.9c.55-1.5,1.2-3.25,1.55-4.6Zm7.3,6.5h-17v5.05h17Zm0,13v-5.3h-17v5.3Zm2.25-22.4c1.25,0,1.5-.75,1.65-5.25a9.16,9.16,0,0,0,2.85,1.25c-.3,5.45-1.2,6.95-4.15,6.95h-5.85c-3.65,0-4.55-.95-4.55-4.45V451.87h3.25v6.5h10.2v2.9h-10.2v7.35c0,1.3.25,1.5,1.65,1.5Z"/><path class="cls-1" d="M1168.55,526.87v2.5H1124.4v-2.5h20.25v-3.2H1127.8v-2.3h16.85v-3H1129.2v-2.25h15.45v-3.2H1124.5v-2.5h20.15v-3.05H1129.8V505h14.85v-3.55h3.25V505h14.45v5.4h6.15v2.5h-6.15v5.45H1147.9v3h17.3v2.3h-17.3v3.2Zm-37.75,5h31.75v15.25h-3.25v-1.6H1134v1.7h-3.2Zm3.2,2.4v3.2h25.3v-3.2Zm25.3,8.85v-3.4H1134v3.4Zm-11.4-32.7h11.15v-3.05H1147.9Zm0,5.7h11.15v-3.2H1147.9Z"/><path d="M354.92,1859.69a98.85,98.85,0,0,1-6.18,13.56v39.59H344.9v-33.35a61.73,61.73,0,0,1-5.46,7,32.86,32.86,0,0,0-2.28-3.9c5.58-5.87,10.8-14.87,14-24Zm34.2,29.21c-2,1.38-4.44,2.7-6.84,4,2,5.82,5.82,11.16,10.62,13.62a15.86,15.86,0,0,0-2.64,3.06c-4.92-3-8.76-8.76-10.86-15.3-1,.54-2.1,1-3.12,1.5,2.1,6.3,1.26,12.72-1.38,15.24a6.51,6.51,0,0,1-5,1.92c-1,0-2.4-.06-3.72-.12a9.47,9.47,0,0,0-1-3.48,34.56,34.56,0,0,0,4,.24,3.38,3.38,0,0,0,3-1.14c1.44-1.32,2.1-4.86,1.44-8.94a58.72,58.72,0,0,1-19.5,11.4,11.72,11.72,0,0,0-2.34-2.82c7.44-2.22,16.26-7,21.12-11.82a24.37,24.37,0,0,0-1.62-3.66,57.71,57.71,0,0,1-16.74,9.66,16.14,16.14,0,0,0-2.22-2.64c5.82-1.74,13.38-5.58,17.52-9.3a16.53,16.53,0,0,0-2.82-3,39.59,39.59,0,0,1-12.3,6.17,14.66,14.66,0,0,0-2.28-2.58c6.54-2.1,10.86-4.62,13.68-7.26h-9.54v-9.35c-1.08,1-2.22,1.92-3.42,2.88a9.81,9.81,0,0,0-2.64-2.53,45.41,45.41,0,0,0,13.92-16.25l3.84.72a35.7,35.7,0,0,1-2,3.54h11.1l.78-.18,2.34,1.68a52.13,52.13,0,0,1-4.8,6.84h13v12.65H370.7a15.52,15.52,0,0,1-1.38,1.63,22.17,22.17,0,0,1,6,7.85,120.47,120.47,0,0,0,11.1-6.66Zm-25-23.09a54.58,54.58,0,0,1-4.2,5.16h11.58a33.35,33.35,0,0,0,3.72-5.16Zm-4,14.69h8.64a15.14,15.14,0,0,0,2.46-6.42h-11.1Zm24.72-6.42H374.6a18.56,18.56,0,0,1-1.8,6.42h12.06Z"/><path d="M424,1861.49H409.22v35.15h-4v-38.87H424Z"/><path d="M457.28,1858.55c-.06,2.1-.12,5.1-.42,8.64.9,7,4.56,32.51,25.74,42a12.63,12.63,0,0,0-2.88,3.36c-15.42-7.26-21.72-22.74-24.6-34-2.64,12.23-8.94,26.33-24.06,34.19a13.77,13.77,0,0,0-3.12-3.06c25-12.48,24.78-42.11,25-51.11Z"/><path d="M486,1909.84h14.82v-35.15h4v38.87H486Z"/><path d="M571.94,1893.22H547.1v14c0,3-1,4.2-3.06,4.86s-5.94.72-12.3.66a17.27,17.27,0,0,0-1.74-3.9c5.16.12,9.84.06,11.16.06s1.86-.48,1.86-1.74v-13.92H518.18v-3.9H543v-10.2H522.14v-3.83H543v-9.6c-6.66.66-13.56,1.14-19.8,1.44a16.18,16.18,0,0,0-1-3.54c14.16-.72,31.8-2.28,40.74-5.16l2.94,3.24a123.25,123.25,0,0,1-18.78,3.6v10h21.48v3.83H547.1v10.2h24.84Z"/><path d="M595.64,1888.3c-2.22.78-4.44,1.5-6.66,2.28v17.34c0,2.34-.54,3.36-1.92,4s-3.6.78-7.44.72a15.93,15.93,0,0,0-1.14-3.66c2.64.06,5,.06,5.7,0s1.08-.24,1.08-1.08v-16.08c-2.58.9-5,1.62-7.2,2.34l-1.08-3.84c2.28-.72,5.16-1.56,8.28-2.51v-13.56H577.7v-3.72h7.56v-12.12H589v12.12h6.72v3.72H589v12.35l6.18-2Zm19.8,19.8a37.41,37.41,0,0,0,5.94.42c1.38,0,9.54,0,11.52-.06a10.63,10.63,0,0,0-1.2,3.6H621.26c-8.88,0-15.24-1.74-19.08-10.32a27.11,27.11,0,0,1-7.32,11.28,23.9,23.9,0,0,0-3-2.4c5.4-4.26,8.1-11,9.06-20l3.66.48a63.4,63.4,0,0,1-1.14,6.36c1.74,5.4,4.62,8.28,8.28,9.72v-19.56H597v-3.36H631v3.36h-15.6V1895H628.1v3.3H615.44Zm12.18-28.49h-28v-19.26h28Zm-3.78-16.14H603.26v5h20.58Zm0,7.92H603.26v5.15h20.58Z"/><path d="M692.36,1882.91v4.31H637.88v-4.31Z"/><path d="M729,1860c-.48.9-1,1.74-1.56,2.58,7.26,9,15.78,14.93,25.44,19.73a12.66,12.66,0,0,0-2.88,3.54c-9.3-5-17.28-10.85-24.9-20.15a71,71,0,0,1-24.66,20,17.42,17.42,0,0,0-2.94-3.47c11.22-5,22-13.92,28-23.88Zm-6,15.66H727V1913H723Z"/><path d="M780,1888.54l-7.74,2.52v22h-3.72v-20.76c-3.6,1.08-7.08,2.22-10.08,3.12l-1.08-3.84c3.06-.84,7-1.92,11.16-3.18v-13.79h-5.7a53.29,53.29,0,0,1-2.76,9.11,25.52,25.52,0,0,0-3.06-1.85c2.28-5,3.54-12.6,4.26-20l3.54.6c-.36,2.82-.78,5.64-1.26,8.34h5v-12.3h3.72v12.3h6.42v3.84h-6.42v12.72l7.26-2.23Zm31.68-20s0,1.56-.06,2.1c-1.44,27.29-2.7,36.59-5.22,39.47a5,5,0,0,1-4,2.22,53,53,0,0,1-6.84-.06,10.36,10.36,0,0,0-1.14-4c2.82.24,5.28.3,6.42.3a2.61,2.61,0,0,0,2.34-1c1.92-2.16,3.3-11.1,4.56-35.33h-3.36c-3.06,15.83-9.72,32-19.68,39.83a11.72,11.72,0,0,0-3.36-2.4c10-7.2,16.44-22.2,19.56-37.43h-5.34c-2.7,10.37-8.28,21.65-14.88,27.41a14.07,14.07,0,0,0-3.18-2.34c6.42-5,11.82-15.3,14.64-25.07h-5.52a48.75,48.75,0,0,1-7,11.52,29.73,29.73,0,0,0-3.06-2.29c5-5.39,8.58-14,10.62-23.15l3.66.72a87.43,87.43,0,0,1-2.76,9.48Z"/><path d="M835.22,1859.69a103.09,103.09,0,0,1-6,13.08v40.13h-3.78v-34a70.58,70.58,0,0,1-5.88,7.55,26.3,26.3,0,0,0-2.28-3.9c5.64-5.81,11-14.87,14.16-24Zm36.6,32.45H855.38V1913h-4v-20.88H834.08v-3.84h17.34v-13.73h-9.84a43.74,43.74,0,0,1-4.44,9.35,31.86,31.86,0,0,0-3.42-2c3.54-5,6-12.71,7.38-20.57l3.78.72a65.79,65.79,0,0,1-2.1,8.7h8.64v-11.64h4v11.64h13.86v3.84H855.38v13.73h16.44Z"/><path d="M879,1911.7c4.68-2,7.26-4.92,7.56-9.18a7.35,7.35,0,0,1-1.14.12c-2.34,0-4.26-1.38-4.26-4.08a4,4,0,0,1,4.32-4.14c3.18,0,4.86,2.64,4.86,6.66,0,6.48-4,11.28-10.08,13.44Z"/><path d="M476.9,1947.17c4.44,10.31,12.24,20,20.76,24.71a23.11,23.11,0,0,0-3.06,3.36c-9-5.58-16.92-16.32-21.6-28.07h-1v22.43h14.28v4H472V1985H467.9v-11.4H453.68v-4H467.9v-22.43h-1.08c-4.74,11.75-12.66,22.43-21.3,28.25a24.18,24.18,0,0,0-2.88-3.18c8-4.92,15.66-14.76,20.16-25.07H444.14v-4H467.9v-12.72H472v12.72h24v4Z"/><path d="M551.6,1936.07c-4.32,12.12-10.08,22.68-18.6,31.25a65.72,65.72,0,0,0,24.42,14.1,17.56,17.56,0,0,0-2.76,3.54A66.69,66.69,0,0,1,530,1970.2a72.92,72.92,0,0,1-25.38,14.7,14.53,14.53,0,0,0-2.16-3.36,69.86,69.86,0,0,0,24.78-14.1,89.37,89.37,0,0,1-18.18-29.27l3.6-1.08a80.51,80.51,0,0,0,17.52,27.53c8.16-8.21,13.62-18.41,17.4-29.87ZM531,1946a102.25,102.25,0,0,0-5.88-14.45l3.42-1.38a105.48,105.48,0,0,1,6.06,14.28Z"/><path d="M592.46,1979.62a70.7,70.7,0,0,0,7.38.36c2.1.06,14.76,0,17.58-.06a16.36,16.36,0,0,0-1.44,3.84H599.72c-12.3,0-19.92-1.92-24.72-10.38a31.55,31.55,0,0,1-9.48,11.7,19.84,19.84,0,0,0-3.06-2.82c6.3-4.14,10.2-10.92,11.82-19.86l4,.6a55.92,55.92,0,0,1-1.5,6.06c2.34,5.64,6.3,8.52,11.7,9.84v-18.54H563.72v-3.6H616.4v3.6H592.46v7.08h20v3.6h-20Zm17.22-27.17h-39.6v-19.56h39.6Zm-4-16.44H574v5.16h31.68Zm0,8.1H574v5.27h31.68Z"/><path d="M641,1960.18c-2.22.78-4.5,1.57-6.66,2.28v17.64c0,2.28-.6,3.36-2,4s-3.6.78-7.38.72a14.8,14.8,0,0,0-1.2-3.72c2.7.12,5.1.12,5.76.06s1.08-.24,1.08-1.08v-16.43c-2.76.95-5.34,1.79-7.62,2.51l-1.14-3.78c2.4-.72,5.4-1.68,8.76-2.76v-13.37h-7.86v-3.72h7.86v-12.18h3.72v12.18h6.54v3.72h-6.54v12.29l6.12-2Zm28.44-6.54v7h7.5v3.72h-7.5v15.6c0,2.58-.54,3.72-2.22,4.32s-4.56.72-9,.72a15.58,15.58,0,0,0-1.26-3.9c3.42.12,6.6.06,7.5,0s1.2-.3,1.2-1.14v-15.6H642.44v-3.72h23.22v-7H641.72v-3.72h16v-8H644.9v-3.66h12.84v-7.56h3.78v7.56h12.9v3.66h-12.9v8H677.3v3.72Zm-19.26,12.54a50.51,50.51,0,0,1,6.84,10.38l-3.3,2a43.29,43.29,0,0,0-6.6-10.56Z"/><path d="M682.7,1970.26l3.48-3.06a113.53,113.53,0,0,1,13.5,13.38L696,1983.7A97.41,97.41,0,0,0,682.7,1970.26Z"/><path d="M730.64,1960.3c-2.22.78-4.44,1.5-6.66,2.28v17.34c0,2.34-.54,3.36-1.92,4s-3.6.78-7.44.72a15.93,15.93,0,0,0-1.14-3.66c2.64.06,5,.06,5.7,0s1.08-.24,1.08-1.08v-16.08c-2.58.9-5,1.62-7.2,2.34l-1.08-3.84c2.28-.72,5.16-1.56,8.28-2.51v-13.56H712.7v-3.72h7.56v-12.12H724v12.12h6.72v3.72H724v12.35l6.18-2Zm19.8,19.8a37.41,37.41,0,0,0,5.94.42c1.38,0,9.54,0,11.52-.06a10.63,10.63,0,0,0-1.2,3.6H756.26c-8.88,0-15.24-1.74-19.08-10.32a27.11,27.11,0,0,1-7.32,11.28,23.9,23.9,0,0,0-3-2.4c5.4-4.26,8.1-11,9.06-20l3.66.48a63.4,63.4,0,0,1-1.14,6.36c1.74,5.4,4.62,8.28,8.28,9.72v-19.56H732v-3.36H766v3.36h-15.6V1967H763.1v3.3H750.44Zm12.18-28.49h-28v-19.26h28Zm-3.78-16.14H738.26v5h20.58Zm0,7.92H738.26v5.15h20.58Z"/><path d="M791.36,1974.88a9,9,0,1,1-9.06-9A9,9,0,0,1,791.36,1974.88Zm-2.82,0a6.21,6.21,0,1,0-6.24,6.24A6.22,6.22,0,0,0,788.54,1974.88Z"/><path d="M481.94,2018.92v3.84H438.38v.36c0,9.84-1,24.24-7.86,34a14.68,14.68,0,0,0-3.3-2.76c6.42-9.18,7.08-22.08,7.08-31.26v-15.35c14.22-.9,30.9-2.58,40.08-4.86l3.36,3.24c-10.26,2.4-25.68,4-39.36,4.92v7.85Zm-38.22,12.66H477.5V2057h-4.14v-3.12H447.74v3.18h-4Zm4,3.78v14.82h25.62v-14.82Z"/><path d="M541.34,2029.91c-8.34,17.57-28.92,24.65-49.8,27.11a13.83,13.83,0,0,0-1.62-3.78c10.26-1,20.52-3.24,29-7.32a69.22,69.22,0,0,0-7.32-6.3l3.3-1.86a70.83,70.83,0,0,1,7.62,6.3,36.26,36.26,0,0,0,13-12h-16.8a67.6,67.6,0,0,1-18.9,11,14.56,14.56,0,0,0-2.52-3c12.12-4.37,20.7-11.16,25-17.09l4.44,1a46.46,46.46,0,0,1-4.08,4.55h15.24l.78-.24Zm-9-20.82c-7.62,13.14-25.2,21.24-40.44,24.47A13.51,13.51,0,0,0,490,2030a77.33,77.33,0,0,0,20.52-6.77,46.47,46.47,0,0,0-7.32-5.29l2.88-2.09a50.57,50.57,0,0,1,7.92,5.46,42.65,42.65,0,0,0,12.3-10.14H509.06a65.93,65.93,0,0,1-14.28,8.93,11.16,11.16,0,0,0-2.76-2.81c9.6-4.08,16.8-10.08,20.58-15.06l4.38.9a53.78,53.78,0,0,1-4,4.44H529l.72-.18Z"/><path d="M597.92,2051.32c0,2.76-.78,4-2.64,4.68s-5.46.72-11.1.66a12.92,12.92,0,0,0-1.38-3.84c4.32.18,8.4.12,9.6.06s1.56-.42,1.56-1.56v-12.78H577.22v17.94h-4v-17.94H557.78c-.9,6.72-2.88,13.56-7.56,18.78a11.58,11.58,0,0,0-3-2.64c6.6-7.44,7.26-18,7.26-26.46v-21.59h43.44Zm-24.66-16.56v-10.5H558.38v4c0,2.11-.06,4.26-.24,6.54Zm-14.88-24.35v10.13h14.88v-10.13Zm35.58,0H577.22v10.13H594Zm0,24.35v-10.5H577.22v10.5Z"/><path d="M626.36,2003.75a105.89,105.89,0,0,1-6.18,12.9v40.25h-4v-34.07a58.5,58.5,0,0,1-6.36,7.67,22.37,22.37,0,0,0-2.34-3.9c6-5.81,11.64-14.81,15.06-24Zm17.22,12.48v9H661.1v3.72H643.58v9.48h18.3v3.78h-18.3V2057h-4v-40.73h-4.44a65.13,65.13,0,0,1-8.64,12.65,28.89,28.89,0,0,0-3.12-2.7c5.46-5.57,10.32-14.27,13.26-23l3.84,1c-1,2.82-2.22,5.58-3.42,8.28h25.38v3.84Z"/><path d="M714.08,2029.54c2.58,0,3-.6,3.24-4.2a10.65,10.65,0,0,0,3.42,1.26c-.54,4.86-1.74,6.07-6.36,6.07h-14c-6.36,0-8-.91-8-5.05v-1.79l-12,1.13-.3-3,12.3-1.13v-4.75H676.88V2029c0,8.22-.84,20-5.7,27.9a17.56,17.56,0,0,0-3.36-2.1c4.74-7.56,5.16-18.18,5.16-25.8v-14.33h19.38v-12.3h4v4.74H717v3.3H696.32v4.26H717.2l.78-.18,2.88.84a57.45,57.45,0,0,1-3.48,8.93l-3.42-1.14c.6-1.37,1.26-3.17,1.86-5H696.14v4.38l14.7-1.31.3,2.93-15,1.38v2.16c0,1.56.54,1.92,4.32,1.92Zm-9.18,22.68h15.66v3.48H676v-3.48h14.16v-17.4h3.66v17.4h7.32v-17.4h3.78Zm-22.26-14.64a48.7,48.7,0,0,1,5,10.5l-3.42,1.38a50,50,0,0,0-4.86-10.74Zm34.26.9c-2.34,3.72-5.1,8.16-7.32,11l-2.82-1.2a75,75,0,0,0,6.24-11.1Z"/><path d="M747.38,2042.44c.3,1,.9,2.52,1.2,3.3-9.9,7.2-11.4,8.4-12.24,9.54a13,13,0,0,0-2.28-2.76c1.08-.9,3.18-3,3.18-5.94V2025H728v-3.84h13v25.73Zm-6.54-26.4a71.66,71.66,0,0,0-9.06-9.17l2.58-2.52a69,69,0,0,1,9.18,8.94Zm39.3,35.64c0,2.64-.6,3.9-2.4,4.56s-4.92.78-9.84.78a14.53,14.53,0,0,0-1.38-4c3.84.12,7.38.06,8.4.06s1.38-.36,1.38-1.44v-42.47H747.14v-3.72h33Zm-8.46-32.76h-23v-3.47h23Zm-16.92,25.26v4.14h-3.6v-23.1h17.52v19Zm0-15.47v12H765v-12Z"/><path d="M806.36,2046.88a9,9,0,1,1-9.06-9A9,9,0,0,1,806.36,2046.88Zm-2.82,0a6.21,6.21,0,1,0-6.24,6.24A6.22,6.22,0,0,0,803.54,2046.88Z"/><line class="cls-3" x1="621" y1="351" x2="621" y2="351"/><rect class="cls-2" x="1115" y="1246" width="65" height="271" rx="12"/><path class="cls-1" d="M1160.05,1285.79a27.61,27.61,0,0,0,11.5,8.1,11.65,11.65,0,0,0-2.15,2.55,30.77,30.77,0,0,1-12.8-10.65h-15.95a34.39,34.39,0,0,1-13,11.3,11.43,11.43,0,0,0-2.15-2.55,30.39,30.39,0,0,0,11.6-8.75H1126v-2.85h10v-16.15h-7.7V1264h7.7v-5h3.3v5h18.55v-5h3.35v5h7.65v2.8h-7.65v16.15h9.8v2.85Zm-10,14.5h17.3v2.85H1129.8v-2.85h16.9v-5.6h-10.45v-2.8h10.45v-4.4h3.35v4.4h10.65v2.8h-10.65Zm-10.8-33.5v3.6h18.55v-3.6Zm0,9.8h18.55v-3.65h-18.55Zm0,6.35h18.55v-3.8h-18.55Z"/><path class="cls-1" d="M1144.25,1327.54s0,1.15,0,1.55c-.6,15.85-1.2,21.2-2.6,23a3.71,3.71,0,0,1-2.8,1.45,32.65,32.65,0,0,1-4.45,0,9.25,9.25,0,0,0-.85-3c1.75.15,3.2.15,3.9.15a1.42,1.42,0,0,0,1.45-.65c1-1.2,1.6-6,2.15-19.35h-6.8c-.55,10-2,18.25-6.45,23.65a9.53,9.53,0,0,0-2.55-2.35c5.45-6.45,5.9-17.85,6.1-31.55h-5.2v-3.1h20.1v3.1h-11.65c0,2.45-.1,4.85-.2,7.15Zm-7.9-10.45a33.47,33.47,0,0,0-4.25-7.15l2.9-1.15a31.92,31.92,0,0,1,4.4,7Zm23.85-7.45a15.26,15.26,0,0,1-.85,2.55c2.65,5.45,7.7,11.35,12.45,14a13,13,0,0,0-2.45,2.75c-4.25-2.7-8.5-8-11.4-13.3a32.61,32.61,0,0,1-11,13.6,12.79,12.79,0,0,0-2.35-2.65c5.85-3.6,10.35-10.2,12.5-17.85Zm-8.3,32.45a74,74,0,0,1,13.6,8.25l-2.25,2.9c-2.85-2.6-8.75-6.3-13.4-8.65Zm9.5-4.85a66.22,66.22,0,0,0-8.6-6.85l2.15-2.2a67.46,67.46,0,0,1,8.75,6.55Z"/><path class="cls-1" d="M1167,1362.19v29.3h-3.5v-2.55h-13.3v15.6h-3.45v-15.6h-13.4v2.75H1130v-29.5Zm-33.65,3.2V1374h13.4v-8.65Zm13.4,20.35v-8.5h-13.4v8.5Zm16.75-20.35h-13.3V1374h13.3Zm0,20.35v-8.5h-13.3v8.5Z"/><path class="cls-1" d="M1169.25,1424.09v9.3h-3.15V1427h-35.4v6.4h-3v-9.3h6.95v-12.95h27.7v12.95Zm-6.45,26.6c0,1.85-.45,2.7-1.85,3.2s-3.9.5-7.7.45a8.57,8.57,0,0,0-1.1-2.75c3,.05,5.65.05,6.4.05s1-.25,1-1v-6.2c-7.3,1.45-14.85,3-20.45,4l-1.1-3c5.4-.8,13.6-2.3,21.55-3.75V1433h-22.2v5.3c0,4.85-.65,11.55-4.35,16.2a13.29,13.29,0,0,0-2.7-2c3.45-4.25,3.85-10,3.85-14.25v-8h28.6Zm-25-26.6h7.45v-6.9H1159v-3.35h-21.2Zm2.45,11.7a75.14,75.14,0,0,1,17.7,3l-.9,2.6c-4-1.5-11.7-2.9-17.7-3.35Zm18.75-16.3h-10.75v4.6H1159Z"/><path class="cls-1" d="M1163,1471.09a51.83,51.83,0,0,1-12,19.6,49.94,49.94,0,0,0,20.5,10.5,16.79,16.79,0,0,0-2.25,3,50.92,50.92,0,0,1-20.75-11.1c-5.65,5-12.55,8.6-21,11.3a15.53,15.53,0,0,0-2-3.05c8.35-2.45,15.1-5.9,20.6-10.6a57.05,57.05,0,0,1-12.2-19.65h-7.75v-3.25h44.75v3.25Zm-25.75,0a52.13,52.13,0,0,0,11.3,17.3,47.46,47.46,0,0,0,10.7-17.3Zm11.25-3.55a38.13,38.13,0,0,0-3.8-7.8l3.4-1a39,39,0,0,1,4,7.65Z"/><line class="cls-4" x1="516.06" y1="1298.55" x2="397" y2="1559.42"/><line class="cls-4" x1="517.94" y1="1298.55" x2="637" y2="1559.42"/><line class="cls-4" x1="636.76" y1="1559.49" x2="397.24" y2="1559.49"/><path d="M656.68,1094.48q3.32,2.4,6.56,4.9l-5.16-4a276.52,276.52,0,0,1,48.7,49l-4-5.16c18.65,24.15,33.63,50.9,45.54,79l-2.57-6.09c16.08,38.15,26.4,78.65,33.79,119.31q3.36,18.46,5.84,37.08l-.92-6.78c6.11,45.9,8.53,92.21,8.72,138.5.19,46.6-1.84,93.18-4.63,139.68-1.55,25.87-3.34,51.71-5.11,77.56-.43,6.26,3.15,13.72,7.47,18s11.68,7.76,18,7.47c6.6-.29,13.44-2.46,18-7.47a28,28,0,0,0,7.47-18c3.23-47.16,6.52-94.33,8.33-141.57,1.82-47.58,2.17-95.26-.58-142.81-2.84-48.87-8.85-97.79-19.64-145.57-9.88-43.69-23.92-86.58-45-126.22-19.68-37-46-71.67-78.6-98.16q-8.09-6.57-16.53-12.68c-5.06-3.66-13.88-4.17-19.65-2.58s-12.33,6.21-15.24,11.72c-3.13,5.92-4.7,13.09-2.57,19.65s6.06,11.15,11.72,15.24Z"/><line class="cls-4" x1="669" y1="1072" x2="516" y2="1299"/></svg>