<svg id="Layer_1" data-name="Layer 1" xmlns="http://www.w3.org/2000/svg" viewBox="0 0 1242 2208"><defs><style>.cls-1{fill:#f6eabe;}.cls-2{fill:#999;}.cls-3,.cls-4{fill:none;}.cls-4{stroke:#000;stroke-linecap:round;stroke-miterlimit:10;stroke-width:50px;}</style></defs><rect class="cls-1" width="1242" height="2208"/><path d="M476.58,156.86c-22.23,58.75-49.23,118.3-79.4,173.09V861.13h-50V411.73a949.88,949.88,0,0,1-77.81,100c-5.56-12.7-20.65-38.91-30.17-51.61,74.63-77,145.3-196.91,187.38-318.39ZM960.91,586.41H743.36v276.3H691V586.41H461.49V535.59H691V353.77H560.74c-16.67,47.64-36.52,89.72-58.75,123.86-10.32-7.15-31.76-20.65-45.26-27,46.85-65.9,79.4-168.32,97.66-272.34l50,9.53c-7.14,39.7-15.88,78.61-27.79,115.13H691v-154h52.4V303H926.77v50.82H743.36V535.59H960.91Z"/><rect class="cls-2" x="1114" y="427" width="65" height="126" rx="12"/><path class="cls-1" d="M1133.7,456.82c1.25,1.6,4.9,6.7,5.7,8.05l-2,2.45c-.7-1.5-2.35-4.4-3.75-6.65V487h-3.15V462.57c-1.5,5.05-3.5,9.9-5.55,12.85a14.83,14.83,0,0,0-1.75-3.1c2.9-4,5.8-11.5,7.2-18h-6.2v-3.15h6.3v-9.65h3.15v9.65h5.45v3.15h-5.45Zm19.1.7a19.47,19.47,0,0,0,.45,2.65c-10.15,2.7-11.6,3.15-12.5,3.75a12.13,12.13,0,0,0-1.1-3.2c.7-.2,1.55-.5,1.55-2.2v-16.7h3.25v6.5h8.35v2.9h-8.35v8.3Zm2.35,5.5-2,3.75h12.65V487h-3.4v-1.75h-17v2h-3.3V466.77h7.9c.55-1.5,1.2-3.25,1.55-4.6Zm7.3,6.5h-17v5.05h17Zm0,13v-5.3h-17v5.3Zm2.25-22.4c1.25,0,1.5-.75,1.65-5.25a9.16,9.16,0,0,0,2.85,1.25c-.3,5.45-1.2,6.95-4.15,6.95h-5.85c-3.65,0-4.55-.95-4.55-4.45V441.87h3.25v6.5h10.2v2.9h-10.2v7.35c0,1.3.25,1.5,1.65,1.5Z"/><path class="cls-1" d="M1168.55,516.87v2.5H1124.4v-2.5h20.25v-3.2H1127.8v-2.3h16.85v-3H1129.2v-2.25h15.45v-3.2H1124.5v-2.5h20.15v-3.05H1129.8V495h14.85v-3.55h3.25V495h14.45v5.4h6.15v2.5h-6.15v5.45H1147.9v3h17.3v2.3h-17.3v3.2Zm-37.75,5h31.75v15.25h-3.25v-1.6H1134v1.7h-3.2Zm3.2,2.4v3.2h25.3v-3.2Zm25.3,8.85v-3.4H1134v3.4Zm-11.4-32.7h11.15v-3.05H1147.9Zm0,5.7h11.15v-3.2H1147.9Z"/><path d="M379,1747.49H364.22v35.15h-4v-38.87H379Z"/><path d="M412.28,1744.55c-.06,2.1-.12,5.1-.42,8.64.9,7,4.56,32.51,25.74,42a12.63,12.63,0,0,0-2.88,3.36c-15.42-7.26-21.72-22.74-24.6-34-2.64,12.23-8.94,26.33-24.06,34.19a13.77,13.77,0,0,0-3.12-3.06c25-12.48,24.78-42.11,25-51.11Z"/><path d="M441,1795.84h14.82v-35.15h4v38.87H441Z"/><path d="M493.16,1757.62a67.64,67.64,0,0,1-7.2,12.25v28.85h-4v-24a41.57,41.57,0,0,1-7.26,6.41,17,17,0,0,0-2-3.48c7-5,12.3-12.23,16.14-20H474v-3.83h16.44a65.25,65.25,0,0,0,3.3-9.42l4.08,1c-.9,2.82-1.86,5.64-3,8.4H526.1v3.83Zm32.94,36.24v3.72H490v-3.72h16v-17.52H492.32v-3.72H506v-11.81h4v11.81h13.8v3.72H510v17.52Z"/><path d="M553.52,1759.12c-3.48,13.74-9,27.06-18.84,36.12a31.63,31.63,0,0,0-2.64-3.12c9-8.1,14.22-20.33,17.46-33H534.32v-3.89h16.14c.78-3.66,1.44-7.32,2-10.86l4,.54c-.54,3.36-1.2,6.84-2,10.32h31.08v3.89Zm33.18,34.2v3.84H543.92v-3.84h19.74v-18.54H550v-3.84h33.84v3.84H567.74v18.54Z"/><path d="M594,1797.7c4.68-2,7.26-4.92,7.56-9.18a7.35,7.35,0,0,1-1.14.12c-2.34,0-4.26-1.38-4.26-4.08a4,4,0,0,1,4.32-4.14c3.18,0,4.86,2.64,4.86,6.66,0,6.48-4,11.28-10.08,13.44Z"/><path d="M649,1747.49H634.22v35.15h-4v-38.87H649Z"/><path d="M706.76,1777.84H682.7v21.06h-4.14v-21.06h-25.2v-3.9h25.2v-14.63h-15a54.61,54.61,0,0,1-6.3,10,24.8,24.8,0,0,0-3.66-2.23c4.68-5,8.52-13,10.8-21.11l4,.84a68.18,68.18,0,0,1-3,8.52h13.2v-11h4.14v11h20.76v4H682.7v14.63h24.06Z"/><path d="M711,1795.84h14.82v-35.15h4v38.87H711Z"/><path d="M763.16,1757.62a67.64,67.64,0,0,1-7.2,12.25v28.85h-4v-24a41.57,41.57,0,0,1-7.26,6.41,17,17,0,0,0-2-3.48c7-5,12.3-12.23,16.14-20H744v-3.83h16.44a65.25,65.25,0,0,0,3.3-9.42l4.08,1c-.9,2.82-1.86,5.64-3,8.4H796.1v3.83Zm32.94,36.24v3.72H760v-3.72h16v-17.52H762.32v-3.72H776v-11.81h4v11.81h13.8v3.72H780v17.52Z"/><path d="M824.78,1759.54a74.71,74.71,0,0,1-5.76,11.94h32.7v27.3h-4.14v-3.12H820.22v3.42h-4v-23.4a50.91,50.91,0,0,1-11.46,11.52,21.84,21.84,0,0,0-2.64-3.18c8.64-5.94,14.46-14.76,18.36-24.48H804.08v-3.89H821.9a86,86,0,0,0,3.12-11.34l4.14.84c-.84,3.48-1.8,7-3,10.5h30v3.89Zm-4.56,15.78v16.5h27.36v-16.5Z"/><path d="M881.36,1788.88a9,9,0,1,1-9.06-9A9,9,0,0,1,881.36,1788.88Zm-2.82,0a6.21,6.21,0,1,0-6.24,6.24A6.22,6.22,0,0,0,878.54,1788.88Z"/><path d="M274,1819.49H259.22v35.15h-4v-38.87H274Z"/><path d="M331.76,1849.84H307.7v21.06h-4.14v-21.06h-25.2v-3.9h25.2v-14.63h-15a54.61,54.61,0,0,1-6.3,10,24.8,24.8,0,0,0-3.66-2.23c4.68-5,8.52-13,10.8-21.11l4,.84a68.18,68.18,0,0,1-3,8.52h13.2v-11h4.14v11h20.76v4H307.7v14.63h24.06Z"/><path d="M336,1867.84h14.82v-35.15h4v38.87H336Z"/><path d="M397.46,1865.62a70.7,70.7,0,0,0,7.38.36c2.1.06,14.76,0,17.58-.06a16.36,16.36,0,0,0-1.44,3.84H404.72c-12.3,0-19.92-1.92-24.72-10.38a31.55,31.55,0,0,1-9.48,11.7,19.84,19.84,0,0,0-3.06-2.82c6.3-4.14,10.2-10.92,11.82-19.86l4,.6a55.92,55.92,0,0,1-1.5,6.06c2.34,5.64,6.3,8.52,11.7,9.84v-18.54H368.72v-3.6H421.4v3.6H397.46v7.08h20v3.6h-20Zm17.22-27.17h-39.6v-19.56h39.6Zm-4-16.44H379v5.16h31.68Zm0,8.1H379v5.27h31.68Z"/><path d="M477.08,1841.14a109.3,109.3,0,0,1-12.72,9.84,39.62,39.62,0,0,0,18.24,15.54,14.21,14.21,0,0,0-2.88,3.36c-13.74-6.3-22-18.9-26.64-35.51a43.43,43.43,0,0,1-8.52,10.67V1865l14.16-4.08a28.69,28.69,0,0,0,.42,3.54c-16,5-18.06,5.76-19.38,6.66a15.92,15.92,0,0,0-1.8-3.66,4,4,0,0,0,2.64-3.78v-15.42a55.19,55.19,0,0,1-10.38,5.7,20.82,20.82,0,0,0-2.94-3.24c12.18-4.43,20-11.81,24.72-23H434.9V1836H431v-12h22.44a68.05,68.05,0,0,0,2.1-7.68l4,.72a68.39,68.39,0,0,1-2,7h21.72v12h-4.08v-8.33h-18.9l-.72,1.62a72.46,72.46,0,0,0,7,18.65,86.64,86.64,0,0,0,11.34-9.41Z"/><path d="M541.28,1863.88v4H488.9v-4h16.92v-46.79h4v46.79h10.44v-46.73h4v46.73Zm-42.72-11.76a156.4,156.4,0,0,0-8.28-20.75l3.66-1.14a166.76,166.76,0,0,1,8.64,20.45Zm41.4-20a168.48,168.48,0,0,1-10.44,20.51l-3.24-1.8a135.53,135.53,0,0,0,10.08-20.45Z"/><path d="M567.86,1852.48c-1.32-1.74-4.26-5.16-6.6-7.73V1871h-3.9v-24.84a51.07,51.07,0,0,1-8.58,7.14,17,17,0,0,0-1.8-3.78,51.81,51.81,0,0,0,17.64-19.13H548.48v-3.66h18.24l.78-.18,2.16,1.56a51.24,51.24,0,0,1-7.62,12.77c2.34,2.28,7,7.08,8.34,8.4Zm-7.26-26.39a43.33,43.33,0,0,0-5.7-8l3-1.74a37.19,37.19,0,0,1,5.88,7.74Zm41.76,38.63v3.9H568v-3.9h16.08V1839.1h-13.2v-3.89h13.2v-19.08h4v19.08h13v3.89h-13v25.62Z"/><path d="M639.14,1818.05c-.54.78-1.08,1.62-1.74,2.4,5.4,5.76,15.18,12.47,25,16a17.52,17.52,0,0,0-2.82,3.47,75.67,75.67,0,0,1-24.42-16.73A64.51,64.51,0,0,1,621,1835H649.4v3.72H620.78v-3.6a82.62,82.62,0,0,1-10,5.46,19,19,0,0,0-2.88-3.42c11.76-5,22.14-12.59,27.42-20.69Zm-28.62,28.37h49.32v3.84H633.38a113.31,113.31,0,0,1-12.6,14.34l28.26-2.22c-2.34-2.64-4.86-5.34-7.26-7.62l3.36-1.74c5.34,4.74,11,11.28,13.68,15.78l-3.54,2.1a37.32,37.32,0,0,0-3.42-5c-32,2.7-35.22,2.94-37.32,3.72-.24-.84-.9-3-1.38-4.14,1.26-.18,2.58-1.38,4.5-3.18A95.51,95.51,0,0,0,628,1850.26H610.52Z"/><path d="M721.7,1865.74v3.3H668.36v-3.3h24.48v-5.52h-20V1857h20v-4.44H674.72v-18.42h18.12v-3.89H668.72v-3.3h24.12v-4.62c-6.36.42-12.78.72-18.78.84a11.3,11.3,0,0,0-.84-3.18c13.86-.42,30.84-1.5,40.14-3.24l2.22,3.12a186.76,186.76,0,0,1-18.78,2.22v4.86h24.6v3.3H696.8v3.89h18.9v18.42H696.8V1857h21.12v3.24H696.8v5.52Zm-43.08-23.82h14.22v-4.85H678.62Zm14.22,7.68v-4.92H678.62v4.92Zm4-12.53v4.85h14.88v-4.85Zm14.88,7.61H696.8v4.92h14.88Z"/><path d="M770,1852.3a25.18,25.18,0,0,1-8.34,10,171.06,171.06,0,0,1,18.48,5.64l-3.42,3.12a149.92,149.92,0,0,0-19.44-6.24c-6.66,3.3-15.6,5.1-26.88,6.06a12.49,12.49,0,0,0-1.68-3.48c9.36-.6,16.86-1.8,22.86-4-4.8-1.08-9.9-2.16-15.06-3.12a90.64,90.64,0,0,0,6.3-8H728.48v-3.54h16.68a46.62,46.62,0,0,0,3.3-5.58h-16V1828h13.38v-5.34H729.44V1819h51.12v3.6h-17V1828H778v15.23H750.2l2.46.61c-.84,1.55-1.8,3.29-2.88,5h31.74v3.54Zm-33.78-12.47h9.6v-8.52h-9.6Zm11.22,12.47c-1.5,2.1-3,4.14-4.44,5.88,4.68.9,9.3,1.8,13.74,2.88a22.06,22.06,0,0,0,8.94-8.76ZM749.6,1828h10.2v-5.34H749.6Zm10.2,11.88v-8.52H749.6v8.52Zm3.78-8.52v8.52H774v-8.52Z"/><path d="M804,1817c-1,2.94-2.1,6.3-3.18,8.88H811v38.75h-16.8v4.8h-3.66v-43.55h6.66a64.68,64.68,0,0,0,2.58-9.72Zm3.3,12.47H794.18v13.08h13.14Zm0,31.56v-14.88H794.18v14.88Zm33.06-33.17c-1,27.53-1.8,36.71-4.2,39.59a5.6,5.6,0,0,1-4.56,2.28,74.94,74.94,0,0,1-8.82-.12,9.42,9.42,0,0,0-1.32-3.9c3.9.36,7.5.36,8.82.36s1.92-.12,2.52-.9c2-2.1,2.94-11.34,3.72-35.7H820.82a55.33,55.33,0,0,1-5.64,10.68,36.22,36.22,0,0,0-3.36-2.22c4.08-5.34,7.32-13.61,9.18-21.89l3.84.84c-.78,3-1.62,6-2.64,8.88h18.18Zm-12.78,27a106.51,106.51,0,0,0-9.3-13.92l3.06-1.79a102.47,102.47,0,0,1,9.6,13.61Z"/><path d="M862.94,1850.32V1871H859v-19.62c-3.9,1-7.56,2-10.68,2.82l-1.14-4c3.18-.66,7.32-1.68,11.82-2.82v-14.75h-5.46a51.41,51.41,0,0,1-3.18,10.19,28.21,28.21,0,0,0-3.3-1.62c2.46-5,3.9-12.77,4.68-20.21l3.6.48c-.3,2.52-.66,5-1,7.38H859v-12.36h3.9v12.36h6.36v3.78h-6.36v13.79l6.36-1.56.42,3.72Zm39.3,15.24v3.78H868.1v-3.78h15.72v-14.7H871.4v-3.78h12.42v-13.37H875.6a48.86,48.86,0,0,1-4.08,9.35,28.31,28.31,0,0,0-3.3-2c3.36-5.22,5.52-13.31,6.84-21.47l3.78.66c-.6,3.3-1.26,6.6-2.16,9.72h7.14v-13.08h4v13.08H901v3.78h-13.2v13.37h12.06v3.78H887.78v14.7Z"/><path d="M957.26,1822.67v46.49H953v-4.86H917.06v5.16H913v-46.79ZM953,1860.28v-33.59H917.06v33.59Z"/><path d="M969,1869.7c4.68-2,7.26-4.92,7.56-9.18a7.35,7.35,0,0,1-1.14.12c-2.34,0-4.26-1.38-4.26-4.08a4,4,0,0,1,4.32-4.14c3.18,0,4.86,2.64,4.86,6.66,0,6.48-4,11.28-10.08,13.44Z"/><path d="M459.14,1890.05c-.54.78-1.08,1.62-1.74,2.4,5.4,5.76,15.18,12.47,25,16a17.52,17.52,0,0,0-2.82,3.47,75.67,75.67,0,0,1-24.42-16.73A64.51,64.51,0,0,1,441,1907H469.4v3.72H440.78v-3.6a82.62,82.62,0,0,1-10,5.46,19,19,0,0,0-2.88-3.42c11.76-5,22.14-12.59,27.42-20.69Zm-28.62,28.37h49.32v3.84H453.38a113.31,113.31,0,0,1-12.6,14.34l28.26-2.22c-2.34-2.64-4.86-5.34-7.26-7.62l3.36-1.74c5.34,4.74,11,11.28,13.68,15.78l-3.54,2.1a37.32,37.32,0,0,0-3.42-5c-32,2.7-35.22,2.94-37.32,3.72-.24-.84-.9-3-1.38-4.14,1.26-.18,2.58-1.38,4.5-3.18A95.51,95.51,0,0,0,448,1922.26H430.52Z"/><path d="M489.08,1939.48c3.06-2.58,5.64-7,7.08-10.44l3.3,1.5c-1.68,3.6-4.08,8-7.14,10.86Zm51.72-36.9v3.25H489.56v-3.25h14.16a23.89,23.89,0,0,0-2.34-5.45l3.36-.84H492.26V1893h21.9c-.72-1.44-1.56-2.94-2.34-4.2l3.78-.9a39.9,39.9,0,0,1,2.94,5.1h19.2v3.3H525.86l3.24.78c-1,1.92-2,3.84-3,5.51Zm-7,23.7H512.66a47.07,47.07,0,0,1,8.82,6.24L519,1935a48.61,48.61,0,0,0-9.3-6.9l2-1.8H496.58V1909h37.2Zm-3.9-14.45H500.36v4.43h29.52Zm0,7.13H500.36v4.44h29.52Zm-8.22,20.16c2.58,0,3-.72,3.24-6.24a12.08,12.08,0,0,0,3.54,1.38c-.48,6.66-1.74,8.22-6.42,8.22H510.44c-5.82,0-7.38-1-7.38-5v-8H507v8c0,1.38.54,1.68,3.72,1.68ZM505,1896.29a26.19,26.19,0,0,1,2.76,6.18l-.48.11H522a59.18,59.18,0,0,0,3.06-6.29Zm27.66,32.21a46.55,46.55,0,0,1,8,10.2l-3.36,1.74a49,49,0,0,0-7.8-10.56Z"/><path d="M577.28,1888.55c-.06,2.1-.12,5.1-.42,8.64.9,7,4.56,32.51,25.74,42a12.63,12.63,0,0,0-2.88,3.36c-15.42-7.26-21.72-22.74-24.6-34-2.64,12.23-8.94,26.33-24.06,34.19a13.77,13.77,0,0,0-3.12-3.06c25-12.48,24.78-42.11,25-51.11Z"/><path d="M628.88,1890.77a62.18,62.18,0,0,1-17.58,24.48,22.83,22.83,0,0,0-3.36-3c7.14-5.22,13.26-13.5,16.74-22.62Zm24.6,20.22s0,1.43-.06,2c-.9,18.36-1.74,25.14-3.84,27.48a5.82,5.82,0,0,1-4.5,1.92,90.18,90.18,0,0,1-9.48-.18,10,10,0,0,0-1.32-4c4,.36,7.74.42,9.18.42a3.5,3.5,0,0,0,2.58-.72c1.56-1.56,2.4-7.5,3.18-23h-17c-1.62,11.88-5.46,22.74-20.64,28.26a13.45,13.45,0,0,0-2.46-3.36c14.22-4.74,17.58-14.52,18.9-24.9H616.22v-4Zm-8.34-21.48c3.72,8.16,11,17.22,17.22,21.83a18.55,18.55,0,0,0-3.18,3.37c-6.24-5.29-13.5-14.94-17.64-23.76Z"/><path d="M682.28,1915.6c0,8.94-1.2,20.34-12.6,27.36a12.13,12.13,0,0,0-2.34-2.64c10.68-6.06,11.46-16.92,11.46-24.72v-16.85h3.48Zm-8.52,12.18h-3.3v-36.53h19.68v36.41h-3.36v-33.05h-13Zm10.08.72a73.8,73.8,0,0,1,7.92,10.44l-2.82,2.4a66.59,66.59,0,0,0-7.8-10.8Zm38-24.54h-7.14v33.66c0,2.64-.66,3.84-2.28,4.5s-4.5.84-8.7.84a18.7,18.7,0,0,0-1.5-4.08c3.24.12,6.3.12,7.2.06s1.26-.3,1.26-1.32v-27c-4.08,9.47-10.14,18.71-16.38,24.23a14.42,14.42,0,0,0-2.88-3.18c7.14-5.76,14.1-17,17.94-27.66H693.08v-3.77h17.64v-11.82h4v11.82h7.14Z"/><path d="M750,1918.54l-7.74,2.52v22h-3.72v-20.76c-3.6,1.08-7.08,2.22-10.08,3.12l-1.08-3.84c3.06-.84,7-1.92,11.16-3.18v-13.79h-5.7a53.29,53.29,0,0,1-2.76,9.11,25.52,25.52,0,0,0-3.06-1.85c2.28-5,3.54-12.6,4.26-20l3.54.6c-.36,2.82-.78,5.64-1.26,8.34h5v-12.3h3.72v12.3h6.42v3.84h-6.42v12.72l7.26-2.23Zm31.68-20s0,1.56-.06,2.1c-1.44,27.29-2.7,36.59-5.22,39.47a5,5,0,0,1-4,2.22,53,53,0,0,1-6.84-.06,10.36,10.36,0,0,0-1.14-4c2.82.24,5.28.3,6.42.3a2.61,2.61,0,0,0,2.34-1c1.92-2.16,3.3-11.1,4.56-35.33h-3.36c-3.06,15.83-9.72,32-19.68,39.83a11.72,11.72,0,0,0-3.36-2.4c10-7.2,16.44-22.2,19.56-37.43h-5.34c-2.7,10.37-8.28,21.65-14.88,27.41a14.07,14.07,0,0,0-3.18-2.34c6.42-5,11.82-15.3,14.64-25.07h-5.52a48.75,48.75,0,0,1-7,11.52,29.73,29.73,0,0,0-3.06-2.29c5-5.39,8.58-14,10.62-23.15l3.66.72a87.43,87.43,0,0,1-2.76,9.48Z"/><path d="M806.36,1932.88a9,9,0,1,1-9.06-9A9,9,0,0,1,806.36,1932.88Zm-2.82,0a6.21,6.21,0,1,0-6.24,6.24A6.22,6.22,0,0,0,803.54,1932.88Z"/><path d="M446.9,1977.17c4.44,10.31,12.24,20,20.76,24.71a23.11,23.11,0,0,0-3.06,3.36c-9-5.58-16.92-16.32-21.6-28.07h-1v22.43h14.28v4H442V2015H437.9v-11.4H423.68v-4H437.9v-22.43h-1.08c-4.74,11.75-12.66,22.43-21.3,28.25a24.18,24.18,0,0,0-2.88-3.18c8-4.92,15.66-14.76,20.16-25.07H414.14v-4H437.9v-12.72H442v12.72h24v4Z"/><path d="M521.6,1966.07c-4.32,12.12-10.08,22.68-18.6,31.25a65.72,65.72,0,0,0,24.42,14.1,17.56,17.56,0,0,0-2.76,3.54A66.69,66.69,0,0,1,500,2000.2a72.92,72.92,0,0,1-25.38,14.7,14.53,14.53,0,0,0-2.16-3.36,69.86,69.86,0,0,0,24.78-14.1,89.37,89.37,0,0,1-18.18-29.27l3.6-1.08a80.51,80.51,0,0,0,17.52,27.53c8.16-8.21,13.62-18.41,17.4-29.87ZM501,1976a102.25,102.25,0,0,0-5.88-14.45l3.42-1.38a105.48,105.48,0,0,1,6.06,14.28Z"/><path d="M562.46,2009.62a70.7,70.7,0,0,0,7.38.36c2.1.06,14.76,0,17.58-.06a16.36,16.36,0,0,0-1.44,3.84H569.72c-12.3,0-19.92-1.92-24.72-10.38a31.55,31.55,0,0,1-9.48,11.7,19.84,19.84,0,0,0-3.06-2.82c6.3-4.14,10.2-10.92,11.82-19.86l4,.6a55.92,55.92,0,0,1-1.5,6.06c2.34,5.64,6.3,8.52,11.7,9.84v-18.54H533.72v-3.6H586.4v3.6H562.46v7.08h20v3.6h-20Zm17.22-27.17h-39.6v-19.56h39.6Zm-4-16.44H544v5.16h31.68Zm0,8.1H544v5.27h31.68Z"/><path d="M613.88,1962.77a62.18,62.18,0,0,1-17.58,24.48,22.83,22.83,0,0,0-3.36-3c7.14-5.22,13.26-13.5,16.74-22.62Zm24.6,20.22s0,1.43-.06,2c-.9,18.36-1.74,25.14-3.84,27.48a5.82,5.82,0,0,1-4.5,1.92,90.18,90.18,0,0,1-9.48-.18,10,10,0,0,0-1.32-4c4,.36,7.74.42,9.18.42a3.5,3.5,0,0,0,2.58-.72c1.56-1.56,2.4-7.5,3.18-23h-17c-1.62,11.88-5.46,22.74-20.64,28.26a13.45,13.45,0,0,0-2.46-3.36c14.22-4.74,17.58-14.52,18.9-24.9H601.22v-4Zm-8.34-21.48c3.72,8.16,11,17.22,17.22,21.83a18.55,18.55,0,0,0-3.18,3.37c-6.24-5.29-13.5-14.94-17.64-23.76Z"/><path d="M652.7,2000.26l3.48-3.06a113.53,113.53,0,0,1,13.5,13.38L666,2013.7A97.41,97.41,0,0,0,652.7,2000.26Z"/><path d="M703.88,1962.77a62.18,62.18,0,0,1-17.58,24.48,22.83,22.83,0,0,0-3.36-3c7.14-5.22,13.26-13.5,16.74-22.62Zm24.6,20.22s0,1.43-.06,2c-.9,18.36-1.74,25.14-3.84,27.48a5.82,5.82,0,0,1-4.5,1.92,90.18,90.18,0,0,1-9.48-.18,10,10,0,0,0-1.32-4c4,.36,7.74.42,9.18.42a3.5,3.5,0,0,0,2.58-.72c1.56-1.56,2.4-7.5,3.18-23h-17c-1.62,11.88-5.46,22.74-20.64,28.26a13.45,13.45,0,0,0-2.46-3.36c14.22-4.74,17.58-14.52,18.9-24.9H691.22v-4Zm-8.34-21.48c3.72,8.16,11,17.22,17.22,21.83a18.55,18.55,0,0,0-3.18,3.37c-6.24-5.29-13.5-14.94-17.64-23.76Z"/><path d="M770.42,1989.34s-.06,1.26-.06,1.87c-.72,14.51-1.38,19.73-2.82,21.47a4.55,4.55,0,0,1-3.6,1.74,49.35,49.35,0,0,1-6.6-.06,9.43,9.43,0,0,0-1.08-3.78c2.64.24,5,.24,6,.24a2.13,2.13,0,0,0,1.92-.66c1-1.08,1.56-5.52,2.16-17.16h-8.76c-1.26,9.78-4.32,17.46-12.78,22.2a8.27,8.27,0,0,0-2.52-2.88c7.68-4.08,10.44-10.86,11.52-19.32H743.54v-3.66h10.68c.12-1.74.24-3.54.3-5.46h3.84c-.12,1.92-.24,3.72-.36,5.46Zm-1-7H745.88V1963h23.58Zm-3.84-15.72H749.54v12.12h16.08Zm16,33.83H777.8v-32.87h3.84Zm12.84-38.93v48.11c0,2.76-.78,4-2.52,4.68s-4.86.78-10.2.78a16.52,16.52,0,0,0-1.5-4c4.14.12,7.68.06,8.76.06s1.5-.42,1.5-1.5v-48.11Z"/><path d="M821.36,2004.88a9,9,0,1,1-9.06-9A9,9,0,0,1,821.36,2004.88Zm-2.82,0a6.21,6.21,0,1,0-6.24,6.24A6.22,6.22,0,0,0,818.54,2004.88Z"/><path d="M256.94,2048.92v3.84H213.38v.36c0,9.84-1,24.24-7.86,34a14.68,14.68,0,0,0-3.3-2.76c6.42-9.18,7.08-22.08,7.08-31.26v-15.35c14.22-.9,30.9-2.58,40.08-4.86l3.36,3.24c-10.26,2.4-25.68,4-39.36,4.92v7.85Zm-38.22,12.66H252.5V2087h-4.14v-3.12H222.74v3.18h-4Zm4,3.78v14.82h25.62v-14.82Z"/><path d="M305.84,2082.1c5.64,0,6.54-2,7.26-10.8a17.09,17.09,0,0,0,3.78,1.62c-.9,9.66-2.52,12.84-11.1,12.84H284.36c-8.58,0-11.16-1.8-11.16-9.06v-19.25l-10,3.05L262.1,2057l11.1-3.35v-17.22H277v16l13-4v-16H294v14.82l14.34-4.44.42-.36.84-.54,2.82,1.2-.24.84c-.18,11.15-.66,18.53-1.92,22-1.14,3.06-2.88,4.14-4.86,4.44a44.18,44.18,0,0,1-7,.18,11.86,11.86,0,0,0-1-3.72c2.16.18,5,.18,6.12.18,1.38,0,2.4-.42,3.24-2.81,1-2.77,1.38-8.64,1.5-17.52L294,2051v23.33h-3.9v-22.13l-13,4.07v20.52c0,4.2,1.26,5.28,7.14,5.28Z"/><path d="M372.92,2081.32c0,2.76-.78,4-2.64,4.68s-5.46.72-11.1.66a12.92,12.92,0,0,0-1.38-3.84c4.32.18,8.4.12,9.6.06s1.56-.42,1.56-1.56v-12.78H352.22v17.94h-4v-17.94H332.78c-.9,6.72-2.88,13.56-7.56,18.78a11.58,11.58,0,0,0-3-2.64c6.6-7.44,7.26-18,7.26-26.46v-21.59h43.44Zm-24.66-16.56v-10.5H333.38v4c0,2.11-.06,4.26-.24,6.54Zm-14.88-24.35v10.13h14.88v-10.13Zm35.58,0H352.22v10.13H369Zm0,24.35v-10.5H352.22v10.5Z"/><path d="M401.36,2033.75a105.89,105.89,0,0,1-6.18,12.9v40.25h-4v-34.07a58.5,58.5,0,0,1-6.36,7.67,22.37,22.37,0,0,0-2.34-3.9c6-5.81,11.64-14.81,15.06-24Zm17.22,12.48v9H436.1v3.72H418.58v9.48h18.3v3.78h-18.3V2087h-4v-40.73h-4.44a65.13,65.13,0,0,1-8.64,12.65,28.89,28.89,0,0,0-3.12-2.7c5.46-5.57,10.32-14.27,13.26-23l3.84,1c-1,2.82-2.22,5.58-3.42,8.28h25.38v3.84Z"/><path d="M497.06,2082.34v3.12H443v-3.12h25v-3.72h-20.1v-2.88H468v-3.54h-18.3v-14.87h41.22v14.87H471.8v3.54h20.52v2.88H471.8v3.72Zm-.36-27.89H443.36v-3.07H496.7Zm-7.56-5.7H450.8v-14.46h38.34ZM453.5,2063.5H468V2060H453.5Zm14.52,6.12V2066H453.5v3.66Zm17.22-32.87h-30.6v3.48h30.6Zm0,5.94h-30.6v3.54h30.6ZM487,2060H471.8v3.54H487Zm0,6H471.8v3.66H487Z"/><path d="M522.38,2072.44c.3,1,.9,2.52,1.2,3.3-9.9,7.2-11.4,8.4-12.24,9.54a13,13,0,0,0-2.28-2.76c1.08-.9,3.18-3,3.18-5.94V2055H503v-3.84h13v25.73Zm-6.54-26.4a71.66,71.66,0,0,0-9.06-9.17l2.58-2.52a69,69,0,0,1,9.18,8.94Zm39.3,35.64c0,2.64-.6,3.9-2.4,4.56s-4.92.78-9.84.78a14.53,14.53,0,0,0-1.38-4c3.84.12,7.38.06,8.4.06s1.38-.36,1.38-1.44v-42.47H522.14v-3.72h33Zm-8.46-32.76h-23v-3.47h23Zm-16.92,25.26v4.14h-3.6v-23.1h17.52v19Zm0-15.47v12H540v-12Z"/><path d="M564,2085.7c4.68-2,7.26-4.92,7.56-9.18a7.35,7.35,0,0,1-1.14.12c-2.34,0-4.26-1.38-4.26-4.08a4,4,0,0,1,4.32-4.14c3.18,0,4.86,2.64,4.86,6.66,0,6.48-4,11.28-10.08,13.44Z"/><path d="M644.12,2064a100.84,100.84,0,0,1-11.7,8.58,36.22,36.22,0,0,0,15.3,8.76,24.16,24.16,0,0,0-2.64,3.48c-12.3-4.08-20.82-13.2-25.38-25.61h-.18a53.79,53.79,0,0,1-9.6,8V2081l14.88-4.5a18.38,18.38,0,0,0,.6,3.42c-16.62,5.4-18.66,6.12-20,7a14.6,14.6,0,0,0-1.74-3.66,3.9,3.9,0,0,0,2.16-3.78v-9.72a71.36,71.36,0,0,1-10.68,5.1,19.48,19.48,0,0,0-2.64-3.24,62.5,62.5,0,0,0,21.9-12.41H594.2v-3.54h23.7v-5.64H599.54v-3.36H617.9v-5.4H596.54v-3.48H617.9v-5.52h4v5.52h22v3.48h-22v5.4h19.32v3.36H621.92v5.64H645.8v3.54H623.54a38.86,38.86,0,0,0,6.6,11,80.68,80.68,0,0,0,10.74-8.46Z"/><path d="M668.6,2062.48a55.25,55.25,0,0,1-12.66,19.08,26.09,26.09,0,0,0-3.54-2.4,46.53,46.53,0,0,0,12.12-17.7Zm37.62-11.1v4H682.16v26.34c0,2.7-.72,3.84-2.64,4.56s-5.52.72-10.8.72a16.61,16.61,0,0,0-1.44-4.2c4.2.12,8,.18,9.12.12s1.5-.36,1.5-1.32v-26.22H653.72v-4ZM701,2040.89H659.06v-4H701Zm-6.3,20.75c4.44,5.58,9.18,13.14,11,18.18l-4,1.74c-1.62-5-6.24-12.72-10.68-18.48Z"/><path d="M767,2069.92h-6.18v10.62h-4v-2.7H741.86v4.44c0,2.7-.78,3.66-2.52,4.26s-5,.66-10,.66a13,13,0,0,0-1.44-3.42c3.78.12,7.38.06,8.4,0s1.5-.36,1.5-1.5v-4.44H718.22v-3.12h19.62v-4.8H713.12v-3.24h24.72v-4.5H718.76v-3.06h19.08v-4.44H720.5v-10.31h17.34v-3.72H714.2v-3.36h23.64v-4.92h4v4.92h24.06v3.36H741.86v3.72h18.06v10.31H741.86v4.44h19v7.56H767Zm-29.16-18.12v-4.55h-13.5v4.55Zm4-4.55v4.55h14v-4.55Zm0,19.43H756.8v-4.5H741.86Zm14.94,3.24H741.86v4.8H756.8Z"/><path d="M795,2062.54l-7.74,2.52v22h-3.72v-20.76c-3.6,1.08-7.08,2.22-10.08,3.12l-1.08-3.84c3.06-.84,7-1.92,11.16-3.18v-13.79h-5.7a53.29,53.29,0,0,1-2.76,9.11,25.52,25.52,0,0,0-3.06-1.85c2.28-5,3.54-12.6,4.26-20l3.54.6c-.36,2.82-.78,5.64-1.26,8.34h5v-12.3h3.72v12.3h6.42v3.84h-6.42v12.72l7.26-2.23Zm31.68-20s0,1.56-.06,2.1c-1.44,27.29-2.7,36.59-5.22,39.47a5,5,0,0,1-4,2.22,53,53,0,0,1-6.84-.06,10.36,10.36,0,0,0-1.14-4c2.82.24,5.28.3,6.42.3a2.61,2.61,0,0,0,2.34-1c1.92-2.16,3.3-11.1,4.56-35.33h-3.36c-3.06,15.83-9.72,32-19.68,39.83a11.72,11.72,0,0,0-3.36-2.4c10-7.2,16.44-22.2,19.56-37.43h-5.34c-2.7,10.37-8.28,21.65-14.88,27.41a14.07,14.07,0,0,0-3.18-2.34c6.42-5,11.82-15.3,14.64-25.07h-5.52a48.75,48.75,0,0,1-7,11.52,29.73,29.73,0,0,0-3.06-2.29c5-5.39,8.58-14,10.62-23.15l3.66.72a87.43,87.43,0,0,1-2.76,9.48Z"/><path d="M849,2033c-1,2.94-2.1,6.3-3.18,8.88H856v38.75h-16.8v4.8h-3.66v-43.55h6.66a64.68,64.68,0,0,0,2.58-9.72Zm3.3,12.47H839.18v13.08h13.14Zm0,31.56v-14.88H839.18v14.88Zm33.06-33.17c-1,27.53-1.8,36.71-4.2,39.59a5.6,5.6,0,0,1-4.56,2.28,74.94,74.94,0,0,1-8.82-.12,9.42,9.42,0,0,0-1.32-3.9c3.9.36,7.5.36,8.82.36s1.92-.12,2.52-.9c2-2.1,2.94-11.34,3.72-35.7H865.82a55.33,55.33,0,0,1-5.64,10.68,36.22,36.22,0,0,0-3.36-2.22c4.08-5.34,7.32-13.61,9.18-21.89l3.84.84c-.78,3-1.62,6-2.64,8.88h18.18Zm-12.78,27a106.51,106.51,0,0,0-9.3-13.92l3.06-1.79a102.47,102.47,0,0,1,9.6,13.61Z"/><path d="M910.22,2033.69a103.09,103.09,0,0,1-6,13.08v40.13h-3.78v-34a70.58,70.58,0,0,1-5.88,7.55,26.3,26.3,0,0,0-2.28-3.9c5.64-5.81,11-14.87,14.16-24Zm36.6,32.45H930.38V2087h-4v-20.88H909.08v-3.84h17.34v-13.73h-9.84a43.74,43.74,0,0,1-4.44,9.35,31.86,31.86,0,0,0-3.42-2c3.54-5,6-12.71,7.38-20.57l3.78.72a65.79,65.79,0,0,1-2.1,8.7h8.64v-11.64h4v11.64h13.86v3.84H930.38v13.73h16.44Z"/><path d="M965.78,2050.54a38.32,38.32,0,0,1-10.86,9.25,12.35,12.35,0,0,0-2.22-3.07,31.09,31.09,0,0,0,11.82-9.83H953.24v-3.36h12.54v-11.22h3.72v11.22h12.42v3.36H970.16c2.94,1.73,8.52,5.4,10,6.48L978,2056.3c-1.56-1.43-5.52-4.5-8.46-6.59v8.58h-3.72Zm9.24,32a43.73,43.73,0,0,0-5.34-3.42,39.09,39.09,0,0,1-14.94,7.32,10.93,10.93,0,0,0-1.92-3.06,36.25,36.25,0,0,0,13.62-6,89.47,89.47,0,0,0-9.3-4.2,69.79,69.79,0,0,0,3.9-6.54H954.5v-3.41h8.22a34,34,0,0,0,1.62-3.91l3.54.66a30,30,0,0,1-1.38,3.25h10.2l.66-.13,2.22.9a31.48,31.48,0,0,1-7.26,12.72c2,1.08,3.84,2.22,5.22,3.12ZM959.48,2043a31.41,31.41,0,0,0-3.84-7.86l2.88-1.2a25.64,25.64,0,0,1,4,7.74Zm5.34,23.63a45.27,45.27,0,0,1-2.82,5.1c2.4,1,4.92,2.16,7.2,3.3a23.21,23.21,0,0,0,5.82-8.4Zm15.36-31.55a83.24,83.24,0,0,1-5.34,7.8l-2.58-1.26a53.24,53.24,0,0,0,4.56-8Zm22.32,12.66c-1.38,9.06-3.42,16.55-6.6,22.73,3.06,5.7,7.08,10.2,12.12,12.9a12,12,0,0,0-2.64,3.12,32.46,32.46,0,0,1-11.58-12.36,38.4,38.4,0,0,1-14.4,13,15.63,15.63,0,0,0-2.28-3.18,33.32,33.32,0,0,0,14.7-13.56,77.55,77.55,0,0,1-5.46-16.68,39.4,39.4,0,0,1-4.26,8.28,25,25,0,0,0-3-2.4c4.56-6.3,7.26-16.25,8.82-26.63l3.6.54a95.59,95.59,0,0,1-2.1,10.5h17.16v3.72Zm-13.92,0a83.94,83.94,0,0,0,5.34,18.65,72.18,72.18,0,0,0,4.8-18.65Z"/><path d="M1031.36,2076.88a9,9,0,1,1-9.06-9A9,9,0,0,1,1031.36,2076.88Zm-2.82,0a6.21,6.21,0,1,0-6.24,6.24A6.22,6.22,0,0,0,1028.54,2076.88Z"/><line class="cls-3" x1="621" y1="351" x2="621" y2="351"/><rect class="cls-2" x="1115" y="1202" width="65" height="220" rx="12"/><path class="cls-1" d="M1159.05,1240.79a27.61,27.61,0,0,0,11.5,8.1,11.65,11.65,0,0,0-2.15,2.55,30.77,30.77,0,0,1-12.8-10.65h-15.95a34.39,34.39,0,0,1-13,11.3,11.43,11.43,0,0,0-2.15-2.55,30.39,30.39,0,0,0,11.6-8.75H1125v-2.85h10v-16.15h-7.7V1219h7.7v-5h3.3v5h18.55v-5h3.35v5h7.65v2.8h-7.65v16.15h9.8v2.85Zm-10,14.5h17.3v2.85H1128.8v-2.85h16.9v-5.6h-10.45v-2.8h10.45v-4.4h3.35v4.4h10.65v2.8h-10.65Zm-10.8-33.5v3.6h18.55v-3.6Zm0,9.8h18.55v-3.65h-18.55Zm0,6.35h18.55v-3.8h-18.55Z"/><path class="cls-1" d="M1143.25,1282.54s0,1.15,0,1.55c-.6,15.85-1.2,21.2-2.6,23a3.71,3.71,0,0,1-2.8,1.45,32.65,32.65,0,0,1-4.45,0,9.25,9.25,0,0,0-.85-3c1.75.15,3.2.15,3.9.15a1.42,1.42,0,0,0,1.45-.65c1-1.2,1.6-6,2.15-19.35h-6.8c-.55,10-2,18.25-6.45,23.65a9.53,9.53,0,0,0-2.55-2.35c5.45-6.45,5.9-17.85,6.1-31.55h-5.2v-3.1h20.1v3.1h-11.65c0,2.45-.1,4.85-.2,7.15Zm-7.9-10.45a33.47,33.47,0,0,0-4.25-7.15l2.9-1.15a31.92,31.92,0,0,1,4.4,7Zm23.85-7.45a15.26,15.26,0,0,1-.85,2.55c2.65,5.45,7.7,11.35,12.45,14a13,13,0,0,0-2.45,2.75c-4.25-2.7-8.5-8-11.4-13.3a32.61,32.61,0,0,1-11,13.6,12.79,12.79,0,0,0-2.35-2.65c5.85-3.6,10.35-10.2,12.5-17.85Zm-8.3,32.45a74,74,0,0,1,13.6,8.25l-2.25,2.9c-2.85-2.6-8.75-6.3-13.4-8.65Zm9.5-4.85a66.22,66.22,0,0,0-8.6-6.85l2.15-2.2a67.46,67.46,0,0,1,8.75,6.55Z"/><path class="cls-1" d="M1136.5,1327c-1.6,7.2-4.55,16.15-9.1,21.7a19.23,19.23,0,0,0-3.1-1.8c4.55-5.25,7.3-13.85,8.55-20.55Zm12.9-12.3v40c0,2.55-.7,3.6-2.35,4.2s-4.8.6-9.4.6a15.62,15.62,0,0,0-1.4-3.45c3.7.1,7.3.1,8.25.05s1.45-.35,1.45-1.4v-40ZM1161,1326c4.45,7,8.7,16.1,10,22l-3.45,1.45c-1.25-5.85-5.25-15.15-9.6-22.3Z"/><path class="cls-1" d="M1165.65,1391.74a72.75,72.75,0,0,1-7.65,3.65,19.75,19.75,0,0,0,12.1,9.55,10.66,10.66,0,0,0-2.1,2.6,22.77,22.77,0,0,1-12.5-11.1c-1.1.45-2.15.85-3.2,1.2,1.5,4.4.7,8.7-1.6,10.35a6,6,0,0,1-4.25,1.3c-1,0-2.25,0-3.55-.1a5.77,5.77,0,0,0-.9-2.85,30,30,0,0,0,4,.2,4.12,4.12,0,0,0,2.7-.65c1.35-1,1.9-3.75,1-6.9-5.55,3.7-14.45,7-22,8.45a11,11,0,0,0-1.45-2.4c8-1.1,17.65-4.65,22.65-8.35a13.35,13.35,0,0,0-1.25-2.15,69.47,69.47,0,0,1-17.55,6.35,7.59,7.59,0,0,0-1.4-2.15c5.8-1,13.4-3.4,17.7-5.85-.6-.55-1.25-1.15-2-1.7a80,80,0,0,1-15.25,4.15,16.41,16.41,0,0,0-1.55-2.2c5.7-.75,12.15-2.15,16.75-4.15h-18.55v-2.55h28c.3-.9.55-1.8.9-2.75h-21.7c1.25-2.8,3-7,4-10.25l3,.5a42,42,0,0,0-3.4-3.25l2-1.15h-6.25a29.23,29.23,0,0,1-5.1,5.6,25.27,25.27,0,0,0-2.35-2.2,26.89,26.89,0,0,0,7.5-9.35l3,.85c-.45.9-1,1.75-1.4,2.65h13.45v2.45h-8.3a44.9,44.9,0,0,1,4,3.65l-2.45,1.6a4.8,4.8,0,0,0-.7-.75c-.2.65-.45,1.25-.65,2h17.75l.6-.2,2.25.5c-.8,3.15-1.9,7-3,10.15h12V1389h-20.25c-.6.35-1.2.7-1.85,1a16.36,16.36,0,0,1,4.4,5.35,90.1,90.1,0,0,0,11.6-5.5Zm-10.2-10.3c.35-1.15.65-2.2,1-3.2h-17.7c-.45,1.15-.9,2.2-1.3,3.2Zm14.75-14.3v2.45h-16.6a28.84,28.84,0,0,1-4.55,5.15,15.06,15.06,0,0,0-2.55-2,21.57,21.57,0,0,0,6.7-9.1l3.1.8a26.43,26.43,0,0,1-1.25,2.7Zm-7.9,8a32.47,32.47,0,0,0-3.9-4.25l2.3-1.25a30.14,30.14,0,0,1,4,4Z"/><path d="M340.11,1050.09a201.14,201.14,0,0,1,22.46,24.58l-4-5.16c14.73,19.11,26.33,40.41,35.72,62.59l-2.57-6.09c14.2,33.79,23,69.45,29.42,105.47q2.91,16.43,5.12,33l-.91-6.78c5.77,43.11,8.28,86.59,8.86,130.07.59,43.72-.76,87.44-2.76,131.1-1.12,24.38-2.44,48.74-3.75,73.11-.34,6.31,3.08,13.64,7.47,18s11.68,7.75,18,7.47c6.59-.3,13.43-2.47,18-7.47a27.73,27.73,0,0,0,7.47-18c2.14-39.83,4.32-79.65,5.57-119.52,1.27-40.19,1.61-80.43,0-120.61a1015.32,1015.32,0,0,0-12.38-124.65c-6.09-37-14.53-73.79-28.5-108.65-14.09-35.16-32.39-68.65-58.77-96.2-2.73-2.85-5.55-5.6-8.46-8.28a26.74,26.74,0,0,0-18-7.47c-6.25,0-13.72,2.78-18,7.47-4.46,4.86-7.77,11.24-7.47,18,.3,6.61,2.47,13.43,7.47,18Z"/><line class="cls-4" x1="357.24" y1="1032.47" x2="279.86" y2="1348.73"/><line class="cls-4" x1="542.82" y1="1366.74" x2="918.24" y2="1366.74"/><path d="M567.91,1012.05a150,150,0,0,0-12.33,14,193.46,193.46,0,0,0-13.86,19.67,149.64,149.64,0,0,0-8,15.57,219.81,219.81,0,0,0-8.56,21.85c-4.13,12.87-6.35,26.08-8,39.47a198.31,198.31,0,0,0-1.44,34.1,144.25,144.25,0,0,0,3.14,24.14,78.88,78.88,0,0,0,2.46,8.65,117.23,117.23,0,0,0,6,14.1A88.72,88.72,0,0,0,541,1222.9c4.95,5.43,10.8,9.95,16.7,14.29,10.8,8,23.29,13.49,35.81,18.12a183.32,183.32,0,0,0,35.88,9.11,353,353,0,0,0,48.69,4.17c14.22.23,28.44-.23,42.64-.84l10.46-.46a26.23,26.23,0,0,0,25.5-25.5l-.91-6.78a25.45,25.45,0,0,0-6.56-11.25l-5.16-4a25.32,25.32,0,0,0-12.87-3.48c-23.49,1.06-47,2.12-70.55.64-6.59-.42-13.16-1-19.7-1.91l6.78.91A184.57,184.57,0,0,1,601,1203.75l6.09,2.57A114.28,114.28,0,0,1,581.93,1192l5.17,4a74.48,74.48,0,0,1-13.42-13.19l4,5.16a65.06,65.06,0,0,1-8.31-14.33l2.57,6.09a80.89,80.89,0,0,1-5.29-20.13l.91,6.78c-2-15-1.2-30.57.78-45.55l-.91,6.78a173.45,173.45,0,0,1,11.78-44.2l-2.57,6.09a147.78,147.78,0,0,1,19-32.61l-4,5.16a151.46,151.46,0,0,1,12.33-14,26.19,26.19,0,0,0,0-36.06l-5.16-4a25.27,25.27,0,0,0-12.87-3.48l-6.78.91a25.45,25.45,0,0,0-11.25,6.56Z"/><path d="M858,1047.87a148.55,148.55,0,0,1,12.33,14l-4-5.16a147.16,147.16,0,0,1,19,32.61l-2.57-6.09a173.45,173.45,0,0,1,11.78,44.2l-.91-6.78c2,15,2.78,30.53.78,45.55l.91-6.78a80.44,80.44,0,0,1-5.28,20.13l2.57-6.09a65.46,65.46,0,0,1-8.31,14.33l4-5.16a74.42,74.42,0,0,1-13.41,13.19l5.16-4a114,114,0,0,1-25.14,14.28l6.09-2.57a184.79,184.79,0,0,1-46.69,12.18l6.77-.91c-23.29,3.1-46.85,3-70.29,2.11-6.65-.24-13.3-.54-19.95-.84a26.18,26.18,0,0,0-25.5,25.5l.91,6.78a25.36,25.36,0,0,0,6.56,11.25l5.16,4a25.46,25.46,0,0,0,12.87,3.48c28.45,1.28,57.09,2.59,85.46-.68,14.82-1.7,29.54-4,43.81-8.45a214.35,214.35,0,0,0,22.39-8.6,121.5,121.5,0,0,0,15.27-8q3.53-2.17,6.84-4.64c3.78-2.81,7.59-5.68,11.1-8.83A95.93,95.93,0,0,0,930.16,1211c4.68-6.71,8-14.48,10.68-22.18s3.74-15.78,4.74-23.88c1.4-11.38,1.1-23,.14-34.41a228.59,228.59,0,0,0-6.57-39.84,164.43,164.43,0,0,0-5.29-16.33,210.33,210.33,0,0,0-9.52-21.58,171.87,171.87,0,0,0-24-34.29c-2-2.3-4.15-4.53-6.32-6.7a19.1,19.1,0,0,0-8.2-5.28,26.21,26.21,0,0,0-27.86,5.28l-4,5.16a25.46,25.46,0,0,0-3.48,12.87l.91,6.78a25.45,25.45,0,0,0,6.56,11.25Z"/><line class="cls-4" x1="730.53" y1="1598.68" x2="730.53" y2="1086.55"/></svg>