<svg id="Layer_1" data-name="Layer 1" xmlns="http://www.w3.org/2000/svg" viewBox="0 0 1242 2208"><defs><style>.cls-1{fill:#f6eabe;}.cls-2{fill:#999;}.cls-3,.cls-4{fill:none;}.cls-4{stroke:#000;stroke-linecap:round;stroke-miterlimit:10;stroke-width:50px;}</style></defs><rect class="cls-1" width="1242" height="2208"/><path d="M498.81,170.83a1114.53,1114.53,0,0,1-87.34,170.7v529.6H359.86V417a798,798,0,0,1-98.45,111.16c-6.35-12.7-23-39.7-33.35-52.4C317,399.5,398,280.4,447.2,154.15ZM762.42,403.47C814,532.09,899.78,661.51,982.35,729c-11.91,8.74-31,27.79-39.7,42.08C863.25,698,783.06,570.2,729.07,439.2V872.71H677.46V455.87c-54,129.42-132.6,248.52-213.58,318.39-9.53-11.91-27.79-31-39.7-40.49,86.54-67.49,172.29-198.5,223.11-330.3H450.38V352.65H677.46V159.71h51.61V352.65H962.5v50.82Z"/><rect class="cls-2" x="1114" y="437" width="65" height="126" rx="12"/><path class="cls-1" d="M1133.7,466.82c1.25,1.6,4.9,6.7,5.7,8.05l-2,2.45c-.7-1.5-2.35-4.4-3.75-6.65V497h-3.15V472.57c-1.5,5.05-3.5,9.9-5.55,12.85a14.83,14.83,0,0,0-1.75-3.1c2.9-4,5.8-11.5,7.2-18h-6.2v-3.15h6.3v-9.65h3.15v9.65h5.45v3.15h-5.45Zm19.1.7a19.47,19.47,0,0,0,.45,2.65c-10.15,2.7-11.6,3.15-12.5,3.75a12.13,12.13,0,0,0-1.1-3.2c.7-.2,1.55-.5,1.55-2.2v-16.7h3.25v6.5h8.35v2.9h-8.35v8.3Zm2.35,5.5-2,3.75h12.65V497h-3.4v-1.75h-17v2h-3.3V476.77h7.9c.55-1.5,1.2-3.25,1.55-4.6Zm7.3,6.5h-17v5.05h17Zm0,13v-5.3h-17v5.3Zm2.25-22.4c1.25,0,1.5-.75,1.65-5.25a9.16,9.16,0,0,0,2.85,1.25c-.3,5.45-1.2,6.95-4.15,6.95h-5.85c-3.65,0-4.55-.95-4.55-4.45V451.87h3.25v6.5h10.2v2.9h-10.2v7.35c0,1.3.25,1.5,1.65,1.5Z"/><path class="cls-1" d="M1168.55,526.87v2.5H1124.4v-2.5h20.25v-3.2H1127.8v-2.3h16.85v-3H1129.2v-2.25h15.45v-3.2H1124.5v-2.5h20.15v-3.05H1129.8V505h14.85v-3.55h3.25V505h14.45v5.4h6.15v2.5h-6.15v5.45H1147.9v3h17.3v2.3h-17.3v3.2Zm-37.75,5h31.75v15.25h-3.25v-1.6H1134v1.7h-3.2Zm3.2,2.4v3.2h25.3v-3.2Zm25.3,8.85v-3.4H1134v3.4Zm-11.4-32.7h11.15v-3.05H1147.9Zm0,5.7h11.15v-3.2H1147.9Z"/><path d="M414.92,1899.69a98.85,98.85,0,0,1-6.18,13.56v39.59H404.9v-33.35a61.73,61.73,0,0,1-5.46,7,32.86,32.86,0,0,0-2.28-3.9c5.58-5.87,10.8-14.87,14-24Zm34.2,29.21c-2,1.38-4.44,2.7-6.84,4,2,5.82,5.82,11.16,10.62,13.62a15.86,15.86,0,0,0-2.64,3.06c-4.92-3-8.76-8.76-10.86-15.3-1,.54-2.1,1-3.12,1.5,2.1,6.3,1.26,12.72-1.38,15.24a6.51,6.51,0,0,1-5,1.92c-1,0-2.4-.06-3.72-.12a9.47,9.47,0,0,0-1-3.48,34.56,34.56,0,0,0,4,.24,3.38,3.38,0,0,0,3-1.14c1.44-1.32,2.1-4.86,1.44-8.94a58.72,58.72,0,0,1-19.5,11.4,11.72,11.72,0,0,0-2.34-2.82c7.44-2.22,16.26-7,21.12-11.82a24.37,24.37,0,0,0-1.62-3.66,57.71,57.71,0,0,1-16.74,9.66,16.14,16.14,0,0,0-2.22-2.64c5.82-1.74,13.38-5.58,17.52-9.3a16.53,16.53,0,0,0-2.82-3,39.59,39.59,0,0,1-12.3,6.17,14.66,14.66,0,0,0-2.28-2.58c6.54-2.1,10.86-4.62,13.68-7.26h-9.54v-9.35c-1.08,1-2.22,1.92-3.42,2.88a9.81,9.81,0,0,0-2.64-2.53,45.41,45.41,0,0,0,13.92-16.25l3.84.72a35.7,35.7,0,0,1-2,3.54h11.1l.78-.18,2.34,1.68a52.13,52.13,0,0,1-4.8,6.84h13v12.65H430.7a15.52,15.52,0,0,1-1.38,1.63,22.17,22.17,0,0,1,6,7.85,120.47,120.47,0,0,0,11.1-6.66Zm-25-23.09a54.58,54.58,0,0,1-4.2,5.16h11.58a33.35,33.35,0,0,0,3.72-5.16Zm-4,14.69h8.64a15.14,15.14,0,0,0,2.46-6.42h-11.1Zm24.72-6.42H434.6a18.56,18.56,0,0,1-1.8,6.42h12.06Z"/><path d="M484,1901.49H469.22v35.15h-4v-38.87H484Z"/><path d="M517.28,1898.55c-.06,2.1-.12,5.1-.42,8.64.9,7,4.56,32.51,25.74,42a12.63,12.63,0,0,0-2.88,3.36c-15.42-7.26-21.72-22.74-24.6-34-2.64,12.23-8.94,26.33-24.06,34.19a13.77,13.77,0,0,0-3.12-3.06c25-12.48,24.78-42.11,25-51.11Z"/><path d="M546,1949.84h14.82v-35.15h4v38.87H546Z"/><path d="M595.1,1915.77c-5.76,1.14-11.52,2.22-16,3.06l-.66-3.49c4.32-.65,10.44-1.67,16.68-2.69V1907H579.92v-3.3H595.1v-5.34h4v22h-4Zm28.26,32.69c0,2.28-.6,3.36-2.34,4s-4.86.66-9.6.66a16.27,16.27,0,0,0-1.32-3.6c3.54.12,7,.12,7.92.12s1.26-.36,1.26-1.2v-5.76H591.2V1953h-4v-30.65h36.12Zm-32.16-23v5.4h28.08v-5.4Zm28.08,14.1v-5.64H591.2v5.64Zm5.82-23.33c2.1,0,2.52-.72,2.7-5.17a14.46,14.46,0,0,0,3.6,1.39c-.42,5.7-1.68,7.25-5.94,7.25H615.08c-5.46,0-6.9-1.14-6.9-5.39v-16h4v7.74a81.77,81.77,0,0,0,13.86-5l2.88,2.88a94.54,94.54,0,0,1-16.74,5.34v5c0,1.55.48,1.92,3.24,1.92Z"/><path d="M656.84,1926.75h3.9V1953h-3.9v-6H638.06v-2.82h18.78v-4H641v-2.82h15.84v-4H639.56v-2.88h17.28Zm33.9-14.58H639.2v-3h5.4a10.8,10.8,0,0,0-2.22-1.32,24,24,0,0,0,6.78-9.12l3.72.54c-.48,1.08-1,2.1-1.5,3.12H663v-4.08h4.08v4.08h19.32v2.82H667.1v4h23.64Zm-45.18,13.62v-10.38H685.4v10.38Zm4.08-20.58a34,34,0,0,1-3.3,4H663v-4ZM649.4,1923h32v-4.79h-32Zm42.84,24.24H673.4v5.7h-4v-26h4v3.48h17.1v2.94H673.4v4h15.84v2.82H673.4v4.14h18.84Z"/><path d="M724,1901.49H709.22v35.15h-4v-38.87H724Z"/><path d="M758.84,1917.15c5.52,10.31,15.06,20.75,24.06,25.79a16.83,16.83,0,0,0-3.06,3.42c-8.34-5.22-16.92-14.94-22.8-25.07V1953H752.9v-31.68c-5.76,10.38-14.28,20-22.92,25.14a22.2,22.2,0,0,0-2.94-3.3c9.24-5,18.54-15.47,24-26H729.26v-4H752.9v-14.76H757v14.76h23.88v4Z"/><path d="M786,1949.84h14.82v-35.15h4v38.87H786Z"/><path d="M819,1951.7c4.68-2,7.26-4.92,7.56-9.18a7.35,7.35,0,0,1-1.14.12c-2.34,0-4.26-1.38-4.26-4.08a4,4,0,0,1,4.32-4.14c3.18,0,4.86,2.64,4.86,6.66,0,6.48-4,11.28-10.08,13.44Z"/><path d="M369.14,1972.05c-.54.78-1.08,1.62-1.74,2.4,5.4,5.76,15.18,12.47,25,16a17.52,17.52,0,0,0-2.82,3.47,75.67,75.67,0,0,1-24.42-16.73A64.51,64.51,0,0,1,351,1989H379.4v3.72H350.78v-3.6a82.62,82.62,0,0,1-10,5.46,19,19,0,0,0-2.88-3.42c11.76-5,22.14-12.59,27.42-20.69Zm-28.62,28.37h49.32v3.84H363.38a113.31,113.31,0,0,1-12.6,14.34l28.26-2.22c-2.34-2.64-4.86-5.34-7.26-7.62l3.36-1.74c5.34,4.74,11,11.28,13.68,15.78l-3.54,2.1a37.32,37.32,0,0,0-3.42-5c-32,2.7-35.22,2.94-37.32,3.72-.24-.84-.9-3-1.38-4.14,1.26-.18,2.58-1.38,4.5-3.18A95.51,95.51,0,0,0,358,2004.26H340.52Z"/><path d="M399.08,2021.48c3.06-2.58,5.64-7,7.08-10.44l3.3,1.5c-1.68,3.6-4.08,8-7.14,10.86Zm51.72-36.9v3.25H399.56v-3.25h14.16a23.89,23.89,0,0,0-2.34-5.45l3.36-.84H402.26V1975h21.9c-.72-1.44-1.56-2.94-2.34-4.2l3.78-.9a39.9,39.9,0,0,1,2.94,5.1h19.2v3.3H435.86l3.24.78c-1,1.92-2,3.84-3,5.51Zm-7,23.7H422.66a47.07,47.07,0,0,1,8.82,6.24L429,2017a48.61,48.61,0,0,0-9.3-6.9l2-1.8H406.58V1991h37.2Zm-3.9-14.45H410.36v4.43h29.52Zm0,7.13H410.36v4.44h29.52Zm-8.22,20.16c2.58,0,3-.72,3.24-6.24a12.08,12.08,0,0,0,3.54,1.38c-.48,6.66-1.74,8.22-6.42,8.22H420.44c-5.82,0-7.38-1-7.38-5v-8H417v8c0,1.38.54,1.68,3.72,1.68ZM415,1978.29a26.19,26.19,0,0,1,2.76,6.18l-.48.11H432a59.18,59.18,0,0,0,3.06-6.29Zm27.66,32.21a46.55,46.55,0,0,1,8,10.2l-3.36,1.74a49,49,0,0,0-7.8-10.56Z"/><path d="M487.28,1970.55c-.06,2.1-.12,5.1-.42,8.64.9,7,4.56,32.51,25.74,42a12.63,12.63,0,0,0-2.88,3.36c-15.42-7.26-21.72-22.74-24.6-34-2.64,12.23-8.94,26.33-24.06,34.19a13.77,13.77,0,0,0-3.12-3.06c25-12.48,24.78-42.11,25-51.11Z"/><path d="M538.16,1983.62a67.64,67.64,0,0,1-7.2,12.25v28.85h-4v-24a41.57,41.57,0,0,1-7.26,6.41,17,17,0,0,0-2-3.48c7-5,12.3-12.23,16.14-20H519v-3.83h16.44a65.25,65.25,0,0,0,3.3-9.42l4.08,1c-.9,2.82-1.86,5.64-3,8.4H571.1v3.83Zm32.94,36.24v3.72H535v-3.72h16v-17.52H537.32v-3.72H551v-11.81h4v11.81h13.8v3.72H555v17.52Z"/><path d="M593.42,2004.56c-.78-2.16-2.88-6.42-4.56-9.77v30.11h-3.6v-26.52c-1.56,5.94-3.66,11.58-5.88,15.24a18.75,18.75,0,0,0-2.1-3.36c3.3-5.22,6.36-15.12,7.74-23.45h-6.48v-3.66h6.72v-12.84h3.6v12.84h5.46v3.66h-5.46v2.57c1.5,2.41,5.94,10.2,6.84,12Zm17.46-26.39a121.58,121.58,0,0,1-4,23c2.22,4,4.2,7.55,5.4,10.31l-2.88,2.4c-.9-2.22-2.34-5-3.9-8-2.34,6.9-5.28,12.42-8.76,16.26a13.1,13.1,0,0,0-2.7-2.76c3.6-3.78,6.72-10.08,9.12-17.82-2.46-4.38-5-8.81-7.44-12.65l2.58-1.87c2,3.07,4.08,6.49,6.12,9.84a118.73,118.73,0,0,0,2.64-15.71H596.66v-3.48h11.28l.66-.18Zm21.36,9.12h-4.86v32.27c0,2.52-.66,3.66-2.22,4.32s-4.2.78-8.82.78a14.24,14.24,0,0,0-1.32-3.78c3.54.12,6.48.12,7.38.06s1.32-.36,1.32-1.32v-32.33H611.78v-3.6h11.94v-13.14h3.66v13.14h4.86Zm-12.78,19.91a71.75,71.75,0,0,0-6.18-12.66l2.88-1.2a60.71,60.71,0,0,1,6.36,12.36Z"/><path d="M691.52,1975.05v3.48H676.88v4.14h-4v-4.14H656.84v4.14h-4v-4.14H638.54v-3.48h14.34v-4.62h4v4.62h16.08v-4.62h4v4.62Zm-30.78,10.68c-2.46,4-5.52,8.45-8.22,12.23,6,3.9,7.8,7.38,7.86,10.62,0,2.76-1,4.8-2.88,5.88a9.4,9.4,0,0,1-3.48,1,23.49,23.49,0,0,1-5,.06,7.26,7.26,0,0,0-1.14-3.3,33.24,33.24,0,0,0,4.74.12,5.89,5.89,0,0,0,2.4-.6c1.2-.54,1.74-1.8,1.74-3.42-.12-2.82-2.1-6.06-8.34-9.78,2.58-3.65,5.1-7.73,7-11.15H644.9V2025h-3.78v-40.79H657.5l.6-.19Zm28,34c0,2.52-.66,3.6-2.46,4.26s-5.22.66-10.56.66a17.73,17.73,0,0,0-1.38-3.6c4.14.18,8,.18,9.12.06s1.38-.36,1.38-1.38v-9.24H668.42c-1,5.46-3.42,10.86-8.82,14.88a10.3,10.3,0,0,0-2.88-2.7c7.62-5.64,8.46-13.56,8.46-20.28v-17.93h23.58Zm-3.9-12.72v-8H669.08v3.36c0,1.44-.06,3.06-.18,4.62Zm-15.78-19v7.5h15.78V1988Z"/><path d="M726,1978.71v10.86l.66-.78c7.32,3.54,16.74,8.93,21.54,12.53l-2.76,3.6c-4.2-3.42-12.48-8.46-19.44-12.12v32.1h-4.2v-46.19H698.54v-4h53v4Z"/><path d="M776.9,1972a84.25,84.25,0,0,1-6.6,12.9v40h-3.9v-34.32A60.31,60.31,0,0,1,759,1999a29.67,29.67,0,0,0-2.52-4c6.72-5.76,12.84-14.75,16.56-24.29Zm19.92,17.58c3.9,9.72,10.38,19.49,16.62,24.59a13.84,13.84,0,0,0-3,3.18c-6-5.52-12.06-15.17-16.14-25.08V2025h-3.9v-31.49c-4.08,9.77-10,18.77-16.14,24a24.1,24.1,0,0,0-3-3.06c6.54-5.1,13-15,16.86-25H773.24v-3.84H790.4v-14.58h3.9v14.58h17.64v3.84Z"/><path d="M818.06,2020.46a58.72,58.72,0,0,0,6.18-12.06l3.42,1.44c-1.62,3.72-3.78,9-6,12.36Zm45-16.26H826.88V1976h14c.84-1.92,1.86-4.44,2.4-6.18l4.5.84c-1,1.86-1.92,3.78-2.82,5.34h18.12Zm-4-25H830.72v5.16H859.1Zm0,8.27H830.72v5.16H859.1Zm0,8.29H830.72V2001H859.1Zm-5.88,24.47c3.3,0,3.78-.9,4.08-7.08a10.68,10.68,0,0,0,3.72,1.56c-.54,7.44-1.86,9.18-7.5,9.18H839.36c-6.6,0-8.4-1.08-8.4-5.58v-10h4v10c0,1.56.72,1.92,4.56,1.92Zm-10-16a48.15,48.15,0,0,1,8.34,9.18l-3.24,2a47,47,0,0,0-8.16-9.42Zm21.18,3.18c2.82,3.6,5.82,8.52,6.9,11.76l-3.66,1.68a50.39,50.39,0,0,0-6.78-11.94Z"/><path d="M896.36,2014.88a9,9,0,1,1-9.06-9A9,9,0,0,1,896.36,2014.88Zm-2.82,0a6.21,6.21,0,1,0-6.24,6.24A6.22,6.22,0,0,0,893.54,2014.88Z"/><line class="cls-3" x1="621" y1="351" x2="621" y2="351"/><path d="M319.46,1063.53q7.57,8,14.32,16.67l-4-5.16c16.42,21.25,29.22,45,39.7,69.72l-2.58-6.09c17.21,40.85,27.83,84,35.43,127.53q3.46,19.82,6.12,39.74l-.91-6.78c7.26,54.23,10.54,108.92,11.5,163.6,1,55.12-.41,110.25-2.58,165.32-1.21,30.81-2.68,61.62-4.13,92.42-.63,13.34,12.18,26.1,25.5,25.5,14.35-.64,24.83-11.21,25.5-25.5,2.23-47.41,4.5-94.83,5.83-142.28,1.35-48.07,1.75-96.19.15-144.25a1397.34,1397.34,0,0,0-12.45-147.2c-6.29-45-15-89.85-29.78-132.85-14.4-41.86-33.83-81.94-62.31-116.08q-4.45-5.34-9.26-10.37c-9.21-9.69-26.9-10-36.06,0-9.54,10.39-9.82,25.72,0,36.06Z"/><line class="cls-4" x1="336.53" y1="1045.99" x2="254.86" y2="1427.28"/><line class="cls-4" x1="721.66" y1="1044.99" x2="721.66" y2="1719.99"/><line class="cls-4" x1="721.66" y1="1499.42" x2="546.95" y2="1662.81"/><line class="cls-4" x1="721.66" y1="1499.42" x2="896.37" y2="1662.81"/><line class="cls-4" x1="721.66" y1="1252.29" x2="956.66" y2="1137.92"/><line class="cls-4" x1="721.66" y1="1252.29" x2="486.66" y2="1137.92"/><rect class="cls-2" x="1114" y="1247" width="65" height="271" rx="12"/><path class="cls-1" d="M1159.05,1286.79a27.61,27.61,0,0,0,11.5,8.1,11.65,11.65,0,0,0-2.15,2.55,30.77,30.77,0,0,1-12.8-10.65h-15.95a34.39,34.39,0,0,1-13,11.3,11.43,11.43,0,0,0-2.15-2.55,30.39,30.39,0,0,0,11.6-8.75H1125v-2.85h10v-16.15h-7.7V1265h7.7v-5h3.3v5h18.55v-5h3.35v5h7.65v2.8h-7.65v16.15h9.8v2.85Zm-10,14.5h17.3v2.85H1128.8v-2.85h16.9v-5.6h-10.45v-2.8h10.45v-4.4h3.35v4.4h10.65v2.8h-10.65Zm-10.8-33.5v3.6h18.55v-3.6Zm0,9.8h18.55v-3.65h-18.55Zm0,6.35h18.55v-3.8h-18.55Z"/><path class="cls-1" d="M1143.25,1328.54s0,1.15,0,1.55c-.6,15.85-1.2,21.2-2.6,23a3.71,3.71,0,0,1-2.8,1.45,32.65,32.65,0,0,1-4.45,0,9.25,9.25,0,0,0-.85-3c1.75.15,3.2.15,3.9.15a1.42,1.42,0,0,0,1.45-.65c1-1.2,1.6-6,2.15-19.35h-6.8c-.55,10-2,18.25-6.45,23.65a9.53,9.53,0,0,0-2.55-2.35c5.45-6.45,5.9-17.85,6.1-31.55h-5.2v-3.1h20.1v3.1h-11.65c0,2.45-.1,4.85-.2,7.15Zm-7.9-10.45a33.47,33.47,0,0,0-4.25-7.15l2.9-1.15a31.92,31.92,0,0,1,4.4,7Zm23.85-7.45a15.26,15.26,0,0,1-.85,2.55c2.65,5.45,7.7,11.35,12.45,14a13,13,0,0,0-2.45,2.75c-4.25-2.7-8.5-8-11.4-13.3a32.61,32.61,0,0,1-11,13.6,12.79,12.79,0,0,0-2.35-2.65c5.85-3.6,10.35-10.2,12.5-17.85Zm-8.3,32.45a74,74,0,0,1,13.6,8.25l-2.25,2.9c-2.85-2.6-8.75-6.3-13.4-8.65Zm9.5-4.85a66.22,66.22,0,0,0-8.6-6.85l2.15-2.2a67.46,67.46,0,0,1,8.75,6.55Z"/><path class="cls-1" d="M1166,1363.19v29.3h-3.5v-2.55h-13.3v15.6h-3.45v-15.6h-13.4v2.75H1129v-29.5Zm-33.65,3.2V1375h13.4v-8.65Zm13.4,20.35v-8.5h-13.4v8.5Zm16.75-20.35h-13.3V1375h13.3Zm0,20.35v-8.5h-13.3v8.5Z"/><path class="cls-1" d="M1168.25,1425.09v9.3h-3.15V1428h-35.4v6.4h-3v-9.3h6.95v-12.95h27.7v12.95Zm-6.45,26.6c0,1.85-.45,2.7-1.85,3.2s-3.9.5-7.7.45a8.57,8.57,0,0,0-1.1-2.75c3,.05,5.65.05,6.4.05s1-.25,1-1v-6.2c-7.3,1.45-14.85,3-20.45,4l-1.1-3c5.4-.8,13.6-2.3,21.55-3.75V1434h-22.2v5.3c0,4.85-.65,11.55-4.35,16.2a13.29,13.29,0,0,0-2.7-2c3.45-4.25,3.85-10,3.85-14.25v-8h28.6Zm-25-26.6h7.45v-6.9H1158v-3.35h-21.2Zm2.45,11.7a75.14,75.14,0,0,1,17.7,3l-.9,2.6c-4-1.5-11.7-2.9-17.7-3.35Zm18.75-16.3h-10.75v4.6H1158Z"/><path class="cls-1" d="M1162,1472.09a51.83,51.83,0,0,1-12,19.6,49.94,49.94,0,0,0,20.5,10.5,16.79,16.79,0,0,0-2.25,3,50.92,50.92,0,0,1-20.75-11.1c-5.65,5-12.55,8.6-21,11.3a15.53,15.53,0,0,0-2-3.05c8.35-2.45,15.1-5.9,20.6-10.6a57.05,57.05,0,0,1-12.2-19.65h-7.75v-3.25h44.75v3.25Zm-25.75,0a52.13,52.13,0,0,0,11.3,17.3,47.46,47.46,0,0,0,10.7-17.3Zm11.25-3.55a38.13,38.13,0,0,0-3.8-7.8l3.4-1a39,39,0,0,1,4,7.65Z"/></svg>