<svg id="Layer_1" data-name="Layer 1" xmlns="http://www.w3.org/2000/svg" viewBox="0 0 1242 2208"><defs><style>.cls-1{fill:#f6eabe;}.cls-2{fill:#999;}.cls-3{fill:none;stroke:#000;stroke-linecap:round;stroke-miterlimit:10;stroke-width:50px;}</style></defs><rect class="cls-1" width="1242" height="2208"/><path d="M898.1,778.2c28.59,0,32.56-24.62,36.53-131,13.49,10.32,35.73,20.64,51.61,24.61-6.36,119.89-20.65,159.59-84.17,159.59H787.74c-65.9,0-85-20.64-85-93.69V251H509.84V387.55c0,153.24-21.44,331.1-216,458.13-7.94-12.7-24.62-32.55-38.12-41.28C437.59,686.09,455.85,524.12,455.85,386.76V251H281.17v-52.4H961.62V251H759.16V738.5c0,33.34,5.55,39.7,34.93,39.7Z"/><path d="M325.92,1777.69a98.85,98.85,0,0,1-6.18,13.56v39.59H315.9v-33.35a61.73,61.73,0,0,1-5.46,7,32.86,32.86,0,0,0-2.28-3.9c5.58-5.87,10.8-14.87,14-24Zm34.2,29.21c-2,1.38-4.44,2.7-6.84,4,2,5.82,5.82,11.16,10.62,13.62a15.86,15.86,0,0,0-2.64,3.06c-4.92-3-8.76-8.76-10.86-15.3-1,.54-2.1,1-3.12,1.5,2.1,6.3,1.26,12.72-1.38,15.24a6.51,6.51,0,0,1-5,1.92c-1,0-2.4-.06-3.72-.12a9.47,9.47,0,0,0-1-3.48,34.56,34.56,0,0,0,4,.24,3.38,3.38,0,0,0,3-1.14c1.44-1.32,2.1-4.86,1.44-8.94a58.72,58.72,0,0,1-19.5,11.4,11.72,11.72,0,0,0-2.34-2.82c7.44-2.22,16.26-7,21.12-11.82a24.37,24.37,0,0,0-1.62-3.66,57.71,57.71,0,0,1-16.74,9.66,16.14,16.14,0,0,0-2.22-2.64c5.82-1.74,13.38-5.58,17.52-9.3a16.53,16.53,0,0,0-2.82-3,39.59,39.59,0,0,1-12.3,6.17,14.66,14.66,0,0,0-2.28-2.58c6.54-2.1,10.86-4.62,13.68-7.26h-9.54v-9.35c-1.08,1-2.22,1.92-3.42,2.88a9.81,9.81,0,0,0-2.64-2.53,45.41,45.41,0,0,0,13.92-16.25l3.84.72a35.7,35.7,0,0,1-2,3.54h11.1l.78-.18,2.34,1.68a52.13,52.13,0,0,1-4.8,6.84h13v12.65H341.7a15.52,15.52,0,0,1-1.38,1.63,22.17,22.17,0,0,1,6,7.85,120.47,120.47,0,0,0,11.1-6.66Zm-25-23.09a54.58,54.58,0,0,1-4.2,5.16h11.58a33.35,33.35,0,0,0,3.72-5.16Zm-4,14.69h8.64a15.14,15.14,0,0,0,2.46-6.42h-11.1Zm24.72-6.42H345.6a18.56,18.56,0,0,1-1.8,6.42h12.06Z"/><path d="M389.16,1789.62a67.64,67.64,0,0,1-7.2,12.25v28.85h-4v-24a41.57,41.57,0,0,1-7.26,6.41,17,17,0,0,0-2-3.48c7-5,12.3-12.23,16.14-20H370v-3.83h16.44a65.25,65.25,0,0,0,3.3-9.42l4.08,1c-.9,2.82-1.86,5.64-3,8.4H422.1v3.83Zm32.94,36.24v3.72H386v-3.72h16v-17.52H388.32v-3.72H402v-11.81h4v11.81h13.8v3.72H406v17.52Z"/><path d="M458.28,1776.55c-.06,2.1-.12,5.1-.42,8.64.9,7,4.56,32.51,25.74,42a12.63,12.63,0,0,0-2.88,3.36c-15.42-7.26-21.72-22.74-24.6-34-2.64,12.23-8.94,26.33-24.06,34.19a13.77,13.77,0,0,0-3.12-3.06c25-12.48,24.78-42.11,25-51.11Z"/><path d="M505,1777c-1,2.94-2.1,6.3-3.18,8.88H512v38.75h-16.8v4.8h-3.66v-43.55h6.66a64.68,64.68,0,0,0,2.58-9.72Zm3.3,12.47H495.18v13.08h13.14Zm0,31.56v-14.88H495.18v14.88Zm33.06-33.17c-1,27.53-1.8,36.71-4.2,39.59a5.6,5.6,0,0,1-4.56,2.28,74.94,74.94,0,0,1-8.82-.12,9.42,9.42,0,0,0-1.32-3.9c3.9.36,7.5.36,8.82.36s1.92-.12,2.52-.9c2-2.1,2.94-11.34,3.72-35.7H521.82a55.33,55.33,0,0,1-5.64,10.68,36.22,36.22,0,0,0-3.36-2.22c4.08-5.34,7.32-13.61,9.18-21.89l3.84.84c-.78,3-1.62,6-2.64,8.88h18.18Zm-12.78,27a106.51,106.51,0,0,0-9.3-13.92l3.06-1.79a102.47,102.47,0,0,1,9.6,13.61Z"/><path d="M602.52,1803.79v3.77h-23c-3.18,11-10.5,19-27.42,23.22a13.59,13.59,0,0,0-2.34-3.36c15.48-3.72,22.44-10.44,25.56-19.86H549.66v-3.77H576.3c1.62-7.45,1.56-16.38,1.62-26.76H582c-.06,10.14-.06,19.08-1.62,26.76ZM566,1800.42c-2.82-2.39-8.64-5.63-13.44-7.55l2.46-2.76c4.68,1.74,10.56,4.8,13.56,7.26Zm5.46-11c-2.88-2.4-8.76-5.46-13.56-7.32l2.22-2.88c4.74,1.74,10.68,4.62,13.62,7Zm8.82,23.93c8.4,4,16.92,9.36,22,13.8l-2.7,3c-4.86-4.56-13.14-9.9-21.36-14Z"/><path d="M636.42,1788.55c-1.44,3.6-3.12,7.79-4.62,11h8.7v3.67H609.36v-3.67H627.9a78.11,78.11,0,0,0,4.5-11.93Zm2.7-1.38h-28v-3.66h12.6a52.73,52.73,0,0,0-2.64-6.36l3.6-1a57,57,0,0,1,3.18,7.38h11.22Zm-26.22,21.77h24.72v21.12h-3.9v-2.4h-17v2.88H612.9Zm5.82-9.72a46.73,46.73,0,0,0-3.9-10.55l3.48-.84a38.22,38.22,0,0,1,4,10.38Zm-2,13.32v11.52h17v-11.52Zm45.84-31.31c-2.16,5.46-5,12.3-7.56,17.87,5.46,5.7,6.84,10.32,6.84,14.52,0,3.36-.78,6.24-2.64,7.5a7.78,7.78,0,0,1-3.66,1.2,29.42,29.42,0,0,1-5.16.06,9.55,9.55,0,0,0-1.2-3.78,35.57,35.57,0,0,0,4.92.12,5.55,5.55,0,0,0,2.46-.66c1.2-.78,1.62-2.7,1.56-4.8,0-3.78-1.56-8.16-7-13.73,2.34-5.16,4.74-11.58,6.42-16.26H647.34V1831h-3.6v-51.35h15.42l.6-.18Z"/><path d="M720.36,1794.61v36.17h-4V1828H671.7V1795h4.08v29.15h40.56v-29.57Zm-.24-10.56H672v-3.72h48.12Zm-38.64,33.77v-26.75h28.8v26.75Zm3.42-15.06H694v-8.27H684.9Zm0,11.64H694V1806H684.9Zm21.84-19.91h-9.18v8.27h9.18Zm0,11.51h-9.18v8.4h9.18Z"/><path d="M783.36,1800.91v4.31H728.88v-4.31Z"/><path d="M806.64,1811.22c-.9-2-3.18-5.88-5-8.88v28.5h-3.78v-29c-2.1,6.89-5,13.61-7.86,17.69a25.52,25.52,0,0,0-2.1-3.48c3.78-5.1,7.68-14.75,9.54-23.16h-8.1v-3.65h8.52v-13h3.78v13h7.2v2.4H817v-6.36h-7.2V1782H817v-5.58h3.78V1782h10.08v-5.58h3.78V1782H842v3.36h-7.38v6.36h8.7v3.48h-16v4.56H841v20H810.84v-20h12.84v-4.56H808.14v-2.23H801.6v4.87c1.8,2.16,6.3,8.69,7.26,10.25Zm15.66,12.12a52.66,52.66,0,0,1-13.14,7.62,22.16,22.16,0,0,0-2.64-2.7c4.38-1.62,9.66-4.56,12.18-7Zm-7.92-15.17h9.3v-5.41h-9.3Zm0,8.45h9.3v-5.52h-9.3Zm6.42-24.95h10.08v-6.36H820.8Zm6.6,11.09v5.41h10v-5.41Zm10,8.34h-10v5.52h10Zm-5,10.32A87.48,87.48,0,0,1,844,1828.5l-3,2.52a83.75,83.75,0,0,0-11.52-7.44Z"/><path d="M900.36,1794.61v36.17h-4V1828H851.7V1795h4.08v29.15h40.56v-29.57Zm-.24-10.56H852v-3.72h48.12Zm-38.64,33.77v-26.75h28.8v26.75Zm3.42-15.06H874v-8.27H864.9Zm0,11.64H874V1806H864.9Zm21.84-19.91h-9.18v8.27h9.18Zm0,11.51h-9.18v8.4h9.18Z"/><path d="M910,1829.7c4.68-2,7.26-4.92,7.56-9.18a7.35,7.35,0,0,1-1.14.12c-2.34,0-4.26-1.38-4.26-4.08a4,4,0,0,1,4.32-4.14c3.18,0,4.86,2.64,4.86,6.66,0,6.48-4,11.28-10.08,13.44Z"/><path d="M509.4,1877.88l-8.1,2.52v17.76c0,2.4-.6,3.42-2,4.08s-3.84.78-7.8.72a14,14,0,0,0-1.26-3.66c2.76.06,5.34.06,6.06.06s1.14-.3,1.14-1.14V1881.6l-8,2.46-1.2-3.89c2.52-.67,5.76-1.57,9.24-2.59v-13.25h-8.52v-3.78h8.52v-12.18h3.9v12.18h7.2v3.78h-7.2v12.11c2.46-.77,5-1.5,7.56-2.27Zm25.68-9.84c3.36,0,3.9-1,4.26-7.61a12.2,12.2,0,0,0,3.72,1.56c-.66,7.8-1.92,9.72-7.74,9.72H521c-6.6,0-8.46-1.14-8.46-6.06v-17h4v9.12c7.26-1.56,15.24-3.66,19.74-5.64l3.12,2.94c-6,2.4-15,4.5-22.86,6v4.62c0,2,.72,2.39,4.62,2.39Zm-22.5,8.94h28v25.74h-4v-2.52H516.36V1903h-3.78Zm3.78,3.48v6.36h20.22v-6.36Zm20.22,16.38v-6.72H516.36v6.72Z"/><path d="M564.6,1878.48a55.25,55.25,0,0,1-12.66,19.08,26.09,26.09,0,0,0-3.54-2.4,46.53,46.53,0,0,0,12.12-17.7Zm37.62-11.1v4H578.16v26.34c0,2.7-.72,3.84-2.64,4.56s-5.52.72-10.8.72a16.61,16.61,0,0,0-1.44-4.2c4.2.12,8,.18,9.12.12s1.5-.36,1.5-1.32v-26.22H549.72v-4ZM597,1856.89H555.06v-4H597Zm-6.3,20.75c4.44,5.58,9.18,13.14,11,18.18l-4,1.74c-1.62-5-6.24-12.72-10.68-18.48Z"/><path d="M638.28,1848.55c-.06,2.1-.12,5.1-.42,8.64.9,7,4.56,32.51,25.74,42a12.63,12.63,0,0,0-2.88,3.36c-15.42-7.26-21.72-22.74-24.6-34-2.64,12.23-8.94,26.33-24.06,34.19a13.77,13.77,0,0,0-3.12-3.06c25-12.48,24.78-42.11,25-51.11Z"/><path d="M722.52,1875.79v3.77h-23c-3.18,11-10.5,19-27.42,23.22a13.59,13.59,0,0,0-2.34-3.36c15.48-3.72,22.44-10.44,25.56-19.86H669.66v-3.77H696.3c1.62-7.45,1.56-16.38,1.62-26.76H702c-.06,10.14-.06,19.08-1.62,26.76ZM686,1872.42c-2.82-2.39-8.64-5.63-13.44-7.55l2.46-2.76c4.68,1.74,10.56,4.8,13.56,7.26Zm5.46-11c-2.88-2.4-8.76-5.46-13.56-7.32l2.22-2.88c4.74,1.74,10.68,4.62,13.62,7Zm8.82,23.93c8.4,4,16.92,9.36,22,13.8l-2.7,3c-4.86-4.56-13.14-9.9-21.36-14Z"/><path d="M747.36,1892.88a9,9,0,1,1-9.06-9A9,9,0,0,1,747.36,1892.88Zm-2.82,0a6.21,6.21,0,1,0-6.24,6.24A6.22,6.22,0,0,0,744.54,1892.88Z"/><path d="M492.9,1937.17c4.44,10.31,12.24,20,20.76,24.71a23.11,23.11,0,0,0-3.06,3.36c-9-5.58-16.92-16.32-21.6-28.07h-1v22.43h14.28v4H488V1975H483.9v-11.4H469.68v-4H483.9v-22.43h-1.08c-4.74,11.75-12.66,22.43-21.3,28.25a24.18,24.18,0,0,0-2.88-3.18c8-4.92,15.66-14.76,20.16-25.07H460.14v-4H483.9v-12.72H488v12.72h24v4Z"/><path d="M567.6,1926.07c-4.32,12.12-10.08,22.68-18.6,31.25a65.72,65.72,0,0,0,24.42,14.1,17.56,17.56,0,0,0-2.76,3.54A66.69,66.69,0,0,1,546,1960.2a72.92,72.92,0,0,1-25.38,14.7,14.53,14.53,0,0,0-2.16-3.36,69.86,69.86,0,0,0,24.78-14.1,89.37,89.37,0,0,1-18.18-29.27l3.6-1.08a80.51,80.51,0,0,0,17.52,27.53c8.16-8.21,13.62-18.41,17.4-29.87ZM547,1936a102.25,102.25,0,0,0-5.88-14.45l3.42-1.38a105.48,105.48,0,0,1,6.06,14.28Z"/><path d="M608.46,1969.62a70.7,70.7,0,0,0,7.38.36c2.1.06,14.76,0,17.58-.06a16.36,16.36,0,0,0-1.44,3.84H615.72c-12.3,0-19.92-1.92-24.72-10.38a31.55,31.55,0,0,1-9.48,11.7,19.84,19.84,0,0,0-3.06-2.82c6.3-4.14,10.2-10.92,11.82-19.86l4,.6a55.92,55.92,0,0,1-1.5,6.06c2.34,5.64,6.3,8.52,11.7,9.84v-18.54H579.72v-3.6H632.4v3.6H608.46v7.08h20v3.6h-20Zm17.22-27.17h-39.6v-19.56h39.6Zm-4-16.44H590v5.16h31.68Zm0,8.1H590v5.27h31.68Z"/><path d="M668.28,1920.55c-.06,2.1-.12,5.1-.42,8.64.9,7,4.56,32.51,25.74,42a12.63,12.63,0,0,0-2.88,3.36c-15.42-7.26-21.72-22.74-24.6-34-2.64,12.23-8.94,26.33-24.06,34.19a13.77,13.77,0,0,0-3.12-3.06c25-12.48,24.78-42.11,25-51.11Z"/><path d="M752.52,1947.79v3.77h-23c-3.18,11-10.5,19-27.42,23.22a13.59,13.59,0,0,0-2.34-3.36c15.48-3.72,22.44-10.44,25.56-19.86H699.66v-3.77H726.3c1.62-7.45,1.56-16.38,1.62-26.76H732c-.06,10.14-.06,19.08-1.62,26.76ZM716,1944.42c-2.82-2.39-8.64-5.63-13.44-7.55l2.46-2.76c4.68,1.74,10.56,4.8,13.56,7.26Zm5.46-11c-2.88-2.4-8.76-5.46-13.56-7.32l2.22-2.88c4.74,1.74,10.68,4.62,13.62,7Zm8.82,23.93c8.4,4,16.92,9.36,22,13.8l-2.7,3c-4.86-4.56-13.14-9.9-21.36-14Z"/><path d="M777.36,1964.88a9,9,0,1,1-9.06-9A9,9,0,0,1,777.36,1964.88Zm-2.82,0a6.21,6.21,0,1,0-6.24,6.24A6.22,6.22,0,0,0,774.54,1964.88Z"/><path d="M413.7,2022.06s-.06,1.32-.12,1.86c-1.08,13.56-2.1,18.84-4.08,20.82-1.26,1.32-2.46,1.68-4.56,1.8a90.37,90.37,0,0,1-9.48-.18,8,8,0,0,0-1.44-4c4,.36,8,.36,9.48.36s2-.06,2.58-.6c1.5-1.2,2.4-5.7,3.3-16.32h-22.8c1.14-4.56,2.46-11.63,3.24-17.09H409.5v-10.08h-22v-3.78H413.4v17.58H393.3c-.6,3.3-1.2,6.71-1.86,9.65Zm18.36-29.15V2047h-4v-54.11Z"/><path d="M494.28,2000.23v33.29H490.2v-3.18H472.92v16.5h-4.14v-16.5H452v3.54h-4v-33.65h20.76v-7.92h4.14v7.92Zm-42.3,3.84v9.18h16.8v-9.18Zm16.8,22.49V2017H452v9.6Zm4.14-22.49v9.18H490.2v-9.18Zm17.28,22.49V2017H472.92v9.6Z"/><path d="M554.76,2006.77s-.06,1.56-.06,2.1c-1,24.11-1.86,32.51-4.2,35.27a6,6,0,0,1-4.68,2.22c-2,.12-5.88,0-9.48-.18A10,10,0,0,0,535,2042a91.18,91.18,0,0,0,9.3.42c1.26,0,2-.12,2.58-.9,1.86-1.8,2.82-9.9,3.66-30.83H529.44c-1.38,11.69-6.24,25.07-21.84,35.45a14.36,14.36,0,0,0-3.12-2.88c14.7-9.6,19.44-21.78,20.88-32.57H506.22v-4h19.56c.18-2.65.24-5.16.24-7.44v-6.9h4v7c0,2.28-.06,4.8-.24,7.38Zm-37.2-2.22a49.8,49.8,0,0,0-6.42-9l3.42-1.56a50.25,50.25,0,0,1,6.6,8.82Zm21.9,27.35a69.41,69.41,0,0,0-8.28-11.88l3.18-1.61a65.09,65.09,0,0,1,8.58,11.51Z"/><path d="M617,1998.73v3.48H564.78v-3.48h24.84c-.54-1.8-1.26-4-1.92-5.64l3.78-.9c.84,2.1,1.74,4.62,2.4,6.54Zm-2,43.85c0,2-.48,2.82-2,3.42s-4,.48-7.74.48a13.23,13.23,0,0,0-1.26-3c2.64.12,5.34.06,6,.06s1-.24,1-.9v-18.18H570.9V2047h-3.84V2021H615Zm-6.6-36.77v11.81H574.08v-11.81Zm-4.14,3H578v5.81h26.22Zm-1.08,31.55H581.76v3.06H578v-15.18h25.14Zm-21.42-9.06v6h17.82v-6Z"/><path d="M668.58,2017v19.68l8.4-.36-.24,3.42-8.16.36v6.9h-4v-6.72c-15.18.72-30.06,1.32-40.08,1.68l-.24-3.72,9.24-.3V2017H624.9v-3.54h52.44V2017Zm-22.26-5.58a61.78,61.78,0,0,0-8.76-7.26,32.65,32.65,0,0,1-8.52,8.76,19,19,0,0,0-3.06-2.63,29.35,29.35,0,0,0,12.54-17.7l3.84.72a36.22,36.22,0,0,1-3.12,8,67.88,67.88,0,0,1,9.42,7.25Zm18.24,5.58H637.44v4.68h27.12Zm0,7.62H637.44v4.86h27.12Zm-27.12,13.2,27.12-1v-4.38H637.44Zm27.66-44.57a48.51,48.51,0,0,1-2.46,6.84,42.75,42.75,0,0,0,12.54,9.78,16.49,16.49,0,0,0-2.76,3.05,51.38,51.38,0,0,1-11.52-9.71,32.33,32.33,0,0,1-9,9.66,21.62,21.62,0,0,0-3.12-2.58c6.18-3.78,10.5-10,12.42-17.76Z"/><path d="M683.7,2032.26l3.48-3.06a113.53,113.53,0,0,1,13.5,13.38L697,2045.7A97.41,97.41,0,0,0,683.7,2032.26Z"/><path d="M732.66,1995.07a56.47,56.47,0,0,1-6.6,9c3.18,6.55,3.78,13.44,3.78,20.52,0,8.76-.66,16.86-3.06,20.1a5.35,5.35,0,0,1-3.36,1.86,31.61,31.61,0,0,1-6.84.24,9,9,0,0,0-1.2-3.84,38.59,38.59,0,0,0,6.54,0,2.68,2.68,0,0,0,2-1c1.56-2,2.1-9.48,2.1-17.46,0-.84,0-1.74-.06-2.64a49.22,49.22,0,0,1-9.9,11,11.94,11.94,0,0,0-2.7-3.06c4.44-2.88,9.36-8.58,12.18-13.92a34.39,34.39,0,0,0-2.28-8.76,65.57,65.57,0,0,1-6.9,6.13,14.86,14.86,0,0,0-2.7-2.52,58.23,58.23,0,0,0,7.92-7.08,34.2,34.2,0,0,0-6.9-8.22l2.76-2.16a34.39,34.39,0,0,1,6.66,7.44,44.19,44.19,0,0,0,5.1-7.38Zm31.92,51.65c-.42-1.44-1.08-3.24-1.8-5.16-11,1.32-22.74,2.64-30.72,3.48l-.78-4.08c4.38-.36,10.14-1,16.44-1.62V2026H734.4v-21.71h13.32v-11.76h4v11.76H765V2026H751.68v13l9.54-1c-1.26-2.82-2.58-5.7-3.84-8.22l3.6-1.14a146.26,146.26,0,0,1,7.56,16.68Zm-16.86-24.24v-14.69H738.3v14.69Zm4-14.69v14.69h9.24v-14.69Z"/><path d="M827.52,2040.42v4h-53v-4h29a198.72,198.72,0,0,0,9.12-29.27l4.56.84c-2.64,9-6.18,20.69-9.42,28.43Zm-2.34-32.75H777v-4h48.18Zm-33.9,30c-.9-7-3.54-17.58-5.82-25.55l4-.9a209.86,209.86,0,0,1,6,25.43Zm8.58-34.85a61.85,61.85,0,0,0-2.94-9.66l3.84-1.08a70.16,70.16,0,0,1,3.12,9.54Z"/><path d="M852.36,2036.88a9,9,0,1,1-9.06-9A9,9,0,0,1,852.36,2036.88Zm-2.82,0a6.21,6.21,0,1,0-6.24,6.24A6.22,6.22,0,0,0,849.54,2036.88Z"/><rect class="cls-2" x="1113" y="425" width="65" height="126" rx="12"/><path class="cls-1" d="M1132.7,454.82c1.25,1.6,4.9,6.7,5.7,8.05l-2,2.45c-.7-1.5-2.35-4.4-3.75-6.65V485h-3.15V460.57c-1.5,5.05-3.5,9.9-5.55,12.85a14.83,14.83,0,0,0-1.75-3.1c2.9-4,5.8-11.5,7.2-18h-6.2v-3.15h6.3v-9.65h3.15v9.65h5.45v3.15h-5.45Zm19.1.7a19.47,19.47,0,0,0,.45,2.65c-10.15,2.7-11.6,3.15-12.5,3.75a12.13,12.13,0,0,0-1.1-3.2c.7-.2,1.55-.5,1.55-2.2v-16.7h3.25v6.5h8.35v2.9h-8.35v8.3Zm2.35,5.5-2,3.75h12.65V485h-3.4v-1.75h-17v2h-3.3V464.77h7.9c.55-1.5,1.2-3.25,1.55-4.6Zm7.3,6.5h-17v5.05h17Zm0,13v-5.3h-17v5.3Zm2.25-22.4c1.25,0,1.5-.75,1.65-5.25a9.16,9.16,0,0,0,2.85,1.25c-.3,5.45-1.2,6.95-4.15,6.95h-5.85c-3.65,0-4.55-.95-4.55-4.45V439.87h3.25v6.5h10.2v2.9h-10.2v7.35c0,1.3.25,1.5,1.65,1.5Z"/><path class="cls-1" d="M1167.55,514.87v2.5H1123.4v-2.5h20.25v-3.2H1126.8v-2.3h16.85v-3H1128.2v-2.25h15.45v-3.2H1123.5v-2.5h20.15v-3.05H1128.8V493h14.85v-3.55h3.25V493h14.45v5.4h6.15v2.5h-6.15v5.45H1146.9v3h17.3v2.3h-17.3v3.2Zm-37.75,5h31.75v15.25h-3.25v-1.6H1133v1.7h-3.2Zm3.2,2.4v3.2h25.3v-3.2Zm25.3,8.85v-3.4H1133v3.4Zm-11.4-32.7h11.15v-3.05H1146.9Zm0,5.7h11.15v-3.2H1146.9Z"/><rect class="cls-2" x="1113" y="1191" width="65" height="271" rx="12"/><path class="cls-1" d="M1158.05,1230.79a27.61,27.61,0,0,0,11.5,8.1,11.65,11.65,0,0,0-2.15,2.55,30.77,30.77,0,0,1-12.8-10.65h-15.95a34.39,34.39,0,0,1-13,11.3,11.43,11.43,0,0,0-2.15-2.55,30.39,30.39,0,0,0,11.6-8.75H1124v-2.85h10v-16.15h-7.7V1209h7.7v-5h3.3v5h18.55v-5h3.35v5h7.65v2.8h-7.65v16.15h9.8v2.85Zm-10,14.5h17.3v2.85H1127.8v-2.85h16.9v-5.6h-10.45v-2.8h10.45v-4.4h3.35v4.4h10.65v2.8h-10.65Zm-10.8-33.5v3.6h18.55v-3.6Zm0,9.8h18.55v-3.65h-18.55Zm0,6.35h18.55v-3.8h-18.55Z"/><path class="cls-1" d="M1142.25,1272.54s0,1.15,0,1.55c-.6,15.85-1.2,21.2-2.6,23a3.71,3.71,0,0,1-2.8,1.45,32.65,32.65,0,0,1-4.45,0,9.25,9.25,0,0,0-.85-3c1.75.15,3.2.15,3.9.15a1.42,1.42,0,0,0,1.45-.65c1-1.2,1.6-6,2.15-19.35h-6.8c-.55,10-2,18.25-6.45,23.65a9.53,9.53,0,0,0-2.55-2.35c5.45-6.45,5.9-17.85,6.1-31.55h-5.2v-3.1h20.1v3.1h-11.65c0,2.45-.1,4.85-.2,7.15Zm-7.9-10.45a33.47,33.47,0,0,0-4.25-7.15l2.9-1.15a31.92,31.92,0,0,1,4.4,7Zm23.85-7.45a15.26,15.26,0,0,1-.85,2.55c2.65,5.45,7.7,11.35,12.45,14a13,13,0,0,0-2.45,2.75c-4.25-2.7-8.5-8-11.4-13.3a32.61,32.61,0,0,1-11,13.6,12.79,12.79,0,0,0-2.35-2.65c5.85-3.6,10.35-10.2,12.5-17.85Zm-8.3,32.45a74,74,0,0,1,13.6,8.25l-2.25,2.9c-2.85-2.6-8.75-6.3-13.4-8.65Zm9.5-4.85a66.22,66.22,0,0,0-8.6-6.85l2.15-2.2a67.46,67.46,0,0,1,8.75,6.55Z"/><path class="cls-1" d="M1165,1307.19v29.3h-3.5v-2.55h-13.3v15.6h-3.45v-15.6h-13.4v2.75H1128v-29.5Zm-33.65,3.2V1319h13.4v-8.65Zm13.4,20.35v-8.5h-13.4v8.5Zm16.75-20.35h-13.3V1319h13.3Zm0,20.35v-8.5h-13.3v8.5Z"/><path class="cls-1" d="M1167.25,1369.09v9.3h-3.15V1372h-35.4v6.4h-3v-9.3h6.95v-12.95h27.7v12.95Zm-6.45,26.6c0,1.85-.45,2.7-1.85,3.2s-3.9.5-7.7.45a8.57,8.57,0,0,0-1.1-2.75c3,.05,5.65.05,6.4.05s1-.25,1-1v-6.2c-7.3,1.45-14.85,3-20.45,4l-1.1-3c5.4-.8,13.6-2.3,21.55-3.75V1378h-22.2v5.3c0,4.85-.65,11.55-4.35,16.2a13.29,13.29,0,0,0-2.7-2c3.45-4.25,3.85-10,3.85-14.25v-8h28.6Zm-25-26.6h7.45v-6.9H1157v-3.35h-21.2Zm2.45,11.7a75.14,75.14,0,0,1,17.7,3l-.9,2.6c-4-1.5-11.7-2.9-17.7-3.35Zm18.75-16.3h-10.75v4.6H1157Z"/><path class="cls-1" d="M1161,1416.09a51.83,51.83,0,0,1-12,19.6,49.94,49.94,0,0,0,20.5,10.5,16.79,16.79,0,0,0-2.25,3,50.92,50.92,0,0,1-20.75-11.1c-5.65,5-12.55,8.6-21,11.3a15.53,15.53,0,0,0-2-3.05c8.35-2.45,15.1-5.9,20.6-10.6a57.05,57.05,0,0,1-12.2-19.65h-7.75v-3.25h44.75v3.25Zm-25.75,0a52.13,52.13,0,0,0,11.3,17.3,47.46,47.46,0,0,0,10.7-17.3Zm11.25-3.55a38.13,38.13,0,0,0-3.8-7.8l3.4-1a39,39,0,0,1,4,7.65Z"/><path d="M608,1074.14q2.88,2.08,5.7,4.25l-5.16-4a240.34,240.34,0,0,1,42.27,42.53l-4-5.16a309.45,309.45,0,0,1,39.53,68.53l-2.57-6.1c14,33.11,22.92,68.26,29.34,103.54q2.91,16,5.06,32.18l-.91-6.78c5.3,39.84,7.4,80,7.56,120.19.17,40.44-1.6,80.87-4,121.23-1.34,22.44-2.9,44.87-4.43,67.3-.43,6.25,3.15,13.72,7.47,18s11.68,7.76,18,7.47c6.59-.29,13.43-2.46,18-7.47a28.15,28.15,0,0,0,7.47-18c2.8-40.92,5.65-81.86,7.23-122.85,1.58-41.29,1.88-82.67-.51-123.94-2.48-42.7-7.73-85.47-17.17-127.22-8.63-38.2-21-75.69-39.4-110.35-17.21-32.33-40.22-62.71-68.76-85.86q-7.35-6-15-11.53c-5.06-3.66-13.87-4.16-19.65-2.58s-12.32,6.21-15.24,11.72c-3.12,5.92-4.69,13.09-2.57,19.65l2.57,6.09a25.55,25.55,0,0,0,9.15,9.15Z"/><line class="cls-3" x1="619.69" y1="1052.53" x2="457" y2="1341"/><line class="cls-3" x1="757.33" y1="1038.53" x2="496.67" y2="1038.14"/></svg>