<svg id="Layer_1" data-name="Layer 1" xmlns="http://www.w3.org/2000/svg" viewBox="0 0 1242 2208"><defs><style>.cls-1{fill:#f6eabe;}.cls-2{fill:#999;}.cls-3{fill:none;stroke:#000;stroke-linecap:round;stroke-miterlimit:10;stroke-width:50px;}</style></defs><rect class="cls-1" width="1242" height="2208"/><path d="M891.75,800.81c35.73,0,41.29-21.43,45.26-148.47,12.7,10.32,34.93,18.26,50,23-7.15,138.95-21.44,176.27-92.1,176.27H769.48c-69.08,0-88.93-18.26-88.93-84.16V463.37L555.1,472.9c-13.5,209.61-52.4,332.68-268.37,396.2-6.35-13.5-20.64-34.14-32.55-43.67,201.67-54,235-161.18,246.13-347.77C385.19,488,363,491.16,344.69,498.3a532.67,532.67,0,0,0-18.26-53.2c17.47-4,37.32-23.81,63.52-53.19,27-30.17,117.51-143.71,177.85-254.08l54.79,20.64c-61.93,100.84-135,197.71-204.85,273.14l386.67-27c-34.93-46.05-73-94.48-106.39-135.77l42.87-26.2c63.52,77,148.48,183.41,190.56,244.55L884.61,519c-11.91-19.06-28.59-42.88-46.85-68.29l-104,7.94V767.47c0,28.58,6.35,33.34,41.29,33.34Z"/><path d="M415.92,1854.69a98.85,98.85,0,0,1-6.18,13.56v39.59H405.9v-33.35a61.73,61.73,0,0,1-5.46,7,32.86,32.86,0,0,0-2.28-3.9c5.58-5.87,10.8-14.87,14-24Zm34.2,29.21c-2,1.38-4.44,2.7-6.84,4,2,5.82,5.82,11.16,10.62,13.62a15.86,15.86,0,0,0-2.64,3.06c-4.92-3-8.76-8.76-10.86-15.3-1,.54-2.1,1-3.12,1.5,2.1,6.3,1.26,12.72-1.38,15.24a6.51,6.51,0,0,1-5,1.92c-1,0-2.4-.06-3.72-.12a9.47,9.47,0,0,0-1-3.48,34.56,34.56,0,0,0,4,.24,3.38,3.38,0,0,0,3-1.14c1.44-1.32,2.1-4.86,1.44-8.94a58.72,58.72,0,0,1-19.5,11.4,11.72,11.72,0,0,0-2.34-2.82c7.44-2.22,16.26-7,21.12-11.82a24.37,24.37,0,0,0-1.62-3.66,57.71,57.71,0,0,1-16.74,9.66,16.14,16.14,0,0,0-2.22-2.64c5.82-1.74,13.38-5.58,17.52-9.3a16.53,16.53,0,0,0-2.82-3,39.59,39.59,0,0,1-12.3,6.17,14.66,14.66,0,0,0-2.28-2.58c6.54-2.1,10.86-4.62,13.68-7.26h-9.54v-9.35c-1.08,1-2.22,1.92-3.42,2.88a9.81,9.81,0,0,0-2.64-2.53,45.41,45.41,0,0,0,13.92-16.25l3.84.72a35.7,35.7,0,0,1-2,3.54h11.1l.78-.18,2.34,1.68a52.13,52.13,0,0,1-4.8,6.84h13v12.65H431.7a15.52,15.52,0,0,1-1.38,1.63,22.17,22.17,0,0,1,6,7.85,120.47,120.47,0,0,0,11.1-6.66Zm-25-23.09a54.58,54.58,0,0,1-4.2,5.16h11.58a33.35,33.35,0,0,0,3.72-5.16Zm-4,14.69h8.64a15.14,15.14,0,0,0,2.46-6.42h-11.1Zm24.72-6.42H435.6a18.56,18.56,0,0,1-1.8,6.42h12.06Z"/><path d="M488.28,1853.55c-.06,2.1-.12,5.1-.42,8.64.9,7,4.56,32.51,25.74,42a12.63,12.63,0,0,0-2.88,3.36c-15.42-7.26-21.72-22.74-24.6-34-2.64,12.23-8.94,26.33-24.06,34.19a13.77,13.77,0,0,0-3.12-3.06c25-12.48,24.78-42.11,25-51.11Z"/><path d="M547.68,1860.69c-.84,3.12-1.8,6.42-2.7,9.06h24.66v32.93c0,2.46-.54,3.6-2.22,4.26s-4.8.72-9.12.72a12.47,12.47,0,0,0-1.38-3.78c3.54.12,6.6.06,7.5,0s1.2-.3,1.2-1.2v-29.22H554.94V1906h-4v-32.58H540.54V1906h-3.9v-32.58h-10V1908h-4v-38.27h18.24c.84-2.71,1.56-6.12,2.16-9.06H519.48v-4h53.34v4Z"/><path d="M609.24,1888c4,8.76,12.12,14.28,24,16.2a17.92,17.92,0,0,0-2.4,3.6c-12.48-2.58-20.76-8.82-25.14-19.14-3.06,8.76-9.36,15.6-24,19.2a13.08,13.08,0,0,0-2.16-3.42c13.5-3.12,19.32-9,22.14-16.44H579.54v-3.72h23.28a69.59,69.59,0,0,0,1.38-9.06h4.08a71.47,71.47,0,0,1-1.38,9.06h25.62V1888Zm-24.36-17.16h-4v-11.15h24a44.09,44.09,0,0,0-2.94-5.82l4.08-1a57.33,57.33,0,0,1,3.6,6.78H631v10.85h-4.14v-7.25h-42Zm-2.1,4.92a53,53,0,0,0,15.54-10.43l3.24,1.62a56.45,56.45,0,0,1-16.26,11.76Zm42.66,2.53a100.46,100.46,0,0,0-15.06-10.14l2.46-2.4c5.1,2.75,11.82,6.9,15.18,9.78Zm-11.28-2.58a43,43,0,0,1,7.44,6.59l-3,1.8a44.89,44.89,0,0,0-7.32-6.77Z"/><path d="M693.3,1901.42v3.78H638.7v-3.78h18.78v-19.86h3.78v19.86h9.12v-19.8h3.78v19.8Zm-42.6-3.48a99.18,99.18,0,0,0-7-12.24l3.18-1.38a103.53,103.53,0,0,1,7,12Zm35-18.84h-39.3v-22.85h39.3Zm-4-19.55H650.34v6.53h31.38Zm0,9.66H650.34v6.59h31.38Zm-5,26.93a82.59,82.59,0,0,0,8.52-12.24l3.42,1.62a98.93,98.93,0,0,1-8.88,12.12Z"/><path d="M752.52,1880.79v3.77h-23c-3.18,11-10.5,19-27.42,23.22a13.59,13.59,0,0,0-2.34-3.36c15.48-3.72,22.44-10.44,25.56-19.86H699.66v-3.77H726.3c1.62-7.45,1.56-16.38,1.62-26.76H732c-.06,10.14-.06,19.08-1.62,26.76ZM716,1877.42c-2.82-2.39-8.64-5.63-13.44-7.55l2.46-2.76c4.68,1.74,10.56,4.8,13.56,7.26Zm5.46-11c-2.88-2.4-8.76-5.46-13.56-7.32l2.22-2.88c4.74,1.74,10.68,4.62,13.62,7Zm8.82,23.93c8.4,4,16.92,9.36,22,13.8l-2.7,3c-4.86-4.56-13.14-9.9-21.36-14Z"/><path d="M786.42,1865.55c-1.44,3.6-3.12,7.79-4.62,11h8.7v3.67H759.36v-3.67H777.9a78.11,78.11,0,0,0,4.5-11.93Zm2.7-1.38h-28v-3.66h12.6a52.73,52.73,0,0,0-2.64-6.36l3.6-1a57,57,0,0,1,3.18,7.38h11.22Zm-26.22,21.77h24.72v21.12h-3.9v-2.4h-17v2.88H762.9Zm5.82-9.72a46.73,46.73,0,0,0-3.9-10.55l3.48-.84a38.22,38.22,0,0,1,4,10.38Zm-2,13.32v11.52h17v-11.52Zm45.84-31.31c-2.16,5.46-5,12.3-7.56,17.87,5.46,5.7,6.84,10.32,6.84,14.52,0,3.36-.78,6.24-2.64,7.5a7.78,7.78,0,0,1-3.66,1.2,29.42,29.42,0,0,1-5.16.06,9.55,9.55,0,0,0-1.2-3.78,35.57,35.57,0,0,0,4.92.12,5.55,5.55,0,0,0,2.46-.66c1.2-.78,1.62-2.7,1.56-4.8,0-3.78-1.56-8.16-7-13.73,2.34-5.16,4.74-11.58,6.42-16.26H797.34V1908h-3.6v-51.35h15.42l.6-.18Z"/><path d="M820,1906.7c4.68-2,7.26-4.92,7.56-9.18a7.35,7.35,0,0,1-1.14.12c-2.34,0-4.26-1.38-4.26-4.08a4,4,0,0,1,4.32-4.14c3.18,0,4.86,2.64,4.86,6.66,0,6.48-4,11.28-10.08,13.44Z"/><path d="M460.14,1927.05c-.54.78-1.08,1.62-1.74,2.4,5.4,5.76,15.18,12.47,25,16a17.52,17.52,0,0,0-2.82,3.47,75.67,75.67,0,0,1-24.42-16.73A64.51,64.51,0,0,1,442,1944H470.4v3.72H441.78v-3.6a82.62,82.62,0,0,1-10,5.46,19,19,0,0,0-2.88-3.42c11.76-5,22.14-12.59,27.42-20.69Zm-28.62,28.37h49.32v3.84H454.38a113.31,113.31,0,0,1-12.6,14.34l28.26-2.22c-2.34-2.64-4.86-5.34-7.26-7.62l3.36-1.74c5.34,4.74,11,11.28,13.68,15.78l-3.54,2.1a37.32,37.32,0,0,0-3.42-5c-32,2.7-35.22,2.94-37.32,3.72-.24-.84-.9-3-1.38-4.14,1.26-.18,2.58-1.38,4.5-3.18A95.51,95.51,0,0,0,449,1959.26H431.52Z"/><path d="M490.08,1976.48c3.06-2.58,5.64-7,7.08-10.44l3.3,1.5c-1.68,3.6-4.08,8-7.14,10.86Zm51.72-36.9v3.25H490.56v-3.25h14.16a23.89,23.89,0,0,0-2.34-5.45l3.36-.84H493.26V1930h21.9c-.72-1.44-1.56-2.94-2.34-4.2l3.78-.9a39.9,39.9,0,0,1,2.94,5.1h19.2v3.3H526.86l3.24.78c-1,1.92-2,3.84-3,5.51Zm-7,23.7H513.66a47.07,47.07,0,0,1,8.82,6.24L520,1972a48.61,48.61,0,0,0-9.3-6.9l2-1.8H497.58V1946h37.2Zm-3.9-14.45H501.36v4.43h29.52Zm0,7.13H501.36v4.44h29.52Zm-8.22,20.16c2.58,0,3-.72,3.24-6.24a12.08,12.08,0,0,0,3.54,1.38c-.48,6.66-1.74,8.22-6.42,8.22H511.44c-5.82,0-7.38-1-7.38-5v-8H508v8c0,1.38.54,1.68,3.72,1.68ZM506,1933.29a26.19,26.19,0,0,1,2.76,6.18l-.48.11H523a59.18,59.18,0,0,0,3.06-6.29Zm27.66,32.21a46.55,46.55,0,0,1,8,10.2l-3.36,1.74a49,49,0,0,0-7.8-10.56Z"/><path d="M548.82,1978.28c3.18-2.76,6.3-7.62,8.22-12.06l3.78,1c-2,4.68-5.1,9.72-8.4,12.84Zm47-15.9H556.2v-18.71h17.34v-18.3h4v6.54h22.86v3.78H577.5v8h18.36Zm-4-15H560v11.29h31.86Zm-21.36,20a62.7,62.7,0,0,1,1.5,11.46l-4,.54a62.86,62.86,0,0,0-1.32-11.7Zm12.18-.48a57.11,57.11,0,0,1,4.44,11.46l-3.84.9a60.69,60.69,0,0,0-4.2-11.52Zm12.06-1a65.41,65.41,0,0,1,8,12l-3.78,1.56a62.77,62.77,0,0,0-7.74-12.24Z"/><path d="M662.52,1952.79v3.77h-23c-3.18,11-10.5,19-27.42,23.22a13.59,13.59,0,0,0-2.34-3.36c15.48-3.72,22.44-10.44,25.56-19.86H609.66v-3.77H636.3c1.62-7.45,1.56-16.38,1.62-26.76H642c-.06,10.14-.06,19.08-1.62,26.76ZM626,1949.42c-2.82-2.39-8.64-5.63-13.44-7.55l2.46-2.76c4.68,1.74,10.56,4.8,13.56,7.26Zm5.46-11c-2.88-2.4-8.76-5.46-13.56-7.32l2.22-2.88c4.74,1.74,10.68,4.62,13.62,7Zm8.82,23.93c8.4,4,16.92,9.36,22,13.8l-2.7,3c-4.86-4.56-13.14-9.9-21.36-14Z"/><path d="M716.46,1975c2.7,0,3.12-1.62,3.42-11.22a12.72,12.72,0,0,0,3.78,1.74c-.54,10.5-1.62,13.32-7,13.32h-9.48c-5.22,0-6.72-1.38-6.72-6.36v-23l-9.48.72c-1,15.84-4,25.14-20.28,29.94a11,11,0,0,0-2.46-3.3c15.24-4.08,17.76-12.18,18.6-26.28-8.7.79-10.38,1-11.76,1.56a40.19,40.19,0,0,0-1.38-4c1.32-.3,2.82-1.8,4.8-4A124.61,124.61,0,0,0,692,1925l4.14,1.56a136.1,136.1,0,0,1-15.48,20.64l29.22-2c-2.64-3.49-5.52-7.14-8-10.26l3.24-2c4.8,5.82,11.22,13.85,14.4,18.47l-3.54,2.41c-.9-1.45-2.16-3.25-3.54-5.17l-7.86.6v23.34c0,2.16.48,2.52,3.12,2.52Z"/><path d="M749.34,1965.92a21.19,21.19,0,0,0,1.14,3.3c-9.54,6.66-11,7.68-11.82,8.82a19.05,19.05,0,0,0-2.1-3.72,4.63,4.63,0,0,0,2-4.14v-22.31h-9.66v-3.79H742.5v26.4Zm-6.9-27.05a84,84,0,0,0-8.94-9.3l2.52-2.34a67.38,67.38,0,0,1,9.06,8.88Zm40.86,18.83H767.88v22.2h-4v-22.2H747.42v-3.84h16.44v-14.75H755.7a41.55,41.55,0,0,1-4.8,9.11,36.54,36.54,0,0,0-3.66-1.92c4.08-4.91,6.84-12.71,8.28-20.93l3.9.6c-.66,3.24-1.44,6.36-2.34,9.3h24v3.84h-13.2v14.75H783.3Z"/><path d="M807.36,1969.88a9,9,0,1,1-9.06-9A9,9,0,0,1,807.36,1969.88Zm-2.82,0a6.21,6.21,0,1,0-6.24,6.24A6.22,6.22,0,0,0,804.54,1969.88Z"/><path d="M417.9,2014.17c4.44,10.31,12.24,20,20.76,24.71a23.11,23.11,0,0,0-3.06,3.36c-9-5.58-16.92-16.32-21.6-28.07h-1v22.43h14.28v4H413V2052H408.9v-11.4H394.68v-4H408.9v-22.43h-1.08c-4.74,11.75-12.66,22.43-21.3,28.25a24.18,24.18,0,0,0-2.88-3.18c8-4.92,15.66-14.76,20.16-25.07H385.14v-4H408.9v-12.72H413v12.72h24v4Z"/><path d="M492.6,2003.07c-4.32,12.12-10.08,22.68-18.6,31.25a65.72,65.72,0,0,0,24.42,14.1,17.56,17.56,0,0,0-2.76,3.54A66.69,66.69,0,0,1,471,2037.2a72.92,72.92,0,0,1-25.38,14.7,14.53,14.53,0,0,0-2.16-3.36,69.86,69.86,0,0,0,24.78-14.1,89.37,89.37,0,0,1-18.18-29.27l3.6-1.08a80.51,80.51,0,0,0,17.52,27.53c8.16-8.21,13.62-18.41,17.4-29.87ZM472,2013a102.25,102.25,0,0,0-5.88-14.45l3.42-1.38a105.48,105.48,0,0,1,6.06,14.28Z"/><path d="M533.46,2046.62a70.7,70.7,0,0,0,7.38.36c2.1.06,14.76,0,17.58-.06a16.36,16.36,0,0,0-1.44,3.84H540.72c-12.3,0-19.92-1.92-24.72-10.38a31.55,31.55,0,0,1-9.48,11.7,19.84,19.84,0,0,0-3.06-2.82c6.3-4.14,10.2-10.92,11.82-19.86l4,.6a55.92,55.92,0,0,1-1.5,6.06c2.34,5.64,6.3,8.52,11.7,9.84v-18.54H504.72v-3.6H557.4v3.6H533.46v7.08h20v3.6h-20Zm17.22-27.17h-39.6v-19.56h39.6Zm-4-16.44H515v5.16h31.68Zm0,8.1H515v5.27h31.68Z"/><path d="M572.88,2006.61a43.07,43.07,0,0,1-6,7.92,26.6,26.6,0,0,0-3.24-2.22,41.3,41.3,0,0,0,9.66-15.12l3.78,1a52.51,52.51,0,0,1-2.22,5h15.6v3.48h-10a33.13,33.13,0,0,1,3,6.42l-3.54,1.2a43.56,43.56,0,0,0-3.54-7.62Zm21.12,6.47a12.56,12.56,0,0,1-1.14,1.45c5.64,4.55,16.56,10.19,26.1,13a17.48,17.48,0,0,0-2.82,3.48,83.25,83.25,0,0,1-12.48-5.52v2.64H578.88l.06-2.1a83.4,83.4,0,0,1-12.6,5.82,14.89,14.89,0,0,0-2.64-3.24c11.46-3.9,21.54-10,26.52-17Zm-20,20.16h34.5v18.48h-4v-2.22H577.8V2052H574Zm3.84,3.54V2046h26.7v-9.18Zm24.42-12.06a89.18,89.18,0,0,1-11.58-7.61,51.09,51.09,0,0,1-9.6,7.61Zm-5.52-18a29.12,29.12,0,0,1-4,5.33,28.08,28.08,0,0,0-3.18-2.21,29.36,29.36,0,0,0,7.2-12.6l3.78.84a38.18,38.18,0,0,1-2,5.16h18.66v3.48H605.58a28.1,28.1,0,0,1,3.72,6.18l-3.72,1.32a33.22,33.22,0,0,0-4.38-7.5Z"/><path d="M632.52,2009v12.54c0,9-.78,22.13-5.64,31a15.15,15.15,0,0,0-3.42-2.22c4.56-8.46,5-20.28,5-28.73v-16.32h24.12a77.39,77.39,0,0,0-3.42-7.2l3.84-1a65.27,65.27,0,0,1,4,8l-.78.24h21V2009Zm45.54,36.35v3.84H633.54v-3.84h24a110.22,110.22,0,0,0,12.78-31.85l4.14,1.5a137,137,0,0,1-12.84,30.35Zm-34.62-6.72a150.41,150.41,0,0,0-6.54-20.51l3.48-1.45a177.34,177.34,0,0,1,6.78,20.46Zm11.64-3.3a156.79,156.79,0,0,0-5-20.45l3.6-1.08a170.19,170.19,0,0,1,5.16,20.45Z"/><path d="M683.7,2037.26l3.48-3.06a113.53,113.53,0,0,1,13.5,13.38L697,2050.7A97.41,97.41,0,0,0,683.7,2037.26Z"/><path d="M734.34,2037.92a21.19,21.19,0,0,0,1.14,3.3c-9.54,6.66-11,7.68-11.82,8.82a19.05,19.05,0,0,0-2.1-3.72,4.63,4.63,0,0,0,2-4.14v-22.31h-9.66v-3.79H727.5v26.4Zm-6.9-27.05a84,84,0,0,0-8.94-9.3l2.52-2.34a67.38,67.38,0,0,1,9.06,8.88Zm40.86,18.83H752.88v22.2h-4v-22.2H732.42v-3.84h16.44v-14.75H740.7a41.55,41.55,0,0,1-4.8,9.11,36.54,36.54,0,0,0-3.66-1.92c4.08-4.91,6.84-12.71,8.28-20.93l3.9.6c-.66,3.24-1.44,6.36-2.34,9.3h24v3.84h-13.2v14.75H768.3Z"/><path d="M827.64,2005.65H820.2v40.43c0,3-.78,4.38-2.94,5.1-2.34.72-6.42.72-12.24.72a26,26,0,0,0-1.74-4.32c4.92.24,9.72.18,11.16.12,1.26-.06,1.68-.48,1.68-1.68v-40.37H774.6v-4h53Zm-43,31.19v4.8h-3.84v-26.87h24.24v22.07Zm0-18.3v14.52h16.5v-14.52Z"/><path d="M852.36,2041.88a9,9,0,1,1-9.06-9A9,9,0,0,1,852.36,2041.88Zm-2.82,0a6.21,6.21,0,1,0-6.24,6.24A6.22,6.22,0,0,0,849.54,2041.88Z"/><rect class="cls-2" x="1113" y="450" width="65" height="126" rx="12"/><path class="cls-1" d="M1132.7,479.82c1.25,1.6,4.9,6.7,5.7,8.05l-2,2.45c-.7-1.5-2.35-4.4-3.75-6.65V510h-3.15V485.57c-1.5,5.05-3.5,9.9-5.55,12.85a14.83,14.83,0,0,0-1.75-3.1c2.9-4,5.8-11.5,7.2-18h-6.2v-3.15h6.3v-9.65h3.15v9.65h5.45v3.15h-5.45Zm19.1.7a19.47,19.47,0,0,0,.45,2.65c-10.15,2.7-11.6,3.15-12.5,3.75a12.13,12.13,0,0,0-1.1-3.2c.7-.2,1.55-.5,1.55-2.2v-16.7h3.25v6.5h8.35v2.9h-8.35v8.3Zm2.35,5.5-2,3.75h12.65V510h-3.4v-1.75h-17v2h-3.3V489.77h7.9c.55-1.5,1.2-3.25,1.55-4.6Zm7.3,6.5h-17v5.05h17Zm0,13v-5.3h-17v5.3Zm2.25-22.4c1.25,0,1.5-.75,1.65-5.25a9.16,9.16,0,0,0,2.85,1.25c-.3,5.45-1.2,6.95-4.15,6.95h-5.85c-3.65,0-4.55-.95-4.55-4.45V464.87h3.25v6.5h10.2v2.9h-10.2v7.35c0,1.3.25,1.5,1.65,1.5Z"/><path class="cls-1" d="M1167.55,539.87v2.5H1123.4v-2.5h20.25v-3.2H1126.8v-2.3h16.85v-3H1128.2v-2.25h15.45v-3.2H1123.5v-2.5h20.15v-3H1128.8V518h14.85v-3.55h3.25V518h14.45v5.4h6.15v2.5h-6.15v5.45H1146.9v3h17.3v2.3h-17.3v3.2Zm-37.75,5h31.75v15.25h-3.25v-1.6H1133v1.7h-3.2Zm3.2,2.4v3.2h25.3v-3.2Zm25.3,8.85v-3.4H1133v3.4Zm-11.4-32.7h11.15v-3H1146.9Zm0,5.7h11.15v-3.2H1146.9Z"/><rect class="cls-2" x="1113" y="1233" width="65" height="271" rx="12"/><path class="cls-1" d="M1158.05,1272.79a27.61,27.61,0,0,0,11.5,8.1,11.65,11.65,0,0,0-2.15,2.55,30.77,30.77,0,0,1-12.8-10.65h-15.95a34.39,34.39,0,0,1-13,11.3,11.43,11.43,0,0,0-2.15-2.55,30.39,30.39,0,0,0,11.6-8.75H1124v-2.85h10v-16.15h-7.7V1251h7.7v-5h3.3v5h18.55v-5h3.35v5h7.65v2.8h-7.65v16.15h9.8v2.85Zm-10,14.5h17.3v2.85H1127.8v-2.85h16.9v-5.6h-10.45v-2.8h10.45v-4.4h3.35v4.4h10.65v2.8h-10.65Zm-10.8-33.5v3.6h18.55v-3.6Zm0,9.8h18.55v-3.65h-18.55Zm0,6.35h18.55v-3.8h-18.55Z"/><path class="cls-1" d="M1142.25,1314.54s0,1.15,0,1.55c-.6,15.85-1.2,21.2-2.6,23a3.71,3.71,0,0,1-2.8,1.45,32.65,32.65,0,0,1-4.45,0,9.25,9.25,0,0,0-.85-3c1.75.15,3.2.15,3.9.15a1.42,1.42,0,0,0,1.45-.65c1-1.2,1.6-6,2.15-19.35h-6.8c-.55,10-2,18.25-6.45,23.65a9.53,9.53,0,0,0-2.55-2.35c5.45-6.45,5.9-17.85,6.1-31.55h-5.2v-3.1h20.1v3.1h-11.65c0,2.45-.1,4.85-.2,7.15Zm-7.9-10.45a33.47,33.47,0,0,0-4.25-7.15l2.9-1.15a31.92,31.92,0,0,1,4.4,7Zm23.85-7.45a15.26,15.26,0,0,1-.85,2.55c2.65,5.45,7.7,11.35,12.45,14a13,13,0,0,0-2.45,2.75c-4.25-2.7-8.5-8-11.4-13.3a32.61,32.61,0,0,1-11,13.6,12.79,12.79,0,0,0-2.35-2.65c5.85-3.6,10.35-10.2,12.5-17.85Zm-8.3,32.45a74,74,0,0,1,13.6,8.25l-2.25,2.9c-2.85-2.6-8.75-6.3-13.4-8.65Zm9.5-4.85a66.22,66.22,0,0,0-8.6-6.85l2.15-2.2a67.46,67.46,0,0,1,8.75,6.55Z"/><path class="cls-1" d="M1165,1349.19v29.3h-3.5v-2.55h-13.3v15.6h-3.45v-15.6h-13.4v2.75H1128v-29.5Zm-33.65,3.2V1361h13.4v-8.65Zm13.4,20.35v-8.5h-13.4v8.5Zm16.75-20.35h-13.3V1361h13.3Zm0,20.35v-8.5h-13.3v8.5Z"/><path class="cls-1" d="M1167.25,1411.09v9.3h-3.15V1414h-35.4v6.4h-3v-9.3h6.95v-12.95h27.7v12.95Zm-6.45,26.6c0,1.85-.45,2.7-1.85,3.2s-3.9.5-7.7.45a8.57,8.57,0,0,0-1.1-2.75c3,.05,5.65.05,6.4.05s1-.25,1-1v-6.2c-7.3,1.45-14.85,3-20.45,4l-1.1-3c5.4-.8,13.6-2.3,21.55-3.75V1420h-22.2v5.3c0,4.85-.65,11.55-4.35,16.2a13.29,13.29,0,0,0-2.7-2c3.45-4.25,3.85-10,3.85-14.25v-8h28.6Zm-25-26.6h7.45v-6.9H1157v-3.35h-21.2Zm2.45,11.7a75.14,75.14,0,0,1,17.7,3l-.9,2.6c-4-1.5-11.7-2.9-17.7-3.35Zm18.75-16.3h-10.75v4.6H1157Z"/><path class="cls-1" d="M1161,1458.09a51.83,51.83,0,0,1-12,19.6,49.94,49.94,0,0,0,20.5,10.5,16.79,16.79,0,0,0-2.25,3,50.92,50.92,0,0,1-20.75-11.1c-5.65,5-12.55,8.6-21,11.3a15.53,15.53,0,0,0-2-3.05c8.35-2.45,15.1-5.9,20.6-10.6a57.05,57.05,0,0,1-12.2-19.65h-7.75v-3.25h44.75v3.25Zm-25.75,0a52.13,52.13,0,0,0,11.3,17.3,47.46,47.46,0,0,0,10.7-17.3Zm11.25-3.55a38.13,38.13,0,0,0-3.8-7.8l3.4-1a39,39,0,0,1,4,7.65Z"/><path d="M594.81,1274.45a221.61,221.61,0,0,1,25.4,16.88l-5.16-4A226,226,0,0,1,655.58,1328l-4-5.16a250.7,250.7,0,0,1,31.84,54.9l-2.57-6.09c10.63,25.24,18,51.94,22.94,78.84q2.15,11.67,3.72,23.42l-.91-6.78a635.12,635.12,0,0,1,5,88.7c-.23,29.51-2,59-4.27,88.42-1.28,16.55-2.73,33.09-4.17,49.62-.53,6.18,3.23,13.8,7.47,18,4.43,4.43,11.68,7.76,18,7.47,6.6-.29,13.44-2.46,18-7.47l4-5.16a25.27,25.27,0,0,0,3.48-12.87c2.9-33.35,5.85-66.72,7.39-100.17s1.67-67.15-1.15-100.6c-3-35.56-8.83-71.09-19.55-105.17-9.23-29.38-21.77-58-39.62-83.23a264.31,264.31,0,0,0-31.51-37.31,251.6,251.6,0,0,0-39.42-31.08c-3.21-2-6.47-4-9.77-5.89a26.52,26.52,0,0,0-19.65-2.57c-5.92,1.63-12.33,6.2-15.24,11.72-3.13,5.92-4.69,13.09-2.57,19.65,2,6.29,5.85,11.9,11.72,15.24Z"/><line class="cls-3" x1="606.52" y1="1252.75" x2="443.84" y2="1480.25"/><circle class="cls-3" cx="564.5" cy="1144.5" r="107.5"/></svg>