<svg id="Layer_1" data-name="Layer 1" xmlns="http://www.w3.org/2000/svg" viewBox="0 0 1242 2208"><defs><style>.cls-1{fill:#f6eabe;}.cls-2{fill:#999;}.cls-3{fill:none;stroke:#000;stroke-linecap:round;stroke-miterlimit:10;stroke-width:50px;}</style></defs><rect class="cls-1" width="1242" height="2208"/><path d="M889.37,777.4c33.35,0,38.11-21.44,42.08-144.51,12.7,10.33,34.14,19.06,49.23,23.82C974.33,790.9,960,826.63,893.34,826.63H775.83c-67.49,0-86.55-17.47-86.55-81.78V455h-154c-15.09,171.5-54,311.25-235,384.29-6.35-11.91-21.44-31.76-33.35-40.49C436.79,734.53,467,606.69,478.88,455H274V403.43H968.77V455H743.28V744.85c0,26.2,6.35,32.55,38.11,32.55Zm13.5-545.47H343.1V181.11H902.87Z"/><path d="M365,1780.49H350.22v35.15h-4v-38.87H365Z"/><path d="M416.28,1827.16c2.52,0,2.88-1.62,3.18-10.92a12.56,12.56,0,0,0,3.72,1.8c-.48,10.14-1.56,12.84-6.6,12.84H407.7c-5.1,0-6.54-1.32-6.54-6.18v-21.9H389.52c-1.14,13-4.08,23.52-17.76,29a11.07,11.07,0,0,0-2.52-3.06c12.84-4.86,15.12-14.52,16-26H369.78v-3.89h52.5v3.89h-17v21.9c0,2,.48,2.46,2.88,2.46Zm1-41.21H375v-3.84h42.3Z"/><path d="M427,1828.84h14.82v-35.15h4v38.87H427Z"/><path d="M483.48,1817.62a99.92,99.92,0,0,0-9.3-14.87c-2,12-5.34,21.83-11.52,29.21a32.41,32.41,0,0,0-3.78-2.76c9.84-10.56,12.24-28.25,13.26-50.39l4.26.18c-.36,6.66-.84,12.84-1.56,18.54,4.56,5.46,9.42,12.59,11.64,17.33Zm15.78-38.69c-.48,7.14-1.14,13.61-2.1,19.56,2.1,10.13,6.78,23,16,29.27a24.62,24.62,0,0,0-2.88,3.54c-7.56-5.82-12.12-15.66-14.76-24.59-2.52,10.43-6.6,18.71-13.44,25a28,28,0,0,0-3.78-2.76c12.06-10,15.3-27.24,16.62-50.21Z"/><path d="M545,1780.49H530.22v35.15h-4v-38.87H545Z"/><path d="M596.94,1827.22c2.16,0,2.46-1.86,2.76-9.9a12.28,12.28,0,0,0,3.9,1.86c-.48,9.06-1.56,12.06-6.36,12.06H588.6c-5,0-6.42-1.56-6.42-7.08v-36.77H567.6v10.32c0,11.57-1.62,25-16.32,34.61a11.83,11.83,0,0,0-2.88-3.12c13.74-8.94,15.12-21.18,15.12-31.55v-10.26h-13.2v-4h51.42v4h-15.3v36.83c0,2.52.42,3,2.64,3Z"/><path d="M607,1828.84h14.82v-35.15h4v38.87H607Z"/><path d="M659.88,1779.77a62.18,62.18,0,0,1-17.58,24.48,22.83,22.83,0,0,0-3.36-3c7.14-5.22,13.26-13.5,16.74-22.62Zm24.6,20.22s0,1.43-.06,2c-.9,18.36-1.74,25.14-3.84,27.48a5.82,5.82,0,0,1-4.5,1.92,90.18,90.18,0,0,1-9.48-.18,10,10,0,0,0-1.32-4c4,.36,7.74.42,9.18.42a3.5,3.5,0,0,0,2.58-.72c1.56-1.56,2.4-7.5,3.18-23h-17c-1.62,11.88-5.46,22.74-20.64,28.26a13.45,13.45,0,0,0-2.46-3.36c14.22-4.74,17.58-14.52,18.9-24.9H647.22v-4Zm-8.34-21.48c3.72,8.16,11,17.22,17.22,21.83a18.55,18.55,0,0,0-3.18,3.37c-6.24-5.29-13.5-14.94-17.64-23.76Z"/><path d="M719,1778.57a84,84,0,0,1-6,11.82V1832H708.9v-35.45a58.48,58.48,0,0,1-7.38,8.57,28.37,28.37,0,0,0-2.64-3.72c6.42-5.81,12.6-14.81,16.32-24.05Zm26.28,48.35c3.24,0,3.72-2.58,4.2-12.9a15,15,0,0,0,3.9,2c-.6,11-1.74,14.88-7.92,14.88H734.58c-5.76,0-7.44-1.74-7.44-8v-11.1a92.79,92.79,0,0,1-8.52,5,23,23,0,0,0-2.94-3,88.73,88.73,0,0,0,11.46-6.84v-28.49h4.2v25.38a75.44,75.44,0,0,0,16.74-17.7l3.84,2.52a91.64,91.64,0,0,1-20.58,20.21V1823c0,3.3.66,4,3.6,4Z"/><path d="M787.68,1784.69c-.84,3.12-1.8,6.42-2.7,9.06h24.66v32.93c0,2.46-.54,3.6-2.22,4.26s-4.8.72-9.12.72a12.47,12.47,0,0,0-1.38-3.78c3.54.12,6.6.06,7.5,0s1.2-.3,1.2-1.2v-29.22H794.94V1830h-4v-32.58H780.54V1830h-3.9v-32.58h-10V1832h-4v-38.27h18.24c.84-2.71,1.56-6.12,2.16-9.06H759.48v-4h53.34v4Z"/><path d="M850.92,1807.67c5.58,7.49,14.64,14.93,22.86,18.53a18.72,18.72,0,0,0-2.76,3.3c-8.16-4-17.1-11.7-23-19.92V1832H843.9v-22.2a67.14,67.14,0,0,1-22.68,19.56,18.62,18.62,0,0,0-2.82-3.3c8.22-3.54,17.22-10.86,22.68-18.35H819.6v-3.79h24.3v-15.35H822.48v-3.84H843.9v-7.26H848v7.26h22v3.84H848v15.35h24.48v3.79Zm-20-17.52a41.63,41.63,0,0,1,5.82,11.34L833,1803a47.17,47.17,0,0,0-5.52-11.52ZM855.36,1802a74.6,74.6,0,0,0,6.18-12.11l4.14,1.38a113.47,113.47,0,0,1-7,11.94Z"/><path d="M880,1830.7c4.68-2,7.26-4.92,7.56-9.18a7.35,7.35,0,0,1-1.14.12c-2.34,0-4.26-1.38-4.26-4.08a4,4,0,0,1,4.32-4.14c3.18,0,4.86,2.64,4.86,6.66,0,6.48-4,11.28-10.08,13.44Z"/><path d="M389.16,1862.62a67.64,67.64,0,0,1-7.2,12.25v28.85h-4v-24a41.57,41.57,0,0,1-7.26,6.41,17,17,0,0,0-2-3.48c7-5,12.3-12.23,16.14-20H370v-3.83h16.44a65.25,65.25,0,0,0,3.3-9.42l4.08,1c-.9,2.82-1.86,5.64-3,8.4H422.1v3.83Zm32.94,36.24v3.72H386v-3.72h16v-17.52H388.32v-3.72H402v-11.81h4v11.81h13.8v3.72H406v17.52Z"/><path d="M455,1852.49H440.22v35.15h-4v-38.87H455Z"/><path d="M506.94,1899.22c2.16,0,2.46-1.86,2.76-9.9a12.28,12.28,0,0,0,3.9,1.86c-.48,9.06-1.56,12.06-6.36,12.06H498.6c-5,0-6.42-1.56-6.42-7.08v-36.77H477.6v10.32c0,11.57-1.62,25-16.32,34.61a11.83,11.83,0,0,0-2.88-3.12c13.74-8.94,15.12-21.18,15.12-31.55v-10.26h-13.2v-4h51.42v4h-15.3v36.83c0,2.52.42,3,2.64,3Z"/><path d="M517,1900.84h14.82v-35.15h4v38.87H517Z"/><path d="M602.76,1897.18v4H549.3v-4h22.62v-46.85h4.14v18.54h22.62v4H576.06v24.3Z"/><path d="M618.6,1874.92a46.35,46.35,0,0,0-10-6l2.22-2.93a42.79,42.79,0,0,1,10.08,5.69Zm-8.7,26a175.81,175.81,0,0,0,8.28-18.06l3.12,2.22c-2.22,5.94-5.22,12.9-7.8,18.12Zm11-41.57a40.18,40.18,0,0,0-9.54-6.54l2.34-2.88c3.36,1.62,7.56,4.2,9.6,6.3Zm17.76,9.42A35.34,35.34,0,0,1,623.76,1884a17.19,17.19,0,0,0-2.46-3.06,31.18,31.18,0,0,0,13-12.23H622.8v-3.67h13.38a47.71,47.71,0,0,0,2.88-8.57h-13.5v-3.66H661v3.66h-17.7a59.28,59.28,0,0,1-2.82,8.57h22.5v3.67h-12.3A32.06,32.06,0,0,0,663.9,1880a19.2,19.2,0,0,0-2.58,3.12,36.2,36.2,0,0,1-14.76-14.39Zm-5,14.39c-1.5,4.92-3.9,10.5-7.86,13.92l-2.94-2.16c3.78-3.06,6.3-8.34,7.68-12.9Zm4.32-7.56h3.72v23.94c0,2.1-.42,3.24-1.92,3.84s-4.14.66-8.22.66a13.22,13.22,0,0,0-1.14-3.6c3.12.06,5.76,0,6.6,0s1-.24,1-1Zm9.66,7.32a58.91,58.91,0,0,1,4.2,12.66l-3.3,1.2a60.53,60.53,0,0,0-4-12.78Zm7.38-2c3.54,4.56,7.26,10.62,8.82,14.64l-3.3,1.74a69.1,69.1,0,0,0-8.58-14.88Z"/><path d="M723.36,1873.91v4.31H668.88v-4.31Z"/><path d="M746.64,1884.22c-.9-2-3.18-5.88-5-8.88v28.5h-3.78v-29c-2.1,6.89-5,13.61-7.86,17.69a25.52,25.52,0,0,0-2.1-3.48c3.78-5.1,7.68-14.75,9.54-23.16h-8.1v-3.65h8.52v-13h3.78v13h7.2v2.4H757v-6.36h-7.2V1855H757v-5.58h3.78V1855h10.08v-5.58h3.78V1855H782v3.36h-7.38v6.36h8.7v3.48h-16v4.56H781v20H750.84v-20h12.84v-4.56H748.14v-2.23H741.6v4.87c1.8,2.16,6.3,8.69,7.26,10.25Zm15.66,12.12a52.66,52.66,0,0,1-13.14,7.62,22.16,22.16,0,0,0-2.64-2.7c4.38-1.62,9.66-4.56,12.18-7Zm-7.92-15.17h9.3v-5.41h-9.3Zm0,8.45h9.3v-5.52h-9.3Zm6.42-24.95h10.08v-6.36H760.8Zm6.6,11.09v5.41h10v-5.41Zm10,8.34h-10v5.52h10Zm-5,10.32A87.48,87.48,0,0,1,784,1901.5l-3,2.52a83.75,83.75,0,0,0-11.52-7.44Z"/><path d="M840.36,1867.61v36.17h-4V1901H791.7V1868h4.08v29.15h40.56v-29.57Zm-.24-10.56H792v-3.72h48.12Zm-38.64,33.77v-26.75h28.8v26.75Zm3.42-15.06H814v-8.27H804.9Zm0,11.64H814V1879H804.9Zm21.84-19.91h-9.18v8.27h9.18Zm0,11.51h-9.18v8.4h9.18Z"/><path d="M867.36,1893.88a9,9,0,1,1-9.06-9A9,9,0,0,1,867.36,1893.88Zm-2.82,0a6.21,6.21,0,1,0-6.24,6.24A6.22,6.22,0,0,0,864.54,1893.88Z"/><path d="M492.9,1938.17c4.44,10.31,12.24,20,20.76,24.71a23.11,23.11,0,0,0-3.06,3.36c-9-5.58-16.92-16.32-21.6-28.07h-1v22.43h14.28v4H488V1976H483.9v-11.4H469.68v-4H483.9v-22.43h-1.08c-4.74,11.75-12.66,22.43-21.3,28.25a24.18,24.18,0,0,0-2.88-3.18c8-4.92,15.66-14.76,20.16-25.07H460.14v-4H483.9v-12.72H488v12.72h24v4Z"/><path d="M567.6,1927.07c-4.32,12.12-10.08,22.68-18.6,31.25a65.72,65.72,0,0,0,24.42,14.1,17.56,17.56,0,0,0-2.76,3.54A66.69,66.69,0,0,1,546,1961.2a72.92,72.92,0,0,1-25.38,14.7,14.53,14.53,0,0,0-2.16-3.36,69.86,69.86,0,0,0,24.78-14.1,89.37,89.37,0,0,1-18.18-29.27l3.6-1.08a80.51,80.51,0,0,0,17.52,27.53c8.16-8.21,13.62-18.41,17.4-29.87ZM547,1937a102.25,102.25,0,0,0-5.88-14.45l3.42-1.38a105.48,105.48,0,0,1,6.06,14.28Z"/><path d="M608.46,1970.62a70.7,70.7,0,0,0,7.38.36c2.1.06,14.76,0,17.58-.06a16.36,16.36,0,0,0-1.44,3.84H615.72c-12.3,0-19.92-1.92-24.72-10.38a31.55,31.55,0,0,1-9.48,11.7,19.84,19.84,0,0,0-3.06-2.82c6.3-4.14,10.2-10.92,11.82-19.86l4,.6a55.92,55.92,0,0,1-1.5,6.06c2.34,5.64,6.3,8.52,11.7,9.84v-18.54H579.72v-3.6H632.4v3.6H608.46v7.08h20v3.6h-20Zm17.22-27.17h-39.6v-19.56h39.6Zm-4-16.44H590v5.16h31.68Zm0,8.1H590v5.27h31.68Z"/><path d="M668.28,1921.55c-.06,2.1-.12,5.1-.42,8.64.9,7,4.56,32.51,25.74,42a12.63,12.63,0,0,0-2.88,3.36c-15.42-7.26-21.72-22.74-24.6-34-2.64,12.23-8.94,26.33-24.06,34.19a13.77,13.77,0,0,0-3.12-3.06c25-12.48,24.78-42.11,25-51.11Z"/><path d="M752.52,1948.79v3.77h-23c-3.18,11-10.5,19-27.42,23.22a13.59,13.59,0,0,0-2.34-3.36c15.48-3.72,22.44-10.44,25.56-19.86H699.66v-3.77H726.3c1.62-7.45,1.56-16.38,1.62-26.76H732c-.06,10.14-.06,19.08-1.62,26.76ZM716,1945.42c-2.82-2.39-8.64-5.63-13.44-7.55l2.46-2.76c4.68,1.74,10.56,4.8,13.56,7.26Zm5.46-11c-2.88-2.4-8.76-5.46-13.56-7.32l2.22-2.88c4.74,1.74,10.68,4.62,13.62,7Zm8.82,23.93c8.4,4,16.92,9.36,22,13.8l-2.7,3c-4.86-4.56-13.14-9.9-21.36-14Z"/><path d="M777.36,1965.88a9,9,0,1,1-9.06-9A9,9,0,0,1,777.36,1965.88Zm-2.82,0a6.21,6.21,0,1,0-6.24,6.24A6.22,6.22,0,0,0,774.54,1965.88Z"/><path d="M338.7,2023.06s-.06,1.32-.12,1.86c-1.08,13.56-2.1,18.84-4.08,20.82-1.26,1.32-2.46,1.68-4.56,1.8a90.37,90.37,0,0,1-9.48-.18,8,8,0,0,0-1.44-4c4,.36,8,.36,9.48.36s2-.06,2.58-.6c1.5-1.2,2.4-5.7,3.3-16.32h-22.8c1.14-4.56,2.46-11.63,3.24-17.09H334.5v-10.08h-22v-3.78H338.4v17.58H318.3c-.6,3.3-1.2,6.71-1.86,9.65Zm18.36-29.15V2048h-4v-54.11Z"/><path d="M419.28,2001.23v33.29H415.2v-3.18H397.92v16.5h-4.14v-16.5H377v3.54h-4v-33.65h20.76v-7.92h4.14v7.92Zm-42.3,3.84v9.18h16.8v-9.18Zm16.8,22.49V2018H377v9.6Zm4.14-22.49v9.18H415.2v-9.18Zm17.28,22.49V2018H397.92v9.6Z"/><path d="M479.76,2007.77s-.06,1.56-.06,2.1c-1,24.11-1.86,32.51-4.2,35.27a6,6,0,0,1-4.68,2.22c-2,.12-5.88,0-9.48-.18A10,10,0,0,0,460,2043a91.18,91.18,0,0,0,9.3.42c1.26,0,2-.12,2.58-.9,1.86-1.8,2.82-9.9,3.66-30.83H454.44c-1.38,11.69-6.24,25.07-21.84,35.45a14.36,14.36,0,0,0-3.12-2.88c14.7-9.6,19.44-21.78,20.88-32.57H431.22v-4h19.56c.18-2.65.24-5.16.24-7.44v-6.9h4v7c0,2.28-.06,4.8-.24,7.38Zm-37.2-2.22a49.8,49.8,0,0,0-6.42-9l3.42-1.56a50.25,50.25,0,0,1,6.6,8.82Zm21.9,27.35a69.41,69.41,0,0,0-8.28-11.88l3.18-1.61a65.09,65.09,0,0,1,8.58,11.51Z"/><path d="M518.4,2005.37c-.66,2-1.32,4.13-2,5.88h19.26V2048H531.6v-3.54H500.34V2048h-3.9v-36.77h15.78c.6-1.8,1.14-4,1.56-5.88H489.36v-3.72H505.2a49.7,49.7,0,0,0-5.16-7l3.42-1.5a33.65,33.65,0,0,1,5.64,7.14l-2.58,1.38h16.26a60,60,0,0,0,5.58-8.4l4.38,1.2a78.25,78.25,0,0,1-5.52,7.2h15.54v3.72Zm13.2,9.42H500.34v6.35H531.6Zm0,9.59H500.34v6.54H531.6Zm0,16.5v-6.72H500.34v6.72Z"/><path d="M567.3,1994.63a90.29,90.29,0,0,1-6.18,12.84v40.43h-4v-34.19a70.15,70.15,0,0,1-6.36,7.79,23.56,23.56,0,0,0-2.28-3.9c5.94-5.81,11.58-14.81,15.06-24Zm35.76,47v3.84H565.62v-3.84h21.06a266.82,266.82,0,0,0,5.88-30.05l4.14.77c-1.56,9.24-4,21.18-6.3,29.28Zm-2.52-33.47H568.26v-3.84h32.28Zm-24.12,30.53a209.72,209.72,0,0,0-4.2-25.8l3.6-.71a205.18,205.18,0,0,1,4.56,25.37Zm6.84-35.21a72.34,72.34,0,0,0-2.88-9.48l3.72-1a88.64,88.64,0,0,1,3.06,9.36Z"/><path d="M608.7,2033.26l3.48-3.06a113.53,113.53,0,0,1,13.5,13.38L622,2046.7A97.41,97.41,0,0,0,608.7,2033.26Z"/><path d="M668.4,2005.37c-.66,2-1.32,4.13-2,5.88h19.26V2048H681.6v-3.54H650.34V2048h-3.9v-36.77h15.78c.6-1.8,1.14-4,1.56-5.88H639.36v-3.72H655.2a49.7,49.7,0,0,0-5.16-7l3.42-1.5a33.65,33.65,0,0,1,5.64,7.14l-2.58,1.38h16.26a60,60,0,0,0,5.58-8.4l4.38,1.2a78.25,78.25,0,0,1-5.52,7.2h15.54v3.72Zm13.2,9.42H650.34v6.35H681.6Zm0,9.59H650.34v6.54H681.6Zm0,16.5v-6.72H650.34v6.72Z"/><path d="M714.3,2023.6c-3.48,6.06-8.1,13-11.88,18.24l-3.6-2.76A164.65,164.65,0,0,0,711.24,2021Zm-3.06-15a58.41,58.41,0,0,0-11.52-8.28l2.46-2.82a57.53,57.53,0,0,1,11.52,7.86Zm23.28,5.88c0,1.31-.06,2.76-.12,4.26,2.7,12.23,8.46,21.65,19,25.43a13.6,13.6,0,0,0-2.7,3.42c-8.82-3.66-14.28-11-17.64-20.88-2.16,7.44-7.32,15.3-19.56,21.48a18.05,18.05,0,0,0-3-3.06c18.54-9.12,19.86-22,19.86-30.72v-3.71h4.2Zm-10.8-6.84a55.22,55.22,0,0,1-6.24,12.6,28.24,28.24,0,0,0-3.84-2.23c4.56-5.87,7.92-15.17,9.72-24.65l4.26.78c-.72,3.24-1.62,6.48-2.52,9.54h22.68l.78-.24,2.88,1.56a72.86,72.86,0,0,1-6.24,16c-.78-.42-2.4-1.19-3.36-1.61a67.39,67.39,0,0,0,4.62-11.76Z"/><path d="M758.7,2033.26l3.48-3.06a113.53,113.53,0,0,1,13.5,13.38L772,2046.7A97.41,97.41,0,0,0,758.7,2033.26Z"/><path d="M842.7,2022.46H829.2v25.62h-4.08v-25.62H807.66c-.78,9.48-3.9,18.78-15,25.74a16,16,0,0,0-3.12-2.88c10.2-6.36,13.26-14.52,14-22.86H789.36v-3.84h14.46c.06-.9.06-1.79.06-2.7v-14.75H791.64v-3.84h49.14v3.84H829.2v17.45h13.5Zm-17.58-3.84v-17.45H807.9v14.75c0,.91,0,1.8-.06,2.7Z"/><path d="M869.34,2006c-.78,10.86-2.52,19.43-5.28,26a52.49,52.49,0,0,1,6.6,6.78L868.2,2042a45.68,45.68,0,0,0-5.88-6.36,30.54,30.54,0,0,1-11.22,12.24,13.85,13.85,0,0,0-2.4-3.18c4.32-2.34,7.92-6.24,10.74-11.7a105.7,105.7,0,0,0-9.18-7,158.43,158.43,0,0,0,4.26-16.67h-5.7v-3.72h6.42c.78-4.26,1.44-8.4,1.86-12.12l3.78.24c-.48,3.72-1.2,7.74-2,11.88h7.44l.66-.12Zm-11.16,3.42c-1.2,5.45-2.52,10.86-3.72,15.23a71.66,71.66,0,0,1,6.6,4.86,72.07,72.07,0,0,0,4.32-20.09Zm35.46-7.32c4.08,5.22,8.34,12.11,10.2,16.73l-3.42,1.68c-.48-1.19-1.2-2.69-2-4.19-22.62,1.62-25.08,1.85-26.76,2.51a20.34,20.34,0,0,0-1.26-3.84c1.14-.24,2.28-1.67,3.84-3.89a100.69,100.69,0,0,0,9.78-17.82l4,1.26a125.32,125.32,0,0,1-11.4,19.49l19.92-1.25a93.49,93.49,0,0,0-6.06-9.18ZM873.9,2023.9H900v23.94h-3.84v-2.46h-18.6V2048H873.9Zm3.66,3.6v14.28h18.6V2027.5Z"/><path d="M927.36,2037.88a9,9,0,1,1-9.06-9A9,9,0,0,1,927.36,2037.88Zm-2.82,0a6.21,6.21,0,1,0-6.24,6.24A6.22,6.22,0,0,0,924.54,2037.88Z"/><rect class="cls-2" x="1113" y="425" width="65" height="126" rx="12"/><path class="cls-1" d="M1132.7,454.82c1.25,1.6,4.9,6.7,5.7,8.05l-2,2.45c-.7-1.5-2.35-4.4-3.75-6.65V485h-3.15V460.57c-1.5,5.05-3.5,9.9-5.55,12.85a14.83,14.83,0,0,0-1.75-3.1c2.9-4,5.8-11.5,7.2-18h-6.2v-3.15h6.3v-9.65h3.15v9.65h5.45v3.15h-5.45Zm19.1.7a19.47,19.47,0,0,0,.45,2.65c-10.15,2.7-11.6,3.15-12.5,3.75a12.13,12.13,0,0,0-1.1-3.2c.7-.2,1.55-.5,1.55-2.2v-16.7h3.25v6.5h8.35v2.9h-8.35v8.3Zm2.35,5.5-2,3.75h12.65V485h-3.4v-1.75h-17v2h-3.3V464.77h7.9c.55-1.5,1.2-3.25,1.55-4.6Zm7.3,6.5h-17v5.05h17Zm0,13v-5.3h-17v5.3Zm2.25-22.4c1.25,0,1.5-.75,1.65-5.25a9.16,9.16,0,0,0,2.85,1.25c-.3,5.45-1.2,6.95-4.15,6.95h-5.85c-3.65,0-4.55-.95-4.55-4.45V439.87h3.25v6.5h10.2v2.9h-10.2v7.35c0,1.3.25,1.5,1.65,1.5Z"/><path class="cls-1" d="M1167.55,514.87v2.5H1123.4v-2.5h20.25v-3.2H1126.8v-2.3h16.85v-3H1128.2v-2.25h15.45v-3.2H1123.5v-2.5h20.15v-3.05H1128.8V493h14.85v-3.55h3.25V493h14.45v5.4h6.15v2.5h-6.15v5.45H1146.9v3h17.3v2.3h-17.3v3.2Zm-37.75,5h31.75v15.25h-3.25v-1.6H1133v1.7h-3.2Zm3.2,2.4v3.2h25.3v-3.2Zm25.3,8.85v-3.4H1133v3.4Zm-11.4-32.7h11.15v-3.05H1146.9Zm0,5.7h11.15v-3.2H1146.9Z"/><rect class="cls-2" x="1113" y="1189" width="65" height="271" rx="12"/><path class="cls-1" d="M1158.05,1228.79a27.61,27.61,0,0,0,11.5,8.1,11.65,11.65,0,0,0-2.15,2.55,30.77,30.77,0,0,1-12.8-10.65h-15.95a34.39,34.39,0,0,1-13,11.3,11.43,11.43,0,0,0-2.15-2.55,30.39,30.39,0,0,0,11.6-8.75H1124v-2.85h10v-16.15h-7.7V1207h7.7v-5h3.3v5h18.55v-5h3.35v5h7.65v2.8h-7.65v16.15h9.8v2.85Zm-10,14.5h17.3v2.85H1127.8v-2.85h16.9v-5.6h-10.45v-2.8h10.45v-4.4h3.35v4.4h10.65v2.8h-10.65Zm-10.8-33.5v3.6h18.55v-3.6Zm0,9.8h18.55v-3.65h-18.55Zm0,6.35h18.55v-3.8h-18.55Z"/><path class="cls-1" d="M1142.25,1270.54s0,1.15,0,1.55c-.6,15.85-1.2,21.2-2.6,23a3.71,3.71,0,0,1-2.8,1.45,32.65,32.65,0,0,1-4.45,0,9.25,9.25,0,0,0-.85-3c1.75.15,3.2.15,3.9.15a1.42,1.42,0,0,0,1.45-.65c1-1.2,1.6-6,2.15-19.35h-6.8c-.55,10-2,18.25-6.45,23.65a9.53,9.53,0,0,0-2.55-2.35c5.45-6.45,5.9-17.85,6.1-31.55h-5.2v-3.1h20.1v3.1h-11.65c0,2.45-.1,4.85-.2,7.15Zm-7.9-10.45a33.47,33.47,0,0,0-4.25-7.15l2.9-1.15a31.92,31.92,0,0,1,4.4,7Zm23.85-7.45a15.26,15.26,0,0,1-.85,2.55c2.65,5.45,7.7,11.35,12.45,14a13,13,0,0,0-2.45,2.75c-4.25-2.7-8.5-8-11.4-13.3a32.61,32.61,0,0,1-11,13.6,12.79,12.79,0,0,0-2.35-2.65c5.85-3.6,10.35-10.2,12.5-17.85Zm-8.3,32.45a74,74,0,0,1,13.6,8.25l-2.25,2.9c-2.85-2.6-8.75-6.3-13.4-8.65Zm9.5-4.85a66.22,66.22,0,0,0-8.6-6.85l2.15-2.2a67.46,67.46,0,0,1,8.75,6.55Z"/><path class="cls-1" d="M1165,1305.19v29.3h-3.5v-2.55h-13.3v15.6h-3.45v-15.6h-13.4v2.75H1128v-29.5Zm-33.65,3.2V1317h13.4v-8.65Zm13.4,20.35v-8.5h-13.4v8.5Zm16.75-20.35h-13.3V1317h13.3Zm0,20.35v-8.5h-13.3v8.5Z"/><path class="cls-1" d="M1167.25,1367.09v9.3h-3.15V1370h-35.4v6.4h-3v-9.3h6.95v-12.95h27.7v12.95Zm-6.45,26.6c0,1.85-.45,2.7-1.85,3.2s-3.9.5-7.7.45a8.57,8.57,0,0,0-1.1-2.75c3,.05,5.65.05,6.4.05s1-.25,1-1v-6.2c-7.3,1.45-14.85,3-20.45,4l-1.1-3c5.4-.8,13.6-2.3,21.55-3.75V1376h-22.2v5.3c0,4.85-.65,11.55-4.35,16.2a13.29,13.29,0,0,0-2.7-2c3.45-4.25,3.85-10,3.85-14.25v-8h28.6Zm-25-26.6h7.45v-6.9H1157v-3.35h-21.2Zm2.45,11.7a75.14,75.14,0,0,1,17.7,3l-.9,2.6c-4-1.5-11.7-2.9-17.7-3.35Zm18.75-16.3h-10.75v4.6H1157Z"/><path class="cls-1" d="M1161,1414.09a51.83,51.83,0,0,1-12,19.6,49.94,49.94,0,0,0,20.5,10.5,16.79,16.79,0,0,0-2.25,3,50.92,50.92,0,0,1-20.75-11.1c-5.65,5-12.55,8.6-21,11.3a15.53,15.53,0,0,0-2-3.05c8.35-2.45,15.1-5.9,20.6-10.6a57.05,57.05,0,0,1-12.2-19.65h-7.75v-3.25h44.75v3.25Zm-25.75,0a52.13,52.13,0,0,0,11.3,17.3,47.46,47.46,0,0,0,10.7-17.3Zm11.25-3.55a38.13,38.13,0,0,0-3.8-7.8l3.4-1a39,39,0,0,1,4,7.65Z"/><path d="M595.81,1195.45a221.61,221.61,0,0,1,25.4,16.88l-5.16-4A226,226,0,0,1,656.58,1249l-4-5.16a250.7,250.7,0,0,1,31.84,54.9l-2.57-6.09c10.63,25.24,18,51.94,22.94,78.84q2.15,11.67,3.72,23.42l-.91-6.78a635.12,635.12,0,0,1,5,88.7c-.23,29.51-2,59-4.27,88.42-1.28,16.55-2.73,33.09-4.17,49.62-.53,6.18,3.23,13.8,7.47,18,4.43,4.43,11.68,7.76,18,7.47,6.6-.29,13.44-2.46,18-7.47l4-5.16a25.27,25.27,0,0,0,3.48-12.87c2.9-33.35,5.85-66.72,7.39-100.17s1.67-67.15-1.15-100.6c-3-35.56-8.83-71.09-19.55-105.17-9.23-29.38-21.77-58-39.62-83.23a264.31,264.31,0,0,0-31.51-37.31,251.6,251.6,0,0,0-39.42-31.08c-3.21-2-6.47-4-9.77-5.89a26.52,26.52,0,0,0-19.65-2.57c-5.92,1.63-12.33,6.2-15.24,11.72-3.13,5.92-4.69,13.09-2.57,19.65,2,6.29,5.85,11.9,11.72,15.24Z"/><line class="cls-3" x1="607.52" y1="1173.75" x2="444.84" y2="1401.25"/><line class="cls-3" x1="745.16" y1="1162.71" x2="484.51" y2="1162.4"/><line class="cls-3" x1="702.84" y1="1020.03" x2="518.96" y2="1020"/></svg>