<svg id="Layer_1" data-name="Layer 1" xmlns="http://www.w3.org/2000/svg" viewBox="0 0 1242 2208"><defs><style>.cls-1{fill:#f6eabe;}.cls-2{fill:#999;}.cls-3{fill:none;stroke:#000;stroke-linecap:round;stroke-miterlimit:10;stroke-width:50px;}</style></defs><rect class="cls-1" width="1242" height="2208"/><path d="M890.16,809.55c34.14,0,39.7-19.85,43.67-142.13,11.91,9.53,34.14,18.26,48.44,22.23-5.56,135.78-20.65,169.92-88.93,169.92H771.06c-68.28,0-88.13-17.47-88.13-81V513.39H536.84c-14.29,174.68-54,291.39-246.93,353.32-5.56-14.29-21.44-34.93-34.15-46.05,180.24-52.4,212.79-154,223.91-307.27H353.43V187.06h540.7V513.39h-158v266c0,25.4,7.15,30.17,40.49,30.17ZM406.62,461H838.55V239.46H406.62Z"/><path d="M168.38,1810.49H153.56v35.15h-4v-38.87h18.78Z"/><path d="M221.6,1813.67v46.49h-4.26v-4.86H181.4v5.16h-4.08v-46.79Zm-4.26,37.61v-33.59H181.4v33.59Z"/><path d="M230.3,1858.84h14.82v-35.15h4v38.87H230.3Z"/><path d="M282.5,1820.62a67.64,67.64,0,0,1-7.2,12.25v28.85h-4v-24a41.57,41.57,0,0,1-7.26,6.41,17,17,0,0,0-2-3.48c7-5,12.3-12.23,16.14-20H263.36v-3.83H279.8a65.25,65.25,0,0,0,3.3-9.42l4.08,1c-.9,2.82-1.86,5.64-3,8.4h31.26v3.83Zm32.94,36.24v3.72H279.32v-3.72h16v-17.52H281.66v-3.72h13.68v-11.81h4v11.81h13.8v3.72H299.3v17.52Z"/><path d="M376.1,1855.18v4H322.64v-4h22.62v-46.85h4.14v18.54H372v4H349.4v24.3Z"/><path d="M383.3,1860.7c4.68-2,7.26-4.92,7.56-9.18a7.35,7.35,0,0,1-1.14.12c-2.34,0-4.26-1.38-4.26-4.08a4,4,0,0,1,4.32-4.14c3.18,0,4.86,2.64,4.86,6.66,0,6.48-4,11.28-10.08,13.44Z"/><path d="M438.38,1810.49H423.56v35.15h-4v-38.87h18.78Z"/><path d="M459.08,1809.83v19.38c0,12.11-1.5,24.29-14.7,32.87a14.85,14.85,0,0,0-2.82-3.06c12.18-7.86,13.62-19,13.62-29.81v-19.38Zm22.32-.06v44.57c0,2.76.42,3.24,2.4,3.24h6.6c2.16,0,2.52-2.58,2.76-12.66a9.67,9.67,0,0,0,3.72,1.8c-.42,11-1.32,14.64-6.24,14.64h-7.32c-4.62,0-5.94-1.5-5.94-7.08v-44.51Z"/><path d="M500.3,1858.84h14.82v-35.15h4v38.87H500.3Z"/><path d="M555.5,1806.17l3.24,1.74c-7.08,7.26-11.28,16.2-11.28,26.76s4.2,19.49,11.28,26.75l-3.24,1.74c-7.32-7.5-11.94-17-11.94-28.49S548.18,1813.67,555.5,1806.17Z"/><path d="M580.52,1847.26a24.31,24.31,0,0,0,1.56,3.3c-9.36,7.62-10.8,8.82-11.64,10v.06a12.16,12.16,0,0,0-2.16-2.82,7.29,7.29,0,0,0,2.82-5.58V1830H562v-3.84h12.78v25.61Zm-5.34-26.69a76.72,76.72,0,0,0-9.12-9.12l2.52-2.58c3.24,2.64,7.38,6.3,9.24,8.76Zm24.9,25.55c-2.22,5.88-7.2,11.7-18.3,16.14a11.05,11.05,0,0,0-2.46-3.06c9.54-3.66,14.22-8.34,16.5-13.08H580.28v-3.54h16.8a28.24,28.24,0,0,0,.78-7.25v-7.21h3.9v7.32a33,33,0,0,1-.66,7.14h14.82v3.54Zm7.62-13.32a53,53,0,0,0,2.82-7.19h-29v-3.49h14.7v-5.63H583.76V1813h12.42v-5.64h3.9V1813h12.6v3.48h-12.6v5.63H612l.66-.17,2.52.72a89.59,89.59,0,0,1-4.2,11Zm-23.94.78a39.45,39.45,0,0,1,8.76,5.94l-1.92,2.4a37,37,0,0,0-8.82-6.17Zm11,2.71a42.08,42.08,0,0,0-8.58-6.07l1.86-2a40.88,40.88,0,0,1,8.7,5.76Zm8,12.29c4.86,3.24,10.92,7.8,13.8,11L614,1862.2a86.82,86.82,0,0,0-13.68-11.34Z"/><path d="M625,1825.07h4l.48,5.93h.18c2.22-4.08,5.52-6.77,9.18-6.77a7,7,0,0,1,3.42.72l-1,4.26a8.2,8.2,0,0,0-3.06-.54c-2.76,0-6.12,2-8.34,7.67v21.12H625Z"/><path d="M644.6,1841.26c0-10.5,7-17,14.46-17,8.1,0,12.78,5.81,12.78,15.17a14.19,14.19,0,0,1-.24,2.94H649.46c.3,7.2,4.62,12,11.1,12a14.28,14.28,0,0,0,8.22-2.64l1.8,3.24a18.91,18.91,0,0,1-10.62,3.3C651.44,1858.24,644.6,1851.94,644.6,1841.26Zm22.92-2.51c0-6.91-3.12-10.57-8.4-10.57-4.8,0-9.06,3.9-9.72,10.57Zm-12.24-22.08,9.36-11,3.42,3.24-10.2,10.19Z"/><path d="M680.06,1825.07h4l.48,4.73h.18c3.12-3,6.48-5.57,10.92-5.57,6.78,0,9.9,4.38,9.9,12.65v20.58h-4.92v-20c0-6.23-1.92-9-6.42-9-3.42,0-5.88,1.8-9.24,5.27v23.7h-4.86Z"/><path d="M714.62,1860.7c4.68-2,7.26-4.92,7.56-9.18a7.35,7.35,0,0,1-1.14.12c-2.34,0-4.26-1.38-4.26-4.08a4,4,0,0,1,4.32-4.14c3.18,0,4.86,2.64,4.86,6.66,0,6.48-4,11.28-10.08,13.44Z"/><path d="M795.26,1856.8c0,2.58-.72,3.84-2.4,4.5s-4.74.78-9.9.78a14.91,14.91,0,0,0-1.5-3.9c3.9.12,7.38.12,8.4.06s1.5-.42,1.5-1.44v-42.53H750.08v47.87h-3.9v-51.65h49.08ZM786,1824.41H755.6v-3.48H786Zm-23.64,25.31v4.44h-3.72V1831h24v18.77Zm0-15.35v11.93h16.56v-11.93Z"/><path d="M829.7,1810.49H814.88v35.15h-4v-38.87H829.7Z"/><path d="M862.94,1807.55c-.06,2.1-.12,5.1-.42,8.64.9,7,4.56,32.51,25.74,42a12.63,12.63,0,0,0-2.88,3.36c-15.42-7.26-21.72-22.74-24.6-34-2.64,12.23-8.94,26.33-24.06,34.19a13.77,13.77,0,0,0-3.12-3.06c25-12.48,24.78-42.11,25-51.11Z"/><path d="M891.62,1858.84h14.82v-35.15h4v38.87H891.62Z"/><path d="M924.5,1863.16l-3.24-1.74c7.08-7.26,11.28-16.2,11.28-26.75s-4.2-19.5-11.28-26.76l3.24-1.74c7.32,7.5,11.94,17,11.94,28.5S931.82,1855.66,924.5,1863.16Z"/><path d="M973.82,1820.62a67.64,67.64,0,0,1-7.2,12.25v28.85h-4v-24a41.57,41.57,0,0,1-7.26,6.41,17,17,0,0,0-2-3.48c7-5,12.3-12.23,16.14-20H954.68v-3.83h16.44a65.25,65.25,0,0,0,3.3-9.42l4.08,1c-.9,2.82-1.86,5.64-3,8.4h31.26v3.83Zm32.94,36.24v3.72H970.64v-3.72h16v-17.52H973v-3.72h13.68v-11.81h4v11.81h13.8v3.72h-13.8v17.52Z"/><path d="M1041.62,1815.71v10.86l.66-.78c7.32,3.54,16.74,8.93,21.54,12.53l-2.76,3.6c-4.2-3.42-12.48-8.46-19.44-12.12v32.1h-4.2v-46.19H1014.2v-4h53v4Z"/><path d="M1074.62,1860.7c4.68-2,7.26-4.92,7.56-9.18a7.35,7.35,0,0,1-1.14.12c-2.34,0-4.26-1.38-4.26-4.08a4,4,0,0,1,4.32-4.14c3.18,0,4.86,2.64,4.86,6.66,0,6.48-4,11.28-10.08,13.44Z"/><path d="M369.14,1881.05c-.54.78-1.08,1.62-1.74,2.4,5.4,5.76,15.18,12.47,25,16a17.52,17.52,0,0,0-2.82,3.47,75.67,75.67,0,0,1-24.42-16.73A64.51,64.51,0,0,1,351,1898H379.4v3.72H350.78v-3.6a82.62,82.62,0,0,1-10,5.46,19,19,0,0,0-2.88-3.42c11.76-5,22.14-12.59,27.42-20.69Zm-28.62,28.37h49.32v3.84H363.38a113.31,113.31,0,0,1-12.6,14.34l28.26-2.22c-2.34-2.64-4.86-5.34-7.26-7.62l3.36-1.74c5.34,4.74,11,11.28,13.68,15.78l-3.54,2.1a37.32,37.32,0,0,0-3.42-5c-32,2.7-35.22,2.94-37.32,3.72-.24-.84-.9-3-1.38-4.14,1.26-.18,2.58-1.38,4.5-3.18A95.51,95.51,0,0,0,358,1913.26H340.52Z"/><path d="M399.08,1930.48c3.06-2.58,5.64-7,7.08-10.44l3.3,1.5c-1.68,3.6-4.08,8-7.14,10.86Zm51.72-36.9v3.25H399.56v-3.25h14.16a23.89,23.89,0,0,0-2.34-5.45l3.36-.84H402.26V1884h21.9c-.72-1.44-1.56-2.94-2.34-4.2l3.78-.9a39.9,39.9,0,0,1,2.94,5.1h19.2v3.3H435.86l3.24.78c-1,1.92-2,3.84-3,5.51Zm-7,23.7H422.66a47.07,47.07,0,0,1,8.82,6.24L429,1926a48.61,48.61,0,0,0-9.3-6.9l2-1.8H406.58V1900h37.2Zm-3.9-14.45H410.36v4.43h29.52Zm0,7.13H410.36v4.44h29.52Zm-8.22,20.16c2.58,0,3-.72,3.24-6.24a12.08,12.08,0,0,0,3.54,1.38c-.48,6.66-1.74,8.22-6.42,8.22H420.44c-5.82,0-7.38-1-7.38-5v-8H417v8c0,1.38.54,1.68,3.72,1.68ZM415,1887.29a26.19,26.19,0,0,1,2.76,6.18l-.48.11H432a59.18,59.18,0,0,0,3.06-6.29Zm27.66,32.21a46.55,46.55,0,0,1,8,10.2l-3.36,1.74a49,49,0,0,0-7.8-10.56Z"/><path d="M512.36,1903.91v4.31H457.88v-4.31Z"/><path d="M549,1881c-.48.9-1,1.74-1.56,2.58,7.26,9,15.78,14.93,25.44,19.73a12.66,12.66,0,0,0-2.88,3.54c-9.3-5-17.28-10.85-24.9-20.15a71,71,0,0,1-24.66,20,17.42,17.42,0,0,0-2.94-3.47c11.22-5,22-13.92,28-23.88Zm-6,15.66H547V1934H543Z"/><path d="M607.28,1879.55c-.06,2.1-.12,5.1-.42,8.64.9,7,4.56,32.51,25.74,42a12.63,12.63,0,0,0-2.88,3.36c-15.42-7.26-21.72-22.74-24.6-34-2.64,12.23-8.94,26.33-24.06,34.19a13.77,13.77,0,0,0-3.12-3.06c25-12.48,24.78-42.11,25-51.11Z"/><path d="M656.9,1909.12s-.06,1.2-.12,1.74c-.72,14.1-1.5,19.2-3.12,20.94a5,5,0,0,1-3.9,1.62,63.71,63.71,0,0,1-7.5-.06,9,9,0,0,0-1.26-3.54c3.12.24,6.12.24,7.2.24a2.36,2.36,0,0,0,2.1-.6c1.14-1.08,1.8-5.52,2.4-16.68h-10v-.06h-2c.66-4.55,1.38-11.93,1.68-17.57H652.7v-9.66H640.88v-3.72h15.66v17.15H645.8c-.3,3.42-.6,7.08-1,10.2Zm21.42-2.58c2.58,10.32,7.5,19.2,14.7,23.4a13.85,13.85,0,0,0-2.76,3.18c-7.74-5.1-13-14.94-15.72-26.58h-6.18v21.18l9.42-3.6a22.47,22.47,0,0,0,.24,3.66c-11.94,5-13.56,5.76-14.52,6.6a13.5,13.5,0,0,0-1.74-3.48,4.17,4.17,0,0,0,2.7-4v-20.4h-6.9v-3.83h6.9v-22.2h3.9v22.2h23.88v3.83Zm11.4-23.33a54.1,54.1,0,0,1-16,17.51,22.71,22.71,0,0,0-3.06-2.64,44.89,44.89,0,0,0,15.12-16Z"/><path d="M747.26,1885.67v46.49H743v-4.86H707.06v5.16H703v-46.79ZM743,1923.28v-33.59H707.06v33.59Z"/><path d="M777.86,1917.58a28,28,0,0,0,1.38,3.48c-11,8-12.6,9.24-13.44,10.32a13.2,13.2,0,0,0-2.28-3.54c1.14-.78,3.36-2.76,3.36-5.34V1902h-8.94v-3.89h13v24.29Zm-6.66-24.83a77,77,0,0,0-9.06-9.66l2.64-2.4a77.64,77.64,0,0,1,9.18,9.18Zm35.52,36.65c1.5,0,1.8-1,1.92-7.38a13.91,13.91,0,0,0,3.6,1.56c-.42,7.62-1.44,9.54-5.1,9.54h-6.3c-4.26,0-5.28-1.2-5.28-5.46V1910h-5.64c-1,11.52-3.54,19.56-14.52,24.06A9.87,9.87,0,0,0,773,1931c10-3.78,12.18-11,12.9-21h-7.74v-18.65H796.4a91.89,91.89,0,0,0,5.22-12l4.08,1.32c-1.56,3.54-3.36,7.5-5,10.68H807V1910h-7.5v17.64c0,1.5.24,1.74,1.86,1.74Zm-20.58-38.15a43.6,43.6,0,0,0-5.34-10.32l3.3-1.38a44,44,0,0,1,5.7,10.14ZM782,1906.42h21V1895H782Z"/><path d="M836.54,1918.84a21.3,21.3,0,0,0,1.56,3.3c-10,7.68-11.58,8.94-12.48,10.14a15.55,15.55,0,0,0-2.34-3.18,7.64,7.64,0,0,0,3.12-5.7V1902h-8.52v-3.84h12.3v25.43Zm-6.72-26.57a67.47,67.47,0,0,0-8.52-8.82l2.58-2.4a64.48,64.48,0,0,1,8.64,8.4Zm26.46,9.3v10.31h12.36v21.9h-4.08v-2.22H844V1934h-4v-22.14h12.24v-10.31H837.08v-3.78h15.24v-11.22c-4.74.78-9.66,1.32-14.22,1.74a19.51,19.51,0,0,0-1.2-3.24c10.26-1.08,22.56-3.06,29.28-5.28L869,1883a100.7,100.7,0,0,1-12.72,2.94v11.88h16v3.78Zm8.28,14H844v12.36h20.52Z"/><path d="M896.36,1923.88a9,9,0,1,1-9.06-9A9,9,0,0,1,896.36,1923.88Zm-2.82,0a6.21,6.21,0,1,0-6.24,6.24A6.22,6.22,0,0,0,893.54,1923.88Z"/><path d="M142.1,1966.12v13.32h18.12v26.4H156v-3H124.1v3.24H120v-26.64H137.9v-13.32H113.48v-3.89H137.9v-10.92h4.2v10.92h24.6v3.89Zm13.86,17.1H124.1V1999H156Z"/><path d="M193.52,1994.92H179v4.8h-3.78v-43.31h18.3ZM179,1960v13.61h10.74V1960Zm10.74,31.31v-14.15H179v14.15Zm37.62-23.93h-7.44v32.39c0,3.06-.84,4.26-2.88,4.92s-5.76.78-11.76.72a16.91,16.91,0,0,0-1.5-4.08c4.8.18,9.12.18,10.44.06s1.74-.42,1.74-1.62v-32.39H196.28v-3.9H216v-11.82h4v11.82h7.44Zm-19.56,21.47a163.47,163.47,0,0,0-9.18-14.76l3.24-1.73c3.24,4.67,7.38,10.85,9.48,14.45Z"/><path d="M280.34,2001.7c2.58,0,3-1.5,3.3-10.74a11.92,11.92,0,0,0,3.66,1.68c-.42,10.26-1.56,12.84-6.72,12.84h-9.24c-5.16,0-6.66-1.32-6.66-6.12v-20h-11c-1.08,13.19-4.08,22-18.66,26.69a11,11,0,0,0-2.58-3.48c13.62-4,16.08-11.64,16.92-23.21h-9.54v-24.66h40.86v24.66H268.7v20.09c0,1.92.54,2.28,3.06,2.28Zm-36.54-26.33h32.64v-16.74H243.8Z"/><path d="M323.18,1978.79a37.53,37.53,0,0,0,24.6,21.83,15.05,15.05,0,0,0-2.76,3.66c-12.36-4.14-21.12-13.08-25.92-25.49h-9.72v20.93l14.7-3.78a17.38,17.38,0,0,0,.36,3.72c-16.38,4.44-18.48,5.16-19.86,6.06a16.15,16.15,0,0,0-1.62-3.6,3.58,3.58,0,0,0,2.28-3.54v-19.79H293.6v-4h11.64v-23.16h4.14v23.16h37.08v4Zm17-24.42c-5.88,7-14.94,13.2-23.16,17.21a21.52,21.52,0,0,0-3.3-3.12c8.52-3.59,17.22-9.41,22.56-15.71Z"/><path d="M373.76,1963c-1.14,2.46-2.46,5-3.84,7.31h29.16v30.54c0,2.52-.6,3.72-2.46,4.38s-5.16.66-10.38.66a16.63,16.63,0,0,0-1.32-3.9c4.14.18,7.8.12,8.82.12s1.44-.42,1.44-1.32v-6.66H369.5V2006h-3.9V1976.5a50.45,50.45,0,0,1-10.32,10,17.88,17.88,0,0,0-2.58-3.06c7.26-5,12.84-12.41,16.74-20.45H354.08v-3.78h17a56.88,56.88,0,0,0,2.64-7.8l4,.9c-.72,2.34-1.5,4.62-2.4,6.9h30.78V1963Zm21.42,10.92H369.5v6.53h25.68Zm0,16.73v-6.72H369.5v6.72Z"/><path d="M425.6,1966.07H413.54v-3.3h11.52v-11.46h3.84v3.84h10.5v3H428.9v4.62h12.78v3.3H429.32v12.41H425.6Zm-3.12,2a33.51,33.51,0,0,1-5.94,9.89,15.83,15.83,0,0,0-2.76-1.86,24.51,24.51,0,0,0,5.4-8.81Zm-1,11.64H458.6v26h-3.9V2004H425.3v2h-3.78Zm3.78,3.11v4.08h29.4v-4.08Zm29.4,11v-4.26H425.3v4.26Zm0,7v-4.26H425.3v4.26Zm-19.86-33.59a28,28,0,0,1,5.34,6.9l-2.94,1.55a35.05,35.05,0,0,0-5.28-7.14Zm29.28-12.3a34.7,34.7,0,0,1-8.76,15,31.85,31.85,0,0,0,11.16,6.12,16.67,16.67,0,0,0-2.46,3.18,33.88,33.88,0,0,1-11.34-6.89,39.42,39.42,0,0,1-11.22,6.35,13.61,13.61,0,0,0-2.1-2.93,35.24,35.24,0,0,0,10.8-6,41.4,41.4,0,0,1-7.62-12.29l.42-.12h-2.1v-3.3h20.16l.72-.12Zm-18.06,2.46a34.68,34.68,0,0,0,6.66,10.14,31.33,31.33,0,0,0,6.78-10.14Z"/><path d="M526.76,1993.06H502v13H497.9v-13H473.24v-3.72H497.9v-5.1H502v5.1h24.72Zm-37.56-15.48c-4.56,2.46-9.54,5.1-13.44,7l-2.1-3.18c3.72-1.56,9.3-4.25,14.7-6.89Zm20.7,7.44a28,28,0,0,0-1.68-3.18c-16,1.5-18,1.8-19.2,2.34a30.28,30.28,0,0,0-1.14-3.54c1.32-.18,2.82-1.31,4.86-3a94.87,94.87,0,0,0,7-6.53c-7.38.6-8.7.89-9.48,1.26a27.22,27.22,0,0,0-1.2-3.49,5.36,5.36,0,0,0,2.64-1.92,48,48,0,0,0,4.86-6.47h-22.2v-3.66h24.9a43.18,43.18,0,0,0-2.88-4.86l3.78-1.08a32.54,32.54,0,0,1,3.66,5.94h22.44v3.66h-25.5a57.39,57.39,0,0,1-6,7.68l8.16-.55a52.28,52.28,0,0,0,4.08-5l3.3,1.92a120.14,120.14,0,0,1-15.54,15.36l11.46-.95c-1-1.45-2.16-2.83-3.18-4l3-1.26c2.7,3,5.82,7.21,7,9.9Zm-25.38-12.6a54.11,54.11,0,0,0-9.06-7.07l2.64-2.16a58.27,58.27,0,0,1,9.24,6.77Zm37.86,13a72.08,72.08,0,0,0-11.76-8.51l2.82-2.16a80,80,0,0,1,11.94,8.21ZM523,1965a67,67,0,0,1-9,7.57l-2.94-1.92a56,56,0,0,0,8.64-7.68Z"/><path d="M585,1985.74c-.84,9.66-1.68,13.68-3.24,15.18a5.11,5.11,0,0,1-3.84,1.56,77.53,77.53,0,0,1-8.1-.12,8,8,0,0,0-1.2-3.78c3.3.3,6.48.36,7.56.36a3.07,3.07,0,0,0,2.28-.54c1-1,1.68-3.84,2.34-10.8H562V2006h-4v-15.48a55.85,55.85,0,0,1-21.72,13.92,15,15,0,0,0-2.76-3.48c8.28-2.46,16.86-7.5,22.08-13.38H537.2a147.85,147.85,0,0,0,3.36-15.06h17.52v-8.27H536.9v-3.72h11.28a45.48,45.48,0,0,0-4.38-7.86l3.66-1.2a43.77,43.77,0,0,1,4.8,8.34l-1.86.72h17.4a63.22,63.22,0,0,0,4.62-9.24l4.2,1.2c-1.38,2.7-3.12,5.7-4.62,8h10.32v15.66H562v7.73H585.2Zm-41.22-9.53c-.54,2.63-1.14,5.33-1.74,7.73h16v-7.73Zm18.24-3.67h16.2v-8.27H562Z"/><path d="M645,1985.74c-.84,9.66-1.68,13.68-3.24,15.18a5.11,5.11,0,0,1-3.84,1.56,77.53,77.53,0,0,1-8.1-.12,8,8,0,0,0-1.2-3.78c3.3.3,6.48.36,7.56.36a3.07,3.07,0,0,0,2.28-.54c1-1,1.68-3.84,2.34-10.8H622V2006h-4v-15.48a55.85,55.85,0,0,1-21.72,13.92,15,15,0,0,0-2.76-3.48c8.28-2.46,16.86-7.5,22.08-13.38H597.2a147.85,147.85,0,0,0,3.36-15.06h17.52v-8.27H596.9v-3.72h11.28a45.48,45.48,0,0,0-4.38-7.86l3.66-1.2a43.77,43.77,0,0,1,4.8,8.34l-1.86.72h17.4a63.22,63.22,0,0,0,4.62-9.24l4.2,1.2c-1.38,2.7-3.12,5.7-4.62,8h10.32v15.66H622v7.73H645.2Zm-41.22-9.53c-.54,2.63-1.14,5.33-1.74,7.73h16v-7.73Zm18.24-3.67h16.2v-8.27H622Z"/><path d="M669,1952c-1,2.94-2.1,6.3-3.18,8.88H676v38.75h-16.8v4.8h-3.66v-43.55h6.66a64.68,64.68,0,0,0,2.58-9.72Zm3.3,12.47H659.18v13.08h13.14Zm0,31.56v-14.88H659.18v14.88Zm33.06-33.17c-1,27.53-1.8,36.71-4.2,39.59a5.6,5.6,0,0,1-4.56,2.28,74.94,74.94,0,0,1-8.82-.12,9.42,9.42,0,0,0-1.32-3.9c3.9.36,7.5.36,8.82.36s1.92-.12,2.52-.9c2-2.1,2.94-11.34,3.72-35.7H685.82a55.33,55.33,0,0,1-5.64,10.68,36.22,36.22,0,0,0-3.36-2.22c4.08-5.34,7.32-13.61,9.18-21.89l3.84.84c-.78,3-1.62,6-2.64,8.88h18.18Zm-12.78,27a106.51,106.51,0,0,0-9.3-13.92l3.06-1.79a102.47,102.47,0,0,1,9.6,13.61Z"/><path d="M766.46,1970.75V1974h-52.8v-3.24H738v-4.44H719.84v-3.06H738v-4.2H717.08v-3.18H738v-4.44h4v4.44H763.4v3.18H742v4.2h18.9v3.06H742v4.44ZM742,1988.5c0,5.88-2.52,13-25.2,17.52a12,12,0,0,0-2.46-3.18c21.84-3.9,23.52-9.9,23.52-14.4v-5.1H742Zm12.72,6.6v-13.92H725.54v14.22h-4v-17.64h37.32v17.34Zm-11.28-.78c7.44,2.1,17.22,5.7,22.44,8.46l-2.1,3.36c-5-2.82-14.76-6.66-22.26-8.94Z"/><path d="M791.9,1952.51a94.62,94.62,0,0,1-6.48,12.78V2006h-4v-34.79a70.39,70.39,0,0,1-7.38,8.57,27.79,27.79,0,0,0-2.58-3.89c6.6-6,12.78-15.06,16.56-24.6Zm18.24,28.32v19H826.4v3.84h-36v-3.84h15.72v-19h-18V1977h18v-16.32c-4.92.84-10,1.56-14.76,2.16a14.07,14.07,0,0,0-1.2-3.36c11.22-1.5,24.42-3.9,31.68-6.54l2.94,3.3a120.25,120.25,0,0,1-14.64,3.72v17h17.28v3.84Z"/><path d="M834,2004.7c4.68-2,7.26-4.92,7.56-9.18a7.35,7.35,0,0,1-1.14.12c-2.34,0-4.26-1.38-4.26-4.08a4,4,0,0,1,4.32-4.14c3.18,0,4.86,2.64,4.86,6.66,0,6.48-4,11.28-10.08,13.44Z"/><path d="M912.74,1966.25c-1.62,10.08-4.32,18.11-8.46,24.53a31.46,31.46,0,0,0,13.38,11.88,16.83,16.83,0,0,0-2.76,3.36,34.45,34.45,0,0,1-13.08-11.88,41.66,41.66,0,0,1-16,11.94,19,19,0,0,0-2.34-3.54,36.35,36.35,0,0,0,16.2-11.88A75.18,75.18,0,0,1,893,1972.3a42.79,42.79,0,0,1-4.5,7.5,21.27,21.27,0,0,0-2.16-1.68v21H869.12v4.32h-3.78v-25.38h8.52v-11.21h-11v-3.78h11v-11.76h4v11.76h10.92v3.78H877.82v11.21h8.46c-.42-.3-.84-.6-1.14-.77,5.1-6.12,8.52-15.84,10.44-25.92l4,.6a98.55,98.55,0,0,1-2.7,10.44H917.3v3.84Zm-30.18,15.59H869.12v13.5h13.44Zm12.9-15.3a71,71,0,0,0,6.66,20.52c3.24-5.64,5.34-12.48,6.6-20.81H895.58Z"/><path d="M947.48,1991.62a99.92,99.92,0,0,0-9.3-14.87c-2,12-5.34,21.83-11.52,29.21a32.41,32.41,0,0,0-3.78-2.76c9.84-10.56,12.24-28.25,13.26-50.39l4.26.18c-.36,6.66-.84,12.84-1.56,18.54,4.56,5.46,9.42,12.59,11.64,17.33Zm15.78-38.69c-.48,7.14-1.14,13.61-2.1,19.56,2.1,10.13,6.78,23,16,29.27a24.62,24.62,0,0,0-2.88,3.54c-7.56-5.82-12.12-15.66-14.76-24.59-2.52,10.43-6.6,18.71-13.44,25a28,28,0,0,0-3.78-2.76c12.06-10,15.3-27.24,16.62-50.21Z"/><path d="M1009,1954.49H994.22v35.15h-4v-38.87H1009Z"/><path d="M1062.26,1957.67v46.49H1058v-4.86h-35.94v5.16H1018v-46.79Zm-4.26,37.61v-33.59h-35.94v33.59Z"/><path d="M1071,2002.84h14.82v-35.15h4v38.87H1071Z"/><path d="M1121.36,1995.88a9,9,0,1,1-9.06-9A9,9,0,0,1,1121.36,1995.88Zm-2.82,0a6.21,6.21,0,1,0-6.24,6.24A6.22,6.22,0,0,0,1118.54,1995.88Z"/><path d="M491.9,2040.17c4.44,10.31,12.24,20,20.76,24.71a23.11,23.11,0,0,0-3.06,3.36c-9-5.58-16.92-16.32-21.6-28.07h-1v22.43h14.28v4H487V2078H482.9v-11.4H468.68v-4H482.9v-22.43h-1.08c-4.74,11.75-12.66,22.43-21.3,28.25a24.18,24.18,0,0,0-2.88-3.18c8-4.92,15.66-14.76,20.16-25.07H459.14v-4H482.9v-12.72H487v12.72h24v4Z"/><path d="M566.6,2029.07c-4.32,12.12-10.08,22.68-18.6,31.25a65.72,65.72,0,0,0,24.42,14.1,17.56,17.56,0,0,0-2.76,3.54A66.69,66.69,0,0,1,545,2063.2a72.92,72.92,0,0,1-25.38,14.7,14.53,14.53,0,0,0-2.16-3.36,69.86,69.86,0,0,0,24.78-14.1,89.37,89.37,0,0,1-18.18-29.27l3.6-1.08a80.51,80.51,0,0,0,17.52,27.53c8.16-8.21,13.62-18.41,17.4-29.87ZM546,2039a102.25,102.25,0,0,0-5.88-14.45l3.42-1.38a105.48,105.48,0,0,1,6.06,14.28Z"/><path d="M607.46,2072.62a70.7,70.7,0,0,0,7.38.36c2.1.06,14.76,0,17.58-.06a16.36,16.36,0,0,0-1.44,3.84H614.72c-12.3,0-19.92-1.92-24.72-10.38a31.55,31.55,0,0,1-9.48,11.7,19.84,19.84,0,0,0-3.06-2.82c6.3-4.14,10.2-10.92,11.82-19.86l4,.6a55.92,55.92,0,0,1-1.5,6.06c2.34,5.64,6.3,8.52,11.7,9.84v-18.54H578.72v-3.6H631.4v3.6H607.46v7.08h20v3.6h-20Zm17.22-27.17h-39.6v-19.56h39.6Zm-4-16.44H589v5.16h31.68Zm0,8.1H589v5.27h31.68Z"/><path d="M685.34,2073.7c2.58,0,3-1.5,3.3-10.74a11.92,11.92,0,0,0,3.66,1.68c-.42,10.26-1.56,12.84-6.72,12.84h-9.24c-5.16,0-6.66-1.32-6.66-6.12v-20h-11c-1.08,13.19-4.08,22-18.66,26.69a11,11,0,0,0-2.58-3.48c13.62-4,16.08-11.64,16.92-23.21h-9.54v-24.66h40.86v24.66H673.7v20.09c0,1.92.54,2.28,3.06,2.28Zm-36.54-26.33h32.64v-16.74H648.8Z"/><path d="M728.18,2050.79a37.53,37.53,0,0,0,24.6,21.83,15.05,15.05,0,0,0-2.76,3.66c-12.36-4.14-21.12-13.08-25.92-25.49h-9.72v20.93l14.7-3.78a17.38,17.38,0,0,0,.36,3.72c-16.38,4.44-18.48,5.16-19.86,6.06a16.15,16.15,0,0,0-1.62-3.6,3.58,3.58,0,0,0,2.28-3.54v-19.79H698.6v-4h11.64v-23.16h4.14v23.16h37.08v4Zm17-24.42c-5.88,7-14.94,13.2-23.16,17.21a21.52,21.52,0,0,0-3.3-3.12c8.52-3.59,17.22-9.41,22.56-15.71Z"/><path d="M776.36,2067.88a9,9,0,1,1-9.06-9A9,9,0,0,1,776.36,2067.88Zm-2.82,0a6.21,6.21,0,1,0-6.24,6.24A6.22,6.22,0,0,0,773.54,2067.88Z"/><rect class="cls-2" x="1113" y="450" width="65" height="126" rx="12"/><path class="cls-1" d="M1132.7,479.82c1.25,1.6,4.9,6.7,5.7,8.05l-2,2.45c-.7-1.5-2.35-4.4-3.75-6.65V510h-3.15V485.57c-1.5,5.05-3.5,9.9-5.55,12.85a14.83,14.83,0,0,0-1.75-3.1c2.9-4,5.8-11.5,7.2-18h-6.2v-3.15h6.3v-9.65h3.15v9.65h5.45v3.15h-5.45Zm19.1.7a19.47,19.47,0,0,0,.45,2.65c-10.15,2.7-11.6,3.15-12.5,3.75a12.13,12.13,0,0,0-1.1-3.2c.7-.2,1.55-.5,1.55-2.2v-16.7h3.25v6.5h8.35v2.9h-8.35v8.3Zm2.35,5.5-2,3.75h12.65V510h-3.4v-1.75h-17v2h-3.3V489.77h7.9c.55-1.5,1.2-3.25,1.55-4.6Zm7.3,6.5h-17v5.05h17Zm0,13v-5.3h-17v5.3Zm2.25-22.4c1.25,0,1.5-.75,1.65-5.25a9.16,9.16,0,0,0,2.85,1.25c-.3,5.45-1.2,6.95-4.15,6.95h-5.85c-3.65,0-4.55-.95-4.55-4.45V464.87h3.25v6.5h10.2v2.9h-10.2v7.35c0,1.3.25,1.5,1.65,1.5Z"/><path class="cls-1" d="M1167.55,539.87v2.5H1123.4v-2.5h20.25v-3.2H1126.8v-2.3h16.85v-3H1128.2v-2.25h15.45v-3.2H1123.5v-2.5h20.15v-3H1128.8V518h14.85v-3.55h3.25V518h14.45v5.4h6.15v2.5h-6.15v5.45H1146.9v3h17.3v2.3h-17.3v3.2Zm-37.75,5h31.75v15.25h-3.25v-1.6H1133v1.7h-3.2Zm3.2,2.4v3.2h25.3v-3.2Zm25.3,8.85v-3.4H1133v3.4Zm-11.4-32.7h11.15v-3H1146.9Zm0,5.7h11.15v-3.2H1146.9Z"/><rect class="cls-2" x="1113" y="1233" width="65" height="271" rx="12"/><path class="cls-1" d="M1158.05,1272.79a27.61,27.61,0,0,0,11.5,8.1,11.65,11.65,0,0,0-2.15,2.55,30.77,30.77,0,0,1-12.8-10.65h-15.95a34.39,34.39,0,0,1-13,11.3,11.43,11.43,0,0,0-2.15-2.55,30.39,30.39,0,0,0,11.6-8.75H1124v-2.85h10v-16.15h-7.7V1251h7.7v-5h3.3v5h18.55v-5h3.35v5h7.65v2.8h-7.65v16.15h9.8v2.85Zm-10,14.5h17.3v2.85H1127.8v-2.85h16.9v-5.6h-10.45v-2.8h10.45v-4.4h3.35v4.4h10.65v2.8h-10.65Zm-10.8-33.5v3.6h18.55v-3.6Zm0,9.8h18.55v-3.65h-18.55Zm0,6.35h18.55v-3.8h-18.55Z"/><path class="cls-1" d="M1142.25,1314.54s0,1.15,0,1.55c-.6,15.85-1.2,21.2-2.6,23a3.71,3.71,0,0,1-2.8,1.45,32.65,32.65,0,0,1-4.45,0,9.25,9.25,0,0,0-.85-3c1.75.15,3.2.15,3.9.15a1.42,1.42,0,0,0,1.45-.65c1-1.2,1.6-6,2.15-19.35h-6.8c-.55,10-2,18.25-6.45,23.65a9.53,9.53,0,0,0-2.55-2.35c5.45-6.45,5.9-17.85,6.1-31.55h-5.2v-3.1h20.1v3.1h-11.65c0,2.45-.1,4.85-.2,7.15Zm-7.9-10.45a33.47,33.47,0,0,0-4.25-7.15l2.9-1.15a31.92,31.92,0,0,1,4.4,7Zm23.85-7.45a15.26,15.26,0,0,1-.85,2.55c2.65,5.45,7.7,11.35,12.45,14a13,13,0,0,0-2.45,2.75c-4.25-2.7-8.5-8-11.4-13.3a32.61,32.61,0,0,1-11,13.6,12.79,12.79,0,0,0-2.35-2.65c5.85-3.6,10.35-10.2,12.5-17.85Zm-8.3,32.45a74,74,0,0,1,13.6,8.25l-2.25,2.9c-2.85-2.6-8.75-6.3-13.4-8.65Zm9.5-4.85a66.22,66.22,0,0,0-8.6-6.85l2.15-2.2a67.46,67.46,0,0,1,8.75,6.55Z"/><path class="cls-1" d="M1165,1349.19v29.3h-3.5v-2.55h-13.3v15.6h-3.45v-15.6h-13.4v2.75H1128v-29.5Zm-33.65,3.2V1361h13.4v-8.65Zm13.4,20.35v-8.5h-13.4v8.5Zm16.75-20.35h-13.3V1361h13.3Zm0,20.35v-8.5h-13.3v8.5Z"/><path class="cls-1" d="M1167.25,1411.09v9.3h-3.15V1414h-35.4v6.4h-3v-9.3h6.95v-12.95h27.7v12.95Zm-6.45,26.6c0,1.85-.45,2.7-1.85,3.2s-3.9.5-7.7.45a8.57,8.57,0,0,0-1.1-2.75c3,.05,5.65.05,6.4.05s1-.25,1-1v-6.2c-7.3,1.45-14.85,3-20.45,4l-1.1-3c5.4-.8,13.6-2.3,21.55-3.75V1420h-22.2v5.3c0,4.85-.65,11.55-4.35,16.2a13.29,13.29,0,0,0-2.7-2c3.45-4.25,3.85-10,3.85-14.25v-8h28.6Zm-25-26.6h7.45v-6.9H1157v-3.35h-21.2Zm2.45,11.7a75.14,75.14,0,0,1,17.7,3l-.9,2.6c-4-1.5-11.7-2.9-17.7-3.35Zm18.75-16.3h-10.75v4.6H1157Z"/><path class="cls-1" d="M1161,1458.09a51.83,51.83,0,0,1-12,19.6,49.94,49.94,0,0,0,20.5,10.5,16.79,16.79,0,0,0-2.25,3,50.92,50.92,0,0,1-20.75-11.1c-5.65,5-12.55,8.6-21,11.3a15.53,15.53,0,0,0-2-3.05c8.35-2.45,15.1-5.9,20.6-10.6a57.05,57.05,0,0,1-12.2-19.65h-7.75v-3.25h44.75v3.25Zm-25.75,0a52.13,52.13,0,0,0,11.3,17.3,47.46,47.46,0,0,0,10.7-17.3Zm11.25-3.55a38.13,38.13,0,0,0-3.8-7.8l3.4-1a39,39,0,0,1,4,7.65Z"/><path d="M601,1250.45a221.74,221.74,0,0,1,25.41,16.88l-5.16-4A226,226,0,0,1,661.74,1304l-4-5.16a250.74,250.74,0,0,1,31.85,54.9l-2.58-6.09c10.63,25.24,18,51.94,22.94,78.84q2.16,11.67,3.72,23.42l-.91-6.78a635.13,635.13,0,0,1,5,88.7c-.23,29.51-2,59-4.27,88.42-1.29,16.55-2.74,33.09-4.17,49.62-.54,6.18,3.23,13.8,7.47,18,4.42,4.43,11.68,7.76,18,7.47,6.59-.29,13.43-2.46,18-7.47l4-5.16a25.46,25.46,0,0,0,3.48-12.87c2.9-33.35,5.84-66.72,7.38-100.17s1.67-67.15-1.14-100.6c-3-35.56-8.84-71.09-19.56-105.17-9.23-29.38-21.77-58-39.62-83.23a263.64,263.64,0,0,0-31.51-37.31,251.6,251.6,0,0,0-39.42-31.08c-3.2-2-6.46-4-9.77-5.89a26.52,26.52,0,0,0-19.65-2.57c-5.91,1.63-12.32,6.2-15.24,11.72-3.12,5.92-4.69,13.09-2.57,19.65,2,6.29,5.86,11.9,11.72,15.24Z"/><line class="cls-3" x1="612.69" y1="1228.75" x2="450" y2="1456.25"/><path d="M620.69,1183.73a196.45,196.45,0,0,1-25.32-1.14l6.78.91a71.63,71.63,0,0,1-17.92-4.63l6.09,2.57a76.8,76.8,0,0,1-16.55-10l5.16,4a114.31,114.31,0,0,1-20.23-20.59l4,5.16c-11.74-15.26-20.36-32.58-28.81-49.79q-15.52-31.59-29.88-63.74-8.08-18.11-15.79-36.38l2.57,6.09q-1.89-4.49-3.76-9A24.51,24.51,0,0,0,465.82,989a19.3,19.3,0,0,0-10.16.45l-6.1,2.57a25.61,25.61,0,0,0-9.14,9.15l-2.57,6.09a25.58,25.58,0,0,0,0,13.56q12.48,30,25.81,59.65,12.19,27,25.21,53.56c7.14,14.59,14.33,29.24,23.35,42.77a183.26,183.26,0,0,0,18.15,23.29,106.58,106.58,0,0,0,8.45,8.15,146.48,146.48,0,0,0,14.27,10.93,68.6,68.6,0,0,0,10.71,6c5.88,2.57,11.65,5,17.92,6.35a146,146,0,0,0,19,2.67c4.43.36,8.87.49,13.31.54,2.23,0,4.46,0,6.69,0a26.18,26.18,0,0,0,25.5-25.5l-.91-6.78a25.43,25.43,0,0,0-6.55-11.25c-5-4.58-11.13-7.47-18-7.47Z"/><path d="M620.38,1018.53c-8.84.07-17.68.36-26.5.93-10.81.71-21.53,2-32.26,3.47a253.79,253.79,0,0,0-82.93,25.65A24.58,24.58,0,0,0,466.51,1074a19,19,0,0,0,3,9.48l4,5.16a25.55,25.55,0,0,0,11.25,6.56l6.78.91a25.43,25.43,0,0,0,12.87-3.49q6.56-3.33,13.33-6.21l-6.09,2.57a241.25,241.25,0,0,1,49.86-14.67q7.35-1.35,14.76-2.35l-6.78.92a408.14,408.14,0,0,1,50.87-3.34,19.22,19.22,0,0,0,9.83-2.2,23,23,0,0,0,13.48-13.48,19.26,19.26,0,0,0,2.19-9.82l-.91-6.78a25.45,25.45,0,0,0-6.56-11.25c-5-4.56-11.14-7.53-18-7.47Z"/><path d="M620.07,1234.73c4.5,0,9,0,13.51-.19a190.71,190.71,0,0,0,19.22-2,73.54,73.54,0,0,0,12.54-2.79,90,90,0,0,0,17.32-7.55,92.67,92.67,0,0,0,9.92-6.64,153.79,153.79,0,0,0,13.77-11.44,164.61,164.61,0,0,0,18.88-22.61c9.2-12.82,16.46-26.89,23.43-41q13.13-26.54,25.42-53.47c9-19.71,17.62-39.59,26-59.57.95-2.24,1.88-4.49,2.82-6.73a19.34,19.34,0,0,0,.45-10.17,19,19,0,0,0-3-9.48,28.62,28.62,0,0,0-15.24-11.72l-6.78-.91A25.29,25.29,0,0,0,765.46,992l-5.16,4a25.45,25.45,0,0,0-6.56,11.25q-1.87,4.49-3.76,9l2.57-6.09q-13.72,32.52-28.62,64.51-7.41,15.9-15.11,31.67c-4.43,9.07-8.87,18.15-13.7,27a204.14,204.14,0,0,1-17,26.71l4-5.16a114.31,114.31,0,0,1-20.23,20.59l5.16-4a76.56,76.56,0,0,1-16.55,10l6.09-2.57a71.41,71.41,0,0,1-17.92,4.63l6.78-.91a196.37,196.37,0,0,1-25.32,1.14,28.38,28.38,0,0,0-18,7.47,28.44,28.44,0,0,0-7.47,18l.91,6.78a25.45,25.45,0,0,0,6.56,11.25c5,4.58,11.12,7.47,18,7.47Z"/><path d="M620.38,1069.53a408,408,0,0,1,50.87,3.34l-6.78-.92a264.28,264.28,0,0,1,50.75,11.71q7,2.41,13.87,5.31L723,1086.4q6.78,2.88,13.34,6.21a18.84,18.84,0,0,0,9.48,3,26.18,26.18,0,0,0,25.4-12.17l2.58-6.1a25.74,25.74,0,0,0,0-13.55l-2.58-6.09a25.45,25.45,0,0,0-9.14-9.15,265,265,0,0,0-29.54-12.77,236.15,236.15,0,0,0-24.56-7.43c-8.42-2.06-17-3.7-25.52-5-10.69-1.59-21.42-2.9-32.2-3.7-9.94-.74-19.91-1.09-29.88-1.17a26.23,26.23,0,0,0-25.5,25.5l.91,6.78a25.45,25.45,0,0,0,6.56,11.25l5.16,4a25.32,25.32,0,0,0,12.87,3.48Z"/></svg>