<svg id="Layer_1" data-name="Layer 1" xmlns="http://www.w3.org/2000/svg" viewBox="0 0 1242 2208"><defs><style>.cls-1{fill:#f6eabe;}.cls-2{fill:#999;}.cls-3{fill:none;stroke:#000;stroke-linecap:round;stroke-miterlimit:10;stroke-width:50px;}</style></defs><rect class="cls-1" width="1242" height="2208"/><path d="M892.54,815.9c31.76,0,38.12-19.85,41.29-135C945.74,691.24,968,700,982.27,703.15c-6.36,127.83-20.65,162-85.75,162H779c-67.48,0-86.54-17.47-86.54-81V496.71H540c-15.08,175.48-54.78,304.1-251.69,369.21-5.56-12.7-21.44-34.94-33.35-45.26,185.79-56.37,216.76-169.91,229.46-323.95H270.06v-50H592.42V142.59h52.4v304.1H973.53v50H745.66V783.35c0,27,6.35,32.55,38.11,32.55ZM433.62,397.47c-14.29-51.61-54.79-135-96.07-197.71l47.64-17.47c41.28,61.14,83.36,142.13,99.24,195.33ZM912.4,193.41c-34.15,68.28-77,150.86-112,202.47l-43.67-18.26c34.14-53.2,77.81-141.33,101.63-204.06Z"/><path d="M168.38,1854.49H153.56v35.15h-4v-38.87h18.78Z"/><path d="M200.48,1874.76c3.6,14.22,11.7,23.82,26.22,27.36a15.7,15.7,0,0,0-2.58,3.6c-13-3.66-20.88-11.88-25.32-24.24-3.06,10.56-9.48,19.38-23.4,24.54a11.92,11.92,0,0,0-2.7-3.18c25-9,24.3-29.69,24.48-50.75h4.32c-.06,7.74-.12,15.53-1.26,22.74Zm-14.34-10.14c-1.5,6-4,13.21-7.86,17.59l-3.66-1.92c3.78-4.27,6.42-11.17,7.74-16.92Zm37.62.49a145.63,145.63,0,0,1-9.18,16.85l-3.36-1.5a106.75,106.75,0,0,0,8.34-17Z"/><path d="M230.3,1902.84h14.82v-35.15h4v38.87H230.3Z"/><path d="M282.5,1864.62a67.64,67.64,0,0,1-7.2,12.25v28.85h-4v-24a41.57,41.57,0,0,1-7.26,6.41,17,17,0,0,0-2-3.48c7-5,12.3-12.23,16.14-20H263.36v-3.83H279.8a65.25,65.25,0,0,0,3.3-9.42l4.08,1c-.9,2.82-1.86,5.64-3,8.4h31.26v3.83Zm32.94,36.24v3.72H279.32v-3.72h16v-17.52H281.66v-3.72h13.68v-11.81h4v11.81h13.8v3.72H299.3v17.52Z"/><path d="M376.1,1899.18v4H322.64v-4h22.62v-46.85h4.14v18.54H372v4H349.4v24.3Z"/><path d="M383.3,1904.7c4.68-2,7.26-4.92,7.56-9.18a7.35,7.35,0,0,1-1.14.12c-2.34,0-4.26-1.38-4.26-4.08a4,4,0,0,1,4.32-4.14c3.18,0,4.86,2.64,4.86,6.66,0,6.48-4,11.28-10.08,13.44Z"/><path d="M438.38,1854.49H423.56v35.15h-4v-38.87h18.78Z"/><path d="M459.08,1853.83v19.38c0,12.11-1.5,24.29-14.7,32.87a14.85,14.85,0,0,0-2.82-3.06c12.18-7.86,13.62-19,13.62-29.81v-19.38Zm22.32-.06v44.57c0,2.76.42,3.24,2.4,3.24h6.6c2.16,0,2.52-2.58,2.76-12.66a9.67,9.67,0,0,0,3.72,1.8c-.42,11-1.32,14.64-6.24,14.64h-7.32c-4.62,0-5.94-1.5-5.94-7.08v-44.51Z"/><path d="M500.3,1902.84h14.82v-35.15h4v38.87H500.3Z"/><path d="M555.5,1850.17l3.24,1.74c-7.08,7.26-11.28,16.2-11.28,26.76s4.2,19.49,11.28,26.75l-3.24,1.74c-7.32-7.5-11.94-17-11.94-28.49S548.18,1857.67,555.5,1850.17Z"/><path d="M580.52,1891.26a24.31,24.31,0,0,0,1.56,3.3c-9.36,7.62-10.8,8.82-11.64,10v.06a12.16,12.16,0,0,0-2.16-2.82,7.29,7.29,0,0,0,2.82-5.58V1874H562v-3.84h12.78v25.61Zm-5.34-26.69a76.72,76.72,0,0,0-9.12-9.12l2.52-2.58c3.24,2.64,7.38,6.3,9.24,8.76Zm24.9,25.55c-2.22,5.88-7.2,11.7-18.3,16.14a11.05,11.05,0,0,0-2.46-3.06c9.54-3.66,14.22-8.34,16.5-13.08H580.28v-3.54h16.8a28.24,28.24,0,0,0,.78-7.25v-7.21h3.9v7.32a33,33,0,0,1-.66,7.14h14.82v3.54Zm7.62-13.32a53,53,0,0,0,2.82-7.19h-29v-3.49h14.7v-5.63H583.76V1857h12.42v-5.64h3.9V1857h12.6v3.48h-12.6v5.63H612l.66-.17,2.52.72a89.59,89.59,0,0,1-4.2,11Zm-23.94.78a39.45,39.45,0,0,1,8.76,5.94l-1.92,2.4a37,37,0,0,0-8.82-6.17Zm11,2.71a42.08,42.08,0,0,0-8.58-6.07l1.86-2a40.88,40.88,0,0,1,8.7,5.76Zm8,12.29c4.86,3.24,10.92,7.8,13.8,11L614,1906.2a86.82,86.82,0,0,0-13.68-11.34Z"/><path d="M625,1869.07h4l.48,5.93h.18c2.22-4.08,5.52-6.77,9.18-6.77a7,7,0,0,1,3.42.72l-1,4.26a8.2,8.2,0,0,0-3.06-.54c-2.76,0-6.12,2-8.34,7.67v21.12H625Z"/><path d="M644.6,1885.26c0-10.5,7-17,14.46-17,8.1,0,12.78,5.81,12.78,15.17a14.19,14.19,0,0,1-.24,2.94H649.46c.3,7.2,4.62,12,11.1,12a14.28,14.28,0,0,0,8.22-2.64l1.8,3.24a18.91,18.91,0,0,1-10.62,3.3C651.44,1902.24,644.6,1895.94,644.6,1885.26Zm22.92-2.51c0-6.91-3.12-10.57-8.4-10.57-4.8,0-9.06,3.9-9.72,10.57Zm-12.24-22.08,9.36-11,3.42,3.24-10.2,10.19Z"/><path d="M680.06,1869.07h4l.48,4.73h.18c3.12-3,6.48-5.57,10.92-5.57,6.78,0,9.9,4.38,9.9,12.65v20.58h-4.92v-20c0-6.23-1.92-9-6.42-9-3.42,0-5.88,1.8-9.24,5.27v23.7h-4.86Z"/><path d="M714.62,1904.7c4.68-2,7.26-4.92,7.56-9.18a7.35,7.35,0,0,1-1.14.12c-2.34,0-4.26-1.38-4.26-4.08a4,4,0,0,1,4.32-4.14c3.18,0,4.86,2.64,4.86,6.66,0,6.48-4,11.28-10.08,13.44Z"/><path d="M795.26,1900.8c0,2.58-.72,3.84-2.4,4.5s-4.74.78-9.9.78a14.91,14.91,0,0,0-1.5-3.9c3.9.12,7.38.12,8.4.06s1.5-.42,1.5-1.44v-42.53H750.08v47.87h-3.9v-51.65h49.08ZM786,1868.41H755.6v-3.48H786Zm-23.64,25.31v4.44h-3.72V1875h24v18.77Zm0-15.35v11.93h16.56v-11.93Z"/><path d="M829.7,1854.49H814.88v35.15h-4v-38.87H829.7Z"/><path d="M862.94,1851.55c-.06,2.1-.12,5.1-.42,8.64.9,7,4.56,32.51,25.74,42a12.63,12.63,0,0,0-2.88,3.36c-15.42-7.26-21.72-22.74-24.6-34-2.64,12.23-8.94,26.33-24.06,34.19a13.77,13.77,0,0,0-3.12-3.06c25-12.48,24.78-42.11,25-51.11Z"/><path d="M891.62,1902.84h14.82v-35.15h4v38.87H891.62Z"/><path d="M924.5,1907.16l-3.24-1.74c7.08-7.26,11.28-16.2,11.28-26.75s-4.2-19.5-11.28-26.76l3.24-1.74c7.32,7.5,11.94,17,11.94,28.5S931.82,1899.66,924.5,1907.16Z"/><path d="M973.82,1864.62a67.64,67.64,0,0,1-7.2,12.25v28.85h-4v-24a41.57,41.57,0,0,1-7.26,6.41,17,17,0,0,0-2-3.48c7-5,12.3-12.23,16.14-20H954.68v-3.83h16.44a65.25,65.25,0,0,0,3.3-9.42l4.08,1c-.9,2.82-1.86,5.64-3,8.4h31.26v3.83Zm32.94,36.24v3.72H970.64v-3.72h16v-17.52H973v-3.72h13.68v-11.81h4v11.81h13.8v3.72h-13.8v17.52Z"/><path d="M1041.62,1859.71v10.86l.66-.78c7.32,3.54,16.74,8.93,21.54,12.53l-2.76,3.6c-4.2-3.42-12.48-8.46-19.44-12.12v32.1h-4.2v-46.19H1014.2v-4h53v4Z"/><path d="M1074.62,1904.7c4.68-2,7.26-4.92,7.56-9.18a7.35,7.35,0,0,1-1.14.12c-2.34,0-4.26-1.38-4.26-4.08a4,4,0,0,1,4.32-4.14c3.18,0,4.86,2.64,4.86,6.66,0,6.48-4,11.28-10.08,13.44Z"/><path d="M369.14,1925.05c-.54.78-1.08,1.62-1.74,2.4,5.4,5.76,15.18,12.47,25,16a17.52,17.52,0,0,0-2.82,3.47,75.67,75.67,0,0,1-24.42-16.73A64.51,64.51,0,0,1,351,1942H379.4v3.72H350.78v-3.6a82.62,82.62,0,0,1-10,5.46,19,19,0,0,0-2.88-3.42c11.76-5,22.14-12.59,27.42-20.69Zm-28.62,28.37h49.32v3.84H363.38a113.31,113.31,0,0,1-12.6,14.34l28.26-2.22c-2.34-2.64-4.86-5.34-7.26-7.62l3.36-1.74c5.34,4.74,11,11.28,13.68,15.78l-3.54,2.1a37.32,37.32,0,0,0-3.42-5c-32,2.7-35.22,2.94-37.32,3.72-.24-.84-.9-3-1.38-4.14,1.26-.18,2.58-1.38,4.5-3.18A95.51,95.51,0,0,0,358,1957.26H340.52Z"/><path d="M399.08,1974.48c3.06-2.58,5.64-7,7.08-10.44l3.3,1.5c-1.68,3.6-4.08,8-7.14,10.86Zm51.72-36.9v3.25H399.56v-3.25h14.16a23.89,23.89,0,0,0-2.34-5.45l3.36-.84H402.26V1928h21.9c-.72-1.44-1.56-2.94-2.34-4.2l3.78-.9a39.9,39.9,0,0,1,2.94,5.1h19.2v3.3H435.86l3.24.78c-1,1.92-2,3.84-3,5.51Zm-7,23.7H422.66a47.07,47.07,0,0,1,8.82,6.24L429,1970a48.61,48.61,0,0,0-9.3-6.9l2-1.8H406.58V1944h37.2Zm-3.9-14.45H410.36v4.43h29.52Zm0,7.13H410.36v4.44h29.52Zm-8.22,20.16c2.58,0,3-.72,3.24-6.24a12.08,12.08,0,0,0,3.54,1.38c-.48,6.66-1.74,8.22-6.42,8.22H420.44c-5.82,0-7.38-1-7.38-5v-8H417v8c0,1.38.54,1.68,3.72,1.68ZM415,1931.29a26.19,26.19,0,0,1,2.76,6.18l-.48.11H432a59.18,59.18,0,0,0,3.06-6.29Zm27.66,32.21a46.55,46.55,0,0,1,8,10.2l-3.36,1.74a49,49,0,0,0-7.8-10.56Z"/><path d="M512.36,1947.91v4.31H457.88v-4.31Z"/><path d="M549,1925c-.48.9-1,1.74-1.56,2.58,7.26,9,15.78,14.93,25.44,19.73a12.66,12.66,0,0,0-2.88,3.54c-9.3-5-17.28-10.85-24.9-20.15a71,71,0,0,1-24.66,20,17.42,17.42,0,0,0-2.94-3.47c11.22-5,22-13.92,28-23.88Zm-6,15.66H547V1978H543Z"/><path d="M607.28,1923.55c-.06,2.1-.12,5.1-.42,8.64.9,7,4.56,32.51,25.74,42a12.63,12.63,0,0,0-2.88,3.36c-15.42-7.26-21.72-22.74-24.6-34-2.64,12.23-8.94,26.33-24.06,34.19a13.77,13.77,0,0,0-3.12-3.06c25-12.48,24.78-42.11,25-51.11Z"/><path d="M691.52,1950.79v3.77h-23c-3.18,11-10.5,19-27.42,23.22a13.59,13.59,0,0,0-2.34-3.36c15.48-3.72,22.44-10.44,25.56-19.86H638.66v-3.77H665.3c1.62-7.45,1.56-16.38,1.62-26.76H671c-.06,10.14-.06,19.08-1.62,26.76ZM655,1947.42c-2.82-2.39-8.64-5.63-13.44-7.55l2.46-2.76c4.68,1.74,10.56,4.8,13.56,7.26Zm5.46-11c-2.88-2.4-8.76-5.46-13.56-7.32l2.22-2.88c4.74,1.74,10.68,4.62,13.62,7Zm8.82,23.93c8.4,4,16.92,9.36,22,13.8l-2.7,3c-4.86-4.56-13.14-9.9-21.36-14Z"/><path d="M747.92,1944.12c-1.38,8.52-3.6,16-7.2,22.14,1.74,4.92,3.78,7.8,6.06,7.8,1.32-.06,1.92-1.92,2.22-7.56a10,10,0,0,0,3.12,2c-.72,7.14-2,9.36-5.76,9.36-3.36,0-6.12-2.88-8.28-7.86a31.87,31.87,0,0,1-8.88,7.8,12.69,12.69,0,0,0-2.76-2.94,28.59,28.59,0,0,0,10-9.24c-2.16-7-3.54-16.32-4.32-26.81H697.76v-3.3h15.3v-3.9H701.6v-3.24h11.46v-5h3.84v5h11.46v3.24H716.9v3.9H732c-.24-3.9-.36-8-.42-12.18h4c0,4.2.06,8.34.3,12.18h14.82v3.3H736a128.29,128.29,0,0,0,3.18,22.07,64.76,64.76,0,0,0,5-17.63Zm-40.14,21.12v-3.54h-7.62v-2.76h7.62v-3.12H701.3v-13.91h27.12v13.91h-6.6v3.12h7.56v2.76h-7.56v3.54h8.94v2.88H698.12v-2.88Zm3.84,4.74a44.79,44.79,0,0,1-9.36,8.46,28.3,28.3,0,0,0-2.88-2.46,32.39,32.39,0,0,0,8.76-7.08Zm-7-22.31h8.52v-3.42h-8.52Zm0,5.75h8.52v-3.48h-8.52Zm6.54,5.52h7.26v-3.12H711.2Zm0,6.3h7.26v-3.54H711.2Zm8,3.78a44.6,44.6,0,0,1,6.54,6.48l-3.3,1.68a58.85,58.85,0,0,0-6.42-6.66Zm5.76-24.77h-8.46v3.42h8.46Zm0,5.69h-8.46v3.48h8.46Zm20-15.71a35.15,35.15,0,0,0-7.92-7.38l2.76-2.22c3.06,2,6.48,5,8,7.26Z"/><path d="M786.14,1946.76c3.6,14.22,11.7,23.82,26.22,27.36a15.7,15.7,0,0,0-2.58,3.6c-13-3.66-20.88-11.88-25.32-24.24-3.06,10.56-9.48,19.38-23.4,24.54a11.92,11.92,0,0,0-2.7-3.18c25-9,24.3-29.69,24.48-50.75h4.32c-.06,7.74-.12,15.53-1.26,22.74Zm-14.34-10.14c-1.5,6-4,13.21-7.86,17.59l-3.66-1.92c3.78-4.27,6.42-11.17,7.74-16.92Zm37.62.49a145.63,145.63,0,0,1-9.18,16.85l-3.36-1.5a106.75,106.75,0,0,0,8.34-17Z"/><path d="M831.2,1943.83a92.43,92.43,0,0,1-.84,13.55c2,2.1,7.5,9.06,8.88,10.74l-2.76,2.88c-1.38-2.16-4.56-6.54-7-9.54a32.57,32.57,0,0,1-9.06,16.26,15.26,15.26,0,0,0-2.76-2.82c8.82-8.7,9.78-20.1,9.78-31.14v-20h3.72Zm-6.36-8c-.36,4.92-1.44,11.22-3.42,15.23l-2.94-1.37c1.86-3.49,2.94-9.54,3.36-14.34Zm7.68,10.19a89.5,89.5,0,0,0,4-12.35l3.54,1.5c-1.62,4-3.36,9-4.86,12.11Zm39.3,25.68v3.9H841.64v-49.07h29v3.9H845.54v9.72h22.08V1960H845.54v11.7Zm-26.28-27.84v12.42h18.3v-12.42Z"/><path d="M896.36,1967.88a9,9,0,1,1-9.06-9A9,9,0,0,1,896.36,1967.88Zm-2.82,0a6.21,6.21,0,1,0-6.24,6.24A6.22,6.22,0,0,0,893.54,1967.88Z"/><path d="M491.9,2012.17c4.44,10.31,12.24,20,20.76,24.71a23.11,23.11,0,0,0-3.06,3.36c-9-5.58-16.92-16.32-21.6-28.07h-1v22.43h14.28v4H487V2050H482.9v-11.4H468.68v-4H482.9v-22.43h-1.08c-4.74,11.75-12.66,22.43-21.3,28.25a24.18,24.18,0,0,0-2.88-3.18c8-4.92,15.66-14.76,20.16-25.07H459.14v-4H482.9v-12.72H487v12.72h24v4Z"/><path d="M566.6,2001.07c-4.32,12.12-10.08,22.68-18.6,31.25a65.72,65.72,0,0,0,24.42,14.1,17.56,17.56,0,0,0-2.76,3.54A66.69,66.69,0,0,1,545,2035.2a72.92,72.92,0,0,1-25.38,14.7,14.53,14.53,0,0,0-2.16-3.36,69.86,69.86,0,0,0,24.78-14.1,89.37,89.37,0,0,1-18.18-29.27l3.6-1.08a80.51,80.51,0,0,0,17.52,27.53c8.16-8.21,13.62-18.41,17.4-29.87ZM546,2011a102.25,102.25,0,0,0-5.88-14.45l3.42-1.38a105.48,105.48,0,0,1,6.06,14.28Z"/><path d="M607.46,2044.62a70.7,70.7,0,0,0,7.38.36c2.1.06,14.76,0,17.58-.06a16.36,16.36,0,0,0-1.44,3.84H614.72c-12.3,0-19.92-1.92-24.72-10.38a31.55,31.55,0,0,1-9.48,11.7,19.84,19.84,0,0,0-3.06-2.82c6.3-4.14,10.2-10.92,11.82-19.86l4,.6a55.92,55.92,0,0,1-1.5,6.06c2.34,5.64,6.3,8.52,11.7,9.84v-18.54H578.72v-3.6H631.4v3.6H607.46v7.08h20v3.6h-20Zm17.22-27.17h-39.6v-19.56h39.6Zm-4-16.44H589v5.16h31.68Zm0,8.1H589v5.27h31.68Z"/><path d="M643.82,2034.48v5.64H640.1v-41h19.32v35.39Zm0-31.79v11.93H655.7v-11.93Zm11.88,28.07v-12.47H643.82v12.47Zm34.62,13.74c0,2.64-.6,4-2.46,4.62s-5,.72-10.2.72a14.91,14.91,0,0,0-1.5-3.9c4,.18,7.8.12,8.76.06,1.14-.06,1.56-.42,1.56-1.5v-13.68H668.12c-1.32,7.08-4.38,14.28-11.16,19.5a15.73,15.73,0,0,0-2.94-2.7c10.14-7.8,11.16-19.14,11.16-28.5V1998h25.14Zm-3.84-17.33v-11.05h-17.4v3a76.4,76.4,0,0,1-.42,8.05Zm-17.4-25.5v10.79h17.4v-10.79Z"/><path d="M745,2045.58c1.68,0,2-.9,2.22-6.6a13,13,0,0,0,3.6,1.5c-.42,6.84-1.56,8.52-5.34,8.52H738c-4.74,0-5.88-1.14-5.88-5.16v-9.36H717.38c-1,9.06-4.5,13.2-16.38,15.54a9.43,9.43,0,0,0-2.22-3.3c12.18-2.1,14.34-5.82,14.76-15.72h22.74v12.9c0,1.38.36,1.68,2.28,1.68Zm5.94-44.39v3.42H698.84v-3.42h25.32a30,30,0,0,0-2.82-5.28l3.9-.9a29.12,29.12,0,0,1,3.42,6.18ZM700,2023.5h49.8v9.6h-3.9v-6.35H703.82v6.41H700Zm43.08-15.35v11.34H707.3v-11.34Zm-4.14,2.93H711.26v5.46H739Z"/><path d="M776.36,2039.88a9,9,0,1,1-9.06-9A9,9,0,0,1,776.36,2039.88Zm-2.82,0a6.21,6.21,0,1,0-6.24,6.24A6.22,6.22,0,0,0,773.54,2039.88Z"/><rect class="cls-2" x="1113" y="450" width="65" height="126" rx="12"/><path class="cls-1" d="M1132.7,479.82c1.25,1.6,4.9,6.7,5.7,8.05l-2,2.45c-.7-1.5-2.35-4.4-3.75-6.65V510h-3.15V485.57c-1.5,5.05-3.5,9.9-5.55,12.85a14.83,14.83,0,0,0-1.75-3.1c2.9-4,5.8-11.5,7.2-18h-6.2v-3.15h6.3v-9.65h3.15v9.65h5.45v3.15h-5.45Zm19.1.7a19.47,19.47,0,0,0,.45,2.65c-10.15,2.7-11.6,3.15-12.5,3.75a12.13,12.13,0,0,0-1.1-3.2c.7-.2,1.55-.5,1.55-2.2v-16.7h3.25v6.5h8.35v2.9h-8.35v8.3Zm2.35,5.5-2,3.75h12.65V510h-3.4v-1.75h-17v2h-3.3V489.77h7.9c.55-1.5,1.2-3.25,1.55-4.6Zm7.3,6.5h-17v5.05h17Zm0,13v-5.3h-17v5.3Zm2.25-22.4c1.25,0,1.5-.75,1.65-5.25a9.16,9.16,0,0,0,2.85,1.25c-.3,5.45-1.2,6.95-4.15,6.95h-5.85c-3.65,0-4.55-.95-4.55-4.45V464.87h3.25v6.5h10.2v2.9h-10.2v7.35c0,1.3.25,1.5,1.65,1.5Z"/><path class="cls-1" d="M1167.55,539.87v2.5H1123.4v-2.5h20.25v-3.2H1126.8v-2.3h16.85v-3H1128.2v-2.25h15.45v-3.2H1123.5v-2.5h20.15v-3H1128.8V518h14.85v-3.55h3.25V518h14.45v5.4h6.15v2.5h-6.15v5.45H1146.9v3h17.3v2.3h-17.3v3.2Zm-37.75,5h31.75v15.25h-3.25v-1.6H1133v1.7h-3.2Zm3.2,2.4v3.2h25.3v-3.2Zm25.3,8.85v-3.4H1133v3.4Zm-11.4-32.7h11.15v-3H1146.9Zm0,5.7h11.15v-3.2H1146.9Z"/><rect class="cls-2" x="1113" y="1263" width="65" height="271" rx="12"/><path class="cls-1" d="M1158.05,1302.79a27.61,27.61,0,0,0,11.5,8.1,11.65,11.65,0,0,0-2.15,2.55,30.77,30.77,0,0,1-12.8-10.65h-15.95a34.39,34.39,0,0,1-13,11.3,11.43,11.43,0,0,0-2.15-2.55,30.39,30.39,0,0,0,11.6-8.75H1124v-2.85h10v-16.15h-7.7V1281h7.7v-5h3.3v5h18.55v-5h3.35v5h7.65v2.8h-7.65v16.15h9.8v2.85Zm-10,14.5h17.3v2.85H1127.8v-2.85h16.9v-5.6h-10.45v-2.8h10.45v-4.4h3.35v4.4h10.65v2.8h-10.65Zm-10.8-33.5v3.6h18.55v-3.6Zm0,9.8h18.55v-3.65h-18.55Zm0,6.35h18.55v-3.8h-18.55Z"/><path class="cls-1" d="M1142.25,1344.54s0,1.15,0,1.55c-.6,15.85-1.2,21.2-2.6,23a3.71,3.71,0,0,1-2.8,1.45,32.65,32.65,0,0,1-4.45,0,9.25,9.25,0,0,0-.85-3c1.75.15,3.2.15,3.9.15a1.42,1.42,0,0,0,1.45-.65c1-1.2,1.6-6,2.15-19.35h-6.8c-.55,10-2,18.25-6.45,23.65a9.53,9.53,0,0,0-2.55-2.35c5.45-6.45,5.9-17.85,6.1-31.55h-5.2v-3.1h20.1v3.1h-11.65c0,2.45-.1,4.85-.2,7.15Zm-7.9-10.45a33.47,33.47,0,0,0-4.25-7.15l2.9-1.15a31.92,31.92,0,0,1,4.4,7Zm23.85-7.45a15.26,15.26,0,0,1-.85,2.55c2.65,5.45,7.7,11.35,12.45,14a13,13,0,0,0-2.45,2.75c-4.25-2.7-8.5-8-11.4-13.3a32.61,32.61,0,0,1-11,13.6,12.79,12.79,0,0,0-2.35-2.65c5.85-3.6,10.35-10.2,12.5-17.85Zm-8.3,32.45a74,74,0,0,1,13.6,8.25l-2.25,2.9c-2.85-2.6-8.75-6.3-13.4-8.65Zm9.5-4.85a66.22,66.22,0,0,0-8.6-6.85l2.15-2.2a67.46,67.46,0,0,1,8.75,6.55Z"/><path class="cls-1" d="M1165,1379.19v29.3h-3.5v-2.55h-13.3v15.6h-3.45v-15.6h-13.4v2.75H1128v-29.5Zm-33.65,3.2V1391h13.4v-8.65Zm13.4,20.35v-8.5h-13.4v8.5Zm16.75-20.35h-13.3V1391h13.3Zm0,20.35v-8.5h-13.3v8.5Z"/><path class="cls-1" d="M1167.25,1441.09v9.3h-3.15V1444h-35.4v6.4h-3v-9.3h6.95v-12.95h27.7v12.95Zm-6.45,26.6c0,1.85-.45,2.7-1.85,3.2s-3.9.5-7.7.45a8.57,8.57,0,0,0-1.1-2.75c3,.05,5.65.05,6.4.05s1-.25,1-1v-6.2c-7.3,1.45-14.85,3-20.45,4l-1.1-3c5.4-.8,13.6-2.3,21.55-3.75V1450h-22.2v5.3c0,4.85-.65,11.55-4.35,16.2a13.29,13.29,0,0,0-2.7-2c3.45-4.25,3.85-10,3.85-14.25v-8h28.6Zm-25-26.6h7.45v-6.9H1157v-3.35h-21.2Zm2.45,11.7a75.14,75.14,0,0,1,17.7,3l-.9,2.6c-4-1.5-11.7-2.9-17.7-3.35Zm18.75-16.3h-10.75v4.6H1157Z"/><path class="cls-1" d="M1161,1488.09a51.83,51.83,0,0,1-12,19.6,49.94,49.94,0,0,0,20.5,10.5,16.79,16.79,0,0,0-2.25,3,50.92,50.92,0,0,1-20.75-11.1c-5.65,5-12.55,8.6-21,11.3a15.53,15.53,0,0,0-2-3.05c8.35-2.45,15.1-5.9,20.6-10.6a57.05,57.05,0,0,1-12.2-19.65h-7.75v-3.25h44.75v3.25Zm-25.75,0a52.13,52.13,0,0,0,11.3,17.3,47.46,47.46,0,0,0,10.7-17.3Zm11.25-3.55a38.13,38.13,0,0,0-3.8-7.8l3.4-1a39,39,0,0,1,4,7.65Z"/><path d="M598,1278.45a221.74,221.74,0,0,1,25.41,16.88l-5.16-4A226,226,0,0,1,658.74,1332l-4-5.16a250.74,250.74,0,0,1,31.85,54.9l-2.58-6.09c10.63,25.24,18,51.94,22.94,78.84q2.16,11.67,3.72,23.42l-.91-6.78a635.13,635.13,0,0,1,5,88.7c-.23,29.51-2,59-4.27,88.42-1.29,16.55-2.74,33.09-4.17,49.62-.54,6.18,3.23,13.8,7.47,18,4.42,4.43,11.68,7.76,18,7.47,6.59-.29,13.43-2.46,18-7.47l4-5.16a25.46,25.46,0,0,0,3.48-12.87c2.9-33.35,5.84-66.72,7.38-100.17s1.67-67.15-1.14-100.6c-3-35.56-8.84-71.09-19.56-105.17-9.23-29.38-21.77-58-39.62-83.23a263.64,263.64,0,0,0-31.51-37.31,251.6,251.6,0,0,0-39.42-31.08c-3.2-2-6.46-4-9.77-5.89a26.52,26.52,0,0,0-19.65-2.57c-5.91,1.63-12.32,6.2-15.24,11.72-3.12,5.92-4.69,13.09-2.57,19.65,2,6.29,5.86,11.9,11.72,15.24Z"/><line class="cls-3" x1="609.69" y1="1256.75" x2="447" y2="1484.25"/><path d="M721.91,1060.59q.81,4.64,1.44,9.29l-.91-6.78a225.28,225.28,0,0,1,1.55,45.33q-.45,6.39-1.3,12.75l.91-6.78a178.07,178.07,0,0,1-12.17,45.41l2.58-6.09a148.25,148.25,0,0,1-18.86,32.61l4-5.16a142.47,142.47,0,0,1-25.43,25.45l5.17-4a132.86,132.86,0,0,1-29.19,17.14l6.09-2.58a116.45,116.45,0,0,1-29.46,8.14l6.78-.91a108.31,108.31,0,0,1-16.1.94,19.16,19.16,0,0,0-9.82,2.2A22.91,22.91,0,0,0,593.7,1241a19.22,19.22,0,0,0-2.2,9.83l.91,6.78a25.45,25.45,0,0,0,6.56,11.25l5.16,4a25.52,25.52,0,0,0,12.87,3.48,107.67,107.67,0,0,0,12.57-.52,174,174,0,0,0,18.59-2.77c10.2-2.18,19.82-5.94,29.34-10.16a129.94,129.94,0,0,0,21.62-12.21,176.81,176.81,0,0,0,24.18-19.92,179.17,179.17,0,0,0,19.92-24.21,147,147,0,0,0,13.12-23.22,206.92,206.92,0,0,0,11.86-32.24,233.85,233.85,0,0,0,6-34.17,212.62,212.62,0,0,0,1.24-28.21A289.08,289.08,0,0,0,772.2,1054q-.51-3.48-1.11-7a28.49,28.49,0,0,0-11.72-15.24,19,19,0,0,0-9.48-3,19.34,19.34,0,0,0-10.17.45l-6.09,2.57a25.71,25.71,0,0,0-9.15,9.15l-2.57,6.09a25.78,25.78,0,0,0,0,13.56Z"/><path d="M462.91,1047c-3.62,20.83-5.42,42-3.77,63.1,1.62,20.83,5.49,41.67,13.36,61.09,4.24,10.47,8.88,20.74,14.93,30.3q3.35,5.3,7.15,10.25c3.79,5,7.59,9.87,11.79,14.47,7.12,7.79,15.11,14.38,23.46,20.78a133.94,133.94,0,0,0,21.24,13.32c5.54,2.78,11.28,5.21,17.06,7.44a118,118,0,0,0,11.72,3.84,111.24,111.24,0,0,0,12.23,2.59,167.8,167.8,0,0,0,18.71,2.08q3.11.12,6.21.07a26.23,26.23,0,0,0,25.5-25.5l-.91-6.78a25.45,25.45,0,0,0-6.56-11.25c-4.94-4.54-11.16-7.59-18-7.47a108.31,108.31,0,0,1-16.1-.94l6.78.91a116.45,116.45,0,0,1-29.46-8.14l6.09,2.58a132.86,132.86,0,0,1-29.19-17.14l5.17,4a142.47,142.47,0,0,1-25.43-25.45l4,5.16A148.25,148.25,0,0,1,520,1153.72l2.58,6.09a178.07,178.07,0,0,1-12.17-45.41l.91,6.78a215.09,215.09,0,0,1-1.11-45.3q.51-6.41,1.36-12.78l-.91,6.78q.63-4.65,1.44-9.29a19.34,19.34,0,0,0,.45-10.17,19,19,0,0,0-3-9.48,28.62,28.62,0,0,0-15.24-11.72l-6.78-.91a25.52,25.52,0,0,0-12.87,3.48l-5.16,4a25.45,25.45,0,0,0-6.56,11.25Z"/><line class="cls-3" x1="487.9" y1="1053.69" x2="566.45" y2="1140.42"/><line class="cls-3" x1="617.18" y1="1028.05" x2="566.45" y2="1140.42"/><line class="cls-3" x1="746.46" y1="1053.69" x2="667.91" y2="1140.42"/><line class="cls-3" x1="617.18" y1="1028.05" x2="667.91" y2="1140.42"/></svg>