<svg id="Layer_1" data-name="Layer 1" xmlns="http://www.w3.org/2000/svg" viewBox="0 0 1242 2208"><defs><style>.cls-1{fill:#f6eabe;}.cls-2{fill:#999;}.cls-3{fill:none;stroke:#000;stroke-linecap:round;stroke-miterlimit:10;stroke-width:50px;}</style></defs><rect class="cls-1" width="1242" height="2208"/><path d="M556.69,161c-61.93,96.87-163.57,179.44-260.43,231.85-9.53-10.32-31-30.17-45.26-39.7,100.84-47.64,196.91-123.07,251.7-210.41Zm318.39,634.4c31,0,36.52-12.7,39.7-96.07,11.91,8.73,33.34,16.67,47.64,19.85-6.36,100-22.24,124.65-83.37,124.65H748c-71.46,0-90.52-15.08-90.52-73.84V575.44H573.36C555.89,721.53,506.67,813.63,316.9,861.27c-4.76-13.5-18.26-34.93-28.58-44.46,175.47-39.7,216.76-116.72,231.84-241.37H413V324.53H831.41V575.44H709.93V769.17c0,22.23,6.35,26.2,42.08,26.2ZM467.76,527H774.24V373H467.76ZM934.63,396C883,333.27,771.86,236.4,679.76,170.5l42.87-27C813.94,207,925.89,301.51,982.27,365Z"/><rect class="cls-2" x="1113" y="439" width="65" height="126" rx="12"/><path class="cls-1" d="M1132.7,468.82c1.25,1.6,4.9,6.7,5.7,8.05l-2,2.45c-.7-1.5-2.35-4.4-3.75-6.65V499h-3.15V474.57c-1.5,5.05-3.5,9.9-5.55,12.85a14.83,14.83,0,0,0-1.75-3.1c2.9-4,5.8-11.5,7.2-18h-6.2v-3.15h6.3v-9.65h3.15v9.65h5.45v3.15h-5.45Zm19.1.7a19.47,19.47,0,0,0,.45,2.65c-10.15,2.7-11.6,3.15-12.5,3.75a12.13,12.13,0,0,0-1.1-3.2c.7-.2,1.55-.5,1.55-2.2v-16.7h3.25v6.5h8.35v2.9h-8.35v8.3Zm2.35,5.5-2,3.75h12.65V499h-3.4v-1.75h-17v2h-3.3V478.77h7.9c.55-1.5,1.2-3.25,1.55-4.6Zm7.3,6.5h-17v5.05h17Zm0,13v-5.3h-17v5.3Zm2.25-22.4c1.25,0,1.5-.75,1.65-5.25a9.16,9.16,0,0,0,2.85,1.25c-.3,5.45-1.2,6.95-4.15,6.95h-5.85c-3.65,0-4.55-.95-4.55-4.45V453.87h3.25v6.5h10.2v2.9h-10.2v7.35c0,1.3.25,1.5,1.65,1.5Z"/><path class="cls-1" d="M1167.55,528.87v2.5H1123.4v-2.5h20.25v-3.2H1126.8v-2.3h16.85v-3H1128.2v-2.25h15.45v-3.2H1123.5v-2.5h20.15v-3H1128.8V507h14.85v-3.55h3.25V507h14.45v5.4h6.15v2.5h-6.15v5.45H1146.9v3h17.3v2.3h-17.3v3.2Zm-37.75,5h31.75v15.25h-3.25v-1.6H1133v1.7h-3.2Zm3.2,2.4v3.2h25.3v-3.2Zm25.3,8.85v-3.4H1133v3.4Zm-11.4-32.7h11.15v-3H1146.9Zm0,5.7h11.15v-3.2H1146.9Z"/><path d="M34,1776.49H19.22v35.15h-4v-38.87H34Z"/><path d="M58,1779.61c-1.62,17.51-4.8,37.13-17.94,48.05a18.51,18.51,0,0,0-2.82-2.94c12.48-10.26,15.24-29,16.5-45.47ZM93.14,1825a12.38,12.38,0,0,0-3.42,2.7c-17.46-13.26-19.08-44.45-19.44-49.55l3.9-.24C74.42,1782.37,76,1812.3,93.14,1825Z"/><path d="M96,1824.84h14.82v-35.15h4v38.87H96Z"/><path d="M151.16,1772.17l3.24,1.74c-7.08,7.26-11.28,16.2-11.28,26.76s4.2,19.49,11.28,26.75l-3.24,1.74c-7.32-7.5-11.94-17-11.94-28.49S143.84,1779.67,151.16,1772.17Z"/><path d="M174.92,1774.69a98.85,98.85,0,0,1-6.18,13.56v39.59H164.9v-33.35a61.73,61.73,0,0,1-5.46,7,32.86,32.86,0,0,0-2.28-3.9c5.58-5.87,10.8-14.87,14-24Zm34.2,29.21c-2,1.38-4.44,2.7-6.84,4,2,5.82,5.82,11.16,10.62,13.62a15.86,15.86,0,0,0-2.64,3.06c-4.92-3-8.76-8.76-10.86-15.3-1,.54-2.1,1-3.12,1.5,2.1,6.3,1.26,12.72-1.38,15.24a6.51,6.51,0,0,1-5,1.92c-1,0-2.4-.06-3.72-.12a9.47,9.47,0,0,0-1-3.48,34.56,34.56,0,0,0,4,.24,3.38,3.38,0,0,0,3-1.14c1.44-1.32,2.1-4.86,1.44-8.94a58.72,58.72,0,0,1-19.5,11.4,11.72,11.72,0,0,0-2.34-2.82c7.44-2.22,16.26-7,21.12-11.82a24.37,24.37,0,0,0-1.62-3.66,57.71,57.71,0,0,1-16.74,9.66,16.14,16.14,0,0,0-2.22-2.64c5.82-1.74,13.38-5.58,17.52-9.3a16.53,16.53,0,0,0-2.82-3,39.59,39.59,0,0,1-12.3,6.17,14.66,14.66,0,0,0-2.28-2.58c6.54-2.1,10.86-4.62,13.68-7.26h-9.54v-9.35c-1.08,1-2.22,1.92-3.42,2.88a9.81,9.81,0,0,0-2.64-2.53,45.41,45.41,0,0,0,13.92-16.25l3.84.72a35.7,35.7,0,0,1-2,3.54h11.1l.78-.18,2.34,1.68a52.13,52.13,0,0,1-4.8,6.84h13v12.65H190.7a15.52,15.52,0,0,1-1.38,1.63,22.17,22.17,0,0,1,6,7.85,120.47,120.47,0,0,0,11.1-6.66Zm-25-23.09a54.58,54.58,0,0,1-4.2,5.16h11.58a33.35,33.35,0,0,0,3.72-5.16Zm-4,14.69h8.64a15.14,15.14,0,0,0,2.46-6.42h-11.1Zm24.72-6.42H194.6a18.56,18.56,0,0,1-1.8,6.42h12.06Z"/><path d="M242.48,1813.62a99.92,99.92,0,0,0-9.3-14.87c-2,12-5.34,21.83-11.52,29.21a32.41,32.41,0,0,0-3.78-2.76c9.84-10.56,12.24-28.25,13.26-50.39l4.26.18c-.36,6.66-.84,12.84-1.56,18.54,4.56,5.46,9.42,12.59,11.64,17.33Zm15.78-38.69c-.48,7.14-1.14,13.61-2.1,19.56,2.1,10.13,6.78,23,16,29.27a24.62,24.62,0,0,0-2.88,3.54c-7.56-5.82-12.12-15.66-14.76-24.59-2.52,10.43-6.6,18.71-13.44,25a28,28,0,0,0-3.78-2.76c12.06-10,15.3-27.24,16.62-50.21Z"/><path d="M327.26,1779.67v46.49H323v-4.86H287.06v5.16H283v-46.79ZM323,1817.28v-33.59H287.06v33.59Z"/><path d="M388.82,1784.05v27.77h-4.08v-3.48H366.92v19.56h-4.14v-19.56H345v3.78h-4v-28.07h21.72v-10.74h4.14v10.74Zm-26,20.33V1788H345v16.43Zm22,0V1788H366.92v16.43Z"/><path d="M445.1,1798.68a42.08,42.08,0,0,1-11.7,18.18,50,50,0,0,0,19.14,7.8,14.4,14.4,0,0,0-2.46,3.54,52.51,52.51,0,0,1-19.8-8.82,57,57,0,0,1-18.6,8.76,15,15,0,0,0-2.1-3.36,52.76,52.76,0,0,0,17.64-8,44.53,44.53,0,0,1-9.36-12.36,50.32,50.32,0,0,1-17.76,18.84,12.62,12.62,0,0,0-2.94-3c11-6.78,17.7-16.74,21.6-29.33H410.3c-3.84,0-5.76.3-6.3,1a36.41,36.41,0,0,0-1.38-3.84c.78-.18,1.44-1.08,2.1-2.34a45.92,45.92,0,0,0,4-10.62l4.32.78a72.76,72.76,0,0,1-4.44,11.15h11.28a96.84,96.84,0,0,0,2.52-13.91l4.44.72c-.66,4.62-1.44,9-2.46,13.19h26.22l-.06,3.91H423.26c-.66,2.28-1.38,4.5-2.22,6.59h20.64l.72-.17Zm-24.84,2.7a38,38,0,0,0,10,13.08,36,36,0,0,0,9.54-13.08Zm22.86-16.26c-1.68-2.33-5.1-6.11-7.68-8.93l3-1.86a104.44,104.44,0,0,1,7.8,8.58Z"/><path d="M508.4,1803.12v24.78h-4.32v-3.48H461.66v-21.3H466v17.4h16.8v-21.3H464.24v-20.33h4.14v16.44h14.4v-22h4.32v22h14.64v-16.5h4.32v20.39h-19v21.3h17v-17.4Z"/><path d="M534,1774c-1,2.94-2.1,6.3-3.18,8.88H541v38.75h-16.8v4.8h-3.66v-43.55h6.66a64.68,64.68,0,0,0,2.58-9.72Zm3.3,12.47H524.18v13.08h13.14Zm0,31.56v-14.88H524.18v14.88Zm33.06-33.17c-1,27.53-1.8,36.71-4.2,39.59a5.6,5.6,0,0,1-4.56,2.28,74.94,74.94,0,0,1-8.82-.12,9.42,9.42,0,0,0-1.32-3.9c3.9.36,7.5.36,8.82.36s1.92-.12,2.52-.9c2-2.1,2.94-11.34,3.72-35.7H550.82a55.33,55.33,0,0,1-5.64,10.68,36.22,36.22,0,0,0-3.36-2.22c4.08-5.34,7.32-13.61,9.18-21.89l3.84.84c-.78,3-1.62,6-2.64,8.88h18.18Zm-12.78,27a106.51,106.51,0,0,0-9.3-13.92l3.06-1.79a102.47,102.47,0,0,1,9.6,13.61Z"/><path d="M626.72,1816.2h-4v-3H587.6a27.53,27.53,0,0,1-7.56,15.12,14.66,14.66,0,0,0-3-2.76c6.42-6.18,7.38-14.7,7.38-21v-8h42.3Zm-19.8-34.31v6.3H628v3.48H583v-3.48H602.9v-6.3H579.5v-3.48h23.4v-5.22h4v5.22h23.7v3.48ZM588.38,1800v4.62c0,1.56-.06,3.3-.24,5.1H603V1800Zm34.38,0h-15.9v9.72h15.9Z"/><path d="M691.58,1793v3.65h-53.1V1793h15.36a31.68,31.68,0,0,0-3.66-9.12L654,1783a30.77,30.77,0,0,1,4,9.3l-2.52.66h16.38a80,80,0,0,0,4.5-10.2l4.32,1.08c-1.5,3-3.12,6.42-4.62,9.12Zm-3-10.5H641.9v-3.6h21.9a23.94,23.94,0,0,0-2.46-5.16l3.9-.84a26.71,26.71,0,0,1,3,6h20.34ZM646.88,1802h36.84V1828h-4.08v-2.16h-28.8v2.28h-4Zm4,3.48v6.66h28.8v-6.66Zm28.8,16.86v-7h-28.8v7Z"/><path d="M714.14,1791h10.74v3.72H714.14v1.62c2.22,2.39,8.7,10,10.14,11.87l-2.46,3.24a129,129,0,0,0-7.68-10.49v26.93h-4v-27.17c-3,7.07-7.2,14.21-11.1,18.41a28.3,28.3,0,0,0-2.22-3.66c4.56-4.62,9.6-13.08,12.36-20.75H698.24V1791h11.88v-10.32c-3.42.54-6.9,1-10.14,1.44a15.29,15.29,0,0,0-1.08-3.18c7.92-1.08,17.52-2.82,22.68-5l2.76,3.12a83.55,83.55,0,0,1-10.2,2.82Zm34.74-12.06V1825h-4v-4.56h-14v5H727v-46.49Zm-4,37.67v-33.83h-14v33.83Z"/><path d="M763.4,1813.44V1818h-3.66v-39.17h15.54v34.61Zm0-30.71v26.81h8.16v-26.81Zm49,38.75v3.9h-37.8v-3.9h17.58v-25.19h-13.5v-3.91h13.5v-18.05h4.08v18.05h14.34v3.91H796.22v25.19Z"/><path d="M868.4,1803.12v24.78h-4.32v-3.48H821.66v-21.3H826v17.4h16.8v-21.3H824.24v-20.33h4.14v16.44h14.4v-22h4.32v22h14.64v-16.5h4.32v20.39h-19v21.3h17v-17.4Z"/><path d="M894,1774c-1,2.94-2.1,6.3-3.18,8.88H901v38.75h-16.8v4.8h-3.66v-43.55h6.66a64.68,64.68,0,0,0,2.58-9.72Zm3.3,12.47H884.18v13.08h13.14Zm0,31.56v-14.88H884.18v14.88Zm33.06-33.17c-1,27.53-1.8,36.71-4.2,39.59a5.6,5.6,0,0,1-4.56,2.28,74.94,74.94,0,0,1-8.82-.12,9.42,9.42,0,0,0-1.32-3.9c3.9.36,7.5.36,8.82.36s1.92-.12,2.52-.9c2-2.1,2.94-11.34,3.72-35.7H910.82a55.33,55.33,0,0,1-5.64,10.68,36.22,36.22,0,0,0-3.36-2.22c4.08-5.34,7.32-13.61,9.18-21.89l3.84.84c-.78,3-1.62,6-2.64,8.88h18.18Zm-12.78,27a106.51,106.51,0,0,0-9.3-13.92l3.06-1.79a102.47,102.47,0,0,1,9.6,13.61Z"/><path d="M950.6,1783.63a58.59,58.59,0,0,1-10,14.33,32.06,32.06,0,0,0-3.48-2.39c5.82-5.34,10.74-13.68,13.62-22.38l4,1c-.72,2-1.56,4.08-2.46,6h38.22v3.48Zm30.42,13c.48,13.8,2.16,27.42,7,27.42,1.14,0,1.5-3.12,1.62-8.1a16.38,16.38,0,0,0,2.82,2.22c-.36,7.08-1.32,9.78-4.68,9.78-7.68,0-9.9-12.12-10.68-27.71H944.36v-3.61Zm-30.72-4.91v-3.42h35.82v3.42Z"/><path d="M998.06,1823.46a58.72,58.72,0,0,0,6.18-12.06l3.42,1.44c-1.62,3.72-3.78,9-6,12.36Zm45-16.26h-36.18V1779h14c.84-1.92,1.86-4.44,2.4-6.18l4.5.84c-1,1.86-1.92,3.78-2.82,5.34h18.12Zm-4-25h-28.38v5.16h28.38Zm0,8.27h-28.38v5.16h28.38Zm0,8.29h-28.38V1804h28.38Zm-5.88,24.47c3.3,0,3.78-.9,4.08-7.08a10.68,10.68,0,0,0,3.72,1.56c-.54,7.44-1.86,9.18-7.5,9.18h-14.16c-6.6,0-8.4-1.08-8.4-5.58v-10h4v10c0,1.56.72,1.92,4.56,1.92Zm-10-16a48.15,48.15,0,0,1,8.34,9.18l-3.24,2a47,47,0,0,0-8.16-9.42Zm21.18,3.18c2.82,3.6,5.82,8.52,6.9,11.76l-3.66,1.68a50.39,50.39,0,0,0-6.78-11.94Z"/><path d="M1058.84,1829.16l-3.24-1.74c7.08-7.26,11.28-16.2,11.28-26.75s-4.2-19.5-11.28-26.76l3.24-1.74c7.32,7.5,11.94,17,11.94,28.5S1066.16,1821.66,1058.84,1829.16Z"/><path d="M1108.16,1786.62a67.64,67.64,0,0,1-7.2,12.25v28.85h-4v-24a41.57,41.57,0,0,1-7.26,6.41,17,17,0,0,0-2-3.48c7-5,12.3-12.23,16.14-20H1089v-3.83h16.44a65.25,65.25,0,0,0,3.3-9.42l4.08,1c-.9,2.82-1.86,5.64-3,8.4h31.26v3.83Zm32.94,36.24v3.72H1105v-3.72h16v-17.52h-13.68v-3.72H1121v-11.81h4v11.81h13.8v3.72H1125v17.52Z"/><path d="M1201.76,1821.18v4H1148.3v-4h22.62v-46.85h4.14v18.54h22.62v4h-22.62v24.3Z"/><path d="M1209,1826.7c4.68-2,7.26-4.92,7.56-9.18a7.35,7.35,0,0,1-1.14.12c-2.34,0-4.26-1.38-4.26-4.08a4,4,0,0,1,4.32-4.14c3.18,0,4.86,2.64,4.86,6.66,0,6.48-4,11.28-10.08,13.44Z"/><path d="M214,1848.49H199.22v35.15h-4v-38.87H214Z"/><path d="M265.34,1895.7c2.58,0,3-1.5,3.3-10.74a11.92,11.92,0,0,0,3.66,1.68c-.42,10.26-1.56,12.84-6.72,12.84h-9.24c-5.16,0-6.66-1.32-6.66-6.12v-20h-11c-1.08,13.19-4.08,22-18.66,26.69a11,11,0,0,0-2.58-3.48c13.62-4,16.08-11.64,16.92-23.21h-9.54v-24.66h40.86v24.66H253.7v20.09c0,1.92.54,2.28,3.06,2.28Zm-36.54-26.33h32.64v-16.74H228.8Z"/><path d="M276,1896.84h14.82v-35.15h4v38.87H276Z"/><path d="M331.16,1844.17l3.24,1.74c-7.08,7.26-11.28,16.2-11.28,26.76s4.2,19.49,11.28,26.75l-3.24,1.74c-7.32-7.5-11.94-17-11.94-28.49S323.84,1851.67,331.16,1844.17Z"/><path d="M354.92,1846.69a98.85,98.85,0,0,1-6.18,13.56v39.59H344.9v-33.35a61.73,61.73,0,0,1-5.46,7,32.86,32.86,0,0,0-2.28-3.9c5.58-5.87,10.8-14.87,14-24Zm34.2,29.21c-2,1.38-4.44,2.7-6.84,4,2,5.82,5.82,11.16,10.62,13.62a15.86,15.86,0,0,0-2.64,3.06c-4.92-3-8.76-8.76-10.86-15.3-1,.54-2.1,1-3.12,1.5,2.1,6.3,1.26,12.72-1.38,15.24a6.51,6.51,0,0,1-5,1.92c-1,0-2.4-.06-3.72-.12a9.47,9.47,0,0,0-1-3.48,34.56,34.56,0,0,0,4,.24,3.38,3.38,0,0,0,3-1.14c1.44-1.32,2.1-4.86,1.44-8.94a58.72,58.72,0,0,1-19.5,11.4,11.72,11.72,0,0,0-2.34-2.82c7.44-2.22,16.26-7,21.12-11.82a24.37,24.37,0,0,0-1.62-3.66,57.71,57.71,0,0,1-16.74,9.66,16.14,16.14,0,0,0-2.22-2.64c5.82-1.74,13.38-5.58,17.52-9.3a16.53,16.53,0,0,0-2.82-3,39.59,39.59,0,0,1-12.3,6.17,14.66,14.66,0,0,0-2.28-2.58c6.54-2.1,10.86-4.62,13.68-7.26h-9.54v-9.35c-1.08,1-2.22,1.92-3.42,2.88a9.81,9.81,0,0,0-2.64-2.53,45.41,45.41,0,0,0,13.92-16.25l3.84.72a35.7,35.7,0,0,1-2,3.54h11.1l.78-.18,2.34,1.68a52.13,52.13,0,0,1-4.8,6.84h13v12.65H370.7a15.52,15.52,0,0,1-1.38,1.63,22.17,22.17,0,0,1,6,7.85,120.47,120.47,0,0,0,11.1-6.66Zm-25-23.09a54.58,54.58,0,0,1-4.2,5.16h11.58a33.35,33.35,0,0,0,3.72-5.16Zm-4,14.69h8.64a15.14,15.14,0,0,0,2.46-6.42h-11.1Zm24.72-6.42H374.6a18.56,18.56,0,0,1-1.8,6.42h12.06Z"/><path d="M452.36,1869.91v4.31H397.88v-4.31Z"/><path d="M489,1847c-.48.9-1,1.74-1.56,2.58,7.26,9,15.78,14.93,25.44,19.73a12.66,12.66,0,0,0-2.88,3.54c-9.3-5-17.28-10.85-24.9-20.15a71,71,0,0,1-24.66,20,17.42,17.42,0,0,0-2.94-3.47c11.22-5,22-13.92,28-23.88Zm-6,15.66H487V1900H483Z"/><path d="M547.28,1845.55c-.06,2.1-.12,5.1-.42,8.64.9,7,4.56,32.51,25.74,42a12.63,12.63,0,0,0-2.88,3.36c-15.42-7.26-21.72-22.74-24.6-34-2.64,12.23-8.94,26.33-24.06,34.19a13.77,13.77,0,0,0-3.12-3.06c25-12.48,24.78-42.11,25-51.11Z"/><path d="M598.16,1858.62a67.64,67.64,0,0,1-7.2,12.25v28.85h-4v-24a41.57,41.57,0,0,1-7.26,6.41,17,17,0,0,0-2-3.48c7-5,12.3-12.23,16.14-20H579v-3.83h16.44a65.25,65.25,0,0,0,3.3-9.42l4.08,1c-.9,2.82-1.86,5.64-3,8.4H631.1v3.83Zm32.94,36.24v3.72H595v-3.72h16v-17.52H597.32v-3.72H611v-11.81h4v11.81h13.8v3.72H615v17.52Z"/><path d="M656.9,1875.12s-.06,1.2-.12,1.74c-.72,14.1-1.5,19.2-3.12,20.94a5,5,0,0,1-3.9,1.62,63.71,63.71,0,0,1-7.5-.06,9,9,0,0,0-1.26-3.54c3.12.24,6.12.24,7.2.24a2.36,2.36,0,0,0,2.1-.6c1.14-1.08,1.8-5.52,2.4-16.68h-10v-.06h-2c.66-4.55,1.38-11.93,1.68-17.57H652.7v-9.66H640.88v-3.72h15.66v17.15H645.8c-.3,3.42-.6,7.08-1,10.2Zm21.42-2.58c2.58,10.32,7.5,19.2,14.7,23.4a13.85,13.85,0,0,0-2.76,3.18c-7.74-5.1-13-14.94-15.72-26.58h-6.18v21.18l9.42-3.6a22.47,22.47,0,0,0,.24,3.66c-11.94,5-13.56,5.76-14.52,6.6a13.5,13.5,0,0,0-1.74-3.48,4.17,4.17,0,0,0,2.7-4v-20.4h-6.9v-3.83h6.9v-22.2h3.9v22.2h23.88v3.83Zm11.4-23.33a54.1,54.1,0,0,1-16,17.51,22.71,22.71,0,0,0-3.06-2.64,44.89,44.89,0,0,0,15.12-16Z"/><path d="M747.26,1851.67v46.49H743v-4.86H707.06v5.16H703v-46.79ZM743,1889.28v-33.59H707.06v33.59Z"/><path d="M777.86,1883.58a28,28,0,0,0,1.38,3.48c-11,8-12.6,9.24-13.44,10.32a13.2,13.2,0,0,0-2.28-3.54c1.14-.78,3.36-2.76,3.36-5.34V1868h-8.94v-3.89h13v24.29Zm-6.66-24.83a77,77,0,0,0-9.06-9.66l2.64-2.4a77.64,77.64,0,0,1,9.18,9.18Zm35.52,36.65c1.5,0,1.8-1,1.92-7.38a13.91,13.91,0,0,0,3.6,1.56c-.42,7.62-1.44,9.54-5.1,9.54h-6.3c-4.26,0-5.28-1.2-5.28-5.46V1876h-5.64c-1,11.52-3.54,19.56-14.52,24.06A9.87,9.87,0,0,0,773,1897c10-3.78,12.18-11,12.9-21h-7.74v-18.65H796.4a91.89,91.89,0,0,0,5.22-12l4.08,1.32c-1.56,3.54-3.36,7.5-5,10.68H807V1876h-7.5v17.64c0,1.5.24,1.74,1.86,1.74Zm-20.58-38.15a43.6,43.6,0,0,0-5.34-10.32l3.3-1.38a44,44,0,0,1,5.7,10.14ZM782,1872.42h21V1861H782Z"/><path d="M836.54,1884.84a21.3,21.3,0,0,0,1.56,3.3c-10,7.68-11.58,8.94-12.48,10.14a15.55,15.55,0,0,0-2.34-3.18,7.64,7.64,0,0,0,3.12-5.7V1868h-8.52v-3.84h12.3v25.43Zm-6.72-26.57a67.47,67.47,0,0,0-8.52-8.82l2.58-2.4a64.48,64.48,0,0,1,8.64,8.4Zm26.46,9.3v10.31h12.36v21.9h-4.08v-2.22H844V1900h-4v-22.14h12.24v-10.31H837.08v-3.78h15.24v-11.22c-4.74.78-9.66,1.32-14.22,1.74a19.51,19.51,0,0,0-1.2-3.24c10.26-1.08,22.56-3.06,29.28-5.28L869,1849a100.7,100.7,0,0,1-12.72,2.94v11.88h16v3.78Zm8.28,14H844v12.36h20.52Z"/><path d="M878.84,1901.16l-3.24-1.74c7.08-7.26,11.28-16.2,11.28-26.75s-4.2-19.5-11.28-26.76l3.24-1.74c7.32,7.5,11.94,17,11.94,28.5S886.16,1893.66,878.84,1901.16Z"/><path d="M928.16,1858.62a67.64,67.64,0,0,1-7.2,12.25v28.85h-4v-24a41.57,41.57,0,0,1-7.26,6.41,17,17,0,0,0-2-3.48c7-5,12.3-12.23,16.14-20H909v-3.83h16.44a65.25,65.25,0,0,0,3.3-9.42l4.08,1c-.9,2.82-1.86,5.64-3,8.4H961.1v3.83Zm32.94,36.24v3.72H925v-3.72h16v-17.52H927.32v-3.72H941v-11.81h4v11.81h13.8v3.72H945v17.52Z"/><path d="M996,1853.71v10.86l.66-.78c7.32,3.54,16.74,8.93,21.54,12.53l-2.76,3.6c-4.2-3.42-12.48-8.46-19.44-12.12v32.1h-4.2v-46.19H968.54v-4h53v4Z"/><path d="M1046.36,1889.88a9,9,0,1,1-9.06-9A9,9,0,0,1,1046.36,1889.88Zm-2.82,0a6.21,6.21,0,1,0-6.24,6.24A6.22,6.22,0,0,0,1043.54,1889.88Z"/><path d="M144.14,1919.05c-.54.78-1.08,1.62-1.74,2.4,5.4,5.76,15.18,12.47,25,16a17.52,17.52,0,0,0-2.82,3.47,75.67,75.67,0,0,1-24.42-16.73A64.51,64.51,0,0,1,126,1936H154.4v3.72H125.78v-3.6a82.62,82.62,0,0,1-10,5.46,19,19,0,0,0-2.88-3.42c11.76-5,22.14-12.59,27.42-20.69Zm-28.62,28.37h49.32v3.84H138.38a113.31,113.31,0,0,1-12.6,14.34l28.26-2.22c-2.34-2.64-4.86-5.34-7.26-7.62l3.36-1.74c5.34,4.74,11,11.28,13.68,15.78l-3.54,2.1a37.32,37.32,0,0,0-3.42-5c-32,2.7-35.22,2.94-37.32,3.72-.24-.84-.9-3-1.38-4.14,1.26-.18,2.58-1.38,4.5-3.18A95.51,95.51,0,0,0,133,1951.26H115.52Z"/><path d="M174.08,1968.48c3.06-2.58,5.64-7,7.08-10.44l3.3,1.5c-1.68,3.6-4.08,8-7.14,10.86Zm51.72-36.9v3.25H174.56v-3.25h14.16a23.89,23.89,0,0,0-2.34-5.45l3.36-.84H177.26V1922h21.9c-.72-1.44-1.56-2.94-2.34-4.2l3.78-.9a39.9,39.9,0,0,1,2.94,5.1h19.2v3.3H210.86l3.24.78c-1,1.92-2,3.84-3,5.51Zm-7,23.7H197.66a47.07,47.07,0,0,1,8.82,6.24L204,1964a48.61,48.61,0,0,0-9.3-6.9l2-1.8H181.58V1938h37.2Zm-3.9-14.45H185.36v4.43h29.52Zm0,7.13H185.36v4.44h29.52Zm-8.22,20.16c2.58,0,3-.72,3.24-6.24a12.08,12.08,0,0,0,3.54,1.38c-.48,6.66-1.74,8.22-6.42,8.22H195.44c-5.82,0-7.38-1-7.38-5v-8H192v8c0,1.38.54,1.68,3.72,1.68ZM190,1925.29a26.19,26.19,0,0,1,2.76,6.18l-.48.11H207a59.18,59.18,0,0,0,3.06-6.29Zm27.66,32.21a46.55,46.55,0,0,1,8,10.2l-3.36,1.74a49,49,0,0,0-7.8-10.56Z"/><path d="M252.86,1955.58a28,28,0,0,0,1.38,3.48c-11,8-12.6,9.24-13.44,10.32a13.2,13.2,0,0,0-2.28-3.54c1.14-.78,3.36-2.76,3.36-5.34V1940h-8.94v-3.89h13v24.29Zm-6.66-24.83a77,77,0,0,0-9.06-9.66l2.64-2.4a77.64,77.64,0,0,1,9.18,9.18Zm35.52,36.65c1.5,0,1.8-1,1.92-7.38a13.91,13.91,0,0,0,3.6,1.56c-.42,7.62-1.44,9.54-5.1,9.54h-6.3c-4.26,0-5.28-1.2-5.28-5.46V1948h-5.64c-1,11.52-3.54,19.56-14.52,24.06A9.87,9.87,0,0,0,248,1969c10-3.78,12.18-11,12.9-21h-7.74v-18.65H271.4a91.89,91.89,0,0,0,5.22-12l4.08,1.32c-1.56,3.54-3.36,7.5-5,10.68H282V1948h-7.5v17.64c0,1.5.24,1.74,1.86,1.74Zm-20.58-38.15a43.6,43.6,0,0,0-5.34-10.32l3.3-1.38a44,44,0,0,1,5.7,10.14ZM257,1944.42h21V1933H257Z"/><path d="M311.54,1956.84a21.3,21.3,0,0,0,1.56,3.3c-10,7.68-11.58,8.94-12.48,10.14a15.55,15.55,0,0,0-2.34-3.18,7.64,7.64,0,0,0,3.12-5.7V1940h-8.52v-3.84h12.3v25.43Zm-6.72-26.57a67.47,67.47,0,0,0-8.52-8.82l2.58-2.4a64.48,64.48,0,0,1,8.64,8.4Zm26.46,9.3v10.31h12.36v21.9h-4.08v-2.22H319V1972h-4v-22.14h12.24v-10.31H312.08v-3.78h15.24v-11.22c-4.74.78-9.66,1.32-14.22,1.74a19.51,19.51,0,0,0-1.2-3.24c10.26-1.08,22.56-3.06,29.28-5.28L344,1921a100.7,100.7,0,0,1-12.72,2.94v11.88h16v3.78Zm8.28,14H319v12.36h20.52Z"/><path d="M354,1970.7c4.68-2,7.26-4.92,7.56-9.18a7.35,7.35,0,0,1-1.14.12c-2.34,0-4.26-1.38-4.26-4.08a4,4,0,0,1,4.32-4.14c3.18,0,4.86,2.64,4.86,6.66,0,6.48-4,11.28-10.08,13.44Z"/><path d="M436.94,1933.92v3.84H393.38v.36c0,9.84-1,24.24-7.86,34a14.68,14.68,0,0,0-3.3-2.76c6.42-9.18,7.08-22.08,7.08-31.26v-15.35c14.22-.9,30.9-2.58,40.08-4.86l3.36,3.24c-10.26,2.4-25.68,4-39.36,4.92v7.85Zm-38.22,12.66H432.5V1972h-4.14v-3.12H402.74v3.18h-4Zm4,3.78v14.82h25.62v-14.82Z"/><path d="M469.28,1930.87c-.48,26.69-.84,35.33-2.76,37.85a4.59,4.59,0,0,1-3.84,2.16,38.73,38.73,0,0,1-7,0,9.48,9.48,0,0,0-1.2-4c2.88.18,5.52.24,6.6.24a1.89,1.89,0,0,0,2-1c1.38-1.74,1.92-10,2.4-33.59h-9.6c-.54,16.14-2.64,30.65-10.8,39.41a13,13,0,0,0-3-2.7c7.68-7.92,9.48-21.54,9.9-36.71h-8.52v-3.84h8.64c.06-3.48.06-7,.06-10.62H456c0,3.6,0,7.14-.12,10.62h13.38Zm25.26-6v45.83h-4v-4H478.22v4.44h-3.84v-46.25Zm-4,38v-34.13H478.22v34.13Z"/><path d="M529,1920.49H514.22v35.15h-4v-38.87H529Z"/><path d="M586.82,1926.49V1930H533.48v-3.48h27.24a48.4,48.4,0,0,0-5.7-8l3.72-1.2a36.81,36.81,0,0,1,6.12,8.22l-2.64,1ZM541.7,1953.3h36.84v18.48h-4.08v-2.4H545.6V1972h-3.9Zm36.18-14.81H542.24v-3.37h35.64Zm-35.64,5.57h35.64v3.3H542.24Zm3.36,12.72v9.12h28.86v-9.12Z"/><path d="M591,1968.84h14.82v-35.15h4v38.87H591Z"/><path d="M634.94,1962c1.26.48,2.46,1.56,4.68,2.82,3.6,2,8.76,2.4,15.12,2.4,7.14,0,16.92-.42,23.22-1.14a14.26,14.26,0,0,0-1.2,4.14c-5.22.3-15.9.6-22.14.6-6.9,0-11.94-.48-15.72-2.64-2.28-1.32-4-2.94-5.28-2.94-2,0-5,2.82-8,6.24l-2.52-3.48c2.76-2.52,5.58-4.74,8-5.7v-18.36h-8v-3.77h11.88Zm-1.32-30.42a62.53,62.53,0,0,0-9-9.65l2.94-2a60.63,60.63,0,0,1,9.18,9.36Zm43.08,8.59H638.36v-3.48h17.46v-8.16H646.1a41.33,41.33,0,0,1-4.32,6.47,17.86,17.86,0,0,0-3.36-1.92,39.39,39.39,0,0,0,8.1-14.87l3.72.84c-.66,2-1.5,4.08-2.34,6h7.92v-7.62h3.9v7.62h14.34v3.48H659.72v8.16h17Zm-33.54,21.71v-16.62H672v16.62Zm3.78-3.36H668v-9.9H646.94Z"/><path d="M709,1920.49H694.22v35.15h-4v-38.87H709Z"/><path d="M732.86,1955.58a28,28,0,0,0,1.38,3.48c-11,8-12.6,9.24-13.44,10.32a13.2,13.2,0,0,0-2.28-3.54c1.14-.78,3.36-2.76,3.36-5.34V1940h-8.94v-3.89h13v24.29Zm-6.66-24.83a77,77,0,0,0-9.06-9.66l2.64-2.4a77.64,77.64,0,0,1,9.18,9.18Zm35.52,36.65c1.5,0,1.8-1,1.92-7.38a13.91,13.91,0,0,0,3.6,1.56c-.42,7.62-1.44,9.54-5.1,9.54h-6.3c-4.26,0-5.28-1.2-5.28-5.46V1948h-5.64c-1,11.52-3.54,19.56-14.52,24.06A9.87,9.87,0,0,0,728,1969c10-3.78,12.18-11,12.9-21h-7.74v-18.65H751.4a91.89,91.89,0,0,0,5.22-12l4.08,1.32c-1.56,3.54-3.36,7.5-5,10.68H762V1948h-7.5v17.64c0,1.5.24,1.74,1.86,1.74Zm-20.58-38.15a43.6,43.6,0,0,0-5.34-10.32l3.3-1.38a44,44,0,0,1,5.7,10.14ZM737,1944.42h21V1933H737Z"/><path d="M771,1968.84h14.82v-35.15h4v38.87H771Z"/><path d="M855.62,1953.36H832V1967c0,2.46-.66,3.6-2.64,4.26s-5,.72-10,.72a15.33,15.33,0,0,0-1.74-4c4.08.12,7.86.12,8.88.06s1.38-.3,1.38-1.14v-13.56H804.32v-3.78H827.9v-3.83a54.55,54.55,0,0,0,11-7.38H814.1v-3.79H843l.9-.24,2.7,2a61.7,61.7,0,0,1-14.52,10.8v2.4h23.58ZM809,1935.73h-3.9v-12h23.76a34.08,34.08,0,0,0-3.24-5.52l3.84-1.26a35.67,35.67,0,0,1,4.08,6.78H854.9v12h-4.08v-8.22H809Z"/><path d="M914.12,1949a100.84,100.84,0,0,1-11.7,8.58,36.22,36.22,0,0,0,15.3,8.76,24.16,24.16,0,0,0-2.64,3.48c-12.3-4.08-20.82-13.2-25.38-25.61h-.18a53.79,53.79,0,0,1-9.6,8V1966l14.88-4.5a18.38,18.38,0,0,0,.6,3.42c-16.62,5.4-18.66,6.12-20,7a14.6,14.6,0,0,0-1.74-3.66,3.9,3.9,0,0,0,2.16-3.78v-9.72a71.36,71.36,0,0,1-10.68,5.1,19.48,19.48,0,0,0-2.64-3.24,62.5,62.5,0,0,0,21.9-12.41H864.2v-3.54h23.7v-5.64H869.54v-3.36H887.9v-5.4H866.54v-3.48H887.9v-5.52h4v5.52h22v3.48h-22v5.4h19.32v3.36H891.92v5.64H915.8v3.54H893.54a38.86,38.86,0,0,0,6.6,11,80.68,80.68,0,0,0,10.74-8.46Z"/><path d="M938.6,1947.48a55.25,55.25,0,0,1-12.66,19.08,26.09,26.09,0,0,0-3.54-2.4,46.53,46.53,0,0,0,12.12-17.7Zm37.62-11.1v4H952.16v26.34c0,2.7-.72,3.84-2.64,4.56s-5.52.72-10.8.72a16.61,16.61,0,0,0-1.44-4.2c4.2.12,8,.18,9.12.12s1.5-.36,1.5-1.32v-26.22H923.72v-4ZM971,1925.89H929.06v-4H971Zm-6.3,20.75c4.44,5.58,9.18,13.14,11,18.18l-4,1.74c-1.62-5-6.24-12.72-10.68-18.48Z"/><path d="M1001.18,1957.2a16.22,16.22,0,0,0,1.38,3.36c-9.72,7.5-11.16,8.7-11.94,9.78a15.19,15.19,0,0,0-2.28-3.6,6.75,6.75,0,0,0,3-5.28V1940h-8.52v-3.89h12.36v25.43Zm-5.7-26.93a81.2,81.2,0,0,0-8.7-9.6l2.7-2.28a69.25,69.25,0,0,1,8.88,9.12Zm41.82,21.17h-8.64v20.46h-4v-20.46h-11.28c-.66,8-2.88,15.3-9.48,20.7a16.19,16.19,0,0,0-3.06-2.58c5.76-4.8,7.8-11.28,8.52-18.12h-9.18v-4h9.42c.06-1.08.06-2,.06-3.11v-11.46h-8.22v-4h8.22v-11.58h4V1929h11v-11.64h4V1929h7.62v4h-7.62v14.57h8.64Zm-12.66-4v-14.57h-11v11.51c0,1,0,2-.06,3.06Z"/><path d="M1061.54,1956.84a21.3,21.3,0,0,0,1.56,3.3c-10,7.68-11.58,8.94-12.48,10.14a15.55,15.55,0,0,0-2.34-3.18,7.64,7.64,0,0,0,3.12-5.7V1940h-8.52v-3.84h12.3v25.43Zm-6.72-26.57a67.47,67.47,0,0,0-8.52-8.82l2.58-2.4a64.48,64.48,0,0,1,8.64,8.4Zm26.46,9.3v10.31h12.36v21.9h-4.08v-2.22H1069V1972h-4v-22.14h12.24v-10.31h-15.24v-3.78h15.24v-11.22c-4.74.78-9.66,1.32-14.22,1.74a19.51,19.51,0,0,0-1.2-3.24c10.26-1.08,22.56-3.06,29.28-5.28L1094,1921a100.7,100.7,0,0,1-12.72,2.94v11.88h16v3.78Zm8.28,14H1069v12.36h20.52Z"/><path d="M1104,1970.7c4.68-2,7.26-4.92,7.56-9.18a7.35,7.35,0,0,1-1.14.12c-2.34,0-4.26-1.38-4.26-4.08a4,4,0,0,1,4.32-4.14c3.18,0,4.86,2.64,4.86,6.66,0,6.48-4,11.28-10.08,13.44Z"/><path d="M424,1992.49H409.22v35.15h-4v-38.87H424Z"/><path d="M475.52,2039.34c2.28,0,2.7-1.14,2.94-7.56a11.5,11.5,0,0,0,3.66,1.5c-.48,7.74-1.62,9.66-6.24,9.66h-9.72c-5.22,0-6.78-1.14-6.78-5.64v-16h-9c-1.26,11.7-4.92,19-19.26,22.74a11.49,11.49,0,0,0-2.28-3.36c13.38-3.12,16.32-9.36,17.34-19.38H434.9v-19.91h24.48a77.8,77.8,0,0,0,7.74-12.12l4.08,1.38a116.76,116.76,0,0,1-7.38,10.74H475v19.91H463.46v15.9c0,1.74.48,2.1,3.12,2.1Zm-33.18-50a56.08,56.08,0,0,1,6.78,10.32l-3.6,1.74a51.72,51.72,0,0,0-6.6-10.56Zm-3.42,28.38h31.92v-12.67H438.92Z"/><path d="M486,2040.84h14.82v-35.15h4v38.87H486Z"/><path d="M536.06,2000.53v16.91c0,9.18-2.1,20-15.54,26.64a8.84,8.84,0,0,0-2.46-2.94c12.66-6.36,14.16-15.54,14.16-23.81v-16.8Zm10.92-7.92v36h-3.84v-32.33h-17.7v32.45h-3.78v-36.11Zm-9.9,37.31a105.16,105.16,0,0,1,10.74,9.6l-2.58,2.94a88.29,88.29,0,0,0-10.68-10Zm20.82-35.21v35.51h-3.78v-35.51Zm11.22-5v48.41c0,2.88-.78,4.08-2.58,4.8s-5,.78-10.56.72a15.66,15.66,0,0,0-1.5-4c4.32.12,8,.12,9.18.06s1.56-.42,1.56-1.5v-48.47Z"/><path d="M629.12,2021a100.84,100.84,0,0,1-11.7,8.58,36.22,36.22,0,0,0,15.3,8.76,24.16,24.16,0,0,0-2.64,3.48c-12.3-4.08-20.82-13.2-25.38-25.61h-.18a53.79,53.79,0,0,1-9.6,8V2038l14.88-4.5a18.38,18.38,0,0,0,.6,3.42c-16.62,5.4-18.66,6.12-20,7a14.6,14.6,0,0,0-1.74-3.66,3.9,3.9,0,0,0,2.16-3.78v-9.72a71.36,71.36,0,0,1-10.68,5.1,19.48,19.48,0,0,0-2.64-3.24,62.5,62.5,0,0,0,21.9-12.41H579.2v-3.54h23.7v-5.64H584.54v-3.36H602.9v-5.4H581.54v-3.48H602.9v-5.52h4v5.52h22v3.48h-22v5.4h19.32v3.36H606.92v5.64H630.8v3.54H608.54a38.86,38.86,0,0,0,6.6,11,80.68,80.68,0,0,0,10.74-8.46Z"/><path d="M653.6,2019.48a55.25,55.25,0,0,1-12.66,19.08,26.09,26.09,0,0,0-3.54-2.4,46.53,46.53,0,0,0,12.12-17.7Zm37.62-11.1v4H667.16v26.34c0,2.7-.72,3.84-2.64,4.56s-5.52.72-10.8.72a16.61,16.61,0,0,0-1.44-4.2c4.2.12,8,.18,9.12.12s1.5-.36,1.5-1.32v-26.22H638.72v-4ZM686,1997.89H644.06v-4H686Zm-6.3,20.75c4.44,5.58,9.18,13.14,11,18.18l-4,1.74c-1.62-5-6.24-12.72-10.68-18.48Z"/><path d="M738.26,2014.92a42.2,42.2,0,0,1-10.08,15.36c6.24,4.86,14.28,8,24.06,9.66a17,17,0,0,0-2.46,3.66c-10-1.92-18.18-5.4-24.6-10.68-6.6,5.28-14.94,8.76-24.78,11.28a17.47,17.47,0,0,0-2.4-3.66c9.78-2.1,17.94-5.28,24.3-10.26a43.58,43.58,0,0,1-9.9-15l3.6-1.15a36.86,36.86,0,0,0,9.24,13.62,36.34,36.34,0,0,0,9-14Zm12.42-13.31H699.26v-3.9H724.4a43,43,0,0,0-4.08-7.56l3.66-1.32a38.5,38.5,0,0,1,4.44,7.68l-3,1.2h25.26Zm-32.46,3.6a68.25,68.25,0,0,1-15.6,13.85,31.16,31.16,0,0,0-3.06-3,54.88,54.88,0,0,0,14.88-12.35Zm17.16-1.5c5.52,3.71,12.24,9.17,15.48,13l-3.3,2.58c-3-3.84-9.66-9.47-15.24-13.31Z"/><path d="M769.22,2021.7V2039c0,2.34-.54,3.48-1.92,4.14s-3.42.84-6.72.78a29.24,29.24,0,0,0-1.26-3.9c2.28.06,4.32.06,5,0s1-.24,1-1v-16l-6.72,2.16-1-3.84c2.16-.54,4.8-1.38,7.74-2.34v-13.73h-7.08v-3.72h7.08v-12.18h4v12.18h5.64v3.72h-5.64v12.53l5.82-1.92.6,3.66Zm26.52,4a31.46,31.46,0,0,0,17,15,17,17,0,0,0-2.58,3.24A35.6,35.6,0,0,1,793,2027.64c-2.76,5.7-8.1,11.46-18.54,16.44a13.2,13.2,0,0,0-2.7-2.82c10.62-4.74,15.66-10.26,18-15.6H775v-3.48h4.44V2007c-.48.42-1,.84-1.38,1.26a12,12,0,0,0-2.7-2.76,43.35,43.35,0,0,0,12-16.31l4,.72c-.72,1.5-1.44,3.12-2.34,4.68h13.2l.66-.18,2.64,1.8a46.08,46.08,0,0,1-6.24,8.16h8v17.81h4.32v3.48ZM787,1998.07a43.63,43.63,0,0,1-4.92,6.3h12.6a46.83,46.83,0,0,0,5.1-6.3Zm3.9,24.11a32.72,32.72,0,0,0,.9-8.34v-6.23h-8.46v14.57Zm12.54-14.57h-7.74v6.3a34.24,34.24,0,0,1-.84,8.27h8.58Z"/><path d="M836.36,2033.88a9,9,0,1,1-9.06-9A9,9,0,0,1,836.36,2033.88Zm-2.82,0a6.21,6.21,0,1,0-6.24,6.24A6.22,6.22,0,0,0,833.54,2033.88Z"/><rect class="cls-2" x="1113" y="1173" width="65" height="271" rx="12"/><path class="cls-1" d="M1158.05,1212.79a27.61,27.61,0,0,0,11.5,8.1,11.65,11.65,0,0,0-2.15,2.55,30.77,30.77,0,0,1-12.8-10.65h-15.95a34.39,34.39,0,0,1-13,11.3,11.43,11.43,0,0,0-2.15-2.55,30.39,30.39,0,0,0,11.6-8.75H1124v-2.85h10v-16.15h-7.7V1191h7.7v-5h3.3v5h18.55v-5h3.35v5h7.65v2.8h-7.65v16.15h9.8v2.85Zm-10,14.5h17.3v2.85H1127.8v-2.85h16.9v-5.6h-10.45v-2.8h10.45v-4.4h3.35v4.4h10.65v2.8h-10.65Zm-10.8-33.5v3.6h18.55v-3.6Zm0,9.8h18.55v-3.65h-18.55Zm0,6.35h18.55v-3.8h-18.55Z"/><path class="cls-1" d="M1142.25,1254.54s0,1.15,0,1.55c-.6,15.85-1.2,21.2-2.6,23a3.71,3.71,0,0,1-2.8,1.45,32.65,32.65,0,0,1-4.45,0,9.25,9.25,0,0,0-.85-3c1.75.15,3.2.15,3.9.15a1.42,1.42,0,0,0,1.45-.65c1-1.2,1.6-6,2.15-19.35h-6.8c-.55,10-2,18.25-6.45,23.65a9.53,9.53,0,0,0-2.55-2.35c5.45-6.45,5.9-17.85,6.1-31.55h-5.2v-3.1h20.1v3.1h-11.65c0,2.45-.1,4.85-.2,7.15Zm-7.9-10.45a33.47,33.47,0,0,0-4.25-7.15l2.9-1.15a31.92,31.92,0,0,1,4.4,7Zm23.85-7.45a15.26,15.26,0,0,1-.85,2.55c2.65,5.45,7.7,11.35,12.45,14a13,13,0,0,0-2.45,2.75c-4.25-2.7-8.5-8-11.4-13.3a32.61,32.61,0,0,1-11,13.6,12.79,12.79,0,0,0-2.35-2.65c5.85-3.6,10.35-10.2,12.5-17.85Zm-8.3,32.45a74,74,0,0,1,13.6,8.25l-2.25,2.9c-2.85-2.6-8.75-6.3-13.4-8.65Zm9.5-4.85a66.22,66.22,0,0,0-8.6-6.85l2.15-2.2a67.46,67.46,0,0,1,8.75,6.55Z"/><path class="cls-1" d="M1165,1289.19v29.3h-3.5v-2.55h-13.3v15.6h-3.45v-15.6h-13.4v2.75H1128v-29.5Zm-33.65,3.2V1301h13.4v-8.65Zm13.4,20.35v-8.5h-13.4v8.5Zm16.75-20.35h-13.3V1301h13.3Zm0,20.35v-8.5h-13.3v8.5Z"/><path class="cls-1" d="M1167.25,1351.09v9.3h-3.15V1354h-35.4v6.4h-3v-9.3h6.95v-12.95h27.7v12.95Zm-6.45,26.6c0,1.85-.45,2.7-1.85,3.2s-3.9.5-7.7.45a8.57,8.57,0,0,0-1.1-2.75c3,.05,5.65.05,6.4.05s1-.25,1-1v-6.2c-7.3,1.45-14.85,3-20.45,4l-1.1-3c5.4-.8,13.6-2.3,21.55-3.75V1360h-22.2v5.3c0,4.85-.65,11.55-4.35,16.2a13.29,13.29,0,0,0-2.7-2c3.45-4.25,3.85-10,3.85-14.25v-8h28.6Zm-25-26.6h7.45v-6.9H1157v-3.35h-21.2Zm2.45,11.7a75.14,75.14,0,0,1,17.7,3l-.9,2.6c-4-1.5-11.7-2.9-17.7-3.35Zm18.75-16.3h-10.75v4.6H1157Z"/><path class="cls-1" d="M1161,1398.09a51.83,51.83,0,0,1-12,19.6,49.94,49.94,0,0,0,20.5,10.5,16.79,16.79,0,0,0-2.25,3,50.92,50.92,0,0,1-20.75-11.1c-5.65,5-12.55,8.6-21,11.3a15.53,15.53,0,0,0-2-3.05c8.35-2.45,15.1-5.9,20.6-10.6a57.05,57.05,0,0,1-12.2-19.65h-7.75v-3.25h44.75v3.25Zm-25.75,0a52.13,52.13,0,0,0,11.3,17.3,47.46,47.46,0,0,0,10.7-17.3Zm11.25-3.55a38.13,38.13,0,0,0-3.8-7.8l3.4-1a39,39,0,0,1,4,7.65Z"/><path d="M590.45,1353.14a204.67,204.67,0,0,1,39.38,23.69l-5.16-4a186.58,186.58,0,0,1,33.17,33l-4-5.16a189.37,189.37,0,0,1,24.36,42.18l-2.57-6.09a274.22,274.22,0,0,1,18.6,69.74l-.92-6.78a405.53,405.53,0,0,1,3.11,61.92c-.42,20.78-2,41.51-4,62.19-1.12,11.53-2.37,23-3.61,34.57a26.19,26.19,0,0,0,25.5,25.5c6.6-.29,13.44-2.46,18-7.47l4-5.16a25.27,25.27,0,0,0,3.48-12.87c2.76-25.63,5.56-51.28,6.92-77s1.28-51.87-1.85-77.61a348.34,348.34,0,0,0-7.93-44.55,297.66,297.66,0,0,0-15.13-43.2,204.8,204.8,0,0,0-37.49-57.64c-8.9-9.72-18.88-18.09-29.33-26.09a200.56,200.56,0,0,0-30.36-19.13q-4.15-2.13-8.41-4.09a18.92,18.92,0,0,0-9.48-3,26.22,26.22,0,0,0-25.41,12.17c-3.12,5.92-4.69,13.09-2.57,19.65l2.57,6.09a25.71,25.71,0,0,0,9.15,9.15Z"/><line class="cls-3" x1="602.26" y1="1331.36" x2="453.1" y2="1500.05"/><path d="M609.58,1299.58a165.36,165.36,0,0,1-21.46-1l6.78.91a59.7,59.7,0,0,1-15.11-4l6.09,2.57a65.05,65.05,0,0,1-13.76-8.35l5.16,4a96.07,96.07,0,0,1-17-17.29l4,5.17c-9.86-12.84-17.11-27.39-24.22-41.86q-13-26.54-25.08-53.53-6.79-15.2-13.26-30.53l2.57,6.09q-1.6-3.81-3.19-7.62a28.49,28.49,0,0,0-11.72-15.24,19,19,0,0,0-9.48-3,19.34,19.34,0,0,0-10.17.45l-6.09,2.57a25.71,25.71,0,0,0-9.15,9.15l-2.57,6.09a25.78,25.78,0,0,0,0,13.56q10.69,25.71,22.11,51.12,10.23,22.61,21.14,44.91c6,12.28,12.06,24.63,19.66,36,3,4.45,6.24,8.65,9.51,12.88,2,2.59,4.12,5.1,6.35,7.5a89.11,89.11,0,0,0,7.06,6.82,130.47,130.47,0,0,0,12.7,9.76,58.76,58.76,0,0,0,9.07,5.14,86,86,0,0,0,15.94,5.76,129.55,129.55,0,0,0,17.11,2.43c3.71.31,7.44.42,11.16.47l5.82,0a26.19,26.19,0,0,0,25.5-25.5l-.91-6.78a25.54,25.54,0,0,0-6.56-11.26c-5-4.58-11.12-7.46-18-7.46Z"/><path d="M609.32,1160.7a389.47,389.47,0,0,0-50.82,3.89,219,219,0,0,0-42.21,10,227.65,227.65,0,0,0-28.14,12A26.32,26.32,0,0,0,479,1221.4l4,5.16a25.45,25.45,0,0,0,11.25,6.56l6.78.91a25.52,25.52,0,0,0,12.87-3.48q5.57-2.83,11.3-5.27l-6.09,2.57c17.33-7.29,35.68-11.75,54.28-14.27l-6.77.91a344.41,344.41,0,0,1,42.71-2.79,26.23,26.23,0,0,0,25.5-25.5l-.91-6.78a25.45,25.45,0,0,0-6.56-11.25c-5-4.56-11.14-7.53-18-7.47Z"/><path d="M609.06,1350.58c3.78,0,7.56,0,11.34-.16a168,168,0,0,0,17.32-1.8,62.22,62.22,0,0,0,10.52-2.35,113.32,113.32,0,0,0,10.85-4.38,47,47,0,0,0,4.74-2.43,76.63,76.63,0,0,0,8.28-5.55,137.7,137.7,0,0,0,12.3-10.17,143.45,143.45,0,0,0,16.5-19.8c7.75-10.78,13.86-22.63,19.73-34.5q11-22.26,21.32-44.84c7.72-16.89,15.09-33.93,22.29-51,.82-1.94,1.63-3.89,2.44-5.83a19.34,19.34,0,0,0,.45-10.17,19,19,0,0,0-3-9.48,28.62,28.62,0,0,0-15.24-11.72l-6.78-.91a25.46,25.46,0,0,0-12.87,3.48l-5.16,4a25.45,25.45,0,0,0-6.56,11.25q-1.59,3.81-3.19,7.62l2.57-6.09q-11.53,27.32-24.06,54.21c-7.72,16.56-15.44,33.23-24.19,49.28a171.75,171.75,0,0,1-14.31,22.43l4-5.17a96.07,96.07,0,0,1-17,17.29l5.16-4a65.05,65.05,0,0,1-13.76,8.35l6.09-2.57a59.7,59.7,0,0,1-15.11,4l6.78-.91a165.36,165.36,0,0,1-21.46,1,26.18,26.18,0,0,0-25.5,25.5l.91,6.77a25.45,25.45,0,0,0,6.56,11.26,26.48,26.48,0,0,0,18,7.47Z"/><path d="M609.32,1211.7a344.54,344.54,0,0,1,42.71,2.79l-6.78-.91c18.61,2.52,37,7,54.29,14.27l-6.1-2.57q5.74,2.45,11.31,5.27a18.92,18.92,0,0,0,9.48,3,26.22,26.22,0,0,0,25.41-12.17l2.57-6.09a25.78,25.78,0,0,0,0-13.56l-2.57-6.09a25.71,25.71,0,0,0-9.15-9.15A216.66,216.66,0,0,0,683.7,1169a304.16,304.16,0,0,0-49.51-7.38c-8.28-.6-16.57-.89-24.87-1a28.24,28.24,0,0,0-18,7.47,18.93,18.93,0,0,0-5.27,8.2,19.22,19.22,0,0,0-2.2,9.83l.91,6.78a25.45,25.45,0,0,0,6.56,11.25l5.16,4a25.43,25.43,0,0,0,12.87,3.49Z"/><path d="M501.86,967.77q-.47,7.47-1.45,14.89l.91-6.78a200,200,0,0,1-13.62,50.6l2.57-6.1a168.14,168.14,0,0,1-21.65,37.44l4-5.16a144.14,144.14,0,0,1-25.39,25.49l5.16-4a127.71,127.71,0,0,1-28.15,16.58l6.09-2.57c-2,.83-3.95,1.6-6,2.33a28.49,28.49,0,0,0-15.24,11.72,18.92,18.92,0,0,0-3,9.48,19.34,19.34,0,0,0,.45,10.17l2.57,6.09a25.71,25.71,0,0,0,9.15,9.15l6.09,2.57a25.78,25.78,0,0,0,13.56,0,147.64,147.64,0,0,0,36.84-19c11.27-8.17,21.73-17.22,30.65-27.93a188.78,188.78,0,0,0,23.86-35.73A222.09,222.09,0,0,0,545.14,1016a204.07,204.07,0,0,0,4.48-20.62c1.49-9.14,2.67-18.36,3.24-27.61a19.32,19.32,0,0,0-2.19-9.83,26.24,26.24,0,0,0-23.31-15.67l-6.78.91a25.45,25.45,0,0,0-11.25,6.56l-4,5.16a25.52,25.52,0,0,0-3.48,12.87Z"/><path d="M663.14,967.77a246.08,246.08,0,0,0,6.58,43.85,223.74,223.74,0,0,0,15.13,41.57,170.16,170.16,0,0,0,9,16.6,210.83,210.83,0,0,0,14.24,19.88,145,145,0,0,0,11.72,13.17,186.49,186.49,0,0,0,18.09,15.36,147.46,147.46,0,0,0,40.2,21.49,19.34,19.34,0,0,0,10.17.45,19,19,0,0,0,9.48-3,19.4,19.4,0,0,0,7.15-6.57,19.19,19.19,0,0,0,4.57-8.67l.91-6.78a25.46,25.46,0,0,0-3.48-12.87l-4-5.16a25.45,25.45,0,0,0-11.25-6.56c-2-.73-4-1.5-6-2.33l6.09,2.57a127.71,127.71,0,0,1-28.15-16.58l5.16,4a144.14,144.14,0,0,1-25.39-25.49l4,5.16a168.14,168.14,0,0,1-21.65-37.44l2.57,6.1a200,200,0,0,1-13.62-50.6l.91,6.78q-1-7.42-1.45-14.89a28.38,28.38,0,0,0-7.47-18,28.44,28.44,0,0,0-18-7.47l-6.78.91a25.45,25.45,0,0,0-11.25,6.56l-4,5.16a25.32,25.32,0,0,0-3.48,12.87Z"/></svg>