<svg id="Layer_1" data-name="Layer 1" xmlns="http://www.w3.org/2000/svg" viewBox="0 0 1242 2208"><defs><style>.cls-1{fill:#f6eabe;}.cls-2{fill:#999;}.cls-3,.cls-4{fill:none;}.cls-4{stroke:#000;stroke-linecap:round;stroke-miterlimit:10;stroke-width:50px;}</style></defs><rect class="cls-1" width="1242" height="2208"/><path d="M655.14,191.82c0,139,18.26,440.67,332.68,627.26-11.91,9.52-33.34,31.75-42.08,44.46-201.67-122.28-285.83-300.13-320-451C566.21,623,465.38,769.85,303.4,864.33c-9.52-10.32-32.55-32.55-46.84-42.08C433.62,730.15,532.87,569,582.09,343.47l31,4.77c-5.56-38.11-8.73-73.05-10.32-104H405.83V191.82Z"/><rect class="cls-2" x="1113" y="450" width="65" height="126" rx="12"/><path class="cls-1" d="M1132.7,479.82c1.25,1.6,4.9,6.7,5.7,8.05l-2,2.45c-.7-1.5-2.35-4.4-3.75-6.65V510h-3.15V485.57c-1.5,5.05-3.5,9.9-5.55,12.85a14.83,14.83,0,0,0-1.75-3.1c2.9-4,5.8-11.5,7.2-18h-6.2v-3.15h6.3v-9.65h3.15v9.65h5.45v3.15h-5.45Zm19.1.7a19.47,19.47,0,0,0,.45,2.65c-10.15,2.7-11.6,3.15-12.5,3.75a12.13,12.13,0,0,0-1.1-3.2c.7-.2,1.55-.5,1.55-2.2v-16.7h3.25v6.5h8.35v2.9h-8.35v8.3Zm2.35,5.5-2,3.75h12.65V510h-3.4v-1.75h-17v2h-3.3V489.77h7.9c.55-1.5,1.2-3.25,1.55-4.6Zm7.3,6.5h-17v5.05h17Zm0,13v-5.3h-17v5.3Zm2.25-22.4c1.25,0,1.5-.75,1.65-5.25a9.16,9.16,0,0,0,2.85,1.25c-.3,5.45-1.2,6.95-4.15,6.95h-5.85c-3.65,0-4.55-.95-4.55-4.45V464.87h3.25v6.5h10.2v2.9h-10.2v7.35c0,1.3.25,1.5,1.65,1.5Z"/><path class="cls-1" d="M1167.55,539.87v2.5H1123.4v-2.5h20.25v-3.2H1126.8v-2.3h16.85v-3H1128.2v-2.25h15.45v-3.2H1123.5v-2.5h20.15v-3H1128.8V518h14.85v-3.55h3.25V518h14.45v5.4h6.15v2.5h-6.15v5.45H1146.9v3h17.3v2.3h-17.3v3.2Zm-37.75,5h31.75v15.25h-3.25v-1.6H1133v1.7h-3.2Zm3.2,2.4v3.2h25.3v-3.2Zm25.3,8.85v-3.4H1133v3.4Zm-11.4-32.7h11.15v-3H1146.9Zm0,5.7h11.15v-3.2H1146.9Z"/><path d="M384.92,1841.69a98.85,98.85,0,0,1-6.18,13.56v39.59H374.9v-33.35a61.73,61.73,0,0,1-5.46,7,32.86,32.86,0,0,0-2.28-3.9c5.58-5.87,10.8-14.87,14-24Zm34.2,29.21c-2,1.38-4.44,2.7-6.84,4,2,5.82,5.82,11.16,10.62,13.62a15.86,15.86,0,0,0-2.64,3.06c-4.92-3-8.76-8.76-10.86-15.3-1,.54-2.1,1-3.12,1.5,2.1,6.3,1.26,12.72-1.38,15.24a6.51,6.51,0,0,1-5,1.92c-1,0-2.4-.06-3.72-.12a9.47,9.47,0,0,0-1-3.48,34.56,34.56,0,0,0,4,.24,3.38,3.38,0,0,0,3-1.14c1.44-1.32,2.1-4.86,1.44-8.94a58.72,58.72,0,0,1-19.5,11.4,11.72,11.72,0,0,0-2.34-2.82c7.44-2.22,16.26-7,21.12-11.82a24.37,24.37,0,0,0-1.62-3.66,57.71,57.71,0,0,1-16.74,9.66,16.14,16.14,0,0,0-2.22-2.64c5.82-1.74,13.38-5.58,17.52-9.3a16.53,16.53,0,0,0-2.82-3,39.59,39.59,0,0,1-12.3,6.17,14.66,14.66,0,0,0-2.28-2.58c6.54-2.1,10.86-4.62,13.68-7.26h-9.54v-9.35c-1.08,1-2.22,1.92-3.42,2.88a9.81,9.81,0,0,0-2.64-2.53,45.41,45.41,0,0,0,13.92-16.25l3.84.72a35.7,35.7,0,0,1-2,3.54h11.1l.78-.18,2.34,1.68a52.13,52.13,0,0,1-4.8,6.84h13v12.65H400.7a15.52,15.52,0,0,1-1.38,1.63,22.17,22.17,0,0,1,6,7.85,120.47,120.47,0,0,0,11.1-6.66Zm-25-23.09a54.58,54.58,0,0,1-4.2,5.16h11.58a33.35,33.35,0,0,0,3.72-5.16Zm-4,14.69h8.64a15.14,15.14,0,0,0,2.46-6.42h-11.1Zm24.72-6.42H404.6a18.56,18.56,0,0,1-1.8,6.42h12.06Z"/><path d="M482.36,1864.91v4.31H427.88v-4.31Z"/><path d="M519,1842c-.48.9-1,1.74-1.56,2.58,7.26,9,15.78,14.93,25.44,19.73a12.66,12.66,0,0,0-2.88,3.54c-9.3-5-17.28-10.85-24.9-20.15a71,71,0,0,1-24.66,20,17.42,17.42,0,0,0-2.94-3.47c11.22-5,22-13.92,28-23.88Zm-6,15.66H517V1895H513Z"/><path d="M577.94,1874.68c4,9.24,12.18,14.76,24.48,16.74A14.71,14.71,0,0,0,600,1895c-12.48-2.46-20.58-8.22-25.14-18.3-3.12,8.64-9.48,15-24.54,18.24a11.88,11.88,0,0,0-2.16-3.36c14.7-3,20.46-8.88,23-16.86H548.48v-3.6h23.7c.42-2,.72-4.14,1-6.36h4.26a64.11,64.11,0,0,1-1,6.36h25.2v3.6Zm-13.08-27.89a60.2,60.2,0,0,1-12.12,17.46c-.72-.61-2.22-1.92-3.12-2.53a46.8,46.8,0,0,0,11.46-16Zm12,16.13h-4.14v-22.55h4.14Zm20.4.84c-2.28-4.5-7.68-11.39-12.72-16.31l3.24-1.74c5.1,4.74,10.68,11.46,13.08,16Z"/><path d="M661.52,1867.79v3.77h-23c-3.18,11-10.5,19-27.42,23.22a13.59,13.59,0,0,0-2.34-3.36c15.48-3.72,22.44-10.44,25.56-19.86H608.66v-3.77H635.3c1.62-7.45,1.56-16.38,1.62-26.76H641c-.06,10.14-.06,19.08-1.62,26.76ZM625,1864.42c-2.82-2.39-8.64-5.63-13.44-7.55l2.46-2.76c4.68,1.74,10.56,4.8,13.56,7.26Zm5.46-11c-2.88-2.4-8.76-5.46-13.56-7.32l2.22-2.88c4.74,1.74,10.68,4.62,13.62,7Zm8.82,23.93c8.4,4,16.92,9.36,22,13.8l-2.7,3c-4.86-4.56-13.14-9.9-21.36-14Z"/><path d="M684,1841c-1,2.94-2.1,6.3-3.18,8.88H691v38.75h-16.8v4.8h-3.66v-43.55h6.66a64.68,64.68,0,0,0,2.58-9.72Zm3.3,12.47H674.18v13.08h13.14Zm0,31.56v-14.88H674.18v14.88Zm33.06-33.17c-1,27.53-1.8,36.71-4.2,39.59a5.6,5.6,0,0,1-4.56,2.28,74.94,74.94,0,0,1-8.82-.12,9.42,9.42,0,0,0-1.32-3.9c3.9.36,7.5.36,8.82.36s1.92-.12,2.52-.9c2-2.1,2.94-11.34,3.72-35.7H700.82a55.33,55.33,0,0,1-5.64,10.68,36.22,36.22,0,0,0-3.36-2.22c4.08-5.34,7.32-13.61,9.18-21.89l3.84.84c-.78,3-1.62,6-2.64,8.88h18.18Zm-12.78,27a106.51,106.51,0,0,0-9.3-13.92l3.06-1.79a102.47,102.47,0,0,1,9.6,13.61Z"/><path d="M744.74,1875.82A56.3,56.3,0,0,1,733,1892.38a31.15,31.15,0,0,0-3.36-2.64,43.44,43.44,0,0,0,11.22-15Zm14.94-6v19.43c0,2.52-.6,3.72-2.28,4.44s-4.8.78-9.06.78a14.4,14.4,0,0,0-1.5-4.14c3.54.06,6.66.12,7.62.06s1.2-.3,1.2-1.2v-19.37H742.28c-3.6,0-5.7.29-6.36.84a25.22,25.22,0,0,0-1.5-4.15c1.32-.35,2.64-2.1,4.44-4.73a94.78,94.78,0,0,0,5.88-9.67H729.92v-3.83h16.74c1.38-2.64,2.64-5.52,3.78-8.28l4.08,1.86c-.9,2.1-2,4.32-3.06,6.42h28.2v3.83H749.48a139,139,0,0,1-8.58,13.8h14.76v-9h4v9H777.2v3.91Zm8.52,4.79c4.74,4.56,10.32,10.92,12.84,15.06l-3.48,2c-2.46-4.2-7.86-10.74-12.6-15.36Z"/><path d="M823.1,1848.23v9h15.18v37.31h-4V1891H796v3.78h-3.9v-37.55h14.58v-9H788.84v-3.84H841v3.84Zm11.16,39v-10.8h-9.18c-4.62,0-5.82-1.08-5.82-5.52v-10H810.2c-.3,6.35-2.52,13.37-11.58,17.93a12.32,12.32,0,0,0-2.34-2.94c8.16-4,10-9.65,10.32-15H796v26.33Zm-15-39h-9v9h9ZM823.1,1861v10c0,1.5.3,1.74,2.4,1.74h7.56a5.89,5.89,0,0,0,1.2-.06V1861Z"/><path d="M849,1893.7c4.68-2,7.26-4.92,7.56-9.18a7.35,7.35,0,0,1-1.14.12c-2.34,0-4.26-1.38-4.26-4.08a4,4,0,0,1,4.32-4.14c3.18,0,4.86,2.64,4.86,6.66,0,6.48-4,11.28-10.08,13.44Z"/><path d="M268.4,1941.88l-8.1,2.52v17.76c0,2.4-.6,3.42-2,4.08s-3.84.78-7.8.72a14,14,0,0,0-1.26-3.66c2.76.06,5.34.06,6.06.06s1.14-.3,1.14-1.14V1945.6l-8,2.46-1.2-3.89c2.52-.67,5.76-1.57,9.24-2.59v-13.25h-8.52v-3.78h8.52v-12.18h3.9v12.18h7.2v3.78h-7.2v12.11c2.46-.77,5-1.5,7.56-2.27Zm25.68-9.84c3.36,0,3.9-1,4.26-7.61a12.2,12.2,0,0,0,3.72,1.56c-.66,7.8-1.92,9.72-7.74,9.72H280c-6.6,0-8.46-1.14-8.46-6.06v-17h4v9.12c7.26-1.56,15.24-3.66,19.74-5.64l3.12,2.94c-6,2.4-15,4.5-22.86,6v4.62c0,2,.72,2.39,4.62,2.39Zm-22.5,8.94h28v25.74h-4v-2.52H275.36V1967h-3.78Zm3.78,3.48v6.36h20.22v-6.36Zm20.22,16.38v-6.72H275.36v6.72Z"/><path d="M323.6,1942.48a55.25,55.25,0,0,1-12.66,19.08,26.09,26.09,0,0,0-3.54-2.4,46.53,46.53,0,0,0,12.12-17.7Zm37.62-11.1v4H337.16v26.34c0,2.7-.72,3.84-2.64,4.56s-5.52.72-10.8.72a16.61,16.61,0,0,0-1.44-4.2c4.2.12,8,.18,9.12.12s1.5-.36,1.5-1.32v-26.22H308.72v-4ZM356,1920.89H314.06v-4H356Zm-6.3,20.75c4.44,5.58,9.18,13.14,11,18.18l-4,1.74c-1.62-5-6.24-12.72-10.68-18.48Z"/><path d="M392.48,1952.62a99.92,99.92,0,0,0-9.3-14.87c-2,12-5.34,21.83-11.52,29.21a32.41,32.41,0,0,0-3.78-2.76c9.84-10.56,12.24-28.25,13.26-50.39l4.26.18c-.36,6.66-.84,12.84-1.56,18.54,4.56,5.46,9.42,12.59,11.64,17.33Zm15.78-38.69c-.48,7.14-1.14,13.61-2.1,19.56,2.1,10.13,6.78,23,16,29.27a24.62,24.62,0,0,0-2.88,3.54c-7.56-5.82-12.12-15.66-14.76-24.59-2.52,10.43-6.6,18.71-13.44,25a28,28,0,0,0-3.78-2.76c12.06-10,15.3-27.24,16.62-50.21Z"/><path d="M453.5,1921.37l2.7.9c-3.24,23.4-12.72,37.25-25.32,44.27a15.08,15.08,0,0,0-3.24-3.24A41.32,41.32,0,0,0,444.92,1946a77,77,0,0,0-10.08-7.8l2.4-2.64a78.16,78.16,0,0,1,9.36,6.84,67.66,67.66,0,0,0,4.92-17.09H439.7a56.85,56.85,0,0,1-8.7,16.13,25,25,0,0,0-3.3-2.58c5.52-6.23,9.36-16.07,11.58-26.57l3.9.72c-.6,2.94-1.38,5.76-2.22,8.52h11.7Zm13.92,9.05c5.28,4,11.88,9.72,15.12,13.5l-3.18,2.76A112,112,0,0,0,465.92,1934V1967h-4.08v-54.59h4.08v19.25Z"/><path d="M516.62,1920.23c-.72,2.64-1.62,5.52-2.46,7.92h24.3V1967h-4v-3.18H495.38V1967h-3.9v-38.87h18.6a80.35,80.35,0,0,0,1.92-7.92H488.78v-3.78H541.4v3.78Zm-21.24,39.89h9v-28.25h-9Zm26-28.25H508v7h13.32Zm0,10.31H508v7.2h13.32ZM508,1960.12h13.32v-7.44H508Zm26.4-28.25H525v28.25h9.42Z"/><path d="M560.6,1955.44c1.2.72,2.46,1.92,4.62,3.3,3.84,2.46,8.76,2.88,15.54,2.88,7.2,0,16-.48,21.78-1.08a14.26,14.26,0,0,0-1.2,4.14c-4.26.24-15.06.6-20.64.6-7.44,0-12.36-.66-16.44-3.3-2.4-1.62-4.38-3.66-5.64-3.66-2.16,0-5.1,3.48-8.34,7.68l-2.64-3.54c3.24-3.54,6.36-6.24,9.06-7.26v-17.52h-8.46V1934H560.6Zm-1.26-29.69a67.13,67.13,0,0,0-9.12-10l2.88-2.16a72.28,72.28,0,0,1,9.3,9.66Zm18.12,16.31c-.9,5.76-3.18,11.64-8.64,15.72a14.27,14.27,0,0,0-2.88-2.82,19.37,19.37,0,0,0,7.56-12.9H565v-3.84h8.88c.12-1.26.12-2.39.12-3.6v-7.5H565.4v-3.83H574v-9.78h3.9v9.78h10.44v-9.78h4v9.78h7.86v3.83h-7.86v11.1h9v3.84h-9v15.54h-4v-15.54Zm.48-7.38c0,1.15,0,2.28-.12,3.54h10.56v-11.1H577.94Z"/><path d="M625.46,1913.81c19.08,13.56,17,36.35,37,48.17a15.15,15.15,0,0,0-2,4.38c-13.86-7.8-17.88-21.9-24.66-34-4.5,15.9-12.18,27.06-24.48,34.32a23.47,23.47,0,0,0-3.6-3.18c13.5-7.08,21-19.26,24.84-36.48a37.21,37.21,0,0,0-9.54-9.83Z"/><path d="M721.64,1961.5v3.78H668.48v-3.78H693v-9.06H672.5v-3.78H693v-7.2H674.48v-26.69h41.88v26.69H697.28v7.2H718.4v3.78H697.28v9.06Zm-43.2-35.15h14.82v-8H678.44Zm0,11.52h14.82v-8.1H678.44Zm33.84-19.5H697v8h15.24Zm0,11.4H697v8.1h15.24Z"/><path d="M756.62,1920.23c-.72,2.64-1.62,5.52-2.46,7.92h24.3V1967h-4v-3.18H735.38V1967h-3.9v-38.87h18.6a80.35,80.35,0,0,0,1.92-7.92H728.78v-3.78H781.4v3.78Zm-21.24,39.89h9v-28.25h-9Zm26-28.25H748v7h13.32Zm0,10.31H748v7.2h13.32ZM748,1960.12h13.32v-7.44H748Zm26.4-28.25H765v28.25h9.42Z"/><path d="M804,1913c-1,2.94-2.1,6.3-3.18,8.88H811v38.75h-16.8v4.8h-3.66v-43.55h6.66a64.68,64.68,0,0,0,2.58-9.72Zm3.3,12.47H794.18v13.08h13.14Zm0,31.56v-14.88H794.18v14.88Zm33.06-33.17c-1,27.53-1.8,36.71-4.2,39.59a5.6,5.6,0,0,1-4.56,2.28,74.94,74.94,0,0,1-8.82-.12,9.42,9.42,0,0,0-1.32-3.9c3.9.36,7.5.36,8.82.36s1.92-.12,2.52-.9c2-2.1,2.94-11.34,3.72-35.7H820.82a55.33,55.33,0,0,1-5.64,10.68,36.22,36.22,0,0,0-3.36-2.22c4.08-5.34,7.32-13.61,9.18-21.89l3.84.84c-.78,3-1.62,6-2.64,8.88h18.18Zm-12.78,27a106.51,106.51,0,0,0-9.3-13.92l3.06-1.79a102.47,102.47,0,0,1,9.6,13.61Z"/><path d="M870.26,1926.71c-.18,3.29-.48,6.59-.9,10h25.5s-.06,1.37-.12,2c-1.26,17-2.4,23.46-4.8,25.8-1.26,1.38-2.64,1.8-4.86,1.92a87,87,0,0,1-10-.24,9,9,0,0,0-1.38-3.84c4.26.36,8.46.42,10,.42a4,4,0,0,0,2.82-.72c1.74-1.56,2.88-7.44,4-21.48H868.76c-1.92,10.68-6.42,20.7-17.82,26.64a11.83,11.83,0,0,0-2.88-3.12c15.54-7.68,17.1-23.46,17.82-37.31H849.44v-3.84H900.8v3.84Zm5.64-4a74.52,74.52,0,0,0-4.2-9.18l3.84-1.5a65.56,65.56,0,0,1,4.26,8.94Z"/><path d="M959.12,1961.44c0,2.76-.66,4.14-2.64,4.86s-5.76.66-11.22.66a15.26,15.26,0,0,0-1.5-4.08c4.5.18,8.64.12,9.9.06s1.5-.36,1.5-1.5v-34.86h-40V1967h-4v-44.27h16.5a99,99,0,0,0,3.9-10.5l4.86.84c-1.38,3.18-2.94,6.78-4.44,9.66h27.12Zm-32.1-7v4.32h-3.66v-23.93H946.7v19.61Zm0-16v12.42h16v-12.42Z"/><path d="M986.36,1956.88a9,9,0,1,1-9.06-9A9,9,0,0,1,986.36,1956.88Zm-2.82,0a6.21,6.21,0,1,0-6.24,6.24A6.22,6.22,0,0,0,983.54,1956.88Z"/><path d="M326.9,2001.17c4.44,10.31,12.24,20,20.76,24.71a23.11,23.11,0,0,0-3.06,3.36c-9-5.58-16.92-16.32-21.6-28.07h-1v22.43h14.28v4H322V2039H317.9v-11.4H303.68v-4H317.9v-22.43h-1.08c-4.74,11.75-12.66,22.43-21.3,28.25a24.18,24.18,0,0,0-2.88-3.18c8-4.92,15.66-14.76,20.16-25.07H294.14v-4H317.9v-12.72H322v12.72h24v4Z"/><path d="M401.6,1990.07c-4.32,12.12-10.08,22.68-18.6,31.25a65.72,65.72,0,0,0,24.42,14.1,17.56,17.56,0,0,0-2.76,3.54A66.69,66.69,0,0,1,380,2024.2a72.92,72.92,0,0,1-25.38,14.7,14.53,14.53,0,0,0-2.16-3.36,69.86,69.86,0,0,0,24.78-14.1,89.37,89.37,0,0,1-18.18-29.27l3.6-1.08a80.51,80.51,0,0,0,17.52,27.53c8.16-8.21,13.62-18.41,17.4-29.87ZM381,2000a102.25,102.25,0,0,0-5.88-14.45l3.42-1.38a105.48,105.48,0,0,1,6.06,14.28Z"/><path d="M442.46,2033.62a70.7,70.7,0,0,0,7.38.36c2.1.06,14.76,0,17.58-.06a16.36,16.36,0,0,0-1.44,3.84H449.72c-12.3,0-19.92-1.92-24.72-10.38a31.55,31.55,0,0,1-9.48,11.7,19.84,19.84,0,0,0-3.06-2.82c6.3-4.14,10.2-10.92,11.82-19.86l4,.6a55.92,55.92,0,0,1-1.5,6.06c2.34,5.64,6.3,8.52,11.7,9.84v-18.54H413.72v-3.6H466.4v3.6H442.46v7.08h20v3.6h-20Zm17.22-27.17h-39.6v-19.56h39.6Zm-4-16.44H424v5.16h31.68Zm0,8.1H424v5.27h31.68Z"/><path d="M485.6,2027.44c1.2.72,2.46,1.92,4.62,3.3,3.84,2.46,8.76,2.88,15.54,2.88,7.2,0,16-.48,21.78-1.08a14.26,14.26,0,0,0-1.2,4.14c-4.26.24-15.06.6-20.64.6-7.44,0-12.36-.66-16.44-3.3-2.4-1.62-4.38-3.66-5.64-3.66-2.16,0-5.1,3.48-8.34,7.68l-2.64-3.54c3.24-3.54,6.36-6.24,9.06-7.26v-17.52h-8.46V2006H485.6Zm-1.26-29.69a67.13,67.13,0,0,0-9.12-10l2.88-2.16a72.28,72.28,0,0,1,9.3,9.66Zm18.12,16.31c-.9,5.76-3.18,11.64-8.64,15.72a14.27,14.27,0,0,0-2.88-2.82,19.37,19.37,0,0,0,7.56-12.9H490v-3.84h8.88c.12-1.26.12-2.39.12-3.6v-7.5H490.4v-3.83H499v-9.78h3.9v9.78h10.44v-9.78h4v9.78h7.86v3.83h-7.86v11.1h9v3.84h-9v15.54h-4v-15.54Zm.48-7.38c0,1.15,0,2.28-.12,3.54h10.56v-11.1H502.94Z"/><path d="M564.92,2014.67c5.58,7.49,14.64,14.93,22.86,18.53a18.72,18.72,0,0,0-2.76,3.3c-8.16-4-17.1-11.7-23-19.92V2039H557.9v-22.2a67.14,67.14,0,0,1-22.68,19.56,18.62,18.62,0,0,0-2.82-3.3c8.22-3.54,17.22-10.86,22.68-18.35H533.6v-3.79h24.3v-15.35H536.48v-3.84H557.9v-7.26H562v7.26h22v3.84H562v15.35h24.48v3.79Zm-20-17.52a41.63,41.63,0,0,1,5.82,11.34L547,2010a47.17,47.17,0,0,0-5.52-11.52ZM569.36,2009a74.6,74.6,0,0,0,6.18-12.11l4.14,1.38a113.47,113.47,0,0,1-7,11.94Z"/><path d="M594,2037.7c4.68-2,7.26-4.92,7.56-9.18a7.35,7.35,0,0,1-1.14.12c-2.34,0-4.26-1.38-4.26-4.08a4,4,0,0,1,4.32-4.14c3.18,0,4.86,2.64,4.86,6.66,0,6.48-4,11.28-10.08,13.44Z"/><path d="M660.86,2024.26H623.72v-3.84h37.14Zm12-14.46c-1.74,17.16-3.42,23.94-6.12,26.52-1.44,1.44-2.88,1.8-5.34,2-2.1.06-6.36-.06-10.56-.3a8.73,8.73,0,0,0-1.5-4c4.68.42,9.24.48,10.92.48,1.5,0,2.4-.06,3.12-.72,2.22-1.8,3.78-8.1,5.28-22.2H633.38l-3.3-.06c1.86-6.54,4.32-17.75,5.76-25.85l4,.42c-.36,2.1-.78,4.38-1.26,6.66h33.72v3.84H637.7c-.84,4-1.68,7.85-2.52,11.22H673Z"/><path d="M709,1987.49H694.22v35.15h-4v-38.87H709Z"/><path d="M763.4,2014.12v24.78h-4.32v-3.48H716.66v-21.3H721v17.4h16.8v-21.3H719.24v-20.33h4.14v16.44h14.4v-22h4.32v22h14.64v-16.5h4.32v20.39h-19v21.3h17v-17.4Z"/><path d="M771,2035.84h14.82v-35.15h4v38.87H771Z"/><path d="M817,2006.62c2,2.05,7.68,8.59,8.94,10.2l-2.52,3.24a96.69,96.69,0,0,0-6.42-8.88v27.66h-3.78v-29.58c-2.4,7.2-5.7,14.22-9.06,18.42a27.23,27.23,0,0,0-2.16-3.6c4.2-5,8.52-14.63,10.74-23.09h-9.42v-3.72h9.9v-13H817v13h8.76V2001H817Zm38.16-18.71v50.45h-3.9v-3.48h-19v3.66H828.5v-50.63Zm-22.86,3.78v10.5h19v-10.5Zm0,25h19v-10.8h-19Zm19,14.58V2020.3h-19v10.92Z"/><path d="M887.42,1993.07a91.33,91.33,0,0,1-5.82,24.65,70.3,70.3,0,0,1,7.86,10.68l-3.12,2.88a62.67,62.67,0,0,0-6.6-9.48,44.22,44.22,0,0,1-14,17.1,15.8,15.8,0,0,0-2.76-3.24c5.52-3.6,10.26-9.42,13.92-17.22a138.94,138.94,0,0,0-11-11.27l2.82-2.41a135.66,135.66,0,0,1,9.9,9.66,82.55,82.55,0,0,0,4.5-18.11H864.38v-3.84h19.74l.78-.18Zm29.82,9.66H910v30.71c0,2.82-.78,4-2.46,4.68s-4.68.84-9.78.84a16.78,16.78,0,0,0-1.38-4.14c3.84.12,7.26.06,8.22.06s1.44-.36,1.44-1.44v-30.71h-17.1V1999H906v-14.64h4V1999h7.26Zm-20.4,21.59a52.49,52.49,0,0,0-6.54-13.56l3.3-1.43c2.88,4.07,5.76,9.59,6.72,13.19Z"/><path d="M941.36,2028.88a9,9,0,1,1-9.06-9A9,9,0,0,1,941.36,2028.88Zm-2.82,0a6.21,6.21,0,1,0-6.24,6.24A6.22,6.22,0,0,0,938.54,2028.88Z"/><rect class="cls-2" x="1113" y="1233" width="65" height="271" rx="12"/><path class="cls-1" d="M1158.05,1272.79a27.61,27.61,0,0,0,11.5,8.1,11.65,11.65,0,0,0-2.15,2.55,30.77,30.77,0,0,1-12.8-10.65h-15.95a34.39,34.39,0,0,1-13,11.3,11.43,11.43,0,0,0-2.15-2.55,30.39,30.39,0,0,0,11.6-8.75H1124v-2.85h10v-16.15h-7.7V1251h7.7v-5h3.3v5h18.55v-5h3.35v5h7.65v2.8h-7.65v16.15h9.8v2.85Zm-10,14.5h17.3v2.85H1127.8v-2.85h16.9v-5.6h-10.45v-2.8h10.45v-4.4h3.35v4.4h10.65v2.8h-10.65Zm-10.8-33.5v3.6h18.55v-3.6Zm0,9.8h18.55v-3.65h-18.55Zm0,6.35h18.55v-3.8h-18.55Z"/><path class="cls-1" d="M1142.25,1314.54s0,1.15,0,1.55c-.6,15.85-1.2,21.2-2.6,23a3.71,3.71,0,0,1-2.8,1.45,32.65,32.65,0,0,1-4.45,0,9.25,9.25,0,0,0-.85-3c1.75.15,3.2.15,3.9.15a1.42,1.42,0,0,0,1.45-.65c1-1.2,1.6-6,2.15-19.35h-6.8c-.55,10-2,18.25-6.45,23.65a9.53,9.53,0,0,0-2.55-2.35c5.45-6.45,5.9-17.85,6.1-31.55h-5.2v-3.1h20.1v3.1h-11.65c0,2.45-.1,4.85-.2,7.15Zm-7.9-10.45a33.47,33.47,0,0,0-4.25-7.15l2.9-1.15a31.92,31.92,0,0,1,4.4,7Zm23.85-7.45a15.26,15.26,0,0,1-.85,2.55c2.65,5.45,7.7,11.35,12.45,14a13,13,0,0,0-2.45,2.75c-4.25-2.7-8.5-8-11.4-13.3a32.61,32.61,0,0,1-11,13.6,12.79,12.79,0,0,0-2.35-2.65c5.85-3.6,10.35-10.2,12.5-17.85Zm-8.3,32.45a74,74,0,0,1,13.6,8.25l-2.25,2.9c-2.85-2.6-8.75-6.3-13.4-8.65Zm9.5-4.85a66.22,66.22,0,0,0-8.6-6.85l2.15-2.2a67.46,67.46,0,0,1,8.75,6.55Z"/><path class="cls-1" d="M1165,1349.19v29.3h-3.5v-2.55h-13.3v15.6h-3.45v-15.6h-13.4v2.75H1128v-29.5Zm-33.65,3.2V1361h13.4v-8.65Zm13.4,20.35v-8.5h-13.4v8.5Zm16.75-20.35h-13.3V1361h13.3Zm0,20.35v-8.5h-13.3v8.5Z"/><path class="cls-1" d="M1167.25,1411.09v9.3h-3.15V1414h-35.4v6.4h-3v-9.3h6.95v-12.95h27.7v12.95Zm-6.45,26.6c0,1.85-.45,2.7-1.85,3.2s-3.9.5-7.7.45a8.57,8.57,0,0,0-1.1-2.75c3,.05,5.65.05,6.4.05s1-.25,1-1v-6.2c-7.3,1.45-14.85,3-20.45,4l-1.1-3c5.4-.8,13.6-2.3,21.55-3.75V1420h-22.2v5.3c0,4.85-.65,11.55-4.35,16.2a13.29,13.29,0,0,0-2.7-2c3.45-4.25,3.85-10,3.85-14.25v-8h28.6Zm-25-26.6h7.45v-6.9H1157v-3.35h-21.2Zm2.45,11.7a75.14,75.14,0,0,1,17.7,3l-.9,2.6c-4-1.5-11.7-2.9-17.7-3.35Zm18.75-16.3h-10.75v4.6H1157Z"/><path class="cls-1" d="M1161,1458.09a51.83,51.83,0,0,1-12,19.6,49.94,49.94,0,0,0,20.5,10.5,16.79,16.79,0,0,0-2.25,3,50.92,50.92,0,0,1-20.75-11.1c-5.65,5-12.55,8.6-21,11.3a15.53,15.53,0,0,0-2-3.05c8.35-2.45,15.1-5.9,20.6-10.6a57.05,57.05,0,0,1-12.2-19.65h-7.75v-3.25h44.75v3.25Zm-25.75,0a52.13,52.13,0,0,0,11.3,17.3,47.46,47.46,0,0,0,10.7-17.3Zm11.25-3.55a38.13,38.13,0,0,0-3.8-7.8l3.4-1a39,39,0,0,1,4,7.65Z"/><line class="cls-3" x1="621" y1="364" x2="621" y2="364"/><line class="cls-4" x1="624" y1="1139" x2="288" y2="1611"/><line class="cls-4" x1="624" y1="1139" x2="960" y2="1611"/></svg>