<svg id="Layer_1" data-name="Layer 1" xmlns="http://www.w3.org/2000/svg" viewBox="0 0 1242 2208"><defs><style>.cls-1{fill:#f6eabe;}.cls-2{fill:#999;}.cls-3,.cls-4{fill:none;}.cls-4{stroke:#000;stroke-linecap:round;stroke-miterlimit:10;stroke-width:50px;}</style></defs><rect class="cls-1" width="1242" height="2208"/><path d="M917.25,780.46c0,35.73-8,53.2-33.35,61.93s-70.67,8.74-137.36,8.74c-2.38-14.3-9.53-38.91-18.26-53.2,52.4,1.59,102.42.79,118.3.79,13.5-.79,17.47-4.76,17.47-18.26V357.26H651.26c31,127.84,92.1,217.56,200.08,262.82C839.43,630.4,822,651,814,665.33,706.84,613.72,643.32,522.41,610,397c-33.35,126.25-100,216.76-209.61,272.34-7.94-11.91-23.82-31.76-35.73-41.28,110.36-54,176.26-140.54,204-270.76h-216V851.92H300.31V305.65h291.4A848.12,848.12,0,0,1,582.18,212H436.88V165.12h189c2.38,50,7.15,97.66,14.29,140.53H917.25Z"/><rect class="cls-2" x="1113" y="436" width="65" height="126" rx="12"/><path class="cls-1" d="M1132.7,465.82c1.25,1.6,4.9,6.7,5.7,8.05l-2,2.45c-.7-1.5-2.35-4.4-3.75-6.65V496h-3.15V471.57c-1.5,5.05-3.5,9.9-5.55,12.85a14.83,14.83,0,0,0-1.75-3.1c2.9-4,5.8-11.5,7.2-18h-6.2v-3.15h6.3v-9.65h3.15v9.65h5.45v3.15h-5.45Zm19.1.7a19.47,19.47,0,0,0,.45,2.65c-10.15,2.7-11.6,3.15-12.5,3.75a12.13,12.13,0,0,0-1.1-3.2c.7-.2,1.55-.5,1.55-2.2v-16.7h3.25v6.5h8.35v2.9h-8.35v8.3Zm2.35,5.5-2,3.75h12.65V496h-3.4v-1.75h-17v2h-3.3V475.77h7.9c.55-1.5,1.2-3.25,1.55-4.6Zm7.3,6.5h-17v5.05h17Zm0,13v-5.3h-17v5.3Zm2.25-22.4c1.25,0,1.5-.75,1.65-5.25a9.16,9.16,0,0,0,2.85,1.25c-.3,5.45-1.2,6.95-4.15,6.95h-5.85c-3.65,0-4.55-.95-4.55-4.45V450.87h3.25v6.5h10.2v2.9h-10.2v7.35c0,1.3.25,1.5,1.65,1.5Z"/><path class="cls-1" d="M1167.55,525.87v2.5H1123.4v-2.5h20.25v-3.2H1126.8v-2.3h16.85v-3H1128.2v-2.25h15.45v-3.2H1123.5v-2.5h20.15v-3.05H1128.8V504h14.85v-3.55h3.25V504h14.45v5.4h6.15v2.5h-6.15v5.45H1146.9v3h17.3v2.3h-17.3v3.2Zm-37.75,5h31.75v15.25h-3.25v-1.6H1133v1.7h-3.2Zm3.2,2.4v3.2h25.3v-3.2Zm25.3,8.85v-3.4H1133v3.4Zm-11.4-32.7h11.15v-3.05H1146.9Zm0,5.7h11.15v-3.2H1146.9Z"/><path d="M394,1846.49H379.22v35.15h-4v-38.87H394Z"/><path d="M449.48,1852.91v13.31H445.1v-9.47H404.78v9.47h-4.2v-13.31Zm-25.86-9.36a29.64,29.64,0,0,1,4.56,7.44l-4.08,1.68a33.91,33.91,0,0,0-4.26-7.62Z"/><path d="M456,1894.84h14.82v-35.15h4v38.87H456Z"/><path d="M511.16,1842.17l3.24,1.74c-7.08,7.26-11.28,16.2-11.28,26.76s4.2,19.49,11.28,26.75l-3.24,1.74c-7.32-7.5-11.94-17-11.94-28.49S503.84,1849.67,511.16,1842.17Z"/><path d="M534.92,1844.69a98.85,98.85,0,0,1-6.18,13.56v39.59H524.9v-33.35a61.73,61.73,0,0,1-5.46,7,32.86,32.86,0,0,0-2.28-3.9c5.58-5.87,10.8-14.87,14-24Zm34.2,29.21c-2,1.38-4.44,2.7-6.84,4,2,5.82,5.82,11.16,10.62,13.62a15.86,15.86,0,0,0-2.64,3.06c-4.92-3-8.76-8.76-10.86-15.3-1,.54-2.1,1-3.12,1.5,2.1,6.3,1.26,12.72-1.38,15.24a6.51,6.51,0,0,1-5,1.92c-1,0-2.4-.06-3.72-.12a9.47,9.47,0,0,0-1-3.48,34.56,34.56,0,0,0,4,.24,3.38,3.38,0,0,0,3-1.14c1.44-1.32,2.1-4.86,1.44-8.94a58.72,58.72,0,0,1-19.5,11.4,11.72,11.72,0,0,0-2.34-2.82c7.44-2.22,16.26-7,21.12-11.82a24.37,24.37,0,0,0-1.62-3.66,57.71,57.71,0,0,1-16.74,9.66,16.14,16.14,0,0,0-2.22-2.64c5.82-1.74,13.38-5.58,17.52-9.3a16.53,16.53,0,0,0-2.82-3,39.59,39.59,0,0,1-12.3,6.17,14.66,14.66,0,0,0-2.28-2.58c6.54-2.1,10.86-4.62,13.68-7.26h-9.54v-9.35c-1.08,1-2.22,1.92-3.42,2.88a9.81,9.81,0,0,0-2.64-2.53,45.41,45.41,0,0,0,13.92-16.25l3.84.72a35.7,35.7,0,0,1-2,3.54h11.1l.78-.18,2.34,1.68a52.13,52.13,0,0,1-4.8,6.84h13v12.65H550.7a15.52,15.52,0,0,1-1.38,1.63,22.17,22.17,0,0,1,6,7.85,120.47,120.47,0,0,0,11.1-6.66Zm-25-23.09a54.58,54.58,0,0,1-4.2,5.16h11.58a33.35,33.35,0,0,0,3.72-5.16Zm-4,14.69h8.64a15.14,15.14,0,0,0,2.46-6.42h-11.1Zm24.72-6.42H554.6a18.56,18.56,0,0,1-1.8,6.42h12.06Z"/><path d="M587.54,1863.76c0,9.72-.9,24.12-6.78,34a14.54,14.54,0,0,0-3.54-2c5.7-9.42,6.3-22.8,6.3-32v-14.39H603.8c-.66-1.62-1.38-3.48-2.1-4.92l3.84-1.14c1,1.86,2,4.26,2.76,6.06h19.32V1863H587.54Zm17.64,10.86c-.24,2-.54,3.9-.9,5.64H626s-.06,1.14-.12,1.62c-.9,8.94-1.68,12.6-3.24,14a5.47,5.47,0,0,1-4,1.38,81.39,81.39,0,0,1-8.28-.12,7,7,0,0,0-1.14-3.36c3.42.3,6.78.36,8,.36s1.74-.06,2.22-.48c1-.9,1.74-3.66,2.4-10.2H603.44c-2,6.48-6.06,11.34-14.4,14.34a9.51,9.51,0,0,0-2.28-2.94c10.8-3.66,13.44-10.74,14.46-20.28H589.46v-3.36h19.62a68.18,68.18,0,0,0-3.84-6.65l3.36-1.27a63.05,63.05,0,0,1,4.08,6.54l-3.24,1.38h20.28v3.36Zm-17.64-21.77v6.72h36.12v-6.72Z"/><path d="M647.72,1863c0,10.19-.84,25-6.9,35a16.38,16.38,0,0,0-3.48-2c5.88-9.72,6.42-23.27,6.42-33v-16.56h44v13.14H647.72Zm43.92,29.87v3.36h-45.3v-3.36h20.4V1886H651v-3.36h15.78v-5.52c-11.88.78-13.68,1-14.94,1.38a21.58,21.58,0,0,0-1.2-3.66,7.26,7.26,0,0,0,3.3-1.74,65.05,65.05,0,0,0,6.24-5.75H648.32v-3.3h41.34v3.3H665.3a82.06,82.06,0,0,1-7.68,6.89l21-1.14c-1.56-1.26-3.18-2.52-4.68-3.66l2.88-1.86A83.27,83.27,0,0,1,689.18,1878l-3.18,2.1a38.15,38.15,0,0,0-3.84-3.9l-11.58.72v5.76H686.9V1886H670.58v6.84Zm-43.92-43v6.36h36.06v-6.36Z"/><path d="M698.84,1899.16l-3.24-1.74c7.08-7.26,11.28-16.2,11.28-26.75s-4.2-19.5-11.28-26.76l3.24-1.74c7.32,7.5,11.94,17,11.94,28.5S706.16,1891.66,698.84,1899.16Z"/><path d="M748.16,1856.62a67.64,67.64,0,0,1-7.2,12.25v28.85h-4v-24a41.57,41.57,0,0,1-7.26,6.41,17,17,0,0,0-2-3.48c7-5,12.3-12.23,16.14-20H729v-3.83h16.44a65.25,65.25,0,0,0,3.3-9.42l4.08,1c-.9,2.82-1.86,5.64-3,8.4H781.1v3.83Zm32.94,36.24v3.72H745v-3.72h16v-17.52H747.32v-3.72H761v-11.81h4v11.81h13.8v3.72H765v17.52Z"/><path d="M813.5,1852.37l2.7.9c-3.24,23.4-12.72,37.25-25.32,44.27a15.08,15.08,0,0,0-3.24-3.24A41.32,41.32,0,0,0,804.92,1877a77,77,0,0,0-10.08-7.8l2.4-2.64a78.16,78.16,0,0,1,9.36,6.84,67.66,67.66,0,0,0,4.92-17.09H799.7a56.85,56.85,0,0,1-8.7,16.13,25,25,0,0,0-3.3-2.58c5.52-6.23,9.36-16.07,11.58-26.57l3.9.72c-.6,2.94-1.38,5.76-2.22,8.52h11.7Zm13.92,9.05c5.28,4,11.88,9.72,15.12,13.5l-3.18,2.76A112,112,0,0,0,825.92,1865V1898h-4.08v-54.59h4.08v19.25Z"/><path d="M849,1896.7c4.68-2,7.26-4.92,7.56-9.18a7.35,7.35,0,0,1-1.14.12c-2.34,0-4.26-1.38-4.26-4.08a4,4,0,0,1,4.32-4.14c3.18,0,4.86,2.64,4.86,6.66,0,6.48-4,11.28-10.08,13.44Z"/><path d="M214,1918.49H199.22v35.15h-4v-38.87H214Z"/><path d="M235.46,1916.81c19.08,13.56,17,36.35,37,48.17a15.15,15.15,0,0,0-2,4.38c-13.86-7.8-17.88-21.9-24.66-34-4.5,15.9-12.18,27.06-24.48,34.32a23.47,23.47,0,0,0-3.6-3.18c13.5-7.08,21-19.26,24.84-36.48a37.21,37.21,0,0,0-9.54-9.83Z"/><path d="M276,1966.84h14.82v-35.15h4v38.87H276Z"/><path d="M331.16,1914.17l3.24,1.74c-7.08,7.26-11.28,16.2-11.28,26.76s4.2,19.49,11.28,26.75l-3.24,1.74c-7.32-7.5-11.94-17-11.94-28.49S323.84,1921.67,331.16,1914.17Z"/><path d="M358.4,1944.88l-8.1,2.52v17.76c0,2.4-.6,3.42-2,4.08s-3.84.78-7.8.72a14,14,0,0,0-1.26-3.66c2.76.06,5.34.06,6.06.06s1.14-.3,1.14-1.14V1948.6l-8,2.46-1.2-3.89c2.52-.67,5.76-1.57,9.24-2.59v-13.25h-8.52v-3.78h8.52v-12.18h3.9v12.18h7.2v3.78h-7.2v12.11c2.46-.77,5-1.5,7.56-2.27Zm25.68-9.84c3.36,0,3.9-1,4.26-7.61a12.2,12.2,0,0,0,3.72,1.56c-.66,7.8-1.92,9.72-7.74,9.72H370c-6.6,0-8.46-1.14-8.46-6.06v-17h4v9.12c7.26-1.56,15.24-3.66,19.74-5.64l3.12,2.94c-6,2.4-15,4.5-22.86,6v4.62c0,2,.72,2.39,4.62,2.39Zm-22.5,8.94h28v25.74h-4v-2.52H365.36V1970h-3.78Zm3.78,3.48v6.36h20.22v-6.36Zm20.22,16.38v-6.72H365.36v6.72Z"/><path d="M413.6,1945.48a55.25,55.25,0,0,1-12.66,19.08,26.09,26.09,0,0,0-3.54-2.4,46.53,46.53,0,0,0,12.12-17.7Zm37.62-11.1v4H427.16v26.34c0,2.7-.72,3.84-2.64,4.56s-5.52.72-10.8.72a16.61,16.61,0,0,0-1.44-4.2c4.2.12,8,.18,9.12.12s1.5-.36,1.5-1.32v-26.22H398.72v-4ZM446,1923.89H404.06v-4H446Zm-6.3,20.75c4.44,5.58,9.18,13.14,11,18.18l-4,1.74c-1.62-5-6.24-12.72-10.68-18.48Z"/><path d="M470.6,1958.44c1.2.72,2.46,1.92,4.62,3.3,3.84,2.46,8.76,2.88,15.54,2.88,7.2,0,16-.48,21.78-1.08a14.26,14.26,0,0,0-1.2,4.14c-4.26.24-15.06.6-20.64.6-7.44,0-12.36-.66-16.44-3.3-2.4-1.62-4.38-3.66-5.64-3.66-2.16,0-5.1,3.48-8.34,7.68l-2.64-3.54c3.24-3.54,6.36-6.24,9.06-7.26v-17.52h-8.46V1937H470.6Zm-1.26-29.69a67.13,67.13,0,0,0-9.12-10l2.88-2.16a72.28,72.28,0,0,1,9.3,9.66Zm18.12,16.31c-.9,5.76-3.18,11.64-8.64,15.72a14.27,14.27,0,0,0-2.88-2.82,19.37,19.37,0,0,0,7.56-12.9H475v-3.84h8.88c.12-1.26.12-2.39.12-3.6v-7.5H475.4v-3.83H484v-9.78h3.9v9.78h10.44v-9.78h4v9.78h7.86v3.83h-7.86v11.1h9v3.84h-9v15.54h-4v-15.54Zm.48-7.38c0,1.15,0,2.28-.12,3.54h10.56v-11.1H487.94Z"/><path d="M535.46,1916.81c19.08,13.56,17,36.35,37,48.17a15.15,15.15,0,0,0-2,4.38c-13.86-7.8-17.88-21.9-24.66-34-4.5,15.9-12.18,27.06-24.48,34.32a23.47,23.47,0,0,0-3.6-3.18c13.5-7.08,21-19.26,24.84-36.48a37.21,37.21,0,0,0-9.54-9.83Z"/><path d="M587.54,1935.76c0,9.72-.9,24.12-6.78,34a14.54,14.54,0,0,0-3.54-2c5.7-9.42,6.3-22.8,6.3-32v-14.39H603.8c-.66-1.62-1.38-3.48-2.1-4.92l3.84-1.14c1,1.86,2,4.26,2.76,6.06h19.32V1935H587.54Zm17.64,10.86c-.24,2-.54,3.9-.9,5.64H626s-.06,1.14-.12,1.62c-.9,8.94-1.68,12.6-3.24,14a5.47,5.47,0,0,1-4,1.38,81.39,81.39,0,0,1-8.28-.12,7,7,0,0,0-1.14-3.36c3.42.3,6.78.36,8,.36s1.74-.06,2.22-.48c1-.9,1.74-3.66,2.4-10.2H603.44c-2,6.48-6.06,11.34-14.4,14.34a9.51,9.51,0,0,0-2.28-2.94c10.8-3.66,13.44-10.74,14.46-20.28H589.46v-3.36h19.62a68.18,68.18,0,0,0-3.84-6.65l3.36-1.27a63.05,63.05,0,0,1,4.08,6.54l-3.24,1.38h20.28v3.36Zm-17.64-21.77v6.72h36.12v-6.72Z"/><path d="M647.72,1935c0,10.19-.84,25-6.9,35a16.38,16.38,0,0,0-3.48-2c5.88-9.72,6.42-23.27,6.42-33v-16.56h44v13.14H647.72Zm43.92,29.87v3.36h-45.3v-3.36h20.4V1958H651v-3.36h15.78v-5.52c-11.88.78-13.68,1-14.94,1.38a21.58,21.58,0,0,0-1.2-3.66,7.26,7.26,0,0,0,3.3-1.74,65.05,65.05,0,0,0,6.24-5.75H648.32v-3.3h41.34v3.3H665.3a82.06,82.06,0,0,1-7.68,6.89l21-1.14c-1.56-1.26-3.18-2.52-4.68-3.66l2.88-1.86A83.27,83.27,0,0,1,689.18,1950l-3.18,2.1a38.15,38.15,0,0,0-3.84-3.9l-11.58.72v5.76H686.9V1958H670.58v6.84Zm-43.92-43v6.36h36.06v-6.36Z"/><path d="M714,1916c-1,2.94-2.1,6.3-3.18,8.88H721v38.75h-16.8v4.8h-3.66v-43.55h6.66a64.68,64.68,0,0,0,2.58-9.72Zm3.3,12.47H704.18v13.08h13.14Zm0,31.56v-14.88H704.18v14.88Zm33.06-33.17c-1,27.53-1.8,36.71-4.2,39.59a5.6,5.6,0,0,1-4.56,2.28,74.94,74.94,0,0,1-8.82-.12,9.42,9.42,0,0,0-1.32-3.9c3.9.36,7.5.36,8.82.36s1.92-.12,2.52-.9c2-2.1,2.94-11.34,3.72-35.7H730.82a55.33,55.33,0,0,1-5.64,10.68,36.22,36.22,0,0,0-3.36-2.22c4.08-5.34,7.32-13.61,9.18-21.89l3.84.84c-.78,3-1.62,6-2.64,8.88h18.18Zm-12.78,27a106.51,106.51,0,0,0-9.3-13.92l3.06-1.79a102.47,102.47,0,0,1,9.6,13.61Z"/><path d="M780.26,1929.71c-.18,3.29-.48,6.59-.9,10h25.5s-.06,1.37-.12,2c-1.26,17-2.4,23.46-4.8,25.8-1.26,1.38-2.64,1.8-4.86,1.92a87,87,0,0,1-10-.24,9,9,0,0,0-1.38-3.84c4.26.36,8.46.42,10,.42a4,4,0,0,0,2.82-.72c1.74-1.56,2.88-7.44,4-21.48H778.76c-1.92,10.68-6.42,20.7-17.82,26.64a11.83,11.83,0,0,0-2.88-3.12c15.54-7.68,17.1-23.46,17.82-37.31H759.44v-3.84H810.8v3.84Zm5.64-4a74.52,74.52,0,0,0-4.2-9.18l3.84-1.5a65.56,65.56,0,0,1,4.26,8.94Z"/><path d="M869.12,1964.44c0,2.76-.66,4.14-2.64,4.86s-5.76.66-11.22.66a15.26,15.26,0,0,0-1.5-4.08c4.5.18,8.64.12,9.9.06s1.5-.36,1.5-1.5v-34.86h-40V1970h-4v-44.27h16.5a99,99,0,0,0,3.9-10.5l4.86.84c-1.38,3.18-2.94,6.78-4.44,9.66h27.12Zm-32.1-7v4.32h-3.66v-23.93H856.7v19.61Zm0-16v12.42h16v-12.42Z"/><path d="M878.84,1971.16l-3.24-1.74c7.08-7.26,11.28-16.2,11.28-26.75s-4.2-19.5-11.28-26.76l3.24-1.74c7.32,7.5,11.94,17,11.94,28.5S886.16,1963.66,878.84,1971.16Z"/><path d="M928.16,1928.62a67.64,67.64,0,0,1-7.2,12.25v28.85h-4v-24a41.57,41.57,0,0,1-7.26,6.41,17,17,0,0,0-2-3.48c7-5,12.3-12.23,16.14-20H909v-3.83h16.44a65.25,65.25,0,0,0,3.3-9.42l4.08,1c-.9,2.82-1.86,5.64-3,8.4H961.1v3.83Zm32.94,36.24v3.72H925v-3.72h16v-17.52H927.32v-3.72H941v-11.81h4v11.81h13.8v3.72H945v17.52Z"/><path d="M1021.64,1964.5v3.78H968.48v-3.78H993v-9.06H972.5v-3.78H993v-7.2H974.48v-26.69h41.88v26.69H997.28v7.2h21.12v3.78H997.28v9.06Zm-43.2-35.15h14.82v-8H978.44Zm0,11.52h14.82v-8.1H978.44Zm33.84-19.5H997v8h15.24Zm0,11.4H997v8.1h15.24Z"/><path d="M1046.36,1959.88a9,9,0,1,1-9.06-9A9,9,0,0,1,1046.36,1959.88Zm-2.82,0a6.21,6.21,0,1,0-6.24,6.24A6.22,6.22,0,0,0,1043.54,1959.88Z"/><path d="M206.9,2004.17c4.44,10.31,12.24,20,20.76,24.71a23.11,23.11,0,0,0-3.06,3.36c-9-5.58-16.92-16.32-21.6-28.07h-1v22.43h14.28v4H202V2042H197.9v-11.4H183.68v-4H197.9v-22.43h-1.08c-4.74,11.75-12.66,22.43-21.3,28.25a24.18,24.18,0,0,0-2.88-3.18c8-4.92,15.66-14.76,20.16-25.07H174.14v-4H197.9v-12.72H202v12.72h24v4Z"/><path d="M281.6,1993.07c-4.32,12.12-10.08,22.68-18.6,31.25a65.72,65.72,0,0,0,24.42,14.1,17.56,17.56,0,0,0-2.76,3.54A66.69,66.69,0,0,1,260,2027.2a72.92,72.92,0,0,1-25.38,14.7,14.53,14.53,0,0,0-2.16-3.36,69.86,69.86,0,0,0,24.78-14.1,89.37,89.37,0,0,1-18.18-29.27l3.6-1.08a80.51,80.51,0,0,0,17.52,27.53c8.16-8.21,13.62-18.41,17.4-29.87ZM261,2003a102.25,102.25,0,0,0-5.88-14.45l3.42-1.38a105.48,105.48,0,0,1,6.06,14.28Z"/><path d="M322.46,2036.62a70.7,70.7,0,0,0,7.38.36c2.1.06,14.76,0,17.58-.06a16.36,16.36,0,0,0-1.44,3.84H329.72c-12.3,0-19.92-1.92-24.72-10.38a31.55,31.55,0,0,1-9.48,11.7,19.84,19.84,0,0,0-3.06-2.82c6.3-4.14,10.2-10.92,11.82-19.86l4,.6a55.92,55.92,0,0,1-1.5,6.06c2.34,5.64,6.3,8.52,11.7,9.84v-18.54H293.72v-3.6H346.4v3.6H322.46v7.08h20v3.6h-20Zm17.22-27.17h-39.6v-19.56h39.6Zm-4-16.44H304v5.16h31.68Zm0,8.1H304v5.27h31.68Z"/><path d="M365.6,2030.44c1.2.72,2.46,1.92,4.62,3.3,3.84,2.46,8.76,2.88,15.54,2.88,7.2,0,16-.48,21.78-1.08a14.26,14.26,0,0,0-1.2,4.14c-4.26.24-15.06.6-20.64.6-7.44,0-12.36-.66-16.44-3.3-2.4-1.62-4.38-3.66-5.64-3.66-2.16,0-5.1,3.48-8.34,7.68l-2.64-3.54c3.24-3.54,6.36-6.24,9.06-7.26v-17.52h-8.46V2009H365.6Zm-1.26-29.69a67.13,67.13,0,0,0-9.12-10l2.88-2.16a72.28,72.28,0,0,1,9.3,9.66Zm18.12,16.31c-.9,5.76-3.18,11.64-8.64,15.72a14.27,14.27,0,0,0-2.88-2.82,19.37,19.37,0,0,0,7.56-12.9H370v-3.84h8.88c.12-1.26.12-2.39.12-3.6v-7.5H370.4v-3.83H379v-9.78h3.9v9.78h10.44v-9.78h4v9.78h7.86v3.83h-7.86v11.1h9v3.84h-9v15.54h-4v-15.54Zm.48-7.38c0,1.15,0,2.28-.12,3.54h10.56v-11.1H382.94Z"/><path d="M430.46,1988.81c19.08,13.56,17,36.35,37,48.17a15.15,15.15,0,0,0-2,4.38c-13.86-7.8-17.88-21.9-24.66-34-4.5,15.9-12.18,27.06-24.48,34.32a23.47,23.47,0,0,0-3.6-3.18c13.5-7.08,21-19.26,24.84-36.48a37.21,37.21,0,0,0-9.54-9.83Z"/><path d="M482.72,2007c0,10.19-.84,25-6.9,35a16.38,16.38,0,0,0-3.48-2c5.88-9.72,6.42-23.27,6.42-33v-16.56h44v13.14H482.72Zm43.92,29.87v3.36h-45.3v-3.36h20.4V2030H486v-3.36h15.78v-5.52c-11.88.78-13.68,1-14.94,1.38a21.58,21.58,0,0,0-1.2-3.66,7.26,7.26,0,0,0,3.3-1.74,65.05,65.05,0,0,0,6.24-5.75H483.32v-3.3h41.34v3.3H500.3a82.06,82.06,0,0,1-7.68,6.89l21-1.14c-1.56-1.26-3.18-2.52-4.68-3.66l2.88-1.86A83.27,83.27,0,0,1,524.18,2022l-3.18,2.1a38.15,38.15,0,0,0-3.84-3.9l-11.58.72v5.76H521.9V2030H505.58v6.84Zm-43.92-43v6.36h36.06v-6.36Z"/><path d="M583.94,2036.5c0,2.76-.66,4.08-2.64,4.74s-5.7.72-11,.72a14.9,14.9,0,0,0-1.38-4.08c4.32.18,8.4.12,9.6.06s1.5-.42,1.5-1.44v-35H562a38.82,38.82,0,0,1-1.14,8,180,180,0,0,1,17.34,17l-3.24,2.52a170.27,170.27,0,0,0-15.24-15.78c-2.28,5.83-6.6,11.64-14.88,16.44a16.18,16.18,0,0,0-2.82-2.94c13.44-7.32,15.66-17.34,16-25.31H540.14v40.61h-4v-44.51H558v-10.32h4v10.32h21.9Z"/><path d="M594,2040.7c4.68-2,7.26-4.92,7.56-9.18a7.35,7.35,0,0,1-1.14.12c-2.34,0-4.26-1.38-4.26-4.08a4,4,0,0,1,4.32-4.14c3.18,0,4.86,2.64,4.86,6.66,0,6.48-4,11.28-10.08,13.44Z"/><path d="M652.7,2017.06s-.06,1.32-.12,1.86c-1.08,13.56-2.1,18.84-4.08,20.82-1.26,1.32-2.46,1.68-4.56,1.8a90.37,90.37,0,0,1-9.48-.18,8,8,0,0,0-1.44-4c4,.36,8,.36,9.48.36s2-.06,2.58-.6c1.5-1.2,2.4-5.7,3.3-16.32h-22.8c1.14-4.56,2.46-11.63,3.24-17.09H648.5v-10.08h-22v-3.78H652.4v17.58H632.3c-.6,3.3-1.2,6.71-1.86,9.65Zm18.36-29.15V2042h-4v-54.11Z"/><path d="M733.28,1995.23v33.29H729.2v-3.18H711.92v16.5h-4.14v-16.5H691v3.54h-4v-33.65h20.76v-7.92h4.14v7.92Zm-42.3,3.84v9.18h16.8v-9.18Zm16.8,22.49V2012H691v9.6Zm4.14-22.49v9.18H729.2v-9.18Zm17.28,22.49V2012H711.92v9.6Z"/><path d="M793.76,2001.77s-.06,1.56-.06,2.1c-1,24.11-1.86,32.51-4.2,35.27a6,6,0,0,1-4.68,2.22c-2,.12-5.88,0-9.48-.18A10,10,0,0,0,774,2037a91.18,91.18,0,0,0,9.3.42c1.26,0,2-.12,2.58-.9,1.86-1.8,2.82-9.9,3.66-30.83H768.44c-1.38,11.69-6.24,25.07-21.84,35.45a14.36,14.36,0,0,0-3.12-2.88c14.7-9.6,19.44-21.78,20.88-32.57H745.22v-4h19.56c.18-2.65.24-5.16.24-7.44v-6.9h4v7c0,2.28-.06,4.8-.24,7.38Zm-37.2-2.22a49.8,49.8,0,0,0-6.42-9l3.42-1.56a50.25,50.25,0,0,1,6.6,8.82Zm21.9,27.35a69.41,69.41,0,0,0-8.28-11.88l3.18-1.61a65.09,65.09,0,0,1,8.58,11.51Z"/><path d="M853.94,2036.5c0,2.76-.66,4.08-2.64,4.74s-5.7.72-11,.72a14.9,14.9,0,0,0-1.38-4.08c4.32.18,8.4.12,9.6.06s1.5-.42,1.5-1.44v-35H832a38.82,38.82,0,0,1-1.14,8,180,180,0,0,1,17.34,17l-3.24,2.52a170.27,170.27,0,0,0-15.24-15.78c-2.28,5.83-6.6,11.64-14.88,16.44a16.18,16.18,0,0,0-2.82-2.94c13.44-7.32,15.66-17.34,16-25.31H810.14v40.61h-4v-44.51H828v-10.32h4v10.32h21.9Z"/><path d="M888.5,1996.37l2.7.9c-3.24,23.4-12.72,37.25-25.32,44.27a15.08,15.08,0,0,0-3.24-3.24A41.32,41.32,0,0,0,879.92,2021a77,77,0,0,0-10.08-7.8l2.4-2.64a78.16,78.16,0,0,1,9.36,6.84,67.66,67.66,0,0,0,4.92-17.09H874.7a56.85,56.85,0,0,1-8.7,16.13,25,25,0,0,0-3.3-2.58c5.52-6.23,9.36-16.07,11.58-26.57l3.9.72c-.6,2.94-1.38,5.76-2.22,8.52h11.7Zm13.92,9.05c5.28,4,11.88,9.72,15.12,13.5l-3.18,2.76A112,112,0,0,0,900.92,2009V2042h-4.08v-54.59h4.08v19.25Z"/><path d="M971.6,2001.11c-7.38,10.91-20.82,23.51-33.18,31,.6.42,1.26.84,1.92,1.32,3.78,2.4,8.64,2.82,15.36,2.82,7.14,0,16-.48,21.72-1a17.18,17.18,0,0,0-1.14,4.26c-4.5.3-15,.66-20.7.66-7.26,0-12.18-.66-16.14-3.24-2.4-1.5-4.26-3.48-5.58-3.48-1.92,0-4.74,3.42-7.68,7.38l-3-3.6c4-4.26,7.74-7.5,10.74-7.5a4.63,4.63,0,0,1,.9.12c11-6.36,23.22-17.39,30-26.63H926.3v-3.9h41.46l.84-.24ZM951.5,1999a70.73,70.73,0,0,0-6.3-10l3.48-1.8a70.87,70.87,0,0,1,6.42,9.78Z"/><path d="M1033.94,2036.5c0,2.76-.66,4.08-2.64,4.74s-5.7.72-11,.72a14.9,14.9,0,0,0-1.38-4.08c4.32.18,8.4.12,9.6.06s1.5-.42,1.5-1.44v-35h-18a38.82,38.82,0,0,1-1.14,8,180,180,0,0,1,17.34,17l-3.24,2.52a170.27,170.27,0,0,0-15.24-15.78c-2.28,5.83-6.6,11.64-14.88,16.44a16.18,16.18,0,0,0-2.82-2.94c13.44-7.32,15.66-17.34,16-25.31H990.14v40.61h-4v-44.51H1008v-10.32h4v10.32h21.9Z"/><path d="M1061.36,2031.88a9,9,0,1,1-9.06-9A9,9,0,0,1,1061.36,2031.88Zm-2.82,0a6.21,6.21,0,1,0-6.24,6.24A6.22,6.22,0,0,0,1058.54,2031.88Z"/><line class="cls-3" x1="621" y1="350" x2="621" y2="350"/><line class="cls-4" x1="607.83" y1="1251.06" x2="422.83" y2="1510.94"/><line class="cls-4" x1="607.83" y1="1251.06" x2="792.83" y2="1510.94"/><line class="cls-4" x1="610" y1="1045.83" x2="935" y2="1295.83"/><line class="cls-4" x1="865" y1="1244.83" x2="865" y2="1681.83"/><line class="cls-4" x1="610" y1="1045.83" x2="285" y2="1295.83"/><line class="cls-4" x1="355" y1="1244.83" x2="355" y2="1681.83"/><rect class="cls-2" x="1113" y="1257" width="65" height="220" rx="12"/><path class="cls-1" d="M1157.05,1295.79a27.61,27.61,0,0,0,11.5,8.1,11.65,11.65,0,0,0-2.15,2.55,30.77,30.77,0,0,1-12.8-10.65h-15.95a34.39,34.39,0,0,1-13,11.3,11.43,11.43,0,0,0-2.15-2.55,30.39,30.39,0,0,0,11.6-8.75H1123v-2.85h10v-16.15h-7.7V1274h7.7v-5h3.3v5h18.55v-5h3.35v5h7.65v2.8h-7.65v16.15h9.8v2.85Zm-10,14.5h17.3v2.85H1126.8v-2.85h16.9v-5.6h-10.45v-2.8h10.45v-4.4h3.35v4.4h10.65v2.8h-10.65Zm-10.8-33.5v3.6h18.55v-3.6Zm0,9.8h18.55v-3.65h-18.55Zm0,6.35h18.55v-3.8h-18.55Z"/><path class="cls-1" d="M1141.25,1337.54s0,1.15,0,1.55c-.6,15.85-1.2,21.2-2.6,23a3.71,3.71,0,0,1-2.8,1.45,32.65,32.65,0,0,1-4.45,0,9.25,9.25,0,0,0-.85-3c1.75.15,3.2.15,3.9.15a1.42,1.42,0,0,0,1.45-.65c1-1.2,1.6-6,2.15-19.35h-6.8c-.55,10-2,18.25-6.45,23.65a9.53,9.53,0,0,0-2.55-2.35c5.45-6.45,5.9-17.85,6.1-31.55h-5.2v-3.1h20.1v3.1h-11.65c0,2.45-.1,4.85-.2,7.15Zm-7.9-10.45a33.47,33.47,0,0,0-4.25-7.15l2.9-1.15a31.92,31.92,0,0,1,4.4,7Zm23.85-7.45a15.26,15.26,0,0,1-.85,2.55c2.65,5.45,7.7,11.35,12.45,14a13,13,0,0,0-2.45,2.75c-4.25-2.7-8.5-8-11.4-13.3a32.61,32.61,0,0,1-11,13.6,12.79,12.79,0,0,0-2.35-2.65c5.85-3.6,10.35-10.2,12.5-17.85Zm-8.3,32.45a74,74,0,0,1,13.6,8.25l-2.25,2.9c-2.85-2.6-8.75-6.3-13.4-8.65Zm9.5-4.85a66.22,66.22,0,0,0-8.6-6.85l2.15-2.2a67.46,67.46,0,0,1,8.75,6.55Z"/><path class="cls-1" d="M1148.6,1369.94c-.35.6-.8,1.15-1.2,1.75,4.95,5.5,13.85,10.9,21.4,13.3a16.56,16.56,0,0,0-2.35,2.9,60.7,60.7,0,0,1-21-13.9,48.65,48.65,0,0,1-12.4,10h25.1v3.1h-11.1v7.05h17.75v3H1147.1v12.7H1167v3.1h-43v-3.1h19.55v-12.7h-17.35v-3h17.35v-7.05h-10.9v-2.9a58.72,58.72,0,0,1-8.25,3.85,11.79,11.79,0,0,0-2.25-3c9.35-3.1,18.55-9.1,23.3-16.5Zm-15.25,28.65a42.46,42.46,0,0,1,4.8,9.1l-2.9,1.2a40.78,40.78,0,0,0-4.65-9.2Zm18.55,9.3a71.79,71.79,0,0,0,5.35-9.35l3.15,1.25a101.62,101.62,0,0,1-6,9.2Z"/><path class="cls-1" d="M1160,1431.09a51.83,51.83,0,0,1-12,19.6,49.94,49.94,0,0,0,20.5,10.5,16.79,16.79,0,0,0-2.25,3,50.92,50.92,0,0,1-20.75-11.1c-5.65,5-12.55,8.6-21,11.3a15.53,15.53,0,0,0-2-3.05c8.35-2.45,15.1-5.9,20.6-10.6a57.05,57.05,0,0,1-12.2-19.65h-7.75v-3.25h44.75v3.25Zm-25.75,0a52.13,52.13,0,0,0,11.3,17.3,47.46,47.46,0,0,0,10.7-17.3Zm11.25-3.55a38.13,38.13,0,0,0-3.8-7.8l3.4-1a39,39,0,0,1,4,7.65Z"/></svg>