<svg id="Layer_1" data-name="Layer 1" xmlns="http://www.w3.org/2000/svg" viewBox="0 0 1242 2208"><defs><style>.cls-1{fill:#f6eabe;}.cls-2{fill:#999;}.cls-3,.cls-4{fill:none;}.cls-4{stroke:#000;stroke-linecap:round;stroke-miterlimit:10;stroke-width:50px;}</style></defs><rect class="cls-1" width="1242" height="2208"/><path d="M626.64,202.64v104.8H921.21V761.61c0,30.17-7.14,46-29.37,54-23,7.94-61.93,8.73-118.31,8.73-2.38-13.5-11.11-34.14-18.26-47.64,45.26,1.59,86.55,1.59,99.25.8,11.91-.8,15.09-4,15.09-15.88V356.67h-243V821.16h-50V356.67H346.37V824.33H295.55V307.44H576.62V202.64H267V151H949v51.61ZM496.43,420.19c0,81,5.56,184.21,76.22,264.4-9.53,4.76-24.61,16.67-30.17,23.82-38.11-43.67-58-96.87-68.28-149.27C455.94,620.28,428.94,671.89,391.62,710c-6.35-7.15-22.23-18.26-31-23.82,54-51.61,82.57-131,95.28-227.08H404.33V420.19Zm279.48,0c0,81.78,6.36,184.21,82.58,263.61-8.73,4.76-25.41,15.88-31.76,23-41.29-44.46-62.73-99.25-73.84-154-18.26,61.93-45.26,113.54-81.78,151.65-6.35-6.35-21.44-18.26-31-23.82C692.55,629.8,720.33,552,733.83,459.1h-54V420.19Z"/><rect class="cls-2" x="1113" y="410" width="65" height="126" rx="12"/><path class="cls-1" d="M1132.7,439.82c1.25,1.6,4.9,6.7,5.7,8.05l-2,2.45c-.7-1.5-2.35-4.4-3.75-6.65V470h-3.15V445.57c-1.5,5.05-3.5,9.9-5.55,12.85a14.83,14.83,0,0,0-1.75-3.1c2.9-4,5.8-11.5,7.2-18h-6.2v-3.15h6.3v-9.65h3.15v9.65h5.45v3.15h-5.45Zm19.1.7a19.47,19.47,0,0,0,.45,2.65c-10.15,2.7-11.6,3.15-12.5,3.75a12.13,12.13,0,0,0-1.1-3.2c.7-.2,1.55-.5,1.55-2.2v-16.7h3.25v6.5h8.35v2.9h-8.35v8.3Zm2.35,5.5-2,3.75h12.65V470h-3.4v-1.75h-17v2h-3.3V449.77h7.9c.55-1.5,1.2-3.25,1.55-4.6Zm7.3,6.5h-17v5.05h17Zm0,13v-5.3h-17v5.3Zm2.25-22.4c1.25,0,1.5-.75,1.65-5.25a9.16,9.16,0,0,0,2.85,1.25c-.3,5.45-1.2,6.95-4.15,6.95h-5.85c-3.65,0-4.55-.95-4.55-4.45V424.87h3.25v6.5h10.2v2.9h-10.2v7.35c0,1.3.25,1.5,1.65,1.5Z"/><path class="cls-1" d="M1167.55,499.87v2.5H1123.4v-2.5h20.25v-3.2H1126.8v-2.3h16.85v-3H1128.2v-2.25h15.45v-3.2H1123.5v-2.5h20.15v-3.05H1128.8V478h14.85v-3.55h3.25V478h14.45v5.4h6.15v2.5h-6.15v5.45H1146.9v3h17.3v2.3h-17.3v3.2Zm-37.75,5h31.75v15.25h-3.25v-1.6H1133v1.7h-3.2Zm3.2,2.4v3.2h25.3v-3.2Zm25.3,8.85v-3.4H1133v3.4Zm-11.4-32.7h11.15v-3.05H1146.9Zm0,5.7h11.15v-3.2H1146.9Z"/><path d="M189.92,1860.69a98.85,98.85,0,0,1-6.18,13.56v39.59H179.9v-33.35a61.73,61.73,0,0,1-5.46,7,32.86,32.86,0,0,0-2.28-3.9c5.58-5.87,10.8-14.87,14-24Zm34.2,29.21c-2,1.38-4.44,2.7-6.84,4,2,5.82,5.82,11.16,10.62,13.62a15.86,15.86,0,0,0-2.64,3.06c-4.92-3-8.76-8.76-10.86-15.3-1,.54-2.1,1-3.12,1.5,2.1,6.3,1.26,12.72-1.38,15.24a6.51,6.51,0,0,1-5,1.92c-1,0-2.4-.06-3.72-.12a9.47,9.47,0,0,0-1-3.48,34.56,34.56,0,0,0,4,.24,3.38,3.38,0,0,0,3-1.14c1.44-1.32,2.1-4.86,1.44-8.94a58.72,58.72,0,0,1-19.5,11.4,11.72,11.72,0,0,0-2.34-2.82c7.44-2.22,16.26-7,21.12-11.82a24.37,24.37,0,0,0-1.62-3.66,57.71,57.71,0,0,1-16.74,9.66,16.14,16.14,0,0,0-2.22-2.64c5.82-1.74,13.38-5.58,17.52-9.3a16.53,16.53,0,0,0-2.82-3,39.59,39.59,0,0,1-12.3,6.17,14.66,14.66,0,0,0-2.28-2.58c6.54-2.1,10.86-4.62,13.68-7.26h-9.54v-9.35c-1.08,1-2.22,1.92-3.42,2.88a9.81,9.81,0,0,0-2.64-2.53,45.41,45.41,0,0,0,13.92-16.25l3.84.72a35.7,35.7,0,0,1-2,3.54h11.1l.78-.18,2.34,1.68a52.13,52.13,0,0,1-4.8,6.84h13v12.65H205.7a15.52,15.52,0,0,1-1.38,1.63,22.17,22.17,0,0,1,6,7.85,120.47,120.47,0,0,0,11.1-6.66Zm-25-23.09a54.58,54.58,0,0,1-4.2,5.16h11.58a33.35,33.35,0,0,0,3.72-5.16Zm-4,14.69h8.64a15.14,15.14,0,0,0,2.46-6.42h-11.1Zm24.72-6.42H209.6a18.56,18.56,0,0,1-1.8,6.42h12.06Z"/><path d="M286.28,1902.44H264.74V1914h-4.2v-11.58H234v-3.9h26.58V1889h-14c-3.6,0-5.7.36-6.3.84a35.25,35.25,0,0,0-1.5-4.08c1.26-.3,2.52-2.09,4.08-4.73a90.2,90.2,0,0,0,5-9.12h-13v-3.84h14.76c1.32-2.88,2.58-6,3.6-9l4.44,1.32c-1.08,2.58-2.16,5.16-3.42,7.68h30.9v3.84h-32.7a122.81,122.81,0,0,1-7.74,13.31h15.84v-9.3h4.2v9.3h16.5V1889h-16.5v9.54h21.54Z"/><path d="M314.9,1899.08c-2.34.54-4.68,1-7,1.5v13.2h-3.6V1901.3c-3.9.84-7.56,1.56-10.68,2.16l-.9-3.84c3.12-.54,7.14-1.26,11.58-2.1v-9h-4.86c-2.1,0-3.78.36-4.26.78-.24-.72-.84-2.58-1.26-3.54,1-.24,1.74-2.22,2.76-4.85a101,101,0,0,0,3.24-10.62h-6.84v-3.72h7.74c.54-2.34,1-4.8,1.38-7.26l4,.78c-.36,2.1-.9,4.32-1.44,6.48h9.48v3.72h-10.5a133.16,133.16,0,0,1-5.1,14.58h5.7v-9.25h3.6v9.25h6.72v3.65h-6.72v8.4l6.78-1.26Zm32-2.34a65.63,65.63,0,0,1-8.4,5.82,21.89,21.89,0,0,0,9.6,7.5,10.5,10.5,0,0,0-2.52,3.12c-7.5-3.42-12.3-10.44-14.88-19.5a39.6,39.6,0,0,1-5.88,4.86v10.2l8.22-2.52a23.91,23.91,0,0,0,.3,3.24c-10.56,3.54-12.24,4.08-13.14,4.8a15.57,15.57,0,0,0-1.44-3.6,3.49,3.49,0,0,0,2.46-3.36v-6.66a54.71,54.71,0,0,1-6.9,3.18,21.9,21.9,0,0,0-1.8-3.54c5.22-1.62,10.86-4.26,14.58-7.68h-8.82v-13h25.8v13H333.8a31.9,31.9,0,0,0,3.06,7.32,60.79,60.79,0,0,0,7.56-5.76Zm.18-20.87h-32v-3.37h14v-5.09h-11.4v-3.24h11.4v-4.74h3.9v4.74H344.6v3.24H333.08v5.09h14ZM322,1889.48h18.18v-6.77H322Z"/><path d="M406.58,1868.91v3.66H353.42v-3.66h15.12a45.12,45.12,0,0,0-5.64-8.28l3.66-1.38a49.14,49.14,0,0,1,6.06,8.52l-2.94,1.14h18.18a79.77,79.77,0,0,0,5.76-9.9l4.14,1.44c-1.68,2.82-3.6,5.94-5.46,8.46Zm-27.78,40.25c0,2.16-.48,3.24-2,3.9s-4.26.66-8.34.66a17,17,0,0,0-1.32-3.54c3.12.12,5.94.12,6.72.06s1.14-.3,1.14-1.08v-8.52H361.1v13.08h-3.84v-35.57H378.8Zm-17.7-27.54v6.24H375v-6.24ZM375,1897.46V1891H361.1v6.42Zm15.24,5.64h-3.72v-24.41h3.72Zm8.4-26.22h3.9v31.92c0,2.52-.6,3.6-2.34,4.26s-4.8.72-9.36.72a17,17,0,0,0-1.5-3.84c3.78.12,7,.12,8,.06s1.32-.3,1.32-1.2Z"/><path d="M440.42,1871.55c-1.44,3.6-3.12,7.79-4.62,11h8.7v3.67H413.36v-3.67H431.9a78.11,78.11,0,0,0,4.5-11.93Zm2.7-1.38h-28v-3.66h12.6a52.73,52.73,0,0,0-2.64-6.36l3.6-1a57,57,0,0,1,3.18,7.38h11.22Zm-26.22,21.77h24.72v21.12h-3.9v-2.4h-17v2.88H416.9Zm5.82-9.72a46.73,46.73,0,0,0-3.9-10.55l3.48-.84a38.22,38.22,0,0,1,4,10.38Zm-2,13.32v11.52h17v-11.52Zm45.84-31.31c-2.16,5.46-5,12.3-7.56,17.87,5.46,5.7,6.84,10.32,6.84,14.52,0,3.36-.78,6.24-2.64,7.5a7.78,7.78,0,0,1-3.66,1.2,29.42,29.42,0,0,1-5.16.06,9.55,9.55,0,0,0-1.2-3.78,35.57,35.57,0,0,0,4.92.12,5.55,5.55,0,0,0,2.46-.66c1.2-.78,1.62-2.7,1.56-4.8,0-3.78-1.56-8.16-7-13.73,2.34-5.16,4.74-11.58,6.42-16.26H451.34V1914h-3.6v-51.35h15.42l.6-.18Z"/><path d="M489,1860c-1,2.94-2.1,6.3-3.18,8.88H496v38.75h-16.8v4.8h-3.66v-43.55h6.66a64.68,64.68,0,0,0,2.58-9.72Zm3.3,12.47H479.18v13.08h13.14Zm0,31.56v-14.88H479.18v14.88Zm33.06-33.17c-1,27.53-1.8,36.71-4.2,39.59a5.6,5.6,0,0,1-4.56,2.28,74.94,74.94,0,0,1-8.82-.12,9.42,9.42,0,0,0-1.32-3.9c3.9.36,7.5.36,8.82.36s1.92-.12,2.52-.9c2-2.1,2.94-11.34,3.72-35.7H505.82a55.33,55.33,0,0,1-5.64,10.68,36.22,36.22,0,0,0-3.36-2.22c4.08-5.34,7.32-13.61,9.18-21.89l3.84.84c-.78,3-1.62,6-2.64,8.88h18.18Zm-12.78,27a106.51,106.51,0,0,0-9.3-13.92l3.06-1.79a102.47,102.47,0,0,1,9.6,13.61Z"/><path d="M586.28,1902.44H564.74V1914h-4.2v-11.58H534v-3.9h26.58V1889h-14c-3.6,0-5.7.36-6.3.84a35.25,35.25,0,0,0-1.5-4.08c1.26-.3,2.52-2.09,4.08-4.73a90.2,90.2,0,0,0,5-9.12h-13v-3.84h14.76c1.32-2.88,2.58-6,3.6-9l4.44,1.32c-1.08,2.58-2.16,5.16-3.42,7.68h30.9v3.84h-32.7a122.81,122.81,0,0,1-7.74,13.31h15.84v-9.3h4.2v9.3h16.5V1889h-16.5v9.54h21.54Z"/><path d="M607,1872.39a84.63,84.63,0,0,1-4.2,8V1914h-3.66v-27.9a66,66,0,0,1-4.5,5.7,21.28,21.28,0,0,0-2.46-3.42,60.47,60.47,0,0,0,11.28-17.09Zm-1.2-11.7a59.86,59.86,0,0,1-10.74,13.92,19.41,19.41,0,0,0-2.16-2.94,46.29,46.29,0,0,0,9.24-12.3Zm3.48,16.56c-.36.42-.72.83-1.14,1.25a10.47,10.47,0,0,0-2.82-2.16,41.48,41.48,0,0,0,9.06-16.73l3.66.54c-.48,1.44-1,2.82-1.5,4.32h7.74l.54-.18,2.4,1.56a51.42,51.42,0,0,1-3.54,7.56h6.72v19.91H609.32Zm12.48,17c-.12,1.2-.3,2.28-.48,3.36H632V1901H621.68a57.64,57.64,0,0,1,9.3,8.34l-2.46,2.52a58.94,58.94,0,0,0-8.94-8.4c-2,4.5-5.34,7.86-11.28,10a9.12,9.12,0,0,0-2.1-2.7c5.94-2,8.94-5.34,10.5-9.78h-9.48v-3.36h10.44c.18-1.08.36-2.16.48-3.36Zm-6.66-26.57a40.9,40.9,0,0,1-3.12,5.7h8.1a45.39,45.39,0,0,0,2.58-5.7Zm3.36,14.21v-5.51h-6.06v5.51Zm-6.06,2.83v5.63h6.06v-5.63Zm14.76-8.34h-5.64v5.51h5.64Zm0,8.34h-5.64v5.63h5.64Zm20-2.83h-5.1v27.3c0,2.1-.36,3.12-1.8,3.78-1.26.66-3.42.72-6.72.72a12.28,12.28,0,0,0-1.14-3.66c2.4.06,4.56.06,5.16,0s.9-.24.9-.84v-27.3H632.3v-3.66h14.88ZM646,1867.23H633.68v-3.66H646Z"/><path d="M706.76,1907.18v4H653.3v-4h22.62v-46.85h4.14v18.54h22.62v4H680.06v24.3Z"/><path d="M731.6,1897.28a64.42,64.42,0,0,1-13.44,13.08,17.14,17.14,0,0,0-3.48-2.64,48.23,48.23,0,0,0,13-11.82Zm11-5.28v16.44c0,2.34-.54,3.42-2.34,4.08s-4.86.72-9.18.72a14.7,14.7,0,0,0-1.56-4c3.72.12,6.9.12,7.8.12s1.2-.3,1.2-1V1892.3c-16.92,1.32-19.2,1.56-20.82,2.22a19.07,19.07,0,0,0-1.2-3.77c1.86-.19,4.56-1.33,8.28-3.19,2.1-1,6.66-3.54,12.06-6.84-12.72.78-14.52,1-15.72,1.45a20.78,20.78,0,0,0-1.2-3.6c1.2-.12,2.64-1.08,4.38-2.46A66.43,66.43,0,0,0,734.6,1867c-5.76.54-11.52,1-16.92,1.2a10.12,10.12,0,0,0-1-3.48c14.52-.78,32-2.4,41.58-4.74l2.76,3.24a157.22,157.22,0,0,1-20.7,3.24A101,101,0,0,1,727.16,1878l15-.78a117.53,117.53,0,0,0,9.78-7.14l3.06,2.64a167.73,167.73,0,0,1-27.66,16.92l27.84-1.81c-1.74-1.8-3.48-3.53-5.22-5.1l3.06-1.5a77.27,77.27,0,0,1,12.36,13.14l-3.18,2a49.62,49.62,0,0,0-4.26-5.52Zm8.76,3.6A141.36,141.36,0,0,1,765.86,1908l-3.3,2.46a131.06,131.06,0,0,0-14.22-12.84Z"/><path d="M823.22,1866.15a86.81,86.81,0,0,1-21,16v26.45c0,2.88-.72,4-2.94,4.68s-6.12.72-12.24.72a15.48,15.48,0,0,0-1.68-4c5.16.18,9.72.12,11.1.06s1.62-.42,1.62-1.44v-28.44a76.67,76.67,0,0,0,17.28-12.11H776v-3.9h43.2l.9-.24Z"/><path d="M887.36,1883.91v4.31H832.88v-4.31Z"/><path d="M917.42,1868.07a91.33,91.33,0,0,1-5.82,24.65,70.3,70.3,0,0,1,7.86,10.68l-3.12,2.88a62.67,62.67,0,0,0-6.6-9.48,44.22,44.22,0,0,1-14,17.1,15.8,15.8,0,0,0-2.76-3.24c5.52-3.6,10.26-9.42,13.92-17.22a138.94,138.94,0,0,0-11-11.27l2.82-2.41a135.66,135.66,0,0,1,9.9,9.66,82.55,82.55,0,0,0,4.5-18.11H894.38v-3.84h19.74l.78-.18Zm29.82,9.66H940v30.71c0,2.82-.78,4-2.46,4.68s-4.68.84-9.78.84a16.78,16.78,0,0,0-1.38-4.14c3.84.12,7.26.06,8.22.06s1.44-.36,1.44-1.44v-30.71h-17.1V1874H936v-14.64h4V1874h7.26Zm-20.4,21.59a52.49,52.49,0,0,0-6.54-13.56l3.3-1.43c2.88,4.07,5.76,9.59,6.72,13.19Z"/><path d="M974.54,1906.28a80.06,80.06,0,0,0-5.64-10.2A48.25,48.25,0,0,1,955.34,1914a12.83,12.83,0,0,0-2.88-3.12c5.46-4,10.2-10.38,13.86-18.72-3.6-5.28-7.62-10.86-11.46-15.47l2.94-2.23c3.36,4,7,8.7,10.26,13.33a97.08,97.08,0,0,0,4.68-19.92h-18.6v-3.78h19.62l.66-.18,2.58.72a106.38,106.38,0,0,1-6.18,27.11,88.87,88.87,0,0,1,7.08,11.94Zm30.3-41.69c-1.68,13.67-5.46,24.47-10.68,32.75a33.92,33.92,0,0,0,13.38,13.44,15.58,15.58,0,0,0-2.88,3.42,37.1,37.1,0,0,1-13-13.2,46.91,46.91,0,0,1-14.76,13,14.15,14.15,0,0,0-2.7-3.36,41.05,41.05,0,0,0,15.3-13.62c-3.9-8-6.48-17.94-8.16-29.15H979.7v-3.78h21.9l.66-.18Zm-19.74,3.24c1.38,9.48,3.6,18.11,6.84,25.25a71.91,71.91,0,0,0,8.52-25.25Z"/><path d="M1026.86,1903.7V1914h-3.72V1903.7h-10.26v-3.54h10.26v-4.8h-8.4v-21.29h8.4v-4.74h-9.66v-3.48h9.66v-6.48h3.66v6.48h9.72v3.48h-9.72v4.74h8.64v21.29h-8.58v4.8h9.66v3.54Zm-8.88-20.52h5.46v-6.06H1018Zm0,9.12h5.46v-6.18H1018Zm14.1-15.18h-5.52v6.06h5.52Zm0,9h-5.52v6.18h5.52Zm11-4.67c-.12,9.23-1.08,21.83-6.78,31.25a12.33,12.33,0,0,0-2.7-2.58c5.7-9.18,6-22.62,6-30.95v-12.42h12.06a65.63,65.63,0,0,0-3.06-6.18l3-1.14a70.57,70.57,0,0,1,3.72,7.32h9.9v14.7Zm19.08,27.89c1.86,0,2.34-.66,2.52-6.72a11.62,11.62,0,0,0,3,1.2c-.36,8-1.62,9.12-5.58,9.12h-12.78c-4.92,0-7-1.74-7-4.86,0-2.34.6-5.16,16-17h-13.8v-3.36h18.66l.84-.06,2.34,1.21a2.13,2.13,0,0,1-.54.71c-18.48,13.68-19.92,16.32-19.92,18.12,0,1.2,1.32,1.68,3.42,1.68Zm-19.08-39.23v8h18.66v-8Z"/><path d="M116.15,1962.86a55.82,55.82,0,0,1,8.82-30.35l3,1.44a57.88,57.88,0,0,0,0,57.83l-3,1.44A55.68,55.68,0,0,1,116.15,1962.86Z"/><path d="M151.61,1971.26a24.31,24.31,0,0,0,1.56,3.3c-9.36,7.62-10.8,8.82-11.64,10v.06a12.16,12.16,0,0,0-2.16-2.82,7.29,7.29,0,0,0,2.82-5.58V1954h-9.06v-3.84h12.78v25.61Zm-5.34-26.69a76.72,76.72,0,0,0-9.12-9.12l2.52-2.58c3.24,2.64,7.38,6.3,9.24,8.76Zm24.9,25.55c-2.22,5.88-7.2,11.7-18.3,16.14a11.05,11.05,0,0,0-2.46-3.06c9.54-3.66,14.22-8.34,16.5-13.08H151.37v-3.54h16.8a28.24,28.24,0,0,0,.78-7.25v-7.21h3.9v7.32a33,33,0,0,1-.66,7.14H187v3.54Zm7.62-13.32a53,53,0,0,0,2.82-7.19h-29v-3.49h14.7v-5.63H154.85V1937h12.42v-5.64h3.9V1937h12.6v3.48h-12.6v5.63h11.94l.66-.17,2.52.72a89.59,89.59,0,0,1-4.2,11Zm-23.94.78a39.45,39.45,0,0,1,8.76,5.94l-1.92,2.4a37,37,0,0,0-8.82-6.17Zm11,2.71a42.08,42.08,0,0,0-8.58-6.07l1.86-2a40.88,40.88,0,0,1,8.7,5.76Zm8,12.29c4.86,3.24,10.92,7.8,13.8,11l-2.52,2.64a86.82,86.82,0,0,0-13.68-11.34Z"/><path d="M193.61,1965.26c0-10.5,7-17,14.46-17,8.1,0,12.78,5.81,12.78,15.17a14.19,14.19,0,0,1-.24,2.94H198.47c.3,7.2,4.62,12,11.1,12a14.28,14.28,0,0,0,8.22-2.64l1.8,3.24a18.91,18.91,0,0,1-10.62,3.3C200.45,1982.24,193.61,1975.94,193.61,1965.26Zm22.92-2.51c0-6.91-3.12-10.57-8.4-10.57-4.8,0-9.06,3.9-9.72,10.57ZM199,1932.93l3.42-3.24,9.36,11-2.52,2.45Z"/><path d="M226.55,1989.68c3.6-1.68,5.82-4.62,5.82-8.16a2.92,2.92,0,0,1-.72.06,3.49,3.49,0,0,1-3.72-3.6,3.56,3.56,0,0,1,3.78-3.54c2.7,0,4.38,2.28,4.38,6.06,0,5.52-3.24,9.84-8.28,12.06Z"/><path d="M296.33,1964.84H272.27v21.06h-4.14v-21.06h-25.2v-3.9h25.2v-14.63h-15a54.61,54.61,0,0,1-6.3,10,24.8,24.8,0,0,0-3.66-2.23c4.68-5,8.52-13,10.8-21.11l4,.84a68.18,68.18,0,0,1-3,8.52h13.2v-11h4.14v11H293v4H272.27v14.63h24.06Z"/><path d="M342.11,1973.3H303.17v-3.84h38.94Zm12.24-15.24a13.7,13.7,0,0,1-.12,1.92c-1.44,15.72-2.76,21.84-5,24.12-1.32,1.32-2.52,1.68-4.74,1.8a89.81,89.81,0,0,1-9.42-.18,9,9,0,0,0-1.2-3.84c3.9.36,7.8.42,9.3.42a4,4,0,0,0,2.7-.66c1.8-1.56,3.06-7,4.26-19.8H312.83v-.06h-1.32c.72-4.68,1.5-12.47,1.92-18.23l3.9.3c-.3,4.44-.9,9.9-1.44,14.21H340c.72-6.18,1.56-13.79,2.1-19.13H307.79v-3.84h35l.66-.24,2.88.3c-.48,6.24-1.5,15.47-2.46,22.91Z"/><path d="M374.57,1963.7v17.58c0,2.28-.54,3.3-2,4s-3.48.78-7.14.72a15.61,15.61,0,0,0-1.26-3.66c2.52.06,4.8.06,5.46,0s1-.24,1-1V1964.9l-7.08,2.1-1.14-3.83c2.28-.61,5.1-1.39,8.22-2.29v-13.61h-7.5v-3.72h7.5v-12.18h3.9v12.18h6.36v3.72h-6.36v12.53l6.54-1.92.48,3.66Zm42.66,16v3.78H380.81v-3.78h20.34a261.38,261.38,0,0,0,5.82-30.05l4.2.77c-1.62,9.24-4.14,21.24-6.3,29.28Zm-1.62-33.54h-32v-3.77h32ZM392,1976.72a221.85,221.85,0,0,0-4.2-25.8l3.54-.71a220.49,220.49,0,0,1,4.5,25.37Zm5.64-35.21a57.16,57.16,0,0,0-2.82-9.48l3.72-1a76.65,76.65,0,0,1,3.06,9.36Z"/><path d="M439.31,1966.82a56.3,56.3,0,0,1-11.76,16.56,31.15,31.15,0,0,0-3.36-2.64,43.44,43.44,0,0,0,11.22-15Zm14.94-6v19.43c0,2.52-.6,3.72-2.28,4.44s-4.8.78-9.06.78a14.4,14.4,0,0,0-1.5-4.14c3.54.06,6.66.12,7.62.06s1.2-.3,1.2-1.2v-19.37H436.85c-3.6,0-5.7.29-6.36.84a25.22,25.22,0,0,0-1.5-4.15c1.32-.35,2.64-2.1,4.44-4.73a94.78,94.78,0,0,0,5.88-9.67H424.49v-3.83h16.74c1.38-2.64,2.64-5.52,3.78-8.28l4.08,1.86c-.9,2.1-2,4.32-3.06,6.42h28.2v3.83H444.05a139,139,0,0,1-8.58,13.8h14.76v-9h4v9h17.52v3.91Zm8.52,4.79c4.74,4.56,10.32,10.92,12.84,15.06l-3.48,2c-2.46-4.2-7.86-10.74-12.6-15.36Z"/><path d="M517.67,1939.23v9h15.18v37.31h-4V1982H490.55v3.78h-3.9v-37.55h14.58v-9H483.41v-3.84h52.2v3.84Zm11.16,39v-10.8h-9.18c-4.62,0-5.82-1.08-5.82-5.52v-10h-9.06c-.3,6.35-2.52,13.37-11.58,17.93a12.32,12.32,0,0,0-2.34-2.94c8.16-4,10-9.65,10.32-15H490.55v26.33Zm-15-39h-9v9h9Zm3.84,12.72v10c0,1.5.3,1.74,2.4,1.74h7.56a5.89,5.89,0,0,0,1.2-.06V1952Z"/><path d="M563.09,1974.92H548.57v4.8h-3.78v-43.31h18.3ZM548.57,1940v13.61h10.74V1940Zm10.74,31.31v-14.15H548.57v14.15Zm37.62-23.93h-7.44v32.39c0,3.06-.84,4.26-2.88,4.92s-5.76.78-11.76.72a16.91,16.91,0,0,0-1.5-4.08c4.8.18,9.12.18,10.44.06s1.74-.42,1.74-1.62v-32.39H565.85v-3.9h19.68v-11.82h4v11.82h7.44Zm-19.56,21.47a163.47,163.47,0,0,0-9.18-14.76l3.24-1.73c3.24,4.67,7.38,10.85,9.48,14.45Z"/><path d="M616.67,1939.53c-1.68,6.18-5.1,10.8-12.24,13.62a11.25,11.25,0,0,0-2.16-2.7c6.06-2.28,9-6.06,10.5-10.92h-8.88v-3.24h9.66c.3-1.5.48-3.24.66-4.92h3.84c-.18,1.68-.36,3.36-.66,4.92h12s-.06,1-.06,1.62c-.6,7.32-1.2,10.38-2.34,11.46a4,4,0,0,1-3.12,1.25,47,47,0,0,1-5.88,0,7.8,7.8,0,0,0-1-3.18c2.28.23,4.44.23,5.22.23s1.32,0,1.74-.47c.54-.66,1-2.76,1.44-7.62Zm26.76,38.15H604.31v-3.36h39.12Zm11-11.1s-.06,1.2-.12,1.68c-1.14,10-2.16,14-3.84,15.6a5.18,5.18,0,0,1-3.66,1.38,53.62,53.62,0,0,1-6.72-.12,8.71,8.71,0,0,0-1-3.36,57,57,0,0,0,6.24.3,2.53,2.53,0,0,0,2-.54c1.14-1,2-4.2,2.88-11.76H612.71a102.13,102.13,0,0,0,2.94-10.85l4,.35c-.48,2.41-1.08,5-1.74,7.32h22.56c.6-2.88,1.26-6.24,1.74-9H610.73v-3.66h32.46l.66-.17,2.94.47c-.6,3.84-1.44,8.4-2.34,12.36Zm-1.14-16.37h-20v-15.48h20Zm-3.9-12.36H637v9.23h12.42Z"/><path d="M682.73,1944.62a67.64,67.64,0,0,1-7.2,12.25v28.85h-4v-24a41.57,41.57,0,0,1-7.26,6.41,17,17,0,0,0-2-3.48c7-5,12.3-12.23,16.14-20H663.59v-3.83H680a65.25,65.25,0,0,0,3.3-9.42l4.08,1c-.9,2.82-1.86,5.64-3,8.4h31.26v3.83Zm32.94,36.24v3.72H679.55v-3.72h16v-17.52H681.89v-3.72h13.68v-11.81h4v11.81h13.8v3.72h-13.8v17.52Z"/><path d="M741.35,1980.74c0,2.16-.54,3.36-1.86,4s-3.66.78-7.56.78a14.72,14.72,0,0,0-1.14-3.72c2.76.12,5.16.06,5.88.06s1.08-.3,1.08-1.14v-14.94h-8.64c-.48,7.08-1.62,14.58-4.26,20.28a9.87,9.87,0,0,0-3.18-1.86c4-8.4,4.26-20.4,4.26-29.16v-21.47h15.42Zm-3.6-18.72v-10.68h-8.28V1955c0,2.17-.06,4.5-.12,7Zm-8.28-24.77v10.44h8.28v-10.44Zm46.68,34.55H761.81v9.9c0,2.22-.42,3.24-2,3.84s-4.32.6-8.16.6a11.73,11.73,0,0,0-1.26-3.6c3.06.06,5.76.06,6.54,0s1-.18,1-.9v-9.84h-14.7v-3.6h14.7v-3.72a39.33,39.33,0,0,0,6.84-4.73H748.43v-3.37h20l.9-.24,2.58,2.16a55.73,55.73,0,0,1-10.08,7.5v2.4h14.34Zm-28.44-14.39h-3.6v-9.91h13.74V1941h-13.5v-3.54h13.5v-6.12h3.9v6.12h13.5V1941h-13.5v6.53h13.92v9.91H772V1951H747.71Z"/><path d="M836.51,1962H811.79v18.6c0,2.82-.72,4-2.88,4.68s-5.94.78-11.7.78a17.7,17.7,0,0,0-1.8-4.14c5,.18,9.36.18,10.68.12s1.62-.42,1.62-1.5V1962h-25v-4h25v-8.75a74.47,74.47,0,0,0,15.72-9.84H788.75v-3.9h39l.84-.24,3,2.28a90,90,0,0,1-19.8,13.79V1958h24.72Z"/><path d="M896.33,1979.18v4H842.87v-4h22.62v-46.85h4.14v18.54h22.62v4H869.63v24.3Z"/><path d="M918.59,1932c-1,2.94-2.1,6.3-3.18,8.88h10.14v38.75h-16.8v4.8h-3.66v-43.55h6.66a64.68,64.68,0,0,0,2.58-9.72Zm3.3,12.47H908.75v13.08h13.14Zm0,31.56v-14.88H908.75v14.88ZM955,1942.89c-1,27.53-1.8,36.71-4.2,39.59a5.6,5.6,0,0,1-4.56,2.28,74.94,74.94,0,0,1-8.82-.12,9.42,9.42,0,0,0-1.32-3.9c3.9.36,7.5.36,8.82.36s1.92-.12,2.52-.9c2-2.1,2.94-11.34,3.72-35.7H935.39a55.33,55.33,0,0,1-5.64,10.68,36.22,36.22,0,0,0-3.36-2.22c4.08-5.34,7.32-13.61,9.18-21.89l3.84.84c-.78,3-1.62,6-2.64,8.88H955Zm-12.78,27a106.51,106.51,0,0,0-9.3-13.92l3.06-1.79a102.47,102.47,0,0,1,9.6,13.61Z"/><path d="M999.41,1959.92c4.62,4,11.52,7.32,18.06,8.94A16.34,16.34,0,0,0,1015,1972c-1.08-.3-2.1-.66-3.18-1v14.58H1008v-1.44H996.65v1.8H993v-18.3h11.58a39,39,0,0,1-10-7.74H983.33a47.4,47.4,0,0,1-9.42,7.74h11.7v17.94h-3.78v-1.44H971.15v1.8h-3.66v-14.82c-1.14.54-2.34,1-3.54,1.5a11.31,11.31,0,0,0-2.28-3.06,50,50,0,0,0,16.44-9.66H962.93v-3.54h18.66a30,30,0,0,0,4.38-6.77l4.08.72a37.8,37.8,0,0,1-3.72,6.05h17.88a38,38,0,0,0-7.74-4l2-2.16a34.58,34.58,0,0,1,8.82,4.45l-1.5,1.67h10.44v3.54Zm-13.8-9.89H967.49v-16h18.12Zm-3.72-12.48h-10.8v9h10.8Zm-.06,33.59H971.15v9.48h10.68Zm29.94-21.11h-18.9v-16h18.9Zm-3.78-12.48h-11.4v9H1008Zm0,43.07v-9.48H996.65v9.48Z"/><path d="M1043.27,1975.82a81.5,81.5,0,0,1-18.12,10.2,18.9,18.9,0,0,0-2.88-2.94c6.06-2.34,13.5-6.36,17.16-9.6Zm33.06-3.06h-53.4v-3.66h9.54v-34.85h35v34.85h8.82Zm-40-35.15v5.46h27.18v-5.46Zm27.18,8.58h-27.18v5.39h27.18Zm-27.18,8.52v5.51h27.18v-5.51Zm0,14.39h27.18v-5.76h-27.18Zm22.38,4.2A161.48,161.48,0,0,1,1077,1983l-3.12,3a145.77,145.77,0,0,0-17.7-10Z"/><path d="M1082,1991.78a57.88,57.88,0,0,0,0-57.83l3-1.44a56.65,56.65,0,0,1,0,60.71Z"/><path d="M1120.79,1975.88a9,9,0,1,1-9.06-9A9,9,0,0,1,1120.79,1975.88Zm-2.82,0a6.21,6.21,0,1,0-6.24,6.24A6.22,6.22,0,0,0,1118,1975.88Z"/><path d="M306.74,2004.57a123.56,123.56,0,0,1-4.08,12.6V2058h-3.78v-32.51a51.63,51.63,0,0,1-4.26,6.77,18.44,18.44,0,0,0-2.16-4c4.56-6,8.28-15.23,10.5-24.59Zm5.94,41.27v12H309v-51.77h16.26v18.23H312.68v6.78h11.16v3.42H312.68v7.92H324.5v3.42Zm0-36.35v11.39h9v-11.39Zm32.52,20.34a41,41,0,0,1-7.5,17.45,26.55,26.55,0,0,0,10,7.56,18.29,18.29,0,0,0-2.46,3.06,27.55,27.55,0,0,1-9.78-7.86,36.82,36.82,0,0,1-12.36,8.1,10.14,10.14,0,0,0-2.1-2.94,31,31,0,0,0,12.3-8.1,51.85,51.85,0,0,1-6-13.85l2.64-.67H326v-3.41h16.2l.72-.13Zm-.78-5.58H327.68v-3.48h13.08v-11.22H327.68v-3.48h16.74Zm-14,8.33a40.27,40.27,0,0,0,5.1,11.7,33.44,33.44,0,0,0,5.4-11.7Z"/><path d="M370,2004.63a84.89,84.89,0,0,1-6.18,12.9v40.31H360v-34.31a62.31,62.31,0,0,1-6.42,7.91,20.27,20.27,0,0,0-2.34-3.84c6-5.81,11.64-14.81,15.06-24ZM407.84,2023v3.65H366.92V2023h10.74v-8.52H369.5v-3.54h8.16v-7h3.78v7H393.2v-7H397v7h8.52v3.54H397V2023Zm-34.44,8.69h29v26.16h-3.9v-2.46H377.24v2.76H373.4Zm3.84,3.42v6.72h21.24v-6.72ZM398.48,2052v-6.9H377.24v6.9Zm-17-29H393.2v-8.52H381.44Z"/><path d="M463.76,2017.77s-.06,1.56-.06,2.1c-1,24.11-1.86,32.51-4.2,35.27a6,6,0,0,1-4.68,2.22c-2,.12-5.88,0-9.48-.18A10,10,0,0,0,444,2053a91.18,91.18,0,0,0,9.3.42c1.26,0,2-.12,2.58-.9,1.86-1.8,2.82-9.9,3.66-30.83H438.44c-1.38,11.69-6.24,25.07-21.84,35.45a14.36,14.36,0,0,0-3.12-2.88c14.7-9.6,19.44-21.78,20.88-32.57H415.22v-4h19.56c.18-2.65.24-5.16.24-7.44v-6.9h4v7c0,2.28-.06,4.8-.24,7.38Zm-37.2-2.22a49.8,49.8,0,0,0-6.42-9l3.42-1.56a50.25,50.25,0,0,1,6.6,8.82Zm21.9,27.35a69.41,69.41,0,0,0-8.28-11.88l3.18-1.61a65.09,65.09,0,0,1,8.58,11.51Z"/><path d="M509.42,2019.69v.35h14.34v32.64c0,2.7-.6,4-2.58,4.68s-5.64.66-11,.66a15.22,15.22,0,0,0-1.38-4c4.38.18,8.4.12,9.6.06s1.44-.36,1.44-1.44v-28.79H509.3a43,43,0,0,1-.6,6.05c3.84,4.5,8.1,10.08,10,13.56l-2.4,3a87.56,87.56,0,0,0-8.46-12.18,32.38,32.38,0,0,1-8.34,15.06,11.45,11.45,0,0,0-2.82-2.82c7-6.66,8.46-15.54,8.82-22.67H494a58.92,58.92,0,0,1-.6,6.23,62.5,62.5,0,0,1,6.36,8.94l-2.4,3.18a60.91,60.91,0,0,0-4.92-7.68,32.3,32.3,0,0,1-8.28,14.82,12.31,12.31,0,0,0-2.76-2.82c6.9-6.66,8.4-15.54,8.76-22.67h-9.84v34.25h-4v-38h13.86v-8.63H473.78v-3.84h52.5v3.84H509.42Zm-3.9.35v-8.63h-11.4V2020Z"/><path d="M564,2005c-.48.9-1,1.74-1.56,2.58,7.26,9,15.78,14.93,25.44,19.73a12.66,12.66,0,0,0-2.88,3.54c-9.3-5-17.28-10.85-24.9-20.15a71,71,0,0,1-24.66,20,17.42,17.42,0,0,0-2.94-3.47c11.22-5,22-13.92,28-23.88Zm-6,15.66H562V2058H558Z"/><path d="M592.7,2043.26l3.48-3.06a113.53,113.53,0,0,1,13.5,13.38L606,2056.7A97.41,97.41,0,0,0,592.7,2043.26Z"/><path d="M676.7,2052.74v3.3H623.36v-3.3h24.48v-5.52h-20V2044h20v-4.44H629.72v-18.42h18.12v-3.89H623.72v-3.3h24.12v-4.62c-6.36.42-12.78.72-18.78.84a11.3,11.3,0,0,0-.84-3.18c13.86-.42,30.84-1.5,40.14-3.24l2.22,3.12a186.76,186.76,0,0,1-18.78,2.22v4.86h24.6v3.3H651.8v3.89h18.9v18.42H651.8V2044h21.12v3.24H651.8v5.52Zm-43.08-23.82h14.22v-4.85H633.62Zm14.22,7.68v-4.92H633.62v4.92Zm4-12.53v4.85h14.88v-4.85Zm14.88,7.61H651.8v4.92h14.88Z"/><path d="M737.06,2053.34v3.12H683v-3.12h25v-3.72h-20.1v-2.88H708v-3.54h-18.3v-14.87h41.22v14.87H711.8v3.54h20.52v2.88H711.8v3.72Zm-.36-27.89H683.36v-3.07H736.7Zm-7.56-5.7H690.8v-14.46h38.34ZM693.5,2034.5H708V2031H693.5Zm14.52,6.12V2037H693.5v3.66Zm17.22-32.87h-30.6v3.48h30.6Zm0,5.94h-30.6v3.54h30.6ZM727,2031H711.8v3.54H727Zm0,6H711.8v3.66H727Z"/><path d="M796.7,2047.16H771.92V2058h-4.08v-10.8H743.48v-3.78h24.36v-5.94H749.18v-23.75H760.4a55.6,55.6,0,0,0-5.88-8.46l3.24-1.62a41.38,41.38,0,0,1,6.48,8.88l-2.22,1.2h14.64a69,69,0,0,0,6.12-10.14l4.2,1.5c-1.8,2.88-3.9,6.06-5.88,8.64h10.32v23.75h-19.5v5.94H796.7ZM753,2023.88h14.82v-6.77H753ZM767.84,2034v-6.9H753v6.9Zm19.56-16.91H771.92v6.77H787.4Zm0,10H771.92v6.9H787.4Z"/><path d="M821.3,2004.63a90.29,90.29,0,0,1-6.18,12.84v40.43h-4v-34.19a70.15,70.15,0,0,1-6.36,7.79,23.56,23.56,0,0,0-2.28-3.9c5.94-5.81,11.58-14.81,15.06-24Zm35.76,47v3.84H819.62v-3.84h21.06a266.82,266.82,0,0,0,5.88-30l4.14.77c-1.56,9.24-4,21.18-6.3,29.28Zm-2.52-33.47H822.26v-3.84h32.28Zm-24.12,30.53a209.72,209.72,0,0,0-4.2-25.8l3.6-.71a205.18,205.18,0,0,1,4.56,25.37Zm6.84-35.21a72.34,72.34,0,0,0-2.88-9.48l3.72-1a88.64,88.64,0,0,1,3.06,9.36Z"/><path d="M871.34,2011.89a45.07,45.07,0,0,1-5.64,7.56,22,22,0,0,0-3.36-2.28,39.65,39.65,0,0,0,9.06-14.1l3.72,1a41.3,41.3,0,0,1-1.92,4.44h16.14v3.42H878a27.82,27.82,0,0,1,2.22,5.64l-3.54,1.26a33.3,33.3,0,0,0-2.58-6.9Zm32.82,21.95v5.58h11.4V2043h-11.4v10.14c0,2.52-.54,3.54-2.46,4.2s-5.28.66-10.26.66a14.62,14.62,0,0,0-1.5-3.78c4.26.12,7.74.12,8.88,0s1.32-.3,1.32-1.14V2043H865v-3.54h35.16v-5.58H863.06v-3.47H887.9v-5.76h-19v-3.42h19v-3.78c-.72-.54-1.5-1-2-1.26a29.77,29.77,0,0,0,8.7-13.08l3.78,1a47.24,47.24,0,0,1-1.92,4.44h20v3.42H903.14a26.72,26.72,0,0,1,3.48,5.76l-3.42,1.5a34.3,34.3,0,0,0-4.32-7.26h-4.32a36.43,36.43,0,0,1-3.84,5H892v4.32h19.5v3.42H892v5.76h25.14v3.47Zm-27.6,9.48c3.9,2.4,8.4,6.12,10.44,8.94l-3.06,2.52c-2-2.82-6.3-6.66-10.26-9.24Z"/><path d="M941.36,2047.88a9,9,0,1,1-9.06-9A9,9,0,0,1,941.36,2047.88Zm-2.82,0a6.21,6.21,0,1,0-6.24,6.24A6.22,6.22,0,0,0,938.54,2047.88Z"/><line class="cls-3" x1="621" y1="350" x2="621" y2="350"/><line class="cls-4" x1="509" y1="1036" x2="707" y2="1036"/><line class="cls-4" x1="363.45" y1="1191.5" x2="852.55" y2="1191.5"/><path class="cls-4" d="M363.45,1191.5c-82.23-1.36-70.33,72.18-69.25,190"/><path class="cls-4" d="M852.55,1191.5c82.23-1.36,70.33,72.18,69.25,190"/><path class="cls-4" d="M443.7,1199a580.75,580.75,0,0,1-10.58,115.59c-6.45,33.07-16.07,65.43-31.52,90.92S364.25,1449,341.28,1449"/><path class="cls-4" d="M443.7,1199a580.75,580.75,0,0,0,10.57,115.59c6.46,33.07,16.07,65.43,31.53,90.92S523.15,1449,546.12,1449"/><path class="cls-4" d="M771.86,1199a580.75,580.75,0,0,1-10.58,115.59c-6.45,33.07-16.07,65.43-31.52,90.92S692.41,1449,669.44,1449"/><path class="cls-4" d="M771.86,1199a580.75,580.75,0,0,0,10.57,115.59c6.46,33.07,16.07,65.43,31.53,90.92S851.31,1449,874.28,1449"/><line class="cls-4" x1="608" y1="1200" x2="608" y2="1655"/><path class="cls-2" d="M78.5,1034.82a53,53,0,0,1-5.28,12.84,25.58,25.58,0,0,0-3.06-2.34c3.78-5.7,6.06-14.4,7.32-23.34l3.66.72c-.48,2.94-1,5.88-1.74,8.7h9.9l.66-.18,2.64.84a76.51,76.51,0,0,1-4.92,12.42l-3.12-1.14a44.35,44.35,0,0,0,3.3-8.52Zm11.16,27.54a21,21,0,0,0,1.32,3.3c-10,7.5-11.64,8.94-12.6,10v.24a14,14,0,0,0-2.22-2.76,7.62,7.62,0,0,0,2.46-5.76V1043h3.6v24.72Zm20.82-28.8v10.8h12.65v19.14c0,2-.36,3.06-1.73,3.72s-3.66.72-7,.72a14.92,14.92,0,0,0-1.2-3.72c2.64.06,4.67.06,5.34,0s.83-.18.83-.84V1048h-8.87v28.5h-4V1048H97.88v20.28H94.16v-23.88h12.36v-10.8h-7a43.77,43.77,0,0,1-4.86,8.16,26.57,26.57,0,0,0-3.36-2.1c3.78-4.32,6.72-11,8.4-17.76l3.78.78a66.28,66.28,0,0,1-2.34,7.14h23.33v3.78Z"/><path class="cls-2" d="M139.58,1031a54.67,54.67,0,0,1-5.7,8.82,27.15,27.15,0,0,0-3.36-2.22c3.78-4,7-10,8.82-16.08l3.78,1a52.68,52.68,0,0,1-2,5.1h15.42V1031h-9.48a42.65,42.65,0,0,1,3.24,7.26l-3.54,1.26a52.56,52.56,0,0,0-3.66-8.52ZM176,1072.38c2.94,0,3.42-1.08,3.77-6.66a10.2,10.2,0,0,0,3.73,1.56c-.6,6.78-1.87,8.7-7.32,8.7h-14c-6.36,0-8.22-1.32-8.22-6.42v-5.28l-21.78,1.92-.36-3.48,22.14-2v-6.66l-18.84,1.74-.3-3.42,19.14-1.68v-5.88c-5.7.6-11.52,1.14-17,1.5a12.55,12.55,0,0,0-1-3.24c14.16-1.08,30.66-2.94,40-5.34l2.46,3.24a190.3,190.3,0,0,1-20.46,3.42v5.94l20.46-1.86.41,3.3-20.87,1.92v6.66L184,1058.1l.43,3.42-26.52,2.4v5.58c0,2.34.66,2.88,4.38,2.88ZM162.92,1031a32.08,32.08,0,0,1-5.76,8.1,25.2,25.2,0,0,0-3.36-2.28,34.25,34.25,0,0,0,8.82-15.3l3.9,1c-.54,1.74-1.2,3.48-1.86,5.1h19.13V1031H171.68a31.74,31.74,0,0,1,2.76,5.58l-3.48,1.26a41.88,41.88,0,0,0-3.36-6.84Z"/><path class="cls-2" d="M90.6,1410.78a80.06,80.06,0,0,0-5.64-10.2,48.25,48.25,0,0,1-13.56,17.88,12.83,12.83,0,0,0-2.88-3.12c5.46-4,10.2-10.38,13.86-18.72-3.6-5.28-7.62-10.86-11.46-15.48l2.94-2.22c3.36,4,7,8.7,10.26,13.32a97.08,97.08,0,0,0,4.68-19.92H70.2v-3.78H89.82l.66-.18,2.58.72a106.46,106.46,0,0,1-6.18,27.12A88.87,88.87,0,0,1,94,1408.14Zm30.3-41.7c-1.68,13.68-5.46,24.48-10.68,32.76a33.92,33.92,0,0,0,13.38,13.44,15.58,15.58,0,0,0-2.88,3.42,37.1,37.1,0,0,1-13-13.2,46.91,46.91,0,0,1-14.76,13,14.15,14.15,0,0,0-2.7-3.36,41.05,41.05,0,0,0,15.3-13.62c-3.9-8-6.48-17.94-8.16-29.16H95.76v-3.78h21.9l.66-.18Zm-19.74,3.24c1.38,9.48,3.6,18.12,6.84,25.26a71.9,71.9,0,0,0,8.52-25.26Z"/><path class="cls-2" d="M142.92,1408.2v10.26H139.2V1408.2H128.94v-3.54H139.2v-4.8h-8.4v-21.3h8.4v-4.74h-9.66v-3.48h9.66v-6.48h3.66v6.48h9.72v3.48h-9.72v4.74h8.64v21.3h-8.58v4.8h9.66v3.54ZM134,1387.68h5.46v-6.06H134Zm0,9.12h5.46v-6.18H134Zm14.1-15.18h-5.52v6.06h5.52Zm0,9h-5.52v6.18h5.52Zm11-4.68c-.12,9.24-1.08,21.84-6.78,31.26a12.33,12.33,0,0,0-2.7-2.58c5.7-9.18,6-22.62,6-31v-12.42h12.06a65.63,65.63,0,0,0-3.06-6.18l3-1.14a70.57,70.57,0,0,1,3.72,7.32h9.9v14.7Zm19.08,27.9c1.86,0,2.34-.66,2.52-6.72a11.62,11.62,0,0,0,3,1.2c-.36,8-1.62,9.12-5.58,9.12H165.42c-4.92,0-7-1.74-7-4.86,0-2.34.6-5.16,16-17h-13.8v-3.36h18.66l.84-.06,2.34,1.2a2.07,2.07,0,0,1-.54.72c-18.48,13.68-19.92,16.32-19.92,18.12,0,1.2,1.32,1.68,3.42,1.68Zm-19.08-39.24v8h18.66v-8Z"/><path class="cls-2" d="M1108.33,1647.94H1086.8v11.58h-4.2v-11.58H1056V1644h26.58v-9.54h-14c-3.6,0-5.7.36-6.3.84a35.25,35.25,0,0,0-1.5-4.08c1.26-.3,2.52-2.1,4.08-4.74a90.2,90.2,0,0,0,5-9.12h-13v-3.84h14.76c1.32-2.88,2.58-6,3.6-9l4.44,1.32c-1.08,2.58-2.16,5.16-3.42,7.68h30.9v3.84h-32.7a124,124,0,0,1-7.74,13.32h15.84v-9.3h4.2v9.3h16.49v3.78H1086.8V1644h21.53Z"/><path class="cls-2" d="M1137,1644.58c-2.34.54-4.68,1-7,1.5v13.2h-3.6V1646.8c-3.9.84-7.56,1.56-10.68,2.16l-.9-3.84c3.12-.54,7.14-1.26,11.58-2.1v-9h-4.86c-2.1,0-3.78.36-4.26.78-.24-.72-.84-2.58-1.26-3.54,1-.24,1.74-2.22,2.76-4.86a101,101,0,0,0,3.24-10.62h-6.84v-3.72h7.74c.54-2.34,1-4.8,1.38-7.26l4,.78c-.36,2.1-.9,4.32-1.44,6.48h9.48v3.72h-10.5a132.43,132.43,0,0,1-5.1,14.58h5.7v-9.24h3.6v9.24h6.72V1634h-6.72v8.4l6.78-1.26Zm32-2.34a66.33,66.33,0,0,1-8.4,5.82,21.84,21.84,0,0,0,9.6,7.5,10.54,10.54,0,0,0-2.53,3.12c-7.49-3.42-12.29-10.44-14.87-19.5a39.6,39.6,0,0,1-5.88,4.86v10.2l8.22-2.52a23.91,23.91,0,0,0,.3,3.24c-10.56,3.54-12.24,4.08-13.14,4.8a15.57,15.57,0,0,0-1.44-3.6,3.49,3.49,0,0,0,2.46-3.36v-6.66a54.71,54.71,0,0,1-6.9,3.18,21.9,21.9,0,0,0-1.8-3.54c5.22-1.62,10.86-4.26,14.58-7.68h-8.82v-13h25.79v13h-10.31a31.9,31.9,0,0,0,3.06,7.32,60.79,60.79,0,0,0,7.56-5.76Zm.17-20.88h-32V1618h14v-5.1h-11.4v-3.24h11.4v-4.74h3.9v4.74h11.52v3.24h-11.52v5.1h14ZM1144.1,1635h18.18v-6.78H1144.1Z"/><path class="cls-2" d="M1105.33,1230.94H1083.8v11.58h-4.2v-11.58H1053V1227h26.58v-9.54h-14c-3.6,0-5.7.36-6.3.84a35.25,35.25,0,0,0-1.5-4.08c1.26-.3,2.52-2.1,4.08-4.74a90.2,90.2,0,0,0,5-9.12h-13v-3.84h14.76c1.32-2.88,2.58-6,3.6-9l4.44,1.32c-1.08,2.58-2.16,5.16-3.42,7.68h30.9v3.84h-32.7a124,124,0,0,1-7.74,13.32h15.84v-9.3h4.2v9.3h16.49v3.78H1083.8V1227h21.53Z"/><path class="cls-2" d="M1126.1,1200.88a86,86,0,0,1-4.2,8v33.54h-3.66v-27.9a67.52,67.52,0,0,1-4.5,5.7,21.28,21.28,0,0,0-2.46-3.42,60.53,60.53,0,0,0,11.28-17.1Zm-1.2-11.7a59.86,59.86,0,0,1-10.74,13.92,19.41,19.41,0,0,0-2.16-2.94,46.29,46.29,0,0,0,9.24-12.3Zm3.48,16.56c-.36.42-.72.84-1.14,1.26a10.08,10.08,0,0,0-2.82-2.16,41.58,41.58,0,0,0,9.06-16.74l3.66.54c-.48,1.44-1,2.82-1.5,4.32h7.74l.54-.18,2.4,1.56a51,51,0,0,1-3.54,7.56h6.72v19.92h-21.12Zm12.48,17c-.12,1.2-.3,2.28-.48,3.36h10.68v3.36h-10.32a57.64,57.64,0,0,1,9.3,8.34l-2.46,2.52a58.94,58.94,0,0,0-8.94-8.4c-2,4.5-5.34,7.86-11.28,10a9.12,9.12,0,0,0-2.1-2.7c5.94-2,8.94-5.34,10.5-9.78h-9.48v-3.36h10.44c.18-1.08.36-2.16.48-3.36Zm-6.66-26.58a40.9,40.9,0,0,1-3.12,5.7h8.1a45.39,45.39,0,0,0,2.58-5.7Zm3.36,14.22v-5.52h-6.06v5.52Zm-6.06,2.82v5.64h6.06v-5.64Zm14.76-8.34h-5.64v5.52h5.64Zm0,8.34h-5.64v5.64h5.64Zm20-2.82h-5.11v27.3c0,2.1-.35,3.12-1.8,3.78-1.25.66-3.41.72-6.71.72a12.28,12.28,0,0,0-1.14-3.66c2.4.06,4.56.06,5.16,0s.9-.24.9-.84v-27.3h-6.18v-3.66h14.88Zm-1.15-14.7h-12.35v-3.66h12.35Z"/><path class="cls-2" d="M212.21,1061.39a652.63,652.63,0,0,0,179,1.15q25-3.3,49.67-8.51c1.42-.29.82-2.46-.59-2.17a648.5,648.5,0,0,1-88.39,12.41,653.57,653.57,0,0,1-89.06.21q-25.09-1.67-50-5.26c-1.41-.2-2,2-.59,2.17Z"/><path class="cls-2" d="M211.13,1416a359.67,359.67,0,0,0,36,40,225.52,225.52,0,0,0,42.46,32,157.38,157.38,0,0,0,47.69,18.22,137.43,137.43,0,0,0,49.61.84,107.56,107.56,0,0,0,45-18.53q2.42-1.77,4.73-3.68c1.12-.92-.48-2.5-1.59-1.59a102.81,102.81,0,0,1-43.36,20.57,131.47,131.47,0,0,1-48.87,1.1,151.79,151.79,0,0,1-47.46-16.31,213.92,213.92,0,0,1-42.56-30.43,337.64,337.64,0,0,1-36-38.58c-1.37-1.7-2.74-3.42-4.09-5.14-.89-1.14-2.47.46-1.59,1.59Z"/><path class="cls-2" d="M195.53,1442.74c16.78,55.53,48,105.68,87.09,148.22s86.19,78.06,136.89,105.92c57,31.34,122,56.12,188.17,51.34,28.42-2,56.64-9.57,81.79-23.1a159.89,159.89,0,0,0,61.62-58.23C781.32,1616.65,783.78,1555,783,1498c-.09-7.07-.25-14.13-.42-21.2a1.13,1.13,0,0,0-2.25,0c1.37,56.83,2.28,117.32-21.48,170.28-11.83,26.37-30,49.25-53.78,65.81s-51.34,26.62-79.71,31.07c-65.45,10.26-131.35-11.25-189.08-40.72-50.72-25.9-98-59.18-138.29-99.48s-73.84-88.24-93.73-142q-3.6-9.74-6.59-19.66a1.12,1.12,0,0,0-2.17.59Z"/><path class="cls-2" d="M706.59,1135c22.15-9.71,44.33-19.42,67.15-27.47,22.37-7.89,45.42-14.23,69-17,22.33-2.67,45.2-2.33,67.23,2.49a159.74,159.74,0,0,1,60.08,27.46c17.78,12.95,33.38,28.61,48.6,44.41l5.67,5.92c1,1,2.6-.54,1.6-1.59-15.39-16.06-30.88-32.18-48.44-45.92s-37.16-24.56-58.8-30.46c-21.92-6-45-7.31-67.53-5.42-23.71,2-46.95,7.6-69.5,15.06-23.15,7.67-45.61,17.24-67.94,27l-8.27,3.62c-1.33.58-.18,2.52,1.13,1.94Z"/><path class="cls-2" d="M651,1559.35a489.31,489.31,0,0,0,65.8,36.13A504.5,504.5,0,0,0,787,1621.19a512.11,512.11,0,0,0,73.54,15.19,503.51,503.51,0,0,0,75,4.22,491,491,0,0,0,74.4-7c3-.53,6.1-1.09,9.13-1.67,1.42-.27.82-2.44-.59-2.17a486.79,486.79,0,0,1-74.29,8.39A507.29,507.29,0,0,1,725.87,1597a490,490,0,0,1-65.9-34.62q-3.93-2.48-7.81-5c-1.22-.8-2.35,1.15-1.14,1.94Z"/><rect class="cls-2" x="1113" y="1317" width="65" height="220" rx="12"/><path class="cls-1" d="M1157.05,1355.79a27.61,27.61,0,0,0,11.5,8.1,11.65,11.65,0,0,0-2.15,2.55,30.77,30.77,0,0,1-12.8-10.65h-15.95a34.39,34.39,0,0,1-13,11.3,11.43,11.43,0,0,0-2.15-2.55,30.39,30.39,0,0,0,11.6-8.75H1123v-2.85h10v-16.15h-7.7V1334h7.7v-5h3.3v5h18.55v-5h3.35v5h7.65v2.8h-7.65v16.15h9.8v2.85Zm-10,14.5h17.3v2.85H1126.8v-2.85h16.9v-5.6h-10.45v-2.8h10.45v-4.4h3.35v4.4h10.65v2.8h-10.65Zm-10.8-33.5v3.6h18.55v-3.6Zm0,9.8h18.55v-3.65h-18.55Zm0,6.35h18.55v-3.8h-18.55Z"/><path class="cls-1" d="M1141.25,1397.54s0,1.15,0,1.55c-.6,15.85-1.2,21.2-2.6,23a3.71,3.71,0,0,1-2.8,1.45,32.65,32.65,0,0,1-4.45,0,9.25,9.25,0,0,0-.85-3c1.75.15,3.2.15,3.9.15a1.42,1.42,0,0,0,1.45-.65c1-1.2,1.6-6,2.15-19.35h-6.8c-.55,10-2,18.25-6.45,23.65a9.53,9.53,0,0,0-2.55-2.35c5.45-6.45,5.9-17.85,6.1-31.55h-5.2v-3.1h20.1v3.1h-11.65c0,2.45-.1,4.85-.2,7.15Zm-7.9-10.45a33.47,33.47,0,0,0-4.25-7.15l2.9-1.15a31.92,31.92,0,0,1,4.4,7Zm23.85-7.45a15.26,15.26,0,0,1-.85,2.55c2.65,5.45,7.7,11.35,12.45,14a13,13,0,0,0-2.45,2.75c-4.25-2.7-8.5-8-11.4-13.3a32.61,32.61,0,0,1-11,13.6,12.79,12.79,0,0,0-2.35-2.65c5.85-3.6,10.35-10.2,12.5-17.85Zm-8.3,32.45a74,74,0,0,1,13.6,8.25l-2.25,2.9c-2.85-2.6-8.75-6.3-13.4-8.65Zm9.5-4.85a66.22,66.22,0,0,0-8.6-6.85l2.15-2.2a67.46,67.46,0,0,1,8.75,6.55Z"/><path class="cls-1" d="M1148.6,1429.94c-.35.6-.8,1.15-1.2,1.75,4.95,5.5,13.85,10.9,21.4,13.3a16.56,16.56,0,0,0-2.35,2.9,60.7,60.7,0,0,1-21-13.9,48.65,48.65,0,0,1-12.4,10h25.1v3.1h-11.1v7.05h17.75v3H1147.1v12.7H1167v3.1h-43v-3.1h19.55v-12.7h-17.35v-3h17.35v-7.05h-10.9v-2.9a58.72,58.72,0,0,1-8.25,3.85,11.79,11.79,0,0,0-2.25-3c9.35-3.1,18.55-9.1,23.3-16.5Zm-15.25,28.65a42.46,42.46,0,0,1,4.8,9.1l-2.9,1.2a40.78,40.78,0,0,0-4.65-9.2Zm18.55,9.3a71.79,71.79,0,0,0,5.35-9.35l3.15,1.25a101.62,101.62,0,0,1-6,9.2Z"/><path class="cls-1" d="M1160,1491.09a51.83,51.83,0,0,1-12,19.6,49.94,49.94,0,0,0,20.5,10.5,16.79,16.79,0,0,0-2.25,3,50.92,50.92,0,0,1-20.75-11.1c-5.65,5-12.55,8.6-21,11.3a15.53,15.53,0,0,0-2-3.05c8.35-2.45,15.1-5.9,20.6-10.6a57.05,57.05,0,0,1-12.2-19.65h-7.75v-3.25h44.75v3.25Zm-25.75,0a52.13,52.13,0,0,0,11.3,17.3,47.46,47.46,0,0,0,10.7-17.3Zm11.25-3.55a38.13,38.13,0,0,0-3.8-7.8l3.4-1a39,39,0,0,1,4,7.65Z"/></svg>