<svg id="Layer_1" data-name="Layer 1" xmlns="http://www.w3.org/2000/svg" viewBox="0 0 1242 2208"><defs><style>.cls-1{fill:#f6eabe;}.cls-2{fill:#999;}.cls-3{fill:none;}</style></defs><rect class="cls-1" width="1242" height="2208"/><path d="M965.68,563.06v51.61H250.29V563.06h185V370.12H282.85V319.3H435.29V156.53h54V319.3H722.72V156.53h54V319.3H936.3v50.82H776.71V563.06ZM529,684.54C472.61,753.62,382.09,826.66,301.9,872.71c-9.53-11.11-28.58-27.79-40.49-37.31,77.81-42.88,168.32-111.16,212.79-171.51Zm-39.7-121.48H722.72V370.12H489.28Zm233.44,100c73.84,52.4,173.09,127.83,223.9,176.27L897.4,871.92C849.76,824.28,752.89,745.68,677.46,690.1Z"/><rect class="cls-2" x="1114" y="437" width="65" height="126" rx="12"/><path class="cls-1" d="M1133.7,466.82c1.25,1.6,4.9,6.7,5.7,8.05l-2,2.45c-.7-1.5-2.35-4.4-3.75-6.65V497h-3.15V472.57c-1.5,5.05-3.5,9.9-5.55,12.85a14.83,14.83,0,0,0-1.75-3.1c2.9-4,5.8-11.5,7.2-18h-6.2v-3.15h6.3v-9.65h3.15v9.65h5.45v3.15h-5.45Zm19.1.7a19.47,19.47,0,0,0,.45,2.65c-10.15,2.7-11.6,3.15-12.5,3.75a12.13,12.13,0,0,0-1.1-3.2c.7-.2,1.55-.5,1.55-2.2v-16.7h3.25v6.5h8.35v2.9h-8.35v8.3Zm2.35,5.5-2,3.75h12.65V497h-3.4v-1.75h-17v2h-3.3V476.77h7.9c.55-1.5,1.2-3.25,1.55-4.6Zm7.3,6.5h-17v5.05h17Zm0,13v-5.3h-17v5.3Zm2.25-22.4c1.25,0,1.5-.75,1.65-5.25a9.16,9.16,0,0,0,2.85,1.25c-.3,5.45-1.2,6.95-4.15,6.95h-5.85c-3.65,0-4.55-.95-4.55-4.45V451.87h3.25v6.5h10.2v2.9h-10.2v7.35c0,1.3.25,1.5,1.65,1.5Z"/><path class="cls-1" d="M1168.55,526.87v2.5H1124.4v-2.5h20.25v-3.2H1127.8v-2.3h16.85v-3H1129.2v-2.25h15.45v-3.2H1124.5v-2.5h20.15v-3.05H1129.8V505h14.85v-3.55h3.25V505h14.45v5.4h6.15v2.5h-6.15v5.45H1147.9v3h17.3v2.3h-17.3v3.2Zm-37.75,5h31.75v15.25h-3.25v-1.6H1134v1.7h-3.2Zm3.2,2.4v3.2h25.3v-3.2Zm25.3,8.85v-3.4H1134v3.4Zm-11.4-32.7h11.15v-3.05H1147.9Zm0,5.7h11.15v-3.2H1147.9Z"/><path d="M384.92,1859.69a98.85,98.85,0,0,1-6.18,13.56v39.59H374.9v-33.35a61.73,61.73,0,0,1-5.46,7,32.86,32.86,0,0,0-2.28-3.9c5.58-5.87,10.8-14.87,14-24Zm34.2,29.21c-2,1.38-4.44,2.7-6.84,4,2,5.82,5.82,11.16,10.62,13.62a15.86,15.86,0,0,0-2.64,3.06c-4.92-3-8.76-8.76-10.86-15.3-1,.54-2.1,1-3.12,1.5,2.1,6.3,1.26,12.72-1.38,15.24a6.51,6.51,0,0,1-5,1.92c-1,0-2.4-.06-3.72-.12a9.47,9.47,0,0,0-1-3.48,34.56,34.56,0,0,0,4,.24,3.38,3.38,0,0,0,3-1.14c1.44-1.32,2.1-4.86,1.44-8.94a58.72,58.72,0,0,1-19.5,11.4,11.72,11.72,0,0,0-2.34-2.82c7.44-2.22,16.26-7,21.12-11.82a24.37,24.37,0,0,0-1.62-3.66,57.71,57.71,0,0,1-16.74,9.66,16.14,16.14,0,0,0-2.22-2.64c5.82-1.74,13.38-5.58,17.52-9.3a16.53,16.53,0,0,0-2.82-3,39.59,39.59,0,0,1-12.3,6.17,14.66,14.66,0,0,0-2.28-2.58c6.54-2.1,10.86-4.62,13.68-7.26h-9.54v-9.35c-1.08,1-2.22,1.92-3.42,2.88a9.81,9.81,0,0,0-2.64-2.53,45.41,45.41,0,0,0,13.92-16.25l3.84.72a35.7,35.7,0,0,1-2,3.54h11.1l.78-.18,2.34,1.68a52.13,52.13,0,0,1-4.8,6.84h13v12.65H400.7a15.52,15.52,0,0,1-1.38,1.63,22.17,22.17,0,0,1,6,7.85,120.47,120.47,0,0,0,11.1-6.66Zm-25-23.09a54.58,54.58,0,0,1-4.2,5.16h11.58a33.35,33.35,0,0,0,3.72-5.16Zm-4,14.69h8.64a15.14,15.14,0,0,0,2.46-6.42h-11.1Zm24.72-6.42H404.6a18.56,18.56,0,0,1-1.8,6.42h12.06Z"/><path d="M481.7,1891.78H467.9V1913h-4.14v-21.24H446.3c-.78,8.1-4,16-15,21.6a15.62,15.62,0,0,0-2.82-3.12c9.84-5,12.78-11.64,13.62-18.48H428.36v-3.84h14v-13.37H430.64v-3.84h31.2a86.41,86.41,0,0,0,5.64-12.54l4.5,1.38c-1.8,3.72-3.9,7.86-5.88,11.16h13.68v3.84H467.9v13.37h13.8Zm-37.08-21.29a45.07,45.07,0,0,0-6.3-10.62l3.6-1.56a45,45,0,0,1,6.54,10.5Zm19.14,17.45v-13.37H446.54v13.37Z"/><path d="M507.08,1889c-2.64.73-5.22,1.5-7.8,2.16v17c0,2.34-.54,3.36-1.92,4s-3.6.78-7.38.78a13.81,13.81,0,0,0-1.14-3.72c2.64.06,5,.06,5.64,0s1.08-.18,1.08-1.08v-16l-7.44,2L487,1890.4c2.34-.54,5.28-1.32,8.52-2.15v-13.44h-7.68v-3.73h7.68v-12.71h3.72v12.71h7v3.73h-7v12.41l7.32-1.92Zm29.82,19.38c1.56,0,1.8-1.2,2-6.9a9.58,9.58,0,0,0,3.36,1.56c-.36,6.78-1.38,8.82-5,8.82h-7.14c-4.26,0-5.4-1.2-5.4-5.64v-2.7a54.89,54.89,0,0,1-8.7,6.9,22.25,22.25,0,0,0-2.7-2.58,54.1,54.1,0,0,0,11.4-9.42v-22.19h-5.88c-1.26,16.73-4.86,28.49-15.42,36.71a16.73,16.73,0,0,0-2.82-3.06c10-7,13.38-18.12,14.52-33.65h-7.92v-3.48h8.16c.24-4.44.3-9.3.36-14.4l3.84.06c-.06,5.1-.24,9.9-.48,14.34h23v3.48H528.38v17.93a64.85,64.85,0,0,0,8.16-13.31l3.42,1.25a74,74,0,0,1-11.58,17.52v6.6c0,1.8.3,2.16,2.1,2.16Zm-2-39.11A71.46,71.46,0,0,0,526,1862l2.52-2.1a72.39,72.39,0,0,1,9.06,7Z"/><path d="M584.42,1874.69v.35h14.34v32.64c0,2.7-.6,4-2.58,4.68s-5.64.66-11,.66a15.22,15.22,0,0,0-1.38-4c4.38.18,8.4.12,9.6.06s1.44-.36,1.44-1.44v-28.79H584.3a43,43,0,0,1-.6,6.05c3.84,4.5,8.1,10.08,10,13.56l-2.4,3a87.56,87.56,0,0,0-8.46-12.18,32.38,32.38,0,0,1-8.34,15.06,11.45,11.45,0,0,0-2.82-2.82c7-6.66,8.46-15.54,8.82-22.67H569a58.92,58.92,0,0,1-.6,6.23,62.5,62.5,0,0,1,6.36,8.94l-2.4,3.18a60.91,60.91,0,0,0-4.92-7.68,32.3,32.3,0,0,1-8.28,14.82,12.31,12.31,0,0,0-2.76-2.82c6.9-6.66,8.4-15.54,8.76-22.67h-9.84v34.25h-4v-38h13.86v-8.63H548.78v-3.84h52.5v3.84H584.42Zm-3.9.35v-8.63h-11.4V1875Z"/><path d="M661.94,1893.22H637.1v14c0,3-1,4.2-3.06,4.86s-5.94.72-12.3.66a17.27,17.27,0,0,0-1.74-3.9c5.16.12,9.84.06,11.16.06s1.86-.48,1.86-1.74v-13.92H608.18v-3.9H633v-10.2H612.14v-3.83H633v-9.6c-6.66.66-13.56,1.14-19.8,1.44a16.18,16.18,0,0,0-1-3.54c14.16-.72,31.8-2.28,40.74-5.16l2.94,3.24a123.25,123.25,0,0,1-18.78,3.6v10h21.48v3.83H637.1v10.2h24.84Z"/><path d="M693.5,1892.5a27.67,27.67,0,0,0,1,3.72c-17.28,8.16-19.38,9.36-20.82,10.62a13.28,13.28,0,0,0-2.22-3.3c1.2-.66,3.42-2.52,3.42-5.22v-35.21h4.26v36ZM715,1860.89c-.9,14.34-2.52,25.32-6.54,33.83,5.28,5,11.28,11.34,14.16,15.6l-3.42,2.58a102.78,102.78,0,0,0-12.54-14.64c-4,6.48-9.6,11.34-17.94,15.12a18.64,18.64,0,0,0-2.94-3.42c19.38-7.62,23.64-22.5,25-49.31Zm-18.3,19c-1.62-3.84-5.52-9.9-8.94-14.28l3.3-1.74a70.56,70.56,0,0,1,9.24,13.91Z"/><path d="M745.28,1859.63a96,96,0,0,1-6.24,13v40.25h-3.9v-34.19a68.44,68.44,0,0,1-6.36,7.73,20.3,20.3,0,0,0-2.28-3.9c6-5.81,11.64-14.81,15.06-24Zm12.66,39.29a56.33,56.33,0,0,1-11.4,14,16.81,16.81,0,0,0-3.18-2.52,43.63,43.63,0,0,0,10.86-12.54Zm24.42-8.58v3.9H743.6v-3.9H753v-15.17H745.1v-3.84H753V1859h3.9v12.3H769V1859h3.9v12.3h8.7v3.84h-8.7v15.17Zm-25.44,0H769v-15.17H756.92Zm14,7.62a72.16,72.16,0,0,1,10.74,12.9l-3.36,2.22c-2-3.72-6.48-9.3-10.44-13.32Z"/><path d="M827.12,1883a33.48,33.48,0,0,0,15.66,11.22,18.7,18.7,0,0,0-2.58,3.18,38.34,38.34,0,0,1-17.34-14.4H807.8a43.81,43.81,0,0,1-17.88,14.76,20.64,20.64,0,0,0-2.7-2.94A41.05,41.05,0,0,0,802.94,1883H789.68v-3.35h15.78a50.8,50.8,0,0,0,2.82-5h-14.1v-3.12h15.48c.6-1.49,1.2-3,1.68-4.61H792.26v-3.24h20c.48-1.74.9-3.6,1.26-5.4l4.08.84c-.36,1.5-.72,3.06-1.14,4.56H837.8v3.24H815.48c-.48,1.62-1,3.12-1.56,4.61h21.3v3.12H812.54a49,49,0,0,1-2.58,5h30.48V1883ZM817,1899.76h19.08v3.54H817V1913h-4v-9.72H793.34v-3.54H813V1894H801.74v-3.42H813v-5.64h4v5.64H828.2V1894H817Z"/><path d="M849,1911.7c4.68-2,7.26-4.92,7.56-9.18a7.35,7.35,0,0,1-1.14.12c-2.34,0-4.26-1.38-4.26-4.08a4,4,0,0,1,4.32-4.14c3.18,0,4.86,2.64,4.86,6.66,0,6.48-4,11.28-10.08,13.44Z"/><path d="M457.46,1979.62a70.7,70.7,0,0,0,7.38.36c2.1.06,14.76,0,17.58-.06a16.36,16.36,0,0,0-1.44,3.84H464.72c-12.3,0-19.92-1.92-24.72-10.38a31.55,31.55,0,0,1-9.48,11.7,19.84,19.84,0,0,0-3.06-2.82c6.3-4.14,10.2-10.92,11.82-19.86l4,.6a55.92,55.92,0,0,1-1.5,6.06c2.34,5.64,6.3,8.52,11.7,9.84v-18.54H428.72v-3.6H481.4v3.6H457.46v7.08h20v3.6h-20Zm17.22-27.17h-39.6v-19.56h39.6Zm-4-16.44H439v5.16h31.68Zm0,8.1H439v5.27h31.68Z"/><path d="M514,1933.49H499.22v35.15h-4v-38.87H514Z"/><path d="M529.28,1962.46v17.64c0,2.34-.54,3.42-1.92,4.14s-3.66.78-7.5.72a15.56,15.56,0,0,0-1.2-3.84c2.64.12,5,.12,5.7.06s1.08-.24,1.08-1.08v-16.38l-7.38,2.46-1.14-3.84c2.34-.72,5.28-1.56,8.52-2.63v-13.44h-7.62v-3.72h7.62v-12.18h3.84v12.18h6.78v3.72h-6.78v12.29l6.06-2,.48,3.73Zm19.74,8.7A47.52,47.52,0,0,1,537,1985a28.51,28.51,0,0,0-3.3-2.58,37.68,37.68,0,0,0,11.4-12.42Zm23.28-8.82v3.9H536v-3.9h8.52v-15.17h-6.84v-3.84h6.84V1931h3.84v12.3h11.4V1931h3.9v12.3h7.56v3.84h-7.56v15.17Zm-23.94,0h11.4v-15.17h-11.4Zm13.44,7.74a73,73,0,0,1,10.26,12.78L568.7,1985a76.13,76.13,0,0,0-10.14-13.14Z"/><path d="M576,1981.84h14.82v-35.15h4v38.87H576Z"/><path d="M624,1931c-1,2.94-2.1,6.3-3.18,8.88H631v38.75h-16.8v4.8h-3.66v-43.55h6.66a64.68,64.68,0,0,0,2.58-9.72Zm3.3,12.47H614.18v13.08h13.14Zm0,31.56v-14.88H614.18v14.88Zm33.06-33.17c-1,27.53-1.8,36.71-4.2,39.59a5.6,5.6,0,0,1-4.56,2.28,74.94,74.94,0,0,1-8.82-.12,9.42,9.42,0,0,0-1.32-3.9c3.9.36,7.5.36,8.82.36s1.92-.12,2.52-.9c2-2.1,2.94-11.34,3.72-35.7H640.82a55.33,55.33,0,0,1-5.64,10.68,36.22,36.22,0,0,0-3.36-2.22c4.08-5.34,7.32-13.61,9.18-21.89l3.84.84c-.78,3-1.62,6-2.64,8.88h18.18Zm-12.78,27a106.51,106.51,0,0,0-9.3-13.92l3.06-1.79a102.47,102.47,0,0,1,9.6,13.61Z"/><path d="M687.86,1969.06c-1.26-1.86-4.08-5.64-6.48-8.52v24.36H677.3v-23.64a61.07,61.07,0,0,1-7.68,7.62,13.85,13.85,0,0,0-2.22-3.66,60.27,60.27,0,0,0,16.38-20.51h-15.3v-3.66h17.28l.78-.18,2.34,1.62a62.93,62.93,0,0,1-7.44,13.43c.6.66,1.32,1.5,2.16,2.41a46.19,46.19,0,0,0,4.86-5.88l2.82,2.27c-1.86,1.92-4,4-5.82,5.64,2.1,2.28,4.14,4.56,4.92,5.46Zm-7.8-28.61a50.51,50.51,0,0,0-5.16-8.4l3.06-1.68a46,46,0,0,1,5.28,8Zm40-2.7c-.84,31-1.68,41.33-4.08,44.33a5.75,5.75,0,0,1-4.5,2.46,63.83,63.83,0,0,1-8.82-.12,10.21,10.21,0,0,0-1.2-3.84c3.78.3,7.14.36,8.52.36a2.7,2.7,0,0,0,2.46-1c2-2.28,2.88-12.48,3.72-40.55H704.06c-1,21.59-3.9,36.17-15.24,45.71a18.44,18.44,0,0,0-3.06-3.06c11-8.4,13.44-22.62,14.22-42.65h-10.2v-3.84h30.3Z"/><path d="M772.46,1944.89c-3.48,9.65-8.22,17.33-14.4,23.51a59.93,59.93,0,0,0,24.6,12.6,20.15,20.15,0,0,0-2.7,3.6,61.1,61.1,0,0,1-24.9-13.32c-6.78,5.94-15.06,10.32-25.14,13.56a18.63,18.63,0,0,0-2.46-3.66c10-2.94,18.12-7.08,24.72-12.72a68.52,68.52,0,0,1-14.64-23.57h-9.3V1941h53.7v3.9Zm-30.9,0a62.52,62.52,0,0,0,13.56,20.75A57,57,0,0,0,768,1944.89Zm13.5-4.26a45.75,45.75,0,0,0-4.56-9.36l4.08-1.2a46.78,46.78,0,0,1,4.8,9.18Z"/><path d="M806.36,1974.88a9,9,0,1,1-9.06-9A9,9,0,0,1,806.36,1974.88Zm-2.82,0a6.21,6.21,0,1,0-6.24,6.24A6.22,6.22,0,0,0,803.54,1974.88Z"/><path d="M176.9,2019.17c4.44,10.31,12.24,20,20.76,24.71a23.11,23.11,0,0,0-3.06,3.36c-9-5.58-16.92-16.32-21.6-28.07h-1v22.43h14.28v4H172V2057H167.9v-11.4H153.68v-4H167.9v-22.43h-1.08c-4.74,11.75-12.66,22.43-21.3,28.25a24.18,24.18,0,0,0-2.88-3.18c8-4.92,15.66-14.76,20.16-25.07H144.14v-4H167.9v-12.72H172v12.72h24v4Z"/><path d="M251.6,2008.07c-4.32,12.12-10.08,22.68-18.6,31.25a65.72,65.72,0,0,0,24.42,14.1,17.56,17.56,0,0,0-2.76,3.54A66.69,66.69,0,0,1,230,2042.2a72.92,72.92,0,0,1-25.38,14.7,14.53,14.53,0,0,0-2.16-3.36,69.86,69.86,0,0,0,24.78-14.1,89.37,89.37,0,0,1-18.18-29.27l3.6-1.08a80.51,80.51,0,0,0,17.52,27.53c8.16-8.21,13.62-18.41,17.4-29.87ZM231,2018a102.25,102.25,0,0,0-5.88-14.45l3.42-1.38a105.48,105.48,0,0,1,6.06,14.28Z"/><path d="M292.46,2051.62a70.7,70.7,0,0,0,7.38.36c2.1.06,14.76,0,17.58-.06a16.36,16.36,0,0,0-1.44,3.84H299.72c-12.3,0-19.92-1.92-24.72-10.38a31.55,31.55,0,0,1-9.48,11.7,19.84,19.84,0,0,0-3.06-2.82c6.3-4.14,10.2-10.92,11.82-19.86l4,.6a55.92,55.92,0,0,1-1.5,6.06c2.34,5.64,6.3,8.52,11.7,9.84v-18.54H263.72v-3.6H316.4v3.6H292.46v7.08h20v3.6h-20Zm17.22-27.17h-39.6v-19.56h39.6Zm-4-16.44H274v5.16h31.68Zm0,8.1H274v5.27h31.68Z"/><path d="M340.28,2003.63a96,96,0,0,1-6.24,13v40.25h-3.9v-34.19a68.44,68.44,0,0,1-6.36,7.73,20.3,20.3,0,0,0-2.28-3.9c6-5.81,11.64-14.81,15.06-24Zm12.66,39.29a56.33,56.33,0,0,1-11.4,14,16.81,16.81,0,0,0-3.18-2.52,43.63,43.63,0,0,0,10.86-12.54Zm24.42-8.58v3.9H338.6v-3.9H348v-15.17H340.1v-3.84H348V2003h3.9v12.3H364V2003h3.9v12.3h8.7v3.84h-8.7v15.17Zm-25.44,0H364v-15.17H351.92Zm14,7.62a72.16,72.16,0,0,1,10.74,12.9l-3.36,2.22c-2-3.72-6.48-9.3-10.44-13.32Z"/><path d="M422.12,2027a33.48,33.48,0,0,0,15.66,11.22,18.7,18.7,0,0,0-2.58,3.18,38.34,38.34,0,0,1-17.34-14.4H402.8a43.81,43.81,0,0,1-17.88,14.76,20.64,20.64,0,0,0-2.7-2.94A41.05,41.05,0,0,0,397.94,2027H384.68v-3.35h15.78a50.8,50.8,0,0,0,2.82-5h-14.1v-3.12h15.48c.6-1.49,1.2-3,1.68-4.61H387.26v-3.24h20c.48-1.74.9-3.6,1.26-5.4l4.08.84c-.36,1.5-.72,3.06-1.14,4.56H432.8v3.24H410.48c-.48,1.62-1,3.12-1.56,4.61h21.3v3.12H407.54a49,49,0,0,1-2.58,5h30.48V2027ZM412,2043.76h19.08v3.54H412V2057h-4v-9.72H388.34v-3.54H408V2038H396.74v-3.42H408v-5.64h4v5.64H423.2V2038H412Z"/><path d="M444,2055.7c4.68-2,7.26-4.92,7.56-9.18a7.35,7.35,0,0,1-1.14.12c-2.34,0-4.26-1.38-4.26-4.08a4,4,0,0,1,4.32-4.14c3.18,0,4.86,2.64,4.86,6.66,0,6.48-4,11.28-10.08,13.44Z"/><path d="M522.92,2014v42.77h-4.08v-3.54H481.1V2057h-4v-43h20.7v-11.58h4.08V2014Zm-41.82,4v13.5h16.74V2018Zm0,31.26h16.74v-13.86H481.1ZM501.92,2018v13.5h16.92V2018Zm16.92,31.26v-13.86H501.92v13.86Z"/><path d="M569.42,2018.69v.35h14.34v32.64c0,2.7-.6,4-2.58,4.68s-5.64.66-11,.66a15.22,15.22,0,0,0-1.38-4c4.38.18,8.4.12,9.6.06s1.44-.36,1.44-1.44v-28.79H569.3a43,43,0,0,1-.6,6.05c3.84,4.5,8.1,10.08,10,13.56l-2.4,3a87.56,87.56,0,0,0-8.46-12.18,32.38,32.38,0,0,1-8.34,15.06,11.45,11.45,0,0,0-2.82-2.82c7-6.66,8.46-15.54,8.82-22.67H554a58.92,58.92,0,0,1-.6,6.23,62.5,62.5,0,0,1,6.36,8.94l-2.4,3.18a60.91,60.91,0,0,0-4.92-7.68,32.3,32.3,0,0,1-8.28,14.82,12.31,12.31,0,0,0-2.76-2.82c6.9-6.66,8.4-15.54,8.76-22.67h-9.84v34.25h-4v-38h13.86v-8.63H533.78v-3.84h52.5v3.84H569.42Zm-3.9.35v-8.63h-11.4V2019Z"/><path d="M646.94,2037.22H622.1v14c0,3-1,4.2-3.06,4.86s-5.94.72-12.3.66a17.27,17.27,0,0,0-1.74-3.9c5.16.12,9.84.06,11.16.06s1.86-.48,1.86-1.74v-13.92H593.18v-3.9H618v-10.2H597.14v-3.83H618v-9.6c-6.66.66-13.56,1.14-19.8,1.44a16.18,16.18,0,0,0-1-3.54c14.16-.72,31.8-2.28,40.74-5.16l2.94,3.24a123.25,123.25,0,0,1-18.78,3.6v10h21.48v3.83H622.1v10.2h24.84Z"/><path d="M667,2024.62c2,2.05,7.68,8.59,8.94,10.2l-2.52,3.24a96.69,96.69,0,0,0-6.42-8.88v27.66h-3.78v-29.58c-2.4,7.2-5.7,14.22-9.06,18.42a27.23,27.23,0,0,0-2.16-3.6c4.2-5,8.52-14.63,10.74-23.09h-9.42v-3.72h9.9v-13H667v13h8.76V2019H667Zm38.16-18.71v50.45h-3.9v-3.48h-19v3.66H678.5v-50.63Zm-22.86,3.78v10.5h19v-10.5Zm0,25h19v-10.8h-19Zm19,14.58V2038.3h-19v10.92Z"/><path d="M744.56,2004a20.19,20.19,0,0,1-1.92,2.7c6.9,7.43,15.42,12.48,25.2,16.8a13,13,0,0,0-2.76,3.47c-9.48-4.55-17.64-9.71-24.72-17.39a68.15,68.15,0,0,1-14.46,12.35h29.22v3.72H725v-3.11a76.13,76.13,0,0,1-9.48,4.92,20.23,20.23,0,0,0-2.82-3.42c11.4-4.45,22.38-12.54,28.38-21.78ZM722,2033.14h36.78v23.52h-4.2v-3.24H726v3.48h-4Zm4,3.6v12.9h28.56v-12.9Z"/><path d="M802.7,2032.06s-.06,1.32-.12,1.86c-1.08,13.56-2.1,18.84-4.08,20.82-1.26,1.32-2.46,1.68-4.56,1.8a90.37,90.37,0,0,1-9.48-.18,8,8,0,0,0-1.44-4c4,.36,8,.36,9.48.36s2-.06,2.58-.6c1.5-1.2,2.4-5.7,3.3-16.32h-22.8c1.14-4.56,2.46-11.63,3.24-17.09H798.5v-10.08h-22v-3.78H802.4v17.58H782.3c-.6,3.3-1.2,6.71-1.86,9.65Zm18.36-29.15V2057h-4v-54.11Z"/><path d="M883.28,2010.23v33.29H879.2v-3.18H861.92v16.5h-4.14v-16.5H841v3.54h-4v-33.65h20.76v-7.92h4.14v7.92Zm-42.3,3.84v9.18h16.8v-9.18Zm16.8,22.49V2027H841v9.6Zm4.14-22.49v9.18H879.2v-9.18Zm17.28,22.49V2027H861.92v9.6Z"/><path d="M943.76,2016.77s-.06,1.56-.06,2.1c-1,24.11-1.86,32.51-4.2,35.27a6,6,0,0,1-4.68,2.22c-2,.12-5.88,0-9.48-.18A10,10,0,0,0,924,2052a91.18,91.18,0,0,0,9.3.42c1.26,0,2-.12,2.58-.9,1.86-1.8,2.82-9.9,3.66-30.83H918.44c-1.38,11.69-6.24,25.07-21.84,35.45a14.36,14.36,0,0,0-3.12-2.88c14.7-9.6,19.44-21.78,20.88-32.57H895.22v-4h19.56c.18-2.65.24-5.16.24-7.44v-6.9h4v7c0,2.28-.06,4.8-.24,7.38Zm-37.2-2.22a49.8,49.8,0,0,0-6.42-9l3.42-1.56a50.25,50.25,0,0,1,6.6,8.82Zm21.9,27.35a69.41,69.41,0,0,0-8.28-11.88l3.18-1.61a65.09,65.09,0,0,1,8.58,11.51Z"/><path d="M1004.18,2036.86a100.08,100.08,0,0,1-14.46,7.56,50.66,50.66,0,0,0,18.48,6.78,12.25,12.25,0,0,0-2.4,3.36c-9.42-2-18.06-6.24-23.76-12.24v15.36h-4V2046.4c-6.36,3.42-15.24,6.48-22.44,8.4a33.94,33.94,0,0,0-3.42-3c8-1.74,17-4.56,22.68-7.68l3.18,1.62v-11.4c-6.66.6-13.26,1.08-19.08,1.38a19.61,19.61,0,0,0-2.1-3.54c13.2-.12,30.78-1.5,40.92-3.42l2.82,2.53c-5.22,1.07-11.7,2-18.6,2.69v3.3a26.81,26.81,0,0,0,4.92,5.22,95.78,95.78,0,0,0,14-7.74Zm-51.54-10.61c1.68-.13,3.66-.3,5.7-.54V2008h-4.68v-3.12h28.2V2008H978v15.77l3.72-.42V2026a37,37,0,0,0,10-5.58c-3.24-1.87-6.6-3.79-9.66-5.22l2.34-2.4c3.18,1.5,6.72,3.36,10.08,5.28a29.18,29.18,0,0,0,5.58-7.38H982.52v-3.3h19.32l.66-.18,2.4,1.14a31.29,31.29,0,0,1-7.38,11.57A81.71,81.71,0,0,1,1006,2026l-2.58,2.69a80.4,80.4,0,0,0-8.64-6.3,42.11,42.11,0,0,1-12.36,7,11.73,11.73,0,0,0-2.22-2.88l.6-.17-2.88.35v3.54h-3.6V2027c-7.8.9-15.48,1.74-21.24,2.4Zm24.66,12.89a159.62,159.62,0,0,1-21.18,6,28.62,28.62,0,0,0-3.12-2.88,129.19,129.19,0,0,0,20.82-5ZM962,2008v3.66h12.36V2008Zm0,10.08h12.36v-3.78H962Zm0,7.38c3.84-.37,8-.84,12.36-1.26v-3.48H962Z"/><path d="M1045.7,2042.32c5.76,4.44,14.52,8.34,22.14,10.26a14.62,14.62,0,0,0-2.58,3.18c-7.92-2.28-17.28-7-23.4-12.24V2057h-4V2043.7c-6.12,5.4-15.36,10.14-23.22,12.6a17.6,17.6,0,0,0-2.64-3.36c7.5-2,16.38-6.06,22.14-10.62h-20.82V2039h24.54v-4.14h4V2039h24.72v3.36Zm-25.14-25.74a50.89,50.89,0,0,1-5.58,5.29,14.29,14.29,0,0,0-2.88-2.53,51.63,51.63,0,0,0,13.92-17.09l4.14.78a63.06,63.06,0,0,1-3.54,5.82H1041a42,42,0,0,0-2.94-5.64l3.54-1a40.08,40.08,0,0,1,3.54,6.66h17.76v3.3h-19.5v4.26h17.1v2.93h-17.1v4.2h17.34v3h-17.34v4.43h21.54v3.25h-40.38V2036h-4Zm19-4.43h-15v4.26h15Zm0,7.19h-15v4.2h15Zm0,7.15h-15v4.43h15Z"/><path d="M1091.36,2046.88a9,9,0,1,1-9.06-9A9,9,0,0,1,1091.36,2046.88Zm-2.82,0a6.21,6.21,0,1,0-6.24,6.24A6.22,6.22,0,0,0,1088.54,2046.88Z"/><line class="cls-3" x1="621" y1="351" x2="621" y2="351"/><rect class="cls-2" x="1115" y="1246" width="65" height="271" rx="12"/><path class="cls-1" d="M1160.05,1285.79a27.61,27.61,0,0,0,11.5,8.1,11.65,11.65,0,0,0-2.15,2.55,30.77,30.77,0,0,1-12.8-10.65h-15.95a34.39,34.39,0,0,1-13,11.3,11.43,11.43,0,0,0-2.15-2.55,30.39,30.39,0,0,0,11.6-8.75H1126v-2.85h10v-16.15h-7.7V1264h7.7v-5h3.3v5h18.55v-5h3.35v5h7.65v2.8h-7.65v16.15h9.8v2.85Zm-10,14.5h17.3v2.85H1129.8v-2.85h16.9v-5.6h-10.45v-2.8h10.45v-4.4h3.35v4.4h10.65v2.8h-10.65Zm-10.8-33.5v3.6h18.55v-3.6Zm0,9.8h18.55v-3.65h-18.55Zm0,6.35h18.55v-3.8h-18.55Z"/><path class="cls-1" d="M1144.25,1327.54s0,1.15,0,1.55c-.6,15.85-1.2,21.2-2.6,23a3.71,3.71,0,0,1-2.8,1.45,32.65,32.65,0,0,1-4.45,0,9.25,9.25,0,0,0-.85-3c1.75.15,3.2.15,3.9.15a1.42,1.42,0,0,0,1.45-.65c1-1.2,1.6-6,2.15-19.35h-6.8c-.55,10-2,18.25-6.45,23.65a9.53,9.53,0,0,0-2.55-2.35c5.45-6.45,5.9-17.85,6.1-31.55h-5.2v-3.1h20.1v3.1h-11.65c0,2.45-.1,4.85-.2,7.15Zm-7.9-10.45a33.47,33.47,0,0,0-4.25-7.15l2.9-1.15a31.92,31.92,0,0,1,4.4,7Zm23.85-7.45a15.26,15.26,0,0,1-.85,2.55c2.65,5.45,7.7,11.35,12.45,14a13,13,0,0,0-2.45,2.75c-4.25-2.7-8.5-8-11.4-13.3a32.61,32.61,0,0,1-11,13.6,12.79,12.79,0,0,0-2.35-2.65c5.85-3.6,10.35-10.2,12.5-17.85Zm-8.3,32.45a74,74,0,0,1,13.6,8.25l-2.25,2.9c-2.85-2.6-8.75-6.3-13.4-8.65Zm9.5-4.85a66.22,66.22,0,0,0-8.6-6.85l2.15-2.2a67.46,67.46,0,0,1,8.75,6.55Z"/><path class="cls-1" d="M1167,1362.19v29.3h-3.5v-2.55h-13.3v15.6h-3.45v-15.6h-13.4v2.75H1130v-29.5Zm-33.65,3.2V1374h13.4v-8.65Zm13.4,20.35v-8.5h-13.4v8.5Zm16.75-20.35h-13.3V1374h13.3Zm0,20.35v-8.5h-13.3v8.5Z"/><path class="cls-1" d="M1169.25,1424.09v9.3h-3.15V1427h-35.4v6.4h-3v-9.3h6.95v-12.95h27.7v12.95Zm-6.45,26.6c0,1.85-.45,2.7-1.85,3.2s-3.9.5-7.7.45a8.57,8.57,0,0,0-1.1-2.75c3,.05,5.65.05,6.4.05s1-.25,1-1v-6.2c-7.3,1.45-14.85,3-20.45,4l-1.1-3c5.4-.8,13.6-2.3,21.55-3.75V1433h-22.2v5.3c0,4.85-.65,11.55-4.35,16.2a13.29,13.29,0,0,0-2.7-2c3.45-4.25,3.85-10,3.85-14.25v-8h28.6Zm-25-26.6h7.45v-6.9H1159v-3.35h-21.2Zm2.45,11.7a75.14,75.14,0,0,1,17.7,3l-.9,2.6c-4-1.5-11.7-2.9-17.7-3.35Zm18.75-16.3h-10.75v4.6H1159Z"/><path class="cls-1" d="M1163,1471.09a51.83,51.83,0,0,1-12,19.6,49.94,49.94,0,0,0,20.5,10.5,16.79,16.79,0,0,0-2.25,3,50.92,50.92,0,0,1-20.75-11.1c-5.65,5-12.55,8.6-21,11.3a15.53,15.53,0,0,0-2-3.05c8.35-2.45,15.1-5.9,20.6-10.6a57.05,57.05,0,0,1-12.2-19.65h-7.75v-3.25h44.75v3.25Zm-25.75,0a52.13,52.13,0,0,0,11.3,17.3,47.46,47.46,0,0,0,10.7-17.3Zm11.25-3.55a38.13,38.13,0,0,0-3.8-7.8l3.4-1a39,39,0,0,1,4,7.65Z"/><path d="M674.43,1140.14a383.79,383.79,0,0,1,69.81-38.59l-6.69,2.82c26.73-11.21,55-19.63,83.73-23.5l-7.45,1c19.89-2.63,40.22-3.31,60.14-.67l-7.44-1a121.33,121.33,0,0,1,30.68,8l-6.69-2.82a73.16,73.16,0,0,1,16,9.22l-5.67-4.38a57.2,57.2,0,0,1,9.84,9.89l-4.38-5.66a94.21,94.21,0,0,1,11.88,20.35l-2.82-6.69a115.16,115.16,0,0,1,7.78,29.18l-1-7.44c2.07,15.64,1.48,31.5-.59,47.11l1-7.44c-3.45,25.51-10.72,50.41-19.7,74.49q-3.87,10.35-8.17,20.53l2.82-6.68a661.07,661.07,0,0,1-50.34,96.51q-10.86,17.15-23.26,33.27l4.38-5.67a401.34,401.34,0,0,1-55.48,58.63q-8.34,7.18-17,13.91l5.66-4.38c-29.47,22.73-61.81,41.36-95.2,57.69-9.56,4.68-19.21,9.17-28.91,13.56-6,2.71-11.19,10.64-12.86,16.73-1.85,6.7-1,15.63,2.82,21.58s9.59,11.24,16.73,12.86l7.45,1a27.85,27.85,0,0,0,14.13-3.82C693,1557.31,720,1544,745.77,1528.38a477.9,477.9,0,0,0,76.62-57.14c25.22-23.25,47.3-49.94,66.41-78.39,14.65-21.8,27.5-44.89,39.27-68.35,13.56-27,25.73-55,35.1-83.8a345.18,345.18,0,0,0,10.94-41.62c3-15.49,5.12-31.36,5.29-47.15a169,169,0,0,0-5.25-44.57,146,146,0,0,0-8.66-23.16,92.65,92.65,0,0,0-9.16-15.78,120,120,0,0,0-9.71-12.2,97.25,97.25,0,0,0-11.88-10,75.06,75.06,0,0,0-16-9.22,140.76,140.76,0,0,0-24.79-8.54,211.75,211.75,0,0,0-27.43-4.08c-29.48-2.68-59.81,1-88.5,7.85a389.7,389.7,0,0,0-108.42,44.41q-12,7.15-23.47,15.16c-6.08,4.23-10.85,9.39-12.87,16.73-1.85,6.7-1,15.63,2.82,21.57s9.59,11.25,16.73,12.87,15.45,1.45,21.58-2.82Z"/><path d="M661.93,1348.57a510,510,0,0,1,89-25.34q12.86-2.42,25.81-4.16l-7.44,1q14.34-1.9,28.76-3c9-.67,18-1.06,26.93.07l-7.44-1a61.69,61.69,0,0,1,15,3.92l-6.69-2.82a53.52,53.52,0,0,1,11.68,6.86l-5.67-4.38a65.69,65.69,0,0,1,11,11.17l-4.38-5.67a110.93,110.93,0,0,1,13.91,24.66l-2.82-6.69c7.47,17.77,12.42,36.63,17.21,55.26q8.49,33,14.35,66.69,3.24,18.55,5.74,37.25l-1-7.45c3.83,28.59,6.41,57.33,8,86.12s2.21,57.62,2.2,86.44q0,24.54-.58,49.07a28.66,28.66,0,0,0,8.2,19.79c4.86,4.86,12.83,8.52,19.8,8.21,7.24-.33,14.75-2.71,19.8-8.21a29.55,29.55,0,0,0,8.2-19.79c.94-43.69.88-87.41-1.38-131.06a1119.16,1119.16,0,0,0-15.27-136.88q-5.86-33.19-14.27-65.89c-4.69-18.15-9.54-36.5-16.75-53.85-4.08-9.8-8.27-19.55-14.34-28.33a121,121,0,0,0-11.61-14.61A96.33,96.33,0,0,0,864,1274.36c-5.27-3.75-11.21-6.22-17.22-8.59a62.79,62.79,0,0,0-14.36-3.64,138.59,138.59,0,0,0-21.61-1.71c-5.06.07-10.12.42-15.16.83A531.76,531.76,0,0,0,662.3,1289q-7.68,2.67-15.25,5.61a20.91,20.91,0,0,0-9.52,5,21.14,21.14,0,0,0-7.22,7.85c-3.51,6-5,14.85-2.82,21.58s6.39,13.31,12.87,16.73c6.28,3.32,14.65,5.49,21.57,2.83Z"/><path d="M562.82,1091.79a400,400,0,0,0-106.38-52.46c-30.18-9.66-62.07-15.56-93.81-15.77a209.21,209.21,0,0,0-48.25,5,140.23,140.23,0,0,0-24.73,8.64c-7.81,3.41-14.4,8.08-21.08,13.36-6.48,5.13-11.45,11.59-16.25,18.29a91.87,91.87,0,0,0-9,15.83,147.22,147.22,0,0,0-8.59,23.2,184,184,0,0,0-3.77,64.58,332.45,332.45,0,0,0,9,48.21c7.93,29.72,19.59,58.46,32.57,86.29a723.5,723.5,0,0,0,34.07,64.25,458.85,458.85,0,0,0,64.16,84.46c22.38,23.11,47.73,43.46,74.51,61.25,24.79,16.47,51.08,30.55,77.92,43.33q10.13,4.82,20.34,9.42a20.85,20.85,0,0,0,10.41,3.32,21.12,21.12,0,0,0,11.17-.5c6.49-1.79,13.53-6.81,16.73-12.86,3.44-6.5,5.16-14.38,2.83-21.58-2.11-6.52-6.36-13.79-12.87-16.73-34.11-15.41-67.65-32.35-98.84-53.13q-12.94-8.62-25.27-18.12l5.66,4.38a402.52,402.52,0,0,1-57.41-54.08q-7.83-9-15.12-18.46l4.38,5.67c-23.68-30.75-43-64.84-59.95-99.71q-7.21-14.87-13.65-30.07l2.82,6.68c-10.05-23.89-18.65-48.51-24.14-73.88-1.51-7-2.77-14.05-3.73-21.14l1,7.44c-2.07-15.61-2.66-31.47-.59-47.11l-1,7.44a114.76,114.76,0,0,1,7.79-29.18l-2.83,6.69a94.21,94.21,0,0,1,11.88-20.35l-4.38,5.66a57.56,57.56,0,0,1,9.84-9.89l-5.67,4.38a73.16,73.16,0,0,1,16-9.22l-6.68,2.82a121.25,121.25,0,0,1,30.67-8l-7.44,1c19.92-2.64,40.25-2,60.14.67l-7.45-1c28.77,3.87,57,12.29,83.73,23.5l-6.69-2.82a383.79,383.79,0,0,1,69.81,38.59c5.69,4,15.12,4.6,21.58,2.82s13.53-6.81,16.73-12.87c3.44-6.49,5.16-14.37,2.82-21.57l-2.82-6.69a28.08,28.08,0,0,0-10-10Z"/><path d="M561.93,1294.57c-42.68-16.45-87.15-26.65-132.57-31.78-10.45-1.18-21-2.25-31.53-2.38a137.4,137.4,0,0,0-22,1.82,62.63,62.63,0,0,0-14.31,3.82c-6,2.42-11.79,4.85-17,8.65a96.52,96.52,0,0,0-13.85,11.66,113.66,113.66,0,0,0-17.66,25c-9.2,17.64-15.16,36.8-20.48,55.89q-9,32.28-15.41,65.19a1074.23,1074.23,0,0,0-17.36,136.93c-2.81,43.55-3.3,87.22-2.62,130.84q.12,8.21.3,16.4a29.15,29.15,0,0,0,8.2,19.79c4.86,4.86,12.82,8.52,19.8,8.21,7.24-.33,14.75-2.71,19.8-8.21s8.36-12.27,8.2-19.79c-.62-29-.81-57.93-.2-86.89.6-28.78,2-57.54,4.48-86.22q2.12-24.32,5.34-48.52l-1,7.45a873.92,873.92,0,0,1,27.57-131.13,269.84,269.84,0,0,1,9.73-28.07l-2.82,6.69a111.33,111.33,0,0,1,13.91-24.66l-4.38,5.67a65.69,65.69,0,0,1,11-11.17l-5.66,4.38a53.22,53.22,0,0,1,11.67-6.86l-6.69,2.82a61.65,61.65,0,0,1,15.06-3.92l-7.45,1c8.95-1.13,18-.74,26.93-.07q14.43,1.08,28.76,3l-7.44-1a507.45,507.45,0,0,1,89.91,20.63q12.54,4.11,24.85,8.87a21.3,21.3,0,0,0,11.16.5,20.79,20.79,0,0,0,10.41-3.33c5.81-3.39,11.35-10,12.87-16.73,1.63-7.17,1.28-15.21-2.82-21.58l-4.38-5.66a27.93,27.93,0,0,0-12.36-7.2Z"/></svg>