<svg id="Layer_1" data-name="Layer 1" xmlns="http://www.w3.org/2000/svg" viewBox="0 0 1242 2208"><defs><style>.cls-1{fill:#f6eabe;}.cls-2{fill:#999;}</style></defs><rect class="cls-1" width="1242" height="2208"/><path d="M913.25,791.84c24.61,0,27.79-30.17,31-150.86,14.3,11.91,34.94,21.44,50,24.62-5.56,132.6-17.47,177.85-77.82,177.85H825.91c-57.17,0-74.63-19.85-74.63-91.31V237.64H492.43V427.4c0,136.57-23,319.19-181.82,435.9-7.94-11.91-27.79-32.55-39.7-40.49,150.86-109.57,166.74-268.37,166.74-396.2V186H805.27V752.94c0,32.55,4.76,38.9,28.58,38.9Z"/><path d="M391.92,1891.69a98.85,98.85,0,0,1-6.18,13.56v39.59H381.9v-33.35a61.73,61.73,0,0,1-5.46,7,32.86,32.86,0,0,0-2.28-3.9c5.58-5.87,10.8-14.87,14-24Zm34.2,29.21c-2,1.38-4.44,2.7-6.84,4,2,5.82,5.82,11.16,10.62,13.62a15.86,15.86,0,0,0-2.64,3.06c-4.92-3-8.76-8.76-10.86-15.3-1,.54-2.1,1-3.12,1.5,2.1,6.3,1.26,12.72-1.38,15.24a6.51,6.51,0,0,1-5,1.92c-1,0-2.4-.06-3.72-.12a9.47,9.47,0,0,0-1-3.48,34.56,34.56,0,0,0,4,.24,3.38,3.38,0,0,0,3-1.14c1.44-1.32,2.1-4.86,1.44-8.94a58.72,58.72,0,0,1-19.5,11.4,11.72,11.72,0,0,0-2.34-2.82c7.44-2.22,16.26-7,21.12-11.82a24.37,24.37,0,0,0-1.62-3.66,57.71,57.71,0,0,1-16.74,9.66,16.14,16.14,0,0,0-2.22-2.64c5.82-1.74,13.38-5.58,17.52-9.3a16.53,16.53,0,0,0-2.82-3,39.59,39.59,0,0,1-12.3,6.17,14.66,14.66,0,0,0-2.28-2.58c6.54-2.1,10.86-4.62,13.68-7.25h-9.54v-9.36c-1.08,1-2.22,1.92-3.42,2.88a9.62,9.62,0,0,0-2.64-2.52,45.51,45.51,0,0,0,13.92-16.26l3.84.72a35.7,35.7,0,0,1-2,3.54h11.1l.78-.18,2.34,1.68a52.13,52.13,0,0,1-4.8,6.84h13v12.66H407.7a16.53,16.53,0,0,1-1.38,1.62,22.17,22.17,0,0,1,6,7.85,118.29,118.29,0,0,0,11.1-6.66Zm-25-23.09a54.58,54.58,0,0,1-4.2,5.16h11.58a33.35,33.35,0,0,0,3.72-5.16Zm-4,14.69h8.64a15.14,15.14,0,0,0,2.46-6.42h-11.1Zm24.72-6.42H411.6a18.56,18.56,0,0,1-1.8,6.42h12.06Z"/><path d="M483.48,1939.74c1.86,0,2.1-2.28,2.34-11.4a9.66,9.66,0,0,0,3.78,1.86c-.42,10-1.32,13.44-5.88,13.44h-6.84c-4.32,0-5.64-1.5-5.64-6.9v-38.87H451.68v14.34c0,10.31-1.74,24.11-13.74,32.93a14.51,14.51,0,0,0-3-3.06c11.4-8.28,12.6-20.28,12.6-29.93V1894h27.78v42.83c0,2.46.36,2.94,2.16,2.94Z"/><path d="M527.46,1930.08c5.46,4.86,14.4,9.06,22.56,10.86a16.59,16.59,0,0,0-2.52,3.3c-8.52-2.28-18-7.32-23.64-13.26v14h-4v-13.68c-5.58,5.76-14.7,10.56-23,12.84a20.51,20.51,0,0,0-2.46-3.18c8-1.8,16.92-6.06,22.2-10.86H495.36v-3.42H519.9v-5.1h4v5.1h24.9v3.42Zm15.9-6.3A157.17,157.17,0,0,0,524,1918.5c-6.78,2.82-15.66,4.26-26.7,5a8.91,8.91,0,0,0-1.5-3.24c8.7-.47,16-1.44,21.9-3.12q-6.75-1.34-14-2.39c2-1.87,4.38-4.14,6.54-6.54H496.08v-3.36h17.1a51.81,51.81,0,0,0,4.2-5.52l3.6,1.14c-1,1.38-2.22,2.94-3.48,4.38h30.66v3.36H536.64a22.84,22.84,0,0,1-8.1,8,181.17,181.17,0,0,1,18.18,4.8Zm-42.6-20.33H497v-8.52H520.5c-.72-1.26-1.62-2.58-2.28-3.66l3.3-1.2c1,1.44,2.34,3.36,3.18,4.86h22.62v8.52h-3.9v-5.1H500.76Zm13.74,4.8c-1.56,1.62-3.06,3.17-4.56,4.55,4.56.66,9.06,1.45,13.44,2.34a21.63,21.63,0,0,0,8.82-6.89Z"/><path d="M608.76,1938.42v3.9h-53.4v-3.9h8.28V1910h4.08v28.43H581.4v-39.71H557.64v-3.84h49.14v3.84H585.54v16.5h19v3.89h-19v19.32Z"/><path d="M633.72,1927c-1.2-1.86-4-5.39-6.12-8.16V1945h-3.78v-23.88a50,50,0,0,1-7.26,6.72,13.15,13.15,0,0,0-1.92-3.78c6.24-4.26,12.72-11.94,16.32-19.67H616.08v-3.66h16.8l.72-.18,2.16,1.5a56.56,56.56,0,0,1-7.08,13.13c2.22,2.4,6.48,7.38,7.62,8.7Zm-6.48-26.93a38,38,0,0,0-5.58-7.8l3-1.8a31.39,31.39,0,0,1,5.82,7.5ZM663.48,1941c2.16,0,2.46-1.56,2.76-10.26a10.19,10.19,0,0,0,3.36,1.62c-.54,9.36-1.2,11.7-6.18,11.7h-5.7c-3.9,0-5.46-1-5.46-4.74v-12.6c-2.22,6.78-6.84,13.38-16.26,18.36a11,11,0,0,0-2.52-3c15-7.8,16.86-19.14,16.86-28.44v-12.06h3.84v12.18a43.59,43.59,0,0,1-1.08,10.14H656v15c0,1.68.48,2.1,2.22,2.1Zm-20.4-16h-3.84v-31.73h26.82V1925h-4v-28.19h-19Z"/><path d="M691,1891c-1,2.94-2.1,6.3-3.18,8.88H698v38.75h-16.8v4.8h-3.66v-43.55h6.66a64.68,64.68,0,0,0,2.58-9.72Zm3.3,12.47H681.18v13.08h13.14Zm0,31.56v-14.88H681.18v14.88Zm33.06-33.17c-1,27.53-1.8,36.71-4.2,39.59a5.6,5.6,0,0,1-4.56,2.28,74.94,74.94,0,0,1-8.82-.12,9.42,9.42,0,0,0-1.32-3.9c3.9.36,7.5.36,8.82.36s1.92-.12,2.52-.9c2-2.1,2.94-11.34,3.72-35.7H707.82a55.33,55.33,0,0,1-5.64,10.68,36.22,36.22,0,0,0-3.36-2.22c4.08-5.33,7.32-13.61,9.18-21.89l3.84.84c-.78,3-1.62,6-2.64,8.88h18.18Zm-12.78,27a106.51,106.51,0,0,0-9.3-13.92l3.06-1.79a102.47,102.47,0,0,1,9.6,13.61Z"/><path d="M751.62,1922a93.22,93.22,0,0,0-4.44-8.76v31.68h-3.84v-28.8c-1.92,6.48-4.44,12.6-7,16.44a19.8,19.8,0,0,0-2.16-3.78c3.66-5,7.38-14.81,9.12-23.09H735.6v-3.78h7.74v-11.58h3.84v11.58h6.42v3.78h-6.42v2.52c1.56,2.15,6,9.06,7,10.79Zm36.9,8.58H773.46V1945h-4v-14.4H753.6v-3.78h15.9v-8.87H757.8v-3.73h11.7v-8.64H755.94v-3.71h19.68a62,62,0,0,0,5.82-11.64l4,1.44c-1.68,3.36-3.72,7.2-5.52,10.2h7.32v3.71h-13.8v8.64h11.88v3.73H773.46v8.87h15.06Zm-24.84-29a47.35,47.35,0,0,0-5.1-9.59l3.42-1.38a45.1,45.1,0,0,1,5.34,9.42Z"/><path d="M848.94,1921H824.22v18.6c0,2.82-.72,4-2.88,4.68s-5.94.78-11.7.78a17.7,17.7,0,0,0-1.8-4.14c5,.18,9.36.18,10.68.12s1.62-.42,1.62-1.5V1921h-25v-4h25v-8.75a74.47,74.47,0,0,0,15.72-9.84H801.18v-3.9h39l.84-.24,3,2.28a90,90,0,0,1-19.8,13.79V1917h24.72Z"/><path d="M856,1943.7c4.68-2,7.26-4.92,7.56-9.18a7.35,7.35,0,0,1-1.14.12c-2.34,0-4.26-1.38-4.26-4.08a4,4,0,0,1,4.32-4.14c3.18,0,4.86,2.64,4.86,6.66,0,6.48-4,11.28-10.08,13.44Z"/><path d="M413.76,2010.18v4H360.3v-4h22.62v-46.85h4.14v18.54h22.62v4H387.06v24.3Z"/><path d="M436.92,1963.69a98.85,98.85,0,0,1-6.18,13.56v39.59H426.9v-33.35a61.73,61.73,0,0,1-5.46,7,32.86,32.86,0,0,0-2.28-3.9c5.58-5.87,10.8-14.87,14-24Zm34.2,29.21c-2,1.38-4.44,2.7-6.84,4,2,5.82,5.82,11.16,10.62,13.62a15.86,15.86,0,0,0-2.64,3.06c-4.92-3-8.76-8.76-10.86-15.3-1,.54-2.1,1-3.12,1.5,2.1,6.3,1.26,12.72-1.38,15.24a6.51,6.51,0,0,1-5,1.92c-1,0-2.4-.06-3.72-.12a9.47,9.47,0,0,0-1-3.48,34.56,34.56,0,0,0,4,.24,3.38,3.38,0,0,0,3-1.14c1.44-1.32,2.1-4.86,1.44-8.94a58.72,58.72,0,0,1-19.5,11.4,11.72,11.72,0,0,0-2.34-2.82c7.44-2.22,16.26-7,21.12-11.82a24.37,24.37,0,0,0-1.62-3.66,57.71,57.71,0,0,1-16.74,9.66,16.14,16.14,0,0,0-2.22-2.64c5.82-1.74,13.38-5.58,17.52-9.3a16.53,16.53,0,0,0-2.82-3,39.59,39.59,0,0,1-12.3,6.17,14.66,14.66,0,0,0-2.28-2.58c6.54-2.1,10.86-4.62,13.68-7.25h-9.54v-9.36c-1.08,1-2.22,1.92-3.42,2.88a9.62,9.62,0,0,0-2.64-2.52,45.51,45.51,0,0,0,13.92-16.26l3.84.72a35.7,35.7,0,0,1-2,3.54h11.1l.78-.18,2.34,1.68a52.13,52.13,0,0,1-4.8,6.84h13v12.66H452.7a16.53,16.53,0,0,1-1.38,1.62,22.17,22.17,0,0,1,6,7.85,118.29,118.29,0,0,0,11.1-6.66Zm-25-23.09a54.58,54.58,0,0,1-4.2,5.16h11.58a33.35,33.35,0,0,0,3.72-5.16Zm-4,14.69h8.64a15.14,15.14,0,0,0,2.46-6.42h-11.1Zm24.72-6.42H456.6a18.56,18.56,0,0,1-1.8,6.42h12.06Z"/><path d="M528.48,2011.74c1.86,0,2.1-2.28,2.34-11.4a9.66,9.66,0,0,0,3.78,1.86c-.42,10-1.32,13.44-5.88,13.44h-6.84c-4.32,0-5.64-1.5-5.64-6.9v-38.87H496.68v14.34c0,10.31-1.74,24.11-13.74,32.93a14.51,14.51,0,0,0-3-3.06c11.4-8.28,12.6-20.28,12.6-29.93V1966h27.78v42.83c0,2.46.36,2.94,2.16,2.94Z"/><path d="M568.62,1970.23c-.72,2.64-1.62,5.52-2.46,7.92h24.3V2017h-4v-3.18H547.38V2017h-3.9v-38.87h18.6a80.35,80.35,0,0,0,1.92-7.92H540.78v-3.78H593.4v3.78Zm-21.24,39.89h9v-28.25h-9Zm26-28.25H560v7h13.32Zm0,10.31H560v7.2h13.32ZM560,2010.12h13.32v-7.44H560Zm26.4-28.25H577v28.25h9.42Z"/><path d="M601,2015.7c4.68-2,7.26-4.92,7.56-9.18a7.35,7.35,0,0,1-1.14.12c-2.34,0-4.26-1.38-4.26-4.08a4,4,0,0,1,4.32-4.14c3.18,0,4.86,2.64,4.86,6.66,0,6.48-4,11.28-10.08,13.44Z"/><path d="M666.42,1978.69v.35h14.34v32.64c0,2.7-.6,4-2.58,4.68s-5.64.66-11,.66a15.22,15.22,0,0,0-1.38-4c4.38.18,8.4.12,9.6.06s1.44-.36,1.44-1.44v-28.79H666.3a43,43,0,0,1-.6,6.05c3.84,4.5,8.1,10.08,10,13.56l-2.4,3a87.56,87.56,0,0,0-8.46-12.18,32.38,32.38,0,0,1-8.34,15.06,11.45,11.45,0,0,0-2.82-2.82c7-6.66,8.46-15.54,8.82-22.67H651a58.92,58.92,0,0,1-.6,6.23,62.5,62.5,0,0,1,6.36,8.94l-2.4,3.18a60.91,60.91,0,0,0-4.92-7.68,32.3,32.3,0,0,1-8.28,14.82,12.31,12.31,0,0,0-2.76-2.82c6.9-6.66,8.4-15.54,8.76-22.67h-9.84v34.25h-4v-38h13.86v-8.63H630.78v-3.84h52.5v3.84H666.42Zm-3.9.35v-8.63h-11.4V1979Z"/><path d="M703.26,1963.27a117.62,117.62,0,0,1-4.08,12v41.57h-3.42v-34.08a69.4,69.4,0,0,1-4.74,8,22,22,0,0,0-2.16-3.73c4.62-6.11,8.46-15.35,10.86-24.59Zm13.08,30.23c0,8-1.56,17.52-11.28,23.52a10.07,10.07,0,0,0-2.1-2.4c9.12-5.64,10.2-13.86,10.2-21.18v-19.86h3.18Zm-8.22,9.6h-3.3v-36.89h20V2003h-3.42v-33.77H708.12Zm10.2,1.5a87.57,87.57,0,0,1,7.86,9.78l-2.64,2a63.57,63.57,0,0,0-7.68-10.14Zm14.82-1H729.9v-35.51h3.24Zm8.94-40.79v49.37c0,2.28-.54,3.36-1.92,3.9s-3.72.72-7.8.72a16.5,16.5,0,0,0-1.08-3.48c3,.12,5.52.06,6.24.06s1.2-.3,1.2-1.2v-49.37Z"/><path d="M766.92,1963.69a98.85,98.85,0,0,1-6.18,13.56v39.59H756.9v-33.35a61.73,61.73,0,0,1-5.46,7,32.86,32.86,0,0,0-2.28-3.9c5.58-5.87,10.8-14.87,14-24Zm34.2,29.21c-2,1.38-4.44,2.7-6.84,4,2,5.82,5.82,11.16,10.62,13.62a15.86,15.86,0,0,0-2.64,3.06c-4.92-3-8.76-8.76-10.86-15.3-1,.54-2.1,1-3.12,1.5,2.1,6.3,1.26,12.72-1.38,15.24a6.51,6.51,0,0,1-5,1.92c-1,0-2.4-.06-3.72-.12a9.47,9.47,0,0,0-1-3.48,34.56,34.56,0,0,0,4,.24,3.38,3.38,0,0,0,3-1.14c1.44-1.32,2.1-4.86,1.44-8.94a58.72,58.72,0,0,1-19.5,11.4,11.72,11.72,0,0,0-2.34-2.82c7.44-2.22,16.26-7,21.12-11.82a24.37,24.37,0,0,0-1.62-3.66,57.71,57.71,0,0,1-16.74,9.66,16.14,16.14,0,0,0-2.22-2.64c5.82-1.74,13.38-5.58,17.52-9.3a16.53,16.53,0,0,0-2.82-3,39.59,39.59,0,0,1-12.3,6.17,14.66,14.66,0,0,0-2.28-2.58c6.54-2.1,10.86-4.62,13.68-7.25h-9.54v-9.36c-1.08,1-2.22,1.92-3.42,2.88a9.62,9.62,0,0,0-2.64-2.52,45.51,45.51,0,0,0,13.92-16.26l3.84.72a35.7,35.7,0,0,1-2,3.54h11.1l.78-.18,2.34,1.68a52.13,52.13,0,0,1-4.8,6.84h13v12.66H782.7a16.53,16.53,0,0,1-1.38,1.62,22.17,22.17,0,0,1,6,7.85,118.29,118.29,0,0,0,11.1-6.66Zm-25-23.09a54.58,54.58,0,0,1-4.2,5.16h11.58a33.35,33.35,0,0,0,3.72-5.16Zm-4,14.69h8.64a15.14,15.14,0,0,0,2.46-6.42h-11.1Zm24.72-6.42H786.6a18.56,18.56,0,0,1-1.8,6.42h12.06Z"/><path d="M826.38,2012.1c0,2-.42,3.06-1.68,3.72s-3.12.72-6.42.66a13.62,13.62,0,0,0-1.08-3.48c2.34.06,4.32.06,4.92,0s.9-.18.9-1v-15.36h-7.56c-.42,7-1.38,14.52-3.54,20.28a11.35,11.35,0,0,0-2.88-1.68c3.18-8.52,3.42-20.52,3.42-29.28v-21.47h13.92ZM823,1993v-10.67h-7.26V1986c0,2.15,0,4.55-.12,7Zm-7.26-24.77v10.44H823v-10.44Zm26.52,26.51a68.55,68.55,0,0,1,4.44,15.48l-2.94,1.08a35.09,35.09,0,0,0-.66-3.72c-10.92,2-12.6,2.4-13.56,3a19.1,19.1,0,0,0-1.2-3.36c.84-.18,1.56-1.62,2.34-3.6a79.57,79.57,0,0,0,4-13.79h-6.48V1986h7.68v-9.66h-6.6v-3.78h6.6v-9.9h3.36v9.9h6.36v3.78h-6.36V1986h7.38v3.84h-8.34a100,100,0,0,1-5.16,16.13l9.3-1.44a80,80,0,0,0-2.88-9.06Zm20.22,7.74c0,2-.36,3.12-1.68,3.78s-3.24.78-6.06.78a16.45,16.45,0,0,0-1.26-3.78c2.22.06,4.14.06,4.74.06s.72-.24.72-.9v-32.75h-6.78V2017h-3.54v-51.17H862.5Z"/><path d="M888.36,2006.88a9,9,0,1,1-9.06-9A9,9,0,0,1,888.36,2006.88Zm-2.82,0a6.21,6.21,0,1,0-6.24,6.24A6.22,6.22,0,0,0,885.54,2006.88Z"/><rect class="cls-2" x="1113" y="445" width="65" height="126" rx="12"/><path class="cls-1" d="M1132.7,474.82c1.25,1.6,4.9,6.7,5.7,8.05l-2,2.45c-.7-1.5-2.35-4.4-3.75-6.65V505h-3.15V480.57c-1.5,5.05-3.5,9.9-5.55,12.85a14.83,14.83,0,0,0-1.75-3.1c2.9-4,5.8-11.5,7.2-18h-6.2v-3.15h6.3v-9.65h3.15v9.65h5.45v3.15h-5.45Zm19.1.7a19.47,19.47,0,0,0,.45,2.65c-10.15,2.7-11.6,3.15-12.5,3.75a12.13,12.13,0,0,0-1.1-3.2c.7-.2,1.55-.5,1.55-2.2v-16.7h3.25v6.5h8.35v2.9h-8.35v8.3Zm2.35,5.5-2,3.75h12.65V505h-3.4v-1.75h-17v2h-3.3V484.77h7.9c.55-1.5,1.2-3.25,1.55-4.6Zm7.3,6.5h-17v5.05h17Zm0,13v-5.3h-17v5.3Zm2.25-22.4c1.25,0,1.5-.75,1.65-5.25a9.16,9.16,0,0,0,2.85,1.25c-.3,5.45-1.2,6.95-4.15,6.95h-5.85c-3.65,0-4.55-.95-4.55-4.45V459.87h3.25v6.5h10.2v2.9h-10.2v7.35c0,1.3.25,1.5,1.65,1.5Z"/><path class="cls-1" d="M1167.55,534.87v2.5H1123.4v-2.5h20.25v-3.2H1126.8v-2.3h16.85v-3H1128.2v-2.25h15.45v-3.2H1123.5v-2.5h20.15v-3H1128.8V513h14.85v-3.55h3.25V513h14.45v5.4h6.15v2.5h-6.15v5.45H1146.9v3h17.3v2.3h-17.3v3.2Zm-37.75,5h31.75v15.25h-3.25v-1.6H1133v1.7h-3.2Zm3.2,2.4v3.2h25.3v-3.2Zm25.3,8.85v-3.4H1133v3.4Zm-11.4-32.7h11.15v-3H1146.9Zm0,5.7h11.15v-3.2H1146.9Z"/><rect class="cls-2" x="1114" y="1264" width="65" height="219" rx="12"/><path class="cls-1" d="M1158.05,1302.79a27.61,27.61,0,0,0,11.5,8.1,11.65,11.65,0,0,0-2.15,2.55,30.77,30.77,0,0,1-12.8-10.65h-15.95a34.39,34.39,0,0,1-13,11.3,11.43,11.43,0,0,0-2.15-2.55,30.39,30.39,0,0,0,11.6-8.75H1124v-2.85h10v-16.15h-7.7V1281h7.7v-5h3.3v5h18.55v-5h3.35v5h7.65v2.8h-7.65v16.15h9.8v2.85Zm-10,14.5h17.3v2.85H1127.8v-2.85h16.9v-5.6h-10.45v-2.8h10.45v-4.4h3.35v4.4h10.65v2.8h-10.65Zm-10.8-33.5v3.6h18.55v-3.6Zm0,9.8h18.55v-3.65h-18.55Zm0,6.35h18.55v-3.8h-18.55Z"/><path class="cls-1" d="M1142.25,1344.54s0,1.15,0,1.55c-.6,15.85-1.2,21.2-2.6,23a3.71,3.71,0,0,1-2.8,1.45,32.65,32.65,0,0,1-4.45,0,9.25,9.25,0,0,0-.85-3c1.75.15,3.2.15,3.9.15a1.42,1.42,0,0,0,1.45-.65c1-1.2,1.6-6,2.15-19.35h-6.8c-.55,10-2,18.25-6.45,23.65a9.53,9.53,0,0,0-2.55-2.35c5.45-6.45,5.9-17.85,6.1-31.55h-5.2v-3.1h20.1v3.1h-11.65c0,2.45-.1,4.85-.2,7.15Zm-7.9-10.45a33.47,33.47,0,0,0-4.25-7.15l2.9-1.15a31.92,31.92,0,0,1,4.4,7Zm23.85-7.45a15.26,15.26,0,0,1-.85,2.55c2.65,5.45,7.7,11.35,12.45,14a13,13,0,0,0-2.45,2.75c-4.25-2.7-8.5-8-11.4-13.3a32.61,32.61,0,0,1-11,13.6,12.79,12.79,0,0,0-2.35-2.65c5.85-3.6,10.35-10.2,12.5-17.85Zm-8.3,32.45a74,74,0,0,1,13.6,8.25l-2.25,2.9c-2.85-2.6-8.75-6.3-13.4-8.65Zm9.5-4.85a66.22,66.22,0,0,0-8.6-6.85l2.15-2.2a67.46,67.46,0,0,1,8.75,6.55Z"/><path class="cls-1" d="M1135.5,1389c-1.6,7.2-4.55,16.15-9.1,21.7a19.23,19.23,0,0,0-3.1-1.8c4.55-5.25,7.3-13.85,8.55-20.55Zm12.9-12.3v40c0,2.55-.7,3.6-2.35,4.2s-4.8.6-9.4.6a15.62,15.62,0,0,0-1.4-3.45c3.7.1,7.3.1,8.25.05s1.45-.35,1.45-1.4v-40ZM1160,1388c4.45,7,8.7,16.1,10,22l-3.45,1.45c-1.25-5.85-5.25-15.15-9.6-22.3Z"/><path class="cls-1" d="M1164.65,1453.74a72.75,72.75,0,0,1-7.65,3.65,19.75,19.75,0,0,0,12.1,9.55,10.66,10.66,0,0,0-2.1,2.6,22.77,22.77,0,0,1-12.5-11.1c-1.1.45-2.15.85-3.2,1.2,1.5,4.4.7,8.7-1.6,10.35a6,6,0,0,1-4.25,1.3c-1,0-2.25,0-3.55-.1a5.77,5.77,0,0,0-.9-2.85,30,30,0,0,0,4,.2,4.12,4.12,0,0,0,2.7-.65c1.35-1,1.9-3.75,1-6.9-5.55,3.7-14.45,7-22,8.45a11,11,0,0,0-1.45-2.4c8-1.1,17.65-4.65,22.65-8.35a13.35,13.35,0,0,0-1.25-2.15,69.47,69.47,0,0,1-17.55,6.35,7.59,7.59,0,0,0-1.4-2.15c5.8-1,13.4-3.4,17.7-5.85-.6-.55-1.25-1.15-2-1.7a80,80,0,0,1-15.25,4.15,16.41,16.41,0,0,0-1.55-2.2c5.7-.75,12.15-2.15,16.75-4.15h-18.55v-2.55h28c.3-.9.55-1.8.9-2.75h-21.7c1.25-2.8,3-7,4-10.25l3,.5a42,42,0,0,0-3.4-3.25l2-1.15h-6.25a29.23,29.23,0,0,1-5.1,5.6,25.27,25.27,0,0,0-2.35-2.2,26.89,26.89,0,0,0,7.5-9.35l3,.85c-.45.9-1,1.75-1.4,2.65h13.45v2.45h-8.3a44.9,44.9,0,0,1,4,3.65l-2.45,1.6a4.8,4.8,0,0,0-.7-.75c-.2.65-.45,1.25-.65,2h17.75l.6-.2,2.25.5c-.8,3.15-1.9,7-3,10.15h12V1451h-20.25c-.6.35-1.2.7-1.85,1a16.36,16.36,0,0,1,4.4,5.35,90.1,90.1,0,0,0,11.6-5.5Zm-10.2-10.3c.35-1.15.65-2.2,1-3.2h-17.7c-.45,1.15-.9,2.2-1.3,3.2Zm14.75-14.3v2.45h-16.6a28.84,28.84,0,0,1-4.55,5.15,15.06,15.06,0,0,0-2.55-2,21.57,21.57,0,0,0,6.7-9.1l3.1.8a26.43,26.43,0,0,1-1.25,2.7Zm-7.9,8a32.47,32.47,0,0,0-3.9-4.25l2.3-1.25a30.14,30.14,0,0,1,4,4Z"/><path d="M563.5,1050.1c-12.2,0-24.42-.79-36.58.45-7.87.8-16,1.74-23.54,4.41a80.06,80.06,0,0,0-12.83,5.64,92.55,92.55,0,0,0-11.95,8.82c-20.77,17-32.73,43.56-38.28,69.27-6,27.73-6.34,56.15-6.57,84.39-.27,32.24,0,64.49-.56,96.73-.64,36.43-2.4,72.88-7.2,109l.91-6.77c-5.49,40.68-15.09,80.67-31,118.57l2.57-6.09c-11.17,26.36-25.24,51.5-42.73,74.21l4-5.16a262.71,262.71,0,0,1-46.59,46.94l5.16-4a241.53,241.53,0,0,1-21.39,14.67,26.6,26.6,0,0,0-11.72,15.24c-1.68,6.11-.92,14.24,2.57,19.65,7.37,11.44,22.7,16.57,34.89,9.15,32.14-19.57,58.78-45.76,81-75.92,21.32-28.91,37.16-61.61,49.27-95.33,13.23-36.82,20.52-75.13,25.18-113.9,5.11-42.45,6.15-85.27,6.41-128,.14-21.44.07-42.87.21-64.3.12-18.25.08-36.56,1.68-54.75q.53-6,1.31-11.93l-.91,6.78c1.88-13.78,4.93-27.42,10.3-40.28l-2.57,6.09a96.73,96.73,0,0,1,12-20.86l-4,5.16A79.88,79.88,0,0,1,516,1104.42l-5.16,4a45.76,45.76,0,0,1,9.86-5.94L514.6,1105a66.38,66.38,0,0,1,15.94-4l-6.78.92c13.2-1.71,26.48-.84,39.74-.82a26.26,26.26,0,0,0,18-7.46c4.42-4.43,7.75-11.68,7.47-18-.62-13.83-11.2-25.47-25.5-25.5Z"/><path d="M563.5,1101.1c17.41-.9,34.92-.78,52.35-.82,27.35,0,54.72.22,82,1.5,12.68.59,25.41,1.34,38,3l-6.78-.91c5.39.73,11.09,1.43,16.16,3.52l-6.09-2.57A22.43,22.43,0,0,1,744,1108l-5.16-4a79.16,79.16,0,0,1,13.48,13.59l-4-5.16a96.25,96.25,0,0,1,12,20.86l-2.57-6.09c5.37,12.85,8.42,26.5,10.3,40.27l-.91-6.78c2.23,16.84,2.63,33.81,2.84,50.77.27,21.43.23,42.86.29,64.28.11,42.76.61,85.59,4.76,128.18,3.89,39.79,10.4,79.5,22.78,117.6,11.07,34.08,26.09,67.4,46.18,97.15,21,31.07,46.69,58.16,77.7,79.35q5.17,3.54,10.54,6.8c11.41,6.94,28.54,2.87,34.89-9.15,6.56-12.41,3-27.48-9.15-34.89a241.53,241.53,0,0,1-21.39-14.67l5.16,4a262.32,262.32,0,0,1-46.59-46.93l4,5.16c-17.49-22.71-31.56-47.85-42.73-74.22l2.57,6.1c-16-37.9-25.55-77.9-31-118.58l.91,6.78c-7.43-55.87-7.52-112.33-7.61-168.59,0-25.93.42-52-1.11-77.89-1.34-22.72-4.17-46.29-12.88-67.5a145,145,0,0,0-8.87-18.83,123.91,123.91,0,0,0-12.06-16.64,77.17,77.17,0,0,0-10.74-10.49c-3.24-2.6-6.64-5.73-10.48-7.58-11.61-5.6-24.55-6.73-37.22-8-29.65-3-59.62-3.3-89.39-3.52-23.82-.17-47.68-.2-71.49.62-1.17,0-2.35.08-3.52.14-6.75.35-13.17,2.61-18,7.47-4.42,4.43-7.75,11.68-7.47,18,.3,6.6,2.46,13.44,7.47,18,4.84,4.44,11.26,7.81,18,7.46Z"/></svg>