<svg id="Layer_1" data-name="Layer 1" xmlns="http://www.w3.org/2000/svg" viewBox="0 0 1242 2208"><defs><style>.cls-1{fill:#f6eabe;}.cls-2{fill:#999;}.cls-3{fill:none;stroke:#000;stroke-linecap:round;stroke-miterlimit:10;stroke-width:50px;}</style></defs><rect class="cls-1" width="1242" height="2208"/><path d="M945,295.83V853.22H891v-27H297.85V295.83H351V775.41H891V295.83ZM798.06,710.3c-35.73-55.58-91.31-124.66-156.42-196.12C573.36,597.55,496.34,669.8,413.77,727c-9.53-9.53-33.35-27-46-36.52,88.13-55.58,169.12-128.63,239-214.38C535.25,399.85,456.64,322.83,383.6,258.52l34.93-33.35C490,287.9,567.8,360.94,639.26,434.78c55.58-74.63,103.22-156.41,142.13-242.16L833,209.29C788.53,303.77,735.33,392.7,675,472.1c67.49,71.46,126.25,141.33,163.56,197.7Z"/><rect class="cls-2" x="1113" y="450" width="65" height="126" rx="12"/><path class="cls-1" d="M1132.7,479.82c1.25,1.6,4.9,6.7,5.7,8.05l-2,2.45c-.7-1.5-2.35-4.4-3.75-6.65V510h-3.15V485.57c-1.5,5.05-3.5,9.9-5.55,12.85a14.83,14.83,0,0,0-1.75-3.1c2.9-4,5.8-11.5,7.2-18h-6.2v-3.15h6.3v-9.65h3.15v9.65h5.45v3.15h-5.45Zm19.1.7a19.47,19.47,0,0,0,.45,2.65c-10.15,2.7-11.6,3.15-12.5,3.75a12.13,12.13,0,0,0-1.1-3.2c.7-.2,1.55-.5,1.55-2.2v-16.7h3.25v6.5h8.35v2.9h-8.35v8.3Zm2.35,5.5-2,3.75h12.65V510h-3.4v-1.75h-17v2h-3.3V489.77h7.9c.55-1.5,1.2-3.25,1.55-4.6Zm7.3,6.5h-17v5.05h17Zm0,13v-5.3h-17v5.3Zm2.25-22.4c1.25,0,1.5-.75,1.65-5.25a9.16,9.16,0,0,0,2.85,1.25c-.3,5.45-1.2,6.95-4.15,6.95h-5.85c-3.65,0-4.55-.95-4.55-4.45V464.87h3.25v6.5h10.2v2.9h-10.2v7.35c0,1.3.25,1.5,1.65,1.5Z"/><path class="cls-1" d="M1167.55,539.87v2.5H1123.4v-2.5h20.25v-3.2H1126.8v-2.3h16.85v-3H1128.2v-2.25h15.45v-3.2H1123.5v-2.5h20.15v-3H1128.8V518h14.85v-3.55h3.25V518h14.45v5.4h6.15v2.5h-6.15v5.45H1146.9v3h17.3v2.3h-17.3v3.2Zm-37.75,5h31.75v15.25h-3.25v-1.6H1133v1.7h-3.2Zm3.2,2.4v3.2h25.3v-3.2Zm25.3,8.85v-3.4H1133v3.4Zm-11.4-32.7h11.15v-3H1146.9Zm0,5.7h11.15v-3.2H1146.9Z"/><path d="M148.16,1755.49H133.34v35.15h-4v-38.87h18.78Z"/><path d="M202.94,1756.69v50h-4v-4.5h-43V1757h4v41.33h39.06v-41.63Z"/><path d="M210.08,1803.84H224.9v-35.15h4v38.87H210.08Z"/><path d="M265.28,1751.17l3.24,1.74c-7.08,7.26-11.28,16.2-11.28,26.76s4.2,19.49,11.28,26.75l-3.24,1.74c-7.32-7.5-11.94-17-11.94-28.49S258,1758.67,265.28,1751.17Z"/><path d="M290.3,1792.26a24.31,24.31,0,0,0,1.56,3.3c-9.36,7.62-10.8,8.82-11.64,10v.06a12.16,12.16,0,0,0-2.16-2.82,7.29,7.29,0,0,0,2.82-5.58V1775h-9.06v-3.84H284.6v25.61ZM285,1765.57a76.72,76.72,0,0,0-9.12-9.12l2.52-2.58c3.24,2.64,7.38,6.3,9.24,8.76Zm24.9,25.55c-2.22,5.88-7.2,11.7-18.3,16.14a11.05,11.05,0,0,0-2.46-3.06c9.54-3.66,14.22-8.34,16.5-13.08H290.06v-3.54h16.8a28.24,28.24,0,0,0,.78-7.25v-7.21h3.9v7.32a33,33,0,0,1-.66,7.14H325.7v3.54Zm7.62-13.32a53,53,0,0,0,2.82-7.19h-29v-3.49H306v-5.63H293.54V1758H306v-5.64h3.9V1758h12.6v3.48h-12.6v5.63H321.8l.66-.17,2.52.72a89.59,89.59,0,0,1-4.2,11Zm-23.94.78a39.45,39.45,0,0,1,8.76,5.94l-1.92,2.4a37,37,0,0,0-8.82-6.17Zm11,2.71a42.08,42.08,0,0,0-8.58-6.07l1.86-2a40.88,40.88,0,0,1,8.7,5.76Zm8,12.29c4.86,3.24,10.92,7.8,13.8,11l-2.52,2.64a86.82,86.82,0,0,0-13.68-11.34Z"/><path d="M334.82,1754.71h4.8v33h.18l14.28-17.69h5.46l-10.74,13L361,1802.46H355.7l-9.78-16-6.3,7.38v8.64h-4.8Z"/><path d="M364.64,1794.12c0-7.08,6.18-10.56,20.1-12.12.06-4.38-1.32-8.7-6.9-8.7-3.9,0-7.38,1.87-9.84,3.61l-2-3.42c2.82-1.87,7.38-4.26,12.6-4.26,7.86,0,11,5.34,11,13.13v20.1h-4l-.42-4H385c-3.12,2.64-6.84,4.74-10.92,4.74C368.72,1803.24,364.64,1800,364.64,1794.12Zm4.14-39.41,2.16-2,7.8,7.8H379l7.8-7.8,2.1,2-7.62,9.36H376.4Zm16,40.07v-9.48c-11.46,1.32-15.36,4.08-15.36,8.52,0,3.9,2.7,5.46,6,5.46S381.44,1797.72,384.74,1794.78Z"/><path d="M400.28,1770.07h4l.48,4.73h.18c3.12-3,6.48-5.57,10.92-5.57,6.78,0,9.9,4.38,9.9,12.65v20.58H420.8v-20c0-6.23-1.92-9-6.42-9-3.42,0-5.88,1.8-9.24,5.27v23.7h-4.86Z"/><path d="M434.84,1805.7c4.68-2,7.26-4.92,7.56-9.18a7.35,7.35,0,0,1-1.14.12c-2.34,0-4.26-1.38-4.26-4.08a4,4,0,0,1,4.32-4.14c3.18,0,4.86,2.64,4.86,6.66,0,6.48-4,11.28-10.08,13.44Z"/><path d="M489.92,1755.49H475.1v35.15h-4v-38.87h18.78Z"/><path d="M513.2,1788.84c-6.42,2.94-13.14,5.94-18.42,8.22l-1.56-4c2.28-.78,5.16-2,8.34-3.3v-19.26h-7.68v-3.77h7.68V1753h3.72v13.74h6.84v3.77h-6.84v17.82c2.34-1,4.74-2,7.08-3Zm18.42-11.63v1.91c2.16,11.7,7.14,20.94,16.74,24.3a15.65,15.65,0,0,0-2.58,3.36c-7.8-3.24-12.6-9.84-15.48-18.84-1.86,6.72-6.48,13.56-17.4,19a12.23,12.23,0,0,0-2.64-2.94c16.08-7.86,17.46-18.78,17.46-26.88v-5.76h3.9Zm-10-10.44a53,53,0,0,1-6.66,13.14,36.5,36.5,0,0,0-3.48-2.23c4.86-6,8.22-15.41,10.14-25.19l3.9.66c-.72,3.36-1.62,6.66-2.52,9.78h21.42l.6-.24,2.88,1c-1.38,5.27-3.3,11.52-5.22,15.35l-3.36-1.2a74.1,74.1,0,0,0,3.6-11Z"/><path d="M551.84,1803.84h14.82v-35.15h4v38.87H551.84Z"/><path d="M599.9,1753c-1,2.94-2.1,6.3-3.18,8.88h10.14v38.75h-16.8v4.8H586.4v-43.55h6.66a64.68,64.68,0,0,0,2.58-9.72Zm3.3,12.47H590.06v13.08H603.2Zm0,31.56v-14.88H590.06v14.88Zm33.06-33.17c-1,27.53-1.8,36.71-4.2,39.59a5.6,5.6,0,0,1-4.56,2.28,74.94,74.94,0,0,1-8.82-.12,9.42,9.42,0,0,0-1.32-3.9c3.9.36,7.5.36,8.82.36s1.92-.12,2.52-.9c2-2.1,2.94-11.34,3.72-35.7H616.7a55.33,55.33,0,0,1-5.64,10.68,36.22,36.22,0,0,0-3.36-2.22c4.08-5.34,7.32-13.61,9.18-21.89l3.84.84c-.78,3-1.62,6-2.64,8.88h18.18Zm-12.78,27a106.51,106.51,0,0,0-9.3-13.92l3.06-1.79a102.47,102.47,0,0,1,9.6,13.61Z"/><path d="M663.74,1791.06c-1.26-1.86-4.08-5.64-6.48-8.52v24.36h-4.08v-23.64a61.07,61.07,0,0,1-7.68,7.62,13.85,13.85,0,0,0-2.22-3.66,60.27,60.27,0,0,0,16.38-20.51h-15.3v-3.66h17.28l.78-.18,2.34,1.62a62.93,62.93,0,0,1-7.44,13.43c.6.66,1.32,1.5,2.16,2.41a46.19,46.19,0,0,0,4.86-5.88l2.82,2.27c-1.86,1.92-4,4-5.82,5.64,2.1,2.28,4.14,4.56,4.92,5.46Zm-7.8-28.61a50.51,50.51,0,0,0-5.16-8.4l3.06-1.68a46,46,0,0,1,5.28,8Zm40-2.7c-.84,31-1.68,41.33-4.08,44.33a5.75,5.75,0,0,1-4.5,2.46,63.83,63.83,0,0,1-8.82-.12,10.21,10.21,0,0,0-1.2-3.84c3.78.3,7.14.36,8.52.36a2.7,2.7,0,0,0,2.46-1c2-2.28,2.88-12.48,3.72-40.55H679.94c-1,21.59-3.9,36.17-15.24,45.71a18.44,18.44,0,0,0-3.06-3.06c11-8.4,13.44-22.62,14.22-42.65h-10.2v-3.84H696Z"/><path d="M748.34,1766.89c-3.48,9.65-8.22,17.33-14.4,23.51a59.93,59.93,0,0,0,24.6,12.6,20.15,20.15,0,0,0-2.7,3.6,61.1,61.1,0,0,1-24.9-13.32c-6.78,5.94-15.06,10.32-25.14,13.56a18.63,18.63,0,0,0-2.46-3.66c10-2.94,18.12-7.08,24.72-12.72a68.52,68.52,0,0,1-14.64-23.57h-9.3V1763h53.7v3.9Zm-30.9,0A62.52,62.52,0,0,0,731,1787.64a57,57,0,0,0,12.84-20.75Zm13.5-4.26a45.75,45.75,0,0,0-4.56-9.36l4.08-1.2a46.78,46.78,0,0,1,4.8,9.18Z"/><path d="M764.72,1808.16l-3.24-1.74c7.08-7.26,11.28-16.2,11.28-26.75s-4.2-19.5-11.28-26.76l3.24-1.74c7.32,7.5,11.94,17,11.94,28.5S772,1800.66,764.72,1808.16Z"/><path d="M810.8,1753.69a98.85,98.85,0,0,1-6.18,13.56v39.59h-3.84v-33.35a61.73,61.73,0,0,1-5.46,7,32.86,32.86,0,0,0-2.28-3.9c5.58-5.87,10.8-14.87,14-24ZM845,1782.9c-2,1.38-4.44,2.7-6.84,4,2,5.82,5.82,11.16,10.62,13.62a15.86,15.86,0,0,0-2.64,3.06c-4.92-3-8.76-8.76-10.86-15.3-1,.54-2.1,1-3.12,1.5,2.1,6.3,1.26,12.72-1.38,15.24a6.51,6.51,0,0,1-5,1.92c-1,0-2.4-.06-3.72-.12a9.47,9.47,0,0,0-1-3.48,34.56,34.56,0,0,0,4,.24,3.38,3.38,0,0,0,3-1.14c1.44-1.32,2.1-4.86,1.44-8.94a58.72,58.72,0,0,1-19.5,11.4,11.72,11.72,0,0,0-2.34-2.82c7.44-2.22,16.26-7,21.12-11.82a24.37,24.37,0,0,0-1.62-3.66,57.71,57.71,0,0,1-16.74,9.66,16.14,16.14,0,0,0-2.22-2.64c5.82-1.74,13.38-5.58,17.52-9.3a16.53,16.53,0,0,0-2.82-3,39.59,39.59,0,0,1-12.3,6.17,14.66,14.66,0,0,0-2.28-2.58c6.54-2.1,10.86-4.62,13.68-7.26h-9.54v-9.35c-1.08,1-2.22,1.92-3.42,2.88a9.81,9.81,0,0,0-2.64-2.53,45.41,45.41,0,0,0,13.92-16.25l3.84.72a35.7,35.7,0,0,1-2,3.54h11.1l.78-.18,2.34,1.68a52.13,52.13,0,0,1-4.8,6.84h13v12.65H826.58a15.52,15.52,0,0,1-1.38,1.63,22.17,22.17,0,0,1,6,7.85,120.47,120.47,0,0,0,11.1-6.66Zm-25-23.09a54.58,54.58,0,0,1-4.2,5.16h11.58a33.35,33.35,0,0,0,3.72-5.16Zm-4,14.69h8.64a15.14,15.14,0,0,0,2.46-6.42H816Zm24.72-6.42H830.48a18.56,18.56,0,0,1-1.8,6.42h12.06Z"/><path d="M865.22,1788.54c2.28-1,4.62-2,7-3l.84,3.54c-6.42,2.94-13.14,5.94-18.36,8.22l-1.56-4c2.28-.78,5.16-2,8.28-3.3v-19.5h-7.8v-3.77h7.8V1753h3.78v13.74h7.14v3.77h-7.14Zm35,13.44c3.54,0,4.14-1.62,4.56-8.7a10.25,10.25,0,0,0,3.6,1.62c-.66,8.1-1.92,10.68-8,10.68H885.26c-6.66,0-8.52-1.5-8.52-7.62v-19.55l-5,2.15-1.56-3.48,6.6-2.75v-16.5h3.78v14.88l8.64-3.67v-16.73h3.78v15.18l8.52-3.6.9-.78.72-.66,2.82,1.13-.18.79c0,11.16-.18,20.45-.66,22.67-.36,2.4-1.5,3.42-3.24,3.78a28.16,28.16,0,0,1-5.52.36,13,13,0,0,0-1-3.48c1.5.12,3.54.12,4.2.12.9,0,1.56-.3,1.86-1.68.36-1.56.48-8.64.48-18.35l-8.94,3.78v22.19h-3.78v-20.64l-8.64,3.67V1798c0,3.24.78,4,4.8,4Z"/><path d="M942.5,1760.23c-.72,2.64-1.62,5.52-2.46,7.92h24.3V1807h-4v-3.18H921.26V1807h-3.9v-38.87H936a80.35,80.35,0,0,0,1.92-7.92H914.66v-3.78h52.62v3.78Zm-21.24,39.89h9v-28.25h-9Zm26-28.25H933.92v7h13.32Zm0,10.31H933.92v7.2h13.32Zm-13.32,17.94h13.32v-7.44H933.92Zm26.4-28.25H950.9v28.25h9.42Z"/><path d="M1024.46,1757.77v47.87h-3.9v-4.5H981v4.74h-3.78v-48.11h18.54v20.64h10v-20.64Zm-3.9,39.59v-35.75h-11v20.57H991.88v-20.57H981v35.75Z"/><path d="M1052.72,1756.15c-1.8,4.86-4,10.8-6,15.54,4.38,5,5.46,9.35,5.46,13.13,0,3-.66,5.64-2.28,6.78a6,6,0,0,1-3,1.08,18.5,18.5,0,0,1-4.08.06,8.17,8.17,0,0,0-1-3.54,24.82,24.82,0,0,0,3.6.06,3.41,3.41,0,0,0,1.86-.54c1-.66,1.32-2.4,1.32-4.26,0-3.36-1.14-7.5-5.52-12.35,1.8-4.44,3.66-9.66,4.92-13.68h-8.46v48.41h-3.6v-52.07h13.62l.6-.18Zm11.7,6.6a52.48,52.48,0,0,1-10.2,13.5,22,22,0,0,0-3.24-2.41c5.94-5.09,11-12.95,13.86-21.53l3.72,1a52.65,52.65,0,0,1-2.34,5.76h14.16l.66-.18,2.64,1.68a68.91,68.91,0,0,1-8.4,14.75,14.19,14.19,0,0,0-3-1.92,56.7,56.7,0,0,0,6.12-10.67Zm20.46,14.87v29H1081v-2.94h-22.44v3.06h-3.78v-27.66a67.48,67.48,0,0,0,12.18-5.45l3.06,2.7a92.89,92.89,0,0,1-11.46,4.67v7.68h10.14v3.3h-10.14v8.28H1081v-8.22h-10v-3.36h10V1781h-10.56v-3.42Z"/><path d="M1094.84,1805.7c4.68-2,7.26-4.92,7.56-9.18a7.35,7.35,0,0,1-1.14.12c-2.34,0-4.26-1.38-4.26-4.08a4,4,0,0,1,4.32-4.14c3.18,0,4.86,2.64,4.86,6.66,0,6.48-4,11.28-10.08,13.44Z"/><path d="M250.61,1827.49H235.79v35.15h-4v-38.87h18.78Z"/><path d="M301.19,1829.41c-3.72,14.09-8.94,24.84-16.62,33,6.48,6.06,14.76,10.38,25.14,12.9a20,20,0,0,0-2.82,3.78c-10.62-2.76-19-7.26-25.56-13.5-6.48,5.82-14.52,10.14-24.54,13.5a20,20,0,0,0-2.88-3.72c10.08-3.06,18.06-7.26,24.42-12.9-7.62-8.46-12.54-19.55-16-33l4-.9c3.06,12.42,7.8,22.8,15.06,30.77,7.26-7.67,12.06-17.81,15.42-30.95Z"/><path d="M312.53,1875.84h14.82v-35.15h4v38.87H312.53Z"/><path d="M367.73,1823.17l3.24,1.74c-7.08,7.26-11.28,16.2-11.28,26.76s4.2,19.49,11.28,26.75l-3.24,1.74c-7.32-7.5-11.94-17-11.94-28.49S360.41,1830.67,367.73,1823.17Z"/><path d="M392.75,1864.26a24.31,24.31,0,0,0,1.56,3.3c-9.36,7.62-10.8,8.82-11.64,10v.06a12.16,12.16,0,0,0-2.16-2.82,7.29,7.29,0,0,0,2.82-5.58V1847h-9.06v-3.84h12.78v25.61Zm-5.34-26.69a76.72,76.72,0,0,0-9.12-9.12l2.52-2.58c3.24,2.64,7.38,6.3,9.24,8.76Zm24.9,25.55c-2.22,5.88-7.2,11.7-18.3,16.14a11.05,11.05,0,0,0-2.46-3.06c9.54-3.66,14.22-8.34,16.5-13.08H392.51v-3.54h16.8a28.24,28.24,0,0,0,.78-7.25v-7.21H414v7.32a33,33,0,0,1-.66,7.14h14.82v3.54Zm7.62-13.32a53,53,0,0,0,2.82-7.19h-29v-3.49h14.7v-5.63H396V1830h12.42v-5.64h3.9V1830h12.6v3.48h-12.6v5.63h11.94l.66-.17,2.52.72a89.59,89.59,0,0,1-4.2,11Zm-23.94.78a39.45,39.45,0,0,1,8.76,5.94l-1.92,2.4a37,37,0,0,0-8.82-6.17Zm11,2.71a42.08,42.08,0,0,0-8.58-6.07l1.86-2a40.88,40.88,0,0,1,8.7,5.76Zm8,12.29c4.86,3.24,10.92,7.8,13.8,11l-2.52,2.64a86.82,86.82,0,0,0-13.68-11.34Z"/><path d="M433.61,1888l1-4a7.84,7.84,0,0,0,2.52.48c3.72,0,6.12-3.12,7.56-7.32l.72-2.52-13.08-32.57h5.1l6.9,18.53c1,2.82,2.16,6.18,3.24,9.12h.3c.9-2.94,1.86-6.3,2.76-9.12l6.06-18.53h4.8l-12.36,35.39c-2.16,6.18-5.52,11.16-11.82,11.16A9.82,9.82,0,0,1,433.61,1888Z"/><path d="M461.33,1825.93l3.48-3.24,9.3,11-2.46,2.45Zm6.66,16.14h4.86v32.39H468Z"/><path d="M482.27,1880.16l-3.24-1.74c7.08-7.26,11.28-16.2,11.28-26.75s-4.2-19.5-11.28-26.76l3.24-1.74c7.32,7.5,11.94,17,11.94,28.5S489.59,1872.66,482.27,1880.16Z"/><path d="M528.35,1825.69a98.85,98.85,0,0,1-6.18,13.56v39.59h-3.84v-33.35a61.73,61.73,0,0,1-5.46,7,32.86,32.86,0,0,0-2.28-3.9c5.58-5.87,10.8-14.87,14-24Zm34.2,29.21c-2,1.38-4.44,2.7-6.84,4,2,5.82,5.82,11.16,10.62,13.62a15.86,15.86,0,0,0-2.64,3.06c-4.92-3-8.76-8.76-10.86-15.3-1,.54-2.1,1-3.12,1.5,2.1,6.3,1.26,12.72-1.38,15.24a6.51,6.51,0,0,1-5,1.92c-1,0-2.4-.06-3.72-.12a9.47,9.47,0,0,0-1-3.48,34.56,34.56,0,0,0,4,.24,3.38,3.38,0,0,0,3-1.14c1.44-1.32,2.1-4.86,1.44-8.94a58.72,58.72,0,0,1-19.5,11.4,11.72,11.72,0,0,0-2.34-2.82c7.44-2.22,16.26-7,21.12-11.82a24.37,24.37,0,0,0-1.62-3.66,57.71,57.71,0,0,1-16.74,9.66,16.14,16.14,0,0,0-2.22-2.64c5.82-1.74,13.38-5.58,17.52-9.3a16.53,16.53,0,0,0-2.82-3,39.59,39.59,0,0,1-12.3,6.17,14.66,14.66,0,0,0-2.28-2.58c6.54-2.1,10.86-4.62,13.68-7.26H530v-9.35c-1.08,1-2.22,1.92-3.42,2.88a9.81,9.81,0,0,0-2.64-2.53,45.41,45.41,0,0,0,13.92-16.25l3.84.72a35.7,35.7,0,0,1-2,3.54h11.1l.78-.18,2.34,1.68a52.13,52.13,0,0,1-4.8,6.84h13v12.65H544.13a15.52,15.52,0,0,1-1.38,1.63,22.17,22.17,0,0,1,6,7.85,120.47,120.47,0,0,0,11.1-6.66Zm-25-23.09a54.58,54.58,0,0,1-4.2,5.16h11.58a33.35,33.35,0,0,0,3.72-5.16Zm-4,14.69h8.64a15.14,15.14,0,0,0,2.46-6.42h-11.1Zm24.72-6.42H548a18.56,18.56,0,0,1-1.8,6.42h12.06Z"/><path d="M592.19,1836c-1.14,2.46-2.46,5-3.84,7.31h29.16v30.54c0,2.52-.6,3.72-2.46,4.38s-5.16.66-10.38.66a16.63,16.63,0,0,0-1.32-3.9c4.14.18,7.8.12,8.82.12s1.44-.42,1.44-1.32v-6.66H587.93V1879H584V1849.5a50.45,50.45,0,0,1-10.32,10,17.88,17.88,0,0,0-2.58-3.06c7.26-5,12.84-12.41,16.74-20.45H572.51v-3.78h17a56.88,56.88,0,0,0,2.64-7.8l4,.9c-.72,2.34-1.5,4.62-2.4,6.9h30.78V1836Zm21.42,10.92H587.93v6.53h25.68Zm0,16.73v-6.72H587.93v6.72Z"/><path d="M653.45,1854.54l-7.74,2.52v22H642v-20.76c-3.6,1.08-7.08,2.22-10.08,3.12l-1.08-3.84c3.06-.84,7-1.92,11.16-3.18v-13.79h-5.7a53.29,53.29,0,0,1-2.76,9.11,25.52,25.52,0,0,0-3.06-1.85c2.28-5,3.54-12.6,4.26-20l3.54.6c-.36,2.82-.78,5.64-1.26,8.34h5v-12.3h3.72v12.3h6.42v3.84h-6.42v12.72l7.26-2.23Zm31.68-20s0,1.56-.06,2.1c-1.44,27.29-2.7,36.59-5.22,39.47a5,5,0,0,1-4,2.22,53,53,0,0,1-6.84-.06,10.36,10.36,0,0,0-1.14-4c2.82.24,5.28.3,6.42.3a2.61,2.61,0,0,0,2.34-1c1.92-2.16,3.3-11.1,4.56-35.33h-3.36c-3.06,15.83-9.72,32-19.68,39.83a11.72,11.72,0,0,0-3.36-2.4c10-7.2,16.44-22.2,19.56-37.43H669c-2.7,10.37-8.28,21.65-14.88,27.41a14.07,14.07,0,0,0-3.18-2.34c6.42-5,11.82-15.3,14.64-25.07h-5.52a48.75,48.75,0,0,1-7,11.52,29.73,29.73,0,0,0-3.06-2.29c5-5.39,8.58-14,10.62-23.15l3.66.72a87.43,87.43,0,0,1-2.76,9.48Z"/><path d="M707.63,1825.63a101.41,101.41,0,0,1-5.46,12.95v40.32h-3.78v-33.78a55.84,55.84,0,0,1-5.4,7.38,19.19,19.19,0,0,0-2.34-3.9c5.34-5.87,10.26-14.87,13.26-24ZM730,1840.5c3.66,10.21,9.9,20.34,16.5,25.44a19.36,19.36,0,0,0-3.06,3.18c-6.42-5.7-12.42-16.14-16.14-26.75v21.71h10v3.6h-10v11h-3.84v-11h-10.2v-3.6h10.2v-21.47c-3.9,10.73-10,20.87-16.44,26.63a22.7,22.7,0,0,0-2.88-3c6.6-5.22,13-15.48,16.74-25.74H706.25v-3.83h17.16v-12.18h3.84v12.18h18.18v3.83Z"/><path d="M770.27,1828.15c-1.8,4.86-4,10.8-6,15.54,4.38,5,5.46,9.35,5.46,13.13,0,3-.66,5.64-2.28,6.78a6,6,0,0,1-3,1.08,18.5,18.5,0,0,1-4.08.06,8.17,8.17,0,0,0-1-3.54,24.82,24.82,0,0,0,3.6.06,3.41,3.41,0,0,0,1.86-.54c1-.66,1.32-2.4,1.32-4.26,0-3.36-1.14-7.5-5.52-12.35,1.8-4.44,3.66-9.66,4.92-13.68h-8.46v48.41h-3.6v-52.07h13.62l.6-.18Zm11.7,6.6a52.48,52.48,0,0,1-10.2,13.5,22,22,0,0,0-3.24-2.41c5.94-5.09,11-12.95,13.86-21.53l3.72,1a52.65,52.65,0,0,1-2.34,5.76h14.16l.66-.18,2.64,1.68a68.91,68.91,0,0,1-8.4,14.75,14.19,14.19,0,0,0-3-1.92,56.7,56.7,0,0,0,6.12-10.67Zm20.46,14.87v29h-3.9v-2.94H776.09v3.06h-3.78v-27.66a67.48,67.48,0,0,0,12.18-5.45l3.06,2.7a92.89,92.89,0,0,1-11.46,4.67v7.68h10.14v3.3H776.09v8.28h22.44v-8.22h-10v-3.36h10V1853H788v-3.42Z"/><path d="M828.89,1825.81c19.08,13.56,17,36.35,37,48.17a15.15,15.15,0,0,0-2,4.38c-13.86-7.8-17.88-21.9-24.66-34-4.5,15.9-12.18,27.06-24.48,34.32a23.47,23.47,0,0,0-3.6-3.18c13.5-7.08,21-19.26,24.84-36.48a37.21,37.21,0,0,0-9.54-9.83Z"/><path d="M890.75,1860.84c-6.42,2.94-13.14,5.94-18.42,8.22l-1.56-4c2.28-.78,5.16-2,8.34-3.3v-19.26h-7.68v-3.77h7.68V1825h3.72v13.74h6.84v3.77h-6.84v17.82c2.34-1,4.74-2,7.08-3Zm18.42-11.63v1.91c2.16,11.7,7.14,20.94,16.74,24.3a15.65,15.65,0,0,0-2.58,3.36c-7.8-3.24-12.6-9.84-15.48-18.84-1.86,6.72-6.48,13.56-17.4,19a12.23,12.23,0,0,0-2.64-2.94c16.08-7.86,17.46-18.78,17.46-26.88v-5.76h3.9Zm-10-10.44a53,53,0,0,1-6.66,13.14,36.5,36.5,0,0,0-3.48-2.23c4.86-6,8.22-15.41,10.14-25.19l3.9.66c-.72,3.36-1.62,6.66-2.52,9.78H922l.6-.24,2.88,1c-1.38,5.27-3.3,11.52-5.22,15.35l-3.36-1.2a74.1,74.1,0,0,0,3.6-11Z"/><path d="M982.25,1835.05v27.77h-4.08v-3.48H960.35v19.56h-4.14v-19.56H938.45v3.78h-4v-28.07h21.72v-10.74h4.14v10.74Zm-26,20.33V1839H938.45v16.43Zm22,0V1839H960.35v16.43Z"/><path d="M1009.79,1868.88a9,9,0,1,1-9.06-9A9,9,0,0,1,1009.79,1868.88Zm-2.82,0a6.21,6.21,0,1,0-6.24,6.24A6.22,6.22,0,0,0,1007,1868.88Z"/><path d="M326.9,1913.17c4.44,10.31,12.24,20,20.76,24.71a23.11,23.11,0,0,0-3.06,3.36c-9-5.58-16.92-16.32-21.6-28.07h-1v22.43h14.28v4H322V1951H317.9v-11.4H303.68v-4H317.9v-22.43h-1.08c-4.74,11.75-12.66,22.43-21.3,28.25a24.18,24.18,0,0,0-2.88-3.18c8-4.92,15.66-14.76,20.16-25.07H294.14v-4H317.9v-12.72H322v12.72h24v4Z"/><path d="M401.6,1902.07c-4.32,12.12-10.08,22.68-18.6,31.25a65.72,65.72,0,0,0,24.42,14.1,17.56,17.56,0,0,0-2.76,3.54A66.69,66.69,0,0,1,380,1936.2a72.92,72.92,0,0,1-25.38,14.7,14.53,14.53,0,0,0-2.16-3.36,69.86,69.86,0,0,0,24.78-14.1,89.37,89.37,0,0,1-18.18-29.27l3.6-1.08a80.51,80.51,0,0,0,17.52,27.53c8.16-8.21,13.62-18.41,17.4-29.87ZM381,1912a102.25,102.25,0,0,0-5.88-14.45l3.42-1.38a105.48,105.48,0,0,1,6.06,14.28Z"/><path d="M442.46,1945.62a70.7,70.7,0,0,0,7.38.36c2.1.06,14.76,0,17.58-.06a16.36,16.36,0,0,0-1.44,3.84H449.72c-12.3,0-19.92-1.92-24.72-10.38a31.55,31.55,0,0,1-9.48,11.7,19.84,19.84,0,0,0-3.06-2.82c6.3-4.14,10.2-10.92,11.82-19.86l4,.6a55.92,55.92,0,0,1-1.5,6.06c2.34,5.64,6.3,8.52,11.7,9.84v-18.54H413.72v-3.6H466.4v3.6H442.46v7.08h20v3.6h-20Zm17.22-27.17h-39.6v-19.56h39.6Zm-4-16.44H424v5.16h31.68Zm0,8.1H424v5.27h31.68Z"/><path d="M484.34,1932.54c2.28-1,4.62-2,7-3l.84,3.54c-6.42,2.94-13.14,5.94-18.36,8.22l-1.56-4c2.28-.78,5.16-2,8.28-3.3v-19.5h-7.8v-3.77h7.8V1897h3.78v13.74h7.14v3.77h-7.14Zm35,13.44c3.54,0,4.14-1.62,4.56-8.7a10.25,10.25,0,0,0,3.6,1.62c-.66,8.1-1.92,10.68-8,10.68H504.38c-6.66,0-8.52-1.5-8.52-7.62v-19.55l-5,2.15-1.56-3.48,6.6-2.75v-16.5h3.78v14.88l8.64-3.67v-16.73h3.78v15.18l8.52-3.6.9-.78.72-.66,2.82,1.13-.18.79c0,11.16-.18,20.45-.66,22.67-.36,2.4-1.5,3.42-3.24,3.78a28.16,28.16,0,0,1-5.52.36,13,13,0,0,0-1-3.48c1.5.12,3.54.12,4.2.12.9,0,1.56-.3,1.86-1.68.36-1.56.48-8.64.48-18.35l-8.94,3.78v22.19h-3.78v-20.64l-8.64,3.67V1942c0,3.24.78,4,4.8,4Z"/><path d="M561.62,1904.23c-.72,2.64-1.62,5.52-2.46,7.92h24.3V1951h-4v-3.18H540.38V1951h-3.9v-38.87h18.6a80.35,80.35,0,0,0,1.92-7.92H533.78v-3.78H586.4v3.78Zm-21.24,39.89h9v-28.25h-9Zm26-28.25H553v7h13.32Zm0,10.31H553v7.2h13.32ZM553,1944.12h13.32v-7.44H553Zm26.4-28.25H570v28.25h9.42Z"/><path d="M609,1897c-1,2.94-2.1,6.3-3.18,8.88H616v38.75h-16.8v4.8h-3.66v-43.55h6.66a64.68,64.68,0,0,0,2.58-9.72Zm3.3,12.47H599.18v13.08h13.14Zm0,31.56v-14.88H599.18v14.88Zm33.06-33.17c-1,27.53-1.8,36.71-4.2,39.59a5.6,5.6,0,0,1-4.56,2.28,74.94,74.94,0,0,1-8.82-.12,9.42,9.42,0,0,0-1.32-3.9c3.9.36,7.5.36,8.82.36s1.92-.12,2.52-.9c2-2.1,2.94-11.34,3.72-35.7H625.82a55.33,55.33,0,0,1-5.64,10.68,36.22,36.22,0,0,0-3.36-2.22c4.08-5.34,7.32-13.61,9.18-21.89l3.84.84c-.78,3-1.62,6-2.64,8.88h18.18Zm-12.78,27a106.51,106.51,0,0,0-9.3-13.92l3.06-1.79a102.47,102.47,0,0,1,9.6,13.61Z"/><path d="M672.74,1934c-6.72,2.94-13.74,5.94-19.2,8.22l-1.14-4.08c2.28-.78,5.1-1.86,8.22-3.06v-20.52h-7.38v-3.77h7.38V1897h3.78v13.74h7v3.77h-7v19c2.46-1,5-2,7.56-3.06Zm29.16,13a2.78,2.78,0,0,0,1.5-.36c.36-.3.54-.9.72-2s.18-4.08.24-7.74a9.65,9.65,0,0,0,3.06,1.74,56.69,56.69,0,0,1-.48,8.4,4.3,4.3,0,0,1-1.68,2.76,6,6,0,0,1-3.18.78H699a5.49,5.49,0,0,1-3.36-1.08c-1-.78-1.32-1.74-1.32-5.94v-22.67h-11.7v7.31c0,7.5-1.8,17.1-11.1,23.34a11,11,0,0,0-2.7-3.06c8.64-5.76,9.84-13.8,9.84-20.34v-11h19.62v26.75c0,1.62.06,2.52.42,2.82a2,2,0,0,0,1.2.3Zm5.4-36H672.5v-3.84h34.8Zm-19-4.56a69.34,69.34,0,0,0-4.32-9.24l3.6-1.2a67,67,0,0,1,4.5,9.12Z"/><path d="M723.44,1922.46a59.63,59.63,0,0,0-11-6.23l2.16-2.94a54.17,54.17,0,0,1,11,5.88Zm-9.24,24.66a192.9,192.9,0,0,0,10.62-18.95l3,2.69c-2.94,6.18-6.84,13.5-10.14,19Zm3.48-49.79a53.77,53.77,0,0,1,10.68,6.06l-2.34,3.24a56.41,56.41,0,0,0-10.68-6.42Zm47.58,48.53c0,2.52-.6,3.72-2.22,4.44s-4.5.78-9.18.78a15,15,0,0,0-1.32-4c3.54.12,6.66.06,7.56.06s1.32-.3,1.32-1.26v-43.31h-28V1951h-3.78v-52.13h35.58ZM758,1912.21H737.12v-3.48H758ZM742.4,1937v3.78h-3.24V1918.5h16.62V1937Zm0-15.12v11.64h10.08v-11.64Z"/><path d="M772.7,1936.26l3.48-3.06a113.53,113.53,0,0,1,13.5,13.38L786,1949.7A97.41,97.41,0,0,0,772.7,1936.26Z"/><path d="M821.84,1900.15c-1.8,4.86-4,10.8-6,15.54,4.38,5,5.46,9.35,5.46,13.13,0,3-.66,5.64-2.28,6.78a6,6,0,0,1-3,1.08,18.5,18.5,0,0,1-4.08.06,8.17,8.17,0,0,0-1-3.54,24.82,24.82,0,0,0,3.6.06,3.41,3.41,0,0,0,1.86-.54c1-.66,1.32-2.4,1.32-4.26,0-3.36-1.14-7.5-5.52-12.35,1.8-4.44,3.66-9.66,4.92-13.68h-8.46v48.41H805v-52.07h13.62l.6-.18Zm11.7,6.6a52.48,52.48,0,0,1-10.2,13.5,22,22,0,0,0-3.24-2.41c5.94-5.09,11-12.95,13.86-21.53l3.72,1a52.65,52.65,0,0,1-2.34,5.76H849.5l.66-.18,2.64,1.68a68.91,68.91,0,0,1-8.4,14.75,14.19,14.19,0,0,0-3-1.92,56.7,56.7,0,0,0,6.12-10.67ZM854,1921.62v29h-3.9v-2.94H827.66v3.06h-3.78v-27.66a67.48,67.48,0,0,0,12.18-5.45l3.06,2.7a92.89,92.89,0,0,1-11.46,4.67v7.68H837.8v3.3H827.66v8.28H850.1v-8.22h-10v-3.36h10V1925H839.54v-3.42Z"/><path d="M882,1900.39c-1.92,5.16-4.32,11.46-6.48,16.49,4.68,5.22,5.82,9.72,5.82,13.62,0,3.24-.66,5.82-2.4,7a7.44,7.44,0,0,1-3.18,1.14,35.55,35.55,0,0,1-4.38,0,9.93,9.93,0,0,0-1-3.66,14.64,14.64,0,0,0,3.9.12,3.35,3.35,0,0,0,2.1-.6c1-.66,1.32-2.46,1.32-4.44,0-3.41-1.08-7.74-5.82-12.71,1.92-4.68,3.9-10.5,5.34-14.82h-8.34V1951H865.1v-52h13.62l.66-.18Zm35.16,28.91h-7.74v21.42H905.6V1929.3H894c-.72,8.64-3.18,16.14-11,21.84a13.17,13.17,0,0,0-2.94-2.82c7-5,9.3-11.52,10-19H882.8v-3.78h7.5c.06-1.19.06-2.4.06-3.6v-10H883v-3.72h7.38v-11.46h3.84v11.46h11.4v-11.52h3.84v11.52h6.84v3.72h-6.84v13.61h7.74Zm-11.58-3.78v-13.61H894.2v10c0,1.2,0,2.41-.06,3.6Z"/><path d="M941.36,1940.88a9,9,0,1,1-9.06-9A9,9,0,0,1,941.36,1940.88Zm-2.82,0a6.21,6.21,0,1,0-6.24,6.24A6.22,6.22,0,0,0,938.54,1940.88Z"/><path d="M382.7,1998.06s-.06,1.32-.12,1.86c-1.08,13.56-2.1,18.84-4.08,20.82-1.26,1.32-2.46,1.68-4.56,1.8a90.37,90.37,0,0,1-9.48-.18,8,8,0,0,0-1.44-4c4,.36,8,.36,9.48.36s2-.06,2.58-.6c1.5-1.2,2.4-5.7,3.3-16.32h-22.8c1.14-4.56,2.46-11.63,3.24-17.09H378.5v-10.08h-22v-3.78H382.4v17.58H362.3c-.6,3.3-1.2,6.71-1.86,9.65Zm18.36-29.15V2023h-4v-54.11Z"/><path d="M463.28,1976.23v33.29H459.2v-3.18H441.92v16.5h-4.14v-16.5H421v3.54h-4v-33.65h20.76v-7.92h4.14v7.92Zm-42.3,3.84v9.18h16.8v-9.18Zm16.8,22.49V1993H421v9.6Zm4.14-22.49v9.18H459.2v-9.18Zm17.28,22.49V1993H441.92v9.6Z"/><path d="M523.76,1982.77s-.06,1.56-.06,2.1c-1,24.11-1.86,32.51-4.2,35.27a6,6,0,0,1-4.68,2.22c-2,.12-5.88,0-9.48-.18A10,10,0,0,0,504,2018a91.18,91.18,0,0,0,9.3.42c1.26,0,2-.12,2.58-.9,1.86-1.8,2.82-9.9,3.66-30.83H498.44c-1.38,11.69-6.24,25.07-21.84,35.45a14.36,14.36,0,0,0-3.12-2.88c14.7-9.6,19.44-21.78,20.88-32.57H475.22v-4h19.56c.18-2.65.24-5.16.24-7.44v-6.9h4v7c0,2.28-.06,4.8-.24,7.38Zm-37.2-2.22a49.8,49.8,0,0,0-6.42-9l3.42-1.56a50.25,50.25,0,0,1,6.6,8.82Zm21.9,27.35a69.41,69.41,0,0,0-8.28-11.88l3.18-1.61a65.09,65.09,0,0,1,8.58,11.51Z"/><path d="M562.34,1984.87c-.18,2.46-.36,4.92-.66,7.25,2.7,15.48,9.54,24.36,25.8,27.18a13,13,0,0,0-2.34,3.54c-14.16-3-21.24-10-25-22.2-2.88,10.08-9.06,18.18-24.84,22.38a15.91,15.91,0,0,0-2.22-3.42c22.14-5.64,24.06-19,25.08-34.79Zm-23.7,3.36h-3.9v-10.86h26.64a43.08,43.08,0,0,0-6.54-7.62l3.54-1.74a38.39,38.39,0,0,1,7,7.68l-3.24,1.68h23v10.86H581v-7.15H538.64Zm-2.22,14.93c3.72-3.06,6.6-8.16,8.28-12.54l3.48,1.5c-1.86,4.44-4.5,9.78-8.28,13.08Zm33.42,0a83.63,83.63,0,0,0,7.8-12.48l4,1.44a105.42,105.42,0,0,1-8.46,12.36Z"/><path d="M612.14,1980a53.27,53.27,0,0,1-6.54,12.59c2.1,2.28,6.3,7.2,7.38,8.52l-2.58,3.24c-1.14-1.68-3.54-4.86-5.52-7.44v26H601.1v-24.6a48.14,48.14,0,0,1-7.2,6.9,13.15,13.15,0,0,0-1.92-3.78c5.88-4.14,11.94-11.64,15.36-19.13H593.12v-3.66h16.14l.78-.18Zm-9.36-2a37.61,37.61,0,0,0-5-7.74l3.06-1.86a31.9,31.9,0,0,1,5.22,7.44Zm43.2,40.25c0,2.1-.54,3.18-2.1,3.78s-4.2.6-8.64.6a10.6,10.6,0,0,0-1.2-3.42c3.24.06,6.18.06,7,.06s1.14-.3,1.14-1.08v-22H631.4a26,26,0,0,1-.54,3.12c4,3.6,8.1,8.46,9.84,12l-2.64,2.22c-1.44-3.06-4.74-7.26-8.1-10.74a25.81,25.81,0,0,1-8.76,11.64,12.53,12.53,0,0,0-2.88-2.46,23.17,23.17,0,0,0,9.48-15.78h-10v26.82h-3.78v-30.41h14.1c.06-1,.06-1.87.06-2.76v-3.66H616.16V1971H643v15.24H631.76V1990c0,.91,0,1.75-.06,2.71H646ZM619.88,1983H639v-8.75H619.88Z"/><path d="M652.7,2008.26l3.48-3.06a113.53,113.53,0,0,1,13.5,13.38L666,2021.7A97.41,97.41,0,0,0,652.7,2008.26Z"/><path d="M716.48,1976.65c-1.32,2.28-2.82,4.5-4.38,6.77v39.48h-4.26v-34.14a78.48,78.48,0,0,1-22.14,17.94,36.25,36.25,0,0,0-2.76-3.42,71.14,71.14,0,0,0,28.5-26.63H684.38v-4h51.3v4Zm.12,10.31c7.14,4.57,16.26,11.22,20.64,15.78l-3.12,3c-4.26-4.5-13.26-11.52-20.46-16.2Z"/><path d="M772,1980.67v9.24h21v3.84H747.62v-3.84h20.22v-9.24H744V1977h23.88v-8.64H772V1977h23.94v3.72Zm-20.88,20.15h38.4v22.8h-4.26v-3H755.12v3h-4Zm4,3.6v12.48h30.12v-12.48Z"/><path d="M819.8,1986.37h11.76v3.71H819.8v4.44c2.64,2,9.66,8.22,11.52,9.84l-2.4,3.3c-1.8-2-6-6.06-9.12-8.94v24.12H816V1996c-3.24,7.2-7.68,14.34-11.88,18.54a20.76,20.76,0,0,0-2.16-3.72c4.86-4.56,10.2-13,13.14-20.76H803.24v-3.71H816v-10.62c-4,.72-8.1,1.38-11.88,1.86a10.36,10.36,0,0,0-1.26-3.18c8.82-1.26,19.44-3.3,25-5.7l3,3a65.55,65.55,0,0,1-11,3.18Zm16-11h3.9v32.81h-3.9Zm18.72-5.88v48c0,2.82-.84,4.08-2.58,4.74-1.92.66-5.16.78-10.62.72a19,19,0,0,0-1.5-4c4.32.12,8,.06,9.18.06s1.56-.42,1.56-1.56v-48Z"/><path d="M881.36,2012.88a9,9,0,1,1-9.06-9A9,9,0,0,1,881.36,2012.88Zm-2.82,0a6.21,6.21,0,1,0-6.24,6.24A6.22,6.22,0,0,0,878.54,2012.88Z"/><rect class="cls-2" x="1113" y="1165" width="65" height="271" rx="12"/><path class="cls-1" d="M1158.05,1204.79a27.61,27.61,0,0,0,11.5,8.1,11.65,11.65,0,0,0-2.15,2.55,30.77,30.77,0,0,1-12.8-10.65h-15.95a34.39,34.39,0,0,1-13,11.3,11.43,11.43,0,0,0-2.15-2.55,30.39,30.39,0,0,0,11.6-8.75H1124v-2.85h10v-16.15h-7.7V1183h7.7v-5h3.3v5h18.55v-5h3.35v5h7.65v2.8h-7.65v16.15h9.8v2.85Zm-10,14.5h17.3v2.85H1127.8v-2.85h16.9v-5.6h-10.45v-2.8h10.45v-4.4h3.35v4.4h10.65v2.8h-10.65Zm-10.8-33.5v3.6h18.55v-3.6Zm0,9.8h18.55v-3.65h-18.55Zm0,6.35h18.55v-3.8h-18.55Z"/><path class="cls-1" d="M1142.25,1246.54s0,1.15,0,1.55c-.6,15.85-1.2,21.2-2.6,23a3.71,3.71,0,0,1-2.8,1.45,32.65,32.65,0,0,1-4.45,0,9.25,9.25,0,0,0-.85-3c1.75.15,3.2.15,3.9.15a1.42,1.42,0,0,0,1.45-.65c1-1.2,1.6-6,2.15-19.35h-6.8c-.55,10-2,18.25-6.45,23.65a9.53,9.53,0,0,0-2.55-2.35c5.45-6.45,5.9-17.85,6.1-31.55h-5.2v-3.1h20.1v3.1h-11.65c0,2.45-.1,4.85-.2,7.15Zm-7.9-10.45a33.47,33.47,0,0,0-4.25-7.15l2.9-1.15a31.92,31.92,0,0,1,4.4,7Zm23.85-7.45a15.26,15.26,0,0,1-.85,2.55c2.65,5.45,7.7,11.35,12.45,14a13,13,0,0,0-2.45,2.75c-4.25-2.7-8.5-8-11.4-13.3a32.61,32.61,0,0,1-11,13.6,12.79,12.79,0,0,0-2.35-2.65c5.85-3.6,10.35-10.2,12.5-17.85Zm-8.3,32.45a74,74,0,0,1,13.6,8.25l-2.25,2.9c-2.85-2.6-8.75-6.3-13.4-8.65Zm9.5-4.85a66.22,66.22,0,0,0-8.6-6.85l2.15-2.2a67.46,67.46,0,0,1,8.75,6.55Z"/><path class="cls-1" d="M1165,1281.19v29.3h-3.5v-2.55h-13.3v15.6h-3.45v-15.6h-13.4v2.75H1128v-29.5Zm-33.65,3.2V1293h13.4v-8.65Zm13.4,20.35v-8.5h-13.4v8.5Zm16.75-20.35h-13.3V1293h13.3Zm0,20.35v-8.5h-13.3v8.5Z"/><path class="cls-1" d="M1167.25,1343.09v9.3h-3.15V1346h-35.4v6.4h-3v-9.3h6.95v-12.95h27.7v12.95Zm-6.45,26.6c0,1.85-.45,2.7-1.85,3.2s-3.9.5-7.7.45a8.57,8.57,0,0,0-1.1-2.75c3,.05,5.65.05,6.4.05s1-.25,1-1v-6.2c-7.3,1.45-14.85,3-20.45,4l-1.1-3c5.4-.8,13.6-2.3,21.55-3.75V1352h-22.2v5.3c0,4.85-.65,11.55-4.35,16.2a13.29,13.29,0,0,0-2.7-2c3.45-4.25,3.85-10,3.85-14.25v-8h28.6Zm-25-26.6h7.45v-6.9H1157v-3.35h-21.2Zm2.45,11.7a75.14,75.14,0,0,1,17.7,3l-.9,2.6c-4-1.5-11.7-2.9-17.7-3.35Zm18.75-16.3h-10.75v4.6H1157Z"/><path class="cls-1" d="M1161,1390.09a51.83,51.83,0,0,1-12,19.6,49.94,49.94,0,0,0,20.5,10.5,16.79,16.79,0,0,0-2.25,3,50.92,50.92,0,0,1-20.75-11.1c-5.65,5-12.55,8.6-21,11.3a15.53,15.53,0,0,0-2-3.05c8.35-2.45,15.1-5.9,20.6-10.6a57.05,57.05,0,0,1-12.2-19.65h-7.75v-3.25h44.75v3.25Zm-25.75,0a52.13,52.13,0,0,0,11.3,17.3,47.46,47.46,0,0,0,10.7-17.3Zm11.25-3.55a38.13,38.13,0,0,0-3.8-7.8l3.4-1a39,39,0,0,1,4,7.65Z"/><path class="cls-3" d="M927,1073.5V1355c0,109.17-93.6,198.49-208,198.49H525c-114.4,0-208-89.32-208-198.49V1073.5"/><line class="cls-3" x1="413" y1="1118.1" x2="817.45" y2="1433.51"/><line class="cls-3" x1="831" y1="1118.1" x2="426.55" y2="1433.51"/></svg>