<svg id="Layer_1" data-name="Layer 1" xmlns="http://www.w3.org/2000/svg" viewBox="0 0 1242 2208"><defs><style>.cls-1{fill:#f6eabe;}.cls-2{fill:#999;}</style></defs><rect class="cls-1" width="1242" height="2208"/><rect class="cls-2" x="1113.23" y="417" width="65" height="126" rx="12"/><path d="M917.39,192.14s0,23-.79,30.17C903.9,613,892.78,747.14,860.23,787.63c-17.47,22.23-35.73,29.38-65.11,32.56-28.58,2.38-77,.79-125.45-2.39-.8-15.88-7.15-39.69-18.26-55.57C707,767,757,767.78,776.06,767.78c15.88,0,26.2-2.38,34.94-13.49,27.79-29.38,40.49-161.19,50.81-510.54H638.7C623.62,408.1,587.09,695.53,306,828.92c-7.94-13.5-24.61-32.55-39.7-42.88C394.15,728.88,468,639.16,512.46,544.67,467.2,499.41,388.6,433.51,329.05,384.29l32.55-34.94c54.78,43.67,126.24,100,172.3,142.12,33.34-90.51,41.28-181.82,46.84-247.72H300.46V192.14Z"/><path d="M384.15,1796.69a98.85,98.85,0,0,1-6.18,13.56v39.59h-3.84v-33.35a61.73,61.73,0,0,1-5.46,7,32.86,32.86,0,0,0-2.28-3.9c5.58-5.87,10.8-14.87,14-24Zm34.2,29.21c-2,1.38-4.44,2.7-6.84,4,2,5.82,5.82,11.16,10.62,13.62a15.86,15.86,0,0,0-2.64,3.06c-4.92-3-8.76-8.76-10.86-15.3-1,.54-2.1,1-3.12,1.5,2.1,6.3,1.26,12.72-1.38,15.24a6.51,6.51,0,0,1-5,1.92c-1,0-2.4-.06-3.72-.12a9.47,9.47,0,0,0-1-3.48,34.56,34.56,0,0,0,4,.24,3.38,3.38,0,0,0,3-1.14c1.44-1.32,2.1-4.86,1.44-8.94a58.72,58.72,0,0,1-19.5,11.4,11.72,11.72,0,0,0-2.34-2.82c7.44-2.22,16.26-7,21.12-11.82a24.37,24.37,0,0,0-1.62-3.66,57.71,57.71,0,0,1-16.74,9.66,16.14,16.14,0,0,0-2.22-2.64c5.82-1.74,13.38-5.58,17.52-9.3a16.53,16.53,0,0,0-2.82-3,39.59,39.59,0,0,1-12.3,6.17,14.66,14.66,0,0,0-2.28-2.58c6.54-2.1,10.86-4.62,13.68-7.25h-9.54v-9.36c-1.08,1-2.22,1.92-3.42,2.88a9.62,9.62,0,0,0-2.64-2.52,45.51,45.51,0,0,0,13.92-16.26l3.84.72a35.7,35.7,0,0,1-2,3.54h11.1l.78-.18,2.34,1.68a52.13,52.13,0,0,1-4.8,6.84h13v12.66H399.93a16.53,16.53,0,0,1-1.38,1.62,22.17,22.17,0,0,1,6,7.85,118.29,118.29,0,0,0,11.1-6.66Zm-25-23.09a54.58,54.58,0,0,1-4.2,5.16h11.58a33.35,33.35,0,0,0,3.72-5.16Zm-4,14.69H398a15.14,15.14,0,0,0,2.46-6.42h-11.1Zm24.72-6.42H403.83a18.56,18.56,0,0,1-1.8,6.42h12.06Z"/><path d="M447.39,1808.63a67.9,67.9,0,0,1-7.2,12.24v28.85h-4v-24a41.57,41.57,0,0,1-7.26,6.41,17,17,0,0,0-2-3.48c7-5,12.3-12.23,16.14-20H428.25v-3.84h16.44a65.25,65.25,0,0,0,3.3-9.42l4.08,1c-.9,2.82-1.86,5.64-3,8.4h31.26v3.84Zm32.94,36.23v3.72H444.21v-3.72h16v-17.52H446.55v-3.71h13.68v-11.82h4v11.82H478v3.71h-13.8v17.52Z"/><path d="M538.47,1801.91s-.06,1.74-.06,2.28c-1,29.33-1.86,39.53-4.5,42.65a6.25,6.25,0,0,1-5.1,2.52,73.91,73.91,0,0,1-10.08-.18,10.57,10.57,0,0,0-1.44-4.26c4.44.42,8.52.42,10.08.42a3.08,3.08,0,0,0,2.7-1c2.28-2.28,3.3-12.3,4.08-38.51H512.37c-.78,15.65-3,35.09-22.26,44.33a11.79,11.79,0,0,0-3-3.24c18.54-8.52,20.22-26.75,20.88-41.09H489.57v-4Z"/><path d="M596.49,1804.13c-.9,30-1.8,40.19-4.32,43.25a6.06,6.06,0,0,1-4.86,2.52,75.41,75.41,0,0,1-9.48-.18,10,10,0,0,0-1.38-4.14c4.2.36,8,.42,9.42.42a3,3,0,0,0,2.64-1c2-2.22,3.06-12.42,3.9-39.29H575.13c-.9,14.33-3.48,34.73-24.42,44.27a15.53,15.53,0,0,0-2.88-3.18c20.34-8.7,22.26-28.07,23-41.09H550v-3.84h46.5Zm-37.08,9.6c-1.2,6.53-3.36,13.67-8.28,17.81l-3.12-2.28c4.56-3.66,6.84-10.19,7.92-16.49Z"/><path d="M661,1843.18v4H607.53v-4h22.62v-46.85h4.14v18.54h22.62v4H634.29v24.3Z"/><path d="M718.59,1813.61v36.17h-4V1847H669.93V1814H674v29.15h40.56v-29.57Zm-.24-10.56H670.23v-3.72h48.12Zm-38.64,33.77v-26.75h28.8v26.75Zm3.42-15.06h9.12v-8.27h-9.12Zm0,11.64h9.12V1825h-9.12ZM705,1813.49h-9.18v8.27H705Zm0,11.51h-9.18v8.4H705Z"/><path d="M781.59,1819.91v4.31H727.11v-4.31Z"/><path d="M787.05,1848.28c3.18-2.76,6.3-7.62,8.22-12.06l3.78,1c-2,4.68-5.1,9.72-8.4,12.84Zm47-15.9H794.43v-18.71h17.34v-18.3h4v6.54h22.86v3.78H815.73v8h18.36Zm-4-15H798.21v11.29h31.86Zm-21.36,20a62.7,62.7,0,0,1,1.5,11.46l-4,.54a62.86,62.86,0,0,0-1.32-11.7Zm12.18-.48a57.11,57.11,0,0,1,4.44,11.46l-3.84.9a60.69,60.69,0,0,0-4.2-11.52Zm12.06-1a65.41,65.41,0,0,1,8,12l-3.78,1.56a62.77,62.77,0,0,0-7.74-12.24Z"/><path d="M848.19,1848.7c4.68-2,7.26-4.92,7.56-9.18a7.35,7.35,0,0,1-1.14.12c-2.34,0-4.26-1.38-4.26-4.08a4,4,0,0,1,4.32-4.14c3.18,0,4.86,2.64,4.86,6.66,0,6.48-4,11.28-10.08,13.44Z"/><path d="M417.63,1896.88l-8.1,2.52v17.76c0,2.4-.6,3.42-2,4.08s-3.84.78-7.8.72a14,14,0,0,0-1.26-3.66c2.76.06,5.34.06,6.06.06s1.14-.3,1.14-1.14V1900.6l-8,2.46-1.2-3.89c2.52-.67,5.76-1.57,9.24-2.59v-13.25h-8.52v-3.78h8.52v-12.18h3.9v12.18h7.2v3.78h-7.2v12.11c2.46-.77,5-1.5,7.56-2.27Zm25.68-9.84c3.36,0,3.9-1,4.26-7.61a12.2,12.2,0,0,0,3.72,1.56c-.66,7.8-1.92,9.72-7.74,9.72H429.21c-6.6,0-8.46-1.14-8.46-6.06v-17h4v9.12c7.26-1.56,15.24-3.66,19.74-5.64l3.12,2.94c-6,2.4-15,4.5-22.86,6v4.62c0,2,.72,2.39,4.62,2.39Zm-22.5,8.94h28v25.74h-4v-2.52H424.59V1922h-3.78Zm3.78,3.48v6.36h20.22v-6.36Zm20.22,16.38v-6.72H424.59v6.72Z"/><path d="M472.83,1897.48a55.25,55.25,0,0,1-12.66,19.08,26.09,26.09,0,0,0-3.54-2.4,46.53,46.53,0,0,0,12.12-17.7Zm37.62-11.1v4H486.39v26.34c0,2.7-.72,3.84-2.64,4.56s-5.52.72-10.8.72a16.61,16.61,0,0,0-1.44-4.2c4.2.12,8,.18,9.12.12s1.5-.36,1.5-1.32v-26.22H458v-4Zm-5.22-10.49H463.29v-4h41.94Zm-6.3,20.75c4.44,5.58,9.18,13.14,11,18.18l-4,1.74c-1.62-5-6.24-12.72-10.68-18.48Z"/><path d="M568.47,1873.91s-.06,1.74-.06,2.28c-1,29.33-1.86,39.53-4.5,42.65a6.25,6.25,0,0,1-5.1,2.52,73.91,73.91,0,0,1-10.08-.18,10.57,10.57,0,0,0-1.44-4.26c4.44.42,8.52.42,10.08.42a3.08,3.08,0,0,0,2.7-1c2.28-2.28,3.3-12.3,4.08-38.51H542.37c-.78,15.65-3,35.09-22.26,44.33a11.79,11.79,0,0,0-3-3.24c18.54-8.52,20.22-26.75,20.88-41.09H519.57v-4Z"/><path d="M626.49,1876.13c-.9,30-1.8,40.19-4.32,43.25a6.06,6.06,0,0,1-4.86,2.52,75.41,75.41,0,0,1-9.48-.18,10,10,0,0,0-1.38-4.14c4.2.36,8,.42,9.42.42a3,3,0,0,0,2.64-1c2-2.22,3.06-12.42,3.9-39.29H605.13c-.9,14.33-3.48,34.73-24.42,44.27a15.53,15.53,0,0,0-2.88-3.18c20.34-8.7,22.26-28.07,23-41.09H580v-3.84h46.5Zm-37.08,9.6c-1.2,6.53-3.36,13.67-8.28,17.81l-3.12-2.28c4.56-3.66,6.84-10.19,7.92-16.49Z"/><path d="M653.25,1868c-1,2.94-2.1,6.3-3.18,8.88h10.14v38.75h-16.8v4.8h-3.66v-43.55h6.66a64.68,64.68,0,0,0,2.58-9.72Zm3.3,12.47H643.41v13.08h13.14Zm0,31.56v-14.88H643.41v14.88Zm33.06-33.17c-1,27.53-1.8,36.71-4.2,39.59a5.6,5.6,0,0,1-4.56,2.28,74.94,74.94,0,0,1-8.82-.12,9.42,9.42,0,0,0-1.32-3.9c3.9.36,7.5.36,8.82.36s1.92-.12,2.52-.9c2-2.1,2.94-11.34,3.72-35.7H670.05a55.33,55.33,0,0,1-5.64,10.68,36.22,36.22,0,0,0-3.36-2.22c4.08-5.33,7.32-13.61,9.18-21.89l3.84.84c-.78,3-1.62,6-2.64,8.88h18.18Zm-12.78,27a106.51,106.51,0,0,0-9.3-13.92l3.06-1.79a102.47,102.47,0,0,1,9.6,13.61Z"/><path d="M715.53,1868.63a90.29,90.29,0,0,1-6.18,12.84v40.43h-4v-34.19a70.15,70.15,0,0,1-6.36,7.79,23.56,23.56,0,0,0-2.28-3.9c5.94-5.81,11.58-14.81,15.06-24Zm35.76,47v3.84H713.85v-3.84h21.06a266.82,266.82,0,0,0,5.88-30.05l4.14.77c-1.56,9.25-4,21.18-6.3,29.28Zm-2.52-33.47H716.49v-3.84h32.28Zm-24.12,30.53a209.72,209.72,0,0,0-4.2-25.8l3.6-.71a205.18,205.18,0,0,1,4.56,25.37Zm6.84-35.21a72.34,72.34,0,0,0-2.88-9.48l3.72-1a88.64,88.64,0,0,1,3.06,9.36Z"/><path d="M810.69,1917.1v3.06h-52.8v-3.06H766v-25.19h13.86c.18-1.15.48-2.41.72-3.78H758.49V1885h22.68c.18-1.2.42-2.46.6-3.6H761.49v-11.7h46.2v11.7H785.85c-.24,1.14-.48,2.4-.72,3.6h24.3v3.18h-25q-.45,2.05-.9,3.78h18.84v25.19Zm-35.34-44.45h-10v5.7h10Zm-5.52,22v3.59h28.56v-3.59Zm28.56,6.11H769.83v3.66h28.56Zm-28.56,10h28.56v-3.84H769.83Zm0,6.36h28.56v-3.9H769.83Zm9.24-38.75h10.38v-5.7H779.07Zm14,0h10.56v-5.7H793.11Z"/><path d="M835.59,1911.88a9,9,0,1,1-9.06-9A9,9,0,0,1,835.59,1911.88Zm-2.82,0a6.21,6.21,0,1,0-6.24,6.24A6.22,6.22,0,0,0,832.77,1911.88Z"/><path d="M491.13,1956.17c4.44,10.31,12.24,20,20.76,24.71a23.11,23.11,0,0,0-3.06,3.36c-9-5.58-16.92-16.32-21.6-28.07h-1v22.43h14.28v4H486.27V1994h-4.14v-11.4H467.91v-4h14.22v-22.43h-1.08c-4.74,11.75-12.66,22.43-21.3,28.25a24.18,24.18,0,0,0-2.88-3.18c8-4.92,15.66-14.76,20.16-25.07H458.37v-4h23.76v-12.72h4.14v12.72h24v4Z"/><path d="M565.83,1945.07c-4.32,12.12-10.08,22.68-18.6,31.25a65.72,65.72,0,0,0,24.42,14.1,17.56,17.56,0,0,0-2.76,3.54,66.69,66.69,0,0,1-24.66-14.76,72.92,72.92,0,0,1-25.38,14.7,14.53,14.53,0,0,0-2.16-3.36,69.86,69.86,0,0,0,24.78-14.1,89.37,89.37,0,0,1-18.18-29.27l3.6-1.08a80.51,80.51,0,0,0,17.52,27.53c8.16-8.21,13.62-18.41,17.4-29.87ZM545.25,1955a102.25,102.25,0,0,0-5.88-14.45l3.42-1.38a105.48,105.48,0,0,1,6.06,14.28Z"/><path d="M606.69,1988.62a70.7,70.7,0,0,0,7.38.36c2.1.06,14.76,0,17.58-.06a16.36,16.36,0,0,0-1.44,3.84H614c-12.3,0-19.92-1.92-24.72-10.38a31.55,31.55,0,0,1-9.48,11.7,19.84,19.84,0,0,0-3.06-2.82c6.3-4.14,10.2-10.92,11.82-19.86l4,.6a55.92,55.92,0,0,1-1.5,6.06c2.34,5.64,6.3,8.52,11.7,9.84v-18.54H578v-3.6h52.68v3.6H606.69v7.08h20v3.6h-20Zm17.22-27.17h-39.6v-19.56h39.6Zm-4-16.44H588.21v5.16h31.68Zm0,8.1H588.21v5.27h31.68Z"/><path d="M688.47,1945.91s-.06,1.74-.06,2.28c-1,29.33-1.86,39.53-4.5,42.65a6.25,6.25,0,0,1-5.1,2.52,73.91,73.91,0,0,1-10.08-.18,10.57,10.57,0,0,0-1.44-4.26c4.44.42,8.52.42,10.08.42a3.08,3.08,0,0,0,2.7-1c2.28-2.28,3.3-12.3,4.08-38.51H662.37c-.78,15.65-3,35.09-22.26,44.33a11.79,11.79,0,0,0-3-3.24c18.54-8.52,20.22-26.75,20.88-41.09H639.57v-4Z"/><path d="M746.49,1948.13c-.9,30-1.8,40.19-4.32,43.25a6.06,6.06,0,0,1-4.86,2.52,75.41,75.41,0,0,1-9.48-.18,10,10,0,0,0-1.38-4.14c4.2.36,8,.42,9.42.42a3,3,0,0,0,2.64-1c2-2.22,3.06-12.42,3.9-39.29H725.13c-.9,14.33-3.48,34.73-24.42,44.27a15.53,15.53,0,0,0-2.88-3.18c20.34-8.7,22.26-28.07,23-41.09H700v-3.84h46.5Zm-37.08,9.6c-1.2,6.53-3.36,13.67-8.28,17.81l-3.12-2.28c4.56-3.66,6.84-10.19,7.92-16.49Z"/><path d="M775.59,1983.88a9,9,0,1,1-9.06-9A9,9,0,0,1,775.59,1983.88Zm-2.82,0a6.21,6.21,0,1,0-6.24,6.24A6.22,6.22,0,0,0,772.77,1983.88Z"/><path d="M381.93,2041.06s-.06,1.32-.12,1.86c-1.08,13.56-2.1,18.84-4.08,20.82-1.26,1.32-2.46,1.68-4.56,1.8a90.37,90.37,0,0,1-9.48-.18,8,8,0,0,0-1.44-4c4,.36,8,.36,9.48.36s2-.06,2.58-.6c1.5-1.2,2.4-5.7,3.3-16.32h-22.8c1.14-4.56,2.46-11.63,3.24-17.09h19.68v-10.08h-22v-3.78h25.92v17.58h-20.1c-.6,3.3-1.2,6.72-1.86,9.65Zm18.36-29.15V2066h-4v-54.11Z"/><path d="M462.51,2019.23v33.29h-4.08v-3.18H441.15v16.5H437v-16.5h-16.8v3.54h-4v-33.65H437v-7.92h4.14v7.92Zm-42.3,3.84v9.18H437v-9.18Zm16.8,22.49V2036h-16.8v9.6Zm4.14-22.49v9.18h17.28v-9.18Zm17.28,22.49V2036H441.15v9.6Z"/><path d="M523,2025.77s-.06,1.56-.06,2.1c-1,24.11-1.86,32.51-4.2,35.27a6,6,0,0,1-4.68,2.22c-2,.12-5.88,0-9.48-.18a10,10,0,0,0-1.38-4.14,91.18,91.18,0,0,0,9.3.42c1.26,0,2-.12,2.58-.9,1.86-1.8,2.82-9.9,3.66-30.83H497.67c-1.38,11.69-6.24,25.07-21.84,35.45a14.36,14.36,0,0,0-3.12-2.88c14.7-9.6,19.44-21.78,20.88-32.57H474.45v-4H494c.18-2.64.24-5.16.24-7.44v-6.9h4v7c0,2.28-.06,4.8-.24,7.38Zm-37.2-2.22a49.8,49.8,0,0,0-6.42-9l3.42-1.56a50.25,50.25,0,0,1,6.6,8.82Zm21.9,27.35a69.41,69.41,0,0,0-8.28-11.88l3.18-1.61a65.09,65.09,0,0,1,8.58,11.51Z"/><path d="M583.47,2017.91s-.06,1.74-.06,2.28c-1,29.33-1.86,39.53-4.5,42.65a6.25,6.25,0,0,1-5.1,2.52,73.91,73.91,0,0,1-10.08-.18,10.57,10.57,0,0,0-1.44-4.26c4.44.42,8.52.42,10.08.42a3.08,3.08,0,0,0,2.7-1c2.28-2.28,3.3-12.3,4.08-38.51H557.37c-.78,15.65-3,35.09-22.26,44.33a11.79,11.79,0,0,0-3-3.24c18.54-8.52,20.22-26.75,20.88-41.09H534.57v-4Z"/><path d="M591.94,2051.26l3.48-3.06a114.21,114.21,0,0,1,13.49,13.38l-3.66,3.12A97.92,97.92,0,0,0,591.94,2051.26Z"/><path d="M641.91,2012.09c-.36.78-.78,1.44-1.2,2.22,5.76,4.5,12.54,10.56,15.9,14.46l-2.4,2.94c-3.18-3.84-9.66-9.9-15.24-14.52a67.78,67.78,0,0,1-15.9,17,20,20,0,0,0-2-3.53,55.21,55.21,0,0,0,17.52-19.86Zm12.72,42.47.12,3.48-29.58,5.52-1.08-3.9c4.62-.66,11.16-1.8,18.24-3a142.2,142.2,0,0,0,7.2-19.49l3.6,1c-2,5.69-4.68,12.71-7,17.87Zm-26.1-15.3a66.85,66.85,0,0,1,4.14,13.14l-3.36,1.2a68.48,68.48,0,0,0-3.84-13.43Zm21.24-6.47H629.55v-3.42h20.22Zm-11,18.47a89.59,89.59,0,0,0-2.7-13.38l3.18-.71a92.07,92.07,0,0,1,2.94,13.25Zm24.66.24h-3.54v-33h3.54Zm10.74-39v48.23c0,2.58-.72,3.72-2.4,4.32s-4.74.78-10,.72a13.17,13.17,0,0,0-1.32-3.6c4.14.12,7.68.06,8.64,0s1.56-.36,1.56-1.44v-48.23Z"/><path d="M690.57,2019.89a45.07,45.07,0,0,1-5.64,7.56,22,22,0,0,0-3.36-2.28,39.65,39.65,0,0,0,9.06-14.1l3.72,1a41.3,41.3,0,0,1-1.92,4.44h16.14v3.42H697.23a27.82,27.82,0,0,1,2.22,5.64l-3.54,1.26a33.3,33.3,0,0,0-2.58-6.9Zm32.82,21.95v5.58h11.4V2051h-11.4v10.14c0,2.52-.54,3.54-2.46,4.2s-5.28.66-10.26.66a14.62,14.62,0,0,0-1.5-3.78c4.26.12,7.74.12,8.88,0s1.32-.3,1.32-1.14V2051H684.21v-3.54h35.16v-5.58H682.29v-3.47h24.84v-5.76h-19v-3.42h19v-3.78c-.72-.54-1.5-1-2-1.26a29.77,29.77,0,0,0,8.7-13.08l3.78,1a47.24,47.24,0,0,1-1.92,4.44h20v3.42H722.37a26.72,26.72,0,0,1,3.48,5.76l-3.42,1.5a34.3,34.3,0,0,0-4.32-7.26h-4.32a36.43,36.43,0,0,1-3.84,5h1.26v4.32h19.5v3.42h-19.5v5.76h25.14v3.47Zm-27.6,9.48c3.9,2.4,8.4,6.12,10.44,8.94l-3.06,2.52c-2-2.82-6.3-6.66-10.26-9.24Z"/><path d="M759,2029.37h11.76v3.71H759v4.44c2.64,2,9.66,8.22,11.52,9.84l-2.4,3.3c-1.8-2-6-6.06-9.12-8.94v24.12h-3.84V2039c-3.24,7.2-7.68,14.34-11.88,18.54a20.76,20.76,0,0,0-2.16-3.72c4.86-4.56,10.2-13,13.14-20.76H742.47v-3.71h12.72v-10.62c-4,.72-8.1,1.38-11.88,1.86a10.36,10.36,0,0,0-1.26-3.18c8.82-1.26,19.44-3.3,25-5.7l3,3a65.55,65.55,0,0,1-11,3.18Zm16-11h3.9v32.81H775Zm18.72-5.88v48c0,2.82-.84,4.08-2.58,4.74-1.92.66-5.16.78-10.62.72a19,19,0,0,0-1.5-4c4.32.12,8,.06,9.18.06s1.56-.42,1.56-1.56v-48Z"/><path d="M839.07,2039.92c4.62,4,11.52,7.32,18.06,8.94a16.34,16.34,0,0,0-2.52,3.18c-1.08-.3-2.1-.66-3.18-1v14.58h-3.78v-1.44H836.31v1.8h-3.66v-18.3h11.58a39,39,0,0,1-10-7.74H823a47.4,47.4,0,0,1-9.42,7.74h11.7v17.94h-3.78v-1.44H810.81v1.8h-3.66v-14.82c-1.14.54-2.34,1-3.54,1.5a11.31,11.31,0,0,0-2.28-3.06,50,50,0,0,0,16.44-9.66H802.59v-3.54h18.66a30,30,0,0,0,4.38-6.77l4.08.72a37.8,37.8,0,0,1-3.72,6.05h17.88a38,38,0,0,0-7.74-4l2-2.16a34.58,34.58,0,0,1,8.82,4.45l-1.5,1.67h10.44v3.54Zm-13.8-9.89H807.15v-16h18.12Zm-3.72-12.48h-10.8v9h10.8Zm-.06,33.59H810.81v9.48h10.68ZM851.43,2030h-18.9v-16h18.9Zm-3.78-12.48h-11.4v9h11.4Zm0,43.07v-9.48H836.31v9.48Z"/><path d="M880.59,2055.88a9,9,0,1,1-9.06-9A9,9,0,0,1,880.59,2055.88Zm-2.82,0a6.21,6.21,0,1,0-6.24,6.24A6.22,6.22,0,0,0,877.77,2055.88Z"/><rect class="cls-2" x="1113" y="1224" width="65" height="220" rx="12"/><path class="cls-1" d="M1157.28,1262.79a27.61,27.61,0,0,0,11.5,8.1,11.65,11.65,0,0,0-2.15,2.55,30.77,30.77,0,0,1-12.8-10.65h-15.95a34.39,34.39,0,0,1-13,11.3,11.43,11.43,0,0,0-2.15-2.55,30.39,30.39,0,0,0,11.6-8.75h-11.1v-2.85h10v-16.15h-7.7V1241h7.7v-5h3.3v5H1155v-5h3.35v5H1166v2.8h-7.65v16.15h9.8v2.85Zm-10,14.5h17.3v2.85H1127v-2.85h16.9v-5.6h-10.45v-2.8h10.45v-4.4h3.35v4.4h10.65v2.8h-10.65Zm-10.8-33.5v3.6H1155v-3.6Zm0,9.8H1155v-3.65h-18.55Zm0,6.35H1155v-3.8h-18.55Z"/><path class="cls-1" d="M1141.48,1304.54s0,1.15,0,1.55c-.6,15.85-1.2,21.2-2.6,23a3.71,3.71,0,0,1-2.8,1.45,32.65,32.65,0,0,1-4.45,0,9.25,9.25,0,0,0-.85-3c1.75.15,3.2.15,3.9.15a1.42,1.42,0,0,0,1.45-.65c1-1.2,1.6-6,2.15-19.35h-6.8c-.55,10-2,18.25-6.45,23.65a9.53,9.53,0,0,0-2.55-2.35c5.45-6.45,5.9-17.85,6.1-31.55h-5.2v-3.1h20.1v3.1h-11.65c0,2.45-.1,4.85-.2,7.15Zm-7.9-10.45a33.47,33.47,0,0,0-4.25-7.15l2.9-1.15a31.92,31.92,0,0,1,4.4,7Zm23.85-7.45a15.26,15.26,0,0,1-.85,2.55c2.65,5.45,7.7,11.35,12.45,14a13,13,0,0,0-2.45,2.75c-4.25-2.7-8.5-8-11.4-13.3a32.61,32.61,0,0,1-11,13.6,12.79,12.79,0,0,0-2.35-2.65c5.85-3.6,10.35-10.2,12.5-17.85Zm-8.3,32.45a74,74,0,0,1,13.6,8.25l-2.25,2.9c-2.85-2.6-8.75-6.3-13.4-8.65Zm9.5-4.85a66.22,66.22,0,0,0-8.6-6.85l2.15-2.2a67.46,67.46,0,0,1,8.75,6.55Z"/><path class="cls-1" d="M1134.73,1349c-1.6,7.2-4.55,16.15-9.1,21.7a19.23,19.23,0,0,0-3.1-1.8c4.55-5.25,7.3-13.85,8.55-20.55Zm12.9-12.3v40c0,2.55-.7,3.6-2.35,4.2s-4.8.6-9.4.6a15.62,15.62,0,0,0-1.4-3.45c3.7.1,7.3.1,8.25.05s1.45-.35,1.45-1.4v-40Zm11.6,11.3c4.45,7,8.7,16.1,10,22l-3.45,1.45c-1.25-5.85-5.25-15.15-9.6-22.3Z"/><path class="cls-1" d="M1163.88,1413.74a72.75,72.75,0,0,1-7.65,3.65,19.75,19.75,0,0,0,12.1,9.55,10.66,10.66,0,0,0-2.1,2.6,22.77,22.77,0,0,1-12.5-11.1c-1.1.45-2.15.85-3.2,1.2,1.5,4.4.7,8.7-1.6,10.35a6,6,0,0,1-4.25,1.3c-1,0-2.25,0-3.55-.1a5.77,5.77,0,0,0-.9-2.85,30,30,0,0,0,4,.2,4.12,4.12,0,0,0,2.7-.65c1.35-1,1.9-3.75,1-6.9-5.55,3.7-14.45,7-22,8.45a11,11,0,0,0-1.45-2.4c8-1.1,17.65-4.65,22.65-8.35a13.35,13.35,0,0,0-1.25-2.15,69.47,69.47,0,0,1-17.55,6.35,7.59,7.59,0,0,0-1.4-2.15c5.8-1,13.4-3.4,17.7-5.85-.6-.55-1.25-1.15-2-1.7a80,80,0,0,1-15.25,4.15,16.41,16.41,0,0,0-1.55-2.2c5.7-.75,12.15-2.15,16.75-4.15h-18.55v-2.55h28c.3-.9.55-1.8.9-2.75h-21.7c1.25-2.8,3-7,4-10.25l3,.5a42,42,0,0,0-3.4-3.25l2-1.15h-6.25a29.23,29.23,0,0,1-5.1,5.6,25.27,25.27,0,0,0-2.35-2.2,26.89,26.89,0,0,0,7.5-9.35l3,.85c-.45.9-1,1.75-1.4,2.65h13.45v2.45h-8.3a44.9,44.9,0,0,1,4,3.65l-2.45,1.6a4.8,4.8,0,0,0-.7-.75c-.2.65-.45,1.25-.65,2h17.75l.6-.2,2.25.5c-.8,3.15-1.9,7-3,10.15h12V1411h-20.25c-.6.35-1.2.7-1.85,1a16.36,16.36,0,0,1,4.4,5.35,90.1,90.1,0,0,0,11.6-5.5Zm-10.2-10.3c.35-1.15.65-2.2,1-3.2h-17.7c-.45,1.15-.9,2.2-1.3,3.2Zm14.75-14.3v2.45h-16.6a28.84,28.84,0,0,1-4.55,5.15,15.06,15.06,0,0,0-2.55-2,21.57,21.57,0,0,0,6.7-9.1l3.1.8a26.43,26.43,0,0,1-1.25,2.7Zm-7.9,8a32.47,32.47,0,0,0-3.9-4.25l2.3-1.25a30.14,30.14,0,0,1,4,4Z"/><path class="cls-1" d="M1132.93,446.82c1.25,1.6,4.9,6.7,5.7,8.05l-2,2.45c-.7-1.5-2.35-4.4-3.75-6.65V477h-3.15V452.57c-1.5,5.05-3.5,9.9-5.55,12.85a14.83,14.83,0,0,0-1.75-3.1c2.9-4,5.8-11.5,7.2-18h-6.2v-3.15h6.3v-9.65h3.15v9.65h5.45v3.15h-5.45Zm19.1.7a19.47,19.47,0,0,0,.45,2.65c-10.15,2.7-11.6,3.15-12.5,3.75a12.13,12.13,0,0,0-1.1-3.2c.7-.2,1.55-.5,1.55-2.2v-16.7h3.25v6.5H1152v2.9h-8.35v8.3Zm2.35,5.5-2,3.75h12.65V477h-3.4v-1.75h-17v2h-3.3V456.77h7.9c.55-1.5,1.2-3.25,1.55-4.6Zm7.3,6.5h-17v5.05h17Zm0,13v-5.3h-17v5.3Zm2.25-22.4c1.25,0,1.5-.75,1.65-5.25a9.16,9.16,0,0,0,2.85,1.25c-.3,5.45-1.2,6.95-4.15,6.95h-5.85c-3.65,0-4.55-.95-4.55-4.45V431.87h3.25v6.5h10.2v2.9h-10.2v7.35c0,1.3.25,1.5,1.65,1.5Z"/><path class="cls-1" d="M1167.78,506.87v2.5h-44.15v-2.5h20.25v-3.2H1127v-2.3h16.85v-3h-15.45v-2.25h15.45v-3.2h-20.15v-2.5h20.15v-3.05H1129V485h14.85v-3.55h3.25V485h14.45v5.4h6.15v2.5h-6.15v5.45h-14.45v3h17.3v2.3h-17.3v3.2Zm-37.75,5h31.75v15.25h-3.25v-1.6h-25.3v1.7H1130Zm3.2,2.4v3.2h25.3v-3.2Zm25.3,8.85v-3.4h-25.3v3.4Zm-11.4-32.7h11.15v-3.05h-11.15Zm0,5.7h11.15v-3.2h-11.15Z"/><path d="M275,1250q24.34,23.28,50.06,45.06,27.25,23,56,44.23,14.37,10.64,29.12,20.7a19,19,0,0,0,9.48,3,19.34,19.34,0,0,0,10.17-.45A28.62,28.62,0,0,0,445,1350.87l2.57-6.09a25.78,25.78,0,0,0,0-13.56l-2.57-6.09a25.71,25.71,0,0,0-9.15-9.15q-23.08-15.75-45.2-32.85l5.16,4q-34.4-26.59-66.47-56-9.27-8.46-18.33-17.14a19,19,0,0,0-8.21-5.27,23,23,0,0,0-19.64,0A19,19,0,0,0,275,1214l-4,5.16A25.32,25.32,0,0,0,267.5,1232l.91,6.78A25.45,25.45,0,0,0,275,1250Z"/><path d="M389.89,946.68c-7.94,14.61-13.91,30.44-19.61,46q-5.23,14.32-9.73,28.89c-3.5,11.34-6.79,22.4-7.53,34.35s2.48,22.82,7.21,33.48a42.13,42.13,0,0,0,4.47,7.76,90.81,90.81,0,0,0,10.09,12.23,95,95,0,0,0,39.46,22.45c9.2,2.61,18.36,2.82,27.77,2.06,11.47-.93,22.9-2.36,34.31-3.81,25.94-3.3,51.81-7,77.68-10.77,38.09-5.55,75.43-14.84,113.38-21.13q8-1.34,16.08-2.43l-8.38,1.13c25-3.32,50.25-4.44,75.35-1.08l-8.37-1.12a190.24,190.24,0,0,1,48,12.81l-7.52-3.18a140.81,140.81,0,0,1,30.54,17.71l-6.37-4.92a118.93,118.93,0,0,1,20.65,20.63l-4.92-6.38a127.9,127.9,0,0,1,16.06,27.89l-3.18-7.52a174.78,174.78,0,0,1,11.28,43.07l-1.12-8.37c3.82,28.56,2.54,57.8-1.25,86.29l1.13-8.37a439.61,439.61,0,0,1-31,111.49l3.17-7.53a525.71,525.71,0,0,1-51.78,93.56q-8.81,12.73-18.29,25l4.92-6.37a630.06,630.06,0,0,1-87,91.35c-5.84,5-9.23,14.8-9.23,22.27,0,7.73,3.44,17,9.23,22.28,6,5.51,13.88,9.6,22.27,9.22,8.71-.39,15.67-3.53,22.28-9.22C759.66,1573.6,803.36,1523,837.53,1467a547.65,547.65,0,0,0,43.92-90.09A432.06,432.06,0,0,0,905.11,1288c10.52-69.2,10.54-150.57-41.44-204.28-23.52-24.31-55.87-39.79-88.66-46.9a269.57,269.57,0,0,0-52.12-6c-19.65-.36-39.13,1.91-58.56,4.61-37.09,5.17-73.39,14.69-110.33,20.71-18,2.94-36,5.36-54.08,7.88q-8.32,1.15-16.67,2.28l8.38-1.12c-13.07,1.75-26.15,3.45-39.27,4.83-7.71.81-16.06,2.26-23.83,1.31l8.37,1.13a53,53,0,0,1-13.09-3.8l7.53,3.17a65.38,65.38,0,0,1-13.95-8l6.37,4.93a51.57,51.57,0,0,1-8.83-8.64l4.93,6.38a41.85,41.85,0,0,1-5.23-8.77l3.18,7.53a39.71,39.71,0,0,1-2.68-9.79l1.13,8.37a44.61,44.61,0,0,1,.12-11.37l-1.12,8.38c.95-6.27,3-12.36,4.82-18.42q3.09-10.21,6.52-20.32c3.81-11.21,7.93-22.31,12.52-33.22l-3.18,7.53c2.56-6,5.22-12.06,8.35-17.83a33,33,0,0,0,3.17-24.27c-2-7.31-7.66-15.23-14.47-18.83-7.31-3.86-16.17-5.79-24.27-3.17-7.68,2.48-14.88,7.2-18.83,14.47Z"/><path d="M534.49,1102.9a253,253,0,0,1-.6,64.47L535,1159c-4.34,31.71-13.95,62.44-26.35,91.88l3.18-7.52c-12.37,29.21-27.42,57.2-43.67,84.42q-23.74,39.77-50.3,77.79-15,21.39-30.9,42.07l4.93-6.38a931.72,931.72,0,0,1-81.51,92.67q-12.47,12.35-25.46,24.15c-5.81,5.27-9.23,14.59-9.23,22.27s3.43,17,9.23,22.28c6,5.51,13.88,9.6,22.27,9.22a34.17,34.17,0,0,0,22.27-9.22,863.67,863.67,0,0,0,75.92-78.56,1138.26,1138.26,0,0,0,70.72-92.23c20.69-29.92,40.29-60.72,58.16-92.42,19.42-34.44,36.66-70.57,48.72-108.28a326.84,326.84,0,0,0,12.42-52.91c3-20.56,4.74-41.08,3.36-61.86-.3-4.5-.74-9-1.29-13.47a35,35,0,0,0-9.23-22.28c-5.46-5.46-14.42-9.57-22.27-9.22-8.15.36-16.6,3-22.27,9.22l-4.93,6.38a31.36,31.36,0,0,0-4.3,15.9Z"/><path d="M295.1,1609.79c14.2,11,28.62,21.58,44,30.9A346.35,346.35,0,0,0,378,1661.12c27.55,12.26,56,21.82,85.93,26,15.75,2.22,31.45,3.86,47.37,3.75a317.51,317.51,0,0,0,47.07-4.28c29.13-4.58,57.08-14.34,83.62-27.05,28.39-13.59,54.36-31.8,78.27-52.19q4.38-3.73,8.65-7.61a32.39,32.39,0,0,0,0-44.54c-6-5.51-13.89-9.61-22.28-9.23l-8.37,1.12a31.44,31.44,0,0,0-13.9,8.11q-10.93,9.88-22.59,18.92l6.37-4.92a326.7,326.7,0,0,1-54.64,34.33q-7.9,3.9-16,7.33l7.53-3.18a273.44,273.44,0,0,1-69.13,19l8.38-1.13a265.19,265.19,0,0,1-70.19-.06l8.37,1.12a294.07,294.07,0,0,1-74.39-20.6l7.52,3.17A356.84,356.84,0,0,1,352,1574q-9-6.18-17.59-12.85l6.37,4.93-1.11-.86a23.6,23.6,0,0,0-10.14-6.52,28.52,28.52,0,0,0-24.27,0,23.72,23.72,0,0,0-10.14,6.52c-5.51,6-9.6,13.88-9.22,22.27l1.12,8.37a31.52,31.52,0,0,0,8.1,13.9Z"/></svg>