<svg id="Layer_1" data-name="Layer 1" xmlns="http://www.w3.org/2000/svg" viewBox="0 0 1242 2208"><defs><style>.cls-1{fill:#f6eabe;}.cls-2{fill:#999;}.cls-3,.cls-4{fill:none;}.cls-4{stroke:#000;stroke-linecap:round;stroke-miterlimit:10;stroke-width:50px;}</style></defs><rect class="cls-1" width="1242" height="2208"/><path d="M510.72,167.65c-23,52.4-50.81,104-81,152.45V872.71h-50V393.14C344,441.58,305.08,485.25,266.17,521c-5.56-11.91-21.44-38.91-30.17-51.61,88.13-75.43,173.88-194.53,225.49-317.6ZM850.55,795.7c45.26,0,51.61-35.73,58-172.3,13.5,11.12,34.14,21.44,49.23,23.82C949,794.11,933.92,844.13,852.14,844.13h-154c-75.43,0-98.45-22.23-98.45-101.63V161.3h50.81V379.65H933.12v50.81H650.46V744.09c0,42.08,9.53,51.61,50.82,51.61Z"/><rect class="cls-2" x="1114" y="437" width="65" height="126" rx="12"/><path class="cls-1" d="M1133.7,466.82c1.25,1.6,4.9,6.7,5.7,8.05l-2,2.45c-.7-1.5-2.35-4.4-3.75-6.65V497h-3.15V472.57c-1.5,5.05-3.5,9.9-5.55,12.85a14.83,14.83,0,0,0-1.75-3.1c2.9-4,5.8-11.5,7.2-18h-6.2v-3.15h6.3v-9.65h3.15v9.65h5.45v3.15h-5.45Zm19.1.7a19.47,19.47,0,0,0,.45,2.65c-10.15,2.7-11.6,3.15-12.5,3.75a12.13,12.13,0,0,0-1.1-3.2c.7-.2,1.55-.5,1.55-2.2v-16.7h3.25v6.5h8.35v2.9h-8.35v8.3Zm2.35,5.5-2,3.75h12.65V497h-3.4v-1.75h-17v2h-3.3V476.77h7.9c.55-1.5,1.2-3.25,1.55-4.6Zm7.3,6.5h-17v5.05h17Zm0,13v-5.3h-17v5.3Zm2.25-22.4c1.25,0,1.5-.75,1.65-5.25a9.16,9.16,0,0,0,2.85,1.25c-.3,5.45-1.2,6.95-4.15,6.95h-5.85c-3.65,0-4.55-.95-4.55-4.45V451.87h3.25v6.5h10.2v2.9h-10.2v7.35c0,1.3.25,1.5,1.65,1.5Z"/><path class="cls-1" d="M1168.55,526.87v2.5H1124.4v-2.5h20.25v-3.2H1127.8v-2.3h16.85v-3H1129.2v-2.25h15.45v-3.2H1124.5v-2.5h20.15v-3.05H1129.8V505h14.85v-3.55h3.25V505h14.45v5.4h6.15v2.5h-6.15v5.45H1147.9v3h17.3v2.3h-17.3v3.2Zm-37.75,5h31.75v15.25h-3.25v-1.6H1134v1.7h-3.2Zm3.2,2.4v3.2h25.3v-3.2Zm25.3,8.85v-3.4H1134v3.4Zm-11.4-32.7h11.15v-3.05H1147.9Zm0,5.7h11.15v-3.2H1147.9Z"/><path d="M354.92,1796.69a98.85,98.85,0,0,1-6.18,13.56v39.59H344.9v-33.35a61.73,61.73,0,0,1-5.46,7,32.86,32.86,0,0,0-2.28-3.9c5.58-5.87,10.8-14.87,14-24Zm34.2,29.21c-2,1.38-4.44,2.7-6.84,4,2,5.82,5.82,11.16,10.62,13.62a15.86,15.86,0,0,0-2.64,3.06c-4.92-3-8.76-8.76-10.86-15.3-1,.54-2.1,1-3.12,1.5,2.1,6.3,1.26,12.72-1.38,15.24a6.51,6.51,0,0,1-5,1.92c-1,0-2.4-.06-3.72-.12a9.47,9.47,0,0,0-1-3.48,34.56,34.56,0,0,0,4,.24,3.38,3.38,0,0,0,3-1.14c1.44-1.32,2.1-4.86,1.44-8.94a58.72,58.72,0,0,1-19.5,11.4,11.72,11.72,0,0,0-2.34-2.82c7.44-2.22,16.26-7,21.12-11.82a24.37,24.37,0,0,0-1.62-3.66,57.71,57.71,0,0,1-16.74,9.66,16.14,16.14,0,0,0-2.22-2.64c5.82-1.74,13.38-5.58,17.52-9.3a16.53,16.53,0,0,0-2.82-3,39.59,39.59,0,0,1-12.3,6.17,14.66,14.66,0,0,0-2.28-2.58c6.54-2.1,10.86-4.62,13.68-7.26h-9.54v-9.35c-1.08,1-2.22,1.92-3.42,2.88a9.81,9.81,0,0,0-2.64-2.53,45.41,45.41,0,0,0,13.92-16.25l3.84.72a35.7,35.7,0,0,1-2,3.54h11.1l.78-.18,2.34,1.68a52.13,52.13,0,0,1-4.8,6.84h13v12.65H370.7a15.52,15.52,0,0,1-1.38,1.63,22.17,22.17,0,0,1,6,7.85,120.47,120.47,0,0,0,11.1-6.66Zm-25-23.09a54.58,54.58,0,0,1-4.2,5.16h11.58a33.35,33.35,0,0,0,3.72-5.16Zm-4,14.69h8.64a15.14,15.14,0,0,0,2.46-6.42h-11.1Zm24.72-6.42H374.6a18.56,18.56,0,0,1-1.8,6.42h12.06Z"/><path d="M434.42,1811.69v.35h14.34v32.64c0,2.7-.6,4-2.58,4.68s-5.64.66-11,.66a15.22,15.22,0,0,0-1.38-4c4.38.18,8.4.12,9.6.06s1.44-.36,1.44-1.44v-28.79H434.3a43,43,0,0,1-.6,6.05c3.84,4.5,8.1,10.08,10,13.56l-2.4,3a87.56,87.56,0,0,0-8.46-12.18,32.38,32.38,0,0,1-8.34,15.06,11.45,11.45,0,0,0-2.82-2.82c7-6.66,8.46-15.54,8.82-22.67H419a58.92,58.92,0,0,1-.6,6.23,62.5,62.5,0,0,1,6.36,8.94l-2.4,3.18a60.91,60.91,0,0,0-4.92-7.68,32.3,32.3,0,0,1-8.28,14.82,12.31,12.31,0,0,0-2.76-2.82c6.9-6.66,8.4-15.54,8.76-22.67h-9.84v34.25h-4v-38h13.86v-8.63H398.78v-3.84h52.5v3.84H434.42Zm-3.9.35v-8.63h-11.4V1812Z"/><path d="M489,1797c-.48.9-1,1.74-1.56,2.58,7.26,9,15.78,14.93,25.44,19.73a12.66,12.66,0,0,0-2.88,3.54c-9.3-5-17.28-10.85-24.9-20.15a71,71,0,0,1-24.66,20,17.42,17.42,0,0,0-2.94-3.47c11.22-5,22-13.92,28-23.88Zm-6,15.66H487V1850H483Z"/><path d="M544,1798.49H529.22v35.15h-4v-38.87H544Z"/><path d="M577.28,1795.55c-.06,2.1-.12,5.1-.42,8.64.9,7,4.56,32.51,25.74,42a12.63,12.63,0,0,0-2.88,3.36c-15.42-7.26-21.72-22.74-24.6-34-2.64,12.23-8.94,26.33-24.06,34.19a13.77,13.77,0,0,0-3.12-3.06c25-12.48,24.78-42.11,25-51.11Z"/><path d="M606,1846.84h14.82v-35.15h4v38.87H606Z"/><path d="M652,1817.62c2,2.05,7.68,8.59,8.94,10.2l-2.52,3.24a96.69,96.69,0,0,0-6.42-8.88v27.66h-3.78v-29.58c-2.4,7.2-5.7,14.22-9.06,18.42a27.23,27.23,0,0,0-2.16-3.6c4.2-5,8.52-14.63,10.74-23.09h-9.42v-3.72h9.9v-13H652v13h8.76V1812H652Zm38.16-18.71v50.45h-3.9v-3.48h-19v3.66H663.5v-50.63Zm-22.86,3.78v10.5h19v-10.5Zm0,25h19v-10.8h-19Zm19,14.58V1831.3h-19v10.92Z"/><path d="M751.82,1843.84v3.9h-53.4v-3.9h34.5c.54-3.06,1-6.54,1.5-10h-27.3c2-7.86,4.62-21.17,6.24-31h-13V1799H750v3.84h-32.4c-.54,3.12-1.2,6.48-1.86,10h21.6l.72-.19,2.94.37c-.78,8-2.46,21-4,30.89ZM735,1830c.6-4.92,1.2-9.71,1.62-13.5H715c-.9,4.8-1.86,9.54-2.7,13.5Z"/><path d="M775,1796.69a92,92,0,0,1-6.24,13v40.25H765v-34.32a67.29,67.29,0,0,1-6.42,7.92,20,20,0,0,0-2.28-3.9c6-5.81,11.64-14.81,15.06-24Zm37.32,26.45h-5.52v22.26c0,2.4-.6,3.48-2.46,4.08s-5.1.6-10.38.6a13.93,13.93,0,0,0-1.26-3.54c4.14.12,7.8.06,8.88.06s1.32-.36,1.32-1.2v-22.26H772.28v-3.54h40.08Zm-21.48-21.53a50.84,50.84,0,0,0,.72-5.88h4.08c-.18,2.1-.42,4.08-.72,5.88h15.78v3.48H794.06c-.24.78-.48,1.44-.72,2.16a154.19,154.19,0,0,1,17.16,8.51l-2.46,3.07a133.11,133.11,0,0,0-16.38-8.58c-2.94,4.25-7.92,7-16.56,8.7a14.62,14.62,0,0,0-2.1-3.19c10.26-1.85,14.76-5.09,16.92-10.67H774.86v-3.48Zm-10.08,40.13v3.48h-3.54v-17.34h18.06v13.86Zm0-10.8v7.74h10.92v-7.74Z"/><path d="M836.84,1823.75h3.9V1850h-3.9v-6H818.06v-2.82h18.78v-4H821v-2.82h15.84v-4H819.56v-2.88h17.28Zm33.9-14.58H819.2v-3h5.4a10.8,10.8,0,0,0-2.22-1.32,24,24,0,0,0,6.78-9.12l3.72.54c-.48,1.08-1,2.1-1.5,3.12H843v-4.08h4.08v4.08h19.32v2.82H847.1v4h23.64Zm-45.18,13.62v-10.38H865.4v10.38Zm4.08-20.58a34,34,0,0,1-3.3,4H843v-4ZM829.4,1820h32v-4.79h-32Zm42.84,24.24H853.4v5.7h-4v-26h4v3.48h17.1v2.94H853.4v4h15.84v2.82H853.4v4.14h18.84Z"/><path d="M879,1848.7c4.68-2,7.26-4.92,7.56-9.18a7.35,7.35,0,0,1-1.14.12c-2.34,0-4.26-1.38-4.26-4.08a4,4,0,0,1,4.32-4.14c3.18,0,4.86,2.64,4.86,6.66,0,6.48-4,11.28-10.08,13.44Z"/><path d="M253.52,1882.12c-3.48,13.74-9,27.06-18.84,36.12a31.63,31.63,0,0,0-2.64-3.12c9-8.1,14.22-20.33,17.46-33H234.32v-3.89h16.14c.78-3.66,1.44-7.32,2-10.86l4,.54c-.54,3.36-1.2,6.84-2,10.32h31.08v3.89Zm33.18,34.2v3.84H243.92v-3.84h19.74v-18.54H250v-3.84h33.84v3.84H267.74v18.54Z"/><path d="M304.76,1910.92c1.2.72,2.52,2,4.68,3.36,4,2.64,9.18,3.06,16.2,3.06,7.56,0,16.56-.54,22.5-1.2a16.75,16.75,0,0,0-1.26,4.5c-4.14.3-15.36.66-21.42.66-7.74,0-12.84-.66-17-3.42-2.46-1.68-4.5-3.84-5.82-3.84-2,0-4.8,3.72-7.86,8l-2.94-3.84c3.24-3.78,6.36-6.66,9-7.68v-19h-8v-3.89h12Zm-.3-30.23a69.76,69.76,0,0,0-9.3-10.14l3.06-2.22a79.17,79.17,0,0,1,9.48,9.9ZM326.9,1882c-1.2,13-4.5,23.64-15.12,30.18a11,11,0,0,0-2.88-2.88c9.9-5.82,12.9-15.54,13.92-27.3H310.58v-3.89h12.48c.18-3.18.24-6.48.3-9.84h4.2c-.06,3.36-.18,6.66-.36,9.84H345s0,1.44-.06,2c-.9,20.45-1.74,27.59-3.84,30a5.48,5.48,0,0,1-4.32,2,69.11,69.11,0,0,1-8.46-.12,9,9,0,0,0-1.38-4c3.6.36,7,.36,8.28.36a2.68,2.68,0,0,0,2.34-.78c1.56-1.62,2.46-8.34,3.3-25.62Z"/><path d="M407.36,1891.91v4.31H352.88v-4.31Z"/><path d="M442.28,1867.55c-.06,2.1-.12,5.1-.42,8.64.9,7,4.56,32.51,25.74,42a12.63,12.63,0,0,0-2.88,3.36c-15.42-7.26-21.72-22.74-24.6-34-2.64,12.23-8.94,26.33-24.06,34.19a13.77,13.77,0,0,0-3.12-3.06c25-12.48,24.78-42.11,25-51.11Z"/><path d="M526.76,1915.42v3.9h-53.4v-3.9h8.28V1887h4.08v28.43H499.4v-39.71H475.64v-3.84h49.14v3.84H503.54v16.5h19v3.89h-19v19.32Z"/><path d="M586.52,1915.42v4h-53v-4h29a198.72,198.72,0,0,0,9.12-29.27l4.56.84c-2.64,9-6.18,20.69-9.42,28.43Zm-2.34-32.75H536v-4h48.18Zm-33.9,30c-.9-7-3.54-17.58-5.82-25.55l4-.9a209.86,209.86,0,0,1,6,25.43Zm8.58-34.85a61.85,61.85,0,0,0-2.94-9.66l3.84-1.08a70.16,70.16,0,0,1,3.12,9.54Z"/><path d="M594,1920.7c4.68-2,7.26-4.92,7.56-9.18a7.35,7.35,0,0,1-1.14.12c-2.34,0-4.26-1.38-4.26-4.08a4,4,0,0,1,4.32-4.14c3.18,0,4.86,2.64,4.86,6.66,0,6.48-4,11.28-10.08,13.44Z"/><path d="M644.78,1882.54a74.71,74.71,0,0,1-5.76,11.94h32.7v27.3h-4.14v-3.12H640.22v3.42h-4v-23.4a50.91,50.91,0,0,1-11.46,11.52,21.84,21.84,0,0,0-2.64-3.18c8.64-5.94,14.46-14.76,18.36-24.48H624.08v-3.89H641.9a86,86,0,0,0,3.12-11.34l4.14.84c-.84,3.48-1.8,7-3,10.5h30v3.89Zm-4.56,15.78v16.5h27.36v-16.5Z"/><path d="M694.76,1910.92c1.2.72,2.52,2,4.68,3.36,4,2.64,9.18,3.06,16.2,3.06,7.56,0,16.56-.54,22.5-1.2a16.75,16.75,0,0,0-1.26,4.5c-4.14.3-15.36.66-21.42.66-7.74,0-12.84-.66-17-3.42-2.46-1.68-4.5-3.84-5.82-3.84-2,0-4.8,3.72-7.86,8l-2.94-3.84c3.24-3.78,6.36-6.66,9-7.68v-19h-8v-3.89h12Zm-.3-30.23a69.76,69.76,0,0,0-9.3-10.14l3.06-2.22a79.17,79.17,0,0,1,9.48,9.9ZM716.9,1882c-1.2,13-4.5,23.64-15.12,30.18a11,11,0,0,0-2.88-2.88c9.9-5.82,12.9-15.54,13.92-27.3H700.58v-3.89h12.48c.18-3.18.24-6.48.3-9.84h4.2c-.06,3.36-.18,6.66-.36,9.84H735s0,1.44-.06,2c-.9,20.45-1.74,27.59-3.84,30a5.48,5.48,0,0,1-4.32,2,69.11,69.11,0,0,1-8.46-.12,9,9,0,0,0-1.38-4c3.6.36,7,.36,8.28.36a2.68,2.68,0,0,0,2.34-.78c1.56-1.62,2.46-8.34,3.3-25.62Z"/><path d="M797.36,1891.91v4.31H742.88v-4.31Z"/><path d="M832.28,1867.55c-.06,2.1-.12,5.1-.42,8.64.9,7,4.56,32.51,25.74,42a12.63,12.63,0,0,0-2.88,3.36c-15.42-7.26-21.72-22.74-24.6-34-2.64,12.23-8.94,26.33-24.06,34.19a13.77,13.77,0,0,0-3.12-3.06c25-12.48,24.78-42.11,25-51.11Z"/><path d="M877.46,1868.63a108.55,108.55,0,0,1-4.62,12.06V1922h-3.72v-34.14a60.52,60.52,0,0,1-5.7,8.41,28.82,28.82,0,0,0-2-4c5-6,9.6-15.29,12.48-24.59Zm11.94,42.23c3.42-.6,7.08-1.38,10.62-2.1l.24,3.3c-8.7,1.86-17.82,3.78-24.36,5.1l-.72-3.6c2.94-.48,6.6-1.14,10.5-1.92V1902h-8.94v-3.42h8.94v-6.84h3.72v6.84H899V1902h-9.6Zm4.44-32.33a70,70,0,0,1,7.08,11.88l-3.12,1.5a21.1,21.1,0,0,0-1.86-4c-14.7,2.16-16.68,2.53-17.82,3.12a18.42,18.42,0,0,0-1.26-3.54c.84-.17,1.68-1.2,2.46-2.58a60.45,60.45,0,0,0,4.74-9.71H877.7v-3.42h22.08v3.42h-11.7a68.15,68.15,0,0,1-6,11.4l12.3-1.57c-1.08-1.85-2.28-3.65-3.36-5.27Zm21.06-9.48v46.61c0,2.58-.72,3.66-2.46,4.26s-4.68.72-9.36.72a17.19,17.19,0,0,0-1.56-3.66c4,.12,7.32.12,8.34.12s1.38-.42,1.38-1.38v-46.67Zm-8.64,38.27h-3.54v-35.09h3.54Z"/><path d="M976.52,1915.42v4h-53v-4h29a198.72,198.72,0,0,0,9.12-29.27l4.56.84c-2.64,9-6.18,20.69-9.42,28.43Zm-2.34-32.75H926v-4h48.18Zm-33.9,30c-.9-7-3.54-17.58-5.82-25.55l4-.9a209.86,209.86,0,0,1,6,25.43Zm8.58-34.85a61.85,61.85,0,0,0-2.94-9.66l3.84-1.08a70.16,70.16,0,0,1,3.12,9.54Z"/><path d="M1001.36,1911.88a9,9,0,1,1-9.06-9A9,9,0,0,1,1001.36,1911.88Zm-2.82,0a6.21,6.21,0,1,0-6.24,6.24A6.22,6.22,0,0,0,998.54,1911.88Z"/><path d="M459.14,1941.05c-.54.78-1.08,1.62-1.74,2.4,5.4,5.76,15.18,12.47,25,16a17.52,17.52,0,0,0-2.82,3.47,75.67,75.67,0,0,1-24.42-16.73A64.51,64.51,0,0,1,441,1958H469.4v3.72H440.78v-3.6a82.62,82.62,0,0,1-10,5.46,19,19,0,0,0-2.88-3.42c11.76-5,22.14-12.59,27.42-20.69Zm-28.62,28.37h49.32v3.84H453.38a113.31,113.31,0,0,1-12.6,14.34l28.26-2.22c-2.34-2.64-4.86-5.34-7.26-7.62l3.36-1.74c5.34,4.74,11,11.28,13.68,15.78l-3.54,2.1a37.32,37.32,0,0,0-3.42-5c-32,2.7-35.22,2.94-37.32,3.72-.24-.84-.9-3-1.38-4.14,1.26-.18,2.58-1.38,4.5-3.18A95.51,95.51,0,0,0,448,1973.26H430.52Z"/><path d="M489.08,1990.48c3.06-2.58,5.64-7,7.08-10.44l3.3,1.5c-1.68,3.6-4.08,8-7.14,10.86Zm51.72-36.9v3.25H489.56v-3.25h14.16a23.89,23.89,0,0,0-2.34-5.45l3.36-.84H492.26V1944h21.9c-.72-1.44-1.56-2.94-2.34-4.2l3.78-.9a39.9,39.9,0,0,1,2.94,5.1h19.2v3.3H525.86l3.24.78c-1,1.92-2,3.84-3,5.51Zm-7,23.7H512.66a47.07,47.07,0,0,1,8.82,6.24L519,1986a48.61,48.61,0,0,0-9.3-6.9l2-1.8H496.58V1960h37.2Zm-3.9-14.45H500.36v4.43h29.52Zm0,7.13H500.36v4.44h29.52Zm-8.22,20.16c2.58,0,3-.72,3.24-6.24a12.08,12.08,0,0,0,3.54,1.38c-.48,6.66-1.74,8.22-6.42,8.22H510.44c-5.82,0-7.38-1-7.38-5v-8H507v8c0,1.38.54,1.68,3.72,1.68ZM505,1947.29a26.19,26.19,0,0,1,2.76,6.18l-.48.11H522a59.18,59.18,0,0,0,3.06-6.29Zm27.66,32.21a46.55,46.55,0,0,1,8,10.2l-3.36,1.74a49,49,0,0,0-7.8-10.56Z"/><path d="M559.7,1984.84a41.56,41.56,0,0,1-9.72,8.94,21.07,21.07,0,0,0-2.64-2.52,32,32,0,0,0,8.88-8.28Zm16-2.58h-28v-3.36h4.08v-26.45h7.44c.24-1.44.54-3,.78-4.74H548.84v-3.24h11.58c.18-1.86.36-3.66.48-5.16l3.84.3-.72,4.86h10.32v3.24h-10.8c-.3,1.74-.6,3.3-.84,4.74h9.72v26.45h3.3Zm-20.52-27v4.13h13.68v-4.13Zm13.68,6.66H555.2v4h13.68Zm-13.68,6.53v3.9h13.68v-3.9Zm0,10.5h13.68v-4.08H555.2Zm12.06,4.14a37.63,37.63,0,0,1,6.6,5.88l-3,2.1a38.1,38.1,0,0,0-6.48-6.18Zm23.16-23.63c-.24,20.39-1.38,29.39-14.52,34.55a10.62,10.62,0,0,0-2.16-3c12.24-4.5,13.08-12.42,13.26-31.55Zm-5.4-6.72c.72-1.92,1.56-4.44,2.16-6.54H575.9v-3.42h26v3.42h-10.8c-.78,2.16-1.68,4.56-2.46,6.54h11.22v28h-3.48v-24.78H580.82v24.84h-3.36v-28.07Zm6.36,29.33a65.24,65.24,0,0,1,10.74,9l-2.4,2.64c-2.16-2.7-6.84-6.66-10.74-9.36Z"/><path d="M622.46,1940.63a108.55,108.55,0,0,1-4.62,12.06V1994h-3.72v-34.14a60.52,60.52,0,0,1-5.7,8.41,28.82,28.82,0,0,0-2-4c5-6,9.6-15.29,12.48-24.59Zm11.94,42.23c3.42-.6,7.08-1.38,10.62-2.1l.24,3.3c-8.7,1.86-17.82,3.78-24.36,5.1l-.72-3.6c2.94-.48,6.6-1.14,10.5-1.92V1974h-8.94v-3.42h8.94v-6.84h3.72v6.84H644V1974h-9.6Zm4.44-32.33a70,70,0,0,1,7.08,11.88l-3.12,1.5a21.1,21.1,0,0,0-1.86-4c-14.7,2.16-16.68,2.53-17.82,3.12a18.42,18.42,0,0,0-1.26-3.54c.84-.17,1.68-1.2,2.46-2.58a60.45,60.45,0,0,0,4.74-9.71H622.7v-3.42h22.08v3.42h-11.7a68.15,68.15,0,0,1-6,11.4l12.3-1.57c-1.08-1.85-2.28-3.65-3.36-5.27Zm21.06-9.48v46.61c0,2.58-.72,3.66-2.46,4.26s-4.68.72-9.36.72a17.19,17.19,0,0,0-1.56-3.66c4,.12,7.32.12,8.34.12s1.38-.42,1.38-1.38v-46.67Zm-8.64,38.27h-3.54v-35.09h3.54Z"/><path d="M714,1970.8c-3.42,6-8.7,10.56-15,14.16a84.08,84.08,0,0,0,23.1,5.7,11.85,11.85,0,0,0-2.22,3.48c-9.3-1.26-17.82-3.54-24.9-7.14-7.38,3.48-16,5.7-24.54,7.14a14.78,14.78,0,0,0-2-3.54,93.34,93.34,0,0,0,22.62-5.76,39.79,39.79,0,0,1-13-12.06h-4.86v-3.6h37.5l.66-.18Zm-27.78-21.71H669.44v-3.6h24.9a48.26,48.26,0,0,0-3.12-5.7l3.72-1a40.29,40.29,0,0,1,3.78,6.66h21.9v3.6H703.7v18.35h-4v-18.35H690.2v18.41h-4Zm-3.72,3.66a42.38,42.38,0,0,1-8.58,12.83,22.66,22.66,0,0,0-3.18-2.16,32.28,32.28,0,0,0,8.16-11.63Zm-.12,20A38.57,38.57,0,0,0,695,1983a37.16,37.16,0,0,0,13-10.26Zm27.24-20.57a68.22,68.22,0,0,1,10.26,11.46l-3.12,2a79.37,79.37,0,0,0-10.14-11.88Z"/><path d="M748,1940.57a84,84,0,0,1-6,11.82V1994H737.9v-35.45a58.48,58.48,0,0,1-7.38,8.57,28.37,28.37,0,0,0-2.64-3.72c6.42-5.81,12.6-14.81,16.32-24.05Zm26.28,48.35c3.24,0,3.72-2.58,4.2-12.9a15,15,0,0,0,3.9,2c-.6,11-1.74,14.88-7.92,14.88H763.58c-5.76,0-7.44-1.74-7.44-8v-11.1a92.79,92.79,0,0,1-8.52,5,23,23,0,0,0-2.94-3,88.73,88.73,0,0,0,11.46-6.84v-28.49h4.2v25.38a75.44,75.44,0,0,0,16.74-17.7l3.84,2.52a91.64,91.64,0,0,1-20.58,20.21V1985c0,3.3.66,4,3.6,4Z"/><path d="M806.36,1983.88a9,9,0,1,1-9.06-9A9,9,0,0,1,806.36,1983.88Zm-2.82,0a6.21,6.21,0,1,0-6.24,6.24A6.22,6.22,0,0,0,803.54,1983.88Z"/><path d="M491.9,2028.17c4.44,10.31,12.24,20,20.76,24.71a23.11,23.11,0,0,0-3.06,3.36c-9-5.58-16.92-16.32-21.6-28.07h-1v22.43h14.28v4H487V2066H482.9v-11.4H468.68v-4H482.9v-22.43h-1.08c-4.74,11.75-12.66,22.43-21.3,28.25a24.18,24.18,0,0,0-2.88-3.18c8-4.92,15.66-14.76,20.16-25.07H459.14v-4H482.9v-12.72H487v12.72h24v4Z"/><path d="M566.6,2017.07c-4.32,12.12-10.08,22.68-18.6,31.25a65.72,65.72,0,0,0,24.42,14.1,17.56,17.56,0,0,0-2.76,3.54A66.69,66.69,0,0,1,545,2051.2a72.92,72.92,0,0,1-25.38,14.7,14.53,14.53,0,0,0-2.16-3.36,69.86,69.86,0,0,0,24.78-14.1,89.37,89.37,0,0,1-18.18-29.27l3.6-1.08a80.51,80.51,0,0,0,17.52,27.53c8.16-8.21,13.62-18.41,17.4-29.87ZM546,2027a102.25,102.25,0,0,0-5.88-14.45l3.42-1.38a105.48,105.48,0,0,1,6.06,14.28Z"/><path d="M607.46,2060.62a70.7,70.7,0,0,0,7.38.36c2.1.06,14.76,0,17.58-.06a16.36,16.36,0,0,0-1.44,3.84H614.72c-12.3,0-19.92-1.92-24.72-10.38a31.55,31.55,0,0,1-9.48,11.7,19.84,19.84,0,0,0-3.06-2.82c6.3-4.14,10.2-10.92,11.82-19.86l4,.6a55.92,55.92,0,0,1-1.5,6.06c2.34,5.64,6.3,8.52,11.7,9.84v-18.54H578.72v-3.6H631.4v3.6H607.46v7.08h20v3.6h-20Zm17.22-27.17h-39.6v-19.56h39.6Zm-4-16.44H589v5.16h31.68Zm0,8.1H589v5.27h31.68Z"/><path d="M684,2042.8c-3.42,6-8.7,10.56-15,14.16a84.08,84.08,0,0,0,23.1,5.7,11.85,11.85,0,0,0-2.22,3.48c-9.3-1.26-17.82-3.54-24.9-7.14-7.38,3.48-16,5.7-24.54,7.14a14.78,14.78,0,0,0-2-3.54,93.34,93.34,0,0,0,22.62-5.76,39.79,39.79,0,0,1-13-12.06h-4.86v-3.6h37.5l.66-.18Zm-27.78-21.71H639.44v-3.6h24.9a48.26,48.26,0,0,0-3.12-5.7l3.72-1a40.29,40.29,0,0,1,3.78,6.66h21.9v3.6H673.7v18.35h-4v-18.35H660.2v18.41h-4Zm-3.72,3.66a42.38,42.38,0,0,1-8.58,12.83,22.66,22.66,0,0,0-3.18-2.16,32.28,32.28,0,0,0,8.16-11.63Zm-.12,20A38.57,38.57,0,0,0,665,2055a37.16,37.16,0,0,0,13-10.26Zm27.24-20.57a68.22,68.22,0,0,1,10.26,11.46l-3.12,2a79.37,79.37,0,0,0-10.14-11.88Z"/><path d="M718,2012.57a84,84,0,0,1-6,11.82V2066H707.9v-35.45a58.48,58.48,0,0,1-7.38,8.57,28.37,28.37,0,0,0-2.64-3.72c6.42-5.81,12.6-14.81,16.32-24.05Zm26.28,48.35c3.24,0,3.72-2.58,4.2-12.9a15,15,0,0,0,3.9,2c-.6,11-1.74,14.88-7.92,14.88H733.58c-5.76,0-7.44-1.74-7.44-8v-11.1a92.79,92.79,0,0,1-8.52,5,23,23,0,0,0-2.94-3,88.73,88.73,0,0,0,11.46-6.84v-28.49h4.2v25.38a75.44,75.44,0,0,0,16.74-17.7l3.84,2.52a91.64,91.64,0,0,1-20.58,20.21V2057c0,3.3.66,4,3.6,4Z"/><path d="M776.36,2055.88a9,9,0,1,1-9.06-9A9,9,0,0,1,776.36,2055.88Zm-2.82,0a6.21,6.21,0,1,0-6.24,6.24A6.22,6.22,0,0,0,773.54,2055.88Z"/><line class="cls-3" x1="621" y1="351" x2="621" y2="351"/><path d="M389.59,1084.87c1.92,1.39,3.81,2.81,5.69,4.25l-5.16-4a240.06,240.06,0,0,1,42.27,42.54l-4-5.16a310.53,310.53,0,0,1,39.53,68.54l-2.57-6.09c13.95,33.11,22.91,68.27,29.33,103.56q2.91,16,5.06,32.19l-.91-6.78c5.3,39.85,7.4,80,7.57,120.22.16,40.45-1.6,80.88-4,121.25-1.35,22.45-2.9,44.89-4.44,67.33-.43,6.25,3.15,13.71,7.47,18s11.68,7.75,18,7.47c6.6-.3,13.44-2.47,18-7.47a28.08,28.08,0,0,0,7.47-18c2.81-40.94,5.66-81.88,7.23-122.89,1.58-41.3,1.89-82.69-.51-124-2.47-42.72-7.73-85.5-17.16-127.25-8.64-38.21-21-75.71-39.41-110.38-17.2-32.33-40.22-62.72-68.75-85.88q-7.37-6-15-11.54c-5.06-3.65-13.88-4.16-19.65-2.57-5.92,1.63-12.33,6.21-15.24,11.72-3.13,5.92-4.7,13.09-2.57,19.65l2.57,6.09a25.48,25.48,0,0,0,9.15,9.15Z"/><line class="cls-4" x1="401.3" y1="1063.26" x2="302.81" y2="1379.52"/><path d="M830.15,1600.71c-1.92-1.39-3.81-2.81-5.69-4.25l5.16,4a239.45,239.45,0,0,1-42.27-42.55l4,5.17a310.13,310.13,0,0,1-39.53-68.54l2.57,6.09c-14-33.12-22.91-68.27-29.33-103.57q-2.91-16-5.06-32.18l.91,6.78c-5.3-39.85-7.4-80.05-7.57-120.22-.16-40.45,1.6-80.88,4-121.25,1.35-22.45,2.9-44.89,4.44-67.33.43-6.25-3.15-13.71-7.47-18s-11.68-7.75-18-7.47c-6.6.3-13.44,2.47-18,7.47a28.08,28.08,0,0,0-7.47,18c-2.81,40.94-5.66,81.88-7.23,122.89-1.59,41.3-1.89,82.69.5,124,2.48,42.72,7.74,85.5,17.17,127.25,8.63,38.21,21,75.71,39.41,110.38,17.2,32.33,40.22,62.72,68.75,85.88q7.36,6,15,11.53c5.06,3.66,13.88,4.16,19.65,2.58,5.92-1.63,12.33-6.21,15.24-11.72,3.13-5.92,4.7-13.09,2.57-19.65l-2.57-6.09a25.48,25.48,0,0,0-9.15-9.15Z"/><line class="cls-4" x1="818.44" y1="1622.32" x2="916.93" y2="1306.06"/><rect class="cls-2" x="1114" y="1203" width="65" height="271" rx="12"/><path class="cls-1" d="M1159.05,1242.79a27.61,27.61,0,0,0,11.5,8.1,11.65,11.65,0,0,0-2.15,2.55,30.77,30.77,0,0,1-12.8-10.65h-15.95a34.39,34.39,0,0,1-13,11.3,11.43,11.43,0,0,0-2.15-2.55,30.39,30.39,0,0,0,11.6-8.75H1125v-2.85h10v-16.15h-7.7V1221h7.7v-5h3.3v5h18.55v-5h3.35v5h7.65v2.8h-7.65v16.15h9.8v2.85Zm-10,14.5h17.3v2.85H1128.8v-2.85h16.9v-5.6h-10.45v-2.8h10.45v-4.4h3.35v4.4h10.65v2.8h-10.65Zm-10.8-33.5v3.6h18.55v-3.6Zm0,9.8h18.55v-3.65h-18.55Zm0,6.35h18.55v-3.8h-18.55Z"/><path class="cls-1" d="M1143.25,1284.54s0,1.15,0,1.55c-.6,15.85-1.2,21.2-2.6,23a3.71,3.71,0,0,1-2.8,1.45,32.65,32.65,0,0,1-4.45,0,9.25,9.25,0,0,0-.85-3c1.75.15,3.2.15,3.9.15a1.42,1.42,0,0,0,1.45-.65c1-1.2,1.6-6,2.15-19.35h-6.8c-.55,10-2,18.25-6.45,23.65a9.53,9.53,0,0,0-2.55-2.35c5.45-6.45,5.9-17.85,6.1-31.55h-5.2v-3.1h20.1v3.1h-11.65c0,2.45-.1,4.85-.2,7.15Zm-7.9-10.45a33.47,33.47,0,0,0-4.25-7.15l2.9-1.15a31.92,31.92,0,0,1,4.4,7Zm23.85-7.45a15.26,15.26,0,0,1-.85,2.55c2.65,5.45,7.7,11.35,12.45,14a13,13,0,0,0-2.45,2.75c-4.25-2.7-8.5-8-11.4-13.3a32.61,32.61,0,0,1-11,13.6,12.79,12.79,0,0,0-2.35-2.65c5.85-3.6,10.35-10.2,12.5-17.85Zm-8.3,32.45a74,74,0,0,1,13.6,8.25l-2.25,2.9c-2.85-2.6-8.75-6.3-13.4-8.65Zm9.5-4.85a66.22,66.22,0,0,0-8.6-6.85l2.15-2.2a67.46,67.46,0,0,1,8.75,6.55Z"/><path class="cls-1" d="M1166,1319.19v29.3h-3.5v-2.55h-13.3v15.6h-3.45v-15.6h-13.4v2.75H1129v-29.5Zm-33.65,3.2V1331h13.4v-8.65Zm13.4,20.35v-8.5h-13.4v8.5Zm16.75-20.35h-13.3V1331h13.3Zm0,20.35v-8.5h-13.3v8.5Z"/><path class="cls-1" d="M1168.25,1381.09v9.3h-3.15V1384h-35.4v6.4h-3v-9.3h6.95v-12.95h27.7v12.95Zm-6.45,26.6c0,1.85-.45,2.7-1.85,3.2s-3.9.5-7.7.45a8.57,8.57,0,0,0-1.1-2.75c3,.05,5.65.05,6.4.05s1-.25,1-1v-6.2c-7.3,1.45-14.85,3-20.45,4l-1.1-3c5.4-.8,13.6-2.3,21.55-3.75V1390h-22.2v5.3c0,4.85-.65,11.55-4.35,16.2a13.29,13.29,0,0,0-2.7-2c3.45-4.25,3.85-10,3.85-14.25v-8h28.6Zm-25-26.6h7.45v-6.9H1158v-3.35h-21.2Zm2.45,11.7a75.14,75.14,0,0,1,17.7,3l-.9,2.6c-4-1.5-11.7-2.9-17.7-3.35Zm18.75-16.3h-10.75v4.6H1158Z"/><path class="cls-1" d="M1162,1428.09a51.83,51.83,0,0,1-12,19.6,49.94,49.94,0,0,0,20.5,10.5,16.79,16.79,0,0,0-2.25,3,50.92,50.92,0,0,1-20.75-11.1c-5.65,5-12.55,8.6-21,11.3a15.53,15.53,0,0,0-2-3.05c8.35-2.45,15.1-5.9,20.6-10.6a57.05,57.05,0,0,1-12.2-19.65h-7.75v-3.25h44.75v3.25Zm-25.75,0a52.13,52.13,0,0,0,11.3,17.3,47.46,47.46,0,0,0,10.7-17.3Zm11.25-3.55a38.13,38.13,0,0,0-3.8-7.8l3.4-1a39,39,0,0,1,4,7.65Z"/></svg>