<svg id="Layer_1" data-name="Layer 1" xmlns="http://www.w3.org/2000/svg" viewBox="0 0 1242 2208"><defs><style>.cls-1{fill:#f6eabe;}.cls-2{fill:#999;}.cls-3,.cls-4{fill:none;}.cls-4{stroke:#000;stroke-linecap:round;stroke-miterlimit:10;stroke-width:50px;}</style></defs><rect class="cls-1" width="1242" height="2208"/><path d="M583.77,682.16l9.53,46.05C479,776.64,355.1,828.25,264.58,864.77L240,814c58-21.44,140.54-52.4,227.08-86.55V404.26H263V352.65H467.05V164.47h54v542.3Zm266,105.6c37.31,0,42.08-38.11,46.84-192.15,14.29,11.91,34.94,22.23,50.82,25.41-6.36,163.56-19.85,218.35-93.69,218.35h-108c-65.9,0-85.75-20.65-85.75-98.46V164.47h54V351.86h224.7v52.4H714V741.71c0,38.9,6.35,46,37.32,46Z"/><rect class="cls-2" x="1114" y="437" width="65" height="126" rx="12"/><path class="cls-1" d="M1133.7,466.82c1.25,1.6,4.9,6.7,5.7,8.05l-2,2.45c-.7-1.5-2.35-4.4-3.75-6.65V497h-3.15V472.57c-1.5,5.05-3.5,9.9-5.55,12.85a14.83,14.83,0,0,0-1.75-3.1c2.9-4,5.8-11.5,7.2-18h-6.2v-3.15h6.3v-9.65h3.15v9.65h5.45v3.15h-5.45Zm19.1.7a19.47,19.47,0,0,0,.45,2.65c-10.15,2.7-11.6,3.15-12.5,3.75a12.13,12.13,0,0,0-1.1-3.2c.7-.2,1.55-.5,1.55-2.2v-16.7h3.25v6.5h8.35v2.9h-8.35v8.3Zm2.35,5.5-2,3.75h12.65V497h-3.4v-1.75h-17v2h-3.3V476.77h7.9c.55-1.5,1.2-3.25,1.55-4.6Zm7.3,6.5h-17v5.05h17Zm0,13v-5.3h-17v5.3Zm2.25-22.4c1.25,0,1.5-.75,1.65-5.25a9.16,9.16,0,0,0,2.85,1.25c-.3,5.45-1.2,6.95-4.15,6.95h-5.85c-3.65,0-4.55-.95-4.55-4.45V451.87h3.25v6.5h10.2v2.9h-10.2v7.35c0,1.3.25,1.5,1.65,1.5Z"/><path class="cls-1" d="M1168.55,526.87v2.5H1124.4v-2.5h20.25v-3.2H1127.8v-2.3h16.85v-3H1129.2v-2.25h15.45v-3.2H1124.5v-2.5h20.15v-3.05H1129.8V505h14.85v-3.55h3.25V505h14.45v5.4h6.15v2.5h-6.15v5.45H1147.9v3h17.3v2.3h-17.3v3.2Zm-37.75,5h31.75v15.25h-3.25v-1.6H1134v1.7h-3.2Zm3.2,2.4v3.2h25.3v-3.2Zm25.3,8.85v-3.4H1134v3.4Zm-11.4-32.7h11.15v-3.05H1147.9Zm0,5.7h11.15v-3.2H1147.9Z"/><path d="M384.92,1793.69a98.85,98.85,0,0,1-6.18,13.56v39.59H374.9v-33.35a61.73,61.73,0,0,1-5.46,7,32.86,32.86,0,0,0-2.28-3.9c5.58-5.87,10.8-14.87,14-24Zm34.2,29.21c-2,1.38-4.44,2.7-6.84,4,2,5.82,5.82,11.16,10.62,13.62a15.86,15.86,0,0,0-2.64,3.06c-4.92-3-8.76-8.76-10.86-15.3-1,.54-2.1,1-3.12,1.5,2.1,6.3,1.26,12.72-1.38,15.24a6.51,6.51,0,0,1-5,1.92c-1,0-2.4-.06-3.72-.12a9.47,9.47,0,0,0-1-3.48,34.56,34.56,0,0,0,4,.24,3.38,3.38,0,0,0,3-1.14c1.44-1.32,2.1-4.86,1.44-8.94a58.72,58.72,0,0,1-19.5,11.4,11.72,11.72,0,0,0-2.34-2.82c7.44-2.22,16.26-7,21.12-11.82a24.37,24.37,0,0,0-1.62-3.66,57.71,57.71,0,0,1-16.74,9.66,16.14,16.14,0,0,0-2.22-2.64c5.82-1.74,13.38-5.58,17.52-9.3a16.53,16.53,0,0,0-2.82-3,39.59,39.59,0,0,1-12.3,6.17,14.66,14.66,0,0,0-2.28-2.58c6.54-2.1,10.86-4.62,13.68-7.26h-9.54v-9.35c-1.08,1-2.22,1.92-3.42,2.88a9.81,9.81,0,0,0-2.64-2.53,45.41,45.41,0,0,0,13.92-16.25l3.84.72a35.7,35.7,0,0,1-2,3.54h11.1l.78-.18,2.34,1.68a52.13,52.13,0,0,1-4.8,6.84h13v12.65H400.7a15.52,15.52,0,0,1-1.38,1.63,22.17,22.17,0,0,1,6,7.85,120.47,120.47,0,0,0,11.1-6.66Zm-25-23.09a54.58,54.58,0,0,1-4.2,5.16h11.58a33.35,33.35,0,0,0,3.72-5.16Zm-4,14.69h8.64a15.14,15.14,0,0,0,2.46-6.42h-11.1Zm24.72-6.42H404.6a18.56,18.56,0,0,1-1.8,6.42h12.06Z"/><path d="M464.42,1808.69v.35h14.34v32.64c0,2.7-.6,4-2.58,4.68s-5.64.66-11,.66a15.22,15.22,0,0,0-1.38-4c4.38.18,8.4.12,9.6.06s1.44-.36,1.44-1.44v-28.79H464.3a43,43,0,0,1-.6,6.05c3.84,4.5,8.1,10.08,10,13.56l-2.4,3a87.56,87.56,0,0,0-8.46-12.18,32.38,32.38,0,0,1-8.34,15.06,11.45,11.45,0,0,0-2.82-2.82c7-6.66,8.46-15.54,8.82-22.67H449a58.92,58.92,0,0,1-.6,6.23,62.5,62.5,0,0,1,6.36,8.94l-2.4,3.18a60.91,60.91,0,0,0-4.92-7.68,32.3,32.3,0,0,1-8.28,14.82,12.31,12.31,0,0,0-2.76-2.82c6.9-6.66,8.4-15.54,8.76-22.67h-9.84v34.25h-4v-38h13.86v-8.63H428.78v-3.84h52.5v3.84H464.42Zm-3.9.35v-8.63h-11.4V1809Z"/><path d="M519,1794c-.48.9-1,1.74-1.56,2.58,7.26,9,15.78,14.93,25.44,19.73a12.66,12.66,0,0,0-2.88,3.54c-9.3-5-17.28-10.85-24.9-20.15a71,71,0,0,1-24.66,20,17.42,17.42,0,0,0-2.94-3.47c11.22-5,22-13.92,28-23.88Zm-6,15.66H517V1847H513Z"/><path d="M574,1795.49H559.22v35.15h-4v-38.87H574Z"/><path d="M607.28,1792.55c-.06,2.1-.12,5.1-.42,8.64.9,7,4.56,32.51,25.74,42a12.63,12.63,0,0,0-2.88,3.36c-15.42-7.26-21.72-22.74-24.6-34-2.64,12.23-8.94,26.33-24.06,34.19a13.77,13.77,0,0,0-3.12-3.06c25-12.48,24.78-42.11,25-51.11Z"/><path d="M636,1843.84h14.82v-35.15h4v38.87H636Z"/><path d="M685.1,1809.77c-5.76,1.14-11.52,2.22-16,3.06l-.66-3.49c4.32-.65,10.44-1.67,16.68-2.69V1801H669.92v-3.3H685.1v-5.34h4v22h-4Zm28.26,32.69c0,2.28-.6,3.36-2.34,4s-4.86.66-9.6.66a16.27,16.27,0,0,0-1.32-3.6c3.54.12,7,.12,7.92.12s1.26-.36,1.26-1.2v-5.76H681.2V1847h-4v-30.65h36.12Zm-32.16-23v5.4h28.08v-5.4Zm28.08,14.1v-5.64H681.2v5.64Zm5.82-23.33c2.1,0,2.52-.72,2.7-5.17a14.46,14.46,0,0,0,3.6,1.39c-.42,5.7-1.68,7.25-5.94,7.25H705.08c-5.46,0-6.9-1.14-6.9-5.39v-16h4v7.74a81.77,81.77,0,0,0,13.86-5l2.88,2.88a94.54,94.54,0,0,1-16.74,5.34v5c0,1.55.48,1.92,3.24,1.92Z"/><path d="M746.84,1820.75h3.9V1847h-3.9v-6H728.06v-2.82h18.78v-4H731v-2.82h15.84v-4H729.56v-2.88h17.28Zm33.9-14.58H729.2v-3h5.4a10.8,10.8,0,0,0-2.22-1.32,24,24,0,0,0,6.78-9.12l3.72.54c-.48,1.08-1,2.1-1.5,3.12H753v-4.08h4.08v4.08h19.32v2.82H757.1v4h23.64Zm-45.18,13.62v-10.38H775.4v10.38Zm4.08-20.58a34,34,0,0,1-3.3,4H753v-4ZM739.4,1817h32v-4.79h-32Zm42.84,24.24H763.4v5.7h-4v-26h4v3.48h17.1v2.94H763.4v4h15.84v2.82H763.4v4.14h18.84Z"/><path d="M805.1,1809.77c-5.76,1.14-11.52,2.22-16,3.06l-.66-3.49c4.32-.65,10.44-1.67,16.68-2.69V1801H789.92v-3.3H805.1v-5.34h4v22h-4Zm28.26,32.69c0,2.28-.6,3.36-2.34,4s-4.86.66-9.6.66a16.27,16.27,0,0,0-1.32-3.6c3.54.12,7,.12,7.92.12s1.26-.36,1.26-1.2v-5.76H801.2V1847h-4v-30.65h36.12Zm-32.16-23v5.4h28.08v-5.4Zm28.08,14.1v-5.64H801.2v5.64Zm5.82-23.33c2.1,0,2.52-.72,2.7-5.17a14.46,14.46,0,0,0,3.6,1.39c-.42,5.7-1.68,7.25-5.94,7.25H825.08c-5.46,0-6.9-1.14-6.9-5.39v-16h4v7.74a81.77,81.77,0,0,0,13.86-5l2.88,2.88a94.54,94.54,0,0,1-16.74,5.34v5c0,1.55.48,1.92,3.24,1.92Z"/><path d="M849,1845.7c4.68-2,7.26-4.92,7.56-9.18a7.35,7.35,0,0,1-1.14.12c-2.34,0-4.26-1.38-4.26-4.08a4,4,0,0,1,4.32-4.14c3.18,0,4.86,2.64,4.86,6.66,0,6.48-4,11.28-10.08,13.44Z"/><path d="M457.46,1913.62a70.7,70.7,0,0,0,7.38.36c2.1.06,14.76,0,17.58-.06a16.36,16.36,0,0,0-1.44,3.84H464.72c-12.3,0-19.92-1.92-24.72-10.38a31.55,31.55,0,0,1-9.48,11.7,19.84,19.84,0,0,0-3.06-2.82c6.3-4.14,10.2-10.92,11.82-19.86l4,.6a55.92,55.92,0,0,1-1.5,6.06c2.34,5.64,6.3,8.52,11.7,9.84v-18.54H428.72v-3.6H481.4v3.6H457.46v7.08h20v3.6h-20Zm17.22-27.17h-39.6v-19.56h39.6Zm-4-16.44H439v5.16h31.68Zm0,8.1H439v5.27h31.68Z"/><path d="M514,1867.49H499.22v35.15h-4v-38.87H514Z"/><path d="M535.1,1881.77c-5.76,1.14-11.52,2.22-16,3.06l-.66-3.49c4.32-.65,10.44-1.67,16.68-2.69V1873H519.92v-3.3H535.1v-5.34h4v22h-4Zm28.26,32.69c0,2.28-.6,3.36-2.34,4s-4.86.66-9.6.66a16.27,16.27,0,0,0-1.32-3.6c3.54.12,7,.12,7.92.12s1.26-.36,1.26-1.2v-5.76H531.2V1919h-4v-30.65h36.12Zm-32.16-23v5.4h28.08v-5.4Zm28.08,14.1v-5.64H531.2v5.64Zm5.82-23.33c2.1,0,2.52-.72,2.7-5.17a14.46,14.46,0,0,0,3.6,1.39c-.42,5.7-1.68,7.25-5.94,7.25H555.08c-5.46,0-6.9-1.14-6.9-5.39v-16h4v7.74a81.77,81.77,0,0,0,13.86-5l2.88,2.88a94.54,94.54,0,0,1-16.74,5.34v5c0,1.55.48,1.92,3.24,1.92Z"/><path d="M576,1915.84h14.82v-35.15h4v38.87H576Z"/><path d="M624,1865c-1,2.94-2.1,6.3-3.18,8.88H631v38.75h-16.8v4.8h-3.66v-43.55h6.66a64.68,64.68,0,0,0,2.58-9.72Zm3.3,12.47H614.18v13.08h13.14Zm0,31.56v-14.88H614.18v14.88Zm33.06-33.17c-1,27.53-1.8,36.71-4.2,39.59a5.6,5.6,0,0,1-4.56,2.28,74.94,74.94,0,0,1-8.82-.12,9.42,9.42,0,0,0-1.32-3.9c3.9.36,7.5.36,8.82.36s1.92-.12,2.52-.9c2-2.1,2.94-11.34,3.72-35.7H640.82a55.33,55.33,0,0,1-5.64,10.68,36.22,36.22,0,0,0-3.36-2.22c4.08-5.34,7.32-13.61,9.18-21.89l3.84.84c-.78,3-1.62,6-2.64,8.88h18.18Zm-12.78,27a106.51,106.51,0,0,0-9.3-13.92l3.06-1.79a102.47,102.47,0,0,1,9.6,13.61Z"/><path d="M687.86,1903.06c-1.26-1.86-4.08-5.64-6.48-8.52v24.36H677.3v-23.64a61.07,61.07,0,0,1-7.68,7.62,13.85,13.85,0,0,0-2.22-3.66,60.27,60.27,0,0,0,16.38-20.51h-15.3v-3.66h17.28l.78-.18,2.34,1.62a62.93,62.93,0,0,1-7.44,13.43c.6.66,1.32,1.5,2.16,2.41a46.19,46.19,0,0,0,4.86-5.88l2.82,2.27c-1.86,1.92-4,4-5.82,5.64,2.1,2.28,4.14,4.56,4.92,5.46Zm-7.8-28.61a50.51,50.51,0,0,0-5.16-8.4l3.06-1.68a46,46,0,0,1,5.28,8Zm40-2.7c-.84,31-1.68,41.33-4.08,44.33a5.75,5.75,0,0,1-4.5,2.46,63.83,63.83,0,0,1-8.82-.12,10.21,10.21,0,0,0-1.2-3.84c3.78.3,7.14.36,8.52.36a2.7,2.7,0,0,0,2.46-1c2-2.28,2.88-12.48,3.72-40.55H704.06c-1,21.59-3.9,36.17-15.24,45.71a18.44,18.44,0,0,0-3.06-3.06c11-8.4,13.44-22.62,14.22-42.65h-10.2v-3.84h30.3Z"/><path d="M772.46,1878.89c-3.48,9.65-8.22,17.33-14.4,23.51a59.93,59.93,0,0,0,24.6,12.6,20.15,20.15,0,0,0-2.7,3.6,61.1,61.1,0,0,1-24.9-13.32c-6.78,5.94-15.06,10.32-25.14,13.56a18.63,18.63,0,0,0-2.46-3.66c10-2.94,18.12-7.08,24.72-12.72a68.52,68.52,0,0,1-14.64-23.57h-9.3V1875h53.7v3.9Zm-30.9,0a62.52,62.52,0,0,0,13.56,20.75A57,57,0,0,0,768,1878.89Zm13.5-4.26a45.75,45.75,0,0,0-4.56-9.36l4.08-1.2a46.78,46.78,0,0,1,4.8,9.18Z"/><path d="M806.36,1908.88a9,9,0,1,1-9.06-9A9,9,0,0,1,806.36,1908.88Zm-2.82,0a6.21,6.21,0,1,0-6.24,6.24A6.22,6.22,0,0,0,803.54,1908.88Z"/><path d="M24.68,1937.51h4.08v52.91H24.68V1976.8c-5.52,2.34-11,4.68-15.48,6.54l-1.86-4c4.38-1.44,10.86-4,17.34-6.54v-17.27H9.14v-3.84H24.68Zm31,48.17c2.88,0,3.3-2.58,3.72-12.54A9.69,9.69,0,0,0,63.2,1975c-.48,10.8-1.56,14.58-7.26,14.58H46c-5.34,0-6.9-1.68-6.9-7.68v-44.39h4v20.21a91.27,91.27,0,0,0,15.3-11.09l3,3.41c-5,4-11.94,8.17-18.3,11.76V1982c0,3.06.6,3.72,3.24,3.72Z"/><path d="M119.84,1938.83v52.07h-4.2v-3.18H74.24v3.18h-4v-52.07Zm-4.2,45.11v-41.09H74.24v41.09Zm-9.3-31.32v21.48H83.42v-21.48Zm-4,3.55H87.2v14.33h15.18Z"/><path d="M134.84,1972.48h-4v-28.79h4Zm8.16-36h4v23.64c0,12-1.32,23.09-11.82,31.13a15.44,15.44,0,0,0-3.06-2.88C141.86,1981,143,1971,143,1960.07Zm36.36,5.4v48.11h-4.08v-4.14H151.1v-4h24.18V1965H154v-4h21.24v-15.41h-23v-3.84Z"/><path d="M207.92,1967.68a15.1,15.1,0,0,0,0,3.3c-15,3.06-16.92,3.6-18.12,4.32a33.47,33.47,0,0,0-1.26-3.66c1.2-.24,2.64-1.74,4.44-4a87.43,87.43,0,0,0,6.3-8.46c-7.56,1-9.06,1.38-9.9,1.8a20.34,20.34,0,0,0-1.26-3.84c1.08-.23,2.1-1.61,3.42-3.72a92.15,92.15,0,0,0,8-16.91l3.78,1.8a97.72,97.72,0,0,1-9.78,18.11l8-.77c1.38-2.23,2.64-4.5,3.84-6.72l3.3,2a125.25,125.25,0,0,1-13.2,19Zm.9,13.8-19.5,5.64-.84-3.9c4.92-1.08,12.42-3.18,19.8-5.16Zm32.88-14.34a50.06,50.06,0,0,1-12.06,12.66c2,4.56,4.38,7.14,7.2,7.14,1.68,0,2.34-1.44,2.64-6.78a10.78,10.78,0,0,0,3,2.16c-.72,6.54-2,8.52-6,8.52-4.32,0-7.62-3.24-10-8.76a70.36,70.36,0,0,1-16,7.8,15.29,15.29,0,0,0-2.52-3.24,67.16,67.16,0,0,0,17.16-8,75.29,75.29,0,0,1-3.06-13.62l-11.58,2.23-.66-3.61,11.76-2.15c-.36-2.7-.6-5.53-.78-8.46l-9.18,1.38-.66-3.6,9.6-1.38c-.24-4.26-.36-8.58-.42-13.14h4c0,4.38.06,8.58.24,12.6l14.58-2.16.66,3.48-15,2.28c.18,2.88.42,5.63.78,8.27l15.24-2.88.66,3.54-15.48,2.95a83.84,83.84,0,0,0,2.58,11.93,44.15,44.15,0,0,0,10-10.74Zm-5.7-22a47.55,47.55,0,0,0-8.82-5.34l2.22-2.22a42.19,42.19,0,0,1,8.88,5Z"/><path d="M273.5,1970.5a27.67,27.67,0,0,0,1,3.72c-17.28,8.16-19.38,9.36-20.82,10.62a13.28,13.28,0,0,0-2.22-3.3c1.2-.66,3.42-2.52,3.42-5.22v-35.21h4.26v36ZM295,1938.89c-.9,14.34-2.52,25.32-6.54,33.83,5.28,5,11.28,11.34,14.16,15.6l-3.42,2.58a102.78,102.78,0,0,0-12.54-14.64c-4,6.48-9.6,11.34-17.94,15.12a18.64,18.64,0,0,0-2.94-3.42c19.38-7.62,23.64-22.5,25-49.31Zm-18.3,19c-1.62-3.84-5.52-9.9-8.94-14.28l3.3-1.74a70.56,70.56,0,0,1,9.24,13.91Z"/><path d="M324.68,1937.51h4.08v52.91h-4.08V1976.8c-5.52,2.34-11,4.68-15.48,6.54l-1.86-4c4.38-1.44,10.86-4,17.34-6.54v-17.27H309.14v-3.84h15.54Zm31,48.17c2.88,0,3.3-2.58,3.72-12.54a9.69,9.69,0,0,0,3.78,1.86c-.48,10.8-1.56,14.58-7.26,14.58H346c-5.34,0-6.9-1.68-6.9-7.68v-44.39h4v20.21a91.27,91.27,0,0,0,15.3-11.09l3,3.41c-5,4-11.94,8.17-18.3,11.76V1982c0,3.06.6,3.72,3.24,3.72Z"/><path d="M384,1937c-1,2.94-2.1,6.3-3.18,8.88H391v38.75h-16.8v4.8h-3.66v-43.55h6.66a64.68,64.68,0,0,0,2.58-9.72Zm3.3,12.47H374.18v13.08h13.14Zm0,31.56v-14.88H374.18v14.88Zm33.06-33.17c-1,27.53-1.8,36.71-4.2,39.59a5.6,5.6,0,0,1-4.56,2.28,74.94,74.94,0,0,1-8.82-.12,9.42,9.42,0,0,0-1.32-3.9c3.9.36,7.5.36,8.82.36s1.92-.12,2.52-.9c2-2.1,2.94-11.34,3.72-35.7H400.82a55.33,55.33,0,0,1-5.64,10.68,36.22,36.22,0,0,0-3.36-2.22c4.08-5.34,7.32-13.61,9.18-21.89l3.84.84c-.78,3-1.62,6-2.64,8.88h18.18Zm-12.78,27a106.51,106.51,0,0,0-9.3-13.92l3.06-1.79a102.47,102.47,0,0,1,9.6,13.61Z"/><path d="M444.92,1957.72a73,73,0,0,1-5.1,20.7c5.82,5.94,14.22,7.38,24.6,7.38,2.16,0,15.24,0,18.06-.06a12,12,0,0,0-1.56,3.72H464.36c-11.22,0-20-1.56-26.28-7.74a28.74,28.74,0,0,1-7.62,9.24,15.73,15.73,0,0,0-2.94-2.7,26.33,26.33,0,0,0,8-9.54,41.25,41.25,0,0,1-5.46-11.64l3-1.2a31.35,31.35,0,0,0,4.2,9.36,63.55,63.55,0,0,0,3.66-14.45h-7.74c-.9.42-2.16,1.2-2.16,1.67a18.47,18.47,0,0,0-1.62-3.24c1.08-.23,2.46-1.68,3.66-3.47a81,81,0,0,0,6.66-12H429.08v-3.6h12.18l1.32-.6,2.52,1.68a121.3,121.3,0,0,1-8.88,16H442l.72-.06Zm15.18-13H448.76v-3.24H460.1v-5.16h3.78v5.16h13.38v8h4.32v3.24h-4.32V1961H463.88v4.92h14.88V1969H463.88v5H481.1v3.24H463.88v6.3H460.1v-6.3H445.28V1974H460.1v-5H447.8v-3.12h12.3V1961H448.28v-3.17H460.1v-5H444.74v-3.24H460.1Zm3.78,0v4.8h9.78v-4.8Zm9.78,8h-9.78v5h9.78Z"/><path d="M497.54,1946.33a43.57,43.57,0,0,1-6.78,9.47,36.18,36.18,0,0,0-3.24-2.27c4.44-4.14,8.1-10.62,10.14-17.46l3.84.9c-.66,2-1.44,4-2.22,5.88H514.4v3.48h-9.3a56,56,0,0,1,2.88,7.44l-3.54,1.38a46.62,46.62,0,0,0-3.3-8.82Zm12.9,31.61c-7.68,1.8-15.84,3.6-21.84,4.92l-.84-3.72c2.7-.54,6.12-1.26,9.84-2v-16.73h-8.52v-3.61h20.76v3.61h-8.4v15.89l8.7-1.8Zm27.18,8.4a2.89,2.89,0,0,0,1.32-.24,1.51,1.51,0,0,0,.66-1.2,27.75,27.75,0,0,0,.3-4.38,7.65,7.65,0,0,0,3.12,1.56,30,30,0,0,1-.6,5.34,3.66,3.66,0,0,1-1.68,1.86,8.07,8.07,0,0,1-2.76.48h-3.06a4.61,4.61,0,0,1-3.18-1c-.9-.66-1.2-1.62-1.2-5.7v-23.46H516.86v9.78c0,7.26-1.86,16-12.06,21.54a13.47,13.47,0,0,0-2.64-2.88c9.48-5.1,10.86-12.3,10.86-18.78V1956h21.36v27.48c0,1.38.06,2.28.36,2.52a1.78,1.78,0,0,0,1.08.3Zm-16.44-40a34.16,34.16,0,0,1-5.34,8.75,23.25,23.25,0,0,0-3.36-2.21c3.72-4.08,6.54-10.2,8.16-16.62l3.84.84c-.54,1.92-1.08,3.9-1.8,5.76h18.6v3.48H530a39.41,39.41,0,0,1,4.26,7.08l-3.54,1.43a47.4,47.4,0,0,0-5-8.51Zm-.54,19.92a58.33,58.33,0,0,1,9,10.31l-3.06,2.34a63.66,63.66,0,0,0-8.82-10.68Z"/><path d="M577.16,1946.27V1953h20.76v33.17c0,2.52-.6,3.6-2.46,4.26s-5.22.66-10.08.66a16,16,0,0,0-1.44-3.66c3.9.18,7.56.12,8.58.06s1.38-.36,1.38-1.32v-29.51H556.22V1991h-4v-38h20.52v-6.72H548.84v-3.72h23.94v-6.24h4.38v6.24h24.12v3.72Zm-.42,33v10.68H573v-10.68h-13.2v-3.36H573v-6.48H561v-3.3h17.4a59.31,59.31,0,0,0,4.26-8.51l3.36,1a84.74,84.74,0,0,1-4.14,7.5h7.62v3.3H576.74v6.48h13.74v3.36Zm-9.48-21.54a27.21,27.21,0,0,1,3.9,7.14l-3.3,1.14a29.25,29.25,0,0,0-3.72-7.32Z"/><path d="M630.26,1950.71c-.18,3.29-.48,6.59-.9,10h25.5s-.06,1.37-.12,2c-1.26,17-2.4,23.46-4.8,25.8-1.26,1.38-2.64,1.8-4.86,1.92a87,87,0,0,1-10-.24,9,9,0,0,0-1.38-3.84c4.26.36,8.46.42,10,.42a4,4,0,0,0,2.82-.72c1.74-1.56,2.88-7.44,4-21.48H628.76c-1.92,10.68-6.42,20.7-17.82,26.64a11.83,11.83,0,0,0-2.88-3.12c15.54-7.68,17.1-23.46,17.82-37.31H609.44v-3.84H660.8v3.84Zm5.64-4a74.52,74.52,0,0,0-4.2-9.18l3.84-1.5a65.56,65.56,0,0,1,4.26,8.94Z"/><path d="M713.06,1965.83a37.4,37.4,0,0,1-14,15.23,73.55,73.55,0,0,0,22.56,6.12,21,21,0,0,0-2.46,3.72,70.86,70.86,0,0,1-24.06-7.62c-7.26,3.78-15.72,6.18-24.42,7.62a16.14,16.14,0,0,0-2.28-3.54,80.06,80.06,0,0,0,22.92-6.36,40.89,40.89,0,0,1-12.6-12.83l.3-.13h-2.46v-3.71h33.12l.84-.19Zm-39.66-.25h-3.78v-12H705.8a86,86,0,0,0,5.82-10.43l4,1.2a98.83,98.83,0,0,1-5.76,9.23h10.62v12h-3.9v-8.46H673.4Zm43.44-26.21c-11.7,2.52-30.24,4-45.66,4.68a13.84,13.84,0,0,0-1-3.42c15.3-.66,33.72-2.22,43.8-4.44Zm-38.28,5a34.73,34.73,0,0,1,4.38,8l-3.54,1.19a39.1,39.1,0,0,0-4.26-8.27ZM683,1968A36.27,36.27,0,0,0,695.12,1979a34.08,34.08,0,0,0,12-10.92Zm11.1-15a37.22,37.22,0,0,0-3.06-9l3.54-.78a34.58,34.58,0,0,1,3.3,8.88Z"/><path d="M749.36,1940.33c-2.4,4.92-5.34,10.67-7.92,15.36,5.82,4.91,7.26,9.29,7.26,13.07,0,3.12-.84,5.64-2.7,6.84a8.8,8.8,0,0,1-3.66,1.2,37.79,37.79,0,0,1-5.22.06,8.89,8.89,0,0,0-1.14-3.72,22.75,22.75,0,0,0,4.86.12,5.39,5.39,0,0,0,2.52-.66c1.2-.72,1.62-2.28,1.62-4.2-.06-3.36-1.62-7.44-7.5-12.29,2.4-4.26,4.86-9.48,6.66-13.62h-9.9V1991h-3.72v-52.13H746l.66-.18Zm29.76-.36v50.09h-4v-4.2H756.74v4.62H752.9V1940Zm-22.38,3.78v16.67H775.1v-16.67Zm18.36,38.39v-18H756.74v18Z"/><path d="M835.52,1987.18c2.4,0,2.88-1.5,3.12-10.2a9.66,9.66,0,0,0,3.66,1.68c-.48,9.66-1.56,12.24-6.48,12.24h-8.88c-5.1,0-6.54-1.32-6.54-6.12v-21.72H808.88c-1.14,13.26-4.14,23-19,27.9a12.28,12.28,0,0,0-2.52-3.42c14-4.26,16.38-12.84,17.34-24.48h-16.2v-3.77h24.36v-23h4v23h24.84v3.77H824.42v21.66c0,2,.48,2.46,2.88,2.46Zm-34.68-31.61a62.59,62.59,0,0,0-7.26-14.94l3.6-1.32c3.12,4.62,6.3,10.73,7.5,14.76ZM837,1940.15a154.79,154.79,0,0,1-8.46,15.3l-3.3-1.38a97.66,97.66,0,0,0,7.68-15.42Z"/><path d="M876.68,1943.69c-.84,3.12-1.8,6.42-2.7,9.06h24.66v32.93c0,2.46-.54,3.6-2.22,4.26s-4.8.72-9.12.72a12.47,12.47,0,0,0-1.38-3.78c3.54.12,6.6.06,7.5,0s1.2-.3,1.2-1.2v-29.22H883.94V1989h-4v-32.58H869.54V1989h-3.9v-32.58h-10V1991h-4v-38.27h18.24c.84-2.71,1.56-6.12,2.16-9.06H848.48v-4h53.34v4Z"/><path d="M924.68,1937.51h4.08v52.91h-4.08V1976.8c-5.52,2.34-11,4.68-15.48,6.54l-1.86-4c4.38-1.44,10.86-4,17.34-6.54v-17.27H909.14v-3.84h15.54Zm31,48.17c2.88,0,3.3-2.58,3.72-12.54a9.69,9.69,0,0,0,3.78,1.86c-.48,10.8-1.56,14.58-7.26,14.58H946c-5.34,0-6.9-1.68-6.9-7.68v-44.39h4v20.21a91.27,91.27,0,0,0,15.3-11.09l3,3.41c-5,4-11.94,8.17-18.3,11.76V1982c0,3.06.6,3.72,3.24,3.72Z"/><path d="M990.26,1950.71c-.18,3.29-.48,6.59-.9,10h25.5s-.06,1.37-.12,2c-1.26,17-2.4,23.46-4.8,25.8-1.26,1.38-2.64,1.8-4.86,1.92a87,87,0,0,1-10-.24,9,9,0,0,0-1.38-3.84c4.26.36,8.46.42,10,.42a4,4,0,0,0,2.82-.72c1.74-1.56,2.88-7.44,4-21.48H988.76c-1.92,10.68-6.42,20.7-17.82,26.64a11.83,11.83,0,0,0-2.88-3.12c15.54-7.68,17.1-23.46,17.82-37.31H969.44v-3.84h51.36v3.84Zm5.64-4a74.52,74.52,0,0,0-4.2-9.18l3.84-1.5a65.56,65.56,0,0,1,4.26,8.94Z"/><path d="M1045.1,1953.77c-5.76,1.14-11.52,2.22-16,3.06l-.66-3.49c4.32-.65,10.44-1.67,16.68-2.69V1945h-15.18v-3.3h15.18v-5.34h4v22h-4Zm28.26,32.69c0,2.28-.6,3.36-2.34,4s-4.86.66-9.6.66a16.27,16.27,0,0,0-1.32-3.6c3.54.12,7,.12,7.92.12s1.26-.36,1.26-1.2v-5.76H1041.2V1991h-4v-30.65h36.12Zm-32.16-23v5.4h28.08v-5.4Zm28.08,14.1v-5.64H1041.2v5.64Zm5.82-23.33c2.1,0,2.52-.72,2.7-5.17a14.46,14.46,0,0,0,3.6,1.39c-.42,5.7-1.68,7.25-5.94,7.25h-10.38c-5.46,0-6.9-1.14-6.9-5.39v-16h4v7.74a81.77,81.77,0,0,0,13.86-5l2.88,2.88a94.54,94.54,0,0,1-16.74,5.34v5c0,1.55.48,1.92,3.24,1.92Z"/><path d="M1109.36,1940.33c-2.4,4.92-5.34,10.67-7.92,15.36,5.82,4.91,7.26,9.29,7.26,13.07,0,3.12-.84,5.64-2.7,6.84a8.8,8.8,0,0,1-3.66,1.2,37.79,37.79,0,0,1-5.22.06,8.89,8.89,0,0,0-1.14-3.72,22.75,22.75,0,0,0,4.86.12,5.39,5.39,0,0,0,2.52-.66c1.2-.72,1.62-2.28,1.62-4.2-.06-3.36-1.62-7.44-7.5-12.29,2.4-4.26,4.86-9.48,6.66-13.62h-9.9V1991h-3.72v-52.13H1106l.66-.18Zm29.76-.36v50.09h-4v-4.2h-18.36v4.62h-3.84V1940Zm-22.38,3.78v16.67h18.36v-16.67Zm18.36,38.39v-18h-18.36v18Z"/><path d="M1195.52,1987.18c2.4,0,2.88-1.5,3.12-10.2a9.66,9.66,0,0,0,3.66,1.68c-.48,9.66-1.56,12.24-6.48,12.24h-8.88c-5.1,0-6.54-1.32-6.54-6.12v-21.72h-11.52c-1.14,13.26-4.14,23-19,27.9a12.28,12.28,0,0,0-2.52-3.42c14-4.26,16.38-12.84,17.34-24.48h-16.2v-3.77h24.36v-23h4v23h24.84v3.77h-17.22v21.66c0,2,.48,2.46,2.88,2.46Zm-34.68-31.61a62.59,62.59,0,0,0-7.26-14.94l3.6-1.32c3.12,4.62,6.3,10.73,7.5,14.76Zm36.18-15.42a154.79,154.79,0,0,1-8.46,15.3l-3.3-1.38a97.66,97.66,0,0,0,7.68-15.42Z"/><path d="M1209,1989.7c4.68-2,7.26-4.92,7.56-9.18a7.35,7.35,0,0,1-1.14.12c-2.34,0-4.26-1.38-4.26-4.08a4,4,0,0,1,4.32-4.14c3.18,0,4.86,2.64,4.86,6.66,0,6.48-4,11.28-10.08,13.44Z"/><path d="M315,2040.52c-.3,7.5-1.38,16.2-4.74,22.5a14.72,14.72,0,0,0-3.18-2.52c3.84-7.32,4.14-17.7,4.14-25.5v-20.69c7.14-.84,15.84-2.46,20.46-4.68l2.58,3.3c-4.86,2.16-12.42,3.6-19.14,4.44v5.94h16.26v17.21Zm.12-13.56v10h12.36v-10Zm47,5.46h-7.26v30.36H351v-30.36h-9.84v2.16c0,8.82-1.14,20.82-8.52,28.5a17.13,17.13,0,0,0-3.12-2.7c6.9-7.2,7.56-17.64,7.56-25.8v-20.15c7.5-1.14,16.38-3.06,21.18-5.34l2.7,3.36c-5,2.22-12.84,3.84-19.8,4.92v11.21h21Z"/><path d="M393.5,2042.5a27.67,27.67,0,0,0,1,3.72c-17.28,8.16-19.38,9.36-20.82,10.62a13.28,13.28,0,0,0-2.22-3.3c1.2-.66,3.42-2.52,3.42-5.22v-35.21h4.26v36ZM415,2010.89c-.9,14.34-2.52,25.32-6.54,33.83,5.28,5,11.28,11.34,14.16,15.6l-3.42,2.58a102.78,102.78,0,0,0-12.54-14.64c-4,6.48-9.6,11.34-17.94,15.12a18.64,18.64,0,0,0-2.94-3.42c19.38-7.62,23.64-22.5,25-49.31Zm-18.3,19c-1.62-3.84-5.52-9.9-8.94-14.28l3.3-1.74a70.56,70.56,0,0,1,9.24,13.91Z"/><path d="M454,2011.49H439.22v35.15h-4v-38.87H454Z"/><path d="M474.68,2009.51h4.08v52.91h-4.08V2048.8c-5.52,2.34-11,4.68-15.48,6.54l-1.86-4c4.38-1.44,10.86-4,17.34-6.54v-17.27H459.14v-3.84h15.54Zm31,48.17c2.88,0,3.3-2.58,3.72-12.54a9.69,9.69,0,0,0,3.78,1.86c-.48,10.8-1.56,14.58-7.26,14.58H496c-5.34,0-6.9-1.68-6.9-7.68v-44.39h4v20.21a91.27,91.27,0,0,0,15.3-11.09l3,3.41c-5,4-11.94,8.17-18.3,11.76V2054c0,3.06.6,3.72,3.24,3.72Z"/><path d="M516,2059.84h14.82v-35.15h4v38.87H516Z"/><path d="M596.06,2013.83c-3.48,13.74-9.9,24.29-18.06,32.27a57.36,57.36,0,0,0,24.78,12.78,15.56,15.56,0,0,0-2.64,3.54,58.72,58.72,0,0,1-25.2-13.56,72.49,72.49,0,0,1-25,13.62,10.78,10.78,0,0,0-2.46-3.54,70.44,70.44,0,0,0,24.6-12.84c-7.38-7.74-12.66-17.69-16.32-29.33H551v-4h41.7l.78-.24Zm-36.3,2.94c3.36,10.38,8.4,19.44,15.36,26.63a59.91,59.91,0,0,0,16.08-26.63Z"/><path d="M637.7,2038.06s-.06,1.32-.12,1.86c-1.08,13.56-2.1,18.84-4.08,20.82-1.26,1.32-2.46,1.68-4.56,1.8a90.37,90.37,0,0,1-9.48-.18,8,8,0,0,0-1.44-4c4,.36,8,.36,9.48.36s2-.06,2.58-.6c1.5-1.2,2.4-5.7,3.3-16.32h-22.8c1.14-4.56,2.46-11.63,3.24-17.09H633.5v-10.08h-22v-3.78H637.4v17.58H617.3c-.6,3.3-1.2,6.71-1.86,9.65Zm18.36-29.15V2063h-4v-54.11Z"/><path d="M718.28,2016.23v33.29H714.2v-3.18H696.92v16.5h-4.14v-16.5H676v3.54h-4v-33.65h20.76v-7.92h4.14v7.92Zm-42.3,3.84v9.18h16.8v-9.18Zm16.8,22.49V2033H676v9.6Zm4.14-22.49v9.18H714.2v-9.18Zm17.28,22.49V2033H696.92v9.6Z"/><path d="M778.76,2022.77s-.06,1.56-.06,2.1c-1,24.11-1.86,32.51-4.2,35.27a6,6,0,0,1-4.68,2.22c-2,.12-5.88,0-9.48-.18A10,10,0,0,0,759,2058a91.18,91.18,0,0,0,9.3.42c1.26,0,2-.12,2.58-.9,1.86-1.8,2.82-9.9,3.66-30.83H753.44c-1.38,11.69-6.24,25.07-21.84,35.45a14.36,14.36,0,0,0-3.12-2.88c14.7-9.6,19.44-21.78,20.88-32.57H730.22v-4h19.56c.18-2.65.24-5.16.24-7.44v-6.9h4v7c0,2.28-.06,4.8-.24,7.38Zm-37.2-2.22a49.8,49.8,0,0,0-6.42-9l3.42-1.56a50.25,50.25,0,0,1,6.6,8.82Zm21.9,27.35a69.41,69.41,0,0,0-8.28-11.88l3.18-1.61a65.09,65.09,0,0,1,8.58,11.51Z"/><path d="M804.68,2009.51h4.08v52.91h-4.08V2048.8c-5.52,2.34-11,4.68-15.48,6.54l-1.86-4c4.38-1.44,10.86-4,17.34-6.54v-17.27H789.14v-3.84h15.54Zm31,48.17c2.88,0,3.3-2.58,3.72-12.54a9.69,9.69,0,0,0,3.78,1.86c-.48,10.8-1.56,14.58-7.26,14.58H826c-5.34,0-6.9-1.68-6.9-7.68v-44.39h4v20.21a91.27,91.27,0,0,0,15.3-11.09l3,3.41c-5,4-11.94,8.17-18.3,11.76V2054c0,3.06.6,3.72,3.24,3.72Z"/><path d="M870.26,2022.71c-.18,3.29-.48,6.59-.9,10h25.5s-.06,1.37-.12,2c-1.26,17-2.4,23.46-4.8,25.8-1.26,1.38-2.64,1.8-4.86,1.92a87,87,0,0,1-10-.24,9,9,0,0,0-1.38-3.84c4.26.36,8.46.42,10,.42a4,4,0,0,0,2.82-.72c1.74-1.56,2.88-7.44,4-21.48H868.76c-1.92,10.68-6.42,20.7-17.82,26.64a11.83,11.83,0,0,0-2.88-3.12c15.54-7.68,17.1-23.46,17.82-37.31H849.44v-3.84H900.8v3.84Zm5.64-4a74.52,74.52,0,0,0-4.2-9.18l3.84-1.5a65.56,65.56,0,0,1,4.26,8.94Z"/><path d="M926.36,2052.88a9,9,0,1,1-9.06-9A9,9,0,0,1,926.36,2052.88Zm-2.82,0a6.21,6.21,0,1,0-6.24,6.24A6.22,6.22,0,0,0,923.54,2052.88Z"/><line class="cls-3" x1="621" y1="351" x2="621" y2="351"/><path d="M414.59,1084.87c1.92,1.39,3.81,2.81,5.69,4.25l-5.16-4a240.06,240.06,0,0,1,42.27,42.54l-4-5.16a310.53,310.53,0,0,1,39.53,68.54l-2.57-6.09c13.95,33.11,22.91,68.27,29.33,103.56q2.91,16,5.06,32.19l-.91-6.78c5.3,39.85,7.4,80,7.57,120.22.16,40.45-1.6,80.88-4,121.25-1.35,22.45-2.9,44.89-4.44,67.33-.43,6.25,3.15,13.71,7.47,18s11.68,7.75,18,7.47c6.6-.3,13.44-2.47,18-7.47a28.08,28.08,0,0,0,7.47-18c2.81-40.94,5.66-81.88,7.23-122.89,1.58-41.3,1.89-82.69-.51-124-2.47-42.72-7.73-85.5-17.16-127.25-8.64-38.21-21-75.71-39.41-110.38-17.2-32.33-40.22-62.72-68.75-85.88q-7.37-6-15-11.54c-5.06-3.65-13.88-4.16-19.65-2.57-5.92,1.63-12.33,6.21-15.24,11.72-3.13,5.92-4.7,13.09-2.57,19.65l2.57,6.09a25.48,25.48,0,0,0,9.15,9.15Z"/><line class="cls-4" x1="426.3" y1="1063.26" x2="327.81" y2="1379.52"/><path d="M779.41,1040.83a258.87,258.87,0,0,0-43.28,38.84A309.59,309.59,0,0,0,701.94,1127c-19.49,33.22-32.82,69.83-42.23,107.08-10.48,41.49-16.48,84.16-19.66,126.81-3.07,41.21-3.27,82.59-2,123.88,1.24,40.94,3.91,81.81,6.7,122.67l1,15.33c.46,6.81,2.53,13.09,7.47,18,4.42,4.42,11.68,7.75,18,7.47,6.59-.3,13.43-2.47,18-7.47,4.4-4.79,7.93-11.31,7.47-18-2.74-39.9-5.51-79.8-7.11-119.77-1.61-40.43-2-81,.07-121.37,1.18-22.62,3.16-45.2,6.15-67.66l-.91,6.78c5-37,12.52-74,24.43-109.4q4.49-13.36,10-26.35l-2.57,6.09a310.13,310.13,0,0,1,39.53-68.54l-4,5.16a239.72,239.72,0,0,1,42.27-42.54l-5.16,4c1.88-1.44,3.77-2.86,5.69-4.25,5.53-4,9.85-8.43,11.72-15.24,1.68-6.1.92-14.23-2.57-19.65s-8.74-10.23-15.24-11.72c-6.31-1.43-14.17-1.38-19.65,2.57Z"/><line class="cls-4" x1="793.44" y1="1063.26" x2="891.93" y2="1379.52"/><rect class="cls-2" x="1114" y="1203" width="65" height="271" rx="12"/><path class="cls-1" d="M1159.05,1242.79a27.61,27.61,0,0,0,11.5,8.1,11.65,11.65,0,0,0-2.15,2.55,30.77,30.77,0,0,1-12.8-10.65h-15.95a34.39,34.39,0,0,1-13,11.3,11.43,11.43,0,0,0-2.15-2.55,30.39,30.39,0,0,0,11.6-8.75H1125v-2.85h10v-16.15h-7.7V1221h7.7v-5h3.3v5h18.55v-5h3.35v5h7.65v2.8h-7.65v16.15h9.8v2.85Zm-10,14.5h17.3v2.85H1128.8v-2.85h16.9v-5.6h-10.45v-2.8h10.45v-4.4h3.35v4.4h10.65v2.8h-10.65Zm-10.8-33.5v3.6h18.55v-3.6Zm0,9.8h18.55v-3.65h-18.55Zm0,6.35h18.55v-3.8h-18.55Z"/><path class="cls-1" d="M1143.25,1284.54s0,1.15,0,1.55c-.6,15.85-1.2,21.2-2.6,23a3.71,3.71,0,0,1-2.8,1.45,32.65,32.65,0,0,1-4.45,0,9.25,9.25,0,0,0-.85-3c1.75.15,3.2.15,3.9.15a1.42,1.42,0,0,0,1.45-.65c1-1.2,1.6-6,2.15-19.35h-6.8c-.55,10-2,18.25-6.45,23.65a9.53,9.53,0,0,0-2.55-2.35c5.45-6.45,5.9-17.85,6.1-31.55h-5.2v-3.1h20.1v3.1h-11.65c0,2.45-.1,4.85-.2,7.15Zm-7.9-10.45a33.47,33.47,0,0,0-4.25-7.15l2.9-1.15a31.92,31.92,0,0,1,4.4,7Zm23.85-7.45a15.26,15.26,0,0,1-.85,2.55c2.65,5.45,7.7,11.35,12.45,14a13,13,0,0,0-2.45,2.75c-4.25-2.7-8.5-8-11.4-13.3a32.61,32.61,0,0,1-11,13.6,12.79,12.79,0,0,0-2.35-2.65c5.85-3.6,10.35-10.2,12.5-17.85Zm-8.3,32.45a74,74,0,0,1,13.6,8.25l-2.25,2.9c-2.85-2.6-8.75-6.3-13.4-8.65Zm9.5-4.85a66.22,66.22,0,0,0-8.6-6.85l2.15-2.2a67.46,67.46,0,0,1,8.75,6.55Z"/><path class="cls-1" d="M1166,1319.19v29.3h-3.5v-2.55h-13.3v15.6h-3.45v-15.6h-13.4v2.75H1129v-29.5Zm-33.65,3.2V1331h13.4v-8.65Zm13.4,20.35v-8.5h-13.4v8.5Zm16.75-20.35h-13.3V1331h13.3Zm0,20.35v-8.5h-13.3v8.5Z"/><path class="cls-1" d="M1168.25,1381.09v9.3h-3.15V1384h-35.4v6.4h-3v-9.3h6.95v-12.95h27.7v12.95Zm-6.45,26.6c0,1.85-.45,2.7-1.85,3.2s-3.9.5-7.7.45a8.57,8.57,0,0,0-1.1-2.75c3,.05,5.65.05,6.4.05s1-.25,1-1v-6.2c-7.3,1.45-14.85,3-20.45,4l-1.1-3c5.4-.8,13.6-2.3,21.55-3.75V1390h-22.2v5.3c0,4.85-.65,11.55-4.35,16.2a13.29,13.29,0,0,0-2.7-2c3.45-4.25,3.85-10,3.85-14.25v-8h28.6Zm-25-26.6h7.45v-6.9H1158v-3.35h-21.2Zm2.45,11.7a75.14,75.14,0,0,1,17.7,3l-.9,2.6c-4-1.5-11.7-2.9-17.7-3.35Zm18.75-16.3h-10.75v4.6H1158Z"/><path class="cls-1" d="M1162,1428.09a51.83,51.83,0,0,1-12,19.6,49.94,49.94,0,0,0,20.5,10.5,16.79,16.79,0,0,0-2.25,3,50.92,50.92,0,0,1-20.75-11.1c-5.65,5-12.55,8.6-21,11.3a15.53,15.53,0,0,0-2-3.05c8.35-2.45,15.1-5.9,20.6-10.6a57.05,57.05,0,0,1-12.2-19.65h-7.75v-3.25h44.75v3.25Zm-25.75,0a52.13,52.13,0,0,0,11.3,17.3,47.46,47.46,0,0,0,10.7-17.3Zm11.25-3.55a38.13,38.13,0,0,0-3.8-7.8l3.4-1a39,39,0,0,1,4,7.65Z"/></svg>