<svg id="Layer_1" data-name="Layer 1" xmlns="http://www.w3.org/2000/svg" viewBox="0 0 1242 2208"><defs><style>.cls-1{fill:#f6eabe;}.cls-2{fill:#999;}.cls-3{fill:none;stroke:#000;stroke-linecap:round;stroke-miterlimit:10;stroke-width:58px;}</style></defs><rect class="cls-1" width="1242" height="2208"/><path d="M907.69,560.46C837.82,512.82,698.08,440.57,589.3,389.75V816.13h-58V96h58V364.35l17.47-23c108,46.05,258.05,119.89,334.27,168.33Z"/><path d="M346.92,1815.69a98.85,98.85,0,0,1-6.18,13.56v39.59H336.9v-33.35a61.73,61.73,0,0,1-5.46,7,32.86,32.86,0,0,0-2.28-3.9c5.58-5.87,10.8-14.87,14-24Zm34.2,29.21c-2,1.38-4.44,2.7-6.84,4,2,5.82,5.82,11.16,10.62,13.62a15.86,15.86,0,0,0-2.64,3.06c-4.92-3-8.76-8.76-10.86-15.3-1,.54-2.1,1-3.12,1.5,2.1,6.3,1.26,12.72-1.38,15.24a6.51,6.51,0,0,1-5,1.92c-1,0-2.4-.06-3.72-.12a9.47,9.47,0,0,0-1-3.48,34.56,34.56,0,0,0,4,.24,3.38,3.38,0,0,0,3-1.14c1.44-1.32,2.1-4.86,1.44-8.94a58.72,58.72,0,0,1-19.5,11.4,11.72,11.72,0,0,0-2.34-2.82c7.44-2.22,16.26-7,21.12-11.82a24.37,24.37,0,0,0-1.62-3.66,57.71,57.71,0,0,1-16.74,9.66,16.14,16.14,0,0,0-2.22-2.64c5.82-1.74,13.38-5.58,17.52-9.3a16.53,16.53,0,0,0-2.82-3,39.59,39.59,0,0,1-12.3,6.17,14.66,14.66,0,0,0-2.28-2.58c6.54-2.1,10.86-4.62,13.68-7.25h-9.54v-9.36c-1.08,1-2.22,1.92-3.42,2.88a9.62,9.62,0,0,0-2.64-2.52,45.51,45.51,0,0,0,13.92-16.26l3.84.72a35.7,35.7,0,0,1-2,3.54h11.1l.78-.18,2.34,1.68a52.13,52.13,0,0,1-4.8,6.84h13v12.66H362.7a16.53,16.53,0,0,1-1.38,1.62,22.17,22.17,0,0,1,6,7.85,118.29,118.29,0,0,0,11.1-6.66Zm-25-23.09a54.58,54.58,0,0,1-4.2,5.16h11.58a33.35,33.35,0,0,0,3.72-5.16Zm-4,14.69h8.64a15.14,15.14,0,0,0,2.46-6.42h-11.1Zm24.72-6.42H366.6a18.56,18.56,0,0,1-1.8,6.42h12.06Z"/><path d="M418,1829.54v12.18h19.32v27h-4.08V1865h-32.7v4h-3.9v-27.24h17.28v-27.35H418v11.4H442.2v3.77Zm15.24,15.9h-32.7v15.78h32.7Z"/><path d="M498.06,1849.58c-5.28-3.6-15.84-9.06-24.06-12.9v32.22h-4.38v-54.41H474v20.27l1.32-1.73c8.16,3.47,19.5,9,25.26,12.72Z"/><path d="M559.92,1863.32c0,2.76-.78,4-2.64,4.68s-5.46.72-11.1.66a12.92,12.92,0,0,0-1.38-3.84c4.32.18,8.4.12,9.6.06s1.56-.42,1.56-1.56v-12.78H539.22v17.94h-4v-17.94H519.78c-.9,6.72-2.88,13.56-7.56,18.78a11.58,11.58,0,0,0-3-2.64c6.6-7.44,7.26-18,7.26-26.46v-21.59h43.44Zm-24.66-16.56v-10.5H520.38v4c0,2.11-.06,4.26-.24,6.54Zm-14.88-24.35v10.13h14.88v-10.13Zm35.58,0H539.22v10.13H556Zm0,24.35v-10.5H539.22v10.5Z"/><path d="M586,1815c-1,2.94-2.1,6.3-3.18,8.88H593v38.75h-16.8v4.8h-3.66v-43.55h6.66a64.68,64.68,0,0,0,2.58-9.72Zm3.3,12.47H576.18v13.08h13.14Zm0,31.56v-14.88H576.18v14.88Zm33.06-33.17c-1,27.53-1.8,36.71-4.2,39.59a5.6,5.6,0,0,1-4.56,2.28,74.94,74.94,0,0,1-8.82-.12,9.42,9.42,0,0,0-1.32-3.9c3.9.36,7.5.36,8.82.36s1.92-.12,2.52-.9c2-2.1,2.94-11.34,3.72-35.7H602.82a55.33,55.33,0,0,1-5.64,10.68,36.22,36.22,0,0,0-3.36-2.22c4.08-5.33,7.32-13.61,9.18-21.89l3.84.84c-.78,3-1.62,6-2.64,8.88h18.18Zm-12.78,27a106.51,106.51,0,0,0-9.3-13.92l3.06-1.79a102.47,102.47,0,0,1,9.6,13.61Z"/><path d="M676.2,1864.34c3.36,0,3.9-1.56,4.32-8.82a11.48,11.48,0,0,0,3.78,1.56c-.6,8.52-1.92,11-7.92,11H662.76c-6.24,0-8.22-1.44-8.22-7.08v-5.88H640v3.42h-4.08v-25.2c-1.2.91-2.34,1.87-3.6,2.77a11.83,11.83,0,0,0-2.82-3,57,57,0,0,0,17.46-19l4.44.84c-.66,1.14-1.32,2.22-2.1,3.36h16.2l.78-.24,2.7,1.8a54.09,54.09,0,0,1-7,9.36H677.4v25.85H658.56V1861c0,2.7.72,3.3,4.44,3.3ZM640,1840.52h14.58v-7.73H640Zm14.58,11.16v-7.92H640v7.92Zm-7.74-29.75a80.36,80.36,0,0,1-6.48,7.38h16.5a38.51,38.51,0,0,0,6.12-7.38Zm26.58,10.86H658.56v7.73h14.82Zm0,18.89v-7.92H658.56v7.92Z"/><path d="M739.26,1818.21v35.15h-4.2v-3.06h-16V1869H715V1850.3H698.88v3.3h-4v-35.39Zm-40.38,3.84v10.37H715v-10.37ZM715,1846.46v-10.2H698.88v10.2Zm20.1-24.41h-16v10.37h16Zm0,24.41v-10.2h-16v10.2Z"/><path d="M803.76,1845.44v3.24h-53.4v-3.24Zm-5.28-4H755.16v-19.25h12.18a34.52,34.52,0,0,0-4-6.42l3.24-1.5a32.26,32.26,0,0,1,4.32,6.72l-2.28,1.2h14a59.25,59.25,0,0,0,5.1-7.74l3.66,1.38a76.16,76.16,0,0,1-4.74,6.36h11.76Zm-41.16,11.28h39.54v16.08H793v-2.94H761.1V1869h-3.78Zm1.56-22.37h16.2v-5.22h-16.2Zm0,8.16h16.2v-5.34h-16.2Zm2.22,17.57v6.66H793v-6.66Zm33.48-31H778.86v5.22h15.72Zm0,8H778.86v5.34h15.72Z"/><path d="M862,1832.49v11.15h-3.78V1836H815.7v7.68H812v-11.15h8.34V1817h33.24v15.54Zm-7.74,32.15c0,2.16-.54,3.18-2.22,3.78s-4.68.6-9.24.6a10.07,10.07,0,0,0-1.32-3.36c3.6.12,6.78.06,7.68.06s1.26-.3,1.26-1.14v-5.28h-26.7V1869H819.9v-29h34.32Zm-30.54-21.42v4.86h26.7v-4.86Zm26.7,13v-5.1h-26.7v5.1Zm-26.16-36v4H840.6v8.28h9.06v-12.3Zm0,12.3H837v-5.41H824.22Z"/><path d="M923.76,1862.18v4H870.3v-4h22.62v-46.85h4.14v18.54h22.62v4H897.06v24.3Z"/><path d="M396.9,1888.83v52.07h-3.84V1938H350.94v2.94h-3.72v-52.07Zm-3.84,45.65v-42H350.94v42Zm-19.68-25.56c-.18,1.08-.36,2.1-.6,3.12,6.3,5.46,13.2,12.72,16.5,17.52l-2.88,2.4c-2.94-4.44-8.88-11-14.52-16.32-2.28,7.26-6.42,13.08-14.58,16.86a10.68,10.68,0,0,0-2.52-3.12c9.54-4.2,13.2-11.46,14.7-20.46H354.6v-3.66H370c.36-3.18.54-6.59.66-10.13h3.9c-.18,3.54-.36,6.9-.72,10.13H389.4v3.66Z"/><path d="M422.16,1933.58c-1.2-2-4.32-6.18-6.66-9.18a33.7,33.7,0,0,1-8.28,16.08,12.33,12.33,0,0,0-2.7-2.58c8.22-8.76,9.12-20,9.12-31.07v-20.1h3.48v20.1a84.82,84.82,0,0,1-.84,13.55c2,2.16,7.32,8.82,8.58,10.44Zm-10.32-34.73c-.36,4.92-1.44,11.22-3.42,15.17l-2.94-1.31c1.86-3.49,2.94-9.54,3.36-14.34Zm13.26-.84c-1.44,4-3.12,9-4.5,12.12l-2.34-1.09a106.48,106.48,0,0,0,3.72-12.41Zm29.22,38.81c1.26,0,1.56-.84,1.68-6.36a12,12,0,0,0,3.36,1.5c-.36,6.48-1.38,8.1-4.68,8.1h-5.82c-4.08,0-5.1-1-5.1-4.86v-13.5h-6.12c-.9,10-3.48,16-13.5,19.38a9.76,9.76,0,0,0-2.34-3.3c8.94-2.76,11.16-7.68,11.88-16.08h-9.36v-3.48h33.84v3.48H447.72v13.56c0,1.32.24,1.56,1.68,1.56Zm2-37.74a34.79,34.79,0,0,1-11.22,8.83c2.52,2.81,5.34,4.31,8,4.26,1.56,0,2.1-1.57,2.4-6.18a8.51,8.51,0,0,0,2.94,1.62c-.66,6.35-2,8.15-5.58,8.15-4,0-7.92-2.28-11.16-6.18a90.88,90.88,0,0,1-13.74,4.75,18.11,18.11,0,0,0-2.4-3.19,79.29,79.29,0,0,0,14-4.31,37.15,37.15,0,0,1-4.2-9.06l-9,1-.54-3.42,8.64-.9a45.83,45.83,0,0,1-1.2-7.86H437a41.74,41.74,0,0,0,1.14,7.5l18.66-1.86.54,3.36-18.24,1.86a31.62,31.62,0,0,0,3.78,7.8,29,29,0,0,0,9.84-7.44Z"/><path d="M478.38,1906.83a79.74,79.74,0,0,1-.78,12.59c2.46,2.58,9.36,10.74,11,12.78l-2.88,3.12c-1.74-2.64-5.94-8-8.94-11.58a32.63,32.63,0,0,1-9.6,16.62,13.61,13.61,0,0,0-2.76-2.82c9.18-8.52,10.26-19.86,10.26-30.71V1887h3.72Zm-6.9-8c-.3,5.46-1.5,11.7-4,15.35l-2.88-1.38c2.4-3.23,3.54-9,3.9-14.39Zm16.86-1.14c-1.92,4.14-4.26,9.18-6.18,12.35l-2.58-1.32a87.53,87.53,0,0,0,5.28-12.59Zm29.76,1.74c-1.08,27.17-2,36.29-4.44,39.23a5.52,5.52,0,0,1-4.56,2.28c-2,.12-5.4.06-8.76-.12a8.4,8.4,0,0,0-1.32-4c3.78.3,7.26.36,8.64.36a2.68,2.68,0,0,0,2.46-1c2-2.1,3.06-11.22,4-35.22H495.9a46.33,46.33,0,0,1-5.94,10.14,25.81,25.81,0,0,0-3.42-2.46c4.56-5.34,8-13.67,10-22.37l4,.72a87.85,87.85,0,0,1-3.12,10.2H518.1Zm-14.4,25.43a83.92,83.92,0,0,0-11.46-13.37l2.82-2.23c4.2,4,9.36,9.48,11.64,13.14Z"/><path d="M553.68,1893.69c-.84,3.12-1.8,6.42-2.7,9.06h24.66v32.93c0,2.46-.54,3.6-2.22,4.26s-4.8.72-9.12.72a12.47,12.47,0,0,0-1.38-3.78c3.54.12,6.6.06,7.5,0s1.2-.3,1.2-1.2v-29.22H560.94V1939h-4v-32.58H546.54V1939h-3.9v-32.58h-10V1941h-4v-38.27h18.24c.84-2.71,1.56-6.12,2.16-9.06H525.48v-4h53.34v4Z"/><path d="M637.44,1912.71H593.82v4.37c0,7-1,17.28-6.18,24.36a14.13,14.13,0,0,0-3.24-2.76c4.68-6.54,5.34-15.42,5.34-21.72v-8.16h28.74a69,69,0,0,0,5-10.19l4.2,1.38c-1.62,2.93-3.48,6.24-5.22,8.81h15Zm-1.56-15.13h-47.1v-3.83H611.7a37.36,37.36,0,0,0-3.9-6.3l3.84-1.08a28.6,28.6,0,0,1,4.56,7.2l-.48.18h20.16Zm-32.7,10.8a46.48,46.48,0,0,0-5.1-8.69l3.36-1.38a43.28,43.28,0,0,1,5.4,8.52Z"/><path d="M698.7,1935.2v3.9H645.48v-3.9H670v-15.84H652v-3.84H670V1902H655.56a48.79,48.79,0,0,1-6.36,10,27.84,27.84,0,0,0-3.6-2.41c5-5.33,8.82-13.61,11.16-22.19l4,.84a86.44,86.44,0,0,1-3.42,9.84H670v-11.7h4.14v11.7h21.72V1902H674.16v13.56h19.56v3.84H674.16v15.84Z"/><path d="M721,1887c-1,2.94-2.1,6.3-3.18,8.88H728v38.75h-16.8v4.8h-3.66v-43.55h6.66a64.68,64.68,0,0,0,2.58-9.72Zm3.3,12.47H711.18v13.08h13.14Zm0,31.56v-14.88H711.18v14.88Zm33.06-33.17c-1,27.53-1.8,36.71-4.2,39.59a5.6,5.6,0,0,1-4.56,2.28,74.94,74.94,0,0,1-8.82-.12,9.42,9.42,0,0,0-1.32-3.9c3.9.36,7.5.36,8.82.36s1.92-.12,2.52-.9c2-2.1,2.94-11.34,3.72-35.7H737.82a55.33,55.33,0,0,1-5.64,10.68,36.22,36.22,0,0,0-3.36-2.22c4.08-5.33,7.32-13.61,9.18-21.89l3.84.84c-.78,3-1.62,6-2.64,8.88h18.18Zm-12.78,27a106.51,106.51,0,0,0-9.3-13.92l3.06-1.79a102.47,102.47,0,0,1,9.6,13.61Z"/><path d="M815.28,1923.56a110.44,110.44,0,0,1-11.22,6.66,39.76,39.76,0,0,0,15.12,6.9,12.93,12.93,0,0,0-2.28,3.3c-11.58-3.06-20.4-10.14-25.26-20.22h-.06a43.53,43.53,0,0,1-9.18,6.42v9.3l15.78-2.82a19.81,19.81,0,0,0-.06,3.24c-16.68,3.36-18.6,3.84-19.92,4.56a14.35,14.35,0,0,0-1.8-3.24,4.51,4.51,0,0,0,2.16-4.08v-5.1a70,70,0,0,1-11.58,4,18.39,18.39,0,0,0-2.34-3c7.8-1.68,16.38-5.1,22.08-9.3H765.36v-3.48h26.46a29,29,0,0,0-4-5.34l3.6-1.13a27.15,27.15,0,0,1,4.56,5.88l-1.74.59H818.7v3.48H795.42a29.58,29.58,0,0,0,6.12,7.86,82.25,82.25,0,0,0,10.68-6.72Zm-39.12-25.25a42.07,42.07,0,0,1-8.34,5.64,35.63,35.63,0,0,0-2.7-2.46,30.79,30.79,0,0,0,13-10.14H767.16v-3.12h29v3.12h-14a26.17,26.17,0,0,1-2.88,3.9h11.64l.78-.12,2.28,1c-4.2,11.15-14.58,16.91-25.74,19.49a13.9,13.9,0,0,0-2-3,41.51,41.51,0,0,0,14-5.34,67.09,67.09,0,0,0-7.14-5.09l2.46-1.86a60.22,60.22,0,0,1,7.44,5.1,25.81,25.81,0,0,0,6.12-7.14Zm28,9.23h-3.66v-18h3.66Zm12.06,2.46c0,2.29-.54,3.3-2.16,3.91s-4.44.59-8.64.59A15.7,15.7,0,0,0,804,1911c3.48.12,6.48.12,7.32.06s1.14-.3,1.14-1v-23.45h3.78Z"/><path d="M842.34,1918a31.29,31.29,0,0,0,0,3.36c-13.38,2.7-15.18,3.18-16.32,3.84a27.44,27.44,0,0,0-1.2-3.54c1.14-.24,2.4-1.74,4-3.89a75.93,75.93,0,0,0,5.52-8.34c-6.54,1-7.86,1.26-8.7,1.61a25.54,25.54,0,0,0-1.26-3.72c1-.17,1.92-1.67,3.12-3.77a96.74,96.74,0,0,0,7.2-17.1l3.78,1.56a102.3,102.3,0,0,1-8.94,18.72l6.78-.72c1.14-2.11,2.28-4.32,3.24-6.54l3.36,1.86a125.94,125.94,0,0,1-11.7,18.77Zm1.08,13.38c-6.36,1.92-12.78,3.84-17.82,5.46l-.84-3.84c4.5-1.08,11.34-3,18-4.86Zm7-.3c1.08.6,2.1,1.62,3.78,2.76,2.82,2,6.24,2.58,11,2.58a126.25,126.25,0,0,0,14.22-.78,17,17,0,0,0-.9,3.84c-3.18.18-9.84.42-13.38.42-5,0-8.64-.78-11.7-2.94-2-1.5-3.54-3.12-4.62-3.12-1.62,0-4,3.12-6.42,6.72l-2.28-3.24c2.4-2.94,4.74-5.28,6.84-6.24v-19.68h-5.52V1908h9ZM847,1902a128.69,128.69,0,0,0-4.5-12.23l3.06-1c1.74,3.9,3.78,9,4.74,11.94Zm29.1-9.83a27.54,27.54,0,0,1-7.8,10.91,36.2,36.2,0,0,0,10.5,4.45,14.14,14.14,0,0,0-2.28,3,34.77,34.77,0,0,1-10.86-5.41,40.94,40.94,0,0,1-12.18,5.83,15.86,15.86,0,0,0-2-3,36.27,36.27,0,0,0,11.46-5.09,32,32,0,0,1-4.86-5.46,30.59,30.59,0,0,1-3.9,3.54,13,13,0,0,0-2.46-2.7,29.74,29.74,0,0,0,10.14-12.12l3.3.9a31.82,31.82,0,0,1-2.28,4.2h10.26l.66-.18Zm-12.48,42.23v-5.7h-11.1v-2.94h11.1v-4.08h-8.76v-2.88h8.76v-3.59h-9.9v-3h9.9v-3.47h3.66v3.47h9.12v3H867.3v3.59H875v2.88H867.3v4.08h10.26v2.94H867.3v5.7Zm-3.54-39.11a26.58,26.58,0,0,0,5.4,5.75,25.47,25.47,0,0,0,5.76-6.77H860.88Z"/><path d="M886,1939.7c4.68-2,7.26-4.92,7.56-9.18a7.35,7.35,0,0,1-1.14.12c-2.34,0-4.26-1.38-4.26-4.08a4,4,0,0,1,4.32-4.14c3.18,0,4.86,2.64,4.86,6.66,0,6.48-4,11.28-10.08,13.44Z"/><path d="M404.1,1973.13v13.31h18.12v26.4H418v-3H386.1v3.24H382v-26.64H399.9v-13.31H375.48v-3.9H399.9v-10.92h4.2v10.92h24.6v3.9ZM418,1990.22H386.1V2006H418Z"/><path d="M464.28,1958.55c-.06,2.1-.12,5.1-.42,8.64.9,7,4.56,32.51,25.74,42a12.63,12.63,0,0,0-2.88,3.36c-15.42-7.26-21.72-22.74-24.6-34-2.64,12.23-8.94,26.33-24.06,34.19a13.77,13.77,0,0,0-3.12-3.06c25-12.48,24.78-42.11,25-51.11Z"/><path d="M544.92,2007.32c0,2.76-.78,4-2.64,4.68s-5.46.72-11.1.66a12.92,12.92,0,0,0-1.38-3.84c4.32.18,8.4.12,9.6.06s1.56-.42,1.56-1.56v-12.78H524.22v17.94h-4v-17.94H504.78c-.9,6.72-2.88,13.56-7.56,18.78a11.58,11.58,0,0,0-3-2.64c6.6-7.44,7.26-18,7.26-26.46v-21.59h43.44Zm-24.66-16.56v-10.5H505.38v4c0,2.11-.06,4.26-.24,6.54Zm-14.88-24.35v10.13h14.88v-10.13Zm35.58,0H524.22v10.13H541Zm0,24.35v-10.5H524.22v10.5Z"/><path d="M580.5,1992.5a27.67,27.67,0,0,0,1,3.72c-17.28,8.16-19.38,9.36-20.82,10.62a13.28,13.28,0,0,0-2.22-3.3c1.2-.66,3.42-2.52,3.42-5.22v-35.21h4.26v36ZM602,1960.89c-.9,14.34-2.52,25.32-6.54,33.83,5.28,5,11.28,11.34,14.16,15.6l-3.42,2.58a102.78,102.78,0,0,0-12.54-14.64c-4,6.48-9.6,11.34-17.94,15.12a18.64,18.64,0,0,0-2.94-3.42c19.38-7.62,23.64-22.5,25-49.31Zm-18.3,19c-1.62-3.84-5.52-9.9-8.94-14.28l3.3-1.74a70.56,70.56,0,0,1,9.24,13.91Z"/><path d="M640,1981c-1.68,4.49-3.54,9.65-5.16,12.83l-3.06-.78a89.65,89.65,0,0,0,3.54-9h-6.84v24.17c0,2.28-.48,3.36-2.1,4s-4.2.72-8.34.72a14.75,14.75,0,0,0-1.26-3.78c3.18.06,5.94.06,6.72,0s1.14-.24,1.14-1V1984h-10v-3.61h14.94c-3.3-2.58-8.1-6.05-11.88-8.57l2.28-2.52c1.62,1.08,3.48,2.34,5.4,3.6a48.49,48.49,0,0,0,7.08-8H615.84v-3.54H635l.66-.24,2.46,1.68a54.71,54.71,0,0,1-10,12.06c2.16,1.5,4.2,3,5.58,4.14l-1.14,1.43h4.38l.6-.12Zm16.14,9.83c0,7.44-1.8,16.38-16.92,21.9a14.91,14.91,0,0,0-2.4-2.88c14.22-4.8,15.6-12.9,15.6-19.08v-12.11h3.72Zm13.14-29.75v3.6h-12c-.72,2.16-1.5,4.44-2.28,6.36H666.9v28.19H663v-24.53H645.84v24.65h-3.72V1971h9c.6-1.92,1.26-4.32,1.74-6.36h-13v-3.6ZM658,2000.42a96.2,96.2,0,0,1,11.22,9.66l-2.76,2.76a95.47,95.47,0,0,0-11.1-10Z"/><path d="M676.86,1975.17a70.1,70.1,0,0,1,9.84,6l-2.34,3.12a84.18,84.18,0,0,0-9.72-6.37ZM684,1991l3.18,2.16c-2.22,6.18-5.22,13.62-7.8,19l-3.54-2.1A191.4,191.4,0,0,0,684,1991Zm-4.38-32a64.15,64.15,0,0,1,9.66,6.3l-2.46,3.18a53.41,53.41,0,0,0-9.6-6.66ZM702,1969.47v20.81c0,8-1.62,17-12.42,22.62a11.47,11.47,0,0,0-2-2.52c10.08-5.22,11.28-12.9,11.28-20.16v-20.75Zm8.76-7.56v36.95h-3.3V1965H694.08v34H690.9v-37.13Zm-7.08,39.23a65.07,65.07,0,0,1,8.46,9.6l-2.58,1.8a67.48,67.48,0,0,0-8.34-9.84Zm15.48-37.43v35.51h-3.24v-35.51Zm8.28-4.62v49.07c0,2.34-.66,3.36-2,4s-4,.72-8.1.66a16.21,16.21,0,0,0-1.2-3.36c3.24.06,6,.06,6.78,0s1.2-.3,1.2-1.2v-49.13Z"/><path d="M764,1970.67v9.24h21v3.84H739.62v-3.84h20.22v-9.24H736V1967h23.88v-8.64H764V1967h23.94v3.72Zm-20.88,20.15h38.4v22.8h-4.26v-3H747.12v3h-4Zm4,3.6v12.48h30.12v-12.48Z"/><path d="M846.48,1969.89V2012H842.4v-2H797.58v-40.07h4v36.23h40.8v-36.23Zm-11.1,31.31a120.48,120.48,0,0,0-11.82-14.82,85.09,85.09,0,0,1-17.22,16.08,44.08,44.08,0,0,0-3.48-2.76,75.4,75.4,0,0,0,18.06-16.2c-5.4-5.75-11.34-11.57-16.86-16.43l2.64-2.52c5.4,4.74,11.28,10.26,16.68,15.83a99.14,99.14,0,0,0,10.74-18.29l3.9,1.26a111.06,111.06,0,0,1-11.94,19.86,120.13,120.13,0,0,1,12.36,14.93Z"/><path d="M873.36,2002.88a9,9,0,1,1-9.06-9A9,9,0,0,1,873.36,2002.88Zm-2.82,0a6.21,6.21,0,1,0-6.24,6.24A6.22,6.22,0,0,0,870.54,2002.88Z"/><path d="M498.9,2047.17c4.44,10.31,12.24,20,20.76,24.71a23.11,23.11,0,0,0-3.06,3.36c-9-5.58-16.92-16.32-21.6-28.07h-1v22.43h14.28v4H494V2085H489.9v-11.4H475.68v-4H489.9v-22.43h-1.08c-4.74,11.75-12.66,22.43-21.3,28.25a24.18,24.18,0,0,0-2.88-3.18c8-4.92,15.66-14.76,20.16-25.07H466.14v-4H489.9v-12.72H494v12.72h24v4Z"/><path d="M573.6,2036.07c-4.32,12.12-10.08,22.68-18.6,31.25a65.72,65.72,0,0,0,24.42,14.1,17.56,17.56,0,0,0-2.76,3.54A66.69,66.69,0,0,1,552,2070.2a72.92,72.92,0,0,1-25.38,14.7,14.53,14.53,0,0,0-2.16-3.36,69.86,69.86,0,0,0,24.78-14.1,89.37,89.37,0,0,1-18.18-29.27l3.6-1.08a80.51,80.51,0,0,0,17.52,27.53c8.16-8.21,13.62-18.41,17.4-29.87ZM553,2046a102.25,102.25,0,0,0-5.88-14.45l3.42-1.38a105.48,105.48,0,0,1,6.06,14.28Z"/><path d="M614.46,2079.62a70.7,70.7,0,0,0,7.38.36c2.1.06,14.76,0,17.58-.06a16.36,16.36,0,0,0-1.44,3.84H621.72c-12.3,0-19.92-1.92-24.72-10.38a31.55,31.55,0,0,1-9.48,11.7,19.84,19.84,0,0,0-3.06-2.82c6.3-4.14,10.2-10.92,11.82-19.86l4,.6a55.92,55.92,0,0,1-1.5,6.06c2.34,5.64,6.3,8.52,11.7,9.84v-18.54H585.72v-3.6H638.4v3.6H614.46v7.08h20v3.6h-20Zm17.22-27.17h-39.6v-19.56h39.6Zm-4-16.44H596v5.16h31.68Zm0,8.1H596v5.27h31.68Z"/><path d="M673,2045.54v12.18h19.32v27h-4.08V2081h-32.7v4h-3.9v-27.24h17.28v-27.35H673v11.4H697.2v3.77Zm15.24,15.9h-32.7v15.78h32.7Z"/><path d="M753.06,2065.58c-5.28-3.6-15.84-9.06-24.06-12.9v32.22h-4.38v-54.41H729v20.27l1.32-1.73c8.16,3.47,19.5,9,25.26,12.72Z"/><path d="M783.36,2074.88a9,9,0,1,1-9.06-9A9,9,0,0,1,783.36,2074.88Zm-2.82,0a6.21,6.21,0,1,0-6.24,6.24A6.22,6.22,0,0,0,780.54,2074.88Z"/><rect class="cls-2" x="1113" y="401" width="65" height="126" rx="12"/><path class="cls-1" d="M1132.7,430.82c1.25,1.6,4.9,6.7,5.7,8.05l-2,2.45c-.7-1.5-2.35-4.4-3.75-6.65V461h-3.15V436.57c-1.5,5.05-3.5,9.9-5.55,12.85a14.83,14.83,0,0,0-1.75-3.1c2.9-4,5.8-11.5,7.2-18h-6.2v-3.15h6.3v-9.65h3.15v9.65h5.45v3.15h-5.45Zm19.1.7a19.47,19.47,0,0,0,.45,2.65c-10.15,2.7-11.6,3.15-12.5,3.75a12.13,12.13,0,0,0-1.1-3.2c.7-.2,1.55-.5,1.55-2.2v-16.7h3.25v6.5h8.35v2.9h-8.35v8.3Zm2.35,5.5-2,3.75h12.65V461h-3.4v-1.75h-17v2h-3.3V440.77h7.9c.55-1.5,1.2-3.25,1.55-4.6Zm7.3,6.5h-17v5.05h17Zm0,13v-5.3h-17v5.3Zm2.25-22.4c1.25,0,1.5-.75,1.65-5.25a9.16,9.16,0,0,0,2.85,1.25c-.3,5.45-1.2,6.95-4.15,6.95h-5.85c-3.65,0-4.55-.95-4.55-4.45V415.87h3.25v6.5h10.2v2.9h-10.2v7.35c0,1.3.25,1.5,1.65,1.5Z"/><path class="cls-1" d="M1167.55,490.87v2.5H1123.4v-2.5h20.25v-3.2H1126.8v-2.3h16.85v-3H1128.2v-2.25h15.45v-3.2H1123.5v-2.5h20.15v-3.05H1128.8V469h14.85v-3.55h3.25V469h14.45v5.4h6.15v2.5h-6.15v5.45H1146.9v3h17.3v2.3h-17.3v3.2Zm-37.75,5h31.75v15.25h-3.25v-1.6H1133v1.7h-3.2Zm3.2,2.4v3.2h25.3v-3.2Zm25.3,8.85v-3.4H1133v3.4Zm-11.4-32.7h11.15v-3.05H1146.9Zm0,5.7h11.15v-3.2H1146.9Z"/><rect class="cls-2" x="1113" y="1218" width="65" height="271" rx="12"/><path class="cls-1" d="M1158.05,1256.79a27.61,27.61,0,0,0,11.5,8.1,11.65,11.65,0,0,0-2.15,2.55,30.77,30.77,0,0,1-12.8-10.65h-15.95a34.39,34.39,0,0,1-13,11.3,11.43,11.43,0,0,0-2.15-2.55,30.39,30.39,0,0,0,11.6-8.75H1124v-2.85h10v-16.15h-7.7V1235h7.7v-5h3.3v5h18.55v-5h3.35v5h7.65v2.8h-7.65v16.15h9.8v2.85Zm-10,14.5h17.3v2.85H1127.8v-2.85h16.9v-5.6h-10.45v-2.8h10.45v-4.4h3.35v4.4h10.65v2.8h-10.65Zm-10.8-33.5v3.6h18.55v-3.6Zm0,9.8h18.55v-3.65h-18.55Zm0,6.35h18.55v-3.8h-18.55Z"/><path class="cls-1" d="M1142.25,1298.54s0,1.15,0,1.55c-.6,15.85-1.2,21.2-2.6,23a3.71,3.71,0,0,1-2.8,1.45,32.65,32.65,0,0,1-4.45,0,9.25,9.25,0,0,0-.85-3c1.75.15,3.2.15,3.9.15a1.42,1.42,0,0,0,1.45-.65c1-1.2,1.6-6,2.15-19.35h-6.8c-.55,10-2,18.25-6.45,23.65a9.53,9.53,0,0,0-2.55-2.35c5.45-6.45,5.9-17.85,6.1-31.55h-5.2v-3.1h20.1v3.1h-11.65c0,2.45-.1,4.85-.2,7.15Zm-7.9-10.45a33.47,33.47,0,0,0-4.25-7.15l2.9-1.15a31.92,31.92,0,0,1,4.4,7Zm23.85-7.45a15.26,15.26,0,0,1-.85,2.55c2.65,5.45,7.7,11.35,12.45,14a13,13,0,0,0-2.45,2.75c-4.25-2.7-8.5-8-11.4-13.3a32.61,32.61,0,0,1-11,13.6,12.79,12.79,0,0,0-2.35-2.65c5.85-3.6,10.35-10.2,12.5-17.85Zm-8.3,32.45a74,74,0,0,1,13.6,8.25l-2.25,2.9c-2.85-2.6-8.75-6.3-13.4-8.65Zm9.5-4.85a66.22,66.22,0,0,0-8.6-6.85l2.15-2.2a67.46,67.46,0,0,1,8.75,6.55Z"/><path class="cls-1" d="M1165,1333.19v29.3h-3.5v-2.55h-13.3v15.6h-3.45v-15.6h-13.4v2.75H1128v-29.5Zm-33.65,3.2V1345h13.4v-8.65Zm13.4,20.35v-8.5h-13.4v8.5Zm16.75-20.35h-13.3V1345h13.3Zm0,20.35v-8.5h-13.3v8.5Z"/><path class="cls-1" d="M1167.25,1395.09v9.3h-3.15V1398h-35.4v6.4h-3v-9.3h6.95v-12.95h27.7v12.95Zm-6.45,26.6c0,1.85-.45,2.7-1.85,3.2s-3.9.5-7.7.45a8.57,8.57,0,0,0-1.1-2.75c3,.05,5.65.05,6.4.05s1-.25,1-1v-6.2c-7.3,1.45-14.85,3-20.45,4l-1.1-3c5.4-.8,13.6-2.3,21.55-3.75V1404h-22.2v5.3c0,4.85-.65,11.55-4.35,16.2a13.29,13.29,0,0,0-2.7-2c3.45-4.25,3.85-10,3.85-14.25v-8h28.6Zm-25-26.6h7.45v-6.9H1157v-3.35h-21.2Zm2.45,11.7a75.14,75.14,0,0,1,17.7,3l-.9,2.6c-4-1.5-11.7-2.9-17.7-3.35Zm18.75-16.3h-10.75v4.6H1157Z"/><path class="cls-1" d="M1161,1442.09a51.83,51.83,0,0,1-12,19.6,49.94,49.94,0,0,0,20.5,10.5,16.79,16.79,0,0,0-2.25,3,50.92,50.92,0,0,1-20.75-11.1c-5.65,5-12.55,8.6-21,11.3a15.53,15.53,0,0,0-2-3.05c8.35-2.45,15.1-5.9,20.6-10.6a57.05,57.05,0,0,1-12.2-19.65h-7.75v-3.25h44.75v3.25Zm-25.75,0a52.13,52.13,0,0,0,11.3,17.3,47.46,47.46,0,0,0,10.7-17.3Zm11.25-3.55a38.13,38.13,0,0,0-3.8-7.8l3.4-1a39,39,0,0,1,4,7.65Z"/><line class="cls-3" x1="561" y1="1001" x2="561" y2="1670"/><line class="cls-3" x1="576.98" y1="1232.3" x2="853.02" y2="1377.7"/></svg>