<svg id="Layer_1" data-name="Layer 1" xmlns="http://www.w3.org/2000/svg" viewBox="0 0 1242 2208"><defs><style>.cls-1{fill:#f6eabe;}.cls-2{fill:#999;}.cls-3{fill:none;stroke:#000;stroke-miterlimit:10;stroke-width:48px;}</style></defs><rect class="cls-1" width="1242" height="2208"/><path d="M957.71,159.71V847.3h-54V809.19H354.28V847.3H302.67V159.71ZM903.72,760V209.73H354.28V760ZM663.94,412.2C737.78,478.89,824.32,567,868,618.63l-31.76,36.53c-40.49-49.23-115.92-129.42-183.41-193.74V720.26H603.59V443.16C552,528.12,477.35,610.69,411.45,656c-8.74-11.91-23.82-29.38-34.94-38.11C445.59,576.55,524.19,494,574.21,412.2H404.3V364.56H603.59V247h49.23V364.56H859.26V412.2Z"/><path d="M322.89,1775.49H308.07v35.15h-4v-38.87h18.78Z"/><path d="M357.69,1791.15c5.52,10.31,15.06,20.75,24.06,25.79a16.83,16.83,0,0,0-3.06,3.42c-8.34-5.22-16.92-14.94-22.8-25.07V1827h-4.14v-31.68c-5.76,10.38-14.28,20-22.92,25.14a22.2,22.2,0,0,0-2.94-3.3c9.24-5,18.54-15.47,24-26H328.11v-4h23.64v-14.76h4.14v14.76h23.88v4Z"/><path d="M384.81,1823.84h14.82v-35.15h4v38.87H384.81Z"/><path d="M437,1785.63a67.9,67.9,0,0,1-7.2,12.24v28.85h-4v-24a41.57,41.57,0,0,1-7.26,6.41,17,17,0,0,0-2-3.48c7-5,12.3-12.23,16.14-20H417.87v-3.84h16.44a65.25,65.25,0,0,0,3.3-9.42l4.08,1c-.9,2.82-1.86,5.64-3,8.4H470v3.84ZM470,1821.86v3.72H433.83v-3.72h16v-17.52H436.17v-3.71h13.68v-11.82h4v11.82h13.8v3.71h-13.8v17.52Z"/><path d="M502.89,1775.49H488.07v35.15h-4v-38.87h18.78Z"/><path d="M557.37,1775.91v50.57h-4.32v-2.88H514.71V1827h-4.14v-51.11Zm-4.32,43.73v-39.71H514.71v39.71Z"/><path d="M564.81,1823.84h14.82v-35.15h4v38.87H564.81Z"/><path d="M620,1771.17l3.24,1.74c-7.08,7.26-11.28,16.2-11.28,26.76s4.2,19.49,11.28,26.75l-3.24,1.74c-7.32-7.5-11.94-17-11.94-28.49S612.69,1778.67,620,1771.17Z"/><path d="M645,1812.26a24.31,24.31,0,0,0,1.56,3.3c-9.36,7.62-10.8,8.82-11.64,10v.06a12.16,12.16,0,0,0-2.16-2.82,7.29,7.29,0,0,0,2.82-5.58V1795h-9.06v-3.84h12.78v25.61Zm-5.34-26.69a76.72,76.72,0,0,0-9.12-9.12l2.52-2.58c3.24,2.64,7.38,6.3,9.24,8.76Zm24.9,25.55c-2.22,5.88-7.2,11.7-18.3,16.14a11.05,11.05,0,0,0-2.46-3.06c9.54-3.66,14.22-8.34,16.5-13.08H644.79v-3.54h16.8a28.24,28.24,0,0,0,.78-7.25v-7.2h3.9v7.31a32.91,32.91,0,0,1-.66,7.14h14.82v3.54Zm7.62-13.32a53,53,0,0,0,2.82-7.19H646v-3.48h14.7v-5.64H648.27V1778h12.42v-5.64h3.9V1778h12.6v3.48h-12.6v5.64h11.94l.66-.18,2.52.72a89.59,89.59,0,0,1-4.2,11Zm-23.94.78a39.45,39.45,0,0,1,8.76,5.94l-1.92,2.4a37,37,0,0,0-8.82-6.17Zm11,2.71a42.08,42.08,0,0,0-8.58-6.07l1.86-2a40.88,40.88,0,0,1,8.7,5.76Zm8,12.29c4.86,3.24,10.92,7.8,13.8,11l-2.52,2.64a86.82,86.82,0,0,0-13.68-11.34Z"/><path d="M705.21,1773.75a105.89,105.89,0,0,1-6.18,12.9v40.25h-4v-34.07a58.5,58.5,0,0,1-6.36,7.67,22.37,22.37,0,0,0-2.34-3.9c6-5.81,11.64-14.81,15.06-24Zm17.22,12.48v9H740v3.72H722.43v9.48h18.3v3.78h-18.3V1827h-4v-40.73H714a65.13,65.13,0,0,1-8.64,12.65,28.89,28.89,0,0,0-3.12-2.7c5.46-5.57,10.32-14.27,13.26-23l3.84,1c-1,2.82-2.22,5.58-3.42,8.28h25.38v3.84Z"/><path d="M745.47,1790.07h5l5.1,19.25c.72,3.06,1.32,5.94,2,8.94h.24c.78-3,1.44-5.88,2.28-8.94l5.22-19.25h4.92l5.28,19.25c.78,3.06,1.5,5.94,2.28,8.94H778c.72-3,1.38-5.88,2.1-8.94l5-19.25h4.68l-8.88,32.39h-5.94L770,1804.4c-.9-3.11-1.5-6.06-2.28-9.36h-.3c-.72,3.3-1.38,6.36-2.34,9.42l-4.74,18h-5.76Z"/><path d="M794.25,1806.26c0-10.5,7-17,14.46-17,8.1,0,12.78,5.81,12.78,15.17a14.19,14.19,0,0,1-.24,2.94H799.11c.3,7.2,4.62,12,11.1,12a14.28,14.28,0,0,0,8.22-2.64l1.8,3.24a18.91,18.91,0,0,1-10.62,3.3C801.09,1823.24,794.25,1816.94,794.25,1806.26Zm22.92-2.51c0-6.91-3.12-10.57-8.4-10.57-4.8,0-9.06,3.9-9.72,10.57Zm-12.24-22.08,9.36-11,3.42,3.24-10.2,10.2Z"/><path d="M828.75,1779.69a3.39,3.39,0,0,1,6.78,0,3.39,3.39,0,1,1-6.78,0Zm1,10.38h4.86v32.39h-4.86Z"/><path d="M844,1828.16l-3.24-1.74c7.08-7.26,11.28-16.2,11.28-26.75s-4.2-19.5-11.28-26.76l3.24-1.74c7.32,7.5,11.94,17,11.94,28.5S851.31,1820.66,844,1828.16Z"/><path d="M924,1783.05v27.77h-4.08v-3.48H902.07v19.56h-4.14v-19.56H880.17v3.78h-4v-28.07h21.72v-10.74h4.14v10.74Zm-26,20.33V1787H880.17v16.43Zm22,0V1787H902.07v16.43Z"/><path d="M934.11,1825.7c4.68-2,7.26-4.92,7.56-9.18a7.35,7.35,0,0,1-1.14.12c-2.34,0-4.26-1.38-4.26-4.08a4,4,0,0,1,4.32-4.14c3.18,0,4.86,2.64,4.86,6.66,0,6.48-4,11.28-10.08,13.44Z"/><path d="M286.92,1845.69a98.85,98.85,0,0,1-6.18,13.56v39.59H276.9v-33.35a61.73,61.73,0,0,1-5.46,7,32.86,32.86,0,0,0-2.28-3.9c5.58-5.87,10.8-14.87,14-24Zm34.2,29.21c-2,1.38-4.44,2.7-6.84,4,2,5.82,5.82,11.16,10.62,13.62a15.86,15.86,0,0,0-2.64,3.06c-4.92-3-8.76-8.76-10.86-15.3-1,.54-2.1,1-3.12,1.5,2.1,6.3,1.26,12.72-1.38,15.24a6.51,6.51,0,0,1-5,1.92c-1,0-2.4-.06-3.72-.12a9.47,9.47,0,0,0-1-3.48,34.56,34.56,0,0,0,4,.24,3.38,3.38,0,0,0,3-1.14c1.44-1.32,2.1-4.86,1.44-8.94a58.72,58.72,0,0,1-19.5,11.4,11.72,11.72,0,0,0-2.34-2.82c7.44-2.22,16.26-7,21.12-11.82a24.37,24.37,0,0,0-1.62-3.66,57.71,57.71,0,0,1-16.74,9.66,16.14,16.14,0,0,0-2.22-2.64c5.82-1.74,13.38-5.58,17.52-9.3a16.53,16.53,0,0,0-2.82-3,39.59,39.59,0,0,1-12.3,6.17,14.66,14.66,0,0,0-2.28-2.58c6.54-2.1,10.86-4.62,13.68-7.25h-9.54v-9.36c-1.08,1-2.22,1.92-3.42,2.88a9.62,9.62,0,0,0-2.64-2.52,45.51,45.51,0,0,0,13.92-16.26l3.84.72a35.7,35.7,0,0,1-2,3.54h11.1l.78-.18,2.34,1.68a52.13,52.13,0,0,1-4.8,6.84h13v12.66H302.7a16.53,16.53,0,0,1-1.38,1.62,22.17,22.17,0,0,1,6,7.85,118.29,118.29,0,0,0,11.1-6.66Zm-25-23.09a54.58,54.58,0,0,1-4.2,5.16h11.58a33.35,33.35,0,0,0,3.72-5.16Zm-4,14.69h8.64a15.14,15.14,0,0,0,2.46-6.42h-11.1Zm24.72-6.42H306.6a18.56,18.56,0,0,1-1.8,6.42h12.06Z"/><path d="M345.42,1878.56c-.78-2.16-2.88-6.42-4.56-9.77v30.11h-3.6v-26.52c-1.56,5.94-3.66,11.58-5.88,15.24a18.75,18.75,0,0,0-2.1-3.36c3.3-5.22,6.36-15.12,7.74-23.45h-6.48v-3.66h6.72v-12.84h3.6v12.84h5.46v3.66h-5.46v2.57c1.5,2.41,5.94,10.2,6.84,12Zm17.46-26.39a121.58,121.58,0,0,1-4,23c2.22,4,4.2,7.55,5.4,10.31l-2.88,2.4c-.9-2.22-2.34-5-3.9-8-2.34,6.9-5.28,12.42-8.76,16.26a13.1,13.1,0,0,0-2.7-2.76c3.6-3.78,6.72-10.08,9.12-17.82-2.46-4.38-5-8.81-7.44-12.65l2.58-1.87c2,3.07,4.08,6.49,6.12,9.84a118.73,118.73,0,0,0,2.64-15.71H348.66v-3.48h11.28l.66-.18Zm21.36,9.12h-4.86v32.27c0,2.52-.66,3.66-2.22,4.32s-4.2.78-8.82.78a14.24,14.24,0,0,0-1.32-3.78c3.54.12,6.48.12,7.38.06s1.32-.36,1.32-1.32v-32.33H363.78v-3.6h11.94v-13.14h3.66v13.14h4.86Zm-12.78,19.91a71.75,71.75,0,0,0-6.18-12.66l2.88-1.2a60.71,60.71,0,0,1,6.36,12.36Z"/><path d="M420.84,1863.15c5.52,10.31,15.06,20.75,24.06,25.79a16.83,16.83,0,0,0-3.06,3.42c-8.34-5.22-16.92-14.94-22.8-25.07V1899H414.9v-31.68c-5.76,10.38-14.28,20-22.92,25.14a22.2,22.2,0,0,0-2.94-3.3c9.24-5,18.54-15.47,24-26H391.26v-4H414.9v-14.76H419v14.76h23.88v4Z"/><path d="M503.7,1893.2v3.9H450.48v-3.9H475v-15.84H457v-3.84H475V1860H460.56a48.79,48.79,0,0,1-6.36,10,27.84,27.84,0,0,0-3.6-2.41c5-5.33,8.82-13.61,11.16-22.19l4,.84a86.44,86.44,0,0,1-3.42,9.84H475v-11.7h4.14v11.7h21.72V1860H479.16v13.56h19.56v3.84H479.16v15.84Z"/><path d="M540.18,1871.79a37.53,37.53,0,0,0,24.6,21.83,15.05,15.05,0,0,0-2.76,3.66c-12.36-4.14-21.12-13.08-25.92-25.49h-9.72v20.93l14.7-3.78a17.38,17.38,0,0,0,.36,3.72c-16.38,4.44-18.48,5.16-19.86,6.06a16.15,16.15,0,0,0-1.62-3.6,3.58,3.58,0,0,0,2.28-3.54v-19.79H510.6v-4h11.64v-23.16h4.14v23.16h37.08v4Zm17-24.42c-5.88,7-14.94,13.2-23.16,17.21a21.52,21.52,0,0,0-3.3-3.12c8.52-3.59,17.22-9.41,22.56-15.71Z"/><path d="M571,1897.7c4.68-2,7.26-4.92,7.56-9.18a7.35,7.35,0,0,1-1.14.12c-2.34,0-4.26-1.38-4.26-4.08a4,4,0,0,1,4.32-4.14c3.18,0,4.86,2.64,4.86,6.66,0,6.48-4,11.28-10.08,13.44Z"/><path d="M651.3,1849.59v47h-4.14v-4.14H606.54V1897h-4v-47.39Zm-4.14,39v-35.15h-12.3v19.37c0,1.87.24,2.58,1.56,2.58h6.18a14.9,14.9,0,0,0,3.36-.3c.06,1.09.18,2.46.3,3.42a14.3,14.3,0,0,1-3.54.24h-6.78c-3.9,0-4.86-1.68-4.86-6.06v-19.25h-8.82c-.3,16.49-1.86,25.37-12.36,30.35a12,12,0,0,0-2.4-3.12c9.42-4.32,10.62-12.12,10.86-27.23H606.54v35.15Z"/><path d="M709.44,1893.68c0,2.76-.72,3.9-2.52,4.56s-5,.72-10.38.72a13.08,13.08,0,0,0-1.38-3.78c4,.12,7.74.06,8.76,0s1.56-.36,1.56-1.44V1851H670.14v15.29c0,10-.9,23.7-7.74,33.12a11.75,11.75,0,0,0-3.12-2.58c6.36-8.88,7-21.17,7-30.54v-19h43.2ZM685.2,1867.1v-6.23h-11v-3.3h11v-5.34H689v5.34h11.58v3.3H689v6.23h13.14v3.31H672.72v-3.31Zm-5.7,24.12v3.36h-3.72v-18.83H699v15.47Zm0-12.24V1888h15.72V1879Z"/><path d="M740.76,1856c-1.14,2.46-2.46,5-3.84,7.31h29.16v30.54c0,2.52-.6,3.72-2.46,4.38s-5.16.66-10.38.66a16.63,16.63,0,0,0-1.32-3.9c4.14.18,7.8.12,8.82.12s1.44-.42,1.44-1.32v-6.66H736.5V1899h-3.9V1869.5a50.45,50.45,0,0,1-10.32,10,18.28,18.28,0,0,0-2.58-3.06c7.26-5,12.84-12.41,16.74-20.45H721.08v-3.78h17a56.88,56.88,0,0,0,2.64-7.8l4,.9c-.72,2.34-1.5,4.62-2.4,6.9h30.78V1856Zm21.42,10.92H736.5v6.53h25.68Zm0,16.73v-6.72H736.5v6.72Z"/><path d="M787,1876.52c-.3,7.5-1.38,16.2-4.74,22.5a14.72,14.72,0,0,0-3.18-2.52c3.84-7.32,4.14-17.7,4.14-25.5v-20.69c7.14-.84,15.84-2.46,20.46-4.68l2.58,3.3c-4.86,2.16-12.42,3.6-19.14,4.44v5.94h16.26v17.21Zm.12-13.56v10h12.36v-10Zm47,5.46h-7.26v30.36H823v-30.36h-9.84v2.16c0,8.82-1.14,20.82-8.52,28.5a17.13,17.13,0,0,0-3.12-2.7c6.9-7.2,7.56-17.64,7.56-25.8v-20.15c7.5-1.14,16.38-3.06,21.18-5.34l2.7,3.36c-5,2.22-12.84,3.84-19.8,4.92v11.21h21Z"/><path d="M860.4,1848.21c-1.8,4.86-4,10.68-6.06,15.48,4.44,5,5.52,9.41,5.52,13.19,0,3-.66,5.64-2.28,6.78a6.45,6.45,0,0,1-3.06,1.08,18.5,18.5,0,0,1-4.08.06,8.29,8.29,0,0,0-1.08-3.54,19.1,19.1,0,0,0,3.66.06,3.63,3.63,0,0,0,1.92-.54c1-.66,1.32-2.4,1.32-4.26,0-3.35-1.14-7.5-5.64-12.41,1.86-4.38,3.72-9.66,5-13.62h-9.24V1899h-3.6v-52.13h14.4l.6-.18ZM893.28,1878a82,82,0,0,1-10.68,7.32,26.47,26.47,0,0,0,11.94,9.84,19.4,19.4,0,0,0-2.7,3.42c-9.48-4.38-15.18-13.62-18.18-25.5h-6.18v20.28l11-2.7a22.19,22.19,0,0,0,.18,3.6c-12.48,3.42-14.22,4-15.36,4.8a13,13,0,0,0-1.8-3.36c1-.48,2.1-1.56,2.1-4V1847h26.16v26h-12.6a41.22,41.22,0,0,0,3.78,9.42,76.79,76.79,0,0,0,9.72-7.25Zm-25.8-27.41v7.68h18.36v-7.68Zm0,19h18.36v-7.92H867.48Z"/><path d="M918.54,1863.38H933.3V1867H918.54v6.36H931V1890c0,1.92-.3,2.94-1.74,3.6s-3.6.66-7,.66a13.51,13.51,0,0,0-1.14-3.54c2.7.12,4.74.12,5.4.06s.84-.24.84-.84V1877h-8.82v21.9H914.7V1877h-8.28v17h-3.66V1873.4H914.7V1867H899.94v-3.66H914.7v-6.65h-8.16a37.68,37.68,0,0,1-3.12,6.42,19,19,0,0,0-3.54-1.5c2.76-4,4.8-10.08,6.12-15.84l3.72.72c-.54,2.16-1.2,4.44-1.92,6.54h6.9v-8.52h3.84v8.52H930.9v3.66H918.54Zm23.1,19.44h-3.78v-32.93h3.78Zm10.74-37.91v48.23c0,2.88-.72,4.08-2.4,4.8s-5,.78-9.48.78a22.82,22.82,0,0,0-1.32-4.26c3.6.12,7,.12,8,.12s1.32-.3,1.32-1.38v-48.29Z"/><path d="M978.36,1888.88a9,9,0,1,1-9.06-9A9,9,0,0,1,978.36,1888.88Zm-2.82,0a6.21,6.21,0,1,0-6.24,6.24A6.22,6.22,0,0,0,975.54,1888.88Z"/><path d="M526.14,1918.05c-.54.78-1.08,1.62-1.74,2.4,5.4,5.76,15.18,12.47,25,16a17.52,17.52,0,0,0-2.82,3.47,75.67,75.67,0,0,1-24.42-16.73A64.51,64.51,0,0,1,508,1935H536.4v3.72H507.78v-3.6a82.62,82.62,0,0,1-10,5.46,18.56,18.56,0,0,0-2.88-3.41c11.76-5.05,22.14-12.6,27.42-20.7Zm-28.62,28.37h49.32v3.84H520.38a113.31,113.31,0,0,1-12.6,14.34l28.26-2.22c-2.34-2.64-4.86-5.34-7.26-7.62l3.36-1.74c5.34,4.74,11,11.28,13.68,15.78l-3.54,2.1a37.32,37.32,0,0,0-3.42-5c-32,2.7-35.22,2.94-37.32,3.72-.24-.84-.9-3-1.38-4.14,1.26-.18,2.58-1.38,4.5-3.18A95.51,95.51,0,0,0,515,1950.26H497.52Z"/><path d="M556.08,1967.48c3.06-2.58,5.64-7,7.08-10.44l3.3,1.5c-1.68,3.6-4.08,8-7.14,10.86Zm51.72-36.9v3.25H556.56v-3.25h14.16a23.89,23.89,0,0,0-2.34-5.45l3.36-.84H559.26V1921h21.9c-.72-1.44-1.56-2.94-2.34-4.2l3.78-.9a39.9,39.9,0,0,1,2.94,5.1h19.2v3.3H592.86l3.24.78c-1,1.92-2,3.84-3,5.51Zm-7,23.7H579.66a47.07,47.07,0,0,1,8.82,6.24L586,1963a48.61,48.61,0,0,0-9.3-6.9l2-1.8H563.58V1937h37.2Zm-3.9-14.45H567.36v4.43h29.52Zm0,7.13H567.36v4.44h29.52Zm-8.22,20.16c2.58,0,3-.72,3.24-6.24a12.08,12.08,0,0,0,3.54,1.38c-.48,6.66-1.74,8.22-6.42,8.22H577.44c-5.82,0-7.38-1-7.38-5v-8H574v8c0,1.38.54,1.68,3.72,1.68ZM572,1924.29a26.19,26.19,0,0,1,2.76,6.18l-.48.11H589a59.18,59.18,0,0,0,3.06-6.29Zm27.66,32.21a46.55,46.55,0,0,1,8,10.2l-3.36,1.74a49,49,0,0,0-7.8-10.56Z"/><path d="M635.34,1920.27c-2,4.86-4.56,10.68-6.78,15.48,4.92,4.92,6.18,9.29,6.18,13,0,3.12-.72,5.64-2.46,6.84a6.73,6.73,0,0,1-3.24,1.14,21.77,21.77,0,0,1-4.44.06,8.41,8.41,0,0,0-1-3.6,18.78,18.78,0,0,0,4,.12,3.78,3.78,0,0,0,2.1-.6c1.08-.66,1.44-2.34,1.44-4.2,0-3.42-1.32-7.56-6.3-12.35,2-4.38,4.14-9.6,5.58-13.68H621.3V1971h-3.78v-52.13H632.1l.66-.18Zm34.14,45V1969H632.22v-3.72h6.9v-45.53h25.32v45.53Zm-26.58-41.81v10.86h17.58v-10.86ZM660.48,1938H642.9v11.57h17.58Zm-17.58,27.29h17.58v-12.06H642.9Z"/><path d="M675.36,1919.67h21v3.66h-9.18a95.91,95.91,0,0,1-4,14.58h11.7v25.43H683.16v4.86H679.5v-22.07a34,34,0,0,1-3.36,5.09A21.58,21.58,0,0,0,674,1947c4.44-5.75,7.32-14.33,9.18-23.63h-7.86Zm15.84,21.83h-8v18.3h8Zm38.16,12.9h-7.8v12.18c0,2.16-.48,3.18-2,3.78s-4.08.66-8.16.66a19.16,19.16,0,0,0-1.26-3.54c3.12.06,5.76.06,6.54.06s1.08-.3,1.08-1V1954.4H696.66v-3.6h21.06v-5.4h-20v-3.48h31.2v3.48h-7.32v5.4h7.8Zm-3.72-16.79H700.26v-19.32h25.38Zm-20.94,17.93a36,36,0,0,1,7,7.86l-3.18,2.16a37.12,37.12,0,0,0-6.84-8.16Zm17.1-34.13H704v5H721.8Zm0,8H704v5.15H721.8Z"/><path d="M753.36,1960.88a9,9,0,1,1-9.06-9A9,9,0,0,1,753.36,1960.88Zm-2.82,0a6.21,6.21,0,1,0-6.24,6.24A6.22,6.22,0,0,0,750.54,1960.88Z"/><path d="M434.7,2018.06s-.06,1.32-.12,1.86c-1.08,13.56-2.1,18.84-4.08,20.82-1.26,1.32-2.46,1.68-4.56,1.8a90.37,90.37,0,0,1-9.48-.18,8,8,0,0,0-1.44-4c4,.36,8,.36,9.48.36s2-.06,2.58-.6c1.5-1.2,2.4-5.7,3.3-16.32h-22.8c1.14-4.56,2.46-11.63,3.24-17.09H430.5v-10.08h-22v-3.78H434.4v17.58H414.3c-.6,3.3-1.2,6.72-1.86,9.65Zm18.36-29.15V2043h-4v-54.11Z"/><path d="M515.28,1996.23v33.29H511.2v-3.18H493.92v16.5h-4.14v-16.5H473v3.54h-4v-33.65h20.76v-7.92h4.14v7.92Zm-42.3,3.84v9.18h16.8v-9.18Zm16.8,22.49V2013H473v9.6Zm4.14-22.49v9.18H511.2v-9.18Zm17.28,22.49V2013H493.92v9.6Z"/><path d="M575.76,2002.77s-.06,1.56-.06,2.1c-1,24.11-1.86,32.51-4.2,35.27a6,6,0,0,1-4.68,2.22c-2,.12-5.88,0-9.48-.18A10,10,0,0,0,556,2038a91.18,91.18,0,0,0,9.3.42c1.26,0,2-.12,2.58-.9,1.86-1.8,2.82-9.9,3.66-30.83H550.44c-1.38,11.69-6.24,25.07-21.84,35.45a14.36,14.36,0,0,0-3.12-2.88c14.7-9.6,19.44-21.78,20.88-32.57H527.22v-4h19.56c.18-2.64.24-5.16.24-7.44v-6.9h4v7c0,2.28-.06,4.8-.24,7.38Zm-37.2-2.22a49.8,49.8,0,0,0-6.42-9l3.42-1.56a50.25,50.25,0,0,1,6.6,8.82Zm21.9,27.35a69.41,69.41,0,0,0-8.28-11.88l3.18-1.61a65.09,65.09,0,0,1,8.58,11.51Z"/><path d="M606.54,1996.05a98.1,98.1,0,0,1-6.54,24c2.76,4.74,5.22,9.24,6.84,12.6l-3.12,2.88c-1.38-3.06-3.42-7-5.7-11.22A50.5,50.5,0,0,1,587,2039a12.94,12.94,0,0,0-3-3c4.32-3.42,8.34-8.94,11.64-15.83-3-5.23-6.3-10.63-9.3-15.3l2.76-2.34c2.64,4.14,5.58,8.81,8.34,13.31a84.07,84.07,0,0,0,4.68-16.91H585.48v-3.6H603.3l.72-.18Zm32.1,25.91a86.33,86.33,0,0,1-10.5,7.26,25.5,25.5,0,0,0,11.82,9.84,22.71,22.71,0,0,0-2.76,3.48c-9.3-4.44-14.94-13.62-17.88-25.5h-6.24v20.28l10.92-2.7a21.7,21.7,0,0,0,.24,3.6c-12.48,3.42-14.22,4-15.36,4.8a15.14,15.14,0,0,0-1.8-3.36,4.26,4.26,0,0,0,2.1-4V1991h26.1v26H622.8a41.15,41.15,0,0,0,3.66,9.3,77.59,77.59,0,0,0,9.48-7.13Zm-25.56-27.41v7.68h18.36v-7.68Zm0,19h18.36v-7.92H613.08Z"/><path d="M665.58,1996a91.77,91.77,0,0,1-5.76,23.51c2.64,4.08,4.86,7.86,6.36,10.8l-3.18,2.76a96.59,96.59,0,0,0-5.1-9.24,44.2,44.2,0,0,1-11,14.46,14,14,0,0,0-2.82-3.12c4.38-3.24,8.22-8.52,11.34-15.36-3.24-5-6.84-10.38-10.26-14.76l2.76-2.15c3,3.84,6.24,8.33,9.24,12.71a83.43,83.43,0,0,0,4.2-16.67H645.72v-3.6H662.4l.72-.18ZM699,2038.64H674.4V2043h-3.72v-34.79a54.44,54.44,0,0,1-4.92,6.83,23.84,23.84,0,0,0-2.1-3.48c5.16-6,9.54-15.35,11.76-22.85l3.9,1.08c-1,3-2.28,6.18-3.72,9.36h22.74v3.66H687.48v8H697v3.66h-9.54v8.16h9.6v3.66h-9.6v8.64H699Zm-15.18-35.81H674.4v8h9.42Zm0,11.63H674.4v8.16h9.42Zm-9.42,20.46h9.42v-8.64H674.4Zm11.22-36.23a55.35,55.35,0,0,0-4.14-8.58l3.48-1.38a49.36,49.36,0,0,1,4.2,8.34Z"/><path d="M723.84,2024.54a29.77,29.77,0,0,1-3.54,3.72h33.12v14.64h-4v-2H720.78v2.16h-3.84v-12.24a43.66,43.66,0,0,1-9.78,4.8,18.29,18.29,0,0,0-2.58-3.3,33.21,33.21,0,0,0,14-7.8H711.9v-3.12h9.42a29.66,29.66,0,0,0,2.88-4.86H705.78v-2.76h19.5a39.1,39.1,0,0,0,1.14-4H712.5v-3.06h38.58v7.07H759v2.76h-7.92v8Zm-13-22.07h-4v-9.12h22.86c-.6-1.38-1.38-2.82-2.1-4.14l4-.9a51.54,51.54,0,0,1,2.7,5h22.86v8.94H753v-5.64H710.88Zm-2.1,1.49a73.36,73.36,0,0,0,16.8-6.53l2.88,1.8a81.43,81.43,0,0,1-17.58,7.68Zm12,27.3v6.66H749.4v-6.66Zm7.68-14.7a26.37,26.37,0,0,1-2.46,4.86h21.24v-4.86Zm2.22-6.77c-.36,1.43-.72,2.7-1.14,4h17.7v-4Zm7.86-12a94.3,94.3,0,0,1,17,6.29l-1.74,2.88a102.19,102.19,0,0,0-17-6.65Z"/><path d="M776.76,2032c1.2.66,2.52,2,4.68,3.3,4,2.64,9.18,3.06,16.14,3.06,7.62,0,16.56-.54,22.5-1.2a16.64,16.64,0,0,0-1.2,4.5c-4.2.3-15.48.66-21.42.66-7.74,0-12.84-.66-17-3.42-2.46-1.68-4.5-3.84-5.82-3.84-2,0-4.8,3.72-7.86,8l-2.94-3.84c3.24-3.78,6.36-6.66,9-7.62v-19.08h-8v-3.89h12Zm-.3-30.29a69.76,69.76,0,0,0-9.3-10.14l3.06-2.22a79.17,79.17,0,0,1,9.48,9.9Zm38.16,29.09H785.1v-34.37h10.5a58.06,58.06,0,0,0,2.22-8.22l4.5.6c-.84,2.58-1.74,5.34-2.58,7.62h14.88Zm-4.26-30.71H789.18v11.69h21.18Zm0,15.18H789.18v11.87h21.18Z"/><path d="M843.36,2032.88a9,9,0,1,1-9.06-9A9,9,0,0,1,843.36,2032.88Zm-2.82,0a6.21,6.21,0,1,0-6.24,6.24A6.22,6.22,0,0,0,840.54,2032.88Z"/><rect class="cls-2" x="1113" y="1192" width="65" height="219" rx="12"/><path class="cls-1" d="M1157.05,1230.79a27.61,27.61,0,0,0,11.5,8.1,11.65,11.65,0,0,0-2.15,2.55,30.77,30.77,0,0,1-12.8-10.65h-15.95a34.39,34.39,0,0,1-13,11.3,11.43,11.43,0,0,0-2.15-2.55,30.39,30.39,0,0,0,11.6-8.75H1123v-2.85h10v-16.15h-7.7V1209h7.7v-5h3.3v5h18.55v-5h3.35v5h7.65v2.8h-7.65v16.15h9.8v2.85Zm-10,14.5h17.3v2.85H1126.8v-2.85h16.9v-5.6h-10.45v-2.8h10.45v-4.4h3.35v4.4h10.65v2.8h-10.65Zm-10.8-33.5v3.6h18.55v-3.6Zm0,9.8h18.55v-3.65h-18.55Zm0,6.35h18.55v-3.8h-18.55Z"/><path class="cls-1" d="M1141.25,1272.54s0,1.15,0,1.55c-.6,15.85-1.2,21.2-2.6,23a3.71,3.71,0,0,1-2.8,1.45,32.65,32.65,0,0,1-4.45,0,9.25,9.25,0,0,0-.85-3c1.75.15,3.2.15,3.9.15a1.42,1.42,0,0,0,1.45-.65c1-1.2,1.6-6,2.15-19.35h-6.8c-.55,10-2,18.25-6.45,23.65a9.53,9.53,0,0,0-2.55-2.35c5.45-6.45,5.9-17.85,6.1-31.55h-5.2v-3.1h20.1v3.1h-11.65c0,2.45-.1,4.85-.2,7.15Zm-7.9-10.45a33.47,33.47,0,0,0-4.25-7.15l2.9-1.15a31.92,31.92,0,0,1,4.4,7Zm23.85-7.45a15.26,15.26,0,0,1-.85,2.55c2.65,5.45,7.7,11.35,12.45,14a13,13,0,0,0-2.45,2.75c-4.25-2.7-8.5-8-11.4-13.3a32.61,32.61,0,0,1-11,13.6,12.79,12.79,0,0,0-2.35-2.65c5.85-3.6,10.35-10.2,12.5-17.85Zm-8.3,32.45a74,74,0,0,1,13.6,8.25l-2.25,2.9c-2.85-2.6-8.75-6.3-13.4-8.65Zm9.5-4.85a66.22,66.22,0,0,0-8.6-6.85l2.15-2.2a67.46,67.46,0,0,1,8.75,6.55Z"/><path class="cls-1" d="M1134.5,1317c-1.6,7.2-4.55,16.15-9.1,21.7a19.23,19.23,0,0,0-3.1-1.8c4.55-5.25,7.3-13.85,8.55-20.55Zm12.9-12.3v40c0,2.55-.7,3.6-2.35,4.2s-4.8.6-9.4.6a15.62,15.62,0,0,0-1.4-3.45c3.7.1,7.3.1,8.25.05s1.45-.35,1.45-1.4v-40ZM1159,1316c4.45,7,8.7,16.1,10,22l-3.45,1.45c-1.25-5.85-5.25-15.15-9.6-22.3Z"/><path class="cls-1" d="M1163.65,1381.74a72.75,72.75,0,0,1-7.65,3.65,19.75,19.75,0,0,0,12.1,9.55,10.66,10.66,0,0,0-2.1,2.6,22.77,22.77,0,0,1-12.5-11.1c-1.1.45-2.15.85-3.2,1.2,1.5,4.4.7,8.7-1.6,10.35a6,6,0,0,1-4.25,1.3c-1,0-2.25,0-3.55-.1a5.77,5.77,0,0,0-.9-2.85,30,30,0,0,0,4,.2,4.12,4.12,0,0,0,2.7-.65c1.35-1,1.9-3.75,1-6.9-5.55,3.7-14.45,7-22,8.45a11,11,0,0,0-1.45-2.4c8-1.1,17.65-4.65,22.65-8.35a13.35,13.35,0,0,0-1.25-2.15,69.47,69.47,0,0,1-17.55,6.35,7.59,7.59,0,0,0-1.4-2.15c5.8-1,13.4-3.4,17.7-5.85-.6-.55-1.25-1.15-2-1.7a80,80,0,0,1-15.25,4.15,16.41,16.41,0,0,0-1.55-2.2c5.7-.75,12.15-2.15,16.75-4.15h-18.55v-2.55h28c.3-.9.55-1.8.9-2.75h-21.7c1.25-2.8,3-7,4-10.25l3,.5a42,42,0,0,0-3.4-3.25l2-1.15h-6.25a29.23,29.23,0,0,1-5.1,5.6,25.27,25.27,0,0,0-2.35-2.2,26.89,26.89,0,0,0,7.5-9.35l3,.85c-.45.9-1,1.75-1.4,2.65h13.45v2.45h-8.3a44.9,44.9,0,0,1,4,3.65l-2.45,1.6a4.8,4.8,0,0,0-.7-.75c-.2.65-.45,1.25-.65,2h17.75l.6-.2,2.25.5c-.8,3.15-1.9,7-3,10.15h12V1379h-20.25c-.6.35-1.2.7-1.85,1a16.36,16.36,0,0,1,4.4,5.35,90.1,90.1,0,0,0,11.6-5.5Zm-10.2-10.3c.35-1.15.65-2.2,1-3.2h-17.7c-.45,1.15-.9,2.2-1.3,3.2Zm14.75-14.3v2.45h-16.6a28.84,28.84,0,0,1-4.55,5.15,15.06,15.06,0,0,0-2.55-2,21.57,21.57,0,0,0,6.7-9.1l3.1.8a26.43,26.43,0,0,1-1.25,2.7Zm-7.9,8a32.47,32.47,0,0,0-3.9-4.25l2.3-1.25a30.14,30.14,0,0,1,4,4Z"/><rect class="cls-2" x="1113" y="429" width="65" height="126" rx="12"/><path class="cls-1" d="M1132.7,458.82c1.25,1.6,4.9,6.7,5.7,8.05l-2,2.45c-.7-1.5-2.35-4.4-3.75-6.65V489h-3.15V464.57c-1.5,5.05-3.5,9.9-5.55,12.85a14.83,14.83,0,0,0-1.75-3.1c2.9-4,5.8-11.5,7.2-18h-6.2v-3.15h6.3v-9.65h3.15v9.65h5.45v3.15h-5.45Zm19.1.7a19.47,19.47,0,0,0,.45,2.65c-10.15,2.7-11.6,3.15-12.5,3.75a12.13,12.13,0,0,0-1.1-3.2c.7-.2,1.55-.5,1.55-2.2v-16.7h3.25v6.5h8.35v2.9h-8.35v8.3Zm2.35,5.5-2,3.75h12.65V489h-3.4v-1.75h-17v2h-3.3V468.77h7.9c.55-1.5,1.2-3.25,1.55-4.6Zm7.3,6.5h-17v5.05h17Zm0,13v-5.3h-17v5.3Zm2.25-22.4c1.25,0,1.5-.75,1.65-5.25a9.16,9.16,0,0,0,2.85,1.25c-.3,5.45-1.2,6.95-4.15,6.95h-5.85c-3.65,0-4.55-.95-4.55-4.45V443.87h3.25v6.5h10.2v2.9h-10.2v7.35c0,1.3.25,1.5,1.65,1.5Z"/><path class="cls-1" d="M1167.55,518.87v2.5H1123.4v-2.5h20.25v-3.2H1126.8v-2.3h16.85v-3H1128.2v-2.25h15.45v-3.2H1123.5v-2.5h20.15v-3.05H1128.8V497h14.85v-3.55h3.25V497h14.45v5.4h6.15v2.5h-6.15v5.45H1146.9v3h17.3v2.3h-17.3v3.2Zm-37.75,5h31.75v15.25h-3.25v-1.6H1133v1.7h-3.2Zm3.2,2.4v3.2h25.3v-3.2Zm25.3,8.85v-3.4H1133v3.4Zm-11.4-32.7h11.15v-3.05H1146.9Zm0,5.7h11.15v-3.2H1146.9Z"/><rect class="cls-3" x="324" y="1017" width="610" height="610" rx="208"/><path d="M600.66,1120q4.08,80.55,5.28,161.22t-.49,161.29q-.94,45.26-2.8,90.49c-.26,6.37,3,13.59,7.47,18s11.68,7.75,18,7.47c6.59-.3,13.43-2.46,18-7.47a27.44,27.44,0,0,0,7.47-18q3.3-80.58,3.73-161.26t-2-161.28q-1.38-45.24-3.68-90.46c-.34-6.74-2.61-13.17-7.46-18-4.43-4.42-11.68-7.75-18-7.47-6.59.3-13.43,2.46-18,7.47-4.44,4.84-7.81,11.26-7.47,18Z"/><path d="M406.63,1158.24a391.06,391.06,0,0,0,83.48,44.18,356.57,356.57,0,0,0,41.2,13.23,409.16,409.16,0,0,0,48.26,8.87,352.84,352.84,0,0,0,85.18.71c30.66-3.48,60.74-10,89.72-20.67a391.35,391.35,0,0,0,83.69-42.5q4.65-3.15,9.21-6.44a28.55,28.55,0,0,0,11.72-15.23c1.68-6.11.92-14.24-2.57-19.65s-8.74-10.24-15.24-11.72c-6.33-1.44-14.16-1.38-19.65,2.57a369.2,369.2,0,0,1-71.57,40.32l6.09-2.57a357.5,357.5,0,0,1-70.5,21.54q-10.27,2-20.66,3.39l6.78-.91a353.44,353.44,0,0,1-72.7,2.15q-10.43-.77-20.78-2.16l6.78.91a354.94,354.94,0,0,1-71-17.14q-9.89-3.49-19.55-7.57l6.09,2.57a368,368,0,0,1-68.26-37.91,18.9,18.9,0,0,0-9.48-3,19.24,19.24,0,0,0-10.17.46c-5.91,1.62-12.32,6.2-15.24,11.71-3.13,5.92-4.69,13.09-2.57,19.65l2.57,6.1a25.61,25.61,0,0,0,9.15,9.14Z"/><path d="M625.64,1242a157.21,157.21,0,0,0-36.25,6.55,202.37,202.37,0,0,0-19.83,7.73c-4.53,2-9,4.2-13.28,6.62a200.43,200.43,0,0,0-29.34,20.68,178.09,178.09,0,0,0-21.15,20.77A266.14,266.14,0,0,0,467,1364.75c-10.44,22.11-18.92,45.07-27.24,68l-26,71.76-3.28,9a19.34,19.34,0,0,0-.45,10.17,18.92,18.92,0,0,0,3,9.48A28.49,28.49,0,0,0,428.32,1545l6.78.91a25.27,25.27,0,0,0,12.87-3.48l5.16-4a25.45,25.45,0,0,0,6.56-11.25q9.44-26,18.86-52c5.95-16.41,11.8-32.87,17.92-49.22,3.22-8.6,6.55-17.17,10.12-25.64l-2.57,6.09c7.39-17.5,15.83-34.62,26.32-50.49q4.47-6.77,9.42-13.19l-4,5.16a179.7,179.7,0,0,1,31.84-31.9l-5.16,4a156.41,156.41,0,0,1,34.68-20.4l-6.1,2.57a133.22,133.22,0,0,1,33.34-9.2l-6.78.91q4-.54,8-.82a26.19,26.19,0,0,0,25.5-25.5l-.91-6.78a25.36,25.36,0,0,0-6.56-11.25l-5.16-4a25.27,25.27,0,0,0-12.87-3.48Z"/><path d="M634.25,1295.21c.54-.09,1.08-.16,1.63-.24l-6.78.91a99.54,99.54,0,0,1,26,0l-6.77-.91a116.12,116.12,0,0,1,29.57,8.19l-6.09-2.58a134.26,134.26,0,0,1,29.39,17.25l-5.16-4a143.6,143.6,0,0,1,25.45,25.75l-4-5.16c10.65,13.83,19.06,29.18,26.34,45,2.06,4.48,4,9,5.95,13.55L747.2,1387c7.34,17.41,14.18,35,21.2,52.59q11.24,28.11,22.49,56.21l12.68,31.69a28.44,28.44,0,0,0,11.71,15.24,18.9,18.9,0,0,0,9.49,3,19.31,19.31,0,0,0,10.16-.45l6.09-2.58a25.45,25.45,0,0,0,9.15-9.14l2.57-6.1a25.54,25.54,0,0,0,0-13.55q-14.34-35.87-28.69-71.72c-9.07-22.68-17.87-45.49-27.35-68-9.3-22.11-19.18-44.08-33.62-63.38-7.63-10.2-15.68-20-25.34-28.34a163.53,163.53,0,0,0-30.35-21.19,181.73,181.73,0,0,0-20.09-8.9,116.94,116.94,0,0,0-14.89-4.58,155.29,155.29,0,0,0-21.75-3.35,98.69,98.69,0,0,0-15.85-.15c-4.73.35-9.44,1-14.12,1.74a28.49,28.49,0,0,0-15.24,11.72,18.93,18.93,0,0,0-3,9.48,19.2,19.2,0,0,0,.46,10.16l2.57,6.1a25.53,25.53,0,0,0,9.15,9.14l6.09,2.58a25.78,25.78,0,0,0,13.56,0Z"/></svg>