<svg id="Layer_1" data-name="Layer 1" xmlns="http://www.w3.org/2000/svg" viewBox="0 0 1242 2208"><defs><style>.cls-1{fill:#f6eabe;}.cls-2{fill:#999;}.cls-3,.cls-4{fill:none;}.cls-4{stroke:#000;stroke-linecap:round;stroke-miterlimit:10;stroke-width:50px;}</style></defs><rect class="cls-1" width="1242" height="2208"/><path d="M899,480.78c-58.75,92.11-135,170.71-223.11,237.41,50,85.75,112,137.36,181,137.36,34.14,0,46.85-33.35,54.79-141.33,13.49,11.11,34.93,23,51.61,27-14.3,133.39-38.12,169.92-108,169.92-92.1,0-168.32-61.93-226.28-159.6C534.54,814.26,428.94,865.08,317,904c-7.15-13.5-24.62-37.32-35.73-50,117.51-35.73,227.08-86.55,322.36-150.86-34.94-74.63-62.73-165.94-79.4-264.4L260.61,460.93l-5.55-51.61,261.22-21.43a1571.94,1571.94,0,0,1-15.09-196.12h58a1631.13,1631.13,0,0,0,13.49,191.35l379.53-31,4.76,50L580.59,433.94c15.88,89.72,39.7,169.12,70.67,235,78.6-61.14,145.3-131.8,196.91-213.58Zm-73-147.68c-36.53-30.17-109.57-71.46-168.33-97.66l34.14-34.94c57.17,23,131.8,62.73,169.12,92.11Z"/><rect class="cls-2" x="1114" y="477" width="65" height="126" rx="12"/><path class="cls-1" d="M1133.7,506.82c1.25,1.6,4.9,6.7,5.7,8.05l-2,2.45c-.7-1.5-2.35-4.4-3.75-6.65V537h-3.15V512.57c-1.5,5-3.5,9.9-5.55,12.85a14.83,14.83,0,0,0-1.75-3.1c2.9-4,5.8-11.5,7.2-18h-6.2v-3.15h6.3v-9.65h3.15v9.65h5.45v3.15h-5.45Zm19.1.7a19.47,19.47,0,0,0,.45,2.65c-10.15,2.7-11.6,3.15-12.5,3.75a12.13,12.13,0,0,0-1.1-3.2c.7-.2,1.55-.5,1.55-2.2v-16.7h3.25v6.5h8.35v2.9h-8.35v8.3Zm2.35,5.5-2,3.75h12.65V537h-3.4v-1.75h-17v2h-3.3V516.77h7.9c.55-1.5,1.2-3.25,1.55-4.6Zm7.3,6.5h-17v5.05h17Zm0,13v-5.3h-17v5.3Zm2.25-22.4c1.25,0,1.5-.75,1.65-5.25a9.16,9.16,0,0,0,2.85,1.25c-.3,5.45-1.2,7-4.15,7h-5.85c-3.65,0-4.55-1-4.55-4.45V491.87h3.25v6.5h10.2v2.9h-10.2v7.35c0,1.3.25,1.5,1.65,1.5Z"/><path class="cls-1" d="M1168.55,566.87v2.5H1124.4v-2.5h20.25v-3.2H1127.8v-2.3h16.85v-3H1129.2v-2.25h15.45v-3.2H1124.5v-2.5h20.15v-3H1129.8V545h14.85v-3.55h3.25V545h14.45v5.4h6.15v2.5h-6.15v5.45H1147.9v3h17.3v2.3h-17.3v3.2Zm-37.75,5h31.75v15.25h-3.25v-1.6H1134v1.7h-3.2Zm3.2,2.4v3.2h25.3v-3.2Zm25.3,8.85v-3.4H1134v3.4Zm-11.4-32.7h11.15v-3H1147.9Zm0,5.7h11.15v-3.2H1147.9Z"/><path d="M384.92,1906.69a98.85,98.85,0,0,1-6.18,13.56v39.59H374.9v-33.35a61.73,61.73,0,0,1-5.46,7,32.86,32.86,0,0,0-2.28-3.9c5.58-5.87,10.8-14.87,14-24Zm34.2,29.21c-2,1.38-4.44,2.7-6.84,4,2,5.82,5.82,11.16,10.62,13.62a15.86,15.86,0,0,0-2.64,3.06c-4.92-3-8.76-8.76-10.86-15.3-1,.54-2.1,1-3.12,1.5,2.1,6.3,1.26,12.72-1.38,15.24a6.51,6.51,0,0,1-5,1.92c-1,0-2.4-.06-3.72-.12a9.47,9.47,0,0,0-1-3.48,34.56,34.56,0,0,0,4,.24,3.38,3.38,0,0,0,3-1.14c1.44-1.32,2.1-4.86,1.44-8.94a58.72,58.72,0,0,1-19.5,11.4,11.72,11.72,0,0,0-2.34-2.82c7.44-2.22,16.26-7,21.12-11.82a24.37,24.37,0,0,0-1.62-3.66,57.71,57.71,0,0,1-16.74,9.66,16.14,16.14,0,0,0-2.22-2.64c5.82-1.74,13.38-5.58,17.52-9.3a16.53,16.53,0,0,0-2.82-3,39.59,39.59,0,0,1-12.3,6.17,14.66,14.66,0,0,0-2.28-2.58c6.54-2.1,10.86-4.62,13.68-7.26h-9.54v-9.35c-1.08,1-2.22,1.92-3.42,2.88a9.81,9.81,0,0,0-2.64-2.53,45.41,45.41,0,0,0,13.92-16.25l3.84.72a35.7,35.7,0,0,1-2,3.54h11.1l.78-.18,2.34,1.68a52.13,52.13,0,0,1-4.8,6.84h13v12.65H400.7a15.52,15.52,0,0,1-1.38,1.63,22.17,22.17,0,0,1,6,7.85,120.47,120.47,0,0,0,11.1-6.66Zm-25-23.09a54.58,54.58,0,0,1-4.2,5.16h11.58a33.35,33.35,0,0,0,3.72-5.16Zm-4,14.69h8.64a15.14,15.14,0,0,0,2.46-6.42h-11.1Zm24.72-6.42H404.6a18.56,18.56,0,0,1-1.8,6.42h12.06Z"/><path d="M441.62,1924c-4.44,2.15-9.06,4.26-12.78,6l-1.38-3.35c3.66-1.44,8.82-4,14.16-6.36v-15h3.78v28h-3.78Zm36.66,19.85a83.5,83.5,0,0,1-10.92,6.06,40.39,40.39,0,0,0,15,6.36,11.48,11.48,0,0,0-2.34,3.24c-11.7-2.88-20.52-9.42-25.38-19.14h-.06a46.09,46.09,0,0,1-9.84,6.6v8.1l14.88-3.18a31.48,31.48,0,0,0-.12,3.24c-17,3.84-19,4.32-20.22,5.1a14.93,14.93,0,0,0-1.44-3.36,3.72,3.72,0,0,0,3-3.6v-4.5a72.08,72.08,0,0,1-11,3.66,18,18,0,0,0-2.28-3c7.68-1.56,16.44-4.92,22.08-9.06H428.36v-3.3h25.38a34.5,34.5,0,0,0-2.16-4.19l3.84-1.08a55.85,55.85,0,0,1,2.88,5.27h23.4v3.3H458.42a29.42,29.42,0,0,0,6.36,7.56,77.92,77.92,0,0,0,10.56-6.24Zm-41.52-26.39a34.15,34.15,0,0,0-7.32-6.42l2.46-2.28a33.64,33.64,0,0,1,7.38,6.12Zm25.8-.18H448v-3.54h14.52v-8.46h4v8.46H480.8v3.54H466.52v10h13.2v3.54H449.84v-3.54h12.72Z"/><path d="M541.76,1953.18v4H488.3v-4h22.62v-46.85h4.14v18.54h22.62v4H515.06v24.3Z"/><path d="M578.18,1932.79a37.53,37.53,0,0,0,24.6,21.83,15.05,15.05,0,0,0-2.76,3.66c-12.36-4.14-21.12-13.08-25.92-25.49h-9.72v20.93l14.7-3.78a17.38,17.38,0,0,0,.36,3.72c-16.38,4.44-18.48,5.16-19.86,6.06a16.15,16.15,0,0,0-1.62-3.6,3.58,3.58,0,0,0,2.28-3.54v-19.79H548.6v-4h11.64v-23.16h4.14v23.16h37.08v4Zm17-24.42c-5.88,7-14.94,13.2-23.16,17.21a21.52,21.52,0,0,0-3.3-3.12c8.52-3.59,17.22-9.41,22.56-15.71Z"/><path d="M620.48,1923.12c1.62,2.22,6.78,10,7.92,11.94l-2.4,2.82c-1-2.16-3.54-6.71-5.52-10v32h-3.72v-29.15c-1.92,6.47-4.44,12.83-7.08,16.73a15.21,15.21,0,0,0-2.1-3.72c3.6-5,7.32-14.81,9-23.09H609v-3.78h7.8v-11.58h3.72v11.58h6.42v3.78h-6.42Zm26.64-10.55v8.34h13.74v34.37c0,2.4-.48,3.54-2.1,4.2s-4.5.66-8.82.66a13.16,13.16,0,0,0-1.2-3.78c3.3.12,6.3.12,7.14.06s1.14-.3,1.14-1.2V1924.5H646.94v1.62a27.14,27.14,0,0,1-.24,3.42c3.54,5.1,7.74,11.58,9.78,15.42l-3.06,1.92a137.82,137.82,0,0,0-7.68-12.9,27.77,27.77,0,0,1-8.4,13.68,17.59,17.59,0,0,0-2.82-2.4c7.86-6.3,8.82-15.12,8.82-19.19v-1.57H633.8v35.76h-3.72v-39.35h13.26v-8.34H628.7v-3.72h32.94v3.72Z"/><path d="M684,1906c-1,2.94-2.1,6.3-3.18,8.88H691v38.75h-16.8v4.8h-3.66v-43.55h6.66a64.68,64.68,0,0,0,2.58-9.72Zm3.3,12.47H674.18v13.08h13.14Zm0,31.56v-14.88H674.18v14.88Zm33.06-33.17c-1,27.53-1.8,36.71-4.2,39.59a5.6,5.6,0,0,1-4.56,2.28,74.94,74.94,0,0,1-8.82-.12,9.42,9.42,0,0,0-1.32-3.9c3.9.36,7.5.36,8.82.36s1.92-.12,2.52-.9c2-2.1,2.94-11.34,3.72-35.7H700.82a55.33,55.33,0,0,1-5.64,10.68,36.22,36.22,0,0,0-3.36-2.22c4.08-5.34,7.32-13.61,9.18-21.89l3.84.84c-.78,3-1.62,6-2.64,8.88h18.18Zm-12.78,27a106.51,106.51,0,0,0-9.3-13.92l3.06-1.79a102.47,102.47,0,0,1,9.6,13.61Z"/><path d="M754,1908.49H739.22v35.15h-4v-38.87H754Z"/><path d="M807.14,1927.38a69.44,69.44,0,0,1-16.86,17.94c3.78,6.48,8.46,10.38,13.68,10.38,2.58,0,3.54-2.52,4.14-10.68a11.06,11.06,0,0,0,3.9,2c-1.08,10.08-2.88,12.84-8.16,12.84-7,0-12.72-4.68-17.1-12.06a104.91,104.91,0,0,1-23.58,11.52,25.82,25.82,0,0,0-2.7-3.78,90.84,90.84,0,0,0,24.36-11.4,79.08,79.08,0,0,1-6-20l-19.92,1.67-.42-3.89,19.74-1.62a118.64,118.64,0,0,1-1.14-14.82h4.38a123,123,0,0,0,1,14.45l28.68-2.33.36,3.78-28.44,2.39a71.28,71.28,0,0,0,5.34,17.76,63.29,63.29,0,0,0,14.88-16.14Zm-5.52-11.15a65.3,65.3,0,0,0-12.72-7.38l2.58-2.64a62,62,0,0,1,12.78,7Z"/><path d="M816,1956.84h14.82v-35.15h4v38.87H816Z"/><path d="M849,1958.7c4.68-2,7.26-4.92,7.56-9.18a7.35,7.35,0,0,1-1.14.12c-2.34,0-4.26-1.38-4.26-4.08a4,4,0,0,1,4.32-4.14c3.18,0,4.86,2.64,4.86,6.66,0,6.48-4,11.28-10.08,13.44Z"/><path d="M337.46,2026.62a70.7,70.7,0,0,0,7.38.36c2.1.06,14.76,0,17.58-.06a16.36,16.36,0,0,0-1.44,3.84H344.72c-12.3,0-19.92-1.92-24.72-10.38a31.55,31.55,0,0,1-9.48,11.7,19.84,19.84,0,0,0-3.06-2.82c6.3-4.14,10.2-10.92,11.82-19.86l4,.6a55.92,55.92,0,0,1-1.5,6.06c2.34,5.64,6.3,8.52,11.7,9.84v-18.54H308.72v-3.6H361.4v3.6H337.46v7.08h20v3.6h-20Zm17.22-27.17h-39.6v-19.56h39.6Zm-4-16.44H319v5.16h31.68Zm0,8.1H319v5.27h31.68Z"/><path d="M397.1,1992.12v13.32h18.12v26.4H411v-3H379.1v3.24H375v-26.64H392.9v-13.32H368.48v-3.89H392.9v-10.92h4.2v10.92h24.6v3.89Zm13.86,17.1H379.1V2025H411Z"/><path d="M447.92,1979.17a83.4,83.4,0,0,1-6.6,12.3v40.37h-4v-34.67a66.33,66.33,0,0,1-8.4,9.17,25.86,25.86,0,0,0-2.34-3.78A67.69,67.69,0,0,0,444.2,1978Zm15.72,20.16c2.16,16.25,6.24,27.41,13,28,1.68.12,2.76-3.48,3.42-10.5a13,13,0,0,0,3.3,2c-1.26,10.08-3.48,13.26-6.6,13.14-9.9-.72-14.58-13.38-16.92-32.21l-14.88,1.92-.6-3.79,15-1.85c-.54-5.53-1-11.52-1.26-17.82h4c.18,6.12.6,12,1.14,17.33l18.18-2.21.6,3.66Zm14.1-8.76a64.7,64.7,0,0,0-10-9.9l2.88-1.86a68.6,68.6,0,0,1,10.14,9.54Z"/><path d="M504,1978c-1,2.94-2.1,6.3-3.18,8.88H511v38.75h-16.8v4.8h-3.66v-43.55h6.66a64.68,64.68,0,0,0,2.58-9.72Zm3.3,12.47H494.18v13.08h13.14Zm0,31.56v-14.88H494.18v14.88Zm33.06-33.17c-1,27.53-1.8,36.71-4.2,39.59a5.6,5.6,0,0,1-4.56,2.28,74.94,74.94,0,0,1-8.82-.12,9.42,9.42,0,0,0-1.32-3.9c3.9.36,7.5.36,8.82.36s1.92-.12,2.52-.9c2-2.1,2.94-11.34,3.72-35.7H520.82a55.33,55.33,0,0,1-5.64,10.68,36.22,36.22,0,0,0-3.36-2.22c4.08-5.34,7.32-13.61,9.18-21.89l3.84.84c-.78,3-1.62,6-2.64,8.88h18.18Zm-12.78,27a106.51,106.51,0,0,0-9.3-13.92l3.06-1.79a102.47,102.47,0,0,1,9.6,13.61Z"/><path d="M602.36,2001.91v4.31H547.88v-4.31Z"/><path d="M621.68,1999.26c1.8,2,7,8.52,8.16,10.2l-2.46,3.12c-1-2-3.66-6-5.7-9v28.26h-3.9v-27.42c-2.52,6.25-5.88,12.54-9.12,16.38a17.46,17.46,0,0,0-2-3.54c3.84-4.32,8.16-12.35,10.56-19.38h-9.12v-3.71h9.72v-9.54c-2.88.6-5.82,1.14-8.58,1.5a13.1,13.1,0,0,0-1.14-3.12c6.66-1.08,14.64-2.82,19-4.8l2.52,3.12a51.44,51.44,0,0,1-7.92,2.52v10.32h7.86v3.71h-7.86Zm39.36-9.18v25.8h-3.9v-3.36h-8.76v19.32h-4v-19.32h-9.06v3.66h-3.78v-26.1h12.84v-12.59h4v12.59Zm-16.62,18.6v-14.76h-9.06v14.76Zm12.72,0v-14.76h-8.76v14.76Z"/><path d="M685.64,2012.22c-.9-2-3.18-5.88-5-8.88v28.5h-3.78v-29c-2.1,6.89-5,13.61-7.86,17.69a25.52,25.52,0,0,0-2.1-3.48c3.78-5.1,7.68-14.75,9.54-23.16h-8.1v-3.65h8.52v-13h3.78v13h7.2v2.4H696v-6.36h-7.2V1983H696v-5.58h3.78V1983h10.08v-5.58h3.78V1983H721v3.36h-7.38v6.36h8.7v3.48h-16v4.56H720v20H689.84v-20h12.84v-4.56H687.14v-2.23H680.6v4.87c1.8,2.16,6.3,8.69,7.26,10.25Zm15.66,12.12a52.66,52.66,0,0,1-13.14,7.62,22.16,22.16,0,0,0-2.64-2.7c4.38-1.62,9.66-4.56,12.18-7Zm-7.92-15.17h9.3v-5.41h-9.3Zm0,8.45h9.3v-5.52h-9.3Zm6.42-24.95h10.08v-6.36H699.8Zm6.6,11.09v5.41h10v-5.41Zm10,8.34h-10v5.52h10Zm-5,10.32A87.48,87.48,0,0,1,723,2029.5l-3,2.52a83.75,83.75,0,0,0-11.52-7.44Z"/><path d="M777.26,1986.13c-.9,30-1.8,40.19-4.32,43.25a6.06,6.06,0,0,1-4.86,2.52,75.41,75.41,0,0,1-9.48-.18,10,10,0,0,0-1.38-4.14c4.2.36,8,.42,9.42.42a3,3,0,0,0,2.64-1c2-2.22,3.06-12.42,3.9-39.29H755.9c-.9,14.33-3.48,34.73-24.42,44.27a15.53,15.53,0,0,0-2.88-3.18c20.34-8.7,22.26-28.07,23-41.09H730.76v-3.84h46.5Zm-37.08,9.6c-1.2,6.53-3.36,13.67-8.28,17.81l-3.12-2.28c4.56-3.66,6.84-10.19,7.92-16.49Z"/><path d="M841.94,2011.8v3.84h-53.7v-3.84h10.38v-30.59c11.88-.66,26.34-1.86,34.62-3.6l2.16,3.6c-8.52,1.68-21.48,2.88-32.76,3.36v8.93h35.94v3.79H827.66v14.51ZM809.66,2020a94.94,94.94,0,0,1-18.24,12,31.38,31.38,0,0,0-2.82-2.88c6.06-2.88,13.38-7.56,17.28-11.46Zm-7-8.16h20.94v-14.51H802.64Zm20.7,5.82a141.67,141.67,0,0,1,17.4,11.1l-3.06,3a143.48,143.48,0,0,0-17.28-11.52Z"/><path d="M884.84,2005.92c4.62,4,11.52,7.32,18.06,8.94a16.34,16.34,0,0,0-2.52,3.18c-1.08-.3-2.1-.66-3.18-1v14.58h-3.78v-1.44H882.08v1.8h-3.66v-18.3H890a39,39,0,0,1-10-7.74H868.76a47.4,47.4,0,0,1-9.42,7.74H871v17.94h-3.78v-1.44H856.58v1.8h-3.66v-14.82c-1.14.54-2.34,1-3.54,1.5a11.31,11.31,0,0,0-2.28-3.06,50,50,0,0,0,16.44-9.66H848.36v-3.54H867a30,30,0,0,0,4.38-6.77l4.08.72a37.8,37.8,0,0,1-3.72,6.05h17.88a38,38,0,0,0-7.74-4l2-2.16a34.58,34.58,0,0,1,8.82,4.45l-1.5,1.67H901.7v3.54ZM871,1996H852.92v-16H871Zm-3.72-12.48h-10.8v9h10.8Zm-.06,33.59H856.58v9.48h10.68ZM897.2,1996H878.3v-16h18.9Zm-3.78-12.48H882v9h11.4Zm0,43.07v-9.48H882.08v9.48Z"/><path d="M926.36,2021.88a9,9,0,1,1-9.06-9A9,9,0,0,1,926.36,2021.88Zm-2.82,0a6.21,6.21,0,1,0-6.24,6.24A6.22,6.22,0,0,0,923.54,2021.88Z"/><line class="cls-3" x1="621" y1="351" x2="621" y2="351"/><rect class="cls-2" x="1115" y="1302" width="65" height="220" rx="12"/><path class="cls-1" d="M1159.05,1340.79a27.61,27.61,0,0,0,11.5,8.1,11.65,11.65,0,0,0-2.15,2.55,30.77,30.77,0,0,1-12.8-10.65h-15.95a34.39,34.39,0,0,1-13,11.3,11.43,11.43,0,0,0-2.15-2.55,30.39,30.39,0,0,0,11.6-8.75H1125v-2.85h10v-16.15h-7.7V1319h7.7v-5h3.3v5h18.55v-5h3.35v5h7.65v2.8h-7.65v16.15h9.8v2.85Zm-10,14.5h17.3v2.85H1128.8v-2.85h16.9v-5.6h-10.45v-2.8h10.45v-4.4h3.35v4.4h10.65v2.8h-10.65Zm-10.8-33.5v3.6h18.55v-3.6Zm0,9.8h18.55v-3.65h-18.55Zm0,6.35h18.55v-3.8h-18.55Z"/><path class="cls-1" d="M1143.25,1382.54s0,1.15,0,1.55c-.6,15.85-1.2,21.2-2.6,23a3.71,3.71,0,0,1-2.8,1.45,32.65,32.65,0,0,1-4.45,0,9.25,9.25,0,0,0-.85-3c1.75.15,3.2.15,3.9.15a1.42,1.42,0,0,0,1.45-.65c1-1.2,1.6-6,2.15-19.35h-6.8c-.55,10-2,18.25-6.45,23.65a9.53,9.53,0,0,0-2.55-2.35c5.45-6.45,5.9-17.85,6.1-31.55h-5.2v-3.1h20.1v3.1h-11.65c0,2.45-.1,4.85-.2,7.15Zm-7.9-10.45a33.47,33.47,0,0,0-4.25-7.15l2.9-1.15a31.92,31.92,0,0,1,4.4,7Zm23.85-7.45a15.26,15.26,0,0,1-.85,2.55c2.65,5.45,7.7,11.35,12.45,14a13,13,0,0,0-2.45,2.75c-4.25-2.7-8.5-8-11.4-13.3a32.61,32.61,0,0,1-11,13.6,12.79,12.79,0,0,0-2.35-2.65c5.85-3.6,10.35-10.2,12.5-17.85Zm-8.3,32.45a74,74,0,0,1,13.6,8.25l-2.25,2.9c-2.85-2.6-8.75-6.3-13.4-8.65Zm9.5-4.85a66.22,66.22,0,0,0-8.6-6.85l2.15-2.2a67.46,67.46,0,0,1,8.75,6.55Z"/><path class="cls-1" d="M1150.6,1414.94c-.35.6-.8,1.15-1.2,1.75,4.95,5.5,13.85,10.9,21.4,13.3a16.56,16.56,0,0,0-2.35,2.9,60.7,60.7,0,0,1-21-13.9,48.65,48.65,0,0,1-12.4,10h25.1v3.1h-11.1v7.05h17.75v3H1149.1v12.7H1169v3.1h-43v-3.1h19.55v-12.7h-17.35v-3h17.35v-7.05h-10.9v-2.9a58.72,58.72,0,0,1-8.25,3.85,11.79,11.79,0,0,0-2.25-3c9.35-3.1,18.55-9.1,23.3-16.5Zm-15.25,28.65a42.46,42.46,0,0,1,4.8,9.1l-2.9,1.2a40.78,40.78,0,0,0-4.65-9.2Zm18.55,9.3a71.79,71.79,0,0,0,5.35-9.35l3.15,1.25a101.62,101.62,0,0,1-6,9.2Z"/><path class="cls-1" d="M1162,1476.09a51.83,51.83,0,0,1-12,19.6,49.94,49.94,0,0,0,20.5,10.5,16.79,16.79,0,0,0-2.25,3,50.92,50.92,0,0,1-20.75-11.1c-5.65,5-12.55,8.6-21,11.3a15.53,15.53,0,0,0-2-3.05c8.35-2.45,15.1-5.9,20.6-10.6a57.05,57.05,0,0,1-12.2-19.65h-7.75v-3.25h44.75v3.25Zm-25.75,0a52.13,52.13,0,0,0,11.3,17.3,47.46,47.46,0,0,0,10.7-17.3Zm11.25-3.55a38.13,38.13,0,0,0-3.8-7.8l3.4-1a39,39,0,0,1,4,7.65Z"/><line class="cls-4" x1="761.6" y1="1158" x2="761.6" y2="1738"/><path class="cls-4" d="M765.16,1214.92c27-6.11,49-26.78,62.33-51s19.15-51.84,23.22-79.21"/><line class="cls-4" x1="685.6" y1="1692" x2="836.6" y2="1692"/><path d="M754.87,1240.91a715.72,715.72,0,0,0-80.21-22,619.62,619.62,0,0,0-89.5-12.64,511.93,511.93,0,0,0-70.17.61c-25.47,1.9-51.15,5.39-75.8,12.23a260.1,260.1,0,0,0-37.76,13.92,149,149,0,0,0-28.19,16.5c-3.74,2.82-7.47,5.66-11,8.7a28.44,28.44,0,0,0-7.47,18c0,6.26,2.78,13.73,7.47,18,4.86,4.46,11.24,7.78,18,7.47l6.78-.91a25.45,25.45,0,0,0,11.25-6.56q2.3-1.95,4.68-3.79l-5.16,4a154.33,154.33,0,0,1,34-19.43l-6.09,2.57c17.41-7.32,35.78-12.16,54.34-15.49,5.39-1,10.8-1.8,16.23-2.53l-6.78.91a493.25,493.25,0,0,1,98.9-3c10.87.77,21.72,1.91,32.52,3.35l-6.78-.91a674.74,674.74,0,0,1,100.49,21.71q13.44,4,26.72,8.44a19.34,19.34,0,0,0,10.17.45,19,19,0,0,0,9.48-3c5.29-3.1,10.33-9.16,11.71-15.24,1.49-6.53,1.17-13.86-2.57-19.65l-4-5.16a25.48,25.48,0,0,0-11.26-6.56Z"/><path d="M366.42,1299.62c17.15,11.85,36.09,20.74,55.56,28a346.93,346.93,0,0,0,54.1,15c9.32,1.85,18.69,3.42,28.09,4.78,9.08,1.31,18.14,2.58,27.29,3.16,13.71.87,27.46.74,41.18.82,15.85.1,31.76.39,47.49,2.5l-6.78-.91a133,133,0,0,1,33.71,8.68l-6.1-2.57a86.17,86.17,0,0,1,19,11l-5.16-4a79,79,0,0,1,13.73,13.8l-4-5.16c7.89,10.29,12.5,22.44,19.25,33.42,4.28,7,9.36,14,15.8,19.11a84.52,84.52,0,0,0,13.49,9.08,170.3,170.3,0,0,0,16.57,7.53,55.71,55.71,0,0,0,12.72,3.51,78.8,78.8,0,0,0,12.35,1.24,77.42,77.42,0,0,0,13.15-1.57,28.52,28.52,0,0,0,15.24-11.72,18.9,18.9,0,0,0,3-9.48,19.24,19.24,0,0,0-.46-10.17c-2-6.17-5.82-12.12-11.71-15.24l-6.1-2.57a25.74,25.74,0,0,0-13.55,0c-.68.13-1.35.24-2,.34l6.78-.91a39.68,39.68,0,0,1-9.92,0l6.78.91a56.71,56.71,0,0,1-14-4l6.09,2.57c-5.94-2.53-12.18-5.44-17.35-9.37l5.16,4a45.33,45.33,0,0,1-7.76-7.9l4,5.16c-5.14-6.71-8.82-14.36-12.68-21.84a138.22,138.22,0,0,0-16.34-24.89c-5.79-7-12.89-12.82-20.33-18S667,1315,658.48,1311.63c-15.24-6-31.84-8.35-48.06-9.81-15-1.36-30.14-1.38-45.22-1.44-15.9-.06-31.91,0-47.71-2.13l6.78.91c-26.22-3.55-52.37-8.49-77.55-16.76q-10.62-3.48-20.94-7.8l6.09,2.57a221,221,0,0,1-39.7-21.59,19,19,0,0,0-9.49-3,19.3,19.3,0,0,0-10.16.45c-5.92,1.63-12.33,6.21-15.24,11.72-3.13,5.92-4.7,13.09-2.57,19.65l2.57,6.09a25.53,25.53,0,0,0,9.14,9.15Z"/><line class="cls-4" x1="763.1" y1="1269.5" x2="847.6" y2="1292"/><line class="cls-4" x1="763.1" y1="1345.5" x2="847.6" y2="1368"/><path class="cls-4" d="M849.6,1369"/><line class="cls-4" x1="847.6" y1="1368" x2="847.6" y2="1292"/></svg>