<svg id="Layer_1" data-name="Layer 1" xmlns="http://www.w3.org/2000/svg" viewBox="0 0 1242 2208"><defs><style>.cls-1{fill:#f6eabe;}.cls-2{fill:#999;}.cls-3,.cls-4{fill:none;}.cls-4{stroke:#000;stroke-linecap:round;stroke-miterlimit:10;stroke-width:50px;}</style></defs><rect class="cls-1" width="1242" height="2208"/><path d="M920.42,422.52C881.52,525,830.7,613.87,766.39,689.3c28.58,74.64,65.9,121.48,115.92,127.83,21.44,3.18,33.35-48.43,41.29-135.77,11.11,10.32,30.17,21.44,42.87,27-11.91,127-40.49,176.26-97.66,160.38-62.72-10.32-108-59.54-141.33-136.56A784.07,784.07,0,0,1,536.13,878.27C529,867.16,510.72,844.92,498,834.6A731.28,731.28,0,0,0,708.43,678.19c-28.59-89.72-45.26-204.85-55.58-335.86H370.19V478.9L390,460.63c71.45,42.88,154.82,108,194.52,154.83l-38.9,37.32C510.72,608.32,436.09,548,370.19,503.51c-.8,111.16-13.5,266-85.76,370-8.73-9.53-30.17-27-42.08-34.14,68.29-99.25,76.23-239,76.23-343V291.51h330.3c-3.18-46-5.56-93.69-7.94-141.33h53.19c1.59,47.64,3.18,95.28,6.36,141.33H953.77v50.82H704.46c8.73,109.57,22.23,209.61,43.66,289,50.82-65.9,91.31-139.74,120.69-223.11ZM881.52,278c-29.38-26.21-89.73-65.11-137.36-90.52l31.75-31.76c47.64,23.82,108,61.14,138.16,87.34Z"/><rect class="cls-2" x="1114" y="437" width="65" height="126" rx="12"/><path class="cls-1" d="M1133.7,466.82c1.25,1.6,4.9,6.7,5.7,8.05l-2,2.45c-.7-1.5-2.35-4.4-3.75-6.65V497h-3.15V472.57c-1.5,5.05-3.5,9.9-5.55,12.85a14.83,14.83,0,0,0-1.75-3.1c2.9-4,5.8-11.5,7.2-18h-6.2v-3.15h6.3v-9.65h3.15v9.65h5.45v3.15h-5.45Zm19.1.7a19.47,19.47,0,0,0,.45,2.65c-10.15,2.7-11.6,3.15-12.5,3.75a12.13,12.13,0,0,0-1.1-3.2c.7-.2,1.55-.5,1.55-2.2v-16.7h3.25v6.5h8.35v2.9h-8.35v8.3Zm2.35,5.5-2,3.75h12.65V497h-3.4v-1.75h-17v2h-3.3V476.77h7.9c.55-1.5,1.2-3.25,1.55-4.6Zm7.3,6.5h-17v5.05h17Zm0,13v-5.3h-17v5.3Zm2.25-22.4c1.25,0,1.5-.75,1.65-5.25a9.16,9.16,0,0,0,2.85,1.25c-.3,5.45-1.2,6.95-4.15,6.95h-5.85c-3.65,0-4.55-.95-4.55-4.45V451.87h3.25v6.5h10.2v2.9h-10.2v7.35c0,1.3.25,1.5,1.65,1.5Z"/><path class="cls-1" d="M1168.55,526.87v2.5H1124.4v-2.5h20.25v-3.2H1127.8v-2.3h16.85v-3H1129.2v-2.25h15.45v-3.2H1124.5v-2.5h20.15v-3.05H1129.8V505h14.85v-3.55h3.25V505h14.45v5.4h6.15v2.5h-6.15v5.45H1147.9v3h17.3v2.3h-17.3v3.2Zm-37.75,5h31.75v15.25h-3.25v-1.6H1134v1.7h-3.2Zm3.2,2.4v3.2h25.3v-3.2Zm25.3,8.85v-3.4H1134v3.4Zm-11.4-32.7h11.15v-3.05H1147.9Zm0,5.7h11.15v-3.2H1147.9Z"/><path d="M234.92,1897.69a98.85,98.85,0,0,1-6.18,13.56v39.59H224.9v-33.35a61.73,61.73,0,0,1-5.46,7,32.86,32.86,0,0,0-2.28-3.9c5.58-5.87,10.8-14.87,14-24Zm34.2,29.21c-2,1.38-4.44,2.7-6.84,4,2,5.82,5.82,11.16,10.62,13.62a15.86,15.86,0,0,0-2.64,3.06c-4.92-3-8.76-8.76-10.86-15.3-1,.54-2.1,1-3.12,1.5,2.1,6.3,1.26,12.72-1.38,15.24a6.51,6.51,0,0,1-5,1.92c-1,0-2.4-.06-3.72-.12a9.47,9.47,0,0,0-1-3.48,34.56,34.56,0,0,0,4,.24,3.38,3.38,0,0,0,3-1.14c1.44-1.32,2.1-4.86,1.44-8.94a58.72,58.72,0,0,1-19.5,11.4,11.72,11.72,0,0,0-2.34-2.82c7.44-2.22,16.26-7,21.12-11.82a24.37,24.37,0,0,0-1.62-3.66,57.71,57.71,0,0,1-16.74,9.66,16.14,16.14,0,0,0-2.22-2.64c5.82-1.74,13.38-5.58,17.52-9.3a16.53,16.53,0,0,0-2.82-3,39.59,39.59,0,0,1-12.3,6.17,14.66,14.66,0,0,0-2.28-2.58c6.54-2.1,10.86-4.62,13.68-7.26h-9.54v-9.35c-1.08,1-2.22,1.92-3.42,2.88a9.81,9.81,0,0,0-2.64-2.53,45.41,45.41,0,0,0,13.92-16.25l3.84.72a35.7,35.7,0,0,1-2,3.54h11.1l.78-.18,2.34,1.68a52.13,52.13,0,0,1-4.8,6.84h13v12.65H250.7a15.52,15.52,0,0,1-1.38,1.63,22.17,22.17,0,0,1,6,7.85,120.47,120.47,0,0,0,11.1-6.66Zm-25-23.09a54.58,54.58,0,0,1-4.2,5.16h11.58a33.35,33.35,0,0,0,3.72-5.16Zm-4,14.69h8.64a15.14,15.14,0,0,0,2.46-6.42h-11.1Zm24.72-6.42H254.6a18.56,18.56,0,0,1-1.8,6.42h12.06Z"/><path d="M304,1899.49H289.22v35.15h-4v-38.87H304Z"/><path d="M337.28,1896.55c-.06,2.1-.12,5.1-.42,8.64.9,7,4.56,32.51,25.74,42a12.63,12.63,0,0,0-2.88,3.36c-15.42-7.26-21.72-22.74-24.6-34-2.64,12.23-8.94,26.33-24.06,34.19a13.77,13.77,0,0,0-3.12-3.06c25-12.48,24.78-42.11,25-51.11Z"/><path d="M366,1947.84h14.82v-35.15h4v38.87H366Z"/><path d="M415.1,1913.77c-5.76,1.14-11.52,2.22-16,3.06l-.66-3.49c4.32-.65,10.44-1.67,16.68-2.69V1905H399.92v-3.3H415.1v-5.34h4v22h-4Zm28.26,32.69c0,2.28-.6,3.36-2.34,4s-4.86.66-9.6.66a16.27,16.27,0,0,0-1.32-3.6c3.54.12,7,.12,7.92.12s1.26-.36,1.26-1.2v-5.76H411.2V1951h-4v-30.65h36.12Zm-32.16-23v5.4h28.08v-5.4Zm28.08,14.1v-5.64H411.2v5.64Zm5.82-23.33c2.1,0,2.52-.72,2.7-5.17a14.46,14.46,0,0,0,3.6,1.39c-.42,5.7-1.68,7.25-5.94,7.25H435.08c-5.46,0-6.9-1.14-6.9-5.39v-16h4v7.74a81.77,81.77,0,0,0,13.86-5l2.88,2.88a94.54,94.54,0,0,1-16.74,5.34v5c0,1.55.48,1.92,3.24,1.92Z"/><path d="M467.18,1914.25a53.47,53.47,0,0,1-5.58,4.5,13.3,13.3,0,0,0-3-2.71,54.18,54.18,0,0,0,17.58-19.61l4.38.78c-.84,1.44-1.74,2.94-2.7,4.44h15.78l.66-.24,2.64,1.8a65.42,65.42,0,0,1-6.6,10.25h13.74v25.74h-4.14V1917H471.2v22.2h-4Zm20.4,7.25c-1.2,16.68-4.74,25.56-26.46,29.46a11.65,11.65,0,0,0-1.92-3.36c20.58-3.36,23.22-11.1,24.24-26.1ZM475.52,1905a64.12,64.12,0,0,1-7.5,8.45h17.82a57.9,57.9,0,0,0,5.7-8.45Zm13.38,33.11a220.41,220.41,0,0,1,21,10l-3,2.82a188.47,188.47,0,0,0-20.46-10.32Z"/><path d="M537.86,1921.92c-.84,1.26-1.62,2.58-2.46,3.79h29.76v25.19H561v-2.16h-25.8v2.34h-4V1931a60.86,60.86,0,0,1-11.1,10.14,23.93,23.93,0,0,0-3.06-2.94,54.37,54.37,0,0,0,16.2-16.26H519.2v-3.3h16.14c.84-1.44,1.56-2.87,2.28-4.43h-13V1911h14.46c.6-1.38,1.2-2.88,1.74-4.37H522v-3.3h12.12a39.08,39.08,0,0,0-4.14-5.88l3.72-1.38a38.18,38.18,0,0,1,4.62,6.36l-2.1.9h15.54a58.52,58.52,0,0,0,4.5-7.14l4.08,1.32c-1.32,2-2.88,4.08-4.32,5.82H568.1v3.3H544.94c-.54,1.49-1.08,3-1.68,4.37h22.2v3.19H541.88c-.66,1.56-1.38,3-2.16,4.43h31v3.3Zm23.16,6.9h-25.8v3.78H561Zm0,6.42h-25.8v3.84H561Zm0,10.38v-3.9h-25.8v3.9Z"/><path d="M604,1899.49H589.22v35.15h-4v-38.87H604Z"/><path d="M657.14,1918.38a69.44,69.44,0,0,1-16.86,17.94c3.78,6.48,8.46,10.38,13.68,10.38,2.58,0,3.54-2.52,4.14-10.68a11.06,11.06,0,0,0,3.9,2c-1.08,10.08-2.88,12.84-8.16,12.84-7,0-12.72-4.68-17.1-12.06a104.91,104.91,0,0,1-23.58,11.52,25.82,25.82,0,0,0-2.7-3.78,90.84,90.84,0,0,0,24.36-11.4,79.08,79.08,0,0,1-6-20l-19.92,1.67-.42-3.89,19.74-1.62a118.64,118.64,0,0,1-1.14-14.82h4.38a123,123,0,0,0,1,14.45l28.68-2.33.36,3.78-28.44,2.39a71.28,71.28,0,0,0,5.34,17.76,63.29,63.29,0,0,0,14.88-16.14Zm-5.52-11.15a65.3,65.3,0,0,0-12.72-7.38l2.58-2.64a62,62,0,0,1,12.78,7Z"/><path d="M666,1947.84h14.82v-35.15h4v38.87H666Z"/><path d="M722.6,1925.64a119.68,119.68,0,0,1-13.44,18.24l30.72-2.22a110.31,110.31,0,0,0-8.46-10.8l3.48-1.62c5.4,5.88,11.28,13.8,14.1,19l-3.78,2.1c-.78-1.56-1.86-3.36-3.06-5.28-32.88,2.64-36.12,2.88-38.34,3.72a18,18,0,0,0-1.32-4c1.26-.18,2.64-1.68,4.38-3.84a100.43,100.43,0,0,0,10.8-15.36H698.36v-4H722.9v-11.69H703v-4H722.9v-9.66H727V1906h20.28v4H727v11.69h24.78v4Z"/><path d="M775.64,1897.69a96.5,96.5,0,0,1-6.18,12.48v40.67h-3.84v-34.73a66.14,66.14,0,0,1-6.78,8.15,26.22,26.22,0,0,0-2.28-3.89c6.06-5.7,11.88-14.7,15.36-23.82Zm21.84,31.67c3.84,6.48,10.2,12.72,16.08,15.9a16,16,0,0,0-2.82,3.18c-5.64-3.6-11.7-10-15.72-16.86V1951h-4V1931.7c-4.26,6.9-10.56,13.2-16.62,16.62a17.14,17.14,0,0,0-2.76-3.12c6.24-3.06,12.84-9.36,16.92-15.84h-15.3v-3.65H791v-7.8H777.74v-18.72h30.9v18.72H795v7.8h17v3.65Zm-15.9-15h23v-11.52h-23Z"/><path d="M871.82,1944.78v3.9H818.3v-3.9h22.08v-40.07H822.14v-4H866.9v25.5c0,2.51-.6,3.77-2.64,4.49s-5.94.66-11.52.66a13.59,13.59,0,0,0-1.56-4c4.74.18,8.94.18,10.2.06s1.5-.36,1.5-1.32v-21.47H844.64v40.07Z"/><path d="M889.76,1939.92c1.2.72,2.52,2,4.68,3.36,4,2.64,9.18,3.06,16.2,3.06,7.56,0,16.56-.54,22.5-1.2a16.75,16.75,0,0,0-1.26,4.5c-4.14.3-15.36.66-21.42.66-7.74,0-12.84-.66-17-3.42-2.46-1.68-4.5-3.84-5.82-3.84-2,0-4.8,3.72-7.86,8l-2.94-3.84c3.24-3.78,6.36-6.66,9-7.68v-19h-8v-3.89h12Zm-.3-30.23a69.76,69.76,0,0,0-9.3-10.14l3.06-2.22a79.17,79.17,0,0,1,9.48,9.9ZM911.9,1911c-1.2,13-4.5,23.64-15.12,30.18a11,11,0,0,0-2.88-2.88c9.9-5.82,12.9-15.54,13.92-27.3H895.58v-3.89h12.48c.18-3.18.24-6.48.3-9.84h4.2c-.06,3.36-.18,6.66-.36,9.84H930s0,1.44-.06,2c-.9,20.45-1.74,27.59-3.84,30a5.48,5.48,0,0,1-4.32,2,69.11,69.11,0,0,1-8.46-.12,9,9,0,0,0-1.38-4c3.6.36,7,.36,8.28.36a2.68,2.68,0,0,0,2.34-.78c1.56-1.62,2.46-8.34,3.3-25.62Z"/><path d="M951.92,1940.64c-5,.84-9.9,1.62-14,2.28l-.42-3.06c1.74-.24,3.84-.54,6.12-.84V1933h-4.86v-2.76h4.86V1926h3v4.2h4.68V1933h-4.68v5.58l5.16-.78Zm5.4-17.64c-.78,17.4-1.56,23.52-3.18,25.5a4.56,4.56,0,0,1-3.6,1.62,52.32,52.32,0,0,1-6.66-.12,7.24,7.24,0,0,0-1-3.3c2.76.24,5.28.24,6.3.24a2,2,0,0,0,1.92-.66c1.26-1.38,2-6.9,2.64-21.66H938.9c.6-3.83,1.44-9.78,1.8-14.45h12.24v-7.92H939v-3.42h17.46v14.75H943.88c-.3,2.65-.6,5.34-1,7.68h14.4Zm34.92,23.28v3.18H957.08v-3.18Zm-.84-44.45H959.12v-3.06H991.4Zm.24,23.15H959.12V1922h32.52Zm-29.58,18.42v-15.6H988.4v15.6Zm.72-24.11v-14.64h24.9v14.64Zm2.76,15h8v-4h-8Zm0,6.48h8v-4.08h-8Zm.72-30h7.26v-3.6h-7.26Zm0,6h7.26v-3.65h-7.26Zm17.88-9.59H976.7v3.6h7.44Zm0,5.94H976.7v3.65h7.44Zm.66,17.27h-8.1v4h8.1Zm0,6.36h-8.1v4.08h8.1Z"/><path d="M1016.36,1940.88a9,9,0,1,1-9.06-9A9,9,0,0,1,1016.36,1940.88Zm-2.82,0a6.21,6.21,0,1,0-6.24,6.24A6.22,6.22,0,0,0,1013.54,1940.88Z"/><path d="M444.14,1970.05c-.54.78-1.08,1.62-1.74,2.4,5.4,5.76,15.18,12.47,25,16a17.52,17.52,0,0,0-2.82,3.47,75.67,75.67,0,0,1-24.42-16.73A64.51,64.51,0,0,1,426,1987H454.4v3.72H425.78v-3.6a82.62,82.62,0,0,1-10,5.46,19,19,0,0,0-2.88-3.42c11.76-5,22.14-12.59,27.42-20.69Zm-28.62,28.37h49.32v3.84H438.38a113.31,113.31,0,0,1-12.6,14.34l28.26-2.22c-2.34-2.64-4.86-5.34-7.26-7.62l3.36-1.74c5.34,4.74,11,11.28,13.68,15.78l-3.54,2.1a37.32,37.32,0,0,0-3.42-5c-32,2.7-35.22,2.94-37.32,3.72-.24-.84-.9-3-1.38-4.14,1.26-.18,2.58-1.38,4.5-3.18A95.51,95.51,0,0,0,433,2002.26H415.52Z"/><path d="M474.08,2019.48c3.06-2.58,5.64-7,7.08-10.44l3.3,1.5c-1.68,3.6-4.08,8-7.14,10.86Zm51.72-36.9v3.25H474.56v-3.25h14.16a23.89,23.89,0,0,0-2.34-5.45l3.36-.84H477.26V1973h21.9c-.72-1.44-1.56-2.94-2.34-4.2l3.78-.9a39.9,39.9,0,0,1,2.94,5.1h19.2v3.3H510.86l3.24.78c-1,1.92-2,3.84-3,5.51Zm-7,23.7H497.66a47.07,47.07,0,0,1,8.82,6.24L504,2015a48.61,48.61,0,0,0-9.3-6.9l2-1.8H481.58V1989h37.2Zm-3.9-14.45H485.36v4.43h29.52Zm0,7.13H485.36v4.44h29.52Zm-8.22,20.16c2.58,0,3-.72,3.24-6.24a12.08,12.08,0,0,0,3.54,1.38c-.48,6.66-1.74,8.22-6.42,8.22H495.44c-5.82,0-7.38-1-7.38-5v-8H492v8c0,1.38.54,1.68,3.72,1.68ZM490,1976.29a26.19,26.19,0,0,1,2.76,6.18l-.48.11H507a59.18,59.18,0,0,0,3.06-6.29Zm27.66,32.21a46.55,46.55,0,0,1,8,10.2l-3.36,1.74a49,49,0,0,0-7.8-10.56Z"/><path d="M583.76,1989a67.67,67.67,0,0,1-11.64,20.16c2.16,5.64,5,9.18,8.76,9.66,1.62.24,2.52-3.66,3.12-10.26a13.32,13.32,0,0,0,3.24,2c-.9,9.6-3.06,13.32-7.38,12.12-4.74-.78-8.16-4.5-10.68-10.32a59.26,59.26,0,0,1-14.46,11,18,18,0,0,0-2.88-3.3,55.25,55.25,0,0,0,15.9-11.82c-2.16-6.78-3.42-15.48-4.2-25.37H542.18v10.31l1.5-1.38c5.4,3.24,11.7,8.16,14.7,11.7l-2.94,2.82c-2.64-3.36-8.28-7.92-13.26-11.28-.06,8.4-1,20.1-6.48,28a19.26,19.26,0,0,0-3.18-2.58c5.16-7.5,5.76-18.06,5.76-25.92v-15.47h25c-.24-3.48-.42-7.08-.6-10.68h4c.12,3.6.24,7.2.48,10.68h19.14V1983H567.44a125.7,125.7,0,0,0,3.3,21.83,60,60,0,0,0,9.12-16.86Zm-2.94-10.91a63.5,63.5,0,0,0-10.38-6.84l2.4-2.4a59.24,59.24,0,0,1,10.44,6.6Z"/><path d="M646.34,1995.48H630.86v21.78c0,2.82-.78,4-2.76,4.62s-5.46.72-11.22.66a17.55,17.55,0,0,0-1.44-4c4.44.18,8.58.12,9.78.06s1.56-.3,1.56-1.44v-21.72H593.72v-3.9h33.06v-8.69h4.08v8.69h15.48Zm-47.16-8.1h-4v-11.75h24.06a49.74,49.74,0,0,0-3.18-6.48l3.78-1a34.79,34.79,0,0,1,3.72,7.5h21.06v11.75h-4.2v-7.91H599.18Zm5.1,11.46c3.9,3.72,8.16,8.94,10,12.48l-3.3,2.28a58.55,58.55,0,0,0-9.84-12.78Z"/><path d="M652.7,2008.26l3.48-3.06a113.53,113.53,0,0,1,13.5,13.38L666,2021.7A97.41,97.41,0,0,0,652.7,2008.26Z"/><path d="M736.34,1995.48H720.86v21.78c0,2.82-.78,4-2.76,4.62s-5.46.72-11.22.66a17.55,17.55,0,0,0-1.44-4c4.44.18,8.58.12,9.78.06s1.56-.3,1.56-1.44v-21.72H683.72v-3.9h33.06v-8.69h4.08v8.69h15.48Zm-47.16-8.1h-4v-11.75h24.06a49.74,49.74,0,0,0-3.18-6.48l3.78-1a34.79,34.79,0,0,1,3.72,7.5h21.06v11.75h-4.2v-7.91H689.18Zm5.1,11.46c3.9,3.72,8.16,8.94,10,12.48l-3.3,2.28a58.55,58.55,0,0,0-9.84-12.78Z"/><path d="M796.82,2016.78v3.9H743.3v-3.9h22.08v-40.07H747.14v-4H791.9v25.5c0,2.51-.6,3.77-2.64,4.49s-5.94.66-11.52.66a13.59,13.59,0,0,0-1.56-4c4.74.18,8.94.18,10.2.06s1.5-.36,1.5-1.32v-21.47H769.64v40.07Z"/><path d="M821.36,2012.88a9,9,0,1,1-9.06-9A9,9,0,0,1,821.36,2012.88Zm-2.82,0a6.21,6.21,0,1,0-6.24,6.24A6.22,6.22,0,0,0,818.54,2012.88Z"/><line class="cls-3" x1="621" y1="351" x2="621" y2="351"/><path d="M462.62,1341q7.74,4.82,15,10.37l-5.17-4a192.79,192.79,0,0,1,34.28,34.4l-4-5.16a226.51,226.51,0,0,1,29,50l-2.57-6.09c9.67,23,16.16,47.34,20.7,71.82q2,11,3.52,22.06l-.91-6.78a608.64,608.64,0,0,1,4.94,82.74c-.08,27.56-1.55,55.09-3.49,82.58-1.08,15.35-2.31,30.69-3.53,46a19.16,19.16,0,0,0,2.2,9.82,19,19,0,0,0,5.27,8.21c4.42,4.42,11.68,7.75,18,7.47,6.59-.3,13.43-2.46,18-7.47l4-5.16a25.52,25.52,0,0,0,3.48-12.87c2.37-29.85,4.79-59.7,6.07-89.63s1.46-60.06-.73-90c-2.33-31.95-7-64-15.59-94.89-7.55-27.18-18.09-54-33.28-77.82a240.89,240.89,0,0,0-27-35,216,216,0,0,0-34.24-29.28c-2.68-1.88-5.41-3.67-8.19-5.4-5.52-3.44-13.44-4.28-19.65-2.57-5.91,1.63-12.32,6.2-15.24,11.72-3.12,5.92-4.69,13.09-2.57,19.65A27.3,27.3,0,0,0,462.62,1341Z"/><line class="cls-4" x1="474.53" y1="1319.29" x2="392.86" y2="1545.24"/><line class="cls-4" x1="860.91" y1="1105" x2="860.91" y2="1720.05"/><path class="cls-4" d="M863.84,1134.08a91.08,91.08,0,0,0,57.52-35.25c12.33-16.75,17.67-35.84,21.42-54.75"/><line class="cls-4" x1="790.43" y1="1679.14" x2="929.76" y2="1679.14"/><path d="M855.29,1164.12q-61.08-13.27-123.06-21.84c-44.43-6.16-89.06-10.89-133.88-13-37.13-1.7-74.4-1.49-111.54.15-39.17,1.73-78.36,5.36-117,12.09-35.25,6.14-70.08,15.41-102.43,31q-5,2.4-9.82,5.06c-5.53,3-10.07,9.23-11.72,15.24s-.92,14.23,2.57,19.65c7.65,11.87,22.36,16,34.89,9.15,6.57-3.6,13.33-6.82,20.22-9.75l-6.09,2.57c27.18-11.44,56.08-18.48,85.06-23.57,8.94-1.57,17.91-2.93,26.91-4.15l-6.78.92c38.68-5.17,77.7-7.47,116.7-8.21a1226.94,1226.94,0,0,1,123.38,3.72c25.56,2.09,51.05,4.92,76.47,8.33l-6.78-.92q65.08,8.79,129.36,22.71c6.69,1.45,13.63,1,19.65-2.57,5.29-3.1,10.33-9.16,11.72-15.24,1.48-6.53,1.16-13.85-2.57-19.65-3.49-5.41-8.75-10.31-15.24-11.72Z"/><path d="M256.07,1223a489.82,489.82,0,0,0,87.29,29.18c31.16,7.33,62.83,12.16,94.58,16,26.17,3.2,52.46,5.88,78.84,6.64,23.45.67,46.92.39,70.38.62,26.44.25,53,1,79.21,4.52l-6.78-.91c19,2.59,38,6.67,55.72,14.11l-6.09-2.57a122.67,122.67,0,0,1,26.58,15.2l-5.16-4c12.41,9.61,21.31,22.45,32.07,33.71a116.79,116.79,0,0,0,25.39,20.25c9.26,5.4,19.58,9.47,29.49,13.49,7.95,3.23,16.1,6,24.13,9,5.86,2.21,14.44.48,19.65-2.57s10.33-9.16,11.72-15.24c1.49-6.52,1.16-13.85-2.57-19.65s-8.72-9.26-15.24-11.71c-8.88-3.34-17.87-6.38-26.62-10l6.09,2.57c-10.47-4.42-20.89-9-30-16l5.16,4c-10.32-8.06-18.27-18.34-26.85-28.12a135.64,135.64,0,0,0-29.81-25.49c-20.78-13.06-45.22-20.38-69.26-24.48-53.09-9.07-106.93-6.42-160.51-7.55-32.93-.69-65.74-4.08-98.36-8.44l6.78.91c-40-5.4-79.94-13-118.36-25.59q-15.57-5.1-30.69-11.42l6.09,2.57c-2.4-1-4.78-2-7.16-3.1-6.47-2.88-12.54-4.53-19.65-2.57-5.92,1.63-12.33,6.2-15.24,11.72-3.13,5.92-4.69,13.08-2.57,19.65,1.91,5.91,5.78,12.6,11.72,15.24Z"/><line class="cls-4" x1="861.94" y1="1191.57" x2="939.91" y2="1214.35"/><line class="cls-4" x1="861.94" y1="1268.53" x2="939.91" y2="1291.31"/><path class="cls-4" d="M941.76,1292.32"/><line class="cls-4" x1="939.91" y1="1291.31" x2="939.91" y2="1214.35"/><rect class="cls-2" x="1115" y="1246" width="65" height="271" rx="12"/><path class="cls-1" d="M1160.05,1285.79a27.61,27.61,0,0,0,11.5,8.1,11.65,11.65,0,0,0-2.15,2.55,30.77,30.77,0,0,1-12.8-10.65h-15.95a34.39,34.39,0,0,1-13,11.3,11.43,11.43,0,0,0-2.15-2.55,30.39,30.39,0,0,0,11.6-8.75H1126v-2.85h10v-16.15h-7.7V1264h7.7v-5h3.3v5h18.55v-5h3.35v5h7.65v2.8h-7.65v16.15h9.8v2.85Zm-10,14.5h17.3v2.85H1129.8v-2.85h16.9v-5.6h-10.45v-2.8h10.45v-4.4h3.35v4.4h10.65v2.8h-10.65Zm-10.8-33.5v3.6h18.55v-3.6Zm0,9.8h18.55v-3.65h-18.55Zm0,6.35h18.55v-3.8h-18.55Z"/><path class="cls-1" d="M1144.25,1327.54s0,1.15,0,1.55c-.6,15.85-1.2,21.2-2.6,23a3.71,3.71,0,0,1-2.8,1.45,32.65,32.65,0,0,1-4.45,0,9.25,9.25,0,0,0-.85-3c1.75.15,3.2.15,3.9.15a1.42,1.42,0,0,0,1.45-.65c1-1.2,1.6-6,2.15-19.35h-6.8c-.55,10-2,18.25-6.45,23.65a9.53,9.53,0,0,0-2.55-2.35c5.45-6.45,5.9-17.85,6.1-31.55h-5.2v-3.1h20.1v3.1h-11.65c0,2.45-.1,4.85-.2,7.15Zm-7.9-10.45a33.47,33.47,0,0,0-4.25-7.15l2.9-1.15a31.92,31.92,0,0,1,4.4,7Zm23.85-7.45a15.26,15.26,0,0,1-.85,2.55c2.65,5.45,7.7,11.35,12.45,14a13,13,0,0,0-2.45,2.75c-4.25-2.7-8.5-8-11.4-13.3a32.61,32.61,0,0,1-11,13.6,12.79,12.79,0,0,0-2.35-2.65c5.85-3.6,10.35-10.2,12.5-17.85Zm-8.3,32.45a74,74,0,0,1,13.6,8.25l-2.25,2.9c-2.85-2.6-8.75-6.3-13.4-8.65Zm9.5-4.85a66.22,66.22,0,0,0-8.6-6.85l2.15-2.2a67.46,67.46,0,0,1,8.75,6.55Z"/><path class="cls-1" d="M1167,1362.19v29.3h-3.5v-2.55h-13.3v15.6h-3.45v-15.6h-13.4v2.75H1130v-29.5Zm-33.65,3.2V1374h13.4v-8.65Zm13.4,20.35v-8.5h-13.4v8.5Zm16.75-20.35h-13.3V1374h13.3Zm0,20.35v-8.5h-13.3v8.5Z"/><path class="cls-1" d="M1169.25,1424.09v9.3h-3.15V1427h-35.4v6.4h-3v-9.3h6.95v-12.95h27.7v12.95Zm-6.45,26.6c0,1.85-.45,2.7-1.85,3.2s-3.9.5-7.7.45a8.57,8.57,0,0,0-1.1-2.75c3,.05,5.65.05,6.4.05s1-.25,1-1v-6.2c-7.3,1.45-14.85,3-20.45,4l-1.1-3c5.4-.8,13.6-2.3,21.55-3.75V1433h-22.2v5.3c0,4.85-.65,11.55-4.35,16.2a13.29,13.29,0,0,0-2.7-2c3.45-4.25,3.85-10,3.85-14.25v-8h28.6Zm-25-26.6h7.45v-6.9H1159v-3.35h-21.2Zm2.45,11.7a75.14,75.14,0,0,1,17.7,3l-.9,2.6c-4-1.5-11.7-2.9-17.7-3.35Zm18.75-16.3h-10.75v4.6H1159Z"/><path class="cls-1" d="M1163,1471.09a51.83,51.83,0,0,1-12,19.6,49.94,49.94,0,0,0,20.5,10.5,16.79,16.79,0,0,0-2.25,3,50.92,50.92,0,0,1-20.75-11.1c-5.65,5-12.55,8.6-21,11.3a15.53,15.53,0,0,0-2-3.05c8.35-2.45,15.1-5.9,20.6-10.6a57.05,57.05,0,0,1-12.2-19.65h-7.75v-3.25h44.75v3.25Zm-25.75,0a52.13,52.13,0,0,0,11.3,17.3,47.46,47.46,0,0,0,10.7-17.3Zm11.25-3.55a38.13,38.13,0,0,0-3.8-7.8l3.4-1a39,39,0,0,1,4,7.65Z"/></svg>