<svg id="Layer_1" data-name="Layer 1" xmlns="http://www.w3.org/2000/svg" viewBox="0 0 1242 2208"><defs><style>.cls-1{fill:#f6eabe;}.cls-2{fill:#999;}.cls-3,.cls-4{fill:none;}.cls-4{stroke:#000;stroke-linecap:round;stroke-miterlimit:10;stroke-width:50px;}</style></defs><rect class="cls-1" width="1242" height="2208"/><path d="M589.33,713.92c0,14.29,2.38,36.52,4,48.43-227.88,62.73-255.67,71.46-274.72,84.16-4-13.5-16.68-34.93-25.41-45.25,11.11-7.94,30.17-24.62,30.17-58V149.39h54V395.53H583.77v51.61H377.33v320ZM872,803.64c38.11,0,43.67-29.38,48.43-144.51,13.5,10.32,34.14,19.85,49.23,23-7.15,127.83-22.23,171.5-95.28,171.5H737.8c-74.63,0-95.28-21.44-95.28-103.22V148.59h53.2V395.53H912.48v51.61H695.72V752c0,42.87,7.94,51.61,46.85,51.61Z"/><rect class="cls-2" x="1113" y="456" width="65" height="126" rx="12"/><path class="cls-1" d="M1132.7,485.82c1.25,1.6,4.9,6.7,5.7,8.05l-2,2.45c-.7-1.5-2.35-4.4-3.75-6.65V516h-3.15V491.57c-1.5,5.05-3.5,9.9-5.55,12.85a14.83,14.83,0,0,0-1.75-3.1c2.9-4,5.8-11.5,7.2-18h-6.2v-3.15h6.3v-9.65h3.15v9.65h5.45v3.15h-5.45Zm19.1.7a19.47,19.47,0,0,0,.45,2.65c-10.15,2.7-11.6,3.15-12.5,3.75a12.13,12.13,0,0,0-1.1-3.2c.7-.2,1.55-.5,1.55-2.2v-16.7h3.25v6.5h8.35v2.9h-8.35v8.3Zm2.35,5.5-2,3.75h12.65V516h-3.4v-1.75h-17v2h-3.3V495.77h7.9c.55-1.5,1.2-3.25,1.55-4.6Zm7.3,6.5h-17v5.05h17Zm0,13v-5.3h-17v5.3Zm2.25-22.4c1.25,0,1.5-.75,1.65-5.25a9.16,9.16,0,0,0,2.85,1.25c-.3,5.45-1.2,6.95-4.15,6.95h-5.85c-3.65,0-4.55-.95-4.55-4.45V470.87h3.25v6.5h10.2v2.9h-10.2v7.35c0,1.3.25,1.5,1.65,1.5Z"/><path class="cls-1" d="M1167.55,545.87v2.5H1123.4v-2.5h20.25v-3.2H1126.8v-2.3h16.85v-3H1128.2v-2.25h15.45v-3.2H1123.5v-2.5h20.15v-3H1128.8V524h14.85v-3.55h3.25V524h14.45v5.4h6.15v2.5h-6.15v5.45H1146.9v3h17.3v2.3h-17.3v3.2Zm-37.75,5h31.75v15.25h-3.25v-1.6H1133v1.7h-3.2Zm3.2,2.4v3.2h25.3v-3.2Zm25.3,8.85v-3.4H1133v3.4Zm-11.4-32.7h11.15v-3H1146.9Zm0,5.7h11.15v-3.2H1146.9Z"/><path d="M284.42,1893.69v.35h14.34v32.64c0,2.7-.6,4-2.58,4.68s-5.64.66-11,.66a15.22,15.22,0,0,0-1.38-4c4.38.18,8.4.12,9.6.06s1.44-.36,1.44-1.44v-28.79H284.3a43,43,0,0,1-.6,6.05c3.84,4.5,8.1,10.08,10,13.56l-2.4,3a87.56,87.56,0,0,0-8.46-12.18,32.38,32.38,0,0,1-8.34,15.06,11.45,11.45,0,0,0-2.82-2.82c7-6.66,8.46-15.54,8.82-22.67H269a58.92,58.92,0,0,1-.6,6.23,62.5,62.5,0,0,1,6.36,8.94l-2.4,3.18a60.91,60.91,0,0,0-4.92-7.68,32.3,32.3,0,0,1-8.28,14.82,12.31,12.31,0,0,0-2.76-2.82c6.9-6.66,8.4-15.54,8.76-22.67h-9.84v34.25h-4v-38h13.86v-8.63H248.78v-3.84h52.5v3.84H284.42Zm-3.9.35v-8.63h-11.4V1894Z"/><path d="M339,1879c-.48.9-1,1.74-1.56,2.58,7.26,9,15.78,14.93,25.44,19.73a12.66,12.66,0,0,0-2.88,3.54c-9.3-5-17.28-10.85-24.9-20.15a71,71,0,0,1-24.66,20,17.42,17.42,0,0,0-2.94-3.47c11.22-5,22-13.92,28-23.88Zm-6,15.66H337V1932H333Z"/><path d="M394,1880.49H379.22v35.15h-4v-38.87H394Z"/><path d="M439.1,1925.42c6.24,0,7-2.58,7.92-13.8a13.71,13.71,0,0,0,4.08,1.86c-1,11.88-2.64,15.9-12.12,15.9H418.34c-8.82,0-11.52-1.92-11.52-9.6V1879H411v22.85c11.94-4.38,24.84-10,32.64-14.75l3,3.72c-9.3,5.1-23.1,10.61-35.64,15.11V1920c0,4.32,1.26,5.4,7.14,5.4Z"/><path d="M456,1928.84h14.82v-35.15h4v38.87H456Z"/><path d="M511.16,1876.17l3.24,1.74c-7.08,7.26-11.28,16.2-11.28,26.76s4.2,19.49,11.28,26.75l-3.24,1.74c-7.32-7.5-11.94-17-11.94-28.49S503.84,1883.67,511.16,1876.17Z"/><path d="M534.92,1878.69a98.85,98.85,0,0,1-6.18,13.56v39.59H524.9v-33.35a61.73,61.73,0,0,1-5.46,7,32.86,32.86,0,0,0-2.28-3.9c5.58-5.87,10.8-14.87,14-24Zm34.2,29.21c-2,1.38-4.44,2.7-6.84,4,2,5.82,5.82,11.16,10.62,13.62a15.86,15.86,0,0,0-2.64,3.06c-4.92-3-8.76-8.76-10.86-15.3-1,.54-2.1,1-3.12,1.5,2.1,6.3,1.26,12.72-1.38,15.24a6.51,6.51,0,0,1-5,1.92c-1,0-2.4-.06-3.72-.12a9.47,9.47,0,0,0-1-3.48,34.56,34.56,0,0,0,4,.24,3.38,3.38,0,0,0,3-1.14c1.44-1.32,2.1-4.86,1.44-8.94a58.72,58.72,0,0,1-19.5,11.4,11.72,11.72,0,0,0-2.34-2.82c7.44-2.22,16.26-7,21.12-11.82a24.37,24.37,0,0,0-1.62-3.66,57.71,57.71,0,0,1-16.74,9.66,16.14,16.14,0,0,0-2.22-2.64c5.82-1.74,13.38-5.58,17.52-9.3a16.53,16.53,0,0,0-2.82-3,39.59,39.59,0,0,1-12.3,6.17,14.66,14.66,0,0,0-2.28-2.58c6.54-2.1,10.86-4.62,13.68-7.26h-9.54v-9.35c-1.08,1-2.22,1.92-3.42,2.88a9.81,9.81,0,0,0-2.64-2.53,45.41,45.41,0,0,0,13.92-16.25l3.84.72a35.7,35.7,0,0,1-2,3.54h11.1l.78-.18,2.34,1.68a52.13,52.13,0,0,1-4.8,6.84h13v12.65H550.7a15.52,15.52,0,0,1-1.38,1.63,22.17,22.17,0,0,1,6,7.85,120.47,120.47,0,0,0,11.1-6.66Zm-25-23.09a54.58,54.58,0,0,1-4.2,5.16h11.58a33.35,33.35,0,0,0,3.72-5.16Zm-4,14.69h8.64a15.14,15.14,0,0,0,2.46-6.42h-11.1Zm24.72-6.42H554.6a18.56,18.56,0,0,1-1.8,6.42h12.06Z"/><path d="M591.26,1878.27a117.62,117.62,0,0,1-4.08,12v41.57h-3.42v-34.08a69.4,69.4,0,0,1-4.74,8,22,22,0,0,0-2.16-3.73c4.62-6.11,8.46-15.35,10.86-24.59Zm13.08,30.23c0,8-1.56,17.52-11.28,23.52a10.07,10.07,0,0,0-2.1-2.4c9.12-5.64,10.2-13.86,10.2-21.18v-19.86h3.18Zm-8.22,9.6h-3.3v-36.89h20V1918h-3.42v-33.77H596.12Zm10.2,1.5a87.57,87.57,0,0,1,7.86,9.78l-2.64,2a63.57,63.57,0,0,0-7.68-10.14Zm14.82-1H617.9v-35.51h3.24Zm8.94-40.79v49.37c0,2.28-.54,3.36-1.92,3.9s-3.72.72-7.8.72a16.5,16.5,0,0,0-1.08-3.48c3,.12,5.52.06,6.24.06s1.2-.3,1.2-1.2v-49.37Z"/><path d="M658.46,1924.94h9.84v3.84H641.36v-48H667.7v3.78h-9.18v11.16h8.1v17.21h-8.16Zm-13.2-40.43v11.16h9.54v-11.16Zm17.4,14.94h-17.4v9.72h17.4Zm-17.4,25.49h9.48v-12.06h-9.48Zm33.9-27.65a121.93,121.93,0,0,1,13,12l-2.88,2.7A111.67,111.67,0,0,0,678,1900.88v30.84h-4v-53.63h4v20Z"/><path d="M714,1878c-1,2.94-2.1,6.3-3.18,8.88H721v38.75h-16.8v4.8h-3.66v-43.55h6.66a64.68,64.68,0,0,0,2.58-9.72Zm3.3,12.47H704.18v13.08h13.14Zm0,31.56v-14.88H704.18v14.88Zm33.06-33.17c-1,27.53-1.8,36.71-4.2,39.59a5.6,5.6,0,0,1-4.56,2.28,74.94,74.94,0,0,1-8.82-.12,9.42,9.42,0,0,0-1.32-3.9c3.9.36,7.5.36,8.82.36s1.92-.12,2.52-.9c2-2.1,2.94-11.34,3.72-35.7H730.82a55.33,55.33,0,0,1-5.64,10.68,36.22,36.22,0,0,0-3.36-2.22c4.08-5.34,7.32-13.61,9.18-21.89l3.84.84c-.78,3-1.62,6-2.64,8.88h18.18Zm-12.78,27a106.51,106.51,0,0,0-9.3-13.92l3.06-1.79a102.47,102.47,0,0,1,9.6,13.61Z"/><path d="M787.28,1877.55c-.06,2.1-.12,5.1-.42,8.64.9,7,4.56,32.51,25.74,42a12.63,12.63,0,0,0-2.88,3.36c-15.42-7.26-21.72-22.74-24.6-34-2.64,12.23-8.94,26.33-24.06,34.19a13.77,13.77,0,0,0-3.12-3.06c25-12.48,24.78-42.11,25-51.11Z"/><path d="M818.84,1933.16l-3.24-1.74c7.08-7.26,11.28-16.2,11.28-26.75s-4.2-19.5-11.28-26.76l3.24-1.74c7.32,7.5,11.94,17,11.94,28.5S826.16,1925.66,818.84,1933.16Z"/><path d="M901.7,1910.78H887.9V1932h-4.14v-21.24H866.3c-.78,8.1-4,16-15,21.6a15.62,15.62,0,0,0-2.82-3.12c9.84-5,12.78-11.64,13.62-18.48H848.36v-3.84h14v-13.37H850.64v-3.84h31.2a86.41,86.41,0,0,0,5.64-12.54l4.5,1.38c-1.8,3.72-3.9,7.86-5.88,11.16h13.68v3.84H887.9v13.37h13.8Zm-37.08-21.29a45.07,45.07,0,0,0-6.3-10.62l3.6-1.56a45,45,0,0,1,6.54,10.5Zm19.14,17.45v-13.37H866.54v13.37Z"/><path d="M909,1880.67H939.2v3.84H923c-.78,3.3-1.68,6.48-2.7,9.48h13.86l.72-.18,2.4.77c-3,20.64-12.36,32.1-24.72,37.74a16.66,16.66,0,0,0-2.46-3.36,34,34,0,0,0,15.36-12.48,71.3,71.3,0,0,0-9.42-7.31l2.34-3a79.89,79.89,0,0,1,9.24,6.78,51.63,51.63,0,0,0,5.4-15.29h-14.1a49.46,49.46,0,0,1-7.2,13,28.55,28.55,0,0,0-3.12-2.58c4.8-5.69,8.28-14.33,10.38-23.63H909Zm38.7,36.95h-3.9v-33.17h3.9ZM960,1877.55v49.07c0,2.64-.72,3.78-2.34,4.44s-4.38.72-8.88.72a19.7,19.7,0,0,0-1.38-3.84c3.3.06,6.42.06,7.32,0s1.32-.3,1.32-1.32v-49.07Z"/><path d="M969,1930.7c4.68-2,7.26-4.92,7.56-9.18a7.35,7.35,0,0,1-1.14.12c-2.34,0-4.26-1.38-4.26-4.08a4,4,0,0,1,4.32-4.14c3.18,0,4.86,2.64,4.86,6.66,0,6.48-4,11.28-10.08,13.44Z"/><path d="M444.14,1951.05c-.54.78-1.08,1.62-1.74,2.4,5.4,5.76,15.18,12.47,25,16a17.52,17.52,0,0,0-2.82,3.47,75.67,75.67,0,0,1-24.42-16.73A64.51,64.51,0,0,1,426,1968H454.4v3.72H425.78v-3.6a82.62,82.62,0,0,1-10,5.46,19,19,0,0,0-2.88-3.42c11.76-5,22.14-12.59,27.42-20.69Zm-28.62,28.37h49.32v3.84H438.38a113.31,113.31,0,0,1-12.6,14.34l28.26-2.22c-2.34-2.64-4.86-5.34-7.26-7.62l3.36-1.74c5.34,4.74,11,11.28,13.68,15.78l-3.54,2.1a37.32,37.32,0,0,0-3.42-5c-32,2.7-35.22,2.94-37.32,3.72-.24-.84-.9-3-1.38-4.14,1.26-.18,2.58-1.38,4.5-3.18A95.51,95.51,0,0,0,433,1983.26H415.52Z"/><path d="M474.08,2000.48c3.06-2.58,5.64-7,7.08-10.44l3.3,1.5c-1.68,3.6-4.08,8-7.14,10.86Zm51.72-36.9v3.25H474.56v-3.25h14.16a23.89,23.89,0,0,0-2.34-5.45l3.36-.84H477.26V1954h21.9c-.72-1.44-1.56-2.94-2.34-4.2l3.78-.9a39.9,39.9,0,0,1,2.94,5.1h19.2v3.3H510.86l3.24.78c-1,1.92-2,3.84-3,5.51Zm-7,23.7H497.66a47.07,47.07,0,0,1,8.82,6.24L504,1996a48.61,48.61,0,0,0-9.3-6.9l2-1.8H481.58V1970h37.2Zm-3.9-14.45H485.36v4.43h29.52Zm0,7.13H485.36v4.44h29.52Zm-8.22,20.16c2.58,0,3-.72,3.24-6.24a12.08,12.08,0,0,0,3.54,1.38c-.48,6.66-1.74,8.22-6.42,8.22H495.44c-5.82,0-7.38-1-7.38-5v-8H492v8c0,1.38.54,1.68,3.72,1.68ZM490,1957.29a26.19,26.19,0,0,1,2.76,6.18l-.48.11H507a59.18,59.18,0,0,0,3.06-6.29Zm27.66,32.21a46.55,46.55,0,0,1,8,10.2l-3.36,1.74a49,49,0,0,0-7.8-10.56Z"/><path d="M586.7,1982.78H572.9V2004h-4.14v-21.24H551.3c-.78,8.1-4,16-15,21.6a15.62,15.62,0,0,0-2.82-3.12c9.84-5,12.78-11.64,13.62-18.48H533.36v-3.84h14v-13.37H535.64v-3.84h31.2a86.41,86.41,0,0,0,5.64-12.54l4.5,1.38c-1.8,3.72-3.9,7.86-5.88,11.16h13.68v3.84H572.9v13.37h13.8Zm-37.08-21.29a45.07,45.07,0,0,0-6.3-10.62l3.6-1.56a45,45,0,0,1,6.54,10.5Zm19.14,17.45v-13.37H551.54v13.37Z"/><path d="M594,1952.67H624.2v3.84H608c-.78,3.3-1.68,6.48-2.7,9.48h13.86l.72-.18,2.4.77c-3,20.64-12.36,32.1-24.72,37.74a16.66,16.66,0,0,0-2.46-3.36,34,34,0,0,0,15.36-12.48,71.3,71.3,0,0,0-9.42-7.31l2.34-3a79.89,79.89,0,0,1,9.24,6.78,51.63,51.63,0,0,0,5.4-15.29h-14.1a49.46,49.46,0,0,1-7.2,13,28.55,28.55,0,0,0-3.12-2.58c4.8-5.69,8.28-14.33,10.38-23.63H594Zm38.7,36.95h-3.9v-33.17h3.9ZM645,1949.55v49.07c0,2.64-.72,3.78-2.34,4.44s-4.38.72-8.88.72a19.7,19.7,0,0,0-1.38-3.84c3.3.06,6.42.06,7.32,0s1.32-.3,1.32-1.32v-49.07Z"/><path d="M652.7,1989.26l3.48-3.06a113.53,113.53,0,0,1,13.5,13.38L666,2002.7A97.41,97.41,0,0,0,652.7,1989.26Z"/><path d="M712.1,1974.56v6.54h22.56v3.6H712.1v14.46c0,2.4-.54,3.42-2.22,4.08s-4.5.66-8.88.6a18.21,18.21,0,0,0-1.38-3.66c3.36.12,6.42.06,7.26,0s1.2-.24,1.2-1V1984.7H685.7v-3.6h22.38v-6.54H684.44V1971h15a41.21,41.21,0,0,0-4.2-9l3.6-1a39.16,39.16,0,0,1,4.5,9.17l-2.52.78h14.76a69.43,69.43,0,0,0,5-9.89l4.08.9c-1.5,3-3.24,6.29-4.92,9h15.84v3.6Zm-11.82,13.74a46.79,46.79,0,0,1-11.34,13.38,23.6,23.6,0,0,0-3.3-2.46,35.52,35.52,0,0,0,10.8-12.12Zm32.4-28H688.16v-3.42h20.4a55.09,55.09,0,0,0-3.24-6.54l3.9-.9a48.9,48.9,0,0,1,3.84,7.44h19.62Zm-10.86,26.63c4.14,3.72,9.24,8.88,11.52,12.3l-3.42,2.34a75.25,75.25,0,0,0-11.34-12.6Z"/><path d="M766,1982.36c-3.72,0-5.82-.36-6.78-1.61a137.64,137.64,0,0,1-14.34,5,20.41,20.41,0,0,0-2.4-3.36,116.35,116.35,0,0,0,15.84-5.16v-11.87H762v10.19c7.86-3.71,14.76-8.46,19.44-14.21l3.42,1.67c-5.4,6.54-13,11.71-21.48,15.84a16.31,16.31,0,0,0,2.88.18h12.54c2.88,0,3.42-.89,3.66-6.84a10.88,10.88,0,0,0,3.42,1.38c-.54,7.08-1.74,8.76-6.84,8.76Zm-11.58-14.52c-1.92,3.78-4.62,8.41-8.16,11.34l-3.24-2c3.6-2.71,6.48-7.14,8.16-10.75Zm-5.7-1.73h-3.9v-11.52h23.52a40.08,40.08,0,0,0-1.56-5.22l3.78-.6a36.35,36.35,0,0,1,1.86,5.82h22.86v11.52h-4v-7.92H748.76Zm37.8,21.11h4V2004h-4v-2.76H750v-13.56h3.9v9.78h14v-13h4v13h14.64Zm-14.88-18.84a44.93,44.93,0,0,0-10.26-6.65l2-2.4a46.75,46.75,0,0,1,10.38,6.48Zm14.94-1.67c3.9,3.24,8.34,7.85,10.38,11l-3.06,2.21c-1.92-3.17-6.3-7.92-10.14-11.27Z"/><path d="M821.36,1993.88a9,9,0,1,1-9.06-9A9,9,0,0,1,821.36,1993.88Zm-2.82,0a6.21,6.21,0,1,0-6.24,6.24A6.22,6.22,0,0,0,818.54,1993.88Z"/><line class="cls-3" x1="621" y1="351" x2="621" y2="351"/><rect class="cls-2" x="1114" y="1237" width="65" height="271" rx="12"/><path class="cls-1" d="M1159.05,1276.79a27.61,27.61,0,0,0,11.5,8.1,11.65,11.65,0,0,0-2.15,2.55,30.77,30.77,0,0,1-12.8-10.65h-15.95a34.39,34.39,0,0,1-13,11.3,11.43,11.43,0,0,0-2.15-2.55,30.39,30.39,0,0,0,11.6-8.75H1125v-2.85h10v-16.15h-7.7V1255h7.7v-5h3.3v5h18.55v-5h3.35v5h7.65v2.8h-7.65v16.15h9.8v2.85Zm-10,14.5h17.3v2.85H1128.8v-2.85h16.9v-5.6h-10.45v-2.8h10.45v-4.4h3.35v4.4h10.65v2.8h-10.65Zm-10.8-33.5v3.6h18.55v-3.6Zm0,9.8h18.55v-3.65h-18.55Zm0,6.35h18.55v-3.8h-18.55Z"/><path class="cls-1" d="M1143.25,1318.54s0,1.15,0,1.55c-.6,15.85-1.2,21.2-2.6,23a3.71,3.71,0,0,1-2.8,1.45,32.65,32.65,0,0,1-4.45,0,9.25,9.25,0,0,0-.85-3c1.75.15,3.2.15,3.9.15a1.42,1.42,0,0,0,1.45-.65c1-1.2,1.6-6,2.15-19.35h-6.8c-.55,10-2,18.25-6.45,23.65a9.53,9.53,0,0,0-2.55-2.35c5.45-6.45,5.9-17.85,6.1-31.55h-5.2v-3.1h20.1v3.1h-11.65c0,2.45-.1,4.85-.2,7.15Zm-7.9-10.45a33.47,33.47,0,0,0-4.25-7.15l2.9-1.15a31.92,31.92,0,0,1,4.4,7Zm23.85-7.45a15.26,15.26,0,0,1-.85,2.55c2.65,5.45,7.7,11.35,12.45,14a13,13,0,0,0-2.45,2.75c-4.25-2.7-8.5-8-11.4-13.3a32.61,32.61,0,0,1-11,13.6,12.79,12.79,0,0,0-2.35-2.65c5.85-3.6,10.35-10.2,12.5-17.85Zm-8.3,32.45a74,74,0,0,1,13.6,8.25l-2.25,2.9c-2.85-2.6-8.75-6.3-13.4-8.65Zm9.5-4.85a66.22,66.22,0,0,0-8.6-6.85l2.15-2.2a67.46,67.46,0,0,1,8.75,6.55Z"/><path class="cls-1" d="M1166,1353.19v29.3h-3.5v-2.55h-13.3v15.6h-3.45v-15.6h-13.4v2.75H1129v-29.5Zm-33.65,3.2V1365h13.4v-8.65Zm13.4,20.35v-8.5h-13.4v8.5Zm16.75-20.35h-13.3V1365h13.3Zm0,20.35v-8.5h-13.3v8.5Z"/><path class="cls-1" d="M1168.25,1415.09v9.3h-3.15V1418h-35.4v6.4h-3v-9.3h6.95v-12.95h27.7v12.95Zm-6.45,26.6c0,1.85-.45,2.7-1.85,3.2s-3.9.5-7.7.45a8.57,8.57,0,0,0-1.1-2.75c3,.05,5.65.05,6.4.05s1-.25,1-1v-6.2c-7.3,1.45-14.85,3-20.45,4l-1.1-3c5.4-.8,13.6-2.3,21.55-3.75V1424h-22.2v5.3c0,4.85-.65,11.55-4.35,16.2a13.29,13.29,0,0,0-2.7-2c3.45-4.25,3.85-10,3.85-14.25v-8h28.6Zm-25-26.6h7.45v-6.9H1158v-3.35h-21.2Zm2.45,11.7a75.14,75.14,0,0,1,17.7,3l-.9,2.6c-4-1.5-11.7-2.9-17.7-3.35Zm18.75-16.3h-10.75v4.6H1158Z"/><path class="cls-1" d="M1162,1462.09a51.83,51.83,0,0,1-12,19.6,49.94,49.94,0,0,0,20.5,10.5,16.79,16.79,0,0,0-2.25,3,50.92,50.92,0,0,1-20.75-11.1c-5.65,5-12.55,8.6-21,11.3a15.53,15.53,0,0,0-2-3.05c8.35-2.45,15.1-5.9,20.6-10.6a57.05,57.05,0,0,1-12.2-19.65h-7.75v-3.25h44.75v3.25Zm-25.75,0a52.13,52.13,0,0,0,11.3,17.3,47.46,47.46,0,0,0,10.7-17.3Zm11.25-3.55a38.13,38.13,0,0,0-3.8-7.8l3.4-1a39,39,0,0,1,4,7.65Z"/><path d="M442.62,1049.72c-17.87,27.38-35.22,55.11-51.56,83.44-16.19,28.08-31.61,56.58-44.14,86.5-11.66,27.84-19.85,57.23-21.38,87.5a160.16,160.16,0,0,0,4.5,46.73c3.89,15.56,11.13,29.79,19.08,43.6,15.77,27.4,32.6,54.33,45,83.49l-2.57-6.09c7.51,17.84,13.17,36.38,15.8,55.59l-.91-6.78a189.74,189.74,0,0,1-.21,50l.91-6.78c-3.2,22.91-10.13,45-19.08,66.33l2.57-6.09a503,503,0,0,1-24.43,49,26.61,26.61,0,0,0-2.57,19.65c1.63,5.92,6.2,12.33,11.72,15.24,12,6.36,27.92,3.28,34.89-9.15,25.42-45.37,46.61-94.49,48.66-147.18a211.43,211.43,0,0,0-10.38-72.68c-7.33-22.66-17.79-44.31-29.28-65.13-6-10.83-12.25-21.51-18.5-32.2-6.44-11-13.43-22-18.47-33.73l2.57,6.09a121.39,121.39,0,0,1-8.17-30.12l.91,6.78a156.57,156.57,0,0,1,.36-41.37l-.92,6.78c3.19-23,10.33-45.16,19.29-66.47l-2.57,6.09c9-21.22,19.87-41.58,31-61.71,12.3-22.15,25.28-43.92,38.69-65.4q11.4-18.26,23.18-36.27c7.31-11.19,2.62-28.67-9.15-34.89-12.72-6.72-27.09-2.8-34.88,9.15Z"/><line class="cls-4" x1="395.71" y1="1190.67" x2="470.71" y2="1340.05"/><line class="cls-4" x1="558.71" y1="1234.61" x2="470.71" y2="1340.05"/><path d="M758.62,1049.72c-17.87,27.38-35.22,55.11-51.56,83.44-16.19,28.08-31.61,56.58-44.14,86.5-11.66,27.84-19.85,57.23-21.38,87.5a160.16,160.16,0,0,0,4.5,46.73c3.89,15.56,11.13,29.79,19.08,43.6,15.77,27.4,32.6,54.33,45,83.49l-2.57-6.09c7.51,17.84,13.17,36.38,15.8,55.59l-.91-6.78a189.74,189.74,0,0,1-.21,50l.91-6.78c-3.2,22.91-10.13,45-19.08,66.33l2.57-6.09a503,503,0,0,1-24.43,49,26.61,26.61,0,0,0-2.57,19.65c1.63,5.92,6.2,12.33,11.72,15.24,12,6.36,27.92,3.28,34.89-9.15,25.42-45.37,46.61-94.49,48.66-147.18a211.43,211.43,0,0,0-10.38-72.68c-7.33-22.66-17.79-44.31-29.28-65.13-6-10.83-12.25-21.51-18.5-32.2-6.44-11-13.43-22-18.47-33.73l2.57,6.09a121.39,121.39,0,0,1-8.17-30.12l.91,6.78a156.57,156.57,0,0,1,.36-41.37l-.92,6.78c3.19-23,10.33-45.16,19.29-66.47l-2.57,6.09c9-21.22,19.87-41.58,31-61.71,12.3-22.15,25.28-43.92,38.69-65.4q11.4-18.26,23.18-36.27c7.31-11.19,2.62-28.67-9.15-34.89-12.72-6.72-27.09-2.8-34.88,9.15Z"/><line class="cls-4" x1="711.71" y1="1190.67" x2="786.71" y2="1340.05"/><line class="cls-4" x1="874.71" y1="1234.61" x2="786.71" y2="1340.05"/></svg>