<svg id="Layer_1" data-name="Layer 1" xmlns="http://www.w3.org/2000/svg" viewBox="0 0 1242 2208"><defs><style>.cls-1{fill:#f6eabe;}.cls-2{fill:#999;}.cls-3{fill:none;stroke:#000;stroke-linecap:round;stroke-miterlimit:10;stroke-width:50px;}</style></defs><rect class="cls-1" width="1242" height="2208"/><path d="M983.12,566.44H664.73V845.13H609.94V566.44H276.47V514.83H609.94V321.09H411.45c-25.41,50.82-54,96.87-83.37,132.6-10.32-8.73-35.73-23-48.44-29.38C341.58,357.62,392.39,252,422.56,144.83L475,155.94c-10.33,38.91-24.62,76.23-39.7,112.75H609.94V122.59h54.79v146.1H939.45v52.4H664.73V514.83H983.12Z"/><path d="M457.92,1863.69a98.85,98.85,0,0,1-6.18,13.56v39.59H447.9v-33.35a61.73,61.73,0,0,1-5.46,7,32.86,32.86,0,0,0-2.28-3.9c5.58-5.87,10.8-14.87,14-24Zm34.2,29.21c-2,1.38-4.44,2.7-6.84,4,2,5.82,5.82,11.16,10.62,13.62a15.86,15.86,0,0,0-2.64,3.06c-4.92-3-8.76-8.76-10.86-15.3-1,.54-2.1,1-3.12,1.5,2.1,6.3,1.26,12.72-1.38,15.24a6.51,6.51,0,0,1-5,1.92c-1,0-2.4-.06-3.72-.12a9.47,9.47,0,0,0-1-3.48,34.56,34.56,0,0,0,4,.24,3.38,3.38,0,0,0,3-1.14c1.44-1.32,2.1-4.86,1.44-8.94a58.72,58.72,0,0,1-19.5,11.4,11.72,11.72,0,0,0-2.34-2.82c7.44-2.22,16.26-7,21.12-11.82a24.37,24.37,0,0,0-1.62-3.66,57.71,57.71,0,0,1-16.74,9.66,16.14,16.14,0,0,0-2.22-2.64c5.82-1.74,13.38-5.58,17.52-9.3a16.53,16.53,0,0,0-2.82-3,39.59,39.59,0,0,1-12.3,6.17,14.66,14.66,0,0,0-2.28-2.58c6.54-2.1,10.86-4.62,13.68-7.25h-9.54v-9.36c-1.08,1-2.22,1.92-3.42,2.88a9.62,9.62,0,0,0-2.64-2.52,45.51,45.51,0,0,0,13.92-16.26l3.84.72a35.7,35.7,0,0,1-2,3.54h11.1l.78-.18,2.34,1.68a52.13,52.13,0,0,1-4.8,6.84h13v12.66H473.7a16.53,16.53,0,0,1-1.38,1.62,22.17,22.17,0,0,1,6,7.85,118.29,118.29,0,0,0,11.1-6.66Zm-25-23.09a54.58,54.58,0,0,1-4.2,5.16h11.58a33.35,33.35,0,0,0,3.72-5.16Zm-4,14.69h8.64a15.14,15.14,0,0,0,2.46-6.42h-11.1Zm24.72-6.42H477.6a18.56,18.56,0,0,1-1.8,6.42h12.06Z"/><path d="M554.76,1910.42v3.9h-53.4v-3.9h8.28V1882h4.08v28.43H527.4v-39.71H503.64v-3.84h49.14v3.84H531.54v16.5h19v3.89h-19v19.32Z"/><path d="M579.72,1899c-1.2-1.86-4-5.39-6.12-8.16V1917h-3.78v-23.88a50,50,0,0,1-7.26,6.72,13.15,13.15,0,0,0-1.92-3.78c6.24-4.26,12.72-11.94,16.32-19.67H562.08v-3.66h16.8l.72-.18,2.16,1.5a56.56,56.56,0,0,1-7.08,13.13c2.22,2.4,6.48,7.38,7.62,8.7Zm-6.48-26.93a38,38,0,0,0-5.58-7.8l3-1.8a31.39,31.39,0,0,1,5.82,7.5ZM609.48,1913c2.16,0,2.46-1.56,2.76-10.26a10.19,10.19,0,0,0,3.36,1.62c-.54,9.36-1.2,11.7-6.18,11.7h-5.7c-3.9,0-5.46-1-5.46-4.74v-12.6c-2.22,6.78-6.84,13.38-16.26,18.36a11,11,0,0,0-2.52-3c15-7.8,16.86-19.14,16.86-28.44v-12.06h3.84v12.18a43.59,43.59,0,0,1-1.08,10.14H602v15c0,1.68.48,2.1,2.22,2.1Zm-20.4-16h-3.84v-31.73h26.82V1897h-4v-28.19h-19Z"/><path d="M637,1863c-1,2.94-2.1,6.3-3.18,8.88H644v38.75h-16.8v4.8h-3.66v-43.55h6.66a64.68,64.68,0,0,0,2.58-9.72Zm3.3,12.47H627.18v13.08h13.14Zm0,31.56v-14.88H627.18v14.88Zm33.06-33.17c-1,27.53-1.8,36.71-4.2,39.59a5.6,5.6,0,0,1-4.56,2.28,74.94,74.94,0,0,1-8.82-.12,9.42,9.42,0,0,0-1.32-3.9c3.9.36,7.5.36,8.82.36s1.92-.12,2.52-.9c2-2.1,2.94-11.34,3.72-35.7H653.82a55.33,55.33,0,0,1-5.64,10.68,36.22,36.22,0,0,0-3.36-2.22c4.08-5.33,7.32-13.61,9.18-21.89l3.84.84c-.78,3-1.62,6-2.64,8.88h18.18Zm-12.78,27a106.51,106.51,0,0,0-9.3-13.92l3.06-1.79a102.47,102.47,0,0,1,9.6,13.61Z"/><path d="M734.76,1895.84H710.7v21.06h-4.14v-21.06h-25.2v-3.9h25.2v-14.63h-15a54.27,54.27,0,0,1-6.3,10,24.8,24.8,0,0,0-3.66-2.23c4.68-5,8.52-13,10.8-21.11l4,.84a68.18,68.18,0,0,1-3,8.52h13.2v-11h4.14v11h20.76v4H710.7v14.63h24.06Z"/><path d="M794.52,1889.79v3.77h-23c-3.18,11-10.5,19-27.42,23.22a13.59,13.59,0,0,0-2.34-3.36c15.48-3.72,22.44-10.44,25.56-19.86H741.66v-3.77H768.3c1.62-7.45,1.56-16.38,1.62-26.76H774c-.06,10.14-.06,19.08-1.62,26.76ZM758,1886.42c-2.82-2.39-8.64-5.63-13.44-7.55l2.46-2.76c4.68,1.74,10.56,4.8,13.56,7.26Zm5.46-11c-2.88-2.4-8.76-5.46-13.56-7.32l2.22-2.88c4.74,1.74,10.68,4.62,13.62,7Zm8.82,23.93c8.4,4,16.92,9.36,22,13.8l-2.7,3c-4.86-4.56-13.14-9.9-21.36-14Z"/><path d="M802,1915.7c4.68-2,7.26-4.92,7.56-9.18a7.35,7.35,0,0,1-1.14.12c-2.34,0-4.26-1.38-4.26-4.08a4,4,0,0,1,4.32-4.14c3.18,0,4.86,2.64,4.86,6.66,0,6.48-4,11.28-10.08,13.44Z"/><path d="M431.76,1946c-1.14,2.46-2.46,5-3.84,7.31h29.16v30.54c0,2.52-.6,3.72-2.46,4.38s-5.16.66-10.38.66a16.63,16.63,0,0,0-1.32-3.9c4.14.18,7.8.12,8.82.12s1.44-.42,1.44-1.32v-6.66H427.5V1989h-3.9V1959.5a50.45,50.45,0,0,1-10.32,10,18.28,18.28,0,0,0-2.58-3.06c7.26-5,12.84-12.41,16.74-20.45H412.08v-3.78h17a56.88,56.88,0,0,0,2.64-7.8l4,.9c-.72,2.34-1.5,4.62-2.4,6.9h30.78V1946Zm21.42,10.92H427.5v6.53h25.68Zm0,16.73v-6.72H427.5v6.72Z"/><path d="M507.42,1950.69v.35h14.34v32.64c0,2.7-.6,4-2.58,4.68s-5.64.66-11,.66a15.22,15.22,0,0,0-1.38-4c4.38.18,8.4.12,9.6.06s1.44-.36,1.44-1.44v-28.79H507.3a43,43,0,0,1-.6,6.05c3.84,4.5,8.1,10.08,10,13.56l-2.4,3a87.56,87.56,0,0,0-8.46-12.18,32.38,32.38,0,0,1-8.34,15.06,11.45,11.45,0,0,0-2.82-2.82c7-6.66,8.46-15.54,8.82-22.67H492a58.92,58.92,0,0,1-.6,6.23,62.5,62.5,0,0,1,6.36,8.94l-2.4,3.18a60.91,60.91,0,0,0-4.92-7.68,32.3,32.3,0,0,1-8.28,14.82,12.31,12.31,0,0,0-2.76-2.82c6.9-6.66,8.4-15.54,8.76-22.67h-9.84v34.25h-4v-38h13.86v-8.63H471.78v-3.84h52.5v3.84H507.42Zm-3.9.35v-8.63h-11.4V1951Z"/><path d="M552.42,1972.94a68.66,68.66,0,0,1-18.18,16.26,34.82,34.82,0,0,0-3.12-2.82c6.48-3.72,13.62-9.72,17.16-14.94Zm25.92-34.07v26.76H537.78v-26.76Zm-36.54,22.92h32.34v-19.14H541.8Zm25.32,9.47c6,4.56,13.56,11,17.28,15.36l-3.6,2.46c-3.48-4.38-10.92-11-17-15.78Z"/><path d="M643.68,1939.65v3.54h-17v15.11h-3.9v-15.11h-9.6v15.11h-3.9v-15.11h-16.8v-3.54H617a50.64,50.64,0,0,0-2.82-5l3.72-1a41.31,41.31,0,0,1,3.54,6Zm-38,6.78a38.52,38.52,0,0,1-8.7,11.87,31.59,31.59,0,0,0-3.12-2.15,30.58,30.58,0,0,0,8.16-10.68ZM641,1975.7a11.85,11.85,0,0,1-.3,1.8c-1.14,5.94-2.28,8.82-3.9,10.14-1.26,1-2.46,1.2-4.62,1.26-1.92.06-6,.06-10.32-.24a8.11,8.11,0,0,0-1.26-3.6c4.26.42,8.88.48,10.44.48a4.83,4.83,0,0,0,2.76-.48c1-.72,1.74-2.58,2.58-6.24h-40a96.82,96.82,0,0,0,3.18-11h1.92v-.06h31.26v-4.8H599.4v-3.12h37.14v11H602.76c-.42,1.68-.84,3.42-1.32,4.92Zm-8.4-30a65.05,65.05,0,0,1,10.74,10.14l-3.12,2.09a67.82,67.82,0,0,0-10.62-10.38Z"/><path d="M703.68,1939.65v3.54h-17v15.11h-3.9v-15.11h-9.6v15.11h-3.9v-15.11h-16.8v-3.54H677a50.64,50.64,0,0,0-2.82-5l3.72-1a41.31,41.31,0,0,1,3.54,6Zm-38,6.78a38.52,38.52,0,0,1-8.7,11.87,31.59,31.59,0,0,0-3.12-2.15,30.58,30.58,0,0,0,8.16-10.68ZM701,1975.7a11.85,11.85,0,0,1-.3,1.8c-1.14,5.94-2.28,8.82-3.9,10.14-1.26,1-2.46,1.2-4.62,1.26-1.92.06-6,.06-10.32-.24a8.11,8.11,0,0,0-1.26-3.6c4.26.42,8.88.48,10.44.48a4.83,4.83,0,0,0,2.76-.48c1-.72,1.74-2.58,2.58-6.24h-40a96.82,96.82,0,0,0,3.18-11h1.92v-.06h31.26v-4.8H659.4v-3.12h37.14v11H662.76c-.42,1.68-.84,3.42-1.32,4.92Zm-8.4-30a65.05,65.05,0,0,1,10.74,10.14l-3.12,2.09a67.82,67.82,0,0,0-10.62-10.38Z"/><path d="M727,1935c-1,2.94-2.1,6.3-3.18,8.88H734v38.75h-16.8v4.8h-3.66v-43.55h6.66a64.68,64.68,0,0,0,2.58-9.72Zm3.3,12.47H717.18v13.08h13.14Zm0,31.56v-14.88H717.18v14.88Zm33.06-33.17c-1,27.53-1.8,36.71-4.2,39.59a5.6,5.6,0,0,1-4.56,2.28,74.94,74.94,0,0,1-8.82-.12,9.42,9.42,0,0,0-1.32-3.9c3.9.36,7.5.36,8.82.36s1.92-.12,2.52-.9c2-2.1,2.94-11.34,3.72-35.7H743.82a55.33,55.33,0,0,1-5.64,10.68,36.22,36.22,0,0,0-3.36-2.22c4.08-5.33,7.32-13.61,9.18-21.89l3.84.84c-.78,3-1.62,6-2.64,8.88h18.18Zm-12.78,27a106.51,106.51,0,0,0-9.3-13.92l3.06-1.79a102.47,102.47,0,0,1,9.6,13.61Z"/><path d="M820.2,1983.62c0,2.52-.6,3.72-2.4,4.44s-5.16.72-10.14.72a14.33,14.33,0,0,0-1.44-4c3.9.12,7.56.06,8.52.06s1.38-.36,1.38-1.26v-8.52H801.36v12.6h-4v-12.6H782.46a28.92,28.92,0,0,1-7.26,14.4,12.33,12.33,0,0,0-3.06-2.82c6.66-6.78,7.5-16.26,7.5-23.64v-11a63.16,63.16,0,0,1-5,4,15.06,15.06,0,0,0-3-2.81,52.86,52.86,0,0,0,17-19l4.44.84c-.66,1.14-1.32,2.22-2,3.42h17.28l.6-.24,2.7,1.86a50.41,50.41,0,0,1-6.12,8.1h14.7Zm-22.86-12.12v-8.16H783.66a56.4,56.4,0,0,1-.54,8.16Zm-8.64-29.63a61.73,61.73,0,0,1-5.22,6.3h17.4a39,39,0,0,0,5-6.3Zm-5,17.93h13.68v-8H783.66Zm32.46-8H801.36v8h14.76Zm0,19.67v-8.16H801.36v8.16Z"/><path d="M849.36,1978.88a9,9,0,1,1-9.06-9A9,9,0,0,1,849.36,1978.88Zm-2.82,0a6.21,6.21,0,1,0-6.24,6.24A6.22,6.22,0,0,0,846.54,1978.88Z"/><path d="M534.9,2023.17c4.44,10.31,12.24,20,20.76,24.71a23.11,23.11,0,0,0-3.06,3.36c-9-5.58-16.92-16.32-21.6-28.07h-1v22.43h14.28v4H530V2061H525.9v-11.4H511.68v-4H525.9v-22.43h-1.08c-4.74,11.75-12.66,22.43-21.3,28.25a24.18,24.18,0,0,0-2.88-3.18c8-4.92,15.66-14.76,20.16-25.07H502.14v-4H525.9v-12.72H530v12.72h24v4Z"/><path d="M609.6,2012.07c-4.32,12.12-10.08,22.68-18.6,31.25a65.72,65.72,0,0,0,24.42,14.1,17.56,17.56,0,0,0-2.76,3.54A66.69,66.69,0,0,1,588,2046.2a72.92,72.92,0,0,1-25.38,14.7,14.53,14.53,0,0,0-2.16-3.36,69.86,69.86,0,0,0,24.78-14.1,89.37,89.37,0,0,1-18.18-29.27l3.6-1.08a80.51,80.51,0,0,0,17.52,27.53c8.16-8.21,13.62-18.41,17.4-29.87ZM589,2022a102.25,102.25,0,0,0-5.88-14.45l3.42-1.38a105.48,105.48,0,0,1,6.06,14.28Z"/><path d="M650.46,2055.62a70.7,70.7,0,0,0,7.38.36c2.1.06,14.76,0,17.58-.06a16.36,16.36,0,0,0-1.44,3.84H657.72c-12.3,0-19.92-1.92-24.72-10.38a31.55,31.55,0,0,1-9.48,11.7,19.84,19.84,0,0,0-3.06-2.82c6.3-4.14,10.2-10.92,11.82-19.86l4,.6a55.92,55.92,0,0,1-1.5,6.06c2.34,5.64,6.3,8.52,11.7,9.84v-18.54H621.72v-3.6H674.4v3.6H650.46v7.08h20v3.6h-20Zm17.22-27.17h-39.6v-19.56h39.6Zm-4-16.44H632v5.16h31.68Zm0,8.1H632v5.27h31.68Z"/><path d="M734.76,2039.84H710.7v21.06h-4.14v-21.06h-25.2v-3.9h25.2v-14.63h-15a54.27,54.27,0,0,1-6.3,10,24.8,24.8,0,0,0-3.66-2.23c4.68-5,8.52-13,10.8-21.11l4,.84a68.18,68.18,0,0,1-3,8.52h13.2v-11h4.14v11h20.76v4H710.7v14.63h24.06Z"/><path d="M759.36,2050.88a9,9,0,1,1-9.06-9A9,9,0,0,1,759.36,2050.88Zm-2.82,0a6.21,6.21,0,1,0-6.24,6.24A6.22,6.22,0,0,0,756.54,2050.88Z"/><rect class="cls-2" x="1113" y="430" width="65" height="126" rx="12"/><path class="cls-1" d="M1132.7,459.82c1.25,1.6,4.9,6.7,5.7,8.05l-2,2.45c-.7-1.5-2.35-4.4-3.75-6.65V490h-3.15V465.57c-1.5,5.05-3.5,9.9-5.55,12.85a14.83,14.83,0,0,0-1.75-3.1c2.9-4,5.8-11.5,7.2-18h-6.2v-3.15h6.3v-9.65h3.15v9.65h5.45v3.15h-5.45Zm19.1.7a19.47,19.47,0,0,0,.45,2.65c-10.15,2.7-11.6,3.15-12.5,3.75a12.13,12.13,0,0,0-1.1-3.2c.7-.2,1.55-.5,1.55-2.2v-16.7h3.25v6.5h8.35v2.9h-8.35v8.3Zm2.35,5.5-2,3.75h12.65V490h-3.4v-1.75h-17v2h-3.3V469.77h7.9c.55-1.5,1.2-3.25,1.55-4.6Zm7.3,6.5h-17v5.05h17Zm0,13v-5.3h-17v5.3Zm2.25-22.4c1.25,0,1.5-.75,1.65-5.25a9.16,9.16,0,0,0,2.85,1.25c-.3,5.45-1.2,6.95-4.15,6.95h-5.85c-3.65,0-4.55-.95-4.55-4.45V444.87h3.25v6.5h10.2v2.9h-10.2v7.35c0,1.3.25,1.5,1.65,1.5Z"/><path class="cls-1" d="M1167.55,519.87v2.5H1123.4v-2.5h20.25v-3.2H1126.8v-2.3h16.85v-3H1128.2v-2.25h15.45v-3.2H1123.5v-2.5h20.15v-3.05H1128.8V498h14.85v-3.55h3.25V498h14.45v5.4h6.15v2.5h-6.15v5.45H1146.9v3h17.3v2.3h-17.3v3.2Zm-37.75,5h31.75v15.25h-3.25v-1.6H1133v1.7h-3.2Zm3.2,2.4v3.2h25.3v-3.2Zm25.3,8.85v-3.4H1133v3.4Zm-11.4-32.7h11.15v-3.05H1146.9Zm0,5.7h11.15v-3.2H1146.9Z"/><rect class="cls-2" x="1113" y="1263" width="65" height="222" rx="12"/><path class="cls-1" d="M1158.05,1302.79a27.61,27.61,0,0,0,11.5,8.1,11.65,11.65,0,0,0-2.15,2.55,30.77,30.77,0,0,1-12.8-10.65h-15.95a34.39,34.39,0,0,1-13,11.3,11.43,11.43,0,0,0-2.15-2.55,30.39,30.39,0,0,0,11.6-8.75H1124v-2.85h10v-16.15h-7.7V1281h7.7v-5h3.3v5h18.55v-5h3.35v5h7.65v2.8h-7.65v16.15h9.8v2.85Zm-10,14.5h17.3v2.85H1127.8v-2.85h16.9v-5.6h-10.45v-2.8h10.45v-4.4h3.35v4.4h10.65v2.8h-10.65Zm-10.8-33.5v3.6h18.55v-3.6Zm0,9.8h18.55v-3.65h-18.55Zm0,6.35h18.55v-3.8h-18.55Z"/><path class="cls-1" d="M1142.25,1344.54s0,1.15,0,1.55c-.6,15.85-1.2,21.2-2.6,23a3.71,3.71,0,0,1-2.8,1.45,32.65,32.65,0,0,1-4.45,0,9.25,9.25,0,0,0-.85-3c1.75.15,3.2.15,3.9.15a1.42,1.42,0,0,0,1.45-.65c1-1.2,1.6-6,2.15-19.35h-6.8c-.55,10-2,18.25-6.45,23.65a9.53,9.53,0,0,0-2.55-2.35c5.45-6.45,5.9-17.85,6.1-31.55h-5.2v-3.1h20.1v3.1h-11.65c0,2.45-.1,4.85-.2,7.15Zm-7.9-10.45a33.47,33.47,0,0,0-4.25-7.15l2.9-1.15a31.92,31.92,0,0,1,4.4,7Zm23.85-7.45a15.26,15.26,0,0,1-.85,2.55c2.65,5.45,7.7,11.35,12.45,14a13,13,0,0,0-2.45,2.75c-4.25-2.7-8.5-8-11.4-13.3a32.61,32.61,0,0,1-11,13.6,12.79,12.79,0,0,0-2.35-2.65c5.85-3.6,10.35-10.2,12.5-17.85Zm-8.3,32.45a74,74,0,0,1,13.6,8.25l-2.25,2.9c-2.85-2.6-8.75-6.3-13.4-8.65Zm9.5-4.85a66.22,66.22,0,0,0-8.6-6.85l2.15-2.2a67.46,67.46,0,0,1,8.75,6.55Z"/><path class="cls-1" d="M1135.5,1389c-1.6,7.2-4.55,16.15-9.1,21.7a19.23,19.23,0,0,0-3.1-1.8c4.55-5.25,7.3-13.85,8.55-20.55Zm12.9-12.3v40c0,2.55-.7,3.6-2.35,4.2s-4.8.6-9.4.6a15.62,15.62,0,0,0-1.4-3.45c3.7.1,7.3.1,8.25.05s1.45-.35,1.45-1.4v-40ZM1160,1388c4.45,7,8.7,16.1,10,22l-3.45,1.45c-1.25-5.85-5.25-15.15-9.6-22.3Z"/><path class="cls-1" d="M1164.65,1453.74a72.75,72.75,0,0,1-7.65,3.65,19.75,19.75,0,0,0,12.1,9.55,10.66,10.66,0,0,0-2.1,2.6,22.77,22.77,0,0,1-12.5-11.1c-1.1.45-2.15.85-3.2,1.2,1.5,4.4.7,8.7-1.6,10.35a6,6,0,0,1-4.25,1.3c-1,0-2.25,0-3.55-.1a5.77,5.77,0,0,0-.9-2.85,30,30,0,0,0,4,.2,4.12,4.12,0,0,0,2.7-.65c1.35-1,1.9-3.75,1-6.9-5.55,3.7-14.45,7-22,8.45a11,11,0,0,0-1.45-2.4c8-1.1,17.65-4.65,22.65-8.35a13.35,13.35,0,0,0-1.25-2.15,69.47,69.47,0,0,1-17.55,6.35,7.59,7.59,0,0,0-1.4-2.15c5.8-1,13.4-3.4,17.7-5.85-.6-.55-1.25-1.15-2-1.7a80,80,0,0,1-15.25,4.15,16.41,16.41,0,0,0-1.55-2.2c5.7-.75,12.15-2.15,16.75-4.15h-18.55v-2.55h28c.3-.9.55-1.8.9-2.75h-21.7c1.25-2.8,3-7,4-10.25l3,.5a42,42,0,0,0-3.4-3.25l2-1.15h-6.25a29.23,29.23,0,0,1-5.1,5.6,25.27,25.27,0,0,0-2.35-2.2,26.89,26.89,0,0,0,7.5-9.35l3,.85c-.45.9-1,1.75-1.4,2.65h13.45v2.45h-8.3a44.9,44.9,0,0,1,4,3.65l-2.45,1.6a4.8,4.8,0,0,0-.7-.75c-.2.65-.45,1.25-.65,2h17.75l.6-.2,2.25.5c-.8,3.15-1.9,7-3,10.15h12V1451h-20.25c-.6.35-1.2.7-1.85,1a16.36,16.36,0,0,1,4.4,5.35,90.1,90.1,0,0,0,11.6-5.5Zm-10.2-10.3c.35-1.15.65-2.2,1-3.2h-17.7c-.45,1.15-.9,2.2-1.3,3.2Zm14.75-14.3v2.45h-16.6a28.84,28.84,0,0,1-4.55,5.15,15.06,15.06,0,0,0-2.55-2,21.57,21.57,0,0,0,6.7-9.1l3.1.8a26.43,26.43,0,0,1-1.25,2.7Zm-7.9,8a32.47,32.47,0,0,0-3.9-4.25l2.3-1.25a30.14,30.14,0,0,1,4,4Z"/><line class="cls-3" x1="410.25" y1="1434" x2="853.75" y2="1434"/><path d="M443.16,1018.25a175.87,175.87,0,0,0-14.47,16.39A220,220,0,0,0,413,1057.05a174.14,174.14,0,0,0-9.44,18.26,247.69,247.69,0,0,0-9.7,24.82c-4.75,14.81-7.39,30-9.31,45.41a232.15,232.15,0,0,0-1.7,40.4c.18,3.52.47,7,.92,10.54.71,5.56,1.39,11.14,2.61,16.61a90.93,90.93,0,0,0,2.9,10.23,129.85,129.85,0,0,0,6.61,15.62,74,74,0,0,0,5.59,9.33,130.12,130.12,0,0,0,9.85,12.48c5.56,6.12,12.08,11.22,18.71,16.12,12.53,9.27,27,15.76,41.56,21.12a218.39,218.39,0,0,0,42.28,10.7,412.11,412.11,0,0,0,56.22,4.74c16.76.27,33.52-.28,50.26-1l12.41-.55a26.19,26.19,0,0,0,25.5-25.5l-.91-6.78a25.45,25.45,0,0,0-6.56-11.25l-5.16-4a25.27,25.27,0,0,0-12.87-3.48c-27.81,1.26-55.71,2.51-83.54.74-7.79-.49-15.58-1.24-23.32-2.27l6.78.91a228,228,0,0,1-43.85-10.14q-5.79-2-11.44-4.38l6.09,2.57A134,134,0,0,1,454,1231.5l5.16,4A87.64,87.64,0,0,1,443.44,1220l4,5.16a76.82,76.82,0,0,1-9.81-16.89l2.57,6.09a95.44,95.44,0,0,1-6.29-24.07l.91,6.78c-1.83-13.94-1.48-28.19-.29-42.17q.51-5.85,1.29-11.68l-.92,6.78a210.2,210.2,0,0,1,9.54-40.6q2-5.67,4.29-11.2l-2.57,6.09a174.45,174.45,0,0,1,22.46-38.6l-4,5.16a175.31,175.31,0,0,1,14.61-16.55,26.24,26.24,0,0,0,0-36.07l-5.16-4a25.32,25.32,0,0,0-12.87-3.48l-6.78.91a25.52,25.52,0,0,0-11.26,6.55Z"/><path d="M785.86,1054a175,175,0,0,1,14.6,16.55l-4-5.16A174.29,174.29,0,0,1,818.94,1104l-2.57-6.09a198.48,198.48,0,0,1,11.94,40.15q1.1,5.81,1.88,11.65l-.91-6.78a235.69,235.69,0,0,1,2.05,41.47c-.17,4.14-.51,8.27-1.05,12.37l.91-6.78a95.65,95.65,0,0,1-6.29,24.07l2.57-6.09a77,77,0,0,1-9.81,16.89l4-5.16A88.09,88.09,0,0,1,806,1235.2l5.17-4A134.31,134.31,0,0,1,781.64,1248l6.09-2.58a204.49,204.49,0,0,1-41.83,12.36c-4.47.85-9,1.55-13.46,2.16l6.78-.91c-27.58,3.7-55.48,3.53-83.23,2.53-7.88-.29-15.76-.64-23.64-1a26.23,26.23,0,0,0-25.5,25.5l.91,6.78a25.55,25.55,0,0,0,6.56,11.25l5.16,4a25.32,25.32,0,0,0,12.87,3.48c16.82.76,33.65,1.51,50.49,1.61a422.06,422.06,0,0,0,50.15-2.37c17.1-1.94,34.08-4.69,50.55-9.76a240.77,240.77,0,0,0,25.69-9.8,142.65,142.65,0,0,0,17.9-9.32c2.78-1.72,5.49-3.54,8.11-5.49,4.13-3.06,8.26-6.2,12.11-9.63a109,109,0,0,0,16.43-19,75,75,0,0,0,5.55-9.33,129.82,129.82,0,0,0,6.58-15.63c3-8.71,4.32-17.73,5.47-26.85,1.71-13.54,1.36-27.39.22-41A263.2,263.2,0,0,0,874,1109.2a191.77,191.77,0,0,0-6.19-19.16,235.45,235.45,0,0,0-10.82-24.5,170.93,170.93,0,0,0-10.66-17.85,223.66,223.66,0,0,0-16.91-21.75q-3.63-4.1-7.51-8a19,19,0,0,0-8.2-5.27,23,23,0,0,0-19.65,0,19,19,0,0,0-8.21,5.27l-4,5.16a25.52,25.52,0,0,0-3.48,12.87l.91,6.78a25.45,25.45,0,0,0,6.56,11.25Z"/><line class="cls-3" x1="632" y1="1708" x2="632" y2="1103"/></svg>