<svg id="Layer_1" data-name="Layer 1" xmlns="http://www.w3.org/2000/svg" viewBox="0 0 1242 2208"><defs><style>.cls-1{fill:#f6eabe;}.cls-2{fill:#999;}</style></defs><rect class="cls-1" width="1242" height="2208"/><path d="M672.67,436c54,182.62,158,325.54,323.15,387.47-13.49,11.11-30.17,33.34-38.9,49.22-163.56-69.07-265.19-208.82-326.33-396.2C594.86,634.52,510.7,785.38,309,871.92c-7.94-15.09-26.2-34.14-40.49-45.26,205.64-82.57,284.25-235,313.63-390.64H277.26v-53.2H590.89C602,301,601.21,220.05,602,150.18h55.58c-.79,70.67-.79,150.86-11.11,232.64H980.74V436Zm214.38-99.25c-31.76-38.11-100-95.28-157.21-133.39l35.73-31.76c57.16,36.52,127,91.31,160.38,130.21Z"/><path d="M397.92,1889.69a98.85,98.85,0,0,1-6.18,13.56v39.59H387.9v-33.35a61.73,61.73,0,0,1-5.46,7,32.86,32.86,0,0,0-2.28-3.9c5.58-5.87,10.8-14.87,14-24Zm34.2,29.21c-2,1.38-4.44,2.7-6.84,4,2,5.82,5.82,11.16,10.62,13.62a15.86,15.86,0,0,0-2.64,3.06c-4.92-3-8.76-8.76-10.86-15.3-1,.54-2.1,1-3.12,1.5,2.1,6.3,1.26,12.72-1.38,15.24a6.51,6.51,0,0,1-5,1.92c-1,0-2.4-.06-3.72-.12a9.47,9.47,0,0,0-1-3.48,34.56,34.56,0,0,0,4,.24,3.38,3.38,0,0,0,3-1.14c1.44-1.32,2.1-4.86,1.44-8.94a58.72,58.72,0,0,1-19.5,11.4,11.72,11.72,0,0,0-2.34-2.82c7.44-2.22,16.26-7,21.12-11.82a24.37,24.37,0,0,0-1.62-3.66,57.71,57.71,0,0,1-16.74,9.66,16.14,16.14,0,0,0-2.22-2.64c5.82-1.74,13.38-5.58,17.52-9.3a16.53,16.53,0,0,0-2.82-3,39.59,39.59,0,0,1-12.3,6.17,14.66,14.66,0,0,0-2.28-2.58c6.54-2.1,10.86-4.62,13.68-7.25h-9.54v-9.36c-1.08,1-2.22,1.92-3.42,2.88a9.62,9.62,0,0,0-2.64-2.52,45.51,45.51,0,0,0,13.92-16.26l3.84.72a35.7,35.7,0,0,1-2,3.54h11.1l.78-.18,2.34,1.68a52.13,52.13,0,0,1-4.8,6.84h13v12.66H413.7a16.53,16.53,0,0,1-1.38,1.62,22.17,22.17,0,0,1,6,7.85,118.29,118.29,0,0,0,11.1-6.66Zm-25-23.09a54.58,54.58,0,0,1-4.2,5.16h11.58a33.35,33.35,0,0,0,3.72-5.16Zm-4,14.69h8.64a15.14,15.14,0,0,0,2.46-6.42h-11.1Zm24.72-6.42H417.6a18.56,18.56,0,0,1-1.8,6.42h12.06Z"/><path d="M454.26,1889.27a117.62,117.62,0,0,1-4.08,12v41.57h-3.42v-34.08a69.4,69.4,0,0,1-4.74,8,22,22,0,0,0-2.16-3.73c4.62-6.11,8.46-15.35,10.86-24.59Zm13.08,30.23c0,8-1.56,17.52-11.28,23.52a10.07,10.07,0,0,0-2.1-2.4c9.12-5.64,10.2-13.86,10.2-21.18v-19.86h3.18Zm-8.22,9.6h-3.3v-36.89h20V1929h-3.42v-33.77H459.12Zm10.2,1.5a87.57,87.57,0,0,1,7.86,9.78l-2.64,2a63.57,63.57,0,0,0-7.68-10.14Zm14.82-1H480.9v-35.51h3.24Zm8.94-40.79v49.37c0,2.28-.54,3.36-1.92,3.9s-3.72.72-7.8.72a16.5,16.5,0,0,0-1.08-3.48c3,.12,5.52.06,6.24.06s1.2-.3,1.2-1.2v-49.37Z"/><path d="M519.72,1925c-1.2-1.86-4-5.39-6.12-8.16V1943h-3.78v-23.88a50,50,0,0,1-7.26,6.72,13.15,13.15,0,0,0-1.92-3.78c6.24-4.26,12.72-11.94,16.32-19.67H502.08v-3.66h16.8l.72-.18,2.16,1.5a56.56,56.56,0,0,1-7.08,13.13c2.22,2.4,6.48,7.38,7.62,8.7Zm-6.48-26.93a38,38,0,0,0-5.58-7.8l3-1.8a31.39,31.39,0,0,1,5.82,7.5ZM549.48,1939c2.16,0,2.46-1.56,2.76-10.26a10.19,10.19,0,0,0,3.36,1.62c-.54,9.36-1.2,11.7-6.18,11.7h-5.7c-3.9,0-5.46-1-5.46-4.74v-12.6c-2.22,6.78-6.84,13.38-16.26,18.36a11,11,0,0,0-2.52-3c15-7.8,16.86-19.14,16.86-28.44v-12.06h3.84v12.18a43.59,43.59,0,0,1-1.08,10.14H542v15c0,1.68.48,2.1,2.22,2.1Zm-20.4-16h-3.84v-31.73h26.82V1923h-4v-28.19h-19Z"/><path d="M577,1889c-1,2.94-2.1,6.3-3.18,8.88H584v38.75h-16.8v4.8h-3.66v-43.55h6.66a64.68,64.68,0,0,0,2.58-9.72Zm3.3,12.47H567.18v13.08h13.14Zm0,31.56v-14.88H567.18v14.88Zm33.06-33.17c-1,27.53-1.8,36.71-4.2,39.59a5.6,5.6,0,0,1-4.56,2.28,74.94,74.94,0,0,1-8.82-.12,9.42,9.42,0,0,0-1.32-3.9c3.9.36,7.5.36,8.82.36s1.92-.12,2.52-.9c2-2.1,2.94-11.34,3.72-35.7H593.82a55.33,55.33,0,0,1-5.64,10.68,36.22,36.22,0,0,0-3.36-2.22c4.08-5.33,7.32-13.61,9.18-21.89l3.84.84c-.78,3-1.62,6-2.64,8.88h18.18Zm-12.78,27a106.51,106.51,0,0,0-9.3-13.92l3.06-1.79a102.47,102.47,0,0,1,9.6,13.61Z"/><path d="M663.48,1928c-1.32,3.3-2.82,7.08-4.32,10.14h15.42v3.66h-53v-3.66h33.66a74.49,74.49,0,0,0,4.2-11.1Zm7.62-36A38.92,38.92,0,0,1,660.72,1909a38.27,38.27,0,0,0,14.4,6.54,15.2,15.2,0,0,0-2.58,3.48,38.15,38.15,0,0,1-14.82-7.56,41.8,41.8,0,0,1-9.36,5.52,23.91,23.91,0,0,1,2.58,6.06h21.12v3.66H624.48V1923H647a25.39,25.39,0,0,0-2-4.74l-.48.18a10.68,10.68,0,0,0-2.16-3.42,39.06,39.06,0,0,0,12.6-6.23,39.51,39.51,0,0,1-8.46-14.1l.24-.06h-2.34v-3.54h23.58l.72-.18Zm-42.3,24.53h-3.66v-24.17h3.66Zm8,10.62a38.23,38.23,0,0,1,4,9.18l-3.9,1.14a35.06,35.06,0,0,0-3.72-9.24Zm3.24-8.39h-3.66v-29.1H640Zm10.08-24a32.26,32.26,0,0,0,7.68,11.82,33.46,33.46,0,0,0,8.4-11.82Z"/><path d="M734.52,1936.42v4h-53v-4h29a198.72,198.72,0,0,0,9.12-29.27l4.56.84c-2.64,9-6.18,20.69-9.42,28.43Zm-2.34-32.75H684v-4h48.18Zm-33.9,30c-.9-7-3.54-17.58-5.82-25.55l4-.9a209.86,209.86,0,0,1,6,25.43Zm8.58-34.85a61.85,61.85,0,0,0-2.94-9.66l3.84-1.08a70.16,70.16,0,0,1,3.12,9.54Z"/><path d="M759.54,1890.47a61.76,61.76,0,0,1-6.42,8.94c3.6,6.72,4.2,13.85,4.2,21.17,0,8.88-.66,16.86-3.12,20.16a5.25,5.25,0,0,1-3.48,2,35.5,35.5,0,0,1-7.26.24,7.29,7.29,0,0,0-1.2-4,38,38,0,0,0,6.9.06,2.89,2.89,0,0,0,2.1-1.08c1.56-2.16,2.16-9.36,2.16-17.46,0-1.2,0-2.39-.06-3.6a50.44,50.44,0,0,1-9.78,11.64,12.06,12.06,0,0,0-2.76-3.06c4.38-3.06,9.24-9.06,11.94-14.7a30.35,30.35,0,0,0-2.4-8.39,57,57,0,0,1-7,6.35,18.22,18.22,0,0,0-2.7-2.63,62.15,62.15,0,0,0,7.92-7.14,34,34,0,0,0-7-7.92l2.76-2.22A38.91,38.91,0,0,1,751,1896a46.56,46.56,0,0,0,5-7.32Zm34,9c-.9,28.67-1.62,38.21-3.9,41a5.33,5.33,0,0,1-4.38,2.34,73.18,73.18,0,0,1-8-.06,10,10,0,0,0-1.2-4c3.36.3,6.54.3,7.8.3a2.38,2.38,0,0,0,2.34-1c1.68-2.1,2.64-11.46,3.42-37.13H767.76a53.16,53.16,0,0,1-6.9,11.1,27.23,27.23,0,0,0-3.24-2.4c4.68-5.17,8.58-13.2,10.92-21.24l3.72.84a74,74,0,0,1-2.82,8H793.5Zm-25.08,28.85v4.44h-3.66v-24.18h17.16v19.74Zm0-16.19v12.65h9.84v-12.65Z"/><path d="M826.56,1915.42V1943h-3.9v-27.54H812.4c-.18,10.08-1.74,20-8.88,27.9a15.89,15.89,0,0,0-2.94-2.7c6.54-7.2,7.86-16.14,8.1-25.2h-7.92v-3.71h8v-15.9h-7.08v-3.72h30.66v3.72h-5.76v15.9h6.54v3.71Zm-3.9-3.71v-15.9h-10.2v15.9Zm33.18,11.69c-5,8.16-13.68,15.36-23,19.62a14.41,14.41,0,0,0-2.82-3.24c9-3.66,17.58-10.38,22.08-17.82Zm-3.24-32.51c-4.32,5.46-11.16,10.74-17.16,14a15.73,15.73,0,0,0-2.88-2.75c5.76-2.88,12.6-8,16.32-12.78Zm1.8,16.37A65.72,65.72,0,0,1,836,1922.38a20.87,20.87,0,0,0-2.82-2.82c6.18-3.12,13.5-8.64,17.58-13.79Z"/><path d="M862,1941.7c4.68-2,7.26-4.92,7.56-9.18a7.35,7.35,0,0,1-1.14.12c-2.34,0-4.26-1.38-4.26-4.08a4,4,0,0,1,4.32-4.14c3.18,0,4.86,2.64,4.86,6.66,0,6.48-4,11.28-10.08,13.44Z"/><path d="M386.76,1972c-1.14,2.46-2.46,5-3.84,7.31h29.16v30.54c0,2.52-.6,3.72-2.46,4.38s-5.16.66-10.38.66a16.63,16.63,0,0,0-1.32-3.9c4.14.18,7.8.12,8.82.12s1.44-.42,1.44-1.32v-6.66H382.5V2015h-3.9V1985.5a50.45,50.45,0,0,1-10.32,10,18.28,18.28,0,0,0-2.58-3.06c7.26-5,12.84-12.41,16.74-20.45H367.08v-3.78h17a56.88,56.88,0,0,0,2.64-7.8l4,.9c-.72,2.34-1.5,4.62-2.4,6.9h30.78V1972Zm21.42,10.92H382.5v6.53h25.68Zm0,16.73v-6.72H382.5v6.72Z"/><path d="M479.52,1987.79v3.77h-23c-3.18,11-10.5,19-27.42,23.22a13.59,13.59,0,0,0-2.34-3.36c15.48-3.72,22.44-10.44,25.56-19.86H426.66v-3.77H453.3c1.62-7.45,1.56-16.38,1.62-26.76H459c-.06,10.14-.06,19.08-1.62,26.76ZM443,1984.42c-2.82-2.39-8.64-5.63-13.44-7.55l2.46-2.76c4.68,1.74,10.56,4.8,13.56,7.26Zm5.46-11c-2.88-2.4-8.76-5.46-13.56-7.32l2.22-2.88c4.74,1.74,10.68,4.62,13.62,7Zm8.82,23.93c8.4,4,16.92,9.36,22,13.8l-2.7,3c-4.86-4.56-13.14-9.9-21.36-14Z"/><path d="M485.7,2000.26l3.48-3.06a113.53,113.53,0,0,1,13.5,13.38L499,2013.7A97.41,97.41,0,0,0,485.7,2000.26Z"/><path d="M569.58,2004.88l-9.9.72V2015h-4.2v-9.06c-14.58,1.08-28.86,2-38.82,2.7l-.48-4.08,10.32-.6v-35.87h-9.42v-4h52v4h-9.42v33.71l10-.72Zm-38.94-36.83v9.12h24.84v-9.12Zm0,22.31h24.84v-9.48H530.64Zm0,13.32c7.62-.48,16.14-1,24.84-1.62v-7.92H530.64Z"/><path d="M575.7,2000.26l3.48-3.06a113.53,113.53,0,0,1,13.5,13.38L589,2013.7A97.41,97.41,0,0,0,575.7,2000.26Z"/><path d="M622.38,2010.1c0,2-.42,3.06-1.68,3.72s-3.12.72-6.42.66a13.62,13.62,0,0,0-1.08-3.48c2.34.06,4.32.06,4.92,0s.9-.18.9-1v-15.36h-7.56c-.42,7-1.38,14.52-3.54,20.28a11.35,11.35,0,0,0-2.88-1.68c3.18-8.52,3.42-20.52,3.42-29.28v-21.47h13.92ZM619,1991v-10.67h-7.26V1984c0,2.15,0,4.55-.12,7Zm-7.26-24.77v10.44H619v-10.44Zm26.52,26.51a68.55,68.55,0,0,1,4.44,15.48l-2.94,1.08a35.09,35.09,0,0,0-.66-3.72c-10.92,2-12.6,2.4-13.56,3a19.1,19.1,0,0,0-1.2-3.36c.84-.18,1.56-1.62,2.34-3.6a79.57,79.57,0,0,0,4-13.79h-6.48V1984h7.68v-9.66h-6.6v-3.78h6.6v-9.9h3.36v9.9h6.36v3.78h-6.36V1984h7.38v3.84h-8.34a100,100,0,0,1-5.16,16.13l9.3-1.44a80,80,0,0,0-2.88-9.06Zm20.22,7.74c0,2-.36,3.12-1.68,3.78s-3.24.78-6.06.78a16.45,16.45,0,0,0-1.26-3.78c2.22.06,4.14.06,4.74.06s.72-.24.72-.9v-32.75h-6.78V2015h-3.54v-51.17H658.5Z"/><path d="M665.7,2000.26l3.48-3.06a113.53,113.53,0,0,1,13.5,13.38L679,2013.7A97.41,97.41,0,0,0,665.7,2000.26Z"/><path d="M713.1,1977.77c-5.76,1.14-11.52,2.22-16,3.06l-.66-3.49c4.32-.65,10.44-1.67,16.68-2.69V1969H697.92v-3.3H713.1v-5.34h4v22h-4Zm28.26,32.69c0,2.28-.6,3.36-2.34,4s-4.86.66-9.6.66a16.27,16.27,0,0,0-1.32-3.6c3.54.12,7,.12,7.92.12s1.26-.36,1.26-1.2v-5.76H709.2V2015h-4v-30.65h36.12Zm-32.16-23v5.4h28.08v-5.4Zm28.08,14.1v-5.64H709.2v5.64Zm5.82-23.33c2.1,0,2.52-.72,2.7-5.17a14.09,14.09,0,0,0,3.6,1.39c-.42,5.7-1.68,7.25-5.94,7.25H733.08c-5.46,0-6.9-1.14-6.9-5.39v-16h4v7.74a81.77,81.77,0,0,0,13.86-5l2.88,2.88a94.54,94.54,0,0,1-16.74,5.34v5c0,1.55.48,1.92,3.24,1.92Z"/><path d="M772.14,1978h10.74v3.72H772.14v1.62c2.22,2.39,8.7,10,10.14,11.87l-2.46,3.24a129,129,0,0,0-7.68-10.49v26.93h-4v-27.17c-3,7.07-7.2,14.21-11.1,18.41a28.3,28.3,0,0,0-2.22-3.66c4.56-4.62,9.6-13.08,12.36-20.75H756.24V1978h11.88v-10.32c-3.42.54-6.9,1-10.14,1.44a15.29,15.29,0,0,0-1.08-3.18c7.92-1.08,17.52-2.82,22.68-5l2.76,3.12a83.55,83.55,0,0,1-10.2,2.82Zm34.74-12.06V2012h-4v-4.56h-14v5H785v-46.49Zm-4,37.67v-33.83h-14v33.83Z"/><path d="M825.3,1977.46v3.25c0,10-.78,24.41-6.66,34.19a15.57,15.57,0,0,0-3.48-2c5.64-9.36,6.18-22.68,6.18-32.1v-17.51H865.8v14.21Zm0-10.67v7.14h36.48v-7.14Zm37,43.67c2.7,0,3.18-1.14,3.48-6.78a13.21,13.21,0,0,0,3.66,1.56c-.6,7-1.8,8.88-6.9,8.88H850c-6,0-7.68-1.32-7.68-6.3v-4.92l-15.72,2.46L826,2002l16.32-2.52v-5.88l-13.62,2.1-.66-3.24,14.28-2.28v-5.46c-4.26.78-8.7,1.38-12.78,1.92a13.47,13.47,0,0,0-1.14-2.93c10.14-1.33,22-3.48,28.26-5.88l3.42,2.63a106.83,106.83,0,0,1-13.86,3.54v5.64L863.4,1987l.6,3.25L846.18,1993v5.88l21.48-3.36.6,3.3-22.08,3.48v5.46c0,2.22.66,2.7,4,2.7Z"/><path d="M894.36,2004.88a9,9,0,1,1-9.06-9A9,9,0,0,1,894.36,2004.88Zm-2.82,0a6.21,6.21,0,1,0-6.24,6.24A6.22,6.22,0,0,0,891.54,2004.88Z"/><rect class="cls-2" x="1113" y="456" width="65" height="126" rx="12"/><path class="cls-1" d="M1132.7,485.82c1.25,1.6,4.9,6.7,5.7,8.05l-2,2.45c-.7-1.5-2.35-4.4-3.75-6.65V516h-3.15V491.57c-1.5,5.05-3.5,9.9-5.55,12.85a14.83,14.83,0,0,0-1.75-3.1c2.9-4,5.8-11.5,7.2-18h-6.2v-3.15h6.3v-9.65h3.15v9.65h5.45v3.15h-5.45Zm19.1.7a19.47,19.47,0,0,0,.45,2.65c-10.15,2.7-11.6,3.15-12.5,3.75a12.13,12.13,0,0,0-1.1-3.2c.7-.2,1.55-.5,1.55-2.2v-16.7h3.25v6.5h8.35v2.9h-8.35v8.3Zm2.35,5.5-2,3.75h12.65V516h-3.4v-1.75h-17v2h-3.3V495.77h7.9c.55-1.5,1.2-3.25,1.55-4.6Zm7.3,6.5h-17v5.05h17Zm0,13v-5.3h-17v5.3Zm2.25-22.4c1.25,0,1.5-.75,1.65-5.25a9.16,9.16,0,0,0,2.85,1.25c-.3,5.45-1.2,6.95-4.15,6.95h-5.85c-3.65,0-4.55-.95-4.55-4.45V470.87h3.25v6.5h10.2v2.9h-10.2v7.35c0,1.3.25,1.5,1.65,1.5Z"/><path class="cls-1" d="M1167.55,545.87v2.5H1123.4v-2.5h20.25v-3.2H1126.8v-2.3h16.85v-3H1128.2v-2.25h15.45v-3.2H1123.5v-2.5h20.15v-3H1128.8V524h14.85v-3.55h3.25V524h14.45v5.4h6.15v2.5h-6.15v5.45H1146.9v3h17.3v2.3h-17.3v3.2Zm-37.75,5h31.75v15.25h-3.25v-1.6H1133v1.7h-3.2Zm3.2,2.4v3.2h25.3v-3.2Zm25.3,8.85v-3.4H1133v3.4Zm-11.4-32.7h11.15v-3H1146.9Zm0,5.7h11.15v-3.2H1146.9Z"/><rect class="cls-2" x="1113" y="1302" width="65" height="222" rx="12"/><path class="cls-1" d="M1158.05,1341.79a27.61,27.61,0,0,0,11.5,8.1,11.65,11.65,0,0,0-2.15,2.55,30.77,30.77,0,0,1-12.8-10.65h-15.95a34.39,34.39,0,0,1-13,11.3,11.43,11.43,0,0,0-2.15-2.55,30.39,30.39,0,0,0,11.6-8.75H1124v-2.85h10v-16.15h-7.7V1320h7.7v-5h3.3v5h18.55v-5h3.35v5h7.65v2.8h-7.65v16.15h9.8v2.85Zm-10,14.5h17.3v2.85H1127.8v-2.85h16.9v-5.6h-10.45v-2.8h10.45v-4.4h3.35v4.4h10.65v2.8h-10.65Zm-10.8-33.5v3.6h18.55v-3.6Zm0,9.8h18.55v-3.65h-18.55Zm0,6.35h18.55v-3.8h-18.55Z"/><path class="cls-1" d="M1142.25,1383.54s0,1.15,0,1.55c-.6,15.85-1.2,21.2-2.6,23a3.71,3.71,0,0,1-2.8,1.45,32.65,32.65,0,0,1-4.45,0,9.25,9.25,0,0,0-.85-3c1.75.15,3.2.15,3.9.15a1.42,1.42,0,0,0,1.45-.65c1-1.2,1.6-6,2.15-19.35h-6.8c-.55,10-2,18.25-6.45,23.65a9.53,9.53,0,0,0-2.55-2.35c5.45-6.45,5.9-17.85,6.1-31.55h-5.2v-3.1h20.1v3.1h-11.65c0,2.45-.1,4.85-.2,7.15Zm-7.9-10.45a33.47,33.47,0,0,0-4.25-7.15l2.9-1.15a31.92,31.92,0,0,1,4.4,7Zm23.85-7.45a15.26,15.26,0,0,1-.85,2.55c2.65,5.45,7.7,11.35,12.45,14a13,13,0,0,0-2.45,2.75c-4.25-2.7-8.5-8-11.4-13.3a32.61,32.61,0,0,1-11,13.6,12.79,12.79,0,0,0-2.35-2.65c5.85-3.6,10.35-10.2,12.5-17.85Zm-8.3,32.45a74,74,0,0,1,13.6,8.25l-2.25,2.9c-2.85-2.6-8.75-6.3-13.4-8.65Zm9.5-4.85a66.22,66.22,0,0,0-8.6-6.85l2.15-2.2a67.46,67.46,0,0,1,8.75,6.55Z"/><path class="cls-1" d="M1149.6,1415.94c-.35.6-.8,1.15-1.2,1.75,4.95,5.5,13.85,10.9,21.4,13.3a16.56,16.56,0,0,0-2.35,2.9,60.7,60.7,0,0,1-21-13.9,48.65,48.65,0,0,1-12.4,10h25.1v3.1h-11.1v7.05h17.75v3H1148.1v12.7H1168v3.1h-43v-3.1h19.55v-12.7h-17.35v-3h17.35v-7.05h-10.9v-2.9a58.72,58.72,0,0,1-8.25,3.85,11.79,11.79,0,0,0-2.25-3c9.35-3.1,18.55-9.1,23.3-16.5Zm-15.25,28.65a42.46,42.46,0,0,1,4.8,9.1l-2.9,1.2a40.78,40.78,0,0,0-4.65-9.2Zm18.55,9.3a71.79,71.79,0,0,0,5.35-9.35l3.15,1.25a101.62,101.62,0,0,1-6,9.2Z"/><path class="cls-1" d="M1161,1477.09a51.83,51.83,0,0,1-12,19.6,49.94,49.94,0,0,0,20.5,10.5,16.79,16.79,0,0,0-2.25,3,50.92,50.92,0,0,1-20.75-11.1c-5.65,5-12.55,8.6-21,11.3a15.53,15.53,0,0,0-2-3.05c8.35-2.45,15.1-5.9,20.6-10.6a57.05,57.05,0,0,1-12.2-19.65h-7.75v-3.25h44.75v3.25Zm-25.75,0a52.13,52.13,0,0,0,11.3,17.3,47.46,47.46,0,0,0,10.7-17.3Zm11.25-3.55a38.13,38.13,0,0,0-3.8-7.8l3.4-1a39,39,0,0,1,4,7.65Z"/><path d="M445.06,1161.43q34,15.12,68.29,29.42,31.39,13.11,63.09,25.48,17.74,6.93,35.59,13.62a19.34,19.34,0,0,0,10.17.45,19,19,0,0,0,9.48-3,28.62,28.62,0,0,0,11.72-15.24l.91-6.78a25.52,25.52,0,0,0-3.48-12.87l-4-5.16a25.45,25.45,0,0,0-11.25-6.56q-42.58-16-84.65-33.28-11.79-4.86-23.53-9.81l6.09,2.57q-26.46-11.16-52.7-22.86a19.1,19.1,0,0,0-9.48-3,26.19,26.19,0,0,0-25.41,12.18l-2.57,6.09a25.58,25.58,0,0,0,0,13.56l2.57,6.09a25.55,25.55,0,0,0,9.15,9.15Z"/><path d="M603.4,1058.2q1.19,7.11,2.15,14.26l-.91-6.78a338.81,338.81,0,0,1,2.83,65.69q-.59,9.23-1.8,18.4l.91-6.78A202.58,202.58,0,0,1,593,1194l2.58-6.09a173.42,173.42,0,0,1-22.36,38.18l4-5.16a200.68,200.68,0,0,1-36.11,35.87l5.16-4A233.55,233.55,0,0,1,495,1282.54l6.09-2.57a271.64,271.64,0,0,1-69.35,18.47l6.78-.91c-27.2,3.62-54.76,3.71-82.07,1.36q-11.67-1-23.29-2.57l6.78.92q-16.78-2.27-33.42-5.51a19.3,19.3,0,0,0-10.16-.45,18.92,18.92,0,0,0-9.48,3,28.49,28.49,0,0,0-11.72,15.24c-1.49,6.53-1.17,13.86,2.57,19.65,3.44,5.34,8.77,10.47,15.24,11.72,39,7.54,79,12.16,118.75,10.09a351.06,351.06,0,0,0,61.83-8.55,286.21,286.21,0,0,0,52.35-18.13,232.3,232.3,0,0,0,40.76-23.51c14.32-10.36,27.85-21.81,39.49-35.16,11.8-13.54,22.39-28.39,30.15-44.63a214.62,214.62,0,0,0,17.51-52.7,297,297,0,0,0,5.16-56c-.08-18.62-2-37.07-4.57-55.49q-.84-6.09-1.87-12.14A19.12,19.12,0,0,0,648,1036a19.32,19.32,0,0,0-7.15-6.57,19,19,0,0,0-9.48-3,19.34,19.34,0,0,0-10.17.45c-6.17,2-12.13,5.82-15.24,11.72l-2.57,6.09a25.58,25.58,0,0,0,0,13.56Z"/><path d="M588.53,1191.29C569,1245.35,550,1300.11,541.12,1357.08c-4.69,30.17-7.27,60.72-4.51,91.21,2.86,31.63,10.15,62.19,24.2,90.78,13.12,26.67,30.78,50.92,42.47,78.32l-2.57-6.09a128.66,128.66,0,0,1,9.23,31.72l-.91-6.78a68.68,68.68,0,0,1,.34,17.83l.92-6.78a51.16,51.16,0,0,1-3.42,12.56l2.57-6.09A53.24,53.24,0,0,1,602.8,1665l4-5.16a67.53,67.53,0,0,1-11.56,11.42l5.16-4a109.41,109.41,0,0,1-24.1,13.71l6.09-2.57c-19.69,8.28-40.91,12.91-62,15.77l6.78-.91c-35.51,4.73-71.57,4-107.18.73-10.36-1-20.71-2.16-31-3.54l6.78.92c-29.88-4-59.52-9.58-89-15.88-6.7-1.44-13.6-1-19.65,2.57-5.28,3.09-10.33,9.16-11.71,15.24-1.49,6.53-1.17,13.85,2.57,19.65,3.48,5.4,8.75,10.33,15.24,11.72,39.18,8.37,78.69,15.35,118.56,19.51,38.31,4,77.15,5.14,115.42.08,18-2.37,35.83-5.51,53.17-11,14.68-4.63,29.63-10.56,42.33-19.42,6.87-4.79,13.71-10.08,19.08-16.57a84.17,84.17,0,0,0,15.41-26.74,71.35,71.35,0,0,0,3.62-26.66,130,130,0,0,0-5.16-30.44c-10.65-35.8-33.54-65.71-50-98.74q-2.8-5.6-5.27-11.34l2.58,6.09c-7.6-18-12.27-37.29-14.9-56.64l.91,6.77c-3.82-28.83-2.82-58.05,1-86.82l-.91,6.77c6.43-47.24,20.23-93.13,35.73-138.1,4.22-12.25,8.58-24.44,13-36.63,2.14-5.94.52-14.36-2.57-19.65s-9.17-10.33-15.24-11.72c-6.53-1.48-13.86-1.16-19.65,2.57s-9.37,8.71-11.72,15.24Z"/><path d="M773.39,1692.13c-2.13,1.17-4.3,2.23-6.53,3.18l6.09-2.57a78.46,78.46,0,0,1-19.73,5.35l6.78-.91a90.13,90.13,0,0,1-23.55-.06l6.78.91a106.49,106.49,0,0,1-26.65-7.44l6.09,2.58A144,144,0,0,1,691,1674.35l5.16,4a140.5,140.5,0,0,1-24.78-24.5l4,5.16a90.12,90.12,0,0,1-11.72-19.9l2.57,6.09c-4-9.58-6.78-19.63-10.09-29.47a24.53,24.53,0,0,0-21.2-18.26,19.34,19.34,0,0,0-10.17.45l-6.09,2.57a25.71,25.71,0,0,0-9.15,9.15l-2.57,6.09a25.78,25.78,0,0,0,0,13.56c5,15,9.15,30.31,16.84,44.21a79.94,79.94,0,0,0,5.73,8.84c3.16,4.29,6.41,8.53,9.89,12.57a139.37,139.37,0,0,0,14.34,14.31c11.78,10.18,24.71,19.44,38.85,26a151.94,151.94,0,0,0,24.82,9.46,129,129,0,0,0,26.12,4.07,112.5,112.5,0,0,0,28.76-2.46,75.9,75.9,0,0,0,10.68-3,114.53,114.53,0,0,0,16.19-7.17,24.54,24.54,0,0,0,12.17-25.41,19,19,0,0,0-3-9.48l-4-5.16a25.55,25.55,0,0,0-11.25-6.56l-6.78-.91a25.37,25.37,0,0,0-12.87,3.49Z"/><path d="M618.81,1230.86q31.19-1.38,62.32-3.54t62-5.12q17.38-1.67,34.74-3.58a26.23,26.23,0,0,0,25.5-25.5l-.91-6.78a25.45,25.45,0,0,0-6.56-11.25l-5.16-4a25.32,25.32,0,0,0-12.87-3.48q-30.83,3.41-61.74,6T654,1178.06q-17.57,1-35.16,1.8a19.22,19.22,0,0,0-9.83,2.2,23,23,0,0,0-13.48,13.47,19.32,19.32,0,0,0-2.19,9.83l.91,6.78a25.45,25.45,0,0,0,6.56,11.25l5.16,4a25.46,25.46,0,0,0,12.87,3.48Z"/><path class="cls-2" d="M158.75,1076.11v3.78h-23c-3.18,11-10.5,19-27.42,23.22a13.59,13.59,0,0,0-2.34-3.36c15.48-3.72,22.44-10.44,25.56-19.86H105.89v-3.78h26.64c1.62-7.44,1.56-16.38,1.62-26.76h4.08c-.06,10.14-.06,19.08-1.62,26.76Zm-36.54-3.36c-2.82-2.4-8.64-5.64-13.44-7.56l2.46-2.76c4.68,1.74,10.56,4.8,13.56,7.26Zm5.46-11c-2.88-2.4-8.76-5.46-13.56-7.32l2.22-2.88c4.74,1.74,10.68,4.62,13.62,7Zm8.82,23.94c8.4,4,16.92,9.36,22,13.8l-2.7,3c-4.86-4.56-13.14-9.9-21.36-14Z"/><path class="cls-2" d="M121.67,1526.61c0,2-.42,3.06-1.62,3.72s-3.3.72-6.72.66a15.74,15.74,0,0,0-1-3.42c2.4.06,4.5.06,5.16.06s1-.24,1-1v-18.84c-1.92,1.92-4,3.72-5.76,5.52l-1.8-3c-.42,7.26-1.5,15.18-3.9,21.36a9.34,9.34,0,0,0-2.58-2.52c3.18-8.64,3.48-20.4,3.48-29v-21.24h13.8Zm-10.5-26.52c0,3-.06,6.42-.24,10,2-1.5,4.68-3.72,7.5-6.12v-21.42h-7.26v9.6l1.92-1.2a46.55,46.55,0,0,1,5.34,6.78l-2.52,1.68a44.25,44.25,0,0,0-4.74-6.54Zm26.46,8.82a77,77,0,0,1,4.44,15.54l-3.06,1.14a35.09,35.09,0,0,0-.66-3.72c-10.92,2-12.6,2.46-13.56,3a19.1,19.1,0,0,0-1.2-3.36c.84-.18,1.62-1.62,2.34-3.6a82.42,82.42,0,0,0,4-14h-6.48v-3.6h7.68v-9.84h-6.6v-3.6h6.6v-9.9h3.48v9.9h6.24v3.6h-6.24v9.84h7.26v3.6h-8.28a97.76,97.76,0,0,1-5.28,16.44l9.36-1.44a70.38,70.38,0,0,0-2.88-9.12Zm20.1,7.86c0,2-.36,3.12-1.68,3.78s-3.24.78-6.06.78a16.45,16.45,0,0,0-1.26-3.78c2.22.06,4.14.06,4.74.06s.72-.24.72-.9V1484h-6.78v47.4h-3.54v-51.18h13.86Z"/><path class="cls-2" d="M1021.19,1453.23c-8.58,1.56-17.4,3.3-23.82,4.44l-.66-3.42c4.32-.66,10.14-1.68,16.32-2.76v-8.22H998.21V1440H1013v-5.34h4v16.26l4-.72Zm20.4,31.56c0,2.28-.6,3.36-2.34,4s-4.86.66-9.6.66a16.27,16.27,0,0,0-1.32-3.6c3.54.12,7,.12,7.92.12s1.26-.36,1.26-1.2v-8c-9.06,1.86-18.78,3.72-25.92,4.92l-1.32-3.54c6.84-1,17.34-2.88,27.24-4.74v-11.22h-28.14v7.44c0,6.3-1.2,14.64-7.74,20.16a12.58,12.58,0,0,0-2.88-2.76c5.94-5.1,6.72-11.94,6.72-17.46v-10.8h36.12Zm-29.46-20.22c6.6,1.08,15.18,3.36,19.68,5.46l-1.38,3.12a103.06,103.06,0,0,0-19.8-5.82Zm31.26-12c2.1,0,2.52-.72,2.7-5.16a13.6,13.6,0,0,0,3.6,1.38c-.42,5.7-1.68,7.26-5.94,7.26h-10.38c-5.46,0-6.9-1.14-6.9-5.4v-16h4V1440h15.18v3.3h-15.18v7.38c0,1.56.48,1.92,3.24,1.92Z"/><path class="cls-2" d="M1050.23,1202.31h-10.68v8h-4.14v-8H996.47v-4h10.2v-35h-9v-3.84h51.24v3.84h-9.36v35h10.68Zm-39.42-39v8.82h24.6v-8.82Zm0,21.54h24.6v-9h-24.6Zm24.6,13.5v-9.84h-24.6v9.84Z"/><path class="cls-2" d="M1005.53,1684.79V1688c0,10-.78,24.42-6.66,34.2a15.57,15.57,0,0,0-3.48-2c5.64-9.36,6.18-22.68,6.18-32.1v-17.52H1046v14.22Zm0-10.68v7.14H1042v-7.14Zm37,43.68c2.7,0,3.18-1.14,3.48-6.78a13.21,13.21,0,0,0,3.66,1.56c-.6,7-1.8,8.88-6.9,8.88h-12.54c-6,0-7.68-1.32-7.68-6.3v-4.92l-15.72,2.46-.6-3.36,16.32-2.52v-5.88l-13.62,2.1-.66-3.24,14.28-2.28v-5.46c-4.26.78-8.7,1.38-12.78,1.92a13.55,13.55,0,0,0-1.14-2.94c10.14-1.32,22-3.48,28.26-5.88l3.42,2.64a110.17,110.17,0,0,1-13.86,3.54V1697l17.22-2.64.6,3.24-17.82,2.76v5.88l21.48-3.36.6,3.3-22.08,3.48v5.46c0,2.22.66,2.7,4,2.7Z"/><path class="cls-2" d="M185.65,1094.49a300.08,300.08,0,0,0,72.26,33.32,305.22,305.22,0,0,0,78,13.36,295.66,295.66,0,0,0,44.63-1.62c1.43-.16,1.44-2.42,0-2.25a297.93,297.93,0,0,1-79-1.7,303.13,303.13,0,0,1-75.84-22.19,296.15,296.15,0,0,1-39-20.87c-1.22-.78-2.35,1.17-1.13,2Z"/><path class="cls-2" d="M960.3,1194.75a181.84,181.84,0,0,1-46.47,20.08,185.32,185.32,0,0,1-50.18,6.65A179.55,179.55,0,0,1,835,1219c-1.41-.24-2,1.93-.59,2.17a183.67,183.67,0,0,0,51.4,1.34,187.12,187.12,0,0,0,49.83-12.78,182.25,182.25,0,0,0,25.78-13c1.23-.75.1-2.7-1.14-1.94Z"/><path class="cls-2" d="M184.79,1492.35a136.45,136.45,0,0,0,46.41-33.68,181.73,181.73,0,0,0,31.45-49,213.27,213.27,0,0,0,10.93-31,1.13,1.13,0,0,0-2.17-.6,202.85,202.85,0,0,1-22.61,53.28c-10,16.31-22.55,31.18-37.73,42.87a128.19,128.19,0,0,1-27.41,16.18c-1.33.57-.18,2.51,1.13,1.94Z"/><path class="cls-2" d="M178,1535.94c19.07,3.67,36.85,12.25,52.47,23.67,16.31,11.92,30.17,26.94,42.16,43.12,6.87,9.25,13.16,18.92,19.12,28.78a1.13,1.13,0,0,0,1.94-1.14c-10.72-17.74-22.58-34.93-36.77-50.11-13.58-14.53-29.4-27.17-47.31-36a123.43,123.43,0,0,0-31-10.53c-1.42-.27-2,1.9-.6,2.17Z"/><path class="cls-2" d="M972.38,1470.41a488.83,488.83,0,0,1-58.22-4.33c-19.51-2.5-38.91-5.82-58.29-9.19s-38.52-6.76-57.88-9.51a544.84,544.84,0,0,0-57.46-5.49,315.29,315.29,0,0,0-57.28,2.87q-3.64.54-7.28,1.18c-1.42.25-.82,2.42.6,2.17A299.8,299.8,0,0,1,734,1444a499.44,499.44,0,0,1,57.93,4.82c19.27,2.61,38.43,5.94,57.59,9.28s38.43,6.7,57.75,9.35a530.64,530.64,0,0,0,58,5.12q3.57.09,7.12.12a1.13,1.13,0,0,0,0-2.25Z"/><path class="cls-2" d="M960.93,1712.73c-12.57,9.24-27.3,14.71-42.57,17.46-15.79,2.84-32,3-47.93,2.14-9-.45-18-1.22-26.95-2.06-1.44-.13-1.43,2.12,0,2.25,16.22,1.52,32.51,2.82,48.82,2.41,15.75-.41,31.68-2.41,46.53-7.88a94.18,94.18,0,0,0,23.24-12.37c1.15-.85,0-2.81-1.14-2Z"/></svg>