<svg id="Layer_1" data-name="Layer 1" xmlns="http://www.w3.org/2000/svg" viewBox="0 0 1242 2208"><defs><style>.cls-1{fill:#f6eabe;}.cls-2{fill:#999;}.cls-3,.cls-4{fill:none;}.cls-4{stroke:#000;stroke-linecap:round;stroke-miterlimit:10;stroke-width:50px;}</style></defs><rect class="cls-1" width="1242" height="2208"/><path d="M960.12,768.55v51.61H253.47V768.55H574.24V508.92H325.72V458.1H574.24V234.2H293.17V181.79h628V234.2H629.82V458.1H891v50.82H629.82V768.55ZM743.36,551.79c50,45.26,115.92,107.19,149.27,144.51l-39.7,34.93C821.17,693.12,756.06,628,705.25,581.17Z"/><rect class="cls-2" x="1113" y="436" width="65" height="126" rx="12"/><path class="cls-1" d="M1132.7,465.82c1.25,1.6,4.9,6.7,5.7,8.05l-2,2.45c-.7-1.5-2.35-4.4-3.75-6.65V496h-3.15V471.57c-1.5,5.05-3.5,9.9-5.55,12.85a14.83,14.83,0,0,0-1.75-3.1c2.9-4,5.8-11.5,7.2-18h-6.2v-3.15h6.3v-9.65h3.15v9.65h5.45v3.15h-5.45Zm19.1.7a19.47,19.47,0,0,0,.45,2.65c-10.15,2.7-11.6,3.15-12.5,3.75a12.13,12.13,0,0,0-1.1-3.2c.7-.2,1.55-.5,1.55-2.2v-16.7h3.25v6.5h8.35v2.9h-8.35v8.3Zm2.35,5.5-2,3.75h12.65V496h-3.4v-1.75h-17v2h-3.3V475.77h7.9c.55-1.5,1.2-3.25,1.55-4.6Zm7.3,6.5h-17v5.05h17Zm0,13v-5.3h-17v5.3Zm2.25-22.4c1.25,0,1.5-.75,1.65-5.25a9.16,9.16,0,0,0,2.85,1.25c-.3,5.45-1.2,6.95-4.15,6.95h-5.85c-3.65,0-4.55-.95-4.55-4.45V450.87h3.25v6.5h10.2v2.9h-10.2v7.35c0,1.3.25,1.5,1.65,1.5Z"/><path class="cls-1" d="M1167.55,525.87v2.5H1123.4v-2.5h20.25v-3.2H1126.8v-2.3h16.85v-3H1128.2v-2.25h15.45v-3.2H1123.5v-2.5h20.15v-3.05H1128.8V504h14.85v-3.55h3.25V504h14.45v5.4h6.15v2.5h-6.15v5.45H1146.9v3h17.3v2.3h-17.3v3.2Zm-37.75,5h31.75v15.25h-3.25v-1.6H1133v1.7h-3.2Zm3.2,2.4v3.2h25.3v-3.2Zm25.3,8.85v-3.4H1133v3.4Zm-11.4-32.7h11.15v-3.05H1146.9Zm0,5.7h11.15v-3.2H1146.9Z"/><path d="M324.92,1881.69a98.85,98.85,0,0,1-6.18,13.56v39.59H314.9v-33.35a61.73,61.73,0,0,1-5.46,7,32.86,32.86,0,0,0-2.28-3.9c5.58-5.87,10.8-14.87,14-24Zm34.2,29.21c-2,1.38-4.44,2.7-6.84,4,2,5.82,5.82,11.16,10.62,13.62a15.86,15.86,0,0,0-2.64,3.06c-4.92-3-8.76-8.76-10.86-15.3-1,.54-2.1,1-3.12,1.5,2.1,6.3,1.26,12.72-1.38,15.24a6.51,6.51,0,0,1-5,1.92c-1,0-2.4-.06-3.72-.12a9.47,9.47,0,0,0-1-3.48,34.56,34.56,0,0,0,4,.24,3.38,3.38,0,0,0,3-1.14c1.44-1.32,2.1-4.86,1.44-8.94a58.72,58.72,0,0,1-19.5,11.4,11.72,11.72,0,0,0-2.34-2.82c7.44-2.22,16.26-7,21.12-11.82a24.37,24.37,0,0,0-1.62-3.66,57.71,57.71,0,0,1-16.74,9.66,16.14,16.14,0,0,0-2.22-2.64c5.82-1.74,13.38-5.58,17.52-9.3a16.53,16.53,0,0,0-2.82-3,39.59,39.59,0,0,1-12.3,6.17,14.66,14.66,0,0,0-2.28-2.58c6.54-2.1,10.86-4.62,13.68-7.26h-9.54v-9.35c-1.08,1-2.22,1.92-3.42,2.88a9.81,9.81,0,0,0-2.64-2.53,45.41,45.41,0,0,0,13.92-16.25l3.84.72a35.7,35.7,0,0,1-2,3.54h11.1l.78-.18,2.34,1.68a52.13,52.13,0,0,1-4.8,6.84h13v12.65H340.7a15.52,15.52,0,0,1-1.38,1.63,22.17,22.17,0,0,1,6,7.85,120.47,120.47,0,0,0,11.1-6.66Zm-25-23.09a54.58,54.58,0,0,1-4.2,5.16h11.58a33.35,33.35,0,0,0,3.72-5.16Zm-4,14.69h8.64a15.14,15.14,0,0,0,2.46-6.42h-11.1Zm24.72-6.42H344.6a18.56,18.56,0,0,1-1.8,6.42h12.06Z"/><path d="M417.92,1929.32c0,2.76-.78,4-2.64,4.68s-5.46.72-11.1.66a12.92,12.92,0,0,0-1.38-3.84c4.32.18,8.4.12,9.6.06s1.56-.42,1.56-1.56v-12.78H397.22v17.94h-4v-17.94H377.78c-.9,6.72-2.88,13.56-7.56,18.78a11.58,11.58,0,0,0-3-2.64c6.6-7.44,7.26-18,7.26-26.46v-21.59h43.44Zm-24.66-16.56v-10.5H378.38v4c0,2.11-.06,4.26-.24,6.54Zm-14.88-24.35v10.13h14.88v-10.13Zm35.58,0H397.22v10.13H414Zm0,24.35v-10.5H397.22v10.5Z"/><path d="M481.46,1927.64v3.72h-53.1v-3.72Zm-28.14-11.46a19.1,19.1,0,0,0-.24,3.54c-17.34,1.2-19.5,1.44-20.76,2a26.46,26.46,0,0,0-1.38-3.72c1.44-.36,3.06-2,5.22-4.56a98.9,98.9,0,0,0,6.78-8.46c-8.82.54-10.38.84-11.34,1.21a21.42,21.42,0,0,0-1.32-3.72c1.14-.24,2.28-1.8,3.66-3.91a91.27,91.27,0,0,0,9.24-17.87l3.78,1.5a118.07,118.07,0,0,1-11.16,19.67l9.66-.47a100.08,100.08,0,0,0,6-9.6l3.6,1.85a147.49,147.49,0,0,1-17.58,23.4Zm26.22-.24a20.28,20.28,0,0,0-.36,3.6c-18.9,1.08-21.18,1.32-22.62,1.8a29.63,29.63,0,0,0-1.26-3.66c1.32-.36,3.06-2,5.34-4.44a97,97,0,0,0,7.38-8.75c-9.48.65-11.1.89-12,1.31a21.85,21.85,0,0,0-1.32-3.77c1.14-.24,2.28-1.74,3.72-3.84a95.4,95.4,0,0,0,9.48-17.64l3.72,1.56a110.56,110.56,0,0,1-11.34,19.31l10.38-.47c2-2.83,4-5.83,5.82-8.83L480,1894a143.41,143.41,0,0,1-18.18,22.74Z"/><path d="M507.92,1911.68a15.1,15.1,0,0,0,0,3.3c-15,3.06-16.92,3.6-18.12,4.32a33.47,33.47,0,0,0-1.26-3.66c1.2-.24,2.64-1.74,4.44-4a87.43,87.43,0,0,0,6.3-8.46c-7.56,1-9.06,1.38-9.9,1.8a20.34,20.34,0,0,0-1.26-3.84c1.08-.23,2.1-1.61,3.42-3.72a92.15,92.15,0,0,0,8-16.91l3.78,1.8a97.72,97.72,0,0,1-9.78,18.11l8-.77c1.38-2.23,2.64-4.5,3.84-6.72l3.3,2a125.25,125.25,0,0,1-13.2,19Zm.9,13.8-19.5,5.64-.84-3.9c4.92-1.08,12.42-3.18,19.8-5.16Zm32.88-14.34a50.06,50.06,0,0,1-12.06,12.66c2,4.56,4.38,7.14,7.2,7.14,1.68,0,2.34-1.44,2.64-6.78a10.78,10.78,0,0,0,3,2.16c-.72,6.54-2,8.52-6,8.52-4.32,0-7.62-3.24-10-8.76a70.36,70.36,0,0,1-16,7.8,15.29,15.29,0,0,0-2.52-3.24,67.16,67.16,0,0,0,17.16-8,75.29,75.29,0,0,1-3.06-13.62l-11.58,2.23-.66-3.61,11.76-2.15c-.36-2.7-.6-5.53-.78-8.46l-9.18,1.38-.66-3.6,9.6-1.38c-.24-4.26-.36-8.58-.42-13.14h4c0,4.38.06,8.58.24,12.6l14.58-2.16.66,3.48-15,2.28c.18,2.88.42,5.63.78,8.27l15.24-2.88.66,3.54-15.48,2.95a83.84,83.84,0,0,0,2.58,11.93,44.15,44.15,0,0,0,10-10.74Zm-5.7-22a47.55,47.55,0,0,0-8.82-5.34l2.22-2.22a42.19,42.19,0,0,1,8.88,5Z"/><path d="M598.7,1908.5v18.9h-4.26V1925H576.92v10h-4.14v-10h-17.1v2.52H551.6v-19h21.18v-5.21H553.94v-16h18.84v-6.9h4.14v6.9H596v16H576.92v5.21Zm-25.92,12.84v-9.17h-17.1v9.17Zm0-21.65v-8.76H558v8.76Zm4.14-8.76v8.76H591.8v-8.76Zm17.52,30.41v-9.17H576.92v9.17Z"/><path d="M619.76,1923.92c1.2.72,2.52,2,4.68,3.36,4,2.64,9.12,3.06,16.2,3.06,7.5,0,16.5-.54,22.44-1.2a16.64,16.64,0,0,0-1.2,4.5c-4.2.3-15.42.66-21.42.66-7.8,0-12.84-.66-17-3.42-2.46-1.68-4.5-3.84-5.82-3.84-1.92,0-4.62,3.72-7.44,8l-2.94-3.84c3.12-3.78,6.12-6.66,8.7-7.62v-19.25h-8v-3.72h11.88ZM618.68,1894a71.56,71.56,0,0,0-8.4-11l3-1.92a66.39,66.39,0,0,1,8.64,10.56Zm23.7,23.39H624v-3.78h18.36v-8.69H633c-2.88,0-4.8.35-5.34.89a32.79,32.79,0,0,0-1.26-3.89c1-.24,2-1.8,3.18-4a64.7,64.7,0,0,0,3.66-7.8h-8.76v-3.54h10.14c.72-2,1.44-4.2,2-6.24l4.2,1.14c-.6,1.68-1.26,3.42-1.92,5.1H660v3.54H637.46a110.36,110.36,0,0,1-5.4,11h10.32v-7.56h4.08v7.56h11.88v3.73H646.46v8.69h14.76v3.78H646.46v11.34h-4.08Z"/><path d="M720.86,1926.5v4H669.14v-4Zm-3.3-40.37v4h-45v-4Zm-4.62,19.55v4h-36.6v-4Z"/><path d="M747.14,1916.72c-6.3,2.94-13,5.94-18.18,8.22l-1.56-4c2.28-.9,5.16-2,8.28-3.3v-19.14h-7.32v-3.77h7.32V1881h3.78v13.74h6.72v3.77h-6.72v17.58l6.84-2.88Zm19.26-5c2.82,9.35,8.28,16.49,16.44,19.85a18,18,0,0,0-2.76,3.54c-8.4-4-13.86-11.7-16.92-21.9-1.68,8.4-6.3,16.08-17.82,21.84a14.06,14.06,0,0,0-2.7-3c11-5.4,15.3-12.6,16.86-20.33H747.26V1908H760a63.69,63.69,0,0,0,.3-6.84v-6.77H749.12v-3.78h11.22V1881h3.84v9.6h13.38V1908h4.26v3.79Zm-2.22-10.63c0,2.34-.06,4.63-.24,6.84h9.84v-13.61h-9.6Z"/><path d="M841.76,1928.66v3.9h-53.4v-3.9H812.6V1909H793.82v-3.83H812.6v-16.92H791.36v-4h47.46v4h-22v16.92h19.74V1909H816.8v19.62Zm-16.38-16.38c3.78,3.42,8.76,8.1,11.28,10.92l-3,2.64a149.15,149.15,0,0,0-11.16-11.34Z"/><path d="M860.18,1901.79c0,2.7-.06,5.39-.24,8h29.52V1935H885.2V1914H859.58c-1,7.62-3.3,14.94-8.88,21.12a14.79,14.79,0,0,0-3.06-3.06c7.62-8.52,8.46-19.62,8.46-30.23V1882h4.08v13.92h17.4v-15.48h4.2v15.48h17.34V1900H860.18Z"/><path d="M926.36,1924.88a9,9,0,1,1-9.06-9A9,9,0,0,1,926.36,1924.88Zm-2.82,0a6.21,6.21,0,1,0-6.24,6.24A6.22,6.22,0,0,0,923.54,1924.88Z"/><path d="M491.9,1969.17c4.44,10.31,12.24,20,20.76,24.71a23.11,23.11,0,0,0-3.06,3.36c-9-5.58-16.92-16.32-21.6-28.07h-1v22.43h14.28v4H487V2007H482.9v-11.4H468.68v-4H482.9v-22.43h-1.08c-4.74,11.75-12.66,22.43-21.3,28.25a24.18,24.18,0,0,0-2.88-3.18c8-4.92,15.66-14.76,20.16-25.07H459.14v-4H482.9v-12.72H487v12.72h24v4Z"/><path d="M566.6,1958.07c-4.32,12.12-10.08,22.68-18.6,31.25a65.72,65.72,0,0,0,24.42,14.1,17.56,17.56,0,0,0-2.76,3.54A66.69,66.69,0,0,1,545,1992.2a72.92,72.92,0,0,1-25.38,14.7,14.53,14.53,0,0,0-2.16-3.36,69.86,69.86,0,0,0,24.78-14.1,89.37,89.37,0,0,1-18.18-29.27l3.6-1.08a80.51,80.51,0,0,0,17.52,27.53c8.16-8.21,13.62-18.41,17.4-29.87ZM546,1968a102.25,102.25,0,0,0-5.88-14.45l3.42-1.38a105.48,105.48,0,0,1,6.06,14.28Z"/><path d="M607.46,2001.62a70.7,70.7,0,0,0,7.38.36c2.1.06,14.76,0,17.58-.06a16.36,16.36,0,0,0-1.44,3.84H614.72c-12.3,0-19.92-1.92-24.72-10.38a31.55,31.55,0,0,1-9.48,11.7,19.84,19.84,0,0,0-3.06-2.82c6.3-4.14,10.2-10.92,11.82-19.86l4,.6a55.92,55.92,0,0,1-1.5,6.06c2.34,5.64,6.3,8.52,11.7,9.84v-18.54H578.72v-3.6H631.4v3.6H607.46v7.08h20v3.6h-20Zm17.22-27.17h-39.6v-19.56h39.6Zm-4-16.44H589v5.16h31.68Zm0,8.1H589v5.27h31.68Z"/><path d="M691.76,2000.66v3.9h-53.4v-3.9H662.6V1981H643.82v-3.83H662.6v-16.92H641.36v-4h47.46v4h-22v16.92h19.74V1981H666.8v19.62Zm-16.38-16.38c3.78,3.42,8.76,8.1,11.28,10.92l-3,2.64a149.15,149.15,0,0,0-11.16-11.34Z"/><path d="M721.16,1960.89a96.9,96.9,0,0,1-7.44,16.07h33.54v30h-4.14v-4.26H713.9V2007h-4v-24.3a52.86,52.86,0,0,1-10.32,10.68,18.61,18.61,0,0,0-2.76-3c9.48-7.08,16.14-18.6,19.86-29.51H699.2V1957H751v3.9Zm-7.26,19.91v18.06h29.22V1980.8Z"/><path d="M776.36,1996.88a9,9,0,1,1-9.06-9A9,9,0,0,1,776.36,1996.88Zm-2.82,0a6.21,6.21,0,1,0-6.24,6.24A6.22,6.22,0,0,0,773.54,1996.88Z"/><line class="cls-3" x1="621" y1="350" x2="621" y2="350"/><line class="cls-4" x1="609" y1="1072" x2="609" y2="1682"/><line class="cls-4" x1="459" y1="1238" x2="759" y2="1238"/><line class="cls-4" x1="459" y1="1377" x2="759" y2="1377"/><line class="cls-4" x1="459" y1="1516" x2="759" y2="1516"/><rect class="cls-2" x="1114" y="1241" width="65" height="271" rx="12"/><path class="cls-1" d="M1159.05,1280.79a27.61,27.61,0,0,0,11.5,8.1,11.65,11.65,0,0,0-2.15,2.55,30.77,30.77,0,0,1-12.8-10.65h-15.95a34.39,34.39,0,0,1-13,11.3,11.43,11.43,0,0,0-2.15-2.55,30.39,30.39,0,0,0,11.6-8.75H1125v-2.85h10v-16.15h-7.7V1259h7.7v-5h3.3v5h18.55v-5h3.35v5h7.65v2.8h-7.65v16.15h9.8v2.85Zm-10,14.5h17.3v2.85H1128.8v-2.85h16.9v-5.6h-10.45v-2.8h10.45v-4.4h3.35v4.4h10.65v2.8h-10.65Zm-10.8-33.5v3.6h18.55v-3.6Zm0,9.8h18.55v-3.65h-18.55Zm0,6.35h18.55v-3.8h-18.55Z"/><path class="cls-1" d="M1143.25,1322.54s0,1.15,0,1.55c-.6,15.85-1.2,21.2-2.6,23a3.71,3.71,0,0,1-2.8,1.45,32.65,32.65,0,0,1-4.45,0,9.25,9.25,0,0,0-.85-3c1.75.15,3.2.15,3.9.15a1.42,1.42,0,0,0,1.45-.65c1-1.2,1.6-6,2.15-19.35h-6.8c-.55,10-2,18.25-6.45,23.65a9.53,9.53,0,0,0-2.55-2.35c5.45-6.45,5.9-17.85,6.1-31.55h-5.2v-3.1h20.1v3.1h-11.65c0,2.45-.1,4.85-.2,7.15Zm-7.9-10.45a33.47,33.47,0,0,0-4.25-7.15l2.9-1.15a31.92,31.92,0,0,1,4.4,7Zm23.85-7.45a15.26,15.26,0,0,1-.85,2.55c2.65,5.45,7.7,11.35,12.45,14a13,13,0,0,0-2.45,2.75c-4.25-2.7-8.5-8-11.4-13.3a32.61,32.61,0,0,1-11,13.6,12.79,12.79,0,0,0-2.35-2.65c5.85-3.6,10.35-10.2,12.5-17.85Zm-8.3,32.45a74,74,0,0,1,13.6,8.25l-2.25,2.9c-2.85-2.6-8.75-6.3-13.4-8.65Zm9.5-4.85a66.22,66.22,0,0,0-8.6-6.85l2.15-2.2a67.46,67.46,0,0,1,8.75,6.55Z"/><path class="cls-1" d="M1166,1357.19v29.3h-3.5v-2.55h-13.3v15.6h-3.45v-15.6h-13.4v2.75H1129v-29.5Zm-33.65,3.2V1369h13.4v-8.65Zm13.4,20.35v-8.5h-13.4v8.5Zm16.75-20.35h-13.3V1369h13.3Zm0,20.35v-8.5h-13.3v8.5Z"/><path class="cls-1" d="M1168.25,1419.09v9.3h-3.15V1422h-35.4v6.4h-3v-9.3h6.95v-12.95h27.7v12.95Zm-6.45,26.6c0,1.85-.45,2.7-1.85,3.2s-3.9.5-7.7.45a8.57,8.57,0,0,0-1.1-2.75c3,.05,5.65.05,6.4.05s1-.25,1-1v-6.2c-7.3,1.45-14.85,3-20.45,4l-1.1-3c5.4-.8,13.6-2.3,21.55-3.75V1428h-22.2v5.3c0,4.85-.65,11.55-4.35,16.2a13.29,13.29,0,0,0-2.7-2c3.45-4.25,3.85-10,3.85-14.25v-8h28.6Zm-25-26.6h7.45v-6.9H1158v-3.35h-21.2Zm2.45,11.7a75.14,75.14,0,0,1,17.7,3l-.9,2.6c-4-1.5-11.7-2.9-17.7-3.35Zm18.75-16.3h-10.75v4.6H1158Z"/><path class="cls-1" d="M1162,1466.09a51.83,51.83,0,0,1-12,19.6,49.94,49.94,0,0,0,20.5,10.5,16.79,16.79,0,0,0-2.25,3,50.92,50.92,0,0,1-20.75-11.1c-5.65,5-12.55,8.6-21,11.3a15.53,15.53,0,0,0-2-3.05c8.35-2.45,15.1-5.9,20.6-10.6a57.05,57.05,0,0,1-12.2-19.65h-7.75v-3.25h44.75v3.25Zm-25.75,0a52.13,52.13,0,0,0,11.3,17.3,47.46,47.46,0,0,0,10.7-17.3Zm11.25-3.55a38.13,38.13,0,0,0-3.8-7.8l3.4-1a39,39,0,0,1,4,7.65Z"/></svg>