<svg id="Layer_1" data-name="Layer 1" xmlns="http://www.w3.org/2000/svg" viewBox="0 0 1242 2208"><defs><style>.cls-1{fill:#f6eabe;}.cls-2{fill:#999;}.cls-3,.cls-4{fill:none;}.cls-4{stroke:#000;stroke-linecap:round;stroke-miterlimit:10;stroke-width:50px;}</style></defs><rect class="cls-1" width="1242" height="2208"/><path d="M960.12,765.38V817H253.47v-51.6H578.21V513.68H328.1v-52.4H578.21V235H294.76V183.38H918.83V235H633V461.28H891.84v52.4H633v251.7Z"/><rect class="cls-2" x="1113" y="436" width="65" height="126" rx="12"/><path class="cls-1" d="M1132.7,465.82c1.25,1.6,4.9,6.7,5.7,8.05l-2,2.45c-.7-1.5-2.35-4.4-3.75-6.65V496h-3.15V471.57c-1.5,5.05-3.5,9.9-5.55,12.85a14.83,14.83,0,0,0-1.75-3.1c2.9-4,5.8-11.5,7.2-18h-6.2v-3.15h6.3v-9.65h3.15v9.65h5.45v3.15h-5.45Zm19.1.7a19.47,19.47,0,0,0,.45,2.65c-10.15,2.7-11.6,3.15-12.5,3.75a12.13,12.13,0,0,0-1.1-3.2c.7-.2,1.55-.5,1.55-2.2v-16.7h3.25v6.5h8.35v2.9h-8.35v8.3Zm2.35,5.5-2,3.75h12.65V496h-3.4v-1.75h-17v2h-3.3V475.77h7.9c.55-1.5,1.2-3.25,1.55-4.6Zm7.3,6.5h-17v5.05h17Zm0,13v-5.3h-17v5.3Zm2.25-22.4c1.25,0,1.5-.75,1.65-5.25a9.16,9.16,0,0,0,2.85,1.25c-.3,5.45-1.2,6.95-4.15,6.95h-5.85c-3.65,0-4.55-.95-4.55-4.45V450.87h3.25v6.5h10.2v2.9h-10.2v7.35c0,1.3.25,1.5,1.65,1.5Z"/><path class="cls-1" d="M1167.55,525.87v2.5H1123.4v-2.5h20.25v-3.2H1126.8v-2.3h16.85v-3H1128.2v-2.25h15.45v-3.2H1123.5v-2.5h20.15v-3.05H1128.8V504h14.85v-3.55h3.25V504h14.45v5.4h6.15v2.5h-6.15v5.45H1146.9v3h17.3v2.3h-17.3v3.2Zm-37.75,5h31.75v15.25h-3.25v-1.6H1133v1.7h-3.2Zm3.2,2.4v3.2h25.3v-3.2Zm25.3,8.85v-3.4H1133v3.4Zm-11.4-32.7h11.15v-3.05H1146.9Zm0,5.7h11.15v-3.2H1146.9Z"/><path d="M324.92,1881.69a98.85,98.85,0,0,1-6.18,13.56v39.59H314.9v-33.35a61.73,61.73,0,0,1-5.46,7,32.86,32.86,0,0,0-2.28-3.9c5.58-5.87,10.8-14.87,14-24Zm34.2,29.21c-2,1.38-4.44,2.7-6.84,4,2,5.82,5.82,11.16,10.62,13.62a15.86,15.86,0,0,0-2.64,3.06c-4.92-3-8.76-8.76-10.86-15.3-1,.54-2.1,1-3.12,1.5,2.1,6.3,1.26,12.72-1.38,15.24a6.51,6.51,0,0,1-5,1.92c-1,0-2.4-.06-3.72-.12a9.47,9.47,0,0,0-1-3.48,34.56,34.56,0,0,0,4,.24,3.38,3.38,0,0,0,3-1.14c1.44-1.32,2.1-4.86,1.44-8.94a58.72,58.72,0,0,1-19.5,11.4,11.72,11.72,0,0,0-2.34-2.82c7.44-2.22,16.26-7,21.12-11.82a24.37,24.37,0,0,0-1.62-3.66,57.71,57.71,0,0,1-16.74,9.66,16.14,16.14,0,0,0-2.22-2.64c5.82-1.74,13.38-5.58,17.52-9.3a16.53,16.53,0,0,0-2.82-3,39.59,39.59,0,0,1-12.3,6.17,14.66,14.66,0,0,0-2.28-2.58c6.54-2.1,10.86-4.62,13.68-7.26h-9.54v-9.35c-1.08,1-2.22,1.92-3.42,2.88a9.81,9.81,0,0,0-2.64-2.53,45.41,45.41,0,0,0,13.92-16.25l3.84.72a35.7,35.7,0,0,1-2,3.54h11.1l.78-.18,2.34,1.68a52.13,52.13,0,0,1-4.8,6.84h13v12.65H340.7a15.52,15.52,0,0,1-1.38,1.63,22.17,22.17,0,0,1,6,7.85,120.47,120.47,0,0,0,11.1-6.66Zm-25-23.09a54.58,54.58,0,0,1-4.2,5.16h11.58a33.35,33.35,0,0,0,3.72-5.16Zm-4,14.69h8.64a15.14,15.14,0,0,0,2.46-6.42h-11.1Zm24.72-6.42H344.6a18.56,18.56,0,0,1-1.8,6.42h12.06Z"/><path d="M422.36,1904.91v4.31H367.88v-4.31Z"/><path d="M447,1910.42c-2.52.79-5,1.56-7.44,2.28v17.58c0,2.28-.54,3.3-1.92,4s-3.48.78-6.9.72a15.61,15.61,0,0,0-1.26-3.66c2.4.06,4.56.06,5.16,0s1-.24,1-1V1913.9l-7.08,2.16-1.14-3.89c2.28-.55,5.1-1.39,8.22-2.29v-13.55H428.3v-3.78h7.38v-12.18h3.9v12.18h6.36v3.78h-6.36v12.42l6.9-2.11Zm27.24,19.2c3.72,0,4.32-1.8,4.86-9a11.1,11.1,0,0,0,3.78,1.62c-.66,8.34-2,11.16-8.58,11.16h-16c-6.84,0-8.94-1.56-8.94-8v-41.93h30.06v31.25H475.4v-4h-22v14.76c0,3.3.84,4.14,5.1,4.14Zm-20.82-42.17v19.49h9.06v-19.49Zm22,0h-9.24v19.49h9.24Z"/><path d="M494.84,1890.93a39.76,39.76,0,0,1-5.34,7.8,19.15,19.15,0,0,0-2.16-3.66c3.36-3.54,6.12-9,7.74-14.58l3.6,1a37.48,37.48,0,0,1-2.22,5.94h11.1v3.54Zm12.78,30.23c.3,1,.84,2.52,1.2,3.36-10.68,7.38-12.18,8.58-13,9.66a13.2,13.2,0,0,0-2-3.54,5.88,5.88,0,0,0,2.82-4.86v-12.11h-7.86v-3.61h7.86v-8.52h-5.16v-3.66h14.46v3.66H500.3v8.52h7.62v3.61H500.3V1926Zm29.76-33.83a35.36,35.36,0,0,1-9.36,12.05,45.66,45.66,0,0,0,15.42,6.49A16.86,16.86,0,0,0,541,1909a46.17,46.17,0,0,1-15.9-7.37,55.46,55.46,0,0,1-16.5,7.85,11.33,11.33,0,0,0-2-3,49,49,0,0,0,15.66-7.08,39.45,39.45,0,0,1-6-6.65,36.57,36.57,0,0,1-5.64,5,18.37,18.37,0,0,0-2.58-2.77,37.13,37.13,0,0,0,12.54-14.63l3.48,1a48.75,48.75,0,0,1-2.7,4.92h12.9l.72-.18Zm-10.5,37.13H540.8v3.18H526.88v7.26H523v-7.26H509.42v-3.18H523V1920H512.12V1917H523v-4.14H511.46v-3.11H523v-4.38h3.9v4.38h11.7v3.11h-11.7V1917H538V1920h-11.1Zm-8.22-34.37a29.34,29.34,0,0,0,6.48,7.2,30.9,30.9,0,0,0,7.08-7.74H519Z"/><path d="M597.26,1889.13c-.9,30-1.8,40.19-4.32,43.25a6.06,6.06,0,0,1-4.86,2.52,75.41,75.41,0,0,1-9.48-.18,10,10,0,0,0-1.38-4.14c4.2.36,8,.42,9.42.42a3,3,0,0,0,2.64-1c2-2.22,3.06-12.42,3.9-39.29H575.9c-.9,14.33-3.48,34.73-24.42,44.27a15.53,15.53,0,0,0-2.88-3.18c20.34-8.7,22.26-28.07,23-41.09H550.76v-3.84h46.5Zm-37.08,9.6c-1.2,6.53-3.36,13.67-8.28,17.81l-3.12-2.28c4.56-3.66,6.84-10.19,7.92-16.49Z"/><path d="M659.12,1929.44c0,2.76-.66,4.14-2.64,4.86s-5.76.66-11.22.66a15.26,15.26,0,0,0-1.5-4.08c4.5.18,8.64.12,9.9.06s1.5-.36,1.5-1.5v-34.86h-40V1935h-4v-44.27h16.5a99,99,0,0,0,3.9-10.5l4.86.84c-1.38,3.18-2.94,6.78-4.44,9.66h27.12Zm-32.1-7v4.32h-3.66v-23.93H646.7v19.61Zm0-16v12.42h16v-12.42Z"/><path d="M696,1888.71v10.86l.66-.78c7.32,3.54,16.74,8.93,21.54,12.53l-2.76,3.6c-4.2-3.42-12.48-8.46-19.44-12.12v32.1h-4.2v-46.19H668.54v-4h53v4Z"/><path d="M744,1881c-1,2.94-2.1,6.3-3.18,8.88H751v38.75h-16.8v4.8h-3.66v-43.55h6.66a64.68,64.68,0,0,0,2.58-9.72Zm3.3,12.47H734.18v13.08h13.14Zm0,31.56v-14.88H734.18v14.88Zm33.06-33.17c-1,27.53-1.8,36.71-4.2,39.59a5.6,5.6,0,0,1-4.56,2.28,74.94,74.94,0,0,1-8.82-.12,9.42,9.42,0,0,0-1.32-3.9c3.9.36,7.5.36,8.82.36s1.92-.12,2.52-.9c2-2.1,2.94-11.34,3.72-35.7H760.82a55.33,55.33,0,0,1-5.64,10.68,36.22,36.22,0,0,0-3.36-2.22c4.08-5.34,7.32-13.61,9.18-21.89l3.84.84c-.78,3-1.62,6-2.64,8.88h18.18Zm-12.78,27a106.51,106.51,0,0,0-9.3-13.92l3.06-1.79a102.47,102.47,0,0,1,9.6,13.61Z"/><path d="M837.5,1893c-2-1.44-5.1-3.42-8.4-5.4a37.87,37.87,0,0,1-9.48,7.8,96.48,96.48,0,0,0,22.92,5.75,17,17,0,0,0-2.28,3.42,91.63,91.63,0,0,1-24.54-7.08c-7.5,3.66-16.26,6-25.08,7.68a29.54,29.54,0,0,0-2.52-3.47,95.58,95.58,0,0,0,23.58-6.25,45.62,45.62,0,0,1-9.06-6.47,76,76,0,0,1-8.34,4.5,31.8,31.8,0,0,0-2.82-3c5.76-2.28,12.36-6.06,16.26-9.84l3.66,1.38a44.93,44.93,0,0,1-5.94,5,38.6,38.6,0,0,0,10.08,6.6,33.91,33.91,0,0,0,10.14-7.86c-1.8-1-3.48-1.86-5.1-2.64l2.64-2.4a136.15,136.15,0,0,1,17,9.54Zm-35,21.89h37v3.6H825.62v16.14h-4v-16.14H802.22a22.52,22.52,0,0,1-9.3,16.62,18.51,18.51,0,0,0-3-2.64c7.62-5.7,8.58-12.9,8.58-18.36v-6.83c11.34-.91,24.3-2.53,31.68-4.15l3.3,2.94a255.1,255.1,0,0,1-31,4.14v4.68Z"/><path d="M860,1881.51a51,51,0,0,1-2.52,5.88H869v3.72H855.44a44,44,0,0,1-5.94,7.56,20.07,20.07,0,0,0-2.16-3.67,36.65,36.65,0,0,0,9.06-14.51Zm1,28.55h8v3.61h-8v13.67l7.14-3.48a21,21,0,0,0,.72,3.3c-10.32,5.58-11.88,6.42-12.84,7.38a14.75,14.75,0,0,0-1.68-3.9,4.18,4.18,0,0,0,2.76-3.9v-13.07H848.6v-3.61h8.46v-8.52H851.3v-3.66h16.2v3.66H861Zm39.12-9.06c-1.44,8.83-3.72,16.14-7.2,22.14,1.44,5.1,3,7.56,4.56,7.56,1.14,0,1.8-1.92,2.16-8.82a7.1,7.1,0,0,0,2.94,2c-.66,8.94-2,10.5-5.4,10.56-2.7,0-4.92-2.52-6.72-7.56a40.39,40.39,0,0,1-8.46,8.46,24.79,24.79,0,0,0-2.94-2.52,32.89,32.89,0,0,0,10.08-10.26c-1.5-6.42-2.64-15.29-3.3-26.51h-9.72v28.79l7.08-4.08a20,20,0,0,0,.9,3.3c-10.44,6.48-12,7.5-13,8.52a14.5,14.5,0,0,0-1.8-3.78,4.82,4.82,0,0,0,2.88-4.2v-32.27h13.44c-.18-3.78-.36-7.74-.42-12H889c0,4.32.06,8.28.24,12h13V1896H889.34a172.54,172.54,0,0,0,2.34,21.77,65.9,65.9,0,0,0,4.8-17.27Zm-2.64-10.07a85.66,85.66,0,0,0-5.94-8.28l2.82-1.44c2,2.52,4.68,5.94,6,8Z"/><path d="M909,1933.7c4.68-2,7.26-4.92,7.56-9.18a7.35,7.35,0,0,1-1.14.12c-2.34,0-4.26-1.38-4.26-4.08a4,4,0,0,1,4.32-4.14c3.18,0,4.86,2.64,4.86,6.66,0,6.48-4,11.28-10.08,13.44Z"/><path d="M162.5,1965c-2-1.44-5.1-3.42-8.4-5.4a37.87,37.87,0,0,1-9.48,7.8,96.48,96.48,0,0,0,22.92,5.75,17,17,0,0,0-2.28,3.42,91.63,91.63,0,0,1-24.54-7.08c-7.5,3.66-16.26,6-25.08,7.68a29.54,29.54,0,0,0-2.52-3.47,95.58,95.58,0,0,0,23.58-6.25,45.62,45.62,0,0,1-9.06-6.47,76,76,0,0,1-8.34,4.5,31.8,31.8,0,0,0-2.82-3c5.76-2.28,12.36-6.06,16.26-9.84l3.66,1.38a44.93,44.93,0,0,1-5.94,5,38.6,38.6,0,0,0,10.08,6.6,33.91,33.91,0,0,0,10.14-7.86c-1.8-1-3.48-1.86-5.1-2.64l2.64-2.4a136.15,136.15,0,0,1,17,9.54Zm-35,21.89h37v3.6H150.62v16.14h-4v-16.14H127.22a22.52,22.52,0,0,1-9.3,16.62,18.51,18.51,0,0,0-3-2.64c7.62-5.7,8.58-12.9,8.58-18.36v-6.83c11.34-.91,24.3-2.53,31.68-4.15l3.3,2.94a255.1,255.1,0,0,1-31,4.14v4.68Z"/><path d="M185,1953.51a51,51,0,0,1-2.52,5.88H194v3.72H180.44a44,44,0,0,1-5.94,7.56,20.07,20.07,0,0,0-2.16-3.67,36.65,36.65,0,0,0,9.06-14.51Zm1,28.55h8v3.61h-8v13.67l7.14-3.48a21,21,0,0,0,.72,3.3c-10.32,5.58-11.88,6.42-12.84,7.38a14.75,14.75,0,0,0-1.68-3.9,4.18,4.18,0,0,0,2.76-3.9v-13.07H173.6v-3.61h8.46v-8.52H176.3v-3.66h16.2v3.66H186Zm39.12-9.06c-1.44,8.83-3.72,16.14-7.2,22.14,1.44,5.1,3,7.56,4.56,7.56,1.14,0,1.8-1.92,2.16-8.82a7.1,7.1,0,0,0,2.94,2c-.66,8.94-2,10.5-5.4,10.56-2.7,0-4.92-2.52-6.72-7.56a40.39,40.39,0,0,1-8.46,8.46,24.79,24.79,0,0,0-2.94-2.52,32.89,32.89,0,0,0,10.08-10.26c-1.5-6.42-2.64-15.29-3.3-26.51h-9.72v28.79l7.08-4.08a20,20,0,0,0,.9,3.3c-10.44,6.48-12,7.5-13,8.52a14.5,14.5,0,0,0-1.8-3.78,4.82,4.82,0,0,0,2.88-4.2v-32.27h13.44c-.18-3.78-.36-7.74-.42-12H214c0,4.32.06,8.28.24,12h13V1968H214.34a172.54,172.54,0,0,0,2.34,21.77,65.9,65.9,0,0,0,4.8-17.27Zm-2.64-10.07a85.66,85.66,0,0,0-5.94-8.28l2.82-1.44c2,2.52,4.68,5.94,6,8Z"/><path d="M262.46,2001.62a70.7,70.7,0,0,0,7.38.36c2.1.06,14.76,0,17.58-.06a16.36,16.36,0,0,0-1.44,3.84H269.72c-12.3,0-19.92-1.92-24.72-10.38a31.55,31.55,0,0,1-9.48,11.7,19.84,19.84,0,0,0-3.06-2.82c6.3-4.14,10.2-10.92,11.82-19.86l4,.6a55.92,55.92,0,0,1-1.5,6.06c2.34,5.64,6.3,8.52,11.7,9.84v-18.54H233.72v-3.6H286.4v3.6H262.46v7.08h20v3.6h-20Zm17.22-27.17h-39.6v-19.56h39.6Zm-4-16.44H244v5.16h31.68Zm0,8.1H244v5.27h31.68Z"/><path d="M345.8,1996.88H324V2007h-4v-10.08H294.74v-3.72h25.32v-7.8h-11.4c-3.54,0-5.46.31-6.06.84a26.66,26.66,0,0,0-1.32-3.84c1.08-.24,2-1.8,3.36-3.9.66-1.08,2-3.66,3.66-7h-7.38V1968h8.94a52.94,52.94,0,0,0,2.82-7.49l4.08,1.26c-.84,2-1.68,4.2-2.64,6.23H339v3.54H312.44a84.85,84.85,0,0,1-5.7,10.26h13.32v-7.26h4v7.26H340.7v3.6H324v7.8H345.8Zm-47.1-29.69h-3.84v-12.3h50.4v12.3h-4v-8.76H298.7Z"/><path d="M374.6,1986.44c-1.38-2.22-5-7.19-7.56-10.56v31h-3.9v-31c-2.4,7.74-5.82,15.54-9.36,20a17.76,17.76,0,0,0-2.34-3.84c4.2-5,8.46-14.7,10.56-23.16h-9v-3.77h10.14v-12.84H367v12.84h8.16v3.77H367v2.41c2,2,8.64,9.84,10.08,11.57Zm31.26-27.89c-2.1,14.1-6.54,25-12.6,33.11a54.85,54.85,0,0,0,14.58,12.42,9.76,9.76,0,0,0-2.82,3.24,59,59,0,0,1-14.34-12.42,47.32,47.32,0,0,1-16.2,12.06,12.79,12.79,0,0,0-2.46-3.3,43,43,0,0,0,16.26-12c-5.4-7.91-8.52-17.45-10.68-29.87h-2.28V1958h27.36l.72-.18Zm-24.6,3.24c1.92,11,4.86,19.55,9.6,26.57,4.92-6.84,8.7-15.71,10.68-26.57Z"/><path d="M429,1953c-1,2.94-2.1,6.3-3.18,8.88H436v38.75h-16.8v4.8h-3.66v-43.55h6.66a64.68,64.68,0,0,0,2.58-9.72Zm3.3,12.47H419.18v13.08h13.14Zm0,31.56v-14.88H419.18v14.88Zm33.06-33.17c-1,27.53-1.8,36.71-4.2,39.59a5.6,5.6,0,0,1-4.56,2.28,74.94,74.94,0,0,1-8.82-.12,9.42,9.42,0,0,0-1.32-3.9c3.9.36,7.5.36,8.82.36s1.92-.12,2.52-.9c2-2.1,2.94-11.34,3.72-35.7H445.82a55.33,55.33,0,0,1-5.64,10.68,36.22,36.22,0,0,0-3.36-2.22c4.08-5.34,7.32-13.61,9.18-21.89l3.84.84c-.78,3-1.62,6-2.64,8.88h18.18Zm-12.78,27a106.51,106.51,0,0,0-9.3-13.92l3.06-1.79a102.47,102.47,0,0,1,9.6,13.61Z"/><path d="M521.18,1981.1c-2.52,1.68-5.52,3.48-8.58,5.1,2.52,5.28,7.26,11.28,14.22,14.16a13.37,13.37,0,0,0-2.64,3.42c-7.14-3.54-12.12-10.38-14.7-16-1.14.6-2.4,1.2-3.54,1.74,3.06,6.36,2.1,12.54-1.92,15.12a10.18,10.18,0,0,1-6.12,1.74c-1.38,0-3.24-.06-5.16-.18a10.77,10.77,0,0,0-1.14-3.66,52.84,52.84,0,0,0,5.58.3,6.77,6.77,0,0,0,4.32-1.08c2.46-1.56,3.24-5.52,1.38-10-6.6,5.1-16.86,9.72-25.08,12.06a15,15,0,0,0-2.4-3.06c9-2.1,20-6.84,26.1-11.88a30.64,30.64,0,0,0-2.52-3.36c-5.34,3.9-13.8,7.5-20.4,9.3a14.61,14.61,0,0,0-2.34-2.82c7-1.62,15.66-5,20.64-8.58a40.11,40.11,0,0,0-4.26-3.36,58.4,58.4,0,0,1-16.32,7.08,14,14,0,0,0-2-3,51.87,51.87,0,0,0,16.26-6.48H479.78v-9.83c-1.2.83-2.4,1.55-3.72,2.33a14.34,14.34,0,0,0-2.64-2.75c8-4.32,14.16-10.32,17.4-15.24l4.2.84c-.84,1.2-1.68,2.28-2.7,3.48h13.56l.66-.24,2.7,1.8a39.73,39.73,0,0,1-4.74,6.48h16.2v13.13H495.86l-.48.42a30.06,30.06,0,0,1,9.12,8.88,101.82,101.82,0,0,0,13.5-8.21Zm-26.64-6.6a25.27,25.27,0,0,0,5.28-6.83H483.56v6.83Zm-5.1-14.87a59.64,59.64,0,0,1-5.28,4.86h15.66a38,38,0,0,0,3.84-4.86Zm27.36,8H503.66a28.09,28.09,0,0,1-4.56,6.83h17.7Z"/><path d="M549.92,1967.12a68.61,68.61,0,0,1-4.92,7.56V2007h-4v-27.42a66,66,0,0,1-6.66,6.48,23.3,23.3,0,0,0-2.22-3.84,55.27,55.27,0,0,0,14.28-16.37Zm-.9-13.19a57.2,57.2,0,0,1-14,14.22,20,20,0,0,0-2.1-3.24c4.62-3.06,9.78-8.1,12.3-12.42Zm38.46,47.57v3.84h-38.4v-3.84h6.06v-28.92H559v28.92h8.82v-40.79H552.86v-3.78h32.58v3.78H571.76v17.46h12.72v3.71H571.76v19.62Z"/><path d="M594,2005.7c4.68-2,7.26-4.92,7.56-9.18a7.35,7.35,0,0,1-1.14.12c-2.34,0-4.26-1.38-4.26-4.08a4,4,0,0,1,4.32-4.14c3.18,0,4.86,2.64,4.86,6.66,0,6.48-4,11.28-10.08,13.44Z"/><path d="M674.9,1954.83v52.07h-3.84V2004H628.94v2.94h-3.72v-52.07Zm-3.84,45.65v-42H628.94v42Zm-19.68-25.56c-.18,1.08-.36,2.1-.6,3.12,6.3,5.46,13.2,12.72,16.5,17.52l-2.88,2.4c-2.94-4.44-8.88-11-14.52-16.32-2.28,7.26-6.42,13.08-14.58,16.86a10.68,10.68,0,0,0-2.52-3.12c9.54-4.2,13.2-11.46,14.7-20.46H632.6v-3.66H648c.36-3.18.54-6.59.66-10.13h3.9c-.18,3.54-.36,6.9-.72,10.13H667.4v3.66Z"/><path d="M703,1998.44c2.94-.54,5.94-1.08,8.82-1.62l.3,4c-10.14,2-21,4-28.5,5.4l-.66-4.32c1.44-.24,3.18-.48,4.92-.84v-36.65h3.84v36.05l7.26-1.26v-46.79h4v18.54h8.82v3.84H703Zm27.84,2.7c2.64,0,3.06-2.22,3.36-10.8a14.5,14.5,0,0,0,3.78,1.8c-.48,9.54-1.62,12.84-6.84,12.84h-9.36c-5.34,0-6.84-1.62-6.84-7.74v-44.87h4.14v22.13a74.66,74.66,0,0,0,13.5-9l3.3,3.12a115.82,115.82,0,0,1-16.8,10v18.84c0,3.12.48,3.78,3.12,3.78Z"/><path d="M792.92,2001.32c0,2.76-.78,4-2.64,4.68s-5.46.72-11.1.66a12.92,12.92,0,0,0-1.38-3.84c4.32.18,8.4.12,9.6.06s1.56-.42,1.56-1.56v-12.78H772.22v17.94h-4v-17.94H752.78c-.9,6.72-2.88,13.56-7.56,18.78a11.58,11.58,0,0,0-3-2.64c6.6-7.44,7.26-18,7.26-26.46v-21.59h43.44Zm-24.66-16.56v-10.5H753.38v4c0,2.11-.06,4.26-.24,6.54Zm-14.88-24.35v10.13h14.88v-10.13Zm35.58,0H772.22v10.13H789Zm0,24.35v-10.5H772.22v10.5Z"/><path d="M834.92,1982.67c5.58,7.49,14.64,14.93,22.86,18.53a18.72,18.72,0,0,0-2.76,3.3c-8.16-4-17.1-11.7-23-19.92V2007H827.9v-22.2a67.14,67.14,0,0,1-22.68,19.56,18.62,18.62,0,0,0-2.82-3.3c8.22-3.54,17.22-10.86,22.68-18.35H803.6v-3.79h24.3v-15.35H806.48v-3.84H827.9v-7.26H832v7.26h22v3.84H832v15.35h24.48v3.79Zm-20-17.52a41.63,41.63,0,0,1,5.82,11.34L817,1978a47.17,47.17,0,0,0-5.52-11.52ZM839.36,1977a74.6,74.6,0,0,0,6.18-12.11l4.14,1.38a113.47,113.47,0,0,1-7,11.94Z"/><path d="M882.92,1954.17a83.4,83.4,0,0,1-6.6,12.3v40.37h-4v-34.67a66.33,66.33,0,0,1-8.4,9.17,25.86,25.86,0,0,0-2.34-3.78A67.69,67.69,0,0,0,879.2,1953Zm15.72,20.16c2.16,16.25,6.24,27.41,13,28,1.68.12,2.76-3.48,3.42-10.5a13,13,0,0,0,3.3,2c-1.26,10.08-3.48,13.26-6.6,13.14-9.9-.72-14.58-13.38-16.92-32.21l-14.88,1.92-.6-3.79,15-1.85c-.54-5.53-1-11.52-1.26-17.82h4c.18,6.12.6,12,1.14,17.33l18.18-2.21.6,3.66Zm14.1-8.76a64.7,64.7,0,0,0-10-9.9l2.88-1.86a68.6,68.6,0,0,1,10.14,9.54Z"/><path d="M974.12,1984a100.84,100.84,0,0,1-11.7,8.58,36.22,36.22,0,0,0,15.3,8.76,24.16,24.16,0,0,0-2.64,3.48c-12.3-4.08-20.82-13.2-25.38-25.61h-.18a53.79,53.79,0,0,1-9.6,8V2001l14.88-4.5a18.38,18.38,0,0,0,.6,3.42c-16.62,5.4-18.66,6.12-20,7a14.6,14.6,0,0,0-1.74-3.66,3.9,3.9,0,0,0,2.16-3.78v-9.72a71.36,71.36,0,0,1-10.68,5.1,19.48,19.48,0,0,0-2.64-3.24,62.5,62.5,0,0,0,21.9-12.41H924.2v-3.54h23.7v-5.64H929.54v-3.36H947.9v-5.4H926.54v-3.48H947.9v-5.52h4v5.52h22v3.48h-22v5.4h19.32v3.36H951.92v5.64H975.8v3.54H953.54a38.86,38.86,0,0,0,6.6,11,80.68,80.68,0,0,0,10.74-8.46Z"/><path d="M1002.68,1979.48a51.27,51.27,0,0,1-4.08,6.48h33.06v21.12h-4.14v-3H1000v3.06h-4v-18a42.13,42.13,0,0,1-11,8.76,32.58,32.58,0,0,0-2.52-3.18,39.12,39.12,0,0,0,15.66-15.24h-9V1976H1000a63.23,63.23,0,0,0,2.82-7H983.42v-3.54h20.46c.54-2.21,1.08-4.55,1.56-6.83H989.78v-3.48h40.38v10.31h6.54V1969h-6.54v10.44Zm-2.64,10v11h27.48v-11Zm6.9-20.46a52.62,52.62,0,0,1-2.64,7h21.78v-7Zm2.7-10.37c-.48,2.28-1,4.62-1.62,6.83h18.06v-6.83Z"/><path d="M1096.76,2000.42v3.9h-53.4v-3.9h24.54v-19H1049v-4h18.9v-17.1h-21.42v-3.9h47.16v3.9H1072v17.1h19.56v4H1072v19Z"/><path d="M1121.36,1996.88a9,9,0,1,1-9.06-9A9,9,0,0,1,1121.36,1996.88Zm-2.82,0a6.21,6.21,0,1,0-6.24,6.24A6.22,6.22,0,0,0,1118.54,1996.88Z"/><line class="cls-3" x1="621" y1="350" x2="621" y2="350"/><rect class="cls-2" x="1114" y="1241" width="65" height="271" rx="12"/><path class="cls-1" d="M1159.05,1280.79a27.61,27.61,0,0,0,11.5,8.1,11.65,11.65,0,0,0-2.15,2.55,30.77,30.77,0,0,1-12.8-10.65h-15.95a34.39,34.39,0,0,1-13,11.3,11.43,11.43,0,0,0-2.15-2.55,30.39,30.39,0,0,0,11.6-8.75H1125v-2.85h10v-16.15h-7.7V1259h7.7v-5h3.3v5h18.55v-5h3.35v5h7.65v2.8h-7.65v16.15h9.8v2.85Zm-10,14.5h17.3v2.85H1128.8v-2.85h16.9v-5.6h-10.45v-2.8h10.45v-4.4h3.35v4.4h10.65v2.8h-10.65Zm-10.8-33.5v3.6h18.55v-3.6Zm0,9.8h18.55v-3.65h-18.55Zm0,6.35h18.55v-3.8h-18.55Z"/><path class="cls-1" d="M1143.25,1322.54s0,1.15,0,1.55c-.6,15.85-1.2,21.2-2.6,23a3.71,3.71,0,0,1-2.8,1.45,32.65,32.65,0,0,1-4.45,0,9.25,9.25,0,0,0-.85-3c1.75.15,3.2.15,3.9.15a1.42,1.42,0,0,0,1.45-.65c1-1.2,1.6-6,2.15-19.35h-6.8c-.55,10-2,18.25-6.45,23.65a9.53,9.53,0,0,0-2.55-2.35c5.45-6.45,5.9-17.85,6.1-31.55h-5.2v-3.1h20.1v3.1h-11.65c0,2.45-.1,4.85-.2,7.15Zm-7.9-10.45a33.47,33.47,0,0,0-4.25-7.15l2.9-1.15a31.92,31.92,0,0,1,4.4,7Zm23.85-7.45a15.26,15.26,0,0,1-.85,2.55c2.65,5.45,7.7,11.35,12.45,14a13,13,0,0,0-2.45,2.75c-4.25-2.7-8.5-8-11.4-13.3a32.61,32.61,0,0,1-11,13.6,12.79,12.79,0,0,0-2.35-2.65c5.85-3.6,10.35-10.2,12.5-17.85Zm-8.3,32.45a74,74,0,0,1,13.6,8.25l-2.25,2.9c-2.85-2.6-8.75-6.3-13.4-8.65Zm9.5-4.85a66.22,66.22,0,0,0-8.6-6.85l2.15-2.2a67.46,67.46,0,0,1,8.75,6.55Z"/><path class="cls-1" d="M1166,1357.19v29.3h-3.5v-2.55h-13.3v15.6h-3.45v-15.6h-13.4v2.75H1129v-29.5Zm-33.65,3.2V1369h13.4v-8.65Zm13.4,20.35v-8.5h-13.4v8.5Zm16.75-20.35h-13.3V1369h13.3Zm0,20.35v-8.5h-13.3v8.5Z"/><path class="cls-1" d="M1168.25,1419.09v9.3h-3.15V1422h-35.4v6.4h-3v-9.3h6.95v-12.95h27.7v12.95Zm-6.45,26.6c0,1.85-.45,2.7-1.85,3.2s-3.9.5-7.7.45a8.57,8.57,0,0,0-1.1-2.75c3,.05,5.65.05,6.4.05s1-.25,1-1v-6.2c-7.3,1.45-14.85,3-20.45,4l-1.1-3c5.4-.8,13.6-2.3,21.55-3.75V1428h-22.2v5.3c0,4.85-.65,11.55-4.35,16.2a13.29,13.29,0,0,0-2.7-2c3.45-4.25,3.85-10,3.85-14.25v-8h28.6Zm-25-26.6h7.45v-6.9H1158v-3.35h-21.2Zm2.45,11.7a75.14,75.14,0,0,1,17.7,3l-.9,2.6c-4-1.5-11.7-2.9-17.7-3.35Zm18.75-16.3h-10.75v4.6H1158Z"/><path class="cls-1" d="M1162,1466.09a51.83,51.83,0,0,1-12,19.6,49.94,49.94,0,0,0,20.5,10.5,16.79,16.79,0,0,0-2.25,3,50.92,50.92,0,0,1-20.75-11.1c-5.65,5-12.55,8.6-21,11.3a15.53,15.53,0,0,0-2-3.05c8.35-2.45,15.1-5.9,20.6-10.6a57.05,57.05,0,0,1-12.2-19.65h-7.75v-3.25h44.75v3.25Zm-25.75,0a52.13,52.13,0,0,0,11.3,17.3,47.46,47.46,0,0,0,10.7-17.3Zm11.25-3.55a38.13,38.13,0,0,0-3.8-7.8l3.4-1a39,39,0,0,1,4,7.65Z"/><line class="cls-4" x1="285" y1="1243.82" x2="935" y2="1243.82"/><line class="cls-4" x1="474.26" y1="1085.45" x2="745.74" y2="1085.45"/><line class="cls-4" x1="609.1" y1="1085.45" x2="382.85" y2="1592.23"/><line class="cls-4" x1="609.1" y1="1085.45" x2="837.15" y2="1592.23"/><path class="cls-4" d="M836.24,1592.86c-65.68,47.67-146,73.43-226.24,72.57"/><path class="cls-4" d="M383.76,1592.86c65.68,47.67,146,73.43,226.24,72.57"/></svg>