<svg id="Layer_1" data-name="Layer 1" xmlns="http://www.w3.org/2000/svg" viewBox="0 0 1242 2208"><defs><style>.cls-1{fill:#f6eabe;}.cls-2{fill:#999;}</style></defs><rect class="cls-1" width="1242" height="2208"/><path d="M398.74,529.65c0,101.63-13.49,238.2-97.66,329.51-8.73-8.74-27.79-24.62-39.7-29.38C340,744,349.52,623.34,349.52,528.86V303.36H570.25V142.18h52.4V205.7H895v43.67H622.65v54h293l7.94-1.59,36.52,9.53c-14.29,39.7-31.76,84.17-45.25,112.75l-45.26-11.91c7.94-17.47,15.88-41.29,24.61-64.31H398.74Zm186.59,90.52C583,773.41,559.13,834.54,412.24,867.89c-3.18-11.91-16.67-30.17-27-38.11C515.46,802,532.93,755.94,535.31,620.17Zm237.4-91.31c21.44,0,57.17-.8,73-4.77,1.59,14.29,4,32.56,5.56,44.47-13.5,4-45.26,4.76-75.43,4.76H649.64c-63.51,0-81-20.64-81-77V474.07L440,486.77l-4.76-42.08L568.66,431.2V362.91h50.81v62.73L825.12,404.2l4.76,42.08L619.47,468.51V497.1c0,23.82,5.56,31.76,31.76,31.76Zm92.9,279.48c26.2,0,31-11.91,34.14-101.63,11.12,7.15,31,14.29,45.26,18.26-5.56,102.43-19.85,125.45-74.63,125.45H810.82c-63.52,0-79.39-13.5-79.39-62.72V620.17h50V786.9c0,18.27,4.76,21.44,34.14,21.44Z"/><path d="M397.92,1896.69a98.85,98.85,0,0,1-6.18,13.56v39.59H387.9v-33.35a61.73,61.73,0,0,1-5.46,7,32.86,32.86,0,0,0-2.28-3.9c5.58-5.87,10.8-14.87,14-24Zm34.2,29.21c-2,1.38-4.44,2.7-6.84,4,2,5.82,5.82,11.16,10.62,13.62a15.86,15.86,0,0,0-2.64,3.06c-4.92-3-8.76-8.76-10.86-15.3-1,.54-2.1,1-3.12,1.5,2.1,6.3,1.26,12.72-1.38,15.24a6.51,6.51,0,0,1-5,1.92c-1,0-2.4-.06-3.72-.12a9.47,9.47,0,0,0-1-3.48,34.56,34.56,0,0,0,4,.24,3.38,3.38,0,0,0,3-1.14c1.44-1.32,2.1-4.86,1.44-8.94a58.72,58.72,0,0,1-19.5,11.4,11.72,11.72,0,0,0-2.34-2.82c7.44-2.22,16.26-7,21.12-11.82a24.37,24.37,0,0,0-1.62-3.66,57.71,57.71,0,0,1-16.74,9.66,16.14,16.14,0,0,0-2.22-2.64c5.82-1.74,13.38-5.58,17.52-9.3a16.53,16.53,0,0,0-2.82-3,39.59,39.59,0,0,1-12.3,6.17,14.66,14.66,0,0,0-2.28-2.58c6.54-2.1,10.86-4.62,13.68-7.25h-9.54v-9.36c-1.08,1-2.22,1.92-3.42,2.88a9.62,9.62,0,0,0-2.64-2.52,45.51,45.51,0,0,0,13.92-16.26l3.84.72a35.7,35.7,0,0,1-2,3.54h11.1l.78-.18,2.34,1.68a52.13,52.13,0,0,1-4.8,6.84h13v12.66H413.7a16.53,16.53,0,0,1-1.38,1.62,22.17,22.17,0,0,1,6,7.85,118.29,118.29,0,0,0,11.1-6.66Zm-25-23.09a54.58,54.58,0,0,1-4.2,5.16h11.58a33.35,33.35,0,0,0,3.72-5.16Zm-4,14.69h8.64a15.14,15.14,0,0,0,2.46-6.42h-11.1Zm24.72-6.42H417.6a18.56,18.56,0,0,1-1.8,6.42h12.06Z"/><path d="M454.26,1896.27a117.62,117.62,0,0,1-4.08,12v41.57h-3.42v-34.08a69.4,69.4,0,0,1-4.74,8,22,22,0,0,0-2.16-3.73c4.62-6.11,8.46-15.35,10.86-24.59Zm13.08,30.23c0,8-1.56,17.52-11.28,23.52a10.07,10.07,0,0,0-2.1-2.4c9.12-5.64,10.2-13.86,10.2-21.18v-19.86h3.18Zm-8.22,9.6h-3.3v-36.89h20V1936h-3.42v-33.77H459.12Zm10.2,1.5a87.57,87.57,0,0,1,7.86,9.78l-2.64,2a63.57,63.57,0,0,0-7.68-10.14Zm14.82-1H480.9v-35.51h3.24Zm8.94-40.79v49.37c0,2.28-.54,3.36-1.92,3.9s-3.72.72-7.8.72a16.5,16.5,0,0,0-1.08-3.48c3,.12,5.52.06,6.24.06s1.2-.3,1.2-1.2v-49.37Z"/><path d="M519.72,1932c-1.2-1.86-4-5.39-6.12-8.16V1950h-3.78v-23.88a50,50,0,0,1-7.26,6.72,13.15,13.15,0,0,0-1.92-3.78c6.24-4.26,12.72-11.94,16.32-19.67H502.08v-3.66h16.8l.72-.18,2.16,1.5a56.56,56.56,0,0,1-7.08,13.13c2.22,2.4,6.48,7.38,7.62,8.7Zm-6.48-26.93a38,38,0,0,0-5.58-7.8l3-1.8a31.39,31.39,0,0,1,5.82,7.5ZM549.48,1946c2.16,0,2.46-1.56,2.76-10.26a10.19,10.19,0,0,0,3.36,1.62c-.54,9.36-1.2,11.7-6.18,11.7h-5.7c-3.9,0-5.46-1-5.46-4.74v-12.6c-2.22,6.78-6.84,13.38-16.26,18.36a11,11,0,0,0-2.52-3c15-7.8,16.86-19.14,16.86-28.44v-12.06h3.84v12.18a43.59,43.59,0,0,1-1.08,10.14H542v15c0,1.68.48,2.1,2.22,2.1Zm-20.4-16h-3.84v-31.73h26.82V1930h-4v-28.19h-19Z"/><path d="M577,1896c-1,2.94-2.1,6.3-3.18,8.88H584v38.75h-16.8v4.8h-3.66v-43.55h6.66a64.68,64.68,0,0,0,2.58-9.72Zm3.3,12.47H567.18v13.08h13.14Zm0,31.56v-14.88H567.18v14.88Zm33.06-33.17c-1,27.53-1.8,36.71-4.2,39.59a5.6,5.6,0,0,1-4.56,2.28,74.94,74.94,0,0,1-8.82-.12,9.42,9.42,0,0,0-1.32-3.9c3.9.36,7.5.36,8.82.36s1.92-.12,2.52-.9c2-2.1,2.94-11.34,3.72-35.7H593.82a55.33,55.33,0,0,1-5.64,10.68,36.22,36.22,0,0,0-3.36-2.22c4.08-5.33,7.32-13.61,9.18-21.89l3.84.84c-.78,3-1.62,6-2.64,8.88h18.18Zm-12.78,27a106.51,106.51,0,0,0-9.3-13.92l3.06-1.79a102.47,102.47,0,0,1,9.6,13.61Z"/><path d="M663.48,1935c-1.32,3.3-2.82,7.08-4.32,10.14h15.42v3.66h-53v-3.66h33.66a74.49,74.49,0,0,0,4.2-11.1Zm7.62-36A38.92,38.92,0,0,1,660.72,1916a38.27,38.27,0,0,0,14.4,6.54,15.2,15.2,0,0,0-2.58,3.48,38.15,38.15,0,0,1-14.82-7.56,41.8,41.8,0,0,1-9.36,5.52,23.91,23.91,0,0,1,2.58,6.06h21.12v3.66H624.48V1930H647a25.39,25.39,0,0,0-2-4.74l-.48.18a10.68,10.68,0,0,0-2.16-3.42,39.06,39.06,0,0,0,12.6-6.23,39.51,39.51,0,0,1-8.46-14.1l.24-.06h-2.34v-3.54h23.58l.72-.18Zm-42.3,24.53h-3.66v-24.17h3.66Zm8,10.62a38.23,38.23,0,0,1,4,9.18l-3.9,1.14a35.06,35.06,0,0,0-3.72-9.24Zm3.24-8.39h-3.66v-29.1H640Zm10.08-24a32.26,32.26,0,0,0,7.68,11.82,33.46,33.46,0,0,0,8.4-11.82Z"/><path d="M734.52,1943.42v4h-53v-4h29a198.72,198.72,0,0,0,9.12-29.27l4.56.84c-2.64,9-6.18,20.69-9.42,28.43Zm-2.34-32.75H684v-4h48.18Zm-33.9,30c-.9-7-3.54-17.58-5.82-25.55l4-.9a209.86,209.86,0,0,1,6,25.43Zm8.58-34.85a61.85,61.85,0,0,0-2.94-9.66l3.84-1.08a70.16,70.16,0,0,1,3.12,9.54Z"/><path d="M749.88,1922.13c0,8.15-.84,19.79-5.7,27.77a15,15,0,0,0-3.36-2.1c4.74-7.56,5.16-18.12,5.16-25.67v-14.28h19.38v-12.48h4v4.8h20.46v3.36H769.32v4.32h21l.78-.24,2.94.89a61.37,61.37,0,0,1-3.66,9.13l-3.42-1.26a45.07,45.07,0,0,0,1.92-5.16H769.14v4.92l15.36-1.5.36,3-15.72,1.55v2.53c0,1.5.54,1.85,4.14,1.85h13c2.64,0,3.06-.6,3.36-4.68a10.45,10.45,0,0,0,3.36,1.2c-.48,5.4-1.74,6.67-6.36,6.67h-13.5c-6.24,0-7.8-1-7.8-5.11v-2l-12.12,1.2-.42-3.12,12.54-1.19v-5.28H749.88Zm38.4,23.15c1.8,0,2.1-.84,2.28-7.08a10.7,10.7,0,0,0,3.48,1.56c-.42,7.26-1.44,9.06-5.4,9.06H781c-4.56,0-5.82-1.08-5.82-5.28v-10H763.74v2.64c0,5.22-2.34,10.5-12.84,13.86a15.3,15.3,0,0,0-2.28-3.18c9.6-2.82,11.34-6.72,11.34-10.74V1930h19v13.5c0,1.5.36,1.74,2.4,1.74Z"/><path d="M826.56,1922.42V1950h-3.9v-27.54H812.4c-.18,10.08-1.74,20-8.88,27.9a15.89,15.89,0,0,0-2.94-2.7c6.54-7.2,7.86-16.14,8.1-25.2h-7.92v-3.71h8v-15.9h-7.08v-3.72h30.66v3.72h-5.76v15.9h6.54v3.71Zm-3.9-3.71v-15.9h-10.2v15.9Zm33.18,11.69c-5,8.16-13.68,15.36-23,19.62a14.41,14.41,0,0,0-2.82-3.24c9-3.66,17.58-10.38,22.08-17.82Zm-3.24-32.51c-4.32,5.46-11.16,10.74-17.16,14a15.73,15.73,0,0,0-2.88-2.75c5.76-2.88,12.6-8,16.32-12.78Zm1.8,16.37A65.72,65.72,0,0,1,836,1929.38a20.87,20.87,0,0,0-2.82-2.82c6.18-3.12,13.5-8.64,17.58-13.79Z"/><path d="M862,1948.7c4.68-2,7.26-4.92,7.56-9.18a7.35,7.35,0,0,1-1.14.12c-2.34,0-4.26-1.38-4.26-4.08a4,4,0,0,1,4.32-4.14c3.18,0,4.86,2.64,4.86,6.66,0,6.48-4,11.28-10.08,13.44Z"/><path d="M266.76,1979c-1.14,2.46-2.46,5-3.84,7.31h29.16v30.54c0,2.52-.6,3.72-2.46,4.38s-5.16.66-10.38.66a16.63,16.63,0,0,0-1.32-3.9c4.14.18,7.8.12,8.82.12s1.44-.42,1.44-1.32v-6.66H262.5V2022h-3.9V1992.5a50.45,50.45,0,0,1-10.32,10,18.28,18.28,0,0,0-2.58-3.06c7.26-5,12.84-12.41,16.74-20.45H247.08v-3.78h17a56.88,56.88,0,0,0,2.64-7.8l4,.9c-.72,2.34-1.5,4.62-2.4,6.9h30.78V1979Zm21.42,10.92H262.5v6.53h25.68Zm0,16.73v-6.72H262.5v6.72Z"/><path d="M358.08,2015.84v3.84H313.5v-49.25h43.26v3.84H317.58v10.07H353.1v20.1H317.58v11.4Zm-40.5-27.71v12.54H349v-12.54Z"/><path d="M415.26,1973.67v46.49H411v-4.86H375.06v5.16H371v-46.79ZM411,2011.28v-33.59H375.06v33.59Z"/><path d="M442.8,1985.37h11.76v3.71H442.8v4.44c2.64,2,9.66,8.22,11.52,9.84l-2.4,3.3c-1.8-2-6-6.06-9.12-8.94v24.12H439V1995c-3.24,7.2-7.68,14.34-11.88,18.54a20.76,20.76,0,0,0-2.16-3.72c4.86-4.56,10.2-13,13.14-20.76H426.24v-3.71H439v-10.62c-4,.72-8.1,1.38-11.88,1.86a10.36,10.36,0,0,0-1.26-3.18c8.82-1.26,19.44-3.3,25-5.7l3,3a65.55,65.55,0,0,1-11,3.18Zm16-11h3.9v32.81h-3.9Zm18.72-5.88v48c0,2.82-.84,4.08-2.58,4.74-1.92.66-5.16.78-10.62.72a19,19,0,0,0-1.5-4c4.32.12,8,.06,9.18.06s1.56-.42,1.56-1.56v-48Z"/><path d="M539.1,1995H525.42v21.6c0,2.76-.78,4-2.52,4.68-1.92.66-5,.78-10.2.72a18.52,18.52,0,0,0-1.56-4c4.08.12,7.68.12,8.76.06s1.44-.36,1.44-1.44v-21.29c-8,9.71-21.12,18.77-32.52,23.33a25.09,25.09,0,0,0-2.82-3.42c10.74-3.84,23.1-11.88,30.72-20.22H491.34c1.56-4.68,3.48-12.06,4.8-17.63l3.9.54c-1,4.14-2.34,9.11-3.54,13.25h24.84v-16.67H490.5v-3.84h45.78v3.84H525.42v16.67H539.1Z"/><path d="M545.7,2007.26l3.48-3.06a113.53,113.53,0,0,1,13.5,13.38L559,2020.7A97.41,97.41,0,0,0,545.7,2007.26Z"/><path d="M629.58,2011.88l-9.9.72V2022h-4.2v-9.06c-14.58,1.08-28.86,2-38.82,2.7l-.48-4.08,10.32-.6v-35.87h-9.42v-4h52v4h-9.42v33.71l10-.72Zm-38.94-36.83v9.12h24.84v-9.12Zm0,22.31h24.84v-9.48H590.64Zm0,13.32c7.62-.48,16.14-1,24.84-1.62v-7.92H590.64Z"/><path d="M635.7,2007.26l3.48-3.06a113.53,113.53,0,0,1,13.5,13.38L649,2020.7A97.41,97.41,0,0,0,635.7,2007.26Z"/><path d="M682.38,2017.1c0,2-.42,3.06-1.68,3.72s-3.12.72-6.42.66a13.62,13.62,0,0,0-1.08-3.48c2.34.06,4.32.06,4.92,0s.9-.18.9-1v-15.36h-7.56c-.42,7-1.38,14.52-3.54,20.28a11.35,11.35,0,0,0-2.88-1.68c3.18-8.52,3.42-20.52,3.42-29.28v-21.47h13.92ZM679,1998v-10.67h-7.26V1991c0,2.15,0,4.55-.12,7Zm-7.26-24.77v10.44H679v-10.44Zm26.52,26.51a68.55,68.55,0,0,1,4.44,15.48l-2.94,1.08a35.09,35.09,0,0,0-.66-3.72c-10.92,2-12.6,2.4-13.56,3a19.1,19.1,0,0,0-1.2-3.36c.84-.18,1.56-1.62,2.34-3.6a79.57,79.57,0,0,0,4-13.79h-6.48V1991h7.68v-9.66h-6.6v-3.78h6.6v-9.9h3.36v9.9h6.36v3.78h-6.36V1991h7.38v3.84h-8.34a100,100,0,0,1-5.16,16.13l9.3-1.44a80,80,0,0,0-2.88-9.06Zm20.22,7.74c0,2-.36,3.12-1.68,3.78s-3.24.78-6.06.78a16.45,16.45,0,0,0-1.26-3.78c2.22.06,4.14.06,4.74.06s.72-.24.72-.9v-32.75h-6.78V2022h-3.54v-51.17H718.5Z"/><path d="M725.7,2007.26l3.48-3.06a113.53,113.53,0,0,1,13.5,13.38L739,2020.7A97.41,97.41,0,0,0,725.7,2007.26Z"/><path d="M773.1,1984.77c-5.76,1.14-11.52,2.22-16,3.06l-.66-3.49c4.32-.65,10.44-1.67,16.68-2.69V1976H757.92v-3.3H773.1v-5.34h4v22h-4Zm28.26,32.69c0,2.28-.6,3.36-2.34,4s-4.86.66-9.6.66a16.27,16.27,0,0,0-1.32-3.6c3.54.12,7,.12,7.92.12s1.26-.36,1.26-1.2v-5.76H769.2V2022h-4v-30.65h36.12Zm-32.16-23v5.4h28.08v-5.4Zm28.08,14.1v-5.64H769.2v5.64Zm5.82-23.33c2.1,0,2.52-.72,2.7-5.17a14.09,14.09,0,0,0,3.6,1.39c-.42,5.7-1.68,7.25-5.94,7.25H793.08c-5.46,0-6.9-1.14-6.9-5.39v-16h4v7.74a81.77,81.77,0,0,0,13.86-5l2.88,2.88a94.54,94.54,0,0,1-16.74,5.34v5c0,1.55.48,1.92,3.24,1.92Z"/><path d="M832.14,1985h10.74v3.72H832.14v1.62c2.22,2.39,8.7,10,10.14,11.87l-2.46,3.24a129,129,0,0,0-7.68-10.49v26.93h-4v-27.17c-3,7.07-7.2,14.21-11.1,18.41a28.3,28.3,0,0,0-2.22-3.66c4.56-4.62,9.6-13.08,12.36-20.75H816.24V1985h11.88v-10.32c-3.42.54-6.9,1-10.14,1.44a15.29,15.29,0,0,0-1.08-3.18c7.92-1.08,17.52-2.82,22.68-5l2.76,3.12a83.55,83.55,0,0,1-10.2,2.82Zm34.74-12.06V2019h-4v-4.56h-14v5H845v-46.49Zm-4,37.67v-33.83h-14v33.83Z"/><path d="M906.18,1994.79a37.53,37.53,0,0,0,24.6,21.83,15.05,15.05,0,0,0-2.76,3.66c-12.36-4.14-21.12-13.08-25.92-25.49h-9.72v20.93l14.7-3.78a17.38,17.38,0,0,0,.36,3.72c-16.38,4.44-18.48,5.16-19.86,6.06a16.15,16.15,0,0,0-1.62-3.6,3.58,3.58,0,0,0,2.28-3.54v-19.79H876.6v-4h11.64v-23.16h4.14v23.16h37.08v4Zm17-24.42c-5.88,7-14.94,13.2-23.16,17.21a21.52,21.52,0,0,0-3.3-3.12c8.52-3.59,17.22-9.41,22.56-15.71Z"/><path d="M945.3,1984.46v3.25c0,10-.78,24.41-6.66,34.19a15.57,15.57,0,0,0-3.48-2c5.64-9.36,6.18-22.68,6.18-32.1v-17.51H985.8v14.21Zm0-10.67v7.14h36.48v-7.14Zm37,43.67c2.7,0,3.18-1.14,3.48-6.78a13.21,13.21,0,0,0,3.66,1.56c-.6,7-1.8,8.88-6.9,8.88H970c-6,0-7.68-1.32-7.68-6.3v-4.92l-15.72,2.46L946,2009l16.32-2.52v-5.88l-13.62,2.1-.66-3.24,14.28-2.28v-5.46c-4.26.78-8.7,1.38-12.78,1.92a13.47,13.47,0,0,0-1.14-2.93c10.14-1.33,22-3.48,28.26-5.88l3.42,2.63a106.83,106.83,0,0,1-13.86,3.54v5.64L983.4,1994l.6,3.25L966.18,2000v5.88l21.48-3.36.6,3.3-22.08,3.48v5.46c0,2.22.66,2.7,4,2.7Z"/><path d="M1014.36,2011.88a9,9,0,1,1-9.06-9A9,9,0,0,1,1014.36,2011.88Zm-2.82,0a6.21,6.21,0,1,0-6.24,6.24A6.22,6.22,0,0,0,1011.54,2011.88Z"/><rect class="cls-2" x="1113" y="448" width="65" height="126" rx="12"/><path class="cls-1" d="M1132.7,477.82c1.25,1.6,4.9,6.7,5.7,8.05l-2,2.45c-.7-1.5-2.35-4.4-3.75-6.65V508h-3.15V483.57c-1.5,5.05-3.5,9.9-5.55,12.85a14.83,14.83,0,0,0-1.75-3.1c2.9-4,5.8-11.5,7.2-18h-6.2v-3.15h6.3v-9.65h3.15v9.65h5.45v3.15h-5.45Zm19.1.7a19.47,19.47,0,0,0,.45,2.65c-10.15,2.7-11.6,3.15-12.5,3.75a12.13,12.13,0,0,0-1.1-3.2c.7-.2,1.55-.5,1.55-2.2v-16.7h3.25v6.5h8.35v2.9h-8.35v8.3Zm2.35,5.5-2,3.75h12.65V508h-3.4v-1.75h-17v2h-3.3V487.77h7.9c.55-1.5,1.2-3.25,1.55-4.6Zm7.3,6.5h-17v5.05h17Zm0,13v-5.3h-17v5.3Zm2.25-22.4c1.25,0,1.5-.75,1.65-5.25a9.16,9.16,0,0,0,2.85,1.25c-.3,5.45-1.2,6.95-4.15,6.95h-5.85c-3.65,0-4.55-.95-4.55-4.45V462.87h3.25v6.5h10.2v2.9h-10.2v7.35c0,1.3.25,1.5,1.65,1.5Z"/><path class="cls-1" d="M1167.55,537.87v2.5H1123.4v-2.5h20.25v-3.2H1126.8v-2.3h16.85v-3H1128.2v-2.25h15.45v-3.2H1123.5v-2.5h20.15v-3H1128.8V516h14.85v-3.55h3.25V516h14.45v5.4h6.15v2.5h-6.15v5.45H1146.9v3h17.3v2.3h-17.3v3.2Zm-37.75,5h31.75v15.25h-3.25v-1.6H1133v1.7h-3.2Zm3.2,2.4v3.2h25.3v-3.2Zm25.3,8.85v-3.4H1133v3.4Zm-11.4-32.7h11.15v-3H1146.9Zm0,5.7h11.15v-3.2H1146.9Z"/><rect class="cls-2" x="1113" y="1273" width="65" height="271" rx="12"/><path class="cls-1" d="M1158.05,1312.79a27.61,27.61,0,0,0,11.5,8.1,11.65,11.65,0,0,0-2.15,2.55,30.77,30.77,0,0,1-12.8-10.65h-15.95a34.39,34.39,0,0,1-13,11.3,11.43,11.43,0,0,0-2.15-2.55,30.39,30.39,0,0,0,11.6-8.75H1124v-2.85h10v-16.15h-7.7V1291h7.7v-5h3.3v5h18.55v-5h3.35v5h7.65v2.8h-7.65v16.15h9.8v2.85Zm-10,14.5h17.3v2.85H1127.8v-2.85h16.9v-5.6h-10.45v-2.8h10.45v-4.4h3.35v4.4h10.65v2.8h-10.65Zm-10.8-33.5v3.6h18.55v-3.6Zm0,9.8h18.55v-3.65h-18.55Zm0,6.35h18.55v-3.8h-18.55Z"/><path class="cls-1" d="M1142.25,1354.54s0,1.15,0,1.55c-.6,15.85-1.2,21.2-2.6,23a3.71,3.71,0,0,1-2.8,1.45,32.65,32.65,0,0,1-4.45,0,9.25,9.25,0,0,0-.85-3c1.75.15,3.2.15,3.9.15a1.42,1.42,0,0,0,1.45-.65c1-1.2,1.6-6,2.15-19.35h-6.8c-.55,10-2,18.25-6.45,23.65a9.53,9.53,0,0,0-2.55-2.35c5.45-6.45,5.9-17.85,6.1-31.55h-5.2v-3.1h20.1v3.1h-11.65c0,2.45-.1,4.85-.2,7.15Zm-7.9-10.45a33.47,33.47,0,0,0-4.25-7.15l2.9-1.15a31.92,31.92,0,0,1,4.4,7Zm23.85-7.45a15.26,15.26,0,0,1-.85,2.55c2.65,5.45,7.7,11.35,12.45,14a13,13,0,0,0-2.45,2.75c-4.25-2.7-8.5-8-11.4-13.3a32.61,32.61,0,0,1-11,13.6,12.79,12.79,0,0,0-2.35-2.65c5.85-3.6,10.35-10.2,12.5-17.85Zm-8.3,32.45a74,74,0,0,1,13.6,8.25l-2.25,2.9c-2.85-2.6-8.75-6.3-13.4-8.65Zm9.5-4.85a66.22,66.22,0,0,0-8.6-6.85l2.15-2.2a67.46,67.46,0,0,1,8.75,6.55Z"/><path class="cls-1" d="M1165,1389.19v29.3h-3.5v-2.55h-13.3v15.6h-3.45v-15.6h-13.4v2.75H1128v-29.5Zm-33.65,3.2V1401h13.4v-8.65Zm13.4,20.35v-8.5h-13.4v8.5Zm16.75-20.35h-13.3V1401h13.3Zm0,20.35v-8.5h-13.3v8.5Z"/><path class="cls-1" d="M1167.25,1451.09v9.3h-3.15V1454h-35.4v6.4h-3v-9.3h6.95v-12.95h27.7v12.95Zm-6.45,26.6c0,1.85-.45,2.7-1.85,3.2s-3.9.5-7.7.45a8.57,8.57,0,0,0-1.1-2.75c3,.05,5.65.05,6.4.05s1-.25,1-1v-6.2c-7.3,1.45-14.85,3-20.45,4l-1.1-3c5.4-.8,13.6-2.3,21.55-3.75V1460h-22.2v5.3c0,4.85-.65,11.55-4.35,16.2a13.29,13.29,0,0,0-2.7-2c3.45-4.25,3.85-10,3.85-14.25v-8h28.6Zm-25-26.6h7.45v-6.9H1157v-3.35h-21.2Zm2.45,11.7a75.14,75.14,0,0,1,17.7,3l-.9,2.6c-4-1.5-11.7-2.9-17.7-3.35Zm18.75-16.3h-10.75v4.6H1157Z"/><path class="cls-1" d="M1161,1498.09a51.83,51.83,0,0,1-12,19.6,49.94,49.94,0,0,0,20.5,10.5,16.79,16.79,0,0,0-2.25,3,50.92,50.92,0,0,1-20.75-11.1c-5.65,5-12.55,8.6-21,11.3a15.53,15.53,0,0,0-2-3.05c8.35-2.45,15.1-5.9,20.6-10.6a57.05,57.05,0,0,1-12.2-19.65h-7.75v-3.25h44.75v3.25Zm-25.75,0a52.13,52.13,0,0,0,11.3,17.3,47.46,47.46,0,0,0,10.7-17.3Zm11.25-3.55a38.13,38.13,0,0,0-3.8-7.8l3.4-1a39,39,0,0,1,4,7.65Z"/><path d="M552.35,1270.8c-18.08,47.39-36,95.58-43.14,146a352.12,352.12,0,0,0-3.89,43,275.14,275.14,0,0,0,3,43.58,207.93,207.93,0,0,0,24.34,72.48c12.22,21.88,27.42,42.17,37.24,65.34l-2.57-6.09a102.25,102.25,0,0,1,7.28,25.4l-.91-6.78a56,56,0,0,1,.24,14.29l.91-6.78a43.11,43.11,0,0,1-2.87,10.57l2.57-6.1a45.2,45.2,0,0,1-5.64,9.55l4-5.16a58.55,58.55,0,0,1-10.3,10.09l5.16-4a97.14,97.14,0,0,1-20.95,11.82l6.09-2.57c-18.29,7.68-38.07,11.86-57.66,14.49l6.78-.91c-35,4.62-70.59,3.77-105.69.43q-15.1-1.44-30.15-3.48l6.78.91c-25.32-3.41-50.47-7.92-75.51-13-6.77-1.37-13.55-1-19.65,2.57-5.29,3.1-10.34,9.16-11.72,15.24-1.49,6.53-1.17,13.85,2.57,19.65,3.46,5.36,8.76,10.41,15.24,11.72,36,7.27,72.32,13.37,108.9,17,35,3.5,70.52,4.63,105.52.38,16.92-2,33.77-4.78,50.16-9.56a168.44,168.44,0,0,0,17.73-6.21c7.67-3.19,15.27-6.44,22.27-11,6.59-4.25,13.14-9.18,18.38-15.07a75.79,75.79,0,0,0,15-25,42.63,42.63,0,0,0,2.17-8.63c.8-5.31,1.55-10.5,1.24-15.85a112.56,112.56,0,0,0-5.07-27.9c-5.43-16.76-13.87-32.4-23-47.4-8.23-13.56-17.08-26.81-24.32-41-1.69-3.31-3.28-6.68-4.74-10.1l2.57,6.09a197.84,197.84,0,0,1-13.3-49.91l.91,6.78c-3.08-23.22-2.42-46.72.67-69.89l-.91,6.78c5.44-40.1,17.78-78.88,31.6-116.78,3.85-10.58,7.84-21.11,11.85-31.64a19.21,19.21,0,0,0,.46-10.16,18.9,18.9,0,0,0-3-9.49c-3.09-5.29-9.16-10.33-15.24-11.71-6.52-1.49-13.85-1.17-19.65,2.57l-5.16,4a25.52,25.52,0,0,0-6.55,11.26Z"/><path d="M796.42,1646.35c-1.76,2.46-3.56,4.9-5.42,7.29l4-5.16a184.94,184.94,0,0,1-33.32,33l5.16-4c-10.84,8.37-22,16.3-34.67,21.7l6.1-2.57a93.32,93.32,0,0,1-23.55,6.57l6.77-.91a80.52,80.52,0,0,1-21-.08l6.78.91a105,105,0,0,1-26.1-7.4l6.09,2.57a151,151,0,0,1-32.9-19.27l5.16,4a147.47,147.47,0,0,1-26.6-26.47l4,5.16a126.89,126.89,0,0,1-16.3-27.67l2.57,6.09q-1.23-2.92-2.3-5.91a24.57,24.57,0,0,0-21.2-18.27,19.44,19.44,0,0,0-10.17.46l-6.09,2.57a25.71,25.71,0,0,0-9.15,9.15l-2.57,6.09a25.78,25.78,0,0,0,0,13.56,150.3,150.3,0,0,0,14,29.34,192.07,192.07,0,0,0,11.44,15.79q4.14,5.34,8.77,10.26A186.36,186.36,0,0,0,631,1724.76a150.57,150.57,0,0,0,23.1,14.09c11,5.41,22.59,10.2,34.66,12.55a120.12,120.12,0,0,0,22.37,2.5,115.88,115.88,0,0,0,21.42-2.26,90.79,90.79,0,0,0,14.29-3.93,153.62,153.62,0,0,0,19.47-8.51c8.68-4.58,16.63-10.36,24.43-16.29,8.52-6.47,16.94-13.05,24.59-20.54s14.44-16,21-24.58c1.43-1.88,2.82-3.78,4.2-5.7a19,19,0,0,0,3-9.48,19.34,19.34,0,0,0-.45-10.17,28.62,28.62,0,0,0-11.72-15.24l-6.09-2.57a25.58,25.58,0,0,0-13.56,0l-6.09,2.57a25.63,25.63,0,0,0-9.15,9.15Z"/><path d="M387.65,1082.59c26.15,4.11,52.18,9.8,77.22,18.48q9.09,3.17,18,6.88l-6.09-2.57a216.88,216.88,0,0,1,36.93,19.69q4.46,3,8.71,6.28l-5.16-4a139.94,139.94,0,0,1,25.23,25l-4-5.16a121.3,121.3,0,0,1,15.65,26.77l-2.57-6.09a131.28,131.28,0,0,1,8.92,33.21l-.91-6.78a173.48,173.48,0,0,1,.7,37.36q-.46,5.56-1.22,11.11L560,1236c-.84,6.27-1.94,12.5-3.24,18.69-1.42,6.72-2.86,13.51-5.51,19.87l2.57-6.09a77.42,77.42,0,0,1-10,16.93l4-5.16a118.5,118.5,0,0,1-21.34,20.88l5.16-4a204.7,204.7,0,0,1-37,22.28q-5.65,2.7-11.44,5.14l6.09-2.58a291.78,291.78,0,0,1-54.22,17c-6.65,1.37-13.36,2.49-20.09,3.4l6.77-.91c-26.55,3.52-53.46,3.55-80.12,1.23q-11.38-1-22.73-2.52l6.78.92q-13.57-1.83-27-4.31a19.34,19.34,0,0,0-10.17-.46,22.89,22.89,0,0,0-16.64,9.6,19.22,19.22,0,0,0-4.56,8.67c-1.49,6.53-1.17,13.85,2.57,19.65,3.42,5.3,8.79,10.54,15.24,11.72,32.88,6,66.42,9.94,99.89,9.26a369.39,369.39,0,0,0,53.09-5.1,281.5,281.5,0,0,0,39.86-9.73,352.89,352.89,0,0,0,38.14-14.93,227.4,227.4,0,0,0,31.25-17.08,224.16,224.16,0,0,0,18.82-14,122,122,0,0,0,12-11.26,132.3,132.3,0,0,0,13.49-17.18,102.25,102.25,0,0,0,9.46-19.31,98,98,0,0,0,3.9-13.79c1-4.25,1.84-8.53,2.61-12.82a294.32,294.32,0,0,0,4-31.58,185.35,185.35,0,0,0-4-52.68,127.67,127.67,0,0,0-6.6-20.92c-3.68-8.87-7.6-17.47-12.86-25.53a163.07,163.07,0,0,0-18-22.83c-7.13-7.53-15.16-14-23.44-20.23-17-12.79-36.23-21.92-55.93-29.73-22.42-8.88-45.88-15-69.53-19.55-6.64-1.29-13.3-2.44-20-3.49A19.3,19.3,0,0,0,391,1033a18.92,18.92,0,0,0-9.48,3,28.49,28.49,0,0,0-11.72,15.24c-1.49,6.53-1.17,13.86,2.57,19.65l4,5.16a25.54,25.54,0,0,0,11.26,6.56Z"/><path d="M394.69,1273.67q33.63-2.46,67.25-5.26t67.34-6q18.9-1.76,37.8-3.63a28.38,28.38,0,0,0,18-7.47,28.44,28.44,0,0,0,7.47-18l-.91-6.78a25.45,25.45,0,0,0-6.56-11.25l-5.16-4a25.32,25.32,0,0,0-12.87-3.48q-33.68,3.33-67.38,6.33t-67.31,5.64q-18.84,1.5-37.7,2.87a28.43,28.43,0,0,0-18,7.47,28.36,28.36,0,0,0-7.46,18l.91,6.78a25.43,25.43,0,0,0,6.55,11.25l5.17,4a25.27,25.27,0,0,0,12.87,3.48Z"/><path d="M368.56,1058.09q-.84,26.82-.58,53.65a24.61,24.61,0,0,0,15.68,23.3,19.16,19.16,0,0,0,9.82,2.2l6.78-.91a25.45,25.45,0,0,0,11.25-6.56c4.56-5,7.54-11.15,7.47-18q-.25-26.84.58-53.65a24.61,24.61,0,0,0-15.68-23.3,19.18,19.18,0,0,0-9.82-2.2l-6.78.91a25.55,25.55,0,0,0-11.25,6.56l-4,5.16a25.32,25.32,0,0,0-3.48,12.87Z"/><path d="M367.86,1191.94q-.84,26.8-.58,53.64A24.66,24.66,0,0,0,383,1268.89a19.32,19.32,0,0,0,9.83,2.19l6.78-.91a25.45,25.45,0,0,0,11.25-6.56c4.55-5,7.53-11.14,7.47-18q-.27-26.82.58-53.64a24.64,24.64,0,0,0-15.68-23.31,19.28,19.28,0,0,0-9.82-2.19l-6.78.91a25.54,25.54,0,0,0-11.26,6.56l-4,5.16a25.27,25.27,0,0,0-3.48,12.87Z"/><path d="M508.15,1242.16q6.79-10.85,14.62-21l-4,5.16a230.24,230.24,0,0,1,29.79-32q4.7-4.14,9.66-8l-5.17,4A159.87,159.87,0,0,1,588,1169.68l-6.09,2.57a126.85,126.85,0,0,1,32.09-8.88l-6.77.91a119.77,119.77,0,0,1,31.48,0l-6.77-.91a112.15,112.15,0,0,1,28.11,7.19L654,1168a61,61,0,0,1,13.21,7.68l-5.16-4a49.2,49.2,0,0,1,8.52,8.42l-4-5.16a36.17,36.17,0,0,1,4.68,8l-2.57-6.09a28.84,28.84,0,0,1,1.92,7l-.91-6.78a26.67,26.67,0,0,1,0,6.68l.91-6.78a28.57,28.57,0,0,1-1.93,7l2.57-6.09a35.86,35.86,0,0,1-4.55,7.65l4-5.16a48.62,48.62,0,0,1-8.29,8.18l5.16-4a70,70,0,0,1-15.64,8.8l6.09-2.57c-13.17,5.52-27.13,8.61-41.24,10.51l6.78-.91c-15.16,2-30.44,2.84-45.69,3.77a26.19,26.19,0,0,0-25.5,25.5l.91,6.78a25.45,25.45,0,0,0,6.56,11.25l5.16,4a25.27,25.27,0,0,0,12.87,3.48c8.06-.49,16.12-1,24.17-1.59,9.54-.73,19-1.83,28.5-3.12,13.84-1.88,27.57-4.88,40.5-10.25a141.59,141.59,0,0,0,15.11-6.86,95.52,95.52,0,0,0,13.53-9.69,47.06,47.06,0,0,0,7-7.07c3.26-4.13,6.55-8.12,8.65-13a69.06,69.06,0,0,0,4-10.21c.18-.73.33-1.47.45-2.21.47-2.93.93-5.89,1.16-8.84a26,26,0,0,0,0-4.32,71.08,71.08,0,0,0-1.62-10.84,70.21,70.21,0,0,0-3.89-10,33.47,33.47,0,0,0-2-3.93,38.92,38.92,0,0,0-2.62-3.89,102.49,102.49,0,0,0-6.88-8.55,86.42,86.42,0,0,0-12.26-10.17,58.76,58.76,0,0,0-8.68-5.22,119.55,119.55,0,0,0-26.2-9.19q-5.16-1.17-10.4-1.92c-5.58-.78-11.15-1.57-16.78-1.89a118.22,118.22,0,0,0-19.73.55,164.44,164.44,0,0,0-25.4,4.53,176.91,176.91,0,0,0-23.74,8.86A158.74,158.74,0,0,0,528,1145.77c-6.71,5.12-13.3,10.34-19.49,16.09-4.61,4.27-9,8.75-13.25,13.39a297.89,297.89,0,0,0-26.51,34q-2.4,3.55-4.68,7.2a19,19,0,0,0-3,9.48,19.34,19.34,0,0,0,.45,10.17,28.62,28.62,0,0,0,11.72,15.24l6.09,2.57a25.78,25.78,0,0,0,13.56,0l6.09-2.57a25.71,25.71,0,0,0,9.15-9.15Z"/><path class="cls-2" d="M88.09,1119.85v3.9H36.37v-3.9h6.72v-39.72h-6.3v-3.78H86.23v3.78H47.17v8.76h33.9v20.52H47.17v10.44Zm-40.92-27.12v12.9H77v-12.9Z"/><path class="cls-2" d="M144.49,1079v46.5h-4.26v-4.86H104.29v5.16h-4.08V1079Zm-4.26,37.62V1083H104.29v33.6Z"/><path class="cls-2" d="M172,1090.69h11.76v3.72H172v4.44c2.64,2,9.66,8.22,11.52,9.84l-2.4,3.3c-1.8-2-6-6.06-9.12-8.94v24.12h-3.84v-26.82c-3.24,7.2-7.68,14.34-11.88,18.54a20.76,20.76,0,0,0-2.16-3.72c4.86-4.56,10.2-13,13.14-20.76H155.47v-3.72h12.72v-10.62c-4,.72-8.1,1.38-11.88,1.86a10.36,10.36,0,0,0-1.26-3.18c8.82-1.26,19.44-3.3,25-5.7l3,3a65.55,65.55,0,0,1-11,3.18Zm16-11h3.9v32.82H188Zm18.72-5.88v48.06c0,2.82-.84,4.08-2.58,4.74-1.92.66-5.16.78-10.62.72a19,19,0,0,0-1.5-4c4.32.12,8,.06,9.18.06s1.56-.42,1.56-1.56v-48.06Z"/><path class="cls-2" d="M268.33,1100.35H254.71v21.54c0,2.82-.78,4-2.58,4.68s-5,.84-10.2.78a14.26,14.26,0,0,0-1.56-4.08c4,.12,7.68.06,8.76,0s1.44-.3,1.44-1.38v-21.18c-7.92,9.84-20.94,19.08-32.28,23.82a17.49,17.49,0,0,0-2.82-3.42c10.68-4,23-12.24,30.54-20.76H223.63v-.06h-2.7a203.88,203.88,0,0,0,4.8-20.46h-6V1076h45.78v3.84h-10.8v16.68h13.62ZM230,1079.83c-1.08,5.28-2.52,11.7-3.84,16.68h24.42v-16.68Z"/><path class="cls-2" d="M51.67,1513.61c0,2-.42,3.06-1.62,3.72s-3.3.72-6.72.66a15.74,15.74,0,0,0-1-3.42c2.4.06,4.5.06,5.16.06s1-.24,1-1v-18.84c-1.92,1.92-4,3.72-5.76,5.52l-1.8-3c-.42,7.26-1.5,15.18-3.9,21.36a9.34,9.34,0,0,0-2.58-2.52c3.18-8.64,3.48-20.4,3.48-29v-21.24h13.8Zm-10.5-26.52c0,3-.06,6.42-.24,10,2-1.5,4.68-3.72,7.5-6.12v-21.42H41.17v9.6l1.92-1.2a46.55,46.55,0,0,1,5.34,6.78l-2.52,1.68a44.25,44.25,0,0,0-4.74-6.54Zm26.46,8.82a77,77,0,0,1,4.44,15.54L69,1512.59a35.09,35.09,0,0,0-.66-3.72c-10.92,2-12.6,2.46-13.56,3a19.1,19.1,0,0,0-1.2-3.36c.84-.18,1.62-1.62,2.34-3.6a82.42,82.42,0,0,0,4-14H53.41v-3.6h7.68v-9.84h-6.6v-3.6h6.6v-9.9h3.48v9.9h6.24v3.6H64.57v9.84h7.26v3.6H63.55a97.76,97.76,0,0,1-5.28,16.44l9.36-1.44a70.38,70.38,0,0,0-2.88-9.12Zm20.1,7.86c0,2-.36,3.12-1.68,3.78s-3.24.78-6.06.78a16.45,16.45,0,0,0-1.26-3.78c2.22.06,4.14.06,4.74.06s.72-.24.72-.9V1471H77.41v47.4H73.87v-51.18H87.73Z"/><path class="cls-2" d="M973.19,1440.23c-8.58,1.56-17.4,3.3-23.82,4.44l-.66-3.42c4.32-.66,10.14-1.68,16.32-2.76v-8.22H950.21V1427H965v-5.34h4v16.26l4-.72Zm20.4,31.56c0,2.28-.6,3.36-2.34,4s-4.86.66-9.6.66a16.27,16.27,0,0,0-1.32-3.6c3.54.12,7,.12,7.92.12s1.26-.36,1.26-1.2v-8c-9.06,1.86-18.78,3.72-25.92,4.92l-1.32-3.54c6.84-1,17.34-2.88,27.24-4.74v-11.22H961.37v7.44c0,6.3-1.2,14.64-7.74,20.16a12.58,12.58,0,0,0-2.88-2.76c5.94-5.1,6.72-11.94,6.72-17.46v-10.8h36.12Zm-29.46-20.22c6.6,1.08,15.18,3.36,19.68,5.46l-1.38,3.12a103.06,103.06,0,0,0-19.8-5.82Zm31.26-12c2.1,0,2.52-.72,2.7-5.16a13.6,13.6,0,0,0,3.6,1.38c-.42,5.7-1.68,7.26-5.94,7.26H985.37c-5.46,0-6.9-1.14-6.9-5.4v-16h4V1427h15.18v3.3H982.49v7.38c0,1.56.48,1.92,3.24,1.92Z"/><path class="cls-2" d="M1002.23,1210.31H991.55v8h-4.14v-8H948.47v-4h10.2v-35h-9v-3.84h51.24v3.84h-9.36v35h10.68Zm-39.42-39v8.82h24.6v-8.82Zm0,21.54h24.6v-9h-24.6Zm24.6,13.5v-9.84h-24.6v9.84Z"/><path class="cls-2" d="M978.41,1682.11A37.52,37.52,0,0,0,1003,1704a15.05,15.05,0,0,0-2.76,3.66c-12.36-4.14-21.12-13.08-25.92-25.5h-9.72v20.94l14.7-3.78a17.38,17.38,0,0,0,.36,3.72c-16.38,4.44-18.48,5.16-19.86,6.06a16.15,16.15,0,0,0-1.62-3.6,3.58,3.58,0,0,0,2.28-3.54v-19.8H948.83v-4h11.64V1655h4.14v23.16h37.08v4Zm17-24.42c-5.88,7-14.94,13.2-23.16,17.22a20.6,20.6,0,0,0-3.3-3.12c8.52-3.6,17.22-9.42,22.56-15.72Z"/><path class="cls-2" d="M1017.53,1671.79V1675c0,10-.78,24.42-6.66,34.2a15.57,15.57,0,0,0-3.48-2c5.64-9.36,6.18-22.68,6.18-32.1v-17.52H1058v14.22Zm0-10.68v7.14H1054v-7.14Zm37,43.68c2.7,0,3.18-1.14,3.48-6.78a13.21,13.21,0,0,0,3.66,1.56c-.6,7-1.8,8.88-6.9,8.88h-12.54c-6,0-7.68-1.32-7.68-6.3v-4.92l-15.72,2.46-.6-3.36,16.32-2.52v-5.88l-13.62,2.1-.66-3.24,14.28-2.28v-5.46c-4.26.78-8.7,1.38-12.78,1.92a13.55,13.55,0,0,0-1.14-2.94c10.14-1.32,22-3.48,28.26-5.88l3.42,2.64a110.17,110.17,0,0,1-13.86,3.54V1684l17.22-2.64.6,3.24-17.82,2.76v5.88l21.48-3.36.6,3.3-22.08,3.48v5.46c0,2.22.66,2.7,4,2.7Z"/><path class="cls-2" d="M109.3,1478.47c26.15-5.42,51.81-13.87,75.48-26.34,18.85-9.93,36.58-22.51,51.06-38.22a128.2,128.2,0,0,0,17.84-24.34c.7-1.27-1.24-2.4-2-1.14-9.08,16.3-22.14,30.11-36.74,41.6-18.38,14.46-39.46,25.38-61.33,33.49a310.48,310.48,0,0,1-45,12.78c-1.42.29-.82,2.46.6,2.17Z"/><path class="cls-2" d="M108.92,1504.08a120.31,120.31,0,0,1,36.3,18.07A191.12,191.12,0,0,1,178,1552.42a295.69,295.69,0,0,1,27.73,38,467.93,467.93,0,0,1,23.18,42.26c7.34,15,14,30.35,20.37,45.82q1.19,2.91,2.36,5.83c.53,1.33,2.71.75,2.17-.6-6.3-15.66-12.94-31.2-20.19-46.45-7-14.79-14.64-29.33-23.11-43.36a314.24,314.24,0,0,0-27.28-38.79,204.08,204.08,0,0,0-32.57-31.73,128.47,128.47,0,0,0-36.45-20q-2.32-.78-4.67-1.45a1.12,1.12,0,0,0-.6,2.16Z"/><path class="cls-2" d="M924.38,1457.41c-19.42-.08-38.82-.92-58.19-2.18s-38.7-2.91-58-4.6-38.55-3.41-57.85-4.81-38.43-2.44-57.68-2.79-38.37,0-57.5,1.43q-3.57.27-7.14.58c-1.43.13-1.44,2.38,0,2.25,19.11-1.69,38.3-2.28,57.48-2.11s38.46,1.09,57.65,2.39,38.57,3,57.83,4.68,38.65,3.4,58,4.75,38.76,2.33,58.17,2.6c2.42,0,4.83.05,7.25.06a1.13,1.13,0,0,0,0-2.25Z"/><path class="cls-2" d="M924.2,1704.55a128.33,128.33,0,0,1-26.51,4.24c-9.91.69-19.87.72-29.81.53-5.63-.11-11.25-.3-16.88-.51-1.45,0-1.45,2.2,0,2.25,19.69.72,39.63,1.46,59.2-1.32a106.54,106.54,0,0,0,14.6-3,1.13,1.13,0,0,0-.6-2.17Z"/><path class="cls-2" d="M274.43,1137a98.42,98.42,0,0,0,24.35,10.83,269,269,0,0,0,26.66,6.94,60.94,60.94,0,0,0,16.21,1.37c1.44-.1,1.45-2.35,0-2.25-9.48.65-18.71-1.89-27.8-4.22a192.16,192.16,0,0,1-25.06-7.77,81.91,81.91,0,0,1-13.22-6.84c-1.22-.79-2.35,1.16-1.14,1.94Z"/><path class="cls-2" d="M928.48,1197.05c-23.8,4.9-47.66,9.7-71.79,12.66-23.67,2.9-47.69,4-71.44,1.44a200.6,200.6,0,0,1-39.4-8.3c-1.39-.45-2,1.72-.6,2.17,22.88,7.35,47,10.09,70.93,9.82,24.35-.28,48.58-3.51,72.54-7.74,13.49-2.39,26.93-5.11,40.35-7.88,1.42-.29.82-2.46-.59-2.17Z"/></svg>