<svg id="Layer_1" data-name="Layer 1" xmlns="http://www.w3.org/2000/svg" viewBox="0 0 1242 2208"><defs><style>.cls-1{fill:#f6eabe;}.cls-2{fill:#999;}</style></defs><rect class="cls-1" width="1242" height="2208"/><path d="M932.3,321.89c-42.08,31-92.89,65.9-144.5,96.07,40.49,123.86,115.92,239.78,208,293-12.7,10.32-28.58,29.38-36.52,42.88C864,693.47,789.39,574.38,745.72,442.57c-19.85,11.12-38.91,22.23-58,30.17,46.84,143.72,30.17,294.58-24.62,339-26.2,25.41-50,32.55-90.51,33.35-18.26,0-47.64-.8-77-3.18-.79-15.88-6.35-37.32-15.09-54a723.32,723.32,0,0,0,82.58,4.76c24.61,0,42.08-2.38,58.75-19.85,31-27,46.85-110.36,33.35-204-94.48,84.95-235.81,158-357.29,196.11-7.15-12.7-23-32.55-34.15-43.67,136.57-37.31,295.37-119.09,381.12-208a432,432,0,0,0-28.58-83.37C536.1,497.36,417,554.53,317,583.9c-7.94-11.91-23-31-34.14-41.28,110.37-28.59,240.58-88.93,312-154.83-13.5-23-30.17-45.26-48.43-65.9-74.64,45.25-162,79.4-247.73,104-5.56-11.12-21.44-36.52-31.76-46.85,131-31,262-86.54,341.42-165.15H300.29v-50h659v50H677.43a500.87,500.87,0,0,1-91.3,81.78c37.31,39.7,65.9,86.55,87.33,135,72.26-39.7,162-99.25,216.76-146.09Z"/><path d="M391.92,1906.69a98.85,98.85,0,0,1-6.18,13.56v39.59H381.9v-33.35a61.73,61.73,0,0,1-5.46,7,32.86,32.86,0,0,0-2.28-3.9c5.58-5.87,10.8-14.87,14-24Zm34.2,29.21c-2,1.38-4.44,2.7-6.84,4,2,5.82,5.82,11.16,10.62,13.62a15.86,15.86,0,0,0-2.64,3.06c-4.92-3-8.76-8.76-10.86-15.3-1,.54-2.1,1-3.12,1.5,2.1,6.3,1.26,12.72-1.38,15.24a6.51,6.51,0,0,1-5,1.92c-1,0-2.4-.06-3.72-.12a9.47,9.47,0,0,0-1-3.48,34.56,34.56,0,0,0,4,.24,3.38,3.38,0,0,0,3-1.14c1.44-1.32,2.1-4.86,1.44-8.94a58.72,58.72,0,0,1-19.5,11.4,11.72,11.72,0,0,0-2.34-2.82c7.44-2.22,16.26-7,21.12-11.82a24.37,24.37,0,0,0-1.62-3.66,57.71,57.71,0,0,1-16.74,9.66,16.14,16.14,0,0,0-2.22-2.64c5.82-1.74,13.38-5.58,17.52-9.3a16.53,16.53,0,0,0-2.82-3,39.59,39.59,0,0,1-12.3,6.17,14.66,14.66,0,0,0-2.28-2.58c6.54-2.1,10.86-4.62,13.68-7.25h-9.54v-9.36c-1.08,1-2.22,1.92-3.42,2.88a9.62,9.62,0,0,0-2.64-2.52,45.51,45.51,0,0,0,13.92-16.26l3.84.72a35.7,35.7,0,0,1-2,3.54h11.1l.78-.18,2.34,1.68a52.13,52.13,0,0,1-4.8,6.84h13v12.66H407.7a16.53,16.53,0,0,1-1.38,1.62,22.17,22.17,0,0,1,6,7.85,118.29,118.29,0,0,0,11.1-6.66Zm-25-23.09a54.58,54.58,0,0,1-4.2,5.16h11.58a33.35,33.35,0,0,0,3.72-5.16Zm-4,14.69h8.64a15.14,15.14,0,0,0,2.46-6.42h-11.1Zm24.72-6.42H411.6a18.56,18.56,0,0,1-1.8,6.42h12.06Z"/><path d="M448.26,1906.27a117.62,117.62,0,0,1-4.08,12v41.57h-3.42v-34.08a69.4,69.4,0,0,1-4.74,8,22,22,0,0,0-2.16-3.73c4.62-6.11,8.46-15.35,10.86-24.59Zm13.08,30.23c0,8-1.56,17.52-11.28,23.52a10.07,10.07,0,0,0-2.1-2.4c9.12-5.64,10.2-13.86,10.2-21.18v-19.86h3.18Zm-8.22,9.6h-3.3v-36.89h20V1946h-3.42v-33.77H453.12Zm10.2,1.5a87.57,87.57,0,0,1,7.86,9.78l-2.64,2a63.57,63.57,0,0,0-7.68-10.14Zm14.82-1H474.9v-35.51h3.24Zm8.94-40.79v49.37c0,2.28-.54,3.36-1.92,3.9s-3.72.72-7.8.72a16.5,16.5,0,0,0-1.08-3.48c3,.12,5.52.06,6.24.06s1.2-.3,1.2-1.2v-49.37Z"/><path d="M513.72,1942c-1.2-1.86-4-5.39-6.12-8.16V1960h-3.78v-23.88a50,50,0,0,1-7.26,6.72,13.15,13.15,0,0,0-1.92-3.78c6.24-4.26,12.72-11.94,16.32-19.67H496.08v-3.66h16.8l.72-.18,2.16,1.5a56.56,56.56,0,0,1-7.08,13.13c2.22,2.4,6.48,7.38,7.62,8.7Zm-6.48-26.93a38,38,0,0,0-5.58-7.8l3-1.8a31.39,31.39,0,0,1,5.82,7.5ZM543.48,1956c2.16,0,2.46-1.56,2.76-10.26a10.19,10.19,0,0,0,3.36,1.62c-.54,9.36-1.2,11.7-6.18,11.7h-5.7c-3.9,0-5.46-1-5.46-4.74v-12.6c-2.22,6.78-6.84,13.38-16.26,18.36a11,11,0,0,0-2.52-3c15-7.8,16.86-19.14,16.86-28.44v-12.06h3.84v12.18a43.59,43.59,0,0,1-1.08,10.14H536v15c0,1.68.48,2.1,2.22,2.1Zm-20.4-16h-3.84v-31.73h26.82V1940h-4v-28.19h-19Z"/><path d="M571,1906c-1,2.94-2.1,6.3-3.18,8.88H578v38.75h-16.8v4.8h-3.66v-43.55h6.66a64.68,64.68,0,0,0,2.58-9.72Zm3.3,12.47H561.18v13.08h13.14Zm0,31.56v-14.88H561.18v14.88Zm33.06-33.17c-1,27.53-1.8,36.71-4.2,39.59a5.6,5.6,0,0,1-4.56,2.28,74.94,74.94,0,0,1-8.82-.12,9.42,9.42,0,0,0-1.32-3.9c3.9.36,7.5.36,8.82.36s1.92-.12,2.52-.9c2-2.1,2.94-11.34,3.72-35.7H587.82a55.33,55.33,0,0,1-5.64,10.68,36.22,36.22,0,0,0-3.36-2.22c4.08-5.33,7.32-13.61,9.18-21.89l3.84.84c-.78,3-1.62,6-2.64,8.88h18.18Zm-12.78,27a106.51,106.51,0,0,0-9.3-13.92l3.06-1.79a102.47,102.47,0,0,1,9.6,13.61Z"/><path d="M657.48,1945c-1.32,3.3-2.82,7.08-4.32,10.14h15.42v3.66h-53v-3.66h33.66a74.49,74.49,0,0,0,4.2-11.1Zm7.62-36A38.92,38.92,0,0,1,654.72,1926a38.27,38.27,0,0,0,14.4,6.54,15.2,15.2,0,0,0-2.58,3.48,38.15,38.15,0,0,1-14.82-7.56,41.8,41.8,0,0,1-9.36,5.52,23.91,23.91,0,0,1,2.58,6.06h21.12v3.66H618.48V1940H641a25.39,25.39,0,0,0-2-4.74l-.48.18a10.68,10.68,0,0,0-2.16-3.42,39.06,39.06,0,0,0,12.6-6.23,39.51,39.51,0,0,1-8.46-14.1l.24-.06h-2.34v-3.54h23.58l.72-.18Zm-42.3,24.53h-3.66v-24.17h3.66Zm8,10.62a38.23,38.23,0,0,1,4,9.18l-3.9,1.14a35.06,35.06,0,0,0-3.72-9.24Zm3.24-8.39h-3.66v-29.1H634Zm10.08-24a32.26,32.26,0,0,0,7.68,11.82,33.46,33.46,0,0,0,8.4-11.82Z"/><path d="M728.52,1953.42v4h-53v-4h29a198.72,198.72,0,0,0,9.12-29.27l4.56.84c-2.64,9-6.18,20.69-9.42,28.43Zm-2.34-32.75H678v-4h48.18Zm-33.9,30c-.9-7-3.54-17.58-5.82-25.55l4-.9a209.86,209.86,0,0,1,6,25.43Zm8.58-34.85a61.85,61.85,0,0,0-2.94-9.66l3.84-1.08a70.16,70.16,0,0,1,3.12,9.54Z"/><path d="M752.64,1908.25a53.37,53.37,0,0,1-5.46,7.86c3.36,6.6,3.9,13.68,3.9,21.11,0,8.64-.54,16.74-2.88,20a4.86,4.86,0,0,1-3.36,1.86,30.35,30.35,0,0,1-6.72.24,9.75,9.75,0,0,0-1.2-4,45.8,45.8,0,0,0,6.36.06,2.77,2.77,0,0,0,1.92-1c1.5-2,2-9.42,2-17.27,0-1.27,0-2.46-.06-3.67a51.22,51.22,0,0,1-10.56,11.88,17,17,0,0,0-2.46-3.42c4.62-2.94,9.72-8.94,12.48-14.58a33.3,33.3,0,0,0-2.16-8.21,55.78,55.78,0,0,1-8,7.32,25.72,25.72,0,0,0-2.4-3.61,48.69,48.69,0,0,0,8.64-7.31,35.23,35.23,0,0,0-6.24-7.62l2.82-2.16a39.19,39.19,0,0,1,6,6.9,39,39,0,0,0,4.38-6.36Zm21.6,18.78a87.91,87.91,0,0,1-7.14,6.3h18.3V1960h-3.9v-2.34H764.76V1960H761v-22.2q-3.51,2.34-7.2,4.32a21.36,21.36,0,0,0-2.7-3.12,83,83,0,0,0,17.7-11.93h-16v-3.61H766.2v-7.61H755.52v-3.54H766.2v-6.84H770v6.84h10v2.64a63.45,63.45,0,0,0,4.74-7.32l3.6,1.32a82.25,82.25,0,0,1-10.68,14.51H789.3V1927Zm7.26,9.65H764.76v6.9H781.5Zm0,17.58v-7.38H764.76v7.38ZM770,1923.42h2.58a73.43,73.43,0,0,0,6.72-7.61H770Z"/><path d="M820.56,1932.42V1960h-3.9v-27.54H806.4c-.18,10.08-1.74,20-8.88,27.9a15.89,15.89,0,0,0-2.94-2.7c6.54-7.2,7.86-16.14,8.1-25.2h-7.92v-3.71h8v-15.9h-7.08v-3.72h30.66v3.72h-5.76v15.9h6.54v3.71Zm-3.9-3.71v-15.9h-10.2v15.9Zm33.18,11.69c-5,8.16-13.68,15.36-23,19.62a14.41,14.41,0,0,0-2.82-3.24c9-3.66,17.58-10.38,22.08-17.82Zm-3.24-32.51c-4.32,5.46-11.16,10.74-17.16,14a15.73,15.73,0,0,0-2.88-2.75c5.76-2.88,12.6-8,16.32-12.78Zm1.8,16.37A65.72,65.72,0,0,1,830,1939.38a20.87,20.87,0,0,0-2.82-2.82c6.18-3.12,13.5-8.64,17.58-13.79Z"/><path d="M856,1958.7c4.68-2,7.26-4.92,7.56-9.18a7.35,7.35,0,0,1-1.14.12c-2.34,0-4.26-1.38-4.26-4.08a4,4,0,0,1,4.32-4.14c3.18,0,4.86,2.64,4.86,6.66,0,6.48-4,11.28-10.08,13.44Z"/><path d="M425.76,1989c-1.14,2.46-2.46,5-3.84,7.31h29.16v30.54c0,2.52-.6,3.72-2.46,4.38s-5.16.66-10.38.66a16.63,16.63,0,0,0-1.32-3.9c4.14.18,7.8.12,8.82.12s1.44-.42,1.44-1.32v-6.66H421.5V2032h-3.9V2002.5a50.45,50.45,0,0,1-10.32,10,18.28,18.28,0,0,0-2.58-3.06c7.26-5,12.84-12.41,16.74-20.45H406.08v-3.78h17a56.88,56.88,0,0,0,2.64-7.8l4,.9c-.72,2.34-1.5,4.62-2.4,6.9h30.78V1989Zm21.42,10.92H421.5v6.53h25.68Zm0,16.73v-6.72H421.5v6.72Z"/><path d="M518.52,2004.79v3.77h-23c-3.18,11-10.5,19-27.42,23.22a13.59,13.59,0,0,0-2.34-3.36c15.48-3.72,22.44-10.44,25.56-19.86H465.66v-3.77H492.3c1.62-7.45,1.56-16.38,1.62-26.76H498c-.06,10.14-.06,19.08-1.62,26.76ZM482,2001.42c-2.82-2.39-8.64-5.63-13.44-7.55l2.46-2.76c4.68,1.74,10.56,4.8,13.56,7.26Zm5.46-11c-2.88-2.4-8.76-5.46-13.56-7.32l2.22-2.88c4.74,1.74,10.68,4.62,13.62,7Zm8.82,23.93c8.4,4,16.92,9.36,22,13.8l-2.7,3c-4.86-4.56-13.14-9.9-21.36-14Z"/><path d="M524.7,2017.26l3.48-3.06a113.53,113.53,0,0,1,13.5,13.38L538,2030.7A97.41,97.41,0,0,0,524.7,2017.26Z"/><path d="M575.7,2019.54l.48,3.42c-7.38,2.1-15.06,4.26-20.76,5.82l-1-3.72c1-.24,1.92-.48,3-.72v-20.51h3.36v19.61l4.62-1.14V1998h-7.86v-18h17v18H569v8.63h6.48v3.6H569v11.16ZM561,1994.41h9.9v-10.92H561Zm47.88,1v9.77h-3.66v-6.47H580.5v6.47h-3.6v-9.77H596a87.44,87.44,0,0,0,3.06-8.94l3.66,1.08c-1,2.52-2.22,5.52-3.3,7.86Zm-.72-9.06H577.74v-3.42h13.08a33.18,33.18,0,0,0-1.68-4.86l3.6-1a28.62,28.62,0,0,1,2.16,5.82h13.26Zm-2.28,35.57c0,1.92-.3,2.88-1.62,3.48s-3.42.66-6.48.66a15.27,15.27,0,0,0-1.14-3.42c2.4.06,4.26.06,4.92,0s.78-.18.78-.72V2009.7h-8V2032h-3.66V2009.7h-7.5v16h-3.48v-19.43h11v-5.76h3.66v5.76h11.58Zm-20.58-26.57a40,40,0,0,0-2.46-8l3.18-.72a50.14,50.14,0,0,1,2.64,7.79Z"/><path d="M614.7,2017.26l3.48-3.06a113.53,113.53,0,0,1,13.5,13.38L628,2030.7A97.41,97.41,0,0,0,614.7,2017.26Z"/><path d="M663.9,2027.1c0,2.22-.48,3.42-1.86,4.14s-3.72.78-7.62.72a16.18,16.18,0,0,0-1.2-3.78c2.76.12,5.22.06,5.94.06s1.08-.3,1.08-1.14v-15.36h-8.52c-.48,7.08-1.62,14.64-4.38,20.4a10.16,10.16,0,0,0-3.24-1.86c4.08-8.46,4.38-20.46,4.38-29.21v-21.54H663.9ZM660.24,2008v-10.68h-8.16V2001c0,2.17-.06,4.56-.12,7Zm-8.16-24.77v10.44h8.16v-10.44Zm43.5,29.63a29.76,29.76,0,0,1-9.54,11,43.47,43.47,0,0,0,13.86,4.68,20.57,20.57,0,0,0-2.52,3.48,42.66,42.66,0,0,1-14.7-6,56,56,0,0,1-16,5.94,12.49,12.49,0,0,0-1.92-3.18,49.86,49.86,0,0,0,14.76-5,35.33,35.33,0,0,1-6.06-6.3,41,41,0,0,1-6.3,5.16,24.73,24.73,0,0,0-2.82-2.76,34.67,34.67,0,0,0,12.36-12.12h-6.6v-15.65a33.57,33.57,0,0,1-2.64,3,23.89,23.89,0,0,0-3.24-2.65,41.05,41.05,0,0,0,9.9-15.29l3.84,1a34.53,34.53,0,0,1-2,4.62h22.5v3.54H674c-.9,1.5-1.86,2.88-2.76,4.26h24.36v17.15H680.22l.54.18a29.09,29.09,0,0,1-2.4,3.84h13.92l.78-.18Zm-21.84-15H691.8v-4.38H673.74Zm0,7.14H691.8v-4.44H673.74Zm1.86,10.32a29.45,29.45,0,0,0,7.14,6.66,29.21,29.21,0,0,0,7.32-7H675.9Z"/><path d="M721.14,1995h10.74v3.72H721.14v1.62c2.22,2.39,8.7,10,10.14,11.87l-2.46,3.24a129,129,0,0,0-7.68-10.49v26.93h-4v-27.17c-3,7.07-7.2,14.21-11.1,18.41a28.3,28.3,0,0,0-2.22-3.66c4.56-4.62,9.6-13.08,12.36-20.75H705.24V1995h11.88v-10.32c-3.42.54-6.9,1-10.14,1.44a15.29,15.29,0,0,0-1.08-3.18c7.92-1.08,17.52-2.82,22.68-5l2.76,3.12a83.55,83.55,0,0,1-10.2,2.82Zm34.74-12.06V2029h-4v-4.56h-14v5H734v-46.49Zm-4,37.67v-33.83h-14v33.83Z"/><path d="M774.3,1994.46v3.25c0,10-.78,24.41-6.66,34.19a15.57,15.57,0,0,0-3.48-2c5.64-9.36,6.18-22.68,6.18-32.1v-17.51H814.8v14.21Zm0-10.67v7.14h36.48v-7.14Zm37,43.67c2.7,0,3.18-1.14,3.48-6.78a13.21,13.21,0,0,0,3.66,1.56c-.6,7-1.8,8.88-6.9,8.88H799c-6,0-7.68-1.32-7.68-6.3v-4.92l-15.72,2.46L775,2019l16.32-2.52v-5.88l-13.62,2.1-.66-3.24,14.28-2.28v-5.46c-4.26.78-8.7,1.38-12.78,1.92a13.47,13.47,0,0,0-1.14-2.93c10.14-1.33,22-3.48,28.26-5.88l3.42,2.63a106.83,106.83,0,0,1-13.86,3.54v5.64L812.4,2004l.6,3.25L795.18,2010v5.88l21.48-3.36.6,3.3-22.08,3.48v5.46c0,2.22.66,2.7,4,2.7Z"/><path d="M843.36,2021.88a9,9,0,1,1-9.06-9A9,9,0,0,1,843.36,2021.88Zm-2.82,0a6.21,6.21,0,1,0-6.24,6.24A6.22,6.22,0,0,0,840.54,2021.88Z"/><rect class="cls-2" x="1113" y="430" width="65" height="126" rx="12"/><path class="cls-1" d="M1132.7,459.82c1.25,1.6,4.9,6.7,5.7,8.05l-2,2.45c-.7-1.5-2.35-4.4-3.75-6.65V490h-3.15V465.57c-1.5,5.05-3.5,9.9-5.55,12.85a14.83,14.83,0,0,0-1.75-3.1c2.9-4,5.8-11.5,7.2-18h-6.2v-3.15h6.3v-9.65h3.15v9.65h5.45v3.15h-5.45Zm19.1.7a19.47,19.47,0,0,0,.45,2.65c-10.15,2.7-11.6,3.15-12.5,3.75a12.13,12.13,0,0,0-1.1-3.2c.7-.2,1.55-.5,1.55-2.2v-16.7h3.25v6.5h8.35v2.9h-8.35v8.3Zm2.35,5.5-2,3.75h12.65V490h-3.4v-1.75h-17v2h-3.3V469.77h7.9c.55-1.5,1.2-3.25,1.55-4.6Zm7.3,6.5h-17v5.05h17Zm0,13v-5.3h-17v5.3Zm2.25-22.4c1.25,0,1.5-.75,1.65-5.25a9.16,9.16,0,0,0,2.85,1.25c-.3,5.45-1.2,6.95-4.15,6.95h-5.85c-3.65,0-4.55-.95-4.55-4.45V444.87h3.25v6.5h10.2v2.9h-10.2v7.35c0,1.3.25,1.5,1.65,1.5Z"/><path class="cls-1" d="M1167.55,519.87v2.5H1123.4v-2.5h20.25v-3.2H1126.8v-2.3h16.85v-3H1128.2v-2.25h15.45v-3.2H1123.5v-2.5h20.15v-3.05H1128.8V498h14.85v-3.55h3.25V498h14.45v5.4h6.15v2.5h-6.15v5.45H1146.9v3h17.3v2.3h-17.3v3.2Zm-37.75,5h31.75v15.25h-3.25v-1.6H1133v1.7h-3.2Zm3.2,2.4v3.2h25.3v-3.2Zm25.3,8.85v-3.4H1133v3.4Zm-11.4-32.7h11.15v-3.05H1146.9Zm0,5.7h11.15v-3.2H1146.9Z"/><rect class="cls-2" x="1157" y="1276" width="65" height="222" rx="12"/><path class="cls-1" d="M1202.05,1315.79a27.61,27.61,0,0,0,11.5,8.1,11.65,11.65,0,0,0-2.15,2.55,30.77,30.77,0,0,1-12.8-10.65h-15.95a34.39,34.39,0,0,1-13,11.3,11.43,11.43,0,0,0-2.15-2.55,30.39,30.39,0,0,0,11.6-8.75H1168v-2.85h10v-16.15h-7.7V1294h7.7v-5h3.3v5h18.55v-5h3.35v5h7.65v2.8h-7.65v16.15h9.8v2.85Zm-10,14.5h17.3v2.85H1171.8v-2.85h16.9v-5.6h-10.45v-2.8h10.45v-4.4h3.35v4.4h10.65v2.8h-10.65Zm-10.8-33.5v3.6h18.55v-3.6Zm0,9.8h18.55v-3.65h-18.55Zm0,6.35h18.55v-3.8h-18.55Z"/><path class="cls-1" d="M1186.25,1357.54s0,1.15,0,1.55c-.6,15.85-1.2,21.2-2.6,23a3.71,3.71,0,0,1-2.8,1.45,32.65,32.65,0,0,1-4.45,0,9.25,9.25,0,0,0-.85-3c1.75.15,3.2.15,3.9.15a1.42,1.42,0,0,0,1.45-.65c1-1.2,1.6-6,2.15-19.35h-6.8c-.55,10-2,18.25-6.45,23.65a9.53,9.53,0,0,0-2.55-2.35c5.45-6.45,5.9-17.85,6.1-31.55h-5.2v-3.1h20.1v3.1h-11.65c0,2.45-.1,4.85-.2,7.15Zm-7.9-10.45a33.47,33.47,0,0,0-4.25-7.15l2.9-1.15a31.92,31.92,0,0,1,4.4,7Zm23.85-7.45a15.26,15.26,0,0,1-.85,2.55c2.65,5.45,7.7,11.35,12.45,14a13,13,0,0,0-2.45,2.75c-4.25-2.7-8.5-8-11.4-13.3a32.61,32.61,0,0,1-11,13.6,12.79,12.79,0,0,0-2.35-2.65c5.85-3.6,10.35-10.2,12.5-17.85Zm-8.3,32.45a74,74,0,0,1,13.6,8.25l-2.25,2.9c-2.85-2.6-8.75-6.3-13.4-8.65Zm9.5-4.85a66.22,66.22,0,0,0-8.6-6.85l2.15-2.2a67.46,67.46,0,0,1,8.75,6.55Z"/><path class="cls-1" d="M1179.5,1402c-1.6,7.2-4.55,16.15-9.1,21.7a19.23,19.23,0,0,0-3.1-1.8c4.55-5.25,7.3-13.85,8.55-20.55Zm12.9-12.3v40c0,2.55-.7,3.6-2.35,4.2s-4.8.6-9.4.6a15.62,15.62,0,0,0-1.4-3.45c3.7.1,7.3.1,8.25.05s1.45-.35,1.45-1.4v-40ZM1204,1401c4.45,7,8.7,16.1,10,22l-3.45,1.45c-1.25-5.85-5.25-15.15-9.6-22.3Z"/><path class="cls-1" d="M1208.65,1466.74a72.75,72.75,0,0,1-7.65,3.65,19.75,19.75,0,0,0,12.1,9.55,10.66,10.66,0,0,0-2.1,2.6,22.77,22.77,0,0,1-12.5-11.1c-1.1.45-2.15.85-3.2,1.2,1.5,4.4.7,8.7-1.6,10.35a6,6,0,0,1-4.25,1.3c-1,0-2.25,0-3.55-.1a5.77,5.77,0,0,0-.9-2.85,30,30,0,0,0,4,.2,4.12,4.12,0,0,0,2.7-.65c1.35-1,1.9-3.75,1-6.9-5.55,3.7-14.45,7-22,8.45a11,11,0,0,0-1.45-2.4c8-1.1,17.65-4.65,22.65-8.35a13.35,13.35,0,0,0-1.25-2.15,69.47,69.47,0,0,1-17.55,6.35,7.59,7.59,0,0,0-1.4-2.15c5.8-1,13.4-3.4,17.7-5.85-.6-.55-1.25-1.15-2-1.7a80,80,0,0,1-15.25,4.15,16.41,16.41,0,0,0-1.55-2.2c5.7-.75,12.15-2.15,16.75-4.15h-18.55v-2.55h28c.3-.9.55-1.8.9-2.75h-21.7c1.25-2.8,3-7,4-10.25l3,.5a42,42,0,0,0-3.4-3.25l2-1.15h-6.25a29.23,29.23,0,0,1-5.1,5.6,25.27,25.27,0,0,0-2.35-2.2,26.89,26.89,0,0,0,7.5-9.35l3,.85c-.45.9-1,1.75-1.4,2.65h13.45v2.45h-8.3a44.9,44.9,0,0,1,4,3.65l-2.45,1.6a4.8,4.8,0,0,0-.7-.75c-.2.65-.45,1.25-.65,2h17.75l.6-.2,2.25.5c-.8,3.15-1.9,7-3,10.15h12V1464h-20.25c-.6.35-1.2.7-1.85,1a16.36,16.36,0,0,1,4.4,5.35,90.1,90.1,0,0,0,11.6-5.5Zm-10.2-10.3c.35-1.15.65-2.2,1-3.2h-17.7c-.45,1.15-.9,2.2-1.3,3.2Zm14.75-14.3v2.45h-16.6a28.84,28.84,0,0,1-4.55,5.15,15.06,15.06,0,0,0-2.55-2,21.57,21.57,0,0,0,6.7-9.1l3.1.8a26.43,26.43,0,0,1-1.25,2.7Zm-7.9,8a32.47,32.47,0,0,0-3.9-4.25l2.3-1.25a30.14,30.14,0,0,1,4,4Z"/><path d="M431.79,1083.59q34.84,11.21,69.77,22.16,35.12,11,70.31,21.79t70.18,21.2q35.31,10.53,70.7,20.8,35.24,10.24,70.55,20.22l8.92,2.52a26.37,26.37,0,0,0,19.65-2.57,28.62,28.62,0,0,0,11.72-15.24c1.49-6.53,1.16-13.85-2.57-19.65a26.77,26.77,0,0,0-15.24-11.72q-35.32-9.94-70.58-20.16t-70.73-20.74q-35.13-10.44-70.19-21.14t-70.34-21.72q-34.94-10.93-69.8-22.11l-8.79-2.82a19.34,19.34,0,0,0-10.17-.45,18.92,18.92,0,0,0-9.48,3A28.49,28.49,0,0,0,414,1052.22c-1.49,6.53-1.17,13.86,2.57,19.65a27.62,27.62,0,0,0,15.24,11.72Z"/><path d="M651.17,1126.13q-5.43,8.25-11.47,16.08l4-5.16a295.68,295.68,0,0,1-41.16,43.06q-6.62,5.7-13.53,11l5.16-4a397.58,397.58,0,0,1-69.55,42.76q-10.68,5.17-21.61,9.79l6.09-2.57c-39.84,16.79-81.81,28.15-124.3,35.84q-18.15,3.3-36.44,5.73l6.78-.91c-20.2,2.71-40.49,4.72-60.81,6.2a19.32,19.32,0,0,0-9.83,2.19,19.13,19.13,0,0,0-8.21,5.28c-4.42,4.42-7.75,11.68-7.46,18,.29,6.59,2.46,13.43,7.46,18,4.78,4.38,11.33,8,18,7.47,32.61-2.37,65.17-6.12,97.4-11.67A650,650,0,0,0,480.28,1302a517.07,517.07,0,0,0,83.38-34.76,411.5,411.5,0,0,0,70.57-47.35A315.37,315.37,0,0,0,690,1159.53q2.7-3.78,5.24-7.66a19,19,0,0,0,3-9.48,19.34,19.34,0,0,0-.45-10.17c-1.63-5.92-6.2-12.33-11.72-15.24-5.92-3.13-13.09-4.69-19.65-2.57a27.92,27.92,0,0,0-15.24,11.72Z"/><path d="M574.45,1261.1q6.78,8.22,13.3,16.65l-4-5.16c20,25.91,38.09,53.38,52.82,82.64q6,11.8,11.12,24l-2.57-6.09a343.29,343.29,0,0,1,20.59,66.12q1.9,9.59,3.21,19.27l-.91-6.78a301.9,301.9,0,0,1,0,79.28l.91-6.78c-2.52,18.67-6.27,37.49-13.61,54.91l2.57-6.09c-6.21,14.56-15,27.63-24.66,40.14l4-5.16a117,117,0,0,1-20.44,21.16l5.17-4c-12.1,9.33-26.17,16.51-40.2,22.45l6.09-2.57c-21.44,9-44.26,14.31-67.26,17.41l6.78-.91c-35.51,4.73-71.61,4.37-107.25,1.2q-15.06-1.33-30-3.36l6.78.91q-31-4.18-61.54-11c-6.65-1.49-13.66-.93-19.65,2.57-5.29,3.1-10.33,9.16-11.72,15.24-1.49,6.53-1.16,13.86,2.57,19.65,3.5,5.43,8.74,10.27,15.24,11.72a787,787,0,0,0,78.82,13.26,586,586,0,0,0,77.54,4.32c27.24-.39,54.69-3,81.33-8.8a258.43,258.43,0,0,0,72.1-27.48A144.83,144.83,0,0,0,660.15,1659c8.48-8.08,15.51-17.67,22.39-27.1A201.71,201.71,0,0,0,693.75,1615a188.14,188.14,0,0,0,10.87-22.63c5-12,8.24-24.62,10.68-37.39,5.27-27.56,7.59-55.76,5.68-83.78a342.56,342.56,0,0,0-15-80.21,422.68,422.68,0,0,0-33.41-76.83c-14.22-25.66-31-49.63-48.95-72.8q-6.41-8.28-13.07-16.35c-3.92-4.76-12.12-7.47-18-7.47-6.26,0-13.73,2.78-18,7.47-4.46,4.86-7.78,11.24-7.47,18l.91,6.78a25.45,25.45,0,0,0,6.56,11.25Z"/><path d="M649.69,1435.32q-12,11.06-25,21l5.16-4a405.91,405.91,0,0,1-34.39,23.79c-12.09,7.47-24.57,14.33-37.34,20.57q-10.9,5.32-22.07,10l6.09-2.57a457.81,457.81,0,0,1-90.08,27.45q-13.23,2.58-26.6,4.39l6.78-.91-1.27.16a28.44,28.44,0,0,0-18,7.47,28.44,28.44,0,0,0-7.47,18l.91,6.78a25.54,25.54,0,0,0,6.56,11.26l5.16,4a25.32,25.32,0,0,0,12.87,3.48,518,518,0,0,0,58.6-10.81,456.6,456.6,0,0,0,50.07-15.69,499.21,499.21,0,0,0,53.24-23.56,418.81,418.81,0,0,0,43.81-26.1,440.26,440.26,0,0,0,44.48-34.63c1.53-1.36,3-2.74,4.56-4.12a26.22,26.22,0,0,0,0-36.06l-5.16-4a25.33,25.33,0,0,0-12.88-3.48l-6.77.91a25.45,25.45,0,0,0-11.26,6.56Z"/><path d="M714.23,1524.75a51.92,51.92,0,0,1,5.79-1.13l-6.78.91a71.07,71.07,0,0,1,18.77.17l-6.78-.91a92.18,92.18,0,0,1,23.21,6.36l-6.09-2.57c9.37,4,17.87,9.6,25.91,15.8l-5.16-4a179.92,179.92,0,0,1,15.5,13A135.86,135.86,0,0,1,791,1566.46l-4-5.16a184.74,184.74,0,0,1,23.71,40.82l-2.57-6.09a169.34,169.34,0,0,1,11.94,42.73l-.91-6.78a144.83,144.83,0,0,1,1.29,17,19.16,19.16,0,0,0,2.2,9.82,22.89,22.89,0,0,0,13.48,13.48,19.16,19.16,0,0,0,9.82,2.2l6.78-.91A25.45,25.45,0,0,0,864,1667c4.54-4.94,7.58-11.16,7.47-18a187.42,187.42,0,0,0-3.3-30.7,165.24,165.24,0,0,0-6-23A237.74,237.74,0,0,0,851,1568a187.94,187.94,0,0,0-10.59-19.09,227.15,227.15,0,0,0-15.5-21.25,127.11,127.11,0,0,0-11.78-12.77c-6.37-6-13.5-11.27-20.43-16.54a121.17,121.17,0,0,0-20.54-12.95c-9.32-4.51-19.11-8.26-29.32-10.14a130.52,130.52,0,0,0-18.49-2.22,98.55,98.55,0,0,0-18.29,1.46q-2.71.4-5.39,1.08a24.57,24.57,0,0,0-18.27,21.2,19.44,19.44,0,0,0,.46,10.17l2.57,6.09a25.63,25.63,0,0,0,9.15,9.15l6.09,2.57a25.58,25.58,0,0,0,13.56,0Z"/><path d="M616.83,1311.91a341.86,341.86,0,0,1-32.36,28.48l5.16-4a360.06,360.06,0,0,1-61.88,38.4q-9.22,4.52-18.68,8.51l6.09-2.57a371.41,371.41,0,0,1-70.51,21.77q-10.15,2.06-20.43,3.53A28.62,28.62,0,0,0,409,1417.76a19,19,0,0,0-3,9.48,19.34,19.34,0,0,0,.45,10.17l2.57,6.09a25.55,25.55,0,0,0,9.15,9.15l6.09,2.57a25.58,25.58,0,0,0,13.56,0,368.64,368.64,0,0,0,88.09-24.12,421.44,421.44,0,0,0,46.46-22.16A356.47,356.47,0,0,0,610,1384.47a388.33,388.33,0,0,0,38.85-32.55q2-2,4-4a26.24,26.24,0,0,0,0-36.06l-5.17-4a25.37,25.37,0,0,0-12.87-3.49l-6.77.91a25.58,25.58,0,0,0-11.26,6.56Z"/><path class="cls-2" d="M174.05,1081.28v3.78H151c-3.18,11-10.5,19-27.41,23.22a13.59,13.59,0,0,0-2.34-3.36c15.47-3.72,22.43-10.44,25.55-19.86H121.2v-3.78h26.63c1.62-7.44,1.56-16.38,1.62-26.76h4.08c-.06,10.14-.06,19.08-1.62,26.76Zm-36.54-3.36c-2.82-2.4-8.63-5.64-13.43-7.56l2.46-2.76c4.67,1.74,10.55,4.8,13.55,7.26Zm5.46-11c-2.88-2.4-8.76-5.46-13.55-7.32l2.22-2.88c4.74,1.74,10.67,4.62,13.61,7Zm8.82,23.94c8.4,4,16.92,9.36,22,13.8l-2.7,3c-4.86-4.56-13.14-9.9-21.36-14Z"/><path class="cls-2" d="M141.23,1334l.48,3.42c-7.38,2.1-15.05,4.26-20.75,5.82l-1-3.72c1-.24,1.92-.48,3-.72v-20.52h3.36v19.62l4.62-1.14v-24.36h-7.86v-18h17v18h-5.57v8.64H141v3.6h-6.47v11.16Zm-14.69-25.14h9.9V1298h-9.9Zm47.87,1v9.78h-3.66v-6.48H146v6.48h-3.6v-9.78h19.14a87.44,87.44,0,0,0,3.06-8.94l3.66,1.08c-1,2.52-2.22,5.52-3.3,7.86Zm-.72-9.06H143.27v-3.42h13.08a33.18,33.18,0,0,0-1.68-4.86l3.6-1a28.62,28.62,0,0,1,2.16,5.82h13.26Zm-2.28,35.58c0,1.92-.3,2.88-1.62,3.48s-3.42.66-6.48.66a15.27,15.27,0,0,0-1.14-3.42c2.4.06,4.26.06,4.92,0s.78-.18.78-.72V1324.2h-8v22.32h-3.66V1324.2h-7.5v16h-3.48v-19.44h11V1315h3.66v5.76h11.58Zm-20.58-26.58a40,40,0,0,0-2.46-8l3.18-.72a49.87,49.87,0,0,1,2.64,7.8Z"/><path class="cls-2" d="M1020.83,1612v3.24c0,10-.77,24.42-6.65,34.2a15.57,15.57,0,0,0-3.48-2c5.64-9.36,6.18-22.68,6.18-32.1v-17.52h44.45V1612Zm0-10.68v7.14h36.48v-7.14Zm37,43.68c2.7,0,3.18-1.14,3.48-6.78a13.21,13.21,0,0,0,3.66,1.56c-.6,7-1.8,8.88-6.9,8.88h-12.54c-6,0-7.68-1.32-7.68-6.3v-4.92l-15.71,2.46-.6-3.36,16.31-2.52v-5.88l-13.61,2.1-.66-3.24,14.27-2.28v-5.46c-4.26.78-8.69,1.38-12.77,1.92a13.55,13.55,0,0,0-1.14-2.94c10.14-1.32,21.95-3.48,28.25-5.88l3.42,2.64a110.17,110.17,0,0,1-13.86,3.54v5.64l17.22-2.64.6,3.24-17.82,2.76v5.88l21.48-3.36.6,3.3-22.08,3.48v5.46c0,2.22.66,2.7,4,2.7Z"/><path class="cls-2" d="M139.43,1506.6c0,2.22-.48,3.42-1.86,4.14s-3.72.78-7.61.72a16.66,16.66,0,0,0-1.2-3.78c2.76.12,5.22.06,5.93.06s1.08-.3,1.08-1.14v-18.06c-2.21,1.62-4.44,3.3-6.53,4.8l-1.92-3.18c-.42,7.44-1.62,15.48-4.44,21.48a11.57,11.57,0,0,0-3.24-1.92c4.08-8.46,4.38-20.46,4.38-29.22V1459h15.41Zm-11.81-26.16c0,2.88-.06,6.12-.24,9.54,2.16-1.14,5.16-3.06,8.39-5v-7.32l-2,1.62a55.6,55.6,0,0,0-6.17-6.84Zm0-17.7v9.6l2.4-1.74a58.22,58.22,0,0,1,5.75,5.88v-13.74Zm43.49,29.64a30,30,0,0,1-9.36,10.92,53.32,53.32,0,0,0,13.62,4.44,17.72,17.72,0,0,0-2.52,3.48,52.28,52.28,0,0,1-14.7-5.64,55,55,0,0,1-16,5.94,12.49,12.49,0,0,0-1.92-3.18,53,53,0,0,0,14.52-4.8,51,51,0,0,1-6.72-5.58,49.35,49.35,0,0,1-5.4,4.26,24.73,24.73,0,0,0-2.82-2.76,34.8,34.8,0,0,0,5.82-4.2,37.57,37.57,0,0,1-3.36-4.92l2.88-1.14A31.89,31.89,0,0,0,148,1493a29.64,29.64,0,0,0,4.26-5.64h-6.6v-15.66a33.57,33.57,0,0,1-2.64,3,23.84,23.84,0,0,0-3.24-2.64,41.18,41.18,0,0,0,9.9-15.3l3.84,1a34.53,34.53,0,0,1-2,4.62H174v3.54H149.57c-.9,1.5-1.86,2.88-2.76,4.26h24.36v17.16H155.75l.54.18a29.09,29.09,0,0,1-2.4,3.84h13.92l.78-.18Zm-21.84-15h18.06V1473H149.27Zm0,7.14h18.06v-4.44H149.27Zm2.16,10c-.36.36-.66.78-1,1.14a45.51,45.51,0,0,0,7.8,5.82,27.09,27.09,0,0,0,7.32-7Z"/><path class="cls-2" d="M210.55,1088.81A331.68,331.68,0,0,0,256,1114a343.88,343.88,0,0,0,48.89,17.93,349.47,349.47,0,0,0,50.84,10.35,342.94,342.94,0,0,0,52.14,2.67,333.26,333.26,0,0,0,51.59-5.33c2.1-.38,4.2-.79,6.29-1.21,1.42-.29.82-2.46-.6-2.17a329.12,329.12,0,0,1-51.31,6.25,344.43,344.43,0,0,1-151.25-28,331.28,331.28,0,0,1-45.57-24.13q-2.7-1.71-5.37-3.48c-1.21-.8-2.34,1.15-1.14,1.94Z"/><path class="cls-2" d="M191.51,1329.23a50.42,50.42,0,0,0,44.77-14.31c1-1-.58-2.64-1.59-1.59a48.11,48.11,0,0,1-42.58,13.73c-1.41-.26-2,1.91-.6,2.17Z"/><path class="cls-2" d="M186.2,1353.8c12.3,15,25.56,29.3,36.78,45.19,5.66,8,10.78,16.39,15.63,24.91a261.19,261.19,0,0,1,13.29,26.5c3.95,9.21,7.2,18.73,10.58,28.17,3.32,9.28,6.55,18.59,9.59,28a483.71,483.71,0,0,1,15.31,58,289.16,289.16,0,0,1,5.43,60.79q-.09,3.84-.3,7.68c-.08,1.45,2.17,1.44,2.25,0a280.53,280.53,0,0,0-3.84-61.45,444.06,444.06,0,0,0-14.52-58.81c-5.94-19-12.49-37.91-19.69-56.46s-16.82-36-27.69-52.43-24-31-36.58-46q-2.34-2.79-4.64-5.61c-.92-1.12-2.51.48-1.6,1.6Z"/><path class="cls-2" d="M194,1488.71c22,4.35,43.93,8.67,66.06,12.09a545.39,545.39,0,0,0,65.89,6.61,345.26,345.26,0,0,0,36.82-.74c1.44-.11,1.45-2.36,0-2.25a381.41,381.41,0,0,1-65.35-1.12c-22.17-2.11-44.18-5.65-66.08-9.67-12.27-2.25-24.51-4.67-36.75-7.09-1.41-.28-2,1.89-.59,2.17Z"/><path class="cls-2" d="M990.16,1624.54a139.1,139.1,0,0,0-70.49-8.69,137.69,137.69,0,0,0-20,4.32,1.13,1.13,0,0,0,.6,2.17,135.73,135.73,0,0,1,70.07-1.77,141.41,141.41,0,0,1,19.19,6.14c1.35.54,1.93-1.64.6-2.17Z"/></svg>