<svg id="Layer_1" data-name="Layer 1" xmlns="http://www.w3.org/2000/svg" viewBox="0 0 1242 2208"><defs><style>.cls-1{fill:#f6eabe;}.cls-2{fill:#999;}.cls-3,.cls-4,.cls-5{fill:none;}.cls-4,.cls-5{stroke:#000;stroke-miterlimit:10;stroke-width:50px;}.cls-5{stroke-linecap:round;}</style></defs><rect class="cls-1" width="1242" height="2208"/><path d="M960.91,733.2H630.61V852.3h-52.4V733.2h-324V684.77h324V616.49H337.63V310.8H578.21V248.87H278.88V200.44H578.21V128.18h52.4v72.26H933.12v48.43H630.61V310.8H877.54V616.49H630.61v68.28h330.3ZM388.45,441.81H578.21V355.26H388.45ZM578.21,572V484.68H388.45V572Zm52.4-216.76v86.55H824.35V355.26ZM824.35,484.68H630.61V572H824.35Z"/><rect class="cls-2" x="1113" y="434" width="65" height="126" rx="12"/><path class="cls-1" d="M1132.7,463.82c1.25,1.6,4.9,6.7,5.7,8.05l-2,2.45c-.7-1.5-2.35-4.4-3.75-6.65V494h-3.15V469.57c-1.5,5.05-3.5,9.9-5.55,12.85a14.83,14.83,0,0,0-1.75-3.1c2.9-4,5.8-11.5,7.2-18h-6.2v-3.15h6.3v-9.65h3.15v9.65h5.45v3.15h-5.45Zm19.1.7a19.47,19.47,0,0,0,.45,2.65c-10.15,2.7-11.6,3.15-12.5,3.75a12.13,12.13,0,0,0-1.1-3.2c.7-.2,1.55-.5,1.55-2.2v-16.7h3.25v6.5h8.35v2.9h-8.35v8.3Zm2.35,5.5-2,3.75h12.65V494h-3.4v-1.75h-17v2h-3.3V473.77h7.9c.55-1.5,1.2-3.25,1.55-4.6Zm7.3,6.5h-17v5.05h17Zm0,13v-5.3h-17v5.3Zm2.25-22.4c1.25,0,1.5-.75,1.65-5.25a9.16,9.16,0,0,0,2.85,1.25c-.3,5.45-1.2,6.95-4.15,6.95h-5.85c-3.65,0-4.55-.95-4.55-4.45V448.87h3.25v6.5h10.2v2.9h-10.2v7.35c0,1.3.25,1.5,1.65,1.5Z"/><path class="cls-1" d="M1167.55,523.87v2.5H1123.4v-2.5h20.25v-3.2H1126.8v-2.3h16.85v-3H1128.2v-2.25h15.45v-3.2H1123.5v-2.5h20.15v-3.05H1128.8V502h14.85v-3.55h3.25V502h14.45v5.4h6.15v2.5h-6.15v5.45H1146.9v3h17.3v2.3h-17.3v3.2Zm-37.75,5h31.75v15.25h-3.25v-1.6H1133v1.7h-3.2Zm3.2,2.4v3.2h25.3v-3.2Zm25.3,8.85v-3.4H1133v3.4Zm-11.4-32.7h11.15v-3.05H1146.9Zm0,5.7h11.15v-3.2H1146.9Z"/><path d="M354.92,1857.69a98.85,98.85,0,0,1-6.18,13.56v39.59H344.9v-33.35a61.73,61.73,0,0,1-5.46,7,32.86,32.86,0,0,0-2.28-3.9c5.58-5.87,10.8-14.87,14-24Zm34.2,29.21c-2,1.38-4.44,2.7-6.84,4,2,5.82,5.82,11.16,10.62,13.62a15.86,15.86,0,0,0-2.64,3.06c-4.92-3-8.76-8.76-10.86-15.3-1,.54-2.1,1-3.12,1.5,2.1,6.3,1.26,12.72-1.38,15.24a6.51,6.51,0,0,1-5,1.92c-1,0-2.4-.06-3.72-.12a9.47,9.47,0,0,0-1-3.48,34.56,34.56,0,0,0,4,.24,3.38,3.38,0,0,0,3-1.14c1.44-1.32,2.1-4.86,1.44-8.94a58.72,58.72,0,0,1-19.5,11.4,11.72,11.72,0,0,0-2.34-2.82c7.44-2.22,16.26-7,21.12-11.82a24.37,24.37,0,0,0-1.62-3.66,57.71,57.71,0,0,1-16.74,9.66,16.14,16.14,0,0,0-2.22-2.64c5.82-1.74,13.38-5.58,17.52-9.3a16.53,16.53,0,0,0-2.82-3,39.59,39.59,0,0,1-12.3,6.17,14.66,14.66,0,0,0-2.28-2.58c6.54-2.1,10.86-4.62,13.68-7.26h-9.54v-9.35c-1.08,1-2.22,1.92-3.42,2.88a9.81,9.81,0,0,0-2.64-2.53,45.41,45.41,0,0,0,13.92-16.25l3.84.72a35.7,35.7,0,0,1-2,3.54h11.1l.78-.18,2.34,1.68a52.13,52.13,0,0,1-4.8,6.84h13v12.65H370.7a15.52,15.52,0,0,1-1.38,1.63,22.17,22.17,0,0,1,6,7.85,120.47,120.47,0,0,0,11.1-6.66Zm-25-23.09a54.58,54.58,0,0,1-4.2,5.16h11.58a33.35,33.35,0,0,0,3.72-5.16Zm-4,14.69h8.64a15.14,15.14,0,0,0,2.46-6.42h-11.1Zm24.72-6.42H374.6a18.56,18.56,0,0,1-1.8,6.42h12.06Z"/><path d="M452.36,1880.91v4.31H397.88v-4.31Z"/><path d="M477.56,1895.36l-5.64,1.5v13.86H468.5v-13c-3.54,1-7,1.8-9.84,2.58l-.9-3.78c2.94-.6,6.66-1.5,10.74-2.46v-8.52h-4.86c-2,0-3.66.36-4.14.84a21.81,21.81,0,0,0-1.2-3.48c.9-.23,1.62-2.22,2.4-4.91a92,92,0,0,0,2.7-10.86h-5.28v-3.54h5.94a71.59,71.59,0,0,0,1-7.2l3.72.6c-.3,2.16-.6,4.38-1,6.6H477v3.54H467a115.15,115.15,0,0,1-4,14.75h5.52v-9.23h3.42v9.23h5v3.66h-5v7.74l5.34-1.32Zm23.4-31.31v9h9.12v33.18c0,2-.42,3.06-1.86,3.66s-4.08.6-7.8.6a14.14,14.14,0,0,0-1.08-3.3c3,.06,5.52.06,6.3,0s1-.24,1-1v-29.51H501c-.06,2-.12,4.19-.36,6.53a85.55,85.55,0,0,1,6,13.2l-2.34,1.8a76.4,76.4,0,0,0-4.2-10.32,37.06,37.06,0,0,1-4.62,13.92,10,10,0,0,0-2.28-2.22c3.9-6.42,4.56-16,4.68-22.91h-5.76c-.06,2.1-.18,4.43-.48,6.89a46.55,46.55,0,0,1,4,8.82l-2.22,1.8a45.78,45.78,0,0,0-2.4-6.24,35.15,35.15,0,0,1-4.86,12.84,12.13,12.13,0,0,0-2.4-2.22c4.26-6.24,5.1-15.17,5.28-21.89h-5.7V1911h-3.54V1873H489v-9h-10.5v-3.72h33.18v3.72Zm-3.12,0h-5.7v9h5.7Z"/><path d="M571.28,1899.44H549.74V1911h-4.2v-11.58H519v-3.9h26.58V1886h-14c-3.6,0-5.7.36-6.3.84a35.25,35.25,0,0,0-1.5-4.08c1.26-.3,2.52-2.09,4.08-4.73a90.2,90.2,0,0,0,5-9.12h-13v-3.84h14.76c1.32-2.88,2.58-6,3.6-9l4.44,1.32c-1.08,2.58-2.16,5.16-3.42,7.68h30.9v3.84h-32.7a122.81,122.81,0,0,1-7.74,13.31h15.84v-9.3h4.2v9.3h16.5V1886h-16.5v9.54h21.54Z"/><path d="M594,1857c-1,2.94-2.1,6.3-3.18,8.88H601v38.75h-16.8v4.8h-3.66v-43.55h6.66a64.68,64.68,0,0,0,2.58-9.72Zm3.3,12.47H584.18v13.08h13.14Zm0,31.56v-14.88H584.18v14.88Zm33.06-33.17c-1,27.53-1.8,36.71-4.2,39.59a5.6,5.6,0,0,1-4.56,2.28,74.94,74.94,0,0,1-8.82-.12,9.42,9.42,0,0,0-1.32-3.9c3.9.36,7.5.36,8.82.36s1.92-.12,2.52-.9c2-2.1,2.94-11.34,3.72-35.7H610.82a55.33,55.33,0,0,1-5.64,10.68,36.22,36.22,0,0,0-3.36-2.22c4.08-5.34,7.32-13.61,9.18-21.89l3.84.84c-.78,3-1.62,6-2.64,8.88h18.18Zm-12.78,27a106.51,106.51,0,0,0-9.3-13.92l3.06-1.79a102.47,102.47,0,0,1,9.6,13.61Z"/><path d="M657.5,1886l-7.44,2.4v17.82c0,2.4-.54,3.42-2,4.08s-3.84.72-7.74.72a15.89,15.89,0,0,0-1.32-3.66c2.82.06,5.34.06,6.06.06s1.14-.3,1.14-1.14V1889.6c-2.94,1-5.7,1.8-8.16,2.58l-1.14-3.9c2.58-.72,5.82-1.61,9.3-2.7v-13.31h-8.46v-3.78h8.46v-12.12h3.84v12.12h6.84v3.78h-6.84v12.23l7-2.09Zm33.72-15.89v40.31h-4v-3.84H663v4.26h-3.78v-40.73H673v-13.68h3.78v13.68ZM663,1874v12.23h10V1874Zm0,28.85h10V1890H663Zm13.8-28.85v12.23h10.5V1874Zm10.5,28.85V1890h-10.5v12.84Z"/><path d="M746.18,1885.1c-2.52,1.68-5.52,3.48-8.58,5.1,2.52,5.28,7.26,11.28,14.22,14.16a13.37,13.37,0,0,0-2.64,3.42c-7.14-3.54-12.12-10.38-14.7-16-1.14.6-2.4,1.2-3.54,1.74,3.06,6.36,2.1,12.54-1.92,15.12a10.18,10.18,0,0,1-6.12,1.74c-1.38,0-3.24-.06-5.16-.18a10.77,10.77,0,0,0-1.14-3.66,52.84,52.84,0,0,0,5.58.3,6.77,6.77,0,0,0,4.32-1.08c2.46-1.56,3.24-5.52,1.38-10-6.6,5.1-16.86,9.72-25.08,12.06a15,15,0,0,0-2.4-3.06c9-2.1,20-6.84,26.1-11.88a30.64,30.64,0,0,0-2.52-3.36c-5.34,3.9-13.8,7.5-20.4,9.3a14.61,14.61,0,0,0-2.34-2.82c7-1.62,15.66-5,20.64-8.58a40.11,40.11,0,0,0-4.26-3.36,58.4,58.4,0,0,1-16.32,7.08,14,14,0,0,0-2-3,51.87,51.87,0,0,0,16.26-6.48H704.78v-9.83c-1.2.83-2.4,1.55-3.72,2.33a14.34,14.34,0,0,0-2.64-2.75c8-4.32,14.16-10.32,17.4-15.24l4.2.84c-.84,1.2-1.68,2.28-2.7,3.48h13.56l.66-.24,2.7,1.8a39.73,39.73,0,0,1-4.74,6.48h16.2v13.13H720.86l-.48.42a30.06,30.06,0,0,1,9.12,8.88,101.82,101.82,0,0,0,13.5-8.21Zm-26.64-6.6a25.27,25.27,0,0,0,5.28-6.83H708.56v6.83Zm-5.1-14.87a59.64,59.64,0,0,1-5.28,4.86h15.66a38,38,0,0,0,3.84-4.86Zm27.36,8H728.66a28.09,28.09,0,0,1-4.56,6.83h17.7Z"/><path d="M773.6,1886.48a55.25,55.25,0,0,1-12.66,19.08,26.09,26.09,0,0,0-3.54-2.4,46.53,46.53,0,0,0,12.12-17.7Zm37.62-11.1v4H787.16v26.34c0,2.7-.72,3.84-2.64,4.56s-5.52.72-10.8.72a16.61,16.61,0,0,0-1.44-4.2c4.2.12,8,.18,9.12.12s1.5-.36,1.5-1.32v-26.22H758.72v-4ZM806,1864.89H764.06v-4H806Zm-6.3,20.75c4.44,5.58,9.18,13.14,11,18.18l-4,1.74c-1.62-5-6.24-12.72-10.68-18.48Z"/><path d="M819.08,1907.48c3.06-2.58,5.64-7,7.08-10.44l3.3,1.5c-1.68,3.6-4.08,8-7.14,10.86Zm51.72-36.9v3.25H819.56v-3.25h14.16a23.89,23.89,0,0,0-2.34-5.45l3.36-.84H822.26V1861h21.9c-.72-1.44-1.56-2.94-2.34-4.2l3.78-.9a39.9,39.9,0,0,1,2.94,5.1h19.2v3.3H855.86l3.24.78c-1,1.92-2,3.84-3,5.51Zm-7,23.7H842.66a47.07,47.07,0,0,1,8.82,6.24L849,1903a48.61,48.61,0,0,0-9.3-6.9l2-1.8H826.58V1877h37.2Zm-3.9-14.45H830.36v4.43h29.52Zm0,7.13H830.36v4.44h29.52Zm-8.22,20.16c2.58,0,3-.72,3.24-6.24a12.08,12.08,0,0,0,3.54,1.38c-.48,6.66-1.74,8.22-6.42,8.22H840.44c-5.82,0-7.38-1-7.38-5v-8H837v8c0,1.38.54,1.68,3.72,1.68ZM835,1864.29a26.19,26.19,0,0,1,2.76,6.18l-.48.11H852a59.18,59.18,0,0,0,3.06-6.29Zm27.66,32.21a46.55,46.55,0,0,1,8,10.2l-3.36,1.74a49,49,0,0,0-7.8-10.56Z"/><path d="M879,1909.7c4.68-2,7.26-4.92,7.56-9.18a7.35,7.35,0,0,1-1.14.12c-2.34,0-4.26-1.38-4.26-4.08a4,4,0,0,1,4.32-4.14c3.18,0,4.86,2.64,4.86,6.66,0,6.48-4,11.28-10.08,13.44Z"/><path d="M287.36,1952.91v4.31H232.88v-4.31Z"/><path d="M306.26,1939.89h7.2v3.78h-7.2v3.06c1.62,2.22,6,8.94,7,10.67l-2.4,2.88c-.84-1.86-2.88-5.64-4.56-8.64v31.26h-3.72v-30.23c-2.1,6.95-5,13.79-7.92,17.87a21,21,0,0,0-2.22-3.72c3.9-5.1,7.8-14.75,9.72-23.15H293.3v-3.78h9.24v-11.58h3.72Zm39.6,22.07a77.93,77.93,0,0,1-10.68,7.26,27,27,0,0,0,12.42,9.84,19.57,19.57,0,0,0-2.76,3.48c-9.72-4.32-15.66-13.56-18.78-25.5h-6.3v20.46l11.34-2.76a20.69,20.69,0,0,0,.18,3.48c-12.48,3.48-14.22,4-15.3,4.8a18.6,18.6,0,0,0-1.68-3.48c.72-.42,1.56-1.08,1.56-3.36V1931h26.46v26H329.6a40.25,40.25,0,0,0,3.78,9.3,76.49,76.49,0,0,0,9.84-7.13Zm-26.1-27.41v7.68h18.66v-7.68Zm0,19h18.66v-7.92H319.76Z"/><path d="M406.28,1971.44H384.74V1983h-4.2v-11.58H354v-3.9h26.58V1958h-14c-3.6,0-5.7.36-6.3.84a35.25,35.25,0,0,0-1.5-4.08c1.26-.3,2.52-2.09,4.08-4.73a90.2,90.2,0,0,0,5-9.12h-13v-3.84h14.76c1.32-2.88,2.58-6,3.6-9l4.44,1.32c-1.08,2.58-2.16,5.16-3.42,7.68h30.9v3.84h-32.7a122.81,122.81,0,0,1-7.74,13.31h15.84v-9.3h4.2v9.3h16.5V1958h-16.5v9.54h21.54Z"/><path d="M435.68,1968l-6.48,1.38v13.32h-3.6v-12.6c-4.32.9-8.34,1.74-11.76,2.34l-.9-3.84,12.66-2.22v-8.88h-5.94c-2,0-3.84.36-4.32.84a28.07,28.07,0,0,0-1.2-3.6c1-.24,1.74-2.22,2.76-4.85a103.9,103.9,0,0,0,3.24-10.8h-6.72v-3.72H421c.48-2.28,1-4.68,1.26-7l4,.84c-.42,2-.84,4.14-1.38,6.18h10.2v3.72H424a133.11,133.11,0,0,1-5,14.76h6.6v-9.3h3.6v9.3h5.88v3.65H429.2v8.22l6.24-1.2Zm29.82-27v41.57h-3.78v-2.88H441.5v3.3h-3.6v-42h11.88v-12.6h4V1941Zm-24,3.59V1958h8.4v-13.38Zm0,31.44h8.4V1961.6h-8.4Zm20.22-31.44h-8.16V1958h8.16Zm0,31.44V1961.6h-8.16v14.46Z"/><path d="M497.48,1968.62a99.92,99.92,0,0,0-9.3-14.87c-2,12-5.34,21.83-11.52,29.21a32.41,32.41,0,0,0-3.78-2.76c9.84-10.56,12.24-28.25,13.26-50.39l4.26.18c-.36,6.66-.84,12.84-1.56,18.54,4.56,5.46,9.42,12.59,11.64,17.33Zm15.78-38.69c-.48,7.14-1.14,13.61-2.1,19.56,2.1,10.13,6.78,23,16,29.27a24.62,24.62,0,0,0-2.88,3.54c-7.56-5.82-12.12-15.66-14.76-24.59-2.52,10.43-6.6,18.71-13.44,25a28,28,0,0,0-3.78-2.76c12.06-10,15.3-27.24,16.62-50.21Z"/><path d="M586.76,1976.18v4H533.3v-4h22.62v-46.85h4.14v18.54h22.62v4H560.06v24.3Z"/><path d="M611.78,1972.88c4.2-.78,8.52-1.5,12.72-2.34l.24,3.48c-10.62,2.1-22,4.32-29.88,5.76l-.84-3.72c3.72-.66,8.58-1.5,13.92-2.46v-10.44H596.12v-3.6h11.82v-6.65h3.84v6.65H624v3.6H611.78Zm-17.28-40.49h30.6v3.54H608.84a79,79,0,0,1-7.26,11.69l16.2-1.43c-1.56-2.16-3.18-4.32-4.68-6.18l2.88-1.74a88.33,88.33,0,0,1,9.12,12.83l-3,2a36.18,36.18,0,0,0-2.28-3.83c-19,1.92-21.18,2.16-22.5,2.75a24.8,24.8,0,0,0-1.38-3.77c1-.19,1.86-1.27,2.88-2.65a55.36,55.36,0,0,0,5.58-9.65h-9.9Zm37.86,37.13h-3.72v-36h3.72Zm12-40.13v47c0,2.64-.66,3.84-2.34,4.5s-4.92.78-9.18.78a16.81,16.81,0,0,0-1.56-4c3.6.12,6.9.12,7.92.06s1.26-.3,1.26-1.26v-47Z"/><path d="M681,1936.71v10.86l.66-.78c7.32,3.54,16.74,8.93,21.54,12.53l-2.76,3.6c-4.2-3.42-12.48-8.46-19.44-12.12v32.1h-4.2v-46.19H653.54v-4h53v4Z"/><path d="M766.28,1938.63V1942h-7.62l-1,8.27H720.44l1.5-8.27h-8.22v-3.36h8.88l1.5-8h35.76l-.84,8ZM741.92,1965c0,5.94-2.58,13.32-25.26,18a18.12,18.12,0,0,0-2.4-3.12c21.84-4,23.58-10.26,23.58-15v-5.28h4.08Zm12.84,7.5v-15.66H725.9v16h-4v-19.2h37v18.9ZM724.88,1947h12.48c.36-1.5.72-3.42,1-5.28H726Zm2.58-13.2-1,5h12.42c.24-1.74.54-3.42.72-5ZM754,1947l.6-5.28H742.16c-.3,1.92-.66,3.78-1,5.28Zm-10.44,24.29a141.32,141.32,0,0,1,22.44,8.34l-2.22,3.36a136.68,136.68,0,0,0-22.26-8.76Zm11.94-37.49H743.36q-.36,2.43-.72,5h12.3Z"/><path d="M811.82,1962.8h13.44v3.54H811.82v11.76c0,2.4-.6,3.48-2.34,4.08s-4.74.66-9.36.66a17.26,17.26,0,0,0-1.5-3.72c3.78.12,7.08.12,8,.06s1.26-.3,1.26-1.14v-11.7h-.42c-7.56,6.48-20.64,11.7-31.68,14a20.32,20.32,0,0,0-2.4-3.3c10-1.86,21.6-5.88,29-10.74h-23a93.11,93.11,0,0,0,2.7-10.55l4,.42c-.48,2.15-1.14,4.49-1.74,6.59h23.58v-8.34H778.22V1951h.9l-2.16-2.88a71.7,71.7,0,0,0,15.9-7.86l3,1.92a85.69,85.69,0,0,1-16.2,8.82h43.86v3.47h-11.7Zm13.44-28.37v9.3h-4v-5.82H778.88v5.82H775v-9.3h23.76a34.29,34.29,0,0,0-3.24-5l3.78-1.38a44.36,44.36,0,0,1,4.2,6.36l-.12.06Zm-18.84,5.88a100.15,100.15,0,0,1,16.2,7.56l-2,2.93a99.46,99.46,0,0,0-16.14-8Z"/><path d="M886.28,1971.44H864.74V1983h-4.2v-11.58H834v-3.9h26.58V1958h-14c-3.6,0-5.7.36-6.3.84a35.25,35.25,0,0,0-1.5-4.08c1.26-.3,2.52-2.09,4.08-4.73a90.2,90.2,0,0,0,5-9.12h-13v-3.84h14.76c1.32-2.88,2.58-6,3.6-9l4.44,1.32c-1.08,2.58-2.16,5.16-3.42,7.68h30.9v3.84h-32.7a122.81,122.81,0,0,1-7.74,13.31h15.84v-9.3h4.2v9.3h16.5V1958h-16.5v9.54h21.54Z"/><path d="M915.14,1968.08l-7.38,1.5v13.14h-3.6v-12.36c-3.9.78-7.44,1.5-10.56,2.1l-.9-3.84c3.12-.48,7.08-1.2,11.46-2v-9.06h-5c-2,0-3.72.36-4.2.84a16.88,16.88,0,0,0-1.2-3.42c1-.3,1.74-2.27,2.7-4.91a90,90,0,0,0,3.24-10.68h-6.6v-3.78h7.44a72.39,72.39,0,0,0,1.32-7.2l3.72.78c-.36,2.1-.84,4.32-1.38,6.42H914v3.78H903.26a121.41,121.41,0,0,1-4.74,14.52h5.64v-9.3h3.6v9.3h6.12v3.65h-6.12V1966l7.14-1.32ZM933,1929c-.3.78-.6,1.5-1,2.22,3.48,7.08,9.78,14.69,15.24,18.48a17.12,17.12,0,0,0-2.82,3.12c-4.92-3.91-10.5-10.8-14.34-17.64a56.71,56.71,0,0,1-14.7,18.11,14.81,14.81,0,0,0-2.82-2.88,50.49,50.49,0,0,0,16.26-22.13Zm5.22,48.83c2.52,0,3-1.26,3.24-8.22a13,13,0,0,0,3.6,1.62c-.48,8-1.62,10.2-6.54,10.2H927.92c-5.58,0-7.08-1.32-7.08-6.12v-25h4v12.18a110.91,110.91,0,0,0,14.34-9.42l2.76,3.31a126.69,126.69,0,0,1-17.1,10.13v8.76c0,2.16.54,2.58,3.42,2.58Z"/><path d="M969.14,1946h10.74v3.72H969.14v1.62c2.22,2.39,8.7,10,10.14,11.87l-2.46,3.24a129,129,0,0,0-7.68-10.49v26.93h-4v-27.17c-3,7.07-7.2,14.21-11.1,18.41a28.3,28.3,0,0,0-2.22-3.66c4.56-4.62,9.6-13.08,12.36-20.75H953.24V1946h11.88v-10.32c-3.42.54-6.9,1-10.14,1.44a15.29,15.29,0,0,0-1.08-3.18c7.92-1.08,17.52-2.82,22.68-5l2.76,3.12a83.55,83.55,0,0,1-10.2,2.82Zm34.74-12.06V1980h-4v-4.56h-14v5H982v-46.49Zm-4,37.67v-33.83h-14v33.83Z"/><path d="M358.28,2004.33c-1.86,5-4.32,11.28-6.48,16.2,4.74,5.15,5.88,9.59,5.88,13.43,0,3.12-.72,5.7-2.4,6.9A8,8,0,0,1,352,2042a35.41,35.41,0,0,1-4.38.06,8.3,8.3,0,0,0-1.08-3.66,30.05,30.05,0,0,0,4,.06,3.78,3.78,0,0,0,2.1-.6c1-.66,1.32-2.46,1.32-4.26,0-3.48-1.2-7.68-5.94-12.6,2-4.55,4-10.19,5.4-14.45h-9.48V2055h-3.72v-52.07H355l.6-.18Zm12.66,9.9c-.12,3.23-.24,6.35-.48,9.41h17.82s-.06,1.38-.06,1.92c-.72,18.66-1.38,25.32-3.18,27.48a5.24,5.24,0,0,1-4,1.86,65.45,65.45,0,0,1-8.22-.12,10.84,10.84,0,0,0-1.2-3.9c3.36.3,6.6.36,7.8.36a2.5,2.5,0,0,0,2.22-.78c1.26-1.44,2-7.26,2.58-23.09H370c-1.32,11.75-4.92,21.65-15.3,27.47a12,12,0,0,0-2.64-2.88c13.32-7.26,14.46-21.71,14.88-37.73H357.2v-3.72h34.62v3.72Zm2.94-3.84a75.22,75.22,0,0,0-2.82-9l3.66-.84a73.26,73.26,0,0,1,2.88,8.7Z"/><path d="M451.7,2048.12v3.9H398.18v-3.9h8.4v-34.5h4.08v34.5h14.52v-47.57h4.14v20h19.8v4h-19.8v23.58Z"/><path d="M511.28,2043.44H489.74V2055h-4.2v-11.58H459v-3.9h26.58V2030h-14c-3.6,0-5.7.36-6.3.84a35.25,35.25,0,0,0-1.5-4.08c1.26-.3,2.52-2.09,4.08-4.73a90.2,90.2,0,0,0,5-9.12h-13v-3.84h14.76c1.32-2.88,2.58-6,3.6-9l4.44,1.32c-1.08,2.58-2.16,5.16-3.42,7.68h30.9v3.84h-32.7a122.81,122.81,0,0,1-7.74,13.31h15.84v-9.3h4.2v9.3h16.5V2030h-16.5v9.54h21.54Z"/><path d="M540.14,2040.08l-7.38,1.5v13.14h-3.6v-12.36c-3.9.78-7.44,1.5-10.56,2.1l-.9-3.84c3.12-.48,7.08-1.2,11.46-2v-9.06h-5c-2,0-3.72.36-4.2.84a16.88,16.88,0,0,0-1.2-3.42c1-.3,1.74-2.27,2.7-4.91a90,90,0,0,0,3.24-10.68h-6.6v-3.78h7.44a72.39,72.39,0,0,0,1.32-7.2l3.72.78c-.36,2.1-.84,4.32-1.38,6.42H539v3.78H528.26a121.41,121.41,0,0,1-4.74,14.52h5.64v-9.3h3.6v9.3h6.12v3.65h-6.12V2038l7.14-1.32ZM558,2001c-.3.78-.6,1.5-1,2.22,3.48,7.08,9.78,14.69,15.24,18.48a17.12,17.12,0,0,0-2.82,3.12c-4.92-3.91-10.5-10.8-14.34-17.64a56.71,56.71,0,0,1-14.7,18.11,14.81,14.81,0,0,0-2.82-2.88,50.49,50.49,0,0,0,16.26-22.13Zm5.22,48.83c2.52,0,3-1.26,3.24-8.22a13,13,0,0,0,3.6,1.62c-.48,8-1.62,10.2-6.54,10.2H552.92c-5.58,0-7.08-1.32-7.08-6.12v-25h4v12.18a110.91,110.91,0,0,0,14.34-9.42l2.76,3.31a126.69,126.69,0,0,1-17.1,10.13v8.76c0,2.16.54,2.58,3.42,2.58Z"/><path d="M597.14,2049.74c0,2.16-.48,3.3-1.8,4s-3.66.72-7.56.72a15.08,15.08,0,0,0-1.14-3.66c2.76.12,5.16.06,5.88.06s1.08-.3,1.08-1.14v-14.94h-9.06c-.48,7-1.62,14.58-4.26,20.28a9.87,9.87,0,0,0-3.18-1.86c4-8.4,4.26-20.4,4.26-29.16v-21.47h15.78ZM593.6,2031v-10.68h-8.7V2024c0,2.17-.06,4.5-.12,7Zm-8.7-24.77v10.44h8.7v-10.44Zm42.78,44.27c1.32,0,1.56-1,1.68-7.5a13.1,13.1,0,0,0,3.48,1.56c-.36,7.62-1.38,9.54-4.86,9.54h-5.4c-3.9,0-4.86-1.2-4.86-5.34V2031h-5.34c-.9,10.74-3.18,19.26-12.66,24a10.25,10.25,0,0,0-2.46-3.06c8.52-4,10.38-11.58,11.16-20.94h-6.78v-18.71h15.9a73.43,73.43,0,0,0,5.88-11.94l4,1.44c-1.68,3.42-3.72,7.44-5.58,10.5h7.14V2031h-7.38v17.76c0,1.5.18,1.74,1.56,1.74Zm-20.28-50a36.51,36.51,0,0,1,5.1,10.14l-3.54,1.62A41,41,0,0,0,604,2002Zm-1.86,26.93h19.38v-11.57H605.54Z"/><path d="M648,2033.18a48.71,48.71,0,0,0-10.2-6.06l2.28-2.75a42.69,42.69,0,0,1,10.32,5.75Zm4.62-24.89H638.9v-3.6h13.68v-4.32h3.9v4.32h16.68v-4.32h3.9v4.32h14.16v3.6H677.06v5.28h-3.9v-5.28H656.48v5.28h-3.9ZM639,2051.72a165.13,165.13,0,0,0,11.88-15.36l2.4,2.82c-3.36,5.1-7.74,11.16-11.34,15.54Zm5.16-38.81a74.11,74.11,0,0,1,10.2,6l-2.52,3a69.44,69.44,0,0,0-10-6.3Zm44,4.55a39.82,39.82,0,0,1-10.92,11.34,70.44,70.44,0,0,0,15.9,6.36,16.59,16.59,0,0,0-2.52,3.3,72.53,72.53,0,0,1-16.74-7.5,69.28,69.28,0,0,1-13.74,6.36h26.58V2055h-4v-2.58H663.38V2055h-3.84V2037.5a38.59,38.59,0,0,1-4.26,1.32,10.61,10.61,0,0,0-2-3.24,67.36,67.36,0,0,0,17.28-6.72,58.12,58.12,0,0,1-7.92-6.53,53,53,0,0,1-6.84,6,10.76,10.76,0,0,0-2.82-2.41,46.42,46.42,0,0,0,13.62-14.39l3.9.72c-.78,1.25-1.62,2.46-2.52,3.78h17l.66-.18Zm-24.78,23.1v8.64h19.38v-8.64Zm1.56-20.81a44.13,44.13,0,0,0,8.94,7,36,36,0,0,0,8.52-7.55h-17Z"/><path d="M714,2001c-1,2.94-2.1,6.3-3.18,8.88H721v38.75h-16.8v4.8h-3.66v-43.55h6.66a64.68,64.68,0,0,0,2.58-9.72Zm3.3,12.47H704.18v13.08h13.14Zm0,31.56v-14.88H704.18v14.88Zm33.06-33.17c-1,27.53-1.8,36.71-4.2,39.59a5.6,5.6,0,0,1-4.56,2.28,74.94,74.94,0,0,1-8.82-.12,9.42,9.42,0,0,0-1.32-3.9c3.9.36,7.5.36,8.82.36s1.92-.12,2.52-.9c2-2.1,2.94-11.34,3.72-35.7H730.82a55.33,55.33,0,0,1-5.64,10.68,36.22,36.22,0,0,0-3.36-2.22c4.08-5.34,7.32-13.61,9.18-21.89l3.84.84c-.78,3-1.62,6-2.64,8.88h18.18Zm-12.78,27a106.51,106.51,0,0,0-9.3-13.92l3.06-1.79a102.47,102.47,0,0,1,9.6,13.61Z"/><path d="M811.28,2043.44H789.74V2055h-4.2v-11.58H759v-3.9h26.58V2030h-14c-3.6,0-5.7.36-6.3.84a35.25,35.25,0,0,0-1.5-4.08c1.26-.3,2.52-2.09,4.08-4.73a90.2,90.2,0,0,0,5-9.12h-13v-3.84h14.76c1.32-2.88,2.58-6,3.6-9l4.44,1.32c-1.08,2.58-2.16,5.16-3.42,7.68h30.9v3.84h-32.7a122.81,122.81,0,0,1-7.74,13.31h15.84v-9.3h4.2v9.3h16.5V2030h-16.5v9.54h21.54Z"/><path d="M840.2,2040l-6.66,1.38v13.44h-3.6v-12.66c-4.14.78-8,1.62-11.28,2.28l-.9-3.9c3.24-.54,7.56-1.26,12.18-2.1v-8.94h-5.52c-2,0-3.78.31-4.26.78a32.22,32.22,0,0,0-1.26-3.54c1-.24,1.74-2.22,2.76-4.85a96.77,96.77,0,0,0,3.3-10.62h-6.84v-3.72h7.68c.54-2.34,1-4.8,1.32-7.2l3.9.84c-.42,2.1-.84,4.26-1.38,6.36h9.6v3.72H828.68a129.19,129.19,0,0,1-4.92,14.58h6.18v-9.18h3.6v9.18h5.82v3.65h-5.82v8.28l6.36-1.14Zm31.38-33.35v8.75h-3.66v-5.51h-23v5.63H841.4v-8.87h14.34a32.61,32.61,0,0,0-3.66-5.52l3.54-1.2a29.45,29.45,0,0,1,4.2,6.3l-1,.42Zm-13.08,23.45H871v3.24H858.5v4.74h9.84v16.8h-3.9V2053H849v2h-3.72v-17h9.54v-4.74h-12.3v-3.24h12.3v-4h-9.54V2023h9.54v-3.89h-10v-2.94h10v-4.86h3.72v4.86h10v2.94h-10V2023h9.42v3.06H858.5Zm5.94,11.22H849v8.46h15.48Z"/><path d="M896.36,2044.88a9,9,0,1,1-9.06-9A9,9,0,0,1,896.36,2044.88Zm-2.82,0a6.21,6.21,0,1,0-6.24,6.24A6.22,6.22,0,0,0,893.54,2044.88Z"/><line class="cls-3" x1="621" y1="350" x2="621" y2="350"/><rect class="cls-2" x="1113" y="1266" width="65" height="220" rx="12"/><path class="cls-1" d="M1157.05,1304.79a27.61,27.61,0,0,0,11.5,8.1,11.65,11.65,0,0,0-2.15,2.55,30.77,30.77,0,0,1-12.8-10.65h-15.95a34.39,34.39,0,0,1-13,11.3,11.43,11.43,0,0,0-2.15-2.55,30.39,30.39,0,0,0,11.6-8.75H1123v-2.85h10v-16.15h-7.7V1283h7.7v-5h3.3v5h18.55v-5h3.35v5h7.65v2.8h-7.65v16.15h9.8v2.85Zm-10,14.5h17.3v2.85H1126.8v-2.85h16.9v-5.6h-10.45v-2.8h10.45v-4.4h3.35v4.4h10.65v2.8h-10.65Zm-10.8-33.5v3.6h18.55v-3.6Zm0,9.8h18.55v-3.65h-18.55Zm0,6.35h18.55v-3.8h-18.55Z"/><path class="cls-1" d="M1141.25,1346.54s0,1.15,0,1.55c-.6,15.85-1.2,21.2-2.6,23a3.71,3.71,0,0,1-2.8,1.45,32.65,32.65,0,0,1-4.45,0,9.25,9.25,0,0,0-.85-3c1.75.15,3.2.15,3.9.15a1.42,1.42,0,0,0,1.45-.65c1-1.2,1.6-6,2.15-19.35h-6.8c-.55,10-2,18.25-6.45,23.65a9.53,9.53,0,0,0-2.55-2.35c5.45-6.45,5.9-17.85,6.1-31.55h-5.2v-3.1h20.1v3.1h-11.65c0,2.45-.1,4.85-.2,7.15Zm-7.9-10.45a33.47,33.47,0,0,0-4.25-7.15l2.9-1.15a31.92,31.92,0,0,1,4.4,7Zm23.85-7.45a15.26,15.26,0,0,1-.85,2.55c2.65,5.45,7.7,11.35,12.45,14a13,13,0,0,0-2.45,2.75c-4.25-2.7-8.5-8-11.4-13.3a32.61,32.61,0,0,1-11,13.6,12.79,12.79,0,0,0-2.35-2.65c5.85-3.6,10.35-10.2,12.5-17.85Zm-8.3,32.45a74,74,0,0,1,13.6,8.25l-2.25,2.9c-2.85-2.6-8.75-6.3-13.4-8.65Zm9.5-4.85a66.22,66.22,0,0,0-8.6-6.85l2.15-2.2a67.46,67.46,0,0,1,8.75,6.55Z"/><path class="cls-1" d="M1148.6,1378.94c-.35.6-.8,1.15-1.2,1.75,4.95,5.5,13.85,10.9,21.4,13.3a16.56,16.56,0,0,0-2.35,2.9,60.7,60.7,0,0,1-21-13.9,48.65,48.65,0,0,1-12.4,10h25.1v3.1h-11.1v7.05h17.75v3H1147.1v12.7H1167v3.1h-43v-3.1h19.55v-12.7h-17.35v-3h17.35v-7.05h-10.9v-2.9a58.72,58.72,0,0,1-8.25,3.85,11.79,11.79,0,0,0-2.25-3c9.35-3.1,18.55-9.1,23.3-16.5Zm-15.25,28.65a42.46,42.46,0,0,1,4.8,9.1l-2.9,1.2a40.78,40.78,0,0,0-4.65-9.2Zm18.55,9.3a71.79,71.79,0,0,0,5.35-9.35l3.15,1.25a101.62,101.62,0,0,1-6,9.2Z"/><path class="cls-1" d="M1160,1440.09a51.83,51.83,0,0,1-12,19.6,49.94,49.94,0,0,0,20.5,10.5,16.79,16.79,0,0,0-2.25,3,50.92,50.92,0,0,1-20.75-11.1c-5.65,5-12.55,8.6-21,11.3a15.53,15.53,0,0,0-2-3.05c8.35-2.45,15.1-5.9,20.6-10.6a57.05,57.05,0,0,1-12.2-19.65h-7.75v-3.25h44.75v3.25Zm-25.75,0a52.13,52.13,0,0,0,11.3,17.3,47.46,47.46,0,0,0,10.7-17.3Zm11.25-3.55a38.13,38.13,0,0,0-3.8-7.8l3.4-1a39,39,0,0,1,4,7.65Z"/><circle class="cls-4" cx="610" cy="1376" r="200"/><line class="cls-5" x1="610" y1="1041" x2="610" y2="1711"/><line class="cls-5" x1="520" y1="1089" x2="700" y2="1089"/><line class="cls-5" x1="520" y1="1663" x2="700" y2="1663"/><line class="cls-5" x1="410" y1="1376" x2="810" y2="1376"/><path class="cls-2" d="M138.33,1388.94H116.8v11.58h-4.2v-11.58H86V1385H112.6v-9.54h-14c-3.6,0-5.7.36-6.3.84a35.25,35.25,0,0,0-1.5-4.08c1.26-.3,2.52-2.1,4.08-4.74a90.2,90.2,0,0,0,5-9.12h-13v-3.84h14.76c1.32-2.88,2.58-6,3.6-9l4.44,1.32c-1.08,2.58-2.16,5.16-3.42,7.68h30.89v3.84H104.5a124,124,0,0,1-7.74,13.32H112.6v-9.3h4.2v9.3h16.49v3.78H116.8V1385h21.53Z"/><path class="cls-2" d="M167.2,1385.58l-7.38,1.5v13.14h-3.6v-12.36c-3.9.78-7.44,1.5-10.56,2.1l-.9-3.84c3.12-.48,7.08-1.2,11.46-2V1375h-5c-2,0-3.72.36-4.2.84a16.67,16.67,0,0,0-1.2-3.42c1-.3,1.74-2.28,2.7-4.92a90,90,0,0,0,3.24-10.68h-6.6v-3.78h7.44a72.39,72.39,0,0,0,1.32-7.2l3.72.78c-.36,2.1-.84,4.32-1.38,6.42h9.78v3.78H155.32a121.41,121.41,0,0,1-4.74,14.52h5.64v-9.3h3.6v9.3h6.12V1375h-6.12v8.46l7.14-1.32Zm17.88-39.12c-.3.78-.6,1.5-1,2.22,3.48,7.08,9.78,14.7,15.23,18.48a17.4,17.4,0,0,0-2.81,3.12c-4.92-3.9-10.5-10.8-14.34-17.64a56.64,56.64,0,0,1-14.7,18.12,14.27,14.27,0,0,0-2.82-2.88,50.57,50.57,0,0,0,16.26-22.14Zm5.21,48.84c2.52,0,3-1.26,3.25-8.22a12.93,12.93,0,0,0,3.59,1.62c-.48,8-1.61,10.2-6.53,10.2H180c-5.58,0-7.08-1.32-7.08-6.12v-25h4v12.18a112,112,0,0,0,14.34-9.42l2.76,3.3a125.72,125.72,0,0,1-17.1,10.14v8.76c0,2.16.54,2.58,3.42,2.58Z"/><path class="cls-2" d="M1078.33,1102.94H1056.8v11.58h-4.2v-11.58H1026V1099h26.58v-9.54h-14c-3.6,0-5.7.36-6.3.84a35.25,35.25,0,0,0-1.5-4.08c1.26-.3,2.52-2.1,4.08-4.74a90.2,90.2,0,0,0,5-9.12h-13v-3.84h14.76c1.32-2.88,2.58-6,3.6-9l4.44,1.32c-1.08,2.58-2.16,5.16-3.42,7.68h30.9v3.84h-32.7a124,124,0,0,1-7.74,13.32h15.84v-9.3h4.2v9.3h16.49v3.78H1056.8V1099h21.53Z"/><path class="cls-2" d="M1107.26,1099.52l-6.66,1.38v13.44H1097v-12.66c-4.14.78-8,1.62-11.28,2.28l-.9-3.9c3.24-.54,7.56-1.26,12.18-2.1V1089h-5.52c-2,0-3.78.3-4.26.78a32.22,32.22,0,0,0-1.26-3.54c1-.24,1.74-2.22,2.76-4.86a96.77,96.77,0,0,0,3.3-10.62h-6.84v-3.72h7.68c.54-2.34,1-4.8,1.32-7.2l3.9.84c-.42,2.1-.84,4.26-1.38,6.36h9.6v3.72h-10.56a129.19,129.19,0,0,1-4.92,14.58H1097v-9.18h3.6v9.18h5.82V1089h-5.82v8.28l6.36-1.14Zm31.37-33.36v8.76H1135v-5.52h-23V1075h-3.54v-8.88h14.34a32.61,32.61,0,0,0-3.66-5.52l3.54-1.2a29.45,29.45,0,0,1,4.2,6.3l-1,.42Zm-13.07,23.46h12.53v3.24h-12.53v4.74h9.84v16.8h-3.9v-1.86H1116v2h-3.72v-17h9.54v-4.74h-12.3v-3.24h12.3v-4h-9.54v-3.06h9.54v-3.9h-10v-2.94h10v-4.86h3.72v4.86h10v2.94h-10v3.9H1135v3.06h-9.42Zm5.94,11.22H1116v8.46h15.48Z"/><path class="cls-2" d="M1081.33,1673.94H1059.8v11.58h-4.2v-11.58H1029V1670h26.58v-9.54h-14c-3.6,0-5.7.36-6.3.84a35.25,35.25,0,0,0-1.5-4.08c1.26-.3,2.52-2.1,4.08-4.74a90.2,90.2,0,0,0,5-9.12h-13v-3.84h14.76c1.32-2.88,2.58-6,3.6-9l4.44,1.32c-1.08,2.58-2.16,5.16-3.42,7.68h30.9v3.84h-32.7a124,124,0,0,1-7.74,13.32h15.84v-9.3h4.2v9.3h16.49v3.78H1059.8V1670h21.53Z"/><path class="cls-2" d="M1110.26,1670.52l-6.66,1.38v13.44H1100v-12.66c-4.14.78-8,1.62-11.28,2.28l-.9-3.9c3.24-.54,7.56-1.26,12.18-2.1V1660h-5.52c-2,0-3.78.3-4.26.78a32.22,32.22,0,0,0-1.26-3.54c1-.24,1.74-2.22,2.76-4.86a96.77,96.77,0,0,0,3.3-10.62h-6.84v-3.72h7.68c.54-2.34,1-4.8,1.32-7.2l3.9.84c-.42,2.1-.84,4.26-1.38,6.36h9.6v3.72h-10.56a129.19,129.19,0,0,1-4.92,14.58H1100v-9.18h3.6v9.18h5.82V1660h-5.82v8.28l6.36-1.14Zm31.37-33.36v8.76H1138v-5.52h-23V1646h-3.54v-8.88h14.34a32.61,32.61,0,0,0-3.66-5.52l3.54-1.2a29.45,29.45,0,0,1,4.2,6.3l-1,.42Zm-13.07,23.46h12.53v3.24h-12.53v4.74h9.84v16.8h-3.9v-1.86H1119v2h-3.72v-17h9.54v-4.74h-12.3v-3.24h12.3v-4h-9.54v-3.06h9.54v-3.9h-10v-2.94h10v-4.86h3.72v4.86h10v2.94h-10v3.9H1138v3.06h-9.42Zm5.94,11.22H1119v8.46h15.48Z"/><path class="cls-2" d="M216.85,1355.25a345.92,345.92,0,0,1,113.08-16.66c10.8.2,21.6.92,32.34,2.13,1.43.16,1.42-2.09,0-2.25a349.35,349.35,0,0,0-114.74,6.11q-15.83,3.51-31.28,8.5c-1.37.44-.78,2.61.6,2.17Z"/><path class="cls-2" d="M1005.72,1658.55a322.08,322.08,0,0,1-47.81,18.55,337.31,337.31,0,0,1-152.46,9.36A324.15,324.15,0,0,1,755.87,1674c-2-.68-4-1.39-6-2.11-1.37-.49-2,1.68-.6,2.17a324.68,324.68,0,0,0,50,13.58A339.65,339.65,0,0,0,952.58,1681a326.87,326.87,0,0,0,48.49-17.76q2.89-1.34,5.79-2.73c1.3-.63.16-2.57-1.14-1.94Z"/><path class="cls-2" d="M1005.72,1081.55a322.08,322.08,0,0,1-47.81,18.55,337.31,337.31,0,0,1-152.46,9.36A324.15,324.15,0,0,1,755.87,1097c-2-.68-4-1.39-6-2.11-1.37-.49-2,1.68-.6,2.17a324.68,324.68,0,0,0,50,13.58A339.65,339.65,0,0,0,952.58,1104a326.87,326.87,0,0,0,48.49-17.76q2.89-1.34,5.79-2.73c1.3-.63.16-2.57-1.14-1.94Z"/></svg>