<svg id="Layer_1" data-name="Layer 1" xmlns="http://www.w3.org/2000/svg" viewBox="0 0 1242 2208"><defs><style>.cls-1{fill:#f6eabe;}.cls-2,.cls-3{fill:#999;}.cls-3{stroke:#999;stroke-miterlimit:10;stroke-width:0.75px;}</style></defs><rect class="cls-1" width="1242" height="2208"/><path d="M270.12,815C312.2,777.64,340,714.12,355.07,657.74l44.47,15.88c-16.68,58.76-42.88,126.25-87.34,167.54Zm158-287.43v58.76H959.3s0,15.08-.79,22.23c-11.12,142.92-22.23,197.7-42.09,218.34-12.7,12.71-26.2,17.47-46.84,19.06-19.85,1.59-58,.79-97.66-1.59-.79-12.7-6.35-31.76-12.71-44.46,38.12,4,75.43,4,88.14,4,14.29,0,21.44-.8,27.79-6.35,12.7-13.5,23-58.76,31.76-169.92H376.51V186.91H570.25c10.32-23,22.23-49.23,27.79-67.49L657.58,129a575.63,575.63,0,0,1-32.55,58H871.17V431.46h-443v56.37H982.33v39.7Zm0-300.13v61.14H819.56V227.4ZM819.56,391v-65.1H428.12V391ZM505.93,672c14.29,44.46,22.23,103.22,21.44,139.74l-46.85,7.94c1.59-37.32-5.55-96.07-18.26-140.54Zm126.25-7.15c19.05,39.7,37.31,92.1,42.08,123.86l-44.47,11.91c-4-32.55-20.64-84.95-38.9-125.45ZM775.09,767.32c-10.32-27.79-34.93-71.46-58.75-102.43L753.66,649c24.61,31.76,50,73,61.13,100.84Z"/><path d="M511.92,1906.69a98.85,98.85,0,0,1-6.18,13.56v39.59H501.9v-33.35a61.73,61.73,0,0,1-5.46,7,32.86,32.86,0,0,0-2.28-3.9c5.58-5.87,10.8-14.87,14-24Zm34.14,28c-2.1,1.26-4.44,2.64-6.84,3.78,2,6.06,5.82,11.82,10.38,14.52a11.2,11.2,0,0,0-2.64,2.94c-4.62-3.18-8.46-9.42-10.68-16a27.45,27.45,0,0,1-2.76,1.2c2.58,6.84,1.86,14-1,16.68a6.91,6.91,0,0,1-5.22,1.92c-1.08,0-2.4-.06-3.78-.18a9.31,9.31,0,0,0-1-3.42,38.26,38.26,0,0,0,4.14.24,3.66,3.66,0,0,0,3.12-1.14c1.56-1.38,2.22-5.16,1.44-9.36-5.16,4.92-13.08,9.36-19.8,11.7a15.8,15.8,0,0,0-2.34-2.82c7.62-2.28,16.62-7.14,21.3-12.24a35.76,35.76,0,0,0-1.5-3.48,63.52,63.52,0,0,1-17.22,9.9,16.14,16.14,0,0,0-2.22-2.64c5.94-1.8,13.74-5.76,17.88-9.54a16.39,16.39,0,0,0-2.94-3.18,58.44,58.44,0,0,1-13.56,7.26,11.26,11.26,0,0,0-2.22-2.58,52.7,52.7,0,0,0,15.06-7.55H513.48v-9.36c-1.14,1-2.28,2-3.54,2.94a9.37,9.37,0,0,0-2.52-2.58,44.69,44.69,0,0,0,13.86-16.26l3.84.72c-.6,1.2-1.32,2.34-2,3.54h11.1l.72-.18,2.34,1.68a52.13,52.13,0,0,1-4.8,6.84h13.08v12.66H527.94c-.36.36-.78.66-1.2,1a21,21,0,0,1,5.64,6.84,110,110,0,0,0,10.92-6.42ZM521,1912.81a54.58,54.58,0,0,1-4.2,5.16h11.58a37.88,37.88,0,0,0,3.72-5.16Zm-3.9,14.69h10.5v-6.42h-10.5Zm24.72-6.42H531.18v6.42H541.8Z"/><path d="M609.36,1929.91v4.31H554.88v-4.31Z"/><path d="M636.42,1943.94a68.66,68.66,0,0,1-18.18,16.26,34.82,34.82,0,0,0-3.12-2.82c6.48-3.72,13.62-9.72,17.16-14.94Zm25.92-34.07v26.76H621.78v-26.76Zm-36.54,22.92h32.34v-19.14H625.8Zm25.32,9.47c6,4.56,13.56,11,17.28,15.36l-3.6,2.46c-3.48-4.38-10.92-11-17-15.78Z"/><path d="M715.44,1948H675.18v-3.54h40.26Zm11.46-14.7s-.06,1.32-.12,1.87c-1.14,15.17-2.16,20.81-4.2,22.85a5.49,5.49,0,0,1-4.08,1.74,70.84,70.84,0,0,1-7.56-.18,9.13,9.13,0,0,0-1.2-3.6c3.12.3,6.12.3,7.32.3s1.68-.06,2.22-.66c1.5-1.32,2.46-6.3,3.42-18.66H683.46v-25.67h13a53.18,53.18,0,0,0,2.52-6.12l4.5.72a51.65,51.65,0,0,1-2.94,5.4h19.86s-.06,1.14-.12,1.68c-.9,10-1.8,14.1-3.24,15.6a4.59,4.59,0,0,1-3.24,1.38,44.33,44.33,0,0,1-5.46,0,9.58,9.58,0,0,0-1-3.61,42.78,42.78,0,0,0,4.86.24,2,2,0,0,0,1.74-.54c1-.89,1.68-3.83,2.4-11.09h-29v18.35ZM704.16,1927a94.54,94.54,0,0,0-12.3-6.72l2.22-2.46a102.09,102.09,0,0,1,12.3,6.41Z"/><path d="M740.88,1941c4.68-2,7.26-4.86,7.56-9.17a4,4,0,0,1-1.14.11c-2.34,0-4.26-1.31-4.26-4.07a4,4,0,0,1,4.32-4.08c3.18,0,4.86,2.58,4.86,6.66,0,6.41-4,11.21-10.08,13.43Z"/><path d="M335.76,1989c-1.2,2.46-2.52,5-3.9,7.31h29.22v30.54c0,2.52-.6,3.72-2.46,4.38s-5.16.66-10.38.66a16.63,16.63,0,0,0-1.32-3.9c4.14.18,7.8.12,8.82.12s1.44-.42,1.44-1.32v-6.66H330.9c-.84,4.38-2.58,8.88-6.12,12.24a12.44,12.44,0,0,0-2.76-3.12c5-4.86,5.52-11.52,5.52-17.22v-9.53a50.45,50.45,0,0,1-10.14,9.71,17.42,17.42,0,0,0-2.52-3.12c7.2-4.91,12.66-12.17,16.56-20.09H316.08v-3.78h17a57.7,57.7,0,0,0,2.76-7.8l4,.9a72.7,72.7,0,0,1-2.46,6.9h30.84V1989Zm21.42,27.65v-6.72H331.56V2012c0,1.44-.06,2.94-.18,4.56Zm0-16.73H331.56v6.53h25.62Z"/><path d="M428.52,2004.79v3.77h-23c-3.18,11-10.5,19-27.42,23.22a13.59,13.59,0,0,0-2.34-3.36c15.48-3.72,22.44-10.44,25.56-19.86H375.66v-3.77H402.3c1.62-7.45,1.56-16.38,1.62-26.76H408c-.06,10.14-.06,19.08-1.62,26.76ZM392,2001.42c-2.82-2.39-8.64-5.63-13.44-7.55l2.46-2.76c4.68,1.74,10.56,4.8,13.56,7.26Zm5.46-11c-2.88-2.4-8.76-5.46-13.56-7.32l2.22-2.88c4.74,1.74,10.68,4.62,13.62,7Zm8.82,23.93c8.4,4,16.92,9.36,22,13.8l-2.7,3c-4.86-4.56-13.14-9.9-21.36-14Z"/><path d="M455.52,2010.06l-3.66,3.12a93.63,93.63,0,0,0-13.32-13.38l3.42-3.11A118.53,118.53,0,0,1,455.52,2010.06Z"/><path d="M482.94,2022.06H470.28v5.28h-3.54v-46.19h16.2Zm-12.66-37.31v8.75h9.24v-8.75Zm0,21.11h9.24V1997h-9.24Zm9.24,12.6v-9.12h-9.24v9.12Zm39.06-7.5a93.7,93.7,0,0,1-10.92,7.32,26.11,26.11,0,0,0,11.82,9.78,13.84,13.84,0,0,0-2.76,3.48c-9.42-4.44-15-13.62-17.88-25.5h-6.72v20.28l11-2.7a22.19,22.19,0,0,0,.18,3.6c-12.48,3.42-14.22,4-15.3,4.8a18.39,18.39,0,0,0-1.86-3.36,4.16,4.16,0,0,0,2.1-4V1980h27.06v26h-13a48.23,48.23,0,0,0,3.66,9.36,80.77,80.77,0,0,0,10-7.19Zm-26.46-27.41v7.68h19.32v-7.68Zm0,19h19.32v-7.92H492.12Z"/><path d="M545.52,2010.06l-3.66,3.12a93.63,93.63,0,0,0-13.32-13.38l3.42-3.11A118.53,118.53,0,0,1,545.52,2010.06Z"/><path d="M560,2016.12v5.76h-3.48v-38.75h13.92v33Zm0-29.33v25.61h6.9v-25.61ZM608,2005.56a78.66,78.66,0,0,1-8.22,4.92c1.8,7.14,5.28,13.56,10.14,16.5a12,12,0,0,0-2.46,3c-5.1-3.54-8.58-10.44-10.5-18.12l-3.3,1.56c3.12,7.2,2,14.4-1.5,16.92a8.06,8.06,0,0,1-5.46,1.74c-1.26.06-3,0-4.62-.06a8.78,8.78,0,0,0-.9-3.42c1.86.18,3.6.24,4.74.24a5.1,5.1,0,0,0,3.6-1c2-1.32,2.94-5.28,1.92-10a62.56,62.56,0,0,1-20.22,11.76,12.29,12.29,0,0,0-2-2.94c7.56-2.16,16.44-7,21.24-12a16.36,16.36,0,0,0-2-3.78,66.21,66.21,0,0,1-15.06,8.4,15.25,15.25,0,0,0-2.1-2.76,55.27,55.27,0,0,0,15.54-7.91,31.83,31.83,0,0,0-2.76-2.83,81.69,81.69,0,0,1-9.72,4.44,18.65,18.65,0,0,0-2.22-2.76,61.44,61.44,0,0,0,14.76-6.84H572v-3.35h24.24c.3-1.21.54-2.58.78-3.9H577c1.26-4.2,3-11,4-16.08l3.84.42-.84,3.6h15.48l.6-.24,2.7.48c-.66,4.56-1.8,10.62-2.88,15.72h9.3v3.35H591.72a40.91,40.91,0,0,1-5,3.61,25,25,0,0,1,5.52,6.47,95.76,95.76,0,0,0,13-7.5Zm-10.44-15.23c.42-2.1.78-4.2,1.08-5.94H583.2c-.54,2-1.14,4.14-1.68,5.94Z"/><path d="M635.52,2010.06l-3.66,3.12a93.63,93.63,0,0,0-13.32-13.38l3.42-3.11A118.53,118.53,0,0,1,635.52,2010.06Z"/><path d="M698.1,1998.67a68,68,0,0,1-9.84,11.21v16.32c0,3-.66,4.38-2.82,5.1s-6.06.72-12.18.66a16.43,16.43,0,0,0-1.5-4.14c4.86.18,9.48.12,10.74.06s1.8-.42,1.8-1.68v-12.9c-10.32,8.22-23,14.1-36.72,18.12a19.65,19.65,0,0,0-2.58-3.54c11.82-3.12,22.8-7.8,31.92-14-11.4.9-22.62,1.86-30.78,2.4l-.66-4c2.76-.12,5.94-.3,9.42-.48v-28.43h12.24a54.28,54.28,0,0,0,2.58-6.12l4.68.78a57.5,57.5,0,0,1-2.94,5.34h16.8v21a52.63,52.63,0,0,0,6.12-7.55Zm-39.3-11.82v5.88h25.5v-5.88Zm25.5,9H658.8v6h25.5Zm-25.5,15.66c7.14-.42,15.24-.9,23.28-1.44.72-.66,1.5-1.26,2.22-1.92v-3.23H658.8Z"/><path d="M725.52,2010.06l-3.66,3.12a93.63,93.63,0,0,0-13.32-13.38l3.42-3.11A118.53,118.53,0,0,1,725.52,2010.06Z"/><path d="M753.24,2011.62c-5.7,3.6-11.94,7.32-16.74,10.14l-1.62-3.54c4.26-2.28,10.92-6.18,17.28-9.84Zm5.88,14.4c0,2.82-.66,4.08-2.58,4.8s-5.46.72-10.38.72a18.64,18.64,0,0,0-1.38-4.14c3.9.18,7.86.18,8.94.12s1.5-.36,1.5-1.5v-41.75H736.14v-3.78h23Zm-10.5-21.72A150,150,0,0,0,737,1992.73l3-2a147.38,147.38,0,0,1,11.7,11.09Zm31.08,6.3c-5.58,3.54-11.58,7.26-16.26,10l-2-3.54c4.32-2.28,10.92-6.06,17.22-9.72Zm6.54,15.36c0,2.94-.72,4.2-2.7,4.92s-5.88.72-11.22.72a20.51,20.51,0,0,0-1.44-4.2c4.26.18,8.58.18,9.84.12s1.5-.42,1.5-1.56v-41.69h-19.5v-3.78h23.52Zm-10.68-22a143.63,143.63,0,0,0-11.64-11.39l2.94-2.11a140.66,140.66,0,0,1,11.76,10.87Z"/><path d="M811.14,1995h10.74v3.72H811.14v1.62c2.22,2.39,8.7,10,10.14,11.87l-2.46,3.24a129,129,0,0,0-7.68-10.49v26.93h-4v-27.17c-3,7.07-7.2,14.21-11.1,18.41a28.3,28.3,0,0,0-2.22-3.66c4.56-4.62,9.6-13.08,12.36-20.75H795.24V1995h11.88v-10.32c-3.42.54-6.9,1-10.14,1.44a15.29,15.29,0,0,0-1.08-3.18c7.92-1.08,17.52-2.82,22.68-5l2.76,3.12a83.55,83.55,0,0,1-10.2,2.82Zm34.74-12.06V2029h-4v-4.56h-14v5H824v-46.49Zm-4,37.67v-33.83h-14v33.83Z"/><path d="M871.44,2027.28c0,2-.42,3.06-1.62,3.72s-3.3.72-6.72.66a15.74,15.74,0,0,0-1-3.42c2.4.06,4.5.06,5.16.06s1-.24,1-1v-18.84c-1.92,1.92-4,3.72-5.76,5.52l-1.8-3c-.42,7.26-1.5,15.18-3.9,21.36a9.34,9.34,0,0,0-2.58-2.52c3.18-8.64,3.48-20.4,3.48-29v-21.23h13.8Zm-10.5-26.52c0,3-.06,6.42-.24,10,2-1.5,4.68-3.72,7.5-6.11v-21.42h-7.26v9.6l1.92-1.2a47.06,47.06,0,0,1,5.34,6.77l-2.52,1.68a44.2,44.2,0,0,0-4.74-6.53Zm26.46,8.82a77,77,0,0,1,4.44,15.54l-3.06,1.14a35.09,35.09,0,0,0-.66-3.72c-10.92,2-12.6,2.46-13.56,3a19.1,19.1,0,0,0-1.2-3.36c.84-.18,1.62-1.62,2.34-3.6a82.42,82.42,0,0,0,4-14h-6.48V2001h7.68v-9.84h-6.6v-3.6h6.6v-9.9h3.48v9.9h6.24v3.6h-6.24V2001h7.26v3.59h-8.28A97.76,97.76,0,0,1,878,2021l9.36-1.44a70.38,70.38,0,0,0-2.88-9.12Zm20.1,7.86c0,2-.36,3.12-1.68,3.78s-3.24.78-6.06.78a16.45,16.45,0,0,0-1.26-3.78c2.22.06,4.14.06,4.74.06s.72-.24.72-.9v-32.75h-6.78V2032h-3.54v-51.17H907.5Z"/><path d="M927.18,1995.67a9.06,9.06,0,1,1-9.06,9A9.09,9.09,0,0,1,927.18,1995.67Zm0,15.23a6.18,6.18,0,1,0,0-12.36,6.18,6.18,0,1,0,0,12.36Z"/><rect class="cls-2" x="1113" y="430" width="65" height="126" rx="12"/><path class="cls-1" d="M1132.7,459.82c1.25,1.6,4.9,6.7,5.7,8.05l-2,2.45c-.7-1.5-2.35-4.4-3.75-6.65V490h-3.15V465.57c-1.5,5.05-3.5,9.9-5.55,12.85a14.83,14.83,0,0,0-1.75-3.1c2.9-4,5.8-11.5,7.2-18h-6.2v-3.15h6.3v-9.65h3.15v9.65h5.45v3.15h-5.45Zm19.1.7a19.47,19.47,0,0,0,.45,2.65c-10.15,2.7-11.6,3.15-12.5,3.75a12.13,12.13,0,0,0-1.1-3.2c.7-.2,1.55-.5,1.55-2.2v-16.7h3.25v6.5h8.35v2.9h-8.35v8.3Zm2.35,5.5-2,3.75h12.65V490h-3.4v-1.75h-17v2h-3.3V469.77h7.9c.55-1.5,1.2-3.25,1.55-4.6Zm7.3,6.5h-17v5.05h17Zm0,13v-5.3h-17v5.3Zm2.25-22.4c1.25,0,1.5-.75,1.65-5.25a9.16,9.16,0,0,0,2.85,1.25c-.3,5.45-1.2,6.95-4.15,6.95h-5.85c-3.65,0-4.55-.95-4.55-4.45V444.87h3.25v6.5h10.2v2.9h-10.2v7.35c0,1.3.25,1.5,1.65,1.5Z"/><path class="cls-1" d="M1167.55,519.87v2.5H1123.4v-2.5h20.25v-3.2H1126.8v-2.3h16.85v-3H1128.2v-2.25h15.45v-3.2H1123.5v-2.5h20.15v-3.05H1128.8V498h14.85v-3.55h3.25V498h14.45v5.4h6.15v2.5h-6.15v5.45H1146.9v3h17.3v2.3h-17.3v3.2Zm-37.75,5h31.75v15.25h-3.25v-1.6H1133v1.7h-3.2Zm3.2,2.4v3.2h25.3v-3.2Zm25.3,8.85v-3.4H1133v3.4Zm-11.4-32.7h11.15v-3.05H1146.9Zm0,5.7h11.15v-3.2H1146.9Z"/><rect class="cls-2" x="1157" y="1276" width="65" height="222" rx="12"/><path class="cls-1" d="M1202.05,1315.79a27.61,27.61,0,0,0,11.5,8.1,11.65,11.65,0,0,0-2.15,2.55,30.77,30.77,0,0,1-12.8-10.65h-15.95a34.39,34.39,0,0,1-13,11.3,11.43,11.43,0,0,0-2.15-2.55,30.39,30.39,0,0,0,11.6-8.75H1168v-2.85h10v-16.15h-7.7V1294h7.7v-5h3.3v5h18.55v-5h3.35v5h7.65v2.8h-7.65v16.15h9.8v2.85Zm-10,14.5h17.3v2.85H1171.8v-2.85h16.9v-5.6h-10.45v-2.8h10.45v-4.4h3.35v4.4h10.65v2.8h-10.65Zm-10.8-33.5v3.6h18.55v-3.6Zm0,9.8h18.55v-3.65h-18.55Zm0,6.35h18.55v-3.8h-18.55Z"/><path class="cls-1" d="M1186.25,1357.54s0,1.15,0,1.55c-.6,15.85-1.2,21.2-2.6,23a3.71,3.71,0,0,1-2.8,1.45,32.65,32.65,0,0,1-4.45,0,9.25,9.25,0,0,0-.85-3c1.75.15,3.2.15,3.9.15a1.42,1.42,0,0,0,1.45-.65c1-1.2,1.6-6,2.15-19.35h-6.8c-.55,10-2,18.25-6.45,23.65a9.53,9.53,0,0,0-2.55-2.35c5.45-6.45,5.9-17.85,6.1-31.55h-5.2v-3.1h20.1v3.1h-11.65c0,2.45-.1,4.85-.2,7.15Zm-7.9-10.45a33.47,33.47,0,0,0-4.25-7.15l2.9-1.15a31.92,31.92,0,0,1,4.4,7Zm23.85-7.45a15.26,15.26,0,0,1-.85,2.55c2.65,5.45,7.7,11.35,12.45,14a13,13,0,0,0-2.45,2.75c-4.25-2.7-8.5-8-11.4-13.3a32.61,32.61,0,0,1-11,13.6,12.79,12.79,0,0,0-2.35-2.65c5.85-3.6,10.35-10.2,12.5-17.85Zm-8.3,32.45a74,74,0,0,1,13.6,8.25l-2.25,2.9c-2.85-2.6-8.75-6.3-13.4-8.65Zm9.5-4.85a66.22,66.22,0,0,0-8.6-6.85l2.15-2.2a67.46,67.46,0,0,1,8.75,6.55Z"/><path class="cls-1" d="M1193.6,1389.94c-.35.6-.8,1.15-1.2,1.75,4.95,5.5,13.85,10.9,21.4,13.3a16.56,16.56,0,0,0-2.35,2.9,60.7,60.7,0,0,1-21-13.9,48.65,48.65,0,0,1-12.4,10h25.1v3.1h-11.1v7.05h17.75v3H1192.1v12.7H1212v3.1h-43v-3.1h19.55v-12.7h-17.35v-3h17.35v-7.05h-10.9v-2.9a58.72,58.72,0,0,1-8.25,3.85,11.79,11.79,0,0,0-2.25-3c9.35-3.1,18.55-9.1,23.3-16.5Zm-15.25,28.65a42.46,42.46,0,0,1,4.8,9.1l-2.9,1.2a40.78,40.78,0,0,0-4.65-9.2Zm18.55,9.3a71.79,71.79,0,0,0,5.35-9.35l3.15,1.25a101.62,101.62,0,0,1-6,9.2Z"/><path class="cls-1" d="M1205,1451.09a51.83,51.83,0,0,1-12,19.6,49.94,49.94,0,0,0,20.5,10.5,16.79,16.79,0,0,0-2.25,3,50.92,50.92,0,0,1-20.75-11.1c-5.65,5-12.55,8.6-21,11.3a15.53,15.53,0,0,0-2-3.05c8.35-2.45,15.1-5.9,20.6-10.6a57.05,57.05,0,0,1-12.2-19.65h-7.75v-3.25h44.75v3.25Zm-25.75,0a52.13,52.13,0,0,0,11.3,17.3,47.46,47.46,0,0,0,10.7-17.3Zm11.25-3.55a38.13,38.13,0,0,0-3.8-7.8l3.4-1a39,39,0,0,1,4,7.65Z"/><path d="M627.5,1071a471.92,471.92,0,0,0-67.23,3.13c-22.31,2.68-44.62,6.27-66.24,12.48-40.75,11.71-80.35,33.49-102.63,70.85a128.59,128.59,0,0,0-12.76,29.23,91,91,0,0,0-2.71,12.2,129.09,129.09,0,0,0-1.83,18.5,116.92,116.92,0,0,0,1.84,19,69.38,69.38,0,0,0,3,12,92.76,92.76,0,0,0,17.62,31.43c6.14,7.82,13.56,13.93,21.45,19.91a122.89,122.89,0,0,0,20.58,12.42,246,246,0,0,0,52.61,18.12,645.22,645.22,0,0,0,69.89,11.54,613.18,613.18,0,0,0,132.19.84c20.83-2.13,41.79-4.88,62.06-10.26a235,235,0,0,0,31.64-11.2,143.89,143.89,0,0,0,23.74-12.69c17.35-11.64,32.89-26.56,42.11-45.57,4.42-9.09,8.12-18.65,9.94-28.62,1.8-9.8,2.89-19.83,2.05-29.78-.86-10.13-2.51-20.3-6.25-29.79a120.42,120.42,0,0,0-7.65-16.6c-1.94-3.33-4.15-6.49-6.22-9.74-2.33-3.65-4.5-7.42-7.1-10.88a66.34,66.34,0,0,0-7-8.52,116.33,116.33,0,0,0-9.39-7.53c-13.46-10.29-27.3-20.38-42.74-27.49a219.16,219.16,0,0,0-58.43-17.6,474.16,474.16,0,0,0-63.76-5.17c-9.59-.18-19.19-.2-28.78-.2a26.27,26.27,0,0,0-18,7.47c-4.42,4.42-7.75,11.68-7.47,18,.3,6.59,2.46,13.43,7.47,18s11.12,7.47,18,7.47c26.78,0,53.67.11,80.26,3.66l-6.78-.91c18.31,2.49,36.42,6.71,53.49,13.91l-6.09-2.57c17.15,7.32,32.37,18.09,47.09,29.41l-5.16-4a39.67,39.67,0,0,1,7.19,6.81l-4-5.16c2.47,3.22,4.5,6.78,6.67,10.2,4,6.33,8.17,12.43,11.12,19.36l-2.57-6.09a82.72,82.72,0,0,1,5.56,20.55l-.91-6.78a88.7,88.7,0,0,1,0,23l.91-6.78a90.22,90.22,0,0,1-6.06,22.29l2.57-6.09a87.52,87.52,0,0,1-11.07,19.07l4-5.16a96.72,96.72,0,0,1-17.12,16.83l5.16-4a138.16,138.16,0,0,1-30.48,17.55l6.09-2.57c-20.26,8.51-41.93,13-63.63,16l6.78-.92A605.3,605.3,0,0,1,584.57,1293q-17.84-1.36-35.55-3.75l6.78.91c-24.47-3.32-49.22-7.51-72.81-15-5.75-1.82-11.42-3.87-17-6.2l6.09,2.58a131.42,131.42,0,0,1-29-16.45l5.17,4a88,88,0,0,1-15.6-15.38l4,5.16a75.34,75.34,0,0,1-9.48-16.1l2.57,6.09a71.43,71.43,0,0,1-4.87-17.86l.91,6.77a80.86,80.86,0,0,1,.08-20.91l-.91,6.78a95.25,95.25,0,0,1,6.49-23.53l-2.57,6.09a106.74,106.74,0,0,1,13.76-23.56l-4,5.17a113.47,113.47,0,0,1,20-19.8l-5.16,4a157.67,157.67,0,0,1,34.55-19.85l-6.1,2.58c25-10.52,51.85-16.09,78.58-19.72l-6.78.91a471.08,471.08,0,0,1,73.75-4,26.09,26.09,0,0,0,18-7.47c4.42-4.42,7.75-11.68,7.47-18-.3-6.59-2.46-13.43-7.47-18a27,27,0,0,0-18-7.47Z"/><path d="M515.93,1129.86a378.71,378.71,0,0,1,45.5-46.69q6.8-5.84,13.87-11.31l-5.16,4a320,320,0,0,1,53.62-33.69q7.83-3.87,15.87-7.26l-6.09,2.57a272.18,272.18,0,0,1,43.73-14.28q6.22-1.45,12.51-2.59A24.53,24.53,0,0,0,708,999.39a19.34,19.34,0,0,0-.45-10.17L705,983.13a25.71,25.71,0,0,0-9.15-9.15l-6.09-2.57a25.78,25.78,0,0,0-13.56,0,264.25,264.25,0,0,0-39.78,10.53,332.55,332.55,0,0,0-44.34,19.18,316.48,316.48,0,0,0-36.76,22.57,398.94,398.94,0,0,0-39.61,32,381.12,381.12,0,0,0-32.09,33.58c-1.27,1.5-2.52,3-3.77,4.52a26.24,26.24,0,0,0,0,36.06l5.16,4a25.52,25.52,0,0,0,12.87,3.48l6.78-.91a25.45,25.45,0,0,0,11.25-6.56Z"/><path d="M549.22,1227.67c19,0,37.93.2,56.9.29q8.94,0,17.88,0a19.16,19.16,0,0,0,9.82-2.2,22.89,22.89,0,0,0,13.48-13.48,19.16,19.16,0,0,0,2.2-9.82l-.91-6.78a25.45,25.45,0,0,0-6.56-11.25c-5-4.58-11.12-7.47-18-7.47-19,0-37.93-.2-56.9-.29q-8.94,0-17.88,0a24.64,24.64,0,0,0-23.31,15.68,19.18,19.18,0,0,0-2.19,9.82l.91,6.78a25.54,25.54,0,0,0,6.56,11.26c5,4.58,11.12,7.46,18,7.46Z"/><path d="M375.79,1198.41a292.51,292.51,0,0,1-23.53,41.82q-3.75,5.49-7.81,10.76l4-5.16a198.7,198.7,0,0,1-26.16,28c-2.75,2.41-5.57,4.72-8.46,7l5.16-4a172.86,172.86,0,0,1-32.35,19.68l-5.16,4a19,19,0,0,0-5.27,8.21,12.52,12.52,0,0,0-1.74,6.43,19.34,19.34,0,0,0,.45,10.17l2.57,6.09,4,5.16a19,19,0,0,0,8.21,5.27,19.16,19.16,0,0,0,9.82,2.2,563.46,563.46,0,0,0,70,1.84c22.77-.78,45.49-2.76,68.14-5.22,13.28-1.44,26.55-3,39.81-4.66a24.61,24.61,0,0,0,23.3-15.68,19.18,19.18,0,0,0,2.2-9.82l-.91-6.78a25.45,25.45,0,0,0-6.56-11.25l-5.16-4a25.32,25.32,0,0,0-12.87-3.48c-23.24,2.83-46.49,5.62-69.83,7.58-22.67,1.89-45.42,3-68.17,2.58q-20-.31-39.92-2.12l12.87,47.52A172.63,172.63,0,0,0,338,1325.81,219.33,219.33,0,0,0,365,1303.75a200,200,0,0,0,19-21.27,298.06,298.06,0,0,0,20.13-28.75,312.78,312.78,0,0,0,15.66-29.58,19,19,0,0,0,3-9.48,19.34,19.34,0,0,0-.45-10.17,28.62,28.62,0,0,0-11.72-15.24l-6.09-2.57a25.78,25.78,0,0,0-13.56,0l-6.09,2.57a25.71,25.71,0,0,0-9.15,9.15Z"/><path d="M449.36,1315.78c.58,2.71,1.05,5.43,1.43,8.17l-.91-6.78a110.21,110.21,0,0,1,0,28.46l.91-6.78a111.82,111.82,0,0,1-7.44,27.48l2.57-6.09a119.38,119.38,0,0,1-15.63,26.17l4-5.16c-10.23,13.16-21.95,25.06-32.15,38.26-12.86,16.66-22.58,35-24.37,56.37a37,37,0,0,0,.06,6.66,59.52,59.52,0,0,0,2.08,12.34c2.57,7.89,6.29,13.77,11.5,20.12,3.57,4.36,8.4,7.88,13,11.06a60,60,0,0,0,10.18,5.61,144.31,144.31,0,0,0,31.69,10.19,243.21,243.21,0,0,0,33.61,3.84c19,.87,38.2.16,57.23-.65q26.09-1.12,52.09-3.48c30.86-2.82,61.6-7,92.19-11.9,22.39-3.6,44.7-7.72,67.14-11q3.63-.54,7.28-1l-6.78.91c16.56-2.22,33.3-3.84,50-3,4.35.22,8.7.61,13,1.19l-6.77-.91a128.3,128.3,0,0,1,32.29,8.76l-6.1-2.57a120.8,120.8,0,0,1,26.9,15.28l-5.16-4a103.07,103.07,0,0,1,18,18.19l-4-5.16c14,18.09,23.44,39.42,32.29,60.33l-2.57-6.09c10.8,25.59,20.45,51.66,30.06,77.72,2.35,6.35,5.71,11.72,11.72,15.24,5.47,3.2,13.52,4.55,19.65,2.57s12.12-5.82,15.24-11.72,4.92-13.28,2.57-19.65c-8.05-21.82-16.16-43.64-24.89-65.2-6.9-17-14-34.09-22.42-50.45A209.34,209.34,0,0,0,906,1513.93a121.64,121.64,0,0,0-25.9-23.6c-9.85-6.86-20.92-11.8-32.05-16.16-11.93-4.68-24.23-7-36.9-8.56-25.22-3.22-50.74.17-75.72,3.8-30.76,4.48-61.3,10.36-92.06,14.82q-6.66,1-13.32,1.86l6.78-.92A1109.43,1109.43,0,0,1,502.9,1495c-14,.17-28.1-.08-42-1.94l6.78.91a131.26,131.26,0,0,1-32.33-8.4l6.09,2.57a62.57,62.57,0,0,1-13-7.3l5.16,4a39.3,39.3,0,0,1-6.9-6.8l4,5.16a31.33,31.33,0,0,1-3.27-5.52l2.57,6.09a30,30,0,0,1-2-7l.92,6.78a38.8,38.8,0,0,1,0-9.51l-.92,6.78a63.77,63.77,0,0,1,4.38-15.38l-2.57,6.09a108.52,108.52,0,0,1,14.32-23.63l-4,5.16c12.27-15.78,26.52-29.82,38.1-46.18,13.66-19.28,20.84-41.94,23.07-65.3,1.25-13.1-.05-26.44-2.78-39.28-1.28-6-6.51-12.2-11.72-15.24-5.46-3.2-13.52-4.56-19.64-2.57s-12.13,5.82-15.24,11.71a27.9,27.9,0,0,0-2.58,19.65Z"/><path d="M453.78,1448.54q34.82-6.32,69.82-11.54,10.54-1.55,21.12-3l-6.77.91c31.92-4.28,64-7.67,96.12-9.68a883.1,883.1,0,0,1,96.39-1.16c17.52.81,35,2.29,52.39,4.61l-6.78-.91c26,3.5,51.82,8.87,76.67,17.32q10,3.39,19.72,7.48l-6.09-2.57a230.68,230.68,0,0,1,50.89,29.16l-5.16-4a187.25,187.25,0,0,1,23.37,21.4c4.31,4.69,11.78,7.47,18,7.47s13.73-2.78,18-7.47c4.46-4.86,7.77-11.24,7.47-18a27.56,27.56,0,0,0-7.47-18c-21.87-23.82-49.76-42-79.42-54.56a361.25,361.25,0,0,0-51.5-17.65,445.26,445.26,0,0,0-50.3-9.63,732.6,732.6,0,0,0-115.52-6.2c-37.37.83-74.68,3.88-111.8,8.27s-74.06,10-110.85,16.45l-11.92,2.14c-6,1.08-12.28,6.67-15.24,11.72-3.2,5.46-4.55,13.52-2.57,19.65s5.82,12.12,11.72,15.23l6.09,2.58a25.78,25.78,0,0,0,13.56,0Z"/><path d="M452.47,1507.47c-11.06,10.29-20.86,21.82-30.45,33.47-12,14.58-24,29.19-33.88,45.31-8.75,14.26-15.95,29.37-22.51,44.76-4.16,9.76-8.31,19.56-11,29.84a125.86,125.86,0,0,0-2.92,15.54,100.35,100.35,0,0,0-1.17,14.27,116,116,0,0,0,1.74,16.83,61,61,0,0,0,2.54,10.3c1.22,3.57,2.76,7,4.28,10.48a50.31,50.31,0,0,0,2.36,4.7,49.22,49.22,0,0,0,2.85,4.44,107.47,107.47,0,0,0,6.94,8.84A45.18,45.18,0,0,0,375,1750a19,19,0,0,0,8.2,5.27,23,23,0,0,0,19.65,0,19,19,0,0,0,8.21-5.27l4-5.16a25.52,25.52,0,0,0,3.48-12.87l-.91-6.78a25.45,25.45,0,0,0-6.56-11.25,48.11,48.11,0,0,1-5.74-6.11l4,5.16a51.13,51.13,0,0,1-6.6-11.36l2.58,6.1a61.37,61.37,0,0,1-4.1-15.34l.91,6.78a73.41,73.41,0,0,1,.11-19.42l-.92,6.78c1.68-12.09,5.77-23.63,10.49-34.83l-2.57,6.09c7.85-18.59,16.71-36.74,27.9-53.57q4.72-7.12,9.95-13.9l-4,5.16c5.94-7.68,12.19-15.14,18.39-22.61,5.54-6.65,11.17-13.22,17.12-19.5q4.82-5.09,9.94-9.87a19,19,0,0,0,5.27-8.21,23,23,0,0,0,0-19.64,19,19,0,0,0-5.27-8.21l-5.16-4A25.32,25.32,0,0,0,470.5,1500l-6.78.91a25.45,25.45,0,0,0-11.25,6.56Z"/><path d="M424.46,1618.67a323.26,323.26,0,0,1,30.32,33.94l-4-5.17a323.45,323.45,0,0,1,25.86,39,24.58,24.58,0,0,0,25.41,12.18,19.1,19.1,0,0,0,9.48-3l5.16-4a25.45,25.45,0,0,0,6.56-11.25l.91-6.78a25.52,25.52,0,0,0-3.48-12.87,323.2,323.2,0,0,0-19.51-30.51,381.65,381.65,0,0,0-26.52-33q-6.84-7.53-14.14-14.63a28.44,28.44,0,0,0-18-7.47,28.38,28.38,0,0,0-18,7.47l-4,5.16a25.32,25.32,0,0,0-3.48,12.87l.91,6.78a25.54,25.54,0,0,0,6.56,11.26Z"/><path d="M669.47,1487.47a242.22,242.22,0,0,0-22.38,32.29c-7.14,12.12-13.67,24.6-19.73,37.29-7,14.67-13.48,29.66-19.05,44.94-3.89,10.66-7.52,21.66-9.18,32.92a180.19,180.19,0,0,0-2.21,28.12,114.58,114.58,0,0,0,2,19.38,71.84,71.84,0,0,0,6.28,17.78,40.32,40.32,0,0,0,3.32,5.68A24.54,24.54,0,0,0,634,1718a19,19,0,0,0,9.48-3l5.16-4a25.45,25.45,0,0,0,6.56-11.25l.91-6.78a25.42,25.42,0,0,0-3.48-12.87,40.9,40.9,0,0,1-4.15-7.53l2.57,6.09a51.38,51.38,0,0,1-3.35-12.84l.91,6.78a97.26,97.26,0,0,1-.51-16.63c.2-4.41.45-8.87,1-13.26l-.91,6.78c1.81-13.44,6.44-26.55,11.27-39.16,1.64-4.3,3.37-8.57,5.16-12.81l-2.58,6.09q7.82-18.47,17.07-36.29c5.65-10.9,11.65-21.64,18.27-32,3-4.68,6.12-9.29,9.51-13.69l-4,5.16c.86-1.12,1.74-2.22,2.65-3.31a19,19,0,0,0,5.27-8.21,23,23,0,0,0,0-19.64,19,19,0,0,0-5.27-8.21l-5.16-4A25.32,25.32,0,0,0,687.5,1480l-6.78.91a25.45,25.45,0,0,0-11.25,6.56Z"/><path d="M650.56,1581,671,1607.82a258.52,258.52,0,0,1,16.29,23.53c2.95,4.9,5.68,9.92,8.28,15A24.58,24.58,0,0,0,721,1658.53a19,19,0,0,0,9.48-3l5.16-4a25.54,25.54,0,0,0,6.56-11.26l.91-6.78a25.52,25.52,0,0,0-3.48-12.87,231.37,231.37,0,0,0-14.88-25.29c-5.83-8.54-12.3-16.65-18.57-24.88l-11.59-15.18a24.54,24.54,0,0,0-25.41-12.17,19,19,0,0,0-9.48,3l-5.16,4a25.45,25.45,0,0,0-6.56,11.25l-.91,6.78a25.32,25.32,0,0,0,3.48,12.87Z"/><path class="cls-3" d="M141.58,1054.28v3.78h-23c-3.18,11-10.5,19-27.42,23.22a13.59,13.59,0,0,0-2.34-3.36c15.48-3.72,22.44-10.44,25.56-19.86H88.72v-3.78h26.64c1.62-7.44,1.56-16.38,1.62-26.76h4.08c-.06,10.14-.06,19.08-1.62,26.76ZM105,1050.92c-2.82-2.4-8.64-5.64-13.44-7.56l2.46-2.76c4.68,1.74,10.56,4.8,13.56,7.26Zm5.46-11c-2.88-2.4-8.76-5.46-13.56-7.32l2.22-2.88c4.74,1.74,10.68,4.62,13.62,7Zm8.82,23.94c8.4,4,16.92,9.36,22,13.8l-2.7,3c-4.86-4.56-13.14-9.9-21.36-14Z"/><path class="cls-2" d="M172,1051.91c16.23-1.31,32.47-2.5,48.73-3.35s32.63-1.36,48.95-1.28,32.45.75,48.6,2.25a397.53,397.53,0,0,1,47.81,7.29,315.38,315.38,0,0,1,46.16,13.73c1.9.74,3.78,1.49,5.66,2.26,1.34.55,1.93-1.63.6-2.17a308.39,308.39,0,0,0-46.15-14.7,386.62,386.62,0,0,0-47.58-8c-16.19-1.75-32.46-2.61-48.74-2.84s-32.64.14-48.93.9-32.7,1.89-49,3.18l-6.08.48c-1.44.12-1.45,2.37,0,2.25Z"/><path class="cls-3" d="M141.34,1461.16a67.65,67.65,0,0,1-9.84,11.22v16.32c0,3-.66,4.38-2.82,5.1s-6.06.72-12.18.66a16.43,16.43,0,0,0-1.5-4.14c4.86.18,9.48.12,10.74.06s1.8-.42,1.8-1.68v-12.9c-10.32,8.22-23,14.1-36.72,18.12a19.65,19.65,0,0,0-2.58-3.54c11.82-3.12,22.8-7.8,31.92-14-11.4.9-22.62,1.86-30.78,2.4l-.66-4c2.76-.12,5.94-.3,9.42-.48V1445.8h12.24a54.28,54.28,0,0,0,2.58-6.12l4.68.78a57.5,57.5,0,0,1-2.94,5.34h16.8v21a52.71,52.71,0,0,0,6.12-7.56ZM102,1449.34v5.88h25.5v-5.88Zm25.5,9H102v5.94h25.5ZM102,1474c7.14-.42,15.24-.9,23.28-1.44.72-.66,1.5-1.26,2.22-1.92v-3.24H102Z"/><path class="cls-3" d="M1078.48,1568.12c-5.7,3.6-11.94,7.32-16.73,10.14l-1.62-3.54c4.25-2.28,10.91-6.18,17.27-9.84Zm5.88,14.4c0,2.82-.66,4.08-2.58,4.8s-5.46.72-10.38.72a18.64,18.64,0,0,0-1.38-4.14c3.9.18,7.86.18,8.94.12s1.5-.36,1.5-1.5v-41.76h-19.08V1537h23Zm-10.5-21.72a150,150,0,0,0-11.58-11.58l3-2a145.52,145.52,0,0,1,11.7,11.1Zm31.08,6.3c-5.58,3.54-11.58,7.26-16.26,10l-2-3.54c4.32-2.28,10.92-6.06,17.22-9.72Zm6.54,15.36c0,2.94-.72,4.2-2.7,4.92s-5.88.72-11.22.72a20.51,20.51,0,0,0-1.44-4.2c4.26.18,8.58.18,9.84.12s1.5-.42,1.5-1.56v-41.7H1088V1537h23.52Zm-10.68-22a142,142,0,0,0-11.64-11.4l2.94-2.1a139,139,0,0,1,11.76,10.86Z"/><path class="cls-3" d="M104.68,1671.78c0,2-.42,3.06-1.62,3.72s-3.3.72-6.72.66a15.74,15.74,0,0,0-1-3.42c2.4.06,4.5.06,5.16.06s1-.24,1-1v-18.84c-1.92,1.92-4,3.72-5.76,5.52l-1.8-3c-.42,7.26-1.5,15.18-3.9,21.36a9.21,9.21,0,0,0-2.58-2.52c3.18-8.64,3.48-20.4,3.48-29V1624h13.8Zm-10.5-26.52c0,3-.06,6.42-.24,10,2-1.5,4.68-3.72,7.5-6.12v-21.42H94.18v9.6l1.92-1.2a46.55,46.55,0,0,1,5.34,6.78l-2.52,1.68a44.25,44.25,0,0,0-4.74-6.54Zm26.46,8.82a77,77,0,0,1,4.44,15.54l-3.06,1.14a35.09,35.09,0,0,0-.66-3.72c-10.92,2-12.6,2.46-13.56,3a19.1,19.1,0,0,0-1.2-3.36c.84-.18,1.62-1.62,2.34-3.6a82.42,82.42,0,0,0,4-14h-6.48v-3.6h7.68v-9.84h-6.6V1632h6.6v-9.9h3.48v9.9h6.24v3.6h-6.24v9.84h7.26v3.6h-8.28a97.76,97.76,0,0,1-5.28,16.44l9.36-1.44a70.38,70.38,0,0,0-2.88-9.12Zm20.1,7.86c0,2-.36,3.12-1.68,3.78s-3.24.78-6.06.78a16.45,16.45,0,0,0-1.26-3.78c2.22.06,4.14.06,4.74.06s.72-.24.72-.9v-32.76h-6.78v47.4h-3.54v-51.18h13.86Z"/><path class="cls-2" d="M164.88,1473.26a545.17,545.17,0,0,0,131.24,7.47q18.54-1.2,37-3.66a1.55,1.55,0,0,0,1.5-1.5,1.5,1.5,0,0,0-1.5-1.5,543.42,543.42,0,0,1-130.8,1.58q-18.39-2-36.61-5.28c-1.89-.34-2.7,2.55-.8,2.89Z"/><path class="cls-2" d="M162.65,1657.87a381.09,381.09,0,0,0,111.39,10q15.7-.93,31.3-3.15c1.9-.27,1.09-3.16-.8-2.9a377.61,377.61,0,0,1-110.39-.73q-15.48-2.4-30.7-6.08c-1.88-.45-2.68,2.44-.8,2.89Z"/><path class="cls-2" d="M153.85,1675.05c24.2,26.16,53.37,47.15,82.9,66.86,29.89,19.95,61.22,38.31,95.23,50.34a278.28,278.28,0,0,0,91,15.61,295.26,295.26,0,0,0,91.4-14,281.55,281.55,0,0,0,82.22-42q4.53-3.37,8.91-6.93c1.5-1.21-.63-3.32-2.12-2.12a275.67,275.67,0,0,1-79.83,44.72,292.32,292.32,0,0,1-90,17.15,278.51,278.51,0,0,1-90.39-12c-33.64-10.36-64.77-27.47-94.24-46.48S190,1706.93,165,1682.21q-4.6-4.55-9-9.28c-1.32-1.42-3.43.7-2.12,2.12Z"/><path class="cls-2" d="M1081.46,1510.87a118.85,118.85,0,0,0-26.13-58.12,101.24,101.24,0,0,0-54.9-33.84,95.73,95.73,0,0,0-36.83-1.1c-1.9.32-1.09,3.21.8,2.9a94.37,94.37,0,0,1,62.38,11.75c18,10.45,32.11,26.68,41.22,45.3a117.72,117.72,0,0,1,10.57,33.91c.29,1.9,3.18,1.1,2.89-.8Z"/><path class="cls-2" d="M1039.93,1580.06a68.14,68.14,0,0,1-51.41,3.61,67.09,67.09,0,0,1-13.76-6.36,1.5,1.5,0,0,0-1.52,2.59,71.47,71.47,0,0,0,53.51,8.18,70.36,70.36,0,0,0,14.7-5.43c1.72-.86.21-3.45-1.52-2.59Z"/><path class="cls-3" d="M93.28,1317.62v5.76H89.8v-38.76h13.92v33Zm0-29.34v25.62h6.9v-25.62Zm47.94,18.78A80.43,80.43,0,0,1,133,1312c1.8,7.14,5.28,13.56,10.14,16.5a12,12,0,0,0-2.46,3c-5.1-3.54-8.58-10.44-10.5-18.12l-3.3,1.56c3.12,7.2,2,14.4-1.5,16.92a8.06,8.06,0,0,1-5.46,1.74c-1.26.06-3,0-4.62-.06a8.78,8.78,0,0,0-.9-3.42c1.86.18,3.6.24,4.74.24a5.1,5.1,0,0,0,3.6-1c2-1.32,2.94-5.28,1.92-10a62.56,62.56,0,0,1-20.22,11.76,12.29,12.29,0,0,0-2-2.94c7.56-2.16,16.44-7,21.24-12a16.36,16.36,0,0,0-2-3.78,66.21,66.21,0,0,1-15.06,8.4,15.25,15.25,0,0,0-2.1-2.76,55,55,0,0,0,15.54-7.92,30.45,30.45,0,0,0-2.76-2.82,81.69,81.69,0,0,1-9.72,4.44,18.65,18.65,0,0,0-2.22-2.76,61.44,61.44,0,0,0,14.76-6.84H105.22v-3.36h24.24c.3-1.2.54-2.58.78-3.9h-20c1.26-4.2,3-11,4-16.08l3.84.42-.84,3.6H132.7l.6-.24,2.7.48c-.66,4.56-1.8,10.62-2.88,15.72h9.3v3.36H125a40.87,40.87,0,0,1-5,3.6,25.21,25.21,0,0,1,5.52,6.48,96.82,96.82,0,0,0,13-7.5Zm-10.44-15.24c.42-2.1.78-4.2,1.08-5.94H116.44c-.54,2-1.14,4.14-1.68,5.94Z"/><path class="cls-2" d="M166.33,1317.09a260.46,260.46,0,0,0,55.7,10.38q8,.58,16,.68c1.93,0,1.93-3,0-3a253.9,253.9,0,0,1-55.52-6.82q-7.74-1.83-15.36-4.13c-1.85-.56-2.64,2.34-.79,2.89Z"/></svg>