<svg id="Layer_1" data-name="Layer 1" xmlns="http://www.w3.org/2000/svg" viewBox="0 0 1242 2208"><defs><style>.cls-1{fill:#f6eabe;}.cls-2{fill:#999;}</style></defs><rect class="cls-1" width="1242" height="2208"/><path d="M571.83,231.75c-12.7,31.76-27.79,65.9-42.08,93.69H631.38v46.05H268.53V325.44H365.4c-4.77-27.79-15.88-66.7-28.59-96.07L379.69,219c13.5,31,27,73,31.76,99.25L386,325.44h96.07C498,293.68,516.25,250,524.19,219ZM593.27,751c0,27-5.56,41.29-25.41,50-18.26,8.73-50,9.53-94.48,9.53-3.18-15.09-11.12-34.94-18.26-48.44,34.93.8,65.1.8,73.84,0,9.53,0,12.7-2.38,12.7-11.9V640.65c-56.37,26.21-113.54,51.61-161.18,72.26l-18.26-42.08c46.84-15.09,112.75-41.29,179.44-66.7V461.21H361.43V575.55c0,73.84-7.15,173.88-47.64,245.34-7.94-8.73-27-23.82-38.12-29.38,35.73-64.31,39.7-150.86,39.7-216V419.92h277.9Zm23.82-540.71H283.61V165.05H435.27c-6.35-20.64-15.09-43.67-23-62.72l46.05-11.91c11.91,22.23,23,51.61,29.38,74.63H617.09ZM395.57,500.12c45.25,15.08,104,38.9,135.77,54L510.7,586.66c-31-16.67-90.52-41.28-135.78-58ZM913.25,767.69c27.79,0,33.35-10.32,36.52-65.1,11.12,8.73,31.76,15.88,46.05,19-6.35,70.67-21.43,90.52-79.4,90.52H765.57c-71.46,0-92.9-13.5-92.9-75.43V390.55H899.75v-77H672.67V94.39h51.61V158.7H982.33v44.47H724.28v68.28H950.57V432.63H724.28v51.61H949.77V520H724.28v52.4H945V608.1H724.28v54.79H953v35.73H724.28v38.11c0,25.4,6.35,31,46.05,31Z"/><path d="M511.92,1837.69a98.85,98.85,0,0,1-6.18,13.56v39.59H501.9v-33.35a61.73,61.73,0,0,1-5.46,7,32.86,32.86,0,0,0-2.28-3.9c5.58-5.87,10.8-14.87,14-24Zm34.2,29.21c-2,1.38-4.44,2.7-6.84,4,2,5.82,5.82,11.16,10.62,13.62a15.86,15.86,0,0,0-2.64,3.06c-4.92-3-8.76-8.76-10.86-15.3-1,.54-2.1,1-3.12,1.5,2.1,6.3,1.26,12.72-1.38,15.24a6.51,6.51,0,0,1-5,1.92c-1,0-2.4-.06-3.72-.12a9.47,9.47,0,0,0-1-3.48,34.56,34.56,0,0,0,4,.24,3.38,3.38,0,0,0,3-1.14c1.44-1.32,2.1-4.86,1.44-8.94a58.72,58.72,0,0,1-19.5,11.4,11.72,11.72,0,0,0-2.34-2.82c7.44-2.22,16.26-7,21.12-11.82a24.37,24.37,0,0,0-1.62-3.66,57.71,57.71,0,0,1-16.74,9.66,16.14,16.14,0,0,0-2.22-2.64c5.82-1.74,13.38-5.58,17.52-9.3a16.53,16.53,0,0,0-2.82-3,39.59,39.59,0,0,1-12.3,6.17,14.66,14.66,0,0,0-2.28-2.58c6.54-2.1,10.86-4.62,13.68-7.25h-9.54v-9.36c-1.08,1-2.22,1.92-3.42,2.88a9.62,9.62,0,0,0-2.64-2.52,45.51,45.51,0,0,0,13.92-16.26l3.84.72a35.7,35.7,0,0,1-2,3.54h11.1l.78-.18,2.34,1.68a52.13,52.13,0,0,1-4.8,6.84h13v12.66H527.7a16.53,16.53,0,0,1-1.38,1.62,22.17,22.17,0,0,1,6,7.85,118.29,118.29,0,0,0,11.1-6.66Zm-25-23.09a54.58,54.58,0,0,1-4.2,5.16h11.58a33.35,33.35,0,0,0,3.72-5.16Zm-4,14.69h8.64a15.14,15.14,0,0,0,2.46-6.42h-11.1Zm24.72-6.42H531.6a18.56,18.56,0,0,1-1.8,6.42h12.06Z"/><path d="M609.36,1860.91v4.31H554.88v-4.31Z"/><path d="M658.44,1843.39a36.24,36.24,0,0,1-12.54,12.53,75.47,75.47,0,0,0,23.7,6.49,17.31,17.31,0,0,0-2.34,3.59,74.7,74.7,0,0,1-25.14-7.85c-7.8,4.14-17,6.77-25.86,8.27a14.38,14.38,0,0,0-1.8-3.59,82.76,82.76,0,0,0,24-7,39.74,39.74,0,0,1-8.7-7.68,54.86,54.86,0,0,1-10.14,7,11.93,11.93,0,0,0-2.88-2.88c8.88-4.38,15.12-10.68,18.24-16.08l4.38.84a35.53,35.53,0,0,1-3.54,4.86H655l.78-.24Zm-24.84,33.53a62.28,62.28,0,0,1-12.72,11.88,13.63,13.63,0,0,0-2.7-2.88,47.41,47.41,0,0,0,12.24-10.5Zm10.38-4v13.56c0,2.1-.42,3.06-1.92,3.66s-3.6.6-7,.6a13.54,13.54,0,0,0-1.26-3.48c2.28.12,4.62.12,5.22.06s.9-.18.9-.84V1872.9H621v-3.54h19v-6.6h4v6.6h18.9v3.54Zm-11.52-27.17a35.22,35.22,0,0,0,9.66,8.22,36.07,36.07,0,0,0,10.2-8.52H632.76Zm20.16,29.57c4.2,3.36,9.18,8.1,11.52,11.28l-3,2.4a70.36,70.36,0,0,0-11.34-11.64Z"/><path d="M722.52,1885.5c2.46,0,2.88-1.2,3.18-7a10.53,10.53,0,0,0,3.66,1.62c-.48,7-1.74,9.06-6.6,9.06H710.94c-5.64,0-7.32-1.38-7.32-6.48v-.84a65.8,65.8,0,0,1-10.38,6,16.33,16.33,0,0,0-2.76-3.06,63.85,63.85,0,0,0,13.14-7.68v-22.62h-6.9c-2.1,16.74-7,27.9-19.32,35.52a19.74,19.74,0,0,0-3-3.36c11.76-6.42,16.38-16.8,18.24-32.16H675.48v-3.77h17.58c.42-4.44.66-9.24.84-14.4l4.14.12c-.18,5.1-.48,9.84-.9,14.28h31.2v3.77h-20.7v19.32a57.72,57.72,0,0,0,12.9-15.9l3.54,1.5a65.78,65.78,0,0,1-16.44,19.44v3.78c0,2.28.54,2.82,3.6,2.82Zm-3.72-36.65a89.13,89.13,0,0,0-10.86-8.88l2.52-2.16a91.23,91.23,0,0,1,11,8.52Z"/><path d="M736,1889.7c4.68-2,7.26-4.92,7.56-9.18a7.35,7.35,0,0,1-1.14.12c-2.34,0-4.26-1.38-4.26-4.08a4,4,0,0,1,4.32-4.14c3.18,0,4.86,2.64,4.86,6.66,0,6.48-4,11.28-10.08,13.44Z"/><path d="M155.76,1920c-1.14,2.46-2.46,5-3.84,7.31h29.16v30.54c0,2.52-.6,3.72-2.46,4.38s-5.16.66-10.38.66a16.63,16.63,0,0,0-1.32-3.9c4.14.18,7.8.12,8.82.12s1.44-.42,1.44-1.32v-6.66H151.5V1963h-3.9V1933.5a50.45,50.45,0,0,1-10.32,10,18.28,18.28,0,0,0-2.58-3.06c7.26-5,12.84-12.41,16.74-20.45H136.08v-3.78h17a56.88,56.88,0,0,0,2.64-7.8l4,.9c-.72,2.34-1.5,4.62-2.4,6.9h30.78V1920Zm21.42,10.92H151.5v6.53h25.68Zm0,16.73v-6.72H151.5v6.72Z"/><path d="M248.52,1935.79v3.77h-23c-3.18,11-10.5,19-27.42,23.22a13.59,13.59,0,0,0-2.34-3.36c15.48-3.72,22.44-10.44,25.56-19.86H195.66v-3.77H222.3c1.62-7.45,1.56-16.38,1.62-26.76H228c-.06,10.14-.06,19.08-1.62,26.76ZM212,1932.42c-2.82-2.39-8.64-5.63-13.44-7.55l2.46-2.76c4.68,1.74,10.56,4.8,13.56,7.26Zm5.46-11c-2.88-2.4-8.76-5.46-13.56-7.32l2.22-2.88c4.74,1.74,10.68,4.62,13.62,7Zm8.82,23.93c8.4,4,16.92,9.36,22,13.8l-2.7,3c-4.86-4.56-13.14-9.9-21.36-14Z"/><path d="M300.54,1958.64c4.26,0,4.92-1.14,5.34-8.16a12.94,12.94,0,0,0,3.66,1.44c-.72,8.22-2.1,10.32-8.94,10.32H282.78c-7.62,0-9.78-1.26-9.78-6.42v-17.76h-6.78v4.38c0,6.42-1.62,14.76-9.12,20.64a12.11,12.11,0,0,0-2.7-2.82c6.9-5.28,8.1-12.42,8.1-17.88v-4.32h-7.08v-3.72h27.3v3.72h-5.94v17.76c0,2.28,1,2.82,5.88,2.82Zm-39.66-37.31H257v-10h50.16v10h-4V1915H260.88Zm-1.38,1.25h20.94v3.73H259.5Zm42.42,27.84c0,2.16-.48,3.18-2,3.84s-4,.66-7.86.6a13.54,13.54,0,0,0-1.26-3.48c2.94.06,5.52.06,6.3,0s1.08-.24,1.08-1v-18.83H282.6v-3.66h15.54v-7.8h3.78v7.8h6.72v3.66h-6.72Zm-14-15.42a37.57,37.57,0,0,1,5.52,10.26l-3.36,1.5a38.68,38.68,0,0,0-5.28-10.43Z"/><path d="M314.7,1948.26l3.48-3.06a113.53,113.53,0,0,1,13.5,13.38L328,1961.7A97.41,97.41,0,0,0,314.7,1948.26Z"/><path d="M381.42,1924.69v.35h14.34v32.64c0,2.7-.6,4-2.58,4.68s-5.64.66-11,.66a15.22,15.22,0,0,0-1.38-4c4.38.18,8.4.12,9.6.06s1.44-.36,1.44-1.44v-28.79H381.3a43,43,0,0,1-.6,6.05c3.84,4.5,8.1,10.08,10,13.56l-2.4,3a87.56,87.56,0,0,0-8.46-12.18,32.38,32.38,0,0,1-8.34,15.06,11.45,11.45,0,0,0-2.82-2.82c7-6.66,8.46-15.54,8.82-22.67H366a58.92,58.92,0,0,1-.6,6.23,62.5,62.5,0,0,1,6.36,8.94l-2.4,3.18a60.91,60.91,0,0,0-4.92-7.68,32.3,32.3,0,0,1-8.28,14.82,12.31,12.31,0,0,0-2.76-2.82c6.9-6.66,8.4-15.54,8.76-22.67h-9.84v34.25h-4v-38h13.86v-8.63H345.78v-3.84h52.5v3.84H381.42Zm-3.9.35v-8.63h-11.4V1925Z"/><path d="M454.2,1957.62c0,2.52-.6,3.72-2.4,4.44s-5.16.72-10.14.72a14.33,14.33,0,0,0-1.44-4c3.9.12,7.56.06,8.52.06s1.38-.36,1.38-1.26v-8.52H435.36v12.6h-4v-12.6H416.46a28.92,28.92,0,0,1-7.26,14.4,12.33,12.33,0,0,0-3.06-2.82c6.66-6.78,7.5-16.26,7.5-23.64v-11a63.16,63.16,0,0,1-5,4,15.06,15.06,0,0,0-3-2.81,52.86,52.86,0,0,0,17-19l4.44.84c-.66,1.14-1.32,2.22-2,3.42h17.28l.6-.24,2.7,1.86a50.41,50.41,0,0,1-6.12,8.1h14.7Zm-22.86-12.12v-8.16H417.66a56.4,56.4,0,0,1-.54,8.16Zm-8.64-29.63a61.73,61.73,0,0,1-5.22,6.3h17.4a39,39,0,0,0,5-6.3Zm-5,17.93h13.68v-8H417.66Zm32.46-8H435.36v8h14.76Zm0,19.67v-8.16H435.36v8.16Z"/><path d="M464.7,1948.26l3.48-3.06a113.53,113.53,0,0,1,13.5,13.38L478,1961.7A97.41,97.41,0,0,0,464.7,1948.26Z"/><path d="M547.08,1956.84v3.84H502.5v-49.25h43.26v3.84H506.58v10.07H542.1v20.1H506.58v11.4Zm-40.5-27.71v12.54H538v-12.54Z"/><path d="M604.26,1914.67v46.49H600v-4.86H564.06v5.16H560v-46.79ZM600,1952.28v-33.59H564.06v33.59Z"/><path d="M614.7,1948.26l3.48-3.06a113.53,113.53,0,0,1,13.5,13.38L628,1961.7A97.41,97.41,0,0,0,614.7,1948.26Z"/><path d="M675.18,1935.79a37.53,37.53,0,0,0,24.6,21.83,15.05,15.05,0,0,0-2.76,3.66c-12.36-4.14-21.12-13.08-25.92-25.49h-9.72v20.93l14.7-3.78a17.38,17.38,0,0,0,.36,3.72c-16.38,4.44-18.48,5.16-19.86,6.06a16.15,16.15,0,0,0-1.62-3.6,3.58,3.58,0,0,0,2.28-3.54v-19.79H645.6v-4h11.64v-23.16h4.14v23.16h37.08v4Zm17-24.42c-5.88,7-14.94,13.2-23.16,17.21a21.52,21.52,0,0,0-3.3-3.12c8.52-3.59,17.22-9.41,22.56-15.71Z"/><path d="M758,1931.34a62,62,0,0,1-9.78,10.86v14.88c0,2.88-.72,4.2-2.82,4.86s-5.94.72-12.12.72a17.16,17.16,0,0,0-1.44-4c5,.18,9.48.18,10.8.12s1.68-.48,1.68-1.74V1945.5c-10.44,8.16-23.4,14-37.2,18a18.53,18.53,0,0,0-2.46-3.36c12.66-3.24,24.42-8.22,34.14-15H706.92v-3.54h8v-27.35h12.36a47.67,47.67,0,0,0,2.46-6.06l4.56.78c-.9,1.74-1.92,3.66-2.88,5.28h16.86v22.92a59.61,59.61,0,0,0,6.36-7.56Zm-39.18-13.55v5.58h25.5v-5.58Zm25.5,8.7h-25.5v5.81h25.5Zm-.9,15.11.9-.78v-5.4h-25.5v6.18Z"/><path d="M764.7,1948.26l3.48-3.06a113.53,113.53,0,0,1,13.5,13.38L778,1961.7A97.41,97.41,0,0,0,764.7,1948.26Z"/><path d="M825.24,1908.85a45.55,45.55,0,0,1-1.92,7.26c5,8.64,14.88,14.93,26.7,17.39a15.74,15.74,0,0,0-2.52,3.42,44.94,44.94,0,0,1-9.06-3.17v24.35c0,2.28-.6,3.24-2.34,3.9-1.74.48-4.74.54-9.42.54a14.48,14.48,0,0,0-1.32-3.36c3.54.12,6.84.12,7.74.06s1.26-.3,1.26-1.14v-5.7h-24.6v10.44h-4v-28.43a57.71,57.71,0,0,1-9.18,3.11,20.52,20.52,0,0,0-2.4-3.48c15.84-3.29,24.42-10.31,26.88-25.79Zm-10.14,13.26c-5.88,1.43-11.88,2.76-16.68,3.84l-1.2-3.54c4.44-.72,11-2.1,17.58-3.48Zm-1.74-3.9a72.19,72.19,0,0,0-14-5.52l1.5-2.76a75.36,75.36,0,0,1,13.92,5.22Zm21,17.09h-24.6v5.22h24.6Zm0,13.8v-5.46h-24.6v5.46Zm.48-17.15a39.63,39.63,0,0,1-13.14-12,28.93,28.93,0,0,1-11,12Zm10.8-5.76a135.33,135.33,0,0,0-17.34-4.32l1.32-3.12a150.12,150.12,0,0,1,17.28,4Zm.3-13.32a82.09,82.09,0,0,1-14.88,4.62l-1.26-2.94a113.45,113.45,0,0,0,14.7-4.62Z"/><path d="M857.22,1928a10.64,10.64,0,0,0-2.7-2.21c4.68-5.22,7.86-12.24,9.48-17.52l3.54.54c-.48,1.5-1.08,3.12-1.74,4.74h7.38l.66-.24L876,1915a66,66,0,0,1-4.86,8.76h5.4v25.61H857.7V1927.5Zm-2.1,28.26c5.52-.78,14-2,22.26-3.36l.12,3.3c-7.8,1.32-15.9,2.64-21.78,3.6Zm9.18-39.47a53.18,53.18,0,0,1-3.84,6.9h7.26a46.7,46.7,0,0,0,3.72-6.9Zm1.38,18.05V1927h-4.86v7.92Zm-4.86,3.12v8.1h4.86V1938Zm12.48-11h-4.8v7.92h4.8Zm0,11h-4.8v8.1h4.8Zm22.26-13.31a82.28,82.28,0,0,1-6.72,4.85v1a127.65,127.65,0,0,0,15.06-4l1.62,2.83a117.27,117.27,0,0,1-16.68,3.35v1.38c0,1.2.48,1.44,3.42,1.44h10.38c2,0,2.46-.48,2.64-4.13a11.59,11.59,0,0,0,2.64,1.08c-.36,4.73-1.32,5.93-4.92,5.93H892.2c-5,0-6.24-.78-6.24-4.32v-2.69a50.1,50.1,0,0,1-7,3.65,19.11,19.11,0,0,0-1.86-2.76,64.67,64.67,0,0,0,13.44-7.61h-12v-3.12h9.78v-4.8h-7.92v-3.18h7.92V1909h3.18v4.56h7.68v3.18h-7.68v4.8h3.18a59.6,59.6,0,0,0,10.5-11l2.22,1.86a60.21,60.21,0,0,1-8.28,9.18h9.84v3.12Zm-13.92,16.79h24v21.42h-3.3v-3.12H884.82v3.36h-3.18Zm3.18,3.12v4.56h17.52v-4.56ZM902.34,1957V1952H884.82V1957Z"/><path d="M931.14,1926h10.74v3.72H931.14v1.62c2.22,2.39,8.7,10,10.14,11.87l-2.46,3.24a129,129,0,0,0-7.68-10.49v26.93h-4v-27.17c-3,7.07-7.2,14.21-11.1,18.41a28.3,28.3,0,0,0-2.22-3.66c4.56-4.62,9.6-13.08,12.36-20.75H915.24V1926h11.88v-10.32c-3.42.54-6.9,1-10.14,1.44a15.29,15.29,0,0,0-1.08-3.18c7.92-1.08,17.52-2.82,22.68-5l2.76,3.12a83.55,83.55,0,0,1-10.2,2.82Zm34.74-12.06V1960h-4v-4.56h-14v5H944v-46.49Zm-4,37.67v-33.83h-14v33.83Z"/><path d="M1005.18,1935.79a37.53,37.53,0,0,0,24.6,21.83,15.05,15.05,0,0,0-2.76,3.66c-12.36-4.14-21.12-13.08-25.92-25.49h-9.72v20.93l14.7-3.78a17.38,17.38,0,0,0,.36,3.72c-16.38,4.44-18.48,5.16-19.86,6.06a16.15,16.15,0,0,0-1.62-3.6,3.58,3.58,0,0,0,2.28-3.54v-19.79H975.6v-4h11.64v-23.16h4.14v23.16h37.08v4Zm17-24.42c-5.88,7-14.94,13.2-23.16,17.21a21.52,21.52,0,0,0-3.3-3.12c8.52-3.59,17.22-9.41,22.56-15.71Z"/><path d="M1044.3,1925.46v3.25c0,10-.78,24.41-6.66,34.19a15.57,15.57,0,0,0-3.48-2c5.64-9.36,6.18-22.68,6.18-32.1v-17.51h44.46v14.21Zm0-10.67v7.14h36.48v-7.14Zm37,43.67c2.7,0,3.18-1.14,3.48-6.78a13.21,13.21,0,0,0,3.66,1.56c-.6,7-1.8,8.88-6.9,8.88H1069c-6,0-7.68-1.32-7.68-6.3v-4.92l-15.72,2.46-.6-3.36,16.32-2.52v-5.88l-13.62,2.1-.66-3.24,14.28-2.28v-5.46c-4.26.78-8.7,1.38-12.78,1.92a13.47,13.47,0,0,0-1.14-2.93c10.14-1.33,22-3.48,28.26-5.88l3.42,2.63a106.83,106.83,0,0,1-13.86,3.54v5.64l17.22-2.64.6,3.25-17.82,2.75v5.88l21.48-3.36.6,3.3-22.08,3.48v5.46c0,2.22.66,2.7,4,2.7Z"/><path d="M1113.36,1952.88a9,9,0,1,1-9.06-9A9,9,0,0,1,1113.36,1952.88Zm-2.82,0a6.21,6.21,0,1,0-6.24,6.24A6.22,6.22,0,0,0,1110.54,1952.88Z"/><path d="M197.52,2029.5c2.46,0,2.88-1.2,3.18-7a10.53,10.53,0,0,0,3.66,1.62c-.48,7-1.74,9.06-6.6,9.06H185.94c-5.64,0-7.32-1.38-7.32-6.48v-.84a65.8,65.8,0,0,1-10.38,6,16.33,16.33,0,0,0-2.76-3.06,63.85,63.85,0,0,0,13.14-7.68v-22.62h-6.9c-2.1,16.74-7,27.9-19.32,35.52a19.74,19.74,0,0,0-3-3.36c11.76-6.42,16.38-16.8,18.24-32.16H150.48v-3.77h17.58c.42-4.44.66-9.24.84-14.4l4.14.12c-.18,5.1-.48,9.84-.9,14.28h31.2v3.77h-20.7v19.32a57.72,57.72,0,0,0,12.9-15.9l3.54,1.5a65.78,65.78,0,0,1-16.44,19.44v3.78c0,2.28.54,2.82,3.6,2.82Zm-3.72-36.65a89.13,89.13,0,0,0-10.86-8.88l2.52-2.16a91.23,91.23,0,0,1,11,8.52Z"/><path d="M239.46,2029.62a70.7,70.7,0,0,0,7.38.36c2.1.06,14.76,0,17.58-.06a16.36,16.36,0,0,0-1.44,3.84H246.72c-12.3,0-19.92-1.92-24.72-10.38a31.55,31.55,0,0,1-9.48,11.7,19.84,19.84,0,0,0-3.06-2.82c6.3-4.14,10.2-10.92,11.82-19.86l4,.6a55.92,55.92,0,0,1-1.5,6.06c2.34,5.64,6.3,8.52,11.7,9.84v-18.54H210.72v-3.6H263.4v3.6H239.46v7.08h20v3.6h-20Zm17.22-27.17h-39.6v-19.56h39.6Zm-4-16.44H221v5.16h31.68Zm0,8.1H221v5.27h31.68Z"/><path d="M287.1,1981.69a104.87,104.87,0,0,1-6.3,13.08v40.13H277v-34.19a65,65,0,0,1-6.36,7.79,23.56,23.56,0,0,0-2.28-3.9c5.94-5.81,11.58-14.81,15-24Zm12.6,20.76c-.78,2.69-1.62,5.22-2.34,7.49H317l.6-.3,2.82,1.8c-3.6,4.2-8.7,9.9-13.26,14.94a68.32,68.32,0,0,1,6.72,5.64l-3,3a92.3,92.3,0,0,0-15.48-12.3l2.88-2.34c1.92,1.08,4,2.46,5.88,3.78,3.24-3.42,6.72-7.32,9.36-10.49H292c1.14-3.07,2.34-7,3.66-11.22h-11v-3.72h12.18c.72-2.52,1.44-5.1,2.16-7.62H288v-3.66h11.88q1-3.6,1.8-6.84l3.9.54c-.54,2-1.08,4.14-1.68,6.3h17.34v3.66H302.88c-.66,2.52-1.38,5.1-2.16,7.62h23.22v3.72Z"/><path d="M349.86,2018.58a28,28,0,0,0,1.38,3.48c-11,8-12.6,9.24-13.44,10.32a13.2,13.2,0,0,0-2.28-3.54c1.14-.78,3.36-2.76,3.36-5.34V2003h-8.94v-3.89h13v24.29Zm-6.66-24.83a77,77,0,0,0-9.06-9.66l2.64-2.4a77.64,77.64,0,0,1,9.18,9.18Zm35.52,36.65c1.5,0,1.8-1,1.92-7.38a13.91,13.91,0,0,0,3.6,1.56c-.42,7.62-1.44,9.54-5.1,9.54h-6.3c-4.26,0-5.28-1.2-5.28-5.46V2011h-5.64c-1,11.52-3.54,19.56-14.52,24.06A9.87,9.87,0,0,0,345,2032c10-3.78,12.18-11,12.9-21h-7.74v-18.65H368.4a91.89,91.89,0,0,0,5.22-12l4.08,1.32c-1.56,3.54-3.36,7.5-5,10.68H379V2011h-7.5v17.64c0,1.5.24,1.74,1.86,1.74Zm-20.58-38.15a43.6,43.6,0,0,0-5.34-10.32l3.3-1.38a44,44,0,0,1,5.7,10.14ZM354,2007.42h21V1996H354Z"/><path d="M440.82,1991.05v27.77h-4.08v-3.48H418.92v19.56h-4.14v-19.56H397v3.78h-4v-28.07h21.72v-10.74h4.14v10.74Zm-26,20.33V1995H397v16.43Zm22,0V1995H418.92v16.43Z"/><path d="M466,1981c-1,2.94-2.1,6.3-3.18,8.88H473v38.75h-16.8v4.8h-3.66v-43.55h6.66a64.68,64.68,0,0,0,2.58-9.72Zm3.3,12.47H456.18v13.08h13.14Zm0,31.56v-14.88H456.18v14.88Zm33.06-33.17c-1,27.53-1.8,36.71-4.2,39.59a5.6,5.6,0,0,1-4.56,2.28,74.94,74.94,0,0,1-8.82-.12,9.42,9.42,0,0,0-1.32-3.9c3.9.36,7.5.36,8.82.36s1.92-.12,2.52-.9c2-2.1,2.94-11.34,3.72-35.7H482.82a55.33,55.33,0,0,1-5.64,10.68,36.22,36.22,0,0,0-3.36-2.22c4.08-5.33,7.32-13.61,9.18-21.89l3.84.84c-.78,3-1.62,6-2.64,8.88h18.18Zm-12.78,27a106.51,106.51,0,0,0-9.3-13.92l3.06-1.79a102.47,102.47,0,0,1,9.6,13.61Z"/><path d="M564.36,2004.91v4.31H509.88v-4.31Z"/><path d="M583.68,2002.26c1.8,2,7,8.52,8.16,10.2l-2.46,3.12c-1-2-3.66-6-5.7-9v28.26h-3.9v-27.42c-2.52,6.25-5.88,12.54-9.12,16.38a17.46,17.46,0,0,0-2-3.54c3.84-4.32,8.16-12.35,10.56-19.38h-9.12v-3.71h9.72v-9.54c-2.88.6-5.82,1.14-8.58,1.5a13.1,13.1,0,0,0-1.14-3.12c6.66-1.08,14.64-2.82,19-4.8l2.52,3.12a51.44,51.44,0,0,1-7.92,2.52v10.32h7.86v3.71h-7.86Zm39.36-9.18v25.8h-3.9v-3.36h-8.76v19.32h-4v-19.32h-9.06v3.66h-3.78v-26.1h12.84v-12.59h4v12.59Zm-16.62,18.6v-14.76h-9.06v14.76Zm12.72,0v-14.76h-8.76v14.76Z"/><path d="M650.7,1992a57.92,57.92,0,0,1-7.32,13c2.34,2.35,6.84,7,8,8.34l-2.4,3.24c-1.26-1.8-4.2-5.28-6.54-7.85V2035h-3.66v-24.48a52,52,0,0,1-7.74,6.78,12.36,12.36,0,0,0-1.86-3.78A50.23,50.23,0,0,0,646,1994.35H630.42v-3.66h17.52l.72-.18Zm-8.46-1.92a54.42,54.42,0,0,0-5.52-7.86l3.06-1.8a45.38,45.38,0,0,1,5.7,7.56Zm40-.18v30.95h-3.78v-2.4H669.3v16.44h-3.9v-16.44h-8.94v2.82H652.8v-31.37h12.6v-9.54h3.9v9.54Zm-25.74,3.66v8.76h8.94v-8.76Zm8.94,21.23v-8.88h-8.94v8.88Zm3.9-21.23v8.76h9.12v-8.76Zm9.12,21.23v-8.88H669.3v8.88Z"/><path d="M743.76,2011.44v3.24h-53.4v-3.24Zm-5.28-4H695.16v-19.25h12.18a34.52,34.52,0,0,0-4-6.42l3.24-1.5a32.26,32.26,0,0,1,4.32,6.72l-2.28,1.2h14a59.25,59.25,0,0,0,5.1-7.74l3.66,1.38a76.16,76.16,0,0,1-4.74,6.36h11.76Zm-41.16,11.28h39.54v16.08H733v-2.94H701.1V2035h-3.78Zm1.56-22.37h16.2v-5.22h-16.2Zm0,8.16h16.2v-5.34h-16.2Zm2.22,17.57v6.66H733v-6.66Zm33.48-31H718.86v5.22h15.72Zm0,8H718.86v5.34h15.72Z"/><path d="M751,2033.7c4.68-2,7.26-4.92,7.56-9.18a7.35,7.35,0,0,1-1.14.12c-2.34,0-4.26-1.38-4.26-4.08a4,4,0,0,1,4.32-4.14c3.18,0,4.86,2.64,4.86,6.66,0,6.48-4,11.28-10.08,13.44Z"/><path d="M799.08,1983.91c3.18,4,6.6,9.42,7.86,13l-3.42,1.55c-.36-.89-.9-2-1.44-3.11-16.74,1.14-18.72,1.38-20,1.86a26.66,26.66,0,0,0-1.32-3.84c.84-.18,1.74-1,2.76-2.34a58,58,0,0,0,6.42-10.68l4,1.26a70,70,0,0,1-7.5,11.46l13.92-.78a60.66,60.66,0,0,0-4.56-7Zm5.22,46.31c0,2.16-.42,3.3-2,3.9s-4.2.72-7.92.72a18.7,18.7,0,0,0-1.38-3.72c2.94.12,5.52.12,6.36.06s1-.24,1-1v-7.5H787V2035H783.3v-33.42h21ZM787,2005v5.46H800.4V2005Zm13.38,14.46v-5.82H787v5.82Zm16.62-13c-5.46,0-7-1.2-7-5.76v-20.16h4v10.26a102.32,102.32,0,0,0,14.4-5.76l2.76,2.94A144.09,144.09,0,0,1,814,1994v6.54c0,1.87.48,2.22,3.3,2.22h10c2.4,0,2.82-1,3.12-7.07a10,10,0,0,0,3.54,1.61c-.48,7.2-1.68,9.07-6.3,9.07Zm10.62,24.47c2.52,0,3-1.2,3.3-8a11.67,11.67,0,0,0,3.54,1.5c-.48,8-1.68,10-6.54,10h-10.8c-5.52,0-7-1.2-7-5.82v-20.39H814v9.65c5.64-1.68,11.7-4.08,15.24-6.3l2.58,3c-4.62,2.64-11.64,5-17.82,6.66v7.38c0,1.92.6,2.28,3.48,2.28Z"/><path d="M859.8,2018a67.84,67.84,0,0,1-16.56,16.56,30.68,30.68,0,0,0-3.24-2.88c5.88-3.84,12.36-10,15.54-15.24Zm33.78-8.81V2013H840.42v-3.83Zm-49.14-23.34a76.26,76.26,0,0,1,9.3,17.16l-3.84,1.73a72.39,72.39,0,0,0-9.06-17.39Zm17.88-4.44a74.18,74.18,0,0,1,7,18l-3.9,1.38a75.8,75.8,0,0,0-6.78-18.17Zm15,35.27c5.52,4.8,12.66,11.52,16.2,15.72l-3.78,2.22a157.09,157.09,0,0,0-15.84-16.08Zm15.3-32.33A169.37,169.37,0,0,1,879,2007.25l-3.78-1.33a138,138,0,0,0,13-23Z"/><path d="M925,2006.22a130.15,130.15,0,0,1-14,21.36l31.26-2.46c-2.52-3.9-5.34-8-7.92-11.4l3.6-1.86c5.1,6.72,11.16,15.54,14,21.12l-3.66,2.22c-1-1.8-2.22-4-3.72-6.48-33.42,3-36.72,3.18-38.94,4.14a30.65,30.65,0,0,0-1.56-4.44c1.32-.3,2.7-2,4.56-4.44a113.73,113.73,0,0,0,10.86-17.76h-19v-4.07h52.86v4.07Zm22.26-16.91h-40.2v-4h40.2Z"/><path d="M979,1984.27c-2,4.86-4.44,10.62-6.72,15.42,5,5,6.12,9.29,6.18,13.13,0,3.06-.78,5.64-2.46,6.84a6.69,6.69,0,0,1-3.18,1.08,21.32,21.32,0,0,1-4.38.06,9.5,9.5,0,0,0-1.08-3.6,15.09,15.09,0,0,0,4,.12,3.24,3.24,0,0,0,2.1-.6c1.08-.6,1.44-2.34,1.44-4.26-.06-3.36-1.32-7.5-6.3-12.35,2-4.32,4.08-9.54,5.58-13.62h-8.58V2035h-3.6v-52.13h13.8l.66-.18Zm30.78,2.4a33.69,33.69,0,0,1-9.84,11.7,48.47,48.47,0,0,0,14.7,5.34,15.93,15.93,0,0,0-2.4,3.29,47.31,47.31,0,0,1-15.42-6.54,58.83,58.83,0,0,1-16.74,7,13,13,0,0,0-2-3.18,56,56,0,0,0,15.72-6,31.11,31.11,0,0,1-6.12-6.48,50.07,50.07,0,0,1-6.12,5.09,16.43,16.43,0,0,0-2.7-2.63,40.53,40.53,0,0,0,13.14-13.92l4,.72c-.9,1.44-1.8,2.94-2.94,4.44h13.56l.66-.18Zm-10.2,35.39h13.8v3.54h-13.8V2035H995.7v-9.42H980a83,83,0,0,0,3.12-10.26l3.54.54c-.54,1.92-1.2,4.2-1.8,6.18h10.8v-8.52h-14V2010h14v-4.79h3.84V2010h11.88v3.54H999.54Zm-9.66-32.63a27.89,27.89,0,0,0,6.9,6.9,29.42,29.42,0,0,0,7.44-7.5h-13.8Z"/><path d="M1048.74,1988.11v8.28h22.14v33.23c0,2.46-.6,3.6-2.4,4.26s-5.22.66-10.08.66a15.19,15.19,0,0,0-1.38-3.66c4,.12,7.56.06,8.64.06s1.32-.36,1.32-1.32v-29.45h-18.24v34.13h-3.9v-34.13h-17.7v34.73h-3.84v-38.51h21.54v-8.28h-24.48v-4h53.28v4Zm-17.16,27.59c3.66,2.16,8.52,5.34,11,7.26l-2.34,2.52c-2.52-2-7.32-5.22-11-7.56Zm.6-11.7c3.48,2,8.16,4.86,10.62,6.6l-2.4,2.53c-2.4-1.81-7-4.8-10.5-7Zm29.7,21.36c-2.58-2-7.56-5.22-11.4-7.5l2.28-2.28c3.72,2.16,8.76,5.22,11.46,7.14Zm.48-12.3c-2.46-1.8-7.26-4.8-11-6.89l2.22-2.22c3.6,2,8.52,4.8,11,6.47Z"/><path d="M1098.36,2024.88a9,9,0,1,1-9.06-9A9,9,0,0,1,1098.36,2024.88Zm-2.82,0a6.21,6.21,0,1,0-6.24,6.24A6.22,6.22,0,0,0,1095.54,2024.88Z"/><rect class="cls-2" x="1113" y="401" width="65" height="126" rx="12"/><path class="cls-1" d="M1132.7,430.82c1.25,1.6,4.9,6.7,5.7,8.05l-2,2.45c-.7-1.5-2.35-4.4-3.75-6.65V461h-3.15V436.57c-1.5,5.05-3.5,9.9-5.55,12.85a14.83,14.83,0,0,0-1.75-3.1c2.9-4,5.8-11.5,7.2-18h-6.2v-3.15h6.3v-9.65h3.15v9.65h5.45v3.15h-5.45Zm19.1.7a19.47,19.47,0,0,0,.45,2.65c-10.15,2.7-11.6,3.15-12.5,3.75a12.13,12.13,0,0,0-1.1-3.2c.7-.2,1.55-.5,1.55-2.2v-16.7h3.25v6.5h8.35v2.9h-8.35v8.3Zm2.35,5.5-2,3.75h12.65V461h-3.4v-1.75h-17v2h-3.3V440.77h7.9c.55-1.5,1.2-3.25,1.55-4.6Zm7.3,6.5h-17v5.05h17Zm0,13v-5.3h-17v5.3Zm2.25-22.4c1.25,0,1.5-.75,1.65-5.25a9.16,9.16,0,0,0,2.85,1.25c-.3,5.45-1.2,6.95-4.15,6.95h-5.85c-3.65,0-4.55-.95-4.55-4.45V415.87h3.25v6.5h10.2v2.9h-10.2v7.35c0,1.3.25,1.5,1.65,1.5Z"/><path class="cls-1" d="M1167.55,490.87v2.5H1123.4v-2.5h20.25v-3.2H1126.8v-2.3h16.85v-3H1128.2v-2.25h15.45v-3.2H1123.5v-2.5h20.15v-3.05H1128.8V469h14.85v-3.55h3.25V469h14.45v5.4h6.15v2.5h-6.15v5.45H1146.9v3h17.3v2.3h-17.3v3.2Zm-37.75,5h31.75v15.25h-3.25v-1.6H1133v1.7h-3.2Zm3.2,2.4v3.2h25.3v-3.2Zm25.3,8.85v-3.4H1133v3.4Zm-11.4-32.7h11.15v-3.05H1146.9Zm0,5.7h11.15v-3.2H1146.9Z"/><rect class="cls-2" x="1159" y="1218" width="65" height="319" rx="12"/><path class="cls-1" d="M1204.05,1256.79a27.61,27.61,0,0,0,11.5,8.1,11.65,11.65,0,0,0-2.15,2.55,30.77,30.77,0,0,1-12.8-10.65h-15.95a34.39,34.39,0,0,1-13,11.3,11.43,11.43,0,0,0-2.15-2.55,30.39,30.39,0,0,0,11.6-8.75H1170v-2.85h10v-16.15h-7.7V1235h7.7v-5h3.3v5h18.55v-5h3.35v5h7.65v2.8h-7.65v16.15h9.8v2.85Zm-10,14.5h17.3v2.85H1173.8v-2.85h16.9v-5.6h-10.45v-2.8h10.45v-4.4h3.35v4.4h10.65v2.8h-10.65Zm-10.8-33.5v3.6h18.55v-3.6Zm0,9.8h18.55v-3.65h-18.55Zm0,6.35h18.55v-3.8h-18.55Z"/><path class="cls-1" d="M1188.25,1298.54s0,1.15,0,1.55c-.6,15.85-1.2,21.2-2.6,23a3.71,3.71,0,0,1-2.8,1.45,32.65,32.65,0,0,1-4.45,0,9.25,9.25,0,0,0-.85-3c1.75.15,3.2.15,3.9.15a1.42,1.42,0,0,0,1.45-.65c1-1.2,1.6-6,2.15-19.35h-6.8c-.55,10-2,18.25-6.45,23.65a9.53,9.53,0,0,0-2.55-2.35c5.45-6.45,5.9-17.85,6.1-31.55h-5.2v-3.1h20.1v3.1h-11.65c0,2.45-.1,4.85-.2,7.15Zm-7.9-10.45a33.47,33.47,0,0,0-4.25-7.15l2.9-1.15a31.92,31.92,0,0,1,4.4,7Zm23.85-7.45a15.26,15.26,0,0,1-.85,2.55c2.65,5.45,7.7,11.35,12.45,14a13,13,0,0,0-2.45,2.75c-4.25-2.7-8.5-8-11.4-13.3a32.61,32.61,0,0,1-11,13.6,12.79,12.79,0,0,0-2.35-2.65c5.85-3.6,10.35-10.2,12.5-17.85Zm-8.3,32.45a74,74,0,0,1,13.6,8.25l-2.25,2.9c-2.85-2.6-8.75-6.3-13.4-8.65Zm9.5-4.85a66.22,66.22,0,0,0-8.6-6.85l2.15-2.2a67.46,67.46,0,0,1,8.75,6.55Z"/><path class="cls-1" d="M1184.15,1367.64v7.9H1181v-7.9h-11.4v-3H1181v-3.75h-9.3v-16.75h22v16.75h-9.6v3.75h11.3v3Zm-2.75-26.25h-10.1v-9.85h10.1Zm-2.6-7.45h-4.9v5h4.9Zm-4.25,17.3h6.6v-4.45h-6.6Zm0,7h6.6v-4.5h-6.6Zm19.65-16.85h-10.3v-9.85h10.3Zm-3.35,5.4H1184v4.45h6.85Zm0,7H1184v4.5h6.85Zm.7-19.8h-5.1v5h5.1Zm22,16a50.63,50.63,0,0,1-7.2,13.95c1.35,4.9,3,7.85,5.1,8,1.1,0,1.85-2.75,2.2-7.8a12.91,12.91,0,0,0,2.55,1.75c-1,7.7-2.75,10-4.7,9.9-3.35-.15-5.8-3.35-7.6-8.75a35.7,35.7,0,0,1-10,8.15,10.74,10.74,0,0,0-2.4-2.35,33.46,33.46,0,0,0,11.4-9.3,107.54,107.54,0,0,1-2.45-16l-5.6.7-.45-3,5.75-.7c-.35-4.4-.55-9.1-.75-14h3.15c.15,4.75.35,9.35.7,13.6l11.9-1.45.4,3-12,1.5a124,124,0,0,0,1.85,13,46.84,46.84,0,0,0,5.6-11.6Zm-1.75-9.15a32.82,32.82,0,0,0-6-8.45l2.5-1.4a36.73,36.73,0,0,1,6.1,8.25Z"/><path class="cls-1" d="M1213.15,1382.29v43.35h-3.3v-2.35H1175v2.35h-3.15v-43.35Zm-3.3,38v-34.9H1175v34.9Zm-17.2-7.9c-5.25,1.05-10.65,2.15-14.75,3l-.55-2.55c3.9-.65,9.5-1.7,15.2-2.75Zm12.3-14.55a38.63,38.63,0,0,1-5.6,12.4c1.15,2.9,2.6,4.75,4.4,5,.75.1,1.3-2,1.6-5.25a9.83,9.83,0,0,0,2.2,1.45c-.65,5.35-2.15,7.3-4.65,6.45-2.3-.45-4.1-2.3-5.5-5.15a31.26,31.26,0,0,1-6.85,6,15.66,15.66,0,0,0-2-2.1,26.23,26.23,0,0,0,7.7-6.75,70.89,70.89,0,0,1-2.8-15.1h-15.6v-2.55h15.35c-.15-1.8-.3-3.65-.4-5.55h2.9c.1,1.85.2,3.75.35,5.55h11.15v2.55h-11a73.53,73.53,0,0,0,2,12.2,35.88,35.88,0,0,0,4-9.7Zm-14.15.3v9.7h-11.1v-9.7Zm-2.5,2.15h-6.2v5.35h6.2Zm15.9-8.85a22.72,22.72,0,0,0-5.5-3.55l1.6-1.65a20.21,20.21,0,0,1,5.5,3.4Z"/><path class="cls-1" d="M1207,1442.09a51.83,51.83,0,0,1-12,19.6,49.94,49.94,0,0,0,20.5,10.5,16.79,16.79,0,0,0-2.25,3,50.92,50.92,0,0,1-20.75-11.1c-5.65,5-12.55,8.6-21,11.3a15.53,15.53,0,0,0-2-3.05c8.35-2.45,15.1-5.9,20.6-10.6a57.05,57.05,0,0,1-12.2-19.65h-7.75v-3.25h44.75v3.25Zm-25.75,0a52.13,52.13,0,0,0,11.3,17.3,47.46,47.46,0,0,0,10.7-17.3Zm11.25-3.55a38.13,38.13,0,0,0-3.8-7.8l3.4-1a39,39,0,0,1,4,7.65Z"/><path class="cls-1" d="M1213.8,1510h-19.65v11.35c0,2.05-.55,3-2.2,3.55s-4.15.6-8.35.6a12.78,12.78,0,0,0-1.45-3.3c3.4.1,6.55.1,7.4,0s1.15-.25,1.15-1V1510h-19.65v-3.15h19.65v-3.2a44.78,44.78,0,0,0,9.2-6.15h-20.7v-3.15h24l.75-.2,2.25,1.7a51.88,51.88,0,0,1-12.1,9v2h19.65Zm-38.85-14.7h-3.25v-10h19.8a28.4,28.4,0,0,0-2.7-4.6l3.2-1a29.73,29.73,0,0,1,3.4,5.65h17.8v10h-3.4v-6.85H1175Z"/><path d="M437.11,1033a259.13,259.13,0,0,1,.12,59.31,19.22,19.22,0,0,0,2.2,9.83,26.18,26.18,0,0,0,23.3,15.67l6.78-.91a25.45,25.45,0,0,0,11.25-6.56l4-5.16a25.27,25.27,0,0,0,3.48-12.87,259.13,259.13,0,0,0-.12-59.31,19.16,19.16,0,0,0-2.2-9.82,22.91,22.91,0,0,0-13.47-13.48,19.22,19.22,0,0,0-9.83-2.2l-6.78.91a25.45,25.45,0,0,0-11.25,6.56l-4,5.16a25.52,25.52,0,0,0-3.48,12.87Z"/><path d="M350,1116.84c15.2.94,30.31,2.76,45.45,4.38,14.8,1.58,29.63,2.73,44.52,3.23a640,640,0,0,0,91-3.24c16.38-1.8,32.83-4,48.92-7.71a28.62,28.62,0,0,0,15.24-11.72,19,19,0,0,0,3-9.48,19.34,19.34,0,0,0-.45-10.17l-2.57-6.09a25.71,25.71,0,0,0-9.15-9.15l-6.09-2.57a25.78,25.78,0,0,0-13.56,0c-10.07,2.31-20.27,4-30.5,5.39l6.78-.92a601.89,601.89,0,0,1-75.18,5,645.73,645.73,0,0,1-75.12-3.9c-14.08-1.54-28.16-3.16-42.3-4a19.22,19.22,0,0,0-9.83,2.2,23,23,0,0,0-13.48,13.47,19.32,19.32,0,0,0-2.19,9.83l.91,6.78a25.45,25.45,0,0,0,6.56,11.25l5.16,4a25.36,25.36,0,0,0,12.87,3.48Z"/><path d="M469.71,1214.15c-7.12-19.84-14.51-39.63-23.52-58.71A235.4,235.4,0,0,0,412,1102.23a155.43,155.43,0,0,0-11.13-11.68,207.93,207.93,0,0,0-17.77-14.66,19,19,0,0,0-9.48-3,19.34,19.34,0,0,0-10.17.45A28.62,28.62,0,0,0,348.22,1085l-2.57,6.09a25.58,25.58,0,0,0,0,13.56l2.57,6.09a25.71,25.71,0,0,0,9.15,9.15l1.3,1-5.16-4a157,157,0,0,1,27.84,28l-4-5.16a225,225,0,0,1,25.28,42.46q2.94,6.32,5.64,12.74l-2.57-6.1c5.38,12.78,10.13,25.8,14.81,38.84a24.57,24.57,0,0,0,21.2,18.27,19.34,19.34,0,0,0,10.17-.46L458,1243a25.71,25.71,0,0,0,9.15-9.15l2.57-6.09a25.78,25.78,0,0,0,0-13.56Z"/><path d="M428.43,1269.42c-17.43,12.67-33.84,26.63-48.31,42.63a345,345,0,0,0-36.78,49.1,492,492,0,0,0-26.61,49.65c-10.29,21.8-19.84,44-28.24,66.63-7.33,19.75-13.84,40-17.85,60.67q-.67,3.45-1.23,6.9a19.34,19.34,0,0,0-.45,10.17,18.92,18.92,0,0,0,3,9.48,28.49,28.49,0,0,0,15.24,11.72l6.78.91a25.32,25.32,0,0,0,12.87-3.48l5.16-4a25.54,25.54,0,0,0,6.56-11.26c4.08-25.26,12.25-49.84,21.39-73.67q4.23-11.06,8.85-22l-2.57,6.09c6.75-16,13.93-31.8,21.73-47.29A427.7,427.7,0,0,1,391.15,1381q7.13-11,15.12-21.37l-4,5.16a278.29,278.29,0,0,1,37.5-39.76q6.15-5.34,12.6-10.31l-5.16,4q3.43-2.65,6.94-5.2a24.58,24.58,0,0,0,12.18-25.41,18.9,18.9,0,0,0-3-9.48c-3.51-5.44-8.73-10.24-15.24-11.72l-6.78-.91a25.42,25.42,0,0,0-12.87,3.48Z"/><path d="M471.63,1307.66a130.26,130.26,0,0,1,20,12.67l-5.16-4A130.52,130.52,0,0,1,509,1339l-4-5.16a166.2,166.2,0,0,1,21.18,36.94l-2.57-6.09c8.51,20.25,14,41.77,18.28,63.28q2.19,11.12,3.72,22.34l-.91-6.78c3.16,23.68,3.86,47.7.73,71.42l.91-6.78a204.58,204.58,0,0,1-14,51.82l2.57-6.09a186.4,186.4,0,0,1-24.18,41l4-5.16A210,210,0,0,1,477.32,1627l5.16-4a218.92,218.92,0,0,1-48.3,28.09l6.09-2.57a224.32,224.32,0,0,1-41.88,12.87c-6,1.23-12.21,6.56-15.24,11.72-3.2,5.47-4.55,13.52-2.57,19.65s5.82,12.12,11.72,15.24l6.09,2.57a25.58,25.58,0,0,0,13.56,0,249.88,249.88,0,0,0,54.76-18.43,218.36,218.36,0,0,0,41.51-25.1c14-10.72,27-22.26,38.27-35.83,10.71-12.87,20.42-26.6,27.92-41.6a216.83,216.83,0,0,0,19.42-57.19,270.7,270.7,0,0,0,4.23-64.67,396.16,396.16,0,0,0-9.4-64.81,326.43,326.43,0,0,0-13.56-46.16c-6.29-16.16-13.66-32-24-46a170.47,170.47,0,0,0-18.74-22,159.09,159.09,0,0,0-24-18.87c-3.55-2.29-7.23-4.38-11-6.32-6.08-3.13-12.92-4.42-19.65-2.57-5.91,1.63-12.32,6.2-15.24,11.72-3.12,5.92-4.69,13.09-2.57,19.65,2,6.13,5.82,12.2,11.72,15.24Z"/><path d="M379.19,1415.12a243.53,243.53,0,0,1,25,16.91l-5.16-4A263.69,263.69,0,0,1,436,1463q4.85,5.55,9.39,11.34a28.44,28.44,0,0,0,18,7.47,19.22,19.22,0,0,0,9.83-2.2,19,19,0,0,0,8.2-5.27l4-5.16a25.32,25.32,0,0,0,3.48-12.87l-.91-6.78a25.45,25.45,0,0,0-6.56-11.25,285.47,285.47,0,0,0-59.19-55.91q-8.43-6-17.34-11.26a19,19,0,0,0-9.48-3,22.94,22.94,0,0,0-18.84,5,19.43,19.43,0,0,0-6.57,7.16l-2.57,6.09a25.78,25.78,0,0,0,0,13.56L370,1406a25.71,25.71,0,0,0,9.15,9.15Z"/><path d="M320,1539.79q33.56,14.4,66.21,30.78,9.27,4.65,18.45,9.45a18.92,18.92,0,0,0,9.48,3,26.22,26.22,0,0,0,25.41-12.17l2.57-6.09a25.78,25.78,0,0,0,0-13.56l-2.57-6.09a25.71,25.71,0,0,0-9.15-9.15Q398,1519,364.59,1504q-9.39-4.21-18.84-8.27a19,19,0,0,0-9.48-3,22.94,22.94,0,0,0-18.84,5,19.43,19.43,0,0,0-6.57,7.16l-2.57,6.09a25.78,25.78,0,0,0,0,13.56l2.57,6.09a25.71,25.71,0,0,0,9.15,9.15Z"/><path d="M546.37,1326.52c63.88-27.4,122.07-67.12,176.07-110.52,12-9.62,23.66-19.61,35.8-29l-5.16,4c13.79-10.63,28.34-20,44.4-26.85l-6.09,2.57a198.77,198.77,0,0,1,49.85-13.62l-6.78.91a125.09,125.09,0,0,1,32.23-.29l-6.78-.91a76.35,76.35,0,0,1,18.8,4.89l-6.09-2.57a83.85,83.85,0,0,1,17.53,10.51l-5.16-4a65.68,65.68,0,0,1,11.85,11.65l-4-5.16a58.59,58.59,0,0,1,7,12.15l-2.57-6.09c3.61,8.58,5.42,17.8,6.73,27l-.92-6.78a72.66,72.66,0,0,1,0,18.81l.91-6.78a83.86,83.86,0,0,1-5.74,20.61l2.57-6.09A109,109,0,0,1,887,1244.3l4-5.16a126.06,126.06,0,0,1-22.48,22.57l5.17-4a117.79,117.79,0,0,1-25.5,14.62l6.09-2.57c-12.55,5.25-25.76,8.43-39,11.47-12.2,2.8-24.33,5.88-36.43,9.08-25.75,6.81-48.39,20.4-68.78,37.38-20.69,17.23-35.42,42.07-45.58,66.74-11.48,27.86-13.07,58.81-13.88,88.58-.68,24.77-1.87,49.53.13,74.27a319.09,319.09,0,0,0,5.81,41A206.15,206.15,0,0,0,668.9,1636a134.66,134.66,0,0,0,49.27,59.41c13.59,9,29.37,15.13,45,19.57a299.28,299.28,0,0,0,44.08,8.69,202.39,202.39,0,0,0,77.6-4.83c29.22-7.78,55.3-22.84,78.59-41.85,5.59-4.56,10.93-9.4,16.09-14.44a26.22,26.22,0,0,0,7.47-18c0-6.25-2.78-13.73-7.47-18-10.27-9.43-25.87-10-36.06,0a241.1,241.1,0,0,1-20.73,18.12l5.16-4a188.9,188.9,0,0,1-41,24.16l6.1-2.57a169.48,169.48,0,0,1-42.1,11.52l6.78-.91a194,194,0,0,1-51.29-.27l6.78.91c-19.09-2.59-38.36-7-56.16-14.48l6.09,2.57A115,115,0,0,1,737.86,1647l5.16,4a105.42,105.42,0,0,1-18.19-18.31l4,5.16a127.06,127.06,0,0,1-15.88-27.6l2.58,6.09c-6.68-15.93-10.6-32.84-13-49.91l.91,6.78c-4.48-33.43-2.79-67.34-1.5-100.92.41-10.68,1.09-21.35,2.5-31.94l-.91,6.78A157.67,157.67,0,0,1,713.68,1408l-2.57,6.09a194.77,194.77,0,0,1,11.14-21.28,151.9,151.9,0,0,1,11.17-17l-4,5.16a117.39,117.39,0,0,1,20.66-20.35l-5.17,4c11.06-8.46,23.1-16.5,36-21.95l-6.09,2.57a147.79,147.79,0,0,1,19.63-6.24c9.31-2.42,18.61-4.89,28-7.07,22-5.14,43.85-10.37,63.81-21.52a136.63,136.63,0,0,0,40.37-34.57c6.64-8.46,12.83-17.07,17.29-26.91a133.06,133.06,0,0,0,7-18,117.83,117.83,0,0,0,3.44-19.4c1.25-11.08-.5-22.29-2.63-33.16a108,108,0,0,0-9.08-26.76,75.3,75.3,0,0,0-16.51-21.82,106.94,106.94,0,0,0-24.88-17.43c-17.45-8.55-37.07-11.5-56.38-10.36a205.81,205.81,0,0,0-65.52,14.92,214.18,214.18,0,0,0-47.78,26.84c-16.23,12.16-31.59,25.37-47.42,38q-6.15,4.9-12.39,9.73l5.16-4c-37.74,29.13-77.6,55.82-120,77.78-11.88,6.16-24,11.92-36.27,17.19-5.45,2.34-10.22,9.81-11.72,15.24-1.68,6.11-.92,14.23,2.57,19.65s8.74,10.24,15.24,11.72l6.78.91a25.32,25.32,0,0,0,12.87-3.48Z"/><path d="M504.91,1224.37c4.68-13,9.43-26.07,14.81-38.84l-2.57,6.09c6.41-15.19,13.73-30.06,22.82-43.84q3.84-5.83,8.1-11.35l-4,5.16a157,157,0,0,1,27.84-28l-5.16,4,1.3-1a24.58,24.58,0,0,0,12.18-25.41,18.93,18.93,0,0,0-3-9.48l-4-5.16A25.45,25.45,0,0,0,562,1070l-6.78-.91a25.32,25.32,0,0,0-12.87,3.48c-9.54,7.21-18.57,14.78-26.57,23.69A218.43,218.43,0,0,0,494.67,1124c-11.46,17.81-20,37.31-27.79,56.94-3.93,9.88-7.56,19.88-11.15,29.89a19.34,19.34,0,0,0-.45,10.17,19,19,0,0,0,3,9.48,28.62,28.62,0,0,0,15.24,11.72l6.78.91a25.46,25.46,0,0,0,12.87-3.48l5.16-4a25.36,25.36,0,0,0,6.56-11.25Z"/><path d="M690.93,1620.16a183.84,183.84,0,0,0,35,12.65c5,1.19,10,2.12,15,2.83,7.19,1,14.36,1.93,21.62,2.25,12.49.55,24.77-.65,37.12-2.45a159.56,159.56,0,0,0,29.91-7.35,183.53,183.53,0,0,0,37-17.49,26.8,26.8,0,0,0,11.72-15.24,19.34,19.34,0,0,0,.45-10.17,18.9,18.9,0,0,0-3-9.48l-4-5.16a25.45,25.45,0,0,0-11.25-6.56l-6.78-.91a25.36,25.36,0,0,0-12.87,3.48,152.67,152.67,0,0,1-22.22,11.58l6.1-2.57a160.15,160.15,0,0,1-40.36,11l6.77-.92a162.33,162.33,0,0,1-43,0l6.78.91a155.1,155.1,0,0,1-39.17-10.65l6.09,2.57q-2.61-1.11-5.17-2.31a19,19,0,0,0-9.49-3,26.18,26.18,0,0,0-25.4,12.17l-2.57,6.09a25.58,25.58,0,0,0,0,13.56l2.57,6.09a25.55,25.55,0,0,0,9.15,9.15Z"/><path d="M687,1529a183.68,183.68,0,0,0,35,12.3c7.07,1.61,14.22,2.59,21.41,3.52,5.11.66,10.26,1.07,15.41,1.24a198,198,0,0,0,37-2.8,159.24,159.24,0,0,0,29.94-7.72,183.71,183.71,0,0,0,36.72-17.82,24.59,24.59,0,0,0,12.17-25.41,18.9,18.9,0,0,0-3-9.48l-4-5.16a25.48,25.48,0,0,0-11.26-6.56l-6.77-.91a25.46,25.46,0,0,0-12.87,3.48,153.59,153.59,0,0,1-23.51,12.45l6.09-2.57a160.85,160.85,0,0,1-40.63,11.05l6.77-.91a162.35,162.35,0,0,1-42.87,0l6.78.91A154.06,154.06,0,0,1,710.33,1484l6.09,2.57c-1.23-.52-2.47-1.06-3.69-1.62a19,19,0,0,0-9.48-3,19.34,19.34,0,0,0-10.17.45,28.62,28.62,0,0,0-15.24,11.72l-2.57,6.09a25.78,25.78,0,0,0,0,13.56l2.57,6.09A25.71,25.71,0,0,0,687,1529Z"/><path d="M716.36,1454.46a102.81,102.81,0,0,0,17.37.22c10.9-.54,21.74-1.93,32.53-3.49,21.21-3.07,42.35-8.1,62.23-16.16,13-5.28,25.81-11.08,37.16-19.45a24.59,24.59,0,0,0,12.17-25.41,18.9,18.9,0,0,0-3-9.48l-4-5.16a25.54,25.54,0,0,0-11.26-6.56l-6.77-.91a25.53,25.53,0,0,0-12.88,3.48,139.37,139.37,0,0,1-28.67,15.89l6.09-2.57c-17.14,7.21-35.26,12-53.53,15.34q-7.1,1.29-14.25,2.25l6.78-.91a214.5,214.5,0,0,1-34.06,2.32c-2-.06-3.94-.16-5.9-.4a19.16,19.16,0,0,0-9.82,2.2,22.89,22.89,0,0,0-13.48,13.48,19.16,19.16,0,0,0-2.2,9.82l.91,6.78a25.45,25.45,0,0,0,6.56,11.25l5.16,4a25.32,25.32,0,0,0,12.87,3.48Z"/><path d="M456.22,1232.3q-10.49-3.36-20.63-7.64l6.09,2.57a285.05,285.05,0,0,1-51.16-28.34q-7.12-4.92-14-10.22l5.16,4a382.82,382.82,0,0,1-50.41-47.19q-6.81-7.6-13.27-15.5a19,19,0,0,0-8.21-5.27,23,23,0,0,0-19.64,0A19,19,0,0,0,282,1130l-4,5.16A25.32,25.32,0,0,0,274.5,1148l.91,6.78A25.45,25.45,0,0,0,282,1166a402.64,402.64,0,0,0,55.26,56c20,16.46,41.29,31.32,64.54,42.79a299.92,299.92,0,0,0,40.89,16.69,19.24,19.24,0,0,0,10.17.46,19,19,0,0,0,9.48-3A28.62,28.62,0,0,0,474,1263.67l.91-6.78a25.52,25.52,0,0,0-3.48-12.87l-4-5.16a25.55,25.55,0,0,0-11.25-6.56Z"/><path d="M480.94,1282.12a303.78,303.78,0,0,0,37.1-14.87,284.27,284.27,0,0,0,30.61-16.94,382.5,382.5,0,0,0,34.17-24.79,371.74,371.74,0,0,0,28.5-25.46,426.18,426.18,0,0,0,30.31-33.4,26.24,26.24,0,0,0,0-36.06l-5.16-4a25.52,25.52,0,0,0-12.87-3.48l-6.78.91a25.63,25.63,0,0,0-11.26,6.56,407.84,407.84,0,0,1-49.16,50.83q-7.1,6.12-14.51,11.86l5.16-4a303.49,303.49,0,0,1-50.45,31.83q-7.25,3.58-14.68,6.73l6.09-2.57q-10.15,4.28-20.63,7.65a24.57,24.57,0,0,0-18.27,21.2,19.44,19.44,0,0,0,.46,10.17l2.57,6.09a25.71,25.71,0,0,0,9.15,9.15l6.09,2.57a25.78,25.78,0,0,0,13.56,0Z"/><path class="cls-2" d="M126.57,1010.28v3.78h-23c-3.18,11-10.5,19-27.42,23.22a13.59,13.59,0,0,0-2.34-3.36c15.48-3.72,22.44-10.44,25.56-19.86H73.72v-3.78h26.64c1.62-7.44,1.56-16.38,1.62-26.76h4.08c-.06,10.14-.06,19.08-1.62,26.76ZM90,1006.92c-2.82-2.4-8.64-5.64-13.44-7.56l2.46-2.76c4.68,1.74,10.56,4.8,13.56,7.26Zm5.46-11c-2.88-2.4-8.76-5.46-13.56-7.32l2.22-2.88c4.74,1.74,10.68,4.62,13.62,7Zm8.82,23.94c8.4,4,16.91,9.36,22,13.8l-2.69,3c-4.86-4.56-13.14-9.9-21.36-14Z"/><path class="cls-2" d="M178.6,1033.14c4.25,0,4.92-1.14,5.34-8.16a13,13,0,0,0,3.65,1.44c-.71,8.22-2.09,10.32-8.93,10.32H160.84c-7.62,0-9.78-1.26-9.78-6.42v-17.76h-6.78v4.38c0,6.42-1.62,14.76-9.12,20.64a12.11,12.11,0,0,0-2.7-2.82c6.9-5.28,8.1-12.42,8.1-17.88v-4.32h-7.08v-3.72h27.3v3.72h-5.94v17.76c0,2.28,1,2.82,5.88,2.82Zm-39.66-37.32H135v-10h50.15v10h-4v-6.3H138.94Zm-1.38,1.26H158.5v3.72H137.56ZM180,1024.92c0,2.16-.48,3.18-2,3.84s-4,.66-7.86.6a13.54,13.54,0,0,0-1.26-3.48c2.94.06,5.52.06,6.3,0s1.08-.24,1.08-1V1006H160.66v-3.66H176.2v-7.8H180v7.8h6.71V1006H180Zm-14-15.42a37.57,37.57,0,0,1,5.52,10.26l-3.36,1.5a38.88,38.88,0,0,0-5.28-10.44Z"/><path class="cls-2" d="M109.48,1169.18v.36h14.34v32.64c0,2.7-.6,4-2.58,4.68s-5.64.66-11,.66a15.22,15.22,0,0,0-1.38-4c4.38.18,8.4.12,9.6.06s1.44-.36,1.44-1.44v-28.8h-10.5a43.15,43.15,0,0,1-.6,6.06c3.84,4.5,8.1,10.08,10,13.56l-2.4,3a87.56,87.56,0,0,0-8.46-12.18,32.38,32.38,0,0,1-8.34,15.06A11.45,11.45,0,0,0,96.7,1196c7-6.66,8.46-15.54,8.82-22.68H94.06a59.1,59.1,0,0,1-.6,6.24,62,62,0,0,1,6.36,8.94l-2.4,3.18A60.91,60.91,0,0,0,92.5,1184a32.3,32.3,0,0,1-8.28,14.82,12.31,12.31,0,0,0-2.76-2.82c6.9-6.66,8.4-15.54,8.76-22.68H80.38v34.26h-4v-38H90.28v-8.64H73.84v-3.84h52.5v3.84H109.48Zm-3.9.36v-8.64H94.18v8.64Z"/><path class="cls-2" d="M182,1202.18c0,2.76-.78,4.08-2.88,4.68s-6,.72-12.06.72a14.18,14.18,0,0,0-1.62-3.84c5,.12,9.6.12,10.92.06s1.68-.42,1.68-1.62v-7.92H143.92A25.93,25.93,0,0,1,135,1207.7a13.61,13.61,0,0,0-2.76-2.82c8.46-6.66,9.48-16,9.48-23.64v-10.92a58.88,58.88,0,0,1-5.1,4.14,14.53,14.53,0,0,0-2.94-2.82,52.86,52.86,0,0,0,17-19l4.32.78c-.54,1-1.14,1.92-1.74,2.94h14.94l.72-.24,2.64,1.74a48.84,48.84,0,0,1-5.58,8.58h16ZM145.6,1181.9a51.15,51.15,0,0,1-.78,8.82H159.4v-8.82Zm5.4-22.08a59.72,59.72,0,0,1-5.4,6.66h16a47.61,47.61,0,0,0,4.44-6.66Zm-5.4,18.6h13.8V1170H145.6Zm32.46-8.4H163.24v8.4h14.82Zm0,20.7v-8.82H163.24v8.82Z"/><path class="cls-2" d="M125.92,1483v3.9H74.2V1483h6.72V1443.3h-6.3v-3.78h49.44v3.78H85v8.76h33.9v20.52H85V1483ZM85,1455.9v12.9h29.82v-12.9Z"/><path class="cls-2" d="M182.32,1442.16v46.5h-4.26v-4.86H142.12V1489H138v-46.8Zm-4.26,37.62v-33.6H142.12v33.6Z"/><path class="cls-2" d="M1059.24,1143.28a37.53,37.53,0,0,0,24.59,21.84,15,15,0,0,0-2.75,3.66c-12.36-4.14-21.12-13.08-25.92-25.5h-9.72v20.94l14.7-3.78a17.38,17.38,0,0,0,.36,3.72c-16.38,4.44-18.48,5.16-19.86,6.06a16.15,16.15,0,0,0-1.62-3.6,3.58,3.58,0,0,0,2.28-3.54v-19.8h-11.64v-4h11.64v-23.16h4.14v23.16h37.07v4Zm17-24.42c-5.88,7-14.94,13.2-23.16,17.22a20.6,20.6,0,0,0-3.3-3.12c8.52-3.6,17.22-9.42,22.56-15.72Z"/><path class="cls-2" d="M1142.16,1137.16a67.65,67.65,0,0,1-9.84,11.22v16.32c0,3-.66,4.38-2.82,5.1s-6.06.72-12.18.66a16.43,16.43,0,0,0-1.5-4.14c4.86.18,9.48.12,10.74.06s1.8-.42,1.8-1.68v-12.9c-10.32,8.22-23,14.1-36.72,18.12a19.65,19.65,0,0,0-2.58-3.54c11.82-3.12,22.8-7.8,31.92-14-11.4.9-22.62,1.86-30.78,2.4l-.66-4c2.76-.12,5.94-.3,9.42-.48V1121.8h12.24a54.28,54.28,0,0,0,2.58-6.12l4.68.78a57.5,57.5,0,0,1-2.94,5.34h16.8v21a52.71,52.71,0,0,0,6.12-7.56Zm-39.3-11.82v5.88h25.5v-5.88Zm25.5,9h-25.5v5.94h25.5Zm-25.5,15.66c7.14-.42,15.24-.9,23.28-1.44.72-.66,1.5-1.26,2.22-1.92v-3.24h-25.5Z"/><path class="cls-2" d="M1046.3,1450.34a45.55,45.55,0,0,1-1.92,7.26c5,8.64,14.88,14.94,26.7,17.4a15.78,15.78,0,0,0-2.53,3.42,45.09,45.09,0,0,1-9-3.18v24.36c0,2.28-.6,3.24-2.34,3.9-1.74.48-4.74.54-9.42.54a14.48,14.48,0,0,0-1.32-3.36c3.54.12,6.84.12,7.74.06s1.26-.3,1.26-1.14v-5.7h-24.6v10.44h-4V1475.9a58.72,58.72,0,0,1-9.18,3.12,20.13,20.13,0,0,0-2.4-3.48c15.84-3.3,24.42-10.32,26.88-25.8Zm-10.14,13.26c-5.88,1.44-11.88,2.76-16.68,3.84l-1.2-3.54c4.44-.72,11-2.1,17.58-3.48Zm-1.74-3.9a72.19,72.19,0,0,0-14-5.52l1.5-2.76a75.36,75.36,0,0,1,13.92,5.22Zm21,17.1h-24.6V1482h24.6Zm0,13.8v-5.46h-24.6v5.46Zm.48-17.16a39.53,39.53,0,0,1-13.14-12,28.87,28.87,0,0,1-11,12Zm10.8-5.76a135.33,135.33,0,0,0-17.34-4.32l1.32-3.12a152.25,152.25,0,0,1,17.28,4Zm.3-13.32a82.09,82.09,0,0,1-14.88,4.62l-1.26-2.94a113.45,113.45,0,0,0,14.7-4.62Z"/><path class="cls-2" d="M1078.28,1469.54a10.67,10.67,0,0,0-2.7-2.22c4.68-5.22,7.86-12.24,9.48-17.52l3.54.54c-.48,1.5-1.08,3.12-1.74,4.74h7.38l.66-.24,2.16,1.62a65.33,65.33,0,0,1-4.86,8.76h5.4v25.62h-18.84V1469Zm-2.1,28.26c5.52-.78,14-2,22.26-3.36l.12,3.3c-7.8,1.32-15.9,2.64-21.78,3.6Zm9.18-39.48a52.53,52.53,0,0,1-3.84,6.9h7.26a46.7,46.7,0,0,0,3.72-6.9Zm1.38,18.06v-7.92h-4.86v7.92Zm-4.86,3.12v8.1h4.86v-8.1Zm12.48-11h-4.8v7.92h4.8Zm0,11h-4.8v8.1h4.8Zm22.26-13.32a82.43,82.43,0,0,1-6.72,4.86v1a129.62,129.62,0,0,0,15.06-4l1.62,2.82a117.56,117.56,0,0,1-16.68,3.36v1.38c0,1.2.48,1.44,3.42,1.44h10.38c2,0,2.46-.48,2.63-4.14A11.78,11.78,0,0,0,1129,1474c-.35,4.74-1.31,5.94-4.91,5.94h-10.8c-5,0-6.24-.78-6.24-4.32v-2.7a49.14,49.14,0,0,1-7,3.66,18.57,18.57,0,0,0-1.86-2.76,65.19,65.19,0,0,0,13.44-7.62h-12v-3.12h9.78v-4.8h-7.92v-3.18h7.92v-4.56h3.18v4.56h7.68v3.18h-7.68v4.8h3.18a59.19,59.19,0,0,0,10.49-11l2.23,1.86a60.21,60.21,0,0,1-8.28,9.18H1130v3.12ZM1102.7,1483h24v21.42h-3.3v-3.12h-17.52v3.36h-3.18Zm3.18,3.12v4.56h17.52v-4.56Zm17.52,12.36v-4.92h-17.52v4.92Z"/><path class="cls-2" d="M1102.24,1693.28a37.53,37.53,0,0,0,24.59,21.84,15,15,0,0,0-2.75,3.66c-12.36-4.14-21.12-13.08-25.92-25.5h-9.72v20.94l14.7-3.78a17.38,17.38,0,0,0,.36,3.72c-16.38,4.44-18.48,5.16-19.86,6.06a16.15,16.15,0,0,0-1.62-3.6,3.58,3.58,0,0,0,2.28-3.54v-19.8h-11.64v-4h11.64v-23.16h4.14v23.16h37.07v4Zm17-24.42c-5.88,7-14.94,13.2-23.16,17.22a20.6,20.6,0,0,0-3.3-3.12c8.52-3.6,17.22-9.42,22.56-15.72Z"/><path class="cls-2" d="M1141.36,1683v3.24c0,10-.78,24.42-6.66,34.2a15.57,15.57,0,0,0-3.48-2c5.64-9.36,6.18-22.68,6.18-32.1v-17.52h44.46V1683Zm0-10.68v7.14h36.47v-7.14Zm37,43.68c2.7,0,3.18-1.14,3.47-6.78a13.27,13.27,0,0,0,3.67,1.56c-.6,7-1.8,8.88-6.9,8.88H1166c-6,0-7.68-1.32-7.68-6.3v-4.92l-15.72,2.46-.6-3.36,16.32-2.52v-5.88l-13.62,2.1-.66-3.24,14.28-2.28v-5.46c-4.26.78-8.7,1.38-12.78,1.92a13.55,13.55,0,0,0-1.14-2.94c10.14-1.32,22-3.48,28.26-5.88l3.42,2.64a110.17,110.17,0,0,1-13.86,3.54v5.64l17.22-2.64.6,3.24-17.82,2.76v5.88l21.47-3.36.61,3.3-22.08,3.48v5.46c0,2.22.66,2.7,4,2.7Z"/><path class="cls-2" d="M220.24,1014.36c23.37-8.14,47.51-15.07,72.3-16.85,23.69-1.7,47.62,1.83,68.83,12.85a115.16,115.16,0,0,1,29.83,22.21c1,1,2.6-.55,1.6-1.6a118.26,118.26,0,0,0-58.18-32.82c-24.36-5.61-49.73-3.47-73.91,2a377.92,377.92,0,0,0-41.06,12.07c-1.36.48-.78,2.65.59,2.17Z"/><path class="cls-2" d="M199.26,1186.92a84.11,84.11,0,0,0,54.09-6.13,81.28,81.28,0,0,0,13.48-8.13c1.15-.85,0-2.8-1.13-1.94a81,81,0,0,1-65.84,14c-1.41-.31-2,1.86-.6,2.17Z"/><path class="cls-2" d="M189.12,1149.72c37.41-24.86,63.19-62.55,90.65-97.22,14.07-17.76,28.85-35,45.87-50A284.05,284.05,0,0,1,383,963.28c40.45-20.95,86.07-32.17,131.68-31.09,42.07,1,89.49,13.77,115.49,49.4,11.11,15.23,18.85,33,23.7,51.21,4.71,17.66,7.18,37.13,2.67,55.1a56.74,56.74,0,0,1-4,11c-.63,1.3,1.31,2.44,1.94,1.14,7.73-15.82,7.63-34.49,5-51.52a165.08,165.08,0,0,0-19.11-55.13A115.51,115.51,0,0,0,625,971.74a110.86,110.86,0,0,0-24.43-19.44c-19.32-11.63-41.39-18-63.66-20.74-45.41-5.65-92.56,2.46-134.56,20.17a286.32,286.32,0,0,0-60.92,35,309,309,0,0,0-49.79,47.68c-29.4,34.72-54.08,74.31-89.79,103.19q-6.69,5.4-13.85,10.16c-1.2.8-.08,2.75,1.13,1.94Z"/><path class="cls-2" d="M217.1,1449.5a143,143,0,0,1,53.07-52.75,139.18,139.18,0,0,1,19.17-9.06c1.34-.52.76-2.69-.59-2.17a144.46,144.46,0,0,0-73.59,62.84,1.13,1.13,0,0,0,1.94,1.14Z"/><path class="cls-2" d="M1014.47,1119.93a68.43,68.43,0,0,0-4.41-8.66,31.25,31.25,0,0,0-4.39-5.28c-2.55-2.53-5.11-5.1-7.85-7.42a72.84,72.84,0,0,0-10.65-7.36,135.72,135.72,0,0,0-24.1-10.51,99.6,99.6,0,0,0-25.86-5.33,57.41,57.41,0,0,0-28.28,5.16c-1.3.62-.16,2.57,1.14,1.94,15.63-7.49,33.62-5.48,49.68-.48a138.93,138.93,0,0,1,23.63,9.71,77.46,77.46,0,0,1,10.73,6.76,102.39,102.39,0,0,1,8.61,7.79,37,37,0,0,1,5,5.58,62.63,62.63,0,0,1,4.78,9.24c.6,1.31,2.54.17,1.94-1.14Z"/><path class="cls-2" d="M912.66,1396.66c10.71,8.72,19.13,19.76,27.34,30.76s16.09,22,26.22,31.1a72.47,72.47,0,0,0,18.71,12.41c1.31.58,2.46-1.36,1.14-2-12.3-5.49-22.08-14.84-30.59-25.09-8.74-10.52-16.32-22-25.07-32.46a119,119,0,0,0-16.16-16.36c-1.12-.9-2.72.68-1.59,1.59Z"/><path class="cls-2" d="M906.88,1490.86a221.06,221.06,0,0,0,61.85-5.52q8.52-2,16.87-4.69c1.37-.44.78-2.61-.6-2.17a218.33,218.33,0,0,1-60.62,10.36q-8.75.23-17.5-.23c-1.45-.08-1.44,2.17,0,2.25Z"/><path class="cls-2" d="M992.15,1483.21a156.93,156.93,0,0,1-27.35,34.55,284,284,0,0,1-34.7,28.11c-6.88,4.83-13.89,9.47-21,14.05-1.21.78-.08,2.73,1.14,1.94,12.64-8.19,25.14-16.62,37-25.93A211,211,0,0,0,979.72,1505a145.75,145.75,0,0,0,14.38-20.65,1.13,1.13,0,0,0-2-1.14Z"/><path class="cls-2" d="M1057.21,1733.84a111.1,111.1,0,0,1-29,18.78,142.33,142.33,0,0,1-34.43,10.31,173.24,173.24,0,0,1-36.74,2.25,182.67,182.67,0,0,1-36.64-5.3,161.11,161.11,0,0,1-33.44-12.32c-1.3-.66-2.58-1.34-3.86-2s-2.41,1.25-1.14,1.94a159.52,159.52,0,0,0,33.4,13.4,184.26,184.26,0,0,0,37,6.3,178.47,178.47,0,0,0,37.46-1.35,147.88,147.88,0,0,0,35.32-9.45,116.06,116.06,0,0,0,30.4-18.09c1.12-.92,2.21-1.88,3.28-2.85s-.52-2.56-1.59-1.59Z"/></svg>