<?xml version="1.0" encoding="utf-8"?>
<!-- Generator: Adobe Illustrator 24.2.3, SVG Export Plug-In . SVG Version: 6.00 Build 0)  -->
<svg version="1.1" id="Layer_1" xmlns="http://www.w3.org/2000/svg" xmlns:xlink="http://www.w3.org/1999/xlink" x="0px" y="0px"
	 viewBox="0 0 1000 1000" style="enable-background:new 0 0 1000 1000;" xml:space="preserve">
<g>
	<g>
		<path d="M275.7,26.3c-9.1,17.2-15.9,35.7-22.5,54c-4,11.3-7.8,22.7-11.2,34.2c-4.2,13.7-8.2,27.2-9.5,41.6
			c-2.1,22.7,7.5,45.4,23,61.6c11.9,12.5,27.8,21.4,44.2,26.6c10.5,3.3,21.1,3.7,32,2.8c13.6-1.1,27.3-2.8,40.8-4.6
			c31-4.1,61.9-8.6,92.8-13.3c46.1-6.9,91.2-18.6,137.2-26.4c6.6-1.1,13.3-2.1,19.9-3c-2.8,0.4-5.6,0.8-8.4,1.1
			c29-3.9,58.1-5.1,87.2-1.3c-2.8-0.4-5.6-0.8-8.4-1.1c19.4,2.7,38.5,7.5,56.5,15.1c-2.5-1.1-5-2.1-7.5-3.2
			c13.1,5.6,25.4,12.6,36.7,21.2c-2.1-1.6-4.3-3.3-6.4-4.9c9.5,7.4,18.1,15.9,25.5,25.4c-1.6-2.1-3.3-4.3-4.9-6.4
			c8.1,10.6,14.7,22.2,19.9,34.6c-1.1-2.5-2.1-5-3.2-7.5c7.3,17.6,11.7,36.1,14.3,54.9c-0.4-2.8-0.8-5.6-1.1-8.4
			c4.7,36.2,3.1,73.2-1.7,109.3c0.4-2.8,0.8-5.6,1.1-8.4c-6.6,48.8-20.2,96.5-39.2,141.9c1.1-2.5,2.1-5,3.2-7.5
			c-17.7,41.9-40,81.9-65.9,119.3c-7.4,10.7-15.1,21.2-23.1,31.5c1.6-2.1,3.3-4.3,4.9-6.4c-29,37.5-61.6,72.1-97,103.6
			c-5.8,5.2-9.2,14.7-9.2,22.3c0,7.7,3.4,17,9.2,22.3c13.2,12.1,31.4,11.7,44.5,0c59.8-53.2,112.1-115.8,152.7-184.9
			c40.1-68.3,69.3-144.3,80.2-222.9c11.5-82.9,11.5-181.8-52-245.1c-28.7-28.6-67.4-46.5-106.9-54.1c-20.2-3.9-40.8-6-61.4-5.9
			c-24.4,0.2-48.8,3.3-72.8,7.3c-44.9,7.4-88.9,19.3-133.9,26c-21,3.1-42,6.3-63,9.3c-6.9,1-13.9,1.9-20.8,2.9
			c2.8-0.4,5.6-0.8,8.4-1.1c-13.2,1.8-26.5,3.5-39.7,4.8c-7.7,0.8-16,2.1-23.7,1.1c2.8,0.4,5.6,0.8,8.4,1.1
			c-5.1-0.7-10-2.4-14.8-4.3c2.5,1.1,5,2.1,7.5,3.2c-6-2.6-11.7-5.8-17-9.8c2.1,1.6,4.3,3.3,6.4,4.9c-4-3.1-7.7-6.7-10.8-10.7
			c1.6,2.1,3.3,4.3,4.9,6.4c-2.6-3.4-4.8-7-6.5-10.9c1.1,2.5,2.1,5,3.2,7.5c-1.6-3.9-2.7-8-3.3-12.2c0.4,2.8,0.8,5.6,1.1,8.4
			c-0.6-4.8-0.5-9.5,0.1-14.3c-0.4,2.8-0.8,5.6-1.1,8.4c1.2-8.5,4-16.8,6.4-25.1c2.6-8.8,5.3-17.6,8.3-26.3
			c4.8-14.3,10-28.5,15.8-42.5c-1.1,2.5-2.1,5-3.2,7.5c2.5-5.9,5.1-11.9,8.1-17.6c3.9-7.4,5.4-16,3.2-24.3
			c-2-7.3-7.7-15.2-14.5-18.8c-7.3-3.9-16.2-5.8-24.3-3.2C286.9,14.3,279.5,19,275.7,26.3L275.7,26.3z"/>
	</g>
</g>
<g>
	<g>
		<path d="M449.9,216.1c3.2,27.1,2.7,54.4-0.9,81.4c0.4-2.8,0.8-5.6,1.1-8.4c-5.6,41.2-18.2,81.2-34.3,119.5c1.1-2.5,2.1-5,3.2-7.5
			c-15.9,37.5-35.1,73.4-55.8,108.4c-20.2,34.3-41.5,67.9-64.2,100.5c-12.7,18.3-25.9,36.3-39.6,54c1.6-2.1,3.3-4.3,4.9-6.4
			c-27.4,35.4-56.7,69.3-88.1,101.2c-8.9,9.1-18,17.9-27.3,26.6c-5.8,5.4-9.2,14.5-9.2,22.3c0,7.7,3.4,17,9.2,22.3
			c6,5.5,13.9,9.6,22.3,9.2c8.5-0.4,16-3.3,22.3-9.2c32.5-30.5,62.9-63.3,91.2-97.6c29.9-36.2,57.9-74,84-113.1
			c24.9-37.3,48.5-75.7,70-115.1c22.9-42,43.2-86,57.3-131.8c6.6-21.4,11.7-43.3,14.8-65.5c3.4-24.6,5.3-49.2,3.7-74
			c-0.4-5.6-0.9-11.2-1.6-16.8c0.2-4.3-0.7-8.4-2.7-12.1c-1.3-3.9-3.4-7.3-6.5-10.1c-5.5-5.5-14.4-9.6-22.3-9.2
			c-8.1,0.4-16.6,3-22.3,9.2C453.9,199.6,448.9,208,449.9,216.1L449.9,216.1z"/>
	</g>
</g>
<g>
	<g>
		<path d="M161.1,839c30.4,24.4,62.8,46.2,98.3,62.5c32.4,14.9,66.3,26.4,101.7,31.5c18.2,2.6,36.4,4.5,54.9,4.3
			c18.4-0.1,36.7-2.1,54.9-5.1c34.3-5.6,67.4-17.3,98.6-32.7c33.7-16.7,64.6-38.8,92.7-63.6c3.5-3.1,6.9-6.2,10.2-9.3
			c5.8-5.4,9.2-14.5,9.2-22.3c0-7.7-3.4-17-9.2-22.3c-6-5.5-13.9-9.6-22.3-9.2c-8.5,0.4-16,3.3-22.3,9.2
			c-10.3,9.7-21.1,18.9-32.3,27.5c2.1-1.6,4.3-3.3,6.4-4.9c-20.1,15.5-41.5,29.2-64.3,40.5c-6.2,3.1-12.6,6-19,8.7
			c2.5-1.1,5-2.1,7.5-3.2c-25.8,10.8-52.8,18.4-80.5,22.1c2.8-0.4,5.6-0.8,8.4-1.1c-26.9,3.6-54.1,3.5-81-0.1
			c2.8,0.4,5.6,0.8,8.4,1.1c-29.8-4-58.9-12.3-86.7-24c2.5,1.1,5,2.1,7.5,3.2c-26.3-11.1-51.2-25.2-74.7-41.4
			c-7.1-4.9-14.1-10-20.9-15.3c2.1,1.6,4.3,3.3,6.4,4.9c-2.4-1.9-4.8-3.8-7.2-5.7c-2.9-3.1-6.2-5.2-10.1-6.5
			c-3.8-2-7.8-2.9-12.1-2.7c-7.7,0-17,3.4-22.3,9.2c-5.5,6-9.6,13.9-9.2,22.3c0.4,2.8,0.8,5.6,1.1,8.4
			C154.5,830.4,157.2,835,161.1,839L161.1,839z"/>
	</g>
</g>
</svg>
