<?xml version="1.0" encoding="utf-8"?>
<!-- Generator: Adobe Illustrator 24.2.3, SVG Export Plug-In . SVG Version: 6.00 Build 0)  -->
<svg version="1.1" id="Layer_1" xmlns="http://www.w3.org/2000/svg" xmlns:xlink="http://www.w3.org/1999/xlink" x="0px" y="0px"
	 viewBox="0 0 1000 1000" style="enable-background:new 0 0 1000 1000;" xml:space="preserve">
<style type="text/css">
	.st0{fill:#B3B3B3;}
	.st1{font-family:'SourceHanSansSC-Normal-GBpc-EUC-H';}
	.st2{font-size:927.8095px;}
</style>
<text transform="matrix(1 0 0 1 36.0952 810.167)" class="st0 st1 st2">力</text>
<g>
	<path d="M460.7,61.9c-5.3,60.7-10.7,121.4-16,182.1s-10.7,121.4-16,182.1c-2.9,32.9-5.3,65.9-9.6,98.6c0.4-2.8,0.8-5.6,1.1-8.4
		c-4.5,33.4-11.6,66.3-24.6,97.5c1.1-2.5,2.1-5,3.2-7.5c-11.4,26.9-26.7,51.9-44.5,75c1.6-2.1,3.3-4.3,4.9-6.4
		c-32.5,42.1-72.6,77.6-114.6,110c2.1-1.6,4.3-3.3,6.4-4.9c-28.5,22-57.9,42.6-87.5,63.1c-6.8,4.7-12.2,10.6-14.5,18.8
		c-2.1,7.5-1.1,17.6,3.2,24.3c4.3,6.7,10.8,12.6,18.8,14.5c7.9,1.8,17.4,1.6,24.3-3.2c46.5-32.1,92.8-64.8,135.5-102
		c41-35.8,78.9-76.8,106-124.3c14.8-26,26.4-54.2,33.9-83.2c8.4-32.7,12.4-66.5,15.6-100c6.3-66.5,11.8-133.2,17.7-199.8
		c5.9-67.1,11.8-134.2,17.7-201.3c0.7-8.3,1.5-16.6,2.2-24.9c0.7-7.6-4-17-9.2-22.3c-5.5-5.5-14.4-9.6-22.3-9.2
		c-8.1,0.4-16.6,3-22.3,9.2C464,46.1,461.5,53.2,460.7,61.9L460.7,61.9z"/>
	<path d="M222.1,251.5c48.4,10.6,96.8,21.2,145.2,31.8c24,5.3,48,10.5,72,15.8c23.3,5.1,46.6,10.1,69.7,16.1
		c26.1,6.8,51.6,15.2,76.5,25.7c-2.5-1.1-5-2.1-7.5-3.2c18.3,7.7,36.2,16.2,54.1,24.8c17.1,8.1,34.2,16.4,50.5,26
		c9.2,5.4,18,11.3,26.5,17.8c-2.1-1.6-4.3-3.3-6.4-4.9c11.7,9,22.3,19.3,31.4,31c-1.6-2.1-3.3-4.3-4.9-6.4
		c6.7,8.7,12.4,18.2,16.8,28.3c-1.1-2.5-2.1-5-3.2-7.5c3.8,9.1,6.4,18.6,7.8,28.4c-0.4-2.8-0.8-5.6-1.1-8.4
		c1.7,13.1,1.3,26.2-0.4,39.3c0.4-2.8,0.8-5.6,1.1-8.4c-2.3,16.7-6.5,33-11.4,49.1c-4.8,16-10.3,31.8-16.8,47.2
		c1.1-2.5,2.1-5,3.2-7.5c-10.5,24.7-24.1,47.7-40.4,69c1.6-2.1,3.3-4.3,4.9-6.4c-25.2,32.6-55.6,60.6-86.9,87.3
		c-8.9,7.6-17.9,15.2-26.9,22.7c-5.9,4.9-9.2,14.9-9.2,22.3c0,7.7,3.4,17,9.2,22.3c6,5.5,13.9,9.6,22.3,9.2c2.8-0.4,5.6-0.8,8.4-1.1
		c5.3-1.5,10-4.2,13.9-8.1c48.9-40.8,97.5-82.7,133-136.3c19.3-29.3,32.9-62.1,43.5-95.4c5.1-16.2,9.9-32.5,12.8-49.3
		c1.9-10.6,3.3-21.4,3.8-32.2c0.5-10.8-0.6-21.4-2.1-32.1c-4.9-34-24.4-65.2-49-88.6c-25-23.9-55.3-40.8-86.1-55.7
		c-32.7-15.8-65.7-31.7-99.9-44.1c-32.8-11.9-66.9-19.8-101-27.3c-70.1-15.5-140.2-30.7-210.2-46.1c-8.7-1.9-17.5-3.8-26.2-5.7
		c-8.2-1.8-16.8-1.2-24.3,3.2c-6.5,3.8-12.8,11.3-14.5,18.8c-1.8,8.1-1.4,17.1,3.2,24.3C207.5,243.7,214,249.8,222.1,251.5
		L222.1,251.5z"/>
	<path d="M202.9,206.4c-11.7,22.5-25,44.1-39.7,64.7c-4.2,5.9-8.5,11.6-12.9,17.3c1.6-2.1,3.3-4.3,4.9-6.4
		c-16.1,20.9-33.7,40.6-52.6,59c-5.3,5.2-10.7,10.3-16.3,15.3c-3.1,2.9-5.2,6.2-6.5,10.1c-2,3.8-2.9,7.8-2.7,12.1
		c-0.2,4.3,0.7,8.4,2.7,12.1c1.3,3.9,3.4,7.3,6.5,10.1c2.1,1.6,4.3,3.3,6.4,4.9c4.9,2.8,10.2,4.3,15.9,4.3c2.8-0.4,5.6-0.8,8.4-1.1
		c5.3-1.5,10-4.2,13.9-8.1c19.4-17.6,37.6-36.4,54.5-56.5c18.3-21.8,35.3-44.7,50.4-68.8c7.7-12.2,14.8-24.7,21.5-37.5
		c2.3-3.6,3.5-7.5,3.7-11.7c0.9-4.2,0.8-8.4-0.6-12.6c-1-4.1-2.9-7.7-5.6-10.7c-2.2-3.4-5.2-6.1-8.8-8.1c-2.5-1.1-5-2.1-7.5-3.2
		c-5.6-1.5-11.2-1.5-16.7,0c-2.5,1.1-5,2.1-7.5,3.2C209.5,197.9,205.7,201.7,202.9,206.4L202.9,206.4z"/>
</g>
</svg>
