<?xml version="1.0" encoding="utf-8"?>
<!-- Generator: Adobe Illustrator 24.2.3, SVG Export Plug-In . SVG Version: 6.00 Build 0)  -->
<svg version="1.1" id="Layer_1" xmlns="http://www.w3.org/2000/svg" xmlns:xlink="http://www.w3.org/1999/xlink" x="0px" y="0px"
	 viewBox="0 0 1000 1000" style="enable-background:new 0 0 1000 1000;" xml:space="preserve">
<g>
	<g>
		<g>
			<g>
				<path d="M101.8,111.1c-0.1,101.4-0.2,202.8-0.4,304.3c-0.1,100.9-0.2,201.8-0.4,302.7c-0.1,56.9-0.1,113.8-0.2,170.8
					c0,8.1,3.5,16.6,9.2,22.3c5.5,5.5,14.4,9.6,22.3,9.2c17.1-0.8,31.5-13.8,31.5-31.5c0.1-101.4,0.2-202.8,0.4-304.3
					c0.1-100.9,0.2-201.8,0.4-302.7c0.1-56.9,0.1-113.8,0.2-170.8c0-8.1-3.5-16.6-9.2-22.3c-5.5-5.5-14.4-9.6-22.3-9.2
					C116.2,80.4,101.8,93.5,101.8,111.1L101.8,111.1z"/>
				<path d="M137.3,181.6c74.3,0.7,148.7,1.4,223,2.1c10.2,0.1,20.4,0.2,30.6,0.3c5.1,0,10.2,0.1,15.3,0.1c4.3,0,8.9-0.4,13.2,0.1
					c-2.8-0.4-5.6-0.8-8.4-1.1c1.4,0.2,2.8,0.6,4.1,1.1c-2.5-1.1-5-2.1-7.5-3.2c1.3,0.6,2.4,1.2,3.5,2.1c-2.1-1.6-4.3-3.3-6.4-4.9
					c1.1,0.9,2,1.8,2.9,2.9c-1.6-2.1-3.3-4.3-4.9-6.4c1,1.4,1.8,2.8,2.5,4.4c-1.1-2.5-2.1-5-3.2-7.5c0.9,2.3,1.5,4.6,1.9,7
					c-0.4-2.8-0.8-5.6-1.1-8.4c1.2,9.3,0.8,19,1.1,28.4c0.3,10.1,0.6,20.2,0.8,30.3c0.5,20.2,0.9,40.5,1.2,60.7
					c0.6,40.3,0.9,80.6,0.9,120.9c0,80.7-1.1,161.3-2.5,241.9c-0.8,45.2-1.8,90.4-2.8,135.6c0.4-2.8,0.8-5.6,1.1-8.4
					c-0.1,0.2-0.1,0.4-0.2,0.7c1.1-2.5,2.1-5,3.2-7.5c-0.3,0.7-0.6,1.3-1.1,1.8c1.6-2.1,3.3-4.3,4.9-6.4c-0.5,0.7-1.1,1.2-1.8,1.8
					c2.1-1.6,4.3-3.3,6.4-4.9c-1.3,1-2.8,1.8-4.3,2.4c2.5-1.1,5-2.1,7.5-3.2c-4.5,1.9-9.4,2.8-14.2,3.4c2.8-0.4,5.6-0.8,8.4-1.1
					c-15.9,2.1-32.3,1.5-48.3,0.6c-21.1-1.1-42.1-3.3-63.1-5.7c-12.5-1.5-25-3.1-37.5-4.7c2.8,0.4,5.6,0.8,8.4,1.1
					c-38.4-5.2-76.7-11.3-115.1-16.4c-5.3-0.7-10.6-1.4-15.9-1.8c-7.7-0.6-17,3.9-22.3,9.2c-5.5,5.5-9.6,14.4-9.2,22.3
					c0.4,8.1,3,16.6,9.2,22.3c6.4,5.9,13.6,8.6,22.3,9.2c6.2,0.5,12.5,1.3,18.7,2.1c-2.8-0.4-5.6-0.8-8.4-1.1
					c22.8,3.1,45.5,6.6,68.2,9.9c31,4.5,62.1,8.8,93.3,12.2c25.6,2.8,51.3,5.2,77.1,5.1c11.8-0.1,23.6-1,35.2-3.1
					c10.5-1.9,21.4-6.4,29-14.1c2.5-2.5,4.8-5.5,6.6-8.5c4.4-7.3,4.8-15.2,5-23.6c0.3-13.2,0.6-26.5,0.9-39.7
					c0.6-26.3,1.1-52.6,1.6-78.9c1-52.7,1.8-105.5,2.3-158.3c0.5-52.8,0.6-105.6,0.2-158.4c-0.4-52.5-1.3-105-2.9-157.4
					c-0.5-15.2-0.2-30.9-8.3-44.5c-9.1-15.2-25.9-24.5-43.6-23.6c-13.2,0.6-26.5-0.2-39.7-0.3c-13.2-0.1-26.3-0.2-39.5-0.4
					c-53.1-0.5-106.2-1-159.3-1.5c-13-0.1-25.9-0.2-38.9-0.4c-8-0.1-16.6,3.6-22.3,9.2c-5.5,5.5-9.6,14.4-9.2,22.3
					C106.6,167.3,119.7,181.4,137.3,181.6L137.3,181.6z"/>
				<path d="M139.8,463.9c37.3-2,74.7-2.8,112-2.6c37.2,0.2,74.3,1.5,111.4,3.9c21,1.4,42,3.1,63,5.1c4.3,0.2,8.4-0.7,12.1-2.7
					c3.9-1.3,7.3-3.4,10.1-6.5c3.1-2.9,5.2-6.2,6.5-10.1c2-3.8,2.9-7.8,2.7-12.1c-0.4-2.8-0.8-5.6-1.1-8.4c-1.5-5.3-4.2-10-8.1-13.9
					c-2.1-1.6-4.3-3.3-6.4-4.9c-4.9-2.8-10.2-4.3-15.9-4.3c-37.2-3.6-74.5-6.2-111.8-7.6c-37.1-1.4-74.3-1.8-111.5-1.1
					c-21,0.4-42.1,1.2-63.1,2.3c-4.3-0.2-8.4,0.7-12.1,2.7c-3.9,1.3-7.3,3.4-10.1,6.5c-3.1,2.9-5.2,6.2-6.5,10.1
					c-2,3.8-2.9,7.8-2.7,12.1c0.4,2.8,0.8,5.6,1.1,8.4c1.5,5.3,4.2,10,8.1,13.9c2.1,1.6,4.3,3.3,6.4,4.9
					C128.9,462.5,134.2,463.9,139.8,463.9L139.8,463.9z"/>
			</g>
		</g>
	</g>
	<g>
		<g>
			<g>
				<path d="M835.2,111.2c0.1,101.4,0.2,202.8,0.4,304.3c0.1,100.9,0.2,201.8,0.4,302.7c0.1,56.9,0.1,113.8,0.2,170.8
					c0,8.1,3.5,16.6,9.2,22.3c5.5,5.5,14.4,9.6,22.3,9.2c17.1-0.8,31.5-13.8,31.5-31.5c-0.1-101.4-0.2-202.8-0.4-304.3
					c-0.1-100.9-0.2-201.8-0.4-302.7c-0.1-56.9-0.1-113.8-0.2-170.8c0-8.1-3.5-16.6-9.2-22.3c-5.5-5.5-14.4-9.6-22.3-9.2
					C849.7,80.4,835.2,93.5,835.2,111.2L835.2,111.2z"/>
				<path d="M862.7,118.6c-53.1,0.5-106.2,1-159.3,1.5c-26.6,0.3-53.1,0.5-79.7,0.8c-13.1,0.1-26.2,0.8-39.3,0.2
					c-8.7-0.4-17.9,2.1-25.4,6.4c-7.1,4-13.7,10.8-17.7,17.9c-7.6,13.9-7.5,29.1-7.9,44.5c-0.4,13.3-0.8,26.5-1.1,39.8
					c-0.6,26.3-1.1,52.7-1.4,79c-0.7,52.8-0.7,105.6-0.5,158.4c0.3,52.8,1,105.6,1.9,158.3c0.9,52.6,2,105.2,3.2,157.8
					c0.2,8.2,0.9,15.2,5.1,22.5c1.8,3.1,4.1,6,6.6,8.5c5.9,5.8,12.1,8.6,19.7,11.5c9.4,3.6,20.1,4.4,30.1,5.1
					c23.5,1.7,47.4-0.3,70.8-2.5c31.3-2.9,62.5-7,93.6-11.4c25-3.5,49.9-7.3,74.9-10.9c4.5-0.7,9.1-1.3,13.6-1.9
					c-2.8,0.4-5.6,0.8-8.4,1.1c6.2-0.8,12.4-1.7,18.7-2.1c8.4-0.6,16.1-3.1,22.3-9.2c5.5-5.5,9.6-14.4,9.2-22.3
					c-0.4-8.1-3-16.6-9.2-22.3c-5.9-5.4-14-9.8-22.3-9.2c-14,1-28,3.3-41.9,5.3c-18,2.6-36,5.3-54,7.9c-11.7,1.7-23.4,3.3-35.1,4.9
					c2.8-0.4,5.6-0.8,8.4-1.1c-41.1,5.5-82.7,11.1-124.2,11.1c-8.2,0-16.5-0.3-24.6-1.3c2.8,0.4,5.6,0.8,8.4,1.1
					c-4.8-0.6-9.7-1.5-14.2-3.4c2.5,1.1,5,2.1,7.5,3.2c-1.5-0.6-3-1.4-4.3-2.4c2.1,1.6,4.3,3.3,6.4,4.9c-0.7-0.5-1.3-1.1-1.8-1.8
					c1.6,2.1,3.3,4.3,4.9,6.4c-0.4-0.6-0.8-1.2-1.1-1.8c1.1,2.5,2.1,5,3.2,7.5c-0.1-0.2-0.2-0.4-0.2-0.7c0.4,2.8,0.8,5.6,1.1,8.4
					c-1.8-80.7-3.5-161.3-4.5-242c-1-80.7-1.3-161.3-0.2-242c0.3-22.6,0.7-45.1,1.2-67.7c0.3-11.4,0.6-22.7,0.9-34.1
					c0.3-10.6-0.1-21.6,1.2-32.2c-0.4,2.8-0.8,5.6-1.1,8.4c0.4-2.4,0.9-4.7,1.9-7c-1.1,2.5-2.1,5-3.2,7.5c0.7-1.6,1.5-3,2.5-4.4
					c-1.6,2.1-3.3,4.3-4.9,6.4c0.9-1.1,1.8-2,2.9-2.9c-2.1,1.6-4.3,3.3-6.4,4.9c1.1-0.8,2.2-1.5,3.5-2.1c-2.5,1.1-5,2.1-7.5,3.2
					c1.3-0.5,2.7-0.9,4.1-1.1c-2.8,0.4-5.6,0.8-8.4,1.1c3.5-0.4,7.1-0.1,10.7-0.1c4.7,0,9.3-0.1,14-0.1c9.3-0.1,18.7-0.2,28-0.3
					c18.5-0.2,37-0.3,55.4-0.5c37.2-0.4,74.3-0.7,111.5-1.1c20.8-0.2,41.6-0.4,62.4-0.6c8.1-0.1,16.5-3.5,22.3-9.2
					c5.5-5.5,9.6-14.4,9.2-22.3c-0.4-8.1-3-16.6-9.2-22.3C878.8,122.2,871.2,118.5,862.7,118.6L862.7,118.6z"/>
				<path d="M860.2,401c-37.3-2-74.7-2.8-112-2.6c-37.2,0.2-74.3,1.5-111.4,3.9c-21,1.4-42,3.1-63,5.1c-4.3-0.2-8.4,0.7-12.1,2.7
					c-3.9,1.3-7.3,3.4-10.1,6.5c-3.1,2.9-5.2,6.2-6.5,10.1c-2,3.8-2.9,7.8-2.7,12.1c0.4,2.8,0.8,5.6,1.1,8.4
					c1.5,5.3,4.2,10,8.1,13.9c2.1,1.6,4.3,3.3,6.4,4.9c4.9,2.8,10.2,4.3,15.9,4.3c37.2-3.6,74.5-6.2,111.8-7.6
					c37.1-1.4,74.3-1.8,111.5-1.1c21,0.4,42.1,1.2,63.1,2.3c4.3,0.2,8.4-0.7,12.1-2.7c3.9-1.3,7.3-3.4,10.1-6.5
					c3.1-2.9,5.2-6.2,6.5-10.1c2-3.8,2.9-7.8,2.7-12.1c-0.4-2.8-0.8-5.6-1.1-8.4c-1.5-5.3-4.2-10-8.1-13.9c-2.1-1.6-4.3-3.3-6.4-4.9
					C871.1,402.5,865.8,401,860.2,401L860.2,401z"/>
			</g>
		</g>
	</g>
</g>
</svg>
