<svg id="Layer_1" data-name="Layer 1" xmlns="http://www.w3.org/2000/svg" viewBox="0 0 1242 2208"><defs><style>.cls-1{fill:#f6eabe;}.cls-2{fill:#999;}.cls-3{fill:none;stroke:#000;stroke-miterlimit:10;}</style></defs><rect class="cls-1" width="1242" height="2208"/><path d="M983.35,762.2v52.4H275.91V762.2H575.24V142.09H630V387.44H929.36v53.19H630V762.2Z"/><path d="M242.15,1847.69a98.85,98.85,0,0,1-6.18,13.56v39.59h-3.84v-33.35a61.73,61.73,0,0,1-5.46,7,32.86,32.86,0,0,0-2.28-3.9c5.58-5.87,10.8-14.87,14-24Zm34.14,28c-2.1,1.26-4.44,2.64-6.84,3.78,2,6.06,5.82,11.82,10.38,14.52a11.2,11.2,0,0,0-2.64,2.94c-4.62-3.18-8.46-9.42-10.68-16a27.45,27.45,0,0,1-2.76,1.2c2.58,6.84,1.86,14-1,16.68a6.91,6.91,0,0,1-5.22,1.92c-1.08,0-2.4-.06-3.78-.18a9.31,9.31,0,0,0-1-3.42,38.26,38.26,0,0,0,4.14.24,3.66,3.66,0,0,0,3.12-1.14c1.56-1.38,2.22-5.16,1.44-9.36-5.16,4.92-13.08,9.36-19.8,11.7a15.8,15.8,0,0,0-2.34-2.82c7.62-2.28,16.62-7.14,21.3-12.24a35.76,35.76,0,0,0-1.5-3.48,63.52,63.52,0,0,1-17.22,9.9,16.14,16.14,0,0,0-2.22-2.64c5.94-1.8,13.74-5.76,17.88-9.54a16.39,16.39,0,0,0-2.94-3.18,58.44,58.44,0,0,1-13.56,7.26,11.26,11.26,0,0,0-2.22-2.58,52.7,52.7,0,0,0,15.06-7.55H243.71v-9.36c-1.14,1-2.28,2-3.54,2.94a9.37,9.37,0,0,0-2.52-2.58,44.69,44.69,0,0,0,13.86-16.26l3.84.72c-.6,1.2-1.32,2.34-2,3.54h11.1l.72-.18,2.34,1.68a52.13,52.13,0,0,1-4.8,6.84h13.08v12.66H258.17c-.36.36-.78.66-1.2,1a21,21,0,0,1,5.64,6.84,110,110,0,0,0,10.92-6.42Zm-25.08-21.83A54.58,54.58,0,0,1,247,1859h11.58a37.88,37.88,0,0,0,3.72-5.16Zm-3.9,14.69h10.5v-6.42h-10.5Zm24.72-6.42H261.41v6.42H272Z"/><path d="M310.19,1883.8c-8.34,3.84-17.52,7.86-24.06,10.74l-1.44-4.08c2.34-.9,5.16-2.1,8.28-3.42l-1-37.55,4-.12.9,36c4-1.74,8.22-3.6,12.36-5.46Zm26.64,17c-2.82-4.2-8.58-10.68-13.8-16.14-4.68,7.2-11.4,12.54-21,16.5a31.65,31.65,0,0,0-3.12-3.42c20.88-7.56,27.24-22.14,29.94-48.35l4.32.42c-1.44,13-3.78,23.21-8,31.31,5.46,5.4,11.88,12.24,15.06,16.56Zm-23.22-30.6c-1.56-4.14-5.46-10.25-9.24-14.63l3.42-1.74a56.51,56.51,0,0,1,9.54,14.27Z"/><path d="M396.11,1881.64a97.41,97.41,0,0,1-13.44,8.1,42.76,42.76,0,0,0,17.64,7.26,14.08,14.08,0,0,0-2.46,3.48c-13.74-3-23.34-10.38-28.56-21.72h-9.78v16.62l16.8-4.08c-.12,1-.18,2.64-.18,3.48-17,4.44-20,5.22-21.3,6l-.3.18a16.11,16.11,0,0,0-1.86-3.84,4.87,4.87,0,0,0,2.94-4.26v-14.1h-10v-3.66h10.56v-26.33h36.9v3.42H360.29v5.52h30.9V1861h-30.9v5.34h30.9v3.3h-30.9v5.46h38.58v3.66H373.31a30.21,30.21,0,0,0,6.72,8.82,90.28,90.28,0,0,0,12.78-8.1Z"/><path d="M422.93,1880.92c-.9-1.92-3.24-5.88-5.1-8.88v28.8h-3.66v-29.16c-2,7.14-4.86,14-7.68,18.3a24,24,0,0,0-2.28-4c3.72-5,7.5-14.75,9.3-23h-8.1v-3.77h8.76v-12.84h3.66v12.84h7.26v3.77h-7.26v4.21c1.68,2.16,6.3,8.75,7.38,10.31ZM438.05,1893a50.05,50.05,0,0,1-13.74,8.22c-.54-.84-1.62-2-2.34-2.94,4.5-1.68,10-4.8,12.6-7.44Zm21.54-24.24H423.65v-3.23h36Zm-27.3-13.61h-7.8v-3.12h7.8v-4.8h3.6v4.8h11v-4.8h3.72v4.8h8v3.12h-8V1863h-18.3ZM426.77,1890v-17.87h29.64V1890Zm3.6-10.32h9.06v-4.55h-9.06Zm0,7.32h9.06v-4.62h-9.06Zm5.52-31.85v5h11v-5Zm16.8,20h-9.54v4.55h9.54Zm0,7.25h-9.54V1887h9.54Zm-4.32,8.46a88.84,88.84,0,0,1,11.64,7.74l-3.18,2.58a84.32,84.32,0,0,0-11-7.86Z"/><path d="M518,1878.17s-.06,1.19-.12,1.73c-1.14,12.66-2.28,17.64-4.14,19.56a5.52,5.52,0,0,1-4,1.56,66.58,66.58,0,0,1-7.5-.12,9.39,9.39,0,0,0-1.2-3.66c3.12.3,6.06.3,7.2.3a3,3,0,0,0,2.22-.54c1.26-1.32,2.4-5.34,3.36-15.3H476.27a59.21,59.21,0,0,1-9.66,7.32,19.86,19.86,0,0,0-2.22-3.3c10.26-6,17.82-15.18,23.1-25.43h-20v-3.66h21.72a82.29,82.29,0,0,0,3.84-10.32l3.9,1a92.32,92.32,0,0,1-3.54,9.3h15.78c-.72,3.48-1.56,7.62-2.34,10.74h7c-.66,3.47-1.5,7.67-2.28,10.8Zm-49.38,20.33c3.42-3.24,5.7-8.58,7-13.2l3.3,1.08c-1.44,4.92-3.54,10.62-7.14,14.16ZM481,1856.33a39,39,0,0,0-6-8.34l3.42-1.44a39.57,39.57,0,0,1,6.18,8Zm26.82,21.84c.54-2.11,1.08-4.69,1.56-7.21H485.57a75.18,75.18,0,0,1-5.76,7.21Zm-21.48,7.91a44,44,0,0,1,1.8,11.88l-3.48.54a39.57,39.57,0,0,0-1.62-11.94Zm5.4-25.79c-1.14,2.4-2.46,4.79-3.84,7.08h15.24c.54-2,1.14-4.62,1.62-7.08Zm3.18,25a43,43,0,0,1,3.6,10.26l-3.3.9a45.91,45.91,0,0,0-3.42-10.44Zm10.32,8a38.83,38.83,0,0,0-4.56-8.1l2.76-1.08a34.18,34.18,0,0,1,4.74,7.86Z"/><path d="M542.81,1878.46c-.84-1.86-2.88-5.7-4.56-8.7v31.14h-3.66v-31.26c-2.1,7.2-5,14.34-8,18.66a18.13,18.13,0,0,0-2.16-3.78c3.72-5,7.62-14.69,9.48-22.85h-8v-3.78h8.64v-11.58h3.66v11.58h6.66v3.78h-6.66v3.24c1.56,2.09,6.06,9,7,10.73Zm12,9.84a43.12,43.12,0,0,1-8.82,10.86c-.72-.54-2.22-1.56-3.12-2.1a31.4,31.4,0,0,0,8.4-9.78Zm.66-35.75H544.91v-3.3h33.42v3.3H567.47v4.32h9.84v13.85h-31v-13.85h9.12Zm7.68,32.51V1901h-3.6v-15.9H545.09v-3.3h33.54v3.3Zm-14.22-7.74v-3.24h25.56v3.24Zm.78-9.71h5.76v-7.68h-5.76Zm14.64-15.06h-5.76v4.32h5.76Zm-5.76,15.06h5.76v-7.68h-5.76Zm8.88-7.68v7.68h6.3v-7.68Zm3.24,27.29a55.2,55.2,0,0,1,8.28,9.9l-3.12,1.92a52.48,52.48,0,0,0-8.1-10.14Z"/><path d="M594.77,1864a53.47,53.47,0,0,0-9.84-4.38l1.92-2.76a46,46,0,0,1,9.84,4ZM639.11,1889h-24.9v12.06h-4.08V1889H585.65v-3.6h24.48v-4.56h4.08v4.56h24.84Zm-52.5-10a159.93,159.93,0,0,0,11.7-12.29l2.1,2.7c-3.36,4.13-7.38,8.81-11,12.65Zm12.48-24.59a60.12,60.12,0,0,0-9.66-4.92l2-2.76a47.41,47.41,0,0,1,9.72,4.56Zm4.74,5.4a48.72,48.72,0,0,1-4,3.84,19.32,19.32,0,0,0-3.18-2.58A42.21,42.21,0,0,0,608.81,1846l3.72,1.08a43,43,0,0,1-3.3,5.76h10.26c-.72-1.56-1.62-3.42-2.4-4.86l3.78-1.08a56.54,56.54,0,0,1,3.12,5.94h12.24V1856H622.85v4.74h11.7v2.88h-11.7v4.61h11.82V1871H622.85v5h14.46v3.3H607.67v2.64h-3.84Zm15.24-3.78h-11.4v4.74h11.4Zm0,7.62h-11.4v4.61h11.4Zm0,7.37h-11.4v5h11.4Z"/><path d="M651.11,1882c4.68-2,7.26-4.86,7.56-9.17a4,4,0,0,1-1.14.11c-2.34,0-4.26-1.31-4.26-4.07a4,4,0,0,1,4.32-4.08c3.18,0,4.86,2.58,4.86,6.66,0,6.41-4,11.21-10.08,13.43Z"/><path d="M726.35,1895.44c0,2.76-.66,4.14-2.64,4.86s-5.76.66-11.22.66a15.26,15.26,0,0,0-1.5-4.08c4.5.18,8.64.12,9.9.06s1.5-.36,1.5-1.5v-34.86h-40V1901h-4v-44.27h16.5a99,99,0,0,0,3.9-10.5l4.86.84c-1.38,3.18-2.94,6.78-4.44,9.66h27.12Zm-32.1-7v4.32h-3.66v-23.93h23.34v19.61Zm0-16v12.42h16v-12.42Z"/><path d="M789,1894.18v4H735.53v-4h22.62v-46.85h4.14v18.54h22.62v4H762.29v24.3Z"/><path d="M849,1873.91v2.81h-53.4v-2.81h24.48v-3.42H800.21v-2.58h19.86v-3.3H801.65V1862h18.42v-3.54H795.65v-2.58h24.42v-3.3H802v-2.52h18.06v-3.78H824v3.78h18.3v5.82h6.54v2.58h-6.54v6.12H824v3.3h20.64v2.58H824v3.42Zm-53.4,22.43H849v2.88h-53.4Zm46.8-16.86v13.86h-40v-13.86Zm-36.18,5.7h14v-3.24h-14Zm0,5.76h14v-3.36h-14Zm32.16-9H823.85v3.24h14.52Zm0,5.64H823.85v3.36h14.52ZM824,1855.91h14.34v-3.3H824Zm0,6.12h14.34v-3.54H824Z"/><path d="M909.59,1870.91v4.31H855.11v-4.31Z"/><path d="M955.31,1891.78a51.37,51.37,0,0,1-3.54,4.86h17.28v3.12H915.53v-3.12h17a26.79,26.79,0,0,0-2.64-4.74l1.8-.54h-7.86V1881h37v10.38H954Zm-13.08-19.68H917.87v-23.39h23.7v2.88H932v4H941v9.71H932v4h10.26v1.69a34.47,34.47,0,0,0,10.86-5.46,35.41,35.41,0,0,1-7.2-11.94l2.7-.72h-4.92v-3.36h20.4l.6-.12,2.28.84a33.26,33.26,0,0,1-8.7,15.3,30.57,30.57,0,0,0,10.86,5.57,12.11,12.11,0,0,0-2.4,3.06,32.17,32.17,0,0,1-11.16-6.24,36.81,36.81,0,0,1-11.4,6.12,12.16,12.16,0,0,0-1.92-3ZM918,1875.29h48.78v2.93H918Zm3.48-23.7v4h7v-4Zm16,6.54h-16v4.5h16Zm-16,11.09h7v-4h-7Zm6.3,19.44h29v-5h-29Zm5.88,2.7a19.32,19.32,0,0,1,2.7,4.74l-1.5.54h14.22l-1-.36a46.44,46.44,0,0,0,3.24-4.92Zm15.48-38.57a29.64,29.64,0,0,0,6.54,10.38,28.25,28.25,0,0,0,6.84-10.38Z"/><path d="M1029,1873.91v2.81h-53.4v-2.81h24.48v-3.42H980.21v-2.58h19.86v-3.3H981.65V1862h18.42v-3.54H975.65v-2.58h24.42v-3.3H982v-2.52h18.06v-3.78h3.9v3.78h18.3v5.82h6.54v2.58h-6.54v6.12H1004v3.3h20.64v2.58H1004v3.42Zm-53.4,22.43H1029v2.88h-53.4Zm46.8-16.86v13.86h-40v-13.86Zm-36.18,5.7h14v-3.24h-14Zm0,5.76h14v-3.36h-14Zm32.16-9h-14.52v3.24h14.52Zm0,5.64h-14.52v3.36h14.52Zm-14.4-31.67h14.34v-3.3H1004Zm0,6.12h14.34v-3.54H1004Z"/><path d="M425.39,1947.94l-7.62,2.34v17.82c0,2.34-.6,3.42-2,4.08s-3.84.78-7.8.72a17,17,0,0,0-1.32-3.66c2.76.06,5.34.06,6.06,0s1.14-.24,1.14-1.14v-16.56l-8.4,2.58-1.26-3.95c2.64-.73,6-1.63,9.66-2.71v-13.07h-8.7v-3.84h8.7v-12.12h4v12.12h7v3.84h-7v11.87c2.34-.59,4.74-1.38,7.08-2.09Zm10.68-6.3c-5.52,0-7.26-1.73-7.26-6.72v-16.31h3.9v7.32H457v3.54h-24.3V1935c0,2.29.66,3.13,3.3,3.13h16.14a49.43,49.43,0,0,0,6.42-.37c.18,1.08.36,2.58.54,3.49a38.74,38.74,0,0,1-6.72.35Zm-7.26,5.34h28v25.74h-4v-2.52H432.59V1973h-3.78Zm3.78,3.48v6.36h20.22v-6.36Zm20.22,16.38v-6.72H432.59v6.72Z"/><path d="M480.47,1948.78a58,58,0,0,1-12.06,19.14,26,26,0,0,0-3.66-2.46,47,47,0,0,0,11.64-17.75Zm13.62-7.91v31.79H490v-31.79H466.07v-4h52.5v4Zm19.2-14.22H471.41v-3.9h41.88Zm-5.16,20.93c4.5,5.58,9.24,13.14,11,18.24l-3.9,1.8c-1.74-5-6.3-12.78-10.8-18.48Z"/><path d="M579,1966.18v4H525.53v-4h22.62v-46.85h4.14v18.54h22.62v4H552.29v24.3Z"/><path d="M613.85,1926.23c-.72,2.64-1.62,5.52-2.46,7.92h24.3V1973h-4v-3.18H592.61V1973h-3.9v-38.87h18.6a80.35,80.35,0,0,0,1.92-7.92H586v-3.78h52.62v3.78Zm-21.24,39.89h9v-28.25h-9Zm26-28.25H605.27v7h13.32Zm0,10.31H605.27v7.2h13.32Zm-13.32,17.94h13.32v-7.44H605.27Zm26.4-28.25h-9.42v28.25h9.42Z"/><path d="M661.25,1919c-1,2.94-2.1,6.3-3.18,8.88h10.14v38.75h-16.8v4.8h-3.66v-43.55h6.66a64.68,64.68,0,0,0,2.58-9.72Zm3.3,12.47H651.41v13.08h13.14Zm0,31.56v-14.88H651.41v14.88Zm33.06-33.17c-1,27.53-1.8,36.71-4.2,39.59a5.6,5.6,0,0,1-4.56,2.28,74.94,74.94,0,0,1-8.82-.12,9.42,9.42,0,0,0-1.32-3.9c3.9.36,7.5.36,8.82.36s1.92-.12,2.52-.9c2-2.1,2.94-11.34,3.72-35.7H678.05a55.33,55.33,0,0,1-5.64,10.68,36.22,36.22,0,0,0-3.36-2.22c4.08-5.33,7.32-13.61,9.18-21.89l3.84.84c-.78,3-1.62,6-2.64,8.88h18.18Zm-12.78,27a106.51,106.51,0,0,0-9.3-13.92l3.06-1.79a102.47,102.47,0,0,1,9.6,13.61Z"/><path d="M723.53,1919.63a90.29,90.29,0,0,1-6.18,12.84v40.43h-4v-34.19a70.15,70.15,0,0,1-6.36,7.79,23.56,23.56,0,0,0-2.28-3.9c5.94-5.81,11.58-14.81,15.06-24Zm35.76,47v3.84H721.85v-3.84h21.06a266.82,266.82,0,0,0,5.88-30.05l4.14.77c-1.56,9.25-4,21.18-6.3,29.28Zm-2.52-33.47H724.49v-3.84h32.28Zm-24.12,30.53a209.72,209.72,0,0,0-4.2-25.8l3.6-.71a205.18,205.18,0,0,1,4.56,25.37Zm6.84-35.21a72.34,72.34,0,0,0-2.88-9.48l3.72-1a88.64,88.64,0,0,1,3.06,9.36Z"/><path d="M818.69,1968.1v3.06h-52.8v-3.06H774v-25.19h13.86c.18-1.15.48-2.41.72-3.78H766.49V1936h22.68c.18-1.2.42-2.46.6-3.6H769.49v-11.7h46.2v11.7H793.85c-.24,1.14-.48,2.4-.72,3.6h24.3v3.18h-25q-.45,2.05-.9,3.78h18.84v25.19Zm-35.34-44.45h-10v5.7h10Zm-5.52,22v3.59h28.56v-3.59Zm28.56,6.11H777.83v3.66h28.56Zm-28.56,10h28.56v-3.84H777.83Zm0,6.36h28.56v-3.9H777.83Zm9.24-38.75h10.38v-5.7H787.07Zm14,0h10.56v-5.7H801.11Z"/><path d="M837.41,1936.67a9.06,9.06,0,1,1-9.06,9A9.09,9.09,0,0,1,837.41,1936.67Zm0,15.23a6.18,6.18,0,1,0,0-12.36,6.18,6.18,0,1,0,0,12.36Z"/><path d="M499.13,2007.17c4.44,10.31,12.24,20,20.76,24.71a23.11,23.11,0,0,0-3.06,3.36c-9-5.58-16.92-16.32-21.6-28.07h-1v22.43h14.28v4H494.27V2045h-4.14v-11.4H475.91v-4h14.22v-22.43h-1.08c-4.74,11.75-12.66,22.43-21.3,28.25a24.18,24.18,0,0,0-2.88-3.18c8-4.92,15.66-14.76,20.16-25.07H466.37v-4h23.76v-12.72h4.14v12.72h24v4Z"/><path d="M574.13,2029.54a33.64,33.64,0,0,1-8.22,7.38c2.4,2.82,5.22,4.44,8.16,4.38,1.68-.06,2.16-1.5,2.46-5.94a10.31,10.31,0,0,0,3.12,1.62c-.6,6.3-2.1,7.92-5.76,8-4.26,0-8.16-2.22-11.28-6a74.41,74.41,0,0,1-13.68,5.82,36.46,36.46,0,0,0-2.1-3.24,65.61,65.61,0,0,0,13.86-5.34,34.94,34.94,0,0,1-3.84-8.82H542.39v4.38l11.16-1-.06,2.88-11.1,1.08v6.12c0,2.1-.48,3.06-2.16,3.54s-4.38.54-8.94.54a19.42,19.42,0,0,0-1.26-3.18c3.36.12,6.48.06,7.38,0s1.2-.24,1.2-1v-5.7c-4.74.48-9.12.9-12.72,1.2l-.42-3.3c3.54-.24,8.1-.54,13.14-1v-4.68h-12.9v-3.18h12.9v-4.44c-3.78.42-7.68.72-11.28.91a12,12,0,0,0-.9-2.71c8.16-.48,18.18-1.55,23.52-2.94l2.52,2.58c-2.82.66-6.36,1.26-10.08,1.74v4.86h13.68a52.67,52.67,0,0,1-1.2-8.94h3.84a57.48,57.48,0,0,0,1.2,8.94h19v3.18H560.81a31.91,31.91,0,0,0,3.12,6.9,27.09,27.09,0,0,0,6.72-5.94Zm4.62-15.17h-53v-3.24h24.36V2007h-18.6v-3.06h18.6v-4H528.29v-3.18H541a30,30,0,0,0-3.48-5.16l3.42-1.26a24.4,24.4,0,0,1,4.32,6.24l-.42.18h14.64a54.7,54.7,0,0,0,3.6-6.6l4.14,1.2c-1.2,1.86-2.52,3.84-3.72,5.4h12.84V2000H554.15v4h18.9V2007h-18.9v4.14h24.6Zm-5.7,9a34,34,0,0,0-9.48-5.52l2.16-2.46a38.32,38.32,0,0,1,9.66,5.22Z"/><path d="M614.69,2039.62a70.7,70.7,0,0,0,7.38.36c2.1.06,14.76,0,17.58-.06a16.36,16.36,0,0,0-1.44,3.84H622c-12.3,0-19.92-1.92-24.72-10.38a31.55,31.55,0,0,1-9.48,11.7,19.84,19.84,0,0,0-3.06-2.82c6.3-4.14,10.2-10.92,11.82-19.86l4,.6a55.92,55.92,0,0,1-1.5,6.06c2.34,5.64,6.3,8.52,11.7,9.84v-18.54H586v-3.6h52.68v3.6H614.69v7.08h20v3.6h-20Zm17.22-27.17h-39.6v-19.56h39.6Zm-4-16.44H596.21v5.16h31.68Zm0,8.1H596.21v5.27h31.68Z"/><path d="M699,2038.18v4H645.53v-4h22.62v-46.85h4.14v18.54h22.62v4H672.29v24.3Z"/><path d="M727.49,2004.71c-.18,3.29-.48,6.59-.9,10h25.5s-.06,1.37-.12,2c-1.26,17-2.4,23.46-4.8,25.8-1.26,1.38-2.64,1.8-4.86,1.92a87,87,0,0,1-10-.24,9,9,0,0,0-1.38-3.84c4.26.36,8.46.42,10,.42a4,4,0,0,0,2.82-.72c1.74-1.56,2.88-7.44,4-21.48H726c-1.92,10.68-6.42,20.7-17.82,26.64a11.83,11.83,0,0,0-2.88-3.12c15.54-7.68,17.1-23.46,17.82-37.31H706.67v-3.84H758v3.84Zm5.64-4a74.52,74.52,0,0,0-4.2-9.18l3.84-1.5A65.56,65.56,0,0,1,737,1999Z"/><path d="M777.41,2008.67a9.06,9.06,0,1,1-9.06,9A9.09,9.09,0,0,1,777.41,2008.67Zm0,15.23a6.18,6.18,0,1,0,0-12.36,6.18,6.18,0,1,0,0,12.36Z"/><rect class="cls-2" x="1113.23" y="1185" width="65" height="321" rx="12"/><path class="cls-1" d="M1157.28,1223.79a27.61,27.61,0,0,0,11.5,8.1,11.65,11.65,0,0,0-2.15,2.55,30.77,30.77,0,0,1-12.8-10.65h-15.95a34.39,34.39,0,0,1-13,11.3,11.43,11.43,0,0,0-2.15-2.55,30.39,30.39,0,0,0,11.6-8.75h-11.1v-2.85h10v-16.15h-7.7V1202h7.7v-5h3.3v5H1155v-5h3.35v5H1166v2.8h-7.65v16.15h9.8v2.85Zm-10,14.5h17.3v2.85H1127v-2.85h16.9v-5.6h-10.45v-2.8h10.45v-4.4h3.35v4.4h10.65v2.8h-10.65Zm-10.8-33.5v3.6H1155v-3.6Zm0,9.8H1155v-3.65h-18.55Zm0,6.35H1155v-3.8h-18.55Z"/><path class="cls-1" d="M1141.48,1265.54s0,1.15,0,1.55c-.6,15.85-1.2,21.2-2.6,23a3.71,3.71,0,0,1-2.8,1.45,32.65,32.65,0,0,1-4.45,0,9.25,9.25,0,0,0-.85-3c1.75.15,3.2.15,3.9.15a1.42,1.42,0,0,0,1.45-.65c1-1.2,1.6-6,2.15-19.35h-6.8c-.55,10-2,18.25-6.45,23.65a9.53,9.53,0,0,0-2.55-2.35c5.45-6.45,5.9-17.85,6.1-31.55h-5.2v-3.1h20.1v3.1h-11.65c0,2.45-.1,4.85-.2,7.15Zm-7.9-10.45a33.47,33.47,0,0,0-4.25-7.15l2.9-1.15a31.92,31.92,0,0,1,4.4,7Zm23.85-7.45a15.26,15.26,0,0,1-.85,2.55c2.65,5.45,7.7,11.35,12.45,14a13,13,0,0,0-2.45,2.75c-4.25-2.7-8.5-8-11.4-13.3a32.61,32.61,0,0,1-11,13.6,12.79,12.79,0,0,0-2.35-2.65c5.85-3.6,10.35-10.2,12.5-17.85Zm-8.3,32.45a74,74,0,0,1,13.6,8.25l-2.25,2.9c-2.85-2.6-8.75-6.3-13.4-8.65Zm9.5-4.85a66.22,66.22,0,0,0-8.6-6.85l2.15-2.2a67.46,67.46,0,0,1,8.75,6.55Z"/><path class="cls-1" d="M1156.43,1317.44a37.72,37.72,0,0,0,12.55,9.3,11.69,11.69,0,0,0-2.4,2.6c-5-2.8-10.55-7.3-13.8-11.9h-14a43.85,43.85,0,0,1-14.45,12.1,10,10,0,0,0-2.1-2.55,41.83,41.83,0,0,0,12.45-9.55h-11.25v-2.8H1137c.9-1.25,1.75-2.55,2.5-3.85h-10.7v-2.65h12.1c.6-1.25,1.1-2.5,1.6-3.75h-16.35v-2.8h17.25a41.59,41.59,0,0,0,1.1-4.65l3.35.4c-.3,1.4-.6,2.85-1,4.25h18.85v2.8h-19.75a29.31,29.31,0,0,1-1.5,3.75h18.8v2.65h-20.1a34,34,0,0,1-2.3,3.85H1168v2.8Zm-13.85,16.4c-3.75,3.6-10.6,7-16.3,8.45a14.19,14.19,0,0,0-2-2.6c5.65-1.2,12.3-4,15.75-7.1Zm4.7-3v11.7H1144v-11.7h-14.1V1328H1144v-4.1c-2.9.35-5.9.65-8.6.8a9,9,0,0,0-.8-2.4c6.45-.55,14.1-1.5,18.45-2.65l1.9,2.45a66,66,0,0,1-7.65,1.4v4.5h14.4v2.8Zm3.25,1.25a152.92,152.92,0,0,1,15,8.15l-1.85,2.3a118,118,0,0,0-14.9-8.45Z"/><path class="cls-1" d="M1136.13,1383.74v8.65h-3.2v-8.65h-10v-3h10v-4.2h-8v-16.6h8v-4.3h-9.4v-2.95h9.4v-5.7h3.2v5.7h9.8v2.95h-9.8v4.3h8.3v16.6h-8.3v4.2h9.95v3Zm-8.15-16.85h13.45v-4.4H1128Zm0,6.95h13.45v-4.45H1128Zm38.4,14.45c0,2-.5,3-1.85,3.6s-3.45.6-7,.55a17.36,17.36,0,0,0-1.1-3.2c2.65.1,5,.1,5.7,0s1.05-.25,1.05-1v-12h-11.65c-.75,5.85-2.7,12-7.25,16.4a9.87,9.87,0,0,0-2.55-1.95c6.45-6.3,7.1-15.4,7.1-22.65v-18.65h17.6Zm-3.25-15.15v-8.85h-11.2v3.7c0,1.65,0,3.35-.15,5.15Zm-11.2-20.7v8.8h11.2v-8.8Z"/><path class="cls-1" d="M1136.58,1410.44v32.1h-3.3v-32.1h-2.75a49.68,49.68,0,0,1-5.4,9.75,22.6,22.6,0,0,0-2.9-2c4-5.1,7.25-13.15,9.15-21.25l3.45.7a92.54,92.54,0,0,1-3,9.55h13.9v3.25Zm31.9,0h-7.75V1438c0,2.25-.5,3.3-2,3.85s-4.3.65-8.15.65a14.17,14.17,0,0,0-1.2-3.55c3.2.1,6.1.1,7,.1s1.1-.3,1.1-1v-27.55h-7.7a47.66,47.66,0,0,1-5.25,9.7,30.88,30.88,0,0,0-2.8-2c4-5.1,7-13.05,8.85-21.2l3.3.65a93.23,93.23,0,0,1-2.85,9.6h17.55Z"/><path class="cls-1" d="M1167.78,1472.29v2.5h-44.15v-2.5h20.25v-3.2H1127v-2.3h16.85v-3h-15.45v-2.25h15.45v-3.2h-20.15v-2.5h20.15v-3H1129v-2.35h14.85v-3.55h3.25v3.55h14.45v5.4h6.15v2.5h-6.15v5.45h-14.45v3h17.3v2.3h-17.3v3.2Zm-37.75,5h31.75v15.25h-3.25v-1.6h-25.3v1.7H1130Zm3.2,2.4v3.2h25.3v-3.2Zm25.3,8.85v-3.4h-25.3v3.4Zm-11.4-32.7h11.15v-3h-11.15Zm0,5.7h11.15v-3.2h-11.15Z"/><rect class="cls-2" x="1113.23" y="392" width="65" height="126" rx="12"/><path class="cls-1" d="M1132.93,421.82c1.25,1.6,4.9,6.7,5.7,8.05l-2,2.45c-.7-1.5-2.35-4.4-3.75-6.65V452h-3.15V427.57c-1.5,5.05-3.5,9.9-5.55,12.85a14.83,14.83,0,0,0-1.75-3.1c2.9-4,5.8-11.5,7.2-18h-6.2v-3.15h6.3v-9.65h3.15v9.65h5.45v3.15h-5.45Zm19.1.7a19.47,19.47,0,0,0,.45,2.65c-10.15,2.7-11.6,3.15-12.5,3.75a12.13,12.13,0,0,0-1.1-3.2c.7-.2,1.55-.5,1.55-2.2v-16.7h3.25v6.5H1152v2.9h-8.35v8.3Zm2.35,5.5-2,3.75h12.65V452h-3.4v-1.75h-17v2h-3.3V431.77h7.9c.55-1.5,1.2-3.25,1.55-4.6Zm7.3,6.5h-17v5.05h17Zm0,13v-5.3h-17v5.3Zm2.25-22.4c1.25,0,1.5-.75,1.65-5.25a9.16,9.16,0,0,0,2.85,1.25c-.3,5.45-1.2,6.95-4.15,6.95h-5.85c-3.65,0-4.55-.95-4.55-4.45V406.87h3.25v6.5h10.2v2.9h-10.2v7.35c0,1.3.25,1.5,1.65,1.5Z"/><path class="cls-1" d="M1167.78,481.87v2.5h-44.15v-2.5h20.25v-3.2H1127v-2.3h16.85v-3h-15.45v-2.25h15.45v-3.2h-20.15v-2.5h20.15v-3.05H1129V460h14.85v-3.55h3.25V460h14.45v5.4h6.15v2.5h-6.15v5.45h-14.45v3h17.3v2.3h-17.3v3.2Zm-37.75,5h31.75v15.25h-3.25v-1.6h-25.3v1.7H1130Zm3.2,2.4v3.2h25.3v-3.2Zm25.3,8.85v-3.4h-25.3v3.4Zm-11.4-32.7h11.15v-3.05h-11.15Zm0,5.7h11.15v-3.2h-11.15Z"/><line class="cls-3" x1="601.5" y1="792.5" x2="601.5" y2="783.5"/><path d="M599.81,170q-3.16,120.29-6.28,240.57Q592,471.2,591.18,531.78c-.5,39.85-.82,79.73.41,119.57,1.37,44.19,4.75,88.37,12,132,.32,1.9,3.21,1.09,2.89-.8-13-78.37-13.29-158.09-12.46-237.32.85-80.17,3.14-160.33,5.24-240.48Q601,237.4,602.81,170c.05-1.94-2.95-1.93-3,0Z"/><path d="M600.72,1020.49c-9.29,81.14-9.67,162.91-9.18,244.48q.74,122.92,1.73,245.84.48,69.06,1,138.11c.09,12.56,11,24.59,24,24s24.1-10.54,24-24q-.87-123.68-1.75-247.35c-.57-81.56-2.25-163.21-.41-244.77,1-45.53,3.46-91,8.64-136.31.66-5.7-3.15-13.09-7-17-4.16-4.17-11-7.3-17-7-6.2.28-12.64,2.31-17,7-4.57,5-6.26,10.28-7,17Z"/><path d="M284.05,1679.91q130.13.67,260.25.69,129.47,0,258.92-.68,73-.37,146.06-1c12.55-.1,24.58-11,24-24s-10.55-24.11-24-24Q819.16,1632,689,1632.39q-129.46.38-258.92.07-73-.17-146.06-.55c-12.56-.07-24.58,11.08-24,24s10.54,23.93,24,24Z"/><path d="M604.5,1038.18c8.31,14.36,18,27.72,28.17,40.83,8.92,11.51,18.44,22.54,28.22,33.33,20.79,22.93,42.37,45.17,63.64,67.65q18.69,19.76,37.39,39.52a26.24,26.24,0,0,0,36.06,0l4-5.16a25.52,25.52,0,0,0,3.48-12.87l-.91-6.78a25.45,25.45,0,0,0-6.56-11.25l-53.85-56.92c-16.82-17.78-33.86-35.38-50.2-53.6-8.82-9.83-17.4-19.89-25.48-30.34l4,5.16a322.7,322.7,0,0,1-23.91-35.31,24.54,24.54,0,0,0-25.4-12.17,19,19,0,0,0-9.49,3l-5.16,4a25.43,25.43,0,0,0-6.55,11.25l-.92,6.78a25.43,25.43,0,0,0,3.49,12.87Z"/><path d="M597.66,1015.87a323.16,323.16,0,0,1-23.91,35.31l4-5.16c-14.43,18.67-30.42,36-46.6,53.21q-26.32,27.91-52.74,55.75l-30.18,31.9a28.44,28.44,0,0,0-7.47,18,19.22,19.22,0,0,0,2.2,9.83,19,19,0,0,0,5.27,8.2l5.16,4a25.32,25.32,0,0,0,12.87,3.48l6.78-.91a25.45,25.45,0,0,0,11.25-6.56q33.27-35.16,66.55-70.33c20.31-21.48,41-42.76,59.37-65.93,11.42-14.37,22.3-29.16,31.5-45.07a18.93,18.93,0,0,0,3-9.48,26.15,26.15,0,0,0-12.18-25.4l-6.09-2.57a25.58,25.58,0,0,0-13.56,0l-6.09,2.57a25.5,25.5,0,0,0-9.14,9.14Z"/></svg>