<svg id="Layer_1" data-name="Layer 1" xmlns="http://www.w3.org/2000/svg" viewBox="0 0 1242 2208"><defs><style>.cls-1{fill:#f6eabe;}.cls-2{fill:#999;}.cls-3,.cls-4,.cls-5{fill:none;stroke:#000;stroke-miterlimit:10;}.cls-4,.cls-5{stroke-width:50px;}.cls-5{stroke-linecap:round;}</style></defs><rect class="cls-1" width="1242" height="2208"/><path d="M938.21,281.72V649.34h-54V603.29H648.41V862.13H593.62V603.29h-235v50H306.2V281.72H593.62V139.59h54.79V281.72ZM593.62,550.88V333.33h-235V550.88Zm290.6,0V333.33H648.41V550.88Z"/><path d="M235.92,1889.69a98.85,98.85,0,0,1-6.18,13.56v39.59H225.9v-33.35a61.73,61.73,0,0,1-5.46,7,32.86,32.86,0,0,0-2.28-3.9c5.58-5.87,10.8-14.87,14-24Zm34.14,28c-2.1,1.26-4.44,2.64-6.84,3.78,2,6.06,5.82,11.82,10.38,14.52a11.2,11.2,0,0,0-2.64,2.94c-4.62-3.18-8.46-9.42-10.68-16a27.45,27.45,0,0,1-2.76,1.2c2.58,6.84,1.86,14-1,16.68a6.91,6.91,0,0,1-5.22,1.92c-1.08,0-2.4-.06-3.78-.18a9.31,9.31,0,0,0-1-3.42,38.26,38.26,0,0,0,4.14.24,3.66,3.66,0,0,0,3.12-1.14c1.56-1.38,2.22-5.16,1.44-9.36-5.16,4.92-13.08,9.36-19.8,11.7a15.8,15.8,0,0,0-2.34-2.82c7.62-2.28,16.62-7.14,21.3-12.24a35.76,35.76,0,0,0-1.5-3.48,63.52,63.52,0,0,1-17.22,9.9,16.14,16.14,0,0,0-2.22-2.64c5.94-1.8,13.74-5.76,17.88-9.54a16.39,16.39,0,0,0-2.94-3.18,58.44,58.44,0,0,1-13.56,7.26,11.26,11.26,0,0,0-2.22-2.58,52.7,52.7,0,0,0,15.06-7.55H237.48v-9.36c-1.14,1-2.28,2-3.54,2.94a9.37,9.37,0,0,0-2.52-2.58,44.69,44.69,0,0,0,13.86-16.26l3.84.72c-.6,1.2-1.32,2.34-2,3.54h11.1l.72-.18,2.34,1.68a52.13,52.13,0,0,1-4.8,6.84h13.08v12.66H251.94c-.36.36-.78.66-1.2,1a21,21,0,0,1,5.64,6.84,110,110,0,0,0,10.92-6.42ZM245,1895.81a54.58,54.58,0,0,1-4.2,5.16h11.58a37.88,37.88,0,0,0,3.72-5.16Zm-3.9,14.69h10.5v-6.42h-10.5Zm24.72-6.42H255.18v6.42H265.8Z"/><path d="M299.16,1901.63a67.9,67.9,0,0,1-7.2,12.24v28.85h-4v-24a41.57,41.57,0,0,1-7.26,6.41,17,17,0,0,0-2-3.48c7-5,12.3-12.23,16.14-20H280v-3.84h16.44a65.25,65.25,0,0,0,3.3-9.42l4.08,1c-.9,2.82-1.86,5.64-3,8.4H332.1v3.84Zm32.94,36.23v3.72H296v-3.72h16v-17.52H298.32v-3.71H312v-11.82h4v11.82h13.8v3.71H316v17.52Z"/><path d="M393.36,1912.91v4.31H338.88v-4.31Z"/><path d="M412.26,1899.89h7.2v3.78h-7.2v3.06c1.62,2.22,6,8.94,7,10.67l-2.4,2.88c-.84-1.86-2.88-5.64-4.56-8.64v31.26h-3.72v-30.23c-2.1,7-5,13.79-7.92,17.87a21,21,0,0,0-2.22-3.72c3.9-5.1,7.8-14.75,9.72-23.15H399.3v-3.78h9.24v-11.58h3.72Zm39.6,22.07a77.93,77.93,0,0,1-10.68,7.26,27,27,0,0,0,12.42,9.84,19.57,19.57,0,0,0-2.76,3.48c-9.72-4.32-15.66-13.56-18.78-25.5h-6.3v20.46l11.34-2.76a20.69,20.69,0,0,0,.18,3.48c-12.48,3.48-14.22,4-15.3,4.8a18.6,18.6,0,0,0-1.68-3.48c.72-.42,1.56-1.08,1.56-3.36V1891h26.46v26H435.6a40.25,40.25,0,0,0,3.78,9.3,76.49,76.49,0,0,0,9.84-7.13Zm-26.1-27.41v7.68h18.66v-7.68Zm0,19h18.66v-7.92H425.76Z"/><path d="M513.12,1937.08v3.66H459v-3.66h8.64v-34.73h14.1c.36-1.5.6-3.24.84-5H460.8v-3.66h22.32c.24-1.92.48-3.78.6-5.34l4.38.42c-.24,1.56-.54,3.24-.84,4.92H511.2v3.66H486.6c-.36,1.74-.72,3.54-1.08,5h19.32v34.73Zm-41.64-31.31v5.4h29.34v-5.4Zm29.34,8.57H471.48v5.1h29.34Zm-29.34,13.8h29.34v-5.52H471.48Zm0,8.94h29.34v-5.76H471.48Z"/><path d="M524.64,1927.06a84.79,84.79,0,0,1-3.12,14.7,27.64,27.64,0,0,0-3.18-1.14,58.35,58.35,0,0,0,3-14.1Zm11.16-2.46c-.18-1.08-.42-2.28-.72-3.66-12.12,1.86-13.92,2.28-14.94,2.82-.24-.84-.9-2.76-1.32-3.78,1.2-.3,2.58-1.8,4.32-4a75.87,75.87,0,0,0,5.16-7.07c-6.42.77-7.74,1.08-8.58,1.5a30.29,30.29,0,0,0-1.26-3.72c1-.24,2-1.5,3.24-3.31a77.54,77.54,0,0,0,7.74-15.17l3.72,1.56A89,89,0,0,1,524,1906l6.66-.59c1.5-2.52,3.06-5.34,4.38-8l3.54,2a113.57,113.57,0,0,1-13.5,19.67l9.24-1.2c-.54-2.09-1.14-4.25-1.8-6.24l3.06-.72a73.33,73.33,0,0,1,3.48,12.72Zm-5.7,1.8a106.51,106.51,0,0,1,1.56,12.84l-3.18.6a104.68,104.68,0,0,0-1.44-12.9Zm5.34-1.38a72.51,72.51,0,0,1,3.06,9.84l-3,1a84.63,84.63,0,0,0-2.88-10Zm18.36-3.54c-2.28,9.06-7.56,15.42-13.68,18.72a10.48,10.48,0,0,0-2.34-2.82,24.24,24.24,0,0,0,11.52-13.26H541v-3.36h9.78l.6-.18Zm18.24-1.2a95.41,95.41,0,0,1-8.46,7.38,27.46,27.46,0,0,0,10,9.54,13.6,13.6,0,0,0-2.58,3.18c-5-3-9-8.16-11.88-14.34v12.42c0,2.16-.42,3.24-1.92,3.9s-4,.72-7.92.72a16.63,16.63,0,0,0-1.14-3.72c2.88.06,5.4.06,6.18,0s1-.18,1-.9v-22.92H543.24v-20.87h9.3a51.67,51.67,0,0,0,2-6.36l4.44,1c-.84,1.8-1.74,3.78-2.52,5.4h13.68v20.87h-11.1v2.1a39.64,39.64,0,0,0,3,7.38,76.28,76.28,0,0,0,7-7.08ZM547,1903.54h19.38v-5.63H547Zm0,8.83h19.38v-5.76H547Z"/><path d="M595,1889c-1,2.94-2.1,6.3-3.18,8.88H602v38.75h-16.8v4.8h-3.66v-43.55h6.66a64.68,64.68,0,0,0,2.58-9.72Zm3.3,12.47H585.18v13.08h13.14Zm0,31.56v-14.88H585.18v14.88Zm33.06-33.17c-1,27.53-1.8,36.71-4.2,39.59a5.6,5.6,0,0,1-4.56,2.28,74.94,74.94,0,0,1-8.82-.12,9.42,9.42,0,0,0-1.32-3.9c3.9.36,7.5.36,8.82.36s1.92-.12,2.52-.9c2-2.1,2.94-11.34,3.72-35.7H611.82a55.33,55.33,0,0,1-5.64,10.68,36.22,36.22,0,0,0-3.36-2.22c4.08-5.33,7.32-13.61,9.18-21.89l3.84.84c-.78,3-1.62,6-2.64,8.88h18.18Zm-12.78,27a106.51,106.51,0,0,0-9.3-13.92l3.06-1.79a102.47,102.47,0,0,1,9.6,13.61Z"/><path d="M689.82,1899.05v27.77h-4.08v-3.48H667.92v19.56h-4.14v-19.56H646v3.78h-4v-28.07h21.72v-10.74h4.14v10.74Zm-26,20.33V1903H646v16.43Zm22,0V1903H667.92v16.43Z"/><path d="M705.6,1911.22V1943h-3.9V1891h21.42v20.27Zm0-17.15v5.4h13.74v-5.4Zm13.74,14v-5.64H705.6v5.64Zm-.84,29.27v3.06h-3.66v-24.53H737v21.47Zm0-18.36v5.88h14.76V1919Zm14.76,15.18V1928H718.5v6.18Zm17.4,3.3c0,2.7-.66,4-2.52,4.74s-5,.72-10,.72a13.68,13.68,0,0,0-1.38-4.08c3.78.18,7.44.12,8.46.06s1.44-.36,1.44-1.44v-26.21h-18V1891h22Zm-18.12-43.43v5.4H746.7v-5.4Zm14.16,14.1v-5.7H732.54v5.7Z"/><path d="M785.28,1901.87c-.48,26.69-.84,35.33-2.76,37.85a4.59,4.59,0,0,1-3.84,2.16,38.73,38.73,0,0,1-7,0,9.48,9.48,0,0,0-1.2-4c2.88.18,5.52.24,6.6.24a1.89,1.89,0,0,0,2-1c1.38-1.74,1.92-10,2.4-33.59h-9.6c-.54,16.14-2.64,30.65-10.8,39.41a13,13,0,0,0-3-2.7c7.68-7.92,9.48-21.54,9.9-36.71h-8.52v-3.84h8.64c.06-3.48.06-7,.06-10.62H772c0,3.6,0,7.14-.12,10.62h13.38Zm25.26-6v45.83h-4v-4H794.22v4.44h-3.84v-46.25Zm-4,38v-34.13H794.22v34.13Z"/><path d="M872.76,1936.18v4H819.3v-4h22.62v-46.85h4.14v18.54h22.62v4H846.06v24.3Z"/><path d="M930.9,1890.83v52.07h-3.84v-2.34H884.94v2.34h-3.72v-52.07Zm-3.84,46.25v-42.71H884.94v42.71Zm-2.46-23.33h-9.9a75.05,75.05,0,0,1,9.66,8.09l-2.46,2.1a72.84,72.84,0,0,0-12.12-10.19h-9.06a40.89,40.89,0,0,1-3.9,4.38H914s0,.77-.06,1.25c-.18,4.56-.48,6.6-1.2,7.38a3.37,3.37,0,0,1-2.64,1,34.82,34.82,0,0,1-4.8-.12,7.81,7.81,0,0,0-.78-2.46c2,.18,3.84.18,4.44.18a1.37,1.37,0,0,0,1.32-.36c.3-.36.48-1.56.6-4.26H899.34V1930c0,1.56.54,1.86,3.54,1.86H913.8c2.16,0,2.58-.66,2.82-4.92a10,10,0,0,0,2.88,1.14c-.36,5.22-1.44,6.54-5.34,6.54h-11.4c-5.22,0-6.72-.84-6.72-4.56v-11.22a37.68,37.68,0,0,1-7.74,5.34,18.48,18.48,0,0,0-2.28-2.76,31.85,31.85,0,0,0,10.5-7.67H887.7v-2.83h11a26,26,0,0,0,2.46-4.19h-10.5V1904H902.4a44.1,44.1,0,0,0,2.34-8.09l3.42.36a58.9,58.9,0,0,1-2.22,7.73h6.48a44.53,44.53,0,0,0,3.42-7.07l3.18,1c-1.08,2.1-2.28,4.26-3.36,6h6.54v2.77H904.8a38.46,38.46,0,0,1-2.22,4.19h22Zm-28.5-10.14a18.11,18.11,0,0,0-3.42-5.46l2.58-1.08a17.19,17.19,0,0,1,3.54,5.34Z"/><path d="M964.56,1915.42V1943h-3.9v-27.54H950.4c-.18,10.08-1.74,20-8.88,27.9a15.89,15.89,0,0,0-2.94-2.7c6.54-7.2,7.86-16.14,8.1-25.2h-7.92v-3.71h8v-15.9h-7.08v-3.72h30.66v3.72h-5.76v15.9h6.54v3.71Zm-3.9-3.71v-15.9h-10.2v15.9Zm33.18,11.69c-5,8.16-13.68,15.36-23,19.62a14.41,14.41,0,0,0-2.82-3.24c9-3.66,17.58-10.38,22.08-17.82Zm-3.24-32.51c-4.32,5.46-11.16,10.74-17.16,14a15.73,15.73,0,0,0-2.88-2.75c5.76-2.88,12.6-8,16.32-12.78Zm1.8,16.37A65.72,65.72,0,0,1,974,1922.38a20.87,20.87,0,0,0-2.82-2.82c6.18-3.12,13.5-8.64,17.58-13.79Z"/><path d="M1004.88,1924c4.68-2,7.26-4.86,7.56-9.17a4,4,0,0,1-1.14.11c-2.34,0-4.26-1.31-4.26-4.07a4,4,0,0,1,4.32-4.08c3.18,0,4.86,2.58,4.86,6.66,0,6.41-4,11.21-10.08,13.43Z"/><path d="M449.16,1989.94l-7.62,2.34v17.82c0,2.34-.6,3.42-2,4.08s-3.84.78-7.8.72a17,17,0,0,0-1.32-3.66c2.76.06,5.34.06,6.06,0s1.14-.24,1.14-1.14v-16.56l-8.4,2.58-1.26-3.95c2.64-.73,6-1.63,9.66-2.71v-13.07h-8.7v-3.84h8.7v-12.12h4v12.12h7v3.84h-7v11.87c2.34-.59,4.74-1.38,7.08-2.09Zm10.68-6.3c-5.52,0-7.26-1.73-7.26-6.72v-16.31h3.9v7.32h24.3v3.54h-24.3V1977c0,2.29.66,3.13,3.3,3.13h16.14a49.43,49.43,0,0,0,6.42-.37c.18,1.08.36,2.58.54,3.49a38.74,38.74,0,0,1-6.72.35Zm-7.26,5.34h28v25.74h-4v-2.52H456.36V2015h-3.78Zm3.78,3.48v6.36h20.22v-6.36Zm20.22,16.38v-6.72H456.36v6.72Z"/><path d="M504.24,1990.78a58,58,0,0,1-12.06,19.14,26,26,0,0,0-3.66-2.46,47,47,0,0,0,11.64-17.75Zm13.62-7.91v31.79h-4.14v-31.79H489.84v-4h52.5v4Zm19.2-14.22H495.18v-3.9h41.88Zm-5.16,20.93c4.5,5.58,9.24,13.14,11,18.24l-3.9,1.8c-1.74-5-6.3-12.78-10.8-18.48Z"/><path d="M554.64,1999.06a84.79,84.79,0,0,1-3.12,14.7,27.64,27.64,0,0,0-3.18-1.14,58.35,58.35,0,0,0,3-14.1Zm11.16-2.46c-.18-1.08-.42-2.28-.72-3.66-12.12,1.86-13.92,2.28-14.94,2.82-.24-.84-.9-2.76-1.32-3.78,1.2-.3,2.58-1.8,4.32-4a75.87,75.87,0,0,0,5.16-7.07c-6.42.77-7.74,1.08-8.58,1.5a30.29,30.29,0,0,0-1.26-3.72c1-.24,2-1.5,3.24-3.31a77.54,77.54,0,0,0,7.74-15.17l3.72,1.56A89,89,0,0,1,554,1978l6.66-.59c1.5-2.52,3.06-5.34,4.38-8l3.54,2a113.57,113.57,0,0,1-13.5,19.67l9.24-1.2c-.54-2.09-1.14-4.25-1.8-6.24l3.06-.72a73.33,73.33,0,0,1,3.48,12.72Zm-5.7,1.8a106.51,106.51,0,0,1,1.56,12.84l-3.18.6a104.68,104.68,0,0,0-1.44-12.9Zm5.34-1.38a72.51,72.51,0,0,1,3.06,9.84l-3,1a84.63,84.63,0,0,0-2.88-10Zm18.36-3.54c-2.28,9.06-7.56,15.42-13.68,18.72a10.48,10.48,0,0,0-2.34-2.82,24.24,24.24,0,0,0,11.52-13.26H571v-3.36h9.78l.6-.18Zm18.24-1.2a95.41,95.41,0,0,1-8.46,7.38,27.46,27.46,0,0,0,10,9.54,13.6,13.6,0,0,0-2.58,3.18c-5-3-9-8.16-11.88-14.34v12.42c0,2.16-.42,3.24-1.92,3.9s-4,.72-7.92.72a16.63,16.63,0,0,0-1.14-3.72c2.88.06,5.4.06,6.18,0s1-.18,1-.9v-22.92H573.24v-20.87h9.3a51.67,51.67,0,0,0,2-6.36l4.44,1c-.84,1.8-1.74,3.78-2.52,5.4h13.68v20.87h-11.1v2.1a39.64,39.64,0,0,0,3,7.38,76.28,76.28,0,0,0,7-7.08ZM577,1975.54h19.38v-5.63H577Zm0,8.83h19.38v-5.76H577Z"/><path d="M625,1961c-1,2.94-2.1,6.3-3.18,8.88H632v38.75h-16.8v4.8h-3.66v-43.55h6.66a64.68,64.68,0,0,0,2.58-9.72Zm3.3,12.47H615.18v13.08h13.14Zm0,31.56v-14.88H615.18v14.88Zm33.06-33.17c-1,27.53-1.8,36.71-4.2,39.59a5.6,5.6,0,0,1-4.56,2.28,74.94,74.94,0,0,1-8.82-.12,9.42,9.42,0,0,0-1.32-3.9c3.9.36,7.5.36,8.82.36s1.92-.12,2.52-.9c2-2.1,2.94-11.34,3.72-35.7H641.82a55.33,55.33,0,0,1-5.64,10.68,36.22,36.22,0,0,0-3.36-2.22c4.08-5.33,7.32-13.61,9.18-21.89l3.84.84c-.78,3-1.62,6-2.64,8.88h18.18Zm-12.78,27a106.51,106.51,0,0,0-9.3-13.92l3.06-1.79a102.47,102.47,0,0,1,9.6,13.61Z"/><path d="M719.82,1971.05v27.77h-4.08v-3.48H697.92v19.56h-4.14v-19.56H676v3.78h-4v-28.07h21.72v-10.74h4.14v10.74Zm-26,20.33V1975H676v16.43Zm22,0V1975H697.92v16.43Z"/><path d="M735.6,1983.22V2015h-3.9V1963h21.42v20.27Zm0-17.15v5.4h13.74v-5.4Zm13.74,14v-5.64H735.6v5.64Zm-.84,29.27v3.06h-3.66v-24.53H767v21.47Zm0-18.36v5.88h14.76V1991Zm14.76,15.18V2000H748.5v6.18Zm17.4,3.3c0,2.7-.66,4-2.52,4.74s-5,.72-10,.72a13.68,13.68,0,0,0-1.38-4.08c3.78.18,7.44.12,8.46.06s1.44-.36,1.44-1.44v-26.21h-18V1963h22Zm-18.12-43.43v5.4H776.7v-5.4Zm14.16,14.1v-5.7H762.54v5.7Z"/><path d="M801.18,1978.67a9.06,9.06,0,1,1-9.06,9A9.09,9.09,0,0,1,801.18,1978.67Zm0,15.23a6.18,6.18,0,1,0,0-12.36,6.18,6.18,0,1,0,0,12.36Z"/><path d="M417.9,2049.17c4.44,10.31,12.24,20,20.76,24.71a23.11,23.11,0,0,0-3.06,3.36c-9-5.58-16.92-16.32-21.6-28.07h-1v22.43h14.28v4H413V2087H408.9v-11.4H394.68v-4H408.9v-22.43h-1.08c-4.74,11.75-12.66,22.43-21.3,28.25a24.18,24.18,0,0,0-2.88-3.18c8-4.92,15.66-14.76,20.16-25.07H385.14v-4H408.9v-12.72H413v12.72h24v4Z"/><path d="M492.9,2071.54a33.64,33.64,0,0,1-8.22,7.38c2.4,2.82,5.22,4.44,8.16,4.38,1.68-.06,2.16-1.5,2.46-5.94a10.31,10.31,0,0,0,3.12,1.62c-.6,6.3-2.1,7.92-5.76,8-4.26,0-8.16-2.22-11.28-6a74.41,74.41,0,0,1-13.68,5.82,36.46,36.46,0,0,0-2.1-3.24,65.61,65.61,0,0,0,13.86-5.34,34.94,34.94,0,0,1-3.84-8.82H461.16v4.38l11.16-1-.06,2.88-11.1,1.08v6.12c0,2.1-.48,3.06-2.16,3.54s-4.38.54-8.94.54a19.42,19.42,0,0,0-1.26-3.18c3.36.12,6.48.06,7.38,0s1.2-.24,1.2-1v-5.7c-4.74.48-9.12.9-12.72,1.2l-.42-3.3c3.54-.24,8.1-.54,13.14-1v-4.68h-12.9v-3.18h12.9v-4.44c-3.78.42-7.68.72-11.28.91a12,12,0,0,0-.9-2.71c8.16-.48,18.18-1.55,23.52-2.94l2.52,2.58c-2.82.66-6.36,1.26-10.08,1.74v4.86h13.68a52.67,52.67,0,0,1-1.2-8.94h3.84a57.48,57.48,0,0,0,1.2,8.94h19v3.18H479.58a31.91,31.91,0,0,0,3.12,6.9,27.09,27.09,0,0,0,6.72-5.94Zm4.62-15.17h-53v-3.24H468.9V2049H450.3v-3.06h18.6v-4H447.06v-3.18h12.66a30,30,0,0,0-3.48-5.16l3.42-1.26a24.4,24.4,0,0,1,4.32,6.24l-.42.18H478.2a54.7,54.7,0,0,0,3.6-6.6l4.14,1.2c-1.2,1.86-2.52,3.84-3.72,5.4h12.84V2042H472.92v4h18.9V2049h-18.9v4.14h24.6Zm-5.7,9a34,34,0,0,0-9.48-5.52l2.16-2.46a38.32,38.32,0,0,1,9.66,5.22Z"/><path d="M533.46,2081.62a70.7,70.7,0,0,0,7.38.36c2.1.06,14.76,0,17.58-.06a16.36,16.36,0,0,0-1.44,3.84H540.72c-12.3,0-19.92-1.92-24.72-10.38a31.55,31.55,0,0,1-9.48,11.7,19.84,19.84,0,0,0-3.06-2.82c6.3-4.14,10.2-10.92,11.82-19.86l4,.6a55.92,55.92,0,0,1-1.5,6.06c2.34,5.64,6.3,8.52,11.7,9.84v-18.54H504.72v-3.6H557.4v3.6H533.46v7.08h20v3.6h-20Zm17.22-27.17h-39.6v-19.56h39.6Zm-4-16.44H515v5.16h31.68Zm0,8.1H515v5.27h31.68Z"/><path d="M614.82,2043.05v27.77h-4.08v-3.48H592.92v19.56h-4.14v-19.56H571v3.78h-4v-28.07h21.72v-10.74h4.14v10.74Zm-26,20.33V2047H571v16.43Zm22,0V2047H592.92v16.43Z"/><path d="M677.52,2060.5v3.9h-25.2c-2.52,9.06-9.18,17.28-25.68,22.74a20,20,0,0,0-2.22-3.48c14.7-4.74,21-11.7,23.64-19.26H624.72v-3.9h6.72v-19.73H649.8v-8.46h4v8.46h18v19.73Zm-28.5,0a47,47,0,0,0,.78-9.17v-6.72H635.4v15.89Zm4.8-9.17a52.07,52.07,0,0,1-.66,9.17h14.52v-15.89H653.82Zm2.22,15.59c7,5,16.38,12.24,20.94,16.62l-2.76,3.24c-4.5-4.5-13.68-11.94-20.82-17.16Z"/><path d="M704.52,2065.06l-3.66,3.12a93.63,93.63,0,0,0-13.32-13.38l3.42-3.11A118.53,118.53,0,0,1,704.52,2065.06Z"/><path d="M764.82,2043.05v27.77h-4.08v-3.48H742.92v19.56h-4.14v-19.56H721v3.78h-4v-28.07h21.72v-10.74h4.14v10.74Zm-26,20.33V2047H721v16.43Zm22,0V2047H742.92v16.43Z"/><path d="M780.6,2055.22V2087h-3.9V2035h21.42v20.27Zm0-17.15v5.4h13.74v-5.4Zm13.74,14v-5.64H780.6v5.64Zm-.84,29.27v3.06h-3.66v-24.53H812v21.47Zm0-18.36v5.88h14.76V2063Zm14.76,15.18V2072H793.5v6.18Zm17.4,3.3c0,2.7-.66,4-2.52,4.74s-5,.72-10,.72a13.68,13.68,0,0,0-1.38-4.08c3.78.18,7.44.12,8.46.06s1.44-.36,1.44-1.44v-26.21h-18V2035h22Zm-18.12-43.43v5.4H821.7v-5.4Zm14.16,14.1v-5.7H807.54v5.7Z"/><path d="M846.18,2050.67a9.06,9.06,0,1,1-9.06,9A9.09,9.09,0,0,1,846.18,2050.67Zm0,15.23a6.18,6.18,0,1,0,0-12.36,6.18,6.18,0,1,0,0,12.36Z"/><rect class="cls-2" x="1113" y="1251" width="65" height="270" rx="12"/><path class="cls-1" d="M1157.05,1289.79a27.61,27.61,0,0,0,11.5,8.1,11.65,11.65,0,0,0-2.15,2.55,30.77,30.77,0,0,1-12.8-10.65h-15.95a34.39,34.39,0,0,1-13,11.3,11.43,11.43,0,0,0-2.15-2.55,30.39,30.39,0,0,0,11.6-8.75H1123v-2.85h10v-16.15h-7.7V1268h7.7v-5h3.3v5h18.55v-5h3.35v5h7.65v2.8h-7.65v16.15h9.8v2.85Zm-10,14.5h17.3v2.85H1126.8v-2.85h16.9v-5.6h-10.45v-2.8h10.45v-4.4h3.35v4.4h10.65v2.8h-10.65Zm-10.8-33.5v3.6h18.55v-3.6Zm0,9.8h18.55v-3.65h-18.55Zm0,6.35h18.55v-3.8h-18.55Z"/><path class="cls-1" d="M1141.25,1331.54s0,1.15,0,1.55c-.6,15.85-1.2,21.2-2.6,23a3.71,3.71,0,0,1-2.8,1.45,32.65,32.65,0,0,1-4.45,0,9.25,9.25,0,0,0-.85-3c1.75.15,3.2.15,3.9.15a1.42,1.42,0,0,0,1.45-.65c1-1.2,1.6-6,2.15-19.35h-6.8c-.55,10-2,18.25-6.45,23.65a9.53,9.53,0,0,0-2.55-2.35c5.45-6.45,5.9-17.85,6.1-31.55h-5.2v-3.1h20.1v3.1h-11.65c0,2.45-.1,4.85-.2,7.15Zm-7.9-10.45a33.47,33.47,0,0,0-4.25-7.15l2.9-1.15a31.92,31.92,0,0,1,4.4,7Zm23.85-7.45a15.26,15.26,0,0,1-.85,2.55c2.65,5.45,7.7,11.35,12.45,14a13,13,0,0,0-2.45,2.75c-4.25-2.7-8.5-8-11.4-13.3a32.61,32.61,0,0,1-11,13.6,12.79,12.79,0,0,0-2.35-2.65c5.85-3.6,10.35-10.2,12.5-17.85Zm-8.3,32.45a74,74,0,0,1,13.6,8.25l-2.25,2.9c-2.85-2.6-8.75-6.3-13.4-8.65Zm9.5-4.85a66.22,66.22,0,0,0-8.6-6.85l2.15-2.2a67.46,67.46,0,0,1,8.75,6.55Z"/><path class="cls-1" d="M1164,1366.19v29.3h-3.5v-2.55h-13.3v15.6h-3.45v-15.6h-13.4v2.75H1127v-29.5Zm-33.65,3.2V1378h13.4v-8.65Zm13.4,20.35v-8.5h-13.4v8.5Zm16.75-20.35h-13.3V1378h13.3Zm0,20.35v-8.5h-13.3v8.5Z"/><path class="cls-1" d="M1166.25,1428.09v9.3h-3.15V1431h-35.4v6.4h-3v-9.3h6.95v-12.95h27.7v12.95Zm-6.45,26.6c0,1.85-.45,2.7-1.85,3.2s-3.9.5-7.7.45a8.57,8.57,0,0,0-1.1-2.75c3,.05,5.65.05,6.4.05s1-.25,1-1v-6.2c-7.3,1.45-14.85,3-20.45,4l-1.1-3c5.4-.8,13.6-2.3,21.55-3.75V1437h-22.2v5.3c0,4.85-.65,11.55-4.35,16.2a13.29,13.29,0,0,0-2.7-2c3.45-4.25,3.85-10,3.85-14.25v-8h28.6Zm-25-26.6h7.45v-6.9H1156v-3.35h-21.2Zm2.45,11.7a75.14,75.14,0,0,1,17.7,3l-.9,2.6c-4-1.5-11.7-2.9-17.7-3.35Zm18.75-16.3h-10.75v4.6H1156Z"/><path class="cls-1" d="M1160,1475.09a51.83,51.83,0,0,1-12,19.6,49.94,49.94,0,0,0,20.5,10.5,16.79,16.79,0,0,0-2.25,3,50.92,50.92,0,0,1-20.75-11.1c-5.65,5-12.55,8.6-21,11.3a15.53,15.53,0,0,0-2-3.05c8.35-2.45,15.1-5.9,20.6-10.6a57.05,57.05,0,0,1-12.2-19.65h-7.75v-3.25h44.75v3.25Zm-25.75,0a52.13,52.13,0,0,0,11.3,17.3,47.46,47.46,0,0,0,10.7-17.3Zm11.25-3.55a38.13,38.13,0,0,0-3.8-7.8l3.4-1a39,39,0,0,1,4,7.65Z"/><rect class="cls-2" x="1113" y="417" width="65" height="126" rx="12"/><path class="cls-1" d="M1132.7,446.82c1.25,1.6,4.9,6.7,5.7,8.05l-2,2.45c-.7-1.5-2.35-4.4-3.75-6.65V477h-3.15V452.57c-1.5,5.05-3.5,9.9-5.55,12.85a14.83,14.83,0,0,0-1.75-3.1c2.9-4,5.8-11.5,7.2-18h-6.2v-3.15h6.3v-9.65h3.15v9.65h5.45v3.15h-5.45Zm19.1.7a19.47,19.47,0,0,0,.45,2.65c-10.15,2.7-11.6,3.15-12.5,3.75a12.13,12.13,0,0,0-1.1-3.2c.7-.2,1.55-.5,1.55-2.2v-16.7h3.25v6.5h8.35v2.9h-8.35v8.3Zm2.35,5.5-2,3.75h12.65V477h-3.4v-1.75h-17v2h-3.3V456.77h7.9c.55-1.5,1.2-3.25,1.55-4.6Zm7.3,6.5h-17v5.05h17Zm0,13v-5.3h-17v5.3Zm2.25-22.4c1.25,0,1.5-.75,1.65-5.25a9.16,9.16,0,0,0,2.85,1.25c-.3,5.45-1.2,6.95-4.15,6.95h-5.85c-3.65,0-4.55-.95-4.55-4.45V431.87h3.25v6.5h10.2v2.9h-10.2v7.35c0,1.3.25,1.5,1.65,1.5Z"/><path class="cls-1" d="M1167.55,506.87v2.5H1123.4v-2.5h20.25v-3.2H1126.8v-2.3h16.85v-3H1128.2v-2.25h15.45v-3.2H1123.5v-2.5h20.15v-3.05H1128.8V485h14.85v-3.55h3.25V485h14.45v5.4h6.15v2.5h-6.15v5.45H1146.9v3h17.3v2.3h-17.3v3.2Zm-37.75,5h31.75v15.25h-3.25v-1.6H1133v1.7h-3.2Zm3.2,2.4v3.2h25.3v-3.2Zm25.3,8.85v-3.4H1133v3.4Zm-11.4-32.7h11.15v-3.05H1146.9Zm0,5.7h11.15v-3.2H1146.9Z"/><line class="cls-3" x1="601.5" y1="792.5" x2="601.5" y2="783.5"/><ellipse class="cls-4" cx="621" cy="1396.5" rx="242.5" ry="135.5"/><line class="cls-5" x1="623" y1="1059" x2="623" y2="1729"/></svg>