<svg id="Layer_1" data-name="Layer 1" xmlns="http://www.w3.org/2000/svg" viewBox="0 0 1242 2208"><defs><style>.cls-1{fill:#f6eabe;}.cls-2{fill:#999;}.cls-3{fill:none;stroke:#000;stroke-linecap:round;stroke-miterlimit:10;stroke-width:50px;}</style></defs><rect class="cls-1" width="1242" height="2208"/><path d="M906.84,325.21c-97.66,144.51-275.52,311.25-439.08,410.5,7.94,5.55,16.67,11.11,25.41,17.46,50,31.76,114.33,37.32,203.26,37.32,94.48,0,211.2-6.35,287.42-13.5-5.55,13.5-14.29,41.29-15.08,56.38-59.55,4-198.5,8.73-273.93,8.73-96.07,0-161.18-8.73-213.58-42.87-31.76-19.85-56.38-46.06-73.84-46.06-25.41,0-62.73,45.26-101.63,97.66l-39.7-47.63C318.49,746.82,368.51,704,408.21,704a61.58,61.58,0,0,1,11.91,1.58c145.3-84.16,307.28-230.25,397-352.53H307.37V301.39H856l11.12-3.17Zm-266-28.58c-16.67-34.14-52.4-92.1-83.37-132.6l46-23.82c31.76,41.29,69.08,96.87,85,129.42Z"/><rect class="cls-2" x="1113" y="450" width="65" height="126" rx="12"/><path class="cls-1" d="M1132.7,479.82c1.25,1.6,4.9,6.7,5.7,8.05l-2,2.45c-.7-1.5-2.35-4.4-3.75-6.65V510h-3.15V485.57c-1.5,5.05-3.5,9.9-5.55,12.85a14.83,14.83,0,0,0-1.75-3.1c2.9-4,5.8-11.5,7.2-18h-6.2v-3.15h6.3v-9.65h3.15v9.65h5.45v3.15h-5.45Zm19.1.7a19.47,19.47,0,0,0,.45,2.65c-10.15,2.7-11.6,3.15-12.5,3.75a12.13,12.13,0,0,0-1.1-3.2c.7-.2,1.55-.5,1.55-2.2v-16.7h3.25v6.5h8.35v2.9h-8.35v8.3Zm2.35,5.5-2,3.75h12.65V510h-3.4v-1.75h-17v2h-3.3V489.77h7.9c.55-1.5,1.2-3.25,1.55-4.6Zm7.3,6.5h-17v5.05h17Zm0,13v-5.3h-17v5.3Zm2.25-22.4c1.25,0,1.5-.75,1.65-5.25a9.16,9.16,0,0,0,2.85,1.25c-.3,5.45-1.2,6.95-4.15,6.95h-5.85c-3.65,0-4.55-.95-4.55-4.45V464.87h3.25v6.5h10.2v2.9h-10.2v7.35c0,1.3.25,1.5,1.65,1.5Z"/><path class="cls-1" d="M1167.55,539.87v2.5H1123.4v-2.5h20.25v-3.2H1126.8v-2.3h16.85v-3H1128.2v-2.25h15.45v-3.2H1123.5v-2.5h20.15v-3H1128.8V518h14.85v-3.55h3.25V518h14.45v5.4h6.15v2.5h-6.15v5.45H1146.9v3h17.3v2.3h-17.3v3.2Zm-37.75,5h31.75v15.25h-3.25v-1.6H1133v1.7h-3.2Zm3.2,2.4v3.2h25.3v-3.2Zm25.3,8.85v-3.4H1133v3.4Zm-11.4-32.7h11.15v-3H1146.9Zm0,5.7h11.15v-3.2H1146.9Z"/><path d="M274,1774.49H259.22v35.15h-4v-38.87H274Z"/><path d="M331.7,1819.12v3.9H278.18v-3.9h8.4v-34.5h4.08v34.5h14.52v-47.57h4.14v20h19.8v4h-19.8v23.58Z"/><path d="M336,1822.84h14.82v-35.15h4v38.87H336Z"/><path d="M391.16,1770.17l3.24,1.74c-7.08,7.26-11.28,16.2-11.28,26.76s4.2,19.49,11.28,26.75l-3.24,1.74c-7.32-7.5-11.94-17-11.94-28.49S383.84,1777.67,391.16,1770.17Z"/><path d="M414.92,1772.69a98.85,98.85,0,0,1-6.18,13.56v39.59H404.9v-33.35a61.73,61.73,0,0,1-5.46,7,32.86,32.86,0,0,0-2.28-3.9c5.58-5.87,10.8-14.87,14-24Zm34.14,28c-2.1,1.26-4.44,2.64-6.84,3.78,2,6.06,5.82,11.82,10.38,14.52a11.2,11.2,0,0,0-2.64,2.94c-4.62-3.18-8.46-9.42-10.68-16a27.45,27.45,0,0,1-2.76,1.2c2.58,6.84,1.86,14-1,16.68a6.91,6.91,0,0,1-5.22,1.92c-1.08,0-2.4-.06-3.78-.18a9.31,9.31,0,0,0-1-3.42,38.26,38.26,0,0,0,4.14.24,3.66,3.66,0,0,0,3.12-1.14c1.56-1.38,2.22-5.16,1.44-9.36-5.16,4.92-13.08,9.36-19.8,11.7a15.8,15.8,0,0,0-2.34-2.82c7.62-2.28,16.62-7.14,21.3-12.24a35.76,35.76,0,0,0-1.5-3.48,63.52,63.52,0,0,1-17.22,9.9,16.14,16.14,0,0,0-2.22-2.64c5.94-1.8,13.74-5.76,17.88-9.54a16.39,16.39,0,0,0-2.94-3.18,58.44,58.44,0,0,1-13.56,7.26,11.26,11.26,0,0,0-2.22-2.58,52.48,52.48,0,0,0,15.06-7.56H416.48v-9.35c-1.14,1-2.28,2-3.54,2.94a9.54,9.54,0,0,0-2.52-2.59,44.59,44.59,0,0,0,13.86-16.25l3.84.72c-.6,1.2-1.32,2.34-2,3.54h11.1l.72-.18,2.34,1.68a52.13,52.13,0,0,1-4.8,6.84h13.08v12.65H430.94a15.29,15.29,0,0,1-1.2,1,21,21,0,0,1,5.64,6.84,111.93,111.93,0,0,0,10.92-6.42ZM424,1778.81a54.58,54.58,0,0,1-4.2,5.16h11.58a37.88,37.88,0,0,0,3.72-5.16Zm-3.9,14.69h10.5v-6.42h-10.5Zm24.72-6.42H434.18v6.42H444.8Z"/><path d="M512.36,1795.91v4.31H457.88v-4.31Z"/><path d="M525.8,1786.31a51.81,51.81,0,0,1-5.76,6.06,19,19,0,0,0-3.06-2.64,50.31,50.31,0,0,0,13.8-18.54l3.72,1.14a54,54,0,0,1-3.18,6.12H546a49.89,49.89,0,0,0-3.12-5.88l3.66-1.08a49.49,49.49,0,0,1,3.72,7H567.5v3.18H548.18v4.2H565.4v2.88H548.18V1793H565.4v2.88H548.18v4.33h20.28v3.11H529.52v1.86H525.8Zm38.28,22.13c-3.12,4.32-7.86,7.68-13.44,10.26a103.56,103.56,0,0,0,20.7,3.42,15.5,15.5,0,0,0-2.22,3.48,96.13,96.13,0,0,1-23.46-4.86c-8,2.88-17.22,4.38-26,5.22a14.88,14.88,0,0,0-1.5-3.48,107.35,107.35,0,0,0,22.62-3.78,35.1,35.1,0,0,1-11.76-8.28l.12-.06h-8.64v-3.3H561l.66-.24Zm-19.8-26.81H529.52v4.2h14.76Zm0,7.08H529.52V1793h14.76Zm0,7.13H529.52v4.33h14.76Zm-10.5,14.52a37.11,37.11,0,0,0,11.94,6.78,37,37,0,0,0,11.88-6.78Z"/><path d="M629.12,1820.44c0,2.76-.66,4.14-2.64,4.86s-5.76.66-11.22.66a15.26,15.26,0,0,0-1.5-4.08c4.5.18,8.64.12,9.9.06s1.5-.36,1.5-1.5v-34.86h-40V1826h-4v-44.27h16.5a99,99,0,0,0,3.9-10.5l4.86.84c-1.38,3.18-2.94,6.78-4.44,9.66h27.12Zm-32.1-7v4.32h-3.66v-23.93H616.7v19.61Zm0-16v12.42h16v-12.42Z"/><path d="M663.5,1780.37l2.7.9c-3.18,23.45-12.6,37.43-25.2,44.51a12.79,12.79,0,0,0-3.24-3.24A41.15,41.15,0,0,0,655,1805a88.06,88.06,0,0,0-10.08-10.31,41.87,41.87,0,0,1-3.9,5.75,25,25,0,0,0-3.3-2.58c5.52-6.23,9.36-16.07,11.58-26.57l3.9.72c-.6,2.94-1.38,5.76-2.22,8.52h11.7Zm-13.8,4c-1,2.52-2,5-3.06,7.25a112.25,112.25,0,0,1,10.2,9.54,71.35,71.35,0,0,0,4.68-16.79Zm27.72,5.09c5.28,4,11.88,9.72,15.12,13.5l-3.18,2.76A112,112,0,0,0,675.92,1793V1826h-4.08v-54.59h4.08v19.25Z"/><path d="M714,1772c-1,2.94-2.1,6.3-3.18,8.88H721v38.75h-16.8v4.8h-3.66v-43.55h6.66a64.68,64.68,0,0,0,2.58-9.72Zm3.3,12.47H704.18v13.08h13.14Zm0,31.56v-14.88H704.18v14.88Zm33.06-33.17c-1,27.53-1.8,36.71-4.2,39.59a5.6,5.6,0,0,1-4.56,2.28,74.94,74.94,0,0,1-8.82-.12,9.42,9.42,0,0,0-1.32-3.9c3.9.36,7.5.36,8.82.36s1.92-.12,2.52-.9c2-2.1,2.94-11.34,3.72-35.7H730.82a55.33,55.33,0,0,1-5.64,10.68,36.22,36.22,0,0,0-3.36-2.22c4.08-5.34,7.32-13.61,9.18-21.89l3.84.84c-.78,3-1.62,6-2.64,8.88h18.18Zm-12.78,27a106.51,106.51,0,0,0-9.3-13.92l3.06-1.79a102.47,102.47,0,0,1,9.6,13.61Z"/><path d="M773.3,1821.46c0,2-.42,3.12-1.62,3.72s-3.24.72-6.42.72a14.26,14.26,0,0,0-1.14-3.54c2.34.06,4.26.06,4.92,0s.9-.18.9-1v-17.22c-1.56,1.32-3.06,2.64-4.62,3.9l-1.62-3c-.42,7.26-1.38,14.94-3.6,20.88a15.61,15.61,0,0,0-2.94-1.68c3.24-8.52,3.48-20.58,3.48-29.28v-21.47H773.3ZM763.94,1795c0,2.94-.06,6.3-.24,9.84,1.74-1.08,3.9-2.7,6.24-4.38v-8.09l-1.62,1.31a38.55,38.55,0,0,0-4.38-5.76Zm0-17.75v9.9l1.86-1.26a42.57,42.57,0,0,1,4.14,4.73v-13.37Zm24.06,7.14c-.24.84-.54,1.61-.78,2.46,3.72,4.73,8.1,10.86,10,14.63l-2.7,2.16a93.59,93.59,0,0,0-8.76-13.49,39.5,39.5,0,0,1-9.12,13.43,13.73,13.73,0,0,0-2.64-2.52c4.68-3.89,8.64-10.56,10.62-17.57Zm-3.66-10.92a43.07,43.07,0,0,1-7.08,14.4,16.68,16.68,0,0,0-2.76-2.1c2.88-3.24,5.16-8.16,6.48-13Zm-6.12,29.15h15.24V1825h-3.3v-3.48H781.4v3.72h-3.18Zm3.18,3.6V1818h8.76v-11.76Zm12-19a61.47,61.47,0,0,0-6.24-13.5l2.94-1c2.64,4.2,5.46,9.78,6.42,13.2ZM810.14,1812c0,1.8-.3,2.82-1.5,3.42s-2.94.66-5.46.66a11.14,11.14,0,0,0-1.14-3.36c1.92.06,3.6.06,4.08,0s.72-.18.72-.78v-33.59H800.9V1826h-3.18v-51.17h12.42Z"/><path d="M818.84,1827.16l-3.24-1.74c7.08-7.26,11.28-16.2,11.28-26.75s-4.2-19.5-11.28-26.76l3.24-1.74c7.32,7.5,11.94,17,11.94,28.5S826.16,1819.66,818.84,1827.16Z"/><path d="M868.16,1784.62a67.64,67.64,0,0,1-7.2,12.25v28.85h-4v-24a41.57,41.57,0,0,1-7.26,6.41,17,17,0,0,0-2-3.48c7-5,12.3-12.23,16.14-20H849v-3.83h16.44a65.25,65.25,0,0,0,3.3-9.42l4.08,1c-.9,2.82-1.86,5.64-3,8.4H901.1v3.83Zm32.94,36.24v3.72H865v-3.72h16v-17.52H867.32v-3.72H881v-11.81h4v11.81h13.8v3.72H885v17.52Z"/><path d="M961.76,1819.18v4H908.3v-4h22.62v-46.85h4.14v18.54h22.62v4H935.06v24.3Z"/><path d="M973.88,1807c4.68-2,7.26-4.86,7.56-9.17a4,4,0,0,1-1.14.11c-2.34,0-4.26-1.32-4.26-4.07a4,4,0,0,1,4.32-4.08c3.18,0,4.86,2.58,4.86,6.66,0,6.41-4,11.21-10.08,13.43Z"/><path d="M394,1846.49H379.22v35.15h-4v-38.87H394Z"/><path d="M452.36,1867.91v4.31H397.88v-4.31Z"/><path d="M456,1894.84h14.82v-35.15h4v38.87H456Z"/><path d="M511.16,1842.17l3.24,1.74c-7.08,7.26-11.28,16.2-11.28,26.76s4.2,19.49,11.28,26.75l-3.24,1.74c-7.32-7.5-11.94-17-11.94-28.49S503.84,1849.67,511.16,1842.17Z"/><path d="M534.92,1844.69a98.85,98.85,0,0,1-6.18,13.56v39.59H524.9v-33.35a61.73,61.73,0,0,1-5.46,7,32.86,32.86,0,0,0-2.28-3.9c5.58-5.87,10.8-14.87,14-24Zm34.14,28c-2.1,1.26-4.44,2.64-6.84,3.78,2,6.06,5.82,11.82,10.38,14.52a11.2,11.2,0,0,0-2.64,2.94c-4.62-3.18-8.46-9.42-10.68-16a27.45,27.45,0,0,1-2.76,1.2c2.58,6.84,1.86,14-1,16.68a6.91,6.91,0,0,1-5.22,1.92c-1.08,0-2.4-.06-3.78-.18a9.31,9.31,0,0,0-1-3.42,38.26,38.26,0,0,0,4.14.24,3.66,3.66,0,0,0,3.12-1.14c1.56-1.38,2.22-5.16,1.44-9.36-5.16,4.92-13.08,9.36-19.8,11.7a15.8,15.8,0,0,0-2.34-2.82c7.62-2.28,16.62-7.14,21.3-12.24a35.76,35.76,0,0,0-1.5-3.48,63.52,63.52,0,0,1-17.22,9.9,16.14,16.14,0,0,0-2.22-2.64c5.94-1.8,13.74-5.76,17.88-9.54a16.39,16.39,0,0,0-2.94-3.18,58.44,58.44,0,0,1-13.56,7.26,11.26,11.26,0,0,0-2.22-2.58,52.48,52.48,0,0,0,15.06-7.56H536.48v-9.35c-1.14,1-2.28,2-3.54,2.94a9.54,9.54,0,0,0-2.52-2.59,44.59,44.59,0,0,0,13.86-16.25l3.84.72c-.6,1.2-1.32,2.34-2,3.54h11.1l.72-.18,2.34,1.68a52.13,52.13,0,0,1-4.8,6.84h13.08v12.65H550.94a15.29,15.29,0,0,1-1.2,1,21,21,0,0,1,5.64,6.84,111.93,111.93,0,0,0,10.92-6.42ZM544,1850.81a54.58,54.58,0,0,1-4.2,5.16h11.58a37.88,37.88,0,0,0,3.72-5.16Zm-3.9,14.69h10.5v-6.42h-10.5Zm24.72-6.42H554.18v6.42H564.8Z"/><path d="M596.3,1876.18l.78,3.54c-6.3,2.88-13,5.94-18.24,8.16l-1.5-4c2.28-.9,5.22-2,8.4-3.36v-19h-7.38v-3.77h7.38V1844h3.72v13.74h6.6v3.77h-6.6v17.52Zm28.08,16.8c3.54,0,4.14-1.62,4.56-8.7a9.15,9.15,0,0,0,3.6,1.56c-.66,8.16-1.92,10.74-8,10.74H609.38c-6.66,0-8.52-1.5-8.52-7.68v-19.49l-5,2.15-1.56-3.48,6.6-2.75v-16.5h3.78v14.88l8.64-3.67v-16.73h3.78v15.18l9.6-4.08,3.06,1-.24.72c-.6,8.46-1.74,19.49-3.24,26.27l-3.24-1a207.74,207.74,0,0,0,2.4-22.43l-8.34,3.54v22.19h-3.78v-20.64l-8.64,3.67V1889c0,3.24.78,4,4.8,4Z"/><path d="M666.62,1851.23c-.72,2.64-1.62,5.52-2.46,7.92h24.3V1898h-4v-3.18H645.38V1898h-3.9v-38.87h18.6a80.35,80.35,0,0,0,1.92-7.92H638.78v-3.78H691.4v3.78Zm-21.24,39.89h9v-28.25h-9Zm26-28.25H658v7h13.32Zm0,10.31H658v7.2h13.32ZM658,1891.12h13.32v-7.44H658Zm26.4-28.25H675v28.25h9.42Z"/><path d="M698.84,1899.16l-3.24-1.74c7.08-7.26,11.28-16.2,11.28-26.75s-4.2-19.5-11.28-26.76l3.24-1.74c7.32,7.5,11.94,17,11.94,28.5S706.16,1891.66,698.84,1899.16Z"/><path d="M748.16,1856.62a67.64,67.64,0,0,1-7.2,12.25v28.85h-4v-24a41.57,41.57,0,0,1-7.26,6.41,17,17,0,0,0-2-3.48c7-5,12.3-12.23,16.14-20H729v-3.83h16.44a65.25,65.25,0,0,0,3.3-9.42l4.08,1c-.9,2.82-1.86,5.64-3,8.4H781.1v3.83Zm32.94,36.24v3.72H745v-3.72h16v-17.52H747.32v-3.72H761v-11.81h4v11.81h13.8v3.72H765v17.52Z"/><path d="M816,1851.71v10.86l.66-.78c7.32,3.54,16.74,8.93,21.54,12.53l-2.76,3.6c-4.2-3.42-12.48-8.46-19.44-12.12v32.1h-4.2v-46.19H788.54v-4h53v4Z"/><path d="M860.18,1861.67a9.06,9.06,0,1,1-9.06,9A9.09,9.09,0,0,1,860.18,1861.67Zm0,15.23a6.18,6.18,0,1,0,0-12.36,6.18,6.18,0,1,0,0,12.36Z"/><path d="M249.92,1916.69a98.85,98.85,0,0,1-6.18,13.56v39.59H239.9v-33.35a61.73,61.73,0,0,1-5.46,7,32.86,32.86,0,0,0-2.28-3.9c5.58-5.87,10.8-14.87,14-24Zm34.14,28c-2.1,1.26-4.44,2.64-6.84,3.78,2,6.06,5.82,11.82,10.38,14.52a11.2,11.2,0,0,0-2.64,2.94c-4.62-3.18-8.46-9.42-10.68-16a27.45,27.45,0,0,1-2.76,1.2c2.58,6.84,1.86,14-1,16.68a6.91,6.91,0,0,1-5.22,1.92c-1.08,0-2.4-.06-3.78-.18a9.31,9.31,0,0,0-1-3.42,38.26,38.26,0,0,0,4.14.24,3.66,3.66,0,0,0,3.12-1.14c1.56-1.38,2.22-5.16,1.44-9.36-5.16,4.92-13.08,9.36-19.8,11.7a15.8,15.8,0,0,0-2.34-2.82c7.62-2.28,16.62-7.14,21.3-12.24a35.76,35.76,0,0,0-1.5-3.48,63.52,63.52,0,0,1-17.22,9.9,16.14,16.14,0,0,0-2.22-2.64c5.94-1.8,13.74-5.76,17.88-9.54a16.39,16.39,0,0,0-2.94-3.18,58.44,58.44,0,0,1-13.56,7.26,11.26,11.26,0,0,0-2.22-2.58,52.48,52.48,0,0,0,15.06-7.56H251.48v-9.35c-1.14,1-2.28,2-3.54,2.94a9.54,9.54,0,0,0-2.52-2.59,44.59,44.59,0,0,0,13.86-16.25l3.84.72c-.6,1.2-1.32,2.34-2,3.54h11.1l.72-.18,2.34,1.68a52.13,52.13,0,0,1-4.8,6.84h13.08v12.65H265.94a15.29,15.29,0,0,1-1.2,1,21,21,0,0,1,5.64,6.84,111.93,111.93,0,0,0,10.92-6.42ZM259,1922.81a54.58,54.58,0,0,1-4.2,5.16h11.58a37.88,37.88,0,0,0,3.72-5.16Zm-3.9,14.69h10.5v-6.42h-10.5Zm24.72-6.42H269.18v6.42H279.8Z"/><path d="M347.36,1939.91v4.31H292.88v-4.31Z"/><path d="M368.3,1916.63a99.16,99.16,0,0,1-4.86,11.64V1970H359.6v-34.73a68.26,68.26,0,0,1-6.12,8.46,21.26,21.26,0,0,0-2.22-4c5.46-5.88,10.32-14.94,13.32-24.12Zm37,2.46v50.33h-3.78v-3.06H374.3v3.54h-3.72v-50.81Zm-3.78,43.73v-40.25H374.3v40.25Zm-11.82-28.13v6.83h7.08v16H379.58v-16h6.78v-6.83h-9.42v-3.19h9.42v-6.83h3.3v6.83h9.66v3.19Zm3.9,9.89H382.7v9.9h10.86Z"/><path d="M442.28,1915.55c-.06,2.1-.12,5.1-.42,8.64.9,7,4.56,32.51,25.74,42a12.63,12.63,0,0,0-2.88,3.36c-15.42-7.26-21.72-22.74-24.6-34-2.64,12.23-8.94,26.33-24.06,34.19a13.77,13.77,0,0,0-3.12-3.06c25-12.48,24.78-42.11,25-51.11Z"/><path d="M527.36,1966.84H507.08v3.06h-3.6v-34a36.89,36.89,0,0,1-2,3.49,25.84,25.84,0,0,0-2.52-2.11v5H489l-1.08,4.26h12.6v19.38c0,1.86-.36,2.7-1.68,3.3s-3.6.54-7.2.54a12.23,12.23,0,0,0-1-3.06c2.64.12,5,.12,5.64.06s.9-.24.9-.84V1949.8h-10c-.78,3.12-1.56,6.18-2.28,8.64l6.78-1.14c-.72-1.56-1.5-3.18-2.28-4.56l2.52-.84a99,99,0,0,1,4.8,10.26l-2.58,1c-.36-.9-.78-2-1.32-3.3-4.26.78-8.64,1.62-12.18,2.34l-1-2.94,1.86-.3c.78-2.58,1.62-5.88,2.46-9.18h-5.64V1970h-3.36V1949.8H473.3v-3.24h1.62v-2.1h3.36v2.1h6.48c.36-1.5.66-2.88,1-4.26H476.3v-16.19h3.18v13.19h16.2v-13.19h3.24v10.14c3.54-5.34,6.48-13.2,8.34-20.88l3.6.84a107.61,107.61,0,0,1-3.3,10.56H527v3.65h-8.76v8.46h7.92v3.49h-7.92v8.57h8v3.48h-8v8.76h9.12ZM501.2,1924H473.54v-3.3H486c-.54-1.5-1.2-3.3-1.8-4.68l3.36-.78c.78,1.68,1.68,3.84,2.28,5.46H501.2Zm-8.28,13.38a52.11,52.11,0,0,0-4.44-4,47.87,47.87,0,0,1-5.28,4.49c-.48-.42-1.62-1.31-2.22-1.73a60.08,60.08,0,0,0,5.46-4.5c-1.62-1.26-3.24-2.53-4.8-3.6l1.86-1.68c1.5,1.08,3.18,2.28,4.74,3.6a42.6,42.6,0,0,0,3.6-3.9l2.58,1a58.21,58.21,0,0,1-4.08,4.5c1.74,1.5,3.36,2.88,4.44,3.89Zm21.66-6.91h-7.5v8.46h7.5Zm0,11.95h-7.5v8.57h7.5Zm-7.5,20.81h7.5v-8.76h-7.5Zm9.24-37a60.84,60.84,0,0,0-4.14-8.88l3.42-1.26a61.35,61.35,0,0,1,4.32,8.7Z"/><path d="M539.48,1937.8V1970h-3.9V1918h21.54v19.85Zm0-16.73v5.16h13.86v-5.16Zm13.86,13.62v-5.52H539.48v5.52Zm14.4,20.57v13.56H564.2v-13.56h-8.94c-.42,4-2.22,10.44-8.22,14.34a14.83,14.83,0,0,0-2.64-2.4,15.38,15.38,0,0,0,7.32-11.94h-7.8v-3.36h7.86v-6.84h-6.66v-3.35h29.7v3.35h-7.08v6.84h8.4v3.36Zm-3.54-3.36v-6.84h-8.88v6.84Zm20.52,12.72c0,2.52-.6,3.84-2.28,4.56s-4.68.72-9.24.72a13,13,0,0,0-1.26-4c3.42.12,6.66.12,7.56.06s1.32-.36,1.32-1.32v-26.75H562.64V1918h22.08Zm-18.24-43.55v5.16h14.34v-5.16Zm14.34,13.68v-5.58H566.48v5.58Z"/><path d="M646.34,1922.51H602.12v13.14c0,9.6-.78,23.57-6.36,33.17a13.59,13.59,0,0,0-3.36-2c5.28-9.18,5.82-22,5.82-31.13v-16.86h48.12Zm-30.18,32.27a97.9,97.9,0,0,1-10.62,12.6c-.78-.6-2.4-1.68-3.36-2.28a63.59,63.59,0,0,0,10.32-11.58Zm10.26-4.44v15.12c0,2.16-.48,3.24-2.1,3.84s-4.68.6-9.36.6a14.79,14.79,0,0,0-1.26-3.54c3.66.12,6.78.12,7.68.06s1.2-.3,1.2-1v-15.06H607.82V1929H619.7a42.46,42.46,0,0,0,2.34-5.75l4.62.72c-.9,1.68-1.86,3.48-2.7,5h17.52v21.3Zm-14.76-12.17h25.8v-5.88h-25.8Zm0,8.93h25.8v-5.88h-25.8Zm23.4,6.54c3.66,3.72,8.46,8.88,10.92,11.94l-3.3,2.16a158.14,158.14,0,0,0-10.8-12.42Z"/><path d="M671.3,1948.18l.78,3.54c-6.3,2.88-13,5.94-18.24,8.16l-1.5-4c2.28-.9,5.22-2,8.4-3.36v-19h-7.38v-3.77h7.38V1916h3.72v13.74h6.6v3.77h-6.6v17.52Zm28.08,16.8c3.54,0,4.14-1.62,4.56-8.7a9.15,9.15,0,0,0,3.6,1.56c-.66,8.16-1.92,10.74-8,10.74H684.38c-6.66,0-8.52-1.5-8.52-7.68v-19.49l-5,2.15-1.56-3.48,6.6-2.75v-16.5h3.78v14.88l8.64-3.67v-16.73h3.78v15.18l9.6-4.08,3.06,1-.24.72c-.6,8.46-1.74,19.49-3.24,26.27l-3.24-1a207.74,207.74,0,0,0,2.4-22.43l-8.34,3.54v22.19h-3.78v-20.64l-8.64,3.67V1961c0,3.24.78,4,4.8,4Z"/><path d="M718.88,1951c4.68-2,7.26-4.86,7.56-9.17a4,4,0,0,1-1.14.11c-2.34,0-4.26-1.32-4.26-4.07a4,4,0,0,1,4.32-4.08c3.18,0,4.86,2.58,4.86,6.66,0,6.41-4,11.21-10.08,13.43Z"/><path d="M794.12,1964.44c0,2.76-.66,4.14-2.64,4.86s-5.76.66-11.22.66a15.26,15.26,0,0,0-1.5-4.08c4.5.18,8.64.12,9.9.06s1.5-.36,1.5-1.5v-34.86h-40V1970h-4v-44.27h16.5a99,99,0,0,0,3.9-10.5l4.86.84c-1.38,3.18-2.94,6.78-4.44,9.66h27.12Zm-32.1-7v4.32h-3.66v-23.93H781.7v19.61Zm0-16v12.42h16v-12.42Z"/><path d="M828.8,1965.16c0,2.16-.48,3.24-2,3.9s-4.26.66-8.34.66a17,17,0,0,0-1.32-3.54c3.12.12,5.94.12,6.72.06s1.14-.3,1.14-1.08v-8.52H810.68c-.6,4.74-1.86,9.78-4.68,13.56a11.24,11.24,0,0,0-2.94-2.34c4-5.64,4.44-13.38,4.44-19.44v-14.27h21.3Zm27.78-40.25v3.66H803.42v-3.66h15.12a45.12,45.12,0,0,0-5.64-8.28l3.66-1.38a49.14,49.14,0,0,1,6.06,8.52l-2.94,1.14h18.18a79.77,79.77,0,0,0,5.76-9.9l4.14,1.44c-1.68,2.82-3.6,5.94-5.46,8.46ZM825,1953.46V1947h-13.8v1.44c0,1.56-.06,3.24-.18,5Zm-13.8-16v6.41H825v-6.41Zm29,21.65h-3.72v-24.41h3.72Zm8.4-26.22h3.9v31.92c0,2.52-.6,3.6-2.34,4.26s-4.8.72-9.36.72a17,17,0,0,0-1.5-3.84c3.78.12,7,.12,8,.06s1.32-.3,1.32-1.2Z"/><path d="M882.44,1929.47a79,79,0,0,1-6.72,9.11v31.56h-4V1943a77.73,77.73,0,0,1-7.14,6.54c-.6-.78-2-2.52-2.82-3.29a66.67,66.67,0,0,0,16.86-18.13Zm-2.4-12.66a73.78,73.78,0,0,1-15.3,14.69,29.68,29.68,0,0,0-2.34-3.17,57.46,57.46,0,0,0,13.8-13Zm37,22.44h-9.18v25.49c0,2.52-.66,3.78-2.52,4.44s-5.22.6-11.22.6a14.6,14.6,0,0,0-1.32-3.84c4.44.18,8.4.18,9.54.06s1.5-.3,1.5-1.32v-25.43H883.4v-3.84h33.66Zm-1.74-16.5H886V1919h29.34Z"/><path d="M951.92,1964.38a52.89,52.89,0,0,0,11.46,1c1.8,0,11.76,0,14.16-.06a12.71,12.71,0,0,0-1.44,3.9H963.2c-13,0-22.68-2.28-28.62-13.08-2,5.52-5,10.62-9.3,14a20.52,20.52,0,0,0-2.94-2.64c7.38-5.64,10.26-16.14,11.16-25l4.14.48a72.42,72.42,0,0,1-1.62,8.34c2.64,6.36,6.72,10,11.88,11.94v-24.53H924v-3.79h23.82v-8.63H929.18v-3.72h18.66v-7.08h4.08v7.08H971.6v3.72H951.92v8.63H976v3.79H951.92v9.77H972v3.66h-20.1Z"/><path d="M995.18,1933.67a9.06,9.06,0,1,1-9.06,9A9.09,9.09,0,0,1,995.18,1933.67Zm0,15.23a6.18,6.18,0,1,0,0-12.36,6.18,6.18,0,1,0,0,12.36Z"/><path d="M131.9,2004.17c4.44,10.31,12.24,20,20.76,24.71a23.11,23.11,0,0,0-3.06,3.36c-9-5.58-16.92-16.32-21.6-28.07h-1v22.43h14.28v4H127V2042H122.9v-11.4H108.68v-4H122.9v-22.43h-1.08c-4.74,11.75-12.66,22.43-21.3,28.25a24.18,24.18,0,0,0-2.88-3.18c8-4.92,15.66-14.76,20.16-25.07H99.14v-4H122.9v-12.72H127v12.72h24v4Z"/><path d="M206.9,2026.54a33.64,33.64,0,0,1-8.22,7.38c2.4,2.82,5.22,4.44,8.16,4.38,1.68-.06,2.16-1.5,2.46-5.94a10.31,10.31,0,0,0,3.12,1.62c-.6,6.3-2.1,7.92-5.76,8-4.26,0-8.16-2.22-11.28-6a74.41,74.41,0,0,1-13.68,5.82,36.46,36.46,0,0,0-2.1-3.24,65.61,65.61,0,0,0,13.86-5.34,34.94,34.94,0,0,1-3.84-8.82H175.16v4.38l11.16-1-.06,2.88-11.1,1.08v6.12c0,2.1-.48,3.06-2.16,3.54s-4.38.54-8.94.54a19.42,19.42,0,0,0-1.26-3.18c3.36.12,6.48.06,7.38,0s1.2-.24,1.2-1v-5.7c-4.74.48-9.12.9-12.72,1.2l-.42-3.3c3.54-.24,8.1-.54,13.14-1v-4.68h-12.9v-3.18h12.9v-4.44c-3.78.42-7.68.72-11.28.91a12,12,0,0,0-.9-2.71c8.16-.48,18.18-1.55,23.52-2.94l2.52,2.58c-2.82.66-6.36,1.26-10.08,1.74v4.86h13.68a52.67,52.67,0,0,1-1.2-8.94h3.84a57.48,57.48,0,0,0,1.2,8.94h19v3.18H193.58a31.91,31.91,0,0,0,3.12,6.9,27.09,27.09,0,0,0,6.72-5.94Zm4.62-15.17h-53v-3.25H182.9V2004H164.3v-3.06h18.6v-4H161.06v-3.18h12.66a30,30,0,0,0-3.48-5.16l3.42-1.26a24.4,24.4,0,0,1,4.32,6.24l-.42.18H192.2a54.7,54.7,0,0,0,3.6-6.6l4.14,1.2c-1.2,1.86-2.52,3.84-3.72,5.4h12.84V1997H186.92v4h18.9V2004h-18.9v4.13h24.6Zm-5.7,9a34,34,0,0,0-9.48-5.52l2.16-2.46a38.32,38.32,0,0,1,9.66,5.22Z"/><path d="M270.74,2019.17s-.06,1.19-.12,1.73c-1.14,12.66-2.28,17.64-4.14,19.56a5.52,5.52,0,0,1-4,1.56,66.58,66.58,0,0,1-7.5-.12,9.39,9.39,0,0,0-1.2-3.66c3.12.3,6.06.3,7.2.3a3,3,0,0,0,2.22-.54c1.26-1.32,2.4-5.34,3.36-15.3H229a59.21,59.21,0,0,1-9.66,7.32,19.86,19.86,0,0,0-2.22-3.3c10.26-6,17.82-15.18,23.1-25.43h-20v-3.66H242a82.29,82.29,0,0,0,3.84-10.32l3.9,1a92.32,92.32,0,0,1-3.54,9.3H262c-.72,3.48-1.56,7.62-2.34,10.74h7c-.66,3.47-1.5,7.67-2.28,10.8Zm-49.38,20.33c3.42-3.24,5.7-8.58,7-13.2l3.3,1.08c-1.44,4.92-3.54,10.62-7.14,14.16Zm12.42-42.17a39,39,0,0,0-6-8.34l3.42-1.44a39.57,39.57,0,0,1,6.18,8Zm26.82,21.84c.54-2.11,1.08-4.69,1.56-7.21H238.34a75.18,75.18,0,0,1-5.76,7.21Zm-21.48,7.91a44,44,0,0,1,1.8,11.88l-3.48.54a39.57,39.57,0,0,0-1.62-11.94Zm5.4-25.79c-1.14,2.4-2.46,4.79-3.84,7.08h15.24c.54-2,1.14-4.62,1.62-7.08Zm3.18,25a43,43,0,0,1,3.6,10.26l-3.3.9a45.91,45.91,0,0,0-3.42-10.44Zm10.32,8a38.83,38.83,0,0,0-4.56-8.1l2.76-1.08a34.18,34.18,0,0,1,4.74,7.86Z"/><path d="M303.8,2037.16c0,2.16-.48,3.24-2,3.9s-4.26.66-8.34.66a17,17,0,0,0-1.32-3.54c3.12.12,5.94.12,6.72.06s1.14-.3,1.14-1.08v-8.52H285.68c-.6,4.74-1.86,9.78-4.68,13.56a11.24,11.24,0,0,0-2.94-2.34c4-5.64,4.44-13.38,4.44-19.44v-14.27h21.3Zm27.78-40.25v3.66H278.42v-3.66h15.12a45.12,45.12,0,0,0-5.64-8.28l3.66-1.38a49.14,49.14,0,0,1,6.06,8.52l-2.94,1.14h18.18a79.77,79.77,0,0,0,5.76-9.9l4.14,1.44c-1.68,2.82-3.6,5.94-5.46,8.46ZM300,2025.46V2019h-13.8v1.44c0,1.56-.06,3.24-.18,5Zm-13.8-16v6.41H300v-6.41Zm29,21.65h-3.72v-24.41h3.72Zm8.4-26.22h3.9v31.92c0,2.52-.6,3.6-2.34,4.26s-4.8.72-9.36.72a17,17,0,0,0-1.5-3.84c3.78.12,7,.12,8,.06s1.32-.3,1.32-1.2Z"/><path d="M354.92,2002.12a68.61,68.61,0,0,1-4.92,7.56V2042h-4v-27.42a66,66,0,0,1-6.66,6.48,23.3,23.3,0,0,0-2.22-3.84,55.8,55.8,0,0,0,14.34-16.43Zm-.84-13.25a57.7,57.7,0,0,1-14,14.28,20,20,0,0,0-2.1-3.24c4.62-3.12,9.78-8.16,12.3-12.42Zm38.16,47.39v3.84h-38v-3.84h17v-16H358v-3.78h13.2v-13.91H355.88v-3.84h34.86v3.84H375.38v13.91h13.44v3.78H375.38v16ZM373,1998.41a52.93,52.93,0,0,0-5.16-10l3.6-1.32a52,52,0,0,1,5.4,9.72Z"/><path d="M403.88,2023c4.68-2,7.26-4.86,7.56-9.17a4,4,0,0,1-1.14.11c-2.34,0-4.26-1.32-4.26-4.07a4,4,0,0,1,4.32-4.08c3.18,0,4.86,2.58,4.86,6.66,0,6.41-4,11.21-10.08,13.43Z"/><path d="M445,2000.62a67.05,67.05,0,0,1-5.4,8.46v33.18h-3.78v-28.5a55.81,55.81,0,0,1-6,5.94,23.11,23.11,0,0,0-2.4-3.41,57.79,57.79,0,0,0,14-16.92Zm-1.44-11.87a59.41,59.41,0,0,1-13.32,14.1,20,20,0,0,0-2.22-2.82c4.44-3.3,9.42-8.4,11.94-12.66ZM477,2019.17a34,34,0,0,1-11.58,13.91,56.54,56.54,0,0,0,16.08,5.52,13.63,13.63,0,0,0-2.46,3.48,58.51,58.51,0,0,1-17.16-6.72,63.26,63.26,0,0,1-17.7,6.78,10.39,10.39,0,0,0-2-3.42,62.23,62.23,0,0,0,16.26-5.64,41.7,41.7,0,0,1-7.2-6.54,42.74,42.74,0,0,1-4.86,4.08,25.12,25.12,0,0,0-2.76-2.94,46.2,46.2,0,0,0,5.28-4.08,34,34,0,0,1-2.82-4.38l3.3-1.2a19.47,19.47,0,0,0,2,3.18,40.7,40.7,0,0,0,5.82-7.86c-9,.6-10.5.91-11.64,1.26a33.39,33.39,0,0,0-1.2-3.77c1.62-.19,3.78-1.26,6.6-2.88,1.44-.78,4.38-2.58,7.8-4.87-9.36.49-10.92.73-11.82,1.09a28.56,28.56,0,0,0-1.26-3.84,10.79,10.79,0,0,0,3.9-2.16A67.38,67.38,0,0,0,460.28,1988l3.9,1.8a87.44,87.44,0,0,1-11.7,10.32l11.1-.36a87.91,87.91,0,0,0,8.22-6.6l3.66,2.1a135.45,135.45,0,0,1-22.44,15l20.1-1.08c-1.5-1.87-2.94-3.72-4.38-5.29l3.06-1.61a90.33,90.33,0,0,1,10,13l-3.24,1.92c-.78-1.38-2-3.12-3.24-5-5.58.35-10.14.66-13.68.83a52.18,52.18,0,0,1-3,5h15.18l.72-.18Zm-20.94,2.21a33.51,33.51,0,0,1-2.34,2.76,40,40,0,0,0,8.16,6.9,31.13,31.13,0,0,0,9.72-9.66Z"/><path d="M501.74,1988.57a123.56,123.56,0,0,1-4.08,12.6V2042h-3.78v-32.51a51.63,51.63,0,0,1-4.26,6.77,18.44,18.44,0,0,0-2.16-4c4.56-6,8.28-15.23,10.5-24.59Zm5.94,41.27v12H504v-51.77h16.26v18.23H507.68v6.78h11.16v3.42H507.68v7.92H519.5v3.42Zm0-36.35v11.39h9v-11.39Zm32.52,20.34a41,41,0,0,1-7.5,17.45,26.55,26.55,0,0,0,10,7.56,18.29,18.29,0,0,0-2.46,3.06,27.55,27.55,0,0,1-9.78-7.86,36.82,36.82,0,0,1-12.36,8.1,10.14,10.14,0,0,0-2.1-2.94,31,31,0,0,0,12.3-8.1,51.85,51.85,0,0,1-6-13.85l2.64-.67H521v-3.41h16.2l.72-.13Zm-.78-5.58H522.68v-3.48h13.08v-11.22H522.68v-3.48h16.74Zm-14,8.33a40.27,40.27,0,0,0,5.1,11.7,33.44,33.44,0,0,0,5.4-11.7Z"/><path d="M565,1988.63a84.89,84.89,0,0,1-6.18,12.9v40.31H555v-34.31a62.31,62.31,0,0,1-6.42,7.91,20.27,20.27,0,0,0-2.34-3.84c6-5.81,11.64-14.81,15.06-24ZM602.84,2007v3.65H561.92V2007h10.74v-8.52H564.5v-3.54h8.16v-7h3.78v7H588.2v-7H592v7h8.52v3.54H592V2007Zm-34.44,8.69h29v26.16h-3.9v-2.46H572.24v2.76H568.4Zm3.84,3.42v6.72h21.24v-6.72ZM593.48,2036v-6.9H572.24v6.9Zm-17-29H588.2v-8.52H576.44Z"/><path d="M660.74,2019.17s-.06,1.19-.12,1.73c-1.14,12.66-2.28,17.64-4.14,19.56a5.52,5.52,0,0,1-4,1.56,66.58,66.58,0,0,1-7.5-.12,9.39,9.39,0,0,0-1.2-3.66c3.12.3,6.06.3,7.2.3a3,3,0,0,0,2.22-.54c1.26-1.32,2.4-5.34,3.36-15.3H619a59.21,59.21,0,0,1-9.66,7.32,19.86,19.86,0,0,0-2.22-3.3c10.26-6,17.82-15.18,23.1-25.43h-20v-3.66H632a82.29,82.29,0,0,0,3.84-10.32l3.9,1a92.32,92.32,0,0,1-3.54,9.3H652c-.72,3.48-1.56,7.62-2.34,10.74h7c-.66,3.47-1.5,7.67-2.28,10.8Zm-49.38,20.33c3.42-3.24,5.7-8.58,7-13.2l3.3,1.08c-1.44,4.92-3.54,10.62-7.14,14.16Zm12.42-42.17a39,39,0,0,0-6-8.34l3.42-1.44a39.57,39.57,0,0,1,6.18,8Zm26.82,21.84c.54-2.11,1.08-4.69,1.56-7.21H628.34a75.18,75.18,0,0,1-5.76,7.21Zm-21.48,7.91a44,44,0,0,1,1.8,11.88l-3.48.54a39.57,39.57,0,0,0-1.62-11.94Zm5.4-25.79c-1.14,2.4-2.46,4.79-3.84,7.08h15.24c.54-2,1.14-4.62,1.62-7.08Zm3.18,25a43,43,0,0,1,3.6,10.26l-3.3.9a45.91,45.91,0,0,0-3.42-10.44Zm10.32,8a38.83,38.83,0,0,0-4.56-8.1l2.76-1.08a34.18,34.18,0,0,1,4.74,7.86Z"/><path d="M694.64,2030c-9.42,2.16-19.5,4.5-26.58,6.12l-.72-4,4.32-.9v-40.91h19.26v36.89l3.42-.78Zm-19.38-36v9.3h11.88V1994Zm11.88,12.9H675.26V2016h11.88Zm-11.88,23.63c3.66-.72,7.68-1.62,11.88-2.52v-8.4H675.26Zm45.24-27.42c-.66,25.26-1.26,33.72-3.24,36.36a5.17,5.17,0,0,1-4.2,2.1,65.3,65.3,0,0,1-8.22-.12,8,8,0,0,0-1.2-3.78c3.48.24,6.72.3,7.92.3s1.68-.12,2.28-.9c1.56-1.8,2.22-9.84,2.76-32.21h-9.84c-.9,15.59-4.2,29.33-16.44,37.31a10,10,0,0,0-3-2.94c11.7-7.14,14.7-19.86,15.54-34.37H693V2001H703c.18-4.49.18-9,.18-13.67h3.9c0,4.68,0,9.18-.18,13.67H720.5Z"/><path d="M728.24,1997.57H749.3v3.3H728.18Zm19,40.73H734v2.88h-3.48v-20.1H747.2Zm-.12-32.93v3.17h-16.5v-3.17Zm-16.5,7.73h16.56v3.24H730.58Zm3.42,11.34v10.5h9.66v-10.5Zm4.74-27.77a56.9,56.9,0,0,0-4.2-7.92l2.88-1.62a50.74,50.74,0,0,1,4.32,7.68Zm41.46,40c0,2.64-.6,3.9-2.28,4.56s-4.86.78-9.66.78a12.8,12.8,0,0,0-1.38-4c3.78.12,7.26.06,8.28.06s1.38-.36,1.38-1.44v-42.47H749.48v-3.72H780.2Zm-7.14-33.29H750.92v-3.48h22.14Zm-16.38,24.41v4.14H753.2v-23.1h16.92v19Zm0-15.47v12h9.9v-12Z"/><path d="M793.88,2023c4.68-2,7.26-4.86,7.56-9.17a4,4,0,0,1-1.14.11c-2.34,0-4.26-1.32-4.26-4.07a4,4,0,0,1,4.32-4.08c3.18,0,4.86,2.58,4.86,6.66,0,6.41-4,11.21-10.08,13.43Z"/><path d="M832,2009.62c2,2.05,7.68,8.59,8.94,10.2l-2.52,3.24a96.69,96.69,0,0,0-6.42-8.88v27.66h-3.78v-29.58c-2.4,7.2-5.7,14.22-9.06,18.42a27.23,27.23,0,0,0-2.16-3.6c4.2-5,8.52-14.63,10.74-23.09h-9.42v-3.72h9.9v-13H832v13h8.76V2004H832Zm38.16-18.71v50.45h-3.9v-3.48h-19v3.66H843.5v-50.63Zm-22.86,3.78v10.5h19v-10.5Zm0,25h19v-10.8h-19Zm19,14.58V2023.3h-19v10.92Z"/><path d="M930.26,1996.73v12.06h-3.84v-8.58H884.06v8.58h-3.78v-12.06h9.84a42.53,42.53,0,0,0-4.8-7.14l3.48-1.44a47,47,0,0,1,5.34,7.38l-2.46,1.2H902.9v-9.42h4v9.42h10.8l-2-.84a57.52,57.52,0,0,0,5.52-8l4,1.38a80.41,80.41,0,0,1-5.82,7.44Zm-45.9,24h42.3V2042h-3.9v-1.62H888.2v1.74h-3.84Zm3.84,3.06v5.16h15v-5.16Zm15,13.38v-5.22h-15v5.22Zm17.64-32.39v12.29h-31v-12.29Zm-3.9,3.11h-23.4v6.06h23.4Zm5.82,15.9H907v5.16h15.78Zm0,13.38v-5.22H907v5.22Z"/><path d="M960,2009.62s0,1.38-.06,1.87c-.72,19-1.44,25.43-3.12,27.59a4.45,4.45,0,0,1-3.36,1.74,39.18,39.18,0,0,1-5.34,0,11.1,11.1,0,0,0-1-3.66c2.1.18,3.84.18,4.68.18a1.7,1.7,0,0,0,1.74-.78c1.2-1.44,1.92-7.2,2.58-23.22H947.9c-.66,12-2.34,21.9-7.74,28.38a11.44,11.44,0,0,0-3.06-2.82c6.54-7.74,7.08-21.42,7.32-37.86h-6.24v-3.71H962.3V2001h-14c-.06,3-.12,5.83-.24,8.58Zm-9.48-12.53a40.17,40.17,0,0,0-5.1-8.58l3.48-1.38a38.31,38.31,0,0,1,5.28,8.4Zm28.62-8.94a18.31,18.31,0,0,1-1,3.06c3.18,6.54,9.24,13.62,14.94,16.74a15.63,15.63,0,0,0-2.94,3.3c-5.1-3.25-10.2-9.54-13.68-16-3.12,6.78-7.5,12.47-13.14,16.31a15.35,15.35,0,0,0-2.82-3.18c7-4.31,12.42-12.23,15-21.41Zm-10,38.93c5.58,2.64,12.78,6.9,16.32,9.9l-2.7,3.48c-3.42-3.12-10.5-7.56-16.08-10.38Zm11.4-5.82a79.47,79.47,0,0,0-10.32-8.22l2.58-2.63a80,80,0,0,1,10.5,7.85Z"/><path d="M1024,1990.49h-14.82v35.15h-4v-38.87H1024Z"/><path d="M1044,1988c-1,2.94-2.1,6.3-3.18,8.88H1051v38.75h-16.8v4.8h-3.66v-43.55h6.66a64.68,64.68,0,0,0,2.58-9.72Zm3.3,12.47h-13.14v13.08h13.14Zm0,31.56v-14.88h-13.14v14.88Zm33.06-33.17c-1,27.53-1.8,36.71-4.2,39.59a5.6,5.6,0,0,1-4.56,2.28,74.94,74.94,0,0,1-8.82-.12,9.42,9.42,0,0,0-1.32-3.9c3.9.36,7.5.36,8.82.36s1.92-.12,2.52-.9c2-2.1,2.94-11.34,3.72-35.7h-15.72a55.33,55.33,0,0,1-5.64,10.68,36.22,36.22,0,0,0-3.36-2.22c4.08-5.34,7.32-13.61,9.18-21.89l3.84.84c-.78,3-1.62,6-2.64,8.88h18.18Zm-12.78,27a106.51,106.51,0,0,0-9.3-13.92l3.06-1.79a102.47,102.47,0,0,1,9.6,13.61Z"/><path d="M1086,2038.84h14.82v-35.15h4v38.87H1086Z"/><path d="M1130.18,2005.67a9.06,9.06,0,1,1-9.06,9A9.09,9.09,0,0,1,1130.18,2005.67Zm0,15.23a6.18,6.18,0,0,0,0-12.36,6.18,6.18,0,0,0,0,12.36Z"/><rect class="cls-2" x="1113" y="1173" width="65" height="271" rx="12"/><path class="cls-1" d="M1158.05,1212.79a27.61,27.61,0,0,0,11.5,8.1,11.65,11.65,0,0,0-2.15,2.55,30.77,30.77,0,0,1-12.8-10.65h-15.95a34.39,34.39,0,0,1-13,11.3,11.43,11.43,0,0,0-2.15-2.55,30.39,30.39,0,0,0,11.6-8.75H1124v-2.85h10v-16.15h-7.7V1191h7.7v-5h3.3v5h18.55v-5h3.35v5h7.65v2.8h-7.65v16.15h9.8v2.85Zm-10,14.5h17.3v2.85H1127.8v-2.85h16.9v-5.6h-10.45v-2.8h10.45v-4.4h3.35v4.4h10.65v2.8h-10.65Zm-10.8-33.5v3.6h18.55v-3.6Zm0,9.8h18.55v-3.65h-18.55Zm0,6.35h18.55v-3.8h-18.55Z"/><path class="cls-1" d="M1142.25,1254.54s0,1.15,0,1.55c-.6,15.85-1.2,21.2-2.6,23a3.71,3.71,0,0,1-2.8,1.45,32.65,32.65,0,0,1-4.45,0,9.25,9.25,0,0,0-.85-3c1.75.15,3.2.15,3.9.15a1.42,1.42,0,0,0,1.45-.65c1-1.2,1.6-6,2.15-19.35h-6.8c-.55,10-2,18.25-6.45,23.65a9.53,9.53,0,0,0-2.55-2.35c5.45-6.45,5.9-17.85,6.1-31.55h-5.2v-3.1h20.1v3.1h-11.65c0,2.45-.1,4.85-.2,7.15Zm-7.9-10.45a33.47,33.47,0,0,0-4.25-7.15l2.9-1.15a31.92,31.92,0,0,1,4.4,7Zm23.85-7.45a15.26,15.26,0,0,1-.85,2.55c2.65,5.45,7.7,11.35,12.45,14a13,13,0,0,0-2.45,2.75c-4.25-2.7-8.5-8-11.4-13.3a32.61,32.61,0,0,1-11,13.6,12.79,12.79,0,0,0-2.35-2.65c5.85-3.6,10.35-10.2,12.5-17.85Zm-8.3,32.45a74,74,0,0,1,13.6,8.25l-2.25,2.9c-2.85-2.6-8.75-6.3-13.4-8.65Zm9.5-4.85a66.22,66.22,0,0,0-8.6-6.85l2.15-2.2a67.46,67.46,0,0,1,8.75,6.55Z"/><path class="cls-1" d="M1165,1289.19v29.3h-3.5v-2.55h-13.3v15.6h-3.45v-15.6h-13.4v2.75H1128v-29.5Zm-33.65,3.2V1301h13.4v-8.65Zm13.4,20.35v-8.5h-13.4v8.5Zm16.75-20.35h-13.3V1301h13.3Zm0,20.35v-8.5h-13.3v8.5Z"/><path class="cls-1" d="M1167.25,1351.09v9.3h-3.15V1354h-35.4v6.4h-3v-9.3h6.95v-12.95h27.7v12.95Zm-6.45,26.6c0,1.85-.45,2.7-1.85,3.2s-3.9.5-7.7.45a8.57,8.57,0,0,0-1.1-2.75c3,.05,5.65.05,6.4.05s1-.25,1-1v-6.2c-7.3,1.45-14.85,3-20.45,4l-1.1-3c5.4-.8,13.6-2.3,21.55-3.75V1360h-22.2v5.3c0,4.85-.65,11.55-4.35,16.2a13.29,13.29,0,0,0-2.7-2c3.45-4.25,3.85-10,3.85-14.25v-8h28.6Zm-25-26.6h7.45v-6.9H1157v-3.35h-21.2Zm2.45,11.7a75.14,75.14,0,0,1,17.7,3l-.9,2.6c-4-1.5-11.7-2.9-17.7-3.35Zm18.75-16.3h-10.75v4.6H1157Z"/><path class="cls-1" d="M1161,1398.09a51.83,51.83,0,0,1-12,19.6,49.94,49.94,0,0,0,20.5,10.5,16.79,16.79,0,0,0-2.25,3,50.92,50.92,0,0,1-20.75-11.1c-5.65,5-12.55,8.6-21,11.3a15.53,15.53,0,0,0-2-3.05c8.35-2.45,15.1-5.9,20.6-10.6a57.05,57.05,0,0,1-12.2-19.65h-7.75v-3.25h44.75v3.25Zm-25.75,0a52.13,52.13,0,0,0,11.3,17.3,47.46,47.46,0,0,0,10.7-17.3Zm11.25-3.55a38.13,38.13,0,0,0-3.8-7.8l3.4-1a39,39,0,0,1,4,7.65Z"/><path d="M413.33,1123.33c-3.33,38.81-6.35,77.66-7.75,116.59-1.4,38.74-1.18,77.58,2,116.23,1.78,21.37,4.45,42.69,8.06,63.83,3,17.79,6.64,35.63,11.76,53,8.79,29.75,22.73,58.37,43.83,81.37a118,118,0,0,0,14.36,13.28c6.68,5.23,13.39,10.2,20.93,14.11a134.65,134.65,0,0,0,24.22,9.83,142.34,142.34,0,0,0,27.11,4.71c3.73.34,7.46.48,11.2.47a26.31,26.31,0,0,0,18-7.47c4.43-4.42,7.76-11.68,7.47-18-.29-6.59-2.46-13.43-7.47-18s-11.12-7.48-18-7.47a121.18,121.18,0,0,1-16.26-1l6.78.91a104.89,104.89,0,0,1-26.09-7.06l6.09,2.57a104.76,104.76,0,0,1-23.07-13.54l5.16,4a123.12,123.12,0,0,1-21.56-21.84l4,5.16a171.2,171.2,0,0,1-21.59-37.71l2.57,6.09c-9.79-23.3-15.2-48.26-19.59-73.06q-2.25-12.7-4-25.48l.91,6.78a807,807,0,0,1-6.67-104.8c-.11-34.84,1.51-69.68,3.91-104.43,1.36-19.65,3-39.29,4.65-58.91.53-6.18-3.23-13.79-7.47-18-4.42-4.43-11.68-7.76-18-7.47-6.6.29-13.44,2.46-18,7.47l-4,5.16a25.27,25.27,0,0,0-3.48,12.87Z"/><path d="M665,1025.5q2.76,32.31,5.2,64.64,2.82,38.17,4.86,76.42c1.43,27.31,2.5,54.64,3,82s.53,54.47-.36,81.68c-.81,24.82-2.32,49.64-5.27,74.3q-.5,4.21-1.07,8.41l.92-6.78c-3.55,26.24-8.91,52.35-19.18,76.86l2.57-6.09a172.49,172.49,0,0,1-21.73,38l4-5.16a123.92,123.92,0,0,1-21.45,21.73l5.16-4A105.15,105.15,0,0,1,599,1540.91l6.09-2.57a105.6,105.6,0,0,1-26.87,7.29l6.78-.91a122.11,122.11,0,0,1-15.88,1,26.29,26.29,0,0,0-18,7.47c-4.42,4.42-7.75,11.68-7.47,18,.3,6.6,2.47,13.44,7.47,18a26.54,26.54,0,0,0,18,7.47c24.41,0,49.12-6.16,69.86-19.24,19.57-12.34,35.38-29.52,47.59-49.07,22.28-35.69,30.91-77,36.25-118.14,5.3-40.87,6.62-82.25,6.69-123.42.08-44.6-1.58-89.18-4.1-133.7-2.19-38.73-5.09-77.42-8.35-116.07q-.49-5.79-1-11.57c-.59-6.88-2.45-13-7.47-18-4.43-4.42-11.68-7.75-18-7.47-6.6.3-13.44,2.46-18,7.47-4.36,4.74-8,11.36-7.47,18Z"/><path d="M425,1241.55a390.82,390.82,0,0,0,101.31,38.25c35.71,7.91,72.64,11,109.11,7.85a433.87,433.87,0,0,0,58.79-9.13c16.53-3.77,33.2-8.2,48.89-14.7,9.25-3.84,18.36-7.84,26.86-13.16a127.14,127.14,0,0,0,41.44-40.77c5.3-8.11,9.21-16.82,12.94-25.74,7.05-16.93,10.36-35,12-53.15s.81-36.68-1.09-54.9c-.48-4.56-1-9.12-1.62-13.67a28.24,28.24,0,0,0-7.47-18c-4.42-4.43-11.67-7.76-18-7.47-6.59.29-13.43,2.46-18,7.47l-4,5.16a25.37,25.37,0,0,0-3.49,12.87c3.27,25.32,5.2,51,1.81,76.46l.91-6.78A153.92,153.92,0,0,1,775,1170.87l2.57-6.09a121.17,121.17,0,0,1-15.27,26.45l4-5.16a102.9,102.9,0,0,1-18,18.07l5.16-4a130.47,130.47,0,0,1-28.89,16.57l6.1-2.57a257,257,0,0,1-31.19,10.42q-16.93,4.7-34.24,8-9.78,1.83-19.65,3.15l6.78-.91a338.69,338.69,0,0,1-70.59,2.19q-9.85-.75-19.67-2.08l6.78.92a359.91,359.91,0,0,1-72-17.51q-10-3.54-19.71-7.65l6.09,2.57q-16.67-7.05-32.6-15.7a26.77,26.77,0,0,0-19.65-2.57c-5.92,1.63-12.33,6.2-15.24,11.72-3.13,5.92-4.7,13.09-2.57,19.65,2,6.21,5.83,12,11.71,15.24Z"/><line class="cls-3" x1="283.5" y1="1584" x2="930.5" y2="1584"/></svg>