<svg id="Layer_1" data-name="Layer 1" xmlns="http://www.w3.org/2000/svg" viewBox="0 0 1242 2208"><defs><style>.cls-1{fill:#f6eabe;}.cls-2{fill:#999;}.cls-3{fill:none;stroke:#000;stroke-linecap:round;stroke-miterlimit:10;stroke-width:50px;}</style></defs><rect class="cls-1" width="1242" height="2208"/><rect class="cls-2" x="1113.23" y="1201" width="65" height="269" rx="12"/><rect class="cls-2" x="1113.23" y="417" width="65" height="126" rx="12"/><path d="M757.8,297.74V758.26c0,35.72-8.73,51.6-32.55,60.34-26.2,9.53-69.08,10.32-135.77,10.32-3.18-15.88-10.33-38.11-18.27-54,52.41,1.59,100.84,1.59,115.93.79,13.49,0,17.46-4,17.46-17.46V297.74H564.86v93.69c0,139-18.26,313.63-200.88,443.05-8.73-11.91-27-31-39.7-38.91,172.3-119.1,188.18-279.48,188.18-404.93v-92.9H275.05v-52.4H968.21v52.4ZM434.65,393.81C410,489.09,368.75,580.4,321.11,640.74c-9.53-7.94-32.56-23-45.26-30.17C323.49,555,360.81,470,382.24,384.29ZM626.79,241.37c-11.91-31.76-40.49-85-65.9-122.28l49.23-16.67c26.2,36.52,55.58,87.34,69.08,119.1ZM847.52,384.29c50.82,80.19,104,188.17,123.07,255.66l-49.23,21.44c-18.26-67.49-68.28-177.06-119.1-258.84Z"/><path d="M264.15,1796.69a98.85,98.85,0,0,1-6.18,13.56v39.59h-3.84v-33.35a61.73,61.73,0,0,1-5.46,7,32.86,32.86,0,0,0-2.28-3.9c5.58-5.87,10.8-14.87,14-24Zm34.14,28c-2.1,1.26-4.44,2.64-6.84,3.78,2,6.06,5.82,11.82,10.38,14.52a11.2,11.2,0,0,0-2.64,2.94c-4.62-3.18-8.46-9.42-10.68-16a27.45,27.45,0,0,1-2.76,1.2c2.58,6.84,1.86,14-1,16.68a6.91,6.91,0,0,1-5.22,1.92c-1.08,0-2.4-.06-3.78-.18a9.31,9.31,0,0,0-1-3.42,38.26,38.26,0,0,0,4.14.24,3.66,3.66,0,0,0,3.12-1.14c1.56-1.38,2.22-5.16,1.44-9.36-5.16,4.92-13.08,9.36-19.8,11.7a15.8,15.8,0,0,0-2.34-2.82c7.62-2.28,16.62-7.14,21.3-12.24a35.76,35.76,0,0,0-1.5-3.48,63.52,63.52,0,0,1-17.22,9.9,16.14,16.14,0,0,0-2.22-2.64c5.94-1.8,13.74-5.76,17.88-9.54a16.39,16.39,0,0,0-2.94-3.18,58.44,58.44,0,0,1-13.56,7.26,11.26,11.26,0,0,0-2.22-2.58,52.7,52.7,0,0,0,15.06-7.55H265.71v-9.36c-1.14,1-2.28,2-3.54,2.94a9.37,9.37,0,0,0-2.52-2.58,44.69,44.69,0,0,0,13.86-16.26l3.84.72c-.6,1.2-1.32,2.34-2,3.54h11.1l.72-.18,2.34,1.68a52.13,52.13,0,0,1-4.8,6.84h13.08v12.66H280.17c-.36.36-.78.66-1.2,1a21,21,0,0,1,5.64,6.84,110,110,0,0,0,10.92-6.42Zm-25.08-21.83A54.58,54.58,0,0,1,269,1808h11.58a37.88,37.88,0,0,0,3.72-5.16Zm-3.9,14.69h10.5v-6.42h-10.5Zm24.72-6.42H283.41v6.42H294Z"/><path d="M327.39,1808.63a67.9,67.9,0,0,1-7.2,12.24v28.85h-4v-24a41.57,41.57,0,0,1-7.26,6.41,17,17,0,0,0-2-3.48c7-5,12.3-12.23,16.14-20H308.25v-3.84h16.44a65.25,65.25,0,0,0,3.3-9.42l4.08,1c-.9,2.82-1.86,5.64-3,8.4h31.26v3.84Zm32.94,36.23v3.72H324.21v-3.72h16v-17.52H326.55v-3.71h13.68v-11.82h4v11.82H358v3.71h-13.8v17.52Z"/><path d="M396.51,1795.55c-.06,2.1-.12,5.1-.42,8.64.9,7,4.56,32.51,25.74,42a12.63,12.63,0,0,0-2.88,3.36c-15.42-7.26-21.72-22.74-24.6-34-2.64,12.23-8.94,26.33-24.06,34.19a13.77,13.77,0,0,0-3.12-3.06c25-12.48,24.78-42.11,25-51.11Z"/><path d="M443.25,1796c-1,2.94-2.1,6.3-3.18,8.88h10.14v38.75h-16.8v4.8h-3.66v-43.55h6.66a64.68,64.68,0,0,0,2.58-9.72Zm3.3,12.47H433.41v13.08h13.14Zm0,31.56v-14.88H433.41v14.88Zm33.06-33.17c-1,27.53-1.8,36.71-4.2,39.59a5.6,5.6,0,0,1-4.56,2.28,74.94,74.94,0,0,1-8.82-.12,9.42,9.42,0,0,0-1.32-3.9c3.9.36,7.5.36,8.82.36s1.92-.12,2.52-.9c2-2.1,2.94-11.34,3.72-35.7H460.05a55.33,55.33,0,0,1-5.64,10.68,36.22,36.22,0,0,0-3.36-2.22c4.08-5.33,7.32-13.61,9.18-21.89l3.84.84c-.78,3-1.62,6-2.64,8.88h18.18Zm-12.78,27a106.51,106.51,0,0,0-9.3-13.92l3.06-1.79a102.47,102.47,0,0,1,9.6,13.61Z"/><path d="M515.79,1802.87v7.92h22.26v34.31c0,2.28-.54,3.48-2.22,4.08s-4.68.66-8.94.66a14.79,14.79,0,0,0-1.38-3.6c3.42.12,6.54.12,7.5.06s1.14-.3,1.14-1.2v-30.6H515.79v35.1H512v-35.1h-17.4v35.34h-3.84v-39H512v-7.92h-23.4V1799h51.54v3.9ZM506,1819.3c0,6.12.42,13.92,5.76,20a8.65,8.65,0,0,0-2.28,1.8,23.88,23.88,0,0,1-5.16-11.28,27.16,27.16,0,0,1-6.24,11.4,14.22,14.22,0,0,0-2.34-1.8c4.08-3.9,6.24-9.9,7.2-17.15H499v-3Zm21.12,0c0,6.18.48,13.92,6.24,19.92a11.7,11.7,0,0,0-2.4,1.74,23.65,23.65,0,0,1-5.58-11.64,27.62,27.62,0,0,1-6.18,11.46,15,15,0,0,0-2.34-1.8c4-3.84,6.06-9.72,7.08-16.73h-4.08v-3Z"/><path d="M562.53,1796.63a99.16,99.16,0,0,1-4.86,11.64V1850h-3.84v-34.73a68.26,68.26,0,0,1-6.12,8.46,21.26,21.26,0,0,0-2.22-4c5.46-5.88,10.32-14.94,13.32-24.12Zm37,2.46v50.33h-3.78v-3.06H568.53v3.54h-3.72v-50.81Zm-3.78,43.73v-40.25H568.53v40.25Zm-11.82-28.13v6.83H591v16H573.81v-16h6.78v-6.83h-9.42v-3.19h9.42v-6.83h3.3v6.83h9.66v3.19Zm3.9,9.89H576.93v9.9h10.86Z"/><path d="M637.53,1807.91a81.39,81.39,0,0,1-3.48,9.3V1850h-3.48v-26.1a37.81,37.81,0,0,1-4.32,5.94,17.86,17.86,0,0,0-1.86-2.88v18.18c0,2.1-.42,3.18-1.74,3.84s-3.42.72-7,.72a14.67,14.67,0,0,0-1.14-3.6c2.58.12,4.8.06,5.4.06.78,0,1.08-.24,1.08-1v-18c-1.86,1.62-3.78,3.18-5.64,4.74l-1.44-2.76c-.36,7.08-1.38,15.12-4.32,21.06a10.8,10.8,0,0,0-2.7-2.52c3.42-7.14,3.72-17.4,3.72-25.25v-24.84h13.8v29.15c4.38-5.22,7.8-13.26,9.48-19.73ZM614,1822.37c0,1.85,0,4-.12,6.11,1.86-1.26,4.44-3,7.08-4.92v-7l-2.1,1.43a53,53,0,0,0-4.86-6.59Zm0-21.12v9.36l1.8-1.2a55.13,55.13,0,0,1,5.16,6.47v-14.63Zm47.4,4.68h-35v-3.72h15.78a36.75,36.75,0,0,0-2.64-5.88l3.6-1.08a37.94,37.94,0,0,1,3.24,7h15.06Zm-1.56,7.86c-1.56,10.19-4.68,18.23-8.88,24.29a32.35,32.35,0,0,0,11.4,8.88,15.78,15.78,0,0,0-2.64,3,33.88,33.88,0,0,1-10.92-9,38.36,38.36,0,0,1-11,9.06,17.17,17.17,0,0,0-2.34-2.82,34.24,34.24,0,0,0,11.16-9.18,54.78,54.78,0,0,1-5.88-11.7,38.4,38.4,0,0,1-3.9,5.58,13,13,0,0,0-2.4-2.4c4.92-5.82,8.34-15,9.9-22.43l3.6.78c-.48,1.68-1,3.54-1.56,5.34h10.5l.66-.19Zm-11.16,21.35a41.23,41.23,0,0,0,3.72-7,105.85,105.85,0,0,0-8.88-7.26c-.3.59-.6,1.19-.9,1.85A51.7,51.7,0,0,0,648.69,1835.14Zm-3.42-18.65a16.3,16.3,0,0,1-.78,1.85c3,2.16,6.66,5,9,7a61.56,61.56,0,0,0,2.46-8.87Z"/><path d="M695.19,1803.71v10.86l.66-.78c7.32,3.54,16.74,8.93,21.54,12.53l-2.76,3.6c-4.2-3.42-12.48-8.46-19.44-12.12v32.1H691v-46.19H667.77v-4h53v4Z"/><path d="M773,1803.35c-3.54,5.58-8.82,10.32-14.88,14.33A85.8,85.8,0,0,0,782,1826.5a17.12,17.12,0,0,0-2.58,3.6,85,85,0,0,1-24.9-10.19,100.76,100.76,0,0,1-26.34,10.43,14.68,14.68,0,0,0-2-3.59,92.08,92.08,0,0,0,24.78-9.18,57.76,57.76,0,0,1-10.26-9.12,67.06,67.06,0,0,1-9.78,7.62,26.45,26.45,0,0,0-3.06-2.88,53,53,0,0,0,19-18.3l3.72,1.32a47.37,47.37,0,0,1-3.78,5.52h22.68l.66-.24Zm-36.42,25.49h35.16v21.24h-4.14v-2.64h-27v2.88h-4Zm4,3.66v11.34h27V1832.5Zm2.7-26.57a51.37,51.37,0,0,0,11.28,9.6,48.29,48.29,0,0,0,12-10.26H743.85Z"/><path d="M841,1822.91v2.81h-53.4v-2.81h24.48v-3.42H792.21v-2.58h19.86v-3.3H793.65V1811h18.42v-3.54H787.65v-2.58h24.42v-3.3H794v-2.52h18.06v-3.78H816v3.78h18.3v5.82h6.54v2.58h-6.54v6.12H816v3.3h20.64v2.58H816v3.42Zm-53.4,22.43H841v2.88h-53.4Zm46.8-16.86v13.86h-40v-13.86Zm-36.18,5.7h14v-3.24h-14Zm0,5.76h14v-3.36h-14Zm32.16-9H815.85v3.24h14.52Zm0,5.64H815.85v3.36h14.52ZM816,1804.91h14.34v-3.3H816Zm0,6.12h14.34v-3.54H816Z"/><path d="M901.59,1819.91v4.31H847.11v-4.31Z"/><path d="M906.57,1848c1.8-2.82,3.18-7.44,3.84-11.1l2.82,1c-.78,3.78-1.92,8.58-3.78,11.4Zm27.12-13.86h-26.1v-3.24h11.1v-5H908.61v-3.23h10.08v-4.38h-9.54v-20.64h23.28v20.64H922.29v4.38H933v3.23H922.29v5h11.4Zm-21.36-18.89h6.78v-14.64h-6.78Zm3.18-12.18a40.4,40.4,0,0,1,2,9.12l-2.22.65a37.3,37.3,0,0,0-1.92-9.23Zm2.82,34.55a50.16,50.16,0,0,1,1,10.38l-2.88.36a49.85,49.85,0,0,0-.84-10.44Zm6-.24a41.62,41.62,0,0,1,2.82,9.6l-2.76.6a39,39,0,0,0-2.64-9.66Zm4.8-36.77h-7.2v14.64h7.2ZM923,1812.58a84.59,84.59,0,0,0,2.64-9.65l2.46.9c-1.08,3.12-2.28,7-3.24,9.48Zm7.5,24.36a34.6,34.6,0,0,1,4,9.3l-2.76,1a40.62,40.62,0,0,0-3.78-9.42Zm18.12-24.65v11.46h10.62v26h-3.84v-2.64H939.63V1850h-3.72v-26.21h8.82v-28.26h3.9v13.08h13v3.72Zm6.78,15.17H939.63v16h15.78Z"/><path d="M973.11,1831c4.68-2,7.26-4.86,7.56-9.17a4,4,0,0,1-1.14.11c-2.34,0-4.26-1.31-4.26-4.07a4,4,0,0,1,4.32-4.08c3.18,0,4.86,2.58,4.86,6.66,0,6.41-4,11.21-10.08,13.43Z"/><path d="M417.39,1896.94l-7.62,2.34v17.82c0,2.34-.6,3.42-2,4.08s-3.84.78-7.8.72a17,17,0,0,0-1.32-3.66c2.76.06,5.34.06,6.06,0s1.14-.24,1.14-1.14v-16.56l-8.4,2.58-1.26-3.95c2.64-.73,6-1.63,9.66-2.71v-13.07h-8.7v-3.84h8.7v-12.12h4v12.12h7v3.84h-7v11.87c2.34-.59,4.74-1.38,7.08-2.09Zm10.68-6.3c-5.52,0-7.26-1.73-7.26-6.72v-16.31h3.9v7.32H449v3.54h-24.3V1884c0,2.29.66,3.13,3.3,3.13h16.14a49.43,49.43,0,0,0,6.42-.37c.18,1.08.36,2.58.54,3.49a38.74,38.74,0,0,1-6.72.35Zm-7.26,5.34h28v25.74h-4v-2.52H424.59V1922h-3.78Zm3.78,3.48v6.36h20.22v-6.36Zm20.22,16.38v-6.72H424.59v6.72Z"/><path d="M472.47,1897.78a58,58,0,0,1-12.06,19.14,26,26,0,0,0-3.66-2.46,47,47,0,0,0,11.64-17.75Zm13.62-7.91v31.79H482v-31.79H458.07v-4h52.5v4Zm19.2-14.22H463.41v-3.9h41.88Zm-5.16,20.93c4.5,5.58,9.24,13.14,11,18.24l-3.9,1.8c-1.74-5-6.3-12.78-10.8-18.48Z"/><path d="M547.53,1879.91a81.39,81.39,0,0,1-3.48,9.3V1922h-3.48v-26.1a37.81,37.81,0,0,1-4.32,5.94,17.86,17.86,0,0,0-1.86-2.88v18.18c0,2.1-.42,3.18-1.74,3.84s-3.42.72-7,.72a14.67,14.67,0,0,0-1.14-3.6c2.58.12,4.8.06,5.4.06.78,0,1.08-.24,1.08-1v-18c-1.86,1.62-3.78,3.18-5.64,4.74l-1.44-2.76c-.36,7.08-1.38,15.12-4.32,21.06a10.8,10.8,0,0,0-2.7-2.52c3.42-7.14,3.72-17.4,3.72-25.25v-24.84h13.8v29.15c4.38-5.22,7.8-13.26,9.48-19.73ZM524,1894.37c0,1.85,0,4-.12,6.11,1.86-1.26,4.44-3,7.08-4.92v-7l-2.1,1.43a53,53,0,0,0-4.86-6.59Zm0-21.12v9.36l1.8-1.2a55.13,55.13,0,0,1,5.16,6.47v-14.63Zm47.4,4.68h-35v-3.72h15.78a36.75,36.75,0,0,0-2.64-5.88l3.6-1.08a37.94,37.94,0,0,1,3.24,7h15.06Zm-1.56,7.86c-1.56,10.19-4.68,18.23-8.88,24.29a32.35,32.35,0,0,0,11.4,8.88,15.78,15.78,0,0,0-2.64,3,33.88,33.88,0,0,1-10.92-9,38.36,38.36,0,0,1-11,9.06,17.17,17.17,0,0,0-2.34-2.82,34.24,34.24,0,0,0,11.16-9.18,54.78,54.78,0,0,1-5.88-11.7,38.4,38.4,0,0,1-3.9,5.58,13,13,0,0,0-2.4-2.4c4.92-5.82,8.34-15,9.9-22.43l3.6.78c-.48,1.68-1,3.54-1.56,5.34h10.5l.66-.19Zm-11.16,21.35a41.23,41.23,0,0,0,3.72-7,105.85,105.85,0,0,0-8.88-7.26c-.3.59-.6,1.19-.9,1.85A51.7,51.7,0,0,0,558.69,1907.14Zm-3.42-18.65a16.3,16.3,0,0,1-.78,1.85c3,2.16,6.66,5,9,7a61.56,61.56,0,0,0,2.46-8.87Z"/><path d="M630.33,1872v7.74h-4v-4.44H611.43v4.08c0,1.32.18,1.74,1.68,1.74h9.18a27.25,27.25,0,0,0,4.62-.36c.12,1.08.18,2,.36,2.94a25.49,25.49,0,0,1-4.68.3H612.21c-4,0-4.74-1.45-4.74-4.68v-4h-6.84c-1.14,6.54-5.46,8.82-18.3,10a9.17,9.17,0,0,0-1.8-3.06c11.46-.72,15.12-2.22,16.08-6.9h-14V1880h-3.9v-8h23.64c-.48-1.38-1.08-2.76-1.62-4l4-.84a49.46,49.46,0,0,1,2.1,4.86Zm-2.52,45.29c0,2-.42,3-2,3.66s-4.26.6-8.7.6a11.69,11.69,0,0,0-1.38-3.36c3.36.12,6.3.06,7,0,.9,0,1.14-.18,1.14-.9V1904H585V1922h-3.9v-21.24H587v-14.4h35.46v14.4h5.34Zm-37.08-16.5h7.68v-7.32h20.22v-3.89h-27.9Zm5.28,16.44v2.34h-3.66v-12.12H617v9.78Zm0-7.2v4.62h17.22V1910Zm22.62-14h-16.5v4.8h16.5Z"/><path d="M653.25,1868c-1,2.94-2.1,6.3-3.18,8.88h10.14v38.75h-16.8v4.8h-3.66v-43.55h6.66a64.68,64.68,0,0,0,2.58-9.72Zm3.3,12.47H643.41v13.08h13.14Zm0,31.56v-14.88H643.41v14.88Zm33.06-33.17c-1,27.53-1.8,36.71-4.2,39.59a5.6,5.6,0,0,1-4.56,2.28,74.94,74.94,0,0,1-8.82-.12,9.42,9.42,0,0,0-1.32-3.9c3.9.36,7.5.36,8.82.36s1.92-.12,2.52-.9c2-2.1,2.94-11.34,3.72-35.7H670.05a55.33,55.33,0,0,1-5.64,10.68,36.22,36.22,0,0,0-3.36-2.22c4.08-5.33,7.32-13.61,9.18-21.89l3.84.84c-.78,3-1.62,6-2.64,8.88h18.18Zm-12.78,27a106.51,106.51,0,0,0-9.3-13.92l3.06-1.79a102.47,102.47,0,0,1,9.6,13.61Z"/><path d="M715.53,1868.63a90.29,90.29,0,0,1-6.18,12.84v40.43h-4v-34.19a70.15,70.15,0,0,1-6.36,7.79,23.56,23.56,0,0,0-2.28-3.9c5.94-5.81,11.58-14.81,15.06-24Zm35.76,47v3.84H713.85v-3.84h21.06a266.82,266.82,0,0,0,5.88-30.05l4.14.77c-1.56,9.25-4,21.18-6.3,29.28Zm-2.52-33.47H716.49v-3.84h32.28Zm-24.12,30.53a209.72,209.72,0,0,0-4.2-25.8l3.6-.71a205.18,205.18,0,0,1,4.56,25.37Zm6.84-35.21a72.34,72.34,0,0,0-2.88-9.48l3.72-1a88.64,88.64,0,0,1,3.06,9.36Z"/><path d="M810.69,1917.1v3.06h-52.8v-3.06H766v-25.19h13.86c.18-1.15.48-2.41.72-3.78H758.49V1885h22.68c.18-1.2.42-2.46.6-3.6H761.49v-11.7h46.2v11.7H785.85c-.24,1.14-.48,2.4-.72,3.6h24.3v3.18h-25q-.45,2.05-.9,3.78h18.84v25.19Zm-35.34-44.45h-10v5.7h10Zm-5.52,22v3.59h28.56v-3.59Zm28.56,6.11H769.83v3.66h28.56Zm-28.56,10h28.56v-3.84H769.83Zm0,6.36h28.56v-3.9H769.83Zm9.24-38.75h10.38v-5.7H779.07Zm14,0h10.56v-5.7H793.11Z"/><path d="M829.41,1885.67a9.06,9.06,0,1,1-9.06,9A9.09,9.09,0,0,1,829.41,1885.67Zm0,15.23a6.18,6.18,0,1,0,0-12.36,6.18,6.18,0,1,0,0,12.36Z"/><path d="M491.13,1956.17c4.44,10.31,12.24,20,20.76,24.71a23.11,23.11,0,0,0-3.06,3.36c-9-5.58-16.92-16.32-21.6-28.07h-1v22.43h14.28v4H486.27V1994h-4.14v-11.4H467.91v-4h14.22v-22.43h-1.08c-4.74,11.75-12.66,22.43-21.3,28.25a24.18,24.18,0,0,0-2.88-3.18c8-4.92,15.66-14.76,20.16-25.07H458.37v-4h23.76v-12.72h4.14v12.72h24v4Z"/><path d="M566.13,1978.54a33.64,33.64,0,0,1-8.22,7.38c2.4,2.82,5.22,4.44,8.16,4.38,1.68-.06,2.16-1.5,2.46-5.94a10.31,10.31,0,0,0,3.12,1.62c-.6,6.3-2.1,7.92-5.76,8-4.26,0-8.16-2.22-11.28-6a74.41,74.41,0,0,1-13.68,5.82,36.46,36.46,0,0,0-2.1-3.24,65.61,65.61,0,0,0,13.86-5.34,34.94,34.94,0,0,1-3.84-8.82H534.39v4.38l11.16-1-.06,2.88-11.1,1.08v6.12c0,2.1-.48,3.06-2.16,3.54s-4.38.54-8.94.54a19.42,19.42,0,0,0-1.26-3.18c3.36.12,6.48.06,7.38,0s1.2-.24,1.2-1v-5.7c-4.74.48-9.12.9-12.72,1.2l-.42-3.3c3.54-.24,8.1-.54,13.14-1v-4.68h-12.9v-3.18h12.9v-4.44c-3.78.42-7.68.72-11.28.91a12,12,0,0,0-.9-2.71c8.16-.48,18.18-1.55,23.52-2.94l2.52,2.58c-2.82.66-6.36,1.26-10.08,1.74v4.86h13.68a52.67,52.67,0,0,1-1.2-8.94h3.84a57.48,57.48,0,0,0,1.2,8.94h19v3.18H552.81a31.91,31.91,0,0,0,3.12,6.9,27.09,27.09,0,0,0,6.72-5.94Zm4.62-15.17h-53v-3.24h24.36V1956h-18.6v-3.06h18.6v-4H520.29v-3.18H533a30,30,0,0,0-3.48-5.16l3.42-1.26a24.4,24.4,0,0,1,4.32,6.24l-.42.18h14.64a54.7,54.7,0,0,0,3.6-6.6l4.14,1.2c-1.2,1.86-2.52,3.84-3.72,5.4h12.84V1949H546.15v4h18.9V1956h-18.9v4.14h24.6Zm-5.7,9a34,34,0,0,0-9.48-5.52l2.16-2.46a38.32,38.32,0,0,1,9.66,5.22Z"/><path d="M606.69,1988.62a70.7,70.7,0,0,0,7.38.36c2.1.06,14.76,0,17.58-.06a16.36,16.36,0,0,0-1.44,3.84H614c-12.3,0-19.92-1.92-24.72-10.38a31.55,31.55,0,0,1-9.48,11.7,19.84,19.84,0,0,0-3.06-2.82c6.3-4.14,10.2-10.92,11.82-19.86l4,.6a55.92,55.92,0,0,1-1.5,6.06c2.34,5.64,6.3,8.52,11.7,9.84v-18.54H578v-3.6h52.68v3.6H606.69v7.08h20v3.6h-20Zm17.22-27.17h-39.6v-19.56h39.6Zm-4-16.44H588.21v5.16h31.68Zm0,8.1H588.21v5.27h31.68Z"/><path d="M667.53,1951.91a81.39,81.39,0,0,1-3.48,9.3V1994h-3.48v-26.1a37.81,37.81,0,0,1-4.32,5.94,17.86,17.86,0,0,0-1.86-2.88v18.18c0,2.1-.42,3.18-1.74,3.84s-3.42.72-7,.72a14.67,14.67,0,0,0-1.14-3.6c2.58.12,4.8.06,5.4.06.78,0,1.08-.24,1.08-1v-18c-1.86,1.62-3.78,3.18-5.64,4.74l-1.44-2.76c-.36,7.08-1.38,15.12-4.32,21.06a10.8,10.8,0,0,0-2.7-2.52c3.42-7.14,3.72-17.4,3.72-25.25v-24.84h13.8v29.15c4.38-5.22,7.8-13.26,9.48-19.73ZM644,1966.37c0,1.85,0,4-.12,6.11,1.86-1.26,4.44-3,7.08-4.92v-7l-2.1,1.43a53,53,0,0,0-4.86-6.59Zm0-21.12v9.36l1.8-1.2a55.13,55.13,0,0,1,5.16,6.47v-14.63Zm47.4,4.68h-35v-3.72h15.78a36.75,36.75,0,0,0-2.64-5.88l3.6-1.08a37.94,37.94,0,0,1,3.24,7h15.06Zm-1.56,7.86c-1.56,10.19-4.68,18.23-8.88,24.29a32.35,32.35,0,0,0,11.4,8.88,15.78,15.78,0,0,0-2.64,3,33.88,33.88,0,0,1-10.92-9,38.36,38.36,0,0,1-11,9.06,17.17,17.17,0,0,0-2.34-2.82,34.24,34.24,0,0,0,11.16-9.18,54.78,54.78,0,0,1-5.88-11.7,38.4,38.4,0,0,1-3.9,5.58,13,13,0,0,0-2.4-2.4c4.92-5.82,8.34-15,9.9-22.43l3.6.78c-.48,1.68-1,3.54-1.56,5.34h10.5l.66-.19Zm-11.16,21.35a41.23,41.23,0,0,0,3.72-7,105.85,105.85,0,0,0-8.88-7.26c-.3.59-.6,1.19-.9,1.85A51.7,51.7,0,0,0,678.69,1979.14Zm-3.42-18.65a16.3,16.3,0,0,1-.78,1.85c3,2.16,6.66,5,9,7a61.56,61.56,0,0,0,2.46-8.87Z"/><path d="M750.33,1944v7.74h-4v-4.44H731.43v4.08c0,1.32.18,1.74,1.68,1.74h9.18a27.25,27.25,0,0,0,4.62-.36c.12,1.08.18,2,.36,2.94a25.49,25.49,0,0,1-4.68.3H732.21c-4,0-4.74-1.45-4.74-4.68v-4h-6.84c-1.14,6.54-5.46,8.82-18.3,10a9.17,9.17,0,0,0-1.8-3.06c11.46-.72,15.12-2.22,16.08-6.9h-14V1952h-3.9v-8h23.64c-.48-1.38-1.08-2.76-1.62-4l4-.84a49.46,49.46,0,0,1,2.1,4.86Zm-2.52,45.29c0,2-.42,3-2,3.66s-4.26.6-8.7.6a11.69,11.69,0,0,0-1.38-3.36c3.36.12,6.3.06,7,0,.9,0,1.14-.18,1.14-.9V1976H705V1994h-3.9v-21.24H707v-14.4h35.46v14.4h5.34Zm-37.08-16.5h7.68v-7.32h20.22v-3.89h-27.9Zm5.28,16.44v2.34h-3.66v-12.12H737v9.78Zm0-7.2v4.62h17.22V1982Zm22.62-14h-16.5v4.8h16.5Z"/><path d="M769.41,1957.67a9.06,9.06,0,1,1-9.06,9A9.09,9.09,0,0,1,769.41,1957.67Zm0,15.23a6.18,6.18,0,1,0,0-12.36,6.18,6.18,0,1,0,0,12.36Z"/><path d="M384.27,2024.63a67.67,67.67,0,0,1-5.4,8.45v33.18h-3.78v-28.5a55.81,55.81,0,0,1-6,5.94,23.11,23.11,0,0,0-2.4-3.41,57.79,57.79,0,0,0,14-16.92Zm-1.44-11.88a59.41,59.41,0,0,1-13.32,14.1,20,20,0,0,0-2.22-2.82c4.44-3.3,9.42-8.4,11.94-12.66Zm33.42,30.42a34,34,0,0,1-11.58,13.91,56.54,56.54,0,0,0,16.08,5.52,13.63,13.63,0,0,0-2.46,3.48,58.51,58.51,0,0,1-17.16-6.72,63.26,63.26,0,0,1-17.7,6.78,10.39,10.39,0,0,0-2-3.42,62.23,62.23,0,0,0,16.26-5.64,41.7,41.7,0,0,1-7.2-6.54,42.74,42.74,0,0,1-4.86,4.08,25.12,25.12,0,0,0-2.76-2.94,46.2,46.2,0,0,0,5.28-4.08,34,34,0,0,1-2.82-4.38l3.3-1.2a19.06,19.06,0,0,0,2,3.18,40.7,40.7,0,0,0,5.82-7.86c-9,.6-10.5.91-11.64,1.26a33.39,33.39,0,0,0-1.2-3.77c1.62-.19,3.78-1.26,6.6-2.88,1.44-.78,4.38-2.58,7.8-4.87-9.36.49-10.92.73-11.82,1.09a28.56,28.56,0,0,0-1.26-3.84,10.79,10.79,0,0,0,3.9-2.16A67.38,67.38,0,0,0,399.51,2012l3.9,1.8a87.44,87.44,0,0,1-11.7,10.32l11.1-.36a87.91,87.91,0,0,0,8.22-6.6l3.66,2.1a135.45,135.45,0,0,1-22.44,15l20.1-1.08c-1.5-1.87-2.94-3.72-4.38-5.29l3.06-1.61a90.33,90.33,0,0,1,10,13l-3.24,1.92c-.78-1.38-2-3.12-3.24-5-5.58.35-10.14.66-13.68.83a52.18,52.18,0,0,1-3,5h15.18l.72-.18Zm-20.94,2.21a33.51,33.51,0,0,1-2.34,2.76,40,40,0,0,0,8.16,6.9,31.13,31.13,0,0,0,9.72-9.66Z"/><path d="M477.15,2060.32c0,2.76-.78,4-2.64,4.68s-5.46.72-11.1.66a12.92,12.92,0,0,0-1.38-3.84c4.32.18,8.4.12,9.6.06s1.56-.42,1.56-1.56v-12.78H456.45v17.94h-4v-17.94H437c-.9,6.72-2.88,13.56-7.56,18.78a11.58,11.58,0,0,0-3-2.64c6.6-7.44,7.26-18,7.26-26.46v-21.59h43.44Zm-24.66-16.56v-10.5H437.61v4c0,2.11-.06,4.26-.24,6.54Zm-14.88-24.35v10.13h14.88v-10.13Zm35.58,0H456.45v10.13h16.74Zm0,24.35v-10.5H456.45v10.5Z"/><path d="M513.27,2014.49H498.45v35.15h-4v-38.87h18.78Z"/><path d="M547.53,2023.91a81.39,81.39,0,0,1-3.48,9.3V2066h-3.48v-26.1a37.81,37.81,0,0,1-4.32,5.94,17.86,17.86,0,0,0-1.86-2.88v18.18c0,2.1-.42,3.18-1.74,3.84s-3.42.72-7,.72a14.67,14.67,0,0,0-1.14-3.6c2.58.12,4.8.06,5.4.06.78,0,1.08-.24,1.08-1v-18c-1.86,1.62-3.78,3.18-5.64,4.74l-1.44-2.76c-.36,7.08-1.38,15.12-4.32,21.06a10.8,10.8,0,0,0-2.7-2.52c3.42-7.14,3.72-17.4,3.72-25.25v-24.84h13.8v29.15c4.38-5.22,7.8-13.26,9.48-19.73ZM524,2038.37c0,1.85,0,4-.12,6.11,1.86-1.26,4.44-3,7.08-4.92v-7l-2.1,1.43a53,53,0,0,0-4.86-6.59Zm0-21.12v9.36l1.8-1.2a55.13,55.13,0,0,1,5.16,6.47v-14.63Zm47.4,4.68h-35v-3.72h15.78a36.75,36.75,0,0,0-2.64-5.88l3.6-1.08a37.94,37.94,0,0,1,3.24,7h15.06Zm-1.56,7.86c-1.56,10.19-4.68,18.23-8.88,24.29a32.35,32.35,0,0,0,11.4,8.88,15.78,15.78,0,0,0-2.64,3,33.88,33.88,0,0,1-10.92-9,38.36,38.36,0,0,1-11,9.06,17.17,17.17,0,0,0-2.34-2.82,34.24,34.24,0,0,0,11.16-9.18,54.78,54.78,0,0,1-5.88-11.7,38.4,38.4,0,0,1-3.9,5.58,13,13,0,0,0-2.4-2.4c4.92-5.82,8.34-15,9.9-22.43l3.6.78c-.48,1.68-1,3.54-1.56,5.34h10.5l.66-.19Zm-11.16,21.35a41.23,41.23,0,0,0,3.72-7,105.85,105.85,0,0,0-8.88-7.26c-.3.59-.6,1.19-.9,1.85A51.7,51.7,0,0,0,558.69,2051.14Zm-3.42-18.65a16.3,16.3,0,0,1-.78,1.85c3,2.16,6.66,5,9,7a61.56,61.56,0,0,0,2.46-8.87Z"/><path d="M575.19,2062.84H590v-35.15h4v38.87H575.19Z"/><path d="M658.35,2043a100.84,100.84,0,0,1-11.7,8.58,36.22,36.22,0,0,0,15.3,8.76,24.16,24.16,0,0,0-2.64,3.48c-12.3-4.08-20.82-13.2-25.38-25.61h-.18a53.79,53.79,0,0,1-9.6,8V2060l14.88-4.5a18.38,18.38,0,0,0,.6,3.42c-16.62,5.4-18.66,6.12-20,7a14.6,14.6,0,0,0-1.74-3.66,3.9,3.9,0,0,0,2.16-3.78v-9.72a71.36,71.36,0,0,1-10.68,5.1,19.48,19.48,0,0,0-2.64-3.24,62.5,62.5,0,0,0,21.9-12.41H608.43v-3.54h23.7v-5.64H613.77v-3.36h18.36v-5.4H610.77v-3.48h21.36v-5.52h4v5.52h22v3.48h-22v5.4h19.32v3.36H636.15v5.64H660v3.54H637.77a38.86,38.86,0,0,0,6.6,11,80.68,80.68,0,0,0,10.74-8.46Z"/><path d="M682.47,2041.78a58,58,0,0,1-12.06,19.14,26,26,0,0,0-3.66-2.46,47,47,0,0,0,11.64-17.75Zm13.62-7.91v31.79H692v-31.79H668.07v-4h52.5v4Zm19.2-14.22H673.41v-3.9h41.88Zm-5.16,20.93c4.5,5.58,9.24,13.14,11,18.24l-3.9,1.8c-1.74-5-6.3-12.78-10.8-18.48Z"/><path d="M757.53,2023.91a81.39,81.39,0,0,1-3.48,9.3V2066h-3.48v-26.1a37.81,37.81,0,0,1-4.32,5.94,17.86,17.86,0,0,0-1.86-2.88v18.18c0,2.1-.42,3.18-1.74,3.84s-3.42.72-7,.72a14.67,14.67,0,0,0-1.14-3.6c2.58.12,4.8.06,5.4.06.78,0,1.08-.24,1.08-1v-18c-1.86,1.62-3.78,3.18-5.64,4.74l-1.44-2.76c-.36,7.08-1.38,15.12-4.32,21.06a10.8,10.8,0,0,0-2.7-2.52c3.42-7.14,3.72-17.4,3.72-25.25v-24.84h13.8v29.15c4.38-5.22,7.8-13.26,9.48-19.73ZM734,2038.37c0,1.85,0,4-.12,6.11,1.86-1.26,4.44-3,7.08-4.92v-7l-2.1,1.43a53,53,0,0,0-4.86-6.59Zm0-21.12v9.36l1.8-1.2a55.13,55.13,0,0,1,5.16,6.47v-14.63Zm47.4,4.68h-35v-3.72h15.78a36.75,36.75,0,0,0-2.64-5.88l3.6-1.08a37.94,37.94,0,0,1,3.24,7h15.06Zm-1.56,7.86c-1.56,10.19-4.68,18.23-8.88,24.29a32.35,32.35,0,0,0,11.4,8.88,15.78,15.78,0,0,0-2.64,3,33.88,33.88,0,0,1-10.92-9,38.36,38.36,0,0,1-11,9.06,17.17,17.17,0,0,0-2.34-2.82,34.24,34.24,0,0,0,11.16-9.18,54.78,54.78,0,0,1-5.88-11.7,38.4,38.4,0,0,1-3.9,5.58,13,13,0,0,0-2.4-2.4c4.92-5.82,8.34-15,9.9-22.43l3.6.78c-.48,1.68-1,3.54-1.56,5.34h10.5l.66-.19Zm-11.16,21.35a41.23,41.23,0,0,0,3.72-7,105.85,105.85,0,0,0-8.88-7.26c-.3.59-.6,1.19-.9,1.85A51.7,51.7,0,0,0,768.69,2051.14Zm-3.42-18.65a16.3,16.3,0,0,1-.78,1.85c3,2.16,6.66,5,9,7a61.56,61.56,0,0,0,2.46-8.87Z"/><path d="M840.33,2016v7.74h-4v-4.44H821.43v4.08c0,1.32.18,1.74,1.68,1.74h9.18a27.25,27.25,0,0,0,4.62-.36c.12,1.08.18,2,.36,2.94a25.49,25.49,0,0,1-4.68.3H822.21c-4,0-4.74-1.45-4.74-4.68v-4h-6.84c-1.14,6.54-5.46,8.82-18.3,10a9.17,9.17,0,0,0-1.8-3.06c11.46-.72,15.12-2.22,16.08-6.9h-14V2024h-3.9v-8h23.64c-.48-1.38-1.08-2.76-1.62-4l4-.84a49.46,49.46,0,0,1,2.1,4.86Zm-2.52,45.29c0,2-.42,3-2,3.66s-4.26.6-8.7.6a11.69,11.69,0,0,0-1.38-3.36c3.36.12,6.3.06,7,0,.9,0,1.14-.18,1.14-.9V2048H795V2066h-3.9v-21.24H797v-14.4h35.46v14.4h5.34Zm-37.08-16.5h7.68v-7.32h20.22v-3.89h-27.9Zm5.28,16.44v2.34h-3.66v-12.12H827v9.78Zm0-7.2v4.62h17.22V2054Zm22.62-14h-16.5v4.8h16.5Z"/><path d="M853.11,2047c4.68-2,7.26-4.86,7.56-9.17a4,4,0,0,1-1.14.11c-2.34,0-4.26-1.31-4.26-4.07a4,4,0,0,1,4.32-4.08c3.18,0,4.86,2.58,4.86,6.66,0,6.41-4,11.21-10.08,13.43Z"/><path d="M290.91,2090.69c-.84,3.12-1.8,6.42-2.7,9.06h24.66v32.93c0,2.46-.54,3.6-2.22,4.26s-4.8.72-9.12.72a12.47,12.47,0,0,0-1.38-3.78c3.54.12,6.6.06,7.5,0s1.2-.3,1.2-1.2v-29.22H298.17V2136h-4v-32.58H283.77V2136h-3.9v-32.58h-10V2138h-4v-38.27h18.24c.84-2.71,1.56-6.12,2.16-9.06H262.71v-4h53.34v4Z"/><path d="M348.27,2086.49H333.45v35.15h-4v-38.87h18.78Z"/><path d="M389.55,2097.83v34.79c0,2.7-.66,3.9-2.46,4.56-2,.72-5.22.78-10.26.78a18.19,18.19,0,0,0-1.38-4.08c4,.12,7.62.12,8.76.06s1.32-.3,1.32-1.32v-34.79H375v7.08c0,10.49-1.38,23.69-15.18,33.47a13.94,13.94,0,0,0-3-2.94c13-9,14.22-21.12,14.22-30.6v-7H353.07v-4h52.38v4Zm-24.42,7.25c-1.86,7.21-5,14.1-8.58,18.66a30.77,30.77,0,0,0-3.42-2.28c3.6-4.2,6.42-10.62,8-17.09Zm14.52-11.51a52.51,52.51,0,0,0-5-9.24l3.72-1.26a55.47,55.47,0,0,1,5.22,9Zm16.68,10.8c3.84,6.05,7.86,14.21,9.3,19.31l-3.72,1.62c-1.38-5.1-5.16-13.38-9-19.55Z"/><path d="M410.19,2134.84H425v-35.15h4v38.87H410.19Z"/><path d="M459.21,2084.63a84.89,84.89,0,0,1-6.18,12.9v40.31h-3.84v-34.31a62.31,62.31,0,0,1-6.42,7.91,20.27,20.27,0,0,0-2.34-3.84c6-5.81,11.64-14.81,15.06-24ZM497.07,2103v3.65H456.15V2103h10.74v-8.52h-8.16v-3.54h8.16v-7h3.78v7h11.76v-7h3.84v7h8.52v3.54h-8.52V2103Zm-34.44,8.69h29v26.16h-3.9v-2.46H466.47v2.76h-3.84Zm3.84,3.42v6.72h21.24v-6.72ZM487.71,2132v-6.9H466.47v6.9Zm-17-29h11.76v-8.52H470.67Z"/><path d="M531.09,2110.13c5.34,9.17,15.54,17.81,25.68,21.65a14.63,14.63,0,0,0-2.88,3.54c-8.46-3.72-16.86-10.74-22.8-18.78V2138h-4V2116.6a63.16,63.16,0,0,1-22.5,18.48,17.92,17.92,0,0,0-2.82-3.3,58.29,58.29,0,0,0,25.32-21.3v-14.75H503.79v-3.9h23.28v-8.4h4v8.4h24.06v3.9H531.09ZM518.25,2098a48.37,48.37,0,0,1-2.4,7.21,79.05,79.05,0,0,1,7,6.83l-2.76,2.71a67.8,67.8,0,0,0-5.88-6.07,32.44,32.44,0,0,1-7.74,9.6c-.66-.66-2.28-1.92-3.12-2.58,5.46-4.07,9.24-10.62,11-18.41Zm28.26-.05a53.26,53.26,0,0,1-2.1,7.2,126.18,126.18,0,0,1,11,9.48l-2.82,2.75a100,100,0,0,0-9.72-8.93,28.54,28.54,0,0,1-5.46,7.49,22.47,22.47,0,0,0-3.36-2.22c4.44-3.72,7.26-9.59,8.58-16.43Z"/><path d="M613.35,2115a100.84,100.84,0,0,1-11.7,8.58,36.22,36.22,0,0,0,15.3,8.76,24.16,24.16,0,0,0-2.64,3.48c-12.3-4.08-20.82-13.2-25.38-25.61h-.18a53.79,53.79,0,0,1-9.6,8V2132l14.88-4.5a18.38,18.38,0,0,0,.6,3.42c-16.62,5.4-18.66,6.12-20,7a14.6,14.6,0,0,0-1.74-3.66,3.9,3.9,0,0,0,2.16-3.78v-9.72a71.36,71.36,0,0,1-10.68,5.1,19.48,19.48,0,0,0-2.64-3.24,62.5,62.5,0,0,0,21.9-12.41H563.43v-3.54h23.7v-5.64H568.77v-3.36h18.36v-5.4H565.77v-3.48h21.36v-5.52h4v5.52h22v3.48h-22v5.4h19.32v3.36H591.15v5.64H615v3.54H592.77a38.86,38.86,0,0,0,6.6,11,80.68,80.68,0,0,0,10.74-8.46Z"/><path d="M637.47,2113.78a58,58,0,0,1-12.06,19.14,26,26,0,0,0-3.66-2.46,47,47,0,0,0,11.64-17.75Zm13.62-7.91v31.79H647v-31.79H623.07v-4h52.5v4Zm19.2-14.22H628.41v-3.9h41.88Zm-5.16,20.93c4.5,5.58,9.24,13.14,11,18.24l-3.9,1.8c-1.74-5-6.3-12.78-10.8-18.48Z"/><path d="M708.27,2086.49H693.45v35.15h-4v-38.87h18.78Z"/><path d="M755.07,2133.28c5.64,0,6.48-2.1,7.26-10.8a14.42,14.42,0,0,0,3.78,1.56c-.9,9.72-2.52,12.9-11.1,12.9H733.59c-8.58,0-11.16-1.8-11.16-9.12v-19.37l-10,3.05-1.08-3.48,11.1-3.41v-17.16h3.84v16l13-4v-16h4v14.82l14.46-4.5,1.08-.9,3,.9-.18.78c-.36,8.27-1.08,19.14-2.28,25.73l-3.36-.9a208.48,208.48,0,0,0,1.68-21.78l-14.4,4.5v23.28h-4v-22.13l-13,4.07v20.64c0,4.26,1.26,5.34,7.14,5.34Z"/><path d="M770.19,2134.84H785v-35.15h4v38.87H770.19Z"/><path d="M822.75,2116.06l-3.66,3.12a93.63,93.63,0,0,0-13.32-13.38l3.42-3.11A118.53,118.53,0,0,1,822.75,2116.06Z"/><path d="M858.27,2086.49H843.45v35.15h-4v-38.87h18.78Z"/><path d="M910.29,2088.83c-3.48,13.74-9.9,24.3-18.06,32.27A57.36,57.36,0,0,0,917,2133.88a15.56,15.56,0,0,0-2.64,3.54,58.72,58.72,0,0,1-25.2-13.56,72.49,72.49,0,0,1-25,13.62,10.78,10.78,0,0,0-2.46-3.54,70.44,70.44,0,0,0,24.6-12.84c-7.38-7.74-12.66-17.69-16.32-29.33h-4.8v-4h41.7l.78-.24Zm-36.3,2.94c3.36,10.38,8.4,19.44,15.36,26.63a59.85,59.85,0,0,0,16.08-26.63Z"/><path d="M920.19,2134.84H935v-35.15h4v38.87H920.19Z"/><path d="M964.41,2101.67a9.06,9.06,0,1,1-9.06,9A9.09,9.09,0,0,1,964.41,2101.67Zm0,15.23a6.18,6.18,0,1,0,0-12.36,6.18,6.18,0,1,0,0,12.36Z"/><path class="cls-1" d="M1157.28,1239.79a27.61,27.61,0,0,0,11.5,8.1,11.65,11.65,0,0,0-2.15,2.55,30.77,30.77,0,0,1-12.8-10.65h-15.95a34.39,34.39,0,0,1-13,11.3,11.43,11.43,0,0,0-2.15-2.55,30.39,30.39,0,0,0,11.6-8.75h-11.1v-2.85h10v-16.15h-7.7V1218h7.7v-5h3.3v5H1155v-5h3.35v5H1166v2.8h-7.65v16.15h9.8v2.85Zm-10,14.5h17.3v2.85H1127v-2.85h16.9v-5.6h-10.45v-2.8h10.45v-4.4h3.35v4.4h10.65v2.8h-10.65Zm-10.8-33.5v3.6H1155v-3.6Zm0,9.8H1155v-3.65h-18.55Zm0,6.35H1155v-3.8h-18.55Z"/><path class="cls-1" d="M1141.48,1281.54s0,1.15,0,1.55c-.6,15.85-1.2,21.2-2.6,23a3.71,3.71,0,0,1-2.8,1.45,32.65,32.65,0,0,1-4.45,0,9.25,9.25,0,0,0-.85-3c1.75.15,3.2.15,3.9.15a1.42,1.42,0,0,0,1.45-.65c1-1.2,1.6-6,2.15-19.35h-6.8c-.55,10-2,18.25-6.45,23.65a9.53,9.53,0,0,0-2.55-2.35c5.45-6.45,5.9-17.85,6.1-31.55h-5.2v-3.1h20.1v3.1h-11.65c0,2.45-.1,4.85-.2,7.15Zm-7.9-10.45a33.47,33.47,0,0,0-4.25-7.15l2.9-1.15a31.92,31.92,0,0,1,4.4,7Zm23.85-7.45a15.26,15.26,0,0,1-.85,2.55c2.65,5.45,7.7,11.35,12.45,14a13,13,0,0,0-2.45,2.75c-4.25-2.7-8.5-8-11.4-13.3a32.61,32.61,0,0,1-11,13.6,12.79,12.79,0,0,0-2.35-2.65c5.85-3.6,10.35-10.2,12.5-17.85Zm-8.3,32.45a74,74,0,0,1,13.6,8.25l-2.25,2.9c-2.85-2.6-8.75-6.3-13.4-8.65Zm9.5-4.85a66.22,66.22,0,0,0-8.6-6.85l2.15-2.2a67.46,67.46,0,0,1,8.75,6.55Z"/><path class="cls-1" d="M1164.23,1316.19v29.3h-3.5v-2.55h-13.3v15.6H1144v-15.6h-13.4v2.75h-3.35v-29.5Zm-33.65,3.2V1328H1144v-8.65Zm13.4,20.35v-8.5h-13.4v8.5Zm16.75-20.35h-13.3V1328h13.3Zm0,20.35v-8.5h-13.3v8.5Z"/><path class="cls-1" d="M1166.48,1378.09v9.3h-3.15V1381h-35.4v6.4h-3v-9.3h6.95v-12.95h27.7v12.95Zm-6.45,26.6c0,1.85-.45,2.7-1.85,3.2s-3.9.5-7.7.45a8.57,8.57,0,0,0-1.1-2.75c3,.05,5.65.05,6.4.05s1-.25,1-1v-6.2c-7.3,1.45-14.85,3-20.45,4l-1.1-3c5.4-.8,13.6-2.3,21.55-3.75V1387h-22.2v5.3c0,4.85-.65,11.55-4.35,16.2a13.29,13.29,0,0,0-2.7-2c3.45-4.25,3.85-10,3.85-14.25v-8H1160Zm-25-26.6h7.45v-6.9h13.75v-3.35H1135Zm2.45,11.7a75.14,75.14,0,0,1,17.7,3l-.9,2.6c-4-1.5-11.7-2.9-17.7-3.35Zm18.75-16.3h-10.75v4.6h10.75Z"/><path class="cls-1" d="M1160.23,1425.09a51.83,51.83,0,0,1-12,19.6,49.94,49.94,0,0,0,20.5,10.5,16.79,16.79,0,0,0-2.25,3,50.92,50.92,0,0,1-20.75-11.1c-5.65,5-12.55,8.6-21,11.3a15.53,15.53,0,0,0-2-3.05c8.35-2.45,15.1-5.9,20.6-10.6a57.05,57.05,0,0,1-12.2-19.65h-7.75v-3.25h44.75v3.25Zm-25.75,0a52.13,52.13,0,0,0,11.3,17.3,47.46,47.46,0,0,0,10.7-17.3Zm11.25-3.55a38.13,38.13,0,0,0-3.8-7.8l3.4-1a39,39,0,0,1,4,7.65Z"/><path class="cls-1" d="M1132.93,446.82c1.25,1.6,4.9,6.7,5.7,8.05l-2,2.45c-.7-1.5-2.35-4.4-3.75-6.65V477h-3.15V452.57c-1.5,5.05-3.5,9.9-5.55,12.85a14.83,14.83,0,0,0-1.75-3.1c2.9-4,5.8-11.5,7.2-18h-6.2v-3.15h6.3v-9.65h3.15v9.65h5.45v3.15h-5.45Zm19.1.7a19.47,19.47,0,0,0,.45,2.65c-10.15,2.7-11.6,3.15-12.5,3.75a12.13,12.13,0,0,0-1.1-3.2c.7-.2,1.55-.5,1.55-2.2v-16.7h3.25v6.5H1152v2.9h-8.35v8.3Zm2.35,5.5-2,3.75h12.65V477h-3.4v-1.75h-17v2h-3.3V456.77h7.9c.55-1.5,1.2-3.25,1.55-4.6Zm7.3,6.5h-17v5.05h17Zm0,13v-5.3h-17v5.3Zm2.25-22.4c1.25,0,1.5-.75,1.65-5.25a9.16,9.16,0,0,0,2.85,1.25c-.3,5.45-1.2,6.95-4.15,6.95h-5.85c-3.65,0-4.55-.95-4.55-4.45V431.87h3.25v6.5h10.2v2.9h-10.2v7.35c0,1.3.25,1.5,1.65,1.5Z"/><path class="cls-1" d="M1167.78,506.87v2.5h-44.15v-2.5h20.25v-3.2H1127v-2.3h16.85v-3h-15.45v-2.25h15.45v-3.2h-20.15v-2.5h20.15v-3.05H1129V485h14.85v-3.55h3.25V485h14.45v5.4h6.15v2.5h-6.15v5.45h-14.45v3h17.3v2.3h-17.3v3.2Zm-37.75,5h31.75v15.25h-3.25v-1.6h-25.3v1.7H1130Zm3.2,2.4v3.2h25.3v-3.2Zm25.3,8.85v-3.4h-25.3v3.4Zm-11.4-32.7h11.15v-3.05h-11.15Zm0,5.7h11.15v-3.2h-11.15Z"/><line class="cls-3" x1="294.7" y1="1111" x2="943.2" y2="1111"/><line class="cls-3" x1="619" y1="969.5" x2="618.95" y2="1343.94"/><line class="cls-3" x1="342.83" y1="1654.5" x2="618.58" y2="1356.22"/><line class="cls-3" x1="895.68" y1="1654.5" x2="619.92" y2="1356.22"/><line class="cls-3" x1="307" y1="1440.99" x2="484" y2="1250.84"/><line class="cls-3" x1="933.2" y1="1441.36" x2="756.2" y2="1251.2"/></svg>