<svg id="Layer_1" data-name="Layer 1" xmlns="http://www.w3.org/2000/svg" viewBox="0 0 1242 2208"><defs><style>.cls-1{fill:#f6eabe;}.cls-2{fill:#999;}.cls-3,.cls-4{fill:none;}.cls-4{stroke:#000;stroke-linecap:round;stroke-miterlimit:10;stroke-width:50px;}</style></defs><rect class="cls-1" width="1242" height="2208"/><path d="M499.61,166.86C475,227.2,446.41,287.54,413.06,343.92V870.33h-52.4V424.9c-27,37.32-57.17,72.26-86.55,103.22-5.56-12.7-22.23-38.9-32.55-51.61C324.13,397.91,401.15,275.63,448,150.18Zm461.3,590.73v55.58H470.23V757.59ZM925.18,339.15H516.28V284.37h408.9Z"/><rect class="cls-2" x="1114" y="437" width="65" height="126" rx="12"/><path class="cls-1" d="M1133.7,466.82c1.25,1.6,4.9,6.7,5.7,8.05l-2,2.45c-.7-1.5-2.35-4.4-3.75-6.65V497h-3.15V472.57c-1.5,5.05-3.5,9.9-5.55,12.85a14.83,14.83,0,0,0-1.75-3.1c2.9-4,5.8-11.5,7.2-18h-6.2v-3.15h6.3v-9.65h3.15v9.65h5.45v3.15h-5.45Zm19.1.7a19.47,19.47,0,0,0,.45,2.65c-10.15,2.7-11.6,3.15-12.5,3.75a12.13,12.13,0,0,0-1.1-3.2c.7-.2,1.55-.5,1.55-2.2v-16.7h3.25v6.5h8.35v2.9h-8.35v8.3Zm2.35,5.5-2,3.75h12.65V497h-3.4v-1.75h-17v2h-3.3V476.77h7.9c.55-1.5,1.2-3.25,1.55-4.6Zm7.3,6.5h-17v5.05h17Zm0,13v-5.3h-17v5.3Zm2.25-22.4c1.25,0,1.5-.75,1.65-5.25a9.16,9.16,0,0,0,2.85,1.25c-.3,5.45-1.2,6.95-4.15,6.95h-5.85c-3.65,0-4.55-.95-4.55-4.45V451.87h3.25v6.5h10.2v2.9h-10.2v7.35c0,1.3.25,1.5,1.65,1.5Z"/><path class="cls-1" d="M1168.55,526.87v2.5H1124.4v-2.5h20.25v-3.2H1127.8v-2.3h16.85v-3H1129.2v-2.25h15.45v-3.2H1124.5v-2.5h20.15v-3.05H1129.8V505h14.85v-3.55h3.25V505h14.45v5.4h6.15v2.5h-6.15v5.45H1147.9v3h17.3v2.3h-17.3v3.2Zm-37.75,5h31.75v15.25h-3.25v-1.6H1134v1.7h-3.2Zm3.2,2.4v3.2h25.3v-3.2Zm25.3,8.85v-3.4H1134v3.4Zm-11.4-32.7h11.15v-3.05H1147.9Zm0,5.7h11.15v-3.2H1147.9Z"/><path d="M244,1845.49H229.22v35.15h-4v-38.87H244Z"/><path d="M277.28,1842.55c-.06,2.1-.12,5.1-.42,8.64.9,7,4.56,32.51,25.74,42a12.63,12.63,0,0,0-2.88,3.36c-15.42-7.26-21.72-22.74-24.6-34-2.64,12.23-8.94,26.33-24.06,34.19a13.77,13.77,0,0,0-3.12-3.06c25-12.48,24.78-42.11,25-51.11Z"/><path d="M306,1893.84h14.82v-35.15h4v38.87H306Z"/><path d="M358.16,1855.62a67.64,67.64,0,0,1-7.2,12.25v28.85h-4v-24a41.57,41.57,0,0,1-7.26,6.41,17,17,0,0,0-2-3.48c7-5,12.3-12.23,16.14-20H339v-3.83h16.44a65.25,65.25,0,0,0,3.3-9.42l4.08,1c-.9,2.82-1.86,5.64-3,8.4H391.1v3.83Zm32.94,36.24v3.72H355v-3.72h16v-17.52H357.32v-3.72H371v-11.81h4v11.81h13.8v3.72H375v17.52Z"/><path d="M418.52,1857.12c-3.48,13.74-9,27.06-18.84,36.12a31.63,31.63,0,0,0-2.64-3.12c9-8.1,14.22-20.33,17.46-33H399.32v-3.89h16.14c.78-3.66,1.44-7.32,2-10.86l4,.54c-.54,3.36-1.2,6.84-2,10.32h31.08v3.89Zm33.18,34.2v3.84H408.92v-3.84h19.74v-18.54H415v-3.84h33.84v3.84H432.74v18.54Z"/><path d="M463.88,1878c4.68-2,7.26-4.86,7.56-9.17a4,4,0,0,1-1.14.11c-2.34,0-4.26-1.32-4.26-4.07a4,4,0,0,1,4.32-4.08c3.18,0,4.86,2.58,4.86,6.66,0,6.41-4,11.21-10.08,13.43Z"/><path d="M514,1845.49H499.22v35.15h-4v-38.87H514Z"/><path d="M571.46,1886.46v4.38H518.6v-4.38Zm-5-35.51v4.26H523.64V1851Z"/><path d="M576,1893.84h14.82v-35.15h4v38.87H576Z"/><path d="M628.16,1855.62a67.64,67.64,0,0,1-7.2,12.25v28.85h-4v-24a41.57,41.57,0,0,1-7.26,6.41,17,17,0,0,0-2-3.48c7-5,12.3-12.23,16.14-20H609v-3.83h16.44a65.25,65.25,0,0,0,3.3-9.42l4.08,1c-.9,2.82-1.86,5.64-3,8.4H661.1v3.83Zm32.94,36.24v3.72H625v-3.72h16v-17.52H627.32v-3.72H641v-11.81h4v11.81h13.8v3.72H645v17.52Z"/><path d="M689.78,1857.54a74.71,74.71,0,0,1-5.76,11.94h32.7v27.3h-4.14v-3.12H685.22v3.42h-4v-23.4a50.91,50.91,0,0,1-11.46,11.52,21.84,21.84,0,0,0-2.64-3.18c8.64-5.94,14.46-14.76,18.36-24.48H669.08v-3.89H686.9a86,86,0,0,0,3.12-11.34l4.14.84c-.84,3.48-1.8,7-3,10.5h30v3.89Zm-4.56,15.78v16.5h27.36v-16.5Z"/><path d="M733.88,1878c4.68-2,7.26-4.86,7.56-9.17a4,4,0,0,1-1.14.11c-2.34,0-4.26-1.32-4.26-4.07a4,4,0,0,1,4.32-4.08c3.18,0,4.86,2.58,4.86,6.66,0,6.41-4,11.21-10.08,13.43Z"/><path d="M784,1845.49H769.22v35.15h-4v-38.87H784Z"/><path d="M817.28,1842.55c-.06,2.1-.12,5.1-.42,8.64.9,7,4.56,32.51,25.74,42a12.63,12.63,0,0,0-2.88,3.36c-15.42-7.26-21.72-22.74-24.6-34-2.64,12.23-8.94,26.33-24.06,34.19a13.77,13.77,0,0,0-3.12-3.06c25-12.48,24.78-42.11,25-51.11Z"/><path d="M846,1893.84h14.82v-35.15h4v38.87H846Z"/><path d="M915.32,1856.83v34.79c0,2.7-.66,3.9-2.46,4.56-2,.72-5.22.78-10.26.78a18.19,18.19,0,0,0-1.38-4.08c4,.12,7.62.12,8.76.06s1.32-.3,1.32-1.32v-34.79H900.74v7.08c0,10.49-1.38,23.69-15.18,33.47a13.94,13.94,0,0,0-3-2.94c13-9,14.22-21.12,14.22-30.6v-7H878.84v-4h52.38v4Zm-24.42,7.25c-1.86,7.21-5,14.1-8.58,18.66a30.77,30.77,0,0,0-3.42-2.28c3.6-4.2,6.42-10.62,8-17.09Zm14.52-11.51a52.51,52.51,0,0,0-5-9.24l3.72-1.26a55.47,55.47,0,0,1,5.22,9Zm16.68,10.8c3.84,6.05,7.86,14.21,9.3,19.31l-3.72,1.62c-1.38-5.1-5.16-13.38-9-19.55Z"/><path d="M982.34,1888.74h8.76v3.06h-8.76v5.34h-3.9v-5.34H938.6v-3.06h9.12V1873h-7.14v-2.63a11.58,11.58,0,0,0-2.58-1.81,14,14,0,0,0,3.54-10v-3.24H963v9.35H943.94a14.37,14.37,0,0,1-2.64,5.23H990v3h-7.62Zm-32.22-40.91h-11.4v-2.52h11.4v-3h3.66v3h11.16v2.52H953.78v2.82h9.48v2.46H940.7v-2.46h9.42Zm-5.34,9.9v.89a20.14,20.14,0,0,1-.3,3.67h5.94v-4.56Zm6.78,15.23v3.3h26.88V1873Zm0,9.72h26.88V1879H951.56Zm26.88,6.06v-3.3H951.56v3.3Zm-18.66-31h-6.3v4.56h6.3Zm28.14-2.16a19.44,19.44,0,0,1-7,8.22,42.17,42.17,0,0,0,10.32,2.51,14.46,14.46,0,0,0-2.1,2.88,40.74,40.74,0,0,1-11.46-3.6,46.48,46.48,0,0,1-12.18,3.72,9.24,9.24,0,0,0-1.62-2.88,43.8,43.8,0,0,0,10.68-2.7,20.71,20.71,0,0,1-6.18-6.35H966.5v-2a9.34,9.34,0,0,0-2.16-2.4c4.32-1.74,5.16-3.78,5.16-5.82v-2.94h14.82v5.76c0,1.2.12,1.56.9,1.56h3.36a13.19,13.19,0,0,0,2.64-.3c.06.84.18,1.8.24,2.58a9.24,9.24,0,0,1-2.76.3h-4.26c-2.94,0-3.48-1.32-3.48-4.14v-2.82h-8.22v.12c0,2.58-1,5.4-4.86,7.56h17.28l.66-.12Zm-16.08,1.8a17.6,17.6,0,0,0,5.76,4.8,17.65,17.65,0,0,0,5.64-4.8Z"/><path d="M1003.88,1878c4.68-2,7.26-4.86,7.56-9.17a4,4,0,0,1-1.14.11c-2.34,0-4.26-1.32-4.26-4.07a4,4,0,0,1,4.32-4.08c3.18,0,4.86,2.58,4.86,6.66,0,6.41-4,11.21-10.08,13.43Z"/><path d="M338.24,1915.51a13.18,13.18,0,0,1-.84,1.08c5.7,5.64,16.2,10.62,25.56,12.83a12.89,12.89,0,0,0-2.52,3.12,71.7,71.7,0,0,1-14.88-6.17l-.06,1.92H324.74l.06-1.68a89.68,89.68,0,0,1-14.88,6.23,30.91,30.91,0,0,0-2.28-3c10.8-3,21.48-8.28,27.12-15.6Zm-23.16,16H355v14.88h-39.9Zm3.42,12.06h14.7v-9.23H318.5Zm.12,5.82H352v19.38h-4v-1.86h-25.5v2h-3.9Zm6.66-14.22a21.86,21.86,0,0,1,3.78,6.84l-3.06,1.21a27.26,27.26,0,0,0-3.6-7.09Zm-2.76,17.16v4.32H348v-4.32Zm25.5,11.64v-4.38h-25.5v4.38Zm-4.2-38.57a48.46,48.46,0,0,1-8.58-6.42,45.19,45.19,0,0,1-8.34,6.42Zm7.5,8.94H336.56v9.23h14.76Zm-10.62,7.79a53.26,53.26,0,0,0,3.54-7.2l3.36,1.08a73,73,0,0,1-4.14,7.21Z"/><path d="M369.08,1965.48c3.06-2.58,5.64-7,7.08-10.44l3.3,1.5c-1.68,3.6-4.08,8-7.14,10.86Zm51.72-36.9v3.25H369.56v-3.25h14.16a23.89,23.89,0,0,0-2.34-5.45l3.36-.84H372.26V1919h21.9c-.72-1.44-1.56-2.94-2.34-4.2l3.78-.9a39.9,39.9,0,0,1,2.94,5.1h19.2v3.3H405.86l3.24.78c-1,1.92-2,3.84-3,5.51Zm-7,23.7H392.66a47.07,47.07,0,0,1,8.82,6.24L399,1961a48.61,48.61,0,0,0-9.3-6.9l2-1.8H376.58V1935h37.2Zm-3.9-14.45H380.36v4.43h29.52Zm0,7.13H380.36v4.44h29.52Zm-8.22,20.16c2.58,0,3-.72,3.24-6.24a12.08,12.08,0,0,0,3.54,1.38c-.48,6.66-1.74,8.22-6.42,8.22H390.44c-5.82,0-7.38-1-7.38-5v-8H387v8c0,1.38.54,1.68,3.72,1.68ZM385,1922.29a26.19,26.19,0,0,1,2.76,6.18l-.48.11H402a59.18,59.18,0,0,0,3.06-6.29Zm27.66,32.21a46.55,46.55,0,0,1,8,10.2l-3.36,1.74a49,49,0,0,0-7.8-10.56Z"/><path d="M481.46,1958.46v4.38H428.6v-4.38Zm-5-35.51v4.26H433.64V1923Z"/><path d="M517.28,1914.55c-.06,2.1-.12,5.1-.42,8.64.9,7,4.56,32.51,25.74,42a12.63,12.63,0,0,0-2.88,3.36c-15.42-7.26-21.72-22.74-24.6-34-2.64,12.23-8.94,26.33-24.06,34.19a13.77,13.77,0,0,0-3.12-3.06c25-12.48,24.78-42.11,25-51.11Z"/><path d="M596.6,1928.11c-7.38,10.91-20.82,23.51-33.18,31,.6.42,1.26.84,1.92,1.32,3.78,2.4,8.64,2.82,15.36,2.82,7.14,0,16-.48,21.72-1a17.18,17.18,0,0,0-1.14,4.26c-4.5.3-15,.66-20.7.66-7.26,0-12.18-.66-16.14-3.24-2.4-1.5-4.26-3.48-5.58-3.48-1.92,0-4.74,3.42-7.68,7.38l-3-3.6c4-4.26,7.74-7.5,10.74-7.5a4.63,4.63,0,0,1,.9.12c11-6.36,23.22-17.39,30-26.63H551.3v-3.9h41.46l.84-.24ZM576.5,1926a70.73,70.73,0,0,0-6.3-10l3.48-1.8a70.87,70.87,0,0,1,6.42,9.78Z"/><path d="M614.6,1937.22V1969h-3.9V1917h21.42v20.27Zm0-17.15v5.4h13.74v-5.4Zm13.74,14v-5.64H614.6v5.64Zm-.84,29.27v3.06h-3.66v-24.53H646v21.47Zm0-18.36v5.88h14.76V1945Zm14.76,15.18V1954H627.5v6.18Zm17.4,3.3c0,2.7-.66,4-2.52,4.74s-5,.72-10,.72a13.68,13.68,0,0,0-1.38-4.08c3.78.18,7.44.12,8.46.06s1.44-.36,1.44-1.44v-26.21h-18V1917h22Zm-18.12-43.43v5.4H655.7v-5.4Zm14.16,14.1v-5.7H641.54v5.7Z"/><path d="M721.82,1962.84v3.9h-53.4v-3.9h34.5c.54-3.06,1-6.54,1.5-10h-27.3c2-7.86,4.62-21.17,6.24-31h-13V1918H720v3.84h-32.4c-.54,3.12-1.2,6.48-1.86,10h21.6l.72-.19,2.94.37c-.78,8-2.46,21-4,30.89ZM705,1949c.6-4.92,1.2-9.71,1.62-13.5H685c-.9,4.8-1.86,9.54-2.7,13.5Z"/><path d="M742,1936.62c2,2.05,7.68,8.59,8.94,10.2l-2.52,3.24a96.69,96.69,0,0,0-6.42-8.88v27.66h-3.78v-29.58c-2.4,7.2-5.7,14.22-9.06,18.42a27.23,27.23,0,0,0-2.16-3.6c4.2-5,8.52-14.63,10.74-23.09h-9.42v-3.72h9.9v-13H742v13h8.76V1931H742Zm38.16-18.71v50.45h-3.9v-3.48h-19v3.66H753.5v-50.63Zm-22.86,3.78v10.5h19v-10.5Zm0,25h19v-10.8h-19Zm19,14.58V1950.3h-19v10.92Z"/><path d="M804,1947.78v20.64h-3.72v-20.64H788.42v-3.48h11.82v-6.23H787.7v-3.49h16.56a76.65,76.65,0,0,0,3.18-9.77l3.66.84c-1,2.93-2.22,6.3-3.36,8.93h6.9v3.49H804v6.23H814.1v3.48Zm-6.6,3.18a43.37,43.37,0,0,1-6.24,12.6c-.66-.48-2-1.5-2.82-2a34.2,34.2,0,0,0,5.7-11.46ZM813.62,1924H789v-3.42h11.1a52.77,52.77,0,0,0-2.52-4.86l3.72-1.08a63.78,63.78,0,0,1,3.24,5.94h9.12Zm-18.36,9.77a39.92,39.92,0,0,0-2.52-8.09l3.12-.66a31.21,31.21,0,0,1,2.7,8Zm16,26.88a57.57,57.57,0,0,0-4.62-9.24l2.7-1.32a55.86,55.86,0,0,1,4.8,9.06Zm26.82,4c1.2,0,1.38-.84,1.5-8a10,10,0,0,0,3.36,1.5c-.3,8.22-1.26,10.08-4.5,10.08H834c-3.66,0-4.5-1.14-4.5-4.92V1950.6h-4.92c-.9,9.12-3.36,15.06-12.3,18.54a8.5,8.5,0,0,0-2.28-3c8-2.82,10.08-7.86,10.86-15.54h-4.2v-33.71h22.5v33.71h-6v12.66c0,1.26.18,1.44,1.32,1.44Zm-17.76-37.62h15.06v-6.59H820.28Zm0,10h15.06v-6.65H820.28Zm0,10h15.06v-6.72H820.28Z"/><path d="M893.06,1951.38c-3.06,4.26-7.5,7.56-12.72,10.14a107,107,0,0,0,21.36,3.66,14.76,14.76,0,0,0-2.28,3.72,100,100,0,0,1-24.24-5.16,107.49,107.49,0,0,1-24.42,5.34,13.92,13.92,0,0,0-2.1-3.3,114.41,114.41,0,0,0,21.72-4,46.61,46.61,0,0,1-9.84-5.94,69.69,69.69,0,0,1-8.58,4.56,17.72,17.72,0,0,0-2.88-2.64,62.06,62.06,0,0,0,8.76-4.26,35.39,35.39,0,0,1-4.26-4.8l3.18-1.44a33.46,33.46,0,0,0,4,4.32,34,34,0,0,0,7.08-6.12c-2.4-.42-3.12-1.56-3.12-4.32v-6h3.72v6c0,1.26.42,1.44,3,1.44h9.24c1.92,0,2.34-.41,2.52-4.2a11.64,11.64,0,0,0,3.24,1.2c-.42,4.86-1.5,6.06-5.28,6.06H870.68l1.2.42a33.17,33.17,0,0,1-3.48,3.66h21.36l.78-.18Zm-39.3-12.84h-3.84v-10.25h11.16a24.47,24.47,0,0,0-3.72-6.24l3.06-1.26c-2.58.12-5.16.18-7.68.24a10.51,10.51,0,0,0-.84-3.06c14.64-.48,32.76-1.62,42.36-3.66l2.64,2.82c-9.18,1.92-23.34,3.06-36.3,3.66a22,22,0,0,1,4,6.48l-2.28,1h22.44a65.12,65.12,0,0,0,5.82-8.94l3.78,1.5c-1.68,2.52-3.72,5.27-5.52,7.44H900v10.55h-3.9v-7.31H872.06a37.91,37.91,0,0,1,8.46,4.85l-2.1,2.41a44,44,0,0,0-8.94-5.29l1.8-2H853.76Zm-1.86,5.58a16.15,16.15,0,0,0,6.6-9l3.18,1.26c-1.2,3.77-3.3,7.73-6.9,10Zm12.84,8.76c-.42.3-.84.66-1.26,1a50.5,50.5,0,0,0,12.06,6.18,35.65,35.65,0,0,0,11.28-7.14Zm8.88-24.77a21.15,21.15,0,0,0-3.24-7l3.24-1.14a19.74,19.74,0,0,1,3.48,6.78Zm15.6,6.47a49.5,49.5,0,0,1,9.42,9.3L895.7,1946a52.61,52.61,0,0,0-9.24-9.54Z"/><path d="M920.18,1932.67a9.06,9.06,0,1,1-9.06,9A9.09,9.09,0,0,1,920.18,1932.67Zm0,15.23a6.18,6.18,0,1,0,0-12.36,6.18,6.18,0,1,0,0,12.36Z"/><path d="M491.9,2003.17c4.44,10.31,12.24,20,20.76,24.71a23.11,23.11,0,0,0-3.06,3.36c-9-5.58-16.92-16.32-21.6-28.07h-1v22.43h14.28v4H487V2041H482.9v-11.4H468.68v-4H482.9v-22.43h-1.08c-4.74,11.75-12.66,22.43-21.3,28.25a24.18,24.18,0,0,0-2.88-3.18c8-4.92,15.66-14.76,20.16-25.07H459.14v-4H482.9v-12.72H487v12.72h24v4Z"/><path d="M566.9,2025.54a33.64,33.64,0,0,1-8.22,7.38c2.4,2.82,5.22,4.44,8.16,4.38,1.68-.06,2.16-1.5,2.46-5.94a10.31,10.31,0,0,0,3.12,1.62c-.6,6.3-2.1,7.92-5.76,8-4.26,0-8.16-2.22-11.28-6a74.41,74.41,0,0,1-13.68,5.82,36.46,36.46,0,0,0-2.1-3.24,65.61,65.61,0,0,0,13.86-5.34,34.94,34.94,0,0,1-3.84-8.82H535.16v4.38l11.16-1-.06,2.88-11.1,1.08v6.12c0,2.1-.48,3.06-2.16,3.54s-4.38.54-8.94.54a19.42,19.42,0,0,0-1.26-3.18c3.36.12,6.48.06,7.38,0s1.2-.24,1.2-1v-5.7c-4.74.48-9.12.9-12.72,1.2l-.42-3.3c3.54-.24,8.1-.54,13.14-1v-4.68h-12.9v-3.18h12.9v-4.44c-3.78.42-7.68.72-11.28.91a12,12,0,0,0-.9-2.71c8.16-.48,18.18-1.55,23.52-2.94l2.52,2.58c-2.82.66-6.36,1.26-10.08,1.74v4.86h13.68a52.67,52.67,0,0,1-1.2-8.94h3.84a57.48,57.48,0,0,0,1.2,8.94h19v3.18H553.58a31.91,31.91,0,0,0,3.12,6.9,27.09,27.09,0,0,0,6.72-5.94Zm4.62-15.17h-53v-3.25H542.9V2003H524.3v-3.06h18.6v-4H521.06v-3.18h12.66a30,30,0,0,0-3.48-5.16l3.42-1.26a24.4,24.4,0,0,1,4.32,6.24l-.42.18H552.2a54.7,54.7,0,0,0,3.6-6.6l4.14,1.2c-1.2,1.86-2.52,3.84-3.72,5.4h12.84V1996H546.92v4h18.9V2003h-18.9v4.13h24.6Zm-5.7,9a34,34,0,0,0-9.48-5.52l2.16-2.46a38.32,38.32,0,0,1,9.66,5.22Z"/><path d="M607.46,2035.62a70.7,70.7,0,0,0,7.38.36c2.1.06,14.76,0,17.58-.06a16.36,16.36,0,0,0-1.44,3.84H614.72c-12.3,0-19.92-1.92-24.72-10.38a31.55,31.55,0,0,1-9.48,11.7,19.84,19.84,0,0,0-3.06-2.82c6.3-4.14,10.2-10.92,11.82-19.86l4,.6a55.92,55.92,0,0,1-1.5,6.06c2.34,5.64,6.3,8.52,11.7,9.84v-18.54H578.72v-3.6H631.4v3.6H607.46v7.08h20v3.6h-20Zm17.22-27.17h-39.6v-19.56h39.6Zm-4-16.44H589v5.16h31.68Zm0,8.1H589v5.27h31.68Z"/><path d="M657,1987.69a102.15,102.15,0,0,1-6.54,13.38v39.77h-4v-33.66a77.44,77.44,0,0,1-6.54,7.8,23.31,23.31,0,0,0-2.46-3.9c6.24-5.93,12.06-15.17,15.6-24.65Zm34.86,44.63v4.2H654.74v-4.2Zm-2.7-31.61h-30.9v-4.14h30.9Z"/><path d="M743.06,2023.38c-3.06,4.26-7.5,7.56-12.72,10.14a107,107,0,0,0,21.36,3.66,14.76,14.76,0,0,0-2.28,3.72,100,100,0,0,1-24.24-5.16,107.49,107.49,0,0,1-24.42,5.34,13.92,13.92,0,0,0-2.1-3.3,114.41,114.41,0,0,0,21.72-4,46.61,46.61,0,0,1-9.84-5.94,69.69,69.69,0,0,1-8.58,4.56,17.72,17.72,0,0,0-2.88-2.64,62.06,62.06,0,0,0,8.76-4.26,35.39,35.39,0,0,1-4.26-4.8l3.18-1.44a33.46,33.46,0,0,0,4,4.32,34,34,0,0,0,7.08-6.12c-2.4-.42-3.12-1.56-3.12-4.32v-6h3.72v6c0,1.26.42,1.44,3,1.44h9.24c1.92,0,2.34-.41,2.52-4.2a11.64,11.64,0,0,0,3.24,1.2c-.42,4.86-1.5,6.06-5.28,6.06H720.68l1.2.42a33.17,33.17,0,0,1-3.48,3.66h21.36l.78-.18Zm-39.3-12.84h-3.84v-10.25h11.16a24.47,24.47,0,0,0-3.72-6.24l3.06-1.26c-2.58.12-5.16.18-7.68.24a10.51,10.51,0,0,0-.84-3.06c14.64-.48,32.76-1.62,42.36-3.66l2.64,2.82c-9.18,1.92-23.34,3.06-36.3,3.66a22,22,0,0,1,4,6.48l-2.28,1h22.44a65.12,65.12,0,0,0,5.82-8.94l3.78,1.5c-1.68,2.52-3.72,5.27-5.52,7.44H750v10.55h-3.9v-7.31H722.06a37.91,37.91,0,0,1,8.46,4.85l-2.1,2.41a44,44,0,0,0-8.94-5.29l1.8-2H703.76Zm-1.86,5.58a16.15,16.15,0,0,0,6.6-9l3.18,1.26c-1.2,3.77-3.3,7.73-6.9,10Zm12.84,8.76c-.42.3-.84.66-1.26,1a50.5,50.5,0,0,0,12.06,6.18,35.65,35.65,0,0,0,11.28-7.14Zm8.88-24.77a21.15,21.15,0,0,0-3.24-7l3.24-1.14a19.74,19.74,0,0,1,3.48,6.78Zm15.6,6.47a49.5,49.5,0,0,1,9.42,9.3L745.7,2018a52.61,52.61,0,0,0-9.24-9.54Z"/><path d="M770.18,2004.67a9.06,9.06,0,1,1-9.06,9A9.09,9.09,0,0,1,770.18,2004.67Zm0,15.23a6.18,6.18,0,1,0,0-12.36,6.18,6.18,0,1,0,0,12.36Z"/><line class="cls-3" x1="621" y1="351" x2="621" y2="351"/><rect class="cls-2" x="1114" y="1203" width="65" height="271" rx="12"/><path class="cls-1" d="M1159.05,1242.79a27.61,27.61,0,0,0,11.5,8.1,11.65,11.65,0,0,0-2.15,2.55,30.77,30.77,0,0,1-12.8-10.65h-15.95a34.39,34.39,0,0,1-13,11.3,11.43,11.43,0,0,0-2.15-2.55,30.39,30.39,0,0,0,11.6-8.75H1125v-2.85h10v-16.15h-7.7V1221h7.7v-5h3.3v5h18.55v-5h3.35v5h7.65v2.8h-7.65v16.15h9.8v2.85Zm-10,14.5h17.3v2.85H1128.8v-2.85h16.9v-5.6h-10.45v-2.8h10.45v-4.4h3.35v4.4h10.65v2.8h-10.65Zm-10.8-33.5v3.6h18.55v-3.6Zm0,9.8h18.55v-3.65h-18.55Zm0,6.35h18.55v-3.8h-18.55Z"/><path class="cls-1" d="M1143.25,1284.54s0,1.15,0,1.55c-.6,15.85-1.2,21.2-2.6,23a3.71,3.71,0,0,1-2.8,1.45,32.65,32.65,0,0,1-4.45,0,9.25,9.25,0,0,0-.85-3c1.75.15,3.2.15,3.9.15a1.42,1.42,0,0,0,1.45-.65c1-1.2,1.6-6,2.15-19.35h-6.8c-.55,10-2,18.25-6.45,23.65a9.53,9.53,0,0,0-2.55-2.35c5.45-6.45,5.9-17.85,6.1-31.55h-5.2v-3.1h20.1v3.1h-11.65c0,2.45-.1,4.85-.2,7.15Zm-7.9-10.45a33.47,33.47,0,0,0-4.25-7.15l2.9-1.15a31.92,31.92,0,0,1,4.4,7Zm23.85-7.45a15.26,15.26,0,0,1-.85,2.55c2.65,5.45,7.7,11.35,12.45,14a13,13,0,0,0-2.45,2.75c-4.25-2.7-8.5-8-11.4-13.3a32.61,32.61,0,0,1-11,13.6,12.79,12.79,0,0,0-2.35-2.65c5.85-3.6,10.35-10.2,12.5-17.85Zm-8.3,32.45a74,74,0,0,1,13.6,8.25l-2.25,2.9c-2.85-2.6-8.75-6.3-13.4-8.65Zm9.5-4.85a66.22,66.22,0,0,0-8.6-6.85l2.15-2.2a67.46,67.46,0,0,1,8.75,6.55Z"/><path class="cls-1" d="M1166,1319.19v29.3h-3.5v-2.55h-13.3v15.6h-3.45v-15.6h-13.4v2.75H1129v-29.5Zm-33.65,3.2V1331h13.4v-8.65Zm13.4,20.35v-8.5h-13.4v8.5Zm16.75-20.35h-13.3V1331h13.3Zm0,20.35v-8.5h-13.3v8.5Z"/><path class="cls-1" d="M1168.25,1381.09v9.3h-3.15V1384h-35.4v6.4h-3v-9.3h6.95v-12.95h27.7v12.95Zm-6.45,26.6c0,1.85-.45,2.7-1.85,3.2s-3.9.5-7.7.45a8.57,8.57,0,0,0-1.1-2.75c3,.05,5.65.05,6.4.05s1-.25,1-1v-6.2c-7.3,1.45-14.85,3-20.45,4l-1.1-3c5.4-.8,13.6-2.3,21.55-3.75V1390h-22.2v5.3c0,4.85-.65,11.55-4.35,16.2a13.29,13.29,0,0,0-2.7-2c3.45-4.25,3.85-10,3.85-14.25v-8h28.6Zm-25-26.6h7.45v-6.9H1158v-3.35h-21.2Zm2.45,11.7a75.14,75.14,0,0,1,17.7,3l-.9,2.6c-4-1.5-11.7-2.9-17.7-3.35Zm18.75-16.3h-10.75v4.6H1158Z"/><path class="cls-1" d="M1162,1428.09a51.83,51.83,0,0,1-12,19.6,49.94,49.94,0,0,0,20.5,10.5,16.79,16.79,0,0,0-2.25,3,50.92,50.92,0,0,1-20.75-11.1c-5.65,5-12.55,8.6-21,11.3a15.53,15.53,0,0,0-2-3.05c8.35-2.45,15.1-5.9,20.6-10.6a57.05,57.05,0,0,1-12.2-19.65h-7.75v-3.25h44.75v3.25Zm-25.75,0a52.13,52.13,0,0,0,11.3,17.3,47.46,47.46,0,0,0,10.7-17.3Zm11.25-3.55a38.13,38.13,0,0,0-3.8-7.8l3.4-1a39,39,0,0,1,4,7.65Z"/><path d="M339.62,1107.09a201.14,201.14,0,0,1,22.46,24.58l-4-5.16c14.73,19.11,26.32,40.41,35.72,62.59l-2.57-6.09c14.2,33.79,23,69.45,29.42,105.47q2.91,16.43,5.12,33l-.91-6.78c5.77,43.11,8.28,86.59,8.86,130.07.59,43.72-.76,87.44-2.76,131.1-1.12,24.38-2.44,48.74-3.75,73.11-.34,6.31,3.08,13.64,7.47,18s11.68,7.75,18,7.47c6.59-.3,13.43-2.47,18-7.47a27.73,27.73,0,0,0,7.47-18c2.14-39.83,4.32-79.65,5.57-119.52,1.27-40.19,1.61-80.43,0-120.61a1015.32,1015.32,0,0,0-12.38-124.65c-6.09-37-14.53-73.79-28.5-108.65-14.1-35.16-32.39-68.65-58.77-96.2-2.73-2.85-5.55-5.6-8.46-8.28a26.74,26.74,0,0,0-18-7.47c-6.25,0-13.72,2.78-18,7.47-4.46,4.86-7.77,11.24-7.47,18,.3,6.61,2.47,13.43,7.47,18Z"/><line class="cls-4" x1="356.75" y1="1089.47" x2="279.37" y2="1405.73"/><line class="cls-4" x1="531.5" y1="1248.5" x2="921.5" y2="1248.5"/><line class="cls-4" x1="532" y1="1489.5" x2="922" y2="1489.5"/></svg>