<svg id="Layer_1" data-name="Layer 1" xmlns="http://www.w3.org/2000/svg" viewBox="0 0 1242 2208"><defs><style>.cls-1{fill:#f6eabe;}.cls-2{fill:#999;}.cls-3,.cls-4{fill:none;}.cls-4{stroke:#000;stroke-linecap:round;stroke-miterlimit:10;stroke-width:50px;}</style></defs><rect class="cls-1" width="1242" height="2208"/><path d="M499.61,170A1387,1387,0,0,1,413.85,346.3V871.13H360.66v-443a868.91,868.91,0,0,1-85,102.42c-6.35-12.7-23-38.9-33.35-51.6C324.93,401.08,401.15,279.6,448,154.15ZM962.5,378.85H860.08V798.08c0,42.88-11.91,58-40.5,66.69-30.17,9.53-81.78,9.53-167.53,8.74-4-14.29-13.5-37.32-21.44-52.4,68.29,2.38,132.6,1.58,150.86.79s25.41-6.35,25.41-23.82V378.85H482.93v-53.2h324V158.92h53.2V325.65H962.5ZM652.85,687.71c-23.82-50-76.23-135.77-117.52-199.29L580.59,467c42.08,62.73,94.49,146.1,120.69,193.74Z"/><rect class="cls-2" x="1114" y="437" width="65" height="126" rx="12"/><path class="cls-1" d="M1133.7,466.82c1.25,1.6,4.9,6.7,5.7,8.05l-2,2.45c-.7-1.5-2.35-4.4-3.75-6.65V497h-3.15V472.57c-1.5,5.05-3.5,9.9-5.55,12.85a14.83,14.83,0,0,0-1.75-3.1c2.9-4,5.8-11.5,7.2-18h-6.2v-3.15h6.3v-9.65h3.15v9.65h5.45v3.15h-5.45Zm19.1.7a19.47,19.47,0,0,0,.45,2.65c-10.15,2.7-11.6,3.15-12.5,3.75a12.13,12.13,0,0,0-1.1-3.2c.7-.2,1.55-.5,1.55-2.2v-16.7h3.25v6.5h8.35v2.9h-8.35v8.3Zm2.35,5.5-2,3.75h12.65V497h-3.4v-1.75h-17v2h-3.3V476.77h7.9c.55-1.5,1.2-3.25,1.55-4.6Zm7.3,6.5h-17v5.05h17Zm0,13v-5.3h-17v5.3Zm2.25-22.4c1.25,0,1.5-.75,1.65-5.25a9.16,9.16,0,0,0,2.85,1.25c-.3,5.45-1.2,6.95-4.15,6.95h-5.85c-3.65,0-4.55-.95-4.55-4.45V451.87h3.25v6.5h10.2v2.9h-10.2v7.35c0,1.3.25,1.5,1.65,1.5Z"/><path class="cls-1" d="M1168.55,526.87v2.5H1124.4v-2.5h20.25v-3.2H1127.8v-2.3h16.85v-3H1129.2v-2.25h15.45v-3.2H1124.5v-2.5h20.15v-3.05H1129.8V505h14.85v-3.55h3.25V505h14.45v5.4h6.15v2.5h-6.15v5.45H1147.9v3h17.3v2.3h-17.3v3.2Zm-37.75,5h31.75v15.25h-3.25v-1.6H1134v1.7h-3.2Zm3.2,2.4v3.2h25.3v-3.2Zm25.3,8.85v-3.4H1134v3.4Zm-11.4-32.7h11.15v-3.05H1147.9Zm0,5.7h11.15v-3.2H1147.9Z"/><path d="M259,1856.49H244.22v35.15h-4v-38.87H259Z"/><path d="M292.28,1853.55c-.06,2.1-.12,5.1-.42,8.64.9,7,4.56,32.51,25.74,42a12.63,12.63,0,0,0-2.88,3.36c-15.42-7.26-21.72-22.74-24.6-34-2.64,12.23-8.94,26.33-24.06,34.19a13.77,13.77,0,0,0-3.12-3.06c25-12.48,24.78-42.11,25-51.11Z"/><path d="M321,1904.84h14.82v-35.15h4v38.87H321Z"/><path d="M373.16,1866.62a67.64,67.64,0,0,1-7.2,12.25v28.85h-4v-24a41.57,41.57,0,0,1-7.26,6.41,17,17,0,0,0-2-3.48c7-5,12.3-12.23,16.14-20H354v-3.83h16.44a65.25,65.25,0,0,0,3.3-9.42l4.08,1c-.9,2.82-1.86,5.64-3,8.4H406.1v3.83Zm32.94,36.24v3.72H370v-3.72h16v-17.52H372.32v-3.72H386v-11.81h4v11.81h13.8v3.72H390v17.52Z"/><path d="M433.52,1868.12c-3.48,13.74-9,27.06-18.84,36.12a31.63,31.63,0,0,0-2.64-3.12c9-8.1,14.22-20.33,17.46-33H414.32v-3.89h16.14c.78-3.66,1.44-7.32,2-10.86l4,.54c-.54,3.36-1.2,6.84-2,10.32h31.08v3.89Zm33.18,34.2v3.84H423.92v-3.84h19.74v-18.54H430v-3.84h33.84v3.84H447.74v18.54Z"/><path d="M478.88,1889c4.68-2,7.26-4.86,7.56-9.17a4,4,0,0,1-1.14.11c-2.34,0-4.26-1.32-4.26-4.07a4,4,0,0,1,4.32-4.08c3.18,0,4.86,2.58,4.86,6.66,0,6.41-4,11.21-10.08,13.43Z"/><path d="M529,1856.49H514.22v35.15h-4v-38.87H529Z"/><path d="M586.7,1870.11H572.54v31.67c0,3.54-1,4.86-3.3,5.52s-7,.84-13.44.78a19.72,19.72,0,0,0-1.8-4.44c5.64.18,10.86.12,12.48.06,1.44,0,1.92-.48,1.92-1.86v-31.73h-35v-3.9h35v-12.84h4.14v12.84H586.7Zm-43,6.35c4.5,4.5,9.3,10.74,11.34,15l-3.6,2.34c-1.92-4.32-6.6-10.74-11-15.35Z"/><path d="M591,1904.84h14.82v-35.15h4v38.87H591Z"/><path d="M646.16,1852.17l3.24,1.74c-7.08,7.26-11.28,16.2-11.28,26.76s4.2,19.49,11.28,26.75l-3.24,1.74c-7.32-7.5-11.94-17-11.94-28.49S638.84,1859.67,646.16,1852.17Z"/><path d="M704.12,1885a100.84,100.84,0,0,1-11.7,8.58,36.22,36.22,0,0,0,15.3,8.76,24.16,24.16,0,0,0-2.64,3.48c-12.3-4.08-20.82-13.2-25.38-25.61h-.18a53.79,53.79,0,0,1-9.6,8V1902l14.88-4.5a18.38,18.38,0,0,0,.6,3.42c-16.62,5.4-18.66,6.12-20,7a14.6,14.6,0,0,0-1.74-3.66,3.9,3.9,0,0,0,2.16-3.78v-9.72a71.36,71.36,0,0,1-10.68,5.1,19.48,19.48,0,0,0-2.64-3.24,62.5,62.5,0,0,0,21.9-12.41H654.2v-3.54h23.7v-5.64H659.54v-3.36H677.9v-5.4H656.54v-3.48H677.9v-5.52h4v5.52h22v3.48h-22v5.4h19.32v3.36H681.92v5.64H705.8v3.54H683.54a38.86,38.86,0,0,0,6.6,11,80.68,80.68,0,0,0,10.74-8.46Z"/><path d="M728.24,1883.78a58,58,0,0,1-12.06,19.14,26,26,0,0,0-3.66-2.46,47,47,0,0,0,11.64-17.75Zm13.62-7.91v31.79h-4.14v-31.79H713.84v-4h52.5v4Zm19.2-14.22H719.18v-3.9h41.88Zm-5.16,20.93c4.5,5.58,9.24,13.14,11,18.24l-3.9,1.8c-1.74-5-6.3-12.78-10.8-18.48Z"/><path d="M826.94,1888.22H802.1v14c0,3-1,4.2-3.06,4.86s-5.94.72-12.3.66a17.27,17.27,0,0,0-1.74-3.9c5.16.12,9.84.06,11.16.06s1.86-.48,1.86-1.74v-13.92H773.18v-3.9H798v-10.2H777.14v-3.83H798v-9.6c-6.66.66-13.56,1.14-19.8,1.44a16.18,16.18,0,0,0-1-3.54c14.16-.72,31.8-2.28,40.74-5.16l2.94,3.24a123.25,123.25,0,0,1-18.78,3.6v10h21.48v3.83H802.1v10.2h24.84Z"/><path d="M833.84,1909.16l-3.24-1.74c7.08-7.26,11.28-16.2,11.28-26.75s-4.2-19.5-11.28-26.76l3.24-1.74c7.32,7.5,11.94,17,11.94,28.5S841.16,1901.66,833.84,1909.16Z"/><path d="M883.16,1866.62a67.64,67.64,0,0,1-7.2,12.25v28.85h-4v-24a41.57,41.57,0,0,1-7.26,6.41,17,17,0,0,0-2-3.48c7-5,12.3-12.23,16.14-20H864v-3.83h16.44a65.25,65.25,0,0,0,3.3-9.42l4.08,1c-.9,2.82-1.86,5.64-3,8.4H916.1v3.83Zm32.94,36.24v3.72H880v-3.72h16v-17.52H882.32v-3.72H896v-11.81h4v11.81h13.8v3.72H900v17.52Z"/><path d="M944.78,1868.54a74.71,74.71,0,0,1-5.76,11.94h32.7v27.3h-4.14v-3.12H940.22v3.42h-4v-23.4a50.91,50.91,0,0,1-11.46,11.52,21.84,21.84,0,0,0-2.64-3.18c8.64-5.94,14.46-14.76,18.36-24.48H924.08v-3.89H941.9a86,86,0,0,0,3.12-11.34l4.14.84c-.84,3.48-1.8,7-3,10.5h30v3.89Zm-4.56,15.78v16.5h27.36v-16.5Z"/><path d="M995.18,1871.67a9.06,9.06,0,1,1-9.06,9A9.09,9.09,0,0,1,995.18,1871.67Zm0,15.23a6.18,6.18,0,1,0,0-12.36,6.18,6.18,0,1,0,0,12.36Z"/><path d="M308.24,1926.51a13.18,13.18,0,0,1-.84,1.08c5.7,5.64,16.2,10.62,25.56,12.83a12.89,12.89,0,0,0-2.52,3.12,71.7,71.7,0,0,1-14.88-6.17l-.06,1.92H294.74l.06-1.68a89.68,89.68,0,0,1-14.88,6.23,30.91,30.91,0,0,0-2.28-3c10.8-3,21.48-8.28,27.12-15.6Zm-23.16,16H325v14.88h-39.9Zm3.42,12.06h14.7v-9.23H288.5Zm.12,5.82H322v19.38h-4v-1.86h-25.5v2h-3.9Zm6.66-14.22a21.86,21.86,0,0,1,3.78,6.84l-3.06,1.21a27.26,27.26,0,0,0-3.6-7.09Zm-2.76,17.16v4.32H318v-4.32Zm25.5,11.64v-4.38h-25.5v4.38Zm-4.2-38.57a48.46,48.46,0,0,1-8.58-6.42,45.19,45.19,0,0,1-8.34,6.42Zm7.5,8.94H306.56v9.23h14.76Zm-10.62,7.79a53.26,53.26,0,0,0,3.54-7.2l3.36,1.08a73,73,0,0,1-4.14,7.21Z"/><path d="M339.08,1976.48c3.06-2.58,5.64-7,7.08-10.44l3.3,1.5c-1.68,3.6-4.08,8-7.14,10.86Zm51.72-36.9v3.25H339.56v-3.25h14.16a23.89,23.89,0,0,0-2.34-5.45l3.36-.84H342.26V1930h21.9c-.72-1.44-1.56-2.94-2.34-4.2l3.78-.9a39.9,39.9,0,0,1,2.94,5.1h19.2v3.3H375.86l3.24.78c-1,1.92-2,3.84-3,5.51Zm-7,23.7H362.66a47.07,47.07,0,0,1,8.82,6.24L369,1972a48.61,48.61,0,0,0-9.3-6.9l2-1.8H346.58V1946h37.2Zm-3.9-14.45H350.36v4.43h29.52Zm0,7.13H350.36v4.44h29.52Zm-8.22,20.16c2.58,0,3-.72,3.24-6.24a12.08,12.08,0,0,0,3.54,1.38c-.48,6.66-1.74,8.22-6.42,8.22H360.44c-5.82,0-7.38-1-7.38-5v-8H357v8c0,1.38.54,1.68,3.72,1.68ZM355,1933.29a26.19,26.19,0,0,1,2.76,6.18l-.48.11H372a59.18,59.18,0,0,0,3.06-6.29Zm27.66,32.21a46.55,46.55,0,0,1,8,10.2l-3.36,1.74a49,49,0,0,0-7.8-10.56Z"/><path d="M451.94,1960.22H427.1v14c0,3-1,4.2-3.06,4.86s-5.94.72-12.3.66a17.27,17.27,0,0,0-1.74-3.9c5.16.12,9.84.06,11.16.06s1.86-.48,1.86-1.74v-13.92H398.18v-3.9H423v-10.2H402.14v-3.83H423v-9.6c-6.66.66-13.56,1.14-19.8,1.44a16.18,16.18,0,0,0-1-3.54c14.16-.72,31.8-2.28,40.74-5.16l2.94,3.24a123.25,123.25,0,0,1-18.78,3.6v10h21.48v3.83H427.1v10.2h24.84Z"/><path d="M476,1955.18c-2.22.78-4.44,1.57-6.6,2.28v17.46c0,2.34-.54,3.36-1.92,4s-3.6.78-7.44.72a13.45,13.45,0,0,0-1.14-3.66c2.64.06,5,.06,5.7,0s1.08-.24,1.08-1.08v-16.25c-2.76.95-5.4,1.79-7.68,2.51l-1.14-3.78c2.4-.72,5.46-1.68,8.82-2.76v-13.37h-7.92v-3.72h7.92v-12.18h3.72v12.18h6.48v3.72H469.4v12.23l6.06-1.92Zm36.42-22V1937h-15.9v7.8h13v3.66H479.78v-3.66h13V1937h-16v-3.72h16v-7.56h3.78v7.56Zm-8,22.37h7.5v3.72h-7.5v15.84c0,2.52-.54,3.6-2.22,4.32s-4.56.66-9,.66a15.58,15.58,0,0,0-1.26-3.9c3.48.18,6.6.12,7.5.06s1.2-.3,1.2-1.2v-15.78H477.44v-3.72h23.22V1950h3.78Zm-19.26,5.7a119.86,119.86,0,0,1,6.78,10.32l-3.18,2a105.62,105.62,0,0,0-6.66-10.62Z"/><path d="M540,1955.54l-7.74,2.52v22h-3.72v-20.76c-3.6,1.08-7.08,2.22-10.08,3.12l-1.08-3.84c3.06-.84,7-1.92,11.16-3.18v-13.79h-5.7a53.29,53.29,0,0,1-2.76,9.11,25.52,25.52,0,0,0-3.06-1.85c2.28-5,3.54-12.6,4.26-20l3.54.6c-.36,2.82-.78,5.64-1.26,8.34h5v-12.3h3.72v12.3h6.42v3.84h-6.42v12.72l7.26-2.23Zm31.68-20s0,1.56-.06,2.1c-1.44,27.29-2.7,36.59-5.22,39.47a5,5,0,0,1-4,2.22,53,53,0,0,1-6.84-.06,10.36,10.36,0,0,0-1.14-4c2.82.24,5.28.3,6.42.3a2.61,2.61,0,0,0,2.34-1c1.92-2.16,3.3-11.1,4.56-35.33h-3.36c-3.06,15.83-9.72,32-19.68,39.83a11.72,11.72,0,0,0-3.36-2.4c10-7.2,16.44-22.2,19.56-37.43h-5.34c-2.7,10.37-8.28,21.65-14.88,27.41a14.07,14.07,0,0,0-3.18-2.34c6.42-5,11.82-15.3,14.64-25.07h-5.52a48.75,48.75,0,0,1-7,11.52,29.73,29.73,0,0,0-3.06-2.29c5-5.39,8.58-14,10.62-23.15l3.66.72a87.43,87.43,0,0,1-2.76,9.48Z"/><path d="M595.22,1926.69a103.09,103.09,0,0,1-6,13.08v40.13h-3.78v-34a70.58,70.58,0,0,1-5.88,7.55,26.3,26.3,0,0,0-2.28-3.9c5.64-5.81,11-14.87,14.16-24Zm36.6,32.45H615.38V1980h-4v-20.88H594.08v-3.84h17.34v-13.73h-9.84a43.74,43.74,0,0,1-4.44,9.35,31.86,31.86,0,0,0-3.42-2c3.54-5,6-12.71,7.38-20.57l3.78.72a65.79,65.79,0,0,1-2.1,8.7h8.64v-11.64h4v11.64h13.86v3.84H615.38v13.73h16.44Z"/><path d="M678.26,1950.92a42.2,42.2,0,0,1-10.08,15.36c6.24,4.86,14.28,8,24.06,9.66a17,17,0,0,0-2.46,3.66c-10-1.92-18.18-5.4-24.6-10.68-6.6,5.28-14.94,8.76-24.78,11.28a17.47,17.47,0,0,0-2.4-3.66c9.78-2.1,17.94-5.28,24.3-10.26a43.58,43.58,0,0,1-9.9-15l3.6-1.15a36.86,36.86,0,0,0,9.24,13.62,36.34,36.34,0,0,0,9-14Zm12.42-13.31H639.26v-3.9H664.4a43,43,0,0,0-4.08-7.56l3.66-1.32a38.5,38.5,0,0,1,4.44,7.68l-3,1.2h25.26Zm-32.46,3.6a68.25,68.25,0,0,1-15.6,13.85,31.16,31.16,0,0,0-3.06-3,54.88,54.88,0,0,0,14.88-12.35Zm17.16-1.5c5.52,3.71,12.24,9.17,15.48,13l-3.3,2.58c-3-3.84-9.66-9.47-15.24-13.31Z"/><path d="M717,1926.93a104.84,104.84,0,0,1-6.48,13.32v39.65h-4v-33.48a66.61,66.61,0,0,1-6.42,7.75,28.63,28.63,0,0,0-2.52-3.91c6.24-5.88,12-15,15.54-24.53Zm35,15.78H744.2v31.67c0,3.24-.9,4.38-3.06,5s-6.18.72-12.66.66a24,24,0,0,0-1.62-4c5.16.18,10,.12,11.4.06s1.92-.48,1.92-1.8v-31.67H715.7v-4h24.48v-12.6h4v12.6h7.74ZM728.54,1966a162.63,162.63,0,0,0-8.88-15l3.42-1.62c3.18,4.73,7.14,11,9.12,14.63Z"/><path d="M763.94,1964.12a91.2,91.2,0,0,1-3.18,14.76,27.81,27.81,0,0,0-3.36-1.26c1.44-3.72,2.4-9.12,3-14.1Zm11.7-16.32a76.55,76.55,0,0,1,4.08,12.42l-3.36,1.08c-.18-1-.48-2.16-.84-3.54-13.5,2-15.3,2.46-16.38,3-.24-.78-.9-2.76-1.32-3.72,1.2-.29,2.64-1.79,4.38-4a67,67,0,0,0,5.34-7.08c-6.6.72-8,1-8.82,1.45-.24-.78-.78-2.7-1.2-3.72,1-.24,2-1.44,3.3-3.31a85.31,85.31,0,0,0,8.28-15.23l3.72,1.56a100.23,100.23,0,0,1-9.72,16.32l6.78-.61c1.56-2.46,3.12-5.21,4.44-7.85l3.48,2a114.44,114.44,0,0,1-13.68,19.43l10.5-1.44c-.6-2-1.38-4.08-2-5.93Zm-5.58,15.6a110.11,110.11,0,0,1,1.68,13.08l-3.3.66a124.48,124.48,0,0,0-1.56-13.2Zm5.94-1.5a85.75,85.75,0,0,1,3.48,11.1l-3.18,1.08a73.75,73.75,0,0,0-3.24-11.22Zm22.2-35.33c-.24.54-.48,1.14-.72,1.68,3.78,6.9,10.32,14.21,16.32,17.82a14.41,14.41,0,0,0-3.06,3.23c-5.28-3.72-11.1-10.43-15.06-17.33a51.33,51.33,0,0,1-9.48,12.9h19.2v3.71H785.78v-3.29a46.37,46.37,0,0,1-5.52,4.67,18,18,0,0,0-2.88-2.75,46.78,46.78,0,0,0,17-21.66Zm-15.12,29.15h25.44V1980h-4v-3.12H787v3.3h-3.9Zm3.9,3.6v14H804.5v-14Z"/><path d="M844.76,1954.1s0,1.26-.06,1.8c-.66,15-1.26,20.46-2.88,22.26a5,5,0,0,1-3.78,1.62,64.3,64.3,0,0,1-7.38-.12,7.7,7.7,0,0,0-1.14-3.48c3.06.24,6,.24,7.08.24s1.5,0,2-.6c1.14-1.2,1.74-5.88,2.28-18.12H830.48c-1.32,8.82-4.14,17.22-10.44,22.44a9.12,9.12,0,0,0-2.76-2.7c8.16-6.54,9.72-19.08,10.32-30.06H821v-19.31h23.4v19.31H831.5c-.18,2.22-.3,4.5-.54,6.72Zm-20.1-10.31h15.9v-12.12h-15.9Zm26.1-11.28h3.9v32.87h-3.9Zm18.72-6v48c0,2.82-.84,4.08-2.58,4.74-1.92.66-5.16.72-10.62.72a19,19,0,0,0-1.5-4c4.32.12,8,.06,9.18.06s1.56-.42,1.56-1.56v-48Z"/><path d="M907.28,1925.55c-.06,2.1-.12,5.1-.42,8.64.9,7,4.56,32.51,25.74,42a12.63,12.63,0,0,0-2.88,3.36c-15.42-7.26-21.72-22.74-24.6-34-2.64,12.23-8.94,26.33-24.06,34.19a13.77,13.77,0,0,0-3.12-3.06c25-12.48,24.78-42.11,25-51.11Z"/><path d="M950.18,1943.67a9.06,9.06,0,1,1-9.06,9A9.09,9.09,0,0,1,950.18,1943.67Zm0,15.23a6.18,6.18,0,1,0,0-12.36,6.18,6.18,0,1,0,0,12.36Z"/><path d="M491.9,2014.17c4.44,10.31,12.24,20,20.76,24.71a23.11,23.11,0,0,0-3.06,3.36c-9-5.58-16.92-16.32-21.6-28.07h-1v22.43h14.28v4H487V2052H482.9v-11.4H468.68v-4H482.9v-22.43h-1.08c-4.74,11.75-12.66,22.43-21.3,28.25a24.18,24.18,0,0,0-2.88-3.18c8-4.92,15.66-14.76,20.16-25.07H459.14v-4H482.9v-12.72H487v12.72h24v4Z"/><path d="M566.9,2036.54a33.64,33.64,0,0,1-8.22,7.38c2.4,2.82,5.22,4.44,8.16,4.38,1.68-.06,2.16-1.5,2.46-5.94a10.31,10.31,0,0,0,3.12,1.62c-.6,6.3-2.1,7.92-5.76,8-4.26,0-8.16-2.22-11.28-6a74.41,74.41,0,0,1-13.68,5.82,36.46,36.46,0,0,0-2.1-3.24,65.61,65.61,0,0,0,13.86-5.34,34.94,34.94,0,0,1-3.84-8.82H535.16v4.38l11.16-1-.06,2.88-11.1,1.08v6.12c0,2.1-.48,3.06-2.16,3.54s-4.38.54-8.94.54a19.42,19.42,0,0,0-1.26-3.18c3.36.12,6.48.06,7.38,0s1.2-.24,1.2-1v-5.7c-4.74.48-9.12.9-12.72,1.2l-.42-3.3c3.54-.24,8.1-.54,13.14-1v-4.68h-12.9v-3.18h12.9v-4.44c-3.78.42-7.68.72-11.28.91a12,12,0,0,0-.9-2.71c8.16-.48,18.18-1.55,23.52-2.94l2.52,2.58c-2.82.66-6.36,1.26-10.08,1.74v4.86h13.68a52.67,52.67,0,0,1-1.2-8.94h3.84a57.48,57.48,0,0,0,1.2,8.94h19v3.18H553.58a31.91,31.91,0,0,0,3.12,6.9,27.09,27.09,0,0,0,6.72-5.94Zm4.62-15.17h-53v-3.25H542.9V2014H524.3v-3.06h18.6v-4H521.06v-3.18h12.66a30,30,0,0,0-3.48-5.16l3.42-1.26a24.4,24.4,0,0,1,4.32,6.24l-.42.18H552.2a54.7,54.7,0,0,0,3.6-6.6l4.14,1.2c-1.2,1.86-2.52,3.84-3.72,5.4h12.84V2007H546.92v4h18.9V2014h-18.9v4.13h24.6Zm-5.7,9a34,34,0,0,0-9.48-5.52l2.16-2.46a38.32,38.32,0,0,1,9.66,5.22Z"/><path d="M607.46,2046.62a70.7,70.7,0,0,0,7.38.36c2.1.06,14.76,0,17.58-.06a16.36,16.36,0,0,0-1.44,3.84H614.72c-12.3,0-19.92-1.92-24.72-10.38a31.55,31.55,0,0,1-9.48,11.7,19.84,19.84,0,0,0-3.06-2.82c6.3-4.14,10.2-10.92,11.82-19.86l4,.6a55.92,55.92,0,0,1-1.5,6.06c2.34,5.64,6.3,8.52,11.7,9.84v-18.54H578.72v-3.6H631.4v3.6H607.46v7.08h20v3.6h-20Zm17.22-27.17h-39.6v-19.56h39.6Zm-4-16.44H589v5.16h31.68Zm0,8.1H589v5.27h31.68Z"/><path d="M643.94,2036.12a91.2,91.2,0,0,1-3.18,14.76,27.81,27.81,0,0,0-3.36-1.26c1.44-3.72,2.4-9.12,3-14.1Zm11.7-16.32a76.55,76.55,0,0,1,4.08,12.42l-3.36,1.08c-.18-1-.48-2.16-.84-3.54-13.5,2-15.3,2.46-16.38,3-.24-.78-.9-2.76-1.32-3.72,1.2-.29,2.64-1.79,4.38-4a67,67,0,0,0,5.34-7.08c-6.6.72-8,1-8.82,1.45-.24-.78-.78-2.7-1.2-3.72,1-.24,2-1.44,3.3-3.31a85.31,85.31,0,0,0,8.28-15.23l3.72,1.56a100.23,100.23,0,0,1-9.72,16.32l6.78-.61c1.56-2.46,3.12-5.21,4.44-7.85l3.48,2a114.44,114.44,0,0,1-13.68,19.43l10.5-1.44c-.6-2-1.38-4.08-2-5.93Zm-5.58,15.6a110.11,110.11,0,0,1,1.68,13.08l-3.3.66a124.48,124.48,0,0,0-1.56-13.2Zm5.94-1.5a85.75,85.75,0,0,1,3.48,11.1l-3.18,1.08a73.75,73.75,0,0,0-3.24-11.22Zm22.2-35.33c-.24.54-.48,1.14-.72,1.68,3.78,6.9,10.32,14.21,16.32,17.82a14.41,14.41,0,0,0-3.06,3.23c-5.28-3.72-11.1-10.43-15.06-17.33a51.33,51.33,0,0,1-9.48,12.9h19.2v3.71H665.78v-3.29a46.37,46.37,0,0,1-5.52,4.67,18,18,0,0,0-2.88-2.75,46.78,46.78,0,0,0,17-21.66Zm-15.12,29.15h25.44V2052h-4v-3.12H667v3.3h-3.9Zm3.9,3.6v14H684.5v-14Z"/><path d="M751.88,2020.76c-3.3,5.16-7.2,10.86-10.92,14.4l-3.24-2a55.93,55.93,0,0,0,7.62-9.78H727.4v23.4c0,2.64-.66,3.78-2.7,4.38s-5.46.66-10.74.66a14.86,14.86,0,0,0-1.44-3.84c4.26.12,8.22.06,9.36,0s1.44-.3,1.44-1.26v-23.34h-25v-3.77h31.8c-5.16-2.65-12.42-6.07-18-8.53l2.1-2.87c3.3,1.38,7.26,3.12,11.1,4.79a69.6,69.6,0,0,0,12.18-8.69H704v-3.72h37.38l.9-.24,2.88,2.22a93.88,93.88,0,0,1-16,12.3c2.58,1.2,5,2.4,6.78,3.29l-1,1.45h13l.78-.31Z"/><path d="M770.18,2015.67a9.06,9.06,0,1,1-9.06,9A9.09,9.09,0,0,1,770.18,2015.67Zm0,15.23a6.18,6.18,0,1,0,0-12.36,6.18,6.18,0,1,0,0,12.36Z"/><line class="cls-3" x1="621" y1="351" x2="621" y2="351"/><rect class="cls-2" x="1115" y="1262" width="65" height="220" rx="12"/><path class="cls-1" d="M1159.05,1300.79a27.61,27.61,0,0,0,11.5,8.1,11.65,11.65,0,0,0-2.15,2.55,30.77,30.77,0,0,1-12.8-10.65h-15.95a34.39,34.39,0,0,1-13,11.3,11.43,11.43,0,0,0-2.15-2.55,30.39,30.39,0,0,0,11.6-8.75H1125v-2.85h10v-16.15h-7.7V1279h7.7v-5h3.3v5h18.55v-5h3.35v5h7.65v2.8h-7.65v16.15h9.8v2.85Zm-10,14.5h17.3v2.85H1128.8v-2.85h16.9v-5.6h-10.45v-2.8h10.45v-4.4h3.35v4.4h10.65v2.8h-10.65Zm-10.8-33.5v3.6h18.55v-3.6Zm0,9.8h18.55v-3.65h-18.55Zm0,6.35h18.55v-3.8h-18.55Z"/><path class="cls-1" d="M1143.25,1342.54s0,1.15,0,1.55c-.6,15.85-1.2,21.2-2.6,23a3.71,3.71,0,0,1-2.8,1.45,32.65,32.65,0,0,1-4.45,0,9.25,9.25,0,0,0-.85-3c1.75.15,3.2.15,3.9.15a1.42,1.42,0,0,0,1.45-.65c1-1.2,1.6-6,2.15-19.35h-6.8c-.55,10-2,18.25-6.45,23.65a9.53,9.53,0,0,0-2.55-2.35c5.45-6.45,5.9-17.85,6.1-31.55h-5.2v-3.1h20.1v3.1h-11.65c0,2.45-.1,4.85-.2,7.15Zm-7.9-10.45a33.47,33.47,0,0,0-4.25-7.15l2.9-1.15a31.92,31.92,0,0,1,4.4,7Zm23.85-7.45a15.26,15.26,0,0,1-.85,2.55c2.65,5.45,7.7,11.35,12.45,14a13,13,0,0,0-2.45,2.75c-4.25-2.7-8.5-8-11.4-13.3a32.61,32.61,0,0,1-11,13.6,12.79,12.79,0,0,0-2.35-2.65c5.85-3.6,10.35-10.2,12.5-17.85Zm-8.3,32.45a74,74,0,0,1,13.6,8.25l-2.25,2.9c-2.85-2.6-8.75-6.3-13.4-8.65Zm9.5-4.85a66.22,66.22,0,0,0-8.6-6.85l2.15-2.2a67.46,67.46,0,0,1,8.75,6.55Z"/><path class="cls-1" d="M1136.5,1387c-1.6,7.2-4.55,16.15-9.1,21.7a19.23,19.23,0,0,0-3.1-1.8c4.55-5.25,7.3-13.85,8.55-20.55Zm12.9-12.3v40c0,2.55-.7,3.6-2.35,4.2s-4.8.6-9.4.6a15.62,15.62,0,0,0-1.4-3.45c3.7.1,7.3.1,8.25.05s1.45-.35,1.45-1.4v-40ZM1161,1386c4.45,7,8.7,16.1,10,22l-3.45,1.45c-1.25-5.85-5.25-15.15-9.6-22.3Z"/><path class="cls-1" d="M1165.65,1451.74a72.75,72.75,0,0,1-7.65,3.65,19.75,19.75,0,0,0,12.1,9.55,10.66,10.66,0,0,0-2.1,2.6,22.77,22.77,0,0,1-12.5-11.1c-1.1.45-2.15.85-3.2,1.2,1.5,4.4.7,8.7-1.6,10.35a6,6,0,0,1-4.25,1.3c-1,0-2.25,0-3.55-.1a5.77,5.77,0,0,0-.9-2.85,30,30,0,0,0,4,.2,4.12,4.12,0,0,0,2.7-.65c1.35-1,1.9-3.75,1-6.9-5.55,3.7-14.45,7-22,8.45a11,11,0,0,0-1.45-2.4c8-1.1,17.65-4.65,22.65-8.35a13.35,13.35,0,0,0-1.25-2.15,69.47,69.47,0,0,1-17.55,6.35,7.59,7.59,0,0,0-1.4-2.15c5.8-1,13.4-3.4,17.7-5.85-.6-.55-1.25-1.15-2-1.7a80,80,0,0,1-15.25,4.15,16.41,16.41,0,0,0-1.55-2.2c5.7-.75,12.15-2.15,16.75-4.15h-18.55v-2.55h28c.3-.9.55-1.8.9-2.75h-21.7c1.25-2.8,3-7,4-10.25l3,.5a42,42,0,0,0-3.4-3.25l2-1.15h-6.25a29.23,29.23,0,0,1-5.1,5.6,25.27,25.27,0,0,0-2.35-2.2,26.89,26.89,0,0,0,7.5-9.35l3,.85c-.45.9-1,1.75-1.4,2.65h13.45v2.45h-8.3a44.9,44.9,0,0,1,4,3.65l-2.45,1.6a4.8,4.8,0,0,0-.7-.75c-.2.65-.45,1.25-.65,2h17.75l.6-.2,2.25.5c-.8,3.15-1.9,7-3,10.15h12V1449h-20.25c-.6.35-1.2.7-1.85,1a16.36,16.36,0,0,1,4.4,5.35,90.1,90.1,0,0,0,11.6-5.5Zm-10.2-10.3c.35-1.15.65-2.2,1-3.2h-17.7c-.45,1.15-.9,2.2-1.3,3.2Zm14.75-14.3v2.45h-16.6a28.84,28.84,0,0,1-4.55,5.15,15.06,15.06,0,0,0-2.55-2,21.57,21.57,0,0,0,6.7-9.1l3.1.8a26.43,26.43,0,0,1-1.25,2.7Zm-7.9,8a32.47,32.47,0,0,0-3.9-4.25l2.3-1.25a30.14,30.14,0,0,1,4,4Z"/><path d="M559.82,1165.76q6.38-2.91,12.83-5.64l-6.69,2.82a507.1,507.1,0,0,1,100.48-30.39q14.91-2.9,30-4.93l-7.44,1a394.3,394.3,0,0,1,72-3.31c7.09.36,14.17,1,21.21,1.91l-7.44-1c11.54,1.57,23.11,4,33.87,8.51l-6.69-2.82a61.15,61.15,0,0,1,13.41,7.64l-5.67-4.38a66.16,66.16,0,0,1,11.57,11.66l-4.37-5.67a60.38,60.38,0,0,1,7.55,13l-2.83-6.69a62.46,62.46,0,0,1,4.18,15.48l-1-7.44a81.23,81.23,0,0,1-.17,21.47l1-7.44a136.46,136.46,0,0,1-9.93,34.37l2.83-6.68c-8.06,19-19,36.78-30.94,53.57q-4.94,6.93-10.14,13.65l4.37-5.66c-15.39,19.88-32.15,38.85-50.91,55.64q-9.45,8.46-19.51,16.21l5.67-4.38a412.07,412.07,0,0,1-74.63,45.18q-11.34,5.41-22.94,10.28l6.69-2.82c-24.46,10.3-49.54,19-74.86,27q-11.21,3.51-22.47,6.84a29.23,29.23,0,0,0-16.74,12.87,20.88,20.88,0,0,0-3.32,10.41,21.19,21.19,0,0,0,.5,11.16c2.19,6.78,6.39,13.31,12.87,16.74s14.25,5,21.57,2.82c28.54-8.46,56.9-17.61,84.57-28.58,28.21-11.18,55.92-23.78,81.91-39.5a376.54,376.54,0,0,0,34.29-23.37,405.12,405.12,0,0,0,36.92-31.43c17.87-17.44,33.8-36.88,48.75-56.85,14.3-19.11,27.35-39.45,36.7-61.47,5.28-12.44,10.17-25,12.35-38.35a134.37,134.37,0,0,0,2.21-22.37,104.77,104.77,0,0,0-2.61-22.11,90,90,0,0,0-7.57-20.12c-3.31-6.67-8-12.74-12.88-18.32a90.08,90.08,0,0,0-17-14.59c-6-4.11-12.81-6.85-19.5-9.52-13-5.19-26.84-7.17-40.62-9a289.38,289.38,0,0,0-38.59-2.2c-28.91.09-57.79,3.48-86.2,8.71a509.7,509.7,0,0,0-96.94,27.84c-9.42,3.77-18.78,7.74-28,12a28.88,28.88,0,0,0-10,38.31c3.86,6,9.6,11.24,16.74,12.87l7.44,1a27.86,27.86,0,0,0,14.13-3.83Z"/><path d="M547,1311.25a768.43,768.43,0,0,1,85.57-16.49l-7.44,1q22.77-3,45.67-4.79c13.08-1,26.37-2.32,39.43-.58l-7.44-1a86.63,86.63,0,0,1,21.65,5.89l-6.69-2.82a88.38,88.38,0,0,1,19.19,11.3l-5.67-4.38A112.4,112.4,0,0,1,751,1319.46l-4.38-5.67c10.22,13.3,18,28.29,24.53,43.69l-2.83-6.69c7.41,17.56,13.15,35.79,19,53.91,6.76,20.92,13.3,41.92,20.06,62.85,14.19,44,29.53,87.62,49.13,129.5a508.36,508.36,0,0,0,35.58,64.19c4,6.08,9.58,10.89,16.74,12.86a21.2,21.2,0,0,0,11.16.51,20.79,20.79,0,0,0,10.41-3.33c6-3.85,11.24-9.59,12.87-16.73s1.33-15.28-2.82-21.58a511.08,511.08,0,0,1-37.14-67.54c-3.06-6.63-6-13.32-8.84-20l2.82,6.68c-14.58-34.57-26.54-70.17-38-105.89-5.75-17.92-11.38-35.87-17.15-53.78C837,1376.49,832,1360.5,826,1344.92c-5.85-15.1-12.31-30.13-20.63-44.06a208.12,208.12,0,0,0-15.64-22.15,115.45,115.45,0,0,0-13.4-14.38c-13.31-11.94-28.51-21.07-45.73-26.18a121.94,121.94,0,0,0-28.08-4.48c-9.18-.49-18.44.36-27.6,1a823.7,823.7,0,0,0-128.54,19.12q-7.14,1.67-14.25,3.46c-6.74,1.7-13.25,6.92-16.74,12.87a20.88,20.88,0,0,0-3.32,10.41,21.19,21.19,0,0,0,.5,11.16c2.19,6.78,6.39,13.32,12.87,16.74a29.66,29.66,0,0,0,21.57,2.82Z"/><line class="cls-4" x1="550.5" y1="1525.1" x2="773.91" y2="1525.1"/><path d="M340.11,1110.09a201.14,201.14,0,0,1,22.46,24.58l-4-5.16c14.73,19.11,26.33,40.41,35.72,62.59l-2.57-6.09c14.2,33.79,23,69.45,29.42,105.47q2.91,16.43,5.12,33l-.91-6.78c5.77,43.11,8.28,86.59,8.86,130.07.59,43.72-.76,87.44-2.76,131.1-1.12,24.38-2.44,48.74-3.75,73.11-.34,6.31,3.08,13.64,7.47,18s11.68,7.75,18,7.47c6.59-.3,13.43-2.47,18-7.47a27.73,27.73,0,0,0,7.47-18c2.14-39.83,4.32-79.65,5.57-119.52,1.27-40.19,1.61-80.43,0-120.61a1015.32,1015.32,0,0,0-12.38-124.65c-6.09-37-14.53-73.79-28.5-108.65-14.09-35.16-32.39-68.65-58.77-96.2-2.73-2.85-5.55-5.6-8.46-8.28a26.74,26.74,0,0,0-18-7.47c-6.25,0-13.72,2.78-18,7.47-4.46,4.86-7.77,11.24-7.47,18,.3,6.61,2.47,13.43,7.47,18Z"/><line class="cls-4" x1="357.24" y1="1092.47" x2="279.86" y2="1408.73"/></svg>