<svg id="Layer_1" data-name="Layer 1" xmlns="http://www.w3.org/2000/svg" viewBox="0 0 1242 2208"><defs><style>.cls-1{fill:#f6eabe;}.cls-2{fill:#999;}.cls-3,.cls-4{fill:none;}.cls-4{stroke:#000;stroke-linecap:round;stroke-miterlimit:10;stroke-width:50px;}</style></defs><rect class="cls-1" width="1242" height="2208"/><path d="M579,644.84C468.64,695.65,347.16,748.85,260.61,787l-19.05-54c31-11.91,68.28-27.79,109.57-45.26l-12.7-497,53.19-1.59,11.91,476.39c52.41-23,108.78-47.64,163.56-72.25Zm352.54,224.7C894.22,814,818,728.21,748.92,656,687,751.23,598.06,821.9,471,874.3,463.88,864,441.64,840.16,429.73,829,706,729,790.21,536.06,825.94,189.09l57.16,5.56c-19.05,172.29-50,307.27-106.39,414.46C849,680.57,933.92,771.08,976,828.25ZM624.26,464.6C603.62,409.82,552,328.83,502,270.87l45.26-23c53.19,58,104,135.78,126.24,189Z"/><rect class="cls-2" x="1114" y="437" width="65" height="126" rx="12"/><path class="cls-1" d="M1133.7,466.82c1.25,1.6,4.9,6.7,5.7,8.05l-2,2.45c-.7-1.5-2.35-4.4-3.75-6.65V497h-3.15V472.57c-1.5,5.05-3.5,9.9-5.55,12.85a14.83,14.83,0,0,0-1.75-3.1c2.9-4,5.8-11.5,7.2-18h-6.2v-3.15h6.3v-9.65h3.15v9.65h5.45v3.15h-5.45Zm19.1.7a19.47,19.47,0,0,0,.45,2.65c-10.15,2.7-11.6,3.15-12.5,3.75a12.13,12.13,0,0,0-1.1-3.2c.7-.2,1.55-.5,1.55-2.2v-16.7h3.25v6.5h8.35v2.9h-8.35v8.3Zm2.35,5.5-2,3.75h12.65V497h-3.4v-1.75h-17v2h-3.3V476.77h7.9c.55-1.5,1.2-3.25,1.55-4.6Zm7.3,6.5h-17v5.05h17Zm0,13v-5.3h-17v5.3Zm2.25-22.4c1.25,0,1.5-.75,1.65-5.25a9.16,9.16,0,0,0,2.85,1.25c-.3,5.45-1.2,6.95-4.15,6.95h-5.85c-3.65,0-4.55-.95-4.55-4.45V451.87h3.25v6.5h10.2v2.9h-10.2v7.35c0,1.3.25,1.5,1.65,1.5Z"/><path class="cls-1" d="M1168.55,526.87v2.5H1124.4v-2.5h20.25v-3.2H1127.8v-2.3h16.85v-3H1129.2v-2.25h15.45v-3.2H1124.5v-2.5h20.15v-3.05H1129.8V505h14.85v-3.55h3.25V505h14.45v5.4h6.15v2.5h-6.15v5.45H1147.9v3h17.3v2.3h-17.3v3.2Zm-37.75,5h31.75v15.25h-3.25v-1.6H1134v1.7h-3.2Zm3.2,2.4v3.2h25.3v-3.2Zm25.3,8.85v-3.4H1134v3.4Zm-11.4-32.7h11.15v-3.05H1147.9Zm0,5.7h11.15v-3.2H1147.9Z"/><path d="M354.92,1859.69a98.85,98.85,0,0,1-6.18,13.56v39.59H344.9v-33.35a61.73,61.73,0,0,1-5.46,7,32.86,32.86,0,0,0-2.28-3.9c5.58-5.87,10.8-14.87,14-24Zm34.14,28c-2.1,1.26-4.44,2.64-6.84,3.78,2,6.06,5.82,11.82,10.38,14.52a11.2,11.2,0,0,0-2.64,2.94c-4.62-3.18-8.46-9.42-10.68-16a27.45,27.45,0,0,1-2.76,1.2c2.58,6.84,1.86,14-1,16.68a6.91,6.91,0,0,1-5.22,1.92c-1.08,0-2.4-.06-3.78-.18a9.31,9.31,0,0,0-1-3.42,38.26,38.26,0,0,0,4.14.24,3.66,3.66,0,0,0,3.12-1.14c1.56-1.38,2.22-5.16,1.44-9.36-5.16,4.92-13.08,9.36-19.8,11.7a15.8,15.8,0,0,0-2.34-2.82c7.62-2.28,16.62-7.14,21.3-12.24a35.76,35.76,0,0,0-1.5-3.48,63.52,63.52,0,0,1-17.22,9.9,16.14,16.14,0,0,0-2.22-2.64c5.94-1.8,13.74-5.76,17.88-9.54a16.39,16.39,0,0,0-2.94-3.18,58.44,58.44,0,0,1-13.56,7.26,11.26,11.26,0,0,0-2.22-2.58,52.48,52.48,0,0,0,15.06-7.56H356.48v-9.35c-1.14,1-2.28,2-3.54,2.94a9.54,9.54,0,0,0-2.52-2.59,44.59,44.59,0,0,0,13.86-16.25l3.84.72c-.6,1.2-1.32,2.34-2,3.54h11.1l.72-.18,2.34,1.68a52.13,52.13,0,0,1-4.8,6.84h13.08v12.65H370.94a15.29,15.29,0,0,1-1.2,1,21,21,0,0,1,5.64,6.84,111.93,111.93,0,0,0,10.92-6.42ZM364,1865.81a54.58,54.58,0,0,1-4.2,5.16h11.58a37.88,37.88,0,0,0,3.72-5.16Zm-3.9,14.69h10.5v-6.42h-10.5Zm24.72-6.42H374.18v6.42H384.8Z"/><path d="M424,1861.49H409.22v35.15h-4v-38.87H424Z"/><path d="M457.28,1858.55c-.06,2.1-.12,5.1-.42,8.64.9,7,4.56,32.51,25.74,42a12.63,12.63,0,0,0-2.88,3.36c-15.42-7.26-21.72-22.74-24.6-34-2.64,12.23-8.94,26.33-24.06,34.19a13.77,13.77,0,0,0-3.12-3.06c25-12.48,24.78-42.11,25-51.11Z"/><path d="M486,1909.84h14.82v-35.15h4v38.87H486Z"/><path d="M571.94,1893.22H547.1v14c0,3-1,4.2-3.06,4.86s-5.94.72-12.3.66a17.27,17.27,0,0,0-1.74-3.9c5.16.12,9.84.06,11.16.06s1.86-.48,1.86-1.74v-13.92H518.18v-3.9H543v-10.2H522.14v-3.83H543v-9.6c-6.66.66-13.56,1.14-19.8,1.44a16.18,16.18,0,0,0-1-3.54c14.16-.72,31.8-2.28,40.74-5.16l2.94,3.24a123.25,123.25,0,0,1-18.78,3.6v10h21.48v3.83H547.1v10.2h24.84Z"/><path d="M595.64,1888.3c-2.22.78-4.44,1.5-6.66,2.28v17.34c0,2.34-.54,3.36-1.92,4s-3.6.78-7.44.72a15.93,15.93,0,0,0-1.14-3.66c2.64.06,5,.06,5.7,0s1.08-.24,1.08-1.08v-16.08c-2.58.9-5,1.62-7.2,2.34l-1.08-3.84c2.28-.72,5.16-1.56,8.28-2.51v-13.56H577.7v-3.72h7.56v-12.12H589v12.12h6.72v3.72H589v12.35l6.18-2Zm19.8,19.8a37.41,37.41,0,0,0,5.94.42c1.38,0,9.54,0,11.52-.06a10.63,10.63,0,0,0-1.2,3.6H621.26c-8.88,0-15.24-1.74-19.08-10.32a27.11,27.11,0,0,1-7.32,11.28,23.9,23.9,0,0,0-3-2.4c5.4-4.26,8.1-11,9.06-20l3.66.48a63.4,63.4,0,0,1-1.14,6.36c1.74,5.4,4.62,8.28,8.28,9.72v-19.56H597v-3.36H631v3.36h-15.6V1895H628.1v3.3H615.44Zm12.18-28.49h-28v-19.26h28Zm-3.78-16.14H603.26v5h20.58Zm0,7.92H603.26v5.15h20.58Z"/><path d="M692.36,1882.91v4.31H637.88v-4.31Z"/><path d="M713.3,1859.63a99.16,99.16,0,0,1-4.86,11.64V1913H704.6v-34.73a68.26,68.26,0,0,1-6.12,8.46,21.26,21.26,0,0,0-2.22-4c5.46-5.88,10.32-14.94,13.32-24.12Zm37,2.46v50.33h-3.78v-3.06H719.3v3.54h-3.72v-50.81Zm-3.78,43.73v-40.25H719.3v40.25Zm-11.82-28.13v6.83h7.08v16H724.58v-16h6.78v-6.83h-9.42v-3.19h9.42v-6.83h3.3v6.83h9.66v3.19Zm3.9,9.89H727.7v9.9h10.86Z"/><path d="M780,1888.54l-7.74,2.52v22h-3.72v-20.76c-3.6,1.08-7.08,2.22-10.08,3.12l-1.08-3.84c3.06-.84,7-1.92,11.16-3.18v-13.79h-5.7a53.29,53.29,0,0,1-2.76,9.11,25.52,25.52,0,0,0-3.06-1.85c2.28-5,3.54-12.6,4.26-20l3.54.6c-.36,2.82-.78,5.64-1.26,8.34h5v-12.3h3.72v12.3h6.42v3.84h-6.42v12.72l7.26-2.23Zm31.68-20s0,1.56-.06,2.1c-1.44,27.29-2.7,36.59-5.22,39.47a5,5,0,0,1-4,2.22,53,53,0,0,1-6.84-.06,10.36,10.36,0,0,0-1.14-4c2.82.24,5.28.3,6.42.3a2.61,2.61,0,0,0,2.34-1c1.92-2.16,3.3-11.1,4.56-35.33h-3.36c-3.06,15.83-9.72,32-19.68,39.83a11.72,11.72,0,0,0-3.36-2.4c10-7.2,16.44-22.2,19.56-37.43h-5.34c-2.7,10.37-8.28,21.65-14.88,27.41a14.07,14.07,0,0,0-3.18-2.34c6.42-5,11.82-15.3,14.64-25.07h-5.52a48.75,48.75,0,0,1-7,11.52,29.73,29.73,0,0,0-3.06-2.29c5-5.39,8.58-14,10.62-23.15l3.66.72a87.43,87.43,0,0,1-2.76,9.48Z"/><path d="M835.22,1859.69a103.09,103.09,0,0,1-6,13.08v40.13h-3.78v-34a70.58,70.58,0,0,1-5.88,7.55,26.3,26.3,0,0,0-2.28-3.9c5.64-5.81,11-14.87,14.16-24Zm36.6,32.45H855.38V1913h-4v-20.88H834.08v-3.84h17.34v-13.73h-9.84a43.74,43.74,0,0,1-4.44,9.35,31.86,31.86,0,0,0-3.42-2c3.54-5,6-12.71,7.38-20.57l3.78.72a65.79,65.79,0,0,1-2.1,8.7h8.64v-11.64h4v11.64h13.86v3.84H855.38v13.73h16.44Z"/><path d="M883.88,1894c4.68-2,7.26-4.86,7.56-9.17a4,4,0,0,1-1.14.11c-2.34,0-4.26-1.32-4.26-4.07a4,4,0,0,1,4.32-4.08c3.18,0,4.86,2.58,4.86,6.66,0,6.41-4,11.21-10.08,13.43Z"/><path d="M476.9,1947.17c4.44,10.31,12.24,20,20.76,24.71a23.11,23.11,0,0,0-3.06,3.36c-9-5.58-16.92-16.32-21.6-28.07h-1v22.43h14.28v4H472V1985H467.9v-11.4H453.68v-4H467.9v-22.43h-1.08c-4.74,11.75-12.66,22.43-21.3,28.25a24.18,24.18,0,0,0-2.88-3.18c8-4.92,15.66-14.76,20.16-25.07H444.14v-4H467.9v-12.72H472v12.72h24v4Z"/><path d="M551.9,1969.54a33.64,33.64,0,0,1-8.22,7.38c2.4,2.82,5.22,4.44,8.16,4.38,1.68-.06,2.16-1.5,2.46-5.94a10.31,10.31,0,0,0,3.12,1.62c-.6,6.3-2.1,7.92-5.76,8-4.26,0-8.16-2.22-11.28-6a74.41,74.41,0,0,1-13.68,5.82,36.46,36.46,0,0,0-2.1-3.24,65.61,65.61,0,0,0,13.86-5.34,34.94,34.94,0,0,1-3.84-8.82H520.16v4.38l11.16-1-.06,2.88-11.1,1.08v6.12c0,2.1-.48,3.06-2.16,3.54s-4.38.54-8.94.54a19.42,19.42,0,0,0-1.26-3.18c3.36.12,6.48.06,7.38,0s1.2-.24,1.2-1v-5.7c-4.74.48-9.12.9-12.72,1.2l-.42-3.3c3.54-.24,8.1-.54,13.14-1v-4.68h-12.9v-3.18h12.9v-4.44c-3.78.42-7.68.72-11.28.91a12,12,0,0,0-.9-2.71c8.16-.48,18.18-1.55,23.52-2.94l2.52,2.58c-2.82.66-6.36,1.26-10.08,1.74v4.86h13.68a52.67,52.67,0,0,1-1.2-8.94h3.84a57.48,57.48,0,0,0,1.2,8.94h19v3.18H538.58a31.91,31.91,0,0,0,3.12,6.9,27.09,27.09,0,0,0,6.72-5.94Zm4.62-15.17h-53v-3.25H527.9V1947H509.3v-3.06h18.6v-4H506.06v-3.18h12.66a30,30,0,0,0-3.48-5.16l3.42-1.26a24.4,24.4,0,0,1,4.32,6.24l-.42.18H537.2a54.7,54.7,0,0,0,3.6-6.6l4.14,1.2c-1.2,1.86-2.52,3.84-3.72,5.4h12.84V1940H531.92v4h18.9V1947h-18.9v4.13h24.6Zm-5.7,9a34,34,0,0,0-9.48-5.52l2.16-2.46a38.32,38.32,0,0,1,9.66,5.22Z"/><path d="M592.46,1979.62a70.7,70.7,0,0,0,7.38.36c2.1.06,14.76,0,17.58-.06a16.36,16.36,0,0,0-1.44,3.84H599.72c-12.3,0-19.92-1.92-24.72-10.38a31.55,31.55,0,0,1-9.48,11.7,19.84,19.84,0,0,0-3.06-2.82c6.3-4.14,10.2-10.92,11.82-19.86l4,.6a55.92,55.92,0,0,1-1.5,6.06c2.34,5.64,6.3,8.52,11.7,9.84v-18.54H563.72v-3.6H616.4v3.6H592.46v7.08h20v3.6h-20Zm17.22-27.17h-39.6v-19.56h39.6Zm-4-16.44H574v5.16h31.68Zm0,8.1H574v5.27h31.68Z"/><path d="M641,1960.18c-2.22.78-4.44,1.57-6.6,2.28v17.46c0,2.34-.54,3.36-1.92,4s-3.6.78-7.44.72a13.45,13.45,0,0,0-1.14-3.66c2.64.06,5,.06,5.7,0s1.08-.24,1.08-1.08v-16.25c-2.76.95-5.4,1.79-7.68,2.51l-1.14-3.78c2.4-.72,5.46-1.68,8.82-2.76v-13.37h-7.92v-3.72h7.92v-12.18h3.72v12.18h6.48v3.72H634.4v12.23l6.06-1.92Zm36.42-22V1942h-15.9v7.8h13v3.66H644.78v-3.66h13V1942h-16v-3.72h16v-7.56h3.78v7.56Zm-8,22.37h7.5v3.72h-7.5v15.84c0,2.52-.54,3.6-2.22,4.32s-4.56.66-9,.66a15.58,15.58,0,0,0-1.26-3.9c3.48.18,6.6.12,7.5.06s1.2-.3,1.2-1.2v-15.78H642.44v-3.72h23.22V1955h3.78Zm-19.26,5.7a119.86,119.86,0,0,1,6.78,10.32l-3.18,2a105.62,105.62,0,0,0-6.66-10.62Z"/><path d="M703.52,1963.06l-3.66,3.12a93.63,93.63,0,0,0-13.32-13.38l3.42-3.11A118.53,118.53,0,0,1,703.52,1963.06Z"/><path d="M730.64,1960.3c-2.22.78-4.44,1.5-6.66,2.28v17.34c0,2.34-.54,3.36-1.92,4s-3.6.78-7.44.72a15.93,15.93,0,0,0-1.14-3.66c2.64.06,5,.06,5.7,0s1.08-.24,1.08-1.08v-16.08c-2.58.9-5,1.62-7.2,2.34l-1.08-3.84c2.28-.72,5.16-1.56,8.28-2.51v-13.56H712.7v-3.72h7.56v-12.12H724v12.12h6.72v3.72H724v12.35l6.18-2Zm19.8,19.8a37.41,37.41,0,0,0,5.94.42c1.38,0,9.54,0,11.52-.06a10.63,10.63,0,0,0-1.2,3.6H756.26c-8.88,0-15.24-1.74-19.08-10.32a27.11,27.11,0,0,1-7.32,11.28,23.9,23.9,0,0,0-3-2.4c5.4-4.26,8.1-11,9.06-20l3.66.48a63.4,63.4,0,0,1-1.14,6.36c1.74,5.4,4.62,8.28,8.28,9.72v-19.56H732v-3.36H766v3.36h-15.6V1967H763.1v3.3H750.44Zm12.18-28.49h-28v-19.26h28Zm-3.78-16.14H738.26v5h20.58Zm0,7.92H738.26v5.15h20.58Z"/><path d="M785.18,1948.67a9.06,9.06,0,1,1-9.06,9A9.09,9.09,0,0,1,785.18,1948.67Zm0,15.23a6.18,6.18,0,1,0,0-12.36,6.18,6.18,0,1,0,0,12.36Z"/><path d="M445,2015.62a67.05,67.05,0,0,1-5.4,8.46v33.18h-3.78v-28.5a55.81,55.81,0,0,1-6,5.94,23.11,23.11,0,0,0-2.4-3.41,57.79,57.79,0,0,0,14-16.92Zm-1.44-11.87a59.41,59.41,0,0,1-13.32,14.1,20,20,0,0,0-2.22-2.82c4.44-3.3,9.42-8.4,11.94-12.66ZM477,2034.17a34,34,0,0,1-11.58,13.91,56.54,56.54,0,0,0,16.08,5.52,13.63,13.63,0,0,0-2.46,3.48,58.51,58.51,0,0,1-17.16-6.72,63.26,63.26,0,0,1-17.7,6.78,10.39,10.39,0,0,0-2-3.42,62.23,62.23,0,0,0,16.26-5.64,41.7,41.7,0,0,1-7.2-6.54,42.74,42.74,0,0,1-4.86,4.08,25.12,25.12,0,0,0-2.76-2.94,46.2,46.2,0,0,0,5.28-4.08,34,34,0,0,1-2.82-4.38l3.3-1.2a19.47,19.47,0,0,0,2,3.18,40.7,40.7,0,0,0,5.82-7.86c-9,.6-10.5.91-11.64,1.26a33.39,33.39,0,0,0-1.2-3.77c1.62-.19,3.78-1.26,6.6-2.88,1.44-.78,4.38-2.58,7.8-4.87-9.36.49-10.92.73-11.82,1.09a28.56,28.56,0,0,0-1.26-3.84,10.79,10.79,0,0,0,3.9-2.16A67.38,67.38,0,0,0,460.28,2003l3.9,1.8a87.44,87.44,0,0,1-11.7,10.32l11.1-.36a87.91,87.91,0,0,0,8.22-6.6l3.66,2.1a135.45,135.45,0,0,1-22.44,15l20.1-1.08c-1.5-1.87-2.94-3.72-4.38-5.29l3.06-1.61a90.33,90.33,0,0,1,10,13l-3.24,1.92c-.78-1.38-2-3.12-3.24-5-5.58.35-10.14.66-13.68.83a52.18,52.18,0,0,1-3,5h15.18l.72-.18Zm-20.94,2.21a33.51,33.51,0,0,1-2.34,2.76,40,40,0,0,0,8.16,6.9,31.13,31.13,0,0,0,9.72-9.66Z"/><path d="M532,2008.85c-7.68,13.8-25.5,22.32-40.92,25.73a16.9,16.9,0,0,0-1.92-3.54,75.76,75.76,0,0,0,23-8.33,66.78,66.78,0,0,0-11-7.09,75.24,75.24,0,0,1-8.82,4.21,12.41,12.41,0,0,0-2.7-2.94c10.74-3.84,18.66-9.6,22.8-14.64l4.5,1a46.67,46.67,0,0,1-4.2,4.26h16l.72-.18Zm9,20.57c-7.56,17.34-26.46,24.9-45.72,27.72a12.07,12.07,0,0,0-1.74-3.66c9.48-1.2,19-3.66,26.82-7.86a61.42,61.42,0,0,0-11.94-8.4,82.08,82.08,0,0,1-10.32,4.38,11.73,11.73,0,0,0-2.46-3c12.6-4,21.78-10.31,26.46-15.95l4.44,1a53,53,0,0,1-4.5,4.5h15.6l.78-.18Zm-32.46-18.53c-1.26,1-2.58,1.86-4,2.76a61,61,0,0,1,11,7,39.6,39.6,0,0,0,10.62-9.72Zm9.12,20.75c-1.74,1.26-3.6,2.46-5.64,3.66a64.1,64.1,0,0,1,11.88,8.22,34.59,34.59,0,0,0,11.52-11.88Z"/><path d="M597.92,2051.32c0,2.76-.78,4-2.64,4.68s-5.46.72-11.1.66a12.92,12.92,0,0,0-1.38-3.84c4.32.18,8.4.12,9.6.06s1.56-.42,1.56-1.56v-12.78H577.22v17.94h-4v-17.94H557.78c-.9,6.72-2.88,13.56-7.56,18.78a11.58,11.58,0,0,0-3-2.64c6.6-7.44,7.26-18,7.26-26.46v-21.59h43.44Zm-24.66-16.56v-10.5H558.38v4c0,2.11-.06,4.26-.24,6.54Zm-14.88-24.35v10.13h14.88v-10.13Zm35.58,0H577.22v10.13H594Zm0,24.35v-10.5H577.22v10.5Z"/><path d="M626.36,2003.75a105.89,105.89,0,0,1-6.18,12.9v40.25h-4v-34.07a58.5,58.5,0,0,1-6.36,7.67,22.37,22.37,0,0,0-2.34-3.9c6-5.81,11.64-14.81,15.06-24Zm17.22,12.48v9H661.1v3.72H643.58v9.48h18.3v3.78h-18.3V2057h-4v-40.73h-4.44a65.13,65.13,0,0,1-8.64,12.65,28.89,28.89,0,0,0-3.12-2.7c5.46-5.57,10.32-14.27,13.26-23l3.84,1c-1,2.82-2.22,5.58-3.42,8.28h25.38v3.84Z"/><path d="M676.94,2028.76c0,8.16-.9,20-5.94,28a16.07,16.07,0,0,0-3.12-2.16c4.74-7.62,5.22-18.24,5.22-25.8v-14.33h19.38v-12h4v4.68h20.88v3.18H696.44v4.14H717.5l.72-.18,2.7.78a55.37,55.37,0,0,1-3.42,8.93l-3.24-1a52.36,52.36,0,0,0,1.92-5.33h-20v4.5l15.48-1.38.24,2.88-15.72,1.43v1.39c0,1.73.36,2.34,2.4,2.34h14a40.4,40.4,0,0,0,5.82-.37c.12,1.08.3,2.29.42,3.12a31.05,31.05,0,0,1-6,.36H698.3c-4.74,0-6-1.56-6-5.52v-1l-11.76,1.14-.3-2.93,12.06-1.14v-4.86H676.94Zm28.56,22.92h15.42v3.48H676.4v-3.48h14.88v-5h-10v-11.28h3.24v8.16h6.72v-9.12h3.48v17.22H702v-17.22h3.48v9.12h7.2v-8.16H716v11.28H705.5Z"/><path d="M728.24,2012.57H749.3v3.3H728.18Zm19,40.73H734v2.88h-3.48v-20.1H747.2Zm-.12-32.93v3.17h-16.5v-3.17Zm-16.5,7.73h16.56v3.24H730.58Zm3.42,11.34v10.5h9.66v-10.5Zm4.74-27.77a56.9,56.9,0,0,0-4.2-7.92l2.88-1.62a50.74,50.74,0,0,1,4.32,7.68Zm41.46,40c0,2.64-.6,3.9-2.28,4.56s-4.86.78-9.66.78a12.8,12.8,0,0,0-1.38-4c3.78.12,7.26.06,8.28.06s1.38-.36,1.38-1.44v-42.47H749.48v-3.72H780.2Zm-7.14-33.29H750.92v-3.48h22.14Zm-16.38,24.41v4.14H753.2v-23.1h16.92v19Zm0-15.47v12h9.9v-12Z"/><path d="M800.18,2020.67a9.06,9.06,0,1,1-9.06,9A9.09,9.09,0,0,1,800.18,2020.67Zm0,15.23a6.18,6.18,0,1,0,0-12.36,6.18,6.18,0,1,0,0,12.36Z"/><line class="cls-3" x1="621" y1="351" x2="621" y2="351"/><rect class="cls-2" x="1115" y="1246" width="65" height="271" rx="12"/><path class="cls-1" d="M1160.05,1285.79a27.61,27.61,0,0,0,11.5,8.1,11.65,11.65,0,0,0-2.15,2.55,30.77,30.77,0,0,1-12.8-10.65h-15.95a34.39,34.39,0,0,1-13,11.3,11.43,11.43,0,0,0-2.15-2.55,30.39,30.39,0,0,0,11.6-8.75H1126v-2.85h10v-16.15h-7.7V1264h7.7v-5h3.3v5h18.55v-5h3.35v5h7.65v2.8h-7.65v16.15h9.8v2.85Zm-10,14.5h17.3v2.85H1129.8v-2.85h16.9v-5.6h-10.45v-2.8h10.45v-4.4h3.35v4.4h10.65v2.8h-10.65Zm-10.8-33.5v3.6h18.55v-3.6Zm0,9.8h18.55v-3.65h-18.55Zm0,6.35h18.55v-3.8h-18.55Z"/><path class="cls-1" d="M1144.25,1327.54s0,1.15,0,1.55c-.6,15.85-1.2,21.2-2.6,23a3.71,3.71,0,0,1-2.8,1.45,32.65,32.65,0,0,1-4.45,0,9.25,9.25,0,0,0-.85-3c1.75.15,3.2.15,3.9.15a1.42,1.42,0,0,0,1.45-.65c1-1.2,1.6-6,2.15-19.35h-6.8c-.55,10-2,18.25-6.45,23.65a9.53,9.53,0,0,0-2.55-2.35c5.45-6.45,5.9-17.85,6.1-31.55h-5.2v-3.1h20.1v3.1h-11.65c0,2.45-.1,4.85-.2,7.15Zm-7.9-10.45a33.47,33.47,0,0,0-4.25-7.15l2.9-1.15a31.92,31.92,0,0,1,4.4,7Zm23.85-7.45a15.26,15.26,0,0,1-.85,2.55c2.65,5.45,7.7,11.35,12.45,14a13,13,0,0,0-2.45,2.75c-4.25-2.7-8.5-8-11.4-13.3a32.61,32.61,0,0,1-11,13.6,12.79,12.79,0,0,0-2.35-2.65c5.85-3.6,10.35-10.2,12.5-17.85Zm-8.3,32.45a74,74,0,0,1,13.6,8.25l-2.25,2.9c-2.85-2.6-8.75-6.3-13.4-8.65Zm9.5-4.85a66.22,66.22,0,0,0-8.6-6.85l2.15-2.2a67.46,67.46,0,0,1,8.75,6.55Z"/><path class="cls-1" d="M1167,1362.19v29.3h-3.5v-2.55h-13.3v15.6h-3.45v-15.6h-13.4v2.75H1130v-29.5Zm-33.65,3.2V1374h13.4v-8.65Zm13.4,20.35v-8.5h-13.4v8.5Zm16.75-20.35h-13.3V1374h13.3Zm0,20.35v-8.5h-13.3v8.5Z"/><path class="cls-1" d="M1169.25,1424.09v9.3h-3.15V1427h-35.4v6.4h-3v-9.3h6.95v-12.95h27.7v12.95Zm-6.45,26.6c0,1.85-.45,2.7-1.85,3.2s-3.9.5-7.7.45a8.57,8.57,0,0,0-1.1-2.75c3,.05,5.65.05,6.4.05s1-.25,1-1v-6.2c-7.3,1.45-14.85,3-20.45,4l-1.1-3c5.4-.8,13.6-2.3,21.55-3.75V1433h-22.2v5.3c0,4.85-.65,11.55-4.35,16.2a13.29,13.29,0,0,0-2.7-2c3.45-4.25,3.85-10,3.85-14.25v-8h28.6Zm-25-26.6h7.45v-6.9H1159v-3.35h-21.2Zm2.45,11.7a75.14,75.14,0,0,1,17.7,3l-.9,2.6c-4-1.5-11.7-2.9-17.7-3.35Zm18.75-16.3h-10.75v4.6H1159Z"/><path class="cls-1" d="M1163,1471.09a51.83,51.83,0,0,1-12,19.6,49.94,49.94,0,0,0,20.5,10.5,16.79,16.79,0,0,0-2.25,3,50.92,50.92,0,0,1-20.75-11.1c-5.65,5-12.55,8.6-21,11.3a15.53,15.53,0,0,0-2-3.05c8.35-2.45,15.1-5.9,20.6-10.6a57.05,57.05,0,0,1-12.2-19.65h-7.75v-3.25h44.75v3.25Zm-25.75,0a52.13,52.13,0,0,0,11.3,17.3,47.46,47.46,0,0,0,10.7-17.3Zm11.25-3.55a38.13,38.13,0,0,0-3.8-7.8l3.4-1a39,39,0,0,1,4,7.65Z"/><line class="cls-4" x1="516.06" y1="1298.55" x2="397" y2="1559.42"/><line class="cls-4" x1="517.94" y1="1298.55" x2="637" y2="1559.42"/><line class="cls-4" x1="636.76" y1="1559.49" x2="397.24" y2="1559.49"/><path d="M656.68,1094.48q3.32,2.4,6.56,4.9l-5.16-4a276.52,276.52,0,0,1,48.7,49l-4-5.16c18.65,24.15,33.63,50.9,45.54,79l-2.57-6.09c16.08,38.15,26.4,78.65,33.79,119.31q3.36,18.46,5.84,37.08l-.92-6.78c6.11,45.9,8.53,92.21,8.72,138.5.19,46.6-1.84,93.18-4.63,139.68-1.55,25.87-3.34,51.71-5.11,77.56-.43,6.26,3.15,13.72,7.47,18s11.68,7.76,18,7.47c6.6-.29,13.44-2.46,18-7.47a28,28,0,0,0,7.47-18c3.23-47.16,6.52-94.33,8.33-141.57,1.82-47.58,2.17-95.26-.58-142.81-2.84-48.87-8.85-97.79-19.64-145.57-9.88-43.69-23.92-86.58-45-126.22-19.68-37-46-71.67-78.6-98.16q-8.09-6.57-16.53-12.68c-5.06-3.66-13.88-4.17-19.65-2.58s-12.33,6.21-15.24,11.72c-3.13,5.92-4.7,13.09-2.57,19.65s6.06,11.15,11.72,15.24Z"/><line class="cls-4" x1="669" y1="1072" x2="516" y2="1299"/></svg>