<svg id="Layer_1" data-name="Layer 1" xmlns="http://www.w3.org/2000/svg" viewBox="0 0 1242 2208"><defs><style>.cls-1{fill:#f6eabe;}.cls-2{fill:#999;}.cls-3,.cls-4{fill:none;}.cls-4{stroke:#000;stroke-linecap:round;stroke-miterlimit:10;stroke-width:50px;}</style></defs><rect class="cls-1" width="1242" height="2208"/><path d="M476.58,156.86c-22.23,58.75-49.23,118.3-79.4,173.09V861.13h-50V411.73a949.88,949.88,0,0,1-77.81,100c-5.56-12.7-20.65-38.91-30.17-51.61,74.63-77,145.3-196.91,187.38-318.39ZM960.91,586.41H743.36v276.3H691V586.41H461.49V535.59H691V353.77H560.74c-16.67,47.64-36.52,89.72-58.75,123.86-10.32-7.15-31.76-20.65-45.26-27,46.85-65.9,79.4-168.32,97.66-272.34l50,9.53c-7.14,39.7-15.88,78.61-27.79,115.13H691v-154h52.4V303H926.77v50.82H743.36V535.59H960.91Z"/><rect class="cls-2" x="1114" y="427" width="65" height="126" rx="12"/><path class="cls-1" d="M1133.7,456.82c1.25,1.6,4.9,6.7,5.7,8.05l-2,2.45c-.7-1.5-2.35-4.4-3.75-6.65V487h-3.15V462.57c-1.5,5.05-3.5,9.9-5.55,12.85a14.83,14.83,0,0,0-1.75-3.1c2.9-4,5.8-11.5,7.2-18h-6.2v-3.15h6.3v-9.65h3.15v9.65h5.45v3.15h-5.45Zm19.1.7a19.47,19.47,0,0,0,.45,2.65c-10.15,2.7-11.6,3.15-12.5,3.75a12.13,12.13,0,0,0-1.1-3.2c.7-.2,1.55-.5,1.55-2.2v-16.7h3.25v6.5h8.35v2.9h-8.35v8.3Zm2.35,5.5-2,3.75h12.65V487h-3.4v-1.75h-17v2h-3.3V466.77h7.9c.55-1.5,1.2-3.25,1.55-4.6Zm7.3,6.5h-17v5.05h17Zm0,13v-5.3h-17v5.3Zm2.25-22.4c1.25,0,1.5-.75,1.65-5.25a9.16,9.16,0,0,0,2.85,1.25c-.3,5.45-1.2,6.95-4.15,6.95h-5.85c-3.65,0-4.55-.95-4.55-4.45V441.87h3.25v6.5h10.2v2.9h-10.2v7.35c0,1.3.25,1.5,1.65,1.5Z"/><path class="cls-1" d="M1168.55,516.87v2.5H1124.4v-2.5h20.25v-3.2H1127.8v-2.3h16.85v-3H1129.2v-2.25h15.45v-3.2H1124.5v-2.5h20.15v-3.05H1129.8V495h14.85v-3.55h3.25V495h14.45v5.4h6.15v2.5h-6.15v5.45H1147.9v3h17.3v2.3h-17.3v3.2Zm-37.75,5h31.75v15.25h-3.25v-1.6H1134v1.7h-3.2Zm3.2,2.4v3.2h25.3v-3.2Zm25.3,8.85v-3.4H1134v3.4Zm-11.4-32.7h11.15v-3.05H1147.9Zm0,5.7h11.15v-3.2H1147.9Z"/><path d="M379,1747.49H364.22v35.15h-4v-38.87H379Z"/><path d="M412.28,1744.55c-.06,2.1-.12,5.1-.42,8.64.9,7,4.56,32.51,25.74,42a12.63,12.63,0,0,0-2.88,3.36c-15.42-7.26-21.72-22.74-24.6-34-2.64,12.23-8.94,26.33-24.06,34.19a13.77,13.77,0,0,0-3.12-3.06c25-12.48,24.78-42.11,25-51.11Z"/><path d="M441,1795.84h14.82v-35.15h4v38.87H441Z"/><path d="M493.16,1757.62a67.64,67.64,0,0,1-7.2,12.25v28.85h-4v-24a41.57,41.57,0,0,1-7.26,6.41,17,17,0,0,0-2-3.48c7-5,12.3-12.23,16.14-20H474v-3.83h16.44a65.25,65.25,0,0,0,3.3-9.42l4.08,1c-.9,2.82-1.86,5.64-3,8.4H526.1v3.83Zm32.94,36.24v3.72H490v-3.72h16v-17.52H492.32v-3.72H506v-11.81h4v11.81h13.8v3.72H510v17.52Z"/><path d="M553.52,1759.12c-3.48,13.74-9,27.06-18.84,36.12a31.63,31.63,0,0,0-2.64-3.12c9-8.1,14.22-20.33,17.46-33H534.32v-3.89h16.14c.78-3.66,1.44-7.32,2-10.86l4,.54c-.54,3.36-1.2,6.84-2,10.32h31.08v3.89Zm33.18,34.2v3.84H543.92v-3.84h19.74v-18.54H550v-3.84h33.84v3.84H567.74v18.54Z"/><path d="M598.88,1780c4.68-2,7.26-4.86,7.56-9.17a4,4,0,0,1-1.14.11c-2.34,0-4.26-1.32-4.26-4.07a4,4,0,0,1,4.32-4.08c3.18,0,4.86,2.58,4.86,6.66,0,6.41-4,11.21-10.08,13.43Z"/><path d="M649,1747.49H634.22v35.15h-4v-38.87H649Z"/><path d="M706.76,1777.84H682.7v21.06h-4.14v-21.06h-25.2v-3.9h25.2v-14.63h-15a54.61,54.61,0,0,1-6.3,10,24.8,24.8,0,0,0-3.66-2.23c4.68-5,8.52-13,10.8-21.11l4,.84a68.18,68.18,0,0,1-3,8.52h13.2v-11h4.14v11h20.76v4H682.7v14.63h24.06Z"/><path d="M711,1795.84h14.82v-35.15h4v38.87H711Z"/><path d="M763.16,1757.62a67.64,67.64,0,0,1-7.2,12.25v28.85h-4v-24a41.57,41.57,0,0,1-7.26,6.41,17,17,0,0,0-2-3.48c7-5,12.3-12.23,16.14-20H744v-3.83h16.44a65.25,65.25,0,0,0,3.3-9.42l4.08,1c-.9,2.82-1.86,5.64-3,8.4H796.1v3.83Zm32.94,36.24v3.72H760v-3.72h16v-17.52H762.32v-3.72H776v-11.81h4v11.81h13.8v3.72H780v17.52Z"/><path d="M824.78,1759.54a74.71,74.71,0,0,1-5.76,11.94h32.7v27.3h-4.14v-3.12H820.22v3.42h-4v-23.4a50.91,50.91,0,0,1-11.46,11.52,21.84,21.84,0,0,0-2.64-3.18c8.64-5.94,14.46-14.76,18.36-24.48H804.08v-3.89H821.9a86,86,0,0,0,3.12-11.34l4.14.84c-.84,3.48-1.8,7-3,10.5h30v3.89Zm-4.56,15.78v16.5h27.36v-16.5Z"/><path d="M875.18,1762.67a9.06,9.06,0,1,1-9.06,9A9.09,9.09,0,0,1,875.18,1762.67Zm0,15.23a6.18,6.18,0,1,0,0-12.36,6.18,6.18,0,1,0,0,12.36Z"/><path d="M274,1819.49H259.22v35.15h-4v-38.87H274Z"/><path d="M331.76,1849.84H307.7v21.06h-4.14v-21.06h-25.2v-3.9h25.2v-14.63h-15a54.61,54.61,0,0,1-6.3,10,24.8,24.8,0,0,0-3.66-2.23c4.68-5,8.52-13,10.8-21.11l4,.84a68.18,68.18,0,0,1-3,8.52h13.2v-11h4.14v11h20.76v4H307.7v14.63h24.06Z"/><path d="M336,1867.84h14.82v-35.15h4v38.87H336Z"/><path d="M397.46,1865.62a70.7,70.7,0,0,0,7.38.36c2.1.06,14.76,0,17.58-.06a16.36,16.36,0,0,0-1.44,3.84H404.72c-12.3,0-19.92-1.92-24.72-10.38a31.55,31.55,0,0,1-9.48,11.7,19.84,19.84,0,0,0-3.06-2.82c6.3-4.14,10.2-10.92,11.82-19.86l4,.6a55.92,55.92,0,0,1-1.5,6.06c2.34,5.64,6.3,8.52,11.7,9.84v-18.54H368.72v-3.6H421.4v3.6H397.46v7.08h20v3.6h-20Zm17.22-27.17h-39.6v-19.56h39.6Zm-4-16.44H379v5.16h31.68Zm0,8.1H379v5.27h31.68Z"/><path d="M446.42,1856.32v9.84l11.88-2.58a16.35,16.35,0,0,0,.06,3c-14.16,3.48-16,4-17,4.62a10.36,10.36,0,0,0-1.44-3.36,3.91,3.91,0,0,0,2.64-3.84v-7.68H436.7c-.72,5.16-2.34,10.56-5.64,14.88a17.56,17.56,0,0,0-3.36-2.1c5-6.3,5.76-14.94,5.76-21.06v-7.62H480.2v3.06H437.3v3.42h40v2.82h-40c-.06,1.14-.12,2.28-.24,3.48h44.52v3.12H457.64a19.35,19.35,0,0,0,5.76,5.46,92,92,0,0,0,11.64-5.4l2.88,2.4a101,101,0,0,1-11.52,4.74,46.73,46.73,0,0,0,15.84,4A12.17,12.17,0,0,0,480,1871c-12.66-1.56-21.6-6.48-26.1-14.64Zm30.36-19H434.06v-16.67h12.48v-4.32h3.9v4.32h9.3v-4.32h3.9v4.32h13.14Zm-39-9.72h8.76v-4.19h-8.76Zm0,6.91h8.76v-4.2h-8.76Zm12.66-11.1v4.19h9.3v-4.19Zm0,6.9v4.2h9.3v-4.2Zm22.5-6.9h-9.3v4.19h9.3Zm0,6.9h-9.3v4.2h9.3Z"/><path d="M509.78,1861.3c-4.26,3.24-12.36,6.24-18.6,7.68a11.73,11.73,0,0,0-2.46-3c6.24-1.08,14-3.48,18.06-6.12Zm31.38-8v3.42H516.92V1871h-4v-14.34H489.08v-3.42H513v-4.8H494.72v-3.17H513v-4.62h-21.3v-3.25H505a25.62,25.62,0,0,0-3.18-6.05l3.18-.84H489.26v-3.36h10a43.78,43.78,0,0,0-5-8.94l3.36-1.2a40.81,40.81,0,0,1,5.28,8.94l-3.12,1.2h7.68v-10.8h3.72v10.8h7.68v-10.8h3.78v10.8h7.62l-2.34-.78a58.83,58.83,0,0,0,4.8-9.24l4,1.14a101.9,101.9,0,0,1-5.34,8.88h9.54v3.36h-15.6l3.66,1c-1.44,2.11-2.88,4.26-4.26,5.88h14v3.25H516.92v4.62h18.9v3.17h-18.9v4.8Zm-35.58-22.73a26.71,26.71,0,0,1,3.36,6.23l-2.34.66h16.68l-2.16-.66a39.24,39.24,0,0,0,3.72-6.23Zm17.76,29c5.82,1.86,13.56,4.74,17.76,6.66l-2.4,2.64c-4-1.92-11.82-5-17.7-7.08Z"/><path d="M567.86,1852.48c-1.32-1.74-4.26-5.16-6.6-7.73V1871h-3.9v-24.84a51.07,51.07,0,0,1-8.58,7.14,17,17,0,0,0-1.8-3.78,51.81,51.81,0,0,0,17.64-19.13H548.48v-3.66h18.24l.78-.18,2.16,1.56a51.24,51.24,0,0,1-7.62,12.77c2.34,2.28,7,7.08,8.34,8.4Zm-7.26-26.39a43.33,43.33,0,0,0-5.7-8l3-1.74a37.19,37.19,0,0,1,5.88,7.74Zm41.76,38.63v3.9H568v-3.9h16.08V1839.1h-13.2v-3.89h13.2v-19.08h4v19.08h13v3.89h-13v25.62Z"/><path d="M638.24,1817.51a13.18,13.18,0,0,1-.84,1.08c5.7,5.64,16.2,10.62,25.56,12.83a12.89,12.89,0,0,0-2.52,3.12,71.7,71.7,0,0,1-14.88-6.17l-.06,1.92H624.74l.06-1.68a89.68,89.68,0,0,1-14.88,6.23,30.91,30.91,0,0,0-2.28-3c10.8-3,21.48-8.28,27.12-15.6Zm-23.16,16H655v14.88h-39.9Zm3.42,12.06h14.7v-9.23H618.5Zm.12,5.82H652v19.38h-4v-1.86h-25.5v2h-3.9Zm6.66-14.22a21.86,21.86,0,0,1,3.78,6.84l-3.06,1.21a27.26,27.26,0,0,0-3.6-7.09Zm-2.76,17.16v4.32H648v-4.32Zm25.5,11.64v-4.38h-25.5v4.38Zm-4.2-38.57a48.46,48.46,0,0,1-8.58-6.42,45.19,45.19,0,0,1-8.34,6.42Zm7.5,8.94H636.56v9.23h14.76Zm-10.62,7.79a53.26,53.26,0,0,0,3.54-7.2l3.36,1.08a73,73,0,0,1-4.14,7.21Z"/><path d="M721.7,1865.74v3.3H668.36v-3.3h24.48v-5.52h-20V1857h20v-4.44H674.72v-18.42h18.12v-3.89H668.72v-3.3h24.12v-4.62c-6.36.42-12.78.72-18.78.84a11.3,11.3,0,0,0-.84-3.18c13.86-.42,30.84-1.5,40.14-3.24l2.22,3.12a186.76,186.76,0,0,1-18.78,2.22v4.86h24.6v3.3H696.8v3.89h18.9v18.42H696.8V1857h21.12v3.24H696.8v5.52Zm-43.08-23.82h14.22v-4.85H678.62Zm14.22,7.68v-4.92H678.62v4.92Zm4-12.53v4.85h14.88v-4.85Zm14.88,7.61H696.8v4.92h14.88Z"/><path d="M769.16,1853.92a26.51,26.51,0,0,1-8.22,8.7,175.55,175.55,0,0,1,19.5,5.4l-3.66,2.94a153.7,153.7,0,0,0-20.22-5.88c-6.66,3.24-15.42,5-26.64,5.94a12.63,12.63,0,0,0-1.62-3.54c9.06-.6,16.26-1.68,22.08-3.78-4.56-.9-9.36-1.8-14.22-2.58,1.74-2,3.72-4.5,5.64-7.2H728.48v-3.42H744c1.38-2.22,2.64-4.44,3.66-6.48l3.9,1a52.68,52.68,0,0,1-3.12,5.52h18.06A31.35,31.35,0,0,0,768,1847l3.78,1.14c-.3.78-.6,1.62-1,2.4h10.68v3.42Zm-23.34-31.31H729.44V1819h51.12v3.6h-17V1828H778v15.23H732.44V1828h13.38Zm-9.6,17.22h9.6v-8.52h-9.6Zm10,14.09c-1.32,1.86-2.58,3.6-3.78,5.16,4.5.72,8.94,1.56,13.2,2.4a25.83,25.83,0,0,0,8.82-7.56Zm13.56-31.31H749.6V1828h10.2Zm-10.2,17.22h10.2v-8.52H749.6Zm14-8.52v8.52H774v-8.52Z"/><path d="M804,1817c-1,2.94-2.1,6.3-3.18,8.88H811v38.75h-16.8v4.8h-3.66v-43.55h6.66a64.68,64.68,0,0,0,2.58-9.72Zm3.3,12.47H794.18v13.08h13.14Zm0,31.56v-14.88H794.18v14.88Zm33.06-33.17c-1,27.53-1.8,36.71-4.2,39.59a5.6,5.6,0,0,1-4.56,2.28,74.94,74.94,0,0,1-8.82-.12,9.42,9.42,0,0,0-1.32-3.9c3.9.36,7.5.36,8.82.36s1.92-.12,2.52-.9c2-2.1,2.94-11.34,3.72-35.7H820.82a55.33,55.33,0,0,1-5.64,10.68,36.22,36.22,0,0,0-3.36-2.22c4.08-5.34,7.32-13.61,9.18-21.89l3.84.84c-.78,3-1.62,6-2.64,8.88h18.18Zm-12.78,27a106.51,106.51,0,0,0-9.3-13.92l3.06-1.79a102.47,102.47,0,0,1,9.6,13.61Z"/><path d="M862.94,1850.32V1871H859v-19.62c-3.9,1-7.56,2-10.68,2.82l-1.14-4c3.18-.66,7.32-1.68,11.82-2.82v-14.75h-5.46a51.41,51.41,0,0,1-3.18,10.19,28.21,28.21,0,0,0-3.3-1.62c2.46-5,3.9-12.77,4.68-20.21l3.6.48c-.3,2.52-.66,5-1,7.38H859v-12.36h3.9v12.36h6.36v3.78h-6.36v13.79l6.36-1.56.42,3.72Zm39.3,15.24v3.78H868.1v-3.78h15.72v-14.7H871.4v-3.78h12.42v-13.37H875.6a48.86,48.86,0,0,1-4.08,9.35,28.31,28.31,0,0,0-3.3-2c3.36-5.22,5.52-13.31,6.84-21.47l3.78.66c-.6,3.3-1.26,6.6-2.16,9.72h7.14v-13.08h4v13.08H901v3.78h-13.2v13.37h12.06v3.78H887.78v14.7Z"/><path d="M957.26,1822.67v46.49H953v-4.86H917.06v5.16H913v-46.79ZM953,1860.28v-33.59H917.06v33.59Z"/><path d="M973.88,1852c4.68-2,7.26-4.86,7.56-9.17a4,4,0,0,1-1.14.11c-2.34,0-4.26-1.32-4.26-4.07a4,4,0,0,1,4.32-4.08c3.18,0,4.86,2.58,4.86,6.66,0,6.41-4,11.21-10.08,13.43Z"/><path d="M458.24,1889.51a13.18,13.18,0,0,1-.84,1.08c5.7,5.64,16.2,10.62,25.56,12.83a12.89,12.89,0,0,0-2.52,3.12,71.7,71.7,0,0,1-14.88-6.17l-.06,1.92H444.74l.06-1.68a89.68,89.68,0,0,1-14.88,6.23,30.91,30.91,0,0,0-2.28-3c10.8-3,21.48-8.28,27.12-15.6Zm-23.16,16H475v14.88h-39.9Zm3.42,12.06h14.7v-9.23H438.5Zm.12,5.82H472v19.38h-4v-1.86h-25.5v2h-3.9Zm6.66-14.22a21.86,21.86,0,0,1,3.78,6.84l-3.06,1.21a27.26,27.26,0,0,0-3.6-7.09Zm-2.76,17.16v4.32H468v-4.32Zm25.5,11.64v-4.38h-25.5v4.38Zm-4.2-38.57a48.46,48.46,0,0,1-8.58-6.42,45.19,45.19,0,0,1-8.34,6.42Zm7.5,8.94H456.56v9.23h14.76Zm-10.62,7.79a53.26,53.26,0,0,0,3.54-7.2l3.36,1.08a73,73,0,0,1-4.14,7.21Z"/><path d="M489.08,1939.48c3.06-2.58,5.64-7,7.08-10.44l3.3,1.5c-1.68,3.6-4.08,8-7.14,10.86Zm51.72-36.9v3.25H489.56v-3.25h14.16a23.89,23.89,0,0,0-2.34-5.45l3.36-.84H492.26V1893h21.9c-.72-1.44-1.56-2.94-2.34-4.2l3.78-.9a39.9,39.9,0,0,1,2.94,5.1h19.2v3.3H525.86l3.24.78c-1,1.92-2,3.84-3,5.51Zm-7,23.7H512.66a47.07,47.07,0,0,1,8.82,6.24L519,1935a48.61,48.61,0,0,0-9.3-6.9l2-1.8H496.58V1909h37.2Zm-3.9-14.45H500.36v4.43h29.52Zm0,7.13H500.36v4.44h29.52Zm-8.22,20.16c2.58,0,3-.72,3.24-6.24a12.08,12.08,0,0,0,3.54,1.38c-.48,6.66-1.74,8.22-6.42,8.22H510.44c-5.82,0-7.38-1-7.38-5v-8H507v8c0,1.38.54,1.68,3.72,1.68ZM505,1896.29a26.19,26.19,0,0,1,2.76,6.18l-.48.11H522a59.18,59.18,0,0,0,3.06-6.29Zm27.66,32.21a46.55,46.55,0,0,1,8,10.2l-3.36,1.74a49,49,0,0,0-7.8-10.56Z"/><path d="M577.28,1888.55c-.06,2.1-.12,5.1-.42,8.64.9,7,4.56,32.51,25.74,42a12.63,12.63,0,0,0-2.88,3.36c-15.42-7.26-21.72-22.74-24.6-34-2.64,12.23-8.94,26.33-24.06,34.19a13.77,13.77,0,0,0-3.12-3.06c25-12.48,24.78-42.11,25-51.11Z"/><path d="M627.2,1891.31c-3.36,10.26-9.24,18.65-16.38,24.23a26.38,26.38,0,0,0-3.36-2.87c7.2-5,12.66-13,15.6-22.32ZM653.48,1911s0,1.43-.06,2c-.9,18.6-1.8,25.44-3.84,27.72a6,6,0,0,1-4.56,2,90.37,90.37,0,0,1-9.48-.18,9.12,9.12,0,0,0-1.32-4c4,.36,7.8.42,9.24.42,1.26,0,1.92-.12,2.52-.78,1.56-1.5,2.46-7.62,3.24-23.28H633.08c-1.56,11.94-5.46,22.86-20.64,28.38a17.07,17.07,0,0,0-2.58-3.42c14.34-4.74,17.58-14.58,19-25H616.22V1911Zm-7.62-21.54c3.06,9.48,9.6,18.17,17.1,22.5a21.07,21.07,0,0,0-2.88,3.53c-7.32-4.8-13.68-13.19-17.1-22.31h-10.8v-3.72Z"/><path d="M678.44,1930.36a38.25,38.25,0,0,1-7.92,12.66,19.74,19.74,0,0,0-3.24-2.4,29.41,29.41,0,0,0,7.32-11.22Zm12.66-2.46H670.4v-37.25h20.7ZM687.26,1894H674.18v8h13.08Zm0,11.16H674.18v8.09h13.08Zm0,11.27H674.18v8.22h13.08Zm-.9,12.9a53,53,0,0,1,6.48,9.6l-3.42,1.8a53.59,53.59,0,0,0-6.3-9.84Zm36.06-23H714.5v31.49c0,2.52-.6,3.72-2.28,4.44s-4.32.78-8.94.78a16.87,16.87,0,0,0-1.38-3.9c3.42.12,6.42.12,7.38.06s1.38-.36,1.38-1.38v-26.58c-4.08,9.12-10,17.46-16.08,22.26a18.27,18.27,0,0,0-2.7-2.94c6.72-4.8,13.38-14.46,17.22-24.23h-16v-3.73h17.58v-14h3.84v14h7.92Z"/><path d="M750,1918.54l-7.74,2.52v22h-3.72v-20.76c-3.6,1.08-7.08,2.22-10.08,3.12l-1.08-3.84c3.06-.84,7-1.92,11.16-3.18v-13.79h-5.7a53.29,53.29,0,0,1-2.76,9.11,25.52,25.52,0,0,0-3.06-1.85c2.28-5,3.54-12.6,4.26-20l3.54.6c-.36,2.82-.78,5.64-1.26,8.34h5v-12.3h3.72v12.3h6.42v3.84h-6.42v12.72l7.26-2.23Zm31.68-20s0,1.56-.06,2.1c-1.44,27.29-2.7,36.59-5.22,39.47a5,5,0,0,1-4,2.22,53,53,0,0,1-6.84-.06,10.36,10.36,0,0,0-1.14-4c2.82.24,5.28.3,6.42.3a2.61,2.61,0,0,0,2.34-1c1.92-2.16,3.3-11.1,4.56-35.33h-3.36c-3.06,15.83-9.72,32-19.68,39.83a11.72,11.72,0,0,0-3.36-2.4c10-7.2,16.44-22.2,19.56-37.43h-5.34c-2.7,10.37-8.28,21.65-14.88,27.41a14.07,14.07,0,0,0-3.18-2.34c6.42-5,11.82-15.3,14.64-25.07h-5.52a48.75,48.75,0,0,1-7,11.52,29.73,29.73,0,0,0-3.06-2.29c5-5.39,8.58-14,10.62-23.15l3.66.72a87.43,87.43,0,0,1-2.76,9.48Z"/><path d="M800.18,1906.67a9.06,9.06,0,1,1-9.06,9A9.09,9.09,0,0,1,800.18,1906.67Zm0,15.23a6.18,6.18,0,1,0,0-12.36,6.18,6.18,0,1,0,0,12.36Z"/><path d="M446.9,1977.17c4.44,10.31,12.24,20,20.76,24.71a23.11,23.11,0,0,0-3.06,3.36c-9-5.58-16.92-16.32-21.6-28.07h-1v22.43h14.28v4H442V2015H437.9v-11.4H423.68v-4H437.9v-22.43h-1.08c-4.74,11.75-12.66,22.43-21.3,28.25a24.18,24.18,0,0,0-2.88-3.18c8-4.92,15.66-14.76,20.16-25.07H414.14v-4H437.9v-12.72H442v12.72h24v4Z"/><path d="M521.9,1999.54a33.64,33.64,0,0,1-8.22,7.38c2.4,2.82,5.22,4.44,8.16,4.38,1.68-.06,2.16-1.5,2.46-5.94a10.31,10.31,0,0,0,3.12,1.62c-.6,6.3-2.1,7.92-5.76,8-4.26,0-8.16-2.22-11.28-6a74.41,74.41,0,0,1-13.68,5.82,36.46,36.46,0,0,0-2.1-3.24,65.61,65.61,0,0,0,13.86-5.34,34.94,34.94,0,0,1-3.84-8.82H490.16v4.38l11.16-1-.06,2.88-11.1,1.08v6.12c0,2.1-.48,3.06-2.16,3.54s-4.38.54-8.94.54a19.42,19.42,0,0,0-1.26-3.18c3.36.12,6.48.06,7.38,0s1.2-.24,1.2-1v-5.7c-4.74.48-9.12.9-12.72,1.2l-.42-3.3c3.54-.24,8.1-.54,13.14-1v-4.68h-12.9v-3.18h12.9v-4.44c-3.78.42-7.68.72-11.28.91a12,12,0,0,0-.9-2.71c8.16-.48,18.18-1.55,23.52-2.94l2.52,2.58c-2.82.66-6.36,1.26-10.08,1.74v4.86h13.68a52.67,52.67,0,0,1-1.2-8.94h3.84a57.48,57.48,0,0,0,1.2,8.94h19v3.18H508.58a31.91,31.91,0,0,0,3.12,6.9,27.09,27.09,0,0,0,6.72-5.94Zm4.62-15.17h-53v-3.25H497.9V1977H479.3v-3.06h18.6v-4H476.06v-3.18h12.66a30,30,0,0,0-3.48-5.16l3.42-1.26a24.4,24.4,0,0,1,4.32,6.24l-.42.18H507.2a54.7,54.7,0,0,0,3.6-6.6l4.14,1.2c-1.2,1.86-2.52,3.84-3.72,5.4h12.84V1970H501.92v4h18.9V1977h-18.9v4.13h24.6Zm-5.7,9a34,34,0,0,0-9.48-5.52l2.16-2.46a38.32,38.32,0,0,1,9.66,5.22Z"/><path d="M562.46,2009.62a70.7,70.7,0,0,0,7.38.36c2.1.06,14.76,0,17.58-.06a16.36,16.36,0,0,0-1.44,3.84H569.72c-12.3,0-19.92-1.92-24.72-10.38a31.55,31.55,0,0,1-9.48,11.7,19.84,19.84,0,0,0-3.06-2.82c6.3-4.14,10.2-10.92,11.82-19.86l4,.6a55.92,55.92,0,0,1-1.5,6.06c2.34,5.64,6.3,8.52,11.7,9.84v-18.54H533.72v-3.6H586.4v3.6H562.46v7.08h20v3.6h-20Zm17.22-27.17h-39.6v-19.56h39.6Zm-4-16.44H544v5.16h31.68Zm0,8.1H544v5.27h31.68Z"/><path d="M612.2,1963.31c-3.36,10.26-9.24,18.65-16.38,24.23a26.38,26.38,0,0,0-3.36-2.87c7.2-5,12.66-13,15.6-22.32ZM638.48,1983s0,1.43-.06,2c-.9,18.6-1.8,25.44-3.84,27.72a6,6,0,0,1-4.56,2,90.37,90.37,0,0,1-9.48-.18,9.12,9.12,0,0,0-1.32-4c4,.36,7.8.42,9.24.42,1.26,0,1.92-.12,2.52-.78,1.56-1.5,2.46-7.62,3.24-23.28H618.08c-1.56,11.94-5.46,22.86-20.64,28.38a17.07,17.07,0,0,0-2.58-3.42c14.34-4.74,17.58-14.58,19-25H601.22V1983Zm-7.62-21.54c3.06,9.48,9.6,18.17,17.1,22.5a21.07,21.07,0,0,0-2.88,3.53c-7.32-4.8-13.68-13.19-17.1-22.31h-10.8v-3.72Z"/><path d="M673.52,1993.06l-3.66,3.12a93.63,93.63,0,0,0-13.32-13.38l3.42-3.11A118.53,118.53,0,0,1,673.52,1993.06Z"/><path d="M702.2,1963.31c-3.36,10.26-9.24,18.65-16.38,24.23a26.38,26.38,0,0,0-3.36-2.87c7.2-5,12.66-13,15.6-22.32ZM728.48,1983s0,1.43-.06,2c-.9,18.6-1.8,25.44-3.84,27.72a6,6,0,0,1-4.56,2,90.37,90.37,0,0,1-9.48-.18,9.12,9.12,0,0,0-1.32-4c4,.36,7.8.42,9.24.42,1.26,0,1.92-.12,2.52-.78,1.56-1.5,2.46-7.62,3.24-23.28H708.08c-1.56,11.94-5.46,22.86-20.64,28.38a17.07,17.07,0,0,0-2.58-3.42c14.34-4.74,17.58-14.58,19-25H691.22V1983Zm-7.62-21.54c3.06,9.48,9.6,18.17,17.1,22.5a21.07,21.07,0,0,0-2.88,3.53c-7.32-4.8-13.68-13.19-17.1-22.31h-10.8v-3.72Z"/><path d="M769.76,1989.1s0,1.26-.06,1.8c-.66,15-1.26,20.46-2.88,22.26a5,5,0,0,1-3.78,1.62,64.3,64.3,0,0,1-7.38-.12,7.7,7.7,0,0,0-1.14-3.48c3.06.24,6,.24,7.08.24s1.5,0,2-.6c1.14-1.2,1.74-5.88,2.28-18.12H755.48c-1.32,8.82-4.14,17.22-10.44,22.44a9.12,9.12,0,0,0-2.76-2.7c8.16-6.54,9.72-19.08,10.32-30.06H746v-19.31h23.4v19.31H756.5c-.18,2.22-.3,4.5-.54,6.72Zm-20.1-10.31h15.9v-12.12h-15.9Zm26.1-11.28h3.9v32.87h-3.9Zm18.72-6v48c0,2.82-.84,4.08-2.58,4.74-1.92.66-5.16.72-10.62.72a19,19,0,0,0-1.5-4c4.32.12,8,.06,9.18.06s1.56-.42,1.56-1.56v-48Z"/><path d="M815.18,1978.67a9.06,9.06,0,1,1-9.06,9A9.09,9.09,0,0,1,815.18,1978.67Zm0,15.23a6.18,6.18,0,1,0,0-12.36,6.18,6.18,0,1,0,0,12.36Z"/><path d="M220,2045.62a67.05,67.05,0,0,1-5.4,8.46v33.18h-3.78v-28.5a55.81,55.81,0,0,1-6,5.94,23.11,23.11,0,0,0-2.4-3.41,57.79,57.79,0,0,0,14-16.92Zm-1.44-11.87a59.41,59.41,0,0,1-13.32,14.1,20,20,0,0,0-2.22-2.82c4.44-3.3,9.42-8.4,11.94-12.66ZM252,2064.17a34,34,0,0,1-11.58,13.91,56.54,56.54,0,0,0,16.08,5.52,13.63,13.63,0,0,0-2.46,3.48,58.51,58.51,0,0,1-17.16-6.72,63.26,63.26,0,0,1-17.7,6.78,10.39,10.39,0,0,0-2-3.42,62.23,62.23,0,0,0,16.26-5.64,41.7,41.7,0,0,1-7.2-6.54,42.74,42.74,0,0,1-4.86,4.08,25.12,25.12,0,0,0-2.76-2.94,46.2,46.2,0,0,0,5.28-4.08,34,34,0,0,1-2.82-4.38l3.3-1.2a19.47,19.47,0,0,0,2,3.18,40.7,40.7,0,0,0,5.82-7.86c-9,.6-10.5.91-11.64,1.26a33.39,33.39,0,0,0-1.2-3.77c1.62-.19,3.78-1.26,6.6-2.88,1.44-.78,4.38-2.58,7.8-4.87-9.36.49-10.92.73-11.82,1.09a28.56,28.56,0,0,0-1.26-3.84,10.79,10.79,0,0,0,3.9-2.16A67.38,67.38,0,0,0,235.28,2033l3.9,1.8a87.44,87.44,0,0,1-11.7,10.32l11.1-.36a87.91,87.91,0,0,0,8.22-6.6l3.66,2.1a135.45,135.45,0,0,1-22.44,15l20.1-1.08c-1.5-1.87-2.94-3.72-4.38-5.29l3.06-1.61a90.33,90.33,0,0,1,10,13l-3.24,1.92c-.78-1.38-2-3.12-3.24-5-5.58.35-10.14.66-13.68.83a52.18,52.18,0,0,1-3,5h15.18l.72-.18Zm-20.94,2.21a33.51,33.51,0,0,1-2.34,2.76,40,40,0,0,0,8.16,6.9,31.13,31.13,0,0,0,9.72-9.66Z"/><path d="M305.84,2082.28c5.64,0,6.48-2.1,7.26-10.8a14.42,14.42,0,0,0,3.78,1.56c-.9,9.72-2.52,12.9-11.1,12.9H284.36c-8.58,0-11.16-1.8-11.16-9.12v-19.37l-10,3.05L262.1,2057l11.1-3.41v-17.16H277v16l13-4v-16h4v14.82l14.46-4.5,1.08-.9,3,.9-.18.78c-.36,8.27-1.08,19.14-2.28,25.73l-3.36-.9a208.48,208.48,0,0,0,1.68-21.78l-14.4,4.5v23.28h-4v-22.13l-13,4.07v20.64c0,4.26,1.26,5.34,7.14,5.34Z"/><path d="M372.92,2081.32c0,2.76-.78,4-2.64,4.68s-5.46.72-11.1.66a12.92,12.92,0,0,0-1.38-3.84c4.32.18,8.4.12,9.6.06s1.56-.42,1.56-1.56v-12.78H352.22v17.94h-4v-17.94H332.78c-.9,6.72-2.88,13.56-7.56,18.78a11.58,11.58,0,0,0-3-2.64c6.6-7.44,7.26-18,7.26-26.46v-21.59h43.44Zm-24.66-16.56v-10.5H333.38v4c0,2.11-.06,4.26-.24,6.54Zm-14.88-24.35v10.13h14.88v-10.13Zm35.58,0H352.22v10.13H369Zm0,24.35v-10.5H352.22v10.5Z"/><path d="M401.36,2033.75a105.89,105.89,0,0,1-6.18,12.9v40.25h-4v-34.07a58.5,58.5,0,0,1-6.36,7.67,22.37,22.37,0,0,0-2.34-3.9c6-5.81,11.64-14.81,15.06-24Zm17.22,12.48v9H436.1v3.72H418.58v9.48h18.3v3.78h-18.3V2087h-4v-40.73h-4.44a65.13,65.13,0,0,1-8.64,12.65,28.89,28.89,0,0,0-3.12-2.7c5.46-5.57,10.32-14.27,13.26-23l3.84,1c-1,2.82-2.22,5.58-3.42,8.28h25.38v3.84Z"/><path d="M497.06,2082.34v3.12H443v-3.12h25v-3.72h-20.1v-2.88H468v-3.54h-18.3v-14.87h41.22v14.87H471.8v3.54h20.52v2.88H471.8v3.72Zm-.36-27.89H443.36v-3.07H496.7Zm-7.56-5.7H450.8v-14.46h38.34ZM453.5,2063.5H468V2060H453.5Zm14.52,6.12V2066H453.5v3.66Zm17.22-32.87h-30.6v3.48h30.6Zm0,5.94h-30.6v3.54h30.6ZM487,2060H471.8v3.54H487Zm0,6H471.8v3.66H487Z"/><path d="M503.24,2042.57H524.3v3.3H503.18Zm19,40.73H509v2.88h-3.48v-20.1H522.2Zm-.12-32.93v3.17h-16.5v-3.17Zm-16.5,7.73h16.56v3.24H505.58Zm3.42,11.34v10.5h9.66v-10.5Zm4.74-27.77a56.9,56.9,0,0,0-4.2-7.92l2.88-1.62a50.74,50.74,0,0,1,4.32,7.68Zm41.46,40c0,2.64-.6,3.9-2.28,4.56s-4.86.78-9.66.78a12.8,12.8,0,0,0-1.38-4c3.78.12,7.26.06,8.28.06s1.38-.36,1.38-1.44v-42.47H524.48v-3.72H555.2Zm-7.14-33.29H525.92v-3.48h22.14Zm-16.38,24.41v4.14H528.2v-23.1h16.92v19Zm0-15.47v12h9.9v-12Z"/><path d="M568.88,2068c4.68-2,7.26-4.86,7.56-9.17a4,4,0,0,1-1.14.11c-2.34,0-4.26-1.32-4.26-4.07a4,4,0,0,1,4.32-4.08c3.18,0,4.86,2.58,4.86,6.66,0,6.41-4,11.21-10.08,13.43Z"/><path d="M644.12,2064a100.84,100.84,0,0,1-11.7,8.58,36.22,36.22,0,0,0,15.3,8.76,24.16,24.16,0,0,0-2.64,3.48c-12.3-4.08-20.82-13.2-25.38-25.61h-.18a53.79,53.79,0,0,1-9.6,8V2081l14.88-4.5a18.38,18.38,0,0,0,.6,3.42c-16.62,5.4-18.66,6.12-20,7a14.6,14.6,0,0,0-1.74-3.66,3.9,3.9,0,0,0,2.16-3.78v-9.72a71.36,71.36,0,0,1-10.68,5.1,19.48,19.48,0,0,0-2.64-3.24,62.5,62.5,0,0,0,21.9-12.41H594.2v-3.54h23.7v-5.64H599.54v-3.36H617.9v-5.4H596.54v-3.48H617.9v-5.52h4v5.52h22v3.48h-22v5.4h19.32v3.36H621.92v5.64H645.8v3.54H623.54a38.86,38.86,0,0,0,6.6,11,80.68,80.68,0,0,0,10.74-8.46Z"/><path d="M668.24,2062.78a58,58,0,0,1-12.06,19.14,26,26,0,0,0-3.66-2.46,47,47,0,0,0,11.64-17.75Zm13.62-7.91v31.79h-4.14v-31.79H653.84v-4h52.5v4Zm19.2-14.22H659.18v-3.9h41.88Zm-5.16,20.93c4.5,5.58,9.24,13.14,11,18.24l-3.9,1.8c-1.74-5-6.3-12.78-10.8-18.48Z"/><path d="M767,2069.92h-6.18v10.62h-4v-2.7H741.86v4.44c0,2.7-.78,3.66-2.52,4.26s-5,.66-10,.66a13,13,0,0,0-1.44-3.42c3.78.12,7.38.06,8.4,0s1.5-.36,1.5-1.5v-4.44H718.22v-3.12h19.62v-4.8H713.12v-3.24h24.72v-4.5H718.76v-3.06h19.08v-4.44H720.5v-10.31h17.34v-3.72H714.2v-3.36h23.64v-4.92h4v4.92h24.06v3.36H741.86v3.72h18.06v10.31H741.86v4.44h19v7.56H767Zm-29.16-18.12v-4.55h-13.5v4.55Zm4-4.55v4.55h14v-4.55Zm0,19.43H756.8v-4.5H741.86Zm14.94,3.24H741.86v4.8H756.8Z"/><path d="M795,2062.54l-7.74,2.52v22h-3.72v-20.76c-3.6,1.08-7.08,2.22-10.08,3.12l-1.08-3.84c3.06-.84,7-1.92,11.16-3.18v-13.79h-5.7a53.29,53.29,0,0,1-2.76,9.11,25.52,25.52,0,0,0-3.06-1.85c2.28-5,3.54-12.6,4.26-20l3.54.6c-.36,2.82-.78,5.64-1.26,8.34h5v-12.3h3.72v12.3h6.42v3.84h-6.42v12.72l7.26-2.23Zm31.68-20s0,1.56-.06,2.1c-1.44,27.29-2.7,36.59-5.22,39.47a5,5,0,0,1-4,2.22,53,53,0,0,1-6.84-.06,10.36,10.36,0,0,0-1.14-4c2.82.24,5.28.3,6.42.3a2.61,2.61,0,0,0,2.34-1c1.92-2.16,3.3-11.1,4.56-35.33h-3.36c-3.06,15.83-9.72,32-19.68,39.83a11.72,11.72,0,0,0-3.36-2.4c10-7.2,16.44-22.2,19.56-37.43h-5.34c-2.7,10.37-8.28,21.65-14.88,27.41a14.07,14.07,0,0,0-3.18-2.34c6.42-5,11.82-15.3,14.64-25.07h-5.52a48.75,48.75,0,0,1-7,11.52,29.73,29.73,0,0,0-3.06-2.29c5-5.39,8.58-14,10.62-23.15l3.66.72a87.43,87.43,0,0,1-2.76,9.48Z"/><path d="M849,2033c-1,2.94-2.1,6.3-3.18,8.88H856v38.75h-16.8v4.8h-3.66v-43.55h6.66a64.68,64.68,0,0,0,2.58-9.72Zm3.3,12.47H839.18v13.08h13.14Zm0,31.56v-14.88H839.18v14.88Zm33.06-33.17c-1,27.53-1.8,36.71-4.2,39.59a5.6,5.6,0,0,1-4.56,2.28,74.94,74.94,0,0,1-8.82-.12,9.42,9.42,0,0,0-1.32-3.9c3.9.36,7.5.36,8.82.36s1.92-.12,2.52-.9c2-2.1,2.94-11.34,3.72-35.7H865.82a55.33,55.33,0,0,1-5.64,10.68,36.22,36.22,0,0,0-3.36-2.22c4.08-5.34,7.32-13.61,9.18-21.89l3.84.84c-.78,3-1.62,6-2.64,8.88h18.18Zm-12.78,27a106.51,106.51,0,0,0-9.3-13.92l3.06-1.79a102.47,102.47,0,0,1,9.6,13.61Z"/><path d="M910.22,2033.69a103.09,103.09,0,0,1-6,13.08v40.13h-3.78v-34a70.58,70.58,0,0,1-5.88,7.55,26.3,26.3,0,0,0-2.28-3.9c5.64-5.81,11-14.87,14.16-24Zm36.6,32.45H930.38V2087h-4v-20.88H909.08v-3.84h17.34v-13.73h-9.84a43.74,43.74,0,0,1-4.44,9.35,31.86,31.86,0,0,0-3.42-2c3.54-5,6-12.71,7.38-20.57l3.78.72a65.79,65.79,0,0,1-2.1,8.7h8.64v-11.64h4v11.64h13.86v3.84H930.38v13.73h16.44Z"/><path d="M1002.62,2047.91c-1.08,9.35-3,16.91-6.12,23.15,2.76,5.58,6.48,10,11.28,12.6a13.13,13.13,0,0,0-2.64,3.06,30,30,0,0,1-10.68-12.06,36,36,0,0,1-13.92,12.42,17.34,17.34,0,0,0-2-2.94l-1.38,1.26a70.81,70.81,0,0,0-7.68-3.78c-3.36,2-8.22,3.84-15.12,5.34a7.89,7.89,0,0,0-1.8-2.7,51.51,51.51,0,0,0,13.2-4.26c-2.88-1.08-5.82-2.1-8.58-2.88,1.08-1.5,2.4-3.36,3.6-5.34h-7.86v-3h9.6c.78-1.38,1.44-2.76,2-4.08h-8.94v-9.53h11.34v-2.76H957v-6.84h-4.08v-3.06H957v-6.24h9.9v-4h3.24v4h10.56v6.24h3.48v3.06h-3.48v6.84H970.16v2.76H982v3.29c4.08-6.59,7-16.37,8.7-26.09l3.48.66c-.78,3.84-1.68,7.62-2.7,11.28h15.78v3.6ZM959,2062.06h7.92v-4.19H959Zm1.2-22.91v3.48h6.72v-3.48Zm6.72,10.38v-4.08H960.2v4.08Zm-2.4,22.25c-.84,1.38-1.62,2.7-2.4,3.9a60.52,60.52,0,0,1,6.78,2.34,12,12,0,0,0,4.74-6.24Zm14.4,11.94a30.73,30.73,0,0,0,13.74-12.84,80.62,80.62,0,0,1-4.68-16.43,49.7,49.7,0,0,1-3.42,6.89,25.77,25.77,0,0,0-2.52-2.16v5.52h-13.8c-.6,1.32-1.32,2.7-2,4.08h7.86v-2.52h3.36v2.52h6.18v3h-6.54a12.92,12.92,0,0,1-4.74,7.68,79.47,79.47,0,0,1,7.38,3.54Zm-8.76-44.57v3.48h7.26v-3.48Zm7.26,10.38v-4.08h-7.26v4.08Zm-7.26,8.34v4.19h8.28v-4.19Zm20.22-10c-.06.3-.18.54-.24.84a83.47,83.47,0,0,0,4.5,18.11c2.22-5.28,3.54-11.52,4.38-19Z"/><path d="M1025.18,2050.67a9.06,9.06,0,1,1-9.06,9A9.09,9.09,0,0,1,1025.18,2050.67Zm0,15.23a6.18,6.18,0,0,0,0-12.36,6.18,6.18,0,1,0,0,12.36Z"/><line class="cls-3" x1="621" y1="351" x2="621" y2="351"/><rect class="cls-2" x="1115" y="1202" width="65" height="220" rx="12"/><path class="cls-1" d="M1159.05,1240.79a27.61,27.61,0,0,0,11.5,8.1,11.65,11.65,0,0,0-2.15,2.55,30.77,30.77,0,0,1-12.8-10.65h-15.95a34.39,34.39,0,0,1-13,11.3,11.43,11.43,0,0,0-2.15-2.55,30.39,30.39,0,0,0,11.6-8.75H1125v-2.85h10v-16.15h-7.7V1219h7.7v-5h3.3v5h18.55v-5h3.35v5h7.65v2.8h-7.65v16.15h9.8v2.85Zm-10,14.5h17.3v2.85H1128.8v-2.85h16.9v-5.6h-10.45v-2.8h10.45v-4.4h3.35v4.4h10.65v2.8h-10.65Zm-10.8-33.5v3.6h18.55v-3.6Zm0,9.8h18.55v-3.65h-18.55Zm0,6.35h18.55v-3.8h-18.55Z"/><path class="cls-1" d="M1143.25,1282.54s0,1.15,0,1.55c-.6,15.85-1.2,21.2-2.6,23a3.71,3.71,0,0,1-2.8,1.45,32.65,32.65,0,0,1-4.45,0,9.25,9.25,0,0,0-.85-3c1.75.15,3.2.15,3.9.15a1.42,1.42,0,0,0,1.45-.65c1-1.2,1.6-6,2.15-19.35h-6.8c-.55,10-2,18.25-6.45,23.65a9.53,9.53,0,0,0-2.55-2.35c5.45-6.45,5.9-17.85,6.1-31.55h-5.2v-3.1h20.1v3.1h-11.65c0,2.45-.1,4.85-.2,7.15Zm-7.9-10.45a33.47,33.47,0,0,0-4.25-7.15l2.9-1.15a31.92,31.92,0,0,1,4.4,7Zm23.85-7.45a15.26,15.26,0,0,1-.85,2.55c2.65,5.45,7.7,11.35,12.45,14a13,13,0,0,0-2.45,2.75c-4.25-2.7-8.5-8-11.4-13.3a32.61,32.61,0,0,1-11,13.6,12.79,12.79,0,0,0-2.35-2.65c5.85-3.6,10.35-10.2,12.5-17.85Zm-8.3,32.45a74,74,0,0,1,13.6,8.25l-2.25,2.9c-2.85-2.6-8.75-6.3-13.4-8.65Zm9.5-4.85a66.22,66.22,0,0,0-8.6-6.85l2.15-2.2a67.46,67.46,0,0,1,8.75,6.55Z"/><path class="cls-1" d="M1136.5,1327c-1.6,7.2-4.55,16.15-9.1,21.7a19.23,19.23,0,0,0-3.1-1.8c4.55-5.25,7.3-13.85,8.55-20.55Zm12.9-12.3v40c0,2.55-.7,3.6-2.35,4.2s-4.8.6-9.4.6a15.62,15.62,0,0,0-1.4-3.45c3.7.1,7.3.1,8.25.05s1.45-.35,1.45-1.4v-40ZM1161,1326c4.45,7,8.7,16.1,10,22l-3.45,1.45c-1.25-5.85-5.25-15.15-9.6-22.3Z"/><path class="cls-1" d="M1165.65,1391.74a72.75,72.75,0,0,1-7.65,3.65,19.75,19.75,0,0,0,12.1,9.55,10.66,10.66,0,0,0-2.1,2.6,22.77,22.77,0,0,1-12.5-11.1c-1.1.45-2.15.85-3.2,1.2,1.5,4.4.7,8.7-1.6,10.35a6,6,0,0,1-4.25,1.3c-1,0-2.25,0-3.55-.1a5.77,5.77,0,0,0-.9-2.85,30,30,0,0,0,4,.2,4.12,4.12,0,0,0,2.7-.65c1.35-1,1.9-3.75,1-6.9-5.55,3.7-14.45,7-22,8.45a11,11,0,0,0-1.45-2.4c8-1.1,17.65-4.65,22.65-8.35a13.35,13.35,0,0,0-1.25-2.15,69.47,69.47,0,0,1-17.55,6.35,7.59,7.59,0,0,0-1.4-2.15c5.8-1,13.4-3.4,17.7-5.85-.6-.55-1.25-1.15-2-1.7a80,80,0,0,1-15.25,4.15,16.41,16.41,0,0,0-1.55-2.2c5.7-.75,12.15-2.15,16.75-4.15h-18.55v-2.55h28c.3-.9.55-1.8.9-2.75h-21.7c1.25-2.8,3-7,4-10.25l3,.5a42,42,0,0,0-3.4-3.25l2-1.15h-6.25a29.23,29.23,0,0,1-5.1,5.6,25.27,25.27,0,0,0-2.35-2.2,26.89,26.89,0,0,0,7.5-9.35l3,.85c-.45.9-1,1.75-1.4,2.65h13.45v2.45h-8.3a44.9,44.9,0,0,1,4,3.65l-2.45,1.6a4.8,4.8,0,0,0-.7-.75c-.2.65-.45,1.25-.65,2h17.75l.6-.2,2.25.5c-.8,3.15-1.9,7-3,10.15h12V1389h-20.25c-.6.35-1.2.7-1.85,1a16.36,16.36,0,0,1,4.4,5.35,90.1,90.1,0,0,0,11.6-5.5Zm-10.2-10.3c.35-1.15.65-2.2,1-3.2h-17.7c-.45,1.15-.9,2.2-1.3,3.2Zm14.75-14.3v2.45h-16.6a28.84,28.84,0,0,1-4.55,5.15,15.06,15.06,0,0,0-2.55-2,21.57,21.57,0,0,0,6.7-9.1l3.1.8a26.43,26.43,0,0,1-1.25,2.7Zm-7.9,8a32.47,32.47,0,0,0-3.9-4.25l2.3-1.25a30.14,30.14,0,0,1,4,4Z"/><path d="M340.11,1050.09a201.14,201.14,0,0,1,22.46,24.58l-4-5.16c14.73,19.11,26.33,40.41,35.72,62.59l-2.57-6.09c14.2,33.79,23,69.45,29.42,105.47q2.91,16.43,5.12,33l-.91-6.78c5.77,43.11,8.28,86.59,8.86,130.07.59,43.72-.76,87.44-2.76,131.1-1.12,24.38-2.44,48.74-3.75,73.11-.34,6.31,3.08,13.64,7.47,18s11.68,7.75,18,7.47c6.59-.3,13.43-2.47,18-7.47a27.73,27.73,0,0,0,7.47-18c2.14-39.83,4.32-79.65,5.57-119.52,1.27-40.19,1.61-80.43,0-120.61a1015.32,1015.32,0,0,0-12.38-124.65c-6.09-37-14.53-73.79-28.5-108.65-14.09-35.16-32.39-68.65-58.77-96.2-2.73-2.85-5.55-5.6-8.46-8.28a26.74,26.74,0,0,0-18-7.47c-6.25,0-13.72,2.78-18,7.47-4.46,4.86-7.77,11.24-7.47,18,.3,6.61,2.47,13.43,7.47,18Z"/><line class="cls-4" x1="357.24" y1="1032.47" x2="279.86" y2="1348.73"/><line class="cls-4" x1="542.82" y1="1366.74" x2="918.24" y2="1366.74"/><path d="M567.91,1012.05a150,150,0,0,0-12.33,14,193.46,193.46,0,0,0-13.86,19.67,149.64,149.64,0,0,0-8,15.57,219.81,219.81,0,0,0-8.56,21.85c-4.13,12.87-6.35,26.08-8,39.47a198.31,198.31,0,0,0-1.44,34.1,144.25,144.25,0,0,0,3.14,24.14,78.88,78.88,0,0,0,2.46,8.65,117.23,117.23,0,0,0,6,14.1A88.72,88.72,0,0,0,541,1222.9c4.95,5.43,10.8,9.95,16.7,14.29,10.8,8,23.29,13.49,35.81,18.12a183.32,183.32,0,0,0,35.88,9.11,353,353,0,0,0,48.69,4.17c14.22.23,28.44-.23,42.64-.84l10.46-.46a26.23,26.23,0,0,0,25.5-25.5l-.91-6.78a25.45,25.45,0,0,0-6.56-11.25l-5.16-4a25.32,25.32,0,0,0-12.87-3.48c-23.49,1.06-47,2.12-70.55.64-6.59-.42-13.16-1-19.7-1.91l6.78.91A184.57,184.57,0,0,1,601,1203.75l6.09,2.57A114.28,114.28,0,0,1,581.93,1192l5.17,4a74.48,74.48,0,0,1-13.42-13.19l4,5.16a65.06,65.06,0,0,1-8.31-14.33l2.57,6.09a80.89,80.89,0,0,1-5.29-20.13l.91,6.78c-2-15-1.2-30.57.78-45.55l-.91,6.78a173.45,173.45,0,0,1,11.78-44.2l-2.57,6.09a147.78,147.78,0,0,1,19-32.61l-4,5.16a151.46,151.46,0,0,1,12.33-14,26.19,26.19,0,0,0,0-36.06l-5.16-4a25.27,25.27,0,0,0-12.87-3.48l-6.78.91a25.45,25.45,0,0,0-11.25,6.56Z"/><path d="M858,1047.87a148.55,148.55,0,0,1,12.33,14l-4-5.16a147.16,147.16,0,0,1,19,32.61l-2.57-6.09a173.45,173.45,0,0,1,11.78,44.2l-.91-6.78c2,15,2.78,30.53.78,45.55l.91-6.78a80.44,80.44,0,0,1-5.28,20.13l2.57-6.09a65.46,65.46,0,0,1-8.31,14.33l4-5.16a74.42,74.42,0,0,1-13.41,13.19l5.16-4a114,114,0,0,1-25.14,14.28l6.09-2.57a184.79,184.79,0,0,1-46.69,12.18l6.77-.91c-23.29,3.1-46.85,3-70.29,2.11-6.65-.24-13.3-.54-19.95-.84a26.18,26.18,0,0,0-25.5,25.5l.91,6.78a25.36,25.36,0,0,0,6.56,11.25l5.16,4a25.46,25.46,0,0,0,12.87,3.48c28.45,1.28,57.09,2.59,85.46-.68,14.82-1.7,29.54-4,43.81-8.45a214.35,214.35,0,0,0,22.39-8.6,121.5,121.5,0,0,0,15.27-8q3.53-2.17,6.84-4.64c3.78-2.81,7.59-5.68,11.1-8.83A95.93,95.93,0,0,0,930.16,1211c4.68-6.71,8-14.48,10.68-22.18s3.74-15.78,4.74-23.88c1.4-11.38,1.1-23,.14-34.41a228.59,228.59,0,0,0-6.57-39.84,164.43,164.43,0,0,0-5.29-16.33,210.33,210.33,0,0,0-9.52-21.58,171.87,171.87,0,0,0-24-34.29c-2-2.3-4.15-4.53-6.32-6.7a19.1,19.1,0,0,0-8.2-5.28,26.21,26.21,0,0,0-27.86,5.28l-4,5.16a25.46,25.46,0,0,0-3.48,12.87l.91,6.78a25.45,25.45,0,0,0,6.56,11.25Z"/><line class="cls-4" x1="730.53" y1="1598.68" x2="730.53" y2="1086.55"/></svg>