<svg id="Layer_1" data-name="Layer 1" xmlns="http://www.w3.org/2000/svg" viewBox="0 0 1242 2208"><defs><style>.cls-1{fill:#f6eabe;}.cls-2{fill:#999;}.cls-3,.cls-4{fill:none;}.cls-4{stroke:#000;stroke-linecap:round;stroke-miterlimit:10;stroke-width:50px;}</style></defs><rect class="cls-1" width="1242" height="2208"/><path d="M653.64,164.47c-5.56,8.74-11.91,16.68-18.26,25.41,97.66,117.51,216,187.38,341.41,244.55C964.09,445.55,949,463,941.86,478.1,819.58,417.76,708.43,346.3,606.79,227.2c-85.75,104-204.85,193.73-330.3,250.11-7.94-13.5-23-31-35.73-42.88,146.1-61.14,289-171.5,366-293Zm-13.5,635.2H947.42v49.22H274.91V799.67H377.33V503.51h52.4V799.67H585.36V363h54.78V548H872.78v48.44H640.14Z"/><rect class="cls-2" x="1114" y="437" width="65" height="126" rx="12"/><path class="cls-1" d="M1133.7,466.82c1.25,1.6,4.9,6.7,5.7,8.05l-2,2.45c-.7-1.5-2.35-4.4-3.75-6.65V497h-3.15V472.57c-1.5,5.05-3.5,9.9-5.55,12.85a14.83,14.83,0,0,0-1.75-3.1c2.9-4,5.8-11.5,7.2-18h-6.2v-3.15h6.3v-9.65h3.15v9.65h5.45v3.15h-5.45Zm19.1.7a19.47,19.47,0,0,0,.45,2.65c-10.15,2.7-11.6,3.15-12.5,3.75a12.13,12.13,0,0,0-1.1-3.2c.7-.2,1.55-.5,1.55-2.2v-16.7h3.25v6.5h8.35v2.9h-8.35v8.3Zm2.35,5.5-2,3.75h12.65V497h-3.4v-1.75h-17v2h-3.3V476.77h7.9c.55-1.5,1.2-3.25,1.55-4.6Zm7.3,6.5h-17v5.05h17Zm0,13v-5.3h-17v5.3Zm2.25-22.4c1.25,0,1.5-.75,1.65-5.25a9.16,9.16,0,0,0,2.85,1.25c-.3,5.45-1.2,6.95-4.15,6.95h-5.85c-3.65,0-4.55-.95-4.55-4.45V451.87h3.25v6.5h10.2v2.9h-10.2v7.35c0,1.3.25,1.5,1.65,1.5Z"/><path class="cls-1" d="M1168.55,526.87v2.5H1124.4v-2.5h20.25v-3.2H1127.8v-2.3h16.85v-3H1129.2v-2.25h15.45v-3.2H1124.5v-2.5h20.15v-3.05H1129.8V505h14.85v-3.55h3.25V505h14.45v5.4h6.15v2.5h-6.15v5.45H1147.9v3h17.3v2.3h-17.3v3.2Zm-37.75,5h31.75v15.25h-3.25v-1.6H1134v1.7h-3.2Zm3.2,2.4v3.2h25.3v-3.2Zm25.3,8.85v-3.4H1134v3.4Zm-11.4-32.7h11.15v-3.05H1147.9Zm0,5.7h11.15v-3.2H1147.9Z"/><path d="M129.92,1859.69a98.85,98.85,0,0,1-6.18,13.56v39.59H119.9v-33.35a61.73,61.73,0,0,1-5.46,7,32.86,32.86,0,0,0-2.28-3.9c5.58-5.87,10.8-14.87,14-24Zm34.14,28c-2.1,1.26-4.44,2.64-6.84,3.78,2,6.06,5.82,11.82,10.38,14.52a11.2,11.2,0,0,0-2.64,2.94c-4.62-3.18-8.46-9.42-10.68-16a27.45,27.45,0,0,1-2.76,1.2c2.58,6.84,1.86,14-1,16.68a6.91,6.91,0,0,1-5.22,1.92c-1.08,0-2.4-.06-3.78-.18a9.31,9.31,0,0,0-1-3.42,38.26,38.26,0,0,0,4.14.24,3.66,3.66,0,0,0,3.12-1.14c1.56-1.38,2.22-5.16,1.44-9.36-5.16,4.92-13.08,9.36-19.8,11.7a15.8,15.8,0,0,0-2.34-2.82c7.62-2.28,16.62-7.14,21.3-12.24a35.76,35.76,0,0,0-1.5-3.48,63.52,63.52,0,0,1-17.22,9.9,16.14,16.14,0,0,0-2.22-2.64c5.94-1.8,13.74-5.76,17.88-9.54a16.39,16.39,0,0,0-2.94-3.18,58.44,58.44,0,0,1-13.56,7.26,11.26,11.26,0,0,0-2.22-2.58,52.48,52.48,0,0,0,15.06-7.56H131.48v-9.35c-1.14,1-2.28,2-3.54,2.94a9.54,9.54,0,0,0-2.52-2.59,44.59,44.59,0,0,0,13.86-16.25l3.84.72c-.6,1.2-1.32,2.34-2,3.54h11.1l.72-.18,2.34,1.68a52.13,52.13,0,0,1-4.8,6.84h13.08v12.65H145.94a15.29,15.29,0,0,1-1.2,1,21,21,0,0,1,5.64,6.84,111.93,111.93,0,0,0,10.92-6.42ZM139,1865.81a54.58,54.58,0,0,1-4.2,5.16h11.58a37.88,37.88,0,0,0,3.72-5.16Zm-3.9,14.69h10.5v-6.42h-10.5Zm24.72-6.42H149.18v6.42H159.8Z"/><path d="M199,1861.49H184.22v35.15h-4v-38.87H199Z"/><path d="M232.28,1858.55c-.06,2.1-.12,5.1-.42,8.64.9,7,4.56,32.51,25.74,42a12.63,12.63,0,0,0-2.88,3.36c-15.42-7.26-21.72-22.74-24.6-34-2.64,12.23-8.94,26.33-24.06,34.19a13.77,13.77,0,0,0-3.12-3.06c25-12.48,24.78-42.11,25-51.11Z"/><path d="M261,1909.84h14.82v-35.15h4v38.87H261Z"/><path d="M318.56,1885.42V1913h-3.9v-27.54H304.4c-.18,10.08-1.74,20-8.88,27.9a15.89,15.89,0,0,0-2.94-2.7c6.54-7.2,7.86-16.14,8.1-25.2h-7.92v-3.71h8v-15.9h-7.08v-3.72h30.66v3.72h-5.76v15.9h6.54v3.71Zm-3.9-3.71v-15.9h-10.2v15.9Zm33.18,11.69c-5,8.16-13.68,15.36-23,19.62a14.41,14.41,0,0,0-2.82-3.24c9-3.66,17.58-10.38,22.08-17.82Zm-3.24-32.51c-4.32,5.46-11.16,10.73-17.16,14a15.73,15.73,0,0,0-2.88-2.75c5.76-2.88,12.6-8,16.32-12.78Zm1.8,16.37A65.72,65.72,0,0,1,328,1892.38a20.87,20.87,0,0,0-2.82-2.82c6.18-3.12,13.5-8.64,17.58-13.79Z"/><path d="M358.88,1894c4.68-2,7.26-4.86,7.56-9.17a4,4,0,0,1-1.14.11c-2.34,0-4.26-1.32-4.26-4.07a4,4,0,0,1,4.32-4.08c3.18,0,4.86,2.58,4.86,6.66,0,6.41-4,11.21-10.08,13.43Z"/><path d="M405,1880.62s0,1.38-.06,1.87c-.72,19-1.44,25.43-3.12,27.59a4.45,4.45,0,0,1-3.36,1.74,39.18,39.18,0,0,1-5.34,0,11.1,11.1,0,0,0-1-3.66c2.1.18,3.84.18,4.68.18a1.7,1.7,0,0,0,1.74-.78c1.2-1.44,1.92-7.2,2.58-23.22H392.9c-.66,12-2.34,21.9-7.74,28.38a11.44,11.44,0,0,0-3.06-2.82c6.54-7.74,7.08-21.42,7.32-37.86h-6.24v-3.71H407.3V1872h-14c-.06,3-.12,5.83-.24,8.58Zm-9.48-12.53a40.17,40.17,0,0,0-5.1-8.58l3.48-1.38a38.31,38.31,0,0,1,5.28,8.4Zm28.62-8.94a18.31,18.31,0,0,1-1,3.06c3.18,6.54,9.24,13.62,14.94,16.74a15.63,15.63,0,0,0-2.94,3.3c-5.1-3.25-10.2-9.54-13.68-16-3.12,6.78-7.5,12.47-13.14,16.31a15.35,15.35,0,0,0-2.82-3.18c7-4.31,12.42-12.23,15-21.41Zm-10,38.93c5.58,2.64,12.78,6.9,16.32,9.9l-2.7,3.48c-3.42-3.12-10.5-7.56-16.08-10.38Zm11.4-5.82a79.47,79.47,0,0,0-10.32-8.22l2.58-2.63a80,80,0,0,1,10.5,7.85Z"/><path d="M472.28,1858.55c-.06,2.1-.12,5.1-.42,8.64.9,7,4.56,32.51,25.74,42a12.63,12.63,0,0,0-2.88,3.36c-15.42-7.26-21.72-22.74-24.6-34-2.64,12.23-8.94,26.33-24.06,34.19a13.77,13.77,0,0,0-3.12-3.06c25-12.48,24.78-42.11,25-51.11Z"/><path d="M523.34,1877h2.58v8.39h-2.76v23.28c0,1.8-.36,2.7-1.68,3.3s-3.24.6-6.72.6a10.93,10.93,0,0,0-1.14-3.12c2.46.06,4.62.06,5.22.06s.9-.24.9-.84v-8.34c-2.94,1.8-5.88,3.6-8.46,5.1l-1.62-2.88c2.64-1.14,6.3-3.06,10.08-5V1887.1h-9.9v8.34c0,5.4-.6,12.6-4.2,17.76a11.54,11.54,0,0,0-2.82-2.22c3.24-4.56,3.6-10.8,3.6-15.54v-10h-2.94V1877h2.46v-16.5h17.4Zm-.66,3H506.6v4.19h16.08Zm-13.44-3h4v-9.3h6.66v-4.08H509.24Zm7.68,19.79a48.92,48.92,0,0,0-6.54-5.34l2-1.92a44.55,44.55,0,0,1,6.66,5Zm3-19.79v-6.66h-4.14V1877Zm37.32,31.55v3.18h-31v-3.18h8.88a49.1,49.1,0,0,0-2.16-5.88l3.12-.9c.9,2.1,2,4.8,2.64,6.78h5.94a60,60,0,0,0,2.7-7l3.66,1.08c-1,2-2.1,4.14-3.06,5.94Zm-.48-21.24H527v-3.12h29.76Zm-1.62-6.35H528.38v-17.94h7.44v-4.62h3.3v4.62h4.68v-4.62h3.3v4.62h8ZM530,1901.38v-11h23.7v11Zm1.56-30.89h4.8V1866h-4.8Zm0,7.55h4.8v-4.73h-4.8Zm2,20.52H550v-5.4H533.54Zm10.38-28.07V1866h-4.74v4.5Zm-4.74,2.82V1878h4.74v-4.73ZM551.9,1866h-5.16v4.5h5.16Zm0,7.32h-5.16V1878h5.16Z"/><path d="M591,1866.71v10.86l.66-.78c7.32,3.54,16.74,8.93,21.54,12.53l-2.76,3.6c-4.2-3.42-12.48-8.46-19.44-12.12v32.1h-4.2v-46.19H563.54v-4h53v4Z"/><path d="M645.26,1872.71c-.18,3.29-.48,6.59-.9,10h25.5s-.06,1.37-.12,2c-1.26,17-2.4,23.46-4.8,25.8-1.26,1.38-2.64,1.8-4.86,1.92a87,87,0,0,1-10-.24,9,9,0,0,0-1.38-3.84c4.26.36,8.46.42,10,.42a4,4,0,0,0,2.82-.72c1.74-1.56,2.88-7.44,4-21.48H643.76c-1.92,10.68-6.42,20.7-17.82,26.64a11.83,11.83,0,0,0-2.88-3.12c15.54-7.68,17.1-23.46,17.82-37.31H624.44v-3.84H675.8v3.84Zm5.64-4a74.52,74.52,0,0,0-4.2-9.18l3.84-1.5a65.56,65.56,0,0,1,4.26,8.94Z"/><path d="M713.12,1893.1c3.78,8.76,11.58,14,23.46,15.9a16.71,16.71,0,0,0-2.7,3.78c-12.06-2.34-19.86-8.16-24.12-18.06-3.06,8.58-9.48,15-24.12,18.42a14.52,14.52,0,0,0-2.28-3.6c14-3,19.8-8.82,22.5-16.44H683.54v-3.78h23.34a64.8,64.8,0,0,0,1.32-8.82h4.32a78,78,0,0,1-1.26,8.82H723a37.14,37.14,0,0,0-7-6.53l2.88-1.62a36.22,36.22,0,0,1,7.2,6.35l-2.88,1.8h13.32v3.78Zm-8-25.91c-.9,10-4.56,14.34-18.72,16.49a10.17,10.17,0,0,0-2-3.3c12.9-1.67,16-5,16.74-13.19h-12.3v6.54h-4v-10.14h23.46c-.54-1.5-1.14-3.24-1.74-4.62l4.08-1c.84,1.68,1.74,3.84,2.4,5.58h22.62v9.66h-4.14v-6.06h-13v7.38c0,1.43.24,1.85,1.68,1.85h9.48a24.58,24.58,0,0,0,4.38-.3c.12,1.09.24,2.41.36,3.37a23.67,23.67,0,0,1-4.56.3h-10c-4.32,0-5.34-1.5-5.34-5.34v-7.26Z"/><path d="M793.4,1888.12v24.78h-4.32v-3.48H746.66v-21.3H751v17.4h16.8v-21.3H749.24v-20.33h4.14v16.44h14.4v-22h4.32v22h14.64v-16.5h4.32v20.39h-19v21.3h17v-17.4Z"/><path d="M829,1861.49H814.22v35.15h-4v-38.87H829Z"/><path d="M886.7,1906.12v3.9H833.18v-3.9h8.4v-34.5h4.08v34.5h14.52v-47.57h4.14v20h19.8v4h-19.8v23.58Z"/><path d="M891,1909.84h14.82v-35.15h4v38.87H891Z"/><path d="M946.16,1857.17l3.24,1.74c-7.08,7.26-11.28,16.2-11.28,26.76s4.2,19.49,11.28,26.75l-3.24,1.74c-7.32-7.5-11.94-17-11.94-28.49S938.84,1864.67,946.16,1857.17Z"/><path d="M982.28,1907.38a53.51,53.51,0,0,0,10.62.9c1.8.06,12.24,0,14.64,0a15,15,0,0,0-1.5,3.84H992.72c-12.78,0-22-2.34-27.54-13-2,5.52-5,10.62-9.42,14a20.44,20.44,0,0,0-2.82-2.76c7.26-5.46,10.14-15.66,11-24.3l4.2.48a68.67,68.67,0,0,1-1.44,7.5c2.4,6.6,6.3,10.26,11.46,12.24v-24.83H960.38v-20.1h40.56v20.1H982.28V1891h20.28v3.72H982.28Zm-17.94-29.81H996.8v-12.42H964.34Z"/><path d="M1040.42,1870.55c-1.44,3.6-3.12,7.79-4.62,11h8.7v3.67h-31.14v-3.67h18.54a78.11,78.11,0,0,0,4.5-11.93Zm2.7-1.38h-28v-3.66h12.6a52.73,52.73,0,0,0-2.64-6.36l3.6-1a57,57,0,0,1,3.18,7.38h11.22Zm-26.22,21.77h24.72v21.12h-3.9v-2.4h-17v2.88h-3.78Zm5.82-9.72a46.73,46.73,0,0,0-3.9-10.55l3.48-.84a38.22,38.22,0,0,1,4,10.38Zm-2,13.32v11.52h17v-11.52Zm45.84-31.31c-2.16,5.46-5,12.3-7.56,17.87,5.46,5.7,6.84,10.32,6.84,14.52,0,3.36-.78,6.24-2.64,7.5a7.78,7.78,0,0,1-3.66,1.2,29.42,29.42,0,0,1-5.16.06,9.55,9.55,0,0,0-1.2-3.78,35.57,35.57,0,0,0,4.92.12,5.55,5.55,0,0,0,2.46-.66c1.2-.78,1.62-2.7,1.56-4.8,0-3.78-1.56-8.16-7-13.73,2.34-5.16,4.74-11.58,6.42-16.26h-10.14V1913h-3.6v-51.35h15.42l.6-.18Z"/><path d="M1073.84,1914.16l-3.24-1.74c7.08-7.26,11.28-16.2,11.28-26.75s-4.2-19.5-11.28-26.76l3.24-1.74c7.32,7.5,11.94,17,11.94,28.5S1081.16,1906.66,1073.84,1914.16Z"/><path d="M1115.18,1876.67a9.06,9.06,0,1,1-9.06,9A9.09,9.09,0,0,1,1115.18,1876.67Zm0,15.23a6.18,6.18,0,0,0,0-12.36,6.18,6.18,0,0,0,0,12.36Z"/><path d="M371.9,1947.17c4.44,10.31,12.24,20,20.76,24.71a23.11,23.11,0,0,0-3.06,3.36c-9-5.58-16.92-16.32-21.6-28.07h-1v22.43h14.28v4H367V1985H362.9v-11.4H348.68v-4H362.9v-22.43h-1.08c-4.74,11.75-12.66,22.43-21.3,28.25a24.18,24.18,0,0,0-2.88-3.18c8-4.92,15.66-14.76,20.16-25.07H339.14v-4H362.9v-12.72H367v12.72h24v4Z"/><path d="M446.9,1969.54a33.64,33.64,0,0,1-8.22,7.38c2.4,2.82,5.22,4.44,8.16,4.38,1.68-.06,2.16-1.5,2.46-5.94a10.31,10.31,0,0,0,3.12,1.62c-.6,6.3-2.1,7.92-5.76,8-4.26,0-8.16-2.22-11.28-6a74.41,74.41,0,0,1-13.68,5.82,36.46,36.46,0,0,0-2.1-3.24,65.61,65.61,0,0,0,13.86-5.34,34.94,34.94,0,0,1-3.84-8.82H415.16v4.38l11.16-1-.06,2.88-11.1,1.08v6.12c0,2.1-.48,3.06-2.16,3.54s-4.38.54-8.94.54a19.42,19.42,0,0,0-1.26-3.18c3.36.12,6.48.06,7.38,0s1.2-.24,1.2-1v-5.7c-4.74.48-9.12.9-12.72,1.2l-.42-3.3c3.54-.24,8.1-.54,13.14-1v-4.68h-12.9v-3.18h12.9v-4.44c-3.78.42-7.68.72-11.28.91a12,12,0,0,0-.9-2.71c8.16-.48,18.18-1.55,23.52-2.94l2.52,2.58c-2.82.66-6.36,1.26-10.08,1.74v4.86h13.68a52.67,52.67,0,0,1-1.2-8.94h3.84a57.48,57.48,0,0,0,1.2,8.94h19v3.18H433.58a31.91,31.91,0,0,0,3.12,6.9,27.09,27.09,0,0,0,6.72-5.94Zm4.62-15.17h-53v-3.25H422.9V1947H404.3v-3.06h18.6v-4H401.06v-3.18h12.66a30,30,0,0,0-3.48-5.16l3.42-1.26a24.4,24.4,0,0,1,4.32,6.24l-.42.18H432.2a54.7,54.7,0,0,0,3.6-6.6l4.14,1.2c-1.2,1.86-2.52,3.84-3.72,5.4h12.84V1940H426.92v4h18.9V1947h-18.9v4.13h24.6Zm-5.7,9a34,34,0,0,0-9.48-5.52l2.16-2.46a38.32,38.32,0,0,1,9.66,5.22Z"/><path d="M487.46,1979.62a70.7,70.7,0,0,0,7.38.36c2.1.06,14.76,0,17.58-.06a16.36,16.36,0,0,0-1.44,3.84H494.72c-12.3,0-19.92-1.92-24.72-10.38a31.55,31.55,0,0,1-9.48,11.7,19.84,19.84,0,0,0-3.06-2.82c6.3-4.14,10.2-10.92,11.82-19.86l4,.6a55.92,55.92,0,0,1-1.5,6.06c2.34,5.64,6.3,8.52,11.7,9.84v-18.54H458.72v-3.6H511.4v3.6H487.46v7.08h20v3.6h-20Zm17.22-27.17h-39.6v-19.56h39.6Zm-4-16.44H469v5.16h31.68Zm0,8.1H469v5.27h31.68Z"/><path d="M538.82,1976.26c-7.32,2-14.88,4.08-20.46,5.58l-.9-3.72,3.06-.78v-20.51h3.24v19.79l4.62-1.2V1951h-8v-18H538.1v18h-6.3v8.63h6.78v3.6H531.8v11.34l6.54-1.68Zm-15-28.85H534.5v-10.92H523.82Zm48.24-10.32v3.78H545.54v15.23c0,8.58-.6,20.88-4.92,29.16a9.89,9.89,0,0,0-3.24-2.16c4-7.86,4.38-18.84,4.38-27v-19h13.8a39.57,39.57,0,0,0-2.58-6.18l3.48-.72a45.38,45.38,0,0,1,3,6.9Zm-12.78,13.44h12.66v3.59H559.28v8.58h10.56v22.14h-3.9v-2.94H552v2.94h-3.78V1962.7h7.2v-19.55h3.9Zm6.66,15.77H552v12h14Z"/><path d="M594.5,1977.82c3.54,1.38,8,1.8,13.8,1.8,2.58,0,21.24,0,24.6-.12a14.88,14.88,0,0,0-1.62,3.9H608.42c-13.14,0-20.16-2-24.42-10.56a38.91,38.91,0,0,1-3.78,12.6,28.22,28.22,0,0,0-3.3-2c3.54-6,4.2-15.54,4.44-26.16l3.78.24c-.12,2.94-.24,5.76-.42,8.4,1.38,4.62,3.3,7.74,6.06,9.78v-23.39H578.12v-3.54h11.7v-8H579.68v-3.48h10.14v-6.9h3.78v6.9h9.9v3.48h-9.9v8H605v3.54H594.5v9.29h10v3.6h-10Zm20.22-3.3c-5.34,0-7-1.26-7-6.54v-33.53h21.48v20.63H611.6V1968c0,2.34.54,2.88,3.48,2.88H625.7c2.34,0,2.82-1.26,3.06-7.14a11.32,11.32,0,0,0,3.6,1.56c-.54,7.14-1.68,9.24-6.48,9.24ZM611.6,1938v13.5h13.74V1938Z"/><path d="M667.28,1979.38a53.51,53.51,0,0,0,10.62.9c1.8.06,12.24,0,14.64,0a15,15,0,0,0-1.5,3.84H677.72c-12.78,0-22-2.34-27.54-13-2,5.52-5,10.62-9.42,14a20.44,20.44,0,0,0-2.82-2.76c7.26-5.46,10.14-15.66,11-24.3l4.2.48a68.67,68.67,0,0,1-1.44,7.5c2.4,6.6,6.3,10.26,11.46,12.24v-24.83H645.38v-20.1h40.56v20.1H667.28V1963h20.28v3.72H667.28Zm-17.94-29.81H681.8v-12.42H649.34Z"/><path d="M720.8,1976.08c-7.92,2.1-16.32,4.44-22.38,6l-1-3.78,3.18-.72v-20.7h3.36v19.92l5-1.32V1951h-8.52v-18h19.2v18h-7.08v8.63H720v3.6h-7.44v11.34c2.52-.66,5.22-1.26,7.8-2ZM704,1947.41h12v-10.92H704ZM751.88,1964a76,76,0,0,1-10.68,7.26,25.42,25.42,0,0,0,11.64,9.84,16.63,16.63,0,0,0-2.64,3.48c-9.18-4.44-14.7-13.62-17.58-25.5h-6.06v20.28l11-2.7a22.19,22.19,0,0,0,.18,3.6c-12.48,3.42-14.22,4-15.36,4.8a15.14,15.14,0,0,0-1.8-3.36,4.16,4.16,0,0,0,2.1-4v-44.57h25.8v26H736a44.06,44.06,0,0,0,3.6,9.3,81.83,81.83,0,0,0,9.78-7.13Zm-25.32-27.35v7.62H744.8v-7.62Zm0,18.89H744.8v-7.92H726.56Z"/><path d="M781.22,1969.48l.42,3.6c-7.92,2.1-16.38,4.26-22.56,5.82l-1-3.9c3.54-.78,8.1-1.86,13.14-3.06a240.26,240.26,0,0,0,3.9-24.48l3.78.73c-1.2,7.19-2.82,16.55-4.44,22.91Zm-22.44-27.77h23v3.71h-23Zm5.64,6.54a173.33,173.33,0,0,1,3.18,21.65l-3.42.66a160.16,160.16,0,0,0-2.94-21.72Zm5.46-7.38a45.16,45.16,0,0,0-4-9.12l3.3-1.08a42.06,42.06,0,0,1,4.38,8.94Zm27.06,5.94v12.11h12.84v25.8H805.7v-2.64H787V1985h-3.9v-26h9.84v-28.61h4V1943h15.42v3.84Zm8.76,15.89H787v15.66H805.7Z"/><path d="M871.52,1978.42v4h-53v-4h29a198.72,198.72,0,0,0,9.12-29.27l4.56.84c-2.64,9-6.18,20.69-9.42,28.43Zm-2.34-32.75H821v-4h48.18Zm-33.9,30c-.9-7-3.54-17.58-5.82-25.55l4-.9a209.86,209.86,0,0,1,6,25.43Zm8.58-34.85a61.85,61.85,0,0,0-2.94-9.66l3.84-1.08a70.16,70.16,0,0,1,3.12,9.54Z"/><path d="M890.18,1948.67a9.06,9.06,0,1,1-9.06,9A9.09,9.09,0,0,1,890.18,1948.67Zm0,15.23a6.18,6.18,0,1,0,0-12.36,6.18,6.18,0,1,0,0,12.36Z"/><path d="M412.7,2032.06s-.06,1.32-.12,1.86c-1.08,13.56-2.1,18.84-4.08,20.82-1.26,1.32-2.46,1.68-4.56,1.8a90.37,90.37,0,0,1-9.48-.18,8,8,0,0,0-1.44-4c4,.36,8,.36,9.48.36s2-.06,2.58-.6c1.5-1.2,2.4-5.7,3.3-16.32h-22.8c1.14-4.56,2.46-11.63,3.24-17.09H408.5v-10.08h-22v-3.78H412.4v17.58H392.3c-.6,3.3-1.2,6.71-1.86,9.65Zm18.36-29.15V2057h-4v-54.11Z"/><path d="M493.28,2010.23v33.29H489.2v-3.18H471.92v16.5h-4.14v-16.5H451v3.54h-4v-33.65h20.76v-7.92h4.14v7.92Zm-42.3,3.84v9.18h16.8v-9.18Zm16.8,22.49V2027H451v9.6Zm4.14-22.49v9.18H489.2v-9.18Zm17.28,22.49V2027H471.92v9.6Z"/><path d="M555.74,2034.17s-.06,1.19-.12,1.73c-1.14,12.66-2.28,17.64-4.14,19.56a5.52,5.52,0,0,1-4,1.56,66.58,66.58,0,0,1-7.5-.12,9.39,9.39,0,0,0-1.2-3.66c3.12.3,6.06.3,7.2.3a3,3,0,0,0,2.22-.54c1.26-1.32,2.4-5.34,3.36-15.3H514a59.21,59.21,0,0,1-9.66,7.32,19.86,19.86,0,0,0-2.22-3.3c10.26-6,17.82-15.18,23.1-25.43h-20v-3.66H527a82.29,82.29,0,0,0,3.84-10.32l3.9,1a92.32,92.32,0,0,1-3.54,9.3H547c-.72,3.48-1.56,7.62-2.34,10.74h7c-.66,3.47-1.5,7.67-2.28,10.8Zm-49.38,20.33c3.42-3.24,5.7-8.58,7-13.2l3.3,1.08c-1.44,4.92-3.54,10.62-7.14,14.16Zm12.42-42.17a39,39,0,0,0-6-8.34l3.42-1.44a39.57,39.57,0,0,1,6.18,8Zm26.82,21.84c.54-2.11,1.08-4.69,1.56-7.21H523.34a75.18,75.18,0,0,1-5.76,7.21Zm-21.48,7.91a44,44,0,0,1,1.8,11.88l-3.48.54a39.57,39.57,0,0,0-1.62-11.94Zm5.4-25.79c-1.14,2.4-2.46,4.79-3.84,7.08h15.24c.54-2,1.14-4.62,1.62-7.08Zm3.18,25a43,43,0,0,1,3.6,10.26l-3.3.9a45.91,45.91,0,0,0-3.42-10.44Zm10.32,8a38.83,38.83,0,0,0-4.56-8.1l2.76-1.08a34.18,34.18,0,0,1,4.74,7.86Z"/><path d="M593.6,2003.51c-.42.66-.9,1.26-1.38,1.92,7.38,8.88,16.32,14.15,25.8,18.48a11.65,11.65,0,0,0-2.64,3.3c-9.24-4.56-17.64-10-25.32-19a70.65,70.65,0,0,1-25,18.89,16.49,16.49,0,0,0-2.7-3.23c11-4.62,21.84-13,27.66-22.14Zm-1,48H615.8v3.72H565v-3.72h7.74v-22.38h4v22.38h11.76v-33h4.14v14h17.58v3.66H592.58Z"/><path d="M628.52,2012.21H623v-3.48h13.08c-.66-1.74-1.5-3.78-2.28-5.4l3.54-1a45.52,45.52,0,0,1,2.82,6.42h9.78v3.48h-17.7v11.28c0,1.85.36,2.46,1.92,2.46h9.78a24.55,24.55,0,0,0,4.26-.31c.06,1,.3,2.58.42,3.42a18.06,18.06,0,0,1-4.56.36h-9.84c-4.44,0-5.7-1.55-5.7-6ZM652,2052.1h24.54v3.42H623.6v-3.42H648v-6h-20.7v-3.36H648v-5.46c-6.54.42-13.32.66-19.44.78a11.27,11.27,0,0,0-.84-3.24c14.7-.42,32.64-1.56,42.54-3.6l2,3.24A172.67,172.67,0,0,1,652,2037v5.76H673.1v3.36H652Zm25.38-45c-3.24,15.23-12.66,21.72-25.08,24.72a9.94,9.94,0,0,0-2-3.12,37.37,37.37,0,0,0,9.06-3c-1.92-2.41-5-5.83-7.74-8.64-.78.66-1.5,1.32-2.28,1.92a9.46,9.46,0,0,0-2.88-2.52,37.34,37.34,0,0,0,12.06-14.1l3.9.66a31.24,31.24,0,0,1-1.86,3.36H674.3l.78-.12Zm-23.76,8.1c2.94,2.87,6.36,6.48,8.52,9a26.2,26.2,0,0,0,5.22-4.43c-2.7-2.1-7.2-5.1-11-7.5C655.52,2013.29,654.62,2014.25,653.6,2015.21Zm4.86-5.58-.48.66c3.72,2.22,8.16,5.16,11.16,7.32a26.55,26.55,0,0,0,3.78-8Z"/><path d="M703.52,2035.06l-3.66,3.12a93.63,93.63,0,0,0-13.32-13.38l3.42-3.11A118.53,118.53,0,0,1,703.52,2035.06Z"/><path d="M743.6,2003.51c-.42.66-.9,1.26-1.38,1.92,7.38,8.88,16.32,14.15,25.8,18.48a11.65,11.65,0,0,0-2.64,3.3c-9.24-4.56-17.64-10-25.32-19a70.65,70.65,0,0,1-25,18.89,16.49,16.49,0,0,0-2.7-3.23c11-4.62,21.84-13,27.66-22.14Zm-1,48H765.8v3.72H715v-3.72h7.74v-22.38h4v22.38h11.76v-33h4.14v14h17.58v3.66H742.58Z"/><path d="M790.46,2047H778.28v5.28h-3.6v-46.19h15.78Zm-12.18-37.31v8.88h8.52v-8.88Zm0,21.11h8.52V2022h-8.52Zm8.52,12.6v-9.12h-8.52v9.12Zm35.34-17.28s-.06,1.38-.06,1.87c-.9,17.75-1.74,24-3.54,26.09a4.75,4.75,0,0,1-3.72,1.8,64.58,64.58,0,0,1-6.72-.06,8.57,8.57,0,0,0-1-3.66c2.64.24,5.1.24,6.12.24a2.28,2.28,0,0,0,2-.72c1.32-1.38,2.1-7,2.94-21.84H808.7c-1.5,13-5.7,21.54-14.46,27.06a17.31,17.31,0,0,0-2.7-2.88c8.28-4.68,12-12.54,13.38-24.18H797.3v-3.72Zm-16.86-20.33c-1.8,8.58-5.64,16.25-10.44,20.7a16.77,16.77,0,0,0-2.82-2.58c4.38-4.08,7.8-11.28,9.3-19.38Zm12.3-1.92c1.74,7.92,5.64,15.47,10.2,19.25a16.08,16.08,0,0,0-2.94,3c-4.44-4.08-8.16-11.15-10.14-18.77h-6.36v-3.48Z"/><path d="M845.18,2020.67a9.06,9.06,0,1,1-9.06,9A9.09,9.09,0,0,1,845.18,2020.67Zm0,15.23a6.18,6.18,0,1,0,0-12.36,6.18,6.18,0,1,0,0,12.36Z"/><line class="cls-3" x1="621" y1="351" x2="621" y2="351"/><path d="M609.69,1062.49a173,173,0,0,1,20.67,22.36l-4-5.16c12.63,16.37,22.61,34.6,30.68,53.6l-2.58-6.09c12.15,28.82,19.69,59.26,25.13,90q2.48,13.9,4.34,27.91l-.92-6.78c4.85,36.35,6.94,73,7.38,109.67s-.72,73.4-2.44,110c-1,20.48-2.11,40.94-3.23,61.41-.35,6.31,3.09,13.66,7.47,18s11.68,7.76,18,7.47c6.59-.29,13.43-2.46,18-7.47a27.76,27.76,0,0,0,7.47-18c1.86-33.84,3.75-67.69,4.84-101.58,1.1-34.16,1.39-68.36,0-102.51a850.5,850.5,0,0,0-10.94-106.95c-5.31-31.31-12.65-62.44-24.74-91.87-12.53-30.48-28.59-59.45-51.85-83.17q-3.53-3.59-7.27-7c-5-4.52-11.14-7.47-18-7.47-6.26,0-13.73,2.78-18,7.47-4.46,4.86-7.78,11.24-7.47,18,.29,6.56,2.43,13.5,7.47,18Z"/><line class="cls-4" x1="626.93" y1="1044.81" x2="516" y2="1289.61"/><path d="M571.62,1740.62c19.2-5.19,38.36-10.51,57.32-16.52A638.35,638.35,0,0,0,690.56,1701,356.18,356.18,0,0,0,743,1673.19a183.6,183.6,0,0,0,25.68-19.68,99.48,99.48,0,0,0,8.58-9.08,129.08,129.08,0,0,0,10.84-14.64,105.8,105.8,0,0,0,7.85-16.47,59.06,59.06,0,0,0,3.34-11.44,88.42,88.42,0,0,0,1.77-18.37,117.89,117.89,0,0,0-1.41-12.71,64.43,64.43,0,0,0-1.26-6.45,65.51,65.51,0,0,0-2.06-6.6,28.44,28.44,0,0,0-11.71-15.24,18.9,18.9,0,0,0-9.48-3,19.24,19.24,0,0,0-10.17.46l-6.09,2.57a25.4,25.4,0,0,0-9.15,9.15l-2.57,6.09a25.54,25.54,0,0,0,0,13.55,64.21,64.21,0,0,1,3.36,13.44l-.91-6.78a56.53,56.53,0,0,1,0,14.53l.91-6.78a60,60,0,0,1-4.08,14.87l2.57-6.1a74.91,74.91,0,0,1-9.75,16.5l4-5.16a109.27,109.27,0,0,1-19.44,19.12l5.17-4a230.2,230.2,0,0,1-25,16.36c-9,5.22-18.18,10-27.56,14.43-5.36,2.53-10.78,4.93-16.24,7.24l6.1-2.57c-13.67,5.75-27.59,10.85-41.66,15.52s-28.27,8.89-42.53,12.9c-8,2.26-16,4.44-24,6.61a28.49,28.49,0,0,0-15.24,11.72,18.93,18.93,0,0,0-3,9.48,19.24,19.24,0,0,0,.46,10.17l2.57,6.09a25.55,25.55,0,0,0,9.15,9.15l6.09,2.57a25.78,25.78,0,0,0,13.56,0Z"/><path d="M479.84,1626.41c18.47-8.57,37-17,55.68-25.14q9.09-4,18.23-7.83l-6.09,2.57c19.5-8.22,39.15-16.09,59.05-23.28A578.68,578.68,0,0,1,663.54,1555a259,259,0,0,1,27.87-5.51l-6.78.91a126.72,126.72,0,0,1,33.47-.37l-6.77-.91a83.08,83.08,0,0,1,20.78,5.47L726,1552a62.81,62.81,0,0,1,13.88,8l-5.16-4a57.14,57.14,0,0,1,9.91,9.87l-4-5.16a60.64,60.64,0,0,1,7.75,13.34l-2.58-6.09c.47,1.11.9,2.22,1.31,3.34a28.39,28.39,0,0,0,11.72,15.24,18.84,18.84,0,0,0,9.48,3,19.2,19.2,0,0,0,10.16-.46c6.17-2,12.13-5.82,15.24-11.71s4.9-13.26,2.57-19.65c-2.67-7.36-5.81-14.79-10.41-21.18-4.31-6-8.86-11.67-14.64-16.27s-11.39-8.75-18.08-11.73a108,108,0,0,0-20.86-7.35,134.88,134.88,0,0,0-38.85-2.78,251.92,251.92,0,0,0-34.86,5.33c-22.26,4.91-44,12-65.45,19.78-25.18,9.1-49.95,19.31-74.55,29.87-19.66,8.43-39.17,17.23-58.58,26.21l-5.92,2.74a24.54,24.54,0,0,0-12.17,25.41,19,19,0,0,0,3,9.48c3.51,5.45,8.74,10.24,15.24,11.72l6.78.91a25.27,25.27,0,0,0,12.87-3.48Z"/><path d="M639.31,1705.23a251,251,0,0,0,3.14-35.57,245.56,245.56,0,0,0-2.82-35.4c-2.94-21.06-9.62-41.12-18.75-60.3a211.67,211.67,0,0,0-13.77-24.5q-3.76-5.78-7.85-11.31c-3.87-5.22-7.77-10.46-12.14-15.27a78.57,78.57,0,0,0-9.59-9c-5-3.95-10-7.86-15.78-10.64a86.75,86.75,0,0,0-18.46-6.83c-4.25-1-8.61-1.45-12.92-2q-3.43-.42-6.9-.53c-6.74-.19-13.31.72-20,1.64a99.12,99.12,0,0,0-13.84,3c-11.12,3.19-21.86,7.91-32.23,13q-3.19,1.56-6.35,3.2a26.28,26.28,0,0,0-9.15,34.89l4,5.16a25.45,25.45,0,0,0,11.25,6.56l6.78.91a25.52,25.52,0,0,0,12.87-3.48c5.57-2.88,11.21-5.63,17-8.08l-6.09,2.57a117.25,117.25,0,0,1,29.56-8.54l-6.78.91a78.38,78.38,0,0,1,20.3-.11l-6.77-.91a62.24,62.24,0,0,1,15.73,4.21l-6.09-2.57a59,59,0,0,1,12.64,7.47l-5.17-4a87.41,87.41,0,0,1,15.17,15.52l-4-5.16a216.2,216.2,0,0,1,28,47.38l-2.57-6.09A187,187,0,0,1,590.61,1649l-.91-6.78a202,202,0,0,1,0,53l.91-6.77c-.15,1.07-.3,2.15-.46,3.22a19.44,19.44,0,0,0-.46,10.17,26.2,26.2,0,0,0,18.27,21.2l6.78.91a25.32,25.32,0,0,0,12.87-3.48l5.16-4a25.45,25.45,0,0,0,6.56-11.25Z"/><rect class="cls-2" x="1115" y="1246" width="65" height="271" rx="12"/><path class="cls-1" d="M1160.05,1285.79a27.61,27.61,0,0,0,11.5,8.1,11.65,11.65,0,0,0-2.15,2.55,30.77,30.77,0,0,1-12.8-10.65h-15.95a34.39,34.39,0,0,1-13,11.3,11.43,11.43,0,0,0-2.15-2.55,30.39,30.39,0,0,0,11.6-8.75H1126v-2.85h10v-16.15h-7.7V1264h7.7v-5h3.3v5h18.55v-5h3.35v5h7.65v2.8h-7.65v16.15h9.8v2.85Zm-10,14.5h17.3v2.85H1129.8v-2.85h16.9v-5.6h-10.45v-2.8h10.45v-4.4h3.35v4.4h10.65v2.8h-10.65Zm-10.8-33.5v3.6h18.55v-3.6Zm0,9.8h18.55v-3.65h-18.55Zm0,6.35h18.55v-3.8h-18.55Z"/><path class="cls-1" d="M1144.25,1327.54s0,1.15,0,1.55c-.6,15.85-1.2,21.2-2.6,23a3.71,3.71,0,0,1-2.8,1.45,32.65,32.65,0,0,1-4.45,0,9.25,9.25,0,0,0-.85-3c1.75.15,3.2.15,3.9.15a1.42,1.42,0,0,0,1.45-.65c1-1.2,1.6-6,2.15-19.35h-6.8c-.55,10-2,18.25-6.45,23.65a9.53,9.53,0,0,0-2.55-2.35c5.45-6.45,5.9-17.85,6.1-31.55h-5.2v-3.1h20.1v3.1h-11.65c0,2.45-.1,4.85-.2,7.15Zm-7.9-10.45a33.47,33.47,0,0,0-4.25-7.15l2.9-1.15a31.92,31.92,0,0,1,4.4,7Zm23.85-7.45a15.26,15.26,0,0,1-.85,2.55c2.65,5.45,7.7,11.35,12.45,14a13,13,0,0,0-2.45,2.75c-4.25-2.7-8.5-8-11.4-13.3a32.61,32.61,0,0,1-11,13.6,12.79,12.79,0,0,0-2.35-2.65c5.85-3.6,10.35-10.2,12.5-17.85Zm-8.3,32.45a74,74,0,0,1,13.6,8.25l-2.25,2.9c-2.85-2.6-8.75-6.3-13.4-8.65Zm9.5-4.85a66.22,66.22,0,0,0-8.6-6.85l2.15-2.2a67.46,67.46,0,0,1,8.75,6.55Z"/><path class="cls-1" d="M1167,1362.19v29.3h-3.5v-2.55h-13.3v15.6h-3.45v-15.6h-13.4v2.75H1130v-29.5Zm-33.65,3.2V1374h13.4v-8.65Zm13.4,20.35v-8.5h-13.4v8.5Zm16.75-20.35h-13.3V1374h13.3Zm0,20.35v-8.5h-13.3v8.5Z"/><path class="cls-1" d="M1169.25,1424.09v9.3h-3.15V1427h-35.4v6.4h-3v-9.3h6.95v-12.95h27.7v12.95Zm-6.45,26.6c0,1.85-.45,2.7-1.85,3.2s-3.9.5-7.7.45a8.57,8.57,0,0,0-1.1-2.75c3,.05,5.65.05,6.4.05s1-.25,1-1v-6.2c-7.3,1.45-14.85,3-20.45,4l-1.1-3c5.4-.8,13.6-2.3,21.55-3.75V1433h-22.2v5.3c0,4.85-.65,11.55-4.35,16.2a13.29,13.29,0,0,0-2.7-2c3.45-4.25,3.85-10,3.85-14.25v-8h28.6Zm-25-26.6h7.45v-6.9H1159v-3.35h-21.2Zm2.45,11.7a75.14,75.14,0,0,1,17.7,3l-.9,2.6c-4-1.5-11.7-2.9-17.7-3.35Zm18.75-16.3h-10.75v4.6H1159Z"/><path class="cls-1" d="M1163,1471.09a51.83,51.83,0,0,1-12,19.6,49.94,49.94,0,0,0,20.5,10.5,16.79,16.79,0,0,0-2.25,3,50.92,50.92,0,0,1-20.75-11.1c-5.65,5-12.55,8.6-21,11.3a15.53,15.53,0,0,0-2-3.05c8.35-2.45,15.1-5.9,20.6-10.6a57.05,57.05,0,0,1-12.2-19.65h-7.75v-3.25h44.75v3.25Zm-25.75,0a52.13,52.13,0,0,0,11.3,17.3,47.46,47.46,0,0,0,10.7-17.3Zm11.25-3.55a38.13,38.13,0,0,0-3.8-7.8l3.4-1a39,39,0,0,1,4,7.65Z"/></svg>