<svg id="Layer_1" data-name="Layer 1" xmlns="http://www.w3.org/2000/svg" viewBox="0 0 1242 2208"><defs><style>.cls-1{fill:#f6eabe;}.cls-2{fill:#999;}.cls-3,.cls-4{fill:none;}.cls-4{stroke:#000;stroke-linecap:round;stroke-miterlimit:10;stroke-width:50px;}</style></defs><rect class="cls-1" width="1242" height="2208"/><path d="M483.73,166.06a1263.35,1263.35,0,0,1-79.4,165.15V871.13H351.92V414.58c-27.79,40.5-57.16,77-87.34,108-5.55-11.91-20.64-39.7-31-51.6,79.4-77.82,154-197.71,200.08-320.78ZM732.25,436.81C769.56,613.87,844.2,760,970.44,826.66c-12.7,10.32-31,31-38.9,45.26-111.16-66.69-182.62-189-226.29-343-24.61,119.89-83.37,241.37-217.55,343-10.33-11.12-27.79-26.2-42.88-34.94,160.39-118.3,207.23-267.57,220.73-400.17H458.32v-52.4h211.2c.79-19.06.79-36.52.79-54V150.18h53.2v181c0,17.47,0,34.94-.79,53.2H959.33v52.4ZM883.1,339.15c-19.05-37.32-60.34-96.86-96.07-140.53l39.7-23.82c36.52,42.87,79.4,101.63,99.25,137.36Z"/><rect class="cls-2" x="1114" y="437" width="65" height="126" rx="12"/><path class="cls-1" d="M1133.7,466.82c1.25,1.6,4.9,6.7,5.7,8.05l-2,2.45c-.7-1.5-2.35-4.4-3.75-6.65V497h-3.15V472.57c-1.5,5.05-3.5,9.9-5.55,12.85a14.83,14.83,0,0,0-1.75-3.1c2.9-4,5.8-11.5,7.2-18h-6.2v-3.15h6.3v-9.65h3.15v9.65h5.45v3.15h-5.45Zm19.1.7a19.47,19.47,0,0,0,.45,2.65c-10.15,2.7-11.6,3.15-12.5,3.75a12.13,12.13,0,0,0-1.1-3.2c.7-.2,1.55-.5,1.55-2.2v-16.7h3.25v6.5h8.35v2.9h-8.35v8.3Zm2.35,5.5-2,3.75h12.65V497h-3.4v-1.75h-17v2h-3.3V476.77h7.9c.55-1.5,1.2-3.25,1.55-4.6Zm7.3,6.5h-17v5.05h17Zm0,13v-5.3h-17v5.3Zm2.25-22.4c1.25,0,1.5-.75,1.65-5.25a9.16,9.16,0,0,0,2.85,1.25c-.3,5.45-1.2,6.95-4.15,6.95h-5.85c-3.65,0-4.55-.95-4.55-4.45V451.87h3.25v6.5h10.2v2.9h-10.2v7.35c0,1.3.25,1.5,1.65,1.5Z"/><path class="cls-1" d="M1168.55,526.87v2.5H1124.4v-2.5h20.25v-3.2H1127.8v-2.3h16.85v-3H1129.2v-2.25h15.45v-3.2H1124.5v-2.5h20.15v-3.05H1129.8V505h14.85v-3.55h3.25V505h14.45v5.4h6.15v2.5h-6.15v5.45H1147.9v3h17.3v2.3h-17.3v3.2Zm-37.75,5h31.75v15.25h-3.25v-1.6H1134v1.7h-3.2Zm3.2,2.4v3.2h25.3v-3.2Zm25.3,8.85v-3.4H1134v3.4Zm-11.4-32.7h11.15v-3.05H1147.9Zm0,5.7h11.15v-3.2H1147.9Z"/><path d="M324.92,1899.69a98.85,98.85,0,0,1-6.18,13.56v39.59H314.9v-33.35a61.73,61.73,0,0,1-5.46,7,32.86,32.86,0,0,0-2.28-3.9c5.58-5.87,10.8-14.87,14-24Zm34.14,28c-2.1,1.26-4.44,2.64-6.84,3.78,2,6.06,5.82,11.82,10.38,14.52a11.2,11.2,0,0,0-2.64,2.94c-4.62-3.18-8.46-9.42-10.68-16a27.45,27.45,0,0,1-2.76,1.2c2.58,6.84,1.86,14-1,16.68a6.91,6.91,0,0,1-5.22,1.92c-1.08,0-2.4-.06-3.78-.18a9.31,9.31,0,0,0-1-3.42,38.26,38.26,0,0,0,4.14.24,3.66,3.66,0,0,0,3.12-1.14c1.56-1.38,2.22-5.16,1.44-9.36-5.16,4.92-13.08,9.36-19.8,11.7a15.8,15.8,0,0,0-2.34-2.82c7.62-2.28,16.62-7.14,21.3-12.24a35.76,35.76,0,0,0-1.5-3.48,63.52,63.52,0,0,1-17.22,9.9,16.14,16.14,0,0,0-2.22-2.64c5.94-1.8,13.74-5.76,17.88-9.54a16.39,16.39,0,0,0-2.94-3.18,58.44,58.44,0,0,1-13.56,7.26,11.26,11.26,0,0,0-2.22-2.58,52.48,52.48,0,0,0,15.06-7.56H326.48v-9.35c-1.14,1-2.28,2-3.54,2.94a9.54,9.54,0,0,0-2.52-2.59,44.59,44.59,0,0,0,13.86-16.25l3.84.72c-.6,1.2-1.32,2.34-2,3.54h11.1l.72-.18,2.34,1.68a52.13,52.13,0,0,1-4.8,6.84h13.08v12.65H340.94a15.29,15.29,0,0,1-1.2,1,21,21,0,0,1,5.64,6.84,111.93,111.93,0,0,0,10.92-6.42ZM334,1905.81a54.58,54.58,0,0,1-4.2,5.16h11.58a37.88,37.88,0,0,0,3.72-5.16Zm-3.9,14.69h10.5v-6.42h-10.5Zm24.72-6.42H344.18v6.42H354.8Z"/><path d="M394,1901.49H379.22v35.15h-4v-38.87H394Z"/><path d="M428.3,1920c4.08,13.79,11.94,24.59,24.42,29.27a14.91,14.91,0,0,0-2.94,3.72c-12.36-5.22-20-15.78-24.66-29.94-2.7,11.94-9.06,23.34-24.3,29.88a12.69,12.69,0,0,0-3.06-3.42c15.54-6.24,21.48-17.76,23.7-29.51h-23v-4h23.7a139.94,139.94,0,0,0,.84-17.57h4.2a151.7,151.7,0,0,1-.84,17.57h25.26v4Zm16.2-7.5a65,65,0,0,0-11.88-10.08l2.7-2.4c4.32,2.76,9.6,6.9,12.12,9.84Z"/><path d="M456,1949.84h14.82v-35.15h4v38.87H456Z"/><path d="M510.8,1943.54l-22.38,6.3-1-3.78,3.12-.78v-20.45h3.36v19.61l4.5-1.14V1919h-8v-18h19v18h-7.56v8.63h8v3.6h-8v11.16l8.52-2.28Zm-16.92-28.13h11.94v-10.92H493.88Zm27.84-11.76c-.66,15.53-2,37.49-10.62,49.79a21,21,0,0,0-2.94-2.58c8.1-11.76,9.12-32.94,9.48-47.45Zm11.94-1.38c.72,21,2.52,39.23,9.24,48.29a26.21,26.21,0,0,0-3.72,2.64c-6.66-9.66-8.4-26.87-9.18-47.15h-4.5v-3.78Z"/><path d="M565.76,1899.63a95.42,95.42,0,0,1-6,12.48v40.79h-4v-34.49a62.53,62.53,0,0,1-6.6,8.15,22.3,22.3,0,0,0-2.34-3.89c6-5.88,11.64-14.94,15.12-24.24Zm18.78,20.45c2.82,13.38,8.46,24.42,18,29.46a14.56,14.56,0,0,0-2.94,3.42c-8.4-5-13.8-14.28-17.1-25.92A41.83,41.83,0,0,1,566.06,1953a15.92,15.92,0,0,0-3.24-2.64c12.12-8.94,15.66-20.22,16.68-30.24H563.84v-4h16c.06-1.43.06-2.75.06-4.08v-13.61h4v13.68c0,1.31,0,2.64-.06,4H601.7v4Zm11.4-7.37a71.55,71.55,0,0,0-7.26-10.62l3-1.8a77.3,77.3,0,0,1,7.5,10.38Z"/><path d="M628.16,1911.62a67.64,67.64,0,0,1-7.2,12.25v28.85h-4v-24a41.57,41.57,0,0,1-7.26,6.41,17,17,0,0,0-2-3.48c7-5,12.3-12.23,16.14-20H609v-3.83h16.44a65.25,65.25,0,0,0,3.3-9.42l4.08,1c-.9,2.82-1.86,5.64-3,8.4H661.1v3.83Zm32.94,36.24v3.72H625v-3.72h16v-17.52H627.32v-3.72H641v-11.81h4v11.81h13.8v3.72H645v17.52Z"/><path d="M694,1901.49H679.22v35.15h-4v-38.87H694Z"/><path d="M727.28,1898.55c-.06,2.1-.12,5.1-.42,8.64.9,7,4.56,32.51,25.74,42a12.63,12.63,0,0,0-2.88,3.36c-15.42-7.26-21.72-22.74-24.6-34-2.64,12.23-8.94,26.33-24.06,34.19a13.77,13.77,0,0,0-3.12-3.06c25-12.48,24.78-42.11,25-51.11Z"/><path d="M756,1949.84h14.82v-35.15h4v38.87H756Z"/><path d="M841.1,1919.67a68,68,0,0,1-9.84,11.21v16.32c0,3-.66,4.38-2.82,5.1s-6.06.72-12.18.66a16.43,16.43,0,0,0-1.5-4.14c4.86.18,9.48.12,10.74.06s1.8-.42,1.8-1.68v-12.9c-10.32,8.22-23,14.1-36.72,18.12a19.65,19.65,0,0,0-2.58-3.54c11.82-3.12,22.8-7.8,31.92-14-11.4.9-22.62,1.86-30.78,2.4l-.66-4c2.76-.12,5.94-.3,9.42-.48v-28.43h12.24a54.28,54.28,0,0,0,2.58-6.12l4.68.78a57.5,57.5,0,0,1-2.94,5.34h16.8v21a52.63,52.63,0,0,0,6.12-7.55Zm-39.3-11.82v5.88h25.5v-5.88Zm25.5,9H801.8v6h25.5Zm-25.5,15.66c7.14-.42,15.24-.9,23.28-1.44.72-.66,1.5-1.26,2.22-1.92v-3.23H801.8Z"/><path d="M869.42,1930.1a51.26,51.26,0,0,1-1.2,5.76h25.86a15.11,15.11,0,0,1-.18,1.74c-.9,8.46-1.8,12.06-3.42,13.44-1.14,1.08-2.34,1.38-4.32,1.44-1.74.06-5.34.06-9-.18a8.62,8.62,0,0,0-1.2-3.48c3.72.3,7.44.36,8.76.36a3.69,3.69,0,0,0,2.4-.48c1-.9,1.8-3.54,2.52-9.42H867c-2.64,6.24-7.62,10.92-17.7,13.68a13,13,0,0,0-2.28-3.3c13.44-3.42,16.86-10.38,18.18-19.56h-16.8v-3.54H874.1a49,49,0,0,0-2.64-5.34l4.14-1a42.41,42.41,0,0,1,3.24,6.3h22.8v3.54Zm-15.54-5.34h-3.72V1915h14.58a30.72,30.72,0,0,0-4.2-6.23l2.82-1.32H850.22V1904h23.64a39.79,39.79,0,0,0-2.4-4.8l3.84-1.32a39.85,39.85,0,0,1,3.18,6.12H899.9v3.54H864.14a30.5,30.5,0,0,1,4.5,6.54l-2,1h14.76a54.8,54.8,0,0,0,4-7.55l4.08,1.38c-1.2,2-2.7,4.25-4,6.17h14.28v9.72h-3.9v-6.23h-42Z"/><path d="M913.88,1934c4.68-2,7.26-4.86,7.56-9.17a4,4,0,0,1-1.14.11c-2.34,0-4.26-1.32-4.26-4.07a4,4,0,0,1,4.32-4.08c3.18,0,4.86,2.58,4.86,6.66,0,6.41-4,11.21-10.08,13.43Z"/><path d="M518.24,1971.51a13.18,13.18,0,0,1-.84,1.08c5.7,5.64,16.2,10.62,25.56,12.83a12.89,12.89,0,0,0-2.52,3.12,71.7,71.7,0,0,1-14.88-6.17l-.06,1.92H504.74l.06-1.68a89.68,89.68,0,0,1-14.88,6.23,30.91,30.91,0,0,0-2.28-3c10.8-3,21.48-8.28,27.12-15.6Zm-23.16,16H535v14.88h-39.9Zm3.42,12.06h14.7v-9.23H498.5Zm.12,5.82H532v19.38h-4v-1.86h-25.5v2h-3.9Zm6.66-14.22a21.86,21.86,0,0,1,3.78,6.84l-3.06,1.21a27.26,27.26,0,0,0-3.6-7.09Zm-2.76,17.16v4.32H528v-4.32Zm25.5,11.64v-4.38h-25.5v4.38Zm-4.2-38.57a48.46,48.46,0,0,1-8.58-6.42,45.19,45.19,0,0,1-8.34,6.42Zm7.5,8.94H516.56v9.23h14.76Zm-10.62,7.79a53.26,53.26,0,0,0,3.54-7.2l3.36,1.08a73,73,0,0,1-4.14,7.21Z"/><path d="M549.08,2021.48c3.06-2.58,5.64-7,7.08-10.44l3.3,1.5c-1.68,3.6-4.08,8-7.14,10.86Zm51.72-36.9v3.25H549.56v-3.25h14.16a23.89,23.89,0,0,0-2.34-5.45l3.36-.84H552.26V1975h21.9c-.72-1.44-1.56-2.94-2.34-4.2l3.78-.9a39.9,39.9,0,0,1,2.94,5.1h19.2v3.3H585.86l3.24.78c-1,1.92-2,3.84-3,5.51Zm-7,23.7H572.66a47.07,47.07,0,0,1,8.82,6.24L579,2017a48.61,48.61,0,0,0-9.3-6.9l2-1.8H556.58V1991h37.2Zm-3.9-14.45H560.36v4.43h29.52Zm0,7.13H560.36v4.44h29.52Zm-8.22,20.16c2.58,0,3-.72,3.24-6.24a12.08,12.08,0,0,0,3.54,1.38c-.48,6.66-1.74,8.22-6.42,8.22H570.44c-5.82,0-7.38-1-7.38-5v-8H567v8c0,1.38.54,1.68,3.72,1.68ZM565,1978.29a26.19,26.19,0,0,1,2.76,6.18l-.48.11H582a59.18,59.18,0,0,0,3.06-6.29Zm27.66,32.21a46.55,46.55,0,0,1,8,10.2l-3.36,1.74a49,49,0,0,0-7.8-10.56Z"/><path d="M630.8,2015.54l-22.38,6.3-1-3.78,3.12-.78v-20.45h3.36v19.61l4.5-1.14V1991h-8v-18h19v18h-7.56v8.63h8v3.6h-8v11.16l8.52-2.28Zm-16.92-28.13h11.94v-10.92H613.88Zm27.84-11.76c-.66,15.53-2,37.49-10.62,49.79a21,21,0,0,0-2.94-2.58c8.1-11.76,9.12-32.94,9.48-47.45Zm11.94-1.38c.72,21,2.52,39.23,9.24,48.29a26.21,26.21,0,0,0-3.72,2.64c-6.66-9.66-8.4-26.87-9.18-47.15h-4.5v-3.78Z"/><path d="M696,1978.71v10.86l.66-.78c7.32,3.54,16.74,8.93,21.54,12.53l-2.76,3.6c-4.2-3.42-12.48-8.46-19.44-12.12v32.1h-4.2v-46.19H668.54v-4h53v4Z"/><path d="M740.18,1988.67a9.06,9.06,0,1,1-9.06,9A9.09,9.09,0,0,1,740.18,1988.67Zm0,15.23a6.18,6.18,0,1,0,0-12.36,6.18,6.18,0,1,0,0,12.36Z"/><line class="cls-3" x1="621" y1="351" x2="621" y2="351"/><path d="M319.46,1063.53q7.57,8,14.32,16.67l-4-5.16c16.42,21.25,29.22,45,39.7,69.72l-2.58-6.09c17.21,40.85,27.83,84,35.43,127.53q3.46,19.82,6.12,39.74l-.91-6.78c7.26,54.23,10.54,108.92,11.5,163.6,1,55.12-.41,110.25-2.58,165.32-1.21,30.81-2.68,61.62-4.13,92.42-.63,13.34,12.18,26.1,25.5,25.5,14.35-.64,24.83-11.21,25.5-25.5,2.23-47.41,4.5-94.83,5.83-142.28,1.35-48.07,1.75-96.19.15-144.25a1397.34,1397.34,0,0,0-12.45-147.2c-6.29-45-15-89.85-29.78-132.85-14.4-41.86-33.83-81.94-62.31-116.08q-4.45-5.34-9.26-10.37c-9.21-9.69-26.9-10-36.06,0-9.54,10.39-9.82,25.72,0,36.06Z"/><line class="cls-4" x1="336.53" y1="1045.99" x2="254.86" y2="1427.28"/><path d="M649.82,1156.93q27.87,13.88,56.08,27.06,28,13.07,56.26,25.41,18.74,8.17,37.61,16a19.34,19.34,0,0,0,10.17.45,26.23,26.23,0,0,0,21.2-18.26l.91-6.78a25.52,25.52,0,0,0-3.48-12.87l-4-5.16a25.45,25.45,0,0,0-11.25-6.56L808,1174l6.1,2.57q-27.36-11.55-54.44-23.78t-53.85-25.12q-15.15-7.29-30.2-14.79a19.1,19.1,0,0,0-9.48-3A26.19,26.19,0,0,0,640.67,1122l-2.57,6.09a25.78,25.78,0,0,0,0,13.56l2.57,6.09a25.71,25.71,0,0,0,9.15,9.15Z"/><path d="M790.17,1053.7q.57,3.84,1.09,7.69l-.91-6.78c3.24,24.23,4.74,48.78,3.3,73.21q-.6,10.4-2,20.73l.91-6.77A213.94,213.94,0,0,1,778.33,1196l2.57-6.09a179.86,179.86,0,0,1-23.41,39.91l4-5.16A194.52,194.52,0,0,1,727,1259l5.16-4a206.28,206.28,0,0,1-45.69,26.65l6.1-2.57a228.26,228.26,0,0,1-57.86,15.42l6.78-.91a302.56,302.56,0,0,1-65.63,1.15q-9.26-.79-18.47-2l6.78.91c-12.11-1.64-24.14-3.8-36.08-6.39a19.34,19.34,0,0,0-10.17-.45,26.23,26.23,0,0,0-21.2,18.26c-1.49,6.53-1.16,13.86,2.57,19.65,3.49,5.41,8.75,10.32,15.24,11.72a493.67,493.67,0,0,0,58.61,9.09,316.66,316.66,0,0,0,52.71.71,279.27,279.27,0,0,0,58-10,241,241,0,0,0,46.25-19.07,233.75,233.75,0,0,0,40.64-28.32c12.84-11,23.86-23.69,33.84-37.32,10.36-14.17,18.16-29.66,24.56-46a211.86,211.86,0,0,0,12-45.5,337.74,337.74,0,0,0,4.08-54.08,408.4,408.4,0,0,0-3.39-47.91c-.76-6-1.56-11.91-2.45-17.85a19.12,19.12,0,0,0-4.56-8.67,19.32,19.32,0,0,0-7.15-6.57,19,19,0,0,0-9.48-3,19.34,19.34,0,0,0-10.17.45c-6.17,2-12.13,5.82-15.24,11.72l-2.57,6.09a25.58,25.58,0,0,0,0,13.56Z"/><path d="M776.87,1186.79c-17,52.6-33.43,105.71-41.62,160.5-4.44,29.65-7.14,59.59-5.38,89.58,1.66,28.44,6.29,57.65,16.84,84.25,11.53,29.1,28.43,55.54,40.63,84.31l-2.57-6.1c5.12,12.21,9.27,24.84,11.09,38l-.91-6.78a77.4,77.4,0,0,1,.4,19.59l.91-6.78a54.89,54.89,0,0,1-3.68,13.73l2.57-6.09a56.1,56.1,0,0,1-7.1,12.07l4-5.16a68.9,68.9,0,0,1-12.1,11.85l5.16-4a106.55,106.55,0,0,1-23.06,13l6.1-2.57c-17.27,7.26-35.76,11.51-54.27,14l6.78-.91c-36.35,4.86-73.31,2.89-109.55-1.94l6.78.91c-30.19-4.07-60-10.23-89.67-17.31a26.76,26.76,0,0,0-19.65,2.57c-5.29,3.09-10.33,9.16-11.72,15.24-1.48,6.53-1.16,13.85,2.58,19.65,3.53,5.48,8.72,10.16,15.23,11.72,35.72,8.53,71.75,15.51,108.25,19.68,36.88,4.22,73.82,4.5,110.54-1.32a220.82,220.82,0,0,0,40.84-10.25,192.37,192.37,0,0,0,22.2-9.53,125.59,125.59,0,0,0,20-13.35,81.85,81.85,0,0,0,26.61-38.32,54.89,54.89,0,0,0,2.25-9.54,99.07,99.07,0,0,0,1.48-16.29,136.39,136.39,0,0,0-4-29.13c-4.26-17.77-12-34.74-20.09-51-7.4-14.87-15.57-29.35-22.71-44.34q-2.56-5.37-4.9-10.84l2.57,6.09c-8-19.07-12.89-39.39-15.66-59.86L783,1459c-4.28-32.43-3-65.3,1.34-97.65l-.91,6.78c6.14-45.17,18.12-89.3,31.57-132.78,3.61-11.68,7.33-23.32,11.08-35,2-6.13.63-14.18-2.57-19.65-3.1-5.29-9.16-10.33-15.24-11.72-14-3.18-27,4.21-31.37,17.81Z"/><path d="M943.41,1687.63a63.05,63.05,0,0,1-8.33,4.3l6.09-2.57a64.77,64.77,0,0,1-16.19,4.37l6.78-.91a72,72,0,0,1-18.84,0l6.78.91a84.79,84.79,0,0,1-21.17-5.9l6.09,2.57a118.25,118.25,0,0,1-26-15.49l5.16,4a137.56,137.56,0,0,1-24.46-24.3l4,5.16a98,98,0,0,1-12.81-21.35l2.58,6.09c-4.51-10.74-7.19-22.11-10.53-33.24a24.53,24.53,0,0,0-21.2-18.26,19.34,19.34,0,0,0-10.17.45L805,1596a25.71,25.71,0,0,0-9.15,9.15l-2.57,6.09a25.58,25.58,0,0,0,0,13.56c1.87,6.23,3.54,12.53,5.42,18.76a177.68,177.68,0,0,0,9.19,24,95.24,95.24,0,0,0,10.1,16.4,175.5,175.5,0,0,0,16.39,19.4,190.25,190.25,0,0,0,19.12,16.15,124.93,124.93,0,0,0,16.05,10.48,133.57,133.57,0,0,0,23,9.86,108.31,108.31,0,0,0,24.54,4.44,70.55,70.55,0,0,0,10.28,0,112.21,112.21,0,0,0,16.53-2.31,62.68,62.68,0,0,0,10-3.1,99.65,99.65,0,0,0,15.2-7.2,26.28,26.28,0,0,0,9.15-34.89l-4-5.16a25.55,25.55,0,0,0-11.25-6.56l-6.78-.91a25.43,25.43,0,0,0-12.87,3.49Z"/><path d="M806.55,1226.36q28-1.38,55.86-3.55,27.68-2.16,55.28-5.11,15.54-1.67,31.06-3.58a26.23,26.23,0,0,0,25.5-25.5l-.92-6.78a25.43,25.43,0,0,0-6.55-11.25l-5.16-4a25.32,25.32,0,0,0-12.87-3.48q-27.63,3.41-55.34,6T838,1173.56q-15.71,1-31.43,1.8a19.22,19.22,0,0,0-9.83,2.2A22.93,22.93,0,0,0,783.25,1191a19.22,19.22,0,0,0-2.2,9.83l.91,6.78a25.45,25.45,0,0,0,6.56,11.25l5.16,4a25.52,25.52,0,0,0,12.87,3.48Z"/><rect class="cls-2" x="1115" y="1272" width="65" height="220" rx="12"/><path class="cls-1" d="M1159.05,1310.79a27.61,27.61,0,0,0,11.5,8.1,11.65,11.65,0,0,0-2.15,2.55,30.77,30.77,0,0,1-12.8-10.65h-15.95a34.39,34.39,0,0,1-13,11.3,11.43,11.43,0,0,0-2.15-2.55,30.39,30.39,0,0,0,11.6-8.75H1125v-2.85h10v-16.15h-7.7V1289h7.7v-5h3.3v5h18.55v-5h3.35v5h7.65v2.8h-7.65v16.15h9.8v2.85Zm-10,14.5h17.3v2.85H1128.8v-2.85h16.9v-5.6h-10.45v-2.8h10.45v-4.4h3.35v4.4h10.65v2.8h-10.65Zm-10.8-33.5v3.6h18.55v-3.6Zm0,9.8h18.55v-3.65h-18.55Zm0,6.35h18.55v-3.8h-18.55Z"/><path class="cls-1" d="M1143.25,1352.54s0,1.15,0,1.55c-.6,15.85-1.2,21.2-2.6,23a3.71,3.71,0,0,1-2.8,1.45,32.65,32.65,0,0,1-4.45,0,9.25,9.25,0,0,0-.85-3c1.75.15,3.2.15,3.9.15a1.42,1.42,0,0,0,1.45-.65c1-1.2,1.6-6,2.15-19.35h-6.8c-.55,10-2,18.25-6.45,23.65a9.53,9.53,0,0,0-2.55-2.35c5.45-6.45,5.9-17.85,6.1-31.55h-5.2v-3.1h20.1v3.1h-11.65c0,2.45-.1,4.85-.2,7.15Zm-7.9-10.45a33.47,33.47,0,0,0-4.25-7.15l2.9-1.15a31.92,31.92,0,0,1,4.4,7Zm23.85-7.45a15.26,15.26,0,0,1-.85,2.55c2.65,5.45,7.7,11.35,12.45,14a13,13,0,0,0-2.45,2.75c-4.25-2.7-8.5-8-11.4-13.3a32.61,32.61,0,0,1-11,13.6,12.79,12.79,0,0,0-2.35-2.65c5.85-3.6,10.35-10.2,12.5-17.85Zm-8.3,32.45a74,74,0,0,1,13.6,8.25l-2.25,2.9c-2.85-2.6-8.75-6.3-13.4-8.65Zm9.5-4.85a66.22,66.22,0,0,0-8.6-6.85l2.15-2.2a67.46,67.46,0,0,1,8.75,6.55Z"/><path class="cls-1" d="M1136.5,1397c-1.6,7.2-4.55,16.15-9.1,21.7a19.23,19.23,0,0,0-3.1-1.8c4.55-5.25,7.3-13.85,8.55-20.55Zm12.9-12.3v40c0,2.55-.7,3.6-2.35,4.2s-4.8.6-9.4.6a15.62,15.62,0,0,0-1.4-3.45c3.7.1,7.3.1,8.25.05s1.45-.35,1.45-1.4v-40ZM1161,1396c4.45,7,8.7,16.1,10,22l-3.45,1.45c-1.25-5.85-5.25-15.15-9.6-22.3Z"/><path class="cls-1" d="M1165.65,1461.74a72.75,72.75,0,0,1-7.65,3.65,19.75,19.75,0,0,0,12.1,9.55,10.66,10.66,0,0,0-2.1,2.6,22.77,22.77,0,0,1-12.5-11.1c-1.1.45-2.15.85-3.2,1.2,1.5,4.4.7,8.7-1.6,10.35a6,6,0,0,1-4.25,1.3c-1,0-2.25,0-3.55-.1a5.77,5.77,0,0,0-.9-2.85,30,30,0,0,0,4,.2,4.12,4.12,0,0,0,2.7-.65c1.35-1,1.9-3.75,1-6.9-5.55,3.7-14.45,7-22,8.45a11,11,0,0,0-1.45-2.4c8-1.1,17.65-4.65,22.65-8.35a13.35,13.35,0,0,0-1.25-2.15,69.47,69.47,0,0,1-17.55,6.35,7.59,7.59,0,0,0-1.4-2.15c5.8-1,13.4-3.4,17.7-5.85-.6-.55-1.25-1.15-2-1.7a80,80,0,0,1-15.25,4.15,16.41,16.41,0,0,0-1.55-2.2c5.7-.75,12.15-2.15,16.75-4.15h-18.55v-2.55h28c.3-.9.55-1.8.9-2.75h-21.7c1.25-2.8,3-7,4-10.25l3,.5a42,42,0,0,0-3.4-3.25l2-1.15h-6.25a29.23,29.23,0,0,1-5.1,5.6,25.27,25.27,0,0,0-2.35-2.2,26.89,26.89,0,0,0,7.5-9.35l3,.85c-.45.9-1,1.75-1.4,2.65h13.45v2.45h-8.3a44.9,44.9,0,0,1,4,3.65l-2.45,1.6a4.8,4.8,0,0,0-.7-.75c-.2.65-.45,1.25-.65,2h17.75l.6-.2,2.25.5c-.8,3.15-1.9,7-3,10.15h12V1459h-20.25c-.6.35-1.2.7-1.85,1a16.36,16.36,0,0,1,4.4,5.35,90.1,90.1,0,0,0,11.6-5.5Zm-10.2-10.3c.35-1.15.65-2.2,1-3.2h-17.7c-.45,1.15-.9,2.2-1.3,3.2Zm14.75-14.3v2.45h-16.6a28.84,28.84,0,0,1-4.55,5.15,15.06,15.06,0,0,0-2.55-2,21.57,21.57,0,0,0,6.7-9.1l3.1.8a26.43,26.43,0,0,1-1.25,2.7Zm-7.9,8a32.47,32.47,0,0,0-3.9-4.25l2.3-1.25a30.14,30.14,0,0,1,4,4Z"/></svg>