<svg id="Layer_1" data-name="Layer 1" xmlns="http://www.w3.org/2000/svg" viewBox="0 0 1242 2208"><defs><style>.cls-1{fill:#f6eabe;}.cls-2{fill:#999;}.cls-3,.cls-4{fill:none;}.cls-4{stroke:#000;stroke-linecap:round;stroke-miterlimit:10;stroke-width:50px;}</style></defs><rect class="cls-1" width="1242" height="2208"/><path d="M498,168.44c-23.82,58-51.61,116.72-84.17,171.51V871.13H360.66V420.93c-27,38.11-57.17,73.05-86.55,104-6.35-12.71-22.23-38.91-31.76-50.82,81.78-77,158.8-197.7,205.65-321.57Zm422.4,285.84c-42.08,82.58-97.66,154-162.77,215.17,34.94,93.69,78.61,150.86,125.45,150.86,23-.79,33.35-38.9,38.91-140.54,11.91,11.12,31.76,23,46,27.79-10.32,127.84-30.17,166-88.93,166-68.28,0-123.86-64.31-164.35-166.74-67.49,55.58-143.72,100.84-225.5,137.36-7.14-11.91-24.61-34.93-36.52-44.46C543.28,763.94,625.85,716.3,697.31,656c-22.23-69.08-39.7-151.66-50-241.38L448,435.23l-5.56-50,199.29-19.85c-7.15-66.69-11.12-136.56-11.91-207.23h54.79c0,69.87,3.17,138.16,9.52,201.68L945,334.39l4.77,49.23-250.11,26.2c9.53,77,23.82,146.89,41.29,205.64,51.61-51.61,96.07-112,129.42-178.65ZM872.78,308.19C843.4,278,783.06,228,737,192.26l33.35-27.79c46,33.35,106.39,81.79,137.36,110.37Z"/><rect class="cls-2" x="1114" y="437" width="65" height="126" rx="12"/><path class="cls-1" d="M1133.7,466.82c1.25,1.6,4.9,6.7,5.7,8.05l-2,2.45c-.7-1.5-2.35-4.4-3.75-6.65V497h-3.15V472.57c-1.5,5.05-3.5,9.9-5.55,12.85a14.83,14.83,0,0,0-1.75-3.1c2.9-4,5.8-11.5,7.2-18h-6.2v-3.15h6.3v-9.65h3.15v9.65h5.45v3.15h-5.45Zm19.1.7a19.47,19.47,0,0,0,.45,2.65c-10.15,2.7-11.6,3.15-12.5,3.75a12.13,12.13,0,0,0-1.1-3.2c.7-.2,1.55-.5,1.55-2.2v-16.7h3.25v6.5h8.35v2.9h-8.35v8.3Zm2.35,5.5-2,3.75h12.65V497h-3.4v-1.75h-17v2h-3.3V476.77h7.9c.55-1.5,1.2-3.25,1.55-4.6Zm7.3,6.5h-17v5.05h17Zm0,13v-5.3h-17v5.3Zm2.25-22.4c1.25,0,1.5-.75,1.65-5.25a9.16,9.16,0,0,0,2.85,1.25c-.3,5.45-1.2,6.95-4.15,6.95h-5.85c-3.65,0-4.55-.95-4.55-4.45V451.87h3.25v6.5h10.2v2.9h-10.2v7.35c0,1.3.25,1.5,1.65,1.5Z"/><path class="cls-1" d="M1168.55,526.87v2.5H1124.4v-2.5h20.25v-3.2H1127.8v-2.3h16.85v-3H1129.2v-2.25h15.45v-3.2H1124.5v-2.5h20.15v-3.05H1129.8V505h14.85v-3.55h3.25V505h14.45v5.4h6.15v2.5h-6.15v5.45H1147.9v3h17.3v2.3h-17.3v3.2Zm-37.75,5h31.75v15.25h-3.25v-1.6H1134v1.7h-3.2Zm3.2,2.4v3.2h25.3v-3.2Zm25.3,8.85v-3.4H1134v3.4Zm-11.4-32.7h11.15v-3.05H1147.9Zm0,5.7h11.15v-3.2H1147.9Z"/><path d="M379,1861.49H364.22v35.15h-4v-38.87H379Z"/><path d="M412.28,1858.55c-.06,2.1-.12,5.1-.42,8.64.9,7,4.56,32.51,25.74,42a12.63,12.63,0,0,0-2.88,3.36c-15.42-7.26-21.72-22.74-24.6-34-2.64,12.23-8.94,26.33-24.06,34.19a13.77,13.77,0,0,0-3.12-3.06c25-12.48,24.78-42.11,25-51.11Z"/><path d="M441,1909.84h14.82v-35.15h4v38.87H441Z"/><path d="M493.16,1871.62a67.64,67.64,0,0,1-7.2,12.25v28.85h-4v-24a41.57,41.57,0,0,1-7.26,6.41,17,17,0,0,0-2-3.48c7-5,12.3-12.23,16.14-20H474v-3.83h16.44a65.25,65.25,0,0,0,3.3-9.42l4.08,1c-.9,2.82-1.86,5.64-3,8.4H526.1v3.83Zm32.94,36.24v3.72H490v-3.72h16v-17.52H492.32v-3.72H506v-11.81h4v11.81h13.8v3.72H510v17.52Z"/><path d="M553.52,1873.12c-3.48,13.74-9,27.06-18.84,36.12a31.63,31.63,0,0,0-2.64-3.12c9-8.1,14.22-20.33,17.46-33H534.32v-3.89h16.14c.78-3.66,1.44-7.32,2-10.86l4,.54c-.54,3.36-1.2,6.84-2,10.32h31.08v3.89Zm33.18,34.2v3.84H543.92v-3.84h19.74v-18.54H550v-3.84h33.84v3.84H567.74v18.54Z"/><path d="M598.88,1894c4.68-2,7.26-4.86,7.56-9.17a4,4,0,0,1-1.14.11c-2.34,0-4.26-1.32-4.26-4.07a4,4,0,0,1,4.32-4.08c3.18,0,4.86,2.58,4.86,6.66,0,6.41-4,11.21-10.08,13.43Z"/><path d="M649,1861.49H634.22v35.15h-4v-38.87H649Z"/><path d="M702.14,1880.38a69.44,69.44,0,0,1-16.86,17.94c3.78,6.48,8.46,10.38,13.68,10.38,2.58,0,3.54-2.52,4.14-10.68a11.06,11.06,0,0,0,3.9,2c-1.08,10.08-2.88,12.84-8.16,12.84-7,0-12.72-4.68-17.1-12.06a104.91,104.91,0,0,1-23.58,11.52,25.82,25.82,0,0,0-2.7-3.78,90.84,90.84,0,0,0,24.36-11.4,79.08,79.08,0,0,1-6-20l-19.92,1.67-.42-3.89,19.74-1.62a118.64,118.64,0,0,1-1.14-14.82h4.38a123,123,0,0,0,1,14.45l28.68-2.33.36,3.78-28.44,2.39a71.28,71.28,0,0,0,5.34,17.76,63.29,63.29,0,0,0,14.88-16.14Zm-5.52-11.15a65.3,65.3,0,0,0-12.72-7.38l2.58-2.64a62,62,0,0,1,12.78,7Z"/><path d="M711,1909.84h14.82v-35.15h4v38.87H711Z"/><path d="M763.16,1871.62a67.64,67.64,0,0,1-7.2,12.25v28.85h-4v-24a41.57,41.57,0,0,1-7.26,6.41,17,17,0,0,0-2-3.48c7-5,12.3-12.23,16.14-20H744v-3.83h16.44a65.25,65.25,0,0,0,3.3-9.42l4.08,1c-.9,2.82-1.86,5.64-3,8.4H796.1v3.83Zm32.94,36.24v3.72H760v-3.72h16v-17.52H762.32v-3.72H776v-11.81h4v11.81h13.8v3.72H780v17.52Z"/><path d="M824.78,1873.54a74.71,74.71,0,0,1-5.76,11.94h32.7v27.3h-4.14v-3.12H820.22v3.42h-4v-23.4a50.91,50.91,0,0,1-11.46,11.52,21.84,21.84,0,0,0-2.64-3.18c8.64-5.94,14.46-14.76,18.36-24.48H804.08v-3.89H821.9a86,86,0,0,0,3.12-11.34l4.14.84c-.84,3.48-1.8,7-3,10.5h30v3.89Zm-4.56,15.78v16.5h27.36v-16.5Z"/><path d="M875.18,1876.67a9.06,9.06,0,1,1-9.06,9A9.09,9.09,0,0,1,875.18,1876.67Zm0,15.23a6.18,6.18,0,1,0,0-12.36,6.18,6.18,0,1,0,0,12.36Z"/><path d="M417.14,1952.38a69.44,69.44,0,0,1-16.86,17.94c3.78,6.48,8.46,10.38,13.68,10.38,2.58,0,3.54-2.52,4.14-10.68a11.06,11.06,0,0,0,3.9,2c-1.08,10.08-2.88,12.84-8.16,12.84-7,0-12.72-4.68-17.1-12.06a104.91,104.91,0,0,1-23.58,11.52,25.82,25.82,0,0,0-2.7-3.78,90.84,90.84,0,0,0,24.36-11.4,79.08,79.08,0,0,1-6-20l-19.92,1.67-.42-3.89,19.74-1.62a118.64,118.64,0,0,1-1.14-14.82h4.38a123,123,0,0,0,1,14.45l28.68-2.33.36,3.78-28.44,2.39a71.28,71.28,0,0,0,5.34,17.76,63.29,63.29,0,0,0,14.88-16.14Zm-5.52-11.15a65.3,65.3,0,0,0-12.72-7.38l2.58-2.64a62,62,0,0,1,12.78,7Z"/><path d="M477.38,1936.85s0,1.74-.06,2.28c-1,29.51-1.8,39.65-4.26,42.71a6.28,6.28,0,0,1-4.92,2.46,75.54,75.54,0,0,1-9.48-.18,8.92,8.92,0,0,0-1.38-4.2c4.2.36,8,.42,9.42.42a2.91,2.91,0,0,0,2.64-1c2.1-2.22,3.06-12.18,3.84-38.57H456.32c-1.14,12.42-3.9,34.13-25.14,44.21a11.71,11.71,0,0,0-3-3.24,36.24,36.24,0,0,0,18.6-18.24c-3.42-3.42-9.36-8.4-13.86-12.11l2.46-2.64c4.14,3.3,9.54,7.56,13,10.73,2.52-6.84,3.12-13.73,3.54-18.71H430.76v-3.9Z"/><path d="M505.7,1964.92c-.9-1.92-3.24-5.88-5.1-8.88v28.8h-3.66v-29.16c-2,7.14-4.86,14-7.68,18.3a24,24,0,0,0-2.28-4c3.72-5,7.5-14.75,9.3-23h-8.1v-3.77h8.76v-12.84h3.66v12.84h7.26v3.77H500.6v4.2c1.68,2.17,6.3,8.76,7.38,10.32ZM520.82,1977a50.05,50.05,0,0,1-13.74,8.22c-.54-.84-1.62-2-2.34-2.94,4.5-1.68,10-4.8,12.6-7.44Zm21.54-24.24H506.42v-3.23h36Zm-27.3-13.61h-7.8v-3.12h7.8v-4.8h3.6v4.8h11v-4.8h3.72v4.8h8v3.12h-8V1947h-18.3ZM509.54,1974v-17.87h29.64V1974Zm3.6-10.32h9.06v-4.55h-9.06Zm0,7.32h9.06v-4.62h-9.06Zm5.52-31.85v5h11v-5Zm16.8,20h-9.54v4.55h9.54Zm0,7.25h-9.54V1971h9.54Zm-4.32,8.46a88.84,88.84,0,0,1,11.64,7.74l-3.18,2.58a84.32,84.32,0,0,0-11-7.86Z"/><path d="M570,1952.62s0,1.38-.06,1.87c-.72,19-1.44,25.43-3.12,27.59a4.45,4.45,0,0,1-3.36,1.74,39.18,39.18,0,0,1-5.34,0,11.1,11.1,0,0,0-1-3.66c2.1.18,3.84.18,4.68.18a1.7,1.7,0,0,0,1.74-.78c1.2-1.44,1.92-7.2,2.58-23.22H557.9c-.66,12-2.34,21.9-7.74,28.38a11.44,11.44,0,0,0-3.06-2.82c6.54-7.74,7.08-21.42,7.32-37.86h-6.24v-3.71H572.3V1944h-14c-.06,3-.12,5.83-.24,8.58Zm-9.48-12.53a40.17,40.17,0,0,0-5.1-8.58l3.48-1.38a38.31,38.31,0,0,1,5.28,8.4Zm28.62-8.94a18.31,18.31,0,0,1-1,3.06c3.18,6.54,9.24,13.62,14.94,16.74a15.63,15.63,0,0,0-2.94,3.3c-5.1-3.25-10.2-9.54-13.68-16-3.12,6.78-7.5,12.47-13.14,16.31a15.35,15.35,0,0,0-2.82-3.18c7-4.31,12.42-12.23,15-21.41Zm-10,38.93c5.58,2.64,12.78,6.9,16.32,9.9l-2.7,3.48c-3.42-3.12-10.5-7.56-16.08-10.38Zm11.4-5.82a79.47,79.47,0,0,0-10.32-8.22l2.58-2.63a80,80,0,0,1,10.5,7.85Z"/><path d="M637.28,1930.55c-.06,2.1-.12,5.1-.42,8.64.9,7,4.56,32.51,25.74,42a12.63,12.63,0,0,0-2.88,3.36c-15.42-7.26-21.72-22.74-24.6-34-2.64,12.23-8.94,26.33-24.06,34.19a13.77,13.77,0,0,0-3.12-3.06c25-12.48,24.78-42.11,25-51.11Z"/><path d="M673.16,1959.64a52.36,52.36,0,0,0-5.52-10.73,91.4,91.4,0,0,0,4.8-10l3.06.78c-1.26,2.76-3,6.35-4.56,9.11a56,56,0,0,1,5.1,9.49Zm21.48,17.88c-9.3,1.68-19.2,3.42-26.22,4.56l-.78-3.72c3.06-.42,6.9-1.08,11.16-1.74v-11.94h-10v-3.47h24.66v3.47H682.58V1976c3.9-.6,7.92-1.32,11.94-2Zm-.84-40.43H668.12v-3.6H693.8Zm-10,2.64c-1.32,2.82-3.18,6.35-4.8,9.11a63.17,63.17,0,0,1,5.46,9.37l-2.94,1.31a51.24,51.24,0,0,0-5.88-10.61,81.62,81.62,0,0,0,5-9.9Zm6.66,19.85a54.92,54.92,0,0,0-6.72-10.67,89.09,89.09,0,0,0,5.58-10l3.12.78c-1.44,2.76-3.48,6.3-5.16,9.06a76,76,0,0,1,6,9.35Zm15.3,17.52a41,41,0,0,1-12.3,8.1,19.42,19.42,0,0,0-2.76-2.64c4.44-1.74,9.24-4.86,11.58-7.44Zm-.48-34.37c.42-1.86.84-4,1.14-5.94H694.94v-3.54h27.42v3.54H710.6c-.54,2-1.14,4.14-1.68,5.94H720.5v31H696.74v-31Zm11.58,3.18H700.28V1952H716.9Zm0,9.11H700.28v6.19H716.9Zm0,9.24H700.28v6.24H716.9Zm-3.18,11.1a59.49,59.49,0,0,1,9.54,7.56l-3.12,2.16a69.81,69.81,0,0,0-9.36-7.8Z"/><path d="M776.6,1944.11c-7.38,10.91-20.82,23.51-33.18,31,.6.42,1.26.84,1.92,1.32,3.78,2.4,8.64,2.82,15.36,2.82,7.14,0,16-.48,21.72-1a17.18,17.18,0,0,0-1.14,4.26c-4.5.3-15,.66-20.7.66-7.26,0-12.18-.66-16.14-3.24-2.4-1.5-4.26-3.48-5.58-3.48-1.92,0-4.74,3.42-7.68,7.38l-3-3.6c4-4.26,7.74-7.5,10.74-7.5a4.63,4.63,0,0,1,.9.12c11-6.36,23.22-17.39,30-26.63H731.3v-3.9h41.46l.84-.24ZM756.5,1942a70.73,70.73,0,0,0-6.3-10l3.48-1.8a70.87,70.87,0,0,1,6.42,9.78Z"/><path d="M841.76,1978.18v4H788.3v-4h22.62v-46.85h4.14v18.54h22.62v4H815.06v24.3Z"/><path d="M853.88,1966c4.68-2,7.26-4.86,7.56-9.17a4,4,0,0,1-1.14.11c-2.34,0-4.26-1.32-4.26-4.07a4,4,0,0,1,4.32-4.08c3.18,0,4.86,2.58,4.86,6.66,0,6.41-4,11.21-10.08,13.43Z"/><path d="M353.24,2003.51a13.18,13.18,0,0,1-.84,1.08c5.7,5.64,16.2,10.62,25.56,12.83a12.89,12.89,0,0,0-2.52,3.12,71.7,71.7,0,0,1-14.88-6.17l-.06,1.92H339.74l.06-1.68a89.68,89.68,0,0,1-14.88,6.23,30.91,30.91,0,0,0-2.28-3c10.8-3,21.48-8.28,27.12-15.6Zm-23.16,16H370v14.88h-39.9Zm3.42,12.06h14.7v-9.23H333.5Zm.12,5.82H367v19.38h-4v-1.86h-25.5v2h-3.9Zm6.66-14.22a21.86,21.86,0,0,1,3.78,6.84l-3.06,1.21a27.26,27.26,0,0,0-3.6-7.09Zm-2.76,17.16v4.32H363v-4.32Zm25.5,11.64v-4.38h-25.5v4.38Zm-4.2-38.57a48.46,48.46,0,0,1-8.58-6.42,45.19,45.19,0,0,1-8.34,6.42Zm7.5,8.94H351.56v9.23h14.76Zm-10.62,7.79a53.26,53.26,0,0,0,3.54-7.2l3.36,1.08a73,73,0,0,1-4.14,7.21Z"/><path d="M384.08,2053.48c3.06-2.58,5.64-7,7.08-10.44l3.3,1.5c-1.68,3.6-4.08,8-7.14,10.86Zm51.72-36.9v3.25H384.56v-3.25h14.16a23.89,23.89,0,0,0-2.34-5.45l3.36-.84H387.26V2007h21.9c-.72-1.44-1.56-2.94-2.34-4.2l3.78-.9a39.9,39.9,0,0,1,2.94,5.1h19.2v3.3H420.86l3.24.78c-1,1.92-2,3.84-3,5.51Zm-7,23.7H407.66a47.07,47.07,0,0,1,8.82,6.24L414,2049a48.61,48.61,0,0,0-9.3-6.9l2-1.8H391.58V2023h37.2Zm-3.9-14.45H395.36v4.43h29.52Zm0,7.13H395.36v4.44h29.52Zm-8.22,20.16c2.58,0,3-.72,3.24-6.24a12.08,12.08,0,0,0,3.54,1.38c-.48,6.66-1.74,8.22-6.42,8.22H405.44c-5.82,0-7.38-1-7.38-5v-8H402v8c0,1.38.54,1.68,3.72,1.68ZM400,2010.29a26.19,26.19,0,0,1,2.76,6.18l-.48.11H417a59.18,59.18,0,0,0,3.06-6.29Zm27.66,32.21a46.55,46.55,0,0,1,8,10.2l-3.36,1.74a49,49,0,0,0-7.8-10.56Z"/><path d="M462.62,2024v25.44H451.28v4.86h-3.54V2032a32.3,32.3,0,0,1-3.24,5.1,18.39,18.39,0,0,0-1.92-4c4.32-5.76,7.08-14.45,8.76-23.81h-8v-3.72H464v3.72h-8.94a88.39,88.39,0,0,1-3.84,14.63Zm-11.34,3.6v18.24h7.8v-18.24Zm30.36-3.41c0,1.56-.06,3.18-.18,4.91,2.4,11.22,7.74,20.82,16.32,24.66a17.75,17.75,0,0,0-2.64,3.24c-7.08-3.54-11.94-10.8-14.94-19.92-1.8,6.78-5.82,14-14.52,20a13,13,0,0,0-3-2.7c14.1-9.48,15.06-21.9,15.06-30.24v-2.7h3.9Zm-9.12-7.74A48.07,48.07,0,0,1,466.7,2030a20.54,20.54,0,0,0-3.3-2.27c4.32-6,6.72-15.36,8-25.32l3.84.42c-.48,3.42-1.08,6.72-1.8,9.84h20.4l.72-.18,2.76.9a145.8,145.8,0,0,1-4.86,16.26l-3.3-1.09a96.18,96.18,0,0,0,3.36-12.17Z"/><path d="M527.54,2048.2c-8.52,2-17.46,4-24,5.34l-1-3.72c6.18-1.14,15.6-3.06,24.72-5Zm-.72-38.81h-23.4v-3.72h23.4Zm-1.44,21.9H505v-16h20.34Zm-16.44,14.45a41.62,41.62,0,0,0-2.34-11.28l3.24-.78a37.26,37.26,0,0,1,2.58,11.16Zm12.78-27h-13.2v9.23h13.2ZM517,2045.26a85,85,0,0,0,2.7-12.12l3.9,1c-1.08,4.07-2.4,8.93-3.54,12Zm22.5,3.9c-3.18,3.12-8.46,6.12-13.08,7.86a22.91,22.91,0,0,0-2.7-2.7c4.68-1.56,9.84-4.56,12.24-7.14Zm-.72-34.43c.48-1.86,1-4,1.26-5.94H528.44v-3.54h28.74v3.54H544.4c-.54,2-1.14,4.14-1.74,5.94H555.2v31H530.36v-31Zm12.66,3.18H534v6.17h17.4Zm0,9.11H534v6.24h17.4Zm0,9.3H534v6.24h17.4Zm-3.36,11.16a75.29,75.29,0,0,1,10.32,7.38l-3.24,2.16A66.38,66.38,0,0,0,545,2049.4Z"/><path d="M575.18,2020.67a9.06,9.06,0,1,1-9.06,9A9.09,9.09,0,0,1,575.18,2020.67Zm0,15.23a6.18,6.18,0,1,0,0-12.36,6.18,6.18,0,1,0,0,12.36Z"/><path d="M622.7,2032.06s-.06,1.32-.12,1.86c-1.08,13.56-2.1,18.84-4.08,20.82-1.26,1.32-2.46,1.68-4.56,1.8a90.37,90.37,0,0,1-9.48-.18,8,8,0,0,0-1.44-4c4,.36,8,.36,9.48.36s2-.06,2.58-.6c1.5-1.2,2.4-5.7,3.3-16.32h-22.8c1.14-4.56,2.46-11.63,3.24-17.09H618.5v-10.08h-22v-3.78H622.4v17.58H602.3c-.6,3.3-1.2,6.71-1.86,9.65Zm18.36-29.15V2057h-4v-54.11Z"/><path d="M703.28,2010.23v33.29H699.2v-3.18H681.92v16.5h-4.14v-16.5H661v3.54h-4v-33.65h20.76v-7.92h4.14v7.92Zm-42.3,3.84v9.18h16.8v-9.18Zm16.8,22.49V2027H661v9.6Zm4.14-22.49v9.18H699.2v-9.18Zm17.28,22.49V2027H681.92v9.6Z"/><path d="M765.74,2034.17s-.06,1.19-.12,1.73c-1.14,12.66-2.28,17.64-4.14,19.56a5.52,5.52,0,0,1-4,1.56,66.58,66.58,0,0,1-7.5-.12,9.39,9.39,0,0,0-1.2-3.66c3.12.3,6.06.3,7.2.3a3,3,0,0,0,2.22-.54c1.26-1.32,2.4-5.34,3.36-15.3H724a59.21,59.21,0,0,1-9.66,7.32,19.86,19.86,0,0,0-2.22-3.3c10.26-6,17.82-15.18,23.1-25.43h-20v-3.66H737a82.29,82.29,0,0,0,3.84-10.32l3.9,1a92.32,92.32,0,0,1-3.54,9.3H757c-.72,3.48-1.56,7.62-2.34,10.74h7c-.66,3.47-1.5,7.67-2.28,10.8Zm-49.38,20.33c3.42-3.24,5.7-8.58,7-13.2l3.3,1.08c-1.44,4.92-3.54,10.62-7.14,14.16Zm12.42-42.17a39,39,0,0,0-6-8.34l3.42-1.44a39.57,39.57,0,0,1,6.18,8Zm26.82,21.84c.54-2.11,1.08-4.69,1.56-7.21H733.34a75.18,75.18,0,0,1-5.76,7.21Zm-21.48,7.91a44,44,0,0,1,1.8,11.88l-3.48.54a39.57,39.57,0,0,0-1.62-11.94Zm5.4-25.79c-1.14,2.4-2.46,4.79-3.84,7.08h15.24c.54-2,1.14-4.62,1.62-7.08Zm3.18,25a43,43,0,0,1,3.6,10.26l-3.3.9a45.91,45.91,0,0,0-3.42-10.44Zm10.32,8a38.83,38.83,0,0,0-4.56-8.1l2.76-1.08a34.18,34.18,0,0,1,4.74,7.86Z"/><path d="M792.62,2024v25.44H781.28v4.86h-3.54V2032a32.3,32.3,0,0,1-3.24,5.1,18.39,18.39,0,0,0-1.92-4c4.32-5.76,7.08-14.45,8.76-23.81h-8v-3.72H794v3.72h-8.94a88.39,88.39,0,0,1-3.84,14.63Zm-11.34,3.6v18.24h7.8v-18.24Zm30.36-3.41c0,1.56-.06,3.18-.18,4.91,2.4,11.22,7.74,20.82,16.32,24.66a17.75,17.75,0,0,0-2.64,3.24c-7.08-3.54-11.94-10.8-14.94-19.92-1.8,6.78-5.82,14-14.52,20a13,13,0,0,0-3-2.7c14.1-9.48,15.06-21.9,15.06-30.24v-2.7h3.9Zm-9.12-7.74A48.07,48.07,0,0,1,796.7,2030a20.54,20.54,0,0,0-3.3-2.27c4.32-6,6.72-15.36,8-25.32l3.84.42c-.48,3.42-1.08,6.72-1.8,9.84h20.4l.72-.18,2.76.9a145.8,145.8,0,0,1-4.86,16.26l-3.3-1.09a96.18,96.18,0,0,0,3.36-12.17Z"/><path d="M851.84,2003.81a99.62,99.62,0,0,1-6.36,13v40.13h-4v-34a72.23,72.23,0,0,1-6.54,7.87,28.45,28.45,0,0,0-2.4-3.84c6.18-5.83,12-14.94,15.54-24.3Zm31.92,21.6a59.13,59.13,0,0,1-12.3,16.25c2.64,7.08,5.94,11.4,9.48,11.4,1.74-.06,2.52-2.94,2.94-10.62a11,11,0,0,0,3.48,2.1c-.78,9.66-2.28,12.54-6.72,12.54-5.16,0-9.36-4.86-12.42-12.6a74.4,74.4,0,0,1-17,10.38,16.13,16.13,0,0,0-2.76-3.36,66.07,66.07,0,0,0,18.48-10.86,96.56,96.56,0,0,1-3.78-18.23L848.06,2024l-.42-3.77,15.06-1.5c-.54-5-.84-10.32-.9-15.66h4.14c0,5.28.24,10.44.72,15.24l19-1.92.36,3.72-18.9,2a97,97,0,0,0,3.12,15.54,52.19,52.19,0,0,0,9.78-13.5Zm-3.6-11a121.17,121.17,0,0,0-10.26-8.76l2.52-2.1c3.48,2.52,8,6.18,10.38,8.34Z"/><path d="M905.18,2020.67a9.06,9.06,0,1,1-9.06,9A9.09,9.09,0,0,1,905.18,2020.67Zm0,15.23a6.18,6.18,0,1,0,0-12.36,6.18,6.18,0,1,0,0,12.36Z"/><line class="cls-3" x1="621" y1="351" x2="621" y2="351"/><rect class="cls-2" x="1115" y="1262" width="65" height="220" rx="12"/><path class="cls-1" d="M1159.05,1300.79a27.61,27.61,0,0,0,11.5,8.1,11.65,11.65,0,0,0-2.15,2.55,30.77,30.77,0,0,1-12.8-10.65h-15.95a34.39,34.39,0,0,1-13,11.3,11.43,11.43,0,0,0-2.15-2.55,30.39,30.39,0,0,0,11.6-8.75H1125v-2.85h10v-16.15h-7.7V1279h7.7v-5h3.3v5h18.55v-5h3.35v5h7.65v2.8h-7.65v16.15h9.8v2.85Zm-10,14.5h17.3v2.85H1128.8v-2.85h16.9v-5.6h-10.45v-2.8h10.45v-4.4h3.35v4.4h10.65v2.8h-10.65Zm-10.8-33.5v3.6h18.55v-3.6Zm0,9.8h18.55v-3.65h-18.55Zm0,6.35h18.55v-3.8h-18.55Z"/><path class="cls-1" d="M1143.25,1342.54s0,1.15,0,1.55c-.6,15.85-1.2,21.2-2.6,23a3.71,3.71,0,0,1-2.8,1.45,32.65,32.65,0,0,1-4.45,0,9.25,9.25,0,0,0-.85-3c1.75.15,3.2.15,3.9.15a1.42,1.42,0,0,0,1.45-.65c1-1.2,1.6-6,2.15-19.35h-6.8c-.55,10-2,18.25-6.45,23.65a9.53,9.53,0,0,0-2.55-2.35c5.45-6.45,5.9-17.85,6.1-31.55h-5.2v-3.1h20.1v3.1h-11.65c0,2.45-.1,4.85-.2,7.15Zm-7.9-10.45a33.47,33.47,0,0,0-4.25-7.15l2.9-1.15a31.92,31.92,0,0,1,4.4,7Zm23.85-7.45a15.26,15.26,0,0,1-.85,2.55c2.65,5.45,7.7,11.35,12.45,14a13,13,0,0,0-2.45,2.75c-4.25-2.7-8.5-8-11.4-13.3a32.61,32.61,0,0,1-11,13.6,12.79,12.79,0,0,0-2.35-2.65c5.85-3.6,10.35-10.2,12.5-17.85Zm-8.3,32.45a74,74,0,0,1,13.6,8.25l-2.25,2.9c-2.85-2.6-8.75-6.3-13.4-8.65Zm9.5-4.85a66.22,66.22,0,0,0-8.6-6.85l2.15-2.2a67.46,67.46,0,0,1,8.75,6.55Z"/><path class="cls-1" d="M1136.5,1387c-1.6,7.2-4.55,16.15-9.1,21.7a19.23,19.23,0,0,0-3.1-1.8c4.55-5.25,7.3-13.85,8.55-20.55Zm12.9-12.3v40c0,2.55-.7,3.6-2.35,4.2s-4.8.6-9.4.6a15.62,15.62,0,0,0-1.4-3.45c3.7.1,7.3.1,8.25.05s1.45-.35,1.45-1.4v-40ZM1161,1386c4.45,7,8.7,16.1,10,22l-3.45,1.45c-1.25-5.85-5.25-15.15-9.6-22.3Z"/><path class="cls-1" d="M1165.65,1451.74a72.75,72.75,0,0,1-7.65,3.65,19.75,19.75,0,0,0,12.1,9.55,10.66,10.66,0,0,0-2.1,2.6,22.77,22.77,0,0,1-12.5-11.1c-1.1.45-2.15.85-3.2,1.2,1.5,4.4.7,8.7-1.6,10.35a6,6,0,0,1-4.25,1.3c-1,0-2.25,0-3.55-.1a5.77,5.77,0,0,0-.9-2.85,30,30,0,0,0,4,.2,4.12,4.12,0,0,0,2.7-.65c1.35-1,1.9-3.75,1-6.9-5.55,3.7-14.45,7-22,8.45a11,11,0,0,0-1.45-2.4c8-1.1,17.65-4.65,22.65-8.35a13.35,13.35,0,0,0-1.25-2.15,69.47,69.47,0,0,1-17.55,6.35,7.59,7.59,0,0,0-1.4-2.15c5.8-1,13.4-3.4,17.7-5.85-.6-.55-1.25-1.15-2-1.7a80,80,0,0,1-15.25,4.15,16.41,16.41,0,0,0-1.55-2.2c5.7-.75,12.15-2.15,16.75-4.15h-18.55v-2.55h28c.3-.9.55-1.8.9-2.75h-21.7c1.25-2.8,3-7,4-10.25l3,.5a42,42,0,0,0-3.4-3.25l2-1.15h-6.25a29.23,29.23,0,0,1-5.1,5.6,25.27,25.27,0,0,0-2.35-2.2,26.89,26.89,0,0,0,7.5-9.35l3,.85c-.45.9-1,1.75-1.4,2.65h13.45v2.45h-8.3a44.9,44.9,0,0,1,4,3.65l-2.45,1.6a4.8,4.8,0,0,0-.7-.75c-.2.65-.45,1.25-.65,2h17.75l.6-.2,2.25.5c-.8,3.15-1.9,7-3,10.15h12V1449h-20.25c-.6.35-1.2.7-1.85,1a16.36,16.36,0,0,1,4.4,5.35,90.1,90.1,0,0,0,11.6-5.5Zm-10.2-10.3c.35-1.15.65-2.2,1-3.2h-17.7c-.45,1.15-.9,2.2-1.3,3.2Zm14.75-14.3v2.45h-16.6a28.84,28.84,0,0,1-4.55,5.15,15.06,15.06,0,0,0-2.55-2,21.57,21.57,0,0,0,6.7-9.1l3.1.8a26.43,26.43,0,0,1-1.25,2.7Zm-7.9,8a32.47,32.47,0,0,0-3.9-4.25l2.3-1.25a30.14,30.14,0,0,1,4,4Z"/><path d="M334.46,1063.53q7.57,8,14.32,16.67l-4-5.16c16.42,21.25,29.22,45,39.7,69.72l-2.58-6.09c17.21,40.85,27.83,84,35.43,127.53q3.46,19.82,6.12,39.74l-.91-6.78c7.26,54.23,10.54,108.92,11.5,163.6,1,55.12-.41,110.25-2.58,165.32-1.21,30.81-2.68,61.62-4.13,92.42-.63,13.34,12.18,26.1,25.5,25.5,14.35-.64,24.83-11.21,25.5-25.5,2.23-47.41,4.5-94.83,5.83-142.28,1.35-48.07,1.75-96.19.15-144.25a1397.34,1397.34,0,0,0-12.45-147.2c-6.29-45-15-89.85-29.78-132.85-14.4-41.86-33.83-81.94-62.31-116.08q-4.45-5.34-9.26-10.37c-9.21-9.69-26.9-10-36.06,0-9.54,10.39-9.82,25.72,0,36.06Z"/><line class="cls-4" x1="351.53" y1="1045.99" x2="269.86" y2="1427.28"/><line class="cls-4" x1="860.91" y1="1105" x2="860.91" y2="1720.05"/><path class="cls-4" d="M863.84,1155.33c24.9-5.19,45.19-22.73,57.52-43.28s17.67-44,21.42-67.22"/><line class="cls-4" x1="790.43" y1="1679.14" x2="929.76" y2="1679.14"/><path d="M854.88,1173.65a706.56,706.56,0,0,0-73.65-18.57,626.41,626.41,0,0,0-82.75-10.9,514.37,514.37,0,0,0-65,.44c-23.67,1.6-47.52,4.61-70.54,10.45a213,213,0,0,0-30,9.87c-11.11,4.65-22,9.61-31.89,16.5-3.6,2.5-7,5.22-10.49,7.92a26.22,26.22,0,0,0,0,36.06c4.86,4.46,11.24,7.78,18,7.47l6.78-.91a25.54,25.54,0,0,0,11.26-6.56l.71-.56-5.16,4a136.91,136.91,0,0,1,30.19-17.21l-6.1,2.57c16.15-6.78,33.2-11.22,50.41-14.3,5-.91,10.12-1.69,15.2-2.38l-6.78.91a487.79,487.79,0,0,1,99.31-2.86c10.95.79,21.86,2,32.74,3.41l-6.78-.91a678.37,678.37,0,0,1,87.8,18q11.61,3.17,23.1,6.73a19.24,19.24,0,0,0,10.17.46,19,19,0,0,0,9.48-3A28.62,28.62,0,0,0,872.69,1205c1.48-6.53,1.16-13.85-2.57-19.65a27.36,27.36,0,0,0-15.24-11.72Z"/><path d="M494.91,1230.53c16.17,10.27,34,18.08,52,24.29a344.79,344.79,0,0,0,50.26,12.73c10.6,1.92,21.27,3.41,31.95,4.83,6.59.88,13.18,1.61,19.82,2,12.86.72,25.75.58,38.62.66,14.84.1,29.72.4,44.44,2.37l-6.78-.91a125,125,0,0,1,31.6,8.13l-6.09-2.57A78.72,78.72,0,0,1,768,1292l-5.16-4a70.48,70.48,0,0,1,12.29,12.36l-4-5.16c6.68,8.75,10.83,19.07,17.24,28a93,93,0,0,0,8.87,11,61.39,61.39,0,0,0,19.3,13.19,155.42,155.42,0,0,0,15.38,6.42c5.54,1.91,11.11,2.67,16.94,3.37,6.05.72,12-.14,18-1.17a28.49,28.49,0,0,0,15.24-11.72,19,19,0,0,0,3-9.48,19.24,19.24,0,0,0-.46-10.17c-2-6.17-5.82-12.12-11.72-15.24l-6.09-2.57a25.78,25.78,0,0,0-13.56,0c-.63.11-1.26.21-1.9.29l6.78-.91a39.6,39.6,0,0,1-9.91-.11l6.78.91a60.05,60.05,0,0,1-14.23-4.17l6.1,2.57c-5.12-2.16-10.43-4.46-14.89-7.83l5.16,4a43.73,43.73,0,0,1-7.56-7.7l4,5.16c-4.6-6-8-12.82-11.76-19.37A106.81,106.81,0,0,0,805.68,1258c-11.89-12.06-26.95-20.19-42.94-25.41a129.29,129.29,0,0,0-19.42-4.6c-8.77-1.42-17.62-2.48-26.48-3.08-14-.93-28.08-.85-42.13-.92-15.48-.08-30.8-.61-46.16-2.66l6.77.91c-24.22-3.26-48.37-7.84-71.62-15.5q-9.71-3.2-19.13-7.15l6.09,2.57a205.51,205.51,0,0,1-30-15.64,19,19,0,0,0-9.48-3,19.34,19.34,0,0,0-10.17.45,19.14,19.14,0,0,0-8.67,4.57,19.4,19.4,0,0,0-6.57,7.15c-3.12,5.92-4.69,13.09-2.57,19.65a27.49,27.49,0,0,0,11.72,15.24Z"/><line class="cls-4" x1="861.94" y1="1201.64" x2="939.91" y2="1220.73"/><line class="cls-4" x1="861.94" y1="1266.12" x2="939.91" y2="1285.22"/><path class="cls-4" d="M941.76,1286.07"/><line class="cls-4" x1="939.91" y1="1285.22" x2="939.91" y2="1220.73"/></svg>