<svg id="Layer_1" data-name="Layer 1" xmlns="http://www.w3.org/2000/svg" viewBox="0 0 1242 2208"><defs><style>.cls-1{fill:#f6eabe;}.cls-2{fill:#999;}.cls-3,.cls-4{fill:none;}.cls-4{stroke:#000;stroke-linecap:round;stroke-miterlimit:10;stroke-width:50px;}</style></defs><rect class="cls-1" width="1242" height="2208"/><path d="M498.81,170.83a1114.53,1114.53,0,0,1-87.34,170.7v529.6H359.86V417a798,798,0,0,1-98.45,111.16c-6.35-12.7-23-39.7-33.35-52.4C317,399.5,398,280.4,447.2,154.15ZM762.42,403.47C814,532.09,899.78,661.51,982.35,729c-11.91,8.74-31,27.79-39.7,42.08C863.25,698,783.06,570.2,729.07,439.2V872.71H677.46V455.87c-54,129.42-132.6,248.52-213.58,318.39-9.53-11.91-27.79-31-39.7-40.49,86.54-67.49,172.29-198.5,223.11-330.3H450.38V352.65H677.46V159.71h51.61V352.65H962.5v50.82Z"/><rect class="cls-2" x="1114" y="437" width="65" height="126" rx="12"/><path class="cls-1" d="M1133.7,466.82c1.25,1.6,4.9,6.7,5.7,8.05l-2,2.45c-.7-1.5-2.35-4.4-3.75-6.65V497h-3.15V472.57c-1.5,5.05-3.5,9.9-5.55,12.85a14.83,14.83,0,0,0-1.75-3.1c2.9-4,5.8-11.5,7.2-18h-6.2v-3.15h6.3v-9.65h3.15v9.65h5.45v3.15h-5.45Zm19.1.7a19.47,19.47,0,0,0,.45,2.65c-10.15,2.7-11.6,3.15-12.5,3.75a12.13,12.13,0,0,0-1.1-3.2c.7-.2,1.55-.5,1.55-2.2v-16.7h3.25v6.5h8.35v2.9h-8.35v8.3Zm2.35,5.5-2,3.75h12.65V497h-3.4v-1.75h-17v2h-3.3V476.77h7.9c.55-1.5,1.2-3.25,1.55-4.6Zm7.3,6.5h-17v5.05h17Zm0,13v-5.3h-17v5.3Zm2.25-22.4c1.25,0,1.5-.75,1.65-5.25a9.16,9.16,0,0,0,2.85,1.25c-.3,5.45-1.2,6.95-4.15,6.95h-5.85c-3.65,0-4.55-.95-4.55-4.45V451.87h3.25v6.5h10.2v2.9h-10.2v7.35c0,1.3.25,1.5,1.65,1.5Z"/><path class="cls-1" d="M1168.55,526.87v2.5H1124.4v-2.5h20.25v-3.2H1127.8v-2.3h16.85v-3H1129.2v-2.25h15.45v-3.2H1124.5v-2.5h20.15v-3.05H1129.8V505h14.85v-3.55h3.25V505h14.45v5.4h6.15v2.5h-6.15v5.45H1147.9v3h17.3v2.3h-17.3v3.2Zm-37.75,5h31.75v15.25h-3.25v-1.6H1134v1.7h-3.2Zm3.2,2.4v3.2h25.3v-3.2Zm25.3,8.85v-3.4H1134v3.4Zm-11.4-32.7h11.15v-3.05H1147.9Zm0,5.7h11.15v-3.2H1147.9Z"/><path d="M414.92,1899.69a98.85,98.85,0,0,1-6.18,13.56v39.59H404.9v-33.35a61.73,61.73,0,0,1-5.46,7,32.86,32.86,0,0,0-2.28-3.9c5.58-5.87,10.8-14.87,14-24Zm34.14,28c-2.1,1.26-4.44,2.64-6.84,3.78,2,6.06,5.82,11.82,10.38,14.52a11.2,11.2,0,0,0-2.64,2.94c-4.62-3.18-8.46-9.42-10.68-16a27.45,27.45,0,0,1-2.76,1.2c2.58,6.84,1.86,14-1,16.68a6.91,6.91,0,0,1-5.22,1.92c-1.08,0-2.4-.06-3.78-.18a9.31,9.31,0,0,0-1-3.42,38.26,38.26,0,0,0,4.14.24,3.66,3.66,0,0,0,3.12-1.14c1.56-1.38,2.22-5.16,1.44-9.36-5.16,4.92-13.08,9.36-19.8,11.7a15.8,15.8,0,0,0-2.34-2.82c7.62-2.28,16.62-7.14,21.3-12.24a35.76,35.76,0,0,0-1.5-3.48,63.52,63.52,0,0,1-17.22,9.9,16.14,16.14,0,0,0-2.22-2.64c5.94-1.8,13.74-5.76,17.88-9.54a16.39,16.39,0,0,0-2.94-3.18,58.44,58.44,0,0,1-13.56,7.26,11.26,11.26,0,0,0-2.22-2.58,52.48,52.48,0,0,0,15.06-7.56H416.48v-9.35c-1.14,1-2.28,2-3.54,2.94a9.54,9.54,0,0,0-2.52-2.59,44.59,44.59,0,0,0,13.86-16.25l3.84.72c-.6,1.2-1.32,2.34-2,3.54h11.1l.72-.18,2.34,1.68a52.13,52.13,0,0,1-4.8,6.84h13.08v12.65H430.94a15.29,15.29,0,0,1-1.2,1,21,21,0,0,1,5.64,6.84,111.93,111.93,0,0,0,10.92-6.42ZM424,1905.81a54.58,54.58,0,0,1-4.2,5.16h11.58a37.88,37.88,0,0,0,3.72-5.16Zm-3.9,14.69h10.5v-6.42h-10.5Zm24.72-6.42H434.18v6.42H444.8Z"/><path d="M484,1901.49H469.22v35.15h-4v-38.87H484Z"/><path d="M517.28,1898.55c-.06,2.1-.12,5.1-.42,8.64.9,7,4.56,32.51,25.74,42a12.63,12.63,0,0,0-2.88,3.36c-15.42-7.26-21.72-22.74-24.6-34-2.64,12.23-8.94,26.33-24.06,34.19a13.77,13.77,0,0,0-3.12-3.06c25-12.48,24.78-42.11,25-51.11Z"/><path d="M546,1949.84h14.82v-35.15h4v38.87H546Z"/><path d="M603,1916.91c-8.58,1.55-17.4,3.3-23.82,4.43l-.66-3.42c4.32-.66,10.14-1.67,16.32-2.75V1907H580v-3.3H594.8v-5.34h4v16.26l4-.72Zm20.4,31.55c0,2.28-.6,3.36-2.34,4s-4.86.66-9.6.66a16.27,16.27,0,0,0-1.32-3.6c3.54.12,7,.12,7.92.12s1.26-.36,1.26-1.2v-8c-9.06,1.86-18.78,3.72-25.92,4.92l-1.32-3.54c6.84-1,17.34-2.88,27.24-4.74v-11.21H591.14v7.43c0,6.3-1.2,14.64-7.74,20.16a12.58,12.58,0,0,0-2.88-2.76c5.94-5.1,6.72-11.94,6.72-17.46v-10.79h36.12Zm-29.46-20.21c6.6,1.07,15.18,3.35,19.68,5.45l-1.38,3.12a103.06,103.06,0,0,0-19.8-5.82Zm31.26-12c2.1,0,2.52-.72,2.7-5.17a13.61,13.61,0,0,0,3.6,1.39c-.42,5.7-1.68,7.25-5.94,7.25H615.14c-5.46,0-6.9-1.14-6.9-5.39v-16h4v5.28h15.18v3.3H612.26v7.38c0,1.55.48,1.92,3.24,1.92Z"/><path d="M657.26,1926.68h3.84v6.42c0,6-1,14.52-5.7,20.46a14.53,14.53,0,0,0-3.24-2.16,20.45,20.45,0,0,0,2.94-5.22c-6.06.9-12.06,1.74-16.62,2.34l-.42-3.06c4.56-.54,11.16-1.38,18-2.28a25.16,25.16,0,0,0,.66-3.06H641v-2.88h16.08c.12-1.38.18-2.64.18-3.9h-17.7v-2.88h17.7Zm33.48-14.51H639.2v-3h6.12a8.25,8.25,0,0,0-2.88-1.8,24.74,24.74,0,0,0,6.72-8.64l3.72.6q-.72,1.53-1.62,3.06H663v-4.08h4.08v4.08h19.32v2.82H667.1v4h23.64Zm-45.18,13.62v-10.38H685.4v10.38Zm3.84-20.58a24.44,24.44,0,0,1-3.6,4H663v-4Zm0,17.81h32v-4.79h-32Zm42.84,24.24H673.4v5.7h-4v-26h4v3.48h17.1v2.94H673.4v4h15.84v2.82H673.4v4.14h18.84Z"/><path d="M724,1901.49H709.22v35.15h-4v-38.87H724Z"/><path d="M758.84,1917.15c5.52,10.31,15.06,20.75,24.06,25.79a16.83,16.83,0,0,0-3.06,3.42c-8.34-5.22-16.92-14.94-22.8-25.07V1953H752.9v-31.68c-5.76,10.38-14.28,20-22.92,25.14a22.2,22.2,0,0,0-2.94-3.3c9.24-5,18.54-15.47,24-26H729.26v-4H752.9v-14.76H757v14.76h23.88v4Z"/><path d="M786,1949.84h14.82v-35.15h4v38.87H786Z"/><path d="M823.88,1934c4.68-2,7.26-4.86,7.56-9.17a4,4,0,0,1-1.14.11c-2.34,0-4.26-1.32-4.26-4.07a4,4,0,0,1,4.32-4.08c3.18,0,4.86,2.58,4.86,6.66,0,6.41-4,11.21-10.08,13.43Z"/><path d="M368.24,1971.51a13.18,13.18,0,0,1-.84,1.08c5.7,5.64,16.2,10.62,25.56,12.83a12.89,12.89,0,0,0-2.52,3.12,71.7,71.7,0,0,1-14.88-6.17l-.06,1.92H354.74l.06-1.68a89.68,89.68,0,0,1-14.88,6.23,30.91,30.91,0,0,0-2.28-3c10.8-3,21.48-8.28,27.12-15.6Zm-23.16,16H385v14.88h-39.9Zm3.42,12.06h14.7v-9.23H348.5Zm.12,5.82H382v19.38h-4v-1.86h-25.5v2h-3.9Zm6.66-14.22a21.86,21.86,0,0,1,3.78,6.84l-3.06,1.21a27.26,27.26,0,0,0-3.6-7.09Zm-2.76,17.16v4.32H378v-4.32Zm25.5,11.64v-4.38h-25.5v4.38Zm-4.2-38.57a48.46,48.46,0,0,1-8.58-6.42,45.19,45.19,0,0,1-8.34,6.42Zm7.5,8.94H366.56v9.23h14.76Zm-10.62,7.79a53.26,53.26,0,0,0,3.54-7.2l3.36,1.08a73,73,0,0,1-4.14,7.21Z"/><path d="M399.08,2021.48c3.06-2.58,5.64-7,7.08-10.44l3.3,1.5c-1.68,3.6-4.08,8-7.14,10.86Zm51.72-36.9v3.25H399.56v-3.25h14.16a23.89,23.89,0,0,0-2.34-5.45l3.36-.84H402.26V1975h21.9c-.72-1.44-1.56-2.94-2.34-4.2l3.78-.9a39.9,39.9,0,0,1,2.94,5.1h19.2v3.3H435.86l3.24.78c-1,1.92-2,3.84-3,5.51Zm-7,23.7H422.66a47.07,47.07,0,0,1,8.82,6.24L429,2017a48.61,48.61,0,0,0-9.3-6.9l2-1.8H406.58V1991h37.2Zm-3.9-14.45H410.36v4.43h29.52Zm0,7.13H410.36v4.44h29.52Zm-8.22,20.16c2.58,0,3-.72,3.24-6.24a12.08,12.08,0,0,0,3.54,1.38c-.48,6.66-1.74,8.22-6.42,8.22H420.44c-5.82,0-7.38-1-7.38-5v-8H417v8c0,1.38.54,1.68,3.72,1.68ZM415,1978.29a26.19,26.19,0,0,1,2.76,6.18l-.48.11H432a59.18,59.18,0,0,0,3.06-6.29Zm27.66,32.21a46.55,46.55,0,0,1,8,10.2l-3.36,1.74a49,49,0,0,0-7.8-10.56Z"/><path d="M487.28,1970.55c-.06,2.1-.12,5.1-.42,8.64.9,7,4.56,32.51,25.74,42a12.63,12.63,0,0,0-2.88,3.36c-15.42-7.26-21.72-22.74-24.6-34-2.64,12.23-8.94,26.33-24.06,34.19a13.77,13.77,0,0,0-3.12-3.06c25-12.48,24.78-42.11,25-51.11Z"/><path d="M538.16,1983.62a67.64,67.64,0,0,1-7.2,12.25v28.85h-4v-24a41.57,41.57,0,0,1-7.26,6.41,17,17,0,0,0-2-3.48c7-5,12.3-12.23,16.14-20H519v-3.83h16.44a65.25,65.25,0,0,0,3.3-9.42l4.08,1c-.9,2.82-1.86,5.64-3,8.4H571.1v3.83Zm32.94,36.24v3.72H535v-3.72h16v-17.52H537.32v-3.72H551v-11.81h4v11.81h13.8v3.72H555v17.52Z"/><path d="M593.06,2004.5c-.72-1.92-2.46-5.7-4-8.7v29h-3.48v-28.32c-1.74,6.6-4,13-6.42,16.92a22.27,22.27,0,0,0-2-3.24c3.24-5.1,6.54-14.82,8.1-23.16h-7v-3.65h7.26v-13.08h3.48v13.08h5.58V1987H589.1v4c1.44,2.27,5.22,8.81,6.06,10.43Zm20.22,3.12c-1.14,3.36-2.46,7.2-3.6,10.08,2.28-.36,4.62-.78,6.9-1.14l.24,3.36c-8,1.38-16.5,2.7-22.62,3.72l-1-3.54c3.66-.48,8.58-1.2,13.92-2l-1-.3a78.58,78.58,0,0,0,3.48-11Zm-10-27.77h-8.76v-3.3h8.76v-6.12h3.48v6.12h8.88v3.3H606.8v5.57h7.5v3.31H595.82v-3.31h7.5Zm10.5,25.61h-17.4v-13.31h17.4Zm-14,12.24a44,44,0,0,0-2.52-9.84l3.24-.78a48.58,48.58,0,0,1,2.7,9.66Zm10.44-22.56h-10.5v7.26h10.5Zm22.08-7.49h-3.72v32.45c0,2.34-.6,3.54-2,4.2s-4,.72-7.68.72a16.45,16.45,0,0,0-1.26-3.78c2.82.06,5.34.06,6.18.06s1-.3,1-1.14v-32.51h-9.3V1984h9.3v-13.55h3.72V1984h3.72Zm-12.78,21.17a77.39,77.39,0,0,0-3.54-14.75l3.06-.85a73.94,73.94,0,0,1,3.72,14.52Z"/><path d="M652.52,1978.05h-14v-3.42h14v-4.2h3.9v4.2h7.44v3.42h-7.44v3.84h-3.9Zm4.86,7.07c-2,4.21-4.32,9.3-6.48,13.5,4.74,4.26,6.06,8.1,6.12,11.4,0,2.88-.78,5.1-2.4,6.24a7.46,7.46,0,0,1-3.06,1.08,31.13,31.13,0,0,1-4.14.06,7.79,7.79,0,0,0-1-3.36,26.65,26.65,0,0,0,3.72.06,3.8,3.8,0,0,0,1.92-.54c1-.6,1.38-2,1.38-3.72-.06-3-1.44-6.54-6.3-10.67,2-4,4-8.52,5.46-12.18h-8.16v38h-3.54v-41.27H654.2l.54-.13Zm19.32-2c-.42.49-.9,1-1.38,1.5,3.78,2.83,10.86,6.13,17.52,7.63a19.61,19.61,0,0,0-2.46,3.12,54.73,54.73,0,0,1-17.28-8.71,49.4,49.4,0,0,1-15.78,8.88,19.43,19.43,0,0,0-2.7-2.75c7.8-2.58,15.06-6.48,18.72-10.86ZM657,2010.2h34.8v2.88H680.54a58,58,0,0,1,10,10.08l-3,1.92a30.29,30.29,0,0,0-2.52-3.18c-23.1,1.44-25.44,1.56-26.94,2.16a21.2,21.2,0,0,0-1.14-3.48,7.45,7.45,0,0,0,3.3-1.68,71.05,71.05,0,0,0,6.36-5.82H657Zm20.88-6.6c.78-1.5,1.5-3.35,2.16-4.92H660.8v-2.81h20.76l.54-.25,2.58.84c-.9,2.52-2,4.92-3,7.14h6.84v2.82H659.78v-2.82Zm4.5,15.54c-1.5-1.56-3.24-3.06-4.74-4.38l2.7-1.68h-9.18a63.49,63.49,0,0,1-7.74,7ZM673.34,1978h-7.08v-3.36h7.08v-4.26h4v4.26h14.34V1978H677.3v3.66l-4-.07Zm5.34,12.84v2.58H667.82v-2.58Z"/><path d="M726,1978.71v10.86l.66-.78c7.32,3.54,16.74,8.93,21.54,12.53l-2.76,3.6c-4.2-3.42-12.48-8.46-19.44-12.12v32.1h-4.2v-46.19H698.54v-4h53v4Z"/><path d="M776.9,1972a84.25,84.25,0,0,1-6.6,12.9v40h-3.9v-34.32A60.31,60.31,0,0,1,759,1999a29.67,29.67,0,0,0-2.52-4c6.72-5.76,12.84-14.75,16.56-24.29Zm19.92,17.58c3.9,9.72,10.38,19.49,16.62,24.59a13.84,13.84,0,0,0-3,3.18c-6-5.52-12.06-15.17-16.14-25.08V2025h-3.9v-31.49c-4.08,9.77-10,18.77-16.14,24a24.1,24.1,0,0,0-3-3.06c6.54-5.1,13-15,16.86-25H773.24v-3.84H790.4v-14.58h3.9v14.58h17.64v3.84Z"/><path d="M818.06,2020.46a58.72,58.72,0,0,0,6.18-12.06l3.42,1.44c-1.62,3.72-3.78,9-6,12.36Zm45-16.26H826.88V1976h14c.84-1.92,1.86-4.44,2.4-6.18l4.5.84c-1,1.86-1.92,3.78-2.82,5.34h18.12Zm-4-25H830.72v5.16H859.1Zm0,8.27H830.72v5.16H859.1Zm0,8.29H830.72V2001H859.1Zm-5.88,24.47c3.3,0,3.78-.9,4.08-7.08a10.68,10.68,0,0,0,3.72,1.56c-.54,7.44-1.86,9.18-7.5,9.18H839.36c-6.6,0-8.4-1.08-8.4-5.58v-10h4v10c0,1.56.72,1.92,4.56,1.92Zm-10-16a48.15,48.15,0,0,1,8.34,9.18l-3.24,2a47,47,0,0,0-8.16-9.42Zm21.18,3.18c2.82,3.6,5.82,8.52,6.9,11.76l-3.66,1.68a50.39,50.39,0,0,0-6.78-11.94Z"/><path d="M890.18,1988.67a9.06,9.06,0,1,1-9.06,9A9.09,9.09,0,0,1,890.18,1988.67Zm0,15.23a6.18,6.18,0,1,0,0-12.36,6.18,6.18,0,1,0,0,12.36Z"/><line class="cls-3" x1="621" y1="351" x2="621" y2="351"/><path d="M319.46,1063.53q7.57,8,14.32,16.67l-4-5.16c16.42,21.25,29.22,45,39.7,69.72l-2.58-6.09c17.21,40.85,27.83,84,35.43,127.53q3.46,19.82,6.12,39.74l-.91-6.78c7.26,54.23,10.54,108.92,11.5,163.6,1,55.12-.41,110.25-2.58,165.32-1.21,30.81-2.68,61.62-4.13,92.42-.63,13.34,12.18,26.1,25.5,25.5,14.35-.64,24.83-11.21,25.5-25.5,2.23-47.41,4.5-94.83,5.83-142.28,1.35-48.07,1.75-96.19.15-144.25a1397.34,1397.34,0,0,0-12.45-147.2c-6.29-45-15-89.85-29.78-132.85-14.4-41.86-33.83-81.94-62.31-116.08q-4.45-5.34-9.26-10.37c-9.21-9.69-26.9-10-36.06,0-9.54,10.39-9.82,25.72,0,36.06Z"/><line class="cls-4" x1="336.53" y1="1045.99" x2="254.86" y2="1427.28"/><line class="cls-4" x1="721.66" y1="1044.99" x2="721.66" y2="1719.99"/><line class="cls-4" x1="721.66" y1="1499.42" x2="546.95" y2="1662.81"/><line class="cls-4" x1="721.66" y1="1499.42" x2="896.37" y2="1662.81"/><line class="cls-4" x1="721.66" y1="1252.29" x2="956.66" y2="1137.92"/><line class="cls-4" x1="721.66" y1="1252.29" x2="486.66" y2="1137.92"/><rect class="cls-2" x="1114" y="1247" width="65" height="271" rx="12"/><path class="cls-1" d="M1159.05,1286.79a27.61,27.61,0,0,0,11.5,8.1,11.65,11.65,0,0,0-2.15,2.55,30.77,30.77,0,0,1-12.8-10.65h-15.95a34.39,34.39,0,0,1-13,11.3,11.43,11.43,0,0,0-2.15-2.55,30.39,30.39,0,0,0,11.6-8.75H1125v-2.85h10v-16.15h-7.7V1265h7.7v-5h3.3v5h18.55v-5h3.35v5h7.65v2.8h-7.65v16.15h9.8v2.85Zm-10,14.5h17.3v2.85H1128.8v-2.85h16.9v-5.6h-10.45v-2.8h10.45v-4.4h3.35v4.4h10.65v2.8h-10.65Zm-10.8-33.5v3.6h18.55v-3.6Zm0,9.8h18.55v-3.65h-18.55Zm0,6.35h18.55v-3.8h-18.55Z"/><path class="cls-1" d="M1143.25,1328.54s0,1.15,0,1.55c-.6,15.85-1.2,21.2-2.6,23a3.71,3.71,0,0,1-2.8,1.45,32.65,32.65,0,0,1-4.45,0,9.25,9.25,0,0,0-.85-3c1.75.15,3.2.15,3.9.15a1.42,1.42,0,0,0,1.45-.65c1-1.2,1.6-6,2.15-19.35h-6.8c-.55,10-2,18.25-6.45,23.65a9.53,9.53,0,0,0-2.55-2.35c5.45-6.45,5.9-17.85,6.1-31.55h-5.2v-3.1h20.1v3.1h-11.65c0,2.45-.1,4.85-.2,7.15Zm-7.9-10.45a33.47,33.47,0,0,0-4.25-7.15l2.9-1.15a31.92,31.92,0,0,1,4.4,7Zm23.85-7.45a15.26,15.26,0,0,1-.85,2.55c2.65,5.45,7.7,11.35,12.45,14a13,13,0,0,0-2.45,2.75c-4.25-2.7-8.5-8-11.4-13.3a32.61,32.61,0,0,1-11,13.6,12.79,12.79,0,0,0-2.35-2.65c5.85-3.6,10.35-10.2,12.5-17.85Zm-8.3,32.45a74,74,0,0,1,13.6,8.25l-2.25,2.9c-2.85-2.6-8.75-6.3-13.4-8.65Zm9.5-4.85a66.22,66.22,0,0,0-8.6-6.85l2.15-2.2a67.46,67.46,0,0,1,8.75,6.55Z"/><path class="cls-1" d="M1166,1363.19v29.3h-3.5v-2.55h-13.3v15.6h-3.45v-15.6h-13.4v2.75H1129v-29.5Zm-33.65,3.2V1375h13.4v-8.65Zm13.4,20.35v-8.5h-13.4v8.5Zm16.75-20.35h-13.3V1375h13.3Zm0,20.35v-8.5h-13.3v8.5Z"/><path class="cls-1" d="M1168.25,1425.09v9.3h-3.15V1428h-35.4v6.4h-3v-9.3h6.95v-12.95h27.7v12.95Zm-6.45,26.6c0,1.85-.45,2.7-1.85,3.2s-3.9.5-7.7.45a8.57,8.57,0,0,0-1.1-2.75c3,.05,5.65.05,6.4.05s1-.25,1-1v-6.2c-7.3,1.45-14.85,3-20.45,4l-1.1-3c5.4-.8,13.6-2.3,21.55-3.75V1434h-22.2v5.3c0,4.85-.65,11.55-4.35,16.2a13.29,13.29,0,0,0-2.7-2c3.45-4.25,3.85-10,3.85-14.25v-8h28.6Zm-25-26.6h7.45v-6.9H1158v-3.35h-21.2Zm2.45,11.7a75.14,75.14,0,0,1,17.7,3l-.9,2.6c-4-1.5-11.7-2.9-17.7-3.35Zm18.75-16.3h-10.75v4.6H1158Z"/><path class="cls-1" d="M1162,1472.09a51.83,51.83,0,0,1-12,19.6,49.94,49.94,0,0,0,20.5,10.5,16.79,16.79,0,0,0-2.25,3,50.92,50.92,0,0,1-20.75-11.1c-5.65,5-12.55,8.6-21,11.3a15.53,15.53,0,0,0-2-3.05c8.35-2.45,15.1-5.9,20.6-10.6a57.05,57.05,0,0,1-12.2-19.65h-7.75v-3.25h44.75v3.25Zm-25.75,0a52.13,52.13,0,0,0,11.3,17.3,47.46,47.46,0,0,0,10.7-17.3Zm11.25-3.55a38.13,38.13,0,0,0-3.8-7.8l3.4-1a39,39,0,0,1,4,7.65Z"/></svg>