<svg id="Layer_1" data-name="Layer 1" xmlns="http://www.w3.org/2000/svg" viewBox="0 0 1242 2208"><defs><style>.cls-1{fill:#f6eabe;}.cls-2{fill:#999;}.cls-3{fill:none;stroke:#000;stroke-linecap:round;stroke-miterlimit:10;stroke-width:50px;}</style></defs><rect class="cls-1" width="1242" height="2208"/><path d="M485.23,150.94V407.4c0,160.39-19.85,321.57-194.53,435.11-7.15-11.12-24.61-31-37.32-40.5C414.56,698,433.62,551.11,433.62,407.4V150.94Zm295.36-.79V740.08c0,36.53,5.56,42.88,31.76,42.88h87.34c28.59,0,33.35-34.14,36.52-167.53,14.3,11.11,34.94,21.43,49.23,23.82C979.88,784.55,968,833,902.87,833H806c-61.14,0-78.6-19.85-78.6-93.69V150.15Z"/><path d="M535.92,1777.69a98.85,98.85,0,0,1-6.18,13.56v39.59H525.9v-33.35a61.73,61.73,0,0,1-5.46,7,32.86,32.86,0,0,0-2.28-3.9c5.58-5.87,10.8-14.87,14-24Zm34.14,28c-2.1,1.26-4.44,2.64-6.84,3.78,2,6.06,5.82,11.82,10.38,14.52a11.2,11.2,0,0,0-2.64,2.94c-4.62-3.18-8.46-9.42-10.68-16a27.45,27.45,0,0,1-2.76,1.2c2.58,6.84,1.86,14-1,16.68a6.91,6.91,0,0,1-5.22,1.92c-1.08,0-2.4-.06-3.78-.18a9.31,9.31,0,0,0-1-3.42,38.26,38.26,0,0,0,4.14.24,3.66,3.66,0,0,0,3.12-1.14c1.56-1.38,2.22-5.16,1.44-9.36-5.16,4.92-13.08,9.36-19.8,11.7a15.8,15.8,0,0,0-2.34-2.82c7.62-2.28,16.62-7.14,21.3-12.24a35.76,35.76,0,0,0-1.5-3.48,63.52,63.52,0,0,1-17.22,9.9,16.14,16.14,0,0,0-2.22-2.64c5.94-1.8,13.74-5.76,17.88-9.54a16.39,16.39,0,0,0-2.94-3.18,58.44,58.44,0,0,1-13.56,7.26,11.26,11.26,0,0,0-2.22-2.58,52.48,52.48,0,0,0,15.06-7.56H537.48v-9.35c-1.14,1-2.28,2-3.54,2.94a9.54,9.54,0,0,0-2.52-2.59,44.59,44.59,0,0,0,13.86-16.25l3.84.72c-.6,1.2-1.32,2.34-2,3.54h11.1l.72-.18,2.34,1.68a52.13,52.13,0,0,1-4.8,6.84h13.08v12.65H551.94a15.29,15.29,0,0,1-1.2,1,21,21,0,0,1,5.64,6.84,111.93,111.93,0,0,0,10.92-6.42ZM545,1783.81a54.58,54.58,0,0,1-4.2,5.16h11.58a37.88,37.88,0,0,0,3.72-5.16Zm-3.9,14.69h10.5v-6.42h-10.5Zm24.72-6.42H555.18v6.42H565.8Z"/><path d="M608.28,1776.55c-.06,2.1-.12,5.1-.42,8.64.9,7,4.56,32.51,25.74,42a12.63,12.63,0,0,0-2.88,3.36c-15.42-7.26-21.72-22.74-24.6-34-2.64,12.23-8.94,26.33-24.06,34.19a13.77,13.77,0,0,0-3.12-3.06c25-12.48,24.78-42.11,25-51.11Z"/><path d="M664.56,1803.42V1831h-3.9v-27.54H650.4c-.18,10.08-1.74,20-8.88,27.9a15.89,15.89,0,0,0-2.94-2.7c6.54-7.2,7.86-16.14,8.1-25.2h-7.92v-3.71h8v-15.9h-7.08v-3.72h30.66v3.72h-5.76v15.9h6.54v3.71Zm-3.9-3.71v-15.9h-10.2v15.9Zm33.18,11.69c-5,8.16-13.68,15.36-23,19.62a14.41,14.41,0,0,0-2.82-3.24c9-3.66,17.58-10.38,22.08-17.82Zm-3.24-32.51c-4.32,5.46-11.16,10.73-17.16,14a15.73,15.73,0,0,0-2.88-2.75c5.76-2.88,12.6-8,16.32-12.78Zm1.8,16.37A65.72,65.72,0,0,1,674,1810.38a20.87,20.87,0,0,0-2.82-2.82c6.18-3.12,13.5-8.64,17.58-13.79Z"/><path d="M704.88,1812c4.68-2,7.26-4.86,7.56-9.17a4,4,0,0,1-1.14.11c-2.34,0-4.26-1.32-4.26-4.07a4,4,0,0,1,4.32-4.08c3.18,0,4.86,2.58,4.86,6.66,0,6.41-4,11.21-10.08,13.43Z"/><path d="M149.52,1863.12c-3.48,13.74-9,27.06-18.84,36.12a31.63,31.63,0,0,0-2.64-3.12c9-8.1,14.22-20.33,17.46-33H130.32v-3.89h16.14c.78-3.66,1.44-7.32,2-10.86l4,.54c-.54,3.36-1.2,6.84-2,10.32h31.08v3.89Zm33.18,34.2v3.84H139.92v-3.84h19.74v-18.54H146v-3.84h33.84v3.84H163.74v18.54Z"/><path d="M203.22,1877.64a49.67,49.67,0,0,1-3.42,13c4,7,11.7,7.92,23.4,8,6.3,0,14.82-.24,20.82-.78a10.52,10.52,0,0,0-1.32,3.78c-5.52.3-13,.42-19.5.42-12.48,0-20.16-1.26-24.84-8.16a27.85,27.85,0,0,1-7.5,9.24,12,12,0,0,0-2.76-2.76c5.4-3.78,9.3-10.62,11.16-20h-5.82a6.33,6.33,0,0,0-3.48.84,20,20,0,0,0-1.56-3.66,5.53,5.53,0,0,0,2.76-1.74,94.39,94.39,0,0,0,7.14-10.26h-9.36v-3.29h11.58l.78-.36L204,1863c-2.34,3.59-6.6,10-9.78,14h6.54l.66-.06.18.06Zm-4.92-17.87a86.16,86.16,0,0,0-7-9.66l3-1.68a76.07,76.07,0,0,1,7.14,9.3Zm9.3,17.4h-3.54v-5.88h16.86c-.42-.91-.9-1.87-1.26-2.71H208.32V1852h10.74c.66-1.32,1.26-2.76,1.68-3.78l4.14.66c-.66,1.14-1.38,2.16-2,3.12h14.52v16.61H223.74a23.09,23.09,0,0,1,1.32,2.71h16.68v5.57h-3.66v-3.11H230.4v3c0,1.08.12,1.43,1.26,1.43h5.46a22.88,22.88,0,0,0,3.54-.24,15.51,15.51,0,0,0,.24,2.28,20,20,0,0,1-3.6.18h-7c-2.88,0-3.36-1.19-3.36-3.72v-2.93h-6.72c-1.86,4.31-6,6.29-14,7.67a7,7,0,0,0-1.68-2.28c6.84-.89,10.38-2.46,12.06-5.39h-9Zm11.94,7.85a13.56,13.56,0,0,1-.66,2.22H236a6.23,6.23,0,0,1-.24,1.44c-.84,4.14-1.74,6.18-2.94,7.08a5.16,5.16,0,0,1-3.24.9,49.5,49.5,0,0,1-6.3-.18,7.45,7.45,0,0,0-.78-2.58,50.09,50.09,0,0,0,5.82.3,3,3,0,0,0,1.86-.36c.6-.54,1.2-1.74,1.8-4H217.74c-1.92,3.12-5,5.52-10.26,7a11,11,0,0,0-2-2.7c6.66-1.74,9.42-4.86,10.62-9.12H205.2v-2.64h16.08c-.48-1.14-1.08-2.46-1.62-3.48l3.24-.72a46,46,0,0,1,2.16,4.2h16V1885Zm-7.44-28.25h21.42v-2.64H212.1Zm0,4.8h21.42v-2.64H212.1Zm0,4.85h21.42v-2.69H212.1Z"/><path d="M265.92,1849.69a98.85,98.85,0,0,1-6.18,13.56v39.59H255.9v-33.35a61.73,61.73,0,0,1-5.46,7,32.86,32.86,0,0,0-2.28-3.9c5.58-5.87,10.8-14.87,14-24Zm34.14,28c-2.1,1.26-4.44,2.64-6.84,3.78,2,6.06,5.82,11.82,10.38,14.52a11.2,11.2,0,0,0-2.64,2.94c-4.62-3.18-8.46-9.42-10.68-16a27.45,27.45,0,0,1-2.76,1.2c2.58,6.84,1.86,14-1,16.68a6.91,6.91,0,0,1-5.22,1.92c-1.08,0-2.4-.06-3.78-.18a9.31,9.31,0,0,0-1-3.42,38.26,38.26,0,0,0,4.14.24,3.66,3.66,0,0,0,3.12-1.14c1.56-1.38,2.22-5.16,1.44-9.36-5.16,4.92-13.08,9.36-19.8,11.7a15.8,15.8,0,0,0-2.34-2.82c7.62-2.28,16.62-7.14,21.3-12.24a35.76,35.76,0,0,0-1.5-3.48,63.52,63.52,0,0,1-17.22,9.9,16.14,16.14,0,0,0-2.22-2.64c5.94-1.8,13.74-5.76,17.88-9.54a16.39,16.39,0,0,0-2.94-3.18,58.44,58.44,0,0,1-13.56,7.26,11.26,11.26,0,0,0-2.22-2.58,52.48,52.48,0,0,0,15.06-7.56H267.48v-9.35c-1.14,1-2.28,2-3.54,2.94a9.54,9.54,0,0,0-2.52-2.59,44.59,44.59,0,0,0,13.86-16.25l3.84.72c-.6,1.2-1.32,2.34-2,3.54h11.1l.72-.18,2.34,1.68a52.13,52.13,0,0,1-4.8,6.84h13.08v12.65H281.94a15.29,15.29,0,0,1-1.2,1,21,21,0,0,1,5.64,6.84,111.93,111.93,0,0,0,10.92-6.42ZM275,1855.81a54.58,54.58,0,0,1-4.2,5.16h11.58a37.88,37.88,0,0,0,3.72-5.16Zm-3.9,14.69h10.5v-6.42h-10.5Zm24.72-6.42H285.18v6.42H295.8Z"/><path d="M362.94,1883.22H338.1v14c0,3-1,4.2-3.06,4.86s-5.94.72-12.3.66a17.27,17.27,0,0,0-1.74-3.9c5.16.12,9.84.06,11.16.06s1.86-.48,1.86-1.74v-13.92H309.18v-3.9H334v-10.2H313.14v-3.83H334v-9.6c-6.66.66-13.56,1.14-19.8,1.44a16.18,16.18,0,0,0-1-3.54c14.16-.72,31.8-2.28,40.74-5.16l2.94,3.24a123.25,123.25,0,0,1-18.78,3.6v10h21.48v3.83H338.1v10.2h24.84Z"/><path d="M375.6,1864.92a22.3,22.3,0,0,1-4.44,9.79,10.13,10.13,0,0,0-2.7-2.34c3.84-4.68,4.44-10.8,4.44-15.3v-6.18h20.88v9.78H376.2a19.25,19.25,0,0,1-.42,3.18h18.48v11H375.6Zm40,33.78c0,2.28-.6,3.24-2.4,3.84s-4.86.48-9.54.48a15,15,0,0,0-1.38-3.24c3.72.18,7.08.12,8,.06s1.32-.3,1.32-1.08v-6.42c-10.26,1.86-20.94,3.72-28.8,5l-1.08-3.24c7.26-1,18.9-2.58,29.88-4.2v-9.36h-30.3v7.08c0,4.92-.54,11.58-3.66,16.26a15.67,15.67,0,0,0-3.12-2.46c2.7-4.08,3-9.66,3-13.86v-9.9h38.1Zm-39.18-45.11V1858H390.3v-4.38Zm2.58,18.48h11.76v-5.53H379Zm5.52,11c7.5.72,17.7,2.16,23.1,3.3l-.78,2.7c-5.46-1.14-15.54-2.76-23.22-3.66ZM411.24,1864v3.91h10.44v2.88H411.24V1876h-3.78v-5.27H396.78v-2.88h10.68V1864H395.4V1861h7.5a21.18,21.18,0,0,0-2.1-4.44l2.94-.6a19.52,19.52,0,0,1,2.46,5h5.94a37.43,37.43,0,0,0,2.4-5l3.3.78c-.78,1.5-1.56,2.94-2.34,4.2h7.8V1864Zm10.38-8.75H396.84v-2.88h10.74a21,21,0,0,0-1.44-3.36l3.54-.72a21.07,21.07,0,0,1,1.92,4.08h10Z"/><path d="M434.88,1884c4.68-2,7.26-4.86,7.56-9.17a4,4,0,0,1-1.14.11c-2.34,0-4.26-1.32-4.26-4.07a4,4,0,0,1,4.32-4.08c3.18,0,4.86,2.58,4.86,6.66,0,6.41-4,11.21-10.08,13.43Z"/><path d="M480.78,1863.54a74.71,74.71,0,0,1-5.76,11.94h32.7v27.3h-4.14v-3.12H476.22v3.42h-4v-23.4a50.91,50.91,0,0,1-11.46,11.52,21.84,21.84,0,0,0-2.64-3.18c8.64-5.94,14.46-14.76,18.36-24.48H460.08v-3.89H477.9a86,86,0,0,0,3.12-11.34l4.14.84c-.84,3.48-1.8,7-3,10.5h30v3.89Zm-4.56,15.78v16.5h27.36v-16.5Z"/><path d="M533.22,1877.64a49.67,49.67,0,0,1-3.42,13c4,7,11.7,7.92,23.4,8,6.3,0,14.82-.24,20.82-.78a10.52,10.52,0,0,0-1.32,3.78c-5.52.3-13,.42-19.5.42-12.48,0-20.16-1.26-24.84-8.16a27.85,27.85,0,0,1-7.5,9.24,12,12,0,0,0-2.76-2.76c5.4-3.78,9.3-10.62,11.16-20h-5.82a6.33,6.33,0,0,0-3.48.84,20,20,0,0,0-1.56-3.66,5.53,5.53,0,0,0,2.76-1.74,94.39,94.39,0,0,0,7.14-10.26h-9.36v-3.29h11.58l.78-.36L534,1863c-2.34,3.59-6.6,10-9.78,14h6.54l.66-.06.18.06Zm-4.92-17.87a86.16,86.16,0,0,0-7-9.66l3-1.68a76.07,76.07,0,0,1,7.14,9.3Zm9.3,17.4h-3.54v-5.88h16.86c-.42-.91-.9-1.87-1.26-2.71H538.32V1852h10.74c.66-1.32,1.26-2.76,1.68-3.78l4.14.66c-.66,1.14-1.38,2.16-2,3.12h14.52v16.61H553.74a23.09,23.09,0,0,1,1.32,2.71h16.68v5.57h-3.66v-3.11H560.4v3c0,1.08.12,1.43,1.26,1.43h5.46a22.88,22.88,0,0,0,3.54-.24,15.51,15.51,0,0,0,.24,2.28,20,20,0,0,1-3.6.18h-7c-2.88,0-3.36-1.19-3.36-3.72v-2.93h-6.72c-1.86,4.31-6,6.29-14,7.67a7,7,0,0,0-1.68-2.28c6.84-.89,10.38-2.46,12.06-5.39h-9Zm11.94,7.85a13.56,13.56,0,0,1-.66,2.22H566a6.23,6.23,0,0,1-.24,1.44c-.84,4.14-1.74,6.18-2.94,7.08a5.16,5.16,0,0,1-3.24.9,49.5,49.5,0,0,1-6.3-.18,7.45,7.45,0,0,0-.78-2.58,50.09,50.09,0,0,0,5.82.3,3,3,0,0,0,1.86-.36c.6-.54,1.2-1.74,1.8-4H547.74c-1.92,3.12-5,5.52-10.26,7a11,11,0,0,0-2-2.7c6.66-1.74,9.42-4.86,10.62-9.12H535.2v-2.64h16.08c-.48-1.14-1.08-2.46-1.62-3.48l3.24-.72a46,46,0,0,1,2.16,4.2h16V1885Zm-7.44-28.25h21.42v-2.64H542.1Zm0,4.8h21.42v-2.64H542.1Zm0,4.85h21.42v-2.69H542.1Z"/><path d="M595.92,1849.69a98.85,98.85,0,0,1-6.18,13.56v39.59H585.9v-33.35a61.73,61.73,0,0,1-5.46,7,32.86,32.86,0,0,0-2.28-3.9c5.58-5.87,10.8-14.87,14-24Zm34.14,28c-2.1,1.26-4.44,2.64-6.84,3.78,2,6.06,5.82,11.82,10.38,14.52a11.2,11.2,0,0,0-2.64,2.94c-4.62-3.18-8.46-9.42-10.68-16a27.45,27.45,0,0,1-2.76,1.2c2.58,6.84,1.86,14-1,16.68a6.91,6.91,0,0,1-5.22,1.92c-1.08,0-2.4-.06-3.78-.18a9.31,9.31,0,0,0-1-3.42,38.26,38.26,0,0,0,4.14.24,3.66,3.66,0,0,0,3.12-1.14c1.56-1.38,2.22-5.16,1.44-9.36-5.16,4.92-13.08,9.36-19.8,11.7a15.8,15.8,0,0,0-2.34-2.82c7.62-2.28,16.62-7.14,21.3-12.24a35.76,35.76,0,0,0-1.5-3.48,63.52,63.52,0,0,1-17.22,9.9,16.14,16.14,0,0,0-2.22-2.64c5.94-1.8,13.74-5.76,17.88-9.54a16.39,16.39,0,0,0-2.94-3.18,58.44,58.44,0,0,1-13.56,7.26,11.26,11.26,0,0,0-2.22-2.58,52.48,52.48,0,0,0,15.06-7.56H597.48v-9.35c-1.14,1-2.28,2-3.54,2.94a9.54,9.54,0,0,0-2.52-2.59,44.59,44.59,0,0,0,13.86-16.25l3.84.72c-.6,1.2-1.32,2.34-2,3.54h11.1l.72-.18,2.34,1.68a52.13,52.13,0,0,1-4.8,6.84h13.08v12.65H611.94a15.29,15.29,0,0,1-1.2,1,21,21,0,0,1,5.64,6.84,111.93,111.93,0,0,0,10.92-6.42ZM605,1855.81a54.58,54.58,0,0,1-4.2,5.16h11.58a37.88,37.88,0,0,0,3.72-5.16Zm-3.9,14.69h10.5v-6.42h-10.5Zm24.72-6.42H615.18v6.42H625.8Z"/><path d="M644.88,1870.75a40.85,40.85,0,0,1-2.82,8.69,18,18,0,0,0-2.4-1.38,35.33,35.33,0,0,0,2.52-8Zm10.56-1.33c-.24-.71-.54-1.5-1-2.46-10.92,1.45-12.48,1.75-13.38,2.22a21.08,21.08,0,0,0-1-3,7.72,7.72,0,0,0,3.36-2,52.86,52.86,0,0,0,4.5-4.57c-5.28.54-6.42.85-7.08,1.09a12.68,12.68,0,0,0-1-3,3.75,3.75,0,0,0,2.22-1.44,28.08,28.08,0,0,0,5.34-7.32l3.06,1a48.11,48.11,0,0,1-5.7,7.5l5.4-.42a35.23,35.23,0,0,0,2.46-3.24l2.94,1.26a78.82,78.82,0,0,1-9.78,10.55l7.56-.89c-.54-1.08-1.14-2.22-1.74-3.24l2.34-.66a43.11,43.11,0,0,1,4,7.74Zm33.48,23a10.37,10.37,0,0,1-.3,1.74c-1,4.38-2.1,6.66-3.72,7.68-1.32.78-2.58,1-4.92,1-2.16.06-6.9,0-11.58-.36a6.11,6.11,0,0,0-1.08-2.82c4.8.42,10,.48,11.82.48a6.93,6.93,0,0,0,2.94-.36c1-.6,1.62-2,2.28-4.5H645a81.82,81.82,0,0,0,3.18-8.94h33.24v-3.18H645.06v-2.76h40.08v8.7h-34c-.42,1.2-.84,2.28-1.2,3.36Zm-40.74-14a52.9,52.9,0,0,0-1.5-7.74l2.64-.42a51.62,51.62,0,0,1,1.56,7.57Zm6.3-9.24a25.49,25.49,0,0,1,2.58,6.42l-2.52.9a26.43,26.43,0,0,0-2.34-6.59Zm19.92-12.77H657.12v-2.58h8.1a22,22,0,0,0-2.4-4.74l2.7-.84a21.87,21.87,0,0,1,2.76,5.58h6.12Zm-1.8,5.16H658.74v-2.28H672.6Zm-13.86,2.88H672.6v2.34H658.74Zm0,5.22H672.9v8.45H658.74Zm2.7,6.12h8.64V1872h-8.64Zm28.74-6.25a21.22,21.22,0,0,0-.84-2.46c-11.52,1.5-13.08,1.8-14,2.29a17.75,17.75,0,0,0-1-3c1-.06,2.28-.91,3.6-2.1a48.85,48.85,0,0,0,4.62-4.38c-5.52.6-6.72.84-7.38,1.14-.18-.66-.66-2.16-1-2.88a4.41,4.41,0,0,0,2.28-1.5,34.7,34.7,0,0,0,5.34-7.56l2.88,1.08a42.74,42.74,0,0,1-5.64,7.56l5.82-.42c1-1.2,1.92-2.34,2.82-3.6l2.82,1.32a83.68,83.68,0,0,1-10.26,10.74l8-.9c-.54-1.08-1.14-2-1.68-3l2.34-.79a31.16,31.16,0,0,1,3.72,7.5ZM679.5,1871a39.25,39.25,0,0,1-2.58,8.28,15.69,15.69,0,0,0-2.4-1.44,27.41,27.41,0,0,0,2.16-7.43Zm3.3,7.44a35.29,35.29,0,0,0-1.38-7.68l2.52-.47a33.88,33.88,0,0,1,1.56,7.55Zm6.84-9a45,45,0,0,1,2.7,7.37l-2.58.78a32.56,32.56,0,0,0-2.46-7.43Z"/><path d="M750.06,1860.31v42.47h-3.9v-3.66H706v4h-3.78v-42.77h14.4V1849h3.9v11.34H731V1849h3.9v11.34Zm-44.1,3.9v13.43h10.62v-13.43Zm0,31h10.62v-13.74H706Zm14.52-31v13.43H731v-13.43Zm0,17.27v13.74H731v-13.74Zm14.46-17.27v13.43h11.22v-13.43Zm11.22,31v-13.74H734.94v13.74Z"/><path d="M775,1849c-1,2.94-2.1,6.3-3.18,8.88H782v38.75h-16.8v4.8h-3.66v-43.55h6.66a64.68,64.68,0,0,0,2.58-9.72Zm3.3,12.47H765.18v13.08h13.14Zm0,31.56v-14.88H765.18v14.88Zm33.06-33.17c-1,27.53-1.8,36.71-4.2,39.59a5.6,5.6,0,0,1-4.56,2.28,74.94,74.94,0,0,1-8.82-.12,9.42,9.42,0,0,0-1.32-3.9c3.9.36,7.5.36,8.82.36s1.92-.12,2.52-.9c2-2.1,2.94-11.34,3.72-35.7H791.82a55.33,55.33,0,0,1-5.64,10.68,36.22,36.22,0,0,0-3.36-2.22c4.08-5.34,7.32-13.61,9.18-21.89l3.84.84c-.78,3-1.62,6-2.64,8.88h18.18Zm-12.78,27a106.51,106.51,0,0,0-9.3-13.92l3.06-1.79a102.47,102.47,0,0,1,9.6,13.61Z"/><path d="M872.1,1869.67a68,68,0,0,1-9.84,11.21v16.32c0,3-.66,4.38-2.82,5.1s-6.06.72-12.18.66a16.43,16.43,0,0,0-1.5-4.14c4.86.18,9.48.12,10.74.06s1.8-.42,1.8-1.68v-12.9c-10.32,8.22-23,14.1-36.72,18.12a19.65,19.65,0,0,0-2.58-3.54c11.82-3.12,22.8-7.8,31.92-14-11.4.9-22.62,1.86-30.78,2.4l-.66-4c2.76-.12,5.94-.3,9.42-.48v-28.43h12.24a54.28,54.28,0,0,0,2.58-6.12l4.68.78a57.5,57.5,0,0,1-2.94,5.34h16.8v21a52.63,52.63,0,0,0,6.12-7.55Zm-39.3-11.82v5.88h25.5v-5.88Zm25.5,9H832.8v6h25.5Zm-25.5,15.66c7.14-.42,15.24-.9,23.28-1.44.72-.66,1.5-1.26,2.22-1.92v-3.23H832.8Z"/><path d="M932.94,1879H908.22v18.6c0,2.82-.72,4-2.88,4.68s-5.94.78-11.7.78a17.7,17.7,0,0,0-1.8-4.14c5,.18,9.36.18,10.68.12s1.62-.42,1.62-1.5V1879h-25v-4h25v-8.75a74.47,74.47,0,0,0,15.72-9.84H885.18v-3.9h39l.84-.24,3,2.28a90,90,0,0,1-19.8,13.79V1875h24.72Z"/><path d="M959.52,1881.06l-3.66,3.12a93.63,93.63,0,0,0-13.32-13.38l3.42-3.11A118.53,118.53,0,0,1,959.52,1881.06Z"/><path d="M990.78,1863.54a74.71,74.71,0,0,1-5.76,11.94h32.7v27.3h-4.14v-3.12H986.22v3.42h-4v-23.4a50.91,50.91,0,0,1-11.46,11.52,21.84,21.84,0,0,0-2.64-3.18c8.64-5.94,14.46-14.76,18.36-24.48H970.08v-3.89H987.9a86,86,0,0,0,3.12-11.34l4.14.84c-.84,3.48-1.8,7-3,10.5h30v3.89Zm-4.56,15.78v16.5h27.36v-16.5Z"/><path d="M1044.3,1898.46c0,2-.42,3.12-1.62,3.72s-3.24.72-6.42.72a14.26,14.26,0,0,0-1.14-3.54c2.34.06,4.26.06,4.92,0s.9-.18.9-1v-17.22c-1.56,1.32-3.06,2.64-4.62,3.9l-1.62-3c-.42,7.26-1.38,14.94-3.6,20.88a15.61,15.61,0,0,0-2.94-1.68c3.24-8.52,3.48-20.58,3.48-29.28v-21.47h12.66Zm-9.36-26.46c0,2.94-.06,6.3-.24,9.84,1.74-1.08,3.9-2.7,6.24-4.38v-8.09l-1.62,1.31a38.55,38.55,0,0,0-4.38-5.76Zm0-17.75v9.9l1.86-1.26a42.57,42.57,0,0,1,4.14,4.73v-13.37Zm24.06,7.14c-.24.84-.54,1.61-.78,2.46,3.72,4.73,8.1,10.86,10,14.63l-2.7,2.16a93.59,93.59,0,0,0-8.76-13.49,39.5,39.5,0,0,1-9.12,13.43,13.73,13.73,0,0,0-2.64-2.52c4.68-3.89,8.64-10.56,10.62-17.57Zm-3.66-10.92a43.07,43.07,0,0,1-7.08,14.4,16.68,16.68,0,0,0-2.76-2.1c2.88-3.24,5.16-8.16,6.48-13Zm-6.12,29.15h15.24V1902h-3.3v-3.48h-8.76v3.72h-3.18Zm3.18,3.6V1895h8.76v-11.76Zm12-19a61.47,61.47,0,0,0-6.24-13.5l2.94-1c2.64,4.2,5.46,9.78,6.42,13.2Zm16.74,24.71c0,1.8-.3,2.82-1.5,3.42s-2.94.66-5.46.66a11.14,11.14,0,0,0-1.14-3.36c1.92.06,3.6.06,4.08,0s.72-.18.72-.78v-33.59h-5.94V1903h-3.18v-51.17h12.42Z"/><path d="M1101.18,1866.67a9.06,9.06,0,1,1-9.06,9A9.09,9.09,0,0,1,1101.18,1866.67Zm0,15.23a6.18,6.18,0,0,0,0-12.36,6.18,6.18,0,0,0,0,12.36Z"/><path d="M522.9,1937.17c4.44,10.31,12.24,20,20.76,24.71a23.11,23.11,0,0,0-3.06,3.36c-9-5.58-16.92-16.32-21.6-28.07h-1v22.43h14.28v4H518V1975H513.9v-11.4H499.68v-4H513.9v-22.43h-1.08c-4.74,11.75-12.66,22.43-21.3,28.25a24.18,24.18,0,0,0-2.88-3.18c8-4.92,15.66-14.76,20.16-25.07H490.14v-4H513.9v-12.72H518v12.72h24v4Z"/><path d="M597.9,1959.54a33.64,33.64,0,0,1-8.22,7.38c2.4,2.82,5.22,4.44,8.16,4.38,1.68-.06,2.16-1.5,2.46-5.94a10.31,10.31,0,0,0,3.12,1.62c-.6,6.3-2.1,7.92-5.76,8-4.26,0-8.16-2.22-11.28-6a74.41,74.41,0,0,1-13.68,5.82,36.46,36.46,0,0,0-2.1-3.24,65.61,65.61,0,0,0,13.86-5.34,34.94,34.94,0,0,1-3.84-8.82H566.16v4.38l11.16-1-.06,2.88-11.1,1.08v6.12c0,2.1-.48,3.06-2.16,3.54s-4.38.54-8.94.54a19.42,19.42,0,0,0-1.26-3.18c3.36.12,6.48.06,7.38,0s1.2-.24,1.2-1v-5.7c-4.74.48-9.12.9-12.72,1.2l-.42-3.3c3.54-.24,8.1-.54,13.14-1v-4.68h-12.9v-3.18h12.9v-4.44c-3.78.42-7.68.72-11.28.91a12,12,0,0,0-.9-2.71c8.16-.48,18.18-1.55,23.52-2.94l2.52,2.58c-2.82.66-6.36,1.26-10.08,1.74v4.86h13.68a52.67,52.67,0,0,1-1.2-8.94h3.84a57.48,57.48,0,0,0,1.2,8.94h19v3.18H584.58a31.91,31.91,0,0,0,3.12,6.9,27.09,27.09,0,0,0,6.72-5.94Zm4.62-15.17h-53v-3.25H573.9V1937H555.3v-3.06h18.6v-4H552.06v-3.18h12.66a30,30,0,0,0-3.48-5.16l3.42-1.26a24.4,24.4,0,0,1,4.32,6.24l-.42.18H583.2a54.7,54.7,0,0,0,3.6-6.6l4.14,1.2c-1.2,1.86-2.52,3.84-3.72,5.4h12.84V1930H577.92v4h18.9V1937h-18.9v4.13h24.6Zm-5.7,9a34,34,0,0,0-9.48-5.52l2.16-2.46a38.32,38.32,0,0,1,9.66,5.22Z"/><path d="M638.46,1969.62a70.7,70.7,0,0,0,7.38.36c2.1.06,14.76,0,17.58-.06a16.36,16.36,0,0,0-1.44,3.84H645.72c-12.3,0-19.92-1.92-24.72-10.38a31.55,31.55,0,0,1-9.48,11.7,19.84,19.84,0,0,0-3.06-2.82c6.3-4.14,10.2-10.92,11.82-19.86l4,.6a55.92,55.92,0,0,1-1.5,6.06c2.34,5.64,6.3,8.52,11.7,9.84v-18.54H609.72v-3.6H662.4v3.6H638.46v7.08h20v3.6h-20Zm17.22-27.17h-39.6v-19.56h39.6Zm-4-16.44H620v5.16h31.68Zm0,8.1H620v5.27h31.68Z"/><path d="M698.28,1920.55c-.06,2.1-.12,5.1-.42,8.64.9,7,4.56,32.51,25.74,42a12.63,12.63,0,0,0-2.88,3.36c-15.42-7.26-21.72-22.74-24.6-34-2.64,12.23-8.94,26.33-24.06,34.19a13.77,13.77,0,0,0-3.12-3.06c25-12.48,24.78-42.11,25-51.11Z"/><path d="M741.18,1938.67a9.06,9.06,0,1,1-9.06,9A9.09,9.09,0,0,1,741.18,1938.67Zm0,15.23a6.18,6.18,0,1,0,0-12.36,6.18,6.18,0,1,0,0,12.36Z"/><path d="M140,1995.49H125.22v35.15h-4v-38.87H140Z"/><path d="M173.28,1992.55c-.06,2.1-.12,5.1-.42,8.64.9,7,4.56,32.51,25.74,42a12.63,12.63,0,0,0-2.88,3.36c-15.42-7.26-21.72-22.74-24.6-34-2.64,12.23-8.94,26.33-24.06,34.19a13.77,13.77,0,0,0-3.12-3.06c25-12.48,24.78-42.11,25-51.11Z"/><path d="M202,2043.84h14.82v-35.15h4v38.87H202Z"/><path d="M254.16,2005.62a67.64,67.64,0,0,1-7.2,12.25v28.85h-4v-24a41.57,41.57,0,0,1-7.26,6.41,17,17,0,0,0-2-3.48c7-5,12.3-12.23,16.14-20H235v-3.83h16.44a65.25,65.25,0,0,0,3.3-9.42l4.08,1c-.9,2.82-1.86,5.64-3,8.4H287.1v3.83Zm32.94,36.24v3.72H251v-3.72h16v-17.52H253.32v-3.72H267v-11.81h4v11.81h13.8v3.72H271v17.52Z"/><path d="M314.52,2007.12c-3.48,13.74-9,27.06-18.84,36.12a31.63,31.63,0,0,0-2.64-3.12c9-8.1,14.22-20.33,17.46-33H295.32v-3.89h16.14c.78-3.66,1.44-7.32,2-10.86l4,.54c-.54,3.36-1.2,6.84-2,10.32h31.08v3.89Zm33.18,34.2v3.84H304.92v-3.84h19.74v-18.54H311v-3.84h33.84v3.84H328.74v18.54Z"/><path d="M368.22,2021.64a49.67,49.67,0,0,1-3.42,13c4,7,11.7,7.92,23.4,8,6.3,0,14.82-.24,20.82-.78a10.52,10.52,0,0,0-1.32,3.78c-5.52.3-13,.42-19.5.42-12.48,0-20.16-1.26-24.84-8.16a27.85,27.85,0,0,1-7.5,9.24,12,12,0,0,0-2.76-2.76c5.4-3.78,9.3-10.62,11.16-20h-5.82a6.33,6.33,0,0,0-3.48.84,20,20,0,0,0-1.56-3.66,5.53,5.53,0,0,0,2.76-1.74,94.39,94.39,0,0,0,7.14-10.26h-9.36v-3.29h11.58l.78-.36L369,2007c-2.34,3.59-6.6,10-9.78,14h6.54l.66-.06.18.06Zm-4.92-17.87a86.16,86.16,0,0,0-7-9.66l3-1.68a76.07,76.07,0,0,1,7.14,9.3Zm9.3,17.4h-3.54v-5.88h16.86c-.42-.91-.9-1.87-1.26-2.71H373.32V1996h10.74c.66-1.32,1.26-2.76,1.68-3.78l4.14.66c-.66,1.14-1.38,2.16-2,3.12h14.52v16.61H388.74a23.09,23.09,0,0,1,1.32,2.71h16.68v5.57h-3.66v-3.11H395.4v3c0,1.08.12,1.43,1.26,1.43h5.46a22.88,22.88,0,0,0,3.54-.24,15.51,15.51,0,0,0,.24,2.28,20,20,0,0,1-3.6.18h-7c-2.88,0-3.36-1.19-3.36-3.72v-2.93h-6.72c-1.86,4.31-6,6.29-14,7.67a7,7,0,0,0-1.68-2.28c6.84-.89,10.38-2.46,12.06-5.39h-9Zm11.94,7.85a13.56,13.56,0,0,1-.66,2.22H401a6.23,6.23,0,0,1-.24,1.44c-.84,4.14-1.74,6.18-2.94,7.08a5.16,5.16,0,0,1-3.24.9,49.5,49.5,0,0,1-6.3-.18,7.45,7.45,0,0,0-.78-2.58,50.09,50.09,0,0,0,5.82.3,3,3,0,0,0,1.86-.36c.6-.54,1.2-1.74,1.8-4H382.74c-1.92,3.12-5,5.52-10.26,7a11,11,0,0,0-2-2.7c6.66-1.74,9.42-4.86,10.62-9.12H370.2v-2.64h16.08c-.48-1.14-1.08-2.46-1.62-3.48l3.24-.72a46,46,0,0,1,2.16,4.2h16V2029Zm-7.44-28.25h21.42v-2.64H377.1Zm0,4.8h21.42v-2.64H377.1Zm0,4.85h21.42v-2.69H377.1Z"/><path d="M464.58,2027.76s-.06,1.2-.12,1.68c-.66,10.38-1.44,14.46-2.82,16a5,5,0,0,1-3.66,1.5,64.41,64.41,0,0,1-7.38-.12,8.55,8.55,0,0,0-1-3.54,67.23,67.23,0,0,0,6.72.3c1,.06,1.56,0,2-.54.9-.9,1.5-4.08,2.1-11.88H427.62a57.35,57.35,0,0,1-11.34,7,23.27,23.27,0,0,0-2.4-3.18c6.24-2.46,12.48-6.42,16.32-11.21h-7.32V2007a95.78,95.78,0,0,0,14-4l2.52,2.57a86.18,86.18,0,0,1-12.9,3.42v4.38h11.88v2.95H426.54v4.38H455.4v-4.38H443.7v-2.95h11.7v-4.31H442.68v-3h16.44v17.64H434.64a30.4,30.4,0,0,1-3.36,4Zm1.74-30.41v10.26h-3.78v-6.72H419.46v6.72h-3.72v-10.26h23.1a26.82,26.82,0,0,0-2.1-4.14l4-1.14a37.25,37.25,0,0,1,2.82,5.28Zm-44.76,46.49c2.46-2.7,4.56-7.32,5.7-10.74l3.18,1.32c-1.26,3.54-3.18,8.1-5.7,11Zm14.88-10.32a34.63,34.63,0,0,1,2.28,10.38l-3.3.54a36.17,36.17,0,0,0-2.1-10.5Zm7.32-.48a30.42,30.42,0,0,1,4.26,9.18l-3.06,1a35.24,35.24,0,0,0-4.08-9.36Zm10,7.68a28.22,28.22,0,0,0-5.34-6.9l2.7-1.26a25.16,25.16,0,0,1,5.4,6.6Z"/><path d="M492.36,1993.75a105.89,105.89,0,0,1-6.18,12.9v40.25h-4v-34.07a58.5,58.5,0,0,1-6.36,7.67,22.37,22.37,0,0,0-2.34-3.9c6-5.81,11.64-14.81,15.06-24Zm17.22,12.48v9H527.1v3.72H509.58v9.48h18.3v3.78h-18.3V2047h-4v-40.73h-4.44a65.13,65.13,0,0,1-8.64,12.65,28.89,28.89,0,0,0-3.12-2.7c5.46-5.57,10.32-14.27,13.26-23l3.84,1c-1,2.82-2.22,5.58-3.42,8.28h25.38v3.84Z"/><path d="M560,1995.49H545.22v35.15h-4v-38.87H560Z"/><path d="M589.38,1993.57a108.68,108.68,0,0,1-7.92,13.55v39.78h-3.9v-34.49a90.86,90.86,0,0,1-11.7,12.47,23.25,23.25,0,0,0-2.7-3.42c8.76-7,17.1-17.93,22.44-29.21Z"/><path d="M622,2043.84h14.82v-35.15h4v38.87H622Z"/><path d="M659.88,2028c4.68-2,7.26-4.86,7.56-9.17a4,4,0,0,1-1.14.11c-2.34,0-4.26-1.32-4.26-4.07a4,4,0,0,1,4.32-4.08c3.18,0,4.86,2.58,4.86,6.66,0,6.41-4,11.21-10.08,13.43Z"/><path d="M704.16,2005.62a67.64,67.64,0,0,1-7.2,12.25v28.85h-4v-24a41.57,41.57,0,0,1-7.26,6.41,17,17,0,0,0-2-3.48c7-5,12.3-12.23,16.14-20H685v-3.83h16.44a65.25,65.25,0,0,0,3.3-9.42l4.08,1c-.9,2.82-1.86,5.64-3,8.4H737.1v3.83Zm32.94,36.24v3.72H701v-3.72h16v-17.52H703.32v-3.72H717v-11.81h4v11.81h13.8v3.72H721v17.52Z"/><path d="M772,2000.71v10.86l.66-.78c7.32,3.54,16.74,8.93,21.54,12.53l-2.76,3.6c-4.2-3.42-12.48-8.46-19.44-12.12v32.1h-4.2v-46.19H744.54v-4h53v4Z"/><path d="M832.62,2000.23c-.72,2.64-1.62,5.52-2.46,7.92h24.3V2047h-4v-3.18H811.38V2047h-3.9v-38.87h18.6a80.35,80.35,0,0,0,1.92-7.92H804.78v-3.78H857.4v3.78Zm-21.24,39.89h9v-28.25h-9Zm26-28.25H824v7h13.32Zm0,10.31H824v7.2h13.32ZM824,2040.12h13.32v-7.44H824Zm26.4-28.25H841v28.25h9.42Z"/><path d="M914.58,2027.76s-.06,1.2-.12,1.68c-.66,10.38-1.44,14.46-2.82,16a5,5,0,0,1-3.66,1.5,64.41,64.41,0,0,1-7.38-.12,8.55,8.55,0,0,0-1-3.54,67.23,67.23,0,0,0,6.72.3c1,.06,1.56,0,2-.54.9-.9,1.5-4.08,2.1-11.88H877.62a57.35,57.35,0,0,1-11.34,7,23.27,23.27,0,0,0-2.4-3.18c6.24-2.46,12.48-6.42,16.32-11.21h-7.32V2007a95.78,95.78,0,0,0,14-4l2.52,2.57a86.18,86.18,0,0,1-12.9,3.42v4.38h11.88v2.95H876.54v4.38H905.4v-4.38H893.7v-2.95h11.7v-4.31H892.68v-3h16.44v17.64H884.64a30.4,30.4,0,0,1-3.36,4Zm1.74-30.41v10.26h-3.78v-6.72H869.46v6.72h-3.72v-10.26h23.1a26.82,26.82,0,0,0-2.1-4.14l4-1.14a37.25,37.25,0,0,1,2.82,5.28Zm-44.76,46.49c2.46-2.7,4.56-7.32,5.7-10.74l3.18,1.32c-1.26,3.54-3.18,8.1-5.7,11Zm14.88-10.32a34.63,34.63,0,0,1,2.28,10.38l-3.3.54a36.17,36.17,0,0,0-2.1-10.5Zm7.32-.48a30.42,30.42,0,0,1,4.26,9.18l-3.06,1a35.24,35.24,0,0,0-4.08-9.36Zm10,7.68a28.22,28.22,0,0,0-5.34-6.9l2.7-1.26a25.16,25.16,0,0,1,5.4,6.6Z"/><path d="M942.36,1993.75a105.89,105.89,0,0,1-6.18,12.9v40.25h-4v-34.07a58.5,58.5,0,0,1-6.36,7.67,22.37,22.37,0,0,0-2.34-3.9c6-5.81,11.64-14.81,15.06-24Zm17.22,12.48v9H977.1v3.72H959.58v9.48h18.3v3.78h-18.3V2047h-4v-40.73h-4.44a65.13,65.13,0,0,1-8.64,12.65,28.89,28.89,0,0,0-3.12-2.7c5.46-5.57,10.32-14.27,13.26-23l3.84,1c-1,2.82-2.22,5.58-3.42,8.28h25.38v3.84Z"/><path d="M1010,1995.49H995.22v35.15h-4v-38.87H1010Z"/><path d="M1030.74,1994.83v19.38c0,12.11-1.5,24.29-14.7,32.87a14.85,14.85,0,0,0-2.82-3.06c12.18-7.86,13.62-19,13.62-29.81v-19.38Zm22.32-.06v44.57c0,2.76.42,3.24,2.4,3.24h6.6c2.16,0,2.52-2.58,2.76-12.66a9.67,9.67,0,0,0,3.72,1.8c-.42,11-1.32,14.64-6.24,14.64H1055c-4.62,0-5.94-1.5-5.94-7.08v-44.51Z"/><path d="M1072,2043.84h14.82v-35.15h4v38.87H1072Z"/><path d="M1116.18,2010.67a9.06,9.06,0,1,1-9.06,9A9.09,9.09,0,0,1,1116.18,2010.67Zm0,15.23a6.18,6.18,0,0,0,0-12.36,6.18,6.18,0,0,0,0,12.36Z"/><rect class="cls-2" x="1113" y="425" width="65" height="126" rx="12"/><path class="cls-1" d="M1132.7,454.82c1.25,1.6,4.9,6.7,5.7,8.05l-2,2.45c-.7-1.5-2.35-4.4-3.75-6.65V485h-3.15V460.57c-1.5,5.05-3.5,9.9-5.55,12.85a14.83,14.83,0,0,0-1.75-3.1c2.9-4,5.8-11.5,7.2-18h-6.2v-3.15h6.3v-9.65h3.15v9.65h5.45v3.15h-5.45Zm19.1.7a19.47,19.47,0,0,0,.45,2.65c-10.15,2.7-11.6,3.15-12.5,3.75a12.13,12.13,0,0,0-1.1-3.2c.7-.2,1.55-.5,1.55-2.2v-16.7h3.25v6.5h8.35v2.9h-8.35v8.3Zm2.35,5.5-2,3.75h12.65V485h-3.4v-1.75h-17v2h-3.3V464.77h7.9c.55-1.5,1.2-3.25,1.55-4.6Zm7.3,6.5h-17v5.05h17Zm0,13v-5.3h-17v5.3Zm2.25-22.4c1.25,0,1.5-.75,1.65-5.25a9.16,9.16,0,0,0,2.85,1.25c-.3,5.45-1.2,6.95-4.15,6.95h-5.85c-3.65,0-4.55-.95-4.55-4.45V439.87h3.25v6.5h10.2v2.9h-10.2v7.35c0,1.3.25,1.5,1.65,1.5Z"/><path class="cls-1" d="M1167.55,514.87v2.5H1123.4v-2.5h20.25v-3.2H1126.8v-2.3h16.85v-3H1128.2v-2.25h15.45v-3.2H1123.5v-2.5h20.15v-3.05H1128.8V493h14.85v-3.55h3.25V493h14.45v5.4h6.15v2.5h-6.15v5.45H1146.9v3h17.3v2.3h-17.3v3.2Zm-37.75,5h31.75v15.25h-3.25v-1.6H1133v1.7h-3.2Zm3.2,2.4v3.2h25.3v-3.2Zm25.3,8.85v-3.4H1133v3.4Zm-11.4-32.7h11.15v-3.05H1146.9Zm0,5.7h11.15v-3.2H1146.9Z"/><rect class="cls-2" x="1113" y="1221" width="65" height="221" rx="12"/><path class="cls-1" d="M1158.05,1260.79a27.61,27.61,0,0,0,11.5,8.1,11.65,11.65,0,0,0-2.15,2.55,30.77,30.77,0,0,1-12.8-10.65h-15.95a34.39,34.39,0,0,1-13,11.3,11.43,11.43,0,0,0-2.15-2.55,30.39,30.39,0,0,0,11.6-8.75H1124v-2.85h10v-16.15h-7.7V1239h7.7v-5h3.3v5h18.55v-5h3.35v5h7.65v2.8h-7.65v16.15h9.8v2.85Zm-10,14.5h17.3v2.85H1127.8v-2.85h16.9v-5.6h-10.45v-2.8h10.45v-4.4h3.35v4.4h10.65v2.8h-10.65Zm-10.8-33.5v3.6h18.55v-3.6Zm0,9.8h18.55v-3.65h-18.55Zm0,6.35h18.55v-3.8h-18.55Z"/><path class="cls-1" d="M1142.25,1302.54s0,1.15,0,1.55c-.6,15.85-1.2,21.2-2.6,23a3.71,3.71,0,0,1-2.8,1.45,32.65,32.65,0,0,1-4.45,0,9.25,9.25,0,0,0-.85-3c1.75.15,3.2.15,3.9.15a1.42,1.42,0,0,0,1.45-.65c1-1.2,1.6-6,2.15-19.35h-6.8c-.55,10-2,18.25-6.45,23.65a9.53,9.53,0,0,0-2.55-2.35c5.45-6.45,5.9-17.85,6.1-31.55h-5.2v-3.1h20.1v3.1h-11.65c0,2.45-.1,4.85-.2,7.15Zm-7.9-10.45a33.47,33.47,0,0,0-4.25-7.15l2.9-1.15a31.92,31.92,0,0,1,4.4,7Zm23.85-7.45a15.26,15.26,0,0,1-.85,2.55c2.65,5.45,7.7,11.35,12.45,14a13,13,0,0,0-2.45,2.75c-4.25-2.7-8.5-8-11.4-13.3a32.61,32.61,0,0,1-11,13.6,12.79,12.79,0,0,0-2.35-2.65c5.85-3.6,10.35-10.2,12.5-17.85Zm-8.3,32.45a74,74,0,0,1,13.6,8.25l-2.25,2.9c-2.85-2.6-8.75-6.3-13.4-8.65Zm9.5-4.85a66.22,66.22,0,0,0-8.6-6.85l2.15-2.2a67.46,67.46,0,0,1,8.75,6.55Z"/><path class="cls-1" d="M1135.5,1347c-1.6,7.2-4.55,16.15-9.1,21.7a19.23,19.23,0,0,0-3.1-1.8c4.55-5.25,7.3-13.85,8.55-20.55Zm12.9-12.3v40c0,2.55-.7,3.6-2.35,4.2s-4.8.6-9.4.6a15.62,15.62,0,0,0-1.4-3.45c3.7.1,7.3.1,8.25.05s1.45-.35,1.45-1.4v-40ZM1160,1346c4.45,7,8.7,16.1,10,22l-3.45,1.45c-1.25-5.85-5.25-15.15-9.6-22.3Z"/><path class="cls-1" d="M1164.65,1411.74a72.75,72.75,0,0,1-7.65,3.65,19.75,19.75,0,0,0,12.1,9.55,10.66,10.66,0,0,0-2.1,2.6,22.77,22.77,0,0,1-12.5-11.1c-1.1.45-2.15.85-3.2,1.2,1.5,4.4.7,8.7-1.6,10.35a6,6,0,0,1-4.25,1.3c-1,0-2.25,0-3.55-.1a5.77,5.77,0,0,0-.9-2.85,30,30,0,0,0,4,.2,4.12,4.12,0,0,0,2.7-.65c1.35-1,1.9-3.75,1-6.9-5.55,3.7-14.45,7-22,8.45a11,11,0,0,0-1.45-2.4c8-1.1,17.65-4.65,22.65-8.35a13.35,13.35,0,0,0-1.25-2.15,69.47,69.47,0,0,1-17.55,6.35,7.59,7.59,0,0,0-1.4-2.15c5.8-1,13.4-3.4,17.7-5.85-.6-.55-1.25-1.15-2-1.7a80,80,0,0,1-15.25,4.15,16.41,16.41,0,0,0-1.55-2.2c5.7-.75,12.15-2.15,16.75-4.15h-18.55v-2.55h28c.3-.9.55-1.8.9-2.75h-21.7c1.25-2.8,3-7,4-10.25l3,.5a42,42,0,0,0-3.4-3.25l2-1.15h-6.25a29.23,29.23,0,0,1-5.1,5.6,25.27,25.27,0,0,0-2.35-2.2,26.89,26.89,0,0,0,7.5-9.35l3,.85c-.45.9-1,1.75-1.4,2.65h13.45v2.45h-8.3a44.9,44.9,0,0,1,4,3.65l-2.45,1.6a4.8,4.8,0,0,0-.7-.75c-.2.65-.45,1.25-.65,2h17.75l.6-.2,2.25.5c-.8,3.15-1.9,7-3,10.15h12V1409h-20.25c-.6.35-1.2.7-1.85,1a16.36,16.36,0,0,1,4.4,5.35,90.1,90.1,0,0,0,11.6-5.5Zm-10.2-10.3c.35-1.15.65-2.2,1-3.2h-17.7c-.45,1.15-.9,2.2-1.3,3.2Zm14.75-14.3v2.45h-16.6a28.84,28.84,0,0,1-4.55,5.15,15.06,15.06,0,0,0-2.55-2,21.57,21.57,0,0,0,6.7-9.1l3.1.8a26.43,26.43,0,0,1-1.25,2.7Zm-7.9,8a32.47,32.47,0,0,0-3.9-4.25l2.3-1.25a30.14,30.14,0,0,1,4,4Z"/><path d="M594.2,1016.31q3.31,2.4,6.56,4.89l-5.16-4a276.19,276.19,0,0,1,48.7,49l-4-5.17C659,1085.21,674,1112,685.85,1140l-2.57-6.09c16.08,38.15,26.41,78.65,33.8,119.31q3.34,18.48,5.83,37.08l-.91-6.77c6.11,45.9,8.52,92.21,8.71,138.49.2,46.6-1.84,93.18-4.63,139.69-1.55,25.86-3.34,51.71-5.11,77.56-.43,6.25,3.15,13.71,7.47,18s11.68,7.75,18,7.47c6.6-.3,13.44-2.46,18-7.47a28.08,28.08,0,0,0,7.47-18c3.23-47.16,6.52-94.33,8.33-141.57,1.83-47.58,2.17-95.26-.58-142.81-2.84-48.87-8.84-97.79-19.64-145.57-9.87-43.69-23.92-86.59-45-126.23-19.68-37-46-71.67-78.6-98.15q-8.09-6.57-16.53-12.69c-5.06-3.66-13.88-4.16-19.65-2.57s-12.33,6.2-15.24,11.72c-3.13,5.92-4.69,13.09-2.57,19.65s6.06,11.15,11.72,15.24Z"/><line class="cls-3" x1="605.74" y1="994.75" x2="418.32" y2="1327.17"/></svg>