<svg id="Layer_1" data-name="Layer 1" xmlns="http://www.w3.org/2000/svg" viewBox="0 0 1242 2208"><defs><style>.cls-1{fill:#f6eabe;}.cls-2{fill:#999;}.cls-3{fill:none;stroke:#000;stroke-linecap:round;stroke-miterlimit:10;stroke-width:50px;}</style></defs><rect class="cls-1" width="1242" height="2208"/><path d="M898.1,778.2c28.59,0,32.56-24.62,36.53-131,13.49,10.32,35.73,20.64,51.61,24.61-6.36,119.89-20.65,159.59-84.17,159.59H787.74c-65.9,0-85-20.64-85-93.69V251H509.84V387.55c0,153.24-21.44,331.1-216,458.13-7.94-12.7-24.62-32.55-38.12-41.28C437.59,686.09,455.85,524.12,455.85,386.76V251H281.17v-52.4H961.62V251H759.16V738.5c0,33.34,5.55,39.7,34.93,39.7Z"/><path d="M325.92,1777.69a98.85,98.85,0,0,1-6.18,13.56v39.59H315.9v-33.35a61.73,61.73,0,0,1-5.46,7,32.86,32.86,0,0,0-2.28-3.9c5.58-5.87,10.8-14.87,14-24Zm34.14,28c-2.1,1.26-4.44,2.64-6.84,3.78,2,6.06,5.82,11.82,10.38,14.52a11.2,11.2,0,0,0-2.64,2.94c-4.62-3.18-8.46-9.42-10.68-16a27.45,27.45,0,0,1-2.76,1.2c2.58,6.84,1.86,14-1,16.68a6.91,6.91,0,0,1-5.22,1.92c-1.08,0-2.4-.06-3.78-.18a9.31,9.31,0,0,0-1-3.42,38.26,38.26,0,0,0,4.14.24,3.66,3.66,0,0,0,3.12-1.14c1.56-1.38,2.22-5.16,1.44-9.36-5.16,4.92-13.08,9.36-19.8,11.7a15.8,15.8,0,0,0-2.34-2.82c7.62-2.28,16.62-7.14,21.3-12.24a35.76,35.76,0,0,0-1.5-3.48,63.52,63.52,0,0,1-17.22,9.9,16.14,16.14,0,0,0-2.22-2.64c5.94-1.8,13.74-5.76,17.88-9.54a16.39,16.39,0,0,0-2.94-3.18,58.44,58.44,0,0,1-13.56,7.26,11.26,11.26,0,0,0-2.22-2.58,52.48,52.48,0,0,0,15.06-7.56H327.48v-9.35c-1.14,1-2.28,2-3.54,2.94a9.54,9.54,0,0,0-2.52-2.59,44.59,44.59,0,0,0,13.86-16.25l3.84.72c-.6,1.2-1.32,2.34-2,3.54h11.1l.72-.18,2.34,1.68a52.13,52.13,0,0,1-4.8,6.84h13.08v12.65H341.94a15.29,15.29,0,0,1-1.2,1,21,21,0,0,1,5.64,6.84,111.93,111.93,0,0,0,10.92-6.42ZM335,1783.81a54.58,54.58,0,0,1-4.2,5.16h11.58a37.88,37.88,0,0,0,3.72-5.16Zm-3.9,14.69h10.5v-6.42h-10.5Zm24.72-6.42H345.18v6.42H355.8Z"/><path d="M389.16,1789.62a67.64,67.64,0,0,1-7.2,12.25v28.85h-4v-24a41.57,41.57,0,0,1-7.26,6.41,17,17,0,0,0-2-3.48c7-5,12.3-12.23,16.14-20H370v-3.83h16.44a65.25,65.25,0,0,0,3.3-9.42l4.08,1c-.9,2.82-1.86,5.64-3,8.4H422.1v3.83Zm32.94,36.24v3.72H386v-3.72h16v-17.52H388.32v-3.72H402v-11.81h4v11.81h13.8v3.72H406v17.52Z"/><path d="M458.28,1776.55c-.06,2.1-.12,5.1-.42,8.64.9,7,4.56,32.51,25.74,42a12.63,12.63,0,0,0-2.88,3.36c-15.42-7.26-21.72-22.74-24.6-34-2.64,12.23-8.94,26.33-24.06,34.19a13.77,13.77,0,0,0-3.12-3.06c25-12.48,24.78-42.11,25-51.11Z"/><path d="M505,1777c-1,2.94-2.1,6.3-3.18,8.88H512v38.75h-16.8v4.8h-3.66v-43.55h6.66a64.68,64.68,0,0,0,2.58-9.72Zm3.3,12.47H495.18v13.08h13.14Zm0,31.56v-14.88H495.18v14.88Zm33.06-33.17c-1,27.53-1.8,36.71-4.2,39.59a5.6,5.6,0,0,1-4.56,2.28,74.94,74.94,0,0,1-8.82-.12,9.42,9.42,0,0,0-1.32-3.9c3.9.36,7.5.36,8.82.36s1.92-.12,2.52-.9c2-2.1,2.94-11.34,3.72-35.7H521.82a55.33,55.33,0,0,1-5.64,10.68,36.22,36.22,0,0,0-3.36-2.22c4.08-5.34,7.32-13.61,9.18-21.89l3.84.84c-.78,3-1.62,6-2.64,8.88h18.18Zm-12.78,27a106.51,106.51,0,0,0-9.3-13.92l3.06-1.79a102.47,102.47,0,0,1,9.6,13.61Z"/><path d="M573.54,1822.2c-8.52,2-17.46,4-24,5.34l-1-3.72c6.18-1.14,15.6-3.06,24.72-5Zm-.72-38.81h-23.4v-3.72h23.4Zm-1.44,21.9H551v-16h20.34Zm-16.44,14.45a41.62,41.62,0,0,0-2.34-11.28l3.24-.78a37.26,37.26,0,0,1,2.58,11.16Zm12.78-27h-13.2v9.23h13.2ZM563,1819.26a85,85,0,0,0,2.7-12.12l3.9,1c-1.08,4.07-2.4,8.93-3.54,12Zm22.5,3.9c-3.18,3.12-8.46,6.12-13.08,7.86a22.91,22.91,0,0,0-2.7-2.7c4.68-1.56,9.84-4.56,12.24-7.14Zm-.72-34.43c.48-1.86,1-4,1.26-5.94H574.44v-3.54h28.74v3.54H590.4c-.54,2-1.14,4.14-1.74,5.94H601.2v31H576.36v-31Zm12.66,3.18H580v6.17h17.4Zm0,9.11H580v6.24h17.4Zm0,9.3H580v6.24h17.4Zm-3.36,11.16a75.29,75.29,0,0,1,10.32,7.38l-3.24,2.16A66.38,66.38,0,0,0,591,1823.4Z"/><path d="M636.42,1788.55c-1.44,3.6-3.12,7.79-4.62,11h8.7v3.67H609.36v-3.67H627.9a78.11,78.11,0,0,0,4.5-11.93Zm2.7-1.38h-28v-3.66h12.6a52.73,52.73,0,0,0-2.64-6.36l3.6-1a57,57,0,0,1,3.18,7.38h11.22Zm-26.22,21.77h24.72v21.12h-3.9v-2.4h-17v2.88H612.9Zm5.82-9.72a46.73,46.73,0,0,0-3.9-10.55l3.48-.84a38.22,38.22,0,0,1,4,10.38Zm-2,13.32v11.52h17v-11.52Zm45.84-31.31c-2.16,5.46-5,12.3-7.56,17.87,5.46,5.7,6.84,10.32,6.84,14.52,0,3.36-.78,6.24-2.64,7.5a7.78,7.78,0,0,1-3.66,1.2,29.42,29.42,0,0,1-5.16.06,9.55,9.55,0,0,0-1.2-3.78,35.57,35.57,0,0,0,4.92.12,5.55,5.55,0,0,0,2.46-.66c1.2-.78,1.62-2.7,1.56-4.8,0-3.78-1.56-8.16-7-13.73,2.34-5.16,4.74-11.58,6.42-16.26H647.34V1831h-3.6v-51.35h15.42l.6-.18Z"/><path d="M722.76,1803.91v2.81h-53.4v-2.81h24.48v-3.42H674v-2.58h19.86v-3.3H675.42V1792h18.42v-3.54H669.42v-2.58h24.42v-3.3H675.78v-2.52h18.06v-3.78h3.9v3.78H716v5.82h6.54v2.58H716v6.12h-18.3v3.3h20.64v2.58H697.74v3.42Zm-53.4,22.43h53.4v2.88h-53.4Zm46.8-16.86v13.86h-40v-13.86Zm-36.18,5.7h14v-3.24H680Zm0,5.76h14v-3.36H680Zm32.16-9H697.62v3.24h14.52Zm0,5.64H697.62v3.36h14.52Zm-14.4-31.67h14.34v-3.3H697.74Zm0,6.12h14.34v-3.54H697.74Z"/><path d="M783.36,1800.91v4.31H728.88v-4.31Z"/><path d="M806.7,1810.92c-.9-1.92-3.24-5.88-5.1-8.88v28.8h-3.66v-29.16c-2,7.14-4.86,14-7.68,18.3a24,24,0,0,0-2.28-4c3.72-5,7.5-14.75,9.3-23h-8.1v-3.77h8.76v-12.84h3.66v12.84h7.26v3.77H801.6v4.2c1.68,2.17,6.3,8.76,7.38,10.32ZM821.82,1823a50.05,50.05,0,0,1-13.74,8.22c-.54-.84-1.62-2-2.34-2.94,4.5-1.68,10-4.8,12.6-7.44Zm21.54-24.24H807.42v-3.23h36Zm-27.3-13.61h-7.8v-3.12h7.8v-4.8h3.6v4.8h11v-4.8h3.72v4.8h8v3.12h-8V1793h-18.3ZM810.54,1820v-17.87h29.64V1820Zm3.6-10.32h9.06v-4.55h-9.06Zm0,7.32h9.06v-4.62h-9.06Zm5.52-31.85v5h11v-5Zm16.8,20h-9.54v4.55h9.54Zm0,7.25h-9.54V1817h9.54Zm-4.32,8.46a88.84,88.84,0,0,1,11.64,7.74l-3.18,2.58a84.32,84.32,0,0,0-11-7.86Z"/><path d="M902.76,1803.91v2.81h-53.4v-2.81h24.48v-3.42H854v-2.58h19.86v-3.3H855.42V1792h18.42v-3.54H849.42v-2.58h24.42v-3.3H855.78v-2.52h18.06v-3.78h3.9v3.78H896v5.82h6.54v2.58H896v6.12h-18.3v3.3h20.64v2.58H877.74v3.42Zm-53.4,22.43h53.4v2.88h-53.4Zm46.8-16.86v13.86h-40v-13.86Zm-36.18,5.7h14v-3.24H860Zm0,5.76h14v-3.36H860Zm32.16-9H877.62v3.24h14.52Zm0,5.64H877.62v3.36h14.52Zm-14.4-31.67h14.34v-3.3H877.74Zm0,6.12h14.34v-3.54H877.74Z"/><path d="M914.88,1812c4.68-2,7.26-4.86,7.56-9.17a4,4,0,0,1-1.14.11c-2.34,0-4.26-1.32-4.26-4.07a4,4,0,0,1,4.32-4.08c3.18,0,4.86,2.58,4.86,6.66,0,6.41-4,11.21-10.08,13.43Z"/><path d="M509.16,1877.94l-7.62,2.34v17.82c0,2.34-.6,3.42-2,4.08s-3.84.78-7.8.72a17,17,0,0,0-1.32-3.66c2.76.06,5.34.06,6.06,0s1.14-.24,1.14-1.14v-16.56l-8.4,2.58-1.26-3.95c2.64-.73,6-1.63,9.66-2.71v-13.07h-8.7v-3.84h8.7v-12.12h4v12.12h7v3.84h-7v11.87c2.34-.59,4.74-1.38,7.08-2.09Zm10.68-6.3c-5.52,0-7.26-1.73-7.26-6.72v-16.31h3.9v7.32h24.3v3.54h-24.3V1865c0,2.29.66,3.13,3.3,3.13h16.14a49.43,49.43,0,0,0,6.42-.37c.18,1.08.36,2.58.54,3.49a38.74,38.74,0,0,1-6.72.35Zm-7.26,5.34h28v25.74h-4v-2.52H516.36V1903h-3.78Zm3.78,3.48v6.36h20.22v-6.36Zm20.22,16.38v-6.72H516.36v6.72Z"/><path d="M564.24,1878.78a58,58,0,0,1-12.06,19.14,26,26,0,0,0-3.66-2.46,47,47,0,0,0,11.64-17.75Zm13.62-7.91v31.79h-4.14v-31.79H549.84v-4h52.5v4Zm19.2-14.22H555.18v-3.9h41.88Zm-5.16,20.93c4.5,5.58,9.24,13.14,11,18.24l-3.9,1.8c-1.74-5-6.3-12.78-10.8-18.48Z"/><path d="M638.28,1848.55c-.06,2.1-.12,5.1-.42,8.64.9,7,4.56,32.51,25.74,42a12.63,12.63,0,0,0-2.88,3.36c-15.42-7.26-21.72-22.74-24.6-34-2.64,12.23-8.94,26.33-24.06,34.19a13.77,13.77,0,0,0-3.12-3.06c25-12.48,24.78-42.11,25-51.11Z"/><path d="M693.54,1894.2c-8.52,2-17.46,4-24,5.34l-1-3.72c6.18-1.14,15.6-3.06,24.72-5Zm-.72-38.81h-23.4v-3.72h23.4Zm-1.44,21.9H671v-16h20.34Zm-16.44,14.45a41.62,41.62,0,0,0-2.34-11.28l3.24-.78a37.26,37.26,0,0,1,2.58,11.16Zm12.78-27h-13.2v9.23h13.2ZM683,1891.26a85,85,0,0,0,2.7-12.12l3.9,1c-1.08,4.07-2.4,8.93-3.54,12Zm22.5,3.9c-3.18,3.12-8.46,6.12-13.08,7.86a22.91,22.91,0,0,0-2.7-2.7c4.68-1.56,9.84-4.56,12.24-7.14Zm-.72-34.43c.48-1.86,1-4,1.26-5.94H694.44v-3.54h28.74v3.54H710.4c-.54,2-1.14,4.14-1.74,5.94H721.2v31H696.36v-31Zm12.66,3.18H700v6.17h17.4Zm0,9.11H700v6.24h17.4Zm0,9.3H700v6.24h17.4Zm-3.36,11.16a75.29,75.29,0,0,1,10.32,7.38l-3.24,2.16A66.38,66.38,0,0,0,711,1895.4Z"/><path d="M741.18,1866.67a9.06,9.06,0,1,1-9.06,9A9.09,9.09,0,0,1,741.18,1866.67Zm0,15.23a6.18,6.18,0,1,0,0-12.36,6.18,6.18,0,1,0,0,12.36Z"/><path d="M492.9,1937.17c4.44,10.31,12.24,20,20.76,24.71a23.11,23.11,0,0,0-3.06,3.36c-9-5.58-16.92-16.32-21.6-28.07h-1v22.43h14.28v4H488V1975H483.9v-11.4H469.68v-4H483.9v-22.43h-1.08c-4.74,11.75-12.66,22.43-21.3,28.25a24.18,24.18,0,0,0-2.88-3.18c8-4.92,15.66-14.76,20.16-25.07H460.14v-4H483.9v-12.72H488v12.72h24v4Z"/><path d="M567.9,1959.54a33.64,33.64,0,0,1-8.22,7.38c2.4,2.82,5.22,4.44,8.16,4.38,1.68-.06,2.16-1.5,2.46-5.94a10.31,10.31,0,0,0,3.12,1.62c-.6,6.3-2.1,7.92-5.76,8-4.26,0-8.16-2.22-11.28-6a74.41,74.41,0,0,1-13.68,5.82,36.46,36.46,0,0,0-2.1-3.24,65.61,65.61,0,0,0,13.86-5.34,34.94,34.94,0,0,1-3.84-8.82H536.16v4.38l11.16-1-.06,2.88-11.1,1.08v6.12c0,2.1-.48,3.06-2.16,3.54s-4.38.54-8.94.54a19.42,19.42,0,0,0-1.26-3.18c3.36.12,6.48.06,7.38,0s1.2-.24,1.2-1v-5.7c-4.74.48-9.12.9-12.72,1.2l-.42-3.3c3.54-.24,8.1-.54,13.14-1v-4.68h-12.9v-3.18h12.9v-4.44c-3.78.42-7.68.72-11.28.91a12,12,0,0,0-.9-2.71c8.16-.48,18.18-1.55,23.52-2.94l2.52,2.58c-2.82.66-6.36,1.26-10.08,1.74v4.86h13.68a52.67,52.67,0,0,1-1.2-8.94h3.84a57.48,57.48,0,0,0,1.2,8.94h19v3.18H554.58a31.91,31.91,0,0,0,3.12,6.9,27.09,27.09,0,0,0,6.72-5.94Zm4.62-15.17h-53v-3.25H543.9V1937H525.3v-3.06h18.6v-4H522.06v-3.18h12.66a30,30,0,0,0-3.48-5.16l3.42-1.26a24.4,24.4,0,0,1,4.32,6.24l-.42.18H553.2a54.7,54.7,0,0,0,3.6-6.6l4.14,1.2c-1.2,1.86-2.52,3.84-3.72,5.4h12.84V1930H547.92v4h18.9V1937h-18.9v4.13h24.6Zm-5.7,9a34,34,0,0,0-9.48-5.52l2.16-2.46a38.32,38.32,0,0,1,9.66,5.22Z"/><path d="M608.46,1969.62a70.7,70.7,0,0,0,7.38.36c2.1.06,14.76,0,17.58-.06a16.36,16.36,0,0,0-1.44,3.84H615.72c-12.3,0-19.92-1.92-24.72-10.38a31.55,31.55,0,0,1-9.48,11.7,19.84,19.84,0,0,0-3.06-2.82c6.3-4.14,10.2-10.92,11.82-19.86l4,.6a55.92,55.92,0,0,1-1.5,6.06c2.34,5.64,6.3,8.52,11.7,9.84v-18.54H579.72v-3.6H632.4v3.6H608.46v7.08h20v3.6h-20Zm17.22-27.17h-39.6v-19.56h39.6Zm-4-16.44H590v5.16h31.68Zm0,8.1H590v5.27h31.68Z"/><path d="M668.28,1920.55c-.06,2.1-.12,5.1-.42,8.64.9,7,4.56,32.51,25.74,42a12.63,12.63,0,0,0-2.88,3.36c-15.42-7.26-21.72-22.74-24.6-34-2.64,12.23-8.94,26.33-24.06,34.19a13.77,13.77,0,0,0-3.12-3.06c25-12.48,24.78-42.11,25-51.11Z"/><path d="M723.54,1966.2c-8.52,2-17.46,4-24,5.34l-1-3.72c6.18-1.14,15.6-3.06,24.72-5Zm-.72-38.81h-23.4v-3.72h23.4Zm-1.44,21.9H701v-16h20.34Zm-16.44,14.45a41.62,41.62,0,0,0-2.34-11.28l3.24-.78a37.26,37.26,0,0,1,2.58,11.16Zm12.78-27h-13.2v9.23h13.2ZM713,1963.26a85,85,0,0,0,2.7-12.12l3.9,1c-1.08,4.07-2.4,8.93-3.54,12Zm22.5,3.9c-3.18,3.12-8.46,6.12-13.08,7.86a22.91,22.91,0,0,0-2.7-2.7c4.68-1.56,9.84-4.56,12.24-7.14Zm-.72-34.43c.48-1.86,1-4,1.26-5.94H724.44v-3.54h28.74v3.54H740.4c-.54,2-1.14,4.14-1.74,5.94H751.2v31H726.36v-31Zm12.66,3.18H730v6.17h17.4Zm0,9.11H730v6.24h17.4Zm0,9.3H730v6.24h17.4Zm-3.36,11.16a75.29,75.29,0,0,1,10.32,7.38l-3.24,2.16A66.38,66.38,0,0,0,741,1967.4Z"/><path d="M771.18,1938.67a9.06,9.06,0,1,1-9.06,9A9.09,9.09,0,0,1,771.18,1938.67Zm0,15.23a6.18,6.18,0,1,0,0-12.36,6.18,6.18,0,1,0,0,12.36Z"/><path d="M413.7,2022.06s-.06,1.32-.12,1.86c-1.08,13.56-2.1,18.84-4.08,20.82-1.26,1.32-2.46,1.68-4.56,1.8a90.37,90.37,0,0,1-9.48-.18,8,8,0,0,0-1.44-4c4,.36,8,.36,9.48.36s2-.06,2.58-.6c1.5-1.2,2.4-5.7,3.3-16.32h-22.8c1.14-4.56,2.46-11.63,3.24-17.09H409.5v-10.08h-22v-3.78H413.4v17.58H393.3c-.6,3.3-1.2,6.71-1.86,9.65Zm18.36-29.15V2047h-4v-54.11Z"/><path d="M494.28,2000.23v33.29H490.2v-3.18H472.92v16.5h-4.14v-16.5H452v3.54h-4v-33.65h20.76v-7.92h4.14v7.92Zm-42.3,3.84v9.18h16.8v-9.18Zm16.8,22.49V2017H452v9.6Zm4.14-22.49v9.18H490.2v-9.18Zm17.28,22.49V2017H472.92v9.6Z"/><path d="M556.74,2024.17s-.06,1.19-.12,1.73c-1.14,12.66-2.28,17.64-4.14,19.56a5.52,5.52,0,0,1-4,1.56,66.58,66.58,0,0,1-7.5-.12,9.39,9.39,0,0,0-1.2-3.66c3.12.3,6.06.3,7.2.3a3,3,0,0,0,2.22-.54c1.26-1.32,2.4-5.34,3.36-15.3H515a59.21,59.21,0,0,1-9.66,7.32,19.86,19.86,0,0,0-2.22-3.3c10.26-6,17.82-15.18,23.1-25.43h-20v-3.66H528a82.29,82.29,0,0,0,3.84-10.32l3.9,1a92.32,92.32,0,0,1-3.54,9.3H548c-.72,3.48-1.56,7.62-2.34,10.74h7c-.66,3.47-1.5,7.67-2.28,10.8Zm-49.38,20.33c3.42-3.24,5.7-8.58,7-13.2l3.3,1.08c-1.44,4.92-3.54,10.62-7.14,14.16Zm12.42-42.17a39,39,0,0,0-6-8.34l3.42-1.44a39.57,39.57,0,0,1,6.18,8Zm26.82,21.84c.54-2.11,1.08-4.69,1.56-7.21H524.34a75.18,75.18,0,0,1-5.76,7.21Zm-21.48,7.91a44,44,0,0,1,1.8,11.88l-3.48.54a39.57,39.57,0,0,0-1.62-11.94Zm5.4-25.79c-1.14,2.4-2.46,4.79-3.84,7.08h15.24c.54-2,1.14-4.62,1.62-7.08Zm3.18,25a43,43,0,0,1,3.6,10.26l-3.3.9a45.91,45.91,0,0,0-3.42-10.44Zm10.32,8a38.83,38.83,0,0,0-4.56-8.1l2.76-1.08a34.18,34.18,0,0,1,4.74,7.86Z"/><path d="M617,1998.73v3.48H564.78v-3.48h24.84c-.54-1.8-1.26-4-1.92-5.64l3.78-.9c.84,2.1,1.74,4.62,2.4,6.54Zm-2,43.85c0,2-.48,2.82-2,3.42s-4,.48-7.74.48a13.23,13.23,0,0,0-1.26-3c2.64.12,5.34.06,6,.06s1-.24,1-.9v-18.18H570.9V2047h-3.84V2021H615Zm-6.6-36.77v11.81H574.08v-11.81Zm-4.14,3H578v5.81h26.22Zm-1.08,31.55H581.76v3.06H578v-15.18h25.14Zm-21.42-9.06v6h17.82v-6Z"/><path d="M631.86,2008.81a57.83,57.83,0,0,1-5.82,3.42,30.54,30.54,0,0,0-2.22-2.65c4.74-2.21,10.2-6,12.84-9.53l3.54,1.32a33.59,33.59,0,0,1-4.62,4.62v12.72h-3.72Zm36.42,30.29h9.6v3.06h-9.6v4.8h-3.9v-4.8H624.12v-3.06h9.6v-15.89h-8.64v-3.07h52v3.07h-8.82Zm-29-45.41a50.89,50.89,0,0,1-12.54,9,20.52,20.52,0,0,0-2.16-2.58c4-1.86,8.76-5,11.28-7.8Zm-1.8,29.52v3.47h26.88v-3.47Zm0,9.71h26.88v-3.48H637.5Zm26.88,6.18v-3.42H637.5v3.42Zm-6.6-34.55a14.48,14.48,0,0,0-2.4-2c4.86-2.16,8.4-5.58,9.84-10.26l3.6.42a19.86,19.86,0,0,1-1.74,4,58.92,58.92,0,0,1,9.24,5.88l-2.34,2.45a48.73,48.73,0,0,0-8.58-5.81,25.27,25.27,0,0,1-4.86,4.26h1v3.59h11.88v2.76H661.56v5c1.32.12,2.76.12,4.32.12,1.26,0,10,0,12.12,0a8.85,8.85,0,0,0-1.14,2.88H665.7c-8.4,0-13.92-1-17.58-5.41a18.82,18.82,0,0,1-6,6.48,14.87,14.87,0,0,0-2.94-2.22,16,16,0,0,0,7.86-11.87l3.48.3a18.14,18.14,0,0,1-1.14,4.56c1.86,2.75,4.68,4.13,8.4,4.79Zm-3.06-1.44a43.32,43.32,0,0,0-4.68-3.9,24.48,24.48,0,0,1-7.26,6.36,18.65,18.65,0,0,0-2.82-2.28,17.73,17.73,0,0,0,9.66-10.92l3.48.54a20.88,20.88,0,0,1-1.56,3.78,34,34,0,0,1,5.52,4.26Z"/><path d="M704.52,2025.06l-3.66,3.12a93.63,93.63,0,0,0-13.32-13.38l3.42-3.11A118.53,118.53,0,0,1,704.52,2025.06Z"/><path d="M767.28,2013.12s-.06,1.33-.06,1.92c-.66,20.88-1.2,27.9-2.82,30a4.18,4.18,0,0,1-3.42,1.8,37,37,0,0,1-5.82,0,9.45,9.45,0,0,0-1-3.54c.72.06,1.38.12,2,.12a26.43,26.43,0,0,0-1-2.7c-8.52.9-17.16,1.68-23.28,2.28l-.42-3.48c3.42-.24,7.92-.6,12.84-1V2033H734.1v-11.64h10.2v-3.59h3.24v3.59h10V2033h-10v5.28l6.12-.48c-.6-1.08-1.26-2.16-1.92-3.12l2.76-1a33.39,33.39,0,0,1,4.68,8.64l-3,1.14c1.38.06,2.58.06,3.18.06a1.79,1.79,0,0,0,1.8-.78c1.14-1.5,1.8-7.92,2.28-26.21h-26a41,41,0,0,1-5.94,6.35,25,25,0,0,0-2.94-2.34c.06,1.33.06,2.64.06,4,0,8.76-.6,17.22-2.88,20.34a4.4,4.4,0,0,1-3.24,1.86,29.84,29.84,0,0,1-6.24.24,7.66,7.66,0,0,0-1.08-3.78,31.33,31.33,0,0,0,5.88,0,2.07,2.07,0,0,0,1.74-1c1.56-1.92,2-9.9,2-17.7,0-1.08,0-2.16-.06-3.24a47.56,47.56,0,0,1-9.06,10.86A17.87,17.87,0,0,0,713,2029a40.93,40.93,0,0,0,11.28-13.85,37.66,37.66,0,0,0-2.1-8.52,75.09,75.09,0,0,1-6.3,6,16,16,0,0,0-2.82-2.46,55.44,55.44,0,0,0,7.44-7.14,33,33,0,0,0-6.24-8.1l2.76-2.1a35.79,35.79,0,0,1,6,7.14,44.77,44.77,0,0,0,4.74-7.38l3.42,1.74a65.36,65.36,0,0,1-6.24,9.18c2.52,5.34,3.3,11,3.54,16.85a34.12,34.12,0,0,0,9.42-11.51h-5.1v-14H766v14H742a40.48,40.48,0,0,1-2.28,4.25Zm-31-7.43h6.42v-7.62h-6.42Zm8,24.47v-5.94h-7v5.94Zm1.5-24.47h6.72v-7.62H745.8Zm1.74,18.53v5.94h6.66v-5.94Zm8-18.53h6.84v-7.62h-6.84Z"/><path d="M827.52,2040.42v4h-53v-4h29a198.72,198.72,0,0,0,9.12-29.27l4.56.84c-2.64,9-6.18,20.69-9.42,28.43Zm-2.34-32.75H777v-4h48.18Zm-33.9,30c-.9-7-3.54-17.58-5.82-25.55l4-.9a209.86,209.86,0,0,1,6,25.43Zm8.58-34.85a61.85,61.85,0,0,0-2.94-9.66l3.84-1.08a70.16,70.16,0,0,1,3.12,9.54Z"/><path d="M846.18,2010.67a9.06,9.06,0,1,1-9.06,9A9.09,9.09,0,0,1,846.18,2010.67Zm0,15.23a6.18,6.18,0,1,0,0-12.36,6.18,6.18,0,1,0,0,12.36Z"/><rect class="cls-2" x="1113" y="425" width="65" height="126" rx="12"/><path class="cls-1" d="M1132.7,454.82c1.25,1.6,4.9,6.7,5.7,8.05l-2,2.45c-.7-1.5-2.35-4.4-3.75-6.65V485h-3.15V460.57c-1.5,5.05-3.5,9.9-5.55,12.85a14.83,14.83,0,0,0-1.75-3.1c2.9-4,5.8-11.5,7.2-18h-6.2v-3.15h6.3v-9.65h3.15v9.65h5.45v3.15h-5.45Zm19.1.7a19.47,19.47,0,0,0,.45,2.65c-10.15,2.7-11.6,3.15-12.5,3.75a12.13,12.13,0,0,0-1.1-3.2c.7-.2,1.55-.5,1.55-2.2v-16.7h3.25v6.5h8.35v2.9h-8.35v8.3Zm2.35,5.5-2,3.75h12.65V485h-3.4v-1.75h-17v2h-3.3V464.77h7.9c.55-1.5,1.2-3.25,1.55-4.6Zm7.3,6.5h-17v5.05h17Zm0,13v-5.3h-17v5.3Zm2.25-22.4c1.25,0,1.5-.75,1.65-5.25a9.16,9.16,0,0,0,2.85,1.25c-.3,5.45-1.2,6.95-4.15,6.95h-5.85c-3.65,0-4.55-.95-4.55-4.45V439.87h3.25v6.5h10.2v2.9h-10.2v7.35c0,1.3.25,1.5,1.65,1.5Z"/><path class="cls-1" d="M1167.55,514.87v2.5H1123.4v-2.5h20.25v-3.2H1126.8v-2.3h16.85v-3H1128.2v-2.25h15.45v-3.2H1123.5v-2.5h20.15v-3.05H1128.8V493h14.85v-3.55h3.25V493h14.45v5.4h6.15v2.5h-6.15v5.45H1146.9v3h17.3v2.3h-17.3v3.2Zm-37.75,5h31.75v15.25h-3.25v-1.6H1133v1.7h-3.2Zm3.2,2.4v3.2h25.3v-3.2Zm25.3,8.85v-3.4H1133v3.4Zm-11.4-32.7h11.15v-3.05H1146.9Zm0,5.7h11.15v-3.2H1146.9Z"/><rect class="cls-2" x="1113" y="1191" width="65" height="271" rx="12"/><path class="cls-1" d="M1158.05,1230.79a27.61,27.61,0,0,0,11.5,8.1,11.65,11.65,0,0,0-2.15,2.55,30.77,30.77,0,0,1-12.8-10.65h-15.95a34.39,34.39,0,0,1-13,11.3,11.43,11.43,0,0,0-2.15-2.55,30.39,30.39,0,0,0,11.6-8.75H1124v-2.85h10v-16.15h-7.7V1209h7.7v-5h3.3v5h18.55v-5h3.35v5h7.65v2.8h-7.65v16.15h9.8v2.85Zm-10,14.5h17.3v2.85H1127.8v-2.85h16.9v-5.6h-10.45v-2.8h10.45v-4.4h3.35v4.4h10.65v2.8h-10.65Zm-10.8-33.5v3.6h18.55v-3.6Zm0,9.8h18.55v-3.65h-18.55Zm0,6.35h18.55v-3.8h-18.55Z"/><path class="cls-1" d="M1142.25,1272.54s0,1.15,0,1.55c-.6,15.85-1.2,21.2-2.6,23a3.71,3.71,0,0,1-2.8,1.45,32.65,32.65,0,0,1-4.45,0,9.25,9.25,0,0,0-.85-3c1.75.15,3.2.15,3.9.15a1.42,1.42,0,0,0,1.45-.65c1-1.2,1.6-6,2.15-19.35h-6.8c-.55,10-2,18.25-6.45,23.65a9.53,9.53,0,0,0-2.55-2.35c5.45-6.45,5.9-17.85,6.1-31.55h-5.2v-3.1h20.1v3.1h-11.65c0,2.45-.1,4.85-.2,7.15Zm-7.9-10.45a33.47,33.47,0,0,0-4.25-7.15l2.9-1.15a31.92,31.92,0,0,1,4.4,7Zm23.85-7.45a15.26,15.26,0,0,1-.85,2.55c2.65,5.45,7.7,11.35,12.45,14a13,13,0,0,0-2.45,2.75c-4.25-2.7-8.5-8-11.4-13.3a32.61,32.61,0,0,1-11,13.6,12.79,12.79,0,0,0-2.35-2.65c5.85-3.6,10.35-10.2,12.5-17.85Zm-8.3,32.45a74,74,0,0,1,13.6,8.25l-2.25,2.9c-2.85-2.6-8.75-6.3-13.4-8.65Zm9.5-4.85a66.22,66.22,0,0,0-8.6-6.85l2.15-2.2a67.46,67.46,0,0,1,8.75,6.55Z"/><path class="cls-1" d="M1165,1307.19v29.3h-3.5v-2.55h-13.3v15.6h-3.45v-15.6h-13.4v2.75H1128v-29.5Zm-33.65,3.2V1319h13.4v-8.65Zm13.4,20.35v-8.5h-13.4v8.5Zm16.75-20.35h-13.3V1319h13.3Zm0,20.35v-8.5h-13.3v8.5Z"/><path class="cls-1" d="M1167.25,1369.09v9.3h-3.15V1372h-35.4v6.4h-3v-9.3h6.95v-12.95h27.7v12.95Zm-6.45,26.6c0,1.85-.45,2.7-1.85,3.2s-3.9.5-7.7.45a8.57,8.57,0,0,0-1.1-2.75c3,.05,5.65.05,6.4.05s1-.25,1-1v-6.2c-7.3,1.45-14.85,3-20.45,4l-1.1-3c5.4-.8,13.6-2.3,21.55-3.75V1378h-22.2v5.3c0,4.85-.65,11.55-4.35,16.2a13.29,13.29,0,0,0-2.7-2c3.45-4.25,3.85-10,3.85-14.25v-8h28.6Zm-25-26.6h7.45v-6.9H1157v-3.35h-21.2Zm2.45,11.7a75.14,75.14,0,0,1,17.7,3l-.9,2.6c-4-1.5-11.7-2.9-17.7-3.35Zm18.75-16.3h-10.75v4.6H1157Z"/><path class="cls-1" d="M1161,1416.09a51.83,51.83,0,0,1-12,19.6,49.94,49.94,0,0,0,20.5,10.5,16.79,16.79,0,0,0-2.25,3,50.92,50.92,0,0,1-20.75-11.1c-5.65,5-12.55,8.6-21,11.3a15.53,15.53,0,0,0-2-3.05c8.35-2.45,15.1-5.9,20.6-10.6a57.05,57.05,0,0,1-12.2-19.65h-7.75v-3.25h44.75v3.25Zm-25.75,0a52.13,52.13,0,0,0,11.3,17.3,47.46,47.46,0,0,0,10.7-17.3Zm11.25-3.55a38.13,38.13,0,0,0-3.8-7.8l3.4-1a39,39,0,0,1,4,7.65Z"/><path d="M608,1074.14q2.88,2.08,5.7,4.25l-5.16-4a240.34,240.34,0,0,1,42.27,42.53l-4-5.16a309.45,309.45,0,0,1,39.53,68.53l-2.57-6.1c14,33.11,22.92,68.26,29.34,103.54q2.91,16,5.06,32.18l-.91-6.78c5.3,39.84,7.4,80,7.56,120.19.17,40.44-1.6,80.87-4,121.23-1.34,22.44-2.9,44.87-4.43,67.3-.43,6.25,3.15,13.72,7.47,18s11.68,7.76,18,7.47c6.59-.29,13.43-2.46,18-7.47a28.15,28.15,0,0,0,7.47-18c2.8-40.92,5.65-81.86,7.23-122.85,1.58-41.29,1.88-82.67-.51-123.94-2.48-42.7-7.73-85.47-17.17-127.22-8.63-38.2-21-75.69-39.4-110.35-17.21-32.33-40.22-62.71-68.76-85.86q-7.35-6-15-11.53c-5.06-3.66-13.87-4.16-19.65-2.58s-12.32,6.21-15.24,11.72c-3.12,5.92-4.69,13.09-2.57,19.65l2.57,6.09a25.55,25.55,0,0,0,9.15,9.15Z"/><line class="cls-3" x1="619.69" y1="1052.53" x2="457" y2="1341"/><line class="cls-3" x1="757.33" y1="1038.53" x2="496.67" y2="1038.14"/></svg>