<svg id="Layer_1" data-name="Layer 1" xmlns="http://www.w3.org/2000/svg" viewBox="0 0 1242 2208"><defs><style>.cls-1{fill:#f6eabe;}.cls-2{fill:#999;}.cls-3{fill:none;stroke:#000;stroke-linecap:round;stroke-miterlimit:10;stroke-width:50px;}</style></defs><rect class="cls-1" width="1242" height="2208"/><path d="M891.75,800.81c35.73,0,41.29-21.43,45.26-148.47,12.7,10.32,34.93,18.26,50,23-7.15,138.95-21.44,176.27-92.1,176.27H769.48c-69.08,0-88.93-18.26-88.93-84.16V463.37L555.1,472.9c-13.5,209.61-52.4,332.68-268.37,396.2-6.35-13.5-20.64-34.14-32.55-43.67,201.67-54,235-161.18,246.13-347.77C385.19,488,363,491.16,344.69,498.3a532.67,532.67,0,0,0-18.26-53.2c17.47-4,37.32-23.81,63.52-53.19,27-30.17,117.51-143.71,177.85-254.08l54.79,20.64c-61.93,100.84-135,197.71-204.85,273.14l386.67-27c-34.93-46.05-73-94.48-106.39-135.77l42.87-26.2c63.52,77,148.48,183.41,190.56,244.55L884.61,519c-11.91-19.06-28.59-42.88-46.85-68.29l-104,7.94V767.47c0,28.58,6.35,33.34,41.29,33.34Z"/><path d="M415.92,1854.69a98.85,98.85,0,0,1-6.18,13.56v39.59H405.9v-33.35a61.73,61.73,0,0,1-5.46,7,32.86,32.86,0,0,0-2.28-3.9c5.58-5.87,10.8-14.87,14-24Zm34.14,28c-2.1,1.26-4.44,2.64-6.84,3.78,2,6.06,5.82,11.82,10.38,14.52a11.2,11.2,0,0,0-2.64,2.94c-4.62-3.18-8.46-9.42-10.68-16a27.45,27.45,0,0,1-2.76,1.2c2.58,6.84,1.86,14-1,16.68a6.91,6.91,0,0,1-5.22,1.92c-1.08,0-2.4-.06-3.78-.18a9.31,9.31,0,0,0-1-3.42,38.26,38.26,0,0,0,4.14.24,3.66,3.66,0,0,0,3.12-1.14c1.56-1.38,2.22-5.16,1.44-9.36-5.16,4.92-13.08,9.36-19.8,11.7a15.8,15.8,0,0,0-2.34-2.82c7.62-2.28,16.62-7.14,21.3-12.24a35.76,35.76,0,0,0-1.5-3.48,63.52,63.52,0,0,1-17.22,9.9,16.14,16.14,0,0,0-2.22-2.64c5.94-1.8,13.74-5.76,17.88-9.54a16.39,16.39,0,0,0-2.94-3.18,58.44,58.44,0,0,1-13.56,7.26,11.26,11.26,0,0,0-2.22-2.58,52.48,52.48,0,0,0,15.06-7.56H417.48v-9.35c-1.14,1-2.28,2-3.54,2.94a9.54,9.54,0,0,0-2.52-2.59,44.59,44.59,0,0,0,13.86-16.25l3.84.72c-.6,1.2-1.32,2.34-2,3.54h11.1l.72-.18,2.34,1.68a52.13,52.13,0,0,1-4.8,6.84h13.08v12.65H431.94a15.29,15.29,0,0,1-1.2,1,21,21,0,0,1,5.64,6.84,111.93,111.93,0,0,0,10.92-6.42ZM425,1860.81a54.58,54.58,0,0,1-4.2,5.16h11.58a37.88,37.88,0,0,0,3.72-5.16Zm-3.9,14.69h10.5v-6.42h-10.5Zm24.72-6.42H435.18v6.42H445.8Z"/><path d="M488.28,1853.55c-.06,2.1-.12,5.1-.42,8.64.9,7,4.56,32.51,25.74,42a12.63,12.63,0,0,0-2.88,3.36c-15.42-7.26-21.72-22.74-24.6-34-2.64,12.23-8.94,26.33-24.06,34.19a13.77,13.77,0,0,0-3.12-3.06c25-12.48,24.78-42.11,25-51.11Z"/><path d="M547.68,1860.69c-.84,3.12-1.8,6.42-2.7,9.06h24.66v32.93c0,2.46-.54,3.6-2.22,4.26s-4.8.72-9.12.72a12.47,12.47,0,0,0-1.38-3.78c3.54.12,6.6.06,7.5,0s1.2-.3,1.2-1.2v-29.22H554.94V1906h-4v-32.58H540.54V1906h-3.9v-32.58h-10V1908h-4v-38.27h18.24c.84-2.71,1.56-6.12,2.16-9.06H519.48v-4h53.34v4Z"/><path d="M609.12,1888.1c3.78,8.76,11.58,14,23.46,15.9a16.71,16.71,0,0,0-2.7,3.78c-12.06-2.34-19.86-8.16-24.12-18.06-3.06,8.58-9.48,15-24.12,18.42a14.52,14.52,0,0,0-2.28-3.6c14-3,19.8-8.82,22.5-16.44H579.54v-3.78h23.34a64.8,64.8,0,0,0,1.32-8.82h4.32a78,78,0,0,1-1.26,8.82H619a37.14,37.14,0,0,0-7-6.53l2.88-1.62a36.22,36.22,0,0,1,7.2,6.35l-2.88,1.8h13.32v3.78Zm-8-25.91c-.9,10-4.56,14.34-18.72,16.49a10.17,10.17,0,0,0-2-3.3c12.9-1.67,16-5,16.74-13.19h-12.3v6.54h-4v-10.14h23.46c-.54-1.5-1.14-3.24-1.74-4.62l4.08-1c.84,1.68,1.74,3.84,2.4,5.58h22.62v9.66h-4.14v-6.06h-13v7.38c0,1.43.24,1.85,1.68,1.85h9.48a24.58,24.58,0,0,0,4.38-.3c.12,1.09.24,2.41.36,3.37a23.67,23.67,0,0,1-4.56.3h-10c-4.32,0-5.34-1.5-5.34-5.34v-7.26Z"/><path d="M638.4,1906.4a32.92,32.92,0,0,0,4.5-10.14l3,1.2c-1,3.36-2.52,7.8-4.44,10.56Zm29.34-11c-.24-.84-.6-1.74-1-2.82-9.54,1.08-11,1.32-11.94,1.74-.18-.72-.66-2.4-1-3.18.84-.18,1.8-1,3.06-2.28a50.78,50.78,0,0,0,3.78-4.68c-4.14.42-5.16.66-5.82,1a27.46,27.46,0,0,0-1-3.12,3,3,0,0,0,1.74-1.38,27.8,27.8,0,0,0,3.84-6.89H645.48l2.34.71a38.21,38.21,0,0,1-4.2,7.44l4.32-.36a26.63,26.63,0,0,0,2-3.36l3.12,1.27a75.07,75.07,0,0,1-8.82,11.57l5.7-.54a34.35,34.35,0,0,0-1.32-3.3l2.34-.84a38,38,0,0,1,2.88,8l-2.52.84c-.12-.6-.3-1.32-.54-2.1-8.4,1-9.9,1.2-10.68,1.62a17.56,17.56,0,0,0-1.08-3.12c1-.18,1.92-1.08,3.06-2.34a41.35,41.35,0,0,0,4-4.8c-4.2.42-5.22.66-5.82,1a14.5,14.5,0,0,0-1-3.12c.66-.12,1.14-.66,1.74-1.5a28.12,28.12,0,0,0,3.66-7h-3v-17.46h25v17.46h-6.72l2.88,1a38.75,38.75,0,0,1-4.26,6.89l4.32-.3a39.53,39.53,0,0,0,2-3.42l3.24,1.33a77.37,77.37,0,0,1-8.94,11.33l6.42-.6a26.85,26.85,0,0,0-1.44-2.94l2.46-1.08a44.58,44.58,0,0,1,3.9,8.34ZM645,1863.57h17.94V1859H645Zm0,7.31h17.94v-4.61H645Zm6.36,26a59.83,59.83,0,0,1,1.44,9.66l-3.18.48a67.55,67.55,0,0,0-1.26-9.72Zm6-.78a40.55,40.55,0,0,1,2.82,8.7l-2.94.84a50.13,50.13,0,0,0-2.7-8.82Zm6.66-1.62a45,45,0,0,1,4.26,7.86l-2.82,1.26a44.33,44.33,0,0,0-4.14-8Zm15.18,5.76a42.48,42.48,0,0,1-10.56,7.86,20.61,20.61,0,0,0-2.58-2.52,31.39,31.39,0,0,0,9.78-7.2Zm-1.5-34.61c.3-1.8.54-4,.78-5.88h-9.54v-3.54h23.58v3.54H682.38c-.48,2-.84,4.08-1.26,5.88h10.32v31.07H670.68v-31.07Zm10.32,3.18H674V1875h14Zm0,9.17H674v6.19h14Zm0,9.3H674v6.18h14Zm-2,11.22a50.08,50.08,0,0,1,7.86,7.56l-2.94,2a58.87,58.87,0,0,0-7.74-7.8Z"/><path d="M723.54,1899.2c-8.52,2-17.46,4-24,5.34l-1-3.72c6.18-1.14,15.6-3.06,24.72-5Zm-.72-38.81h-23.4v-3.72h23.4Zm-1.44,21.9H701v-16h20.34Zm-16.44,14.45a41.62,41.62,0,0,0-2.34-11.28l3.24-.78a37.26,37.26,0,0,1,2.58,11.16Zm12.78-27h-13.2v9.23h13.2ZM713,1896.26a85,85,0,0,0,2.7-12.12l3.9,1c-1.08,4.07-2.4,8.93-3.54,12Zm22.5,3.9c-3.18,3.12-8.46,6.12-13.08,7.86a22.91,22.91,0,0,0-2.7-2.7c4.68-1.56,9.84-4.56,12.24-7.14Zm-.72-34.43c.48-1.86,1-4,1.26-5.94H724.44v-3.54h28.74v3.54H740.4c-.54,2-1.14,4.14-1.74,5.94H751.2v31H726.36v-31Zm12.66,3.18H730v6.17h17.4Zm0,9.11H730v6.24h17.4Zm0,9.3H730v6.24h17.4Zm-3.36,11.16a75.29,75.29,0,0,1,10.32,7.38l-3.24,2.16A66.38,66.38,0,0,0,741,1900.4Z"/><path d="M786.42,1865.55c-1.44,3.6-3.12,7.79-4.62,11h8.7v3.67H759.36v-3.67H777.9a78.11,78.11,0,0,0,4.5-11.93Zm2.7-1.38h-28v-3.66h12.6a52.73,52.73,0,0,0-2.64-6.36l3.6-1a57,57,0,0,1,3.18,7.38h11.22Zm-26.22,21.77h24.72v21.12h-3.9v-2.4h-17v2.88H762.9Zm5.82-9.72a46.73,46.73,0,0,0-3.9-10.55l3.48-.84a38.22,38.22,0,0,1,4,10.38Zm-2,13.32v11.52h17v-11.52Zm45.84-31.31c-2.16,5.46-5,12.3-7.56,17.87,5.46,5.7,6.84,10.32,6.84,14.52,0,3.36-.78,6.24-2.64,7.5a7.78,7.78,0,0,1-3.66,1.2,29.42,29.42,0,0,1-5.16.06,9.55,9.55,0,0,0-1.2-3.78,35.57,35.57,0,0,0,4.92.12,5.55,5.55,0,0,0,2.46-.66c1.2-.78,1.62-2.7,1.56-4.8,0-3.78-1.56-8.16-7-13.73,2.34-5.16,4.74-11.58,6.42-16.26H797.34V1908h-3.6v-51.35h15.42l.6-.18Z"/><path d="M824.88,1889c4.68-2,7.26-4.86,7.56-9.17a4,4,0,0,1-1.14.11c-2.34,0-4.26-1.32-4.26-4.07a4,4,0,0,1,4.32-4.08c3.18,0,4.86,2.58,4.86,6.66,0,6.41-4,11.21-10.08,13.43Z"/><path d="M459.24,1926.51a13.18,13.18,0,0,1-.84,1.08c5.7,5.64,16.2,10.62,25.56,12.83a12.89,12.89,0,0,0-2.52,3.12,71.7,71.7,0,0,1-14.88-6.17l-.06,1.92H445.74l.06-1.68a89.68,89.68,0,0,1-14.88,6.23,30.91,30.91,0,0,0-2.28-3c10.8-3,21.48-8.28,27.12-15.6Zm-23.16,16H476v14.88h-39.9Zm3.42,12.06h14.7v-9.23H439.5Zm.12,5.82H473v19.38h-4v-1.86h-25.5v2h-3.9Zm6.66-14.22a21.86,21.86,0,0,1,3.78,6.84l-3.06,1.21a27.26,27.26,0,0,0-3.6-7.09Zm-2.76,17.16v4.32H469v-4.32Zm25.5,11.64v-4.38h-25.5v4.38Zm-4.2-38.57a48.46,48.46,0,0,1-8.58-6.42,45.19,45.19,0,0,1-8.34,6.42Zm7.5,8.94H457.56v9.23h14.76Zm-10.62,7.79a53.26,53.26,0,0,0,3.54-7.2l3.36,1.08a73,73,0,0,1-4.14,7.21Z"/><path d="M490.08,1976.48c3.06-2.58,5.64-7,7.08-10.44l3.3,1.5c-1.68,3.6-4.08,8-7.14,10.86Zm51.72-36.9v3.25H490.56v-3.25h14.16a23.89,23.89,0,0,0-2.34-5.45l3.36-.84H493.26V1930h21.9c-.72-1.44-1.56-2.94-2.34-4.2l3.78-.9a39.9,39.9,0,0,1,2.94,5.1h19.2v3.3H526.86l3.24.78c-1,1.92-2,3.84-3,5.51Zm-7,23.7H513.66a47.07,47.07,0,0,1,8.82,6.24L520,1972a48.61,48.61,0,0,0-9.3-6.9l2-1.8H497.58V1946h37.2Zm-3.9-14.45H501.36v4.43h29.52Zm0,7.13H501.36v4.44h29.52Zm-8.22,20.16c2.58,0,3-.72,3.24-6.24a12.08,12.08,0,0,0,3.54,1.38c-.48,6.66-1.74,8.22-6.42,8.22H511.44c-5.82,0-7.38-1-7.38-5v-8H508v8c0,1.38.54,1.68,3.72,1.68ZM506,1933.29a26.19,26.19,0,0,1,2.76,6.18l-.48.11H523a59.18,59.18,0,0,0,3.06-6.29Zm27.66,32.21a46.55,46.55,0,0,1,8,10.2l-3.36,1.74a49,49,0,0,0-7.8-10.56Z"/><path d="M548.34,1978c1.8-2.82,3.18-7.44,3.84-11.1l2.82,1c-.78,3.78-1.92,8.58-3.78,11.4Zm27.12-13.86h-26.1v-3.24h11.1v-5H550.38v-3.23h10.08v-4.38h-9.54v-20.64H574.2v20.64H564.06v4.38h10.68v3.23H564.06v5h11.4Zm-21.36-18.89h6.78v-14.64H554.1Zm3.18-12.18a40.4,40.4,0,0,1,2,9.12l-2.22.65a37.3,37.3,0,0,0-1.92-9.23Zm2.82,34.55a50.16,50.16,0,0,1,1,10.38l-2.88.36a49.85,49.85,0,0,0-.84-10.44Zm6-.24a41.62,41.62,0,0,1,2.82,9.6l-2.76.6a39,39,0,0,0-2.64-9.66Zm4.8-36.77h-7.2v14.64h7.2Zm-6.12,11.93a84.59,84.59,0,0,0,2.64-9.65l2.46.9c-1.08,3.12-2.28,7-3.24,9.48Zm7.5,24.36a34.6,34.6,0,0,1,4,9.3l-2.76,1a40.62,40.62,0,0,0-3.78-9.42Zm18.12-24.65v11.46H601v26h-3.84v-2.64H581.4V1980h-3.72v-26.21h8.82v-28.26h3.9v13.08h13v3.72Zm6.78,15.17H581.4v16h15.78Z"/><path d="M633.54,1971.2c-8.52,2-17.46,4-24,5.34l-1-3.72c6.18-1.14,15.6-3.06,24.72-5Zm-.72-38.81h-23.4v-3.72h23.4Zm-1.44,21.9H611v-16h20.34Zm-16.44,14.45a41.62,41.62,0,0,0-2.34-11.28l3.24-.78a37.26,37.26,0,0,1,2.58,11.16Zm12.78-27h-13.2v9.23h13.2ZM623,1968.26a85,85,0,0,0,2.7-12.12l3.9,1c-1.08,4.07-2.4,8.93-3.54,12Zm22.5,3.9c-3.18,3.12-8.46,6.12-13.08,7.86a22.91,22.91,0,0,0-2.7-2.7c4.68-1.56,9.84-4.56,12.24-7.14Zm-.72-34.43c.48-1.86,1-4,1.26-5.94H634.44v-3.54h28.74v3.54H650.4c-.54,2-1.14,4.14-1.74,5.94H661.2v31H636.36v-31Zm12.66,3.18H640v6.17h17.4Zm0,9.11H640v6.24h17.4Zm0,9.3H640v6.24h17.4Zm-3.36,11.16a75.29,75.29,0,0,1,10.32,7.38l-3.24,2.16A66.38,66.38,0,0,0,651,1972.4Z"/><path d="M716.46,1975c2.7,0,3.12-1.62,3.42-11.22a12.72,12.72,0,0,0,3.78,1.74c-.54,10.5-1.62,13.32-7,13.32h-9.48c-5.22,0-6.72-1.38-6.72-6.36v-23l-9.48.72c-1,15.84-4,25.14-20.28,29.94a11,11,0,0,0-2.46-3.3c15.24-4.08,17.76-12.18,18.6-26.28-8.7.79-10.38,1-11.76,1.56a40.19,40.19,0,0,0-1.38-4c1.32-.3,2.82-1.8,4.8-4A124.61,124.61,0,0,0,692,1925l4.14,1.56a136.1,136.1,0,0,1-15.48,20.64l29.22-2c-2.64-3.49-5.52-7.14-8-10.26l3.24-2c4.8,5.82,11.22,13.85,14.4,18.47l-3.54,2.41c-.9-1.45-2.16-3.25-3.54-5.17l-7.86.6v23.34c0,2.16.48,2.52,3.12,2.52Z"/><path d="M752.1,1938.62H728.58v-3.29H752.1Zm-2.4,37.92H734.88v2.82h-3.54v-20H749.7Zm-18.3-33.23h18.48v3.23H731.4Zm0,8h18.48v3.23H731.4Zm3.48,11.39v10.56H746.1v-10.56Zm4.68-27.53a27.9,27.9,0,0,0-2.82-8.22l2.88-1.14a23.46,23.46,0,0,1,3.06,8Zm43.92,21H769.86V1980h-4v-23.82H751.68v-3.77h14.16v-14.29h-6.6a44.74,44.74,0,0,1-5.7,10,28.83,28.83,0,0,0-3.54-2.21c4.32-5,7.5-12.66,9.24-20.58l4,.78c-.72,2.88-1.56,5.7-2.46,8.34h21.54v3.71H769.86v14.29h13.62Z"/><path d="M801.18,1943.67a9.06,9.06,0,1,1-9.06,9A9.09,9.09,0,0,1,801.18,1943.67Zm0,15.23a6.18,6.18,0,1,0,0-12.36,6.18,6.18,0,1,0,0,12.36Z"/><path d="M417.9,2014.17c4.44,10.31,12.24,20,20.76,24.71a23.11,23.11,0,0,0-3.06,3.36c-9-5.58-16.92-16.32-21.6-28.07h-1v22.43h14.28v4H413V2052H408.9v-11.4H394.68v-4H408.9v-22.43h-1.08c-4.74,11.75-12.66,22.43-21.3,28.25a24.18,24.18,0,0,0-2.88-3.18c8-4.92,15.66-14.76,20.16-25.07H385.14v-4H408.9v-12.72H413v12.72h24v4Z"/><path d="M492.9,2036.54a33.64,33.64,0,0,1-8.22,7.38c2.4,2.82,5.22,4.44,8.16,4.38,1.68-.06,2.16-1.5,2.46-5.94a10.31,10.31,0,0,0,3.12,1.62c-.6,6.3-2.1,7.92-5.76,8-4.26,0-8.16-2.22-11.28-6a74.41,74.41,0,0,1-13.68,5.82,36.46,36.46,0,0,0-2.1-3.24,65.61,65.61,0,0,0,13.86-5.34,34.94,34.94,0,0,1-3.84-8.82H461.16v4.38l11.16-1-.06,2.88-11.1,1.08v6.12c0,2.1-.48,3.06-2.16,3.54s-4.38.54-8.94.54a19.42,19.42,0,0,0-1.26-3.18c3.36.12,6.48.06,7.38,0s1.2-.24,1.2-1v-5.7c-4.74.48-9.12.9-12.72,1.2l-.42-3.3c3.54-.24,8.1-.54,13.14-1v-4.68h-12.9v-3.18h12.9v-4.44c-3.78.42-7.68.72-11.28.91a12,12,0,0,0-.9-2.71c8.16-.48,18.18-1.55,23.52-2.94l2.52,2.58c-2.82.66-6.36,1.26-10.08,1.74v4.86h13.68a52.67,52.67,0,0,1-1.2-8.94h3.84a57.48,57.48,0,0,0,1.2,8.94h19v3.18H479.58a31.91,31.91,0,0,0,3.12,6.9,27.09,27.09,0,0,0,6.72-5.94Zm4.62-15.17h-53v-3.25H468.9V2014H450.3v-3.06h18.6v-4H447.06v-3.18h12.66a30,30,0,0,0-3.48-5.16l3.42-1.26a24.4,24.4,0,0,1,4.32,6.24l-.42.18H478.2a54.7,54.7,0,0,0,3.6-6.6l4.14,1.2c-1.2,1.86-2.52,3.84-3.72,5.4h12.84V2007H472.92v4h18.9V2014h-18.9v4.13h24.6Zm-5.7,9a34,34,0,0,0-9.48-5.52l2.16-2.46a38.32,38.32,0,0,1,9.66,5.22Z"/><path d="M533.46,2046.62a70.7,70.7,0,0,0,7.38.36c2.1.06,14.76,0,17.58-.06a16.36,16.36,0,0,0-1.44,3.84H540.72c-12.3,0-19.92-1.92-24.72-10.38a31.55,31.55,0,0,1-9.48,11.7,19.84,19.84,0,0,0-3.06-2.82c6.3-4.14,10.2-10.92,11.82-19.86l4,.6a55.92,55.92,0,0,1-1.5,6.06c2.34,5.64,6.3,8.52,11.7,9.84v-18.54H504.72v-3.6H557.4v3.6H533.46v7.08h20v3.6h-20Zm17.22-27.17h-39.6v-19.56h39.6Zm-4-16.44H515v5.16h31.68Zm0,8.1H515v5.27h31.68Z"/><path d="M594,2013.08a12.56,12.56,0,0,1-1.14,1.45c5.64,4.55,16.56,10.19,26.1,13a17.48,17.48,0,0,0-2.82,3.48,83.25,83.25,0,0,1-12.48-5.52v2.64H578.88l.06-2.1a83.4,83.4,0,0,1-12.6,5.82,14.89,14.89,0,0,0-2.64-3.24c11.46-3.9,21.54-10,26.52-17Zm-20.88-7.25a42,42,0,0,1-6.6,8.4,22.09,22.09,0,0,0-2.7-3.36,35.18,35.18,0,0,0,9.12-13.74l3.9,1c-.54,1.44-1.08,2.76-1.74,4.14h15.72v3.54Zm.84,27.41h34.5v18.48h-4v-2.22H577.8V2052H574Zm6.54-17.57a46.18,46.18,0,0,0-5.16-6.78l2.76-2.1a39.83,39.83,0,0,1,5.28,6.48Zm-2.7,21.11V2046h26.7v-9.18Zm24.42-12.06a89.18,89.18,0,0,1-11.58-7.61,51.09,51.09,0,0,1-9.6,7.61ZM597,2005.83a30.94,30.94,0,0,1-4.38,6,19.85,19.85,0,0,0-3.12-2.82,27.39,27.39,0,0,0,6.72-11.82l4,1a34.45,34.45,0,0,1-1.56,4.14h19.14v3.54Zm5.88.84a37.09,37.09,0,0,1,5.76,6.41l-2.88,2.34a38.25,38.25,0,0,0-5.58-6.71Z"/><path d="M677.94,2002.11v3.42H631.5v15.11a45.84,45.84,0,0,0,11-14.51l3.36,1a57.59,57.59,0,0,1-3.9,6.72v20.63h-3.42v-16.07a52.52,52.52,0,0,1-4.8,5.21c-.48-.48-1.44-1.5-2.22-2.16-.06,9.12-1,21.9-5.34,30.6a12.32,12.32,0,0,0-3.06-2.28c4.32-8.7,4.68-20.88,4.68-29.57v-18.06H652a34.48,34.48,0,0,0-3-4.68l3.36-1.26a29.4,29.4,0,0,1,3.84,5.94Zm-46.38,46.43c3.42-2.46,5.76-6.9,7-10.74l3.24,1.2c-1.5,4.14-3.66,8.7-7.14,11.52Zm17.16-30.47a36.6,36.6,0,0,1-3.66,4.19,23.07,23.07,0,0,0-2.82-2.27,41.85,41.85,0,0,0,9.72-13.92l3.42,1c-.72,1.5-1.5,3-2.34,4.55h9.48a19.67,19.67,0,0,0-3.3-4.49l2.76-1.38a25.35,25.35,0,0,1,3.9,5.16l-1.38.71h11.34v2.71H665.28v3.36h8.94v2.45h-8.94v3.54h9.12v2.46h-9.12v3.66h11.64v2.82H652.2v1.8h-3.48Zm13,30.11c2.1,0,2.46-.6,2.7-5.28a10,10,0,0,0,3.3,1.32c-.42,5.88-1.62,7.32-5.58,7.32h-10c-5.16,0-6.48-1-6.48-4.86V2038h3.72v8.7c0,1.26.42,1.5,3.06,1.5Zm-1-5.88a52.39,52.39,0,0,0-9.9-6.24l2.28-2.22a52.6,52.6,0,0,1,10.14,5.94Zm1-28h-9.6v3.36h9.6Zm0,5.81h-9.6v3.54h9.6Zm0,6h-9.6v3.66h9.6Zm7.2,11.1c3.42,3.42,7.2,8.16,8.82,11.4l-3.24,1.74c-1.5-3.3-5.16-8.16-8.58-11.64Z"/><path d="M704.52,2030.06l-3.66,3.12a93.63,93.63,0,0,0-13.32-13.38l3.42-3.11A118.53,118.53,0,0,1,704.52,2030.06Z"/><path d="M737.1,2010.62H713.58v-3.29H737.1Zm-2.4,37.92H719.88v2.82h-3.54v-20H734.7Zm-18.3-33.23h18.48v3.23H716.4Zm0,8h18.48v3.23H716.4Zm3.48,11.39v10.56H731.1v-10.56Zm4.68-27.53a27.9,27.9,0,0,0-2.82-8.22l2.88-1.14a23.46,23.46,0,0,1,3.06,8Zm43.92,21H754.86V2052h-4v-23.82H736.68v-3.77h14.16v-14.29h-6.6a44.74,44.74,0,0,1-5.7,10,28.83,28.83,0,0,0-3.54-2.21c4.32-5,7.5-12.66,9.24-20.58l4,.78c-.72,2.88-1.56,5.7-2.46,8.34h21.54v3.71H754.86v14.29h13.62Z"/><path d="M827.64,2005.65H820.2v40.43c0,3-.78,4.38-2.94,5.1-2.34.72-6.42.72-12.24.72a26,26,0,0,0-1.74-4.32c4.92.24,9.72.18,11.16.12,1.26-.06,1.68-.48,1.68-1.68v-40.37H774.6v-4h53Zm-43,31.19v4.8h-3.84v-26.87h24.24v22.07Zm0-18.3v14.52h16.5v-14.52Z"/><path d="M846.18,2015.67a9.06,9.06,0,1,1-9.06,9A9.09,9.09,0,0,1,846.18,2015.67Zm0,15.23a6.18,6.18,0,1,0,0-12.36,6.18,6.18,0,1,0,0,12.36Z"/><rect class="cls-2" x="1113" y="450" width="65" height="126" rx="12"/><path class="cls-1" d="M1132.7,479.82c1.25,1.6,4.9,6.7,5.7,8.05l-2,2.45c-.7-1.5-2.35-4.4-3.75-6.65V510h-3.15V485.57c-1.5,5.05-3.5,9.9-5.55,12.85a14.83,14.83,0,0,0-1.75-3.1c2.9-4,5.8-11.5,7.2-18h-6.2v-3.15h6.3v-9.65h3.15v9.65h5.45v3.15h-5.45Zm19.1.7a19.47,19.47,0,0,0,.45,2.65c-10.15,2.7-11.6,3.15-12.5,3.75a12.13,12.13,0,0,0-1.1-3.2c.7-.2,1.55-.5,1.55-2.2v-16.7h3.25v6.5h8.35v2.9h-8.35v8.3Zm2.35,5.5-2,3.75h12.65V510h-3.4v-1.75h-17v2h-3.3V489.77h7.9c.55-1.5,1.2-3.25,1.55-4.6Zm7.3,6.5h-17v5.05h17Zm0,13v-5.3h-17v5.3Zm2.25-22.4c1.25,0,1.5-.75,1.65-5.25a9.16,9.16,0,0,0,2.85,1.25c-.3,5.45-1.2,6.95-4.15,6.95h-5.85c-3.65,0-4.55-.95-4.55-4.45V464.87h3.25v6.5h10.2v2.9h-10.2v7.35c0,1.3.25,1.5,1.65,1.5Z"/><path class="cls-1" d="M1167.55,539.87v2.5H1123.4v-2.5h20.25v-3.2H1126.8v-2.3h16.85v-3H1128.2v-2.25h15.45v-3.2H1123.5v-2.5h20.15v-3H1128.8V518h14.85v-3.55h3.25V518h14.45v5.4h6.15v2.5h-6.15v5.45H1146.9v3h17.3v2.3h-17.3v3.2Zm-37.75,5h31.75v15.25h-3.25v-1.6H1133v1.7h-3.2Zm3.2,2.4v3.2h25.3v-3.2Zm25.3,8.85v-3.4H1133v3.4Zm-11.4-32.7h11.15v-3H1146.9Zm0,5.7h11.15v-3.2H1146.9Z"/><rect class="cls-2" x="1113" y="1233" width="65" height="271" rx="12"/><path class="cls-1" d="M1158.05,1272.79a27.61,27.61,0,0,0,11.5,8.1,11.65,11.65,0,0,0-2.15,2.55,30.77,30.77,0,0,1-12.8-10.65h-15.95a34.39,34.39,0,0,1-13,11.3,11.43,11.43,0,0,0-2.15-2.55,30.39,30.39,0,0,0,11.6-8.75H1124v-2.85h10v-16.15h-7.7V1251h7.7v-5h3.3v5h18.55v-5h3.35v5h7.65v2.8h-7.65v16.15h9.8v2.85Zm-10,14.5h17.3v2.85H1127.8v-2.85h16.9v-5.6h-10.45v-2.8h10.45v-4.4h3.35v4.4h10.65v2.8h-10.65Zm-10.8-33.5v3.6h18.55v-3.6Zm0,9.8h18.55v-3.65h-18.55Zm0,6.35h18.55v-3.8h-18.55Z"/><path class="cls-1" d="M1142.25,1314.54s0,1.15,0,1.55c-.6,15.85-1.2,21.2-2.6,23a3.71,3.71,0,0,1-2.8,1.45,32.65,32.65,0,0,1-4.45,0,9.25,9.25,0,0,0-.85-3c1.75.15,3.2.15,3.9.15a1.42,1.42,0,0,0,1.45-.65c1-1.2,1.6-6,2.15-19.35h-6.8c-.55,10-2,18.25-6.45,23.65a9.53,9.53,0,0,0-2.55-2.35c5.45-6.45,5.9-17.85,6.1-31.55h-5.2v-3.1h20.1v3.1h-11.65c0,2.45-.1,4.85-.2,7.15Zm-7.9-10.45a33.47,33.47,0,0,0-4.25-7.15l2.9-1.15a31.92,31.92,0,0,1,4.4,7Zm23.85-7.45a15.26,15.26,0,0,1-.85,2.55c2.65,5.45,7.7,11.35,12.45,14a13,13,0,0,0-2.45,2.75c-4.25-2.7-8.5-8-11.4-13.3a32.61,32.61,0,0,1-11,13.6,12.79,12.79,0,0,0-2.35-2.65c5.85-3.6,10.35-10.2,12.5-17.85Zm-8.3,32.45a74,74,0,0,1,13.6,8.25l-2.25,2.9c-2.85-2.6-8.75-6.3-13.4-8.65Zm9.5-4.85a66.22,66.22,0,0,0-8.6-6.85l2.15-2.2a67.46,67.46,0,0,1,8.75,6.55Z"/><path class="cls-1" d="M1165,1349.19v29.3h-3.5v-2.55h-13.3v15.6h-3.45v-15.6h-13.4v2.75H1128v-29.5Zm-33.65,3.2V1361h13.4v-8.65Zm13.4,20.35v-8.5h-13.4v8.5Zm16.75-20.35h-13.3V1361h13.3Zm0,20.35v-8.5h-13.3v8.5Z"/><path class="cls-1" d="M1167.25,1411.09v9.3h-3.15V1414h-35.4v6.4h-3v-9.3h6.95v-12.95h27.7v12.95Zm-6.45,26.6c0,1.85-.45,2.7-1.85,3.2s-3.9.5-7.7.45a8.57,8.57,0,0,0-1.1-2.75c3,.05,5.65.05,6.4.05s1-.25,1-1v-6.2c-7.3,1.45-14.85,3-20.45,4l-1.1-3c5.4-.8,13.6-2.3,21.55-3.75V1420h-22.2v5.3c0,4.85-.65,11.55-4.35,16.2a13.29,13.29,0,0,0-2.7-2c3.45-4.25,3.85-10,3.85-14.25v-8h28.6Zm-25-26.6h7.45v-6.9H1157v-3.35h-21.2Zm2.45,11.7a75.14,75.14,0,0,1,17.7,3l-.9,2.6c-4-1.5-11.7-2.9-17.7-3.35Zm18.75-16.3h-10.75v4.6H1157Z"/><path class="cls-1" d="M1161,1458.09a51.83,51.83,0,0,1-12,19.6,49.94,49.94,0,0,0,20.5,10.5,16.79,16.79,0,0,0-2.25,3,50.92,50.92,0,0,1-20.75-11.1c-5.65,5-12.55,8.6-21,11.3a15.53,15.53,0,0,0-2-3.05c8.35-2.45,15.1-5.9,20.6-10.6a57.05,57.05,0,0,1-12.2-19.65h-7.75v-3.25h44.75v3.25Zm-25.75,0a52.13,52.13,0,0,0,11.3,17.3,47.46,47.46,0,0,0,10.7-17.3Zm11.25-3.55a38.13,38.13,0,0,0-3.8-7.8l3.4-1a39,39,0,0,1,4,7.65Z"/><path d="M594.81,1274.45a221.61,221.61,0,0,1,25.4,16.88l-5.16-4A226,226,0,0,1,655.58,1328l-4-5.16a250.7,250.7,0,0,1,31.84,54.9l-2.57-6.09c10.63,25.24,18,51.94,22.94,78.84q2.15,11.67,3.72,23.42l-.91-6.78a635.12,635.12,0,0,1,5,88.7c-.23,29.51-2,59-4.27,88.42-1.28,16.55-2.73,33.09-4.17,49.62-.53,6.18,3.23,13.8,7.47,18,4.43,4.43,11.68,7.76,18,7.47,6.6-.29,13.44-2.46,18-7.47l4-5.16a25.27,25.27,0,0,0,3.48-12.87c2.9-33.35,5.85-66.72,7.39-100.17s1.67-67.15-1.15-100.6c-3-35.56-8.83-71.09-19.55-105.17-9.23-29.38-21.77-58-39.62-83.23a264.31,264.31,0,0,0-31.51-37.31,251.6,251.6,0,0,0-39.42-31.08c-3.21-2-6.47-4-9.77-5.89a26.52,26.52,0,0,0-19.65-2.57c-5.92,1.63-12.33,6.2-15.24,11.72-3.13,5.92-4.69,13.09-2.57,19.65,2,6.29,5.85,11.9,11.72,15.24Z"/><line class="cls-3" x1="606.52" y1="1252.75" x2="443.84" y2="1480.25"/><circle class="cls-3" cx="564.5" cy="1144.5" r="107.5"/></svg>