<svg id="Layer_1" data-name="Layer 1" xmlns="http://www.w3.org/2000/svg" viewBox="0 0 1242 2208"><defs><style>.cls-1{fill:#f6eabe;}.cls-2{fill:#999;}.cls-3{fill:none;stroke:#000;stroke-linecap:round;stroke-miterlimit:10;stroke-width:50px;}</style></defs><rect class="cls-1" width="1242" height="2208"/><path d="M889.37,777.4c33.35,0,38.11-21.44,42.08-144.51,12.7,10.33,34.14,19.06,49.23,23.82C974.33,790.9,960,826.63,893.34,826.63H775.83c-67.49,0-86.55-17.47-86.55-81.78V455h-154c-15.09,171.5-54,311.25-235,384.29-6.35-11.91-21.44-31.76-33.35-40.49C436.79,734.53,467,606.69,478.88,455H274V403.43H968.77V455H743.28V744.85c0,26.2,6.35,32.55,38.11,32.55Zm13.5-545.47H343.1V181.11H902.87Z"/><path d="M365,1780.49H350.22v35.15h-4v-38.87H365Z"/><path d="M416.28,1827.16c2.52,0,2.88-1.62,3.18-10.92a12.56,12.56,0,0,0,3.72,1.8c-.48,10.14-1.56,12.84-6.6,12.84H407.7c-5.1,0-6.54-1.32-6.54-6.18v-21.9H389.52c-1.14,13-4.08,23.52-17.76,29a11.07,11.07,0,0,0-2.52-3.06c12.84-4.86,15.12-14.52,16-26H369.78v-3.89h52.5v3.89h-17v21.9c0,2,.48,2.46,2.88,2.46Zm1-41.21H375v-3.84h42.3Z"/><path d="M427,1828.84h14.82v-35.15h4v38.87H427Z"/><path d="M476,1790.62a64.7,64.7,0,0,1-5.34,7.92v33.66H467v-29.28a74.28,74.28,0,0,1-7.14,6.78,29.45,29.45,0,0,0-2.34-3.48,58.73,58.73,0,0,0,15-16.85Zm-1.44-11.87a59.36,59.36,0,0,1-14.1,14.1,20.64,20.64,0,0,0-2.28-2.82c4.74-3.24,10.14-8.4,12.78-12.66Zm22.2,48.59a31.51,31.51,0,0,0,5.46.42c1.26.06,9.36,0,11.22,0a10.05,10.05,0,0,0-1.32,3.6H502c-9.06,0-15.3-2.22-19.14-11.4a26.48,26.48,0,0,1-7.26,11.82,28.42,28.42,0,0,0-3.12-2.52c6.18-5,8.4-13.2,8.94-24.3l3.84.3a74,74,0,0,1-1,8.88c1.86,6.78,4.86,10.38,8.88,12.12v-25.68h.48a25.66,25.66,0,0,0-2.88-2.21c6.12-4.45,9.48-11.64,10.8-20.94l3.84.48a50.08,50.08,0,0,1-2.4,9.72,78.36,78.36,0,0,1,10.74,10.62L510.9,1801a80.5,80.5,0,0,0-9.36-10,28.48,28.48,0,0,1-7.26,9.59h2.52v10.32h13.62v3.48H496.8Zm-5.22-30.84a61,61,0,0,0-6.18-6,36.85,36.85,0,0,1-7.92,11.34,19,19,0,0,0-3-2.76c5.64-4.85,9.24-12.59,11-21.71l3.9.6a60.12,60.12,0,0,1-2.64,9.3,60.56,60.56,0,0,1,6.78,6.12Z"/><path d="M545,1780.49H530.22v35.15h-4v-38.87H545Z"/><path d="M596.94,1827.22c2.16,0,2.46-1.86,2.76-9.9a12.28,12.28,0,0,0,3.9,1.86c-.48,9.06-1.56,12.06-6.36,12.06H588.6c-5,0-6.42-1.56-6.42-7.08v-36.77H567.6v10.32c0,11.57-1.62,25-16.32,34.61a11.83,11.83,0,0,0-2.88-3.12c13.74-8.94,15.12-21.18,15.12-31.55v-10.26h-13.2v-4h51.42v4h-15.3v36.83c0,2.52.42,3,2.64,3Z"/><path d="M607,1828.84h14.82v-35.15h4v38.87H607Z"/><path d="M658.2,1780.31c-3.36,10.26-9.24,18.65-16.38,24.23a26.38,26.38,0,0,0-3.36-2.87c7.2-5,12.66-13,15.6-22.32ZM684.48,1800s0,1.43-.06,2c-.9,18.6-1.8,25.44-3.84,27.72a6,6,0,0,1-4.56,2,90.37,90.37,0,0,1-9.48-.18,9.12,9.12,0,0,0-1.32-4c4,.36,7.8.42,9.24.42,1.26,0,1.92-.12,2.52-.78,1.56-1.5,2.46-7.62,3.24-23.28H664.08c-1.56,11.94-5.46,22.86-20.64,28.38a17.07,17.07,0,0,0-2.58-3.42c14.34-4.74,17.58-14.58,19-25H647.22V1800Zm-7.62-21.54c3.06,9.48,9.6,18.17,17.1,22.5a21.07,21.07,0,0,0-2.88,3.53c-7.32-4.8-13.68-13.19-17.1-22.31h-10.8v-3.72Z"/><path d="M718.8,1778.75a92,92,0,0,1-6.12,11.52V1832H708.9v-36.23a67.54,67.54,0,0,1-8.58,9.65,38.46,38.46,0,0,0-2.28-3.9c6.66-5.7,13.14-14.69,17-24Zm25.68,47.45c3.42,0,3.9-2.7,4.38-13a8.92,8.92,0,0,0,3.72,1.8c-.66,11.1-1.8,14.88-8,14.88H733c-5.7,0-7.44-1.68-7.44-7.68v-43.91h3.84v16.5h21.36v3.84H729.36v23.69c0,3.18.72,3.9,3.84,3.9Z"/><path d="M787.68,1784.69c-.84,3.12-1.8,6.42-2.7,9.06h24.66v32.93c0,2.46-.54,3.6-2.22,4.26s-4.8.72-9.12.72a12.47,12.47,0,0,0-1.38-3.78c3.54.12,6.6.06,7.5,0s1.2-.3,1.2-1.2v-29.22H794.94V1830h-4v-32.58H780.54V1830h-3.9v-32.58h-10V1832h-4v-38.27h18.24c.84-2.71,1.56-6.12,2.16-9.06H759.48v-4h53.34v4Z"/><path d="M847.86,1804.12c5.34,9.18,15.54,17.82,25.68,21.66a14.63,14.63,0,0,0-2.88,3.54c-8.46-3.72-16.86-10.74-22.8-18.78V1832h-4V1810.6a63.16,63.16,0,0,1-22.5,18.48,17.92,17.92,0,0,0-2.82-3.3,58.29,58.29,0,0,0,25.32-21.3v-14.75H820.56v-3.9h23.28v-8.4h4v8.4h24.06v3.9H847.86ZM835,1792a48.37,48.37,0,0,1-2.4,7.21,79.05,79.05,0,0,1,7,6.83l-2.76,2.71a66.48,66.48,0,0,0-5.88-6.07,32.44,32.44,0,0,1-7.74,9.6c-.66-.66-2.28-1.92-3.12-2.58,5.46-4.08,9.24-10.62,11-18.41Zm28.26,0a53.26,53.26,0,0,1-2.1,7.2,128,128,0,0,1,11,9.47l-2.82,2.76a100,100,0,0,0-9.72-8.93,28.54,28.54,0,0,1-5.46,7.49,22.47,22.47,0,0,0-3.36-2.22c4.44-3.72,7.26-9.6,8.58-16.43Z"/><path d="M884.88,1813c4.68-2,7.26-4.86,7.56-9.17a4,4,0,0,1-1.14.11c-2.34,0-4.26-1.32-4.26-4.07a4,4,0,0,1,4.32-4.08c3.18,0,4.86,2.58,4.86,6.66,0,6.41-4,11.21-10.08,13.43Z"/><path d="M389.16,1862.62a67.64,67.64,0,0,1-7.2,12.25v28.85h-4v-24a41.57,41.57,0,0,1-7.26,6.41,17,17,0,0,0-2-3.48c7-5,12.3-12.23,16.14-20H370v-3.83h16.44a65.25,65.25,0,0,0,3.3-9.42l4.08,1c-.9,2.82-1.86,5.64-3,8.4H422.1v3.83Zm32.94,36.24v3.72H386v-3.72h16v-17.52H388.32v-3.72H402v-11.81h4v11.81h13.8v3.72H406v17.52Z"/><path d="M455,1852.49H440.22v35.15h-4v-38.87H455Z"/><path d="M506.94,1899.22c2.16,0,2.46-1.86,2.76-9.9a12.28,12.28,0,0,0,3.9,1.86c-.48,9.06-1.56,12.06-6.36,12.06H498.6c-5,0-6.42-1.56-6.42-7.08v-36.77H477.6v10.32c0,11.57-1.62,25-16.32,34.61a11.83,11.83,0,0,0-2.88-3.12c13.74-8.94,15.12-21.18,15.12-31.55v-10.26h-13.2v-4h51.42v4h-15.3v36.83c0,2.52.42,3,2.64,3Z"/><path d="M517,1900.84h14.82v-35.15h4v38.87H517Z"/><path d="M602.76,1897.18v4H549.3v-4h22.62v-46.85h4.14v18.54h22.62v4H576.06v24.3Z"/><path d="M618.6,1874.92a46.35,46.35,0,0,0-10-6l2.22-2.93a42.79,42.79,0,0,1,10.08,5.69Zm-8.7,26a175.81,175.81,0,0,0,8.28-18.06l3.12,2.22c-2.22,5.94-5.22,12.9-7.8,18.12Zm11-41.57a40.18,40.18,0,0,0-9.54-6.54l2.34-2.88c3.36,1.62,7.56,4.2,9.6,6.3Zm17.76,9.42A35.34,35.34,0,0,1,623.76,1884a17.19,17.19,0,0,0-2.46-3.06,31.18,31.18,0,0,0,13-12.23H622.8v-3.67h13.38a47.71,47.71,0,0,0,2.88-8.57h-13.5v-3.66H661v3.66h-17.7a59.28,59.28,0,0,1-2.82,8.57h22.5v3.67h-12.3A32.06,32.06,0,0,0,663.9,1880a19.2,19.2,0,0,0-2.58,3.12,36.2,36.2,0,0,1-14.76-14.39Zm-5,14.39c-1.5,4.92-3.9,10.5-7.86,13.92l-2.94-2.16c3.78-3.06,6.3-8.34,7.68-12.9Zm4.32-7.56h3.72v23.94c0,2.1-.42,3.24-1.92,3.84s-4.14.66-8.22.66a13.22,13.22,0,0,0-1.14-3.6c3.12.06,5.76,0,6.6,0s1-.24,1-1Zm9.66,7.32a58.91,58.91,0,0,1,4.2,12.66l-3.3,1.2a60.53,60.53,0,0,0-4-12.78Zm7.38-2c3.54,4.56,7.26,10.62,8.82,14.64l-3.3,1.74a69.1,69.1,0,0,0-8.58-14.88Z"/><path d="M723.36,1873.91v4.31H668.88v-4.31Z"/><path d="M746.7,1883.92c-.9-1.92-3.24-5.88-5.1-8.88v28.8h-3.66v-29.16c-2,7.14-4.86,14-7.68,18.3a24,24,0,0,0-2.28-4c3.72-5,7.5-14.75,9.3-23h-8.1v-3.77h8.76v-12.84h3.66v12.84h7.26v3.77H741.6v4.2c1.68,2.17,6.3,8.76,7.38,10.32ZM761.82,1896a50.05,50.05,0,0,1-13.74,8.22c-.54-.84-1.62-2-2.34-2.94,4.5-1.68,10-4.8,12.6-7.44Zm21.54-24.24H747.42v-3.23h36Zm-27.3-13.61h-7.8v-3.12h7.8v-4.8h3.6v4.8h11v-4.8h3.72v4.8h8v3.12h-8V1866h-18.3ZM750.54,1893v-17.87h29.64V1893Zm3.6-10.32h9.06v-4.55h-9.06Zm0,7.32h9.06v-4.62h-9.06Zm5.52-31.85v5h11v-5Zm16.8,20h-9.54v4.55h9.54Zm0,7.25h-9.54V1890h9.54Zm-4.32,8.46a88.84,88.84,0,0,1,11.64,7.74l-3.18,2.58a84.32,84.32,0,0,0-11-7.86Z"/><path d="M842.76,1876.91v2.81h-53.4v-2.81h24.48v-3.42H794v-2.58h19.86v-3.3H795.42V1865h18.42v-3.54H789.42v-2.58h24.42v-3.3H795.78v-2.52h18.06v-3.78h3.9v3.78H836v5.82h6.54v2.58H836v6.12h-18.3v3.3h20.64v2.58H817.74v3.42Zm-53.4,22.43h53.4v2.88h-53.4Zm46.8-16.86v13.86h-40v-13.86Zm-36.18,5.7h14v-3.24H800Zm0,5.76h14v-3.36H800Zm32.16-9H817.62v3.24h14.52Zm0,5.64H817.62v3.36h14.52Zm-14.4-31.67h14.34v-3.3H817.74Zm0,6.12h14.34v-3.54H817.74Z"/><path d="M861.18,1867.67a9.06,9.06,0,1,1-9.06,9A9.09,9.09,0,0,1,861.18,1867.67Zm0,15.23a6.18,6.18,0,1,0,0-12.36,6.18,6.18,0,1,0,0,12.36Z"/><path d="M492.9,1938.17c4.44,10.31,12.24,20,20.76,24.71a23.11,23.11,0,0,0-3.06,3.36c-9-5.58-16.92-16.32-21.6-28.07h-1v22.43h14.28v4H488V1976H483.9v-11.4H469.68v-4H483.9v-22.43h-1.08c-4.74,11.75-12.66,22.43-21.3,28.25a24.18,24.18,0,0,0-2.88-3.18c8-4.92,15.66-14.76,20.16-25.07H460.14v-4H483.9v-12.72H488v12.72h24v4Z"/><path d="M567.9,1960.54a33.64,33.64,0,0,1-8.22,7.38c2.4,2.82,5.22,4.44,8.16,4.38,1.68-.06,2.16-1.5,2.46-5.94a10.31,10.31,0,0,0,3.12,1.62c-.6,6.3-2.1,7.92-5.76,8-4.26,0-8.16-2.22-11.28-6a74.41,74.41,0,0,1-13.68,5.82,36.46,36.46,0,0,0-2.1-3.24,65.61,65.61,0,0,0,13.86-5.34,34.94,34.94,0,0,1-3.84-8.82H536.16v4.38l11.16-1-.06,2.88-11.1,1.08v6.12c0,2.1-.48,3.06-2.16,3.54s-4.38.54-8.94.54a19.42,19.42,0,0,0-1.26-3.18c3.36.12,6.48.06,7.38,0s1.2-.24,1.2-1v-5.7c-4.74.48-9.12.9-12.72,1.2l-.42-3.3c3.54-.24,8.1-.54,13.14-1v-4.68h-12.9v-3.18h12.9v-4.44c-3.78.42-7.68.72-11.28.91a12,12,0,0,0-.9-2.71c8.16-.48,18.18-1.55,23.52-2.94l2.52,2.58c-2.82.66-6.36,1.26-10.08,1.74v4.86h13.68a52.67,52.67,0,0,1-1.2-8.94h3.84a57.48,57.48,0,0,0,1.2,8.94h19v3.18H554.58a31.91,31.91,0,0,0,3.12,6.9,27.09,27.09,0,0,0,6.72-5.94Zm4.62-15.17h-53v-3.25H543.9V1938H525.3v-3.06h18.6v-4H522.06v-3.18h12.66a30,30,0,0,0-3.48-5.16l3.42-1.26a24.4,24.4,0,0,1,4.32,6.24l-.42.18H553.2a54.7,54.7,0,0,0,3.6-6.6l4.14,1.2c-1.2,1.86-2.52,3.84-3.72,5.4h12.84V1931H547.92v4h18.9V1938h-18.9v4.13h24.6Zm-5.7,9a34,34,0,0,0-9.48-5.52l2.16-2.46a38.32,38.32,0,0,1,9.66,5.22Z"/><path d="M608.46,1970.62a70.7,70.7,0,0,0,7.38.36c2.1.06,14.76,0,17.58-.06a16.36,16.36,0,0,0-1.44,3.84H615.72c-12.3,0-19.92-1.92-24.72-10.38a31.55,31.55,0,0,1-9.48,11.7,19.84,19.84,0,0,0-3.06-2.82c6.3-4.14,10.2-10.92,11.82-19.86l4,.6a55.92,55.92,0,0,1-1.5,6.06c2.34,5.64,6.3,8.52,11.7,9.84v-18.54H579.72v-3.6H632.4v3.6H608.46v7.08h20v3.6h-20Zm17.22-27.17h-39.6v-19.56h39.6Zm-4-16.44H590v5.16h31.68Zm0,8.1H590v5.27h31.68Z"/><path d="M668.28,1921.55c-.06,2.1-.12,5.1-.42,8.64.9,7,4.56,32.51,25.74,42a12.63,12.63,0,0,0-2.88,3.36c-15.42-7.26-21.72-22.74-24.6-34-2.64,12.23-8.94,26.33-24.06,34.19a13.77,13.77,0,0,0-3.12-3.06c25-12.48,24.78-42.11,25-51.11Z"/><path d="M723.54,1967.2c-8.52,2-17.46,4-24,5.34l-1-3.72c6.18-1.14,15.6-3.06,24.72-5Zm-.72-38.81h-23.4v-3.72h23.4Zm-1.44,21.9H701v-16h20.34Zm-16.44,14.45a41.62,41.62,0,0,0-2.34-11.28l3.24-.78a37.26,37.26,0,0,1,2.58,11.16Zm12.78-27h-13.2v9.23h13.2ZM713,1964.26a85,85,0,0,0,2.7-12.12l3.9,1c-1.08,4.07-2.4,8.93-3.54,12Zm22.5,3.9c-3.18,3.12-8.46,6.12-13.08,7.86a22.91,22.91,0,0,0-2.7-2.7c4.68-1.56,9.84-4.56,12.24-7.14Zm-.72-34.43c.48-1.86,1-4,1.26-5.94H724.44v-3.54h28.74v3.54H740.4c-.54,2-1.14,4.14-1.74,5.94H751.2v31H726.36v-31Zm12.66,3.18H730v6.17h17.4Zm0,9.11H730v6.24h17.4Zm0,9.3H730v6.24h17.4Zm-3.36,11.16a75.29,75.29,0,0,1,10.32,7.38l-3.24,2.16A66.38,66.38,0,0,0,741,1968.4Z"/><path d="M771.18,1939.67a9.06,9.06,0,1,1-9.06,9A9.09,9.09,0,0,1,771.18,1939.67Zm0,15.23a6.18,6.18,0,1,0,0-12.36,6.18,6.18,0,1,0,0,12.36Z"/><path d="M338.7,2023.06s-.06,1.32-.12,1.86c-1.08,13.56-2.1,18.84-4.08,20.82-1.26,1.32-2.46,1.68-4.56,1.8a90.37,90.37,0,0,1-9.48-.18,8,8,0,0,0-1.44-4c4,.36,8,.36,9.48.36s2-.06,2.58-.6c1.5-1.2,2.4-5.7,3.3-16.32h-22.8c1.14-4.56,2.46-11.63,3.24-17.09H334.5v-10.08h-22v-3.78H338.4v17.58H318.3c-.6,3.3-1.2,6.71-1.86,9.65Zm18.36-29.15V2048h-4v-54.11Z"/><path d="M419.28,2001.23v33.29H415.2v-3.18H397.92v16.5h-4.14v-16.5H377v3.54h-4v-33.65h20.76v-7.92h4.14v7.92Zm-42.3,3.84v9.18h16.8v-9.18Zm16.8,22.49V2018H377v9.6Zm4.14-22.49v9.18H415.2v-9.18Zm17.28,22.49V2018H397.92v9.6Z"/><path d="M481.74,2025.17s-.06,1.19-.12,1.73c-1.14,12.66-2.28,17.64-4.14,19.56a5.52,5.52,0,0,1-4,1.56,66.58,66.58,0,0,1-7.5-.12,9.39,9.39,0,0,0-1.2-3.66c3.12.3,6.06.3,7.2.3a3,3,0,0,0,2.22-.54c1.26-1.32,2.4-5.34,3.36-15.3H440a59.21,59.21,0,0,1-9.66,7.32,19.86,19.86,0,0,0-2.22-3.3c10.26-6,17.82-15.18,23.1-25.43h-20v-3.66H453a82.29,82.29,0,0,0,3.84-10.32l3.9,1a92.32,92.32,0,0,1-3.54,9.3H473c-.72,3.48-1.56,7.62-2.34,10.74h7c-.66,3.47-1.5,7.67-2.28,10.8Zm-49.38,20.33c3.42-3.24,5.7-8.58,7-13.2l3.3,1.08c-1.44,4.92-3.54,10.62-7.14,14.16Zm12.42-42.17a39,39,0,0,0-6-8.34l3.42-1.44a39.57,39.57,0,0,1,6.18,8Zm26.82,21.84c.54-2.11,1.08-4.69,1.56-7.21H449.34a75.18,75.18,0,0,1-5.76,7.21Zm-21.48,7.91a44,44,0,0,1,1.8,11.88l-3.48.54a39.57,39.57,0,0,0-1.62-11.94Zm5.4-25.79c-1.14,2.4-2.46,4.79-3.84,7.08h15.24c.54-2,1.14-4.62,1.62-7.08Zm3.18,25a43,43,0,0,1,3.6,10.26l-3.3.9a45.91,45.91,0,0,0-3.42-10.44Zm10.32,8a38.83,38.83,0,0,0-4.56-8.1l2.76-1.08a34.18,34.18,0,0,1,4.74,7.86Z"/><path d="M518.4,2005.37c-.66,2-1.32,4.13-2,5.88h19.26V2048H531.6v-3.54H500.34V2048h-3.9v-36.77h15.78c.6-1.8,1.14-4,1.56-5.88H489.36v-3.72H505.2a49.7,49.7,0,0,0-5.16-7l3.42-1.5a33.65,33.65,0,0,1,5.64,7.14l-2.58,1.38h16.26a60,60,0,0,0,5.58-8.4l4.38,1.2a78.25,78.25,0,0,1-5.52,7.2h15.54v3.72Zm13.2,9.42H500.34v6.35H531.6Zm0,9.59H500.34v6.54H531.6Zm0,16.5v-6.72H500.34v6.72Z"/><path d="M567.3,1994.63a90.29,90.29,0,0,1-6.18,12.84v40.43h-4v-34.19a70.15,70.15,0,0,1-6.36,7.79,23.56,23.56,0,0,0-2.28-3.9c5.94-5.81,11.58-14.81,15.06-24Zm35.76,47v3.84H565.62v-3.84h21.06a266.82,266.82,0,0,0,5.88-30.05l4.14.77c-1.56,9.24-4,21.18-6.3,29.28Zm-2.52-33.47H568.26v-3.84h32.28Zm-24.12,30.53a209.72,209.72,0,0,0-4.2-25.8l3.6-.71a205.18,205.18,0,0,1,4.56,25.37Zm6.84-35.21a72.34,72.34,0,0,0-2.88-9.48l3.72-1a88.64,88.64,0,0,1,3.06,9.36Z"/><path d="M629.52,2026.06l-3.66,3.12a93.63,93.63,0,0,0-13.32-13.38l3.42-3.11A118.53,118.53,0,0,1,629.52,2026.06Z"/><path d="M668.4,2005.37c-.66,2-1.32,4.13-2,5.88h19.26V2048H681.6v-3.54H650.34V2048h-3.9v-36.77h15.78c.6-1.8,1.14-4,1.56-5.88H639.36v-3.72H655.2a49.7,49.7,0,0,0-5.16-7l3.42-1.5a33.65,33.65,0,0,1,5.64,7.14l-2.58,1.38h16.26a60,60,0,0,0,5.58-8.4l4.38,1.2a78.25,78.25,0,0,1-5.52,7.2h15.54v3.72Zm13.2,9.42H650.34v6.35H681.6Zm0,9.59H650.34v6.54H681.6Zm0,16.5v-6.72H650.34v6.72Z"/><path d="M718.08,2031.52H699.24v-4h18.84Zm-1.92-24.77h-15.6v-3.84h15.6Zm17.46,8c0,1,0,1.92-.06,3,2.82,12.77,8.94,22.49,20,26.33a15.63,15.63,0,0,0-2.64,3.48c-9.3-3.72-15.06-11.16-18.54-21.3-1.92,7.62-6.84,15.6-18.72,21.84a18,18,0,0,0-2.94-3.12c17.46-9,18.72-21.54,18.72-30.3v-4.43h4.2Zm-9.54-7.08a57,57,0,0,1-6.24,12.54,23.73,23.73,0,0,0-3.9-2.23c4.56-5.87,7.8-15.17,9.6-24.59l4.32.72c-.72,3.3-1.56,6.54-2.52,9.6h22.5l.78-.24,2.88,1.56a82.3,82.3,0,0,1-6.24,16c-.84-.48-2.4-1.25-3.36-1.67a68.58,68.58,0,0,0,4.62-11.7Z"/><path d="M779.52,2026.06l-3.66,3.12a93.63,93.63,0,0,0-13.32-13.38l3.42-3.11A118.53,118.53,0,0,1,779.52,2026.06Z"/><path d="M795.48,2015.8V2048h-3.9V1996h21.54v19.85Zm0-16.73v5.16h13.86v-5.16Zm13.86,13.62v-5.52H795.48v5.52Zm14.4,20.57v13.56H820.2v-13.56h-8.94c-.42,4-2.22,10.44-8.22,14.34a14.83,14.83,0,0,0-2.64-2.4,15.38,15.38,0,0,0,7.32-11.94h-7.8v-3.36h7.86v-6.84h-6.66v-3.35h29.7v3.35h-7.08v6.84h8.4v3.36Zm-3.54-3.36v-6.84h-8.88v6.84Zm20.52,12.72c0,2.52-.6,3.84-2.28,4.56s-4.68.72-9.24.72a13,13,0,0,0-1.26-4c3.42.12,6.66.12,7.56.06s1.32-.36,1.32-1.32v-26.75H818.64V1996h22.08Zm-18.24-43.55v5.16h14.34v-5.16Zm14.34,13.68v-5.58H822.48v5.58Z"/><path d="M868.44,2009.75c-.06,6.78-.6,14.87-4.32,22.67a79.79,79.79,0,0,1,7.08,6.78l-2.46,3.18a65.5,65.5,0,0,0-6.48-6.54A41.63,41.63,0,0,1,850.8,2048a11.31,11.31,0,0,0-2.7-2.64,38.25,38.25,0,0,0,11.28-12c-3-2.58-6.24-5.16-9.18-7.32a150.35,150.35,0,0,0,4.2-15.42l-5.58.37-.42-3.72,6.78-.3c1-4.62,1.8-9.36,2.28-13.38l3.66.3c-.54,4-1.38,8.46-2.22,13l5.94-.31v-4.61h3.6v4.44l2.94-.18-.06,3.42Zm-10.38.71c-1.08,5.16-2.4,10.21-3.6,14.29,2.16,1.61,4.5,3.41,6.72,5.21,3.12-7,3.6-14,3.66-19.92Zm35.58-8.39a78.28,78.28,0,0,1,10.2,16.73l-3.42,1.68c-.48-1.19-1.14-2.69-1.92-4.19-22.38,1.62-24.9,1.85-26.52,2.51a26.66,26.66,0,0,0-1.32-3.84c1.14-.24,2.28-1.67,3.84-3.89a100.69,100.69,0,0,0,9.78-17.82l4.08,1.26A122.69,122.69,0,0,1,876.9,2014l19.68-1.2a94.32,94.32,0,0,0-6.06-9.23ZM873.9,2023.9h26.16v23.94h-3.84v-2.46h-18.6V2048H873.9Zm3.72,3.6v14.28h18.6V2027.5Z"/><path d="M921.18,2011.67a9.06,9.06,0,1,1-9.06,9A9.09,9.09,0,0,1,921.18,2011.67Zm0,15.23a6.18,6.18,0,1,0,0-12.36,6.18,6.18,0,1,0,0,12.36Z"/><rect class="cls-2" x="1113" y="425" width="65" height="126" rx="12"/><path class="cls-1" d="M1132.7,454.82c1.25,1.6,4.9,6.7,5.7,8.05l-2,2.45c-.7-1.5-2.35-4.4-3.75-6.65V485h-3.15V460.57c-1.5,5.05-3.5,9.9-5.55,12.85a14.83,14.83,0,0,0-1.75-3.1c2.9-4,5.8-11.5,7.2-18h-6.2v-3.15h6.3v-9.65h3.15v9.65h5.45v3.15h-5.45Zm19.1.7a19.47,19.47,0,0,0,.45,2.65c-10.15,2.7-11.6,3.15-12.5,3.75a12.13,12.13,0,0,0-1.1-3.2c.7-.2,1.55-.5,1.55-2.2v-16.7h3.25v6.5h8.35v2.9h-8.35v8.3Zm2.35,5.5-2,3.75h12.65V485h-3.4v-1.75h-17v2h-3.3V464.77h7.9c.55-1.5,1.2-3.25,1.55-4.6Zm7.3,6.5h-17v5.05h17Zm0,13v-5.3h-17v5.3Zm2.25-22.4c1.25,0,1.5-.75,1.65-5.25a9.16,9.16,0,0,0,2.85,1.25c-.3,5.45-1.2,6.95-4.15,6.95h-5.85c-3.65,0-4.55-.95-4.55-4.45V439.87h3.25v6.5h10.2v2.9h-10.2v7.35c0,1.3.25,1.5,1.65,1.5Z"/><path class="cls-1" d="M1167.55,514.87v2.5H1123.4v-2.5h20.25v-3.2H1126.8v-2.3h16.85v-3H1128.2v-2.25h15.45v-3.2H1123.5v-2.5h20.15v-3.05H1128.8V493h14.85v-3.55h3.25V493h14.45v5.4h6.15v2.5h-6.15v5.45H1146.9v3h17.3v2.3h-17.3v3.2Zm-37.75,5h31.75v15.25h-3.25v-1.6H1133v1.7h-3.2Zm3.2,2.4v3.2h25.3v-3.2Zm25.3,8.85v-3.4H1133v3.4Zm-11.4-32.7h11.15v-3.05H1146.9Zm0,5.7h11.15v-3.2H1146.9Z"/><rect class="cls-2" x="1113" y="1189" width="65" height="271" rx="12"/><path class="cls-1" d="M1158.05,1228.79a27.61,27.61,0,0,0,11.5,8.1,11.65,11.65,0,0,0-2.15,2.55,30.77,30.77,0,0,1-12.8-10.65h-15.95a34.39,34.39,0,0,1-13,11.3,11.43,11.43,0,0,0-2.15-2.55,30.39,30.39,0,0,0,11.6-8.75H1124v-2.85h10v-16.15h-7.7V1207h7.7v-5h3.3v5h18.55v-5h3.35v5h7.65v2.8h-7.65v16.15h9.8v2.85Zm-10,14.5h17.3v2.85H1127.8v-2.85h16.9v-5.6h-10.45v-2.8h10.45v-4.4h3.35v4.4h10.65v2.8h-10.65Zm-10.8-33.5v3.6h18.55v-3.6Zm0,9.8h18.55v-3.65h-18.55Zm0,6.35h18.55v-3.8h-18.55Z"/><path class="cls-1" d="M1142.25,1270.54s0,1.15,0,1.55c-.6,15.85-1.2,21.2-2.6,23a3.71,3.71,0,0,1-2.8,1.45,32.65,32.65,0,0,1-4.45,0,9.25,9.25,0,0,0-.85-3c1.75.15,3.2.15,3.9.15a1.42,1.42,0,0,0,1.45-.65c1-1.2,1.6-6,2.15-19.35h-6.8c-.55,10-2,18.25-6.45,23.65a9.53,9.53,0,0,0-2.55-2.35c5.45-6.45,5.9-17.85,6.1-31.55h-5.2v-3.1h20.1v3.1h-11.65c0,2.45-.1,4.85-.2,7.15Zm-7.9-10.45a33.47,33.47,0,0,0-4.25-7.15l2.9-1.15a31.92,31.92,0,0,1,4.4,7Zm23.85-7.45a15.26,15.26,0,0,1-.85,2.55c2.65,5.45,7.7,11.35,12.45,14a13,13,0,0,0-2.45,2.75c-4.25-2.7-8.5-8-11.4-13.3a32.61,32.61,0,0,1-11,13.6,12.79,12.79,0,0,0-2.35-2.65c5.85-3.6,10.35-10.2,12.5-17.85Zm-8.3,32.45a74,74,0,0,1,13.6,8.25l-2.25,2.9c-2.85-2.6-8.75-6.3-13.4-8.65Zm9.5-4.85a66.22,66.22,0,0,0-8.6-6.85l2.15-2.2a67.46,67.46,0,0,1,8.75,6.55Z"/><path class="cls-1" d="M1165,1305.19v29.3h-3.5v-2.55h-13.3v15.6h-3.45v-15.6h-13.4v2.75H1128v-29.5Zm-33.65,3.2V1317h13.4v-8.65Zm13.4,20.35v-8.5h-13.4v8.5Zm16.75-20.35h-13.3V1317h13.3Zm0,20.35v-8.5h-13.3v8.5Z"/><path class="cls-1" d="M1167.25,1367.09v9.3h-3.15V1370h-35.4v6.4h-3v-9.3h6.95v-12.95h27.7v12.95Zm-6.45,26.6c0,1.85-.45,2.7-1.85,3.2s-3.9.5-7.7.45a8.57,8.57,0,0,0-1.1-2.75c3,.05,5.65.05,6.4.05s1-.25,1-1v-6.2c-7.3,1.45-14.85,3-20.45,4l-1.1-3c5.4-.8,13.6-2.3,21.55-3.75V1376h-22.2v5.3c0,4.85-.65,11.55-4.35,16.2a13.29,13.29,0,0,0-2.7-2c3.45-4.25,3.85-10,3.85-14.25v-8h28.6Zm-25-26.6h7.45v-6.9H1157v-3.35h-21.2Zm2.45,11.7a75.14,75.14,0,0,1,17.7,3l-.9,2.6c-4-1.5-11.7-2.9-17.7-3.35Zm18.75-16.3h-10.75v4.6H1157Z"/><path class="cls-1" d="M1161,1414.09a51.83,51.83,0,0,1-12,19.6,49.94,49.94,0,0,0,20.5,10.5,16.79,16.79,0,0,0-2.25,3,50.92,50.92,0,0,1-20.75-11.1c-5.65,5-12.55,8.6-21,11.3a15.53,15.53,0,0,0-2-3.05c8.35-2.45,15.1-5.9,20.6-10.6a57.05,57.05,0,0,1-12.2-19.65h-7.75v-3.25h44.75v3.25Zm-25.75,0a52.13,52.13,0,0,0,11.3,17.3,47.46,47.46,0,0,0,10.7-17.3Zm11.25-3.55a38.13,38.13,0,0,0-3.8-7.8l3.4-1a39,39,0,0,1,4,7.65Z"/><path d="M610,1210.4a222.21,222.21,0,0,1,30.56,19.74l-5.16-4a220.83,220.83,0,0,1,39.2,39.22l-4-5.16a234.6,234.6,0,0,1,30.27,52l-2.57-6.09a358.46,358.46,0,0,1,21.37,72.6q2,10.73,3.46,21.53l-.92-6.77a570.77,570.77,0,0,1,4.58,82.13c-.29,27.46-2,54.88-4.31,82.23-1.27,15.34-2.7,30.66-4.11,46a28.24,28.24,0,0,0,7.47,18c4.42,4.43,11.68,7.76,18,7.47,6.59-.29,13.43-2.46,18-7.47l4-5.16a25.46,25.46,0,0,0,3.48-12.87c2.92-31.65,5.89-63.32,7.42-95.08,1.53-31.94,1.61-64-1.36-95.86-3.18-34-9.19-67.78-20.28-100.1-9.47-27.58-22-54.12-39.75-77.36-9.45-12.37-19.45-24.09-31-34.56a251.22,251.22,0,0,0-38.89-29q-4.82-2.89-9.76-5.54a26.8,26.8,0,0,0-19.65-2.57c-5.91,1.63-12.32,6.21-15.24,11.72-3.12,5.92-4.69,13.09-2.57,19.65,2,6.19,5.83,12.08,11.72,15.24Z"/><line class="cls-3" x1="621.69" y1="1188.68" x2="459" y2="1402.81"/><line class="cls-3" x1="759.33" y1="1178.29" x2="498.67" y2="1178"/><line class="cls-3" x1="717" y1="1044" x2="533.12" y2="1043.97"/></svg>