<svg id="Layer_1" data-name="Layer 1" xmlns="http://www.w3.org/2000/svg" viewBox="0 0 1242 2208"><defs><style>.cls-1{fill:#f6eabe;}.cls-2{fill:#999;}.cls-3{fill:none;stroke:#000;stroke-linecap:round;stroke-miterlimit:10;stroke-width:50px;}</style></defs><rect class="cls-1" width="1242" height="2208"/><path d="M891.75,779.2c30.17,0,35.73-16.68,38.91-120.69,11.11,9.53,33.34,18.26,48.43,22.23-6.35,119.1-21.44,148.48-82.57,148.48H780.59c-66.69,0-84.16-16.68-84.16-77.81V511.62H539.22C523.34,668,478.88,785.55,299.43,846.68c-7.14-13.49-22.23-34.14-34.14-43.67C434.41,750.61,471.73,647.39,486,511.62H275.61V460.8H594.8V296.45H426.47C406.62,342.5,382,384.58,355,418.72c-11.91-7.14-32.55-19.05-45.25-24.61,54.78-66.7,95.28-172.3,114.33-254.87l54,10.32c-8.73,31-19.05,63.52-31,96.07H594.8V119.39H648V245.63H912.4v50.82H648V460.8H967.18v50.82H749.63V752.2c0,23,5.55,27,36.52,27Z"/><rect class="cls-2" x="1113" y="426" width="65" height="126" rx="12"/><path class="cls-1" d="M1132.7,455.82c1.25,1.6,4.9,6.7,5.7,8.05l-2,2.45c-.7-1.5-2.35-4.4-3.75-6.65V486h-3.15V461.57c-1.5,5.05-3.5,9.9-5.55,12.85a14.83,14.83,0,0,0-1.75-3.1c2.9-4,5.8-11.5,7.2-18h-6.2v-3.15h6.3v-9.65h3.15v9.65h5.45v3.15h-5.45Zm19.1.7a19.47,19.47,0,0,0,.45,2.65c-10.15,2.7-11.6,3.15-12.5,3.75a12.13,12.13,0,0,0-1.1-3.2c.7-.2,1.55-.5,1.55-2.2v-16.7h3.25v6.5h8.35v2.9h-8.35v8.3Zm2.35,5.5-2,3.75h12.65V486h-3.4v-1.75h-17v2h-3.3V465.77h7.9c.55-1.5,1.2-3.25,1.55-4.6Zm7.3,6.5h-17v5.05h17Zm0,13v-5.3h-17v5.3Zm2.25-22.4c1.25,0,1.5-.75,1.65-5.25a9.16,9.16,0,0,0,2.85,1.25c-.3,5.45-1.2,6.95-4.15,6.95h-5.85c-3.65,0-4.55-.95-4.55-4.45V440.87h3.25v6.5h10.2v2.9h-10.2v7.35c0,1.3.25,1.5,1.65,1.5Z"/><path class="cls-1" d="M1167.55,515.87v2.5H1123.4v-2.5h20.25v-3.2H1126.8v-2.3h16.85v-3H1128.2v-2.25h15.45v-3.2H1123.5v-2.5h20.15v-3.05H1128.8V494h14.85v-3.55h3.25V494h14.45v5.4h6.15v2.5h-6.15v5.45H1146.9v3h17.3v2.3h-17.3v3.2Zm-37.75,5h31.75v15.25h-3.25v-1.6H1133v1.7h-3.2Zm3.2,2.4v3.2h25.3v-3.2Zm25.3,8.85v-3.4H1133v3.4Zm-11.4-32.7h11.15v-3.05H1146.9Zm0,5.7h11.15v-3.2H1146.9Z"/><path d="M109,1751.49H94.22v35.15h-4v-38.87H109Z"/><path d="M161.6,1762.11c-7.38,10.91-20.82,23.51-33.18,31,.6.42,1.26.84,1.92,1.32,3.78,2.4,8.64,2.82,15.36,2.82,7.14,0,16-.48,21.72-1a17.18,17.18,0,0,0-1.14,4.26c-4.5.3-15,.66-20.7.66-7.26,0-12.18-.66-16.14-3.24-2.4-1.5-4.26-3.48-5.58-3.48-1.92,0-4.74,3.42-7.68,7.38l-3-3.6c4-4.26,7.74-7.5,10.74-7.5a4.63,4.63,0,0,1,.9.12c11-6.36,23.22-17.39,30-26.63H116.3v-3.9h41.46l.84-.24ZM141.5,1760a70.73,70.73,0,0,0-6.3-10l3.48-1.8a70.87,70.87,0,0,1,6.42,9.78Z"/><path d="M171,1799.84h14.82v-35.15h4v38.87H171Z"/><path d="M226.16,1747.17l3.24,1.74c-7.08,7.26-11.28,16.2-11.28,26.76s4.2,19.49,11.28,26.75l-3.24,1.74c-7.32-7.5-11.94-17-11.94-28.49S218.84,1754.67,226.16,1747.17Z"/><path d="M249.92,1749.69a98.85,98.85,0,0,1-6.18,13.56v39.59H239.9v-33.35a61.73,61.73,0,0,1-5.46,7,32.86,32.86,0,0,0-2.28-3.9c5.58-5.87,10.8-14.87,14-24Zm34.14,28c-2.1,1.26-4.44,2.64-6.84,3.78,2,6.06,5.82,11.82,10.38,14.52a11.2,11.2,0,0,0-2.64,2.94c-4.62-3.18-8.46-9.42-10.68-16a27.45,27.45,0,0,1-2.76,1.2c2.58,6.84,1.86,14-1,16.68a6.91,6.91,0,0,1-5.22,1.92c-1.08,0-2.4-.06-3.78-.18a9.31,9.31,0,0,0-1-3.42,38.26,38.26,0,0,0,4.14.24,3.66,3.66,0,0,0,3.12-1.14c1.56-1.38,2.22-5.16,1.44-9.36-5.16,4.92-13.08,9.36-19.8,11.7a15.8,15.8,0,0,0-2.34-2.82c7.62-2.28,16.62-7.14,21.3-12.24a35.76,35.76,0,0,0-1.5-3.48,63.52,63.52,0,0,1-17.22,9.9,16.14,16.14,0,0,0-2.22-2.64c5.94-1.8,13.74-5.76,17.88-9.54a16.39,16.39,0,0,0-2.94-3.18,58.44,58.44,0,0,1-13.56,7.26,11.26,11.26,0,0,0-2.22-2.58,52.48,52.48,0,0,0,15.06-7.56H251.48v-9.35c-1.14,1-2.28,2-3.54,2.94a9.54,9.54,0,0,0-2.52-2.59,44.59,44.59,0,0,0,13.86-16.25l3.84.72c-.6,1.2-1.32,2.34-2,3.54h11.1l.72-.18,2.34,1.68a52.13,52.13,0,0,1-4.8,6.84h13.08v12.65H265.94a15.29,15.29,0,0,1-1.2,1,21,21,0,0,1,5.64,6.84,111.93,111.93,0,0,0,10.92-6.42ZM259,1755.81a54.58,54.58,0,0,1-4.2,5.16h11.58a37.88,37.88,0,0,0,3.72-5.16Zm-3.9,14.69h10.5v-6.42h-10.5Zm24.72-6.42H269.18v6.42H279.8Z"/><path d="M347.36,1772.91v4.31H292.88v-4.31Z"/><path d="M360.8,1763.31a51.81,51.81,0,0,1-5.76,6.06,19,19,0,0,0-3.06-2.64,50.31,50.31,0,0,0,13.8-18.54l3.72,1.14a54,54,0,0,1-3.18,6.12H381a49.89,49.89,0,0,0-3.12-5.88l3.66-1.08a49.49,49.49,0,0,1,3.72,7H402.5v3.18H383.18v4.2H400.4v2.88H383.18V1770H400.4v2.88H383.18v4.33h20.28v3.11H364.52v1.86H360.8Zm38.28,22.13c-3.12,4.32-7.86,7.68-13.44,10.26a103.56,103.56,0,0,0,20.7,3.42,15.5,15.5,0,0,0-2.22,3.48,96.13,96.13,0,0,1-23.46-4.86c-8,2.88-17.22,4.38-26,5.22a14.88,14.88,0,0,0-1.5-3.48,107.35,107.35,0,0,0,22.62-3.78,35.1,35.1,0,0,1-11.76-8.28l.12-.06h-8.64v-3.3H396l.66-.24Zm-19.8-26.81H364.52v4.2h14.76Zm0,7.08H364.52V1770h14.76Zm0,7.13H364.52v4.33h14.76Zm-10.5,14.52a37.11,37.11,0,0,0,11.94,6.78,37,37,0,0,0,11.88-6.78Z"/><path d="M428.3,1798.46c0,2-.42,3.12-1.62,3.72s-3.24.72-6.42.72a14.26,14.26,0,0,0-1.14-3.54c2.34.06,4.26.06,4.92,0s.9-.18.9-1v-17.22c-1.56,1.32-3.06,2.64-4.62,3.9l-1.62-3c-.42,7.26-1.38,14.94-3.6,20.88a15.61,15.61,0,0,0-2.94-1.68c3.24-8.52,3.48-20.58,3.48-29.28v-21.47H428.3ZM418.94,1772c0,2.94-.06,6.3-.24,9.84,1.74-1.08,3.9-2.7,6.24-4.38v-8.09l-1.62,1.31a38.55,38.55,0,0,0-4.38-5.76Zm0-17.75v9.9l1.86-1.26a42.57,42.57,0,0,1,4.14,4.73v-13.37Zm24.06,7.14c-.24.84-.54,1.61-.78,2.46,3.72,4.73,8.1,10.86,10,14.63l-2.7,2.16a93.59,93.59,0,0,0-8.76-13.49,39.5,39.5,0,0,1-9.12,13.43,13.73,13.73,0,0,0-2.64-2.52c4.68-3.89,8.64-10.56,10.62-17.57Zm-3.66-10.92a43.07,43.07,0,0,1-7.08,14.4,16.68,16.68,0,0,0-2.76-2.1c2.88-3.24,5.16-8.16,6.48-13Zm-6.12,29.15h15.24V1802h-3.3v-3.48H436.4v3.72h-3.18Zm3.18,3.6V1795h8.76v-11.76Zm12-19a61.47,61.47,0,0,0-6.24-13.5l2.94-1c2.64,4.2,5.46,9.78,6.42,13.2ZM465.14,1789c0,1.8-.3,2.82-1.5,3.42s-2.94.66-5.46.66a11.14,11.14,0,0,0-1.14-3.36c1.92.06,3.6.06,4.08,0s.72-.18.72-.78v-33.59H455.9V1803h-3.18v-51.17h12.42Z"/><path d="M527.36,1799.84H507.08v3.06h-3.6v-34a36.89,36.89,0,0,1-2,3.49,25.84,25.84,0,0,0-2.52-2.11v5H489l-1.08,4.26h12.6v19.38c0,1.86-.36,2.7-1.68,3.3s-3.6.54-7.2.54a12.23,12.23,0,0,0-1-3.06c2.64.12,5,.12,5.64.06s.9-.24.9-.84V1782.8h-10c-.78,3.12-1.56,6.18-2.28,8.64l6.78-1.14c-.72-1.56-1.5-3.18-2.28-4.56l2.52-.84a99,99,0,0,1,4.8,10.26l-2.58,1c-.36-.9-.78-2-1.32-3.3-4.26.78-8.64,1.62-12.18,2.34l-1-2.94,1.86-.3c.78-2.58,1.62-5.88,2.46-9.18h-5.64V1803h-3.36V1782.8H473.3v-3.24h1.62v-2.1h3.36v2.1h6.48c.36-1.5.66-2.88,1-4.26H476.3v-16.19h3.18v13.19h16.2v-13.19h3.24v10.14c3.54-5.34,6.48-13.2,8.34-20.88l3.6.84a107.61,107.61,0,0,1-3.3,10.56H527v3.65h-8.76v8.46h7.92v3.49h-7.92v8.57h8v3.48h-8v8.76h9.12ZM501.2,1757H473.54v-3.3H486c-.54-1.5-1.2-3.3-1.8-4.68l3.36-.78c.78,1.68,1.68,3.84,2.28,5.46H501.2Zm-8.28,13.38a52.11,52.11,0,0,0-4.44-4,47.87,47.87,0,0,1-5.28,4.49c-.48-.42-1.62-1.31-2.22-1.73a60.08,60.08,0,0,0,5.46-4.5c-1.62-1.26-3.24-2.53-4.8-3.6l1.86-1.68c1.5,1.08,3.18,2.28,4.74,3.6a42.6,42.6,0,0,0,3.6-3.9l2.58,1a58.21,58.21,0,0,1-4.08,4.5c1.74,1.5,3.36,2.88,4.44,3.89Zm21.66-6.91h-7.5v8.46h7.5Zm0,11.95h-7.5v8.57h7.5Zm-7.5,20.81h7.5v-8.76h-7.5Zm9.24-37a60.84,60.84,0,0,0-4.14-8.88l3.42-1.26a61.35,61.35,0,0,1,4.32,8.7Z"/><path d="M539.48,1770.8V1803h-3.9V1751h21.54v19.85Zm0-16.73v5.16h13.86v-5.16Zm13.86,13.62v-5.52H539.48v5.52Zm14.4,20.57v13.56H564.2v-13.56h-8.94c-.42,4-2.22,10.44-8.22,14.34a14.83,14.83,0,0,0-2.64-2.4,15.38,15.38,0,0,0,7.32-11.94h-7.8v-3.36h7.86v-6.84h-6.66v-3.35h29.7v3.35h-7.08v6.84h8.4v3.36Zm-3.54-3.36v-6.84h-8.88v6.84Zm20.52,12.72c0,2.52-.6,3.84-2.28,4.56s-4.68.72-9.24.72a13,13,0,0,0-1.26-4c3.42.12,6.66.12,7.56.06s1.32-.36,1.32-1.32v-26.75H562.64V1751h22.08Zm-18.24-43.55v5.16h14.34v-5.16Zm14.34,13.68v-5.58H566.48v5.58Z"/><path d="M646.34,1755.51H602.12v13.14c0,9.6-.78,23.57-6.36,33.17a13.59,13.59,0,0,0-3.36-2c5.28-9.18,5.82-22,5.82-31.13v-16.86h48.12Zm-30.18,32.27a97.9,97.9,0,0,1-10.62,12.6c-.78-.6-2.4-1.68-3.36-2.28a63.59,63.59,0,0,0,10.32-11.58Zm10.26-4.44v15.12c0,2.16-.48,3.24-2.1,3.84s-4.68.6-9.36.6a14.79,14.79,0,0,0-1.26-3.54c3.66.12,6.78.12,7.68.06s1.2-.3,1.2-1v-15.06H607.82V1762H619.7a42.46,42.46,0,0,0,2.34-5.75l4.62.72c-.9,1.68-1.86,3.48-2.7,5h17.52v21.3Zm-14.76-12.17h25.8v-5.88h-25.8Zm0,8.93h25.8v-5.88h-25.8Zm23.4,6.54c3.66,3.72,8.46,8.88,10.92,11.94l-3.3,2.16a158.14,158.14,0,0,0-10.8-12.42Z"/><path d="M671.3,1781.18l.78,3.54c-6.3,2.88-13,5.94-18.24,8.16l-1.5-4c2.28-.9,5.22-2,8.4-3.36v-19h-7.38v-3.77h7.38V1749h3.72v13.74h6.6v3.77h-6.6v17.52Zm28.08,16.8c3.54,0,4.14-1.62,4.56-8.7a9.15,9.15,0,0,0,3.6,1.56c-.66,8.16-1.92,10.74-8,10.74H684.38c-6.66,0-8.52-1.5-8.52-7.68v-19.49l-5,2.15-1.56-3.48,6.6-2.75v-16.5h3.78v14.88l8.64-3.67v-16.73h3.78v15.18l9.6-4.08,3.06,1-.24.72c-.6,8.46-1.74,19.49-3.24,26.27l-3.24-1a207.74,207.74,0,0,0,2.4-22.43l-8.34,3.54v22.19h-3.78v-20.64l-8.64,3.67V1794c0,3.24.78,4,4.8,4Z"/><path d="M718.88,1784c4.68-2,7.26-4.86,7.56-9.17a4,4,0,0,1-1.14.11c-2.34,0-4.26-1.32-4.26-4.07a4,4,0,0,1,4.32-4.08c3.18,0,4.86,2.58,4.86,6.66,0,6.41-4,11.21-10.08,13.43Z"/><path d="M794.12,1797.44c0,2.76-.66,4.14-2.64,4.86s-5.76.66-11.22.66a15.26,15.26,0,0,0-1.5-4.08c4.5.18,8.64.12,9.9.06s1.5-.36,1.5-1.5v-34.86h-40V1803h-4v-44.27h16.5a99,99,0,0,0,3.9-10.5l4.86.84c-1.38,3.18-2.94,6.78-4.44,9.66h27.12Zm-32.1-7v4.32h-3.66v-23.93H781.7v19.61Zm0-16v12.42h16v-12.42Z"/><path d="M828.8,1798.16c0,2.16-.48,3.24-2,3.9s-4.26.66-8.34.66a17,17,0,0,0-1.32-3.54c3.12.12,5.94.12,6.72.06s1.14-.3,1.14-1.08v-8.52H810.68c-.6,4.74-1.86,9.78-4.68,13.56a11.24,11.24,0,0,0-2.94-2.34c4-5.64,4.44-13.38,4.44-19.44v-14.27h21.3Zm27.78-40.25v3.66H803.42v-3.66h15.12a45.12,45.12,0,0,0-5.64-8.28l3.66-1.38a49.14,49.14,0,0,1,6.06,8.52l-2.94,1.14h18.18a79.77,79.77,0,0,0,5.76-9.9l4.14,1.44c-1.68,2.82-3.6,5.94-5.46,8.46ZM825,1786.46V1780h-13.8v1.44c0,1.56-.06,3.24-.18,5Zm-13.8-16v6.41H825v-6.41Zm29,21.65h-3.72v-24.41h3.72Zm8.4-26.22h3.9v31.92c0,2.52-.6,3.6-2.34,4.26s-4.8.72-9.36.72a17,17,0,0,0-1.5-3.84c3.78.12,7,.12,8,.06s1.32-.3,1.32-1.2Z"/><path d="M882.44,1762.47a79,79,0,0,1-6.72,9.11v31.56h-4V1776a77.73,77.73,0,0,1-7.14,6.54c-.6-.78-2-2.52-2.82-3.29a66.67,66.67,0,0,0,16.86-18.13Zm-2.4-12.66a73.78,73.78,0,0,1-15.3,14.69,29.68,29.68,0,0,0-2.34-3.17,57.46,57.46,0,0,0,13.8-13Zm37,22.44h-9.18v25.49c0,2.52-.66,3.78-2.52,4.44s-5.22.6-11.22.6a14.6,14.6,0,0,0-1.32-3.84c4.44.18,8.4.18,9.54.06s1.5-.3,1.5-1.32v-25.43H883.4v-3.84h33.66Zm-1.74-16.5H886V1752h29.34Z"/><path d="M951.92,1797.38a52.89,52.89,0,0,0,11.46,1c1.8,0,11.76,0,14.16-.06a12.71,12.71,0,0,0-1.44,3.9H963.2c-13,0-22.68-2.28-28.62-13.08-2,5.52-5,10.62-9.3,14a20.52,20.52,0,0,0-2.94-2.64c7.38-5.64,10.26-16.14,11.16-25l4.14.48a72.42,72.42,0,0,1-1.62,8.34c2.64,6.36,6.72,10,11.88,11.94v-24.53H924v-3.79h23.82v-8.63H929.18v-3.72h18.66v-7.08h4.08v7.08H971.6v3.72H951.92v8.63H976v3.79H951.92v9.77H972v3.66h-20.1Z"/><path d="M983.84,1804.16l-3.24-1.74c7.08-7.26,11.28-16.2,11.28-26.75s-4.2-19.5-11.28-26.76l3.24-1.74c7.32,7.5,11.94,17,11.94,28.5S991.16,1796.66,983.84,1804.16Z"/><path d="M1033.16,1761.62a67.64,67.64,0,0,1-7.2,12.25v28.85h-4v-24a41.57,41.57,0,0,1-7.26,6.41,17,17,0,0,0-2-3.48c7-5,12.3-12.23,16.14-20H1014v-3.83h16.44a65.25,65.25,0,0,0,3.3-9.42l4.08,1c-.9,2.82-1.86,5.64-3,8.4h31.26v3.83Zm32.94,36.24v3.72H1030v-3.72h16v-17.52h-13.68v-3.72H1046v-11.81h4v11.81h13.8v3.72H1050v17.52Z"/><path d="M1126.76,1796.18v4H1073.3v-4h22.62v-46.85h4.14v18.54h22.62v4h-22.62v24.3Z"/><path d="M1138.88,1784c4.68-2,7.26-4.86,7.56-9.17a4,4,0,0,1-1.14.11c-2.34,0-4.26-1.32-4.26-4.07a4,4,0,0,1,4.32-4.08c3.18,0,4.86,2.58,4.86,6.66,0,6.41-4,11.21-10.08,13.43Z"/><path d="M303.38,1823.49H288.56v35.15h-4v-38.87h18.78Z"/><path d="M324.08,1822.83v19.38c0,12.11-1.5,24.29-14.7,32.87a14.85,14.85,0,0,0-2.82-3.06c12.18-7.86,13.62-19,13.62-29.81v-19.38Zm22.32-.06v44.57c0,2.76.42,3.24,2.4,3.24h6.6c2.16,0,2.52-2.58,2.76-12.66a9.67,9.67,0,0,0,3.72,1.8c-.42,11-1.32,14.64-6.24,14.64h-7.32c-4.62,0-5.94-1.5-5.94-7.08v-44.51Z"/><path d="M365.3,1871.84h14.82v-35.15h4v38.87H365.3Z"/><path d="M420.5,1819.17l3.24,1.74c-7.08,7.26-11.28,16.2-11.28,26.76s4.2,19.49,11.28,26.75l-3.24,1.74c-7.32-7.5-11.94-17-11.94-28.49S413.18,1826.67,420.5,1819.17Z"/><path d="M446.06,1833.62H426.92v-3.29h19.14Zm-1.2,15.9h-16v-3.23h16Zm-.36,22H432.56v2.82h-3.3v-20H444.5Zm-15.18-30v-3.23h15.24v3.23Zm7.92-11.69a37.94,37.94,0,0,0-5.16-7.8l3.3-1.32a43.55,43.55,0,0,1,5.4,7.5Zm-4.68,27.77v10.56h8.58v-10.56Zm28.38,10.92a53.19,53.19,0,0,1-13.5,6.54,17.47,17.47,0,0,0-2.58-2.58c4.56-1.32,10.08-3.78,12.72-5.88Zm1-41.93h-14v-2.82h14v-3.42h3.9v3.42H480.8v2.82H465.86v3.06h13.2v2.7H450v-2.7H462ZM448.4,1835h31.92v11.69H448.4Zm30.3,31.55H450.08V1849H478.7Zm-27-22.25h6.12v-6.84H451.7ZM475,1851.5H453.74v2.7H475Zm0,4.8H453.74v2.76H475Zm0,4.8H453.74V1864H475Zm-7.32-16.85v-6.84h-7.08v6.84Zm1.56,22.25c4.62,2,9.66,4.38,12.84,6.06l-2.28,2.64c-3-1.68-8-4.2-12.42-6.3Zm7.68-29.09h-6.42v6.84h6.42Z"/><path d="M490,1838.07h4l.48,5.93h.18c2.22-4.08,5.52-6.77,9.18-6.77a7,7,0,0,1,3.42.72l-1,4.26a8.2,8.2,0,0,0-3.06-.54c-2.76,0-6.12,2-8.34,7.67v21.12H490Z"/><path d="M509.6,1854.26c0-10.5,7-17,14.46-17,8.1,0,12.78,5.81,12.78,15.17a14.19,14.19,0,0,1-.24,2.94H514.46c.3,7.2,4.62,12,11.1,12a14.28,14.28,0,0,0,8.22-2.64l1.8,3.24a18.91,18.91,0,0,1-10.62,3.3C516.44,1871.24,509.6,1864.94,509.6,1854.26Zm22.92-2.51c0-6.91-3.12-10.57-8.4-10.57-4.8,0-9.06,3.9-9.72,10.57Zm-12.24-22.08,9.36-11,3.42,3.24-10.2,10.19Z"/><path d="M545.06,1838.07h4l.48,4.73h.18c3.12-3,6.48-5.57,10.92-5.57,6.78,0,9.9,4.38,9.9,12.65v20.58h-4.92v-20c0-6.23-1.92-9-6.42-9-3.42,0-5.88,1.8-9.24,5.27v23.7h-4.86Z"/><path d="M584.54,1856c4.68-2,7.26-4.86,7.56-9.17a4,4,0,0,1-1.14.11c-2.34,0-4.26-1.32-4.26-4.07a4,4,0,0,1,4.32-4.08c3.18,0,4.86,2.58,4.86,6.66,0,6.41-4,11.21-10.08,13.43Z"/><path d="M660.26,1869.8c0,2.58-.72,3.84-2.4,4.5s-4.74.78-9.9.78a14.91,14.91,0,0,0-1.5-3.9c3.9.12,7.38.12,8.4.06s1.5-.42,1.5-1.44v-42.53H615.08v47.87h-3.9v-51.65h49.08ZM651,1837.41H620.6v-3.48H651Zm-23.64,25.31v4.44h-3.72V1844h24v18.77Zm0-15.35v11.93h16.56v-11.93Z"/><path d="M694.7,1823.49H679.88v35.15h-4v-38.87H694.7Z"/><path d="M727.94,1820.55c-.06,2.1-.12,5.1-.42,8.64.9,7,4.56,32.51,25.74,42a12.63,12.63,0,0,0-2.88,3.36c-15.42-7.26-21.72-22.74-24.6-34-2.64,12.23-8.94,26.33-24.06,34.19a13.77,13.77,0,0,0-3.12-3.06c25-12.48,24.78-42.11,25-51.11Z"/><path d="M756.62,1871.84h14.82v-35.15h4v38.87H756.62Z"/><path d="M789.5,1876.16l-3.24-1.74c7.08-7.26,11.28-16.2,11.28-26.75s-4.2-19.5-11.28-26.76l3.24-1.74c7.32,7.5,11.94,17,11.94,28.5S796.82,1868.66,789.5,1876.16Z"/><path d="M838.82,1833.62a67.64,67.64,0,0,1-7.2,12.25v28.85h-4v-24a41.57,41.57,0,0,1-7.26,6.41,17,17,0,0,0-2-3.48c7-5,12.3-12.23,16.14-20H819.68v-3.83h16.44a65.25,65.25,0,0,0,3.3-9.42l4.08,1c-.9,2.82-1.86,5.64-3,8.4h31.26v3.83Zm32.94,36.24v3.72H835.64v-3.72h16v-17.52H838v-3.72h13.68v-11.81h4v11.81h13.8v3.72h-13.8v17.52Z"/><path d="M906.62,1828.71v10.86l.66-.78c7.32,3.54,16.74,8.93,21.54,12.53l-2.76,3.6c-4.2-3.42-12.48-8.46-19.44-12.12v32.1h-4.2v-46.19H879.2v-4h53v4Z"/><path d="M950.84,1838.67a9.06,9.06,0,1,1-9.06,9A9.09,9.09,0,0,1,950.84,1838.67Zm0,15.23a6.18,6.18,0,0,0,0-12.36,6.18,6.18,0,1,0,0,12.36Z"/><path d="M428.24,1893.51a13.18,13.18,0,0,1-.84,1.08c5.7,5.64,16.2,10.62,25.56,12.83a12.89,12.89,0,0,0-2.52,3.12,71.7,71.7,0,0,1-14.88-6.17l-.06,1.92H414.74l.06-1.68a89.68,89.68,0,0,1-14.88,6.23,30.91,30.91,0,0,0-2.28-3c10.8-3,21.48-8.28,27.12-15.6Zm-23.16,16H445v14.88h-39.9Zm3.42,12.06h14.7v-9.23H408.5Zm.12,5.82H442v19.38h-4v-1.86h-25.5v2h-3.9Zm6.66-14.22a21.86,21.86,0,0,1,3.78,6.84l-3.06,1.21a27.26,27.26,0,0,0-3.6-7.09Zm-2.76,17.16v4.32H438v-4.32Zm25.5,11.64v-4.38h-25.5v4.38Zm-4.2-38.57a48.46,48.46,0,0,1-8.58-6.42,45.19,45.19,0,0,1-8.34,6.42Zm7.5,8.94H426.56v9.23h14.76Zm-10.62,7.79a53.26,53.26,0,0,0,3.54-7.2l3.36,1.08a73,73,0,0,1-4.14,7.21Z"/><path d="M459.08,1943.48c3.06-2.58,5.64-7,7.08-10.44l3.3,1.5c-1.68,3.6-4.08,8-7.14,10.86Zm51.72-36.9v3.25H459.56v-3.25h14.16a23.89,23.89,0,0,0-2.34-5.45l3.36-.84H462.26V1897h21.9c-.72-1.44-1.56-2.94-2.34-4.2l3.78-.9a39.9,39.9,0,0,1,2.94,5.1h19.2v3.3H495.86l3.24.78c-1,1.92-2,3.84-3,5.51Zm-7,23.7H482.66a47.07,47.07,0,0,1,8.82,6.24L489,1939a48.61,48.61,0,0,0-9.3-6.9l2-1.8H466.58V1913h37.2Zm-3.9-14.45H470.36v4.43h29.52Zm0,7.13H470.36v4.44h29.52Zm-8.22,20.16c2.58,0,3-.72,3.24-6.24a12.08,12.08,0,0,0,3.54,1.38c-.48,6.66-1.74,8.22-6.42,8.22H480.44c-5.82,0-7.38-1-7.38-5v-8H477v8c0,1.38.54,1.68,3.72,1.68ZM475,1900.29a26.19,26.19,0,0,1,2.76,6.18l-.48.11H492a59.18,59.18,0,0,0,3.06-6.29Zm27.66,32.21a46.55,46.55,0,0,1,8,10.2l-3.36,1.74a49,49,0,0,0-7.8-10.56Z"/><path d="M533.3,1942.46c0,2-.42,3.12-1.62,3.72s-3.24.72-6.42.72a14.26,14.26,0,0,0-1.14-3.54c2.34.06,4.26.06,4.92,0s.9-.18.9-1v-17.22c-1.56,1.32-3.06,2.64-4.62,3.9l-1.62-3c-.42,7.26-1.38,14.94-3.6,20.88a15.61,15.61,0,0,0-2.94-1.68c3.24-8.52,3.48-20.58,3.48-29.28v-21.47H533.3ZM523.94,1916c0,2.94-.06,6.3-.24,9.84,1.74-1.08,3.9-2.7,6.24-4.38v-8.09l-1.62,1.31a38.55,38.55,0,0,0-4.38-5.76Zm0-17.75v9.9l1.86-1.26a42.57,42.57,0,0,1,4.14,4.73v-13.37Zm24.06,7.14c-.24.84-.54,1.61-.78,2.46,3.72,4.73,8.1,10.86,10,14.63l-2.7,2.16a93.59,93.59,0,0,0-8.76-13.49,39.5,39.5,0,0,1-9.12,13.43,13.73,13.73,0,0,0-2.64-2.52c4.68-3.89,8.64-10.56,10.62-17.57Zm-3.66-10.92a43.07,43.07,0,0,1-7.08,14.4,16.68,16.68,0,0,0-2.76-2.1c2.88-3.24,5.16-8.16,6.48-13Zm-6.12,29.15h15.24V1946h-3.3v-3.48H541.4v3.72h-3.18Zm3.18,3.6V1939h8.76v-11.76Zm12-19a61.47,61.47,0,0,0-6.24-13.5l2.94-1c2.64,4.2,5.46,9.78,6.42,13.2ZM570.14,1933c0,1.8-.3,2.82-1.5,3.42s-2.94.66-5.46.66a11.14,11.14,0,0,0-1.14-3.36c1.92.06,3.6.06,4.08,0s.72-.18.72-.78v-33.59H560.9V1947h-3.18v-51.17h12.42Z"/><path d="M598.16,1905.62a67.64,67.64,0,0,1-7.2,12.25v28.85h-4v-24a41.57,41.57,0,0,1-7.26,6.41,17,17,0,0,0-2-3.48c7-5,12.3-12.23,16.14-20H579v-3.83h16.44a65.25,65.25,0,0,0,3.3-9.42l4.08,1c-.9,2.82-1.86,5.64-3,8.4H631.1v3.83Zm32.94,36.24v3.72H595v-3.72h16v-17.52H597.32v-3.72H611v-11.81h4v11.81h13.8v3.72H615v17.52Z"/><path d="M667.28,1892.55c-.06,2.1-.12,5.1-.42,8.64.9,7,4.56,32.51,25.74,42a12.63,12.63,0,0,0-2.88,3.36c-15.42-7.26-21.72-22.74-24.6-34-2.64,12.23-8.94,26.33-24.06,34.19a13.77,13.77,0,0,0-3.12-3.06c25-12.48,24.78-42.11,25-51.11Z"/><path d="M723.8,1942.16c0,2.16-.48,3.24-2,3.9s-4.26.66-8.34.66a17,17,0,0,0-1.32-3.54c3.12.12,5.94.12,6.72.06s1.14-.3,1.14-1.08v-8.52H705.68c-.6,4.74-1.86,9.78-4.68,13.56a11.24,11.24,0,0,0-2.94-2.34c4-5.64,4.44-13.38,4.44-19.44v-14.27h21.3Zm27.78-40.25v3.66H698.42v-3.66h15.12a45.12,45.12,0,0,0-5.64-8.28l3.66-1.38a49.14,49.14,0,0,1,6.06,8.52l-2.94,1.14h18.18a79.77,79.77,0,0,0,5.76-9.9l4.14,1.44c-1.68,2.82-3.6,5.94-5.46,8.46ZM720,1930.46V1924h-13.8v1.44c0,1.56-.06,3.24-.18,5Zm-13.8-16v6.41H720v-6.41Zm29,21.65h-3.72v-24.41h3.72Zm8.4-26.22h3.9v31.92c0,2.52-.6,3.6-2.34,4.26s-4.8.72-9.36.72a17,17,0,0,0-1.5-3.84c3.78.12,7,.12,8,.06s1.32-.3,1.32-1.2Z"/><path d="M786.62,1900.23c-.72,2.64-1.62,5.52-2.46,7.92h24.3V1947h-4v-3.18H765.38V1947h-3.9v-38.87h18.6a80.35,80.35,0,0,0,1.92-7.92H758.78v-3.78H811.4v3.78Zm-21.24,39.89h9v-28.25h-9Zm26-28.25H778v7h13.32Zm0,10.31H778v7.2h13.32ZM778,1940.12h13.32v-7.44H778Zm26.4-28.25H795v28.25h9.42Z"/><path d="M830.18,1910.67a9.06,9.06,0,1,1-9.06,9A9.09,9.09,0,0,1,830.18,1910.67Zm0,15.23a6.18,6.18,0,1,0,0-12.36,6.18,6.18,0,1,0,0,12.36Z"/><path d="M371.9,1981.17c4.44,10.31,12.24,20,20.76,24.71a23.11,23.11,0,0,0-3.06,3.36c-9-5.58-16.92-16.32-21.6-28.07h-1v22.43h14.28v4H367V2019H362.9v-11.4H348.68v-4H362.9v-22.43h-1.08c-4.74,11.75-12.66,22.43-21.3,28.25a24.18,24.18,0,0,0-2.88-3.18c8-4.92,15.66-14.76,20.16-25.07H339.14v-4H362.9v-12.72H367v12.72h24v4Z"/><path d="M446.9,2003.54a33.64,33.64,0,0,1-8.22,7.38c2.4,2.82,5.22,4.44,8.16,4.38,1.68-.06,2.16-1.5,2.46-5.94a10.31,10.31,0,0,0,3.12,1.62c-.6,6.3-2.1,7.92-5.76,8-4.26,0-8.16-2.22-11.28-6a74.41,74.41,0,0,1-13.68,5.82,36.46,36.46,0,0,0-2.1-3.24,65.61,65.61,0,0,0,13.86-5.34,34.94,34.94,0,0,1-3.84-8.82H415.16v4.38l11.16-1-.06,2.88-11.1,1.08v6.12c0,2.1-.48,3.06-2.16,3.54s-4.38.54-8.94.54a19.42,19.42,0,0,0-1.26-3.18c3.36.12,6.48.06,7.38,0s1.2-.24,1.2-1v-5.7c-4.74.48-9.12.9-12.72,1.2l-.42-3.3c3.54-.24,8.1-.54,13.14-1v-4.68h-12.9v-3.18h12.9v-4.44c-3.78.42-7.68.72-11.28.91a12,12,0,0,0-.9-2.71c8.16-.48,18.18-1.55,23.52-2.94l2.52,2.58c-2.82.66-6.36,1.26-10.08,1.74v4.86h13.68a52.67,52.67,0,0,1-1.2-8.94h3.84a57.48,57.48,0,0,0,1.2,8.94h19v3.18H433.58a31.91,31.91,0,0,0,3.12,6.9,27.09,27.09,0,0,0,6.72-5.94Zm4.62-15.17h-53v-3.25H422.9V1981H404.3v-3.06h18.6v-4H401.06v-3.18h12.66a30,30,0,0,0-3.48-5.16l3.42-1.26a24.4,24.4,0,0,1,4.32,6.24l-.42.18H432.2a54.7,54.7,0,0,0,3.6-6.6l4.14,1.2c-1.2,1.86-2.52,3.84-3.72,5.4h12.84V1974H426.92v4h18.9V1981h-18.9v4.13h24.6Zm-5.7,9a34,34,0,0,0-9.48-5.52l2.16-2.46a38.32,38.32,0,0,1,9.66,5.22Z"/><path d="M487.46,2013.62a70.7,70.7,0,0,0,7.38.36c2.1.06,14.76,0,17.58-.06a16.36,16.36,0,0,0-1.44,3.84H494.72c-12.3,0-19.92-1.92-24.72-10.38a31.55,31.55,0,0,1-9.48,11.7,19.84,19.84,0,0,0-3.06-2.82c6.3-4.14,10.2-10.92,11.82-19.86l4,.6a55.92,55.92,0,0,1-1.5,6.06c2.34,5.64,6.3,8.52,11.7,9.84v-18.54H458.72v-3.6H511.4v3.6H487.46v7.08h20v3.6h-20Zm17.22-27.17h-39.6v-19.56h39.6Zm-4-16.44H469v5.16h31.68Zm0,8.1H469v5.27h31.68Z"/><path d="M538.16,1977.62a67.64,67.64,0,0,1-7.2,12.25v28.85h-4v-24a41.57,41.57,0,0,1-7.26,6.41,17,17,0,0,0-2-3.48c7-5,12.3-12.23,16.14-20H519v-3.83h16.44a65.25,65.25,0,0,0,3.3-9.42l4.08,1c-.9,2.82-1.86,5.64-3,8.4H571.1v3.83Zm32.94,36.24v3.72H535v-3.72h16v-17.52H537.32v-3.72H551v-11.81h4v11.81h13.8v3.72H555v17.52Z"/><path d="M596.84,1968.33c-1.8,4.86-4,11-6.06,15.78,4.44,4.91,5.52,9.23,5.52,12.89,0,3.12-.66,5.64-2.28,6.78a7.16,7.16,0,0,1-3.06,1.08,30.56,30.56,0,0,1-4.08.06,8.81,8.81,0,0,0-1-3.54,25.64,25.64,0,0,0,3.66.06,3.63,3.63,0,0,0,1.92-.54c1-.72,1.26-2.4,1.26-4.2,0-3.3-1.14-7.37-5.58-12.17,1.8-4.5,3.72-9.9,5-14h-8.4V2019h-3.6V1967h13.56l.6-.18Zm33.54,15.47a71.26,71.26,0,0,1-8.1,6c2.22,7.07,6.54,14.57,10.68,18.35a11,11,0,0,0-2.64,2.64c-4.14-4.2-8.46-11.94-10.92-19.2l-1.2.79c3.24,10.07,1.8,20.57-1.86,23.63a7.29,7.29,0,0,1-5.7,2.16c-1.08,0-3.06-.06-4.68-.18a9.49,9.49,0,0,0-1-3.66,41.59,41.59,0,0,0,4.92.3,4.28,4.28,0,0,0,3.54-1.26c1.92-1.68,3.18-7,2.58-13.2a63.24,63.24,0,0,1-17.4,10.86,12.63,12.63,0,0,0-2.34-3c6.78-2.1,15-7.08,19.14-11.76a33.32,33.32,0,0,0-1.38-5,80.59,80.59,0,0,1-13.62,8.94,15.26,15.26,0,0,0-2.34-2.94,56.84,56.84,0,0,0,14.7-8.88,29.43,29.43,0,0,0-3.24-5.09,56.43,56.43,0,0,1-11.34,7.31,20.67,20.67,0,0,0-2.4-2.94A46.68,46.68,0,0,0,610.4,1978H596.6v-3.53h12.12a37,37,0,0,0-7.14-7.8l2.94-1.92a34.5,34.5,0,0,1,7.32,7.62l-2.94,2.1,7,.06a73.49,73.49,0,0,0,6.54-10.2l3.84,1.26a86.8,86.8,0,0,1-6.24,8.94h11.88v3.54h-17A27.31,27.31,0,0,1,612,1981a30.62,30.62,0,0,1,5.1,8.29,88.47,88.47,0,0,0,10.68-8Z"/><path d="M638.84,1967.49h29.7v3.72H653.48a90.91,90.91,0,0,1-2.88,9.24h12.6l.72-.18,2.52.9c-3.36,19.49-12.12,31.61-23.16,38a15.78,15.78,0,0,0-3-3A38.8,38.8,0,0,0,655.7,2001a102,102,0,0,0-11.46-7.92,37.46,37.46,0,0,1-4.86,5.76,23.07,23.07,0,0,0-2.76-2.64c6.42-6.18,10.62-16.14,12.66-25H638.84Zm10.26,16.62a50.73,50.73,0,0,1-3,6,104.42,104.42,0,0,1,11.4,7.5,56.66,56.66,0,0,0,4.44-13.49Zm21.84-12.9h3.9v32.51h-3.9Zm18.6-5.7v48.11c0,2.82-.78,4-2.52,4.68-1.92.66-5,.78-10.5.72a21.74,21.74,0,0,0-1.38-3.9c4.14.12,7.8.12,8.94.06s1.5-.42,1.5-1.5v-48.17Z"/><path d="M748.82,1975.05v27.77h-4.08v-3.48H726.92v19.56h-4.14v-19.56H705v3.78h-4v-28.07h21.72v-10.74h4.14v10.74Zm-26,20.33V1979H705v16.43Zm22,0V1979H726.92v16.43Z"/><path d="M805.46,2014.22c2.28,0,2.7-1.26,2.94-9.12a10.76,10.76,0,0,0,3.66,1.68c-.48,9-1.62,11.22-6.24,11.22h-8.76c-5,0-6.36-1.26-6.36-5.88V1994H778.82c-1.2,11.82-4.56,20.7-18.12,25.32a12.57,12.57,0,0,0-2.58-3.3c12.78-4,15.6-11.76,16.68-22H758.9v-3.83H783v-12.42H770.3a41.61,41.61,0,0,1-5.4,9.24,37.8,37.8,0,0,0-3.42-1.87c4.14-5,7.2-13,8.64-19.25l4.08.78c-.66,2.34-1.44,4.8-2.34,7.26H783v-9.54h4v9.54h20v3.84H787v12.42h24.12V1994H794.72v18.18c0,1.74.42,2,2.76,2Z"/><path d="M837.44,1978.47a79,79,0,0,1-6.72,9.11v31.56h-4V1992a77.73,77.73,0,0,1-7.14,6.54c-.6-.78-2-2.52-2.82-3.29a66.67,66.67,0,0,0,16.86-18.13Zm-2.4-12.66a73.78,73.78,0,0,1-15.3,14.69,29.68,29.68,0,0,0-2.34-3.17,57.46,57.46,0,0,0,13.8-13Zm37,22.44h-9.18v25.49c0,2.52-.66,3.78-2.52,4.44s-5.22.6-11.22.6a14.6,14.6,0,0,0-1.32-3.84c4.44.18,8.4.18,9.54.06s1.5-.3,1.5-1.32v-25.43H838.4v-3.84h33.66Zm-1.74-16.5H841V1968h29.34Z"/><path d="M890.18,1982.67a9.06,9.06,0,1,1-9.06,9A9.09,9.09,0,0,1,890.18,1982.67Zm0,15.23a6.18,6.18,0,1,0,0-12.36,6.18,6.18,0,1,0,0,12.36Z"/><path d="M172.7,2066.06s-.06,1.32-.12,1.86c-1.08,13.56-2.1,18.84-4.08,20.82-1.26,1.32-2.46,1.68-4.56,1.8a90.37,90.37,0,0,1-9.48-.18,8,8,0,0,0-1.44-4c4,.36,8,.36,9.48.36s2-.06,2.58-.6c1.5-1.2,2.4-5.7,3.3-16.32h-22.8c1.14-4.56,2.46-11.63,3.24-17.09H168.5v-10.08h-22v-3.78H172.4v17.58H152.3c-.6,3.3-1.2,6.71-1.86,9.65Zm18.36-29.15V2091h-4v-54.11Z"/><path d="M253.28,2044.23v33.29H249.2v-3.18H231.92v16.5h-4.14v-16.5H211v3.54h-4v-33.65h20.76v-7.92h4.14v7.92Zm-42.3,3.84v9.18h16.8v-9.18Zm16.8,22.49V2061H211v9.6Zm4.14-22.49v9.18H249.2v-9.18Zm17.28,22.49V2061H231.92v9.6Z"/><path d="M315.74,2068.17s-.06,1.19-.12,1.73c-1.14,12.66-2.28,17.64-4.14,19.56a5.52,5.52,0,0,1-4,1.56,66.58,66.58,0,0,1-7.5-.12,9.39,9.39,0,0,0-1.2-3.66c3.12.3,6.06.3,7.2.3a3,3,0,0,0,2.22-.54c1.26-1.32,2.4-5.34,3.36-15.3H274a59.21,59.21,0,0,1-9.66,7.32,19.86,19.86,0,0,0-2.22-3.3c10.26-6,17.82-15.18,23.1-25.43h-20v-3.66H287a82.29,82.29,0,0,0,3.84-10.32l3.9,1a92.32,92.32,0,0,1-3.54,9.3H307c-.72,3.48-1.56,7.62-2.34,10.74h7c-.66,3.47-1.5,7.67-2.28,10.8Zm-49.38,20.33c3.42-3.24,5.7-8.58,7-13.2l3.3,1.08c-1.44,4.92-3.54,10.62-7.14,14.16Zm12.42-42.17a39,39,0,0,0-6-8.34l3.42-1.44a39.57,39.57,0,0,1,6.18,8Zm26.82,21.84c.54-2.11,1.08-4.69,1.56-7.21H283.34a75.18,75.18,0,0,1-5.76,7.21Zm-21.48,7.91a44,44,0,0,1,1.8,11.88l-3.48.54a39.57,39.57,0,0,0-1.62-11.94Zm5.4-25.79c-1.14,2.4-2.46,4.79-3.84,7.08h15.24c.54-2,1.14-4.62,1.62-7.08Zm3.18,24.95a43,43,0,0,1,3.6,10.26l-3.3.9a45.91,45.91,0,0,0-3.42-10.44Zm10.32,8a38.83,38.83,0,0,0-4.56-8.1l2.76-1.08a34.18,34.18,0,0,1,4.74,7.86Z"/><path d="M342.08,2074.52H323.24v-4h18.84Zm-1.92-24.77h-15.6v-3.84h15.6Zm17.46,8c0,1,0,1.92-.06,3,2.82,12.77,8.94,22.49,20,26.33a15.63,15.63,0,0,0-2.64,3.48c-9.3-3.72-15.06-11.16-18.54-21.3-1.92,7.62-6.84,15.6-18.72,21.84a18,18,0,0,0-2.94-3.12c17.46-9,18.72-21.54,18.72-30.3v-4.43h4.2Zm-9.54-7.08a57,57,0,0,1-6.24,12.54,23.73,23.73,0,0,0-3.9-2.23c4.56-5.87,7.8-15.17,9.6-24.59l4.32.72c-.72,3.3-1.56,6.54-2.52,9.6h22.5l.78-.24,2.88,1.56a82.3,82.3,0,0,1-6.24,16c-.84-.48-2.4-1.25-3.36-1.67a68.58,68.58,0,0,0,4.62-11.7Z"/><path d="M436.82,2043.15v3.72H391.34v12.84c0,9.17-.78,22.49-5.82,31.49a14.48,14.48,0,0,0-3.3-2.22c4.8-8.58,5.28-20.64,5.28-29.27v-16.56h23.82c-.84-1.86-2-4.14-2.88-5.94l3.72-1.14c1.32,2.22,2.82,5.1,3.72,7.08Zm-3,22.85,2.82,1.26c-3.18,4.26-6.66,8.94-9.72,11.88l-3.18-1.62a65,65,0,0,0,6.66-7.8H416.66v16.5c0,2.52-.66,3.6-2.7,4.26s-5.58.6-11,.6a15.31,15.31,0,0,0-1.44-3.78c4.56.18,8.52.12,9.72.06s1.38-.3,1.38-1.2v-16.44h-19v-3.47h21.84c-4-2-9-4.5-13.14-6.37l2.34-2.34c2.76,1.14,5.94,2.58,9,4a53.36,53.36,0,0,0,10.26-6.89h-26.7v-3.36h30.24l.9-.19L431,2053a61.4,61.4,0,0,1-13.74,10.21c1.8.89,3.54,1.73,4.8,2.51l-.42.49H433Z"/><path d="M470.66,2081.06c-9.18,2-19,4.2-25.86,5.64l-.84-4c6.48-1.26,16.68-3.3,26.4-5.34Zm22.74-25.61a72.08,72.08,0,0,1-10.68,21c2.22,6.54,5.1,10.44,8.34,10.44,1.74,0,2.52-3.12,2.88-11.16a9.35,9.35,0,0,0,3.48,2.16c-.72,10.2-2.28,13.14-6.72,13.14-4.68,0-8.34-4.14-11.1-10.86a56,56,0,0,1-13.26,10.74,21,21,0,0,0-3.06-3.06,49.81,49.81,0,0,0,14.82-12c-2.16-7.08-3.54-16-4.26-25.85H444.32v-4h29.34c-.18-3.12-.24-6.3-.3-9.54h4.26c0,3.24.06,6.48.18,9.54h18.06v4H478a119.47,119.47,0,0,0,3.3,21.77,67.39,67.39,0,0,0,8.22-17.27Zm-25.08.12v18h-20.4v-18Zm-3.9,3.47H451.58v11h12.84Zm27.36-13.37a46.24,46.24,0,0,0-10.38-6.6l2.28-2.46a44.18,44.18,0,0,1,10.5,6.3Z"/><path d="M521.6,2079.26h-13V2084H504.8v-43.67h16.8Zm-13-35.27v13.73h9.24V2044Zm9.24,31.61v-14.27h-9.24v14.27Zm24-28.31v8.09h13.32V2059h-5.4v6.89h7.2v3.54h-7.2v16.68c0,2.4-.6,3.54-2.34,4.14s-4.74.72-9.66.72a16.74,16.74,0,0,0-1.32-3.78c3.78.12,7.2.12,8.16.06s1.26-.3,1.26-1.2v-16.62H523v-3.54h22.86V2059h-20.4v-3.61h12.48v-8.09H522.68v-3.6h15.24v-7.32h3.9v7.32h15.3v3.6Zm-11.76,24.47a51.18,51.18,0,0,1,7.86,10.32l-3.42,2.16a54.79,54.79,0,0,0-7.68-10.56Z"/><path d="M569.6,2059.22V2091h-3.9V2039h21.42v20.27Zm0-17.15v5.4h13.74v-5.4Zm13.74,14v-5.64H569.6v5.64Zm-.84,29.27v3.06h-3.66v-24.53H601v21.47Zm0-18.36v5.88h14.76V2067Zm14.76,15.18V2076H582.5v6.18Zm17.4,3.3c0,2.7-.66,4-2.52,4.74s-5,.72-10,.72a13.68,13.68,0,0,0-1.38-4.08c3.78.18,7.44.12,8.46.06s1.44-.36,1.44-1.44v-26.21h-18V2039h22Zm-18.12-43.43v5.4H610.7v-5.4Zm14.16,14.1v-5.7H596.54v5.7Z"/><path d="M643.16,2049.62a67.64,67.64,0,0,1-7.2,12.25v28.85h-4v-24a41.57,41.57,0,0,1-7.26,6.41,17,17,0,0,0-2-3.48c7-5,12.3-12.23,16.14-20H624v-3.83h16.44a65.25,65.25,0,0,0,3.3-9.42l4.08,1c-.9,2.82-1.86,5.64-3,8.4H676.1v3.83Zm32.94,36.24v3.72H640v-3.72h16v-17.52H642.32v-3.72H656v-11.81h4v11.81h13.8v3.72H660v17.52Z"/><path d="M708.8,2086.16c0,2.16-.48,3.24-2,3.9s-4.26.66-8.34.66a17,17,0,0,0-1.32-3.54c3.12.12,5.94.12,6.72.06s1.14-.3,1.14-1.08v-8.52H690.68c-.6,4.74-1.86,9.78-4.68,13.56a11.24,11.24,0,0,0-2.94-2.34c4-5.64,4.44-13.38,4.44-19.44v-14.27h21.3Zm27.78-40.25v3.66H683.42v-3.66h15.12a45.12,45.12,0,0,0-5.64-8.28l3.66-1.38a49.14,49.14,0,0,1,6.06,8.52l-2.94,1.14h18.18a79.77,79.77,0,0,0,5.76-9.9l4.14,1.44c-1.68,2.82-3.6,5.94-5.46,8.46ZM705,2074.46V2068h-13.8v1.44c0,1.56-.06,3.24-.18,5Zm-13.8-16v6.41H705v-6.41Zm29,21.65h-3.72v-24.41h3.72Zm8.4-26.22h3.9v31.92c0,2.52-.6,3.6-2.34,4.26s-4.8.72-9.36.72a17,17,0,0,0-1.5-3.84c3.78.12,7,.12,8,.06s1.32-.3,1.32-1.2Z"/><path d="M748.88,2072c4.68-2,7.26-4.86,7.56-9.17a4,4,0,0,1-1.14.11c-2.34,0-4.26-1.32-4.26-4.07a4,4,0,0,1,4.32-4.08c3.18,0,4.86,2.58,4.86,6.66,0,6.41-4,11.21-10.08,13.43Z"/><path d="M827,2073.14v3.72H773.06v-3.72h6.12L778,2041.29a92.86,92.86,0,0,0,11-4.62l2,3.3c-2.76,1.2-6.24,2.4-9.36,3.42l.24,7.32h8.34v3.41h-8.22l.3,7.8h8.1v3.42h-8l.3,7.8H817.4c.12-2.22.3-4.8.42-7.56h-8.16v-3.41h8.28c.12-2.53.24-5.17.3-7.8H810V2051h8.34c.06-2.76.12-5.46.12-8h-8.94v-3.54h12.6c-.06,10.61-.36,25-.9,33.71Zm-32.88,7.32a91.72,91.72,0,0,1-17.82,10.38c-.54-.78-1.62-2.16-2.34-3,5.7-2.4,12.9-6.48,16.68-9.78Zm4.8-21.12a31.15,31.15,0,0,1-3.84,11.4,18.87,18.87,0,0,0-2.82-1.8c1.92-2.64,2.94-6.36,3.48-10.07Zm4.38-3.3h-9.66v-19.31h3.48v5.82h10V2046h-10v6.78h8.16v.06h1.5v16c0,1.74-.36,2.46-1.62,3.06s-3.36.48-6.24.48a10.13,10.13,0,0,0-1.08-2.82,42.8,42.8,0,0,0,4.68.06c.6,0,.78-.24.78-.78Zm4.86,21.84a139.83,139.83,0,0,1,17.46,9.78l-2.58,3a139.2,139.2,0,0,0-17.1-10Z"/><path d="M859,2039.49H844.22v35.15h-4v-38.87H859Z"/><path d="M880,2049.62a67.05,67.05,0,0,1-5.4,8.46v33.18h-3.78v-28.5a55.81,55.81,0,0,1-6,5.94,23.11,23.11,0,0,0-2.4-3.41,57.79,57.79,0,0,0,14-16.92Zm-1.44-11.87a59.41,59.41,0,0,1-13.32,14.1,20,20,0,0,0-2.22-2.82c4.44-3.3,9.42-8.4,11.94-12.66ZM912,2068.17a34,34,0,0,1-11.58,13.91,56.54,56.54,0,0,0,16.08,5.52,13.63,13.63,0,0,0-2.46,3.48,58.51,58.51,0,0,1-17.16-6.72,63.26,63.26,0,0,1-17.7,6.78,10.39,10.39,0,0,0-2-3.42,62.23,62.23,0,0,0,16.26-5.64,41.7,41.7,0,0,1-7.2-6.54,42.74,42.74,0,0,1-4.86,4.08,25.12,25.12,0,0,0-2.76-2.94,46.2,46.2,0,0,0,5.28-4.08,34,34,0,0,1-2.82-4.38l3.3-1.2a19.47,19.47,0,0,0,2,3.18,40.7,40.7,0,0,0,5.82-7.86c-9,.6-10.5.91-11.64,1.26a33.39,33.39,0,0,0-1.2-3.77c1.62-.19,3.78-1.26,6.6-2.88,1.44-.78,4.38-2.58,7.8-4.87-9.36.49-10.92.73-11.82,1.09a28.56,28.56,0,0,0-1.26-3.84,10.79,10.79,0,0,0,3.9-2.16A67.38,67.38,0,0,0,895.28,2037l3.9,1.8a87.44,87.44,0,0,1-11.7,10.32l11.1-.36a87.91,87.91,0,0,0,8.22-6.6l3.66,2.1a135.45,135.45,0,0,1-22.44,15l20.1-1.08c-1.5-1.87-2.94-3.72-4.38-5.29l3.06-1.61a90.33,90.33,0,0,1,10,13l-3.24,1.92c-.78-1.38-2-3.12-3.24-5-5.58.35-10.14.66-13.68.83a52.18,52.18,0,0,1-3,5h15.18l.72-.18Zm-20.94,2.21a33.51,33.51,0,0,1-2.34,2.76,40,40,0,0,0,8.16,6.9,31.13,31.13,0,0,0,9.72-9.66Z"/><path d="M921,2087.84h14.82v-35.15h4v38.87H921Z"/><path d="M967,2058.62c2,2.05,7.68,8.59,8.94,10.2l-2.52,3.24a96.69,96.69,0,0,0-6.42-8.88v27.66h-3.78v-29.58c-2.4,7.2-5.7,14.22-9.06,18.42a27.23,27.23,0,0,0-2.16-3.6c4.2-5,8.52-14.63,10.74-23.09h-9.42v-3.72h9.9v-13H967v13h8.76V2053H967Zm38.16-18.71v50.45h-3.9v-3.48h-19v3.66H978.5v-50.63Zm-22.86,3.78v10.5h19v-10.5Zm0,24.95h19v-10.8h-19Zm19,14.58V2072.3h-19v10.92Z"/><path d="M1067.06,2056.34H1061v29.52c0,2.64-.72,3.72-2.34,4.38s-4.44.84-9.3.78a17.68,17.68,0,0,0-1.5-3.78c3.72.12,7,.06,7.92.06s1.38-.36,1.38-1.38v-29.58H1042.7v-3.65h-29.76v-3.42h9.36v-12.9h3.3v12.9h4.92v-12.9h3.36v10.2a55.7,55.7,0,0,0,5.82-8.28l3.24,1.74a73.94,73.94,0,0,1-6.6,8.09l-2.46-1.43v2.58h9.24v3.3h14v-16H1061v16h6.06Zm-37.08,26c4.14-.6,8.52-1.2,12.84-1.8l.12,3.54c-10.56,1.56-21.72,3.12-29.34,4.26l-.6-3.84c3.6-.42,8.16-1,13.2-1.68v-7.56h-9.6v-3.42h9.6v-6.48h-11.28V2062h15.6a69.11,69.11,0,0,0,4.26-8.7l3.54,1.25c-1.32,2.53-2.76,5.22-4.08,7.45h7v3.41H1030v6.48h10v3.42h-10Zm-10.44-34.31a37.34,37.34,0,0,0-5.64-8.22l2.58-1.56a35.25,35.25,0,0,1,5.76,8Zm1.62,5a28.59,28.59,0,0,1,4.8,6.84l-3,1.73a27,27,0,0,0-4.68-7.07Zm28.86,23.15a50.17,50.17,0,0,0-5.46-13.8l3.36-1.2c2.58,4.38,5,10,5.64,13.62Z"/><path d="M1085.18,2054.67a9.06,9.06,0,1,1-9.06,9A9.09,9.09,0,0,1,1085.18,2054.67Zm0,15.23a6.18,6.18,0,1,0,0-12.36,6.18,6.18,0,0,0,0,12.36Z"/><rect class="cls-2" x="1113" y="1134" width="65" height="271" rx="12"/><path class="cls-1" d="M1158.05,1173.79a27.61,27.61,0,0,0,11.5,8.1,11.65,11.65,0,0,0-2.15,2.55,30.77,30.77,0,0,1-12.8-10.65h-15.95a34.39,34.39,0,0,1-13,11.3,11.43,11.43,0,0,0-2.15-2.55,30.39,30.39,0,0,0,11.6-8.75H1124v-2.85h10v-16.15h-7.7V1152h7.7v-5h3.3v5h18.55v-5h3.35v5h7.65v2.8h-7.65v16.15h9.8v2.85Zm-10,14.5h17.3v2.85H1127.8v-2.85h16.9v-5.6h-10.45v-2.8h10.45v-4.4h3.35v4.4h10.65v2.8h-10.65Zm-10.8-33.5v3.6h18.55v-3.6Zm0,9.8h18.55v-3.65h-18.55Zm0,6.35h18.55v-3.8h-18.55Z"/><path class="cls-1" d="M1142.25,1215.54s0,1.15,0,1.55c-.6,15.85-1.2,21.2-2.6,23a3.71,3.71,0,0,1-2.8,1.45,32.65,32.65,0,0,1-4.45,0,9.25,9.25,0,0,0-.85-3c1.75.15,3.2.15,3.9.15a1.42,1.42,0,0,0,1.45-.65c1-1.2,1.6-6,2.15-19.35h-6.8c-.55,10-2,18.25-6.45,23.65a9.53,9.53,0,0,0-2.55-2.35c5.45-6.45,5.9-17.85,6.1-31.55h-5.2v-3.1h20.1v3.1h-11.65c0,2.45-.1,4.85-.2,7.15Zm-7.9-10.45a33.47,33.47,0,0,0-4.25-7.15l2.9-1.15a31.92,31.92,0,0,1,4.4,7Zm23.85-7.45a15.26,15.26,0,0,1-.85,2.55c2.65,5.45,7.7,11.35,12.45,14a13,13,0,0,0-2.45,2.75c-4.25-2.7-8.5-8-11.4-13.3a32.61,32.61,0,0,1-11,13.6,12.79,12.79,0,0,0-2.35-2.65c5.85-3.6,10.35-10.2,12.5-17.85Zm-8.3,32.45a74,74,0,0,1,13.6,8.25l-2.25,2.9c-2.85-2.6-8.75-6.3-13.4-8.65Zm9.5-4.85a66.22,66.22,0,0,0-8.6-6.85l2.15-2.2a67.46,67.46,0,0,1,8.75,6.55Z"/><path class="cls-1" d="M1165,1250.19v29.3h-3.5v-2.55h-13.3v15.6h-3.45v-15.6h-13.4v2.75H1128v-29.5Zm-33.65,3.2V1262h13.4v-8.65Zm13.4,20.35v-8.5h-13.4v8.5Zm16.75-20.35h-13.3V1262h13.3Zm0,20.35v-8.5h-13.3v8.5Z"/><path class="cls-1" d="M1167.25,1312.09v9.3h-3.15V1315h-35.4v6.4h-3v-9.3h6.95v-12.95h27.7v12.95Zm-6.45,26.6c0,1.85-.45,2.7-1.85,3.2s-3.9.5-7.7.45a8.57,8.57,0,0,0-1.1-2.75c3,.05,5.65.05,6.4.05s1-.25,1-1v-6.2c-7.3,1.45-14.85,3-20.45,4l-1.1-3c5.4-.8,13.6-2.3,21.55-3.75V1321h-22.2v5.3c0,4.85-.65,11.55-4.35,16.2a13.29,13.29,0,0,0-2.7-2c3.45-4.25,3.85-10,3.85-14.25v-8h28.6Zm-25-26.6h7.45v-6.9H1157v-3.35h-21.2Zm2.45,11.7a75.14,75.14,0,0,1,17.7,3l-.9,2.6c-4-1.5-11.7-2.9-17.7-3.35Zm18.75-16.3h-10.75v4.6H1157Z"/><path class="cls-1" d="M1161,1359.09a51.83,51.83,0,0,1-12,19.6,49.94,49.94,0,0,0,20.5,10.5,16.79,16.79,0,0,0-2.25,3,50.92,50.92,0,0,1-20.75-11.1c-5.65,5-12.55,8.6-21,11.3a15.53,15.53,0,0,0-2-3.05c8.35-2.45,15.1-5.9,20.6-10.6a57.05,57.05,0,0,1-12.2-19.65h-7.75v-3.25h44.75v3.25Zm-25.75,0a52.13,52.13,0,0,0,11.3,17.3,47.46,47.46,0,0,0,10.7-17.3Zm11.25-3.55a38.13,38.13,0,0,0-3.8-7.8l3.4-1a39,39,0,0,1,4,7.65Z"/><path d="M606,1283a223.4,223.4,0,0,1,39.5,24.32l-5.16-4a209.46,209.46,0,0,1,37.14,37.18l-4-5.16a213.67,213.67,0,0,1,27.24,47.07l-2.57-6.09A321.21,321.21,0,0,1,720,1458.42l-.91-6.78a479.39,479.39,0,0,1,3.67,71.56c-.42,23.9-2.18,47.76-4.38,71.56-1.24,13.37-2.62,26.74-4,40.1a28.24,28.24,0,0,0,7.47,18c4.42,4.43,11.68,7.76,18,7.47,6.59-.29,13.43-2.46,18-7.47l4-5.16a25.46,25.46,0,0,0,3.48-12.87c3-29,6-58.12,7.51-87.3s1.46-58.56-1.79-87.64c-3.52-31.49-9.86-62.53-21.66-92-5.35-13.37-11.2-26.51-18.65-38.86a243,243,0,0,0-24.53-33.49,207.25,207.25,0,0,0-27.08-26.07,252,252,0,0,0-38.27-25.83q-4.53-2.45-9.17-4.67a19,19,0,0,0-9.48-3,19.34,19.34,0,0,0-10.17.45c-5.91,1.63-12.32,6.2-15.24,11.72-3.12,5.92-4.69,13.09-2.57,19.65,2,6,5.8,12.38,11.72,15.24Z"/><line class="cls-3" x1="617.69" y1="1261.27" x2="455" y2="1453.95"/><path d="M536.46,1013c-1.65,19.18-3.14,38.37-3.83,57.61a483.57,483.57,0,0,0,1,57.61c1,11.68,2.48,23.35,4.46,34.91a223.37,223.37,0,0,0,5.82,26.09c1,3.28,2.08,6.53,3.35,9.71,2,5,4.08,10.07,6.58,14.88a81.69,81.69,0,0,0,5.13,8.58,114.06,114.06,0,0,0,9.87,12.58,58.61,58.61,0,0,0,7.09,6.55c4.18,3.29,8.29,6.58,13,9a84.62,84.62,0,0,0,15,6.12,88.52,88.52,0,0,0,16.78,2.77c1.84.17,3.68.24,5.52.23a26.21,26.21,0,0,0,25.5-25.5l-.91-6.78a25.45,25.45,0,0,0-6.56-11.25c-5-4.58-11.12-7.48-18-7.47a59.33,59.33,0,0,1-8-.51l6.78.92a52.19,52.19,0,0,1-12.94-3.5l6.09,2.57a52.19,52.19,0,0,1-11.25-6.58l5.16,4a60.88,60.88,0,0,1-10.72-10.8l4,5.16a84.85,84.85,0,0,1-10.75-18.77l2.57,6.09a130.48,130.48,0,0,1-6.45-20.51c-2.19-9.28-3.88-18.68-5.16-28.12l.91,6.78a397.55,397.55,0,0,1-3.29-51.49c-.06-17.34.75-34.67,1.94-52,.67-9.65,1.46-19.29,2.29-28.93a26.23,26.23,0,0,0-25.5-25.5l-6.78.91A25.54,25.54,0,0,0,543.92,995l-4,5.16a25.32,25.32,0,0,0-3.48,12.87Z"/><path d="M660.75,964.71q1.38,16,2.57,31.92,1.39,18.86,2.41,37.74c.7,13.49,1.23,27,1.49,40.48s.25,26.9-.18,40.34c-.4,12.25-1.15,24.51-2.6,36.69-.17,1.39-.35,2.77-.53,4.15l.91-6.78c-1.75,13-4.4,25.85-9.47,38l2.57-6.1a84.8,84.8,0,0,1-10.73,18.75l4-5.16a61.57,61.57,0,0,1-10.6,10.74l5.16-4a51.55,51.55,0,0,1-11.22,6.63l6.09-2.57a52.18,52.18,0,0,1-13.27,3.6l6.78-.91a58.74,58.74,0,0,1-7.84.49,28.38,28.38,0,0,0-18,7.47,28.44,28.44,0,0,0-7.47,18l.91,6.78a25.45,25.45,0,0,0,6.56,11.25c5,4.59,11.12,7.47,18,7.47a104.23,104.23,0,0,0,14.62-1.4,55.18,55.18,0,0,0,7.42-1.53,97.6,97.6,0,0,0,12.58-4.92,49.53,49.53,0,0,0,6.39-3.41,89.79,89.79,0,0,0,28.13-28.87c3.72-6,6.41-12.34,9.11-18.8a118.26,118.26,0,0,0,4.84-14.09c2.86-10.46,4.32-21.22,5.71-32,2.62-20.18,3.27-40.61,3.31-61,0-22-.78-44-2-66-1.08-19.12-2.51-38.23-4.12-57.32-.16-1.9-.32-3.81-.49-5.71a26.21,26.21,0,0,0-25.5-25.5l-6.77.91a25.48,25.48,0,0,0-11.26,6.56l-4,5.16a25.43,25.43,0,0,0-3.49,12.87Z"/><path d="M548.6,1082.55a231.28,231.28,0,0,0,28.86,13,179.39,179.39,0,0,0,24.24,7.2,218.15,218.15,0,0,0,31.56,4.55,163.23,163.23,0,0,0,25.88-.22,238.75,238.75,0,0,0,32.46-5,150.21,150.21,0,0,0,24.38-7.38c5.58-2.31,11.15-4.58,16.26-7.82a115.79,115.79,0,0,0,9.66-7.15,51.28,51.28,0,0,0,4.36-3.85,49.49,49.49,0,0,0,3.75-4.18c2.43-3,4.91-6.12,7-9.38,3.25-5,5.46-10.41,7.73-15.88,3.87-9.35,5.41-19.35,6.36-29.38a138.13,138.13,0,0,0-.52-27.35c-.23-2.26-.5-4.51-.79-6.75a26.19,26.19,0,0,0-25.5-25.5l-6.78.91a25.45,25.45,0,0,0-11.26,6.56l-4,5.16A25.27,25.27,0,0,0,718.83,983c1.6,12.49,2.55,25.16.9,37.7l.91-6.78a76.77,76.77,0,0,1-5.12,19.19l2.57-6.09a60.28,60.28,0,0,1-7.64,13.19l4-5.16a51,51,0,0,1-8.94,8.92l5.16-4a65.34,65.34,0,0,1-14.33,8.16l6.09-2.57a142,142,0,0,1-20.06,6.34,198.27,198.27,0,0,1-21.62,4.18l6.78-.91a168.53,168.53,0,0,1-44.59.08l6.78.92a179.53,179.53,0,0,1-45.2-12.37l6.09,2.57q-8.33-3.51-16.26-7.82a19,19,0,0,0-9.48-3,26.19,26.19,0,0,0-25.41,12.18l-2.57,6.09a25.58,25.58,0,0,0,0,13.56l2.57,6.09a25.55,25.55,0,0,0,9.15,9.15Z"/><line class="cls-3" x1="465.5" y1="1240.51" x2="785" y2="1240.51"/></svg>