<svg id="Layer_1" data-name="Layer 1" xmlns="http://www.w3.org/2000/svg" viewBox="0 0 1242 2208"><defs><style>.cls-1{fill:#f6eabe;}.cls-2{fill:#999;}.cls-3{fill:none;stroke:#000;stroke-linecap:round;stroke-miterlimit:10;stroke-width:50px;}</style></defs><rect class="cls-1" width="1242" height="2208"/><path d="M892.54,815.9c31.76,0,38.12-19.85,41.29-135C945.74,691.24,968,700,982.27,703.15c-6.36,127.83-20.65,162-85.75,162H779c-67.48,0-86.54-17.47-86.54-81V496.71H540c-15.08,175.48-54.78,304.1-251.69,369.21-5.56-12.7-21.44-34.94-33.35-45.26,185.79-56.37,216.76-169.91,229.46-323.95H270.06v-50H592.42V142.59h52.4v304.1H973.53v50H745.66V783.35c0,27,6.35,32.55,38.11,32.55ZM433.62,397.47c-14.29-51.61-54.79-135-96.07-197.71l47.64-17.47c41.28,61.14,83.36,142.13,99.24,195.33ZM912.4,193.41c-34.15,68.28-77,150.86-112,202.47l-43.67-18.26c34.14-53.2,77.81-141.33,101.63-204.06Z"/><path d="M168.38,1854.49H153.56v35.15h-4v-38.87h18.78Z"/><path d="M202,1852.09c-.06,8-.06,16-1.38,23.4,3.54,13.67,11.52,23.09,25.5,26.63a12.77,12.77,0,0,0-2.58,3.6c-12.48-3.66-20-11.58-24.48-23.46-3.18,10.26-9.84,18.78-23.7,23.76a14.64,14.64,0,0,0-2.7-3.18c25.56-8.94,24.9-29.58,25-50.75Zm-19.56,30.12a173,173,0,0,0-6.24-18.18l3.78-1.32c2.4,5.82,5.16,13.37,6.48,17.75Zm41.34-17.1a145.58,145.58,0,0,1-9.24,16.85l-3.36-1.5a106.75,106.75,0,0,0,8.34-17Z"/><path d="M230.3,1902.84h14.82v-35.15h4v38.87H230.3Z"/><path d="M282.5,1864.62a67.64,67.64,0,0,1-7.2,12.25v28.85h-4v-24a41.57,41.57,0,0,1-7.26,6.41,17,17,0,0,0-2-3.48c7-5,12.3-12.23,16.14-20H263.36v-3.83H279.8a65.25,65.25,0,0,0,3.3-9.42l4.08,1c-.9,2.82-1.86,5.64-3,8.4h31.26v3.83Zm32.94,36.24v3.72H279.32v-3.72h16v-17.52H281.66v-3.72h13.68v-11.81h4v11.81h13.8v3.72H299.3v17.52Z"/><path d="M376.1,1899.18v4H322.64v-4h22.62v-46.85h4.14v18.54H372v4H349.4v24.3Z"/><path d="M388.22,1887c4.68-2,7.26-4.86,7.56-9.17a4,4,0,0,1-1.14.11c-2.34,0-4.26-1.32-4.26-4.07a4,4,0,0,1,4.32-4.08c3.18,0,4.86,2.58,4.86,6.66,0,6.41-4,11.21-10.08,13.43Z"/><path d="M438.38,1854.49H423.56v35.15h-4v-38.87h18.78Z"/><path d="M459.08,1853.83v19.38c0,12.11-1.5,24.29-14.7,32.87a14.85,14.85,0,0,0-2.82-3.06c12.18-7.86,13.62-19,13.62-29.81v-19.38Zm22.32-.06v44.57c0,2.76.42,3.24,2.4,3.24h6.6c2.16,0,2.52-2.58,2.76-12.66a9.67,9.67,0,0,0,3.72,1.8c-.42,11-1.32,14.64-6.24,14.64h-7.32c-4.62,0-5.94-1.5-5.94-7.08v-44.51Z"/><path d="M500.3,1902.84h14.82v-35.15h4v38.87H500.3Z"/><path d="M555.5,1850.17l3.24,1.74c-7.08,7.26-11.28,16.2-11.28,26.76s4.2,19.49,11.28,26.75l-3.24,1.74c-7.32-7.5-11.94-17-11.94-28.49S548.18,1857.67,555.5,1850.17Z"/><path d="M581.06,1864.62H561.92v-3.29h19.14Zm-1.2,15.9h-16v-3.23h16Zm-.36,22H567.56v2.82h-3.3v-20H579.5Zm-15.18-30v-3.23h15.24v3.23Zm7.92-11.69a37.94,37.94,0,0,0-5.16-7.8l3.3-1.32a43.55,43.55,0,0,1,5.4,7.5Zm-4.68,27.77v10.56h8.58v-10.56Zm28.38,10.92a53.19,53.19,0,0,1-13.5,6.54,17.47,17.47,0,0,0-2.58-2.58c4.56-1.32,10.08-3.78,12.72-5.88Zm1-41.93h-14v-2.82h14v-3.42h3.9v3.42H615.8v2.82H600.86v3.06h13.2v2.7H585v-2.7H597ZM583.4,1866h31.92v11.69H583.4Zm30.3,31.55H585.08V1880H613.7Zm-27-22.25h6.12v-6.84H586.7ZM610,1882.5H588.74v2.7H610Zm0,4.8H588.74v2.76H610Zm0,4.8H588.74V1895H610Zm-7.32-16.85v-6.84h-7.08v6.84Zm1.56,22.25c4.62,2,9.66,4.38,12.84,6.06l-2.28,2.64c-3-1.68-8-4.2-12.42-6.3Zm7.68-29.09h-6.42v6.84h6.42Z"/><path d="M625,1869.07h4l.48,5.93h.18c2.22-4.08,5.52-6.77,9.18-6.77a7,7,0,0,1,3.42.72l-1,4.26a8.2,8.2,0,0,0-3.06-.54c-2.76,0-6.12,2-8.34,7.67v21.12H625Z"/><path d="M644.6,1885.26c0-10.5,7-17,14.46-17,8.1,0,12.78,5.81,12.78,15.17a14.19,14.19,0,0,1-.24,2.94H649.46c.3,7.2,4.62,12,11.1,12a14.28,14.28,0,0,0,8.22-2.64l1.8,3.24a18.91,18.91,0,0,1-10.62,3.3C651.44,1902.24,644.6,1895.94,644.6,1885.26Zm22.92-2.51c0-6.91-3.12-10.57-8.4-10.57-4.8,0-9.06,3.9-9.72,10.57Zm-12.24-22.08,9.36-11,3.42,3.24-10.2,10.19Z"/><path d="M680.06,1869.07h4l.48,4.73h.18c3.12-3,6.48-5.57,10.92-5.57,6.78,0,9.9,4.38,9.9,12.65v20.58h-4.92v-20c0-6.23-1.92-9-6.42-9-3.42,0-5.88,1.8-9.24,5.27v23.7h-4.86Z"/><path d="M719.54,1887c4.68-2,7.26-4.86,7.56-9.17a4,4,0,0,1-1.14.11c-2.34,0-4.26-1.32-4.26-4.07a4,4,0,0,1,4.32-4.08c3.18,0,4.86,2.58,4.86,6.66,0,6.41-4,11.21-10.08,13.43Z"/><path d="M795.26,1900.8c0,2.58-.72,3.84-2.4,4.5s-4.74.78-9.9.78a14.91,14.91,0,0,0-1.5-3.9c3.9.12,7.38.12,8.4.06s1.5-.42,1.5-1.44v-42.53H750.08v47.87h-3.9v-51.65h49.08ZM786,1868.41H755.6v-3.48H786Zm-23.64,25.31v4.44h-3.72V1875h24v18.77Zm0-15.35v11.93h16.56v-11.93Z"/><path d="M829.7,1854.49H814.88v35.15h-4v-38.87H829.7Z"/><path d="M862.94,1851.55c-.06,2.1-.12,5.1-.42,8.64.9,7,4.56,32.51,25.74,42a12.63,12.63,0,0,0-2.88,3.36c-15.42-7.26-21.72-22.74-24.6-34-2.64,12.23-8.94,26.33-24.06,34.19a13.77,13.77,0,0,0-3.12-3.06c25-12.48,24.78-42.11,25-51.11Z"/><path d="M891.62,1902.84h14.82v-35.15h4v38.87H891.62Z"/><path d="M924.5,1907.16l-3.24-1.74c7.08-7.26,11.28-16.2,11.28-26.75s-4.2-19.5-11.28-26.76l3.24-1.74c7.32,7.5,11.94,17,11.94,28.5S931.82,1899.66,924.5,1907.16Z"/><path d="M973.82,1864.62a67.64,67.64,0,0,1-7.2,12.25v28.85h-4v-24a41.57,41.57,0,0,1-7.26,6.41,17,17,0,0,0-2-3.48c7-5,12.3-12.23,16.14-20H954.68v-3.83h16.44a65.25,65.25,0,0,0,3.3-9.42l4.08,1c-.9,2.82-1.86,5.64-3,8.4h31.26v3.83Zm32.94,36.24v3.72H970.64v-3.72h16v-17.52H973v-3.72h13.68v-11.81h4v11.81h13.8v3.72h-13.8v17.52Z"/><path d="M1041.62,1859.71v10.86l.66-.78c7.32,3.54,16.74,8.93,21.54,12.53l-2.76,3.6c-4.2-3.42-12.48-8.46-19.44-12.12v32.1h-4.2v-46.19H1014.2v-4h53v4Z"/><path d="M1079.54,1887c4.68-2,7.26-4.86,7.56-9.17a4,4,0,0,1-1.14.11c-2.34,0-4.26-1.32-4.26-4.07a4,4,0,0,1,4.32-4.08c3.18,0,4.86,2.58,4.86,6.66,0,6.41-4,11.21-10.08,13.43Z"/><path d="M368.24,1924.51a13.18,13.18,0,0,1-.84,1.08c5.7,5.64,16.2,10.62,25.56,12.83a12.89,12.89,0,0,0-2.52,3.12,71.7,71.7,0,0,1-14.88-6.17l-.06,1.92H354.74l.06-1.68a89.68,89.68,0,0,1-14.88,6.23,30.91,30.91,0,0,0-2.28-3c10.8-3,21.48-8.28,27.12-15.6Zm-23.16,16H385v14.88h-39.9Zm3.42,12.06h14.7v-9.23H348.5Zm.12,5.82H382v19.38h-4v-1.86h-25.5v2h-3.9Zm6.66-14.22a21.86,21.86,0,0,1,3.78,6.84l-3.06,1.21a27.26,27.26,0,0,0-3.6-7.09Zm-2.76,17.16v4.32H378v-4.32Zm25.5,11.64v-4.38h-25.5v4.38Zm-4.2-38.57a48.46,48.46,0,0,1-8.58-6.42,45.19,45.19,0,0,1-8.34,6.42Zm7.5,8.94H366.56v9.23h14.76Zm-10.62,7.79a53.26,53.26,0,0,0,3.54-7.2l3.36,1.08a73,73,0,0,1-4.14,7.21Z"/><path d="M399.08,1974.48c3.06-2.58,5.64-7,7.08-10.44l3.3,1.5c-1.68,3.6-4.08,8-7.14,10.86Zm51.72-36.9v3.25H399.56v-3.25h14.16a23.89,23.89,0,0,0-2.34-5.45l3.36-.84H402.26V1928h21.9c-.72-1.44-1.56-2.94-2.34-4.2l3.78-.9a39.9,39.9,0,0,1,2.94,5.1h19.2v3.3H435.86l3.24.78c-1,1.92-2,3.84-3,5.51Zm-7,23.7H422.66a47.07,47.07,0,0,1,8.82,6.24L429,1970a48.61,48.61,0,0,0-9.3-6.9l2-1.8H406.58V1944h37.2Zm-3.9-14.45H410.36v4.43h29.52Zm0,7.13H410.36v4.44h29.52Zm-8.22,20.16c2.58,0,3-.72,3.24-6.24a12.08,12.08,0,0,0,3.54,1.38c-.48,6.66-1.74,8.22-6.42,8.22H420.44c-5.82,0-7.38-1-7.38-5v-8H417v8c0,1.38.54,1.68,3.72,1.68ZM415,1931.29a26.19,26.19,0,0,1,2.76,6.18l-.48.11H432a59.18,59.18,0,0,0,3.06-6.29Zm27.66,32.21a46.55,46.55,0,0,1,8,10.2l-3.36,1.74a49,49,0,0,0-7.8-10.56Z"/><path d="M512.36,1947.91v4.31H457.88v-4.31Z"/><path d="M533.3,1924.63a99.16,99.16,0,0,1-4.86,11.64V1978H524.6v-34.73a68.26,68.26,0,0,1-6.12,8.46,21.26,21.26,0,0,0-2.22-4c5.46-5.88,10.32-14.94,13.32-24.12Zm37,2.46v50.33h-3.78v-3.06H539.3v3.54h-3.72v-50.81Zm-3.78,43.73v-40.25H539.3v40.25Zm-11.82-28.13v6.83h7.08v16H544.58v-16h6.78v-6.83h-9.42v-3.19h9.42v-6.83h3.3v6.83h9.66v3.19Zm3.9,9.89H547.7v9.9h10.86Z"/><path d="M607.28,1923.55c-.06,2.1-.12,5.1-.42,8.64.9,7,4.56,32.51,25.74,42a12.63,12.63,0,0,0-2.88,3.36c-15.42-7.26-21.72-22.74-24.6-34-2.64,12.23-8.94,26.33-24.06,34.19a13.77,13.77,0,0,0-3.12-3.06c25-12.48,24.78-42.11,25-51.11Z"/><path d="M662.54,1969.2c-8.52,2-17.46,4-24,5.34l-1-3.72c6.18-1.14,15.6-3.06,24.72-5Zm-.72-38.81h-23.4v-3.72h23.4Zm-1.44,21.9H640v-16h20.34Zm-16.44,14.45a41.62,41.62,0,0,0-2.34-11.28l3.24-.78a37.26,37.26,0,0,1,2.58,11.16Zm12.78-27h-13.2v9.23h13.2ZM652,1966.26a85,85,0,0,0,2.7-12.12l3.9,1c-1.08,4.07-2.4,8.93-3.54,12Zm22.5,3.9c-3.18,3.12-8.46,6.12-13.08,7.86a22.91,22.91,0,0,0-2.7-2.7c4.68-1.56,9.84-4.56,12.24-7.14Zm-.72-34.43c.48-1.86,1-4,1.26-5.94H663.44v-3.54h28.74v3.54H679.4c-.54,2-1.14,4.14-1.74,5.94H690.2v31H665.36v-31Zm12.66,3.18H669v6.17h17.4Zm0,9.11H669v6.24h17.4Zm0,9.3H669v6.24h17.4Zm-3.36,11.16a75.29,75.29,0,0,1,10.32,7.38l-3.24,2.16A66.38,66.38,0,0,0,680,1970.4Z"/><path d="M747.92,1944.12c-1.38,8.52-3.6,16-7.2,22.14,1.74,4.92,3.78,7.8,6.06,7.8,1.32-.06,1.92-1.92,2.22-7.56a10,10,0,0,0,3.12,2c-.72,7.14-2,9.36-5.76,9.36-3.36,0-6.12-2.88-8.28-7.86a31.87,31.87,0,0,1-8.88,7.8,12.69,12.69,0,0,0-2.76-2.94,28.59,28.59,0,0,0,10-9.24c-2.16-7-3.54-16.32-4.32-26.81H697.76v-3.3h15.3v-3.9H701.6v-3.24h11.46v-5h3.84v5h11.46v3.24H716.9v3.9H732c-.24-3.9-.36-8-.42-12.18h4c0,4.2.06,8.34.3,12.18h14.82v3.3H736a128.29,128.29,0,0,0,3.18,22.07,64.76,64.76,0,0,0,5-17.63Zm-40.14,21.12v-3.54h-7.62v-2.76h7.62v-3.12H701.3v-13.91h27.12v13.91h-6.6v3.12h7.56v2.76h-7.56v3.54h8.94v2.88H698.12v-2.88Zm3.84,4.74a44.79,44.79,0,0,1-9.36,8.46,28.3,28.3,0,0,0-2.88-2.46,32.39,32.39,0,0,0,8.76-7.08Zm-7-22.31h8.52v-3.42h-8.52Zm0,5.75h8.52v-3.48h-8.52Zm6.54,5.52h7.26v-3.12H711.2Zm0,6.3h7.26v-3.54H711.2Zm8,3.78a44.6,44.6,0,0,1,6.54,6.48l-3.3,1.68a58.85,58.85,0,0,0-6.42-6.66Zm5.76-24.77h-8.46v3.42h8.46Zm0,5.69h-8.46v3.48h8.46Zm20-15.71a35.15,35.15,0,0,0-7.92-7.38l2.76-2.22c3.06,2,6.48,5,8,7.26Z"/><path d="M787.7,1924.09c-.06,8-.06,16-1.38,23.4,3.54,13.67,11.52,23.09,25.5,26.63a12.77,12.77,0,0,0-2.58,3.6c-12.48-3.66-20-11.58-24.48-23.46-3.18,10.26-9.84,18.78-23.7,23.76a14.64,14.64,0,0,0-2.7-3.18c25.56-8.94,24.9-29.58,25-50.75Zm-19.56,30.12A173,173,0,0,0,761.9,1936l3.78-1.32c2.4,5.82,5.16,13.37,6.48,17.75Zm41.34-17.1a145.58,145.58,0,0,1-9.24,16.85l-3.36-1.5a106.75,106.75,0,0,0,8.34-17Z"/><path d="M820.76,1950.54a161.49,161.49,0,0,0-3.3-16.19l3-.72a140.61,140.61,0,0,1,3.48,15.95Zm9.78-6.54a84.56,84.56,0,0,1-.84,13.5c2.16,2.16,7.5,8.64,8.82,10.2l-2.7,2.94a99,99,0,0,0-6.9-9,33.46,33.46,0,0,1-8.64,16.44,12.8,12.8,0,0,0-2.7-2.7c8.4-8.88,9.3-20.34,9.3-31.38v-20.39h3.66Zm2.22,2.53a92.84,92.84,0,0,0,3.6-12.78l3.3,1.37c-1.38,4.09-3,9.3-4.38,12.55Zm39.36,25v3.9H840.2v-3.9h3.36v-40.67h-3.84v-3.9h31.44v3.9h-23.7V1940h21.36v20.87H847.46v10.62Zm-24.66-27.77v13.37h17.46v-13.37Z"/><path d="M890.18,1941.67a9.06,9.06,0,1,1-9.06,9A9.09,9.09,0,0,1,890.18,1941.67Zm0,15.23a6.18,6.18,0,1,0,0-12.36,6.18,6.18,0,1,0,0,12.36Z"/><path d="M491.9,2012.17c4.44,10.31,12.24,20,20.76,24.71a23.11,23.11,0,0,0-3.06,3.36c-9-5.58-16.92-16.32-21.6-28.07h-1v22.43h14.28v4H487V2050H482.9v-11.4H468.68v-4H482.9v-22.43h-1.08c-4.74,11.75-12.66,22.43-21.3,28.25a24.18,24.18,0,0,0-2.88-3.18c8-4.92,15.66-14.76,20.16-25.07H459.14v-4H482.9v-12.72H487v12.72h24v4Z"/><path d="M566.9,2034.54a33.64,33.64,0,0,1-8.22,7.38c2.4,2.82,5.22,4.44,8.16,4.38,1.68-.06,2.16-1.5,2.46-5.94a10.31,10.31,0,0,0,3.12,1.62c-.6,6.3-2.1,7.92-5.76,8-4.26,0-8.16-2.22-11.28-6a74.41,74.41,0,0,1-13.68,5.82,36.46,36.46,0,0,0-2.1-3.24,65.61,65.61,0,0,0,13.86-5.34,34.94,34.94,0,0,1-3.84-8.82H535.16v4.38l11.16-1-.06,2.88-11.1,1.08v6.12c0,2.1-.48,3.06-2.16,3.54s-4.38.54-8.94.54a19.42,19.42,0,0,0-1.26-3.18c3.36.12,6.48.06,7.38,0s1.2-.24,1.2-1v-5.7c-4.74.48-9.12.9-12.72,1.2l-.42-3.3c3.54-.24,8.1-.54,13.14-1v-4.68h-12.9v-3.18h12.9v-4.44c-3.78.42-7.68.72-11.28.91a12,12,0,0,0-.9-2.71c8.16-.48,18.18-1.55,23.52-2.94l2.52,2.58c-2.82.66-6.36,1.26-10.08,1.74v4.86h13.68a52.67,52.67,0,0,1-1.2-8.94h3.84a57.48,57.48,0,0,0,1.2,8.94h19v3.18H553.58a31.91,31.91,0,0,0,3.12,6.9,27.09,27.09,0,0,0,6.72-5.94Zm4.62-15.17h-53v-3.25H542.9V2012H524.3v-3.06h18.6v-4H521.06v-3.18h12.66a30,30,0,0,0-3.48-5.16l3.42-1.26a24.4,24.4,0,0,1,4.32,6.24l-.42.18H552.2a54.7,54.7,0,0,0,3.6-6.6l4.14,1.2c-1.2,1.86-2.52,3.84-3.72,5.4h12.84V2005H546.92v4h18.9V2012h-18.9v4.13h24.6Zm-5.7,9a34,34,0,0,0-9.48-5.52l2.16-2.46a38.32,38.32,0,0,1,9.66,5.22Z"/><path d="M607.46,2044.62a70.7,70.7,0,0,0,7.38.36c2.1.06,14.76,0,17.58-.06a16.36,16.36,0,0,0-1.44,3.84H614.72c-12.3,0-19.92-1.92-24.72-10.38a31.55,31.55,0,0,1-9.48,11.7,19.84,19.84,0,0,0-3.06-2.82c6.3-4.14,10.2-10.92,11.82-19.86l4,.6a55.92,55.92,0,0,1-1.5,6.06c2.34,5.64,6.3,8.52,11.7,9.84v-18.54H578.72v-3.6H631.4v3.6H607.46v7.08h20v3.6h-20Zm17.22-27.17h-39.6v-19.56h39.6Zm-4-16.44H589v5.16h31.68Zm0,8.1H589v5.27h31.68Z"/><path d="M643.82,2034.48v5.64H640.1v-41h19.32v35.39Zm0-31.79v11.93H655.7v-11.93Zm11.88,28.07v-12.47H643.82v12.47Zm34.62,13.74c0,2.64-.6,4-2.46,4.62s-5,.72-10.2.72a14.91,14.91,0,0,0-1.5-3.9c4,.18,7.8.12,8.76.06,1.14-.06,1.56-.42,1.56-1.5v-13.68H668.12c-1.32,7.08-4.38,14.28-11.16,19.5a15.73,15.73,0,0,0-2.94-2.7c10.14-7.8,11.16-19.14,11.16-28.5V1998h25.14Zm-3.84-17.33v-11.05h-17.4v3a76.4,76.4,0,0,1-.42,8.05Zm-17.4-25.5v10.79h17.4v-10.79Z"/><path d="M718.82,2030.58c-.6,12.06-3.66,17-18.72,19.5a10.57,10.57,0,0,0-2-3.36c13.8-2,16.14-5.7,16.68-16.14Zm32.46-29.81v3.42h-52.5v-3.42H725a36,36,0,0,0-2.64-4.68l3.9-.9a30.85,30.85,0,0,1,3.18,5.58Zm-51.6,23.15h50.64v10.62H746.6v-7.37H703.34v7.37h-3.66Zm43.32-16v12H707.3v-12Zm-4.14,2.94h-27.6V2017h27.6Zm5.88,34.85c1.8,0,2.1-.9,2.34-6.6a13.07,13.07,0,0,0,3.66,1.5c-.42,6.9-1.56,8.64-5.58,8.64H737c-5,0-6.3-1.2-6.3-5.28v-13.38H735v13.32c0,1.56.36,1.8,2.52,1.8Z"/><path d="M770.18,2013.67a9.06,9.06,0,1,1-9.06,9A9.09,9.09,0,0,1,770.18,2013.67Zm0,15.23a6.18,6.18,0,1,0,0-12.36,6.18,6.18,0,1,0,0,12.36Z"/><rect class="cls-2" x="1113" y="450" width="65" height="126" rx="12"/><path class="cls-1" d="M1132.7,479.82c1.25,1.6,4.9,6.7,5.7,8.05l-2,2.45c-.7-1.5-2.35-4.4-3.75-6.65V510h-3.15V485.57c-1.5,5.05-3.5,9.9-5.55,12.85a14.83,14.83,0,0,0-1.75-3.1c2.9-4,5.8-11.5,7.2-18h-6.2v-3.15h6.3v-9.65h3.15v9.65h5.45v3.15h-5.45Zm19.1.7a19.47,19.47,0,0,0,.45,2.65c-10.15,2.7-11.6,3.15-12.5,3.75a12.13,12.13,0,0,0-1.1-3.2c.7-.2,1.55-.5,1.55-2.2v-16.7h3.25v6.5h8.35v2.9h-8.35v8.3Zm2.35,5.5-2,3.75h12.65V510h-3.4v-1.75h-17v2h-3.3V489.77h7.9c.55-1.5,1.2-3.25,1.55-4.6Zm7.3,6.5h-17v5.05h17Zm0,13v-5.3h-17v5.3Zm2.25-22.4c1.25,0,1.5-.75,1.65-5.25a9.16,9.16,0,0,0,2.85,1.25c-.3,5.45-1.2,6.95-4.15,6.95h-5.85c-3.65,0-4.55-.95-4.55-4.45V464.87h3.25v6.5h10.2v2.9h-10.2v7.35c0,1.3.25,1.5,1.65,1.5Z"/><path class="cls-1" d="M1167.55,539.87v2.5H1123.4v-2.5h20.25v-3.2H1126.8v-2.3h16.85v-3H1128.2v-2.25h15.45v-3.2H1123.5v-2.5h20.15v-3H1128.8V518h14.85v-3.55h3.25V518h14.45v5.4h6.15v2.5h-6.15v5.45H1146.9v3h17.3v2.3h-17.3v3.2Zm-37.75,5h31.75v15.25h-3.25v-1.6H1133v1.7h-3.2Zm3.2,2.4v3.2h25.3v-3.2Zm25.3,8.85v-3.4H1133v3.4Zm-11.4-32.7h11.15v-3H1146.9Zm0,5.7h11.15v-3.2H1146.9Z"/><rect class="cls-2" x="1113" y="1263" width="65" height="271" rx="12"/><path class="cls-1" d="M1158.05,1302.79a27.61,27.61,0,0,0,11.5,8.1,11.65,11.65,0,0,0-2.15,2.55,30.77,30.77,0,0,1-12.8-10.65h-15.95a34.39,34.39,0,0,1-13,11.3,11.43,11.43,0,0,0-2.15-2.55,30.39,30.39,0,0,0,11.6-8.75H1124v-2.85h10v-16.15h-7.7V1281h7.7v-5h3.3v5h18.55v-5h3.35v5h7.65v2.8h-7.65v16.15h9.8v2.85Zm-10,14.5h17.3v2.85H1127.8v-2.85h16.9v-5.6h-10.45v-2.8h10.45v-4.4h3.35v4.4h10.65v2.8h-10.65Zm-10.8-33.5v3.6h18.55v-3.6Zm0,9.8h18.55v-3.65h-18.55Zm0,6.35h18.55v-3.8h-18.55Z"/><path class="cls-1" d="M1142.25,1344.54s0,1.15,0,1.55c-.6,15.85-1.2,21.2-2.6,23a3.71,3.71,0,0,1-2.8,1.45,32.65,32.65,0,0,1-4.45,0,9.25,9.25,0,0,0-.85-3c1.75.15,3.2.15,3.9.15a1.42,1.42,0,0,0,1.45-.65c1-1.2,1.6-6,2.15-19.35h-6.8c-.55,10-2,18.25-6.45,23.65a9.53,9.53,0,0,0-2.55-2.35c5.45-6.45,5.9-17.85,6.1-31.55h-5.2v-3.1h20.1v3.1h-11.65c0,2.45-.1,4.85-.2,7.15Zm-7.9-10.45a33.47,33.47,0,0,0-4.25-7.15l2.9-1.15a31.92,31.92,0,0,1,4.4,7Zm23.85-7.45a15.26,15.26,0,0,1-.85,2.55c2.65,5.45,7.7,11.35,12.45,14a13,13,0,0,0-2.45,2.75c-4.25-2.7-8.5-8-11.4-13.3a32.61,32.61,0,0,1-11,13.6,12.79,12.79,0,0,0-2.35-2.65c5.85-3.6,10.35-10.2,12.5-17.85Zm-8.3,32.45a74,74,0,0,1,13.6,8.25l-2.25,2.9c-2.85-2.6-8.75-6.3-13.4-8.65Zm9.5-4.85a66.22,66.22,0,0,0-8.6-6.85l2.15-2.2a67.46,67.46,0,0,1,8.75,6.55Z"/><path class="cls-1" d="M1165,1379.19v29.3h-3.5v-2.55h-13.3v15.6h-3.45v-15.6h-13.4v2.75H1128v-29.5Zm-33.65,3.2V1391h13.4v-8.65Zm13.4,20.35v-8.5h-13.4v8.5Zm16.75-20.35h-13.3V1391h13.3Zm0,20.35v-8.5h-13.3v8.5Z"/><path class="cls-1" d="M1167.25,1441.09v9.3h-3.15V1444h-35.4v6.4h-3v-9.3h6.95v-12.95h27.7v12.95Zm-6.45,26.6c0,1.85-.45,2.7-1.85,3.2s-3.9.5-7.7.45a8.57,8.57,0,0,0-1.1-2.75c3,.05,5.65.05,6.4.05s1-.25,1-1v-6.2c-7.3,1.45-14.85,3-20.45,4l-1.1-3c5.4-.8,13.6-2.3,21.55-3.75V1450h-22.2v5.3c0,4.85-.65,11.55-4.35,16.2a13.29,13.29,0,0,0-2.7-2c3.45-4.25,3.85-10,3.85-14.25v-8h28.6Zm-25-26.6h7.45v-6.9H1157v-3.35h-21.2Zm2.45,11.7a75.14,75.14,0,0,1,17.7,3l-.9,2.6c-4-1.5-11.7-2.9-17.7-3.35Zm18.75-16.3h-10.75v4.6H1157Z"/><path class="cls-1" d="M1161,1488.09a51.83,51.83,0,0,1-12,19.6,49.94,49.94,0,0,0,20.5,10.5,16.79,16.79,0,0,0-2.25,3,50.92,50.92,0,0,1-20.75-11.1c-5.65,5-12.55,8.6-21,11.3a15.53,15.53,0,0,0-2-3.05c8.35-2.45,15.1-5.9,20.6-10.6a57.05,57.05,0,0,1-12.2-19.65h-7.75v-3.25h44.75v3.25Zm-25.75,0a52.13,52.13,0,0,0,11.3,17.3,47.46,47.46,0,0,0,10.7-17.3Zm11.25-3.55a38.13,38.13,0,0,0-3.8-7.8l3.4-1a39,39,0,0,1,4,7.65Z"/><path d="M598,1278.45a221.74,221.74,0,0,1,25.41,16.88l-5.16-4A226,226,0,0,1,658.74,1332l-4-5.16a250.74,250.74,0,0,1,31.85,54.9l-2.58-6.09c10.63,25.24,18,51.94,22.94,78.84q2.16,11.67,3.72,23.42l-.91-6.78a635.13,635.13,0,0,1,5,88.7c-.23,29.51-2,59-4.27,88.42-1.29,16.55-2.74,33.09-4.17,49.62-.54,6.18,3.23,13.8,7.47,18,4.42,4.43,11.68,7.76,18,7.47,6.59-.29,13.43-2.46,18-7.47l4-5.16a25.46,25.46,0,0,0,3.48-12.87c2.9-33.35,5.84-66.72,7.38-100.17s1.67-67.15-1.14-100.6c-3-35.56-8.84-71.09-19.56-105.17-9.23-29.38-21.77-58-39.62-83.23a263.64,263.64,0,0,0-31.51-37.31,251.6,251.6,0,0,0-39.42-31.08c-3.2-2-6.46-4-9.77-5.89a26.52,26.52,0,0,0-19.65-2.57c-5.91,1.63-12.32,6.2-15.24,11.72-3.12,5.92-4.69,13.09-2.57,19.65,2,6.29,5.86,11.9,11.72,15.24Z"/><line class="cls-3" x1="609.69" y1="1256.75" x2="447" y2="1484.25"/><path d="M721.91,1060.59q.81,4.64,1.44,9.29l-.91-6.78a225.28,225.28,0,0,1,1.55,45.33q-.45,6.39-1.3,12.75l.91-6.78a178.07,178.07,0,0,1-12.17,45.41l2.58-6.09a148.25,148.25,0,0,1-18.86,32.61l4-5.16a142.47,142.47,0,0,1-25.43,25.45l5.17-4a132.86,132.86,0,0,1-29.19,17.14l6.09-2.58a116.45,116.45,0,0,1-29.46,8.14l6.78-.91a108.31,108.31,0,0,1-16.1.94,19.16,19.16,0,0,0-9.82,2.2A22.91,22.91,0,0,0,593.7,1241a19.22,19.22,0,0,0-2.2,9.83l.91,6.78a25.45,25.45,0,0,0,6.56,11.25l5.16,4a25.52,25.52,0,0,0,12.87,3.48,107.67,107.67,0,0,0,12.57-.52,174,174,0,0,0,18.59-2.77c10.2-2.18,19.82-5.94,29.34-10.16a129.94,129.94,0,0,0,21.62-12.21,176.81,176.81,0,0,0,24.18-19.92,179.17,179.17,0,0,0,19.92-24.21,147,147,0,0,0,13.12-23.22,206.92,206.92,0,0,0,11.86-32.24,233.85,233.85,0,0,0,6-34.17,212.62,212.62,0,0,0,1.24-28.21A289.08,289.08,0,0,0,772.2,1054q-.51-3.48-1.11-7a28.49,28.49,0,0,0-11.72-15.24,19,19,0,0,0-9.48-3,19.34,19.34,0,0,0-10.17.45l-6.09,2.57a25.71,25.71,0,0,0-9.15,9.15l-2.57,6.09a25.78,25.78,0,0,0,0,13.56Z"/><path d="M462.91,1047c-3.62,20.83-5.42,42-3.77,63.1,1.62,20.83,5.49,41.67,13.36,61.09,4.24,10.47,8.88,20.74,14.93,30.3q3.35,5.3,7.15,10.25c3.79,5,7.59,9.87,11.79,14.47,7.12,7.79,15.11,14.38,23.46,20.78a133.94,133.94,0,0,0,21.24,13.32c5.54,2.78,11.28,5.21,17.06,7.44a118,118,0,0,0,11.72,3.84,111.24,111.24,0,0,0,12.23,2.59,167.8,167.8,0,0,0,18.71,2.08q3.11.12,6.21.07a26.23,26.23,0,0,0,25.5-25.5l-.91-6.78a25.45,25.45,0,0,0-6.56-11.25c-4.94-4.54-11.16-7.59-18-7.47a108.31,108.31,0,0,1-16.1-.94l6.78.91a116.45,116.45,0,0,1-29.46-8.14l6.09,2.58a132.86,132.86,0,0,1-29.19-17.14l5.17,4a142.47,142.47,0,0,1-25.43-25.45l4,5.16A148.25,148.25,0,0,1,520,1153.72l2.58,6.09a178.07,178.07,0,0,1-12.17-45.41l.91,6.78a215.09,215.09,0,0,1-1.11-45.3q.51-6.41,1.36-12.78l-.91,6.78q.63-4.65,1.44-9.29a19.34,19.34,0,0,0,.45-10.17,19,19,0,0,0-3-9.48,28.62,28.62,0,0,0-15.24-11.72l-6.78-.91a25.52,25.52,0,0,0-12.87,3.48l-5.16,4a25.45,25.45,0,0,0-6.56,11.25Z"/><line class="cls-3" x1="487.9" y1="1053.69" x2="566.45" y2="1140.42"/><line class="cls-3" x1="617.18" y1="1028.05" x2="566.45" y2="1140.42"/><line class="cls-3" x1="746.46" y1="1053.69" x2="667.91" y2="1140.42"/><line class="cls-3" x1="617.18" y1="1028.05" x2="667.91" y2="1140.42"/></svg>