<svg id="Layer_1" data-name="Layer 1" xmlns="http://www.w3.org/2000/svg" viewBox="0 0 1242 2208"><defs><style>.cls-1{fill:#f6eabe;}.cls-2{fill:#999;}.cls-3{fill:none;stroke:#000;stroke-linecap:round;stroke-miterlimit:10;stroke-width:50px;}</style></defs><rect class="cls-1" width="1242" height="2208"/><path d="M556.69,161c-61.93,96.87-163.57,179.44-260.43,231.85-9.53-10.32-31-30.17-45.26-39.7,100.84-47.64,196.91-123.07,251.7-210.41Zm318.39,634.4c31,0,36.52-12.7,39.7-96.07,11.91,8.73,33.34,16.67,47.64,19.85-6.36,100-22.24,124.65-83.37,124.65H748c-71.46,0-90.52-15.08-90.52-73.84V575.44H573.36C555.89,721.53,506.67,813.63,316.9,861.27c-4.76-13.5-18.26-34.93-28.58-44.46,175.47-39.7,216.76-116.72,231.84-241.37H413V324.53H831.41V575.44H709.93V769.17c0,22.23,6.35,26.2,42.08,26.2ZM467.76,527H774.24V373H467.76ZM934.63,396C883,333.27,771.86,236.4,679.76,170.5l42.87-27C813.94,207,925.89,301.51,982.27,365Z"/><rect class="cls-2" x="1113" y="439" width="65" height="126" rx="12"/><path class="cls-1" d="M1132.7,468.82c1.25,1.6,4.9,6.7,5.7,8.05l-2,2.45c-.7-1.5-2.35-4.4-3.75-6.65V499h-3.15V474.57c-1.5,5.05-3.5,9.9-5.55,12.85a14.83,14.83,0,0,0-1.75-3.1c2.9-4,5.8-11.5,7.2-18h-6.2v-3.15h6.3v-9.65h3.15v9.65h5.45v3.15h-5.45Zm19.1.7a19.47,19.47,0,0,0,.45,2.65c-10.15,2.7-11.6,3.15-12.5,3.75a12.13,12.13,0,0,0-1.1-3.2c.7-.2,1.55-.5,1.55-2.2v-16.7h3.25v6.5h8.35v2.9h-8.35v8.3Zm2.35,5.5-2,3.75h12.65V499h-3.4v-1.75h-17v2h-3.3V478.77h7.9c.55-1.5,1.2-3.25,1.55-4.6Zm7.3,6.5h-17v5.05h17Zm0,13v-5.3h-17v5.3Zm2.25-22.4c1.25,0,1.5-.75,1.65-5.25a9.16,9.16,0,0,0,2.85,1.25c-.3,5.45-1.2,6.95-4.15,6.95h-5.85c-3.65,0-4.55-.95-4.55-4.45V453.87h3.25v6.5h10.2v2.9h-10.2v7.35c0,1.3.25,1.5,1.65,1.5Z"/><path class="cls-1" d="M1167.55,528.87v2.5H1123.4v-2.5h20.25v-3.2H1126.8v-2.3h16.85v-3H1128.2v-2.25h15.45v-3.2H1123.5v-2.5h20.15v-3H1128.8V507h14.85v-3.55h3.25V507h14.45v5.4h6.15v2.5h-6.15v5.45H1146.9v3h17.3v2.3h-17.3v3.2Zm-37.75,5h31.75v15.25h-3.25v-1.6H1133v1.7h-3.2Zm3.2,2.4v3.2h25.3v-3.2Zm25.3,8.85v-3.4H1133v3.4Zm-11.4-32.7h11.15v-3H1146.9Zm0,5.7h11.15v-3.2H1146.9Z"/><path d="M34,1776.49H19.22v35.15h-4v-38.87H34Z"/><path d="M58.1,1778.71c-1.56,17.87-4.5,38.27-17.34,49.55a20.08,20.08,0,0,0-3.12-2.76c12.3-10.68,14.94-30.24,16.14-47.15Zm15.24-1.44c2.4,21.11,7.62,39.53,19.14,48.35a23.42,23.42,0,0,0-3.84,2.7c-11.22-9.3-16.26-26.76-18.78-47.09H63.92v-4Z"/><path d="M96,1824.84h14.82v-35.15h4v38.87H96Z"/><path d="M151.16,1772.17l3.24,1.74c-7.08,7.26-11.28,16.2-11.28,26.76s4.2,19.49,11.28,26.75l-3.24,1.74c-7.32-7.5-11.94-17-11.94-28.49S143.84,1779.67,151.16,1772.17Z"/><path d="M174.92,1774.69a98.85,98.85,0,0,1-6.18,13.56v39.59H164.9v-33.35a61.73,61.73,0,0,1-5.46,7,32.86,32.86,0,0,0-2.28-3.9c5.58-5.87,10.8-14.87,14-24Zm34.14,28c-2.1,1.26-4.44,2.64-6.84,3.78,2,6.06,5.82,11.82,10.38,14.52a11.2,11.2,0,0,0-2.64,2.94c-4.62-3.18-8.46-9.42-10.68-16a27.45,27.45,0,0,1-2.76,1.2c2.58,6.84,1.86,14-1,16.68a6.91,6.91,0,0,1-5.22,1.92c-1.08,0-2.4-.06-3.78-.18a9.31,9.31,0,0,0-1-3.42,38.26,38.26,0,0,0,4.14.24,3.66,3.66,0,0,0,3.12-1.14c1.56-1.38,2.22-5.16,1.44-9.36-5.16,4.92-13.08,9.36-19.8,11.7a15.8,15.8,0,0,0-2.34-2.82c7.62-2.28,16.62-7.14,21.3-12.24a35.76,35.76,0,0,0-1.5-3.48,63.52,63.52,0,0,1-17.22,9.9,16.14,16.14,0,0,0-2.22-2.64c5.94-1.8,13.74-5.76,17.88-9.54a16.39,16.39,0,0,0-2.94-3.18,58.44,58.44,0,0,1-13.56,7.26,11.26,11.26,0,0,0-2.22-2.58,52.48,52.48,0,0,0,15.06-7.56H176.48v-9.35c-1.14,1-2.28,2-3.54,2.94a9.54,9.54,0,0,0-2.52-2.59,44.59,44.59,0,0,0,13.86-16.25l3.84.72c-.6,1.2-1.32,2.34-2,3.54h11.1l.72-.18,2.34,1.68a52.13,52.13,0,0,1-4.8,6.84h13.08v12.65H190.94a15.29,15.29,0,0,1-1.2,1,21,21,0,0,1,5.64,6.84,111.93,111.93,0,0,0,10.92-6.42ZM184,1780.81a54.58,54.58,0,0,1-4.2,5.16h11.58a37.88,37.88,0,0,0,3.72-5.16Zm-3.9,14.69h10.5v-6.42h-10.5Zm24.72-6.42H194.18v6.42H204.8Z"/><path d="M235,1786.62a64.7,64.7,0,0,1-5.34,7.92v33.66H226v-29.28a74.28,74.28,0,0,1-7.14,6.78,29.45,29.45,0,0,0-2.34-3.48,58.73,58.73,0,0,0,15-16.85Zm-1.44-11.87a59.36,59.36,0,0,1-14.1,14.1,20.64,20.64,0,0,0-2.28-2.82c4.74-3.24,10.14-8.4,12.78-12.66Zm22.2,48.59a31.51,31.51,0,0,0,5.46.42c1.26.06,9.36,0,11.22,0a10.05,10.05,0,0,0-1.32,3.6H261c-9.06,0-15.3-2.22-19.14-11.4a26.48,26.48,0,0,1-7.26,11.82,28.42,28.42,0,0,0-3.12-2.52c6.18-5,8.4-13.2,8.94-24.3l3.84.3a74,74,0,0,1-1,8.88c1.86,6.78,4.86,10.38,8.88,12.12v-25.68h.48a25.66,25.66,0,0,0-2.88-2.21c6.12-4.45,9.48-11.64,10.8-20.94l3.84.48a50.08,50.08,0,0,1-2.4,9.72,78.36,78.36,0,0,1,10.74,10.62L269.9,1797a80.5,80.5,0,0,0-9.36-10,28.48,28.48,0,0,1-7.26,9.59h2.52v10.32h13.62v3.48H255.8Zm-5.22-30.84a61,61,0,0,0-6.18-6,36.85,36.85,0,0,1-7.92,11.34,19,19,0,0,0-3-2.76c5.64-4.85,9.24-12.59,11-21.71l3.9.6a60.12,60.12,0,0,1-2.64,9.3,60.56,60.56,0,0,1,6.78,6.12Z"/><path d="M327.26,1779.67v46.49H323v-4.86H287.06v5.16H283v-46.79ZM323,1817.28v-33.59H287.06v33.59Z"/><path d="M388.82,1784.05v27.77h-4.08v-3.48H366.92v19.56h-4.14v-19.56H345v3.78h-4v-28.07h21.72v-10.74h4.14v10.74Zm-26,20.33V1788H345v16.43Zm22,0V1788H366.92v16.43Z"/><path d="M419.9,1811.1s-.06,1.14-.12,1.62c-.78,8.4-1.56,11.88-3,13.26a5.12,5.12,0,0,1-3.78,1.38,74.41,74.41,0,0,1-7.92-.12,9,9,0,0,0-1.2-3.42c3.3.24,6.6.3,7.74.3a3.22,3.22,0,0,0,2.22-.48c.9-.84,1.56-3.42,2.16-9.42H402c.66-3.48,1.5-8.7,2-12.89h12.12v-6.66H406V1794a49.59,49.59,0,0,1-6.9,2.93,15.49,15.49,0,0,0-2.22-3,42.23,42.23,0,0,0,12.06-5.76,40.79,40.79,0,0,0-6.9-5.51l2.34-2.16a42.45,42.45,0,0,1,7.38,5.58,30.58,30.58,0,0,0,6.06-6.78H403.52V1776H419.9l.72-.18L423,1777c-2.64,6-7.38,10.8-12.78,14.39h9.54v13.08H407c-.3,2.28-.66,4.56-1,6.6Zm30.9-29.27a66.55,66.55,0,0,1-8.7,6.78,41.49,41.49,0,0,0,10.5,4.43,20.1,20.1,0,0,0-2.4,3.18,44.52,44.52,0,0,1-8.88-3.84v8.46c0,1.33.12,1.68,1,1.68h4.74a15.17,15.17,0,0,0,2.82-.18,21.74,21.74,0,0,0,.24,2.83,11.25,11.25,0,0,1-3,.23h-5.22c-3.36,0-4-1.32-4-4.61v-6.3h-8.7V1796a11.94,11.94,0,0,1-6.54,11.16,12.87,12.87,0,0,0-2.58-2.52c4.86-2.51,5.7-5.81,5.7-8.69v-4.74h13.74a40.47,40.47,0,0,1-14.82-16.8l3.24-1a33.07,33.07,0,0,0,4.86,7.44,73.26,73.26,0,0,0,8-7.08l2.94,2a107.11,107.11,0,0,1-8.88,7.26,45.63,45.63,0,0,0,4.56,3.72,68.25,68.25,0,0,0,8.46-7Zm-4.44,27.47a25.88,25.88,0,0,1-8,10.8c3.3,2,6.24,3.9,8.34,5.46l-2,2.64c-2.22-1.68-5.4-3.84-8.94-6.06a45.77,45.77,0,0,1-13.8,5.94,10.15,10.15,0,0,0-1.86-2.94,43.71,43.71,0,0,0,12.54-4.92c-3.3-2-6.66-4-9.66-5.7l2-2.16c3.18,1.74,6.9,3.84,10.44,6a25,25,0,0,0,6.18-6.9H422.84v-2.94h20.64l.66-.18Z"/><path d="M508.4,1803.12v24.78h-4.32v-3.48H461.66v-21.3H466v17.4h16.8v-21.3H464.24v-20.33h4.14v16.44h14.4v-22h4.32v22h14.64v-16.5h4.32v20.39h-19v21.3h17v-17.4Z"/><path d="M534,1774c-1,2.94-2.1,6.3-3.18,8.88H541v38.75h-16.8v4.8h-3.66v-43.55h6.66a64.68,64.68,0,0,0,2.58-9.72Zm3.3,12.47H524.18v13.08h13.14Zm0,31.56v-14.88H524.18v14.88Zm33.06-33.17c-1,27.53-1.8,36.71-4.2,39.59a5.6,5.6,0,0,1-4.56,2.28,74.94,74.94,0,0,1-8.82-.12,9.42,9.42,0,0,0-1.32-3.9c3.9.36,7.5.36,8.82.36s1.92-.12,2.52-.9c2-2.1,2.94-11.34,3.72-35.7H550.82a55.33,55.33,0,0,1-5.64,10.68,36.22,36.22,0,0,0-3.36-2.22c4.08-5.34,7.32-13.61,9.18-21.89l3.84.84c-.78,3-1.62,6-2.64,8.88h18.18Zm-12.78,27a106.51,106.51,0,0,0-9.3-13.92l3.06-1.79a102.47,102.47,0,0,1,9.6,13.61Z"/><path d="M622.34,1819.74h8.76v3.06h-8.76v5.34h-3.9v-5.34H578.6v-3.06h9.12V1804h-7.14v-2.63a11.58,11.58,0,0,0-2.58-1.81,14,14,0,0,0,3.54-10v-3.24H603v9.35H583.94a14.37,14.37,0,0,1-2.64,5.23H630v3h-7.62Zm-32.22-40.91h-11.4v-2.52h11.4v-3h3.66v3h11.16v2.52H593.78v2.82h9.48v2.46H580.7v-2.46h9.42Zm-5.34,9.9v.89a20.14,20.14,0,0,1-.3,3.67h5.94v-4.56Zm6.78,15.23v3.3h26.88V1804Zm0,9.72h26.88V1810H591.56Zm26.88,6.06v-3.3H591.56v3.3Zm-18.66-31h-6.3v4.56h6.3Zm28.14-2.16a19.44,19.44,0,0,1-7,8.22,42.17,42.17,0,0,0,10.32,2.51,14.46,14.46,0,0,0-2.1,2.88,40.74,40.74,0,0,1-11.46-3.6,46.48,46.48,0,0,1-12.18,3.72,9.24,9.24,0,0,0-1.62-2.88,43.8,43.8,0,0,0,10.68-2.7,20.71,20.71,0,0,1-6.18-6.35H606.5v-2a9.34,9.34,0,0,0-2.16-2.4c4.32-1.74,5.16-3.78,5.16-5.82v-2.94h14.82v5.76c0,1.2.12,1.56.9,1.56h3.36a13.19,13.19,0,0,0,2.64-.3c.06.84.18,1.8.24,2.58a9.24,9.24,0,0,1-2.76.3h-4.26c-2.94,0-3.48-1.32-3.48-4.14v-2.82h-8.22v.12c0,2.58-1,5.4-4.86,7.56h17.28l.66-.12Zm-16.08,1.8a17.6,17.6,0,0,0,5.76,4.8,17.65,17.65,0,0,0,5.64-4.8Z"/><path d="M691.58,1793v3.65h-53.1V1793h15.36a31.68,31.68,0,0,0-3.66-9.12L654,1783a30.77,30.77,0,0,1,4,9.3l-2.52.66h16.38a80,80,0,0,0,4.5-10.2l4.32,1.08c-1.5,3-3.12,6.42-4.62,9.12Zm-3-10.5H641.9v-3.6h21.9a23.94,23.94,0,0,0-2.46-5.16l3.9-.84a26.71,26.71,0,0,1,3,6h20.34ZM646.88,1802h36.84V1828h-4.08v-2.16h-28.8v2.28h-4Zm4,3.48v6.66h28.8v-6.66Zm28.8,16.86v-7h-28.8v7Z"/><path d="M714.14,1791h10.74v3.72H714.14v1.62c2.22,2.39,8.7,10,10.14,11.87l-2.46,3.24a129,129,0,0,0-7.68-10.49v26.93h-4v-27.17c-3,7.07-7.2,14.21-11.1,18.41a28.3,28.3,0,0,0-2.22-3.66c4.56-4.62,9.6-13.08,12.36-20.75H698.24V1791h11.88v-10.32c-3.42.54-6.9,1-10.14,1.44a15.29,15.29,0,0,0-1.08-3.18c7.92-1.08,17.52-2.82,22.68-5l2.76,3.12a83.55,83.55,0,0,1-10.2,2.82Zm34.74-12.06V1825h-4v-4.56h-14v5H727v-46.49Zm-4,37.67v-33.83h-14v33.83Z"/><path d="M763.4,1813.44V1818h-3.66v-39.17h15.54v34.61Zm0-30.71v26.81h8.16v-26.81Zm49,38.75v3.9h-37.8v-3.9h17.58v-25.19h-13.5v-3.91h13.5v-18.05h4.08v18.05h14.34v3.91H796.22v25.19Z"/><path d="M868.4,1803.12v24.78h-4.32v-3.48H821.66v-21.3H826v17.4h16.8v-21.3H824.24v-20.33h4.14v16.44h14.4v-22h4.32v22h14.64v-16.5h4.32v20.39h-19v21.3h17v-17.4Z"/><path d="M894,1774c-1,2.94-2.1,6.3-3.18,8.88H901v38.75h-16.8v4.8h-3.66v-43.55h6.66a64.68,64.68,0,0,0,2.58-9.72Zm3.3,12.47H884.18v13.08h13.14Zm0,31.56v-14.88H884.18v14.88Zm33.06-33.17c-1,27.53-1.8,36.71-4.2,39.59a5.6,5.6,0,0,1-4.56,2.28,74.94,74.94,0,0,1-8.82-.12,9.42,9.42,0,0,0-1.32-3.9c3.9.36,7.5.36,8.82.36s1.92-.12,2.52-.9c2-2.1,2.94-11.34,3.72-35.7H910.82a55.33,55.33,0,0,1-5.64,10.68,36.22,36.22,0,0,0-3.36-2.22c4.08-5.34,7.32-13.61,9.18-21.89l3.84.84c-.78,3-1.62,6-2.64,8.88h18.18Zm-12.78,27a106.51,106.51,0,0,0-9.3-13.92l3.06-1.79a102.47,102.47,0,0,1,9.6,13.61Z"/><path d="M951,1782.13a51.63,51.63,0,0,1-10.2,11.7,22.7,22.7,0,0,0-2.94-3.06,43.41,43.41,0,0,0,13.44-17.52l3.84,1.14a40.39,40.39,0,0,1-2.28,4.56h37.26v3.18Zm3.36,33.17a38.34,38.34,0,0,1-12.48,12.36,22.8,22.8,0,0,0-2.52-2.88,32.07,32.07,0,0,0,12-10.68Zm5.7-3.24V1828h-3.78v-15.9H939.92v-3.24h16.32v-10.74H960v10.74h16v3.24Zm22.38-18.53c-.12,19,.42,30.53,5.46,30.53,1.26,0,1.56-3.54,1.74-8.76a11.84,11.84,0,0,0,2.76,2.28c-.36,7.92-1.2,10.44-4.74,10.44-8.28,0-9.06-11.46-9.24-31.26H943.76v-3.23Zm-35.22,5.27a27.7,27.7,0,0,1,4.86,7.62l-3.12,1.44a27,27,0,0,0-4.8-7.74Zm2.64-9.41v-3.12h35.76v3.12Zm15.36,24.83a73.26,73.26,0,0,1,11.28,9.9l-2.52,2.4c-2.28-2.82-7.2-7.14-11.1-10.14Zm7.56-14a102,102,0,0,1-6.6,8.09l-2.58-1.14a67,67,0,0,0,5.7-8.33Z"/><path d="M998.06,1823.46a58.72,58.72,0,0,0,6.18-12.06l3.42,1.44c-1.62,3.72-3.78,9-6,12.36Zm45-16.26h-36.18V1779h14c.84-1.92,1.86-4.44,2.4-6.18l4.5.84c-1,1.86-1.92,3.78-2.82,5.34h18.12Zm-4-25h-28.38v5.16h28.38Zm0,8.27h-28.38v5.16h28.38Zm0,8.29h-28.38V1804h28.38Zm-5.88,24.47c3.3,0,3.78-.9,4.08-7.08a10.68,10.68,0,0,0,3.72,1.56c-.54,7.44-1.86,9.18-7.5,9.18h-14.16c-6.6,0-8.4-1.08-8.4-5.58v-10h4v10c0,1.56.72,1.92,4.56,1.92Zm-10-16a48.15,48.15,0,0,1,8.34,9.18l-3.24,2a47,47,0,0,0-8.16-9.42Zm21.18,3.18c2.82,3.6,5.82,8.52,6.9,11.76l-3.66,1.68a50.39,50.39,0,0,0-6.78-11.94Z"/><path d="M1058.84,1829.16l-3.24-1.74c7.08-7.26,11.28-16.2,11.28-26.75s-4.2-19.5-11.28-26.76l3.24-1.74c7.32,7.5,11.94,17,11.94,28.5S1066.16,1821.66,1058.84,1829.16Z"/><path d="M1108.16,1786.62a67.64,67.64,0,0,1-7.2,12.25v28.85h-4v-24a41.57,41.57,0,0,1-7.26,6.41,17,17,0,0,0-2-3.48c7-5,12.3-12.23,16.14-20H1089v-3.83h16.44a65.25,65.25,0,0,0,3.3-9.42l4.08,1c-.9,2.82-1.86,5.64-3,8.4h31.26v3.83Zm32.94,36.24v3.72H1105v-3.72h16v-17.52h-13.68v-3.72H1121v-11.81h4v11.81h13.8v3.72H1125v17.52Z"/><path d="M1201.76,1821.18v4H1148.3v-4h22.62v-46.85h4.14v18.54h22.62v4h-22.62v24.3Z"/><path d="M1213.88,1809c4.68-2,7.26-4.86,7.56-9.17a4,4,0,0,1-1.14.11c-2.34,0-4.26-1.32-4.26-4.07a4,4,0,0,1,4.32-4.08c3.18,0,4.86,2.58,4.86,6.66,0,6.41-4,11.21-10.08,13.43Z"/><path d="M214,1848.49H199.22v35.15h-4v-38.87H214Z"/><path d="M265.34,1895.7c2.58,0,3-1.5,3.3-10.74a11.92,11.92,0,0,0,3.66,1.68c-.42,10.26-1.56,12.84-6.72,12.84h-9.24c-5.16,0-6.66-1.32-6.66-6.12v-20h-11c-1.08,13.19-4.08,22-18.66,26.69a11,11,0,0,0-2.58-3.48c13.62-4,16.08-11.64,16.92-23.21h-9.54v-24.66h40.86v24.66H253.7v20.09c0,1.92.54,2.28,3.06,2.28Zm-36.54-26.33h32.64v-16.74H228.8Z"/><path d="M276,1896.84h14.82v-35.15h4v38.87H276Z"/><path d="M331.16,1844.17l3.24,1.74c-7.08,7.26-11.28,16.2-11.28,26.76s4.2,19.49,11.28,26.75l-3.24,1.74c-7.32-7.5-11.94-17-11.94-28.49S323.84,1851.67,331.16,1844.17Z"/><path d="M354.92,1846.69a98.85,98.85,0,0,1-6.18,13.56v39.59H344.9v-33.35a61.73,61.73,0,0,1-5.46,7,32.86,32.86,0,0,0-2.28-3.9c5.58-5.87,10.8-14.87,14-24Zm34.14,28c-2.1,1.26-4.44,2.64-6.84,3.78,2,6.06,5.82,11.82,10.38,14.52a11.2,11.2,0,0,0-2.64,2.94c-4.62-3.18-8.46-9.42-10.68-16a27.45,27.45,0,0,1-2.76,1.2c2.58,6.84,1.86,14-1,16.68a6.91,6.91,0,0,1-5.22,1.92c-1.08,0-2.4-.06-3.78-.18a9.31,9.31,0,0,0-1-3.42,38.26,38.26,0,0,0,4.14.24,3.66,3.66,0,0,0,3.12-1.14c1.56-1.38,2.22-5.16,1.44-9.36-5.16,4.92-13.08,9.36-19.8,11.7a15.8,15.8,0,0,0-2.34-2.82c7.62-2.28,16.62-7.14,21.3-12.24a35.76,35.76,0,0,0-1.5-3.48,63.52,63.52,0,0,1-17.22,9.9,16.14,16.14,0,0,0-2.22-2.64c5.94-1.8,13.74-5.76,17.88-9.54a16.39,16.39,0,0,0-2.94-3.18,58.44,58.44,0,0,1-13.56,7.26,11.26,11.26,0,0,0-2.22-2.58,52.48,52.48,0,0,0,15.06-7.56H356.48v-9.35c-1.14,1-2.28,2-3.54,2.94a9.54,9.54,0,0,0-2.52-2.59,44.59,44.59,0,0,0,13.86-16.25l3.84.72c-.6,1.2-1.32,2.34-2,3.54h11.1l.72-.18,2.34,1.68a52.13,52.13,0,0,1-4.8,6.84h13.08v12.65H370.94a15.29,15.29,0,0,1-1.2,1,21,21,0,0,1,5.64,6.84,111.93,111.93,0,0,0,10.92-6.42ZM364,1852.81a54.58,54.58,0,0,1-4.2,5.16h11.58a37.88,37.88,0,0,0,3.72-5.16Zm-3.9,14.69h10.5v-6.42h-10.5Zm24.72-6.42H374.18v6.42H384.8Z"/><path d="M452.36,1869.91v4.31H397.88v-4.31Z"/><path d="M473.3,1846.63a99.16,99.16,0,0,1-4.86,11.64V1900H464.6v-34.73a68.26,68.26,0,0,1-6.12,8.46,21.26,21.26,0,0,0-2.22-4c5.46-5.88,10.32-14.94,13.32-24.12Zm37,2.46v50.33h-3.78v-3.06H479.3v3.54h-3.72v-50.81Zm-3.78,43.73v-40.25H479.3v40.25Zm-11.82-28.13v6.83h7.08v16H484.58v-16h6.78v-6.83h-9.42v-3.19h9.42v-6.83h3.3v6.83h9.66v3.19Zm3.9,9.89H487.7v9.9h10.86Z"/><path d="M547.28,1845.55c-.06,2.1-.12,5.1-.42,8.64.9,7,4.56,32.51,25.74,42a12.63,12.63,0,0,0-2.88,3.36c-15.42-7.26-21.72-22.74-24.6-34-2.64,12.23-8.94,26.33-24.06,34.19a13.77,13.77,0,0,0-3.12-3.06c25-12.48,24.78-42.11,25-51.11Z"/><path d="M598.16,1858.62a67.64,67.64,0,0,1-7.2,12.25v28.85h-4v-24a41.57,41.57,0,0,1-7.26,6.41,17,17,0,0,0-2-3.48c7-5,12.3-12.23,16.14-20H579v-3.83h16.44a65.25,65.25,0,0,0,3.3-9.42l4.08,1c-.9,2.82-1.86,5.64-3,8.4H631.1v3.83Zm32.94,36.24v3.72H595v-3.72h16v-17.52H597.32v-3.72H611v-11.81h4v11.81h13.8v3.72H615v17.52Z"/><path d="M655.82,1874.83s0,1.25-.06,1.79c-.72,14.34-1.5,19.68-3.12,21.48a5,5,0,0,1-3.72,1.74c-1.5.06-4.38.06-7.32-.12a8.32,8.32,0,0,0-1.26-3.9c3.06.3,5.94.3,7.08.3s1.56-.06,2.1-.66c1.08-1.08,1.74-5.52,2.4-17h-12.3c.36-4.44.66-11.58.6-17H652v-9.6H638.9v-3.6h16.8V1865H643.76c-.06,3.3-.18,6.79-.36,9.79Zm34,5.93a85.73,85.73,0,0,1-8.58,6.72,36.35,36.35,0,0,0,11.52,8.46,12.65,12.65,0,0,0-2.7,3.18c-8.34-4.32-15.78-13-19.92-22.68h-5.28v18.12l10.14-3.42a27.48,27.48,0,0,0,.24,3.3c-11.4,4.14-13,4.92-14,5.7a15.5,15.5,0,0,0-1.68-3.48c.72-.36,1.62-1.14,1.62-3.3v-16.92h-3.78V1873h5.16v-24.77h28v3.3H666.38v5h21.9v3h-21.9v5h21.9v3.06h-21.9V1873h25.26v3.48H673.76a39.67,39.67,0,0,0,5.58,8.7,61,61,0,0,0,7.56-6.84Z"/><path d="M747.26,1851.67v46.49H743v-4.86H707.06v5.16H703v-46.79ZM743,1889.28v-33.59H707.06v33.59Z"/><path d="M778.58,1858.87H757.7v-3.3h20.88Zm-1.8,37.43H763.52v2.88h-3.6v-20.1h16.86Zm-.54-29.76H760v-3.17h16.26ZM760,1871.1h16.26v3.24H760Zm3.54,11.34v10.5h9.84v-10.5Zm4.38-27.59a40.4,40.4,0,0,0-3.78-8.1l3.3-1.2a39.79,39.79,0,0,1,4,8Zm24.24-7.5a55.52,55.52,0,0,1-11.76,17.15,28.57,28.57,0,0,0-3.06-2.75,43.3,43.3,0,0,0,11-15.54Zm15.12,48.05c1.32,0,1.56-.9,1.68-7.2a11.06,11.06,0,0,0,3.54,1.5c-.42,7.5-1.44,9.36-4.74,9.36h-5.1c-3.9,0-4.8-1.2-4.8-5.28V1879h-5.16c-1,9.48-3.48,16.92-12.3,21.18a12.57,12.57,0,0,0-2.4-3c7.92-3.54,10-10.14,10.86-18.18h-5.28v-17.45h23V1879h-4.86v14.76c0,1.38.24,1.62,1.5,1.62Zm-19.92-19.92h15.24v-10.31H787.34Zm21.84-11.33c-2.34-4.44-7.68-11.58-12.42-16.68l2.88-1.86c4.68,5.1,10.26,11.94,12.6,16.43Z"/><path d="M817.7,1855.57h21.72v3.3H817.7Zm19.74,11H820.16v-3.17h17.28Zm-17.28,4.56h17.28v3.24H820.16Zm17.7,25.2H823.64v2.88h-3.48v-20.1h17.7Zm-14.22-13.86v10.5h10.68v-10.5Zm5.34-27.77a48.8,48.8,0,0,0-4.44-7.92l3.06-1.56a52.44,52.44,0,0,1,4.68,7.62Zm29.16,12.9v10.31H869v21.9h-3.84v-2.22H847.22V1900h-3.66v-22.14h10.92v-10.31H841.34v-3.78h13.14v-11.22c-4,.78-8.1,1.26-11.88,1.74a17.71,17.71,0,0,0-1-3.18c8.76-1.14,19.14-3.12,24.84-5.34l2.7,3.12a77.62,77.62,0,0,1-11,2.94v11.94h14v3.78Zm7,14H847.22v12.36h17.94Z"/><path d="M878.84,1901.16l-3.24-1.74c7.08-7.26,11.28-16.2,11.28-26.75s-4.2-19.5-11.28-26.76l3.24-1.74c7.32,7.5,11.94,17,11.94,28.5S886.16,1893.66,878.84,1901.16Z"/><path d="M928.16,1858.62a67.64,67.64,0,0,1-7.2,12.25v28.85h-4v-24a41.57,41.57,0,0,1-7.26,6.41,17,17,0,0,0-2-3.48c7-5,12.3-12.23,16.14-20H909v-3.83h16.44a65.25,65.25,0,0,0,3.3-9.42l4.08,1c-.9,2.82-1.86,5.64-3,8.4H961.1v3.83Zm32.94,36.24v3.72H925v-3.72h16v-17.52H927.32v-3.72H941v-11.81h4v11.81h13.8v3.72H945v17.52Z"/><path d="M996,1853.71v10.86l.66-.78c7.32,3.54,16.74,8.93,21.54,12.53l-2.76,3.6c-4.2-3.42-12.48-8.46-19.44-12.12v32.1h-4.2v-46.19H968.54v-4h53v4Z"/><path d="M1040.18,1863.67a9.06,9.06,0,1,1-9.06,9A9.09,9.09,0,0,1,1040.18,1863.67Zm0,15.23a6.18,6.18,0,0,0,0-12.36,6.18,6.18,0,0,0,0,12.36Z"/><path d="M143.24,1918.51a13.18,13.18,0,0,1-.84,1.08c5.7,5.64,16.2,10.62,25.56,12.83a12.89,12.89,0,0,0-2.52,3.12,71.7,71.7,0,0,1-14.88-6.17l-.06,1.92H129.74l.06-1.68a89.68,89.68,0,0,1-14.88,6.23,30.91,30.91,0,0,0-2.28-3c10.8-3,21.48-8.28,27.12-15.6Zm-23.16,16H160v14.88h-39.9Zm3.42,12.06h14.7v-9.23H123.5Zm.12,5.82H157v19.38h-4v-1.86h-25.5v2h-3.9Zm6.66-14.22a21.86,21.86,0,0,1,3.78,6.84l-3.06,1.21a27.26,27.26,0,0,0-3.6-7.09Zm-2.76,17.16v4.32H153v-4.32Zm25.5,11.64v-4.38h-25.5v4.38Zm-4.2-38.57a48.46,48.46,0,0,1-8.58-6.42,45.19,45.19,0,0,1-8.34,6.42Zm7.5,8.94H141.56v9.23h14.76Zm-10.62,7.79a53.26,53.26,0,0,0,3.54-7.2l3.36,1.08a73,73,0,0,1-4.14,7.21Z"/><path d="M174.08,1968.48c3.06-2.58,5.64-7,7.08-10.44l3.3,1.5c-1.68,3.6-4.08,8-7.14,10.86Zm51.72-36.9v3.25H174.56v-3.25h14.16a23.89,23.89,0,0,0-2.34-5.45l3.36-.84H177.26V1922h21.9c-.72-1.44-1.56-2.94-2.34-4.2l3.78-.9a39.9,39.9,0,0,1,2.94,5.1h19.2v3.3H210.86l3.24.78c-1,1.92-2,3.84-3,5.51Zm-7,23.7H197.66a47.07,47.07,0,0,1,8.82,6.24L204,1964a48.61,48.61,0,0,0-9.3-6.9l2-1.8H181.58V1938h37.2Zm-3.9-14.45H185.36v4.43h29.52Zm0,7.13H185.36v4.44h29.52Zm-8.22,20.16c2.58,0,3-.72,3.24-6.24a12.08,12.08,0,0,0,3.54,1.38c-.48,6.66-1.74,8.22-6.42,8.22H195.44c-5.82,0-7.38-1-7.38-5v-8H192v8c0,1.38.54,1.68,3.72,1.68ZM190,1925.29a26.19,26.19,0,0,1,2.76,6.18l-.48.11H207a59.18,59.18,0,0,0,3.06-6.29Zm27.66,32.21a46.55,46.55,0,0,1,8,10.2l-3.36,1.74a49,49,0,0,0-7.8-10.56Z"/><path d="M253.58,1930.87H232.7v-3.3h20.88Zm-1.8,37.43H238.52v2.88h-3.6v-20.1h16.86Zm-.54-29.76H235v-3.17h16.26ZM235,1943.1h16.26v3.24H235Zm3.54,11.34v10.5h9.84v-10.5Zm4.38-27.59a40.4,40.4,0,0,0-3.78-8.1l3.3-1.2a39.79,39.79,0,0,1,4,8Zm24.24-7.5a55.52,55.52,0,0,1-11.76,17.15,28.57,28.57,0,0,0-3.06-2.75,43.3,43.3,0,0,0,11-15.54Zm15.12,48.05c1.32,0,1.56-.9,1.68-7.2a11.06,11.06,0,0,0,3.54,1.5c-.42,7.5-1.44,9.36-4.74,9.36h-5.1c-3.9,0-4.8-1.2-4.8-5.28V1951h-5.16c-1,9.48-3.48,16.92-12.3,21.18a12.57,12.57,0,0,0-2.4-3c7.92-3.54,10-10.14,10.86-18.18h-5.28v-17.45h23V1951h-4.86v14.76c0,1.38.24,1.62,1.5,1.62Zm-19.92-19.92h15.24v-10.31H262.34Zm21.84-11.33c-2.34-4.44-7.68-11.58-12.42-16.68l2.88-1.86c4.68,5.1,10.26,11.94,12.6,16.43Z"/><path d="M292.7,1927.57h21.72v3.3H292.7Zm19.74,11H295.16v-3.17h17.28Zm-17.28,4.56h17.28v3.24H295.16Zm17.7,25.2H298.64v2.88h-3.48v-20.1h17.7Zm-14.22-13.86v10.5h10.68v-10.5Zm5.34-27.77a48.8,48.8,0,0,0-4.44-7.92l3.06-1.56a52.44,52.44,0,0,1,4.68,7.62Zm29.16,12.9v10.31H344v21.9h-3.84v-2.22H322.22V1972h-3.66v-22.14h10.92v-10.31H316.34v-3.78h13.14v-11.22c-4,.78-8.1,1.26-11.88,1.74a17.71,17.71,0,0,0-1-3.18c8.76-1.14,19.14-3.12,24.84-5.34l2.7,3.12a77.62,77.62,0,0,1-11,2.94v11.94h14v3.78Zm7,14H322.22v12.36h17.94Z"/><path d="M358.88,1953c4.68-2,7.26-4.86,7.56-9.17a4,4,0,0,1-1.14.11c-2.34,0-4.26-1.32-4.26-4.07a4,4,0,0,1,4.32-4.08c3.18,0,4.86,2.58,4.86,6.66,0,6.41-4,11.21-10.08,13.43Z"/><path d="M400,1930.62a67.05,67.05,0,0,1-5.4,8.46v33.18h-3.78v-28.5a55.81,55.81,0,0,1-6,5.94,23.11,23.11,0,0,0-2.4-3.41,57.79,57.79,0,0,0,14-16.92Zm-1.44-11.87a59.41,59.41,0,0,1-13.32,14.1,20,20,0,0,0-2.22-2.82c4.44-3.3,9.42-8.4,11.94-12.66ZM432,1949.17a34,34,0,0,1-11.58,13.91,56.54,56.54,0,0,0,16.08,5.52,13.63,13.63,0,0,0-2.46,3.48,58.51,58.51,0,0,1-17.16-6.72,63.26,63.26,0,0,1-17.7,6.78,10.39,10.39,0,0,0-2-3.42,62.23,62.23,0,0,0,16.26-5.64,41.7,41.7,0,0,1-7.2-6.54,42.74,42.74,0,0,1-4.86,4.08,25.12,25.12,0,0,0-2.76-2.94,46.2,46.2,0,0,0,5.28-4.08,34,34,0,0,1-2.82-4.38l3.3-1.2a19.47,19.47,0,0,0,2,3.18,40.7,40.7,0,0,0,5.82-7.86c-9,.6-10.5.91-11.64,1.26a33.39,33.39,0,0,0-1.2-3.77c1.62-.19,3.78-1.26,6.6-2.88,1.44-.78,4.38-2.58,7.8-4.87-9.36.49-10.92.73-11.82,1.09a28.56,28.56,0,0,0-1.26-3.84,10.79,10.79,0,0,0,3.9-2.16A67.38,67.38,0,0,0,415.28,1918l3.9,1.8a87.44,87.44,0,0,1-11.7,10.32l11.1-.36a87.91,87.91,0,0,0,8.22-6.6l3.66,2.1a135.45,135.45,0,0,1-22.44,15l20.1-1.08c-1.5-1.87-2.94-3.72-4.38-5.29l3.06-1.61a90.33,90.33,0,0,1,10,13l-3.24,1.92c-.78-1.38-2-3.12-3.24-5-5.58.35-10.14.66-13.68.83a52.18,52.18,0,0,1-3,5h15.18l.72-.18Zm-20.94,2.21a33.51,33.51,0,0,1-2.34,2.76,40,40,0,0,0,8.16,6.9,31.13,31.13,0,0,0,9.72-9.66Z"/><path d="M469.28,1930.87c-.48,26.69-.84,35.33-2.76,37.85a4.59,4.59,0,0,1-3.84,2.16,38.73,38.73,0,0,1-7,0,9.48,9.48,0,0,0-1.2-4c2.88.18,5.52.24,6.6.24a1.89,1.89,0,0,0,2-1c1.38-1.74,1.92-10,2.4-33.59h-9.6c-.54,16.14-2.64,30.65-10.8,39.41a13,13,0,0,0-3-2.7c7.68-7.92,9.48-21.54,9.9-36.71h-8.52v-3.84h8.64c.06-3.48.06-7,.06-10.62H456c0,3.6,0,7.14-.12,10.62h13.38Zm25.26-6v45.83h-4v-4H478.22v4.44h-3.84v-46.25Zm-4,38v-34.13H478.22v34.13Z"/><path d="M529,1920.49H514.22v35.15h-4v-38.87H529Z"/><path d="M586.82,1926.49V1930H533.48v-3.48h27.24a48.4,48.4,0,0,0-5.7-8l3.72-1.2a36.81,36.81,0,0,1,6.12,8.22l-2.64,1ZM541.7,1953.3h36.84v18.48h-4.08v-2.4H545.6V1972h-3.9Zm36.18-14.81H542.24v-3.37h35.64Zm-35.64,5.57h35.64v3.3H542.24Zm3.36,12.72v9.12h28.86v-9.12Z"/><path d="M591,1968.84h14.82v-35.15h4v38.87H591Z"/><path d="M638.12,1946.71a53.58,53.58,0,0,1-3.9,13.49c4,6.36,11.64,7.32,23,7.38,6.24,0,14.76-.3,20.7-.78a13.29,13.29,0,0,0-1.38,3.84c-5.46.36-12.84.48-19.38.48-12.18,0-19.8-1.26-24.48-7.86a28.34,28.34,0,0,1-8,8.94,12.11,12.11,0,0,0-2.7-2.82c5.76-3.78,10.08-10.5,12-20.1h-6.6a6.58,6.58,0,0,0-3.54.84,20,20,0,0,0-1.56-3.66,5.24,5.24,0,0,0,2.82-1.79,107.7,107.7,0,0,0,7.62-10.21h-9.66v-3.29h12.12l.72-.3,2.7,1.2c-2.46,3.47-7,9.89-10.44,13.91h7.26l.66-.06Zm-5.22-17.88a100.45,100.45,0,0,0-7.56-9.6l2.94-1.74a91.46,91.46,0,0,1,7.68,9.18Zm43.32,11.34H639v-3.48h17v-8.16h-9.18a46.34,46.34,0,0,1-4.5,6.47,24.14,24.14,0,0,0-3.36-1.92,39.26,39.26,0,0,0,8.52-14.87l3.66.84c-.72,2-1.56,4.08-2.46,6h7.32v-7.62H660v7.62h13.86v3.48H660v8.16h16.26Zm-32.34,21.89v-16.92H672v16.92Zm3.84-3.36h20.34v-10.26H647.72Z"/><path d="M709,1920.49H694.22v35.15h-4v-38.87H709Z"/><path d="M733.58,1930.87H712.7v-3.3h20.88Zm-1.8,37.43H718.52v2.88h-3.6v-20.1h16.86Zm-.54-29.76H715v-3.17h16.26ZM715,1943.1h16.26v3.24H715Zm3.54,11.34v10.5h9.84v-10.5Zm4.38-27.59a40.4,40.4,0,0,0-3.78-8.1l3.3-1.2a39.79,39.79,0,0,1,4,8Zm24.24-7.5a55.52,55.52,0,0,1-11.76,17.15,28.57,28.57,0,0,0-3.06-2.75,43.3,43.3,0,0,0,11-15.54Zm15.12,48.05c1.32,0,1.56-.9,1.68-7.2a11.06,11.06,0,0,0,3.54,1.5c-.42,7.5-1.44,9.36-4.74,9.36h-5.1c-3.9,0-4.8-1.2-4.8-5.28V1951h-5.16c-1,9.48-3.48,16.92-12.3,21.18a12.57,12.57,0,0,0-2.4-3c7.92-3.54,10-10.14,10.86-18.18h-5.28v-17.45h23V1951h-4.86v14.76c0,1.38.24,1.62,1.5,1.62Zm-19.92-19.92h15.24v-10.31H742.34Zm21.84-11.33c-2.34-4.44-7.68-11.58-12.42-16.68l2.88-1.86c4.68,5.1,10.26,11.94,12.6,16.43Z"/><path d="M771,1968.84h14.82v-35.15h4v38.87H771Z"/><path d="M855.62,1953.36H832V1967c0,2.46-.66,3.6-2.64,4.26s-5,.72-10,.72a15.33,15.33,0,0,0-1.74-4c4.08.12,7.86.12,8.88.06s1.38-.3,1.38-1.14v-13.56H804.32v-3.78H827.9v-3.83a54.55,54.55,0,0,0,11-7.38H814.1v-3.79H843l.9-.24,2.7,2a61.7,61.7,0,0,1-14.52,10.8v2.4h23.58ZM809,1935.73h-3.9v-12h23.76a34.08,34.08,0,0,0-3.24-5.52l3.84-1.26a35.67,35.67,0,0,1,4.08,6.78H854.9v12h-4.08v-8.22H809Z"/><path d="M914.12,1949a100.84,100.84,0,0,1-11.7,8.58,36.22,36.22,0,0,0,15.3,8.76,24.16,24.16,0,0,0-2.64,3.48c-12.3-4.08-20.82-13.2-25.38-25.61h-.18a53.79,53.79,0,0,1-9.6,8V1966l14.88-4.5a18.38,18.38,0,0,0,.6,3.42c-16.62,5.4-18.66,6.12-20,7a14.6,14.6,0,0,0-1.74-3.66,3.9,3.9,0,0,0,2.16-3.78v-9.72a71.36,71.36,0,0,1-10.68,5.1,19.48,19.48,0,0,0-2.64-3.24,62.5,62.5,0,0,0,21.9-12.41H864.2v-3.54h23.7v-5.64H869.54v-3.36H887.9v-5.4H866.54v-3.48H887.9v-5.52h4v5.52h22v3.48h-22v5.4h19.32v3.36H891.92v5.64H915.8v3.54H893.54a38.86,38.86,0,0,0,6.6,11,80.68,80.68,0,0,0,10.74-8.46Z"/><path d="M938.24,1947.78a58,58,0,0,1-12.06,19.14,26,26,0,0,0-3.66-2.46,47,47,0,0,0,11.64-17.75Zm13.62-7.91v31.79h-4.14v-31.79H923.84v-4h52.5v4Zm19.2-14.22H929.18v-3.9h41.88Zm-5.16,20.93c4.5,5.58,9.24,13.14,11,18.24l-3.9,1.8c-1.74-5-6.3-12.78-10.8-18.48Z"/><path d="M1002.62,1930.87H982.76v-3.3h19.86Zm-1.92,7.67H984.92v-3.17h15.78Zm-15.78,4.56h15.78v3.24H984.92Zm16.2,25.2H988v2.88h-3.12v-20.1h16.2ZM988,1954.44v10.5h9.84v-10.5Zm5.88-27.77a51.08,51.08,0,0,0-5.22-7.92l3-1.74a46.65,46.65,0,0,1,5.34,7.56Zm43.5,35.39h-3.72v5.64c0,2-.48,3.06-2,3.66-1.68.6-4.38.6-8.82.6a11.36,11.36,0,0,0-1.14-3.3c3.24.12,6.24.12,7,.06.9-.06,1.14-.24,1.14-1v-5.64h-19.74v10h-3.78v-10h-3.66v-3.12h3.66v-15.3h11.58V1940h-15.36v-3.07h8.88v-4.43h-5.76v-3h5.76v-3.9h-7.38v-3.06h7.38v-5h3.66v5h9.48v-5h3.72v5h7.56v3.06h-7.56v3.9h6.6v3h-6.6v4.43h8.88V1940h-15.54v3.65h12.06v15.3h3.72Zm-27.3-15.35v4.61h7.8v-4.61Zm0,12.23h7.8v-4.74h-7.8Zm5-29.45h9.48v-3.9h-9.48Zm0,7.43h9.48v-4.43h-9.48Zm6.54,9.79v4.61h8.22v-4.61Zm8.22,12.23v-4.74h-8.22v4.74Z"/><path d="M1042.7,1927.57h21.72v3.3H1042.7Zm19.74,11h-17.28v-3.17h17.28Zm-17.28,4.56h17.28v3.24h-17.28Zm17.7,25.2h-14.22v2.88h-3.48v-20.1h17.7Zm-14.22-13.86v10.5h10.68v-10.5Zm5.34-27.77a48.8,48.8,0,0,0-4.44-7.92l3.06-1.56a52.44,52.44,0,0,1,4.68,7.62Zm29.16,12.9v10.31H1094v21.9h-3.84v-2.22h-17.94V1972h-3.66v-22.14h10.92v-10.31h-13.14v-3.78h13.14v-11.22c-4,.78-8.1,1.26-11.88,1.74a17.71,17.71,0,0,0-1-3.18c8.76-1.14,19.14-3.12,24.84-5.34l2.7,3.12a77.62,77.62,0,0,1-11,2.94v11.94h14v3.78Zm7,14h-17.94v12.36h17.94Z"/><path d="M1108.88,1953c4.68-2,7.26-4.86,7.56-9.17a4,4,0,0,1-1.14.11c-2.34,0-4.26-1.32-4.26-4.07a4,4,0,0,1,4.32-4.08c3.18,0,4.86,2.58,4.86,6.66,0,6.41-4,11.21-10.08,13.43Z"/><path d="M424,1992.49H409.22v35.15h-4v-38.87H424Z"/><path d="M450.14,1991.53c-4.68,7.32-12.36,13.55-19.68,17.51a25.1,25.1,0,0,0-3.42-3c7.62-3.59,14.88-9.29,19-15.89Zm24.06,47.93c2.34,0,2.76-1,3-7.26a11.18,11.18,0,0,0,3.6,1.5c-.48,7.56-1.68,9.42-6.3,9.42h-9.9c-5.4,0-6.84-1.14-6.84-5.58v-14.7H451.4c-1.32,11-5,18-19.38,21.6a10.41,10.41,0,0,0-2.16-3.36c13.26-3,16.38-8.82,17.52-18.24h-8.1v-18.95H470.9v18.95h-9.18v14.64c0,1.68.48,2,3.18,2Zm-30.78-20.28h23.16v-11.64H443.42Zm35.28-9.89c-3.9-4.75-12.3-12.06-19.26-17l3.24-2c6.9,4.8,15.36,11.94,19.62,16.74Z"/><path d="M486,2040.84h14.82v-35.15h4v38.87H486Z"/><path d="M529.22,2032.14A37.44,37.44,0,0,1,520.7,2044a23.33,23.33,0,0,0-3.3-2.4,31.15,31.15,0,0,0,7.92-10.5ZM544,1991.65v37.49H521v-37.49ZM524.78,2003h15.36v-7.79H524.78Zm0,11.22h15.36v-7.85H524.78Zm0,11.28h15.36v-8H524.78Zm14.4,5.64a51.56,51.56,0,0,1,6.9,10.14l-3.66,1.86a47.3,47.3,0,0,0-6.72-10.56Zm15.6-34.67v32.87h-3.9v-32.87Zm14.82-6v48c0,2.82-.84,4.08-2.58,4.74-1.92.66-5.16.72-10.62.72a19,19,0,0,0-1.5-4c4.32.12,8,.06,9.18.06s1.56-.42,1.56-1.56v-48Z"/><path d="M629.12,2021a100.84,100.84,0,0,1-11.7,8.58,36.22,36.22,0,0,0,15.3,8.76,24.16,24.16,0,0,0-2.64,3.48c-12.3-4.08-20.82-13.2-25.38-25.61h-.18a53.79,53.79,0,0,1-9.6,8V2038l14.88-4.5a18.38,18.38,0,0,0,.6,3.42c-16.62,5.4-18.66,6.12-20,7a14.6,14.6,0,0,0-1.74-3.66,3.9,3.9,0,0,0,2.16-3.78v-9.72a71.36,71.36,0,0,1-10.68,5.1,19.48,19.48,0,0,0-2.64-3.24,62.5,62.5,0,0,0,21.9-12.41H579.2v-3.54h23.7v-5.64H584.54v-3.36H602.9v-5.4H581.54v-3.48H602.9v-5.52h4v5.52h22v3.48h-22v5.4h19.32v3.36H606.92v5.64H630.8v3.54H608.54a38.86,38.86,0,0,0,6.6,11,80.68,80.68,0,0,0,10.74-8.46Z"/><path d="M653.24,2019.78a58,58,0,0,1-12.06,19.14,26,26,0,0,0-3.66-2.46,47,47,0,0,0,11.64-17.75Zm13.62-7.91v31.79h-4.14v-31.79H638.84v-4h52.5v4Zm19.2-14.22H644.18v-3.9h41.88Zm-5.16,20.93c4.5,5.58,9.24,13.14,11,18.24l-3.9,1.8c-1.74-5-6.3-12.78-10.8-18.48Z"/><path d="M738.26,2014.92a42.2,42.2,0,0,1-10.08,15.36c6.24,4.86,14.28,8,24.06,9.66a17,17,0,0,0-2.46,3.66c-10-1.92-18.18-5.4-24.6-10.68-6.6,5.28-14.94,8.76-24.78,11.28a17.47,17.47,0,0,0-2.4-3.66c9.78-2.1,17.94-5.28,24.3-10.26a43.58,43.58,0,0,1-9.9-15l3.6-1.15a36.86,36.86,0,0,0,9.24,13.62,36.34,36.34,0,0,0,9-14Zm12.42-13.31H699.26v-3.9H724.4a43,43,0,0,0-4.08-7.56l3.66-1.32a38.5,38.5,0,0,1,4.44,7.68l-3,1.2h25.26Zm-32.46,3.6a68.25,68.25,0,0,1-15.6,13.85,31.16,31.16,0,0,0-3.06-3,54.88,54.88,0,0,0,14.88-12.35Zm17.16-1.5c5.52,3.71,12.24,9.17,15.48,13l-3.3,2.58c-3-3.84-9.66-9.47-15.24-13.31Z"/><path d="M775.28,2018.83c-2.16.84-4.32,1.67-6.42,2.45v17.58c0,2.4-.54,3.48-1.92,4.2s-3.48.78-7.08.78a17,17,0,0,0-1.2-3.9c2.46.06,4.74.06,5.4,0s1-.24,1-1v-16.25c-2.4.89-4.68,1.73-6.78,2.39l-1.08-3.78c2.16-.66,4.86-1.61,7.86-2.64v-13.37h-7.32v-3.72h7.32v-12.18h3.78v12.18H775v3.72h-6.18v12.06c1.86-.73,3.84-1.45,5.76-2.16Zm18.9,10.73c-2.4,7.26-7.5,11.94-19.08,14.52a9.12,9.12,0,0,0-2-3.06c10.26-2,14.88-5.76,17.16-11.46H774.8v-3.36H780v-19.08c-.66.67-1.32,1.33-1.92,1.87a12.59,12.59,0,0,0-2.46-2.53,44.28,44.28,0,0,0,11.64-17.09l3.78.54c-.54,1.32-1.14,2.64-1.86,4h9.48l.6-.18,2.34,1.56a49.94,49.94,0,0,1-4.62,8.16h11.34v22.73h3.84v3.36Zm-6.72-32.33a50,50,0,0,1-4.26,6.24h9.9a35,35,0,0,0,3.72-6.24Zm3.72,29a44.58,44.58,0,0,0,1-6.18H796a56.48,56.48,0,0,1-.9,6.18h9.72v-19.37H783.38v19.37Zm11.28-6.3a59.78,59.78,0,0,0-8.64-6.65,30.39,30.39,0,0,1-6.6,6.89,18.75,18.75,0,0,0-2.76-1.92,24.86,24.86,0,0,0,9.24-11.34l3.12.85a17.64,17.64,0,0,1-1.5,3.18,58.69,58.69,0,0,1,9.12,6.77Zm-4.26,10.62c4.74,3.42,11.1,8.22,14.34,11.1l-2.64,2.46a173.36,173.36,0,0,0-14.16-11.4Z"/><path d="M830.18,2007.67a9.06,9.06,0,1,1-9.06,9A9.09,9.09,0,0,1,830.18,2007.67Zm0,15.23a6.18,6.18,0,1,0,0-12.36,6.18,6.18,0,1,0,0,12.36Z"/><rect class="cls-2" x="1113" y="1173" width="65" height="271" rx="12"/><path class="cls-1" d="M1158.05,1212.79a27.61,27.61,0,0,0,11.5,8.1,11.65,11.65,0,0,0-2.15,2.55,30.77,30.77,0,0,1-12.8-10.65h-15.95a34.39,34.39,0,0,1-13,11.3,11.43,11.43,0,0,0-2.15-2.55,30.39,30.39,0,0,0,11.6-8.75H1124v-2.85h10v-16.15h-7.7V1191h7.7v-5h3.3v5h18.55v-5h3.35v5h7.65v2.8h-7.65v16.15h9.8v2.85Zm-10,14.5h17.3v2.85H1127.8v-2.85h16.9v-5.6h-10.45v-2.8h10.45v-4.4h3.35v4.4h10.65v2.8h-10.65Zm-10.8-33.5v3.6h18.55v-3.6Zm0,9.8h18.55v-3.65h-18.55Zm0,6.35h18.55v-3.8h-18.55Z"/><path class="cls-1" d="M1142.25,1254.54s0,1.15,0,1.55c-.6,15.85-1.2,21.2-2.6,23a3.71,3.71,0,0,1-2.8,1.45,32.65,32.65,0,0,1-4.45,0,9.25,9.25,0,0,0-.85-3c1.75.15,3.2.15,3.9.15a1.42,1.42,0,0,0,1.45-.65c1-1.2,1.6-6,2.15-19.35h-6.8c-.55,10-2,18.25-6.45,23.65a9.53,9.53,0,0,0-2.55-2.35c5.45-6.45,5.9-17.85,6.1-31.55h-5.2v-3.1h20.1v3.1h-11.65c0,2.45-.1,4.85-.2,7.15Zm-7.9-10.45a33.47,33.47,0,0,0-4.25-7.15l2.9-1.15a31.92,31.92,0,0,1,4.4,7Zm23.85-7.45a15.26,15.26,0,0,1-.85,2.55c2.65,5.45,7.7,11.35,12.45,14a13,13,0,0,0-2.45,2.75c-4.25-2.7-8.5-8-11.4-13.3a32.61,32.61,0,0,1-11,13.6,12.79,12.79,0,0,0-2.35-2.65c5.85-3.6,10.35-10.2,12.5-17.85Zm-8.3,32.45a74,74,0,0,1,13.6,8.25l-2.25,2.9c-2.85-2.6-8.75-6.3-13.4-8.65Zm9.5-4.85a66.22,66.22,0,0,0-8.6-6.85l2.15-2.2a67.46,67.46,0,0,1,8.75,6.55Z"/><path class="cls-1" d="M1165,1289.19v29.3h-3.5v-2.55h-13.3v15.6h-3.45v-15.6h-13.4v2.75H1128v-29.5Zm-33.65,3.2V1301h13.4v-8.65Zm13.4,20.35v-8.5h-13.4v8.5Zm16.75-20.35h-13.3V1301h13.3Zm0,20.35v-8.5h-13.3v8.5Z"/><path class="cls-1" d="M1167.25,1351.09v9.3h-3.15V1354h-35.4v6.4h-3v-9.3h6.95v-12.95h27.7v12.95Zm-6.45,26.6c0,1.85-.45,2.7-1.85,3.2s-3.9.5-7.7.45a8.57,8.57,0,0,0-1.1-2.75c3,.05,5.65.05,6.4.05s1-.25,1-1v-6.2c-7.3,1.45-14.85,3-20.45,4l-1.1-3c5.4-.8,13.6-2.3,21.55-3.75V1360h-22.2v5.3c0,4.85-.65,11.55-4.35,16.2a13.29,13.29,0,0,0-2.7-2c3.45-4.25,3.85-10,3.85-14.25v-8h28.6Zm-25-26.6h7.45v-6.9H1157v-3.35h-21.2Zm2.45,11.7a75.14,75.14,0,0,1,17.7,3l-.9,2.6c-4-1.5-11.7-2.9-17.7-3.35Zm18.75-16.3h-10.75v4.6H1157Z"/><path class="cls-1" d="M1161,1398.09a51.83,51.83,0,0,1-12,19.6,49.94,49.94,0,0,0,20.5,10.5,16.79,16.79,0,0,0-2.25,3,50.92,50.92,0,0,1-20.75-11.1c-5.65,5-12.55,8.6-21,11.3a15.53,15.53,0,0,0-2-3.05c8.35-2.45,15.1-5.9,20.6-10.6a57.05,57.05,0,0,1-12.2-19.65h-7.75v-3.25h44.75v3.25Zm-25.75,0a52.13,52.13,0,0,0,11.3,17.3,47.46,47.46,0,0,0,10.7-17.3Zm11.25-3.55a38.13,38.13,0,0,0-3.8-7.8l3.4-1a39,39,0,0,1,4,7.65Z"/><path d="M590.45,1353.14a204.67,204.67,0,0,1,39.38,23.69l-5.16-4a186.58,186.58,0,0,1,33.17,33l-4-5.16a189.37,189.37,0,0,1,24.36,42.18l-2.57-6.09a274.22,274.22,0,0,1,18.6,69.74l-.92-6.78a405.53,405.53,0,0,1,3.11,61.92c-.42,20.78-2,41.51-4,62.19-1.12,11.53-2.37,23-3.61,34.57a26.19,26.19,0,0,0,25.5,25.5c6.6-.29,13.44-2.46,18-7.47l4-5.16a25.27,25.27,0,0,0,3.48-12.87c2.76-25.63,5.56-51.28,6.92-77s1.28-51.87-1.85-77.61a348.34,348.34,0,0,0-7.93-44.55,297.66,297.66,0,0,0-15.13-43.2,204.8,204.8,0,0,0-37.49-57.64c-8.9-9.72-18.88-18.09-29.33-26.09a200.56,200.56,0,0,0-30.36-19.13q-4.15-2.13-8.41-4.09a18.92,18.92,0,0,0-9.48-3,26.22,26.22,0,0,0-25.41,12.17c-3.12,5.92-4.69,13.09-2.57,19.65l2.57,6.09a25.71,25.71,0,0,0,9.15,9.15Z"/><line class="cls-3" x1="602.26" y1="1331.36" x2="453.1" y2="1500.05"/><path d="M609.58,1299.58a165.36,165.36,0,0,1-21.46-1l6.78.91a59.7,59.7,0,0,1-15.11-4l6.09,2.57a65.05,65.05,0,0,1-13.76-8.35l5.16,4a96.07,96.07,0,0,1-17-17.29l4,5.17c-9.86-12.84-17.11-27.39-24.22-41.86q-13-26.54-25.08-53.53-6.79-15.2-13.26-30.53l2.57,6.09q-1.6-3.81-3.19-7.62a28.49,28.49,0,0,0-11.72-15.24,19,19,0,0,0-9.48-3,19.34,19.34,0,0,0-10.17.45l-6.09,2.57a25.71,25.71,0,0,0-9.15,9.15l-2.57,6.09a25.78,25.78,0,0,0,0,13.56q10.69,25.71,22.11,51.12,10.23,22.61,21.14,44.91c6,12.28,12.06,24.63,19.66,36,3,4.45,6.24,8.65,9.51,12.88,2,2.59,4.12,5.1,6.35,7.5a89.11,89.11,0,0,0,7.06,6.82,130.47,130.47,0,0,0,12.7,9.76,58.76,58.76,0,0,0,9.07,5.14,86,86,0,0,0,15.94,5.76,129.55,129.55,0,0,0,17.11,2.43c3.71.31,7.44.42,11.16.47l5.82,0a26.19,26.19,0,0,0,25.5-25.5l-.91-6.78a25.54,25.54,0,0,0-6.56-11.26c-5-4.58-11.12-7.46-18-7.46Z"/><path d="M609.32,1160.7a389.47,389.47,0,0,0-50.82,3.89,219,219,0,0,0-42.21,10,227.65,227.65,0,0,0-28.14,12A26.32,26.32,0,0,0,479,1221.4l4,5.16a25.45,25.45,0,0,0,11.25,6.56l6.78.91a25.52,25.52,0,0,0,12.87-3.48q5.57-2.83,11.3-5.27l-6.09,2.57c17.33-7.29,35.68-11.75,54.28-14.27l-6.77.91a344.41,344.41,0,0,1,42.71-2.79,26.23,26.23,0,0,0,25.5-25.5l-.91-6.78a25.45,25.45,0,0,0-6.56-11.25c-5-4.56-11.14-7.53-18-7.47Z"/><path d="M609.06,1350.58c3.78,0,7.56,0,11.34-.16a168,168,0,0,0,17.32-1.8,62.22,62.22,0,0,0,10.52-2.35,113.32,113.32,0,0,0,10.85-4.38,47,47,0,0,0,4.74-2.43,76.63,76.63,0,0,0,8.28-5.55,137.7,137.7,0,0,0,12.3-10.17,143.45,143.45,0,0,0,16.5-19.8c7.75-10.78,13.86-22.63,19.73-34.5q11-22.26,21.32-44.84c7.72-16.89,15.09-33.93,22.29-51,.82-1.94,1.63-3.89,2.44-5.83a19.34,19.34,0,0,0,.45-10.17,19,19,0,0,0-3-9.48,28.62,28.62,0,0,0-15.24-11.72l-6.78-.91a25.46,25.46,0,0,0-12.87,3.48l-5.16,4a25.45,25.45,0,0,0-6.56,11.25q-1.59,3.81-3.19,7.62l2.57-6.09q-11.53,27.32-24.06,54.21c-7.72,16.56-15.44,33.23-24.19,49.28a171.75,171.75,0,0,1-14.31,22.43l4-5.17a96.07,96.07,0,0,1-17,17.29l5.16-4a65.05,65.05,0,0,1-13.76,8.35l6.09-2.57a59.7,59.7,0,0,1-15.11,4l6.78-.91a165.36,165.36,0,0,1-21.46,1,26.18,26.18,0,0,0-25.5,25.5l.91,6.77a25.45,25.45,0,0,0,6.56,11.26,26.48,26.48,0,0,0,18,7.47Z"/><path d="M609.32,1211.7a344.54,344.54,0,0,1,42.71,2.79l-6.78-.91c18.61,2.52,37,7,54.29,14.27l-6.1-2.57q5.74,2.45,11.31,5.27a18.92,18.92,0,0,0,9.48,3,26.22,26.22,0,0,0,25.41-12.17l2.57-6.09a25.78,25.78,0,0,0,0-13.56l-2.57-6.09a25.71,25.71,0,0,0-9.15-9.15A216.66,216.66,0,0,0,683.7,1169a304.16,304.16,0,0,0-49.51-7.38c-8.28-.6-16.57-.89-24.87-1a28.24,28.24,0,0,0-18,7.47,18.93,18.93,0,0,0-5.27,8.2,19.22,19.22,0,0,0-2.2,9.83l.91,6.78a25.45,25.45,0,0,0,6.56,11.25l5.16,4a25.43,25.43,0,0,0,12.87,3.49Z"/><path d="M501.86,967.77q-.47,7.47-1.45,14.89l.91-6.78a200,200,0,0,1-13.62,50.6l2.57-6.1a168.14,168.14,0,0,1-21.65,37.44l4-5.16a144.14,144.14,0,0,1-25.39,25.49l5.16-4a127.71,127.71,0,0,1-28.15,16.58l6.09-2.57c-2,.83-3.95,1.6-6,2.33a28.49,28.49,0,0,0-15.24,11.72,18.92,18.92,0,0,0-3,9.48,19.34,19.34,0,0,0,.45,10.17l2.57,6.09a25.71,25.71,0,0,0,9.15,9.15l6.09,2.57a25.78,25.78,0,0,0,13.56,0,147.64,147.64,0,0,0,36.84-19c11.27-8.17,21.73-17.22,30.65-27.93a188.78,188.78,0,0,0,23.86-35.73A222.09,222.09,0,0,0,545.14,1016a204.07,204.07,0,0,0,4.48-20.62c1.49-9.14,2.67-18.36,3.24-27.61a19.32,19.32,0,0,0-2.19-9.83,26.24,26.24,0,0,0-23.31-15.67l-6.78.91a25.45,25.45,0,0,0-11.25,6.56l-4,5.16a25.52,25.52,0,0,0-3.48,12.87Z"/><path d="M663.14,967.77a246.08,246.08,0,0,0,6.58,43.85,223.74,223.74,0,0,0,15.13,41.57,170.16,170.16,0,0,0,9,16.6,210.83,210.83,0,0,0,14.24,19.88,145,145,0,0,0,11.72,13.17,186.49,186.49,0,0,0,18.09,15.36,147.46,147.46,0,0,0,40.2,21.49,19.34,19.34,0,0,0,10.17.45,19,19,0,0,0,9.48-3,19.4,19.4,0,0,0,7.15-6.57,19.19,19.19,0,0,0,4.57-8.67l.91-6.78a25.46,25.46,0,0,0-3.48-12.87l-4-5.16a25.45,25.45,0,0,0-11.25-6.56c-2-.73-4-1.5-6-2.33l6.09,2.57a127.71,127.71,0,0,1-28.15-16.58l5.16,4a144.14,144.14,0,0,1-25.39-25.49l4,5.16a168.14,168.14,0,0,1-21.65-37.44l2.57,6.1a200,200,0,0,1-13.62-50.6l.91,6.78q-1-7.42-1.45-14.89a28.38,28.38,0,0,0-7.47-18,28.44,28.44,0,0,0-18-7.47l-6.78.91a25.45,25.45,0,0,0-11.25,6.56l-4,5.16a25.32,25.32,0,0,0-3.48,12.87Z"/></svg>