<svg id="Layer_1" data-name="Layer 1" xmlns="http://www.w3.org/2000/svg" viewBox="0 0 1242 2208"><defs><style>.cls-1{fill:#f6eabe;}.cls-2{fill:#999;}.cls-3{fill:none;stroke:#000;stroke-linecap:round;stroke-miterlimit:10;stroke-width:50px;}</style></defs><rect class="cls-1" width="1242" height="2208"/><path d="M887,802.4c34.93,0,39.7-15.88,42.87-112.75,12.71,9.53,33.35,17.47,49.23,21.44C971.94,823,956.06,850,891,850H753.6c-73.05,0-92.9-15.88-92.9-74.63V583.26H621C582.09,708.71,497.93,805.58,299.43,858.77c-5.55-14.29-18.26-34.14-30.17-45.25,181-44.47,258.84-125.45,296.16-230.26H350.25V390.32c-16.67,13.5-32.55,26.2-50.82,38.91-7.94-12.71-24.61-29.38-37.31-38.12,108.77-71.46,189-170.7,231.05-249.31l57.16,10.32C540,169.59,529.69,187.06,517,205.32H720.25l9.53-2.38,34.93,23c-21.43,38.91-52.4,81.78-82.57,116.72h235V583.26H714.69V774.61c0,23,6.35,27.79,43.67,27.79ZM483.64,250.58a948.31,948.31,0,0,1-81,92.1H621a628.93,628.93,0,0,0,68.28-92.1Zm94.48,285c10.33-45.26,15.09-93.69,19.06-145.3H402.65v145.3Zm74.64-145.3c-4,51.61-9.53,99.25-19.85,145.3H862.37V390.32Z"/><rect class="cls-2" x="1113" y="450" width="65" height="126" rx="12"/><path class="cls-1" d="M1132.7,479.82c1.25,1.6,4.9,6.7,5.7,8.05l-2,2.45c-.7-1.5-2.35-4.4-3.75-6.65V510h-3.15V485.57c-1.5,5.05-3.5,9.9-5.55,12.85a14.83,14.83,0,0,0-1.75-3.1c2.9-4,5.8-11.5,7.2-18h-6.2v-3.15h6.3v-9.65h3.15v9.65h5.45v3.15h-5.45Zm19.1.7a19.47,19.47,0,0,0,.45,2.65c-10.15,2.7-11.6,3.15-12.5,3.75a12.13,12.13,0,0,0-1.1-3.2c.7-.2,1.55-.5,1.55-2.2v-16.7h3.25v6.5h8.35v2.9h-8.35v8.3Zm2.35,5.5-2,3.75h12.65V510h-3.4v-1.75h-17v2h-3.3V489.77h7.9c.55-1.5,1.2-3.25,1.55-4.6Zm7.3,6.5h-17v5.05h17Zm0,13v-5.3h-17v5.3Zm2.25-22.4c1.25,0,1.5-.75,1.65-5.25a9.16,9.16,0,0,0,2.85,1.25c-.3,5.45-1.2,6.95-4.15,6.95h-5.85c-3.65,0-4.55-.95-4.55-4.45V464.87h3.25v6.5h10.2v2.9h-10.2v7.35c0,1.3.25,1.5,1.65,1.5Z"/><path class="cls-1" d="M1167.55,539.87v2.5H1123.4v-2.5h20.25v-3.2H1126.8v-2.3h16.85v-3H1128.2v-2.25h15.45v-3.2H1123.5v-2.5h20.15v-3H1128.8V518h14.85v-3.55h3.25V518h14.45v5.4h6.15v2.5h-6.15v5.45H1146.9v3h17.3v2.3h-17.3v3.2Zm-37.75,5h31.75v15.25h-3.25v-1.6H1133v1.7h-3.2Zm3.2,2.4v3.2h25.3v-3.2Zm25.3,8.85v-3.4H1133v3.4Zm-11.4-32.7h11.15v-3H1146.9Zm0,5.7h11.15v-3.2H1146.9Z"/><path d="M384.92,1776.69a98.85,98.85,0,0,1-6.18,13.56v39.59H374.9v-33.35a61.73,61.73,0,0,1-5.46,7,32.86,32.86,0,0,0-2.28-3.9c5.58-5.87,10.8-14.87,14-24Zm34.14,28c-2.1,1.26-4.44,2.64-6.84,3.78,2,6.06,5.82,11.82,10.38,14.52a11.2,11.2,0,0,0-2.64,2.94c-4.62-3.18-8.46-9.42-10.68-16a27.45,27.45,0,0,1-2.76,1.2c2.58,6.84,1.86,14-1,16.68a6.91,6.91,0,0,1-5.22,1.92c-1.08,0-2.4-.06-3.78-.18a9.31,9.31,0,0,0-1-3.42,38.26,38.26,0,0,0,4.14.24,3.66,3.66,0,0,0,3.12-1.14c1.56-1.38,2.22-5.16,1.44-9.36-5.16,4.92-13.08,9.36-19.8,11.7a15.8,15.8,0,0,0-2.34-2.82c7.62-2.28,16.62-7.14,21.3-12.24a35.76,35.76,0,0,0-1.5-3.48,63.52,63.52,0,0,1-17.22,9.9,16.14,16.14,0,0,0-2.22-2.64c5.94-1.8,13.74-5.76,17.88-9.54a16.39,16.39,0,0,0-2.94-3.18,58.44,58.44,0,0,1-13.56,7.26,11.26,11.26,0,0,0-2.22-2.58,52.48,52.48,0,0,0,15.06-7.56H386.48v-9.35c-1.14,1-2.28,2-3.54,2.94a9.54,9.54,0,0,0-2.52-2.59,44.59,44.59,0,0,0,13.86-16.25l3.84.72c-.6,1.2-1.32,2.34-2,3.54h11.1l.72-.18,2.34,1.68a52.13,52.13,0,0,1-4.8,6.84h13.08v12.65H400.94a15.29,15.29,0,0,1-1.2,1,21,21,0,0,1,5.64,6.84,111.93,111.93,0,0,0,10.92-6.42ZM394,1782.81a54.58,54.58,0,0,1-4.2,5.16h11.58a37.88,37.88,0,0,0,3.72-5.16Zm-3.9,14.69h10.5v-6.42h-10.5Zm24.72-6.42H404.18v6.42H414.8Z"/><path d="M482.36,1799.91v4.31H427.88v-4.31Z"/><path d="M503.3,1776.63a99.16,99.16,0,0,1-4.86,11.64V1830H494.6v-34.73a68.26,68.26,0,0,1-6.12,8.46,21.26,21.26,0,0,0-2.22-4c5.46-5.88,10.32-14.94,13.32-24.12Zm37,2.46v50.33h-3.78v-3.06H509.3v3.54h-3.72v-50.81Zm-3.78,43.73v-40.25H509.3v40.25Zm-11.82-28.13v6.83h7.08v16H514.58v-16h6.78v-6.83h-9.42v-3.19h9.42v-6.83h3.3v6.83h9.66v3.19Zm3.9,9.89H517.7v9.9h10.86Z"/><path d="M577.28,1775.55c-.06,2.1-.12,5.1-.42,8.64.9,7,4.56,32.51,25.74,42a12.63,12.63,0,0,0-2.88,3.36c-15.42-7.26-21.72-22.74-24.6-34-2.64,12.23-8.94,26.33-24.06,34.19a13.77,13.77,0,0,0-3.12-3.06c25-12.48,24.78-42.11,25-51.11Z"/><path d="M632.54,1821.2c-8.52,2-17.46,4-24,5.34l-1-3.72c6.18-1.14,15.6-3.06,24.72-5Zm-.72-38.81h-23.4v-3.72h23.4Zm-1.44,21.9H610v-16h20.34Zm-16.44,14.45a41.62,41.62,0,0,0-2.34-11.28l3.24-.78a37.26,37.26,0,0,1,2.58,11.16Zm12.78-27h-13.2v9.23h13.2ZM622,1818.26a85,85,0,0,0,2.7-12.12l3.9,1c-1.08,4.07-2.4,8.93-3.54,12Zm22.5,3.9c-3.18,3.12-8.46,6.12-13.08,7.86a22.91,22.91,0,0,0-2.7-2.7c4.68-1.56,9.84-4.56,12.24-7.14Zm-.72-34.43c.48-1.86,1-4,1.26-5.94H633.44v-3.54h28.74v3.54H649.4c-.54,2-1.14,4.14-1.74,5.94H660.2v31H635.36v-31Zm12.66,3.18H639v6.17h17.4Zm0,9.11H639v6.24h17.4Zm0,9.3H639v6.24h17.4Zm-3.36,11.16a75.29,75.29,0,0,1,10.32,7.38l-3.24,2.16A66.38,66.38,0,0,0,650,1822.4Z"/><path d="M717.92,1796.12c-1.38,8.52-3.6,16-7.2,22.14,1.74,4.92,3.78,7.8,6.06,7.8,1.32-.06,1.92-1.92,2.22-7.56a10,10,0,0,0,3.12,2c-.72,7.14-2,9.36-5.76,9.36-3.36,0-6.12-2.88-8.28-7.86a31.87,31.87,0,0,1-8.88,7.8,12.69,12.69,0,0,0-2.76-2.94,28.59,28.59,0,0,0,10-9.24c-2.16-7-3.54-16.32-4.32-26.81H667.76v-3.3h15.3v-3.9H671.6v-3.24h11.46v-5h3.84v5h11.46v3.24H686.9v3.9H702c-.24-3.9-.36-8-.42-12.18h4c0,4.2.06,8.34.3,12.18h14.82v3.3H706a128.29,128.29,0,0,0,3.18,22.07,64.76,64.76,0,0,0,5-17.63Zm-40.14,21.12v-3.54h-7.62v-2.76h7.62v-3.12H671.3v-13.91h27.12v13.91h-6.6v3.12h7.56v2.76h-7.56v3.54h8.94v2.88H668.12v-2.88Zm3.84,4.74a44.79,44.79,0,0,1-9.36,8.46,28.3,28.3,0,0,0-2.88-2.46,32.39,32.39,0,0,0,8.76-7.08Zm-7-22.31h8.52v-3.42h-8.52Zm0,5.75h8.52v-3.48h-8.52Zm6.54,5.52h7.26v-3.12H681.2Zm0,6.3h7.26v-3.54H681.2Zm8,3.78a44.6,44.6,0,0,1,6.54,6.48l-3.3,1.68a58.85,58.85,0,0,0-6.42-6.66Zm5.76-24.77h-8.46v3.42h8.46Zm0,5.69h-8.46v3.48h8.46Zm20-15.71a35.15,35.15,0,0,0-7.92-7.38l2.76-2.22c3.06,2,6.48,5,8,7.26Z"/><path d="M773.54,1825.64c4.26,0,4.92-1.14,5.34-8.16a12.94,12.94,0,0,0,3.66,1.44c-.72,8.22-2.1,10.32-8.94,10.32H755.78c-7.62,0-9.78-1.26-9.78-6.42v-17.76h-6.78v4.38c0,6.42-1.62,14.76-9.12,20.64a12.11,12.11,0,0,0-2.7-2.82c6.9-5.28,8.1-12.42,8.1-17.88v-4.32h-7.08v-3.72h27.3v3.72h-5.94v17.76c0,2.28,1,2.82,5.88,2.82Zm-39.66-37.31H730v-10h50.16v10h-4V1782H733.88Zm-1.38,1.25h20.94v3.73H732.5Zm42.42,27.84c0,2.16-.48,3.18-2,3.84s-4,.66-7.86.6a13.54,13.54,0,0,0-1.26-3.48c2.94.06,5.52.06,6.3,0s1.08-.24,1.08-1v-18.83H755.6v-3.66h15.54v-7.8h3.78v7.8h6.72v3.66h-6.72Zm-14-15.42a37.57,37.57,0,0,1,5.52,10.26l-3.36,1.5a38.68,38.68,0,0,0-5.28-10.43Z"/><path d="M835.52,1825.76c2.64,0,3.12-.84,3.36-7a9.65,9.65,0,0,0,3.42,1.44c-.48,7.2-1.68,8.88-6.42,8.88H824.54c-5.64,0-7.14-1.08-7.14-5.1v-8h-2.64c-3.18,7.5-9.9,11.82-25.08,14a13.25,13.25,0,0,0-1.86-3.36c13.32-1.74,19.56-5,22.62-10.68H795.38v-9.84c-1.62,1-3.36,1.86-5.16,2.7a10.84,10.84,0,0,0-2.46-2.76c8.34-3.66,14.46-8.7,17.64-13.25l4.14.84c-.66.83-1.32,1.67-2.1,2.58H823.7l.66-.18,2.58,1.61a38.39,38.39,0,0,1-5.22,5.7h14V1816H821.18v8c0,1.5.54,1.8,3.6,1.8Zm-37.86-31.55h-3.78v-16.56h42.24v16.43h-3.84v-13.43H797.66Zm14.1,18.65a37.11,37.11,0,0,0,1.32-6.36H799.22v6.36Zm-7-13.79a53.56,53.56,0,0,1-5.1,4.31h17.1a35.23,35.23,0,0,0,4.56-4.31Zm24.12-12.54H801.2V1784h27.66ZM801.2,1790h27.66v2.53H801.2ZM817,1806.5a54.75,54.75,0,0,1-1.2,6.36h15.84v-6.36Z"/><path d="M860.18,1793.67a9.06,9.06,0,1,1-9.06,9A9.09,9.09,0,0,1,860.18,1793.67Zm0,15.23a6.18,6.18,0,1,0,0-12.36,6.18,6.18,0,1,0,0,12.36Z"/><path d="M416.9,1864.17c4.44,10.31,12.24,20,20.76,24.71a23.11,23.11,0,0,0-3.06,3.36c-9-5.58-16.92-16.32-21.6-28.07h-1v22.43h14.28v4H412V1902H407.9v-11.4H393.68v-4H407.9v-22.43h-1.08c-4.74,11.75-12.66,22.43-21.3,28.25a24.18,24.18,0,0,0-2.88-3.18c8-4.92,15.66-14.76,20.16-25.07H384.14v-4H407.9v-12.72H412v12.72h24v4Z"/><path d="M491.9,1886.54a33.64,33.64,0,0,1-8.22,7.38c2.4,2.82,5.22,4.44,8.16,4.38,1.68-.06,2.16-1.5,2.46-5.94a10.31,10.31,0,0,0,3.12,1.62c-.6,6.3-2.1,7.92-5.76,8-4.26,0-8.16-2.22-11.28-6a74.41,74.41,0,0,1-13.68,5.82,36.46,36.46,0,0,0-2.1-3.24,65.61,65.61,0,0,0,13.86-5.34,34.94,34.94,0,0,1-3.84-8.82H460.16v4.38l11.16-1-.06,2.88-11.1,1.08v6.12c0,2.1-.48,3.06-2.16,3.54s-4.38.54-8.94.54a19.42,19.42,0,0,0-1.26-3.18c3.36.12,6.48.06,7.38,0s1.2-.24,1.2-1v-5.7c-4.74.48-9.12.9-12.72,1.2l-.42-3.3c3.54-.24,8.1-.54,13.14-1v-4.68h-12.9v-3.18h12.9v-4.44c-3.78.42-7.68.72-11.28.91a12,12,0,0,0-.9-2.71c8.16-.48,18.18-1.55,23.52-2.94l2.52,2.58c-2.82.66-6.36,1.26-10.08,1.74v4.86h13.68a52.67,52.67,0,0,1-1.2-8.94h3.84a57.48,57.48,0,0,0,1.2,8.94h19v3.18H478.58a31.91,31.91,0,0,0,3.12,6.9,27.09,27.09,0,0,0,6.72-5.94Zm4.62-15.17h-53v-3.25H467.9V1864H449.3v-3.06h18.6v-4H446.06v-3.18h12.66a30,30,0,0,0-3.48-5.16l3.42-1.26a24.4,24.4,0,0,1,4.32,6.24l-.42.18H477.2a54.7,54.7,0,0,0,3.6-6.6l4.14,1.2c-1.2,1.86-2.52,3.84-3.72,5.4h12.84V1857H471.92v4h18.9V1864h-18.9v4.13h24.6Zm-5.7,9a34,34,0,0,0-9.48-5.52l2.16-2.46a38.32,38.32,0,0,1,9.66,5.22Z"/><path d="M532.46,1896.62a70.7,70.7,0,0,0,7.38.36c2.1.06,14.76,0,17.58-.06a16.36,16.36,0,0,0-1.44,3.84H539.72c-12.3,0-19.92-1.92-24.72-10.38a31.55,31.55,0,0,1-9.48,11.7,19.84,19.84,0,0,0-3.06-2.82c6.3-4.14,10.2-10.92,11.82-19.86l4,.6a55.92,55.92,0,0,1-1.5,6.06c2.34,5.64,6.3,8.52,11.7,9.84v-18.54H503.72v-3.6H556.4v3.6H532.46v7.08h20v3.6h-20Zm17.22-27.17h-39.6v-19.56h39.6Zm-4-16.44H514v5.16h31.68Zm0,8.1H514v5.27h31.68Z"/><path d="M583.7,1885.16c0,1.56-.24,2.64-1.2,3.3s-2.4.72-4.44.72a11.44,11.44,0,0,0-1.2-3.48c1.56.06,2.76.06,3.18.06s.54-.18.54-.72v-22.73h-4.92V1902h-3.48v-39.65H567.5v27.35h-3.18v-31h7.86v-11.28h3.48v11.28h8Zm31.92-35.57v20.16h-3.78v-17H590.6v17h-3.72v-20.16ZM588.5,1873.1H614v28.68h-3.78v-1.92H592.1v1.92h-3.6Zm3.6,3.24v4.5h18.12v-4.5Zm18.12,12.36v-4.86H592.1v4.86Zm0,7.92v-4.92H592.1v4.92Zm-.3-36H592.46v-2.88h17.46Zm-17.46,5h17.46v3H592.46Z"/><path d="M676.94,1878H652.22v18.6c0,2.82-.72,4-2.88,4.68s-5.94.78-11.7.78a17.7,17.7,0,0,0-1.8-4.14c5,.18,9.36.18,10.68.12s1.62-.42,1.62-1.5V1878h-25v-4h25v-8.75a74.47,74.47,0,0,0,15.72-9.84H629.18v-3.9h39l.84-.24,3,2.28a90,90,0,0,1-19.8,13.79V1874h24.72Z"/><path d="M703.52,1880.06l-3.66,3.12a93.63,93.63,0,0,0-13.32-13.38l3.42-3.11A118.53,118.53,0,0,1,703.52,1880.06Z"/><path d="M758.54,1897.64c4.26,0,4.92-1.14,5.34-8.16a12.94,12.94,0,0,0,3.66,1.44c-.72,8.22-2.1,10.32-8.94,10.32H740.78c-7.62,0-9.78-1.26-9.78-6.42v-17.76h-6.78v4.38c0,6.42-1.62,14.76-9.12,20.64a12.11,12.11,0,0,0-2.7-2.82c6.9-5.28,8.1-12.42,8.1-17.88v-4.32h-7.08v-3.72h27.3v3.72h-5.94v17.76c0,2.28,1,2.82,5.88,2.82Zm-39.66-37.31H715v-10h50.16v10h-4V1854H718.88Zm-1.38,1.25h20.94v3.73H717.5Zm42.42,27.84c0,2.16-.48,3.18-2,3.84s-4,.66-7.86.6a13.54,13.54,0,0,0-1.26-3.48c2.94.06,5.52.06,6.3,0s1.08-.24,1.08-1v-18.83H740.6v-3.66h15.54v-7.8h3.78v7.8h6.72v3.66h-6.72Zm-14-15.42a37.57,37.57,0,0,1,5.52,10.26l-3.36,1.5a38.68,38.68,0,0,0-5.28-10.43Z"/><path d="M820.52,1897.76c2.64,0,3.12-.84,3.36-7a9.65,9.65,0,0,0,3.42,1.44c-.48,7.2-1.68,8.88-6.42,8.88H809.54c-5.64,0-7.14-1.08-7.14-5.1v-8h-2.64c-3.18,7.5-9.9,11.82-25.08,14a13.25,13.25,0,0,0-1.86-3.36c13.32-1.74,19.56-5,22.62-10.68H780.38v-9.84c-1.62,1-3.36,1.86-5.16,2.7a10.84,10.84,0,0,0-2.46-2.76c8.34-3.66,14.46-8.7,17.64-13.25l4.14.84c-.66.83-1.32,1.67-2.1,2.58H808.7l.66-.18,2.58,1.61a38.39,38.39,0,0,1-5.22,5.7h14V1888H806.18v8c0,1.5.54,1.8,3.6,1.8Zm-37.86-31.55h-3.78v-16.56h42.24v16.43h-3.84v-13.43H782.66Zm14.1,18.65a37.11,37.11,0,0,0,1.32-6.36H784.22v6.36Zm-7-13.79a53.56,53.56,0,0,1-5.1,4.31h17.1a35.23,35.23,0,0,0,4.56-4.31Zm24.12-12.54H786.2V1856h27.66ZM786.2,1862h27.66v2.53H786.2ZM802,1878.5a54.75,54.75,0,0,1-1.2,6.36h15.84v-6.36Z"/><path d="M845.18,1865.67a9.06,9.06,0,1,1-9.06,9A9.09,9.09,0,0,1,845.18,1865.67Zm0,15.23a6.18,6.18,0,1,0,0-12.36,6.18,6.18,0,1,0,0,12.36Z"/><path d="M310,1932.62a67.05,67.05,0,0,1-5.4,8.46v33.18h-3.78v-28.5a55.81,55.81,0,0,1-6,5.94,23.11,23.11,0,0,0-2.4-3.41,57.79,57.79,0,0,0,14-16.92Zm-1.44-11.87a59.41,59.41,0,0,1-13.32,14.1,20,20,0,0,0-2.22-2.82c4.44-3.3,9.42-8.4,11.94-12.66ZM342,1951.17a34,34,0,0,1-11.58,13.91,56.54,56.54,0,0,0,16.08,5.52,13.63,13.63,0,0,0-2.46,3.48,58.51,58.51,0,0,1-17.16-6.72,63.26,63.26,0,0,1-17.7,6.78,10.39,10.39,0,0,0-2-3.42,62.23,62.23,0,0,0,16.26-5.64,41.7,41.7,0,0,1-7.2-6.54,42.74,42.74,0,0,1-4.86,4.08,25.12,25.12,0,0,0-2.76-2.94,46.2,46.2,0,0,0,5.28-4.08,34,34,0,0,1-2.82-4.38l3.3-1.2a19.47,19.47,0,0,0,2,3.18,40.7,40.7,0,0,0,5.82-7.86c-9,.6-10.5.91-11.64,1.26a33.39,33.39,0,0,0-1.2-3.77c1.62-.19,3.78-1.26,6.6-2.88,1.44-.78,4.38-2.58,7.8-4.87-9.36.49-10.92.73-11.82,1.09a28.56,28.56,0,0,0-1.26-3.84,10.79,10.79,0,0,0,3.9-2.16A67.38,67.38,0,0,0,325.28,1920l3.9,1.8a87.44,87.44,0,0,1-11.7,10.32l11.1-.36a87.91,87.91,0,0,0,8.22-6.6l3.66,2.1a135.45,135.45,0,0,1-22.44,15l20.1-1.08c-1.5-1.87-2.94-3.72-4.38-5.29l3.06-1.61a90.33,90.33,0,0,1,10,13l-3.24,1.92c-.78-1.38-2-3.12-3.24-5-5.58.35-10.14.66-13.68.83a52.18,52.18,0,0,1-3,5h15.18l.72-.18Zm-20.94,2.21a33.51,33.51,0,0,1-2.34,2.76,40,40,0,0,0,8.16,6.9,31.13,31.13,0,0,0,9.72-9.66Z"/><path d="M402.92,1968.32c0,2.76-.78,4-2.64,4.68s-5.46.72-11.1.66a12.92,12.92,0,0,0-1.38-3.84c4.32.18,8.4.12,9.6.06s1.56-.42,1.56-1.56v-12.78H382.22v17.94h-4v-17.94H362.78c-.9,6.72-2.88,13.56-7.56,18.78a11.58,11.58,0,0,0-3-2.64c6.6-7.44,7.26-18,7.26-26.46v-21.59h43.44Zm-24.66-16.56v-10.5H363.38v4c0,2.11-.06,4.26-.24,6.54Zm-14.88-24.35v10.13h14.88v-10.13Zm35.58,0H382.22v10.13H399Zm0,24.35v-10.5H382.22v10.5Z"/><path d="M439,1922.49H424.22v35.15h-4v-38.87H439Z"/><path d="M490.1,1969.16c2.64,0,3-1.2,3.24-8.52a11.5,11.5,0,0,0,3.72,1.62c-.54,8.46-1.74,10.5-6.66,10.5H480c-5.52,0-7-1.2-7-5.64V1952.6h-3c-2.94,9.48-9.3,16.8-24.3,20.82a10.67,10.67,0,0,0-2.28-3.42c13.68-3.36,19.56-9.48,22.38-17.4H449.54V1938c-1.26,1-2.46,2-3.84,2.93a11.86,11.86,0,0,0-2.82-2.88,54.36,54.36,0,0,0,17.46-18.83l4.32.78c-.78,1.32-1.56,2.64-2.52,4H477.5l.72-.18,2.64,1.74a54.26,54.26,0,0,1-6.24,8.81h17.76v18.18h-15.3v14.46c0,1.74.48,2.1,3.3,2.1Zm-30.48-41.69a70.37,70.37,0,0,1-6.12,7H470a47.48,47.48,0,0,0,5.16-7Zm7.14,21.53a76,76,0,0,0,1.44-11H453.5v11Zm5.64-11a77,77,0,0,1-1.5,11h17.34v-11Z"/><path d="M501,1970.84h14.82v-35.15h4v38.87H501Z"/><path d="M584.12,1951a100.84,100.84,0,0,1-11.7,8.58,36.22,36.22,0,0,0,15.3,8.76,24.16,24.16,0,0,0-2.64,3.48c-12.3-4.08-20.82-13.2-25.38-25.61h-.18a53.79,53.79,0,0,1-9.6,8V1968l14.88-4.5a18.38,18.38,0,0,0,.6,3.42c-16.62,5.4-18.66,6.12-20,7a14.6,14.6,0,0,0-1.74-3.66,3.9,3.9,0,0,0,2.16-3.78v-9.72a71.36,71.36,0,0,1-10.68,5.1,19.48,19.48,0,0,0-2.64-3.24,62.5,62.5,0,0,0,21.9-12.41H534.2v-3.54h23.7v-5.64H539.54v-3.36H557.9v-5.4H536.54v-3.48H557.9v-5.52h4v5.52h22v3.48h-22v5.4h19.32v3.36H561.92v5.64H585.8v3.54H563.54a38.86,38.86,0,0,0,6.6,11,80.68,80.68,0,0,0,10.74-8.46Z"/><path d="M608.24,1949.78a58,58,0,0,1-12.06,19.14,26,26,0,0,0-3.66-2.46,47,47,0,0,0,11.64-17.75Zm13.62-7.91v31.79h-4.14v-31.79H593.84v-4h52.5v4Zm19.2-14.22H599.18v-3.9h41.88Zm-5.16,20.93c4.5,5.58,9.24,13.14,11,18.24l-3.9,1.8c-1.74-5-6.3-12.78-10.8-18.48Z"/><path d="M700.1,1969.16c2.64,0,3-1.2,3.24-8.52a11.5,11.5,0,0,0,3.72,1.62c-.54,8.46-1.74,10.5-6.66,10.5H690c-5.52,0-7-1.2-7-5.64V1952.6h-3c-2.94,9.48-9.3,16.8-24.3,20.82a10.67,10.67,0,0,0-2.28-3.42c13.68-3.36,19.56-9.48,22.38-17.4H659.54V1938c-1.26,1-2.46,2-3.84,2.93a11.86,11.86,0,0,0-2.82-2.88,54.36,54.36,0,0,0,17.46-18.83l4.32.78c-.78,1.32-1.56,2.64-2.52,4H687.5l.72-.18,2.64,1.74a54.26,54.26,0,0,1-6.24,8.81h17.76v18.18h-15.3v14.46c0,1.74.48,2.1,3.3,2.1Zm-30.48-41.69a70.37,70.37,0,0,1-6.12,7H680a47.48,47.48,0,0,0,5.16-7Zm7.14,21.53a76,76,0,0,0,1.44-11H663.5v11Zm5.64-11a77,77,0,0,1-1.5,11h17.34v-11Z"/><path d="M731.6,1923.15c-2,4.92-4.38,10.74-6.6,15.54,4.8,5,6,9.23,6.06,13,0,3.18-.72,5.7-2.4,6.84a7.22,7.22,0,0,1-3.24,1.14,21.77,21.77,0,0,1-4.44.06,8.29,8.29,0,0,0-1-3.6,23.06,23.06,0,0,0,4,.12,3.43,3.43,0,0,0,2-.6c1.08-.66,1.44-2.34,1.44-4.32-.06-3.36-1.26-7.43-6.12-12.23,2-4.38,4-9.6,5.46-13.68h-8.28v48.41h-3.6v-52.07h13.5l.6-.18Zm10.56,34.07a58.82,58.82,0,0,1-8.7,13.14,26,26,0,0,0-3.12-2.22,42.45,42.45,0,0,0,8.28-11.94Zm11-37c-.42.78-.9,1.5-1.38,2.28a51.48,51.48,0,0,0,16.32,13.62,13.75,13.75,0,0,0-2.7,3.17,59.12,59.12,0,0,1-15.6-13.91A56.83,56.83,0,0,1,733.46,1940a14.37,14.37,0,0,0-2.64-2.83c7.5-4,15-10.91,19-18.11ZM752,1952.6v16.62c0,2.34-.54,3.42-2.16,4.08s-4.38.72-8.76.72a11.23,11.23,0,0,0-1.38-3.72c3.48.12,6.42.12,7.26.06s1.2-.36,1.2-1.14V1952.6h-15.9v-3.66h15.9v-7.73H738v-3.54h23.4v3.54H752v7.73h15v3.66Zm6.78,3a71.09,71.09,0,0,1,8.88,12.36l-3.12,1.8a78.76,78.76,0,0,0-8.76-12.54Z"/><path d="M793.52,1952.06l-3.66,3.12a93.63,93.63,0,0,0-13.32-13.38l3.42-3.11A118.53,118.53,0,0,1,793.52,1952.06Z"/><path d="M816.14,1948.64a61.54,61.54,0,0,1-3.06,12.6c3.9,7.26,11.82,8.34,23.82,8.34,6.36,0,15-.3,21.12-.84a11.23,11.23,0,0,0-1.38,3.9c-5.58.3-13.14.48-19.74.48-12.78,0-20.52-1.26-25.26-8.4a28.34,28.34,0,0,1-7.14,9.48,13.15,13.15,0,0,0-2.64-2.82c5-3.78,8.58-10.68,10.2-20.1h-4.74a6.34,6.34,0,0,0-3.36.84,24.85,24.85,0,0,0-1.44-3.66,5,5,0,0,0,2.52-1.74c1.14-1.31,4.08-6.47,6.18-10.19H803v-3.36h10.2l.72-.3,2.7,1c-2,3.53-5.76,10.07-8.52,14.09h5.34l.72-.06Zm-4.44-17.57a86.63,86.63,0,0,0-7.32-9.48l2.94-1.68a78.1,78.1,0,0,1,7.38,9.06ZM822,1948.34a38.63,38.63,0,0,1-4.56,12.36,12.43,12.43,0,0,0-2.64-2.4c4.68-7.8,5.28-18.35,5.28-25.73v-10.32h14.1v16.25H823.22a64.85,64.85,0,0,1-.72,6.6h12.3v18.54H822Zm1.44-22.85v7.08c0,.9,0,1.74-.06,2.7h7.5v-9.78Zm1.74,35.15h6.36V1948h-6.36Zm19.5-16.19h-8.76v-3.37h11.4a84.29,84.29,0,0,0,3.78-9.65l3.42.72c-1.26,2.93-2.64,6.3-4,8.93H857v3.37h-8.64v6.89h8v3.36h-8v11.1h-3.72v-11.1h-8v-3.36h8Zm11.94-13.87H836.42v-3.35h8.7a46.41,46.41,0,0,0-2.82-6.78l3.24-.9a40,40,0,0,1,3.3,7.68h7.74Zm-15.18,9.91a37.24,37.24,0,0,0-2.34-8.22l2.88-.72a39.93,39.93,0,0,1,2.52,8.1Z"/><path d="M910.1,1969.16c2.64,0,3-1.2,3.24-8.52a11.5,11.5,0,0,0,3.72,1.62c-.54,8.46-1.74,10.5-6.66,10.5H900c-5.52,0-7-1.2-7-5.64V1952.6h-3c-2.94,9.48-9.3,16.8-24.3,20.82a10.67,10.67,0,0,0-2.28-3.42c13.68-3.36,19.56-9.48,22.38-17.4H869.54V1938c-1.26,1-2.46,2-3.84,2.93a11.86,11.86,0,0,0-2.82-2.88,54.36,54.36,0,0,0,17.46-18.83l4.32.78c-.78,1.32-1.56,2.64-2.52,4H897.5l.72-.18,2.64,1.74a54.26,54.26,0,0,1-6.24,8.81h17.76v18.18h-15.3v14.46c0,1.74.48,2.1,3.3,2.1Zm-30.48-41.69a70.37,70.37,0,0,1-6.12,7H890a47.48,47.48,0,0,0,5.16-7Zm7.14,21.53a76,76,0,0,0,1.44-11H873.5v11Zm5.64-11a77,77,0,0,1-1.5,11h17.34v-11Z"/><path d="M928.88,1955c4.68-2,7.26-4.86,7.56-9.17a4,4,0,0,1-1.14.11c-2.34,0-4.26-1.32-4.26-4.07a4,4,0,0,1,4.32-4.08c3.18,0,4.86,2.58,4.86,6.66,0,6.41-4,11.21-10.08,13.43Z"/><path d="M36.68,1998.69c-.84,3.12-1.8,6.42-2.7,9.06H58.64v32.93c0,2.46-.54,3.6-2.22,4.26s-4.8.72-9.12.72a12.47,12.47,0,0,0-1.38-3.78c3.54.12,6.6.06,7.5,0s1.2-.3,1.2-1.2v-29.22H43.94V2044H40v-32.58H29.54V2044h-3.9v-32.58h-10V2046h-4v-38.27H29.84c.84-2.71,1.56-6.12,2.16-9.06H8.48v-4H61.82v4Z"/><path d="M117.92,2040.32c0,2.76-.78,4-2.64,4.68s-5.46.72-11.1.66a12.92,12.92,0,0,0-1.38-3.84c4.32.18,8.4.12,9.6.06s1.56-.42,1.56-1.56v-12.78H97.22v17.94h-4v-17.94H77.78c-.9,6.72-2.88,13.56-7.56,18.78a11.58,11.58,0,0,0-3-2.64c6.6-7.44,7.26-18,7.26-26.46v-21.59h43.44Zm-24.66-16.56v-10.5H78.38v4c0,2.11-.06,4.26-.24,6.54Zm-14.88-24.35v10.13H93.26v-10.13Zm35.58,0H97.22v10.13H114Zm0,24.35v-10.5H97.22v10.5Z"/><path d="M154,1994.49H139.22v35.15h-4v-38.87H154Z"/><path d="M205.52,2041.76c2.64,0,3.12-.84,3.36-7a9.65,9.65,0,0,0,3.42,1.44c-.48,7.2-1.68,8.88-6.42,8.88H194.54c-5.64,0-7.14-1.08-7.14-5.1v-8h-2.64c-3.18,7.5-9.9,11.82-25.08,14a13.25,13.25,0,0,0-1.86-3.36c13.32-1.74,19.56-5,22.62-10.68H165.38v-9.84c-1.62,1-3.36,1.86-5.16,2.7a10.84,10.84,0,0,0-2.46-2.76c8.34-3.66,14.46-8.7,17.64-13.25l4.14.84c-.66.83-1.32,1.67-2.1,2.58H193.7l.66-.18,2.58,1.61a38.39,38.39,0,0,1-5.22,5.7h14V2032H191.18v8c0,1.5.54,1.8,3.6,1.8Zm-37.86-31.55h-3.78v-16.56h42.24v16.43h-3.84v-13.43H167.66Zm14.1,18.65a37.11,37.11,0,0,0,1.32-6.36H169.22v6.36Zm-7-13.79a53.56,53.56,0,0,1-5.1,4.31h17.1a35.23,35.23,0,0,0,4.56-4.31Zm24.12-12.54H171.2V2000h27.66ZM171.2,2006h27.66v2.53H171.2ZM187,2022.5a54.75,54.75,0,0,1-1.2,6.36h15.84v-6.36Z"/><path d="M216,2042.84h14.82v-35.15h4v38.87H216Z"/><path d="M299.12,2023a100.84,100.84,0,0,1-11.7,8.58,36.22,36.22,0,0,0,15.3,8.76,24.16,24.16,0,0,0-2.64,3.48c-12.3-4.08-20.82-13.2-25.38-25.61h-.18a53.79,53.79,0,0,1-9.6,8V2040l14.88-4.5a18.38,18.38,0,0,0,.6,3.42c-16.62,5.4-18.66,6.12-20,7a14.6,14.6,0,0,0-1.74-3.66,3.9,3.9,0,0,0,2.16-3.78v-9.72a71.36,71.36,0,0,1-10.68,5.1,19.48,19.48,0,0,0-2.64-3.24,62.5,62.5,0,0,0,21.9-12.41H249.2v-3.54h23.7v-5.64H254.54v-3.36H272.9v-5.4H251.54v-3.48H272.9v-5.52h4v5.52h22v3.48h-22v5.4h19.32v3.36H276.92v5.64H300.8v3.54H278.54a38.86,38.86,0,0,0,6.6,11,80.68,80.68,0,0,0,10.74-8.46Z"/><path d="M323.24,2021.78a58,58,0,0,1-12.06,19.14,26,26,0,0,0-3.66-2.46,47,47,0,0,0,11.64-17.75Zm13.62-7.91v31.79h-4.14v-31.79H308.84v-4h52.5v4Zm19.2-14.22H314.18v-3.9h41.88Zm-5.16,20.93c4.5,5.58,9.24,13.14,11,18.24l-3.9,1.8c-1.74-5-6.3-12.78-10.8-18.48Z"/><path d="M397.1,2006.12v13.32h18.12v26.4H411v-3H379.1v3.24H375v-26.64H392.9v-13.32H368.48v-3.89H392.9v-10.92h4.2v10.92h24.6v3.89Zm13.86,17.1H379.1V2039H411Z"/><path d="M446.6,2034.26h-13V2039H429.8v-43.67h16.8Zm-13-35.27v13.73h9.24V1999Zm9.24,31.61v-14.27h-9.24v14.27Zm24-28.31v8.09h13.32V2014h-5.4v6.89h7.2v3.54h-7.2v16.68c0,2.4-.6,3.54-2.34,4.14s-4.74.72-9.66.72a16.74,16.74,0,0,0-1.32-3.78c3.78.12,7.2.12,8.16.06s1.26-.3,1.26-1.2v-16.62H448v-3.54h22.86V2014h-20.4v-3.61h12.48v-8.09H447.68v-3.6h15.24v-7.32h3.9v7.32h15.3v3.6Zm-11.76,24.47a51.18,51.18,0,0,1,7.86,10.32l-3.42,2.16a54.79,54.79,0,0,0-7.68-10.56Z"/><path d="M518.42,2012.72c4.26,13.5,12.18,24.6,23.76,29.46a20.09,20.09,0,0,0-2.94,3.72c-11.7-5.52-19.56-16.62-24.18-30.65-2.82,11.87-9.24,23.87-24.18,30.71a15.58,15.58,0,0,0-3-3.3c15.06-6.54,21.06-18.42,23.52-29.94H489v-4.07h23.16a123.53,123.53,0,0,0,1-17.22h4.2a133,133,0,0,1-1,17.22h25v4.07Z"/><path d="M577.46,2021.48c4.2,10.74,12.54,17.88,25.32,20.64a14.93,14.93,0,0,0-2.64,3.72c-12.42-3.18-20.58-10.2-25.38-20.94-2.88,8.34-9.54,15.9-24.66,21.18a15.62,15.62,0,0,0-2.46-3.54c15.36-5.22,21.36-12.9,23.64-21.06H549.2v-4.07h23a55.57,55.57,0,0,0,.48-7.68v-5H553.28v-4.08h19.38v-9.3h4.2v9.3H597.5v4.08H576.86v5a66,66,0,0,1-.42,7.68h24.48v4.07Z"/><path d="M633,2028.8c-8.34,3.84-17.52,7.86-24.06,10.74l-1.44-4.08c2.34-.9,5.16-2.1,8.28-3.42l-1-37.55,4-.12.9,36c4-1.74,8.22-3.6,12.36-5.46Zm26.64,17c-2.82-4.2-8.58-10.68-13.8-16.14-4.68,7.2-11.4,12.54-21,16.5a31.65,31.65,0,0,0-3.12-3.42c20.88-7.56,27.24-22.14,29.94-48.35l4.32.42c-1.44,13-3.78,23.21-8,31.31,5.46,5.4,11.88,12.24,15.06,16.56Zm-23.22-30.6c-1.56-4.14-5.46-10.25-9.24-14.63l3.42-1.74a56.51,56.51,0,0,1,9.54,14.27Z"/><path d="M721.76,2039.18v4H668.3v-4h22.62v-46.85h4.14v18.54h22.62v4H695.06v24.3Z"/><path d="M744,1992c-1,2.94-2.1,6.3-3.18,8.88H751v38.75h-16.8v4.8h-3.66v-43.55h6.66a64.68,64.68,0,0,0,2.58-9.72Zm3.3,12.47H734.18v13.08h13.14Zm0,31.56v-14.88H734.18v14.88Zm33.06-33.17c-1,27.53-1.8,36.71-4.2,39.59a5.6,5.6,0,0,1-4.56,2.28,74.94,74.94,0,0,1-8.82-.12,9.42,9.42,0,0,0-1.32-3.9c3.9.36,7.5.36,8.82.36s1.92-.12,2.52-.9c2-2.1,2.94-11.34,3.72-35.7H760.82a55.33,55.33,0,0,1-5.64,10.68,36.22,36.22,0,0,0-3.36-2.22c4.08-5.34,7.32-13.61,9.18-21.89l3.84.84c-.78,3-1.62,6-2.64,8.88h18.18Zm-12.78,27a106.51,106.51,0,0,0-9.3-13.92l3.06-1.79a102.47,102.47,0,0,1,9.6,13.61Z"/><path d="M841.76,2039.42v3.9h-53.4v-3.9H812.9v-19H794v-4h18.9v-17.1H791.48v-3.9h47.16v3.9H817v17.1H836.6v4H817v19Z"/><path d="M863.78,1992.75a106.51,106.51,0,0,1-4.92,12.54V2046H855v-33.29a60.9,60.9,0,0,1-5.34,7.73,25.75,25.75,0,0,0-2.16-3.9c5.16-6.12,9.84-15.41,12.72-24.83Zm18.9,37.85c-1.68,5.4-6.36,11-18.48,15.42a13.93,13.93,0,0,0-2.46-2.94c10.86-3.54,15.18-8.1,16.92-12.48h-16.5V2027h17.4a28,28,0,0,0,.18-3.12v-5.21H870.8a33.68,33.68,0,0,1-4.62,5.87,19.18,19.18,0,0,0-3.18-2,34.51,34.51,0,0,0,8.46-13.08l3.6,1c-.66,1.62-1.38,3.17-2.16,4.8h25.86v3.42H883.64v5.27a27,27,0,0,1-.18,3.06h18.36v3.6Zm19.56-25.31v3.54H862.7v-3.54h24.66c.42-2.46.78-5.22,1.08-7.5H868.22v-3.48h21.12l.66-.24,2.82.36c-.42,3.54-1,7.44-1.62,10.86Zm-15.06,26.21c4.86,3.6,11.4,8.82,14.88,11.94l-2.82,2.64c-3.24-3.18-9.78-8.52-14.76-12.36Z"/><path d="M915,2023.52c-.3,7.5-1.38,16.2-4.74,22.5a14.72,14.72,0,0,0-3.18-2.52c3.84-7.32,4.14-17.7,4.14-25.5v-20.69c7.14-.84,15.84-2.46,20.46-4.68l2.58,3.3c-4.86,2.16-12.42,3.6-19.14,4.44v5.94h16.26v17.21Zm.12-13.56v10h12.36v-10Zm47,5.46h-7.26v30.36H951v-30.36h-9.84v2.16c0,8.82-1.14,20.82-8.52,28.5a17.13,17.13,0,0,0-3.12-2.7c6.9-7.2,7.56-17.64,7.56-25.8v-20.15c7.5-1.14,16.38-3.06,21.18-5.34l2.7,3.36c-5,2.22-12.84,3.84-19.8,4.92v11.21h21Z"/><path d="M1017.92,2012.12c-1.38,8.52-3.6,16-7.2,22.14,1.74,4.92,3.78,7.8,6.06,7.8,1.32-.06,1.92-1.92,2.22-7.56a10,10,0,0,0,3.12,2c-.72,7.14-2,9.36-5.76,9.36-3.36,0-6.12-2.88-8.28-7.86a31.87,31.87,0,0,1-8.88,7.8,12.69,12.69,0,0,0-2.76-2.94,28.59,28.59,0,0,0,10-9.24c-2.16-7-3.54-16.32-4.32-26.81H967.76v-3.3h15.3v-3.9H971.6v-3.24h11.46v-5h3.84v5h11.46v3.24H986.9v3.9H1002c-.24-3.9-.36-8-.42-12.18h4c0,4.2.06,8.34.3,12.18h14.82v3.3H1006a128.29,128.29,0,0,0,3.18,22.07,64.76,64.76,0,0,0,5-17.63Zm-40.14,21.12v-3.54h-7.62v-2.76h7.62v-3.12H971.3v-13.91h27.12v13.91h-6.6v3.12h7.56v2.76h-7.56v3.54h8.94v2.88H968.12v-2.88Zm3.84,4.74a44.79,44.79,0,0,1-9.36,8.46,28.3,28.3,0,0,0-2.88-2.46,32.39,32.39,0,0,0,8.76-7.08Zm-7-22.31h8.52v-3.42h-8.52Zm0,5.75h8.52v-3.48h-8.52Zm6.54,5.52h7.26v-3.12H981.2Zm0,6.3h7.26v-3.54H981.2Zm8,3.78a44.6,44.6,0,0,1,6.54,6.48l-3.3,1.68a58.85,58.85,0,0,0-6.42-6.66Zm5.76-24.77h-8.46v3.42h8.46Zm0,5.69h-8.46v3.48h8.46Zm20-15.71a35.15,35.15,0,0,0-7.92-7.38l2.76-2.22c3.06,2,6.48,5,8,7.26Z"/><path d="M1044,1992c-1,2.94-2.1,6.3-3.18,8.88H1051v38.75h-16.8v4.8h-3.66v-43.55h6.66a64.68,64.68,0,0,0,2.58-9.72Zm3.3,12.47h-13.14v13.08h13.14Zm0,31.56v-14.88h-13.14v14.88Zm33.06-33.17c-1,27.53-1.8,36.71-4.2,39.59a5.6,5.6,0,0,1-4.56,2.28,74.94,74.94,0,0,1-8.82-.12,9.42,9.42,0,0,0-1.32-3.9c3.9.36,7.5.36,8.82.36s1.92-.12,2.52-.9c2-2.1,2.94-11.34,3.72-35.7h-15.72a55.33,55.33,0,0,1-5.64,10.68,36.22,36.22,0,0,0-3.36-2.22c4.08-5.34,7.32-13.61,9.18-21.89l3.84.84c-.78,3-1.62,6-2.64,8.88h18.18Zm-12.78,27a106.51,106.51,0,0,0-9.3-13.92l3.06-1.79a102.47,102.47,0,0,1,9.6,13.61Z"/><path d="M1105.34,2027.66c-1.08-1.68-3.54-4.86-5.52-7.44V2046h-3.66v-24.54a47,47,0,0,1-7.08,6.84,13.07,13.07,0,0,0-1.86-3.78c5.76-4.14,11.82-11.64,15.18-19.13h-14v-3.66h15.9l.72-.18,2.16,1.5a56.84,56.84,0,0,1-6.72,12.83c2,2.28,6.3,7.2,7.38,8.58Zm-7.38-26.45a35.79,35.79,0,0,0-5-7.68l2.94-1.92a36.63,36.63,0,0,1,5.16,7.5Zm44.4,40.37v3.18h-35.7v-3.18h11.28a61.87,61.87,0,0,0-2.34-6l3.12-.9a52.37,52.37,0,0,1,2.82,6.9h6.72a49.89,49.89,0,0,0,3.06-7l3.66,1c-1.14,2.1-2.28,4.2-3.3,6Zm-.6-22H1108.1v-3.12h33.66Zm-1.8-6.17h-29.88v-17.1h8.7v-5h3.3v5h5.58v-5h3.3v5h9Zm-28,20.51v-11.1H1138V2034Zm1.5-30.47h5.76v-4.38h-5.76Zm0,7.2h5.76v-4.57h-5.76Zm1.92,20.45h19.14v-5.52h-19.14Zm12.3-27.65v-4.38h-5.58v4.38Zm-5.58,2.63v4.57h5.58v-4.57Zm14.4-7h-5.94v4.38h5.94Zm0,7h-5.94v4.57h5.94Z"/><path d="M1168.7,2029.16c0,1.56-.24,2.64-1.2,3.3s-2.4.72-4.44.72a11.44,11.44,0,0,0-1.2-3.48c1.56.06,2.76.06,3.18.06s.54-.18.54-.72v-22.73h-4.92V2046h-3.48v-39.65h-4.68v27.35h-3.18v-31h7.86v-11.28h3.48v11.28h8Zm31.92-35.57v20.16h-3.78v-17H1175.6v17h-3.72v-20.16Zm-27.12,23.51H1199v28.68h-3.78v-1.92H1177.1v1.92h-3.6Zm3.6,3.24v4.5h18.12v-4.5Zm18.12,12.36v-4.86H1177.1v4.86Zm0,7.92v-4.92H1177.1v4.92Zm-.3-36h-17.46v-2.88h17.46Zm-17.46,5h17.46v3h-17.46Z"/><path d="M1220.18,2009.67a9.06,9.06,0,1,1-9.06,9A9.09,9.09,0,0,1,1220.18,2009.67Zm0,15.23a6.18,6.18,0,0,0,0-12.36,6.18,6.18,0,0,0,0,12.36Z"/><rect class="cls-2" x="1113" y="1164.5" width="65" height="318" rx="12"/><path class="cls-1" d="M1158.05,1202.79a27.61,27.61,0,0,0,11.5,8.1,11.65,11.65,0,0,0-2.15,2.55,30.77,30.77,0,0,1-12.8-10.65h-15.95a34.39,34.39,0,0,1-13,11.3,11.43,11.43,0,0,0-2.15-2.55,30.39,30.39,0,0,0,11.6-8.75H1124v-2.85h10v-16.15h-7.7V1181h7.7v-5h3.3v5h18.55v-5h3.35v5h7.65v2.8h-7.65v16.15h9.8v2.85Zm-10,14.5h17.3v2.85H1127.8v-2.85h16.9v-5.6h-10.45v-2.8h10.45v-4.4h3.35v4.4h10.65v2.8h-10.65Zm-10.8-33.5v3.6h18.55v-3.6Zm0,9.8h18.55v-3.65h-18.55Zm0,6.35h18.55v-3.8h-18.55Z"/><path class="cls-1" d="M1142.25,1244.54s0,1.15,0,1.55c-.6,15.85-1.2,21.2-2.6,23a3.71,3.71,0,0,1-2.8,1.45,32.65,32.65,0,0,1-4.45,0,9.25,9.25,0,0,0-.85-3c1.75.15,3.2.15,3.9.15a1.42,1.42,0,0,0,1.45-.65c1-1.2,1.6-6,2.15-19.35h-6.8c-.55,10-2,18.25-6.45,23.65a9.53,9.53,0,0,0-2.55-2.35c5.45-6.45,5.9-17.85,6.1-31.55h-5.2v-3.1h20.1v3.1h-11.65c0,2.45-.1,4.85-.2,7.15Zm-7.9-10.45a33.47,33.47,0,0,0-4.25-7.15l2.9-1.15a31.92,31.92,0,0,1,4.4,7Zm23.85-7.45a15.26,15.26,0,0,1-.85,2.55c2.65,5.45,7.7,11.35,12.45,14a13,13,0,0,0-2.45,2.75c-4.25-2.7-8.5-8-11.4-13.3a32.61,32.61,0,0,1-11,13.6,12.79,12.79,0,0,0-2.35-2.65c5.85-3.6,10.35-10.2,12.5-17.85Zm-8.3,32.45a74,74,0,0,1,13.6,8.25l-2.25,2.9c-2.85-2.6-8.75-6.3-13.4-8.65Zm9.5-4.85a66.22,66.22,0,0,0-8.6-6.85l2.15-2.2a67.46,67.46,0,0,1,8.75,6.55Z"/><path class="cls-1" d="M1138.15,1313.64v7.9H1135v-7.9h-11.4v-3H1135v-3.75h-9.3v-16.75h22v16.75h-9.6v3.75h11.3v3Zm-2.75-26.25h-10.1v-9.85h10.1Zm-2.6-7.45h-4.9v5h4.9Zm-4.25,17.3h6.6v-4.45h-6.6Zm0,7h6.6v-4.5h-6.6Zm19.65-16.85h-10.3v-9.85h10.3Zm-3.35,5.4H1138v4.45h6.85Zm0,7H1138v4.5h6.85Zm.7-19.8h-5.1v5h5.1Zm22,16a50.63,50.63,0,0,1-7.2,13.95c1.35,4.9,3,7.85,5.1,8,1.1,0,1.85-2.75,2.2-7.8a12.91,12.91,0,0,0,2.55,1.75c-1,7.7-2.75,10-4.7,9.9-3.35-.15-5.8-3.35-7.6-8.75a35.7,35.7,0,0,1-10,8.15,10.74,10.74,0,0,0-2.4-2.35,33.46,33.46,0,0,0,11.4-9.3,107.54,107.54,0,0,1-2.45-16l-5.6.7-.45-3,5.75-.7c-.35-4.4-.55-9.1-.75-14h3.15c.15,4.75.35,9.35.7,13.6l11.9-1.45.4,3-12,1.5a124,124,0,0,0,1.85,13,46.84,46.84,0,0,0,5.6-11.6Zm-1.75-9.15a32.82,32.82,0,0,0-6-8.45l2.5-1.4a36.73,36.73,0,0,1,6.1,8.25Z"/><path class="cls-1" d="M1167.15,1328.29v43.35h-3.3v-2.35H1129v2.35h-3.15v-43.35Zm-3.3,38v-34.9H1129v34.9Zm-17.2-7.9c-5.25,1.05-10.65,2.15-14.75,3l-.55-2.55c3.9-.65,9.5-1.7,15.2-2.75Zm12.3-14.55a38.63,38.63,0,0,1-5.6,12.4c1.15,2.9,2.6,4.75,4.4,5,.75.1,1.3-2,1.6-5.25a9.83,9.83,0,0,0,2.2,1.45c-.65,5.35-2.15,7.3-4.65,6.45-2.3-.45-4.1-2.3-5.5-5.15a31.26,31.26,0,0,1-6.85,6,15.66,15.66,0,0,0-2-2.1,26.23,26.23,0,0,0,7.7-6.75,70.89,70.89,0,0,1-2.8-15.1h-15.6v-2.55h15.35c-.15-1.8-.3-3.65-.4-5.55h2.9c.1,1.85.2,3.75.35,5.55h11.15v2.55h-11a73.53,73.53,0,0,0,2,12.2,35.88,35.88,0,0,0,4-9.7Zm-14.15.3v9.7h-11.1v-9.7Zm-2.5,2.15h-6.2v5.35h6.2Zm15.9-8.85a22.72,22.72,0,0,0-5.5-3.55l1.6-1.65a20.21,20.21,0,0,1,5.5,3.4Z"/><path class="cls-1" d="M1161,1388.09a51.83,51.83,0,0,1-12,19.6,49.94,49.94,0,0,0,20.5,10.5,16.79,16.79,0,0,0-2.25,3,50.92,50.92,0,0,1-20.75-11.1c-5.65,5-12.55,8.6-21,11.3a15.53,15.53,0,0,0-2-3.05c8.35-2.45,15.1-5.9,20.6-10.6a57.05,57.05,0,0,1-12.2-19.65h-7.75v-3.25h44.75v3.25Zm-25.75,0a52.13,52.13,0,0,0,11.3,17.3,47.46,47.46,0,0,0,10.7-17.3Zm11.25-3.55a38.13,38.13,0,0,0-3.8-7.8l3.4-1a39,39,0,0,1,4,7.65Z"/><path class="cls-1" d="M1167.8,1456h-19.65v11.35c0,2.05-.55,3-2.2,3.55s-4.15.6-8.35.6a12.78,12.78,0,0,0-1.45-3.3c3.4.1,6.55.1,7.4,0s1.15-.25,1.15-1V1456h-19.65v-3.15h19.65v-3.2a44.78,44.78,0,0,0,9.2-6.15h-20.7v-3.15h24l.75-.2,2.25,1.7a51.88,51.88,0,0,1-12.1,9v2h19.65Zm-38.85-14.7h-3.25v-10h19.8a28.4,28.4,0,0,0-2.7-4.6l3.2-1a29.73,29.73,0,0,1,3.4,5.65h17.8v10h-3.4v-6.85H1129Z"/><path d="M589,1233.45a221.74,221.74,0,0,1,25.41,16.88l-5.16-4A226,226,0,0,1,649.74,1287l-4-5.16a250.74,250.74,0,0,1,31.85,54.9l-2.58-6.09c10.63,25.24,18,51.94,22.94,78.84q2.16,11.67,3.72,23.42l-.91-6.78a635.13,635.13,0,0,1,5,88.7c-.23,29.51-2,59-4.27,88.42-1.29,16.55-2.74,33.09-4.17,49.62-.54,6.18,3.23,13.8,7.47,18,4.42,4.43,11.68,7.76,18,7.47,6.59-.29,13.43-2.46,18-7.47l4-5.16a25.46,25.46,0,0,0,3.48-12.87c2.9-33.35,5.84-66.72,7.38-100.17s1.67-67.15-1.14-100.6c-3-35.56-8.84-71.09-19.56-105.17-9.23-29.38-21.77-58-39.62-83.23a263.64,263.64,0,0,0-31.51-37.31,251.6,251.6,0,0,0-39.42-31.08c-3.2-2-6.46-4-9.77-5.89a26.52,26.52,0,0,0-19.65-2.57c-5.91,1.63-12.32,6.2-15.24,11.72-3.12,5.92-4.69,13.09-2.57,19.65,2,6.29,5.86,11.9,11.72,15.24Z"/><line class="cls-3" x1="600.69" y1="1211.75" x2="438" y2="1439.25"/><path d="M463.35,1265.6c-9.44-.17-18.87.21-28.3.4-8.75.18-17.56.31-26.25-.81l6.77.91a69.07,69.07,0,0,1-17.14-4.42l6.09,2.57a47.68,47.68,0,0,1-10.54-6.08l5.16,4a57.44,57.44,0,0,1-9.87-9.84l4,5.16a45.49,45.49,0,0,1-5.78-9.88l2.57,6.09a43.11,43.11,0,0,1-2.88-10.7l.91,6.77a50.42,50.42,0,0,1,.12-13.16l-.91,6.78a75.07,75.07,0,0,1,5.36-18.68l-2.57,6.09c5.11-12.07,12.42-23.1,20.4-33.46l-4,5.16c15.24-19.71,33.18-37.38,50.91-54.81q33.81-33.26,70.09-63.84,20.32-17.14,41.37-33.4l-5.16,4q27.76-21.43,56.71-41.3a24.56,24.56,0,0,0,12.18-25.4,19,19,0,0,0-3-9.48c-3.51-5.45-8.74-10.24-15.24-11.72s-14-1.29-19.65,2.57q-47.65,32.68-92.29,69.55-42.31,34.85-81.44,73.35c-21.63,21.29-43.25,43-60.68,68a154.7,154.7,0,0,0-10.42,17,130.36,130.36,0,0,0-9.67,23.31,66.3,66.3,0,0,0-2,8.81,95.08,95.08,0,0,0-1.51,15.15,82.2,82.2,0,0,0,1.74,15c1,5,3,9.44,5,14.08a44.93,44.93,0,0,0,4.42,8,86,86,0,0,0,10.21,12.48,81.88,81.88,0,0,0,13.78,10.9,80.39,80.39,0,0,0,16.68,7.51,70.59,70.59,0,0,0,12,2.83,159.14,159.14,0,0,0,18.73,1.93c9.93.3,19.86-.12,29.78-.33,4.77-.11,9.54-.16,14.3-.07a19.32,19.32,0,0,0,9.83-2.19,26.18,26.18,0,0,0,15.67-23.31c-.29-6.59-2.46-13.43-7.47-18a26.89,26.89,0,0,0-18-7.47Z"/><path d="M751.73,1316.6c9.94-.18,19.86.26,29.8.43,5,.09,9.92.12,14.88,0a155.48,155.48,0,0,0,18.63-2,69.56,69.56,0,0,0,12-2.92,79.13,79.13,0,0,0,16.63-7.62A82.18,82.18,0,0,0,867.44,1281c2.93-4.28,4.82-9,6.78-13.79a43.16,43.16,0,0,0,2.49-8.33,83,83,0,0,0,1.68-15,96.21,96.21,0,0,0-1.57-15.15,76.47,76.47,0,0,0-5.2-17.63,161.76,161.76,0,0,0-11.49-23.09c-8-12.9-17.59-24.9-27.61-36.26-9.29-10.53-19.15-20.56-29-30.51q-38.65-38.87-80.65-74.21-44.21-37.21-91.6-70.48-5.38-3.76-10.81-7.49a18.93,18.93,0,0,0-9.48-3,26.19,26.19,0,0,0-25.41,12.18c-3.12,5.91-4.69,13.08-2.57,19.65l2.57,6.09a25.61,25.61,0,0,0,9.15,9.14q28.94,19.84,56.71,41.3l-5.16-4q37.53,29,72.77,60.78c22.82,20.6,44.94,42,66.12,64.29a350,350,0,0,1,23.48,27l-4-5.16c8,10.36,15.28,21.39,20.4,33.46l-2.57-6.09a75.93,75.93,0,0,1,5.36,18.68l-.91-6.78a50.85,50.85,0,0,1,.11,13.16l.91-6.77a43.09,43.09,0,0,1-2.87,10.7l2.57-6.09a45.53,45.53,0,0,1-5.79,9.88l4-5.16a57.09,57.09,0,0,1-9.87,9.84l5.16-4a47.84,47.84,0,0,1-10.53,6.08l6.09-2.57a69,69,0,0,1-17.15,4.42l6.78-.91c-8.69,1.12-17.51,1-26.25.81-9.44-.19-18.87-.57-28.31-.4a26.49,26.49,0,0,0-18,7.47,28.44,28.44,0,0,0-7.47,18c.3,6.6,2.46,13.44,7.47,18s11.17,7.6,18,7.47Z"/></svg>