<svg id="Layer_1" data-name="Layer 1" xmlns="http://www.w3.org/2000/svg" viewBox="0 0 1242 2208"><defs><style>.cls-1{fill:#f6eabe;}.cls-2{fill:#999;}.cls-3{fill:none;stroke:#000;stroke-linecap:round;stroke-miterlimit:10;stroke-width:50px;}</style></defs><rect class="cls-1" width="1242" height="2208"/><path d="M881.43,813.52c34.94,0,40.49-17.47,44.46-127.84,11.91,7.94,33.35,15.09,48.44,18.27C968,825.43,952.09,854,886.19,854H757.57c-71.46,0-91.31-14.29-91.31-69.08V557.85H570.18C551.92,719,501.9,816.69,295.46,866.71c-4.76-12.7-19.85-31.75-31-41.28,191.35-42.08,234.23-127,247.72-267.58h-158V215.64c73-18.26,156.42-43.67,204.06-67.49l43.66,37.32c-54,22.23-125.45,41.29-191.35,57.17v104.8h171.5v47.64H410.59V508.62H842.52V395.08H667.05V348.24H842.52V247.4H654.35V198.17H894.13V557.85H720.25V785.73c0,23.82,6.35,27.79,42.08,27.79Z"/><rect class="cls-2" x="1113" y="450" width="65" height="126" rx="12"/><path class="cls-1" d="M1132.7,479.82c1.25,1.6,4.9,6.7,5.7,8.05l-2,2.45c-.7-1.5-2.35-4.4-3.75-6.65V510h-3.15V485.57c-1.5,5.05-3.5,9.9-5.55,12.85a14.83,14.83,0,0,0-1.75-3.1c2.9-4,5.8-11.5,7.2-18h-6.2v-3.15h6.3v-9.65h3.15v9.65h5.45v3.15h-5.45Zm19.1.7a19.47,19.47,0,0,0,.45,2.65c-10.15,2.7-11.6,3.15-12.5,3.75a12.13,12.13,0,0,0-1.1-3.2c.7-.2,1.55-.5,1.55-2.2v-16.7h3.25v6.5h8.35v2.9h-8.35v8.3Zm2.35,5.5-2,3.75h12.65V510h-3.4v-1.75h-17v2h-3.3V489.77h7.9c.55-1.5,1.2-3.25,1.55-4.6Zm7.3,6.5h-17v5.05h17Zm0,13v-5.3h-17v5.3Zm2.25-22.4c1.25,0,1.5-.75,1.65-5.25a9.16,9.16,0,0,0,2.85,1.25c-.3,5.45-1.2,6.95-4.15,6.95h-5.85c-3.65,0-4.55-.95-4.55-4.45V464.87h3.25v6.5h10.2v2.9h-10.2v7.35c0,1.3.25,1.5,1.65,1.5Z"/><path class="cls-1" d="M1167.55,539.87v2.5H1123.4v-2.5h20.25v-3.2H1126.8v-2.3h16.85v-3H1128.2v-2.25h15.45v-3.2H1123.5v-2.5h20.15v-3H1128.8V518h14.85v-3.55h3.25V518h14.45v5.4h6.15v2.5h-6.15v5.45H1146.9v3h17.3v2.3h-17.3v3.2Zm-37.75,5h31.75v15.25h-3.25v-1.6H1133v1.7h-3.2Zm3.2,2.4v3.2h25.3v-3.2Zm25.3,8.85v-3.4H1133v3.4Zm-11.4-32.7h11.15v-3H1146.9Zm0,5.7h11.15v-3.2H1146.9Z"/><path d="M134.81,1862.49H120v35.15h-4v-38.87h18.78Z"/><path d="M189.89,1866v47.63h-4.2v-4.38H146.45v4.86h-4.2v-46.25c6.9-2.28,14.7-5.46,19.26-8.34l3.12,3.48a112.44,112.44,0,0,1-18.18,7.26v14.64h16v4h-16v16.26h39.24v-16.26H168.53v-4h17.16V1870H168.05v-4Z"/><path d="M196.73,1910.84h14.82v-35.15h4v38.87H196.73Z"/><path d="M251.93,1858.17l3.24,1.74c-7.08,7.26-11.28,16.2-11.28,26.76s4.2,19.49,11.28,26.75l-3.24,1.74c-7.32-7.5-11.94-17-11.94-28.49S244.61,1865.67,251.93,1858.17Z"/><path d="M277.49,1872.62H258.35v-3.29h19.14Zm-1.2,15.9h-16v-3.23h16Zm-.36,22H264v2.82h-3.3v-20h15.24Zm-15.18-30v-3.23H276v3.23Zm7.92-11.69a37.94,37.94,0,0,0-5.16-7.8l3.3-1.32a43.55,43.55,0,0,1,5.4,7.5ZM264,1896.62v10.56h8.58v-10.56Zm28.38,10.92a53.19,53.19,0,0,1-13.5,6.54,17.47,17.47,0,0,0-2.58-2.58c4.56-1.32,10.08-3.78,12.72-5.88Zm1-41.93h-14v-2.82h14v-3.42h3.9v3.42h14.94v2.82H297.29v3.06h13.2v2.7h-29v-2.7h11.94ZM279.83,1874h31.92v11.69H279.83Zm30.3,31.55H281.51V1888h28.62Zm-27-22.25h6.12v-6.84h-6.12Zm23.28,7.25H285.17v2.7h21.24Zm0,4.8H285.17v2.76h21.24Zm0,4.8H285.17V1903h21.24Zm-7.32-16.85v-6.84H292v6.84Zm1.56,22.25c4.62,2,9.66,4.38,12.84,6.06l-2.28,2.64c-3-1.68-8-4.2-12.42-6.3Zm7.68-29.09h-6.42v6.84h6.42Z"/><path d="M313.25,1923.32l1-3.72a11.53,11.53,0,0,0,3.18.6c3.36,0,4.08-2.58,4.08-6.54v-36.59h4.86v36.65c0,6.54-2.4,10.44-8.46,10.44A12,12,0,0,1,313.25,1923.32Zm7.2-56.63a3.21,3.21,0,0,1,3.42-3.3,3.36,3.36,0,1,1,0,6.72A3.24,3.24,0,0,1,320.45,1866.69Z"/><path d="M336.71,1866.69a3.39,3.39,0,0,1,6.78,0,3.39,3.39,0,1,1-6.78,0Zm1,10.38h4.86v32.39h-4.86Z"/><path d="M353.33,1897.64v-20.57h4.86v20c0,6.18,1.86,8.94,6.42,8.94,3.42,0,5.88-1.74,9.12-5.7v-23.21h4.86v32.39h-4l-.42-5.16H374c-3.06,3.54-6.3,5.94-10.8,5.94C356.39,1910.24,353.33,1905.92,353.33,1897.64Zm3.72-36.71,3.42-3.24,9.36,11-2.58,2.45Z"/><path d="M393.11,1895c4.68-2,7.26-4.86,7.56-9.17a4,4,0,0,1-1.14.11c-2.34,0-4.26-1.32-4.26-4.07a4,4,0,0,1,4.32-4.08c3.18,0,4.86,2.58,4.86,6.66,0,6.41-4,11.21-10.08,13.43Z"/><path d="M434.15,1860.69a98.85,98.85,0,0,1-6.18,13.56v39.59h-3.84v-33.35a61.73,61.73,0,0,1-5.46,7,32.86,32.86,0,0,0-2.28-3.9c5.58-5.87,10.8-14.87,14-24Zm34.14,28c-2.1,1.26-4.44,2.64-6.84,3.78,2,6.06,5.82,11.82,10.38,14.52a11.2,11.2,0,0,0-2.64,2.94c-4.62-3.18-8.46-9.42-10.68-16a27.45,27.45,0,0,1-2.76,1.2c2.58,6.84,1.86,14-1,16.68a6.91,6.91,0,0,1-5.22,1.92c-1.08,0-2.4-.06-3.78-.18a9.31,9.31,0,0,0-1-3.42,38.26,38.26,0,0,0,4.14.24,3.66,3.66,0,0,0,3.12-1.14c1.56-1.38,2.22-5.16,1.44-9.36-5.16,4.92-13.08,9.36-19.8,11.7a15.8,15.8,0,0,0-2.34-2.82c7.62-2.28,16.62-7.14,21.3-12.24a35.76,35.76,0,0,0-1.5-3.48,63.52,63.52,0,0,1-17.22,9.9,16.14,16.14,0,0,0-2.22-2.64c5.94-1.8,13.74-5.76,17.88-9.54a16.39,16.39,0,0,0-2.94-3.18,58.44,58.44,0,0,1-13.56,7.26,11.26,11.26,0,0,0-2.22-2.58,52.48,52.48,0,0,0,15.06-7.56H435.71v-9.35c-1.14,1-2.28,2-3.54,2.94a9.54,9.54,0,0,0-2.52-2.59,44.59,44.59,0,0,0,13.86-16.25l3.84.72c-.6,1.2-1.32,2.34-2,3.54h11.1l.72-.18,2.34,1.68a52.13,52.13,0,0,1-4.8,6.84h13.08v12.65H450.17a15.29,15.29,0,0,1-1.2,1,21,21,0,0,1,5.64,6.84,111.93,111.93,0,0,0,10.92-6.42Zm-25.08-21.83A54.58,54.58,0,0,1,439,1872h11.58a37.88,37.88,0,0,0,3.72-5.16Zm-3.9,14.69h10.5v-6.42h-10.5Zm24.72-6.42H453.41v6.42H464Z"/><path d="M501.11,1908.2a27.91,27.91,0,0,0-1-3.42c-17.28,3.12-19.38,3.6-20.76,4.44a20.92,20.92,0,0,0-1.44-3.9c1.38-.3,3.06-2.4,5.34-5.46a149.72,149.72,0,0,0,9.78-14.64c-11.22,1-13,1.32-14,1.69v-.19a.47.47,0,0,0-.06.24,19.65,19.65,0,0,0-1.32-3.89c1.14-.31,2.16-1.92,3.48-4.32a102.7,102.7,0,0,0,8.4-19.2l4.08,1.5a131.92,131.92,0,0,1-10.32,21.29l11.82-.84c1.38-2.46,2.58-4.92,3.72-7.38l3.78,1.69a163.12,163.12,0,0,1-17.7,27.83l14.1-2.34c-1-2.7-2.28-5.58-3.48-8l3.24-1.26a67.35,67.35,0,0,1,5.94,14.7Zm28-32.75c-.36,24.89-.6,32.87-2.22,35.21a4.57,4.57,0,0,1-3.78,2.1c-1.68.12-4.44.06-7.2-.06a8.89,8.89,0,0,0-1.14-3.78c3,.24,5.64.24,6.72.24s1.5-.12,2-.9c1.14-1.56,1.56-9.24,1.8-31.14h-8.82c-.66,16.56-3.24,29.34-13.68,37.08a10.55,10.55,0,0,0-2.94-2.94c9.84-6.9,12.18-18.66,12.78-34.14h-8.52v-3.71h8.58c.12-4.44.12-9.12.12-14h3.9c0,4.92,0,9.6-.12,14h12.54Z"/><path d="M583.91,1910c2.64,0,3.06-1.32,3.36-9.66a12.17,12.17,0,0,0,3.66,1.38c-.48,9.18-1.68,11.34-6.66,11.34h-9.72c-5.4,0-6.9-1.08-6.9-5.22v-17.16h-7.26c-1.38,12.18-5.16,19.56-20.76,23.34a9.7,9.7,0,0,0-2.34-3.12c14.46-3.18,17.7-9.6,18.72-20.22H544.07v-25.85c5.52-1.38,11.82-3.3,15.42-5.1l3.3,2.82a105.8,105.8,0,0,1-14.46,4.32v7.92h13v3.59h-13V1887H581v-8.58H567.71v-3.53H581v-7.62H566.75v-3.72h18.12v27.17H571.73v17.22c0,1.8.48,2.1,3.18,2.1Z"/><path d="M621.77,1905.2c-8.52,2-17.46,4-24,5.34l-1-3.72c6.18-1.14,15.6-3.06,24.72-5Zm-.72-38.81h-23.4v-3.72h23.4Zm-1.44,21.9H599.27v-16h20.34Zm-16.44,14.45a41.62,41.62,0,0,0-2.34-11.28l3.24-.78a37.26,37.26,0,0,1,2.58,11.16Zm12.78-27h-13.2v9.23H616Zm-4.74,26.57a85,85,0,0,0,2.7-12.12l3.9,1c-1.08,4.07-2.4,8.93-3.54,12Zm22.5,3.9c-3.18,3.12-8.46,6.12-13.08,7.86a22.91,22.91,0,0,0-2.7-2.7c4.68-1.56,9.84-4.56,12.24-7.14Zm-.72-34.43c.48-1.86,1-4,1.26-5.94H622.67v-3.54h28.74v3.54H638.63c-.54,2-1.14,4.14-1.74,5.94h12.54v31H624.59v-31Zm12.66,3.18h-17.4v6.17h17.4Zm0,9.11h-17.4v6.24h17.4Zm0,9.3h-17.4v6.24h17.4Zm-3.36,11.16a75.29,75.29,0,0,1,10.32,7.38l-3.24,2.16a66.38,66.38,0,0,0-10.14-7.62Z"/><path d="M711.05,1908.56v3.36H657.59v-3.36h7.08v-11.7h39.48v11.7Zm-6.48-11.7c-1.08-1.08-2.4-2.22-4-3.54-31.08.9-34,1-36,1.62a21.66,21.66,0,0,0-1.26-3.6,10.19,10.19,0,0,0,3.9-1.62,73.5,73.5,0,0,0,7.38-5.27H658v-3.12h24.06v-4.68H663.29v-3h18.78v-4.44h4v4.44h19.38v3H686v4.68h24.66v3.12H680.27a85.29,85.29,0,0,1-9.06,6.41l25.14-.6c-1.74-1.2-3.48-2.34-5.16-3.3l2.88-2.09a75.52,75.52,0,0,1,13.44,9.47ZM672,1867.29H658.37v-3.6H672v-4.26h3.72v4.26h6.48v3.6h-6.48v3.54H672Zm-3.54,41.27h8.22v-8.64h-8.22Zm11.58-8.64v8.64h8.4v-8.64Zm12.36-32.57h-6.06v-3.6h6.06v-4.32h3.72v4.32h14.64v3.6H696.11v3.48h-3.72Zm-.6,32.57v8.64h8.46v-8.64Z"/><path d="M769.19,1877.49v11.15h-3.78V1881H722.93v7.68h-3.66v-11.15h8.34V1862h33.24v15.54Zm-7.74,31.91c0,2.22-.54,3.24-2.22,3.84s-4.68.6-9.24.54a10.29,10.29,0,0,0-1.32-3.3c3.6.06,6.78.06,7.68.06s1.26-.3,1.26-1.14V1902c-8.76,1.74-17.82,3.54-24.54,4.8l-1.32-3.6c6.48-1,16.32-2.76,25.86-4.5v-10.44H731v6.36c0,5.82-.78,13.86-5.22,19.44a16,16,0,0,0-3.24-2.34c4.14-5.1,4.62-12,4.62-17.1v-9.66h34.32Zm-30-31.91h8.94v-8.28h16.5v-4H731.45Zm2.94,14c7.08.36,16.26,1.92,21.24,3.66l-1.08,3.12c-4.86-1.8-14-3.48-21.24-4Zm22.5-19.55H744v5.52h12.9Z"/><path d="M808.73,1888c5.52,7.8,14.76,15.54,23.16,19.2a22,22,0,0,0-2.82,3.36c-8.1-4-17-11.76-22.86-20V1914h-4.14v-23.1a65.86,65.86,0,0,1-22.56,19.62,30.44,30.44,0,0,0-2.88-3.36c8.4-3.66,17.58-11.28,23-19.2H778.19v-4h23.88v-10.79H782.45v-3.9h19.62v-9.9h4.14v9.9h20.28v3.9H806.21V1884h24.36v4Z"/><path d="M868.79,1861a20.19,20.19,0,0,1-1.92,2.7c6.9,7.43,15.42,12.48,25.2,16.8a13,13,0,0,0-2.76,3.47c-9.48-4.55-17.64-9.71-24.72-17.39a68.15,68.15,0,0,1-14.46,12.35h29.22v3.72H849.23v-3.11a76.13,76.13,0,0,1-9.48,4.92,20.23,20.23,0,0,0-2.82-3.42c11.4-4.45,22.38-12.54,28.38-21.78Zm-22.56,29.15H883v23.52h-4.2v-3.24H850.25v3.48h-4Zm4,3.6v12.9h28.56v-12.9Z"/><path d="M907,1891.52V1909c0,2.16-.54,3.12-1.8,3.78s-3.3.72-6.66.72a18.55,18.55,0,0,0-1.14-3.54c2.4.06,4.44.06,5,0s1-.18,1-1V1892.9c-1.86.78-3.72,1.44-5.4,2.1l-1.14-3.78c1.86-.6,4.08-1.44,6.54-2.39v-13.56h-6v-3.72h6v-12.18H907v12.18h4.68v3.72H907v12.23l4.44-1.67.66,3.65Zm23.16,18.06c0,1.74-.3,2.76-1.56,3.3s-3.12.66-6.18.66a9.67,9.67,0,0,0-1.2-3.24c2.28.06,4.2.06,4.8.06s.78-.24.78-.84v-8.1L919,1905l-1.38-2.88c2.52-.78,5.7-2,9.18-3.3v-11.64h-8.94v8.58c0,5.52-.54,13-3.6,18.42a12.43,12.43,0,0,0-2.64-2c2.7-4.86,2.94-11.46,2.94-16.38V1884h15.6Zm-1-39.83c-.72,2.52-1.62,5.21-2.4,7.37H932v3.37H912.29v-3.37h11.46a65.35,65.35,0,0,0,2.28-8.27Zm2.22-1.32H913.07v-3.24h8.1c-.54-1.68-1.26-3.72-1.92-5.28l3.3-.78a55.17,55.17,0,0,1,2.4,6.06h6.36Zm-13.8,8.45a69.1,69.1,0,0,0-2-7.13l2.64-.9a48.51,48.51,0,0,1,2.16,7Zm2.46,13.5a38.42,38.42,0,0,1,6.24,2.82l-1.56,2.34c-1.5-.84-4.2-2.16-6.3-3.06Zm26.7,19.44c1.32,0,1.62-.6,1.8-4a9.9,9.9,0,0,0,3.24,1.44c-.42,4.68-1.5,6-4.74,6h-7.5c-4.14,0-5.28-1-5.28-5.4v-26.57h12v-5.94h-12v-16h3.6v5h13.44v3.36H937.79v4.56h11.7v12.18h-11.7v3.77h11.58V1891H937.79v3.84h10.92v2.88H937.79v3.9h12.06v2.88H937.79v3.36c0,1.68.3,1.92,2.16,1.92Z"/><path d="M958.07,1915.16l-3.24-1.74c7.08-7.26,11.28-16.2,11.28-26.75s-4.2-19.5-11.28-26.76l3.24-1.74c7.32,7.5,11.94,17,11.94,28.5S965.39,1907.66,958.07,1915.16Z"/><path d="M1007.39,1872.62a67.64,67.64,0,0,1-7.2,12.25v28.85h-4v-24a41.57,41.57,0,0,1-7.26,6.41,17,17,0,0,0-2-3.48c7-5,12.3-12.23,16.14-20H988.25v-3.83h16.44a65.25,65.25,0,0,0,3.3-9.42l4.08,1c-.9,2.82-1.86,5.64-3,8.4h31.26v3.83Zm32.94,36.24v3.72h-36.12v-3.72h16v-17.52h-13.68v-3.72h13.68v-11.81h4v11.81H1038v3.72h-13.8v17.52Z"/><path d="M1101,1907.18v4h-53.46v-4h22.62v-46.85h4.14v18.54h22.62v4h-22.62v24.3Z"/><path d="M1113.11,1895c4.68-2,7.26-4.86,7.56-9.17a4,4,0,0,1-1.14.11c-2.34,0-4.26-1.32-4.26-4.07a4,4,0,0,1,4.32-4.08c3.18,0,4.86,2.58,4.86,6.66,0,6.41-4,11.21-10.08,13.43Z"/><path d="M303.38,1934.49H288.56v35.15h-4v-38.87h18.78Z"/><path d="M324.08,1933.83v19.38c0,12.11-1.5,24.29-14.7,32.87a14.85,14.85,0,0,0-2.82-3.06c12.18-7.86,13.62-19,13.62-29.81v-19.38Zm22.32-.06v44.57c0,2.76.42,3.24,2.4,3.24h6.6c2.16,0,2.52-2.58,2.76-12.66a9.67,9.67,0,0,0,3.72,1.8c-.42,11-1.32,14.64-6.24,14.64h-7.32c-4.62,0-5.94-1.5-5.94-7.08v-44.51Z"/><path d="M365.3,1982.84h14.82v-35.15h4v38.87H365.3Z"/><path d="M420.5,1930.17l3.24,1.74c-7.08,7.26-11.28,16.2-11.28,26.76s4.2,19.49,11.28,26.75l-3.24,1.74c-7.32-7.5-11.94-17-11.94-28.49S413.18,1937.67,420.5,1930.17Z"/><path d="M446.06,1944.62H426.92v-3.29h19.14Zm-1.2,15.9h-16v-3.23h16Zm-.36,22H432.56v2.82h-3.3v-20H444.5Zm-15.18-30v-3.23h15.24v3.23Zm7.92-11.69a37.94,37.94,0,0,0-5.16-7.8l3.3-1.32a43.55,43.55,0,0,1,5.4,7.5Zm-4.68,27.77v10.56h8.58v-10.56Zm28.38,10.92a53.19,53.19,0,0,1-13.5,6.54,17.47,17.47,0,0,0-2.58-2.58c4.56-1.32,10.08-3.78,12.72-5.88Zm1-41.93h-14v-2.82h14v-3.42h3.9v3.42H480.8v2.82H465.86v3.06h13.2v2.7H450v-2.7H462ZM448.4,1946h31.92v11.69H448.4Zm30.3,31.55H450.08V1960H478.7Zm-27-22.25h6.12v-6.84H451.7ZM475,1962.5H453.74v2.7H475Zm0,4.8H453.74v2.76H475Zm0,4.8H453.74V1975H475Zm-7.32-16.85v-6.84h-7.08v6.84Zm1.56,22.25c4.62,2,9.66,4.38,12.84,6.06l-2.28,2.64c-3-1.68-8-4.2-12.42-6.3Zm7.68-29.09h-6.42v6.84h6.42Z"/><path d="M490,1949.07h4l.48,5.93h.18c2.22-4.08,5.52-6.77,9.18-6.77a7,7,0,0,1,3.42.72l-1,4.26a8.2,8.2,0,0,0-3.06-.54c-2.76,0-6.12,2-8.34,7.67v21.12H490Z"/><path d="M509.6,1965.26c0-10.5,7-17,14.46-17,8.1,0,12.78,5.81,12.78,15.17a14.19,14.19,0,0,1-.24,2.94H514.46c.3,7.2,4.62,12,11.1,12a14.28,14.28,0,0,0,8.22-2.64l1.8,3.24a18.91,18.91,0,0,1-10.62,3.3C516.44,1982.24,509.6,1975.94,509.6,1965.26Zm22.92-2.51c0-6.91-3.12-10.57-8.4-10.57-4.8,0-9.06,3.9-9.72,10.57Zm-12.24-22.08,9.36-11,3.42,3.24-10.2,10.19Z"/><path d="M545.06,1949.07h4l.48,4.73h.18c3.12-3,6.48-5.57,10.92-5.57,6.78,0,9.9,4.38,9.9,12.65v20.58h-4.92v-20c0-6.23-1.92-9-6.42-9-3.42,0-5.88,1.8-9.24,5.27v23.7h-4.86Z"/><path d="M584.54,1967c4.68-2,7.26-4.86,7.56-9.17a4,4,0,0,1-1.14.11c-2.34,0-4.26-1.32-4.26-4.07a4,4,0,0,1,4.32-4.08c3.18,0,4.86,2.58,4.86,6.66,0,6.41-4,11.21-10.08,13.43Z"/><path d="M660.26,1980.8c0,2.58-.72,3.84-2.4,4.5s-4.74.78-9.9.78a14.91,14.91,0,0,0-1.5-3.9c3.9.12,7.38.12,8.4.06s1.5-.42,1.5-1.44v-42.53H615.08v47.87h-3.9v-51.65h49.08ZM651,1948.41H620.6v-3.48H651Zm-23.64,25.31v4.44h-3.72V1955h24v18.77Zm0-15.35v11.93h16.56v-11.93Z"/><path d="M694.7,1934.49H679.88v35.15h-4v-38.87H694.7Z"/><path d="M727.94,1931.55c-.06,2.1-.12,5.1-.42,8.64.9,7,4.56,32.51,25.74,42a12.63,12.63,0,0,0-2.88,3.36c-15.42-7.26-21.72-22.74-24.6-34-2.64,12.23-8.94,26.33-24.06,34.19a13.77,13.77,0,0,0-3.12-3.06c25-12.48,24.78-42.11,25-51.11Z"/><path d="M756.62,1982.84h14.82v-35.15h4v38.87H756.62Z"/><path d="M789.5,1987.16l-3.24-1.74c7.08-7.26,11.28-16.2,11.28-26.75s-4.2-19.5-11.28-26.76l3.24-1.74c7.32,7.5,11.94,17,11.94,28.5S796.82,1979.66,789.5,1987.16Z"/><path d="M838.82,1944.62a67.64,67.64,0,0,1-7.2,12.25v28.85h-4v-24a41.57,41.57,0,0,1-7.26,6.41,17,17,0,0,0-2-3.48c7-5,12.3-12.23,16.14-20H819.68v-3.83h16.44a65.25,65.25,0,0,0,3.3-9.42l4.08,1c-.9,2.82-1.86,5.64-3,8.4h31.26v3.83Zm32.94,36.24v3.72H835.64v-3.72h16v-17.52H838v-3.72h13.68v-11.81h4v11.81h13.8v3.72h-13.8v17.52Z"/><path d="M906.62,1939.71v10.86l.66-.78c7.32,3.54,16.74,8.93,21.54,12.53l-2.76,3.6c-4.2-3.42-12.48-8.46-19.44-12.12v32.1h-4.2v-46.19H879.2v-4h53v4Z"/><path d="M950.84,1949.67a9.06,9.06,0,1,1-9.06,9A9.09,9.09,0,0,1,950.84,1949.67Zm0,15.23a6.18,6.18,0,0,0,0-12.36,6.18,6.18,0,1,0,0,12.36Z"/><path d="M491.9,2020.17c4.44,10.31,12.24,20,20.76,24.71a23.11,23.11,0,0,0-3.06,3.36c-9-5.58-16.92-16.32-21.6-28.07h-1v22.43h14.28v4H487V2058H482.9v-11.4H468.68v-4H482.9v-22.43h-1.08c-4.74,11.75-12.66,22.43-21.3,28.25a24.18,24.18,0,0,0-2.88-3.18c8-4.92,15.66-14.76,20.16-25.07H459.14v-4H482.9v-12.72H487v12.72h24v4Z"/><path d="M566.9,2042.54a33.64,33.64,0,0,1-8.22,7.38c2.4,2.82,5.22,4.44,8.16,4.38,1.68-.06,2.16-1.5,2.46-5.94a10.31,10.31,0,0,0,3.12,1.62c-.6,6.3-2.1,7.92-5.76,8-4.26,0-8.16-2.22-11.28-6a74.41,74.41,0,0,1-13.68,5.82,36.46,36.46,0,0,0-2.1-3.24,65.61,65.61,0,0,0,13.86-5.34,34.94,34.94,0,0,1-3.84-8.82H535.16v4.38l11.16-1-.06,2.88-11.1,1.08v6.12c0,2.1-.48,3.06-2.16,3.54s-4.38.54-8.94.54a19.42,19.42,0,0,0-1.26-3.18c3.36.12,6.48.06,7.38,0s1.2-.24,1.2-1v-5.7c-4.74.48-9.12.9-12.72,1.2l-.42-3.3c3.54-.24,8.1-.54,13.14-1v-4.68h-12.9v-3.18h12.9v-4.44c-3.78.42-7.68.72-11.28.91a12,12,0,0,0-.9-2.71c8.16-.48,18.18-1.55,23.52-2.94l2.52,2.58c-2.82.66-6.36,1.26-10.08,1.74v4.86h13.68a52.67,52.67,0,0,1-1.2-8.94h3.84a57.48,57.48,0,0,0,1.2,8.94h19v3.18H553.58a31.91,31.91,0,0,0,3.12,6.9,27.09,27.09,0,0,0,6.72-5.94Zm4.62-15.17h-53v-3.25H542.9V2020H524.3v-3.06h18.6v-4H521.06v-3.18h12.66a30,30,0,0,0-3.48-5.16l3.42-1.26a24.4,24.4,0,0,1,4.32,6.24l-.42.18H552.2a54.7,54.7,0,0,0,3.6-6.6l4.14,1.2c-1.2,1.86-2.52,3.84-3.72,5.4h12.84V2013H546.92v4h18.9V2020h-18.9v4.13h24.6Zm-5.7,9a34,34,0,0,0-9.48-5.52l2.16-2.46a38.32,38.32,0,0,1,9.66,5.22Z"/><path d="M630.74,2035.17s-.06,1.19-.12,1.73c-1.14,12.66-2.28,17.64-4.14,19.56a5.52,5.52,0,0,1-4,1.56,66.58,66.58,0,0,1-7.5-.12,9.39,9.39,0,0,0-1.2-3.66c3.12.3,6.06.3,7.2.3a3,3,0,0,0,2.22-.54c1.26-1.32,2.4-5.34,3.36-15.3H589a59.21,59.21,0,0,1-9.66,7.32,19.86,19.86,0,0,0-2.22-3.3c10.26-6,17.82-15.18,23.1-25.43h-20v-3.66H602a82.29,82.29,0,0,0,3.84-10.32l3.9,1a92.32,92.32,0,0,1-3.54,9.3H622c-.72,3.48-1.56,7.62-2.34,10.74h7c-.66,3.47-1.5,7.67-2.28,10.8Zm-49.38,20.33c3.42-3.24,5.7-8.58,7-13.2l3.3,1.08c-1.44,4.92-3.54,10.62-7.14,14.16Zm12.42-42.17a39,39,0,0,0-6-8.34l3.42-1.44a39.57,39.57,0,0,1,6.18,8Zm26.82,21.84c.54-2.11,1.08-4.69,1.56-7.21H598.34a75.18,75.18,0,0,1-5.76,7.21Zm-21.48,7.91a44,44,0,0,1,1.8,11.88l-3.48.54a39.57,39.57,0,0,0-1.62-11.94Zm5.4-25.79c-1.14,2.4-2.46,4.79-3.84,7.08h15.24c.54-2,1.14-4.62,1.62-7.08Zm3.18,25a43,43,0,0,1,3.6,10.26l-3.3.9a45.91,45.91,0,0,0-3.42-10.44Zm10.32,8a38.83,38.83,0,0,0-4.56-8.1l2.76-1.08a34.18,34.18,0,0,1,4.74,7.86Z"/><path d="M651.86,2019c-1.92,8.64-5.46,19.37-10.92,26a23.08,23.08,0,0,0-3.72-2.16c5.46-6.3,8.76-16.61,10.26-24.65Zm15.48-14.76v48c0,3.06-.84,4.32-2.82,5s-5.76.72-11.28.72a18.75,18.75,0,0,0-1.68-4.14c4.44.12,8.76.12,9.9.06s1.74-.42,1.74-1.68v-48Zm13.92,13.56c5.34,8.39,10.44,19.31,11.94,26.45l-4.14,1.74c-1.5-7-6.3-18.18-11.52-26.75Z"/><path d="M710.78,2035.94v17.22c0,2.34-.6,3.36-2.1,4-1.68.66-4.32.72-8.64.72a15.45,15.45,0,0,0-1.44-3.66c3.36.12,6.3.12,7.14.06s1.2-.3,1.2-1.14v-15.9l-8.46,2.82-.84-4c2.52-.72,5.76-1.68,9.3-2.81v-11.17a61.42,61.42,0,0,0,6.54-10.91H699v-3.72h16.62l.84-.24,2.58,1.86a88.79,88.79,0,0,1-8.22,13.43V2032c2.46-.71,5-1.56,7.5-2.4l.48,3.61Zm39.54-3.23a51.75,51.75,0,0,1-9.48,12A118.66,118.66,0,0,1,752.12,2055l-3.06,2.64a98.23,98.23,0,0,0-10.92-10.5,65.34,65.34,0,0,1-19.56,11,19.17,19.17,0,0,0-2.34-3.24c13.62-4.68,25-13.38,30.06-23.51Zm2-21v3.72H735.14c-2,3.42-4.92,8.33-7,11.64l10.14-.61a35.51,35.51,0,0,0,3.66-5.81l3.78,1.31a58.1,58.1,0,0,1-24.6,22.92,17.6,17.6,0,0,0-2.28-3.06A55.65,55.65,0,0,0,735.2,2030c-10.56.79-12.24,1.08-13.32,1.5a20,20,0,0,0-1.14-3.83c1.14-.25,2.76-.6,3.6-1.68,1.14-1.27,4.62-7.08,6.6-10.56H719.42v-3.72H735.2a40.5,40.5,0,0,0-3.12-7.38l3.66-1.2a28.83,28.83,0,0,1,3.6,8.16l-1.14.42Z"/><path d="M770.18,2021.67a9.06,9.06,0,1,1-9.06,9A9.09,9.09,0,0,1,770.18,2021.67Zm0,15.23a6.18,6.18,0,1,0,0-12.36,6.18,6.18,0,1,0,0,12.36Z"/><rect class="cls-2" x="1113" y="1261" width="65" height="271" rx="12"/><path class="cls-1" d="M1158.05,1300.79a27.61,27.61,0,0,0,11.5,8.1,11.65,11.65,0,0,0-2.15,2.55,30.77,30.77,0,0,1-12.8-10.65h-15.95a34.39,34.39,0,0,1-13,11.3,11.43,11.43,0,0,0-2.15-2.55,30.39,30.39,0,0,0,11.6-8.75H1124v-2.85h10v-16.15h-7.7V1279h7.7v-5h3.3v5h18.55v-5h3.35v5h7.65v2.8h-7.65v16.15h9.8v2.85Zm-10,14.5h17.3v2.85H1127.8v-2.85h16.9v-5.6h-10.45v-2.8h10.45v-4.4h3.35v4.4h10.65v2.8h-10.65Zm-10.8-33.5v3.6h18.55v-3.6Zm0,9.8h18.55v-3.65h-18.55Zm0,6.35h18.55v-3.8h-18.55Z"/><path class="cls-1" d="M1142.25,1342.54s0,1.15,0,1.55c-.6,15.85-1.2,21.2-2.6,23a3.71,3.71,0,0,1-2.8,1.45,32.65,32.65,0,0,1-4.45,0,9.25,9.25,0,0,0-.85-3c1.75.15,3.2.15,3.9.15a1.42,1.42,0,0,0,1.45-.65c1-1.2,1.6-6,2.15-19.35h-6.8c-.55,10-2,18.25-6.45,23.65a9.53,9.53,0,0,0-2.55-2.35c5.45-6.45,5.9-17.85,6.1-31.55h-5.2v-3.1h20.1v3.1h-11.65c0,2.45-.1,4.85-.2,7.15Zm-7.9-10.45a33.47,33.47,0,0,0-4.25-7.15l2.9-1.15a31.92,31.92,0,0,1,4.4,7Zm23.85-7.45a15.26,15.26,0,0,1-.85,2.55c2.65,5.45,7.7,11.35,12.45,14a13,13,0,0,0-2.45,2.75c-4.25-2.7-8.5-8-11.4-13.3a32.61,32.61,0,0,1-11,13.6,12.79,12.79,0,0,0-2.35-2.65c5.85-3.6,10.35-10.2,12.5-17.85Zm-8.3,32.45a74,74,0,0,1,13.6,8.25l-2.25,2.9c-2.85-2.6-8.75-6.3-13.4-8.65Zm9.5-4.85a66.22,66.22,0,0,0-8.6-6.85l2.15-2.2a67.46,67.46,0,0,1,8.75,6.55Z"/><path class="cls-1" d="M1165,1377.19v29.3h-3.5v-2.55h-13.3v15.6h-3.45v-15.6h-13.4v2.75H1128v-29.5Zm-33.65,3.2V1389h13.4v-8.65Zm13.4,20.35v-8.5h-13.4v8.5Zm16.75-20.35h-13.3V1389h13.3Zm0,20.35v-8.5h-13.3v8.5Z"/><path class="cls-1" d="M1167.25,1439.09v9.3h-3.15V1442h-35.4v6.4h-3v-9.3h6.95v-12.95h27.7v12.95Zm-6.45,26.6c0,1.85-.45,2.7-1.85,3.2s-3.9.5-7.7.45a8.57,8.57,0,0,0-1.1-2.75c3,.05,5.65.05,6.4.05s1-.25,1-1v-6.2c-7.3,1.45-14.85,3-20.45,4l-1.1-3c5.4-.8,13.6-2.3,21.55-3.75V1448h-22.2v5.3c0,4.85-.65,11.55-4.35,16.2a13.29,13.29,0,0,0-2.7-2c3.45-4.25,3.85-10,3.85-14.25v-8h28.6Zm-25-26.6h7.45v-6.9H1157v-3.35h-21.2Zm2.45,11.7a75.14,75.14,0,0,1,17.7,3l-.9,2.6c-4-1.5-11.7-2.9-17.7-3.35Zm18.75-16.3h-10.75v4.6H1157Z"/><path class="cls-1" d="M1161,1486.09a51.83,51.83,0,0,1-12,19.6,49.94,49.94,0,0,0,20.5,10.5,16.79,16.79,0,0,0-2.25,3,50.92,50.92,0,0,1-20.75-11.1c-5.65,5-12.55,8.6-21,11.3a15.53,15.53,0,0,0-2-3.05c8.35-2.45,15.1-5.9,20.6-10.6a57.05,57.05,0,0,1-12.2-19.65h-7.75v-3.25h44.75v3.25Zm-25.75,0a52.13,52.13,0,0,0,11.3,17.3,47.46,47.46,0,0,0,10.7-17.3Zm11.25-3.55a38.13,38.13,0,0,0-3.8-7.8l3.4-1a39,39,0,0,1,4,7.65Z"/><path d="M588.61,1344.77a223.81,223.81,0,0,1,39.5,24.33l-5.17-4a208.86,208.86,0,0,1,37.15,37.18l-4-5.16a214,214,0,0,1,27.24,47.06l-2.57-6.09a321.28,321.28,0,0,1,21.83,82.08l-.91-6.78a479.25,479.25,0,0,1,3.67,71.55c-.42,23.9-2.18,47.76-4.38,71.56-1.24,13.38-2.62,26.74-4,40.11a28.36,28.36,0,0,0,7.46,18c4.43,4.42,11.68,7.75,18,7.47,6.59-.3,13.43-2.46,18-7.47l4-5.16a25.43,25.43,0,0,0,3.49-12.87c3-29.06,6-58.13,7.51-87.31s1.46-58.55-1.79-87.64c-3.52-31.48-9.86-62.52-21.66-92-5.36-13.38-11.2-26.51-18.65-38.87a243.52,243.52,0,0,0-24.53-33.48,207.25,207.25,0,0,0-27.08-26.07,252.76,252.76,0,0,0-38.27-25.84q-4.53-2.43-9.17-4.66a18.9,18.9,0,0,0-9.48-3,19.24,19.24,0,0,0-10.17.46c-5.91,1.63-12.32,6.2-15.24,11.71-3.13,5.92-4.69,13.09-2.57,19.65,2,6,5.8,12.39,11.72,15.24Z"/><line class="cls-3" x1="600.33" y1="1323.02" x2="437.64" y2="1515.7"/><path d="M612.94,1296c-25.27-3.76-50.67-7.65-75.06-15.46q-9.11-2.91-17.93-6.59l6.09,2.57a164.65,164.65,0,0,1-36.59-21l5.16,4a130.33,130.33,0,0,1-22.95-22.92l4,5.16a149.86,149.86,0,0,1-19.21-33.19l2.57,6.09a196.33,196.33,0,0,1-13.32-49.94l.91,6.78c-3.58-26.84-2.34-54.07.53-80.91.83-7.76,1.81-15.51,2.84-23.25l-.91,6.78q1.45-10.79,3-21.56a19.34,19.34,0,0,0,.45-10.17,18.9,18.9,0,0,0-3-9.48,28.55,28.55,0,0,0-15.23-11.72l-6.78-.91a25.46,25.46,0,0,0-12.87,3.48l-5.16,4A25.36,25.36,0,0,0,402.9,1039c-4.28,30-8.78,60-9.42,90.33a276.79,276.79,0,0,0,1.89,40.4c1.72,13.62,4,27.07,7.91,40.24a204.25,204.25,0,0,0,15.42,37.54,165.2,165.2,0,0,0,23.42,32.93,126.49,126.49,0,0,0,12.63,12.09,196,196,0,0,0,19.18,14.25c11.92,7.66,24.9,13.5,38.09,18.59,24.85,9.6,51.24,14.3,77.47,18.3l9.89,1.48a19.24,19.24,0,0,0,10.17.46,18.9,18.9,0,0,0,9.48-3,28.52,28.52,0,0,0,11.72-15.24l.91-6.77a25.36,25.36,0,0,0-3.48-12.87l-4-5.17a25.43,25.43,0,0,0-11.25-6.55Z"/><path d="M435.54,1130.94a300.79,300.79,0,0,1,42.95-22.37l-6.09,2.57a303.44,303.44,0,0,1,59.76-18.21q8.65-1.68,17.39-2.85l-6.78.91q9.84-1.31,19.73-2a26.18,26.18,0,0,0,25.5-25.5l-.91-6.77a25.48,25.48,0,0,0-6.56-11.26l-5.16-4A25.43,25.43,0,0,0,562.5,1038a323.12,323.12,0,0,0-124,33,297.38,297.38,0,0,0-28.7,15.92,24.54,24.54,0,0,0-12.17,25.4,19,19,0,0,0,3,9.49l4,5.16a25.43,25.43,0,0,0,11.25,6.55l6.78.92a25.37,25.37,0,0,0,12.87-3.49Z"/><path d="M612.94,1345.18c26.71-4,53.61-8.09,79.26-16.83a228.34,228.34,0,0,0,38.63-17,149.55,149.55,0,0,0,15.19-9.81,181.33,181.33,0,0,0,18.46-15.18,129,129,0,0,0,11.43-12.63,168.89,168.89,0,0,0,30.58-55.88,198.46,198.46,0,0,0,8.39-33.36,296.57,296.57,0,0,0,4-45.11c.29-30.22-3.83-60.27-8-90.13q-.72-5.12-1.45-10.23a28.49,28.49,0,0,0-11.72-15.24,18.92,18.92,0,0,0-9.48-3,19.34,19.34,0,0,0-10.17.45c-6.17,2-12.12,5.82-15.24,11.72l-2.57,6.09a25.78,25.78,0,0,0,0,13.56q1.54,10.77,3,21.56l-.91-6.78c3.67,27.44,6.54,55.14,5.25,82.85-.33,7.13-.94,14.24-1.89,21.31l.92-6.78a196.74,196.74,0,0,1-13.32,49.94l2.57-6.09a149.86,149.86,0,0,1-19.21,33.19l4-5.16a130.33,130.33,0,0,1-22.95,22.92l5.16-4a164.49,164.49,0,0,1-36.6,21l6.1-2.57c-22.88,9.59-47.26,14.77-71.66,18.76-7.1,1.16-14.21,2.23-21.33,3.29a26.27,26.27,0,0,0-17.81,31.36c2,6.17,5.82,12.13,11.72,15.24l6.09,2.57a25.58,25.58,0,0,0,13.56,0Z"/><path d="M802.52,1086.91a333.75,333.75,0,0,0-57.62-28.42,302.41,302.41,0,0,0-56.16-15.66,364.08,364.08,0,0,0-38.92-4.81,26.19,26.19,0,0,0-25.5,25.5l.91,6.78a25.54,25.54,0,0,0,6.56,11.26l5.16,4a25.27,25.27,0,0,0,12.87,3.48q9.88.66,19.73,2l-6.78-.91a302.62,302.62,0,0,1,60.72,14.68q8.31,3,16.43,6.38l-6.09-2.57a300.79,300.79,0,0,1,42.95,22.37,18.84,18.84,0,0,0,9.48,3,26.18,26.18,0,0,0,25.4-12.17l2.57-6.1a25.54,25.54,0,0,0,0-13.55l-2.57-6.09a25.45,25.45,0,0,0-9.14-9.15Z"/></svg>