<svg id="Layer_1" data-name="Layer 1" xmlns="http://www.w3.org/2000/svg" viewBox="0 0 1242 2208"><defs><style>.cls-1{fill:#f6eabe;}.cls-2{fill:#999;}.cls-3,.cls-4{fill:none;}.cls-4{stroke:#000;stroke-linecap:round;stroke-miterlimit:10;stroke-width:50px;}</style></defs><rect class="cls-1" width="1242" height="2208"/><path d="M655.14,191.82c0,139,18.26,440.67,332.68,627.26-11.91,9.52-33.34,31.75-42.08,44.46-201.67-122.28-285.83-300.13-320-451C566.21,623,465.38,769.85,303.4,864.33c-9.52-10.32-32.55-32.55-46.84-42.08C433.62,730.15,532.87,569,582.09,343.47l31,4.77c-5.56-38.11-8.73-73.05-10.32-104H405.83V191.82Z"/><rect class="cls-2" x="1113" y="450" width="65" height="126" rx="12"/><path class="cls-1" d="M1132.7,479.82c1.25,1.6,4.9,6.7,5.7,8.05l-2,2.45c-.7-1.5-2.35-4.4-3.75-6.65V510h-3.15V485.57c-1.5,5.05-3.5,9.9-5.55,12.85a14.83,14.83,0,0,0-1.75-3.1c2.9-4,5.8-11.5,7.2-18h-6.2v-3.15h6.3v-9.65h3.15v9.65h5.45v3.15h-5.45Zm19.1.7a19.47,19.47,0,0,0,.45,2.65c-10.15,2.7-11.6,3.15-12.5,3.75a12.13,12.13,0,0,0-1.1-3.2c.7-.2,1.55-.5,1.55-2.2v-16.7h3.25v6.5h8.35v2.9h-8.35v8.3Zm2.35,5.5-2,3.75h12.65V510h-3.4v-1.75h-17v2h-3.3V489.77h7.9c.55-1.5,1.2-3.25,1.55-4.6Zm7.3,6.5h-17v5.05h17Zm0,13v-5.3h-17v5.3Zm2.25-22.4c1.25,0,1.5-.75,1.65-5.25a9.16,9.16,0,0,0,2.85,1.25c-.3,5.45-1.2,6.95-4.15,6.95h-5.85c-3.65,0-4.55-.95-4.55-4.45V464.87h3.25v6.5h10.2v2.9h-10.2v7.35c0,1.3.25,1.5,1.65,1.5Z"/><path class="cls-1" d="M1167.55,539.87v2.5H1123.4v-2.5h20.25v-3.2H1126.8v-2.3h16.85v-3H1128.2v-2.25h15.45v-3.2H1123.5v-2.5h20.15v-3H1128.8V518h14.85v-3.55h3.25V518h14.45v5.4h6.15v2.5h-6.15v5.45H1146.9v3h17.3v2.3h-17.3v3.2Zm-37.75,5h31.75v15.25h-3.25v-1.6H1133v1.7h-3.2Zm3.2,2.4v3.2h25.3v-3.2Zm25.3,8.85v-3.4H1133v3.4Zm-11.4-32.7h11.15v-3H1146.9Zm0,5.7h11.15v-3.2H1146.9Z"/><path d="M384.92,1841.69a98.85,98.85,0,0,1-6.18,13.56v39.59H374.9v-33.35a61.73,61.73,0,0,1-5.46,7,32.86,32.86,0,0,0-2.28-3.9c5.58-5.87,10.8-14.87,14-24Zm34.14,28c-2.1,1.26-4.44,2.64-6.84,3.78,2,6.06,5.82,11.82,10.38,14.52a11.2,11.2,0,0,0-2.64,2.94c-4.62-3.18-8.46-9.42-10.68-16a27.45,27.45,0,0,1-2.76,1.2c2.58,6.84,1.86,14-1,16.68a6.91,6.91,0,0,1-5.22,1.92c-1.08,0-2.4-.06-3.78-.18a9.31,9.31,0,0,0-1-3.42,38.26,38.26,0,0,0,4.14.24,3.66,3.66,0,0,0,3.12-1.14c1.56-1.38,2.22-5.16,1.44-9.36-5.16,4.92-13.08,9.36-19.8,11.7a15.8,15.8,0,0,0-2.34-2.82c7.62-2.28,16.62-7.14,21.3-12.24a35.76,35.76,0,0,0-1.5-3.48,63.52,63.52,0,0,1-17.22,9.9,16.14,16.14,0,0,0-2.22-2.64c5.94-1.8,13.74-5.76,17.88-9.54a16.39,16.39,0,0,0-2.94-3.18,58.44,58.44,0,0,1-13.56,7.26,11.26,11.26,0,0,0-2.22-2.58,52.48,52.48,0,0,0,15.06-7.56H386.48v-9.35c-1.14,1-2.28,2-3.54,2.94a9.54,9.54,0,0,0-2.52-2.59,44.59,44.59,0,0,0,13.86-16.25l3.84.72c-.6,1.2-1.32,2.34-2,3.54h11.1l.72-.18,2.34,1.68a52.13,52.13,0,0,1-4.8,6.84h13.08v12.65H400.94a15.29,15.29,0,0,1-1.2,1,21,21,0,0,1,5.64,6.84,111.93,111.93,0,0,0,10.92-6.42ZM394,1847.81a54.58,54.58,0,0,1-4.2,5.16h11.58a37.88,37.88,0,0,0,3.72-5.16Zm-3.9,14.69h10.5v-6.42h-10.5Zm24.72-6.42H404.18v6.42H414.8Z"/><path d="M482.36,1864.91v4.31H427.88v-4.31Z"/><path d="M503.3,1841.63a99.16,99.16,0,0,1-4.86,11.64V1895H494.6v-34.73a68.26,68.26,0,0,1-6.12,8.46,21.26,21.26,0,0,0-2.22-4c5.46-5.88,10.32-14.94,13.32-24.12Zm37,2.46v50.33h-3.78v-3.06H509.3v3.54h-3.72v-50.81Zm-3.78,43.73v-40.25H509.3v40.25Zm-11.82-28.13v6.83h7.08v16H514.58v-16h6.78v-6.83h-9.42v-3.19h9.42v-6.83h3.3v6.83h9.66v3.19Zm3.9,9.89H517.7v9.9h10.86Z"/><path d="M577.94,1874.68c4,9.24,12.18,14.76,24.48,16.74A14.71,14.71,0,0,0,600,1895c-12.48-2.46-20.58-8.22-25.14-18.3-3.12,8.64-9.48,15-24.54,18.24a11.88,11.88,0,0,0-2.16-3.36c14.7-3,20.46-8.88,23-16.86H548.48v-3.6h23.7c.42-2,.72-4.14,1-6.36h4.26a64.11,64.11,0,0,1-1,6.36h25.2v3.6Zm-13.08-27.89a60.2,60.2,0,0,1-12.12,17.46c-.72-.61-2.22-1.92-3.12-2.53a46.8,46.8,0,0,0,11.46-16Zm12,16.13h-4.14v-22.55h4.14Zm20.4.84c-2.28-4.5-7.68-11.39-12.72-16.31l3.24-1.74c5.1,4.74,10.68,11.46,13.08,16Z"/><path d="M632.54,1886.2c-8.52,2-17.46,4-24,5.34l-1-3.72c6.18-1.14,15.6-3.06,24.72-5Zm-.72-38.81h-23.4v-3.72h23.4Zm-1.44,21.9H610v-16h20.34Zm-16.44,14.45a41.62,41.62,0,0,0-2.34-11.28l3.24-.78a37.26,37.26,0,0,1,2.58,11.16Zm12.78-27h-13.2v9.23h13.2ZM622,1883.26a85,85,0,0,0,2.7-12.12l3.9,1c-1.08,4.07-2.4,8.93-3.54,12Zm22.5,3.9c-3.18,3.12-8.46,6.12-13.08,7.86a22.91,22.91,0,0,0-2.7-2.7c4.68-1.56,9.84-4.56,12.24-7.14Zm-.72-34.43c.48-1.86,1-4,1.26-5.94H633.44v-3.54h28.74v3.54H649.4c-.54,2-1.14,4.14-1.74,5.94H660.2v31H635.36v-31Zm12.66,3.18H639v6.17h17.4Zm0,9.11H639v6.24h17.4Zm0,9.3H639v6.24h17.4Zm-3.36,11.16a75.29,75.29,0,0,1,10.32,7.38l-3.24,2.16A66.38,66.38,0,0,0,650,1887.4Z"/><path d="M684,1841c-1,2.94-2.1,6.3-3.18,8.88H691v38.75h-16.8v4.8h-3.66v-43.55h6.66a64.68,64.68,0,0,0,2.58-9.72Zm3.3,12.47H674.18v13.08h13.14Zm0,31.56v-14.88H674.18v14.88Zm33.06-33.17c-1,27.53-1.8,36.71-4.2,39.59a5.6,5.6,0,0,1-4.56,2.28,74.94,74.94,0,0,1-8.82-.12,9.42,9.42,0,0,0-1.32-3.9c3.9.36,7.5.36,8.82.36s1.92-.12,2.52-.9c2-2.1,2.94-11.34,3.72-35.7H700.82a55.33,55.33,0,0,1-5.64,10.68,36.22,36.22,0,0,0-3.36-2.22c4.08-5.34,7.32-13.61,9.18-21.89l3.84.84c-.78,3-1.62,6-2.64,8.88h18.18Zm-12.78,27a106.51,106.51,0,0,0-9.3-13.92l3.06-1.79a102.47,102.47,0,0,1,9.6,13.61Z"/><path d="M760.34,1876.9c5.46,5.82,14.28,11.22,22.08,13.8a13.83,13.83,0,0,0-2.76,3.42,64.1,64.1,0,0,1-22.8-15.84V1895h-4v-16.5c-5.76,6.54-14.64,12.36-22.32,15.54a13.25,13.25,0,0,0-2.76-3.3,59.47,59.47,0,0,0,21.66-13.8h-15v-21.65h18.42v-5.34H729.2v-3.78h23.64v-5.7h4v5.7h24.3v3.78h-24.3v5.34H776.3v21.65Zm-22-12.36h14.52v-6H738.32Zm0,9.24h14.52v-6.18H738.32Zm18.54-15.29v6h15.42v-6Zm15.42,9.11H756.86v6.18h15.42Z"/><path d="M823.1,1848.23v9h15.18v37.31h-4V1891H796v3.78h-3.9v-37.55h14.58v-9H788.84v-3.84H841v3.84Zm11.16,39v-10.8h-9.18c-4.62,0-5.82-1.08-5.82-5.52v-10H810.2c-.3,6.35-2.52,13.37-11.58,17.93a12.32,12.32,0,0,0-2.34-2.94c8.16-4,10-9.65,10.32-15H796v26.33Zm-15-39h-9v9h9ZM823.1,1861v10c0,1.5.3,1.74,2.4,1.74h7.56a5.89,5.89,0,0,0,1.2-.06V1861Z"/><path d="M853.88,1876c4.68-2,7.26-4.86,7.56-9.17a4,4,0,0,1-1.14.11c-2.34,0-4.26-1.32-4.26-4.07a4,4,0,0,1,4.32-4.08c3.18,0,4.86,2.58,4.86,6.66,0,6.41-4,11.21-10.08,13.43Z"/><path d="M268.16,1941.94l-7.62,2.34v17.82c0,2.34-.6,3.42-2,4.08s-3.84.78-7.8.72a17,17,0,0,0-1.32-3.66c2.76.06,5.34.06,6.06,0s1.14-.24,1.14-1.14v-16.56l-8.4,2.58-1.26-3.95c2.64-.73,6-1.63,9.66-2.71v-13.07h-8.7v-3.84h8.7v-12.12h4v12.12h7v3.84h-7v11.87c2.34-.59,4.74-1.38,7.08-2.09Zm10.68-6.3c-5.52,0-7.26-1.73-7.26-6.72v-16.31h3.9v7.32h24.3v3.54h-24.3V1929c0,2.29.66,3.13,3.3,3.13h16.14a49.43,49.43,0,0,0,6.42-.37c.18,1.08.36,2.58.54,3.49a38.74,38.74,0,0,1-6.72.35Zm-7.26,5.34h28v25.74h-4v-2.52H275.36V1967h-3.78Zm3.78,3.48v6.36h20.22v-6.36Zm20.22,16.38v-6.72H275.36v6.72Z"/><path d="M323.24,1942.78a58,58,0,0,1-12.06,19.14,26,26,0,0,0-3.66-2.46,47,47,0,0,0,11.64-17.75Zm13.62-7.91v31.79h-4.14v-31.79H308.84v-4h52.5v4Zm19.2-14.22H314.18v-3.9h41.88Zm-5.16,20.93c4.5,5.58,9.24,13.14,11,18.24l-3.9,1.8c-1.74-5-6.3-12.78-10.8-18.48Z"/><path d="M385,1925.62a64.7,64.7,0,0,1-5.34,7.92v33.66H376v-29.28a74.28,74.28,0,0,1-7.14,6.78,29.45,29.45,0,0,0-2.34-3.48,58.73,58.73,0,0,0,15-16.85Zm-1.44-11.87a59.36,59.36,0,0,1-14.1,14.1,20.64,20.64,0,0,0-2.28-2.82c4.74-3.24,10.14-8.4,12.78-12.66Zm22.2,48.59a31.51,31.51,0,0,0,5.46.42c1.26.06,9.36,0,11.22,0a10.05,10.05,0,0,0-1.32,3.6H411c-9.06,0-15.3-2.22-19.14-11.4a26.48,26.48,0,0,1-7.26,11.82,28.42,28.42,0,0,0-3.12-2.52c6.18-5,8.4-13.2,8.94-24.3l3.84.3a74,74,0,0,1-1,8.88c1.86,6.78,4.86,10.38,8.88,12.12v-25.68h.48a25.66,25.66,0,0,0-2.88-2.21c6.12-4.45,9.48-11.64,10.8-20.94l3.84.48a50.08,50.08,0,0,1-2.4,9.72,78.36,78.36,0,0,1,10.74,10.62L419.9,1936a80.5,80.5,0,0,0-9.36-10,28.48,28.48,0,0,1-7.26,9.59h2.52v10.32h13.62v3.48H405.8Zm-5.22-30.84a61,61,0,0,0-6.18-6,36.85,36.85,0,0,1-7.92,11.34,19,19,0,0,0-3-2.76c5.64-4.85,9.24-12.59,11-21.71l3.9.6a60.12,60.12,0,0,1-2.64,9.3,60.56,60.56,0,0,1,6.78,6.12Z"/><path d="M453.5,1921.37l2.7.9c-3.18,23.45-12.6,37.43-25.2,44.51a12.79,12.79,0,0,0-3.24-3.24A41.15,41.15,0,0,0,445,1946a88.06,88.06,0,0,0-10.08-10.31,41.87,41.87,0,0,1-3.9,5.75,25,25,0,0,0-3.3-2.58c5.52-6.23,9.36-16.07,11.58-26.57l3.9.72c-.6,2.94-1.38,5.76-2.22,8.52h11.7Zm-13.8,4c-1,2.52-2,5-3.06,7.25a112.25,112.25,0,0,1,10.2,9.54,71.35,71.35,0,0,0,4.68-16.79Zm27.72,5.09c5.28,4,11.88,9.72,15.12,13.5l-3.18,2.76A112,112,0,0,0,465.92,1934V1967h-4.08v-54.59h4.08v19.25Z"/><path d="M516.62,1920.23c-.72,2.64-1.62,5.52-2.46,7.92h24.3V1967h-4v-3.18H495.38V1967h-3.9v-38.87h18.6a80.35,80.35,0,0,0,1.92-7.92H488.78v-3.78H541.4v3.78Zm-21.24,39.89h9v-28.25h-9Zm26-28.25H508v7h13.32Zm0,10.31H508v7.2h13.32ZM508,1960.12h13.32v-7.44H508Zm26.4-28.25H525v28.25h9.42Z"/><path d="M563.3,1941.71a51.8,51.8,0,0,1-4,13.55c4.08,6.36,11.7,7.26,22.92,7.32,6.24,0,14.76-.3,20.7-.78a13.29,13.29,0,0,0-1.38,3.84c-5.46.36-12.9.48-19.38.48-12.12,0-19.74-1.2-24.42-7.8a29,29,0,0,1-8,8.88,12.11,12.11,0,0,0-2.7-2.82c5.88-3.72,10.26-10.44,12.18-20.1h-6.78a6.58,6.58,0,0,0-3.54.84,26.54,26.54,0,0,0-1.56-3.72,5.35,5.35,0,0,0,2.88-1.73c1.44-1.45,5.28-6.55,7.92-10.21h-10v-3.29H560.6l.72-.3,2.7,1.25c-2.58,3.55-7.26,9.84-10.74,13.86h7.32l.72-.06Zm-5.4-17.88a93.47,93.47,0,0,0-7.56-9.6l2.94-1.8a98.72,98.72,0,0,1,7.68,9.18Zm10.86,6.66a52.59,52.59,0,0,1-4.8,6.42,26.78,26.78,0,0,0-2.4-3.07c4.86-5.22,9.24-13.13,12-21.11l3.36,1a90.45,90.45,0,0,1-3.6,8.64h12.3a56.34,56.34,0,0,0-4-8.1l3.36-1a58.91,58.91,0,0,1,4.62,9.06H600v3.36H586.88v6.48H598.4v3.24H586.88v6.53h11.58v3.24H586.88V1952H601.4v3.48H568.76Zm14.58-4.8h-11v6.48h11Zm0,9.72h-11v6.53h11Zm0,9.77h-11V1952h11Z"/><path d="M637.58,1916c0,10.5,1.38,33.29,25.14,47.39a21.09,21.09,0,0,0-3.18,3.36c-15.24-9.24-21.6-22.68-24.18-34.07-4.5,15.89-12.12,27-24.36,34.13a26.48,26.48,0,0,0-3.54-3.18c13.38-7,20.88-19.14,24.6-36.17l2.34.36c-.42-2.88-.66-5.52-.78-7.86H618.74v-4Z"/><path d="M717.68,1954.18a64.79,64.79,0,0,1-10,4.5,45,45,0,0,0,14.88,5.22,13,13,0,0,0-2.28,3.12c-11.16-2.34-20.4-7.8-25.44-16.14h-.54a48.5,48.5,0,0,1-8.94,5.1v6.72l15.48-2.58a13.86,13.86,0,0,0,.42,2.94c-16.56,3-19.26,3.66-20.58,4.2l-.24.18a25.13,25.13,0,0,0-2-3.36c1.14-.42,3.12-1.62,3.12-3.84v-2.64a80.29,80.29,0,0,1-11.88,3.54,29.44,29.44,0,0,0-2.16-2.82c7.14-1.32,15.66-4.08,21.42-7.44H668.36v-3.18H693v-3.24H672.44v-3H693v-3.17H675.62v-15h38.94v15h-17.7v3.17h20.58v3H696.86v3.24H721.7v3.18H698.84a27.5,27.5,0,0,0,6.24,6.12,91.7,91.7,0,0,0,10-5Zm3.24-34H669.2v-3.12h24.54a28,28,0,0,0-2-4l3.42-1a20.55,20.55,0,0,1,2.7,5h23.1Zm-41.52,9.35H693v-3.65H679.4Zm13.56,6.13V1932H679.4v3.72Zm17.7-9.78h-13.8v3.65h13.8Zm0,6.06h-13.8v3.72h13.8Z"/><path d="M756.62,1920.23c-.72,2.64-1.62,5.52-2.46,7.92h24.3V1967h-4v-3.18H735.38V1967h-3.9v-38.87h18.6a80.35,80.35,0,0,0,1.92-7.92H728.78v-3.78H781.4v3.78Zm-21.24,39.89h9v-28.25h-9Zm26-28.25H748v7h13.32Zm0,10.31H748v7.2h13.32ZM748,1960.12h13.32v-7.44H748Zm26.4-28.25H765v28.25h9.42Z"/><path d="M804,1913c-1,2.94-2.1,6.3-3.18,8.88H811v38.75h-16.8v4.8h-3.66v-43.55h6.66a64.68,64.68,0,0,0,2.58-9.72Zm3.3,12.47H794.18v13.08h13.14Zm0,31.56v-14.88H794.18v14.88Zm33.06-33.17c-1,27.53-1.8,36.71-4.2,39.59a5.6,5.6,0,0,1-4.56,2.28,74.94,74.94,0,0,1-8.82-.12,9.42,9.42,0,0,0-1.32-3.9c3.9.36,7.5.36,8.82.36s1.92-.12,2.52-.9c2-2.1,2.94-11.34,3.72-35.7H820.82a55.33,55.33,0,0,1-5.64,10.68,36.22,36.22,0,0,0-3.36-2.22c4.08-5.34,7.32-13.61,9.18-21.89l3.84.84c-.78,3-1.62,6-2.64,8.88h18.18Zm-12.78,27a106.51,106.51,0,0,0-9.3-13.92l3.06-1.79a102.47,102.47,0,0,1,9.6,13.61Z"/><path d="M870.26,1926.71c-.18,3.29-.48,6.59-.9,10h25.5s-.06,1.37-.12,2c-1.26,17-2.4,23.46-4.8,25.8-1.26,1.38-2.64,1.8-4.86,1.92a87,87,0,0,1-10-.24,9,9,0,0,0-1.38-3.84c4.26.36,8.46.42,10,.42a4,4,0,0,0,2.82-.72c1.74-1.56,2.88-7.44,4-21.48H868.76c-1.92,10.68-6.42,20.7-17.82,26.64a11.83,11.83,0,0,0-2.88-3.12c15.54-7.68,17.1-23.46,17.82-37.31H849.44v-3.84H900.8v3.84Zm5.64-4a74.52,74.52,0,0,0-4.2-9.18l3.84-1.5a65.56,65.56,0,0,1,4.26,8.94Z"/><path d="M959.12,1961.44c0,2.76-.66,4.14-2.64,4.86s-5.76.66-11.22.66a15.26,15.26,0,0,0-1.5-4.08c4.5.18,8.64.12,9.9.06s1.5-.36,1.5-1.5v-34.86h-40V1967h-4v-44.27h16.5a99,99,0,0,0,3.9-10.5l4.86.84c-1.38,3.18-2.94,6.78-4.44,9.66h27.12Zm-32.1-7v4.32h-3.66v-23.93H946.7v19.61Zm0-16v12.42h16v-12.42Z"/><path d="M980.18,1930.67a9.06,9.06,0,1,1-9.06,9A9.09,9.09,0,0,1,980.18,1930.67Zm0,15.23a6.18,6.18,0,1,0,0-12.36,6.18,6.18,0,1,0,0,12.36Z"/><path d="M326.9,2001.17c4.44,10.31,12.24,20,20.76,24.71a23.11,23.11,0,0,0-3.06,3.36c-9-5.58-16.92-16.32-21.6-28.07h-1v22.43h14.28v4H322V2039H317.9v-11.4H303.68v-4H317.9v-22.43h-1.08c-4.74,11.75-12.66,22.43-21.3,28.25a24.18,24.18,0,0,0-2.88-3.18c8-4.92,15.66-14.76,20.16-25.07H294.14v-4H317.9v-12.72H322v12.72h24v4Z"/><path d="M401.9,2023.54a33.64,33.64,0,0,1-8.22,7.38c2.4,2.82,5.22,4.44,8.16,4.38,1.68-.06,2.16-1.5,2.46-5.94a10.31,10.31,0,0,0,3.12,1.62c-.6,6.3-2.1,7.92-5.76,8-4.26,0-8.16-2.22-11.28-6a74.41,74.41,0,0,1-13.68,5.82,36.46,36.46,0,0,0-2.1-3.24,65.61,65.61,0,0,0,13.86-5.34,34.94,34.94,0,0,1-3.84-8.82H370.16v4.38l11.16-1-.06,2.88-11.1,1.08v6.12c0,2.1-.48,3.06-2.16,3.54s-4.38.54-8.94.54a19.42,19.42,0,0,0-1.26-3.18c3.36.12,6.48.06,7.38,0s1.2-.24,1.2-1v-5.7c-4.74.48-9.12.9-12.72,1.2l-.42-3.3c3.54-.24,8.1-.54,13.14-1v-4.68h-12.9v-3.18h12.9v-4.44c-3.78.42-7.68.72-11.28.91a12,12,0,0,0-.9-2.71c8.16-.48,18.18-1.55,23.52-2.94l2.52,2.58c-2.82.66-6.36,1.26-10.08,1.74v4.86h13.68a52.67,52.67,0,0,1-1.2-8.94h3.84a57.48,57.48,0,0,0,1.2,8.94h19v3.18H388.58a31.91,31.91,0,0,0,3.12,6.9,27.09,27.09,0,0,0,6.72-5.94Zm4.62-15.17h-53v-3.25H377.9V2001H359.3v-3.06h18.6v-4H356.06v-3.18h12.66a30,30,0,0,0-3.48-5.16l3.42-1.26a24.4,24.4,0,0,1,4.32,6.24l-.42.18H387.2a54.7,54.7,0,0,0,3.6-6.6l4.14,1.2c-1.2,1.86-2.52,3.84-3.72,5.4h12.84V1994H381.92v4h18.9V2001h-18.9v4.13h24.6Zm-5.7,9a34,34,0,0,0-9.48-5.52l2.16-2.46a38.32,38.32,0,0,1,9.66,5.22Z"/><path d="M442.46,2033.62a70.7,70.7,0,0,0,7.38.36c2.1.06,14.76,0,17.58-.06a16.36,16.36,0,0,0-1.44,3.84H449.72c-12.3,0-19.92-1.92-24.72-10.38a31.55,31.55,0,0,1-9.48,11.7,19.84,19.84,0,0,0-3.06-2.82c6.3-4.14,10.2-10.92,11.82-19.86l4,.6a55.92,55.92,0,0,1-1.5,6.06c2.34,5.64,6.3,8.52,11.7,9.84v-18.54H413.72v-3.6H466.4v3.6H442.46v7.08h20v3.6h-20Zm17.22-27.17h-39.6v-19.56h39.6Zm-4-16.44H424v5.16h31.68Zm0,8.1H424v5.27h31.68Z"/><path d="M488.3,2013.71a51.8,51.8,0,0,1-4,13.55c4.08,6.36,11.7,7.26,22.92,7.32,6.24,0,14.76-.3,20.7-.78a13.29,13.29,0,0,0-1.38,3.84c-5.46.36-12.9.48-19.38.48-12.12,0-19.74-1.2-24.42-7.8a29,29,0,0,1-8,8.88,12.11,12.11,0,0,0-2.7-2.82c5.88-3.72,10.26-10.44,12.18-20.1h-6.78a6.58,6.58,0,0,0-3.54.84,26.54,26.54,0,0,0-1.56-3.72,5.35,5.35,0,0,0,2.88-1.73c1.44-1.45,5.28-6.55,7.92-10.21h-10v-3.29H485.6l.72-.3,2.7,1.25c-2.58,3.55-7.26,9.84-10.74,13.86h7.32l.72-.06Zm-5.4-17.88a93.47,93.47,0,0,0-7.56-9.6l2.94-1.8a98.72,98.72,0,0,1,7.68,9.18Zm10.86,6.66a52.59,52.59,0,0,1-4.8,6.42,26.78,26.78,0,0,0-2.4-3.07c4.86-5.22,9.24-13.13,12-21.11l3.36,1a90.45,90.45,0,0,1-3.6,8.64h12.3a56.34,56.34,0,0,0-4-8.1l3.36-1a58.91,58.91,0,0,1,4.62,9.06H525v3.36H511.88v6.48H523.4v3.24H511.88v6.53h11.58v3.24H511.88V2024H526.4v3.48H493.76Zm14.58-4.8h-11v6.48h11Zm0,9.72h-11v6.53h11Zm0,9.77h-11V2024h11Z"/><path d="M561.86,2011.12c5.34,9.18,15.54,17.82,25.68,21.66a14.63,14.63,0,0,0-2.88,3.54c-8.46-3.72-16.86-10.74-22.8-18.78V2039h-4V2017.6a63.16,63.16,0,0,1-22.5,18.48,17.92,17.92,0,0,0-2.82-3.3,58.29,58.29,0,0,0,25.32-21.3v-14.75H534.56v-3.9h23.28v-8.4h4v8.4h24.06v3.9H561.86ZM549,1999a48.37,48.37,0,0,1-2.4,7.21,79.05,79.05,0,0,1,7,6.83l-2.76,2.71a66.48,66.48,0,0,0-5.88-6.07,32.44,32.44,0,0,1-7.74,9.6c-.66-.66-2.28-1.92-3.12-2.58,5.46-4.08,9.24-10.62,11-18.41Zm28.26,0a53.26,53.26,0,0,1-2.1,7.2,128,128,0,0,1,11,9.47l-2.82,2.76a100,100,0,0,0-9.72-8.93,28.54,28.54,0,0,1-5.46,7.49,22.47,22.47,0,0,0-3.36-2.22c4.44-3.72,7.26-9.6,8.58-16.43Z"/><path d="M598.88,2020c4.68-2,7.26-4.86,7.56-9.17a4,4,0,0,1-1.14.11c-2.34,0-4.26-1.32-4.26-4.07a4,4,0,0,1,4.32-4.08c3.18,0,4.86,2.58,4.86,6.66,0,6.41-4,11.21-10.08,13.43Z"/><path d="M677,2021.14v3.72H623.06v-3.72h6.12L628,1989.29a92.86,92.86,0,0,0,11-4.62l2,3.3c-2.76,1.2-6.24,2.4-9.36,3.42l.24,7.32h8.34v3.41h-8.22l.3,7.8h8.1v3.42h-8l.3,7.8H667.4c.12-2.22.3-4.8.42-7.56h-8.16v-3.41h8.28c.12-2.53.24-5.17.3-7.8H660V1999h8.34c.06-2.76.12-5.46.12-8h-8.94v-3.54h12.6c-.06,10.61-.36,25-.9,33.71Zm-32.88,7.32a91.72,91.72,0,0,1-17.82,10.38c-.54-.78-1.62-2.16-2.34-3,5.7-2.4,12.9-6.48,16.68-9.78Zm4.8-21.12a31.15,31.15,0,0,1-3.84,11.4,18.87,18.87,0,0,0-2.82-1.8c1.92-2.64,2.94-6.36,3.48-10.07Zm4.38-3.3h-9.66v-19.31h3.48v5.82h10V1994h-10v6.78h8.16v.06h1.5v16c0,1.74-.36,2.46-1.62,3.06s-3.36.48-6.24.48a10.13,10.13,0,0,0-1.08-2.82,42.8,42.8,0,0,0,4.68.06c.6,0,.78-.24.78-.78Zm4.86,21.84a139.83,139.83,0,0,1,17.46,9.78l-2.58,3a139.2,139.2,0,0,0-17.1-10Z"/><path d="M709,1987.49H694.22v35.15h-4v-38.87H709Z"/><path d="M763.4,2014.12v24.78h-4.32v-3.48H716.66v-21.3H721v17.4h16.8v-21.3H719.24v-20.33h4.14v16.44h14.4v-22h4.32v22h14.64v-16.5h4.32v20.39h-19v21.3h17v-17.4Z"/><path d="M771,2035.84h14.82v-35.15h4v38.87H771Z"/><path d="M817,2006.62c2,2.05,7.68,8.59,8.94,10.2l-2.52,3.24a96.69,96.69,0,0,0-6.42-8.88v27.66h-3.78v-29.58c-2.4,7.2-5.7,14.22-9.06,18.42a27.23,27.23,0,0,0-2.16-3.6c4.2-5,8.52-14.63,10.74-23.09h-9.42v-3.72h9.9v-13H817v13h8.76V2001H817Zm38.16-18.71v50.45h-3.9v-3.48h-19v3.66H828.5v-50.63Zm-22.86,3.78v10.5h19v-10.5Zm0,25h19v-10.8h-19Zm19,14.58V2020.3h-19v10.92Z"/><path d="M917.06,2004.34H911v29.52c0,2.64-.72,3.72-2.34,4.38s-4.44.84-9.3.78a17.68,17.68,0,0,0-1.5-3.78c3.72.12,7,.06,7.92.06s1.38-.36,1.38-1.38v-29.58H892.7v-3.65H862.94v-3.42h9.36v-12.9h3.3v12.9h4.92v-12.9h3.36v10.2a55.7,55.7,0,0,0,5.82-8.28l3.24,1.74a73.94,73.94,0,0,1-6.6,8.09l-2.46-1.43v2.58h9.24v3.3h14v-16H911v16h6.06Zm-37.08,26c4.14-.6,8.52-1.2,12.84-1.8l.12,3.54c-10.56,1.56-21.72,3.12-29.34,4.26l-.6-3.84c3.6-.42,8.16-1,13.2-1.68v-7.56h-9.6v-3.42h9.6v-6.48H864.92V2010h15.6a69.11,69.11,0,0,0,4.26-8.7l3.54,1.25c-1.32,2.53-2.76,5.22-4.08,7.45h7v3.41H880v6.48h10v3.42H880Zm-10.44-34.31a37.34,37.34,0,0,0-5.64-8.22l2.58-1.56a35.25,35.25,0,0,1,5.76,8Zm1.62,5A28.59,28.59,0,0,1,876,2008l-3,1.73a27,27,0,0,0-4.68-7.07ZM900,2024.26a50.17,50.17,0,0,0-5.46-13.8l3.36-1.2c2.58,4.38,5,10,5.64,13.62Z"/><path d="M935.18,2002.67a9.06,9.06,0,1,1-9.06,9A9.09,9.09,0,0,1,935.18,2002.67Zm0,15.23a6.18,6.18,0,1,0,0-12.36,6.18,6.18,0,1,0,0,12.36Z"/><rect class="cls-2" x="1113" y="1233" width="65" height="271" rx="12"/><path class="cls-1" d="M1158.05,1272.79a27.61,27.61,0,0,0,11.5,8.1,11.65,11.65,0,0,0-2.15,2.55,30.77,30.77,0,0,1-12.8-10.65h-15.95a34.39,34.39,0,0,1-13,11.3,11.43,11.43,0,0,0-2.15-2.55,30.39,30.39,0,0,0,11.6-8.75H1124v-2.85h10v-16.15h-7.7V1251h7.7v-5h3.3v5h18.55v-5h3.35v5h7.65v2.8h-7.65v16.15h9.8v2.85Zm-10,14.5h17.3v2.85H1127.8v-2.85h16.9v-5.6h-10.45v-2.8h10.45v-4.4h3.35v4.4h10.65v2.8h-10.65Zm-10.8-33.5v3.6h18.55v-3.6Zm0,9.8h18.55v-3.65h-18.55Zm0,6.35h18.55v-3.8h-18.55Z"/><path class="cls-1" d="M1142.25,1314.54s0,1.15,0,1.55c-.6,15.85-1.2,21.2-2.6,23a3.71,3.71,0,0,1-2.8,1.45,32.65,32.65,0,0,1-4.45,0,9.25,9.25,0,0,0-.85-3c1.75.15,3.2.15,3.9.15a1.42,1.42,0,0,0,1.45-.65c1-1.2,1.6-6,2.15-19.35h-6.8c-.55,10-2,18.25-6.45,23.65a9.53,9.53,0,0,0-2.55-2.35c5.45-6.45,5.9-17.85,6.1-31.55h-5.2v-3.1h20.1v3.1h-11.65c0,2.45-.1,4.85-.2,7.15Zm-7.9-10.45a33.47,33.47,0,0,0-4.25-7.15l2.9-1.15a31.92,31.92,0,0,1,4.4,7Zm23.85-7.45a15.26,15.26,0,0,1-.85,2.55c2.65,5.45,7.7,11.35,12.45,14a13,13,0,0,0-2.45,2.75c-4.25-2.7-8.5-8-11.4-13.3a32.61,32.61,0,0,1-11,13.6,12.79,12.79,0,0,0-2.35-2.65c5.85-3.6,10.35-10.2,12.5-17.85Zm-8.3,32.45a74,74,0,0,1,13.6,8.25l-2.25,2.9c-2.85-2.6-8.75-6.3-13.4-8.65Zm9.5-4.85a66.22,66.22,0,0,0-8.6-6.85l2.15-2.2a67.46,67.46,0,0,1,8.75,6.55Z"/><path class="cls-1" d="M1165,1349.19v29.3h-3.5v-2.55h-13.3v15.6h-3.45v-15.6h-13.4v2.75H1128v-29.5Zm-33.65,3.2V1361h13.4v-8.65Zm13.4,20.35v-8.5h-13.4v8.5Zm16.75-20.35h-13.3V1361h13.3Zm0,20.35v-8.5h-13.3v8.5Z"/><path class="cls-1" d="M1167.25,1411.09v9.3h-3.15V1414h-35.4v6.4h-3v-9.3h6.95v-12.95h27.7v12.95Zm-6.45,26.6c0,1.85-.45,2.7-1.85,3.2s-3.9.5-7.7.45a8.57,8.57,0,0,0-1.1-2.75c3,.05,5.65.05,6.4.05s1-.25,1-1v-6.2c-7.3,1.45-14.85,3-20.45,4l-1.1-3c5.4-.8,13.6-2.3,21.55-3.75V1420h-22.2v5.3c0,4.85-.65,11.55-4.35,16.2a13.29,13.29,0,0,0-2.7-2c3.45-4.25,3.85-10,3.85-14.25v-8h28.6Zm-25-26.6h7.45v-6.9H1157v-3.35h-21.2Zm2.45,11.7a75.14,75.14,0,0,1,17.7,3l-.9,2.6c-4-1.5-11.7-2.9-17.7-3.35Zm18.75-16.3h-10.75v4.6H1157Z"/><path class="cls-1" d="M1161,1458.09a51.83,51.83,0,0,1-12,19.6,49.94,49.94,0,0,0,20.5,10.5,16.79,16.79,0,0,0-2.25,3,50.92,50.92,0,0,1-20.75-11.1c-5.65,5-12.55,8.6-21,11.3a15.53,15.53,0,0,0-2-3.05c8.35-2.45,15.1-5.9,20.6-10.6a57.05,57.05,0,0,1-12.2-19.65h-7.75v-3.25h44.75v3.25Zm-25.75,0a52.13,52.13,0,0,0,11.3,17.3,47.46,47.46,0,0,0,10.7-17.3Zm11.25-3.55a38.13,38.13,0,0,0-3.8-7.8l3.4-1a39,39,0,0,1,4,7.65Z"/><line class="cls-3" x1="621" y1="364" x2="621" y2="364"/><line class="cls-4" x1="624" y1="1139" x2="288" y2="1611"/><line class="cls-4" x1="624" y1="1139" x2="960" y2="1611"/></svg>