<svg id="Layer_1" data-name="Layer 1" xmlns="http://www.w3.org/2000/svg" viewBox="0 0 1242 2208"><defs><style>.cls-1{fill:#f6eabe;}.cls-2{fill:#999;}.cls-3,.cls-4{fill:none;}.cls-4{stroke:#000;stroke-linecap:round;stroke-miterlimit:10;stroke-width:50px;}</style></defs><rect class="cls-1" width="1242" height="2208"/><path d="M917.25,780.46c0,35.73-8,53.2-33.35,61.93s-70.67,8.74-137.36,8.74c-2.38-14.3-9.53-38.91-18.26-53.2,52.4,1.59,102.42.79,118.3.79,13.5-.79,17.47-4.76,17.47-18.26V357.26H651.26c31,127.84,92.1,217.56,200.08,262.82C839.43,630.4,822,651,814,665.33,706.84,613.72,643.32,522.41,610,397c-33.35,126.25-100,216.76-209.61,272.34-7.94-11.91-23.82-31.76-35.73-41.28,110.36-54,176.26-140.54,204-270.76h-216V851.92H300.31V305.65h291.4A848.12,848.12,0,0,1,582.18,212H436.88V165.12h189c2.38,50,7.15,97.66,14.29,140.53H917.25Z"/><rect class="cls-2" x="1113" y="436" width="65" height="126" rx="12"/><path class="cls-1" d="M1132.7,465.82c1.25,1.6,4.9,6.7,5.7,8.05l-2,2.45c-.7-1.5-2.35-4.4-3.75-6.65V496h-3.15V471.57c-1.5,5.05-3.5,9.9-5.55,12.85a14.83,14.83,0,0,0-1.75-3.1c2.9-4,5.8-11.5,7.2-18h-6.2v-3.15h6.3v-9.65h3.15v9.65h5.45v3.15h-5.45Zm19.1.7a19.47,19.47,0,0,0,.45,2.65c-10.15,2.7-11.6,3.15-12.5,3.75a12.13,12.13,0,0,0-1.1-3.2c.7-.2,1.55-.5,1.55-2.2v-16.7h3.25v6.5h8.35v2.9h-8.35v8.3Zm2.35,5.5-2,3.75h12.65V496h-3.4v-1.75h-17v2h-3.3V475.77h7.9c.55-1.5,1.2-3.25,1.55-4.6Zm7.3,6.5h-17v5.05h17Zm0,13v-5.3h-17v5.3Zm2.25-22.4c1.25,0,1.5-.75,1.65-5.25a9.16,9.16,0,0,0,2.85,1.25c-.3,5.45-1.2,6.95-4.15,6.95h-5.85c-3.65,0-4.55-.95-4.55-4.45V450.87h3.25v6.5h10.2v2.9h-10.2v7.35c0,1.3.25,1.5,1.65,1.5Z"/><path class="cls-1" d="M1167.55,525.87v2.5H1123.4v-2.5h20.25v-3.2H1126.8v-2.3h16.85v-3H1128.2v-2.25h15.45v-3.2H1123.5v-2.5h20.15v-3.05H1128.8V504h14.85v-3.55h3.25V504h14.45v5.4h6.15v2.5h-6.15v5.45H1146.9v3h17.3v2.3h-17.3v3.2Zm-37.75,5h31.75v15.25h-3.25v-1.6H1133v1.7h-3.2Zm3.2,2.4v3.2h25.3v-3.2Zm25.3,8.85v-3.4H1133v3.4Zm-11.4-32.7h11.15v-3.05H1146.9Zm0,5.7h11.15v-3.2H1146.9Z"/><path d="M394,1846.49H379.22v35.15h-4v-38.87H394Z"/><path d="M449.48,1852.91v13.31H445.1v-9.47H404.78v9.47h-4.2v-13.31Zm-25.86-9.36a29.64,29.64,0,0,1,4.56,7.44l-4.08,1.68a33.91,33.91,0,0,0-4.26-7.62Z"/><path d="M456,1894.84h14.82v-35.15h4v38.87H456Z"/><path d="M511.16,1842.17l3.24,1.74c-7.08,7.26-11.28,16.2-11.28,26.76s4.2,19.49,11.28,26.75l-3.24,1.74c-7.32-7.5-11.94-17-11.94-28.49S503.84,1849.67,511.16,1842.17Z"/><path d="M534.92,1844.69a98.85,98.85,0,0,1-6.18,13.56v39.59H524.9v-33.35a61.73,61.73,0,0,1-5.46,7,32.86,32.86,0,0,0-2.28-3.9c5.58-5.87,10.8-14.87,14-24Zm34.14,28c-2.1,1.26-4.44,2.64-6.84,3.78,2,6.06,5.82,11.82,10.38,14.52a11.2,11.2,0,0,0-2.64,2.94c-4.62-3.18-8.46-9.42-10.68-16a27.45,27.45,0,0,1-2.76,1.2c2.58,6.84,1.86,14-1,16.68a6.91,6.91,0,0,1-5.22,1.92c-1.08,0-2.4-.06-3.78-.18a9.31,9.31,0,0,0-1-3.42,38.26,38.26,0,0,0,4.14.24,3.66,3.66,0,0,0,3.12-1.14c1.56-1.38,2.22-5.16,1.44-9.36-5.16,4.92-13.08,9.36-19.8,11.7a15.8,15.8,0,0,0-2.34-2.82c7.62-2.28,16.62-7.14,21.3-12.24a35.76,35.76,0,0,0-1.5-3.48,63.52,63.52,0,0,1-17.22,9.9,16.14,16.14,0,0,0-2.22-2.64c5.94-1.8,13.74-5.76,17.88-9.54a16.39,16.39,0,0,0-2.94-3.18,58.44,58.44,0,0,1-13.56,7.26,11.26,11.26,0,0,0-2.22-2.58,52.48,52.48,0,0,0,15.06-7.56H536.48v-9.35c-1.14,1-2.28,2-3.54,2.94a9.54,9.54,0,0,0-2.52-2.59,44.59,44.59,0,0,0,13.86-16.25l3.84.72c-.6,1.2-1.32,2.34-2,3.54h11.1l.72-.18,2.34,1.68a52.13,52.13,0,0,1-4.8,6.84h13.08v12.65H550.94a15.29,15.29,0,0,1-1.2,1,21,21,0,0,1,5.64,6.84,111.93,111.93,0,0,0,10.92-6.42ZM544,1850.81a54.58,54.58,0,0,1-4.2,5.16h11.58a37.88,37.88,0,0,0,3.72-5.16Zm-3.9,14.69h10.5v-6.42h-10.5Zm24.72-6.42H554.18v6.42H564.8Z"/><path d="M605.12,1876.54a37.63,37.63,0,0,1-1,4.92h21.36a12.7,12.7,0,0,1-.18,1.62c-.84,8.64-1.8,12.18-3.3,13.62a5.34,5.34,0,0,1-3.84,1.32,54.77,54.77,0,0,1-7.5-.12,8.14,8.14,0,0,0-1.08-3.42c3.06.3,6,.36,7.08.36a2.83,2.83,0,0,0,2.16-.54c1-.9,1.68-3.48,2.4-9.6H603.2c-2.34,6.18-6.9,10.68-16,13.44a10,10,0,0,0-2.22-3.06c11.82-3.24,15.06-9.66,16.26-18.54H587.66c-.78,7.5-2.7,15.72-7.2,21.72a15.56,15.56,0,0,0-2.94-2.7c6.12-8.46,6.72-20.28,6.72-29.15v-18.6c13.5-.84,29.52-2.34,38.22-4.38l3.18,3c-9.72,2.1-24.42,3.6-37.5,4.38v3.54h39.18v12.9H588.14c0,1.85-.06,3.89-.18,6H607.7a24.93,24.93,0,0,0-2.88-4.69l3.66-1.07a28.34,28.34,0,0,1,3.66,5.76h19.62v3.29Zm-17-19V1864h35.28v-6.37Z"/><path d="M647.72,1863c0,10.19-.84,25-6.9,35a16.38,16.38,0,0,0-3.48-2c5.88-9.72,6.42-23.27,6.42-33v-16.56h44v13.14H647.72Zm43.92,29.87v3.36h-45.3v-3.36h20.4V1886H651v-3.36h15.78v-5.52c-11.88.78-13.68,1-14.94,1.38a21.58,21.58,0,0,0-1.2-3.66,7.26,7.26,0,0,0,3.3-1.74,65.05,65.05,0,0,0,6.24-5.75H648.32v-3.3h41.34v3.3H665.3a82.06,82.06,0,0,1-7.68,6.89l21-1.14c-1.56-1.26-3.18-2.52-4.68-3.66l2.88-1.86A83.27,83.27,0,0,1,689.18,1878l-3.18,2.1a38.15,38.15,0,0,0-3.84-3.9l-11.58.72v5.76H686.9V1886H670.58v6.84Zm-43.92-43v6.36h36.06v-6.36Z"/><path d="M698.84,1899.16l-3.24-1.74c7.08-7.26,11.28-16.2,11.28-26.75s-4.2-19.5-11.28-26.76l3.24-1.74c7.32,7.5,11.94,17,11.94,28.5S706.16,1891.66,698.84,1899.16Z"/><path d="M748.16,1856.62a67.64,67.64,0,0,1-7.2,12.25v28.85h-4v-24a41.57,41.57,0,0,1-7.26,6.41,17,17,0,0,0-2-3.48c7-5,12.3-12.23,16.14-20H729v-3.83h16.44a65.25,65.25,0,0,0,3.3-9.42l4.08,1c-.9,2.82-1.86,5.64-3,8.4H781.1v3.83Zm32.94,36.24v3.72H745v-3.72h16v-17.52H747.32v-3.72H761v-11.81h4v11.81h13.8v3.72H765v17.52Z"/><path d="M813.5,1852.37l2.7.9c-3.18,23.45-12.6,37.43-25.2,44.51a12.79,12.79,0,0,0-3.24-3.24A41.15,41.15,0,0,0,805,1877a88.06,88.06,0,0,0-10.08-10.31,41.87,41.87,0,0,1-3.9,5.75,25,25,0,0,0-3.3-2.58c5.52-6.23,9.36-16.07,11.58-26.57l3.9.72c-.6,2.94-1.38,5.76-2.22,8.52h11.7Zm-13.8,4c-1,2.52-2,5-3.06,7.25a112.25,112.25,0,0,1,10.2,9.54,71.35,71.35,0,0,0,4.68-16.79Zm27.72,5.09c5.28,4,11.88,9.72,15.12,13.5l-3.18,2.76A112,112,0,0,0,825.92,1865V1898h-4.08v-54.59h4.08v19.25Z"/><path d="M853.88,1879c4.68-2,7.26-4.86,7.56-9.17a4,4,0,0,1-1.14.11c-2.34,0-4.26-1.32-4.26-4.07a4,4,0,0,1,4.32-4.08c3.18,0,4.86,2.58,4.86,6.66,0,6.41-4,11.21-10.08,13.43Z"/><path d="M214,1918.49H199.22v35.15h-4v-38.87H214Z"/><path d="M247.58,1919c0,10.5,1.38,33.29,25.14,47.39a21.09,21.09,0,0,0-3.18,3.36c-15.24-9.24-21.6-22.68-24.18-34.07-4.5,15.89-12.12,27-24.36,34.13a26.48,26.48,0,0,0-3.54-3.18c13.38-7,20.88-19.14,24.6-36.17l2.34.36c-.42-2.88-.66-5.52-.78-7.86H228.74v-4Z"/><path d="M276,1966.84h14.82v-35.15h4v38.87H276Z"/><path d="M331.16,1914.17l3.24,1.74c-7.08,7.26-11.28,16.2-11.28,26.76s4.2,19.49,11.28,26.75l-3.24,1.74c-7.32-7.5-11.94-17-11.94-28.49S323.84,1921.67,331.16,1914.17Z"/><path d="M358.16,1944.94l-7.62,2.34v17.82c0,2.34-.6,3.42-2,4.08s-3.84.78-7.8.72a17,17,0,0,0-1.32-3.66c2.76.06,5.34.06,6.06,0s1.14-.24,1.14-1.14v-16.56l-8.4,2.58-1.26-3.95c2.64-.73,6-1.63,9.66-2.71v-13.07h-8.7v-3.84h8.7v-12.12h4v12.12h7v3.84h-7v11.87c2.34-.59,4.74-1.38,7.08-2.09Zm10.68-6.3c-5.52,0-7.26-1.73-7.26-6.72v-16.31h3.9v7.32h24.3v3.54h-24.3V1932c0,2.29.66,3.13,3.3,3.13h16.14a49.43,49.43,0,0,0,6.42-.37c.18,1.08.36,2.58.54,3.49a38.74,38.74,0,0,1-6.72.35Zm-7.26,5.34h28v25.74h-4v-2.52H365.36V1970h-3.78Zm3.78,3.48v6.36h20.22v-6.36Zm20.22,16.38v-6.72H365.36v6.72Z"/><path d="M413.24,1945.78a58,58,0,0,1-12.06,19.14,26,26,0,0,0-3.66-2.46,47,47,0,0,0,11.64-17.75Zm13.62-7.91v31.79h-4.14v-31.79H398.84v-4h52.5v4Zm19.2-14.22H404.18v-3.9h41.88Zm-5.16,20.93c4.5,5.58,9.24,13.14,11,18.24l-3.9,1.8c-1.74-5-6.3-12.78-10.8-18.48Z"/><path d="M473.3,1944.71a51.8,51.8,0,0,1-4,13.55c4.08,6.36,11.7,7.26,22.92,7.32,6.24,0,14.76-.3,20.7-.78a13.29,13.29,0,0,0-1.38,3.84c-5.46.36-12.9.48-19.38.48-12.12,0-19.74-1.2-24.42-7.8a29,29,0,0,1-8,8.88,12.11,12.11,0,0,0-2.7-2.82c5.88-3.72,10.26-10.44,12.18-20.1h-6.78a6.58,6.58,0,0,0-3.54.84,26.54,26.54,0,0,0-1.56-3.72,5.35,5.35,0,0,0,2.88-1.73c1.44-1.45,5.28-6.55,7.92-10.21h-10v-3.29H470.6l.72-.3,2.7,1.25c-2.58,3.55-7.26,9.84-10.74,13.86h7.32l.72-.06Zm-5.4-17.88a93.47,93.47,0,0,0-7.56-9.6l2.94-1.8a98.72,98.72,0,0,1,7.68,9.18Zm10.86,6.66a52.59,52.59,0,0,1-4.8,6.42,26.78,26.78,0,0,0-2.4-3.07c4.86-5.22,9.24-13.13,12-21.11l3.36,1a90.45,90.45,0,0,1-3.6,8.64h12.3a56.34,56.34,0,0,0-4-8.1l3.36-1a58.91,58.91,0,0,1,4.62,9.06H510v3.36H496.88v6.48H508.4v3.24H496.88v6.53h11.58v3.24H496.88V1955H511.4v3.48H478.76Zm14.58-4.8h-11v6.48h11Zm0,9.72h-11v6.53h11Zm0,9.77h-11V1955h11Z"/><path d="M547.58,1919c0,10.5,1.38,33.29,25.14,47.39a21.09,21.09,0,0,0-3.18,3.36c-15.24-9.24-21.6-22.68-24.18-34.07-4.5,15.89-12.12,27-24.36,34.13a26.48,26.48,0,0,0-3.54-3.18c13.38-7,20.88-19.14,24.6-36.17l2.34.36c-.42-2.88-.66-5.52-.78-7.86H528.74v-4Z"/><path d="M605.12,1948.54a37.63,37.63,0,0,1-1,4.92h21.36a12.7,12.7,0,0,1-.18,1.62c-.84,8.64-1.8,12.18-3.3,13.62a5.34,5.34,0,0,1-3.84,1.32,54.77,54.77,0,0,1-7.5-.12,8.14,8.14,0,0,0-1.08-3.42c3.06.3,6,.36,7.08.36a2.83,2.83,0,0,0,2.16-.54c1-.9,1.68-3.48,2.4-9.6H603.2c-2.34,6.18-6.9,10.68-16,13.44a10,10,0,0,0-2.22-3.06c11.82-3.24,15.06-9.66,16.26-18.54H587.66c-.78,7.5-2.7,15.72-7.2,21.72a15.56,15.56,0,0,0-2.94-2.7c6.12-8.46,6.72-20.28,6.72-29.15v-18.6c13.5-.84,29.52-2.34,38.22-4.38l3.18,3c-9.72,2.1-24.42,3.6-37.5,4.38v3.54h39.18v12.9H588.14c0,1.85-.06,3.89-.18,6H607.7a24.93,24.93,0,0,0-2.88-4.69l3.66-1.07a28.34,28.34,0,0,1,3.66,5.76h19.62v3.29Zm-17-19V1936h35.28v-6.37Z"/><path d="M647.72,1935c0,10.19-.84,25-6.9,35a16.38,16.38,0,0,0-3.48-2c5.88-9.72,6.42-23.27,6.42-33v-16.56h44v13.14H647.72Zm43.92,29.87v3.36h-45.3v-3.36h20.4V1958H651v-3.36h15.78v-5.52c-11.88.78-13.68,1-14.94,1.38a21.58,21.58,0,0,0-1.2-3.66,7.26,7.26,0,0,0,3.3-1.74,65.05,65.05,0,0,0,6.24-5.75H648.32v-3.3h41.34v3.3H665.3a82.06,82.06,0,0,1-7.68,6.89l21-1.14c-1.56-1.26-3.18-2.52-4.68-3.66l2.88-1.86A83.27,83.27,0,0,1,689.18,1950l-3.18,2.1a38.15,38.15,0,0,0-3.84-3.9l-11.58.72v5.76H686.9V1958H670.58v6.84Zm-43.92-43v6.36h36.06v-6.36Z"/><path d="M714,1916c-1,2.94-2.1,6.3-3.18,8.88H721v38.75h-16.8v4.8h-3.66v-43.55h6.66a64.68,64.68,0,0,0,2.58-9.72Zm3.3,12.47H704.18v13.08h13.14Zm0,31.56v-14.88H704.18v14.88Zm33.06-33.17c-1,27.53-1.8,36.71-4.2,39.59a5.6,5.6,0,0,1-4.56,2.28,74.94,74.94,0,0,1-8.82-.12,9.42,9.42,0,0,0-1.32-3.9c3.9.36,7.5.36,8.82.36s1.92-.12,2.52-.9c2-2.1,2.94-11.34,3.72-35.7H730.82a55.33,55.33,0,0,1-5.64,10.68,36.22,36.22,0,0,0-3.36-2.22c4.08-5.34,7.32-13.61,9.18-21.89l3.84.84c-.78,3-1.62,6-2.64,8.88h18.18Zm-12.78,27a106.51,106.51,0,0,0-9.3-13.92l3.06-1.79a102.47,102.47,0,0,1,9.6,13.61Z"/><path d="M780.26,1929.71c-.18,3.29-.48,6.59-.9,10h25.5s-.06,1.37-.12,2c-1.26,17-2.4,23.46-4.8,25.8-1.26,1.38-2.64,1.8-4.86,1.92a87,87,0,0,1-10-.24,9,9,0,0,0-1.38-3.84c4.26.36,8.46.42,10,.42a4,4,0,0,0,2.82-.72c1.74-1.56,2.88-7.44,4-21.48H778.76c-1.92,10.68-6.42,20.7-17.82,26.64a11.83,11.83,0,0,0-2.88-3.12c15.54-7.68,17.1-23.46,17.82-37.31H759.44v-3.84H810.8v3.84Zm5.64-4a74.52,74.52,0,0,0-4.2-9.18l3.84-1.5a65.56,65.56,0,0,1,4.26,8.94Z"/><path d="M869.12,1964.44c0,2.76-.66,4.14-2.64,4.86s-5.76.66-11.22.66a15.26,15.26,0,0,0-1.5-4.08c4.5.18,8.64.12,9.9.06s1.5-.36,1.5-1.5v-34.86h-40V1970h-4v-44.27h16.5a99,99,0,0,0,3.9-10.5l4.86.84c-1.38,3.18-2.94,6.78-4.44,9.66h27.12Zm-32.1-7v4.32h-3.66v-23.93H856.7v19.61Zm0-16v12.42h16v-12.42Z"/><path d="M878.84,1971.16l-3.24-1.74c7.08-7.26,11.28-16.2,11.28-26.75s-4.2-19.5-11.28-26.76l3.24-1.74c7.32,7.5,11.94,17,11.94,28.5S886.16,1963.66,878.84,1971.16Z"/><path d="M928.16,1928.62a67.64,67.64,0,0,1-7.2,12.25v28.85h-4v-24a41.57,41.57,0,0,1-7.26,6.41,17,17,0,0,0-2-3.48c7-5,12.3-12.23,16.14-20H909v-3.83h16.44a65.25,65.25,0,0,0,3.3-9.42l4.08,1c-.9,2.82-1.86,5.64-3,8.4H961.1v3.83Zm32.94,36.24v3.72H925v-3.72h16v-17.52H927.32v-3.72H941v-11.81h4v11.81h13.8v3.72H945v17.52Z"/><path d="M1017.68,1957.18a64.79,64.79,0,0,1-10,4.5,45,45,0,0,0,14.88,5.22,13,13,0,0,0-2.28,3.12c-11.16-2.34-20.4-7.8-25.44-16.14h-.54a48.5,48.5,0,0,1-8.94,5.1v6.72l15.48-2.58a13.86,13.86,0,0,0,.42,2.94c-16.56,3-19.26,3.66-20.58,4.2l-.24.18a25.13,25.13,0,0,0-2-3.36c1.14-.42,3.12-1.62,3.12-3.84v-2.64a80.29,80.29,0,0,1-11.88,3.54,29.44,29.44,0,0,0-2.16-2.82c7.14-1.32,15.66-4.08,21.42-7.44H968.36v-3.18H993v-3.24H972.44v-3H993v-3.17H975.62v-15h38.94v15h-17.7v3.17h20.58v3H996.86v3.24h24.84v3.18H998.84a27.5,27.5,0,0,0,6.24,6.12,91.7,91.7,0,0,0,10-5Zm3.24-34H969.2v-3.12h24.54a28,28,0,0,0-2-4l3.42-1a20.55,20.55,0,0,1,2.7,5h23.1Zm-41.52,9.35H993v-3.65H979.4Zm13.56,6.13V1935H979.4v3.72Zm17.7-9.78h-13.8v3.65h13.8Zm0,6.06h-13.8v3.72h13.8Z"/><path d="M1040.18,1933.67a9.06,9.06,0,1,1-9.06,9A9.09,9.09,0,0,1,1040.18,1933.67Zm0,15.23a6.18,6.18,0,0,0,0-12.36,6.18,6.18,0,0,0,0,12.36Z"/><path d="M206.9,2004.17c4.44,10.31,12.24,20,20.76,24.71a23.11,23.11,0,0,0-3.06,3.36c-9-5.58-16.92-16.32-21.6-28.07h-1v22.43h14.28v4H202V2042H197.9v-11.4H183.68v-4H197.9v-22.43h-1.08c-4.74,11.75-12.66,22.43-21.3,28.25a24.18,24.18,0,0,0-2.88-3.18c8-4.92,15.66-14.76,20.16-25.07H174.14v-4H197.9v-12.72H202v12.72h24v4Z"/><path d="M281.9,2026.54a33.64,33.64,0,0,1-8.22,7.38c2.4,2.82,5.22,4.44,8.16,4.38,1.68-.06,2.16-1.5,2.46-5.94a10.31,10.31,0,0,0,3.12,1.62c-.6,6.3-2.1,7.92-5.76,8-4.26,0-8.16-2.22-11.28-6a74.41,74.41,0,0,1-13.68,5.82,36.46,36.46,0,0,0-2.1-3.24,65.61,65.61,0,0,0,13.86-5.34,34.94,34.94,0,0,1-3.84-8.82H250.16v4.38l11.16-1-.06,2.88-11.1,1.08v6.12c0,2.1-.48,3.06-2.16,3.54s-4.38.54-8.94.54a19.42,19.42,0,0,0-1.26-3.18c3.36.12,6.48.06,7.38,0s1.2-.24,1.2-1v-5.7c-4.74.48-9.12.9-12.72,1.2l-.42-3.3c3.54-.24,8.1-.54,13.14-1v-4.68h-12.9v-3.18h12.9v-4.44c-3.78.42-7.68.72-11.28.91a12,12,0,0,0-.9-2.71c8.16-.48,18.18-1.55,23.52-2.94l2.52,2.58c-2.82.66-6.36,1.26-10.08,1.74v4.86h13.68a52.67,52.67,0,0,1-1.2-8.94h3.84a57.48,57.48,0,0,0,1.2,8.94h19v3.18H268.58a31.91,31.91,0,0,0,3.12,6.9,27.09,27.09,0,0,0,6.72-5.94Zm4.62-15.17h-53v-3.25H257.9V2004H239.3v-3.06h18.6v-4H236.06v-3.18h12.66a30,30,0,0,0-3.48-5.16l3.42-1.26a24.4,24.4,0,0,1,4.32,6.24l-.42.18H267.2a54.7,54.7,0,0,0,3.6-6.6l4.14,1.2c-1.2,1.86-2.52,3.84-3.72,5.4h12.84V1997H261.92v4h18.9V2004h-18.9v4.13h24.6Zm-5.7,9a34,34,0,0,0-9.48-5.52l2.16-2.46a38.32,38.32,0,0,1,9.66,5.22Z"/><path d="M322.46,2036.62a70.7,70.7,0,0,0,7.38.36c2.1.06,14.76,0,17.58-.06a16.36,16.36,0,0,0-1.44,3.84H329.72c-12.3,0-19.92-1.92-24.72-10.38a31.55,31.55,0,0,1-9.48,11.7,19.84,19.84,0,0,0-3.06-2.82c6.3-4.14,10.2-10.92,11.82-19.86l4,.6a55.92,55.92,0,0,1-1.5,6.06c2.34,5.64,6.3,8.52,11.7,9.84v-18.54H293.72v-3.6H346.4v3.6H322.46v7.08h20v3.6h-20Zm17.22-27.17h-39.6v-19.56h39.6Zm-4-16.44H304v5.16h31.68Zm0,8.1H304v5.27h31.68Z"/><path d="M368.3,2016.71a51.8,51.8,0,0,1-4,13.55c4.08,6.36,11.7,7.26,22.92,7.32,6.24,0,14.76-.3,20.7-.78a13.29,13.29,0,0,0-1.38,3.84c-5.46.36-12.9.48-19.38.48-12.12,0-19.74-1.2-24.42-7.8a29,29,0,0,1-8,8.88,12.11,12.11,0,0,0-2.7-2.82c5.88-3.72,10.26-10.44,12.18-20.1h-6.78a6.58,6.58,0,0,0-3.54.84,26.54,26.54,0,0,0-1.56-3.72,5.35,5.35,0,0,0,2.88-1.73c1.44-1.45,5.28-6.55,7.92-10.21h-10v-3.29H365.6l.72-.3,2.7,1.25c-2.58,3.55-7.26,9.84-10.74,13.86h7.32l.72-.06Zm-5.4-17.88a93.47,93.47,0,0,0-7.56-9.6l2.94-1.8a98.72,98.72,0,0,1,7.68,9.18Zm10.86,6.66a52.59,52.59,0,0,1-4.8,6.42,26.78,26.78,0,0,0-2.4-3.07c4.86-5.22,9.24-13.13,12-21.11l3.36,1a90.45,90.45,0,0,1-3.6,8.64h12.3a56.34,56.34,0,0,0-4-8.1l3.36-1a58.91,58.91,0,0,1,4.62,9.06H405v3.36H391.88v6.48H403.4v3.24H391.88v6.53h11.58v3.24H391.88V2027H406.4v3.48H373.76Zm14.58-4.8h-11v6.48h11Zm0,9.72h-11v6.53h11Zm0,9.77h-11V2027h11Z"/><path d="M442.58,1991c0,10.5,1.38,33.29,25.14,47.39a21.09,21.09,0,0,0-3.18,3.36c-15.24-9.24-21.6-22.68-24.18-34.07-4.5,15.89-12.12,27-24.36,34.13a26.48,26.48,0,0,0-3.54-3.18c13.38-7,20.88-19.14,24.6-36.17l2.34.36c-.42-2.88-.66-5.52-.78-7.86H423.74v-4Z"/><path d="M482.72,2007c0,10.19-.84,25-6.9,35a16.38,16.38,0,0,0-3.48-2c5.88-9.72,6.42-23.27,6.42-33v-16.56h44v13.14H482.72Zm43.92,29.87v3.36h-45.3v-3.36h20.4V2030H486v-3.36h15.78v-5.52c-11.88.78-13.68,1-14.94,1.38a21.58,21.58,0,0,0-1.2-3.66,7.26,7.26,0,0,0,3.3-1.74,65.05,65.05,0,0,0,6.24-5.75H483.32v-3.3h41.34v3.3H500.3a82.06,82.06,0,0,1-7.68,6.89l21-1.14c-1.56-1.26-3.18-2.52-4.68-3.66l2.88-1.86A83.27,83.27,0,0,1,524.18,2022l-3.18,2.1a38.15,38.15,0,0,0-3.84-3.9l-11.58.72v5.76H521.9V2030H505.58v6.84Zm-43.92-43v6.36h36.06v-6.36Z"/><path d="M583.52,2036.56c0,2.7-.6,4-2.52,4.68s-5.34.66-10.38.66a13.34,13.34,0,0,0-1.38-4c4,.12,7.74.06,8.94.06,1-.06,1.32-.36,1.32-1.38v-32H563.42c2.34,9.67,7,16.44,15.12,19.86a15.59,15.59,0,0,0-2.82,3.42c-8.1-3.9-12.9-10.8-15.42-20.28-2.52,9.54-7.56,16.38-15.84,20.58a16.53,16.53,0,0,0-2.7-3.12c8.34-4.08,13.32-10.62,15.42-20.46H540.86V2042h-4v-41.27h22a64.19,64.19,0,0,1-.72-7.08h-11v-3.54H561.5a92,92,0,0,0,1.08,10.62h20.94Z"/><path d="M598.88,2023c4.68-2,7.26-4.86,7.56-9.17a4,4,0,0,1-1.14.11c-2.34,0-4.26-1.32-4.26-4.07a4,4,0,0,1,4.32-4.08c3.18,0,4.86,2.58,4.86,6.66,0,6.41-4,11.21-10.08,13.43Z"/><path d="M652.7,2017.06s-.06,1.32-.12,1.86c-1.08,13.56-2.1,18.84-4.08,20.82-1.26,1.32-2.46,1.68-4.56,1.8a90.37,90.37,0,0,1-9.48-.18,8,8,0,0,0-1.44-4c4,.36,8,.36,9.48.36s2-.06,2.58-.6c1.5-1.2,2.4-5.7,3.3-16.32h-22.8c1.14-4.56,2.46-11.63,3.24-17.09H648.5v-10.08h-22v-3.78H652.4v17.58H632.3c-.6,3.3-1.2,6.71-1.86,9.65Zm18.36-29.15V2042h-4v-54.11Z"/><path d="M733.28,1995.23v33.29H729.2v-3.18H711.92v16.5h-4.14v-16.5H691v3.54h-4v-33.65h20.76v-7.92h4.14v7.92Zm-42.3,3.84v9.18h16.8v-9.18Zm16.8,22.49V2012H691v9.6Zm4.14-22.49v9.18H729.2v-9.18Zm17.28,22.49V2012H711.92v9.6Z"/><path d="M795.74,2019.17s-.06,1.19-.12,1.73c-1.14,12.66-2.28,17.64-4.14,19.56a5.52,5.52,0,0,1-4,1.56,66.58,66.58,0,0,1-7.5-.12,9.39,9.39,0,0,0-1.2-3.66c3.12.3,6.06.3,7.2.3a3,3,0,0,0,2.22-.54c1.26-1.32,2.4-5.34,3.36-15.3H754a59.21,59.21,0,0,1-9.66,7.32,19.86,19.86,0,0,0-2.22-3.3c10.26-6,17.82-15.18,23.1-25.43h-20v-3.66H767a82.29,82.29,0,0,0,3.84-10.32l3.9,1a92.32,92.32,0,0,1-3.54,9.3H787c-.72,3.48-1.56,7.62-2.34,10.74h7c-.66,3.47-1.5,7.67-2.28,10.8Zm-49.38,20.33c3.42-3.24,5.7-8.58,7-13.2l3.3,1.08c-1.44,4.92-3.54,10.62-7.14,14.16Zm12.42-42.17a39,39,0,0,0-6-8.34l3.42-1.44a39.57,39.57,0,0,1,6.18,8Zm26.82,21.84c.54-2.11,1.08-4.69,1.56-7.21H763.34a75.18,75.18,0,0,1-5.76,7.21Zm-21.48,7.91a44,44,0,0,1,1.8,11.88l-3.48.54a39.57,39.57,0,0,0-1.62-11.94Zm5.4-25.79c-1.14,2.4-2.46,4.79-3.84,7.08h15.24c.54-2,1.14-4.62,1.62-7.08Zm3.18,25a43,43,0,0,1,3.6,10.26l-3.3.9a45.91,45.91,0,0,0-3.42-10.44Zm10.32,8a38.83,38.83,0,0,0-4.56-8.1l2.76-1.08a34.18,34.18,0,0,1,4.74,7.86Z"/><path d="M853.52,2036.56c0,2.7-.6,4-2.52,4.68s-5.34.66-10.38.66a13.34,13.34,0,0,0-1.38-4c4,.12,7.74.06,8.94.06,1-.06,1.32-.36,1.32-1.38v-32H833.42c2.34,9.67,7,16.44,15.12,19.86a15.59,15.59,0,0,0-2.82,3.42c-8.1-3.9-12.9-10.8-15.42-20.28-2.52,9.54-7.56,16.38-15.84,20.58a16.53,16.53,0,0,0-2.7-3.12c8.34-4.08,13.32-10.62,15.42-20.46H810.86V2042h-4v-41.27h22a64.19,64.19,0,0,1-.72-7.08h-11v-3.54H831.5a92,92,0,0,0,1.08,10.62h20.94Z"/><path d="M888.5,1996.37l2.7.9c-3.18,23.45-12.6,37.43-25.2,44.51a12.79,12.79,0,0,0-3.24-3.24A41.15,41.15,0,0,0,880,2021a88.06,88.06,0,0,0-10.08-10.31,41.87,41.87,0,0,1-3.9,5.75,25,25,0,0,0-3.3-2.58c5.52-6.23,9.36-16.07,11.58-26.57l3.9.72c-.6,2.94-1.38,5.76-2.22,8.52h11.7Zm-13.8,4c-1,2.52-2,5-3.06,7.25a112.25,112.25,0,0,1,10.2,9.54,71.35,71.35,0,0,0,4.68-16.79Zm27.72,5.09c5.28,4,11.88,9.72,15.12,13.5l-3.18,2.76A112,112,0,0,0,900.92,2009V2042h-4.08v-54.59h4.08v19.25Z"/><path d="M971.6,2001.11c-7.38,10.91-20.82,23.51-33.18,31,.6.42,1.26.84,1.92,1.32,3.78,2.4,8.64,2.82,15.36,2.82,7.14,0,16-.48,21.72-1a17.18,17.18,0,0,0-1.14,4.26c-4.5.3-15,.66-20.7.66-7.26,0-12.18-.66-16.14-3.24-2.4-1.5-4.26-3.48-5.58-3.48-1.92,0-4.74,3.42-7.68,7.38l-3-3.6c4-4.26,7.74-7.5,10.74-7.5a4.63,4.63,0,0,1,.9.12c11-6.36,23.22-17.39,30-26.63H926.3v-3.9h41.46l.84-.24ZM951.5,1999a70.73,70.73,0,0,0-6.3-10l3.48-1.8a70.87,70.87,0,0,1,6.42,9.78Z"/><path d="M1033.52,2036.56c0,2.7-.6,4-2.52,4.68s-5.34.66-10.38.66a13.34,13.34,0,0,0-1.38-4c4,.12,7.74.06,8.94.06,1-.06,1.32-.36,1.32-1.38v-32h-16.08c2.34,9.67,7,16.44,15.12,19.86a15.59,15.59,0,0,0-2.82,3.42c-8.1-3.9-12.9-10.8-15.42-20.28-2.52,9.54-7.56,16.38-15.84,20.58a16.53,16.53,0,0,0-2.7-3.12c8.34-4.08,13.32-10.62,15.42-20.46H990.86V2042h-4v-41.27h22a64.19,64.19,0,0,1-.72-7.08h-11v-3.54h14.28a92,92,0,0,0,1.08,10.62h20.94Z"/><path d="M1055.18,2005.67a9.06,9.06,0,1,1-9.06,9A9.09,9.09,0,0,1,1055.18,2005.67Zm0,15.23a6.18,6.18,0,0,0,0-12.36,6.18,6.18,0,0,0,0,12.36Z"/><line class="cls-3" x1="621" y1="350" x2="621" y2="350"/><line class="cls-4" x1="607.83" y1="1251.06" x2="422.83" y2="1510.94"/><line class="cls-4" x1="607.83" y1="1251.06" x2="792.83" y2="1510.94"/><line class="cls-4" x1="610" y1="1045.83" x2="935" y2="1295.83"/><line class="cls-4" x1="865" y1="1244.83" x2="865" y2="1681.83"/><line class="cls-4" x1="610" y1="1045.83" x2="285" y2="1295.83"/><line class="cls-4" x1="355" y1="1244.83" x2="355" y2="1681.83"/><rect class="cls-2" x="1113" y="1257" width="65" height="220" rx="12"/><path class="cls-1" d="M1157.05,1295.79a27.61,27.61,0,0,0,11.5,8.1,11.65,11.65,0,0,0-2.15,2.55,30.77,30.77,0,0,1-12.8-10.65h-15.95a34.39,34.39,0,0,1-13,11.3,11.43,11.43,0,0,0-2.15-2.55,30.39,30.39,0,0,0,11.6-8.75H1123v-2.85h10v-16.15h-7.7V1274h7.7v-5h3.3v5h18.55v-5h3.35v5h7.65v2.8h-7.65v16.15h9.8v2.85Zm-10,14.5h17.3v2.85H1126.8v-2.85h16.9v-5.6h-10.45v-2.8h10.45v-4.4h3.35v4.4h10.65v2.8h-10.65Zm-10.8-33.5v3.6h18.55v-3.6Zm0,9.8h18.55v-3.65h-18.55Zm0,6.35h18.55v-3.8h-18.55Z"/><path class="cls-1" d="M1141.25,1337.54s0,1.15,0,1.55c-.6,15.85-1.2,21.2-2.6,23a3.71,3.71,0,0,1-2.8,1.45,32.65,32.65,0,0,1-4.45,0,9.25,9.25,0,0,0-.85-3c1.75.15,3.2.15,3.9.15a1.42,1.42,0,0,0,1.45-.65c1-1.2,1.6-6,2.15-19.35h-6.8c-.55,10-2,18.25-6.45,23.65a9.53,9.53,0,0,0-2.55-2.35c5.45-6.45,5.9-17.85,6.1-31.55h-5.2v-3.1h20.1v3.1h-11.65c0,2.45-.1,4.85-.2,7.15Zm-7.9-10.45a33.47,33.47,0,0,0-4.25-7.15l2.9-1.15a31.92,31.92,0,0,1,4.4,7Zm23.85-7.45a15.26,15.26,0,0,1-.85,2.55c2.65,5.45,7.7,11.35,12.45,14a13,13,0,0,0-2.45,2.75c-4.25-2.7-8.5-8-11.4-13.3a32.61,32.61,0,0,1-11,13.6,12.79,12.79,0,0,0-2.35-2.65c5.85-3.6,10.35-10.2,12.5-17.85Zm-8.3,32.45a74,74,0,0,1,13.6,8.25l-2.25,2.9c-2.85-2.6-8.75-6.3-13.4-8.65Zm9.5-4.85a66.22,66.22,0,0,0-8.6-6.85l2.15-2.2a67.46,67.46,0,0,1,8.75,6.55Z"/><path class="cls-1" d="M1148.6,1369.94c-.35.6-.8,1.15-1.2,1.75,4.95,5.5,13.85,10.9,21.4,13.3a16.56,16.56,0,0,0-2.35,2.9,60.7,60.7,0,0,1-21-13.9,48.65,48.65,0,0,1-12.4,10h25.1v3.1h-11.1v7.05h17.75v3H1147.1v12.7H1167v3.1h-43v-3.1h19.55v-12.7h-17.35v-3h17.35v-7.05h-10.9v-2.9a58.72,58.72,0,0,1-8.25,3.85,11.79,11.79,0,0,0-2.25-3c9.35-3.1,18.55-9.1,23.3-16.5Zm-15.25,28.65a42.46,42.46,0,0,1,4.8,9.1l-2.9,1.2a40.78,40.78,0,0,0-4.65-9.2Zm18.55,9.3a71.79,71.79,0,0,0,5.35-9.35l3.15,1.25a101.62,101.62,0,0,1-6,9.2Z"/><path class="cls-1" d="M1160,1431.09a51.83,51.83,0,0,1-12,19.6,49.94,49.94,0,0,0,20.5,10.5,16.79,16.79,0,0,0-2.25,3,50.92,50.92,0,0,1-20.75-11.1c-5.65,5-12.55,8.6-21,11.3a15.53,15.53,0,0,0-2-3.05c8.35-2.45,15.1-5.9,20.6-10.6a57.05,57.05,0,0,1-12.2-19.65h-7.75v-3.25h44.75v3.25Zm-25.75,0a52.13,52.13,0,0,0,11.3,17.3,47.46,47.46,0,0,0,10.7-17.3Zm11.25-3.55a38.13,38.13,0,0,0-3.8-7.8l3.4-1a39,39,0,0,1,4,7.65Z"/></svg>