<svg id="Layer_1" data-name="Layer 1" xmlns="http://www.w3.org/2000/svg" viewBox="0 0 1242 2208"><defs><style>.cls-1{fill:#f6eabe;}.cls-2{fill:#999;}.cls-3,.cls-4{fill:none;}.cls-4{stroke:#000;stroke-linecap:round;stroke-miterlimit:10;stroke-width:50px;}</style></defs><rect class="cls-1" width="1242" height="2208"/><path d="M626.64,202.64v104.8H921.21V761.61c0,30.17-7.14,46-29.37,54-23,7.94-61.93,8.73-118.31,8.73-2.38-13.5-11.11-34.14-18.26-47.64,45.26,1.59,86.55,1.59,99.25.8,11.91-.8,15.09-4,15.09-15.88V356.67h-243V821.16h-50V356.67H346.37V824.33H295.55V307.44H576.62V202.64H267V151H949v51.61ZM496.43,420.19c0,81,5.56,184.21,76.22,264.4-9.53,4.76-24.61,16.67-30.17,23.82-38.11-43.67-58-96.87-68.28-149.27C455.94,620.28,428.94,671.89,391.62,710c-6.35-7.15-22.23-18.26-31-23.82,54-51.61,82.57-131,95.28-227.08H404.33V420.19Zm279.48,0c0,81.78,6.36,184.21,82.58,263.61-8.73,4.76-25.41,15.88-31.76,23-41.29-44.46-62.73-99.25-73.84-154-18.26,61.93-45.26,113.54-81.78,151.65-6.35-6.35-21.44-18.26-31-23.82C692.55,629.8,720.33,552,733.83,459.1h-54V420.19Z"/><rect class="cls-2" x="1113" y="410" width="65" height="126" rx="12"/><path class="cls-1" d="M1132.7,439.82c1.25,1.6,4.9,6.7,5.7,8.05l-2,2.45c-.7-1.5-2.35-4.4-3.75-6.65V470h-3.15V445.57c-1.5,5.05-3.5,9.9-5.55,12.85a14.83,14.83,0,0,0-1.75-3.1c2.9-4,5.8-11.5,7.2-18h-6.2v-3.15h6.3v-9.65h3.15v9.65h5.45v3.15h-5.45Zm19.1.7a19.47,19.47,0,0,0,.45,2.65c-10.15,2.7-11.6,3.15-12.5,3.75a12.13,12.13,0,0,0-1.1-3.2c.7-.2,1.55-.5,1.55-2.2v-16.7h3.25v6.5h8.35v2.9h-8.35v8.3Zm2.35,5.5-2,3.75h12.65V470h-3.4v-1.75h-17v2h-3.3V449.77h7.9c.55-1.5,1.2-3.25,1.55-4.6Zm7.3,6.5h-17v5.05h17Zm0,13v-5.3h-17v5.3Zm2.25-22.4c1.25,0,1.5-.75,1.65-5.25a9.16,9.16,0,0,0,2.85,1.25c-.3,5.45-1.2,6.95-4.15,6.95h-5.85c-3.65,0-4.55-.95-4.55-4.45V424.87h3.25v6.5h10.2v2.9h-10.2v7.35c0,1.3.25,1.5,1.65,1.5Z"/><path class="cls-1" d="M1167.55,499.87v2.5H1123.4v-2.5h20.25v-3.2H1126.8v-2.3h16.85v-3H1128.2v-2.25h15.45v-3.2H1123.5v-2.5h20.15v-3.05H1128.8V478h14.85v-3.55h3.25V478h14.45v5.4h6.15v2.5h-6.15v5.45H1146.9v3h17.3v2.3h-17.3v3.2Zm-37.75,5h31.75v15.25h-3.25v-1.6H1133v1.7h-3.2Zm3.2,2.4v3.2h25.3v-3.2Zm25.3,8.85v-3.4H1133v3.4Zm-11.4-32.7h11.15v-3.05H1146.9Zm0,5.7h11.15v-3.2H1146.9Z"/><path d="M219.92,1860.69a98.85,98.85,0,0,1-6.18,13.56v39.59H209.9v-33.35a61.73,61.73,0,0,1-5.46,7,32.86,32.86,0,0,0-2.28-3.9c5.58-5.87,10.8-14.87,14-24Zm34.14,28c-2.1,1.26-4.44,2.64-6.84,3.78,2,6.06,5.82,11.82,10.38,14.52a11.2,11.2,0,0,0-2.64,2.94c-4.62-3.18-8.46-9.42-10.68-16a27.45,27.45,0,0,1-2.76,1.2c2.58,6.84,1.86,14-1,16.68a6.91,6.91,0,0,1-5.22,1.92c-1.08,0-2.4-.06-3.78-.18a9.31,9.31,0,0,0-1-3.42,38.26,38.26,0,0,0,4.14.24,3.66,3.66,0,0,0,3.12-1.14c1.56-1.38,2.22-5.16,1.44-9.36-5.16,4.92-13.08,9.36-19.8,11.7a15.8,15.8,0,0,0-2.34-2.82c7.62-2.28,16.62-7.14,21.3-12.24a35.76,35.76,0,0,0-1.5-3.48,63.52,63.52,0,0,1-17.22,9.9,16.14,16.14,0,0,0-2.22-2.64c5.94-1.8,13.74-5.76,17.88-9.54a16.39,16.39,0,0,0-2.94-3.18,58.44,58.44,0,0,1-13.56,7.26,11.26,11.26,0,0,0-2.22-2.58,52.48,52.48,0,0,0,15.06-7.56H221.48v-9.35c-1.14,1-2.28,2-3.54,2.94a9.54,9.54,0,0,0-2.52-2.59,44.59,44.59,0,0,0,13.86-16.25l3.84.72c-.6,1.2-1.32,2.34-2,3.54h11.1l.72-.18,2.34,1.68a52.13,52.13,0,0,1-4.8,6.84h13.08v12.65H235.94a15.29,15.29,0,0,1-1.2,1,21,21,0,0,1,5.64,6.84,111.93,111.93,0,0,0,10.92-6.42ZM229,1866.81a54.58,54.58,0,0,1-4.2,5.16h11.58a37.88,37.88,0,0,0,3.72-5.16Zm-3.9,14.69h10.5v-6.42h-10.5Zm24.72-6.42H239.18v6.42H249.8Z"/><path d="M316.82,1905.14h-25v9h-4v-9H263.42v-3.66H287.9v-5.16H269.72v-23.09H287.9v-4.68H265.28v-3.66H287.9v-5.46h4v5.46h22.86v3.66H291.86v4.68h18.66v23.09H291.86v5.16h25Zm-43.26-22H287.9v-6.54H273.56ZM287.9,1893v-6.59H273.56V1893Zm4-16.38v6.54H306.5v-6.54Zm14.64,9.79H291.86V1893H306.5Z"/><path d="M337,1872.39a84.63,84.63,0,0,1-4.2,8V1914h-3.66v-27.9a66,66,0,0,1-4.5,5.7,21.28,21.28,0,0,0-2.46-3.42,60.47,60.47,0,0,0,11.28-17.09Zm-1.2-11.7a59.86,59.86,0,0,1-10.74,13.92,19.41,19.41,0,0,0-2.16-2.94,46.29,46.29,0,0,0,9.24-12.3Zm3.48,16.56c-.36.42-.72.83-1.14,1.25a10.47,10.47,0,0,0-2.82-2.16,41.48,41.48,0,0,0,9.06-16.73l3.66.54c-.48,1.44-1,2.82-1.5,4.32h7.74l.54-.18,2.4,1.56a51.42,51.42,0,0,1-3.54,7.56h6.72v19.91H339.32Zm12.48,17c-.12,1.2-.3,2.28-.48,3.36H362V1901H351.68a57.64,57.64,0,0,1,9.3,8.34l-2.46,2.52a58.94,58.94,0,0,0-8.94-8.4c-2,4.5-5.34,7.86-11.28,10a9.12,9.12,0,0,0-2.1-2.7c5.94-2,8.94-5.34,10.5-9.78h-9.48v-3.36h10.44c.18-1.08.36-2.16.48-3.36Zm-6.66-26.57a40.9,40.9,0,0,1-3.12,5.7h8.1a45.39,45.39,0,0,0,2.58-5.7Zm3.36,14.21v-5.51h-6.06v5.51Zm-6.06,2.83v5.63h6.06v-5.63Zm14.76-8.34h-5.64v5.51h5.64Zm0,8.34h-5.64v5.63h5.64Zm20-2.83h-5.1v27.3c0,2.1-.36,3.12-1.8,3.78-1.26.66-3.42.72-6.72.72a12.28,12.28,0,0,0-1.14-3.66c2.4.06,4.56.06,5.16,0s.9-.24.9-.84v-27.3H362.3v-3.66h14.88ZM376,1867.23H363.68v-3.66H376Z"/><path d="M403.52,1874.12c-3.48,13.74-9,27.06-18.84,36.12a31.63,31.63,0,0,0-2.64-3.12c9-8.1,14.22-20.33,17.46-33H384.32v-3.89h16.14c.78-3.66,1.44-7.32,2-10.86l4,.54c-.54,3.36-1.2,6.84-2,10.32h31.08v3.89Zm33.18,34.2v3.84H393.92v-3.84h19.74v-18.54H400v-3.84h33.84v3.84H417.74v18.54Z"/><path d="M464.78,1874.54a74.71,74.71,0,0,1-5.76,11.94h32.7v27.3h-4.14v-3.12H460.22v3.42h-4v-23.4a50.91,50.91,0,0,1-11.46,11.52,21.84,21.84,0,0,0-2.64-3.18c8.64-5.94,14.46-14.76,18.36-24.48H444.08v-3.89H461.9a86,86,0,0,0,3.12-11.34l4.14.84c-.84,3.48-1.8,7-3,10.5h30v3.89Zm-4.56,15.78v16.5h27.36v-16.5Z"/><path d="M531.56,1866.87v7.92h22.26v34.31c0,2.28-.54,3.48-2.22,4.08s-4.68.66-8.94.66a14.79,14.79,0,0,0-1.38-3.6c3.42.12,6.54.12,7.5.06s1.14-.3,1.14-1.2v-30.6H531.56v35.1h-3.78v-35.1h-17.4v35.34h-3.84v-39h21.24v-7.92h-23.4V1863h51.54v3.9Zm-9.84,16.43c0,6.12.42,13.92,5.76,20a8.65,8.65,0,0,0-2.28,1.8A23.88,23.88,0,0,1,520,1893.8a27.16,27.16,0,0,1-6.24,11.4,14.22,14.22,0,0,0-2.34-1.8c4.08-3.9,6.24-9.9,7.2-17.15h-3.9v-3Zm21.12,0c0,6.18.48,13.92,6.24,19.92a11.7,11.7,0,0,0-2.4,1.74,23.65,23.65,0,0,1-5.58-11.64,27.62,27.62,0,0,1-6.18,11.46,15,15,0,0,0-2.34-1.8c4-3.84,6.06-9.72,7.08-16.73h-4.08v-3Z"/><path d="M577.22,1888.64a49.67,49.67,0,0,1-3.42,13c4,7,11.7,7.92,23.4,8,6.3,0,14.82-.24,20.82-.78a10.52,10.52,0,0,0-1.32,3.78c-5.52.3-13,.42-19.5.42-12.48,0-20.16-1.26-24.84-8.16a27.85,27.85,0,0,1-7.5,9.24,12,12,0,0,0-2.76-2.76c5.4-3.78,9.3-10.62,11.16-20h-5.82a6.33,6.33,0,0,0-3.48.84,20,20,0,0,0-1.56-3.66,5.53,5.53,0,0,0,2.76-1.74,94.39,94.39,0,0,0,7.14-10.26h-9.36v-3.29h11.58l.78-.36L578,1874c-2.34,3.59-6.6,10-9.78,14h6.54l.66-.06.18.06Zm-4.92-17.87a86.16,86.16,0,0,0-7-9.66l3-1.68a76.07,76.07,0,0,1,7.14,9.3Zm9.3,17.4h-3.54v-5.88h16.86c-.42-.91-.9-1.87-1.26-2.71H582.32V1863h10.74c.66-1.32,1.26-2.76,1.68-3.78l4.14.66c-.66,1.14-1.38,2.16-2,3.12h14.52v16.61H597.74a23.09,23.09,0,0,1,1.32,2.71h16.68v5.57h-3.66v-3.11H604.4v3c0,1.08.12,1.43,1.26,1.43h5.46a22.88,22.88,0,0,0,3.54-.24,15.51,15.51,0,0,0,.24,2.28,20,20,0,0,1-3.6.18h-7c-2.88,0-3.36-1.19-3.36-3.72v-2.93h-6.72c-1.86,4.31-6,6.29-14,7.67a7,7,0,0,0-1.68-2.28c6.84-.89,10.38-2.46,12.06-5.39h-9Zm11.94,7.85a13.56,13.56,0,0,1-.66,2.22H610a6.23,6.23,0,0,1-.24,1.44c-.84,4.14-1.74,6.18-2.94,7.08a5.16,5.16,0,0,1-3.24.9,49.5,49.5,0,0,1-6.3-.18,7.45,7.45,0,0,0-.78-2.58,50.09,50.09,0,0,0,5.82.3,3,3,0,0,0,1.86-.36c.6-.54,1.2-1.74,1.8-4H591.74c-1.92,3.12-5,5.52-10.26,7a11,11,0,0,0-2-2.7c6.66-1.74,9.42-4.86,10.62-9.12H579.2v-2.64h16.08c-.48-1.14-1.08-2.46-1.62-3.48l3.24-.72a46,46,0,0,1,2.16,4.2h16V1896Zm-7.44-28.25h21.42v-2.64H586.1Zm0,4.8h21.42v-2.64H586.1Zm0,4.85h21.42v-2.69H586.1Z"/><path d="M668.72,1867.35c-3.54,5.58-8.82,10.32-14.88,14.33a85.8,85.8,0,0,0,23.94,8.82,17.12,17.12,0,0,0-2.58,3.6,85,85,0,0,1-24.9-10.19A100.76,100.76,0,0,1,624,1894.34a14.68,14.68,0,0,0-2-3.59,92.08,92.08,0,0,0,24.78-9.18,57.76,57.76,0,0,1-10.26-9.12,67.06,67.06,0,0,1-9.78,7.62,26.45,26.45,0,0,0-3.06-2.88,53,53,0,0,0,19-18.3l3.72,1.32a47.37,47.37,0,0,1-3.78,5.52H665.3l.66-.24Zm-36.42,25.49h35.16v21.24h-4.14v-2.64h-27v2.88h-4Zm4,3.66v11.34h27V1896.5Zm2.7-26.57a51.37,51.37,0,0,0,11.28,9.6,48.29,48.29,0,0,0,12-10.26H639.62Z"/><path d="M697.46,1888.64a53.51,53.51,0,0,1-3.54,13.14c4,6.78,11.7,7.74,23.28,7.8,6.3,0,14.82-.24,20.82-.78a10.52,10.52,0,0,0-1.32,3.78c-5.52.3-13,.42-19.5.42-12.42,0-20-1.2-24.78-8a27.61,27.61,0,0,1-7.62,9.12,13.1,13.1,0,0,0-2.7-2.76c5.46-3.78,9.42-10.56,11.34-20h-6.12a6.5,6.5,0,0,0-3.48.84,26.54,26.54,0,0,0-1.56-3.72,5.33,5.33,0,0,0,2.82-1.73c1.38-1.45,4.92-6.55,7.44-10.21H683v-3.29h11.82l.78-.36,2.7,1.26c-2.34,3.54-6.84,9.84-10.08,13.91h6.72l.72-.06Zm-5.16-17.93a94.58,94.58,0,0,0-7-9.66l3-1.68a81,81,0,0,1,7.14,9.3Zm22.26-2.46H698.18v-3.36h16.38v-5.52h3.84v5.52h17.28v3.36H718.4V1873h14v19.14h-14v4.68h18.12v3.42H718.4v7.32h-3.84v-7.32H698.12v-3.42h16.44v-4.68H701.12V1873h13.44Zm-9.78,12.83h9.78v-5h-9.78Zm9.78,8V1884h-9.78v5.1ZM718.4,1876v5h10.2v-5Zm10.2,8H718.4v5.1h10.2Z"/><path d="M754.28,1871.55h6.84v3.72h-6.84v12.23l5.94-2,.54,3.73c-2.1.71-4.32,1.5-6.48,2.21v17.64c0,2.28-.54,3.36-1.86,4s-3.6.78-7.32.72a14.48,14.48,0,0,0-1.14-3.72c2.58.12,4.92.12,5.58.06s1.08-.24,1.08-1.08v-16.43l-7.62,2.51-1.14-3.78c2.4-.72,5.4-1.68,8.76-2.76v-13.37H742.7v-3.72h7.92v-12.18h3.66ZM791,1893.62a26.21,26.21,0,0,1-6.6,11.22,108.2,108.2,0,0,1,11.94,6.12l-2.94,2.82a135.21,135.21,0,0,0-12.06-6.48c-4.38,3.12-10.2,5.22-17.88,6.54a10.54,10.54,0,0,0-1.86-3.42c6.6-1,11.76-2.58,15.72-4.92-4.08-1.74-8.34-3.48-12.18-4.8,1.56-2,3.24-4.44,4.92-7.08h-8.52v-3.54h10.62a62.75,62.75,0,0,0,3-6.06l3.78.78c-.78,1.68-1.68,3.54-2.64,5.28h11.64c.24-1.14.48-2.28.72-3.54l3.84.79c-.18,1-.36,1.85-.54,2.75h5.46v3.54Zm5.82-10.37H762.26v-3.49h20.16a54.93,54.93,0,0,0,4.86-9.53l3.72,1.08c-1.38,2.81-3.06,5.94-4.62,8.45h10.44Zm-1.2-14h-31.8v-3.48H778.7a48.49,48.49,0,0,0-2.7-5.94l4.08-.78a40.35,40.35,0,0,1,3.24,6.72h12.3Zm-22.8,10a36.54,36.54,0,0,0-4.5-7.74l3.24-1.32a36.3,36.3,0,0,1,4.68,7.5Zm1.38,14.39a52.9,52.9,0,0,1-3.66,5.58c3.24,1.2,6.66,2.52,10,4a22.2,22.2,0,0,0,6.3-9.54Z"/><path d="M853.22,1866.15a86.81,86.81,0,0,1-21,16v26.45c0,2.88-.72,4-2.94,4.68s-6.12.72-12.24.72a15.48,15.48,0,0,0-1.68-4c5.16.18,9.72.12,11.1.06s1.62-.42,1.62-1.44v-28.44a76.67,76.67,0,0,0,17.28-12.11H806v-3.9h43.2l.9-.24Z"/><path d="M917.36,1883.91v4.31H862.88v-4.31Z"/><path d="M938.3,1860.63a99.16,99.16,0,0,1-4.86,11.64V1914H929.6v-34.73a68.26,68.26,0,0,1-6.12,8.46,21.26,21.26,0,0,0-2.22-4c5.46-5.88,10.32-14.94,13.32-24.12Zm37,2.46v50.33h-3.78v-3.06H944.3v3.54h-3.72v-50.81Zm-3.78,43.73v-40.25H944.3v40.25Zm-11.82-28.13v6.83h7.08v16H949.58v-16h6.78v-6.83h-9.42v-3.19h9.42v-6.83h3.3v6.83h9.66v3.19Zm3.9,9.89H952.7v9.9h10.86Z"/><path d="M996.86,1903.7V1914h-3.72V1903.7H982.88v-3.54h10.26v-4.8h-8.4v-21.29h8.4v-4.74h-9.66v-3.48h9.66v-6.48h3.66v6.48h9.72v3.48H996.8v4.74h8.64v21.29h-8.58v4.8h9.66v3.54ZM988,1883.18h5.46v-6.06H988Zm0,9.12h5.46v-6.18H988Zm14.1-15.18h-5.52v6.06h5.52Zm0,9h-5.52v6.18h5.52Zm10.74-2.82c-.24,9.6-1.38,21.66-5.82,30.84a16.09,16.09,0,0,0-2.7-2.64c4.86-9.84,5.1-24.36,5.1-33.42v-13.85c8.46-.72,18.66-1.92,24.42-3.48l2.28,2.82a157,157,0,0,1-23.22,3.24v3.12h22.68v13.37Zm18.9,26.34c1.8,0,2.28-.66,2.46-6.72a14.24,14.24,0,0,0,3,1.2c-.36,8-1.62,9.18-5.52,9.18h-12c-4.8,0-6.84-1.8-6.84-4.86,0-2.34.54-5.22,15.48-17.4h-13.62v-3.36h18.24l.78-.06,2.34,1.14a1.68,1.68,0,0,1-.48.72c-17.82,14.1-19.2,16.68-19.2,18.54,0,1.14,1.2,1.62,3.24,1.62Zm-18.84-36.53v7h19.2v-7Z"/><path d="M116.15,1962.86a55.82,55.82,0,0,1,8.82-30.35l3,1.44a57.88,57.88,0,0,0,0,57.83l-3,1.44A55.68,55.68,0,0,1,116.15,1962.86Z"/><path d="M152.15,1944.62H133v-3.29h19.14Zm-1.2,15.9H135v-3.23h16Zm-.36,22H138.65v2.82h-3.3v-20h15.24Zm-15.18-30v-3.23h15.24v3.23Zm7.92-11.69a37.94,37.94,0,0,0-5.16-7.8l3.3-1.32a43.55,43.55,0,0,1,5.4,7.5Zm-4.68,27.77v10.56h8.58v-10.56ZM167,1979.54a53.19,53.19,0,0,1-13.5,6.54,17.47,17.47,0,0,0-2.58-2.58c4.56-1.32,10.08-3.78,12.72-5.88Zm1-41.93H154v-2.82h14v-3.42H172v3.42h14.94v2.82H172v3.06h13.2v2.7h-29v-2.7h11.94ZM154.49,1946h31.92v11.69H154.49Zm30.3,31.55H156.17V1960h28.62Zm-27-22.25h6.12v-6.84h-6.12Zm23.28,7.25H159.83v2.7h21.24Zm0,4.8H159.83v2.76h21.24Zm0,4.8H159.83V1975h21.24Zm-7.32-16.85v-6.84h-7.08v6.84Zm1.56,22.25c4.62,2,9.66,4.38,12.84,6.06l-2.28,2.64c-3-1.68-8-4.2-12.42-6.3Zm7.68-29.09h-6.42v6.84H183Z"/><path d="M193.61,1965.26c0-10.5,7-17,14.46-17,8.1,0,12.78,5.81,12.78,15.17a14.19,14.19,0,0,1-.24,2.94H198.47c.3,7.2,4.62,12,11.1,12a14.28,14.28,0,0,0,8.22-2.64l1.8,3.24a18.91,18.91,0,0,1-10.62,3.3C200.45,1982.24,193.61,1975.94,193.61,1965.26Zm22.92-2.51c0-6.91-3.12-10.57-8.4-10.57-4.8,0-9.06,3.9-9.72,10.57ZM199,1932.93l3.42-3.24,9.36,11-2.52,2.45Z"/><path d="M226.55,1989.68c3.6-1.68,5.82-4.62,5.82-8.16a2.92,2.92,0,0,1-.72.06,3.49,3.49,0,0,1-3.72-3.6,3.56,3.56,0,0,1,3.78-3.54c2.7,0,4.38,2.28,4.38,6.06,0,5.52-3.24,9.84-8.28,12.06Z"/><path d="M296.33,1964.84H272.27v21.06h-4.14v-21.06h-25.2v-3.9h25.2v-14.63h-15a54.61,54.61,0,0,1-6.3,10,24.8,24.8,0,0,0-3.66-2.23c4.68-5,8.52-13,10.8-21.11l4,.84a68.18,68.18,0,0,1-3,8.52h13.2v-11h4.14v11H293v4H272.27v14.63h24.06Z"/><path d="M302.09,1983.32c3.78-3.12,5.88-8.52,6.84-13.74l3.48,1c-1.14,5.58-3.06,11.46-7.14,14.82Zm53.16-20a17.12,17.12,0,0,1-.18,1.8c-.84,12.54-1.68,17.4-3.36,19.2a5.1,5.1,0,0,1-3.78,1.56,57.3,57.3,0,0,1-7.68-.12,8.53,8.53,0,0,0-1.08-3.66c3.06.3,6,.3,7,.3s1.74,0,2.22-.54c1.08-1.2,1.92-5.1,2.64-15H309.83v-32.51h41.76v3.54h-19.5v6.3h17.4v3.24h-17.4v6.3h17.4V1957h-17.4v6.3Zm-41.58-25.43v6.3h14.52v-6.3Zm14.52,9.54H313.67v6.3h14.52Zm-14.52,15.89h14.52V1957H313.67Zm7.2,7.62a61.12,61.12,0,0,1,2,11.82l-3.66.6a55.22,55.22,0,0,0-1.74-11.82Zm10.08-.54a42.28,42.28,0,0,1,3.72,10.44l-3.3,1a50.43,50.43,0,0,0-3.54-10.68Zm11.82,8a38,38,0,0,0-5.34-8.22l2.88-1.2a34.46,34.46,0,0,1,5.46,8Z"/><path d="M374.57,1963.7v17.58c0,2.28-.54,3.3-2,4s-3.48.78-7.14.72a15.61,15.61,0,0,0-1.26-3.66c2.52.06,4.8.06,5.46,0s1-.24,1-1V1964.9l-7.08,2.1-1.14-3.83c2.28-.61,5.1-1.39,8.22-2.29v-13.61h-7.5v-3.72h7.5v-12.18h3.9v12.18h6.36v3.72h-6.36v12.53l6.54-1.92.48,3.66Zm42.66,16v3.78H380.81v-3.78h20.34a261.38,261.38,0,0,0,5.82-30.05l4.2.77c-1.62,9.24-4.14,21.24-6.3,29.28Zm-1.62-33.54h-32v-3.77h32ZM392,1976.72a221.85,221.85,0,0,0-4.2-25.8l3.54-.71a220.49,220.49,0,0,1,4.5,25.37Zm5.64-35.21a57.16,57.16,0,0,0-2.82-9.48l3.72-1a76.65,76.65,0,0,1,3.06,9.36Z"/><path d="M454.91,1967.9c5.46,5.82,14.28,11.22,22.08,13.8a13.83,13.83,0,0,0-2.76,3.42,64.1,64.1,0,0,1-22.8-15.84V1986h-4v-16.5c-5.76,6.54-14.64,12.36-22.32,15.54a13.25,13.25,0,0,0-2.76-3.3A59.47,59.47,0,0,0,444,1967.9H429v-21.65h18.42v-5.34H423.77v-3.78h23.64v-5.7h4v5.7h24.3v3.78h-24.3v5.34h19.44v21.65Zm-22-12.36h14.52v-6H432.89Zm0,9.24h14.52v-6.18H432.89Zm18.54-15.29v6h15.42v-6Zm15.42,9.11H451.43v6.18h15.42Z"/><path d="M517.67,1939.23v9h15.18v37.31h-4V1982H490.55v3.78h-3.9v-37.55h14.58v-9H483.41v-3.84h52.2v3.84Zm11.16,39v-10.8h-9.18c-4.62,0-5.82-1.08-5.82-5.52v-10h-9.06c-.3,6.35-2.52,13.37-11.58,17.93a12.32,12.32,0,0,0-2.34-2.94c8.16-4,10-9.65,10.32-15H490.55v26.33Zm-15-39h-9v9h9Zm3.84,12.72v10c0,1.5.3,1.74,2.4,1.74h7.56a5.89,5.89,0,0,0,1.2-.06V1952Z"/><path d="M561.17,1974.26h-13V1979h-3.78v-43.67h16.8Zm-13-35.27v13.73h9.24V1939Zm9.24,31.61v-14.27h-9.24v14.27Zm24-28.31v8.09h13.32V1954h-5.4v6.89h7.2v3.54h-7.2v16.68c0,2.4-.6,3.54-2.34,4.14s-4.74.72-9.66.72a16.74,16.74,0,0,0-1.32-3.78c3.78.12,7.2.12,8.16.06s1.26-.3,1.26-1.2v-16.62H562.55v-3.54h22.86V1954H565v-3.61h12.48v-8.09H562.25v-3.6h15.24v-7.32h3.9v7.32h15.3v3.6Zm-11.76,24.47a51.18,51.18,0,0,1,7.86,10.32l-3.42,2.16a54.79,54.79,0,0,0-7.68-10.56Z"/><path d="M616.61,1938.93c-1.68,6-5,10.44-12.18,13.14a9.2,9.2,0,0,0-2.16-2.7c6-2.16,9-5.76,10.5-10.44h-8.88v-3.24h9.72a31.24,31.24,0,0,0,.6-4.32H618c-.18,1.5-.36,2.94-.6,4.32h12.36s0,1-.06,1.56c-.54,6.9-1.08,9.71-2.22,10.86a3.93,3.93,0,0,1-3,1.2,46.57,46.57,0,0,1-5.58-.06,8.66,8.66,0,0,0-1-3.13,46.76,46.76,0,0,0,4.92.3,2.1,2.1,0,0,0,1.62-.47c.54-.66,1-2.58,1.38-7Zm-14.1,45a50.29,50.29,0,0,0,7.26-9l3.18,1.74a97.16,97.16,0,0,1-7.08,9.24Zm52.08-13.14a13.91,13.91,0,0,1-.18,1.62c-.78,7.92-1.62,11.22-2.94,12.42a4.33,4.33,0,0,1-3.24,1.32,47,47,0,0,1-6.3-.12,7.8,7.8,0,0,0-1-3.18c2.52.24,4.74.3,5.58.3s1.44-.06,1.86-.54c.78-.78,1.44-3.18,2-8.82H613.13v-.06h-2.46v-22h39.84v2.88H633.77v3.73h14.4v2.57h-14.4v3.6h14.52v2.58H633.77v3.66Zm-40-16.14v3.73h15.3v-3.73Zm15.3,6.3h-15.3v3.6h15.3Zm0,6.18h-15.3v3.66h15.3Zm-9.24,8.82a40.2,40.2,0,0,1,2,8.4l-3.6.66a40.09,40.09,0,0,0-1.74-8.46Zm9.54-.36a36.08,36.08,0,0,1,3.9,7.5l-3.36,1.2a29.4,29.4,0,0,0-3.6-7.68Zm24.06-26.87H633.47v-14.28h20.76Zm-12.9,33.17a28.72,28.72,0,0,0-4.56-5.82l2.76-1.26a24.46,24.46,0,0,1,4.74,5.58Zm9-44.27H637.19v7.92h13.14Z"/><path d="M682.73,1944.62a67.64,67.64,0,0,1-7.2,12.25v28.85h-4v-24a41.57,41.57,0,0,1-7.26,6.41,17,17,0,0,0-2-3.48c7-5,12.3-12.23,16.14-20H663.59v-3.83H680a65.25,65.25,0,0,0,3.3-9.42l4.08,1c-.9,2.82-1.86,5.64-3,8.4h31.26v3.83Zm32.94,36.24v3.72H679.55v-3.72h16v-17.52H681.89v-3.72h13.68v-11.81h4v11.81h13.8v3.72h-13.8v17.52Z"/><path d="M741.35,1980.74c0,2.16-.54,3.36-1.86,4s-3.66.78-7.56.78a14.72,14.72,0,0,0-1.14-3.72c2.76.12,5.16.06,5.88.06s1.08-.3,1.08-1.14V1963c-2.28,1.63-4.44,3.3-6.6,4.8l-2-3.24c-.42,7.38-1.62,15.42-4.32,21.42a9.87,9.87,0,0,0-3.18-1.86c4-8.4,4.26-20.4,4.26-29.16v-21.47h15.42ZM729.47,1955c0,2.88-.06,6.18-.3,9.54,2.28-1.2,5.34-3.06,8.58-5v-7.67l-2.22,1.74a64.24,64.24,0,0,0-6.06-6.66l2.46-1.74a48.07,48.07,0,0,1,5.82,5.94v-13.86h-8.28Zm47.16,16.8H761.75v9.9c0,2.22-.42,3.24-2,3.84s-4.32.6-8.16.6a11.73,11.73,0,0,0-1.26-3.6c3.06.06,5.7.06,6.48,0s1-.18,1-.9v-9.84H743.21v-3.6h14.58v-3.72a38.85,38.85,0,0,0,7.08-4.73H748.43v-3.37h20.22l.9-.24,2.58,2.16a61.51,61.51,0,0,1-10.38,7.56v2.34h14.88Zm-28.92-14.39h-3.6v-9.91h13.74V1941h-13.5v-3.54h13.5v-6.12h3.9v6.12h13.92V1941H761.75v6.53H776v9.91h-3.72V1951h-24.6Z"/><path d="M836.51,1962H811.79v18.6c0,2.82-.72,4-2.88,4.68s-5.94.78-11.7.78a17.7,17.7,0,0,0-1.8-4.14c5,.18,9.36.18,10.68.12s1.62-.42,1.62-1.5V1962h-25v-4h25v-8.75a74.47,74.47,0,0,0,15.72-9.84H788.75v-3.9h39l.84-.24,3,2.28a90,90,0,0,1-19.8,13.79V1958h24.72Z"/><path d="M896.33,1979.18v4H842.87v-4h22.62v-46.85h4.14v18.54h22.62v4H869.63v24.3Z"/><path d="M918.59,1932c-1,2.94-2.1,6.3-3.18,8.88h10.14v38.75h-16.8v4.8h-3.66v-43.55h6.66a64.68,64.68,0,0,0,2.58-9.72Zm3.3,12.47H908.75v13.08h13.14Zm0,31.56v-14.88H908.75v14.88ZM955,1942.89c-1,27.53-1.8,36.71-4.2,39.59a5.6,5.6,0,0,1-4.56,2.28,74.94,74.94,0,0,1-8.82-.12,9.42,9.42,0,0,0-1.32-3.9c3.9.36,7.5.36,8.82.36s1.92-.12,2.52-.9c2-2.1,2.94-11.34,3.72-35.7H935.39a55.33,55.33,0,0,1-5.64,10.68,36.22,36.22,0,0,0-3.36-2.22c4.08-5.34,7.32-13.61,9.18-21.89l3.84.84c-.78,3-1.62,6-2.64,8.88H955Zm-12.78,27a106.51,106.51,0,0,0-9.3-13.92l3.06-1.79a102.47,102.47,0,0,1,9.6,13.61Z"/><path d="M1013.81,1971.8c-.84-.78-1.74-1.56-2.82-2.4v16.14h-3.72V1984H995.93v1.92h-3.54v-18.48h15.84a99.34,99.34,0,0,0-13.56-7.74H983.21a46.61,46.61,0,0,1-9.54,7.74h12.9v18.12h-3.66V1984h-10.8v1.92h-3.6v-15.6c-1.5.72-3.06,1.44-4.68,2a11,11,0,0,0-2.28-3,49.66,49.66,0,0,0,16.56-9.66H962.93v-3.47h18.54a27.86,27.86,0,0,0,4-5.83H967.37v-16.31h18.54v15.35l.06-.11,4,.77a39.82,39.82,0,0,1-3.78,6.13h17.94a39.91,39.91,0,0,0-7.56-3.84l1.92-2h-5.58v-16.31h19v16.31H998.69a33.13,33.13,0,0,1,8.46,4.33l-1.32,1.5h10.44v3.47h-14.58a78.76,78.76,0,0,1,15,9.72Zm-31.62-34.43H970.91V1947h11.28Zm.72,33.41h-10.8v9.84h10.8Zm24.36,9.84v-9.84H995.93v9.84ZM996.41,1947h11.76v-9.66H996.41Z"/><path d="M1043.27,1975.82a81.5,81.5,0,0,1-18.12,10.2,18.9,18.9,0,0,0-2.88-2.94c6.06-2.34,13.5-6.36,17.16-9.6Zm33.06-3.06h-53.4v-3.66h9.54v-34.85h35v34.85h8.82Zm-40-35.15v5.46h27.18v-5.46Zm27.18,8.58h-27.18v5.39h27.18Zm-27.18,8.52v5.51h27.18v-5.51Zm0,14.39h27.18v-5.76h-27.18Zm22.38,4.2A161.48,161.48,0,0,1,1077,1983l-3.12,3a145.77,145.77,0,0,0-17.7-10Z"/><path d="M1082,1991.78a57.88,57.88,0,0,0,0-57.83l3-1.44a56.65,56.65,0,0,1,0,60.71Z"/><path d="M1114.61,1949.67a9.06,9.06,0,1,1-9.06,9A9.09,9.09,0,0,1,1114.61,1949.67Zm0,15.23a6.18,6.18,0,0,0,0-12.36,6.18,6.18,0,1,0,0,12.36Z"/><path d="M306.74,2004.57a123.56,123.56,0,0,1-4.08,12.6V2058h-3.78v-32.51a51.63,51.63,0,0,1-4.26,6.77,18.44,18.44,0,0,0-2.16-4c4.56-6,8.28-15.23,10.5-24.59Zm5.94,41.27v12H309v-51.77h16.26v18.23H312.68v6.78h11.16v3.42H312.68v7.92H324.5v3.42Zm0-36.35v11.39h9v-11.39Zm32.52,20.34a41,41,0,0,1-7.5,17.45,26.55,26.55,0,0,0,10,7.56,18.29,18.29,0,0,0-2.46,3.06,27.55,27.55,0,0,1-9.78-7.86,36.82,36.82,0,0,1-12.36,8.1,10.14,10.14,0,0,0-2.1-2.94,31,31,0,0,0,12.3-8.1,51.85,51.85,0,0,1-6-13.85l2.64-.67H326v-3.41h16.2l.72-.13Zm-.78-5.58H327.68v-3.48h13.08v-11.22H327.68v-3.48h16.74Zm-14,8.33a40.27,40.27,0,0,0,5.1,11.7,33.44,33.44,0,0,0,5.4-11.7Z"/><path d="M370,2004.63a84.89,84.89,0,0,1-6.18,12.9v40.31H360v-34.31a62.31,62.31,0,0,1-6.42,7.91,20.27,20.27,0,0,0-2.34-3.84c6-5.81,11.64-14.81,15.06-24ZM407.84,2023v3.65H366.92V2023h10.74v-8.52H369.5v-3.54h8.16v-7h3.78v7H393.2v-7H397v7h8.52v3.54H397V2023Zm-34.44,8.69h29v26.16h-3.9v-2.46H377.24v2.76H373.4Zm3.84,3.42v6.72h21.24v-6.72ZM398.48,2052v-6.9H377.24v6.9Zm-17-29H393.2v-8.52H381.44Z"/><path d="M465.74,2035.17s-.06,1.19-.12,1.73c-1.14,12.66-2.28,17.64-4.14,19.56a5.52,5.52,0,0,1-4,1.56,66.58,66.58,0,0,1-7.5-.12,9.39,9.39,0,0,0-1.2-3.66c3.12.3,6.06.3,7.2.3a3,3,0,0,0,2.22-.54c1.26-1.32,2.4-5.34,3.36-15.3H424a59.21,59.21,0,0,1-9.66,7.32,19.86,19.86,0,0,0-2.22-3.3c10.26-6,17.82-15.18,23.1-25.43h-20v-3.66H437a82.29,82.29,0,0,0,3.84-10.32l3.9,1a92.32,92.32,0,0,1-3.54,9.3H457c-.72,3.48-1.56,7.62-2.34,10.74h7c-.66,3.47-1.5,7.67-2.28,10.8Zm-49.38,20.33c3.42-3.24,5.7-8.58,7-13.2l3.3,1.08c-1.44,4.92-3.54,10.62-7.14,14.16Zm12.42-42.17a39,39,0,0,0-6-8.34l3.42-1.44a39.57,39.57,0,0,1,6.18,8Zm26.82,21.84c.54-2.11,1.08-4.69,1.56-7.21H433.34a75.18,75.18,0,0,1-5.76,7.21Zm-21.48,7.91a44,44,0,0,1,1.8,11.88l-3.48.54a39.57,39.57,0,0,0-1.62-11.94Zm5.4-25.79c-1.14,2.4-2.46,4.79-3.84,7.08h15.24c.54-2,1.14-4.62,1.62-7.08Zm3.18,25a43,43,0,0,1,3.6,10.26l-3.3.9a45.91,45.91,0,0,0-3.42-10.44Zm10.32,8a38.83,38.83,0,0,0-4.56-8.1l2.76-1.08a34.18,34.18,0,0,1,4.74,7.86Z"/><path d="M501.56,2010.87v7.92h22.26v34.31c0,2.28-.54,3.48-2.22,4.08s-4.68.66-8.94.66a14.79,14.79,0,0,0-1.38-3.6c3.42.12,6.54.12,7.5.06s1.14-.3,1.14-1.2v-30.6H501.56v35.1h-3.78v-35.1h-17.4v35.34h-3.84v-39.05h21.24v-7.92h-23.4V2007h51.54v3.9Zm-9.84,16.43c0,6.12.42,13.92,5.76,20a8.65,8.65,0,0,0-2.28,1.8A23.88,23.88,0,0,1,490,2037.8a27.16,27.16,0,0,1-6.24,11.4,14.22,14.22,0,0,0-2.34-1.8c4.08-3.9,6.24-9.9,7.2-17.15h-3.9v-3Zm21.12,0c0,6.18.48,13.92,6.24,19.92a11.7,11.7,0,0,0-2.4,1.74,23.65,23.65,0,0,1-5.58-11.64,27.62,27.62,0,0,1-6.18,11.46,15,15,0,0,0-2.34-1.8c4-3.84,6.06-9.72,7.08-16.73h-4.08v-3Z"/><path d="M548.3,2004.63a99.16,99.16,0,0,1-4.86,11.64V2058H539.6v-34.73a68.26,68.26,0,0,1-6.12,8.46,21.26,21.26,0,0,0-2.22-4c5.46-5.88,10.32-14.94,13.32-24.12Zm37,2.46v50.33h-3.78v-3.06H554.3v3.54h-3.72v-50.81Zm-3.78,43.73v-40.25H554.3v40.25Zm-11.82-28.13v6.83h7.08v16H559.58v-16h6.78v-6.83h-9.42v-3.19h9.42v-6.83h3.3v6.83h9.66v3.19Zm3.9,9.89H562.7v9.9h10.86Z"/><path d="M613.52,2036.06l-3.66,3.12a93.63,93.63,0,0,0-13.32-13.38l3.42-3.11A118.53,118.53,0,0,1,613.52,2036.06Z"/><path d="M676.7,2052.74v3.3H623.36v-3.3h24.48v-5.52h-20V2044h20v-4.44H629.72v-18.42h18.12v-3.89H623.72v-3.3h24.12v-4.62c-6.36.42-12.78.72-18.78.84a11.3,11.3,0,0,0-.84-3.18c13.86-.42,30.84-1.5,40.14-3.24l2.22,3.12a186.76,186.76,0,0,1-18.78,2.22v4.86h24.6v3.3H651.8v3.89h18.9v18.42H651.8V2044h21.12v3.24H651.8v5.52Zm-43.08-23.82h14.22v-4.85H633.62Zm14.22,7.68v-4.92H633.62v4.92Zm4-12.53v4.85h14.88v-4.85Zm14.88,7.61H651.8v4.92h14.88Z"/><path d="M737.06,2053.34v3.12H683v-3.12h25v-3.72h-20.1v-2.88H708v-3.54h-18.3v-14.87h41.22v14.87H711.8v3.54h20.52v2.88H711.8v3.72Zm-.36-27.89H683.36v-3.07H736.7Zm-7.56-5.7H690.8v-14.46h38.34ZM693.5,2034.5H708V2031H693.5Zm14.52,6.12V2037H693.5v3.66Zm17.22-32.87h-30.6v3.48h30.6Zm0,5.94h-30.6v3.54h30.6ZM727,2031H711.8v3.54H727Zm0,6H711.8v3.66H727Z"/><path d="M796.46,2049.38h-24.6V2058h-4v-8.58H743.66v-3.54h24.18V2041H749.78v-20.64h41.1V2041h-19v4.86h24.6Zm-28.86-32.15H748.22v-11.52H767.6Zm-3.78-8.76H751.88v6h11.94Zm-10.2,20.63h14.22v-5.45H753.62Zm14.22,8.64v-5.52H753.62v5.52Zm19-14.09H771.86v5.45H786.8Zm0,8.57H771.86v5.52H786.8Zm5.34-15h-19.5v-11.52h19.5Zm-3.66-8.76H776.3v6h12.18Z"/><path d="M821.3,2004.63a90.29,90.29,0,0,1-6.18,12.84v40.43h-4v-34.19a70.15,70.15,0,0,1-6.36,7.79,23.56,23.56,0,0,0-2.28-3.9c5.94-5.81,11.58-14.81,15.06-24Zm35.76,47v3.84H819.62v-3.84h21.06a266.82,266.82,0,0,0,5.88-30l4.14.77c-1.56,9.24-4,21.18-6.3,29.28Zm-2.52-33.47H822.26v-3.84h32.28Zm-24.12,30.53a209.72,209.72,0,0,0-4.2-25.8l3.6-.71a205.18,205.18,0,0,1,4.56,25.37Zm6.84-35.21a72.34,72.34,0,0,0-2.88-9.48l3.72-1a88.64,88.64,0,0,1,3.06,9.36Z"/><path d="M871.76,2011.29a46.56,46.56,0,0,1-6,7.25,24.62,24.62,0,0,0-2.88-2.63,36.33,36.33,0,0,0,9.18-13l3.6,1c-.54,1.32-1.14,2.58-1.8,3.84h15.9v3.54H877.94a53.05,53.05,0,0,1,6.12,5.7l-2.64,2.34a51.37,51.37,0,0,0-6.3-6.36l2.16-1.68Zm32.4,28.25h12.12V2043H904.16v10.68c0,2.46-.6,3.36-2.52,3.9s-5.28.54-10.56.54a13.47,13.47,0,0,0-1.14-3.42c4.2.18,7.8.18,8.88.12s1.32-.36,1.32-1.2V2043H863.66v-3.42h36.48v-4.37h4Zm13.2-31.73v3.48h-19.8a33.1,33.1,0,0,1-4.92,7.25L892,2018v3.25h22v3.54H892v5.69H910.7v3.24H868.94v-3.24h19v-5.69H866v-3.54h21.9v-3.9h3.24a14,14,0,0,0-1.62-1.14c3.36-3.24,5.88-8.1,7.38-13.2l3.66.78c-.42,1.38-.9,2.7-1.44,4Zm-40.86,36a96.54,96.54,0,0,1,10.38,8.94l-2.94,2.4a102.8,102.8,0,0,0-10.26-9.3Zm27.24-32.51a53.48,53.48,0,0,1,5.82,6.12l-2.7,2.34a53.37,53.37,0,0,0-5.76-6.48Z"/><path d="M935.18,2021.67a9.06,9.06,0,1,1-9.06,9A9.09,9.09,0,0,1,935.18,2021.67Zm0,15.23a6.18,6.18,0,1,0,0-12.36,6.18,6.18,0,1,0,0,12.36Z"/><line class="cls-3" x1="621" y1="350" x2="621" y2="350"/><line class="cls-4" x1="509" y1="1036" x2="707" y2="1036"/><line class="cls-4" x1="363.45" y1="1191.5" x2="852.55" y2="1191.5"/><path class="cls-4" d="M363.45,1191.5c-82.23-1.36-70.33,72.18-69.25,190"/><path class="cls-4" d="M852.55,1191.5c82.23-1.36,70.33,72.18,69.25,190"/><path class="cls-4" d="M443.7,1199a580.75,580.75,0,0,1-10.58,115.59c-6.45,33.07-16.07,65.43-31.52,90.92S364.25,1449,341.28,1449"/><path class="cls-4" d="M443.7,1199a580.75,580.75,0,0,0,10.57,115.59c6.46,33.07,16.07,65.43,31.53,90.92S523.15,1449,546.12,1449"/><path class="cls-4" d="M771.86,1199a580.75,580.75,0,0,1-10.58,115.59c-6.45,33.07-16.07,65.43-31.52,90.92S692.41,1449,669.44,1449"/><path class="cls-4" d="M771.86,1199a580.75,580.75,0,0,0,10.57,115.59c6.46,33.07,16.07,65.43,31.53,90.92S851.31,1449,874.28,1449"/><line class="cls-4" x1="608" y1="1200" x2="608" y2="1655"/><path class="cls-2" d="M91.58,1033.62c-2-1.62-5.52-4.26-8.58-6.3a48.56,48.56,0,0,1-10.8,10.56,20.08,20.08,0,0,0-1.92-3.48,38,38,0,0,0,12.48-13l3.24,1.14c-.36.66-.78,1.38-1.26,2.1,3.12,1.92,6.78,4.38,8.76,5.94ZM87,1061.1a125.47,125.47,0,0,1,6.3,11.94l-2.94,1.56c-.54-1.32-1.32-3-2.22-4.8-12,5-13.62,5.82-14.64,6.66a11.57,11.57,0,0,0-1.44-3.48,3.29,3.29,0,0,0,2.16-3.3v-29.76H91.16v19.86H77.78v10.74l8.94-3.42c-.78-1.74-1.68-3.36-2.52-4.86ZM77.78,1043v5h9.84v-5Zm9.84,13.62v-5.52H77.78v5.52ZM78.32,1033H88.46V1036H78.32Zm33.42.6v8.82h10.91v22.14c0,1.8-.3,2.82-1.56,3.42s-2.93.66-5.69.6a10.87,10.87,0,0,0-1.14-3.36c1.86.06,3.48.06,3.95.06s.73-.18.73-.72V1046h-7.2v30.42H107.9V1046h-7.56v23h-3.6v-26.64H107.9v-8.82h-7.44a45.73,45.73,0,0,1-5.7,10.08,18.07,18.07,0,0,0-3.06-2.4c4-4.68,6.9-12,8.52-19.44l3.72.72a74.93,74.93,0,0,1-2.22,7.38h23.09v3.66Z"/><path class="cls-2" d="M140,1028.64a43.21,43.21,0,0,1-6.18,6.84,31.64,31.64,0,0,0-2.88-2.7,31,31,0,0,0,9.18-11.4l3.6,1c-.48,1-1,2-1.56,3h15.66v3.24Zm38.52,16.56h6.41v3.18h-6.41v7.26h-18.6v3.78h20.21v3.18H159.92v4.08H184v3.18H159.92v6.66h-4v-6.66H132.26v-3.18H155.9v-4.08H136.16v-3.18H155.9v-3.78H138v-3.06H155.9v-4.2H131.24v-3.18H155.9v-3.72H138.44v-3.06H155.9v-3.36h4v3.36h18.6Zm-32.7-16.2a61,61,0,0,1,5.22,5.52l-2.7,2.22a54.37,54.37,0,0,0-5.22-5.94Zm39.41-3.54v3.24H164.12a33.29,33.29,0,0,1-5.1,5.64,24.56,24.56,0,0,0-3.06-2.4,24.72,24.72,0,0,0,8-10.5l3.72,1a28.88,28.88,0,0,1-1.5,3.06Zm-25.31,19.74H174.5v-3.72H159.92Zm14.58,3.18H159.92v4.2H174.5Zm-.12-11.76a48.18,48.18,0,0,0-5.22-5.76l2.7-1.8a37.49,37.49,0,0,1,5.34,5.4Z"/><path class="cls-2" d="M139.92,1408.2v10.26H136.2V1408.2H125.94v-3.54H136.2v-4.8h-8.4v-21.3h8.4v-4.74h-9.66v-3.48h9.66v-6.48h3.66v6.48h9.72v3.48h-9.72v4.74h8.64v21.3h-8.58v4.8h9.66v3.54ZM131,1387.68h5.46v-6.06H131Zm0,9.12h5.46v-6.18H131Zm14.1-15.18h-5.52v6.06h5.52Zm0,9h-5.52v6.18h5.52Zm10.74-2.82c-.24,9.6-1.38,21.66-5.82,30.84a16.09,16.09,0,0,0-2.7-2.64c4.86-9.84,5.1-24.36,5.1-33.42v-13.86c8.46-.72,18.66-1.92,24.42-3.48l2.28,2.82a157,157,0,0,1-23.22,3.24v3.12h22.68v13.38Zm18.9,26.34c1.8,0,2.28-.66,2.46-6.72a14.24,14.24,0,0,0,3,1.2c-.36,8-1.62,9.18-5.52,9.18h-12c-4.8,0-6.84-1.8-6.84-4.86,0-2.34.54-5.22,15.48-17.4H157.74v-3.36H176l.78-.06,2.34,1.14a1.68,1.68,0,0,1-.48.72c-17.82,14.1-19.2,16.68-19.2,18.54,0,1.14,1.2,1.62,3.24,1.62Zm-18.84-36.54v7h19.2v-7Z"/><path class="cls-2" d="M1108.88,1650.64h-25v9h-4v-9h-24.48V1647H1080v-5.16h-18.18v-23.1H1080V1614h-22.62v-3.66H1080v-5.46h4v5.46h22.86V1614h-22.86v4.68h18.66v23.1h-18.66V1647h25Zm-43.26-22H1080v-6.54h-14.34Zm14.34,9.84v-6.6h-14.34v6.6Zm4-16.38v6.54h14.64v-6.54Zm14.64,9.78h-14.64v6.6h14.64Z"/><path class="cls-2" d="M1169.54,1642.06a62,62,0,0,1-8.64,6,22.6,22.6,0,0,0,9.35,8.46,15.38,15.38,0,0,0-2.39,3c-7.08-3.6-11.64-10.86-14-20.16a34.13,34.13,0,0,1-6.24,6.24v8.88l7.86-2.58a13.4,13.4,0,0,0,.36,2.82c-9.72,3.54-11.1,4.14-11.88,4.8a19.1,19.1,0,0,0-1.38-3.48c.72-.3,1.74-1,1.74-3.12V1648a46.2,46.2,0,0,1-6.42,3.66,28.24,28.24,0,0,0-1.74-2.46h-7.8v10.26h-3.6V1649.2h-9.78v-3.54h9.78v-4.8h-7.92v-21.3h7.92v-4.74h-9.18v-3.48h9.18v-6.42h3.66v6.42h9.36v3.48h-9.36v4.74h8.22v21.3h-8.28v4.8h8.34v2.4a37,37,0,0,0,13.8-9.9h-9.6v-13h25.26v13h-9.36a38.61,38.61,0,0,0,2.7,7.26,58.6,58.6,0,0,0,7.62-5.94ZM1120,1628.68h5v-6.06h-5Zm0,9.12h5v-6.18h-5Zm13.38-15.18h-5.28v6.06h5.28Zm0,9h-5.28v6.18h5.28Zm35.69-10.08h-30.17v-3.36h12.72v-5.28H1141v-3.24h10.62v-4.74h3.72v4.74h11.76v3.24h-11.76v5.28h13.73Zm-24.53,13.56h17.81v-6.84h-17.81Z"/><path class="cls-2" d="M1105.88,1233.64h-25v9h-4v-9h-24.48V1230H1077v-5.16h-18.18v-23.1H1077V1197h-22.62v-3.66H1077v-5.46h4v5.46h22.86V1197h-22.86v4.68h18.66v23.1h-18.66V1230h25Zm-43.26-22H1077v-6.54h-14.34Zm14.34,9.84v-6.6h-14.34v6.6Zm4-16.38v6.54h14.64v-6.54Zm14.64,9.78h-14.64v6.6h14.64Z"/><path class="cls-2" d="M1126.1,1200.88a86,86,0,0,1-4.2,8v33.54h-3.66v-27.9a67.52,67.52,0,0,1-4.5,5.7,21.28,21.28,0,0,0-2.46-3.42,60.53,60.53,0,0,0,11.28-17.1Zm-1.2-11.7a59.86,59.86,0,0,1-10.74,13.92,19.41,19.41,0,0,0-2.16-2.94,46.29,46.29,0,0,0,9.24-12.3Zm3.48,16.56c-.36.42-.72.84-1.14,1.26a10.08,10.08,0,0,0-2.82-2.16,41.58,41.58,0,0,0,9.06-16.74l3.66.54c-.48,1.44-1,2.82-1.5,4.32h7.74l.54-.18,2.4,1.56a51,51,0,0,1-3.54,7.56h6.72v19.92h-21.12Zm12.48,17c-.12,1.2-.3,2.28-.48,3.36h10.68v3.36h-10.32a57.64,57.64,0,0,1,9.3,8.34l-2.46,2.52a58.94,58.94,0,0,0-8.94-8.4c-2,4.5-5.34,7.86-11.28,10a9.12,9.12,0,0,0-2.1-2.7c5.94-2,8.94-5.34,10.5-9.78h-9.48v-3.36h10.44c.18-1.08.36-2.16.48-3.36Zm-6.66-26.58a40.9,40.9,0,0,1-3.12,5.7h8.1a45.39,45.39,0,0,0,2.58-5.7Zm3.36,14.22v-5.52h-6.06v5.52Zm-6.06,2.82v5.64h6.06v-5.64Zm14.76-8.34h-5.64v5.52h5.64Zm0,8.34h-5.64v5.64h5.64Zm20-2.82h-5.11v27.3c0,2.1-.35,3.12-1.8,3.78-1.25.66-3.41.72-6.71.72a12.28,12.28,0,0,0-1.14-3.66c2.4.06,4.56.06,5.16,0s.9-.24.9-.84v-27.3h-6.18v-3.66h14.88Zm-1.15-14.7h-12.35v-3.66h12.35Z"/><path class="cls-2" d="M212.21,1061.39a652.63,652.63,0,0,0,179,1.15q25-3.3,49.67-8.51c1.42-.29.82-2.46-.59-2.17a648.5,648.5,0,0,1-88.39,12.41,653.57,653.57,0,0,1-89.06.21q-25.09-1.67-50-5.26c-1.41-.2-2,2-.59,2.17Z"/><path class="cls-2" d="M211.13,1416a359.67,359.67,0,0,0,36,40,225.52,225.52,0,0,0,42.46,32,157.38,157.38,0,0,0,47.69,18.22,137.43,137.43,0,0,0,49.61.84,107.56,107.56,0,0,0,45-18.53q2.42-1.77,4.73-3.68c1.12-.92-.48-2.5-1.59-1.59a102.81,102.81,0,0,1-43.36,20.57,131.47,131.47,0,0,1-48.87,1.1,151.79,151.79,0,0,1-47.46-16.31,213.92,213.92,0,0,1-42.56-30.43,337.64,337.64,0,0,1-36-38.58c-1.37-1.7-2.74-3.42-4.09-5.14-.89-1.14-2.47.46-1.59,1.59Z"/><path class="cls-2" d="M195.53,1442.74c16.78,55.53,48,105.68,87.09,148.22s86.19,78.06,136.89,105.92c57,31.34,122,56.12,188.17,51.34,28.42-2,56.64-9.57,81.79-23.1a159.89,159.89,0,0,0,61.62-58.23C781.32,1616.65,783.78,1555,783,1498c-.09-7.07-.25-14.13-.42-21.2a1.13,1.13,0,0,0-2.25,0c1.37,56.83,2.28,117.32-21.48,170.28-11.83,26.37-30,49.25-53.78,65.81s-51.34,26.62-79.71,31.07c-65.45,10.26-131.35-11.25-189.08-40.72-50.72-25.9-98-59.18-138.29-99.48s-73.84-88.24-93.73-142q-3.6-9.74-6.59-19.66a1.12,1.12,0,0,0-2.17.59Z"/><path class="cls-2" d="M706.59,1135c22.15-9.71,44.33-19.42,67.15-27.47,22.37-7.89,45.42-14.23,69-17,22.33-2.67,45.2-2.33,67.23,2.49a159.74,159.74,0,0,1,60.08,27.46c17.78,12.95,33.38,28.61,48.6,44.41l5.67,5.92c1,1,2.6-.54,1.6-1.59-15.39-16.06-30.88-32.18-48.44-45.92s-37.16-24.56-58.8-30.46c-21.92-6-45-7.31-67.53-5.42-23.71,2-46.95,7.6-69.5,15.06-23.15,7.67-45.61,17.24-67.94,27l-8.27,3.62c-1.33.58-.18,2.52,1.13,1.94Z"/><path class="cls-2" d="M651,1559.35a489.31,489.31,0,0,0,65.8,36.13A504.5,504.5,0,0,0,787,1621.19a512.11,512.11,0,0,0,73.54,15.19,503.51,503.51,0,0,0,75,4.22,491,491,0,0,0,74.4-7c3-.53,6.1-1.09,9.13-1.67,1.42-.27.82-2.44-.59-2.17a486.79,486.79,0,0,1-74.29,8.39A507.29,507.29,0,0,1,725.87,1597a490,490,0,0,1-65.9-34.62q-3.93-2.48-7.81-5c-1.22-.8-2.35,1.15-1.14,1.94Z"/><rect class="cls-2" x="1113" y="1317" width="65" height="220" rx="12"/><path class="cls-1" d="M1157.05,1355.79a27.61,27.61,0,0,0,11.5,8.1,11.65,11.65,0,0,0-2.15,2.55,30.77,30.77,0,0,1-12.8-10.65h-15.95a34.39,34.39,0,0,1-13,11.3,11.43,11.43,0,0,0-2.15-2.55,30.39,30.39,0,0,0,11.6-8.75H1123v-2.85h10v-16.15h-7.7V1334h7.7v-5h3.3v5h18.55v-5h3.35v5h7.65v2.8h-7.65v16.15h9.8v2.85Zm-10,14.5h17.3v2.85H1126.8v-2.85h16.9v-5.6h-10.45v-2.8h10.45v-4.4h3.35v4.4h10.65v2.8h-10.65Zm-10.8-33.5v3.6h18.55v-3.6Zm0,9.8h18.55v-3.65h-18.55Zm0,6.35h18.55v-3.8h-18.55Z"/><path class="cls-1" d="M1141.25,1397.54s0,1.15,0,1.55c-.6,15.85-1.2,21.2-2.6,23a3.71,3.71,0,0,1-2.8,1.45,32.65,32.65,0,0,1-4.45,0,9.25,9.25,0,0,0-.85-3c1.75.15,3.2.15,3.9.15a1.42,1.42,0,0,0,1.45-.65c1-1.2,1.6-6,2.15-19.35h-6.8c-.55,10-2,18.25-6.45,23.65a9.53,9.53,0,0,0-2.55-2.35c5.45-6.45,5.9-17.85,6.1-31.55h-5.2v-3.1h20.1v3.1h-11.65c0,2.45-.1,4.85-.2,7.15Zm-7.9-10.45a33.47,33.47,0,0,0-4.25-7.15l2.9-1.15a31.92,31.92,0,0,1,4.4,7Zm23.85-7.45a15.26,15.26,0,0,1-.85,2.55c2.65,5.45,7.7,11.35,12.45,14a13,13,0,0,0-2.45,2.75c-4.25-2.7-8.5-8-11.4-13.3a32.61,32.61,0,0,1-11,13.6,12.79,12.79,0,0,0-2.35-2.65c5.85-3.6,10.35-10.2,12.5-17.85Zm-8.3,32.45a74,74,0,0,1,13.6,8.25l-2.25,2.9c-2.85-2.6-8.75-6.3-13.4-8.65Zm9.5-4.85a66.22,66.22,0,0,0-8.6-6.85l2.15-2.2a67.46,67.46,0,0,1,8.75,6.55Z"/><path class="cls-1" d="M1148.6,1429.94c-.35.6-.8,1.15-1.2,1.75,4.95,5.5,13.85,10.9,21.4,13.3a16.56,16.56,0,0,0-2.35,2.9,60.7,60.7,0,0,1-21-13.9,48.65,48.65,0,0,1-12.4,10h25.1v3.1h-11.1v7.05h17.75v3H1147.1v12.7H1167v3.1h-43v-3.1h19.55v-12.7h-17.35v-3h17.35v-7.05h-10.9v-2.9a58.72,58.72,0,0,1-8.25,3.85,11.79,11.79,0,0,0-2.25-3c9.35-3.1,18.55-9.1,23.3-16.5Zm-15.25,28.65a42.46,42.46,0,0,1,4.8,9.1l-2.9,1.2a40.78,40.78,0,0,0-4.65-9.2Zm18.55,9.3a71.79,71.79,0,0,0,5.35-9.35l3.15,1.25a101.62,101.62,0,0,1-6,9.2Z"/><path class="cls-1" d="M1160,1491.09a51.83,51.83,0,0,1-12,19.6,49.94,49.94,0,0,0,20.5,10.5,16.79,16.79,0,0,0-2.25,3,50.92,50.92,0,0,1-20.75-11.1c-5.65,5-12.55,8.6-21,11.3a15.53,15.53,0,0,0-2-3.05c8.35-2.45,15.1-5.9,20.6-10.6a57.05,57.05,0,0,1-12.2-19.65h-7.75v-3.25h44.75v3.25Zm-25.75,0a52.13,52.13,0,0,0,11.3,17.3,47.46,47.46,0,0,0,10.7-17.3Zm11.25-3.55a38.13,38.13,0,0,0-3.8-7.8l3.4-1a39,39,0,0,1,4,7.65Z"/></svg>