<svg id="Layer_1" data-name="Layer 1" xmlns="http://www.w3.org/2000/svg" viewBox="0 0 1242 2208"><defs><style>.cls-1{fill:#f6eabe;}.cls-2{fill:#999;}.cls-3{fill:none;}</style></defs><rect class="cls-1" width="1242" height="2208"/><path d="M965.68,563.06v51.61H250.29V563.06h185V370.12H282.85V319.3H435.29V156.53h54V319.3H722.72V156.53h54V319.3H936.3v50.82H776.71V563.06ZM529,684.54C472.61,753.62,382.09,826.66,301.9,872.71c-9.53-11.11-28.58-27.79-40.49-37.31,77.81-42.88,168.32-111.16,212.79-171.51Zm-39.7-121.48H722.72V370.12H489.28Zm233.44,100c73.84,52.4,173.09,127.83,223.9,176.27L897.4,871.92C849.76,824.28,752.89,745.68,677.46,690.1Z"/><rect class="cls-2" x="1114" y="437" width="65" height="126" rx="12"/><path class="cls-1" d="M1133.7,466.82c1.25,1.6,4.9,6.7,5.7,8.05l-2,2.45c-.7-1.5-2.35-4.4-3.75-6.65V497h-3.15V472.57c-1.5,5.05-3.5,9.9-5.55,12.85a14.83,14.83,0,0,0-1.75-3.1c2.9-4,5.8-11.5,7.2-18h-6.2v-3.15h6.3v-9.65h3.15v9.65h5.45v3.15h-5.45Zm19.1.7a19.47,19.47,0,0,0,.45,2.65c-10.15,2.7-11.6,3.15-12.5,3.75a12.13,12.13,0,0,0-1.1-3.2c.7-.2,1.55-.5,1.55-2.2v-16.7h3.25v6.5h8.35v2.9h-8.35v8.3Zm2.35,5.5-2,3.75h12.65V497h-3.4v-1.75h-17v2h-3.3V476.77h7.9c.55-1.5,1.2-3.25,1.55-4.6Zm7.3,6.5h-17v5.05h17Zm0,13v-5.3h-17v5.3Zm2.25-22.4c1.25,0,1.5-.75,1.65-5.25a9.16,9.16,0,0,0,2.85,1.25c-.3,5.45-1.2,6.95-4.15,6.95h-5.85c-3.65,0-4.55-.95-4.55-4.45V451.87h3.25v6.5h10.2v2.9h-10.2v7.35c0,1.3.25,1.5,1.65,1.5Z"/><path class="cls-1" d="M1168.55,526.87v2.5H1124.4v-2.5h20.25v-3.2H1127.8v-2.3h16.85v-3H1129.2v-2.25h15.45v-3.2H1124.5v-2.5h20.15v-3.05H1129.8V505h14.85v-3.55h3.25V505h14.45v5.4h6.15v2.5h-6.15v5.45H1147.9v3h17.3v2.3h-17.3v3.2Zm-37.75,5h31.75v15.25h-3.25v-1.6H1134v1.7h-3.2Zm3.2,2.4v3.2h25.3v-3.2Zm25.3,8.85v-3.4H1134v3.4Zm-11.4-32.7h11.15v-3.05H1147.9Zm0,5.7h11.15v-3.2H1147.9Z"/><path d="M384.92,1859.69a98.85,98.85,0,0,1-6.18,13.56v39.59H374.9v-33.35a61.73,61.73,0,0,1-5.46,7,32.86,32.86,0,0,0-2.28-3.9c5.58-5.87,10.8-14.87,14-24Zm34.14,28c-2.1,1.26-4.44,2.64-6.84,3.78,2,6.06,5.82,11.82,10.38,14.52a11.2,11.2,0,0,0-2.64,2.94c-4.62-3.18-8.46-9.42-10.68-16a27.45,27.45,0,0,1-2.76,1.2c2.58,6.84,1.86,14-1,16.68a6.91,6.91,0,0,1-5.22,1.92c-1.08,0-2.4-.06-3.78-.18a9.31,9.31,0,0,0-1-3.42,38.26,38.26,0,0,0,4.14.24,3.66,3.66,0,0,0,3.12-1.14c1.56-1.38,2.22-5.16,1.44-9.36-5.16,4.92-13.08,9.36-19.8,11.7a15.8,15.8,0,0,0-2.34-2.82c7.62-2.28,16.62-7.14,21.3-12.24a35.76,35.76,0,0,0-1.5-3.48,63.52,63.52,0,0,1-17.22,9.9,16.14,16.14,0,0,0-2.22-2.64c5.94-1.8,13.74-5.76,17.88-9.54a16.39,16.39,0,0,0-2.94-3.18,58.44,58.44,0,0,1-13.56,7.26,11.26,11.26,0,0,0-2.22-2.58,52.48,52.48,0,0,0,15.06-7.56H386.48v-9.35c-1.14,1-2.28,2-3.54,2.94a9.54,9.54,0,0,0-2.52-2.59,44.59,44.59,0,0,0,13.86-16.25l3.84.72c-.6,1.2-1.32,2.34-2,3.54h11.1l.72-.18,2.34,1.68a52.13,52.13,0,0,1-4.8,6.84h13.08v12.65H400.94a15.29,15.29,0,0,1-1.2,1,21,21,0,0,1,5.64,6.84,111.93,111.93,0,0,0,10.92-6.42ZM394,1865.81a54.58,54.58,0,0,1-4.2,5.16h11.58a37.88,37.88,0,0,0,3.72-5.16Zm-3.9,14.69h10.5v-6.42h-10.5Zm24.72-6.42H404.18v6.42H414.8Z"/><path d="M481.64,1906.3v4H428.48v-4h18.06v-31.91H430.1v-3.84H465l-2.82-1.08a71.71,71.71,0,0,0,6.18-11.1l4.2,1.32a99.91,99.91,0,0,1-6.78,10.86H480v3.84H463.1v31.91Zm-45.12-25.85a66.6,66.6,0,0,1,6.18,19l-3.84,1c-.54-5.22-3-13.08-5.88-19Zm7.56-10a43.74,43.74,0,0,0-6-10.62l3.48-1.38a41.45,41.45,0,0,1,6.12,10.32Zm6.42,35.87h8.7v-31.91h-8.7Zm15.9-6.9a131.39,131.39,0,0,0,6.78-19.56l4.14,1.08a196.29,196.29,0,0,1-7.38,19.62Z"/><path d="M497.72,1890.52V1908c0,2.16-.54,3.12-1.8,3.78s-3.3.72-6.66.72a18.55,18.55,0,0,0-1.14-3.54c2.4.06,4.44.06,5,0s1-.18,1-1V1891.9c-1.86.78-3.72,1.44-5.4,2.1l-1.14-3.78c1.86-.6,4.08-1.44,6.54-2.39v-13.56h-6v-3.72h6v-12.18h3.54v12.18h4.68v3.72h-4.68v12.23l4.44-1.67.66,3.65Zm23.16,18.06c0,1.74-.3,2.76-1.56,3.3s-3.12.66-6.18.66a9.67,9.67,0,0,0-1.2-3.24c2.28.06,4.2.06,4.8.06s.78-.24.78-.84v-8.1l-7.8,3.54-1.38-2.88c2.52-.78,5.7-2,9.18-3.3v-11.64h-8.94v8.58c0,5.52-.54,13-3.6,18.42a12.43,12.43,0,0,0-2.64-2c2.7-4.86,2.94-11.46,2.94-16.38V1883h15.6Zm-1-39.83c-.72,2.52-1.62,5.21-2.4,7.37h5.28v3.37H503.06v-3.37h11.46a65.35,65.35,0,0,0,2.28-8.27Zm2.22-1.32H503.84v-3.24h8.1c-.54-1.68-1.26-3.72-1.92-5.28l3.3-.78a55.17,55.17,0,0,1,2.4,6.06h6.36Zm-13.8,8.45a69.1,69.1,0,0,0-2-7.13l2.64-.9a48.51,48.51,0,0,1,2.16,7Zm2.46,13.5a38.42,38.42,0,0,1,6.24,2.82l-1.56,2.34c-1.5-.84-4.2-2.16-6.3-3.06Zm26.7,19.44c1.32,0,1.62-.6,1.8-4a9.9,9.9,0,0,0,3.24,1.44c-.42,4.68-1.5,6-4.74,6h-7.5c-4.14,0-5.28-1-5.28-5.4v-26.57h12v-5.94H525v-16h3.6v5H542v3.36H528.56v4.56h11.7v12.18h-11.7v3.77h11.58V1890H528.56v3.84h10.92v2.88H528.56v3.9h12.06v2.88H528.56v3.36c0,1.68.3,1.92,2.16,1.92Z"/><path d="M576.56,1865.87v7.92h22.26v34.31c0,2.28-.54,3.48-2.22,4.08s-4.68.66-8.94.66a14.79,14.79,0,0,0-1.38-3.6c3.42.12,6.54.12,7.5.06s1.14-.3,1.14-1.2v-30.6H576.56v35.1h-3.78v-35.1h-17.4v35.34h-3.84v-39h21.24v-7.92h-23.4V1862h51.54v3.9Zm-9.84,16.43c0,6.12.42,13.92,5.76,20a8.65,8.65,0,0,0-2.28,1.8A23.88,23.88,0,0,1,565,1892.8a27.16,27.16,0,0,1-6.24,11.4,14.22,14.22,0,0,0-2.34-1.8c4.08-3.9,6.24-9.9,7.2-17.15h-3.9v-3Zm21.12,0c0,6.18.48,13.92,6.24,19.92a11.7,11.7,0,0,0-2.4,1.74,23.65,23.65,0,0,1-5.58-11.64,27.62,27.62,0,0,1-6.18,11.46,15,15,0,0,0-2.34-1.8c4-3.84,6.06-9.72,7.08-16.73h-4.08v-3Z"/><path d="M661.94,1893.22H637.1v14c0,3-1,4.2-3.06,4.86s-5.94.72-12.3.66a17.27,17.27,0,0,0-1.74-3.9c5.16.12,9.84.06,11.16.06s1.86-.48,1.86-1.74v-13.92H608.18v-3.9H633v-10.2H612.14v-3.83H633v-9.6c-6.66.66-13.56,1.14-19.8,1.44a16.18,16.18,0,0,0-1-3.54c14.16-.72,31.8-2.28,40.74-5.16l2.94,3.24a123.25,123.25,0,0,1-18.78,3.6v10h21.48v3.83H637.1v10.2h24.84Z"/><path d="M693,1895.8c-8.34,3.84-17.52,7.86-24.06,10.74l-1.44-4.08c2.34-.9,5.16-2.1,8.28-3.42l-1-37.55,4-.12.9,36c4-1.74,8.22-3.6,12.36-5.46Zm26.64,17c-2.82-4.2-8.58-10.68-13.8-16.14-4.68,7.2-11.4,12.54-21,16.5a31.65,31.65,0,0,0-3.12-3.42c20.88-7.56,27.24-22.14,29.94-48.35l4.32.42c-1.44,13-3.78,23.21-8,31.31,5.46,5.4,11.88,12.24,15.06,16.56Zm-23.22-30.6c-1.56-4.14-5.46-10.25-9.24-14.63l3.42-1.74a56.51,56.51,0,0,1,9.54,14.27Z"/><path d="M745.28,1859.63a96,96,0,0,1-6.24,13v40.25h-3.9v-34.19a68.44,68.44,0,0,1-6.36,7.73,20.3,20.3,0,0,0-2.28-3.9c6-5.81,11.64-14.81,15.06-24Zm12.66,39.29a56.33,56.33,0,0,1-11.4,14,16.81,16.81,0,0,0-3.18-2.52,43.63,43.63,0,0,0,10.86-12.54Zm24.42-8.58v3.9H743.6v-3.9H753v-15.17H745.1v-3.84H753V1859h3.9v12.3H769V1859h3.9v12.3h8.7v3.84h-8.7v15.17Zm-25.44,0H769v-15.17H756.92Zm14,7.62a72.16,72.16,0,0,1,10.74,12.9l-3.36,2.22c-2-3.72-6.48-9.3-10.44-13.32Z"/><path d="M827.12,1883a33.48,33.48,0,0,0,15.66,11.22,18.7,18.7,0,0,0-2.58,3.18,38.34,38.34,0,0,1-17.34-14.4H807.8a43.81,43.81,0,0,1-17.88,14.76,20.64,20.64,0,0,0-2.7-2.94A41.05,41.05,0,0,0,802.94,1883H789.68v-3.35h15.78a50.8,50.8,0,0,0,2.82-5h-14.1v-3.12h15.48c.6-1.49,1.2-3,1.68-4.61H792.26v-3.24h20c.48-1.74.9-3.6,1.26-5.4l4.08.84c-.36,1.5-.72,3.06-1.14,4.56H837.8v3.24H815.48c-.48,1.62-1,3.12-1.56,4.61h21.3v3.12H812.54a49,49,0,0,1-2.58,5h30.48V1883ZM817,1899.76h19.08v3.54H817V1913h-4v-9.72H793.34v-3.54H813V1894H801.74v-3.42H813v-5.64h4v5.64H828.2V1894H817Z"/><path d="M853.88,1894c4.68-2,7.26-4.86,7.56-9.17a4,4,0,0,1-1.14.11c-2.34,0-4.26-1.32-4.26-4.07a4,4,0,0,1,4.32-4.08c3.18,0,4.86,2.58,4.86,6.66,0,6.41-4,11.21-10.08,13.43Z"/><path d="M457.46,1979.62a70.7,70.7,0,0,0,7.38.36c2.1.06,14.76,0,17.58-.06a16.36,16.36,0,0,0-1.44,3.84H464.72c-12.3,0-19.92-1.92-24.72-10.38a31.55,31.55,0,0,1-9.48,11.7,19.84,19.84,0,0,0-3.06-2.82c6.3-4.14,10.2-10.92,11.82-19.86l4,.6a55.92,55.92,0,0,1-1.5,6.06c2.34,5.64,6.3,8.52,11.7,9.84v-18.54H428.72v-3.6H481.4v3.6H457.46v7.08h20v3.6h-20Zm17.22-27.17h-39.6v-19.56h39.6Zm-4-16.44H439v5.16h31.68Zm0,8.1H439v5.27h31.68Z"/><path d="M514,1933.49H499.22v35.15h-4v-38.87H514Z"/><path d="M529.28,1962.46v17.64c0,2.34-.54,3.42-1.92,4.14s-3.66.78-7.5.72a15.56,15.56,0,0,0-1.2-3.84c2.64.12,5,.12,5.7.06s1.08-.24,1.08-1.08v-16.38l-7.38,2.46-1.14-3.84c2.34-.72,5.28-1.56,8.52-2.63v-13.44h-7.62v-3.72h7.62v-12.18h3.84v12.18h6.78v3.72h-6.78v12.29l6.06-2,.48,3.73Zm19.74,8.7A47.52,47.52,0,0,1,537,1985a28.51,28.51,0,0,0-3.3-2.58,37.68,37.68,0,0,0,11.4-12.42Zm23.28-8.82v3.9H536v-3.9h8.52v-15.17h-6.84v-3.84h6.84V1931h3.84v12.3h11.4V1931h3.9v12.3h7.56v3.84h-7.56v15.17Zm-23.94,0h11.4v-15.17h-11.4Zm13.44,7.74a73,73,0,0,1,10.26,12.78L568.7,1985a76.13,76.13,0,0,0-10.14-13.14Z"/><path d="M576,1981.84h14.82v-35.15h4v38.87H576Z"/><path d="M624,1931c-1,2.94-2.1,6.3-3.18,8.88H631v38.75h-16.8v4.8h-3.66v-43.55h6.66a64.68,64.68,0,0,0,2.58-9.72Zm3.3,12.47H614.18v13.08h13.14Zm0,31.56v-14.88H614.18v14.88Zm33.06-33.17c-1,27.53-1.8,36.71-4.2,39.59a5.6,5.6,0,0,1-4.56,2.28,74.94,74.94,0,0,1-8.82-.12,9.42,9.42,0,0,0-1.32-3.9c3.9.36,7.5.36,8.82.36s1.92-.12,2.52-.9c2-2.1,2.94-11.34,3.72-35.7H640.82a55.33,55.33,0,0,1-5.64,10.68,36.22,36.22,0,0,0-3.36-2.22c4.08-5.34,7.32-13.61,9.18-21.89l3.84.84c-.78,3-1.62,6-2.64,8.88h18.18Zm-12.78,27a106.51,106.51,0,0,0-9.3-13.92l3.06-1.79a102.47,102.47,0,0,1,9.6,13.61Z"/><path d="M687.86,1969.06c-1.26-1.86-4.08-5.64-6.48-8.52v24.36H677.3v-23.64a61.07,61.07,0,0,1-7.68,7.62,13.85,13.85,0,0,0-2.22-3.66,60.27,60.27,0,0,0,16.38-20.51h-15.3v-3.66h17.28l.78-.18,2.34,1.62a62.93,62.93,0,0,1-7.44,13.43c.6.66,1.32,1.5,2.16,2.41a46.19,46.19,0,0,0,4.86-5.88l2.82,2.27c-1.86,1.92-4,4-5.82,5.64,2.1,2.28,4.14,4.56,4.92,5.46Zm-7.8-28.61a50.51,50.51,0,0,0-5.16-8.4l3.06-1.68a46,46,0,0,1,5.28,8Zm40-2.7c-.84,31-1.68,41.33-4.08,44.33a5.75,5.75,0,0,1-4.5,2.46,63.83,63.83,0,0,1-8.82-.12,10.21,10.21,0,0,0-1.2-3.84c3.78.3,7.14.36,8.52.36a2.7,2.7,0,0,0,2.46-1c2-2.28,2.88-12.48,3.72-40.55H704.06c-1,21.59-3.9,36.17-15.24,45.71a18.44,18.44,0,0,0-3.06-3.06c11-8.4,13.44-22.62,14.22-42.65h-10.2v-3.84h30.3Z"/><path d="M772.46,1944.89c-3.48,9.65-8.22,17.33-14.4,23.51a59.93,59.93,0,0,0,24.6,12.6,20.15,20.15,0,0,0-2.7,3.6,61.1,61.1,0,0,1-24.9-13.32c-6.78,5.94-15.06,10.32-25.14,13.56a18.63,18.63,0,0,0-2.46-3.66c10-2.94,18.12-7.08,24.72-12.72a68.52,68.52,0,0,1-14.64-23.57h-9.3V1941h53.7v3.9Zm-30.9,0a62.52,62.52,0,0,0,13.56,20.75A57,57,0,0,0,768,1944.89Zm13.5-4.26a45.75,45.75,0,0,0-4.56-9.36l4.08-1.2a46.78,46.78,0,0,1,4.8,9.18Z"/><path d="M800.18,1948.67a9.06,9.06,0,1,1-9.06,9A9.09,9.09,0,0,1,800.18,1948.67Zm0,15.23a6.18,6.18,0,1,0,0-12.36,6.18,6.18,0,1,0,0,12.36Z"/><path d="M176.9,2019.17c4.44,10.31,12.24,20,20.76,24.71a23.11,23.11,0,0,0-3.06,3.36c-9-5.58-16.92-16.32-21.6-28.07h-1v22.43h14.28v4H172V2057H167.9v-11.4H153.68v-4H167.9v-22.43h-1.08c-4.74,11.75-12.66,22.43-21.3,28.25a24.18,24.18,0,0,0-2.88-3.18c8-4.92,15.66-14.76,20.16-25.07H144.14v-4H167.9v-12.72H172v12.72h24v4Z"/><path d="M251.9,2041.54a33.64,33.64,0,0,1-8.22,7.38c2.4,2.82,5.22,4.44,8.16,4.38,1.68-.06,2.16-1.5,2.46-5.94a10.31,10.31,0,0,0,3.12,1.62c-.6,6.3-2.1,7.92-5.76,8-4.26,0-8.16-2.22-11.28-6a74.41,74.41,0,0,1-13.68,5.82,36.46,36.46,0,0,0-2.1-3.24,65.61,65.61,0,0,0,13.86-5.34,34.94,34.94,0,0,1-3.84-8.82H220.16v4.38l11.16-1-.06,2.88-11.1,1.08v6.12c0,2.1-.48,3.06-2.16,3.54s-4.38.54-8.94.54a19.42,19.42,0,0,0-1.26-3.18c3.36.12,6.48.06,7.38,0s1.2-.24,1.2-1v-5.7c-4.74.48-9.12.9-12.72,1.2l-.42-3.3c3.54-.24,8.1-.54,13.14-1v-4.68h-12.9v-3.18h12.9v-4.44c-3.78.42-7.68.72-11.28.91a12,12,0,0,0-.9-2.71c8.16-.48,18.18-1.55,23.52-2.94l2.52,2.58c-2.82.66-6.36,1.26-10.08,1.74v4.86h13.68a52.67,52.67,0,0,1-1.2-8.94h3.84a57.48,57.48,0,0,0,1.2,8.94h19v3.18H238.58a31.91,31.91,0,0,0,3.12,6.9,27.09,27.09,0,0,0,6.72-5.94Zm4.62-15.17h-53v-3.25H227.9V2019H209.3v-3.06h18.6v-4H206.06v-3.18h12.66a30,30,0,0,0-3.48-5.16l3.42-1.26a24.4,24.4,0,0,1,4.32,6.24l-.42.18H237.2a54.7,54.7,0,0,0,3.6-6.6l4.14,1.2c-1.2,1.86-2.52,3.84-3.72,5.4h12.84V2012H231.92v4h18.9V2019h-18.9v4.13h24.6Zm-5.7,9a34,34,0,0,0-9.48-5.52l2.16-2.46a38.32,38.32,0,0,1,9.66,5.22Z"/><path d="M292.46,2051.62a70.7,70.7,0,0,0,7.38.36c2.1.06,14.76,0,17.58-.06a16.36,16.36,0,0,0-1.44,3.84H299.72c-12.3,0-19.92-1.92-24.72-10.38a31.55,31.55,0,0,1-9.48,11.7,19.84,19.84,0,0,0-3.06-2.82c6.3-4.14,10.2-10.92,11.82-19.86l4,.6a55.92,55.92,0,0,1-1.5,6.06c2.34,5.64,6.3,8.52,11.7,9.84v-18.54H263.72v-3.6H316.4v3.6H292.46v7.08h20v3.6h-20Zm17.22-27.17h-39.6v-19.56h39.6Zm-4-16.44H274v5.16h31.68Zm0,8.1H274v5.27h31.68Z"/><path d="M340.28,2003.63a96,96,0,0,1-6.24,13v40.25h-3.9v-34.19a68.44,68.44,0,0,1-6.36,7.73,20.3,20.3,0,0,0-2.28-3.9c6-5.81,11.64-14.81,15.06-24Zm12.66,39.29a56.33,56.33,0,0,1-11.4,14,16.81,16.81,0,0,0-3.18-2.52,43.63,43.63,0,0,0,10.86-12.54Zm24.42-8.58v3.9H338.6v-3.9H348v-15.17H340.1v-3.84H348V2003h3.9v12.3H364V2003h3.9v12.3h8.7v3.84h-8.7v15.17Zm-25.44,0H364v-15.17H351.92Zm14,7.62a72.16,72.16,0,0,1,10.74,12.9l-3.36,2.22c-2-3.72-6.48-9.3-10.44-13.32Z"/><path d="M422.12,2027a33.48,33.48,0,0,0,15.66,11.22,18.7,18.7,0,0,0-2.58,3.18,38.34,38.34,0,0,1-17.34-14.4H402.8a43.81,43.81,0,0,1-17.88,14.76,20.64,20.64,0,0,0-2.7-2.94A41.05,41.05,0,0,0,397.94,2027H384.68v-3.35h15.78a50.8,50.8,0,0,0,2.82-5h-14.1v-3.12h15.48c.6-1.49,1.2-3,1.68-4.61H387.26v-3.24h20c.48-1.74.9-3.6,1.26-5.4l4.08.84c-.36,1.5-.72,3.06-1.14,4.56H432.8v3.24H410.48c-.48,1.62-1,3.12-1.56,4.61h21.3v3.12H407.54a49,49,0,0,1-2.58,5h30.48V2027ZM412,2043.76h19.08v3.54H412V2057h-4v-9.72H388.34v-3.54H408V2038H396.74v-3.42H408v-5.64h4v5.64H423.2V2038H412Z"/><path d="M448.88,2038c4.68-2,7.26-4.86,7.56-9.17a4,4,0,0,1-1.14.11c-2.34,0-4.26-1.32-4.26-4.07a4,4,0,0,1,4.32-4.08c3.18,0,4.86,2.58,4.86,6.66,0,6.41-4,11.21-10.08,13.43Z"/><path d="M522.92,2014v42.77h-4.08v-3.54H481.1V2057h-4v-43h20.7v-11.58h4.08V2014Zm-41.82,4v13.5h16.74V2018Zm0,31.26h16.74v-13.86H481.1ZM501.92,2018v13.5h16.92V2018Zm16.92,31.26v-13.86H501.92v13.86Z"/><path d="M561.56,2009.87v7.92h22.26v34.31c0,2.28-.54,3.48-2.22,4.08s-4.68.66-8.94.66a14.79,14.79,0,0,0-1.38-3.6c3.42.12,6.54.12,7.5.06s1.14-.3,1.14-1.2v-30.6H561.56v35.1h-3.78v-35.1h-17.4v35.34h-3.84v-39.05h21.24v-7.92h-23.4V2006h51.54v3.9Zm-9.84,16.43c0,6.12.42,13.92,5.76,20a8.65,8.65,0,0,0-2.28,1.8A23.88,23.88,0,0,1,550,2036.8a27.16,27.16,0,0,1-6.24,11.4,14.22,14.22,0,0,0-2.34-1.8c4.08-3.9,6.24-9.9,7.2-17.15h-3.9v-3Zm21.12,0c0,6.18.48,13.92,6.24,19.92a11.7,11.7,0,0,0-2.4,1.74,23.65,23.65,0,0,1-5.58-11.64,27.62,27.62,0,0,1-6.18,11.46,15,15,0,0,0-2.34-1.8c4-3.84,6.06-9.72,7.08-16.73h-4.08v-3Z"/><path d="M646.94,2037.22H622.1v14c0,3-1,4.2-3.06,4.86s-5.94.72-12.3.66a17.27,17.27,0,0,0-1.74-3.9c5.16.12,9.84.06,11.16.06s1.86-.48,1.86-1.74v-13.92H593.18v-3.9H618v-10.2H597.14v-3.83H618v-9.6c-6.66.66-13.56,1.14-19.8,1.44a16.18,16.18,0,0,0-1-3.54c14.16-.72,31.8-2.28,40.74-5.16l2.94,3.24a123.25,123.25,0,0,1-18.78,3.6v10h21.48v3.83H622.1v10.2h24.84Z"/><path d="M667,2024.62c2,2.05,7.68,8.59,8.94,10.2l-2.52,3.24a96.69,96.69,0,0,0-6.42-8.88v27.66h-3.78v-29.58c-2.4,7.2-5.7,14.22-9.06,18.42a27.23,27.23,0,0,0-2.16-3.6c4.2-5,8.52-14.63,10.74-23.09h-9.42v-3.72h9.9v-13H667v13h8.76V2019H667Zm38.16-18.71v50.45h-3.9v-3.48h-19v3.66H678.5v-50.63Zm-22.86,3.78v10.5h19v-10.5Zm0,25h19v-10.8h-19Zm19,14.58V2038.3h-19v10.92Z"/><path d="M744.56,2004a20.19,20.19,0,0,1-1.92,2.7c6.9,7.43,15.42,12.48,25.2,16.8a13,13,0,0,0-2.76,3.47c-9.48-4.55-17.64-9.71-24.72-17.39a68.15,68.15,0,0,1-14.46,12.35h29.22v3.72H725v-3.11a76.13,76.13,0,0,1-9.48,4.92,20.23,20.23,0,0,0-2.82-3.42c11.4-4.45,22.38-12.54,28.38-21.78ZM722,2033.14h36.78v23.52h-4.2v-3.24H726v3.48h-4Zm4,3.6v12.9h28.56v-12.9Z"/><path d="M802.7,2032.06s-.06,1.32-.12,1.86c-1.08,13.56-2.1,18.84-4.08,20.82-1.26,1.32-2.46,1.68-4.56,1.8a90.37,90.37,0,0,1-9.48-.18,8,8,0,0,0-1.44-4c4,.36,8,.36,9.48.36s2-.06,2.58-.6c1.5-1.2,2.4-5.7,3.3-16.32h-22.8c1.14-4.56,2.46-11.63,3.24-17.09H798.5v-10.08h-22v-3.78H802.4v17.58H782.3c-.6,3.3-1.2,6.71-1.86,9.65Zm18.36-29.15V2057h-4v-54.11Z"/><path d="M883.28,2010.23v33.29H879.2v-3.18H861.92v16.5h-4.14v-16.5H841v3.54h-4v-33.65h20.76v-7.92h4.14v7.92Zm-42.3,3.84v9.18h16.8v-9.18Zm16.8,22.49V2027H841v9.6Zm4.14-22.49v9.18H879.2v-9.18Zm17.28,22.49V2027H861.92v9.6Z"/><path d="M945.74,2034.17s-.06,1.19-.12,1.73c-1.14,12.66-2.28,17.64-4.14,19.56a5.52,5.52,0,0,1-4,1.56,66.58,66.58,0,0,1-7.5-.12,9.39,9.39,0,0,0-1.2-3.66c3.12.3,6.06.3,7.2.3a3,3,0,0,0,2.22-.54c1.26-1.32,2.4-5.34,3.36-15.3H904a59.21,59.21,0,0,1-9.66,7.32,19.86,19.86,0,0,0-2.22-3.3c10.26-6,17.82-15.18,23.1-25.43h-20v-3.66H917a82.29,82.29,0,0,0,3.84-10.32l3.9,1a92.32,92.32,0,0,1-3.54,9.3H937c-.72,3.48-1.56,7.62-2.34,10.74h7c-.66,3.47-1.5,7.67-2.28,10.8Zm-49.38,20.33c3.42-3.24,5.7-8.58,7-13.2l3.3,1.08c-1.44,4.92-3.54,10.62-7.14,14.16Zm12.42-42.17a39,39,0,0,0-6-8.34l3.42-1.44a39.57,39.57,0,0,1,6.18,8Zm26.82,21.84c.54-2.11,1.08-4.69,1.56-7.21H913.34a75.18,75.18,0,0,1-5.76,7.21Zm-21.48,7.91a44,44,0,0,1,1.8,11.88l-3.48.54a39.57,39.57,0,0,0-1.62-11.94Zm5.4-25.79c-1.14,2.4-2.46,4.79-3.84,7.08h15.24c.54-2,1.14-4.62,1.62-7.08Zm3.18,25a43,43,0,0,1,3.6,10.26l-3.3.9a45.91,45.91,0,0,0-3.42-10.44Zm10.32,8a38.83,38.83,0,0,0-4.56-8.1l2.76-1.08a34.18,34.18,0,0,1,4.74,7.86Z"/><path d="M974.78,2024.45c-7.86,1-15.66,1.85-21.48,2.51l-.54-3.12c1.68-.17,3.72-.35,5.82-.54v-16.73H954v-3.06h28.86v3.06h-4.44V2028h-3.6Zm-6.48,12.41a35.82,35.82,0,0,1-1.92,4.38,61.52,61.52,0,0,1,7.68,7.26l-2.22,2.4a70,70,0,0,0-7-7.08,30.22,30.22,0,0,1-9.24,8.88A23.93,23.93,0,0,0,954,2049a24.84,24.84,0,0,0,11.22-13Zm31.86-6.78a181.72,181.72,0,0,1-18.18,2.76v24.06h-4v-23.64c-6.48.66-13,1.14-18.54,1.38a27.07,27.07,0,0,0-2.22-3.66c13-.18,30.06-1.61,40-3.53Zm-38-23.51v3.6h12.6v-3.6Zm0,9.66h12.6v-3.42h-12.6Zm0,6.77c4-.42,8.22-.89,12.6-1.38v-2.75h-12.6Zm22.32-12c3,1.44,6.36,3.3,9.6,5.16a29.12,29.12,0,0,0,5.58-6.6H982.94v-3.36h18.72l.66-.18,2.52,1.26a29.7,29.7,0,0,1-7.56,10.73,76.1,76.1,0,0,1,8.7,6.3l-2.76,2.82a70.8,70.8,0,0,0-8.88-6.66A46,46,0,0,1,982,2027a18.35,18.35,0,0,0-2.22-2.93,42.93,42.93,0,0,0,11.28-5.58,98.35,98.35,0,0,0-9.18-5Zm13.92,23.57a27.74,27.74,0,0,1-1.8,4.56,24.14,24.14,0,0,0,10,9.3,14.42,14.42,0,0,0-2.58,2.82,28.13,28.13,0,0,1-9.12-8.94,32.2,32.2,0,0,1-9.42,9.84,22.35,22.35,0,0,0-1.74-3.66,26.46,26.46,0,0,0,11.58-14.82Z"/><path d="M1020.56,2016.58a50.89,50.89,0,0,1-5.58,5.29,14.29,14.29,0,0,0-2.88-2.53,51.63,51.63,0,0,0,13.92-17.09l4.14.78a63.06,63.06,0,0,1-3.54,5.82h14.1a41.22,41.22,0,0,0-2.82-5.64l3.6-1.08a38.47,38.47,0,0,1,3.54,6.72h17.82v3.3h-19.5v4.26h17.1v2.93h-17.1v4.2h17.34v3h-17.34v4.43h21.54v3.25h-40.38V2036h-4Zm12.78,30.54c-4.2,3.3-12,6.48-18.12,7.92a21.23,21.23,0,0,0-2.52-3.12c6.12-1.08,13.62-3.6,17.58-6.36Zm33.3-8.16v3.36h-24.78V2057h-4v-14.64h-24.48V2039h24.48v-4.2h4v4.2Zm-27.12-26.81h-15v4.26h15Zm0,7.19h-15v4.2h15Zm0,7.15h-15v4.43h15Zm8.22,18.77c5.88,1.74,14,4.44,18.18,6.24l-2.1,3c-4.14-1.74-12.18-4.68-18.24-6.66Z"/><path d="M1085.18,2020.67a9.06,9.06,0,1,1-9.06,9A9.09,9.09,0,0,1,1085.18,2020.67Zm0,15.23a6.18,6.18,0,0,0,0-12.36,6.18,6.18,0,0,0,0,12.36Z"/><line class="cls-3" x1="621" y1="351" x2="621" y2="351"/><rect class="cls-2" x="1115" y="1246" width="65" height="271" rx="12"/><path class="cls-1" d="M1160.05,1285.79a27.61,27.61,0,0,0,11.5,8.1,11.65,11.65,0,0,0-2.15,2.55,30.77,30.77,0,0,1-12.8-10.65h-15.95a34.39,34.39,0,0,1-13,11.3,11.43,11.43,0,0,0-2.15-2.55,30.39,30.39,0,0,0,11.6-8.75H1126v-2.85h10v-16.15h-7.7V1264h7.7v-5h3.3v5h18.55v-5h3.35v5h7.65v2.8h-7.65v16.15h9.8v2.85Zm-10,14.5h17.3v2.85H1129.8v-2.85h16.9v-5.6h-10.45v-2.8h10.45v-4.4h3.35v4.4h10.65v2.8h-10.65Zm-10.8-33.5v3.6h18.55v-3.6Zm0,9.8h18.55v-3.65h-18.55Zm0,6.35h18.55v-3.8h-18.55Z"/><path class="cls-1" d="M1144.25,1327.54s0,1.15,0,1.55c-.6,15.85-1.2,21.2-2.6,23a3.71,3.71,0,0,1-2.8,1.45,32.65,32.65,0,0,1-4.45,0,9.25,9.25,0,0,0-.85-3c1.75.15,3.2.15,3.9.15a1.42,1.42,0,0,0,1.45-.65c1-1.2,1.6-6,2.15-19.35h-6.8c-.55,10-2,18.25-6.45,23.65a9.53,9.53,0,0,0-2.55-2.35c5.45-6.45,5.9-17.85,6.1-31.55h-5.2v-3.1h20.1v3.1h-11.65c0,2.45-.1,4.85-.2,7.15Zm-7.9-10.45a33.47,33.47,0,0,0-4.25-7.15l2.9-1.15a31.92,31.92,0,0,1,4.4,7Zm23.85-7.45a15.26,15.26,0,0,1-.85,2.55c2.65,5.45,7.7,11.35,12.45,14a13,13,0,0,0-2.45,2.75c-4.25-2.7-8.5-8-11.4-13.3a32.61,32.61,0,0,1-11,13.6,12.79,12.79,0,0,0-2.35-2.65c5.85-3.6,10.35-10.2,12.5-17.85Zm-8.3,32.45a74,74,0,0,1,13.6,8.25l-2.25,2.9c-2.85-2.6-8.75-6.3-13.4-8.65Zm9.5-4.85a66.22,66.22,0,0,0-8.6-6.85l2.15-2.2a67.46,67.46,0,0,1,8.75,6.55Z"/><path class="cls-1" d="M1167,1362.19v29.3h-3.5v-2.55h-13.3v15.6h-3.45v-15.6h-13.4v2.75H1130v-29.5Zm-33.65,3.2V1374h13.4v-8.65Zm13.4,20.35v-8.5h-13.4v8.5Zm16.75-20.35h-13.3V1374h13.3Zm0,20.35v-8.5h-13.3v8.5Z"/><path class="cls-1" d="M1169.25,1424.09v9.3h-3.15V1427h-35.4v6.4h-3v-9.3h6.95v-12.95h27.7v12.95Zm-6.45,26.6c0,1.85-.45,2.7-1.85,3.2s-3.9.5-7.7.45a8.57,8.57,0,0,0-1.1-2.75c3,.05,5.65.05,6.4.05s1-.25,1-1v-6.2c-7.3,1.45-14.85,3-20.45,4l-1.1-3c5.4-.8,13.6-2.3,21.55-3.75V1433h-22.2v5.3c0,4.85-.65,11.55-4.35,16.2a13.29,13.29,0,0,0-2.7-2c3.45-4.25,3.85-10,3.85-14.25v-8h28.6Zm-25-26.6h7.45v-6.9H1159v-3.35h-21.2Zm2.45,11.7a75.14,75.14,0,0,1,17.7,3l-.9,2.6c-4-1.5-11.7-2.9-17.7-3.35Zm18.75-16.3h-10.75v4.6H1159Z"/><path class="cls-1" d="M1163,1471.09a51.83,51.83,0,0,1-12,19.6,49.94,49.94,0,0,0,20.5,10.5,16.79,16.79,0,0,0-2.25,3,50.92,50.92,0,0,1-20.75-11.1c-5.65,5-12.55,8.6-21,11.3a15.53,15.53,0,0,0-2-3.05c8.35-2.45,15.1-5.9,20.6-10.6a57.05,57.05,0,0,1-12.2-19.65h-7.75v-3.25h44.75v3.25Zm-25.75,0a52.13,52.13,0,0,0,11.3,17.3,47.46,47.46,0,0,0,10.7-17.3Zm11.25-3.55a38.13,38.13,0,0,0-3.8-7.8l3.4-1a39,39,0,0,1,4,7.65Z"/><path d="M674.43,1140.14a383.79,383.79,0,0,1,69.81-38.59l-6.69,2.82c26.73-11.21,55-19.63,83.73-23.5l-7.45,1c19.89-2.63,40.22-3.31,60.14-.67l-7.44-1a121.33,121.33,0,0,1,30.68,8l-6.69-2.82a73.16,73.16,0,0,1,16,9.22l-5.67-4.38a57.2,57.2,0,0,1,9.84,9.89l-4.38-5.66a94.21,94.21,0,0,1,11.88,20.35l-2.82-6.69a115.16,115.16,0,0,1,7.78,29.18l-1-7.44c2.07,15.64,1.48,31.5-.59,47.11l1-7.44c-3.45,25.51-10.72,50.41-19.7,74.49q-3.87,10.35-8.17,20.53l2.82-6.68a661.07,661.07,0,0,1-50.34,96.51q-10.86,17.15-23.26,33.27l4.38-5.67a401.34,401.34,0,0,1-55.48,58.63q-8.34,7.18-17,13.91l5.66-4.38c-29.47,22.73-61.81,41.36-95.2,57.69-9.56,4.68-19.21,9.17-28.91,13.56-6,2.71-11.19,10.64-12.86,16.73-1.85,6.7-1,15.63,2.82,21.58s9.59,11.24,16.73,12.86l7.45,1a27.85,27.85,0,0,0,14.13-3.82C693,1557.31,720,1544,745.77,1528.38a477.9,477.9,0,0,0,76.62-57.14c25.22-23.25,47.3-49.94,66.41-78.39,14.65-21.8,27.5-44.89,39.27-68.35,13.56-27,25.73-55,35.1-83.8a345.18,345.18,0,0,0,10.94-41.62c3-15.49,5.12-31.36,5.29-47.15a169,169,0,0,0-5.25-44.57,146,146,0,0,0-8.66-23.16,92.65,92.65,0,0,0-9.16-15.78,120,120,0,0,0-9.71-12.2,97.25,97.25,0,0,0-11.88-10,75.06,75.06,0,0,0-16-9.22,140.76,140.76,0,0,0-24.79-8.54,211.75,211.75,0,0,0-27.43-4.08c-29.48-2.68-59.81,1-88.5,7.85a389.7,389.7,0,0,0-108.42,44.41q-12,7.15-23.47,15.16c-6.08,4.23-10.85,9.39-12.87,16.73-1.85,6.7-1,15.63,2.82,21.57s9.59,11.25,16.73,12.87,15.45,1.45,21.58-2.82Z"/><path d="M661.93,1348.57a510,510,0,0,1,89-25.34q12.86-2.42,25.81-4.16l-7.44,1q14.34-1.9,28.76-3c9-.67,18-1.06,26.93.07l-7.44-1a61.69,61.69,0,0,1,15,3.92l-6.69-2.82a53.52,53.52,0,0,1,11.68,6.86l-5.67-4.38a65.69,65.69,0,0,1,11,11.17l-4.38-5.67a110.93,110.93,0,0,1,13.91,24.66l-2.82-6.69c7.47,17.77,12.42,36.63,17.21,55.26q8.49,33,14.35,66.69,3.24,18.55,5.74,37.25l-1-7.45c3.83,28.59,6.41,57.33,8,86.12s2.21,57.62,2.2,86.44q0,24.54-.58,49.07a28.66,28.66,0,0,0,8.2,19.79c4.86,4.86,12.83,8.52,19.8,8.21,7.24-.33,14.75-2.71,19.8-8.21a29.55,29.55,0,0,0,8.2-19.79c.94-43.69.88-87.41-1.38-131.06a1119.16,1119.16,0,0,0-15.27-136.88q-5.86-33.19-14.27-65.89c-4.69-18.15-9.54-36.5-16.75-53.85-4.08-9.8-8.27-19.55-14.34-28.33a121,121,0,0,0-11.61-14.61A96.33,96.33,0,0,0,864,1274.36c-5.27-3.75-11.21-6.22-17.22-8.59a62.79,62.79,0,0,0-14.36-3.64,138.59,138.59,0,0,0-21.61-1.71c-5.06.07-10.12.42-15.16.83A531.76,531.76,0,0,0,662.3,1289q-7.68,2.67-15.25,5.61a20.91,20.91,0,0,0-9.52,5,21.14,21.14,0,0,0-7.22,7.85c-3.51,6-5,14.85-2.82,21.58s6.39,13.31,12.87,16.73c6.28,3.32,14.65,5.49,21.57,2.83Z"/><path d="M562.82,1091.79a400,400,0,0,0-106.38-52.46c-30.18-9.66-62.07-15.56-93.81-15.77a209.21,209.21,0,0,0-48.25,5,140.23,140.23,0,0,0-24.73,8.64c-7.81,3.41-14.4,8.08-21.08,13.36-6.48,5.13-11.45,11.59-16.25,18.29a91.87,91.87,0,0,0-9,15.83,147.22,147.22,0,0,0-8.59,23.2,184,184,0,0,0-3.77,64.58,332.45,332.45,0,0,0,9,48.21c7.93,29.72,19.59,58.46,32.57,86.29a723.5,723.5,0,0,0,34.07,64.25,458.85,458.85,0,0,0,64.16,84.46c22.38,23.11,47.73,43.46,74.51,61.25,24.79,16.47,51.08,30.55,77.92,43.33q10.13,4.82,20.34,9.42a20.85,20.85,0,0,0,10.41,3.32,21.12,21.12,0,0,0,11.17-.5c6.49-1.79,13.53-6.81,16.73-12.86,3.44-6.5,5.16-14.38,2.83-21.58-2.11-6.52-6.36-13.79-12.87-16.73-34.11-15.41-67.65-32.35-98.84-53.13q-12.94-8.62-25.27-18.12l5.66,4.38a402.52,402.52,0,0,1-57.41-54.08q-7.83-9-15.12-18.46l4.38,5.67c-23.68-30.75-43-64.84-59.95-99.71q-7.21-14.87-13.65-30.07l2.82,6.68c-10.05-23.89-18.65-48.51-24.14-73.88-1.51-7-2.77-14.05-3.73-21.14l1,7.44c-2.07-15.61-2.66-31.47-.59-47.11l-1,7.44a114.76,114.76,0,0,1,7.79-29.18l-2.83,6.69a94.21,94.21,0,0,1,11.88-20.35l-4.38,5.66a57.56,57.56,0,0,1,9.84-9.89l-5.67,4.38a73.16,73.16,0,0,1,16-9.22l-6.68,2.82a121.25,121.25,0,0,1,30.67-8l-7.44,1c19.92-2.64,40.25-2,60.14.67l-7.45-1c28.77,3.87,57,12.29,83.73,23.5l-6.69-2.82a383.79,383.79,0,0,1,69.81,38.59c5.69,4,15.12,4.6,21.58,2.82s13.53-6.81,16.73-12.87c3.44-6.49,5.16-14.37,2.82-21.57l-2.82-6.69a28.08,28.08,0,0,0-10-10Z"/><path d="M561.93,1294.57c-42.68-16.45-87.15-26.65-132.57-31.78-10.45-1.18-21-2.25-31.53-2.38a137.4,137.4,0,0,0-22,1.82,62.63,62.63,0,0,0-14.31,3.82c-6,2.42-11.79,4.85-17,8.65a96.52,96.52,0,0,0-13.85,11.66,113.66,113.66,0,0,0-17.66,25c-9.2,17.64-15.16,36.8-20.48,55.89q-9,32.28-15.41,65.19a1074.23,1074.23,0,0,0-17.36,136.93c-2.81,43.55-3.3,87.22-2.62,130.84q.12,8.21.3,16.4a29.15,29.15,0,0,0,8.2,19.79c4.86,4.86,12.82,8.52,19.8,8.21,7.24-.33,14.75-2.71,19.8-8.21s8.36-12.27,8.2-19.79c-.62-29-.81-57.93-.2-86.89.6-28.78,2-57.54,4.48-86.22q2.12-24.32,5.34-48.52l-1,7.45a873.92,873.92,0,0,1,27.57-131.13,269.84,269.84,0,0,1,9.73-28.07l-2.82,6.69a111.33,111.33,0,0,1,13.91-24.66l-4.38,5.67a65.69,65.69,0,0,1,11-11.17l-5.66,4.38a53.22,53.22,0,0,1,11.67-6.86l-6.69,2.82a61.65,61.65,0,0,1,15.06-3.92l-7.45,1c8.95-1.13,18-.74,26.93-.07q14.43,1.08,28.76,3l-7.44-1a507.45,507.45,0,0,1,89.91,20.63q12.54,4.11,24.85,8.87a21.3,21.3,0,0,0,11.16.5,20.79,20.79,0,0,0,10.41-3.33c5.81-3.39,11.35-10,12.87-16.73,1.63-7.17,1.28-15.21-2.82-21.58l-4.38-5.66a27.93,27.93,0,0,0-12.36-7.2Z"/></svg>