<svg id="Layer_1" data-name="Layer 1" xmlns="http://www.w3.org/2000/svg" viewBox="0 0 1242 2208"><defs><style>.cls-1{fill:#f6eabe;}.cls-2{fill:#999;}</style></defs><rect class="cls-1" width="1242" height="2208"/><path d="M913.25,791.84c24.61,0,27.79-30.17,31-150.86,14.3,11.91,34.94,21.44,50,24.62-5.56,132.6-17.47,177.85-77.82,177.85H825.91c-57.17,0-74.63-19.85-74.63-91.31V237.64H492.43V427.4c0,136.57-23,319.19-181.82,435.9-7.94-11.91-27.79-32.55-39.7-40.49,150.86-109.57,166.74-268.37,166.74-396.2V186H805.27V752.94c0,32.55,4.76,38.9,28.58,38.9Z"/><path d="M391.92,1891.69a98.85,98.85,0,0,1-6.18,13.56v39.59H381.9v-33.35a61.73,61.73,0,0,1-5.46,7,32.86,32.86,0,0,0-2.28-3.9c5.58-5.87,10.8-14.87,14-24Zm34.14,28c-2.1,1.26-4.44,2.64-6.84,3.78,2,6.06,5.82,11.82,10.38,14.52a11.2,11.2,0,0,0-2.64,2.94c-4.62-3.18-8.46-9.42-10.68-16a27.45,27.45,0,0,1-2.76,1.2c2.58,6.84,1.86,14-1,16.68a6.91,6.91,0,0,1-5.22,1.92c-1.08,0-2.4-.06-3.78-.18a9.31,9.31,0,0,0-1-3.42,38.26,38.26,0,0,0,4.14.24,3.66,3.66,0,0,0,3.12-1.14c1.56-1.38,2.22-5.16,1.44-9.36-5.16,4.92-13.08,9.36-19.8,11.7a15.8,15.8,0,0,0-2.34-2.82c7.62-2.28,16.62-7.14,21.3-12.24a35.76,35.76,0,0,0-1.5-3.48,63.52,63.52,0,0,1-17.22,9.9,16.14,16.14,0,0,0-2.22-2.64c5.94-1.8,13.74-5.76,17.88-9.54a16.39,16.39,0,0,0-2.94-3.18,58.44,58.44,0,0,1-13.56,7.26,11.26,11.26,0,0,0-2.22-2.58,52.7,52.7,0,0,0,15.06-7.55H393.48v-9.36c-1.14,1-2.28,2-3.54,2.94a9.37,9.37,0,0,0-2.52-2.58,44.69,44.69,0,0,0,13.86-16.26l3.84.72c-.6,1.2-1.32,2.34-2,3.54h11.1l.72-.18,2.34,1.68a52.13,52.13,0,0,1-4.8,6.84h13.08v12.66H407.94c-.36.36-.78.66-1.2,1a21,21,0,0,1,5.64,6.84,110,110,0,0,0,10.92-6.42ZM401,1897.81a54.58,54.58,0,0,1-4.2,5.16h11.58a37.88,37.88,0,0,0,3.72-5.16Zm-3.9,14.69h10.5v-6.42h-10.5Zm24.72-6.42H411.18v6.42H421.8Z"/><path d="M483.48,1939.74c1.86,0,2.1-2.28,2.34-11.4a9.66,9.66,0,0,0,3.78,1.86c-.42,10-1.32,13.44-5.88,13.44h-6.84c-4.32,0-5.64-1.5-5.64-6.9v-38.87H451.68v14.34c0,10.31-1.74,24.11-13.74,32.93a14.51,14.51,0,0,0-3-3.06c11.4-8.28,12.6-20.28,12.6-29.93V1894h27.78v42.83c0,2.46.36,2.94,2.16,2.94Z"/><path d="M548.76,1926.66v3.42h-24.9V1945h-4v-14.88H495.36v-3.42H519.9v-5.1h4v5.1Zm-5.4-2.82a151.16,151.16,0,0,0-19.92-5.46c-6.48,2.76-14.94,4.14-25.86,4.86a9.27,9.27,0,0,0-1.56-3.41,96.17,96.17,0,0,0,20.7-2.77c-4.14-.84-8.58-1.56-13-2.22,1.92-1.74,4.08-3.84,6.18-6.11H496v-3.31h16.8a56.23,56.23,0,0,0,4.74-6.23l4,1.2c-1.14,1.62-2.58,3.36-4,5H533a33.19,33.19,0,0,0,1.8-4.19l3.84,1a25.22,25.22,0,0,1-1.26,3.23h10.86v3.31H535.56a24.19,24.19,0,0,1-7.62,7.37,198.79,198.79,0,0,1,19.32,5Zm-28.68,9.06c-3.72,4.08-9.84,7.8-15.12,10.2a20.21,20.21,0,0,0-3.18-2.76c5.34-2,11.1-5.22,14.4-8.76Zm-13.92-29.45H497v-8.52H520.5c-.72-1.26-1.56-2.58-2.28-3.66l3.84-1a40.17,40.17,0,0,1,3.18,4.68h22.08v8.52h-3.9v-5.1H500.76Zm13.74,5.28q-2.16,2.25-4.14,4.14c4.08.59,8.16,1.31,12.06,2.09a23.79,23.79,0,0,0,8.4-6.23Zm17,22.37a80.52,80.52,0,0,1,16,9.24l-2.88,2.94c-3.36-2.94-10.2-7.08-15.78-9.66Z"/><path d="M608.76,1938.42v3.9h-53.4v-3.9h8.28V1910h4.08v28.43H581.4v-39.71H557.64v-3.84h49.14v3.84H585.54v16.5h19v3.89h-19v19.32Z"/><path d="M634.8,1926.66c-1.26-1.8-4.2-5.22-6.54-7.8V1945h-3.9v-24.83a51.47,51.47,0,0,1-8.58,7.13,16.52,16.52,0,0,0-1.8-3.72,52.46,52.46,0,0,0,17.64-19.19H615.48v-3.66h18.24l.72-.18,2.22,1.56a59.66,59.66,0,0,1-7.68,12.84c2.4,2.15,7.08,7.07,8.34,8.45Zm-7.32-26.45a36.35,36.35,0,0,0-5.52-7.74l2.88-1.92a35.89,35.89,0,0,1,5.76,7.5Zm37.2,41c1.38,0,1.56-.84,1.74-7.5a11.15,11.15,0,0,0,3.42,1.5c-.36,7.74-1.38,9.54-4.74,9.54h-5.16c-3.84,0-4.8-1.08-4.8-5v-14.52h-5.46c-1,10-3.78,16.44-14.1,20a9.52,9.52,0,0,0-2.22-2.94c9.48-3,11.82-8.58,12.6-17.1h-5.64V1893h25.8v32.15h-7.26v14.52c0,1.26.24,1.5,1.56,1.5ZM644,1902.67h18.36v-6.3H644Zm0,9.54h18.36v-6.36H644Zm0,9.65h18.36v-6.41H644Z"/><path d="M691,1891c-1,2.94-2.1,6.3-3.18,8.88H698v38.75h-16.8v4.8h-3.66v-43.55h6.66a64.68,64.68,0,0,0,2.58-9.72Zm3.3,12.47H681.18v13.08h13.14Zm0,31.56v-14.88H681.18v14.88Zm33.06-33.17c-1,27.53-1.8,36.71-4.2,39.59a5.6,5.6,0,0,1-4.56,2.28,74.94,74.94,0,0,1-8.82-.12,9.42,9.42,0,0,0-1.32-3.9c3.9.36,7.5.36,8.82.36s1.92-.12,2.52-.9c2-2.1,2.94-11.34,3.72-35.7H707.82a55.33,55.33,0,0,1-5.64,10.68,36.22,36.22,0,0,0-3.36-2.22c4.08-5.33,7.32-13.61,9.18-21.89l3.84.84c-.78,3-1.62,6-2.64,8.88h18.18Zm-12.78,27a106.51,106.51,0,0,0-9.3-13.92l3.06-1.79a102.47,102.47,0,0,1,9.6,13.61Z"/><path d="M752.64,1924.74c-.9-1.92-3.12-5.88-5-8.87v29H744v-29c-2,6.83-4.86,13.55-7.68,17.63a24.88,24.88,0,0,0-2.1-3.42c3.72-5,7.5-14.63,9.3-23h-8.1v-3.72H744v-13.08h3.66v13.08h7v3.72h-7v4c1.68,2.22,6.24,9.06,7.26,10.73Zm14.88,4a23.6,23.6,0,0,1-13,14.82,13.3,13.3,0,0,0-2.22-2.64,20.42,20.42,0,0,0,10.86-10h-9v-3H764.7l.66-.12Zm2.4-28.37h-14v-3.06h8a49.35,49.35,0,0,0-3.42-5.7l3-1.26a35,35,0,0,1,3.9,6.24l-1.56.72h11.1l-1-.36a55.82,55.82,0,0,0,3.72-6.6l3.54,1.2c-1.32,2-2.7,4.14-3.9,5.76h9v3.06H773.76v4h12.6v3h-12.6v4.2h15.18v3.18H767.88a71.37,71.37,0,0,1,12.66,5l-2.16,2.63a68.66,68.66,0,0,0-13.38-5.51l1.8-2.11H754.5v-3.18h15.42v-4.2H758.46v-3h11.46ZM788,1925.4a110.13,110.13,0,0,1-9.24,7.2,28.13,28.13,0,0,0,11.28,7.62,15.28,15.28,0,0,0-2.46,3,31.62,31.62,0,0,1-13.86-12.36v10c0,2-.42,3-1.92,3.54s-3.9.6-7.68.6a15.57,15.57,0,0,0-1.08-3.36c2.82.06,5.22.06,6,0s.9-.18.9-.78v-16.56H758.82v-3h14.94v3.48a26,26,0,0,0,3.24,5.58,65.15,65.15,0,0,0,8-7.25Z"/><path d="M848.94,1921H824.22v18.6c0,2.82-.72,4-2.88,4.68s-5.94.78-11.7.78a17.7,17.7,0,0,0-1.8-4.14c5,.18,9.36.18,10.68.12s1.62-.42,1.62-1.5V1921h-25v-4h25v-8.75a74.47,74.47,0,0,0,15.72-9.84H801.18v-3.9h39l.84-.24,3,2.28a90,90,0,0,1-19.8,13.79V1917h24.72Z"/><path d="M860.88,1926c4.68-2,7.26-4.86,7.56-9.17a4,4,0,0,1-1.14.11c-2.34,0-4.26-1.31-4.26-4.07a4,4,0,0,1,4.32-4.08c3.18,0,4.86,2.58,4.86,6.66,0,6.41-4,11.21-10.08,13.43Z"/><path d="M413.76,2010.18v4H360.3v-4h22.62v-46.85h4.14v18.54h22.62v4H387.06v24.3Z"/><path d="M436.92,1963.69a98.85,98.85,0,0,1-6.18,13.56v39.59H426.9v-33.35a61.73,61.73,0,0,1-5.46,7,32.86,32.86,0,0,0-2.28-3.9c5.58-5.87,10.8-14.87,14-24Zm34.14,28c-2.1,1.26-4.44,2.64-6.84,3.78,2,6.06,5.82,11.82,10.38,14.52a11.2,11.2,0,0,0-2.64,2.94c-4.62-3.18-8.46-9.42-10.68-16a27.45,27.45,0,0,1-2.76,1.2c2.58,6.84,1.86,14-1,16.68a6.91,6.91,0,0,1-5.22,1.92c-1.08,0-2.4-.06-3.78-.18a9.31,9.31,0,0,0-1-3.42,38.26,38.26,0,0,0,4.14.24,3.66,3.66,0,0,0,3.12-1.14c1.56-1.38,2.22-5.16,1.44-9.36-5.16,4.92-13.08,9.36-19.8,11.7a15.8,15.8,0,0,0-2.34-2.82c7.62-2.28,16.62-7.14,21.3-12.24a35.76,35.76,0,0,0-1.5-3.48,63.52,63.52,0,0,1-17.22,9.9,16.14,16.14,0,0,0-2.22-2.64c5.94-1.8,13.74-5.76,17.88-9.54a16.39,16.39,0,0,0-2.94-3.18,58.44,58.44,0,0,1-13.56,7.26,11.26,11.26,0,0,0-2.22-2.58,52.7,52.7,0,0,0,15.06-7.55H438.48v-9.36c-1.14,1-2.28,2-3.54,2.94a9.37,9.37,0,0,0-2.52-2.58,44.69,44.69,0,0,0,13.86-16.26l3.84.72c-.6,1.2-1.32,2.34-2,3.54h11.1l.72-.18,2.34,1.68a52.13,52.13,0,0,1-4.8,6.84h13.08v12.66H452.94c-.36.36-.78.66-1.2,1a21,21,0,0,1,5.64,6.84,110,110,0,0,0,10.92-6.42ZM446,1969.81a54.58,54.58,0,0,1-4.2,5.16h11.58a37.88,37.88,0,0,0,3.72-5.16Zm-3.9,14.69h10.5v-6.42h-10.5Zm24.72-6.42H456.18v6.42H466.8Z"/><path d="M528.48,2011.74c1.86,0,2.1-2.28,2.34-11.4a9.66,9.66,0,0,0,3.78,1.86c-.42,10-1.32,13.44-5.88,13.44h-6.84c-4.32,0-5.64-1.5-5.64-6.9v-38.87H496.68v14.34c0,10.31-1.74,24.11-13.74,32.93a14.51,14.51,0,0,0-3-3.06c11.4-8.28,12.6-20.28,12.6-29.93V1966h27.78v42.83c0,2.46.36,2.94,2.16,2.94Z"/><path d="M568.62,1970.23c-.72,2.64-1.62,5.52-2.46,7.92h24.3V2017h-4v-3.18H547.38V2017h-3.9v-38.87h18.6a80.35,80.35,0,0,0,1.92-7.92H540.78v-3.78H593.4v3.78Zm-21.24,39.89h9v-28.25h-9Zm26-28.25H560v7h13.32Zm0,10.31H560v7.2h13.32ZM560,2010.12h13.32v-7.44H560Zm26.4-28.25H577v28.25h9.42Z"/><path d="M605.88,1998c4.68-2,7.26-4.86,7.56-9.17a4,4,0,0,1-1.14.11c-2.34,0-4.26-1.31-4.26-4.07a4,4,0,0,1,4.32-4.08c3.18,0,4.86,2.58,4.86,6.66,0,6.41-4,11.21-10.08,13.43Z"/><path d="M658.56,1969.87v7.92h22.26v34.31c0,2.28-.54,3.48-2.22,4.08s-4.68.66-8.94.66a14.79,14.79,0,0,0-1.38-3.6c3.42.12,6.54.12,7.5.06s1.14-.3,1.14-1.2v-30.6H658.56v35.1h-3.78v-35.1h-17.4v35.34h-3.84v-39h21.24v-7.92h-23.4V1966h51.54v3.9Zm-9.84,16.43c0,6.12.42,13.92,5.76,20a8.65,8.65,0,0,0-2.28,1.8A23.88,23.88,0,0,1,647,1996.8a27.16,27.16,0,0,1-6.24,11.4,14.22,14.22,0,0,0-2.34-1.8c4.08-3.9,6.24-9.9,7.2-17.15h-3.9v-3Zm21.12,0c0,6.18.48,13.92,6.24,19.92a11.7,11.7,0,0,0-2.4,1.74,23.65,23.65,0,0,1-5.58-11.64,27.62,27.62,0,0,1-6.18,11.46,15,15,0,0,0-2.34-1.8c4-3.84,6.06-9.72,7.08-16.73h-4.08v-3Z"/><path d="M705,1963.69a104.28,104.28,0,0,1-4.68,11.76V2017h-3.84v-34.31a59.9,59.9,0,0,1-6,8.57,24,24,0,0,0-2.16-4c5.28-6,10.08-15.23,13-24.59Zm8.82,42a47.22,47.22,0,0,1-8,10.92,28.69,28.69,0,0,0-2.88-2.34,33.55,33.55,0,0,0,7.38-10.2Zm10.14-3.06H706.74v-36.71H724Zm-3.6-33.35H710.22v7.8h10.14Zm0,11H710.22v7.85h10.14Zm0,11H710.22v8h10.14Zm-.12,12.71a67.1,67.1,0,0,1,5.4,9.48l-3.12,1.92a64.06,64.06,0,0,0-5.22-9.9Zm12.24-.48h-3.54v-35.09h3.54Zm10.14-40.37v48.95c0,2.4-.6,3.6-2.1,4.2s-4,.72-8.16.72a16,16,0,0,0-1.26-3.72c3.12.12,5.82.06,6.66.06s1.26-.3,1.26-1.2v-49Z"/><path d="M766.92,1963.69a98.85,98.85,0,0,1-6.18,13.56v39.59H756.9v-33.35a61.73,61.73,0,0,1-5.46,7,32.86,32.86,0,0,0-2.28-3.9c5.58-5.87,10.8-14.87,14-24Zm34.14,28c-2.1,1.26-4.44,2.64-6.84,3.78,2,6.06,5.82,11.82,10.38,14.52a11.2,11.2,0,0,0-2.64,2.94c-4.62-3.18-8.46-9.42-10.68-16a27.45,27.45,0,0,1-2.76,1.2c2.58,6.84,1.86,14-1,16.68a6.91,6.91,0,0,1-5.22,1.92c-1.08,0-2.4-.06-3.78-.18a9.31,9.31,0,0,0-1-3.42,38.26,38.26,0,0,0,4.14.24,3.66,3.66,0,0,0,3.12-1.14c1.56-1.38,2.22-5.16,1.44-9.36-5.16,4.92-13.08,9.36-19.8,11.7a15.8,15.8,0,0,0-2.34-2.82c7.62-2.28,16.62-7.14,21.3-12.24a35.76,35.76,0,0,0-1.5-3.48,63.52,63.52,0,0,1-17.22,9.9,16.14,16.14,0,0,0-2.22-2.64c5.94-1.8,13.74-5.76,17.88-9.54a16.39,16.39,0,0,0-2.94-3.18,58.44,58.44,0,0,1-13.56,7.26,11.26,11.26,0,0,0-2.22-2.58,52.7,52.7,0,0,0,15.06-7.55H768.48v-9.36c-1.14,1-2.28,2-3.54,2.94a9.37,9.37,0,0,0-2.52-2.58,44.69,44.69,0,0,0,13.86-16.26l3.84.72c-.6,1.2-1.32,2.34-2,3.54h11.1l.72-.18,2.34,1.68a52.13,52.13,0,0,1-4.8,6.84h13.08v12.66H782.94c-.36.36-.78.66-1.2,1a21,21,0,0,1,5.64,6.84,110,110,0,0,0,10.92-6.42ZM776,1969.81a54.58,54.58,0,0,1-4.2,5.16h11.58a37.88,37.88,0,0,0,3.72-5.16Zm-3.9,14.69h10.5v-6.42h-10.5Zm24.72-6.42H786.18v6.42H796.8Z"/><path d="M825.3,2012.46c0,2-.42,3.12-1.62,3.72s-3.24.72-6.42.72a14.26,14.26,0,0,0-1.14-3.54c2.34.06,4.26.06,4.92,0s.9-.18.9-1v-17.22c-1.56,1.32-3.06,2.64-4.62,3.9l-1.62-3c-.42,7.26-1.38,14.94-3.6,20.88a15.61,15.61,0,0,0-2.94-1.68c3.24-8.52,3.48-20.58,3.48-29.28v-21.47H825.3ZM815.94,1986c0,2.94-.06,6.3-.24,9.84,1.74-1.08,3.9-2.7,6.24-4.38v-8.09l-1.62,1.31a38.55,38.55,0,0,0-4.38-5.76Zm0-17.75v9.9l1.86-1.26a41.75,41.75,0,0,1,4.14,4.74v-13.38Zm24.06,7.14c-.24.84-.54,1.61-.78,2.46,3.72,4.73,8.1,10.86,10,14.63l-2.7,2.16a93.59,93.59,0,0,0-8.76-13.49,39.5,39.5,0,0,1-9.12,13.43,13.73,13.73,0,0,0-2.64-2.52c4.68-3.89,8.64-10.56,10.62-17.57Zm-3.66-10.92a43.07,43.07,0,0,1-7.08,14.4,16.68,16.68,0,0,0-2.76-2.1c2.88-3.24,5.16-8.16,6.48-13Zm-6.12,29.16h15.24V2016h-3.3v-3.48H833.4v3.72h-3.18Zm3.18,3.59V2009h8.76v-11.76Zm12-19a61.47,61.47,0,0,0-6.24-13.5l2.94-1c2.64,4.2,5.46,9.78,6.42,13.2ZM862.14,2003c0,1.8-.3,2.82-1.5,3.42s-2.94.66-5.46.66a11.14,11.14,0,0,0-1.14-3.36c1.92.06,3.6.06,4.08,0s.72-.18.72-.78v-33.59H852.9V2017h-3.18v-51.17h12.42Z"/><path d="M882.18,1980.67a9.06,9.06,0,1,1-9.06,9A9.09,9.09,0,0,1,882.18,1980.67Zm0,15.23a6.18,6.18,0,1,0,0-12.36,6.18,6.18,0,1,0,0,12.36Z"/><rect class="cls-2" x="1113" y="445" width="65" height="126" rx="12"/><path class="cls-1" d="M1132.7,474.82c1.25,1.6,4.9,6.7,5.7,8.05l-2,2.45c-.7-1.5-2.35-4.4-3.75-6.65V505h-3.15V480.57c-1.5,5.05-3.5,9.9-5.55,12.85a14.83,14.83,0,0,0-1.75-3.1c2.9-4,5.8-11.5,7.2-18h-6.2v-3.15h6.3v-9.65h3.15v9.65h5.45v3.15h-5.45Zm19.1.7a19.47,19.47,0,0,0,.45,2.65c-10.15,2.7-11.6,3.15-12.5,3.75a12.13,12.13,0,0,0-1.1-3.2c.7-.2,1.55-.5,1.55-2.2v-16.7h3.25v6.5h8.35v2.9h-8.35v8.3Zm2.35,5.5-2,3.75h12.65V505h-3.4v-1.75h-17v2h-3.3V484.77h7.9c.55-1.5,1.2-3.25,1.55-4.6Zm7.3,6.5h-17v5.05h17Zm0,13v-5.3h-17v5.3Zm2.25-22.4c1.25,0,1.5-.75,1.65-5.25a9.16,9.16,0,0,0,2.85,1.25c-.3,5.45-1.2,6.95-4.15,6.95h-5.85c-3.65,0-4.55-.95-4.55-4.45V459.87h3.25v6.5h10.2v2.9h-10.2v7.35c0,1.3.25,1.5,1.65,1.5Z"/><path class="cls-1" d="M1167.55,534.87v2.5H1123.4v-2.5h20.25v-3.2H1126.8v-2.3h16.85v-3H1128.2v-2.25h15.45v-3.2H1123.5v-2.5h20.15v-3H1128.8V513h14.85v-3.55h3.25V513h14.45v5.4h6.15v2.5h-6.15v5.45H1146.9v3h17.3v2.3h-17.3v3.2Zm-37.75,5h31.75v15.25h-3.25v-1.6H1133v1.7h-3.2Zm3.2,2.4v3.2h25.3v-3.2Zm25.3,8.85v-3.4H1133v3.4Zm-11.4-32.7h11.15v-3H1146.9Zm0,5.7h11.15v-3.2H1146.9Z"/><rect class="cls-2" x="1114" y="1264" width="65" height="219" rx="12"/><path class="cls-1" d="M1158.05,1302.79a27.61,27.61,0,0,0,11.5,8.1,11.65,11.65,0,0,0-2.15,2.55,30.77,30.77,0,0,1-12.8-10.65h-15.95a34.39,34.39,0,0,1-13,11.3,11.43,11.43,0,0,0-2.15-2.55,30.39,30.39,0,0,0,11.6-8.75H1124v-2.85h10v-16.15h-7.7V1281h7.7v-5h3.3v5h18.55v-5h3.35v5h7.65v2.8h-7.65v16.15h9.8v2.85Zm-10,14.5h17.3v2.85H1127.8v-2.85h16.9v-5.6h-10.45v-2.8h10.45v-4.4h3.35v4.4h10.65v2.8h-10.65Zm-10.8-33.5v3.6h18.55v-3.6Zm0,9.8h18.55v-3.65h-18.55Zm0,6.35h18.55v-3.8h-18.55Z"/><path class="cls-1" d="M1142.25,1344.54s0,1.15,0,1.55c-.6,15.85-1.2,21.2-2.6,23a3.71,3.71,0,0,1-2.8,1.45,32.65,32.65,0,0,1-4.45,0,9.25,9.25,0,0,0-.85-3c1.75.15,3.2.15,3.9.15a1.42,1.42,0,0,0,1.45-.65c1-1.2,1.6-6,2.15-19.35h-6.8c-.55,10-2,18.25-6.45,23.65a9.53,9.53,0,0,0-2.55-2.35c5.45-6.45,5.9-17.85,6.1-31.55h-5.2v-3.1h20.1v3.1h-11.65c0,2.45-.1,4.85-.2,7.15Zm-7.9-10.45a33.47,33.47,0,0,0-4.25-7.15l2.9-1.15a31.92,31.92,0,0,1,4.4,7Zm23.85-7.45a15.26,15.26,0,0,1-.85,2.55c2.65,5.45,7.7,11.35,12.45,14a13,13,0,0,0-2.45,2.75c-4.25-2.7-8.5-8-11.4-13.3a32.61,32.61,0,0,1-11,13.6,12.79,12.79,0,0,0-2.35-2.65c5.85-3.6,10.35-10.2,12.5-17.85Zm-8.3,32.45a74,74,0,0,1,13.6,8.25l-2.25,2.9c-2.85-2.6-8.75-6.3-13.4-8.65Zm9.5-4.85a66.22,66.22,0,0,0-8.6-6.85l2.15-2.2a67.46,67.46,0,0,1,8.75,6.55Z"/><path class="cls-1" d="M1135.5,1389c-1.6,7.2-4.55,16.15-9.1,21.7a19.23,19.23,0,0,0-3.1-1.8c4.55-5.25,7.3-13.85,8.55-20.55Zm12.9-12.3v40c0,2.55-.7,3.6-2.35,4.2s-4.8.6-9.4.6a15.62,15.62,0,0,0-1.4-3.45c3.7.1,7.3.1,8.25.05s1.45-.35,1.45-1.4v-40ZM1160,1388c4.45,7,8.7,16.1,10,22l-3.45,1.45c-1.25-5.85-5.25-15.15-9.6-22.3Z"/><path class="cls-1" d="M1164.65,1453.74a72.75,72.75,0,0,1-7.65,3.65,19.75,19.75,0,0,0,12.1,9.55,10.66,10.66,0,0,0-2.1,2.6,22.77,22.77,0,0,1-12.5-11.1c-1.1.45-2.15.85-3.2,1.2,1.5,4.4.7,8.7-1.6,10.35a6,6,0,0,1-4.25,1.3c-1,0-2.25,0-3.55-.1a5.77,5.77,0,0,0-.9-2.85,30,30,0,0,0,4,.2,4.12,4.12,0,0,0,2.7-.65c1.35-1,1.9-3.75,1-6.9-5.55,3.7-14.45,7-22,8.45a11,11,0,0,0-1.45-2.4c8-1.1,17.65-4.65,22.65-8.35a13.35,13.35,0,0,0-1.25-2.15,69.47,69.47,0,0,1-17.55,6.35,7.59,7.59,0,0,0-1.4-2.15c5.8-1,13.4-3.4,17.7-5.85-.6-.55-1.25-1.15-2-1.7a80,80,0,0,1-15.25,4.15,16.41,16.41,0,0,0-1.55-2.2c5.7-.75,12.15-2.15,16.75-4.15h-18.55v-2.55h28c.3-.9.55-1.8.9-2.75h-21.7c1.25-2.8,3-7,4-10.25l3,.5a42,42,0,0,0-3.4-3.25l2-1.15h-6.25a29.23,29.23,0,0,1-5.1,5.6,25.27,25.27,0,0,0-2.35-2.2,26.89,26.89,0,0,0,7.5-9.35l3,.85c-.45.9-1,1.75-1.4,2.65h13.45v2.45h-8.3a44.9,44.9,0,0,1,4,3.65l-2.45,1.6a4.8,4.8,0,0,0-.7-.75c-.2.65-.45,1.25-.65,2h17.75l.6-.2,2.25.5c-.8,3.15-1.9,7-3,10.15h12V1451h-20.25c-.6.35-1.2.7-1.85,1a16.36,16.36,0,0,1,4.4,5.35,90.1,90.1,0,0,0,11.6-5.5Zm-10.2-10.3c.35-1.15.65-2.2,1-3.2h-17.7c-.45,1.15-.9,2.2-1.3,3.2Zm14.75-14.3v2.45h-16.6a28.84,28.84,0,0,1-4.55,5.15,15.06,15.06,0,0,0-2.55-2,21.57,21.57,0,0,0,6.7-9.1l3.1.8a26.43,26.43,0,0,1-1.25,2.7Zm-7.9,8a32.47,32.47,0,0,0-3.9-4.25l2.3-1.25a30.14,30.14,0,0,1,4,4Z"/><path d="M563.5,1050.1c-12.2,0-24.42-.79-36.58.45-7.87.8-16,1.74-23.54,4.41a80.06,80.06,0,0,0-12.83,5.64,92.55,92.55,0,0,0-11.95,8.82c-20.77,17-32.73,43.56-38.28,69.27-6,27.73-6.34,56.15-6.57,84.39-.27,32.24,0,64.49-.56,96.73-.64,36.43-2.4,72.88-7.2,109l.91-6.77c-5.49,40.68-15.09,80.67-31,118.57l2.57-6.09c-11.17,26.36-25.24,51.5-42.73,74.21l4-5.16a262.71,262.71,0,0,1-46.59,46.94l5.16-4a241.53,241.53,0,0,1-21.39,14.67,26.6,26.6,0,0,0-11.72,15.24c-1.68,6.11-.92,14.24,2.57,19.65,7.37,11.44,22.7,16.57,34.89,9.15,32.14-19.57,58.78-45.76,81-75.92,21.32-28.91,37.16-61.61,49.27-95.33,13.23-36.82,20.52-75.13,25.18-113.9,5.11-42.45,6.15-85.27,6.41-128,.14-21.44.07-42.87.21-64.3.12-18.25.08-36.56,1.68-54.75q.53-6,1.31-11.93l-.91,6.78c1.88-13.78,4.93-27.42,10.3-40.28l-2.57,6.09a96.73,96.73,0,0,1,12-20.86l-4,5.16A79.88,79.88,0,0,1,516,1104.42l-5.16,4a45.76,45.76,0,0,1,9.86-5.94L514.6,1105a66.38,66.38,0,0,1,15.94-4l-6.78.92c13.2-1.71,26.48-.84,39.74-.82a26.26,26.26,0,0,0,18-7.46c4.42-4.43,7.75-11.68,7.47-18-.62-13.83-11.2-25.47-25.5-25.5Z"/><path d="M563.5,1101.1c17.41-.9,34.92-.78,52.35-.82,27.35,0,54.72.22,82,1.5,12.68.59,25.41,1.34,38,3l-6.78-.91c5.39.73,11.09,1.43,16.16,3.52l-6.09-2.57A22.43,22.43,0,0,1,744,1108l-5.16-4a79.16,79.16,0,0,1,13.48,13.59l-4-5.16a96.25,96.25,0,0,1,12,20.86l-2.57-6.09c5.37,12.85,8.42,26.5,10.3,40.27l-.91-6.78c2.23,16.84,2.63,33.81,2.84,50.77.27,21.43.23,42.86.29,64.28.11,42.76.61,85.59,4.76,128.18,3.89,39.79,10.4,79.5,22.78,117.6,11.07,34.08,26.09,67.4,46.18,97.15,21,31.07,46.69,58.16,77.7,79.35q5.17,3.54,10.54,6.8c11.41,6.94,28.54,2.87,34.89-9.15,6.56-12.41,3-27.48-9.15-34.89a241.53,241.53,0,0,1-21.39-14.67l5.16,4a262.32,262.32,0,0,1-46.59-46.93l4,5.16c-17.49-22.71-31.56-47.85-42.73-74.22l2.57,6.1c-16-37.9-25.55-77.9-31-118.58l.91,6.78c-7.43-55.87-7.52-112.33-7.61-168.59,0-25.93.42-52-1.11-77.89-1.34-22.72-4.17-46.29-12.88-67.5a145,145,0,0,0-8.87-18.83,123.91,123.91,0,0,0-12.06-16.64,77.17,77.17,0,0,0-10.74-10.49c-3.24-2.6-6.64-5.73-10.48-7.58-11.61-5.6-24.55-6.73-37.22-8-29.65-3-59.62-3.3-89.39-3.52-23.82-.17-47.68-.2-71.49.62-1.17,0-2.35.08-3.52.14-6.75.35-13.17,2.61-18,7.47-4.42,4.43-7.75,11.68-7.47,18,.3,6.6,2.46,13.44,7.47,18,4.84,4.44,11.26,7.81,18,7.46Z"/></svg>