<svg id="Layer_1" data-name="Layer 1" xmlns="http://www.w3.org/2000/svg" viewBox="0 0 1242 2208"><defs><style>.cls-1{fill:#f6eabe;}.cls-2{fill:#999;}.cls-3{fill:none;stroke:#000;stroke-linecap:round;stroke-miterlimit:10;stroke-width:50px;}</style></defs><rect class="cls-1" width="1242" height="2208"/><path d="M936.21,200.56V862H883V802.4H313.73V204.53h52.4V751.59H883v-551Z"/><rect class="cls-2" x="1113" y="450" width="65" height="126" rx="12"/><path class="cls-1" d="M1132.7,479.82c1.25,1.6,4.9,6.7,5.7,8.05l-2,2.45c-.7-1.5-2.35-4.4-3.75-6.65V510h-3.15V485.57c-1.5,5.05-3.5,9.9-5.55,12.85a14.83,14.83,0,0,0-1.75-3.1c2.9-4,5.8-11.5,7.2-18h-6.2v-3.15h6.3v-9.65h3.15v9.65h5.45v3.15h-5.45Zm19.1.7a19.47,19.47,0,0,0,.45,2.65c-10.15,2.7-11.6,3.15-12.5,3.75a12.13,12.13,0,0,0-1.1-3.2c.7-.2,1.55-.5,1.55-2.2v-16.7h3.25v6.5h8.35v2.9h-8.35v8.3Zm2.35,5.5-2,3.75h12.65V510h-3.4v-1.75h-17v2h-3.3V489.77h7.9c.55-1.5,1.2-3.25,1.55-4.6Zm7.3,6.5h-17v5.05h17Zm0,13v-5.3h-17v5.3Zm2.25-22.4c1.25,0,1.5-.75,1.65-5.25a9.16,9.16,0,0,0,2.85,1.25c-.3,5.45-1.2,6.95-4.15,6.95h-5.85c-3.65,0-4.55-.95-4.55-4.45V464.87h3.25v6.5h10.2v2.9h-10.2v7.35c0,1.3.25,1.5,1.65,1.5Z"/><path class="cls-1" d="M1167.55,539.87v2.5H1123.4v-2.5h20.25v-3.2H1126.8v-2.3h16.85v-3H1128.2v-2.25h15.45v-3.2H1123.5v-2.5h20.15v-3H1128.8V518h14.85v-3.55h3.25V518h14.45v5.4h6.15v2.5h-6.15v5.45H1146.9v3h17.3v2.3h-17.3v3.2Zm-37.75,5h31.75v15.25h-3.25v-1.6H1133v1.7h-3.2Zm3.2,2.4v3.2h25.3v-3.2Zm25.3,8.85v-3.4H1133v3.4Zm-11.4-32.7h11.15v-3H1146.9Zm0,5.7h11.15v-3.2H1146.9Z"/><path d="M474.92,1803.69a98.85,98.85,0,0,1-6.18,13.56v39.59H464.9v-33.35a61.73,61.73,0,0,1-5.46,7,32.86,32.86,0,0,0-2.28-3.9c5.58-5.87,10.8-14.87,14-24Zm34.2,29.21c-2,1.38-4.44,2.7-6.84,4,2,5.82,5.82,11.16,10.62,13.62a15.86,15.86,0,0,0-2.64,3.06c-4.92-3-8.76-8.76-10.86-15.3-1,.54-2.1,1-3.12,1.5,2.1,6.3,1.26,12.72-1.38,15.24a6.51,6.51,0,0,1-5,1.92c-1,0-2.4-.06-3.72-.12a9.47,9.47,0,0,0-1-3.48,34.56,34.56,0,0,0,4,.24,3.38,3.38,0,0,0,3-1.14c1.44-1.32,2.1-4.86,1.44-8.94a58.72,58.72,0,0,1-19.5,11.4,11.72,11.72,0,0,0-2.34-2.82c7.44-2.22,16.26-7,21.12-11.82a24.37,24.37,0,0,0-1.62-3.66,57.71,57.71,0,0,1-16.74,9.66,16.14,16.14,0,0,0-2.22-2.64c5.82-1.74,13.38-5.58,17.52-9.3a16.53,16.53,0,0,0-2.82-3,39.59,39.59,0,0,1-12.3,6.17,14.66,14.66,0,0,0-2.28-2.58c6.54-2.1,10.86-4.62,13.68-7.26h-9.54v-9.35c-1.08,1-2.22,1.92-3.42,2.88a9.81,9.81,0,0,0-2.64-2.53,45.41,45.41,0,0,0,13.92-16.25l3.84.72a35.7,35.7,0,0,1-2,3.54h11.1l.78-.18,2.34,1.68a52.13,52.13,0,0,1-4.8,6.84h13v12.65H490.7a15.52,15.52,0,0,1-1.38,1.63,22.17,22.17,0,0,1,6,7.85,120.47,120.47,0,0,0,11.1-6.66Zm-25-23.09a54.58,54.58,0,0,1-4.2,5.16h11.58a33.35,33.35,0,0,0,3.72-5.16Zm-4,14.69h8.64a15.14,15.14,0,0,0,2.46-6.42h-11.1Zm24.72-6.42H494.6a18.56,18.56,0,0,1-1.8,6.42h12.06Z"/><path d="M529.34,1838.54c2.28-1,4.62-2,7-3l.84,3.54c-6.42,2.94-13.14,5.94-18.36,8.22l-1.56-4c2.28-.78,5.16-2,8.28-3.3v-19.5h-7.8v-3.77h7.8V1803h3.78v13.74h7.14v3.77h-7.14Zm35,13.44c3.54,0,4.14-1.62,4.56-8.7a10.25,10.25,0,0,0,3.6,1.62c-.66,8.1-1.92,10.68-8,10.68H549.38c-6.66,0-8.52-1.5-8.52-7.62v-19.55l-5,2.15-1.56-3.48,6.6-2.75v-16.5h3.78v14.88l8.64-3.67v-16.73h3.78v15.18l8.52-3.6.9-.78.72-.66,2.82,1.13-.18.79c0,11.16-.18,20.45-.66,22.67-.36,2.4-1.5,3.42-3.24,3.78a28.16,28.16,0,0,1-5.52.36,13,13,0,0,0-1-3.48c1.5.12,3.54.12,4.2.12.9,0,1.56-.3,1.86-1.68.36-1.56.48-8.64.48-18.35l-8.94,3.78v22.19h-3.78v-20.64l-8.64,3.67V1848c0,3.24.78,4,4.8,4Z"/><path d="M606.62,1810.23c-.72,2.64-1.62,5.52-2.46,7.92h24.3V1857h-4v-3.18H585.38V1857h-3.9v-38.87h18.6a80.35,80.35,0,0,0,1.92-7.92H578.78v-3.78H631.4v3.78Zm-21.24,39.89h9v-28.25h-9Zm26-28.25H598v7h13.32Zm0,10.31H598v7.2h13.32ZM598,1850.12h13.32v-7.44H598Zm26.4-28.25H615v28.25h9.42Z"/><path d="M688.58,1807.77v47.87h-3.9v-4.5H645.14v4.74h-3.78v-48.11H659.9v20.64h10v-20.64Zm-3.9,39.59v-35.75h-11v20.57H656v-20.57H645.14v35.75Z"/><path d="M716.84,1806.15c-1.8,4.86-4,10.8-6,15.54,4.38,5,5.46,9.35,5.46,13.13,0,3-.66,5.64-2.28,6.78a6,6,0,0,1-3,1.08,18.5,18.5,0,0,1-4.08.06,8.17,8.17,0,0,0-1-3.54,24.82,24.82,0,0,0,3.6.06,3.41,3.41,0,0,0,1.86-.54c1-.66,1.32-2.4,1.32-4.26,0-3.36-1.14-7.5-5.52-12.35,1.8-4.44,3.66-9.66,4.92-13.68h-8.46v48.41H700v-52.07h13.62l.6-.18Zm11.7,6.6a52.48,52.48,0,0,1-10.2,13.5,22,22,0,0,0-3.24-2.41c5.94-5.09,11-12.95,13.86-21.53l3.72,1a52.65,52.65,0,0,1-2.34,5.76H744.5l.66-.18,2.64,1.68a68.91,68.91,0,0,1-8.4,14.75,14.19,14.19,0,0,0-3-1.92,56.7,56.7,0,0,0,6.12-10.67ZM749,1827.62v29h-3.9v-2.94H722.66v3.06h-3.78v-27.66a67.48,67.48,0,0,0,12.18-5.45l3.06,2.7a92.89,92.89,0,0,1-11.46,4.67v7.68H732.8v3.3H722.66v8.28H745.1v-8.22h-10v-3.36h10V1831H734.54v-3.42Z"/><path d="M759,1855.7c4.68-2,7.26-4.92,7.56-9.18a7.35,7.35,0,0,1-1.14.12c-2.34,0-4.26-1.38-4.26-4.08a4,4,0,0,1,4.32-4.14c3.18,0,4.86,2.64,4.86,6.66,0,6.48-4,11.28-10.08,13.44Z"/><path d="M397.46,1923.62a70.7,70.7,0,0,0,7.38.36c2.1.06,14.76,0,17.58-.06a16.36,16.36,0,0,0-1.44,3.84H404.72c-12.3,0-19.92-1.92-24.72-10.38a31.55,31.55,0,0,1-9.48,11.7,19.84,19.84,0,0,0-3.06-2.82c6.3-4.14,10.2-10.92,11.82-19.86l4,.6a55.92,55.92,0,0,1-1.5,6.06c2.34,5.64,6.3,8.52,11.7,9.84v-18.54H368.72v-3.6H421.4v3.6H397.46v7.08h20v3.6h-20Zm17.22-27.17h-39.6v-19.56h39.6Zm-4-16.44H379v5.16h31.68Zm0,8.1H379v5.27h31.68Z"/><path d="M454,1877.49H439.22v35.15h-4v-38.87H454Z"/><path d="M477.32,1910.84c-6.42,2.94-13.14,5.94-18.42,8.22l-1.56-4c2.28-.78,5.16-2,8.34-3.3v-19.26H458v-3.77h7.68V1875h3.72v13.74h6.84v3.77H469.4v17.82c2.34-1,4.74-2,7.08-3Zm18.42-11.63v1.91c2.16,11.7,7.14,20.94,16.74,24.3a15.65,15.65,0,0,0-2.58,3.36c-7.8-3.24-12.6-9.84-15.48-18.84-1.86,6.72-6.48,13.56-17.4,19a12.23,12.23,0,0,0-2.64-2.94c16.08-7.86,17.46-18.78,17.46-26.88v-5.76h3.9Zm-10-10.44a53,53,0,0,1-6.66,13.14,36.5,36.5,0,0,0-3.48-2.23c4.86-6,8.22-15.41,10.14-25.19l3.9.66c-.72,3.36-1.62,6.66-2.52,9.78h21.42l.6-.24,2.88,1c-1.38,5.27-3.3,11.52-5.22,15.35l-3.36-1.2a74.1,74.1,0,0,0,3.6-11Z"/><path d="M516,1925.84h14.82v-35.15h4v38.87H516Z"/><path d="M564,1875c-1,2.94-2.1,6.3-3.18,8.88H571v38.75h-16.8v4.8h-3.66v-43.55h6.66a64.68,64.68,0,0,0,2.58-9.72Zm3.3,12.47H554.18v13.08h13.14Zm0,31.56v-14.88H554.18v14.88Zm33.06-33.17c-1,27.53-1.8,36.71-4.2,39.59a5.6,5.6,0,0,1-4.56,2.28,74.94,74.94,0,0,1-8.82-.12,9.42,9.42,0,0,0-1.32-3.9c3.9.36,7.5.36,8.82.36s1.92-.12,2.52-.9c2-2.1,2.94-11.34,3.72-35.7H580.82a55.33,55.33,0,0,1-5.64,10.68,36.22,36.22,0,0,0-3.36-2.22c4.08-5.34,7.32-13.61,9.18-21.89l3.84.84c-.78,3-1.62,6-2.64,8.88h18.18Zm-12.78,27a106.51,106.51,0,0,0-9.3-13.92l3.06-1.79a102.47,102.47,0,0,1,9.6,13.61Z"/><path d="M656.18,1903.1c-2.52,1.68-5.52,3.48-8.58,5.1,2.52,5.28,7.26,11.28,14.22,14.16a13.37,13.37,0,0,0-2.64,3.42c-7.14-3.54-12.12-10.38-14.7-16-1.14.6-2.4,1.2-3.54,1.74,3.06,6.36,2.1,12.54-1.92,15.12a10.18,10.18,0,0,1-6.12,1.74c-1.38,0-3.24-.06-5.16-.18a10.77,10.77,0,0,0-1.14-3.66,52.84,52.84,0,0,0,5.58.3,6.77,6.77,0,0,0,4.32-1.08c2.46-1.56,3.24-5.52,1.38-10-6.6,5.1-16.86,9.72-25.08,12.06a15,15,0,0,0-2.4-3.06c9-2.1,20-6.84,26.1-11.88a30.64,30.64,0,0,0-2.52-3.36c-5.34,3.9-13.8,7.5-20.4,9.3a14.61,14.61,0,0,0-2.34-2.82c7-1.62,15.66-5,20.64-8.58a40.11,40.11,0,0,0-4.26-3.36,58.4,58.4,0,0,1-16.32,7.08,14,14,0,0,0-2-3,51.87,51.87,0,0,0,16.26-6.48H614.78v-9.83c-1.2.83-2.4,1.55-3.72,2.33a14.34,14.34,0,0,0-2.64-2.75c8-4.32,14.16-10.32,17.4-15.24l4.2.84c-.84,1.2-1.68,2.28-2.7,3.48h13.56l.66-.24,2.7,1.8a39.73,39.73,0,0,1-4.74,6.48h16.2v13.13H630.86l-.48.42a30.06,30.06,0,0,1,9.12,8.88,101.82,101.82,0,0,0,13.5-8.21Zm-26.64-6.6a25.27,25.27,0,0,0,5.28-6.83H618.56v6.83Zm-5.1-14.87a59.64,59.64,0,0,1-5.28,4.86h15.66a38,38,0,0,0,3.84-4.86Zm27.36,8H638.66a28.09,28.09,0,0,1-4.56,6.83h17.7Z"/><path d="M693.56,1901.42V1929h-3.9v-27.54H679.4c-.18,10.08-1.74,20-8.88,27.9a15.89,15.89,0,0,0-2.94-2.7c6.54-7.2,7.86-16.14,8.1-25.2h-7.92v-3.71h8v-15.9h-7.08v-3.72h30.66v3.72h-5.76v15.9h6.54v3.71Zm-3.9-3.71v-15.9h-10.2v15.9Zm33.18,11.69c-5,8.16-13.68,15.36-23,19.62a14.41,14.41,0,0,0-2.82-3.24c9-3.66,17.58-10.38,22.08-17.82Zm-3.24-32.51c-4.32,5.46-11.16,10.73-17.16,14a15.73,15.73,0,0,0-2.88-2.75c5.76-2.88,12.6-8,16.32-12.78Zm1.8,16.37A65.72,65.72,0,0,1,703,1908.38a20.87,20.87,0,0,0-2.82-2.82c6.18-3.12,13.5-8.64,17.58-13.79Z"/><path d="M747.86,1913.06c-1.26-1.86-4.08-5.64-6.48-8.52v24.36H737.3v-23.64a61.07,61.07,0,0,1-7.68,7.62,13.85,13.85,0,0,0-2.22-3.66,60.27,60.27,0,0,0,16.38-20.51h-15.3v-3.66h17.28l.78-.18,2.34,1.62a62.93,62.93,0,0,1-7.44,13.43c.6.66,1.32,1.5,2.16,2.41a46.19,46.19,0,0,0,4.86-5.88l2.82,2.27c-1.86,1.92-4,4-5.82,5.64,2.1,2.28,4.14,4.56,4.92,5.46Zm-7.8-28.61a50.51,50.51,0,0,0-5.16-8.4l3.06-1.68a46,46,0,0,1,5.28,8Zm40-2.7c-.84,31-1.68,41.33-4.08,44.33a5.75,5.75,0,0,1-4.5,2.46,63.83,63.83,0,0,1-8.82-.12,10.21,10.21,0,0,0-1.2-3.84c3.78.3,7.14.36,8.52.36a2.7,2.7,0,0,0,2.46-1c2-2.28,2.88-12.48,3.72-40.55H764.06c-1,21.59-3.9,36.17-15.24,45.71a18.44,18.44,0,0,0-3.06-3.06c11-8.4,13.44-22.62,14.22-42.65h-10.2v-3.84h30.3Z"/><path d="M832.46,1888.89c-3.48,9.65-8.22,17.33-14.4,23.51a59.93,59.93,0,0,0,24.6,12.6,20.15,20.15,0,0,0-2.7,3.6,61.1,61.1,0,0,1-24.9-13.32c-6.78,5.94-15.06,10.32-25.14,13.56a18.63,18.63,0,0,0-2.46-3.66c10-2.94,18.12-7.08,24.72-12.72a68.52,68.52,0,0,1-14.64-23.57h-9.3V1885h53.7v3.9Zm-30.9,0a62.52,62.52,0,0,0,13.56,20.75A57,57,0,0,0,828,1888.89Zm13.5-4.26a45.75,45.75,0,0,0-4.56-9.36l4.08-1.2a46.78,46.78,0,0,1,4.8,9.18Z"/><path d="M866.36,1918.88a9,9,0,1,1-9.06-9A9,9,0,0,1,866.36,1918.88Zm-2.82,0a6.21,6.21,0,1,0-6.24,6.24A6.22,6.22,0,0,0,863.54,1918.88Z"/><path d="M515.84,1959.62H496.7v-3.29h19.14Zm-1.2,15.9h-16v-3.23h16Zm-.36,22H502.34v2.82H499v-20h15.24Zm-15.18-30v-3.23h15.24v3.23Zm7.92-11.69a37.94,37.94,0,0,0-5.16-7.8l3.3-1.32a43.55,43.55,0,0,1,5.4,7.5Zm-4.68,27.77v10.56h8.58v-10.56Zm28.38,10.92a53.19,53.19,0,0,1-13.5,6.54,17.47,17.47,0,0,0-2.58-2.58c4.56-1.32,10.08-3.78,12.72-5.88Zm1-41.93h-14v-2.82h14v-3.42h3.9v3.42h14.94v2.82H535.64v3.06h13.2v2.7h-29v-2.7h11.94ZM518.18,1961H550.1v11.69H518.18Zm30.3,31.55H519.86V1975h28.62Zm-27-22.25h6.12v-6.84h-6.12Zm23.28,7.25H523.52v2.7h21.24Zm0,4.8H523.52v2.76h21.24Zm0,4.8H523.52V1990h21.24Zm-7.32-16.85v-6.84h-7.08v6.84ZM539,1992.5c4.62,2,9.66,4.38,12.84,6.06l-2.28,2.64c-3-1.68-8-4.2-12.42-6.3Zm7.68-29.09h-6.42v6.84h6.42Z"/><path d="M575.48,1947.75a105.89,105.89,0,0,1-6.18,12.9v40.25h-4v-34.07a58.5,58.5,0,0,1-6.36,7.67,22.37,22.37,0,0,0-2.34-3.9c6-5.81,11.64-14.81,15.06-24Zm17.22,12.48v9h17.52v3.72H592.7v9.48H611v3.78H592.7V2001h-4v-40.73h-4.44a65.13,65.13,0,0,1-8.64,12.65,28.89,28.89,0,0,0-3.12-2.7c5.46-5.57,10.32-14.27,13.26-23l3.84,1c-1,2.82-2.22,5.58-3.42,8.28h25.38v3.84Z"/><path d="M619.82,1948.71h4.8v33h.18l14.28-17.69h5.46l-10.74,13L646,1996.46H640.7l-9.78-16-6.3,7.38v8.64h-4.8Z"/><path d="M649.64,1988.12c0-7.08,6.18-10.56,20.1-12.12.06-4.38-1.32-8.7-6.9-8.7-3.9,0-7.38,1.87-9.84,3.61l-2-3.42c2.82-1.87,7.38-4.26,12.6-4.26,7.86,0,11,5.34,11,13.13v20.1h-4l-.42-4H670c-3.12,2.64-6.84,4.74-10.92,4.74C653.72,1997.24,649.64,1994,649.64,1988.12Zm4.14-39.41,2.16-2,7.8,7.8H664l7.8-7.8,2.1,2-7.62,9.36H661.4Zm16,40.07v-9.48c-11.46,1.32-15.36,4.08-15.36,8.52,0,3.9,2.7,5.46,6,5.46S666.44,1991.72,669.74,1988.78Z"/><path d="M685.28,1964.07h4l.48,4.73h.18c3.12-3,6.48-5.57,10.92-5.57,6.78,0,9.9,4.38,9.9,12.65v20.58H705.8v-20c0-6.23-1.92-9-6.42-9-3.42,0-5.88,1.8-9.24,5.27v23.7h-4.86Z"/><path d="M737.24,1990.88a9,9,0,1,1-9.06-9A9,9,0,0,1,737.24,1990.88Zm-2.82,0a6.21,6.21,0,1,0-6.24,6.24A6.22,6.22,0,0,0,734.42,1990.88Z"/><rect class="cls-2" x="1113" y="1234.5" width="65" height="220" rx="12"/><path class="cls-1" d="M1158.05,1273.79a27.61,27.61,0,0,0,11.5,8.1,11.65,11.65,0,0,0-2.15,2.55,30.77,30.77,0,0,1-12.8-10.65h-15.95a34.39,34.39,0,0,1-13,11.3,11.43,11.43,0,0,0-2.15-2.55,30.39,30.39,0,0,0,11.6-8.75H1124v-2.85h10v-16.15h-7.7V1252h7.7v-5h3.3v5h18.55v-5h3.35v5h7.65v2.8h-7.65v16.15h9.8v2.85Zm-10,14.5h17.3v2.85H1127.8v-2.85h16.9v-5.6h-10.45v-2.8h10.45v-4.4h3.35v4.4h10.65v2.8h-10.65Zm-10.8-33.5v3.6h18.55v-3.6Zm0,9.8h18.55v-3.65h-18.55Zm0,6.35h18.55v-3.8h-18.55Z"/><path class="cls-1" d="M1142.25,1315.54s0,1.15,0,1.55c-.6,15.85-1.2,21.2-2.6,23a3.71,3.71,0,0,1-2.8,1.45,32.65,32.65,0,0,1-4.45,0,9.25,9.25,0,0,0-.85-3c1.75.15,3.2.15,3.9.15a1.42,1.42,0,0,0,1.45-.65c1-1.2,1.6-6,2.15-19.35h-6.8c-.55,10-2,18.25-6.45,23.65a9.53,9.53,0,0,0-2.55-2.35c5.45-6.45,5.9-17.85,6.1-31.55h-5.2v-3.1h20.1v3.1h-11.65c0,2.45-.1,4.85-.2,7.15Zm-7.9-10.45a33.47,33.47,0,0,0-4.25-7.15l2.9-1.15a31.92,31.92,0,0,1,4.4,7Zm23.85-7.45a15.26,15.26,0,0,1-.85,2.55c2.65,5.45,7.7,11.35,12.45,14a13,13,0,0,0-2.45,2.75c-4.25-2.7-8.5-8-11.4-13.3a32.61,32.61,0,0,1-11,13.6,12.79,12.79,0,0,0-2.35-2.65c5.85-3.6,10.35-10.2,12.5-17.85Zm-8.3,32.45a74,74,0,0,1,13.6,8.25l-2.25,2.9c-2.85-2.6-8.75-6.3-13.4-8.65Zm9.5-4.85a66.22,66.22,0,0,0-8.6-6.85l2.15-2.2a67.46,67.46,0,0,1,8.75,6.55Z"/><path class="cls-1" d="M1135.5,1360c-1.6,7.2-4.55,16.15-9.1,21.7a19.23,19.23,0,0,0-3.1-1.8c4.55-5.25,7.3-13.85,8.55-20.55Zm12.9-12.3v40c0,2.55-.7,3.6-2.35,4.2s-4.8.6-9.4.6a15.62,15.62,0,0,0-1.4-3.45c3.7.1,7.3.1,8.25.05s1.45-.35,1.45-1.4v-40ZM1160,1359c4.45,7,8.7,16.1,10,22l-3.45,1.45c-1.25-5.85-5.25-15.15-9.6-22.3Z"/><path class="cls-1" d="M1164.65,1424.74a72.75,72.75,0,0,1-7.65,3.65,19.75,19.75,0,0,0,12.1,9.55,10.66,10.66,0,0,0-2.1,2.6,22.77,22.77,0,0,1-12.5-11.1c-1.1.45-2.15.85-3.2,1.2,1.5,4.4.7,8.7-1.6,10.35a6,6,0,0,1-4.25,1.3c-1,0-2.25,0-3.55-.1a5.77,5.77,0,0,0-.9-2.85,30,30,0,0,0,4,.2,4.12,4.12,0,0,0,2.7-.65c1.35-1,1.9-3.75,1-6.9-5.55,3.7-14.45,7-22,8.45a11,11,0,0,0-1.45-2.4c8-1.1,17.65-4.65,22.65-8.35a13.35,13.35,0,0,0-1.25-2.15,69.47,69.47,0,0,1-17.55,6.35,7.59,7.59,0,0,0-1.4-2.15c5.8-1,13.4-3.4,17.7-5.85-.6-.55-1.25-1.15-2-1.7a80,80,0,0,1-15.25,4.15,16.41,16.41,0,0,0-1.55-2.2c5.7-.75,12.15-2.15,16.75-4.15h-18.55v-2.55h28c.3-.9.55-1.8.9-2.75h-21.7c1.25-2.8,3-7,4-10.25l3,.5a42,42,0,0,0-3.4-3.25l2-1.15h-6.25a29.23,29.23,0,0,1-5.1,5.6,25.27,25.27,0,0,0-2.35-2.2,26.89,26.89,0,0,0,7.5-9.35l3,.85c-.45.9-1,1.75-1.4,2.65h13.45v2.45h-8.3a44.9,44.9,0,0,1,4,3.65l-2.45,1.6a4.8,4.8,0,0,0-.7-.75c-.2.65-.45,1.25-.65,2h17.75l.6-.2,2.25.5c-.8,3.15-1.9,7-3,10.15h12V1422h-20.25c-.6.35-1.2.7-1.85,1a16.36,16.36,0,0,1,4.4,5.35,90.1,90.1,0,0,0,11.6-5.5Zm-10.2-10.3c.35-1.15.65-2.2,1-3.2h-17.7c-.45,1.15-.9,2.2-1.3,3.2Zm14.75-14.3v2.45h-16.6a28.84,28.84,0,0,1-4.55,5.15,15.06,15.06,0,0,0-2.55-2,21.57,21.57,0,0,0,6.7-9.1l3.1.8a26.43,26.43,0,0,1-1.25,2.7Zm-7.9,8a32.47,32.47,0,0,0-3.9-4.25l2.3-1.25a30.14,30.14,0,0,1,4,4Z"/><path class="cls-3" d="M927,1103.5V1385c0,109.17-93.6,198.49-208,198.49H525c-114.4,0-208-89.32-208-198.49V1103.5"/></svg>