<svg id="Layer_1" data-name="Layer 1" xmlns="http://www.w3.org/2000/svg" viewBox="0 0 1242 2208"><defs><style>.cls-1{fill:#f6eabe;}.cls-2{fill:#666;}</style></defs><rect class="cls-1" width="1242" height="2208"/><path d="M943.77,233.44s-.79,23-.79,30.17c-13.5,388.26-24.61,523.24-59.55,564.53-18.26,23.82-38.11,31-67.49,33.35-30.17,2.38-83.37,1.59-133.39-2.38-1.59-16.68-8.73-40.5-19.06-56.38,58.76,5.56,112.75,5.56,133.39,5.56,16.68,0,27-2.38,35.73-12.7,30.18-30.17,43.67-162.77,54-509.75H598.39c-10.33,207.24-39.7,464.49-294.57,586.76-8.74-13.49-24.62-33.34-39.7-42.87C509.46,717,531.69,475.61,540.43,285.84H296.67v-52.4Z"/><path d="M237,1899.83c-2.92,1.64-6.46,3.47-9.86,5,2.79,6.25,8.29,13.46,16.45,16.93a20.37,20.37,0,0,0-3,3.81c-8.5-4.15-14.21-12.52-17.06-19.11-1.36.61-2.72,1.09-3.95,1.56,4.49,7.89,3.54,15.71-1.29,18.84a10.81,10.81,0,0,1-6.93,2c-1.57,0-3.61-.07-5.78-.14a10.52,10.52,0,0,0-1.3-4.14,57.65,57.65,0,0,0,6.33.27,7.73,7.73,0,0,0,4.82-1.16c2.86-1.9,3.68-6.8,1.23-12.24-7.75,6-20.26,11.43-30.33,14.08a16.57,16.57,0,0,0-2.58-3.47c10.74-2.38,24.07-8,31.21-13.73a28.29,28.29,0,0,0-2.65-3.4c-6.6,4.42-16.86,8.29-24.82,10.26a18,18,0,0,0-2.65-3.33c8.36-1.63,18.83-5.3,25-9.25a36.1,36.1,0,0,0-4.15-3.26,107.81,107.81,0,0,1-17.47,6.39,16.09,16.09,0,0,0-2.59-3.13,94.33,94.33,0,0,0,20.13-6.73H190.08v-11.15c-1.36.95-2.72,1.77-4.21,2.65a16.38,16.38,0,0,0-3-3.12c9.11-4.9,16-11.7,19.65-17.27l4.82,1c-.95,1.36-1.9,2.58-3.06,3.94h15.37l.68-.27,3.13,2a45.34,45.34,0,0,1-5.44,7.34h18.42v14.89H211.91c-.82.55-1.7,1.09-2.58,1.63a32.77,32.77,0,0,1,8.29,7.69,115.19,115.19,0,0,0,15.78-8.09Zm-42.63-7.54h16.38v-7.75H194.37Zm6.66-16.87a68.36,68.36,0,0,1-6,5.51h17.74a41.84,41.84,0,0,0,4.35-5.51Zm31,9.12H214.83v7.75H232Z"/><path d="M273.93,1880.32c-1.36,2.79-2.86,5.64-4.42,8.3h33.11v34.6c0,2.86-.68,4.22-2.79,5s-5.85.75-11.76.75a19.08,19.08,0,0,0-1.5-4.42c4.69.2,8.84.13,10,.13s1.63-.47,1.63-1.49v-7.55H268.42c-.95,5-2.93,10.06-6.94,13.87a14,14,0,0,0-3.12-3.54c5.64-5.5,6.25-13,6.25-19.51v-10.81a56.83,56.83,0,0,1-11.49,11,19.17,19.17,0,0,0-2.86-3.53c8.16-5.58,14.35-13.81,18.77-22.78H251.62V1876h19.25a65.27,65.27,0,0,0,3.12-8.84l4.49,1a81,81,0,0,1-2.79,7.82h34.95v4.28Zm24.27,31.35v-7.62h-29v2.45c0,1.63-.07,3.33-.21,5.17Zm0-19h-29v7.42h29Z"/><path d="M376.47,1874.61s-.07,2-.07,2.58c-1.16,33.25-2.11,44.81-5.1,48.35-1.57,2-3.26,2.65-5.78,2.85a84.27,84.27,0,0,1-11.42-.2,12,12,0,0,0-1.64-4.83c5,.48,9.66.48,11.43.48a3.51,3.51,0,0,0,3.06-1.09c2.58-2.59,3.74-13.94,4.62-43.65H346.89c-.88,17.74-3.4,39.77-25.23,50.24a13.25,13.25,0,0,0-3.4-3.67c21-9.65,22.92-30.32,23.67-46.57H321.05v-4.49Z"/><path d="M400.54,1887.32c1.84,2.52,7.69,11.36,9,13.53l-2.72,3.2c-1.09-2.45-4-7.62-6.26-11.36V1929h-4.21v-33c-2.18,7.34-5,14.55-8,19a17,17,0,0,0-2.38-4.22c4.08-5.71,8.3-16.79,10.2-26.17h-8.63v-4.29h8.84v-13.12h4.21v13.12h7.28v4.29h-7.28Zm30.19-12v9.45H446.3v39c0,2.72-.54,4-2.38,4.76s-5.1.75-10,.75a15.14,15.14,0,0,0-1.36-4.29c3.74.14,7.14.14,8.09.07s1.29-.34,1.29-1.36v-34.81H430.53v1.83a31.65,31.65,0,0,1-.27,3.88c4,5.78,8.77,13.12,11.08,17.47l-3.47,2.18a155,155,0,0,0-8.7-14.62,31.49,31.49,0,0,1-9.52,15.5,19.89,19.89,0,0,0-3.2-2.72c8.91-7.14,10-17.13,10-21.75v-1.77H415.64v40.52h-4.22v-44.6h15v-9.45H409.86v-4.22h37.33v4.22Z"/><path d="M477.65,1904.25l-4.15,3.54a105.53,105.53,0,0,0-15.09-15.16l3.88-3.54A135.34,135.34,0,0,1,477.65,1904.25Z"/><path d="M546.47,1874.61s-.07,2-.07,2.58c-1.16,33.25-2.11,44.81-5.1,48.35-1.57,2-3.26,2.65-5.78,2.85a84.27,84.27,0,0,1-11.42-.2,12,12,0,0,0-1.64-4.83c5,.48,9.66.48,11.43.48a3.51,3.51,0,0,0,3.06-1.09c2.58-2.59,3.74-13.94,4.62-43.65H516.89c-.88,17.74-3.4,39.77-25.23,50.24a13.25,13.25,0,0,0-3.4-3.67c21-9.65,22.92-30.32,23.67-46.57H491.05v-4.49Z"/><path d="M572.38,1920c3.19-.68,6.59-1.36,9.93-2.11l.34,3.81c-8.57,1.9-17.48,3.81-24.14,5.23l-1-4.14c3.06-.55,6.87-1.23,11-2.11v-21.22H557.9v-3.94h10.54v-7.75H561.5l-.07-2.24a25.29,25.29,0,0,1-2.51,2.24,25.5,25.5,0,0,0-3.54-2.58,48.63,48.63,0,0,0,14.14-18.5l4.15,1.09c-.41.88-.82,1.77-1.29,2.65a127.06,127.06,0,0,1,11.35,10.68l-3.46,2.38a93.07,93.07,0,0,0-9.73-9.8,60.27,60.27,0,0,1-7.48,10.2h16.59v3.88h-7.27v7.75h9.18v3.94h-9.18Zm-9.86-16.73a58.64,58.64,0,0,1,2.86,13l-3.34.81a59.33,59.33,0,0,0-2.58-13.12Zm12.31,11.49a96,96,0,0,0,2.85-12.37l3.47.95c-1.09,4.08-2.24,9.11-3.33,12.31Zm39.3-40.79a38.07,38.07,0,0,1-9.73,14.34,43,43,0,0,0,15,6.8,20.06,20.06,0,0,0-2.65,3.81,43.25,43.25,0,0,1-15.5-7.89,52.36,52.36,0,0,1-17.07,8.84,14.56,14.56,0,0,0-2.24-3.6,47.6,47.6,0,0,0,16.25-7.89,40.53,40.53,0,0,1-6.12-7.61,43.22,43.22,0,0,1-6.8,6.45,23.54,23.54,0,0,0-3.33-2.71,39.91,39.91,0,0,0,13.93-17.34l4.08,1c-.68,1.63-1.49,3.12-2.31,4.69h13.06l.74-.2Zm-10.88,43.17h14.68v3.74H603.25v8.16H598.9v-8.16h-15v-3.74h15V1912H587.13v-3.6H598.9v-4.76H586.73v-3.53H598.9v-4.56h4.35v4.56h12v3.53h-12v4.76H615v3.6H603.25Zm-7.89-40.59-.75,1.09a34.36,34.36,0,0,0,6.67,8.16,32.44,32.44,0,0,0,7.2-9.25Z"/><path d="M647.65,1904.25l-4.15,3.54a105.53,105.53,0,0,0-15.09-15.16l3.88-3.54A135.34,135.34,0,0,1,647.65,1904.25Z"/><path d="M716.47,1874.61s-.07,2-.07,2.58c-1.16,33.25-2.11,44.81-5.1,48.35-1.56,2-3.26,2.65-5.78,2.85a84.27,84.27,0,0,1-11.42-.2,12,12,0,0,0-1.64-4.83c5,.48,9.66.48,11.43.48a3.51,3.51,0,0,0,3.06-1.09c2.58-2.59,3.74-13.94,4.62-43.65H686.89c-.88,17.74-3.4,39.77-25.23,50.24a13.25,13.25,0,0,0-3.4-3.67c21-9.65,22.92-30.32,23.67-46.57H661.05v-4.49Z"/><path d="M754.68,1888.21c-9.72,1.77-19.71,3.74-27,5l-.75-3.88c4.9-.74,11.49-1.9,18.5-3.12v-9.32h-16.8v-3.74h16.8v-6h4.49v18.43l4.55-.82ZM777.8,1924c0,2.59-.68,3.81-2.65,4.49s-5.51.75-10.88.75a18.2,18.2,0,0,0-1.49-4.08c4,.13,8,.13,9,.13s1.43-.4,1.43-1.36v-9.11c-10.27,2.11-21.28,4.22-29.37,5.58l-1.5-4c7.75-1.16,19.65-3.27,30.87-5.37v-12.72H741.29v8.43c0,7.14-1.36,16.59-8.77,22.85a14,14,0,0,0-3.26-3.13c6.73-5.78,7.61-13.53,7.61-19.79v-12.24H777.8Zm-33.38-22.91c7.48,1.22,17.2,3.81,22.3,6.19l-1.56,3.53a116.52,116.52,0,0,0-22.44-6.59Zm35.42-13.6c2.38,0,2.86-.82,3.06-5.85a15.8,15.8,0,0,0,4.08,1.57c-.47,6.45-1.9,8.22-6.73,8.22H768.49c-6.19,0-7.82-1.29-7.82-6.12V1867.2h4.55v6h17.21v3.74H765.22v8.36c0,1.77.55,2.18,3.68,2.18Z"/><path d="M812.55,1868c-1.08,3.33-2.38,7.13-3.6,10.06h11.49v43.92h-19v5.44h-4.14V1878h7.54a73.62,73.62,0,0,0,2.93-11Zm3.74,14.14H801.4v14.82h14.89Zm0,35.76V1901H801.4v16.86Zm37.47-37.6c-1.09,31.21-2,41.61-4.76,44.88-1.36,1.83-2.93,2.38-5.17,2.58a84.19,84.19,0,0,1-10-.13,10.67,10.67,0,0,0-1.5-4.42c4.42.4,8.5.4,10,.4s2.18-.13,2.86-1c2.24-2.38,3.33-12.85,4.22-40.45H831.59a62.56,62.56,0,0,1-6.39,12.1,43.38,43.38,0,0,0-3.81-2.52c4.63-6.05,8.3-15.43,10.41-24.81l4.35,1c-.89,3.4-1.84,6.8-3,10.06h20.6Zm-14.48,30.6a121.12,121.12,0,0,0-10.54-15.78l3.46-2c3.95,4.82,8.71,11.35,10.88,15.43Z"/><path d="M924,1895v4.89H862.26V1895Z"/><path d="M952,1901.26c-2.85.89-5.64,1.77-8.43,2.59v19.92c0,2.58-.61,3.74-2.17,4.48s-4,.89-7.82.82a18.12,18.12,0,0,0-1.43-4.15c2.72.07,5.17.07,5.85,0s1.15-.27,1.15-1.08v-18.63l-8,2.44-1.29-4.42c2.58-.61,5.78-1.56,9.31-2.58v-15.37h-8.36V1881h8.36v-13.8h4.42V1881h7.21v4.28h-7.21v14.08l7.82-2.38ZM982.82,1923c4.22,0,4.9-2,5.51-10.2a12.69,12.69,0,0,0,4.28,1.84c-.74,9.45-2.31,12.64-9.72,12.64H964.8c-7.75,0-10.13-1.76-10.13-9v-47.53h34.07v35.43h-4.63v-4.56H959.23v16.73c0,3.74.95,4.69,5.78,4.69Zm-23.59-47.8v22.1H969.5v-22.1Zm24.88,0H973.64v22.1h10.47Z"/><path d="M1056.47,1874.61s-.07,2-.07,2.58c-1.16,33.25-2.11,44.81-5.1,48.35-1.57,2-3.26,2.65-5.78,2.85a84.27,84.27,0,0,1-11.42-.2,12,12,0,0,0-1.64-4.83c5,.48,9.66.48,11.43.48a3.52,3.52,0,0,0,3.06-1.09c2.58-2.59,3.74-13.94,4.62-43.65h-24.68c-.89,17.74-3.4,39.77-25.23,50.24a13.25,13.25,0,0,0-3.4-3.67c21-9.65,22.92-30.32,23.67-46.57h-20.88v-4.49Z"/><path d="M526.82,1967.83c5,11.7,13.87,22.71,23.52,28a26,26,0,0,0-3.47,3.81c-10.19-6.33-19.17-18.5-24.47-31.83h-1.09v25.43h16.18v4.56H521.31v12.92h-4.69v-12.92H500.5v-4.56h16.12v-25.43h-1.23c-5.37,13.33-14.34,25.43-24.13,32a27.31,27.31,0,0,0-3.27-3.6c9.11-5.58,17.75-16.73,22.85-28.43H489.69v-4.55h26.93v-14.41h4.69v14.41h27.2v4.55Z"/><path d="M611.81,1993.2a38.13,38.13,0,0,1-9.31,8.36c2.72,3.19,5.92,5,9.25,5,1.9-.06,2.44-1.7,2.78-6.73a11.72,11.72,0,0,0,3.54,1.84c-.68,7.14-2.38,9-6.53,9-4.83,0-9.24-2.51-12.78-6.8a84.48,84.48,0,0,1-15.5,6.6,42.43,42.43,0,0,0-2.38-3.68,73.42,73.42,0,0,0,15.7-6,39.79,39.79,0,0,1-4.35-10H575.85v5l12.64-1.09-.07,3.27c-4.21.41-8.49.81-12.57,1.22v6.94c0,2.38-.55,3.46-2.45,4s-5,.61-10.13.61a22.24,22.24,0,0,0-1.43-3.6c3.81.13,7.34.06,8.36,0s1.36-.28,1.36-1.09v-6.46c-5.37.54-10.33,1-14.41,1.36l-.48-3.74c4-.27,9.18-.61,14.89-1.09v-5.3H556.94v-3.6h14.62v-5c-4.28.48-8.7.82-12.78,1a13.75,13.75,0,0,0-1-3.06c9.25-.54,20.6-1.76,26.65-3.33l2.86,2.93c-3.2.74-7.21,1.42-11.42,2v5.51h15.5A59.19,59.19,0,0,1,590,1977h4.35a64.71,64.71,0,0,0,1.36,10.14h21.49v3.6H596.72a36.25,36.25,0,0,0,3.54,7.82,30.71,30.71,0,0,0,7.61-6.73Zm5.24-17.21H557v-3.67h27.61v-4.69H563.54v-3.47h21.08v-4.48H559.87v-3.61h14.34a33.93,33.93,0,0,0-3.94-5.85l3.88-1.42a27.57,27.57,0,0,1,4.89,7.07l-.47.2h16.59a63,63,0,0,0,4.08-7.48l4.69,1.36c-1.36,2.11-2.86,4.35-4.22,6.12h14.55v3.61H589.17v4.48h21.42v3.47H589.17v4.69h27.88Zm-6.46,10.2a38.06,38.06,0,0,0-10.74-6.25l2.45-2.79a43.29,43.29,0,0,1,10.94,5.92Z"/><path d="M657.78,2004.62a80.89,80.89,0,0,0,8.37.41c2.38.07,16.72,0,19.92-.07a18.58,18.58,0,0,0-1.63,4.35H666c-13.94,0-22.57-2.18-28-11.76a35.79,35.79,0,0,1-10.74,13.26,22.32,22.32,0,0,0-3.47-3.2c7.14-4.69,11.56-12.37,13.39-22.5l4.49.68a64.28,64.28,0,0,1-1.7,6.86c2.65,6.39,7.14,9.66,13.26,11.15v-21h-28v-4.08h59.69v4.08H657.78v8h22.71v4.08H657.78Zm19.52-30.8H632.42v-22.17H677.3Zm-4.56-18.63h-35.9V1961h35.9Zm0,9.18h-35.9v6h35.9Z"/><path d="M750.47,1956.21s-.07,2-.07,2.58c-1.16,33.25-2.11,44.81-5.1,48.34-1.57,2-3.26,2.66-5.78,2.86a84.27,84.27,0,0,1-11.42-.2,12,12,0,0,0-1.64-4.83c5,.48,9.66.48,11.43.48a3.52,3.52,0,0,0,3.06-1.09c2.58-2.59,3.74-13.94,4.62-43.65H720.89c-.89,17.74-3.4,39.77-25.23,50.24a13.25,13.25,0,0,0-3.4-3.67c21-9.65,22.92-30.32,23.67-46.57H695.05v-4.49Z"/><path d="M418.68,1005.68c-7.94,14.61-13.91,30.44-19.61,46q-5.24,14.33-9.73,28.89c-3.5,11.34-6.79,22.4-7.53,34.35s2.48,22.82,7.21,33.48a42.13,42.13,0,0,0,4.47,7.76,90.81,90.81,0,0,0,10.09,12.23A95,95,0,0,0,443,1190.86c9.2,2.61,18.36,2.82,27.77,2.06,11.47-.93,22.9-2.36,34.31-3.81,25.94-3.3,51.81-7,77.68-10.77,38.09-5.55,75.43-14.84,113.38-21.13q8-1.34,16.08-2.43l-8.37,1.13c25-3.32,50.24-4.44,75.34-1.08l-8.37-1.12a190.24,190.24,0,0,1,48,12.81l-7.52-3.18a140.81,140.81,0,0,1,30.54,17.71l-6.37-4.92a118.93,118.93,0,0,1,20.65,20.63l-4.92-6.38a127.9,127.9,0,0,1,16.06,27.89l-3.18-7.52a174.34,174.34,0,0,1,11.28,43.07l-1.12-8.37c3.82,28.56,2.54,57.8-1.25,86.29l1.13-8.37a439.61,439.61,0,0,1-31,111.49l3.17-7.53a525.71,525.71,0,0,1-51.78,93.56q-8.8,12.73-18.29,25l4.92-6.37a630.06,630.06,0,0,1-87,91.35c-5.84,5-9.23,14.8-9.23,22.27,0,7.73,3.44,17,9.23,22.28,6,5.51,13.89,9.6,22.27,9.22,8.71-.39,15.67-3.53,22.28-9.22C788.45,1632.6,832.15,1582,866.32,1526a547.65,547.65,0,0,0,43.92-90.09A432.06,432.06,0,0,0,933.9,1347c10.52-69.2,10.54-150.57-41.44-204.28-23.52-24.31-55.87-39.79-88.66-46.9a269.57,269.57,0,0,0-52.12-6c-19.65-.36-39.13,1.91-58.56,4.61-37.09,5.17-73.39,14.69-110.33,20.71-18,2.94-36,5.36-54.08,7.88q-8.33,1.15-16.67,2.28l8.38-1.12c-13.07,1.75-26.15,3.45-39.27,4.83-7.71.81-16.06,2.26-23.83,1.31l8.37,1.13a53,53,0,0,1-13.09-3.8l7.53,3.17a65.38,65.38,0,0,1-13.95-8l6.37,4.93a51.57,51.57,0,0,1-8.83-8.64l4.93,6.38a41.85,41.85,0,0,1-5.23-8.77l3.18,7.53a39.71,39.71,0,0,1-2.68-9.79l1.13,8.37a45.08,45.08,0,0,1,.12-11.37l-1.12,8.38c.95-6.27,3-12.36,4.83-18.42q3.08-10.21,6.51-20.32c3.81-11.21,7.93-22.31,12.52-33.22l-3.18,7.53c2.56-6,5.22-12.06,8.35-17.83a33.06,33.06,0,0,0,3.18-24.27c-2-7.31-7.67-15.23-14.48-18.83-7.31-3.86-16.17-5.79-24.27-3.17-7.68,2.48-14.87,7.2-18.83,14.47Z"/><path d="M563.28,1161.9a253,253,0,0,1-.6,64.47l1.13-8.37c-4.34,31.71-13.95,62.44-26.35,91.88l3.18-7.52c-12.37,29.21-27.42,57.2-43.67,84.42q-23.75,39.77-50.3,77.79-15,21.39-30.9,42.07l4.93-6.38a931.72,931.72,0,0,1-81.51,92.67q-12.46,12.35-25.46,24.15c-5.81,5.27-9.23,14.59-9.23,22.27s3.43,17,9.23,22.28c6,5.51,13.88,9.6,22.27,9.22a34.17,34.17,0,0,0,22.27-9.22,863.67,863.67,0,0,0,75.92-78.56,1138.26,1138.26,0,0,0,70.72-92.23c20.69-29.92,40.29-60.72,58.16-92.42,19.42-34.44,36.66-70.57,48.72-108.28a326.84,326.84,0,0,0,12.42-52.91c3-20.56,4.74-41.08,3.36-61.86-.3-4.5-.74-9-1.29-13.47a35,35,0,0,0-9.23-22.28c-5.46-5.46-14.42-9.57-22.27-9.22-8.15.36-16.6,3-22.27,9.22l-4.93,6.38a31.36,31.36,0,0,0-4.3,15.9Z"/><path d="M323.89,1668.79c14.2,11,28.62,21.58,44,30.9a346.35,346.35,0,0,0,38.91,20.43c27.55,12.26,56,21.82,85.93,26,15.75,2.22,31.45,3.86,47.37,3.75a317.51,317.51,0,0,0,47.07-4.28c29.13-4.58,57.08-14.34,83.62-27.05,28.39-13.59,54.36-31.8,78.27-52.19q4.38-3.73,8.65-7.61a32.39,32.39,0,0,0,0-44.54c-6-5.51-13.89-9.61-22.28-9.23l-8.37,1.12a31.44,31.44,0,0,0-13.9,8.11q-10.93,9.88-22.59,18.92l6.37-4.92a326.7,326.7,0,0,1-54.64,34.33q-7.9,3.9-16,7.33l7.53-3.18a273.44,273.44,0,0,1-69.13,19l8.38-1.13a265.19,265.19,0,0,1-70.19-.06l8.37,1.12a294.07,294.07,0,0,1-74.39-20.6l7.52,3.17A356.84,356.84,0,0,1,380.77,1633q-9-6.18-17.59-12.85l6.37,4.93-1.11-.86a23.6,23.6,0,0,0-10.14-6.52,28.52,28.52,0,0,0-24.27,0,23.72,23.72,0,0,0-10.14,6.52c-5.51,6-9.6,13.88-9.22,22.27l1.12,8.37a31.52,31.52,0,0,0,8.1,13.9Z"/><path class="cls-2" d="M188.47,986.64s-.07,2-.07,2.58c-1.16,33.25-2.11,44.81-5.1,48.34-1.57,2-3.27,2.66-5.78,2.86a84.27,84.27,0,0,1-11.42-.2,12,12,0,0,0-1.64-4.83c5,.47,9.66.47,11.43.47a3.51,3.51,0,0,0,3.06-1.08c2.58-2.59,3.74-13.94,4.62-43.65H158.89c-.89,17.74-3.4,39.77-25.23,50.24a13.25,13.25,0,0,0-3.4-3.67c21-9.66,22.92-30.32,23.67-46.57H133.05v-4.49Z"/><path class="cls-2" d="M212.54,999.35c1.84,2.52,7.69,11.36,9,13.53l-2.72,3.2c-1.09-2.45-4-7.62-6.26-11.36V1041h-4.21v-33c-2.18,7.34-5,14.55-8,19a17,17,0,0,0-2.38-4.22c4.08-5.71,8.3-16.79,10.2-26.18h-8.63v-4.28h8.84V979.16h4.21v13.12h7.28v4.28h-7.28Zm30.19-12v9.46H258.3v39c0,2.72-.54,4-2.38,4.76s-5.1.74-10,.74a15.08,15.08,0,0,0-1.36-4.28c3.74.14,7.14.14,8.09.07s1.29-.34,1.29-1.36v-34.81H242.53v1.83a31.78,31.78,0,0,1-.27,3.88c4,5.78,8.77,13.12,11.08,17.47l-3.47,2.18a157.19,157.19,0,0,0-8.7-14.62,31.49,31.49,0,0,1-9.52,15.5,19.89,19.89,0,0,0-3.2-2.72c8.91-7.14,10-17.13,10-21.76v-1.76H227.64v40.52h-4.22v-44.6h15v-9.46H221.86v-4.21h37.33v4.21Z"/><path class="cls-2" d="M1102.15,1516.48s-.06,2-.06,2.58c-1.16,33.25-2.11,44.81-5.1,48.35-1.57,2-3.27,2.65-5.78,2.85a82.79,82.79,0,0,1-11.43-.2,11.8,11.8,0,0,0-1.63-4.83c5,.48,9.66.48,11.43.48a3.49,3.49,0,0,0,3.05-1.09c2.59-2.58,3.74-13.94,4.63-43.65h-24.68c-.89,17.74-3.4,39.77-25.23,50.24a13.56,13.56,0,0,0-3.4-3.67c21-9.65,22.92-30.32,23.66-46.57h-20.87v-4.49Z"/><path class="cls-2" d="M1140.37,1530.08c-9.72,1.77-19.72,3.74-27,5l-.75-3.88c4.9-.74,11.49-1.9,18.5-3.12v-9.32h-16.8v-3.74h16.8v-6h4.48v18.43l4.56-.82Zm23.12,35.76c0,2.59-.68,3.81-2.65,4.49s-5.51.75-10.88.75a17.75,17.75,0,0,0-1.5-4.08c4,.13,8,.13,9,.13s1.43-.4,1.43-1.36v-9.11c-10.27,2.11-21.29,4.22-29.38,5.58l-1.49-4c7.75-1.16,19.65-3.27,30.87-5.37v-12.72H1127v8.43c0,7.14-1.36,16.59-8.77,22.85a14.29,14.29,0,0,0-3.27-3.13c6.73-5.78,7.62-13.53,7.62-19.79v-12.23h40.93Zm-33.38-22.91c7.47,1.22,17.2,3.81,22.3,6.19l-1.57,3.53a116.2,116.2,0,0,0-22.43-6.59Zm35.42-13.6c2.38,0,2.86-.82,3.06-5.85a15.8,15.8,0,0,0,4.08,1.57c-.48,6.46-1.9,8.22-6.73,8.22h-11.77c-6.18,0-7.81-1.29-7.81-6.12v-18.08h4.55v6h17.2v3.74h-17.2v8.36c0,1.77.55,2.18,3.67,2.18Z"/><path class="cls-2" d="M189.15,1297.48s-.06,2-.06,2.58c-1.16,33.25-2.11,44.81-5.1,48.35-1.57,2-3.27,2.65-5.78,2.85a82.79,82.79,0,0,1-11.43-.2,11.8,11.8,0,0,0-1.63-4.83c5,.48,9.66.48,11.43.48a3.49,3.49,0,0,0,3-1.09c2.59-2.58,3.74-13.94,4.63-43.65H159.58c-.89,17.74-3.4,39.77-25.23,50.24a13.56,13.56,0,0,0-3.4-3.67c21-9.65,22.92-30.32,23.66-46.57H133.74v-4.49Z"/><path class="cls-2" d="M215.07,1342.9c3.19-.68,6.59-1.36,9.92-2.11l.34,3.81c-8.56,1.9-17.47,3.81-24.13,5.24l-1-4.15c3.06-.55,6.86-1.23,10.94-2.11v-21.21H200.58v-3.95h10.54v-7.75h-6.93l-.07-2.24a24.28,24.28,0,0,1-2.52,2.24,24.79,24.79,0,0,0-3.53-2.58,48.63,48.63,0,0,0,14.14-18.5l4.15,1.09c-.41.89-.82,1.77-1.29,2.65A127.06,127.06,0,0,1,226.42,1304l-3.47,2.38a91.93,91.93,0,0,0-9.72-9.79,61.23,61.23,0,0,1-7.48,10.2h16.59v3.87h-7.27v7.75h9.18v3.95h-9.18Zm-9.86-16.73a58.71,58.71,0,0,1,2.85,13l-3.33.82a59.3,59.3,0,0,0-2.58-13.13Zm12.3,11.5a96.57,96.57,0,0,0,2.86-12.38l3.47,1c-1.09,4.08-2.25,9.11-3.33,12.31Zm39.3-40.8a37.94,37.94,0,0,1-9.72,14.34,42.81,42.81,0,0,0,15,6.8,19.92,19.92,0,0,0-2.65,3.81,43.37,43.37,0,0,1-15.51-7.88,52.48,52.48,0,0,1-17.06,8.83,14.49,14.49,0,0,0-2.25-3.6,47.24,47.24,0,0,0,16.25-7.89,41,41,0,0,1-6.12-7.61,42.87,42.87,0,0,1-6.8,6.46,22.9,22.9,0,0,0-3.33-2.72,39.87,39.87,0,0,0,13.94-17.34l4.08,1c-.68,1.63-1.49,3.13-2.31,4.69h13l.75-.2ZM245.94,1340h14.68v3.74H245.94v8.16h-4.36v-8.16h-15V1340h15v-5.16H229.82v-3.61h11.76v-4.76H229.41V1323h12.17v-4.56h4.36V1323h12v3.53h-12v4.76H257.7v3.61H245.94Zm-7.89-40.59-.75,1.09a34.11,34.11,0,0,0,6.66,8.16,32.48,32.48,0,0,0,7.21-9.25Z"/><path class="cls-2" d="M293.11,1353.85c11.9,13.62,26.62,24.66,42.38,33.45a220.94,220.94,0,0,0,55.62,21.44A245.06,245.06,0,0,0,426,1414.5c1.92.18,1.91-2.82,0-3a236.4,236.4,0,0,1-59.58-13.36,193.8,193.8,0,0,1-49.84-26.67,141.11,141.11,0,0,1-21.35-19.74c-1.27-1.46-3.39.67-2.12,2.12Z"/><path class="cls-2" d="M370.76,1045.7a163.88,163.88,0,0,0-90.36-28.29,1.5,1.5,0,0,0,0,3,161,161,0,0,1,71,17.32,158.58,158.58,0,0,1,17.85,10.57c1.6,1.09,3.1-1.51,1.52-2.6Z"/><path class="cls-2" d="M1021.13,1537q-39.6-8.91-78.28-21.44-10.77-3.49-21.45-7.27c-1.82-.65-2.61,2.25-.8,2.89q38.24,13.52,77.61,23.44,11,2.79,22.13,5.27c1.88.43,2.68-2.47.79-2.89Z"/></svg>