<svg id="Layer_1" data-name="Layer 1" xmlns="http://www.w3.org/2000/svg" viewBox="0 0 1242 2208"><defs><style>.cls-1{fill:#f6eabe;}.cls-2{fill:#666;}</style></defs><rect class="cls-1" width="1242" height="2208"/><path d="M943,329.27s-.8,21.44-1.59,28.59C922.33,687.36,906.46,804.08,870.73,843c-17.47,21.44-35.73,27.79-65.11,30.18-26.2,2.38-76.22.79-125.45-3.18-1.59-15.09-7.94-38.11-18.26-53.2,54.78,4.77,105.6,5.56,125.45,5.56,16.67,0,27-2.38,36.52-11.91,28.58-27.79,46-141.33,61.93-428H607.92C596.8,547.62,543.6,739,312.55,881.89c-8.73-13.5-27.79-33.35-40.49-41.29C491.2,708.8,542,533.33,553.13,382.47h-258v-53.2H555.51c.79-14.29.79-27,.79-40.49V156.18h54.79v132.6c0,13.5,0,26.2-.79,40.49Z"/><path d="M297.18,1886.17c-2.58,1.43-5.7,3-8.7,4.37,2.46,5.52,7.32,11.88,14.52,14.94a18.12,18.12,0,0,0-2.64,3.36c-7.5-3.66-12.54-11-15.06-16.86-1.2.54-2.4,1-3.48,1.38,4,7,3.12,13.86-1.14,16.62a9.52,9.52,0,0,1-6.12,1.74c-1.38,0-3.18-.06-5.1-.12a9.28,9.28,0,0,0-1.14-3.66,50.42,50.42,0,0,0,5.58.24,6.85,6.85,0,0,0,4.26-1c2.52-1.68,3.24-6,1.08-10.8-6.84,5.28-17.88,10.08-26.76,12.42a14.51,14.51,0,0,0-2.28-3.06c9.48-2.1,21.24-7,27.54-12.12a25.51,25.51,0,0,0-2.34-3c-5.82,3.9-14.88,7.32-21.9,9.06a15.75,15.75,0,0,0-2.34-2.94c7.38-1.44,16.62-4.68,22.08-8.16a31.09,31.09,0,0,0-3.66-2.88,94,94,0,0,1-15.42,5.64,14.31,14.31,0,0,0-2.28-2.76,84.06,84.06,0,0,0,17.76-5.93H255.78v-9.84c-1.2.84-2.4,1.55-3.72,2.34a14.11,14.11,0,0,0-2.64-2.76c8-4.32,14.16-10.32,17.34-15.24l4.26.84c-.84,1.2-1.68,2.28-2.7,3.48h13.56l.6-.24,2.76,1.8a40.15,40.15,0,0,1-4.8,6.48H296.7v13.14H275c-.72.47-1.5.95-2.28,1.43a28.71,28.71,0,0,1,7.32,6.78,101.21,101.21,0,0,0,13.92-7.13Zm-37.62-6.67H274v-6.83H259.56Zm5.88-14.87a59.64,59.64,0,0,1-5.28,4.86h15.66a38,38,0,0,0,3.84-4.86Zm27.36,8H277.62v6.83H292.8Z"/><path d="M338.1,1872.13v13.31h18.12v26.4H352v-3H320.1v3.24H316v-26.64H333.9v-13.31H309.48v-3.9H333.9v-10.92h4.2v10.92h24.6v3.9ZM352,1889.22H320.1V1905H352Z"/><path d="M388.92,1859.17a83.4,83.4,0,0,1-6.6,12.3v40.37h-4v-34.67a66.33,66.33,0,0,1-8.4,9.17,25.86,25.86,0,0,0-2.34-3.78A67.69,67.69,0,0,0,385.2,1858Zm15.72,20.16c2.16,16.25,6.24,27.41,13,28,1.68.12,2.76-3.48,3.42-10.5a13,13,0,0,0,3.3,2c-1.26,10.08-3.48,13.26-6.6,13.14-9.9-.72-14.58-13.38-16.92-32.21l-14.88,1.92-.6-3.79,15-1.85c-.54-5.53-1-11.52-1.26-17.82h4c.18,6.12.6,12,1.14,17.33l18.18-2.21.6,3.66Zm14.1-8.76a64.7,64.7,0,0,0-10-9.9l2.88-1.86a68.6,68.6,0,0,1,10.14,9.54Z"/><path d="M447.42,1897.32v9.84l11.88-2.58a16.35,16.35,0,0,0,.06,3c-14.16,3.48-16,4-17,4.62a10.36,10.36,0,0,0-1.44-3.36,3.91,3.91,0,0,0,2.64-3.84v-7.68H437.7c-.72,5.16-2.34,10.56-5.64,14.88a17.56,17.56,0,0,0-3.36-2.1c5-6.3,5.76-14.94,5.76-21.06v-7.62H481.2v3.06H438.3v3.42h40v2.82h-40c-.06,1.14-.12,2.28-.24,3.48h44.52v3.12H458.64a19.35,19.35,0,0,0,5.76,5.46,92,92,0,0,0,11.64-5.4l2.88,2.4a101,101,0,0,1-11.52,4.74,46.73,46.73,0,0,0,15.84,4A12.17,12.17,0,0,0,481,1912c-12.66-1.56-21.6-6.48-26.1-14.64Zm30.36-19H435.06v-16.67h12.48v-4.32h3.9v4.32h9.3v-4.32h3.9v4.32h13.14Zm-39-9.72h8.76v-4.19h-8.76Zm0,6.91h8.76v-4.2h-8.76Zm12.66-11.1v4.19h9.3v-4.19Zm0,6.9v4.2h9.3v-4.2Zm22.5-6.9h-9.3v4.19h9.3Zm0,6.9h-9.3v4.2h9.3Z"/><path d="M508.68,1900.74c-1.32-1.56-4.26-4.62-6.66-6.9V1912h-3.84v-18.78c-2.28,5.22-5.28,10.44-8.16,13.56a20,20,0,0,0-2-3.48c3.3-3.54,7.14-10.08,9.3-15.84h-8.28v-3.54h9.12v-7H489.9v-3.53h8.28v-6.12c-2.64.48-5.34,1-7.86,1.31a12.64,12.64,0,0,0-1.2-3c2.94-.48,6.06-1.08,9.06-1.74v-6.48H502v5.46a38.55,38.55,0,0,0,5.58-2l3.06,2.7a55.94,55.94,0,0,1-8.64,2.88v7h7.5v3.53H502v7h8.46v3.54H502v2.46c2.16,1.74,7.56,6.54,9,7.86Zm34.68-10.07H536V1912H532.2v-21.29h-9.42c-.9,8.15-3.54,15.89-11,21.53a21.38,21.38,0,0,0-3.18-2.46c6.9-5,9.42-11.94,10.26-19.07H512v-3.79h7.2c.12-1.38.12-2.7.12-4.08v-10.26h-6.42v-3.77h6.42v-11.4h3.84v11.4h9.06v-11.4H536v11.4h6.54v3.77H536v14.34h7.32Zm-11.16-3.79v-14.34h-9.06v10.26c0,1.38,0,2.7-.06,4.08Z"/><path d="M567.6,1900.26h-13V1905H550.8v-43.67h16.8Zm-13-35.27v13.73h9.24V1865Zm9.24,31.61v-14.27h-9.24v14.27Zm24-28.31v8.09h13.32V1880h-5.4v6.89h7.2v3.54h-7.2v16.68c0,2.4-.6,3.54-2.34,4.14s-4.74.72-9.66.72a16.74,16.74,0,0,0-1.32-3.78c3.78.12,7.2.12,8.16.06s1.26-.3,1.26-1.2v-16.62H569v-3.54h22.86V1880h-20.4v-3.61h12.48v-8.09H568.68v-3.6h15.24v-7.32h3.9v7.32h15.3v3.6Zm-11.76,24.47a51.18,51.18,0,0,1,7.86,10.32l-3.42,2.16a54.79,54.79,0,0,0-7.68-10.56Z"/><path d="M658.92,1906.32c0,2.76-.78,4-2.64,4.68s-5.46.72-11.1.66a12.92,12.92,0,0,0-1.38-3.84c4.32.18,8.4.12,9.6.06s1.56-.42,1.56-1.56v-12.78H638.22v17.94h-4v-17.94H618.78c-.9,6.72-2.88,13.56-7.56,18.78a11.58,11.58,0,0,0-3-2.64c6.6-7.44,7.26-18,7.26-26.46v-21.59h43.44Zm-24.66-16.56v-10.5H619.38v4c0,2.11-.06,4.26-.24,6.54Zm-14.88-24.35v10.13h14.88v-10.13Zm35.58,0H638.22v10.13H655Zm0,24.35v-10.5H638.22v10.5Z"/><path d="M685,1858c-1,2.94-2.1,6.3-3.18,8.88H692v38.75h-16.8v4.8h-3.66v-43.55h6.66a64.68,64.68,0,0,0,2.58-9.72Zm3.3,12.47H675.18v13.08h13.14Zm0,31.56v-14.88H675.18v14.88Zm33.06-33.17c-1,27.53-1.8,36.71-4.2,39.59a5.6,5.6,0,0,1-4.56,2.28,74.94,74.94,0,0,1-8.82-.12,9.42,9.42,0,0,0-1.32-3.9c3.9.36,7.5.36,8.82.36s1.92-.12,2.52-.9c2-2.1,2.94-11.34,3.72-35.7H701.82a55.33,55.33,0,0,1-5.64,10.68,36.22,36.22,0,0,0-3.36-2.22c4.08-5.33,7.32-13.61,9.18-21.89l3.84.84c-.78,3-1.62,6-2.64,8.88h18.18Zm-12.78,27a106.51,106.51,0,0,0-9.3-13.92l3.06-1.79a102.47,102.47,0,0,1,9.6,13.61Z"/><path d="M740.16,1869.55h6.66v3.72h-6.66v11.4l6.18-2,.48,3.72-6.66,2.23v18.59c0,2.34-.54,3.42-1.92,4.08s-3.6.78-7.38.72a17.73,17.73,0,0,0-1.2-3.72c2.7.12,5,.12,5.7.06s1.08-.24,1.08-1.14v-17.34l-7.38,2.46-1.14-3.84c2.34-.72,5.28-1.56,8.52-2.64v-12.59h-7.62v-3.72h7.62v-12.18h3.72Zm22.68-1.86c-.9,8.27-3.84,12.89-13.62,15.48a8.28,8.28,0,0,0-2.16-2.88c8.82-2.11,11.28-5.83,12-12.6h-7.5v6.48H748v-9.84H763c-.54-1.92-1.5-4.44-2.28-6.48l3.84-.78a53.29,53.29,0,0,1,2.76,7.26h15.24v9.84h-3.66v-6.48h-7.14v9.42c0,1.38.12,1.8,1.2,1.8H779a21.26,21.26,0,0,0,3.36-.24c.06,1,.18,2.21.3,3a14,14,0,0,1-3.48.24h-6.6c-3.72,0-4.56-1.32-4.56-4.92v-9.35ZM776.52,1907c2.28,0,3-.78,3.18-7.74a14.35,14.35,0,0,0,3.48,1.32c-.48,8.76-2.1,10.08-6.84,10.08H758.1c-5.64,0-8-1.8-8-5,0-2.46.72-5.4,17.34-16.68H750v-3.48h23.22l1-.12,2.52,1.45a2,2,0,0,1-.72.71c-20.58,13.38-22.08,16-22.08,17.64,0,1.38,1.5,1.86,4,1.86Z"/><path d="M842.76,1905.42v3.9h-53.4v-3.9h24.48v-24.78H793.2v-4h20.64v-19.08H818v19.08h21v4H818v24.78Z"/><path d="M902.82,1903.32v4H849.36v-4h24.36v-35h-21.3v-4.08h47.46v4.08H878.1v35Z"/><path d="M929.7,1901.82a81.5,81.5,0,0,1-18.12,10.2,18.9,18.9,0,0,0-2.88-2.94c6.06-2.34,13.5-6.36,17.16-9.6Zm33.06-3.06h-53.4v-3.66h9.54v-34.85h35v34.85h8.82Zm-40-35.15v5.46h27.18v-5.46Zm27.18,8.58H922.74v5.39h27.18Zm-27.18,8.52v5.51h27.18v-5.51Zm0,14.39h27.18v-5.76H922.74Zm22.38,4.2a161.48,161.48,0,0,1,18.3,9.72l-3.12,3a145.77,145.77,0,0,0-17.7-10Z"/><path d="M974.88,1893c4.68-2,7.26-4.86,7.56-9.17a4,4,0,0,1-1.14.11c-2.34,0-4.26-1.31-4.26-4.07a4,4,0,0,1,4.32-4.08c3.18,0,4.86,2.58,4.86,6.66,0,6.41-4,11.21-10.08,13.43Z"/><path d="M157.86,1956.13c5.34,9.17,15.54,17.81,25.68,21.65a14.63,14.63,0,0,0-2.88,3.54c-8.46-3.72-16.86-10.74-22.8-18.78V1984h-4V1962.6a63.16,63.16,0,0,1-22.5,18.48,17.92,17.92,0,0,0-2.82-3.3,58.29,58.29,0,0,0,25.32-21.3v-14.75H130.56v-3.9h23.28v-8.4h4v8.4h24.06v3.9H157.86ZM145,1944a48.37,48.37,0,0,1-2.4,7.21,79.05,79.05,0,0,1,7,6.83l-2.76,2.71a67.8,67.8,0,0,0-5.88-6.07,32.44,32.44,0,0,1-7.74,9.6c-.66-.66-2.28-1.92-3.12-2.58,5.46-4.07,9.24-10.62,11-18.41Zm28.26,0a53.26,53.26,0,0,1-2.1,7.2,126.18,126.18,0,0,1,11,9.48l-2.82,2.75a100,100,0,0,0-9.72-8.93,28.54,28.54,0,0,1-5.46,7.49,22.47,22.47,0,0,0-3.36-2.22c4.44-3.72,7.26-9.59,8.58-16.43Z"/><path d="M198.72,1955.34c-2.34-1.74-6.78-4.55-10.14-6.47l2.22-2.76a114.25,114.25,0,0,1,10.26,6Zm3.54,8.52c-2.52,6.3-6,13.74-8.88,19.26l-3.48-2.22a172.32,172.32,0,0,0,9.18-19.26Zm-.78-24.17c-2.28-1.86-6.72-4.8-10-6.9l2.34-2.7a95.32,95.32,0,0,1,10.08,6.48Zm8.82,8.94c0,10.37-1,25.07-8,35.09a13.42,13.42,0,0,0-3.3-2.1c6.84-9.66,7.5-23.16,7.5-33v-16.44h36.36v3.66H210.3Zm9.66,19.43a55.15,55.15,0,0,1-7.74,12.3,15.7,15.7,0,0,0-3.24-2,40.89,40.89,0,0,0,7.38-11.22Zm8.88-4.5v16.14c0,2.1-.42,3.12-1.92,3.72s-4.14.6-8.1.54a13,13,0,0,0-1.2-3.42c3,.06,5.64.06,6.36.06s1-.3,1-1v-16.08H214.08v-20.45h9.24c.6-2,1.32-4.44,1.74-6.18l4.38.9c-.78,1.8-1.62,3.66-2.4,5.28h13.38v20.45Zm-11.16-11.76h19v-5.57h-19Zm0,8.64h19v-5.69h-19Zm19,6.24c2.46,3.66,5.52,8.58,7.08,11.4l-3.66,1.68a125.58,125.58,0,0,0-6.84-11.76Z"/><path d="M271,1951.63s0,1.37-.06,1.86c-.72,19-1.44,25.43-3.12,27.59a4.45,4.45,0,0,1-3.36,1.74,39.18,39.18,0,0,1-5.34,0,11.1,11.1,0,0,0-1-3.66c2.1.18,3.84.18,4.68.18a1.7,1.7,0,0,0,1.74-.78c1.2-1.44,1.92-7.2,2.58-23.22H258.9c-.66,12-2.34,21.9-7.74,28.38a11.44,11.44,0,0,0-3.06-2.82c6.54-7.74,7.08-21.42,7.32-37.86h-6.24v-3.71H273.3V1943h-14c-.06,3-.12,5.83-.24,8.59Zm-9.48-12.54a40.17,40.17,0,0,0-5.1-8.58l3.48-1.38a38.31,38.31,0,0,1,5.28,8.4Zm28.62-8.94a18.31,18.31,0,0,1-1,3.06c3.18,6.54,9.24,13.62,14.94,16.74a15.63,15.63,0,0,0-2.94,3.3c-5.1-3.25-10.2-9.54-13.68-16-3.12,6.78-7.5,12.47-13.14,16.31a15.35,15.35,0,0,0-2.82-3.18c7-4.31,12.42-12.23,15-21.41Zm-10,38.93c5.58,2.64,12.78,6.9,16.32,9.9l-2.7,3.48c-3.42-3.12-10.5-7.56-16.08-10.38Zm11.4-5.82a79.47,79.47,0,0,0-10.32-8.22l2.58-2.63a80,80,0,0,1,10.5,7.85Z"/><path d="M320.16,1941.55h6.66v3.72h-6.66v11.4l6.18-2,.48,3.72-6.66,2.23v18.59c0,2.34-.54,3.42-1.92,4.08s-3.6.78-7.38.72a17.73,17.73,0,0,0-1.2-3.72c2.7.12,5,.12,5.7.06s1.08-.24,1.08-1.14v-17.34l-7.38,2.46-1.14-3.84c2.34-.72,5.28-1.56,8.52-2.64v-12.59h-7.62v-3.72h7.62v-12.18h3.72Zm22.68-1.86c-.9,8.27-3.84,12.89-13.62,15.48a8.28,8.28,0,0,0-2.16-2.88c8.82-2.11,11.28-5.83,12-12.6h-7.5v6.48H328v-9.84H343c-.54-1.92-1.5-4.44-2.28-6.48l3.84-.78a53.29,53.29,0,0,1,2.76,7.26h15.24v9.84h-3.66v-6.48h-7.14v9.42c0,1.38.12,1.8,1.2,1.8H359a21.26,21.26,0,0,0,3.36-.24c.06,1,.18,2.21.3,3a14,14,0,0,1-3.48.24h-6.6c-3.72,0-4.56-1.32-4.56-4.92v-9.35ZM356.52,1979c2.28,0,3-.78,3.18-7.74a14.35,14.35,0,0,0,3.48,1.32c-.48,8.76-2.1,10.08-6.84,10.08H338.1c-5.64,0-8-1.8-8-5,0-2.46.72-5.4,17.34-16.68H330v-3.48h23.22l1-.12,2.52,1.45a2,2,0,0,1-.72.71c-20.58,13.38-22.08,16-22.08,17.64,0,1.38,1.5,1.86,4,1.86Z"/><path d="M379.86,1961.64v17.28c0,2.34-.54,3.36-1.92,4s-3.6.78-7.44.72a15.93,15.93,0,0,0-1.14-3.66c2.64.06,5,.06,5.7,0s1.08-.24,1.08-1.08v-16.08l-7.14,2.4-1.08-3.84c2.28-.65,5.1-1.56,8.22-2.52v-13.61h-7.38v-3.72h7.38v-12.18h3.72v12.18h6v3.72h-6v12.41c1.86-.66,3.78-1.2,5.64-1.85l.6,3.65Zm12.12-15v3.48c0,9.77-.72,24.11-5.7,33.95a14.43,14.43,0,0,0-3.12-2.16c4.68-9.36,5.1-22.5,5.1-31.79V1932h32.88v14.7Zm0-11.28v7.86h25.38v-7.86Zm29.46,32.21v16.14H418v-2.16H394.2v-13.92h3.42v10.62h8.22V1964H395.16v-13.2h3.3v9.91h7.38v-12.18h3.42v12.18H417v-9.91h3.42V1964H409.26v14.22H418v-10.68Z"/><path d="M444.84,1960.86c-.78-1.8-2.52-5.34-4.14-8.22v31.2h-3.78v-29.09c-1.92,6.59-4.44,12.89-7.08,16.79a15.8,15.8,0,0,0-2.16-3.78c3.6-5,7.32-14.81,9-23.09h-7.5v-3.78h7.74v-11.58h3.78v11.58h6.42v3.78H440.7v2.7c1.56,2.21,5.7,8.81,6.72,10.49Zm38.4,17.82v3.48h-37.5v-3.48h5.46v-33.89h8.28c.36-1.5.78-3.36,1.14-5.22h-12v-3.42h12.54c.42-2.52.72-5,.9-7.14l4.14.3c-.36,2.16-.84,4.5-1.32,6.84h16.38v3.42h-17c-.42,1.86-.84,3.72-1.26,5.22h14.76v33.89Zm-28.38-30.77v5.34h19.08v-5.34Zm19.08,8.39H454.86v5.4h19.08Zm-19.08,8.4v5.46h19.08v-5.46Zm0,14h19.08v-5.52H454.86Z"/><path d="M511,1959.54l-7.74,2.52v22h-3.72v-20.76c-3.6,1.08-7.08,2.22-10.08,3.12l-1.08-3.84c3.06-.84,7-1.91,11.16-3.18v-13.79h-5.7a53.29,53.29,0,0,1-2.76,9.11,25.52,25.52,0,0,0-3.06-1.85c2.28-5,3.54-12.6,4.26-20l3.54.6c-.36,2.82-.78,5.64-1.26,8.34h5v-12.3h3.72v12.3h6.42v3.84h-6.42v12.72l7.26-2.23Zm31.68-20s0,1.56-.06,2.1c-1.44,27.29-2.7,36.59-5.22,39.47a5,5,0,0,1-4,2.22,53,53,0,0,1-6.84-.06,10.36,10.36,0,0,0-1.14-4c2.82.24,5.28.3,6.42.3a2.61,2.61,0,0,0,2.34-1c1.92-2.16,3.3-11.1,4.56-35.33h-3.36c-3.06,15.83-9.72,32-19.68,39.83a11.72,11.72,0,0,0-3.36-2.4c10-7.2,16.44-22.2,19.56-37.43h-5.34c-2.7,10.37-8.28,21.65-14.88,27.41a14.07,14.07,0,0,0-3.18-2.34c6.42-5,11.82-15.3,14.64-25.07h-5.52a48.55,48.55,0,0,1-7,11.52,29.73,29.73,0,0,0-3.06-2.29c5-5.39,8.58-14,10.62-23.15l3.66.72a87.43,87.43,0,0,1-2.76,9.48Z"/><path d="M576.66,1974.06c-9.18,2-19,4.2-25.86,5.64l-.84-4c6.48-1.26,16.68-3.3,26.4-5.34Zm22.74-25.61a72.08,72.08,0,0,1-10.68,21c2.22,6.54,5.1,10.44,8.34,10.44,1.74,0,2.52-3.12,2.88-11.16a9.35,9.35,0,0,0,3.48,2.16c-.72,10.2-2.28,13.14-6.72,13.14-4.68,0-8.34-4.14-11.1-10.86a56,56,0,0,1-13.26,10.74,21,21,0,0,0-3.06-3.06,49.81,49.81,0,0,0,14.82-12c-2.16-7.08-3.54-16-4.26-25.85H550.32v-4h29.34c-.18-3.12-.24-6.3-.3-9.54h4.26c0,3.24.06,6.48.18,9.54h18.06v4H584a119.47,119.47,0,0,0,3.3,21.77,67.39,67.39,0,0,0,8.22-17.27Zm-25.08.12v18h-20.4v-18Zm-3.9,3.47H557.58v11h12.84Zm27.36-13.37a46.24,46.24,0,0,0-10.38-6.6l2.28-2.46a44.18,44.18,0,0,1,10.5,6.3Z"/><path d="M608.34,1982c1.8-2.82,3.18-7.44,3.84-11.1l2.82,1c-.78,3.78-1.92,8.58-3.78,11.4Zm27.12-13.86h-26.1v-3.24h11.1v-5H610.38v-3.23h10.08v-4.38h-9.54v-20.64H634.2v20.64H624.06v4.38h10.68v3.23H624.06v5h11.4Zm-21.36-18.89h6.78v-14.64H614.1Zm3.18-12.18a40.4,40.4,0,0,1,2,9.12l-2.22.65a37.3,37.3,0,0,0-1.92-9.23Zm2.82,34.55a50.16,50.16,0,0,1,1,10.38l-2.88.36a49.85,49.85,0,0,0-.84-10.44Zm6-.24a41.62,41.62,0,0,1,2.82,9.6l-2.76.6a39,39,0,0,0-2.64-9.66Zm4.8-36.77h-7.2v14.64h7.2Zm-6.12,11.93a84.59,84.59,0,0,0,2.64-9.65l2.46.9c-1.08,3.12-2.28,7-3.24,9.48Zm7.5,24.36a34.6,34.6,0,0,1,4,9.3l-2.76,1a40.62,40.62,0,0,0-3.78-9.42Zm18.12-24.65v11.46H661v26h-3.84v-2.64H641.4V1984h-3.72v-26.21h8.82v-28.26h3.9v13.08h13v3.72Zm6.78,15.17H641.4v16h15.78Z"/><path d="M723.66,1979.34v3.36H688v-3.36h16.68v-5H691.38v-3.24h13.26v-4.62H692.1v-19h12.54v-4.32H689.46v-3.3h15.18v-4.38c-4.44.36-8.94.6-13.08.72a10.47,10.47,0,0,0-.84-2.88,56.71,56.71,0,0,1-7.74,2.4v10.44h7.8v3.71H683v4c1.8,1.57,7.08,7,8.28,8.4l-2.4,3.12a90.6,90.6,0,0,0-5.88-7.68v26.16H679.2v-27.47c-2.52,6.3-5.88,12.65-9.12,16.43a18.74,18.74,0,0,0-2-3.54c3.84-4.32,8.16-12.3,10.56-19.38h-9.42v-3.71h10v-9.6c-3.06.6-6.18,1.14-9.06,1.62a17,17,0,0,0-1.26-3.12c6.72-1.14,14.7-2.82,19.08-4.8l2.76,3-.06-.12c10-.42,22.56-1.44,29.28-3l2.46,3a129.87,129.87,0,0,1-13.92,2v4.68h14v3.3h-14v4.32h12.78v19H708.48v4.62h13.14v3.24H708.48v5Zm-28-23.76h9v-5h-9Zm9,7.8v-5.09h-9v5.09Zm3.84-12.84v5h9.18v-5Zm9.18,7.75h-9.18v5.09h9.18Z"/><path d="M778.92,1978.32c0,2.76-.78,4-2.64,4.68s-5.46.72-11.1.66a12.92,12.92,0,0,0-1.38-3.84c4.32.18,8.4.12,9.6.06s1.56-.42,1.56-1.56v-12.78H758.22v17.94h-4v-17.94H738.78c-.9,6.72-2.88,13.56-7.56,18.78a11.58,11.58,0,0,0-3-2.64c6.6-7.44,7.26-18,7.26-26.46v-21.59h43.44Zm-24.66-16.56v-10.5H739.38v4c0,2.11-.06,4.26-.24,6.54Zm-14.88-24.35v10.13h14.88v-10.13Zm35.58,0H758.22v10.13H775Zm0,24.35v-10.5H758.22v10.5Z"/><path d="M805,1930c-1,2.94-2.1,6.3-3.18,8.88H812v38.75h-16.8v4.8h-3.66v-43.55h6.66a64.68,64.68,0,0,0,2.58-9.72Zm3.3,12.47H795.18v13.08h13.14Zm0,31.56v-14.88H795.18v14.88Zm33.06-33.17c-1,27.53-1.8,36.71-4.2,39.59a5.6,5.6,0,0,1-4.56,2.28,74.94,74.94,0,0,1-8.82-.12,9.42,9.42,0,0,0-1.32-3.9c3.9.36,7.5.36,8.82.36s1.92-.12,2.52-.9c2-2.1,2.94-11.34,3.72-35.7H821.82a55.33,55.33,0,0,1-5.64,10.68,36.22,36.22,0,0,0-3.36-2.22c4.08-5.33,7.32-13.61,9.18-21.89l3.84.84c-.78,3-1.62,6-2.64,8.88h18.18Zm-12.78,27a106.51,106.51,0,0,0-9.3-13.92l3.06-1.79a102.47,102.47,0,0,1,9.6,13.61Z"/><path d="M878.94,1963.68c4,9.24,12.18,14.76,24.48,16.74A14.71,14.71,0,0,0,901,1984c-12.48-2.46-20.58-8.22-25.14-18.3-3.12,8.64-9.48,15-24.54,18.24a11.88,11.88,0,0,0-2.16-3.36c14.7-3,20.46-8.88,23-16.86H849.48v-3.6h23.7c.42-2,.72-4.14,1-6.36h4.26a64.11,64.11,0,0,1-1,6.36h25.2v3.6Zm-13.08-27.89a60.2,60.2,0,0,1-12.12,17.46c-.72-.61-2.22-1.92-3.12-2.53a46.8,46.8,0,0,0,11.46-16Zm12,16.13h-4.14v-22.55h4.14Zm20.4.84c-2.28-4.5-7.68-11.39-12.72-16.31l3.24-1.74c5.1,4.74,10.68,11.46,13.08,16Z"/><path d="M933.54,1975.2c-8.52,2-17.46,4-24,5.34l-1-3.72c6.18-1.14,15.6-3.06,24.72-5Zm-.72-38.81h-23.4v-3.72h23.4Zm-1.44,21.9H911v-16h20.34Zm-16.44,14.45a41.62,41.62,0,0,0-2.34-11.28l3.24-.78a37.26,37.26,0,0,1,2.58,11.16Zm12.78-27h-13.2v9.23h13.2ZM923,1972.26a85,85,0,0,0,2.7-12.12l3.9,1c-1.08,4.07-2.4,8.93-3.54,12Zm22.5,3.9c-3.18,3.12-8.46,6.12-13.08,7.86a22.91,22.91,0,0,0-2.7-2.7c4.68-1.56,9.84-4.56,12.24-7.14Zm-.72-34.43c.48-1.86,1-4,1.26-5.94H934.44v-3.54h28.74v3.54H950.4c-.54,2-1.14,4.14-1.74,5.94H961.2v31H936.36v-31Zm12.66,3.18H940v6.17h17.4Zm0,9.11H940v6.24h17.4Zm0,9.3H940v6.24h17.4Zm-3.36,11.16a75.29,75.29,0,0,1,10.32,7.38l-3.24,2.16A66.38,66.38,0,0,0,951,1976.4Z"/><path d="M999.84,1948.15c5.52,10.31,15.06,20.75,24.06,25.79a16.83,16.83,0,0,0-3.06,3.42c-8.34-5.22-16.92-14.94-22.8-25.07V1984H993.9v-31.68c-5.76,10.38-14.28,20-22.92,25.14a22.2,22.2,0,0,0-2.94-3.3c9.24-5,18.54-15.47,24-26H970.26v-4H993.9v-14.76H998v14.76h23.88v4Z"/><path d="M1045.32,1960.63c-.78-1.8-2.88-5.53-4.5-8.46v31.73h-3.6v-28.14c-1.8,6.48-4.2,12.78-6.72,16.68a16.57,16.57,0,0,0-2-3.48c3.36-5.1,6.66-14.63,8.28-22.79h-6.9v-3.72h7.38v-13.14h3.6v13.14h6.42v3.72h-6.42v1.25c1.38,1.87,5.76,8.64,6.78,10.33Zm28.08-6.79A27.89,27.89,0,0,0,1084,1964.1a14,14,0,0,0-2.58,2.76,33.39,33.39,0,0,1-11.52-13h-9.54a37.71,37.71,0,0,1-12.42,13.38,23.58,23.58,0,0,0-2-3.18,33.54,33.54,0,0,0,10.14-10.2h-8.34v-3.35H1058c.78-1.57,1.56-3.24,2.22-4.86h-9.36v-3.18h10.5c.42-1.5.84-3,1.26-4.56h-13.5v-3.3h14.22c.36-1.74.66-3.54.9-5.28l3.9.6q-.36,2.34-.9,4.68h13.5v3.3h-14.28c-.36,1.56-.78,3.06-1.26,4.56h13.68v3.18h-14.7c-.66,1.62-1.32,3.29-2.1,4.86h20.16v3.35Zm-6.66,16.86h12v3.48h-12V1984h-3.9v-9.84h-13.26v-3.48h13.26v-5.76h-8v-3.3h8v-5.7h3.9v5.7h7v3.3h-7Z"/><path d="M1101.18,1947.67a9.06,9.06,0,1,1-9.06,9A9.09,9.09,0,0,1,1101.18,1947.67Zm0,15.23a6.18,6.18,0,0,0,0-12.36,6.18,6.18,0,0,0,0,12.36Z"/><path d="M71.7,2002.39a87.16,87.16,0,0,1-6.24,12.54v41.33H61.62v-35.51a59.33,59.33,0,0,1-6.9,8.21,21.51,21.51,0,0,0-2.28-3.89c6.12-5.65,12-14.7,15.54-23.82Zm19,31.85A24.71,24.71,0,0,1,86.58,2046c6.12,3.36,13.8,5.52,22.44,6.54a13.48,13.48,0,0,0-2.4,3.6c-8.58-1.26-16.2-3.66-22.38-7.38-3,3.06-7.38,5.58-13.8,7.5A13.6,13.6,0,0,0,68,2053c6-1.62,10.14-3.78,13-6.36a31.29,31.29,0,0,1-8.94-9.9l3.3-1.08a28.39,28.39,0,0,0,8,8.34,20.39,20.39,0,0,0,3.42-9.72H72.06V2018h15v-6.18H70.2v-3.66H87.06v-6.6H91v6.6h17.52v3.66H91V2018h15.48v16.25ZM87,2030.83c.06-1.08.06-2,.06-3.12v-6.37H75.72v9.49Zm4-9.49v6.42c0,1,0,2-.06,3.07h11.7v-9.49Z"/><path d="M163.92,2050.32c0,2.76-.78,4-2.64,4.68s-5.46.72-11.1.66a12.92,12.92,0,0,0-1.38-3.84c4.32.18,8.4.12,9.6.06s1.56-.42,1.56-1.56v-12.78H143.22v17.94h-4v-17.94H123.78c-.9,6.72-2.88,13.56-7.56,18.78a11.58,11.58,0,0,0-3-2.64c6.6-7.44,7.26-18,7.26-26.46v-21.59h43.44Zm-24.66-16.56v-10.5H124.38v4c0,2.11-.06,4.26-.24,6.54Zm-14.88-24.35v10.13h14.88v-10.13Zm35.58,0H143.22v10.13H160Zm0,24.35v-10.5H143.22v10.5Z"/><path d="M192.42,2041.32v9.84l11.88-2.58a16.35,16.35,0,0,0,.06,3c-14.16,3.48-16,4-17,4.62a10.36,10.36,0,0,0-1.44-3.36,3.91,3.91,0,0,0,2.64-3.84v-7.68H182.7c-.72,5.16-2.34,10.56-5.64,14.88a17.56,17.56,0,0,0-3.36-2.1c5-6.3,5.76-14.94,5.76-21.06v-7.62H226.2v3.06H183.3v3.42h40v2.82h-40c-.06,1.14-.12,2.28-.24,3.48h44.52v3.12H203.64a19.35,19.35,0,0,0,5.76,5.46,92,92,0,0,0,11.64-5.4l2.88,2.4a101,101,0,0,1-11.52,4.74,46.73,46.73,0,0,0,15.84,4A12.17,12.17,0,0,0,226,2056c-12.66-1.56-21.6-6.48-26.1-14.64Zm30.36-19H180.06v-16.67h12.48v-4.32h3.9v4.32h9.3v-4.32h3.9v4.32h13.14Zm-39-9.72h8.76v-4.19h-8.76Zm0,6.91h8.76v-4.2h-8.76Zm12.66-11.1v4.19h9.3v-4.19Zm0,6.9v4.2h9.3v-4.2Zm22.5-6.9h-9.3v4.19h9.3Zm0,6.9h-9.3v4.2h9.3Z"/><path d="M254.7,2045.82a81.5,81.5,0,0,1-18.12,10.2,18.9,18.9,0,0,0-2.88-2.94c6.06-2.34,13.5-6.36,17.16-9.6Zm33.06-3.06h-53.4v-3.66h9.54v-34.85h35v34.85h8.82Zm-40-35.15v5.46h27.18v-5.46Zm27.18,8.58H247.74v5.39h27.18Zm-27.18,8.52v5.51h27.18v-5.51Zm0,14.39h27.18v-5.76H247.74Zm22.38,4.2a161.48,161.48,0,0,1,18.3,9.72l-3.12,3a145.77,145.77,0,0,0-17.7-10Z"/><path d="M313.68,2044.74c-1.32-1.56-4.26-4.62-6.66-6.9V2056h-3.84v-18.78c-2.28,5.22-5.28,10.44-8.16,13.56a20,20,0,0,0-2-3.48c3.3-3.54,7.14-10.08,9.3-15.84h-8.28v-3.54h9.12v-7H294.9v-3.53h8.28v-6.12c-2.64.48-5.34,1-7.86,1.31a12.64,12.64,0,0,0-1.2-3c2.94-.48,6.06-1.08,9.06-1.74v-6.48H307v5.46a38.55,38.55,0,0,0,5.58-2l3.06,2.7a55.94,55.94,0,0,1-8.64,2.88v7h7.5v3.53H307v7h8.46v3.54H307v2.46c2.16,1.74,7.56,6.54,9,7.86Zm34.68-10.07H341V2056H337.2v-21.29h-9.42c-.9,8.15-3.54,15.89-11,21.53a21.38,21.38,0,0,0-3.18-2.46c6.9-5,9.42-11.94,10.26-19.07H317v-3.79h7.2c.12-1.38.12-2.7.12-4.08v-10.26h-6.42v-3.77h6.42v-11.4h3.84v11.4h9.06v-11.4H341v11.4h6.54v3.77H341v14.34h7.32Zm-11.16-3.79v-14.34h-9.06v10.26c0,1.38,0,2.7-.06,4.08Z"/><path d="M372.36,2002.75a105.89,105.89,0,0,1-6.18,12.9v40.25h-4v-34.07a58.5,58.5,0,0,1-6.36,7.67,22.37,22.37,0,0,0-2.34-3.9c6-5.81,11.64-14.81,15.06-24Zm17.22,12.48v9H407.1v3.72H389.58v9.48h18.3v3.78h-18.3V2056h-4v-40.73h-4.44a65.13,65.13,0,0,1-8.64,12.65,28.89,28.89,0,0,0-3.12-2.7c5.46-5.57,10.32-14.27,13.26-23l3.84,1c-1,2.82-2.22,5.58-3.42,8.28h25.38v3.84Z"/><path d="M442.62,2033.46c-.54,1.62-1.14,3.18-1.74,4.56h22.74v13.92c0,1.92-.36,2.88-1.8,3.48s-3.54.6-6.78.6a17.75,17.75,0,0,0-1.32-3.36c2.52.06,4.56.06,5.22,0s.84-.18.84-.78v-10.5h-9.84v14.16h-3.66v-14.16h-9.6v14.16H433v-14.16h-9.36V2056h-3.84V2038H437.1c.48-1.44,1-3.06,1.38-4.56h-23.4v-3.29h52v3.29Zm-22.92-8.93h-3.84v-12.78h23V2007H418.5v-3.12h44.94V2007h-20.7v4.74H466.2v12.78h-4v-9.6h-19.5v13.37h-3.9v-13.37H419.7Zm1.38,1c3.72-.36,8.82-1.15,14.22-2l.12,2.58c-4.74,1-9.24,1.86-13.14,2.59Zm2.64-9.3a58.84,58.84,0,0,1,11.76,3.3l-1.2,2.51a65.39,65.39,0,0,0-11.82-3.59Zm35.82,12.72a91.68,91.68,0,0,0-14-3.24l1-2.46a77.25,77.25,0,0,1,13.92,2.93Zm.06-10.62a72.25,72.25,0,0,1-11.88,3.47l-1.5-2c3.48-.85,8.58-2.7,11.52-3.78Z"/><path d="M515.16,2038.92a26.51,26.51,0,0,1-8.22,8.7,175.55,175.55,0,0,1,19.5,5.4l-3.66,2.94a153.7,153.7,0,0,0-20.22-5.88c-6.66,3.24-15.42,5-26.64,5.94a12.63,12.63,0,0,0-1.62-3.54c9.06-.6,16.26-1.68,22.08-3.78-4.56-.9-9.36-1.8-14.22-2.58,1.74-2,3.72-4.5,5.64-7.2H474.48v-3.42H490c1.38-2.22,2.64-4.44,3.66-6.48l3.9,1a52.68,52.68,0,0,1-3.12,5.52h18.06A31.35,31.35,0,0,0,514,2032l3.78,1.14c-.3.78-.6,1.62-1,2.4h10.68v3.42Zm-23.34-31.31H475.44V2004h51.12v3.6h-17V2013H524v15.23H478.44V2013h13.38Zm-9.6,17.22h9.6v-8.52h-9.6Zm10,14.09c-1.32,1.86-2.58,3.6-3.78,5.16,4.5.72,8.94,1.56,13.2,2.4a25.83,25.83,0,0,0,8.82-7.56Zm13.56-31.31H495.6V2013h10.2Zm-10.2,17.22h10.2v-8.52H495.6Zm14-8.52v8.52H520v-8.52Z"/><path d="M585.18,2014.5s-.06,1.63-.12,2.17c-1.44,24.89-2.64,33.71-5.34,36.65-1.32,1.62-2.7,2.1-4.92,2.28a67.55,67.55,0,0,1-9.48-.24,9.75,9.75,0,0,0-1.38-4c4.14.36,8,.42,9.48.42a3.44,3.44,0,0,0,2.76-.9c2.16-2.1,3.48-10.68,4.68-32.33h-21c-.84,12.47-4.86,26.93-22.32,37.73a12.62,12.62,0,0,0-3.06-3.12c16.56-10,20.4-23.22,21.24-34.61h-19.5v-4H555.9c.06-1.07.06-2,.06-3v-10h4.14v10c0,1,0,2-.06,3Z"/><path d="M607,2010.13a51.63,51.63,0,0,1-10.2,11.7,22.7,22.7,0,0,0-2.94-3.06,43.34,43.34,0,0,0,13.44-17.52l3.84,1.14a40.39,40.39,0,0,1-2.28,4.56h37.26v3.18Zm3.36,33.17a38.34,38.34,0,0,1-12.48,12.36,22.8,22.8,0,0,0-2.52-2.88,32.07,32.07,0,0,0,12-10.68Zm5.7-3.24V2056h-3.78v-15.9H595.92v-3.24h16.32v-10.74H616v10.74h16v3.24Zm22.38-18.53c-.12,19,.42,30.53,5.46,30.53,1.26,0,1.56-3.54,1.74-8.76a11.84,11.84,0,0,0,2.76,2.28c-.36,7.92-1.2,10.44-4.74,10.44-8.28,0-9.06-11.46-9.24-31.26H599.76v-3.23Zm-35.22,5.27a27.7,27.7,0,0,1,4.86,7.62l-3.12,1.44a26.82,26.82,0,0,0-4.8-7.73Zm2.64-9.41v-3.12h35.76v3.12Zm15.36,24.83a73.26,73.26,0,0,1,11.28,9.9l-2.52,2.4c-2.28-2.82-7.2-7.14-11.1-10.14Zm7.56-14a102,102,0,0,1-6.6,8.09l-2.58-1.14a67,67,0,0,0,5.7-8.33Z"/><path d="M659.88,2037c4.68-2,7.26-4.86,7.56-9.17a4,4,0,0,1-1.14.11c-2.34,0-4.26-1.31-4.26-4.07a4,4,0,0,1,4.32-4.08c3.18,0,4.86,2.58,4.86,6.66,0,6.41-4,11.21-10.08,13.43Z"/><path d="M713.7,2031.06s-.06,1.32-.12,1.86c-1.08,13.56-2.1,18.84-4.08,20.82-1.26,1.32-2.46,1.68-4.56,1.8a90.37,90.37,0,0,1-9.48-.18,8,8,0,0,0-1.44-4c4,.36,8,.36,9.48.36s2-.06,2.58-.6c1.5-1.2,2.4-5.7,3.3-16.32h-22.8c1.14-4.56,2.46-11.63,3.24-17.09H709.5v-10.08h-22v-3.78H713.4v17.58H693.3c-.6,3.3-1.2,6.72-1.86,9.65Zm18.36-29.15V2056h-4v-54.11Z"/><path d="M761,2002.63a84.89,84.89,0,0,1-6.18,12.9v40.31H751v-34.31a62.31,62.31,0,0,1-6.42,7.91,20.27,20.27,0,0,0-2.34-3.84c6-5.81,11.64-14.81,15.06-24Zm36.12,8.16v31.31h-3.9v-2.76H780.54v16.56h-3.9v-16.56h-12.3v3.18h-3.72v-31.73h16v-9.12h3.9v9.12Zm-32.76,3.6v8.82h12.3v-8.82Zm12.3,21.29v-8.93h-12.3v8.93Zm3.9-21.29v8.82H793.2v-8.82Zm12.66,21.29v-8.93H780.54v8.93Z"/><path d="M856.74,2033.17s-.06,1.19-.12,1.73c-1.14,12.66-2.28,17.64-4.14,19.56a5.52,5.52,0,0,1-4,1.56,66.58,66.58,0,0,1-7.5-.12,9.39,9.39,0,0,0-1.2-3.66c3.12.3,6.06.3,7.2.3a3,3,0,0,0,2.22-.54c1.26-1.32,2.4-5.34,3.36-15.3H815a59.21,59.21,0,0,1-9.66,7.32,19.86,19.86,0,0,0-2.22-3.3c10.26-6,17.82-15.18,23.1-25.43h-20v-3.66H828a82.29,82.29,0,0,0,3.84-10.32l3.9,1a92.32,92.32,0,0,1-3.54,9.3H848c-.72,3.48-1.56,7.62-2.34,10.74h7c-.66,3.47-1.5,7.67-2.28,10.8Zm-49.38,20.33c3.42-3.24,5.7-8.58,7-13.2l3.3,1.08c-1.44,4.92-3.54,10.62-7.14,14.16Zm12.42-42.17a39,39,0,0,0-6-8.34l3.42-1.44a39.57,39.57,0,0,1,6.18,8Zm26.82,21.84c.54-2.11,1.08-4.69,1.56-7.21H824.34a75.18,75.18,0,0,1-5.76,7.21Zm-21.48,7.91a44,44,0,0,1,1.8,11.88l-3.48.54a39.57,39.57,0,0,0-1.62-11.94Zm5.4-25.79c-1.14,2.4-2.46,4.79-3.84,7.08h15.24c.54-2,1.14-4.62,1.62-7.08Zm3.18,25a43,43,0,0,1,3.6,10.26l-3.3.9a45.91,45.91,0,0,0-3.42-10.44Zm10.32,8a38.83,38.83,0,0,0-4.56-8.1l2.76-1.08a34.18,34.18,0,0,1,4.74,7.86Z"/><path d="M884.76,2013c-1.2,2.46-2.52,5-3.9,7.31h29.22v30.54c0,2.52-.6,3.72-2.46,4.38s-5.16.66-10.38.66a16.63,16.63,0,0,0-1.32-3.9c4.14.18,7.8.12,8.82.12s1.44-.42,1.44-1.32v-6.66H879.9c-.84,4.38-2.58,8.88-6.12,12.24a12.44,12.44,0,0,0-2.76-3.12c5-4.86,5.52-11.52,5.52-17.22v-9.53a50.45,50.45,0,0,1-10.14,9.71,17.42,17.42,0,0,0-2.52-3.12c7.2-4.91,12.66-12.17,16.56-20.09H865.08v-3.78h17a57.7,57.7,0,0,0,2.76-7.8l4,.9a72.7,72.7,0,0,1-2.46,6.9h30.84V2013Zm21.42,27.65v-6.72H880.56V2036c0,1.44-.06,2.94-.18,4.56Zm0-16.73H880.56v6.53h25.62Z"/><path d="M975.18,2014.5s-.06,1.63-.12,2.17c-1.44,24.89-2.64,33.71-5.34,36.65-1.32,1.62-2.7,2.1-4.92,2.28a67.55,67.55,0,0,1-9.48-.24,9.75,9.75,0,0,0-1.38-4c4.14.36,8,.42,9.48.42a3.44,3.44,0,0,0,2.76-.9c2.16-2.1,3.48-10.68,4.68-32.33h-21c-.84,12.47-4.86,26.93-22.32,37.73a12.62,12.62,0,0,0-3.06-3.12c16.56-10,20.4-23.22,21.24-34.61h-19.5v-4H945.9c.06-1.07.06-2,.06-3v-10h4.14v10c0,1,0,2-.06,3Z"/><path d="M997,2010.13a51.63,51.63,0,0,1-10.2,11.7,22.7,22.7,0,0,0-2.94-3.06,43.34,43.34,0,0,0,13.44-17.52l3.84,1.14a40.39,40.39,0,0,1-2.28,4.56h37.26v3.18Zm3.36,33.17a38.34,38.34,0,0,1-12.48,12.36,22.8,22.8,0,0,0-2.52-2.88,32.07,32.07,0,0,0,12-10.68Zm5.7-3.24V2056h-3.78v-15.9H985.92v-3.24h16.32v-10.74H1006v10.74h16v3.24Zm22.38-18.53c-.12,19,.42,30.53,5.46,30.53,1.26,0,1.56-3.54,1.74-8.76a11.84,11.84,0,0,0,2.76,2.28c-.36,7.92-1.2,10.44-4.74,10.44-8.28,0-9.06-11.46-9.24-31.26H989.76v-3.23Zm-35.22,5.27a27.7,27.7,0,0,1,4.86,7.62l-3.12,1.44a26.82,26.82,0,0,0-4.8-7.73Zm2.64-9.41v-3.12h35.76v3.12Zm15.36,24.83a73.26,73.26,0,0,1,11.28,9.9l-2.52,2.4c-2.28-2.82-7.2-7.14-11.1-10.14Zm7.56-14a102,102,0,0,1-6.6,8.09l-2.58-1.14a67,67,0,0,0,5.7-8.33Z"/><path d="M1092.6,2015.11c-7.38,10.91-20.82,23.51-33.18,31,.6.42,1.26.84,1.92,1.32,3.78,2.4,8.64,2.82,15.36,2.82,7.14,0,16-.48,21.72-1a17.18,17.18,0,0,0-1.14,4.26c-4.5.3-15,.66-20.7.66-7.26,0-12.18-.66-16.14-3.24-2.4-1.5-4.26-3.48-5.58-3.48-1.92,0-4.74,3.42-7.68,7.38l-3-3.6c4-4.26,7.74-7.5,10.74-7.5a4.63,4.63,0,0,1,.9.12c11-6.36,23.22-17.39,30-26.63H1047.3v-3.9h41.46l.84-.24Zm-20.1-2.16a70.73,70.73,0,0,0-6.3-10l3.48-1.8a70.87,70.87,0,0,1,6.42,9.78Z"/><path d="M1105.08,2052.48c3.06-2.58,5.64-7,7.08-10.44l3.3,1.5c-1.68,3.6-4.08,8-7.14,10.86Zm51.72-36.9v3.25h-51.24v-3.25h14.16a23.89,23.89,0,0,0-2.34-5.45l3.36-.84h-12.48V2006h21.9c-.72-1.44-1.56-2.94-2.34-4.2l3.78-.9a39.9,39.9,0,0,1,2.94,5.1h19.2v3.3h-11.88l3.24.78c-1,1.92-2,3.84-3,5.51Zm-7,23.7h-21.12a47.07,47.07,0,0,1,8.82,6.24L1135,2048a48.61,48.61,0,0,0-9.3-6.9l2-1.8h-15.06V2022h37.2Zm-3.9-14.45h-29.52v4.43h29.52Zm0,7.13h-29.52v4.44h29.52Zm-8.22,20.16c2.58,0,3-.72,3.24-6.24a12.08,12.08,0,0,0,3.54,1.38c-.48,6.66-1.74,8.22-6.42,8.22h-11.58c-5.82,0-7.38-1-7.38-5v-8h3.9v8c0,1.38.54,1.68,3.72,1.68ZM1121,2009.29a26.19,26.19,0,0,1,2.76,6.18l-.48.11H1138a59.18,59.18,0,0,0,3.06-6.29Zm27.66,32.21a46.55,46.55,0,0,1,8,10.2l-3.36,1.74a49,49,0,0,0-7.8-10.56Z"/><path d="M1176.18,2019.67a9.06,9.06,0,1,1-9.06,9A9.09,9.09,0,0,1,1176.18,2019.67Zm0,15.23a6.18,6.18,0,0,0,0-12.36,6.18,6.18,0,0,0,0,12.36Z"/><path d="M393.91,1503.17l49.56,77.8q12.25,19.26,24.53,38.51c7.62,12,15.27,23.92,23.35,35.59a433.93,433.93,0,0,0,32.17,41.54,14.5,14.5,0,0,0,6.27,4,17.65,17.65,0,0,0,15,0,14.5,14.5,0,0,0,6.27-4c3.42-3.72,5.95-8.59,5.72-13.79l-.7-5.18a19.51,19.51,0,0,0-5-8.61c-5.11-5.75-10-11.7-14.7-17.79l3.05,3.94c-15.64-20.29-29.26-42-43-63.61l-43.93-69-24.92-39.12a20.47,20.47,0,0,0-11.65-9,14.81,14.81,0,0,0-7.78-.35,14.51,14.51,0,0,0-7.25,2.32c-4.16,2.68-7.83,6.68-9,11.65s-.87,10.57,2,15Z"/><path d="M549.23,1063.9q1.78,65.26,1.25,130.55-.54,65-3.4,129.92c-1.05,23.85-2,47.76-5.16,71.45l.69-5.18a281,281,0,0,1-19.33,71.86l2-4.66c-11.89,28-28.09,53.79-46.63,77.8l3.05-4c-26.79,34.55-58.1,65.28-90.28,94.76-9,8.28-18.14,16.46-27.27,24.63-7.63,6.81-7.47,20.72,0,27.57,8.14,7.48,19.44,7.28,27.58,0,29.46-26.33,58.77-52.94,85.65-81.94,27.13-29.28,52.26-61.19,70.88-96.63A309.39,309.39,0,0,0,571.54,1443c6.71-23,9.93-46.93,11.85-70.77s2.75-47.48,3.64-71.22q1.37-36.51,2-73,1.29-73.07-.36-146.13-.2-9-.45-18c-.27-10.19-8.77-20-19.5-19.5-10.32.46-19.79,8.58-19.5,19.5Z"/><path class="cls-2" d="M759.93,1183.37c-2.52.78-5,1.55-7.44,2.27v17.58c0,2.28-.54,3.3-1.92,4s-3.48.78-6.9.72a15.12,15.12,0,0,0-1.25-3.66c2.39.06,4.55.06,5.15,0s1-.24,1-1v-16.44l-7.08,2.16-1.13-3.89c2.28-.54,5.09-1.39,8.21-2.28v-13.56h-7.38v-3.78h7.38v-12.18h3.9v12.18h6.36v3.78h-6.36v12.42l6.9-2.11Zm27.24,19.19c3.72,0,4.32-1.8,4.86-9a10.91,10.91,0,0,0,3.78,1.62c-.66,8.34-2,11.16-8.58,11.16h-16c-6.84,0-8.94-1.56-8.94-8v-41.93h30.06v31.25h-4.08v-4h-22v14.75c0,3.3.84,4.14,5.1,4.14Zm-20.82-42.17v19.49h9.06v-19.49Zm22,0h-9.24v19.49h9.24Z"/><path class="cls-2" d="M854.85,1188.17H830v14c0,3-1,4.2-3.06,4.86s-5.94.72-12.3.66a17.27,17.27,0,0,0-1.74-3.9c5.16.12,9.84.06,11.16.06s1.86-.48,1.86-1.74v-13.91H801.09v-3.91h24.84v-10.19H805.05v-3.84h20.88v-9.6c-6.66.66-13.56,1.14-19.8,1.44a16.74,16.74,0,0,0-1-3.54c14.15-.72,31.79-2.28,40.73-5.16l2.94,3.24a123.25,123.25,0,0,1-18.78,3.6v10h21.48v3.84H830v10.19h24.84Z"/><path class="cls-2" d="M754.2,1596c2.7-.84,5.46-1.74,8.22-2.58l.48,3.48c-7.5,2.46-15.54,5-21.3,6.78l-1-3.78,2.82-.72v-20.58h3.18v19.62l4.2-1.26V1572.8H743v-18H761v18H754.2v8.64h7V1585h-7Zm-7.8-26.7h11.1v-11H746.4Zm28.44-8.64c-1.68,9.12-5.88,15.3-11.4,18.72a16,16,0,0,0-2.28-2.64c4.14-2.4,7.62-7.08,9.42-13.14h-7.8v-3.48h9.12l.72-.12Zm-9.12,21.48h26.46v24.36h-3.9v-1.86H769.44v2.16h-3.72Zm3.72,3.42v6.06h18.84v-6.06Zm18.84,15.66v-6.54H769.44v6.54Zm6.11-41.76a97.19,97.19,0,0,1-8.69,7.44c2.76,4.2,6.35,7.5,10.74,9.06a18.41,18.41,0,0,0-2.53,3.18c-5.87-2.7-10.25-8.46-13.2-15.36v12.78c0,2.1-.42,3.06-1.79,3.66s-3.66.66-7,.66a16.44,16.44,0,0,0-1.2-3.54c2.58.06,4.74.06,5.4.06s.84-.24.84-.9V1552.4h3.71v3.24a40.12,40.12,0,0,0,3.37,8.52,66.57,66.57,0,0,0,7.13-7.14Z"/><path class="cls-2" d="M816.36,1602.32c0,2-.42,3.12-1.62,3.72s-3.24.72-6.42.72a14.26,14.26,0,0,0-1.14-3.54c2.34.06,4.26.06,4.92,0s.9-.18.9-1V1585c-1.56,1.32-3.06,2.64-4.62,3.9l-1.62-3c-.42,7.26-1.38,14.94-3.6,20.88a15.61,15.61,0,0,0-2.94-1.68c3.24-8.52,3.48-20.58,3.48-29.28v-21.48h12.66ZM807,1575.86c0,2.94-.06,6.3-.24,9.84,1.74-1.08,3.9-2.7,6.24-4.38v-8.1l-1.62,1.32a37.55,37.55,0,0,0-4.38-5.76Zm0-17.76v9.9l1.86-1.26a41.75,41.75,0,0,1,4.14,4.74V1558.1Zm24.06,7.14c-.24.84-.54,1.62-.78,2.46,3.72,4.74,8.1,10.86,10,14.64l-2.69,2.16a93.08,93.08,0,0,0-8.76-13.5,39.64,39.64,0,0,1-9.12,13.44,13.15,13.15,0,0,0-2.64-2.52c4.68-3.9,8.64-10.56,10.62-17.58Zm-3.66-10.92a43.07,43.07,0,0,1-7.08,14.4,16.68,16.68,0,0,0-2.76-2.1c2.88-3.24,5.16-8.16,6.48-13Zm-6.12,29.16h15.24v22.38h-3.31v-3.48h-8.75v3.72h-3.18Zm3.18,3.6v11.76h8.75v-11.76Zm12-19a61.47,61.47,0,0,0-6.24-13.5l2.94-1c2.63,4.2,5.46,9.78,6.42,13.2Zm16.74,24.72c0,1.8-.31,2.82-1.5,3.42s-2.94.66-5.47.66a11.11,11.11,0,0,0-1.13-3.36c1.92.06,3.6.06,4.08,0s.71-.18.71-.78v-33.6H844v47.64h-3.18v-51.18H853.2Z"/><path class="cls-2" d="M877.08,1552.88c-1,2.94-2.1,6.3-3.18,8.88H884v38.76h-16.8v4.8h-3.66v-43.56h6.66a64.68,64.68,0,0,0,2.58-9.72Zm3.3,12.48H867.24v13.08h13.14Zm0,31.56V1582H867.24v14.88Zm33.06-33.18c-1,27.54-1.81,36.72-4.21,39.6a5.58,5.58,0,0,1-4.55,2.28,74.91,74.91,0,0,1-8.82-.12,9.42,9.42,0,0,0-1.32-3.9c3.9.36,7.5.36,8.82.36s1.92-.12,2.52-.9c2-2.1,2.93-11.34,3.72-35.7H893.88a55.33,55.33,0,0,1-5.64,10.68,36.22,36.22,0,0,0-3.36-2.22c4.08-5.34,7.32-13.62,9.18-21.9l3.84.84c-.78,3-1.62,6-2.64,8.88h18.18Zm-12.78,27a107.88,107.88,0,0,0-9.3-13.92l3.06-1.8a103.17,103.17,0,0,1,9.6,13.62Z"/><path class="cls-2" d="M938.76,1586.78c-.9-1.92-3.24-5.88-5.1-8.88v28.8H930v-29.16c-2,7.14-4.86,14-7.68,18.3a24,24,0,0,0-2.28-4c3.72-5,7.5-14.76,9.3-23h-8.1V1565H930v-12.84h3.66V1565h7.26v3.78h-7.26v4.2c1.68,2.16,6.3,8.76,7.38,10.32Zm15.12,12.12a50.05,50.05,0,0,1-13.74,8.22c-.54-.84-1.62-2-2.34-2.94,4.5-1.68,10-4.8,12.6-7.44Zm21.53-24.24H939.48v-3.24h36ZM948.12,1561h-7.8v-3.12h7.8v-4.8h3.59v4.8h11v-4.8h3.72v4.8h8V1561h-8v7.86h-18.3Zm-5.52,34.86V1578h29.63v17.88Zm3.6-10.32h9.06V1581H946.2Zm0,7.32h9.06v-4.62H946.2Zm5.51-31.86v5h11v-5Zm16.81,20H959v4.56h9.55Zm0,7.26H959v4.62h9.55Zm-4.32,8.46a88.67,88.67,0,0,1,11.63,7.74l-3.18,2.58a84.15,84.15,0,0,0-11-7.86Z"/><path class="cls-2" d="M1011.9,1571c5.52,10.32,15.06,20.76,24.06,25.8a16.87,16.87,0,0,0-3.07,3.42c-8.34-5.22-16.91-14.94-22.79-25.08v31.74H1006V1575.2c-5.76,10.38-14.28,20-22.92,25.14a22.2,22.2,0,0,0-2.94-3.3c9.24-5,18.54-15.48,24-26H982.32v-4H1006v-14.76h4.14V1567H1034v4Z"/><path class="cls-2" d="M128.38,1631.78a42.05,42.05,0,0,1-10.92,10.14,17.54,17.54,0,0,0-2.46-2.7,35.33,35.33,0,0,0,11.94-10.5H115.6v-3.18h12.78v-5.22c-3.72.42-7.44.66-11,.84a10.3,10.3,0,0,0-1-2.76c8.16-.48,18-1.5,23-3l3.12,2.4a61.55,61.55,0,0,1-10.32,2v5.7h12.3v3.18H132.28c2.16,1.44,8.1,6.24,9.54,7.44l-2.16,2.88c-1.32-1.44-4.86-4.74-7.44-6.9v10.2h-3.84Zm40.19,28.5H144v9.6H140v-9.6H115.48v-3.54H140v-6.12h-13.8a35.23,35.23,0,0,1-5.16,5.52,26.85,26.85,0,0,0-3.36-2.16,32.85,32.85,0,0,0,9.06-11.34l3.78,1a23,23,0,0,1-2,3.54H140v-5.94H144v5.94h19.07v3.42H144v6.12h24.53Zm-15.78-23.7h-3.71v-19.26h3.71Zm12.9,1.8c0,2.16-.48,3.12-2.1,3.72s-4.2.66-8.39.66a16.12,16.12,0,0,0-1.27-3.42c3.19.06,6,.06,6.84,0s1.08-.24,1.08-1v-22.68h3.84Z"/><path class="cls-2" d="M199.6,1661.06c-8.52,2-17.46,4-24,5.34l-1-3.72c6.18-1.14,15.6-3.06,24.72-5Zm-.72-38.82h-23.4v-3.72h23.4Zm-1.44,21.9H177.1v-16h20.34ZM181,1658.6a41.62,41.62,0,0,0-2.34-11.28l3.24-.78a37.26,37.26,0,0,1,2.58,11.16Zm12.78-27.06h-13.2v9.24h13.2ZM189,1658.12a85,85,0,0,0,2.7-12.12l3.9,1c-1.08,4.08-2.4,8.94-3.54,12.06Zm22.5,3.9c-3.18,3.12-8.46,6.12-13.08,7.86a22.91,22.91,0,0,0-2.7-2.7c4.68-1.56,9.84-4.56,12.24-7.14Zm-.72-34.44c.47-1.86,1-4,1.26-5.94H200.5v-3.54h28.73v3.54H216.46c-.54,2-1.15,4.14-1.75,5.94h12.54v31H202.42v-31Zm12.65,3.18H206.08v6.18h17.39Zm0,9.12H206.08v6.24h17.39Zm0,9.3H206.08v6.24h17.39Zm-3.36,11.16a75.29,75.29,0,0,1,10.32,7.38l-3.24,2.16a66.38,66.38,0,0,0-10.14-7.62Z"/><path class="cls-2" d="M247.6,1634.53a120.66,120.66,0,0,1,64.61-17.41,116.39,116.39,0,0,1,19.08,1.9c1.88.35,2.69-2.54.79-2.89a123.43,123.43,0,0,0-68.53,7,121.8,121.8,0,0,0-17.46,8.77c-1.65,1-.14,3.6,1.51,2.59Z"/><path class="cls-2" d="M727.39,1580.09q-34.12-3.09-68.44-2.92-34.14.16-68.16,3.58-19.15,1.92-38.19,4.86c-1.9.3-1.09,3.19.8,2.9q33.68-5.19,67.75-7.16t68-.7q19.15.7,38.24,2.44c1.92.18,1.91-2.83,0-3Z"/><path class="cls-2" d="M725.37,1192.43A107.79,107.79,0,0,1,694,1218a96.83,96.83,0,0,1-37,11.19,88.57,88.57,0,0,1-21.58-.71c-1.89-.29-2.7,2.6-.8,2.9a94.46,94.46,0,0,0,39.37-2.2,104.9,104.9,0,0,0,36.23-18.08,111.62,111.62,0,0,0,17.29-16.51c1.24-1.47-.87-3.6-2.12-2.12Z"/></svg>