<svg id="Layer_1" data-name="Layer 1" xmlns="http://www.w3.org/2000/svg" viewBox="0 0 1242 2208"><defs><style>.cls-1{fill:#f6eabe;}.cls-2{fill:#999;}.cls-3,.cls-4{fill:none;}.cls-4{stroke:#000;stroke-linecap:round;stroke-miterlimit:10;stroke-width:50px;}</style></defs><rect class="cls-1" width="1242" height="2208"/><path d="M800.53,780.05c81,0,92.89-31,104.8-165.15,13.5,9.53,36.53,19.85,52.41,23-13.5,145.31-36.53,193.74-158,193.74H522.63c-118.3,0-153.24-25.41-153.24-127.83V149.62h54.79V380.67h447V429.1h-447V706.21c0,59.55,16.67,73.84,96.07,73.84Z"/><rect class="cls-2" x="1113" y="434" width="65" height="126" rx="12"/><path class="cls-1" d="M1132.7,463.82c1.25,1.6,4.9,6.7,5.7,8.05l-2,2.45c-.7-1.5-2.35-4.4-3.75-6.65V494h-3.15V469.57c-1.5,5.05-3.5,9.9-5.55,12.85a14.83,14.83,0,0,0-1.75-3.1c2.9-4,5.8-11.5,7.2-18h-6.2v-3.15h6.3v-9.65h3.15v9.65h5.45v3.15h-5.45Zm19.1.7a19.47,19.47,0,0,0,.45,2.65c-10.15,2.7-11.6,3.15-12.5,3.75a12.13,12.13,0,0,0-1.1-3.2c.7-.2,1.55-.5,1.55-2.2v-16.7h3.25v6.5h8.35v2.9h-8.35v8.3Zm2.35,5.5-2,3.75h12.65V494h-3.4v-1.75h-17v2h-3.3V473.77h7.9c.55-1.5,1.2-3.25,1.55-4.6Zm7.3,6.5h-17v5.05h17Zm0,13v-5.3h-17v5.3Zm2.25-22.4c1.25,0,1.5-.75,1.65-5.25a9.16,9.16,0,0,0,2.85,1.25c-.3,5.45-1.2,6.95-4.15,6.95h-5.85c-3.65,0-4.55-.95-4.55-4.45V448.87h3.25v6.5h10.2v2.9h-10.2v7.35c0,1.3.25,1.5,1.65,1.5Z"/><path class="cls-1" d="M1167.55,523.87v2.5H1123.4v-2.5h20.25v-3.2H1126.8v-2.3h16.85v-3H1128.2v-2.25h15.45v-3.2H1123.5v-2.5h20.15v-3.05H1128.8V502h14.85v-3.55h3.25V502h14.45v5.4h6.15v2.5h-6.15v5.45H1146.9v3h17.3v2.3h-17.3v3.2Zm-37.75,5h31.75v15.25h-3.25v-1.6H1133v1.7h-3.2Zm3.2,2.4v3.2h25.3v-3.2Zm25.3,8.85v-3.4H1133v3.4Zm-11.4-32.7h11.15v-3.05H1146.9Zm0,5.7h11.15v-3.2H1146.9Z"/><path d="M414.92,1857.69a98.85,98.85,0,0,1-6.18,13.56v39.59H404.9v-33.35a61.73,61.73,0,0,1-5.46,7,32.86,32.86,0,0,0-2.28-3.9c5.58-5.87,10.8-14.87,14-24Zm34.14,28c-2.1,1.26-4.44,2.64-6.84,3.78,2,6.06,5.82,11.82,10.38,14.52a11.2,11.2,0,0,0-2.64,2.94c-4.62-3.18-8.46-9.42-10.68-16a27.45,27.45,0,0,1-2.76,1.2c2.58,6.84,1.86,14-1,16.68a6.91,6.91,0,0,1-5.22,1.92c-1.08,0-2.4-.06-3.78-.18a9.31,9.31,0,0,0-1-3.42,38.26,38.26,0,0,0,4.14.24,3.66,3.66,0,0,0,3.12-1.14c1.56-1.38,2.22-5.16,1.44-9.36-5.16,4.92-13.08,9.36-19.8,11.7a15.8,15.8,0,0,0-2.34-2.82c7.62-2.28,16.62-7.14,21.3-12.24a35.76,35.76,0,0,0-1.5-3.48,63.52,63.52,0,0,1-17.22,9.9,16.14,16.14,0,0,0-2.22-2.64c5.94-1.8,13.74-5.76,17.88-9.54a16.39,16.39,0,0,0-2.94-3.18,58.44,58.44,0,0,1-13.56,7.26,11.26,11.26,0,0,0-2.22-2.58,52.48,52.48,0,0,0,15.06-7.56H416.48v-9.35c-1.14,1-2.28,2-3.54,2.94a9.54,9.54,0,0,0-2.52-2.59,44.59,44.59,0,0,0,13.86-16.25l3.84.72c-.6,1.2-1.32,2.34-2,3.54h11.1l.72-.18,2.34,1.68a52.13,52.13,0,0,1-4.8,6.84h13.08v12.65H430.94a15.29,15.29,0,0,1-1.2,1,21,21,0,0,1,5.64,6.84,111.93,111.93,0,0,0,10.92-6.42ZM424,1863.81a54.58,54.58,0,0,1-4.2,5.16h11.58a37.88,37.88,0,0,0,3.72-5.16Zm-3.9,14.69h10.5v-6.42h-10.5Zm24.72-6.42H434.18v6.42H444.8Z"/><path d="M512.36,1880.91v4.31H457.88v-4.31Z"/><path d="M533.3,1857.63a99.16,99.16,0,0,1-4.86,11.64V1911H524.6v-34.73a68.26,68.26,0,0,1-6.12,8.46,21.26,21.26,0,0,0-2.22-4c5.46-5.88,10.32-14.94,13.32-24.12Zm37,2.46v50.33h-3.78v-3.06H539.3v3.54h-3.72v-50.81Zm-3.78,43.73v-40.25H539.3v40.25Zm-11.82-28.13v6.83h7.08v16H544.58v-16h6.78v-6.83h-9.42v-3.19h9.42v-6.83h3.3v6.83h9.66v3.19Zm3.9,9.89H547.7v9.9h10.86Z"/><path d="M593,1857.69a104.28,104.28,0,0,1-4.68,11.76V1911h-3.84v-34.31a59.9,59.9,0,0,1-6,8.57,24,24,0,0,0-2.16-4c5.28-6,10.08-15.23,13-24.59Zm8.82,42a47.22,47.22,0,0,1-8,10.92,28.69,28.69,0,0,0-2.88-2.34,33.55,33.55,0,0,0,7.38-10.2Zm10.14-3.06H594.74v-36.71H612Zm-3.6-33.35H598.22v7.8h10.14Zm0,11H598.22v7.85h10.14Zm0,11H598.22v8h10.14Zm-.12,12.71a67.1,67.1,0,0,1,5.4,9.48l-3.12,1.92a64.06,64.06,0,0,0-5.22-9.9Zm12.24-.48h-3.54v-35.09h3.54Zm10.14-40.37v48.95c0,2.4-.6,3.6-2.1,4.2s-4,.72-8.16.72a16,16,0,0,0-1.26-3.72c3.12.12,5.82.06,6.66.06s1.26-.3,1.26-1.2v-49Z"/><path d="M678.74,1864.77c0,2.58-.06,5.4-.24,8.52,2.28,14.57,7,27.65,14.52,34.07a13.82,13.82,0,0,0-2.7,2.88c-6.12-5.7-10.2-15.12-13-26.22a60.81,60.81,0,0,1-11.16,26.76,15.7,15.7,0,0,0-3.12-2.34c.48-.66,1-1.32,1.56-2H641.12v-46.49h24.42v3.54H657v10.74h8.1v16.91H656.9v11.76h8.76v2c9.24-13.92,9.42-30.11,9.42-40.07v-7.26h3.66ZM645,1863.45v10.74h8.34v-10.74ZM661.4,1878H645v9.42H661.4ZM645,1902.86h8.28V1891.1H645Z"/><path d="M714,1857c-1,2.94-2.1,6.3-3.18,8.88H721v38.75h-16.8v4.8h-3.66v-43.55h6.66a64.68,64.68,0,0,0,2.58-9.72Zm3.3,12.47H704.18v13.08h13.14Zm0,31.56v-14.88H704.18v14.88Zm33.06-33.17c-1,27.53-1.8,36.71-4.2,39.59a5.6,5.6,0,0,1-4.56,2.28,74.94,74.94,0,0,1-8.82-.12,9.42,9.42,0,0,0-1.32-3.9c3.9.36,7.5.36,8.82.36s1.92-.12,2.52-.9c2-2.1,2.94-11.34,3.72-35.7H730.82a55.33,55.33,0,0,1-5.64,10.68,36.22,36.22,0,0,0-3.36-2.22c4.08-5.34,7.32-13.61,9.18-21.89l3.84.84c-.78,3-1.62,6-2.64,8.88h18.18Zm-12.78,27a106.51,106.51,0,0,0-9.3-13.92l3.06-1.79a102.47,102.47,0,0,1,9.6,13.61Z"/><path d="M787.28,1856.55c-.06,2.1-.12,5.1-.42,8.64.9,7,4.56,32.51,25.74,42a12.63,12.63,0,0,0-2.88,3.36c-15.42-7.26-21.72-22.74-24.6-34-2.64,12.23-8.94,26.33-24.06,34.19a13.77,13.77,0,0,0-3.12-3.06c25-12.48,24.78-42.11,25-51.11Z"/><path d="M823.88,1892c4.68-2,7.26-4.86,7.56-9.17a4,4,0,0,1-1.14.11c-2.34,0-4.26-1.32-4.26-4.07a4,4,0,0,1,4.32-4.08c3.18,0,4.86,2.58,4.86,6.66,0,6.41-4,11.21-10.08,13.43Z"/><path d="M292.46,1977.62a70.7,70.7,0,0,0,7.38.36c2.1.06,14.76,0,17.58-.06a16.36,16.36,0,0,0-1.44,3.84H299.72c-12.3,0-19.92-1.92-24.72-10.38a31.55,31.55,0,0,1-9.48,11.7,19.84,19.84,0,0,0-3.06-2.82c6.3-4.14,10.2-10.92,11.82-19.86l4,.6a55.92,55.92,0,0,1-1.5,6.06c2.34,5.64,6.3,8.52,11.7,9.84v-18.54H263.72v-3.6H316.4v3.6H292.46v7.08h20v3.6h-20Zm17.22-27.17h-39.6v-19.56h39.6Zm-4-16.44H274v5.16h31.68Zm0,8.1H274v5.27h31.68Z"/><path d="M349,1931.49H334.22v35.15h-4v-38.87H349Z"/><path d="M370.58,1941l4-.18v3.48l-4,.23c0,6.79-.48,14.88-3.78,22.8a49.79,49.79,0,0,1,6.18,5.94l-2.16,3.12c-1.44-1.62-3.36-3.6-5.58-5.64a40.35,40.35,0,0,1-10,12.18,12.6,12.6,0,0,0-2.82-2.46,36.9,36.9,0,0,0,10-12.18c-2.88-2.46-6-5-8.82-7,1.26-4.07,2.52-9.83,3.72-15.9l-4.5.31-.42-3.78,5.58-.25c.72-4.55,1.38-9.11,1.74-13.13l3.6.18c-.42,4-1.08,8.34-1.8,12.78l5.52-.3v-4.32h3.54Zm-9.72,4.2c-1,5.4-2.16,10.55-3.24,14.81,2,1.5,4.2,3.18,6.36,4.86,2.64-7,3.06-14.16,3.06-20.09Zm27.84,26.63a24.94,24.94,0,0,0,.66,3.54c-10.32,4.68-11.94,5.52-12.84,6.42a16.66,16.66,0,0,0-1.74-3.78c.72-.48,1.38-1.44,1.38-3.78v-44.81h3.78v18.41h9v3.78h-9v23.88Zm13.5,5.82c1.26,0,1.5-1.44,1.68-7.2a9.18,9.18,0,0,0,3.36,1.62c-.36,6.84-1.32,9.18-4.86,9.18H396.2c-4,0-5-1.26-5-6.12v-45.83h3.72v18.53h9.54v3.78h-9.54v23.52c0,2.16.24,2.52,1.8,2.52Z"/><path d="M411,1979.84h14.82v-35.15h4v38.87H411Z"/><path d="M459,1929c-1,2.94-2.1,6.3-3.18,8.88H466v38.75h-16.8v4.8h-3.66v-43.55h6.66a64.68,64.68,0,0,0,2.58-9.72Zm3.3,12.47H449.18v13.08h13.14Zm0,31.56v-14.88H449.18v14.88Zm33.06-33.17c-1,27.53-1.8,36.71-4.2,39.59a5.6,5.6,0,0,1-4.56,2.28,74.94,74.94,0,0,1-8.82-.12,9.42,9.42,0,0,0-1.32-3.9c3.9.36,7.5.36,8.82.36s1.92-.12,2.52-.9c2-2.1,2.94-11.34,3.72-35.7H475.82a55.33,55.33,0,0,1-5.64,10.68,36.22,36.22,0,0,0-3.36-2.22c4.08-5.34,7.32-13.61,9.18-21.89l3.84.84c-.78,3-1.62,6-2.64,8.88h18.18Zm-12.78,27a106.51,106.51,0,0,0-9.3-13.92l3.06-1.79a102.47,102.47,0,0,1,9.6,13.61Z"/><path d="M522.86,1967.06c-1.26-1.86-4.08-5.64-6.48-8.52v24.36H512.3v-23.64a61.07,61.07,0,0,1-7.68,7.62,13.85,13.85,0,0,0-2.22-3.66,60.27,60.27,0,0,0,16.38-20.51h-15.3v-3.66h17.28l.78-.18,2.34,1.62a62.93,62.93,0,0,1-7.44,13.43c.6.66,1.32,1.5,2.16,2.41a46.19,46.19,0,0,0,4.86-5.88l2.82,2.27c-1.86,1.92-4,4-5.82,5.64,2.1,2.28,4.14,4.56,4.92,5.46Zm-7.8-28.61a50.51,50.51,0,0,0-5.16-8.4l3.06-1.68a46,46,0,0,1,5.28,8Zm40-2.7c-.84,31-1.68,41.33-4.08,44.33a5.75,5.75,0,0,1-4.5,2.46,63.83,63.83,0,0,1-8.82-.12,10.21,10.21,0,0,0-1.2-3.84c3.78.3,7.14.36,8.52.36a2.7,2.7,0,0,0,2.46-1c2-2.28,2.88-12.48,3.72-40.55H539.06c-1,21.59-3.9,36.17-15.24,45.71a18.44,18.44,0,0,0-3.06-3.06c11-8.4,13.44-22.62,14.22-42.65h-10.2v-3.84h30.3Z"/><path d="M607.46,1942.89c-3.48,9.65-8.22,17.33-14.4,23.51a59.93,59.93,0,0,0,24.6,12.6,20.15,20.15,0,0,0-2.7,3.6,61.1,61.1,0,0,1-24.9-13.32c-6.78,5.94-15.06,10.32-25.14,13.56a18.63,18.63,0,0,0-2.46-3.66c10-2.94,18.12-7.08,24.72-12.72a68.52,68.52,0,0,1-14.64-23.57h-9.3V1939h53.7v3.9Zm-30.9,0a62.52,62.52,0,0,0,13.56,20.75A57,57,0,0,0,603,1942.89Zm13.5-4.26a45.75,45.75,0,0,0-4.56-9.36l4.08-1.2a46.78,46.78,0,0,1,4.8,9.18Z"/><path d="M628.88,1964c4.68-2,7.26-4.86,7.56-9.17a4,4,0,0,1-1.14.11c-2.34,0-4.26-1.32-4.26-4.07a4,4,0,0,1,4.32-4.08c3.18,0,4.86,2.58,4.86,6.66,0,6.41-4,11.21-10.08,13.43Z"/><path d="M704.12,1960a100.84,100.84,0,0,1-11.7,8.58,36.22,36.22,0,0,0,15.3,8.76,24.16,24.16,0,0,0-2.64,3.48c-12.3-4.08-20.82-13.2-25.38-25.61h-.18a53.79,53.79,0,0,1-9.6,8V1977l14.88-4.5a18.38,18.38,0,0,0,.6,3.42c-16.62,5.4-18.66,6.12-20,7a14.6,14.6,0,0,0-1.74-3.66,3.9,3.9,0,0,0,2.16-3.78v-9.72a71.36,71.36,0,0,1-10.68,5.1,19.48,19.48,0,0,0-2.64-3.24,62.5,62.5,0,0,0,21.9-12.41H654.2v-3.54h23.7v-5.64H659.54v-3.36H677.9v-5.4H656.54v-3.48H677.9v-5.52h4v5.52h22v3.48h-22v5.4h19.32v3.36H681.92v5.64H705.8v3.54H683.54a38.86,38.86,0,0,0,6.6,11,80.68,80.68,0,0,0,10.74-8.46Z"/><path d="M728.24,1958.78a58,58,0,0,1-12.06,19.14,26,26,0,0,0-3.66-2.46,47,47,0,0,0,11.64-17.75Zm13.62-7.91v31.79h-4.14v-31.79H713.84v-4h52.5v4Zm19.2-14.22H719.18v-3.9h41.88Zm-5.16,20.93c4.5,5.58,9.24,13.14,11,18.24l-3.9,1.8c-1.74-5-6.3-12.78-10.8-18.48Z"/><path d="M815.6,1947c-2.28,8.69-5.46,15.71-10.44,21.23a153,153,0,0,1,19.8,11.22l-3.3,3.48A137.85,137.85,0,0,0,802,1971.38c-6.06,5.4-14.28,9.12-25.44,11.46a15.22,15.22,0,0,0-2.4-3.84c10.2-2,17.88-5.1,23.58-9.72-5.28-2.52-11-4.92-16.68-7.08a157,157,0,0,0,7.5-15.17h-14.7v-4.2h16.44a153.86,153.86,0,0,0,5.28-15.18l4.2.66a143.16,143.16,0,0,1-4.92,14.52h17.34c.42-1.8.78-3.72,1.14-5.7l4.14,1.08c-.3,1.56-.6,3.12-.9,4.62h9.9v4.2Zm-22.5,0c-2,4.85-4.14,9.53-6.06,13.31,4.74,1.86,9.48,3.84,14,5.94,4.8-5,8-11.34,10.14-19.25Z"/><path d="M852.86,1964.6c-1.32-1.74-4.26-5.1-6.6-7.68v26h-3.9v-24.9a51.56,51.56,0,0,1-8.58,7.2,17,17,0,0,0-1.8-3.78,52.27,52.27,0,0,0,17.64-19.13H833.48v-3.66h18.24l.78-.18,2.16,1.56a55.17,55.17,0,0,1-7.68,12.84c2.34,2.21,7,7.07,8.34,8.39Zm-7.08-26.21a45.84,45.84,0,0,0-5.82-8.1l3-1.86a44,44,0,0,1,6.06,7.86Zm41.76,38.93V1981h-37v-3.72h7.26v-45.53h24.6v45.53Zm-25.86-41.81v10.86h16.8v-10.86Zm16.8,14.52h-16.8v11.57h16.8Zm-16.8,27.29h16.8v-12.06h-16.8Z"/><path d="M940.46,1978.22c2.28,0,2.7-1.26,2.94-9.12a10.76,10.76,0,0,0,3.66,1.68c-.48,9-1.62,11.22-6.24,11.22h-8.76c-5,0-6.36-1.26-6.36-5.88V1958H913.82c-1.2,11.82-4.56,20.7-18.12,25.32a12.57,12.57,0,0,0-2.58-3.3c12.78-4,15.6-11.76,16.68-22H893.9v-3.83H918v-12.42H905.3a41.61,41.61,0,0,1-5.4,9.24,37.8,37.8,0,0,0-3.42-1.87c4.14-5,7.2-13,8.64-19.25l4.08.78c-.66,2.34-1.44,4.8-2.34,7.26H918v-9.54h4v9.54h20v3.84H922v12.42h24.12V1958H929.72v18.18c0,1.74.42,2,2.76,2Z"/><path d="M965.18,1946.67a9.06,9.06,0,1,1-9.06,9A9.09,9.09,0,0,1,965.18,1946.67Zm0,15.23a6.18,6.18,0,1,0,0-12.36,6.18,6.18,0,1,0,0,12.36Z"/><path d="M471.74,2001.57a123.56,123.56,0,0,1-4.08,12.6V2055h-3.78v-32.51a51.63,51.63,0,0,1-4.26,6.77,18.44,18.44,0,0,0-2.16-4c4.56-6,8.28-15.23,10.5-24.59Zm5.94,41.27v12H474v-51.77h16.26v18.23H477.68v6.78h11.16v3.42H477.68v7.92H489.5v3.42Zm0-36.35v11.39h9v-11.39Zm32.52,20.34a41,41,0,0,1-7.5,17.45,26.55,26.55,0,0,0,10,7.56,18.29,18.29,0,0,0-2.46,3.06,27.55,27.55,0,0,1-9.78-7.86,36.82,36.82,0,0,1-12.36,8.1,10.14,10.14,0,0,0-2.1-2.94,31,31,0,0,0,12.3-8.1,51.85,51.85,0,0,1-6-13.85l2.64-.67H491v-3.41h16.2l.72-.13Zm-.78-5.58H492.68v-3.48h13.08v-11.22H492.68v-3.48h16.74Zm-14,8.33a40.27,40.27,0,0,0,5.1,11.7,33.44,33.44,0,0,0,5.4-11.7Z"/><path d="M535,2001.63a84.89,84.89,0,0,1-6.18,12.9v40.31H525v-34.31a62.31,62.31,0,0,1-6.42,7.91,20.27,20.27,0,0,0-2.34-3.84c6-5.81,11.64-14.81,15.06-24ZM572.84,2020v3.65H531.92V2020h10.74v-8.52H534.5v-3.54h8.16v-7h3.78v7H558.2v-7H562v7h8.52v3.54H562V2020Zm-34.44,8.69h29v26.16h-3.9v-2.46H542.24v2.76H538.4Zm3.84,3.42v6.72h21.24v-6.72ZM563.48,2049v-6.9H542.24v6.9Zm-17-29H558.2v-8.52H546.44Z"/><path d="M630.74,2032.17s-.06,1.19-.12,1.73c-1.14,12.66-2.28,17.64-4.14,19.56a5.52,5.52,0,0,1-4,1.56,66.58,66.58,0,0,1-7.5-.12,9.39,9.39,0,0,0-1.2-3.66c3.12.3,6.06.3,7.2.3a3,3,0,0,0,2.22-.54c1.26-1.32,2.4-5.34,3.36-15.3H589a59.21,59.21,0,0,1-9.66,7.32,19.86,19.86,0,0,0-2.22-3.3c10.26-6,17.82-15.18,23.1-25.43h-20v-3.66H602a82.29,82.29,0,0,0,3.84-10.32l3.9,1a92.32,92.32,0,0,1-3.54,9.3H622c-.72,3.48-1.56,7.62-2.34,10.74h7c-.66,3.47-1.5,7.67-2.28,10.8Zm-49.38,20.33c3.42-3.24,5.7-8.58,7-13.2l3.3,1.08c-1.44,4.92-3.54,10.62-7.14,14.16Zm12.42-42.17a39,39,0,0,0-6-8.34l3.42-1.44a39.57,39.57,0,0,1,6.18,8Zm26.82,21.84c.54-2.11,1.08-4.69,1.56-7.21H598.34a75.18,75.18,0,0,1-5.76,7.21Zm-21.48,7.91a44,44,0,0,1,1.8,11.88l-3.48.54a39.57,39.57,0,0,0-1.62-11.94Zm5.4-25.79c-1.14,2.4-2.46,4.79-3.84,7.08h15.24c.54-2,1.14-4.62,1.62-7.08Zm3.18,25a43,43,0,0,1,3.6,10.26l-3.3.9a45.91,45.91,0,0,0-3.42-10.44Zm10.32,8a38.83,38.83,0,0,0-4.56-8.1l2.76-1.08a34.18,34.18,0,0,1,4.74,7.86Z"/><path d="M647.84,2026.17a43.78,43.78,0,0,0-10.26-6.37l2.22-2.93a45,45,0,0,1,10.32,6.05Zm3.9,8.69c-2.7,6.3-6.24,13.74-9.3,19.32l-3.54-2.46a158.51,158.51,0,0,0,9.78-19.26Zm-1-24.29a44.42,44.42,0,0,0-10.14-6.78l2.34-2.88c3.54,1.68,8,4.38,10.14,6.48Zm15.06,18.18a41.51,41.51,0,0,1-2.82,4.55H690.2s-.06,1.08-.12,1.68c-.9,12.06-1.74,16.62-3.3,18.36a4.47,4.47,0,0,1-3.36,1.44c-1.2.06-3.48.06-5.88-.06a8.6,8.6,0,0,0-1-3.48c2.28.18,4.38.18,5.16.18s1.44,0,1.86-.54c1-1.08,1.92-4.86,2.64-14.34h-5.46A43.48,43.48,0,0,1,669,2054.9a30.55,30.55,0,0,0-3-2.34c4.8-3.66,8.7-9.48,11.1-16H670.7a50.71,50.71,0,0,1-14.1,16.68,24,24,0,0,0-2.82-2.64,41,41,0,0,0,12.9-14h-6.24a43.89,43.89,0,0,1-7.08,6.78,23.32,23.32,0,0,0-2.82-2.52,37.22,37.22,0,0,0,11.16-12h-8.82v-3.37h39.48v3.37Zm21.3-7.33h-28.5v-19h28.5Zm-3.84-16H662.3v4.86h20.94Zm0,7.86H662.3v5h20.94Z"/><path d="M715.82,2048.78c4.08,1.32,9.12,1.62,15.12,1.62,2.4,0,18.54,0,21.72-.12a11.61,11.61,0,0,0-1.44,3.6H730.94c-12.9,0-21.18-1.56-26.1-9.72a24.48,24.48,0,0,1-5,11,11.53,11.53,0,0,0-2.7-2.7c4.08-4.44,5.28-12.72,5.64-20.16h3.66c-.12,2.4-.36,4.8-.66,7.2a15.22,15.22,0,0,0,6.3,7.62v-17.93h-14v-3.42h30.12v3.42H715.82v7.13H727v3.3H715.82Zm9.78-27.29H701.24v-18.84H725.6Zm-3.72-15.84h-17v4.92h17Zm0,7.8h-17v5h17Zm16.56,31.37c-4.86,0-6.3-1.8-6.3-7.2v-35H736V2017h13.38v3.66H736v17.15c0,2.58.54,3.36,2.34,3.36h8.28a18.57,18.57,0,0,0,3.78-.3c.12,1,.3,2.76.48,3.6a16.42,16.42,0,0,1-4.38.36Z"/><path d="M770.18,2018.67a9.06,9.06,0,1,1-9.06,9A9.09,9.09,0,0,1,770.18,2018.67Zm0,15.23a6.18,6.18,0,1,0,0-12.36,6.18,6.18,0,1,0,0,12.36Z"/><line class="cls-3" x1="621" y1="350" x2="621" y2="350"/><path d="M662.91,1020.87c-17.74,29.28-34.94,58.9-51.12,89.08-15.77,29.43-30.93,59.3-43.31,90.33-11.66,29.22-19.87,59.7-22.29,91.15a190.49,190.49,0,0,0,2.84,49.42c3,16.35,9.32,31.76,17.05,46.43,15.32,29.07,32,57.5,44.88,87.79l-2.57-6.09c9,21.42,15.93,43.67,19,66.76l-.91-6.78a220.64,220.64,0,0,1-.19,56.89l.91-6.78c-3.74,27.53-12.1,54.12-22.82,79.68l2.57-6.09c-6.2,14.7-13.15,29.06-20.51,43.21-3.15,6.05-4.42,12.94-2.57,19.65,1.63,5.91,6.2,12.32,11.72,15.24,11.72,6.19,28.32,3.49,34.89-9.15,25.17-48.41,45.94-100,48.56-155.09a241.12,241.12,0,0,0-9.64-78.12c-7-24-17.36-47.11-28.67-69.39-5.94-11.7-12.2-23.24-18.46-34.78-6.39-11.77-13.3-23.45-18.56-35.77l2.57,6.09a137.26,137.26,0,0,1-9.15-33.72l.91,6.78a182.46,182.46,0,0,1,.41-48.35l-.91,6.78c3.85-27.75,12.58-54.56,23.41-80.32l-2.57,6.09c18.83-44.49,42.65-87.12,66.91-128.84q10.63-18.29,21.61-36.36c6.92-11.42,2.9-28.53-9.15-34.89-12.38-6.54-27.5-3-34.88,9.15Z"/><line class="cls-4" x1="616" y1="1171.73" x2="691" y2="1332.67"/><line class="cls-4" x1="779" y1="1219.07" x2="691" y2="1332.67"/><rect class="cls-2" x="1114" y="1236" width="65" height="271" rx="12"/><path class="cls-1" d="M1159.05,1275.79a27.61,27.61,0,0,0,11.5,8.1,11.65,11.65,0,0,0-2.15,2.55,30.77,30.77,0,0,1-12.8-10.65h-15.95a34.39,34.39,0,0,1-13,11.3,11.43,11.43,0,0,0-2.15-2.55,30.39,30.39,0,0,0,11.6-8.75H1125v-2.85h10v-16.15h-7.7V1254h7.7v-5h3.3v5h18.55v-5h3.35v5h7.65v2.8h-7.65v16.15h9.8v2.85Zm-10,14.5h17.3v2.85H1128.8v-2.85h16.9v-5.6h-10.45v-2.8h10.45v-4.4h3.35v4.4h10.65v2.8h-10.65Zm-10.8-33.5v3.6h18.55v-3.6Zm0,9.8h18.55v-3.65h-18.55Zm0,6.35h18.55v-3.8h-18.55Z"/><path class="cls-1" d="M1143.25,1317.54s0,1.15,0,1.55c-.6,15.85-1.2,21.2-2.6,23a3.71,3.71,0,0,1-2.8,1.45,32.65,32.65,0,0,1-4.45,0,9.25,9.25,0,0,0-.85-3c1.75.15,3.2.15,3.9.15a1.42,1.42,0,0,0,1.45-.65c1-1.2,1.6-6,2.15-19.35h-6.8c-.55,10-2,18.25-6.45,23.65a9.53,9.53,0,0,0-2.55-2.35c5.45-6.45,5.9-17.85,6.1-31.55h-5.2v-3.1h20.1v3.1h-11.65c0,2.45-.1,4.85-.2,7.15Zm-7.9-10.45a33.47,33.47,0,0,0-4.25-7.15l2.9-1.15a31.92,31.92,0,0,1,4.4,7Zm23.85-7.45a15.26,15.26,0,0,1-.85,2.55c2.65,5.45,7.7,11.35,12.45,14a13,13,0,0,0-2.45,2.75c-4.25-2.7-8.5-8-11.4-13.3a32.61,32.61,0,0,1-11,13.6,12.79,12.79,0,0,0-2.35-2.65c5.85-3.6,10.35-10.2,12.5-17.85Zm-8.3,32.45a74,74,0,0,1,13.6,8.25l-2.25,2.9c-2.85-2.6-8.75-6.3-13.4-8.65Zm9.5-4.85a66.22,66.22,0,0,0-8.6-6.85l2.15-2.2a67.46,67.46,0,0,1,8.75,6.55Z"/><path class="cls-1" d="M1166,1352.19v29.3h-3.5v-2.55h-13.3v15.6h-3.45v-15.6h-13.4v2.75H1129v-29.5Zm-33.65,3.2V1364h13.4v-8.65Zm13.4,20.35v-8.5h-13.4v8.5Zm16.75-20.35h-13.3V1364h13.3Zm0,20.35v-8.5h-13.3v8.5Z"/><path class="cls-1" d="M1168.25,1414.09v9.3h-3.15V1417h-35.4v6.4h-3v-9.3h6.95v-12.95h27.7v12.95Zm-6.45,26.6c0,1.85-.45,2.7-1.85,3.2s-3.9.5-7.7.45a8.57,8.57,0,0,0-1.1-2.75c3,.05,5.65.05,6.4.05s1-.25,1-1v-6.2c-7.3,1.45-14.85,3-20.45,4l-1.1-3c5.4-.8,13.6-2.3,21.55-3.75V1423h-22.2v5.3c0,4.85-.65,11.55-4.35,16.2a13.29,13.29,0,0,0-2.7-2c3.45-4.25,3.85-10,3.85-14.25v-8h28.6Zm-25-26.6h7.45v-6.9H1158v-3.35h-21.2Zm2.45,11.7a75.14,75.14,0,0,1,17.7,3l-.9,2.6c-4-1.5-11.7-2.9-17.7-3.35Zm18.75-16.3h-10.75v4.6H1158Z"/><path class="cls-1" d="M1162,1461.09a51.83,51.83,0,0,1-12,19.6,49.94,49.94,0,0,0,20.5,10.5,16.79,16.79,0,0,0-2.25,3,50.92,50.92,0,0,1-20.75-11.1c-5.65,5-12.55,8.6-21,11.3a15.53,15.53,0,0,0-2-3.05c8.35-2.45,15.1-5.9,20.6-10.6a57.05,57.05,0,0,1-12.2-19.65h-7.75v-3.25h44.75v3.25Zm-25.75,0a52.13,52.13,0,0,0,11.3,17.3,47.46,47.46,0,0,0,10.7-17.3Zm11.25-3.55a38.13,38.13,0,0,0-3.8-7.8l3.4-1a39,39,0,0,1,4,7.65Z"/></svg>