<svg id="Layer_1" data-name="Layer 1" xmlns="http://www.w3.org/2000/svg" viewBox="0 0 1242 2208"><defs><style>.cls-1{fill:#f6eabe;}.cls-2{fill:#999;}.cls-3,.cls-4{fill:none;}.cls-4{stroke:#000;stroke-linecap:round;stroke-miterlimit:10;stroke-width:50px;}</style></defs><rect class="cls-1" width="1242" height="2208"/><path d="M510.72,167.65c-23,52.4-50.81,104-81,152.45V872.71h-50V393.14C344,441.58,305.08,485.25,266.17,521c-5.56-11.91-21.44-38.91-30.17-51.61,88.13-75.43,173.88-194.53,225.49-317.6ZM850.55,795.7c45.26,0,51.61-35.73,58-172.3,13.5,11.12,34.14,21.44,49.23,23.82C949,794.11,933.92,844.13,852.14,844.13h-154c-75.43,0-98.45-22.23-98.45-101.63V161.3h50.81V379.65H933.12v50.81H650.46V744.09c0,42.08,9.53,51.61,50.82,51.61Z"/><rect class="cls-2" x="1114" y="437" width="65" height="126" rx="12"/><path class="cls-1" d="M1133.7,466.82c1.25,1.6,4.9,6.7,5.7,8.05l-2,2.45c-.7-1.5-2.35-4.4-3.75-6.65V497h-3.15V472.57c-1.5,5.05-3.5,9.9-5.55,12.85a14.83,14.83,0,0,0-1.75-3.1c2.9-4,5.8-11.5,7.2-18h-6.2v-3.15h6.3v-9.65h3.15v9.65h5.45v3.15h-5.45Zm19.1.7a19.47,19.47,0,0,0,.45,2.65c-10.15,2.7-11.6,3.15-12.5,3.75a12.13,12.13,0,0,0-1.1-3.2c.7-.2,1.55-.5,1.55-2.2v-16.7h3.25v6.5h8.35v2.9h-8.35v8.3Zm2.35,5.5-2,3.75h12.65V497h-3.4v-1.75h-17v2h-3.3V476.77h7.9c.55-1.5,1.2-3.25,1.55-4.6Zm7.3,6.5h-17v5.05h17Zm0,13v-5.3h-17v5.3Zm2.25-22.4c1.25,0,1.5-.75,1.65-5.25a9.16,9.16,0,0,0,2.85,1.25c-.3,5.45-1.2,6.95-4.15,6.95h-5.85c-3.65,0-4.55-.95-4.55-4.45V451.87h3.25v6.5h10.2v2.9h-10.2v7.35c0,1.3.25,1.5,1.65,1.5Z"/><path class="cls-1" d="M1168.55,526.87v2.5H1124.4v-2.5h20.25v-3.2H1127.8v-2.3h16.85v-3H1129.2v-2.25h15.45v-3.2H1124.5v-2.5h20.15v-3.05H1129.8V505h14.85v-3.55h3.25V505h14.45v5.4h6.15v2.5h-6.15v5.45H1147.9v3h17.3v2.3h-17.3v3.2Zm-37.75,5h31.75v15.25h-3.25v-1.6H1134v1.7h-3.2Zm3.2,2.4v3.2h25.3v-3.2Zm25.3,8.85v-3.4H1134v3.4Zm-11.4-32.7h11.15v-3.05H1147.9Zm0,5.7h11.15v-3.2H1147.9Z"/><path d="M354.92,1826.69a98.85,98.85,0,0,1-6.18,13.56v39.59H344.9v-33.35a61.73,61.73,0,0,1-5.46,7,32.86,32.86,0,0,0-2.28-3.9c5.58-5.87,10.8-14.87,14-24Zm34.14,28c-2.1,1.26-4.44,2.64-6.84,3.78,2,6.06,5.82,11.82,10.38,14.52a11.2,11.2,0,0,0-2.64,2.94c-4.62-3.18-8.46-9.42-10.68-16a27.45,27.45,0,0,1-2.76,1.2c2.58,6.84,1.86,14-1,16.68a6.91,6.91,0,0,1-5.22,1.92c-1.08,0-2.4-.06-3.78-.18a9.31,9.31,0,0,0-1-3.42,38.26,38.26,0,0,0,4.14.24,3.66,3.66,0,0,0,3.12-1.14c1.56-1.38,2.22-5.16,1.44-9.36-5.16,4.92-13.08,9.36-19.8,11.7a15.8,15.8,0,0,0-2.34-2.82c7.62-2.28,16.62-7.14,21.3-12.24a35.76,35.76,0,0,0-1.5-3.48,63.52,63.52,0,0,1-17.22,9.9,16.14,16.14,0,0,0-2.22-2.64c5.94-1.8,13.74-5.76,17.88-9.54a16.39,16.39,0,0,0-2.94-3.18,58.44,58.44,0,0,1-13.56,7.26,11.26,11.26,0,0,0-2.22-2.58,52.48,52.48,0,0,0,15.06-7.56H356.48v-9.35c-1.14,1-2.28,2-3.54,2.94a9.54,9.54,0,0,0-2.52-2.59,44.59,44.59,0,0,0,13.86-16.25l3.84.72c-.6,1.2-1.32,2.34-2,3.54h11.1l.72-.18,2.34,1.68a52.13,52.13,0,0,1-4.8,6.84h13.08v12.65H370.94a15.29,15.29,0,0,1-1.2,1,21,21,0,0,1,5.64,6.84,111.93,111.93,0,0,0,10.92-6.42ZM364,1832.81a54.58,54.58,0,0,1-4.2,5.16h11.58a37.88,37.88,0,0,0,3.72-5.16Zm-3.9,14.69h10.5v-6.42h-10.5Zm24.72-6.42H374.18v6.42H384.8Z"/><path d="M426.56,1832.87v7.92h22.26v34.31c0,2.28-.54,3.48-2.22,4.08s-4.68.66-8.94.66a14.79,14.79,0,0,0-1.38-3.6c3.42.12,6.54.12,7.5.06s1.14-.3,1.14-1.2v-30.6H426.56v35.1h-3.78v-35.1h-17.4v35.34h-3.84v-39h21.24v-7.92h-23.4V1829h51.54v3.9Zm-9.84,16.43c0,6.12.42,13.92,5.76,20a8.65,8.65,0,0,0-2.28,1.8A23.88,23.88,0,0,1,415,1859.8a27.16,27.16,0,0,1-6.24,11.4,14.22,14.22,0,0,0-2.34-1.8c4.08-3.9,6.24-9.9,7.2-17.15h-3.9v-3Zm21.12,0c0,6.18.48,13.92,6.24,19.92a11.7,11.7,0,0,0-2.4,1.74,23.65,23.65,0,0,1-5.58-11.64,27.62,27.62,0,0,1-6.18,11.46,15,15,0,0,0-2.34-1.8c4-3.84,6.06-9.72,7.08-16.73h-4.08v-3Z"/><path d="M473.3,1826.63a99.16,99.16,0,0,1-4.86,11.64V1880H464.6v-34.73a68.26,68.26,0,0,1-6.12,8.46,21.26,21.26,0,0,0-2.22-4c5.46-5.88,10.32-14.94,13.32-24.12Zm37,2.46v50.33h-3.78v-3.06H479.3v3.54h-3.72v-50.81Zm-3.78,43.73v-40.25H479.3v40.25Zm-11.82-28.13v6.83h7.08v16H484.58v-16h6.78v-6.83h-9.42v-3.19h9.42v-6.83h3.3v6.83h9.66v3.19Zm3.9,9.89H487.7v9.9h10.86Z"/><path d="M544,1828.49H529.22v35.15h-4v-38.87H544Z"/><path d="M577.28,1825.55c-.06,2.1-.12,5.1-.42,8.64.9,7,4.56,32.51,25.74,42a12.63,12.63,0,0,0-2.88,3.36c-15.42-7.26-21.72-22.74-24.6-34-2.64,12.23-8.94,26.33-24.06,34.19a13.77,13.77,0,0,0-3.12-3.06c25-12.48,24.78-42.11,25-51.11Z"/><path d="M606,1876.84h14.82v-35.15h4v38.87H606Z"/><path d="M652,1847.62c2,2.05,7.68,8.59,8.94,10.2l-2.52,3.24a96.69,96.69,0,0,0-6.42-8.88v27.66h-3.78v-29.58c-2.4,7.2-5.7,14.22-9.06,18.42a27.23,27.23,0,0,0-2.16-3.6c4.2-5,8.52-14.63,10.74-23.09h-9.42v-3.72h9.9v-13H652v13h8.76V1842H652Zm38.16-18.71v50.45h-3.9v-3.48h-19v3.66H663.5v-50.63Zm-22.86,3.78v10.5h19v-10.5Zm0,25h19v-10.8h-19Zm19,14.58V1861.3h-19v10.92Z"/><path d="M751.82,1873.84v3.9h-53.4v-3.9h34.5c.54-3.06,1-6.54,1.5-10h-27.3c2-7.86,4.62-21.17,6.24-31h-13V1829H750v3.84h-32.4c-.54,3.12-1.2,6.48-1.86,10h21.6l.72-.19,2.94.37c-.78,8-2.46,21-4,30.89ZM735,1860c.6-4.92,1.2-9.71,1.62-13.5H715c-.9,4.8-1.86,9.54-2.7,13.5Z"/><path d="M775,1826.69a92,92,0,0,1-6.24,13v40.25H765v-34.32a67.29,67.29,0,0,1-6.42,7.92,20,20,0,0,0-2.28-3.9c6-5.81,11.64-14.81,15.06-24Zm37.32,26.45h-5.52v22.26c0,2.4-.6,3.48-2.46,4.08s-5.1.6-10.38.6a13.93,13.93,0,0,0-1.26-3.54c4.14.12,7.8.06,8.88.06s1.32-.36,1.32-1.2v-22.26H772.28v-3.54h40.08Zm-21.48-21.53a50.84,50.84,0,0,0,.72-5.88h4.08c-.18,2.1-.42,4.08-.72,5.88h15.78v3.48H794.06c-.24.78-.48,1.44-.72,2.16a154.19,154.19,0,0,1,17.16,8.51l-2.46,3.07a133.11,133.11,0,0,0-16.38-8.58c-2.94,4.25-7.92,7-16.56,8.7a14.62,14.62,0,0,0-2.1-3.19c10.26-1.85,14.76-5.09,16.92-10.67H774.86v-3.48Zm-10.08,40.13v3.48h-3.54v-17.34h18.06v13.86Zm0-10.8v7.74h10.92v-7.74Z"/><path d="M837.26,1853.68h3.84v6.42c0,6-1,14.52-5.7,20.46a14.53,14.53,0,0,0-3.24-2.16,20.45,20.45,0,0,0,2.94-5.22c-6.06.9-12.06,1.74-16.62,2.34l-.42-3.06c4.56-.54,11.16-1.38,18-2.28a25.16,25.16,0,0,0,.66-3.06H821v-2.88h16.08c.12-1.38.18-2.64.18-3.9h-17.7v-2.88h17.7Zm33.48-14.51H819.2v-3h6.12a8.25,8.25,0,0,0-2.88-1.8,24.74,24.74,0,0,0,6.72-8.64l3.72.6q-.72,1.53-1.62,3.06H843v-4.08h4.08v4.08h19.32v2.82H847.1v4h23.64Zm-45.18,13.62v-10.38H865.4v10.38Zm3.84-20.58a24.44,24.44,0,0,1-3.6,4H843v-4Zm0,17.81h32v-4.79h-32Zm42.84,24.24H853.4v5.7h-4v-26h4v3.48h17.1v2.94H853.4v4h15.84v2.82H853.4v4.14h18.84Z"/><path d="M883.88,1861c4.68-2,7.26-4.86,7.56-9.17a4,4,0,0,1-1.14.11c-2.34,0-4.26-1.32-4.26-4.07a4,4,0,0,1,4.32-4.08c3.18,0,4.86,2.58,4.86,6.66,0,6.41-4,11.21-10.08,13.43Z"/><path d="M253.52,1912.12c-3.48,13.74-9,27.06-18.84,36.12a31.63,31.63,0,0,0-2.64-3.12c9-8.1,14.22-20.33,17.46-33H234.32v-3.89h16.14c.78-3.66,1.44-7.32,2-10.86l4,.54c-.54,3.36-1.2,6.84-2,10.32h31.08v3.89Zm33.18,34.2v3.84H243.92v-3.84h19.74v-18.54H250v-3.84h33.84v3.84H267.74v18.54Z"/><path d="M307.22,1926.64a49.67,49.67,0,0,1-3.42,13c4,7,11.7,7.92,23.4,8,6.3,0,14.82-.24,20.82-.78a10.52,10.52,0,0,0-1.32,3.78c-5.52.3-13,.42-19.5.42-12.48,0-20.16-1.26-24.84-8.16a27.85,27.85,0,0,1-7.5,9.24,12,12,0,0,0-2.76-2.76c5.4-3.78,9.3-10.62,11.16-20h-5.82a6.33,6.33,0,0,0-3.48.84,20,20,0,0,0-1.56-3.66,5.53,5.53,0,0,0,2.76-1.74,94.39,94.39,0,0,0,7.14-10.26h-9.36v-3.29h11.58l.78-.36L308,1912c-2.34,3.59-6.6,10-9.78,14h6.54l.66-.06.18.06Zm-4.92-17.87a86.16,86.16,0,0,0-7-9.66l3-1.68a76.07,76.07,0,0,1,7.14,9.3Zm9.3,17.4h-3.54v-5.88h16.86c-.42-.91-.9-1.87-1.26-2.71H312.32V1901h10.74c.66-1.32,1.26-2.76,1.68-3.78l4.14.66c-.66,1.14-1.38,2.16-2,3.12h14.52v16.61H327.74a23.09,23.09,0,0,1,1.32,2.71h16.68v5.57h-3.66v-3.11H334.4v3c0,1.08.12,1.43,1.26,1.43h5.46a22.88,22.88,0,0,0,3.54-.24,15.51,15.51,0,0,0,.24,2.28,20,20,0,0,1-3.6.18h-7c-2.88,0-3.36-1.19-3.36-3.72v-2.93h-6.72c-1.86,4.31-6,6.29-14,7.67a7,7,0,0,0-1.68-2.28c6.84-.89,10.38-2.46,12.06-5.39h-9Zm11.94,7.85a13.56,13.56,0,0,1-.66,2.22H340a6.23,6.23,0,0,1-.24,1.44c-.84,4.14-1.74,6.18-2.94,7.08a5.16,5.16,0,0,1-3.24.9,49.5,49.5,0,0,1-6.3-.18,7.45,7.45,0,0,0-.78-2.58,50.09,50.09,0,0,0,5.82.3,3,3,0,0,0,1.86-.36c.6-.54,1.2-1.74,1.8-4H321.74c-1.92,3.12-5,5.52-10.26,7a11,11,0,0,0-2-2.7c6.66-1.74,9.42-4.86,10.62-9.12H309.2v-2.64h16.08c-.48-1.14-1.08-2.46-1.62-3.48l3.24-.72a46,46,0,0,1,2.16,4.2h16V1934Zm-7.44-28.25h21.42v-2.64H316.1Zm0,4.8h21.42v-2.64H316.1Zm0,4.85h21.42v-2.69H316.1Z"/><path d="M407.36,1921.91v4.31H352.88v-4.31Z"/><path d="M442.28,1897.55c-.06,2.1-.12,5.1-.42,8.64.9,7,4.56,32.51,25.74,42a12.63,12.63,0,0,0-2.88,3.36c-15.42-7.26-21.72-22.74-24.6-34-2.64,12.23-8.94,26.33-24.06,34.19a13.77,13.77,0,0,0-3.12-3.06c25-12.48,24.78-42.11,25-51.11Z"/><path d="M526.76,1945.42v3.9h-53.4v-3.9h8.28V1917h4.08v28.43H499.4v-39.71H475.64v-3.84h49.14v3.84H503.54v16.5h19v3.89h-19v19.32Z"/><path d="M586.52,1945.42v4h-53v-4h29a198.72,198.72,0,0,0,9.12-29.27l4.56.84c-2.64,9-6.18,20.69-9.42,28.43Zm-2.34-32.75H536v-4h48.18Zm-33.9,30c-.9-7-3.54-17.58-5.82-25.55l4-.9a209.86,209.86,0,0,1,6,25.43Zm8.58-34.85a61.85,61.85,0,0,0-2.94-9.66l3.84-1.08a70.16,70.16,0,0,1,3.12,9.54Z"/><path d="M598.88,1933c4.68-2,7.26-4.86,7.56-9.17a4,4,0,0,1-1.14.11c-2.34,0-4.26-1.32-4.26-4.07a4,4,0,0,1,4.32-4.08c3.18,0,4.86,2.58,4.86,6.66,0,6.41-4,11.21-10.08,13.43Z"/><path d="M644.78,1912.54a74.71,74.71,0,0,1-5.76,11.94h32.7v27.3h-4.14v-3.12H640.22v3.42h-4v-23.4a50.91,50.91,0,0,1-11.46,11.52,21.84,21.84,0,0,0-2.64-3.18c8.64-5.94,14.46-14.76,18.36-24.48H624.08v-3.89H641.9a86,86,0,0,0,3.12-11.34l4.14.84c-.84,3.48-1.8,7-3,10.5h30v3.89Zm-4.56,15.78v16.5h27.36v-16.5Z"/><path d="M697.22,1926.64a49.67,49.67,0,0,1-3.42,13c4,7,11.7,7.92,23.4,8,6.3,0,14.82-.24,20.82-.78a10.52,10.52,0,0,0-1.32,3.78c-5.52.3-13,.42-19.5.42-12.48,0-20.16-1.26-24.84-8.16a27.85,27.85,0,0,1-7.5,9.24,12,12,0,0,0-2.76-2.76c5.4-3.78,9.3-10.62,11.16-20h-5.82a6.33,6.33,0,0,0-3.48.84,20,20,0,0,0-1.56-3.66,5.53,5.53,0,0,0,2.76-1.74,94.39,94.39,0,0,0,7.14-10.26h-9.36v-3.29h11.58l.78-.36L698,1912c-2.34,3.59-6.6,10-9.78,14h6.54l.66-.06.18.06Zm-4.92-17.87a86.16,86.16,0,0,0-7-9.66l3-1.68a76.07,76.07,0,0,1,7.14,9.3Zm9.3,17.4h-3.54v-5.88h16.86c-.42-.91-.9-1.87-1.26-2.71H702.32V1901h10.74c.66-1.32,1.26-2.76,1.68-3.78l4.14.66c-.66,1.14-1.38,2.16-2,3.12h14.52v16.61H717.74a23.09,23.09,0,0,1,1.32,2.71h16.68v5.57h-3.66v-3.11H724.4v3c0,1.08.12,1.43,1.26,1.43h5.46a22.88,22.88,0,0,0,3.54-.24,15.51,15.51,0,0,0,.24,2.28,20,20,0,0,1-3.6.18h-7c-2.88,0-3.36-1.19-3.36-3.72v-2.93h-6.72c-1.86,4.31-6,6.29-14,7.67a7,7,0,0,0-1.68-2.28c6.84-.89,10.38-2.46,12.06-5.39h-9Zm11.94,7.85a13.56,13.56,0,0,1-.66,2.22H730a6.23,6.23,0,0,1-.24,1.44c-.84,4.14-1.74,6.18-2.94,7.08a5.16,5.16,0,0,1-3.24.9,49.5,49.5,0,0,1-6.3-.18,7.45,7.45,0,0,0-.78-2.58,50.09,50.09,0,0,0,5.82.3,3,3,0,0,0,1.86-.36c.6-.54,1.2-1.74,1.8-4H711.74c-1.92,3.12-5,5.52-10.26,7a11,11,0,0,0-2-2.7c6.66-1.74,9.42-4.86,10.62-9.12H699.2v-2.64h16.08c-.48-1.14-1.08-2.46-1.62-3.48l3.24-.72a46,46,0,0,1,2.16,4.2h16V1934Zm-7.44-28.25h21.42v-2.64H706.1Zm0,4.8h21.42v-2.64H706.1Zm0,4.85h21.42v-2.69H706.1Z"/><path d="M797.36,1921.91v4.31H742.88v-4.31Z"/><path d="M832.28,1897.55c-.06,2.1-.12,5.1-.42,8.64.9,7,4.56,32.51,25.74,42a12.63,12.63,0,0,0-2.88,3.36c-15.42-7.26-21.72-22.74-24.6-34-2.64,12.23-8.94,26.33-24.06,34.19a13.77,13.77,0,0,0-3.12-3.06c25-12.48,24.78-42.11,25-51.11Z"/><path d="M877.46,1898.63a108.55,108.55,0,0,1-4.62,12.06V1952h-3.72v-34.14a60.52,60.52,0,0,1-5.7,8.41,28.82,28.82,0,0,0-2-4c5-6,9.6-15.29,12.48-24.59Zm11.94,42.23c3.42-.6,7.08-1.38,10.62-2.1l.24,3.3c-8.7,1.86-17.82,3.78-24.36,5.1l-.72-3.6c2.94-.48,6.6-1.14,10.5-1.92V1932h-8.94v-3.42h8.94v-6.84h3.72v6.84H899V1932h-9.6Zm4.44-32.33a70,70,0,0,1,7.08,11.88l-3.12,1.5a21.1,21.1,0,0,0-1.86-4c-14.7,2.16-16.68,2.53-17.82,3.12a18.42,18.42,0,0,0-1.26-3.54c.84-.17,1.68-1.2,2.46-2.58a60.45,60.45,0,0,0,4.74-9.71H877.7v-3.42h22.08v3.42h-11.7a68.15,68.15,0,0,1-6,11.4l12.3-1.57c-1.08-1.85-2.28-3.65-3.36-5.27Zm21.06-9.48v46.61c0,2.58-.72,3.66-2.46,4.26s-4.68.72-9.36.72a17.19,17.19,0,0,0-1.56-3.66c4,.12,7.32.12,8.34.12s1.38-.42,1.38-1.38v-46.67Zm-8.64,38.27h-3.54v-35.09h3.54Z"/><path d="M976.52,1945.42v4h-53v-4h29a198.72,198.72,0,0,0,9.12-29.27l4.56.84c-2.64,9-6.18,20.69-9.42,28.43Zm-2.34-32.75H926v-4h48.18Zm-33.9,30c-.9-7-3.54-17.58-5.82-25.55l4-.9a209.86,209.86,0,0,1,6,25.43Zm8.58-34.85a61.85,61.85,0,0,0-2.94-9.66l3.84-1.08a70.16,70.16,0,0,1,3.12,9.54Z"/><path d="M995.18,1915.67a9.06,9.06,0,1,1-9.06,9A9.09,9.09,0,0,1,995.18,1915.67Zm0,15.23a6.18,6.18,0,1,0,0-12.36,6.18,6.18,0,1,0,0,12.36Z"/><path d="M458.24,1970.51a13.18,13.18,0,0,1-.84,1.08c5.7,5.64,16.2,10.62,25.56,12.83a12.89,12.89,0,0,0-2.52,3.12,71.7,71.7,0,0,1-14.88-6.17l-.06,1.92H444.74l.06-1.68a89.68,89.68,0,0,1-14.88,6.23,30.91,30.91,0,0,0-2.28-3c10.8-3,21.48-8.28,27.12-15.6Zm-23.16,16H475v14.88h-39.9Zm3.42,12.06h14.7v-9.23H438.5Zm.12,5.82H472v19.38h-4v-1.86h-25.5v2h-3.9Zm6.66-14.22a21.86,21.86,0,0,1,3.78,6.84l-3.06,1.21a27.26,27.26,0,0,0-3.6-7.09Zm-2.76,17.16v4.32H468v-4.32Zm25.5,11.64v-4.38h-25.5v4.38Zm-4.2-38.57a48.46,48.46,0,0,1-8.58-6.42,45.19,45.19,0,0,1-8.34,6.42Zm7.5,8.94H456.56v9.23h14.76Zm-10.62,7.79a53.26,53.26,0,0,0,3.54-7.2l3.36,1.08a73,73,0,0,1-4.14,7.21Z"/><path d="M489.08,2020.48c3.06-2.58,5.64-7,7.08-10.44l3.3,1.5c-1.68,3.6-4.08,8-7.14,10.86Zm51.72-36.9v3.25H489.56v-3.25h14.16a23.89,23.89,0,0,0-2.34-5.45l3.36-.84H492.26V1974h21.9c-.72-1.44-1.56-2.94-2.34-4.2l3.78-.9a39.9,39.9,0,0,1,2.94,5.1h19.2v3.3H525.86l3.24.78c-1,1.92-2,3.84-3,5.51Zm-7,23.7H512.66a47.07,47.07,0,0,1,8.82,6.24L519,2016a48.61,48.61,0,0,0-9.3-6.9l2-1.8H496.58V1990h37.2Zm-3.9-14.45H500.36v4.43h29.52Zm0,7.13H500.36v4.44h29.52Zm-8.22,20.16c2.58,0,3-.72,3.24-6.24a12.08,12.08,0,0,0,3.54,1.38c-.48,6.66-1.74,8.22-6.42,8.22H510.44c-5.82,0-7.38-1-7.38-5v-8H507v8c0,1.38.54,1.68,3.72,1.68ZM505,1977.29a26.19,26.19,0,0,1,2.76,6.18l-.48.11H522a59.18,59.18,0,0,0,3.06-6.29Zm27.66,32.21a46.55,46.55,0,0,1,8,10.2l-3.36,1.74a49,49,0,0,0-7.8-10.56Z"/><path d="M559.34,2015a41.66,41.66,0,0,1-9.66,9,35.85,35.85,0,0,0-2.64-2.58,32.82,32.82,0,0,0,8.88-8.28Zm16.32-2.76h-28v-3.36h4.14v-26.45h7.44c.24-1.38.48-2.88.72-4.56h-11.1v-3.24h11.52c.24-1.86.42-3.78.54-5.28l3.9.3c-.24,1.56-.48,3.3-.78,5h10.32v3.24H563.48c-.24,1.68-.54,3.18-.72,4.56h9.6v26.45h3.3Zm-20.4-27v4.25h13.56v-4.25Zm13.56,6.78H555.26v4.13h13.56Zm-13.56,6.65v3.9h13.56v-3.9Zm0,10.26h13.56v-3.84H555.26Zm12.24,4.38a35.22,35.22,0,0,1,6.72,6l-2.82,2.22a37.58,37.58,0,0,0-6.66-6.24Zm18.3,2.46a38.19,38.19,0,0,1-11.1,8.22,22.58,22.58,0,0,0-2.7-2.64,30.73,30.73,0,0,0,10.32-7.56Zm-.54-33.89c.36-1.86.84-4.14,1.14-6.06H575.48v-3.54h26.46v3.54h-11.4c-.54,2-1.14,4.2-1.68,6.06h10.8v30.53H577.34v-30.53ZM596,1985H580.88V1991H596Zm0,9H580.88v6H596Zm0,9.06H580.88v6.12H596ZM593,2014a65.49,65.49,0,0,1,9.54,7.62l-3.12,2.16A70,70,0,0,0,590,2016Z"/><path d="M622.46,1970.63a108.55,108.55,0,0,1-4.62,12.06V2024h-3.72v-34.14a60.52,60.52,0,0,1-5.7,8.41,28.82,28.82,0,0,0-2-4c5-6,9.6-15.29,12.48-24.59Zm11.94,42.23c3.42-.6,7.08-1.38,10.62-2.1l.24,3.3c-8.7,1.86-17.82,3.78-24.36,5.1l-.72-3.6c2.94-.48,6.6-1.14,10.5-1.92V2004h-8.94v-3.42h8.94v-6.84h3.72v6.84H644V2004h-9.6Zm4.44-32.33a70,70,0,0,1,7.08,11.88l-3.12,1.5a21.1,21.1,0,0,0-1.86-4c-14.7,2.16-16.68,2.53-17.82,3.12a18.42,18.42,0,0,0-1.26-3.54c.84-.17,1.68-1.2,2.46-2.58a60.45,60.45,0,0,0,4.74-9.71H622.7v-3.42h22.08v3.42h-11.7a68.15,68.15,0,0,1-6,11.4l12.3-1.57c-1.08-1.85-2.28-3.65-3.36-5.27Zm21.06-9.48v46.61c0,2.58-.72,3.66-2.46,4.26s-4.68.72-9.36.72a17.19,17.19,0,0,0-1.56-3.66c4,.12,7.32.12,8.34.12s1.38-.42,1.38-1.38v-46.67Zm-8.64,38.27h-3.54v-35.09h3.54Z"/><path d="M712.28,2008.6a34.86,34.86,0,0,1-11.76,8.28,116.33,116.33,0,0,0,22,4,15.73,15.73,0,0,0-2.1,3.24,112,112,0,0,1-24.6-5.28c-7.92,2.82-17.28,4.44-26.4,5.58a17.67,17.67,0,0,0-1.92-3.42,124.48,124.48,0,0,0,23.64-4.08,43.58,43.58,0,0,1-10.92-6.36,46.62,46.62,0,0,1-9.3,5.58c-.48-.66-1.74-2.28-2.46-3.06,6.24-2.46,12.54-6.54,15.84-11.58l3.48,1.08a24.6,24.6,0,0,1-2.16,2.94h34.68v3.12Zm-39.54-14.39a52.06,52.06,0,0,1-2.28,10c-.54-.3-1.74-1.08-2.4-1.44a44.63,44.63,0,0,0,1.92-9Zm10.5-1.68c-.18-.73-.36-1.62-.66-2.58-10.62,1.55-12.18,1.92-13.08,2.39a16.18,16.18,0,0,0-1-3c1-.12,2.22-1.14,3.6-2.52.72-.66,2.34-2.4,4.2-4.56-4.92.41-6.12.66-6.78,1a16.64,16.64,0,0,0-1-3.06,4.59,4.59,0,0,0,2.4-1.86,38,38,0,0,0,5.52-8.94l3.06,1.08a52.59,52.59,0,0,1-6.12,9.36l5.16-.3c1.14-1.56,2.34-3.12,3.3-4.74l2.94,1.32a86.35,86.35,0,0,1-10.62,12.54l7.56-1c-.48-1.32-1-2.65-1.56-3.78l2.46-.66a36.39,36.39,0,0,1,3.12,8.51Zm-7.08,10a58.21,58.21,0,0,0-1.14-8.4l2.52-.54a45.65,45.65,0,0,1,1.38,8.34Zm6.84-9.42a40.18,40.18,0,0,1,2.1,7.44l-2.58.84a60.3,60.3,0,0,0-1.86-7.61Zm-.12,15.48a45.6,45.6,0,0,0,12.9,6.78,35.68,35.68,0,0,0,11.52-6.78Zm21.3-31.49H685.7v-2.64h8a28.07,28.07,0,0,0-2.1-4.26l3.06-1a25.12,25.12,0,0,1,2.64,5.22h6.9Zm-1.2,5.28H686.9v-2.46H703Zm-.06,5.4h-16v-2.52h16Zm-15.66,13.91V1991h15.3v10.74Zm2.7-2.52h9.78v-5.69H690Zm29.28-6.77a26.09,26.09,0,0,0-.66-2.83c-10.74,1.57-12.3,1.92-13.2,2.41a15.31,15.31,0,0,0-1-3c1-.12,2.16-1.15,3.54-2.53A36.61,36.61,0,0,0,712,1982c-5,.42-6.18.66-6.78.9a18.3,18.3,0,0,0-1.08-3,4.42,4.42,0,0,0,2.4-1.8,43.44,43.44,0,0,0,5.52-9l3.06,1.2a52.32,52.32,0,0,1-6.24,9.3l5.22-.3a43.16,43.16,0,0,0,3.36-4.8l2.88,1.32a94.06,94.06,0,0,1-10.2,12.36l7.62-1c-.48-1.26-1-2.64-1.56-3.78l2.58-.66a36.7,36.7,0,0,1,3.06,8.81ZM708.8,1994a69.12,69.12,0,0,1-2.1,9.3,14.54,14.54,0,0,0-2.52-1.44,46.43,46.43,0,0,0,1.8-8.51Zm3.6,8.28a45.12,45.12,0,0,0-1.14-8.46l2.58-.47a45.82,45.82,0,0,1,1.26,8.39Zm6.72-.36c-.42-2.34-1.38-5.94-2.22-8.76l2.4-.6a55.93,55.93,0,0,1,2.4,8.64Z"/><path d="M747.8,1970.75a92,92,0,0,1-6.12,11.52V2024H737.9v-36.23a67.54,67.54,0,0,1-8.58,9.65,38.46,38.46,0,0,0-2.28-3.9c6.66-5.7,13.14-14.69,17-24Zm25.68,47.45c3.42,0,3.9-2.7,4.38-13a8.92,8.92,0,0,0,3.72,1.8c-.66,11.1-1.8,14.88-8,14.88H762c-5.7,0-7.44-1.68-7.44-7.68v-43.91h3.84v16.5h21.36v3.84H758.36v23.69c0,3.18.72,3.9,3.84,3.9Z"/><path d="M800.18,1987.67a9.06,9.06,0,1,1-9.06,9A9.09,9.09,0,0,1,800.18,1987.67Zm0,15.23a6.18,6.18,0,1,0,0-12.36,6.18,6.18,0,1,0,0,12.36Z"/><path d="M491.9,2058.17c4.44,10.31,12.24,20,20.76,24.71a23.11,23.11,0,0,0-3.06,3.36c-9-5.58-16.92-16.32-21.6-28.07h-1v22.43h14.28v4H487V2096H482.9v-11.4H468.68v-4H482.9v-22.43h-1.08c-4.74,11.75-12.66,22.43-21.3,28.25a24.18,24.18,0,0,0-2.88-3.18c8-4.92,15.66-14.76,20.16-25.07H459.14v-4H482.9v-12.72H487v12.72h24v4Z"/><path d="M566.9,2080.54a33.64,33.64,0,0,1-8.22,7.38c2.4,2.82,5.22,4.44,8.16,4.38,1.68-.06,2.16-1.5,2.46-5.94a10.31,10.31,0,0,0,3.12,1.62c-.6,6.3-2.1,7.92-5.76,8-4.26,0-8.16-2.22-11.28-6a74.41,74.41,0,0,1-13.68,5.82,36.46,36.46,0,0,0-2.1-3.24,65.61,65.61,0,0,0,13.86-5.34,34.94,34.94,0,0,1-3.84-8.82H535.16v4.38l11.16-1-.06,2.88-11.1,1.08v6.12c0,2.1-.48,3.06-2.16,3.54s-4.38.54-8.94.54a19.42,19.42,0,0,0-1.26-3.18c3.36.12,6.48.06,7.38,0s1.2-.24,1.2-1v-5.7c-4.74.48-9.12.9-12.72,1.2l-.42-3.3c3.54-.24,8.1-.54,13.14-1v-4.68h-12.9v-3.18h12.9v-4.44c-3.78.42-7.68.72-11.28.91a12,12,0,0,0-.9-2.71c8.16-.48,18.18-1.55,23.52-2.94l2.52,2.58c-2.82.66-6.36,1.26-10.08,1.74v4.86h13.68a52.67,52.67,0,0,1-1.2-8.94h3.84a57.48,57.48,0,0,0,1.2,8.94h19v3.18H553.58a31.91,31.91,0,0,0,3.12,6.9,27.09,27.09,0,0,0,6.72-5.94Zm4.62-15.17h-53v-3.25H542.9V2058H524.3v-3.06h18.6v-4H521.06v-3.18h12.66a30,30,0,0,0-3.48-5.16l3.42-1.26a24.4,24.4,0,0,1,4.32,6.24l-.42.18H552.2a54.7,54.7,0,0,0,3.6-6.6l4.14,1.2c-1.2,1.86-2.52,3.84-3.72,5.4h12.84V2051H546.92v4h18.9V2058h-18.9v4.13h24.6Zm-5.7,9a34,34,0,0,0-9.48-5.52l2.16-2.46a38.32,38.32,0,0,1,9.66,5.22Z"/><path d="M607.46,2090.62a70.7,70.7,0,0,0,7.38.36c2.1.06,14.76,0,17.58-.06a16.36,16.36,0,0,0-1.44,3.84H614.72c-12.3,0-19.92-1.92-24.72-10.38a31.55,31.55,0,0,1-9.48,11.7,19.84,19.84,0,0,0-3.06-2.82c6.3-4.14,10.2-10.92,11.82-19.86l4,.6a55.92,55.92,0,0,1-1.5,6.06c2.34,5.64,6.3,8.52,11.7,9.84v-18.54H578.72v-3.6H631.4v3.6H607.46v7.08h20v3.6h-20Zm17.22-27.17h-39.6v-19.56h39.6Zm-4-16.44H589v5.16h31.68Zm0,8.1H589v5.27h31.68Z"/><path d="M682.28,2080.6a34.86,34.86,0,0,1-11.76,8.28,116.33,116.33,0,0,0,22,4,15.73,15.73,0,0,0-2.1,3.24,112,112,0,0,1-24.6-5.28c-7.92,2.82-17.28,4.44-26.4,5.58a17.67,17.67,0,0,0-1.92-3.42,124.48,124.48,0,0,0,23.64-4.08,43.58,43.58,0,0,1-10.92-6.36,46.62,46.62,0,0,1-9.3,5.58c-.48-.66-1.74-2.28-2.46-3.06,6.24-2.46,12.54-6.54,15.84-11.58l3.48,1.08a24.6,24.6,0,0,1-2.16,2.94h34.68v3.12Zm-39.54-14.39a52.06,52.06,0,0,1-2.28,9.95c-.54-.3-1.74-1.08-2.4-1.44a44.63,44.63,0,0,0,1.92-9Zm10.5-1.68c-.18-.73-.36-1.62-.66-2.58-10.62,1.55-12.18,1.92-13.08,2.39a16.18,16.18,0,0,0-1-3.05c1-.12,2.22-1.14,3.6-2.52.72-.66,2.34-2.4,4.2-4.56-4.92.41-6.12.66-6.78,1a16.64,16.64,0,0,0-1-3.06,4.59,4.59,0,0,0,2.4-1.86,38,38,0,0,0,5.52-8.94l3.06,1.08a52.59,52.59,0,0,1-6.12,9.36l5.16-.3c1.14-1.56,2.34-3.12,3.3-4.74l2.94,1.32a86.35,86.35,0,0,1-10.62,12.54l7.56-1c-.48-1.32-1-2.65-1.56-3.78l2.46-.66a36.39,36.39,0,0,1,3.12,8.51Zm-7.08,10a58.21,58.21,0,0,0-1.14-8.4l2.52-.54a45.65,45.65,0,0,1,1.38,8.34Zm6.84-9.42a40.18,40.18,0,0,1,2.1,7.44l-2.58.84a60.3,60.3,0,0,0-1.86-7.61Zm-.12,15.48a45.6,45.6,0,0,0,12.9,6.78,35.68,35.68,0,0,0,11.52-6.78Zm21.3-31.49H655.7v-2.64h8a28.07,28.07,0,0,0-2.1-4.26l3.06-1a25.12,25.12,0,0,1,2.64,5.22h6.9Zm-1.2,5.28H656.9v-2.46H673Zm-.06,5.4h-16v-2.52h16Zm-15.66,13.91V2063h15.3v10.74Zm2.7-2.52h9.78v-5.69H660Zm29.28-6.77a26.09,26.09,0,0,0-.66-2.83c-10.74,1.57-12.3,1.92-13.2,2.41a15.31,15.31,0,0,0-1-3c1-.12,2.16-1.15,3.54-2.53A36.61,36.61,0,0,0,682,2054c-5,.42-6.18.66-6.78.9a18.3,18.3,0,0,0-1.08-3,4.42,4.42,0,0,0,2.4-1.8,43.44,43.44,0,0,0,5.52-9l3.06,1.2a52.32,52.32,0,0,1-6.24,9.3l5.22-.3a43.16,43.16,0,0,0,3.36-4.8l2.88,1.32a94.06,94.06,0,0,1-10.2,12.36l7.62-1c-.48-1.26-1-2.64-1.56-3.78l2.58-.66a36.7,36.7,0,0,1,3.06,8.81ZM678.8,2066a69.12,69.12,0,0,1-2.1,9.3,14.54,14.54,0,0,0-2.52-1.44,46.43,46.43,0,0,0,1.8-8.51Zm3.6,8.28a45.12,45.12,0,0,0-1.14-8.46l2.58-.47a45.82,45.82,0,0,1,1.26,8.39Zm6.72-.36c-.42-2.34-1.38-5.94-2.22-8.76l2.4-.6a55.93,55.93,0,0,1,2.4,8.64Z"/><path d="M717.8,2042.75a92,92,0,0,1-6.12,11.52V2096H707.9v-36.23a67.54,67.54,0,0,1-8.58,9.65,38.46,38.46,0,0,0-2.28-3.9c6.66-5.7,13.14-14.69,17-24Zm25.68,47.45c3.42,0,3.9-2.7,4.38-13a8.92,8.92,0,0,0,3.72,1.8c-.66,11.1-1.8,14.88-8,14.88H732c-5.7,0-7.44-1.68-7.44-7.68v-43.91h3.84v16.5h21.36v3.84H728.36v23.69c0,3.18.72,3.9,3.84,3.9Z"/><path d="M770.18,2059.67a9.06,9.06,0,1,1-9.06,9A9.09,9.09,0,0,1,770.18,2059.67Zm0,15.23a6.18,6.18,0,1,0,0-12.36,6.18,6.18,0,1,0,0,12.36Z"/><line class="cls-3" x1="621" y1="351" x2="621" y2="351"/><path d="M409.42,1053.32a250.75,250.75,0,0,1,33.3,35.56l-4-5.16c18.14,23.6,32.5,49.86,44.09,77.23l-2.57-6.09c17.07,40.6,27.71,83.48,35.44,126.74q3.54,19.79,6.19,39.7l-.91-6.78c6.83,51,9.75,102.55,10.34,154,.6,51.73-1.13,103.45-3.64,155.11-1.41,28.89-3.07,57.76-4.71,86.64-.76,13.34,12.27,26.09,25.5,25.5,14.47-.65,24.69-11.21,25.5-25.5,2.75-48.31,5.54-96.62,7.13-145,1.6-48.75,2-97.57-.12-146.31-2.18-50.15-7.12-100.26-15.88-149.71-8.22-46.42-20.17-91.67-38.66-135.09-16.71-39.23-39.61-76.66-70-106.8q-5.3-5.24-10.92-10.13c-5.15-4.49-11-7.47-18-7.47-6.26,0-13.73,2.78-18,7.47-4.46,4.86-7.77,11.24-7.46,18,.29,6.49,2.39,13.61,7.46,18Z"/><line class="cls-4" x1="426.3" y1="1035.78" x2="327.81" y2="1417.07"/><path d="M810.31,1692.26A251.26,251.26,0,0,1,777,1656.7l4,5.16c-18.14-23.6-32.5-49.86-44.09-77.24l2.57,6.1c-17.07-40.6-27.71-83.48-35.44-126.74-2.36-13.19-4.4-26.43-6.2-39.7l.92,6.78c-6.83-51-9.75-102.55-10.34-154-.6-51.73,1.13-103.45,3.64-155.11,1.41-28.89,3.07-57.76,4.71-86.64.76-13.34-12.27-26.09-25.5-25.5-14.47.65-24.69,11.21-25.5,25.5-2.75,48.31-5.54,96.62-7.13,145-1.6,48.75-2,97.57.12,146.31,2.18,50.15,7.12,100.26,15.88,149.71,8.22,46.42,20.17,91.67,38.66,135.09,16.71,39.23,39.61,76.66,70,106.79q5.29,5.25,10.92,10.14c5.15,4.49,11,7.47,18,7.47,6.26,0,13.73-2.78,18-7.47,4.47-4.86,7.78-11.24,7.47-18-.29-6.49-2.39-13.61-7.47-18Z"/><line class="cls-4" x1="793.44" y1="1709.8" x2="891.93" y2="1328.5"/><rect class="cls-2" x="1114" y="1237" width="65" height="271" rx="12"/><path class="cls-1" d="M1159.05,1276.79a27.61,27.61,0,0,0,11.5,8.1,11.65,11.65,0,0,0-2.15,2.55,30.77,30.77,0,0,1-12.8-10.65h-15.95a34.39,34.39,0,0,1-13,11.3,11.43,11.43,0,0,0-2.15-2.55,30.39,30.39,0,0,0,11.6-8.75H1125v-2.85h10v-16.15h-7.7V1255h7.7v-5h3.3v5h18.55v-5h3.35v5h7.65v2.8h-7.65v16.15h9.8v2.85Zm-10,14.5h17.3v2.85H1128.8v-2.85h16.9v-5.6h-10.45v-2.8h10.45v-4.4h3.35v4.4h10.65v2.8h-10.65Zm-10.8-33.5v3.6h18.55v-3.6Zm0,9.8h18.55v-3.65h-18.55Zm0,6.35h18.55v-3.8h-18.55Z"/><path class="cls-1" d="M1143.25,1318.54s0,1.15,0,1.55c-.6,15.85-1.2,21.2-2.6,23a3.71,3.71,0,0,1-2.8,1.45,32.65,32.65,0,0,1-4.45,0,9.25,9.25,0,0,0-.85-3c1.75.15,3.2.15,3.9.15a1.42,1.42,0,0,0,1.45-.65c1-1.2,1.6-6,2.15-19.35h-6.8c-.55,10-2,18.25-6.45,23.65a9.53,9.53,0,0,0-2.55-2.35c5.45-6.45,5.9-17.85,6.1-31.55h-5.2v-3.1h20.1v3.1h-11.65c0,2.45-.1,4.85-.2,7.15Zm-7.9-10.45a33.47,33.47,0,0,0-4.25-7.15l2.9-1.15a31.92,31.92,0,0,1,4.4,7Zm23.85-7.45a15.26,15.26,0,0,1-.85,2.55c2.65,5.45,7.7,11.35,12.45,14a13,13,0,0,0-2.45,2.75c-4.25-2.7-8.5-8-11.4-13.3a32.61,32.61,0,0,1-11,13.6,12.79,12.79,0,0,0-2.35-2.65c5.85-3.6,10.35-10.2,12.5-17.85Zm-8.3,32.45a74,74,0,0,1,13.6,8.25l-2.25,2.9c-2.85-2.6-8.75-6.3-13.4-8.65Zm9.5-4.85a66.22,66.22,0,0,0-8.6-6.85l2.15-2.2a67.46,67.46,0,0,1,8.75,6.55Z"/><path class="cls-1" d="M1166,1353.19v29.3h-3.5v-2.55h-13.3v15.6h-3.45v-15.6h-13.4v2.75H1129v-29.5Zm-33.65,3.2V1365h13.4v-8.65Zm13.4,20.35v-8.5h-13.4v8.5Zm16.75-20.35h-13.3V1365h13.3Zm0,20.35v-8.5h-13.3v8.5Z"/><path class="cls-1" d="M1168.25,1415.09v9.3h-3.15V1418h-35.4v6.4h-3v-9.3h6.95v-12.95h27.7v12.95Zm-6.45,26.6c0,1.85-.45,2.7-1.85,3.2s-3.9.5-7.7.45a8.57,8.57,0,0,0-1.1-2.75c3,.05,5.65.05,6.4.05s1-.25,1-1v-6.2c-7.3,1.45-14.85,3-20.45,4l-1.1-3c5.4-.8,13.6-2.3,21.55-3.75V1424h-22.2v5.3c0,4.85-.65,11.55-4.35,16.2a13.29,13.29,0,0,0-2.7-2c3.45-4.25,3.85-10,3.85-14.25v-8h28.6Zm-25-26.6h7.45v-6.9H1158v-3.35h-21.2Zm2.45,11.7a75.14,75.14,0,0,1,17.7,3l-.9,2.6c-4-1.5-11.7-2.9-17.7-3.35Zm18.75-16.3h-10.75v4.6H1158Z"/><path class="cls-1" d="M1162,1462.09a51.83,51.83,0,0,1-12,19.6,49.94,49.94,0,0,0,20.5,10.5,16.79,16.79,0,0,0-2.25,3,50.92,50.92,0,0,1-20.75-11.1c-5.65,5-12.55,8.6-21,11.3a15.53,15.53,0,0,0-2-3.05c8.35-2.45,15.1-5.9,20.6-10.6a57.05,57.05,0,0,1-12.2-19.65h-7.75v-3.25h44.75v3.25Zm-25.75,0a52.13,52.13,0,0,0,11.3,17.3,47.46,47.46,0,0,0,10.7-17.3Zm11.25-3.55a38.13,38.13,0,0,0-3.8-7.8l3.4-1a39,39,0,0,1,4,7.65Z"/></svg>