<svg id="Layer_1" data-name="Layer 1" xmlns="http://www.w3.org/2000/svg" viewBox="0 0 1242 2208"><defs><style>.cls-1{fill:#f6eabe;}.cls-2{fill:#999;}.cls-3,.cls-4{fill:none;}.cls-4{stroke:#000;stroke-linecap:round;stroke-miterlimit:10;stroke-width:50px;}</style></defs><rect class="cls-1" width="1242" height="2208"/><path d="M583.77,682.16l9.53,46.05C479,776.64,355.1,828.25,264.58,864.77L240,814c58-21.44,140.54-52.4,227.08-86.55V404.26H263V352.65H467.05V164.47h54v542.3Zm266,105.6c37.31,0,42.08-38.11,46.84-192.15,14.29,11.91,34.94,22.23,50.82,25.41-6.36,163.56-19.85,218.35-93.69,218.35h-108c-65.9,0-85.75-20.65-85.75-98.46V164.47h54V351.86h224.7v52.4H714V741.71c0,38.9,6.35,46,37.32,46Z"/><rect class="cls-2" x="1114" y="437" width="65" height="126" rx="12"/><path class="cls-1" d="M1133.7,466.82c1.25,1.6,4.9,6.7,5.7,8.05l-2,2.45c-.7-1.5-2.35-4.4-3.75-6.65V497h-3.15V472.57c-1.5,5.05-3.5,9.9-5.55,12.85a14.83,14.83,0,0,0-1.75-3.1c2.9-4,5.8-11.5,7.2-18h-6.2v-3.15h6.3v-9.65h3.15v9.65h5.45v3.15h-5.45Zm19.1.7a19.47,19.47,0,0,0,.45,2.65c-10.15,2.7-11.6,3.15-12.5,3.75a12.13,12.13,0,0,0-1.1-3.2c.7-.2,1.55-.5,1.55-2.2v-16.7h3.25v6.5h8.35v2.9h-8.35v8.3Zm2.35,5.5-2,3.75h12.65V497h-3.4v-1.75h-17v2h-3.3V476.77h7.9c.55-1.5,1.2-3.25,1.55-4.6Zm7.3,6.5h-17v5.05h17Zm0,13v-5.3h-17v5.3Zm2.25-22.4c1.25,0,1.5-.75,1.65-5.25a9.16,9.16,0,0,0,2.85,1.25c-.3,5.45-1.2,6.95-4.15,6.95h-5.85c-3.65,0-4.55-.95-4.55-4.45V451.87h3.25v6.5h10.2v2.9h-10.2v7.35c0,1.3.25,1.5,1.65,1.5Z"/><path class="cls-1" d="M1168.55,526.87v2.5H1124.4v-2.5h20.25v-3.2H1127.8v-2.3h16.85v-3H1129.2v-2.25h15.45v-3.2H1124.5v-2.5h20.15v-3.05H1129.8V505h14.85v-3.55h3.25V505h14.45v5.4h6.15v2.5h-6.15v5.45H1147.9v3h17.3v2.3h-17.3v3.2Zm-37.75,5h31.75v15.25h-3.25v-1.6H1134v1.7h-3.2Zm3.2,2.4v3.2h25.3v-3.2Zm25.3,8.85v-3.4H1134v3.4Zm-11.4-32.7h11.15v-3.05H1147.9Zm0,5.7h11.15v-3.2H1147.9Z"/><path d="M384.92,1793.69a98.85,98.85,0,0,1-6.18,13.56v39.59H374.9v-33.35a61.73,61.73,0,0,1-5.46,7,32.86,32.86,0,0,0-2.28-3.9c5.58-5.87,10.8-14.87,14-24Zm34.14,28c-2.1,1.26-4.44,2.64-6.84,3.78,2,6.06,5.82,11.82,10.38,14.52a11.2,11.2,0,0,0-2.64,2.94c-4.62-3.18-8.46-9.42-10.68-16a27.45,27.45,0,0,1-2.76,1.2c2.58,6.84,1.86,14-1,16.68a6.91,6.91,0,0,1-5.22,1.92c-1.08,0-2.4-.06-3.78-.18a9.31,9.31,0,0,0-1-3.42,38.26,38.26,0,0,0,4.14.24,3.66,3.66,0,0,0,3.12-1.14c1.56-1.38,2.22-5.16,1.44-9.36-5.16,4.92-13.08,9.36-19.8,11.7a15.8,15.8,0,0,0-2.34-2.82c7.62-2.28,16.62-7.14,21.3-12.24a35.76,35.76,0,0,0-1.5-3.48,63.52,63.52,0,0,1-17.22,9.9,16.14,16.14,0,0,0-2.22-2.64c5.94-1.8,13.74-5.76,17.88-9.54a16.39,16.39,0,0,0-2.94-3.18,58.44,58.44,0,0,1-13.56,7.26,11.26,11.26,0,0,0-2.22-2.58,52.48,52.48,0,0,0,15.06-7.56H386.48v-9.35c-1.14,1-2.28,2-3.54,2.94a9.54,9.54,0,0,0-2.52-2.59,44.59,44.59,0,0,0,13.86-16.25l3.84.72c-.6,1.2-1.32,2.34-2,3.54h11.1l.72-.18,2.34,1.68a52.13,52.13,0,0,1-4.8,6.84h13.08v12.65H400.94a15.29,15.29,0,0,1-1.2,1,21,21,0,0,1,5.64,6.84,111.93,111.93,0,0,0,10.92-6.42ZM394,1799.81a54.58,54.58,0,0,1-4.2,5.16h11.58a37.88,37.88,0,0,0,3.72-5.16Zm-3.9,14.69h10.5v-6.42h-10.5Zm24.72-6.42H404.18v6.42H414.8Z"/><path d="M456.56,1799.87v7.92h22.26v34.31c0,2.28-.54,3.48-2.22,4.08s-4.68.66-8.94.66a14.79,14.79,0,0,0-1.38-3.6c3.42.12,6.54.12,7.5.06s1.14-.3,1.14-1.2v-30.6H456.56v35.1h-3.78v-35.1h-17.4v35.34h-3.84v-39h21.24v-7.92h-23.4V1796h51.54v3.9Zm-9.84,16.43c0,6.12.42,13.92,5.76,20a8.65,8.65,0,0,0-2.28,1.8A23.88,23.88,0,0,1,445,1826.8a27.16,27.16,0,0,1-6.24,11.4,14.22,14.22,0,0,0-2.34-1.8c4.08-3.9,6.24-9.9,7.2-17.15h-3.9v-3Zm21.12,0c0,6.18.48,13.92,6.24,19.92a11.7,11.7,0,0,0-2.4,1.74,23.65,23.65,0,0,1-5.58-11.64,27.62,27.62,0,0,1-6.18,11.46,15,15,0,0,0-2.34-1.8c4-3.84,6.06-9.72,7.08-16.73h-4.08v-3Z"/><path d="M503.3,1793.63a99.16,99.16,0,0,1-4.86,11.64V1847H494.6v-34.73a68.26,68.26,0,0,1-6.12,8.46,21.26,21.26,0,0,0-2.22-4c5.46-5.88,10.32-14.94,13.32-24.12Zm37,2.46v50.33h-3.78v-3.06H509.3v3.54h-3.72v-50.81Zm-3.78,43.73v-40.25H509.3v40.25Zm-11.82-28.13v6.83h7.08v16H514.58v-16h6.78v-6.83h-9.42v-3.19h9.42v-6.83h3.3v6.83h9.66v3.19Zm3.9,9.89H517.7v9.9h10.86Z"/><path d="M574,1795.49H559.22v35.15h-4v-38.87H574Z"/><path d="M607.28,1792.55c-.06,2.1-.12,5.1-.42,8.64.9,7,4.56,32.51,25.74,42a12.63,12.63,0,0,0-2.88,3.36c-15.42-7.26-21.72-22.74-24.6-34-2.64,12.23-8.94,26.33-24.06,34.19a13.77,13.77,0,0,0-3.12-3.06c25-12.48,24.78-42.11,25-51.11Z"/><path d="M636,1843.84h14.82v-35.15h4v38.87H636Z"/><path d="M693,1810.91c-8.58,1.55-17.4,3.3-23.82,4.43l-.66-3.42c4.32-.66,10.14-1.67,16.32-2.75V1801H670v-3.3H684.8v-5.34h4v16.26l4-.72Zm20.4,31.55c0,2.28-.6,3.36-2.34,4s-4.86.66-9.6.66a16.27,16.27,0,0,0-1.32-3.6c3.54.12,7,.12,7.92.12s1.26-.36,1.26-1.2v-8c-9.06,1.86-18.78,3.72-25.92,4.92l-1.32-3.54c6.84-1,17.34-2.88,27.24-4.74v-11.21H681.14v7.43c0,6.3-1.2,14.64-7.74,20.16a12.58,12.58,0,0,0-2.88-2.76c5.94-5.1,6.72-11.94,6.72-17.46v-10.79h36.12Zm-29.46-20.21c6.6,1.07,15.18,3.35,19.68,5.45l-1.38,3.12a103.06,103.06,0,0,0-19.8-5.82Zm31.26-12c2.1,0,2.52-.72,2.7-5.17a13.61,13.61,0,0,0,3.6,1.39c-.42,5.7-1.68,7.25-5.94,7.25H705.14c-5.46,0-6.9-1.14-6.9-5.39v-16h4v5.28h15.18v3.3H702.26v7.38c0,1.55.48,1.92,3.24,1.92Z"/><path d="M747.26,1820.68h3.84v6.42c0,6-1,14.52-5.7,20.46a14.53,14.53,0,0,0-3.24-2.16,20.45,20.45,0,0,0,2.94-5.22c-6.06.9-12.06,1.74-16.62,2.34l-.42-3.06c4.56-.54,11.16-1.38,18-2.28a25.16,25.16,0,0,0,.66-3.06H731v-2.88h16.08c.12-1.38.18-2.64.18-3.9h-17.7v-2.88h17.7Zm33.48-14.51H729.2v-3h6.12a8.25,8.25,0,0,0-2.88-1.8,24.74,24.74,0,0,0,6.72-8.64l3.72.6q-.72,1.53-1.62,3.06H753v-4.08h4.08v4.08h19.32v2.82H757.1v4h23.64Zm-45.18,13.62v-10.38H775.4v10.38Zm3.84-20.58a24.44,24.44,0,0,1-3.6,4H753v-4Zm0,17.81h32v-4.79h-32Zm42.84,24.24H763.4v5.7h-4v-26h4v3.48h17.1v2.94H763.4v4h15.84v2.82H763.4v4.14h18.84Z"/><path d="M813,1810.91c-8.58,1.55-17.4,3.3-23.82,4.43l-.66-3.42c4.32-.66,10.14-1.67,16.32-2.75V1801H790v-3.3H804.8v-5.34h4v16.26l4-.72Zm20.4,31.55c0,2.28-.6,3.36-2.34,4s-4.86.66-9.6.66a16.27,16.27,0,0,0-1.32-3.6c3.54.12,7,.12,7.92.12s1.26-.36,1.26-1.2v-8c-9.06,1.86-18.78,3.72-25.92,4.92l-1.32-3.54c6.84-1,17.34-2.88,27.24-4.74v-11.21H801.14v7.43c0,6.3-1.2,14.64-7.74,20.16a12.58,12.58,0,0,0-2.88-2.76c5.94-5.1,6.72-11.94,6.72-17.46v-10.79h36.12Zm-29.46-20.21c6.6,1.07,15.18,3.35,19.68,5.45l-1.38,3.12a103.06,103.06,0,0,0-19.8-5.82Zm31.26-12c2.1,0,2.52-.72,2.7-5.17a13.61,13.61,0,0,0,3.6,1.39c-.42,5.7-1.68,7.25-5.94,7.25H825.14c-5.46,0-6.9-1.14-6.9-5.39v-16h4v5.28h15.18v3.3H822.26v7.38c0,1.55.48,1.92,3.24,1.92Z"/><path d="M853.88,1828c4.68-2,7.26-4.86,7.56-9.17a4,4,0,0,1-1.14.11c-2.34,0-4.26-1.32-4.26-4.07a4,4,0,0,1,4.32-4.08c3.18,0,4.86,2.58,4.86,6.66,0,6.41-4,11.21-10.08,13.43Z"/><path d="M457.46,1913.62a70.7,70.7,0,0,0,7.38.36c2.1.06,14.76,0,17.58-.06a16.36,16.36,0,0,0-1.44,3.84H464.72c-12.3,0-19.92-1.92-24.72-10.38a31.55,31.55,0,0,1-9.48,11.7,19.84,19.84,0,0,0-3.06-2.82c6.3-4.14,10.2-10.92,11.82-19.86l4,.6a55.92,55.92,0,0,1-1.5,6.06c2.34,5.64,6.3,8.52,11.7,9.84v-18.54H428.72v-3.6H481.4v3.6H457.46v7.08h20v3.6h-20Zm17.22-27.17h-39.6v-19.56h39.6Zm-4-16.44H439v5.16h31.68Zm0,8.1H439v5.27h31.68Z"/><path d="M514,1867.49H499.22v35.15h-4v-38.87H514Z"/><path d="M543,1882.91c-8.58,1.55-17.4,3.3-23.82,4.43l-.66-3.42c4.32-.66,10.14-1.67,16.32-2.75V1873H520v-3.3H534.8v-5.34h4v16.26l4-.72Zm20.4,31.55c0,2.28-.6,3.36-2.34,4s-4.86.66-9.6.66a16.27,16.27,0,0,0-1.32-3.6c3.54.12,7,.12,7.92.12s1.26-.36,1.26-1.2v-8c-9.06,1.86-18.78,3.72-25.92,4.92l-1.32-3.54c6.84-1,17.34-2.88,27.24-4.74v-11.21H531.14v7.43c0,6.3-1.2,14.64-7.74,20.16a12.58,12.58,0,0,0-2.88-2.76c5.94-5.1,6.72-11.94,6.72-17.46v-10.79h36.12Zm-29.46-20.21c6.6,1.07,15.18,3.35,19.68,5.45l-1.38,3.12a103.06,103.06,0,0,0-19.8-5.82Zm31.26-12c2.1,0,2.52-.72,2.7-5.17a13.61,13.61,0,0,0,3.6,1.39c-.42,5.7-1.68,7.25-5.94,7.25H555.14c-5.46,0-6.9-1.14-6.9-5.39v-16h4v5.28h15.18v3.3H552.26v7.38c0,1.55.48,1.92,3.24,1.92Z"/><path d="M576,1915.84h14.82v-35.15h4v38.87H576Z"/><path d="M624,1865c-1,2.94-2.1,6.3-3.18,8.88H631v38.75h-16.8v4.8h-3.66v-43.55h6.66a64.68,64.68,0,0,0,2.58-9.72Zm3.3,12.47H614.18v13.08h13.14Zm0,31.56v-14.88H614.18v14.88Zm33.06-33.17c-1,27.53-1.8,36.71-4.2,39.59a5.6,5.6,0,0,1-4.56,2.28,74.94,74.94,0,0,1-8.82-.12,9.42,9.42,0,0,0-1.32-3.9c3.9.36,7.5.36,8.82.36s1.92-.12,2.52-.9c2-2.1,2.94-11.34,3.72-35.7H640.82a55.33,55.33,0,0,1-5.64,10.68,36.22,36.22,0,0,0-3.36-2.22c4.08-5.34,7.32-13.61,9.18-21.89l3.84.84c-.78,3-1.62,6-2.64,8.88h18.18Zm-12.78,27a106.51,106.51,0,0,0-9.3-13.92l3.06-1.79a102.47,102.47,0,0,1,9.6,13.61Z"/><path d="M687.86,1903.06c-1.26-1.86-4.08-5.64-6.48-8.52v24.36H677.3v-23.64a61.07,61.07,0,0,1-7.68,7.62,13.85,13.85,0,0,0-2.22-3.66,60.27,60.27,0,0,0,16.38-20.51h-15.3v-3.66h17.28l.78-.18,2.34,1.62a62.93,62.93,0,0,1-7.44,13.43c.6.66,1.32,1.5,2.16,2.41a46.19,46.19,0,0,0,4.86-5.88l2.82,2.27c-1.86,1.92-4,4-5.82,5.64,2.1,2.28,4.14,4.56,4.92,5.46Zm-7.8-28.61a50.51,50.51,0,0,0-5.16-8.4l3.06-1.68a46,46,0,0,1,5.28,8Zm40-2.7c-.84,31-1.68,41.33-4.08,44.33a5.75,5.75,0,0,1-4.5,2.46,63.83,63.83,0,0,1-8.82-.12,10.21,10.21,0,0,0-1.2-3.84c3.78.3,7.14.36,8.52.36a2.7,2.7,0,0,0,2.46-1c2-2.28,2.88-12.48,3.72-40.55H704.06c-1,21.59-3.9,36.17-15.24,45.71a18.44,18.44,0,0,0-3.06-3.06c11-8.4,13.44-22.62,14.22-42.65h-10.2v-3.84h30.3Z"/><path d="M772.46,1878.89c-3.48,9.65-8.22,17.33-14.4,23.51a59.93,59.93,0,0,0,24.6,12.6,20.15,20.15,0,0,0-2.7,3.6,61.1,61.1,0,0,1-24.9-13.32c-6.78,5.94-15.06,10.32-25.14,13.56a18.63,18.63,0,0,0-2.46-3.66c10-2.94,18.12-7.08,24.72-12.72a68.52,68.52,0,0,1-14.64-23.57h-9.3V1875h53.7v3.9Zm-30.9,0a62.52,62.52,0,0,0,13.56,20.75A57,57,0,0,0,768,1878.89Zm13.5-4.26a45.75,45.75,0,0,0-4.56-9.36l4.08-1.2a46.78,46.78,0,0,1,4.8,9.18Z"/><path d="M800.18,1882.67a9.06,9.06,0,1,1-9.06,9A9.09,9.09,0,0,1,800.18,1882.67Zm0,15.23a6.18,6.18,0,1,0,0-12.36,6.18,6.18,0,1,0,0,12.36Z"/><path d="M33.32,1976.62l.72,3.48c-8.64,3.66-18,7.56-24.84,10.32l-1.86-3.84c4.38-1.62,10.62-4,17.16-6.54v-24.42H9.08v-3.89H24.5v-14.22h4.08v41Zm20.1,8c2.82,0,3.18-2.88,3.54-14.52A9.65,9.65,0,0,0,60.8,1972c-.48,12.36-1.5,16.5-7.08,16.5H45.56c-5,0-6.48-1.56-6.48-7.44v-43.55h4.08v14.16h17v3.95h-17v25.5c0,2.94.48,3.48,2.82,3.48Z"/><path d="M119.84,1938.83v52.07h-4.2v-3.18H74.24v3.18h-4v-52.07Zm-4.2,45.11v-41.09H74.24v41.09Zm-9.3-31.32v21.48H83.42v-21.48Zm-4,3.55H87.2v14.33h15.18Z"/><path d="M151.1,1981.12l.18,3.42c-8.28,1.56-16.92,3.12-23.16,4.26l-.54-3.72,2.94-.48v-13.92h3.24v13.38l4.62-.78v-16.07H130.7v-25.86H136c.48-1.68,1.08-3.6,1.38-5l4,.66c-.6,1.56-1.26,3.06-1.86,4.38h9.6v11.22H134.12v3.18h15.3v11.46H141.8v5.57h8.4v3.3h-8.4v6.66Zm-17-36.71v5.09h11.64v-5.09Zm0,19.67h11.82v-5.28H134.12Zm48.24-18.53v3.06h-5.1v7H155.12v-3H173.6v-4H151v-3.06H173.6v-3.9H155.24v-3.06h22v7Zm-30.18,13.37H181v8.1h-3.48v-5H168.2v6h10.74v14.16c0,1.68-.3,2.58-1.56,3.12-1.08.54-3.06.54-6.06.54a11.83,11.83,0,0,0-1-3c2.1.06,3.78.06,4.32,0s.72-.18.72-.72v-10.86H168.2v19.44h-3.66v-19.44h-6.9v15.06h-3.48V1968h10.38v-6h-9v5h-3.36Z"/><path d="M193.64,1975.06a84.79,84.79,0,0,1-3.12,14.7,27.64,27.64,0,0,0-3.18-1.14,58.35,58.35,0,0,0,3-14.1Zm11.16-2.46c-.18-1.08-.42-2.28-.72-3.66-12.12,1.86-13.92,2.28-14.94,2.82-.24-.84-.9-2.76-1.32-3.78,1.2-.3,2.58-1.8,4.32-4a75.87,75.87,0,0,0,5.16-7.07c-6.42.77-7.74,1.08-8.58,1.5a30.29,30.29,0,0,0-1.26-3.72c1-.24,2-1.5,3.24-3.31a77.54,77.54,0,0,0,7.74-15.17l3.72,1.56A89,89,0,0,1,193,1954l6.66-.59c1.5-2.52,3.06-5.34,4.38-8l3.54,2a113.57,113.57,0,0,1-13.5,19.67l9.24-1.2c-.54-2.09-1.14-4.26-1.8-6.24l3.06-.72a73.33,73.33,0,0,1,3.48,12.72Zm-5.7,1.8a106.51,106.51,0,0,1,1.56,12.84l-3.18.6a104.68,104.68,0,0,0-1.44-12.9Zm5.34-1.38a72.51,72.51,0,0,1,3.06,9.84l-3,1a84.63,84.63,0,0,0-2.88-10Zm18.36-3.54c-2.28,9.06-7.56,15.42-13.68,18.72a10.48,10.48,0,0,0-2.34-2.82,24.24,24.24,0,0,0,11.52-13.26H210v-3.36h9.78l.6-.18Zm18.24-1.2a95.41,95.41,0,0,1-8.46,7.38,27.46,27.46,0,0,0,10,9.54,13.6,13.6,0,0,0-2.58,3.18c-5-3-9-8.16-11.88-14.34v12.42c0,2.16-.42,3.24-1.92,3.9s-4,.72-7.92.72a16.63,16.63,0,0,0-1.14-3.72c2.88.06,5.4.06,6.18,0s1-.18,1-.9v-22.92H212.24v-20.87h9.3a51.67,51.67,0,0,0,2-6.36l4.44,1c-.84,1.8-1.74,3.78-2.52,5.4h13.68v20.87h-11.1v2.1a39.64,39.64,0,0,0,3,7.38,76.28,76.28,0,0,0,7-7.08ZM216,1951.54h19.38v-5.63H216Zm0,8.83h19.38v-5.76H216Z"/><path d="M273,1973.8c-8.34,3.84-17.52,7.86-24.06,10.74l-1.44-4.08c2.34-.9,5.16-2.1,8.28-3.42l-1-37.55,4-.12.9,36c4-1.74,8.22-3.6,12.36-5.46Zm26.64,17c-2.82-4.2-8.58-10.68-13.8-16.14-4.68,7.2-11.4,12.54-21,16.5a31.65,31.65,0,0,0-3.12-3.42c20.88-7.56,27.24-22.14,29.94-48.35l4.32.42c-1.44,13-3.78,23.21-8,31.31,5.46,5.4,11.88,12.24,15.06,16.56Zm-23.22-30.6c-1.56-4.14-5.46-10.25-9.24-14.63l3.42-1.74a56.51,56.51,0,0,1,9.54,14.27Z"/><path d="M333.32,1976.62l.72,3.48c-8.64,3.66-18,7.56-24.84,10.32l-1.86-3.84c4.38-1.62,10.62-4,17.16-6.54v-24.42H309.08v-3.89H324.5v-14.22h4.08v41Zm20.1,8c2.82,0,3.18-2.88,3.54-14.52a9.65,9.65,0,0,0,3.84,1.92c-.48,12.36-1.5,16.5-7.08,16.5h-8.16c-5,0-6.48-1.56-6.48-7.44v-43.55h4.08v14.16h17v3.95h-17v25.5c0,2.94.48,3.48,2.82,3.48Z"/><path d="M384,1937c-1,2.94-2.1,6.3-3.18,8.88H391v38.75h-16.8v4.8h-3.66v-43.55h6.66a64.68,64.68,0,0,0,2.58-9.72Zm3.3,12.47H374.18v13.08h13.14Zm0,31.56v-14.88H374.18v14.88Zm33.06-33.17c-1,27.53-1.8,36.71-4.2,39.59a5.6,5.6,0,0,1-4.56,2.28,74.94,74.94,0,0,1-8.82-.12,9.42,9.42,0,0,0-1.32-3.9c3.9.36,7.5.36,8.82.36s1.92-.12,2.52-.9c2-2.1,2.94-11.34,3.72-35.7H400.82a55.33,55.33,0,0,1-5.64,10.68,36.22,36.22,0,0,0-3.36-2.22c4.08-5.34,7.32-13.61,9.18-21.89l3.84.84c-.78,3-1.62,6-2.64,8.88h18.18Zm-12.78,27a106.51,106.51,0,0,0-9.3-13.92l3.06-1.79a102.47,102.47,0,0,1,9.6,13.61Z"/><path d="M444.92,1957.72a73,73,0,0,1-5.1,20.7c5.82,5.94,14.22,7.38,24.6,7.38,2.16,0,15.24,0,18.06-.06a12,12,0,0,0-1.56,3.72H464.36c-11.22,0-20-1.56-26.28-7.74a28.74,28.74,0,0,1-7.62,9.24,15.73,15.73,0,0,0-2.94-2.7,26.33,26.33,0,0,0,8-9.54,41.25,41.25,0,0,1-5.46-11.64l3-1.2a31.35,31.35,0,0,0,4.2,9.36,63.55,63.55,0,0,0,3.66-14.45h-7.74c-.9.42-2.16,1.2-2.16,1.67a18.47,18.47,0,0,0-1.62-3.24c1.08-.23,2.46-1.68,3.66-3.47a81,81,0,0,0,6.66-12H429.08v-3.6h12.18l1.32-.6,2.52,1.68a121.3,121.3,0,0,1-8.88,16H442l.72-.06Zm15.18-13H448.76v-3.24H460.1v-5.16h3.78v5.16h13.38v8h4.32v3.24h-4.32V1961H463.88v4.92h14.88V1969H463.88v5H481.1v3.24H463.88v6.3H460.1v-6.3H445.28V1974H460.1v-5H447.8v-3.12h12.3V1961H448.28v-3.17H460.1v-5H444.74v-3.24H460.1Zm3.78,0v4.8h9.78v-4.8Zm9.78,8h-9.78v5h9.78Z"/><path d="M496.88,1943.15a36.53,36.53,0,0,1-6.24,6.84,15.25,15.25,0,0,0-2.82-2.7,31.81,31.81,0,0,0,9.24-11.4l3.6,1c-.48,1-1,2-1.62,3h15.72v3.24Zm20,30.17h24.72v3.3H516.92V1991h-3.84v-14.34H488.54v-3.3h24.54v-3.72a9.57,9.57,0,0,1-1.38.6,9.65,9.65,0,0,0-2.52-2.45c4.14-1.57,6.66-3.37,8.22-5.29-2.1-1-4.2-1.92-6.06-2.7l1.56-2.46c1.86.73,3.9,1.62,5.88,2.53a9,9,0,0,0,.48-3v-2h-7.14v-2.88H533.3v12.65c0,1.15,0,1.8.3,2a1.5,1.5,0,0,0,1,.24h1.68a2.48,2.48,0,0,0,1.26-.24,1.66,1.66,0,0,0,.66-1.26c.12-.72.18-2.46.24-4.74a8,8,0,0,0,2.82,1.5,34.26,34.26,0,0,1-.54,5.65,3.22,3.22,0,0,1-1.62,1.79,6.1,6.1,0,0,1-2.64.48h-2.76a4.62,4.62,0,0,1-3.12-1c-.84-.66-1.08-1.56-1.08-4.73v-9.54h-6.78v2.09a12.71,12.71,0,0,1-.78,4.38c2.4,1.15,4.62,2.16,6.18,3l-1.5,2.88c-1.56-.89-3.72-2-6.12-3.18a17.13,17.13,0,0,1-7,5.46h3.42Zm-8.52,6.12c-3.9,4.38-11,8.4-17.22,10.32a16.46,16.46,0,0,0-2.64-3.24c6-1.5,13-4.86,16.56-8.46Zm-19.8-13.19c2.58-.37,5.88-.73,9.42-1.27v-9.65h-8.58v-3.06h20.4v3.06h-8.16v9.05c2.76-.42,5.58-.84,8.4-1.32l.18,3.24c-7.5,1.26-15.36,2.4-21.06,3.37Zm14.16-23a61,61,0,0,1,5.22,5.52l-2.76,2.16a52.33,52.33,0,0,0-5.16-5.88Zm39.3-3.24v3.24H521.18a33.85,33.85,0,0,1-5.64,6.54,15.57,15.57,0,0,0-3.06-2.4,26.41,26.41,0,0,0,8.4-11.4l3.66,1a19.93,19.93,0,0,1-1.38,3.06Zm-18.12,37.73a108.1,108.1,0,0,1,16.38,8.64l-2.58,3a101,101,0,0,0-16.32-9.06Zm7.2-27a45.65,45.65,0,0,0-5-5.64l2.7-1.8a35,35,0,0,1,5.16,5.22Z"/><path d="M577.16,1946.27V1953h20.76v33.17c0,2.52-.6,3.6-2.46,4.26s-5.22.66-10.08.66a16,16,0,0,0-1.44-3.66c3.9.18,7.56.12,8.58.06s1.38-.36,1.38-1.32v-29.51H556.22V1991h-4v-38h20.52v-6.72H548.84v-3.72h23.94v-6.24h4.38v6.24h24.12v3.72Zm-.42,33v10.68H573v-10.68h-13.2v-3.36H573v-6.48H561v-3.3h17.4a59.31,59.31,0,0,0,4.26-8.51l3.36,1a84.74,84.74,0,0,1-4.14,7.5h7.62v3.3H576.74v6.48h13.74v3.36Zm-9.48-21.54a27.21,27.21,0,0,1,3.9,7.14l-3.3,1.14a29.25,29.25,0,0,0-3.72-7.32Z"/><path d="M630.26,1950.71c-.18,3.29-.48,6.59-.9,10h25.5s-.06,1.37-.12,2c-1.26,17-2.4,23.46-4.8,25.8-1.26,1.38-2.64,1.8-4.86,1.92a87,87,0,0,1-10-.24,9,9,0,0,0-1.38-3.84c4.26.36,8.46.42,10,.42a4,4,0,0,0,2.82-.72c1.74-1.56,2.88-7.44,4-21.48H628.76c-1.92,10.68-6.42,20.7-17.82,26.64a11.83,11.83,0,0,0-2.88-3.12c15.54-7.68,17.1-23.46,17.82-37.31H609.44v-3.84H660.8v3.84Zm5.64-4a74.52,74.52,0,0,0-4.2-9.18l3.84-1.5a65.56,65.56,0,0,1,4.26,8.94Z"/><path d="M713.06,1965.83a37.4,37.4,0,0,1-14,15.23,73.55,73.55,0,0,0,22.56,6.12,21,21,0,0,0-2.46,3.72,70.86,70.86,0,0,1-24.06-7.62c-7.26,3.78-15.72,6.18-24.42,7.62a16.14,16.14,0,0,0-2.28-3.54,80.06,80.06,0,0,0,22.92-6.36,40.89,40.89,0,0,1-12.6-12.83l.3-.13h-2.46v-3.71h33.12l.84-.19Zm-39.66-.25h-3.78v-12H705.8a86,86,0,0,0,5.82-10.43l4,1.2a98.83,98.83,0,0,1-5.76,9.23h10.62v12h-3.9v-8.46H673.4Zm43.44-26.21c-11.7,2.52-30.24,4-45.66,4.68a13.84,13.84,0,0,0-1-3.42c15.3-.66,33.72-2.22,43.8-4.44Zm-38.28,5a34.73,34.73,0,0,1,4.38,8l-3.54,1.19a39.1,39.1,0,0,0-4.26-8.27ZM683,1968A36.27,36.27,0,0,0,695.12,1979a34.08,34.08,0,0,0,12-10.92Zm11.1-15a37.22,37.22,0,0,0-3.06-9l3.54-.78a34.58,34.58,0,0,1,3.3,8.88Z"/><path d="M746.84,1940.33c-1.8,4.86-4,10.92-6.06,15.71,4.44,5,5.52,9.25,5.52,13,0,3.12-.66,5.58-2.28,6.72a7.16,7.16,0,0,1-3.06,1.08,30.39,30.39,0,0,1-4.08.06,8.81,8.81,0,0,0-1-3.54,25.73,25.73,0,0,0,3.66.06,4,4,0,0,0,2-.54c.9-.66,1.2-2.4,1.2-4.2,0-3.3-1.08-7.38-5.58-12.18,1.8-4.43,3.72-9.83,5-13.91H733.7V1991h-3.6v-52h13.56l.6-.18ZM758.36,1965a40.3,40.3,0,0,1-2.4,4.56h24.3s-.06,1.08-.12,1.68c-.72,12.12-1.56,16.56-3.06,18.18a4.25,4.25,0,0,1-3.06,1.44c-1.2.06-3.3.06-5.4-.06a10,10,0,0,0-.9-3.42c2,.18,3.9.24,4.68.24s1.32-.06,1.68-.54c1-1,1.68-4.8,2.34-14.28h-4.56a40.35,40.35,0,0,1-11.34,17.94c-.6-.54-1.86-1.74-2.7-2.34a33.44,33.44,0,0,0,10.44-15.6h-5.4a45.27,45.27,0,0,1-14.22,17,14.26,14.26,0,0,0-2.4-2.64,38.12,38.12,0,0,0,13-14.4h-5.46a38.17,38.17,0,0,1-7.26,7.32,21.92,21.92,0,0,0-2.7-2.52,30.57,30.57,0,0,0,10.74-12.6H746.3v-3.29h36.06V1965Zm19-7.13H751.7v-19.14h25.68Zm-3.78-16.08H755.36v5H773.6Zm0,7.92H755.36v5.09H773.6Z"/><path d="M835.52,1987.18c2.4,0,2.88-1.5,3.12-10.2a9.66,9.66,0,0,0,3.66,1.68c-.48,9.66-1.56,12.24-6.48,12.24h-8.88c-5.1,0-6.54-1.32-6.54-6.12v-21.72H808.88c-1.14,13.26-4.14,23-19,27.9a12.28,12.28,0,0,0-2.52-3.42c14-4.26,16.38-12.84,17.34-24.48h-16.2v-3.77h24.36v-23h4v23h24.84v3.77H824.42v21.66c0,2,.48,2.46,2.88,2.46Zm-34.68-31.61a62.59,62.59,0,0,0-7.26-14.94l3.6-1.32c3.12,4.62,6.3,10.73,7.5,14.76ZM837,1940.15a154.79,154.79,0,0,1-8.46,15.3l-3.3-1.38a97.66,97.66,0,0,0,7.68-15.42Z"/><path d="M876.68,1943.69c-.84,3.12-1.8,6.42-2.7,9.06h24.66v32.93c0,2.46-.54,3.6-2.22,4.26s-4.8.72-9.12.72a12.47,12.47,0,0,0-1.38-3.78c3.54.12,6.6.06,7.5,0s1.2-.3,1.2-1.2v-29.22H883.94V1989h-4v-32.58H869.54V1989h-3.9v-32.58h-10V1991h-4v-38.27h18.24c.84-2.71,1.56-6.12,2.16-9.06H848.48v-4h53.34v4Z"/><path d="M933.32,1976.62l.72,3.48c-8.64,3.66-18,7.56-24.84,10.32l-1.86-3.84c4.38-1.62,10.62-4,17.16-6.54v-24.42H909.08v-3.89H924.5v-14.22h4.08v41Zm20.1,8c2.82,0,3.18-2.88,3.54-14.52a9.65,9.65,0,0,0,3.84,1.92c-.48,12.36-1.5,16.5-7.08,16.5h-8.16c-5,0-6.48-1.56-6.48-7.44v-43.55h4.08v14.16h17v3.95h-17v25.5c0,2.94.48,3.48,2.82,3.48Z"/><path d="M990.26,1950.71c-.18,3.29-.48,6.59-.9,10h25.5s-.06,1.37-.12,2c-1.26,17-2.4,23.46-4.8,25.8-1.26,1.38-2.64,1.8-4.86,1.92a87,87,0,0,1-10-.24,9,9,0,0,0-1.38-3.84c4.26.36,8.46.42,10,.42a4,4,0,0,0,2.82-.72c1.74-1.56,2.88-7.44,4-21.48H988.76c-1.92,10.68-6.42,20.7-17.82,26.64a11.83,11.83,0,0,0-2.88-3.12c15.54-7.68,17.1-23.46,17.82-37.31H969.44v-3.84h51.36v3.84Zm5.64-4a74.52,74.52,0,0,0-4.2-9.18l3.84-1.5a65.56,65.56,0,0,1,4.26,8.94Z"/><path d="M1053,1954.91c-8.58,1.55-17.4,3.3-23.82,4.43l-.66-3.42c4.32-.66,10.14-1.67,16.32-2.75V1945H1030v-3.3h14.82v-5.34h4v16.26l4-.72Zm20.4,31.55c0,2.28-.6,3.36-2.34,4s-4.86.66-9.6.66a16.27,16.27,0,0,0-1.32-3.6c3.54.12,7,.12,7.92.12s1.26-.36,1.26-1.2v-8c-9.06,1.86-18.78,3.72-25.92,4.92l-1.32-3.54c6.84-1,17.34-2.88,27.24-4.74v-11.21h-28.14v7.43c0,6.3-1.2,14.64-7.74,20.16a12.58,12.58,0,0,0-2.88-2.76c5.94-5.1,6.72-11.94,6.72-17.46v-10.79h36.12Zm-29.46-20.21c6.6,1.07,15.18,3.35,19.68,5.45l-1.38,3.12a103.06,103.06,0,0,0-19.8-5.82Zm31.26-12c2.1,0,2.52-.72,2.7-5.17a13.61,13.61,0,0,0,3.6,1.39c-.42,5.7-1.68,7.25-5.94,7.25h-10.38c-5.46,0-6.9-1.14-6.9-5.39v-16h4v5.28h15.18v3.3h-15.18v7.38c0,1.55.48,1.92,3.24,1.92Z"/><path d="M1106.84,1940.33c-1.8,4.86-4,10.92-6.06,15.71,4.44,5,5.52,9.25,5.52,13,0,3.12-.66,5.58-2.28,6.72a7.16,7.16,0,0,1-3.06,1.08,30.39,30.39,0,0,1-4.08.06,8.81,8.81,0,0,0-1-3.54,25.73,25.73,0,0,0,3.66.06,4,4,0,0,0,2-.54c.9-.66,1.2-2.4,1.2-4.2,0-3.3-1.08-7.38-5.58-12.18,1.8-4.43,3.72-9.83,5-13.91h-8.46V1991h-3.6v-52h13.56l.6-.18Zm11.52,24.71a40.3,40.3,0,0,1-2.4,4.56h24.3s-.06,1.08-.12,1.68c-.72,12.12-1.56,16.56-3.06,18.18a4.25,4.25,0,0,1-3.06,1.44c-1.2.06-3.3.06-5.4-.06a10,10,0,0,0-.9-3.42c2,.18,3.9.24,4.68.24s1.32-.06,1.68-.54c1-1,1.68-4.8,2.34-14.28h-4.56a40.35,40.35,0,0,1-11.34,17.94c-.6-.54-1.86-1.74-2.7-2.34a33.44,33.44,0,0,0,10.44-15.6h-5.4a45.27,45.27,0,0,1-14.22,17,14.26,14.26,0,0,0-2.4-2.64,38.12,38.12,0,0,0,13-14.4h-5.46a38.17,38.17,0,0,1-7.26,7.32,21.92,21.92,0,0,0-2.7-2.52,30.57,30.57,0,0,0,10.74-12.6h-8.22v-3.29h36.06V1965Zm19-7.13H1111.7v-19.14h25.68Zm-3.78-16.08h-18.24v5h18.24Zm0,7.92h-18.24v5.09h18.24Z"/><path d="M1195.52,1987.18c2.4,0,2.88-1.5,3.12-10.2a9.66,9.66,0,0,0,3.66,1.68c-.48,9.66-1.56,12.24-6.48,12.24h-8.88c-5.1,0-6.54-1.32-6.54-6.12v-21.72h-11.52c-1.14,13.26-4.14,23-19,27.9a12.28,12.28,0,0,0-2.52-3.42c14-4.26,16.38-12.84,17.34-24.48h-16.2v-3.77h24.36v-23h4v23h24.84v3.77h-17.22v21.66c0,2,.48,2.46,2.88,2.46Zm-34.68-31.61a62.59,62.59,0,0,0-7.26-14.94l3.6-1.32c3.12,4.62,6.3,10.73,7.5,14.76Zm36.18-15.42a154.79,154.79,0,0,1-8.46,15.3l-3.3-1.38a97.66,97.66,0,0,0,7.68-15.42Z"/><path d="M1213.88,1972c4.68-2,7.26-4.86,7.56-9.17a4,4,0,0,1-1.14.11c-2.34,0-4.26-1.32-4.26-4.07a4,4,0,0,1,4.32-4.08c3.18,0,4.86,2.58,4.86,6.66,0,6.41-4,11.21-10.08,13.43Z"/><path d="M315,2040.52c-.3,7.5-1.38,16.2-4.74,22.5a14.72,14.72,0,0,0-3.18-2.52c3.84-7.32,4.14-17.7,4.14-25.5v-20.69c7.14-.84,15.84-2.46,20.46-4.68l2.58,3.3c-4.86,2.16-12.42,3.6-19.14,4.44v5.94h16.26v17.21Zm.12-13.56v10h12.36v-10Zm47,5.46h-7.26v30.36H351v-30.36h-9.84v2.16c0,8.82-1.14,20.82-8.52,28.5a17.13,17.13,0,0,0-3.12-2.7c6.9-7.2,7.56-17.64,7.56-25.8v-20.15c7.5-1.14,16.38-3.06,21.18-5.34l2.7,3.36c-5,2.22-12.84,3.84-19.8,4.92v11.21h21Z"/><path d="M393,2045.8c-8.34,3.84-17.52,7.86-24.06,10.74l-1.44-4.08c2.34-.9,5.16-2.1,8.28-3.42l-1-37.55,4-.12.9,36c4-1.74,8.22-3.6,12.36-5.46Zm26.64,17c-2.82-4.2-8.58-10.68-13.8-16.14-4.68,7.2-11.4,12.54-21,16.5a31.65,31.65,0,0,0-3.12-3.42c20.88-7.56,27.24-22.14,29.94-48.35l4.32.42c-1.44,13-3.78,23.21-8,31.31,5.46,5.4,11.88,12.24,15.06,16.56Zm-23.22-30.6c-1.56-4.14-5.46-10.25-9.24-14.63l3.42-1.74a56.51,56.51,0,0,1,9.54,14.27Z"/><path d="M454,2011.49H439.22v35.15h-4v-38.87H454Z"/><path d="M483.32,2048.62l.72,3.48c-8.64,3.66-18,7.56-24.84,10.32l-1.86-3.84c4.38-1.62,10.62-4,17.16-6.54v-24.42H459.08v-3.89H474.5v-14.22h4.08v41Zm20.1,8c2.82,0,3.18-2.88,3.54-14.52a9.65,9.65,0,0,0,3.84,1.92c-.48,12.36-1.5,16.5-7.08,16.5h-8.16c-5,0-6.48-1.56-6.48-7.44v-43.55h4.08v14.16h17v3.95h-17v25.5c0,2.94.48,3.48,2.82,3.48Z"/><path d="M516,2059.84h14.82v-35.15h4v38.87H516Z"/><path d="M596.06,2013.83c-3.48,13.74-9.9,24.29-18.06,32.27a57.36,57.36,0,0,0,24.78,12.78,15.56,15.56,0,0,0-2.64,3.54,58.72,58.72,0,0,1-25.2-13.56,72.49,72.49,0,0,1-25,13.62,10.78,10.78,0,0,0-2.46-3.54,70.44,70.44,0,0,0,24.6-12.84c-7.38-7.74-12.66-17.69-16.32-29.33H551v-4h41.7l.78-.24Zm-36.3,2.94c3.36,10.38,8.4,19.44,15.36,26.63a59.91,59.91,0,0,0,16.08-26.63Z"/><path d="M637.7,2038.06s-.06,1.32-.12,1.86c-1.08,13.56-2.1,18.84-4.08,20.82-1.26,1.32-2.46,1.68-4.56,1.8a90.37,90.37,0,0,1-9.48-.18,8,8,0,0,0-1.44-4c4,.36,8,.36,9.48.36s2-.06,2.58-.6c1.5-1.2,2.4-5.7,3.3-16.32h-22.8c1.14-4.56,2.46-11.63,3.24-17.09H633.5v-10.08h-22v-3.78H637.4v17.58H617.3c-.6,3.3-1.2,6.71-1.86,9.65Zm18.36-29.15V2063h-4v-54.11Z"/><path d="M718.28,2016.23v33.29H714.2v-3.18H696.92v16.5h-4.14v-16.5H676v3.54h-4v-33.65h20.76v-7.92h4.14v7.92Zm-42.3,3.84v9.18h16.8v-9.18Zm16.8,22.49V2033H676v9.6Zm4.14-22.49v9.18H714.2v-9.18Zm17.28,22.49V2033H696.92v9.6Z"/><path d="M780.74,2040.17s-.06,1.19-.12,1.73c-1.14,12.66-2.28,17.64-4.14,19.56a5.52,5.52,0,0,1-4,1.56,66.58,66.58,0,0,1-7.5-.12,9.39,9.39,0,0,0-1.2-3.66c3.12.3,6.06.3,7.2.3a3,3,0,0,0,2.22-.54c1.26-1.32,2.4-5.34,3.36-15.3H739a59.21,59.21,0,0,1-9.66,7.32,19.86,19.86,0,0,0-2.22-3.3c10.26-6,17.82-15.18,23.1-25.43h-20v-3.66H752a82.29,82.29,0,0,0,3.84-10.32l3.9,1a92.32,92.32,0,0,1-3.54,9.3H772c-.72,3.48-1.56,7.62-2.34,10.74h7c-.66,3.47-1.5,7.67-2.28,10.8Zm-49.38,20.33c3.42-3.24,5.7-8.58,7-13.2l3.3,1.08c-1.44,4.92-3.54,10.62-7.14,14.16Zm12.42-42.17a39,39,0,0,0-6-8.34l3.42-1.44a39.57,39.57,0,0,1,6.18,8Zm26.82,21.84c.54-2.11,1.08-4.69,1.56-7.21H748.34a75.18,75.18,0,0,1-5.76,7.21Zm-21.48,7.91a44,44,0,0,1,1.8,11.88l-3.48.54a39.57,39.57,0,0,0-1.62-11.94Zm5.4-25.79c-1.14,2.4-2.46,4.79-3.84,7.08h15.24c.54-2,1.14-4.62,1.62-7.08Zm3.18,25a43,43,0,0,1,3.6,10.26l-3.3.9a45.91,45.91,0,0,0-3.42-10.44Zm10.32,8a38.83,38.83,0,0,0-4.56-8.1l2.76-1.08a34.18,34.18,0,0,1,4.74,7.86Z"/><path d="M813.32,2048.62l.72,3.48c-8.64,3.66-18,7.56-24.84,10.32l-1.86-3.84c4.38-1.62,10.62-4,17.16-6.54v-24.42H789.08v-3.89H804.5v-14.22h4.08v41Zm20.1,8c2.82,0,3.18-2.88,3.54-14.52a9.65,9.65,0,0,0,3.84,1.92c-.48,12.36-1.5,16.5-7.08,16.5h-8.16c-5,0-6.48-1.56-6.48-7.44v-43.55h4.08v14.16h17v3.95h-17v25.5c0,2.94.48,3.48,2.82,3.48Z"/><path d="M870.26,2022.71c-.18,3.29-.48,6.59-.9,10h25.5s-.06,1.37-.12,2c-1.26,17-2.4,23.46-4.8,25.8-1.26,1.38-2.64,1.8-4.86,1.92a87,87,0,0,1-10-.24,9,9,0,0,0-1.38-3.84c4.26.36,8.46.42,10,.42a4,4,0,0,0,2.82-.72c1.74-1.56,2.88-7.44,4-21.48H868.76c-1.92,10.68-6.42,20.7-17.82,26.64a11.83,11.83,0,0,0-2.88-3.12c15.54-7.68,17.1-23.46,17.82-37.31H849.44v-3.84H900.8v3.84Zm5.64-4a74.52,74.52,0,0,0-4.2-9.18l3.84-1.5a65.56,65.56,0,0,1,4.26,8.94Z"/><path d="M920.18,2026.67a9.06,9.06,0,1,1-9.06,9A9.09,9.09,0,0,1,920.18,2026.67Zm0,15.23a6.18,6.18,0,1,0,0-12.36,6.18,6.18,0,1,0,0,12.36Z"/><line class="cls-3" x1="621" y1="351" x2="621" y2="351"/><path d="M414.59,1084.87c1.92,1.39,3.81,2.81,5.69,4.25l-5.16-4a240.06,240.06,0,0,1,42.27,42.54l-4-5.16a310.53,310.53,0,0,1,39.53,68.54l-2.57-6.09c13.95,33.11,22.91,68.27,29.33,103.56q2.91,16,5.06,32.19l-.91-6.78c5.3,39.85,7.4,80,7.57,120.22.16,40.45-1.6,80.88-4,121.25-1.35,22.45-2.9,44.89-4.44,67.33-.43,6.25,3.15,13.71,7.47,18s11.68,7.75,18,7.47c6.6-.3,13.44-2.47,18-7.47a28.08,28.08,0,0,0,7.47-18c2.81-40.94,5.66-81.88,7.23-122.89,1.58-41.3,1.89-82.69-.51-124-2.47-42.72-7.73-85.5-17.16-127.25-8.64-38.21-21-75.71-39.41-110.38-17.2-32.33-40.22-62.72-68.75-85.88q-7.37-6-15-11.54c-5.06-3.65-13.88-4.16-19.65-2.57-5.92,1.63-12.33,6.21-15.24,11.72-3.13,5.92-4.7,13.09-2.57,19.65l2.57,6.09a25.48,25.48,0,0,0,9.15,9.15Z"/><line class="cls-4" x1="426.3" y1="1063.26" x2="327.81" y2="1379.52"/><path d="M779.41,1040.83a258.87,258.87,0,0,0-43.28,38.84A309.59,309.59,0,0,0,701.94,1127c-19.49,33.22-32.82,69.83-42.23,107.08-10.48,41.49-16.48,84.16-19.66,126.81-3.07,41.21-3.27,82.59-2,123.88,1.24,40.94,3.91,81.81,6.7,122.67l1,15.33c.46,6.81,2.53,13.09,7.47,18,4.42,4.42,11.68,7.75,18,7.47,6.59-.3,13.43-2.47,18-7.47,4.4-4.79,7.93-11.31,7.47-18-2.74-39.9-5.51-79.8-7.11-119.77-1.61-40.43-2-81,.07-121.37,1.18-22.62,3.16-45.2,6.15-67.66l-.91,6.78c5-37,12.52-74,24.43-109.4q4.49-13.36,10-26.35l-2.57,6.09a310.13,310.13,0,0,1,39.53-68.54l-4,5.16a239.72,239.72,0,0,1,42.27-42.54l-5.16,4c1.88-1.44,3.77-2.86,5.69-4.25,5.53-4,9.85-8.43,11.72-15.24,1.68-6.1.92-14.23-2.57-19.65s-8.74-10.23-15.24-11.72c-6.31-1.43-14.17-1.38-19.65,2.57Z"/><line class="cls-4" x1="793.44" y1="1063.26" x2="891.93" y2="1379.52"/><rect class="cls-2" x="1114" y="1203" width="65" height="271" rx="12"/><path class="cls-1" d="M1159.05,1242.79a27.61,27.61,0,0,0,11.5,8.1,11.65,11.65,0,0,0-2.15,2.55,30.77,30.77,0,0,1-12.8-10.65h-15.95a34.39,34.39,0,0,1-13,11.3,11.43,11.43,0,0,0-2.15-2.55,30.39,30.39,0,0,0,11.6-8.75H1125v-2.85h10v-16.15h-7.7V1221h7.7v-5h3.3v5h18.55v-5h3.35v5h7.65v2.8h-7.65v16.15h9.8v2.85Zm-10,14.5h17.3v2.85H1128.8v-2.85h16.9v-5.6h-10.45v-2.8h10.45v-4.4h3.35v4.4h10.65v2.8h-10.65Zm-10.8-33.5v3.6h18.55v-3.6Zm0,9.8h18.55v-3.65h-18.55Zm0,6.35h18.55v-3.8h-18.55Z"/><path class="cls-1" d="M1143.25,1284.54s0,1.15,0,1.55c-.6,15.85-1.2,21.2-2.6,23a3.71,3.71,0,0,1-2.8,1.45,32.65,32.65,0,0,1-4.45,0,9.25,9.25,0,0,0-.85-3c1.75.15,3.2.15,3.9.15a1.42,1.42,0,0,0,1.45-.65c1-1.2,1.6-6,2.15-19.35h-6.8c-.55,10-2,18.25-6.45,23.65a9.53,9.53,0,0,0-2.55-2.35c5.45-6.45,5.9-17.85,6.1-31.55h-5.2v-3.1h20.1v3.1h-11.65c0,2.45-.1,4.85-.2,7.15Zm-7.9-10.45a33.47,33.47,0,0,0-4.25-7.15l2.9-1.15a31.92,31.92,0,0,1,4.4,7Zm23.85-7.45a15.26,15.26,0,0,1-.85,2.55c2.65,5.45,7.7,11.35,12.45,14a13,13,0,0,0-2.45,2.75c-4.25-2.7-8.5-8-11.4-13.3a32.61,32.61,0,0,1-11,13.6,12.79,12.79,0,0,0-2.35-2.65c5.85-3.6,10.35-10.2,12.5-17.85Zm-8.3,32.45a74,74,0,0,1,13.6,8.25l-2.25,2.9c-2.85-2.6-8.75-6.3-13.4-8.65Zm9.5-4.85a66.22,66.22,0,0,0-8.6-6.85l2.15-2.2a67.46,67.46,0,0,1,8.75,6.55Z"/><path class="cls-1" d="M1166,1319.19v29.3h-3.5v-2.55h-13.3v15.6h-3.45v-15.6h-13.4v2.75H1129v-29.5Zm-33.65,3.2V1331h13.4v-8.65Zm13.4,20.35v-8.5h-13.4v8.5Zm16.75-20.35h-13.3V1331h13.3Zm0,20.35v-8.5h-13.3v8.5Z"/><path class="cls-1" d="M1168.25,1381.09v9.3h-3.15V1384h-35.4v6.4h-3v-9.3h6.95v-12.95h27.7v12.95Zm-6.45,26.6c0,1.85-.45,2.7-1.85,3.2s-3.9.5-7.7.45a8.57,8.57,0,0,0-1.1-2.75c3,.05,5.65.05,6.4.05s1-.25,1-1v-6.2c-7.3,1.45-14.85,3-20.45,4l-1.1-3c5.4-.8,13.6-2.3,21.55-3.75V1390h-22.2v5.3c0,4.85-.65,11.55-4.35,16.2a13.29,13.29,0,0,0-2.7-2c3.45-4.25,3.85-10,3.85-14.25v-8h28.6Zm-25-26.6h7.45v-6.9H1158v-3.35h-21.2Zm2.45,11.7a75.14,75.14,0,0,1,17.7,3l-.9,2.6c-4-1.5-11.7-2.9-17.7-3.35Zm18.75-16.3h-10.75v4.6H1158Z"/><path class="cls-1" d="M1162,1428.09a51.83,51.83,0,0,1-12,19.6,49.94,49.94,0,0,0,20.5,10.5,16.79,16.79,0,0,0-2.25,3,50.92,50.92,0,0,1-20.75-11.1c-5.65,5-12.55,8.6-21,11.3a15.53,15.53,0,0,0-2-3.05c8.35-2.45,15.1-5.9,20.6-10.6a57.05,57.05,0,0,1-12.2-19.65h-7.75v-3.25h44.75v3.25Zm-25.75,0a52.13,52.13,0,0,0,11.3,17.3,47.46,47.46,0,0,0,10.7-17.3Zm11.25-3.55a38.13,38.13,0,0,0-3.8-7.8l3.4-1a39,39,0,0,1,4,7.65Z"/></svg>