<svg id="Layer_1" data-name="Layer 1" xmlns="http://www.w3.org/2000/svg" viewBox="0 0 1242 2208"><defs><style>.cls-1{fill:#f6eabe;}.cls-2{fill:#999;}.cls-3{fill:none;stroke:#000;stroke-linecap:round;stroke-miterlimit:10;stroke-width:58px;}</style></defs><rect class="cls-1" width="1242" height="2208"/><path d="M907.69,560.46C837.82,512.82,698.08,440.57,589.3,389.75V816.13h-58V96h58V364.35l17.47-23c108,46.05,258.05,119.89,334.27,168.33Z"/><path d="M346.92,1815.69a98.85,98.85,0,0,1-6.18,13.56v39.59H336.9v-33.35a61.73,61.73,0,0,1-5.46,7,32.86,32.86,0,0,0-2.28-3.9c5.58-5.87,10.8-14.87,14-24Zm34.14,28c-2.1,1.26-4.44,2.64-6.84,3.78,2,6.06,5.82,11.82,10.38,14.52a11.2,11.2,0,0,0-2.64,2.94c-4.62-3.18-8.46-9.42-10.68-16a27.45,27.45,0,0,1-2.76,1.2c2.58,6.84,1.86,14-1,16.68a6.91,6.91,0,0,1-5.22,1.92c-1.08,0-2.4-.06-3.78-.18a9.31,9.31,0,0,0-1-3.42,38.26,38.26,0,0,0,4.14.24,3.66,3.66,0,0,0,3.12-1.14c1.56-1.38,2.22-5.16,1.44-9.36-5.16,4.92-13.08,9.36-19.8,11.7a15.8,15.8,0,0,0-2.34-2.82c7.62-2.28,16.62-7.14,21.3-12.24a35.76,35.76,0,0,0-1.5-3.48,63.52,63.52,0,0,1-17.22,9.9,16.14,16.14,0,0,0-2.22-2.64c5.94-1.8,13.74-5.76,17.88-9.54a16.39,16.39,0,0,0-2.94-3.18,58.44,58.44,0,0,1-13.56,7.26,11.26,11.26,0,0,0-2.22-2.58,52.7,52.7,0,0,0,15.06-7.55H348.48v-9.36c-1.14,1-2.28,2-3.54,2.94a9.37,9.37,0,0,0-2.52-2.58,44.69,44.69,0,0,0,13.86-16.26l3.84.72c-.6,1.2-1.32,2.34-2,3.54h11.1l.72-.18,2.34,1.68a52.13,52.13,0,0,1-4.8,6.84h13.08v12.66H362.94c-.36.36-.78.66-1.2,1a21,21,0,0,1,5.64,6.84,110,110,0,0,0,10.92-6.42ZM356,1821.81a54.58,54.58,0,0,1-4.2,5.16h11.58a37.88,37.88,0,0,0,3.72-5.16Zm-3.9,14.69h10.5v-6.42h-10.5Zm24.72-6.42H366.18v6.42H376.8Z"/><path d="M418,1829.54v12.18h19.32v27h-4.08V1865h-32.7v4h-3.9v-27.24h17.28v-27.35H418v11.4H442.2v3.77Zm15.24,15.9h-32.7v15.78h32.7Z"/><path d="M498.06,1849.58c-5.28-3.6-15.84-9.06-24.06-12.9v32.22h-4.38v-54.41H474v20.27l1.32-1.73c8.16,3.47,19.5,9,25.26,12.72Z"/><path d="M559.92,1863.32c0,2.76-.78,4-2.64,4.68s-5.46.72-11.1.66a12.92,12.92,0,0,0-1.38-3.84c4.32.18,8.4.12,9.6.06s1.56-.42,1.56-1.56v-12.78H539.22v17.94h-4v-17.94H519.78c-.9,6.72-2.88,13.56-7.56,18.78a11.58,11.58,0,0,0-3-2.64c6.6-7.44,7.26-18,7.26-26.46v-21.59h43.44Zm-24.66-16.56v-10.5H520.38v4c0,2.11-.06,4.26-.24,6.54Zm-14.88-24.35v10.13h14.88v-10.13Zm35.58,0H539.22v10.13H556Zm0,24.35v-10.5H539.22v10.5Z"/><path d="M586,1815c-1,2.94-2.1,6.3-3.18,8.88H593v38.75h-16.8v4.8h-3.66v-43.55h6.66a64.68,64.68,0,0,0,2.58-9.72Zm3.3,12.47H576.18v13.08h13.14Zm0,31.56v-14.88H576.18v14.88Zm33.06-33.17c-1,27.53-1.8,36.71-4.2,39.59a5.6,5.6,0,0,1-4.56,2.28,74.94,74.94,0,0,1-8.82-.12,9.42,9.42,0,0,0-1.32-3.9c3.9.36,7.5.36,8.82.36s1.92-.12,2.52-.9c2-2.1,2.94-11.34,3.72-35.7H602.82a55.33,55.33,0,0,1-5.64,10.68,36.22,36.22,0,0,0-3.36-2.22c4.08-5.33,7.32-13.61,9.18-21.89l3.84.84c-.78,3-1.62,6-2.64,8.88h18.18Zm-12.78,27a106.51,106.51,0,0,0-9.3-13.92l3.06-1.79a102.47,102.47,0,0,1,9.6,13.61Z"/><path d="M676.92,1865.54c3.18,0,3.84-1,4.2-5.22a9.85,9.85,0,0,0,3.3,1.2c-.6,5.46-1.74,7.14-7.38,7.14H659.7c-6.84,0-8.88-1.38-8.88-7v-2.28h-4.5v4.8H634v-2.34h9.24v-2.7H631.08v-2.4H643.2v-2.64H634v-2.4h12.36v4.74h4.5V1844h-4.5v4.68H634v-2.34h9.24v-2.63H631.26v-2.41H643.2v-2.51H634v-2.41h12.36v4.68h4.5v-7.14H637v-6.84a43.31,43.31,0,0,1-4.08,2.41,10.15,10.15,0,0,0-2.58-2.52c7.38-3.72,13-8.64,16-12.9l3.84.78c-.54.78-1.14,1.5-1.8,2.28h14.22l.6-.18,2.34,1.56a38.84,38.84,0,0,1-3.9,5.16h16.44v10.25H663.18v7.14H680v18.36H654.3v2.34c0,3,.78,3.78,5.34,3.78Zm-26.1-34.25v-4.92H640.74v4.92ZM646,1819.77a45.07,45.07,0,0,1-4.26,3.9h16a28,28,0,0,0,3-3.9Zm8.34,21.29h5.34v-14.69H654.3Zm0,15.42h5.34V1844H654.3Zm20-30.11H663.18v4.92h11.16ZM663.18,1844v12.48h2.34a8.92,8.92,0,0,0-1.68-1.38,32.07,32.07,0,0,0,4.8-4.68c-1.38-1.08-2.76-2-4.08-2.88l1.68-1.74c1.26.78,2.64,1.68,3.9,2.64a30,30,0,0,0,2.46-4.14l2.52.66a41,41,0,0,1-2.94,4.92,29.89,29.89,0,0,1,3.66,3.48l-1.8,1.92a31.73,31.73,0,0,0-3.48-3.36,34.71,34.71,0,0,1-4.26,4.56h10.5V1844Z"/><path d="M739.26,1818.21v35.15h-4.2v-3.06h-16V1869H715V1850.3H698.88v3.3h-4v-35.39Zm-40.38,3.84v10.37H715v-10.37ZM715,1846.46v-10.2H698.88v10.2Zm20.1-24.41h-16v10.37h16Zm0,24.41v-10.2h-16v10.2Z"/><path d="M781.08,1851.08H749.64V1848h31.44Zm-17.4-24.17H751.86v-10.74h11.82Zm-11.34,2.34h25.92v16.07H752.34Zm41.16,5.4c1.68,13.55,4.92,25.19,11.4,31.19a16.61,16.61,0,0,0-2.88,3.24c-5.52-5.64-8.7-14.82-10.62-26-1.2,8.76-4.14,18.24-11,25.86a17.51,17.51,0,0,0-2.88-2.58v1.32h-3.84V1866h-16.5v2.82h-3.66v-15h24v12.24c8.76-9.24,10.44-21.6,10.8-31.43H779.1v-3.73h9.24v-16.43h3.84v16.43h11.7v3.73Zm-32.94-15.78h-5.64v5.4h5.64Zm-4.62,17h7.44V1832h-7.44Zm0,6.65h7.44v-4h-7.44Zm17.7,20.4v-6.06h-16.5V1863Zm5-36H766.44v-10.74h12.24Zm-4.14,5.09h-7.86v3.91h7.86Zm0,6.6h-7.86v4h7.86Zm1-19.73h-6v5.4h6Zm24.72,8.58a40.78,40.78,0,0,0-5.7-9.72l3.12-1.32a38.37,38.37,0,0,1,5.88,9.6Z"/><path d="M862,1832.49v11.15h-3.78V1836H815.7v7.68H812v-11.15h8.34V1817h33.24v15.54Zm-7.74,31.91c0,2.22-.54,3.24-2.22,3.84s-4.68.6-9.24.54a10.29,10.29,0,0,0-1.32-3.3c3.6.06,6.78.06,7.68.06s1.26-.3,1.26-1.14V1857c-8.76,1.74-17.82,3.54-24.54,4.8l-1.32-3.6c6.48-1,16.32-2.76,25.86-4.5v-10.44H823.74v6.36c0,5.82-.78,13.86-5.22,19.44a16,16,0,0,0-3.24-2.34c4.14-5.1,4.62-12,4.62-17.1v-9.66h34.32Zm-30-31.91h8.94v-8.28h16.5v-4H824.22Zm2.94,14c7.08.36,16.26,1.92,21.24,3.66l-1.08,3.12c-4.86-1.8-14-3.48-21.24-4Zm22.5-19.55h-12.9v5.52h12.9Z"/><path d="M923.76,1862.18v4H870.3v-4h22.62v-46.85h4.14v18.54h22.62v4H897.06v24.3Z"/><path d="M396.9,1888.83v52.07h-3.84V1938H350.94v2.94h-3.72v-52.07Zm-3.84,45.65v-42H350.94v42Zm-19.68-25.56c-.18,1.08-.36,2.1-.6,3.12,6.3,5.46,13.2,12.72,16.5,17.52l-2.88,2.4c-2.94-4.44-8.88-11-14.52-16.32-2.28,7.26-6.42,13.08-14.58,16.86a10.68,10.68,0,0,0-2.52-3.12c9.54-4.2,13.2-11.46,14.7-20.46H354.6v-3.66H370c.36-3.18.54-6.59.66-10.13h3.9c-.18,3.54-.36,6.9-.72,10.13H389.4v3.66Z"/><path d="M408.66,1913.48c-.72-4-2.52-10.67-4.08-15.71l2.76-1.08a130,130,0,0,1,4.2,15.35Zm12.54,20c-1.2-2-4-5.88-6.3-8.76a36.62,36.62,0,0,1-7.38,16.32,12.22,12.22,0,0,0-2.7-2.58c7.14-8.88,7.92-20.22,7.92-31.13V1887h3.54v20.4a96.5,96.5,0,0,1-.72,13.25c2.1,2.34,7.08,8.52,8.22,10.08Zm3.54-37.49c-1.56,4.44-3.36,10-5,13.38l-2.52-1a98.11,98.11,0,0,0,4-13.5Zm29.94,41.15c1.38,0,1.68-.78,1.86-6.3a10.65,10.65,0,0,0,3.24,1.44c-.36,6.48-1.38,8.1-4.68,8.1h-6.24c-4.14,0-5.16-1-5.16-4.74v-10.14H437c-1,8.22-4,12.9-13.8,15.48A9.73,9.73,0,0,0,421,1938c8.82-2.1,11.46-5.7,12.3-12.42h-9.78v-3.36h35.76v3.36H447.42v10.14c0,1.32.3,1.5,1.86,1.5ZM423.42,1917c2-.18,4.38-.48,7-.78V1911H425.1v-2.94h5.28v-4.31h3.48v4.31H439V1911h-5.1v4.69l5.52-.73.06,2.88c-5.46.84-10.92,1.62-15.36,2.22Zm35.22-14.51H425v-3.12h14.28v-4.68H428.16v-3.12h11.16v-5.16h3.84v5.16h12.36v3.12H443.16v4.68h15.48Zm-11,13.49V1911h-5.4v-2.94h5.4v-4.25h3.42v4.25h6V1911h-6v4.92h7.62v2.94H440.58v-2.94Z"/><path d="M478.56,1906.83a90.75,90.75,0,0,1-.78,12.77c2.58,2.7,9.24,10.56,10.8,12.6l-2.88,3.12c-1.74-2.64-5.76-7.8-8.82-11.4a32.39,32.39,0,0,1-9.6,16.62,12.37,12.37,0,0,0-2.88-3c9.18-8.52,10.26-19.86,10.26-30.71V1887h3.9Zm-10.68,7.25a157.39,157.39,0,0,0-3.42-16.73l3.12-.72a150.91,150.91,0,0,1,3.6,16.37Zm20.46-16.43c-1.92,4.14-4.26,9.18-6.18,12.35l-2.58-1.32a87.53,87.53,0,0,0,5.28-12.59Zm29.76,1.74c-1.08,27.17-2,36.29-4.44,39.23a5.52,5.52,0,0,1-4.56,2.28c-2,.12-5.4.06-8.76-.12a9,9,0,0,0-1.26-4c3.72.3,7.2.36,8.58.36a2.68,2.68,0,0,0,2.46-1c2-2.1,3.06-11.22,4-35.22H495.9a46.33,46.33,0,0,1-5.94,10.14,25.81,25.81,0,0,0-3.42-2.46c4.56-5.34,8-13.67,10-22.37l4,.72a87.85,87.85,0,0,1-3.12,10.2H518.1Zm-14.76,24.89c-2.16-3.54-7-9-11.1-12.83l2.88-2.23c4.08,3.78,9.06,9.06,11.28,12.6Z"/><path d="M553.68,1893.69c-.84,3.12-1.8,6.42-2.7,9.06h24.66v32.93c0,2.46-.54,3.6-2.22,4.26s-4.8.72-9.12.72a12.47,12.47,0,0,0-1.38-3.78c3.54.12,6.6.06,7.5,0s1.2-.3,1.2-1.2v-29.22H560.94V1939h-4v-32.58H546.54V1939h-3.9v-32.58h-10V1941h-4v-38.27h18.24c.84-2.71,1.56-6.12,2.16-9.06H525.48v-4h53.34v4Z"/><path d="M593.52,1910.25v9.65c0,6.66-1,15.6-6.36,21.66a11.38,11.38,0,0,0-3-2.58c4.92-5.52,5.52-13.2,5.52-19.14v-13h7.44a13.53,13.53,0,0,0-2-2.09c4.86-1,10.38-2.22,15.66-3.72-4.68-1.44-9.48-2.64-13.8-3.66l2.52-2.1H590V1892h22.38a54.14,54.14,0,0,0-3.42-4.62l2.88-1.5a43.11,43.11,0,0,1,4.62,6.12h20.1v3.36h-9.18l2.22,1.38a74.69,74.69,0,0,1-9.48,4.14c4.56,1.44,8.7,2.75,11.88,4l-2.16,2.09h8.58v3.37Zm45.84,25.31V1939H594.72v-3.42h19.92V1929H600.42v-3.3h14.22V1920h-13a40.47,40.47,0,0,1-5.64,7.38,17.93,17.93,0,0,0-2.22-3.18,34.33,34.33,0,0,0,8-12.78l3.48,1c-.54,1.5-1.2,2.88-1.86,4.33h11.16v-5.34h3.9v5.34H635V1920H618.54v5.76h15.18v3.3H618.54v6.54Zm-10.74-28.68c-3.54-1.38-8.16-2.88-13.14-4.43-5.46,1.8-11.34,3.24-16.5,4.43Zm-28.56-11.57c4.86,1.2,10.32,2.64,15.66,4.26a74.94,74.94,0,0,0,10.2-4.26Z"/><path d="M698.7,1935.2v3.9H645.48v-3.9H670v-15.84H652v-3.84H670V1902H655.56a48.79,48.79,0,0,1-6.36,10,27.84,27.84,0,0,0-3.6-2.41c5-5.33,8.82-13.61,11.16-22.19l4,.84a86.44,86.44,0,0,1-3.42,9.84H670v-11.7h4.14v11.7h21.72V1902H674.16v13.56h19.56v3.84H674.16v15.84Z"/><path d="M721,1887c-1,2.94-2.1,6.3-3.18,8.88H728v38.75h-16.8v4.8h-3.66v-43.55h6.66a64.68,64.68,0,0,0,2.58-9.72Zm3.3,12.47H711.18v13.08h13.14Zm0,31.56v-14.88H711.18v14.88Zm33.06-33.17c-1,27.53-1.8,36.71-4.2,39.59a5.6,5.6,0,0,1-4.56,2.28,74.94,74.94,0,0,1-8.82-.12,9.42,9.42,0,0,0-1.32-3.9c3.9.36,7.5.36,8.82.36s1.92-.12,2.52-.9c2-2.1,2.94-11.34,3.72-35.7H737.82a55.33,55.33,0,0,1-5.64,10.68,36.22,36.22,0,0,0-3.36-2.22c4.08-5.33,7.32-13.61,9.18-21.89l3.84.84c-.78,3-1.62,6-2.64,8.88h18.18Zm-12.78,27a106.51,106.51,0,0,0-9.3-13.92l3.06-1.79a102.47,102.47,0,0,1,9.6,13.61Z"/><path d="M815.28,1923.56a110.44,110.44,0,0,1-11.22,6.66,39.76,39.76,0,0,0,15.12,6.9,12.93,12.93,0,0,0-2.28,3.3c-11.58-3.06-20.4-10.14-25.26-20.22h-.06a43.53,43.53,0,0,1-9.18,6.42v9.3l15.78-2.82a19.81,19.81,0,0,0-.06,3.24c-16.68,3.36-18.6,3.84-19.92,4.56a13.28,13.28,0,0,0-1.44-3.24c.78-.42,1.8-1.2,1.8-3.42v-5.76a70,70,0,0,1-11.58,4,18.39,18.39,0,0,0-2.34-3c7.8-1.68,16.38-5.1,22.08-9.3H765.36v-3.48h26.22a33.47,33.47,0,0,0-3.78-5.51l3.66-1.21a34.7,34.7,0,0,1,4.2,6l-2,.72h25v3.48H795.42a29.58,29.58,0,0,0,6.12,7.86,82.25,82.25,0,0,0,10.68-6.72Zm-21.36-27.41c-4.2,11.15-14.58,16.91-25.74,19.49a13.9,13.9,0,0,0-2-3,41.74,41.74,0,0,0,13-4.73,60,60,0,0,0-7.44-6.24c-1.32.83-2.64,1.56-4,2.28a35.63,35.63,0,0,0-2.7-2.46,30.79,30.79,0,0,0,13-10.14H767.16v-3.12h29v3.12h-14a26.17,26.17,0,0,1-2.88,3.9h11.64l.78-.12Zm-17.76,2.16c-.6.54-1.26,1-1.86,1.56a50.06,50.06,0,0,1,7.74,6.24,25.6,25.6,0,0,0,7-7.8Zm28,9.23h-3.66v-18h3.66Zm12.06,2.46c0,2.29-.54,3.3-2.16,3.91s-4.44.59-8.64.59A15.7,15.7,0,0,0,804,1911c3.48.12,6.48.12,7.32.06s1.14-.3,1.14-1v-23.45h3.78Z"/><path d="M830.34,1925.06a76.31,76.31,0,0,1-3.06,14.4,13.58,13.58,0,0,0-2.88-1,64.62,64.62,0,0,0,2.94-13.92Zm10.92-3.12c-.18-1-.48-2.1-.78-3.42-11.82,2.28-13.5,2.64-14.46,3.24a29.7,29.7,0,0,0-1.2-3.42c1.14-.24,2.34-1.74,4-4a59.29,59.29,0,0,0,4.8-7.38c-5.94.77-7.08,1.08-7.86,1.5a24.67,24.67,0,0,0-1.2-3.54c.9-.24,1.86-1.45,2.88-3.24a82.11,82.11,0,0,0,6.78-15.24l3.48,1.38a89.81,89.81,0,0,1-8.1,16.5l5.94-.6a87.33,87.33,0,0,0,3.78-7.92l3.3,1.68a118.67,118.67,0,0,1-12.12,19.74l9.18-1.57c-.6-1.92-1.26-4-1.92-5.64l2.82-.78a78.5,78.5,0,0,1,3.72,11.76Zm-5.46,2.58c.66,4,1.38,9.18,1.56,12.6l-2.82.66c-.18-3.42-.84-8.7-1.5-12.72Zm5.52-1.68a81.1,81.1,0,0,1,3.12,10l-2.76.9a83.14,83.14,0,0,0-2.94-10.08Zm13.68-7.62a64.21,64.21,0,0,1-2.94,13.38c2.94,6.9,8.34,8.22,16.2,8.22,3.54,0,8.28-.18,11.7-.54a10.86,10.86,0,0,0-1.08,3.6c-3.06.18-7.26.3-10.74.3-8.52,0-14-1.5-17.58-7.92a26.27,26.27,0,0,1-6.18,8.7,10.27,10.27,0,0,0-2.34-2.7c4.5-3.9,7.68-10.8,9.18-20.16h-2.88a6.19,6.19,0,0,0-3.24.84,17.4,17.4,0,0,0-1.5-3.42,3.83,3.83,0,0,0,2.4-1.73,102.9,102.9,0,0,0,4.44-10.21h-6.78V1900h8.28l.72-.35,2.64.78c-1.5,3.36-4.26,10.07-6.36,14.21h3.78l.66-.12Zm-5.16-18a74.69,74.69,0,0,0-5.16-9.36l3-1.08a61.4,61.4,0,0,1,5.22,9.06Zm26.82,14a58.41,58.41,0,0,0-8.34-7.08,38.93,38.93,0,0,1-12.6,7.13,10.21,10.21,0,0,0-1.92-2.63,37,37,0,0,0,11.88-6.36,65.38,65.38,0,0,0-6.36-4,30.15,30.15,0,0,1-2.94,2.58,18.39,18.39,0,0,0-2.52-2.34,29.53,29.53,0,0,0,10.08-12.36l3.18.84a31.36,31.36,0,0,1-2.22,4.2h9.48l.54-.18,2.16,1a31.42,31.42,0,0,1-6.24,9.72,76.45,76.45,0,0,1,8.4,7.08Zm-11,23.21V1929H855.48V1926h10.14v-4.08H858v-2.88h7.62v-3.77H856.8v-3h8.82v-3.54h3.24v3.54h8.34v3h-8.34v3.77h7.26v2.88h-7.26V1926h9.72V1929h-9.72v5.46Zm-2.7-40.25q-.72,1-1.44,1.8a72.9,72.9,0,0,1,6.66,4.07,25.86,25.86,0,0,0,4.44-5.87Z"/><path d="M890.88,1922c4.68-2,7.26-4.86,7.56-9.17a4,4,0,0,1-1.14.11c-2.34,0-4.26-1.31-4.26-4.07a4,4,0,0,1,4.32-4.08c3.18,0,4.86,2.58,4.86,6.66,0,6.41-4,11.21-10.08,13.43Z"/><path d="M404.1,1973.13v13.31h18.12v26.4H418v-3H386.1v3.24H382v-26.64H399.9v-13.31H375.48v-3.9H399.9v-10.92h4.2v10.92h24.6v3.9ZM418,1990.22H386.1V2006H418Z"/><path d="M464.28,1958.55c-.06,2.1-.12,5.1-.42,8.64.9,7,4.56,32.51,25.74,42a12.63,12.63,0,0,0-2.88,3.36c-15.42-7.26-21.72-22.74-24.6-34-2.64,12.23-8.94,26.33-24.06,34.19a13.77,13.77,0,0,0-3.12-3.06c25-12.48,24.78-42.11,25-51.11Z"/><path d="M544.92,2007.32c0,2.76-.78,4-2.64,4.68s-5.46.72-11.1.66a12.92,12.92,0,0,0-1.38-3.84c4.32.18,8.4.12,9.6.06s1.56-.42,1.56-1.56v-12.78H524.22v17.94h-4v-17.94H504.78c-.9,6.72-2.88,13.56-7.56,18.78a11.58,11.58,0,0,0-3-2.64c6.6-7.44,7.26-18,7.26-26.46v-21.59h43.44Zm-24.66-16.56v-10.5H505.38v4c0,2.11-.06,4.26-.24,6.54Zm-14.88-24.35v10.13h14.88v-10.13Zm35.58,0H524.22v10.13H541Zm0,24.35v-10.5H524.22v10.5Z"/><path d="M580,1995.8c-8.34,3.84-17.52,7.86-24.06,10.74l-1.44-4.08c2.34-.9,5.16-2.1,8.28-3.42l-1-37.55,4-.12.9,36c4-1.74,8.22-3.6,12.36-5.46Zm26.64,17c-2.82-4.2-8.58-10.68-13.8-16.14-4.68,7.2-11.4,12.54-21,16.5a31.65,31.65,0,0,0-3.12-3.42c20.88-7.56,27.24-22.14,29.94-48.35l4.32.42c-1.44,13-3.78,23.21-8,31.31,5.46,5.4,11.88,12.24,15.06,16.56Zm-23.22-30.6c-1.56-4.14-5.46-10.25-9.24-14.63l3.42-1.74a56.51,56.51,0,0,1,9.54,14.27Z"/><path d="M631.68,1992.8a89.7,89.7,0,0,0,3.6-9h-6.84v24.41c0,2.22-.48,3.36-2.16,4s-4.14.66-8.28.66a14.34,14.34,0,0,0-1.26-3.72c3.18.06,5.94.06,6.72,0s1.14-.24,1.14-1v-24.35h-10v-3.6h15.6a63.69,63.69,0,0,0-12.54-8.88l2.16-2.64c2,1,4.14,2.34,6.18,3.66a50.71,50.71,0,0,0,6.36-7.44h-16.5v-3.54h19.08l.78-.24,2.52,1.74a59.93,59.93,0,0,1-9.42,11.46,36.65,36.65,0,0,1,4.86,4.14l-1.32,1.74h4.56l.6-.12,2.46.72a128.09,128.09,0,0,1-5.22,12.83Zm19,12.24a43.2,43.2,0,0,1-13.62,8.1,22.4,22.4,0,0,0-2.64-2.7c4.74-1.68,10.2-4.74,12.72-7.44Zm-.42-34.31c.48-1.86,1-4.08,1.32-6H638.76v-3.54H669v3.54H655.92c-.6,2-1.2,4.2-1.8,6H667v31H641.1v-31Zm12.9,3.12h-18.3V1980h18.3Zm0,9.17h-18.3v6.19h18.3Zm0,9.24h-18.3v6.3h18.3Zm-3.66,11a63.29,63.29,0,0,1,10.74,7.5l-3.18,2.34a64.33,64.33,0,0,0-10.56-7.8Z"/><path d="M676.8,1975a39.33,39.33,0,0,1,9.9,5.58l-2.22,3.23a44.48,44.48,0,0,0-9.9-5.93Zm7.38,16,3.18,2.1c-2.22,6.24-5.34,13.62-8,19.08l-3.54-2.16A181.62,181.62,0,0,0,684.18,1991Zm-4.68-32a39.78,39.78,0,0,1,9.48,6.12l-2.4,3.18a38,38,0,0,0-9.42-6.48Zm17.76,41.69a44.57,44.57,0,0,1-8.7,12.42,34.29,34.29,0,0,0-3.24-2.28,32.51,32.51,0,0,0,8.22-11.1Zm10.86-39.65v37.31H690.9v-37.31Zm-13.74,11.28h10.14v-7.74H694.38Zm0,11.21h10.14v-7.85H694.38Zm0,11.28h10.14v-7.92H694.38Zm10.14,4.74a71.51,71.51,0,0,1,7,9.24l-3.12,2a72.68,72.68,0,0,0-6.84-9.6Zm11.94-35v34h-3.54v-34Zm10.56-6.18v49.49c0,2.58-.6,3.72-2.22,4.38s-4.44.72-9.36.72a17.12,17.12,0,0,0-1.2-3.78c3.66.12,6.84.12,7.74.06,1.08-.06,1.44-.36,1.44-1.38v-49.49Z"/><path d="M764,1970.67v9.24h21v3.84H739.62v-3.84h20.22v-9.24H736V1967h23.88v-8.64H764V1967h23.94v3.72Zm-20.88,20.15h38.4v22.8h-4.26v-3H747.12v3h-4Zm4,3.6v12.48h30.12v-12.48Z"/><path d="M846.48,1969.89V2012H842.4v-2H797.58v-40.07h4v36.23h40.8v-36.23Zm-11.1,31.31a120.48,120.48,0,0,0-11.82-14.82,85.09,85.09,0,0,1-17.22,16.08,44.08,44.08,0,0,0-3.48-2.76,75.4,75.4,0,0,0,18.06-16.2c-5.4-5.75-11.34-11.57-16.86-16.43l2.64-2.52c5.4,4.74,11.28,10.26,16.68,15.83a99.14,99.14,0,0,0,10.74-18.29l3.9,1.26a111.06,111.06,0,0,1-11.94,19.86,120.13,120.13,0,0,1,12.36,14.93Z"/><path d="M867.18,1976.67a9.06,9.06,0,1,1-9.06,9A9.09,9.09,0,0,1,867.18,1976.67Zm0,15.23a6.18,6.18,0,1,0,0-12.36,6.18,6.18,0,1,0,0,12.36Z"/><path d="M498.9,2047.17c4.44,10.31,12.24,20,20.76,24.71a23.11,23.11,0,0,0-3.06,3.36c-9-5.58-16.92-16.32-21.6-28.07h-1v22.43h14.28v4H494V2085H489.9v-11.4H475.68v-4H489.9v-22.43h-1.08c-4.74,11.75-12.66,22.43-21.3,28.25a24.18,24.18,0,0,0-2.88-3.18c8-4.92,15.66-14.76,20.16-25.07H466.14v-4H489.9v-12.72H494v12.72h24v4Z"/><path d="M573.9,2069.54a33.64,33.64,0,0,1-8.22,7.38c2.4,2.82,5.22,4.44,8.16,4.38,1.68-.06,2.16-1.5,2.46-5.94a10.31,10.31,0,0,0,3.12,1.62c-.6,6.3-2.1,7.92-5.76,8-4.26,0-8.16-2.22-11.28-6a74.41,74.41,0,0,1-13.68,5.82,36.46,36.46,0,0,0-2.1-3.24,65.61,65.61,0,0,0,13.86-5.34,34.94,34.94,0,0,1-3.84-8.82H542.16v4.38l11.16-1-.06,2.88-11.1,1.08v6.12c0,2.1-.48,3.06-2.16,3.54s-4.38.54-8.94.54a19.42,19.42,0,0,0-1.26-3.18c3.36.12,6.48.06,7.38,0s1.2-.24,1.2-1v-5.7c-4.74.48-9.12.9-12.72,1.2l-.42-3.3c3.54-.24,8.1-.54,13.14-1v-4.68h-12.9v-3.18h12.9v-4.44c-3.78.42-7.68.72-11.28.91a12,12,0,0,0-.9-2.71c8.16-.48,18.18-1.55,23.52-2.94l2.52,2.58c-2.82.66-6.36,1.26-10.08,1.74v4.86h13.68a52.67,52.67,0,0,1-1.2-8.94h3.84a57.48,57.48,0,0,0,1.2,8.94h19v3.18H560.58a31.91,31.91,0,0,0,3.12,6.9,27.09,27.09,0,0,0,6.72-5.94Zm4.62-15.17h-53v-3.24H549.9V2047H531.3v-3.06h18.6v-4H528.06v-3.18h12.66a30,30,0,0,0-3.48-5.16l3.42-1.26a24.4,24.4,0,0,1,4.32,6.24l-.42.18H559.2a54.7,54.7,0,0,0,3.6-6.6l4.14,1.2c-1.2,1.86-2.52,3.84-3.72,5.4h12.84V2040H553.92v4h18.9V2047h-18.9v4.14h24.6Zm-5.7,9a34,34,0,0,0-9.48-5.52l2.16-2.46a38.32,38.32,0,0,1,9.66,5.22Z"/><path d="M614.46,2079.62a70.7,70.7,0,0,0,7.38.36c2.1.06,14.76,0,17.58-.06a16.36,16.36,0,0,0-1.44,3.84H621.72c-12.3,0-19.92-1.92-24.72-10.38a31.55,31.55,0,0,1-9.48,11.7,19.84,19.84,0,0,0-3.06-2.82c6.3-4.14,10.2-10.92,11.82-19.86l4,.6a55.92,55.92,0,0,1-1.5,6.06c2.34,5.64,6.3,8.52,11.7,9.84v-18.54H585.72v-3.6H638.4v3.6H614.46v7.08h20v3.6h-20Zm17.22-27.17h-39.6v-19.56h39.6Zm-4-16.44H596v5.16h31.68Zm0,8.1H596v5.27h31.68Z"/><path d="M673,2045.54v12.18h19.32v27h-4.08V2081h-32.7v4h-3.9v-27.24h17.28v-27.35H673v11.4H697.2v3.77Zm15.24,15.9h-32.7v15.78h32.7Z"/><path d="M753.06,2065.58c-5.28-3.6-15.84-9.06-24.06-12.9v32.22h-4.38v-54.41H729v20.27l1.32-1.73c8.16,3.47,19.5,9,25.26,12.72Z"/><path d="M777.18,2048.67a9.06,9.06,0,1,1-9.06,9A9.09,9.09,0,0,1,777.18,2048.67Zm0,15.23a6.18,6.18,0,1,0,0-12.36,6.18,6.18,0,1,0,0,12.36Z"/><rect class="cls-2" x="1113" y="401" width="65" height="126" rx="12"/><path class="cls-1" d="M1132.7,430.82c1.25,1.6,4.9,6.7,5.7,8.05l-2,2.45c-.7-1.5-2.35-4.4-3.75-6.65V461h-3.15V436.57c-1.5,5.05-3.5,9.9-5.55,12.85a14.83,14.83,0,0,0-1.75-3.1c2.9-4,5.8-11.5,7.2-18h-6.2v-3.15h6.3v-9.65h3.15v9.65h5.45v3.15h-5.45Zm19.1.7a19.47,19.47,0,0,0,.45,2.65c-10.15,2.7-11.6,3.15-12.5,3.75a12.13,12.13,0,0,0-1.1-3.2c.7-.2,1.55-.5,1.55-2.2v-16.7h3.25v6.5h8.35v2.9h-8.35v8.3Zm2.35,5.5-2,3.75h12.65V461h-3.4v-1.75h-17v2h-3.3V440.77h7.9c.55-1.5,1.2-3.25,1.55-4.6Zm7.3,6.5h-17v5.05h17Zm0,13v-5.3h-17v5.3Zm2.25-22.4c1.25,0,1.5-.75,1.65-5.25a9.16,9.16,0,0,0,2.85,1.25c-.3,5.45-1.2,6.95-4.15,6.95h-5.85c-3.65,0-4.55-.95-4.55-4.45V415.87h3.25v6.5h10.2v2.9h-10.2v7.35c0,1.3.25,1.5,1.65,1.5Z"/><path class="cls-1" d="M1167.55,490.87v2.5H1123.4v-2.5h20.25v-3.2H1126.8v-2.3h16.85v-3H1128.2v-2.25h15.45v-3.2H1123.5v-2.5h20.15v-3.05H1128.8V469h14.85v-3.55h3.25V469h14.45v5.4h6.15v2.5h-6.15v5.45H1146.9v3h17.3v2.3h-17.3v3.2Zm-37.75,5h31.75v15.25h-3.25v-1.6H1133v1.7h-3.2Zm3.2,2.4v3.2h25.3v-3.2Zm25.3,8.85v-3.4H1133v3.4Zm-11.4-32.7h11.15v-3.05H1146.9Zm0,5.7h11.15v-3.2H1146.9Z"/><rect class="cls-2" x="1113" y="1218" width="65" height="271" rx="12"/><path class="cls-1" d="M1158.05,1256.79a27.61,27.61,0,0,0,11.5,8.1,11.65,11.65,0,0,0-2.15,2.55,30.77,30.77,0,0,1-12.8-10.65h-15.95a34.39,34.39,0,0,1-13,11.3,11.43,11.43,0,0,0-2.15-2.55,30.39,30.39,0,0,0,11.6-8.75H1124v-2.85h10v-16.15h-7.7V1235h7.7v-5h3.3v5h18.55v-5h3.35v5h7.65v2.8h-7.65v16.15h9.8v2.85Zm-10,14.5h17.3v2.85H1127.8v-2.85h16.9v-5.6h-10.45v-2.8h10.45v-4.4h3.35v4.4h10.65v2.8h-10.65Zm-10.8-33.5v3.6h18.55v-3.6Zm0,9.8h18.55v-3.65h-18.55Zm0,6.35h18.55v-3.8h-18.55Z"/><path class="cls-1" d="M1142.25,1298.54s0,1.15,0,1.55c-.6,15.85-1.2,21.2-2.6,23a3.71,3.71,0,0,1-2.8,1.45,32.65,32.65,0,0,1-4.45,0,9.25,9.25,0,0,0-.85-3c1.75.15,3.2.15,3.9.15a1.42,1.42,0,0,0,1.45-.65c1-1.2,1.6-6,2.15-19.35h-6.8c-.55,10-2,18.25-6.45,23.65a9.53,9.53,0,0,0-2.55-2.35c5.45-6.45,5.9-17.85,6.1-31.55h-5.2v-3.1h20.1v3.1h-11.65c0,2.45-.1,4.85-.2,7.15Zm-7.9-10.45a33.47,33.47,0,0,0-4.25-7.15l2.9-1.15a31.92,31.92,0,0,1,4.4,7Zm23.85-7.45a15.26,15.26,0,0,1-.85,2.55c2.65,5.45,7.7,11.35,12.45,14a13,13,0,0,0-2.45,2.75c-4.25-2.7-8.5-8-11.4-13.3a32.61,32.61,0,0,1-11,13.6,12.79,12.79,0,0,0-2.35-2.65c5.85-3.6,10.35-10.2,12.5-17.85Zm-8.3,32.45a74,74,0,0,1,13.6,8.25l-2.25,2.9c-2.85-2.6-8.75-6.3-13.4-8.65Zm9.5-4.85a66.22,66.22,0,0,0-8.6-6.85l2.15-2.2a67.46,67.46,0,0,1,8.75,6.55Z"/><path class="cls-1" d="M1165,1333.19v29.3h-3.5v-2.55h-13.3v15.6h-3.45v-15.6h-13.4v2.75H1128v-29.5Zm-33.65,3.2V1345h13.4v-8.65Zm13.4,20.35v-8.5h-13.4v8.5Zm16.75-20.35h-13.3V1345h13.3Zm0,20.35v-8.5h-13.3v8.5Z"/><path class="cls-1" d="M1167.25,1395.09v9.3h-3.15V1398h-35.4v6.4h-3v-9.3h6.95v-12.95h27.7v12.95Zm-6.45,26.6c0,1.85-.45,2.7-1.85,3.2s-3.9.5-7.7.45a8.57,8.57,0,0,0-1.1-2.75c3,.05,5.65.05,6.4.05s1-.25,1-1v-6.2c-7.3,1.45-14.85,3-20.45,4l-1.1-3c5.4-.8,13.6-2.3,21.55-3.75V1404h-22.2v5.3c0,4.85-.65,11.55-4.35,16.2a13.29,13.29,0,0,0-2.7-2c3.45-4.25,3.85-10,3.85-14.25v-8h28.6Zm-25-26.6h7.45v-6.9H1157v-3.35h-21.2Zm2.45,11.7a75.14,75.14,0,0,1,17.7,3l-.9,2.6c-4-1.5-11.7-2.9-17.7-3.35Zm18.75-16.3h-10.75v4.6H1157Z"/><path class="cls-1" d="M1161,1442.09a51.83,51.83,0,0,1-12,19.6,49.94,49.94,0,0,0,20.5,10.5,16.79,16.79,0,0,0-2.25,3,50.92,50.92,0,0,1-20.75-11.1c-5.65,5-12.55,8.6-21,11.3a15.53,15.53,0,0,0-2-3.05c8.35-2.45,15.1-5.9,20.6-10.6a57.05,57.05,0,0,1-12.2-19.65h-7.75v-3.25h44.75v3.25Zm-25.75,0a52.13,52.13,0,0,0,11.3,17.3,47.46,47.46,0,0,0,10.7-17.3Zm11.25-3.55a38.13,38.13,0,0,0-3.8-7.8l3.4-1a39,39,0,0,1,4,7.65Z"/><line class="cls-3" x1="561" y1="1001" x2="561" y2="1670"/><line class="cls-3" x1="576.98" y1="1232.3" x2="853.02" y2="1377.7"/></svg>