<svg id="Layer_1" data-name="Layer 1" xmlns="http://www.w3.org/2000/svg" viewBox="0 0 1242 2208"><defs><style>.cls-1{fill:#f6eabe;}.cls-2{fill:#999;}.cls-3,.cls-4{fill:#666;}.cls-3{stroke:#666;stroke-miterlimit:10;}</style></defs><rect class="cls-1" width="1242" height="2208"/><rect class="cls-2" x="1113.23" y="1172" width="65" height="219" rx="12"/><rect class="cls-2" x="1113.23" y="417" width="65" height="126" rx="12"/><path d="M899.93,178.64c-46.06,181.83-131,321.57-239,427.17,87.34,77.81,196.12,136.57,327.92,169.12-11.91,10.32-27,32.55-34.93,46.84-135-36.52-244.55-96.86-333.48-179.44C522.78,725.7,410,783.66,290.14,822.57c-4.76-12.71-20.64-37.32-32.55-46.85,119.1-36.52,231.05-91.31,325.53-169.91-97.66-102.43-167.53-234.23-216-388.26H303.64V165.14H855.46L865.78,162ZM419.56,217.55C464,354.91,530.72,474.8,622.82,570.08c94.49-89.72,168.33-205.64,212.79-352.53Z"/><path d="M280.41,1837.17c-2.58,1.43-5.7,3-8.7,4.37,2.46,5.52,7.32,11.88,14.52,14.94a18.12,18.12,0,0,0-2.64,3.36c-7.5-3.66-12.54-11-15.06-16.86-1.2.54-2.4,1-3.48,1.38,4,7,3.12,13.86-1.14,16.62a9.52,9.52,0,0,1-6.12,1.74c-1.38,0-3.18-.06-5.1-.12a9.28,9.28,0,0,0-1.14-3.66,50.42,50.42,0,0,0,5.58.24,6.85,6.85,0,0,0,4.26-1c2.52-1.68,3.24-6,1.08-10.8-6.84,5.28-17.88,10.08-26.76,12.42a14.51,14.51,0,0,0-2.28-3.06c9.48-2.1,21.24-7,27.54-12.12a25.51,25.51,0,0,0-2.34-3c-5.82,3.9-14.88,7.32-21.9,9.06a15.75,15.75,0,0,0-2.34-2.94c7.38-1.44,16.62-4.68,22.08-8.16a31.09,31.09,0,0,0-3.66-2.88,94,94,0,0,1-15.42,5.64,14.31,14.31,0,0,0-2.28-2.76,84.06,84.06,0,0,0,17.76-5.93H239v-9.84c-1.2.84-2.4,1.55-3.72,2.34a14.11,14.11,0,0,0-2.64-2.76c8-4.32,14.16-10.32,17.34-15.24l4.26.84c-.84,1.2-1.68,2.28-2.7,3.48h13.56l.6-.24,2.76,1.8a40.15,40.15,0,0,1-4.8,6.48h16.26v13.14H258.27c-.72.47-1.5.95-2.28,1.43a28.71,28.71,0,0,1,7.32,6.78,101.21,101.21,0,0,0,13.92-7.13Zm-37.62-6.67h14.46v-6.83H242.79Zm5.88-14.87a59.64,59.64,0,0,1-5.28,4.86h15.66a38,38,0,0,0,3.84-4.86Zm27.36,8H260.85v6.83H276Z"/><path d="M346.59,1832.91v4.31H292.11v-4.31Z"/><path d="M360,1823.31a51.81,51.81,0,0,1-5.76,6.06,19,19,0,0,0-3.06-2.64,50.31,50.31,0,0,0,13.8-18.54l3.72,1.14a54,54,0,0,1-3.18,6.12h14.64a49.89,49.89,0,0,0-3.12-5.88l3.66-1.08a49.49,49.49,0,0,1,3.72,7h17.28v3.18H382.41v4.2h17.22v2.88H382.41V1830h17.22v2.88H382.41v4.33h20.28v3.11H363.75v1.86H360Zm38.28,22.13c-3.12,4.32-7.86,7.68-13.44,10.26a103.56,103.56,0,0,0,20.7,3.42,15.5,15.5,0,0,0-2.22,3.48,96.13,96.13,0,0,1-23.46-4.86c-8,2.88-17.22,4.38-26,5.22a14.88,14.88,0,0,0-1.5-3.48A107.35,107.35,0,0,0,375,1855.7a35.1,35.1,0,0,1-11.76-8.28l.12-.06h-8.64v-3.3h40.5l.66-.24Zm-19.8-26.81H363.75v4.2h14.76Zm0,7.08H363.75V1830h14.76Zm0,7.13H363.75v4.33h14.76ZM368,1847.36a37.11,37.11,0,0,0,11.94,6.78,37,37,0,0,0,11.88-6.78Z"/><path d="M434,1823.54a74.71,74.71,0,0,1-5.76,11.94H461v27.3h-4.14v-3.12H429.45v3.42h-4v-23.4A50.91,50.91,0,0,1,414,1851.2a21.84,21.84,0,0,0-2.64-3.18c8.64-5.94,14.46-14.76,18.36-24.48H413.31v-3.89h17.82a86,86,0,0,0,3.12-11.34l4.14.84c-.84,3.48-1.8,7-3,10.5h30v3.89Zm-4.56,15.78v16.5h27.36v-16.5Z"/><path d="M526.17,1843.22H501.33v14c0,3-1,4.2-3.06,4.86s-5.94.72-12.3.66a17.27,17.27,0,0,0-1.74-3.9c5.16.12,9.84.06,11.16.06s1.86-.48,1.86-1.74v-13.92H472.41v-3.9h24.84v-10.19H476.37v-3.84h20.88v-9.6c-6.66.66-13.56,1.14-19.8,1.44a16.18,16.18,0,0,0-1-3.54c14.16-.72,31.8-2.28,40.74-5.16l2.94,3.24a123.25,123.25,0,0,1-18.78,3.6v10h21.48v3.84H501.33v10.19h24.84Z"/><path d="M538.11,1844c4.68-2,7.26-4.86,7.56-9.17a4,4,0,0,1-1.14.11c-2.34,0-4.26-1.31-4.26-4.07a4,4,0,0,1,4.32-4.08c3.18,0,4.86,2.58,4.86,6.66,0,6.41-4,11.21-10.08,13.43Z"/><path d="M615.81,1855.7v4h-53v-4h14.76c1.2-5.58,2.52-12.84,3.72-20.22H570v-3.9h12c.72-4.62,1.44-9.29,2-13.43H566.67v-4h44.76v4H588.21c-.6,4.2-1.32,8.81-2,13.43H602l.66-.17,3,.3c-.36,6.54-1.26,16.19-2.22,24Zm-30.3-20.22c-1.2,7.44-2.52,14.7-3.6,20.22h17.46c.72-6.54,1.5-14.57,1.92-20.22Z"/><path d="M642.39,1837.94l-7.62,2.34v17.82c0,2.34-.6,3.42-2,4.08s-3.84.78-7.8.72a17,17,0,0,0-1.32-3.66c2.76.06,5.34.06,6.06,0s1.14-.24,1.14-1.14v-16.56l-8.4,2.58-1.26-3.95c2.64-.73,6-1.63,9.66-2.71v-13.07h-8.7v-3.84h8.7v-12.12h4v12.12h7v3.84h-7v11.87c2.34-.59,4.74-1.38,7.08-2.09Zm10.68-6.3c-5.52,0-7.26-1.73-7.26-6.72v-16.31h3.9v7.32H674v3.54h-24.3V1825c0,2.29.66,3.13,3.3,3.13h16.14a49.43,49.43,0,0,0,6.42-.37c.18,1.08.36,2.58.54,3.49a38.74,38.74,0,0,1-6.72.35Zm-7.26,5.34h28v25.74h-4v-2.52H649.59V1863h-3.78Zm3.78,3.48v6.36h20.22v-6.36Zm20.22,16.38v-6.72H649.59v6.72Z"/><path d="M725.37,1821c-4.74,5.4-12.12,9.24-20.52,12h23.76v29.7h-4V1860H697.11v2.88h-3.9V1836c-3,.66-6,1.2-8.94,1.62a30.66,30.66,0,0,0-2.52-3.47c9.24-1.09,18.6-3,26.28-6.06h-1.38v-19.74h3.9V1827c4.5-2.11,8.4-4.62,11-7.74Zm-25.92-8.1a48.32,48.32,0,0,1-12.12,15.24,19.37,19.37,0,0,0-3.36-2.4,37.5,37.5,0,0,0,11.58-13.92Zm25.2,23.34H697.11v4.67h27.54Zm-27.54,12.65h27.54v-4.92H697.11Zm27.54,8v-5H697.11v5Zm-2.34-45.41c4.86,3.72,10.74,9,13.5,12.72l-3.36,2.27c-2.58-3.65-8.34-9.17-13.2-13Z"/><path d="M793.83,1815.87A46.81,46.81,0,0,1,783.75,1831a44.18,44.18,0,0,0,14.28,8.64,16.1,16.1,0,0,0-2.58,3.36c-.72-.3-1.44-.66-2.16-1v20.4h-3.9v-1.92H771.93v2h-3.72v-20.34c-1,.54-2.1,1-3.12,1.44a9,9,0,0,0-1.44-2.16v8.88H747.21v5.4h-3.12v-44h19.56v13a41.26,41.26,0,0,0,12.36-16.8l3.78,1.08a61.78,61.78,0,0,1-2.82,5.64h13.56l.72-.18Zm-46.62-.48v13.37h5.1v-13.37Zm0,31.49h5.1v-14.7h-5.1Zm13.2-31.49h-5.22v13.37h5.22Zm0,31.49v-14.7h-5.22v14.7Zm3.24-6.66a53.41,53.41,0,0,0,14.88-9.3,49.55,49.55,0,0,1-6.6-8.81,50.44,50.44,0,0,1-6.12,6.18,23.61,23.61,0,0,0-2.16-2Zm28,1a49.19,49.19,0,0,1-10.56-7.68,56.35,56.35,0,0,1-10.92,7.68ZM789.39,1857v-12.24H771.93V1857Zm-14.58-38.75-.66.9a42.75,42.75,0,0,0,6.9,9.36,40.94,40.94,0,0,0,7.5-10.26Z"/><path d="M855,1840.17s-.06,1.19-.12,1.73c-1.14,12.66-2.28,17.64-4.14,19.56a5.52,5.52,0,0,1-4,1.56,66.58,66.58,0,0,1-7.5-.12,9.39,9.39,0,0,0-1.2-3.66c3.12.3,6.06.3,7.2.3a3,3,0,0,0,2.22-.54c1.26-1.32,2.4-5.34,3.36-15.3H813.27a59.21,59.21,0,0,1-9.66,7.32,19.86,19.86,0,0,0-2.22-3.3c10.26-6,17.82-15.18,23.1-25.43h-20v-3.66h21.72a82.29,82.29,0,0,0,3.84-10.32l3.9,1a92.32,92.32,0,0,1-3.54,9.3h15.78c-.72,3.48-1.56,7.62-2.34,10.74h7c-.66,3.47-1.5,7.67-2.28,10.8Zm-49.38,20.33c3.42-3.24,5.7-8.58,7-13.2l3.3,1.08c-1.44,4.92-3.54,10.62-7.14,14.16ZM818,1818.33a39,39,0,0,0-6-8.34l3.42-1.44a39.57,39.57,0,0,1,6.18,8Zm26.82,21.84c.54-2.11,1.08-4.69,1.56-7.21H822.57a75.18,75.18,0,0,1-5.76,7.21Zm-21.48,7.91a44,44,0,0,1,1.8,11.88l-3.48.54a39.57,39.57,0,0,0-1.62-11.94Zm5.4-25.79c-1.14,2.4-2.46,4.79-3.84,7.08h15.24c.54-2,1.14-4.62,1.62-7.08Zm3.18,25a43,43,0,0,1,3.6,10.26l-3.3.9a45.91,45.91,0,0,0-3.42-10.44Zm10.32,8a38.83,38.83,0,0,0-4.56-8.1l2.76-1.08a34.18,34.18,0,0,1,4.74,7.86Z"/><path d="M915.09,1854.5v4H863.37v-4Zm-3.3-40.37v4h-45v-4Zm-4.62,19.55v4h-36.6v-4Z"/><path d="M942.39,1837.94l-7.62,2.34v17.82c0,2.34-.6,3.42-2,4.08s-3.84.78-7.8.72a17,17,0,0,0-1.32-3.66c2.76.06,5.34.06,6.06,0s1.14-.24,1.14-1.14v-16.56l-8.4,2.58-1.26-3.95c2.64-.73,6-1.63,9.66-2.71v-13.07h-8.7v-3.84h8.7v-12.12h4v12.12h7v3.84h-7v11.87c2.34-.59,4.74-1.38,7.08-2.09Zm10.68-6.3c-5.52,0-7.26-1.73-7.26-6.72v-16.31h3.9v7.32H974v3.54h-24.3V1825c0,2.29.66,3.13,3.3,3.13h16.14a49.43,49.43,0,0,0,6.42-.37c.18,1.08.36,2.58.54,3.49a38.74,38.74,0,0,1-6.72.35Zm-7.26,5.34h28v25.74h-4v-2.52H949.59V1863h-3.78Zm3.78,3.48v6.36h20.22v-6.36Zm20.22,16.38v-6.72H949.59v6.72Z"/><path d="M994.41,1826.67a9.06,9.06,0,1,1-9.06,9A9.09,9.09,0,0,1,994.41,1826.67Zm0,15.23a6.18,6.18,0,1,0,0-12.36,6.18,6.18,0,1,0,0,12.36Z"/><path d="M491.13,1897.17c4.44,10.31,12.24,20,20.76,24.71a23.11,23.11,0,0,0-3.06,3.36c-9-5.58-16.92-16.32-21.6-28.07h-1v22.43h14.28v4H486.27V1935h-4.14v-11.4H467.91v-4h14.22v-22.43h-1.08c-4.74,11.75-12.66,22.43-21.3,28.25a24.18,24.18,0,0,0-2.88-3.18c8-4.92,15.66-14.76,20.16-25.07H458.37v-4h23.76v-12.72h4.14v12.72h24v4Z"/><path d="M566.13,1919.54a33.64,33.64,0,0,1-8.22,7.38c2.4,2.82,5.22,4.44,8.16,4.38,1.68-.06,2.16-1.5,2.46-5.94a10.31,10.31,0,0,0,3.12,1.62c-.6,6.3-2.1,7.92-5.76,8-4.26,0-8.16-2.22-11.28-6a74.41,74.41,0,0,1-13.68,5.82,36.46,36.46,0,0,0-2.1-3.24,65.61,65.61,0,0,0,13.86-5.34,34.94,34.94,0,0,1-3.84-8.82H534.39v4.38l11.16-1-.06,2.88-11.1,1.08v6.12c0,2.1-.48,3.06-2.16,3.54s-4.38.54-8.94.54a19.42,19.42,0,0,0-1.26-3.18c3.36.12,6.48.06,7.38,0s1.2-.24,1.2-1v-5.7c-4.74.48-9.12.9-12.72,1.2l-.42-3.3c3.54-.24,8.1-.54,13.14-1v-4.68h-12.9v-3.18h12.9v-4.44c-3.78.42-7.68.72-11.28.91a12,12,0,0,0-.9-2.71c8.16-.48,18.18-1.55,23.52-2.94l2.52,2.58c-2.82.66-6.36,1.26-10.08,1.74v4.86h13.68a52.67,52.67,0,0,1-1.2-8.94h3.84a57.48,57.48,0,0,0,1.2,8.94h19v3.18H552.81a31.91,31.91,0,0,0,3.12,6.9,27.09,27.09,0,0,0,6.72-5.94Zm4.62-15.17h-53v-3.24h24.36V1897h-18.6v-3.06h18.6v-4H520.29v-3.18H533a30,30,0,0,0-3.48-5.16l3.42-1.26a24.4,24.4,0,0,1,4.32,6.24l-.42.18h14.64a54.7,54.7,0,0,0,3.6-6.6l4.14,1.2c-1.2,1.86-2.52,3.84-3.72,5.4h12.84V1890H546.15v4h18.9V1897h-18.9v4.14h24.6Zm-5.7,9a34,34,0,0,0-9.48-5.52l2.16-2.46a38.32,38.32,0,0,1,9.66,5.22Z"/><path d="M606.69,1929.62a70.7,70.7,0,0,0,7.38.36c2.1.06,14.76,0,17.58-.06a16.36,16.36,0,0,0-1.44,3.84H614c-12.3,0-19.92-1.92-24.72-10.38a31.55,31.55,0,0,1-9.48,11.7,19.84,19.84,0,0,0-3.06-2.82c6.3-4.14,10.2-10.92,11.82-19.86l4,.6a55.92,55.92,0,0,1-1.5,6.06c2.34,5.64,6.3,8.52,11.7,9.84v-18.54H578v-3.6h52.68v3.6H606.69v7.08h20v3.6h-20Zm17.22-27.17h-39.6v-19.56h39.6Zm-4-16.44H588.21v5.16h31.68Zm0,8.1H588.21v5.27h31.68Z"/><path d="M659,1895.54a74.71,74.71,0,0,1-5.76,11.94H686v27.3h-4.14v-3.12H654.45v3.42h-4v-23.4A50.91,50.91,0,0,1,639,1923.2a21.84,21.84,0,0,0-2.64-3.18c8.64-5.94,14.46-14.76,18.36-24.48H638.31v-3.89h17.82a86,86,0,0,0,3.12-11.34l4.14.84c-.84,3.48-1.8,7-3,10.5h30v3.89Zm-4.56,15.78v16.5h27.36v-16.5Z"/><path d="M751.17,1915.22H726.33v14c0,3-1,4.2-3.06,4.86s-5.94.72-12.3.66a17.27,17.27,0,0,0-1.74-3.9c5.16.12,9.84.06,11.16.06s1.86-.48,1.86-1.74v-13.92H697.41v-3.9h24.84v-10.19H701.37v-3.84h20.88v-9.6c-6.66.66-13.56,1.14-19.8,1.44a16.18,16.18,0,0,0-1-3.54c14.16-.72,31.8-2.28,40.74-5.16l2.94,3.24a123.25,123.25,0,0,1-18.78,3.6v10h21.48v3.84H726.33v10.19h24.84Z"/><path d="M769.41,1898.67a9.06,9.06,0,1,1-9.06,9A9.09,9.09,0,0,1,769.41,1898.67Zm0,15.23a6.18,6.18,0,1,0,0-12.36,6.18,6.18,0,1,0,0,12.36Z"/><path d="M189.27,1965.63a67.67,67.67,0,0,1-5.4,8.45v33.18h-3.78v-28.5a55.81,55.81,0,0,1-6,5.94,23.11,23.11,0,0,0-2.4-3.41,57.79,57.79,0,0,0,14-16.92Zm-1.44-11.88a59.41,59.41,0,0,1-13.32,14.1,20,20,0,0,0-2.22-2.82c4.44-3.3,9.42-8.4,11.94-12.66Zm33.42,30.42a34,34,0,0,1-11.58,13.91,56.54,56.54,0,0,0,16.08,5.52,13.63,13.63,0,0,0-2.46,3.48,58.51,58.51,0,0,1-17.16-6.72,63.26,63.26,0,0,1-17.7,6.78,10.39,10.39,0,0,0-2-3.42,62.23,62.23,0,0,0,16.26-5.64,41.7,41.7,0,0,1-7.2-6.54,42.74,42.74,0,0,1-4.86,4.08,25.12,25.12,0,0,0-2.76-2.94,46.2,46.2,0,0,0,5.28-4.08,34,34,0,0,1-2.82-4.38l3.3-1.2a19.06,19.06,0,0,0,2,3.18,40.7,40.7,0,0,0,5.82-7.86c-9,.6-10.5.91-11.64,1.26a33.39,33.39,0,0,0-1.2-3.77c1.62-.19,3.78-1.26,6.6-2.88,1.44-.78,4.38-2.58,7.8-4.87-9.36.49-10.92.73-11.82,1.09a28.56,28.56,0,0,0-1.26-3.84,10.79,10.79,0,0,0,3.9-2.16A67.38,67.38,0,0,0,204.51,1953l3.9,1.8a87.44,87.44,0,0,1-11.7,10.32l11.1-.36a87.91,87.91,0,0,0,8.22-6.6l3.66,2.1a135.45,135.45,0,0,1-22.44,15l20.1-1.08c-1.5-1.87-2.94-3.72-4.38-5.29l3.06-1.61a90.33,90.33,0,0,1,10,13l-3.24,1.92c-.78-1.38-2-3.12-3.24-5-5.58.35-10.14.66-13.68.83a52.18,52.18,0,0,1-3,5h15.18l.72-.18Zm-20.94,2.21a33.51,33.51,0,0,1-2.34,2.76,40,40,0,0,0,8.16,6.9,31.13,31.13,0,0,0,9.72-9.66Z"/><path d="M249.63,1990.94c-1.08-1.86-3.54-5.58-5.58-8.46v24.42h-3.72v-23.82a56.29,56.29,0,0,1-7.08,7.74,11.85,11.85,0,0,0-1.92-3.54c5.58-4.68,11.58-12.83,14.94-20.63H231.81V1963h16.26l.66-.18,2,1.56a67.06,67.06,0,0,1-6.72,13.38v0c.54.61,1.2,1.45,1.92,2.41a56.82,56.82,0,0,0,4.8-5.83l2.52,2.22c-1.92,2-4,4.15-5.7,5.7,1.8,2.28,3.54,4.62,4.2,5.58Zm-7.14-28.37a66.87,66.87,0,0,0-4.56-8.52l3-1.44a59.65,59.65,0,0,1,4.74,8.1Zm41,14.1a43.07,43.07,0,0,1-10,19.19,35.15,35.15,0,0,0,13.44,7.5,13.76,13.76,0,0,0-2.46,3.42,37.16,37.16,0,0,1-13.62-8.22,43.22,43.22,0,0,1-13.68,8.4,12,12,0,0,0-2.22-3.24,37.79,37.79,0,0,0,13.32-7.86,46.92,46.92,0,0,1-9.06-16.44h-.84c-.18,8.58-1.62,19.5-7.62,27.12a11.46,11.46,0,0,0-2.88-2.52c6.18-7.92,6.9-18.89,6.9-27.18v-15.53h12.84v-8.94h3.78v8.94h11.28l.66-.18,2.76.78a119.61,119.61,0,0,1-3.84,11.81l-3.42-.84c.78-2,1.68-5,2.46-7.85h-9.9v10.8h8.94l.72-.19Zm-25-11.64v10.8h9.18V1965Zm4.38,14.39a39.46,39.46,0,0,0,8,13.8,37.2,37.2,0,0,0,7.92-13.8Z"/><path d="M306,1953.57a123.56,123.56,0,0,1-4.08,12.6V2007h-3.78v-32.51a51.63,51.63,0,0,1-4.26,6.77,18.44,18.44,0,0,0-2.16-4c4.56-6,8.28-15.23,10.5-24.59Zm5.94,41.27v12h-3.72v-51.77h16.26v18.23H311.91v6.78h11.16v3.42H311.91v7.92h11.82v3.42Zm0-36.35v11.39h9v-11.39Zm32.52,20.34a41,41,0,0,1-7.5,17.45,26.55,26.55,0,0,0,10,7.56,18.29,18.29,0,0,0-2.46,3.06,27.55,27.55,0,0,1-9.78-7.86,36.82,36.82,0,0,1-12.36,8.1,10.14,10.14,0,0,0-2.1-2.94,31,31,0,0,0,12.3-8.1,51.85,51.85,0,0,1-6-13.85l2.64-.67h-3.9v-3.41h16.2l.72-.13Zm-.78-5.58H326.91v-3.48H340v-11.22H326.91v-3.48h16.74Zm-14,8.33a40.27,40.27,0,0,0,5.1,11.7,33.44,33.44,0,0,0,5.4-11.7Z"/><path d="M369.21,1953.63a84.89,84.89,0,0,1-6.18,12.9v40.31h-3.84v-34.31a62.31,62.31,0,0,1-6.42,7.91,20.27,20.27,0,0,0-2.34-3.84c6-5.81,11.64-14.81,15.06-24ZM407.07,1972v3.65H366.15V1972h10.74v-8.52h-8.16v-3.54h8.16v-7h3.78v7h11.76v-7h3.84v7h8.52v3.54h-8.52V1972Zm-34.44,8.69h29v26.16h-3.9v-2.46H376.47v2.76h-3.84Zm3.84,3.42v6.72h21.24v-6.72ZM397.71,2001v-6.9H376.47v6.9Zm-17-29h11.76v-8.52H380.67Z"/><path d="M465,1984.17s-.06,1.19-.12,1.73c-1.14,12.66-2.28,17.64-4.14,19.56a5.52,5.52,0,0,1-4,1.56,66.58,66.58,0,0,1-7.5-.12,9.39,9.39,0,0,0-1.2-3.66c3.12.3,6.06.3,7.2.3a3,3,0,0,0,2.22-.54c1.26-1.32,2.4-5.34,3.36-15.3H423.27a59.21,59.21,0,0,1-9.66,7.32,19.86,19.86,0,0,0-2.22-3.3c10.26-6,17.82-15.18,23.1-25.43h-20v-3.66h21.72a82.29,82.29,0,0,0,3.84-10.32l3.9,1a92.32,92.32,0,0,1-3.54,9.3h15.78c-.72,3.48-1.56,7.62-2.34,10.74h7c-.66,3.47-1.5,7.67-2.28,10.8Zm-49.38,20.33c3.42-3.24,5.7-8.58,7-13.2l3.3,1.08c-1.44,4.92-3.54,10.62-7.14,14.16ZM428,1962.33a39,39,0,0,0-6-8.34l3.42-1.44a39.57,39.57,0,0,1,6.18,8Zm26.82,21.84c.54-2.11,1.08-4.69,1.56-7.21H432.57a75.18,75.18,0,0,1-5.76,7.21Zm-21.48,7.91a44,44,0,0,1,1.8,11.88l-3.48.54a39.57,39.57,0,0,0-1.62-11.94Zm5.4-25.79c-1.14,2.4-2.46,4.79-3.84,7.08h15.24c.54-2,1.14-4.62,1.62-7.08Zm3.18,25a43,43,0,0,1,3.6,10.26l-3.3.9a45.91,45.91,0,0,0-3.42-10.44Zm10.32,8a38.83,38.83,0,0,0-4.56-8.1l2.76-1.08a34.18,34.18,0,0,1,4.74,7.86Z"/><path d="M498.27,1955.49H483.45v35.15h-4v-38.87h18.78Z"/><path d="M556.71,1992.44h-7.32v9.48c0,2.58-.66,3.78-2.52,4.44s-5.16.72-10.26.72a14.78,14.78,0,0,0-1.56-3.84c4.14.12,7.86.06,9,0s1.38-.3,1.38-1.32v-9.48H513v14.7h-4v-14.7h-7.14v-3.72H509V1966h18v-6.23H504v-3.72h50.46v3.72H531V1966h18.36v22.68h7.32ZM513,1969.71v7.62h14v-7.62Zm0,19h14v-7.92H513Zm18.06-19v7.62h14.4v-7.62Zm14.4,19v-7.92H531v7.92Z"/><path d="M560.19,2003.84H575v-35.15h4v38.87H560.19Z"/><path d="M612.75,1985.06l-3.66,3.12a93.63,93.63,0,0,0-13.32-13.38l3.42-3.11A118.53,118.53,0,0,1,612.75,1985.06Z"/><path d="M648.27,1955.49H633.45v35.15h-4v-38.87h18.78Z"/><path d="M681,1987.4a19.43,19.43,0,0,1-5.58,10.5c7.74,3.6,18.06,4.68,31.68,5.1a9.19,9.19,0,0,0-1.68,3.9c-14.1-.66-25.08-2-33.18-6.48-4,2.64-9.6,4.92-17.58,6.66a17.17,17.17,0,0,0-2.34-3.54c7.38-1.44,12.6-3.3,16.32-5.46a29.52,29.52,0,0,1-7.68-8.76l3.36-1.32a25.77,25.77,0,0,0,7.44,7.8,14.82,14.82,0,0,0,5.1-8.4h-18v-22.85h18.66v-5.28H653.31v-3.66h51.84v3.66H681.57v5.28h19.86v22.85Zm-18.3-13.07h14.82V1968H662.67Zm14.7,9.65c.06-1.26.12-2.58.12-3.9v-2.52H662.67V1984Zm20.1-6.42h-15.9v2.52c0,1.32-.06,2.64-.12,3.9h16Zm-15.9-9.6v6.37h15.9V1968Z"/><path d="M710.19,2003.84H725v-35.15h4v38.87H710.19Z"/><path d="M743.31,2003.48c3.06-2.58,5.64-7,7.08-10.44l3.3,1.5c-1.68,3.6-4.08,8-7.14,10.86Zm51.72-36.9v3.25H743.79v-3.25H758a23.89,23.89,0,0,0-2.34-5.45l3.36-.84H746.49V1957h21.9c-.72-1.44-1.56-2.94-2.34-4.2l3.78-.9a39.9,39.9,0,0,1,2.94,5.1H792v3.3H780.09l3.24.78c-1,1.92-2,3.84-3,5.51Zm-7,23.7H766.89a47.07,47.07,0,0,1,8.82,6.24l-2.52,2.46a48.61,48.61,0,0,0-9.3-6.9l2-1.8H750.81V1973H788Zm-3.9-14.45H754.59v4.43h29.52Zm0,7.13H754.59v4.44h29.52Zm-8.22,20.16c2.58,0,3-.72,3.24-6.24a12.08,12.08,0,0,0,3.54,1.38c-.48,6.66-1.74,8.22-6.42,8.22H764.67c-5.82,0-7.38-1-7.38-5v-8h3.9v8c0,1.38.54,1.68,3.72,1.68Zm-16.62-42.83a26.19,26.19,0,0,1,2.76,6.18l-.48.11h14.64a59.18,59.18,0,0,0,3.06-6.29Zm27.66,32.21a46.55,46.55,0,0,1,8,10.2l-3.36,1.74a49,49,0,0,0-7.8-10.56Z"/><path d="M851.13,1991.54a33.64,33.64,0,0,1-8.22,7.38c2.4,2.82,5.22,4.44,8.16,4.38,1.68-.06,2.16-1.5,2.46-5.94a10.31,10.31,0,0,0,3.12,1.62c-.6,6.3-2.1,7.92-5.76,8-4.26,0-8.16-2.22-11.28-6a74.41,74.41,0,0,1-13.68,5.82,36.46,36.46,0,0,0-2.1-3.24,65.61,65.61,0,0,0,13.86-5.34,34.94,34.94,0,0,1-3.84-8.82H819.39v4.38l11.16-1-.06,2.88-11.1,1.08v6.12c0,2.1-.48,3.06-2.16,3.54s-4.38.54-8.94.54a19.42,19.42,0,0,0-1.26-3.18c3.36.12,6.48.06,7.38,0s1.2-.24,1.2-1v-5.7c-4.74.48-9.12.9-12.72,1.2l-.42-3.3c3.54-.24,8.1-.54,13.14-1v-4.68h-12.9v-3.18h12.9v-4.44c-3.78.42-7.68.72-11.28.91a12,12,0,0,0-.9-2.71c8.16-.48,18.18-1.55,23.52-2.94l2.52,2.58c-2.82.66-6.36,1.26-10.08,1.74v4.86h13.68a52.67,52.67,0,0,1-1.2-8.94h3.84a57.48,57.48,0,0,0,1.2,8.94h19v3.18H837.81a31.91,31.91,0,0,0,3.12,6.9,27.09,27.09,0,0,0,6.72-5.94Zm4.62-15.17h-53v-3.24h24.36V1969h-18.6v-3.06h18.6v-4H805.29v-3.18H818a30,30,0,0,0-3.48-5.16l3.42-1.26a24.4,24.4,0,0,1,4.32,6.24l-.42.18h14.64a54.7,54.7,0,0,0,3.6-6.6l4.14,1.2c-1.2,1.86-2.52,3.84-3.72,5.4h12.84V1962H831.15v4h18.9V1969h-18.9v4.14h24.6Zm-5.7,9a34,34,0,0,0-9.48-5.52l2.16-2.46a38.32,38.32,0,0,1,9.66,5.22Z"/><path d="M878.25,1953c-1,2.94-2.1,6.3-3.18,8.88h10.14v38.75h-16.8v4.8h-3.66v-43.55h6.66a64.68,64.68,0,0,0,2.58-9.72Zm3.3,12.47H868.41v13.08h13.14Zm0,31.56v-14.88H868.41v14.88Zm33.06-33.17c-1,27.53-1.8,36.71-4.2,39.59a5.6,5.6,0,0,1-4.56,2.28,74.94,74.94,0,0,1-8.82-.12,9.42,9.42,0,0,0-1.32-3.9c3.9.36,7.5.36,8.82.36s1.92-.12,2.52-.9c2-2.1,2.94-11.34,3.72-35.7H895.05a55.33,55.33,0,0,1-5.64,10.68,36.22,36.22,0,0,0-3.36-2.22c4.08-5.33,7.32-13.61,9.18-21.89l3.84.84c-.78,3-1.62,6-2.64,8.88h18.18Zm-12.78,27a106.51,106.51,0,0,0-9.3-13.92l3.06-1.79a102.47,102.47,0,0,1,9.6,13.61Z"/><path d="M948.27,1955.49H933.45v35.15h-4v-38.87h18.78Z"/><path d="M1000.29,1957.83c-3.48,13.74-9.9,24.3-18.06,32.27a57.36,57.36,0,0,0,24.78,12.78,15.56,15.56,0,0,0-2.64,3.54,58.72,58.72,0,0,1-25.2-13.56,72.49,72.49,0,0,1-25,13.62,10.78,10.78,0,0,0-2.46-3.54,70.44,70.44,0,0,0,24.6-12.84c-7.38-7.74-12.66-17.69-16.32-29.33h-4.8v-4h41.7l.78-.24Zm-36.3,2.94c3.36,10.38,8.4,19.44,15.36,26.63a59.85,59.85,0,0,0,16.08-26.63Z"/><path d="M1010.19,2003.84H1025v-35.15h4v38.87h-18.78Z"/><path d="M1048.11,1988c4.68-2,7.26-4.86,7.56-9.17a4,4,0,0,1-1.14.11c-2.34,0-4.26-1.31-4.26-4.07a4,4,0,0,1,4.32-4.08c3.18,0,4.86,2.58,4.86,6.66,0,6.41-4,11.21-10.08,13.43Z"/><path d="M230.91,2031.69c-.84,3.12-1.8,6.42-2.7,9.06h24.66v32.93c0,2.46-.54,3.6-2.22,4.26s-4.8.72-9.12.72a12.47,12.47,0,0,0-1.38-3.78c3.54.12,6.6.06,7.5,0s1.2-.3,1.2-1.2v-29.22H238.17V2077h-4v-32.58H223.77V2077h-3.9v-32.58h-10V2079h-4v-38.27h18.24c.84-2.71,1.56-6.12,2.16-9.06H202.71v-4h53.34v4Z"/><path d="M287.19,2061.8c-8.34,3.84-17.52,7.86-24.06,10.74l-1.44-4.08c2.34-.9,5.16-2.1,8.28-3.42l-1-37.55,4-.12.9,36c4-1.74,8.22-3.6,12.36-5.46Zm26.64,17c-2.82-4.2-8.58-10.68-13.8-16.14-4.68,7.2-11.4,12.54-21,16.5a31.65,31.65,0,0,0-3.12-3.42c20.88-7.56,27.24-22.14,29.94-48.35l4.32.42c-1.44,13-3.78,23.21-8,31.31,5.46,5.4,11.88,12.24,15.06,16.56Zm-23.22-30.6c-1.56-4.14-5.46-10.25-9.24-14.63l3.42-1.74a56.51,56.51,0,0,1,9.54,14.27Z"/><path d="M348.27,2027.49H333.45v35.15h-4v-38.87h18.78Z"/><path d="M374,2039.54a74.71,74.71,0,0,1-5.76,11.94H401v27.3h-4.14v-3.12H369.45v3.42h-4v-23.4A50.91,50.91,0,0,1,354,2067.2a21.84,21.84,0,0,0-2.64-3.18c8.64-5.94,14.46-14.76,18.36-24.48H353.31v-3.89h17.82a86,86,0,0,0,3.12-11.34l4.14.84c-.84,3.48-1.8,7-3,10.5h30v3.89Zm-4.56,15.78v16.5h27.36v-16.5Z"/><path d="M410.19,2075.84H425v-35.15h4v38.87H410.19Z"/><path d="M496.29,2065.52H481.83v9.06c0,2.16-.48,3.24-2.28,3.78s-4.74.6-9.6.6a14.79,14.79,0,0,0-1.26-3.54c3.78.12,7.08.12,8,.12s1.26-.3,1.26-1v-9H442.23v-3.36H478v-3.9c-12.42.36-24.54.6-33.24.72l-.18-3.23c6,0,14-.07,22.62-.19v-3.48h-18.6V2036h18.6v-3.6H444v-3.24h23.22v-4.68H471v4.68h22.8v3.24H471v3.6h19.14v16.13h-7.68A52.92,52.92,0,0,1,494,2058l-2.4,2.4a26.44,26.44,0,0,0-3.48-2.46l-9.9.3h3.6v3.9h14.46Zm-41.82.24a50.45,50.45,0,0,1,10.14,7.44l-2.82,2.7a54.86,54.86,0,0,0-10-7.8Zm-2.1-23.09h14.82v-3.9H452.37Zm14.82,6.59v-4H452.37v4Zm3.84-10.49v3.9h15.24v-3.9Zm15.24,6.53H471v4h15.24ZM471,2055.5l12.06-.18a36.11,36.11,0,0,0-4.92-1.92l1.44-1.32H471Z"/><path d="M553.35,2056a100.84,100.84,0,0,1-11.7,8.58,36.22,36.22,0,0,0,15.3,8.76,24.16,24.16,0,0,0-2.64,3.48c-12.3-4.08-20.82-13.2-25.38-25.61h-.18a53.79,53.79,0,0,1-9.6,8V2073l14.88-4.5a18.38,18.38,0,0,0,.6,3.42c-16.62,5.4-18.66,6.12-20,7a14.6,14.6,0,0,0-1.74-3.66,3.9,3.9,0,0,0,2.16-3.78v-9.72a71.36,71.36,0,0,1-10.68,5.1,19.48,19.48,0,0,0-2.64-3.24,62.5,62.5,0,0,0,21.9-12.41H503.43v-3.54h23.7v-5.64H508.77v-3.36h18.36v-5.4H505.77v-3.48h21.36v-5.52h4v5.52h22v3.48h-22v5.4h19.32v3.36H531.15v5.64H555v3.54H532.77a38.86,38.86,0,0,0,6.6,11,80.68,80.68,0,0,0,10.74-8.46Z"/><path d="M577.47,2054.78a58,58,0,0,1-12.06,19.14,26,26,0,0,0-3.66-2.46,47,47,0,0,0,11.64-17.75Zm13.62-7.91v31.79H587v-31.79H563.07v-4h52.5v4Zm19.2-14.22H568.41v-3.9h41.88Zm-5.16,20.93c4.5,5.58,9.24,13.14,11,18.24l-3.9,1.8c-1.74-5-6.3-12.78-10.8-18.48Z"/><path d="M644,2039.54a74.71,74.71,0,0,1-5.76,11.94H671v27.3h-4.14v-3.12H639.45v3.42h-4v-23.4A50.91,50.91,0,0,1,624,2067.2a21.84,21.84,0,0,0-2.64-3.18c8.64-5.94,14.46-14.76,18.36-24.48H623.31v-3.89h17.82a86,86,0,0,0,3.12-11.34l4.14.84c-.84,3.48-1.8,7-3,10.5h30v3.89Zm-4.56,15.78v16.5h27.36v-16.5Z"/><path d="M736.17,2059.22H711.33v14c0,3-1,4.2-3.06,4.86s-5.94.72-12.3.66a17.27,17.27,0,0,0-1.74-3.9c5.16.12,9.84.06,11.16.06s1.86-.48,1.86-1.74v-13.92H682.41v-3.9h24.84v-10.19H686.37v-3.84h20.88v-9.6c-6.66.66-13.56,1.14-19.8,1.44a16.18,16.18,0,0,0-1-3.54c14.16-.72,31.8-2.28,40.74-5.16l2.94,3.24a123.25,123.25,0,0,1-18.78,3.6v10h21.48v3.84H711.33v10.19h24.84Z"/><path d="M762.75,2057.06l-3.66,3.12a93.63,93.63,0,0,0-13.32-13.38l3.42-3.11A118.53,118.53,0,0,1,762.75,2057.06Z"/><path d="M792.75,2039.13c-3.48,13.73-9,27-18.84,36.11a31.63,31.63,0,0,0-2.64-3.12c9-8.1,14.22-20.33,17.46-33H773.55v-3.9h16.14c.78-3.66,1.44-7.32,2-10.86l4,.54c-.54,3.36-1.2,6.84-2,10.32h31.08v3.9Zm33.18,34.19v3.84H783.15v-3.84h19.74v-18.54H789.27v-3.84h33.84v3.84H807v18.54Z"/><path d="M854,2039.54a74.71,74.71,0,0,1-5.76,11.94H881v27.3h-4.14v-3.12H849.45v3.42h-4v-23.4A50.91,50.91,0,0,1,834,2067.2a21.84,21.84,0,0,0-2.64-3.18c8.64-5.94,14.46-14.76,18.36-24.48H833.31v-3.89h17.82a86,86,0,0,0,3.12-11.34l4.14.84c-.84,3.48-1.8,7-3,10.5h30v3.89Zm-4.56,15.78v16.5h27.36v-16.5Z"/><path d="M940.83,2038.11c-7.38,10.91-20.82,23.51-33.18,31,.6.42,1.26.84,1.92,1.32,3.78,2.4,8.64,2.82,15.36,2.82,7.14,0,16-.48,21.72-1a17.18,17.18,0,0,0-1.14,4.26c-4.5.3-15,.66-20.7.66-7.26,0-12.18-.66-16.14-3.24-2.4-1.5-4.26-3.48-5.58-3.48-1.92,0-4.74,3.42-7.68,7.38l-3-3.6c4-4.26,7.74-7.5,10.74-7.5a4.63,4.63,0,0,1,.9.12c11-6.36,23.22-17.39,30-26.63H895.53v-3.9H937l.84-.24Zm-20.1-2.16a70.73,70.73,0,0,0-6.3-10l3.48-1.8a70.87,70.87,0,0,1,6.42,9.78Z"/><path d="M974,2039.54a74.71,74.71,0,0,1-5.76,11.94H1001v27.3h-4.14v-3.12H969.45v3.42h-4v-23.4A50.91,50.91,0,0,1,954,2067.2a21.84,21.84,0,0,0-2.64-3.18c8.64-5.94,14.46-14.76,18.36-24.48H953.31v-3.89h17.82a86,86,0,0,0,3.12-11.34l4.14.84c-.84,3.48-1.8,7-3,10.5h30v3.89Zm-4.56,15.78v16.5h27.36v-16.5Z"/><path d="M1024.41,2042.67a9.06,9.06,0,1,1-9.06,9A9.09,9.09,0,0,1,1024.41,2042.67Zm0,15.23a6.18,6.18,0,0,0,0-12.36,6.18,6.18,0,1,0,0,12.36Z"/><path d="M318.45,1091.63a601.83,601.83,0,0,1,101,.23q14.31,1.25,28.54,3.16l-6.78-.91c37.14,5,74.12,13.27,109.58,25.48q12,4.14,23.78,9.09l-6.09-2.57c21.74,9.22,42.66,20.59,61.39,35l-5.16-4a180.39,180.39,0,0,1,32.2,31.78l-4-5.16a138.62,138.62,0,0,1,17.64,29.93l-2.57-6.09a126.37,126.37,0,0,1,8.75,31.63l-.92-6.78a131.92,131.92,0,0,1,0,34.44l.91-6.78a157.14,157.14,0,0,1-11.12,40.06l2.57-6.09a188.37,188.37,0,0,1-23.9,40.67l4-5.16a212.19,212.19,0,0,1-38.38,38l5.16-4c-23,17.65-48.68,31.21-75.28,42.46l6.09-2.57c-26.4,11.12-53.66,20.15-81,28.67-29.95,9.33-60.25,17.66-91,23.92-17.64,3.59-35.41,6.42-53.25,8.83l6.78-.91c-22.9,3.07-45.88,5.45-68.86,7.81a19.18,19.18,0,0,0-9.82,2.2,19.21,19.21,0,0,0-8.21,5.27c-4.42,4.43-7.75,11.68-7.47,18,.3,6.6,2.46,13.44,7.47,18,4.69,4.31,11.42,8.15,18,7.47,40.44-4.16,81-8.35,121-16,37.53-7.17,74.37-17.55,110.73-29.21,34.12-10.94,68.1-22.92,100.22-38.92a314.24,314.24,0,0,0,42.9-25.5c14.7-10.51,28.82-22.05,41-35.47A220.45,220.45,0,0,0,705,1334.81a191.21,191.21,0,0,0,18.63-48.43c3.75-16.67,5.48-34.19,3.55-51.22a160.6,160.6,0,0,0-5.17-27.7,168.7,168.7,0,0,0-9.93-25.09c-6.76-14-16.17-26.89-26.55-38.46-10.66-11.89-23.07-22.05-36-31.36-25-18-53.51-31-82.44-41.19-33.65-11.86-68.8-20-104.06-25.26-38.8-5.78-77.92-8.52-117.15-7.1q-13.73.49-27.41,1.63c-6.87.56-13,2.47-18,7.47-4.43,4.42-7.76,11.68-7.47,18,.29,6.59,2.46,13.43,7.47,18,4.75,4.36,11.35,8,18,7.47Z"/><path d="M319.71,1301.57c42.46,11.79,87,14.56,130.91,14,42.42-.54,84.76-4,127.2-4.12,23.82-.09,47.66.9,71.3,4l-6.78-.91c19.79,2.68,40.4,6.21,58.92,14l-6.09-2.57a74.53,74.53,0,0,1,15.55,8.92l-5.16-4a85.65,85.65,0,0,1,14.68,15l-4-5.16c13.37,17.43,23.44,37.64,33.66,57,10.73,20.37,21.07,40.94,32.35,61A492.8,492.8,0,0,0,920.36,1617c4.92,3.72,14,4.12,19.65,2.57,5.92-1.63,12.33-6.2,15.24-11.72,3.13-5.92,4.7-13.09,2.57-19.65l-2.57-6.09a25.55,25.55,0,0,0-9.15-9.15q-2.07-1.56-4.12-3.15l5.16,4a474.2,474.2,0,0,1-84.24-84.21l4,5.16c-23.72-30.7-42.49-64.34-60.37-98.68-9.23-17.74-18.37-35.54-28.29-52.92-4.6-8.06-9.28-16.13-14.64-23.72-6.14-8.7-12.82-17.3-21.18-24a97.87,97.87,0,0,0-15.7-10.8,137.75,137.75,0,0,0-18.4-7.8,217.8,217.8,0,0,0-27.75-7.29,441.59,441.59,0,0,0-62.85-8.1c-38.79-2.35-77.67-.24-116.45,1.46s-77.48,3.1-116-.73q-7-.71-14-1.64l6.78.91a335.55,335.55,0,0,1-44.72-9.08,26.46,26.46,0,0,0-19.65,2.57c-5.29,3.1-10.33,9.16-11.72,15.24-3.07,13.5,4.06,27.55,17.81,31.37Z"/><path class="cls-1" d="M1157.28,1210.79a27.61,27.61,0,0,0,11.5,8.1,11.65,11.65,0,0,0-2.15,2.55,30.77,30.77,0,0,1-12.8-10.65h-15.95a34.39,34.39,0,0,1-13,11.3,11.43,11.43,0,0,0-2.15-2.55,30.39,30.39,0,0,0,11.6-8.75h-11.1v-2.85h10v-16.15h-7.7V1189h7.7v-5h3.3v5H1155v-5h3.35v5H1166v2.8h-7.65v16.15h9.8v2.85Zm-10,14.5h17.3v2.85H1127v-2.85h16.9v-5.6h-10.45v-2.8h10.45v-4.4h3.35v4.4h10.65v2.8h-10.65Zm-10.8-33.5v3.6H1155v-3.6Zm0,9.8H1155v-3.65h-18.55Zm0,6.35H1155v-3.8h-18.55Z"/><path class="cls-1" d="M1141.48,1252.54s0,1.15,0,1.55c-.6,15.85-1.2,21.2-2.6,23a3.71,3.71,0,0,1-2.8,1.45,32.65,32.65,0,0,1-4.45,0,9.25,9.25,0,0,0-.85-3c1.75.15,3.2.15,3.9.15a1.42,1.42,0,0,0,1.45-.65c1-1.2,1.6-6,2.15-19.35h-6.8c-.55,10-2,18.25-6.45,23.65a9.53,9.53,0,0,0-2.55-2.35c5.45-6.45,5.9-17.85,6.1-31.55h-5.2v-3.1h20.1v3.1h-11.65c0,2.45-.1,4.85-.2,7.15Zm-7.9-10.45a33.47,33.47,0,0,0-4.25-7.15l2.9-1.15a31.92,31.92,0,0,1,4.4,7Zm23.85-7.45a15.26,15.26,0,0,1-.85,2.55c2.65,5.45,7.7,11.35,12.45,14a13,13,0,0,0-2.45,2.75c-4.25-2.7-8.5-8-11.4-13.3a32.61,32.61,0,0,1-11,13.6,12.79,12.79,0,0,0-2.35-2.65c5.85-3.6,10.35-10.2,12.5-17.85Zm-8.3,32.45a74,74,0,0,1,13.6,8.25l-2.25,2.9c-2.85-2.6-8.75-6.3-13.4-8.65Zm9.5-4.85a66.22,66.22,0,0,0-8.6-6.85l2.15-2.2a67.46,67.46,0,0,1,8.75,6.55Z"/><path class="cls-1" d="M1134.73,1297c-1.6,7.2-4.55,16.15-9.1,21.7a19.23,19.23,0,0,0-3.1-1.8c4.55-5.25,7.3-13.85,8.55-20.55Zm12.9-12.3v40c0,2.55-.7,3.6-2.35,4.2s-4.8.6-9.4.6a15.62,15.62,0,0,0-1.4-3.45c3.7.1,7.3.1,8.25.05s1.45-.35,1.45-1.4v-40Zm11.6,11.3c4.45,7,8.7,16.1,10,22l-3.45,1.45c-1.25-5.85-5.25-15.15-9.6-22.3Z"/><path class="cls-1" d="M1163.88,1361.74a72.75,72.75,0,0,1-7.65,3.65,19.75,19.75,0,0,0,12.1,9.55,10.66,10.66,0,0,0-2.1,2.6,22.77,22.77,0,0,1-12.5-11.1c-1.1.45-2.15.85-3.2,1.2,1.5,4.4.7,8.7-1.6,10.35a6,6,0,0,1-4.25,1.3c-1,0-2.25,0-3.55-.1a5.77,5.77,0,0,0-.9-2.85,30,30,0,0,0,4,.2,4.12,4.12,0,0,0,2.7-.65c1.35-1,1.9-3.75,1-6.9-5.55,3.7-14.45,7-22,8.45a11,11,0,0,0-1.45-2.4c8-1.1,17.65-4.65,22.65-8.35a13.35,13.35,0,0,0-1.25-2.15,69.47,69.47,0,0,1-17.55,6.35,7.59,7.59,0,0,0-1.4-2.15c5.8-1,13.4-3.4,17.7-5.85-.6-.55-1.25-1.15-2-1.7a80,80,0,0,1-15.25,4.15,16.41,16.41,0,0,0-1.55-2.2c5.7-.75,12.15-2.15,16.75-4.15h-18.55v-2.55h28c.3-.9.55-1.8.9-2.75h-21.7c1.25-2.8,3-7,4-10.25l3,.5a42,42,0,0,0-3.4-3.25l2-1.15h-6.25a29.23,29.23,0,0,1-5.1,5.6,25.27,25.27,0,0,0-2.35-2.2,26.89,26.89,0,0,0,7.5-9.35l3,.85c-.45.9-1,1.75-1.4,2.65h13.45v2.45h-8.3a44.9,44.9,0,0,1,4,3.65l-2.45,1.6a4.8,4.8,0,0,0-.7-.75c-.2.65-.45,1.25-.65,2h17.75l.6-.2,2.25.5c-.8,3.15-1.9,7-3,10.15h12V1359h-20.25c-.6.35-1.2.7-1.85,1a16.36,16.36,0,0,1,4.4,5.35,90.1,90.1,0,0,0,11.6-5.5Zm-10.2-10.3c.35-1.15.65-2.2,1-3.2h-17.7c-.45,1.15-.9,2.2-1.3,3.2Zm14.75-14.3v2.45h-16.6a28.84,28.84,0,0,1-4.55,5.15,15.06,15.06,0,0,0-2.55-2,21.57,21.57,0,0,0,6.7-9.1l3.1.8a26.43,26.43,0,0,1-1.25,2.7Zm-7.9,8a32.47,32.47,0,0,0-3.9-4.25l2.3-1.25a30.14,30.14,0,0,1,4,4Z"/><path class="cls-1" d="M1132.93,446.82c1.25,1.6,4.9,6.7,5.7,8.05l-2,2.45c-.7-1.5-2.35-4.4-3.75-6.65V477h-3.15V452.57c-1.5,5.05-3.5,9.9-5.55,12.85a14.83,14.83,0,0,0-1.75-3.1c2.9-4,5.8-11.5,7.2-18h-6.2v-3.15h6.3v-9.65h3.15v9.65h5.45v3.15h-5.45Zm19.1.7a19.47,19.47,0,0,0,.45,2.65c-10.15,2.7-11.6,3.15-12.5,3.75a12.13,12.13,0,0,0-1.1-3.2c.7-.2,1.55-.5,1.55-2.2v-16.7h3.25v6.5H1152v2.9h-8.35v8.3Zm2.35,5.5-2,3.75h12.65V477h-3.4v-1.75h-17v2h-3.3V456.77h7.9c.55-1.5,1.2-3.25,1.55-4.6Zm7.3,6.5h-17v5.05h17Zm0,13v-5.3h-17v5.3Zm2.25-22.4c1.25,0,1.5-.75,1.65-5.25a9.16,9.16,0,0,0,2.85,1.25c-.3,5.45-1.2,6.95-4.15,6.95h-5.85c-3.65,0-4.55-.95-4.55-4.45V431.87h3.25v6.5h10.2v2.9h-10.2v7.35c0,1.3.25,1.5,1.65,1.5Z"/><path class="cls-1" d="M1167.78,506.87v2.5h-44.15v-2.5h20.25v-3.2H1127v-2.3h16.85v-3h-15.45v-2.25h15.45v-3.2h-20.15v-2.5h20.15v-3.05H1129V485h14.85v-3.55h3.25V485h14.45v5.4h6.15v2.5h-6.15v5.45h-14.45v3h17.3v2.3h-17.3v3.2Zm-37.75,5h31.75v15.25h-3.25v-1.6h-25.3v1.7H1130Zm3.2,2.4v3.2h25.3v-3.2Zm25.3,8.85v-3.4h-25.3v3.4Zm-11.4-32.7h11.15v-3.05h-11.15Zm0,5.7h11.15v-3.2h-11.15Z"/><path class="cls-3" d="M120.7,1265.36H95.86v14c0,3-1,4.2-3.06,4.86s-5.93.72-12.29.66a17.27,17.27,0,0,0-1.74-3.9c5.16.12,9.83.06,11.15.06s1.87-.48,1.87-1.74v-13.92H67v-3.9H91.79v-10.2H70.91v-3.84H91.79v-9.6c-6.66.66-13.56,1.14-19.8,1.44a16.18,16.18,0,0,0-1-3.54c14.16-.72,31.79-2.28,40.73-5.16l2.94,3.24a123.25,123.25,0,0,1-18.78,3.6v10h21.48v3.84H95.86v10.2H120.7Z"/><path class="cls-3" d="M180.22,1276.76H155.63v4.14c0,2.34-.67,3.24-2.53,3.78s-5.21.48-10.67.48a11,11,0,0,0-1.38-3.12c4.32.12,8.22.06,9.24,0s1.44-.3,1.44-1.2v-4.08h-24.3v-2.94h24.3v-4.32H130.85v-2.94h20.88v-3.9c-6.12.3-12.48.48-18.12.48a7.33,7.33,0,0,0-.78-2.7c13.14-.18,29.27-1,37.79-2.46l2.58,2.58c-4.74.78-11,1.44-17.57,1.86v4.14H177v2.94H155.63v4.32h24.59Zm-47.63-26.46h-3.72v-11.76h10.32a47.56,47.56,0,0,0-4.38-6.24l3.42-1.38a33.88,33.88,0,0,1,4.74,6.3l-2.7,1.32h11.4v-8.1h4v8.1h11.16l-2.46-1.08a43.71,43.71,0,0,0,5.16-6.6l4,1.5a73.78,73.78,0,0,1-5.64,6.18H179v11.76h-3.84V1242H132.59Zm4.8,6.3v-10.68h33.23v10.68Zm3.72-2.76h25.61v-5.1H141.11Z"/><path class="cls-3" d="M958.34,1348.2a75.54,75.54,0,0,1-5.76,11.94h32.7v27.3h-4.14v-3.12H953.78v3.42h-4v-23.4a50.91,50.91,0,0,1-11.46,11.52,21.84,21.84,0,0,0-2.64-3.18c8.64-5.94,14.46-14.76,18.36-24.48H937.64v-3.9h17.82a86,86,0,0,0,3.12-11.34l4.14.84c-.84,3.48-1.8,7-3,10.5h30v3.9ZM953.78,1364v16.5h27.36V1364Z"/><path class="cls-3" d="M1003.16,1349.58a22.26,22.26,0,0,1-4.44,9.78A10.13,10.13,0,0,0,996,1357c3.84-4.68,4.44-10.8,4.44-15.3v-6.18h20.88v9.78h-17.58a19.25,19.25,0,0,1-.42,3.18h18.48v11h-18.66Zm40,33.78c0,2.28-.6,3.24-2.4,3.84s-4.86.48-9.54.48a15,15,0,0,0-1.38-3.24c3.72.18,7.08.12,8,.06s1.32-.3,1.32-1.08V1377c-10.26,1.86-20.94,3.72-28.8,5l-1.08-3.24c7.26-1,18.9-2.58,29.88-4.2v-9.36h-30.3v7.08c0,4.92-.54,11.58-3.66,16.26a15.67,15.67,0,0,0-3.12-2.46c2.7-4.08,3-9.66,3-13.86v-9.9h38.1Zm-39.18-45.12v4.38h13.92v-4.38Zm2.58,18.48h11.76v-5.52h-11.76Zm5.52,11c7.5.72,17.7,2.16,23.1,3.3l-.78,2.7c-5.46-1.14-15.54-2.76-23.22-3.66Zm26.76-19.14v3.9h10.44v2.88H1038.8v5.28H1035v-5.28h-10.68v-2.88H1035v-3.9H1023v-2.94h7.5a21.41,21.41,0,0,0-2.1-4.44l2.94-.6a19.52,19.52,0,0,1,2.46,5h5.94a37.43,37.43,0,0,0,2.4-5l3.3.78c-.78,1.5-1.56,2.94-2.34,4.2h7.8v2.94Zm10.38-8.76H1024.4V1337h10.74a21,21,0,0,0-1.44-3.36l3.54-.72a21.07,21.07,0,0,1,1.92,4.08h10Z"/><path class="cls-4" d="M186.79,1307a72.79,72.79,0,0,0,58,6.35c1.84-.59,1-3.48-.79-2.9a70.19,70.19,0,0,1-44.13-.72,67.37,67.37,0,0,1-11.58-5.32,1.5,1.5,0,0,0-1.51,2.59Z"/><path class="cls-4" d="M926.06,1406a82.5,82.5,0,0,1-45.75,24.4,78.39,78.39,0,0,1-14.83,1.11c-1.93,0-1.93,3,0,3a85.11,85.11,0,0,0,51.08-16.2,82.75,82.75,0,0,0,11.62-10.19c1.32-1.4-.8-3.52-2.12-2.12Z"/></svg>