<svg id="Layer_1" data-name="Layer 1" xmlns="http://www.w3.org/2000/svg" viewBox="0 0 1242 2208"><defs><style>.cls-1{fill:#f6eabe;}.cls-2{fill:#999;}.cls-3{fill:#666;stroke:#999;}.cls-3,.cls-4{stroke-miterlimit:10;}.cls-4{fill:none;stroke:#000;stroke-linecap:round;stroke-width:50px;}</style></defs><rect class="cls-1" width="1242" height="2208"/><rect class="cls-2" x="1113.23" y="405" width="65" height="126" rx="12"/><path d="M904.69,186.49c-47.64,176.27-132.6,312.83-242.17,416.05,87.34,70.67,194.53,123.07,324,152.45-11.12,11.12-25.41,33.35-33.35,46.84-134.18-32.55-243-88.13-331.89-163.56C522,721.64,406.06,780.4,283.79,818.51c-5.56-13.5-21.44-36.53-32.56-46.85,121.49-35.73,235-90.51,331.1-168.32-100-99.25-170.71-227.88-220.73-381.12H302.84V170.61H862.61l7.14-1.59ZM414,222.22C459.26,359.58,527.54,476.3,623.62,567.61c95.28-88.14,170.71-201.68,215.17-345.39ZM664.11,426.28c-25.41-36.53-81.78-92.11-128.63-130.22l35.73-28.58c47.64,37.32,104,90.51,130.22,126.24Z"/><path d="M324.15,1784.69a98.85,98.85,0,0,1-6.18,13.56v39.59h-3.84v-33.35a61.73,61.73,0,0,1-5.46,7,32.86,32.86,0,0,0-2.28-3.9c5.58-5.87,10.8-14.87,14-24Zm34.14,28c-2.1,1.26-4.44,2.64-6.84,3.78,2,6.06,5.82,11.82,10.38,14.52a11.2,11.2,0,0,0-2.64,2.94c-4.62-3.18-8.46-9.42-10.68-16a27.45,27.45,0,0,1-2.76,1.2c2.58,6.84,1.86,14-1,16.68a6.91,6.91,0,0,1-5.22,1.92c-1.08,0-2.4-.06-3.78-.18a9.31,9.31,0,0,0-1-3.42,38.26,38.26,0,0,0,4.14.24,3.66,3.66,0,0,0,3.12-1.14c1.56-1.38,2.22-5.16,1.44-9.36-5.16,4.92-13.08,9.36-19.8,11.7a15.8,15.8,0,0,0-2.34-2.82c7.62-2.28,16.62-7.14,21.3-12.24a35.76,35.76,0,0,0-1.5-3.48,63.52,63.52,0,0,1-17.22,9.9,16.14,16.14,0,0,0-2.22-2.64c5.94-1.8,13.74-5.76,17.88-9.54a16.39,16.39,0,0,0-2.94-3.18,58.44,58.44,0,0,1-13.56,7.26,11.26,11.26,0,0,0-2.22-2.58,52.7,52.7,0,0,0,15.06-7.55H325.71v-9.36c-1.14,1-2.28,2-3.54,2.94a9.37,9.37,0,0,0-2.52-2.58,44.69,44.69,0,0,0,13.86-16.26l3.84.72c-.6,1.2-1.32,2.34-2,3.54h11.1l.72-.18,2.34,1.68a52.13,52.13,0,0,1-4.8,6.84h13.08v12.66H340.17c-.36.36-.78.66-1.2,1a21,21,0,0,1,5.64,6.84,110,110,0,0,0,10.92-6.42Zm-25.08-21.83A54.58,54.58,0,0,1,329,1796h11.58a37.88,37.88,0,0,0,3.72-5.16Zm-3.9,14.69h10.5v-6.42h-10.5Zm24.72-6.42H343.41v6.42H354Z"/><path d="M387.39,1796.63a67.9,67.9,0,0,1-7.2,12.24v28.85h-4v-24a41.57,41.57,0,0,1-7.26,6.41,17,17,0,0,0-2-3.48c7-5,12.3-12.23,16.14-20H368.25v-3.84h16.44a65.25,65.25,0,0,0,3.3-9.42l4.08,1c-.9,2.82-1.86,5.64-3,8.4h31.26v3.84Zm32.94,36.23v3.72H384.21v-3.72h16v-17.52H386.55v-3.71h13.68v-11.82h4v11.82H418v3.71h-13.8v17.52Z"/><path d="M481.17,1818.22H456.33v14c0,3-1,4.2-3.06,4.86s-5.94.72-12.3.66a17.27,17.27,0,0,0-1.74-3.9c5.16.12,9.84.06,11.16.06s1.86-.48,1.86-1.74v-13.92H427.41v-3.9h24.84v-10.19H431.37v-3.84h20.88v-9.6c-6.66.66-13.56,1.14-19.8,1.44a16.18,16.18,0,0,0-1-3.54c14.16-.72,31.8-2.28,40.74-5.16l2.94,3.24a123.25,123.25,0,0,1-18.78,3.6v10h21.48v3.84H456.33v10.19h24.84Z"/><path d="M507.39,1812.94l-7.62,2.34v17.82c0,2.34-.6,3.42-2,4.08s-3.84.78-7.8.72a17,17,0,0,0-1.32-3.66c2.76.06,5.34.06,6.06,0s1.14-.24,1.14-1.14v-16.56l-8.4,2.58-1.26-3.95c2.64-.73,6-1.63,9.66-2.71v-13.07h-8.7v-3.84h8.7v-12.12h4v12.12h7v3.84h-7v11.87c2.34-.59,4.74-1.38,7.08-2.09Zm10.68-6.3c-5.52,0-7.26-1.73-7.26-6.72v-16.31h3.9v7.32H539v3.54h-24.3V1800c0,2.29.66,3.13,3.3,3.13h16.14a49.43,49.43,0,0,0,6.42-.37c.18,1.08.36,2.58.54,3.49a38.74,38.74,0,0,1-6.72.35Zm-7.26,5.34h28v25.74h-4v-2.52H514.59V1838h-3.78Zm3.78,3.48v6.36h20.22v-6.36Zm20.22,16.38v-6.72H514.59v6.72Z"/><path d="M598.05,1794.05v27.77H594v-3.48H576.15v19.56H572v-19.56H554.25v3.78h-4v-28.07H572v-10.74h4.14v10.74Zm-26,20.33V1798H554.25v16.43Zm22,0V1798H576.15v16.43Z"/><path d="M613.83,1806.22V1838h-3.9V1786h21.42v20.27Zm0-17.15v5.4h13.74v-5.4Zm13.74,14v-5.64H613.83v5.64Zm-.84,29.27v3.06h-3.66v-24.53h22.14v21.47Zm0-18.36v5.88h14.76V1814Zm14.76,15.18V1823H626.73v6.18Zm17.4,3.3c0,2.7-.66,4-2.52,4.74s-5,.72-10,.72a13.68,13.68,0,0,0-1.38-4.08c3.78.18,7.44.12,8.46.06s1.44-.36,1.44-1.44v-26.21h-18V1786h22Zm-18.12-43.43v5.4h14.16v-5.4Zm14.16,14.1v-5.7H640.77v5.7Z"/><path d="M721,1810.91v2.81h-53.4v-2.81h24.48v-3.42H672.21v-2.58h19.86v-3.3H673.65V1799h18.42v-3.54H667.65v-2.58h24.42v-3.3H674v-2.52h18.06v-3.78H696v3.78h18.3v5.82h6.54v2.58h-6.54v6.12H696v3.3h20.64v2.58H696v3.42Zm-53.4,22.43H721v2.88h-53.4Zm46.8-16.86v13.86h-40v-13.86Zm-36.18,5.7h14v-3.24h-14Zm0,5.76h14v-3.36h-14Zm32.16-9H695.85v3.24h14.52Zm0,5.64H695.85v3.36h14.52ZM696,1792.91h14.34v-3.3H696Zm0,6.12h14.34v-3.54H696Z"/><path d="M781.59,1807.91v4.31H727.11v-4.31Z"/><path d="M804.93,1817.92c-.9-1.92-3.24-5.88-5.1-8.88v28.8h-3.66v-29.16c-2,7.14-4.86,14-7.68,18.3a24,24,0,0,0-2.28-4c3.72-5,7.5-14.75,9.3-23h-8.1v-3.77h8.76v-12.84h3.66v12.84h7.26v3.77h-7.26v4.21c1.68,2.16,6.3,8.75,7.38,10.31ZM820.05,1830a50.05,50.05,0,0,1-13.74,8.22c-.54-.84-1.62-2-2.34-2.94,4.5-1.68,10-4.8,12.6-7.44Zm21.54-24.24H805.65v-3.23h36Zm-27.3-13.61h-7.8v-3.12h7.8v-4.8h3.6v4.8h11v-4.8h3.72v4.8h8v3.12h-8V1800h-18.3ZM808.77,1827v-17.87h29.64V1827Zm3.6-10.32h9.06v-4.55h-9.06Zm0,7.32h9.06v-4.62h-9.06Zm5.52-31.85v5h11v-5Zm16.8,20h-9.54v4.55h9.54Zm0,7.25h-9.54V1824h9.54Zm-4.32,8.46a88.84,88.84,0,0,1,11.64,7.74l-3.18,2.58a84.32,84.32,0,0,0-11-7.86Z"/><path d="M901,1810.91v2.81h-53.4v-2.81h24.48v-3.42H852.21v-2.58h19.86v-3.3H853.65V1799h18.42v-3.54H847.65v-2.58h24.42v-3.3H854v-2.52h18.06v-3.78H876v3.78h18.3v5.82h6.54v2.58h-6.54v6.12H876v3.3h20.64v2.58H876v3.42Zm-53.4,22.43H901v2.88h-53.4Zm46.8-16.86v13.86h-40v-13.86Zm-36.18,5.7h14v-3.24h-14Zm0,5.76h14v-3.36h-14Zm32.16-9H875.85v3.24h14.52Zm0,5.64H875.85v3.36h14.52ZM876,1792.91h14.34v-3.3H876Zm0,6.12h14.34v-3.54H876Z"/><path d="M913.11,1819c4.68-2,7.26-4.86,7.56-9.17a4,4,0,0,1-1.14.11c-2.34,0-4.26-1.31-4.26-4.07a4,4,0,0,1,4.32-4.08c3.18,0,4.86,2.58,4.86,6.66,0,6.41-4,11.21-10.08,13.43Z"/><path d="M417.39,1884.94l-7.62,2.34v17.82c0,2.34-.6,3.42-2,4.08s-3.84.78-7.8.72a17,17,0,0,0-1.32-3.66c2.76.06,5.34.06,6.06,0s1.14-.24,1.14-1.14v-16.56l-8.4,2.58-1.26-3.95c2.64-.73,6-1.63,9.66-2.71v-13.07h-8.7v-3.84h8.7v-12.12h4v12.12h7v3.84h-7v11.87c2.34-.59,4.74-1.38,7.08-2.09Zm10.68-6.3c-5.52,0-7.26-1.73-7.26-6.72v-16.31h3.9v7.32H449v3.54h-24.3V1872c0,2.29.66,3.13,3.3,3.13h16.14a49.43,49.43,0,0,0,6.42-.37c.18,1.08.36,2.58.54,3.49a38.74,38.74,0,0,1-6.72.35Zm-7.26,5.34h28v25.74h-4v-2.52H424.59V1910h-3.78Zm3.78,3.48v6.36h20.22v-6.36Zm20.22,16.38v-6.72H424.59v6.72Z"/><path d="M472.47,1885.78a58,58,0,0,1-12.06,19.14,26,26,0,0,0-3.66-2.46,47,47,0,0,0,11.64-17.75Zm13.62-7.91v31.79H482v-31.79H458.07v-4h52.5v4Zm19.2-14.22H463.41v-3.9h41.88Zm-5.16,20.93c4.5,5.58,9.24,13.14,11,18.24l-3.9,1.8c-1.74-5-6.3-12.78-10.8-18.48Z"/><path d="M537.39,1884.94l-7.62,2.34v17.82c0,2.34-.6,3.42-2,4.08s-3.84.78-7.8.72a17,17,0,0,0-1.32-3.66c2.76.06,5.34.06,6.06,0s1.14-.24,1.14-1.14v-16.56l-8.4,2.58-1.26-3.95c2.64-.73,6-1.63,9.66-2.71v-13.07h-8.7v-3.84h8.7v-12.12h4v12.12h7v3.84h-7v11.87c2.34-.59,4.74-1.38,7.08-2.09Zm10.68-6.3c-5.52,0-7.26-1.73-7.26-6.72v-16.31h3.9v7.32H569v3.54h-24.3V1872c0,2.29.66,3.13,3.3,3.13h16.14a49.43,49.43,0,0,0,6.42-.37c.18,1.08.36,2.58.54,3.49a38.74,38.74,0,0,1-6.72.35Zm-7.26,5.34h28v25.74h-4v-2.52H544.59V1910h-3.78Zm3.78,3.48v6.36h20.22v-6.36Zm20.22,16.38v-6.72H544.59v6.72Z"/><path d="M582.57,1894.06a76.31,76.31,0,0,1-3.06,14.4,13.58,13.58,0,0,0-2.88-1,64.62,64.62,0,0,0,2.94-13.92Zm10.92-3.12c-.18-1-.48-2.1-.78-3.42-11.82,2.28-13.5,2.64-14.46,3.24a29.7,29.7,0,0,0-1.2-3.42c1.14-.24,2.34-1.74,4-4a59.29,59.29,0,0,0,4.8-7.38c-5.94.77-7.08,1.08-7.86,1.5a24.67,24.67,0,0,0-1.2-3.54c.9-.24,1.86-1.45,2.88-3.24a82.11,82.11,0,0,0,6.78-15.24l3.48,1.38a89.81,89.81,0,0,1-8.1,16.5l5.94-.6a87.33,87.33,0,0,0,3.78-7.92l3.3,1.68a118.67,118.67,0,0,1-12.12,19.74l9.18-1.57c-.6-1.92-1.26-4-1.92-5.64l2.82-.78a78.5,78.5,0,0,1,3.72,11.76Zm-5.46,2.58c.66,4,1.38,9.18,1.56,12.6l-2.82.66c-.18-3.42-.84-8.7-1.5-12.72Zm5.52-1.68a81.1,81.1,0,0,1,3.12,10l-2.76.9a83.14,83.14,0,0,0-2.94-10.08Zm13.68-7.62a64.21,64.21,0,0,1-2.94,13.38c2.94,6.9,8.34,8.22,16.2,8.22,3.54,0,8.28-.18,11.7-.54a10.86,10.86,0,0,0-1.08,3.6c-3.06.18-7.26.3-10.74.3-8.52,0-14-1.5-17.58-7.92a26.27,26.27,0,0,1-6.18,8.7,10.27,10.27,0,0,0-2.34-2.7c4.5-3.9,7.68-10.8,9.18-20.16h-2.88a6.19,6.19,0,0,0-3.24.84,17.4,17.4,0,0,0-1.5-3.42,3.83,3.83,0,0,0,2.4-1.73,102.9,102.9,0,0,0,4.44-10.21h-6.78V1869h8.28l.72-.35,2.64.78c-1.5,3.36-4.26,10.07-6.36,14.21H605l.66-.12Zm-5.16-18a74.69,74.69,0,0,0-5.16-9.36l3-1.08a61.4,61.4,0,0,1,5.22,9.06Zm26.82,14a58.41,58.41,0,0,0-8.34-7.08,38.93,38.93,0,0,1-12.6,7.13,10.21,10.21,0,0,0-1.92-2.63,37,37,0,0,0,11.88-6.36,65.38,65.38,0,0,0-6.36-4,30.15,30.15,0,0,1-2.94,2.58,18.39,18.39,0,0,0-2.52-2.34,29.53,29.53,0,0,0,10.08-12.36l3.18.84a31.36,31.36,0,0,1-2.22,4.2h9.48l.54-.18,2.16,1a31.42,31.42,0,0,1-6.24,9.72,76.45,76.45,0,0,1,8.4,7.08Zm-11,23.21V1898H607.71V1895h10.14v-4.08h-7.62v-2.88h7.62v-3.77H609v-3h8.82v-3.54h3.24v3.54h8.34v3h-8.34v3.77h7.26v2.88h-7.26V1895h9.72V1898h-9.72v5.46Zm-2.7-40.25q-.72,1-1.44,1.8a72.9,72.9,0,0,1,6.66,4.07,25.86,25.86,0,0,0,4.44-5.87Z"/><path d="M653.25,1856c-1,2.94-2.1,6.3-3.18,8.88h10.14v38.75h-16.8v4.8h-3.66v-43.55h6.66a64.68,64.68,0,0,0,2.58-9.72Zm3.3,12.47H643.41v13.08h13.14Zm0,31.56v-14.88H643.41v14.88Zm33.06-33.17c-1,27.53-1.8,36.71-4.2,39.59a5.6,5.6,0,0,1-4.56,2.28,74.94,74.94,0,0,1-8.82-.12,9.42,9.42,0,0,0-1.32-3.9c3.9.36,7.5.36,8.82.36s1.92-.12,2.52-.9c2-2.1,2.94-11.34,3.72-35.7H670.05a55.33,55.33,0,0,1-5.64,10.68,36.22,36.22,0,0,0-3.36-2.22c4.08-5.33,7.32-13.61,9.18-21.89l3.84.84c-.78,3-1.62,6-2.64,8.88h18.18Zm-12.78,27a106.51,106.51,0,0,0-9.3-13.92l3.06-1.79a102.47,102.47,0,0,1,9.6,13.61Z"/><path d="M715.53,1856.63a90.29,90.29,0,0,1-6.18,12.84v40.43h-4v-34.19a70.15,70.15,0,0,1-6.36,7.79,23.56,23.56,0,0,0-2.28-3.9c5.94-5.81,11.58-14.81,15.06-24Zm35.76,47v3.84H713.85v-3.84h21.06a266.82,266.82,0,0,0,5.88-30.05l4.14.77c-1.56,9.25-4,21.18-6.3,29.28Zm-2.52-33.47H716.49v-3.84h32.28Zm-24.12,30.53a209.72,209.72,0,0,0-4.2-25.8l3.6-.71a205.18,205.18,0,0,1,4.56,25.37Zm6.84-35.21a72.34,72.34,0,0,0-2.88-9.48l3.72-1a88.64,88.64,0,0,1,3.06,9.36Z"/><path d="M810.69,1905.1v3.06h-52.8v-3.06H766v-25.19h13.86c.18-1.15.48-2.41.72-3.78H758.49V1873h22.68c.18-1.2.42-2.46.6-3.6H761.49v-11.7h46.2v11.7H785.85c-.24,1.14-.48,2.4-.72,3.6h24.3v3.18h-25q-.45,2.05-.9,3.78h18.84v25.19Zm-35.34-44.45h-10v5.7h10Zm-5.52,22v3.59h28.56v-3.59Zm28.56,6.11H769.83v3.66h28.56Zm-28.56,10h28.56v-3.84H769.83Zm0,6.36h28.56v-3.9H769.83Zm9.24-38.75h10.38v-5.7H779.07Zm14,0h10.56v-5.7H793.11Z"/><path d="M829.41,1873.67a9.06,9.06,0,1,1-9.06,9A9.09,9.09,0,0,1,829.41,1873.67Zm0,15.23a6.18,6.18,0,1,0,0-12.36,6.18,6.18,0,1,0,0,12.36Z"/><path d="M491.13,1944.17c4.44,10.31,12.24,20,20.76,24.71a23.11,23.11,0,0,0-3.06,3.36c-9-5.58-16.92-16.32-21.6-28.07h-1v22.43h14.28v4H486.27V1982h-4.14v-11.4H467.91v-4h14.22v-22.43h-1.08c-4.74,11.75-12.66,22.43-21.3,28.25a24.18,24.18,0,0,0-2.88-3.18c8-4.92,15.66-14.76,20.16-25.07H458.37v-4h23.76v-12.72h4.14v12.72h24v4Z"/><path d="M566.13,1966.54a33.64,33.64,0,0,1-8.22,7.38c2.4,2.82,5.22,4.44,8.16,4.38,1.68-.06,2.16-1.5,2.46-5.94a10.31,10.31,0,0,0,3.12,1.62c-.6,6.3-2.1,7.92-5.76,8-4.26,0-8.16-2.22-11.28-6a74.41,74.41,0,0,1-13.68,5.82,36.46,36.46,0,0,0-2.1-3.24,65.61,65.61,0,0,0,13.86-5.34,34.94,34.94,0,0,1-3.84-8.82H534.39v4.38l11.16-1-.06,2.88-11.1,1.08v6.12c0,2.1-.48,3.06-2.16,3.54s-4.38.54-8.94.54a19.42,19.42,0,0,0-1.26-3.18c3.36.12,6.48.06,7.38,0s1.2-.24,1.2-1v-5.7c-4.74.48-9.12.9-12.72,1.2l-.42-3.3c3.54-.24,8.1-.54,13.14-1v-4.68h-12.9v-3.18h12.9v-4.44c-3.78.42-7.68.72-11.28.91a12,12,0,0,0-.9-2.71c8.16-.48,18.18-1.55,23.52-2.94l2.52,2.58c-2.82.66-6.36,1.26-10.08,1.74v4.86h13.68a52.67,52.67,0,0,1-1.2-8.94h3.84a57.48,57.48,0,0,0,1.2,8.94h19v3.18H552.81a31.91,31.91,0,0,0,3.12,6.9,27.09,27.09,0,0,0,6.72-5.94Zm4.62-15.17h-53v-3.24h24.36V1944h-18.6v-3.06h18.6v-4H520.29v-3.18H533a30,30,0,0,0-3.48-5.16l3.42-1.26a24.4,24.4,0,0,1,4.32,6.24l-.42.18h14.64a54.7,54.7,0,0,0,3.6-6.6l4.14,1.2c-1.2,1.86-2.52,3.84-3.72,5.4h12.84V1937H546.15v4h18.9V1944h-18.9v4.14h24.6Zm-5.7,9a34,34,0,0,0-9.48-5.52l2.16-2.46a38.32,38.32,0,0,1,9.66,5.22Z"/><path d="M606.69,1976.62a70.7,70.7,0,0,0,7.38.36c2.1.06,14.76,0,17.58-.06a16.36,16.36,0,0,0-1.44,3.84H614c-12.3,0-19.92-1.92-24.72-10.38a31.55,31.55,0,0,1-9.48,11.7,19.84,19.84,0,0,0-3.06-2.82c6.3-4.14,10.2-10.92,11.82-19.86l4,.6a55.92,55.92,0,0,1-1.5,6.06c2.34,5.64,6.3,8.52,11.7,9.84v-18.54H578v-3.6h52.68v3.6H606.69v7.08h20v3.6h-20Zm17.22-27.17h-39.6v-19.56h39.6Zm-4-16.44H588.21v5.16h31.68Zm0,8.1H588.21v5.27h31.68Z"/><path d="M657.39,1956.94l-7.62,2.34v17.82c0,2.34-.6,3.42-2,4.08s-3.84.78-7.8.72a17,17,0,0,0-1.32-3.66c2.76.06,5.34.06,6.06,0s1.14-.24,1.14-1.14v-16.56l-8.4,2.58-1.26-3.95c2.64-.73,6-1.63,9.66-2.71v-13.07h-8.7v-3.84h8.7v-12.12h4v12.12h7v3.84h-7v11.87c2.34-.59,4.74-1.38,7.08-2.09Zm10.68-6.3c-5.52,0-7.26-1.73-7.26-6.72v-16.31h3.9v7.32H689v3.54h-24.3V1944c0,2.29.66,3.13,3.3,3.13h16.14a49.43,49.43,0,0,0,6.42-.37c.18,1.08.36,2.58.54,3.49a38.74,38.74,0,0,1-6.72.35Zm-7.26,5.34h28v25.74h-4v-2.52H664.59V1982h-3.78Zm3.78,3.48v6.36h20.22v-6.36Zm20.22,16.38v-6.72H664.59v6.72Z"/><path d="M702.57,1966.06a76.31,76.31,0,0,1-3.06,14.4,13.58,13.58,0,0,0-2.88-1,64.62,64.62,0,0,0,2.94-13.92Zm10.92-3.12c-.18-1-.48-2.1-.78-3.42-11.82,2.28-13.5,2.64-14.46,3.24a29.7,29.7,0,0,0-1.2-3.42c1.14-.24,2.34-1.74,4-4a59.29,59.29,0,0,0,4.8-7.38c-5.94.77-7.08,1.08-7.86,1.5a24.67,24.67,0,0,0-1.2-3.54c.9-.24,1.86-1.45,2.88-3.24a82.11,82.11,0,0,0,6.78-15.24l3.48,1.38a89.81,89.81,0,0,1-8.1,16.5l5.94-.6a87.33,87.33,0,0,0,3.78-7.92l3.3,1.68a118.67,118.67,0,0,1-12.12,19.74l9.18-1.57c-.6-1.92-1.26-4-1.92-5.64l2.82-.78a78.5,78.5,0,0,1,3.72,11.76Zm-5.46,2.58c.66,4,1.38,9.18,1.56,12.6l-2.82.66c-.18-3.42-.84-8.7-1.5-12.72Zm5.52-1.68a81.1,81.1,0,0,1,3.12,10l-2.76.9a83.14,83.14,0,0,0-2.94-10.08Zm13.68-7.62a64.21,64.21,0,0,1-2.94,13.38c2.94,6.9,8.34,8.22,16.2,8.22,3.54,0,8.28-.18,11.7-.54a10.86,10.86,0,0,0-1.08,3.6c-3.06.18-7.26.3-10.74.3-8.52,0-14-1.5-17.58-7.92a26.27,26.27,0,0,1-6.18,8.7,10.27,10.27,0,0,0-2.34-2.7c4.5-3.9,7.68-10.8,9.18-20.16h-2.88a6.19,6.19,0,0,0-3.24.84,17.4,17.4,0,0,0-1.5-3.42,3.83,3.83,0,0,0,2.4-1.73,102.9,102.9,0,0,0,4.44-10.21h-6.78V1941h8.28l.72-.35,2.64.78c-1.5,3.36-4.26,10.07-6.36,14.21H725l.66-.12Zm-5.16-18a74.69,74.69,0,0,0-5.16-9.36l3-1.08a61.4,61.4,0,0,1,5.22,9.06Zm26.82,14a58.41,58.41,0,0,0-8.34-7.08,38.93,38.93,0,0,1-12.6,7.13,10.21,10.21,0,0,0-1.92-2.63,37,37,0,0,0,11.88-6.36,65.38,65.38,0,0,0-6.36-4,30.15,30.15,0,0,1-2.94,2.58,18.39,18.39,0,0,0-2.52-2.34,29.53,29.53,0,0,0,10.08-12.36l3.18.84a31.36,31.36,0,0,1-2.22,4.2h9.48l.54-.18,2.16,1a31.42,31.42,0,0,1-6.24,9.72,76.45,76.45,0,0,1,8.4,7.08Zm-11,23.21V1970H727.71V1967h10.14v-4.08h-7.62v-2.88h7.62v-3.77H729v-3h8.82v-3.54h3.24v3.54h8.34v3h-8.34v3.77h7.26v2.88h-7.26V1967h9.72V1970h-9.72v5.46Zm-2.7-40.25q-.72,1-1.44,1.8a72.9,72.9,0,0,1,6.66,4.07,25.86,25.86,0,0,0,4.44-5.87Z"/><path d="M769.41,1945.67a9.06,9.06,0,1,1-9.06,9A9.09,9.09,0,0,1,769.41,1945.67Zm0,15.23a6.18,6.18,0,1,0,0-12.36,6.18,6.18,0,1,0,0,12.36Z"/><path d="M411.93,2029.06s-.06,1.32-.12,1.86c-1.08,13.56-2.1,18.84-4.08,20.82-1.26,1.32-2.46,1.68-4.56,1.8a90.37,90.37,0,0,1-9.48-.18,8,8,0,0,0-1.44-4c4,.36,8,.36,9.48.36s2-.06,2.58-.6c1.5-1.2,2.4-5.7,3.3-16.32h-22.8c1.14-4.56,2.46-11.63,3.24-17.09h19.68v-10.08h-22v-3.78h25.92v17.58h-20.1c-.6,3.3-1.2,6.72-1.86,9.65Zm18.36-29.15V2054h-4v-54.11Z"/><path d="M492.51,2007.23v33.29h-4.08v-3.18H471.15v16.5H467v-16.5h-16.8v3.54h-4v-33.65H467v-7.92h4.14v7.92Zm-42.3,3.84v9.18H467v-9.18Zm16.8,22.49V2024h-16.8v9.6Zm4.14-22.49v9.18h17.28v-9.18Zm17.28,22.49V2024H471.15v9.6Z"/><path d="M555,2031.17s-.06,1.19-.12,1.73c-1.14,12.66-2.28,17.64-4.14,19.56a5.52,5.52,0,0,1-4,1.56,66.58,66.58,0,0,1-7.5-.12,9.39,9.39,0,0,0-1.2-3.66c3.12.3,6.06.3,7.2.3a3,3,0,0,0,2.22-.54c1.26-1.32,2.4-5.34,3.36-15.3H513.27a59.21,59.21,0,0,1-9.66,7.32,19.86,19.86,0,0,0-2.22-3.3c10.26-6,17.82-15.18,23.1-25.43h-20v-3.66h21.72a82.29,82.29,0,0,0,3.84-10.32l3.9,1a92.32,92.32,0,0,1-3.54,9.3h15.78c-.72,3.48-1.56,7.62-2.34,10.74h7c-.66,3.47-1.5,7.67-2.28,10.8Zm-49.38,20.33c3.42-3.24,5.7-8.58,7-13.2l3.3,1.08c-1.44,4.92-3.54,10.62-7.14,14.16ZM518,2009.33a39,39,0,0,0-6-8.34l3.42-1.44a39.57,39.57,0,0,1,6.18,8Zm26.82,21.84c.54-2.11,1.08-4.69,1.56-7.21H522.57a75.18,75.18,0,0,1-5.76,7.21Zm-21.48,7.91a44,44,0,0,1,1.8,11.88l-3.48.54a39.57,39.57,0,0,0-1.62-11.94Zm5.4-25.79c-1.14,2.4-2.46,4.79-3.84,7.08h15.24c.54-2,1.14-4.62,1.62-7.08Zm3.18,25a43,43,0,0,1,3.6,10.26l-3.3.9a45.91,45.91,0,0,0-3.42-10.44Zm10.32,8a38.83,38.83,0,0,0-4.56-8.1l2.76-1.08a34.18,34.18,0,0,1,4.74,7.86Z"/><path d="M602.49,2024.92a42.2,42.2,0,0,1-10.08,15.36c6.24,4.86,14.28,8,24.06,9.66a17,17,0,0,0-2.46,3.66c-10-1.92-18.18-5.4-24.6-10.68-6.6,5.28-14.94,8.76-24.78,11.28a17.47,17.47,0,0,0-2.4-3.66c9.78-2.1,17.94-5.28,24.3-10.26a43.58,43.58,0,0,1-9.9-15l3.6-1.15a36.86,36.86,0,0,0,9.24,13.62,36.34,36.34,0,0,0,9-14Zm12.42-13.31H563.49v-3.9h25.14a43,43,0,0,0-4.08-7.56l3.66-1.32a38.5,38.5,0,0,1,4.44,7.68l-3,1.2h25.26Zm-32.46,3.6a68.25,68.25,0,0,1-15.6,13.85,31.16,31.16,0,0,0-3.06-3,54.88,54.88,0,0,0,14.88-12.35Zm17.16-1.5c5.52,3.71,12.24,9.17,15.48,13l-3.3,2.58c-3-3.84-9.66-9.47-15.24-13.31Z"/><path d="M643.41,2014.19a74.51,74.51,0,0,0-9.66-8.28,56.9,56.9,0,0,1-6.78,8.63h15V2018h-6.54v6.89h8.34v3.54h-8.34v17l8.28-1.74L644,2047c-7.32,1.74-15.18,3.54-20.82,4.86l-.9-3.6c2.64-.54,6.12-1.2,9.9-2v-17.76h-9.24v-3.54h9.24V2018h-6v-2.64c-1,.95-1.92,1.86-2.94,2.69-.3-.89-1.26-3-1.74-3.95A45,45,0,0,0,633.69,1999l3.12,1.32a17.36,17.36,0,0,1-1.32,2.58,78.87,78.87,0,0,1,9.84,8.1Zm-16.62,17.63a67.42,67.42,0,0,1,2.46,11.16l-2.88.78a60.64,60.64,0,0,0-2.22-11.22Zm10.44,10.38a83.48,83.48,0,0,0,2.82-11.1l3,1c-1,3.65-2.34,8.15-3.36,11Zm39.18-23v3.66h-31v-3.66h7V2011h-5.76v-3.6h5.76v-8H656v8h9.78v-8h3.6v8h5.22v3.6h-5.22v8.22Zm-27.24,8.69h23.64v26H669v-2.58H652.77v2.7h-3.6Zm3.6,3.42v6.54H669v-6.54ZM669,2047.9v-6.72H652.77v6.72Zm-13-28.73h9.78V2011H656Z"/><path d="M702.75,2032.06l-3.66,3.12a93.63,93.63,0,0,0-13.32-13.38l3.42-3.11A118.53,118.53,0,0,1,702.75,2032.06Z"/><path d="M752.49,2024.92a42.2,42.2,0,0,1-10.08,15.36c6.24,4.86,14.28,8,24.06,9.66a17,17,0,0,0-2.46,3.66c-10-1.92-18.18-5.4-24.6-10.68-6.6,5.28-14.94,8.76-24.78,11.28a17.47,17.47,0,0,0-2.4-3.66c9.78-2.1,17.94-5.28,24.3-10.26a43.58,43.58,0,0,1-9.9-15l3.6-1.15a36.86,36.86,0,0,0,9.24,13.62,36.34,36.34,0,0,0,9-14Zm12.42-13.31H713.49v-3.9h25.14a43,43,0,0,0-4.08-7.56l3.66-1.32a38.5,38.5,0,0,1,4.44,7.68l-3,1.2h25.26Zm-32.46,3.6a68.25,68.25,0,0,1-15.6,13.85,31.16,31.16,0,0,0-3.06-3,54.88,54.88,0,0,0,14.88-12.35Zm17.16-1.5c5.52,3.71,12.24,9.17,15.48,13l-3.3,2.58c-3-3.84-9.66-9.47-15.24-13.31Z"/><path d="M820.65,2006.33c-3.6,13.32-10,23.63-18.3,31.43a59.09,59.09,0,0,0,24.48,11.52,21,21,0,0,0-2.52,3.54,59.7,59.7,0,0,1-25.08-12.36,73.33,73.33,0,0,1-25.5,13.62,12.94,12.94,0,0,0-2.46-3.54,71.57,71.57,0,0,0,25-12.72c-7.56-7.5-12.9-17.21-16.68-28.79h-4.44v-3.9h42.3l.54-.12Zm-37.08,2.7c3.42,10.38,8.58,19.19,15.84,26.09A58.49,58.49,0,0,0,815.67,2009Zm18.9,15.42a59.25,59.25,0,0,0-9.72-9.84l2.7-2.16a60,60,0,0,1,9.84,9.54Z"/><path d="M844.41,2017.67a9.06,9.06,0,1,1-9.06,9A9.09,9.09,0,0,1,844.41,2017.67Zm0,15.23a6.18,6.18,0,1,0,0-12.36,6.18,6.18,0,1,0,0,12.36Z"/><rect class="cls-2" x="1113.23" y="1181" width="65" height="219" rx="12"/><path class="cls-1" d="M1157.28,1219.79a27.61,27.61,0,0,0,11.5,8.1,11.65,11.65,0,0,0-2.15,2.55,30.77,30.77,0,0,1-12.8-10.65h-15.95a34.39,34.39,0,0,1-13,11.3,11.43,11.43,0,0,0-2.15-2.55,30.39,30.39,0,0,0,11.6-8.75h-11.1v-2.85h10v-16.15h-7.7V1198h7.7v-5h3.3v5H1155v-5h3.35v5H1166v2.8h-7.65v16.15h9.8v2.85Zm-10,14.5h17.3v2.85H1127v-2.85h16.9v-5.6h-10.45v-2.8h10.45v-4.4h3.35v4.4h10.65v2.8h-10.65Zm-10.8-33.5v3.6H1155v-3.6Zm0,9.8H1155v-3.65h-18.55Zm0,6.35H1155v-3.8h-18.55Z"/><path class="cls-1" d="M1141.48,1261.54s0,1.15,0,1.55c-.6,15.85-1.2,21.2-2.6,23a3.71,3.71,0,0,1-2.8,1.45,32.65,32.65,0,0,1-4.45,0,9.25,9.25,0,0,0-.85-3c1.75.15,3.2.15,3.9.15a1.42,1.42,0,0,0,1.45-.65c1-1.2,1.6-6,2.15-19.35h-6.8c-.55,10-2,18.25-6.45,23.65a9.53,9.53,0,0,0-2.55-2.35c5.45-6.45,5.9-17.85,6.1-31.55h-5.2v-3.1h20.1v3.1h-11.65c0,2.45-.1,4.85-.2,7.15Zm-7.9-10.45a33.47,33.47,0,0,0-4.25-7.15l2.9-1.15a31.92,31.92,0,0,1,4.4,7Zm23.85-7.45a15.26,15.26,0,0,1-.85,2.55c2.65,5.45,7.7,11.35,12.45,14a13,13,0,0,0-2.45,2.75c-4.25-2.7-8.5-8-11.4-13.3a32.61,32.61,0,0,1-11,13.6,12.79,12.79,0,0,0-2.35-2.65c5.85-3.6,10.35-10.2,12.5-17.85Zm-8.3,32.45a74,74,0,0,1,13.6,8.25l-2.25,2.9c-2.85-2.6-8.75-6.3-13.4-8.65Zm9.5-4.85a66.22,66.22,0,0,0-8.6-6.85l2.15-2.2a67.46,67.46,0,0,1,8.75,6.55Z"/><path class="cls-1" d="M1134.73,1306c-1.6,7.2-4.55,16.15-9.1,21.7a19.23,19.23,0,0,0-3.1-1.8c4.55-5.25,7.3-13.85,8.55-20.55Zm12.9-12.3v40c0,2.55-.7,3.6-2.35,4.2s-4.8.6-9.4.6a15.62,15.62,0,0,0-1.4-3.45c3.7.1,7.3.1,8.25.05s1.45-.35,1.45-1.4v-40Zm11.6,11.3c4.45,7,8.7,16.1,10,22l-3.45,1.45c-1.25-5.85-5.25-15.15-9.6-22.3Z"/><path class="cls-1" d="M1163.88,1370.74a72.75,72.75,0,0,1-7.65,3.65,19.75,19.75,0,0,0,12.1,9.55,10.66,10.66,0,0,0-2.1,2.6,22.77,22.77,0,0,1-12.5-11.1c-1.1.45-2.15.85-3.2,1.2,1.5,4.4.7,8.7-1.6,10.35a6,6,0,0,1-4.25,1.3c-1,0-2.25,0-3.55-.1a5.77,5.77,0,0,0-.9-2.85,30,30,0,0,0,4,.2,4.12,4.12,0,0,0,2.7-.65c1.35-1,1.9-3.75,1-6.9-5.55,3.7-14.45,7-22,8.45a11,11,0,0,0-1.45-2.4c8-1.1,17.65-4.65,22.65-8.35a13.35,13.35,0,0,0-1.25-2.15,69.47,69.47,0,0,1-17.55,6.35,7.59,7.59,0,0,0-1.4-2.15c5.8-1,13.4-3.4,17.7-5.85-.6-.55-1.25-1.15-2-1.7a80,80,0,0,1-15.25,4.15,16.41,16.41,0,0,0-1.55-2.2c5.7-.75,12.15-2.15,16.75-4.15h-18.55v-2.55h28c.3-.9.55-1.8.9-2.75h-21.7c1.25-2.8,3-7,4-10.25l3,.5a42,42,0,0,0-3.4-3.25l2-1.15h-6.25a29.23,29.23,0,0,1-5.1,5.6,25.27,25.27,0,0,0-2.35-2.2,26.89,26.89,0,0,0,7.5-9.35l3,.85c-.45.9-1,1.75-1.4,2.65h13.45v2.45h-8.3a44.9,44.9,0,0,1,4,3.65l-2.45,1.6a4.8,4.8,0,0,0-.7-.75c-.2.65-.45,1.25-.65,2h17.75l.6-.2,2.25.5c-.8,3.15-1.9,7-3,10.15h12V1368h-20.25c-.6.35-1.2.7-1.85,1a16.36,16.36,0,0,1,4.4,5.35,90.1,90.1,0,0,0,11.6-5.5Zm-10.2-10.3c.35-1.15.65-2.2,1-3.2h-17.7c-.45,1.15-.9,2.2-1.3,3.2Zm14.75-14.3v2.45h-16.6a28.84,28.84,0,0,1-4.55,5.15,15.06,15.06,0,0,0-2.55-2,21.57,21.57,0,0,0,6.7-9.1l3.1.8a26.43,26.43,0,0,1-1.25,2.7Zm-7.9,8a32.47,32.47,0,0,0-3.9-4.25l2.3-1.25a30.14,30.14,0,0,1,4,4Z"/><path class="cls-1" d="M1132.93,434.82c1.25,1.6,4.9,6.7,5.7,8.05l-2,2.45c-.7-1.5-2.35-4.4-3.75-6.65V465h-3.15V440.57c-1.5,5.05-3.5,9.9-5.55,12.85a14.83,14.83,0,0,0-1.75-3.1c2.9-4,5.8-11.5,7.2-18h-6.2v-3.15h6.3v-9.65h3.15v9.65h5.45v3.15h-5.45Zm19.1.7a19.47,19.47,0,0,0,.45,2.65c-10.15,2.7-11.6,3.15-12.5,3.75a12.13,12.13,0,0,0-1.1-3.2c.7-.2,1.55-.5,1.55-2.2v-16.7h3.25v6.5H1152v2.9h-8.35v8.3Zm2.35,5.5-2,3.75h12.65V465h-3.4v-1.75h-17v2h-3.3V444.77h7.9c.55-1.5,1.2-3.25,1.55-4.6Zm7.3,6.5h-17v5.05h17Zm0,13v-5.3h-17v5.3Zm2.25-22.4c1.25,0,1.5-.75,1.65-5.25a9.16,9.16,0,0,0,2.85,1.25c-.3,5.45-1.2,6.95-4.15,6.95h-5.85c-3.65,0-4.55-.95-4.55-4.45V419.87h3.25v6.5h10.2v2.9h-10.2v7.35c0,1.3.25,1.5,1.65,1.5Z"/><path class="cls-1" d="M1167.78,494.87v2.5h-44.15v-2.5h20.25v-3.2H1127v-2.3h16.85v-3h-15.45v-2.25h15.45v-3.2h-20.15v-2.5h20.15v-3.05H1129V473h14.85v-3.55h3.25V473h14.45v5.4h6.15v2.5h-6.15v5.45h-14.45v3h17.3v2.3h-17.3v3.2Zm-37.75,5h31.75v15.25h-3.25v-1.6h-25.3v1.7H1130Zm3.2,2.4v3.2h25.3v-3.2Zm25.3,8.85v-3.4h-25.3v3.4Zm-11.4-32.7h11.15v-3.05h-11.15Zm0,5.7h11.15v-3.2h-11.15Z"/><path class="cls-3" d="M126.7,1247.36H101.86v14c0,3-1,4.2-3.06,4.86s-5.93.72-12.29.66a17.27,17.27,0,0,0-1.74-3.9c5.16.12,9.83.06,11.15.06s1.87-.48,1.87-1.74v-13.92H73v-3.9H97.79v-10.2H76.91v-3.84H97.79v-9.6c-6.66.66-13.56,1.14-19.8,1.44a16.18,16.18,0,0,0-1-3.54c14.16-.72,31.79-2.28,40.73-5.16l2.94,3.24a123.25,123.25,0,0,1-18.78,3.6v10h21.48v3.84H101.86v10.2H126.7Z"/><path class="cls-3" d="M186.22,1258.76H161.63v4.14c0,2.34-.67,3.24-2.53,3.78s-5.21.48-10.67.48a11,11,0,0,0-1.38-3.12c4.32.12,8.22.06,9.24,0s1.44-.3,1.44-1.2v-4.08h-24.3v-2.94h24.3v-4.32H136.85v-2.94h20.88v-3.9c-6.12.3-12.48.48-18.12.48a7.33,7.33,0,0,0-.78-2.7c13.14-.18,29.27-1,37.79-2.46l2.58,2.58c-4.74.78-11,1.44-17.57,1.86v4.14H183v2.94H161.63v4.32h24.59Zm-47.63-26.46h-3.72v-11.76h10.32a47.56,47.56,0,0,0-4.38-6.24l3.42-1.38a33.88,33.88,0,0,1,4.74,6.3l-2.7,1.32h11.4v-8.1h4v8.1h11.16l-2.46-1.08a43.71,43.71,0,0,0,5.16-6.6l4,1.5a73.78,73.78,0,0,1-5.64,6.18H185v11.76h-3.84V1224H138.59Zm4.8,6.3v-10.68h33.23v10.68Zm3.72-2.76h25.61v-5.1H147.11Z"/><path class="cls-3" d="M958.34,1336.2a75.54,75.54,0,0,1-5.76,11.94h32.7v27.3h-4.14v-3.12H953.78v3.42h-4v-23.4a50.91,50.91,0,0,1-11.46,11.52,21.84,21.84,0,0,0-2.64-3.18c8.64-5.94,14.46-14.76,18.36-24.48H937.64v-3.9h17.82a86,86,0,0,0,3.12-11.34l4.14.84c-.84,3.48-1.8,7-3,10.5h30v3.9ZM953.78,1352v16.5h27.36V1352Z"/><path class="cls-3" d="M1003.16,1337.58a22.26,22.26,0,0,1-4.44,9.78A10.13,10.13,0,0,0,996,1345c3.84-4.68,4.44-10.8,4.44-15.3v-6.18h20.88v9.78h-17.58a19.25,19.25,0,0,1-.42,3.18h18.48v11h-18.66Zm40,33.78c0,2.28-.6,3.24-2.4,3.84s-4.86.48-9.54.48a15,15,0,0,0-1.38-3.24c3.72.18,7.08.12,8,.06s1.32-.3,1.32-1.08V1365c-10.26,1.86-20.94,3.72-28.8,5l-1.08-3.24c7.26-1,18.9-2.58,29.88-4.2v-9.36h-30.3v7.08c0,4.92-.54,11.58-3.66,16.26a15.67,15.67,0,0,0-3.12-2.46c2.7-4.08,3-9.66,3-13.86v-9.9h38.1Zm-39.18-45.12v4.38h13.92v-4.38Zm2.58,18.48h11.76v-5.52h-11.76Zm5.52,11c7.5.72,17.7,2.16,23.1,3.3l-.78,2.7c-5.46-1.14-15.54-2.76-23.22-3.66Zm26.76-19.14v3.9h10.44v2.88H1038.8v5.28H1035v-5.28h-10.68v-2.88H1035v-3.9H1023v-2.94h7.5a21.41,21.41,0,0,0-2.1-4.44l2.94-.6a19.52,19.52,0,0,1,2.46,5h5.94a37.43,37.43,0,0,0,2.4-5l3.3.78c-.78,1.5-1.56,2.94-2.34,4.2h7.8v2.94Zm10.38-8.76H1024.4V1325h10.74a21,21,0,0,0-1.44-3.36l3.54-.72a21.07,21.07,0,0,1,1.92,4.08h10Z"/><path class="cls-2" d="M218.15,1261.19c24.6,8.23,51.24,10.82,77,9a204.64,204.64,0,0,0,22.2-2.8c1.89-.35,1.09-3.25-.8-2.9a205,205,0,0,1-77.39-.8,170.94,170.94,0,0,1-20.27-5.39c-1.83-.61-2.62,2.28-.79,2.89Z"/><path class="cls-2" d="M921.06,1395a136.93,136.93,0,0,1-34.85,19.9,171.3,171.3,0,0,1-41.42,10.64,177.14,177.14,0,0,1-24.79,1.4c-1.93,0-1.93,3,0,3a178.86,178.86,0,0,0,44.27-5,162,162,0,0,0,40-15.25,131.71,131.71,0,0,0,19-12.61c1.51-1.2-.63-3.31-2.12-2.12Z"/><path d="M407.73,1085.7a502.76,502.76,0,0,1,45.41-21.9l-6.69,2.82A508.94,508.94,0,0,1,547.31,1036c8.42-1.63,16.89-3.06,25.39-4.22l-7.44,1a372.08,372.08,0,0,1,69-3.09q10.38.54,20.71,1.89l-7.45-1c12.93,1.76,25.82,4.57,37.89,9.62l-6.69-2.82a78,78,0,0,1,16.95,9.64l-5.67-4.37a73.67,73.67,0,0,1,12.73,13l-4.37-5.66a85.3,85.3,0,0,1,10.8,18.42l-2.82-6.69a94,94,0,0,1,6.4,23.86l-1-7.44a131.4,131.4,0,0,1-.37,34.54l1-7.45c-2.85,20.76-9.39,40.86-17.49,60.12l2.82-6.69c-14.32,33.87-33.54,65.62-54.73,95.6q-7.71,10.89-15.83,21.48l4.38-5.67a427.3,427.3,0,0,1-58.79,62.21q-8.82,7.61-18,14.73l5.66-4.38c-29.81,23-62.48,42-96.48,58q-14.73,7-29.74,13.28l6.69-2.83c-21.48,9.06-43.3,17.28-65.27,25.06-6.95,2.46-12.92,6.34-16.74,12.87-3.51,6-5,14.84-2.82,21.57s6.39,13.31,12.87,16.73,14.51,5.33,21.57,2.83c34.47-12.21,68.63-25.52,101.7-41.16,29.69-14,58.4-30.25,85-49.49,29.23-21.11,56.25-45,79.75-72.4a622.17,622.17,0,0,0,52.93-72.26c17-26.8,31.66-54.93,43-84.57a240.26,240.26,0,0,0,12-41.22c2.89-15.31,4.78-31.19,3.31-46.77a140.7,140.7,0,0,0-4.3-25.3,121.15,121.15,0,0,0-9.63-23.61,116.11,116.11,0,0,0-15-21.1,93,93,0,0,0-18.93-16.24c-7.25-4.82-15.47-8.23-23.57-11.29a135.88,135.88,0,0,0-19.9-5.73,281.75,281.75,0,0,0-52.13-5.73c-33.14-.72-66.42,3.27-98.84,10a537,537,0,0,0-120.28,40.71q-13.26,6.26-26.13,13.3c-6.07,3.31-11.05,10.14-12.87,16.73s-1,15.63,2.82,21.58,9.6,11.24,16.74,12.86a29.86,29.86,0,0,0,21.57-2.82Z"/><path d="M394.12,1280.8a739.67,739.67,0,0,1,89.35-21q12.93-2.21,25.93-4l-7.45,1q23.35-3.13,46.86-4.82c14.85-1.06,29.88-2.07,44.69-.09l-7.45-1a79.55,79.55,0,0,1,19.77,5.26l-6.68-2.82a68.65,68.65,0,0,1,14.6,8.58l-5.67-4.38a80,80,0,0,1,13.82,14l-4.38-5.67c7.17,9.35,12.53,19.87,17.11,30.69l-2.82-6.69c4.51,10.74,8.27,21.78,12.35,32.69q6.5,17.33,13.47,34.46c10.38,25.45,21.4,50.64,33.71,75.22a690.79,690.79,0,0,0,37.75,66.47,538.25,538.25,0,0,0,49.28,65.07,391.2,391.2,0,0,0,59,53.72q3.71,2.74,7.47,5.37a20.79,20.79,0,0,0,10.41,3.33,21.3,21.3,0,0,0,11.16-.5c6.5-1.79,13.54-6.81,16.74-12.87,3.43-6.5,5.15-14.37,2.82-21.58l-2.82-6.69a28.19,28.19,0,0,0-10-10q-6.09-4.26-12-8.8l5.67,4.38a369.83,369.83,0,0,1-54.8-52.73q-7.2-8.45-14-17.22l4.38,5.67c-28.78-37.33-52.12-78.62-72.14-121.21q-8.46-18-16.18-36.36l2.82,6.69c-9-21.31-17.22-42.9-25.16-64.61-8.8-24-19.09-48.45-37.66-66.75a98.23,98.23,0,0,0-39.38-23.65c-8.46-2.68-17.45-3.81-26.24-4.61a169.15,169.15,0,0,0-21.24-.39c-30.93,1.1-61.9,4.84-92.43,9.79a738.79,738.79,0,0,0-95.59,22.07,29.28,29.28,0,0,0-16.73,12.87c-3.51,6-5,14.85-2.82,21.57s6.39,13.32,12.87,16.74,14.27,5,21.57,2.82Z"/><line class="cls-4" x1="482.88" y1="1134.18" x2="628.78" y2="1116.27"/></svg>