<svg id="Layer_1" data-name="Layer 1" xmlns="http://www.w3.org/2000/svg" viewBox="0 0 1242 2208"><defs><style>.cls-1{fill:#f6eabe;}.cls-2{fill:#999;}.cls-3{fill:none;stroke:#000;stroke-miterlimit:10;}</style></defs><rect class="cls-1" width="1242" height="2208"/><path d="M953,386.08C918.81,515.5,856.08,611.57,775.09,683.83c61.14,44.46,134.19,77,218.35,96.86-11.91,11.12-27.79,33.35-36.52,49.23-87.34-23.82-162.77-61.14-226.29-111.16C655.2,774.34,567.86,811.66,475,835.48c-5.56-15.09-18.27-37.32-29.38-47.64,88.13-20.64,171.5-54,243-104.81C617.09,614,562.3,525.82,525.78,421.81H493.23C477.35,550.44,431.3,692.56,301.88,815.63c-7.15-13.5-27-34.14-38.12-43.67,171.51-161.18,183.42-358.88,183.42-501.8V196.32H305.85V144.71H791.77C775.09,217,753.66,308.27,736.19,371.79H906.9l10.32-2.38ZM501.17,270.16c0,31.76-.8,65.9-3.18,101.63H679.82C694.9,321,711.58,255.86,725.07,196.32H501.17ZM576.6,421.81c34.14,89.72,86.54,166.74,154.83,227.87,67.48-58,121.48-132.59,153.24-227.87Z"/><path d="M289.92,1806v42.77h-4.08v-3.54H248.1V1849h-4v-43h20.7v-11.58h4.08V1806Zm-41.82,4v13.5h16.74V1810Zm0,31.26h16.74v-13.86H248.1ZM268.92,1810v13.5h16.92V1810Zm16.92,31.26v-13.86H268.92v13.86Z"/><path d="M326,1797.49H311.22v35.15h-4v-38.87H326Z"/><path d="M359.28,1794.55c-.06,2.1-.12,5.1-.42,8.64.9,7,4.56,32.51,25.74,42a12.63,12.63,0,0,0-2.88,3.36c-15.42-7.26-21.72-22.74-24.6-34-2.64,12.23-8.94,26.33-24.06,34.19a13.77,13.77,0,0,0-3.12-3.06c25-12.48,24.78-42.11,25-51.11Z"/><path d="M388,1845.84h14.82v-35.15h4v38.87H388Z"/><path d="M443.16,1793.17l3.24,1.74c-7.08,7.26-11.28,16.2-11.28,26.76s4.2,19.49,11.28,26.75l-3.24,1.74c-7.32-7.5-11.94-17-11.94-28.49S435.84,1800.67,443.16,1793.17Z"/><path d="M466.92,1795.69a98.85,98.85,0,0,1-6.18,13.56v39.59H456.9v-33.35a61.73,61.73,0,0,1-5.46,7,32.86,32.86,0,0,0-2.28-3.9c5.58-5.87,10.8-14.87,14-24Zm34.14,28c-2.1,1.26-4.44,2.64-6.84,3.78,2,6.06,5.82,11.82,10.38,14.52a11.2,11.2,0,0,0-2.64,2.94c-4.62-3.18-8.46-9.42-10.68-16a27.45,27.45,0,0,1-2.76,1.2c2.58,6.84,1.86,14-1,16.68a6.91,6.91,0,0,1-5.22,1.92c-1.08,0-2.4-.06-3.78-.18a9.31,9.31,0,0,0-1-3.42,38.26,38.26,0,0,0,4.14.24,3.66,3.66,0,0,0,3.12-1.14c1.56-1.38,2.22-5.16,1.44-9.36-5.16,4.92-13.08,9.36-19.8,11.7a15.8,15.8,0,0,0-2.34-2.82c7.62-2.28,16.62-7.14,21.3-12.24a35.76,35.76,0,0,0-1.5-3.48,63.52,63.52,0,0,1-17.22,9.9,16.14,16.14,0,0,0-2.22-2.64c5.94-1.8,13.74-5.76,17.88-9.54a16.39,16.39,0,0,0-2.94-3.18,58.44,58.44,0,0,1-13.56,7.26,11.26,11.26,0,0,0-2.22-2.58,52.7,52.7,0,0,0,15.06-7.55H468.48v-9.36c-1.14,1-2.28,2-3.54,2.94a9.37,9.37,0,0,0-2.52-2.58,44.69,44.69,0,0,0,13.86-16.26l3.84.72c-.6,1.2-1.32,2.34-2,3.54h11.1l.72-.18,2.34,1.68a52.13,52.13,0,0,1-4.8,6.84h13.08v12.66H482.94c-.36.36-.78.66-1.2,1a21,21,0,0,1,5.64,6.84,110,110,0,0,0,10.92-6.42ZM476,1801.81a54.58,54.58,0,0,1-4.2,5.16h11.58a37.88,37.88,0,0,0,3.72-5.16Zm-3.9,14.69h10.5v-6.42h-10.5Zm24.72-6.42H486.18v6.42H496.8Z"/><path d="M563.1,1815.67a68,68,0,0,1-9.84,11.21v16.32c0,3-.66,4.38-2.82,5.1s-6.06.72-12.18.66a16.43,16.43,0,0,0-1.5-4.14c4.86.18,9.48.12,10.74.06s1.8-.42,1.8-1.68v-12.9c-10.32,8.22-23,14.1-36.72,18.12a19.65,19.65,0,0,0-2.58-3.54c11.82-3.12,22.8-7.8,31.92-14-11.4.9-22.62,1.86-30.78,2.4l-.66-4c2.76-.12,5.94-.3,9.42-.48v-28.43h12.24a54.28,54.28,0,0,0,2.58-6.12l4.68.78a57.5,57.5,0,0,1-2.94,5.34h16.8v21a52.63,52.63,0,0,0,6.12-7.55Zm-39.3-11.82v5.88h25.5v-5.88Zm25.5,9H523.8v6h25.5Zm-25.5,15.66c7.14-.42,15.24-.9,23.28-1.44.72-.66,1.5-1.26,2.22-1.92v-3.23H523.8Z"/><path d="M590.34,1813h2.58v8.39h-2.76v23.28c0,1.8-.36,2.7-1.68,3.3s-3.24.6-6.72.6a10.93,10.93,0,0,0-1.14-3.12c2.46.06,4.62.06,5.22.06s.9-.24.9-.84v-8.34c-2.94,1.8-5.88,3.6-8.46,5.1l-1.62-2.88c2.64-1.14,6.3-3.06,10.08-5V1823.1h-9.9v8.34c0,5.4-.6,12.6-4.2,17.76a11.54,11.54,0,0,0-2.82-2.22c3.24-4.56,3.6-10.8,3.6-15.54v-10h-2.94V1813h2.46v-16.5h17.4Zm-.66,3H573.6v4.19h16.08Zm-13.44-3h4v-9.3h6.66v-4.08H576.24Zm7.68,19.79a48.92,48.92,0,0,0-6.54-5.34l2-1.92a45.23,45.23,0,0,1,6.66,5Zm3-19.79v-6.66h-4.14V1813Zm37.32,31.55v3.18h-31v-3.18h8.88a49.1,49.1,0,0,0-2.16-5.88l3.12-.9c.9,2.1,2,4.8,2.64,6.78h5.94a60,60,0,0,0,2.7-7l3.66,1.08c-1,2-2.1,4.14-3.06,5.94Zm-.48-21.24H594v-3.12h29.76Zm-1.62-6.35H595.38v-17.94h7.44v-4.62h3.3v4.62h4.68v-4.62h3.3v4.62h8ZM597,1837.38v-11h23.7v11Zm1.56-30.89h4.8V1802h-4.8Zm0,7.55h4.8v-4.73h-4.8Zm2,20.52H617v-5.4H600.54Zm10.38-28.07V1802h-4.74v4.5Zm-4.74,2.82V1814h4.74v-4.73ZM618.9,1802h-5.16v4.5h5.16Zm0,7.32h-5.16V1814h5.16Z"/><path d="M655.8,1844.16c0,2.16-.48,3.24-2,3.9s-4.26.66-8.34.66a17,17,0,0,0-1.32-3.54c3.12.12,5.94.12,6.72.06s1.14-.3,1.14-1.08v-8.52H637.68c-.6,4.74-1.86,9.78-4.68,13.56a11.24,11.24,0,0,0-2.94-2.34c4-5.64,4.44-13.38,4.44-19.44v-14.27h21.3Zm27.78-40.25v3.66H630.42v-3.66h15.12a45.12,45.12,0,0,0-5.64-8.28l3.66-1.38a49.14,49.14,0,0,1,6.06,8.52l-2.94,1.14h18.18a79.77,79.77,0,0,0,5.76-9.9l4.14,1.44c-1.68,2.82-3.6,5.94-5.46,8.46ZM652,1832.46V1826h-13.8v1.44c0,1.56-.06,3.24-.18,5Zm-13.8-16v6.41H652v-6.41Zm29,21.65h-3.72v-24.41h3.72Zm8.4-26.22h3.9v31.92c0,2.52-.6,3.6-2.34,4.26s-4.8.72-9.36.72a17,17,0,0,0-1.5-3.84c3.78.12,7,.12,8,.06s1.32-.3,1.32-1.2Z"/><path d="M704,1795.75a101.42,101.42,0,0,1-4.26,11.46v42h-3.6v-34.79a63.31,63.31,0,0,1-5.88,8.88,21.22,21.22,0,0,0-2-4c5-6,9.48-15.23,12.24-24.53Zm11.28,33.35a28.53,28.53,0,0,0,.24,3.36c-8,4.74-9.3,5.7-10,6.54v-.12a15.55,15.55,0,0,0-1.8-3.42c.72-.54,1.5-1.68,1.5-4.14V1801h3.48v11.34h7.44v3.47h-7.44v16.68Zm12.06,12.06a40.41,40.41,0,0,1-12.78,8.1,18.84,18.84,0,0,0-2.7-2.64c4.5-1.68,9.54-4.8,11.94-7.5Zm-.66-35.09c.54-1.68,1.08-3.6,1.56-5.28h-12.6v-3.54h28.68v3.54H732.48c-.66,1.8-1.38,3.66-2,5.28h11.88v31.55H718.5v-31.55Zm11.94,3.24H722v6.23h16.62Zm0,9.29H722V1825h16.62Zm0,9.42H722v6.42h16.62Zm-2.94,11.34a67,67,0,0,1,9.6,7.62l-3.12,2.16a70.69,70.69,0,0,0-9.42-7.8Z"/><path d="M787.14,1806.25a42.24,42.24,0,0,0,17.7,11.7,16.85,16.85,0,0,0-2.7,3.23,45.46,45.46,0,0,1-19.38-14.93H772.08a52.54,52.54,0,0,1-20,15.23,15.2,15.2,0,0,0-2.52-3.06,48.22,48.22,0,0,0,17.4-12.17H751.32v-3.72H770a33,33,0,0,0,4.32-8.22l4.26.72a42.62,42.62,0,0,1-3.9,7.5h28.08v3.72Zm3.3,24H803.7V1834H790.44v15h-4v-15H767.1c-.84,5.4-3.66,10.92-12.48,15.06a13.93,13.93,0,0,0-2.7-2.94c7.62-3.42,10.26-7.8,11.22-12.12H750.36v-3.72h13.2v-6.9h3.84v6.9h19.08v-7h4Zm-11.52-20.63v6.41h13v3.55h-13v8h-3.84v-8h-13v-3.55h13v-6.41Z"/><path d="M831.3,1836.6l.48,3.48c-7.5,2.1-15.54,4.32-21.36,6l-1-3.78,3.12-.78v-20.69h3.36v19.85l4.32-1.08V1815h-7.74v-18h17.82v18H823.8v8.63h6.66v3.6H823.8v11.4ZM816,1811.41h10.62v-10.92H816Zm41.1,33.29c3.06,0,3.6-1.26,4-7.32a13,13,0,0,0,3.42,1.44c-.54,7.26-1.74,9.3-7.26,9.3H843c-6.24,0-8-1.32-8-6.48v-29.27c-.54.71-1.08,1.38-1.62,2a29.61,29.61,0,0,0-2.76-2.7c3.84-4.21,6.9-10.68,8.76-17.28l3.54.9a53.39,53.39,0,0,1-2,5.94h20v1.92c-.12,20.69-.24,27.35-1.56,29.33a4.2,4.2,0,0,1-3.54,1.86,45,45,0,0,1-6.3-.06,8.17,8.17,0,0,0-1.14-3.54c2.58.24,4.92.24,5.88.24s1.38-.12,1.74-.78c.84-1.32,1.08-7.56,1.14-25.43H839.34a56.74,56.74,0,0,1-3.9,6.84h15.84v17.93H838.56v12.06c0,2.46.72,3.06,4.56,3.06ZM838.56,1815v11.22h9.3V1815Z"/><path d="M886,1795c-1,2.94-2.1,6.3-3.18,8.88H893v38.75h-16.8v4.8h-3.66v-43.55h6.66a64.68,64.68,0,0,0,2.58-9.72Zm3.3,12.47H876.18v13.08h13.14Zm0,31.56v-14.88H876.18v14.88Zm33.06-33.17c-1,27.53-1.8,36.71-4.2,39.59a5.6,5.6,0,0,1-4.56,2.28,74.94,74.94,0,0,1-8.82-.12,9.42,9.42,0,0,0-1.32-3.9c3.9.36,7.5.36,8.82.36s1.92-.12,2.52-.9c2-2.1,2.94-11.34,3.72-35.7H902.82a55.33,55.33,0,0,1-5.64,10.68,36.22,36.22,0,0,0-3.36-2.22c4.08-5.33,7.32-13.61,9.18-21.89l3.84.84c-.78,3-1.62,6-2.64,8.88h18.18Zm-12.78,27a106.51,106.51,0,0,0-9.3-13.92l3.06-1.79a102.47,102.47,0,0,1,9.6,13.61Z"/><path d="M959.28,1794.55c-.06,2.1-.12,5.1-.42,8.64.9,7,4.56,32.51,25.74,42a12.63,12.63,0,0,0-2.88,3.36c-15.42-7.26-21.72-22.74-24.6-34-2.64,12.23-8.94,26.33-24.06,34.19a13.77,13.77,0,0,0-3.12-3.06c25-12.48,24.78-42.11,25-51.11Z"/><path d="M990.84,1850.16l-3.24-1.74c7.08-7.26,11.28-16.2,11.28-26.75s-4.2-19.5-11.28-26.76l3.24-1.74c7.32,7.5,11.94,17,11.94,28.5S998.16,1842.66,990.84,1850.16Z"/><path d="M271.14,1884h10.74v3.72H271.14v1.62c2.22,2.39,8.7,10,10.14,11.87l-2.46,3.24a129,129,0,0,0-7.68-10.49v26.93h-4v-27.17c-3,7.07-7.2,14.21-11.1,18.41a28.3,28.3,0,0,0-2.22-3.66c4.56-4.62,9.6-13.08,12.36-20.75H255.24V1884h11.88v-10.32c-3.42.54-6.9,1-10.14,1.44a15.29,15.29,0,0,0-1.08-3.18c7.92-1.08,17.52-2.82,22.68-5l2.76,3.12a83.55,83.55,0,0,1-10.2,2.82Zm34.74-12.06V1918h-4v-4.56h-14v5H284v-46.49Zm-4,37.67v-33.83h-14v33.83Z"/><path d="M341,1869.49H326.22v35.15h-4v-38.87H341Z"/><path d="M393.06,1871.83c-3.48,13.74-9.9,24.3-18.06,32.27a57.36,57.36,0,0,0,24.78,12.78,15.56,15.56,0,0,0-2.64,3.54,58.72,58.72,0,0,1-25.2-13.56,72.49,72.49,0,0,1-25,13.62,10.78,10.78,0,0,0-2.46-3.54,70.44,70.44,0,0,0,24.6-12.84c-7.38-7.74-12.66-17.69-16.32-29.33H348v-4h41.7l.78-.24Zm-36.3,2.94c3.36,10.38,8.4,19.44,15.36,26.63a59.85,59.85,0,0,0,16.08-26.63Z"/><path d="M403,1917.84h14.82v-35.15h4v38.87H403Z"/><path d="M458.16,1865.17l3.24,1.74c-7.08,7.26-11.28,16.2-11.28,26.76s4.2,19.49,11.28,26.75l-3.24,1.74c-7.32-7.5-11.94-17-11.94-28.49S450.84,1872.67,458.16,1865.17Z"/><path d="M481.92,1867.69a98.85,98.85,0,0,1-6.18,13.56v39.59H471.9v-33.35a61.73,61.73,0,0,1-5.46,7,32.86,32.86,0,0,0-2.28-3.9c5.58-5.87,10.8-14.87,14-24Zm34.14,28c-2.1,1.26-4.44,2.64-6.84,3.78,2,6.06,5.82,11.82,10.38,14.52a11.2,11.2,0,0,0-2.64,2.94c-4.62-3.18-8.46-9.42-10.68-16a27.45,27.45,0,0,1-2.76,1.2c2.58,6.84,1.86,14-1,16.68a6.91,6.91,0,0,1-5.22,1.92c-1.08,0-2.4-.06-3.78-.18a9.31,9.31,0,0,0-1-3.42,38.26,38.26,0,0,0,4.14.24,3.66,3.66,0,0,0,3.12-1.14c1.56-1.38,2.22-5.16,1.44-9.36-5.16,4.92-13.08,9.36-19.8,11.7a15.8,15.8,0,0,0-2.34-2.82c7.62-2.28,16.62-7.14,21.3-12.24a35.76,35.76,0,0,0-1.5-3.48,63.52,63.52,0,0,1-17.22,9.9,16.14,16.14,0,0,0-2.22-2.64c5.94-1.8,13.74-5.76,17.88-9.54a16.39,16.39,0,0,0-2.94-3.18,58.44,58.44,0,0,1-13.56,7.26,11.26,11.26,0,0,0-2.22-2.58,52.7,52.7,0,0,0,15.06-7.55H483.48v-9.36c-1.14,1-2.28,2-3.54,2.94a9.37,9.37,0,0,0-2.52-2.58,44.69,44.69,0,0,0,13.86-16.26l3.84.72c-.6,1.2-1.32,2.34-2,3.54h11.1l.72-.18,2.34,1.68a52.13,52.13,0,0,1-4.8,6.84h13.08v12.66H497.94c-.36.36-.78.66-1.2,1a21,21,0,0,1,5.64,6.84,110,110,0,0,0,10.92-6.42ZM491,1873.81a54.58,54.58,0,0,1-4.2,5.16h11.58a37.88,37.88,0,0,0,3.72-5.16Zm-3.9,14.69h10.5v-6.42h-10.5Zm24.72-6.42H501.18v6.42H511.8Z"/><path d="M579.36,1890.91v4.31H524.88v-4.31Z"/><path d="M592.8,1881.31a51.81,51.81,0,0,1-5.76,6.06,19,19,0,0,0-3.06-2.64,50.31,50.31,0,0,0,13.8-18.54l3.72,1.14a54,54,0,0,1-3.18,6.12H613a49.89,49.89,0,0,0-3.12-5.88l3.66-1.08a49.49,49.49,0,0,1,3.72,7H634.5v3.18H615.18v4.2H632.4v2.88H615.18V1888H632.4v2.88H615.18v4.33h20.28v3.11H596.52v1.86H592.8Zm38.28,22.13c-3.12,4.32-7.86,7.68-13.44,10.26a103.56,103.56,0,0,0,20.7,3.42,15.5,15.5,0,0,0-2.22,3.48,96.13,96.13,0,0,1-23.46-4.86c-8,2.88-17.22,4.38-26,5.22a14.88,14.88,0,0,0-1.5-3.48,107.35,107.35,0,0,0,22.62-3.78,35.1,35.1,0,0,1-11.76-8.28l.12-.06h-8.64v-3.3H628l.66-.24Zm-19.8-26.81H596.52v4.2h14.76Zm0,7.08H596.52V1888h14.76Zm0,7.13H596.52v4.33h14.76Zm-10.5,14.52a37.11,37.11,0,0,0,11.94,6.78,37,37,0,0,0,11.88-6.78Z"/><path d="M698.94,1901.22H674.1v14c0,3-1,4.2-3.06,4.86s-5.94.72-12.3.66a17.27,17.27,0,0,0-1.74-3.9c5.16.12,9.84.06,11.16.06s1.86-.48,1.86-1.74v-13.92H645.18v-3.9H670v-10.19H649.14v-3.84H670v-9.6c-6.66.66-13.56,1.14-19.8,1.44a16.18,16.18,0,0,0-1-3.54c14.16-.72,31.8-2.28,40.74-5.16l2.94,3.24a123.25,123.25,0,0,1-18.78,3.6v10h21.48v3.84H674.1v10.19h24.84Z"/><path d="M705.84,1922.16l-3.24-1.74c7.08-7.26,11.28-16.2,11.28-26.75s-4.2-19.5-11.28-26.76l3.24-1.74c7.32,7.5,11.94,17,11.94,28.5S713.16,1914.66,705.84,1922.16Z"/><path d="M788.76,1914.18v4H735.3v-4h22.62v-46.85h4.14v18.54h22.62v4H762.06v24.3Z"/><path d="M823,1874.71v10.86l.66-.78c7.32,3.54,16.74,8.93,21.54,12.53l-2.76,3.6c-4.2-3.42-12.48-8.46-19.44-12.12v32.1h-4.2v-46.19H795.54v-4h53v4Z"/><path d="M908.46,1916.64v2.94H855.54v-2.94h10.62V1902H897.9v14.64ZM880,1894.38H857.1v-11.75H880Zm22.44,10.26v-5.22H861.54v5.22h-3.6v-7.86h48.12v7.86Zm-42.18-17.22h6.6V1885h-6.6Zm0,4.75h6.6v-2.59h-6.6Zm39.66-11.82H864.3v-12.18h35.58Zm-32-7.26h12.24v-2.58H867.84Zm0,4.92h12.24v-2.64H867.84Zm8.94,7h-7v2.46h7Zm0,4.62h-7v2.59h7Zm-7,14.94V1907h24.3v-2.52Zm24.3,4.8h-24.3v2.52h24.3Zm-24.3,7.32h24.3v-2.52h-24.3Zm26.4-46.13h-12.6v2.58h12.6Zm0,4.86h-12.6V1878h12.6Zm10.8,19H884.1v-11.75H907Zm-19.86-7h6.66V1885h-6.66Zm0,4.75h6.66v-2.59h-6.66ZM903.9,1885h-7.08v2.46h7.08Zm0,4.62h-7.08v2.59h7.08Z"/><path d="M941.28,1879.87c-.48,26.69-.84,35.33-2.76,37.85a4.59,4.59,0,0,1-3.84,2.16,38.73,38.73,0,0,1-7,0,9.48,9.48,0,0,0-1.2-4c2.88.18,5.52.24,6.6.24a1.89,1.89,0,0,0,2-1c1.38-1.74,1.92-10,2.4-33.59h-9.6c-.54,16.14-2.64,30.65-10.8,39.41a13,13,0,0,0-3-2.7c7.68-7.92,9.48-21.54,9.9-36.71h-8.52v-3.84h8.64c.06-3.48.06-7,.06-10.62H928c0,3.6,0,7.14-.12,10.62h13.38Zm25.26-6v45.83h-4v-4H950.22v4.44h-3.84v-46.25Zm-4,38v-34.13H950.22v34.13Z"/><path d="M980.88,1902c4.68-2,7.26-4.86,7.56-9.17a4,4,0,0,1-1.14.11c-2.34,0-4.26-1.31-4.26-4.07a4,4,0,0,1,4.32-4.08c3.18,0,4.86,2.58,4.86,6.66,0,6.41-4,11.21-10.08,13.43Z"/><path d="M136.92,1939.69a98.85,98.85,0,0,1-6.18,13.56v39.59H126.9v-33.35a61.73,61.73,0,0,1-5.46,7,32.86,32.86,0,0,0-2.28-3.9c5.58-5.87,10.8-14.87,14-24Zm34.14,28c-2.1,1.26-4.44,2.64-6.84,3.78,2,6.06,5.82,11.82,10.38,14.52a11.2,11.2,0,0,0-2.64,2.94c-4.62-3.18-8.46-9.42-10.68-16a27.45,27.45,0,0,1-2.76,1.2c2.58,6.84,1.86,14-1,16.68a6.91,6.91,0,0,1-5.22,1.92c-1.08,0-2.4-.06-3.78-.18a9.31,9.31,0,0,0-1-3.42,38.26,38.26,0,0,0,4.14.24,3.66,3.66,0,0,0,3.12-1.14c1.56-1.38,2.22-5.16,1.44-9.36-5.16,4.92-13.08,9.36-19.8,11.7a15.8,15.8,0,0,0-2.34-2.82c7.62-2.28,16.62-7.14,21.3-12.24a35.76,35.76,0,0,0-1.5-3.48,63.52,63.52,0,0,1-17.22,9.9,16.14,16.14,0,0,0-2.22-2.64c5.94-1.8,13.74-5.76,17.88-9.54a16.39,16.39,0,0,0-2.94-3.18,58.44,58.44,0,0,1-13.56,7.26,11.26,11.26,0,0,0-2.22-2.58,52.7,52.7,0,0,0,15.06-7.55H138.48v-9.36c-1.14,1-2.28,2-3.54,2.94a9.37,9.37,0,0,0-2.52-2.58,44.69,44.69,0,0,0,13.86-16.26l3.84.72c-.6,1.2-1.32,2.34-2,3.54h11.1l.72-.18,2.34,1.68a52.13,52.13,0,0,1-4.8,6.84h13.08v12.66H152.94c-.36.36-.78.66-1.2,1a21,21,0,0,1,5.64,6.84,110,110,0,0,0,10.92-6.42ZM146,1945.81a54.58,54.58,0,0,1-4.2,5.16h11.58a37.88,37.88,0,0,0,3.72-5.16Zm-3.9,14.69h10.5v-6.42h-10.5Zm24.72-6.42H156.18v6.42H166.8Z"/><path d="M234.36,1962.91v4.31H179.88v-4.31Z"/><path d="M269.28,1938.55c-.06,2.1-.12,5.1-.42,8.64.9,7,4.56,32.51,25.74,42a12.63,12.63,0,0,0-2.88,3.36c-15.42-7.26-21.72-22.74-24.6-34-2.64,12.23-8.94,26.33-24.06,34.19a13.77,13.77,0,0,0-3.12-3.06c25-12.48,24.78-42.11,25-51.11Z"/><path d="M320.16,1951.63a67.9,67.9,0,0,1-7.2,12.24v28.85h-4v-24a41.57,41.57,0,0,1-7.26,6.41,17,17,0,0,0-2-3.48c7-5,12.3-12.23,16.14-20H301v-3.84h16.44a65.25,65.25,0,0,0,3.3-9.42l4.08,1c-.9,2.82-1.86,5.64-3,8.4H353.1v3.84Zm32.94,36.23v3.72H317v-3.72h16v-17.52H319.32v-3.71H333v-11.82h4v11.82h13.8v3.71H337v17.52Z"/><path d="M385.8,1988.16c0,2.16-.48,3.24-2,3.9s-4.26.66-8.34.66a17,17,0,0,0-1.32-3.54c3.12.12,5.94.12,6.72.06s1.14-.3,1.14-1.08v-8.52H367.68c-.6,4.74-1.86,9.78-4.68,13.56a11.24,11.24,0,0,0-2.94-2.34c4-5.64,4.44-13.38,4.44-19.44v-14.27h21.3Zm27.78-40.25v3.66H360.42v-3.66h15.12a45.12,45.12,0,0,0-5.64-8.28l3.66-1.38a49.14,49.14,0,0,1,6.06,8.52l-2.94,1.14h18.18a79.77,79.77,0,0,0,5.76-9.9l4.14,1.44c-1.68,2.82-3.6,5.94-5.46,8.46ZM382,1976.46V1970h-13.8v1.44c0,1.56-.06,3.24-.18,5Zm-13.8-16v6.41H382v-6.41Zm29,21.65h-3.72v-24.41h3.72Zm8.4-26.22h3.9v31.92c0,2.52-.6,3.6-2.34,4.26s-4.8.72-9.36.72a17,17,0,0,0-1.5-3.84c3.78.12,7,.12,8,.06s1.32-.3,1.32-1.2Z"/><path d="M457.14,1950.25a42.24,42.24,0,0,0,17.7,11.7,16.85,16.85,0,0,0-2.7,3.23,45.46,45.46,0,0,1-19.38-14.93H442.08a52.54,52.54,0,0,1-20,15.23,15.2,15.2,0,0,0-2.52-3.06,48.22,48.22,0,0,0,17.4-12.17H421.32v-3.72H440a33,33,0,0,0,4.32-8.22l4.26.72a42.62,42.62,0,0,1-3.9,7.5h28.08v3.72Zm3.3,24H473.7V1978H460.44v15h-4v-15H437.1c-.84,5.4-3.66,10.92-12.48,15.06a13.93,13.93,0,0,0-2.7-2.94c7.62-3.42,10.26-7.8,11.22-12.12H420.36v-3.72h13.2v-6.9h3.84v6.9h19.08v-7h4Zm-11.52-20.63v6.41h13v3.55h-13v8h-3.84v-8h-13v-3.55h13v-6.41Z"/><path d="M501.3,1980.6l.48,3.48c-7.5,2.1-15.54,4.32-21.36,6l-1-3.78,3.12-.78v-20.69h3.36v19.85l4.32-1.08V1959h-7.74v-18h17.82v18H493.8v8.63h6.66v3.6H493.8v11.4ZM486,1955.41h10.62v-10.92H486Zm41.1,33.29c3.06,0,3.6-1.26,4-7.32a13,13,0,0,0,3.42,1.44c-.54,7.26-1.74,9.3-7.26,9.3H513c-6.24,0-8-1.32-8-6.48v-29.27c-.54.71-1.08,1.38-1.62,2a29.61,29.61,0,0,0-2.76-2.7c3.84-4.21,6.9-10.68,8.76-17.28l3.54.9a53.39,53.39,0,0,1-2,5.94h20v1.92c-.12,20.69-.24,27.35-1.56,29.33a4.2,4.2,0,0,1-3.54,1.86,45,45,0,0,1-6.3-.06,8.17,8.17,0,0,0-1.14-3.54c2.58.24,4.92.24,5.88.24s1.38-.12,1.74-.78c.84-1.32,1.08-7.56,1.14-25.43H509.34a56.74,56.74,0,0,1-3.9,6.84h15.84v17.93H508.56v12.06c0,2.46.72,3.06,4.56,3.06ZM508.56,1959v11.22h9.3V1959Z"/><path d="M545.88,1974c4.68-2,7.26-4.86,7.56-9.17a4,4,0,0,1-1.14.11c-2.34,0-4.26-1.31-4.26-4.07a4,4,0,0,1,4.32-4.08c3.18,0,4.86,2.58,4.86,6.66,0,6.41-4,11.21-10.08,13.43Z"/><path d="M587,1951.63a67.67,67.67,0,0,1-5.4,8.45v33.18h-3.78v-28.5a55.81,55.81,0,0,1-6,5.94,23.11,23.11,0,0,0-2.4-3.41,57.79,57.79,0,0,0,14-16.92Zm-1.44-11.88a59.41,59.41,0,0,1-13.32,14.1,20,20,0,0,0-2.22-2.82c4.44-3.3,9.42-8.4,11.94-12.66ZM619,1970.17a34,34,0,0,1-11.58,13.91,56.54,56.54,0,0,0,16.08,5.52,13.63,13.63,0,0,0-2.46,3.48,58.51,58.51,0,0,1-17.16-6.72,63.26,63.26,0,0,1-17.7,6.78,10.39,10.39,0,0,0-2-3.42,62.23,62.23,0,0,0,16.26-5.64,41.7,41.7,0,0,1-7.2-6.54,42.74,42.74,0,0,1-4.86,4.08,25.12,25.12,0,0,0-2.76-2.94,46.2,46.2,0,0,0,5.28-4.08,34,34,0,0,1-2.82-4.38l3.3-1.2a19.06,19.06,0,0,0,2,3.18,40.7,40.7,0,0,0,5.82-7.86c-9,.6-10.5.91-11.64,1.26a33.39,33.39,0,0,0-1.2-3.77c1.62-.19,3.78-1.26,6.6-2.88,1.44-.78,4.38-2.58,7.8-4.87-9.36.49-10.92.73-11.82,1.09a28.56,28.56,0,0,0-1.26-3.84,10.79,10.79,0,0,0,3.9-2.16A67.38,67.38,0,0,0,602.28,1939l3.9,1.8a87.44,87.44,0,0,1-11.7,10.32l11.1-.36a87.91,87.91,0,0,0,8.22-6.6l3.66,2.1a135.45,135.45,0,0,1-22.44,15l20.1-1.08c-1.5-1.87-2.94-3.72-4.38-5.29l3.06-1.61a90.33,90.33,0,0,1,10,13l-3.24,1.92c-.78-1.38-2-3.12-3.24-5-5.58.35-10.14.66-13.68.83a52.18,52.18,0,0,1-3,5h15.18l.72-.18Zm-20.94,2.21a33.51,33.51,0,0,1-2.34,2.76,40,40,0,0,0,8.16,6.9,31.13,31.13,0,0,0,9.72-9.66Z"/><path d="M650.76,1950c-1.2,2.46-2.52,5-3.9,7.31h29.22v30.54c0,2.52-.6,3.72-2.46,4.38s-5.16.66-10.38.66a16.63,16.63,0,0,0-1.32-3.9c4.14.18,7.8.12,8.82.12s1.44-.42,1.44-1.32v-6.66H645.9c-.84,4.38-2.58,8.88-6.12,12.24a12.44,12.44,0,0,0-2.76-3.12c5-4.86,5.52-11.52,5.52-17.22v-9.53a50.45,50.45,0,0,1-10.14,9.71,17.42,17.42,0,0,0-2.52-3.12c7.2-4.91,12.66-12.17,16.56-20.09H631.08v-3.78h17a57.7,57.7,0,0,0,2.76-7.8l4,.9a72.7,72.7,0,0,1-2.46,6.9h30.84V1950Zm21.42,27.65v-6.72H646.56V1973c0,1.44-.06,2.94-.18,4.56Zm0-16.73H646.56v6.53h25.62Z"/><path d="M744.36,1962.91v4.31H689.88v-4.31Z"/><path d="M757.8,1953.31a51.81,51.81,0,0,1-5.76,6.06,19,19,0,0,0-3.06-2.64,50.31,50.31,0,0,0,13.8-18.54l3.72,1.14a54,54,0,0,1-3.18,6.12H778a49.89,49.89,0,0,0-3.12-5.88l3.66-1.08a49.49,49.49,0,0,1,3.72,7H799.5v3.18H780.18v4.2H797.4v2.88H780.18V1960H797.4v2.88H780.18v4.33h20.28v3.11H761.52v1.86H757.8Zm38.28,22.13c-3.12,4.32-7.86,7.68-13.44,10.26a103.56,103.56,0,0,0,20.7,3.42,15.5,15.5,0,0,0-2.22,3.48,96.13,96.13,0,0,1-23.46-4.86c-8,2.88-17.22,4.38-26,5.22a14.88,14.88,0,0,0-1.5-3.48,107.35,107.35,0,0,0,22.62-3.78,35.1,35.1,0,0,1-11.76-8.28l.12-.06h-8.64v-3.3H793l.66-.24Zm-19.8-26.81H761.52v4.2h14.76Zm0,7.08H761.52V1960h14.76Zm0,7.13H761.52v4.33h14.76Zm-10.5,14.52a37.11,37.11,0,0,0,11.94,6.78,37,37,0,0,0,11.88-6.78Z"/><path d="M863.94,1973.22H839.1v14c0,3-1,4.2-3.06,4.86s-5.94.72-12.3.66a17.27,17.27,0,0,0-1.74-3.9c5.16.12,9.84.06,11.16.06s1.86-.48,1.86-1.74v-13.92H810.18v-3.9H835v-10.19H814.14v-3.84H835v-9.6c-6.66.66-13.56,1.14-19.8,1.44a16.18,16.18,0,0,0-1-3.54c14.16-.72,31.8-2.28,40.74-5.16l2.94,3.24a123.25,123.25,0,0,1-18.78,3.6v10h21.48v3.84H839.1v10.19h24.84Z"/><path d="M883.56,1938.49h3.72V1993h-3.72V1971.9h-7v1.68c0,5.28-.72,13.56-4.32,19.56a11.85,11.85,0,0,0-3.06-2c3.3-5.46,3.78-12.9,3.78-17.64v-1.56h-3.3v-3.54h13.86v-9.18H872.28v-18.47h3.54v14.94h7.74Zm38.58,6.06c-5.34,12.9-18.06,20.33-30.54,23.75a14,14,0,0,0-2-3,51,51,0,0,0,18.48-8.46,48.08,48.08,0,0,0-7.86-8.33,64.83,64.83,0,0,1-9.12,5.16,24.39,24.39,0,0,0-2.52-2.46c7.26-3,14-8,17.46-12.9l3.78,1.2a29.92,29.92,0,0,1-3.48,4H919l.66-.18Zm2.1,28h-8v15c0,2.34-.48,3.48-2.22,4.14s-4.62.72-9.48.72a12.19,12.19,0,0,0-1.26-3.78c3.72.12,7,.06,7.92,0s1.26-.24,1.26-1.08v-15H889.32V1969h23.16v-8.69h3.78V1969h8Zm-21.48-15c-4.5.6-8.7,1.14-12.36,1.61l-.72-3c3.48-.3,7.92-.9,12.9-1.44Zm-5.82,16.73A49,49,0,0,1,905,1984l-3.24,2.1a48,48,0,0,0-7.92-9.9Zm5.94-27.83-.24.18a47.92,47.92,0,0,1,8,8,32.1,32.1,0,0,0,6.6-8.22Z"/><path d="M947.16,1939.69a101.29,101.29,0,0,1-6.36,13.08v40.13H937v-34.19a65.53,65.53,0,0,1-6.3,7.79,20.36,20.36,0,0,0-2.34-3.9c6-5.81,11.64-14.81,15.06-24Zm28.92,49.13c3.72,0,4.32-1.68,4.86-8.76a10.12,10.12,0,0,0,3.6,1.56c-.66,8.16-1.92,10.8-8.34,10.8H959.94c-6.84,0-8.88-1.56-8.88-7.92v-20.21l-6.18,2.46-1.5-3.54,7.68-3v-16h3.78v14.46l9.36-3.67v-16.61h3.66v15.24l10.38-4,.84-.66,3,.9-.18.78c-.18,8.7-.72,20.15-1.74,27.17l-3.24-1c.6-5.75,1-15.17,1.08-23.09l-10.14,4v22.07H964.2v-20.64l-9.36,3.66v21.72c0,3.42.84,4.26,5.16,4.26Z"/><path d="M1001.1,1970.64v17.46c0,2.28-.54,3.36-1.92,4.08s-3.66.78-7.44.72a15.18,15.18,0,0,0-1.2-3.78c2.64.12,5,.12,5.7.06s1.08-.24,1.08-1.08v-16.2c-2.64.84-5.1,1.68-7.32,2.4l-1-3.9c2.28-.65,5.16-1.5,8.34-2.52v-13.61h-7.56v-3.72h7.56v-12.18h3.78v12.18h7.14v3.72h-7.14v12.41c2.22-.66,4.44-1.38,6.72-2.16l.54,3.73Zm27,17.46a33.31,33.31,0,0,0,6.12.48c1.38,0,8.82,0,10.74-.12a12.62,12.62,0,0,0-1.2,3.48H1034c-8.82,0-15.42-1.74-19.38-11a27.57,27.57,0,0,1-7.38,12.12,20.63,20.63,0,0,0-2.88-2.64c5.76-4.86,8.1-12.78,8.88-23.16l3.78.3a62.37,62.37,0,0,1-1.26,8.82c1.92,5.82,4.86,9,8.46,10.62V1960.5h-11.94v-19.25h27.9v19.25H1028.1v9.6h14.22v3.54H1028.1ZM1016,1957h20.34v-12.3H1016Z"/><path d="M1068.36,1939.75a92.85,92.85,0,0,1-6.18,12.83v40.32h-4v-34.07a58.5,58.5,0,0,1-6.36,7.67,22.37,22.37,0,0,0-2.34-3.9c6-5.81,11.64-14.81,15.06-24Zm36.12,47.39v3.78h-38.7v-3.78h17.58v-15.78h-14v-3.78h14v-13.67h-16v-3.78h36.24v3.78h-16.2v13.67h14.4v3.78h-14.4v15.78ZM1085,1949.41a54.81,54.81,0,0,0-5.16-10l3.6-1.32a52,52,0,0,1,5.4,9.72Z"/><path d="M1122.18,1956.67a9.06,9.06,0,1,1-9.06,9A9.09,9.09,0,0,1,1122.18,1956.67Zm0,15.23a6.18,6.18,0,0,0,0-12.36,6.18,6.18,0,0,0,0,12.36Z"/><path d="M450.24,2011.51a13.18,13.18,0,0,1-.84,1.08c5.7,5.64,16.2,10.62,25.56,12.83a12.89,12.89,0,0,0-2.52,3.12,71.7,71.7,0,0,1-14.88-6.17l-.06,1.92H436.74l.06-1.68a88.84,88.84,0,0,1-14.88,6.23,32.14,32.14,0,0,0-2.28-3c10.8-3,21.48-8.28,27.12-15.6Zm-23.16,16H467v14.88h-39.9Zm3.42,12.06h14.7v-9.23H430.5Zm.12,5.82H464v19.38h-4v-1.86h-25.5v2h-3.9Zm6.66-14.21a21.72,21.72,0,0,1,3.78,6.83l-3.06,1.21a27.26,27.26,0,0,0-3.6-7.09Zm-2.76,17.15v4.32H460v-4.32Zm25.5,11.64v-4.38h-25.5v4.38Zm-4.2-38.57a48.46,48.46,0,0,1-8.58-6.42,45.19,45.19,0,0,1-8.34,6.42Zm7.5,8.94H448.56v9.23h14.76Zm-10.62,7.79a53.26,53.26,0,0,0,3.54-7.2l3.36,1.08a73,73,0,0,1-4.14,7.21Z"/><path d="M481.08,2061.48c3.06-2.58,5.64-7,7.08-10.44l3.3,1.5c-1.68,3.6-4.08,8-7.14,10.86Zm51.72-36.9v3.25H481.56v-3.25h14.16a23.89,23.89,0,0,0-2.34-5.45l3.36-.84H484.26V2015h21.9c-.72-1.44-1.56-2.94-2.34-4.2l3.78-.9a39.9,39.9,0,0,1,2.94,5.1h19.2v3.3H517.86l3.24.78c-1,1.92-2,3.84-3,5.51Zm-7,23.7H504.66a47.07,47.07,0,0,1,8.82,6.24L511,2057a48.61,48.61,0,0,0-9.3-6.9l2-1.8H488.58V2031h37.2Zm-3.9-14.45H492.36v4.43h29.52Zm0,7.13H492.36v4.44h29.52Zm-8.22,20.16c2.58,0,3-.72,3.24-6.24a12.08,12.08,0,0,0,3.54,1.38c-.48,6.66-1.74,8.22-6.42,8.22H502.44c-5.82,0-7.38-1-7.38-5v-8H499v8c0,1.38.54,1.68,3.72,1.68ZM497,2018.29a26.19,26.19,0,0,1,2.76,6.18l-.48.11H514a59.18,59.18,0,0,0,3.06-6.29Zm27.66,32.21a46.55,46.55,0,0,1,8,10.2l-3.36,1.74a49,49,0,0,0-7.8-10.56Z"/><path d="M555.6,2039.71a49.23,49.23,0,0,1-4.2,13.79c4.08,6.12,11.7,7,22.74,7.08,6.24,0,14.76-.3,20.7-.78a15.25,15.25,0,0,0-1.32,3.84c-5.46.36-12.9.48-19.38.48-12.06,0-19.62-1.2-24.36-7.62a27.84,27.84,0,0,1-8.16,8.7,9.87,9.87,0,0,0-2.64-2.82c5.94-3.72,10.44-10.44,12.48-20.1h-7a6.56,6.56,0,0,0-3.6.85,25.93,25.93,0,0,0-1.5-3.73,6.19,6.19,0,0,0,2.88-1.68,123.86,123.86,0,0,0,7.86-10.26H540.06v-3.29h12.6l.72-.3,2.7,1.32c-2.58,3.48-7.2,9.77-10.74,13.79h7.56l.6-.06Zm-5.7-17.64a108.41,108.41,0,0,0-7.56-9.54l2.94-1.8a98.72,98.72,0,0,1,7.68,9.18Zm10.8-5.46h9.84a53.17,53.17,0,0,0,2-6.48l4.5.78c-.78,1.92-1.62,4-2.46,5.7H588v15.65H564.48v6h25.86v17H560.7Zm3.78,3.42v8.81h19.68V2020Zm0,21.6v10.19h22v-10.19Z"/><path d="M618.78,2054.88c4.2-.78,8.52-1.5,12.72-2.34l.24,3.48c-10.62,2.1-22,4.32-29.88,5.76l-.84-3.72c3.72-.66,8.58-1.5,13.92-2.46v-10.44H603.12v-3.6h11.82v-6.65h3.84v6.65H631v3.6H618.78Zm-17.28-40.49h30.6v3.54H615.84a79.11,79.11,0,0,1-7.26,11.7l16.2-1.44c-1.56-2.16-3.18-4.32-4.68-6.18l2.88-1.74a88.33,88.33,0,0,1,9.12,12.83l-3,2a36.18,36.18,0,0,0-2.28-3.83c-19,1.92-21.18,2.16-22.5,2.75a24.8,24.8,0,0,0-1.38-3.77c1-.19,1.86-1.27,2.88-2.65a55.36,55.36,0,0,0,5.58-9.65h-9.9Zm37.86,37.13h-3.72v-36h3.72Zm12-40.13v47c0,2.64-.66,3.84-2.34,4.5s-4.92.78-9.18.78a16.81,16.81,0,0,0-1.56-4c3.6.12,6.9.12,7.92.06s1.26-.3,1.26-1.26v-47Z"/><path d="M680.52,2043.06l-3.66,3.12a93.63,93.63,0,0,0-13.32-13.38l3.42-3.11A118.53,118.53,0,0,1,680.52,2043.06Z"/><path d="M705.72,2057.1c4.5,2.22,10.26,2.7,17.22,2.7,2.46,0,18.36,0,21.48-.06a11.82,11.82,0,0,0-1.62,3.78H722.94c-13,0-21.84-1.74-26.94-11.58a34.21,34.21,0,0,1-4.2,13.2,21.54,21.54,0,0,0-2.88-2.22c3.78-5.88,4.44-15.06,4.62-25.67l3.48.17c-.06,3.06-.18,6-.42,8.76a20.65,20.65,0,0,0,5.52,8.58v-21.59H690.36v-3.54H701.7v-8.1h-9.48V2018h9.48v-7.62h3.66V2018h9.12v3.54h-9.12v8.1h10.26v3.54h-9.9v8.75h9.48v3.54h-9.48Zm21.72-18.72h-10.8v-3.24h26v3.24H731.16v6.3h12.72v3.3H731.16v10.08h-3.72V2048H715.26v-3.3h12.18Zm14.4-7.25H717.3V2013h24.54Zm-3.78-15.24H721v4.74h17.1Zm0,7.5H721v4.86h17.1Z"/><path d="M803.76,2058.18v4H750.3v-4h22.62v-46.85h4.14v18.54h22.62v4H777.06v24.3Z"/><path d="M822.18,2028.67a9.06,9.06,0,1,1-9.06,9A9.09,9.09,0,0,1,822.18,2028.67Zm0,15.23a6.18,6.18,0,1,0,0-12.36,6.18,6.18,0,1,0,0,12.36Z"/><rect class="cls-2" x="1113" y="1211" width="65" height="220" rx="12"/><path class="cls-1" d="M1157.05,1249.79a27.61,27.61,0,0,0,11.5,8.1,11.65,11.65,0,0,0-2.15,2.55,30.77,30.77,0,0,1-12.8-10.65h-15.95a34.39,34.39,0,0,1-13,11.3,11.43,11.43,0,0,0-2.15-2.55,30.39,30.39,0,0,0,11.6-8.75H1123v-2.85h10v-16.15h-7.7V1228h7.7v-5h3.3v5h18.55v-5h3.35v5h7.65v2.8h-7.65v16.15h9.8v2.85Zm-10,14.5h17.3v2.85H1126.8v-2.85h16.9v-5.6h-10.45v-2.8h10.45v-4.4h3.35v4.4h10.65v2.8h-10.65Zm-10.8-33.5v3.6h18.55v-3.6Zm0,9.8h18.55v-3.65h-18.55Zm0,6.35h18.55v-3.8h-18.55Z"/><path class="cls-1" d="M1141.25,1291.54s0,1.15,0,1.55c-.6,15.85-1.2,21.2-2.6,23a3.71,3.71,0,0,1-2.8,1.45,32.65,32.65,0,0,1-4.45,0,9.25,9.25,0,0,0-.85-3c1.75.15,3.2.15,3.9.15a1.42,1.42,0,0,0,1.45-.65c1-1.2,1.6-6,2.15-19.35h-6.8c-.55,10-2,18.25-6.45,23.65a9.53,9.53,0,0,0-2.55-2.35c5.45-6.45,5.9-17.85,6.1-31.55h-5.2v-3.1h20.1v3.1h-11.65c0,2.45-.1,4.85-.2,7.15Zm-7.9-10.45a33.47,33.47,0,0,0-4.25-7.15l2.9-1.15a31.92,31.92,0,0,1,4.4,7Zm23.85-7.45a15.26,15.26,0,0,1-.85,2.55c2.65,5.45,7.7,11.35,12.45,14a13,13,0,0,0-2.45,2.75c-4.25-2.7-8.5-8-11.4-13.3a32.61,32.61,0,0,1-11,13.6,12.79,12.79,0,0,0-2.35-2.65c5.85-3.6,10.35-10.2,12.5-17.85Zm-8.3,32.45a74,74,0,0,1,13.6,8.25l-2.25,2.9c-2.85-2.6-8.75-6.3-13.4-8.65Zm9.5-4.85a66.22,66.22,0,0,0-8.6-6.85l2.15-2.2a67.46,67.46,0,0,1,8.75,6.55Z"/><path class="cls-1" d="M1134.5,1336c-1.6,7.2-4.55,16.15-9.1,21.7a19.23,19.23,0,0,0-3.1-1.8c4.55-5.25,7.3-13.85,8.55-20.55Zm12.9-12.3v40c0,2.55-.7,3.6-2.35,4.2s-4.8.6-9.4.6a15.62,15.62,0,0,0-1.4-3.45c3.7.1,7.3.1,8.25.05s1.45-.35,1.45-1.4v-40ZM1159,1335c4.45,7,8.7,16.1,10,22l-3.45,1.45c-1.25-5.85-5.25-15.15-9.6-22.3Z"/><path class="cls-1" d="M1163.65,1400.74a72.75,72.75,0,0,1-7.65,3.65,19.75,19.75,0,0,0,12.1,9.55,10.66,10.66,0,0,0-2.1,2.6,22.77,22.77,0,0,1-12.5-11.1c-1.1.45-2.15.85-3.2,1.2,1.5,4.4.7,8.7-1.6,10.35a6,6,0,0,1-4.25,1.3c-1,0-2.25,0-3.55-.1a5.77,5.77,0,0,0-.9-2.85,30,30,0,0,0,4,.2,4.12,4.12,0,0,0,2.7-.65c1.35-1,1.9-3.75,1-6.9-5.55,3.7-14.45,7-22,8.45a11,11,0,0,0-1.45-2.4c8-1.1,17.65-4.65,22.65-8.35a13.35,13.35,0,0,0-1.25-2.15,69.47,69.47,0,0,1-17.55,6.35,7.59,7.59,0,0,0-1.4-2.15c5.8-1,13.4-3.4,17.7-5.85-.6-.55-1.25-1.15-2-1.7a80,80,0,0,1-15.25,4.15,16.41,16.41,0,0,0-1.55-2.2c5.7-.75,12.15-2.15,16.75-4.15h-18.55v-2.55h28c.3-.9.55-1.8.9-2.75h-21.7c1.25-2.8,3-7,4-10.25l3,.5a42,42,0,0,0-3.4-3.25l2-1.15h-6.25a29.23,29.23,0,0,1-5.1,5.6,25.27,25.27,0,0,0-2.35-2.2,26.89,26.89,0,0,0,7.5-9.35l3,.85c-.45.9-1,1.75-1.4,2.65h13.45v2.45h-8.3a44.9,44.9,0,0,1,4,3.65l-2.45,1.6a4.8,4.8,0,0,0-.7-.75c-.2.65-.45,1.25-.65,2h17.75l.6-.2,2.25.5c-.8,3.15-1.9,7-3,10.15h12V1398h-20.25c-.6.35-1.2.7-1.85,1a16.36,16.36,0,0,1,4.4,5.35,90.1,90.1,0,0,0,11.6-5.5Zm-10.2-10.3c.35-1.15.65-2.2,1-3.2h-17.7c-.45,1.15-.9,2.2-1.3,3.2Zm14.75-14.3v2.45h-16.6a28.84,28.84,0,0,1-4.55,5.15,15.06,15.06,0,0,0-2.55-2,21.57,21.57,0,0,0,6.7-9.1l3.1.8a26.43,26.43,0,0,1-1.25,2.7Zm-7.9,8a32.47,32.47,0,0,0-3.9-4.25l2.3-1.25a30.14,30.14,0,0,1,4,4Z"/><rect class="cls-2" x="1113" y="426" width="65" height="126" rx="12"/><path class="cls-1" d="M1132.7,455.82c1.25,1.6,4.9,6.7,5.7,8.05l-2,2.45c-.7-1.5-2.35-4.4-3.75-6.65V486h-3.15V461.57c-1.5,5.05-3.5,9.9-5.55,12.85a14.83,14.83,0,0,0-1.75-3.1c2.9-4,5.8-11.5,7.2-18h-6.2v-3.15h6.3v-9.65h3.15v9.65h5.45v3.15h-5.45Zm19.1.7a19.47,19.47,0,0,0,.45,2.65c-10.15,2.7-11.6,3.15-12.5,3.75a12.13,12.13,0,0,0-1.1-3.2c.7-.2,1.55-.5,1.55-2.2v-16.7h3.25v6.5h8.35v2.9h-8.35v8.3Zm2.35,5.5-2,3.75h12.65V486h-3.4v-1.75h-17v2h-3.3V465.77h7.9c.55-1.5,1.2-3.25,1.55-4.6Zm7.3,6.5h-17v5.05h17Zm0,13v-5.3h-17v5.3Zm2.25-22.4c1.25,0,1.5-.75,1.65-5.25a9.16,9.16,0,0,0,2.85,1.25c-.3,5.45-1.2,6.95-4.15,6.95h-5.85c-3.65,0-4.55-.95-4.55-4.45V440.87h3.25v6.5h10.2v2.9h-10.2v7.35c0,1.3.25,1.5,1.65,1.5Z"/><path class="cls-1" d="M1167.55,515.87v2.5H1123.4v-2.5h20.25v-3.2H1126.8v-2.3h16.85v-3H1128.2v-2.25h15.45v-3.2H1123.5v-2.5h20.15v-3.05H1128.8V494h14.85v-3.55h3.25V494h14.45v5.4h6.15v2.5h-6.15v5.45H1146.9v3h17.3v2.3h-17.3v3.2Zm-37.75,5h31.75v15.25h-3.25v-1.6H1133v1.7h-3.2Zm3.2,2.4v3.2h25.3v-3.2Zm25.3,8.85v-3.4H1133v3.4Zm-11.4-32.7h11.15v-3.05H1146.9Zm0,5.7h11.15v-3.2H1146.9Z"/><line class="cls-3" x1="601.5" y1="792.5" x2="601.5" y2="783.5"/><path d="M473.88,1293.42a459.63,459.63,0,0,1,77.29.17q11,.95,21.84,2.42l-6.78-.91a439.28,439.28,0,0,1,83.85,19.5q9.21,3.17,18.19,7l-6.09-2.57c16.64,7.06,32.65,15.76,47,26.81l-5.16-4a137.91,137.91,0,0,1,24.63,24.31l-4-5.16a106.76,106.76,0,0,1,13.49,22.9l-2.57-6.09a96.53,96.53,0,0,1,6.7,24.21l-.91-6.78a101.5,101.5,0,0,1,0,26.35l.91-6.78a120.25,120.25,0,0,1-8.51,30.66l2.57-6.09A144.06,144.06,0,0,1,718,1470.44l4-5.16a162.52,162.52,0,0,1-29.37,29l5.16-4c-17.57,13.5-37.25,23.87-57.61,32.48l6.09-2.57c-20.2,8.51-41.06,15.42-62,21.94a712.47,712.47,0,0,1-69.65,18.3c-13.49,2.75-27.09,4.92-40.74,6.76l6.78-.91c-17.52,2.35-35.11,4.17-52.69,6a28.3,28.3,0,0,0-18,7.47,19,19,0,0,0-5.27,8.2,19.22,19.22,0,0,0-2.2,9.83c.3,6.59,2.46,13.43,7.47,18,4.69,4.3,11.42,8.15,18,7.47,31.47-3.24,63-6.51,94.14-12.45,28.72-5.49,56.9-13.44,84.73-22.36,26.6-8.52,53.07-17.91,78.11-30.38a240.2,240.2,0,0,0,32.83-19.51c11.66-8.34,22.92-17.43,32.56-28.08a175.44,175.44,0,0,0,24.45-34,185.36,185.36,0,0,0,9.67-21.47,120.59,120.59,0,0,0,5.19-17c3-13.25,4.47-27.24,2.93-40.78a132.12,132.12,0,0,0-4.17-22.79,138.89,138.89,0,0,0-8.2-20.63c-5.39-11.2-13-21.42-21.26-30.65-8.49-9.47-18.45-17.51-28.75-24.92-19.53-14.06-41.9-24.16-64.51-32.13a431.37,431.37,0,0,0-79.63-19.32c-30.23-4.51-60.66-6.76-91.23-5.65q-10.5.38-21,1.25a24.62,24.62,0,0,0-23.3,15.67,19.22,19.22,0,0,0-2.2,9.83c.3,6.59,2.46,13.43,7.47,18,4.75,4.36,11.35,8,18,7.47Z"/><path d="M473.26,1453.85c33,9.15,67.67,11.35,101.76,10.92,32.46-.42,64.86-3,97.33-3.16a402.83,402.83,0,0,1,54.56,3.09l-6.78-.91c15.15,2,30.92,4.75,45.08,10.69l-6.09-2.57a57,57,0,0,1,11.91,6.83l-5.17-4a65.9,65.9,0,0,1,11.24,11.46l-4-5.16c10.24,13.34,17.94,28.8,25.76,43.63,8.21,15.58,16.12,31.32,24.75,46.68a400.47,400.47,0,0,0,62.15,83.58,404.74,404.74,0,0,0,45.67,39.68,19,19,0,0,0,9.48,3,19.34,19.34,0,0,0,10.17-.45c5.91-1.63,12.32-6.2,15.24-11.72,3.12-5.92,4.69-13.09,2.57-19.65l-2.57-6.09a25.71,25.71,0,0,0-9.15-9.15l-3.16-2.41,5.16,4a363.32,363.32,0,0,1-64.46-64.43l4,5.16c-18.15-23.5-32.51-49.24-46.19-75.51-7.06-13.58-14.06-27.2-21.65-40.5-3.52-6.17-7.09-12.34-11.2-18.15-5-7-10.36-14.14-17.14-19.57a83,83,0,0,0-13.23-9.2,115.59,115.59,0,0,0-15.51-6.57,167,167,0,0,0-21.23-5.58,350.57,350.57,0,0,0-49.68-6.41c-29.69-1.8-59.44-.19-89.11,1.12s-59.28,2.37-88.79-.56c-3.58-.36-7.16-.78-10.72-1.25l6.78.91a258.7,258.7,0,0,1-34.22-6.95,26.37,26.37,0,0,0-19.65,2.57c-5.29,3.09-10.33,9.16-11.72,15.24-1.49,6.53-1.16,13.85,2.57,19.65a26.73,26.73,0,0,0,15.24,11.72Z"/><path d="M281.12,985.77q79.9,11.28,158.51,30,78.09,18.63,154.2,44.51c28.24,9.61,56.5,19.61,84,31.14l-6.1-2.57c9.74,4.1,19.26,8.79,27.65,15.28l-5.16-4A64.83,64.83,0,0,1,705,1110.75l-4-5.16a56,56,0,0,1,7.12,12l-2.57-6.09a47.06,47.06,0,0,1,3.16,11.2l-.91-6.78a38.68,38.68,0,0,1,0,10.14l.91-6.78a37.18,37.18,0,0,1-2.5,8.9l2.57-6.09a39.38,39.38,0,0,1-4.94,8.31l4-5.16a51.62,51.62,0,0,1-8.89,8.65l5.16-4c-8.76,6.69-18.89,11.26-28.8,15.95-5.1,2.41-10.21,4.85-15.14,7.61a120.4,120.4,0,0,0-18.61,13.13,84.34,84.34,0,0,0-12.1,12.6c-4.79,6.12-9.34,12.23-12.9,19.16a114.33,114.33,0,0,0-13.11,44.89,86.48,86.48,0,0,0,.07,19.63c1,8.66,2.35,17.07,5.4,25.27a28.54,28.54,0,0,0,11.71,15.24c5.47,3.2,13.53,4.55,19.65,2.57s12.13-5.82,15.24-11.72,4.94-13.29,2.57-19.65a81.66,81.66,0,0,1-4.32-17.27l.91,6.78a88.58,88.58,0,0,1,.07-23.29l-.91,6.77a94.32,94.32,0,0,1,6.34-23.14l-2.58,6.09a92,92,0,0,1,11.72-20.18l-4,5.16a85.2,85.2,0,0,1,14.68-14.78l-5.16,4c12.05-9.28,26.52-14.55,39.91-21.48a117.18,117.18,0,0,0,22.81-15.35c4.13-3.57,7.37-7.79,10.64-12.16s5.35-9.36,7.4-14.49c2.26-5.63,3.1-11.85,3.47-17.87a37.53,37.53,0,0,0-.14-6.09,88.19,88.19,0,0,0-2-12.81c-3.21-12.36-10.08-23.57-18.61-33-4.41-4.86-9.74-8.86-15-12.73a96.38,96.38,0,0,0-12.13-7.51c-10.27-5.44-21.19-9.64-32-13.87q-59.51-23.27-120.63-42-60.87-18.69-123-32.84T310.48,938.9q-7.89-1.2-15.8-2.31a19.34,19.34,0,0,0-10.17-.45,19,19,0,0,0-9.48,3c-5.29,3.1-10.33,9.16-11.72,15.24-1.49,6.53-1.16,13.86,2.57,19.65l4,5.16a25.45,25.45,0,0,0,11.25,6.56Z"/><path d="M398.94,1000.14q1.05,6.81,2,13.62L400,1007a718.65,718.65,0,0,1,6.09,74.73,727.81,727.81,0,0,1-1.75,75.31q-1.59,21.1-4.4,42.09l.91-6.78q-4.59,34.11-12.36,67.68t-18.85,66.52q-6.19,18.43-13.39,36.5a19.24,19.24,0,0,0-.46,10.17,18.9,18.9,0,0,0,3,9.48c3.09,5.29,9.16,10.34,15.24,11.72,6.52,1.49,13.85,1.17,19.65-2.57l5.16-4a25.43,25.43,0,0,0,6.55-11.25,716.23,716.23,0,0,0,24.05-71,723.24,723.24,0,0,0,16.5-73.15,795.64,795.64,0,0,0,9.74-80.55,725.13,725.13,0,0,0,1.21-75.32,780.79,780.79,0,0,0-7.44-80.79c-.44-3.06-.89-6.13-1.36-9.19a24.53,24.53,0,0,0-21.2-18.26,19.34,19.34,0,0,0-10.17.45c-6.17,2-12.12,5.82-15.24,11.72l-2.57,6.09a25.58,25.58,0,0,0,0,13.56Z"/></svg>