<svg id="Layer_1" data-name="Layer 1" xmlns="http://www.w3.org/2000/svg" viewBox="0 0 1242 2208"><defs><style>.cls-1{fill:#f6eabe;}.cls-2{fill:#999;}.cls-3{fill:none;stroke:#000;stroke-miterlimit:10;}</style></defs><rect class="cls-1" width="1242" height="2208"/><path d="M883.08,433.46C851.32,546.2,795.74,632.75,723.49,698.65c73,49.23,161.18,84.16,266.78,102.43-11.91,11.9-27,33.34-34.14,47.63C848.14,826.48,757.63,787.58,683,732c-72.25,54.78-155.62,92.1-245.34,117.51-4.77-13.5-18.26-34.94-29.38-45.26,84.16-20.64,164.36-55.58,233.43-105.6C582.16,645.45,534.52,578.76,499.58,501c-35.73,119.89-94.49,240.58-189.76,322.36-11.12-12.71-29.38-25.41-46.06-34.94C407.48,674,463.85,465.22,486.88,311.18H289.17V259.57H493.23c7.94-65.1,9.53-115.13,10.32-135h54c-1.59,23.82-3.17,73-10.32,135h423.2v51.61H540.07C535.31,345.32,529,381.85,520.22,420H838.61l8.74-3.18ZM537.69,470.77c32.56,77.82,81,142.92,143.71,196.12,57.17-52.4,104-116.72,132.6-196.12Z"/><path d="M394.92,1857v42.77h-4.08v-3.54H353.1V1900h-4v-43h20.7v-11.58h4.08V1857Zm-41.82,4v13.5h16.74V1861Zm0,31.26h16.74v-13.86H353.1ZM373.92,1861v13.5h16.92V1861Zm16.92,31.26v-13.86H373.92v13.86Z"/><path d="M433.56,1852.87v7.92h22.26v34.31c0,2.28-.54,3.48-2.22,4.08s-4.68.66-8.94.66a14.79,14.79,0,0,0-1.38-3.6c3.42.12,6.54.12,7.5.06s1.14-.3,1.14-1.2v-30.6H433.56v35.1h-3.78v-35.1h-17.4v35.34h-3.84v-39h21.24v-7.92h-23.4V1849h51.54v3.9Zm-9.84,16.43c0,6.12.42,13.92,5.76,20a8.65,8.65,0,0,0-2.28,1.8A23.88,23.88,0,0,1,422,1879.8a27.16,27.16,0,0,1-6.24,11.4,14.22,14.22,0,0,0-2.34-1.8c4.08-3.9,6.24-9.9,7.2-17.15h-3.9v-3Zm21.12,0c0,6.18.48,13.92,6.24,19.92a11.7,11.7,0,0,0-2.4,1.74,23.65,23.65,0,0,1-5.58-11.64,27.62,27.62,0,0,1-6.18,11.46,15,15,0,0,0-2.34-1.8c4-3.84,6.06-9.72,7.08-16.73h-4.08v-3Z"/><path d="M480.3,1846.63a99.16,99.16,0,0,1-4.86,11.64V1900H471.6v-34.73a68.26,68.26,0,0,1-6.12,8.46,21.26,21.26,0,0,0-2.22-4c5.46-5.88,10.32-14.94,13.32-24.12Zm37,2.46v50.33h-3.78v-3.06H486.3v3.54h-3.72v-50.81Zm-3.78,43.73v-40.25H486.3v40.25Zm-11.82-28.13v6.83h7.08v16H491.58v-16h6.78v-6.83h-9.42v-3.19h9.42v-6.83h3.3v6.83h9.66v3.19Zm3.9,9.89H494.7v9.9h10.86Z"/><path d="M551,1848.49H536.22v35.15h-4v-38.87H551Z"/><path d="M603.06,1850.83c-3.48,13.74-9.9,24.3-18.06,32.27a57.36,57.36,0,0,0,24.78,12.78,15.56,15.56,0,0,0-2.64,3.54,58.72,58.72,0,0,1-25.2-13.56,72.49,72.49,0,0,1-25,13.62,10.78,10.78,0,0,0-2.46-3.54,70.44,70.44,0,0,0,24.6-12.84c-7.38-7.74-12.66-17.69-16.32-29.33H558v-4h41.7l.78-.24Zm-36.3,2.94c3.36,10.38,8.4,19.44,15.36,26.63a59.85,59.85,0,0,0,16.08-26.63Z"/><path d="M613,1896.84h14.82v-35.15h4v38.87H613Z"/><path d="M698.76,1893.18v4H645.3v-4h22.62v-46.85h4.14v18.54h22.62v4H672.06v24.3Z"/><path d="M733,1853.71v10.86l.66-.78c7.32,3.54,16.74,8.93,21.54,12.53l-2.76,3.6c-4.2-3.42-12.48-8.46-19.44-12.12v32.1h-4.2v-46.19H705.54v-4h53v4Z"/><path d="M818.46,1895.64v2.94H765.54v-2.94h10.62V1881H807.9v14.64ZM790,1873.38H767.1v-11.75H790Zm22.44,10.26v-5.22H771.54v5.22h-3.6v-7.86h48.12v7.86Zm-42.18-17.22h6.6V1864h-6.6Zm0,4.75h6.6v-2.59h-6.6Zm39.66-11.82H774.3v-12.18h35.58Zm-32-7.26h12.24v-2.58H777.84Zm0,4.92h12.24v-2.64H777.84Zm8.94,7h-7v2.46h7Zm0,4.62h-7v2.59h7Zm-7,14.94V1886h24.3v-2.52Zm24.3,4.8h-24.3v2.52h24.3Zm-24.3,7.32h24.3v-2.52h-24.3Zm26.4-46.13h-12.6v2.58h12.6Zm0,4.86h-12.6V1857h12.6Zm10.8,19H794.1v-11.75H817Zm-19.86-7h6.66V1864h-6.66Zm0,4.75h6.66v-2.59h-6.66ZM813.9,1864h-7.08v2.46h7.08Zm0,4.62h-7.08v2.59h7.08Z"/><path d="M851.28,1858.87c-.48,26.69-.84,35.33-2.76,37.85a4.59,4.59,0,0,1-3.84,2.16,38.73,38.73,0,0,1-7,0,9.48,9.48,0,0,0-1.2-4c2.88.18,5.52.24,6.6.24a1.89,1.89,0,0,0,2-1c1.38-1.74,1.92-10,2.4-33.59h-9.6c-.54,16.14-2.64,30.65-10.8,39.41a13,13,0,0,0-3-2.7c7.68-7.92,9.48-21.54,9.9-36.71h-8.52v-3.84h8.64c.06-3.48.06-7,.06-10.62H838c0,3.6,0,7.14-.12,10.62h13.38Zm25.26-6v45.83h-4v-4H860.22v4.44h-3.84v-46.25Zm-4,38v-34.13H860.22v34.13Z"/><path d="M890.88,1881c4.68-2,7.26-4.86,7.56-9.17a4,4,0,0,1-1.14.11c-2.34,0-4.26-1.31-4.26-4.07a4,4,0,0,1,4.32-4.08c3.18,0,4.86,2.58,4.86,6.66,0,6.41-4,11.21-10.08,13.43Z"/><path d="M361.92,1918.69a98.85,98.85,0,0,1-6.18,13.56v39.59H351.9v-33.35a61.73,61.73,0,0,1-5.46,7,32.86,32.86,0,0,0-2.28-3.9c5.58-5.87,10.8-14.87,14-24Zm34.14,28c-2.1,1.26-4.44,2.64-6.84,3.78,2,6.06,5.82,11.82,10.38,14.52a11.2,11.2,0,0,0-2.64,2.94c-4.62-3.18-8.46-9.42-10.68-16a27.45,27.45,0,0,1-2.76,1.2c2.58,6.84,1.86,14-1,16.68a6.91,6.91,0,0,1-5.22,1.92c-1.08,0-2.4-.06-3.78-.18a9.31,9.31,0,0,0-1-3.42,38.26,38.26,0,0,0,4.14.24,3.66,3.66,0,0,0,3.12-1.14c1.56-1.38,2.22-5.16,1.44-9.36-5.16,4.92-13.08,9.36-19.8,11.7a15.8,15.8,0,0,0-2.34-2.82c7.62-2.28,16.62-7.14,21.3-12.24a35.76,35.76,0,0,0-1.5-3.48,63.52,63.52,0,0,1-17.22,9.9,16.14,16.14,0,0,0-2.22-2.64c5.94-1.8,13.74-5.76,17.88-9.54a16.39,16.39,0,0,0-2.94-3.18,58.44,58.44,0,0,1-13.56,7.26,11.26,11.26,0,0,0-2.22-2.58,52.7,52.7,0,0,0,15.06-7.55H363.48v-9.36c-1.14,1-2.28,2-3.54,2.94a9.37,9.37,0,0,0-2.52-2.58,44.69,44.69,0,0,0,13.86-16.26l3.84.72c-.6,1.2-1.32,2.34-2,3.54h11.1l.72-.18,2.34,1.68a52.13,52.13,0,0,1-4.8,6.84h13.08v12.66H377.94c-.36.36-.78.66-1.2,1a21,21,0,0,1,5.64,6.84,110,110,0,0,0,10.92-6.42ZM371,1924.81a54.58,54.58,0,0,1-4.2,5.16h11.58a37.88,37.88,0,0,0,3.72-5.16Zm-3.9,14.69h10.5v-6.42h-10.5Zm24.72-6.42H381.18v6.42H391.8Z"/><path d="M433.56,1924.87v7.92h22.26v34.31c0,2.28-.54,3.48-2.22,4.08s-4.68.66-8.94.66a14.79,14.79,0,0,0-1.38-3.6c3.42.12,6.54.12,7.5.06s1.14-.3,1.14-1.2v-30.6H433.56v35.1h-3.78v-35.1h-17.4v35.34h-3.84v-39h21.24v-7.92h-23.4V1921h51.54v3.9Zm-9.84,16.43c0,6.12.42,13.92,5.76,20a8.65,8.65,0,0,0-2.28,1.8A23.88,23.88,0,0,1,422,1951.8a27.16,27.16,0,0,1-6.24,11.4,14.22,14.22,0,0,0-2.34-1.8c4.08-3.9,6.24-9.9,7.2-17.15h-3.9v-3Zm21.12,0c0,6.18.48,13.92,6.24,19.92a11.7,11.7,0,0,0-2.4,1.74,23.65,23.65,0,0,1-5.58-11.64,27.62,27.62,0,0,1-6.18,11.46,15,15,0,0,0-2.34-1.8c4-3.84,6.06-9.72,7.08-16.73h-4.08v-3Z"/><path d="M472.8,1932.31a51.81,51.81,0,0,1-5.76,6.06,19,19,0,0,0-3.06-2.64,50.31,50.31,0,0,0,13.8-18.54l3.72,1.14a54,54,0,0,1-3.18,6.12H493a49.89,49.89,0,0,0-3.12-5.88l3.66-1.08a49.49,49.49,0,0,1,3.72,7H514.5v3.18H495.18v4.2H512.4v2.88H495.18V1939H512.4v2.88H495.18v4.33h20.28v3.11H476.52v1.86H472.8Zm38.28,22.13c-3.12,4.32-7.86,7.68-13.44,10.26a103.56,103.56,0,0,0,20.7,3.42,15.5,15.5,0,0,0-2.22,3.48,96.13,96.13,0,0,1-23.46-4.86c-8,2.88-17.22,4.38-26,5.22a14.88,14.88,0,0,0-1.5-3.48,107.35,107.35,0,0,0,22.62-3.78,35.1,35.1,0,0,1-11.76-8.28l.12-.06h-8.64v-3.3H508l.66-.24Zm-19.8-26.81H476.52v4.2h14.76Zm0,7.08H476.52V1939h14.76Zm0,7.13H476.52v4.33h14.76Zm-10.5,14.52a37.11,37.11,0,0,0,11.94,6.78,37,37,0,0,0,11.88-6.78Z"/><path d="M547.26,1931.71c-.18,3.29-.48,6.59-.9,10h25.5s-.06,1.37-.12,2c-1.26,17-2.4,23.46-4.8,25.8-1.26,1.38-2.64,1.8-4.86,1.92a87,87,0,0,1-10-.24,9,9,0,0,0-1.38-3.84c4.26.36,8.46.42,10,.42a4,4,0,0,0,2.82-.72c1.74-1.56,2.88-7.44,4-21.48H545.76c-1.92,10.68-6.42,20.7-17.82,26.64a11.83,11.83,0,0,0-2.88-3.12c15.54-7.68,17.1-23.46,17.82-37.31H526.44v-3.84H577.8v3.84Zm5.64-4a74.52,74.52,0,0,0-4.2-9.18l3.84-1.5a65.56,65.56,0,0,1,4.26,8.94Z"/><path d="M636.12,1966.44c0,2.76-.66,4.14-2.64,4.86s-5.76.66-11.22.66a15.26,15.26,0,0,0-1.5-4.08c4.5.18,8.64.12,9.9.06s1.5-.36,1.5-1.5v-34.86h-40V1972h-4v-44.27h16.5a99,99,0,0,0,3.9-10.5l4.86.84c-1.38,3.18-2.94,6.78-4.44,9.66h27.12Zm-32.1-7v4.32h-3.66v-23.93H623.7v19.61Zm0-16v12.42h16v-12.42Z"/><path d="M659,1939.63c2,2,7.68,8.58,8.94,10.19l-2.52,3.24a98.08,98.08,0,0,0-6.42-8.88v27.66h-3.78v-29.58c-2.4,7.2-5.7,14.22-9.06,18.42a27.23,27.23,0,0,0-2.16-3.6c4.2-5,8.52-14.63,10.74-23.09h-9.42v-3.72h9.9v-13H659v13h8.76V1934H659Zm38.16-18.72v50.45h-3.9v-3.48h-19v3.66H670.5v-50.63Zm-22.86,3.78v10.5h19v-10.5Zm0,25h19v-10.8h-19Zm19,14.58V1953.3h-19v10.92Z"/><path d="M756.6,1966.8c0,2.58-.72,3.84-2.4,4.5s-4.74.78-9.9.78a14.91,14.91,0,0,0-1.5-3.9c3.9.12,7.38.12,8.4.06s1.5-.42,1.5-1.44v-42.53H711.42v47.87h-3.9v-51.65H756.6Zm-9.24-32.39H716.94v-3.48h30.42Zm-23.64,25.31v4.44H720V1941h24v18.77Zm0-15.35v11.93h16.56v-11.93Z"/><path d="M781,1918c-1,2.94-2.1,6.3-3.18,8.88H788v38.75h-16.8v4.8h-3.66v-43.55h6.66a64.68,64.68,0,0,0,2.58-9.72Zm3.3,12.47H771.18v13.08h13.14Zm0,31.56v-14.88H771.18v14.88Zm33.06-33.17c-1,27.53-1.8,36.71-4.2,39.59a5.6,5.6,0,0,1-4.56,2.28,74.94,74.94,0,0,1-8.82-.12,9.42,9.42,0,0,0-1.32-3.9c3.9.36,7.5.36,8.82.36s1.92-.12,2.52-.9c2-2.1,2.94-11.34,3.72-35.7H797.82a55.33,55.33,0,0,1-5.64,10.68,36.22,36.22,0,0,0-3.36-2.22c4.08-5.33,7.32-13.61,9.18-21.89l3.84.84c-.78,3-1.62,6-2.64,8.88h18.18Zm-12.78,27a106.51,106.51,0,0,0-9.3-13.92l3.06-1.79a102.47,102.47,0,0,1,9.6,13.61Z"/><path d="M878.94,1952.22H854.1v14c0,3-1,4.2-3.06,4.86s-5.94.72-12.3.66a17.27,17.27,0,0,0-1.74-3.9c5.16.12,9.84.06,11.16.06s1.86-.48,1.86-1.74v-13.92H825.18v-3.9H850v-10.19H829.14v-3.84H850v-9.6c-6.66.66-13.56,1.14-19.8,1.44a16.18,16.18,0,0,0-1-3.54c14.16-.72,31.8-2.28,40.74-5.16l2.94,3.24a123.25,123.25,0,0,1-18.78,3.6v10h21.48v3.84H854.1v10.19h24.84Z"/><path d="M890.88,1953c4.68-2,7.26-4.86,7.56-9.17a4,4,0,0,1-1.14.11c-2.34,0-4.26-1.31-4.26-4.07a4,4,0,0,1,4.32-4.08c3.18,0,4.86,2.58,4.86,6.66,0,6.41-4,11.21-10.08,13.43Z"/><path d="M375.24,1990.51a13.18,13.18,0,0,1-.84,1.08c5.7,5.64,16.2,10.62,25.56,12.83a12.89,12.89,0,0,0-2.52,3.12,71.7,71.7,0,0,1-14.88-6.17l-.06,1.92H361.74l.06-1.68a88.84,88.84,0,0,1-14.88,6.23,32.14,32.14,0,0,0-2.28-3c10.8-3,21.48-8.28,27.12-15.6Zm-23.16,16H392v14.88h-39.9Zm3.42,12.06h14.7v-9.23H355.5Zm.12,5.82H389v19.38h-4v-1.86h-25.5v2h-3.9Zm6.66-14.21a21.72,21.72,0,0,1,3.78,6.83l-3.06,1.21a27.26,27.26,0,0,0-3.6-7.09Zm-2.76,17.15v4.32H385v-4.32Zm25.5,11.64v-4.38h-25.5v4.38Zm-4.2-38.57a48.46,48.46,0,0,1-8.58-6.42,45.19,45.19,0,0,1-8.34,6.42Zm7.5,8.94H373.56v9.23h14.76Zm-10.62,7.79a53.26,53.26,0,0,0,3.54-7.2l3.36,1.08a73,73,0,0,1-4.14,7.21Z"/><path d="M406.08,2040.48c3.06-2.58,5.64-7,7.08-10.44l3.3,1.5c-1.68,3.6-4.08,8-7.14,10.86Zm51.72-36.9v3.25H406.56v-3.25h14.16a23.89,23.89,0,0,0-2.34-5.45l3.36-.84H409.26V1994h21.9c-.72-1.44-1.56-2.94-2.34-4.2l3.78-.9a39.9,39.9,0,0,1,2.94,5.1h19.2v3.3H442.86l3.24.78c-1,1.92-2,3.84-3,5.51Zm-7,23.7H429.66a47.07,47.07,0,0,1,8.82,6.24L436,2036a48.61,48.61,0,0,0-9.3-6.9l2-1.8H413.58V2010h37.2Zm-3.9-14.45H417.36v4.43h29.52Zm0,7.13H417.36v4.44h29.52Zm-8.22,20.16c2.58,0,3-.72,3.24-6.24a12.08,12.08,0,0,0,3.54,1.38c-.48,6.66-1.74,8.22-6.42,8.22H427.44c-5.82,0-7.38-1-7.38-5v-8H424v8c0,1.38.54,1.68,3.72,1.68ZM422,1997.29a26.19,26.19,0,0,1,2.76,6.18l-.48.11H439a59.18,59.18,0,0,0,3.06-6.29Zm27.66,32.21a46.55,46.55,0,0,1,8,10.2l-3.36,1.74a49,49,0,0,0-7.8-10.56Z"/><path d="M465.24,2039.22c2.82-3.78,4.92-9.84,6.06-14.58l3.6,1.26c-1.26,4.8-3.36,11.22-6.06,15.18Zm53.4-41V2002H494v10.55H515v3.84H469.38v-3.84h20.46V2002h-24.3v-3.84h24.3v-8.88H494v8.88Zm-18.06,41.33c3.24,0,3.78-1,4.14-7.5a12.27,12.27,0,0,0,3.66,1.44c-.6,7.8-1.92,9.66-7.56,9.66h-14c-6.6,0-8.34-1.14-8.34-5.76V2024.1h3.9v13.26c0,1.74.72,2.16,4.56,2.16Zm-2.4-8.82c-2.7-3.06-8.4-7.38-13.32-10.26l2.76-2.46c4.8,2.77,10.62,7,13.44,10Zm12.18-6.66a117.68,117.68,0,0,1,8.16,15.78l-3.9,1.56a100,100,0,0,0-7.86-16Z"/><path d="M576.6,2038.8c0,2.58-.72,3.84-2.4,4.5s-4.74.78-9.9.78a14.91,14.91,0,0,0-1.5-3.9c3.9.12,7.38.12,8.4.06s1.5-.42,1.5-1.44v-42.53H531.42v47.87h-3.9v-51.65H576.6Zm-9.24-32.39H536.94v-3.48h30.42Zm-23.64,25.31v4.44H540V2013h24v18.77Zm0-15.35v11.93h16.56v-11.93Z"/><path d="M600.3,2018.71a51.8,51.8,0,0,1-4,13.55c4.08,6.36,11.7,7.26,22.92,7.32,6.24,0,14.76-.3,20.7-.78a13.29,13.29,0,0,0-1.38,3.84c-5.46.36-12.9.48-19.38.48-12.12,0-19.74-1.2-24.42-7.8a28.4,28.4,0,0,1-8.1,8.88,10.78,10.78,0,0,0-2.64-2.82c5.88-3.72,10.26-10.44,12.18-20.1h-6.78a6.47,6.47,0,0,0-3.54.85,26.17,26.17,0,0,0-1.56-3.73,5.35,5.35,0,0,0,2.88-1.73c1.44-1.45,5.28-6.54,7.92-10.21h-10v-3.29H597.6l.72-.3,2.7,1.26c-2.64,3.54-7.26,9.83-10.74,13.85h7.32l.72-.06Zm-5.52-17.94a97.82,97.82,0,0,0-7.44-9.6l2.94-1.74a75.62,75.62,0,0,1,7.56,9.18Zm20.52,5.1a30.75,30.75,0,0,0,1.44-5.1h-16v-3.42H611a29.73,29.73,0,0,0-4-6.54l3.12-1.26a26.38,26.38,0,0,1,4.32,6.6l-2.4,1.2H623a53.54,53.54,0,0,0,4.74-8l3.84,1.14c-1.38,2.34-3.06,4.86-4.5,6.84h11.46v3.42h-17.4c-.72,1.8-1.44,3.54-2.1,5.1h14.4v27.89H605.7v-27.89Zm14.22,3.05h-20v5.29h20Zm0,8.16h-20v5.34h20Zm0,8.22h-20v5.34h20Z"/><path d="M676.56,1991a20.19,20.19,0,0,1-1.92,2.7c6.9,7.44,15.42,12.48,25.2,16.8a13,13,0,0,0-2.76,3.47c-9.48-4.55-17.64-9.71-24.72-17.39a68.15,68.15,0,0,1-14.46,12.35h29.22v3.72H657v-3.11a76.13,76.13,0,0,1-9.48,4.92,20.23,20.23,0,0,0-2.82-3.42c11.4-4.45,22.38-12.54,28.38-21.78ZM654,2020.14h36.78v23.52h-4.2v-3.24H658v3.48h-4Zm4,3.6v12.9h28.56v-12.9Z"/><path d="M721,1990c-1,2.94-2.1,6.3-3.18,8.88H728v38.75h-16.8v4.8h-3.66v-43.55h6.66a64.68,64.68,0,0,0,2.58-9.72Zm3.3,12.47H711.18v13.08h13.14Zm0,31.56v-14.88H711.18v14.88Zm33.06-33.17c-1,27.53-1.8,36.71-4.2,39.59a5.6,5.6,0,0,1-4.56,2.28,74.94,74.94,0,0,1-8.82-.12,9.42,9.42,0,0,0-1.32-3.9c3.9.36,7.5.36,8.82.36s1.92-.12,2.52-.9c2-2.1,2.94-11.34,3.72-35.7H737.82a55.33,55.33,0,0,1-5.64,10.68,36.22,36.22,0,0,0-3.36-2.22c4.08-5.33,7.32-13.61,9.18-21.89l3.84.84c-.78,3-1.62,6-2.64,8.88h18.18Zm-12.78,27a106.51,106.51,0,0,0-9.3-13.92l3.06-1.79a102.47,102.47,0,0,1,9.6,13.61Z"/><path d="M788.82,2038c0,2.28-.48,3.42-2,4.08s-4.08.72-8,.66a17.4,17.4,0,0,0-1.2-3.66c2.94.12,5.58.12,6.36.06s1.14-.3,1.14-1.14v-14.64H773.16c-.6,7.2-2.1,14.94-5.82,20.7a15,15,0,0,0-3.24-2.1c5.22-8,5.7-19.31,5.7-28v-21.23h19Zm-3.72-18.24v-10H773.52V2014c0,1.81-.06,3.78-.12,5.76Zm-11.58-23.33v9.72H785.1v-9.72Zm42.42,41.87c0,2.52-.54,3.72-2.22,4.44s-4.56.78-9.18.78a16.18,16.18,0,0,0-1.32-4c3.48.12,6.66.06,7.56,0s1.32-.3,1.32-1.26v-14.94H799c-.78,7.26-2.52,15-6.78,20.82a14.79,14.79,0,0,0-3.24-2.22c6.06-8.1,6.6-19.74,6.6-28.56v-20.63h20.4Zm-3.84-18.54v-10H799.38v3.66c0,2-.06,4.14-.18,6.36Zm-12.72-23.33v9.72H812.1v-9.72Z"/><path d="M871.2,2012.64a41.7,41.7,0,0,1-12.06,20,51.14,51.14,0,0,0,20.16,7.74,16.52,16.52,0,0,0-2.58,3.6,51.3,51.3,0,0,1-20.64-8.82,55.24,55.24,0,0,1-18.54,8.88,10.49,10.49,0,0,0-2.22-3.42,50.6,50.6,0,0,0,17.64-8,44,44,0,0,1-10.74-14.93c-2.7,9-7.14,18.17-14.34,24.35a14.36,14.36,0,0,0-3.48-2.64c10.86-8.64,15.12-24.42,16.86-36H826.32v-3.9h15.42c.6-4.92.72-8.7.78-10.2h4.08c-.12,1.8-.24,5.52-.78,10.2h32v3.9H845.28c-.36,2.58-.84,5.34-1.5,8.22h24.06l.66-.25Zm-26.1,2.82A38.84,38.84,0,0,0,856,2030.28a36.92,36.92,0,0,0,10-14.82Z"/><path d="M897.18,2007.67a9.06,9.06,0,1,1-9.06,9A9.09,9.09,0,0,1,897.18,2007.67Zm0,15.23a6.18,6.18,0,1,0,0-12.36,6.18,6.18,0,1,0,0,12.36Z"/><path d="M486.9,2099.1s-.06,1.14-.12,1.62c-.78,8.4-1.56,11.88-3,13.26a5.12,5.12,0,0,1-3.78,1.38,74.41,74.41,0,0,1-7.92-.12,9,9,0,0,0-1.2-3.42c3.3.24,6.6.3,7.74.3a3.22,3.22,0,0,0,2.22-.48c.9-.84,1.56-3.42,2.16-9.42H469c.66-3.48,1.5-8.7,2-12.89h12.12v-6.66H473V2082a49.59,49.59,0,0,1-6.9,2.93,15.49,15.49,0,0,0-2.22-3,42.47,42.47,0,0,0,12.06-5.75,40.34,40.34,0,0,0-6.9-5.52l2.34-2.16a42.45,42.45,0,0,1,7.38,5.58,30.58,30.58,0,0,0,6.06-6.78H470.52V2064H486.9l.72-.18L490,2065c-2.64,6-7.38,10.8-12.78,14.39h9.54v13.08H474c-.3,2.28-.66,4.56-1,6.6Zm30.9-29.27a66.55,66.55,0,0,1-8.7,6.78,41.49,41.49,0,0,0,10.5,4.43,20.1,20.1,0,0,0-2.4,3.18,44.52,44.52,0,0,1-8.88-3.84v8.46c0,1.33.12,1.68,1,1.68h4.74a15.17,15.17,0,0,0,2.82-.18,21.74,21.74,0,0,0,.24,2.83,11.25,11.25,0,0,1-3,.23h-5.22c-3.36,0-4-1.32-4-4.61v-6.3h-8.7V2084a11.94,11.94,0,0,1-6.54,11.16,12.87,12.87,0,0,0-2.58-2.52c4.86-2.51,5.7-5.81,5.7-8.69v-4.74h13.74a40.47,40.47,0,0,1-14.82-16.8l3.24-1a33.07,33.07,0,0,0,4.86,7.44,73.26,73.26,0,0,0,8-7.08l2.94,2a107.11,107.11,0,0,1-8.88,7.26,45.63,45.63,0,0,0,4.56,3.72,68.25,68.25,0,0,0,8.46-7Zm-4.44,27.47a25.88,25.88,0,0,1-8,10.8c3.3,2,6.24,3.9,8.34,5.46l-2,2.64c-2.22-1.68-5.4-3.84-8.94-6.06a45.77,45.77,0,0,1-13.8,5.94,10.15,10.15,0,0,0-1.86-2.94,43.71,43.71,0,0,0,12.54-4.92c-3.3-2-6.66-4-9.66-5.7l2-2.16c3.18,1.74,6.9,3.84,10.44,6a25,25,0,0,0,6.18-6.9H489.84v-2.94h20.64l.66-.18Z"/><path d="M578.58,2081v3.65h-53.1V2081h15.36a31.79,31.79,0,0,0-3.66-9.12L541,2071a30.77,30.77,0,0,1,4,9.3l-2.52.66h16.38a80,80,0,0,0,4.5-10.2l4.32,1.08c-1.5,3-3.12,6.42-4.62,9.12Zm-3-10.5H528.9v-3.6h21.9a23.94,23.94,0,0,0-2.46-5.16l3.9-.84a26.71,26.71,0,0,1,3,6h20.34ZM533.88,2090h36.84V2116h-4.08v-2.16h-28.8v2.28h-4Zm4,3.48v6.66h28.8v-6.66Zm28.8,16.86v-7h-28.8v7Z"/><path d="M602,2074.63a65.37,65.37,0,0,1-5.34,7.91v33.66H593v-29.28a74.28,74.28,0,0,1-7.14,6.78,29.45,29.45,0,0,0-2.34-3.48,58.73,58.73,0,0,0,15-16.85Zm-1.44-11.88a59.36,59.36,0,0,1-14.1,14.1,21.26,21.26,0,0,0-2.28-2.82c4.74-3.24,10.14-8.4,12.78-12.66Zm22.2,48.59a31.51,31.51,0,0,0,5.46.42c1.26.06,9.36,0,11.22,0a10.05,10.05,0,0,0-1.32,3.6H628c-9.06,0-15.3-2.22-19.14-11.4a26.48,26.48,0,0,1-7.26,11.82,28.42,28.42,0,0,0-3.12-2.52c6.18-5,8.4-13.2,8.94-24.3l3.84.3a74,74,0,0,1-1,8.88c1.86,6.78,4.86,10.38,8.88,12.12v-25.68h.48a25.66,25.66,0,0,0-2.88-2.21c6.12-4.45,9.48-11.64,10.8-20.94l3.84.48a50.08,50.08,0,0,1-2.4,9.72,78.36,78.36,0,0,1,10.74,10.62L636.9,2085a80.5,80.5,0,0,0-9.36-10,28.48,28.48,0,0,1-7.26,9.59h2.52v10.32h13.62v3.48H622.8Zm-5.22-30.84a61,61,0,0,0-6.18-6,36.85,36.85,0,0,1-7.92,11.34,19.54,19.54,0,0,0-3-2.76c5.64-4.85,9.24-12.59,11-21.71l3.9.6a60.12,60.12,0,0,1-2.64,9.3,60.56,60.56,0,0,1,6.78,6.12Z"/><path d="M671,2064.49H656.22v35.15h-4v-38.87H671Z"/><path d="M723.06,2066.83c-3.48,13.74-9.9,24.3-18.06,32.27a57.36,57.36,0,0,0,24.78,12.78,15.56,15.56,0,0,0-2.64,3.54,58.72,58.72,0,0,1-25.2-13.56,72.49,72.49,0,0,1-25,13.62,10.78,10.78,0,0,0-2.46-3.54,70.44,70.44,0,0,0,24.6-12.84c-7.38-7.74-12.66-17.69-16.32-29.33H678v-4h41.7l.78-.24Zm-36.3,2.94c3.36,10.38,8.4,19.44,15.36,26.63a59.85,59.85,0,0,0,16.08-26.63Z"/><path d="M733,2112.84h14.82v-35.15h4v38.87H733Z"/><path d="M777.18,2079.67a9.06,9.06,0,1,1-9.06,9A9.09,9.09,0,0,1,777.18,2079.67Zm0,15.23a6.18,6.18,0,1,0,0-12.36,6.18,6.18,0,1,0,0,12.36Z"/><rect class="cls-2" x="1113" y="1270" width="65" height="220" rx="12"/><path class="cls-1" d="M1157.05,1308.79a27.61,27.61,0,0,0,11.5,8.1,11.65,11.65,0,0,0-2.15,2.55,30.77,30.77,0,0,1-12.8-10.65h-15.95a34.39,34.39,0,0,1-13,11.3,11.43,11.43,0,0,0-2.15-2.55,30.39,30.39,0,0,0,11.6-8.75H1123v-2.85h10v-16.15h-7.7V1287h7.7v-5h3.3v5h18.55v-5h3.35v5h7.65v2.8h-7.65v16.15h9.8v2.85Zm-10,14.5h17.3v2.85H1126.8v-2.85h16.9v-5.6h-10.45v-2.8h10.45v-4.4h3.35v4.4h10.65v2.8h-10.65Zm-10.8-33.5v3.6h18.55v-3.6Zm0,9.8h18.55v-3.65h-18.55Zm0,6.35h18.55v-3.8h-18.55Z"/><path class="cls-1" d="M1141.25,1350.54s0,1.15,0,1.55c-.6,15.85-1.2,21.2-2.6,23a3.71,3.71,0,0,1-2.8,1.45,32.65,32.65,0,0,1-4.45,0,9.25,9.25,0,0,0-.85-3c1.75.15,3.2.15,3.9.15a1.42,1.42,0,0,0,1.45-.65c1-1.2,1.6-6,2.15-19.35h-6.8c-.55,10-2,18.25-6.45,23.65a9.53,9.53,0,0,0-2.55-2.35c5.45-6.45,5.9-17.85,6.1-31.55h-5.2v-3.1h20.1v3.1h-11.65c0,2.45-.1,4.85-.2,7.15Zm-7.9-10.45a33.47,33.47,0,0,0-4.25-7.15l2.9-1.15a31.92,31.92,0,0,1,4.4,7Zm23.85-7.45a15.26,15.26,0,0,1-.85,2.55c2.65,5.45,7.7,11.35,12.45,14a13,13,0,0,0-2.45,2.75c-4.25-2.7-8.5-8-11.4-13.3a32.61,32.61,0,0,1-11,13.6,12.79,12.79,0,0,0-2.35-2.65c5.85-3.6,10.35-10.2,12.5-17.85Zm-8.3,32.45a74,74,0,0,1,13.6,8.25l-2.25,2.9c-2.85-2.6-8.75-6.3-13.4-8.65Zm9.5-4.85a66.22,66.22,0,0,0-8.6-6.85l2.15-2.2a67.46,67.46,0,0,1,8.75,6.55Z"/><path class="cls-1" d="M1131.35,1392.94a26.09,26.09,0,0,1-7.85,7.85,15.83,15.83,0,0,0-1.4-2.75,23.7,23.7,0,0,0,8.35-8h-7.6v-2.85h8.5v-5.05h3.15v5.05h8.75V1390h-8.75v.5c2,1.4,6.85,5,8,6l-1.75,2.35a82,82,0,0,0-6.3-5.65v7.65h-3.15Zm-2.3,22.15a27.37,27.37,0,0,1-4.45,8.6,17.48,17.48,0,0,0-2.35-1.25,23.16,23.16,0,0,0,4.15-8Zm5.4-2.85v12c0,1.5-.3,2.15-1.4,2.6s-2.75.45-5.5.45a8.11,8.11,0,0,0-.9-2.45c1.95,0,3.65,0,4.15,0s.7-.15.7-.65v-11.9h-8.8v-2.8h20v2.8Zm-9.85-9.75h16.55v2.8H1124.6Zm27.45,14.8c-2.9,2.15-6,4.45-8.65,6.3l-1.5-2.1-2.15,1a34.6,34.6,0,0,0-3.35-7.35l2.4-1a32.45,32.45,0,0,1,3.3,6.8c2.35-1.5,5.55-3.85,8.85-6.25Zm16.3-22.8v2.75H1165v8h-8.5v18.55c0,1.9-.45,2.7-1.55,3.2s-3,.55-6.1.55a13.89,13.89,0,0,0-1-2.85c2.15.1,4.15.1,4.7,0,.7,0,.9-.2.9-.9v-18.6h-8.55v-2.85h8.55v-5.1h-10v-2.75h10v-4.8h-8v-2.85h8v-4.9h3v4.9h8.5v7.65Zm-18.85,19.7a35.77,35.77,0,0,0-5.5-5.55l1.85-1.85a35.6,35.6,0,0,1,5.55,5.3Zm7-19.7h5.6v-4.8h-5.6Zm5.6,2.75h-5.6v5.1h5.6Zm-2.75,17.1c3,2.2,6.9,5.35,8.9,7.2l-2,2.35c-2-2-5.8-5.2-8.8-7.55Zm7-6a64.3,64.3,0,0,1-5.8,5.85l-1.85-1.7a52.25,52.25,0,0,0,5.4-6.15Z"/><path class="cls-1" d="M1167.55,1457.29v2.5H1123.4v-2.5h20.25v-3.2H1126.8v-2.3h16.85v-3H1128.2v-2.25h15.45v-3.2H1123.5v-2.5h20.15v-3H1128.8v-2.35h14.85v-3.55h3.25v3.55h14.45v5.4h6.15v2.5h-6.15v5.45H1146.9v3h17.3v2.3h-17.3v3.2Zm-37.75,5h31.75v15.25h-3.25v-1.6H1133v1.7h-3.2Zm3.2,2.4v3.2h25.3v-3.2Zm25.3,8.85v-3.4H1133v3.4Zm-11.4-32.7h11.15v-3H1146.9Zm0,5.7h11.15v-3.2H1146.9Z"/><rect class="cls-2" x="1113" y="433" width="65" height="126" rx="12"/><path class="cls-1" d="M1132.7,462.82c1.25,1.6,4.9,6.7,5.7,8.05l-2,2.45c-.7-1.5-2.35-4.4-3.75-6.65V493h-3.15V468.57c-1.5,5.05-3.5,9.9-5.55,12.85a14.83,14.83,0,0,0-1.75-3.1c2.9-4,5.8-11.5,7.2-18h-6.2v-3.15h6.3v-9.65h3.15v9.65h5.45v3.15h-5.45Zm19.1.7a19.47,19.47,0,0,0,.45,2.65c-10.15,2.7-11.6,3.15-12.5,3.75a12.13,12.13,0,0,0-1.1-3.2c.7-.2,1.55-.5,1.55-2.2v-16.7h3.25v6.5h8.35v2.9h-8.35v8.3Zm2.35,5.5-2,3.75h12.65V493h-3.4v-1.75h-17v2h-3.3V472.77h7.9c.55-1.5,1.2-3.25,1.55-4.6Zm7.3,6.5h-17v5.05h17Zm0,13v-5.3h-17v5.3Zm2.25-22.4c1.25,0,1.5-.75,1.65-5.25a9.16,9.16,0,0,0,2.85,1.25c-.3,5.45-1.2,6.95-4.15,6.95h-5.85c-3.65,0-4.55-.95-4.55-4.45V447.87h3.25v6.5h10.2v2.9h-10.2v7.35c0,1.3.25,1.5,1.65,1.5Z"/><path class="cls-1" d="M1167.55,522.87v2.5H1123.4v-2.5h20.25v-3.2H1126.8v-2.3h16.85v-3H1128.2v-2.25h15.45v-3.2H1123.5v-2.5h20.15v-3.05H1128.8V501h14.85v-3.55h3.25V501h14.45v5.4h6.15v2.5h-6.15v5.45H1146.9v3h17.3v2.3h-17.3v3.2Zm-37.75,5h31.75v15.25h-3.25v-1.6H1133v1.7h-3.2Zm3.2,2.4v3.2h25.3v-3.2Zm25.3,8.85v-3.4H1133v3.4Zm-11.4-32.7h11.15v-3.05H1146.9Zm0,5.7h11.15v-3.2H1146.9Z"/><line class="cls-3" x1="601.5" y1="792.5" x2="601.5" y2="783.5"/><path d="M991.54,1294.1a132.63,132.63,0,0,0-12.64-15.23,143.56,143.56,0,0,0-15.09-12.63,141.84,141.84,0,0,0-24.52-14.68c-20.1-9.63-41.38-16.68-62.52-23.6q-65.49-21.43-132.83-36.46c-46.57-10.38-93.63-18.28-141-24.16q-67.77-8.43-136.13-10.31c-45.62-1.25-91.31-.26-136.83,3q-8.58.62-17.13,1.33c-6.87.57-13,2.46-18,7.47-4.43,4.42-7.76,11.68-7.47,18,.29,6.59,2.46,13.43,7.47,18,4.74,4.36,11.35,8,18,7.47a1403,1403,0,0,1,236.83.4q33.74,2.91,67.31,7.42l-6.78-.91a1427.68,1427.68,0,0,1,239.42,53.54c20.34,6.43,40.85,12.89,60.54,21.15l-6.09-2.57c12.28,5.21,24.17,11.37,34.77,19.53l-5.16-4a96,96,0,0,1,16.53,16.44l-4-5.16c.42.54.84,1.09,1.24,1.65,4.09,5.52,8.36,9.82,15.24,11.72,6.1,1.68,14.23.92,19.65-2.57s10.24-8.74,11.72-15.24c1.43-6.27,1.43-14.25-2.57-19.65Z"/><path d="M366.06,1040a230.06,230.06,0,0,1,39.87,12.63l-6.09-2.57a216.49,216.49,0,0,1,47,26.92l-5.16-4a97.67,97.67,0,0,1,17.68,17.21l-4-5.17a86,86,0,0,1,10.56,18.34l-2.57-6.09a127.57,127.57,0,0,1,8.37,32.15l-.91-6.78a206.16,206.16,0,0,1-.35,54.31l.91-6.78a267,267,0,0,1-18.79,67l2.57-6.09c-11.94,28.2-28,54.37-46.68,78.59l4-5.17c-26.59,34.33-57.94,64.55-90.13,93.55-9.09,8.19-18.26,16.29-27.43,24.39-4.71,4.17-7.46,11.9-7.46,18s2.77,13.73,7.46,18c4.86,4.46,11.24,7.77,18,7.46a28,28,0,0,0,18-7.46c28.1-24.83,56.23-49.73,82.1-76.91,26.91-28.29,51.82-59.24,70.82-93.45a350.58,350.58,0,0,0,24.77-55.37,283.15,283.15,0,0,0,13.17-58.73c2.45-20,1.72-39.74-1.13-59.64a129.49,129.49,0,0,0-6.34-26.05c-3.71-10.15-8.2-20.14-14.74-28.79a121.53,121.53,0,0,0-12.51-14.65,168.64,168.64,0,0,0-14.84-12.22,205.47,205.47,0,0,0-22.89-15,255.49,255.49,0,0,0-56.7-23.68q-6.49-1.81-13.08-3.25c-6.67-1.46-13.63-.95-19.64,2.57-5.29,3.1-10.34,9.16-11.72,15.24-1.49,6.53-1.17,13.86,2.57,19.65,3.49,5.42,8.74,10.3,15.24,11.72Z"/><path d="M509.88,1334.42a459.63,459.63,0,0,1,77.29.17q11,.95,21.84,2.42l-6.78-.91a439.28,439.28,0,0,1,83.85,19.5q9.21,3.17,18.19,7l-6.09-2.57c16.64,7.06,32.65,15.76,47,26.81l-5.16-4a137.91,137.91,0,0,1,24.63,24.31l-4-5.16a106.76,106.76,0,0,1,13.49,22.9l-2.57-6.09a96.53,96.53,0,0,1,6.7,24.21l-.91-6.78a101.5,101.5,0,0,1,0,26.35l.91-6.78a120.25,120.25,0,0,1-8.51,30.66l2.57-6.09A144.06,144.06,0,0,1,754,1511.44l4-5.16a162.52,162.52,0,0,1-29.37,29l5.16-4c-17.57,13.5-37.25,23.87-57.61,32.48l6.09-2.57c-20.2,8.51-41.06,15.42-62,21.94a712.47,712.47,0,0,1-69.65,18.3c-13.49,2.75-27.09,4.92-40.74,6.76l6.78-.91c-17.52,2.35-35.11,4.17-52.69,6a28.3,28.3,0,0,0-18,7.47,19,19,0,0,0-5.27,8.2,19.22,19.22,0,0,0-2.2,9.83c.3,6.59,2.46,13.43,7.47,18,4.69,4.3,11.42,8.15,18,7.47,31.47-3.24,63-6.51,94.14-12.45,28.72-5.49,56.9-13.44,84.73-22.36,26.6-8.52,53.07-17.91,78.11-30.38a240.2,240.2,0,0,0,32.83-19.51c11.66-8.34,22.92-17.43,32.56-28.08a175.44,175.44,0,0,0,24.45-34,185.36,185.36,0,0,0,9.67-21.47,120.59,120.59,0,0,0,5.19-17c3-13.25,4.47-27.24,2.93-40.78a132.12,132.12,0,0,0-4.17-22.79,138.89,138.89,0,0,0-8.2-20.63c-5.39-11.2-13-21.42-21.26-30.65-8.49-9.47-18.45-17.51-28.75-24.92-19.53-14.06-41.9-24.16-64.51-32.13a431.37,431.37,0,0,0-79.63-19.32c-30.23-4.51-60.66-6.76-91.23-5.65q-10.5.38-21,1.25a24.62,24.62,0,0,0-23.3,15.67,19.22,19.22,0,0,0-2.2,9.83c.3,6.59,2.46,13.43,7.47,18,4.75,4.36,11.35,8,18,7.47Z"/><path d="M509.26,1494.85c33,9.15,67.67,11.35,101.76,10.92,32.46-.42,64.86-3,97.33-3.16a402.83,402.83,0,0,1,54.56,3.09l-6.78-.91c15.15,2,30.92,4.75,45.08,10.69l-6.09-2.57a57,57,0,0,1,11.91,6.83l-5.17-4a65.9,65.9,0,0,1,11.24,11.46l-4-5.16c10.24,13.34,17.94,28.8,25.76,43.63,8.21,15.58,16.12,31.32,24.75,46.68a400.47,400.47,0,0,0,62.15,83.58,404.74,404.74,0,0,0,45.67,39.68,19,19,0,0,0,9.48,3,19.34,19.34,0,0,0,10.17-.45c5.91-1.63,12.32-6.2,15.24-11.72,3.12-5.92,4.69-13.09,2.57-19.65l-2.57-6.09a25.71,25.71,0,0,0-9.15-9.15l-3.16-2.41,5.16,4a363.32,363.32,0,0,1-64.46-64.43l4,5.16c-18.15-23.5-32.51-49.24-46.19-75.51-7.06-13.58-14.06-27.2-21.65-40.5-3.52-6.17-7.09-12.34-11.2-18.15-5-7-10.36-14.14-17.14-19.57a83,83,0,0,0-13.23-9.2,115.59,115.59,0,0,0-15.51-6.57,167,167,0,0,0-21.23-5.58,350.57,350.57,0,0,0-49.68-6.41c-29.69-1.8-59.44-.19-89.11,1.12s-59.28,2.37-88.79-.56c-3.58-.36-7.16-.78-10.72-1.25l6.78.91a258.7,258.7,0,0,1-34.22-6.95,26.37,26.37,0,0,0-19.65,2.57c-5.29,3.09-10.33,9.16-11.72,15.24-1.49,6.53-1.16,13.85,2.57,19.65a26.73,26.73,0,0,0,15.24,11.72Z"/></svg>