<svg id="Layer_1" data-name="Layer 1" xmlns="http://www.w3.org/2000/svg" viewBox="0 0 1242 2208"><defs><style>.cls-1{fill:#f6eabe;}.cls-2{fill:#999;}.cls-3{fill:none;stroke:#000;stroke-miterlimit:10;}</style></defs><rect class="cls-1" width="1242" height="2208"/><path d="M902.13,349.2c-34.93,127-99.25,225.49-180.23,300.13,69.87,52.4,154.83,90.51,256.46,112.75-12.71,11.9-27,34.14-35.73,48.43C837.82,784.31,750.48,743,679.82,685.06,606,742.23,520.22,782.72,431.3,808.92c-6.36-13.5-19.06-36.52-30.17-47.64,84.95-22.23,166.73-59.55,237.4-111.95-69.87-69.08-122.28-156.42-159.59-262.81H423.36C421,516.73,403.51,688.23,320.93,807.33c-9.53-9.53-31-24.61-44.46-31C363,651.71,371.75,477.83,371.75,351.58V138H946.6v50.81H423.36V335.7H855.29l11.11-1.59ZM534.52,386.52c32.55,90.51,81,166.74,146.09,227.87A553.61,553.61,0,0,0,832.26,386.52Z"/><path d="M311.94,1785v42.77h-4.08v-3.54H270.12V1828h-4v-43h20.7v-11.58h4.08V1785Zm-41.82,4v13.5h16.74V1789Zm0,31.26h16.74v-13.86H270.12ZM290.94,1789v13.5h16.92V1789Zm16.92,31.26v-13.86H290.94v13.86Z"/><path d="M348.06,1776.49H333.24v35.15h-4v-38.87h18.78Z"/><path d="M404.88,1781.83H362.1v13.62c0,9.59-.84,23.15-6.84,32.33a16.29,16.29,0,0,0-3.54-2.28c5.7-8.76,6.24-21.06,6.24-30v-17.7h46.92Z"/><path d="M410,1824.84H424.8v-35.15h4v38.87H410Z"/><path d="M465.18,1772.17l3.24,1.74c-7.08,7.26-11.28,16.2-11.28,26.76s4.2,19.49,11.28,26.75l-3.24,1.74c-7.32-7.5-11.94-17-11.94-28.49S457.86,1779.67,465.18,1772.17Z"/><path d="M488.94,1774.69a98.85,98.85,0,0,1-6.18,13.56v39.59h-3.84v-33.35a61.73,61.73,0,0,1-5.46,7,32.86,32.86,0,0,0-2.28-3.9c5.58-5.87,10.8-14.87,14-24Zm34.14,28c-2.1,1.26-4.44,2.64-6.84,3.78,2,6.06,5.82,11.82,10.38,14.52a11.2,11.2,0,0,0-2.64,2.94c-4.62-3.18-8.46-9.42-10.68-16a27.45,27.45,0,0,1-2.76,1.2c2.58,6.84,1.86,14-1,16.68a6.91,6.91,0,0,1-5.22,1.92c-1.08,0-2.4-.06-3.78-.18a9.31,9.31,0,0,0-1-3.42,38.26,38.26,0,0,0,4.14.24,3.66,3.66,0,0,0,3.12-1.14c1.56-1.38,2.22-5.16,1.44-9.36-5.16,4.92-13.08,9.36-19.8,11.7a15.8,15.8,0,0,0-2.34-2.82c7.62-2.28,16.62-7.14,21.3-12.24a35.76,35.76,0,0,0-1.5-3.48,63.52,63.52,0,0,1-17.22,9.9,16.14,16.14,0,0,0-2.22-2.64c5.94-1.8,13.74-5.76,17.88-9.54a16.39,16.39,0,0,0-2.94-3.18,58.44,58.44,0,0,1-13.56,7.26,11.26,11.26,0,0,0-2.22-2.58,52.7,52.7,0,0,0,15.06-7.55H490.5v-9.36c-1.14,1-2.28,2-3.54,2.94a9.37,9.37,0,0,0-2.52-2.58,44.69,44.69,0,0,0,13.86-16.26l3.84.72c-.6,1.2-1.32,2.34-2,3.54h11.1l.72-.18,2.34,1.68a52.13,52.13,0,0,1-4.8,6.84h13.08v12.66H505c-.36.36-.78.66-1.2,1a21,21,0,0,1,5.64,6.84,110,110,0,0,0,10.92-6.42ZM498,1780.81a54.58,54.58,0,0,1-4.2,5.16h11.58a37.88,37.88,0,0,0,3.72-5.16Zm-3.9,14.69h10.5v-6.42H494.1Zm24.72-6.42H508.2v6.42h10.62Z"/><path d="M555.18,1781.89a96.9,96.9,0,0,1-7.44,16.07h33.54v30h-4.14v-4.26H547.92V1828h-4v-24.3a52.86,52.86,0,0,1-10.32,10.68,18.61,18.61,0,0,0-2.76-3c9.48-7.08,16.14-18.6,19.86-29.51H533.22V1778H585v3.9Zm-7.26,19.91v18.06h29.22V1801.8Z"/><path d="M616.56,1819.2c-8.52,2-17.46,4-24,5.34l-1-3.72c6.18-1.14,15.6-3.06,24.72-5Zm-.72-38.81h-23.4v-3.72h23.4Zm-1.44,21.9H594.06v-16H614.4ZM598,1816.74a41.62,41.62,0,0,0-2.34-11.28l3.24-.78a37.26,37.26,0,0,1,2.58,11.16Zm12.78-27h-13.2v9.23h13.2ZM606,1816.26a85,85,0,0,0,2.7-12.12l3.9,1c-1.08,4.07-2.4,8.93-3.54,12Zm22.5,3.9c-3.18,3.12-8.46,6.12-13.08,7.86a22.91,22.91,0,0,0-2.7-2.7c4.68-1.56,9.84-4.56,12.24-7.14Zm-.72-34.43c.48-1.86,1-4,1.26-5.94H617.46v-3.54H646.2v3.54H633.42c-.54,2-1.14,4.14-1.74,5.94h12.54v31H619.38v-31Zm12.66,3.18H623v6.17h17.4Zm0,9.11H623v6.24h17.4Zm0,9.3H623v6.24h17.4Zm-3.36,11.16a75.29,75.29,0,0,1,10.32,7.38l-3.24,2.16A66.38,66.38,0,0,0,634,1820.4Z"/><path d="M702.24,1785.55v42.17h-4.08v-4.44H655.8v-37.67h4.08v33.59h17V1774h4.14v45.17h17.1v-33.65Z"/><path d="M717.9,1796.46a26,26,0,0,1-4.14,10.26,10.32,10.32,0,0,0-2.58-2.76c3.72-5.28,4.14-12.42,4.14-17.81v-10.62h20.76v12.78H718.8a38.4,38.4,0,0,1-.3,4.38h18.18v12.89H717.9Zm48.18,26.22v3.54H712v-3.54H737v-7.32H718.2v-3.48H737v-5h4v5h19.26v3.48H741.06v7.32Zm-47.22-44v6.54h13.56v-6.54Zm2.4,23.87H733.2v-6.77H721.26Zm28.5-11H737.64v-3.23H745a32.1,32.1,0,0,0-2.1-6.3l3.18-.78a29.1,29.1,0,0,1,2.34,6.6l-1.5.48h7.86a57.7,57.7,0,0,0,2.46-7l3.66.66c-1,2.16-1.92,4.5-2.82,6.36H766v3.23H753.48v5.17H764.7v3.23H753.48v7h-3.72v-7h-11.1v-3.23h11.1Zm14.7-10.31H739.2V1778h11a28.39,28.39,0,0,0-1.5-4l3.6-.84a21.93,21.93,0,0,1,2,4.8h10.2Z"/><path d="M777.9,1809c4.68-2,7.26-4.86,7.56-9.17a4,4,0,0,1-1.14.11c-2.34,0-4.26-1.31-4.26-4.07a4,4,0,0,1,4.32-4.08c3.18,0,4.86,2.58,4.86,6.66,0,6.41-4,11.21-10.08,13.43Z"/><path d="M820.74,1786.63H801.6v-3.3h19.14Zm-1.2,15.89h-16v-3.23h16Zm-.36,22H807.24v2.82h-3.3v-20h15.24Zm-15.18-30v-3.23h15.24v3.23Zm7.92-11.69a37.94,37.94,0,0,0-5.16-7.8l3.3-1.32a43.55,43.55,0,0,1,5.4,7.5Zm-4.68,27.77v10.56h8.58v-10.56Zm28.38,10.92a53.19,53.19,0,0,1-13.5,6.54,17.47,17.47,0,0,0-2.58-2.58c4.56-1.32,10.08-3.78,12.72-5.88Zm1-41.93h-14v-2.82h14v-3.42h3.9v3.42h14.94v2.82H840.54v3.06h13.2v2.7h-29v-2.7h11.94ZM823.08,1788H855v11.69H823.08Zm30.3,31.55H824.76V1802h28.62Zm-27-22.25h6.12v-6.84h-6.12Zm23.28,7.25H828.42v2.7h21.24Zm0,4.8H828.42v2.76h21.24Zm0,4.8H828.42V1817h21.24Zm-7.32-16.85v-6.84h-7.08v6.84Zm1.56,22.25c4.62,2,9.66,4.38,12.84,6.06l-2.28,2.64c-3-1.68-8-4.2-12.42-6.3Zm7.68-29.09h-6.42v6.84h6.42Z"/><path d="M864.72,1775.71h4.86V1789l-.18,6.79c3.12-3,6.42-5.52,10.86-5.52,6.78,0,9.9,4.38,9.9,12.65v20.58h-4.92v-20c0-6.23-1.92-9-6.42-9-3.42,0-5.88,1.8-9.24,5.27v23.7h-4.86Z"/><path d="M898.74,1815.12c0-7.08,6.18-10.56,20.1-12.12.06-4.37-1.32-8.7-6.9-8.7-3.9,0-7.38,1.87-9.84,3.61l-2-3.42c2.82-1.86,7.38-4.26,12.6-4.26,7.86,0,11,5.34,11,13.13v20.1h-4l-.42-4h-.18c-3.12,2.64-6.84,4.74-10.92,4.74C902.82,1824.24,898.74,1821,898.74,1815.12Zm4.14-39.41,2.16-2,7.8,7.8h.24l7.8-7.8,2.1,2-7.62,9.36H910.5Zm16,40.07v-9.48c-11.46,1.32-15.36,4.08-15.36,8.52,0,3.9,2.7,5.46,6,5.46S915.54,1818.72,918.84,1815.78Z"/><path d="M934.38,1791.07h4l.48,4.73H939c3.12-3,6.48-5.57,10.92-5.57,6.78,0,9.9,4.38,9.9,12.65v20.58H954.9v-20c0-6.23-1.92-9-6.42-9-3.42,0-5.88,1.8-9.24,5.27v23.7h-4.86Z"/><path d="M968.82,1829.16l-3.24-1.74c7.08-7.26,11.28-16.2,11.28-26.75s-4.2-19.5-11.28-26.76l3.24-1.74c7.32,7.5,11.94,17,11.94,28.5S976.14,1821.66,968.82,1829.16Z"/><path d="M331.14,1863h10.74v3.72H331.14v1.62c2.22,2.39,8.7,10,10.14,11.87l-2.46,3.24a129,129,0,0,0-7.68-10.49v26.93h-4v-27.17c-3,7.07-7.2,14.21-11.1,18.41a28.3,28.3,0,0,0-2.22-3.66c4.56-4.62,9.6-13.08,12.36-20.75H315.24V1863h11.88v-10.32c-3.42.54-6.9,1-10.14,1.44a15.29,15.29,0,0,0-1.08-3.18c7.92-1.08,17.52-2.82,22.68-5l2.76,3.12a83.55,83.55,0,0,1-10.2,2.82Zm34.74-12.06V1897h-4v-4.56h-14v5H344v-46.49Zm-4,37.67v-33.83h-14v33.83Z"/><path d="M401,1848.49H386.22v35.15h-4v-38.87H401Z"/><path d="M453.06,1850.83c-3.48,13.74-9.9,24.3-18.06,32.27a57.36,57.36,0,0,0,24.78,12.78,15.56,15.56,0,0,0-2.64,3.54,58.72,58.72,0,0,1-25.2-13.56,72.49,72.49,0,0,1-25,13.62,10.78,10.78,0,0,0-2.46-3.54,70.44,70.44,0,0,0,24.6-12.84c-7.38-7.74-12.66-17.69-16.32-29.33H408v-4h41.7l.78-.24Zm-36.3,2.94c3.36,10.38,8.4,19.44,15.36,26.63a59.85,59.85,0,0,0,16.08-26.63Z"/><path d="M463,1896.84h14.82v-35.15h4v38.87H463Z"/><path d="M518.16,1844.17l3.24,1.74c-7.08,7.26-11.28,16.2-11.28,26.76s4.2,19.49,11.28,26.75l-3.24,1.74c-7.32-7.5-11.94-17-11.94-28.49S510.84,1851.67,518.16,1844.17Z"/><path d="M541.92,1846.69a98.85,98.85,0,0,1-6.18,13.56v39.59H531.9v-33.35a61.73,61.73,0,0,1-5.46,7,32.86,32.86,0,0,0-2.28-3.9c5.58-5.87,10.8-14.87,14-24Zm34.14,28c-2.1,1.26-4.44,2.64-6.84,3.78,2,6.06,5.82,11.82,10.38,14.52a11.2,11.2,0,0,0-2.64,2.94c-4.62-3.18-8.46-9.42-10.68-16a27.45,27.45,0,0,1-2.76,1.2c2.58,6.84,1.86,14-1,16.68a6.91,6.91,0,0,1-5.22,1.92c-1.08,0-2.4-.06-3.78-.18a9.31,9.31,0,0,0-1-3.42,38.26,38.26,0,0,0,4.14.24,3.66,3.66,0,0,0,3.12-1.14c1.56-1.38,2.22-5.16,1.44-9.36-5.16,4.92-13.08,9.36-19.8,11.7a15.8,15.8,0,0,0-2.34-2.82c7.62-2.28,16.62-7.14,21.3-12.24a35.76,35.76,0,0,0-1.5-3.48,63.52,63.52,0,0,1-17.22,9.9,16.14,16.14,0,0,0-2.22-2.64c5.94-1.8,13.74-5.76,17.88-9.54a16.39,16.39,0,0,0-2.94-3.18,58.44,58.44,0,0,1-13.56,7.26,11.26,11.26,0,0,0-2.22-2.58,52.7,52.7,0,0,0,15.06-7.55H543.48v-9.36c-1.14,1-2.28,2-3.54,2.94a9.37,9.37,0,0,0-2.52-2.58,44.69,44.69,0,0,0,13.86-16.26l3.84.72c-.6,1.2-1.32,2.34-2,3.54h11.1l.72-.18,2.34,1.68a52.13,52.13,0,0,1-4.8,6.84h13.08v12.66H557.94c-.36.36-.78.66-1.2,1a21,21,0,0,1,5.64,6.84,110,110,0,0,0,10.92-6.42ZM551,1852.81a54.58,54.58,0,0,1-4.2,5.16h11.58a37.88,37.88,0,0,0,3.72-5.16Zm-3.9,14.69h10.5v-6.42h-10.5Zm24.72-6.42H561.18v6.42H571.8Z"/><path d="M639.36,1869.91v4.31H584.88v-4.31Z"/><path d="M652.8,1860.31a51.81,51.81,0,0,1-5.76,6.06,19,19,0,0,0-3.06-2.64,50.31,50.31,0,0,0,13.8-18.54l3.72,1.14a54,54,0,0,1-3.18,6.12H673a49.89,49.89,0,0,0-3.12-5.88l3.66-1.08a49.49,49.49,0,0,1,3.72,7H694.5v3.18H675.18v4.2H692.4v2.88H675.18V1867H692.4v2.88H675.18v4.33h20.28v3.11H656.52v1.86H652.8Zm38.28,22.13c-3.12,4.32-7.86,7.68-13.44,10.26a103.56,103.56,0,0,0,20.7,3.42,15.5,15.5,0,0,0-2.22,3.48,96.13,96.13,0,0,1-23.46-4.86c-8,2.88-17.22,4.38-26,5.22a14.88,14.88,0,0,0-1.5-3.48,107.35,107.35,0,0,0,22.62-3.78,35.1,35.1,0,0,1-11.76-8.28l.12-.06h-8.64v-3.3H688l.66-.24Zm-19.8-26.81H656.52v4.2h14.76Zm0,7.08H656.52V1867h14.76Zm0,7.13H656.52v4.33h14.76Zm-10.5,14.52a37.11,37.11,0,0,0,11.94,6.78,37,37,0,0,0,11.88-6.78Z"/><path d="M758.94,1880.22H734.1v14c0,3-1,4.2-3.06,4.86s-5.94.72-12.3.66a17.27,17.27,0,0,0-1.74-3.9c5.16.12,9.84.06,11.16.06s1.86-.48,1.86-1.74v-13.92H705.18v-3.9H730v-10.19H709.14v-3.84H730v-9.6c-6.66.66-13.56,1.14-19.8,1.44a16.18,16.18,0,0,0-1-3.54c14.16-.72,31.8-2.28,40.74-5.16l2.94,3.24a123.25,123.25,0,0,1-18.78,3.6v10h21.48v3.84H734.1v10.19h24.84Z"/><path d="M765.84,1901.16l-3.24-1.74c7.08-7.26,11.28-16.2,11.28-26.75s-4.2-19.5-11.28-26.76l3.24-1.74c7.32,7.5,11.94,17,11.94,28.5S773.16,1893.66,765.84,1901.16Z"/><path d="M801.06,1884.12a95,95,0,0,1-3.12,14.52,19.75,19.75,0,0,0-3.3-1.26,66.35,66.35,0,0,0,2.94-13.8Zm13.56-2.82c-.18-1-.48-2.28-.84-3.6-14.46,2.1-16.26,2.52-17.46,3.12a34.78,34.78,0,0,0-1.26-3.78c1.2-.24,2.64-1.79,4.56-4a78.05,78.05,0,0,0,5.7-7.25c-7.2.89-8.58,1.2-9.42,1.62a28.22,28.22,0,0,0-1.2-3.66c1-.25,2-1.56,3.42-3.3a84.54,84.54,0,0,0,8.52-15.3l3.66,1.62a96.73,96.73,0,0,1-10,16.19l7.5-.66c1.62-2.51,3.3-5.21,4.74-7.85l3.48,2A127.39,127.39,0,0,1,801.6,1876l11.28-1.5c-.66-2-1.38-4-2-5.81l3.12-.91a80.39,80.39,0,0,1,4.08,12.42Zm-6.78,2.1a108.07,108.07,0,0,1,1.74,12.9l-3.42.6a105.33,105.33,0,0,0-1.5-12.9Zm6.42-1.5a65.49,65.49,0,0,1,3.24,10.38l-3.24,1a64.28,64.28,0,0,0-3.06-10.44Zm35,13.14v3.66H816.18V1895h5.46v-46.67h23.52V1895Zm-23.94-43v11.64h16.08V1852Zm16.08,15.23H825.3v12h16.08ZM825.3,1895h16.08v-12.18H825.3Z"/><path d="M905,1865.58a66.84,66.84,0,0,1-10.5,20.28c2.28,6.12,5.16,9.66,8.4,9.66,1.74,0,2.52-3.12,2.88-11.1a9.45,9.45,0,0,0,3.42,2.1c-.72,10-2.22,13-6.6,13-4.62,0-8.28-3.84-11.1-10.14a54.91,54.91,0,0,1-12.84,10.26,23.75,23.75,0,0,0-2.88-3.24A49.06,49.06,0,0,0,890,1885.14c-2.34-6.9-3.78-15.65-4.5-25.49H864.12v8.1h15.42v1.79c-.3,13.56-.66,18.54-1.92,20a4.23,4.23,0,0,1-3.42,1.68,59.7,59.7,0,0,1-7.26-.06,8.17,8.17,0,0,0-1.14-3.72c2.88.24,5.52.24,6.6.24.84,0,1.44-.06,1.86-.6.84-1,1.14-4.86,1.38-15.71H864.12v1.07c0,8.28-.9,20-6.36,27.9a14.43,14.43,0,0,0-3.3-2.7c5-7.32,5.58-17.58,5.58-25.26v-16.67h25.2c-.18-3.36-.3-6.84-.3-10.32h4.14c0,3.54.06,7,.24,10.32h19.44v3.9H889.62a113.17,113.17,0,0,0,3.42,21.59,64.4,64.4,0,0,0,8.1-16.67Zm-1.92-10.19a60.14,60.14,0,0,0-10.8-7.14l2.34-2.46a57.17,57.17,0,0,1,10.92,6.9Z"/><path d="M920.88,1881c4.68-2,7.26-4.86,7.56-9.17a4,4,0,0,1-1.14.11c-2.34,0-4.26-1.31-4.26-4.07a4,4,0,0,1,4.32-4.08c3.18,0,4.86,2.58,4.86,6.66,0,6.41-4,11.21-10.08,13.43Z"/><path d="M421.92,1918.69a98.85,98.85,0,0,1-6.18,13.56v39.59H411.9v-33.35a61.73,61.73,0,0,1-5.46,7,32.86,32.86,0,0,0-2.28-3.9c5.58-5.87,10.8-14.87,14-24Zm34.14,28c-2.1,1.26-4.44,2.64-6.84,3.78,2,6.06,5.82,11.82,10.38,14.52a11.2,11.2,0,0,0-2.64,2.94c-4.62-3.18-8.46-9.42-10.68-16a27.45,27.45,0,0,1-2.76,1.2c2.58,6.84,1.86,14-1,16.68a6.91,6.91,0,0,1-5.22,1.92c-1.08,0-2.4-.06-3.78-.18a9.31,9.31,0,0,0-1-3.42,38.26,38.26,0,0,0,4.14.24,3.66,3.66,0,0,0,3.12-1.14c1.56-1.38,2.22-5.16,1.44-9.36-5.16,4.92-13.08,9.36-19.8,11.7a15.8,15.8,0,0,0-2.34-2.82c7.62-2.28,16.62-7.14,21.3-12.24a35.76,35.76,0,0,0-1.5-3.48,63.52,63.52,0,0,1-17.22,9.9,16.14,16.14,0,0,0-2.22-2.64c5.94-1.8,13.74-5.76,17.88-9.54a16.39,16.39,0,0,0-2.94-3.18,58.44,58.44,0,0,1-13.56,7.26,11.26,11.26,0,0,0-2.22-2.58,52.7,52.7,0,0,0,15.06-7.55H423.48v-9.36c-1.14,1-2.28,2-3.54,2.94a9.37,9.37,0,0,0-2.52-2.58,44.69,44.69,0,0,0,13.86-16.26l3.84.72c-.6,1.2-1.32,2.34-2,3.54h11.1l.72-.18,2.34,1.68a52.13,52.13,0,0,1-4.8,6.84h13.08v12.66H437.94c-.36.36-.78.66-1.2,1a21,21,0,0,1,5.64,6.84,110,110,0,0,0,10.92-6.42ZM431,1924.81a54.58,54.58,0,0,1-4.2,5.16h11.58a37.88,37.88,0,0,0,3.72-5.16Zm-3.9,14.69h10.5v-6.42h-10.5Zm24.72-6.42H441.18v6.42H451.8Z"/><path d="M514.92,1966.32c0,2.76-.78,4-2.64,4.68s-5.46.72-11.1.66a12.92,12.92,0,0,0-1.38-3.84c4.32.18,8.4.12,9.6.06s1.56-.42,1.56-1.56v-12.78H494.22v17.94h-4v-17.94H474.78c-.9,6.72-2.88,13.56-7.56,18.78a11.58,11.58,0,0,0-3-2.64c6.6-7.44,7.26-18,7.26-26.46v-21.59h43.44Zm-24.66-16.56v-10.5H475.38v4c0,2.11-.06,4.26-.24,6.54Zm-14.88-24.35v10.13h14.88v-10.13Zm35.58,0H494.22v10.13H511Zm0,24.35v-10.5H494.22v10.5Z"/><path d="M578.94,1952.22H554.1v14c0,3-1,4.2-3.06,4.86s-5.94.72-12.3.66a17.27,17.27,0,0,0-1.74-3.9c5.16.12,9.84.06,11.16.06s1.86-.48,1.86-1.74v-13.92H525.18v-3.9H550v-10.19H529.14v-3.84H550v-9.6c-6.66.66-13.56,1.14-19.8,1.44a16.18,16.18,0,0,0-1-3.54c14.16-.72,31.8-2.28,40.74-5.16l2.94,3.24a123.25,123.25,0,0,1-18.78,3.6v10h21.48v3.84H554.1v10.19h24.84Z"/><path d="M624.72,1946.58a37.75,37.75,0,0,0,15,9.12,11,11,0,0,0-2.52,3,41.33,41.33,0,0,1-16.62-12.12H604.44a52.45,52.45,0,0,1-17.46,12.3,22.41,22.41,0,0,0-2.58-2.82,48.55,48.55,0,0,0,15.36-9.48h-14.4v-3.29h17.52a31.34,31.34,0,0,0,2-2.83,13,13,0,0,0-2-1.67,41.15,41.15,0,0,0,6.18-4.14c-1.32-1-2.7-2-4-2.82l2.34-1.92c1.26.78,2.64,1.67,4,2.63a23.88,23.88,0,0,0,3.3-3.83l3.18,1a36.54,36.54,0,0,1-4,4.73,32.19,32.19,0,0,1,4,3.79l-2.4,2.21a30.64,30.64,0,0,0-4-3.83c-1.44,1.2-2.94,2.33-4.38,3.36l1.86.54a28.34,28.34,0,0,1-1.8,2.76H638.7v3.29Zm-30.6-15.71a33.92,33.92,0,0,1-7.92,9.05,15,15,0,0,0-1.62-3.23,33,33,0,0,0,8.88-10h-7.68v-3.18h8.34v-6.06h3.42v6.06h6.78v3.18h-6.78v.54c1.56,1.14,5.88,4.56,7,5.58l-2.22,2.75a65.56,65.56,0,0,0-4.74-5.09v11h-3.42Zm19.74,30.41h20.4v2.7h-20.4v4.08c0,2.1-.48,3-2.28,3.48s-4.68.42-9.3.42a13.61,13.61,0,0,0-1.2-3c3.72.18,7,.12,7.92.06s1.2-.3,1.2-1v-4H589.8v-2.7h20.4v-3.06H596.34v-2.58H610.2v-3.18c-2.94.3-5.94.54-8.7.66a8.21,8.21,0,0,0-.9-2.28c6.66-.36,14.52-1.26,18.72-2.34l2.64,2.1c-2.28.54-5.1,1-8.1,1.44v3.6h13.8v2.58h-13.8Zm2-32.63a37.67,37.67,0,0,0-3.78-3.42,52,52,0,0,1-5.52,4.08,14.85,14.85,0,0,0-2.52-2.22,46.82,46.82,0,0,0,5.52-3.72,38,38,0,0,0-4.32-2.82l2.28-1.92c1.38.78,2.88,1.74,4.32,2.76a22.94,22.94,0,0,0,3-3.54l3.12.9a30.8,30.8,0,0,1-3.66,4.38,34.28,34.28,0,0,1,3.9,3.42Zm10.44,1.32a30.05,30.05,0,0,1-7.08,8.21,11,11,0,0,0-2.46-2.51,25.85,25.85,0,0,0,8.16-9h-6.54v-3.18h7.92v-6.12h3.42v6.12h8.76v3.18h-7.38a28.59,28.59,0,0,0,9.06,9.29,15.32,15.32,0,0,0-2.46,2.65,32.5,32.5,0,0,1-8-8.94v11.7h-3.42Z"/><path d="M673.92,1920.37a139.09,139.09,0,0,1-21.48,5.64v17.82c0,8.45-.66,20.21-5.16,28.13a13.35,13.35,0,0,0-2.94-2.28c4.14-7.44,4.56-17.94,4.56-25.85v-20.4c7.8-1.5,16.68-3.78,21.66-5.88ZM657.84,1927h3.6v44.33h-3.6Zm12.42.66c-.72,28.61,1.26,39.17,29.52,40.61a16.83,16.83,0,0,0-1.8,3.6c-29.22-2.1-31.8-13.32-31.2-44.39Zm11.34,30.11c-5.1,0-6.66-1.14-6.66-6.06v-29.27h21.9v20H678.48v9.24c0,2.1.54,2.58,3.42,2.58h10.38c2.34,0,2.7-1.14,3-7a9.67,9.67,0,0,0,3.3,1.5c-.48,7-1.56,9-6.12,9Zm-3.12-31.91v13.19h6v-13.19Zm14.88,0h-6v13.19h6Z"/><path d="M755.22,1929.55v42.17h-4.08v-4.44H708.78v-37.67h4.08v33.59h17V1918H734v45.17h17.1v-33.65Z"/><path d="M770.88,1940.46a26,26,0,0,1-4.14,10.26,10.32,10.32,0,0,0-2.58-2.76c3.72-5.28,4.14-12.42,4.14-17.81v-10.62h20.76v12.78H771.78a38.4,38.4,0,0,1-.3,4.38h18.18v12.89H770.88Zm48.18,26.22v3.54H764.94v-3.54H790v-7.32H771.18v-3.48H790v-5h4v5H813.3v3.48H794v7.32Zm-47.22-44v6.54H785.4v-6.54Zm2.4,23.87h11.94v-6.77H774.24Zm28.5-11H790.62v-3.23h7.32a32.1,32.1,0,0,0-2.1-6.3l3.18-.78a29.1,29.1,0,0,1,2.34,6.6l-1.5.48h7.86a57.7,57.7,0,0,0,2.46-7l3.66.66c-1,2.16-1.92,4.5-2.82,6.36h7.92v3.23H806.46v5.17h11.22v3.23H806.46v7h-3.72v-7h-11.1v-3.23h11.1Zm14.7-10.31H792.18V1922h11a28.39,28.39,0,0,0-1.5-4l3.6-.84a21.93,21.93,0,0,1,2,4.8h10.2Z"/><path d="M837.18,1935.67a9.06,9.06,0,1,1-9.06,9A9.09,9.09,0,0,1,837.18,1935.67Zm0,15.23a6.18,6.18,0,1,0,0-12.36,6.18,6.18,0,1,0,0,12.36Z"/><path d="M277.14,1990.51a13.18,13.18,0,0,1-.84,1.08c5.7,5.64,16.2,10.62,25.56,12.83a12.89,12.89,0,0,0-2.52,3.12,71.7,71.7,0,0,1-14.88-6.17l-.06,1.92H263.64l.06-1.68a88.84,88.84,0,0,1-14.88,6.23,32.14,32.14,0,0,0-2.28-3c10.8-3,21.48-8.28,27.12-15.6Zm-23.16,16h39.9v14.88H254Zm3.42,12.06h14.7v-9.23H257.4Zm.12,5.82h33.42v19.38h-4v-1.86h-25.5v2h-3.9Zm6.66-14.21A21.72,21.72,0,0,1,268,2017l-3.06,1.21a27.26,27.26,0,0,0-3.6-7.09Zm-2.76,17.15v4.32h25.5v-4.32Zm25.5,11.64v-4.38h-25.5v4.38Zm-4.2-38.57a48.46,48.46,0,0,1-8.58-6.42,45.19,45.19,0,0,1-8.34,6.42Zm7.5,8.94H275.46v9.23h14.76Zm-10.62,7.79a53.26,53.26,0,0,0,3.54-7.2l3.36,1.08a73,73,0,0,1-4.14,7.21Z"/><path d="M308,2040.48c3.06-2.58,5.64-7,7.08-10.44l3.3,1.5c-1.68,3.6-4.08,8-7.14,10.86Zm51.72-36.9v3.25H308.46v-3.25h14.16a23.89,23.89,0,0,0-2.34-5.45l3.36-.84H311.16V1994h21.9c-.72-1.44-1.56-2.94-2.34-4.2l3.78-.9a39.9,39.9,0,0,1,2.94,5.1h19.2v3.3H344.76l3.24.78c-1,1.92-2,3.84-3,5.51Zm-7,23.7H331.56a47.07,47.07,0,0,1,8.82,6.24l-2.52,2.46a48.61,48.61,0,0,0-9.3-6.9l2-1.8H315.48V2010h37.2Zm-3.9-14.45H319.26v4.43h29.52Zm0,7.13H319.26v4.44h29.52Zm-8.22,20.16c2.58,0,3-.72,3.24-6.24a12.08,12.08,0,0,0,3.54,1.38c-.48,6.66-1.74,8.22-6.42,8.22H329.34c-5.82,0-7.38-1-7.38-5v-8h3.9v8c0,1.38.54,1.68,3.72,1.68Zm-16.62-42.83a26.19,26.19,0,0,1,2.76,6.18l-.48.11h14.64a59.18,59.18,0,0,0,3.06-6.29Zm27.66,32.21a46.55,46.55,0,0,1,8,10.2l-3.36,1.74a49,49,0,0,0-7.8-10.56Z"/><path d="M406.62,2018.58a37.75,37.75,0,0,0,15,9.12,11,11,0,0,0-2.52,3,41.33,41.33,0,0,1-16.62-12.12H386.34a52.45,52.45,0,0,1-17.46,12.3,22.41,22.41,0,0,0-2.58-2.82,48.55,48.55,0,0,0,15.36-9.48h-14.4v-3.29h17.52a31.34,31.34,0,0,0,2-2.83,13,13,0,0,0-2-1.67,41.15,41.15,0,0,0,6.18-4.14c-1.32-1-2.7-2-4-2.82l2.34-1.92c1.26.78,2.64,1.67,4,2.63a23.88,23.88,0,0,0,3.3-3.83l3.18,1a36.54,36.54,0,0,1-4,4.73,32.19,32.19,0,0,1,4,3.79l-2.4,2.21a30.64,30.64,0,0,0-4-3.83c-1.44,1.2-2.94,2.33-4.38,3.36l1.86.54a28.34,28.34,0,0,1-1.8,2.76H420.6v3.29ZM376,2002.87a33.92,33.92,0,0,1-7.92,9.05,15,15,0,0,0-1.62-3.23,33,33,0,0,0,8.88-10h-7.68v-3.18H376v-6.06h3.42v6.06h6.78v3.18h-6.78v.54c1.56,1.14,5.88,4.56,7,5.58l-2.22,2.75a65.56,65.56,0,0,0-4.74-5.09v11H376Zm19.74,30.41h20.4v2.7h-20.4v4.08c0,2.1-.48,3-2.28,3.48s-4.68.42-9.3.42a13.61,13.61,0,0,0-1.2-3c3.72.18,7,.12,7.92.06s1.2-.3,1.2-1v-4H371.7v-2.7h20.4v-3.06H378.24v-2.58H392.1v-3.18c-2.94.3-5.94.54-8.7.66a8.21,8.21,0,0,0-.9-2.28c6.66-.36,14.52-1.26,18.72-2.34l2.64,2.1c-2.28.54-5.1,1-8.1,1.44v3.6h13.8v2.58h-13.8Zm2-32.63a37.67,37.67,0,0,0-3.78-3.42,52,52,0,0,1-5.52,4.08,14.85,14.85,0,0,0-2.52-2.22,46.82,46.82,0,0,0,5.52-3.72,38,38,0,0,0-4.32-2.82l2.28-1.92c1.38.78,2.88,1.74,4.32,2.76a22.94,22.94,0,0,0,3-3.54l3.12.9a30.8,30.8,0,0,1-3.66,4.38,34.28,34.28,0,0,1,3.9,3.42Zm10.44,1.32a30.05,30.05,0,0,1-7.08,8.21,11,11,0,0,0-2.46-2.51,25.85,25.85,0,0,0,8.16-9h-6.54v-3.18h7.92v-6.12h3.42v6.12h8.76v3.18H413A28.59,28.59,0,0,0,422,2008a15.32,15.32,0,0,0-2.46,2.65,32.5,32.5,0,0,1-8-8.94v11.7h-3.42Z"/><path d="M445.08,2020.5c-2.34.78-4.68,1.56-7,2.4v16.32c0,2.34-.54,3.42-1.92,4.08s-3.6.78-7.38.72a17.73,17.73,0,0,0-1.2-3.72c2.7.12,5,.12,5.7.06s1.08-.24,1.08-1.14V2024.1l-7.38,2.4-.72-3.9c2.22-.66,5-1.56,8.1-2.52v-14.81h-7.62v-3.72h7.62v-12.18h3.72v12.18h6.66v3.72h-6.66v13.61l6.54-2Zm31.44,2a29.76,29.76,0,0,1-8.46,13.44,45.4,45.4,0,0,0,13.74,4.86,11.3,11.3,0,0,0-2.46,3.36,41.75,41.75,0,0,1-14.4-5.82,39.2,39.2,0,0,1-13.32,5.76,13.4,13.4,0,0,0-2.22-3,41.74,41.74,0,0,0,12.6-4.86,32.26,32.26,0,0,1-7.5-8.4c-2.22,6.3-5.88,12.18-11.94,16.14a12.28,12.28,0,0,0-2.76-2.82c8.7-5.34,12-15,13.5-23.88h-8.4v-3.35h8.88c.24-1.81.42-3.54.54-5.16h-8v-3.3h21.36a69.8,69.8,0,0,0,5.7-10.2l3.78,1.32c-1.68,2.88-3.66,6.24-5.58,8.88h7.56v3.3H458.16c-.12,1.62-.3,3.42-.54,5.16h23.16v3.35H457.14c-.24,1.38-.54,2.88-.9,4.32h17.34l.72-.12Zm1.32-29.69c-8,1.74-20.88,2.76-31.44,3.06a10.38,10.38,0,0,0-1-3.12c10.38-.42,23.16-1.44,30-2.94Zm-26.76,12.48a66.37,66.37,0,0,0-2.88-7.68l3.06-.78a49.37,49.37,0,0,1,3.06,7.32Zm5.64,19.49a27.79,27.79,0,0,0,8.34,9.24,23.05,23.05,0,0,0,6.78-9.24Zm3.84-20.22a80.15,80.15,0,0,0-1.68-8.21l3.24-.54a57.26,57.26,0,0,1,1.86,8Z"/><path d="M492.78,2025c4.68-2,7.26-4.86,7.56-9.17a4,4,0,0,1-1.14.11c-2.34,0-4.26-1.31-4.26-4.07a4,4,0,0,1,4.32-4.08c3.18,0,4.86,2.58,4.86,6.66,0,6.41-4,11.21-10.08,13.43Z"/><path d="M533.94,2002.63a67.67,67.67,0,0,1-5.4,8.45v33.18h-3.78v-28.5a55.81,55.81,0,0,1-6,5.94,23.11,23.11,0,0,0-2.4-3.41,57.79,57.79,0,0,0,14-16.92Zm-1.44-11.88a59.41,59.41,0,0,1-13.32,14.1A20,20,0,0,0,517,2002c4.44-3.3,9.42-8.4,11.94-12.66Zm33.42,30.42a34,34,0,0,1-11.58,13.91,56.54,56.54,0,0,0,16.08,5.52,13.63,13.63,0,0,0-2.46,3.48,58.51,58.51,0,0,1-17.16-6.72,63.26,63.26,0,0,1-17.7,6.78,10.39,10.39,0,0,0-2-3.42,62.23,62.23,0,0,0,16.26-5.64,41.7,41.7,0,0,1-7.2-6.54,42.74,42.74,0,0,1-4.86,4.08,25.12,25.12,0,0,0-2.76-2.94,46.2,46.2,0,0,0,5.28-4.08,34,34,0,0,1-2.82-4.38l3.3-1.2a19.06,19.06,0,0,0,2,3.18,40.7,40.7,0,0,0,5.82-7.86c-9,.6-10.5.91-11.64,1.26a33.39,33.39,0,0,0-1.2-3.77c1.62-.19,3.78-1.26,6.6-2.88,1.44-.78,4.38-2.58,7.8-4.87-9.36.49-10.92.73-11.82,1.09a28.56,28.56,0,0,0-1.26-3.84,10.79,10.79,0,0,0,3.9-2.16A67.38,67.38,0,0,0,549.18,1990l3.9,1.8a87.44,87.44,0,0,1-11.7,10.32l11.1-.36a87.91,87.91,0,0,0,8.22-6.6l3.66,2.1a135.45,135.45,0,0,1-22.44,15l20.1-1.08c-1.5-1.87-2.94-3.72-4.38-5.29l3.06-1.61a90.33,90.33,0,0,1,10,13l-3.24,1.92c-.78-1.38-2-3.12-3.24-5-5.58.35-10.14.66-13.68.83a52.18,52.18,0,0,1-3,5h15.18l.72-.18ZM545,2023.38a33.51,33.51,0,0,1-2.34,2.76,40,40,0,0,0,8.16,6.9,31.13,31.13,0,0,0,9.72-9.66Z"/><path d="M626.82,2038.32c0,2.76-.78,4-2.64,4.68s-5.46.72-11.1.66a12.92,12.92,0,0,0-1.38-3.84c4.32.18,8.4.12,9.6.06s1.56-.42,1.56-1.56v-12.78H606.12v17.94h-4v-17.94H586.68c-.9,6.72-2.88,13.56-7.56,18.78a11.58,11.58,0,0,0-3-2.64c6.6-7.44,7.26-18,7.26-26.46v-21.59h43.44Zm-24.66-16.56v-10.5H587.28v4c0,2.11-.06,4.26-.24,6.54Zm-14.88-24.35v10.13h14.88v-10.13Zm35.58,0H606.12v10.13h16.74Zm0,24.35v-10.5H606.12v10.5Z"/><path d="M662.94,1992.49H648.12v35.15h-4v-38.87h18.78Z"/><path d="M679.38,2021.28v17.88c0,2.34-.54,3.42-2,4.08s-3.84.72-7.8.66a16.18,16.18,0,0,0-1.26-3.6c2.82.06,5.28.06,6.06.06s1.08-.3,1.08-1.14v-16.74c-3.06.9-5.94,1.8-8.4,2.58l-1.2-3.89c2.64-.67,6-1.63,9.6-2.71v-13.19h-8.7v-3.72h8.7v-12.18h3.9v12.18h7.08v3.72h-7.08v12.06l7.14-2.16.54,3.71ZM719.16,2009a51.81,51.81,0,0,1-10.44,22.56,37,37,0,0,0,13.2,9.3,20.36,20.36,0,0,0-2.7,3.24,39,39,0,0,1-13-9.72,43.78,43.78,0,0,1-13.62,9.42,13.17,13.17,0,0,0-2.34-3.18,38.63,38.63,0,0,0,13.5-9.18,61.21,61.21,0,0,1-9.66-19.49h-.48c-.18,9.83-1.62,22.79-8.4,31.73a15.67,15.67,0,0,0-3.12-2.46c7-9.24,7.68-22.13,7.68-31.68v-16.67h30.42v3.72H693.6v11.7H716l.72-.18Zm-21.48,3a53.85,53.85,0,0,0,8.58,16.61,46.21,46.21,0,0,0,8.4-16.61Z"/><path d="M724.86,2040.84h14.82v-35.15h4v38.87H724.86Z"/><path d="M808,2021a100.84,100.84,0,0,1-11.7,8.58,36.22,36.22,0,0,0,15.3,8.76,24.16,24.16,0,0,0-2.64,3.48c-12.3-4.08-20.82-13.2-25.38-25.61h-.18a53.79,53.79,0,0,1-9.6,8V2038l14.88-4.5a18.38,18.38,0,0,0,.6,3.42c-16.62,5.4-18.66,6.12-20,7a14.6,14.6,0,0,0-1.74-3.66,3.9,3.9,0,0,0,2.16-3.78v-9.72a71.36,71.36,0,0,1-10.68,5.1,19.48,19.48,0,0,0-2.64-3.24,62.5,62.5,0,0,0,21.9-12.41H758.1v-3.54h23.7v-5.64H763.44v-3.36H781.8v-5.4H760.44v-3.48H781.8v-5.52h4v5.52h22v3.48h-22v5.4h19.32v3.36H785.82v5.64H809.7v3.54H787.44a38.86,38.86,0,0,0,6.6,11,80.68,80.68,0,0,0,10.74-8.46Z"/><path d="M832.14,2019.78a58,58,0,0,1-12.06,19.14,26,26,0,0,0-3.66-2.46,47,47,0,0,0,11.64-17.75Zm13.62-7.91v31.79h-4.14v-31.79H817.74v-4h52.5v4Zm19.2-14.22H823.08v-3.9H865Zm-5.16,20.93c4.5,5.58,9.24,13.14,11,18.24l-3.9,1.8c-1.74-5-6.3-12.78-10.8-18.48Z"/><path d="M896.94,2035.44l8.76-1.62.3,4c-10.14,2-21,4-28.5,5.4l-.66-4.32c1.44-.24,3.18-.48,4.92-.84v-36.65h3.9v36l7.2-1.2v-46.79h4.08v18.54h8.76v3.84h-8.76Zm27.84,2.58c2.58,0,3-2.16,3.3-10.8a13.32,13.32,0,0,0,3.84,1.86c-.48,9.6-1.62,12.84-6.84,12.84h-9.42c-5.34,0-6.84-1.62-6.84-7.74v-44.81H913v18.54h14.82v3.84H913v22.55c0,3.12.48,3.72,3.12,3.72Z"/><path d="M985.8,2028.54a33.64,33.64,0,0,1-8.22,7.38c2.4,2.82,5.22,4.44,8.16,4.38,1.68-.06,2.16-1.5,2.46-5.94a10.31,10.31,0,0,0,3.12,1.62c-.6,6.3-2.1,7.92-5.76,8-4.26,0-8.16-2.22-11.28-6a74.41,74.41,0,0,1-13.68,5.82,36.46,36.46,0,0,0-2.1-3.24,65.61,65.61,0,0,0,13.86-5.34,34.94,34.94,0,0,1-3.84-8.82H954.06v4.38l11.16-1-.06,2.88-11.1,1.08v6.12c0,2.1-.48,3.06-2.16,3.54s-4.38.54-8.94.54a19.42,19.42,0,0,0-1.26-3.18c3.36.12,6.48.06,7.38,0s1.2-.24,1.2-1v-5.7c-4.74.48-9.12.9-12.72,1.2l-.42-3.3c3.54-.24,8.1-.54,13.14-1v-4.68h-12.9v-3.18h12.9v-4.44c-3.78.42-7.68.72-11.28.91a12,12,0,0,0-.9-2.71c8.16-.48,18.18-1.55,23.52-2.94l2.52,2.58c-2.82.66-6.36,1.26-10.08,1.74v4.86h13.68a52.67,52.67,0,0,1-1.2-8.94h3.84a57.48,57.48,0,0,0,1.2,8.94h19v3.18H972.48a31.91,31.91,0,0,0,3.12,6.9,27.09,27.09,0,0,0,6.72-5.94Zm4.62-15.17h-53v-3.24H961.8V2006H943.2v-3.06h18.6v-4H940v-3.18h12.66a30,30,0,0,0-3.48-5.16l3.42-1.26a24.4,24.4,0,0,1,4.32,6.24l-.42.18H971.1a54.7,54.7,0,0,0,3.6-6.6l4.14,1.2c-1.2,1.86-2.52,3.84-3.72,5.4H988V1999H965.82v4h18.9V2006h-18.9v4.14h24.6Zm-5.7,9a34,34,0,0,0-9.48-5.52l2.16-2.46a38.32,38.32,0,0,1,9.66,5.22Z"/><path d="M997.08,2047.68c3.6-1.68,5.82-4.62,5.82-8.16a2.92,2.92,0,0,1-.72.06,3.49,3.49,0,0,1-3.72-3.6,3.56,3.56,0,0,1,3.78-3.54c2.7,0,4.38,2.28,4.38,6.06,0,5.52-3.24,9.84-8.28,12.06Z"/><path d="M328.68,2068.69c-.84,3.12-1.8,6.42-2.7,9.06h24.66v32.93c0,2.46-.54,3.6-2.22,4.26s-4.8.72-9.12.72a12.47,12.47,0,0,0-1.38-3.78c3.54.12,6.6.06,7.5,0s1.2-.3,1.2-1.2v-29.22H335.94V2114h-4v-32.58H321.54V2114h-3.9v-32.58h-10V2116h-4v-38.27h18.24c.84-2.71,1.56-6.12,2.16-9.06H300.48v-4h53.34v4Z"/><path d="M409.92,2110.32c0,2.76-.78,4-2.64,4.68s-5.46.72-11.1.66a12.92,12.92,0,0,0-1.38-3.84c4.32.18,8.4.12,9.6.06s1.56-.42,1.56-1.56v-12.78H389.22v17.94h-4v-17.94H369.78c-.9,6.72-2.88,13.56-7.56,18.78a11.58,11.58,0,0,0-3-2.64c6.6-7.44,7.26-18,7.26-26.46v-21.59h43.44Zm-24.66-16.56v-10.5H370.38v4c0,2.11-.06,4.26-.24,6.54Zm-14.88-24.35v10.13h14.88v-10.13Zm35.58,0H389.22v10.13H406Zm0,24.35v-10.5H389.22v10.5Z"/><path d="M446,2064.49H431.22v35.15h-4v-38.87H446Z"/><path d="M497.64,2081.23A47.27,47.27,0,0,1,484,2103.9a49.41,49.41,0,0,0,19.38,8.52,19.86,19.86,0,0,0-2.7,3.66,49.78,49.78,0,0,1-19.86-9.48,56.88,56.88,0,0,1-18.78,9.36,15.19,15.19,0,0,0-2.28-3.6,52.45,52.45,0,0,0,17.94-8.46A51.06,51.06,0,0,1,465.66,2084h-4.2c-.18,9.84-1.5,22.8-7.74,31.8a15.23,15.23,0,0,0-3.36-2.34c6.54-9.42,7.2-22.56,7.2-32.09v-16.14H501v3.84H461.46v11.1H494.1l.84-.13ZM469.86,2084a43.26,43.26,0,0,0,11,17.22A41.84,41.84,0,0,0,492.36,2084Z"/><path d="M508,2112.84h14.82v-35.15h4v38.87H508Z"/><path d="M591.12,2093a100.84,100.84,0,0,1-11.7,8.58,36.22,36.22,0,0,0,15.3,8.76,24.16,24.16,0,0,0-2.64,3.48c-12.3-4.08-20.82-13.2-25.38-25.61h-.18a53.79,53.79,0,0,1-9.6,8V2110l14.88-4.5a18.38,18.38,0,0,0,.6,3.42c-16.62,5.4-18.66,6.12-20,7a14.6,14.6,0,0,0-1.74-3.66,3.9,3.9,0,0,0,2.16-3.78v-9.72a71.36,71.36,0,0,1-10.68,5.1,19.48,19.48,0,0,0-2.64-3.24,62.5,62.5,0,0,0,21.9-12.41H541.2v-3.54h23.7v-5.64H546.54v-3.36H564.9v-5.4H543.54v-3.48H564.9v-5.52h4v5.52h22v3.48h-22v5.4h19.32v3.36H568.92v5.64H592.8v3.54H570.54a38.86,38.86,0,0,0,6.6,11,80.68,80.68,0,0,0,10.74-8.46Z"/><path d="M615.24,2091.78a58,58,0,0,1-12.06,19.14,26,26,0,0,0-3.66-2.46,47,47,0,0,0,11.64-17.75Zm13.62-7.91v31.79h-4.14v-31.79H600.84v-4h52.5v4Zm19.2-14.22H606.18v-3.9h41.88Zm-5.16,20.93c4.5,5.58,9.24,13.14,11,18.24l-3.9,1.8c-1.74-5-6.3-12.78-10.8-18.48Z"/><path d="M707.64,2081.23A47.27,47.27,0,0,1,694,2103.9a49.41,49.41,0,0,0,19.38,8.52,19.86,19.86,0,0,0-2.7,3.66,49.78,49.78,0,0,1-19.86-9.48,56.88,56.88,0,0,1-18.78,9.36,15.19,15.19,0,0,0-2.28-3.6,52.45,52.45,0,0,0,17.94-8.46A51.06,51.06,0,0,1,675.66,2084h-4.2c-.18,9.84-1.5,22.8-7.74,31.8a15.23,15.23,0,0,0-3.36-2.34c6.54-9.42,7.2-22.56,7.2-32.09v-16.14H711v3.84H671.46v11.1H704.1l.84-.13ZM679.86,2084a43.26,43.26,0,0,0,11,17.22A41.84,41.84,0,0,0,702.36,2084Z"/><path d="M736.14,2088.42a48.24,48.24,0,0,1-5,6.6V2116h-3.6v-17.34a49.31,49.31,0,0,1-5.7,4.5,23.36,23.36,0,0,0-2.28-2.58c5.1-3.3,10.56-8.64,13.14-13.32ZM734.7,2081a46.82,46.82,0,0,1-12.36,11.46,19.92,19.92,0,0,0-2.46-2.58c4.26-2.51,9.06-6.47,11.34-10.08Zm3.18-14.39H721.26v-3H773v3H755.76v3.12h14.4v9.54h-46v-9.54h13.74Zm-10.08,9.89h10.08v-4H727.8Zm40.56,27a24.54,24.54,0,0,1-9.36,7,95.46,95.46,0,0,0,14.16,2.46,15.47,15.47,0,0,0-1.92,2.94,87.61,87.61,0,0,1-16.68-3.66,85.78,85.78,0,0,1-18.9,3.72,12.32,12.32,0,0,0-1.5-2.76,91.8,91.8,0,0,0,16.08-2.58,50,50,0,0,1-7.14-3.72,48,48,0,0,1-5.34,2.4,19.92,19.92,0,0,0-2.28-2.16,33.71,33.71,0,0,0,5-2.16,24.36,24.36,0,0,1-3.12-2.94l2.76-1.14a26.94,26.94,0,0,0,3.06,2.64,32.81,32.81,0,0,0,5.16-3.78h-7.08v-10.26a34.35,34.35,0,0,1-4.14,4.26,28.17,28.17,0,0,0-2.82-2.4,33.39,33.39,0,0,0,9.6-12.05l3.48,1a23.34,23.34,0,0,1-1.26,2.34h25.68v2.87H744.36c-.54.79-1.08,1.5-1.62,2.22h25.62v12.06H752.52a25,25,0,0,1-2.52,2.52h15.48l.66-.12ZM752,2066.65H741.54v3.12H752Zm-10.44,9.89H752v-4H741.54Zm3.12,16.14h20.16V2090H744.66Zm0,4.86h20.16v-2.64H744.66Zm1.26,7.8a47.75,47.75,0,0,0,8.82,4,28.69,28.69,0,0,0,7.86-4.26H746.34Zm9.84-32.81v4h10.56v-4Z"/><path d="M800.52,2094.06l-3.66,3.12a93.63,93.63,0,0,0-13.32-13.38l3.42-3.11A118.53,118.53,0,0,1,800.52,2094.06Z"/><path d="M835,2079.91c-8.58,1.55-17.4,3.3-23.82,4.43l-.66-3.42c4.32-.66,10.14-1.67,16.32-2.75V2070H812v-3.3H826.8v-5.34h4v16.26l4-.72Zm20.4,31.55c0,2.28-.6,3.36-2.34,4s-4.86.66-9.6.66a16.27,16.27,0,0,0-1.32-3.6c3.54.12,7,.12,7.92.12s1.26-.36,1.26-1.2v-8c-9.06,1.86-18.78,3.72-25.92,4.92l-1.32-3.54c6.84-1,17.34-2.88,27.24-4.74v-11.21H823.14v7.43c0,6.3-1.2,14.64-7.74,20.16a12.58,12.58,0,0,0-2.88-2.76c5.94-5.1,6.72-11.94,6.72-17.46v-10.79h36.12Zm-29.46-20.21c6.6,1.07,15.18,3.35,19.68,5.45l-1.38,3.12a103.06,103.06,0,0,0-19.8-5.82Zm31.26-12c2.1,0,2.52-.72,2.7-5.17a13.28,13.28,0,0,0,3.6,1.39c-.42,5.7-1.68,7.25-5.94,7.25H847.14c-5.46,0-6.9-1.14-6.9-5.39v-16h4v5.28h15.18v3.3H844.26v7.38c0,1.55.48,1.92,3.24,1.92Z"/><path d="M883.68,2097.42c-1.08,7-3.66,13.56-9.48,18.66a13.16,13.16,0,0,0-2.88-2.52,26.65,26.65,0,0,0,8.58-16.14H870v-3.72h10.38a69.55,69.55,0,0,0,.36-7.86v-1.62h-9.42v-3.77h9.42v-19h3.72v19h8.46v3.77h-8.46v1.69c0,2.57-.06,5.22-.3,7.79h10.26v3.72Zm-8.76-20a82.51,82.51,0,0,0-4-11.28l3.24-1a80.62,80.62,0,0,1,4.08,11.16Zm19.8-11.64a126.85,126.85,0,0,1-5,11.76l-2.94-1.2a89.26,89.26,0,0,0,4.5-11.82Zm27.84,13a75.07,75.07,0,0,1-9,23,38.47,38.47,0,0,0,11.1,10.92,13.49,13.49,0,0,0-2.7,3.12A39.37,39.37,0,0,1,911.4,2105a49.59,49.59,0,0,1-10.62,11.1,12.17,12.17,0,0,0-3-2.82,45.66,45.66,0,0,0,11.34-11.64,79,79,0,0,1-7.8-19.38c0,10-1.38,24.24-9.9,33.72a12.78,12.78,0,0,0-2.94-2.76c8.16-9,9-21.78,9-31.19v-17.7h25.14v3.78h-21.3v9.77h18.06l.78-.17Zm-18,2.7a69,69,0,0,0,6.78,16.67,62.72,62.72,0,0,0,6.72-16.67Z"/><path d="M942.18,2079.67a9.06,9.06,0,1,1-9.06,9A9.09,9.09,0,0,1,942.18,2079.67Zm0,15.23a6.18,6.18,0,1,0,0-12.36,6.18,6.18,0,1,0,0,12.36Z"/><rect class="cls-2" x="1113" y="1190" width="65" height="220" rx="12"/><path class="cls-1" d="M1157.05,1228.79a27.61,27.61,0,0,0,11.5,8.1,11.65,11.65,0,0,0-2.15,2.55,30.77,30.77,0,0,1-12.8-10.65h-15.95a34.39,34.39,0,0,1-13,11.3,11.43,11.43,0,0,0-2.15-2.55,30.39,30.39,0,0,0,11.6-8.75H1123v-2.85h10v-16.15h-7.7V1207h7.7v-5h3.3v5h18.55v-5h3.35v5h7.65v2.8h-7.65v16.15h9.8v2.85Zm-10,14.5h17.3v2.85H1126.8v-2.85h16.9v-5.6h-10.45v-2.8h10.45v-4.4h3.35v4.4h10.65v2.8h-10.65Zm-10.8-33.5v3.6h18.55v-3.6Zm0,9.8h18.55v-3.65h-18.55Zm0,6.35h18.55v-3.8h-18.55Z"/><path class="cls-1" d="M1141.25,1270.54s0,1.15,0,1.55c-.6,15.85-1.2,21.2-2.6,23a3.71,3.71,0,0,1-2.8,1.45,32.65,32.65,0,0,1-4.45,0,9.25,9.25,0,0,0-.85-3c1.75.15,3.2.15,3.9.15a1.42,1.42,0,0,0,1.45-.65c1-1.2,1.6-6,2.15-19.35h-6.8c-.55,10-2,18.25-6.45,23.65a9.53,9.53,0,0,0-2.55-2.35c5.45-6.45,5.9-17.85,6.1-31.55h-5.2v-3.1h20.1v3.1h-11.65c0,2.45-.1,4.85-.2,7.15Zm-7.9-10.45a33.47,33.47,0,0,0-4.25-7.15l2.9-1.15a31.92,31.92,0,0,1,4.4,7Zm23.85-7.45a15.26,15.26,0,0,1-.85,2.55c2.65,5.45,7.7,11.35,12.45,14a13,13,0,0,0-2.45,2.75c-4.25-2.7-8.5-8-11.4-13.3a32.61,32.61,0,0,1-11,13.6,12.79,12.79,0,0,0-2.35-2.65c5.85-3.6,10.35-10.2,12.5-17.85Zm-8.3,32.45a74,74,0,0,1,13.6,8.25l-2.25,2.9c-2.85-2.6-8.75-6.3-13.4-8.65Zm9.5-4.85a66.22,66.22,0,0,0-8.6-6.85l2.15-2.2a67.46,67.46,0,0,1,8.75,6.55Z"/><path class="cls-1" d="M1131.35,1312.94a26.09,26.09,0,0,1-7.85,7.85,15.83,15.83,0,0,0-1.4-2.75,23.7,23.7,0,0,0,8.35-8h-7.6v-2.85h8.5v-5.05h3.15v5.05h8.75V1310h-8.75v.5c2,1.4,6.85,5,8,6l-1.75,2.35a82,82,0,0,0-6.3-5.65v7.65h-3.15Zm-2.3,22.15a27.37,27.37,0,0,1-4.45,8.6,17.48,17.48,0,0,0-2.35-1.25,23.16,23.16,0,0,0,4.15-8Zm5.4-2.85v12c0,1.5-.3,2.15-1.4,2.6s-2.75.45-5.5.45a8.11,8.11,0,0,0-.9-2.45c1.95,0,3.65,0,4.15,0s.7-.15.7-.65v-11.9h-8.8v-2.8h20v2.8Zm-9.85-9.75h16.55v2.8H1124.6Zm27.45,14.8c-2.9,2.15-6,4.45-8.65,6.3l-1.5-2.1-2.15,1a34.6,34.6,0,0,0-3.35-7.35l2.4-1a32.45,32.45,0,0,1,3.3,6.8c2.35-1.5,5.55-3.85,8.85-6.25Zm16.3-22.8v2.75H1165v8h-8.5v18.55c0,1.9-.45,2.7-1.55,3.2s-3,.55-6.1.55a13.89,13.89,0,0,0-1-2.85c2.15.1,4.15.1,4.7,0,.7,0,.9-.2.9-.9v-18.6h-8.55v-2.85h8.55v-5.1h-10v-2.75h10v-4.8h-8v-2.85h8v-4.9h3v4.9h8.5v7.65Zm-18.85,19.7a35.77,35.77,0,0,0-5.5-5.55l1.85-1.85a35.6,35.6,0,0,1,5.55,5.3Zm7-19.7h5.6v-4.8h-5.6Zm5.6,2.75h-5.6v5.1h5.6Zm-2.75,17.1c3,2.2,6.9,5.35,8.9,7.2l-2,2.35c-2-2-5.8-5.2-8.8-7.55Zm7-6a64.3,64.3,0,0,1-5.8,5.85l-1.85-1.7a52.25,52.25,0,0,0,5.4-6.15Z"/><path class="cls-1" d="M1167.55,1377.29v2.5H1123.4v-2.5h20.25v-3.2H1126.8v-2.3h16.85v-3H1128.2v-2.25h15.45v-3.2H1123.5v-2.5h20.15v-3H1128.8v-2.35h14.85v-3.55h3.25v3.55h14.45v5.4h6.15v2.5h-6.15v5.45H1146.9v3h17.3v2.3h-17.3v3.2Zm-37.75,5h31.75v15.25h-3.25v-1.6H1133v1.7h-3.2Zm3.2,2.4v3.2h25.3v-3.2Zm25.3,8.85v-3.4H1133v3.4Zm-11.4-32.7h11.15v-3H1146.9Zm0,5.7h11.15v-3.2H1146.9Z"/><rect class="cls-2" x="1113" y="405" width="65" height="126" rx="12"/><path class="cls-1" d="M1132.7,434.82c1.25,1.6,4.9,6.7,5.7,8.05l-2,2.45c-.7-1.5-2.35-4.4-3.75-6.65V465h-3.15V440.57c-1.5,5.05-3.5,9.9-5.55,12.85a14.83,14.83,0,0,0-1.75-3.1c2.9-4,5.8-11.5,7.2-18h-6.2v-3.15h6.3v-9.65h3.15v9.65h5.45v3.15h-5.45Zm19.1.7a19.47,19.47,0,0,0,.45,2.65c-10.15,2.7-11.6,3.15-12.5,3.75a12.13,12.13,0,0,0-1.1-3.2c.7-.2,1.55-.5,1.55-2.2v-16.7h3.25v6.5h8.35v2.9h-8.35v8.3Zm2.35,5.5-2,3.75h12.65V465h-3.4v-1.75h-17v2h-3.3V444.77h7.9c.55-1.5,1.2-3.25,1.55-4.6Zm7.3,6.5h-17v5.05h17Zm0,13v-5.3h-17v5.3Zm2.25-22.4c1.25,0,1.5-.75,1.65-5.25a9.16,9.16,0,0,0,2.85,1.25c-.3,5.45-1.2,6.95-4.15,6.95h-5.85c-3.65,0-4.55-.95-4.55-4.45V419.87h3.25v6.5h10.2v2.9h-10.2v7.35c0,1.3.25,1.5,1.65,1.5Z"/><path class="cls-1" d="M1167.55,494.87v2.5H1123.4v-2.5h20.25v-3.2H1126.8v-2.3h16.85v-3H1128.2v-2.25h15.45v-3.2H1123.5v-2.5h20.15v-3.05H1128.8V473h14.85v-3.55h3.25V473h14.45v5.4h6.15v2.5h-6.15v5.45H1146.9v3h17.3v2.3h-17.3v3.2Zm-37.75,5h31.75v15.25h-3.25v-1.6H1133v1.7h-3.2Zm3.2,2.4v3.2h25.3v-3.2Zm25.3,8.85v-3.4H1133v3.4Zm-11.4-32.7h11.15v-3.05H1146.9Zm0,5.7h11.15v-3.2H1146.9Z"/><line class="cls-3" x1="601.5" y1="792.5" x2="601.5" y2="783.5"/><path d="M473.88,1216.42a459.63,459.63,0,0,1,77.29.17q11,.95,21.84,2.42l-6.78-.91a439.28,439.28,0,0,1,83.85,19.5q9.21,3.17,18.19,7l-6.09-2.57c16.64,7.06,32.65,15.76,47,26.81l-5.16-4a137.91,137.91,0,0,1,24.63,24.31l-4-5.16a106.76,106.76,0,0,1,13.49,22.9l-2.57-6.09a96.53,96.53,0,0,1,6.7,24.21l-.91-6.78a101.5,101.5,0,0,1,0,26.35l.91-6.78a120.25,120.25,0,0,1-8.51,30.66l2.57-6.09A144.06,144.06,0,0,1,718,1393.44l4-5.16a162.52,162.52,0,0,1-29.37,29l5.16-4c-17.57,13.5-37.25,23.87-57.61,32.48l6.09-2.57c-20.2,8.51-41.06,15.42-62,21.94a712.47,712.47,0,0,1-69.65,18.3c-13.49,2.75-27.09,4.92-40.74,6.76l6.78-.91c-17.52,2.35-35.11,4.17-52.69,6a28.3,28.3,0,0,0-18,7.47,19,19,0,0,0-5.27,8.2,19.22,19.22,0,0,0-2.2,9.83c.3,6.59,2.46,13.43,7.47,18,4.69,4.3,11.42,8.15,18,7.47,31.47-3.24,63-6.51,94.14-12.45,28.72-5.49,56.9-13.44,84.73-22.36,26.6-8.52,53.07-17.91,78.11-30.38a240.2,240.2,0,0,0,32.83-19.51c11.66-8.34,22.92-17.43,32.56-28.08a175.44,175.44,0,0,0,24.45-34,185.36,185.36,0,0,0,9.67-21.47,120.59,120.59,0,0,0,5.19-17c3-13.25,4.47-27.24,2.93-40.78a132.12,132.12,0,0,0-4.17-22.79,138.89,138.89,0,0,0-8.2-20.63c-5.39-11.2-13-21.42-21.26-30.65-8.49-9.47-18.45-17.51-28.75-24.92-19.53-14.06-41.9-24.16-64.51-32.13a431.37,431.37,0,0,0-79.63-19.32c-30.23-4.51-60.66-6.76-91.23-5.65q-10.5.38-21,1.25a24.62,24.62,0,0,0-23.3,15.67,19.22,19.22,0,0,0-2.2,9.83c.3,6.59,2.46,13.43,7.47,18,4.75,4.36,11.35,8,18,7.47Z"/><path d="M473.26,1376.85c33,9.15,67.67,11.35,101.76,10.92,32.46-.42,64.86-3,97.33-3.16a402.83,402.83,0,0,1,54.56,3.09l-6.78-.91c15.15,2,30.92,4.75,45.08,10.69l-6.09-2.57a57,57,0,0,1,11.91,6.83l-5.17-4a65.9,65.9,0,0,1,11.24,11.46l-4-5.16c10.24,13.34,17.94,28.8,25.76,43.63,8.21,15.58,16.12,31.32,24.75,46.68a400.47,400.47,0,0,0,62.15,83.58,404.74,404.74,0,0,0,45.67,39.68,19,19,0,0,0,9.48,3,19.34,19.34,0,0,0,10.17-.45c5.91-1.63,12.32-6.2,15.24-11.72,3.12-5.92,4.69-13.09,2.57-19.65l-2.57-6.09a25.71,25.71,0,0,0-9.15-9.15l-3.16-2.41,5.16,4a363.32,363.32,0,0,1-64.46-64.43l4,5.16c-18.15-23.5-32.51-49.24-46.19-75.51-7.06-13.58-14.06-27.2-21.65-40.5-3.52-6.17-7.09-12.34-11.2-18.15-5-7-10.36-14.14-17.14-19.57a83,83,0,0,0-13.23-9.2,115.59,115.59,0,0,0-15.51-6.57,167,167,0,0,0-21.23-5.58,350.57,350.57,0,0,0-49.68-6.41c-29.69-1.8-59.44-.19-89.11,1.12s-59.28,2.37-88.79-.56c-3.58-.36-7.16-.78-10.72-1.25l6.78.91a258.7,258.7,0,0,1-34.22-6.95,26.37,26.37,0,0,0-19.65,2.57c-5.29,3.09-10.33,9.16-11.72,15.24-1.49,6.53-1.16,13.85,2.57,19.65a26.73,26.73,0,0,0,15.24,11.72Z"/><path d="M380,1031.06q107.11,0,214.23-.17t214-.64q59.91-.3,119.81-.75a26.38,26.38,0,0,0,18-7.47c4.42-4.42,7.75-11.68,7.47-18-.61-13.73-11.21-25.61-25.5-25.5q-106.82.82-213.64,1.12Q607.28,980,500.2,980L380,980.06a26.4,26.4,0,0,0-18,7.47c-4.42,4.42-7.75,11.68-7.46,18,.29,6.6,2.46,13.44,7.46,18s11.13,7.48,18,7.47Z"/><path d="M355.16,1008q1.26,81.19-.46,162.39c-1.1,51.79-2.82,103.63-6.18,155.33-1.7,26.09-4,52.16-7.49,78.08l.91-6.77c-5,37-12.47,73.87-24.38,109.36q-5.06,15-11.21,29.68l2.57-6.09a366.31,366.31,0,0,1-28.57,54.56c-7.2,11.26-2.7,28.64,9.15,34.89,12.63,6.68,27.2,2.87,34.89-9.15,20.51-32.09,35.73-67.65,46.72-104.06,11.16-37,17.67-75.14,22.34-113.45,4.51-36.93,6.74-74.09,8.48-111.23q3-64.37,4.11-128.8t.34-128.85q-.11-8-.22-15.89a26.52,26.52,0,0,0-7.47-18c-4.43-4.42-11.68-7.76-18-7.47-6.6.29-13.44,2.46-18,7.47s-7.57,11.16-7.46,18Z"/></svg>