<svg id="Layer_1" data-name="Layer 1" xmlns="http://www.w3.org/2000/svg" viewBox="0 0 1242 2208"><defs><style>.cls-1{fill:#f6eabe;}.cls-2{fill:#999;}.cls-3{fill:none;stroke:#000;stroke-miterlimit:10;}</style></defs><rect class="cls-1" width="1242" height="2208"/><path d="M599.62,198.64v620.9H548V672.65c-101.63,16.67-205.64,32.55-281.07,45.26l-9.53-53.2Q292,661.14,336,655.18V198.64H273.29V149.41H656v49.23Zm-51.61,0H386V309H548Zm0,158H386V472.56H548ZM386,648c50.81-7.15,106.39-15.88,162-24.62V521H386ZM968.83,216.9c-21.44,169.12-67.49,300.92-131,401,44.46,65.11,100,117.52,166.74,151.66C992.65,779,976,798.89,967.24,813.19c-65.11-36.53-118.3-86.55-162.77-148.48A562,562,0,0,1,638.53,810c-7.94-13.5-23-33.35-34.14-42.88,63.52-33.34,121.48-83.36,169.91-150.06-55.58-94.48-93.69-211.2-119.89-343.8l50-9.53c21.44,114.34,54,217.56,102.42,304.1,48.44-82.57,85-185,104-307.27H636.94V209H925.16l9.53-1.59Z"/><path d="M341,1734.49H326.22v35.15h-4v-38.87H341Z"/><path d="M399,1778H388.32v8h-4.14v-8H345.24v-4h10.2v-35h-9v-3.84h51.24V1739h-9.36v35H399Zm-39.42-39v8.82h24.6V1739Zm0,21.53h24.6v-9h-24.6Zm24.6,13.5v-9.84h-24.6V1774Z"/><path d="M403,1782.84h14.82v-35.15h4v38.87H403Z"/><path d="M458.16,1730.17l3.24,1.74c-7.08,7.26-11.28,16.2-11.28,26.76s4.2,19.49,11.28,26.75l-3.24,1.74c-7.32-7.5-11.94-17-11.94-28.49S450.84,1737.67,458.16,1730.17Z"/><path d="M481.92,1732.69a98.85,98.85,0,0,1-6.18,13.56v39.59H471.9v-33.35a61.73,61.73,0,0,1-5.46,7,32.86,32.86,0,0,0-2.28-3.9c5.58-5.87,10.8-14.87,14-24Zm34.14,28c-2.1,1.26-4.44,2.64-6.84,3.78,2,6.06,5.82,11.82,10.38,14.52a11.2,11.2,0,0,0-2.64,2.94c-4.62-3.18-8.46-9.42-10.68-16a27.45,27.45,0,0,1-2.76,1.2c2.58,6.84,1.86,14-1,16.68a6.91,6.91,0,0,1-5.22,1.92c-1.08,0-2.4-.06-3.78-.18a9.31,9.31,0,0,0-1-3.42,38.26,38.26,0,0,0,4.14.24,3.66,3.66,0,0,0,3.12-1.14c1.56-1.38,2.22-5.16,1.44-9.36-5.16,4.92-13.08,9.36-19.8,11.7a15.8,15.8,0,0,0-2.34-2.82c7.62-2.28,16.62-7.14,21.3-12.24a35.76,35.76,0,0,0-1.5-3.48,63.52,63.52,0,0,1-17.22,9.9,16.14,16.14,0,0,0-2.22-2.64c5.94-1.8,13.74-5.76,17.88-9.54a16.39,16.39,0,0,0-2.94-3.18,58.44,58.44,0,0,1-13.56,7.26,11.26,11.26,0,0,0-2.22-2.58,52.7,52.7,0,0,0,15.06-7.55H483.48v-9.36c-1.14,1-2.28,2-3.54,2.94a9.37,9.37,0,0,0-2.52-2.58,44.69,44.69,0,0,0,13.86-16.26l3.84.72c-.6,1.2-1.32,2.34-2,3.54h11.1l.72-.18,2.34,1.68a52.13,52.13,0,0,1-4.8,6.84h13.08v12.66H497.94c-.36.36-.78.66-1.2,1a21,21,0,0,1,5.64,6.84,110,110,0,0,0,10.92-6.42ZM491,1738.81a54.58,54.58,0,0,1-4.2,5.16h11.58a37.88,37.88,0,0,0,3.72-5.16Zm-3.9,14.69h10.5v-6.42h-10.5Zm24.72-6.42H501.18v6.42H511.8Z"/><path d="M579.36,1755.91v4.31H524.88v-4.31Z"/><path d="M592.8,1746.31a51.81,51.81,0,0,1-5.76,6.06,19,19,0,0,0-3.06-2.64,50.31,50.31,0,0,0,13.8-18.54l3.72,1.14a54,54,0,0,1-3.18,6.12H613a49.89,49.89,0,0,0-3.12-5.88l3.66-1.08a49.49,49.49,0,0,1,3.72,7H634.5v3.18H615.18v4.2H632.4v2.88H615.18V1753H632.4v2.88H615.18v4.33h20.28v3.11H596.52v1.86H592.8Zm38.28,22.13c-3.12,4.32-7.86,7.68-13.44,10.26a103.56,103.56,0,0,0,20.7,3.42,15.5,15.5,0,0,0-2.22,3.48,96.13,96.13,0,0,1-23.46-4.86c-8,2.88-17.22,4.38-26,5.22a14.88,14.88,0,0,0-1.5-3.48,107.35,107.35,0,0,0,22.62-3.78,35.1,35.1,0,0,1-11.76-8.28l.12-.06h-8.64v-3.3H628l.66-.24Zm-19.8-26.81H596.52v4.2h14.76Zm0,7.08H596.52V1753h14.76Zm0,7.13H596.52v4.33h14.76Zm-10.5,14.52a37.11,37.11,0,0,0,11.94,6.78,37,37,0,0,0,11.88-6.78Z"/><path d="M699,1778H688.32v8h-4.14v-8H645.24v-4h10.2v-35h-9v-3.84h51.24V1739h-9.36v35H699Zm-39.42-39v8.82h24.6V1739Zm0,21.53h24.6v-9h-24.6Zm24.6,13.5v-9.84h-24.6V1774Z"/><path d="M724.2,1768.5c-3.66,5.52-9.66,10.62-15.12,13.92a28.62,28.62,0,0,0-3.24-2.7c5.52-2.88,11.22-7.56,14.46-12.42Zm9.78-3.9v21.3h-4.2v-21.3h-23.7v-3.77h23.7v-7.38H734v7.38H757.8v3.77Zm-10.74-24.35c0,6.29-2.52,13.5-14.1,17.88a14.28,14.28,0,0,0-2.4-3.42c10.62-3.91,12.42-9.48,12.42-14.58v-6.72H745v16.43c0,1.87.3,2.46,1.62,2.46h7.26a17.07,17.07,0,0,0,3.66-.3c.06,1.08.3,2.76.42,3.72a18.24,18.24,0,0,1-4,.3h-7.32c-4.5,0-5.64-1.61-5.64-6.29v-12.48H723.24Zm18.66,27c5.76,3.72,12.84,9.18,16.26,13L755,1782.9c-3.24-3.84-10.26-9.54-16-13.38Z"/><path d="M765.84,1787.16l-3.24-1.74c7.08-7.26,11.28-16.2,11.28-26.75s-4.2-19.5-11.28-26.76l3.24-1.74c7.32,7.5,11.94,17,11.94,28.5S773.16,1779.66,765.84,1787.16Z"/><path d="M815.16,1744.63a67.9,67.9,0,0,1-7.2,12.24v28.85h-4v-24a41.57,41.57,0,0,1-7.26,6.41,17,17,0,0,0-2-3.48c7-5,12.3-12.23,16.14-20H796v-3.84h16.44a65.25,65.25,0,0,0,3.3-9.42l4.08,1c-.9,2.82-1.86,5.64-3,8.4H848.1v3.84Zm32.94,36.23v3.72H812v-3.72h16v-17.52H814.32v-3.71H828v-11.82h4v11.82h13.8v3.71H832v17.52Z"/><path d="M875.52,1746.13c-3.48,13.73-9,27-18.84,36.11a31.63,31.63,0,0,0-2.64-3.12c9-8.1,14.22-20.33,17.46-33H856.32v-3.9h16.14c.78-3.66,1.44-7.32,2-10.86l4,.54c-.54,3.36-1.2,6.84-2,10.32h31.08v3.9Zm33.18,34.19v3.84H865.92v-3.84h19.74v-18.54H872v-3.84h33.84v3.84H889.74v18.54Z"/><path d="M920.88,1767c4.68-2,7.26-4.86,7.56-9.17a4,4,0,0,1-1.14.11c-2.34,0-4.26-1.31-4.26-4.07a4,4,0,0,1,4.32-4.08c3.18,0,4.86,2.58,4.86,6.66,0,6.41-4,11.21-10.08,13.43Z"/><path d="M371,1806.49H356.22v35.15h-4v-38.87H371Z"/><path d="M423.06,1808.83c-3.48,13.74-9.9,24.3-18.06,32.27a57.36,57.36,0,0,0,24.78,12.78,15.56,15.56,0,0,0-2.64,3.54,58.72,58.72,0,0,1-25.2-13.56,72.49,72.49,0,0,1-25,13.62,10.78,10.78,0,0,0-2.46-3.54,70.44,70.44,0,0,0,24.6-12.84c-7.38-7.74-12.66-17.69-16.32-29.33H378v-4h41.7l.78-.24Zm-36.3,2.94c3.36,10.38,8.4,19.44,15.36,26.63a59.85,59.85,0,0,0,16.08-26.63Z"/><path d="M433,1854.84h14.82v-35.15h4v38.87H433Z"/><path d="M488.16,1802.17l3.24,1.74c-7.08,7.26-11.28,16.2-11.28,26.76s4.2,19.49,11.28,26.75l-3.24,1.74c-7.32-7.5-11.94-17-11.94-28.49S480.84,1809.67,488.16,1802.17Z"/><path d="M511.92,1804.69a98.85,98.85,0,0,1-6.18,13.56v39.59H501.9v-33.35a61.73,61.73,0,0,1-5.46,7,32.86,32.86,0,0,0-2.28-3.9c5.58-5.87,10.8-14.87,14-24Zm34.14,28c-2.1,1.26-4.44,2.64-6.84,3.78,2,6.06,5.82,11.82,10.38,14.52a11.2,11.2,0,0,0-2.64,2.94c-4.62-3.18-8.46-9.42-10.68-16a27.45,27.45,0,0,1-2.76,1.2c2.58,6.84,1.86,14-1,16.68a6.91,6.91,0,0,1-5.22,1.92c-1.08,0-2.4-.06-3.78-.18a9.31,9.31,0,0,0-1-3.42,38.26,38.26,0,0,0,4.14.24,3.66,3.66,0,0,0,3.12-1.14c1.56-1.38,2.22-5.16,1.44-9.36-5.16,4.92-13.08,9.36-19.8,11.7a15.8,15.8,0,0,0-2.34-2.82c7.62-2.28,16.62-7.14,21.3-12.24a35.76,35.76,0,0,0-1.5-3.48,63.52,63.52,0,0,1-17.22,9.9,16.14,16.14,0,0,0-2.22-2.64c5.94-1.8,13.74-5.76,17.88-9.54a16.39,16.39,0,0,0-2.94-3.18,58.44,58.44,0,0,1-13.56,7.26,11.26,11.26,0,0,0-2.22-2.58,52.7,52.7,0,0,0,15.06-7.55H513.48v-9.36c-1.14,1-2.28,2-3.54,2.94a9.37,9.37,0,0,0-2.52-2.58,44.69,44.69,0,0,0,13.86-16.26l3.84.72c-.6,1.2-1.32,2.34-2,3.54h11.1l.72-.18,2.34,1.68a52.13,52.13,0,0,1-4.8,6.84h13.08v12.66H527.94c-.36.36-.78.66-1.2,1a21,21,0,0,1,5.64,6.84,110,110,0,0,0,10.92-6.42ZM521,1810.81a54.58,54.58,0,0,1-4.2,5.16h11.58a37.88,37.88,0,0,0,3.72-5.16Zm-3.9,14.69h10.5v-6.42h-10.5Zm24.72-6.42H531.18v6.42H541.8Z"/><path d="M609.36,1827.91v4.31H554.88v-4.31Z"/><path d="M622.8,1818.31a51.81,51.81,0,0,1-5.76,6.06,19,19,0,0,0-3.06-2.64,50.31,50.31,0,0,0,13.8-18.54l3.72,1.14a54,54,0,0,1-3.18,6.12H643a49.89,49.89,0,0,0-3.12-5.88l3.66-1.08a49.49,49.49,0,0,1,3.72,7H664.5v3.18H645.18v4.2H662.4v2.88H645.18V1825H662.4v2.88H645.18v4.33h20.28v3.11H626.52v1.86H622.8Zm38.28,22.13c-3.12,4.32-7.86,7.68-13.44,10.26a103.56,103.56,0,0,0,20.7,3.42,15.5,15.5,0,0,0-2.22,3.48,96.13,96.13,0,0,1-23.46-4.86c-8,2.88-17.22,4.38-26,5.22a14.88,14.88,0,0,0-1.5-3.48,107.35,107.35,0,0,0,22.62-3.78,35.1,35.1,0,0,1-11.76-8.28l.12-.06h-8.64v-3.3H658l.66-.24Zm-19.8-26.81H626.52v4.2h14.76Zm0,7.08H626.52V1825h14.76Zm0,7.13H626.52v4.33h14.76Zm-10.5,14.52a37.11,37.11,0,0,0,11.94,6.78,37,37,0,0,0,11.88-6.78Z"/><path d="M728.94,1838.22H704.1v14c0,3-1,4.2-3.06,4.86s-5.94.72-12.3.66a17.27,17.27,0,0,0-1.74-3.9c5.16.12,9.84.06,11.16.06s1.86-.48,1.86-1.74v-13.92H675.18v-3.9H700v-10.19H679.14v-3.84H700v-9.6c-6.66.66-13.56,1.14-19.8,1.44a16.18,16.18,0,0,0-1-3.54c14.16-.72,31.8-2.28,40.74-5.16l2.94,3.24a123.25,123.25,0,0,1-18.78,3.6v10h21.48v3.84H704.1v10.19h24.84Z"/><path d="M735.84,1859.16l-3.24-1.74c7.08-7.26,11.28-16.2,11.28-26.75s-4.2-19.5-11.28-26.76l3.24-1.74c7.32,7.5,11.94,17,11.94,28.5S743.16,1851.66,735.84,1859.16Z"/><path d="M785.16,1816.63a67.9,67.9,0,0,1-7.2,12.24v28.85h-4v-24a41.57,41.57,0,0,1-7.26,6.41,17,17,0,0,0-2-3.48c7-5,12.3-12.23,16.14-20H766v-3.84h16.44a65.25,65.25,0,0,0,3.3-9.42l4.08,1c-.9,2.82-1.86,5.64-3,8.4H818.1v3.84Zm32.94,36.23v3.72H782v-3.72h16v-17.52H784.32v-3.71H798v-11.82h4v11.82h13.8v3.71H802v17.52Z"/><path d="M846.78,1818.54a74.71,74.71,0,0,1-5.76,11.94h32.7v27.3h-4.14v-3.12H842.22v3.42h-4v-23.4a50.91,50.91,0,0,1-11.46,11.52,21.84,21.84,0,0,0-2.64-3.18c8.64-5.94,14.46-14.76,18.36-24.48H826.08v-3.89H843.9a86,86,0,0,0,3.12-11.34l4.14.84c-.84,3.48-1.8,7-3,10.5h30v3.89Zm-4.56,15.78v16.5h27.36v-16.5Z"/><path d="M890.88,1839c4.68-2,7.26-4.86,7.56-9.17a4,4,0,0,1-1.14.11c-2.34,0-4.26-1.31-4.26-4.07a4,4,0,0,1,4.32-4.08c3.18,0,4.86,2.58,4.86,6.66,0,6.41-4,11.21-10.08,13.43Z"/><path d="M511.92,1876.69a98.85,98.85,0,0,1-6.18,13.56v39.59H501.9v-33.35a61.73,61.73,0,0,1-5.46,7,32.86,32.86,0,0,0-2.28-3.9c5.58-5.87,10.8-14.87,14-24Zm34.14,28c-2.1,1.26-4.44,2.64-6.84,3.78,2,6.06,5.82,11.82,10.38,14.52a11.2,11.2,0,0,0-2.64,2.94c-4.62-3.18-8.46-9.42-10.68-16a27.45,27.45,0,0,1-2.76,1.2c2.58,6.84,1.86,14-1,16.68a6.91,6.91,0,0,1-5.22,1.92c-1.08,0-2.4-.06-3.78-.18a9.31,9.31,0,0,0-1-3.42,38.26,38.26,0,0,0,4.14.24,3.66,3.66,0,0,0,3.12-1.14c1.56-1.38,2.22-5.16,1.44-9.36-5.16,4.92-13.08,9.36-19.8,11.7a15.8,15.8,0,0,0-2.34-2.82c7.62-2.28,16.62-7.14,21.3-12.24a35.76,35.76,0,0,0-1.5-3.48,63.52,63.52,0,0,1-17.22,9.9,16.14,16.14,0,0,0-2.22-2.64c5.94-1.8,13.74-5.76,17.88-9.54a16.39,16.39,0,0,0-2.94-3.18,58.44,58.44,0,0,1-13.56,7.26,11.26,11.26,0,0,0-2.22-2.58,52.7,52.7,0,0,0,15.06-7.55H513.48v-9.36c-1.14,1-2.28,2-3.54,2.94a9.37,9.37,0,0,0-2.52-2.58,44.69,44.69,0,0,0,13.86-16.26l3.84.72c-.6,1.2-1.32,2.34-2,3.54h11.1l.72-.18,2.34,1.68a52.13,52.13,0,0,1-4.8,6.84h13.08v12.66H527.94c-.36.36-.78.66-1.2,1a21,21,0,0,1,5.64,6.84,110,110,0,0,0,10.92-6.42ZM521,1882.81a54.58,54.58,0,0,1-4.2,5.16h11.58a37.88,37.88,0,0,0,3.72-5.16Zm-3.9,14.69h10.5v-6.42h-10.5Zm24.72-6.42H531.18v6.42H541.8Z"/><path d="M608.94,1910.22H584.1v14c0,3-1,4.2-3.06,4.86s-5.94.72-12.3.66a17.27,17.27,0,0,0-1.74-3.9c5.16.12,9.84.06,11.16.06s1.86-.48,1.86-1.74v-13.92H555.18v-3.9H580v-10.19H559.14v-3.84H580v-9.6c-6.66.66-13.56,1.14-19.8,1.44a16.18,16.18,0,0,0-1-3.54c14.16-.72,31.8-2.28,40.74-5.16l2.94,3.24a123.25,123.25,0,0,1-18.78,3.6v10h21.48v3.84H584.1v10.19h24.84Z"/><path d="M633,1905.18c-2.22.78-4.44,1.57-6.6,2.28v17.46c0,2.34-.54,3.36-1.92,4s-3.6.78-7.44.72a13.45,13.45,0,0,0-1.14-3.66c2.64.06,5,.06,5.7,0s1.08-.24,1.08-1.08v-16.25c-2.76.95-5.4,1.79-7.68,2.51l-1.14-3.78c2.4-.72,5.46-1.68,8.82-2.76v-13.37h-7.92v-3.72h7.92v-12.18h3.72v12.18h6.48v3.72H626.4v12.23l6.06-1.92Zm36.42-22V1887h-15.9v7.8h13v3.66H636.78v-3.66h13V1887h-16v-3.72h16v-7.56h3.78v7.56Zm-8,22.37h7.5v3.72h-7.5v15.84c0,2.52-.54,3.6-2.22,4.32s-4.56.66-9,.66a15.58,15.58,0,0,0-1.26-3.9c3.48.18,6.6.12,7.5.06s1.2-.3,1.2-1.2v-15.78H634.44v-3.72h23.22V1900h3.78Zm-19.26,5.7a119.86,119.86,0,0,1,6.78,10.32l-3.18,2a105.62,105.62,0,0,0-6.66-10.62Z"/><path d="M729,1922H718.32v8h-4.14v-8H675.24v-4h10.2v-35h-9v-3.84h51.24V1883h-9.36v35H729Zm-39.42-39v8.82h24.6V1883Zm0,21.53h24.6v-9h-24.6Zm24.6,13.5v-9.84h-24.6V1918Z"/><path d="M747.18,1893.67a9.06,9.06,0,1,1-9.06,9A9.09,9.09,0,0,1,747.18,1893.67Zm0,15.23a6.18,6.18,0,1,0,0-12.36,6.18,6.18,0,1,0,0,12.36Z"/><path d="M209.1,1962.13v13.31h18.12v26.4H223v-3H191.1v3.24H187v-26.64H204.9v-13.31H180.48v-3.9H204.9v-10.92h4.2v10.92h24.6v3.9ZM223,1979.22H191.1V1995H223Z"/><path d="M258.6,1990.26h-13V1995H241.8v-43.67h16.8Zm-13-35.27v13.73h9.24V1955Zm9.24,31.61v-14.27h-9.24v14.27Zm24-28.31v8.09h13.32V1970h-5.4v6.89h7.2v3.54h-7.2v16.68c0,2.4-.6,3.54-2.34,4.14s-4.74.72-9.66.72a16.74,16.74,0,0,0-1.32-3.78c3.78.12,7.2.12,8.16.06s1.26-.3,1.26-1.2v-16.62H260v-3.54h22.86V1970h-20.4v-3.61h12.48v-8.09H259.68v-3.6h15.24v-7.32h3.9v7.32h15.3v3.6Zm-11.76,24.47a51.18,51.18,0,0,1,7.86,10.32l-3.42,2.16a54.79,54.79,0,0,0-7.68-10.56Z"/><path d="M317,1992.54V2002h-3.78v-9.48H299.58v-3.6h13.68v-4.5H302.1v-20.1h26.46v20.1H317v4.5H330.6v3.6Zm-3.3-31.5H301.62v-11.81h12.12Zm-3.12-8.93h-5.88v6.06h5.88Zm-5.1,20.76h7.92v-5.34h-7.92Zm0,8.39h7.92v-5.4h-7.92ZM329.1,1961H316.74v-11.81H329.1Zm-4,6.49h-8.22v5.34h8.22Zm0,8.33h-8.22v5.4h8.22Zm.84-23.75H319.8v6.06h6.12Zm26.34,19.14a60.84,60.84,0,0,1-8.64,16.73c1.62,5.88,3.66,9.42,6.12,9.54,1.32.06,2.22-3.3,2.64-9.36a15.5,15.5,0,0,0,3.06,2.1c-1.14,9.24-3.3,12-5.64,11.88-4-.18-7-4-9.12-10.5a42.84,42.84,0,0,1-12,9.78,12.89,12.89,0,0,0-2.88-2.82,40.15,40.15,0,0,0,13.68-11.16,128.89,128.89,0,0,1-2.94-19.19l-6.72.83-.54-3.66,6.9-.84c-.42-5.27-.66-10.91-.9-16.79h3.78c.18,5.7.42,11.22.84,16.32l14.28-1.74.48,3.59-14.4,1.8a148.76,148.76,0,0,0,2.22,15.66,56,56,0,0,0,6.72-13.92Zm-2.1-11a39.38,39.38,0,0,0-7.14-10.14l3-1.68a44.07,44.07,0,0,1,7.32,9.9Z"/><path d="M414.42,1978.08h-7.5v10.2H388.86v8.4c0,2.76-.72,3.9-2.7,4.56s-5.58.66-11.16.66a17.37,17.37,0,0,0-1.5-3.9c4.44.18,8.58.12,9.78.06s1.5-.3,1.5-1.38v-8.4h-19.2v-3.36h19.2v-6.84H359.7v-3.36h25.08v-6.65H366.54v-3.42h40.38v10.07h7.5Zm-5.1-27.89c-11.4,2.28-29.64,3.54-44.94,4a10.16,10.16,0,0,0-1.08-3.12c15-.6,33.3-1.86,43.2-4Zm-37,13.2a26.47,26.47,0,0,0-3.9-7.32l3.6-1.2a26,26,0,0,1,4.14,7.08Zm13.62-.06a32.86,32.86,0,0,0-3.12-8.16l3.6-1a30.39,30.39,0,0,1,3.36,8Zm2.88,11.39h14v-6.65h-14Zm14,3.36h-14v6.84h14Zm-6.3-14.93a66.21,66.21,0,0,0,7.26-10.44l4.14,1.44a101.75,101.75,0,0,1-8,10.31Z"/><path d="M470.82,1958.05v27.77h-4.08v-3.48H448.92v19.56h-4.14v-19.56H427v3.78h-4v-28.07h21.72v-10.74h4.14v10.74Zm-26,20.33V1962H427v16.43Zm22,0V1962H448.92v16.43Z"/><path d="M485.88,1983c4.68-2,7.26-4.86,7.56-9.17a4,4,0,0,1-1.14.11c-2.34,0-4.26-1.31-4.26-4.07a4,4,0,0,1,4.32-4.08c3.18,0,4.86,2.58,4.86,6.66,0,6.41-4,11.21-10.08,13.43Z"/><path d="M529,1976.29h13.74v3H511.38v-3h13.86V1972H516v-3h9.24V1965c-3.24.19-6.48.37-9.42.37a12.66,12.66,0,0,0-1-2.76c3.36-.12,7-.3,10.44-.61v-3.77H529v3.48a65.53,65.53,0,0,0,7.56-1.26l2.7,2.63a88,88,0,0,1-10.26,1.63v4.2h9.36v3H529Zm-2.46-29.52a31.8,31.8,0,0,1,3.48,6.3h12.84v8.64h-3.36v-5.52H514.8v5.88h-3.3v-9h14.76a37.12,37.12,0,0,0-2.76-5ZM515,1984.26h24.3v17.4h-3.48v-3.12h-17.4V2002H515Zm3.42,3.48v7.8h17.4v-7.8Zm32.28,0h-3.42v-32.15h3.42Zm11-40.07v48.95c0,2.58-.72,3.66-2.22,4.32s-4.26.78-9.06.78a13.53,13.53,0,0,0-1.2-3.84c3.54.12,6.66.12,7.56.06s1.38-.3,1.38-1.32v-48.95Z"/><path d="M594.78,1954.87v46.91h-3.9v-11.1c-7.68,1.26-15.54,2.46-21.24,3.42l-.72-4q2.61-.27,5.94-.72v-34.49h-4.74v-3.72H599v3.72Zm-3.9,0H578.64v8.34h12.24Zm0,11.93H578.64v8.76h12.24Zm-12.24,22c3.84-.54,8-1.2,12.24-1.86v-7.74H578.64Zm44-32.57c-1.62,12.78-5.1,22.73-9.9,30.29a34.32,34.32,0,0,0,12.6,11.46,15.16,15.16,0,0,0-2.82,3.3,37.87,37.87,0,0,1-12.3-11.22,42.46,42.46,0,0,1-12.54,11,15.33,15.33,0,0,0-2.58-3.24A37.45,37.45,0,0,0,608,1986.48c-4.2-7.14-7.08-16-9.06-26l3.78-.71c1.62,8.63,4.08,16.43,7.74,23a65.61,65.61,0,0,0,7.86-23.21H597.6v-3.9h21.78l.72-.12Z"/><path d="M660.42,1957h-30v-3.48H644a29.11,29.11,0,0,0-3.48-4.62l2.88-1.62a29.68,29.68,0,0,1,4.68,6.24h12.3Zm21.12,5.28c-1.32,10-3.36,18.23-6.84,25.07,2.64,5,6.06,9.12,10.26,11.64a13.49,13.49,0,0,0-2.7,3.12,30.91,30.91,0,0,1-9.78-10.92,38.13,38.13,0,0,1-10.68,11,18.53,18.53,0,0,0-2.46-3.36,32.56,32.56,0,0,0,11.16-11.7,81.12,81.12,0,0,1-5.28-17.52,37.78,37.78,0,0,1-3.36,6.24,20,20,0,0,0-2.76-2.4v24.24c0,2-.42,3-1.8,3.54s-3.6.66-7.32.66a11,11,0,0,0-1.14-3.24c2.7.06,5.1.06,5.82,0s1-.24,1-1v-30h-8.94V1973H654v2.82h-7.32v5.52h5.52v11.82H641.58V1996h-2.76v-14.58h5v-5.52h-6.9V1973h6.9v-5.33h-8.52v34.19H631.8v-37.73H639a39.1,39.1,0,0,0-3.06-5.94l3.3-1a28.18,28.18,0,0,1,3.36,6.3l-1.74.6h7.68a50.26,50.26,0,0,0,2.52-6.84l3.72.72c-.9,2.16-1.8,4.32-2.64,6.12h7v8.75c4.26-6.23,6.78-15.71,8.16-25.61l3.84.6c-.6,3.66-1.32,7.26-2.16,10.62H684.3v3.78Zm-32.22,21.89h-7.74v6.18h7.74Zm18.54-21.89a4.14,4.14,0,0,1-.3.9,90,90,0,0,0,5,19.61c2.52-5.69,4-12.53,5-20.51Z"/><path d="M719.28,1947.55c-.06,2.1-.12,5.1-.42,8.64.9,7,4.56,32.51,25.74,42a12.63,12.63,0,0,0-2.88,3.36c-15.42-7.26-21.72-22.74-24.6-34-2.64,12.23-8.94,26.33-24.06,34.19a13.77,13.77,0,0,0-3.12-3.06c25-12.48,24.78-42.11,25-51.11Z"/><path d="M770.52,1962.13c-3.48,13.73-9,27-18.84,36.11a31.63,31.63,0,0,0-2.64-3.12c9-8.1,14.22-20.33,17.46-33H751.32v-3.9h16.14c.78-3.66,1.44-7.32,2-10.86l4,.54c-.54,3.36-1.2,6.84-2,10.32h31.08v3.9Zm33.18,34.19v3.84H760.92v-3.84h19.74v-18.54H767v-3.84h33.84v3.84H784.74v18.54Z"/><path d="M864,1994H853.32v8h-4.14v-8H810.24v-4h10.2v-35h-9v-3.84h51.24V1955h-9.36v35H864Zm-39.42-39v8.82h24.6V1955Zm0,21.53h24.6v-9h-24.6Zm24.6,13.5v-9.84h-24.6V1990Z"/><path d="M895,1984.8c-8.34,3.84-17.52,7.86-24.06,10.74l-1.44-4.08c2.34-.9,5.16-2.1,8.28-3.42l-1-37.55,4-.12.9,36c4-1.74,8.22-3.6,12.36-5.46Zm26.64,17c-2.82-4.2-8.58-10.68-13.8-16.14-4.68,7.2-11.4,12.54-21,16.5a31.65,31.65,0,0,0-3.12-3.42c20.88-7.56,27.24-22.14,29.94-48.35l4.32.42c-1.44,13-3.78,23.21-8,31.31,5.46,5.4,11.88,12.24,15.06,16.56Zm-23.22-30.6c-1.56-4.14-5.46-10.25-9.24-14.63l3.42-1.74a56.51,56.51,0,0,1,9.54,14.27Z"/><path d="M929.82,1956.73h23.7v3.35h-23.7Zm1.8,16.61h20v3.24h-20Zm19.08,25.38H935.88v2.76h-3.54v-20.1H950.7Zm-.24-33.72v3.18H932.7V1965Zm-14.58,19.74v10.62H947.1v-10.62Zm6.06-28.61a34.4,34.4,0,0,0-5-7.38l3-1.74a35,35,0,0,1,5.28,7.26Zm34.56,40.79c3.24,0,3.72-1.56,4.14-10.14a10.46,10.46,0,0,0,3.72,1.68c-.6,9.66-1.86,12.24-7.68,12.24h-12c-5.88,0-7.68-1.32-7.68-6.6v-23.88h19.62v-15.71H956.16v-3.84h24.42v26.63h-4v-3.24H961v20.1c0,2.28.66,2.76,4,2.76Z"/><path d="M1013.58,1984.32c-8.1,2.34-16.74,4.74-23,6.48l-1-4c2.7-.66,6.06-1.56,9.78-2.46v-26h-9v-3.78h21.84v3.78h-8.88v24.89c3.18-.84,6.54-1.8,9.84-2.64Zm29.64-21.11c-1,24.71-2,33.29-4.26,36a5.48,5.48,0,0,1-4.44,2.22,65.62,65.62,0,0,1-8.82-.18,10.84,10.84,0,0,0-1.2-3.9c3.72.36,7.2.36,8.46.36s1.92-.12,2.52-.9c1.86-2,2.82-10.08,3.72-31.85h-12.54c-1,15.83-4.5,29.39-18.24,37.07a14,14,0,0,0-2.88-3.06c13-6.9,16.2-19.38,17.1-34h-10.08v-3.84h10.26c.12-4.08.18-8.34.18-12.72h4c0,4.38-.06,8.64-.18,12.72h16.38Z"/><path d="M1062.18,1965.67a9.06,9.06,0,1,1-9.06,9A9.09,9.09,0,0,1,1062.18,1965.67Zm0,15.23a6.18,6.18,0,0,0,0-12.36,6.18,6.18,0,0,0,0,12.36Z"/><path d="M555.24,2020.51a13.18,13.18,0,0,1-.84,1.08c5.7,5.64,16.2,10.62,25.56,12.83a12.89,12.89,0,0,0-2.52,3.12,71.7,71.7,0,0,1-14.88-6.17l-.06,1.92H541.74l.06-1.68a88.84,88.84,0,0,1-14.88,6.23,32.14,32.14,0,0,0-2.28-3c10.8-3,21.48-8.28,27.12-15.6Zm-23.16,16H572v14.88h-39.9Zm3.42,12.06h14.7v-9.23H535.5Zm.12,5.82H569v19.38h-4v-1.86h-25.5v2h-3.9Zm6.66-14.21a21.72,21.72,0,0,1,3.78,6.83l-3.06,1.21a27.26,27.26,0,0,0-3.6-7.09Zm-2.76,17.15v4.32H565v-4.32Zm25.5,11.64v-4.38h-25.5v4.38Zm-4.2-38.57a48.46,48.46,0,0,1-8.58-6.42,45.19,45.19,0,0,1-8.34,6.42Zm7.5,8.94H553.56v9.23h14.76Zm-10.62,7.79a53.26,53.26,0,0,0,3.54-7.2l3.36,1.08a73,73,0,0,1-4.14,7.21Z"/><path d="M586.08,2070.48c3.06-2.58,5.64-7,7.08-10.44l3.3,1.5c-1.68,3.6-4.08,8-7.14,10.86Zm51.72-36.9v3.25H586.56v-3.25h14.16a23.89,23.89,0,0,0-2.34-5.45l3.36-.84H589.26V2024h21.9c-.72-1.44-1.56-2.94-2.34-4.2l3.78-.9a39.9,39.9,0,0,1,2.94,5.1h19.2v3.3H622.86l3.24.78c-1,1.92-2,3.84-3,5.51Zm-7,23.7H609.66a47.07,47.07,0,0,1,8.82,6.24L616,2066a48.61,48.61,0,0,0-9.3-6.9l2-1.8H593.58V2040h37.2Zm-3.9-14.45H597.36v4.43h29.52Zm0,7.13H597.36v4.44h29.52Zm-8.22,20.16c2.58,0,3-.72,3.24-6.24a12.08,12.08,0,0,0,3.54,1.38c-.48,6.66-1.74,8.22-6.42,8.22H607.44c-5.82,0-7.38-1-7.38-5v-8H604v8c0,1.38.54,1.68,3.72,1.68ZM602,2027.29a26.19,26.19,0,0,1,2.76,6.18l-.48.11H619a59.18,59.18,0,0,0,3.06-6.29Zm27.66,32.21a46.55,46.55,0,0,1,8,10.2l-3.36,1.74a49,49,0,0,0-7.8-10.56Z"/><path d="M675.72,2019.67c-.42.42-.78.84-1.2,1.26,5.94,4.44,16.44,8.46,25.2,10.32a10.43,10.43,0,0,0-2.4,3.17,91.5,91.5,0,0,1-11.7-3.84v1.87h-27v-1.87a98.75,98.75,0,0,1-12,4,10.52,10.52,0,0,0-2.34-2.88c11.7-3.06,22.62-7.74,27.9-13.56ZM674,2062.14h24.18v3H674v4.68c0,2.22-.6,3.12-2.28,3.66s-4.74.6-9.66.54a14.6,14.6,0,0,0-1.38-3.18c3.78.12,7.2.12,8.1.06s1.26-.3,1.26-1.14v-4.62H646v-3H670v-3.84H649.14v-3H670v-3.6c-6.36.36-13,.54-19,.6a8.69,8.69,0,0,0-.78-2.7c13.62-.12,30.36-1,39-2.52l2.94,2.4c-4.92.84-11.4,1.5-18.24,2v3.84H695v3H674Zm16.08-16.62H653.82v-9.77h36.24Zm-4-7H657.6v4.33h28.5Zm-2.34-8.75a60.41,60.41,0,0,1-11.76-6.66,56.92,56.92,0,0,1-11.46,6.66Z"/><path d="M717.18,2037.67a9.06,9.06,0,1,1-9.06,9A9.09,9.09,0,0,1,717.18,2037.67Zm0,15.23a6.18,6.18,0,1,0,0-12.36,6.18,6.18,0,1,0,0,12.36Z"/><rect class="cls-2" x="1113" y="1203" width="65" height="220" rx="12"/><path class="cls-1" d="M1157.05,1241.79a27.61,27.61,0,0,0,11.5,8.1,11.65,11.65,0,0,0-2.15,2.55,30.77,30.77,0,0,1-12.8-10.65h-15.95a34.39,34.39,0,0,1-13,11.3,11.43,11.43,0,0,0-2.15-2.55,30.39,30.39,0,0,0,11.6-8.75H1123v-2.85h10v-16.15h-7.7V1220h7.7v-5h3.3v5h18.55v-5h3.35v5h7.65v2.8h-7.65v16.15h9.8v2.85Zm-10,14.5h17.3v2.85H1126.8v-2.85h16.9v-5.6h-10.45v-2.8h10.45v-4.4h3.35v4.4h10.65v2.8h-10.65Zm-10.8-33.5v3.6h18.55v-3.6Zm0,9.8h18.55v-3.65h-18.55Zm0,6.35h18.55v-3.8h-18.55Z"/><path class="cls-1" d="M1141.25,1283.54s0,1.15,0,1.55c-.6,15.85-1.2,21.2-2.6,23a3.71,3.71,0,0,1-2.8,1.45,32.65,32.65,0,0,1-4.45,0,9.25,9.25,0,0,0-.85-3c1.75.15,3.2.15,3.9.15a1.42,1.42,0,0,0,1.45-.65c1-1.2,1.6-6,2.15-19.35h-6.8c-.55,10-2,18.25-6.45,23.65a9.53,9.53,0,0,0-2.55-2.35c5.45-6.45,5.9-17.85,6.1-31.55h-5.2v-3.1h20.1v3.1h-11.65c0,2.45-.1,4.85-.2,7.15Zm-7.9-10.45a33.47,33.47,0,0,0-4.25-7.15l2.9-1.15a31.92,31.92,0,0,1,4.4,7Zm23.85-7.45a15.26,15.26,0,0,1-.85,2.55c2.65,5.45,7.7,11.35,12.45,14a13,13,0,0,0-2.45,2.75c-4.25-2.7-8.5-8-11.4-13.3a32.61,32.61,0,0,1-11,13.6,12.79,12.79,0,0,0-2.35-2.65c5.85-3.6,10.35-10.2,12.5-17.85Zm-8.3,32.45a74,74,0,0,1,13.6,8.25l-2.25,2.9c-2.85-2.6-8.75-6.3-13.4-8.65Zm9.5-4.85a66.22,66.22,0,0,0-8.6-6.85l2.15-2.2a67.46,67.46,0,0,1,8.75,6.55Z"/><path class="cls-1" d="M1148.6,1315.94c-.35.6-.8,1.15-1.2,1.75,4.95,5.5,13.85,10.9,21.4,13.3a16.56,16.56,0,0,0-2.35,2.9,60.7,60.7,0,0,1-21-13.9,48.65,48.65,0,0,1-12.4,10h25.1v3.1h-11.1v7.05h17.75v3H1147.1v12.7H1167v3.1h-43v-3.1h19.55v-12.7h-17.35v-3h17.35v-7.05h-10.9v-2.9a58.72,58.72,0,0,1-8.25,3.85,11.79,11.79,0,0,0-2.25-3c9.35-3.1,18.55-9.1,23.3-16.5Zm-15.25,28.65a42.46,42.46,0,0,1,4.8,9.1l-2.9,1.2a40.78,40.78,0,0,0-4.65-9.2Zm18.55,9.3a71.79,71.79,0,0,0,5.35-9.35l3.15,1.25a101.62,101.62,0,0,1-6,9.2Z"/><path class="cls-1" d="M1160,1377.09a51.83,51.83,0,0,1-12,19.6,49.94,49.94,0,0,0,20.5,10.5,16.79,16.79,0,0,0-2.25,3,50.92,50.92,0,0,1-20.75-11.1c-5.65,5-12.55,8.6-21,11.3a15.53,15.53,0,0,0-2-3.05c8.35-2.45,15.1-5.9,20.6-10.6a57.05,57.05,0,0,1-12.2-19.65h-7.75v-3.25h44.75v3.25Zm-25.75,0a52.13,52.13,0,0,0,11.3,17.3,47.46,47.46,0,0,0,10.7-17.3Zm11.25-3.55a38.13,38.13,0,0,0-3.8-7.8l3.4-1a39,39,0,0,1,4,7.65Z"/><rect class="cls-2" x="1113" y="418" width="65" height="126" rx="12"/><path class="cls-1" d="M1132.7,447.82c1.25,1.6,4.9,6.7,5.7,8.05l-2,2.45c-.7-1.5-2.35-4.4-3.75-6.65V478h-3.15V453.57c-1.5,5.05-3.5,9.9-5.55,12.85a14.83,14.83,0,0,0-1.75-3.1c2.9-4,5.8-11.5,7.2-18h-6.2v-3.15h6.3v-9.65h3.15v9.65h5.45v3.15h-5.45Zm19.1.7a19.47,19.47,0,0,0,.45,2.65c-10.15,2.7-11.6,3.15-12.5,3.75a12.13,12.13,0,0,0-1.1-3.2c.7-.2,1.55-.5,1.55-2.2v-16.7h3.25v6.5h8.35v2.9h-8.35v8.3Zm2.35,5.5-2,3.75h12.65V478h-3.4v-1.75h-17v2h-3.3V457.77h7.9c.55-1.5,1.2-3.25,1.55-4.6Zm7.3,6.5h-17v5.05h17Zm0,13v-5.3h-17v5.3Zm2.25-22.4c1.25,0,1.5-.75,1.65-5.25a9.16,9.16,0,0,0,2.85,1.25c-.3,5.45-1.2,6.95-4.15,6.95h-5.85c-3.65,0-4.55-.95-4.55-4.45V432.87h3.25v6.5h10.2v2.9h-10.2v7.35c0,1.3.25,1.5,1.65,1.5Z"/><path class="cls-1" d="M1167.55,507.87v2.5H1123.4v-2.5h20.25v-3.2H1126.8v-2.3h16.85v-3H1128.2v-2.25h15.45v-3.2H1123.5v-2.5h20.15v-3.05H1128.8V486h14.85v-3.55h3.25V486h14.45v5.4h6.15v2.5h-6.15v5.45H1146.9v3h17.3v2.3h-17.3v3.2Zm-37.75,5h31.75v15.25h-3.25v-1.6H1133v1.7h-3.2Zm3.2,2.4v3.2h25.3v-3.2Zm25.3,8.85v-3.4H1133v3.4Zm-11.4-32.7h11.15v-3.05H1146.9Zm0,5.7h11.15v-3.2H1146.9Z"/><line class="cls-3" x1="601.5" y1="792.5" x2="601.5" y2="783.5"/><path d="M654.88,1110.42a184.63,184.63,0,0,1,48.3.12l-6.78-.91a197.88,197.88,0,0,1,49.89,13.83l-6.09-2.57a163.37,163.37,0,0,1,36,20.58l-5.16-4a134.4,134.4,0,0,1,24,23.93l-4-5.16A126.61,126.61,0,0,1,807.3,1184l-2.57-6.09a135.93,135.93,0,0,1,9.21,34.12l-.91-6.78a158.83,158.83,0,0,1-.18,41.84l.91-6.78a179.57,179.57,0,0,1-12.4,45.44l2.57-6.09a153.58,153.58,0,0,1-19.36,33.5l4-5.16a159,159,0,0,1-28.6,28.43l5.16-4c-16.12,12.4-34.22,22-52.47,30.89-6.24,3-12.54,5.92-18.94,8.62l6.1-2.57a259.07,259.07,0,0,1-30.24,10.7c-10.47,2.94-21.14,5.14-31.84,7.06-6.15,1.1-12.33,2.11-18.5,3.12A28.49,28.49,0,0,0,604,1402a19,19,0,0,0-3,9.48,19.34,19.34,0,0,0,.45,10.17c2,6.17,5.82,12.12,11.72,15.24l6.09,2.57a25.78,25.78,0,0,0,13.56,0c22-3.59,43.89-7.38,64.92-14.81,21.6-7.62,42.52-17.55,62.59-28.55,17.45-9.56,34.17-20.89,48.62-34.62a185.54,185.54,0,0,0,23-27,148,148,0,0,0,13.27-22.82,216.07,216.07,0,0,0,12.28-31.86,219.91,219.91,0,0,0,6.64-34.62,161.11,161.11,0,0,0,.93-29.7,176,176,0,0,0-5.55-34.9,161.1,161.1,0,0,0-11.86-30.26c-4.62-9.11-10.46-17.22-16.72-25.26-10.49-13.45-23.76-24.7-38-34A159.92,159.92,0,0,0,773,1080a247.18,247.18,0,0,0-35.33-13.64,231,231,0,0,0-36.88-7.14,181.78,181.78,0,0,0-30.94-1.16c-5,.23-10,.69-15,1.34a26.21,26.21,0,0,0-25.5,25.5c.3,6.59,2.46,13.43,7.47,18l5.16,4a25.43,25.43,0,0,0,12.87,3.49Z"/><path d="M658.5,1244c15.8.7,31.57,2,47.25,4l-6.78-.91A369.46,369.46,0,0,1,773.62,1265q10.11,3.6,20,7.77l-6.09-2.57q12.62,5.32,24.87,11.43,6.33,3.12,12.57,6.43a83.45,83.45,0,0,1,11.52,6.91l-5.16-4a44.31,44.31,0,0,1,7.68,7.62l-4-5.16A66.39,66.39,0,0,1,843.1,1308l-2.57-6.09c4,9.56,6.81,19.56,9.57,29.52s5.41,20.14,8,30.25c5.24,20.75,10.18,41.56,15.54,62.28,5.24,20.24,10.92,40.36,17.64,60.17q10.5,31,24.07,60.88A453.35,453.35,0,0,0,944,1598.87a26.72,26.72,0,0,0,15.24,11.72,19.34,19.34,0,0,0,10.17.45,19,19,0,0,0,9.48-3c5.45-3.51,10.24-8.74,11.72-15.24s1.11-13.78-2.57-19.65a470.16,470.16,0,0,1-34.38-67l2.57,6.09c-12.59-29.9-22.51-60.79-30.86-92.12-8.65-32.44-16-65.22-24.79-97.62-2.17-8-4.36-15.94-7-23.78-3-8.92-6.38-18-11.19-26.11A72.1,72.1,0,0,0,859.52,1249c-5.73-3.78-12.08-6.74-18.2-9.83-25.89-13.05-53-24.21-81-31.72-29.3-7.86-59.67-11.87-89.91-13.77q-6-.37-11.93-.64c-6.35-.28-13.61,3-18,7.47s-7.75,11.68-7.47,18c.3,6.59,2.46,13.43,7.47,18a27.46,27.46,0,0,0,18,7.47Z"/><path d="M646.24,994.78c-34.48-13.33-71-20.88-107.82-23.52a368.09,368.09,0,0,0-107.11,8.44c-31.58,7.61-63.25,21.67-86.22,45.22-13.73,14.07-23.17,30.76-29.9,49.12-5.63,15.4-8.51,31.64-10.78,47.83a1133.87,1133.87,0,0,0-10.54,117,1094.4,1094.4,0,0,0,1.74,112.82c2.52,37.46,6.5,75.14,13.31,112.08a284.85,284.85,0,0,0,10.85,42.46c5.34,15.28,12,30.51,21.36,43.8,10.53,15,23,27.61,38.51,37.44a130.77,130.77,0,0,0,45.82,17.67c34.09,6.25,68.52,2.44,102.12-5,7.37-1.62,14.69-3.44,22-5.37a26.3,26.3,0,0,0,15.24-11.71c3.2-5.47,4.55-13.53,2.57-19.65-4.29-13.26-17.55-21.47-31.37-17.81a423.86,423.86,0,0,1-50.86,10.56l6.78-.92c-17.5,2.33-35.25,3.12-52.8.85l6.78.91a125.25,125.25,0,0,1-31.65-8.37l6.09,2.57a104.87,104.87,0,0,1-22.53-13.11l5.16,4a107.33,107.33,0,0,1-18.83-19l4,5.16a141.27,141.27,0,0,1-17.44-30.54l2.57,6.09c-11.67-27.81-16.39-57.89-20.38-87.59l.91,6.78a1090.83,1090.83,0,0,1-6.6-225.82q2.38-31.89,6.64-63.59l-.91,6.78c2.68-19.91,6-40,13.75-58.6l-2.57,6.09a107.75,107.75,0,0,1,13.51-23.4l-4,5.17a108.87,108.87,0,0,1,19.26-19.05l-5.16,4A144.37,144.37,0,0,1,419,1036.7l-6.1,2.57c19.41-8.16,40-12.84,60.8-15.69l-6.78.91a352.53,352.53,0,0,1,93.26,0l-6.78-.91A351.1,351.1,0,0,1,632.68,1044c5.81,2.25,14.49.45,19.65-2.57s10.33-9.16,11.72-15.24c1.49-6.53,1.16-13.86-2.57-19.65l-4-5.16a25.45,25.45,0,0,0-11.25-6.56Z"/><path d="M317.05,1204.19a201.37,201.37,0,0,0,42.19,24.36,273,273,0,0,0,28.59,10.7,218.44,218.44,0,0,0,23.67,5.67,254.71,254.71,0,0,0,55.11,4.35,281.13,281.13,0,0,0,30.64-3.1,212.52,212.52,0,0,0,23.81-4.9,207.43,207.43,0,0,0,23.07-7.59A252.17,252.17,0,0,0,571.91,1221q2.67-1.46,5.3-3l-37.45-15.24a20.12,20.12,0,0,1,.54,2.42l-.91-6.78a19.51,19.51,0,0,1,0,4.83l.91-6.77a29.33,29.33,0,0,1-2.09,7.15l2.57-6.09c-2.13,4.93-5.09,9.43-7.62,14.15-2.16,4-3.88,8.32-5.64,12.56-1,2.46-1.93,5-2.71,7.49-2.14,7-3.11,14.12-4,21.35a106.12,106.12,0,0,0-.84,15.43,173.67,173.67,0,0,0,2.2,22.06,134.76,134.76,0,0,0,3.28,15.63c3.44,12.75,8.53,25,14,37,5.27,11.61,11.28,22.86,17.3,34.1l34.88-34.89c-16-9.65-32.16-19.09-49.23-26.7a245.68,245.68,0,0,0-31.66-12.09,168,168,0,0,0-32.64-5.86c-11.11-1-22.16.06-33.13,2s-21.23,6-31.27,10.62c-18.27,8.42-34.38,20.93-50.15,33.25a485.35,485.35,0,0,0-42.77,37.66c-1.65,1.63-3.28,3.27-4.91,4.92a26.24,26.24,0,0,0,0,36.07l5.16,4a25.43,25.43,0,0,0,12.87,3.49l6.78-.91a25.55,25.55,0,0,0,11.25-6.56,488.25,488.25,0,0,1,38.28-35q5.73-4.71,11.6-9.25l-5.16,4c14.45-11.14,29.5-22,46.38-29.14l-6.09,2.57a101.12,101.12,0,0,1,25.3-7l-6.78.91a107.53,107.53,0,0,1,28.28.11l-6.78-.91c14.3,1.94,28.13,6.35,41.4,11.94l-6.09-2.57c14.58,6.18,28.5,13.77,42.15,21.77q5.76,3.39,11.47,6.85l6.09,2.57a19.34,19.34,0,0,0,10.17.45,12.58,12.58,0,0,0,6.44-1.74,19.11,19.11,0,0,0,8.21-5.27l4-5.16,2.57-6.09a19.24,19.24,0,0,0,.46-10.17,19,19,0,0,0-3-9.48c-7.17-13.4-14.33-26.82-20.25-40.83l2.57,6.09c-5.59-13.33-10-27.19-12-41.54l.91,6.77a112.16,112.16,0,0,1-.19-29.23l-.91,6.78a87.43,87.43,0,0,1,5.82-21.85l-2.57,6.09c2.61-6.17,6.32-11.72,9.32-17.69,1.66-3.31,3.08-6.76,4.42-10.21a29,29,0,0,0,1.37-4.57c1.53-7.53,1.89-14.73-.3-22.21a25.43,25.43,0,0,0-6.55-11.25,28.29,28.29,0,0,0-18-7.47,25.32,25.32,0,0,0-12.87,3.48,198.28,198.28,0,0,1-22.77,11.4l6.09-2.57a208.65,208.65,0,0,1-41.54,12.59q-6.08,1.17-12.2,2l6.78-.91a223.24,223.24,0,0,1-46.15,1.37q-6.56-.49-13.06-1.36l6.77.91a220.17,220.17,0,0,1-43.76-10.47c-4-1.41-8-3-11.87-4.59l6.1,2.57a203.32,203.32,0,0,1-34.08-18.33q-4.59-3.06-9-6.4a19,19,0,0,0-9.48-3,19.34,19.34,0,0,0-10.17.45,28.62,28.62,0,0,0-15.24,11.72l-2.57,6.09a25.58,25.58,0,0,0,0,13.56l2.57,6.09a25.55,25.55,0,0,0,9.15,9.15Z"/></svg>