<svg id="Layer_1" data-name="Layer 1" xmlns="http://www.w3.org/2000/svg" viewBox="0 0 1242 2208"><defs><style>.cls-1{fill:#f6eabe;}.cls-2{fill:#999;}</style></defs><rect class="cls-1" width="1242" height="2208"/><path d="M868,472.24C826.7,558,761.6,623.1,682.2,673.91c85.75,40.5,186.59,67.49,298.54,81-11.12,12.7-25.41,34.93-32.56,49.23-119.89-17.47-227.87-50.82-318.39-100.84-96.07,50-208,81.78-323.15,100.84-5.56-12.71-19.85-35.73-30.17-46.85C386,742.2,490.05,715.2,579.77,673.12,510.7,627.86,454.32,570.69,413,503.2l4-1.58H384.45V452.39H822.73L833.85,450Zm-524.83-3.18h-50V310.26H771.92c26.2-39.7,58.75-97.66,77-138.15L901.34,188c-22.23,40.49-50.82,86.54-76.22,122.27H965.65v158.8H914V357.11H343.16ZM918,122.09C763.18,155.44,517.84,175.29,313.79,184c-.8-13.5-7.94-32.55-12.71-45.26C503.55,130,747.3,109.38,880.7,80ZM411.45,188c23.82,33.35,48.43,77,58,106.39l-46.85,15.88c-9.52-29.37-33.35-75.43-56.37-109.57ZM470.2,501.62c38.91,58,93.69,105.6,160.39,144.5,65.9-37.32,120.69-85.75,158.8-144.5Zm146.89-198.5c-4.76-31-22.23-81.78-40.49-119.1l46.84-10.32c19.85,36.52,38.11,86.54,43.67,117.51Z"/><path d="M281,1694.49H266.22v35.15h-4v-38.87H281Z"/><path d="M334.08,1696.17c-9.72,2.76-24.18,4.86-37.26,6.18v9.23c0,10-1.2,24.36-8.64,34.26a13.78,13.78,0,0,0-3.36-2.1c7.32-9.54,8.1-22.74,8.1-32.21v-12.24c13.44-1.26,29-3.54,37.5-6.06Zm-24.24,7.44h3.9v41.51h-3.9Zm19-2.22c1,18.24,3.12,34.37,10.56,41.45a14.87,14.87,0,0,0-2.88,3.24c-8-8.16-10.26-24.48-11.34-44.39Z"/><path d="M343,1742.84h14.82v-35.15h4v38.87H343Z"/><path d="M398.16,1690.17l3.24,1.74c-7.08,7.26-11.28,16.2-11.28,26.76s4.2,19.49,11.28,26.75l-3.24,1.74c-7.32-7.5-11.94-17-11.94-28.49S390.84,1697.67,398.16,1690.17Z"/><path d="M421.92,1692.69a98.85,98.85,0,0,1-6.18,13.56v39.59H411.9v-33.35a61.73,61.73,0,0,1-5.46,7,32.86,32.86,0,0,0-2.28-3.9c5.58-5.87,10.8-14.87,14-24Zm34.14,28c-2.1,1.26-4.44,2.64-6.84,3.78,2,6.06,5.82,11.82,10.38,14.52a11.2,11.2,0,0,0-2.64,2.94c-4.62-3.18-8.46-9.42-10.68-16a27.45,27.45,0,0,1-2.76,1.2c2.58,6.84,1.86,14-1,16.68a6.91,6.91,0,0,1-5.22,1.92c-1.08,0-2.4-.06-3.78-.18a9.31,9.31,0,0,0-1-3.42,38.26,38.26,0,0,0,4.14.24,3.66,3.66,0,0,0,3.12-1.14c1.56-1.38,2.22-5.16,1.44-9.36-5.16,4.92-13.08,9.36-19.8,11.7a15.8,15.8,0,0,0-2.34-2.82c7.62-2.28,16.62-7.14,21.3-12.24a35.76,35.76,0,0,0-1.5-3.48,63.52,63.52,0,0,1-17.22,9.9,16.14,16.14,0,0,0-2.22-2.64c5.94-1.8,13.74-5.76,17.88-9.54a16.39,16.39,0,0,0-2.94-3.18,58.44,58.44,0,0,1-13.56,7.26,11.26,11.26,0,0,0-2.22-2.58,52.7,52.7,0,0,0,15.06-7.55H423.48v-9.36c-1.14,1-2.28,2-3.54,2.94a9.37,9.37,0,0,0-2.52-2.58,44.69,44.69,0,0,0,13.86-16.26l3.84.72c-.6,1.2-1.32,2.34-2,3.54h11.1l.72-.18,2.34,1.68a52.13,52.13,0,0,1-4.8,6.84h13.08v12.66H437.94c-.36.36-.78.66-1.2,1a21,21,0,0,1,5.64,6.84,110,110,0,0,0,10.92-6.42ZM431,1698.81a54.58,54.58,0,0,1-4.2,5.16h11.58a37.88,37.88,0,0,0,3.72-5.16Zm-3.9,14.69h10.5v-6.42h-10.5Zm24.72-6.42H441.18v6.42H451.8Z"/><path d="M519.36,1715.91v4.31H464.88v-4.31Z"/><path d="M532.8,1706.31a51.81,51.81,0,0,1-5.76,6.06,19,19,0,0,0-3.06-2.64,50.31,50.31,0,0,0,13.8-18.54l3.72,1.14a54,54,0,0,1-3.18,6.12H553a49.89,49.89,0,0,0-3.12-5.88l3.66-1.08a49.49,49.49,0,0,1,3.72,7H574.5v3.18H555.18v4.2H572.4v2.88H555.18V1713H572.4v2.88H555.18v4.33h20.28v3.11H536.52v1.86H532.8Zm38.28,22.13c-3.12,4.32-7.86,7.68-13.44,10.26a103.56,103.56,0,0,0,20.7,3.42,15.5,15.5,0,0,0-2.22,3.48,96.13,96.13,0,0,1-23.46-4.86c-8,2.88-17.22,4.38-26,5.22a14.88,14.88,0,0,0-1.5-3.48,107.35,107.35,0,0,0,22.62-3.78,35.1,35.1,0,0,1-11.76-8.28l.12-.06h-8.64v-3.3H568l.66-.24Zm-19.8-26.81H536.52v4.2h14.76Zm0,7.08H536.52V1713h14.76Zm0,7.13H536.52v4.33h14.76Zm-10.5,14.52a37.11,37.11,0,0,0,11.94,6.78,37,37,0,0,0,11.88-6.78Z"/><path d="M636.12,1740.44c0,2.76-.66,4.14-2.64,4.86s-5.76.66-11.22.66a15.26,15.26,0,0,0-1.5-4.08c4.5.18,8.64.12,9.9.06s1.5-.36,1.5-1.5v-34.86h-40V1746h-4v-44.27h16.5a99,99,0,0,0,3.9-10.5l4.86.84c-1.38,3.18-2.94,6.78-4.44,9.66h27.12Zm-32.1-7v4.32h-3.66v-23.93H623.7v19.61Zm0-16v12.42h16v-12.42Z"/><path d="M673,1699.71v10.86l.66-.78c7.32,3.54,16.74,8.93,21.54,12.53l-2.76,3.6c-4.2-3.42-12.48-8.46-19.44-12.12v32.1h-4.2v-46.19H645.54v-4h53v4Z"/><path d="M721,1692c-1,2.94-2.1,6.3-3.18,8.88H728v38.75h-16.8v4.8h-3.66v-43.55h6.66a64.68,64.68,0,0,0,2.58-9.72Zm3.3,12.47H711.18v13.08h13.14Zm0,31.56v-14.88H711.18v14.88Zm33.06-33.17c-1,27.53-1.8,36.71-4.2,39.59a5.6,5.6,0,0,1-4.56,2.28,74.94,74.94,0,0,1-8.82-.12,9.42,9.42,0,0,0-1.32-3.9c3.9.36,7.5.36,8.82.36s1.92-.12,2.52-.9c2-2.1,2.94-11.34,3.72-35.7H737.82a55.33,55.33,0,0,1-5.64,10.68,36.22,36.22,0,0,0-3.36-2.22c4.08-5.33,7.32-13.61,9.18-21.89l3.84.84c-.78,3-1.62,6-2.64,8.88h18.18Zm-12.78,27a106.51,106.51,0,0,0-9.3-13.92l3.06-1.79a102.47,102.47,0,0,1,9.6,13.61Z"/><path d="M818.94,1726.22H794.1v14c0,3-1,4.2-3.06,4.86s-5.94.72-12.3.66a17.27,17.27,0,0,0-1.74-3.9c5.16.12,9.84.06,11.16.06s1.86-.48,1.86-1.74v-13.92H765.18v-3.9H790v-10.19H769.14v-3.84H790v-9.6c-6.66.66-13.56,1.14-19.8,1.44a16.18,16.18,0,0,0-1-3.54c14.16-.72,31.8-2.28,40.74-5.16l2.94,3.24a123.25,123.25,0,0,1-18.78,3.6v10h21.48v3.84H794.1v10.19h24.84Z"/><path d="M825.84,1747.16l-3.24-1.74c7.08-7.26,11.28-16.2,11.28-26.75s-4.2-19.5-11.28-26.76l3.24-1.74c7.32,7.5,11.94,17,11.94,28.5S833.16,1739.66,825.84,1747.16Z"/><path d="M875.16,1704.63a67.9,67.9,0,0,1-7.2,12.24v28.85h-4v-24a41.57,41.57,0,0,1-7.26,6.41,17,17,0,0,0-2-3.48c7-5,12.3-12.23,16.14-20H856v-3.84h16.44a65.25,65.25,0,0,0,3.3-9.42l4.08,1c-.9,2.82-1.86,5.64-3,8.4H908.1v3.84Zm32.94,36.23v3.72H872v-3.72h16v-17.52H874.32v-3.71H888v-11.82h4v11.82h13.8v3.71H892v17.52Z"/><path d="M968.76,1739.18v4H915.3v-4h22.62v-46.85h4.14v18.54h22.62v4H942.06v24.3Z"/><path d="M980.88,1727c4.68-2,7.26-4.86,7.56-9.17a4,4,0,0,1-1.14.11c-2.34,0-4.26-1.31-4.26-4.07a4,4,0,0,1,4.32-4.08c3.18,0,4.86,2.58,4.86,6.66,0,6.41-4,11.21-10.08,13.43Z"/><path d="M281,1766.49H266.22v35.15h-4v-38.87H281Z"/><path d="M338.76,1793.42h-9.24v18.84c0,2.64-.66,3.78-2.4,4.5s-5,.72-10,.72a21,21,0,0,0-1.26-3.9c3.72.12,7.2.12,8.28.06s1.32-.36,1.32-1.44v-18.78H298.62c-.66,8.46-3.06,18.12-11,24.78a12.94,12.94,0,0,0-2.94-2.76c7.32-6.12,9.42-14.46,10-22h-9.3v-3.71h9.48v-19.26h12.3a66.93,66.93,0,0,0,2.64-7.26l4.68.66c-1,2.28-2.16,4.68-3.24,6.6h18.3v19.26h9.24Zm-13.32-3.71v-15.54H298.8v15.54Zm-17.64,6.65a51.54,51.54,0,0,1,10.68,9.06l-2.82,2.46a50.94,50.94,0,0,0-10.5-9.3Zm.36-19.86a47,47,0,0,1,10.14,8.71l-2.82,2.39a48,48,0,0,0-10-9Z"/><path d="M343,1814.84h14.82v-35.15h4v38.87H343Z"/><path d="M398.16,1762.17l3.24,1.74c-7.08,7.26-11.28,16.2-11.28,26.76s4.2,19.49,11.28,26.75l-3.24,1.74c-7.32-7.5-11.94-17-11.94-28.49S390.84,1769.67,398.16,1762.17Z"/><path d="M421.92,1764.69a98.85,98.85,0,0,1-6.18,13.56v39.59H411.9v-33.35a61.73,61.73,0,0,1-5.46,7,32.86,32.86,0,0,0-2.28-3.9c5.58-5.87,10.8-14.87,14-24Zm34.14,28c-2.1,1.26-4.44,2.64-6.84,3.78,2,6.06,5.82,11.82,10.38,14.52a11.2,11.2,0,0,0-2.64,2.94c-4.62-3.18-8.46-9.42-10.68-16a27.45,27.45,0,0,1-2.76,1.2c2.58,6.84,1.86,14-1,16.68a6.91,6.91,0,0,1-5.22,1.92c-1.08,0-2.4-.06-3.78-.18a9.31,9.31,0,0,0-1-3.42,38.26,38.26,0,0,0,4.14.24,3.66,3.66,0,0,0,3.12-1.14c1.56-1.38,2.22-5.16,1.44-9.36-5.16,4.92-13.08,9.36-19.8,11.7a15.8,15.8,0,0,0-2.34-2.82c7.62-2.28,16.62-7.14,21.3-12.24a35.76,35.76,0,0,0-1.5-3.48,63.52,63.52,0,0,1-17.22,9.9,16.14,16.14,0,0,0-2.22-2.64c5.94-1.8,13.74-5.76,17.88-9.54a16.39,16.39,0,0,0-2.94-3.18,58.44,58.44,0,0,1-13.56,7.26,11.26,11.26,0,0,0-2.22-2.58,52.7,52.7,0,0,0,15.06-7.55H423.48v-9.36c-1.14,1-2.28,2-3.54,2.94a9.37,9.37,0,0,0-2.52-2.58,44.69,44.69,0,0,0,13.86-16.26l3.84.72c-.6,1.2-1.32,2.34-2,3.54h11.1l.72-.18,2.34,1.68a52.13,52.13,0,0,1-4.8,6.84h13.08v12.66H437.94c-.36.36-.78.66-1.2,1a21,21,0,0,1,5.64,6.84,110,110,0,0,0,10.92-6.42ZM431,1770.81a54.58,54.58,0,0,1-4.2,5.16h11.58a37.88,37.88,0,0,0,3.72-5.16Zm-3.9,14.69h10.5v-6.42h-10.5Zm24.72-6.42H441.18v6.42H451.8Z"/><path d="M519.36,1787.91v4.31H464.88v-4.31Z"/><path d="M540,1764.45a99.35,99.35,0,0,1-4.62,12.42V1818h-3.84v-33.6a56.4,56.4,0,0,1-5,7.56,24.14,24.14,0,0,0-2.22-3.9c5-6,9.36-15.29,12.12-24.65Zm.54,6.84h3.54v36.53h-3.54Zm15.84,31.37a43.11,43.11,0,0,1-8.76,12.12,25.39,25.39,0,0,0-3.12-2,34.4,34.4,0,0,0,8.4-11.1ZM574.5,1772a32.75,32.75,0,0,1-8.94,10.68,36.62,36.62,0,0,0,13.56,5.57,22.21,22.21,0,0,0-2.22,3.24,41.33,41.33,0,0,1-14.34-6.59,58.21,58.21,0,0,1-14.58,6.72,17.4,17.4,0,0,0-2.34-3.3,50.1,50.1,0,0,0,14-5.83,31.9,31.9,0,0,1-6.06-7.37,32.58,32.58,0,0,1-5.22,5.16,19.18,19.18,0,0,0-2.64-2.88,35.23,35.23,0,0,0,11.1-14l3.6,1a34.51,34.51,0,0,1-2.28,4.44h20.1V1772Zm-10.32,27.11v18.78h-3.72v-18.78h-13.2v-3.54h13.2v-6.36h3.72v6.36H577.8v3.54Zm-8.34-26.75a27,27,0,0,0,6.72,8.16,28.79,28.79,0,0,0,7.68-8.52h-14.1Zm15.06,29.21a49.87,49.87,0,0,1,7.92,10.56l-3.12,1.74a51.92,51.92,0,0,0-7.74-10.74Z"/><path d="M638.28,1784.13s-.06,1.32-.06,1.91c-.66,20.88-1.2,27.9-2.82,30a4.18,4.18,0,0,1-3.42,1.8,37,37,0,0,1-5.82,0,9.45,9.45,0,0,0-1-3.54c.72.06,1.38.12,2,.12a26.43,26.43,0,0,0-1-2.7c-8.52.9-17.16,1.68-23.28,2.28l-.42-3.48c3.42-.24,7.92-.6,12.84-1V1804H605.1v-11.64h10.2v-3.59h3.24v3.59h10V1804h-10v5.28l6.12-.48c-.6-1.08-1.26-2.16-1.92-3.12l2.76-1a33.39,33.39,0,0,1,4.68,8.64l-3,1.14c1.38.06,2.58.06,3.18.06a1.79,1.79,0,0,0,1.8-.78c1.14-1.5,1.8-7.92,2.28-26.21h-26a41,41,0,0,1-5.94,6.35,25,25,0,0,0-2.94-2.34c.06,1.33.06,2.64.06,4,0,8.76-.6,17.22-2.88,20.34a4.4,4.4,0,0,1-3.24,1.86,29.84,29.84,0,0,1-6.24.24,7.66,7.66,0,0,0-1.08-3.78,31.33,31.33,0,0,0,5.88,0,2.07,2.07,0,0,0,1.74-1c1.56-1.92,2-9.9,2-17.7,0-1.08,0-2.16-.06-3.24a47.56,47.56,0,0,1-9.06,10.86A17.87,17.87,0,0,0,584,1800a40.93,40.93,0,0,0,11.28-13.85,37.66,37.66,0,0,0-2.1-8.52,75.09,75.09,0,0,1-6.3,6,16,16,0,0,0-2.82-2.46,55.44,55.44,0,0,0,7.44-7.14,33,33,0,0,0-6.24-8.1l2.76-2.1a35.79,35.79,0,0,1,6,7.14,44.77,44.77,0,0,0,4.74-7.38l3.42,1.74a65.36,65.36,0,0,1-6.24,9.18c2.52,5.34,3.3,11,3.54,16.85a34.12,34.12,0,0,0,9.42-11.51h-5.1v-14H637v14H613a41.65,41.65,0,0,1-2.28,4.26Zm-31-7.44h6.42v-7.62h-6.42Zm8,24.47v-5.94h-7v5.94Zm1.5-24.47h6.72v-7.62H616.8Zm1.74,18.53v5.94h6.66v-5.94Zm8-18.53h6.84v-7.62h-6.84Z"/><path d="M675.84,1782.15c5.52,10.31,15.06,20.75,24.06,25.79a16.83,16.83,0,0,0-3.06,3.42c-8.34-5.22-16.92-14.94-22.8-25.07V1818H669.9v-31.68c-5.76,10.38-14.28,20-22.92,25.14a22.2,22.2,0,0,0-2.94-3.3c9.24-5,18.54-15.47,24-26H646.26v-4H669.9v-14.76H674v14.76h23.88v4Z"/><path d="M758.76,1793.42h-9.24v18.84c0,2.64-.66,3.78-2.4,4.5s-5,.72-10,.72a21,21,0,0,0-1.26-3.9c3.72.12,7.2.12,8.28.06s1.32-.36,1.32-1.44v-18.78H718.62c-.66,8.46-3.06,18.12-11,24.78a12.94,12.94,0,0,0-2.94-2.76c7.32-6.12,9.42-14.46,10-22h-9.3v-3.71h9.48v-19.26h12.3a66.93,66.93,0,0,0,2.64-7.26l4.68.66c-1,2.28-2.16,4.68-3.24,6.6h18.3v19.26h9.24Zm-13.32-3.71v-15.54H718.8v15.54Zm-17.64,6.65a51.54,51.54,0,0,1,10.68,9.06l-2.82,2.46a50.94,50.94,0,0,0-10.5-9.3Zm.36-19.86a47,47,0,0,1,10.14,8.71l-2.82,2.39a48,48,0,0,0-10-9Z"/><path d="M765.84,1819.16l-3.24-1.74c7.08-7.26,11.28-16.2,11.28-26.75s-4.2-19.5-11.28-26.76l3.24-1.74c7.32,7.5,11.94,17,11.94,28.5S773.16,1811.66,765.84,1819.16Z"/><path d="M815.16,1776.63a67.9,67.9,0,0,1-7.2,12.24v28.85h-4v-24a41.57,41.57,0,0,1-7.26,6.41,17,17,0,0,0-2-3.48c7-5,12.3-12.23,16.14-20H796v-3.84h16.44a65.25,65.25,0,0,0,3.3-9.42l4.08,1c-.9,2.82-1.86,5.64-3,8.4H848.1v3.84Zm32.94,36.23v3.72H812v-3.72h16v-17.52H814.32v-3.71H828v-11.82h4v11.82h13.8v3.71H832v17.52Z"/><path d="M905.82,1774.05v27.77h-4.08v-3.48H883.92v19.56h-4.14v-19.56H862v3.78h-4v-28.07h21.72v-10.74h4.14v10.74Zm-26,20.33V1778H862v16.43Zm22,0V1778H883.92v16.43Z"/><path d="M921.6,1786.22V1818h-3.9V1766h21.42v20.27Zm0-17.15v5.4h13.74v-5.4Zm13.74,14v-5.64H921.6v5.64Zm-.84,29.27v3.06h-3.66v-24.53H953v21.47Zm0-18.36v5.88h14.76V1794Zm14.76,15.18V1803H934.5v6.18Zm17.4,3.3c0,2.7-.66,4-2.52,4.74s-5,.72-10,.72a13.68,13.68,0,0,0-1.38-4.08c3.78.18,7.44.12,8.46.06s1.44-.36,1.44-1.44v-26.21h-18V1766h22Zm-18.12-43.43v5.4H962.7v-5.4Zm14.16,14.1v-5.7H948.54v5.7Z"/><path d="M980.88,1799c4.68-2,7.26-4.86,7.56-9.17a4,4,0,0,1-1.14.11c-2.34,0-4.26-1.31-4.26-4.07a4,4,0,0,1,4.32-4.08c3.18,0,4.86,2.58,4.86,6.66,0,6.41-4,11.21-10.08,13.43Z"/><path d="M281,1838.49H266.22v35.15h-4v-38.87H281Z"/><path d="M333.06,1840.83c-3.48,13.74-9.9,24.3-18.06,32.27a57.36,57.36,0,0,0,24.78,12.78,15.56,15.56,0,0,0-2.64,3.54,58.72,58.72,0,0,1-25.2-13.56,72.49,72.49,0,0,1-25,13.62,10.78,10.78,0,0,0-2.46-3.54,70.44,70.44,0,0,0,24.6-12.84c-7.38-7.74-12.66-17.69-16.32-29.33H288v-4h41.7l.78-.24Zm-36.3,2.94c3.36,10.38,8.4,19.44,15.36,26.63a59.85,59.85,0,0,0,16.08-26.63Z"/><path d="M343,1886.84h14.82v-35.15h4v38.87H343Z"/><path d="M398.16,1834.17l3.24,1.74c-7.08,7.26-11.28,16.2-11.28,26.76s4.2,19.49,11.28,26.75l-3.24,1.74c-7.32-7.5-11.94-17-11.94-28.49S390.84,1841.67,398.16,1834.17Z"/><path d="M421.92,1836.69a98.85,98.85,0,0,1-6.18,13.56v39.59H411.9v-33.35a61.73,61.73,0,0,1-5.46,7,32.86,32.86,0,0,0-2.28-3.9c5.58-5.87,10.8-14.87,14-24Zm34.14,28c-2.1,1.26-4.44,2.64-6.84,3.78,2,6.06,5.82,11.82,10.38,14.52a11.2,11.2,0,0,0-2.64,2.94c-4.62-3.18-8.46-9.42-10.68-16a27.45,27.45,0,0,1-2.76,1.2c2.58,6.84,1.86,14-1,16.68a6.91,6.91,0,0,1-5.22,1.92c-1.08,0-2.4-.06-3.78-.18a9.31,9.31,0,0,0-1-3.42,38.26,38.26,0,0,0,4.14.24,3.66,3.66,0,0,0,3.12-1.14c1.56-1.38,2.22-5.16,1.44-9.36-5.16,4.92-13.08,9.36-19.8,11.7a15.8,15.8,0,0,0-2.34-2.82c7.62-2.28,16.62-7.14,21.3-12.24a35.76,35.76,0,0,0-1.5-3.48,63.52,63.52,0,0,1-17.22,9.9,16.14,16.14,0,0,0-2.22-2.64c5.94-1.8,13.74-5.76,17.88-9.54a16.39,16.39,0,0,0-2.94-3.18,58.44,58.44,0,0,1-13.56,7.26,11.26,11.26,0,0,0-2.22-2.58,52.7,52.7,0,0,0,15.06-7.55H423.48v-9.36c-1.14,1-2.28,2-3.54,2.94a9.37,9.37,0,0,0-2.52-2.58,44.69,44.69,0,0,0,13.86-16.26l3.84.72c-.6,1.2-1.32,2.34-2,3.54h11.1l.72-.18,2.34,1.68a52.13,52.13,0,0,1-4.8,6.84h13.08v12.66H437.94c-.36.36-.78.66-1.2,1a21,21,0,0,1,5.64,6.84,110,110,0,0,0,10.92-6.42ZM431,1842.81a54.58,54.58,0,0,1-4.2,5.16h11.58a37.88,37.88,0,0,0,3.72-5.16Zm-3.9,14.69h10.5v-6.42h-10.5Zm24.72-6.42H441.18v6.42H451.8Z"/><path d="M519.36,1859.91v4.31H464.88v-4.31Z"/><path d="M532.8,1850.31a51.81,51.81,0,0,1-5.76,6.06,19,19,0,0,0-3.06-2.64,50.31,50.31,0,0,0,13.8-18.54l3.72,1.14a54,54,0,0,1-3.18,6.12H553a49.89,49.89,0,0,0-3.12-5.88l3.66-1.08a49.49,49.49,0,0,1,3.72,7H574.5v3.18H555.18v4.2H572.4v2.88H555.18V1857H572.4v2.88H555.18v4.33h20.28v3.11H536.52v1.86H532.8Zm38.28,22.13c-3.12,4.32-7.86,7.68-13.44,10.26a103.56,103.56,0,0,0,20.7,3.42,15.5,15.5,0,0,0-2.22,3.48,96.13,96.13,0,0,1-23.46-4.86c-8,2.88-17.22,4.38-26,5.22a14.88,14.88,0,0,0-1.5-3.48,107.35,107.35,0,0,0,22.62-3.78,35.1,35.1,0,0,1-11.76-8.28l.12-.06h-8.64v-3.3H568l.66-.24Zm-19.8-26.81H536.52v4.2h14.76Zm0,7.08H536.52V1857h14.76Zm0,7.13H536.52v4.33h14.76Zm-10.5,14.52a37.11,37.11,0,0,0,11.94,6.78,37,37,0,0,0,11.88-6.78Z"/><path d="M636.12,1884.44c0,2.76-.66,4.14-2.64,4.86s-5.76.66-11.22.66a15.26,15.26,0,0,0-1.5-4.08c4.5.18,8.64.12,9.9.06s1.5-.36,1.5-1.5v-34.86h-40V1890h-4v-44.27h16.5a99,99,0,0,0,3.9-10.5l4.86.84c-1.38,3.18-2.94,6.78-4.44,9.66h27.12Zm-32.1-7v4.32h-3.66v-23.93H623.7v19.61Zm0-16v12.42h16v-12.42Z"/><path d="M698.76,1883.18v4H645.3v-4h22.62v-46.85h4.14v18.54h22.62v4H672.06v24.3Z"/><path d="M721,1836c-1,2.94-2.1,6.3-3.18,8.88H728v38.75h-16.8v4.8h-3.66v-43.55h6.66a64.68,64.68,0,0,0,2.58-9.72Zm3.3,12.47H711.18v13.08h13.14Zm0,31.56v-14.88H711.18v14.88Zm33.06-33.17c-1,27.53-1.8,36.71-4.2,39.59a5.6,5.6,0,0,1-4.56,2.28,74.94,74.94,0,0,1-8.82-.12,9.42,9.42,0,0,0-1.32-3.9c3.9.36,7.5.36,8.82.36s1.92-.12,2.52-.9c2-2.1,2.94-11.34,3.72-35.7H737.82a55.33,55.33,0,0,1-5.64,10.68,36.22,36.22,0,0,0-3.36-2.22c4.08-5.33,7.32-13.61,9.18-21.89l3.84.84c-.78,3-1.62,6-2.64,8.88h18.18Zm-12.78,27a106.51,106.51,0,0,0-9.3-13.92l3.06-1.79a102.47,102.47,0,0,1,9.6,13.61Z"/><path d="M818.94,1870.22H794.1v14c0,3-1,4.2-3.06,4.86s-5.94.72-12.3.66a17.27,17.27,0,0,0-1.74-3.9c5.16.12,9.84.06,11.16.06s1.86-.48,1.86-1.74v-13.92H765.18v-3.9H790v-10.19H769.14v-3.84H790v-9.6c-6.66.66-13.56,1.14-19.8,1.44a16.18,16.18,0,0,0-1-3.54c14.16-.72,31.8-2.28,40.74-5.16l2.94,3.24a123.25,123.25,0,0,1-18.78,3.6v10h21.48v3.84H794.1v10.19h24.84Z"/><path d="M825.84,1891.16l-3.24-1.74c7.08-7.26,11.28-16.2,11.28-26.75s-4.2-19.5-11.28-26.76l3.24-1.74c7.32,7.5,11.94,17,11.94,28.5S833.16,1883.66,825.84,1891.16Z"/><path d="M875.16,1848.63a67.9,67.9,0,0,1-7.2,12.24v28.85h-4v-24a41.57,41.57,0,0,1-7.26,6.41,17,17,0,0,0-2-3.48c7-5,12.3-12.23,16.14-20H856v-3.84h16.44a65.25,65.25,0,0,0,3.3-9.42l4.08,1c-.9,2.82-1.86,5.64-3,8.4H908.1v3.84Zm32.94,36.23v3.72H872v-3.72h16v-17.52H874.32v-3.71H888v-11.82h4v11.82h13.8v3.71H892v17.52Z"/><path d="M943,1843.71v10.86l.66-.78c7.32,3.54,16.74,8.93,21.54,12.53l-2.76,3.6c-4.2-3.42-12.48-8.46-19.44-12.12v32.1h-4.2v-46.19H915.54v-4h53v4Z"/><path d="M980.88,1871c4.68-2,7.26-4.86,7.56-9.17a4,4,0,0,1-1.14.11c-2.34,0-4.26-1.31-4.26-4.07a4,4,0,0,1,4.32-4.08c3.18,0,4.86,2.58,4.86,6.66,0,6.41-4,11.21-10.08,13.43Z"/><path d="M331.92,1908.69a98.85,98.85,0,0,1-6.18,13.56v39.59H321.9v-33.35a61.73,61.73,0,0,1-5.46,7,32.86,32.86,0,0,0-2.28-3.9c5.58-5.87,10.8-14.87,14-24Zm34.14,28c-2.1,1.26-4.44,2.64-6.84,3.78,2,6.06,5.82,11.82,10.38,14.52a11.2,11.2,0,0,0-2.64,2.94c-4.62-3.18-8.46-9.42-10.68-16a27.45,27.45,0,0,1-2.76,1.2c2.58,6.84,1.86,14-1,16.68a6.91,6.91,0,0,1-5.22,1.92c-1.08,0-2.4-.06-3.78-.18a9.31,9.31,0,0,0-1-3.42,38.26,38.26,0,0,0,4.14.24,3.66,3.66,0,0,0,3.12-1.14c1.56-1.38,2.22-5.16,1.44-9.36-5.16,4.92-13.08,9.36-19.8,11.7a15.8,15.8,0,0,0-2.34-2.82c7.62-2.28,16.62-7.14,21.3-12.24a35.76,35.76,0,0,0-1.5-3.48,63.52,63.52,0,0,1-17.22,9.9,16.14,16.14,0,0,0-2.22-2.64c5.94-1.8,13.74-5.76,17.88-9.54a16.39,16.39,0,0,0-2.94-3.18,58.44,58.44,0,0,1-13.56,7.26,11.26,11.26,0,0,0-2.22-2.58,52.7,52.7,0,0,0,15.06-7.55H333.48v-9.36c-1.14,1-2.28,2-3.54,2.94a9.37,9.37,0,0,0-2.52-2.58,44.69,44.69,0,0,0,13.86-16.26l3.84.72c-.6,1.2-1.32,2.34-2,3.54h11.1l.72-.18,2.34,1.68a52.13,52.13,0,0,1-4.8,6.84h13.08v12.66H347.94c-.36.36-.78.66-1.2,1a21,21,0,0,1,5.64,6.84,110,110,0,0,0,10.92-6.42ZM341,1914.81a54.58,54.58,0,0,1-4.2,5.16h11.58a37.88,37.88,0,0,0,3.72-5.16Zm-3.9,14.69h10.5v-6.42h-10.5Zm24.72-6.42H351.18v6.42H361.8Z"/><path d="M429.36,1931.91v4.31H374.88v-4.31Z"/><path d="M464.28,1907.55c-.06,2.1-.12,5.1-.42,8.64.9,7,4.56,32.51,25.74,42a12.63,12.63,0,0,0-2.88,3.36c-15.42-7.26-21.72-22.74-24.6-34-2.64,12.23-8.94,26.33-24.06,34.19a13.77,13.77,0,0,0-3.12-3.06c25-12.48,24.78-42.11,25-51.11Z"/><path d="M514,1937.42c-2.52.79-5,1.56-7.44,2.28v17.58c0,2.28-.54,3.3-1.92,4s-3.48.78-6.9.72a15.61,15.61,0,0,0-1.26-3.66c2.4.06,4.56.06,5.16,0s1-.24,1-1V1940.9l-7.08,2.16-1.14-3.89c2.28-.54,5.1-1.39,8.22-2.29v-13.55H495.3v-3.78h7.38v-12.18h3.9v12.18h6.36v3.78h-6.36v12.42l6.9-2.11Zm27.24,19.2c3.72,0,4.32-1.8,4.86-9a11.1,11.1,0,0,0,3.78,1.62c-.66,8.34-2,11.16-8.58,11.16h-16c-6.84,0-8.94-1.56-8.94-8v-41.93h30.06v31.25H542.4v-4h-22v14.76c0,3.3.84,4.14,5.1,4.14Zm-20.82-42.17v19.49h9.06v-19.49Zm22,0h-9.24v19.49h9.24Z"/><path d="M608.76,1937.42h-9.24v18.84c0,2.64-.66,3.78-2.4,4.5s-5,.72-10,.72a21,21,0,0,0-1.26-3.9c3.72.12,7.2.12,8.28.06s1.32-.36,1.32-1.44v-18.78H568.62c-.66,8.46-3.06,18.12-11,24.78a12.94,12.94,0,0,0-2.94-2.76c7.32-6.12,9.42-14.46,10-22h-9.3v-3.71h9.48v-19.26h12.3a66.93,66.93,0,0,0,2.64-7.26l4.68.66c-1,2.28-2.16,4.68-3.24,6.6h18.3v19.26h9.24Zm-13.32-3.71v-15.54H568.8v15.54Zm-17.64,6.65a51.54,51.54,0,0,1,10.68,9.06l-2.82,2.46a50.94,50.94,0,0,0-10.5-9.3Zm.36-19.86a47,47,0,0,1,10.14,8.71l-2.82,2.39a48,48,0,0,0-10-9Z"/><path d="M655.26,1932.92a42.2,42.2,0,0,1-10.08,15.36c6.24,4.86,14.28,8,24.06,9.66a17,17,0,0,0-2.46,3.66c-10-1.92-18.18-5.4-24.6-10.68-6.6,5.28-14.94,8.76-24.78,11.28a17.47,17.47,0,0,0-2.4-3.66c9.78-2.1,17.94-5.28,24.3-10.26a43.58,43.58,0,0,1-9.9-15l3.6-1.15a36.86,36.86,0,0,0,9.24,13.62,36.34,36.34,0,0,0,9-14Zm12.42-13.31H616.26v-3.9H641.4a43,43,0,0,0-4.08-7.56l3.66-1.32a38.5,38.5,0,0,1,4.44,7.68l-3,1.2h25.26Zm-32.46,3.6a68.25,68.25,0,0,1-15.6,13.85,31.16,31.16,0,0,0-3.06-3,54.88,54.88,0,0,0,14.88-12.35Zm17.16-1.5c5.52,3.71,12.24,9.17,15.48,13l-3.3,2.58c-3-3.84-9.66-9.47-15.24-13.31Z"/><path d="M680.94,1946.12a91.2,91.2,0,0,1-3.18,14.76,27.81,27.81,0,0,0-3.36-1.26c1.44-3.72,2.4-9.12,3-14.1Zm11.7-16.32a76.55,76.55,0,0,1,4.08,12.42l-3.36,1.08c-.18-1-.48-2.16-.84-3.54-13.5,2-15.3,2.46-16.38,3-.24-.78-.9-2.76-1.32-3.72,1.2-.29,2.64-1.79,4.38-4a67,67,0,0,0,5.34-7.08c-6.6.72-8,1-8.82,1.45-.24-.78-.78-2.7-1.2-3.72,1-.24,2-1.44,3.3-3.31a84.94,84.94,0,0,0,8.28-15.23l3.72,1.56a100.23,100.23,0,0,1-9.72,16.32l6.78-.61c1.56-2.46,3.12-5.21,4.44-7.85l3.48,2a114,114,0,0,1-13.68,19.43l10.5-1.44c-.6-2-1.38-4.08-2-5.93Zm-5.58,15.6a110.11,110.11,0,0,1,1.68,13.08l-3.3.66a124.48,124.48,0,0,0-1.56-13.2Zm5.94-1.5a85.75,85.75,0,0,1,3.48,11.1l-3.18,1.08a73.75,73.75,0,0,0-3.24-11.22Zm22.2-35.33c-.24.54-.48,1.14-.72,1.68,3.78,6.9,10.32,14.21,16.32,17.82a14.41,14.41,0,0,0-3.06,3.23c-5.28-3.72-11.1-10.43-15.06-17.33a51.33,51.33,0,0,1-9.48,12.9h19.2v3.71H702.78v-3.29a46.37,46.37,0,0,1-5.52,4.67,18,18,0,0,0-2.88-2.75,46.78,46.78,0,0,0,17-21.66Zm-15.12,29.15h25.44V1962h-4v-3.12H704v3.3h-3.9Zm3.9,3.6v14H721.5v-14Z"/><path d="M784.5,1939.64c-.84,13.38-1.74,18.66-3.6,20.58a6.21,6.21,0,0,1-4.44,1.68c-1.8.06-5.52.06-9.24-.18a10.1,10.1,0,0,0-1.32-3.84c3.84.3,7.62.36,9,.36s1.92-.06,2.52-.6c1.26-1.26,2.16-5.64,2.94-16.32h-19c-2.7,9.54-8.58,16.92-23.94,20.7a12.45,12.45,0,0,0-2.22-3.54c13.92-3.12,19.38-9.3,21.84-17.16H736.5v-3.54H758c.42-2,.72-4.14,1-6.29H742v-21.3h40.32v21.3H763.2c-.3,2.15-.6,4.26-1,6.29h22.44Zm-38.64-12H778.2V1914H745.86Z"/><path d="M849.36,1931.91v4.31H794.88v-4.31Z"/><path d="M884.28,1907.55c-.06,2.1-.12,5.1-.42,8.64.9,7,4.56,32.51,25.74,42a12.63,12.63,0,0,0-2.88,3.36c-15.42-7.26-21.72-22.74-24.6-34-2.64,12.23-8.94,26.33-24.06,34.19a13.77,13.77,0,0,0-3.12-3.06c25-12.48,24.78-42.11,25-51.11Z"/><path d="M927.18,1925.67a9.06,9.06,0,1,1-9.06,9A9.09,9.09,0,0,1,927.18,1925.67Zm0,15.23a6.18,6.18,0,1,0,0-12.36,6.18,6.18,0,1,0,0,12.36Z"/><path d="M450.24,1980.51a13.18,13.18,0,0,1-.84,1.08c5.7,5.64,16.2,10.62,25.56,12.83a12.89,12.89,0,0,0-2.52,3.12,71.7,71.7,0,0,1-14.88-6.17l-.06,1.92H436.74l.06-1.68a88.84,88.84,0,0,1-14.88,6.23,32.14,32.14,0,0,0-2.28-3c10.8-3,21.48-8.28,27.12-15.6Zm-23.16,16H467v14.88h-39.9Zm3.42,12.06h14.7v-9.23H430.5Zm.12,5.82H464v19.38h-4v-1.86h-25.5v2h-3.9Zm6.66-14.21a21.72,21.72,0,0,1,3.78,6.83l-3.06,1.21a27.26,27.26,0,0,0-3.6-7.09Zm-2.76,17.15v4.32H460v-4.32Zm25.5,11.64v-4.38h-25.5v4.38Zm-4.2-38.57a48.46,48.46,0,0,1-8.58-6.42,45.19,45.19,0,0,1-8.34,6.42Zm7.5,8.94H448.56v9.23h14.76Zm-10.62,7.79a53.26,53.26,0,0,0,3.54-7.2l3.36,1.08a73,73,0,0,1-4.14,7.21Z"/><path d="M481.08,2030.48c3.06-2.58,5.64-7,7.08-10.44l3.3,1.5c-1.68,3.6-4.08,8-7.14,10.86Zm51.72-36.9v3.25H481.56v-3.25h14.16a23.89,23.89,0,0,0-2.34-5.45l3.36-.84H484.26V1984h21.9c-.72-1.44-1.56-2.94-2.34-4.2l3.78-.9a39.9,39.9,0,0,1,2.94,5.1h19.2v3.3H517.86l3.24.78c-1,1.92-2,3.84-3,5.51Zm-7,23.7H504.66a47.07,47.07,0,0,1,8.82,6.24L511,2026a48.61,48.61,0,0,0-9.3-6.9l2-1.8H488.58V2000h37.2Zm-3.9-14.45H492.36v4.43h29.52Zm0,7.13H492.36v4.44h29.52Zm-8.22,20.16c2.58,0,3-.72,3.24-6.24a12.08,12.08,0,0,0,3.54,1.38c-.48,6.66-1.74,8.22-6.42,8.22H502.44c-5.82,0-7.38-1-7.38-5v-8H499v8c0,1.38.54,1.68,3.72,1.68ZM497,1987.29a26.19,26.19,0,0,1,2.76,6.18l-.48.11H514a59.18,59.18,0,0,0,3.06-6.29Zm27.66,32.21a46.55,46.55,0,0,1,8,10.2l-3.36,1.74a49,49,0,0,0-7.8-10.56Z"/><path d="M550.92,2011.1v18.12c0,2.34-.54,3.42-1.92,4.08s-3.6.78-7.38.72a17.73,17.73,0,0,0-1.2-3.72c2.7.12,5,.12,5.7.06s1.08-.24,1.08-1.14v-16.86l-7.2,2.34-1.08-3.9c2.28-.59,5.16-1.5,8.28-2.46v-13.07h-7.68v-3.72h7.68v-12.18h3.72v12.18h6.6v3.72h-6.6v11.87l6.42-2,.48,3.73Zm38.88-1.74a33.57,33.57,0,0,1-11.1,15.36,44.75,44.75,0,0,0,15.9,5.94,14.35,14.35,0,0,0-2.4,3.48,45.06,45.06,0,0,1-16.74-7.14,54.23,54.23,0,0,1-17.46,6.9,13,13,0,0,0-1.86-3.48,52.88,52.88,0,0,0,16.32-5.82,37.41,37.41,0,0,1-8.52-11.93l2.46-.79h-4.92v-3.42h25.26l.6-.17Zm-27.6-2h-3.6v-9.65h24.24l-.78-.31a73.72,73.72,0,0,0,6.12-11.15l3.72,1.2a97,97,0,0,1-6.36,10.26h7.86v9.71h-3.72v-6.29H562.2Zm29.4-24.71c-8,2.22-21.06,3.48-31.68,4a11.48,11.48,0,0,0-1-3.06c10.44-.66,23.4-2,30.18-3.9Zm-26.94,14.52a33.34,33.34,0,0,0-3.6-8.1l3.12-1.08a29.52,29.52,0,0,1,3.72,8Zm2.76,14.69a30.91,30.91,0,0,0,8.22,10.62,28.32,28.32,0,0,0,9.12-10.62Zm7.74-15.47a35.88,35.88,0,0,0-2.46-8.64l3.24-.72a36.64,36.64,0,0,1,2.64,8.45Z"/><path d="M653.88,2002.76c-3.3,5.16-7.2,10.86-10.92,14.4l-3.24-2a55.93,55.93,0,0,0,7.62-9.78H629.4v23.4c0,2.64-.66,3.78-2.7,4.38s-5.46.66-10.74.66a14.86,14.86,0,0,0-1.44-3.84c4.26.12,8.22.06,9.36,0s1.44-.3,1.44-1.26v-23.34h-25v-3.77h31.8c-5.16-2.65-12.42-6.07-18-8.53l2.1-2.87c3.3,1.38,7.26,3.12,11.1,4.79a69.6,69.6,0,0,0,12.18-8.69H606v-3.72h37.38l.9-.24,2.88,2.22a93.88,93.88,0,0,1-16,12.3c2.58,1.2,5,2.4,6.78,3.3l-1,1.44h13l.78-.31Z"/><path d="M680.52,2012.06l-3.66,3.12a93.63,93.63,0,0,0-13.32-13.38l3.42-3.11A118.53,118.53,0,0,1,680.52,2012.06Z"/><path d="M701.28,1991.55h6.84v3.72h-6.84v12.23l5.94-2,.54,3.73c-2.1.71-4.32,1.5-6.48,2.21v17.64c0,2.28-.54,3.36-1.86,4s-3.6.78-7.32.72a14.48,14.48,0,0,0-1.14-3.72c2.58.12,4.92.12,5.58.06s1.08-.24,1.08-1.08v-16.43l-7.62,2.51-1.14-3.78c2.4-.72,5.4-1.68,8.76-2.76v-13.37H689.7v-3.72h7.92v-12.18h3.66ZM738,2013.62a26.21,26.21,0,0,1-6.6,11.22,108.2,108.2,0,0,1,11.94,6.12l-2.94,2.82a135.21,135.21,0,0,0-12.06-6.48c-4.38,3.12-10.2,5.22-17.88,6.54a10.54,10.54,0,0,0-1.86-3.42c6.6-1,11.76-2.58,15.72-4.92-4.08-1.74-8.34-3.48-12.18-4.8,1.56-2,3.24-4.44,4.92-7.08h-8.52v-3.54h10.62a62.75,62.75,0,0,0,3-6.06l3.78.78c-.78,1.68-1.68,3.54-2.64,5.28h11.64c.24-1.14.48-2.28.72-3.54l3.84.79c-.18,1-.36,1.85-.54,2.75h5.46v3.54Zm5.82-10.37H709.26v-3.49h20.16a54.93,54.93,0,0,0,4.86-9.53l3.72,1.08c-1.38,2.82-3.06,5.94-4.62,8.45h10.44Zm-1.2-14h-31.8v-3.48H725.7a48.49,48.49,0,0,0-2.7-5.94l4.08-.78a40.35,40.35,0,0,1,3.24,6.72h12.3Zm-22.8,10a36.54,36.54,0,0,0-4.5-7.74l3.24-1.32a36.57,36.57,0,0,1,4.68,7.5Zm1.38,14.39a52.9,52.9,0,0,1-3.66,5.58c3.24,1.2,6.66,2.52,10,4a22.2,22.2,0,0,0,6.3-9.54Z"/><path d="M795.06,2008.83a37.4,37.4,0,0,1-14,15.23,73.55,73.55,0,0,0,22.56,6.12,21,21,0,0,0-2.46,3.72,70.86,70.86,0,0,1-24.06-7.62c-7.26,3.78-15.72,6.18-24.42,7.62a16.14,16.14,0,0,0-2.28-3.54,80.06,80.06,0,0,0,22.92-6.36,40.89,40.89,0,0,1-12.6-12.83l.3-.13h-2.46v-3.71h33.12l.84-.19Zm-39.66-.25h-3.78v-12H787.8a86,86,0,0,0,5.82-10.43l4,1.2a98.83,98.83,0,0,1-5.76,9.23h10.62v12h-3.9v-8.45H755.4Zm43.44-26.21c-11.7,2.52-30.24,4-45.66,4.68a13.84,13.84,0,0,0-1-3.42c15.3-.66,33.72-2.22,43.8-4.44Zm-38.28,5a34.73,34.73,0,0,1,4.38,8l-3.54,1.19a39.1,39.1,0,0,0-4.26-8.27ZM765,2011A36.27,36.27,0,0,0,777.12,2022a34.08,34.08,0,0,0,12-10.92Zm11.1-15a37.22,37.22,0,0,0-3.06-9l3.54-.78a34.58,34.58,0,0,1,3.3,8.88Z"/><path d="M822.18,1997.67a9.06,9.06,0,1,1-9.06,9A9.09,9.09,0,0,1,822.18,1997.67Zm0,15.23a6.18,6.18,0,1,0,0-12.36,6.18,6.18,0,1,0,0,12.36Z"/><path d="M77,2064.63a67.67,67.67,0,0,1-5.4,8.45v33.18H67.86v-28.5a55.81,55.81,0,0,1-6,5.94,23.11,23.11,0,0,0-2.4-3.41,57.79,57.79,0,0,0,14-16.92Zm-1.44-11.88a59.41,59.41,0,0,1-13.32,14.1,20,20,0,0,0-2.22-2.82c4.44-3.3,9.42-8.4,11.94-12.66ZM109,2083.17a34,34,0,0,1-11.58,13.91,56.54,56.54,0,0,0,16.08,5.52,13.63,13.63,0,0,0-2.46,3.48,58.51,58.51,0,0,1-17.16-6.72,63.26,63.26,0,0,1-17.7,6.78,10.39,10.39,0,0,0-2-3.42,62.23,62.23,0,0,0,16.26-5.64,41.7,41.7,0,0,1-7.2-6.54,42.74,42.74,0,0,1-4.86,4.08,25.12,25.12,0,0,0-2.76-2.94,46.2,46.2,0,0,0,5.28-4.08,34,34,0,0,1-2.82-4.38l3.3-1.2a19.06,19.06,0,0,0,2,3.18,40.7,40.7,0,0,0,5.82-7.86c-9,.6-10.5.91-11.64,1.26a33.39,33.39,0,0,0-1.2-3.77c1.62-.19,3.78-1.26,6.6-2.88,1.44-.78,4.38-2.58,7.8-4.87-9.36.49-10.92.73-11.82,1.09a28.56,28.56,0,0,0-1.26-3.84,10.79,10.79,0,0,0,3.9-2.16A67.38,67.38,0,0,0,92.28,2052l3.9,1.8a87.44,87.44,0,0,1-11.7,10.32l11.1-.36a87.91,87.91,0,0,0,8.22-6.6l3.66,2.1a135.45,135.45,0,0,1-22.44,15l20.1-1.08c-1.5-1.87-2.94-3.72-4.38-5.29l3.06-1.61a90.33,90.33,0,0,1,10,13l-3.24,1.92c-.78-1.38-2-3.12-3.24-5-5.58.35-10.14.66-13.68.83a52.18,52.18,0,0,1-3,5h15.18l.72-.18Zm-20.94,2.21a33.51,33.51,0,0,1-2.34,2.76,40,40,0,0,0,8.16,6.9,31.13,31.13,0,0,0,9.72-9.66Z"/><path d="M139.2,2054.31c-3.36,10.26-9.24,18.65-16.38,24.23a26.38,26.38,0,0,0-3.36-2.87c7.2-5,12.66-13,15.6-22.32ZM165.48,2074s0,1.43-.06,2c-.9,18.6-1.8,25.44-3.84,27.72a6,6,0,0,1-4.56,2,90.37,90.37,0,0,1-9.48-.18,9.12,9.12,0,0,0-1.32-4c4,.36,7.8.42,9.24.42,1.26,0,1.92-.12,2.52-.78,1.56-1.5,2.46-7.62,3.24-23.28H145.08c-1.56,11.94-5.46,22.86-20.64,28.38a17.07,17.07,0,0,0-2.58-3.42c14.34-4.74,17.58-14.58,19-25H128.22V2074Zm-7.62-21.54c3.06,9.48,9.6,18.18,17.1,22.5a21.07,21.07,0,0,0-2.88,3.53c-7.32-4.8-13.68-13.19-17.1-22.31h-10.8v-3.72Z"/><path d="M199.8,2052.75a92,92,0,0,1-6.12,11.52V2106H189.9v-36.23a67.54,67.54,0,0,1-8.58,9.65,38.46,38.46,0,0,0-2.28-3.9c6.66-5.7,13.14-14.69,17-24Zm25.68,47.45c3.42,0,3.9-2.7,4.38-13a8.92,8.92,0,0,0,3.72,1.8c-.66,11.1-1.8,14.88-8,14.88H214c-5.7,0-7.44-1.68-7.44-7.68v-43.91h3.84v16.5h21.36v3.84H210.36v23.69c0,3.18.72,3.9,3.84,3.9Z"/><path d="M290.4,2081.13v24.77h-4.32v-3.48H243.66v-21.29H248v17.39h16.8v-21.3H246.24v-20.33h4.14v16.44h14.4v-22h4.32v22h14.64v-16.5h4.32v20.39h-19v21.3h17v-17.39Z"/><path d="M326,2054.49H311.22v35.15h-4v-38.87H326Z"/><path d="M340.92,2083.1v18.12c0,2.34-.54,3.42-1.92,4.08s-3.6.78-7.38.72a17.73,17.73,0,0,0-1.2-3.72c2.7.12,5,.12,5.7.06s1.08-.24,1.08-1.14v-16.86l-7.2,2.34-1.08-3.9c2.28-.59,5.16-1.5,8.28-2.46v-13.07h-7.68v-3.72h7.68v-12.18h3.72v12.18h6.6v3.72h-6.6v11.87l6.42-2,.48,3.73Zm38.88-1.74a33.57,33.57,0,0,1-11.1,15.36,44.75,44.75,0,0,0,15.9,5.94,14.35,14.35,0,0,0-2.4,3.48,45.06,45.06,0,0,1-16.74-7.14,54.23,54.23,0,0,1-17.46,6.9,13,13,0,0,0-1.86-3.48,52.88,52.88,0,0,0,16.32-5.82,37.41,37.41,0,0,1-8.52-11.93l2.46-.79h-4.92v-3.42h25.26l.6-.17Zm-27.6-2h-3.6v-9.65h24.24l-.78-.31a73.72,73.72,0,0,0,6.12-11.15l3.72,1.2a97,97,0,0,1-6.36,10.26h7.86v9.71h-3.72v-6.29H352.2Zm29.4-24.71c-8,2.22-21.06,3.48-31.68,4a11.48,11.48,0,0,0-1-3.06c10.44-.66,23.4-2,30.18-3.9Zm-26.94,14.52a33.34,33.34,0,0,0-3.6-8.1l3.12-1.08a29.52,29.52,0,0,1,3.72,8Zm2.76,14.69a30.91,30.91,0,0,0,8.22,10.62,28.32,28.32,0,0,0,9.12-10.62Zm7.74-15.47a35.88,35.88,0,0,0-2.46-8.64l3.24-.72a36.64,36.64,0,0,1,2.64,8.45Z"/><path d="M388,2102.84h14.82v-35.15h4v38.87H388Z"/><path d="M471.12,2083a100.84,100.84,0,0,1-11.7,8.58,36.22,36.22,0,0,0,15.3,8.76,24.16,24.16,0,0,0-2.64,3.48c-12.3-4.08-20.82-13.2-25.38-25.61h-.18a53.79,53.79,0,0,1-9.6,8V2100l14.88-4.5a18.38,18.38,0,0,0,.6,3.42c-16.62,5.4-18.66,6.12-20,7a14.6,14.6,0,0,0-1.74-3.66,3.9,3.9,0,0,0,2.16-3.78v-9.72a71.36,71.36,0,0,1-10.68,5.1,19.48,19.48,0,0,0-2.64-3.24,62.5,62.5,0,0,0,21.9-12.41H421.2v-3.54h23.7v-5.64H426.54v-3.36H444.9v-5.4H423.54v-3.48H444.9v-5.52h4v5.52h22v3.48h-22v5.4h19.32v3.36H448.92v5.64H472.8v3.54H450.54a38.86,38.86,0,0,0,6.6,11,80.68,80.68,0,0,0,10.74-8.46Z"/><path d="M495.24,2081.78a58,58,0,0,1-12.06,19.14,26,26,0,0,0-3.66-2.46,47,47,0,0,0,11.64-17.75Zm13.62-7.91v31.79h-4.14v-31.79H480.84v-4h52.5v4Zm19.2-14.22H486.18v-3.9h41.88Zm-5.16,20.93c4.5,5.58,9.24,13.14,11,18.24l-3.9,1.8c-1.74-5-6.3-12.78-10.8-18.48Z"/><path d="M550.92,2083.1v18.12c0,2.34-.54,3.42-1.92,4.08s-3.6.78-7.38.72a17.73,17.73,0,0,0-1.2-3.72c2.7.12,5,.12,5.7.06s1.08-.24,1.08-1.14v-16.86l-7.2,2.34-1.08-3.9c2.28-.59,5.16-1.5,8.28-2.46v-13.07h-7.68v-3.72h7.68v-12.18h3.72v12.18h6.6v3.72h-6.6v11.87l6.42-2,.48,3.73Zm38.88-1.74a33.57,33.57,0,0,1-11.1,15.36,44.75,44.75,0,0,0,15.9,5.94,14.35,14.35,0,0,0-2.4,3.48,45.06,45.06,0,0,1-16.74-7.14,54.23,54.23,0,0,1-17.46,6.9,13,13,0,0,0-1.86-3.48,52.88,52.88,0,0,0,16.32-5.82,37.41,37.41,0,0,1-8.52-11.93l2.46-.79h-4.92v-3.42h25.26l.6-.17Zm-27.6-2h-3.6v-9.65h24.24l-.78-.31a73.72,73.72,0,0,0,6.12-11.15l3.72,1.2a97,97,0,0,1-6.36,10.26h7.86v9.71h-3.72v-6.29H562.2Zm29.4-24.71c-8,2.22-21.06,3.48-31.68,4a11.48,11.48,0,0,0-1-3.06c10.44-.66,23.4-2,30.18-3.9Zm-26.94,14.52a33.34,33.34,0,0,0-3.6-8.1l3.12-1.08a29.52,29.52,0,0,1,3.72,8Zm2.76,14.69a30.91,30.91,0,0,0,8.22,10.62,28.32,28.32,0,0,0,9.12-10.62Zm7.74-15.47a35.88,35.88,0,0,0-2.46-8.64l3.24-.72a36.64,36.64,0,0,1,2.64,8.45Z"/><path d="M653.88,2074.76c-3.3,5.16-7.2,10.86-10.92,14.4l-3.24-2a55.93,55.93,0,0,0,7.62-9.78H629.4v23.4c0,2.64-.66,3.78-2.7,4.38s-5.46.66-10.74.66a14.86,14.86,0,0,0-1.44-3.84c4.26.12,8.22.06,9.36,0s1.44-.3,1.44-1.26v-23.34h-25v-3.77h31.8c-5.16-2.65-12.42-6.07-18-8.53l2.1-2.87c3.3,1.38,7.26,3.12,11.1,4.79a69.6,69.6,0,0,0,12.18-8.69H606v-3.72h37.38l.9-.24,2.88,2.22a93.88,93.88,0,0,1-16,12.3c2.58,1.2,5,2.4,6.78,3.3l-1,1.44h13l.78-.31Z"/><path d="M665.88,2087c4.68-2,7.26-4.86,7.56-9.17a4,4,0,0,1-1.14.11c-2.34,0-4.26-1.31-4.26-4.07a4,4,0,0,1,4.32-4.08c3.18,0,4.86,2.58,4.86,6.66,0,6.41-4,11.21-10.08,13.43Z"/><path d="M718.68,2058.69c-.84,3.12-1.8,6.42-2.7,9.06h24.66v32.93c0,2.46-.54,3.6-2.22,4.26s-4.8.72-9.12.72a12.47,12.47,0,0,0-1.38-3.78c3.54.12,6.6.06,7.5,0s1.2-.3,1.2-1.2v-29.22H725.94V2104h-4v-32.58H711.54V2104h-3.9v-32.58h-10V2106h-4v-38.27h18.24c.84-2.71,1.56-6.12,2.16-9.06H690.48v-4h53.34v4Z"/><path d="M776,2054.49H761.22v35.15h-4v-38.87H776Z"/><path d="M825.06,2080.83a37.4,37.4,0,0,1-14,15.23,73.55,73.55,0,0,0,22.56,6.12,21,21,0,0,0-2.46,3.72,70.86,70.86,0,0,1-24.06-7.62c-7.26,3.78-15.72,6.18-24.42,7.62a16.14,16.14,0,0,0-2.28-3.54,80.06,80.06,0,0,0,22.92-6.36,40.89,40.89,0,0,1-12.6-12.83l.3-.13h-2.46v-3.71h33.12l.84-.19Zm-39.66-.25h-3.78v-12H817.8a86,86,0,0,0,5.82-10.43l4,1.2a98.83,98.83,0,0,1-5.76,9.23h10.62v12h-3.9v-8.45H785.4Zm43.44-26.21c-11.7,2.52-30.24,4-45.66,4.68a13.84,13.84,0,0,0-1-3.42c15.3-.66,33.72-2.22,43.8-4.44Zm-38.28,5a34.73,34.73,0,0,1,4.38,8l-3.54,1.19a39.1,39.1,0,0,0-4.26-8.27ZM795,2083A36.27,36.27,0,0,0,807.12,2094a34.08,34.08,0,0,0,12-10.92Zm11.1-15a37.22,37.22,0,0,0-3.06-9l3.54-.78a34.58,34.58,0,0,1,3.3,8.88Z"/><path d="M838,2102.84h14.82v-35.15h4v38.87H838Z"/><path d="M881.22,2094.14A37.44,37.44,0,0,1,872.7,2106a23.33,23.33,0,0,0-3.3-2.4,31.15,31.15,0,0,0,7.92-10.5ZM896,2053.65v37.49H873v-37.49ZM876.78,2065h15.36v-7.79H876.78Zm0,11.22h15.36v-7.85H876.78Zm0,11.28h15.36v-8H876.78Zm14.4,5.64a51.56,51.56,0,0,1,6.9,10.14l-3.66,1.86a47.3,47.3,0,0,0-6.72-10.56Zm15.6-34.67v32.87h-3.9v-32.87Zm14.82-6v48c0,2.82-.84,4.08-2.58,4.74-1.92.66-5.16.72-10.62.72a19,19,0,0,0-1.5-4c4.32.12,8,.06,9.18.06s1.56-.42,1.56-1.56v-48Z"/><path d="M981.12,2083a100.84,100.84,0,0,1-11.7,8.58,36.22,36.22,0,0,0,15.3,8.76,24.16,24.16,0,0,0-2.64,3.48c-12.3-4.08-20.82-13.2-25.38-25.61h-.18a53.79,53.79,0,0,1-9.6,8V2100l14.88-4.5a18.38,18.38,0,0,0,.6,3.42c-16.62,5.4-18.66,6.12-20,7a14.6,14.6,0,0,0-1.74-3.66,3.9,3.9,0,0,0,2.16-3.78v-9.72a71.36,71.36,0,0,1-10.68,5.1,19.48,19.48,0,0,0-2.64-3.24,62.5,62.5,0,0,0,21.9-12.41H931.2v-3.54h23.7v-5.64H936.54v-3.36H954.9v-5.4H933.54v-3.48H954.9v-5.52h4v5.52h22v3.48h-22v5.4h19.32v3.36H958.92v5.64H982.8v3.54H960.54a38.86,38.86,0,0,0,6.6,11,80.68,80.68,0,0,0,10.74-8.46Z"/><path d="M1005.24,2081.78a58,58,0,0,1-12.06,19.14,26,26,0,0,0-3.66-2.46,47,47,0,0,0,11.64-17.75Zm13.62-7.91v31.79h-4.14v-31.79H990.84v-4h52.5v4Zm19.2-14.22H996.18v-3.9h41.88Zm-5.16,20.93c4.5,5.58,9.24,13.14,11,18.24l-3.9,1.8c-1.74-5-6.3-12.78-10.8-18.48Z"/><path d="M1061.28,2063.55h6.84v3.72h-6.84v12.23l5.94-2,.54,3.73c-2.1.71-4.32,1.5-6.48,2.21v17.64c0,2.28-.54,3.36-1.86,4s-3.6.78-7.32.72a14.48,14.48,0,0,0-1.14-3.72c2.58.12,4.92.12,5.58.06s1.08-.24,1.08-1.08v-16.43l-7.62,2.51-1.14-3.78c2.4-.72,5.4-1.68,8.76-2.76v-13.37h-7.92v-3.72h7.92v-12.18h3.66Zm36.72,22.07a26.21,26.21,0,0,1-6.6,11.22,108.2,108.2,0,0,1,11.94,6.12l-2.94,2.82a135.21,135.21,0,0,0-12.06-6.48c-4.38,3.12-10.2,5.22-17.88,6.54a10.54,10.54,0,0,0-1.86-3.42c6.6-1,11.76-2.58,15.72-4.92-4.08-1.74-8.34-3.48-12.18-4.8,1.56-2,3.24-4.44,4.92-7.08h-8.52v-3.54h10.62a62.75,62.75,0,0,0,3-6.06l3.78.78c-.78,1.68-1.68,3.54-2.64,5.28h11.64c.24-1.14.48-2.28.72-3.54l3.84.79c-.18,1-.36,1.85-.54,2.75h5.46v3.54Zm5.82-10.37h-34.56v-3.49h20.16a54.93,54.93,0,0,0,4.86-9.53l3.72,1.08c-1.38,2.82-3.06,5.94-4.62,8.45h10.44Zm-1.2-14h-31.8v-3.48h14.88a48.49,48.49,0,0,0-2.7-5.94l4.08-.78a40.35,40.35,0,0,1,3.24,6.72h12.3Zm-22.8,10a36.54,36.54,0,0,0-4.5-7.74l3.24-1.32a36.57,36.57,0,0,1,4.68,7.5Zm1.38,14.39a52.9,52.9,0,0,1-3.66,5.58c3.24,1.2,6.66,2.52,10,4a22.2,22.2,0,0,0,6.3-9.54Z"/><path d="M1155.06,2080.83a37.4,37.4,0,0,1-14,15.23,73.55,73.55,0,0,0,22.56,6.12,21,21,0,0,0-2.46,3.72,70.86,70.86,0,0,1-24.06-7.62c-7.26,3.78-15.72,6.18-24.42,7.62a16.14,16.14,0,0,0-2.28-3.54,80.06,80.06,0,0,0,22.92-6.36,40.89,40.89,0,0,1-12.6-12.83l.3-.13h-2.46v-3.71h33.12l.84-.19Zm-39.66-.25h-3.78v-12h36.18a86,86,0,0,0,5.82-10.43l4,1.2a98.83,98.83,0,0,1-5.76,9.23h10.62v12h-3.9v-8.45H1115.4Zm43.44-26.21c-11.7,2.52-30.24,4-45.66,4.68a13.84,13.84,0,0,0-1-3.42c15.3-.66,33.72-2.22,43.8-4.44Zm-38.28,5a34.73,34.73,0,0,1,4.38,8l-3.54,1.19a39.1,39.1,0,0,0-4.26-8.27ZM1125,2083a36.27,36.27,0,0,0,12.12,10.92,34.08,34.08,0,0,0,12-10.92Zm11.1-15a37.22,37.22,0,0,0-3.06-9l3.54-.78a34.58,34.58,0,0,1,3.3,8.88Z"/><path d="M1182.18,2069.67a9.06,9.06,0,1,1-9.06,9A9.09,9.09,0,0,1,1182.18,2069.67Zm0,15.23a6.18,6.18,0,1,0,0-12.36,6.18,6.18,0,0,0,0,12.36Z"/><rect class="cls-2" x="1113" y="1155" width="65" height="220" rx="12"/><path class="cls-1" d="M1157.05,1193.79a27.61,27.61,0,0,0,11.5,8.1,11.65,11.65,0,0,0-2.15,2.55,30.77,30.77,0,0,1-12.8-10.65h-15.95a34.39,34.39,0,0,1-13,11.3,11.43,11.43,0,0,0-2.15-2.55,30.39,30.39,0,0,0,11.6-8.75H1123v-2.85h10v-16.15h-7.7V1172h7.7v-5h3.3v5h18.55v-5h3.35v5h7.65v2.8h-7.65v16.15h9.8v2.85Zm-10,14.5h17.3v2.85H1126.8v-2.85h16.9v-5.6h-10.45v-2.8h10.45v-4.4h3.35v4.4h10.65v2.8h-10.65Zm-10.8-33.5v3.6h18.55v-3.6Zm0,9.8h18.55v-3.65h-18.55Zm0,6.35h18.55v-3.8h-18.55Z"/><path class="cls-1" d="M1141.25,1235.54s0,1.15,0,1.55c-.6,15.85-1.2,21.2-2.6,23a3.71,3.71,0,0,1-2.8,1.45,32.65,32.65,0,0,1-4.45,0,9.25,9.25,0,0,0-.85-3c1.75.15,3.2.15,3.9.15a1.42,1.42,0,0,0,1.45-.65c1-1.2,1.6-6,2.15-19.35h-6.8c-.55,10-2,18.25-6.45,23.65a9.53,9.53,0,0,0-2.55-2.35c5.45-6.45,5.9-17.85,6.1-31.55h-5.2v-3.1h20.1v3.1h-11.65c0,2.45-.1,4.85-.2,7.15Zm-7.9-10.45a33.47,33.47,0,0,0-4.25-7.15l2.9-1.15a31.92,31.92,0,0,1,4.4,7Zm23.85-7.45a15.26,15.26,0,0,1-.85,2.55c2.65,5.45,7.7,11.35,12.45,14a13,13,0,0,0-2.45,2.75c-4.25-2.7-8.5-8-11.4-13.3a32.61,32.61,0,0,1-11,13.6,12.79,12.79,0,0,0-2.35-2.65c5.85-3.6,10.35-10.2,12.5-17.85Zm-8.3,32.45a74,74,0,0,1,13.6,8.25l-2.25,2.9c-2.85-2.6-8.75-6.3-13.4-8.65Zm9.5-4.85a66.22,66.22,0,0,0-8.6-6.85l2.15-2.2a67.46,67.46,0,0,1,8.75,6.55Z"/><path class="cls-1" d="M1148.6,1267.94c-.35.6-.8,1.15-1.2,1.75,4.95,5.5,13.85,10.9,21.4,13.3a16.56,16.56,0,0,0-2.35,2.9,60.7,60.7,0,0,1-21-13.9,48.65,48.65,0,0,1-12.4,10h25.1v3.1h-11.1v7.05h17.75v3H1147.1v12.7H1167v3.1h-43v-3.1h19.55v-12.7h-17.35v-3h17.35v-7.05h-10.9v-2.9a58.72,58.72,0,0,1-8.25,3.85,11.79,11.79,0,0,0-2.25-3c9.35-3.1,18.55-9.1,23.3-16.5Zm-15.25,28.65a42.46,42.46,0,0,1,4.8,9.1l-2.9,1.2a40.78,40.78,0,0,0-4.65-9.2Zm18.55,9.3a71.79,71.79,0,0,0,5.35-9.35l3.15,1.25a101.62,101.62,0,0,1-6,9.2Z"/><path class="cls-1" d="M1160,1329.09a51.83,51.83,0,0,1-12,19.6,49.94,49.94,0,0,0,20.5,10.5,16.79,16.79,0,0,0-2.25,3,50.92,50.92,0,0,1-20.75-11.1c-5.65,5-12.55,8.6-21,11.3a15.53,15.53,0,0,0-2-3.05c8.35-2.45,15.1-5.9,20.6-10.6a57.05,57.05,0,0,1-12.2-19.65h-7.75v-3.25h44.75v3.25Zm-25.75,0a52.13,52.13,0,0,0,11.3,17.3,47.46,47.46,0,0,0,10.7-17.3Zm11.25-3.55a38.13,38.13,0,0,0-3.8-7.8l3.4-1a39,39,0,0,1,4,7.65Z"/><rect class="cls-2" x="1113" y="389" width="65" height="126" rx="12"/><path class="cls-1" d="M1132.7,418.82c1.25,1.6,4.9,6.7,5.7,8.05l-2,2.45c-.7-1.5-2.35-4.4-3.75-6.65V449h-3.15V424.57c-1.5,5.05-3.5,9.9-5.55,12.85a14.83,14.83,0,0,0-1.75-3.1c2.9-4,5.8-11.5,7.2-18h-6.2v-3.15h6.3v-9.65h3.15v9.65h5.45v3.15h-5.45Zm19.1.7a19.47,19.47,0,0,0,.45,2.65c-10.15,2.7-11.6,3.15-12.5,3.75a12.13,12.13,0,0,0-1.1-3.2c.7-.2,1.55-.5,1.55-2.2v-16.7h3.25v6.5h8.35v2.9h-8.35v8.3Zm2.35,5.5-2,3.75h12.65V449h-3.4v-1.75h-17v2h-3.3V428.77h7.9c.55-1.5,1.2-3.25,1.55-4.6Zm7.3,6.5h-17v5.05h17Zm0,13v-5.3h-17v5.3Zm2.25-22.4c1.25,0,1.5-.75,1.65-5.25a9.16,9.16,0,0,0,2.85,1.25c-.3,5.45-1.2,6.95-4.15,6.95h-5.85c-3.65,0-4.55-.95-4.55-4.45V403.87h3.25v6.5h10.2v2.9h-10.2v7.35c0,1.3.25,1.5,1.65,1.5Z"/><path class="cls-1" d="M1167.55,478.87v2.5H1123.4v-2.5h20.25v-3.2H1126.8v-2.3h16.85v-3H1128.2v-2.25h15.45v-3.2H1123.5v-2.5h20.15v-3.05H1128.8V457h14.85v-3.55h3.25V457h14.45v5.4h6.15v2.5h-6.15v5.45H1146.9v3h17.3v2.3h-17.3v3.2Zm-37.75,5h31.75v15.25h-3.25v-1.6H1133v1.7h-3.2Zm3.2,2.4v3.2h25.3v-3.2Zm25.3,8.85v-3.4H1133v3.4Zm-11.4-32.7h11.15v-3.05H1146.9Zm0,5.7h11.15v-3.2H1146.9Z"/><path d="M374.18,1513.58a210.32,210.32,0,0,0,26.06,18.53,206.19,206.19,0,0,0,24.2,12.11A285.82,285.82,0,0,0,456,1555.8a264.85,264.85,0,0,0,27.53,6.43,333,333,0,0,0,65.89,5.25,396.24,396.24,0,0,0,67.62-7.71,372,372,0,0,0,56.52-15.8c18.59-6.87,36.93-15,53.9-25.28a253.12,253.12,0,0,0,25.62-18.13A157.23,157.23,0,0,0,771,1484.07c13.49-14.61,24.1-31.21,30.22-50.2a116.18,116.18,0,0,0,5-28.16,108.15,108.15,0,0,0-2.36-28.2,103,103,0,0,0-9.78-26.54,79.44,79.44,0,0,0-6-9.77,132.21,132.21,0,0,0-11.21-13.87,90.73,90.73,0,0,0-9.17-8.36,19,19,0,0,0-8.2-5.27,19.22,19.22,0,0,0-9.83-2.2c-6.25,0-13.72,2.78-18,7.47-4.46,4.86-7.77,11.24-7.47,18l.91,6.78a25.45,25.45,0,0,0,6.56,11.25,88.65,88.65,0,0,1,14.8,14.94l-4-5.16a81.34,81.34,0,0,1,10.2,17.45l-2.57-6.09a80.93,80.93,0,0,1,5.52,20.32l-.92-6.77a84.83,84.83,0,0,1-.05,22l.91-6.78a91.81,91.81,0,0,1-6.39,23.11l2.57-6.09a103.69,103.69,0,0,1-13.15,22.19l4-5.16a151,151,0,0,1-27.34,26.9l5.16-4c-16.23,12.47-34.38,22.26-53.2,30.21l6.09-2.57a362.85,362.85,0,0,1-70.14,21.11q-11,2.16-22,3.67l6.78-.92a324.28,324.28,0,0,1-86,.54l6.78.91a256.2,256.2,0,0,1-64.54-17.25l6.09,2.57a188.16,188.16,0,0,1-41.49-23.77l5.16,4c-1.21-.94-2.42-1.9-3.61-2.87a28.38,28.38,0,0,0-18-7.47c-6.25,0-13.72,2.78-18,7.47-4.46,4.86-7.77,11.24-7.47,18,.29,6.36,2.32,13.83,7.47,18Z"/><path d="M444.28,1380.93a961.62,961.62,0,0,0,84.41,66.57A992,992,0,0,0,617.24,1503a1072.78,1072.78,0,0,0,96.33,47.35c35.73,15.42,72.09,29.64,109.36,40.94,38.28,11.61,77.74,19.73,117.69,22.44q7.18.49,14.38.71c6.41.2,13.55-3,18-7.47s7.75-11.68,7.47-18c-.63-14.17-11.2-25.05-25.5-25.5a408.81,408.81,0,0,1-41.49-3.46l6.78.91c-48.65-6.61-95.75-21.27-141.53-38.68q-18.88-7.17-37.51-15l6.09,2.57q-48-20.28-93.9-45A1002.15,1002.15,0,0,1,566.71,1412q-23.18-15.77-45.37-32.88l5.16,4q-23.72-18.33-46.16-38.19c-5.08-4.51-11.08-7.47-18-7.47-6.25,0-13.72,2.78-18,7.47-4.46,4.86-7.77,11.24-7.47,18,.3,6.52,2.42,13.55,7.47,18Z"/><path d="M929.05,1255.85c-37.42-2.11-74.83-4.21-112.27-5.94s-75-3.08-112.47-3.71-74.83-.52-112.22.69c-37.23,1.2-74.43,3.5-111.5,7.27-38.86,3.95-77.63,9.36-116,16.72q-6.75,1.29-13.48,2.67c-6,1.23-12.22,6.55-15.24,11.72-3.2,5.46-4.56,13.52-2.57,19.65s5.82,12.12,11.72,15.24a28.09,28.09,0,0,0,19.65,2.57q39.82-8.13,80.15-13.48l-6.78.91c63.32-8.46,127.18-12.23,191-13.12s127.78,1.07,191.59,4c36.14,1.69,72.27,3.72,108.39,5.76,6.3.35,13.66-3.1,18-7.47s7.75-11.68,7.47-18c-.65-14.46-11.21-24.7-25.5-25.5Z"/><path d="M868.32,1166.66a431.24,431.24,0,0,1-1.9,53.67q-.74,7.55-1.74,15.05l.91-6.77q-1.56,11.63-3.75,23.17a19.34,19.34,0,0,0-.45,10.17,19,19,0,0,0,3,9.48,28.62,28.62,0,0,0,15.24,11.72l6.78.91a25.52,25.52,0,0,0,12.87-3.48l5.16-4a25.45,25.45,0,0,0,6.56-11.25,474,474,0,0,0,8.37-78.16q.21-10.26-.07-20.52a19.22,19.22,0,0,0-2.2-9.83,23,23,0,0,0-13.48-13.48,19.26,19.26,0,0,0-9.82-2.19l-6.78.91a25.45,25.45,0,0,0-11.25,6.56l-4,5.16a25.27,25.27,0,0,0-3.48,12.87Z"/><path d="M342.7,1182.05q8.42,39.48,15.33,79.25,2,11.22,3.78,22.45A24.57,24.57,0,0,0,383,1302a19.44,19.44,0,0,0,10.17-.46l6.09-2.57a25.71,25.71,0,0,0,9.15-9.15l2.57-6.09a25.78,25.78,0,0,0,0-13.56q-6.5-39.82-14.48-79.38-2.25-11.18-4.63-22.32a28.49,28.49,0,0,0-11.72-15.24,18.92,18.92,0,0,0-9.48-3,19.34,19.34,0,0,0-10.17.45l-6.09,2.57a25.61,25.61,0,0,0-9.14,9.15l-2.58,6.09a25.78,25.78,0,0,0,0,13.56Z"/><path d="M963.48,1138.83q-65.09-9.21-130.75-12.64c-41.93-2.16-83.93-2.67-125.9-2s-84.14,2.46-126.16,4.92-84,5.6-126,8.91c-43,3.39-86.7,5.32-129.07,13.86q-7.45,1.5-14.83,3.37c-12.94,3.27-22,18.45-17.81,31.37,4.33,13.37,17.5,21.31,31.37,17.81a365.53,365.53,0,0,1,40.75-7.65l-6.78.91c37.74-5,75.95-7.1,113.89-10,38.43-3,76.87-5.75,115.36-7.94,76.82-4.37,153.86-6.45,230.77-3.17,43.36,1.85,86.64,5.43,129.66,11.21l-6.78-.92,8.69,1.21a19.34,19.34,0,0,0,10.17.45,18.92,18.92,0,0,0,9.48-3c5.29-3.1,10.34-9.16,11.72-15.24,1.49-6.53,1.17-13.86-2.57-19.65-3.33-5.17-8.85-10.82-15.24-11.72Z"/><path d="M872.42,883.07l-1.24,1,5.16-4a151.3,151.3,0,0,1-32.83,19l6.09-2.58C829,905.14,807.05,909.79,785,912.77l6.78-.91c-32.61,4.34-65.6,5.55-98.36,8.39q-55.56,4.82-110.86,12.17c-38.64,5.14-77.17,11-115.54,17.9-8.3,1.49-16.63,2.91-24.87,4.68a141.08,141.08,0,0,0-27,8.84,71.65,71.65,0,0,0-22.83,15.76c-7.69,8-12.8,17.19-16.53,27.55a56,56,0,0,0-2.56,10.28,95.83,95.83,0,0,0-1.52,16.72,82.39,82.39,0,0,0,4.84,26.78,112.36,112.36,0,0,0,31.62,45.56c4.28,3.71,8.81,7.16,13.39,10.49,5,3.67,13.9,4.16,19.65,2.57,5.91-1.63,12.32-6.2,15.23-11.72,3.13-5.91,4.7-13.08,2.58-19.64l-2.58-6.1a25.5,25.5,0,0,0-9.14-9.14c-1-.77-2.08-1.54-3.11-2.33l5.16,4a108.16,108.16,0,0,1-18.79-18.49l4,5.16A80.41,80.41,0,0,1,424,1043.43l2.57,6.09a64.84,64.84,0,0,1-4.3-15.88l.91,6.78a61.69,61.69,0,0,1,0-15.48l-.91,6.78a55.71,55.71,0,0,1,3.58-13.38l-2.57,6.09a48.68,48.68,0,0,1,6.18-10.63l-4,5.17a47,47,0,0,1,8-7.88l-5.16,4a60.51,60.51,0,0,1,12.54-7.2l-6.09,2.57a125.68,125.68,0,0,1,24.37-7c9.8-2,19.66-3.68,29.5-5.41q30.92-5.44,62-10.08,17.67-2.64,35.38-5l-6.78.91q69.87-9.39,140.2-14.73c19.88-1.51,39.81-2.61,59.64-4.75,21.16-2.28,42.43-5.27,62.9-11.24A224.59,224.59,0,0,0,877,939.56c11.39-5.54,21.56-12.61,31.49-20.43,4.78-3.76,7.47-12.26,7.47-18,0-6.25-2.78-13.73-7.47-18-4.86-4.46-11.24-7.77-18-7.47l-6.78.91a25.45,25.45,0,0,0-11.25,6.56Z"/><path d="M572,987.76q10.79,24.42,21.26,49,3,7.05,6,14.11l-2.57-6.09q9.9,23.46,19.51,47a24.57,24.57,0,0,0,21.2,18.27,19.44,19.44,0,0,0,10.17-.46l6.09-2.57a25.71,25.71,0,0,0,9.15-9.15l2.57-6.09a25.78,25.78,0,0,0,0-13.56q-18.89-46.32-38.82-92.23-5.22-12-10.51-24a24.54,24.54,0,0,0-25.41-12.17,18.92,18.92,0,0,0-9.48,3l-5.16,4a25.45,25.45,0,0,0-6.56,11.25l-.91,6.78A25.32,25.32,0,0,0,572,987.76Z"/><path d="M762.58,961.48a263.58,263.58,0,0,0,14.28,55.13,297.08,297.08,0,0,0,28.08,56.55,315.26,315.26,0,0,0,22.78,30.66,26.19,26.19,0,0,0,36.06,0l4-5.16a25.32,25.32,0,0,0,3.48-12.87l-.91-6.78a25.36,25.36,0,0,0-6.56-11.25q-3.24-3.9-6.35-7.91l4,5.16a264.47,264.47,0,0,1-27.95-45q-3.32-6.74-6.23-13.65l2.57,6.09a265.57,265.57,0,0,1-15.51-50q-1.49-7.26-2.54-14.57A28.52,28.52,0,0,0,800,932.69a18.9,18.9,0,0,0-9.48-3,19.34,19.34,0,0,0-10.17.45l-6.09,2.58a25.61,25.61,0,0,0-9.15,9.14l-2.57,6.1a25.54,25.54,0,0,0,0,13.55Z"/></svg>