<svg id="Layer_1" data-name="Layer 1" xmlns="http://www.w3.org/2000/svg" viewBox="0 0 1242 2208"><defs><style>.cls-1{fill:#f6eabe;}.cls-2{fill:#999;}.cls-3{fill:none;stroke:#000;stroke-miterlimit:10;}</style></defs><rect class="cls-1" width="1242" height="2208"/><path d="M923.57,227.76V843.1H867.2V778.79H391.6v68.28h-54V227.76ZM867.2,725.59V281H391.6V725.59Z"/><path d="M391.92,1867.69a98.85,98.85,0,0,1-6.18,13.56v39.59H381.9v-33.35a61.73,61.73,0,0,1-5.46,7,32.86,32.86,0,0,0-2.28-3.9c5.58-5.87,10.8-14.87,14-24Zm34.14,28c-2.1,1.26-4.44,2.64-6.84,3.78,2,6.06,5.82,11.82,10.38,14.52a11.2,11.2,0,0,0-2.64,2.94c-4.62-3.18-8.46-9.42-10.68-16a27.45,27.45,0,0,1-2.76,1.2c2.58,6.84,1.86,14-1,16.68a6.91,6.91,0,0,1-5.22,1.92c-1.08,0-2.4-.06-3.78-.18a9.31,9.31,0,0,0-1-3.42,38.26,38.26,0,0,0,4.14.24,3.66,3.66,0,0,0,3.12-1.14c1.56-1.38,2.22-5.16,1.44-9.36-5.16,4.92-13.08,9.36-19.8,11.7a15.8,15.8,0,0,0-2.34-2.82c7.62-2.28,16.62-7.14,21.3-12.24a35.76,35.76,0,0,0-1.5-3.48,63.52,63.52,0,0,1-17.22,9.9,16.14,16.14,0,0,0-2.22-2.64c5.94-1.8,13.74-5.76,17.88-9.54a16.39,16.39,0,0,0-2.94-3.18,58.44,58.44,0,0,1-13.56,7.26,11.26,11.26,0,0,0-2.22-2.58,52.7,52.7,0,0,0,15.06-7.55H393.48v-9.36c-1.14,1-2.28,2-3.54,2.94a9.37,9.37,0,0,0-2.52-2.58,44.69,44.69,0,0,0,13.86-16.26l3.84.72c-.6,1.2-1.32,2.34-2,3.54h11.1l.72-.18,2.34,1.68a52.13,52.13,0,0,1-4.8,6.84h13.08v12.66H407.94c-.36.36-.78.66-1.2,1a21,21,0,0,1,5.64,6.84,110,110,0,0,0,10.92-6.42ZM401,1873.81a54.58,54.58,0,0,1-4.2,5.16h11.58a37.88,37.88,0,0,0,3.72-5.16Zm-3.9,14.69h10.5v-6.42h-10.5Zm24.72-6.42H411.18v6.42H421.8Z"/><path d="M464.28,1866.55c-.06,2.1-.12,5.1-.42,8.64.9,7,4.56,32.51,25.74,42a12.63,12.63,0,0,0-2.88,3.36c-15.42-7.26-21.72-22.74-24.6-34-2.64,12.23-8.94,26.33-24.06,34.19a13.77,13.77,0,0,0-3.12-3.06c25-12.48,24.78-42.11,25-51.11Z"/><path d="M500,1905.3v5.58h-3.36v-38.75h13.68v33.17Zm0-29.81v26.45h7.08v-26.45Zm46.26,40.85c0,2-.48,3-2,3.6s-4.38.6-9.12.54a14.87,14.87,0,0,0-1.2-3.18c3.6.12,6.78.06,7.62.06s1.2-.3,1.2-1.08v-5H519.12a17.68,17.68,0,0,1-6.72,9.66,11.73,11.73,0,0,0-2.64-2.52c5.94-4.38,6.84-10.26,6.84-15.24v-7.49c-.72.54-1.5,1.07-2.16,1.55-.48-.59-1.74-2-2.4-2.7a31.32,31.32,0,0,0,11.1-10.61l3.3,1c-.36.59-.78,1.2-1.2,1.85h12.6l.6-.18,2.22,1.63a42.12,42.12,0,0,1-5.22,5.21H546.3Zm-34-33.89,2.46-.42v-12.12h3v11.7l4.32-.72v-14.46h3.36v5.16h6.24v3.06h-6.24v5.7l6.18-1,.42,3.12-19.38,3Zm10.56,7.31a33.1,33.1,0,0,1-3.54,3.66H531a38.19,38.19,0,0,0,4-3.66Zm-2.7,14.16a22.51,22.51,0,0,1-.42,4.38h9.36v-4.38Zm0-3h8.94v-4.44H520.2Zm12.54,0h10v-4.44h-10Zm10,7.38v-4.38h-10v4.38Zm2-27.23c1.2,0,1.44-.42,1.62-3.54a10.25,10.25,0,0,0,3,1.26c-.36,4.2-1.38,5.28-4.26,5.28h-6.48c-4,0-4.92-.9-4.92-4.44v-13.14h3.36v5.22h10.26v3.06H537.12v4.86c0,1.2.24,1.44,1.86,1.44Z"/><path d="M572.82,1895.83s0,1.25-.06,1.8c-.72,14.33-1.5,19.67-3.12,21.47a5,5,0,0,1-3.72,1.74c-1.5.06-4.38.06-7.32-.12a8.32,8.32,0,0,0-1.26-3.9c3.06.3,5.94.3,7.08.3s1.56-.06,2.1-.66c1.08-1.08,1.74-5.52,2.4-17h-12.3c.36-4.44.66-11.58.6-17H569v-9.6H555.9v-3.6h16.8V1886H560.76c-.06,3.3-.18,6.79-.36,9.79Zm34,5.93a85.73,85.73,0,0,1-8.58,6.72,36.35,36.35,0,0,0,11.52,8.46,12.65,12.65,0,0,0-2.7,3.18c-8.34-4.32-15.78-13-19.92-22.68h-5.28v18.12l10.14-3.42a27.48,27.48,0,0,0,.24,3.3c-11.4,4.14-13,4.92-14,5.7a15.5,15.5,0,0,0-1.68-3.48c.72-.36,1.62-1.14,1.62-3.3v-16.92h-3.78V1894h5.16v-24.77h28v3.3H583.38v5h21.9v3h-21.9v5.05h21.9v3h-21.9V1894h25.26v3.48H590.76a39.67,39.67,0,0,0,5.58,8.7,61,61,0,0,0,7.56-6.84Z"/><path d="M621.48,1888.8V1921h-3.9V1869h21.54v19.85Zm0-16.73v5.16h13.86v-5.16Zm13.86,13.62v-5.52H621.48v5.52Zm14.4,20.57v13.56H646.2v-13.56h-8.94c-.42,4-2.22,10.44-8.22,14.34a14.83,14.83,0,0,0-2.64-2.4,15.38,15.38,0,0,0,7.32-11.94h-7.8v-3.36h7.86v-6.84h-6.66v-3.35h29.7v3.35h-7.08v6.84h8.4v3.36Zm-3.54-3.36v-6.84h-8.88v6.84Zm20.52,12.72c0,2.52-.6,3.84-2.28,4.56s-4.68.72-9.24.72a13,13,0,0,0-1.26-4c3.42.12,6.66.12,7.56.06s1.32-.36,1.32-1.32v-26.75H644.64V1869h22.08Zm-18.24-43.55v5.16h14.34v-5.16Zm14.34,13.68v-5.58H648.48v5.58Z"/><path d="M691,1867c-1,2.94-2.1,6.3-3.18,8.88H698v38.75h-16.8v4.8h-3.66v-43.55h6.66a64.68,64.68,0,0,0,2.58-9.72Zm3.3,12.47H681.18v13.08h13.14Zm0,31.56v-14.88H681.18v14.88Zm33.06-33.17c-1,27.53-1.8,36.71-4.2,39.59a5.6,5.6,0,0,1-4.56,2.28,74.94,74.94,0,0,1-8.82-.12,9.42,9.42,0,0,0-1.32-3.9c3.9.36,7.5.36,8.82.36s1.92-.12,2.52-.9c2-2.1,2.94-11.34,3.72-35.7H707.82a55.33,55.33,0,0,1-5.64,10.68,36.22,36.22,0,0,0-3.36-2.22c4.08-5.33,7.32-13.61,9.18-21.89l3.84.84c-.78,3-1.62,6-2.64,8.88h18.18Zm-12.78,27a106.51,106.51,0,0,0-9.3-13.92l3.06-1.79a102.47,102.47,0,0,1,9.6,13.61Z"/><path d="M752.64,1900.74c-.9-1.92-3.12-5.88-5-8.87v29H744v-29c-2,6.83-4.86,13.55-7.68,17.63a24.88,24.88,0,0,0-2.1-3.42c3.72-5,7.5-14.63,9.3-23h-8.1v-3.72H744v-13.08h3.66v13.08h7v3.72h-7v4c1.68,2.22,6.24,9.06,7.26,10.73Zm14.88,4a23.6,23.6,0,0,1-13,14.82,13.3,13.3,0,0,0-2.22-2.64,20.42,20.42,0,0,0,10.86-10h-9v-3H764.7l.66-.12Zm2.4-28.37h-14v-3.06h8a49.35,49.35,0,0,0-3.42-5.7l3-1.26a35,35,0,0,1,3.9,6.24l-1.56.72h11.1l-1-.36a55.82,55.82,0,0,0,3.72-6.6l3.54,1.2c-1.32,2-2.7,4.14-3.9,5.76h9v3.06H773.76v4h12.6v3h-12.6v4.2h15.18v3.18H767.88a71.37,71.37,0,0,1,12.66,5l-2.16,2.63a68.66,68.66,0,0,0-13.38-5.51l1.8-2.11H754.5v-3.18h15.42v-4.2H758.46v-3h11.46ZM788,1901.4a110.13,110.13,0,0,1-9.24,7.2,28.13,28.13,0,0,0,11.28,7.62,15.28,15.28,0,0,0-2.46,3,31.62,31.62,0,0,1-13.86-12.36v10c0,2-.42,3-1.92,3.54s-3.9.6-7.68.6a15.57,15.57,0,0,0-1.08-3.36c2.82.06,5.22.06,6,0s.9-.18.9-.78v-16.56H758.82v-3h14.94v3.48a26,26,0,0,0,3.24,5.58,65.15,65.15,0,0,0,8-7.25Z"/><path d="M848.94,1897H824.22v18.6c0,2.82-.72,4-2.88,4.68s-5.94.78-11.7.78a17.7,17.7,0,0,0-1.8-4.14c5,.18,9.36.18,10.68.12s1.62-.42,1.62-1.5V1897h-25v-4h25v-8.75a74.47,74.47,0,0,0,15.72-9.84H801.18v-3.9h39l.84-.24,3,2.28a90,90,0,0,1-19.8,13.79V1893h24.72Z"/><path d="M867.18,1884.67a9.06,9.06,0,1,1-9.06,9A9.09,9.09,0,0,1,867.18,1884.67Zm0,15.23a6.18,6.18,0,1,0,0-12.36,6.18,6.18,0,1,0,0,12.36Z"/><path d="M438.9,1955.17c4.44,10.31,12.24,20,20.76,24.71a23.11,23.11,0,0,0-3.06,3.36c-9-5.58-16.92-16.32-21.6-28.07h-1v22.43h14.28v4H434V1993H429.9v-11.4H415.68v-4H429.9v-22.43h-1.08c-4.74,11.75-12.66,22.43-21.3,28.25a24.18,24.18,0,0,0-2.88-3.18c8-4.92,15.66-14.76,20.16-25.07H406.14v-4H429.9v-12.72H434v12.72h24v4Z"/><path d="M513.9,1977.54a33.64,33.64,0,0,1-8.22,7.38c2.4,2.82,5.22,4.44,8.16,4.38,1.68-.06,2.16-1.5,2.46-5.94a10.31,10.31,0,0,0,3.12,1.62c-.6,6.3-2.1,7.92-5.76,8-4.26,0-8.16-2.22-11.28-6a74.41,74.41,0,0,1-13.68,5.82,36.46,36.46,0,0,0-2.1-3.24,65.61,65.61,0,0,0,13.86-5.34,34.94,34.94,0,0,1-3.84-8.82H482.16v4.38l11.16-1-.06,2.88-11.1,1.08v6.12c0,2.1-.48,3.06-2.16,3.54s-4.38.54-8.94.54a19.42,19.42,0,0,0-1.26-3.18c3.36.12,6.48.06,7.38,0s1.2-.24,1.2-1v-5.7c-4.74.48-9.12.9-12.72,1.2l-.42-3.3c3.54-.24,8.1-.54,13.14-1v-4.68h-12.9v-3.18h12.9v-4.44c-3.78.42-7.68.72-11.28.91a12,12,0,0,0-.9-2.71c8.16-.48,18.18-1.55,23.52-2.94l2.52,2.58c-2.82.66-6.36,1.26-10.08,1.74v4.86h13.68a52.67,52.67,0,0,1-1.2-8.94h3.84a57.48,57.48,0,0,0,1.2,8.94h19v3.18H500.58a31.91,31.91,0,0,0,3.12,6.9,27.09,27.09,0,0,0,6.72-5.94Zm4.62-15.17h-53v-3.24H489.9V1955H471.3v-3.06h18.6v-4H468.06v-3.18h12.66a30,30,0,0,0-3.48-5.16l3.42-1.26a24.4,24.4,0,0,1,4.32,6.24l-.42.18H499.2a54.7,54.7,0,0,0,3.6-6.6l4.14,1.2c-1.2,1.86-2.52,3.84-3.72,5.4h12.84V1948H493.92v4h18.9V1955h-18.9v4.14h24.6Zm-5.7,9a34,34,0,0,0-9.48-5.52l2.16-2.46a38.32,38.32,0,0,1,9.66,5.22Z"/><path d="M577.74,1970.17s-.06,1.19-.12,1.73c-1.14,12.66-2.28,17.64-4.14,19.56a5.52,5.52,0,0,1-4,1.56,66.58,66.58,0,0,1-7.5-.12,9.39,9.39,0,0,0-1.2-3.66c3.12.3,6.06.3,7.2.3a3,3,0,0,0,2.22-.54c1.26-1.32,2.4-5.34,3.36-15.3H536a59.21,59.21,0,0,1-9.66,7.32,19.86,19.86,0,0,0-2.22-3.3c10.26-6,17.82-15.18,23.1-25.43h-20v-3.66H549a82.29,82.29,0,0,0,3.84-10.32l3.9,1a92.32,92.32,0,0,1-3.54,9.3H569c-.72,3.48-1.56,7.62-2.34,10.74h7c-.66,3.47-1.5,7.67-2.28,10.8Zm-49.38,20.33c3.42-3.24,5.7-8.58,7-13.2l3.3,1.08c-1.44,4.92-3.54,10.62-7.14,14.16Zm12.42-42.17a39,39,0,0,0-6-8.34l3.42-1.44a39.57,39.57,0,0,1,6.18,8Zm26.82,21.84c.54-2.11,1.08-4.69,1.56-7.21H545.34a75.18,75.18,0,0,1-5.76,7.21Zm-21.48,7.91a44,44,0,0,1,1.8,11.88l-3.48.54a39.57,39.57,0,0,0-1.62-11.94Zm5.4-25.79c-1.14,2.4-2.46,4.79-3.84,7.08h15.24c.54-2,1.14-4.62,1.62-7.08Zm3.18,25a43,43,0,0,1,3.6,10.26l-3.3.9a45.91,45.91,0,0,0-3.42-10.44Zm10.32,8a38.83,38.83,0,0,0-4.56-8.1l2.76-1.08a34.18,34.18,0,0,1,4.74,7.86Z"/><path d="M614.28,1938.55c-.06,2.1-.12,5.1-.42,8.64.9,7,4.56,32.51,25.74,42a12.63,12.63,0,0,0-2.88,3.36c-15.42-7.26-21.72-22.74-24.6-34-2.64,12.23-8.94,26.33-24.06,34.19a13.77,13.77,0,0,0-3.12-3.06c25-12.48,24.78-42.11,25-51.11Z"/><path d="M661,1939c-1,2.94-2.1,6.3-3.18,8.88H668v38.75h-16.8v4.8h-3.66v-43.55h6.66a64.68,64.68,0,0,0,2.58-9.72Zm3.3,12.47H651.18v13.08h13.14Zm0,31.56v-14.88H651.18v14.88Zm33.06-33.17c-1,27.53-1.8,36.71-4.2,39.59a5.6,5.6,0,0,1-4.56,2.28,74.94,74.94,0,0,1-8.82-.12,9.42,9.42,0,0,0-1.32-3.9c3.9.36,7.5.36,8.82.36s1.92-.12,2.52-.9c2-2.1,2.94-11.34,3.72-35.7H677.82a55.33,55.33,0,0,1-5.64,10.68,36.22,36.22,0,0,0-3.36-2.22c4.08-5.33,7.32-13.61,9.18-21.89l3.84.84c-.78,3-1.62,6-2.64,8.88h18.18Zm-12.78,27a106.51,106.51,0,0,0-9.3-13.92l3.06-1.79a102.47,102.47,0,0,1,9.6,13.61Z"/><path d="M710,1977.3v5.58h-3.36v-38.75h13.68v33.17Zm0-29.81v26.45h7.08v-26.45Zm46.26,40.85c0,2-.48,3-2,3.6s-4.38.6-9.12.54a14.87,14.87,0,0,0-1.2-3.18c3.6.12,6.78.06,7.62.06s1.2-.3,1.2-1.08v-5H729.12a17.68,17.68,0,0,1-6.72,9.66,11.73,11.73,0,0,0-2.64-2.52c5.94-4.38,6.84-10.26,6.84-15.24v-7.49c-.72.54-1.5,1.07-2.16,1.55-.48-.59-1.74-2-2.4-2.7a31.32,31.32,0,0,0,11.1-10.61l3.3,1c-.36.59-.78,1.2-1.2,1.85h12.6l.6-.18,2.22,1.63a42.12,42.12,0,0,1-5.22,5.21H756.3Zm-34-33.89,2.46-.42v-12.12h3v11.7l4.32-.72v-14.46h3.36v5.16h6.24v3.06h-6.24v5.7l6.18-1,.42,3.12-19.38,3Zm10.56,7.31a33.1,33.1,0,0,1-3.54,3.66H741a38.19,38.19,0,0,0,4-3.66Zm-2.7,14.16a22.51,22.51,0,0,1-.42,4.38h9.36v-4.38Zm0-3h8.94v-4.44H730.2Zm12.54,0h10v-4.44h-10Zm10,7.38v-4.38h-10v4.38Zm2-27.23c1.2,0,1.44-.42,1.62-3.54a10.25,10.25,0,0,0,3,1.26c-.36,4.2-1.38,5.28-4.26,5.28h-6.48c-4,0-4.92-.9-4.92-4.44v-13.14h3.36v5.22h10.26v3.06H747.12v4.86c0,1.2.24,1.44,1.86,1.44Z"/><path d="M806.46,1987.86c6.18,0,7.26-2,8.1-10.38a12.31,12.31,0,0,0,4,1.62c-1,9.48-2.94,12.66-12.12,12.66H782.34c-9.48,0-12.42-1.92-12.42-9.78v-40.19H813.3V1970h-4.08v-3.18H774v15.24c0,4.56,1.32,5.76,7.92,5.76ZM774,1945.69V1963h15.66v-17.33Zm35.22,0h-15.6V1963h15.6Z"/><path d="M837.18,1956.67a9.06,9.06,0,1,1-9.06,9A9.09,9.09,0,0,1,837.18,1956.67Zm0,15.23a6.18,6.18,0,1,0,0-12.36,6.18,6.18,0,1,0,0,12.36Z"/><rect class="cls-2" x="1113" y="1285" width="65" height="220" rx="12"/><path class="cls-1" d="M1157.05,1323.79a27.61,27.61,0,0,0,11.5,8.1,11.65,11.65,0,0,0-2.15,2.55,30.77,30.77,0,0,1-12.8-10.65h-15.95a34.39,34.39,0,0,1-13,11.3,11.43,11.43,0,0,0-2.15-2.55,30.39,30.39,0,0,0,11.6-8.75H1123v-2.85h10v-16.15h-7.7V1302h7.7v-5h3.3v5h18.55v-5h3.35v5h7.65v2.8h-7.65v16.15h9.8v2.85Zm-10,14.5h17.3v2.85H1126.8v-2.85h16.9v-5.6h-10.45v-2.8h10.45v-4.4h3.35v4.4h10.65v2.8h-10.65Zm-10.8-33.5v3.6h18.55v-3.6Zm0,9.8h18.55v-3.65h-18.55Zm0,6.35h18.55v-3.8h-18.55Z"/><path class="cls-1" d="M1141.25,1365.54s0,1.15,0,1.55c-.6,15.85-1.2,21.2-2.6,23a3.71,3.71,0,0,1-2.8,1.45,32.65,32.65,0,0,1-4.45,0,9.25,9.25,0,0,0-.85-3c1.75.15,3.2.15,3.9.15a1.42,1.42,0,0,0,1.45-.65c1-1.2,1.6-6,2.15-19.35h-6.8c-.55,10-2,18.25-6.45,23.65a9.53,9.53,0,0,0-2.55-2.35c5.45-6.45,5.9-17.85,6.1-31.55h-5.2v-3.1h20.1v3.1h-11.65c0,2.45-.1,4.85-.2,7.15Zm-7.9-10.45a33.47,33.47,0,0,0-4.25-7.15l2.9-1.15a31.92,31.92,0,0,1,4.4,7Zm23.85-7.45a15.26,15.26,0,0,1-.85,2.55c2.65,5.45,7.7,11.35,12.45,14a13,13,0,0,0-2.45,2.75c-4.25-2.7-8.5-8-11.4-13.3a32.61,32.61,0,0,1-11,13.6,12.79,12.79,0,0,0-2.35-2.65c5.85-3.6,10.35-10.2,12.5-17.85Zm-8.3,32.45a74,74,0,0,1,13.6,8.25l-2.25,2.9c-2.85-2.6-8.75-6.3-13.4-8.65Zm9.5-4.85a66.22,66.22,0,0,0-8.6-6.85l2.15-2.2a67.46,67.46,0,0,1,8.75,6.55Z"/><path class="cls-1" d="M1148.6,1397.94c-.35.6-.8,1.15-1.2,1.75,4.95,5.5,13.85,10.9,21.4,13.3a16.56,16.56,0,0,0-2.35,2.9,60.7,60.7,0,0,1-21-13.9,48.65,48.65,0,0,1-12.4,10h25.1v3.1h-11.1v7.05h17.75v3H1147.1v12.7H1167v3.1h-43v-3.1h19.55v-12.7h-17.35v-3h17.35v-7.05h-10.9v-2.9a58.72,58.72,0,0,1-8.25,3.85,11.79,11.79,0,0,0-2.25-3c9.35-3.1,18.55-9.1,23.3-16.5Zm-15.25,28.65a42.46,42.46,0,0,1,4.8,9.1l-2.9,1.2a40.78,40.78,0,0,0-4.65-9.2Zm18.55,9.3a71.79,71.79,0,0,0,5.35-9.35l3.15,1.25a101.62,101.62,0,0,1-6,9.2Z"/><path class="cls-1" d="M1160,1459.09a51.83,51.83,0,0,1-12,19.6,49.94,49.94,0,0,0,20.5,10.5,16.79,16.79,0,0,0-2.25,3,50.92,50.92,0,0,1-20.75-11.1c-5.65,5-12.55,8.6-21,11.3a15.53,15.53,0,0,0-2-3.05c8.35-2.45,15.1-5.9,20.6-10.6a57.05,57.05,0,0,1-12.2-19.65h-7.75v-3.25h44.75v3.25Zm-25.75,0a52.13,52.13,0,0,0,11.3,17.3,47.46,47.46,0,0,0,10.7-17.3Zm11.25-3.55a38.13,38.13,0,0,0-3.8-7.8l3.4-1a39,39,0,0,1,4,7.65Z"/><rect class="cls-2" x="1113" y="460" width="65" height="126" rx="12"/><path class="cls-1" d="M1132.7,489.82c1.25,1.6,4.9,6.7,5.7,8.05l-2,2.45c-.7-1.5-2.35-4.4-3.75-6.65V520h-3.15V495.57c-1.5,5.05-3.5,9.9-5.55,12.85a14.83,14.83,0,0,0-1.75-3.1c2.9-4,5.8-11.5,7.2-18h-6.2v-3.15h6.3v-9.65h3.15v9.65h5.45v3.15h-5.45Zm19.1.7a19.47,19.47,0,0,0,.45,2.65c-10.15,2.7-11.6,3.15-12.5,3.75a12.13,12.13,0,0,0-1.1-3.2c.7-.2,1.55-.5,1.55-2.2v-16.7h3.25v6.5h8.35v2.9h-8.35v8.3Zm2.35,5.5-2,3.75h12.65V520h-3.4v-1.75h-17v2h-3.3V499.77h7.9c.55-1.5,1.2-3.25,1.55-4.6Zm7.3,6.5h-17v5.05h17Zm0,13v-5.3h-17v5.3Zm2.25-22.4c1.25,0,1.5-.75,1.65-5.25a9.16,9.16,0,0,0,2.85,1.25c-.3,5.45-1.2,6.95-4.15,6.95h-5.85c-3.65,0-4.55-.95-4.55-4.45V474.87h3.25v6.5h10.2v2.9h-10.2v7.35c0,1.3.25,1.5,1.65,1.5Z"/><path class="cls-1" d="M1167.55,549.87v2.5H1123.4v-2.5h20.25v-3.2H1126.8v-2.3h16.85v-3H1128.2v-2.25h15.45v-3.2H1123.5v-2.5h20.15v-3H1128.8V528h14.85v-3.55h3.25V528h14.45v5.4h6.15v2.5h-6.15v5.45H1146.9v3h17.3v2.3h-17.3v3.2Zm-37.75,5h31.75v15.25h-3.25v-1.6H1133v1.7h-3.2Zm3.2,2.4v3.2h25.3v-3.2Zm25.3,8.85v-3.4H1133v3.4Zm-11.4-32.7h11.15v-3H1146.9Zm0,5.7h11.15v-3.2H1146.9Z"/><line class="cls-3" x1="601.5" y1="792.5" x2="601.5" y2="783.5"/><path d="M627.53,1535.65c-14.35,0-28.75-.08-43-2l6.78.91a119.22,119.22,0,0,1-29.95-7.81l6.09,2.57a128.73,128.73,0,0,1-27.66-16.69l5.16,4A191.45,191.45,0,0,1,510.84,1482l4,5.16c-19.72-25.6-34.22-54.67-48.41-83.56Q440.25,1350.25,416,1296q-13.61-30.45-26.56-61.17l2.57,6.09q-3.24-7.68-6.44-15.37a28.62,28.62,0,0,0-11.72-15.24,19,19,0,0,0-9.48-3,19.34,19.34,0,0,0-10.17.45c-6.17,2-12.12,5.82-15.24,11.72l-2.57,6.09a25.78,25.78,0,0,0,0,13.56q20.23,48.64,41.88,96.67,20.5,45.35,42.4,90c12,24.5,24.08,49.12,39.25,71.86a279.21,279.21,0,0,0,28,35.83,198,198,0,0,0,34.46,29.15,129.56,129.56,0,0,0,44.16,19.13c16.34,3.57,33.18,4.61,49.86,4.79,3.71,0,7.42.05,11.14.05a26.33,26.33,0,0,0,18-7.47,28.44,28.44,0,0,0,7.47-18c-.3-6.6-2.46-13.44-7.47-18s-11.12-7.47-18-7.47Z"/><path d="M627,1257.43c-14.85.12-29.69.6-44.51,1.56-16.82,1.1-33.54,3-50.23,5.28a440.43,440.43,0,0,0-84.33,19.8,403.13,403.13,0,0,0-50.76,21.58A24.54,24.54,0,0,0,385,1331.06a18.9,18.9,0,0,0,3,9.48l4,5.16a25.58,25.58,0,0,0,11.26,6.56l6.77.91a25.46,25.46,0,0,0,12.87-3.48q11.16-5.7,22.69-10.57l-6.09,2.57a404.9,404.9,0,0,1,83.81-24.61q12.31-2.28,24.72-3.94l-6.78.91a651.12,651.12,0,0,1,66.61-5.26q9.55-.3,19.13-.36a26.23,26.23,0,0,0,25.5-25.5l-.91-6.78A25.45,25.45,0,0,0,645,1264.9c-5-4.56-11.14-7.53-18-7.47Z"/><path d="M626.47,1586.65c7.57,0,15.14,0,22.71-.32a277.55,277.55,0,0,0,28.18-2.72,124.06,124.06,0,0,0,20.51-4.58,130,130,0,0,0,25.4-11.14,154.66,154.66,0,0,0,16.68-11.2,220.16,220.16,0,0,0,19.39-16.29c10.94-10.57,20.5-22.56,29.35-34.91,15.44-21.58,27.64-45.25,39.37-69q22-44.46,42.6-89.6,21.9-47.93,42.23-96.54,2.36-5.61,4.7-11.23A19.34,19.34,0,0,0,918,1229a19,19,0,0,0-3-9.48,28.62,28.62,0,0,0-15.24-11.72c-6.53-1.48-13.86-1.16-19.65,2.57l-5.16,4a25.45,25.45,0,0,0-6.56,11.25q-3.2,7.7-6.44,15.37l2.57-6.09q-23.07,54.66-48.13,108.46-12.61,27.06-25.72,53.9c-7.39,15.13-14.79,30.26-22.86,45a339.82,339.82,0,0,1-28.66,44.87l4-5.16a191.45,191.45,0,0,1-34.11,34.68l5.16-4a128.73,128.73,0,0,1-27.66,16.69l6.09-2.57a119.25,119.25,0,0,1-29.94,7.81l6.77-.91c-14.24,1.89-28.65,2-43,2a26.29,26.29,0,0,0-18,7.47,28.38,28.38,0,0,0-7.47,18c.3,6.59,2.47,13.43,7.47,18s11.12,7.47,18,7.47Z"/><path d="M627,1308.43c22.37.18,44.74,1.18,67,3.42q9.39.95,18.74,2.2l-6.78-.91c28.95,3.91,57.64,10.16,85.29,19.67q11.76,4.05,23.24,8.88l-6.09-2.57q11.52,4.88,22.69,10.57a18.92,18.92,0,0,0,9.48,3,26.18,26.18,0,0,0,25.4-12.17l2.58-6.09a25.78,25.78,0,0,0,0-13.56L866,1314.8a25.53,25.53,0,0,0-9.14-9.15,403.23,403.23,0,0,0-87.36-32.35c-14-3.42-28.16-6.14-42.41-8.27-16.64-2.48-33.36-4.43-50.14-5.66-16.61-1.22-33.26-1.81-49.92-1.94a26.21,26.21,0,0,0-25.5,25.5l.91,6.78A25.45,25.45,0,0,0,609,1301l5.16,4a25.52,25.52,0,0,0,12.87,3.48Z"/></svg>