<svg id="Layer_1" data-name="Layer 1" xmlns="http://www.w3.org/2000/svg" viewBox="0 0 1242 2208"><defs><style>.cls-1{fill:#f6eabe;}.cls-2{fill:#999;}.cls-3{fill:none;stroke:#000;stroke-miterlimit:10;}</style></defs><rect class="cls-1" width="1242" height="2208"/><path d="M559.92,324.27c-21.43,55.58-46,108-76.22,158H916.42V843.54H861.64V802.25H499.58v45.26h-52.4V537.85c-42.09,58-92.11,109.57-151.66,152.45-7.94-12.71-23.82-31-34.93-42.08,114.33-78.61,191.35-195.32,243-324H286V272.66H521.81A1137.7,1137.7,0,0,0,563.1,122.59l54.78,11.12c-11.11,46-23.82,92.9-39.7,139h397v51.61ZM499.58,533.09V751.44H861.64V533.09Z"/><path d="M308.76,1814.18v4H255.3v-4h22.62v-46.85h4.14v18.54h22.62v4H282.06v24.3Z"/><path d="M367.74,1798.17s-.06,1.19-.12,1.73c-1.14,12.66-2.28,17.64-4.14,19.56a5.52,5.52,0,0,1-4,1.56,66.58,66.58,0,0,1-7.5-.12,9.39,9.39,0,0,0-1.2-3.66c3.12.3,6.06.3,7.2.3a3,3,0,0,0,2.22-.54c1.26-1.32,2.4-5.34,3.36-15.3H326a59.21,59.21,0,0,1-9.66,7.32,19.86,19.86,0,0,0-2.22-3.3c10.26-6,17.82-15.18,23.1-25.43h-20v-3.66H339a82.29,82.29,0,0,0,3.84-10.32l3.9,1a92.32,92.32,0,0,1-3.54,9.3H359c-.72,3.48-1.56,7.62-2.34,10.74h7c-.66,3.47-1.5,7.67-2.28,10.8Zm-49.38,20.33c3.42-3.24,5.7-8.58,7-13.2l3.3,1.08c-1.44,4.92-3.54,10.62-7.14,14.16Zm12.42-42.17a39,39,0,0,0-6-8.34l3.42-1.44a39.57,39.57,0,0,1,6.18,8Zm26.82,21.84c.54-2.11,1.08-4.69,1.56-7.21H335.34a75.18,75.18,0,0,1-5.76,7.21Zm-21.48,7.91a44,44,0,0,1,1.8,11.88l-3.48.54a39.57,39.57,0,0,0-1.62-11.94Zm5.4-25.79c-1.14,2.4-2.46,4.79-3.84,7.08h15.24c.54-2,1.14-4.62,1.62-7.08Zm3.18,25a43,43,0,0,1,3.6,10.26l-3.3.9a45.91,45.91,0,0,0-3.42-10.44Zm10.32,8a38.83,38.83,0,0,0-4.56-8.1l2.76-1.08a34.18,34.18,0,0,1,4.74,7.86Z"/><path d="M401,1769.49H386.22v35.15h-4v-38.87H401Z"/><path d="M453.06,1771.83c-3.48,13.74-9.9,24.3-18.06,32.27a57.36,57.36,0,0,0,24.78,12.78,15.56,15.56,0,0,0-2.64,3.54,58.72,58.72,0,0,1-25.2-13.56,72.49,72.49,0,0,1-25,13.62,10.78,10.78,0,0,0-2.46-3.54,70.44,70.44,0,0,0,24.6-12.84c-7.38-7.74-12.66-17.69-16.32-29.33H408v-4h41.7l.78-.24Zm-36.3,2.94c3.36,10.38,8.4,19.44,15.36,26.63a59.85,59.85,0,0,0,16.08-26.63Z"/><path d="M463,1817.84h14.82v-35.15h4v38.87H463Z"/><path d="M518.16,1765.17l3.24,1.74c-7.08,7.26-11.28,16.2-11.28,26.76s4.2,19.49,11.28,26.75l-3.24,1.74c-7.32-7.5-11.94-17-11.94-28.49S510.84,1772.67,518.16,1765.17Z"/><path d="M541.92,1767.69a98.85,98.85,0,0,1-6.18,13.56v39.59H531.9v-33.35a61.73,61.73,0,0,1-5.46,7,32.86,32.86,0,0,0-2.28-3.9c5.58-5.87,10.8-14.87,14-24Zm34.14,28c-2.1,1.26-4.44,2.64-6.84,3.78,2,6.06,5.82,11.82,10.38,14.52a11.2,11.2,0,0,0-2.64,2.94c-4.62-3.18-8.46-9.42-10.68-16a27.45,27.45,0,0,1-2.76,1.2c2.58,6.84,1.86,14-1,16.68a6.91,6.91,0,0,1-5.22,1.92c-1.08,0-2.4-.06-3.78-.18a9.31,9.31,0,0,0-1-3.42,38.26,38.26,0,0,0,4.14.24,3.66,3.66,0,0,0,3.12-1.14c1.56-1.38,2.22-5.16,1.44-9.36-5.16,4.92-13.08,9.36-19.8,11.7a15.8,15.8,0,0,0-2.34-2.82c7.62-2.28,16.62-7.14,21.3-12.24a35.76,35.76,0,0,0-1.5-3.48,63.52,63.52,0,0,1-17.22,9.9,16.14,16.14,0,0,0-2.22-2.64c5.94-1.8,13.74-5.76,17.88-9.54a16.39,16.39,0,0,0-2.94-3.18,58.44,58.44,0,0,1-13.56,7.26,11.26,11.26,0,0,0-2.22-2.58,52.7,52.7,0,0,0,15.06-7.55H543.48v-9.36c-1.14,1-2.28,2-3.54,2.94a9.37,9.37,0,0,0-2.52-2.58,44.69,44.69,0,0,0,13.86-16.26l3.84.72c-.6,1.2-1.32,2.34-2,3.54h11.1l.72-.18,2.34,1.68a52.13,52.13,0,0,1-4.8,6.84h13.08v12.66H557.94c-.36.36-.78.66-1.2,1a21,21,0,0,1,5.64,6.84,110,110,0,0,0,10.92-6.42ZM551,1773.81a54.58,54.58,0,0,1-4.2,5.16h11.58a37.88,37.88,0,0,0,3.72-5.16Zm-3.9,14.69h10.5v-6.42h-10.5Zm24.72-6.42H561.18v6.42H571.8Z"/><path d="M606.78,1781.54a74.71,74.71,0,0,1-5.76,11.94h32.7v27.3h-4.14v-3.12H602.22v3.42h-4v-23.4a50.91,50.91,0,0,1-11.46,11.52,21.84,21.84,0,0,0-2.64-3.18c8.64-5.94,14.46-14.76,18.36-24.48H586.08v-3.89H603.9a86,86,0,0,0,3.12-11.34l4.14.84c-.84,3.48-1.8,7-3,10.5h30v3.89Zm-4.56,15.78v16.5h27.36v-16.5Z"/><path d="M698.94,1801.22H674.1v14c0,3-1,4.2-3.06,4.86s-5.94.72-12.3.66a17.27,17.27,0,0,0-1.74-3.9c5.16.12,9.84.06,11.16.06s1.86-.48,1.86-1.74v-13.92H645.18v-3.9H670v-10.19H649.14v-3.84H670v-9.6c-6.66.66-13.56,1.14-19.8,1.44a16.18,16.18,0,0,0-1-3.54c14.16-.72,31.8-2.28,40.74-5.16l2.94,3.24a123.25,123.25,0,0,1-18.78,3.6v10h21.48v3.84H674.1v10.19h24.84Z"/><path d="M705.84,1822.16l-3.24-1.74c7.08-7.26,11.28-16.2,11.28-26.75s-4.2-19.5-11.28-26.76l3.24-1.74c7.32,7.5,11.94,17,11.94,28.5S713.16,1814.66,705.84,1822.16Z"/><path d="M763,1774.71v10.86l.66-.78c7.32,3.54,16.74,8.93,21.54,12.53l-2.76,3.6c-4.2-3.42-12.48-8.46-19.44-12.12v32.1h-4.2v-46.19H735.54v-4h53v4Z"/><path d="M847.74,1798.17s-.06,1.19-.12,1.73c-1.14,12.66-2.28,17.64-4.14,19.56a5.52,5.52,0,0,1-4,1.56,66.58,66.58,0,0,1-7.5-.12,9.39,9.39,0,0,0-1.2-3.66c3.12.3,6.06.3,7.2.3a3,3,0,0,0,2.22-.54c1.26-1.32,2.4-5.34,3.36-15.3H806a59.21,59.21,0,0,1-9.66,7.32,19.86,19.86,0,0,0-2.22-3.3c10.26-6,17.82-15.18,23.1-25.43h-20v-3.66H819a82.29,82.29,0,0,0,3.84-10.32l3.9,1a92.32,92.32,0,0,1-3.54,9.3H839c-.72,3.48-1.56,7.62-2.34,10.74h7c-.66,3.47-1.5,7.67-2.28,10.8Zm-49.38,20.33c3.42-3.24,5.7-8.58,7-13.2l3.3,1.08c-1.44,4.92-3.54,10.62-7.14,14.16Zm12.42-42.17a39,39,0,0,0-6-8.34l3.42-1.44a39.57,39.57,0,0,1,6.18,8Zm26.82,21.84c.54-2.11,1.08-4.69,1.56-7.21H815.34a75.18,75.18,0,0,1-5.76,7.21Zm-21.48,7.91a44,44,0,0,1,1.8,11.88l-3.48.54a39.57,39.57,0,0,0-1.62-11.94Zm5.4-25.79c-1.14,2.4-2.46,4.79-3.84,7.08h15.24c.54-2,1.14-4.62,1.62-7.08Zm3.18,25a43,43,0,0,1,3.6,10.26l-3.3.9a45.91,45.91,0,0,0-3.42-10.44Zm10.32,8a38.83,38.83,0,0,0-4.56-8.1l2.76-1.08a34.18,34.18,0,0,1,4.74,7.86Z"/><path d="M881,1769.49H866.22v35.15h-4v-38.87H881Z"/><path d="M934.26,1772.67v46.49H930v-4.86H894.06v5.16H890v-46.79ZM930,1810.28v-33.59H894.06v33.59Z"/><path d="M943,1817.84h14.82v-35.15h4v38.87H943Z"/><path d="M980.88,1802c4.68-2,7.26-4.86,7.56-9.17a4,4,0,0,1-1.14.11c-2.34,0-4.26-1.31-4.26-4.07a4,4,0,0,1,4.32-4.08c3.18,0,4.86,2.58,4.86,6.66,0,6.41-4,11.21-10.08,13.43Z"/><path d="M486.9,1876.1s-.06,1.14-.12,1.62c-.78,8.4-1.56,11.88-3,13.26a5.12,5.12,0,0,1-3.78,1.38,74.41,74.41,0,0,1-7.92-.12,9,9,0,0,0-1.2-3.42c3.3.24,6.6.3,7.74.3a3.22,3.22,0,0,0,2.22-.48c.9-.84,1.56-3.42,2.16-9.42H469c.66-3.48,1.5-8.7,2-12.89h12.12v-6.66H473V1859a49.59,49.59,0,0,1-6.9,2.93,15.49,15.49,0,0,0-2.22-3,42.47,42.47,0,0,0,12.06-5.75,40.34,40.34,0,0,0-6.9-5.52l2.34-2.16a42.45,42.45,0,0,1,7.38,5.58,30.58,30.58,0,0,0,6.06-6.78H470.52V1841H486.9l.72-.18L490,1842c-2.64,6-7.38,10.8-12.78,14.39h9.54v13.08H474c-.3,2.28-.66,4.56-1,6.6Zm30.9-29.27a66.55,66.55,0,0,1-8.7,6.78,41.49,41.49,0,0,0,10.5,4.43,20.1,20.1,0,0,0-2.4,3.18,44.52,44.52,0,0,1-8.88-3.84v8.46c0,1.33.12,1.68,1,1.68h4.74a15.17,15.17,0,0,0,2.82-.18,21.74,21.74,0,0,0,.24,2.83,11.25,11.25,0,0,1-3,.23h-5.22c-3.36,0-4-1.32-4-4.61v-6.3h-8.7V1861a11.94,11.94,0,0,1-6.54,11.16,12.87,12.87,0,0,0-2.58-2.52c4.86-2.51,5.7-5.81,5.7-8.69v-4.74h13.74a40.47,40.47,0,0,1-14.82-16.8l3.24-1a33.07,33.07,0,0,0,4.86,7.44,73.26,73.26,0,0,0,8-7.08l2.94,2a107.11,107.11,0,0,1-8.88,7.26,45.63,45.63,0,0,0,4.56,3.72,68.25,68.25,0,0,0,8.46-7Zm-4.44,27.47a25.88,25.88,0,0,1-8,10.8c3.3,2,6.24,3.9,8.34,5.46l-2,2.64c-2.22-1.68-5.4-3.84-8.94-6.06a45.77,45.77,0,0,1-13.8,5.94,10.15,10.15,0,0,0-1.86-2.94,43.71,43.71,0,0,0,12.54-4.92c-3.3-2-6.66-4-9.66-5.7l2-2.16c3.18,1.74,6.9,3.84,10.44,6a25,25,0,0,0,6.18-6.9H489.84v-2.94h20.64l.66-.18Z"/><path d="M551,1841.49H536.22v35.15h-4v-38.87H551Z"/><path d="M603.06,1843.83c-3.48,13.74-9.9,24.3-18.06,32.27a57.36,57.36,0,0,0,24.78,12.78,15.56,15.56,0,0,0-2.64,3.54,58.72,58.72,0,0,1-25.2-13.56,72.49,72.49,0,0,1-25,13.62,10.78,10.78,0,0,0-2.46-3.54,70.44,70.44,0,0,0,24.6-12.84c-7.38-7.74-12.66-17.69-16.32-29.33H558v-4h41.7l.78-.24Zm-36.3,2.94c3.36,10.38,8.4,19.44,15.36,26.63a59.85,59.85,0,0,0,16.08-26.63Z"/><path d="M613,1889.84h14.82v-35.15h4v38.87H613Z"/><path d="M661,1839c-1,2.94-2.1,6.3-3.18,8.88H668v38.75h-16.8v4.8h-3.66v-43.55h6.66a64.68,64.68,0,0,0,2.58-9.72Zm3.3,12.47H651.18v13.08h13.14Zm0,31.56v-14.88H651.18v14.88Zm33.06-33.17c-1,27.53-1.8,36.71-4.2,39.59a5.6,5.6,0,0,1-4.56,2.28,74.94,74.94,0,0,1-8.82-.12,9.42,9.42,0,0,0-1.32-3.9c3.9.36,7.5.36,8.82.36s1.92-.12,2.52-.9c2-2.1,2.94-11.34,3.72-35.7H677.82a55.33,55.33,0,0,1-5.64,10.68,36.22,36.22,0,0,0-3.36-2.22c4.08-5.33,7.32-13.61,9.18-21.89l3.84.84c-.78,3-1.62,6-2.64,8.88h18.18Zm-12.78,27a106.51,106.51,0,0,0-9.3-13.92l3.06-1.79a102.47,102.47,0,0,1,9.6,13.61Z"/><path d="M758.58,1858v3.65h-53.1V1858h15.36a31.79,31.79,0,0,0-3.66-9.12L721,1848a30.77,30.77,0,0,1,4,9.3l-2.52.66h16.38a80,80,0,0,0,4.5-10.2l4.32,1.08c-1.5,3-3.12,6.42-4.62,9.12Zm-3-10.5H708.9v-3.6h21.9a23.94,23.94,0,0,0-2.46-5.16l3.9-.84a26.71,26.71,0,0,1,3,6h20.34ZM713.88,1867h36.84V1893h-4.08v-2.16h-28.8v2.28h-4Zm4,3.48v6.66h28.8v-6.66Zm28.8,16.86v-7h-28.8v7Z"/><path d="M777.18,1856.67a9.06,9.06,0,1,1-9.06,9A9.09,9.09,0,0,1,777.18,1856.67Zm0,15.23a6.18,6.18,0,1,0,0-12.36,6.18,6.18,0,1,0,0,12.36Z"/><path d="M315.24,1911.51a13.18,13.18,0,0,1-.84,1.08c5.7,5.64,16.2,10.62,25.56,12.83a12.89,12.89,0,0,0-2.52,3.12,71.7,71.7,0,0,1-14.88-6.17l-.06,1.92H301.74l.06-1.68a88.84,88.84,0,0,1-14.88,6.23,32.14,32.14,0,0,0-2.28-3c10.8-3,21.48-8.28,27.12-15.6Zm-23.16,16H332v14.88h-39.9Zm3.42,12.06h14.7v-9.23H295.5Zm.12,5.82H329v19.38h-4v-1.86h-25.5v2h-3.9Zm6.66-14.21a21.72,21.72,0,0,1,3.78,6.83l-3.06,1.21a27.26,27.26,0,0,0-3.6-7.09Zm-2.76,17.15v4.32H325v-4.32Zm25.5,11.64v-4.38h-25.5v4.38Zm-4.2-38.57a48.46,48.46,0,0,1-8.58-6.42,45.19,45.19,0,0,1-8.34,6.42Zm7.5,8.94H313.56v9.23h14.76Zm-10.62,7.79a53.26,53.26,0,0,0,3.54-7.2l3.36,1.08a73,73,0,0,1-4.14,7.21Z"/><path d="M346.08,1961.48c3.06-2.58,5.64-7,7.08-10.44l3.3,1.5c-1.68,3.6-4.08,8-7.14,10.86Zm51.72-36.9v3.25H346.56v-3.25h14.16a23.89,23.89,0,0,0-2.34-5.45l3.36-.84H349.26V1915h21.9c-.72-1.44-1.56-2.94-2.34-4.2l3.78-.9a39.9,39.9,0,0,1,2.94,5.1h19.2v3.3H382.86l3.24.78c-1,1.92-2,3.84-3,5.51Zm-7,23.7H369.66a47.07,47.07,0,0,1,8.82,6.24L376,1957a48.61,48.61,0,0,0-9.3-6.9l2-1.8H353.58V1931h37.2Zm-3.9-14.45H357.36v4.43h29.52Zm0,7.13H357.36v4.44h29.52Zm-8.22,20.16c2.58,0,3-.72,3.24-6.24a12.08,12.08,0,0,0,3.54,1.38c-.48,6.66-1.74,8.22-6.42,8.22H367.44c-5.82,0-7.38-1-7.38-5v-8H364v8c0,1.38.54,1.68,3.72,1.68ZM362,1918.29a26.19,26.19,0,0,1,2.76,6.18l-.48.11H379a59.18,59.18,0,0,0,3.06-6.29Zm27.66,32.21a46.55,46.55,0,0,1,8,10.2l-3.36,1.74a49,49,0,0,0-7.8-10.56Z"/><path d="M457.74,1942.17s-.06,1.19-.12,1.73c-1.14,12.66-2.28,17.64-4.14,19.56a5.52,5.52,0,0,1-4,1.56,66.58,66.58,0,0,1-7.5-.12,9.39,9.39,0,0,0-1.2-3.66c3.12.3,6.06.3,7.2.3a3,3,0,0,0,2.22-.54c1.26-1.32,2.4-5.34,3.36-15.3H416a59.21,59.21,0,0,1-9.66,7.32,19.86,19.86,0,0,0-2.22-3.3c10.26-6,17.82-15.18,23.1-25.43h-20v-3.66H429a82.29,82.29,0,0,0,3.84-10.32l3.9,1a92.32,92.32,0,0,1-3.54,9.3H449c-.72,3.48-1.56,7.62-2.34,10.74h7c-.66,3.47-1.5,7.67-2.28,10.8Zm-49.38,20.33c3.42-3.24,5.7-8.58,7-13.2l3.3,1.08c-1.44,4.92-3.54,10.62-7.14,14.16Zm12.42-42.17a39,39,0,0,0-6-8.34l3.42-1.44a39.57,39.57,0,0,1,6.18,8Zm26.82,21.84c.54-2.11,1.08-4.69,1.56-7.21H425.34a75.18,75.18,0,0,1-5.76,7.21Zm-21.48,7.91a44,44,0,0,1,1.8,11.88l-3.48.54a39.57,39.57,0,0,0-1.62-11.94Zm5.4-25.79c-1.14,2.4-2.46,4.79-3.84,7.08h15.24c.54-2,1.14-4.62,1.62-7.08Zm3.18,25a43,43,0,0,1,3.6,10.26l-3.3.9a45.91,45.91,0,0,0-3.42-10.44Zm10.32,8a38.83,38.83,0,0,0-4.56-8.1l2.76-1.08a34.18,34.18,0,0,1,4.74,7.86Z"/><path d="M514.92,1959.32c0,2.76-.78,4-2.64,4.68s-5.46.72-11.1.66a12.92,12.92,0,0,0-1.38-3.84c4.32.18,8.4.12,9.6.06s1.56-.42,1.56-1.56v-12.78H494.22v17.94h-4v-17.94H474.78c-.9,6.72-2.88,13.56-7.56,18.78a11.58,11.58,0,0,0-3-2.64c6.6-7.44,7.26-18,7.26-26.46v-21.59h43.44Zm-24.66-16.56v-10.5H475.38v4c0,2.11-.06,4.26-.24,6.54Zm-14.88-24.35v10.13h14.88v-10.13Zm35.58,0H494.22v10.13H511Zm0,24.35v-10.5H494.22v10.5Z"/><path d="M578.94,1945.22H554.1v14c0,3-1,4.2-3.06,4.86s-5.94.72-12.3.66a17.27,17.27,0,0,0-1.74-3.9c5.16.12,9.84.06,11.16.06s1.86-.48,1.86-1.74v-13.92H525.18v-3.9H550v-10.19H529.14v-3.84H550v-9.6c-6.66.66-13.56,1.14-19.8,1.44a16.18,16.18,0,0,0-1-3.54c14.16-.72,31.8-2.28,40.74-5.16l2.94,3.24a123.25,123.25,0,0,1-18.78,3.6v10h21.48v3.84H554.1v10.19h24.84Z"/><path d="M601.14,1928h10.74v3.72H601.14v1.62c2.22,2.39,8.7,10,10.14,11.87l-2.46,3.24a129,129,0,0,0-7.68-10.49v26.93h-4v-27.17c-3,7.07-7.2,14.21-11.1,18.41a28.3,28.3,0,0,0-2.22-3.66c4.56-4.62,9.6-13.08,12.36-20.75H585.24V1928h11.88v-10.32c-3.42.54-6.9,1-10.14,1.44a15.29,15.29,0,0,0-1.08-3.18c7.92-1.08,17.52-2.82,22.68-5l2.76,3.12a83.55,83.55,0,0,1-10.2,2.82Zm34.74-12.06V1962h-4v-4.56h-14v5H614v-46.49Zm-4,37.67v-33.83h-14v33.83Z"/><path d="M694.26,1916.67v46.49H690v-4.86H654.06v5.16H650v-46.79ZM690,1954.28v-33.59H654.06v33.59Z"/><path d="M756.6,1959.8c0,2.58-.72,3.84-2.4,4.5s-4.74.78-9.9.78a14.91,14.91,0,0,0-1.5-3.9c3.9.12,7.38.12,8.4.06s1.5-.42,1.5-1.44v-42.53H711.42v47.87h-3.9v-51.65H756.6Zm-9.24-32.39H716.94v-3.48h30.42Zm-23.64,25.31v4.44H720V1934h24v18.77Zm0-15.35v11.93h16.56v-11.93Z"/><path d="M783.6,1953.26h-13V1958H766.8v-43.67h16.8Zm-13-35.27v13.73h9.24V1918Zm9.24,31.61v-14.27h-9.24v14.27Zm24-28.31v8.09h13.32V1933h-5.4v6.89h7.2v3.54h-7.2v16.68c0,2.4-.6,3.54-2.34,4.14s-4.74.72-9.66.72a16.74,16.74,0,0,0-1.32-3.78c3.78.12,7.2.12,8.16.06s1.26-.3,1.26-1.2v-16.62H785v-3.54h22.86V1933h-20.4v-3.61h12.48v-8.09H784.68v-3.6h15.24v-7.32h3.9v7.32h15.3v3.6Zm-11.76,24.47a51.18,51.18,0,0,1,7.86,10.32l-3.42,2.16a54.79,54.79,0,0,0-7.68-10.56Z"/><path d="M839,1932.63c2,2,7.68,8.58,8.94,10.19l-2.52,3.24a98.08,98.08,0,0,0-6.42-8.88v27.66h-3.78v-29.58c-2.4,7.2-5.7,14.22-9.06,18.42a27.23,27.23,0,0,0-2.16-3.6c4.2-5,8.52-14.63,10.74-23.09h-9.42v-3.72h9.9v-13H839v13h8.76V1927H839Zm38.16-18.72v50.45h-3.9v-3.48h-19v3.66H850.5v-50.63Zm-22.86,3.78v10.5h19v-10.5Zm0,25h19v-10.8h-19Zm19,14.58V1946.3h-19v10.92Z"/><path d="M911.64,1953c-9.42,2.16-19.5,4.5-26.58,6.12l-.72-4,4.32-.9v-40.91h19.26v36.89l3.42-.78Zm-19.38-36v9.3h11.88V1917Zm11.88,12.9H892.26V1939h11.88Zm-11.88,23.63c3.66-.72,7.68-1.62,11.88-2.52v-8.4H892.26Zm45.24-27.42c-.66,25.26-1.26,33.72-3.24,36.36a5.17,5.17,0,0,1-4.2,2.1,65.3,65.3,0,0,1-8.22-.12,8,8,0,0,0-1.2-3.78c3.48.24,6.72.3,7.92.3s1.68-.12,2.28-.9c1.56-1.8,2.22-9.84,2.76-32.21h-9.84c-.9,15.59-4.2,29.33-16.44,37.31a10,10,0,0,0-3-2.94c11.7-7.14,14.7-19.86,15.54-34.37H910V1924H920c.18-4.49.18-9,.18-13.67h3.9c0,4.68,0,9.18-.18,13.67H937.5Z"/><path d="M957.18,1928.67a9.06,9.06,0,1,1-9.06,9A9.09,9.09,0,0,1,957.18,1928.67Zm0,15.23a6.18,6.18,0,1,0,0-12.36,6.18,6.18,0,1,0,0,12.36Z"/><path d="M392,1995.63a67.67,67.67,0,0,1-5.4,8.45v33.18h-3.78v-28.5a55.81,55.81,0,0,1-6,5.94,23.11,23.11,0,0,0-2.4-3.41,57.79,57.79,0,0,0,14-16.92Zm-1.44-11.88a59.41,59.41,0,0,1-13.32,14.1,20,20,0,0,0-2.22-2.82c4.44-3.3,9.42-8.4,11.94-12.66ZM424,2014.17a34,34,0,0,1-11.58,13.91,56.54,56.54,0,0,0,16.08,5.52,13.63,13.63,0,0,0-2.46,3.48,58.51,58.51,0,0,1-17.16-6.72,63.26,63.26,0,0,1-17.7,6.78,10.39,10.39,0,0,0-2-3.42,62.23,62.23,0,0,0,16.26-5.64,41.7,41.7,0,0,1-7.2-6.54,42.74,42.74,0,0,1-4.86,4.08,25.12,25.12,0,0,0-2.76-2.94,46.2,46.2,0,0,0,5.28-4.08,34,34,0,0,1-2.82-4.38l3.3-1.2a19.06,19.06,0,0,0,2,3.18,40.7,40.7,0,0,0,5.82-7.86c-9,.6-10.5.91-11.64,1.26a33.39,33.39,0,0,0-1.2-3.77c1.62-.19,3.78-1.26,6.6-2.88,1.44-.78,4.38-2.58,7.8-4.87-9.36.49-10.92.73-11.82,1.09a28.56,28.56,0,0,0-1.26-3.84,10.79,10.79,0,0,0,3.9-2.16A67.38,67.38,0,0,0,407.28,1983l3.9,1.8a87.44,87.44,0,0,1-11.7,10.32l11.1-.36a87.91,87.91,0,0,0,8.22-6.6l3.66,2.1a135.45,135.45,0,0,1-22.44,15l20.1-1.08c-1.5-1.87-2.94-3.72-4.38-5.29l3.06-1.61a90.33,90.33,0,0,1,10,13l-3.24,1.92c-.78-1.38-2-3.12-3.24-5-5.58.35-10.14.66-13.68.83a52.18,52.18,0,0,1-3,5h15.18l.72-.18Zm-20.94,2.21a33.51,33.51,0,0,1-2.34,2.76,40,40,0,0,0,8.16,6.9,31.13,31.13,0,0,0,9.72-9.66Z"/><path d="M484.92,2031.32c0,2.76-.78,4-2.64,4.68s-5.46.72-11.1.66a12.92,12.92,0,0,0-1.38-3.84c4.32.18,8.4.12,9.6.06s1.56-.42,1.56-1.56v-12.78H464.22v17.94h-4v-17.94H444.78c-.9,6.72-2.88,13.56-7.56,18.78a11.58,11.58,0,0,0-3-2.64c6.6-7.44,7.26-18,7.26-26.46v-21.59h43.44Zm-24.66-16.56v-10.5H445.38v4c0,2.11-.06,4.26-.24,6.54Zm-14.88-24.35v10.13h14.88v-10.13Zm35.58,0H464.22v10.13H481Zm0,24.35v-10.5H464.22v10.5Z"/><path d="M521,1985.49H506.22v35.15h-4v-38.87H521Z"/><path d="M542.64,1983.51a92.06,92.06,0,0,1-6.18,12.42v41h-3.84v-35.1a60.35,60.35,0,0,1-7,8.28,21.1,21.1,0,0,0-2.28-3.83c6.12-5.76,12-14.7,15.54-23.88ZM557.1,1998a83.91,83.91,0,0,1-4.92,12.3h24.54v26h-4V2033H553.2v3.78h-3.9V2015.3a43.61,43.61,0,0,1-8.94,10.14,21.1,21.1,0,0,0-2.58-3.06c7.44-6,12.18-14.88,15.24-24.42h-13v-3.89h14.1c1-3.84,1.8-7.74,2.4-11.58l4,.66c-.6,3.6-1.44,7.26-2.4,10.92h21.3V1998ZM553.2,2014v15.24h19.5V2014Z"/><path d="M583,2033.84h14.82v-35.15h4v38.87H583Z"/><path d="M666.12,2014a100.84,100.84,0,0,1-11.7,8.58,36.22,36.22,0,0,0,15.3,8.76,24.16,24.16,0,0,0-2.64,3.48c-12.3-4.08-20.82-13.2-25.38-25.61h-.18a53.79,53.79,0,0,1-9.6,8V2031l14.88-4.5a18.38,18.38,0,0,0,.6,3.42c-16.62,5.4-18.66,6.12-20,7a14.6,14.6,0,0,0-1.74-3.66,3.9,3.9,0,0,0,2.16-3.78v-9.72a71.36,71.36,0,0,1-10.68,5.1,19.48,19.48,0,0,0-2.64-3.24,62.5,62.5,0,0,0,21.9-12.41H616.2v-3.54h23.7v-5.64H621.54v-3.36H639.9v-5.4H618.54v-3.48H639.9v-5.52h4v5.52h22v3.48h-22v5.4h19.32v3.36H643.92v5.64H667.8v3.54H645.54a38.86,38.86,0,0,0,6.6,11,80.68,80.68,0,0,0,10.74-8.46Z"/><path d="M690.24,2012.78a58,58,0,0,1-12.06,19.14,26,26,0,0,0-3.66-2.46,47,47,0,0,0,11.64-17.75Zm13.62-7.91v31.79h-4.14v-31.79H675.84v-4h52.5v4Zm19.2-14.22H681.18v-3.9h41.88Zm-5.16,20.93c4.5,5.58,9.24,13.14,11,18.24l-3.9,1.8c-1.74-5-6.3-12.78-10.8-18.48Z"/><path d="M752.64,1983.51a92.06,92.06,0,0,1-6.18,12.42v41h-3.84v-35.1a60.35,60.35,0,0,1-7,8.28,21.1,21.1,0,0,0-2.28-3.83c6.12-5.76,12-14.7,15.54-23.88ZM767.1,1998a83.91,83.91,0,0,1-4.92,12.3h24.54v26h-4V2033H763.2v3.78h-3.9V2015.3a43.61,43.61,0,0,1-8.94,10.14,21.1,21.1,0,0,0-2.58-3.06c7.44-6,12.18-14.88,15.24-24.42h-13v-3.89h14.1c1-3.84,1.8-7.74,2.4-11.58l4,.66c-.6,3.6-1.44,7.26-2.4,10.92h21.3V1998ZM763.2,2014v15.24h19.5V2014Z"/><path d="M821.64,2025c-9.42,2.16-19.5,4.5-26.58,6.12l-.72-4,4.32-.9v-40.91h19.26v36.89l3.42-.78Zm-19.38-36v9.3h11.88V1989Zm11.88,12.9H802.26V2011h11.88Zm-11.88,23.63c3.66-.72,7.68-1.62,11.88-2.52v-8.4H802.26Zm45.24-27.42c-.66,25.26-1.26,33.72-3.24,36.36a5.17,5.17,0,0,1-4.2,2.1,65.3,65.3,0,0,1-8.22-.12,8,8,0,0,0-1.2-3.78c3.48.24,6.72.3,7.92.3s1.68-.12,2.28-.9c1.56-1.8,2.22-9.84,2.76-32.21h-9.84c-.9,15.59-4.2,29.33-16.44,37.31a10,10,0,0,0-3-2.94c11.7-7.14,14.7-19.86,15.54-34.37H820V1996H830c.18-4.49.18-9,.18-13.67h3.9c0,4.68,0,9.18-.18,13.67H847.5Z"/><path d="M860.88,2018c4.68-2,7.26-4.86,7.56-9.17a4,4,0,0,1-1.14.11c-2.34,0-4.26-1.31-4.26-4.07a4,4,0,0,1,4.32-4.08c3.18,0,4.86,2.58,4.86,6.66,0,6.41-4,11.21-10.08,13.43Z"/><path d="M403.68,2061.69c-.84,3.12-1.8,6.42-2.7,9.06h24.66v32.93c0,2.46-.54,3.6-2.22,4.26s-4.8.72-9.12.72a12.47,12.47,0,0,0-1.38-3.78c3.54.12,6.6.06,7.5,0s1.2-.3,1.2-1.2v-29.22H410.94V2107h-4v-32.58H396.54V2107h-3.9v-32.58h-10V2109h-4v-38.27h18.24c.84-2.71,1.56-6.12,2.16-9.06H375.48v-4h53.34v4Z"/><path d="M484.92,2103.32c0,2.76-.78,4-2.64,4.68s-5.46.72-11.1.66a12.92,12.92,0,0,0-1.38-3.84c4.32.18,8.4.12,9.6.06s1.56-.42,1.56-1.56v-12.78H464.22v17.94h-4v-17.94H444.78c-.9,6.72-2.88,13.56-7.56,18.78a11.58,11.58,0,0,0-3-2.64c6.6-7.44,7.26-18,7.26-26.46v-21.59h43.44Zm-24.66-16.56v-10.5H445.38v4c0,2.11-.06,4.26-.24,6.54Zm-14.88-24.35v10.13h14.88v-10.13Zm35.58,0H464.22v10.13H481Zm0,24.35v-10.5H464.22v10.5Z"/><path d="M521,2057.49H506.22v35.15h-4v-38.87H521Z"/><path d="M546.78,2069.54a74.71,74.71,0,0,1-5.76,11.94h32.7v27.3h-4.14v-3.12H542.22v3.42h-4v-23.4a50.91,50.91,0,0,1-11.46,11.52,21.84,21.84,0,0,0-2.64-3.18c8.64-5.94,14.46-14.76,18.36-24.48H526.08v-3.89H543.9a86,86,0,0,0,3.12-11.34l4.14.84c-.84,3.48-1.8,7-3,10.5h30v3.89Zm-4.56,15.78v16.5h27.36v-16.5Z"/><path d="M583,2105.84h14.82v-35.15h4v38.87H583Z"/><path d="M666.12,2086a100.84,100.84,0,0,1-11.7,8.58,36.22,36.22,0,0,0,15.3,8.76,24.16,24.16,0,0,0-2.64,3.48c-12.3-4.08-20.82-13.2-25.38-25.61h-.18a53.79,53.79,0,0,1-9.6,8V2103l14.88-4.5a18.38,18.38,0,0,0,.6,3.42c-16.62,5.4-18.66,6.12-20,7a14.6,14.6,0,0,0-1.74-3.66,3.9,3.9,0,0,0,2.16-3.78v-9.72a71.36,71.36,0,0,1-10.68,5.1,19.48,19.48,0,0,0-2.64-3.24,62.5,62.5,0,0,0,21.9-12.41H616.2v-3.54h23.7v-5.64H621.54v-3.36H639.9v-5.4H618.54v-3.48H639.9v-5.52h4v5.52h22v3.48h-22v5.4h19.32v3.36H643.92v5.64H667.8v3.54H645.54a38.86,38.86,0,0,0,6.6,11,80.68,80.68,0,0,0,10.74-8.46Z"/><path d="M690.24,2084.78a58,58,0,0,1-12.06,19.14,26,26,0,0,0-3.66-2.46,47,47,0,0,0,11.64-17.75Zm13.62-7.91v31.79h-4.14v-31.79H675.84v-4h52.5v4Zm19.2-14.22H681.18v-3.9h41.88Zm-5.16,20.93c4.5,5.58,9.24,13.14,11,18.24l-3.9,1.8c-1.74-5-6.3-12.78-10.8-18.48Z"/><path d="M756.78,2069.54a74.71,74.71,0,0,1-5.76,11.94h32.7v27.3h-4.14v-3.12H752.22v3.42h-4v-23.4a50.91,50.91,0,0,1-11.46,11.52,21.84,21.84,0,0,0-2.64-3.18c8.64-5.94,14.46-14.76,18.36-24.48H736.08v-3.89H753.9a86,86,0,0,0,3.12-11.34l4.14.84c-.84,3.48-1.8,7-3,10.5h30v3.89Zm-4.56,15.78v16.5h27.36v-16.5Z"/><path d="M817.26,2068.71c-.18,3.29-.48,6.59-.9,10h25.5s-.06,1.37-.12,2c-1.26,17-2.4,23.46-4.8,25.8-1.26,1.38-2.64,1.8-4.86,1.92a87,87,0,0,1-10-.24,9,9,0,0,0-1.38-3.84c4.26.36,8.46.42,10,.42a4,4,0,0,0,2.82-.72c1.74-1.56,2.88-7.44,4-21.48H815.76c-1.92,10.68-6.42,20.7-17.82,26.64a11.83,11.83,0,0,0-2.88-3.12c15.54-7.68,17.1-23.46,17.82-37.31H796.44v-3.84H847.8v3.84Zm5.64-4a74.52,74.52,0,0,0-4.2-9.18l3.84-1.5a65.56,65.56,0,0,1,4.26,8.94Z"/><path d="M867.18,2072.67a9.06,9.06,0,1,1-9.06,9A9.09,9.09,0,0,1,867.18,2072.67Zm0,15.23a6.18,6.18,0,1,0,0-12.36,6.18,6.18,0,1,0,0,12.36Z"/><rect class="cls-2" x="1113" y="1214" width="65" height="220" rx="12"/><path class="cls-1" d="M1157.05,1252.79a27.61,27.61,0,0,0,11.5,8.1,11.65,11.65,0,0,0-2.15,2.55,30.77,30.77,0,0,1-12.8-10.65h-15.95a34.39,34.39,0,0,1-13,11.3,11.43,11.43,0,0,0-2.15-2.55,30.39,30.39,0,0,0,11.6-8.75H1123v-2.85h10v-16.15h-7.7V1231h7.7v-5h3.3v5h18.55v-5h3.35v5h7.65v2.8h-7.65v16.15h9.8v2.85Zm-10,14.5h17.3v2.85H1126.8v-2.85h16.9v-5.6h-10.45v-2.8h10.45v-4.4h3.35v4.4h10.65v2.8h-10.65Zm-10.8-33.5v3.6h18.55v-3.6Zm0,9.8h18.55v-3.65h-18.55Zm0,6.35h18.55v-3.8h-18.55Z"/><path class="cls-1" d="M1141.25,1294.54s0,1.15,0,1.55c-.6,15.85-1.2,21.2-2.6,23a3.71,3.71,0,0,1-2.8,1.45,32.65,32.65,0,0,1-4.45,0,9.25,9.25,0,0,0-.85-3c1.75.15,3.2.15,3.9.15a1.42,1.42,0,0,0,1.45-.65c1-1.2,1.6-6,2.15-19.35h-6.8c-.55,10-2,18.25-6.45,23.65a9.53,9.53,0,0,0-2.55-2.35c5.45-6.45,5.9-17.85,6.1-31.55h-5.2v-3.1h20.1v3.1h-11.65c0,2.45-.1,4.85-.2,7.15Zm-7.9-10.45a33.47,33.47,0,0,0-4.25-7.15l2.9-1.15a31.92,31.92,0,0,1,4.4,7Zm23.85-7.45a15.26,15.26,0,0,1-.85,2.55c2.65,5.45,7.7,11.35,12.45,14a13,13,0,0,0-2.45,2.75c-4.25-2.7-8.5-8-11.4-13.3a32.61,32.61,0,0,1-11,13.6,12.79,12.79,0,0,0-2.35-2.65c5.85-3.6,10.35-10.2,12.5-17.85Zm-8.3,32.45a74,74,0,0,1,13.6,8.25l-2.25,2.9c-2.85-2.6-8.75-6.3-13.4-8.65Zm9.5-4.85a66.22,66.22,0,0,0-8.6-6.85l2.15-2.2a67.46,67.46,0,0,1,8.75,6.55Z"/><path class="cls-1" d="M1156.2,1346.44a37.72,37.72,0,0,0,12.55,9.3,11.69,11.69,0,0,0-2.4,2.6c-5-2.8-10.55-7.3-13.8-11.9h-14a43.85,43.85,0,0,1-14.45,12.1,10,10,0,0,0-2.1-2.55,41.83,41.83,0,0,0,12.45-9.55h-11.25v-2.8h13.5c.9-1.25,1.75-2.55,2.5-3.85h-10.7v-2.65h12.1c.6-1.25,1.1-2.5,1.6-3.75H1125.9v-2.8h17.25a41.59,41.59,0,0,0,1.1-4.65l3.35.4c-.3,1.4-.6,2.85-1,4.25h18.85v2.8h-19.75a29.31,29.31,0,0,1-1.5,3.75H1163v2.65h-20.1a34,34,0,0,1-2.3,3.85h27.2v2.8Zm-13.85,16.4c-3.75,3.6-10.6,7-16.3,8.45a14.19,14.19,0,0,0-2-2.6c5.65-1.2,12.3-4,15.75-7.1Zm4.7-3v11.7h-3.3v-11.7h-14.1V1357h14.1v-4.1c-2.9.35-5.9.65-8.6.8a9,9,0,0,0-.8-2.4c6.45-.55,14.1-1.5,18.45-2.65l1.9,2.45a66,66,0,0,1-7.65,1.4v4.5h14.4v2.8Zm3.25,1.25a152.92,152.92,0,0,1,15,8.15l-1.85,2.3a118,118,0,0,0-14.9-8.45Z"/><path class="cls-1" d="M1130.25,1382.09a28.53,28.53,0,0,1-5.15,5.9,25,25,0,0,0-2.35-2.15,28.11,28.11,0,0,0,7.75-10.2l3,.8c-.45,1-1,2-1.45,2.9h13.2l0,2.75h-10a42.4,42.4,0,0,1,4.25,4.2l-2.2,1.9a41.61,41.61,0,0,0-4.45-4.7l2-1.4Zm-1.55,19.15v20.25h-3v-32.9h17.25v12.65Zm0-10.4v3h11.15v-3Zm11.15,8.15v-3H1128.7v3Zm14.85,18.45h-15.3v1.8h-3.05v-15.35h18.35Zm-15.3-11.3v3.45h12.3v-3.45Zm12.3,9.1v-3.5h-12.3v3.5Zm16.35-35.85v2.7h-16.7a26.51,26.51,0,0,1-4.55,5.7,18.68,18.68,0,0,0-2.6-2,23.29,23.29,0,0,0,6.75-10.15l3,.75a22.08,22.08,0,0,1-1.2,3Zm-2.85,38.15c0,2-.45,2.9-1.8,3.4s-3.85.6-7.6.55a10.25,10.25,0,0,0-1-3c2.9.1,5.55.1,6.3,0s1-.25,1-1v-16.3h-14.75v-12.65h17.85Zm-14.8-26.7v3h11.7v-3Zm11.7,8.15v-3h-11.7v3Zm-2.85-10.6a31.64,31.64,0,0,0-4.7-4.55l2.15-1.75a35.17,35.17,0,0,1,4.8,4.3Z"/><rect class="cls-2" x="1113" y="431" width="65" height="126" rx="12"/><path class="cls-1" d="M1132.7,460.82c1.25,1.6,4.9,6.7,5.7,8.05l-2,2.45c-.7-1.5-2.35-4.4-3.75-6.65V491h-3.15V466.57c-1.5,5.05-3.5,9.9-5.55,12.85a14.83,14.83,0,0,0-1.75-3.1c2.9-4,5.8-11.5,7.2-18h-6.2v-3.15h6.3v-9.65h3.15v9.65h5.45v3.15h-5.45Zm19.1.7a19.47,19.47,0,0,0,.45,2.65c-10.15,2.7-11.6,3.15-12.5,3.75a12.13,12.13,0,0,0-1.1-3.2c.7-.2,1.55-.5,1.55-2.2v-16.7h3.25v6.5h8.35v2.9h-8.35v8.3Zm2.35,5.5-2,3.75h12.65V491h-3.4v-1.75h-17v2h-3.3V470.77h7.9c.55-1.5,1.2-3.25,1.55-4.6Zm7.3,6.5h-17v5.05h17Zm0,13v-5.3h-17v5.3Zm2.25-22.4c1.25,0,1.5-.75,1.65-5.25a9.16,9.16,0,0,0,2.85,1.25c-.3,5.45-1.2,6.95-4.15,6.95h-5.85c-3.65,0-4.55-.95-4.55-4.45V445.87h3.25v6.5h10.2v2.9h-10.2v7.35c0,1.3.25,1.5,1.65,1.5Z"/><path class="cls-1" d="M1167.55,520.87v2.5H1123.4v-2.5h20.25v-3.2H1126.8v-2.3h16.85v-3H1128.2v-2.25h15.45v-3.2H1123.5v-2.5h20.15v-3.05H1128.8V499h14.85v-3.55h3.25V499h14.45v5.4h6.15v2.5h-6.15v5.45H1146.9v3h17.3v2.3h-17.3v3.2Zm-37.75,5h31.75v15.25h-3.25v-1.6H1133v1.7h-3.2Zm3.2,2.4v3.2h25.3v-3.2Zm25.3,8.85v-3.4H1133v3.4Zm-11.4-32.7h11.15v-3.05H1146.9Zm0,5.7h11.15v-3.2H1146.9Z"/><line class="cls-3" x1="601.5" y1="792.5" x2="601.5" y2="783.5"/><path d="M991.54,1238.1a132.63,132.63,0,0,0-12.64-15.23,143.56,143.56,0,0,0-15.09-12.63,141.84,141.84,0,0,0-24.52-14.68c-20.1-9.63-41.38-16.68-62.52-23.6q-65.49-21.43-132.83-36.46c-46.57-10.38-93.63-18.28-141-24.16q-67.77-8.43-136.13-10.31c-45.62-1.25-91.31-.26-136.83,3q-8.58.62-17.13,1.33c-6.87.57-13,2.46-18,7.47-4.43,4.42-7.76,11.68-7.47,18,.29,6.59,2.46,13.43,7.47,18,4.74,4.36,11.35,8,18,7.47a1403,1403,0,0,1,236.83.4q33.74,2.91,67.31,7.42l-6.78-.91a1427.68,1427.68,0,0,1,239.42,53.54c20.34,6.43,40.85,12.89,60.54,21.15l-6.09-2.57c12.28,5.21,24.17,11.37,34.77,19.53l-5.16-4a96,96,0,0,1,16.53,16.44l-4-5.16c.42.54.84,1.09,1.24,1.65,4.09,5.52,8.36,9.82,15.24,11.72,6.1,1.68,14.23.92,19.65-2.57s10.24-8.74,11.72-15.24c1.43-6.27,1.43-14.25-2.57-19.65Z"/><path d="M366.06,984a230.06,230.06,0,0,1,39.87,12.63l-6.09-2.57a216.49,216.49,0,0,1,47,26.92l-5.16-4a97.67,97.67,0,0,1,17.68,17.21l-4-5.17a86,86,0,0,1,10.56,18.34l-2.57-6.09a127.57,127.57,0,0,1,8.37,32.15l-.91-6.78a206.16,206.16,0,0,1-.35,54.31l.91-6.78a267,267,0,0,1-18.79,67l2.57-6.09c-11.94,28.2-28,54.37-46.68,78.59l4-5.17c-26.59,34.33-57.94,64.55-90.13,93.55-9.09,8.19-18.26,16.29-27.43,24.39-4.71,4.17-7.46,11.9-7.46,18s2.77,13.73,7.46,18c4.86,4.46,11.24,7.77,18,7.46a28,28,0,0,0,18-7.46c28.1-24.83,56.23-49.73,82.1-76.91,26.91-28.29,51.82-59.24,70.82-93.45a350.58,350.58,0,0,0,24.77-55.37,283.15,283.15,0,0,0,13.17-58.73c2.45-20,1.72-39.74-1.13-59.64a129.49,129.49,0,0,0-6.34-26.05c-3.71-10.15-8.2-20.14-14.74-28.79a121.53,121.53,0,0,0-12.51-14.65,168.64,168.64,0,0,0-14.84-12.22,205.47,205.47,0,0,0-22.89-15,255.49,255.49,0,0,0-56.7-23.68q-6.49-1.81-13.08-3.25c-6.67-1.46-13.63-.95-19.64,2.57-5.29,3.1-10.34,9.16-11.72,15.24-1.49,6.53-1.17,13.86,2.57,19.65,3.49,5.42,8.74,10.3,15.24,11.72Z"/><path d="M350.32,1333a533.08,533.08,0,0,0,36.79,93.42c14.05,27.79,30.5,54.29,47.62,80.28,15.79,24,31.51,48.17,49,70.92,18.32,23.82,38.73,46.45,65.16,61.49a150.88,150.88,0,0,0,45.58,16.73c16.64,3.27,33.69,5,50.59,6.41,29.46,2.44,59.84,2.17,88.56-5.59a153.91,153.91,0,0,0,75.92-47.53c18.93-21.75,32.94-46.81,45-72.87,13.79-29.79,26.36-60.2,38.84-90.57q18.54-45.11,35.7-90.78,4.24-11.3,8.41-22.63c2.17-5.91.51-14.4-2.57-19.65s-9.16-10.34-15.24-11.72c-6.53-1.49-13.85-1.17-19.65,2.57s-9.32,8.71-11.72,15.24q-20.45,55.63-42.91,110.51-6.36,15.51-12.88,31l2.57-6.09c-13.42,31.77-26.35,64.31-44.09,94a229.54,229.54,0,0,1-15.17,22.42l4-5.16a152.26,152.26,0,0,1-26.61,27l5.16-4a124.11,124.11,0,0,1-26.91,15.7l6.09-2.57a153.6,153.6,0,0,1-38.27,10.13l6.78-.92c-29.8,4-60.32,1.38-90-2.55l6.78.91c-14.4-2-28.7-4.84-42.14-10.51l6.09,2.57a132,132,0,0,1-28.27-16.84l5.16,4c-15.23-11.86-28.14-26.34-39.92-41.56l4,5.16c-16.09-20.9-30.54-43.1-45.12-65.06-15.83-23.83-31.18-48-44.75-73.21-7.72-14.35-14.82-29-21.17-44l2.57,6.09a501.33,501.33,0,0,1-19.8-56.24,26.47,26.47,0,0,0-11.72-15.23c-5.46-3.2-13.52-4.56-19.65-2.58s-12.12,5.83-15.23,11.72c-3.19,6-4.5,12.94-2.58,19.65Z"/><path d="M430.2,1441.07a205.17,205.17,0,0,1,28.57-14.83l-6.09,2.57c26-10.92,53.65-16.72,81.46-20.47l-6.78.91c29.9-4,60.1-6.28,90.18-8.47s60.2-3.61,90.33-2.73a488.29,488.29,0,0,1,50.54,4l-6.78-.91c28.93,3.91,57.43,10.93,84.37,22.28l-6.09-2.57a278,278,0,0,1,30,15,26.46,26.46,0,0,0,19.65,2.57c5.91-1.62,12.32-6.2,15.24-11.71,3.12-5.92,4.69-13.09,2.57-19.65-2-6.31-5.86-11.87-11.72-15.24a316.18,316.18,0,0,0-90.61-34.6c-31.78-6.91-64.46-9.86-96.94-10.29-30.94-.41-61.85,1.42-92.67,3.86-32.75,2.59-65.6,5.18-98.06,10.39-32.2,5.18-63.94,14.25-92.7,29.94q-5.2,2.85-10.24,6a26.72,26.72,0,0,0-11.72,15.24c-1.68,6.1-.92,14.23,2.57,19.65s8.74,10.23,15.24,11.71,13.78,1.11,19.65-2.57Z"/></svg>