<svg id="Layer_1" data-name="Layer 1" xmlns="http://www.w3.org/2000/svg" viewBox="0 0 1242 2208"><defs><style>.cls-1{fill:#f6eabe;}.cls-2{fill:#999;}.cls-3{fill:none;stroke:#000;stroke-miterlimit:10;stroke-width:48px;}</style></defs><rect class="cls-1" width="1242" height="2208"/><path d="M940.25,173.23V842.57H883.08V804.46H375.72v45.25H320.93V173.23ZM883.08,752.05V226.43H375.72V752.05Z"/><path d="M451.92,1907.69a98.85,98.85,0,0,1-6.18,13.56v39.59H441.9v-33.35a61.73,61.73,0,0,1-5.46,7,32.86,32.86,0,0,0-2.28-3.9c5.58-5.87,10.8-14.87,14-24Zm34.14,28c-2.1,1.26-4.44,2.64-6.84,3.78,2,6.06,5.82,11.82,10.38,14.52a11.2,11.2,0,0,0-2.64,2.94c-4.62-3.18-8.46-9.42-10.68-16a27.45,27.45,0,0,1-2.76,1.2c2.58,6.84,1.86,14-1,16.68a6.91,6.91,0,0,1-5.22,1.92c-1.08,0-2.4-.06-3.78-.18a9.31,9.31,0,0,0-1-3.42,38.26,38.26,0,0,0,4.14.24,3.66,3.66,0,0,0,3.12-1.14c1.56-1.38,2.22-5.16,1.44-9.36-5.16,4.92-13.08,9.36-19.8,11.7a15.8,15.8,0,0,0-2.34-2.82c7.62-2.28,16.62-7.14,21.3-12.24a35.76,35.76,0,0,0-1.5-3.48,63.52,63.52,0,0,1-17.22,9.9,16.14,16.14,0,0,0-2.22-2.64c5.94-1.8,13.74-5.76,17.88-9.54a16.39,16.39,0,0,0-2.94-3.18,58.44,58.44,0,0,1-13.56,7.26,11.26,11.26,0,0,0-2.22-2.58,52.7,52.7,0,0,0,15.06-7.55H453.48v-9.36c-1.14,1-2.28,2-3.54,2.94a9.37,9.37,0,0,0-2.52-2.58,44.69,44.69,0,0,0,13.86-16.26l3.84.72c-.6,1.2-1.32,2.34-2,3.54h11.1l.72-.18,2.34,1.68a52.13,52.13,0,0,1-4.8,6.84h13.08v12.66H467.94c-.36.36-.78.66-1.2,1a21,21,0,0,1,5.64,6.84,110,110,0,0,0,10.92-6.42ZM461,1913.81a54.58,54.58,0,0,1-4.2,5.16h11.58a37.88,37.88,0,0,0,3.72-5.16Zm-3.9,14.69h10.5v-6.42h-10.5Zm24.72-6.42H471.18v6.42H481.8Z"/><path d="M508.14,1918.25a57.17,57.17,0,0,1-10.44,11.46c-.72-.67-2.34-2.17-3.3-2.88a52.17,52.17,0,0,0,16-20.82l4,1.14a75.5,75.5,0,0,1-3.78,7.26h33.54s0,1.44-.06,2c-.66,20.15-1.32,27-2.94,29.21a5,5,0,0,1-3.72,1.86,54.87,54.87,0,0,1-7-.06,10.51,10.51,0,0,0-1.08-3.78c2.7.24,5.22.24,6.18.24a2.21,2.21,0,0,0,2-.78c1.2-1.5,1.86-7.62,2.4-24.83Zm30.78,37.67c5.16,0,6.06-1.38,6.66-7.68a11.19,11.19,0,0,0,3.78,1.44c-.78,7.8-2.46,10-10.44,10H515.7c-9.06,0-11.82-1.56-11.82-7.86v-27h24.24v17.45H507.84v9.6c0,3.24,1.14,4.08,7.56,4.08Zm-31.08-27.54v10.2h16.44v-10.2Z"/><path d="M606.84,1909v52h-3.9v-2.58H561V1961h-3.78v-52Zm-3.9,45.77v-42.11H561v42.11Zm-3.42-31.44v2.58H564.66v-2.58h10c.48-1.19.9-2.51,1.32-3.89h-7.62V1917h8.4c.3-1.2.6-2.4.9-3.48l3.42.42c-.24,1-.54,2-.84,3.06h13.38v6.35Zm-12.9,16.5H599.1v2.46H586.62v4.62h12v2.58h-12v4.38H583v-4.38H566.82c.78-2,1.5-4.74,2.16-7.2h-3.42v-2.46H583v-2.76h-14v-8.75h26.16v8.75h-8.46ZM583,1942.3h-10.8c-.42,1.56-.84,3.12-1.32,4.62H583Zm-10.56-7.5h19.08v-4.2H572.4Zm7.2-15.35c-.42,1.44-.84,2.7-1.26,3.89h11.88v-3.89Z"/><path d="M631,1907c-1,2.94-2.1,6.3-3.18,8.88H638v38.75h-16.8v4.8h-3.66v-43.55h6.66a64.68,64.68,0,0,0,2.58-9.72Zm3.3,12.47H621.18v13.08h13.14Zm0,31.56v-14.88H621.18v14.88Zm33.06-33.17c-1,27.53-1.8,36.71-4.2,39.59a5.6,5.6,0,0,1-4.56,2.28,74.94,74.94,0,0,1-8.82-.12,9.42,9.42,0,0,0-1.32-3.9c3.9.36,7.5.36,8.82.36s1.92-.12,2.52-.9c2-2.1,2.94-11.34,3.72-35.7H647.82a55.33,55.33,0,0,1-5.64,10.68,36.22,36.22,0,0,0-3.36-2.22c4.08-5.33,7.32-13.61,9.18-21.89l3.84.84c-.78,3-1.62,6-2.64,8.88h18.18Zm-12.78,27a106.51,106.51,0,0,0-9.3-13.92l3.06-1.79a102.47,102.47,0,0,1,9.6,13.61Z"/><path d="M692.64,1940.74c-.9-1.92-3.12-5.88-5-8.87v29H684v-29c-2,6.83-4.86,13.55-7.68,17.63a24.88,24.88,0,0,0-2.1-3.42c3.72-5,7.5-14.63,9.3-23h-8.1v-3.72H684v-13.08h3.66v13.08h7v3.72h-7v4c1.68,2.22,6.24,9.06,7.26,10.73Zm14.88,4a23.6,23.6,0,0,1-13,14.82,13.3,13.3,0,0,0-2.22-2.64,20.42,20.42,0,0,0,10.86-10h-9v-3H704.7l.66-.12Zm2.4-28.37h-14v-3.06h8a49.35,49.35,0,0,0-3.42-5.7l3-1.26a35,35,0,0,1,3.9,6.24l-1.56.72h11.1l-1-.36a55.82,55.82,0,0,0,3.72-6.6l3.54,1.2c-1.32,2-2.7,4.14-3.9,5.76h9v3.06H713.76v4h12.6v3h-12.6v4.2h15.18v3.18H707.88a71.37,71.37,0,0,1,12.66,5l-2.16,2.63a68.66,68.66,0,0,0-13.38-5.51l1.8-2.11H694.5v-3.18h15.42v-4.2H698.46v-3h11.46ZM728,1941.4a110.13,110.13,0,0,1-9.24,7.2,28.13,28.13,0,0,0,11.28,7.62,15.28,15.28,0,0,0-2.46,3,31.62,31.62,0,0,1-13.86-12.36v10c0,2-.42,3-1.92,3.54s-3.9.6-7.68.6a15.57,15.57,0,0,0-1.08-3.36c2.82.06,5.22.06,6,0s.9-.18.9-.78v-16.56H698.82v-3h14.94v3.48a26,26,0,0,0,3.24,5.58,65.15,65.15,0,0,0,8-7.25Z"/><path d="M788.94,1937H764.22v18.6c0,2.82-.72,4-2.88,4.68s-5.94.78-11.7.78a17.7,17.7,0,0,0-1.8-4.14c5,.18,9.36.18,10.68.12s1.62-.42,1.62-1.5V1937h-25v-4h25v-8.75a74.47,74.47,0,0,0,15.72-9.84H741.18v-3.9h39l.84-.24,3,2.28a90,90,0,0,1-19.8,13.79V1933h24.72Z"/><path d="M807.18,1924.67a9.06,9.06,0,1,1-9.06,9A9.09,9.09,0,0,1,807.18,1924.67Zm0,15.23a6.18,6.18,0,1,0,0-12.36,6.18,6.18,0,1,0,0,12.36Z"/><path d="M525.57,1991.63H506.43v-3.3h19.14Zm-1.2,15.89h-16v-3.23h16Zm-.36,22H512.07v2.82h-3.3v-20H524Zm-15.18-30v-3.23h15.24v3.23Zm7.92-11.69a37.94,37.94,0,0,0-5.16-7.8l3.3-1.32a43.55,43.55,0,0,1,5.4,7.5Zm-4.68,27.77v10.56h8.58v-10.56Zm28.38,10.92a53.19,53.19,0,0,1-13.5,6.54,17.47,17.47,0,0,0-2.58-2.58c4.56-1.32,10.08-3.78,12.72-5.88Zm1-41.93h-14v-2.82h14v-3.42h3.9v3.42h14.94v2.82H545.37v3.06h13.2v2.7h-29v-2.7h11.94ZM527.91,1993h31.92v11.69H527.91Zm30.3,31.55H529.59V2007h28.62Zm-27-22.25h6.12v-6.84h-6.12Zm23.28,7.25H533.25v2.7h21.24Zm0,4.8H533.25v2.76h21.24Zm0,4.8H533.25V2022h21.24Zm-7.32-16.85v-6.84h-7.08v6.84Zm1.56,22.25c4.62,2,9.66,4.38,12.84,6.06l-2.28,2.64c-3-1.68-8-4.2-12.42-6.3Zm7.68-29.09H550v6.84h6.42Z"/><path d="M585.21,1979.75a105.89,105.89,0,0,1-6.18,12.9v40.25h-4v-34.07a58.5,58.5,0,0,1-6.36,7.67,22.37,22.37,0,0,0-2.34-3.9c6-5.81,11.64-14.81,15.06-24Zm17.22,12.48v9H620v3.72H602.43v9.48h18.3v3.78h-18.3V2033h-4v-40.73H594a65.13,65.13,0,0,1-8.64,12.65,28.89,28.89,0,0,0-3.12-2.7c5.46-5.57,10.32-14.27,13.26-23l3.84,1c-1,2.82-2.22,5.58-3.42,8.28h25.38v3.84Z"/><path d="M625.47,1996.07h5l5.1,19.25c.72,3.06,1.32,5.94,2,8.94h.24c.78-3,1.44-5.88,2.28-8.94l5.22-19.25h4.92l5.28,19.25c.78,3.06,1.5,5.94,2.28,8.94H658c.72-3,1.38-5.88,2.1-8.94l5-19.25h4.68l-8.88,32.39h-5.94L650,2010.4c-.9-3.11-1.5-6.06-2.28-9.36h-.3c-.72,3.3-1.38,6.36-2.34,9.42l-4.74,18h-5.76Z"/><path d="M674.25,2012.26c0-10.5,7-17,14.46-17,8.1,0,12.78,5.81,12.78,15.17a14.19,14.19,0,0,1-.24,2.94H679.11c.3,7.2,4.62,12,11.1,12a14.28,14.28,0,0,0,8.22-2.64l1.8,3.24a18.91,18.91,0,0,1-10.62,3.3C681.09,2029.24,674.25,2022.94,674.25,2012.26Zm22.92-2.51c0-6.91-3.12-10.57-8.4-10.57-4.8,0-9.06,3.9-9.72,10.57Zm-12.24-22.08,9.36-11,3.42,3.24-10.2,10.2Z"/><path d="M708.75,1985.69a3.39,3.39,0,0,1,6.78,0,3.39,3.39,0,1,1-6.78,0Zm1,10.38h4.86v32.39h-4.86Z"/><path d="M735.33,1996.67a9.06,9.06,0,1,1-9.06,9A9.09,9.09,0,0,1,735.33,1996.67Zm0,15.23a6.18,6.18,0,0,0,0-12.36,6.18,6.18,0,0,0,0,12.36Z"/><rect class="cls-2" x="1113" y="1293" width="65" height="220" rx="12"/><path class="cls-1" d="M1157.05,1331.79a27.61,27.61,0,0,0,11.5,8.1,11.65,11.65,0,0,0-2.15,2.55,30.77,30.77,0,0,1-12.8-10.65h-15.95a34.39,34.39,0,0,1-13,11.3,11.43,11.43,0,0,0-2.15-2.55,30.39,30.39,0,0,0,11.6-8.75H1123v-2.85h10v-16.15h-7.7V1310h7.7v-5h3.3v5h18.55v-5h3.35v5h7.65v2.8h-7.65v16.15h9.8v2.85Zm-10,14.5h17.3v2.85H1126.8v-2.85h16.9v-5.6h-10.45v-2.8h10.45v-4.4h3.35v4.4h10.65v2.8h-10.65Zm-10.8-33.5v3.6h18.55v-3.6Zm0,9.8h18.55v-3.65h-18.55Zm0,6.35h18.55v-3.8h-18.55Z"/><path class="cls-1" d="M1141.25,1373.54s0,1.15,0,1.55c-.6,15.85-1.2,21.2-2.6,23a3.71,3.71,0,0,1-2.8,1.45,32.65,32.65,0,0,1-4.45,0,9.25,9.25,0,0,0-.85-3c1.75.15,3.2.15,3.9.15a1.42,1.42,0,0,0,1.45-.65c1-1.2,1.6-6,2.15-19.35h-6.8c-.55,10-2,18.25-6.45,23.65a9.53,9.53,0,0,0-2.55-2.35c5.45-6.45,5.9-17.85,6.1-31.55h-5.2v-3.1h20.1v3.1h-11.65c0,2.45-.1,4.85-.2,7.15Zm-7.9-10.45a33.47,33.47,0,0,0-4.25-7.15l2.9-1.15a31.92,31.92,0,0,1,4.4,7Zm23.85-7.45a15.26,15.26,0,0,1-.85,2.55c2.65,5.45,7.7,11.35,12.45,14a13,13,0,0,0-2.45,2.75c-4.25-2.7-8.5-8-11.4-13.3a32.61,32.61,0,0,1-11,13.6,12.79,12.79,0,0,0-2.35-2.65c5.85-3.6,10.35-10.2,12.5-17.85Zm-8.3,32.45a74,74,0,0,1,13.6,8.25l-2.25,2.9c-2.85-2.6-8.75-6.3-13.4-8.65Zm9.5-4.85a66.22,66.22,0,0,0-8.6-6.85l2.15-2.2a67.46,67.46,0,0,1,8.75,6.55Z"/><path class="cls-1" d="M1134.5,1418c-1.6,7.2-4.55,16.15-9.1,21.7a19.23,19.23,0,0,0-3.1-1.8c4.55-5.25,7.3-13.85,8.55-20.55Zm12.9-12.3v40c0,2.55-.7,3.6-2.35,4.2s-4.8.6-9.4.6a15.62,15.62,0,0,0-1.4-3.45c3.7.1,7.3.1,8.25.05s1.45-.35,1.45-1.4v-40ZM1159,1417c4.45,7,8.7,16.1,10,22l-3.45,1.45c-1.25-5.85-5.25-15.15-9.6-22.3Z"/><path class="cls-1" d="M1163.65,1482.74a72.75,72.75,0,0,1-7.65,3.65,19.75,19.75,0,0,0,12.1,9.55,10.66,10.66,0,0,0-2.1,2.6,22.77,22.77,0,0,1-12.5-11.1c-1.1.45-2.15.85-3.2,1.2,1.5,4.4.7,8.7-1.6,10.35a6,6,0,0,1-4.25,1.3c-1,0-2.25,0-3.55-.1a5.77,5.77,0,0,0-.9-2.85,30,30,0,0,0,4,.2,4.12,4.12,0,0,0,2.7-.65c1.35-1,1.9-3.75,1-6.9-5.55,3.7-14.45,7-22,8.45a11,11,0,0,0-1.45-2.4c8-1.1,17.65-4.65,22.65-8.35a13.35,13.35,0,0,0-1.25-2.15,69.47,69.47,0,0,1-17.55,6.35,7.59,7.59,0,0,0-1.4-2.15c5.8-1,13.4-3.4,17.7-5.85-.6-.55-1.25-1.15-2-1.7a80,80,0,0,1-15.25,4.15,16.41,16.41,0,0,0-1.55-2.2c5.7-.75,12.15-2.15,16.75-4.15h-18.55v-2.55h28c.3-.9.55-1.8.9-2.75h-21.7c1.25-2.8,3-7,4-10.25l3,.5a42,42,0,0,0-3.4-3.25l2-1.15h-6.25a29.23,29.23,0,0,1-5.1,5.6,25.27,25.27,0,0,0-2.35-2.2,26.89,26.89,0,0,0,7.5-9.35l3,.85c-.45.9-1,1.75-1.4,2.65h13.45v2.45h-8.3a44.9,44.9,0,0,1,4,3.65l-2.45,1.6a4.8,4.8,0,0,0-.7-.75c-.2.65-.45,1.25-.65,2h17.75l.6-.2,2.25.5c-.8,3.15-1.9,7-3,10.15h12V1480h-20.25c-.6.35-1.2.7-1.85,1a16.36,16.36,0,0,1,4.4,5.35,90.1,90.1,0,0,0,11.6-5.5Zm-10.2-10.3c.35-1.15.65-2.2,1-3.2h-17.7c-.45,1.15-.9,2.2-1.3,3.2Zm14.75-14.3v2.45h-16.6a28.84,28.84,0,0,1-4.55,5.15,15.06,15.06,0,0,0-2.55-2,21.57,21.57,0,0,0,6.7-9.1l3.1.8a26.43,26.43,0,0,1-1.25,2.7Zm-7.9,8a32.47,32.47,0,0,0-3.9-4.25l2.3-1.25a30.14,30.14,0,0,1,4,4Z"/><rect class="cls-2" x="1113" y="433" width="65" height="126" rx="12"/><path class="cls-1" d="M1132.7,462.82c1.25,1.6,4.9,6.7,5.7,8.05l-2,2.45c-.7-1.5-2.35-4.4-3.75-6.65V493h-3.15V468.57c-1.5,5.05-3.5,9.9-5.55,12.85a14.83,14.83,0,0,0-1.75-3.1c2.9-4,5.8-11.5,7.2-18h-6.2v-3.15h6.3v-9.65h3.15v9.65h5.45v3.15h-5.45Zm19.1.7a19.47,19.47,0,0,0,.45,2.65c-10.15,2.7-11.6,3.15-12.5,3.75a12.13,12.13,0,0,0-1.1-3.2c.7-.2,1.55-.5,1.55-2.2v-16.7h3.25v6.5h8.35v2.9h-8.35v8.3Zm2.35,5.5-2,3.75h12.65V493h-3.4v-1.75h-17v2h-3.3V472.77h7.9c.55-1.5,1.2-3.25,1.55-4.6Zm7.3,6.5h-17v5.05h17Zm0,13v-5.3h-17v5.3Zm2.25-22.4c1.25,0,1.5-.75,1.65-5.25a9.16,9.16,0,0,0,2.85,1.25c-.3,5.45-1.2,6.95-4.15,6.95h-5.85c-3.65,0-4.55-.95-4.55-4.45V447.87h3.25v6.5h10.2v2.9h-10.2v7.35c0,1.3.25,1.5,1.65,1.5Z"/><path class="cls-1" d="M1167.55,522.87v2.5H1123.4v-2.5h20.25v-3.2H1126.8v-2.3h16.85v-3H1128.2v-2.25h15.45v-3.2H1123.5v-2.5h20.15v-3.05H1128.8V501h14.85v-3.55h3.25V501h14.45v5.4h6.15v2.5h-6.15v5.45H1146.9v3h17.3v2.3h-17.3v3.2Zm-37.75,5h31.75v15.25h-3.25v-1.6H1133v1.7h-3.2Zm3.2,2.4v3.2h25.3v-3.2Zm25.3,8.85v-3.4H1133v3.4Zm-11.4-32.7h11.15v-3.05H1146.9Zm0,5.7h11.15v-3.2H1146.9Z"/><rect class="cls-3" x="343" y="1118" width="569" height="569" rx="208"/></svg>