<svg id="Layer_1" data-name="Layer 1" xmlns="http://www.w3.org/2000/svg" viewBox="0 0 1242 2208"><defs><style>.cls-1{fill:#f6eabe;}.cls-2{fill:#999;}.cls-3{fill:none;stroke:#000;stroke-miterlimit:10;stroke-width:48px;}</style></defs><rect class="cls-1" width="1242" height="2208"/><path d="M959.3,139.5v686h-54V788.19H353.49v37.32H301.08v-686Zm-54,597.88V190.32H353.49V737.38Zm-98.46-43.67c-39.69-60.35-115.12-154.83-185-232.64-33.34,95.28-91.3,185-194.52,243-7.15-11.91-21.44-27.79-33.35-36.53,186.59-99.24,212.79-319.18,225.49-454.16h50.82C664.73,272.1,656,341.17,637.73,410.25c78.61,81.78,168.33,188.18,212,255.67Z"/><path d="M157.89,1793.49H143.07v35.15h-4v-38.87h18.78Z"/><path d="M191.13,1790.55c-.06,2.1-.12,5.1-.42,8.64.9,7,4.56,32.51,25.74,42a12.63,12.63,0,0,0-2.88,3.36c-15.42-7.26-21.72-22.74-24.6-34-2.64,12.23-8.94,26.33-24.06,34.19a13.77,13.77,0,0,0-3.12-3.06c25-12.48,24.78-42.11,25-51.11Z"/><path d="M219.81,1841.84h14.82v-35.15h4v38.87H219.81Z"/><path d="M272,1803.63a67.9,67.9,0,0,1-7.2,12.24v28.85h-4v-24a41.57,41.57,0,0,1-7.26,6.41,17,17,0,0,0-2-3.48c7-5,12.3-12.23,16.14-20H252.87v-3.84h16.44a65.25,65.25,0,0,0,3.3-9.42l4.08,1c-.9,2.82-1.86,5.64-3,8.4H305v3.84ZM305,1839.86v3.72H268.83v-3.72h16v-17.52H271.17v-3.71h13.68v-11.82h4v11.82h13.8v3.71h-13.8v17.52Z"/><path d="M337.89,1793.49H323.07v35.15h-4v-38.87h18.78Z"/><path d="M392.37,1793.91v50.57h-4.32v-2.88H349.71V1845h-4.14v-51.11Zm-4.32,43.73v-39.71H349.71v39.71Z"/><path d="M399.81,1841.84h14.82v-35.15h4v38.87H399.81Z"/><path d="M455,1789.17l3.24,1.74c-7.08,7.26-11.28,16.2-11.28,26.76s4.2,19.49,11.28,26.75l-3.24,1.74c-7.32-7.5-11.94-17-11.94-28.49S447.69,1796.67,455,1789.17Z"/><path d="M478.77,1791.69a98.85,98.85,0,0,1-6.18,13.56v39.59h-3.84v-33.35a61.73,61.73,0,0,1-5.46,7,32.86,32.86,0,0,0-2.28-3.9c5.58-5.87,10.8-14.87,14-24Zm34.14,28c-2.1,1.26-4.44,2.64-6.84,3.78,2,6.06,5.82,11.82,10.38,14.52a11.2,11.2,0,0,0-2.64,2.94c-4.62-3.18-8.46-9.42-10.68-16a27.45,27.45,0,0,1-2.76,1.2c2.58,6.84,1.86,14-1,16.68a6.91,6.91,0,0,1-5.22,1.92c-1.08,0-2.4-.06-3.78-.18a9.31,9.31,0,0,0-1-3.42,38.26,38.26,0,0,0,4.14.24,3.66,3.66,0,0,0,3.12-1.14c1.56-1.38,2.22-5.16,1.44-9.36-5.16,4.92-13.08,9.36-19.8,11.7a15.8,15.8,0,0,0-2.34-2.82c7.62-2.28,16.62-7.14,21.3-12.24a35.76,35.76,0,0,0-1.5-3.48,63.52,63.52,0,0,1-17.22,9.9,16.14,16.14,0,0,0-2.22-2.64c5.94-1.8,13.74-5.76,17.88-9.54a16.39,16.39,0,0,0-2.94-3.18,58.44,58.44,0,0,1-13.56,7.26,11.26,11.26,0,0,0-2.22-2.58,52.7,52.7,0,0,0,15.06-7.55H480.33v-9.36c-1.14,1-2.28,2-3.54,2.94a9.37,9.37,0,0,0-2.52-2.58,44.69,44.69,0,0,0,13.86-16.26l3.84.72c-.6,1.2-1.32,2.34-2,3.54H501l.72-.18,2.34,1.68a52.13,52.13,0,0,1-4.8,6.84h13.08v12.66H494.79c-.36.36-.78.66-1.2,1a21,21,0,0,1,5.64,6.84,110,110,0,0,0,10.92-6.42Zm-25.08-21.83a54.58,54.58,0,0,1-4.2,5.16h11.58a37.88,37.88,0,0,0,3.72-5.16Zm-3.9,14.69h10.5v-6.42h-10.5Zm24.72-6.42H498v6.42h10.62Z"/><path d="M576.21,1814.91v4.31H521.73v-4.31Z"/><path d="M633.75,1792.83v52.07h-3.84v-2.34H587.79v2.34h-3.72v-52.07Zm-3.84,46.25v-42.71H587.79v42.71Zm-2.46-23.33h-9.9a75.05,75.05,0,0,1,9.66,8.09l-2.46,2.1a72.84,72.84,0,0,0-12.12-10.19h-9.06a40.89,40.89,0,0,1-3.9,4.38h17.16s0,.77-.06,1.25c-.18,4.56-.48,6.6-1.2,7.38a3.37,3.37,0,0,1-2.64,1,34.82,34.82,0,0,1-4.8-.12,7.81,7.81,0,0,0-.78-2.46c2,.18,3.84.18,4.44.18a1.37,1.37,0,0,0,1.32-.36c.3-.36.48-1.56.6-4.26H602.19V1832c0,1.56.54,1.86,3.54,1.86h10.92c2.16,0,2.58-.66,2.82-4.92a10,10,0,0,0,2.88,1.14c-.36,5.22-1.44,6.54-5.34,6.54h-11.4c-5.22,0-6.72-.84-6.72-4.56v-11.22a37.68,37.68,0,0,1-7.74,5.34,18.48,18.48,0,0,0-2.28-2.76,31.85,31.85,0,0,0,10.5-7.67h-8.82v-2.83h11a26,26,0,0,0,2.46-4.19h-10.5V1806h11.76a44.1,44.1,0,0,0,2.34-8.09l3.42.36a58.9,58.9,0,0,1-2.22,7.73h6.48a44.53,44.53,0,0,0,3.42-7.07l3.18,1c-1.08,2.1-2.28,4.26-3.36,6h6.54v2.77h-17.4a38.46,38.46,0,0,1-2.22,4.19h22ZM599,1805.61a18.11,18.11,0,0,0-3.42-5.46l2.58-1.08a17.19,17.19,0,0,1,3.54,5.34Z"/><path d="M693.69,1793v52h-3.9v-2.58H647.85V1845h-3.78v-52Zm-3.9,45.77v-42.11H647.85v42.11Zm-3.42-31.44v2.58H651.51v-2.58h10c.48-1.19.9-2.51,1.32-3.89h-7.62V1801h8.4c.3-1.2.6-2.4.9-3.48l3.42.42c-.24,1-.54,2-.84,3.06h13.38v6.35Zm-12.9,16.5H686v2.46H673.47v4.62h12v2.58h-12v4.38h-3.66v-4.38H653.67c.78-2,1.5-4.74,2.16-7.2h-3.42v-2.46h17.4v-2.76h-14v-8.75h26.16v8.75h-8.46Zm-3.66,2.46H659c-.42,1.56-.84,3.12-1.32,4.62h12.12Zm-10.56-7.5h19.08v-4.2H659.25Zm7.2-15.35c-.42,1.44-.84,2.7-1.26,3.89h11.88v-3.89Z"/><path d="M711.93,1809c1.26,2.22,4.32,8.27,5,9.89l-2.28,2.76c-.54-1.62-1.62-4.5-2.76-7V1845h-3.3v-26.33a68.63,68.63,0,0,1-5.7,15.17,25,25,0,0,0-2-3.78c3.18-5.1,6.24-14.88,7.68-23.1v-.17h-5.82v-3.6h5.82v-12.72h3.3v12.72h4.74v3.6h-4.74Zm10.44,1.08V1845H719v-52.49h15.18v17.64Zm0-14.64v4.38H731v-4.38Zm8.58,11.64v-4.44h-8.58v4.44Zm13.92,32.45a82.3,82.3,0,0,0-7.44-5.34v8.22h-2.94v-9.06a35.79,35.79,0,0,1-8.4,7,14,14,0,0,0-2-2.16,32.22,32.22,0,0,0,9.36-7.38h-7.2v-11.22h8.34v-2.76h-10v-2.58h10v-3.47h3v3.47h10.38v2.58H737.55v2.76h8.52v11.22h-8.64v.3a103.47,103.47,0,0,1,9.3,6.24Zm-16-11.1h5.94V1822h-5.94Zm3-5.46a20.63,20.63,0,0,1,1.68,3.9l-1.8.72a30.79,30.79,0,0,0-1.62-4.14Zm11.58-1h-6.24v6.48h6.24Zm10.26,19.08c0,1.74-.42,2.64-1.56,3.24s-2.82.6-5.46.6a15.55,15.55,0,0,0-1.08-3.06c1.86.06,3.42,0,3.9,0s.78-.18.78-.84v-30.89H738.21v-17.64h15.48Zm-15.24-13.8a28.9,28.9,0,0,0,1.86-4.38l2,.84c-.84,1.5-1.68,3.06-2.4,4.2Zm2.94-31.79v4.38h8.88v-4.38Zm8.88,11.64v-4.44h-8.88v4.44Z"/><path d="M767.73,1826c4.68-2,7.26-4.86,7.56-9.17a4,4,0,0,1-1.14.11c-2.34,0-4.26-1.31-4.26-4.07a4,4,0,0,1,4.32-4.08c3.18,0,4.86,2.58,4.86,6.66,0,6.41-4,11.21-10.08,13.43Z"/><path d="M810.57,1803.63H791.43v-3.3h19.14Zm-1.2,15.89h-16v-3.23h16Zm-.36,22H797.07v2.82h-3.3v-20H809Zm-15.18-30v-3.23h15.24v3.23Zm7.92-11.69a37.94,37.94,0,0,0-5.16-7.8l3.3-1.32a43.55,43.55,0,0,1,5.4,7.5Zm-4.68,27.77v10.56h8.58v-10.56Zm28.38,10.92a53.19,53.19,0,0,1-13.5,6.54,17.47,17.47,0,0,0-2.58-2.58c4.56-1.32,10.08-3.78,12.72-5.88Zm1-41.93h-14v-2.82h14v-3.42h3.9v3.42h14.94v2.82H830.37v3.06h13.2v2.7h-29v-2.7h11.94ZM812.91,1805h31.92v11.69H812.91Zm30.3,31.55H814.59V1819h28.62Zm-27-22.25h6.12v-6.84h-6.12Zm23.28,7.25H818.25v2.7h21.24Zm0,4.8H818.25v2.76h21.24Zm0,4.8H818.25V1834h21.24Zm-7.32-16.85v-6.84h-7.08v6.84Zm1.56,22.25c4.62,2,9.66,4.38,12.84,6.06l-2.28,2.64c-3-1.68-8-4.2-12.42-6.3Zm7.68-29.09H835v6.84h6.42Z"/><path d="M870.21,1791.75a105.89,105.89,0,0,1-6.18,12.9v40.25h-4v-34.07a58.5,58.5,0,0,1-6.36,7.67,22.37,22.37,0,0,0-2.34-3.9c6-5.81,11.64-14.81,15.06-24Zm17.22,12.48v9H905v3.72H887.43v9.48h18.3v3.78h-18.3V1845h-4v-40.73H879a65.13,65.13,0,0,1-8.64,12.65,28.89,28.89,0,0,0-3.12-2.7c5.46-5.57,10.32-14.27,13.26-23l3.84,1c-1,2.82-2.22,5.58-3.42,8.28h25.38v3.84Z"/><path d="M910.47,1808.07h5l5.1,19.25c.72,3.06,1.32,5.94,2,8.94h.24c.78-3,1.44-5.88,2.28-8.94l5.22-19.25h4.92l5.28,19.25c.78,3.06,1.5,5.94,2.28,8.94H943c.72-3,1.38-5.88,2.1-8.94l5-19.25h4.68l-8.88,32.39h-5.94L935,1822.4c-.9-3.11-1.5-6.06-2.28-9.36h-.3c-.72,3.3-1.38,6.36-2.34,9.42l-4.74,18h-5.76Z"/><path d="M959.25,1824.26c0-10.5,7-17,14.46-17,8.1,0,12.78,5.81,12.78,15.17a14.19,14.19,0,0,1-.24,2.94H964.11c.3,7.2,4.62,12,11.1,12a14.28,14.28,0,0,0,8.22-2.64l1.8,3.24a18.91,18.91,0,0,1-10.62,3.3C966.09,1841.24,959.25,1834.94,959.25,1824.26Zm22.92-2.51c0-6.91-3.12-10.57-8.4-10.57-4.8,0-9.06,3.9-9.72,10.57Zm-12.24-22.08,9.36-11,3.42,3.24-10.2,10.2Z"/><path d="M993.75,1797.69a3.39,3.39,0,0,1,6.78,0,3.39,3.39,0,1,1-6.78,0Zm1,10.38h4.86v32.39h-4.86Z"/><path d="M1009,1846.16l-3.24-1.74c7.08-7.26,11.28-16.2,11.28-26.75s-4.2-19.5-11.28-26.76l3.24-1.74c7.32,7.5,11.94,17,11.94,28.5S1016.31,1838.66,1009,1846.16Z"/><path d="M1089,1801.05v27.77h-4.08v-3.48h-17.82v19.56h-4.14v-19.56h-17.76v3.78h-4v-28.07h21.72v-10.74h4.14v10.74Zm-26,20.33V1805h-17.76v16.43Zm22,0V1805h-17.82v16.43Z"/><path d="M1104,1826c4.68-2,7.26-4.86,7.56-9.17a4,4,0,0,1-1.14.11c-2.34,0-4.26-1.31-4.26-4.07a4,4,0,0,1,4.32-4.08c3.18,0,4.86,2.58,4.86,6.66,0,6.41-4,11.21-10.08,13.43Z"/><path d="M391.92,1863.69a98.85,98.85,0,0,1-6.18,13.56v39.59H381.9v-33.35a61.73,61.73,0,0,1-5.46,7,32.86,32.86,0,0,0-2.28-3.9c5.58-5.87,10.8-14.87,14-24Zm34.14,28c-2.1,1.26-4.44,2.64-6.84,3.78,2,6.06,5.82,11.82,10.38,14.52a11.2,11.2,0,0,0-2.64,2.94c-4.62-3.18-8.46-9.42-10.68-16a27.45,27.45,0,0,1-2.76,1.2c2.58,6.84,1.86,14-1,16.68a6.91,6.91,0,0,1-5.22,1.92c-1.08,0-2.4-.06-3.78-.18a9.31,9.31,0,0,0-1-3.42,38.26,38.26,0,0,0,4.14.24,3.66,3.66,0,0,0,3.12-1.14c1.56-1.38,2.22-5.16,1.44-9.36-5.16,4.92-13.08,9.36-19.8,11.7a15.8,15.8,0,0,0-2.34-2.82c7.62-2.28,16.62-7.14,21.3-12.24a35.76,35.76,0,0,0-1.5-3.48,63.52,63.52,0,0,1-17.22,9.9,16.14,16.14,0,0,0-2.22-2.64c5.94-1.8,13.74-5.76,17.88-9.54a16.39,16.39,0,0,0-2.94-3.18,58.44,58.44,0,0,1-13.56,7.26,11.26,11.26,0,0,0-2.22-2.58,52.7,52.7,0,0,0,15.06-7.55H393.48v-9.36c-1.14,1-2.28,2-3.54,2.94a9.37,9.37,0,0,0-2.52-2.58,44.69,44.69,0,0,0,13.86-16.26l3.84.72c-.6,1.2-1.32,2.34-2,3.54h11.1l.72-.18,2.34,1.68a52.13,52.13,0,0,1-4.8,6.84h13.08v12.66H407.94c-.36.36-.78.66-1.2,1a21,21,0,0,1,5.64,6.84,110,110,0,0,0,10.92-6.42ZM401,1869.81a54.58,54.58,0,0,1-4.2,5.16h11.58a37.88,37.88,0,0,0,3.72-5.16Zm-3.9,14.69h10.5v-6.42h-10.5Zm24.72-6.42H411.18v6.42H421.8Z"/><path d="M489.36,1886.91v4.31H434.88v-4.31Z"/><path d="M510.3,1863.63a99.16,99.16,0,0,1-4.86,11.64V1917H501.6v-34.73a68.26,68.26,0,0,1-6.12,8.46,21.26,21.26,0,0,0-2.22-4c5.46-5.88,10.32-14.94,13.32-24.12Zm37,2.46v50.33h-3.78v-3.06H516.3v3.54h-3.72v-50.81Zm-3.78,43.73v-40.25H516.3v40.25Zm-11.82-28.13v6.83h7.08v16H521.58v-16h6.78v-6.83h-9.42v-3.19h9.42v-6.83h3.3v6.83h9.66v3.19Zm3.9,9.89H524.7v9.9h10.86Z"/><path d="M572.4,1900.94c-1.08-1.86-3.54-5.58-5.58-8.46v24.42H563.1v-23.82a56.29,56.29,0,0,1-7.08,7.74,11.85,11.85,0,0,0-1.92-3.54c5.58-4.68,11.58-12.83,14.94-20.63H554.58V1873h16.26l.66-.18,2,1.56a67.06,67.06,0,0,1-6.72,13.38v0c.54.61,1.2,1.45,1.92,2.41a56.82,56.82,0,0,0,4.8-5.83l2.52,2.22c-1.92,2-4,4.15-5.7,5.7,1.8,2.28,3.54,4.62,4.2,5.58Zm-7.14-28.37a66.87,66.87,0,0,0-4.56-8.52l3-1.44a59.65,59.65,0,0,1,4.74,8.1Zm41,14.1a43.07,43.07,0,0,1-10,19.19,35.15,35.15,0,0,0,13.44,7.5,13.76,13.76,0,0,0-2.46,3.42,37.16,37.16,0,0,1-13.62-8.22A43.22,43.22,0,0,1,580,1917a12,12,0,0,0-2.22-3.24,37.79,37.79,0,0,0,13.32-7.86,46.92,46.92,0,0,1-9.06-16.44h-.84c-.18,8.58-1.62,19.5-7.62,27.12a11.46,11.46,0,0,0-2.88-2.52c6.18-7.92,6.9-18.89,6.9-27.18v-15.53H590.4v-8.94h3.78v8.94h11.28l.66-.18,2.76.78a119.61,119.61,0,0,1-3.84,11.81l-3.42-.84c.78-2,1.68-5,2.46-7.85h-9.9v10.8h8.94l.72-.19Zm-25-11.64v10.8h9.18V1875Zm4.38,14.39a39.46,39.46,0,0,0,8,13.8,37.2,37.2,0,0,0,7.92-13.8Z"/><path d="M632.94,1892.25l-6.9,2.33v17.34c0,2.34-.54,3.42-2,4.14s-3.6.78-7.44.72a14.44,14.44,0,0,0-1.2-3.78c2.64.06,5,.06,5.7,0s1.08-.24,1.08-1.08v-16.08l-7.2,2.34-1.08-3.78c2.28-.65,5.16-1.56,8.28-2.57v-13.75h-7.38v-3.71h7.38v-12H626v12h6.66v3.71H626v12.55l6.3-2.05Zm34.62-20s0,1.62-.06,2.1c-.9,27.89-1.74,37.31-4.08,40.19a5.46,5.46,0,0,1-4.44,2.28,70.05,70.05,0,0,1-8.64-.06,10.13,10.13,0,0,0-1.26-4c3.72.3,7.08.3,8.4.3a2.57,2.57,0,0,0,2.46-.9c1.86-2.16,2.76-11.28,3.6-36.23H640.92a54.74,54.74,0,0,1-6.6,9.84,29.26,29.26,0,0,0-3.18-2.41c4.8-5,8.76-12.89,11.22-20.93l3.84.9a82.48,82.48,0,0,1-3.42,8.88H665v.06ZM641.1,1903v4.2h-3.6v-23.81h18.06V1903Zm0-16.14v12.66H652v-12.66Z"/><path d="M686.88,1875.69a40.27,40.27,0,0,1-9.9,11,10.51,10.51,0,0,0-2.46-2.76,35.11,35.11,0,0,0,11-12h-8.88v-3.36h10.2v-6.24h3.72v6.24h8.46v3.36H690.6v.66c2.16,1.38,7.86,5.51,9.36,6.66l-2.22,2.76c-1.38-1.32-4.62-4-7.14-6v11.17h-3.72Zm-10.74,22.19h52v3.48H704v15.54H699.9v-15.54H676.14Zm17,7.2a46.17,46.17,0,0,1-12.6,10.8,19.06,19.06,0,0,0-3.12-2.52,35.84,35.84,0,0,0,12-9.54ZM683,1889.37h38.82v3.35H683ZM712.68,1875a40.36,40.36,0,0,1-10.92,11.15,15.91,15.91,0,0,0-2.46-2.76,35.29,35.29,0,0,0,11.82-11.51h-9.18v-3.36h10.74v-6.24h3.78v6.24h10.62v3.36h-8.94c4,3.54,8.52,8,10.62,11.09l-2.58,2.34a71.61,71.61,0,0,0-9.72-10.73v12.6h-3.78Zm.66,28.61a90.63,90.63,0,0,1,12.78,9.42l-3.12,2.28a105.33,105.33,0,0,0-12.6-9.66Z"/><path d="M751,1863c-1,2.94-2.1,6.3-3.18,8.88H758v38.75h-16.8v4.8h-3.66v-43.55h6.66a64.68,64.68,0,0,0,2.58-9.72Zm3.3,12.47H741.18v13.08h13.14Zm0,31.56v-14.88H741.18v14.88Zm33.06-33.17c-1,27.53-1.8,36.71-4.2,39.59a5.6,5.6,0,0,1-4.56,2.28,74.94,74.94,0,0,1-8.82-.12,9.42,9.42,0,0,0-1.32-3.9c3.9.36,7.5.36,8.82.36s1.92-.12,2.52-.9c2-2.1,2.94-11.34,3.72-35.7H767.82a55.33,55.33,0,0,1-5.64,10.68,36.22,36.22,0,0,0-3.36-2.22c4.08-5.33,7.32-13.61,9.18-21.89l3.84.84c-.78,3-1.62,6-2.64,8.88h18.18Zm-12.78,27a106.51,106.51,0,0,0-9.3-13.92l3.06-1.79a102.47,102.47,0,0,1,9.6,13.61Z"/><path d="M824.28,1862.55c-.06,2.1-.12,5.1-.42,8.64.9,7,4.56,32.51,25.74,42a12.63,12.63,0,0,0-2.88,3.36c-15.42-7.26-21.72-22.74-24.6-34-2.64,12.23-8.94,26.33-24.06,34.19a13.77,13.77,0,0,0-3.12-3.06c25-12.48,24.78-42.11,25-51.11Z"/><path d="M867.18,1880.67a9.06,9.06,0,1,1-9.06,9A9.09,9.09,0,0,1,867.18,1880.67Zm0,15.23a6.18,6.18,0,1,0,0-12.36,6.18,6.18,0,1,0,0,12.36Z"/><path d="M450.24,1935.51a13.18,13.18,0,0,1-.84,1.08c5.7,5.64,16.2,10.62,25.56,12.83a12.89,12.89,0,0,0-2.52,3.12,71.7,71.7,0,0,1-14.88-6.17l-.06,1.92H436.74l.06-1.68a88.84,88.84,0,0,1-14.88,6.23,32.14,32.14,0,0,0-2.28-3c10.8-3,21.48-8.28,27.12-15.6Zm-23.16,16H467v14.88h-39.9Zm3.42,12.06h14.7v-9.23H430.5Zm.12,5.82H464v19.38h-4v-1.86h-25.5v2h-3.9Zm6.66-14.21a21.72,21.72,0,0,1,3.78,6.83l-3.06,1.21a27.26,27.26,0,0,0-3.6-7.09Zm-2.76,17.15v4.32H460v-4.32Zm25.5,11.64v-4.38h-25.5v4.38Zm-4.2-38.57a48.46,48.46,0,0,1-8.58-6.42,45.19,45.19,0,0,1-8.34,6.42Zm7.5,8.94H448.56v9.23h14.76Zm-10.62,7.79a53.26,53.26,0,0,0,3.54-7.2l3.36,1.08a73,73,0,0,1-4.14,7.21Z"/><path d="M481.08,1985.48c3.06-2.58,5.64-7,7.08-10.44l3.3,1.5c-1.68,3.6-4.08,8-7.14,10.86Zm51.72-36.9v3.25H481.56v-3.25h14.16a23.89,23.89,0,0,0-2.34-5.45l3.36-.84H484.26V1939h21.9c-.72-1.44-1.56-2.94-2.34-4.2l3.78-.9a39.9,39.9,0,0,1,2.94,5.1h19.2v3.3H517.86l3.24.78c-1,1.92-2,3.84-3,5.51Zm-7,23.7H504.66a47.07,47.07,0,0,1,8.82,6.24L511,1981a48.61,48.61,0,0,0-9.3-6.9l2-1.8H488.58V1955h37.2Zm-3.9-14.45H492.36v4.43h29.52Zm0,7.13H492.36v4.44h29.52Zm-8.22,20.16c2.58,0,3-.72,3.24-6.24a12.08,12.08,0,0,0,3.54,1.38c-.48,6.66-1.74,8.22-6.42,8.22H502.44c-5.82,0-7.38-1-7.38-5v-8H499v8c0,1.38.54,1.68,3.72,1.68ZM497,1942.29a26.19,26.19,0,0,1,2.76,6.18l-.48.11H514a59.18,59.18,0,0,0,3.06-6.29Zm27.66,32.21a46.55,46.55,0,0,1,8,10.2l-3.36,1.74a49,49,0,0,0-7.8-10.56Z"/><path d="M557.94,1964.25l-6.9,2.33v17.34c0,2.34-.54,3.42-2,4.14s-3.6.78-7.44.72a14.44,14.44,0,0,0-1.2-3.78c2.64.06,5,.06,5.7,0s1.08-.24,1.08-1.08v-16.08l-7.2,2.34-1.08-3.78c2.28-.65,5.16-1.56,8.28-2.57v-13.75h-7.38v-3.71h7.38v-12H551v12h6.66v3.71H551v12.55l6.3-2.05Zm34.62-20s0,1.62-.06,2.1c-.9,27.89-1.74,37.31-4.08,40.19a5.46,5.46,0,0,1-4.44,2.28,70.05,70.05,0,0,1-8.64-.06,10.13,10.13,0,0,0-1.26-4c3.72.3,7.08.3,8.4.3a2.57,2.57,0,0,0,2.46-.9c1.86-2.16,2.76-11.28,3.6-36.23H565.92a54.74,54.74,0,0,1-6.6,9.84,29.26,29.26,0,0,0-3.18-2.41c4.8-5,8.76-12.89,11.22-20.93l3.84.9a82.48,82.48,0,0,1-3.42,8.88H590v.06ZM566.1,1975v4.2h-3.6v-23.81h18.06V1975Zm0-16.14v12.66H577v-12.66Z"/><path d="M611.88,1947.69a40.27,40.27,0,0,1-9.9,11,10.51,10.51,0,0,0-2.46-2.76,35.11,35.11,0,0,0,11-12h-8.88v-3.36h10.2v-6.24h3.72v6.24h8.46v3.36H615.6v.66c2.16,1.38,7.86,5.51,9.36,6.66l-2.22,2.76c-1.38-1.32-4.62-4-7.14-6v11.17h-3.72Zm-10.74,22.19h52v3.48H629v15.54H624.9v-15.54H601.14Zm17,7.2a46.17,46.17,0,0,1-12.6,10.8,19.06,19.06,0,0,0-3.12-2.52,35.84,35.84,0,0,0,12-9.54ZM608,1961.37h38.82v3.35H608ZM637.68,1947a40.36,40.36,0,0,1-10.92,11.15,15.91,15.91,0,0,0-2.46-2.76,35.29,35.29,0,0,0,11.82-11.51h-9.18v-3.36h10.74v-6.24h3.78v6.24h10.62v3.36h-8.94c4,3.54,8.52,8,10.62,11.09l-2.58,2.34a71.61,71.61,0,0,0-9.72-10.73v12.6h-3.78Zm.66,28.61a90.63,90.63,0,0,1,12.78,9.42l-3.12,2.28a105.33,105.33,0,0,0-12.6-9.66Z"/><path d="M680.52,1967.06l-3.66,3.12a93.63,93.63,0,0,0-13.32-13.38l3.42-3.11A118.53,118.53,0,0,1,680.52,1967.06Z"/><path d="M713,1964.84a57.68,57.68,0,0,1,3.42,6.48l-2,.84h.42v5.28c0,4.5-1.08,8.52-8.52,11.16a10.81,10.81,0,0,0-2-2.46c4-1.2,5.94-2.94,6.78-4.8H703v-8.28h2.82v5.64h6a9.72,9.72,0,0,0,.06-1.32v-5.22h2.22c-.24-.6-.54-1.2-.84-2-9.66,1-11.1,1.2-11.94,1.56v-.06a18.19,18.19,0,0,0-.9-2.76,7,7,0,0,0,3.24-1.68,46,46,0,0,0,3.72-3.3c-4.2.31-5.22.48-5.76.78v0a17.53,17.53,0,0,0-1-2.83,3.64,3.64,0,0,0,2-1.08,30.18,30.18,0,0,0,4.38-5.69H696.3v34h-3.84V1937h21.66v18.12h-6.24l2,1a38.84,38.84,0,0,1-4.8,5.71l4.74-.25c.9-1,1.86-2,2.64-3.12l2.46,1.62a62.38,62.38,0,0,1-9.24,8.4l6.48-.42c-.48-.89-1-1.74-1.38-2.52ZM696.3,1940v4.74h14V1940Zm0,12.12h14v-4.57h-14Zm45.6,31.73c0,2.4-.42,3.6-1.92,4.32s-4.08.78-7.74.78a19.7,19.7,0,0,0-1.32-4c2.76.12,5.34.12,6.06.06s1.08-.3,1.08-1.14v-28.73H724.2l2.1,1.08a38.1,38.1,0,0,1-4.8,5.64l4.68-.19a35.56,35.56,0,0,0,2.76-3.23l2.4,1.62a59.09,59.09,0,0,1-9.36,8.51l6.48-.48c-.48-.84-.9-1.74-1.38-2.52l2.16-.72c1.32,2.1,2.82,4.86,3.6,6.48l-2.28,1c-.24-.6-.6-1.26-1-2-9.66.9-11.1,1.2-11.88,1.5a25,25,0,0,0-.9-2.82,6.38,6.38,0,0,0,3.18-1.62,46,46,0,0,0,3.84-3.36c-4.26.31-5.34.54-5.82.78a17,17,0,0,0-1-2.88,3.09,3.09,0,0,0,2-1.08,29.8,29.8,0,0,0,4.44-5.69H719.7V1937h22.2Zm-13.8-.6v-1.86h-6.18v6.72h-3.06v-15.9h3.06v6.54h6.18v-5.58H731v10.08ZM723.54,1940v4.74h14.52V1940Zm14.52,12.12v-4.57H723.54v4.57Z"/><path d="M768.78,1964.48c-2.4.78-4.8,1.56-7.14,2.22V1984c0,2.28-.54,3.3-1.92,3.9s-3.66.78-7.44.78a16.91,16.91,0,0,0-1.2-3.6c2.58.06,5,0,5.64,0,.84,0,1.08-.24,1.08-1.08V1967.9c-2.46.78-4.86,1.5-7,2.1l-1.2-3.83c2.34-.61,5.16-1.39,8.22-2.29v-13.61h-7.44v-3.72h7.44v-12.18h3.84v12.18h6.72v3.72h-6.72v12.59l6.66-2ZM802.5,1938v33.47h-4v-3.24H788.7v20.64h-3.78v-20.64h-9.6v3.48h-3.9V1938Zm-27.18,3.72v9.42h9.6v-9.42Zm9.6,22.85v-9.72h-9.6v9.72Zm13.62-22.85H788.7v9.42h9.84Zm0,22.85v-9.72H788.7v9.72Z"/><path d="M822.18,1952.67a9.06,9.06,0,1,1-9.06,9A9.09,9.09,0,0,1,822.18,1952.67Zm0,15.23a6.18,6.18,0,1,0,0-12.36,6.18,6.18,0,1,0,0,12.36Z"/><rect class="cls-2" x="1113" y="1200" width="65" height="220" rx="12"/><path class="cls-1" d="M1157.05,1238.79a27.61,27.61,0,0,0,11.5,8.1,11.65,11.65,0,0,0-2.15,2.55,30.77,30.77,0,0,1-12.8-10.65h-15.95a34.39,34.39,0,0,1-13,11.3,11.43,11.43,0,0,0-2.15-2.55,30.39,30.39,0,0,0,11.6-8.75H1123v-2.85h10v-16.15h-7.7V1217h7.7v-5h3.3v5h18.55v-5h3.35v5h7.65v2.8h-7.65v16.15h9.8v2.85Zm-10,14.5h17.3v2.85H1126.8v-2.85h16.9v-5.6h-10.45v-2.8h10.45v-4.4h3.35v4.4h10.65v2.8h-10.65Zm-10.8-33.5v3.6h18.55v-3.6Zm0,9.8h18.55v-3.65h-18.55Zm0,6.35h18.55v-3.8h-18.55Z"/><path class="cls-1" d="M1141.25,1280.54s0,1.15,0,1.55c-.6,15.85-1.2,21.2-2.6,23a3.71,3.71,0,0,1-2.8,1.45,32.65,32.65,0,0,1-4.45,0,9.25,9.25,0,0,0-.85-3c1.75.15,3.2.15,3.9.15a1.42,1.42,0,0,0,1.45-.65c1-1.2,1.6-6,2.15-19.35h-6.8c-.55,10-2,18.25-6.45,23.65a9.53,9.53,0,0,0-2.55-2.35c5.45-6.45,5.9-17.85,6.1-31.55h-5.2v-3.1h20.1v3.1h-11.65c0,2.45-.1,4.85-.2,7.15Zm-7.9-10.45a33.47,33.47,0,0,0-4.25-7.15l2.9-1.15a31.92,31.92,0,0,1,4.4,7Zm23.85-7.45a15.26,15.26,0,0,1-.85,2.55c2.65,5.45,7.7,11.35,12.45,14a13,13,0,0,0-2.45,2.75c-4.25-2.7-8.5-8-11.4-13.3a32.61,32.61,0,0,1-11,13.6,12.79,12.79,0,0,0-2.35-2.65c5.85-3.6,10.35-10.2,12.5-17.85Zm-8.3,32.45a74,74,0,0,1,13.6,8.25l-2.25,2.9c-2.85-2.6-8.75-6.3-13.4-8.65Zm9.5-4.85a66.22,66.22,0,0,0-8.6-6.85l2.15-2.2a67.46,67.46,0,0,1,8.75,6.55Z"/><path class="cls-1" d="M1134.5,1325c-1.6,7.2-4.55,16.15-9.1,21.7a19.23,19.23,0,0,0-3.1-1.8c4.55-5.25,7.3-13.85,8.55-20.55Zm12.9-12.3v40c0,2.55-.7,3.6-2.35,4.2s-4.8.6-9.4.6a15.62,15.62,0,0,0-1.4-3.45c3.7.1,7.3.1,8.25.05s1.45-.35,1.45-1.4v-40ZM1159,1324c4.45,7,8.7,16.1,10,22l-3.45,1.45c-1.25-5.85-5.25-15.15-9.6-22.3Z"/><path class="cls-1" d="M1163.65,1389.74a72.75,72.75,0,0,1-7.65,3.65,19.75,19.75,0,0,0,12.1,9.55,10.66,10.66,0,0,0-2.1,2.6,22.77,22.77,0,0,1-12.5-11.1c-1.1.45-2.15.85-3.2,1.2,1.5,4.4.7,8.7-1.6,10.35a6,6,0,0,1-4.25,1.3c-1,0-2.25,0-3.55-.1a5.77,5.77,0,0,0-.9-2.85,30,30,0,0,0,4,.2,4.12,4.12,0,0,0,2.7-.65c1.35-1,1.9-3.75,1-6.9-5.55,3.7-14.45,7-22,8.45a11,11,0,0,0-1.45-2.4c8-1.1,17.65-4.65,22.65-8.35a13.35,13.35,0,0,0-1.25-2.15,69.47,69.47,0,0,1-17.55,6.35,7.59,7.59,0,0,0-1.4-2.15c5.8-1,13.4-3.4,17.7-5.85-.6-.55-1.25-1.15-2-1.7a80,80,0,0,1-15.25,4.15,16.41,16.41,0,0,0-1.55-2.2c5.7-.75,12.15-2.15,16.75-4.15h-18.55v-2.55h28c.3-.9.55-1.8.9-2.75h-21.7c1.25-2.8,3-7,4-10.25l3,.5a42,42,0,0,0-3.4-3.25l2-1.15h-6.25a29.23,29.23,0,0,1-5.1,5.6,25.27,25.27,0,0,0-2.35-2.2,26.89,26.89,0,0,0,7.5-9.35l3,.85c-.45.9-1,1.75-1.4,2.65h13.45v2.45h-8.3a44.9,44.9,0,0,1,4,3.65l-2.45,1.6a4.8,4.8,0,0,0-.7-.75c-.2.65-.45,1.25-.65,2h17.75l.6-.2,2.25.5c-.8,3.15-1.9,7-3,10.15h12V1387h-20.25c-.6.35-1.2.7-1.85,1a16.36,16.36,0,0,1,4.4,5.35,90.1,90.1,0,0,0,11.6-5.5Zm-10.2-10.3c.35-1.15.65-2.2,1-3.2h-17.7c-.45,1.15-.9,2.2-1.3,3.2Zm14.75-14.3v2.45h-16.6a28.84,28.84,0,0,1-4.55,5.15,15.06,15.06,0,0,0-2.55-2,21.57,21.57,0,0,0,6.7-9.1l3.1.8a26.43,26.43,0,0,1-1.25,2.7Zm-7.9,8a32.47,32.47,0,0,0-3.9-4.25l2.3-1.25a30.14,30.14,0,0,1,4,4Z"/><rect class="cls-2" x="1113" y="408" width="65" height="126" rx="12"/><path class="cls-1" d="M1132.7,437.82c1.25,1.6,4.9,6.7,5.7,8.05l-2,2.45c-.7-1.5-2.35-4.4-3.75-6.65V468h-3.15V443.57c-1.5,5.05-3.5,9.9-5.55,12.85a14.83,14.83,0,0,0-1.75-3.1c2.9-4,5.8-11.5,7.2-18h-6.2v-3.15h6.3v-9.65h3.15v9.65h5.45v3.15h-5.45Zm19.1.7a19.47,19.47,0,0,0,.45,2.65c-10.15,2.7-11.6,3.15-12.5,3.75a12.13,12.13,0,0,0-1.1-3.2c.7-.2,1.55-.5,1.55-2.2v-16.7h3.25v6.5h8.35v2.9h-8.35v8.3Zm2.35,5.5-2,3.75h12.65V468h-3.4v-1.75h-17v2h-3.3V447.77h7.9c.55-1.5,1.2-3.25,1.55-4.6Zm7.3,6.5h-17v5.05h17Zm0,13v-5.3h-17v5.3Zm2.25-22.4c1.25,0,1.5-.75,1.65-5.25a9.16,9.16,0,0,0,2.85,1.25c-.3,5.45-1.2,6.95-4.15,6.95h-5.85c-3.65,0-4.55-.95-4.55-4.45V422.87h3.25v6.5h10.2v2.9h-10.2v7.35c0,1.3.25,1.5,1.65,1.5Z"/><path class="cls-1" d="M1167.55,497.87v2.5H1123.4v-2.5h20.25v-3.2H1126.8v-2.3h16.85v-3H1128.2v-2.25h15.45v-3.2H1123.5v-2.5h20.15v-3.05H1128.8V476h14.85v-3.55h3.25V476h14.45v5.4h6.15v2.5h-6.15v5.45H1146.9v3h17.3v2.3h-17.3v3.2Zm-37.75,5h31.75v15.25h-3.25v-1.6H1133v1.7h-3.2Zm3.2,2.4v3.2h25.3v-3.2Zm25.3,8.85v-3.4H1133v3.4Zm-11.4-32.7h11.15v-3.05H1146.9Zm0,5.7h11.15v-3.2H1146.9Z"/><path d="M564.22,1152.49q3.72.42,7.44.92l-6.78-.91A336.89,336.89,0,0,1,650,1175.79l-6.09-2.57c17,7.21,34.18,15.42,48.93,26.71l-5.16-4a90.77,90.77,0,0,1,16.24,15.82l-4-5.16a58.75,58.75,0,0,1,7.48,12.61l-2.57-6.09a47,47,0,0,1,3.13,11.22l-.91-6.77a46.47,46.47,0,0,1,0,12.13l.91-6.78a53.76,53.76,0,0,1-3.73,13.26l2.57-6.1c-3.73,8.66-9.21,16.39-14.94,23.82l4-5.16c-11.15,14.41-23.9,28.22-31.22,45.12a114.92,114.92,0,0,0-6.86,19.2,137.34,137.34,0,0,0-2.95,19.57c-1,11.42.3,22.77,2.06,34.06,3.33,21.42,11.42,41.71,20,61.47,8.51,19.51,18.2,38.53,27.47,57.69L737,1553.23c2.66,5.5,9.54,10.15,15.24,11.72,6.1,1.68,14.23.93,19.65-2.57s10.23-8.73,11.72-15.24l.91-6.78a25.43,25.43,0,0,0-3.49-12.87l-50-103.29c-4.18-8.64-8.24-17.34-12-26.18l2.57,6.09c-7.31-17.36-13.51-35.38-16-54.12l.92,6.78a110.08,110.08,0,0,1-.25-28.21l-.92,6.78a85.93,85.93,0,0,1,5.89-21.83l-2.57,6.09c4-9.4,9.87-17.76,16.09-25.82l-4,5.16c6.34-8.17,13-16.14,19-24.5a117.12,117.12,0,0,0,14-25.73,51.78,51.78,0,0,0,3.15-11.13c1-6,1.87-12.12,1.26-18.24-.59-5.95-1.34-12-3.4-17.61a82.31,82.31,0,0,0-7.81-16.51c-11.44-17.7-28.51-31.06-46.77-41.2a361.73,361.73,0,0,0-62-26.89c-24.08-8-48.87-12.79-74-15.64a28.43,28.43,0,0,0-18,7.47c-4.42,4.42-7.75,11.68-7.46,18,.29,6.6,2.46,13.44,7.46,18l5.17,4a25.27,25.27,0,0,0,12.87,3.48Z"/><path d="M617.93,1167a598.47,598.47,0,0,1-22.54,72.77q-3.78,9.93-7.92,19.72l2.57-6.1q-11.43,27.06-25.49,52.9A579.26,579.26,0,0,1,534.13,1356q-9.25,13.56-19.29,26.55l4-5.16q-13.61,17.61-28.6,34.09a26.24,26.24,0,0,0,0,36.07c4.86,4.46,11.24,7.77,18,7.46l6.78-.91a25.43,25.43,0,0,0,11.25-6.55,617.07,617.07,0,0,0,39.52-48.42q16.86-22.77,31.39-47.15T624,1301.6c9.07-19.22,17.28-38.91,24.47-58.92q9.76-27.15,16.88-55.17c.6-2.33,1.17-4.66,1.73-7a19.24,19.24,0,0,0,.46-10.17,18.9,18.9,0,0,0-3-9.48,28.52,28.52,0,0,0-15.24-11.72l-6.77-.91a25.37,25.37,0,0,0-12.87,3.49c-5.49,3.53-10.15,8.72-11.72,15.23Z"/><rect class="cls-3" x="328" y="1012" width="610" height="610" rx="208"/></svg>