<svg id="Layer_1" data-name="Layer 1" xmlns="http://www.w3.org/2000/svg" viewBox="0 0 1242 2208"><defs><style>.cls-1{fill:#f6eabe;}.cls-2{fill:#999;}.cls-3{fill:none;stroke:#000;stroke-miterlimit:10;stroke-width:48px;}</style></defs><rect class="cls-1" width="1242" height="2208"/><path d="M958.51,119.94V809.13H907.69V770.22H350.31v38.91H301.08V119.94ZM907.69,724.17V168.38H350.31V724.17ZM647.26,385.93c-2.38,14.29-4.76,27.79-7.94,41.29C722.69,499.47,814,595.54,857.67,659.06l-38.11,31.76c-38.91-58.75-117.51-146.09-192.15-216C597.24,570.93,542.46,648,434.47,698c-6.35-13.5-22.23-32.56-33.34-41.29C527.37,601.1,575.8,505,595.65,385.93H398.74V337.5H602.8c4.76-42.09,7.14-87.34,8.73-134.19h51.61c-2.38,46.85-4.76,91.31-9.53,134.19H859.26v48.43Z"/><path d="M217.89,1740.49H203.07v35.15h-4v-38.87h18.78Z"/><path d="M252.27,1758.72c4.26,13.5,12.18,24.6,23.76,29.46a20.09,20.09,0,0,0-2.94,3.72c-11.7-5.52-19.56-16.62-24.18-30.65-2.82,11.87-9.24,23.87-24.18,30.71a15.58,15.58,0,0,0-3-3.3c15.06-6.54,21.06-18.42,23.52-29.94H222.81v-4.07H246a123.53,123.53,0,0,0,1-17.22h4.2a133,133,0,0,1-1,17.22h25v4.07Z"/><path d="M279.81,1788.84h14.82v-35.15h4v38.87H279.81Z"/><path d="M332,1750.63a67.9,67.9,0,0,1-7.2,12.24v28.85h-4v-24a41.57,41.57,0,0,1-7.26,6.41,17,17,0,0,0-2-3.48c7-5,12.3-12.23,16.14-20H312.87v-3.84h16.44a65.25,65.25,0,0,0,3.3-9.42l4.08,1c-.9,2.82-1.86,5.64-3,8.4H365v3.84ZM365,1786.86v3.72H328.83v-3.72h16v-17.52H331.17v-3.71h13.68v-11.82h4v11.82h13.8v3.71h-13.8v17.52Z"/><path d="M397.89,1740.49H383.07v35.15h-4v-38.87h18.78Z"/><path d="M452.37,1740.91v50.57h-4.32v-2.88H409.71V1792h-4.14v-51.11Zm-4.32,43.73v-39.71H409.71v39.71Z"/><path d="M459.81,1788.84h14.82v-35.15h4v38.87H459.81Z"/><path d="M515,1736.17l3.24,1.74c-7.08,7.26-11.28,16.2-11.28,26.76s4.2,19.49,11.28,26.75l-3.24,1.74c-7.32-7.5-11.94-17-11.94-28.49S507.69,1743.67,515,1736.17Z"/><path d="M538.77,1738.69a98.85,98.85,0,0,1-6.18,13.56v39.59h-3.84v-33.35a61.73,61.73,0,0,1-5.46,7,32.86,32.86,0,0,0-2.28-3.9c5.58-5.87,10.8-14.87,14-24Zm34.14,28c-2.1,1.26-4.44,2.64-6.84,3.78,2,6.06,5.82,11.82,10.38,14.52a11.2,11.2,0,0,0-2.64,2.94c-4.62-3.18-8.46-9.42-10.68-16a27.45,27.45,0,0,1-2.76,1.2c2.58,6.84,1.86,14-1,16.68a6.91,6.91,0,0,1-5.22,1.92c-1.08,0-2.4-.06-3.78-.18a9.31,9.31,0,0,0-1-3.42,38.26,38.26,0,0,0,4.14.24,3.66,3.66,0,0,0,3.12-1.14c1.56-1.38,2.22-5.16,1.44-9.36-5.16,4.92-13.08,9.36-19.8,11.7a15.8,15.8,0,0,0-2.34-2.82c7.62-2.28,16.62-7.14,21.3-12.24a35.76,35.76,0,0,0-1.5-3.48,63.52,63.52,0,0,1-17.22,9.9,16.14,16.14,0,0,0-2.22-2.64c5.94-1.8,13.74-5.76,17.88-9.54a16.39,16.39,0,0,0-2.94-3.18,58.44,58.44,0,0,1-13.56,7.26,11.26,11.26,0,0,0-2.22-2.58,52.7,52.7,0,0,0,15.06-7.55H540.33v-9.36c-1.14,1-2.28,2-3.54,2.94a9.37,9.37,0,0,0-2.52-2.58,44.69,44.69,0,0,0,13.86-16.26l3.84.72c-.6,1.2-1.32,2.34-2,3.54H561l.72-.18,2.34,1.68a52.13,52.13,0,0,1-4.8,6.84h13.08v12.66H554.79c-.36.36-.78.66-1.2,1a21,21,0,0,1,5.64,6.84,110,110,0,0,0,10.92-6.42Zm-25.08-21.83a54.58,54.58,0,0,1-4.2,5.16h11.58a37.88,37.88,0,0,0,3.72-5.16Zm-3.9,14.69h10.5v-6.42h-10.5Zm24.72-6.42H558v6.42h10.62Z"/><path d="M633.45,1758.72a131,131,0,0,1-13.62,12.9c3.72,5.94,9,10.92,16.68,15.48a8.27,8.27,0,0,0-2.82,3.42c-15.66-9.84-21.48-21.18-24.66-38a62.33,62.33,0,0,1-10.32,10.8v22.19l16.86-5.22a20.42,20.42,0,0,0,.9,3.66c-19,6.06-21.18,6.78-22.68,7.86a13.55,13.55,0,0,0-2.16-3.18,5.75,5.75,0,0,0,3.06-4.92V1766.4a69.18,69.18,0,0,1-11.28,6.6,31.69,31.69,0,0,0-2.22-3.3c9.42-4.26,18.6-11.4,24-18.71H582.75v-3.84h26.16a47,47,0,0,0-3.9-8.76l3.9-1.26a35.74,35.74,0,0,1,4.08,8.64l-4,1.38h26.1V1751h-22.5a62.92,62.92,0,0,0,5.34,17.39,94.36,94.36,0,0,0,12.06-12Z"/><path d="M662.73,1787.1c0,2.28-.54,3.48-2,4.2s-3.84.72-8,.72a12.14,12.14,0,0,0-1.14-3.84c2.88.12,5.46.06,6.18.06s1.14-.3,1.14-1.2v-15.3h-10c-.54,7.08-1.68,14.64-4.5,20.34a10.3,10.3,0,0,0-3.24-1.92c4.14-8.46,4.44-20.34,4.44-29.21v-21.42h17.1ZM659,1768v-10.62h-9.66V1761c0,2.15-.06,4.55-.12,7Zm-9.66-24.65v10.32H659v-10.32ZM695,1760.64a51.47,51.47,0,0,1-8.46,20.22,34.07,34.07,0,0,0,10.26,8.16,14,14,0,0,0-2.58,3.06,35.34,35.34,0,0,1-10-8.34,38.17,38.17,0,0,1-9.36,7.86,12,12,0,0,0-2.34-2.94,33,33,0,0,0,9.48-7.92,60.54,60.54,0,0,1-8.16-17.16h-1.74V1792h-3.78v-52.25h25v11.52c0,2.16-.48,3.17-2.22,3.78s-4.74.6-9.24.6a12.25,12.25,0,0,0-1.32-3.48c3.78.12,6.84.12,7.74.06s1.2-.3,1.2-1v-7.74H672.09v16.43H692l.66-.12Zm-17.64,2.94a51.29,51.29,0,0,0,6.9,14.22,47.54,47.54,0,0,0,6.42-14.22Z"/><path d="M707.73,1773c4.68-2,7.26-4.86,7.56-9.17a4,4,0,0,1-1.14.11c-2.34,0-4.26-1.31-4.26-4.07a4,4,0,0,1,4.32-4.08c3.18,0,4.86,2.58,4.86,6.66,0,6.41-4,11.21-10.08,13.43Z"/><path d="M750.57,1750.63H731.43v-3.3h19.14Zm-1.2,15.89h-16v-3.23h16Zm-.36,22H737.07v2.82h-3.3v-20H749Zm-15.18-30v-3.23h15.24v3.23Zm7.92-11.69a37.94,37.94,0,0,0-5.16-7.8l3.3-1.32a43.55,43.55,0,0,1,5.4,7.5Zm-4.68,27.77v10.56h8.58v-10.56Zm28.38,10.92a53.19,53.19,0,0,1-13.5,6.54,17.47,17.47,0,0,0-2.58-2.58c4.56-1.32,10.08-3.78,12.72-5.88Zm1-41.93h-14v-2.82h14v-3.42h3.9v3.42h14.94v2.82H770.37v3.06h13.2v2.7h-29v-2.7h11.94ZM752.91,1752h31.92v11.69H752.91Zm30.3,31.55H754.59V1766h28.62Zm-27-22.25h6.12v-6.84h-6.12Zm23.28,7.25H758.25v2.7h21.24Zm0,4.8H758.25v2.76h21.24Zm0,4.8H758.25V1781h21.24Zm-7.32-16.85v-6.84h-7.08v6.84Zm1.56,22.25c4.62,2,9.66,4.38,12.84,6.06l-2.28,2.64c-3-1.68-8-4.2-12.42-6.3Zm7.68-29.09H775v6.84h6.42Z"/><path d="M810.21,1738.75a105.89,105.89,0,0,1-6.18,12.9v40.25h-4v-34.07a58.5,58.5,0,0,1-6.36,7.67,22.37,22.37,0,0,0-2.34-3.9c6-5.81,11.64-14.81,15.06-24Zm17.22,12.48v9H845v3.72H827.43v9.48h18.3v3.78h-18.3V1792h-4v-40.73H819a65.13,65.13,0,0,1-8.64,12.65,28.89,28.89,0,0,0-3.12-2.7c5.46-5.57,10.32-14.27,13.26-23l3.84,1c-1,2.82-2.22,5.58-3.42,8.28h25.38v3.84Z"/><path d="M850.47,1755.07h5l5.1,19.25c.72,3.06,1.32,5.94,2,8.94h.24c.78-3,1.44-5.88,2.28-8.94l5.22-19.25h4.92l5.28,19.25c.78,3.06,1.5,5.94,2.28,8.94H883c.72-3,1.38-5.88,2.1-8.94l5-19.25h4.68l-8.88,32.39h-5.94L875,1769.4c-.9-3.11-1.5-6.06-2.28-9.36h-.3c-.72,3.3-1.38,6.36-2.34,9.42l-4.74,18h-5.76Z"/><path d="M899.25,1771.26c0-10.5,7-17,14.46-17,8.1,0,12.78,5.81,12.78,15.17a14.19,14.19,0,0,1-.24,2.94H904.11c.3,7.2,4.62,12,11.1,12a14.28,14.28,0,0,0,8.22-2.64l1.8,3.24a18.91,18.91,0,0,1-10.62,3.3C906.09,1788.24,899.25,1781.94,899.25,1771.26Zm22.92-2.51c0-6.91-3.12-10.57-8.4-10.57-4.8,0-9.06,3.9-9.72,10.57Zm-12.24-22.08,9.36-11,3.42,3.24-10.2,10.2Z"/><path d="M933.75,1744.69a3.39,3.39,0,0,1,6.78,0,3.39,3.39,0,1,1-6.78,0Zm1,10.38h4.86v32.39h-4.86Z"/><path d="M949,1793.16l-3.24-1.74c7.08-7.26,11.28-16.2,11.28-26.75s-4.2-19.5-11.28-26.76l3.24-1.74c7.32,7.5,11.94,17,11.94,28.5S956.31,1785.66,949,1793.16Z"/><path d="M1029,1748.05v27.77h-4.08v-3.48h-17.82v19.56h-4.14v-19.56H985.17v3.78h-4v-28.07h21.72v-10.74h4.14v10.74Zm-26,20.33V1752H985.17v16.43Zm22,0V1752h-17.82v16.43Z"/><path d="M1044,1773c4.68-2,7.26-4.86,7.56-9.17a4,4,0,0,1-1.14.11c-2.34,0-4.26-1.31-4.26-4.07a4,4,0,0,1,4.32-4.08c3.18,0,4.86,2.58,4.86,6.66,0,6.41-4,11.21-10.08,13.43Z"/><path d="M391.92,1810.69a98.85,98.85,0,0,1-6.18,13.56v39.59H381.9v-33.35a61.73,61.73,0,0,1-5.46,7,32.86,32.86,0,0,0-2.28-3.9c5.58-5.87,10.8-14.87,14-24Zm34.14,28c-2.1,1.26-4.44,2.64-6.84,3.78,2,6.06,5.82,11.82,10.38,14.52a11.2,11.2,0,0,0-2.64,2.94c-4.62-3.18-8.46-9.42-10.68-16a27.45,27.45,0,0,1-2.76,1.2c2.58,6.84,1.86,14-1,16.68a6.91,6.91,0,0,1-5.22,1.92c-1.08,0-2.4-.06-3.78-.18a9.31,9.31,0,0,0-1-3.42,38.26,38.26,0,0,0,4.14.24,3.66,3.66,0,0,0,3.12-1.14c1.56-1.38,2.22-5.16,1.44-9.36-5.16,4.92-13.08,9.36-19.8,11.7a15.8,15.8,0,0,0-2.34-2.82c7.62-2.28,16.62-7.14,21.3-12.24a35.76,35.76,0,0,0-1.5-3.48,63.52,63.52,0,0,1-17.22,9.9,16.14,16.14,0,0,0-2.22-2.64c5.94-1.8,13.74-5.76,17.88-9.54a16.39,16.39,0,0,0-2.94-3.18,58.44,58.44,0,0,1-13.56,7.26,11.26,11.26,0,0,0-2.22-2.58,52.7,52.7,0,0,0,15.06-7.55H393.48v-9.36c-1.14,1-2.28,2-3.54,2.94a9.37,9.37,0,0,0-2.52-2.58,44.69,44.69,0,0,0,13.86-16.26l3.84.72c-.6,1.2-1.32,2.34-2,3.54h11.1l.72-.18,2.34,1.68a52.13,52.13,0,0,1-4.8,6.84h13.08v12.66H407.94c-.36.36-.78.66-1.2,1a21,21,0,0,1,5.64,6.84,110,110,0,0,0,10.92-6.42ZM401,1816.81a54.58,54.58,0,0,1-4.2,5.16h11.58a37.88,37.88,0,0,0,3.72-5.16Zm-3.9,14.69h10.5v-6.42h-10.5Zm24.72-6.42H411.18v6.42H421.8Z"/><path d="M464.28,1809.55c-.06,2.1-.12,5.1-.42,8.64.9,7,4.56,32.51,25.74,42a12.63,12.63,0,0,0-2.88,3.36c-15.42-7.26-21.72-22.74-24.6-34-2.64,12.23-8.94,26.33-24.06,34.19a13.77,13.77,0,0,0-3.12-3.06c25-12.48,24.78-42.11,25-51.11Z"/><path d="M512.4,1847.94c-1.08-1.86-3.54-5.58-5.58-8.46v24.42H503.1v-23.82a56.29,56.29,0,0,1-7.08,7.74,11.85,11.85,0,0,0-1.92-3.54c5.58-4.68,11.58-12.83,14.94-20.63H494.58V1820h16.26l.66-.18,2,1.56a67.06,67.06,0,0,1-6.72,13.38v0c.54.61,1.2,1.45,1.92,2.41a56.82,56.82,0,0,0,4.8-5.83l2.52,2.22c-1.92,2-4,4.15-5.7,5.7,1.8,2.28,3.54,4.62,4.2,5.58Zm-7.14-28.37a66.87,66.87,0,0,0-4.56-8.52l3-1.44a59.65,59.65,0,0,1,4.74,8.1Zm41,14.1a43.07,43.07,0,0,1-10,19.19,35.15,35.15,0,0,0,13.44,7.5,13.76,13.76,0,0,0-2.46,3.42,37.16,37.16,0,0,1-13.62-8.22A43.22,43.22,0,0,1,520,1864a12,12,0,0,0-2.22-3.24,37.79,37.79,0,0,0,13.32-7.86,46.92,46.92,0,0,1-9.06-16.44h-.84c-.18,8.58-1.62,19.5-7.62,27.12a11.46,11.46,0,0,0-2.88-2.52c6.18-7.92,6.9-18.89,6.9-27.18v-15.53H530.4v-8.94h3.78v8.94h11.28l.66-.18,2.76.78a119.61,119.61,0,0,1-3.84,11.81l-3.42-.84c.78-2,1.68-5,2.46-7.85h-9.9v10.8h8.94l.72-.19Zm-25-11.64v10.8h9.18V1822Zm4.38,14.39a39.46,39.46,0,0,0,8,13.8,37.2,37.2,0,0,0,7.92-13.8Z"/><path d="M606.6,1830.72a131,131,0,0,1-13.62,12.9c3.72,5.94,9,10.92,16.68,15.48a8.27,8.27,0,0,0-2.82,3.42c-15.66-9.84-21.48-21.18-24.66-38a62.33,62.33,0,0,1-10.32,10.8v22.19l16.86-5.22a20.42,20.42,0,0,0,.9,3.66c-19,6.06-21.18,6.78-22.68,7.86a13.55,13.55,0,0,0-2.16-3.18,5.75,5.75,0,0,0,3.06-4.92V1838.4a69.18,69.18,0,0,1-11.28,6.6,31.69,31.69,0,0,0-2.22-3.3c9.42-4.26,18.6-11.4,24-18.71H555.9v-3.84h26.16a47,47,0,0,0-3.9-8.76l3.9-1.26a35.74,35.74,0,0,1,4.08,8.64l-4,1.38h26.1V1823h-22.5a62.92,62.92,0,0,0,5.34,17.39,94.36,94.36,0,0,0,12.06-12Z"/><path d="M635.88,1859.1c0,2.28-.54,3.48-2,4.2s-3.84.72-8,.72a12.14,12.14,0,0,0-1.14-3.84c2.88.12,5.46.06,6.18.06s1.14-.3,1.14-1.2v-15.3h-10c-.54,7.08-1.68,14.64-4.5,20.34a10.3,10.3,0,0,0-3.24-1.92c4.14-8.46,4.44-20.34,4.44-29.21v-21.42h17.1ZM632.1,1840v-10.62h-9.66V1833c0,2.15-.06,4.55-.12,7Zm-9.66-24.65v10.32h9.66v-10.32Zm45.66,17.33a51.47,51.47,0,0,1-8.46,20.22A34.07,34.07,0,0,0,669.9,1861a14,14,0,0,0-2.58,3.06,35.34,35.34,0,0,1-10-8.34,38.17,38.17,0,0,1-9.36,7.86,12,12,0,0,0-2.34-2.94,33,33,0,0,0,9.48-7.92,60.54,60.54,0,0,1-8.16-17.16h-1.74V1864h-3.78v-52.25h25v11.52c0,2.16-.48,3.17-2.22,3.78s-4.74.6-9.24.6a12.25,12.25,0,0,0-1.32-3.48c3.78.12,6.84.12,7.74.06s1.2-.3,1.2-1v-7.74H645.24v16.43H665.1l.66-.12Zm-17.64,2.94a51.29,51.29,0,0,0,6.9,14.22,47.54,47.54,0,0,0,6.42-14.22Z"/><path d="M688.14,1821.25a57.17,57.17,0,0,1-10.44,11.46c-.72-.67-2.34-2.17-3.3-2.88a52.17,52.17,0,0,0,16-20.82l4,1.14a75.5,75.5,0,0,1-3.78,7.26h33.54s0,1.44-.06,2c-.66,20.15-1.32,27-2.94,29.21a5,5,0,0,1-3.72,1.86,54.87,54.87,0,0,1-7-.06,10.51,10.51,0,0,0-1.08-3.78c2.7.24,5.22.24,6.18.24a2.21,2.21,0,0,0,2-.78c1.2-1.5,1.86-7.62,2.4-24.83Zm30.78,37.67c5.16,0,6.06-1.38,6.66-7.68a11.19,11.19,0,0,0,3.78,1.44c-.78,7.8-2.46,10-10.44,10H695.7c-9.06,0-11.82-1.56-11.82-7.86v-27h24.24v17.45H687.84v9.6c0,3.24,1.14,4.08,7.56,4.08Zm-31.08-27.54v10.2h16.44v-10.2Z"/><path d="M784.68,1851.18a64.79,64.79,0,0,1-10,4.5,45,45,0,0,0,14.88,5.22,13,13,0,0,0-2.28,3.12c-11.16-2.34-20.4-7.8-25.44-16.14h-.54a48.5,48.5,0,0,1-8.94,5.1v6.72l15.48-2.58a13.86,13.86,0,0,0,.42,2.94c-16.56,3-19.26,3.66-20.58,4.2l-.24.18a25.13,25.13,0,0,0-2-3.36c1.14-.42,3.12-1.62,3.12-3.84v-2.64a80.29,80.29,0,0,1-11.88,3.54,29.44,29.44,0,0,0-2.16-2.82c7.14-1.32,15.66-4.08,21.42-7.44H735.36v-3.18H760v-3.24H739.44v-3H760v-3.17H742.62v-15h38.94v15h-17.7v3.17h20.58v3H763.86v3.24H788.7v3.18H765.84a27.5,27.5,0,0,0,6.24,6.12,91.7,91.7,0,0,0,10-5Zm3.24-34H736.2v-3.12h24.54a28,28,0,0,0-2-4l3.42-1a20.55,20.55,0,0,1,2.7,5h23.1Zm-41.52,9.35H760v-3.65H746.4Zm13.56,6.13V1829H746.4v3.72Zm17.7-9.78h-13.8v3.65h13.8Zm0,6.06h-13.8v3.72h13.8Z"/><path d="M814.86,1834.92c-.84,1.26-1.62,2.58-2.46,3.79h29.76v25.19H838v-2.16h-25.8v2.34h-4V1844a60.86,60.86,0,0,1-11.1,10.14,23.93,23.93,0,0,0-3.06-2.94,54.37,54.37,0,0,0,16.2-16.26H796.2v-3.29h16.14c.84-1.45,1.56-2.88,2.28-4.44h-13V1824h14.46c.6-1.37,1.2-2.87,1.74-4.37H799v-3.3h12.12a39.08,39.08,0,0,0-4.14-5.88l3.72-1.38a38.18,38.18,0,0,1,4.62,6.36l-2.1.9h15.54a58.52,58.52,0,0,0,4.5-7.14l4.08,1.32c-1.32,2-2.88,4.08-4.32,5.82H845.1v3.3H821.94c-.54,1.5-1.08,3-1.68,4.37h22.2v3.19H818.88c-.66,1.56-1.38,3-2.16,4.44h31v3.29Zm23.16,6.9h-25.8v3.78H838Zm0,6.42h-25.8v3.84H838Zm0,10.38v-3.9h-25.8v3.9Z"/><path d="M867.18,1827.67a9.06,9.06,0,1,1-9.06,9A9.09,9.09,0,0,1,867.18,1827.67Zm0,15.23a6.18,6.18,0,1,0,0-12.36,6.18,6.18,0,1,0,0,12.36Z"/><path d="M465.24,1882.51a13.18,13.18,0,0,1-.84,1.08c5.7,5.64,16.2,10.62,25.56,12.83a12.89,12.89,0,0,0-2.52,3.12,71.7,71.7,0,0,1-14.88-6.17l-.06,1.92H451.74l.06-1.68a88.84,88.84,0,0,1-14.88,6.23,32.14,32.14,0,0,0-2.28-3c10.8-3,21.48-8.28,27.12-15.6Zm-23.16,16H482v14.88h-39.9Zm3.42,12.06h14.7v-9.23H445.5Zm.12,5.82H479v19.38h-4v-1.86h-25.5v2h-3.9Zm6.66-14.21a21.72,21.72,0,0,1,3.78,6.83l-3.06,1.21a27.26,27.26,0,0,0-3.6-7.09Zm-2.76,17.15v4.32H475v-4.32Zm25.5,11.64v-4.38h-25.5v4.38Zm-4.2-38.57a48.46,48.46,0,0,1-8.58-6.42,45.19,45.19,0,0,1-8.34,6.42Zm7.5,8.94H463.56v9.23h14.76Zm-10.62,7.79a53.26,53.26,0,0,0,3.54-7.2l3.36,1.08a73,73,0,0,1-4.14,7.21Z"/><path d="M496.08,1932.48c3.06-2.58,5.64-7,7.08-10.44l3.3,1.5c-1.68,3.6-4.08,8-7.14,10.86Zm51.72-36.9v3.25H496.56v-3.25h14.16a23.89,23.89,0,0,0-2.34-5.45l3.36-.84H499.26V1886h21.9c-.72-1.44-1.56-2.94-2.34-4.2l3.78-.9a39.9,39.9,0,0,1,2.94,5.1h19.2v3.3H532.86l3.24.78c-1,1.92-2,3.84-3,5.51Zm-7,23.7H519.66a47.07,47.07,0,0,1,8.82,6.24L526,1928a48.61,48.61,0,0,0-9.3-6.9l2-1.8H503.58V1902h37.2Zm-3.9-14.45H507.36v4.43h29.52Zm0,7.13H507.36v4.44h29.52Zm-8.22,20.16c2.58,0,3-.72,3.24-6.24a12.08,12.08,0,0,0,3.54,1.38c-.48,6.66-1.74,8.22-6.42,8.22H517.44c-5.82,0-7.38-1-7.38-5v-8H514v8c0,1.38.54,1.68,3.72,1.68ZM512,1889.29a26.19,26.19,0,0,1,2.76,6.18l-.48.11H529a59.18,59.18,0,0,0,3.06-6.29Zm27.66,32.21a46.55,46.55,0,0,1,8,10.2l-3.36,1.74a49,49,0,0,0-7.8-10.56Z"/><path d="M584.28,1881.55c-.06,2.1-.12,5.1-.42,8.64.9,7,4.56,32.51,25.74,42a12.63,12.63,0,0,0-2.88,3.36c-15.42-7.26-21.72-22.74-24.6-34-2.64,12.23-8.94,26.33-24.06,34.19a13.77,13.77,0,0,0-3.12-3.06c25-12.48,24.78-42.11,25-51.11Z"/><path d="M635.16,1894.63a67.9,67.9,0,0,1-7.2,12.24v28.85h-4v-24a41.57,41.57,0,0,1-7.26,6.41,17,17,0,0,0-2-3.48c7-5,12.3-12.23,16.14-20H616v-3.84h16.44a65.25,65.25,0,0,0,3.3-9.42l4.08,1c-.9,2.82-1.86,5.64-3,8.4H668.1v3.84Zm32.94,36.23v3.72H632v-3.72h16v-17.52H634.32v-3.71H648v-11.82h4v11.82h13.8v3.71H652v17.52Z"/><path d="M726.6,1902.72a131,131,0,0,1-13.62,12.9c3.72,5.94,9,10.92,16.68,15.48a8.27,8.27,0,0,0-2.82,3.42c-15.66-9.84-21.48-21.18-24.66-38a62.33,62.33,0,0,1-10.32,10.8v22.19l16.86-5.22a20.42,20.42,0,0,0,.9,3.66c-19,6.06-21.18,6.78-22.68,7.86a13.55,13.55,0,0,0-2.16-3.18,5.75,5.75,0,0,0,3.06-4.92V1910.4a69.18,69.18,0,0,1-11.28,6.6,31.69,31.69,0,0,0-2.22-3.3c9.42-4.26,18.6-11.4,24-18.71H675.9v-3.84h26.16a47,47,0,0,0-3.9-8.76l3.9-1.26a35.74,35.74,0,0,1,4.08,8.64l-4,1.38h26.1V1895h-22.5a62.92,62.92,0,0,0,5.34,17.39,94.36,94.36,0,0,0,12.06-12Z"/><path d="M785.82,1892.05v27.77h-4.08v-3.48H763.92v19.56h-4.14v-19.56H742v3.78h-4v-28.07h21.72v-10.74h4.14v10.74Zm-26,20.33V1896H742v16.43Zm22,0V1896H763.92v16.43Z"/><path d="M807.18,1899.67a9.06,9.06,0,1,1-9.06,9A9.09,9.09,0,0,1,807.18,1899.67Zm0,15.23a6.18,6.18,0,1,0,0-12.36,6.18,6.18,0,1,0,0,12.36Z"/><path d="M131,1956.49H116.22v35.15h-4v-38.87H131Z"/><path d="M186.9,1955.83v52.07h-3.84V2005H140.94v2.94h-3.72v-52.07Zm-3.84,45.65v-42H140.94v42Zm-19.68-25.56c-.18,1.08-.36,2.1-.6,3.12,6.3,5.46,13.2,12.72,16.5,17.52l-2.88,2.4c-2.94-4.44-8.88-11-14.52-16.32-2.28,7.26-6.42,13.08-14.58,16.86a10.68,10.68,0,0,0-2.52-3.12c9.54-4.2,13.2-11.46,14.7-20.46H144.6v-3.66H160c.36-3.18.54-6.59.66-10.13h3.9c-.18,3.54-.36,6.9-.72,10.13H179.4v3.66Z"/><path d="M193,2004.84h14.82v-35.15h4v38.87H193Z"/><path d="M254.46,2002.62a70.7,70.7,0,0,0,7.38.36c2.1.06,14.76,0,17.58-.06a16.36,16.36,0,0,0-1.44,3.84H261.72c-12.3,0-19.92-1.92-24.72-10.38a31.55,31.55,0,0,1-9.48,11.7,19.84,19.84,0,0,0-3.06-2.82c6.3-4.14,10.2-10.92,11.82-19.86l4,.6a55.92,55.92,0,0,1-1.5,6.06c2.34,5.64,6.3,8.52,11.7,9.84v-18.54H225.72v-3.6H278.4v3.6H254.46v7.08h20v3.6h-20Zm17.22-27.17h-39.6v-19.56h39.6Zm-4-16.44H236v5.16h31.68Zm0,8.1H236v5.27h31.68Z"/><path d="M311,1956.49H296.22v35.15h-4v-38.87H311Z"/><path d="M336.84,1977.72a72.51,72.51,0,0,1-4.74,6.18c1.8,2.16,3.6,4.38,4.32,5.22l-2.4,2.7c-1.26-1.92-4.26-5.88-6.6-8.76v25h-3.78v-22.8a57.93,57.93,0,0,1-7.68,7.68,13.47,13.47,0,0,0-2.16-3.36,56.57,56.57,0,0,0,16.38-21.29h-14.7v-3.67H326.4a35.09,35.09,0,0,0-6.3-8.69l2.82-1.8a33.62,33.62,0,0,1,6.6,8.58l-2.88,1.91H332l.72-.17,2.16,1.38a63.59,63.59,0,0,1-6.84,13.55c.6.66,1.38,1.57,2.28,2.64,1.5-2,3.12-4.38,4.08-6Zm30.66-21.65v51.47h-3.72v-3.06H340.86V2008H337.2v-52Zm-3.72,44.75v-41.15H340.86v41.15Zm-4.32-2a179.46,179.46,0,0,0-6.6-17.7c-.9,6.54-3.12,13-8.52,18.66a14.63,14.63,0,0,0-2.52-2.1c6.36-6.6,8-14.64,8.34-21.89H342.6v-3.42h7.68v-10.68h3.18v10.68H362v3.42h-8.34a181.08,181.08,0,0,1,8.7,21.77Z"/><path d="M373,2004.84h14.82v-35.15h4v38.87H373Z"/><path d="M428.16,1952.17l3.24,1.74c-7.08,7.26-11.28,16.2-11.28,26.76s4.2,19.49,11.28,26.75l-3.24,1.74c-7.32-7.5-11.94-17-11.94-28.49S420.84,1959.67,428.16,1952.17Z"/><path d="M455.76,1965c-1.2,2.46-2.52,5-3.9,7.31h29.22v30.54c0,2.52-.6,3.72-2.46,4.38s-5.16.66-10.38.66a16.63,16.63,0,0,0-1.32-3.9c4.14.18,7.8.12,8.82.12s1.44-.42,1.44-1.32v-6.66H450.9c-.84,4.38-2.58,8.88-6.12,12.24a12.44,12.44,0,0,0-2.76-3.12c5-4.86,5.52-11.52,5.52-17.22v-9.53a50.45,50.45,0,0,1-10.14,9.71,17.42,17.42,0,0,0-2.52-3.12c7.2-4.91,12.66-12.17,16.56-20.09H436.08v-3.78h17a57.7,57.7,0,0,0,2.76-7.8l4,.9a72.7,72.7,0,0,1-2.46,6.9h30.84V1965Zm21.42,27.65v-6.72H451.56V1988c0,1.44-.06,2.94-.18,4.56Zm0-16.73H451.56v6.53h25.62Z"/><path d="M521.4,1986.78v20.94H518v-20.94h-6.9v-3.3H518v-6.18H510.9l.3.24c-1.5,2.1-3.12,4.44-4.56,6.18,1.56,2,3,4.14,3.54,4.86l-2.16,2.64a89.16,89.16,0,0,0-4.86-7.68v24.54h-3.42v-22.56a42.12,42.12,0,0,1-4.2,5.76,10.65,10.65,0,0,0-2.16-3.18c4.5-5,9.18-13.43,11.76-21.41h-10v-3.54h11.52l.66-.18,2,1.32a79.08,79.08,0,0,1-6,15,26.71,26.71,0,0,1,1.8,2.46,52.06,52.06,0,0,0,3.66-6l1.86,1.38v-3.06h9.06a70.47,70.47,0,0,0,4.08-9.66l3.18,1.08c-1.26,2.76-2.76,6-4.14,8.58h6.06v3.23h-7.5v6.18h6.24v3.3Zm-19-24.41a71.45,71.45,0,0,0-3-8.34l3.06-.9a63.71,63.71,0,0,1,3.24,8.16ZM516,1990.8a86.29,86.29,0,0,1-5.22,11.76,21.79,21.79,0,0,0-2.64-1.5,53.68,53.68,0,0,0,5-11.1Zm12.54-27H510.9v-3.24h7.8a33.81,33.81,0,0,0-3.06-6.06l3.36-1.26a40.55,40.55,0,0,1,3.3,5.94l-3.12,1.38h9.36Zm-13.2,10a48.06,48.06,0,0,0-3.06-8.39l2.64-.9a39.18,39.18,0,0,1,3.3,8.28Zm11.82,25.38a54.23,54.23,0,0,0-4.08-8.52l2.64-.84a50.61,50.61,0,0,1,4.14,8.28Zm18.42,5c.42,0,.9,0,1.08-.18a1.65,1.65,0,0,0,.66-.84,34.4,34.4,0,0,0,.24-3.78,8.4,8.4,0,0,0,2.4,1.38,19.5,19.5,0,0,1-.54,4.68,2.45,2.45,0,0,1-1.38,1.5,4.72,4.72,0,0,1-2.28.48h-2.28a4.1,4.1,0,0,1-2.76-.84c-.72-.66-.9-1.38-.9-3.72v-14.22h-3.24c-.42,9.9-1.8,15.9-8.1,19.5a12.64,12.64,0,0,0-2.16-2.64c5.7-3.06,6.78-8.1,7.14-16.86h-2.82V1956h16.44v32.63h-4.14v14.46a1,1,0,0,0,.3.84,1.42,1.42,0,0,0,1,.24ZM534,1965.91h9.6v-6.6H534Zm0,9.72h9.6V1969H534Zm0,9.71h9.6v-6.66H534Z"/><path d="M573.06,1991.94c-1.2-1.86-4-5.64-6.18-8.58v24.54h-3.66v-24.12a60.7,60.7,0,0,1-7.68,7.92,16.14,16.14,0,0,0-2-3.78,58.26,58.26,0,0,0,15.9-20.21H555.12v-3.66h16.14l.66-.18,2.22,1.62a63.48,63.48,0,0,1-7.2,13.31c.6.66,1.32,1.5,2.16,2.53a55.46,55.46,0,0,0,4.74-5.95l2.52,2.29c-1.8,1.91-3.78,4.08-5.46,5.69,1.86,2.16,3.72,4.5,4.44,5.34Zm-7-29a75.52,75.52,0,0,0-4.8-7.92l2.82-1.8a52.56,52.56,0,0,1,5,7.56Zm43.2,39.89v3.6h-34v-3.6h14.94v-9.18H577.86v-3.6h12.36v-7H577.86V1956h28.8v27.11H594v7h13.08v3.6H594v9.18Zm-27.78-35.09h8.7v-8.34h-8.7Zm8.7,11.81v-8.45h-8.7v8.45Zm12.72-20.15H594v8.34h8.94Zm0,11.7H594v8.45h8.94Z"/><path d="M631,1954c-1,2.94-2.1,6.3-3.18,8.88H638v38.75h-16.8v4.8h-3.66v-43.55h6.66a64.68,64.68,0,0,0,2.58-9.72Zm3.3,12.47H621.18v13.08h13.14Zm0,31.56v-14.88H621.18v14.88Zm33.06-33.17c-1,27.53-1.8,36.71-4.2,39.59a5.6,5.6,0,0,1-4.56,2.28,74.94,74.94,0,0,1-8.82-.12,9.42,9.42,0,0,0-1.32-3.9c3.9.36,7.5.36,8.82.36s1.92-.12,2.52-.9c2-2.1,2.94-11.34,3.72-35.7H647.82a55.33,55.33,0,0,1-5.64,10.68,36.22,36.22,0,0,0-3.36-2.22c4.08-5.33,7.32-13.61,9.18-21.89l3.84.84c-.78,3-1.62,6-2.64,8.88h18.18Zm-12.78,27a106.51,106.51,0,0,0-9.3-13.92l3.06-1.79a102.47,102.47,0,0,1,9.6,13.61Z"/><path d="M726.6,1974.72a131,131,0,0,1-13.62,12.9c3.72,5.94,9,10.92,16.68,15.48a8.27,8.27,0,0,0-2.82,3.42c-15.66-9.84-21.48-21.18-24.66-38a62.33,62.33,0,0,1-10.32,10.8v22.19l16.86-5.22a20.42,20.42,0,0,0,.9,3.66c-19,6.06-21.18,6.78-22.68,7.86a13.55,13.55,0,0,0-2.16-3.18,5.75,5.75,0,0,0,3.06-4.92V1982.4a69.18,69.18,0,0,1-11.28,6.6,31.69,31.69,0,0,0-2.22-3.3c9.42-4.26,18.6-11.4,24-18.71H675.9v-3.84h26.16a47,47,0,0,0-3.9-8.76l3.9-1.26a35.74,35.74,0,0,1,4.08,8.64l-4,1.38h26.1V1967h-22.5a62.92,62.92,0,0,0,5.34,17.39,94.36,94.36,0,0,0,12.06-12Z"/><path d="M755.88,2003.1c0,2.28-.54,3.48-2,4.2s-3.84.72-8,.72a12.14,12.14,0,0,0-1.14-3.84c2.88.12,5.46.06,6.18.06s1.14-.3,1.14-1.2v-15.3h-10c-.54,7.08-1.68,14.64-4.5,20.34a10.3,10.3,0,0,0-3.24-1.92c4.14-8.46,4.44-20.34,4.44-29.21v-21.42h17.1ZM752.1,1984v-10.62h-9.66V1977c0,2.15-.06,4.55-.12,7Zm-9.66-24.65v10.32h9.66v-10.32Zm45.66,17.33a51.47,51.47,0,0,1-8.46,20.22A34.07,34.07,0,0,0,789.9,2005a14,14,0,0,0-2.58,3.06,35.34,35.34,0,0,1-10-8.34,38.17,38.17,0,0,1-9.36,7.86,12,12,0,0,0-2.34-2.94,33,33,0,0,0,9.48-7.92,60.54,60.54,0,0,1-8.16-17.16h-1.74V2008h-3.78v-52.25h25v11.52c0,2.16-.48,3.17-2.22,3.78s-4.74.6-9.24.6a12.25,12.25,0,0,0-1.32-3.48c3.78.12,6.84.12,7.74.06s1.2-.3,1.2-1v-7.74H765.24v16.43H785.1l.66-.12Zm-17.64,2.94a51.29,51.29,0,0,0,6.9,14.22,47.54,47.54,0,0,0,6.42-14.22Z"/><path d="M795.84,2009.16l-3.24-1.74c7.08-7.26,11.28-16.2,11.28-26.75s-4.2-19.5-11.28-26.76l3.24-1.74c7.32,7.5,11.94,17,11.94,28.5S803.16,2001.66,795.84,2009.16Z"/><path d="M841,1954c-1,2.94-2.1,6.3-3.18,8.88H848v38.75h-16.8v4.8h-3.66v-43.55h6.66a64.68,64.68,0,0,0,2.58-9.72Zm3.3,12.47H831.18v13.08h13.14Zm0,31.56v-14.88H831.18v14.88Zm33.06-33.17c-1,27.53-1.8,36.71-4.2,39.59a5.6,5.6,0,0,1-4.56,2.28,74.94,74.94,0,0,1-8.82-.12,9.42,9.42,0,0,0-1.32-3.9c3.9.36,7.5.36,8.82.36s1.92-.12,2.52-.9c2-2.1,2.94-11.34,3.72-35.7H857.82a55.33,55.33,0,0,1-5.64,10.68,36.22,36.22,0,0,0-3.36-2.22c4.08-5.33,7.32-13.61,9.18-21.89l3.84.84c-.78,3-1.62,6-2.64,8.88h18.18Zm-12.78,27a106.51,106.51,0,0,0-9.3-13.92l3.06-1.79a102.47,102.47,0,0,1,9.6,13.61Z"/><path d="M904.86,1992.06c-1.26-1.86-4.08-5.64-6.48-8.52v24.36H894.3v-23.64a61.07,61.07,0,0,1-7.68,7.62,13.85,13.85,0,0,0-2.22-3.66,60.27,60.27,0,0,0,16.38-20.51h-15.3v-3.66h17.28l.78-.18,2.34,1.62a62.93,62.93,0,0,1-7.44,13.43c.6.66,1.32,1.5,2.16,2.41a45.51,45.51,0,0,0,4.86-5.88l2.82,2.27c-1.86,1.92-4,4-5.82,5.64,2.1,2.28,4.14,4.56,4.92,5.46Zm-7.8-28.61a50.51,50.51,0,0,0-5.16-8.4l3.06-1.68a46,46,0,0,1,5.28,8Zm40-2.7c-.84,31-1.68,41.33-4.08,44.33a5.75,5.75,0,0,1-4.5,2.46,63.83,63.83,0,0,1-8.82-.12,10.21,10.21,0,0,0-1.2-3.84c3.78.3,7.14.36,8.52.36a2.7,2.7,0,0,0,2.46-1c2-2.28,2.88-12.48,3.72-40.55H921.06c-1,21.59-3.9,36.17-15.24,45.71a18.44,18.44,0,0,0-3.06-3.06c11-8.4,13.44-22.62,14.22-42.65h-10.2v-3.84h30.3Z"/><path d="M973.92,1993.44H944.58v-3.6h5.94V1965h-5.1v-3.6h5.1v-7.32h3.66v7.32h11.46v-7.32h3.72v7.32h4.44v3.6h-4.44v24.83h4.56Zm-17.1,2.4a39.69,39.69,0,0,1-8.88,12.18,22.42,22.42,0,0,0-3.24-2.34,30.78,30.78,0,0,0,8.34-10.8ZM954.18,1965v5.64h11.46V1965Zm0,15.12h11.46v-6.25H954.18Zm0,9.71h11.46v-6.42H954.18Zm10.44,5.1a45.45,45.45,0,0,1,6.24,8.82l-3.24,1.92a48.82,48.82,0,0,0-6.06-9.12Zm32.76,7.68c0,2.52-.6,3.72-2.16,4.38s-4.38.72-8.82.72a16.4,16.4,0,0,0-1.26-3.9c3.3.12,6.3.12,7.2.06s1.2-.3,1.2-1.26v-14.94H980.28c-.6,7.14-2.1,14.82-5.76,20.64a12.1,12.1,0,0,0-3.18-2.34c5.1-8,5.58-19.38,5.58-28v-21.65h20.46Zm-3.84-18.54v-10.43h-12.9V1978c0,1.86-.06,4-.12,6.06Zm-12.9-24v10h12.9v-10Z"/><path d="M1055.58,1988.76s-.06,1.2-.12,1.68c-.66,10.38-1.44,14.46-2.82,16a5,5,0,0,1-3.66,1.5,64.41,64.41,0,0,1-7.38-.12,8.55,8.55,0,0,0-1-3.54,67.23,67.23,0,0,0,6.72.3c1,.06,1.56,0,2-.54.9-.9,1.5-4.08,2.1-11.88h-32.82a57.35,57.35,0,0,1-11.34,7,23.27,23.27,0,0,0-2.4-3.18c6.24-2.46,12.48-6.42,16.32-11.21h-7.32V1968a95.78,95.78,0,0,0,14-4l2.52,2.58a87.43,87.43,0,0,1-12.9,3.41v4.38h11.88v2.95h-11.88v4.38h28.86v-4.38h-11.7v-2.95h11.7v-4.31h-12.72v-3h16.44v17.64h-24.48a29.77,29.77,0,0,1-3.36,4Zm1.74-30.41v10.26h-3.78v-6.72h-43.08v6.72h-3.72v-10.26h23.1a26.82,26.82,0,0,0-2.1-4.14l4-1.14a37.25,37.25,0,0,1,2.82,5.28Zm-44.76,46.49c2.46-2.7,4.56-7.32,5.7-10.74l3.18,1.32c-1.26,3.54-3.18,8.1-5.7,11Zm14.88-10.32a34.63,34.63,0,0,1,2.28,10.38l-3.3.54a36.17,36.17,0,0,0-2.1-10.5Zm7.32-.48a30.42,30.42,0,0,1,4.26,9.18l-3.06,1a35.24,35.24,0,0,0-4.08-9.36Zm10,7.68a28.22,28.22,0,0,0-5.34-6.9l2.7-1.26a25.16,25.16,0,0,1,5.4,6.6Z"/><path d="M1075.8,1979.58a55.26,55.26,0,0,0-11-6.47l2.22-2.94a57.34,57.34,0,0,1,11,6Zm-9.06,24.9a178.11,178.11,0,0,0,11.4-19.31l2.88,2.63c-3.18,6.3-7.44,13.86-10.92,19.38Zm3.36-50.51a61.4,61.4,0,0,1,11.46,6.3l-2.34,3.3a57.73,57.73,0,0,0-11.34-6.72Zm44.52,53.93a50.85,50.85,0,0,0-2.82-6.06c-22.8,2.82-25.2,3.18-26.82,4a17.42,17.42,0,0,0-1.32-4c1.14-.24,2.34-1.68,3.84-3.84a107.12,107.12,0,0,0,8.7-15.3h-13.8v-3.84h15.66v-11.09h-13v-3.78h13v-10.56h4v10.56h13.5v3.78H1102v11.09h16v3.84h-17.16a121,121,0,0,1-11,18.3l19.92-2.34a89.38,89.38,0,0,0-5.58-8l3.18-1.5c4.26,5.22,8.82,12.42,10.68,17Z"/><path d="M1137.18,1971.67a9.06,9.06,0,1,1-9.06,9A9.09,9.09,0,0,1,1137.18,1971.67Zm0,15.23a6.18,6.18,0,0,0,0-12.36,6.18,6.18,0,0,0,0,12.36Z"/><path d="M377,2038.63a67.67,67.67,0,0,1-5.4,8.45v33.18h-3.78v-28.5a55.81,55.81,0,0,1-6,5.94,23.11,23.11,0,0,0-2.4-3.41,57.79,57.79,0,0,0,14-16.92Zm-1.44-11.88a59.41,59.41,0,0,1-13.32,14.1,20,20,0,0,0-2.22-2.82c4.44-3.3,9.42-8.4,11.94-12.66ZM409,2057.17a34,34,0,0,1-11.58,13.91,56.54,56.54,0,0,0,16.08,5.52,13.63,13.63,0,0,0-2.46,3.48,58.51,58.51,0,0,1-17.16-6.72,63.26,63.26,0,0,1-17.7,6.78,10.39,10.39,0,0,0-2-3.42,62.23,62.23,0,0,0,16.26-5.64,41.7,41.7,0,0,1-7.2-6.54,42.74,42.74,0,0,1-4.86,4.08,25.12,25.12,0,0,0-2.76-2.94,46.2,46.2,0,0,0,5.28-4.08,34,34,0,0,1-2.82-4.38l3.3-1.2a19.06,19.06,0,0,0,2,3.18,40.7,40.7,0,0,0,5.82-7.86c-9,.6-10.5.91-11.64,1.26a33.39,33.39,0,0,0-1.2-3.77c1.62-.19,3.78-1.26,6.6-2.88,1.44-.78,4.38-2.58,7.8-4.87-9.36.49-10.92.73-11.82,1.09a28.56,28.56,0,0,0-1.26-3.84,10.79,10.79,0,0,0,3.9-2.16A67.38,67.38,0,0,0,392.28,2026l3.9,1.8a87.44,87.44,0,0,1-11.7,10.32l11.1-.36a87.91,87.91,0,0,0,8.22-6.6l3.66,2.1a135.45,135.45,0,0,1-22.44,15l20.1-1.08c-1.5-1.87-2.94-3.72-4.38-5.29l3.06-1.61a90.33,90.33,0,0,1,10,13l-3.24,1.92c-.78-1.38-2-3.12-3.24-5-5.58.35-10.14.66-13.68.83a52.18,52.18,0,0,1-3,5h15.18l.72-.18Zm-20.94,2.21a33.51,33.51,0,0,1-2.34,2.76,40,40,0,0,0,8.16,6.9,31.13,31.13,0,0,0,9.72-9.66Z"/><path d="M433.74,2026.57a123.56,123.56,0,0,1-4.08,12.6V2080h-3.78v-32.51a51.63,51.63,0,0,1-4.26,6.77,18.44,18.44,0,0,0-2.16-4c4.56-6,8.28-15.23,10.5-24.59Zm5.94,41.27v12H436v-51.77h16.26v18.23H439.68v6.78h11.16v3.42H439.68v7.92H451.5v3.42Zm0-36.35v11.39h9v-11.39Zm32.52,20.34a41,41,0,0,1-7.5,17.45,26.55,26.55,0,0,0,10,7.56,18.29,18.29,0,0,0-2.46,3.06,27.55,27.55,0,0,1-9.78-7.86,36.82,36.82,0,0,1-12.36,8.1,10.14,10.14,0,0,0-2.1-2.94,31,31,0,0,0,12.3-8.1,51.85,51.85,0,0,1-6-13.85l2.64-.67H453v-3.41h16.2l.72-.13Zm-.78-5.58H454.68v-3.48h13.08v-11.22H454.68v-3.48h16.74Zm-14,8.33a40.27,40.27,0,0,0,5.1,11.7,33.44,33.44,0,0,0,5.4-11.7Z"/><path d="M497,2026.63a84.89,84.89,0,0,1-6.18,12.9v40.31H487v-34.31a62.31,62.31,0,0,1-6.42,7.91,20.27,20.27,0,0,0-2.34-3.84c6-5.81,11.64-14.81,15.06-24ZM534.84,2045v3.65H493.92V2045h10.74v-8.52H496.5v-3.54h8.16v-7h3.78v7H520.2v-7H524v7h8.52v3.54H524V2045Zm-34.44,8.69h29v26.16h-3.9v-2.46H504.24v2.76H500.4Zm3.84,3.42v6.72h21.24v-6.72ZM525.48,2074v-6.9H504.24v6.9Zm-17-29H520.2v-8.52H508.44Z"/><path d="M592.74,2057.17s-.06,1.19-.12,1.73c-1.14,12.66-2.28,17.64-4.14,19.56a5.52,5.52,0,0,1-4,1.56,66.58,66.58,0,0,1-7.5-.12,9.39,9.39,0,0,0-1.2-3.66c3.12.3,6.06.3,7.2.3a3,3,0,0,0,2.22-.54c1.26-1.32,2.4-5.34,3.36-15.3H551a59.21,59.21,0,0,1-9.66,7.32,19.86,19.86,0,0,0-2.22-3.3c10.26-6,17.82-15.18,23.1-25.43h-20v-3.66H564a82.29,82.29,0,0,0,3.84-10.32l3.9,1a92.32,92.32,0,0,1-3.54,9.3H584c-.72,3.48-1.56,7.62-2.34,10.74h7c-.66,3.47-1.5,7.67-2.28,10.8Zm-49.38,20.33c3.42-3.24,5.7-8.58,7-13.2l3.3,1.08c-1.44,4.92-3.54,10.62-7.14,14.16Zm12.42-42.17a39,39,0,0,0-6-8.34l3.42-1.44a39.57,39.57,0,0,1,6.18,8Zm26.82,21.84c.54-2.11,1.08-4.69,1.56-7.21H560.34a75.18,75.18,0,0,1-5.76,7.21Zm-21.48,7.91a44,44,0,0,1,1.8,11.88l-3.48.54a39.57,39.57,0,0,0-1.62-11.94Zm5.4-25.79c-1.14,2.4-2.46,4.79-3.84,7.08h15.24c.54-2,1.14-4.62,1.62-7.08Zm3.18,24.95a43,43,0,0,1,3.6,10.26l-3.3.9a45.91,45.91,0,0,0-3.42-10.44Zm10.32,8a38.83,38.83,0,0,0-4.56-8.1l2.76-1.08a34.18,34.18,0,0,1,4.74,7.86Z"/><path d="M651.9,2027.83v52.07h-3.84V2077H605.94v2.94h-3.72v-52.07Zm-3.84,45.65v-42H605.94v42Zm-19.68-25.56c-.18,1.08-.36,2.1-.6,3.12,6.3,5.46,13.2,12.72,16.5,17.52l-2.88,2.4c-2.94-4.44-8.88-11-14.52-16.32-2.28,7.26-6.42,13.08-14.58,16.86a10.68,10.68,0,0,0-2.52-3.12c9.54-4.2,13.2-11.46,14.7-20.46H609.6v-3.66H625c.36-3.18.54-6.59.66-10.13h3.9c-.18,3.54-.36,6.9-.72,10.13H644.4v3.66Z"/><path d="M712.74,2057.17s-.06,1.19-.12,1.73c-1.14,12.66-2.28,17.64-4.14,19.56a5.52,5.52,0,0,1-4,1.56,66.58,66.58,0,0,1-7.5-.12,9.39,9.39,0,0,0-1.2-3.66c3.12.3,6.06.3,7.2.3a3,3,0,0,0,2.22-.54c1.26-1.32,2.4-5.34,3.36-15.3H671a59.21,59.21,0,0,1-9.66,7.32,19.86,19.86,0,0,0-2.22-3.3c10.26-6,17.82-15.18,23.1-25.43h-20v-3.66H684a82.29,82.29,0,0,0,3.84-10.32l3.9,1a92.32,92.32,0,0,1-3.54,9.3H704c-.72,3.48-1.56,7.62-2.34,10.74h7c-.66,3.47-1.5,7.67-2.28,10.8Zm-49.38,20.33c3.42-3.24,5.7-8.58,7-13.2l3.3,1.08c-1.44,4.92-3.54,10.62-7.14,14.16Zm12.42-42.17a39,39,0,0,0-6-8.34l3.42-1.44a39.57,39.57,0,0,1,6.18,8Zm26.82,21.84c.54-2.11,1.08-4.69,1.56-7.21H680.34a75.18,75.18,0,0,1-5.76,7.21Zm-21.48,7.91a44,44,0,0,1,1.8,11.88l-3.48.54a39.57,39.57,0,0,0-1.62-11.94Zm5.4-25.79c-1.14,2.4-2.46,4.79-3.84,7.08h15.24c.54-2,1.14-4.62,1.62-7.08Zm3.18,24.95a43,43,0,0,1,3.6,10.26l-3.3.9a45.91,45.91,0,0,0-3.42-10.44Zm10.32,8a38.83,38.83,0,0,0-4.56-8.1l2.76-1.08a34.18,34.18,0,0,1,4.74,7.86Z"/><path d="M740.52,2058.06l-3.66,3.12a93.63,93.63,0,0,0-13.32-13.38l3.42-3.11A118.53,118.53,0,0,1,740.52,2058.06Z"/><path d="M803.34,2032.51H759.12v13.14c0,9.6-.78,23.57-6.36,33.17a13.59,13.59,0,0,0-3.36-2c5.28-9.18,5.82-22,5.82-31.13v-16.86h48.12Zm-30.18,32.27a97.9,97.9,0,0,1-10.62,12.6c-.78-.6-2.4-1.68-3.36-2.28a63.59,63.59,0,0,0,10.32-11.58Zm10.26-4.44v15.12c0,2.16-.48,3.24-2.1,3.84s-4.68.6-9.36.6a14.79,14.79,0,0,0-1.26-3.54c3.66.12,6.78.12,7.68.06s1.2-.3,1.2-1v-15.06H764.82V2039H776.7a42.46,42.46,0,0,0,2.34-5.75l4.62.72c-.9,1.68-1.86,3.48-2.7,5h17.52v21.3Zm-14.76-12.17h25.8v-5.88h-25.8Zm0,8.93h25.8v-5.88h-25.8Zm23.4,6.54c3.66,3.72,8.46,8.88,10.92,11.94l-3.3,2.16a158.14,158.14,0,0,0-10.8-12.42Z"/><path d="M861.9,2027.83v52.07h-3.84V2077H815.94v2.94h-3.72v-52.07Zm-3.84,45.65v-42H815.94v42Zm-19.68-25.56c-.18,1.08-.36,2.1-.6,3.12,6.3,5.46,13.2,12.72,16.5,17.52l-2.88,2.4c-2.94-4.44-8.88-11-14.52-16.32-2.28,7.26-6.42,13.08-14.58,16.86a10.68,10.68,0,0,0-2.52-3.12c9.54-4.2,13.2-11.46,14.7-20.46H819.6v-3.66H835c.36-3.18.54-6.59.66-10.13h3.9c-.18,3.54-.36,6.9-.72,10.13H854.4v3.66Z"/><path d="M882.18,2043.67a9.06,9.06,0,1,1-9.06,9A9.09,9.09,0,0,1,882.18,2043.67Zm0,15.23a6.18,6.18,0,1,0,0-12.36,6.18,6.18,0,1,0,0,12.36Z"/><rect class="cls-2" x="1113" y="1157" width="65" height="269" rx="12"/><path class="cls-1" d="M1157.05,1195.79a27.61,27.61,0,0,0,11.5,8.1,11.65,11.65,0,0,0-2.15,2.55,30.77,30.77,0,0,1-12.8-10.65h-15.95a34.39,34.39,0,0,1-13,11.3,11.43,11.43,0,0,0-2.15-2.55,30.39,30.39,0,0,0,11.6-8.75H1123v-2.85h10v-16.15h-7.7V1174h7.7v-5h3.3v5h18.55v-5h3.35v5h7.65v2.8h-7.65v16.15h9.8v2.85Zm-10,14.5h17.3v2.85H1126.8v-2.85h16.9v-5.6h-10.45v-2.8h10.45v-4.4h3.35v4.4h10.65v2.8h-10.65Zm-10.8-33.5v3.6h18.55v-3.6Zm0,9.8h18.55v-3.65h-18.55Zm0,6.35h18.55v-3.8h-18.55Z"/><path class="cls-1" d="M1141.25,1237.54s0,1.15,0,1.55c-.6,15.85-1.2,21.2-2.6,23a3.71,3.71,0,0,1-2.8,1.45,32.65,32.65,0,0,1-4.45,0,9.25,9.25,0,0,0-.85-3c1.75.15,3.2.15,3.9.15a1.42,1.42,0,0,0,1.45-.65c1-1.2,1.6-6,2.15-19.35h-6.8c-.55,10-2,18.25-6.45,23.65a9.53,9.53,0,0,0-2.55-2.35c5.45-6.45,5.9-17.85,6.1-31.55h-5.2v-3.1h20.1v3.1h-11.65c0,2.45-.1,4.85-.2,7.15Zm-7.9-10.45a33.47,33.47,0,0,0-4.25-7.15l2.9-1.15a31.92,31.92,0,0,1,4.4,7Zm23.85-7.45a15.26,15.26,0,0,1-.85,2.55c2.65,5.45,7.7,11.35,12.45,14a13,13,0,0,0-2.45,2.75c-4.25-2.7-8.5-8-11.4-13.3a32.61,32.61,0,0,1-11,13.6,12.79,12.79,0,0,0-2.35-2.65c5.85-3.6,10.35-10.2,12.5-17.85Zm-8.3,32.45a74,74,0,0,1,13.6,8.25l-2.25,2.9c-2.85-2.6-8.75-6.3-13.4-8.65Zm9.5-4.85a66.22,66.22,0,0,0-8.6-6.85l2.15-2.2a67.46,67.46,0,0,1,8.75,6.55Z"/><path class="cls-1" d="M1164,1272.19v29.3h-3.5v-2.55h-13.3v15.6h-3.45v-15.6h-13.4v2.75H1127v-29.5Zm-33.65,3.2V1284h13.4v-8.65Zm13.4,20.35v-8.5h-13.4v8.5Zm16.75-20.35h-13.3V1284h13.3Zm0,20.35v-8.5h-13.3v8.5Z"/><path class="cls-1" d="M1166.25,1334.09v9.3h-3.15V1337h-35.4v6.4h-3v-9.3h6.95v-12.95h27.7v12.95Zm-6.45,26.6c0,1.85-.45,2.7-1.85,3.2s-3.9.5-7.7.45a8.57,8.57,0,0,0-1.1-2.75c3,.05,5.65.05,6.4.05s1-.25,1-1v-6.2c-7.3,1.45-14.85,3-20.45,4l-1.1-3c5.4-.8,13.6-2.3,21.55-3.75V1343h-22.2v5.3c0,4.85-.65,11.55-4.35,16.2a13.29,13.29,0,0,0-2.7-2c3.45-4.25,3.85-10,3.85-14.25v-8h28.6Zm-25-26.6h7.45v-6.9H1156v-3.35h-21.2Zm2.45,11.7a75.14,75.14,0,0,1,17.7,3l-.9,2.6c-4-1.5-11.7-2.9-17.7-3.35Zm18.75-16.3h-10.75v4.6H1156Z"/><path class="cls-1" d="M1160,1381.09a51.83,51.83,0,0,1-12,19.6,49.94,49.94,0,0,0,20.5,10.5,16.79,16.79,0,0,0-2.25,3,50.92,50.92,0,0,1-20.75-11.1c-5.65,5-12.55,8.6-21,11.3a15.53,15.53,0,0,0-2-3.05c8.35-2.45,15.1-5.9,20.6-10.6a57.05,57.05,0,0,1-12.2-19.65h-7.75v-3.25h44.75v3.25Zm-25.75,0a52.13,52.13,0,0,0,11.3,17.3,47.46,47.46,0,0,0,10.7-17.3Zm11.25-3.55a38.13,38.13,0,0,0-3.8-7.8l3.4-1a39,39,0,0,1,4,7.65Z"/><rect class="cls-2" x="1113" y="394" width="65" height="126" rx="12"/><path class="cls-1" d="M1132.7,423.82c1.25,1.6,4.9,6.7,5.7,8.05l-2,2.45c-.7-1.5-2.35-4.4-3.75-6.65V454h-3.15V429.57c-1.5,5.05-3.5,9.9-5.55,12.85a14.83,14.83,0,0,0-1.75-3.1c2.9-4,5.8-11.5,7.2-18h-6.2v-3.15h6.3v-9.65h3.15v9.65h5.45v3.15h-5.45Zm19.1.7a19.47,19.47,0,0,0,.45,2.65c-10.15,2.7-11.6,3.15-12.5,3.75a12.13,12.13,0,0,0-1.1-3.2c.7-.2,1.55-.5,1.55-2.2v-16.7h3.25v6.5h8.35v2.9h-8.35v8.3Zm2.35,5.5-2,3.75h12.65V454h-3.4v-1.75h-17v2h-3.3V433.77h7.9c.55-1.5,1.2-3.25,1.55-4.6Zm7.3,6.5h-17v5.05h17Zm0,13v-5.3h-17v5.3Zm2.25-22.4c1.25,0,1.5-.75,1.65-5.25a9.16,9.16,0,0,0,2.85,1.25c-.3,5.45-1.2,6.95-4.15,6.95h-5.85c-3.65,0-4.55-.95-4.55-4.45V408.87h3.25v6.5h10.2v2.9h-10.2v7.35c0,1.3.25,1.5,1.65,1.5Z"/><path class="cls-1" d="M1167.55,483.87v2.5H1123.4v-2.5h20.25v-3.2H1126.8v-2.3h16.85v-3H1128.2v-2.25h15.45v-3.2H1123.5v-2.5h20.15v-3.05H1128.8V462h14.85v-3.55h3.25V462h14.45v5.4h6.15v2.5h-6.15v5.45H1146.9v3h17.3v2.3h-17.3v3.2Zm-37.75,5h31.75v15.25h-3.25v-1.6H1133v1.7h-3.2Zm3.2,2.4v3.2h25.3v-3.2Zm25.3,8.85v-3.4H1133v3.4Zm-11.4-32.7h11.15v-3.05H1146.9Zm0,5.7h11.15v-3.2H1146.9Z"/><rect class="cls-3" x="324" y="982" width="610" height="610" rx="208"/><path d="M421.34,1237.67H832.66a26.27,26.27,0,0,0,18-7.47c4.42-4.42,7.75-11.68,7.47-18-.3-6.59-2.46-13.43-7.47-18s-11.12-7.47-18-7.47H421.34a26.27,26.27,0,0,0-18,7.47c-4.42,4.42-7.75,11.68-7.47,18,.3,6.6,2.46,13.44,7.47,18s11.12,7.47,18,7.47Z"/><path d="M604.28,1069.64Q602,1115,601.43,1160.4t.65,90.79c.22,8.39.53,16.77.78,25.16a140.59,140.59,0,0,1-.76,23l.91-6.78a61.82,61.82,0,0,1-3.85,14.65l2.57-6.1a65.42,65.42,0,0,1-8.44,14.07l4-5.17c-4.19,5.4-8.87,10.4-13.47,15.45l-15.3,16.78-30.87,33.87-61.46,67.44-34.62,38a26.76,26.76,0,0,0-7.47,18c0,6.25,2.78,13.72,7.47,18,4.86,4.46,11.24,7.77,18,7.47,6.58-.3,13.46-2.45,18-7.47L544,1444.83l66.66-73.14c5.31-5.83,10.68-11.63,15.93-17.51,6.06-6.79,12.12-13.94,16.58-21.9,9.27-16.56,11.25-35.35,10.78-54-.84-32.59-1.76-65.15-1.65-97.75q.18-49.26,2.41-98.48.29-6.21.6-12.41c.32-6.33-3.07-13.63-7.47-18s-11.68-7.75-18-7.47c-6.6.3-13.44,2.46-18,7.47a27.63,27.63,0,0,0-7.47,18Z"/><path d="M634.34,1330c.25,0,.5-.1.75-.13l-6.78.91a10,10,0,0,1,2.19,0l-6.78-.91a10.92,10.92,0,0,1,2.46.67l-6.09-2.58a17.56,17.56,0,0,1,3.62,2.13l-5.16-4a57.31,57.31,0,0,1,7.56,7.7q4.13,4.68,8.23,9.37,8.2,9.4,16.3,18.89,16.22,19,32.1,38.21t31.64,38.6q15.81,19.44,31.57,38.93l32,39.51,4.08,5a26.22,26.22,0,0,0,36.06,0l4-5.16a25.32,25.32,0,0,0,3.48-12.87l-.91-6.78a25.54,25.54,0,0,0-6.56-11.26l-33.88-41.83q-16.73-20.64-33.46-41.26t-33.51-40.86q-16.77-20.25-33.88-40.23-8.6-10-17.31-20c-2.74-3.12-5.4-6.36-8.32-9.31a64.45,64.45,0,0,0-8.92-7.24,15.22,15.22,0,0,0-2.13-1.28,46.39,46.39,0,0,0-8.16-3.36,10.5,10.5,0,0,0-1.24-.26,69.93,69.93,0,0,0-7.5-1c-.37,0-.73,0-1.1,0a64.08,64.08,0,0,0-7.9,1.08,28.62,28.62,0,0,0-15.24,11.72,19,19,0,0,0-3,9.48,19.34,19.34,0,0,0,.45,10.17l2.57,6.09a25.71,25.71,0,0,0,9.15,9.15l6.09,2.57a25.78,25.78,0,0,0,13.56,0Z"/></svg>