<svg id="Layer_1" data-name="Layer 1" xmlns="http://www.w3.org/2000/svg" viewBox="0 0 1242 2208"><defs><style>.cls-1{fill:#f6eabe;}.cls-2{fill:#999;}.cls-3,.cls-4{fill:none;stroke:#000;stroke-miterlimit:10;}.cls-3{stroke-width:48px;}.cls-4{stroke-linecap:round;stroke-width:50px;}</style></defs><rect class="cls-1" width="1242" height="2208"/><path d="M957.71,159.71V847.3h-54V809.19H354.28V847.3H302.67V159.71ZM903.72,760V209.73H354.28V760ZM663.94,412.2C737.78,478.89,824.32,567,868,618.63l-31.76,36.53c-40.49-49.23-115.92-129.42-183.41-193.74V720.26H603.59V443.16C552,528.12,477.35,610.69,411.45,656c-8.74-11.91-23.82-29.38-34.94-38.11C445.59,576.55,524.19,494,574.21,412.2H404.3V364.56H603.59V247h49.23V364.56H859.26V412.2Z"/><path d="M322.89,1775.49H308.07v35.15h-4v-38.87h18.78Z"/><path d="M357.69,1791.15c5.52,10.31,15.06,20.75,24.06,25.79a16.83,16.83,0,0,0-3.06,3.42c-8.34-5.22-16.92-14.94-22.8-25.07V1827h-4.14v-31.68c-5.76,10.38-14.28,20-22.92,25.14a22.2,22.2,0,0,0-2.94-3.3c9.24-5,18.54-15.47,24-26H328.11v-4h23.64v-14.76h4.14v14.76h23.88v4Z"/><path d="M384.81,1823.84h14.82v-35.15h4v38.87H384.81Z"/><path d="M437,1785.63a67.9,67.9,0,0,1-7.2,12.24v28.85h-4v-24a41.57,41.57,0,0,1-7.26,6.41,17,17,0,0,0-2-3.48c7-5,12.3-12.23,16.14-20H417.87v-3.84h16.44a65.25,65.25,0,0,0,3.3-9.42l4.08,1c-.9,2.82-1.86,5.64-3,8.4H470v3.84ZM470,1821.86v3.72H433.83v-3.72h16v-17.52H436.17v-3.71h13.68v-11.82h4v11.82h13.8v3.71h-13.8v17.52Z"/><path d="M502.89,1775.49H488.07v35.15h-4v-38.87h18.78Z"/><path d="M557.37,1775.91v50.57h-4.32v-2.88H514.71V1827h-4.14v-51.11Zm-4.32,43.73v-39.71H514.71v39.71Z"/><path d="M564.81,1823.84h14.82v-35.15h4v38.87H564.81Z"/><path d="M620,1771.17l3.24,1.74c-7.08,7.26-11.28,16.2-11.28,26.76s4.2,19.49,11.28,26.75l-3.24,1.74c-7.32-7.5-11.94-17-11.94-28.49S612.69,1778.67,620,1771.17Z"/><path d="M645.57,1785.63H626.43v-3.3h19.14Zm-1.2,15.89h-16v-3.23h16Zm-.36,22H632.07v2.82h-3.3v-20H644Zm-15.18-30v-3.23h15.24v3.23Zm7.92-11.69a37.94,37.94,0,0,0-5.16-7.8l3.3-1.32a43.55,43.55,0,0,1,5.4,7.5Zm-4.68,27.77v10.56h8.58v-10.56Zm28.38,10.92a53.19,53.19,0,0,1-13.5,6.54,17.47,17.47,0,0,0-2.58-2.58c4.56-1.32,10.08-3.78,12.72-5.88Zm1-41.93h-14v-2.82h14v-3.42h3.9v3.42h14.94v2.82H665.37v3.06h13.2v2.7h-29v-2.7h11.94ZM647.91,1787h31.92v11.69H647.91Zm30.3,31.55H649.59V1801h28.62Zm-27-22.25h6.12v-6.84h-6.12Zm23.28,7.25H653.25v2.7h21.24Zm0,4.8H653.25v2.76h21.24Zm0,4.8H653.25V1816h21.24Zm-7.32-16.85v-6.84h-7.08v6.84Zm1.56,22.25c4.62,2,9.66,4.38,12.84,6.06l-2.28,2.64c-3-1.68-8-4.2-12.42-6.3Zm7.68-29.09H670v6.84h6.42Z"/><path d="M705.21,1773.75a105.89,105.89,0,0,1-6.18,12.9v40.25h-4v-34.07a58.5,58.5,0,0,1-6.36,7.67,22.37,22.37,0,0,0-2.34-3.9c6-5.81,11.64-14.81,15.06-24Zm17.22,12.48v9H740v3.72H722.43v9.48h18.3v3.78h-18.3V1827h-4v-40.73H714a65.13,65.13,0,0,1-8.64,12.65,28.89,28.89,0,0,0-3.12-2.7c5.46-5.57,10.32-14.27,13.26-23l3.84,1c-1,2.82-2.22,5.58-3.42,8.28h25.38v3.84Z"/><path d="M745.47,1790.07h5l5.1,19.25c.72,3.06,1.32,5.94,2,8.94h.24c.78-3,1.44-5.88,2.28-8.94l5.22-19.25h4.92l5.28,19.25c.78,3.06,1.5,5.94,2.28,8.94H778c.72-3,1.38-5.88,2.1-8.94l5-19.25h4.68l-8.88,32.39h-5.94L770,1804.4c-.9-3.11-1.5-6.06-2.28-9.36h-.3c-.72,3.3-1.38,6.36-2.34,9.42l-4.74,18h-5.76Z"/><path d="M794.25,1806.26c0-10.5,7-17,14.46-17,8.1,0,12.78,5.81,12.78,15.17a14.19,14.19,0,0,1-.24,2.94H799.11c.3,7.2,4.62,12,11.1,12a14.28,14.28,0,0,0,8.22-2.64l1.8,3.24a18.91,18.91,0,0,1-10.62,3.3C801.09,1823.24,794.25,1816.94,794.25,1806.26Zm22.92-2.51c0-6.91-3.12-10.57-8.4-10.57-4.8,0-9.06,3.9-9.72,10.57Zm-12.24-22.08,9.36-11,3.42,3.24-10.2,10.2Z"/><path d="M828.75,1779.69a3.39,3.39,0,0,1,6.78,0,3.39,3.39,0,1,1-6.78,0Zm1,10.38h4.86v32.39h-4.86Z"/><path d="M844,1828.16l-3.24-1.74c7.08-7.26,11.28-16.2,11.28-26.75s-4.2-19.5-11.28-26.76l3.24-1.74c7.32,7.5,11.94,17,11.94,28.5S851.31,1820.66,844,1828.16Z"/><path d="M924,1783.05v27.77h-4.08v-3.48H902.07v19.56h-4.14v-19.56H880.17v3.78h-4v-28.07h21.72v-10.74h4.14v10.74Zm-26,20.33V1787H880.17v16.43Zm22,0V1787H902.07v16.43Z"/><path d="M939,1808c4.68-2,7.26-4.86,7.56-9.17a4,4,0,0,1-1.14.11c-2.34,0-4.26-1.31-4.26-4.07a4,4,0,0,1,4.32-4.08c3.18,0,4.86,2.58,4.86,6.66,0,6.41-4,11.21-10.08,13.43Z"/><path d="M286.92,1845.69a98.85,98.85,0,0,1-6.18,13.56v39.59H276.9v-33.35a61.73,61.73,0,0,1-5.46,7,32.86,32.86,0,0,0-2.28-3.9c5.58-5.87,10.8-14.87,14-24Zm34.14,28c-2.1,1.26-4.44,2.64-6.84,3.78,2,6.06,5.82,11.82,10.38,14.52a11.2,11.2,0,0,0-2.64,2.94c-4.62-3.18-8.46-9.42-10.68-16a27.45,27.45,0,0,1-2.76,1.2c2.58,6.84,1.86,14-1,16.68a6.91,6.91,0,0,1-5.22,1.92c-1.08,0-2.4-.06-3.78-.18a9.31,9.31,0,0,0-1-3.42,38.26,38.26,0,0,0,4.14.24,3.66,3.66,0,0,0,3.12-1.14c1.56-1.38,2.22-5.16,1.44-9.36-5.16,4.92-13.08,9.36-19.8,11.7a15.8,15.8,0,0,0-2.34-2.82c7.62-2.28,16.62-7.14,21.3-12.24a35.76,35.76,0,0,0-1.5-3.48,63.52,63.52,0,0,1-17.22,9.9,16.14,16.14,0,0,0-2.22-2.64c5.94-1.8,13.74-5.76,17.88-9.54a16.39,16.39,0,0,0-2.94-3.18,58.44,58.44,0,0,1-13.56,7.26,11.26,11.26,0,0,0-2.22-2.58,52.7,52.7,0,0,0,15.06-7.55H288.48v-9.36c-1.14,1-2.28,2-3.54,2.94a9.37,9.37,0,0,0-2.52-2.58,44.69,44.69,0,0,0,13.86-16.26l3.84.72c-.6,1.2-1.32,2.34-2,3.54h11.1l.72-.18,2.34,1.68a52.13,52.13,0,0,1-4.8,6.84h13.08v12.66H302.94c-.36.36-.78.66-1.2,1a21,21,0,0,1,5.64,6.84,110,110,0,0,0,10.92-6.42ZM296,1851.81a54.58,54.58,0,0,1-4.2,5.16h11.58a37.88,37.88,0,0,0,3.72-5.16Zm-3.9,14.69h10.5v-6.42h-10.5Zm24.72-6.42H306.18v6.42H316.8Z"/><path d="M345.06,1878.5c-.72-1.92-2.46-5.7-4-8.7v29h-3.48v-28.32c-1.74,6.61-4,13-6.42,16.92a22.27,22.27,0,0,0-2-3.24c3.24-5.1,6.54-14.82,8.1-23.16h-7v-3.65h7.26v-13.08h3.48v13.08h5.58V1861H341.1v4c1.44,2.27,5.22,8.81,6.06,10.43Zm20.22,3.12c-1.14,3.36-2.46,7.2-3.6,10.08,2.28-.36,4.62-.78,6.9-1.14l.24,3.36c-8,1.38-16.5,2.7-22.62,3.72l-1-3.54c3.66-.48,8.58-1.2,13.92-2l-1-.3a78.58,78.58,0,0,0,3.48-11Zm-10-27.77h-8.76v-3.3h8.76v-6.12h3.48v6.12h8.88v3.3H358.8v5.57h7.5v3.31H347.82v-3.31h7.5Zm10.5,25.61h-17.4v-13.31h17.4Zm-14,12.24a44,44,0,0,0-2.52-9.84l3.24-.78a48.58,48.58,0,0,1,2.7,9.66Zm10.44-22.56h-10.5v7.26h10.5Zm22.08-7.49h-3.72v32.45c0,2.34-.6,3.54-2,4.2s-4,.72-7.68.72a16.45,16.45,0,0,0-1.26-3.78c2.82.06,5.34.06,6.18.06s1-.3,1-1.14v-32.51h-9.3V1858h9.3v-13.55h3.72V1858h3.72Zm-12.78,21.17a77.39,77.39,0,0,0-3.54-14.75l3.06-.85a73.94,73.94,0,0,1,3.72,14.52Z"/><path d="M420.84,1863.15c5.52,10.31,15.06,20.75,24.06,25.79a16.83,16.83,0,0,0-3.06,3.42c-8.34-5.22-16.92-14.94-22.8-25.07V1899H414.9v-31.68c-5.76,10.38-14.28,20-22.92,25.14a22.2,22.2,0,0,0-2.94-3.3c9.24-5,18.54-15.47,24-26H391.26v-4H414.9v-14.76H419v14.76h23.88v4Z"/><path d="M503.7,1893.2v3.9H450.48v-3.9H475v-15.84H457v-3.84H475V1860H460.56a48.79,48.79,0,0,1-6.36,10,27.84,27.84,0,0,0-3.6-2.41c5-5.33,8.82-13.61,11.16-22.19l4,.84a86.44,86.44,0,0,1-3.42,9.84H475v-11.7h4.14v11.7h21.72V1860H479.16v13.56h19.56v3.84H479.16v15.84Z"/><path d="M560.88,1879.64a97.41,97.41,0,0,1-13.44,8.1,42.76,42.76,0,0,0,17.64,7.26,14.08,14.08,0,0,0-2.46,3.48c-13.74-3-23.34-10.38-28.56-21.72h-9.78v16.62l16.8-4.08c-.12,1-.18,2.64-.18,3.48-17,4.44-20,5.22-21.3,6l-.3.18a16.11,16.11,0,0,0-1.86-3.84,4.87,4.87,0,0,0,2.94-4.26v-14.1h-10v-3.66H521v-26.33h36.9v3.42H525.06v5.52H556V1859h-30.9v5.34H556v3.3h-30.9v5.46h38.58v3.66H538.08a30.21,30.21,0,0,0,6.72,8.82,90.28,90.28,0,0,0,12.78-8.1Z"/><path d="M575.88,1880c4.68-2,7.26-4.86,7.56-9.17a4,4,0,0,1-1.14.11c-2.34,0-4.26-1.31-4.26-4.07a4,4,0,0,1,4.32-4.08c3.18,0,4.86,2.58,4.86,6.66,0,6.41-4,11.21-10.08,13.43Z"/><path d="M651.3,1849.59v47h-4.14v-4.14H606.54V1897h-4v-47.39Zm-4.14,39v-35.15h-12.3v19.37c0,1.87.24,2.58,1.56,2.58h6.18a14.9,14.9,0,0,0,3.36-.3c.06,1.09.18,2.46.3,3.42a14.3,14.3,0,0,1-3.54.24h-6.78c-3.9,0-4.86-1.68-4.86-6.06v-19.25h-8.82c-.3,16.49-1.86,25.37-12.36,30.35a12,12,0,0,0-2.4-3.12c9.42-4.32,10.62-12.12,10.86-27.23H606.54v35.15Z"/><path d="M709.44,1894c0,2.58-.72,3.66-2.52,4.32s-5,.66-10.32.66a14.65,14.65,0,0,0-1.44-3.54c4,.12,7.74.12,8.82.06s1.5-.42,1.5-1.44v-23.63h-35.4c-.3,9.41-1.74,20.87-7.68,29a11.75,11.75,0,0,0-3.12-2.58c6.36-8.82,7-21.17,7-30.54v-19h43.2Zm-39.3-43v5.88H685.2V1851Zm0,16H685.2v-6.78H670.14V1867Zm8.4,23.51v3.3h-3.66V1875h25v15.54Zm0-12.36v9.12H696v-9.12ZM705.48,1851H689v5.88h16.44Zm0,16v-6.78H689V1867Z"/><path d="M740.76,1856c-1.2,2.46-2.52,5-3.9,7.31h29.22v30.54c0,2.52-.6,3.72-2.46,4.38s-5.16.66-10.38.66a16.63,16.63,0,0,0-1.32-3.9c4.14.18,7.8.12,8.82.12s1.44-.42,1.44-1.32v-6.66H735.9c-.84,4.38-2.58,8.88-6.12,12.24a12.44,12.44,0,0,0-2.76-3.12c5-4.86,5.52-11.52,5.52-17.22v-9.53a50.45,50.45,0,0,1-10.14,9.71,17.42,17.42,0,0,0-2.52-3.12c7.2-4.91,12.66-12.17,16.56-20.09H721.08v-3.78h17a57.7,57.7,0,0,0,2.76-7.8l4,.9a72.7,72.7,0,0,1-2.46,6.9h30.84V1856Zm21.42,27.65v-6.72H736.56V1879c0,1.44-.06,2.94-.18,4.56Zm0-16.73H736.56v6.53h25.62Z"/><path d="M787,1876.52c-.3,7.5-1.38,16.2-4.74,22.5a14.72,14.72,0,0,0-3.18-2.52c3.84-7.32,4.14-17.7,4.14-25.5v-20.69c7.14-.84,15.84-2.46,20.46-4.68l2.58,3.3c-4.86,2.16-12.42,3.6-19.14,4.44v5.94h16.26v17.21Zm.12-13.56v10h12.36v-10Zm47,5.46h-7.26v30.36H823v-30.36h-9.84v2.16c0,8.82-1.14,20.82-8.52,28.5a17.13,17.13,0,0,0-3.12-2.7c6.9-7.2,7.56-17.64,7.56-25.8v-20.15c7.5-1.14,16.38-3.06,21.18-5.34l2.7,3.36c-5,2.22-12.84,3.84-19.8,4.92v11.21h21Z"/><path d="M860.4,1848.21c-1.8,4.86-4,10.68-6.06,15.48,4.44,5,5.52,9.41,5.52,13.19,0,3-.66,5.64-2.28,6.78a6.45,6.45,0,0,1-3.06,1.08,18.5,18.5,0,0,1-4.08.06,8.29,8.29,0,0,0-1.08-3.54,19.1,19.1,0,0,0,3.66.06,3.63,3.63,0,0,0,1.92-.54c1-.66,1.32-2.4,1.32-4.26,0-3.35-1.14-7.5-5.64-12.41,1.86-4.38,3.72-9.66,5-13.62h-9.24V1899h-3.6v-52.13h14.4l.6-.18ZM893.28,1878a82,82,0,0,1-10.68,7.32,26.47,26.47,0,0,0,11.94,9.84,19.4,19.4,0,0,0-2.7,3.42c-9.48-4.38-15.18-13.62-18.18-25.5h-6.18v20.28l11-2.7a22.19,22.19,0,0,0,.18,3.6c-12.48,3.42-14.22,4-15.36,4.8a13,13,0,0,0-1.8-3.36c1-.48,2.1-1.56,2.1-4V1847h26.16v26h-12.6a41.22,41.22,0,0,0,3.78,9.42,76.79,76.79,0,0,0,9.72-7.25Zm-25.8-27.41v7.68h18.36v-7.68Zm0,19h18.36v-7.92H867.48Z"/><path d="M918.54,1863.38H933.3V1867H918.54v6.36H931V1890c0,1.92-.3,2.94-1.74,3.6s-3.6.66-7,.66a13.51,13.51,0,0,0-1.14-3.54c2.7.12,4.74.12,5.4.06s.84-.24.84-.84V1877h-8.82v21.9H914.7V1877h-8.28v17h-3.66V1873.4H914.7V1867H899.94v-3.66H914.7v-6.65h-8.16a37.68,37.68,0,0,1-3.12,6.42,19,19,0,0,0-3.54-1.5c2.76-4,4.8-10.08,6.12-15.84l3.72.72c-.54,2.16-1.2,4.44-1.92,6.54h6.9v-8.52h3.84v8.52H930.9v3.66H918.54Zm23.1,19.44h-3.78v-32.93h3.78Zm10.74-37.91v48.23c0,2.88-.72,4.08-2.4,4.8s-5,.78-9.48.78a22.82,22.82,0,0,0-1.32-4.26c3.6.12,7,.12,8,.12s1.32-.3,1.32-1.38v-48.29Z"/><path d="M972.18,1862.67a9.06,9.06,0,1,1-9.06,9A9.09,9.09,0,0,1,972.18,1862.67Zm0,15.23a6.18,6.18,0,1,0,0-12.36,6.18,6.18,0,1,0,0,12.36Z"/><path d="M525.24,1917.51a13.18,13.18,0,0,1-.84,1.08c5.7,5.64,16.2,10.62,25.56,12.83a12.89,12.89,0,0,0-2.52,3.12,71.7,71.7,0,0,1-14.88-6.17l-.06,1.92H511.74l.06-1.68a88.84,88.84,0,0,1-14.88,6.23,32.14,32.14,0,0,0-2.28-3c10.8-3,21.48-8.28,27.12-15.6Zm-23.16,16H542v14.88h-39.9Zm3.42,12.06h14.7v-9.23H505.5Zm.12,5.82H539v19.38h-4v-1.86h-25.5v2h-3.9Zm6.66-14.21a21.72,21.72,0,0,1,3.78,6.83l-3.06,1.21a27.26,27.26,0,0,0-3.6-7.09Zm-2.76,17.15v4.32H535v-4.32Zm25.5,11.64v-4.38h-25.5v4.38Zm-4.2-38.57a48.46,48.46,0,0,1-8.58-6.42,45.19,45.19,0,0,1-8.34,6.42Zm7.5,8.94H523.56v9.23h14.76Zm-10.62,7.79a53.26,53.26,0,0,0,3.54-7.2l3.36,1.08a73,73,0,0,1-4.14,7.21Z"/><path d="M556.08,1967.48c3.06-2.58,5.64-7,7.08-10.44l3.3,1.5c-1.68,3.6-4.08,8-7.14,10.86Zm51.72-36.9v3.25H556.56v-3.25h14.16a23.89,23.89,0,0,0-2.34-5.45l3.36-.84H559.26V1921h21.9c-.72-1.44-1.56-2.94-2.34-4.2l3.78-.9a39.9,39.9,0,0,1,2.94,5.1h19.2v3.3H592.86l3.24.78c-1,1.92-2,3.84-3,5.51Zm-7,23.7H579.66a47.07,47.07,0,0,1,8.82,6.24L586,1963a48.61,48.61,0,0,0-9.3-6.9l2-1.8H563.58V1937h37.2Zm-3.9-14.45H567.36v4.43h29.52Zm0,7.13H567.36v4.44h29.52Zm-8.22,20.16c2.58,0,3-.72,3.24-6.24a12.08,12.08,0,0,0,3.54,1.38c-.48,6.66-1.74,8.22-6.42,8.22H577.44c-5.82,0-7.38-1-7.38-5v-8H574v8c0,1.38.54,1.68,3.72,1.68ZM572,1924.29a26.19,26.19,0,0,1,2.76,6.18l-.48.11H589a59.18,59.18,0,0,0,3.06-6.29Zm27.66,32.21a46.55,46.55,0,0,1,8,10.2l-3.36,1.74a49,49,0,0,0-7.8-10.56Z"/><path d="M635.34,1920.27c-2,4.86-4.56,10.68-6.78,15.48,4.92,4.92,6.18,9.29,6.18,13,0,3.12-.72,5.64-2.46,6.84a6.73,6.73,0,0,1-3.24,1.14,21.77,21.77,0,0,1-4.44.06,8.41,8.41,0,0,0-1-3.6,18.78,18.78,0,0,0,4,.12,3.78,3.78,0,0,0,2.1-.6c1.08-.66,1.44-2.34,1.44-4.2,0-3.42-1.32-7.56-6.3-12.35,2-4.38,4.14-9.6,5.58-13.68H621.3V1971h-3.78v-52.13H632.1l.66-.18Zm34.14,45V1969H632.22v-3.72h6.9v-45.53h25.32v45.53Zm-26.58-41.81v10.86h17.58v-10.86ZM660.48,1938H642.9v11.57h17.58Zm-17.58,27.29h17.58v-12.06H642.9Z"/><path d="M682,1962.74v5h-3.18v-19.56a41.79,41.79,0,0,1-2.7,5.16,26.46,26.46,0,0,0-2.28-3.48c4-6.36,6.24-16.19,7.5-26.51h-6.54v-3.6h18.3v3.6H685c-.72,4.92-1.56,9.72-2.64,14.22h8.82v25.13Zm6-21.6h-6v18.06h6Zm17.28,23.7a39.14,39.14,0,0,0-4.26-5.34,21.73,21.73,0,0,1-8,11.64,16.31,16.31,0,0,0-2.22-2.34c5.7-4,7.44-9.54,8-14.28h-6.3v-3.36h6.54v-7.32H697.2a39.41,39.41,0,0,1-2.52,5.7,23.62,23.62,0,0,0-2.94-1.5c2.22-3.29,3.54-8,4.38-12.71l3.18.66c-.3,1.55-.72,3.11-1.14,4.61h10.08v3.24H702.3v7.32h6.36v3.36h-6.6c-.06.6-.12,1.2-.24,1.8a41.37,41.37,0,0,1,5.7,6.54Zm-6.54-30.3c-3.6,0-4.5-1.43-4.5-5.33v-12.78h3.3v5.82h9.72v3.06h-9.72v4c0,1.68.24,2.22,1.32,2.22h6a17.07,17.07,0,0,0,3.06-.3,24.2,24.2,0,0,0,.36,3.06,17.59,17.59,0,0,1-3.42.29Zm21.9,31.62a13.17,13.17,0,0,0,4.08.6c.78,0,4,0,5.16-.06a15.27,15.27,0,0,0-1.14,3.42H724.5c-5.28,0-9.48-1.62-12.36-8.58a22.05,22.05,0,0,1-4.86,9.6,9.74,9.74,0,0,0-2.22-2.22c4.5-4.62,5.52-13.2,5.76-22.92h3.06c-.12,3.48-.3,6.84-.72,10,1,4.14,2.52,6.72,4.26,8.34v-24.42h-8.58v-3.35h17.64l.6-.19,2.16.73a93.25,93.25,0,0,1-2.4,9.06l-2.7-1c.42-1.43.9-3.35,1.26-5.22h-4.74v10.44h8v3.24h-8ZM713,1925.31c1.44.72,3.12,1.74,4.74,2.7a46,46,0,0,0,5.58-6.24h-14v-3.24h16.5l.66-.18,2.34,1.68a54.54,54.54,0,0,1-8.58,9.6,38,38,0,0,1,4.32,3.29l-2.22,2.58c-2.4-2.39-7.44-5.75-11.46-8Z"/><path d="M747.18,1934.67a9.06,9.06,0,1,1-9.06,9A9.09,9.09,0,0,1,747.18,1934.67Zm0,15.23a6.18,6.18,0,1,0,0-12.36,6.18,6.18,0,1,0,0,12.36Z"/><path d="M434.7,2018.06s-.06,1.32-.12,1.86c-1.08,13.56-2.1,18.84-4.08,20.82-1.26,1.32-2.46,1.68-4.56,1.8a90.37,90.37,0,0,1-9.48-.18,8,8,0,0,0-1.44-4c4,.36,8,.36,9.48.36s2-.06,2.58-.6c1.5-1.2,2.4-5.7,3.3-16.32h-22.8c1.14-4.56,2.46-11.63,3.24-17.09H430.5v-10.08h-22v-3.78H434.4v17.58H414.3c-.6,3.3-1.2,6.72-1.86,9.65Zm18.36-29.15V2043h-4v-54.11Z"/><path d="M515.28,1996.23v33.29H511.2v-3.18H493.92v16.5h-4.14v-16.5H473v3.54h-4v-33.65h20.76v-7.92h4.14v7.92Zm-42.3,3.84v9.18h16.8v-9.18Zm16.8,22.49V2013H473v9.6Zm4.14-22.49v9.18H511.2v-9.18Zm17.28,22.49V2013H493.92v9.6Z"/><path d="M577.74,2020.17s-.06,1.19-.12,1.73c-1.14,12.66-2.28,17.64-4.14,19.56a5.52,5.52,0,0,1-4,1.56,66.58,66.58,0,0,1-7.5-.12,9.39,9.39,0,0,0-1.2-3.66c3.12.3,6.06.3,7.2.3a3,3,0,0,0,2.22-.54c1.26-1.32,2.4-5.34,3.36-15.3H536a59.21,59.21,0,0,1-9.66,7.32,19.86,19.86,0,0,0-2.22-3.3c10.26-6,17.82-15.18,23.1-25.43h-20v-3.66H549a82.29,82.29,0,0,0,3.84-10.32l3.9,1a92.32,92.32,0,0,1-3.54,9.3H569c-.72,3.48-1.56,7.62-2.34,10.74h7c-.66,3.47-1.5,7.67-2.28,10.8Zm-49.38,20.33c3.42-3.24,5.7-8.58,7-13.2l3.3,1.08c-1.44,4.92-3.54,10.62-7.14,14.16Zm12.42-42.17a39,39,0,0,0-6-8.34l3.42-1.44a39.57,39.57,0,0,1,6.18,8Zm26.82,21.84c.54-2.11,1.08-4.69,1.56-7.21H545.34a75.18,75.18,0,0,1-5.76,7.21Zm-21.48,7.91a44,44,0,0,1,1.8,11.88l-3.48.54a39.57,39.57,0,0,0-1.62-11.94Zm5.4-25.79c-1.14,2.4-2.46,4.79-3.84,7.08h15.24c.54-2,1.14-4.62,1.62-7.08Zm3.18,25a43,43,0,0,1,3.6,10.26l-3.3.9a45.91,45.91,0,0,0-3.42-10.44Zm10.32,8a38.83,38.83,0,0,0-4.56-8.1l2.76-1.08a34.18,34.18,0,0,1,4.74,7.86Z"/><path d="M607.62,1992.93h5V1996h-5v7.2h-6.78v3.35h9.78V2017h-9.78v3.48h10v3h-10a24.52,24.52,0,0,1-.42,3.6h12v3H599.58c-1.56,5-5.16,9.84-12.84,13.2a12.31,12.31,0,0,0-2.46-2.88c6.6-2.82,9.9-6.36,11.46-10.32h-10.5v-3H596.7a24.68,24.68,0,0,0,.48-3.6H587v-3h10.2V2017H587.7v-10.5h9.54v-3.35h-6.66V1996H585v-3.06h5.58v-4.5h3.54v4.5H604v-4.5h3.66Zm-10.38,21.36v-5h-6.3v5ZM604,1996h-9.84v4.38H604Zm-2.28,36.53c1.74,1.08,7.74,5.22,9.24,6.42l-2.34,2.88c-1.86-1.74-7.14-5.88-9.3-7.38Zm-.84-23.27v5h6.42v-5Zm38.28,11.45a94.87,94.87,0,0,1-9.18,7.5c2.46,4.86,5.88,8.64,10.44,10.8a15.18,15.18,0,0,0-2.7,3.18c-8.34-4.5-12.9-13.92-15.12-25.85h-3.9v20.45l8.52-3.84a16.13,16.13,0,0,0,.72,3.24c-10.74,5.1-12.3,6-13.32,7a16.76,16.76,0,0,0-1.5-4c.78-.36,1.86-1,1.86-3.24v-45.11h21.24v25.5H626a54,54,0,0,0,2.64,8.93,76.4,76.4,0,0,0,7.8-7.2Zm-20.46-26.21v7.26H632.4v-7.26Zm0,18.18H632.4v-7.5H618.66Z"/><path d="M699.12,2039.84H678.3v3.06h-3.66v-34.79c-1,1.56-1.86,3.06-2.82,4.31a24.42,24.42,0,0,0-2.1-1.79v5h-9.54v3.77h10v3h-10a30.44,30.44,0,0,1-.24,4H671.7v3.18H659.28l-.18.48a71.31,71.31,0,0,1,10.68,8.52l-2.28,2.7a66.53,66.53,0,0,0-9.54-8.22c-1.86,3.54-5.1,7-10.8,9.78a14.45,14.45,0,0,0-2.46-2.64c6.36-2.94,9.3-6.84,10.62-10.62H644.88v-3.18h11.28a23.3,23.3,0,0,0,.3-4h-9.6v-3h9.6v-3.77h-9.6v-11.28h9.72v-2.76h-6.06v-6.12h-5.4v-3.12h5.4v-3.9h3.6v3.9h8.76v-3.9h3.66v3.9h5v3.12h-5v6.12h-6.6v2.76h9.78v4.37c3.84-5.34,7.08-12.89,9.06-20.39l3.6.9a90.5,90.5,0,0,1-3.66,10.5h20.1v3.65h-8.58v8.46h7.86v3.49h-7.86v8.57h8v3.48h-8v8.76h8.88Zm-49-26.93h6.48v-5.76H650.1Zm4-14h8.76v-3.36h-8.76Zm12.24,8.28h-6.42v5.76h6.42Zm20.22-3.73H678.3v8.46h8.28Zm0,11.95H678.3v8.57h8.28Zm-8.28,20.81h8.28v-8.76H678.3Zm10-37.07a46.61,46.61,0,0,0-4.14-8.64l3.36-1.32a36.71,36.71,0,0,1,4.26,8.58Z"/><path d="M723.42,2025a27.32,27.32,0,0,1-3.54,3.42h33.54v14.52h-4v-2H720.78v2.16h-3.84v-12.54a47,47,0,0,1-9.72,4.62,18.52,18.52,0,0,0-2.52-3.3A34.62,34.62,0,0,0,718,2025H711.9v-3.06H721a24.49,24.49,0,0,0,2.88-4.44H705.78v-2.88H725.1a34.49,34.49,0,0,0,1.32-3.95H712.56v-3.06h38.52v7H759v2.88h-7.92v7.5Zm-13-23.09h-3.9v-9.12h23.88a37.55,37.55,0,0,0-1.5-3.9l4-.6a37.85,37.85,0,0,1,2,4.5h23.34v8.75h-4v-5.45H740.4v4.74c0,1.38.18,1.79,1.68,1.79h9.36a27.55,27.55,0,0,0,4.68-.35c.12,1.08.18,1.92.36,2.81a24.44,24.44,0,0,1-4.8.3h-10.5c-3.9,0-4.62-1.43-4.62-4.61v-4.68h-8.88c-2.22,6.24-7.38,9.36-18.72,11.21a11.27,11.27,0,0,0-2-3c10.38-1.27,14.88-3.66,16.8-8.22H710.4Zm10.38,29.63v6.42H749.4v-6.42Zm7.44-14a31.41,31.41,0,0,1-2.46,4.44h21.48v-4.44Zm2.34-6.83c-.36,1.37-.72,2.7-1.14,3.95h17.82v-3.95Z"/><path d="M780.6,2017.71a51.29,51.29,0,0,1-4.2,13.79c4.08,6.12,11.7,7,22.74,7.08,6.24,0,14.76-.3,20.76-.78a13.29,13.29,0,0,0-1.38,3.84c-5.46.36-12.9.48-19.44.48-12,0-19.62-1.2-24.3-7.62a28.7,28.7,0,0,1-8.22,8.7,10.78,10.78,0,0,0-2.64-2.82c5.94-3.72,10.5-10.44,12.54-20.1h-7.14a6.49,6.49,0,0,0-3.42.78v0l-.06.07v-.25a23.34,23.34,0,0,0-1.44-3.48,5.65,5.65,0,0,0,2.82-1.68c1.44-1.43,5.1-6.54,7.74-10.26h-9.9v-3.29h12.42l.66-.3,2.76,1.26c-2.52,3.54-7.14,9.83-10.56,13.85h7.56l.6-.06Zm-5.7-17.64a108.41,108.41,0,0,0-7.56-9.54l2.94-1.8a91.46,91.46,0,0,1,7.68,9.18ZM815.46,2031H785.34v-34.07h10.2c.84-2.64,1.86-6.12,2.4-8.58l4.08.54c-.84,2.7-1.8,5.7-2.76,8h16.2ZM789,2000.61v11.15h22.62v-11.15Zm22.62,26.63v-11.87H789v11.87Z"/><path d="M837.18,2006.67a9.06,9.06,0,1,1-9.06,9A9.09,9.09,0,0,1,837.18,2006.67Zm0,15.23a6.18,6.18,0,1,0,0-12.36,6.18,6.18,0,1,0,0,12.36Z"/><rect class="cls-2" x="1113" y="429" width="65" height="126" rx="12"/><path class="cls-1" d="M1132.7,458.82c1.25,1.6,4.9,6.7,5.7,8.05l-2,2.45c-.7-1.5-2.35-4.4-3.75-6.65V489h-3.15V464.57c-1.5,5.05-3.5,9.9-5.55,12.85a14.83,14.83,0,0,0-1.75-3.1c2.9-4,5.8-11.5,7.2-18h-6.2v-3.15h6.3v-9.65h3.15v9.65h5.45v3.15h-5.45Zm19.1.7a19.47,19.47,0,0,0,.45,2.65c-10.15,2.7-11.6,3.15-12.5,3.75a12.13,12.13,0,0,0-1.1-3.2c.7-.2,1.55-.5,1.55-2.2v-16.7h3.25v6.5h8.35v2.9h-8.35v8.3Zm2.35,5.5-2,3.75h12.65V489h-3.4v-1.75h-17v2h-3.3V468.77h7.9c.55-1.5,1.2-3.25,1.55-4.6Zm7.3,6.5h-17v5.05h17Zm0,13v-5.3h-17v5.3Zm2.25-22.4c1.25,0,1.5-.75,1.65-5.25a9.16,9.16,0,0,0,2.85,1.25c-.3,5.45-1.2,6.95-4.15,6.95h-5.85c-3.65,0-4.55-.95-4.55-4.45V443.87h3.25v6.5h10.2v2.9h-10.2v7.35c0,1.3.25,1.5,1.65,1.5Z"/><path class="cls-1" d="M1167.55,518.87v2.5H1123.4v-2.5h20.25v-3.2H1126.8v-2.3h16.85v-3H1128.2v-2.25h15.45v-3.2H1123.5v-2.5h20.15v-3.05H1128.8V497h14.85v-3.55h3.25V497h14.45v5.4h6.15v2.5h-6.15v5.45H1146.9v3h17.3v2.3h-17.3v3.2Zm-37.75,5h31.75v15.25h-3.25v-1.6H1133v1.7h-3.2Zm3.2,2.4v3.2h25.3v-3.2Zm25.3,8.85v-3.4H1133v3.4Zm-11.4-32.7h11.15v-3.05H1146.9Zm0,5.7h11.15v-3.2H1146.9Z"/><rect class="cls-2" x="1114" y="1193" width="65" height="219" rx="12"/><path class="cls-1" d="M1158.05,1231.79a27.61,27.61,0,0,0,11.5,8.1,11.65,11.65,0,0,0-2.15,2.55,30.77,30.77,0,0,1-12.8-10.65h-15.95a34.39,34.39,0,0,1-13,11.3,11.43,11.43,0,0,0-2.15-2.55,30.39,30.39,0,0,0,11.6-8.75H1124v-2.85h10v-16.15h-7.7V1210h7.7v-5h3.3v5h18.55v-5h3.35v5h7.65v2.8h-7.65v16.15h9.8v2.85Zm-10,14.5h17.3v2.85H1127.8v-2.85h16.9v-5.6h-10.45v-2.8h10.45v-4.4h3.35v4.4h10.65v2.8h-10.65Zm-10.8-33.5v3.6h18.55v-3.6Zm0,9.8h18.55v-3.65h-18.55Zm0,6.35h18.55v-3.8h-18.55Z"/><path class="cls-1" d="M1142.25,1273.54s0,1.15,0,1.55c-.6,15.85-1.2,21.2-2.6,23a3.71,3.71,0,0,1-2.8,1.45,32.65,32.65,0,0,1-4.45,0,9.25,9.25,0,0,0-.85-3c1.75.15,3.2.15,3.9.15a1.42,1.42,0,0,0,1.45-.65c1-1.2,1.6-6,2.15-19.35h-6.8c-.55,10-2,18.25-6.45,23.65a9.53,9.53,0,0,0-2.55-2.35c5.45-6.45,5.9-17.85,6.1-31.55h-5.2v-3.1h20.1v3.1h-11.65c0,2.45-.1,4.85-.2,7.15Zm-7.9-10.45a33.47,33.47,0,0,0-4.25-7.15l2.9-1.15a31.92,31.92,0,0,1,4.4,7Zm23.85-7.45a15.26,15.26,0,0,1-.85,2.55c2.65,5.45,7.7,11.35,12.45,14a13,13,0,0,0-2.45,2.75c-4.25-2.7-8.5-8-11.4-13.3a32.61,32.61,0,0,1-11,13.6,12.79,12.79,0,0,0-2.35-2.65c5.85-3.6,10.35-10.2,12.5-17.85Zm-8.3,32.45a74,74,0,0,1,13.6,8.25l-2.25,2.9c-2.85-2.6-8.75-6.3-13.4-8.65Zm9.5-4.85a66.22,66.22,0,0,0-8.6-6.85l2.15-2.2a67.46,67.46,0,0,1,8.75,6.55Z"/><path class="cls-1" d="M1135.5,1318c-1.6,7.2-4.55,16.15-9.1,21.7a19.23,19.23,0,0,0-3.1-1.8c4.55-5.25,7.3-13.85,8.55-20.55Zm12.9-12.3v40c0,2.55-.7,3.6-2.35,4.2s-4.8.6-9.4.6a15.62,15.62,0,0,0-1.4-3.45c3.7.1,7.3.1,8.25.05s1.45-.35,1.45-1.4v-40ZM1160,1317c4.45,7,8.7,16.1,10,22l-3.45,1.45c-1.25-5.85-5.25-15.15-9.6-22.3Z"/><path class="cls-1" d="M1164.65,1382.74a72.75,72.75,0,0,1-7.65,3.65,19.75,19.75,0,0,0,12.1,9.55,10.66,10.66,0,0,0-2.1,2.6,22.77,22.77,0,0,1-12.5-11.1c-1.1.45-2.15.85-3.2,1.2,1.5,4.4.7,8.7-1.6,10.35a6,6,0,0,1-4.25,1.3c-1,0-2.25,0-3.55-.1a5.77,5.77,0,0,0-.9-2.85,30,30,0,0,0,4,.2,4.12,4.12,0,0,0,2.7-.65c1.35-1,1.9-3.75,1-6.9-5.55,3.7-14.45,7-22,8.45a11,11,0,0,0-1.45-2.4c8-1.1,17.65-4.65,22.65-8.35a13.35,13.35,0,0,0-1.25-2.15,69.47,69.47,0,0,1-17.55,6.35,7.59,7.59,0,0,0-1.4-2.15c5.8-1,13.4-3.4,17.7-5.85-.6-.55-1.25-1.15-2-1.7a80,80,0,0,1-15.25,4.15,16.41,16.41,0,0,0-1.55-2.2c5.7-.75,12.15-2.15,16.75-4.15h-18.55v-2.55h28c.3-.9.55-1.8.9-2.75h-21.7c1.25-2.8,3-7,4-10.25l3,.5a42,42,0,0,0-3.4-3.25l2-1.15h-6.25a29.23,29.23,0,0,1-5.1,5.6,25.27,25.27,0,0,0-2.35-2.2,26.89,26.89,0,0,0,7.5-9.35l3,.85c-.45.9-1,1.75-1.4,2.65h13.45v2.45h-8.3a44.9,44.9,0,0,1,4,3.65l-2.45,1.6a4.8,4.8,0,0,0-.7-.75c-.2.65-.45,1.25-.65,2h17.75l.6-.2,2.25.5c-.8,3.15-1.9,7-3,10.15h12V1380h-20.25c-.6.35-1.2.7-1.85,1a16.36,16.36,0,0,1,4.4,5.35,90.1,90.1,0,0,0,11.6-5.5Zm-10.2-10.3c.35-1.15.65-2.2,1-3.2h-17.7c-.45,1.15-.9,2.2-1.3,3.2Zm14.75-14.3v2.45h-16.6a28.84,28.84,0,0,1-4.55,5.15,15.06,15.06,0,0,0-2.55-2,21.57,21.57,0,0,0,6.7-9.1l3.1.8a26.43,26.43,0,0,1-1.25,2.7Zm-7.9,8a32.47,32.47,0,0,0-3.9-4.25l2.3-1.25a30.14,30.14,0,0,1,4,4Z"/><rect class="cls-3" x="324" y="1017" width="610" height="610" rx="208"/><line class="cls-4" x1="629" y1="1105.5" x2="629" y2="1548.5"/><line class="cls-4" x1="629" y1="1403.74" x2="502.07" y2="1510.97"/><line class="cls-4" x1="629" y1="1403.74" x2="755.93" y2="1510.97"/><line class="cls-4" x1="629" y1="1241.55" x2="799.73" y2="1166.49"/><line class="cls-4" x1="629" y1="1241.55" x2="458.27" y2="1166.49"/></svg>