<svg id="Layer_1" data-name="Layer 1" xmlns="http://www.w3.org/2000/svg" viewBox="0 0 1242 2208"><defs><style>.cls-1{fill:#f6eabe;}.cls-2{fill:#999;}.cls-3{fill:#666;}.cls-4{fill:none;stroke:#000;stroke-linecap:round;stroke-miterlimit:10;stroke-width:50px;}</style></defs><rect class="cls-1" width="1242" height="2208"/><rect class="cls-2" x="1113.23" y="1172" width="65" height="219" rx="12"/><rect class="cls-2" x="1113.23" y="394" width="65" height="126" rx="12"/><path d="M975.35,742.38V794H268.7v-51.6h324V414.46H319.52V362.05H592.65V109.56h54.79V362.05H925.33v52.41H647.44V742.38Z"/><path d="M295.41,1837.17c-2.58,1.43-5.7,3-8.7,4.37,2.46,5.52,7.32,11.88,14.52,14.94a18.12,18.12,0,0,0-2.64,3.36c-7.5-3.66-12.54-11-15.06-16.86-1.2.54-2.4,1-3.48,1.38,4,7,3.12,13.86-1.14,16.62a9.52,9.52,0,0,1-6.12,1.74c-1.38,0-3.18-.06-5.1-.12a9.28,9.28,0,0,0-1.14-3.66,50.42,50.42,0,0,0,5.58.24,6.85,6.85,0,0,0,4.26-1c2.52-1.68,3.24-6,1.08-10.8-6.84,5.28-17.88,10.08-26.76,12.42a14.51,14.51,0,0,0-2.28-3.06c9.48-2.1,21.24-7,27.54-12.12a25.51,25.51,0,0,0-2.34-3c-5.82,3.9-14.88,7.32-21.9,9.06a15.75,15.75,0,0,0-2.34-2.94c7.38-1.44,16.62-4.68,22.08-8.16a31.09,31.09,0,0,0-3.66-2.88,94,94,0,0,1-15.42,5.64,14.31,14.31,0,0,0-2.28-2.76,84.06,84.06,0,0,0,17.76-5.93H254v-9.84c-1.2.84-2.4,1.55-3.72,2.34a14.11,14.11,0,0,0-2.64-2.76c8-4.32,14.16-10.32,17.34-15.24l4.26.84c-.84,1.2-1.68,2.28-2.7,3.48h13.56l.6-.24,2.76,1.8a40.15,40.15,0,0,1-4.8,6.48h16.26v13.14H273.27c-.72.47-1.5.95-2.28,1.43a28.71,28.71,0,0,1,7.32,6.78,101.21,101.21,0,0,0,13.92-7.13Zm-37.62-6.67h14.46v-6.83H257.79Zm5.88-14.87a59.64,59.64,0,0,1-5.28,4.86h15.66a38,38,0,0,0,3.84-4.86Zm27.36,8H275.85v6.83H291Z"/><path d="M327.39,1821.63a67.9,67.9,0,0,1-7.2,12.24v28.85h-4v-24a41.57,41.57,0,0,1-7.26,6.41,17,17,0,0,0-2-3.48c7-5,12.3-12.23,16.14-20H308.25v-3.84h16.44a65.25,65.25,0,0,0,3.3-9.42l4.08,1c-.9,2.82-1.86,5.64-3,8.4h31.26v3.84Zm32.94,36.23v3.72H324.21v-3.72h16v-17.52H326.55v-3.71h13.68v-11.82h4v11.82H358v3.71h-13.8v17.52Z"/><path d="M385.53,1841.18l.78,3.54c-6.3,2.88-13,5.94-18.24,8.16l-1.5-4c2.28-.9,5.22-2,8.4-3.36v-19h-7.38v-3.77H375V1809h3.72v13.74h6.6v3.77h-6.6v17.52Zm28.08,16.8c3.54,0,4.14-1.62,4.56-8.7a9.15,9.15,0,0,0,3.6,1.56c-.66,8.16-1.92,10.74-8,10.74H398.61c-6.66,0-8.52-1.5-8.52-7.68v-19.49l-5,2.15-1.56-3.48,6.6-2.75v-16.5h3.78v14.88l8.64-3.67v-16.73h3.78v15.18l9.6-4.08,3.06,1-.24.72c-.6,8.46-1.74,19.49-3.24,26.27l-3.24-1a207.74,207.74,0,0,0,2.4-22.43l-8.34,3.54v22.19h-3.78v-20.63l-8.64,3.66V1854c0,3.24.78,4,4.8,4Z"/><path d="M455.85,1816.23c-.72,2.64-1.62,5.52-2.46,7.92h24.3V1863h-4v-3.18H434.61V1863h-3.9v-38.87h18.6a80.35,80.35,0,0,0,1.92-7.92H428v-3.78h52.62v3.78Zm-21.24,39.89h9v-28.25h-9Zm26-28.25H447.27v7h13.32Zm0,10.31H447.27v7.2h13.32Zm-13.32,17.94h13.32v-7.44H447.27Zm26.4-28.25h-9.42v28.25h9.42Z"/><path d="M541,1856.18v4H487.53v-4h22.62v-46.85h4.14v18.54h22.62v4H514.29v24.3Z"/><path d="M571.23,1858.94h2.52v2.52H546.93v-2.52h3.84v-16.62h7.62c.24-.78.42-1.62.6-2.46H547.65v-2.46h11.88l.54-2.57,3.42.3c-.18.78-.36,1.5-.54,2.27h10.38v2.46h-11l-.66,2.46h9.54Zm27.6-24.84H549.57v-2.46h7.08v-16.19h14.64a19.2,19.2,0,0,0,.42-2H550.83V1811h21.42c.12-1,.3-1.8.42-2.7l4,.3c-.18.78-.3,1.56-.48,2.4h21.6v2.52H575.67c-.18.66-.36,1.38-.48,2H592v16.19h6.84Zm-44.22,10.32v1.92h12.66v-1.92Zm12.66,4H554.61v2h12.66Zm-12.66,6.18h12.66v-2.16H554.61Zm0,4.32h12.66v-2.28H554.61Zm5.88-41.39v1.86H588v-1.86Zm27.54,4H560.49v1.92H588Zm-27.54,6H588v-2H560.49Zm0,4.14H588v-2.1H560.49Zm41.7,27.3v2.52H575.31v-2.52h2.16v-16.5h7.92c.18-.77.42-1.62.6-2.46H574.83v-2.4h11.7l.54-2.64,3.42.31c-.12.77-.3,1.55-.48,2.33h10.86v2.4H589.41c-.24.84-.48,1.69-.72,2.46h9.54v16.5Zm-20.94-14.4v1.92h13v-1.92Zm13,4h-13v2h13Zm-13,6.18h13v-2.16h-13Zm0,4.2h13v-2.16h-13Z"/><path d="M660.75,1856.42v4h-53v-4h29a198.72,198.72,0,0,0,9.12-29.27l4.56.84c-2.64,9-6.18,20.69-9.42,28.43Zm-2.34-32.75H610.23v-4h48.18Zm-33.9,30c-.9-7-3.54-17.58-5.82-25.55l4-.9a209.86,209.86,0,0,1,6,25.43Zm8.58-34.85a61.85,61.85,0,0,0-2.94-9.66l3.84-1.08a70.16,70.16,0,0,1,3.12,9.54Z"/><path d="M683.25,1809c-1,2.94-2.1,6.3-3.18,8.88h10.14v38.75h-16.8v4.8h-3.66v-43.55h6.66a64.68,64.68,0,0,0,2.58-9.72Zm3.3,12.47H673.41v13.08h13.14Zm0,31.56v-14.88H673.41v14.88Zm33.06-33.17c-1,27.53-1.8,36.71-4.2,39.59a5.6,5.6,0,0,1-4.56,2.28,74.94,74.94,0,0,1-8.82-.12,9.42,9.42,0,0,0-1.32-3.9c3.9.36,7.5.36,8.82.36s1.92-.12,2.52-.9c2-2.1,2.94-11.34,3.72-35.7H700.05a55.33,55.33,0,0,1-5.64,10.68,36.22,36.22,0,0,0-3.36-2.22c4.08-5.33,7.32-13.61,9.18-21.89l3.84.84c-.78,3-1.62,6-2.64,8.88h18.18Zm-12.78,27a106.51,106.51,0,0,0-9.3-13.92l3.06-1.79a102.47,102.47,0,0,1,9.6,13.61Z"/><path d="M781.59,1832.91v4.31H727.11v-4.31Z"/><path d="M806.25,1847.48c-6.3,2.64-13.14,5.34-18.36,7.38l-1.26-4c2.28-.78,5.1-1.8,8.22-2.94v-21.17h-7.26V1823h7.26V1809h3.72V1823h6.54v3.78h-6.54v19.79l7-2.64Zm31,11.52c1.68,0,2-.66,2.16-4.62a10.07,10.07,0,0,0,3.18,1.26c-.42,5.28-1.44,6.72-5,6.72H829c-4.56,0-5.76-1-5.76-5.22v-18.36h-4c-1,10.74-3.54,19.62-13.38,24.48a9.45,9.45,0,0,0-2.34-3c8.94-4.08,11.22-12.06,12.12-21.48h-7.74v-24.41H814a36.07,36.07,0,0,0,2.22-6.3l4.2.66c-.9,2-1.74,4-2.64,5.64H839v24.41h-12.3v18.36c0,1.56.36,1.86,2.58,1.86Zm-25.92-34h10.14v-7.26H811.35Zm0,10.43h10.14v-7.25H811.35Zm24.06-17.69H825.09V1825h10.32Zm0,10.44H825.09v7.25h10.32Zm-.18,13.07a56.8,56.8,0,0,1-4.2,9.36l6.36-.66a42.18,42.18,0,0,0-2.34-5l2.16-.84a69.24,69.24,0,0,1,4.08,8.88l-2.22,1.2a20.57,20.57,0,0,0-.72-2c-8.22,1.08-9.6,1.38-10.26,1.74a13.43,13.43,0,0,0-.9-2.76c.66-.06,1.08-.78,1.68-1.86a38.1,38.1,0,0,0,3.66-9.06Z"/><path d="M901,1856.42v3.9h-53.4v-3.9h24.48v-24.78H851.43v-4h20.64v-19.08h4.14v19.08h21v4h-21v24.78Z"/><path d="M926.25,1847.48c-6.3,2.64-13.14,5.34-18.36,7.38l-1.26-4c2.28-.78,5.1-1.8,8.22-2.94v-21.17h-7.26V1823h7.26V1809h3.72V1823h6.54v3.78h-6.54v19.79l7-2.64Zm31,11.52c1.68,0,2-.66,2.16-4.62a10.07,10.07,0,0,0,3.18,1.26c-.42,5.28-1.44,6.72-5,6.72H949c-4.56,0-5.76-1-5.76-5.22v-18.36h-4c-1,10.74-3.54,19.62-13.38,24.48a9.45,9.45,0,0,0-2.34-3c8.94-4.08,11.22-12.06,12.12-21.48h-7.74v-24.41H934a36.07,36.07,0,0,0,2.22-6.3l4.2.66c-.9,2-1.74,4-2.64,5.64H959v24.41h-12.3v18.36c0,1.56.36,1.86,2.58,1.86Zm-25.92-34h10.14v-7.26H931.35Zm0,10.43h10.14v-7.25H931.35Zm24.06-17.69H945.09V1825h10.32Zm0,10.44H945.09v7.25h10.32Zm-.18,13.07a56.8,56.8,0,0,1-4.2,9.36l6.36-.66a42.18,42.18,0,0,0-2.34-5l2.16-.84a69.24,69.24,0,0,1,4.08,8.88l-2.22,1.2a20.57,20.57,0,0,0-.72-2c-8.22,1.08-9.6,1.38-10.26,1.74a13.43,13.43,0,0,0-.9-2.76c.66-.06,1.08-.78,1.68-1.86a38.1,38.1,0,0,0,3.66-9.06Z"/><path d="M973.11,1844c4.68-2,7.26-4.86,7.56-9.17a4,4,0,0,1-1.14.11c-2.34,0-4.26-1.31-4.26-4.07a4,4,0,0,1,4.32-4.08c3.18,0,4.86,2.58,4.86,6.66,0,6.41-4,11.21-10.08,13.43Z"/><path d="M204.27,1893.63a67.67,67.67,0,0,1-5.4,8.45v33.18h-3.78v-28.5a55.81,55.81,0,0,1-6,5.94,23.11,23.11,0,0,0-2.4-3.41,57.79,57.79,0,0,0,14-16.92Zm-1.44-11.88a59.41,59.41,0,0,1-13.32,14.1,20,20,0,0,0-2.22-2.82c4.44-3.3,9.42-8.4,11.94-12.66Zm33.42,30.42a34,34,0,0,1-11.58,13.91,56.54,56.54,0,0,0,16.08,5.52,13.63,13.63,0,0,0-2.46,3.48,58.51,58.51,0,0,1-17.16-6.72,63.26,63.26,0,0,1-17.7,6.78,10.39,10.39,0,0,0-2-3.42,62.23,62.23,0,0,0,16.26-5.64,41.7,41.7,0,0,1-7.2-6.54,42.74,42.74,0,0,1-4.86,4.08,25.12,25.12,0,0,0-2.76-2.94,46.2,46.2,0,0,0,5.28-4.08,34,34,0,0,1-2.82-4.38l3.3-1.2a19.06,19.06,0,0,0,2,3.18,40.7,40.7,0,0,0,5.82-7.86c-9,.6-10.5.91-11.64,1.26a33.39,33.39,0,0,0-1.2-3.77c1.62-.19,3.78-1.26,6.6-2.88,1.44-.78,4.38-2.58,7.8-4.87-9.36.49-10.92.73-11.82,1.09a28.56,28.56,0,0,0-1.26-3.84,10.79,10.79,0,0,0,3.9-2.16A67.38,67.38,0,0,0,219.51,1881l3.9,1.8a87.44,87.44,0,0,1-11.7,10.32l11.1-.36a87.91,87.91,0,0,0,8.22-6.6l3.66,2.1a135.45,135.45,0,0,1-22.44,15l20.1-1.08c-1.5-1.87-2.94-3.72-4.38-5.29l3.06-1.61a90.33,90.33,0,0,1,10,13l-3.24,1.92c-.78-1.38-2-3.12-3.24-5-5.58.35-10.14.66-13.68.83a52.18,52.18,0,0,1-3,5h15.18l.72-.18Zm-20.94,2.21a33.51,33.51,0,0,1-2.34,2.76,40,40,0,0,0,8.16,6.9,31.13,31.13,0,0,0,9.72-9.66Z"/><path d="M260.79,1880.49h3.72V1935h-3.72V1913.9h-7v1.68c0,5.28-.72,13.56-4.32,19.56a11.85,11.85,0,0,0-3.06-2c3.3-5.46,3.78-12.9,3.78-17.64v-1.56h-3.3v-3.54h13.86v-9.18H249.51v-18.47h3.54v14.94h7.74Zm38.58,6.06c-5.34,12.9-18.06,20.33-30.54,23.75a14,14,0,0,0-2-3,51,51,0,0,0,18.48-8.46,48.08,48.08,0,0,0-7.86-8.33,64.83,64.83,0,0,1-9.12,5.16,24.39,24.39,0,0,0-2.52-2.46c7.26-3,14-8,17.46-12.9l3.78,1.2a29.92,29.92,0,0,1-3.48,4h12.72l.66-.18Zm2.1,28h-8v15c0,2.34-.48,3.48-2.22,4.14s-4.62.72-9.48.72a12.19,12.19,0,0,0-1.26-3.78c3.72.12,7,.06,7.92,0s1.26-.24,1.26-1.08v-15H266.55V1911h23.16v-8.69h3.78V1911h8Zm-21.48-15c-4.5.6-8.7,1.14-12.36,1.61l-.72-3c3.48-.3,7.92-.9,12.9-1.44Zm-5.82,16.73a49,49,0,0,1,8.1,9.66l-3.24,2.1a48,48,0,0,0-7.92-9.9Zm5.94-27.83-.24.18a47.92,47.92,0,0,1,8,8,32.1,32.1,0,0,0,6.6-8.22Z"/><path d="M361,1928.42v3.9h-53.4v-3.9h24.48v-24.78H311.43v-4h20.64v-19.08h4.14v19.08h21v4h-21v24.78Z"/><path d="M386.25,1919.48c-6.3,2.64-13.14,5.34-18.36,7.38l-1.26-4c2.28-.78,5.1-1.8,8.22-2.94v-21.17h-7.26V1895h7.26V1881h3.72V1895h6.54v3.78h-6.54v19.79l7-2.64Zm31,11.52c1.68,0,2-.66,2.16-4.62a10.07,10.07,0,0,0,3.18,1.26c-.42,5.28-1.44,6.72-5,6.72H409c-4.56,0-5.76-1-5.76-5.22v-18.36h-4c-1,10.74-3.54,19.62-13.38,24.48a9.45,9.45,0,0,0-2.34-3c8.94-4.08,11.22-12.06,12.12-21.48h-7.74v-24.41H394a36.07,36.07,0,0,0,2.22-6.3l4.2.66c-.9,2-1.74,4-2.64,5.64H419v24.41h-12.3v18.36c0,1.56.36,1.86,2.58,1.86Zm-25.92-34h10.14v-7.26H391.35Zm0,10.43h10.14v-7.25H391.35Zm24.06-17.69H405.09V1897h10.32Zm0,10.44H405.09v7.25h10.32Zm-.18,13.07a56.8,56.8,0,0,1-4.2,9.36l6.36-.66a42.18,42.18,0,0,0-2.34-5l2.16-.84a69.24,69.24,0,0,1,4.08,8.88l-2.22,1.2a20.57,20.57,0,0,0-.72-2c-8.22,1.08-9.6,1.38-10.26,1.74a13.43,13.43,0,0,0-.9-2.76c.66-.06,1.08-.78,1.68-1.86a38.1,38.1,0,0,0,3.66-9.06Z"/><path d="M443.25,1881c-1,2.94-2.1,6.3-3.18,8.88h10.14v38.75h-16.8v4.8h-3.66v-43.55h6.66a64.68,64.68,0,0,0,2.58-9.72Zm3.3,12.47H433.41v13.08h13.14Zm0,31.56v-14.88H433.41v14.88Zm33.06-33.17c-1,27.53-1.8,36.71-4.2,39.59a5.6,5.6,0,0,1-4.56,2.28,74.94,74.94,0,0,1-8.82-.12,9.42,9.42,0,0,0-1.32-3.9c3.9.36,7.5.36,8.82.36s1.92-.12,2.52-.9c2-2.1,2.94-11.34,3.72-35.7H460.05a55.33,55.33,0,0,1-5.64,10.68,36.22,36.22,0,0,0-3.36-2.22c4.08-5.33,7.32-13.61,9.18-21.89l3.84.84c-.78,3-1.62,6-2.64,8.88h18.18Zm-12.78,27a106.51,106.51,0,0,0-9.3-13.92l3.06-1.79a102.47,102.47,0,0,1,9.6,13.61Z"/><path d="M512.79,1907.42V1935h-3.9v-27.54H498.63c-.18,10.08-1.74,20-8.88,27.9a15.89,15.89,0,0,0-2.94-2.7c6.54-7.2,7.86-16.14,8.1-25.2H487v-3.71h8v-15.9h-7.08v-3.72h30.66v3.72h-5.76v15.9h6.54v3.71Zm-3.9-3.71v-15.9h-10.2v15.9Zm33.18,11.69c-5,8.16-13.68,15.36-23,19.62a14.41,14.41,0,0,0-2.82-3.24c9-3.66,17.58-10.38,22.08-17.82Zm-3.24-32.51c-4.32,5.46-11.16,10.74-17.16,14a15.73,15.73,0,0,0-2.88-2.75c5.76-2.88,12.6-8,16.32-12.78Zm1.8,16.37a65.72,65.72,0,0,1-18.42,15.12,20.87,20.87,0,0,0-2.82-2.82c6.18-3.12,13.5-8.64,17.58-13.79Z"/><path d="M562.11,1880.31h3.78v54.59h-3.78v-21h-6.36v2c0,5-1,12.6-5.76,17.76a26.76,26.76,0,0,0-3.12-1.86c4.44-4.86,5.22-11.64,5.22-16v-1.86h-4.8v-3.6h14.82v-8.93H549.63v-18.48h3.66v14.88h8.82Zm24.12,21.84c.9,8.57,3.84,22.79,15.78,29.39a15,15,0,0,0-3,3.18c-9.18-5.34-13.14-15.3-15.06-23.94a37.33,37.33,0,0,1-15.3,24.3,12.76,12.76,0,0,0-2.7-3c11.76-8.64,14.58-19.62,15.18-29.93h-13.2v-4h13.32v-17.82h3.84v17.82h16.2v4Zm10.32-7.44c-1.44-2.94-5-7.5-8-10.8l3.12-1.62a57.74,57.74,0,0,1,8.28,10.62Z"/><path d="M616,1887.69a34.23,34.23,0,0,1-6.18,7.08,30.05,30.05,0,0,0-2.82-2.58,33.74,33.74,0,0,0,9.3-12.24l3.6,1c-.54,1.2-1.14,2.34-1.74,3.48H634l.06,3.3H622a50.89,50.89,0,0,1,5.1,5l-2.64,2.27a49.92,49.92,0,0,0-5.34-5.63l2.34-1.68Zm-1.86,23V1935h-3.66v-39.47h20.7v15.18Zm0-12.48v3.53h13.38v-3.53Zm13.38,9.77v-3.59H614.13V1908Zm17.82,22.14H627v2.16h-3.66v-18.42h22ZM627,1916.54v4.14h14.76v-4.14Zm14.76,10.92v-4.2H627v4.2Zm19.62-43v3.24h-20a31.81,31.81,0,0,1-5.46,6.84,22.42,22.42,0,0,0-3.12-2.4,28,28,0,0,0,8.1-12.18l3.66.9a26.49,26.49,0,0,1-1.44,3.6Zm-3.42,45.77c0,2.34-.54,3.48-2.16,4.08s-4.62.72-9.12.66a12.3,12.3,0,0,0-1.26-3.6c3.48.12,6.66.12,7.56.06s1.26-.3,1.26-1.2v-19.55h-17.7v-15.18h21.42Zm-17.76-32v3.53h14v-3.53Zm14,9.77v-3.59h-14V1908Zm-3.42-12.71a38,38,0,0,0-5.64-5.46l2.58-2.1a42.2,42.2,0,0,1,5.76,5.16Z"/><path d="M687,1881.75a92,92,0,0,1-6.12,11.52V1935h-3.78v-36.23a67.54,67.54,0,0,1-8.58,9.65,38.46,38.46,0,0,0-2.28-3.9c6.66-5.7,13.14-14.69,17-24Zm25.68,47.45c3.42,0,3.9-2.7,4.38-13a8.92,8.92,0,0,0,3.72,1.8c-.66,11.1-1.8,14.88-8,14.88H701.19c-5.7,0-7.44-1.68-7.44-7.68v-43.91h3.84v16.5H719v3.84H697.59v23.69c0,3.18.72,3.9,3.84,3.9Z"/><path d="M780,1912.17s-.06,1.19-.12,1.73c-1.14,12.66-2.28,17.64-4.14,19.56a5.52,5.52,0,0,1-4,1.56,66.58,66.58,0,0,1-7.5-.12,9.39,9.39,0,0,0-1.2-3.66c3.12.3,6.06.3,7.2.3a3,3,0,0,0,2.22-.54c1.26-1.32,2.4-5.34,3.36-15.3H738.27a59.21,59.21,0,0,1-9.66,7.32,19.86,19.86,0,0,0-2.22-3.3c10.26-6,17.82-15.18,23.1-25.43h-20v-3.66h21.72a82.29,82.29,0,0,0,3.84-10.32l3.9,1a92.32,92.32,0,0,1-3.54,9.3h15.78c-.72,3.48-1.56,7.62-2.34,10.74h7c-.66,3.47-1.5,7.67-2.28,10.8Zm-49.38,20.33c3.42-3.24,5.7-8.58,7-13.2l3.3,1.08c-1.44,4.92-3.54,10.62-7.14,14.16ZM743,1890.33a39,39,0,0,0-6-8.34l3.42-1.44a39.57,39.57,0,0,1,6.18,8Zm26.82,21.84c.54-2.11,1.08-4.69,1.56-7.21H747.57a75.18,75.18,0,0,1-5.76,7.21Zm-21.48,7.91a44,44,0,0,1,1.8,11.88l-3.48.54a39.57,39.57,0,0,0-1.62-11.94Zm5.4-25.79c-1.14,2.4-2.46,4.79-3.84,7.08h15.24c.54-2,1.14-4.62,1.62-7.08Zm3.18,25a43,43,0,0,1,3.6,10.26l-3.3.9a45.91,45.91,0,0,0-3.42-10.44Zm10.32,8a38.83,38.83,0,0,0-4.56-8.1l2.76-1.08a34.18,34.18,0,0,1,4.74,7.86Z"/><path d="M841.59,1904.91v4.31H787.11v-4.31Z"/><path d="M862.53,1881.63a99.16,99.16,0,0,1-4.86,11.64V1935h-3.84v-34.73a68.26,68.26,0,0,1-6.12,8.46,21.26,21.26,0,0,0-2.22-4c5.46-5.88,10.32-14.94,13.32-24.12Zm37,2.46v50.33h-3.78v-3.06H868.53v3.54h-3.72v-50.81Zm-3.78,43.73v-40.25H868.53v40.25Zm-11.82-28.13v6.83H891v16H873.81v-16h6.78v-6.83h-9.42v-3.19h9.42v-6.83h3.3v6.83h9.66v3.19Zm3.9,9.89H876.93v9.9h10.86Z"/><path d="M961.11,1906.83H936.39V1935h-4.2v-28.13H907.71v-4.08h24.48v-22.32h4.2v22.32h24.72Z"/><path d="M1019.85,1916.36H996.27V1930c0,2.46-.66,3.6-2.64,4.26s-5,.72-10,.72a15.33,15.33,0,0,0-1.74-4c4.08.12,7.86.12,8.88.06s1.38-.3,1.38-1.14v-13.56H968.55v-3.78h23.58v-3.83a54.14,54.14,0,0,0,11-7.38H978.33v-3.79h28.86l.9-.24,2.7,2a61.7,61.7,0,0,1-14.52,10.8v2.4h23.58Zm-46.62-17.63h-3.9v-12h23.76a34.08,34.08,0,0,0-3.24-5.52l3.84-1.26a35.67,35.67,0,0,1,4.08,6.78h21.36v12h-4.08v-8.22H973.23Z"/><path d="M1039.41,1898.67a9.06,9.06,0,1,1-9.06,9A9.09,9.09,0,0,1,1039.41,1898.67Zm0,15.23a6.18,6.18,0,0,0,0-12.36,6.18,6.18,0,0,0,0,12.36Z"/><path d="M491.13,1969.17c4.44,10.31,12.24,20,20.76,24.71a23.11,23.11,0,0,0-3.06,3.36c-9-5.58-16.92-16.32-21.6-28.07h-1v22.43h14.28v4H486.27V2007h-4.14v-11.4H467.91v-4h14.22v-22.43h-1.08c-4.74,11.75-12.66,22.43-21.3,28.25a24.18,24.18,0,0,0-2.88-3.18c8-4.92,15.66-14.76,20.16-25.07H458.37v-4h23.76v-12.72h4.14v12.72h24v4Z"/><path d="M566.13,1991.54a33.64,33.64,0,0,1-8.22,7.38c2.4,2.82,5.22,4.44,8.16,4.38,1.68-.06,2.16-1.5,2.46-5.94a10.31,10.31,0,0,0,3.12,1.62c-.6,6.3-2.1,7.92-5.76,8-4.26,0-8.16-2.22-11.28-6a74.41,74.41,0,0,1-13.68,5.82,36.46,36.46,0,0,0-2.1-3.24,65.61,65.61,0,0,0,13.86-5.34,34.94,34.94,0,0,1-3.84-8.82H534.39v4.38l11.16-1-.06,2.88-11.1,1.08v6.12c0,2.1-.48,3.06-2.16,3.54s-4.38.54-8.94.54a19.42,19.42,0,0,0-1.26-3.18c3.36.12,6.48.06,7.38,0s1.2-.24,1.2-1v-5.7c-4.74.48-9.12.9-12.72,1.2l-.42-3.3c3.54-.24,8.1-.54,13.14-1v-4.68h-12.9v-3.18h12.9v-4.44c-3.78.42-7.68.72-11.28.91a12,12,0,0,0-.9-2.71c8.16-.48,18.18-1.55,23.52-2.94l2.52,2.58c-2.82.66-6.36,1.26-10.08,1.74v4.86h13.68a52.67,52.67,0,0,1-1.2-8.94h3.84a57.48,57.48,0,0,0,1.2,8.94h19v3.18H552.81a31.91,31.91,0,0,0,3.12,6.9,27.09,27.09,0,0,0,6.72-5.94Zm4.62-15.17h-53v-3.24h24.36V1969h-18.6v-3.06h18.6v-4H520.29v-3.18H533a30,30,0,0,0-3.48-5.16l3.42-1.26a24.4,24.4,0,0,1,4.32,6.24l-.42.18h14.64a54.7,54.7,0,0,0,3.6-6.6l4.14,1.2c-1.2,1.86-2.52,3.84-3.72,5.4h12.84V1962H546.15v4h18.9V1969h-18.9v4.14h24.6Zm-5.7,9a34,34,0,0,0-9.48-5.52l2.16-2.46a38.32,38.32,0,0,1,9.66,5.22Z"/><path d="M606.69,2001.62a70.7,70.7,0,0,0,7.38.36c2.1.06,14.76,0,17.58-.06a16.36,16.36,0,0,0-1.44,3.84H614c-12.3,0-19.92-1.92-24.72-10.38a31.55,31.55,0,0,1-9.48,11.7,19.84,19.84,0,0,0-3.06-2.82c6.3-4.14,10.2-10.92,11.82-19.86l4,.6a55.92,55.92,0,0,1-1.5,6.06c2.34,5.64,6.3,8.52,11.7,9.84v-18.54H578v-3.6h52.68v3.6H606.69v7.08h20v3.6h-20Zm17.22-27.17h-39.6v-19.56h39.6Zm-4-16.44H588.21v5.16h31.68Zm0,8.1H588.21v5.27h31.68Z"/><path d="M691,2000.42v3.9h-53.4v-3.9h24.48v-24.78H641.43v-4h20.64v-19.08h4.14v19.08h21v4h-21v24.78Z"/><path d="M708.63,1988.48c2.46-1.08,5-2.16,7.5-3.24l.84,3.54c-6.6,3-13.5,6.12-18.9,8.46l-1.5-4c2.28-.84,5.1-2,8.22-3.24v-19.5H697v-3.77h7.8V1953h3.84v13.74h7.2v3.77h-7.2ZM751,2002.64H724.53V2007h-3.78v-35.57a41.32,41.32,0,0,1-4.14,5.22,18,18,0,0,0-2.46-2.88c5.1-5.52,9.36-14.16,11.46-21.06l3.9,1a93.39,93.39,0,0,1-4,9.42h24.72v3.66H738.69v8h10v3.66h-10v8.16h10v3.66h-10v8.64H751Zm-16.08-35.81H724.53v8h10.38Zm0,11.63H724.53v8.16h10.38Zm-10.38,20.46h10.38v-8.64H724.53Zm12.66-35.81a47.68,47.68,0,0,0-4.08-8.88l3.3-1.38a41.73,41.73,0,0,1,4.32,8.7Z"/><path d="M769.41,1970.67a9.06,9.06,0,1,1-9.06,9A9.09,9.09,0,0,1,769.41,1970.67Zm0,15.23a6.18,6.18,0,1,0,0-12.36,6.18,6.18,0,1,0,0,12.36Z"/><path d="M456.93,2054.06s-.06,1.32-.12,1.86c-1.08,13.56-2.1,18.84-4.08,20.82-1.26,1.32-2.46,1.68-4.56,1.8a90.37,90.37,0,0,1-9.48-.18,8,8,0,0,0-1.44-4c4,.36,8,.36,9.48.36s2-.06,2.58-.6c1.5-1.2,2.4-5.7,3.3-16.32h-22.8c1.14-4.56,2.46-11.63,3.24-17.09h19.68v-10.08h-22v-3.78h25.92v17.58h-20.1c-.6,3.3-1.2,6.72-1.86,9.65Zm18.36-29.15V2079h-4v-54.11Z"/><path d="M537.51,2032.23v33.29h-4.08v-3.18H516.15v16.5H512v-16.5h-16.8v3.54h-4v-33.65H512v-7.92h4.14v7.92Zm-42.3,3.84v9.18H512v-9.18Zm16.8,22.49V2049h-16.8v9.6Zm4.14-22.49v9.18h17.28v-9.18Zm17.28,22.49V2049H516.15v9.6Z"/><path d="M598.35,2056a100.84,100.84,0,0,1-11.7,8.58,36.22,36.22,0,0,0,15.3,8.76,24.16,24.16,0,0,0-2.64,3.48c-12.3-4.08-20.82-13.2-25.38-25.61h-.18a53.79,53.79,0,0,1-9.6,8V2073l14.88-4.5a18.38,18.38,0,0,0,.6,3.42c-16.62,5.4-18.66,6.12-20,7a14.6,14.6,0,0,0-1.74-3.66,3.9,3.9,0,0,0,2.16-3.78v-9.72a71.36,71.36,0,0,1-10.68,5.1,19.48,19.48,0,0,0-2.64-3.24,62.5,62.5,0,0,0,21.9-12.41H548.43v-3.54h23.7v-5.64H553.77v-3.36h18.36v-5.4H550.77v-3.48h21.36v-5.52h4v5.52h22v3.48h-22v5.4h19.32v3.36H576.15v5.64H600v3.54H577.77a38.86,38.86,0,0,0,6.6,11,80.68,80.68,0,0,0,10.74-8.46Z"/><path d="M622.47,2054.78a58,58,0,0,1-12.06,19.14,26,26,0,0,0-3.66-2.46,47,47,0,0,0,11.64-17.75Zm13.62-7.91v31.79H632v-31.79H608.07v-4h52.5v4Zm19.2-14.22H613.41v-3.9h41.88Zm-5.16,20.93c4.5,5.58,9.24,13.14,11,18.24l-3.9,1.8c-1.74-5-6.3-12.78-10.8-18.48Z"/><path d="M721,2072.42v3.9h-53.4v-3.9h24.48v-24.78H671.43v-4h20.64v-19.08h4.14v19.08h21v4h-21v24.78Z"/><path d="M745.53,2057.18l.78,3.54c-6.3,2.88-13,5.94-18.24,8.16l-1.5-4c2.28-.9,5.22-2,8.4-3.36v-19h-7.38v-3.77H735V2025h3.72v13.74h6.6v3.77h-6.6v17.52Zm28.08,16.8c3.54,0,4.14-1.62,4.56-8.7a9.15,9.15,0,0,0,3.6,1.56c-.66,8.16-1.92,10.74-8,10.74H758.61c-6.66,0-8.52-1.5-8.52-7.68v-19.49l-5,2.15-1.56-3.48,6.6-2.75v-16.5h3.78v14.88l8.64-3.67v-16.73h3.78v15.18l9.6-4.08,3.06,1-.24.72c-.6,8.46-1.74,19.49-3.24,26.27l-3.24-1a207.74,207.74,0,0,0,2.4-22.43l-8.34,3.54v22.19h-3.78v-20.63l-8.64,3.66V2070c0,3.24.78,4,4.8,4Z"/><path d="M799.41,2042.67a9.06,9.06,0,1,1-9.06,9A9.09,9.09,0,0,1,799.41,2042.67Zm0,15.23a6.18,6.18,0,1,0,0-12.36,6.18,6.18,0,1,0,0,12.36Z"/><path class="cls-1" d="M1157.28,1210.79a27.61,27.61,0,0,0,11.5,8.1,11.65,11.65,0,0,0-2.15,2.55,30.77,30.77,0,0,1-12.8-10.65h-15.95a34.39,34.39,0,0,1-13,11.3,11.43,11.43,0,0,0-2.15-2.55,30.39,30.39,0,0,0,11.6-8.75h-11.1v-2.85h10v-16.15h-7.7V1189h7.7v-5h3.3v5H1155v-5h3.35v5H1166v2.8h-7.65v16.15h9.8v2.85Zm-10,14.5h17.3v2.85H1127v-2.85h16.9v-5.6h-10.45v-2.8h10.45v-4.4h3.35v4.4h10.65v2.8h-10.65Zm-10.8-33.5v3.6H1155v-3.6Zm0,9.8H1155v-3.65h-18.55Zm0,6.35H1155v-3.8h-18.55Z"/><path class="cls-1" d="M1141.48,1252.54s0,1.15,0,1.55c-.6,15.85-1.2,21.2-2.6,23a3.71,3.71,0,0,1-2.8,1.45,32.65,32.65,0,0,1-4.45,0,9.25,9.25,0,0,0-.85-3c1.75.15,3.2.15,3.9.15a1.42,1.42,0,0,0,1.45-.65c1-1.2,1.6-6,2.15-19.35h-6.8c-.55,10-2,18.25-6.45,23.65a9.53,9.53,0,0,0-2.55-2.35c5.45-6.45,5.9-17.85,6.1-31.55h-5.2v-3.1h20.1v3.1h-11.65c0,2.45-.1,4.85-.2,7.15Zm-7.9-10.45a33.47,33.47,0,0,0-4.25-7.15l2.9-1.15a31.92,31.92,0,0,1,4.4,7Zm23.85-7.45a15.26,15.26,0,0,1-.85,2.55c2.65,5.45,7.7,11.35,12.45,14a13,13,0,0,0-2.45,2.75c-4.25-2.7-8.5-8-11.4-13.3a32.61,32.61,0,0,1-11,13.6,12.79,12.79,0,0,0-2.35-2.65c5.85-3.6,10.35-10.2,12.5-17.85Zm-8.3,32.45a74,74,0,0,1,13.6,8.25l-2.25,2.9c-2.85-2.6-8.75-6.3-13.4-8.65Zm9.5-4.85a66.22,66.22,0,0,0-8.6-6.85l2.15-2.2a67.46,67.46,0,0,1,8.75,6.55Z"/><path class="cls-1" d="M1148.83,1284.94c-.35.6-.8,1.15-1.2,1.75,4.95,5.5,13.85,10.9,21.4,13.3a16.56,16.56,0,0,0-2.35,2.9,60.7,60.7,0,0,1-21-13.9,48.65,48.65,0,0,1-12.4,10h25.1v3.1h-11.1v7.05h17.75v3h-17.75v12.7h19.9v3.1h-43v-3.1h19.55v-12.7h-17.35v-3h17.35v-7.05h-10.9v-2.9a58.72,58.72,0,0,1-8.25,3.85,11.79,11.79,0,0,0-2.25-3c9.35-3.1,18.55-9.1,23.3-16.5Zm-15.25,28.65a42.46,42.46,0,0,1,4.8,9.1l-2.9,1.2a40.78,40.78,0,0,0-4.65-9.2Zm18.55,9.3a71.79,71.79,0,0,0,5.35-9.35l3.15,1.25a101.62,101.62,0,0,1-6,9.2Z"/><path class="cls-1" d="M1160.23,1346.09a51.83,51.83,0,0,1-12,19.6,49.94,49.94,0,0,0,20.5,10.5,16.79,16.79,0,0,0-2.25,3,50.92,50.92,0,0,1-20.75-11.1c-5.65,5-12.55,8.6-21,11.3a15.53,15.53,0,0,0-2-3.05c8.35-2.45,15.1-5.9,20.6-10.6a57.05,57.05,0,0,1-12.2-19.65h-7.75v-3.25h44.75v3.25Zm-25.75,0a52.13,52.13,0,0,0,11.3,17.3,47.46,47.46,0,0,0,10.7-17.3Zm11.25-3.55a38.13,38.13,0,0,0-3.8-7.8l3.4-1a39,39,0,0,1,4,7.65Z"/><path class="cls-1" d="M1132.93,423.82c1.25,1.6,4.9,6.7,5.7,8.05l-2,2.45c-.7-1.5-2.35-4.4-3.75-6.65V454h-3.15V429.57c-1.5,5.05-3.5,9.9-5.55,12.85a14.83,14.83,0,0,0-1.75-3.1c2.9-4,5.8-11.5,7.2-18h-6.2v-3.15h6.3v-9.65h3.15v9.65h5.45v3.15h-5.45Zm19.1.7a19.47,19.47,0,0,0,.45,2.65c-10.15,2.7-11.6,3.15-12.5,3.75a12.13,12.13,0,0,0-1.1-3.2c.7-.2,1.55-.5,1.55-2.2v-16.7h3.25v6.5H1152v2.9h-8.35v8.3Zm2.35,5.5-2,3.75h12.65V454h-3.4v-1.75h-17v2h-3.3V433.77h7.9c.55-1.5,1.2-3.25,1.55-4.6Zm7.3,6.5h-17v5.05h17Zm0,13v-5.3h-17v5.3Zm2.25-22.4c1.25,0,1.5-.75,1.65-5.25a9.16,9.16,0,0,0,2.85,1.25c-.3,5.45-1.2,6.95-4.15,6.95h-5.85c-3.65,0-4.55-.95-4.55-4.45V408.87h3.25v6.5h10.2v2.9h-10.2v7.35c0,1.3.25,1.5,1.65,1.5Z"/><path class="cls-1" d="M1167.78,483.87v2.5h-44.15v-2.5h20.25v-3.2H1127v-2.3h16.85v-3h-15.45v-2.25h15.45v-3.2h-20.15v-2.5h20.15v-3.05H1129V462h14.85v-3.55h3.25V462h14.45v5.4h6.15v2.5h-6.15v5.45h-14.45v3h17.3v2.3h-17.3v3.2Zm-37.75,5h31.75v15.25h-3.25v-1.6h-25.3v1.7H1130Zm3.2,2.4v3.2h25.3v-3.2Zm25.3,8.85v-3.4h-25.3v3.4Zm-11.4-32.7h11.15v-3.05h-11.15Zm0,5.7h11.15v-3.2h-11.15Z"/><path class="cls-3" d="M85.07,1475.32l.78,3.54c-6.3,2.88-13,5.94-18.24,8.16l-1.5-4c2.28-.9,5.22-2,8.4-3.36v-19H67.13v-3.78h7.38v-13.74h3.72v13.74h6.6v3.78h-6.6v17.52Zm28.07,16.8c3.54,0,4.14-1.62,4.56-8.7a9.15,9.15,0,0,0,3.6,1.56c-.66,8.16-1.92,10.74-8,10.74H98.14c-6.66,0-8.51-1.5-8.51-7.68v-19.5l-5,2.16L83,1467.22l6.6-2.76V1448H93.4v14.88l8.64-3.66v-16.74h3.78v15.18l9.6-4.08,3.06,1-.24.72c-.6,8.46-1.74,19.5-3.24,26.28l-3.24-1a208,208,0,0,0,2.4-22.44l-8.34,3.54v22.2H102v-20.64l-8.64,3.66v21.18c0,3.24.79,4,4.8,4Z"/><path class="cls-3" d="M155.38,1450.36c-.71,2.64-1.62,5.52-2.46,7.92h24.3v38.88h-4V1494h-39v3.18h-3.9v-38.88h18.6c.71-2.4,1.44-5.34,1.92-7.92H127.55v-3.78h52.61v3.78Zm-21.23,39.9h9V1462h-9Zm26-28.26H146.81v7h13.31Zm0,10.32H146.81v7.2h13.31Zm-13.31,17.94h13.31v-7.44H146.81ZM173.2,1462h-9.42v28.26h9.42Z"/><path class="cls-3" d="M983.32,1223.08v3.9h-53.4v-3.9H954.4V1198.3H933.76v-4H954.4v-19.08h4.14v19.08h21v4h-21v24.78Z"/><path class="cls-3" d="M1008.58,1214.14c-6.3,2.64-13.14,5.34-18.36,7.38l-1.26-4c2.28-.78,5.1-1.8,8.22-2.94v-21.18h-7.26v-3.78h7.26v-13.92h3.72v13.92h6.54v3.78h-6.54v19.8l7-2.64Zm31,11.52c1.68,0,2-.66,2.16-4.62a10.07,10.07,0,0,0,3.18,1.26c-.42,5.28-1.44,6.72-5,6.72h-8.64c-4.56,0-5.76-1-5.76-5.22v-18.36h-4c-1,10.74-3.54,19.62-13.38,24.48a9.45,9.45,0,0,0-2.34-3c8.94-4.08,11.22-12.06,12.12-21.48h-7.74V1181h6.12a36.07,36.07,0,0,0,2.22-6.3l4.2.66c-.9,2-1.74,4-2.64,5.64h21.24v24.42H1029v18.36c0,1.56.36,1.86,2.58,1.86Zm-25.92-34h10.14v-7.26h-10.14Zm0,10.44h10.14v-7.26h-10.14Zm24.06-17.7h-10.32v7.26h10.32Zm0,10.44h-10.32v7.26h10.32Zm-.18,13.08a56.8,56.8,0,0,1-4.2,9.36l6.36-.66a42.18,42.18,0,0,0-2.34-5l2.16-.84a69.24,69.24,0,0,1,4.08,8.88l-2.22,1.2a20.57,20.57,0,0,0-.72-2c-8.22,1.08-9.6,1.38-10.26,1.74a13.43,13.43,0,0,0-.9-2.76c.66-.06,1.08-.78,1.68-1.86a38.1,38.1,0,0,0,3.66-9.06Z"/><path class="cls-3" d="M114.9,1518.51a82.31,82.31,0,0,0,21.76,35.79A88.12,88.12,0,0,0,173,1575.71a79.35,79.35,0,0,0,23.57,3.25c1.92,0,1.93-3,0-3a79.19,79.19,0,0,1-39.25-10,85,85,0,0,1-29.85-27.35,76.67,76.67,0,0,1-9.69-20.86,1.5,1.5,0,0,0-2.89.8Z"/><path class="cls-3" d="M914.7,1247.24c-10.89,18.08-31.25,29.58-52.05,31.58a67.06,67.06,0,0,1-17.84-.63c-1.89-.33-2.7,2.57-.8,2.9a74,74,0,0,0,61.7-18.21,64.49,64.49,0,0,0,11.59-14.12,1.51,1.51,0,0,0-2.6-1.52Z"/><line class="cls-4" x1="293" y1="1579" x2="949" y2="1579"/><path class="cls-4" d="M412.4,1572c12.06-279.78,100.85-497,208.6-497s196.54,217.22,208.6,497"/></svg>