<svg id="Layer_1" data-name="Layer 1" xmlns="http://www.w3.org/2000/svg" viewBox="0 0 1242 2208"><defs><style>.cls-1{fill:#f6eabe;}.cls-2{fill:#999;}.cls-3{fill:#666;}</style></defs><rect class="cls-1" width="1242" height="2208"/><rect class="cls-2" x="1084" y="1259" width="65" height="219" rx="12"/><rect class="cls-2" x="1084" y="458" width="65" height="126" rx="12"/><path d="M930.28,282.92c-87.34,333.48-323.16,510.54-586,585.18-5.56-15.88-19.85-38.91-31-51.61C443.56,783.93,568.21,722,669.85,626.72c-55.58-54-150.07-123.86-235-174.68-31,28.59-62.72,54.79-96.07,77.82-9.53-10.33-32.55-31-46.05-39.7,125.45-77,231.05-202.47,293-348.57l54.79,15.88A906.27,906.27,0,0,1,583.3,267.84H882.64L893,264.66ZM549.16,320.24c-24.61,34.14-50,65.9-77.81,95.28C555.51,464.75,651.58,533,709.55,586.23c65.1-72.25,118.3-161.18,151.65-266Z"/><path d="M417.18,1873.17c-2.58,1.43-5.7,3-8.7,4.37,2.46,5.52,7.32,11.88,14.52,14.94a18.12,18.12,0,0,0-2.64,3.36c-7.5-3.66-12.54-11-15.06-16.86-1.2.54-2.4,1-3.48,1.38,4,7,3.12,13.86-1.14,16.62a9.52,9.52,0,0,1-6.12,1.74c-1.38,0-3.18-.06-5.1-.12a9.28,9.28,0,0,0-1.14-3.66,50.42,50.42,0,0,0,5.58.24,6.85,6.85,0,0,0,4.26-1c2.52-1.68,3.24-6,1.08-10.8-6.84,5.28-17.88,10.08-26.76,12.42a14.51,14.51,0,0,0-2.28-3.06c9.48-2.1,21.24-7,27.54-12.12a25.51,25.51,0,0,0-2.34-3c-5.82,3.9-14.88,7.32-21.9,9.06a15.75,15.75,0,0,0-2.34-2.94c7.38-1.44,16.62-4.68,22.08-8.16a31.09,31.09,0,0,0-3.66-2.88,94,94,0,0,1-15.42,5.64,14.31,14.31,0,0,0-2.28-2.76,84.06,84.06,0,0,0,17.76-5.93H375.78v-9.84c-1.2.84-2.4,1.55-3.72,2.34a14.11,14.11,0,0,0-2.64-2.76c8-4.32,14.16-10.32,17.34-15.24l4.26.84c-.84,1.2-1.68,2.28-2.7,3.48h13.56l.6-.24,2.76,1.8a40.15,40.15,0,0,1-4.8,6.48H416.7v13.14H395c-.72.47-1.5.95-2.28,1.43a28.71,28.71,0,0,1,7.32,6.78,101.21,101.21,0,0,0,13.92-7.13Zm-37.62-6.67H394v-6.83H379.56Zm5.88-14.87a59.64,59.64,0,0,1-5.28,4.86h15.66a38,38,0,0,0,3.84-4.86Zm27.36,8H397.62v6.83H412.8Z"/><path d="M474.9,1892.84c0,3.06-.84,4.38-3,5.1s-6.12.78-12.54.78a22.73,22.73,0,0,0-1.68-4.2c5,.18,9.84.12,11.28.06s1.8-.48,1.8-1.74v-12.6H441.42c-1.5,6.84-4.5,13.62-10.38,18.84a15.14,15.14,0,0,0-3-2.88c9.72-8.64,10.74-20.82,10.74-30.53v-18.12H474.9Zm-4.14-16.5v-10.62h-28a83.2,83.2,0,0,1-.66,10.62Zm-28-24.89V1862h28v-10.5Z"/><path d="M509.82,1879.58c-.6,12.06-3.66,17-18.72,19.5a10.57,10.57,0,0,0-2-3.36c13.8-2,16.14-5.7,16.68-16.14Zm32.46-29.81v3.42h-52.5v-3.42H516a36,36,0,0,0-2.64-4.68l3.9-.9a30.85,30.85,0,0,1,3.18,5.58Zm-51.6,23.15h50.64v10.62H537.6v-7.37H494.34v7.37h-3.66Zm43.32-16v12H498.3v-12Zm-4.14,2.94h-27.6V1866h27.6Zm5.88,34.85c1.8,0,2.1-.9,2.34-6.6a13.07,13.07,0,0,0,3.66,1.5c-.42,6.9-1.56,8.64-5.58,8.64H528c-5,0-6.3-1.2-6.3-5.28v-13.38H526v13.32c0,1.56.36,1.8,2.52,1.8Z"/><path d="M568.86,1883.06c-1.26-1.86-4.08-5.64-6.48-8.52v24.36H558.3v-23.64a61.07,61.07,0,0,1-7.68,7.62,13.85,13.85,0,0,0-2.22-3.66,60.27,60.27,0,0,0,16.38-20.51h-15.3v-3.66h17.28l.78-.18,2.34,1.62a62.93,62.93,0,0,1-7.44,13.43c.6.66,1.32,1.5,2.16,2.41a45.51,45.51,0,0,0,4.86-5.88l2.82,2.27c-1.86,1.92-4,4-5.82,5.64,2.1,2.28,4.14,4.56,4.92,5.46Zm-7.8-28.61a50.51,50.51,0,0,0-5.16-8.4l3.06-1.68a46,46,0,0,1,5.28,8Zm40-2.7c-.84,31-1.68,41.33-4.08,44.33a5.75,5.75,0,0,1-4.5,2.46,63.83,63.83,0,0,1-8.82-.12,10.21,10.21,0,0,0-1.2-3.84c3.78.3,7.14.36,8.52.36a2.7,2.7,0,0,0,2.46-1c2-2.28,2.88-12.48,3.72-40.55H585.06c-1,21.59-3.9,36.17-15.24,45.71a18.44,18.44,0,0,0-3.06-3.06c11-8.4,13.44-22.62,14.22-42.65h-10.2v-3.84h30.3Z"/><path d="M662.82,1872.33H649.74V1899h-4v-26.69h-18.9c-.42,10-2.94,19.73-15.3,26.81a14.83,14.83,0,0,0-2.82-3c11.34-6.36,13.74-15,14.16-23.81H609.3v-3.84h13.62v-13.8c-3.9,1.08-7.86,2.1-11.7,3a11,11,0,0,0-1.38-3.24c9.48-2.16,20.22-5.46,26.1-9.06l3.06,3.24a78.27,78.27,0,0,1-12.12,4.86v15h18.84v-22.92h4v22.92h13.08Z"/><path d="M685,1845c-1,2.94-2.1,6.3-3.18,8.88H692v38.75h-16.8v4.8h-3.66v-43.55h6.66a64.68,64.68,0,0,0,2.58-9.72Zm3.3,12.47H675.18v13.08h13.14Zm0,31.56v-14.88H675.18v14.88Zm33.06-33.17c-1,27.53-1.8,36.71-4.2,39.59a5.6,5.6,0,0,1-4.56,2.28,74.94,74.94,0,0,1-8.82-.12,9.42,9.42,0,0,0-1.32-3.9c3.9.36,7.5.36,8.82.36s1.92-.12,2.52-.9c2-2.1,2.94-11.34,3.72-35.7H701.82a55.33,55.33,0,0,1-5.64,10.68,36.22,36.22,0,0,0-3.36-2.22c4.08-5.33,7.32-13.61,9.18-21.89l3.84.84c-.78,3-1.62,6-2.64,8.88h18.18Zm-12.78,27a106.51,106.51,0,0,0-9.3-13.92l3.06-1.79a102.47,102.47,0,0,1,9.6,13.61Z"/><path d="M754.56,1871.42V1899h-3.9v-27.54H740.4c-.18,10.08-1.74,20-8.88,27.9a15.89,15.89,0,0,0-2.94-2.7c6.54-7.2,7.86-16.14,8.1-25.2h-7.92v-3.71h8v-15.9h-7.08v-3.72h30.66v3.72h-5.76v15.9h6.54v3.71Zm-3.9-3.71v-15.9h-10.2v15.9Zm33.18,11.69c-5,8.16-13.68,15.36-23,19.62a14.41,14.41,0,0,0-2.82-3.24c9-3.66,17.58-10.38,22.08-17.82Zm-3.24-32.51c-4.32,5.46-11.16,10.74-17.16,14a15.73,15.73,0,0,0-2.88-2.75c5.76-2.88,12.6-8,16.32-12.78Zm1.8,16.37A65.72,65.72,0,0,1,764,1878.38a20.87,20.87,0,0,0-2.82-2.82c6.18-3.12,13.5-8.64,17.58-13.79Z"/><path d="M803.88,1844.31h3.78v54.59h-3.78v-21h-6.36v2c0,5-1,12.6-5.76,17.76a26.76,26.76,0,0,0-3.12-1.86c4.44-4.86,5.22-11.64,5.22-16v-1.86h-4.8v-3.6h14.82v-8.93H791.4v-18.48h3.66v14.88h8.82ZM828,1866.15c.9,8.57,3.84,22.79,15.78,29.39a15,15,0,0,0-3,3.18c-9.18-5.34-13.14-15.3-15.06-23.94a37.33,37.33,0,0,1-15.3,24.3,12.76,12.76,0,0,0-2.7-3c11.76-8.64,14.58-19.62,15.18-29.93H809.7v-4H823v-17.82h3.84v17.82h16.2v4Zm10.32-7.44c-1.44-2.94-5-7.5-8-10.8l3.12-1.62a57.74,57.74,0,0,1,8.28,10.62Z"/><path d="M854.88,1880c4.68-2,7.26-4.86,7.56-9.17a4,4,0,0,1-1.14.11c-2.34,0-4.26-1.31-4.26-4.07a4,4,0,0,1,4.32-4.08c3.18,0,4.86,2.58,4.86,6.66,0,6.41-4,11.21-10.08,13.43Z"/><path d="M90.48,1938.8V1971h-3.9V1919h21.54v19.85Zm0-16.73v5.16h13.86v-5.16Zm13.86,13.62v-5.52H90.48v5.52Zm14.4,20.57v13.56H115.2v-13.56h-8.94c-.42,4-2.22,10.44-8.22,14.34a14.83,14.83,0,0,0-2.64-2.4,15.38,15.38,0,0,0,7.32-11.94h-7.8v-3.36h7.86v-6.84H96.12v-3.35h29.7v3.35h-7.08v6.84h8.4v3.36Zm-3.54-3.36v-6.84h-8.88v6.84Zm20.52,12.72c0,2.52-.6,3.84-2.28,4.56s-4.68.72-9.24.72a13,13,0,0,0-1.26-4c3.42.12,6.66.12,7.56.06s1.32-.36,1.32-1.32v-26.75H113.64V1919h22.08Zm-18.24-43.55v5.16h14.34v-5.16Zm14.34,13.68v-5.58H117.48v5.58Z"/><path d="M163.44,1932.75c-.06,6.78-.6,14.88-4.32,22.67a79.79,79.79,0,0,1,7.08,6.78l-2.46,3.18a65.5,65.5,0,0,0-6.48-6.54A41.63,41.63,0,0,1,145.8,1971a11.31,11.31,0,0,0-2.7-2.64,38.25,38.25,0,0,0,11.28-12c-3-2.58-6.24-5.16-9.18-7.32a150.35,150.35,0,0,0,4.2-15.42l-5.58.37-.42-3.72,6.78-.3c1-4.62,1.8-9.36,2.28-13.38l3.66.3c-.54,4-1.38,8.46-2.22,13l5.94-.31v-4.61h3.6v4.44l2.94-.18-.06,3.42Zm-10.38.71c-1.08,5.17-2.4,10.21-3.6,14.29,2.16,1.61,4.5,3.41,6.72,5.21,3.12-7,3.6-14,3.66-19.92Zm35.58-8.39a78.28,78.28,0,0,1,10.2,16.73l-3.42,1.68c-.48-1.19-1.14-2.69-1.92-4.19-22.38,1.62-24.9,1.85-26.52,2.51a26.66,26.66,0,0,0-1.32-3.84c1.14-.24,2.28-1.67,3.84-3.89a100.69,100.69,0,0,0,9.78-17.82l4.08,1.26A122.69,122.69,0,0,1,171.9,1937l19.68-1.2a95.54,95.54,0,0,0-6.06-9.23ZM168.9,1946.9h26.16v23.94h-3.84v-2.46h-18.6V1971H168.9Zm3.72,3.6v14.28h18.6V1950.5Z"/><path d="M258,1953.14v3.72H204.06v-3.72h6.12L209,1921.29a92.86,92.86,0,0,0,11-4.62l2,3.3c-2.76,1.2-6.24,2.4-9.36,3.42l.24,7.32h8.34v3.42h-8.22l.3,7.79h8.1v3.42h-8l.3,7.8H248.4c.12-2.22.3-4.8.42-7.56h-8.16v-3.41h8.28c.12-2.53.24-5.17.3-7.8H241V1931h8.34c.06-2.76.12-5.46.12-8h-8.94v-3.54h12.6c-.06,10.61-.36,25-.9,33.71Zm-32.88,7.32a91.72,91.72,0,0,1-17.82,10.38c-.54-.78-1.62-2.16-2.34-3,5.7-2.4,12.9-6.48,16.68-9.78Zm4.8-21.12a31.15,31.15,0,0,1-3.84,11.4,18.87,18.87,0,0,0-2.82-1.8c1.92-2.64,2.94-6.36,3.48-10.07Zm4.38-3.3h-9.66v-19.31h3.48v5.82h10V1926h-10v6.78h8.16v.06h1.5v16c0,1.74-.36,2.46-1.62,3.06s-3.36.48-6.24.48a10.13,10.13,0,0,0-1.08-2.82,42.8,42.8,0,0,0,4.68.06c.6,0,.78-.24.78-.78Zm4.86,21.84a139.83,139.83,0,0,1,17.46,9.78l-2.58,3a139.2,139.2,0,0,0-17.1-10Z"/><path d="M290,1919.49H275.22v35.15h-4v-38.87H290Z"/><path d="M339.9,1964.84c0,3.06-.84,4.38-3,5.1s-6.12.78-12.54.78a22.73,22.73,0,0,0-1.68-4.2c5,.18,9.84.12,11.28.06s1.8-.48,1.8-1.74v-12.6H306.42c-1.5,6.84-4.5,13.62-10.38,18.84a15.14,15.14,0,0,0-3-2.88c9.72-8.64,10.74-20.82,10.74-30.53v-18.12H339.9Zm-4.14-16.5v-10.62h-28a83.2,83.2,0,0,1-.66,10.62Zm-28-24.89V1934h28v-10.5Z"/><path d="M352,1967.84h14.82v-35.15h4v38.87H352Z"/><path d="M436.62,1952.36H413V1966c0,2.46-.66,3.6-2.64,4.26s-5,.72-10,.72a15.33,15.33,0,0,0-1.74-4c4.08.12,7.86.12,8.88.06s1.38-.3,1.38-1.14v-13.56H385.32v-3.78H408.9v-3.83a54.14,54.14,0,0,0,11-7.38H395.1v-3.79H424l.9-.24,2.7,2a61.7,61.7,0,0,1-14.52,10.8v2.4h23.58ZM390,1934.73h-3.9v-12h23.76a34.08,34.08,0,0,0-3.24-5.52l3.84-1.26a35.67,35.67,0,0,1,4.08,6.78H435.9v12h-4.08v-8.22H390Z"/><path d="M495.6,1965.8c0,2.58-.72,3.84-2.4,4.5s-4.74.78-9.9.78a14.91,14.91,0,0,0-1.5-3.9c3.9.12,7.38.12,8.4.06s1.5-.42,1.5-1.44v-42.53H450.42v47.87h-3.9v-51.65H495.6Zm-9.24-32.39H455.94v-3.48h30.42Zm-23.64,25.31v4.44H459V1940h24v18.77Zm0-15.35v11.93h16.56v-11.93Z"/><path d="M557.94,1965.2v3.72H504v-3.72h25.38v-8.1H510.24v-3.66h19.14v-7.08h4v7.08h18.3v3.66H533.4v8.1Zm-41.4-30.66a19.63,19.63,0,0,1-8.94,14.52,22.86,22.86,0,0,0-2.64-2.76,16.16,16.16,0,0,0,7.8-11.76h-7.44V1931h7.74v-8.58H507.3v-3.54h26.88v3.54h-5.82V1931h7v3.59h-7v13.09h-3.78v-13.09Zm.24-3.59h7.8v-8.58h-7.8V1931Zm26.22,8.69h-3.66v-19.91H543Zm11.28,4c0,2.34-.48,3.36-2.16,4s-4.62.65-8.88.65a13.1,13.1,0,0,0-1.38-3.65,71.49,71.49,0,0,0,7.44,0c1-.07,1.14-.25,1.14-1.09v-26.87h3.84Z"/><path d="M569.88,1952c4.68-2,7.26-4.86,7.56-9.17a4,4,0,0,1-1.14.11c-2.34,0-4.26-1.31-4.26-4.07a4,4,0,0,1,4.32-4.08c3.18,0,4.86,2.58,4.86,6.66,0,6.41-4,11.21-10.08,13.43Z"/><path d="M611,1929.63a67.67,67.67,0,0,1-5.4,8.45v33.18h-3.78v-28.5a55.81,55.81,0,0,1-6,5.94,23.11,23.11,0,0,0-2.4-3.41,57.79,57.79,0,0,0,14-16.92Zm-1.44-11.88a59.41,59.41,0,0,1-13.32,14.1,20,20,0,0,0-2.22-2.82c4.44-3.3,9.42-8.4,11.94-12.66ZM643,1948.17a34,34,0,0,1-11.58,13.91,56.54,56.54,0,0,0,16.08,5.52,13.63,13.63,0,0,0-2.46,3.48,58.51,58.51,0,0,1-17.16-6.72,63.26,63.26,0,0,1-17.7,6.78,10.39,10.39,0,0,0-2-3.42,62.23,62.23,0,0,0,16.26-5.64,41.7,41.7,0,0,1-7.2-6.54,42.74,42.74,0,0,1-4.86,4.08,25.12,25.12,0,0,0-2.76-2.94,46.2,46.2,0,0,0,5.28-4.08,34,34,0,0,1-2.82-4.38l3.3-1.2a19.06,19.06,0,0,0,2,3.18,40.7,40.7,0,0,0,5.82-7.86c-9,.6-10.5.91-11.64,1.26a33.39,33.39,0,0,0-1.2-3.77c1.62-.19,3.78-1.26,6.6-2.88,1.44-.78,4.38-2.58,7.8-4.87-9.36.49-10.92.73-11.82,1.09a28.56,28.56,0,0,0-1.26-3.84,10.79,10.79,0,0,0,3.9-2.16A67.38,67.38,0,0,0,626.28,1917l3.9,1.8a87.44,87.44,0,0,1-11.7,10.32l11.1-.36a87.91,87.91,0,0,0,8.22-6.6l3.66,2.1a135.45,135.45,0,0,1-22.44,15l20.1-1.08c-1.5-1.87-2.94-3.72-4.38-5.29l3.06-1.61a90.33,90.33,0,0,1,10,13l-3.24,1.92c-.78-1.38-2-3.12-3.24-5-5.58.35-10.14.66-13.68.83a52.18,52.18,0,0,1-3,5h15.18l.72-.18Zm-20.94,2.21a33.51,33.51,0,0,1-2.34,2.76,40,40,0,0,0,8.16,6.9,31.13,31.13,0,0,0,9.72-9.66Z"/><path d="M700.56,1948.88c-8.16,12.6-24.3,19.26-45.36,22a14.39,14.39,0,0,0-1.92-3.84c20.52-2.28,36.18-8.22,43.68-19.85Zm-31.92-22A93.67,93.67,0,0,1,658,1946.48c-.78-.48-2.46-1.44-3.48-1.92,4-4.73,7.8-12,10.44-18.59Zm13.5-10.56V1953h-4v-36.65Zm14.52,9.48c4.08,5.82,8.94,13.37,11.22,18.17l-3.42,2a145.38,145.38,0,0,0-11-18.53Z"/><path d="M738.6,1945.64a119.68,119.68,0,0,1-13.44,18.24l30.72-2.22a110.31,110.31,0,0,0-8.46-10.8l3.48-1.62c5.4,5.88,11.28,13.8,14.1,19l-3.78,2.1c-.78-1.56-1.86-3.36-3.06-5.28-32.88,2.64-36.12,2.88-38.34,3.72a18,18,0,0,0-1.32-4c1.26-.18,2.64-1.68,4.38-3.84a100.43,100.43,0,0,0,10.8-15.36H714.36v-4H738.9v-11.7H719v-4H738.9v-9.66H743V1926h20.28v4H743v11.7h24.78v4Z"/><path d="M828.36,1940.91v4.31H773.88v-4.31Z"/><path d="M833.34,1969c1.8-2.82,3.18-7.44,3.84-11.1l2.82,1c-.78,3.78-1.92,8.58-3.78,11.4Zm27.12-13.86h-26.1v-3.24h11.1v-5H835.38v-3.23h10.08v-4.38h-9.54v-20.64H859.2v20.64H849.06v4.38h10.68v3.23H849.06v5h11.4Zm-21.36-18.89h6.78v-14.64H839.1Zm3.18-12.18a40.4,40.4,0,0,1,2,9.12l-2.22.65a37.3,37.3,0,0,0-1.92-9.23Zm2.82,34.55a50.16,50.16,0,0,1,1,10.38l-2.88.36a49.85,49.85,0,0,0-.84-10.44Zm6-.24a41.62,41.62,0,0,1,2.82,9.6l-2.76.6a39,39,0,0,0-2.64-9.66Zm4.8-36.77h-7.2v14.64h7.2Zm-6.12,11.93a84.59,84.59,0,0,0,2.64-9.65l2.46.9c-1.08,3.12-2.28,7-3.24,9.48Zm7.5,24.36a34.6,34.6,0,0,1,4,9.3l-2.76,1a40.62,40.62,0,0,0-3.78-9.42Zm18.12-24.65v11.46H886v26h-3.84v-2.64H866.4V1971h-3.72v-26.21h8.82v-28.26h3.9v13.08h13v3.72Zm6.78,15.17H866.4v16h15.78Z"/><path d="M919,1953.8c-8.34,3.84-17.52,7.86-24.06,10.74l-1.44-4.08c2.34-.9,5.16-2.1,8.28-3.42l-1-37.55,4-.12.9,36c4-1.74,8.22-3.6,12.36-5.46Zm26.64,17c-2.82-4.2-8.58-10.68-13.8-16.14-4.68,7.2-11.4,12.54-21,16.5a31.65,31.65,0,0,0-3.12-3.42c20.88-7.56,27.24-22.14,29.94-48.35l4.32.42c-1.44,13-3.78,23.21-8,31.31,5.46,5.4,11.88,12.24,15.06,16.56Zm-23.22-30.6c-1.56-4.14-5.46-10.25-9.24-14.63l3.42-1.74a56.51,56.51,0,0,1,9.54,14.27Z"/><path d="M969.24,1946.78a58,58,0,0,1-12.06,19.14,26,26,0,0,0-3.66-2.46,47,47,0,0,0,11.64-17.75Zm13.62-7.91v31.79h-4.14v-31.79H954.84v-4h52.5v4Zm19.2-14.22H960.18v-3.9h41.88Zm-5.16,20.93c4.5,5.58,9.24,13.14,11,18.24l-3.9,1.8c-1.74-5-6.3-12.78-10.8-18.48Z"/><path d="M1057.44,1964.36a66.15,66.15,0,0,0,9.78-.6c.18,1.14.48,2.94.72,3.84-1.5.36-5.94.48-10.56.48H1030.5c-9,0-13.32-2.82-13.32-11.16v-34.07h-2.46v-3.6h50.22v3.6h-43.86v34.31c0,5.1,2.46,7.2,8.94,7.2Zm-31.26-20h15.54v15.24h-15.54Zm3.42,12.24h8.58v-9.3h-8.58Zm25.26-16.62h-22.08v-13.07h22.08Zm-4-10.13h-14.34v7.2h14.34Zm11.1,29.75h-16v-15.24h16Zm-3.6-12.3h-9v9.3h9Z"/><path d="M1093.2,1919.31c-3.36,10.26-9.24,18.65-16.38,24.23a26.38,26.38,0,0,0-3.36-2.87c7.2-5,12.66-13,15.6-22.32Zm26.28,19.68s0,1.43-.06,2c-.9,18.6-1.8,25.44-3.84,27.72a6,6,0,0,1-4.56,2,90.37,90.37,0,0,1-9.48-.18,9.12,9.12,0,0,0-1.32-4c4,.36,7.8.42,9.24.42,1.26,0,1.92-.12,2.52-.78,1.56-1.5,2.46-7.62,3.24-23.28h-16.14c-1.56,11.94-5.46,22.86-20.64,28.38a17.07,17.07,0,0,0-2.58-3.42c14.34-4.74,17.58-14.58,19-25h-12.66V1939Zm-7.62-21.54c3.06,9.48,9.6,18.18,17.1,22.5a21.07,21.07,0,0,0-2.88,3.53c-7.32-4.8-13.68-13.19-17.1-22.31h-10.8v-3.72Z"/><path d="M1146.18,1934.67a9.06,9.06,0,1,1-9.06,9A9.09,9.09,0,0,1,1146.18,1934.67Zm0,15.23a6.18,6.18,0,0,0,0-12.36,6.18,6.18,0,0,0,0,12.36Z"/><path d="M312.9,2005.17c4.44,10.31,12.24,20,20.76,24.71a23.11,23.11,0,0,0-3.06,3.36c-9-5.58-16.92-16.32-21.6-28.07h-1v22.43h14.28v4H308V2043H303.9v-11.4H289.68v-4H303.9v-22.43h-1.08c-4.74,11.75-12.66,22.43-21.3,28.25a24.18,24.18,0,0,0-2.88-3.18c8-4.92,15.66-14.76,20.16-25.07H280.14v-4H303.9v-12.72H308v12.72h24v4Z"/><path d="M387.9,2027.54a33.64,33.64,0,0,1-8.22,7.38c2.4,2.82,5.22,4.44,8.16,4.38,1.68-.06,2.16-1.5,2.46-5.94a10.31,10.31,0,0,0,3.12,1.62c-.6,6.3-2.1,7.92-5.76,8-4.26,0-8.16-2.22-11.28-6a74.41,74.41,0,0,1-13.68,5.82,36.46,36.46,0,0,0-2.1-3.24,65.61,65.61,0,0,0,13.86-5.34,34.94,34.94,0,0,1-3.84-8.82H356.16v4.38l11.16-1-.06,2.88-11.1,1.08v6.12c0,2.1-.48,3.06-2.16,3.54s-4.38.54-8.94.54a19.42,19.42,0,0,0-1.26-3.18c3.36.12,6.48.06,7.38,0s1.2-.24,1.2-1v-5.7c-4.74.48-9.12.9-12.72,1.2l-.42-3.3c3.54-.24,8.1-.54,13.14-1v-4.68h-12.9v-3.18h12.9v-4.44c-3.78.42-7.68.72-11.28.91a12,12,0,0,0-.9-2.71c8.16-.48,18.18-1.55,23.52-2.94l2.52,2.58c-2.82.66-6.36,1.26-10.08,1.74v4.86h13.68a52.67,52.67,0,0,1-1.2-8.94h3.84a57.48,57.48,0,0,0,1.2,8.94h19v3.18H374.58a31.91,31.91,0,0,0,3.12,6.9,27.09,27.09,0,0,0,6.72-5.94Zm4.62-15.17h-53v-3.24H363.9V2005H345.3v-3.06h18.6v-4H342.06v-3.18h12.66a30,30,0,0,0-3.48-5.16l3.42-1.26a24.4,24.4,0,0,1,4.32,6.24l-.42.18H373.2a54.7,54.7,0,0,0,3.6-6.6l4.14,1.2c-1.2,1.86-2.52,3.84-3.72,5.4h12.84V1998H367.92v4h18.9V2005h-18.9v4.14h24.6Zm-5.7,9a34,34,0,0,0-9.48-5.52l2.16-2.46a38.32,38.32,0,0,1,9.66,5.22Z"/><path d="M428.46,2037.62a70.7,70.7,0,0,0,7.38.36c2.1.06,14.76,0,17.58-.06a16.36,16.36,0,0,0-1.44,3.84H435.72c-12.3,0-19.92-1.92-24.72-10.38a31.55,31.55,0,0,1-9.48,11.7,19.84,19.84,0,0,0-3.06-2.82c6.3-4.14,10.2-10.92,11.82-19.86l4,.6a55.92,55.92,0,0,1-1.5,6.06c2.34,5.64,6.3,8.52,11.7,9.84v-18.54H399.72v-3.6H452.4v3.6H428.46v7.08h20v3.6h-20Zm17.22-27.17h-39.6v-19.56h39.6Zm-4-16.44H410v5.16h31.68Zm0,8.1H410v5.27h31.68Z"/><path d="M476.16,1989.63a110,110,0,0,1-6.36,13.74v39.53H466v-33.36a63.85,63.85,0,0,1-5.46,6.9,32.24,32.24,0,0,0-2.28-3.84c5.64-5.81,10.92-14.87,14.16-24Zm18.24,21.12a35.7,35.7,0,0,1,1.92,6.17H511v3.42H489.78a54.66,54.66,0,0,1-.78,5.82h19s-.06,1.14-.12,1.68c-.72,8.7-1.56,12.24-2.94,13.62a5.13,5.13,0,0,1-3.6,1.38c-1.38.06-4.14.06-7.08-.12a8,8,0,0,0-1-3.42c2.82.24,5.46.3,6.36.3a2.79,2.79,0,0,0,2-.48c.84-.9,1.5-3.42,2-9.54H488.22c-1.74,6.12-5.22,10.62-12.18,13.56a13.61,13.61,0,0,0-2.4-2.88c9.24-3.6,11.4-10.26,12.12-19.92h-9.9v-3.42h16.32a49,49,0,0,0-1.56-5.58Zm17.7-5.34v9.35h-4v-6H479v6h-3.9v-9.35h10a46.25,46.25,0,0,0-2.1-6.9l3.66-.66a44.37,44.37,0,0,1,2.4,7l-2.34.54h11.58a74.33,74.33,0,0,0,3.06-7.92l4.14.78c-1.08,2.4-2.16,5-3.24,7.14Zm-1.68-8h-33.9V1994h15.9a41.81,41.81,0,0,0-1.56-5.82l3.84-.48a32.51,32.51,0,0,1,1.86,6.3h13.8Z"/><path d="M568,2038.4c1.68,0,2-1,2.16-7.86a10.4,10.4,0,0,0,3.42,1.5c-.42,8-1.44,10-5.22,10H562c-4.26,0-5.28-1.14-5.28-5.34v-15.18h-1.08c-2.46,10-8,17.4-21.78,21.6a12.61,12.61,0,0,0-2.34-3.24c12.6-3.54,17.88-9.84,20.22-18.36H541.14V2007c-.6.61-1.2,1.21-1.8,1.75a12.84,12.84,0,0,0-2.4-2.29v24.78H524.52v4.8h-3.6v-43.25h16v13.08a45.32,45.32,0,0,0,11.88-17.46l4,.6c-.6,1.44-1.26,2.94-2,4.5h10.74l.6-.18,2.46,1.62a54.21,54.21,0,0,1-5.34,8.46h11.7v18.11H560.52v15.18c0,1.5.3,1.74,1.92,1.74Zm-43.5-42.05V2010h8.76v-13.61Zm8.76,31.31v-14.21h-8.76v14.21Zm15.54-30.77a54.13,54.13,0,0,1-4.44,6.48h10.74a46.3,46.3,0,0,0,4.2-6.48Zm3.72,21.17a78.62,78.62,0,0,0,1.14-11.22h-9.06v11.22Zm5-11.22a102.43,102.43,0,0,1-1.14,11.22h10.74v-11.22Z"/><path d="M625.56,1992.51V2042h-4.14v-3.6H591v3.9h-4.08v-49.79Zm-34.56,4v16.73h30.42v-16.73Zm30.42,37.91v-17.22H591v17.22Z"/><path d="M649,2021.18c-2.28-1.55-6.78-4.26-10.2-6l2.28-2.71c3.36,1.75,7.92,4.14,10.32,5.71Zm4-24.89H639.84v-3.6H653v-4.32h3.9v4.32h7.62v3.6h-7.62v5.28H653Zm-13,43.43a155.45,155.45,0,0,0,11.88-15.36l2.46,2.82a185.5,185.5,0,0,1-11.4,15.54Zm5.22-38.75,10.14,5.94-2.34,3c-2.34-1.45-7-4.33-10.2-6.3Zm44,4.49a38.06,38.06,0,0,1-11,10.92,71.08,71.08,0,0,0,16,5.76,15.49,15.49,0,0,0-2.46,3.42,73.25,73.25,0,0,1-17-7.08,76.11,76.11,0,0,1-18.42,7.32,14.62,14.62,0,0,0-2-3.24,70.16,70.16,0,0,0,17-6.18,52.07,52.07,0,0,1-7.5-6.17,59.92,59.92,0,0,1-7,6.12,10.76,10.76,0,0,0-2.82-2.41,46.42,46.42,0,0,0,13.62-14.39l3.9.72c-.72,1.25-1.62,2.46-2.52,3.78h17l.66-.18Zm-28.62,19.86h27.18V2043h-4v-2.58H664.38V2043h-3.84Zm3.84,3.24v8.64h19.38v-8.64Zm1.56-20.81a44.41,44.41,0,0,0,8.7,6.71,36,36,0,0,0,8.64-7.25H666.42Zm8.94-11.52h-7.26v-3.6h7.26v-4.26h3.9v4.26H692v3.6h-13.2v5.34h-3.9Z"/><path d="M744.9,2036.84c0,3.06-.84,4.38-3,5.1s-6.12.78-12.54.78a22.73,22.73,0,0,0-1.68-4.2c5,.18,9.84.12,11.28.06s1.8-.48,1.8-1.74v-12.6H711.42c-1.5,6.84-4.5,13.62-10.38,18.84a15.14,15.14,0,0,0-3-2.88c9.72-8.64,10.74-20.82,10.74-30.53v-18.12H744.9Zm-4.14-16.5v-10.62h-28a83.2,83.2,0,0,1-.66,10.62Zm-28-24.89V2006h28v-10.5Z"/><path d="M809.4,2018.13v24.77h-4.32v-3.48H762.66v-21.29H767v17.39h16.8v-21.3H765.24v-20.33h4.14v16.44h14.4v-22h4.32v22h14.64v-16.5h4.32v20.39h-19v21.3h17v-17.39Z"/><path d="M867.6,2002.11c-7.38,10.91-20.82,23.51-33.18,31,.6.42,1.26.84,1.92,1.32,3.78,2.4,8.64,2.82,15.36,2.82,7.14,0,16-.48,21.72-1a17.18,17.18,0,0,0-1.14,4.26c-4.5.3-15,.66-20.7.66-7.26,0-12.18-.66-16.14-3.24-2.4-1.5-4.26-3.48-5.58-3.48-1.92,0-4.74,3.42-7.68,7.38l-3-3.6c4-4.26,7.74-7.5,10.74-7.5a4.63,4.63,0,0,1,.9.12c11-6.36,23.22-17.39,30-26.63H822.3v-3.9h41.46l.84-.24ZM847.5,2000a70.73,70.73,0,0,0-6.3-10l3.48-1.8a70.87,70.87,0,0,1,6.42,9.78Z"/><path d="M897.6,2031.26h-13V2036H880.8v-43.67h16.8Zm-13-35.27v13.73h9.24V1996Zm9.24,31.61v-14.27h-9.24v14.27Zm24-28.31v8.09h13.32V2011h-5.4v6.89h7.2v3.54h-7.2v16.68c0,2.4-.6,3.54-2.34,4.14s-4.74.72-9.66.72a16.74,16.74,0,0,0-1.32-3.78c3.78.12,7.2.12,8.16.06s1.26-.3,1.26-1.2v-16.62H899v-3.54h22.86V2011h-20.4v-3.61h12.48v-8.09H898.68v-3.6h15.24v-7.32h3.9v7.32h15.3v3.6Zm-11.76,24.47a51.18,51.18,0,0,1,7.86,10.32l-3.42,2.16a54.79,54.79,0,0,0-7.68-10.56Z"/><path d="M951.18,2006.67a9.06,9.06,0,1,1-9.06,9A9.09,9.09,0,0,1,951.18,2006.67Zm0,15.23a6.18,6.18,0,1,0,0-12.36,6.18,6.18,0,1,0,0,12.36Z"/><path class="cls-1" d="M1128.05,1297.79a27.61,27.61,0,0,0,11.5,8.1,11.65,11.65,0,0,0-2.15,2.55,30.77,30.77,0,0,1-12.8-10.65h-15.95a34.39,34.39,0,0,1-13,11.3,11.43,11.43,0,0,0-2.15-2.55,30.39,30.39,0,0,0,11.6-8.75H1094v-2.85h10v-16.15h-7.7V1276h7.7v-5h3.3v5h18.55v-5h3.35v5h7.65v2.8h-7.65v16.15h9.8v2.85Zm-10,14.5h17.3v2.85H1097.8v-2.85h16.9v-5.6h-10.45v-2.8h10.45v-4.4h3.35v4.4h10.65v2.8h-10.65Zm-10.8-33.5v3.6h18.55v-3.6Zm0,9.8h18.55v-3.65h-18.55Zm0,6.35h18.55v-3.8h-18.55Z"/><path class="cls-1" d="M1112.25,1339.54s0,1.15,0,1.55c-.6,15.85-1.2,21.2-2.6,23a3.71,3.71,0,0,1-2.8,1.45,32.65,32.65,0,0,1-4.45,0,9.25,9.25,0,0,0-.85-3c1.75.15,3.2.15,3.9.15a1.42,1.42,0,0,0,1.45-.65c1-1.2,1.6-6,2.15-19.35h-6.8c-.55,10-2,18.25-6.45,23.65a9.53,9.53,0,0,0-2.55-2.35c5.45-6.45,5.9-17.85,6.1-31.55h-5.2v-3.1h20.1v3.1h-11.65c0,2.45-.1,4.85-.2,7.15Zm-7.9-10.45a33.47,33.47,0,0,0-4.25-7.15l2.9-1.15a31.92,31.92,0,0,1,4.4,7Zm23.85-7.45a15.26,15.26,0,0,1-.85,2.55c2.65,5.45,7.7,11.35,12.45,14a13,13,0,0,0-2.45,2.75c-4.25-2.7-8.5-8-11.4-13.3a32.61,32.61,0,0,1-11,13.6,12.79,12.79,0,0,0-2.35-2.65c5.85-3.6,10.35-10.2,12.5-17.85Zm-8.3,32.45a74,74,0,0,1,13.6,8.25l-2.25,2.9c-2.85-2.6-8.75-6.3-13.4-8.65Zm9.5-4.85a66.22,66.22,0,0,0-8.6-6.85l2.15-2.2a67.46,67.46,0,0,1,8.75,6.55Z"/><path class="cls-1" d="M1119.6,1371.94c-.35.6-.8,1.15-1.2,1.75,4.95,5.5,13.85,10.9,21.4,13.3a16.56,16.56,0,0,0-2.35,2.9,60.7,60.7,0,0,1-21-13.9,48.65,48.65,0,0,1-12.4,10h25.1v3.1h-11.1v7.05h17.75v3H1118.1v12.7H1138v3.1h-43v-3.1h19.55v-12.7h-17.35v-3h17.35v-7.05h-10.9v-2.9a58.72,58.72,0,0,1-8.25,3.85,11.79,11.79,0,0,0-2.25-3c9.35-3.1,18.55-9.1,23.3-16.5Zm-15.25,28.65a42.46,42.46,0,0,1,4.8,9.1l-2.9,1.2a40.78,40.78,0,0,0-4.65-9.2Zm18.55,9.3a71.79,71.79,0,0,0,5.35-9.35l3.15,1.25a101.62,101.62,0,0,1-6,9.2Z"/><path class="cls-1" d="M1131,1433.09a51.83,51.83,0,0,1-12,19.6,49.94,49.94,0,0,0,20.5,10.5,16.79,16.79,0,0,0-2.25,3,50.92,50.92,0,0,1-20.75-11.1c-5.65,5-12.55,8.6-21,11.3a15.53,15.53,0,0,0-2-3.05c8.35-2.45,15.1-5.9,20.6-10.6a57.05,57.05,0,0,1-12.2-19.65h-7.75v-3.25h44.75v3.25Zm-25.75,0a52.13,52.13,0,0,0,11.3,17.3,47.46,47.46,0,0,0,10.7-17.3Zm11.25-3.55a38.13,38.13,0,0,0-3.8-7.8l3.4-1a39,39,0,0,1,4,7.65Z"/><path class="cls-1" d="M1103.7,487.82c1.25,1.6,4.9,6.7,5.7,8.05l-2,2.45c-.7-1.5-2.35-4.4-3.75-6.65V518h-3.15V493.57c-1.5,5.05-3.5,9.9-5.55,12.85a14.83,14.83,0,0,0-1.75-3.1c2.9-4,5.8-11.5,7.2-18h-6.2v-3.15h6.3v-9.65h3.15v9.65h5.45v3.15h-5.45Zm19.1.7a19.47,19.47,0,0,0,.45,2.65c-10.15,2.7-11.6,3.15-12.5,3.75a12.13,12.13,0,0,0-1.1-3.2c.7-.2,1.55-.5,1.55-2.2v-16.7h3.25v6.5h8.35v2.9h-8.35v8.3Zm2.35,5.5-2,3.75h12.65V518h-3.4v-1.75h-17v2h-3.3V497.77h7.9c.55-1.5,1.2-3.25,1.55-4.6Zm7.3,6.5h-17v5.05h17Zm0,13v-5.3h-17v5.3Zm2.25-22.4c1.25,0,1.5-.75,1.65-5.25a9.16,9.16,0,0,0,2.85,1.25c-.3,5.45-1.2,6.95-4.15,6.95h-5.85c-3.65,0-4.55-.95-4.55-4.45V472.87h3.25v6.5h10.2v2.9h-10.2v7.35c0,1.3.25,1.5,1.65,1.5Z"/><path class="cls-1" d="M1138.55,547.87v2.5H1094.4v-2.5h20.25v-3.2H1097.8v-2.3h16.85v-3H1099.2v-2.25h15.45v-3.2H1094.5v-2.5h20.15v-3H1099.8V526h14.85v-3.55h3.25V526h14.45v5.4h6.15v2.5h-6.15v5.45H1117.9v3h17.3v2.3h-17.3v3.2Zm-37.75,5h31.75v15.25h-3.25v-1.6H1104v1.7h-3.2Zm3.2,2.4v3.2h25.3v-3.2Zm25.3,8.85v-3.4H1104v3.4Zm-11.4-32.7h11.15v-3H1117.9Zm0,5.7h11.15v-3.2H1117.9Z"/><path class="cls-3" d="M423.85,1445.85a1.5,1.5,0,0,0,0-3,1.5,1.5,0,0,0,0,3Z"/><path d="M382,1488.76a501.33,501.33,0,0,0,81.87-49.17,564.28,564.28,0,0,0,76.46-67.4A582,582,0,0,0,603.28,1292a541.58,541.58,0,0,0,45.3-85c13.35-31.53,24.29-63.85,31.59-97.34q1.29-5.91,2.44-11.86L645.15,1113c30.44,18.42,60.67,37.33,88.89,59.07l-5.16-4c25.52,19.72,49.41,41.81,69.19,67.37l-4-5.16A270.85,270.85,0,0,1,829,1289.66l-2.57-6.09a219.53,219.53,0,0,1,15.28,54.9l-.91-6.78a183.27,183.27,0,0,1,.11,48.46l.91-6.78c-2.72,19.53-8.61,38.4-16.23,56.55l2.57-6.1A461.45,461.45,0,0,1,804,1471.88a384,384,0,0,1-28.8,44.09l4-5.16a224.45,224.45,0,0,1-40,40.57l5.16-4a222.63,222.63,0,0,1-48.86,28.33l6.09-2.57a248.47,248.47,0,0,1-62.33,16.89l6.78-.91a264.36,264.36,0,0,1-69.63.07l6.78.91a280.23,280.23,0,0,1-71.44-19.83l6.09,2.57a338.6,338.6,0,0,1-74-43.65l5.17,4a409,409,0,0,1-72.87-73.29l4,5.16q-2-2.62-4-5.27a28.49,28.49,0,0,0-15.24-11.72c-6.11-1.68-14.23-.92-19.65,2.57s-10.24,8.74-11.72,15.24c-1.42,6.24-1.46,14.28,2.57,19.65,21.6,28.78,45.75,55.38,73.75,78.08A403.63,403.63,0,0,0,451.26,1596a359.37,359.37,0,0,0,50.62,25,291.91,291.91,0,0,0,101.73,21.37,296.6,296.6,0,0,0,54.62-4,247.09,247.09,0,0,0,46.59-12c34.12-12.53,65.68-31.46,91.28-57.46,27.67-28.11,48.69-62.9,66.23-98,18.54-37.1,32.21-77.08,31.11-119.05-1-39.59-13.31-78.2-32.47-112.67-18.48-33.25-43.86-62.6-72.34-87.67-29.26-25.75-61.58-47.8-94.61-68.37Q682.5,1076,670.89,1069a24.88,24.88,0,0,0-22.7-1.28c-6.81,2.87-13.28,8.89-14.76,16.52a516,516,0,0,1-22.57,80.66q-4.12,11.14-8.73,22.09l2.57-6.09a541.84,541.84,0,0,1-52.16,95.43q-8.77,12.82-18.28,25.13l4-5.16a540.08,540.08,0,0,1-72.71,77.16q-11.37,9.88-23.3,19.12l5.16-4a507.31,507.31,0,0,1-69.79,45.36q-10.53,5.65-21.32,10.79c-5.49,2.61-10.16,9.58-11.72,15.24-1.68,6.1-.92,14.23,2.57,19.65s8.74,10.24,15.24,11.72l6.78.91a25.52,25.52,0,0,0,12.87-3.48Z"/></svg>