<svg id="Layer_1" data-name="Layer 1" xmlns="http://www.w3.org/2000/svg" viewBox="0 0 1242 2208"><defs><style>.cls-1{fill:#f6eabe;}.cls-2{fill:#999;}.cls-3{fill:none;stroke:#000;stroke-linecap:round;stroke-miterlimit:10;stroke-width:50px;}.cls-4{fill:#666;}</style></defs><rect class="cls-1" width="1242" height="2208"/><path d="M829.44,389.32c-30.17,115.13-72.26,208-138.16,281.07,103.22,50,194.53,101.63,262,148.48l-43.67,46c-65.9-48.43-156.42-101.63-260.43-153.24-80.19,71.46-189,120.69-336.65,151.65-6.35-15.88-19.85-37.32-31.76-50.81,135-26.2,236.61-67.49,312-128.63C523,650.54,447.53,618.78,372.1,590.2c31-54,66.69-125.45,99.25-200.88H276.82V333.74H494.37c27.79-69.08,52.41-139,69.88-200.88l55.57,8.73c-15.88,59.55-39.69,127-65.1,192.15H784.18c5.56-23.82,10.32-49.23,15.09-75.43l54.78,14.29c-4,20.65-7.94,41.29-11.91,61.14h131v55.58Zm-297.75,0c-27,64.31-54.78,126.24-80.19,176.27,62.72,24.61,125.45,50.81,185,78.6C700,578.29,742.1,494.13,770.68,389.32Z"/><path d="M447.18,1873.17c-2.58,1.43-5.7,3-8.7,4.37,2.46,5.52,7.32,11.88,14.52,14.94a18.12,18.12,0,0,0-2.64,3.36c-7.5-3.66-12.54-11-15.06-16.86-1.2.54-2.4,1-3.48,1.38,4,7,3.12,13.86-1.14,16.62a9.52,9.52,0,0,1-6.12,1.74c-1.38,0-3.18-.06-5.1-.12a9.28,9.28,0,0,0-1.14-3.66,50.42,50.42,0,0,0,5.58.24,6.85,6.85,0,0,0,4.26-1c2.52-1.68,3.24-6,1.08-10.8-6.84,5.28-17.88,10.08-26.76,12.42a14.51,14.51,0,0,0-2.28-3.06c9.48-2.1,21.24-7,27.54-12.12a25.51,25.51,0,0,0-2.34-3c-5.82,3.9-14.88,7.32-21.9,9.06a15.75,15.75,0,0,0-2.34-2.94c7.38-1.44,16.62-4.68,22.08-8.16a31.09,31.09,0,0,0-3.66-2.88,94,94,0,0,1-15.42,5.64,14.31,14.31,0,0,0-2.28-2.76,84.06,84.06,0,0,0,17.76-5.93H405.78v-9.84c-1.2.84-2.4,1.55-3.72,2.34a14.11,14.11,0,0,0-2.64-2.76c8-4.32,14.16-10.32,17.34-15.24l4.26.84c-.84,1.2-1.68,2.28-2.7,3.48h13.56l.6-.24,2.76,1.8a40.15,40.15,0,0,1-4.8,6.48H446.7v13.14H425c-.72.47-1.5.95-2.28,1.43a28.71,28.71,0,0,1,7.32,6.78,101.21,101.21,0,0,0,13.92-7.13Zm-37.62-6.67H424v-6.83H409.56Zm5.88-14.87a59.64,59.64,0,0,1-5.28,4.86h15.66a38,38,0,0,0,3.84-4.86Zm27.36,8H427.62v6.83H442.8Z"/><path d="M501.6,1863c-2.28,8.69-5.46,15.71-10.44,21.23a153,153,0,0,1,19.8,11.22l-3.3,3.48A137.85,137.85,0,0,0,488,1887.38c-6.06,5.4-14.28,9.12-25.44,11.46a15.22,15.22,0,0,0-2.4-3.84c10.2-2,17.88-5.1,23.58-9.72-5.28-2.52-11-4.92-16.68-7.08a155.81,155.81,0,0,0,7.5-15.17h-14.7v-4.2h16.44a153.86,153.86,0,0,0,5.28-15.18l4.2.66a143.16,143.16,0,0,1-4.92,14.52h17.34c.42-1.8.78-3.72,1.14-5.7l4.14,1.08c-.3,1.56-.6,3.12-.9,4.62h9.9v4.2Zm-22.5,0c-2,4.85-4.14,9.53-6.06,13.31,4.74,1.86,9.48,3.84,14,5.94,4.8-5,8-11.34,10.14-19.25Z"/><path d="M572.94,1875H548.22v18.6c0,2.82-.72,4-2.88,4.68s-5.94.78-11.7.78a17.7,17.7,0,0,0-1.8-4.14c5,.18,9.36.18,10.68.12s1.62-.42,1.62-1.5V1875h-25v-4h25v-8.75a74.47,74.47,0,0,0,15.72-9.84H525.18v-3.9h39l.84-.24,3,2.28a90,90,0,0,1-19.8,13.79V1871h24.72Z"/><path d="M606.54,1863.21v9.47c0,7.68-.9,18.6-5.94,26.1a14.59,14.59,0,0,0-3.06-2.4c4.68-7,5.28-16.68,5.28-23.75v-8.76a38.86,38.86,0,0,1-3.48,4,18.11,18.11,0,0,0-1.74-2.81h-5.82v8.81h7.14v3.48h-7.14v10.92l7.8-2.1.48,3.42c-7.38,2-15.06,4.2-20.76,5.76l-.84-3.66,2.7-.66v-20.1h3.3v19.26l3.78-1v-24.17h-7.08V1847h16.92v16.43a54.07,54.07,0,0,0,11.1-19.37l3.66,1c-.54,1.5-1.08,2.94-1.68,4.38H623l.66-.18,2.58,1.74a66.26,66.26,0,0,1-4.5,8.7h11.76v3.6Zm-12.06-12.78h-9.84v11.15h9.84Zm15.18,2.34a74.78,74.78,0,0,1-3.84,6.84h11.94a40.42,40.42,0,0,0,3.42-6.84Zm17.64,41.39c2.28,0,2.7-1.14,2.94-7.44a9.87,9.87,0,0,0,3.42,1.56c-.48,7.44-1.62,9.42-6.06,9.42H617.46c-5,0-6.48-1.2-6.48-5.82V1868.3h19.08v1.5c0,9.3-.12,12.84-1,13.92a3.44,3.44,0,0,1-2.88,1.38,36.82,36.82,0,0,1-5.7-.06,9.77,9.77,0,0,0-1-3.18c2.28.18,4.26.18,5,.18s1.14-.06,1.44-.48c.48-.66.48-3,.48-9.77H614.7v20c0,1.92.48,2.34,3.12,2.34Z"/><path d="M659.22,1871c-1.86-2.46-5.4-6.35-8.52-9.59a39,39,0,0,1-9.06,12.59,27.49,27.49,0,0,0-3.06-2.82c6.36-5.27,10.44-13.73,12.48-24l4,.66a61.81,61.81,0,0,1-2.88,10.08,116.79,116.79,0,0,1,9.84,10.31Zm33.6,21.84v3.84h-53.4v-3.84H663.9v-12H643.68v-3.78H663.9v-31.91h4v24.53c6.3-4.92,10.32-12.83,12.36-22.37l3.84.66a59,59,0,0,1-3.18,10.44,146.81,146.81,0,0,1,11.7,12.42l-2.82,2.81a125.17,125.17,0,0,0-10.56-11.81,35.13,35.13,0,0,1-8.34,10.8c-.66-.67-2.1-2.11-3-2.83v7.26h20.82v3.78H667.92v12Z"/><path d="M747.6,1858.11c-7.38,10.91-20.82,23.51-33.18,31,.6.42,1.26.84,1.92,1.32,3.78,2.4,8.64,2.82,15.36,2.82,7.14,0,16-.48,21.72-1a17.18,17.18,0,0,0-1.14,4.26c-4.5.3-15,.66-20.7.66-7.26,0-12.18-.66-16.14-3.24-2.4-1.5-4.26-3.48-5.58-3.48-1.92,0-4.74,3.42-7.68,7.38l-3-3.6c4-4.26,7.74-7.5,10.74-7.5a4.63,4.63,0,0,1,.9.12c11-6.36,23.22-17.39,30-26.63H702.3v-3.9h41.46l.84-.24ZM727.5,1856a70.73,70.73,0,0,0-6.3-10l3.48-1.8a70.87,70.87,0,0,1,6.42,9.78Z"/><path d="M784.56,1871.42V1899h-3.9v-27.54H770.4c-.18,10.08-1.74,20-8.88,27.9a15.89,15.89,0,0,0-2.94-2.7c6.54-7.2,7.86-16.14,8.1-25.2h-7.92v-3.71h8v-15.9h-7.08v-3.72h30.66v3.72h-5.76v15.9h6.54v3.71Zm-3.9-3.71v-15.9h-10.2v15.9Zm33.18,11.69c-5,8.16-13.68,15.36-23,19.62a14.41,14.41,0,0,0-2.82-3.24c9-3.66,17.58-10.38,22.08-17.82Zm-3.24-32.51c-4.32,5.46-11.16,10.74-17.16,14a15.73,15.73,0,0,0-2.88-2.75c5.76-2.88,12.6-8,16.32-12.78Zm1.8,16.37A65.72,65.72,0,0,1,794,1878.38a20.87,20.87,0,0,0-2.82-2.82c6.18-3.12,13.5-8.64,17.58-13.79Z"/><path d="M824.88,1880c4.68-2,7.26-4.86,7.56-9.17a4,4,0,0,1-1.14.11c-2.34,0-4.26-1.31-4.26-4.07a4,4,0,0,1,4.32-4.08c3.18,0,4.86,2.58,4.86,6.66,0,6.41-4,11.21-10.08,13.43Z"/><path d="M178.86,1930a35.24,35.24,0,0,1-3.24,3.91,18.48,18.48,0,0,0-2.28-2.76c3.78-3.61,7-9.18,8.94-14.82l3.3.84c-.78,2-1.68,4.14-2.58,6.06h7.44a54.36,54.36,0,0,0-2.76-5.64l3.24-1a56.32,56.32,0,0,1,3.3,6.6h6v2.88H192.9v3.72H199v1.44c3.66-3.73,6.84-9.36,8.88-14.94l3.24.9a48.76,48.76,0,0,1-2.64,6.06h7.44c-.78-1.74-1.8-3.84-2.7-5.52l3.24-.9a58.59,58.59,0,0,1,3.24,6.42h6.9v2.82h-8.4v3.72h7.14v2.76h-7.14v3.71h7.14v2.76h-7.14v3.73h9.36v2.88h-23v-15.6a42.38,42.38,0,0,1-3.48,4.31,29.4,29.4,0,0,0-2-2.39v.54H192.9v3.77H199v2.7H192.9v3.79h8v2.81H178.86Zm42.3,20.88c-3.24,4.92-8.16,8.76-14,11.76a98.38,98.38,0,0,0,20.4,4,16.33,16.33,0,0,0-2.52,3.84A90.47,90.47,0,0,1,202,1965c-8,3.24-17.34,5.1-26.28,6.12a16.6,16.6,0,0,0-1.62-3.66,106.83,106.83,0,0,0,23.22-4.56,40.59,40.59,0,0,1-12.84-9.84l.66-.3h-7.74v-3.36H217.8l.78-.23Zm-31.62-24.77h-7.2v3.72h7.2Zm0,6.42h-7.2v3.77h7.2Zm0,6.47h-7.2v3.79h7.2Zm-.18,13.68a38.38,38.38,0,0,0,13,8.16,35.54,35.54,0,0,0,12.36-8.16Zm25.44-26.57H208v3.72h6.84Zm0,6.48H208v3.71h6.84Zm0,6.47H208v3.73h6.84Z"/><path d="M252.36,1966c0,2.16-.48,3.24-1.8,3.84s-3.66.72-7.5.72a17,17,0,0,0-1.08-3.54c2.82.12,5.22.06,5.94.06s1.08-.3,1.08-1.14v-18.06c-2.34,1.75-4.68,3.42-6.84,5l-1.68-3.29c2.28-1.27,5.28-3.07,8.52-5v-7l-2.28,1.56a56,56,0,0,0-5.82-7.26l2.34-1.56a59.76,59.76,0,0,1,5.76,6.72v-14.82h-8.22v17.46c0,9.11-.6,22.25-4.86,31.37a9.84,9.84,0,0,0-2.82-2.4c3.9-8.52,4.26-20.28,4.26-29v-21.18h15ZM273,1936.53a10.84,10.84,0,0,1-.66,1c4.74,5,10.62,8.22,16.86,10.86a10.27,10.27,0,0,0-2.34,2.94,53.29,53.29,0,0,1-16.26-11.27,39.68,39.68,0,0,1-15.9,11.63,14.68,14.68,0,0,0-2.28-2.82c7.2-2.7,13.86-7.67,17.28-13.5Zm-4-9.54a43.48,43.48,0,0,1-13.62,11.51,10.79,10.79,0,0,0-2.46-2.75,38.15,38.15,0,0,0,13.44-10.14H255.06v-3.36H269v-5.7h3.72v5.7h14.76v3.36h-12a84.3,84.3,0,0,1,12,10.38l-2.58,2.27c-2.52-3-7.62-7.43-12.18-10.91v7.86H269Zm-2,34.37c-3.9,2.22-7.8,4.56-11.16,6.48l-1.74-3c3.06-1.44,7.5-3.84,11.94-6.3Zm-2.94-3.3a34.77,34.77,0,0,0-5.94-6.78l2.46-1.74a33.13,33.13,0,0,1,6.06,6.48Zm5-11.93h3.6v21c0,1.92-.36,2.76-1.8,3.24s-3.48.6-7,.6a14.5,14.5,0,0,0-1.14-3.06c2.52.06,4.74.06,5.4,0s.9-.18.9-.84Zm7.14,12.29a76.61,76.61,0,0,1,11.4,7.74l-2.16,2.64a81.94,81.94,0,0,0-11.34-8.1Zm7.26-6.9a50.84,50.84,0,0,1-7.08,6.6l-2-2.1a47.43,47.43,0,0,0,6.72-6.72Z"/><path d="M310.14,1934h10.74v3.72H310.14v1.62c2.22,2.39,8.7,10,10.14,11.87l-2.46,3.24a129,129,0,0,0-7.68-10.49v26.93h-4v-27.17c-3,7.07-7.2,14.21-11.1,18.41a28.3,28.3,0,0,0-2.22-3.66c4.56-4.62,9.6-13.08,12.36-20.75H294.24V1934h11.88v-10.32c-3.42.54-6.9,1-10.14,1.44a15.29,15.29,0,0,0-1.08-3.18c7.92-1.08,17.52-2.82,22.68-5l2.76,3.12a83.55,83.55,0,0,1-10.2,2.82Zm34.74-12.06V1968h-4v-4.56h-14v5H323v-46.49Zm-4,37.67v-33.83h-14v33.83Z"/><path d="M383.28,1965.38a53.51,53.51,0,0,0,10.62.9c1.8.06,12.24,0,14.64,0a15,15,0,0,0-1.5,3.84H393.72c-12.78,0-22-2.34-27.54-13-2,5.52-5,10.62-9.42,14a20.44,20.44,0,0,0-2.82-2.76c7.26-5.46,10.14-15.66,11-24.3l4.2.48a68.67,68.67,0,0,1-1.44,7.5c2.4,6.6,6.3,10.26,11.46,12.24v-24.83H361.38v-20.1h40.56v20.1H383.28V1949h20.28v3.72H383.28Zm-17.94-29.81H397.8v-12.42H365.34Z"/><path d="M443.94,1950.68c4,9.24,12.18,14.76,24.48,16.74A14.71,14.71,0,0,0,466,1971c-12.48-2.46-20.58-8.22-25.14-18.3-3.12,8.64-9.48,15-24.54,18.24a11.88,11.88,0,0,0-2.16-3.36c14.7-3,20.46-8.88,23-16.86H414.48v-3.6h23.7c.42-2,.72-4.14,1-6.36h4.26a64.11,64.11,0,0,1-1,6.36h25.2v3.6Zm-13.08-27.89a60.2,60.2,0,0,1-12.12,17.46c-.72-.61-2.22-1.92-3.12-2.53a46.8,46.8,0,0,0,11.46-16Zm12,16.13h-4.14v-22.55h4.14Zm20.4.84c-2.28-4.5-7.68-11.39-12.72-16.31l3.24-1.74c5.1,4.74,10.68,11.46,13.08,16Z"/><path d="M493.86,1941.92c-.84,1.26-1.62,2.58-2.46,3.79h29.76v25.19H517v-2.16h-25.8v2.34h-4V1951a60.86,60.86,0,0,1-11.1,10.14,23.93,23.93,0,0,0-3.06-2.94,54.37,54.37,0,0,0,16.2-16.26H475.2v-3.29h16.14c.84-1.45,1.56-2.88,2.28-4.44h-13V1931h14.46c.6-1.37,1.2-2.87,1.74-4.37H478v-3.3h12.12a39.08,39.08,0,0,0-4.14-5.88l3.72-1.38a38.18,38.18,0,0,1,4.62,6.36l-2.1.9h15.54a58.52,58.52,0,0,0,4.5-7.14l4.08,1.32c-1.32,2-2.88,4.08-4.32,5.82H524.1v3.3H500.94c-.54,1.5-1.08,3-1.68,4.37h22.2v3.19H497.88c-.66,1.56-1.38,3-2.16,4.44h31v3.29Zm23.16,6.9h-25.8v3.78H517Zm0,6.42h-25.8v3.84H517Zm0,10.38v-3.9h-25.8v3.9Z"/><path d="M552.3,1949.18l.78,3.54c-6.3,2.88-13,5.94-18.24,8.16l-1.5-4c2.28-.9,5.22-2,8.4-3.36v-19h-7.38v-3.77h7.38V1917h3.72v13.74h6.6v3.77h-6.6v17.52Zm28.08,16.8c3.54,0,4.14-1.62,4.56-8.7a9.15,9.15,0,0,0,3.6,1.56c-.66,8.16-1.92,10.74-8,10.74H565.38c-6.66,0-8.52-1.5-8.52-7.68v-19.49l-5,2.15-1.56-3.48,6.6-2.75v-16.5h3.78v14.88l8.64-3.67v-16.73h3.78v15.18l9.6-4.08,3.06,1-.24.72c-.6,8.46-1.74,19.49-3.24,26.27l-3.24-1a207.74,207.74,0,0,0,2.4-22.43l-8.34,3.54v22.19h-3.78v-20.63l-8.64,3.66V1962c0,3.24.78,4,4.8,4Z"/><path d="M599.88,1952c4.68-2,7.26-4.86,7.56-9.17a4,4,0,0,1-1.14.11c-2.34,0-4.26-1.31-4.26-4.07a4,4,0,0,1,4.32-4.08c3.18,0,4.86,2.58,4.86,6.66,0,6.41-4,11.21-10.08,13.43Z"/><path d="M630.78,1927.47c0,5.87-.84,14.21-4.62,20a12.2,12.2,0,0,0-2.7-2.16c3.48-5.51,4-12.77,4-18.11v-8.52h22.86v8.76Zm39,39.29c0,2.22-.54,3.12-2.34,3.66s-4.86.54-9.6.54a12.08,12.08,0,0,0-1.38-3.12c3.72.12,7.14.12,8,0s1.26-.3,1.26-1.08v-5.58c-9.84,1.8-20,3.6-27.54,4.86l-1.08-3.24c7-.9,18-2.46,28.62-4.08v-7.92H636.54v6c0,4.5-.54,10.56-3.66,14.76a14.59,14.59,0,0,0-3.06-2.4c2.64-3.78,2.94-8.58,2.94-12.42v-8.82h37Zm-30.48-25.5a31.61,31.61,0,0,1-6.66,6.66,15.73,15.73,0,0,0-2.58-1.79,27.68,27.68,0,0,0,6.24-5.64Zm7.32-7.43v3.35h5.58v2.65H630.48v-2.65h5.34v-3.35h-4.44v-2.58h4.44v-3.12h2.82v3.12h5.22v-3h2.76v3H651l.06,2.58Zm-15.84-12.54v3.6H647v-3.6Zm13.08,12.54h-5.22v3.35h5.22Zm-4.08,18.47a206.46,206.46,0,0,1,22.32,3.12l-.78,2.76c-5.28-1.2-15.06-2.7-22.5-3.48Zm5.34-12a31.76,31.76,0,0,1,5.34,5.09l-2.46,1.74a26,26,0,0,0-5.28-5.45Zm14.34-18.18c0,2.94-1.08,6.12-5.46,8.4a14.89,14.89,0,0,0-2.58-2.22c4-1.92,4.74-4.14,4.74-6.3v-3.24H671.1v6.12c0,1.32.06,1.68.84,1.68H675a11.23,11.23,0,0,0,2.4-.24c.06.84.12,1.86.24,2.64a8.39,8.39,0,0,1-2.58.24h-3.72c-2.94,0-3.54-1.2-3.54-4.32v-3.24h-8.34Zm14.7,10a24,24,0,0,1-7.38,8.88,39.49,39.49,0,0,0,10.62,3.53,17.19,17.19,0,0,0-2.22,2.94,42.62,42.62,0,0,1-11.4-4.5,41.62,41.62,0,0,1-10.26,4.2,8.6,8.6,0,0,0-1.68-2.75,39,39,0,0,0,9.06-3.25,27.83,27.83,0,0,1-6.9-6.83l.36-.12h-1v-2.82h18.06l.6-.12Zm-16.5,2.1a24.36,24.36,0,0,0,6.18,5.16,22.35,22.35,0,0,0,5.58-5.16Z"/><path d="M711.42,1928.55c-1.44,3.6-3.12,7.79-4.62,11h8.7v3.67H684.36v-3.67H702.9a77.72,77.72,0,0,0,4.5-11.93Zm2.7-1.38h-28v-3.66h12.6a52.73,52.73,0,0,0-2.64-6.36l3.6-1a57,57,0,0,1,3.18,7.38h11.22Zm-26.22,21.77h24.72v21.12h-3.9v-2.4h-17v2.88H687.9Zm5.82-9.72a46.73,46.73,0,0,0-3.9-10.55l3.48-.84a38.22,38.22,0,0,1,4,10.38Zm-2,13.32v11.52h17v-11.52Zm45.84-31.31c-2.16,5.46-5,12.3-7.56,17.87,5.46,5.7,6.84,10.32,6.84,14.52,0,3.36-.78,6.24-2.64,7.5a7.78,7.78,0,0,1-3.66,1.2,29.42,29.42,0,0,1-5.16.06,9.55,9.55,0,0,0-1.2-3.78,35.57,35.57,0,0,0,4.92.12,5.55,5.55,0,0,0,2.46-.66c1.2-.78,1.62-2.7,1.56-4.8,0-3.78-1.56-8.16-7-13.73,2.34-5.16,4.74-11.58,6.42-16.26H722.34V1971h-3.6v-51.35h15.42l.6-.18Z"/><path d="M764.22,1943c-1.86-2.46-5.4-6.35-8.52-9.59a39,39,0,0,1-9.06,12.59,27.49,27.49,0,0,0-3.06-2.82c6.36-5.27,10.44-13.73,12.48-24l4,.66a61.81,61.81,0,0,1-2.88,10.08,116.79,116.79,0,0,1,9.84,10.31Zm33.6,21.84v3.84h-53.4v-3.84H768.9v-12H748.68v-3.78H768.9v-31.91h4v24.53c6.3-4.92,10.32-12.83,12.36-22.37l3.84.66a59,59,0,0,1-3.18,10.44,146.81,146.81,0,0,1,11.7,12.42l-2.82,2.81a125.17,125.17,0,0,0-10.56-11.81,35.13,35.13,0,0,1-8.34,10.8c-.66-.67-2.1-2.11-3-2.83v7.26h20.82v3.78H772.92v12Z"/><path d="M826,1938.63s0,1.37-.06,1.86c-.72,19-1.44,25.43-3.12,27.59a4.45,4.45,0,0,1-3.36,1.74,39.18,39.18,0,0,1-5.34,0,11.1,11.1,0,0,0-1-3.66c2.1.18,3.84.18,4.68.18a1.7,1.7,0,0,0,1.74-.78c1.2-1.44,1.92-7.2,2.58-23.22H813.9c-.66,12-2.34,21.9-7.74,28.38a11.44,11.44,0,0,0-3.06-2.82c6.54-7.74,7.08-21.42,7.32-37.86h-6.24v-3.71H828.3V1930h-14c-.06,3-.12,5.83-.24,8.59Zm-9.48-12.54a40.17,40.17,0,0,0-5.1-8.58l3.48-1.38a38.31,38.31,0,0,1,5.28,8.4Zm28.62-8.94a18.31,18.31,0,0,1-1,3.06c3.18,6.54,9.24,13.62,14.94,16.74a15.63,15.63,0,0,0-2.94,3.3c-5.1-3.25-10.2-9.54-13.68-16-3.12,6.78-7.5,12.47-13.14,16.31a15.35,15.35,0,0,0-2.82-3.18c7-4.31,12.42-12.23,15-21.41Zm-10,38.93c5.58,2.64,12.78,6.9,16.32,9.9l-2.7,3.48c-3.42-3.12-10.5-7.56-16.08-10.38Zm11.4-5.82a79.47,79.47,0,0,0-10.32-8.22l2.58-2.63a80,80,0,0,1,10.5,7.85Z"/><path d="M879.3,1966.46c0,2-.42,3.12-1.62,3.72s-3.24.72-6.42.72a14.26,14.26,0,0,0-1.14-3.54c2.34.06,4.26.06,4.92,0s.9-.18.9-1v-17.22c-1.56,1.32-3.06,2.64-4.62,3.9l-1.62-3c-.42,7.26-1.38,14.94-3.6,20.88a15.61,15.61,0,0,0-2.94-1.68c3.24-8.52,3.48-20.58,3.48-29.28v-21.47H879.3ZM869.94,1940c0,2.94-.06,6.3-.24,9.84,1.74-1.08,3.9-2.7,6.24-4.38v-8.09l-1.62,1.31a38.55,38.55,0,0,0-4.38-5.76Zm0-17.75v9.9l1.86-1.26a41.75,41.75,0,0,1,4.14,4.74v-13.38Zm24.06,7.14c-.24.84-.54,1.61-.78,2.46,3.72,4.73,8.1,10.86,10,14.63l-2.7,2.16a93.59,93.59,0,0,0-8.76-13.49,39.5,39.5,0,0,1-9.12,13.43,13.73,13.73,0,0,0-2.64-2.52c4.68-3.89,8.64-10.56,10.62-17.57Zm-3.66-10.92a43.07,43.07,0,0,1-7.08,14.4,16.68,16.68,0,0,0-2.76-2.1c2.88-3.24,5.16-8.16,6.48-13Zm-6.12,29.16h15.24V1970h-3.3v-3.48H887.4v3.72h-3.18Zm3.18,3.59V1963h8.76v-11.76Zm12-19a61.47,61.47,0,0,0-6.24-13.5l2.94-1c2.64,4.2,5.46,9.78,6.42,13.2ZM916.14,1957c0,1.8-.3,2.82-1.5,3.42s-2.94.66-5.46.66a11.14,11.14,0,0,0-1.14-3.36c1.92.06,3.6.06,4.08,0s.72-.18.72-.78v-33.59H906.9V1971h-3.18v-51.17h12.42Z"/><path d="M946.8,1962.08c-7.92,2.1-16.32,4.44-22.38,6l-1-3.78,3.18-.72v-20.7h3.36v19.92l5-1.32V1937h-8.52v-18h19.2v18h-7.08v8.63H946v3.6h-7.44v11.34c2.52-.66,5.22-1.26,7.8-2ZM930,1933.41h12v-10.92H930ZM977.88,1950a76,76,0,0,1-10.68,7.26,25.42,25.42,0,0,0,11.64,9.84,16.63,16.63,0,0,0-2.64,3.48c-9.18-4.44-14.7-13.62-17.58-25.5h-6.06v20.28l11-2.7a22.19,22.19,0,0,0,.18,3.6c-12.48,3.42-14.22,4-15.36,4.8a15.14,15.14,0,0,0-1.8-3.36,4.16,4.16,0,0,0,2.1-4v-44.57h25.8v26H962a44.06,44.06,0,0,0,3.6,9.3,81.83,81.83,0,0,0,9.78-7.13Zm-25.32-27.35v7.62H970.8v-7.62Zm0,18.89H970.8v-7.92H952.56Z"/><path d="M1037.76,1964.18v4H984.3v-4h22.62v-46.85h4.14v18.54h22.62v4h-22.62v24.3Z"/><path d="M1049.88,1952c4.68-2,7.26-4.86,7.56-9.17a4,4,0,0,1-1.14.11c-2.34,0-4.26-1.31-4.26-4.07a4,4,0,0,1,4.32-4.08c3.18,0,4.86,2.58,4.86,6.66,0,6.41-4,11.21-10.08,13.43Z"/><path d="M307.56,1995.87v7.92h22.26v34.31c0,2.28-.54,3.48-2.22,4.08s-4.68.66-8.94.66a14.79,14.79,0,0,0-1.38-3.6c3.42.12,6.54.12,7.5.06s1.14-.3,1.14-1.2v-30.6H307.56v35.1h-3.78v-35.1h-17.4v35.34h-3.84v-39h21.24v-7.92h-23.4V1992h51.54v3.9Zm-9.84,16.43c0,6.12.42,13.92,5.76,20a8.65,8.65,0,0,0-2.28,1.8A23.88,23.88,0,0,1,296,2022.8a27.16,27.16,0,0,1-6.24,11.4,14.22,14.22,0,0,0-2.34-1.8c4.08-3.9,6.24-9.9,7.2-17.15h-3.9v-3Zm21.12,0c0,6.18.48,13.92,6.24,19.92a11.7,11.7,0,0,0-2.4,1.74,23.65,23.65,0,0,1-5.58-11.64,27.62,27.62,0,0,1-6.18,11.46,15,15,0,0,0-2.34-1.8c4-3.84,6.06-9.72,7.08-16.73h-4.08v-3Z"/><path d="M392.94,2023.22H368.1v14c0,3-1,4.2-3.06,4.86s-5.94.72-12.3.66a17.27,17.27,0,0,0-1.74-3.9c5.16.12,9.84.06,11.16.06s1.86-.48,1.86-1.74v-13.92H339.18v-3.9H364v-10.19H343.14v-3.84H364v-9.6c-6.66.66-13.56,1.14-19.8,1.44a16.18,16.18,0,0,0-1-3.54c14.16-.72,31.8-2.28,40.74-5.16l2.94,3.24a123.25,123.25,0,0,1-18.78,3.6v10h21.48v3.84H368.1v10.19h24.84Z"/><path d="M439.26,2013.92a42.2,42.2,0,0,1-10.08,15.36c6.24,4.86,14.28,8,24.06,9.66a17,17,0,0,0-2.46,3.66c-10-1.92-18.18-5.4-24.6-10.68-6.6,5.28-14.94,8.76-24.78,11.28a17.47,17.47,0,0,0-2.4-3.66c9.78-2.1,17.94-5.28,24.3-10.26a43.58,43.58,0,0,1-9.9-15l3.6-1.15a36.86,36.86,0,0,0,9.24,13.62,36.34,36.34,0,0,0,9-14Zm12.42-13.31H400.26v-3.9H425.4a43,43,0,0,0-4.08-7.56l3.66-1.32a38.5,38.5,0,0,1,4.44,7.68l-3,1.2h25.26Zm-32.46,3.6a68.25,68.25,0,0,1-15.6,13.85,31.16,31.16,0,0,0-3.06-3,54.88,54.88,0,0,0,14.88-12.35Zm17.16-1.5c5.52,3.71,12.24,9.17,15.48,13l-3.3,2.58c-3-3.84-9.66-9.47-15.24-13.31Z"/><path d="M512.46,2038.64v2.94H459.54v-2.94h10.62V2024H501.9v14.64ZM484,2016.38H461.1v-11.75H484Zm22.44,10.26v-5.22H465.54v5.22h-3.6v-7.86h48.12v7.86Zm-42.18-17.22h6.6V2007h-6.6Zm0,4.75h6.6v-2.59h-6.6Zm39.66-11.82H468.3v-12.18h35.58Zm-32-7.26h12.24v-2.58H471.84Zm0,4.92h12.24v-2.64H471.84Zm8.94,7h-7v2.46h7Zm0,4.62h-7v2.59h7Zm-7,14.94V2029h24.3v-2.52Zm24.3,4.8h-24.3v2.52h24.3Zm-24.3,7.32h24.3v-2.52h-24.3Zm26.4-46.13h-12.6v2.58h12.6Zm0,4.86h-12.6V2000h12.6Zm10.8,19H488.1v-11.75H511Zm-19.86-7h6.66V2007h-6.66Zm0,4.75h6.66v-2.59h-6.66ZM507.9,2007h-7.08v2.46h7.08Zm0,4.62h-7.08v2.59h7.08Z"/><path d="M541,2010.63s0,1.37-.06,1.86c-.72,19-1.44,25.43-3.12,27.59a4.45,4.45,0,0,1-3.36,1.74,39.18,39.18,0,0,1-5.34,0,11.1,11.1,0,0,0-1-3.66c2.1.18,3.84.18,4.68.18a1.7,1.7,0,0,0,1.74-.78c1.2-1.44,1.92-7.2,2.58-23.22H528.9c-.66,12-2.34,21.9-7.74,28.38a11.44,11.44,0,0,0-3.06-2.82c6.54-7.74,7.08-21.42,7.32-37.86h-6.24v-3.71H543.3V2002h-14c-.06,3-.12,5.83-.24,8.59Zm-9.48-12.54a40.17,40.17,0,0,0-5.1-8.58l3.48-1.38a38.31,38.31,0,0,1,5.28,8.4Zm28.62-8.94a18.31,18.31,0,0,1-1,3.06c3.18,6.54,9.24,13.62,14.94,16.74a15.63,15.63,0,0,0-2.94,3.3c-5.1-3.25-10.2-9.54-13.68-16-3.12,6.78-7.5,12.47-13.14,16.31a15.35,15.35,0,0,0-2.82-3.18c7-4.31,12.42-12.23,15-21.41Zm-10,38.93c5.58,2.64,12.78,6.9,16.32,9.9l-2.7,3.48c-3.42-3.12-10.5-7.56-16.08-10.38Zm11.4-5.82a79.47,79.47,0,0,0-10.32-8.22l2.58-2.63a80,80,0,0,1,10.5,7.85Z"/><path d="M631.26,1998.39c0,30.29.06,39.59-1.74,42.17a4.68,4.68,0,0,1-4.08,2.28,63.4,63.4,0,0,1-8.22-.06,8.77,8.77,0,0,0-1.2-3.66c3.48.24,6.78.24,8,.24a2,2,0,0,0,2.1-.9c1.26-1.8,1.5-11.28,1.5-38.57H605.88a40.33,40.33,0,0,1-6.42,9.53,18.5,18.5,0,0,0-2.1-1.79V2038c0,2.16-.48,3.24-1.8,3.84s-3.66.72-7.5.72a17,17,0,0,0-1.08-3.54c2.82.12,5.22.06,5.94.06s1.08-.3,1.08-1.14v-18c-2.34,1.69-4.68,3.36-6.84,5l-1.68-3.29c2.28-1.27,5.28-3.07,8.52-5v-7l-2.28,1.56a56,56,0,0,0-5.82-7.26l2.34-1.5a54.65,54.65,0,0,1,5.76,6.66v-14.82h-8.22v17.46c0,9.11-.6,22.25-4.86,31.37a10.89,10.89,0,0,0-2.82-2.4c3.9-8.46,4.26-20.28,4.26-29v-21.18h15v15.18c4-4.38,7-10.74,8.76-17.4l3.9.84a65.39,65.39,0,0,1-2.4,7.08h23.64ZM604,2008.46v22.32h16V2008h3.18v26H600.78v-25.62Zm12.24,19.74c-1-2.4-2.46-5.46-4.14-8.7a65,65,0,0,1-5.1,9,24,24,0,0,0-2.58-1.74,71.86,71.86,0,0,0,6.06-10.38c-2-3.47-4-7-5.94-10l2.46-1.2c1.56,2.4,3.3,5.21,4.86,8,1.2-2.76,2.22-5.64,3.12-8.39l2.88.78c-1.26,3.6-2.64,7.26-4.26,10.73a80.47,80.47,0,0,1,5.22,10.5Z"/><path d="M664.8,2038.16c0,2.16-.48,3.24-2,3.9s-4.26.66-8.34.66a17,17,0,0,0-1.32-3.54c3.12.12,5.94.12,6.72.06s1.14-.3,1.14-1.08v-8.52H646.68c-.6,4.74-1.86,9.78-4.68,13.56a11.24,11.24,0,0,0-2.94-2.34c4-5.64,4.44-13.38,4.44-19.44v-14.27h21.3Zm27.78-40.25v3.66H639.42v-3.66h15.12a45.12,45.12,0,0,0-5.64-8.28l3.66-1.38a49.14,49.14,0,0,1,6.06,8.52l-2.94,1.14h18.18a79.77,79.77,0,0,0,5.76-9.9l4.14,1.44c-1.68,2.82-3.6,5.94-5.46,8.46ZM661,2026.46V2020h-13.8v1.44c0,1.56-.06,3.24-.18,5Zm-13.8-16v6.41H661v-6.41Zm29,21.65h-3.72v-24.41h3.72Zm8.4-26.22h3.9v31.92c0,2.52-.6,3.6-2.34,4.26s-4.8.72-9.36.72a17,17,0,0,0-1.5-3.84c3.78.12,7,.12,8,.06s1.32-.3,1.32-1.2Z"/><path d="M727.68,1995.69c-.84,3.12-1.8,6.42-2.7,9.06h24.66v32.93c0,2.46-.54,3.6-2.22,4.26s-4.8.72-9.12.72a12.47,12.47,0,0,0-1.38-3.78c3.54.12,6.6.06,7.5,0s1.2-.3,1.2-1.2v-29.22H734.94V2041h-4v-32.58H720.54V2041h-3.9v-32.58h-10V2043h-4v-38.27h18.24c.84-2.71,1.56-6.12,2.16-9.06H699.48v-4h53.34v4Z"/><path d="M772.2,2001.39c-1.14,2.57-2.4,5.15-3.84,7.68V2043h-3.6v-28.08a54.49,54.49,0,0,1-4.44,5.82,16.26,16.26,0,0,0-2.22-3.36A61.58,61.58,0,0,0,769,2000.19Zm-1.14-11.7a59.44,59.44,0,0,1-10.2,13.62,32.36,32.36,0,0,0-2-3,45.35,45.35,0,0,0,8.76-11.94Zm7.68,29.21c-.18,10.74-1.14,18.36-6.12,22.92a10.16,10.16,0,0,0-2.52-2.82c4.32-3.84,5-10.5,5.16-20.1ZM772.2,2013h19.74v3.31h-19.8Zm19.68-4.14H773.34V1994h3v11.76h4.8v-17.4h3.18v17.4h4.44v-11.7h3.12Zm2.1,18.78a16.19,16.19,0,0,0,1,2.88c-7.56,4.86-8.82,5.94-9.42,6.72a16.31,16.31,0,0,0-1.56-3.48c.66-.42,1.62-1.38,1.62-3.72v-11.28H789v11.7Zm16.44-24.53c-1.08,9.83-2.7,18.11-5.58,24.95,2.16,4.92,5,8.82,8.82,11.46a10.59,10.59,0,0,0-2.4,3,31,31,0,0,1-8.34-10.62,34,34,0,0,1-9.24,11.16,20.43,20.43,0,0,0-2.52-2.7A31.46,31.46,0,0,0,801.24,2028a86.35,86.35,0,0,1-4.26-17.33,29.79,29.79,0,0,1-2.34,4.13,18.11,18.11,0,0,0-2.58-2.81c3.9-5.76,6.24-14.52,7.5-23.64l3.48.6a87.26,87.26,0,0,1-2.22,10.74h12.54v3.48Zm-10.62,0a16.83,16.83,0,0,1-.54,1.86,98.66,98.66,0,0,0,3.72,18.47,89,89,0,0,0,4-20.33Z"/><path d="M847,1996.71v10.86l.66-.78c7.32,3.54,16.74,8.93,21.54,12.53l-2.76,3.6c-4.2-3.42-12.48-8.46-19.44-12.12v32.1h-4.2v-46.19H819.54v-4h53v4Z"/><path d="M931.62,2001.69v3.65h-23.7v20.88h19.62v3.66H907.92v7.68h21.84v3.66H881.94v-3.66h22v-7.68H884v-3.66H903.9v-20.88H880.08v-3.65H903.9v-6.48c-6.66.48-13.56.84-19.74,1a10.81,10.81,0,0,0-1-3.36c14.4-.48,32.1-1.74,41.88-3.84l2,3.42a166.55,166.55,0,0,1-19.14,2.52v6.78Zm-38.16,5.69v6.42h6.78v3.66h-6.78v6.42h-3.78v-6.42h-8.46v-3.66h8.46v-6.42Zm29.46,6.42h7.56v3.72h-7.56v6.42h-3.84v-6.42H911v-3.72h8.1v-6.35h3.84Z"/><path d="M951.18,2006.67a9.06,9.06,0,1,1-9.06,9A9.09,9.09,0,0,1,951.18,2006.67Zm0,15.23a6.18,6.18,0,1,0,0-12.36,6.18,6.18,0,1,0,0,12.36Z"/><path d="M492.9,2077.17c4.44,10.31,12.24,20,20.76,24.71a23.11,23.11,0,0,0-3.06,3.36c-9-5.58-16.92-16.32-21.6-28.07h-1v22.43h14.28v4H488V2115H483.9v-11.4H469.68v-4H483.9v-22.43h-1.08c-4.74,11.75-12.66,22.43-21.3,28.25a24.18,24.18,0,0,0-2.88-3.18c8-4.92,15.66-14.76,20.16-25.07H460.14v-4H483.9v-12.72H488v12.72h24v4Z"/><path d="M567.9,2099.54a33.64,33.64,0,0,1-8.22,7.38c2.4,2.82,5.22,4.44,8.16,4.38,1.68-.06,2.16-1.5,2.46-5.94a10.31,10.31,0,0,0,3.12,1.62c-.6,6.3-2.1,7.92-5.76,8-4.26,0-8.16-2.22-11.28-6a74.41,74.41,0,0,1-13.68,5.82,36.46,36.46,0,0,0-2.1-3.24,65.61,65.61,0,0,0,13.86-5.34,34.94,34.94,0,0,1-3.84-8.82H536.16v4.38l11.16-1-.06,2.88-11.1,1.08v6.12c0,2.1-.48,3.06-2.16,3.54s-4.38.54-8.94.54a19.42,19.42,0,0,0-1.26-3.18c3.36.12,6.48.06,7.38,0s1.2-.24,1.2-1v-5.7c-4.74.48-9.12.9-12.72,1.2l-.42-3.3c3.54-.24,8.1-.54,13.14-1v-4.68h-12.9v-3.18h12.9v-4.44c-3.78.42-7.68.72-11.28.91a12,12,0,0,0-.9-2.71c8.16-.48,18.18-1.55,23.52-2.94l2.52,2.58c-2.82.66-6.36,1.26-10.08,1.74v4.86h13.68a52.67,52.67,0,0,1-1.2-8.94h3.84a57.48,57.48,0,0,0,1.2,8.94h19v3.18H554.58a31.91,31.91,0,0,0,3.12,6.9,27.09,27.09,0,0,0,6.72-5.94Zm4.62-15.17h-53v-3.24H543.9V2077H525.3v-3.06h18.6v-4H522.06v-3.18h12.66a30,30,0,0,0-3.48-5.16l3.42-1.26a24.4,24.4,0,0,1,4.32,6.24l-.42.18H553.2a54.7,54.7,0,0,0,3.6-6.6l4.14,1.2c-1.2,1.86-2.52,3.84-3.72,5.4h12.84V2070H547.92v4h18.9V2077h-18.9v4.14h24.6Zm-5.7,9a34,34,0,0,0-9.48-5.52l2.16-2.46a38.32,38.32,0,0,1,9.66,5.22Z"/><path d="M608.46,2109.62a70.7,70.7,0,0,0,7.38.36c2.1.06,14.76,0,17.58-.06a16.36,16.36,0,0,0-1.44,3.84H615.72c-12.3,0-19.92-1.92-24.72-10.38a31.55,31.55,0,0,1-9.48,11.7,19.84,19.84,0,0,0-3.06-2.82c6.3-4.14,10.2-10.92,11.82-19.86l4,.6a55.92,55.92,0,0,1-1.5,6.06c2.34,5.64,6.3,8.52,11.7,9.84v-18.54H579.72v-3.6H632.4v3.6H608.46v7.08h20v3.6h-20Zm17.22-27.17h-39.6v-19.56h39.6Zm-4-16.44H590v5.16h31.68Zm0,8.1H590v5.27h31.68Z"/><path d="M681.6,2079c-2.28,8.69-5.46,15.71-10.44,21.23a153,153,0,0,1,19.8,11.22l-3.3,3.48A137.85,137.85,0,0,0,668,2103.38c-6.06,5.4-14.28,9.12-25.44,11.46a15.22,15.22,0,0,0-2.4-3.84c10.2-2,17.88-5.1,23.58-9.72-5.28-2.52-11-4.92-16.68-7.08a155.81,155.81,0,0,0,7.5-15.17h-14.7v-4.2h16.44a153.86,153.86,0,0,0,5.28-15.18l4.2.66a143.16,143.16,0,0,1-4.92,14.52h17.34c.42-1.8.78-3.72,1.14-5.7l4.14,1.08c-.3,1.56-.6,3.12-.9,4.62h9.9v4.2Zm-22.5,0c-2,4.85-4.14,9.53-6.06,13.31,4.74,1.86,9.48,3.84,14,5.94,4.8-5,8-11.34,10.14-19.25Z"/><path d="M752.94,2091H728.22v18.6c0,2.82-.72,4-2.88,4.68s-5.94.78-11.7.78a17.7,17.7,0,0,0-1.8-4.14c5,.18,9.36.18,10.68.12s1.62-.42,1.62-1.5V2091h-25v-4h25v-8.75a74.47,74.47,0,0,0,15.72-9.84H705.18v-3.9h39l.84-.24,3,2.28a90,90,0,0,1-19.8,13.79V2087h24.72Z"/><path d="M771.18,2078.67a9.06,9.06,0,1,1-9.06,9A9.09,9.09,0,0,1,771.18,2078.67Zm0,15.23a6.18,6.18,0,1,0,0-12.36,6.18,6.18,0,1,0,0,12.36Z"/><rect class="cls-2" x="1133" y="1221" width="65" height="269" rx="12"/><path class="cls-1" d="M1177.05,1259.79a27.61,27.61,0,0,0,11.5,8.1,11.65,11.65,0,0,0-2.15,2.55,30.77,30.77,0,0,1-12.8-10.65h-15.95a34.39,34.39,0,0,1-13,11.3,11.43,11.43,0,0,0-2.15-2.55,30.39,30.39,0,0,0,11.6-8.75H1143v-2.85h10v-16.15h-7.7V1238h7.7v-5h3.3v5h18.55v-5h3.35v5h7.65v2.8h-7.65v16.15h9.8v2.85Zm-10,14.5h17.3v2.85H1146.8v-2.85h16.9v-5.6h-10.45v-2.8h10.45v-4.4h3.35v4.4h10.65v2.8h-10.65Zm-10.8-33.5v3.6h18.55v-3.6Zm0,9.8h18.55v-3.65h-18.55Zm0,6.35h18.55v-3.8h-18.55Z"/><path class="cls-1" d="M1161.25,1301.54s0,1.15,0,1.55c-.6,15.85-1.2,21.2-2.6,23a3.71,3.71,0,0,1-2.8,1.45,32.65,32.65,0,0,1-4.45,0,9.25,9.25,0,0,0-.85-3c1.75.15,3.2.15,3.9.15a1.42,1.42,0,0,0,1.45-.65c1-1.2,1.6-6,2.15-19.35h-6.8c-.55,10-2,18.25-6.45,23.65a9.53,9.53,0,0,0-2.55-2.35c5.45-6.45,5.9-17.85,6.1-31.55h-5.2v-3.1h20.1v3.1h-11.65c0,2.45-.1,4.85-.2,7.15Zm-7.9-10.45a33.47,33.47,0,0,0-4.25-7.15l2.9-1.15a31.92,31.92,0,0,1,4.4,7Zm23.85-7.45a15.26,15.26,0,0,1-.85,2.55c2.65,5.45,7.7,11.35,12.45,14a13,13,0,0,0-2.45,2.75c-4.25-2.7-8.5-8-11.4-13.3a32.61,32.61,0,0,1-11,13.6,12.79,12.79,0,0,0-2.35-2.65c5.85-3.6,10.35-10.2,12.5-17.85Zm-8.3,32.45a74,74,0,0,1,13.6,8.25l-2.25,2.9c-2.85-2.6-8.75-6.3-13.4-8.65Zm9.5-4.85a66.22,66.22,0,0,0-8.6-6.85l2.15-2.2a67.46,67.46,0,0,1,8.75,6.55Z"/><path class="cls-1" d="M1184,1336.19v29.3h-3.5v-2.55h-13.3v15.6h-3.45v-15.6h-13.4v2.75H1147v-29.5Zm-33.65,3.2V1348h13.4v-8.65Zm13.4,20.35v-8.5h-13.4v8.5Zm16.75-20.35h-13.3V1348h13.3Zm0,20.35v-8.5h-13.3v8.5Z"/><path class="cls-1" d="M1186.25,1398.09v9.3h-3.15V1401h-35.4v6.4h-3v-9.3h6.95v-12.95h27.7v12.95Zm-6.45,26.6c0,1.85-.45,2.7-1.85,3.2s-3.9.5-7.7.45a8.57,8.57,0,0,0-1.1-2.75c3,.05,5.65.05,6.4.05s1-.25,1-1v-6.2c-7.3,1.45-14.85,3-20.45,4l-1.1-3c5.4-.8,13.6-2.3,21.55-3.75V1407h-22.2v5.3c0,4.85-.65,11.55-4.35,16.2a13.29,13.29,0,0,0-2.7-2c3.45-4.25,3.85-10,3.85-14.25v-8h28.6Zm-25-26.6h7.45v-6.9H1176v-3.35h-21.2Zm2.45,11.7a75.14,75.14,0,0,1,17.7,3l-.9,2.6c-4-1.5-11.7-2.9-17.7-3.35Zm18.75-16.3h-10.75v4.6H1176Z"/><path class="cls-1" d="M1180,1445.09a51.83,51.83,0,0,1-12,19.6,49.94,49.94,0,0,0,20.5,10.5,16.79,16.79,0,0,0-2.25,3,50.92,50.92,0,0,1-20.75-11.1c-5.65,5-12.55,8.6-21,11.3a15.53,15.53,0,0,0-2-3.05c8.35-2.45,15.1-5.9,20.6-10.6a57.05,57.05,0,0,1-12.2-19.65h-7.75v-3.25h44.75v3.25Zm-25.75,0a52.13,52.13,0,0,0,11.3,17.3,47.46,47.46,0,0,0,10.7-17.3Zm11.25-3.55a38.13,38.13,0,0,0-3.8-7.8l3.4-1a39,39,0,0,1,4,7.65Z"/><rect class="cls-2" x="1135" y="453" width="65" height="126" rx="12"/><path class="cls-1" d="M1154.7,482.82c1.25,1.6,4.9,6.7,5.7,8.05l-2,2.45c-.7-1.5-2.35-4.4-3.75-6.65V513h-3.15V488.57c-1.5,5.05-3.5,9.9-5.55,12.85a14.83,14.83,0,0,0-1.75-3.1c2.9-4,5.8-11.5,7.2-18h-6.2v-3.15h6.3v-9.65h3.15v9.65h5.45v3.15h-5.45Zm19.1.7a19.47,19.47,0,0,0,.45,2.65c-10.15,2.7-11.6,3.15-12.5,3.75a12.13,12.13,0,0,0-1.1-3.2c.7-.2,1.55-.5,1.55-2.2v-16.7h3.25v6.5h8.35v2.9h-8.35v8.3Zm2.35,5.5-2,3.75h12.65V513h-3.4v-1.75h-17v2h-3.3V492.77h7.9c.55-1.5,1.2-3.25,1.55-4.6Zm7.3,6.5h-17v5.05h17Zm0,13v-5.3h-17v5.3Zm2.25-22.4c1.25,0,1.5-.75,1.65-5.25a9.16,9.16,0,0,0,2.85,1.25c-.3,5.45-1.2,6.95-4.15,6.95h-5.85c-3.65,0-4.55-.95-4.55-4.45V467.87h3.25v6.5h10.2v2.9h-10.2v7.35c0,1.3.25,1.5,1.65,1.5Z"/><path class="cls-1" d="M1189.55,542.87v2.5H1145.4v-2.5h20.25v-3.2H1148.8v-2.3h16.85v-3H1150.2v-2.25h15.45v-3.2H1145.5v-2.5h20.15v-3H1150.8V521h14.85v-3.55h3.25V521h14.45v5.4h6.15v2.5h-6.15v5.45H1168.9v3h17.3v2.3h-17.3v3.2Zm-37.75,5h31.75v15.25h-3.25v-1.6H1155v1.7h-3.2Zm3.2,2.4v3.2h25.3v-3.2Zm25.3,8.85v-3.4H1155v3.4Zm-11.4-32.7h11.15v-3H1168.9Zm0,5.7h11.15v-3.2H1168.9Z"/><path d="M477.78,1198.79c34.62-5.69,69.23-11.5,103.94-16.63q14.84-2.19,29.68-4.2l-6.78.91c26-3.49,52-6.47,78.15-8.6s52.2-3.39,78.35-3.44q10.86,0,21.71.24c7,.17,14.15.08,21.09,1l-6.78-.91a23.66,23.66,0,0,1,5.24,1.31l-6.1-2.57a15.58,15.58,0,0,1,3.26,1.83l-5.16-4a15,15,0,0,1,2.27,2.24l-4-5.16a15.8,15.8,0,0,1,1.8,3l-2.58-6.09a20.23,20.23,0,0,1,1.3,4.82l-.92-6.78a35.8,35.8,0,0,1-.16,9.19l.91-6.78a150.05,150.05,0,0,1-3.75,16.59q-2.13,8.22-4.53,16.37-4.72,16-10.57,31.61-3.24,8.65-6.84,17.19l2.57-6.09a419.31,419.31,0,0,1-40,73.52q-6.48,9.48-13.5,18.55l4-5.16A384.37,384.37,0,0,1,668.2,1376q-8.09,7-16.53,13.51l5.16-4a392.58,392.58,0,0,1-67.21,41.7q-10.33,5.05-20.93,9.53l6.1-2.58a446.19,446.19,0,0,1-76.12,24.19q-11.42,2.55-22.95,4.54a24.53,24.53,0,0,0-18.26,21.2,19.34,19.34,0,0,0,.45,10.17c2,6.17,5.82,12.12,11.72,15.24l6.09,2.57a25.78,25.78,0,0,0,13.56,0A465,465,0,0,0,564,1492.77a450.7,450.7,0,0,0,72.87-32.85,421.44,421.44,0,0,0,63.51-44.53,381.81,381.81,0,0,0,50-50.84,435.34,435.34,0,0,0,44.11-64.75,478.87,478.87,0,0,0,32.77-74.3q6.39-18.45,11.26-37.39c2.18-8.46,4.15-16.84,4.87-25.59,1-12.08-2.94-25.45-11.87-34-5.36-5.1-12.37-9.16-19.72-10.44a134.21,134.21,0,0,0-18.09-1.72q-13.56-.53-27.15-.57c-18.1-.08-36.2.43-54.28,1.42-38.3,2.09-76.41,6.4-114.42,11.52-36,4.85-71.77,10.65-107.57,16.54l-26,4.3A28.49,28.49,0,0,0,449,1161.34a18.92,18.92,0,0,0-3,9.48,19.3,19.3,0,0,0,.45,10.16c2,6.17,5.82,12.13,11.72,15.24l6.09,2.57a25.58,25.58,0,0,0,13.56,0Z"/><path d="M444.59,1168.86c-3.4,12.18-5.34,24.6-6.9,37.13a270.84,270.84,0,0,0-2,33c-.05,25.76,3.05,51.64,8.12,76.88a393.88,393.88,0,0,0,20.82,69.77c9.63,23.89,20.89,47.08,35.44,68.39,13.3,19.47,28.65,38,47.19,52.73,3.58,2.83,7.18,5.63,10.87,8.31a19,19,0,0,0,9.48,3,19.34,19.34,0,0,0,10.17-.45A28.62,28.62,0,0,0,593,1505.87c3.13-5.92,4.69-13.09,2.57-19.65l-2.57-6.09a25.71,25.71,0,0,0-9.15-9.15c-1.38-1-2.75-2-4.11-3.07l5.16,4a193.43,193.43,0,0,1-28.35-27.27c-2.54-3-5-6-7.4-9.09l4,5.16a297.85,297.85,0,0,1-32.1-52.55q-4-8.19-7.5-16.57l2.58,6.09a393.29,393.29,0,0,1-23.58-77.55q-2.16-11.07-3.66-22.25l.91,6.77a322.91,322.91,0,0,1-2.52-63.83q.56-8.58,1.69-17.11l-.91,6.78a209.13,209.13,0,0,1,5.69-28.06,19.24,19.24,0,0,0,.46-10.17,26.25,26.25,0,0,0-18.27-21.2c-6.52-1.49-13.85-1.16-19.65,2.57a26.64,26.64,0,0,0-11.71,15.24Z"/><path d="M630.57,1503a148.79,148.79,0,0,0-25.08,10.11,113.32,113.32,0,0,0-17,10.67,162.06,162.06,0,0,0-19.75,17,185.38,185.38,0,0,0-16.52,20.35c-9.19,12.85-15.91,27-21.87,41.55a226.06,226.06,0,0,0-11.87,39.35c-1.82,8.79-3.08,17.67-4.2,26.57q-1.23,9.87-1.69,19.81c-.08,1.6-.13,3.2-.18,4.81-.24,8.91,5,17.57,12.63,22a25.54,25.54,0,0,0,25.74,0q31.57-14.88,63-30t63-30.64l17.55-8.64c5.6-2.76,11.16-5.64,16.9-8.09l-6.09,2.57a64.09,64.09,0,0,1,16.13-4.77l-6.78.91a35.22,35.22,0,0,1,8.46-.08l-6.78-.91a28.07,28.07,0,0,1,7,1.87l-6.1-2.57a29.07,29.07,0,0,1,6.14,3.66l-5.16-4a48,48,0,0,1,8,8.35l-4-5.16a206.45,206.45,0,0,1,13.27,20.1q6.38,10.69,11.79,21.91,3,6.32,5.78,12.78l-2.57-6.09q3.53,8.34,6.51,16.89a28.49,28.49,0,0,0,11.72,15.24,18.92,18.92,0,0,0,9.48,3,19.34,19.34,0,0,0,10.17-.45l6.09-2.57a25.61,25.61,0,0,0,9.14-9.15l2.58-6.09a25.78,25.78,0,0,0,0-13.56,316.33,316.33,0,0,0-27.58-59.22q-3.87-6.39-8.06-12.57c-1.27-1.86-2.55-3.71-3.91-5.5a123,123,0,0,0-8-10,74.12,74.12,0,0,0-9.54-8,28.73,28.73,0,0,0-5.55-3.41c-3.95-1.8-8.06-3.75-12.39-4.51a63.15,63.15,0,0,0-13.3-1.3,73,73,0,0,0-20.21,3.7,171.52,171.52,0,0,0-19.31,8.2c-9.65,4.7-19.26,9.51-28.89,14.24q-29.1,14.28-58.3,28.36t-58.73,28l-7.17,3.38,38.37,22a254.08,254.08,0,0,1,2.17-26.86l-.91,6.78a239.63,239.63,0,0,1,10.9-46.38q2.22-6.4,4.85-12.65l-2.57,6.09a176.19,176.19,0,0,1,16.11-30q2.66-3.93,5.56-7.7l-4,5.16a130.19,130.19,0,0,1,23.1-23.28l-5.16,4a113.8,113.8,0,0,1,24.78-14.51l-6.1,2.57a116.55,116.55,0,0,1,12-4.29,28.44,28.44,0,0,0,15.24-11.71,18.9,18.9,0,0,0,3-9.48,19.24,19.24,0,0,0-.46-10.17l-2.57-6.09a25.45,25.45,0,0,0-9.14-9.15l-6.1-2.57a25.54,25.54,0,0,0-13.55,0Z"/><line class="cls-3" x1="639" y1="1527.02" x2="639" y2="1014"/><path class="cls-4" d="M177.92,1384.54a36,36,0,0,1-3.24,3.9,18.48,18.48,0,0,0-2.28-2.76c3.78-3.6,7-9.18,8.94-14.82l3.3.84c-.78,2-1.68,4.14-2.58,6.06h7.44a54.36,54.36,0,0,0-2.76-5.64l3.24-1a56.32,56.32,0,0,1,3.3,6.6h6v2.88H192v3.72H198v1.44c3.66-3.72,6.84-9.36,8.88-14.94l3.24.9a48.76,48.76,0,0,1-2.64,6.06h7.44c-.78-1.74-1.8-3.84-2.7-5.52l3.24-.9a58.59,58.59,0,0,1,3.24,6.42h6.89v2.82h-8.39v3.72h7.13v2.76h-7.13v3.72h7.13v2.76h-7.13v3.72h9.35v2.88h-23v-15.6a43.68,43.68,0,0,1-3.48,4.32,29.36,29.36,0,0,0-2-2.4v.54H192v3.78H198v2.7H192v3.78h8v2.82H177.92Zm42.29,20.88c-3.23,4.92-8.15,8.76-14,11.76a98.28,98.28,0,0,0,20.39,4,16.33,16.33,0,0,0-2.52,3.84,90.49,90.49,0,0,1-23.09-5.52c-8,3.24-17.34,5.1-26.28,6.12a16.6,16.6,0,0,0-1.62-3.66,106.83,106.83,0,0,0,23.22-4.56,40.59,40.59,0,0,1-12.84-9.84l.66-.3h-7.74v-3.36h40.44l.78-.24Zm-31.61-24.78h-7.2v3.72h7.2Zm0,6.42h-7.2v3.78h7.2Zm0,6.48h-7.2v3.78h7.2Zm-.18,13.68a38.38,38.38,0,0,0,13,8.16,35.54,35.54,0,0,0,12.36-8.16Zm25.44-26.58H207v3.72h6.84Zm0,6.48H207v3.72h6.84Zm0,6.48H207v3.72h6.84Z"/><path class="cls-4" d="M287,1405.72H262.16v14c0,3-1,4.2-3.06,4.86s-5.94.72-12.3.66a17.27,17.27,0,0,0-1.74-3.9c5.16.12,9.84.06,11.16.06s1.86-.48,1.86-1.74v-13.92H233.24v-3.9h24.84v-10.2H237.2v-3.84h20.88v-9.6c-6.66.66-13.56,1.14-19.8,1.44a16.18,16.18,0,0,0-1-3.54c14.16-.72,31.8-2.28,40.74-5.16l2.94,3.24a123.25,123.25,0,0,1-18.78,3.6v10h21.47v3.84H262.16v10.2H287Z"/><path class="cls-4" d="M329.45,1398.73A318.45,318.45,0,0,1,414,1421.37q11.81,5,23.21,10.79c1.72.87,3.24-1.71,1.52-2.59a332.35,332.35,0,0,0-84.7-29.88q-12.22-2.48-24.61-4c-1.91-.24-1.89,2.77,0,3Z"/><path class="cls-4" d="M1011.82,1271.68v4H958.36v-4H981v-46.86h4.14v18.54h22.62v4H985.12v24.3Z"/><path class="cls-4" d="M1071.16,1245.16a67.65,67.65,0,0,1-9.84,11.22v16.32c0,3-.66,4.38-2.82,5.1s-6.06.72-12.18.66a16.43,16.43,0,0,0-1.5-4.14c4.86.18,9.48.12,10.74.06s1.8-.42,1.8-1.68v-12.9c-10.32,8.22-23,14.1-36.72,18.12a19.65,19.65,0,0,0-2.58-3.54c11.82-3.12,22.8-7.8,31.92-14-11.4.9-22.62,1.86-30.78,2.4l-.66-4c2.76-.12,5.94-.3,9.42-.48V1229.8h12.24a54.28,54.28,0,0,0,2.58-6.12l4.68.78a57.5,57.5,0,0,1-2.94,5.34h16.8v21a52.71,52.71,0,0,0,6.12-7.56Zm-39.3-11.82v5.88h25.5v-5.88Zm25.5,9h-25.5v5.94h25.5Zm-25.5,15.66c7.14-.42,15.24-.9,23.28-1.44.72-.66,1.5-1.26,2.22-1.92v-3.24h-25.5Z"/><path class="cls-4" d="M938,1256.93a268.2,268.2,0,0,1-68.08-6.63c-5.91-1.38-11.76-3-17.52-4.87-1.84-.6-2.63,2.3-.8,2.9,21.42,7,44,10.45,66.44,11.43q10,.43,20,.17c1.93-.06,1.93-3.06,0-3Z"/><path class="cls-4" d="M191.42,1715.54c0,2.16-.48,3.24-1.8,3.84s-3.66.72-7.5.72a17,17,0,0,0-1.08-3.54c2.82.12,5.22.06,5.94.06s1.08-.3,1.08-1.14v-18.06c-2.34,1.74-4.68,3.42-6.84,5l-1.68-3.3c2.28-1.26,5.28-3.06,8.52-5v-7l-2.28,1.56a56,56,0,0,0-5.82-7.26l2.34-1.56a59.76,59.76,0,0,1,5.76,6.72v-14.82h-8.22v17.46c0,9.12-.6,22.26-4.86,31.38a9.84,9.84,0,0,0-2.82-2.4c3.9-8.52,4.26-20.28,4.26-29V1668h15ZM212.06,1686a9.77,9.77,0,0,1-.66,1c4.74,5,10.62,8.22,16.86,10.86a10.13,10.13,0,0,0-2.34,2.94,53.15,53.15,0,0,1-16.26-11.28,39.61,39.61,0,0,1-15.9,11.64,14.68,14.68,0,0,0-2.28-2.82c7.2-2.7,13.86-7.68,17.28-13.5Zm-4-9.54A43.52,43.52,0,0,1,194.42,1688a10.84,10.84,0,0,0-2.46-2.76,38.15,38.15,0,0,0,13.44-10.14H194.12v-3.36H208V1666h3.72v5.7h14.76v3.36h-12a84.94,84.94,0,0,1,12,10.38l-2.58,2.28a88.37,88.37,0,0,0-12.18-10.92v7.86H208Zm-2,34.38c-3.9,2.22-7.8,4.56-11.16,6.48l-1.74-3c3.06-1.44,7.5-3.84,11.94-6.3Zm-2.94-3.3a34.77,34.77,0,0,0-5.94-6.78l2.46-1.74a33.13,33.13,0,0,1,6.06,6.48Zm5-11.94h3.6v21.06c0,1.92-.36,2.76-1.8,3.24s-3.48.6-7,.6a14.5,14.5,0,0,0-1.14-3.06c2.52.06,4.74.06,5.4,0s.9-.18.9-.84Zm7.14,12.3a76.61,76.61,0,0,1,11.4,7.74l-2.16,2.64a81.94,81.94,0,0,0-11.34-8.1Zm7.26-6.9a50.84,50.84,0,0,1-7.08,6.6l-2-2.1a47.43,47.43,0,0,0,6.72-6.72Z"/><path class="cls-4" d="M286.88,1715.06v3.36H233.42v-3.36h7.08v-11.7H280v11.7Zm-6.48-11.7c-1.08-1.08-2.4-2.22-4-3.54-31.08.9-34,1-36,1.62a21.66,21.66,0,0,0-1.26-3.6,10.19,10.19,0,0,0,3.9-1.62,72.42,72.42,0,0,0,7.38-5.28H233.84v-3.12H257.9v-4.68H239.12v-3H257.9v-4.44h4v4.44h19.38v3H261.86v4.68h24.66v3.12H256.1a84,84,0,0,1-9.06,6.42l25.14-.6c-1.74-1.2-3.48-2.34-5.16-3.3l2.88-2.1a76,76,0,0,1,13.44,9.48Zm-32.58-29.58H234.2v-3.6h13.62v-4.26h3.72v4.26H258v3.6h-6.48v3.54h-3.72Zm-3.54,41.28h8.22v-8.64h-8.22Zm11.58-8.64v8.64h8.4v-8.64Zm12.36-32.58h-6.06v-3.6h6.06v-4.32h3.72v4.32h14.64v3.6H271.94v3.48h-3.72Zm-.6,32.58v8.64h8.46v-8.64Z"/><path class="cls-4" d="M326.78,1708.31q32.84,1.93,65.73,2.91,33.66,1,67.36,1.07,19.06,0,38.13-.21c1.93,0,1.93-3,0-3q-33.94.45-67.89,0-33.39-.46-66.75-1.88-18.3-.77-36.58-1.85c-1.93-.12-1.92,2.88,0,3Z"/><path class="cls-4" d="M987.34,1714.88a53.51,53.51,0,0,0,10.62.9c1.8.06,12.24,0,14.63,0a15.39,15.39,0,0,0-1.5,3.84H997.78c-12.78,0-22-2.34-27.54-13-2,5.52-5,10.62-9.42,14a20.44,20.44,0,0,0-2.82-2.76c7.26-5.46,10.14-15.66,11-24.3l4.2.48a68.67,68.67,0,0,1-1.44,7.5c2.4,6.6,6.3,10.26,11.46,12.24V1688.9H965.44v-20.1H1006v20.1H987.34v9.6h20.28v3.72H987.34Zm-17.94-29.82h32.46v-12.42H969.4Z"/><path class="cls-4" d="M1048,1700.18c4,9.24,12.18,14.76,24.47,16.74a14.68,14.68,0,0,0-2.39,3.54c-12.48-2.46-20.58-8.22-25.14-18.3-3.12,8.64-9.48,15-24.54,18.24a11.88,11.88,0,0,0-2.16-3.36c14.7-3,20.46-8.88,23-16.86h-22.74v-3.6h23.7c.42-2,.72-4.14,1-6.36h4.26a64.11,64.11,0,0,1-1,6.36h25.19v3.6Zm-13.08-27.9a60.2,60.2,0,0,1-12.12,17.46c-.72-.6-2.22-1.92-3.12-2.52a46.93,46.93,0,0,0,11.46-16Zm12,16.14h-4.14v-22.56h4.14Zm20.4.84c-2.28-4.5-7.68-11.4-12.72-16.32l3.24-1.74c5.1,4.74,10.68,11.46,13.08,16Z"/><path class="cls-4" d="M852.26,1720.35a225.78,225.78,0,0,0,68.75-3.73c6.4-1.34,12.74-3,19-4.87,1.84-.56,1.06-3.46-.8-2.9a223.29,223.29,0,0,1-67.64,9.6c-6.45-.08-12.89-.46-19.31-1.1-1.92-.19-1.91,2.81,0,3Z"/><path class="cls-4" d="M964.84,1431c0,5.88-.84,14.22-4.62,20a12.2,12.2,0,0,0-2.7-2.16c3.48-5.52,4-12.78,4-18.12v-8.52h22.86V1431Zm39,39.3c0,2.22-.54,3.12-2.33,3.66s-4.86.54-9.6.54a12.08,12.08,0,0,0-1.38-3.12c3.72.12,7.14.12,8,0s1.26-.3,1.26-1.08v-5.58c-9.84,1.8-20,3.6-27.54,4.86l-1.08-3.24c7-.9,18-2.46,28.62-4.08v-7.92H970.6v6c0,4.5-.54,10.56-3.66,14.76a14.59,14.59,0,0,0-3.06-2.4c2.64-3.78,2.94-8.58,2.94-12.42v-8.82h37Zm-30.47-25.5a31.85,31.85,0,0,1-6.66,6.66,16.41,16.41,0,0,0-2.58-1.8,27.21,27.21,0,0,0,6.24-5.64Zm7.32-7.44v3.36h5.58v2.64H964.54v-2.64h5.34v-3.36h-4.44v-2.58h4.44v-3.12h2.82v3.12h5.22v-3h2.76v3h4.38l.06,2.58Zm-15.84-12.54v3.6H981v-3.6Zm13.08,12.54H972.7v3.36h5.22Zm-4.08,18.48a206.46,206.46,0,0,1,22.32,3.12l-.78,2.76c-5.28-1.2-15.06-2.7-22.5-3.48Zm5.34-12.06a31.39,31.39,0,0,1,5.34,5.1l-2.46,1.74a26.32,26.32,0,0,0-5.28-5.46Zm14.34-18.18c0,2.94-1.08,6.12-5.46,8.4a14.89,14.89,0,0,0-2.58-2.22c4-1.92,4.74-4.14,4.74-6.3v-3.24h14.94v6.12c0,1.32.05,1.68.84,1.68h3a11.32,11.32,0,0,0,2.41-.24c0,.84.12,1.86.24,2.64a8.45,8.45,0,0,1-2.58.24h-3.72c-2.94,0-3.54-1.2-3.54-4.32v-3.24h-8.34Zm14.69,10a23.84,23.84,0,0,1-7.37,8.88,39.51,39.51,0,0,0,10.62,3.54,16.69,16.69,0,0,0-2.22,2.94,42.62,42.62,0,0,1-11.4-4.5,42,42,0,0,1-10.26,4.2,8.75,8.75,0,0,0-1.68-2.76,39,39,0,0,0,9.06-3.24,27.7,27.7,0,0,1-6.9-6.84l.36-.12h-1v-2.82h18.06l.6-.12Zm-16.49,2.1a24.16,24.16,0,0,0,6.18,5.16,22,22,0,0,0,5.58-5.16Z"/><path class="cls-4" d="M1045.48,1432c-1.44,3.6-3.12,7.8-4.62,11h8.7v3.66h-31.14v-3.66H1037a78.22,78.22,0,0,0,4.5-11.94Zm2.7-1.38h-28V1427h12.6a52.73,52.73,0,0,0-2.64-6.36l3.6-1A57,57,0,0,1,1037,1427h11.22ZM1022,1452.44h24.72v21.12h-3.9v-2.4h-17V1474H1022Zm5.82-9.72a46.8,46.8,0,0,0-3.9-10.56l3.48-.84a38.34,38.34,0,0,1,4,10.38Zm-2,13.32v11.52h17V1456Zm45.84-31.32c-2.16,5.46-5,12.3-7.56,17.88,5.46,5.7,6.84,10.32,6.84,14.52,0,3.36-.78,6.24-2.65,7.5a7.74,7.74,0,0,1-3.65,1.2,29.42,29.42,0,0,1-5.16.06,9.55,9.55,0,0,0-1.2-3.78,35.57,35.57,0,0,0,4.92.12,5.55,5.55,0,0,0,2.46-.66c1.2-.78,1.62-2.7,1.55-4.8,0-3.78-1.55-8.16-7-13.74,2.34-5.16,4.74-11.58,6.42-16.26H1056.4v47.7h-3.6V1423.1h15.41l.61-.18Z"/><path class="cls-4" d="M938,1448.67l-49.78,2.57c-15,.77-30,1.44-44.91,2.47-27.79,1.92-55.74,5.37-82.19,14.51a186.06,186.06,0,0,0-43.88,21.86c-1.58,1.08-.09,3.68,1.52,2.59a181,181,0,0,1,38.74-20,232.91,232.91,0,0,1,40.39-10.77c28-5,56.52-6,84.85-7.41l55.26-2.85c1.92-.1,1.93-3.1,0-3Z"/><path class="cls-4" d="M974.5,1594.78c0,2-.42,3.06-1.62,3.72s-3.3.72-6.72.66a15.74,15.74,0,0,0-1-3.42c2.4.06,4.5.06,5.16.06s1-.24,1-1v-18.84c-1.92,1.92-4,3.72-5.76,5.52l-1.8-3c-.42,7.26-1.5,15.18-3.9,21.36a9.34,9.34,0,0,0-2.58-2.52c3.18-8.64,3.48-20.4,3.48-29V1547h13.8ZM964,1568.26c0,3-.06,6.42-.24,10,2-1.5,4.68-3.72,7.5-6.12v-21.42H964v9.6l1.92-1.2a46.55,46.55,0,0,1,5.34,6.78l-2.52,1.68a44.25,44.25,0,0,0-4.74-6.54Zm26.46,8.82a77,77,0,0,1,4.44,15.54l-3.06,1.14a35.09,35.09,0,0,0-.66-3.72c-10.92,2-12.6,2.46-13.56,3a19.1,19.1,0,0,0-1.2-3.36c.84-.18,1.62-1.62,2.34-3.6a82.42,82.42,0,0,0,4-14h-6.48v-3.6h7.68v-9.84h-6.6V1555h6.6v-9.9h3.48v9.9h6.24v3.6H987.4v9.84h7.26v3.6h-8.28a97.76,97.76,0,0,1-5.28,16.44l9.36-1.44a70.38,70.38,0,0,0-2.88-9.12Zm20.09,7.86c0,2-.35,3.12-1.67,3.78s-3.24.78-6.06.78a16.45,16.45,0,0,0-1.26-3.78c2.22.06,4.14.06,4.73.06s.73-.24.73-.9v-32.76h-6.78v47.4H996.7v-51.18h13.85Z"/><path class="cls-4" d="M1040.86,1590.58c-7.92,2.1-16.32,4.44-22.38,6l-1-3.78,3.18-.72v-20.7H1024v19.92l5-1.32v-24.54h-8.52v-18h19.2v18h-7.08v8.64h7.44v3.6h-7.44V1589c2.52-.66,5.22-1.26,7.8-2Zm-16.8-28.68h12V1551h-12Zm47.87,16.56a75.37,75.37,0,0,1-10.67,7.26,25.44,25.44,0,0,0,11.63,9.84,17.35,17.35,0,0,0-2.64,3.48c-9.17-4.44-14.69-13.62-17.57-25.5h-6.06v20.28l11-2.7a22.19,22.19,0,0,0,.18,3.6c-12.48,3.42-14.22,4-15.36,4.8a15.14,15.14,0,0,0-1.8-3.36,4.16,4.16,0,0,0,2.1-4v-44.58h25.8v26H1056a44.06,44.06,0,0,0,3.6,9.3,80.78,80.78,0,0,0,9.78-7.14Zm-25.31-27.36v7.62h18.24v-7.62Zm0,18.9h18.24v-7.92h-18.24Z"/><path class="cls-4" d="M938,1570.64c-20.76-1.35-41.58-1.86-62.39-1.69-20.47.16-40.94,1-61.35,2.63-10.44.84-20.87,1.91-31.26,3.3a1.55,1.55,0,0,0-1.5,1.5,1.5,1.5,0,0,0,1.5,1.5c19.1-2.55,38.33-4.07,57.57-5q31.32-1.48,62.7-.77,17.37.39,34.73,1.5c1.93.12,1.92-2.88,0-3Z"/></svg>