<svg id="Layer_1" data-name="Layer 1" xmlns="http://www.w3.org/2000/svg" viewBox="0 0 1242 2208"><defs><style>.cls-1{fill:#f6eabe;}.cls-2{fill:#999;}</style></defs><rect class="cls-1" width="1242" height="2208"/><path d="M979.5,546.82H652.38V793c0,37.32-9.53,53.2-38.11,61.93-28.59,9.53-78.61,10.32-154.83,10.32-4-15.88-14.29-38.9-23.82-54.78,65.9,2.38,123.86,2.38,141.33,1.59,15.88-1.59,21.44-5.56,21.44-19.85V546.82H268.09v-52.4h330.3V378.5c69.07-31,150.86-82.58,208-130.22H347.49V196.67H863.58l11.12-3.17,39.7,30.17c-68.29,65.9-172.3,136.57-262,182.62v88.13H979.5Z"/><path d="M417.18,1872.67c-2.58,1.43-5.7,3-8.7,4.37,2.46,5.52,7.32,11.88,14.52,14.94a18.12,18.12,0,0,0-2.64,3.36c-7.5-3.66-12.54-11-15.06-16.86-1.2.54-2.4,1-3.48,1.38,4,7,3.12,13.86-1.14,16.62a9.52,9.52,0,0,1-6.12,1.74c-1.38,0-3.18-.06-5.1-.12a9.28,9.28,0,0,0-1.14-3.66,50.42,50.42,0,0,0,5.58.24,6.85,6.85,0,0,0,4.26-1c2.52-1.68,3.24-6,1.08-10.8-6.84,5.28-17.88,10.08-26.76,12.42a14.51,14.51,0,0,0-2.28-3.06c9.48-2.1,21.24-7,27.54-12.12a25.51,25.51,0,0,0-2.34-3c-5.82,3.9-14.88,7.32-21.9,9.06a15.75,15.75,0,0,0-2.34-2.94c7.38-1.44,16.62-4.68,22.08-8.16a31.09,31.09,0,0,0-3.66-2.88,94,94,0,0,1-15.42,5.64,14.31,14.31,0,0,0-2.28-2.76,84.06,84.06,0,0,0,17.76-5.93H375.78v-9.84c-1.2.84-2.4,1.55-3.72,2.34a14.11,14.11,0,0,0-2.64-2.76c8-4.32,14.16-10.32,17.34-15.24l4.26.84c-.84,1.2-1.68,2.28-2.7,3.48h13.56l.6-.24,2.76,1.8a40.15,40.15,0,0,1-4.8,6.48H416.7v13.14H395c-.72.47-1.5.95-2.28,1.43a28.71,28.71,0,0,1,7.32,6.78,101.21,101.21,0,0,0,13.92-7.13ZM379.56,1866H394v-6.83H379.56Zm5.88-14.87a59.64,59.64,0,0,1-5.28,4.86h15.66a38,38,0,0,0,3.84-4.86Zm27.36,8H397.62V1866H412.8Z"/><path d="M443.4,1881.36c-.84-1.68-2.82-4.86-4.5-7.5v24.36h-3.42v-23a59.31,59.31,0,0,1-5.94,7.56,12.92,12.92,0,0,0-2.1-3.12c5-5,10.32-13.49,13.2-21.47H429.3v-3.54h13l.72-.18,1.92,1.32a70.64,70.64,0,0,1-5.88,13.67c.48.66,1.14,1.5,1.74,2.41a43.12,43.12,0,0,0,3.66-5.95l2.4,1.87c-1.44,2.16-3.12,4.5-4.5,6.17,1.44,2.16,3,4.26,3.54,5.1Zm-5.34-27.83a53.55,53.55,0,0,0-4.68-7.8l2.82-1.5a37.45,37.45,0,0,1,4.92,7.56Zm8.76-7.56h11.64v16.56H451c-.24,3.42-.54,7.07-.9,10.14h8.1s0,1.19-.06,1.73c-.78,14.7-1.5,19.92-3,21.66a3.84,3.84,0,0,1-3.18,1.56,36.48,36.48,0,0,1-5.16,0,8.81,8.81,0,0,0-1-3.6c2.1.18,4,.24,4.8.24a1.94,1.94,0,0,0,1.74-.66c1-1.14,1.68-5.7,2.34-17.58h-8c.54-4.38,1-11.52,1.2-16.91h7.38v-9.72h-8.34Zm32.64,52a34.24,34.24,0,0,0-.84-3.36c-7,.66-13.92,1.26-19.26,1.8l-.6-3.72c2.7-.12,6.12-.3,9.84-.54v-9H461v-16.43h7.56v-6.84c-5.64.54-6.78.71-7.5,1-.24-.95-.72-2.87-1.08-4,.78-.12,1.5-1,2.4-2.16a48.84,48.84,0,0,0,5.64-10.32l3.3,1.26a61.68,61.68,0,0,1-6.72,11.39l12.18-1c-.9-1.68-1.86-3.36-2.82-4.8l2.64-1.32a83.79,83.79,0,0,1,5.76,10.26l-2.7,1.5c-.36-.84-.84-1.74-1.32-2.76l-6.3.59v7.21h7.8v16.43h-7.8v8.76l5.52-.36a56.16,56.16,0,0,0-2.4-5.7l2.88-1a47.56,47.56,0,0,1,4.5,11.94ZM464,1879.86h4.86v-9.95H464Zm12.72-9.95h-5v9.95h5Z"/><path d="M506.52,1868.83c-1.38,1.67-2.76,3.47-4,4.85,1.62,2.28,3.36,4.68,4,5.58l-2.22,2.7c-.9-1.74-2.94-4.86-4.68-7.5v24.12H496v-23.33a60.7,60.7,0,0,1-5.7,7,13.47,13.47,0,0,0-2.16-3.36,59.67,59.67,0,0,0,13.2-20.75H489.48v-3.54H503l.72-.18,2,1.38a73.79,73.79,0,0,1-6.12,13.73v.25l1.38,1.73a48.68,48.68,0,0,0,3-4.68Zm-8.4-15.42a42.54,42.54,0,0,0-4.68-7.8l2.82-1.44a35.58,35.58,0,0,1,4.92,7.5Zm20.1-8.46a96.63,96.63,0,0,1-3.36,11.4v42.17h-3.6v-34.14a51,51,0,0,1-3.36,5.29,17.47,17.47,0,0,0-2.28-3.3c4.2-5.46,7.26-13.74,9.06-22.2ZM532,1875.48v23H528.3v-23H517.14v-3.6H528.3v-7.13H520v-18.54h20v18.54h-8v7.13H542.4v3.6Zm-6.24,3A99.55,99.55,0,0,1,520.2,1894a33.14,33.14,0,0,0-2.82-1.92,79.9,79.9,0,0,0,5.1-14.46Zm-2.16-17.15h12.72v-11.7H523.56Zm13.86,16.43a78.34,78.34,0,0,1,5.46,14.46l-3.12,1.2a81.75,81.75,0,0,0-5.28-14.58Z"/><path d="M599.82,1854.55v27.77h-4.08v-3.48H577.92v19.56h-4.14v-19.56H556v3.78h-4v-28.07h21.72v-10.74h4.14v10.74Zm-26,20.33v-16.43H556v16.43Zm22,0v-16.43H577.92v16.43Z"/><path d="M625,1844.53c-1,2.94-2.1,6.3-3.18,8.88H632v38.75h-16.8v4.8h-3.66v-43.55h6.66a64.68,64.68,0,0,0,2.58-9.72Zm3.3,12.47H615.18v13.08h13.14Zm0,31.56v-14.88H615.18v14.88Zm33.06-33.17c-1,27.53-1.8,36.71-4.2,39.59a5.6,5.6,0,0,1-4.56,2.28,74.94,74.94,0,0,1-8.82-.12,9.42,9.42,0,0,0-1.32-3.9c3.9.36,7.5.36,8.82.36s1.92-.12,2.52-.9c2-2.1,2.94-11.34,3.72-35.7H641.82a55.33,55.33,0,0,1-5.64,10.68,36.22,36.22,0,0,0-3.36-2.22c4.08-5.33,7.32-13.61,9.18-21.89l3.84.84c-.78,3-1.62,6-2.64,8.88h18.18Zm-12.78,27a106.51,106.51,0,0,0-9.3-13.92l3.06-1.79a102.47,102.47,0,0,1,9.6,13.61Z"/><path d="M682.86,1859.53c-1.92,8.64-5.46,19.37-10.92,26a23.08,23.08,0,0,0-3.72-2.16c5.46-6.3,8.76-16.61,10.26-24.65Zm15.48-14.76v48c0,3.06-.84,4.32-2.82,5s-5.76.72-11.28.72a18.75,18.75,0,0,0-1.68-4.14c4.44.12,8.76.12,9.9.06s1.74-.42,1.74-1.68v-48Zm13.92,13.56c5.34,8.39,10.44,19.31,11.94,26.45l-4.14,1.74c-1.5-7-6.3-18.18-11.52-26.75Z"/><path d="M740.58,1868.58a29.49,29.49,0,0,1-8.34,8.28,16.92,16.92,0,0,0-2.7-2.28,25.1,25.1,0,0,0,7.68-6.9Zm31.62,9.3c-.18.48-.42,1-.66,1.56h10.8v3.42H769.86a24.58,24.58,0,0,1-7.8,7.92c7.68,1.68,14.7,3.36,20,4.92l-3.42,2.76c-5.22-1.68-12.48-3.48-20.94-5.28-6.48,2.94-15.06,4.56-26,5.34a10.7,10.7,0,0,0-1.56-3.48c8.58-.48,15.54-1.5,21.18-3.18-4.38-.9-9.06-1.74-13.8-2.58,1.68-1.86,3.54-4.08,5.34-6.42H730v-3.42h15.3a54.09,54.09,0,0,0,3.24-5.46l4.08,1a51.76,51.76,0,0,1-2.7,4.44h17.46c.42-.9.84-1.74,1.2-2.7ZM753.06,1867H733v-20.69h20.1Zm-3.66-18H736.56v3.3H749.4Zm0,5.88H736.56v3.42H749.4Zm0,6H736.56v3.49H749.4Zm-1.92,22c-1.26,1.62-2.46,3.18-3.6,4.56,4.26.66,8.58,1.5,12.78,2.34a24.1,24.1,0,0,0,8.58-6.9Zm.24-15.72a33.39,33.39,0,0,1,5.4,5l-2.88,1.79a29.51,29.51,0,0,0-5.34-5.21Zm18.6,1.5a32.22,32.22,0,0,1-8.64,8,14.11,14.11,0,0,0-3-2.23,25.25,25.25,0,0,0,8.16-6.65ZM779,1867H758.58v-20.69H779Zm-3.78-18H762.18v3.3h13.08Zm0,5.88H762.18v3.42h13.08Zm0,6H762.18v3.49h13.08ZM774,1867a44.77,44.77,0,0,1,8.7,7.19l-3,1.92a60,60,0,0,0-8.46-7.38Z"/><path d="M835.68,1894.5c2.64,0,3.06-1.32,3.36-9.66a12.17,12.17,0,0,0,3.66,1.38c-.48,9.18-1.68,11.34-6.66,11.34h-9.72c-5.4,0-6.9-1.08-6.9-5.22v-17.16h-7.26c-1.38,12.18-5.16,19.56-20.76,23.34a9.7,9.7,0,0,0-2.34-3.12c14.46-3.18,17.7-9.6,18.72-20.22H795.84v-25.85c5.52-1.38,11.82-3.3,15.42-5.1l3.3,2.82a105.8,105.8,0,0,1-14.46,4.32v7.92h13v3.59h-13v8.58h32.64v-8.58H819.48v-3.53h13.26v-7.62H818.52V1848h18.12v27.17H823.5v17.22c0,1.8.48,2.1,3.18,2.1Z"/><path d="M854.88,1879.5c4.68-2,7.26-4.86,7.56-9.17a4,4,0,0,1-1.14.11c-2.34,0-4.26-1.31-4.26-4.07a4,4,0,0,1,4.32-4.08c3.18,0,4.86,2.58,4.86,6.66,0,6.41-4,11.21-10.08,13.43Z"/><path d="M403.86,1929.54a35.24,35.24,0,0,1-3.24,3.91,18.48,18.48,0,0,0-2.28-2.76c3.78-3.61,7-9.18,8.94-14.82l3.3.84c-.78,2-1.68,4.14-2.58,6.06h7.44a54.36,54.36,0,0,0-2.76-5.64l3.24-1a56.32,56.32,0,0,1,3.3,6.6h6v2.88H417.9v3.72H424v1.44c3.66-3.73,6.84-9.36,8.88-14.94l3.24.9a48.76,48.76,0,0,1-2.64,6.06h7.44c-.78-1.74-1.8-3.84-2.7-5.52l3.24-.9a58.59,58.59,0,0,1,3.24,6.42h6.9v2.82h-8.4v3.72h7.14v2.76h-7.14v3.71h7.14v2.76h-7.14v3.73h9.36v2.88h-23v-15.6a42.38,42.38,0,0,1-3.48,4.31,29.4,29.4,0,0,0-2-2.39v.54H417.9v3.77H424v2.7H417.9v3.79h8v2.81H403.86Zm42.3,20.88c-3.24,4.92-8.16,8.76-14,11.76a98.38,98.38,0,0,0,20.4,4,16.33,16.33,0,0,0-2.52,3.84,90.47,90.47,0,0,1-23.1-5.52c-8,3.24-17.34,5.1-26.28,6.12a16.6,16.6,0,0,0-1.62-3.66,106.83,106.83,0,0,0,23.22-4.56,40.59,40.59,0,0,1-12.84-9.84l.66-.3h-7.74v-3.36H442.8l.78-.23Zm-31.62-24.77h-7.2v3.72h7.2Zm0,6.42h-7.2v3.77h7.2Zm0,6.47h-7.2v3.79h7.2Zm-.18,13.68a38.38,38.38,0,0,0,13,8.16,35.54,35.54,0,0,0,12.36-8.16Zm25.44-26.57H433v3.72h6.84Zm0,6.48H433v3.71h6.84Zm0,6.47H433v3.73h6.84Z"/><path d="M475.44,1965.78c0,2-.42,3.06-1.62,3.72s-3.3.72-6.72.66a15.74,15.74,0,0,0-1-3.42c2.4.06,4.5.06,5.16.06s1-.24,1-1v-18.84c-1.92,1.92-4,3.72-5.76,5.52l-1.8-3c-.42,7.26-1.5,15.18-3.9,21.36a9.34,9.34,0,0,0-2.58-2.52c3.18-8.64,3.48-20.4,3.48-29V1918h13.8Zm-10.5-26.52c0,3-.06,6.42-.24,10,2-1.5,4.68-3.72,7.5-6.11v-21.42h-7.26v9.6l1.92-1.2a47.06,47.06,0,0,1,5.34,6.77l-2.52,1.68a44.2,44.2,0,0,0-4.74-6.53Zm26.46,8.82a77,77,0,0,1,4.44,15.54l-3.06,1.14a35.09,35.09,0,0,0-.66-3.72c-10.92,2-12.6,2.46-13.56,3a19.1,19.1,0,0,0-1.2-3.36c.84-.18,1.62-1.62,2.34-3.6a82.42,82.42,0,0,0,4-14h-6.48v-3.59h7.68v-9.84h-6.6V1926h6.6v-9.9h3.48v9.9h6.24v3.6h-6.24v9.84h7.26V1943h-8.28a97.76,97.76,0,0,1-5.28,16.44l9.36-1.44a70.38,70.38,0,0,0-2.88-9.12Zm20.1,7.86c0,2-.36,3.12-1.68,3.78s-3.24.78-6.06.78a16.45,16.45,0,0,0-1.26-3.78c2.22.06,4.14.06,4.74.06s.72-.24.72-.9v-32.75h-6.78v47.39h-3.54v-51.17H511.5Z"/><path d="M536.4,1954.44c-1.08-1.86-3.54-5.58-5.58-8.46v24.42H527.1v-23.82a56.29,56.29,0,0,1-7.08,7.74,11.85,11.85,0,0,0-1.92-3.54c5.58-4.68,11.58-12.83,14.94-20.63H518.58v-3.66h16.26l.66-.18,2,1.56a67.06,67.06,0,0,1-6.72,13.38v0c.54.61,1.2,1.45,1.92,2.41a56.82,56.82,0,0,0,4.8-5.83l2.52,2.22c-1.92,2-4,4.15-5.7,5.7,1.8,2.28,3.54,4.62,4.2,5.58Zm-7.14-28.37a66.87,66.87,0,0,0-4.56-8.52l3-1.44a59.65,59.65,0,0,1,4.74,8.1Zm41,14.1a43.07,43.07,0,0,1-10,19.19,35.15,35.15,0,0,0,13.44,7.5,13.76,13.76,0,0,0-2.46,3.42,37.16,37.16,0,0,1-13.62-8.22,43.22,43.22,0,0,1-13.68,8.4,12,12,0,0,0-2.22-3.24,37.79,37.79,0,0,0,13.32-7.86,46.92,46.92,0,0,1-9.06-16.44h-.84c-.18,8.58-1.62,19.5-7.62,27.12a11.46,11.46,0,0,0-2.88-2.52c6.18-7.92,6.9-18.89,6.9-27.18v-15.53H554.4v-8.94h3.78v8.94h11.28l.66-.18,2.76.78a119.61,119.61,0,0,1-3.84,11.81l-3.42-.84c.78-2,1.68-5,2.46-7.85h-9.9v10.8h8.94l.72-.19Zm-25-11.64v10.8h9.18v-10.8Zm4.38,14.39a39.46,39.46,0,0,0,8,13.8,37.2,37.2,0,0,0,7.92-13.8Z"/><path d="M592.14,1927.75a57.17,57.17,0,0,1-10.44,11.46c-.72-.67-2.34-2.17-3.3-2.88a52.17,52.17,0,0,0,16-20.82l4,1.14a75.5,75.5,0,0,1-3.78,7.26h33.54s0,1.44-.06,2c-.66,20.15-1.32,27-2.94,29.21a5,5,0,0,1-3.72,1.86,54.87,54.87,0,0,1-7-.06,10.51,10.51,0,0,0-1.08-3.78c2.7.24,5.22.24,6.18.24a2.21,2.21,0,0,0,2-.78c1.2-1.5,1.86-7.62,2.4-24.83Zm30.78,37.67c5.16,0,6.06-1.38,6.66-7.68a11.19,11.19,0,0,0,3.78,1.44c-.78,7.8-2.46,10-10.44,10H599.7c-9.06,0-11.82-1.56-11.82-7.86v-27h24.24v17.45H591.84v9.6c0,3.24,1.14,4.08,7.56,4.08Zm-31.08-27.54v10.2h16.44v-10.2Z"/><path d="M685.74,1955.16a72.89,72.89,0,0,1-8.46,5,46.88,46.88,0,0,0,16.26,6,16.35,16.35,0,0,0-2.22,3.12c-11-2.34-20.46-7.86-25.74-16a55.13,55.13,0,0,1-9.36,5v7.2L667,1962.6a16.15,16.15,0,0,0,.18,3.06c-12.3,3.54-14,4.08-15,4.74a14.06,14.06,0,0,0-1.62-2.94,4.65,4.65,0,0,0,1.86-4.08v-3.54c-3.66,1.32-7.56,2.58-11.58,3.66a15.75,15.75,0,0,0-2.34-2.94c10.86-2.58,21.18-6.6,26.7-11.28H664v-4.38H640.74v-3H664v-2.65H646.44v-13.55h39.18v13.55H668v2.65h23.58v3H668v4.38h-2l3.12,1.32a6.06,6.06,0,0,1-1,.78,25.2,25.2,0,0,0,6.48,6.9,67.34,67.34,0,0,0,8.22-5.28Zm6.12-32H640.32V1920h24.36c-.54-1.2-1.26-2.46-1.86-3.54l3.54-.84a40.23,40.23,0,0,1,2.46,4.38h23Zm-32,23.69c-4,2.82-11.28,5.1-17.1,6.36a13,13,0,0,0-2-2.52c5.82-1,12.72-2.7,16.32-4.91Zm-9.54-15.53H664v-3.18H650.28Zm13.68,5.58v-3.24H650.28v3.24Zm17.7-8.76H668v3.18h13.68Zm0,5.52H668v3.24h13.68Zm-8.7,12a96.6,96.6,0,0,1,18.84,5.51l-1.68,2.4c-4.2-2-12.36-4.44-18.72-5.82Z"/><path d="M715.5,1963.32c3.54,1.38,8,1.8,13.8,1.8,2.58,0,21.24,0,24.6-.12a14.88,14.88,0,0,0-1.62,3.9H729.42c-13.14,0-20.16-2-24.42-10.56a38.91,38.91,0,0,1-3.78,12.6,28.22,28.22,0,0,0-3.3-2c3.54-6,4.2-15.54,4.44-26.16l3.78.24c-.12,2.94-.24,5.76-.42,8.4,1.38,4.62,3.3,7.74,6.06,9.78v-23.39H699.12v-3.54h11.7v-8H700.68v-3.48h10.14v-6.9h3.78v6.9h9.9v3.48h-9.9v8H726v3.54H715.5v9.3h10v3.59h-10Zm20.22-3.3c-5.34,0-7-1.26-7-6.54V1920h21.48v20.63H732.6v12.9c0,2.34.54,2.88,3.48,2.88H746.7c2.34,0,2.82-1.26,3.06-7.14a11.32,11.32,0,0,0,3.6,1.56c-.54,7.14-1.68,9.24-6.48,9.24Zm-3.12-36.53V1937h13.74v-13.5Z"/><path d="M787.86,1942.63c5.34,9.17,15.54,17.81,25.68,21.65a14.63,14.63,0,0,0-2.88,3.54c-8.46-3.72-16.86-10.74-22.8-18.78v21.42h-4V1949.1a63.16,63.16,0,0,1-22.5,18.48,17.92,17.92,0,0,0-2.82-3.3,58.29,58.29,0,0,0,25.32-21.3v-14.75H760.56v-3.9h23.28v-8.4h4v8.4h24.06v3.9H787.86ZM775,1930.5a48.37,48.37,0,0,1-2.4,7.21,79.05,79.05,0,0,1,7,6.83l-2.76,2.71a67.8,67.8,0,0,0-5.88-6.07,32.44,32.44,0,0,1-7.74,9.6c-.66-.66-2.28-1.92-3.12-2.58,5.46-4.07,9.24-10.62,11-18.41Zm28.26,0a53.26,53.26,0,0,1-2.1,7.2,126.18,126.18,0,0,1,11,9.48l-2.82,2.75a100,100,0,0,0-9.72-8.93,28.54,28.54,0,0,1-5.46,7.49,22.47,22.47,0,0,0-3.36-2.22c4.44-3.72,7.26-9.59,8.58-16.43Z"/><path d="M824.88,1951.5c4.68-2,7.26-4.86,7.56-9.17a4,4,0,0,1-1.14.11c-2.34,0-4.26-1.31-4.26-4.07a4,4,0,0,1,4.32-4.08c3.18,0,4.86,2.58,4.86,6.66,0,6.41-4,11.21-10.08,13.43Z"/><path d="M270.42,2026.44a68.66,68.66,0,0,1-18.18,16.26,34.82,34.82,0,0,0-3.12-2.82c6.48-3.72,13.62-9.72,17.16-14.94Zm25.92-34.07v26.76H255.78v-26.76Zm-36.54,22.92h32.34v-19.14H259.8Zm25.32,9.47c6,4.56,13.56,11,17.28,15.36l-3.6,2.46c-3.48-4.38-10.92-11-17-15.78Z"/><path d="M359,2014.5a27,27,0,0,1-8.22,8.88,49.5,49.5,0,0,0,13.2,4.38,9.55,9.55,0,0,0-2.16,2.88c-1.38-.3-2.7-.66-4-1v12.78H354.3v-1.5H341.46v1.56H338v-12.6c-1.32.42-2.58.78-3.84,1.14a9.24,9.24,0,0,0-1.62-2.58v2.88h-8v6l9.42-1,.06,3.06c-8.7,1-17.7,2-24.12,2.7l-.48-3.3,3.54-.36v-12.18h3.18v11.88l4.92-.54v-13.5h-7.74v-11.34H332.1v11.34h-7.56v4.26h7.86l-.06-.06a52.26,52.26,0,0,0,12.84-4.86,26,26,0,0,1-5.1-4.73,35.4,35.4,0,0,1-5.16,3.77,11.25,11.25,0,0,0-2.34-2.16,28.67,28.67,0,0,0,10.8-9.9l3.3.54c-.54.84-1.14,1.68-1.68,2.53h11.22l.6-.19Zm-44.28-6.71h-3.84v-11.28h23v-3.42H313.2v-2.82h45.66v2.82H337.8v3.42h23.46v11.28h-4v-8.52H337.8v12.41h-3.9v-12.41H314.76Zm1.68,0c3.72-.49,8.88-1.26,14.22-2l.12,2.46c-4.68,1-9.24,1.86-13.2,2.51Zm.24,13.55h11.94v-5.76H316.68Zm2.7-21.47a56.12,56.12,0,0,1,11,3.3l-1.14,2.33a57.5,57.5,0,0,0-11-3.59Zm37.38,29.39a41.51,41.51,0,0,1-8.76-4,53.68,53.68,0,0,1-8.4,4Zm-1.86-18.35a86.13,86.13,0,0,0-14-3.24l.9-2.29a79.77,79.77,0,0,1,14,2.95Zm-.36-9a71.29,71.29,0,0,1-11.88,3.47l-1.38-1.85c3.48-.84,8.58-2.7,11.52-3.78Zm-.24,36.23V2032H341.46v6.18Zm-12.18-21.3a26.52,26.52,0,0,0,5.82,4.92,25.39,25.39,0,0,0,6.18-5.51H342.66Z"/><path d="M419.4,2017.63v24.77h-4.32v-3.48H372.66v-21.29H377V2035h16.8v-21.3H375.24v-20.33h4.14v16.44h14.4v-22h4.32v22h14.64v-16.5h4.32v20.39h-19V2035h17v-17.39Z"/><path d="M459.42,2009.22c4.26,13.5,12.18,24.6,23.76,29.46a20.09,20.09,0,0,0-2.94,3.72c-11.7-5.52-19.56-16.62-24.18-30.65-2.82,11.87-9.24,23.87-24.18,30.71a15.58,15.58,0,0,0-3-3.3c15.06-6.54,21.06-18.42,23.52-29.94H430v-4.07h23.16a123.53,123.53,0,0,0,1-17.22h4.2a133,133,0,0,1-1,17.22h25v4.07Z"/><path d="M519.42,2009.22c4.26,13.5,12.18,24.6,23.76,29.46a20.09,20.09,0,0,0-2.94,3.72c-11.7-5.52-19.56-16.62-24.18-30.65-2.82,11.87-9.24,23.87-24.18,30.71a15.58,15.58,0,0,0-3-3.3c15.06-6.54,21.06-18.42,23.52-29.94H490v-4.07h23.16a123.53,123.53,0,0,0,1-17.22h4.2a133,133,0,0,1-1,17.22h25v4.07Z"/><path d="M565,1988.53c-1,2.94-2.1,6.3-3.18,8.88H572v38.75h-16.8v4.8h-3.66v-43.55h6.66a64.68,64.68,0,0,0,2.58-9.72Zm3.3,12.47H555.18v13.08h13.14Zm0,31.56v-14.88H555.18v14.88Zm33.06-33.17c-1,27.53-1.8,36.71-4.2,39.59a5.6,5.6,0,0,1-4.56,2.28,74.94,74.94,0,0,1-8.82-.12,9.42,9.42,0,0,0-1.32-3.9c3.9.36,7.5.36,8.82.36s1.92-.12,2.52-.9c2-2.1,2.94-11.34,3.72-35.7H581.82a55.33,55.33,0,0,1-5.64,10.68,36.22,36.22,0,0,0-3.36-2.22c4.08-5.33,7.32-13.61,9.18-21.89l3.84.84c-.78,3-1.62,6-2.64,8.88h18.18Zm-12.78,27a106.51,106.51,0,0,0-9.3-13.92l3.06-1.79a102.47,102.47,0,0,1,9.6,13.61Z"/><path d="M633.54,2033.7c-8.52,2-17.46,4-24,5.34l-1-3.72c6.18-1.14,15.6-3.06,24.72-5Zm-.72-38.81h-23.4v-3.72h23.4Zm-1.44,21.9H611v-16h20.34Zm-16.44,14.45A41.62,41.62,0,0,0,612.6,2020l3.24-.78a37.26,37.26,0,0,1,2.58,11.16Zm12.78-27h-13.2v9.23h13.2ZM623,2030.76a85,85,0,0,0,2.7-12.12l3.9,1c-1.08,4.07-2.4,8.93-3.54,12Zm22.5,3.9c-3.18,3.12-8.46,6.12-13.08,7.86a22.91,22.91,0,0,0-2.7-2.7c4.68-1.56,9.84-4.56,12.24-7.14Zm-.72-34.43c.48-1.86,1-4,1.26-5.94H634.44v-3.54h28.74v3.54H650.4c-.54,2-1.14,4.14-1.74,5.94H661.2v31H636.36v-31Zm12.66,3.18H640v6.17h17.4Zm0,9.11H640v6.24h17.4Zm0,9.3H640v6.24h17.4ZM654.06,2033a75.29,75.29,0,0,1,10.32,7.38l-3.24,2.16A66.38,66.38,0,0,0,651,2034.9Z"/><path d="M685.14,2005.45h10.74v3.72H685.14v1.62c2.22,2.39,8.7,10,10.14,11.87l-2.46,3.24a129,129,0,0,0-7.68-10.49v26.93h-4v-27.17c-3,7.07-7.2,14.21-11.1,18.41a28.3,28.3,0,0,0-2.22-3.66c4.56-4.62,9.6-13.08,12.36-20.75H669.24v-3.72h11.88v-10.32c-3.42.54-6.9,1-10.14,1.44a15.29,15.29,0,0,0-1.08-3.18c7.92-1.08,17.52-2.82,22.68-5l2.76,3.12a83.55,83.55,0,0,1-10.2,2.82Zm34.74-12.06v46.07h-4v-4.56h-14v5H698v-46.49Zm-4,37.67v-33.83h-14v33.83Z"/><path d="M757.56,1995.37v7.92h22.26v34.31c0,2.28-.54,3.48-2.22,4.08s-4.68.66-8.94.66a14.79,14.79,0,0,0-1.38-3.6c3.42.12,6.54.12,7.5.06s1.14-.3,1.14-1.2V2007H757.56v35.1h-3.78V2007h-17.4v35.34h-3.84v-39h21.24v-7.92h-23.4v-3.9h51.54v3.9Zm-9.84,16.43c0,6.12.42,13.92,5.76,20a8.65,8.65,0,0,0-2.28,1.8A23.88,23.88,0,0,1,746,2022.3a27.16,27.16,0,0,1-6.24,11.4,14.22,14.22,0,0,0-2.34-1.8c4.08-3.9,6.24-9.9,7.2-17.15h-3.9v-3Zm21.12,0c0,6.18.48,13.92,6.24,19.92a11.7,11.7,0,0,0-2.4,1.74,23.65,23.65,0,0,1-5.58-11.64,27.62,27.62,0,0,1-6.18,11.46,15,15,0,0,0-2.34-1.8c4-3.84,6.06-9.72,7.08-16.73h-4.08v-3Z"/><path d="M796.8,2002.81a51.81,51.81,0,0,1-5.76,6.06,19,19,0,0,0-3.06-2.64,50.31,50.31,0,0,0,13.8-18.54l3.72,1.14a54,54,0,0,1-3.18,6.12H817a49.89,49.89,0,0,0-3.12-5.88l3.66-1.08a49.49,49.49,0,0,1,3.72,7H838.5v3.18H819.18v4.2H836.4v2.88H819.18v4.25H836.4v2.88H819.18v4.33h20.28v3.11H800.52v1.86H796.8Zm38.28,22.13c-3.12,4.32-7.86,7.68-13.44,10.26a103.56,103.56,0,0,0,20.7,3.42,15.5,15.5,0,0,0-2.22,3.48,96.13,96.13,0,0,1-23.46-4.86c-8,2.88-17.22,4.38-26,5.22a14.88,14.88,0,0,0-1.5-3.48,107.35,107.35,0,0,0,22.62-3.78,35.1,35.1,0,0,1-11.76-8.28l.12-.06h-8.64v-3.3H832l.66-.24Zm-19.8-26.81H800.52v4.2h14.76Zm0,7.08H800.52v4.25h14.76Zm0,7.13H800.52v4.33h14.76Zm-10.5,14.52a37.11,37.11,0,0,0,11.94,6.78,37,37,0,0,0,11.88-6.78Z"/><path d="M902.94,2022.72H878.1v14c0,3-1,4.2-3.06,4.86s-5.94.72-12.3.66a17.27,17.27,0,0,0-1.74-3.9c5.16.12,9.84.06,11.16.06s1.86-.48,1.86-1.74v-13.92H849.18v-3.9H874v-10.19H853.14v-3.84H874v-9.6c-6.66.66-13.56,1.14-19.8,1.44a16.18,16.18,0,0,0-1-3.54c14.16-.72,31.8-2.28,40.74-5.16l2.94,3.24a123.25,123.25,0,0,1-18.78,3.6v10h21.48v3.84H878.1v10.19h24.84Z"/><path d="M915.6,2004.42a22.3,22.3,0,0,1-4.44,9.79,10.13,10.13,0,0,0-2.7-2.34c3.84-4.68,4.44-10.8,4.44-15.3v-6.18h20.88v9.78H916.2a19.25,19.25,0,0,1-.42,3.18h18.48v11H915.6Zm40,33.78c0,2.28-.6,3.24-2.4,3.84s-4.86.48-9.54.48a15,15,0,0,0-1.38-3.24c3.72.18,7.08.12,8,.06s1.32-.3,1.32-1.08v-6.42c-10.26,1.86-20.94,3.72-28.8,5l-1.08-3.24c7.26-1,18.9-2.58,29.88-4.2V2020h-30.3v7.08c0,4.92-.54,11.58-3.66,16.26a15.67,15.67,0,0,0-3.12-2.46c2.7-4.08,3-9.66,3-13.86v-9.9h38.1Zm-39.18-45.11v4.38H930.3v-4.38Zm2.58,18.48h11.76V2006H919Zm5.52,11c7.5.72,17.7,2.16,23.1,3.3l-.78,2.7c-5.46-1.14-15.54-2.76-23.22-3.66Zm26.76-19.14v3.91h10.44v2.88H951.24v5.27h-3.78v-5.27H936.78v-2.88h10.68v-3.91H935.4v-2.93h7.5a21.18,21.18,0,0,0-2.1-4.44l2.94-.6a19.52,19.52,0,0,1,2.46,5h5.94a37.43,37.43,0,0,0,2.4-5l3.3.78c-.78,1.5-1.56,2.94-2.34,4.2h7.8v2.93Zm10.38-8.75H936.84v-2.88h10.74a21,21,0,0,0-1.44-3.36l3.54-.72a21.07,21.07,0,0,1,1.92,4.08h10Z"/><path d="M981.18,2006.17a9.06,9.06,0,1,1-9.06,9A9.09,9.09,0,0,1,981.18,2006.17Zm0,15.23a6.18,6.18,0,1,0,0-12.36,6.18,6.18,0,1,0,0,12.36Z"/><rect class="cls-2" x="1133" y="1258.5" width="65" height="220" rx="12"/><path class="cls-1" d="M1177.05,1297.29a27.61,27.61,0,0,0,11.5,8.1,11.65,11.65,0,0,0-2.15,2.55,30.77,30.77,0,0,1-12.8-10.65h-15.95a34.39,34.39,0,0,1-13,11.3,11.43,11.43,0,0,0-2.15-2.55,30.39,30.39,0,0,0,11.6-8.75H1143v-2.85h10v-16.15h-7.7v-2.8h7.7v-5h3.3v5h18.55v-5h3.35v5h7.65v2.8h-7.65v16.15h9.8v2.85Zm-10,14.5h17.3v2.85H1146.8v-2.85h16.9v-5.6h-10.45v-2.8h10.45V1299h3.35v4.4h10.65v2.8h-10.65Zm-10.8-33.5v3.6h18.55v-3.6Zm0,9.8h18.55v-3.65h-18.55Zm0,6.35h18.55v-3.8h-18.55Z"/><path class="cls-1" d="M1161.25,1339s0,1.15,0,1.55c-.6,15.85-1.2,21.2-2.6,23a3.71,3.71,0,0,1-2.8,1.45,32.65,32.65,0,0,1-4.45,0,9.25,9.25,0,0,0-.85-3c1.75.15,3.2.15,3.9.15a1.42,1.42,0,0,0,1.45-.65c1-1.2,1.6-6,2.15-19.35h-6.8c-.55,10-2,18.25-6.45,23.65a9.53,9.53,0,0,0-2.55-2.35c5.45-6.45,5.9-17.85,6.1-31.55h-5.2v-3.1h20.1v3.1h-11.65c0,2.45-.1,4.85-.2,7.15Zm-7.9-10.45a33.47,33.47,0,0,0-4.25-7.15l2.9-1.15a31.92,31.92,0,0,1,4.4,7Zm23.85-7.45a15.26,15.26,0,0,1-.85,2.55c2.65,5.45,7.7,11.35,12.45,14a13,13,0,0,0-2.45,2.75c-4.25-2.7-8.5-8-11.4-13.3a32.61,32.61,0,0,1-11,13.6,12.79,12.79,0,0,0-2.35-2.65c5.85-3.6,10.35-10.2,12.5-17.85Zm-8.3,32.45a74,74,0,0,1,13.6,8.25l-2.25,2.9c-2.85-2.6-8.75-6.3-13.4-8.65Zm9.5-4.85a66.22,66.22,0,0,0-8.6-6.85l2.15-2.2a67.46,67.46,0,0,1,8.75,6.55Z"/><path class="cls-1" d="M1168.6,1371.44c-.35.6-.8,1.15-1.2,1.75,4.95,5.5,13.85,10.9,21.4,13.3a16.56,16.56,0,0,0-2.35,2.9,60.7,60.7,0,0,1-21-13.9,48.65,48.65,0,0,1-12.4,10h25.1v3.1h-11.1v7.05h17.75v3H1167.1v12.7H1187v3.1h-43v-3.1h19.55v-12.7h-17.35v-3h17.35v-7.05h-10.9v-2.9a58.72,58.72,0,0,1-8.25,3.85,11.79,11.79,0,0,0-2.25-3c9.35-3.1,18.55-9.1,23.3-16.5Zm-15.25,28.65a42.46,42.46,0,0,1,4.8,9.1l-2.9,1.2a40.78,40.78,0,0,0-4.65-9.2Zm18.55,9.3a71.79,71.79,0,0,0,5.35-9.35l3.15,1.25a101.62,101.62,0,0,1-6,9.2Z"/><path class="cls-1" d="M1180,1432.59a51.83,51.83,0,0,1-12,19.6,49.94,49.94,0,0,0,20.5,10.5,16.79,16.79,0,0,0-2.25,3,50.92,50.92,0,0,1-20.75-11.1c-5.65,5-12.55,8.6-21,11.3a15.53,15.53,0,0,0-2-3.05c8.35-2.45,15.1-5.9,20.6-10.6a57.05,57.05,0,0,1-12.2-19.65h-7.75v-3.25h44.75v3.25Zm-25.75,0a52.13,52.13,0,0,0,11.3,17.3,47.46,47.46,0,0,0,10.7-17.3Zm11.25-3.55a38.13,38.13,0,0,0-3.8-7.8l3.4-1a39,39,0,0,1,4,7.65Z"/><rect class="cls-2" x="1135" y="452.5" width="65" height="126" rx="12"/><path class="cls-1" d="M1154.7,482.32c1.25,1.6,4.9,6.7,5.7,8.05l-2,2.45c-.7-1.5-2.35-4.4-3.75-6.65v26.35h-3.15V488.07c-1.5,5.05-3.5,9.9-5.55,12.85a14.83,14.83,0,0,0-1.75-3.1c2.9-4,5.8-11.5,7.2-18h-6.2v-3.15h6.3V467h3.15v9.65h5.45v3.15h-5.45Zm19.1.7a19.47,19.47,0,0,0,.45,2.65c-10.15,2.7-11.6,3.15-12.5,3.75a12.13,12.13,0,0,0-1.1-3.2c.7-.2,1.55-.5,1.55-2.2v-16.7h3.25v6.5h8.35v2.9h-8.35V485Zm2.35,5.5-2,3.75h12.65v20.25h-3.4v-1.75h-17v2h-3.3V492.27h7.9c.55-1.5,1.2-3.25,1.55-4.6Zm7.3,6.5h-17v5.05h17Zm0,13v-5.3h-17V508Zm2.25-22.4c1.25,0,1.5-.75,1.65-5.25a9.16,9.16,0,0,0,2.85,1.25c-.3,5.45-1.2,6.95-4.15,6.95h-5.85c-3.65,0-4.55-.95-4.55-4.45V467.37h3.25v6.5h10.2v2.9h-10.2v7.35c0,1.3.25,1.5,1.65,1.5Z"/><path class="cls-1" d="M1189.55,542.37v2.5H1145.4v-2.5h20.25v-3.2H1148.8v-2.3h16.85v-3H1150.2v-2.25h15.45v-3.2H1145.5v-2.5h20.15v-3H1150.8v-2.35h14.85V517h3.25v3.55h14.45v5.4h6.15v2.5h-6.15v5.45H1168.9v3h17.3v2.3h-17.3v3.2Zm-37.75,5h31.75v15.25h-3.25V561H1155v1.7h-3.2Zm3.2,2.4V553h25.3v-3.2Zm25.3,8.85v-3.4H1155v3.4Zm-11.4-32.7h11.15v-3H1168.9Zm0,5.7h11.15v-3.2H1168.9Z"/><path d="M536.33,1263.44c-1.2.62-2.4,1.21-3.64,1.75l6.09-2.57a51.18,51.18,0,0,1-12.33,3.41l6.78-.91a61,61,0,0,1-15.8-.12l6.78.91a78.88,78.88,0,0,1-18.64-5.28l6.09,2.57a98.46,98.46,0,0,1-21.42-12.64l5.16,4a122.34,122.34,0,0,1-20.49-20.76l4,5.16a135.9,135.9,0,0,1-17-29.14l2.57,6.09a140.66,140.66,0,0,1-9.72-35.4l.91,6.78a135.32,135.32,0,0,1-.12-34.71l-.91,6.77a124.28,124.28,0,0,1,8.56-31.61l-2.57,6.09a129.58,129.58,0,0,1,16.56-28l-4,5.16a139.42,139.42,0,0,1,23.79-23.72l-5.16,4a140,140,0,0,1,30.63-18l-6.09,2.57a130.92,130.92,0,0,1,32.31-8.92l-6.78.91c10.71-1.42,21.6-1.39,32.38-1.27a304.56,304.56,0,0,1,35.59,2.35L603,1068c18,2.42,34.74,7.66,51.44,14.62l-6.09-2.57a142.21,142.21,0,0,1,31.35,17.8l-5.17-4a86,86,0,0,1,15.07,15l-4-5.16a83.37,83.37,0,0,1,10.25,17.52l-2.57-6.09a85.81,85.81,0,0,1,5.81,21.2l-.91-6.78a91,91,0,0,1,0,23.2l.91-6.78a107.05,107.05,0,0,1-7.55,26.81l2.57-6.09a158.88,158.88,0,0,1-20.65,34.48l4-5.16a274,274,0,0,1-26.81,29.26c-9.72,9.3-20.29,17.83-29.19,28-11.13,12.67-19.56,26.93-23.92,43.33-3.8,14.31-4.82,29.54-4.28,44.31.5,13.79,2.29,27.49,3.77,41.2q2.53,23.51,4.43,47.06,3.76,46.79,5,93.72.69,26.25.57,52.51c-.07,16.48-.17,33-2.29,49.37l.91-6.78a135.47,135.47,0,0,1-8.91,34.35l2.57-6.1A92.41,92.41,0,0,1,588,1665.49l4-5.16a82.45,82.45,0,0,1-13.63,13.81l5.16-4a67.25,67.25,0,0,1-14.75,8.72l6.09-2.57a58.28,58.28,0,0,1-13.78,3.77l6.78-.91-1,.12c-7,.89-12.82,2.26-18,7.47-4.43,4.42-7.76,11.68-7.47,18,.29,6.6,2.46,13.44,7.47,18,4.62,4.24,11.5,8.3,18,7.47a111.57,111.57,0,0,0,13.85-2.23,91.86,91.86,0,0,0,13.76-5.14,69.56,69.56,0,0,0,14-8.13A110.39,110.39,0,0,0,638.85,1681c15.43-27,18.53-58.86,19.08-89.4a1665.61,1665.61,0,0,0-7.21-183.51c-1.49-16.13-3.45-32.21-5-48.33-1.45-14.73-2.28-29.61-.38-44.34l-.91,6.78a92.29,92.29,0,0,1,6-22.88l-2.58,6.09a78.45,78.45,0,0,1,9.45-16.18l-4,5.16c9-11.61,20.43-20.89,31.07-30.9a280.39,280.39,0,0,0,28.52-30.66c20.3-25.79,36-55.44,37.06-88.94,1-30.43-11.63-61.81-34.5-82.15a145.49,145.49,0,0,0-38.42-24.54c-14.83-6.49-30-12.66-45.87-16a284.68,284.68,0,0,0-49-5.54c-15.79-.52-31.49-.24-47.15,2-28.24,4-54,17.2-76.08,35s-38.69,42.36-48,69.16c-9.32,27-9.6,57-3.25,84.64a157.69,157.69,0,0,0,40.6,74.32c10.32,10.49,22.61,19.88,36.12,25.85,15.28,6.76,31.85,11.58,48.74,9.5,10.48-1.29,19.36-3.68,28.84-8.64,11.83-6.2,16.37-23.69,9.14-34.89-7.77-12-22.22-15.78-34.88-9.15Z"/><path d="M372.27,1420.67a198.06,198.06,0,0,0,41.58,27.94,253.23,253.23,0,0,0,47.25,17.79c33.85,8.94,69.32,11.23,104.21,10.79,17.45-.23,34.88-1.1,52.3-2,16.83-.86,33.67-1.72,50.44-3.33,18.66-1.79,37.38-4.28,55.64-8.57a251.32,251.32,0,0,0,47.59-16.52c28.44-13,53.49-33.23,71.21-59.1q2.84-4.14,5.32-8.53a26.52,26.52,0,0,0,2.57-19.65c-1.63-5.91-6.2-12.32-11.72-15.24-5.92-3.13-13.09-4.69-19.65-2.57-6.28,2-11.9,5.85-15.24,11.72a124.18,124.18,0,0,1-9.24,13.94l4-5.17a137.63,137.63,0,0,1-24.58,24.43l5.17-4A177.62,177.62,0,0,1,740,1405.2l6.09-2.58c-21.27,8.93-43.9,14-66.7,17.08l6.78-.91c-23.43,3.15-47.06,4.3-70.65,5.51-24.4,1.26-48.85,2.42-73.3,1.74a389,389,0,0,1-40.93-3.16l6.78.91c-21.9-3-43.5-8.34-63.9-16.92l6.09,2.57A183.53,183.53,0,0,1,410,1386.17l5.16,4q-3.47-2.69-6.78-5.55c-5.19-4.47-11-7.47-18-7.47-6.26,0-13.73,2.78-18,7.47-4.47,4.86-7.78,11.24-7.47,18,.29,6.47,2.38,13.65,7.47,18Z"/></svg>