<svg id="Layer_1" data-name="Layer 1" xmlns="http://www.w3.org/2000/svg" viewBox="0 0 1242 2208"><defs><style>.cls-1{fill:#f6eabe;}.cls-2{fill:#999;}.cls-3,.cls-4{fill:none;}.cls-4{stroke:#000;stroke-linecap:round;stroke-miterlimit:10;stroke-width:50px;}</style></defs><rect class="cls-1" width="1242" height="2208"/><path d="M945,269.63V445.9H887V320.45H353.43V445.9H297.85V269.63ZM602.74,145.77c25.41,29.38,49.23,70.67,60.34,98.46l-54,22.23c-9.53-27.79-34.14-70.67-56.37-100.84Z"/><rect class="cls-2" x="1113" y="450" width="65" height="126" rx="12"/><path class="cls-1" d="M1132.7,479.82c1.25,1.6,4.9,6.7,5.7,8.05l-2,2.45c-.7-1.5-2.35-4.4-3.75-6.65V510h-3.15V485.57c-1.5,5.05-3.5,9.9-5.55,12.85a14.83,14.83,0,0,0-1.75-3.1c2.9-4,5.8-11.5,7.2-18h-6.2v-3.15h6.3v-9.65h3.15v9.65h5.45v3.15h-5.45Zm19.1.7a19.47,19.47,0,0,0,.45,2.65c-10.15,2.7-11.6,3.15-12.5,3.75a12.13,12.13,0,0,0-1.1-3.2c.7-.2,1.55-.5,1.55-2.2v-16.7h3.25v6.5h8.35v2.9h-8.35v8.3Zm2.35,5.5-2,3.75h12.65V510h-3.4v-1.75h-17v2h-3.3V489.77h7.9c.55-1.5,1.2-3.25,1.55-4.6Zm7.3,6.5h-17v5.05h17Zm0,13v-5.3h-17v5.3Zm2.25-22.4c1.25,0,1.5-.75,1.65-5.25a9.16,9.16,0,0,0,2.85,1.25c-.3,5.45-1.2,6.95-4.15,6.95h-5.85c-3.65,0-4.55-.95-4.55-4.45V464.87h3.25v6.5h10.2v2.9h-10.2v7.35c0,1.3.25,1.5,1.65,1.5Z"/><path class="cls-1" d="M1167.55,539.87v2.5H1123.4v-2.5h20.25v-3.2H1126.8v-2.3h16.85v-3H1128.2v-2.25h15.45v-3.2H1123.5v-2.5h20.15v-3H1128.8V518h14.85v-3.55h3.25V518h14.45v5.4h6.15v2.5h-6.15v5.45H1146.9v3h17.3v2.3h-17.3v3.2Zm-37.75,5h31.75v15.25h-3.25v-1.6H1133v1.7h-3.2Zm3.2,2.4v3.2h25.3v-3.2Zm25.3,8.85v-3.4H1133v3.4Zm-11.4-32.7h11.15v-3H1146.9Zm0,5.7h11.15v-3.2H1146.9Z"/><path d="M474.92,1841.69a98.85,98.85,0,0,1-6.18,13.56v39.59H464.9v-33.35a61.73,61.73,0,0,1-5.46,7,32.86,32.86,0,0,0-2.28-3.9c5.58-5.87,10.8-14.87,14-24Zm34.14,28c-2.1,1.26-4.44,2.64-6.84,3.78,2,6.06,5.82,11.82,10.38,14.52a11.2,11.2,0,0,0-2.64,2.94c-4.62-3.18-8.46-9.42-10.68-16a27.45,27.45,0,0,1-2.76,1.2c2.58,6.84,1.86,14-1,16.68a6.91,6.91,0,0,1-5.22,1.92c-1.08,0-2.4-.06-3.78-.18a9.31,9.31,0,0,0-1-3.42,38.26,38.26,0,0,0,4.14.24,3.66,3.66,0,0,0,3.12-1.14c1.56-1.38,2.22-5.16,1.44-9.36-5.16,4.92-13.08,9.36-19.8,11.7a15.8,15.8,0,0,0-2.34-2.82c7.62-2.28,16.62-7.14,21.3-12.24a35.76,35.76,0,0,0-1.5-3.48,63.52,63.52,0,0,1-17.22,9.9,16.14,16.14,0,0,0-2.22-2.64c5.94-1.8,13.74-5.76,17.88-9.54a16.39,16.39,0,0,0-2.94-3.18,58.44,58.44,0,0,1-13.56,7.26,11.26,11.26,0,0,0-2.22-2.58,52.48,52.48,0,0,0,15.06-7.56H476.48v-9.35c-1.14,1-2.28,2-3.54,2.94a9.54,9.54,0,0,0-2.52-2.59,44.59,44.59,0,0,0,13.86-16.25l3.84.72c-.6,1.2-1.32,2.34-2,3.54h11.1l.72-.18,2.34,1.68a52.13,52.13,0,0,1-4.8,6.84h13.08v12.65H490.94a15.29,15.29,0,0,1-1.2,1,21,21,0,0,1,5.64,6.84,111.93,111.93,0,0,0,10.92-6.42ZM484,1847.81a54.58,54.58,0,0,1-4.2,5.16h11.58a37.88,37.88,0,0,0,3.72-5.16Zm-3.9,14.69h10.5v-6.42h-10.5Zm24.72-6.42H494.18v6.42H504.8Z"/><path d="M572.36,1864.91v4.31H517.88v-4.31Z"/><path d="M596.48,1875.88c-1-2.1-3.54-6.24-5.58-9.36v28.32h-3.78v-29c-2.1,6.89-5,13.61-7.92,17.69a21,21,0,0,0-2.16-3.48c3.84-5.1,7.8-14.7,9.66-23.16h-8.34v-3.65h8.76v-13h3.78v13h7.44v3.65H590.9v4.87c1.8,2.21,6.78,9.23,7.86,11Zm22.74.06a52,52,0,0,0,14,13,27.05,27.05,0,0,0-2.82,3.06c-4.38-3-9.78-8.7-13.56-14.1v17H613v-16.38a47.64,47.64,0,0,1-15.3,14,19.4,19.4,0,0,0-2.76-3.12,42.34,42.34,0,0,0,15.84-13.56H600.56v-20.15H613v-5.16H598.58v-3.48H613v-6.72h3.84v6.72h14.58v3.48H616.88v5.16h12.9v20.15Zm-15-11.64H613v-5.46h-8.82Zm0,8.52H613v-5.52h-8.82Zm12.66-14v5.46H626v-5.46Zm9.12,8.46h-9.12v5.52H626Z"/><path d="M665.12,1873.54a37.63,37.63,0,0,1-1,4.92h21.36a12.7,12.7,0,0,1-.18,1.62c-.84,8.64-1.8,12.18-3.3,13.62a5.34,5.34,0,0,1-3.84,1.32,54.77,54.77,0,0,1-7.5-.12,8.14,8.14,0,0,0-1.08-3.42c3.06.3,6,.36,7.08.36a2.83,2.83,0,0,0,2.16-.54c1-.9,1.68-3.48,2.4-9.6H663.2c-2.34,6.18-6.9,10.68-16,13.44a10,10,0,0,0-2.22-3.06c11.82-3.24,15.06-9.66,16.26-18.54H647.66c-.78,7.5-2.7,15.72-7.2,21.72a15.56,15.56,0,0,0-2.94-2.7c6.12-8.46,6.72-20.28,6.72-29.15v-18.6c13.5-.84,29.52-2.34,38.22-4.38l3.18,3c-9.72,2.1-24.42,3.6-37.5,4.38v3.54h39.18v12.9H648.14c0,1.85-.06,3.89-.18,6H667.7a24.93,24.93,0,0,0-2.88-4.69l3.66-1.07a28.34,28.34,0,0,1,3.66,5.76h19.62v3.29Zm-17-19V1861h35.28v-6.37Z"/><path d="M707.72,1860c0,10.19-.84,25-6.9,35a16.38,16.38,0,0,0-3.48-2c5.88-9.72,6.42-23.27,6.42-33v-16.56h44v13.14H707.72Zm43.92,29.87v3.36h-45.3v-3.36h20.4V1883H711v-3.36h15.78v-5.52c-11.88.78-13.68,1-14.94,1.38a21.58,21.58,0,0,0-1.2-3.66,7.26,7.26,0,0,0,3.3-1.74,65.05,65.05,0,0,0,6.24-5.75H708.32v-3.3h41.34v3.3H725.3a82.06,82.06,0,0,1-7.68,6.89l21-1.14c-1.56-1.26-3.18-2.52-4.68-3.66l2.88-1.86A83.27,83.27,0,0,1,749.18,1875l-3.18,2.1a38.15,38.15,0,0,0-3.84-3.9l-11.58.72v5.76H746.9V1883H730.58v6.84Zm-43.92-43v6.36h36.06v-6.36Z"/><path d="M763.88,1876c4.68-2,7.26-4.86,7.56-9.17a4,4,0,0,1-1.14.11c-2.34,0-4.26-1.32-4.26-4.07a4,4,0,0,1,4.32-4.08c3.18,0,4.86,2.58,4.86,6.66,0,6.41-4,11.21-10.08,13.43Z"/><path d="M319,1915.49H304.22v35.15h-4v-38.87H319Z"/><path d="M323.66,1966.54l-1.56-3.36,27.9-17.94,27.9,17.94-1.56,3.36-26.34-17Z"/><path d="M381,1963.84h14.82v-35.15h4v38.87H381Z"/><path d="M429.92,1913.69a98.85,98.85,0,0,1-6.18,13.56v39.59H419.9v-33.35a61.73,61.73,0,0,1-5.46,7,32.86,32.86,0,0,0-2.28-3.9c5.58-5.87,10.8-14.87,14-24Zm34.14,28c-2.1,1.26-4.44,2.64-6.84,3.78,2,6.06,5.82,11.82,10.38,14.52a11.2,11.2,0,0,0-2.64,2.94c-4.62-3.18-8.46-9.42-10.68-16a27.45,27.45,0,0,1-2.76,1.2c2.58,6.84,1.86,14-1,16.68a6.91,6.91,0,0,1-5.22,1.92c-1.08,0-2.4-.06-3.78-.18a9.31,9.31,0,0,0-1-3.42,38.26,38.26,0,0,0,4.14.24,3.66,3.66,0,0,0,3.12-1.14c1.56-1.38,2.22-5.16,1.44-9.36-5.16,4.92-13.08,9.36-19.8,11.7a15.8,15.8,0,0,0-2.34-2.82c7.62-2.28,16.62-7.14,21.3-12.24a35.76,35.76,0,0,0-1.5-3.48,63.52,63.52,0,0,1-17.22,9.9,16.14,16.14,0,0,0-2.22-2.64c5.94-1.8,13.74-5.76,17.88-9.54a16.39,16.39,0,0,0-2.94-3.18,58.44,58.44,0,0,1-13.56,7.26,11.26,11.26,0,0,0-2.22-2.58,52.48,52.48,0,0,0,15.06-7.56H431.48v-9.35c-1.14,1-2.28,2-3.54,2.94a9.54,9.54,0,0,0-2.52-2.59,44.59,44.59,0,0,0,13.86-16.25l3.84.72c-.6,1.2-1.32,2.34-2,3.54h11.1l.72-.18,2.34,1.68a52.13,52.13,0,0,1-4.8,6.84h13.08v12.65H445.94a15.29,15.29,0,0,1-1.2,1,21,21,0,0,1,5.64,6.84,111.93,111.93,0,0,0,10.92-6.42ZM439,1919.81a54.58,54.58,0,0,1-4.2,5.16h11.58a37.88,37.88,0,0,0,3.72-5.16Zm-3.9,14.69h10.5v-6.42h-10.5Zm24.72-6.42H449.18v6.42H459.8Z"/><path d="M482.72,1932c0,10.19-.84,25-6.9,35a16.38,16.38,0,0,0-3.48-2c5.88-9.72,6.42-23.27,6.42-33v-16.56h44v13.14H482.72Zm43.92,29.87v3.36h-45.3v-3.36h20.4V1955H486v-3.36h15.78v-5.52c-11.88.78-13.68,1-14.94,1.38a21.58,21.58,0,0,0-1.2-3.66,7.26,7.26,0,0,0,3.3-1.74,65.05,65.05,0,0,0,6.24-5.75H483.32v-3.3h41.34v3.3H500.3a82.06,82.06,0,0,1-7.68,6.89l21-1.14c-1.56-1.26-3.18-2.52-4.68-3.66l2.88-1.86A83.27,83.27,0,0,1,524.18,1947l-3.18,2.1a38.15,38.15,0,0,0-3.84-3.9l-11.58.72v5.76H521.9V1955H505.58v6.84Zm-43.92-43v6.36h36.06v-6.36Z"/><path d="M546.32,1920.05v39.83c0,2.58-.66,3.72-2.34,4.38s-4.62.78-9.3.72a15,15,0,0,0-1.32-3.9c3.54.12,6.84.06,7.74.06s1.32-.36,1.32-1.26v-39.83h-9.78v-3.72h21.18v3.72Zm20.52,39a54.09,54.09,0,0,1-15.18,7.8,35.53,35.53,0,0,0-2.52-2.82c5.1-1.62,11.22-4.56,14.16-7.14Zm-.12-34.31c.54-1.86,1.08-4.08,1.5-6.06H554.78v-3.54H587.3v3.54H572.72c-.66,2.1-1.32,4.2-2,6.06h14.34v30.89H556.76v-30.89Zm14.52,3.17h-20.7v6.12h20.7Zm0,9.06h-20.7v6.19h20.7Zm0,9.24h-20.7v6.24h20.7Zm-5,10.92a70.63,70.63,0,0,1,12.06,7.5l-3.18,2.4a69.09,69.09,0,0,0-11.88-7.74Z"/><path d="M598.88,1948c4.68-2,7.26-4.86,7.56-9.17a4,4,0,0,1-1.14.11c-2.34,0-4.26-1.32-4.26-4.07a4,4,0,0,1,4.32-4.08c3.18,0,4.86,2.58,4.86,6.66,0,6.41-4,11.21-10.08,13.43Z"/><path d="M651.56,1919.87v7.92h22.26v34.31c0,2.28-.54,3.48-2.22,4.08s-4.68.66-8.94.66a14.79,14.79,0,0,0-1.38-3.6c3.42.12,6.54.12,7.5.06s1.14-.3,1.14-1.2v-30.6H651.56v35.1h-3.78v-35.1h-17.4v35.34h-3.84v-39h21.24v-7.92h-23.4V1916h51.54v3.9Zm-9.84,16.43c0,6.12.42,13.92,5.76,20a8.65,8.65,0,0,0-2.28,1.8A23.88,23.88,0,0,1,640,1946.8a27.16,27.16,0,0,1-6.24,11.4,14.22,14.22,0,0,0-2.34-1.8c4.08-3.9,6.24-9.9,7.2-17.15h-3.9v-3Zm21.12,0c0,6.18.48,13.92,6.24,19.92a11.7,11.7,0,0,0-2.4,1.74,23.65,23.65,0,0,1-5.58-11.64,27.62,27.62,0,0,1-6.18,11.46,15,15,0,0,0-2.34-1.8c4-3.84,6.06-9.72,7.08-16.73h-4.08v-3Z"/><path d="M723.08,1957.78a51.37,51.37,0,0,1-3.54,4.86h17.28v3.12H683.3v-3.12h17a26.79,26.79,0,0,0-2.64-4.74l1.8-.54h-7.86V1947h37v10.38h-6.84ZM710,1938.1H685.64v-23.39h23.7v2.88h-9.6v4h9.06v9.71h-9.06v4H710v1.69a34.47,34.47,0,0,0,10.86-5.46,35.41,35.41,0,0,1-7.2-11.94l2.7-.72h-4.92v-3.36h20.4l.6-.12,2.28.84a33.26,33.26,0,0,1-8.7,15.3,30.57,30.57,0,0,0,10.86,5.57,11.93,11.93,0,0,0-2.4,3.06,32.17,32.17,0,0,1-11.16-6.24,36.81,36.81,0,0,1-11.4,6.12,12.16,12.16,0,0,0-1.92-3Zm-24.24,3.19h48.78v2.93H685.76Zm3.48-23.7v4h7v-4Zm16,6.53h-16v4.5h16Zm-16,11.1h7v-4h-7Zm6.3,19.44h29v-5h-29Zm5.88,2.7a19.32,19.32,0,0,1,2.7,4.74l-1.5.54h14.22l-1-.36a46.44,46.44,0,0,0,3.24-4.92Zm15.48-38.57a29.64,29.64,0,0,0,6.54,10.38,28.25,28.25,0,0,0,6.84-10.38Z"/><path d="M759.92,1913.69a98.85,98.85,0,0,1-6.18,13.56v39.59H749.9v-33.35a61.73,61.73,0,0,1-5.46,7,32.86,32.86,0,0,0-2.28-3.9c5.58-5.87,10.8-14.87,14-24Zm34.14,28c-2.1,1.26-4.44,2.64-6.84,3.78,2,6.06,5.82,11.82,10.38,14.52a11.2,11.2,0,0,0-2.64,2.94c-4.62-3.18-8.46-9.42-10.68-16a27.45,27.45,0,0,1-2.76,1.2c2.58,6.84,1.86,14-1,16.68a6.91,6.91,0,0,1-5.22,1.92c-1.08,0-2.4-.06-3.78-.18a9.31,9.31,0,0,0-1-3.42,38.26,38.26,0,0,0,4.14.24,3.66,3.66,0,0,0,3.12-1.14c1.56-1.38,2.22-5.16,1.44-9.36-5.16,4.92-13.08,9.36-19.8,11.7a15.8,15.8,0,0,0-2.34-2.82c7.62-2.28,16.62-7.14,21.3-12.24a35.76,35.76,0,0,0-1.5-3.48,63.52,63.52,0,0,1-17.22,9.9,16.14,16.14,0,0,0-2.22-2.64c5.94-1.8,13.74-5.76,17.88-9.54a16.39,16.39,0,0,0-2.94-3.18,58.44,58.44,0,0,1-13.56,7.26,11.26,11.26,0,0,0-2.22-2.58,52.48,52.48,0,0,0,15.06-7.56H761.48v-9.35c-1.14,1-2.28,2-3.54,2.94a9.54,9.54,0,0,0-2.52-2.59,44.59,44.59,0,0,0,13.86-16.25l3.84.72c-.6,1.2-1.32,2.34-2,3.54h11.1l.72-.18,2.34,1.68a52.13,52.13,0,0,1-4.8,6.84h13.08v12.65H775.94a15.29,15.29,0,0,1-1.2,1,21,21,0,0,1,5.64,6.84,111.93,111.93,0,0,0,10.92-6.42ZM769,1919.81a54.58,54.58,0,0,1-4.2,5.16h11.58a37.88,37.88,0,0,0,3.72-5.16Zm-3.9,14.69h10.5v-6.42h-10.5Zm24.72-6.42H779.18v6.42H789.8Z"/><path d="M815.42,1912.43H819V1967h-3.6v-21.12h-6.18v1.86c0,5.1-.6,13.32-3.78,19.32a15.41,15.41,0,0,0-3.12-1.68c2.94-5.52,3.42-13.08,3.42-17.7v-1.8h-3v-3.48h12.66v-9.06H805.16v-18.17h3.48v14.58h6.78Zm42,23.28v3.23H820.7v-3.23H837v-14.34h-14.7v-3.24H837v-5.82h3.66v5.82h14.7v3.24h-14.7v14.34Zm-25.86-13.08a27.58,27.58,0,0,1-1.74,4.56,37.35,37.35,0,0,1,5.64,5.34l-2.16,2a41.73,41.73,0,0,0-4.86-4.92,21.92,21.92,0,0,1-4.62,5.34,13.32,13.32,0,0,0-2.7-1.85,21.24,21.24,0,0,0,7.32-11Zm-7.5,20.21h30.72v23.88h-3.54v-2H827.48v2.16h-3.42Zm3.42,2.83v16.19h23.76v-16.19Zm18.66,12.95H832.22v-9.72h13.92Zm-2.94-7.2h-8.1v4.68h8.1Zm8.46-28.85a24.87,24.87,0,0,1-1.62,4.5,36.48,36.48,0,0,1,6.36,5.69l-2.16,2a38.92,38.92,0,0,0-5.52-5.27,19.89,19.89,0,0,1-4.86,5.39,15.37,15.37,0,0,0-2.64-2,18.69,18.69,0,0,0,7.26-10.92Z"/><path d="M868.88,1935.46a26.08,26.08,0,0,1-4.14,10.26,10.32,10.32,0,0,0-2.58-2.76c3.72-5.28,4.14-12.42,4.14-17.81v-10.62h20.76v12.78H869.78a38.55,38.55,0,0,1-.3,4.38h18.18v12.89H868.88Zm48.18,26.22v3.54H862.94v-3.54H888v-7.32H869.18v-3.48H888v-5h4v5H911.3v3.48H892v7.32Zm-47.22-44v6.54H883.4v-6.54Zm2.4,23.87h11.94v-6.77H872.24Zm28.5-11H888.62v-3.23h7.32a32.1,32.1,0,0,0-2.1-6.3l3.18-.78a29.1,29.1,0,0,1,2.34,6.6l-1.5.48h7.86a57.7,57.7,0,0,0,2.46-7l3.66.66c-1,2.16-1.92,4.5-2.82,6.36h7.92v3.23H904.46v5.17h11.22v3.23H904.46v7h-3.72v-7h-11.1v-3.23h11.1Zm14.7-10.31H890.18V1917h11a28.39,28.39,0,0,0-1.5-4l3.6-.84a21.93,21.93,0,0,1,2,4.8h10.2Z"/><path d="M935.18,1930.67a9.06,9.06,0,1,1-9.06,9A9.09,9.09,0,0,1,935.18,1930.67Zm0,15.23a6.18,6.18,0,1,0,0-12.36,6.18,6.18,0,1,0,0,12.36Z"/><path d="M491.9,2001.17c4.44,10.31,12.24,20,20.76,24.71a23.11,23.11,0,0,0-3.06,3.36c-9-5.58-16.92-16.32-21.6-28.07h-1v22.43h14.28v4H487V2039H482.9v-11.4H468.68v-4H482.9v-22.43h-1.08c-4.74,11.75-12.66,22.43-21.3,28.25a24.18,24.18,0,0,0-2.88-3.18c8-4.92,15.66-14.76,20.16-25.07H459.14v-4H482.9v-12.72H487v12.72h24v4Z"/><path d="M566.9,2023.54a33.64,33.64,0,0,1-8.22,7.38c2.4,2.82,5.22,4.44,8.16,4.38,1.68-.06,2.16-1.5,2.46-5.94a10.31,10.31,0,0,0,3.12,1.62c-.6,6.3-2.1,7.92-5.76,8-4.26,0-8.16-2.22-11.28-6a74.41,74.41,0,0,1-13.68,5.82,36.46,36.46,0,0,0-2.1-3.24,65.61,65.61,0,0,0,13.86-5.34,34.94,34.94,0,0,1-3.84-8.82H535.16v4.38l11.16-1-.06,2.88-11.1,1.08v6.12c0,2.1-.48,3.06-2.16,3.54s-4.38.54-8.94.54a19.42,19.42,0,0,0-1.26-3.18c3.36.12,6.48.06,7.38,0s1.2-.24,1.2-1v-5.7c-4.74.48-9.12.9-12.72,1.2l-.42-3.3c3.54-.24,8.1-.54,13.14-1v-4.68h-12.9v-3.18h12.9v-4.44c-3.78.42-7.68.72-11.28.91a12,12,0,0,0-.9-2.71c8.16-.48,18.18-1.55,23.52-2.94l2.52,2.58c-2.82.66-6.36,1.26-10.08,1.74v4.86h13.68a52.67,52.67,0,0,1-1.2-8.94h3.84a57.48,57.48,0,0,0,1.2,8.94h19v3.18H553.58a31.91,31.91,0,0,0,3.12,6.9,27.09,27.09,0,0,0,6.72-5.94Zm4.62-15.17h-53v-3.25H542.9V2001H524.3v-3.06h18.6v-4H521.06v-3.18h12.66a30,30,0,0,0-3.48-5.16l3.42-1.26a24.4,24.4,0,0,1,4.32,6.24l-.42.18H552.2a54.7,54.7,0,0,0,3.6-6.6l4.14,1.2c-1.2,1.86-2.52,3.84-3.72,5.4h12.84V1994H546.92v4h18.9V2001h-18.9v4.13h24.6Zm-5.7,9a34,34,0,0,0-9.48-5.52l2.16-2.46a38.32,38.32,0,0,1,9.66,5.22Z"/><path d="M607.46,2033.62a70.7,70.7,0,0,0,7.38.36c2.1.06,14.76,0,17.58-.06a16.36,16.36,0,0,0-1.44,3.84H614.72c-12.3,0-19.92-1.92-24.72-10.38a31.55,31.55,0,0,1-9.48,11.7,19.84,19.84,0,0,0-3.06-2.82c6.3-4.14,10.2-10.92,11.82-19.86l4,.6a55.92,55.92,0,0,1-1.5,6.06c2.34,5.64,6.3,8.52,11.7,9.84v-18.54H578.72v-3.6H631.4v3.6H607.46v7.08h20v3.6h-20Zm17.22-27.17h-39.6v-19.56h39.6Zm-4-16.44H589v5.16h31.68Zm0,8.1H589v5.27h31.68Z"/><path d="M665.12,2017.54a37.63,37.63,0,0,1-1,4.92h21.36a12.7,12.7,0,0,1-.18,1.62c-.84,8.64-1.8,12.18-3.3,13.62a5.34,5.34,0,0,1-3.84,1.32,54.77,54.77,0,0,1-7.5-.12,8.14,8.14,0,0,0-1.08-3.42c3.06.3,6,.36,7.08.36a2.83,2.83,0,0,0,2.16-.54c1-.9,1.68-3.48,2.4-9.6H663.2c-2.34,6.18-6.9,10.68-16,13.44a10,10,0,0,0-2.22-3.06c11.82-3.24,15.06-9.66,16.26-18.54H647.66c-.78,7.5-2.7,15.72-7.2,21.72a15.56,15.56,0,0,0-2.94-2.7c6.12-8.46,6.72-20.28,6.72-29.15v-18.6c13.5-.84,29.52-2.34,38.22-4.38l3.18,3c-9.72,2.1-24.42,3.6-37.5,4.38v3.54h39.18v12.9H648.14c0,1.85-.06,3.89-.18,6H667.7a24.93,24.93,0,0,0-2.88-4.69l3.66-1.07a28.34,28.34,0,0,1,3.66,5.76h19.62v3.29Zm-17-19V2005h35.28v-6.37Z"/><path d="M707.72,2004c0,10.19-.84,25-6.9,35a16.38,16.38,0,0,0-3.48-2c5.88-9.72,6.42-23.27,6.42-33v-16.56h44v13.14H707.72Zm43.92,29.87v3.36h-45.3v-3.36h20.4V2027H711v-3.36h15.78v-5.52c-11.88.78-13.68,1-14.94,1.38a21.58,21.58,0,0,0-1.2-3.66,7.26,7.26,0,0,0,3.3-1.74,65.05,65.05,0,0,0,6.24-5.75H708.32v-3.3h41.34v3.3H725.3a82.06,82.06,0,0,1-7.68,6.89l21-1.14c-1.56-1.26-3.18-2.52-4.68-3.66l2.88-1.86A83.27,83.27,0,0,1,749.18,2019l-3.18,2.1a38.15,38.15,0,0,0-3.84-3.9l-11.58.72v5.76H746.9V2027H730.58v6.84Zm-43.92-43v6.36h36.06v-6.36Z"/><path d="M770.18,2002.67a9.06,9.06,0,1,1-9.06,9A9.09,9.09,0,0,1,770.18,2002.67Zm0,15.23a6.18,6.18,0,1,0,0-12.36,6.18,6.18,0,1,0,0,12.36Z"/><rect class="cls-2" x="1113" y="1233" width="65" height="271" rx="12"/><path class="cls-1" d="M1158.05,1272.79a27.61,27.61,0,0,0,11.5,8.1,11.65,11.65,0,0,0-2.15,2.55,30.77,30.77,0,0,1-12.8-10.65h-15.95a34.39,34.39,0,0,1-13,11.3,11.43,11.43,0,0,0-2.15-2.55,30.39,30.39,0,0,0,11.6-8.75H1124v-2.85h10v-16.15h-7.7V1251h7.7v-5h3.3v5h18.55v-5h3.35v5h7.65v2.8h-7.65v16.15h9.8v2.85Zm-10,14.5h17.3v2.85H1127.8v-2.85h16.9v-5.6h-10.45v-2.8h10.45v-4.4h3.35v4.4h10.65v2.8h-10.65Zm-10.8-33.5v3.6h18.55v-3.6Zm0,9.8h18.55v-3.65h-18.55Zm0,6.35h18.55v-3.8h-18.55Z"/><path class="cls-1" d="M1142.25,1314.54s0,1.15,0,1.55c-.6,15.85-1.2,21.2-2.6,23a3.71,3.71,0,0,1-2.8,1.45,32.65,32.65,0,0,1-4.45,0,9.25,9.25,0,0,0-.85-3c1.75.15,3.2.15,3.9.15a1.42,1.42,0,0,0,1.45-.65c1-1.2,1.6-6,2.15-19.35h-6.8c-.55,10-2,18.25-6.45,23.65a9.53,9.53,0,0,0-2.55-2.35c5.45-6.45,5.9-17.85,6.1-31.55h-5.2v-3.1h20.1v3.1h-11.65c0,2.45-.1,4.85-.2,7.15Zm-7.9-10.45a33.47,33.47,0,0,0-4.25-7.15l2.9-1.15a31.92,31.92,0,0,1,4.4,7Zm23.85-7.45a15.26,15.26,0,0,1-.85,2.55c2.65,5.45,7.7,11.35,12.45,14a13,13,0,0,0-2.45,2.75c-4.25-2.7-8.5-8-11.4-13.3a32.61,32.61,0,0,1-11,13.6,12.79,12.79,0,0,0-2.35-2.65c5.85-3.6,10.35-10.2,12.5-17.85Zm-8.3,32.45a74,74,0,0,1,13.6,8.25l-2.25,2.9c-2.85-2.6-8.75-6.3-13.4-8.65Zm9.5-4.85a66.22,66.22,0,0,0-8.6-6.85l2.15-2.2a67.46,67.46,0,0,1,8.75,6.55Z"/><path class="cls-1" d="M1165,1349.19v29.3h-3.5v-2.55h-13.3v15.6h-3.45v-15.6h-13.4v2.75H1128v-29.5Zm-33.65,3.2V1361h13.4v-8.65Zm13.4,20.35v-8.5h-13.4v8.5Zm16.75-20.35h-13.3V1361h13.3Zm0,20.35v-8.5h-13.3v8.5Z"/><path class="cls-1" d="M1167.25,1411.09v9.3h-3.15V1414h-35.4v6.4h-3v-9.3h6.95v-12.95h27.7v12.95Zm-6.45,26.6c0,1.85-.45,2.7-1.85,3.2s-3.9.5-7.7.45a8.57,8.57,0,0,0-1.1-2.75c3,.05,5.65.05,6.4.05s1-.25,1-1v-6.2c-7.3,1.45-14.85,3-20.45,4l-1.1-3c5.4-.8,13.6-2.3,21.55-3.75V1420h-22.2v5.3c0,4.85-.65,11.55-4.35,16.2a13.29,13.29,0,0,0-2.7-2c3.45-4.25,3.85-10,3.85-14.25v-8h28.6Zm-25-26.6h7.45v-6.9H1157v-3.35h-21.2Zm2.45,11.7a75.14,75.14,0,0,1,17.7,3l-.9,2.6c-4-1.5-11.7-2.9-17.7-3.35Zm18.75-16.3h-10.75v4.6H1157Z"/><path class="cls-1" d="M1161,1458.09a51.83,51.83,0,0,1-12,19.6,49.94,49.94,0,0,0,20.5,10.5,16.79,16.79,0,0,0-2.25,3,50.92,50.92,0,0,1-20.75-11.1c-5.65,5-12.55,8.6-21,11.3a15.53,15.53,0,0,0-2-3.05c8.35-2.45,15.1-5.9,20.6-10.6a57.05,57.05,0,0,1-12.2-19.65h-7.75v-3.25h44.75v3.25Zm-25.75,0a52.13,52.13,0,0,0,11.3,17.3,47.46,47.46,0,0,0,10.7-17.3Zm11.25-3.55a38.13,38.13,0,0,0-3.8-7.8l3.4-1a39,39,0,0,1,4,7.65Z"/><line class="cls-3" x1="621" y1="364" x2="621" y2="364"/><line class="cls-4" x1="611" y1="1055" x2="936" y2="1305"/><line class="cls-4" x1="866" y1="1254" x2="866" y2="1691"/><line class="cls-4" x1="611" y1="1055" x2="286" y2="1305"/><line class="cls-4" x1="356" y1="1254" x2="356" y2="1691"/></svg>