<svg id="Layer_1" data-name="Layer 1" xmlns="http://www.w3.org/2000/svg" viewBox="0 0 1242 2208"><defs><style>.cls-1{fill:#f6eabe;}.cls-2{fill:#999;}.cls-3,.cls-4{fill:none;}.cls-4{stroke:#000;stroke-linecap:round;stroke-miterlimit:10;stroke-width:50px;}</style></defs><rect class="cls-1" width="1242" height="2208"/><path d="M959.33,370.91H771.94V790.14c0,46.84-12.7,64.31-43.66,73.05-31.76,9.52-92.11,11.11-177.86,10.32-4-16.68-14.29-42.08-23.82-58.76,74.64,2.38,143.71,1.59,165.15.8,19.06,0,25.41-6.35,25.41-24.62v-420H253.47V319.3H717.16V149.39h54.78V319.3H959.33Zm-568.5,84.17C450.38,514.62,513.9,597.2,540.89,653.57l-47.64,31c-25.4-57.17-87.33-142.13-146.09-203.26Z"/><rect class="cls-2" x="1114" y="437" width="65" height="126" rx="12"/><path class="cls-1" d="M1133.7,466.82c1.25,1.6,4.9,6.7,5.7,8.05l-2,2.45c-.7-1.5-2.35-4.4-3.75-6.65V497h-3.15V472.57c-1.5,5.05-3.5,9.9-5.55,12.85a14.83,14.83,0,0,0-1.75-3.1c2.9-4,5.8-11.5,7.2-18h-6.2v-3.15h6.3v-9.65h3.15v9.65h5.45v3.15h-5.45Zm19.1.7a19.47,19.47,0,0,0,.45,2.65c-10.15,2.7-11.6,3.15-12.5,3.75a12.13,12.13,0,0,0-1.1-3.2c.7-.2,1.55-.5,1.55-2.2v-16.7h3.25v6.5h8.35v2.9h-8.35v8.3Zm2.35,5.5-2,3.75h12.65V497h-3.4v-1.75h-17v2h-3.3V476.77h7.9c.55-1.5,1.2-3.25,1.55-4.6Zm7.3,6.5h-17v5.05h17Zm0,13v-5.3h-17v5.3Zm2.25-22.4c1.25,0,1.5-.75,1.65-5.25a9.16,9.16,0,0,0,2.85,1.25c-.3,5.45-1.2,6.95-4.15,6.95h-5.85c-3.65,0-4.55-.95-4.55-4.45V451.87h3.25v6.5h10.2v2.9h-10.2v7.35c0,1.3.25,1.5,1.65,1.5Z"/><path class="cls-1" d="M1168.55,526.87v2.5H1124.4v-2.5h20.25v-3.2H1127.8v-2.3h16.85v-3H1129.2v-2.25h15.45v-3.2H1124.5v-2.5h20.15v-3.05H1129.8V505h14.85v-3.55h3.25V505h14.45v5.4h6.15v2.5h-6.15v5.45H1147.9v3h17.3v2.3h-17.3v3.2Zm-37.75,5h31.75v15.25h-3.25v-1.6H1134v1.7h-3.2Zm3.2,2.4v3.2h25.3v-3.2Zm25.3,8.85v-3.4H1134v3.4Zm-11.4-32.7h11.15v-3.05H1147.9Zm0,5.7h11.15v-3.2H1147.9Z"/><path d="M514,1840.49H499.22v35.15h-4v-38.87H514Z"/><path d="M566.06,1842.83c-3.48,13.74-9.9,24.29-18.06,32.27a57.36,57.36,0,0,0,24.78,12.78,15.56,15.56,0,0,0-2.64,3.54,58.72,58.72,0,0,1-25.2-13.56,72.49,72.49,0,0,1-25,13.62,10.78,10.78,0,0,0-2.46-3.54,70.44,70.44,0,0,0,24.6-12.84c-7.38-7.74-12.66-17.69-16.32-29.33H521v-4h41.7l.78-.24Zm-36.3,2.94c3.36,10.38,8.4,19.44,15.36,26.63a59.91,59.91,0,0,0,16.08-26.63Z"/><path d="M576,1888.84h14.82v-35.15h4v38.87H576Z"/><path d="M624.92,1838.69a98.85,98.85,0,0,1-6.18,13.56v39.59H614.9v-33.35a61.73,61.73,0,0,1-5.46,7,32.86,32.86,0,0,0-2.28-3.9c5.58-5.87,10.8-14.87,14-24Zm34.14,28c-2.1,1.26-4.44,2.64-6.84,3.78,2,6.06,5.82,11.82,10.38,14.52a11.2,11.2,0,0,0-2.64,2.94c-4.62-3.18-8.46-9.42-10.68-16a27.45,27.45,0,0,1-2.76,1.2c2.58,6.84,1.86,14-1,16.68a6.91,6.91,0,0,1-5.22,1.92c-1.08,0-2.4-.06-3.78-.18a9.31,9.31,0,0,0-1-3.42,38.26,38.26,0,0,0,4.14.24,3.66,3.66,0,0,0,3.12-1.14c1.56-1.38,2.22-5.16,1.44-9.36-5.16,4.92-13.08,9.36-19.8,11.7a15.8,15.8,0,0,0-2.34-2.82c7.62-2.28,16.62-7.14,21.3-12.24a35.76,35.76,0,0,0-1.5-3.48,63.52,63.52,0,0,1-17.22,9.9,16.14,16.14,0,0,0-2.22-2.64c5.94-1.8,13.74-5.76,17.88-9.54a16.39,16.39,0,0,0-2.94-3.18,58.44,58.44,0,0,1-13.56,7.26,11.26,11.26,0,0,0-2.22-2.58,52.48,52.48,0,0,0,15.06-7.56H626.48v-9.35c-1.14,1-2.28,2-3.54,2.94a9.54,9.54,0,0,0-2.52-2.59,44.59,44.59,0,0,0,13.86-16.25l3.84.72c-.6,1.2-1.32,2.34-2,3.54h11.1l.72-.18,2.34,1.68a52.13,52.13,0,0,1-4.8,6.84h13.08v12.65H640.94a15.29,15.29,0,0,1-1.2,1,21,21,0,0,1,5.64,6.84,111.93,111.93,0,0,0,10.92-6.42ZM634,1844.81a54.58,54.58,0,0,1-4.2,5.16h11.58a37.88,37.88,0,0,0,3.72-5.16Zm-3.9,14.69h10.5v-6.42h-10.5Zm24.72-6.42H644.18v6.42H654.8Z"/><path d="M721.94,1872.22H697.1v14c0,3-1,4.2-3.06,4.86s-5.94.72-12.3.66a17.27,17.27,0,0,0-1.74-3.9c5.16.12,9.84.06,11.16.06s1.86-.48,1.86-1.74v-13.92H668.18v-3.9H693v-10.2H672.14v-3.83H693v-9.6c-6.66.66-13.56,1.14-19.8,1.44a16.18,16.18,0,0,0-1-3.54c14.16-.72,31.8-2.28,40.74-5.16l2.94,3.24a123.25,123.25,0,0,1-18.78,3.6v10h21.48v3.83H697.1v10.2h24.84Z"/><path d="M733.88,1873c4.68-2,7.26-4.86,7.56-9.17a4,4,0,0,1-1.14.11c-2.34,0-4.26-1.32-4.26-4.07a4,4,0,0,1,4.32-4.08c3.18,0,4.86,2.58,4.86,6.66,0,6.41-4,11.21-10.08,13.43Z"/><path d="M124,1912.49H109.22v35.15h-4v-38.87H124Z"/><path d="M182.36,1933.91v4.31H127.88v-4.31Z"/><path d="M186,1960.84h14.82v-35.15h4v38.87H186Z"/><path d="M238.16,1938.94l-7.62,2.34v17.82c0,2.34-.6,3.42-2,4.08s-3.84.78-7.8.72a17,17,0,0,0-1.32-3.66c2.76.06,5.34.06,6.06,0s1.14-.24,1.14-1.14v-16.56l-8.4,2.58-1.26-3.95c2.64-.73,6-1.63,9.66-2.71v-13.07h-8.7v-3.84h8.7v-12.12h4v12.12h7v3.84h-7v11.87c2.34-.59,4.74-1.38,7.08-2.09Zm10.68-6.3c-5.52,0-7.26-1.73-7.26-6.72v-16.31h3.9v7.32h24.3v3.54h-24.3V1926c0,2.29.66,3.13,3.3,3.13h16.14a49.43,49.43,0,0,0,6.42-.37c.18,1.08.36,2.58.54,3.49a38.74,38.74,0,0,1-6.72.35Zm-7.26,5.34h28v25.74h-4v-2.52H245.36V1964h-3.78Zm3.78,3.48v6.36h20.22v-6.36Zm20.22,16.38v-6.72H245.36v6.72Z"/><path d="M293.24,1939.78a58,58,0,0,1-12.06,19.14,26,26,0,0,0-3.66-2.46,47,47,0,0,0,11.64-17.75Zm13.62-7.91v31.79h-4.14v-31.79H278.84v-4h52.5v4Zm19.2-14.22H284.18v-3.9h41.88Zm-5.16,20.93c4.5,5.58,9.24,13.14,11,18.24l-3.9,1.8c-1.74-5-6.3-12.78-10.8-18.48Z"/><path d="M362.54,1955.32c-8.7,2-17.88,4.08-24.42,5.58l-.78-3.84,4-.78v-20.34h3.24v19.68l4.92-1.08V1931h-8.52v-18h19.8v18H353v8h8.52v3.61H353v11.09c3-.66,6.12-1.32,9.18-2Zm-18.06-27.83h12.6v-11h-12.6Zm48,30.29v3.84h-31v-3.84h4.26v-40.43h-3.24v-3.78h29.4v3.78H369.56v9.6h19.5v20h-19.5v10.8Zm-22.92-27.11v12.59h15.66v-12.59Z"/><path d="M452.36,1960.84H432.08v3.06h-3.6v-34a36.89,36.89,0,0,1-2,3.49,25.84,25.84,0,0,0-2.52-2.11v5H414l-1.08,4.26h12.6v19.38c0,1.86-.36,2.7-1.68,3.3s-3.6.54-7.2.54a12.23,12.23,0,0,0-1-3.06c2.64.12,5,.12,5.64.06s.9-.24.9-.84V1943.8h-10c-.78,3.12-1.56,6.18-2.28,8.64l6.78-1.14c-.72-1.56-1.5-3.18-2.28-4.56l2.52-.84a99,99,0,0,1,4.8,10.26l-2.58,1c-.36-.9-.78-2-1.32-3.3-4.26.78-8.64,1.62-12.18,2.34l-1-2.94,1.86-.3c.78-2.58,1.62-5.88,2.46-9.18h-5.64V1964h-3.36V1943.8H398.3v-3.24h1.62v-2.1h3.36v2.1h6.48c.36-1.5.66-2.88,1-4.26H401.3v-16.19h3.18v13.19h16.2v-13.19h3.24v10.14c3.54-5.34,6.48-13.2,8.34-20.88l3.6.84a107.61,107.61,0,0,1-3.3,10.56H452v3.65h-8.76v8.46h7.92v3.49h-7.92v8.57h8v3.48h-8v8.76h9.12ZM426.2,1918H398.54v-3.3H411c-.54-1.5-1.2-3.3-1.8-4.68l3.36-.78c.78,1.68,1.68,3.84,2.28,5.46H426.2Zm-8.28,13.38a52.11,52.11,0,0,0-4.44-4,47.87,47.87,0,0,1-5.28,4.49c-.48-.42-1.62-1.31-2.22-1.73a60.08,60.08,0,0,0,5.46-4.5c-1.62-1.26-3.24-2.53-4.8-3.6l1.86-1.68c1.5,1.08,3.18,2.28,4.74,3.6a42.6,42.6,0,0,0,3.6-3.9l2.58,1a58.21,58.21,0,0,1-4.08,4.5c1.74,1.5,3.36,2.88,4.44,3.89Zm21.66-6.91h-7.5v8.46h7.5Zm0,11.95h-7.5v8.57h7.5Zm-7.5,20.81h7.5v-8.76h-7.5Zm9.24-37a60.84,60.84,0,0,0-4.14-8.88l3.42-1.26a61.35,61.35,0,0,1,4.32,8.7Z"/><path d="M511.94,1944.22H487.1v14c0,3-1,4.2-3.06,4.86s-5.94.72-12.3.66a17.27,17.27,0,0,0-1.74-3.9c5.16.12,9.84.06,11.16.06s1.86-.48,1.86-1.74v-13.92H458.18v-3.9H483v-10.2H462.14v-3.83H483v-9.6c-6.66.66-13.56,1.14-19.8,1.44a16.18,16.18,0,0,0-1-3.54c14.16-.72,31.8-2.28,40.74-5.16l2.94,3.24a123.25,123.25,0,0,1-18.78,3.6v10h21.48v3.83H487.1v10.2h24.84Z"/><path d="M535.58,1959c0,2.1-.48,3.18-1.8,3.84s-3.6.66-7.44.66a18.06,18.06,0,0,0-1.14-3.48c2.76.12,5.28.06,6,.06s1-.3,1-1.14V1941c-2.34,1.68-4.62,3.36-6.84,4.92l-1.62-3.18c-.36,7.26-1.32,15.12-3.48,21.3a13.32,13.32,0,0,0-2.76-2.46c2.88-8.52,3.12-20.34,3.12-28.91v-21.18h14.94ZM524,1932.71c0,2.93-.06,6.35-.24,9.89,2.22-1.2,5.28-3,8.46-5v-7l-2.22,1.56a56.16,56.16,0,0,0-5.88-7.26l2.4-1.56a60.36,60.36,0,0,1,5.7,6.65v-14.75H524Zm28-4.45,2.1.43C552.68,1948,548,1958.8,540,1964.2a12.24,12.24,0,0,0-2.64-2.64c4.56-2.88,7.86-7.44,10.08-14.16a68.18,68.18,0,0,0-6.72-5.88,29.51,29.51,0,0,1-2.52,4.26,16,16,0,0,0-2.16-2.94c3.42-4.74,5.58-12.17,6.78-19.8l3.24.61c-.24,1.56-.54,3.18-.9,4.68h6.18Zm-9.78-3h-3.48v-9.84h15.12a27.63,27.63,0,0,0-2.16-5.16l3.72-1.08a37.47,37.47,0,0,1,2.76,6.24h13.32v9.78H568V1919H542.24Zm2,6.53a56.63,56.63,0,0,1-2.16,6.6,64.37,64.37,0,0,1,6.48,5.16,84,84,0,0,0,1.8-11.76Zm21.24,28.5a6.53,6.53,0,0,0,2.22-.3,2,2,0,0,0,1.14-1.5,49,49,0,0,0,.36-5.94,10.52,10.52,0,0,0,3.06,1.56,31.27,31.27,0,0,1-.66,6.54,3.29,3.29,0,0,1-2.1,2.16,11.28,11.28,0,0,1-3.66.48h-4.14a7,7,0,0,1-3.84-1c-1.08-.6-1.5-1.56-1.5-5.82v-29.4h13.44v18.3c0,1.8-.36,2.76-1.62,3.3s-3.36.6-6.72.6a9.06,9.06,0,0,0-1-3.12c2.52.06,4.56.06,5.16,0s.9-.24.9-.78v-14.88h-6.78V1957c0,1.68.18,2.76.66,3a3.89,3.89,0,0,0,1.8.3Z"/><path d="M632.36,1933.91v4.31H577.88v-4.31Z"/><path d="M691.7,1926.11H677.54v31.67c0,3.54-1,4.86-3.3,5.52s-7,.84-13.44.78a19.72,19.72,0,0,0-1.8-4.44c5.64.18,10.86.12,12.48.06,1.44,0,1.92-.48,1.92-1.86v-31.73h-35v-3.9h35v-12.84h4.14v12.84H691.7Zm-43,6.35c4.5,4.5,9.3,10.74,11.34,15l-3.6,2.34c-1.92-4.32-6.6-10.74-11-15.35Z"/><path d="M748.88,1944.64a97.41,97.41,0,0,1-13.44,8.1,42.76,42.76,0,0,0,17.64,7.26,14.08,14.08,0,0,0-2.46,3.48c-13.74-3-23.34-10.38-28.56-21.72h-9.78v16.62l16.8-4.08c-.12,1-.18,2.64-.18,3.48-17,4.44-20,5.22-21.3,6l-.3.18a16.11,16.11,0,0,0-1.86-3.84,4.87,4.87,0,0,0,2.94-4.26v-14.1h-10v-3.66H709v-26.33h36.9v3.42H713.06v5.52H744V1924h-30.9v5.34H744v3.3h-30.9v5.46h38.58v3.66H726.08a30.21,30.21,0,0,0,6.72,8.82,90.28,90.28,0,0,0,12.78-8.1Z"/><path d="M774,1910c-1,2.94-2.1,6.3-3.18,8.88H781v38.75h-16.8v4.8h-3.66v-43.55h6.66a64.68,64.68,0,0,0,2.58-9.72Zm3.3,12.47H764.18v13.08h13.14Zm0,31.56v-14.88H764.18v14.88Zm33.06-33.17c-1,27.53-1.8,36.71-4.2,39.59a5.6,5.6,0,0,1-4.56,2.28,74.94,74.94,0,0,1-8.82-.12,9.42,9.42,0,0,0-1.32-3.9c3.9.36,7.5.36,8.82.36s1.92-.12,2.52-.9c2-2.1,2.94-11.34,3.72-35.7H790.82a55.33,55.33,0,0,1-5.64,10.68,36.22,36.22,0,0,0-3.36-2.22c4.08-5.34,7.32-13.61,9.18-21.89l3.84.84c-.78,3-1.62,6-2.64,8.88h18.18Zm-12.78,27a106.51,106.51,0,0,0-9.3-13.92l3.06-1.79a102.47,102.47,0,0,1,9.6,13.61Z"/><path d="M845.42,1921.55c-1.44,3.6-3.12,7.79-4.62,11h8.7v3.67H818.36v-3.67H836.9a78.11,78.11,0,0,0,4.5-11.93Zm2.7-1.38h-28v-3.66h12.6a52.73,52.73,0,0,0-2.64-6.36l3.6-1a57,57,0,0,1,3.18,7.38h11.22Zm-26.22,21.77h24.72v21.12h-3.9v-2.4h-17v2.88H821.9Zm5.82-9.72a46.73,46.73,0,0,0-3.9-10.55l3.48-.84a38.22,38.22,0,0,1,4,10.38Zm-2,13.32v11.52h17v-11.52Zm45.84-31.31c-2.16,5.46-5,12.3-7.56,17.87,5.46,5.7,6.84,10.32,6.84,14.52,0,3.36-.78,6.24-2.64,7.5a7.78,7.78,0,0,1-3.66,1.2,29.42,29.42,0,0,1-5.16.06,9.55,9.55,0,0,0-1.2-3.78,35.57,35.57,0,0,0,4.92.12,5.55,5.55,0,0,0,2.46-.66c1.2-.78,1.62-2.7,1.56-4.8,0-3.78-1.56-8.16-7-13.73,2.34-5.16,4.74-11.58,6.42-16.26H856.34V1964h-3.6v-51.35h15.42l.6-.18Z"/><path d="M896.3,1910.63a90.29,90.29,0,0,1-6.18,12.84v40.43h-4v-34.19a70.15,70.15,0,0,1-6.36,7.79,23.56,23.56,0,0,0-2.28-3.9c5.94-5.81,11.58-14.81,15.06-24Zm35.76,47v3.84H894.62v-3.84h21.06a266.82,266.82,0,0,0,5.88-30.05l4.14.77c-1.56,9.24-4,21.18-6.3,29.28Zm-2.52-33.47H897.26v-3.84h32.28Zm-24.12,30.53a209.72,209.72,0,0,0-4.2-25.8l3.6-.71a205.18,205.18,0,0,1,4.56,25.37Zm6.84-35.21a72.34,72.34,0,0,0-2.88-9.48l3.72-1a88.64,88.64,0,0,1,3.06,9.36Z"/><path d="M957.44,1943.8a118.34,118.34,0,0,1,8.4,15.24l-3.54,2a65.23,65.23,0,0,0-2.88-6.18c-15.24,5.52-17.22,6.36-18.42,7.26a16.79,16.79,0,0,0-1.68-4,4,4,0,0,0,2.46-3.78v-41.75h22.5v27.89H945.8v15.3l11.94-4c-1.14-2.22-2.46-4.44-3.6-6.36Zm-11.64-27.65v8.27h14.52v-8.27Zm14.52,20.69V1928H945.8v8.81Zm29.22,10.38c0,2.34-.54,3.54-2.1,4.2s-4.32.72-8.76.66a14.44,14.44,0,0,0-1.2-3.78c3.3.12,6.18.12,7,.06s1.14-.3,1.14-1.14v-30.59H974.06V1964h-4v-51.11h19.44Z"/><path d="M1051.7,1926.11h-14.16v31.67c0,3.54-1,4.86-3.3,5.52s-7,.84-13.44.78a19.72,19.72,0,0,0-1.8-4.44c5.64.18,10.86.12,12.48.06,1.44,0,1.92-.48,1.92-1.86v-31.73h-35v-3.9h35v-12.84h4.14v12.84h14.16Zm-43,6.35c4.5,4.5,9.3,10.74,11.34,15l-3.6,2.34c-1.92-4.32-6.6-10.74-11-15.35Z"/><path d="M1107.26,1915.67v46.49H1103v-4.86h-35.94v5.16H1063v-46.79Zm-4.26,37.61v-33.59h-35.94v33.59Z"/><path d="M1130.18,1927.67a9.06,9.06,0,1,1-9.06,9A9.09,9.09,0,0,1,1130.18,1927.67Zm0,15.23a6.18,6.18,0,0,0,0-12.36,6.18,6.18,0,0,0,0,12.36Z"/><path d="M236.9,1998.17c4.44,10.31,12.24,20,20.76,24.71a23.11,23.11,0,0,0-3.06,3.36c-9-5.58-16.92-16.32-21.6-28.07h-1v22.43h14.28v4H232V2036H227.9v-11.4H213.68v-4H227.9v-22.43h-1.08c-4.74,11.75-12.66,22.43-21.3,28.25a24.18,24.18,0,0,0-2.88-3.18c8-4.92,15.66-14.76,20.16-25.07H204.14v-4H227.9v-12.72H232v12.72h24v4Z"/><path d="M311.9,2020.54a33.64,33.64,0,0,1-8.22,7.38c2.4,2.82,5.22,4.44,8.16,4.38,1.68-.06,2.16-1.5,2.46-5.94a10.31,10.31,0,0,0,3.12,1.62c-.6,6.3-2.1,7.92-5.76,8-4.26,0-8.16-2.22-11.28-6a74.41,74.41,0,0,1-13.68,5.82,36.46,36.46,0,0,0-2.1-3.24,65.61,65.61,0,0,0,13.86-5.34,34.94,34.94,0,0,1-3.84-8.82H280.16v4.38l11.16-1-.06,2.88-11.1,1.08v6.12c0,2.1-.48,3.06-2.16,3.54s-4.38.54-8.94.54a19.42,19.42,0,0,0-1.26-3.18c3.36.12,6.48.06,7.38,0s1.2-.24,1.2-1v-5.7c-4.74.48-9.12.9-12.72,1.2l-.42-3.3c3.54-.24,8.1-.54,13.14-1v-4.68h-12.9v-3.18h12.9v-4.44c-3.78.42-7.68.72-11.28.91a12,12,0,0,0-.9-2.71c8.16-.48,18.18-1.55,23.52-2.94l2.52,2.58c-2.82.66-6.36,1.26-10.08,1.74v4.86h13.68a52.67,52.67,0,0,1-1.2-8.94h3.84a57.48,57.48,0,0,0,1.2,8.94h19v3.18H298.58a31.91,31.91,0,0,0,3.12,6.9,27.09,27.09,0,0,0,6.72-5.94Zm4.62-15.17h-53v-3.25H287.9V1998H269.3v-3.06h18.6v-4H266.06v-3.18h12.66a30,30,0,0,0-3.48-5.16l3.42-1.26a24.4,24.4,0,0,1,4.32,6.24l-.42.18H297.2a54.7,54.7,0,0,0,3.6-6.6l4.14,1.2c-1.2,1.86-2.52,3.84-3.72,5.4h12.84V1991H291.92v4h18.9V1998h-18.9v4.13h24.6Zm-5.7,9a34,34,0,0,0-9.48-5.52l2.16-2.46a38.32,38.32,0,0,1,9.66,5.22Z"/><path d="M352.46,2030.62a70.7,70.7,0,0,0,7.38.36c2.1.06,14.76,0,17.58-.06a16.36,16.36,0,0,0-1.44,3.84H359.72c-12.3,0-19.92-1.92-24.72-10.38a31.55,31.55,0,0,1-9.48,11.7,19.84,19.84,0,0,0-3.06-2.82c6.3-4.14,10.2-10.92,11.82-19.86l4,.6a55.92,55.92,0,0,1-1.5,6.06c2.34,5.64,6.3,8.52,11.7,9.84v-18.54H323.72v-3.6H376.4v3.6H352.46v7.08h20v3.6h-20Zm17.22-27.17h-39.6v-19.56h39.6Zm-4-16.44H334v5.16h31.68Zm0,8.1H334v5.27h31.68Z"/><path d="M436.7,1998.11H422.54v31.67c0,3.54-1,4.86-3.3,5.52s-7,.84-13.44.78a19.72,19.72,0,0,0-1.8-4.44c5.64.18,10.86.12,12.48.06,1.44,0,1.92-.48,1.92-1.86v-31.73h-35v-3.9h35v-12.84h4.14v12.84H436.7Zm-43,6.35c4.5,4.5,9.3,10.74,11.34,15l-3.6,2.34c-1.92-4.32-6.6-10.74-11-15.35Z"/><path d="M492.26,1987.67v46.49H488v-4.86H452.06v5.16H448v-46.79ZM488,2025.28v-33.59H452.06v33.59Z"/><path d="M515.18,1999.67a9.06,9.06,0,1,1-9.06,9A9.09,9.09,0,0,1,515.18,1999.67Zm0,15.23a6.18,6.18,0,1,0,0-12.36,6.18,6.18,0,1,0,0,12.36Z"/><path d="M550,1994.62a67.05,67.05,0,0,1-5.4,8.46v33.18h-3.78v-28.5a55.81,55.81,0,0,1-6,5.94,23.11,23.11,0,0,0-2.4-3.41,57.79,57.79,0,0,0,14-16.92Zm-1.44-11.87a59.41,59.41,0,0,1-13.32,14.1,20,20,0,0,0-2.22-2.82c4.44-3.3,9.42-8.4,11.94-12.66ZM582,2013.17a34,34,0,0,1-11.58,13.91,56.54,56.54,0,0,0,16.08,5.52,13.63,13.63,0,0,0-2.46,3.48,58.51,58.51,0,0,1-17.16-6.72,63.26,63.26,0,0,1-17.7,6.78,10.39,10.39,0,0,0-2-3.42,62.23,62.23,0,0,0,16.26-5.64,41.7,41.7,0,0,1-7.2-6.54,42.74,42.74,0,0,1-4.86,4.08,25.12,25.12,0,0,0-2.76-2.94,46.2,46.2,0,0,0,5.28-4.08,34,34,0,0,1-2.82-4.38l3.3-1.2a19.47,19.47,0,0,0,2,3.18,40.7,40.7,0,0,0,5.82-7.86c-9,.6-10.5.91-11.64,1.26a33.39,33.39,0,0,0-1.2-3.77c1.62-.19,3.78-1.26,6.6-2.88,1.44-.78,4.38-2.58,7.8-4.87-9.36.49-10.92.73-11.82,1.09a28.56,28.56,0,0,0-1.26-3.84,10.79,10.79,0,0,0,3.9-2.16A67.38,67.38,0,0,0,565.28,1982l3.9,1.8a87.44,87.44,0,0,1-11.7,10.32l11.1-.36a87.91,87.91,0,0,0,8.22-6.6l3.66,2.1a135.45,135.45,0,0,1-22.44,15l20.1-1.08c-1.5-1.87-2.94-3.72-4.38-5.29l3.06-1.61a90.33,90.33,0,0,1,10,13l-3.24,1.92c-.78-1.38-2-3.12-3.24-5-5.58.35-10.14.66-13.68.83a52.18,52.18,0,0,1-3,5h15.18l.72-.18Zm-20.94,2.21a33.51,33.51,0,0,1-2.34,2.76,40,40,0,0,0,8.16,6.9,31.13,31.13,0,0,0,9.72-9.66Z"/><path d="M635.84,2031.28c5.64,0,6.48-2.1,7.26-10.8a14.42,14.42,0,0,0,3.78,1.56c-.9,9.72-2.52,12.9-11.1,12.9H614.36c-8.58,0-11.16-1.8-11.16-9.12v-19.37l-10,3L592.1,2006l11.1-3.41v-17.16H607v16l13-4v-16h4v14.82l14.46-4.5,1.08-.9,3,.9-.18.78c-.36,8.27-1.08,19.14-2.28,25.73l-3.36-.9a208.48,208.48,0,0,0,1.68-21.78l-14.4,4.5v23.28h-4v-22.13l-13,4.07v20.64c0,4.26,1.26,5.34,7.14,5.34Z"/><path d="M702.92,2030.32c0,2.76-.78,4-2.64,4.68s-5.46.72-11.1.66a12.92,12.92,0,0,0-1.38-3.84c4.32.18,8.4.12,9.6.06s1.56-.42,1.56-1.56v-12.78H682.22v17.94h-4v-17.94H662.78c-.9,6.72-2.88,13.56-7.56,18.78a11.58,11.58,0,0,0-3-2.64c6.6-7.44,7.26-18,7.26-26.46v-21.59h43.44Zm-24.66-16.56v-10.5H663.38v4c0,2.11-.06,4.26-.24,6.54Zm-14.88-24.35v10.13h14.88v-10.13Zm35.58,0H682.22v10.13H699Zm0,24.35v-10.5H682.22v10.5Z"/><path d="M731.36,1982.75a105.89,105.89,0,0,1-6.18,12.9v40.25h-4v-34.07a58.5,58.5,0,0,1-6.36,7.67,22.37,22.37,0,0,0-2.34-3.9c6-5.81,11.64-14.81,15.06-24Zm17.22,12.48v9H766.1v3.72H748.58v9.48h18.3v3.78h-18.3V2036h-4v-40.73h-4.44a65.13,65.13,0,0,1-8.64,12.65,28.89,28.89,0,0,0-3.12-2.7c5.46-5.57,10.32-14.27,13.26-23l3.84,1c-1,2.82-2.22,5.58-3.42,8.28h25.38v3.84Z"/><path d="M823.88,2016.64a97.41,97.41,0,0,1-13.44,8.1,42.76,42.76,0,0,0,17.64,7.26,14.08,14.08,0,0,0-2.46,3.48c-13.74-3-23.34-10.38-28.56-21.72h-9.78v16.62l16.8-4.08c-.12,1-.18,2.64-.18,3.48-17,4.44-20,5.22-21.3,6l-.3.18a16.11,16.11,0,0,0-1.86-3.84,4.87,4.87,0,0,0,2.94-4.26v-14.1h-10v-3.66H784v-26.33h36.9v3.42H788.06v5.52H819V1996h-30.9v5.34H819v3.3h-30.9v5.46h38.58v3.66H801.08a30.21,30.21,0,0,0,6.72,8.82,90.28,90.28,0,0,0,12.78-8.1Z"/><path d="M841.82,2003.68c0,9.42-.78,23-5.76,32.34a13.14,13.14,0,0,0-3.54-1.8c4.86-9,5.34-21.6,5.34-30.54v-16.25h23.28a56.21,56.21,0,0,0-2.64-5.4l4-1a44.92,44.92,0,0,1,3.18,6.36h21v3.78H841.82Zm39.78,13.14c-2.82,5.16-7.32,9-12.78,11.88a77.26,77.26,0,0,0,18.6,3.84,15.79,15.79,0,0,0-2.28,3.48,73.29,73.29,0,0,1-20.64-5.34,84,84,0,0,1-21.42,5,20,20,0,0,0-1.68-3.42,82.44,82.44,0,0,0,18.9-3.66,31.66,31.66,0,0,1-10-8.76l2.16-.9h-8.22v-3.3h34.14l.78-.18Zm-28.38-5.34v-10h-9.9v-3.36h9.9v-5.4H857v5.4h15.18v-5.4h4v5.4H886v3.36h-9.84v10Zm.78,7.44a29.08,29.08,0,0,0,10.56,8,28.61,28.61,0,0,0,11.22-8Zm3-17.39v6.72h15.18v-6.72Z"/><path d="M946.46,2027.38h-24.6V2036h-4v-8.58H893.66v-3.54h24.18V2019H899.78v-20.64h41.1V2019h-19v4.86h24.6Zm-28.86-32.15H898.22v-11.52H917.6Zm-3.78-8.76H901.88v6h11.94Zm-10.2,20.63h14.22v-5.45H903.62Zm14.22,8.64v-5.52H903.62v5.52Zm19-14.09H921.86v5.45H936.8Zm0,8.57H921.86v5.52H936.8Zm5.34-15h-19.5v-11.52h19.5Zm-3.66-8.76H926.3v6h12.18Z"/><path d="M971.3,1982.63a90.29,90.29,0,0,1-6.18,12.84v40.43h-4v-34.19a70.15,70.15,0,0,1-6.36,7.79,23.56,23.56,0,0,0-2.28-3.9c5.94-5.81,11.58-14.81,15.06-24Zm35.76,47v3.84H969.62v-3.84h21.06a266.82,266.82,0,0,0,5.88-30.05l4.14.77c-1.56,9.24-4,21.18-6.3,29.28Zm-2.52-33.47H972.26v-3.84h32.28Zm-24.12,30.53a209.72,209.72,0,0,0-4.2-25.8l3.6-.71a205.18,205.18,0,0,1,4.56,25.37Zm6.84-35.21a72.34,72.34,0,0,0-2.88-9.48l3.72-1a88.64,88.64,0,0,1,3.06,9.36Z"/><path d="M1025.18,1999.67a9.06,9.06,0,1,1-9.06,9A9.09,9.09,0,0,1,1025.18,1999.67Zm0,15.23a6.18,6.18,0,0,0,0-12.36,6.18,6.18,0,0,0,0,12.36Z"/><line class="cls-3" x1="621" y1="351" x2="621" y2="351"/><path d="M421.71,1133.58q7.19-3.28,14.47-6.37l-6.69,2.83a572.77,572.77,0,0,1,113.33-34.29q16.83-3.27,33.81-5.55l-7.44,1a443.31,443.31,0,0,1,81.25-3.74c8,.4,16,1.09,23.93,2.15l-7.44-1c13,1.77,26.06,4.49,38.21,9.61l-6.69-2.83a69.21,69.21,0,0,1,15.12,8.62l-5.67-4.38A74.85,74.85,0,0,1,721,1112.78l-4.38-5.67a67.47,67.47,0,0,1,8.52,14.62l-2.82-6.69a70.91,70.91,0,0,1,4.71,17.47l-1-7.45a91.78,91.78,0,0,1-.19,24.22l1-7.44c-1.83,13.39-6,26.35-11.2,38.77l2.82-6.68c-9.08,21.46-21.38,41.49-34.89,60.43q-5.57,7.82-11.44,15.4l4.37-5.67c-17.36,22.43-36.26,43.83-57.42,62.76q-10.66,9.54-22,18.29l5.66-4.38c-26.06,20.08-54.5,36.84-84.17,51q-12.81,6.09-25.88,11.59l6.69-2.82c-27.59,11.61-55.89,21.45-84.44,30.4q-12.64,4-25.35,7.71a29.18,29.18,0,0,0-16.73,12.87,20.79,20.79,0,0,0-3.33,10.41,21.34,21.34,0,0,0,.5,11.17c2.2,6.77,6.4,13.31,12.87,16.73s14.25,5,21.58,2.82c32.18-9.54,64.17-19.86,95.39-32.23,31.53-12.5,62.48-26.63,91.53-44.2A440.57,440.57,0,0,0,671,1334.93c19.93-19.46,37.75-41.12,54.42-63.4,16.13-21.55,30.85-44.5,41.4-69.34,5.83-13.74,11.16-27.6,13.57-42.4a146.54,146.54,0,0,0,2.37-24.29,114.51,114.51,0,0,0-2.82-24c-3.52-15.69-11.66-29.76-22.15-41.77a98.24,98.24,0,0,0-18.39-15.91c-6.49-4.46-13.87-7.46-21.14-10.37-14.35-5.73-29.65-8-44.87-10a329.71,329.71,0,0,0-43.52-2.48c-32.3.11-64.55,3.86-96.29,9.7a574.83,574.83,0,0,0-109.34,31.41q-15.53,6.2-30.75,13.12a21.14,21.14,0,0,0-7.85,7.22,28.92,28.92,0,0,0-2.19,31.09c3.85,6,9.59,11.25,16.73,12.87l7.45,1a27.85,27.85,0,0,0,14.13-3.82Z"/><path d="M408.1,1297.32a866.37,866.37,0,0,1,96.52-18.59l-7.45,1q25.68-3.45,51.52-5.4c14.75-1.12,29.74-2.63,44.47-.66l-7.44-1a98,98,0,0,1,24.42,6.65l-6.69-2.82a99.62,99.62,0,0,1,21.65,12.74l-5.67-4.38a127.11,127.11,0,0,1,22.28,22.66l-4.38-5.67c11.53,15,20.31,31.9,27.66,49.27l-2.82-6.68c8.35,19.81,14.82,40.37,21.43,60.8,7.63,23.61,15,47.29,22.64,70.9,15.91,49.28,33.08,98.26,55.06,145.22a571.52,571.52,0,0,0,40.13,72.4c4,6.09,9.57,10.9,16.73,12.87,6.71,1.84,15.63,1,21.58-2.82s11.24-9.6,12.87-16.74,1.32-15.27-2.83-21.57a578.36,578.36,0,0,1-41.89-76.2q-5.17-11.2-10-22.6l2.83,6.69c-16.45-39-29.94-79.16-42.87-119.45-6.48-20.21-12.82-40.46-19.34-60.67-5.78-17.94-11.44-36-18.26-53.55-6.49-16.75-13.68-33.39-22.9-48.84a227.31,227.31,0,0,0-17.09-24.26,128.86,128.86,0,0,0-15.11-16.22c-14.54-13-31.21-23-50-28.61a133.16,133.16,0,0,0-30.72-4.93c-10.36-.54-20.81.41-31.14,1.14a922.63,922.63,0,0,0-144,21.43q-8.05,1.88-16.07,3.91a28.71,28.71,0,0,0-16.73,12.86c-3.52,6-5,14.85-2.83,21.58s6.39,13.31,12.87,16.73a29.63,29.63,0,0,0,21.58,2.82Z"/><line class="cls-4" x1="413" y1="1542" x2="665" y2="1542"/><rect class="cls-2" x="1115" y="1262" width="65" height="220" rx="12"/><path class="cls-1" d="M1159.05,1300.79a27.61,27.61,0,0,0,11.5,8.1,11.65,11.65,0,0,0-2.15,2.55,30.77,30.77,0,0,1-12.8-10.65h-15.95a34.39,34.39,0,0,1-13,11.3,11.43,11.43,0,0,0-2.15-2.55,30.39,30.39,0,0,0,11.6-8.75H1125v-2.85h10v-16.15h-7.7V1279h7.7v-5h3.3v5h18.55v-5h3.35v5h7.65v2.8h-7.65v16.15h9.8v2.85Zm-10,14.5h17.3v2.85H1128.8v-2.85h16.9v-5.6h-10.45v-2.8h10.45v-4.4h3.35v4.4h10.65v2.8h-10.65Zm-10.8-33.5v3.6h18.55v-3.6Zm0,9.8h18.55v-3.65h-18.55Zm0,6.35h18.55v-3.8h-18.55Z"/><path class="cls-1" d="M1143.25,1342.54s0,1.15,0,1.55c-.6,15.85-1.2,21.2-2.6,23a3.71,3.71,0,0,1-2.8,1.45,32.65,32.65,0,0,1-4.45,0,9.25,9.25,0,0,0-.85-3c1.75.15,3.2.15,3.9.15a1.42,1.42,0,0,0,1.45-.65c1-1.2,1.6-6,2.15-19.35h-6.8c-.55,10-2,18.25-6.45,23.65a9.53,9.53,0,0,0-2.55-2.35c5.45-6.45,5.9-17.85,6.1-31.55h-5.2v-3.1h20.1v3.1h-11.65c0,2.45-.1,4.85-.2,7.15Zm-7.9-10.45a33.47,33.47,0,0,0-4.25-7.15l2.9-1.15a31.92,31.92,0,0,1,4.4,7Zm23.85-7.45a15.26,15.26,0,0,1-.85,2.55c2.65,5.45,7.7,11.35,12.45,14a13,13,0,0,0-2.45,2.75c-4.25-2.7-8.5-8-11.4-13.3a32.61,32.61,0,0,1-11,13.6,12.79,12.79,0,0,0-2.35-2.65c5.85-3.6,10.35-10.2,12.5-17.85Zm-8.3,32.45a74,74,0,0,1,13.6,8.25l-2.25,2.9c-2.85-2.6-8.75-6.3-13.4-8.65Zm9.5-4.85a66.22,66.22,0,0,0-8.6-6.85l2.15-2.2a67.46,67.46,0,0,1,8.75,6.55Z"/><path class="cls-1" d="M1136.5,1387c-1.6,7.2-4.55,16.15-9.1,21.7a19.23,19.23,0,0,0-3.1-1.8c4.55-5.25,7.3-13.85,8.55-20.55Zm12.9-12.3v40c0,2.55-.7,3.6-2.35,4.2s-4.8.6-9.4.6a15.62,15.62,0,0,0-1.4-3.45c3.7.1,7.3.1,8.25.05s1.45-.35,1.45-1.4v-40ZM1161,1386c4.45,7,8.7,16.1,10,22l-3.45,1.45c-1.25-5.85-5.25-15.15-9.6-22.3Z"/><path class="cls-1" d="M1165.65,1451.74a72.75,72.75,0,0,1-7.65,3.65,19.75,19.75,0,0,0,12.1,9.55,10.66,10.66,0,0,0-2.1,2.6,22.77,22.77,0,0,1-12.5-11.1c-1.1.45-2.15.85-3.2,1.2,1.5,4.4.7,8.7-1.6,10.35a6,6,0,0,1-4.25,1.3c-1,0-2.25,0-3.55-.1a5.77,5.77,0,0,0-.9-2.85,30,30,0,0,0,4,.2,4.12,4.12,0,0,0,2.7-.65c1.35-1,1.9-3.75,1-6.9-5.55,3.7-14.45,7-22,8.45a11,11,0,0,0-1.45-2.4c8-1.1,17.65-4.65,22.65-8.35a13.35,13.35,0,0,0-1.25-2.15,69.47,69.47,0,0,1-17.55,6.35,7.59,7.59,0,0,0-1.4-2.15c5.8-1,13.4-3.4,17.7-5.85-.6-.55-1.25-1.15-2-1.7a80,80,0,0,1-15.25,4.15,16.41,16.41,0,0,0-1.55-2.2c5.7-.75,12.15-2.15,16.75-4.15h-18.55v-2.55h28c.3-.9.55-1.8.9-2.75h-21.7c1.25-2.8,3-7,4-10.25l3,.5a42,42,0,0,0-3.4-3.25l2-1.15h-6.25a29.23,29.23,0,0,1-5.1,5.6,25.27,25.27,0,0,0-2.35-2.2,26.89,26.89,0,0,0,7.5-9.35l3,.85c-.45.9-1,1.75-1.4,2.65h13.45v2.45h-8.3a44.9,44.9,0,0,1,4,3.65l-2.45,1.6a4.8,4.8,0,0,0-.7-.75c-.2.65-.45,1.25-.65,2h17.75l.6-.2,2.25.5c-.8,3.15-1.9,7-3,10.15h12V1449h-20.25c-.6.35-1.2.7-1.85,1a16.36,16.36,0,0,1,4.4,5.35,90.1,90.1,0,0,0,11.6-5.5Zm-10.2-10.3c.35-1.15.65-2.2,1-3.2h-17.7c-.45,1.15-.9,2.2-1.3,3.2Zm14.75-14.3v2.45h-16.6a28.84,28.84,0,0,1-4.55,5.15,15.06,15.06,0,0,0-2.55-2,21.57,21.57,0,0,0,6.7-9.1l3.1.8a26.43,26.43,0,0,1-1.25,2.7Zm-7.9,8a32.47,32.47,0,0,0-3.9-4.25l2.3-1.25a30.14,30.14,0,0,1,4,4Z"/></svg>