<svg id="Layer_1" data-name="Layer 1" xmlns="http://www.w3.org/2000/svg" viewBox="0 0 1242 2208"><defs><style>.cls-1{fill:#f6eabe;}.cls-2{fill:#b3b3b3;}.cls-3{fill:gray;}</style></defs><rect class="cls-1" width="1242" height="2208"/><path d="M914.4,352.67H423.71C422.12,489.23,406.24,652,311,770.3c-10.32-9.52-31.76-25.4-45.26-32.55,93.7-115.92,104-277.9,104-404.14V104.15H914.4ZM859.61,157.34H423.71V298.67h435.9Z"/><path d="M477.18,1743.67c-2.58,1.43-5.7,3-8.7,4.37,2.46,5.52,7.32,11.88,14.52,14.94a18.12,18.12,0,0,0-2.64,3.36c-7.5-3.66-12.54-11-15.06-16.86-1.2.54-2.4,1-3.48,1.38,4,7,3.12,13.86-1.14,16.62a9.52,9.52,0,0,1-6.12,1.74c-1.38,0-3.18-.06-5.1-.12a9.28,9.28,0,0,0-1.14-3.66,50.42,50.42,0,0,0,5.58.24,6.85,6.85,0,0,0,4.26-1c2.52-1.68,3.24-6,1.08-10.8-6.84,5.28-17.88,10.08-26.76,12.42a14.51,14.51,0,0,0-2.28-3.06c9.48-2.1,21.24-7,27.54-12.12a25.51,25.51,0,0,0-2.34-3c-5.82,3.9-14.88,7.32-21.9,9.06a15.75,15.75,0,0,0-2.34-2.94c7.38-1.44,16.62-4.68,22.08-8.16a31.09,31.09,0,0,0-3.66-2.88,94,94,0,0,1-15.42,5.64,14.31,14.31,0,0,0-2.28-2.76,84.06,84.06,0,0,0,17.76-5.93H435.78v-9.84c-1.2.84-2.4,1.55-3.72,2.34a14.11,14.11,0,0,0-2.64-2.76c8-4.32,14.16-10.32,17.34-15.24l4.26.84c-.84,1.2-1.68,2.28-2.7,3.48h13.56l.6-.24,2.76,1.8a40.15,40.15,0,0,1-4.8,6.48H476.7v13.14H455c-.72.47-1.5.95-2.28,1.43a28.71,28.71,0,0,1,7.32,6.78,101.21,101.21,0,0,0,13.92-7.13ZM439.56,1737H454v-6.83H439.56Zm5.88-14.87a59.64,59.64,0,0,1-5.28,4.86h15.66a38,38,0,0,0,3.84-4.86Zm27.36,8H457.62V1737H472.8Z"/><path d="M518.28,1715.05c-.06,2.1-.12,5.1-.42,8.64.9,7,4.56,32.51,25.74,42a12.63,12.63,0,0,0-2.88,3.36c-15.42-7.26-21.72-22.74-24.6-34-2.64,12.23-8.94,26.33-24.06,34.19a13.77,13.77,0,0,0-3.12-3.06c25-12.48,24.78-42.11,25-51.11Z"/><path d="M558.42,1732.87v2.51c0,10-.78,24.36-6.48,34.14a14.54,14.54,0,0,0-3.54-2c5.52-9.42,6.06-22.68,6.06-32.16V1718h44.28v14.88Zm0-11.34v7.74h36.3v-7.74Zm41.52,31.61v16.38H596v-2.4H562.32V1753.2h3.9v10.44h12.6v-13.92H564.48v-13.31h3.72v9.89h10.62V1734h4v12.35h11.28v-9.89h3.84v13.31H582.78v13.92H596v-10.5Z"/><path d="M627.36,1764.54c0,2.16-.48,3.24-1.8,3.84s-3.66.72-7.5.72a17,17,0,0,0-1.08-3.54c2.82.12,5.22.06,5.94.06s1.08-.3,1.08-1.14v-18.06c-2.34,1.75-4.68,3.42-6.84,5l-1.68-3.29c2.28-1.27,5.28-3.07,8.52-5v-7l-2.28,1.56a56,56,0,0,0-5.82-7.26l2.34-1.56a59.76,59.76,0,0,1,5.76,6.72v-14.82h-8.22v17.46c0,9.11-.6,22.25-4.86,31.37a9.84,9.84,0,0,0-2.82-2.4c3.9-8.52,4.26-20.28,4.26-29V1717h15ZM648,1735a10.84,10.84,0,0,1-.66,1c4.74,5,10.62,8.22,16.86,10.86a10.27,10.27,0,0,0-2.34,2.94,53.29,53.29,0,0,1-16.26-11.27,39.68,39.68,0,0,1-15.9,11.63,14.68,14.68,0,0,0-2.28-2.82c7.2-2.7,13.86-7.67,17.28-13.5Zm-4-9.54A43.48,43.48,0,0,1,630.36,1737a10.79,10.79,0,0,0-2.46-2.75,38.15,38.15,0,0,0,13.44-10.14H630.06v-3.36H644v-5.7h3.72v5.7h14.76v3.36h-12a84.3,84.3,0,0,1,12,10.38l-2.58,2.27c-2.52-3-7.62-7.43-12.18-10.91v7.86H644Zm-2,34.37c-3.9,2.22-7.8,4.56-11.16,6.48l-1.74-3c3.06-1.44,7.5-3.84,11.94-6.3Zm-2.94-3.3a34.77,34.77,0,0,0-5.94-6.78l2.46-1.74a33.13,33.13,0,0,1,6.06,6.48Zm5-11.93h3.6v21c0,1.92-.36,2.76-1.8,3.24s-3.48.6-7,.6a14.5,14.5,0,0,0-1.14-3.06c2.52.06,4.74.06,5.4,0s.9-.18.9-.84Zm7.14,12.29a76.61,76.61,0,0,1,11.4,7.74l-2.16,2.64a81.94,81.94,0,0,0-11.34-8.1Zm7.26-6.9a50.84,50.84,0,0,1-7.08,6.6l-2-2.1a47.43,47.43,0,0,0,6.72-6.72Z"/><path d="M689.22,1741.5c-1.86-2.46-5.4-6.35-8.52-9.59a39,39,0,0,1-9.06,12.59,27.49,27.49,0,0,0-3.06-2.82c6.36-5.27,10.44-13.73,12.48-24l4,.66a61.81,61.81,0,0,1-2.88,10.08,116.79,116.79,0,0,1,9.84,10.31Zm33.6,21.84v3.84h-53.4v-3.84H693.9v-12H673.68v-3.78H693.9v-31.91h4v24.53c6.3-4.92,10.32-12.83,12.36-22.37l3.84.66a59,59,0,0,1-3.18,10.44,146.81,146.81,0,0,1,11.7,12.42l-2.82,2.81a125.17,125.17,0,0,0-10.56-11.81,35.13,35.13,0,0,1-8.34,10.8c-.66-.67-2.1-2.11-3-2.83v7.26h20.82v3.78H697.92v12Z"/><path d="M780.54,1730a68.28,68.28,0,0,1-12.66,9.35H782.4v3.54h-21a121.93,121.93,0,0,1-11.46,4.92h26.82v21.6h-4v-1.86h-27.3v1.86h-3.9v-18.72c-3.6,1.2-7.26,2.16-10.8,3.06a17.92,17.92,0,0,0-2.1-3.3,142.24,142.24,0,0,0,24.66-7.56H729.72v-3.54h20.46v-5.81H734.7v-3.42h15.48v-4.56h3.9v4.56h14.7v3.42h-14.7v5.81H761a70.05,70.05,0,0,0,16.56-11.27Zm-38.46-7.32H729.84v-3.54h12.24v-4.32h4v4.32h8.46v3.54H746v4.8h-4ZM772.74,1751h-27.3v5.16h27.3Zm0,13.26V1759h-27.3v5.28Zm9.72-45.17v3.54H770v4.8h-4v-4.8h-8.82v-3.54h8.82v-4.26h4v4.26Z"/><path d="M794.88,1750.5c4.68-2,7.26-4.86,7.56-9.17a4,4,0,0,1-1.14.11c-2.34,0-4.26-1.31-4.26-4.07a4,4,0,0,1,4.32-4.08c3.18,0,4.86,2.58,4.86,6.66,0,6.41-4,11.21-10.08,13.43Z"/><path d="M83.1,1801.63v13.31h18.12v26.4H97v-3H65.1v3.24H61v-26.64H78.9v-13.31H54.48v-3.9H78.9v-10.92h4.2v10.92h24.6v3.9ZM97,1818.72H65.1v15.78H97Z"/><path d="M133.92,1788.67a83.4,83.4,0,0,1-6.6,12.3v40.37h-4v-34.67a66.33,66.33,0,0,1-8.4,9.17,25.86,25.86,0,0,0-2.34-3.78,67.69,67.69,0,0,0,17.64-24.59Zm15.72,20.16c2.16,16.25,6.24,27.41,13,28,1.68.12,2.76-3.48,3.42-10.5a13,13,0,0,0,3.3,2c-1.26,10.08-3.48,13.26-6.6,13.14-9.9-.72-14.58-13.38-16.92-32.21l-14.88,1.92-.6-3.79,15-1.85c-.54-5.53-1-11.52-1.26-17.82h4c.18,6.12.6,12,1.14,17.33l18.18-2.21.6,3.66Zm14.1-8.76a64.7,64.7,0,0,0-10-9.9l2.88-1.86a68.6,68.6,0,0,1,10.14,9.54Z"/><path d="M224.4,1791.73a88.51,88.51,0,0,1-10.74,14.34,40.76,40.76,0,0,0,15,10.31,13,13,0,0,0-2.64,3.3,43.09,43.09,0,0,1-13.32-9.3v3.49H190v-3.19a46,46,0,0,1-14.34,9.42,13.58,13.58,0,0,0-2.28-3.18,41.65,41.65,0,0,0,17-12.23c-2-1.74-5.1-4.15-7.8-6.12a37.29,37.29,0,0,1-5.46,5,10.58,10.58,0,0,0-2.64-2.58,36.34,36.34,0,0,0,11.82-14.22l4,.66c-.6,1.2-1.26,2.34-2,3.6h9.78l.72-.18,2.52,1.14a43.86,43.86,0,0,1-10.86,18.18h22.14A50,50,0,0,1,202,1793.89l2.76-.78v-2.94H221l.78-.3Zm-38.7,16.44c-3.54.54-6.78,1-9.9,1.43l-.6-3.06c2.82-.29,6.36-.71,10.32-1.2Zm7.44,19.25a118.79,118.79,0,0,1-14,11.64,22.61,22.61,0,0,0-3.12-2.64,83.26,83.26,0,0,0,13.5-10.56Zm9.84-4.2v18.3h-4v-18.3H179.64v-3.66h43.68v3.66Zm-16.92-28.85a15.62,15.62,0,0,1-1.5,2c2.58,1.86,5.64,4.08,7.74,5.76a33.27,33.27,0,0,0,4.2-7.74Zm19.62-.78a44.91,44.91,0,0,0,5.7,9.72,77.71,77.71,0,0,0,7.32-9.72Zm6.06,32.39c4.32,3.3,10.14,8,13.2,10.8l-3.3,2.4a162.45,162.45,0,0,0-13.08-11.28Z"/><path d="M256.14,1798.57a51.35,51.35,0,0,1-7.8,12.6c2.4,2.21,7.26,7.08,8.64,8.39l-2.52,3.24c-1.38-1.74-4.44-5.16-6.84-7.67v26.33h-4v-25.25a64.38,64.38,0,0,1-9.18,7.49,15.4,15.4,0,0,0-1.86-3.72A52.75,52.75,0,0,0,251,1800.85h-16.8v-3.66h19l.78-.18Zm-9-1.62a35,35,0,0,0-6.24-8.34l3.06-1.8a36,36,0,0,1,6.42,8.16Zm33.54,39.11c3.18,0,3.66-1.68,4.08-8.7a12.75,12.75,0,0,0,3.72,1.62c-.6,8.16-1.86,10.8-7.68,10.8H267.12c-6.18,0-8.1-1.5-8.1-7.68v-40.67h25.8v26.75h-3.9v-3.3H263v17.28c0,3.18.66,3.9,4.32,3.9Zm-17.7-41v16.13h17.94v-16.13Z"/><path d="M312.6,1829.76h-13v4.74H295.8v-43.67h16.8Zm-13-35.27v13.73h9.24v-13.73Zm9.24,31.61v-14.27h-9.24v14.27Zm24-28.31v8.09h13.32v3.61h-5.4v6.89h7.2v3.54h-7.2v16.68c0,2.4-.6,3.54-2.34,4.14s-4.74.72-9.66.72a16.74,16.74,0,0,0-1.32-3.78c3.78.12,7.2.12,8.16.06s1.26-.3,1.26-1.2v-16.62H314v-3.54h22.86v-6.89h-20.4v-3.61h12.48v-8.09H313.68v-3.6h15.24v-7.32h3.9v7.32h15.3v3.6Zm-11.76,24.47a51.18,51.18,0,0,1,7.86,10.32l-3.42,2.16a54.79,54.79,0,0,0-7.68-10.56Z"/><path d="M359.88,1822.5c4.68-2,7.26-4.86,7.56-9.17a4,4,0,0,1-1.14.11c-2.34,0-4.26-1.31-4.26-4.07a4,4,0,0,1,4.32-4.08c3.18,0,4.86,2.58,4.86,6.66,0,6.41-4,11.21-10.08,13.43Z"/><path d="M409,1824.3c-8.34,3.84-17.52,7.86-24.06,10.74l-1.44-4.08c2.34-.9,5.16-2.1,8.28-3.42l-1-37.55,4-.12.9,36c4-1.74,8.22-3.6,12.36-5.46Zm26.64,17c-2.82-4.2-8.58-10.68-13.8-16.14-4.68,7.2-11.4,12.54-21,16.5a31.65,31.65,0,0,0-3.12-3.42c20.88-7.56,27.24-22.14,29.94-48.35l4.32.42c-1.44,13-3.78,23.21-8,31.31,5.46,5.4,11.88,12.24,15.06,16.56Zm-23.22-30.6c-1.56-4.14-5.46-10.25-9.24-14.63l3.42-1.74a56.51,56.51,0,0,1,9.54,14.27Z"/><path d="M454.74,1813.26c-2.46-1.68-7.32-4.5-11-6.47l2.16-2.88c3.54,1.8,8.52,4.43,11.1,6.12ZM445.26,1838a182.58,182.58,0,0,0,11.34-19.31l2.94,2.63c-3.18,6.3-7.44,13.86-11,19.38Zm12.6-41c-2.52-1.74-7.44-4.62-11.22-6.6l2.22-2.82a104.52,104.52,0,0,1,11.28,6.24Zm23.58,11.16v10.31H494v22.62H490.2v-2.22h-22v2.58h-3.66v-23h13v-10.31H460.14v-3.84H477.6v-10.2c-4.5.66-9.12,1.26-13.44,1.68a16.36,16.36,0,0,0-1.14-3.42c10.38-1.14,22.68-2.94,29.28-5.28l3.18,3.12a106,106,0,0,1-14,3.3v10.8h16.68v3.84Zm8.76,14h-22v13.08h22Z"/><path d="M533.28,1787.05c-.06,2.1-.12,5.1-.42,8.64.9,7,4.56,32.51,25.74,42a12.63,12.63,0,0,0-2.88,3.36c-15.42-7.26-21.72-22.74-24.6-34-2.64,12.23-8.94,26.33-24.06,34.19a13.77,13.77,0,0,0-3.12-3.06c25-12.48,24.78-42.11,25-51.11Z"/><path d="M590,1790H575.22v35.15h-4v-38.87H590Z"/><path d="M643,1809.07H605.94c-.12,10.31-1.32,22.61-8.52,31.55a20.71,20.71,0,0,0-3.42-2.46c7.08-8.76,7.86-21,7.86-30.53v-17.34H643Zm-4.14-14.76H605.94V1805h32.94Z"/><path d="M652,1838.34h14.82v-35.15h4v38.87H652Z"/><path d="M703.92,1788.67a83.4,83.4,0,0,1-6.6,12.3v40.37h-4v-34.67a66.33,66.33,0,0,1-8.4,9.17,25.86,25.86,0,0,0-2.34-3.78,67.69,67.69,0,0,0,17.64-24.59Zm15.72,20.16c2.16,16.25,6.24,27.41,13,28,1.68.12,2.76-3.48,3.42-10.5a13,13,0,0,0,3.3,2c-1.26,10.08-3.48,13.26-6.6,13.14-9.9-.72-14.58-13.38-16.92-32.21l-14.88,1.92-.6-3.79,15-1.85c-.54-5.53-1-11.52-1.26-17.82h4c.18,6.12.6,12,1.14,17.33l18.18-2.21.6,3.66Zm14.1-8.76a64.7,64.7,0,0,0-10-9.9l2.88-1.86a68.6,68.6,0,0,1,10.14,9.54Z"/><path d="M795.12,1818.54a100.84,100.84,0,0,1-11.7,8.58,36.22,36.22,0,0,0,15.3,8.76,24.16,24.16,0,0,0-2.64,3.48c-12.3-4.08-20.82-13.2-25.38-25.61h-.18a53.79,53.79,0,0,1-9.6,8v13.8l14.88-4.5a18.38,18.38,0,0,0,.6,3.42c-16.62,5.4-18.66,6.12-20,7a14.6,14.6,0,0,0-1.74-3.66,3.9,3.9,0,0,0,2.16-3.78v-9.72a71.36,71.36,0,0,1-10.68,5.1,19.48,19.48,0,0,0-2.64-3.24,62.5,62.5,0,0,0,21.9-12.41H745.2v-3.54h23.7v-5.64H750.54v-3.36H768.9v-5.4H747.54v-3.48H768.9v-5.52h4v5.52h22v3.48h-22v5.4h19.32v3.36H772.92v5.64H796.8v3.54H774.54a38.86,38.86,0,0,0,6.6,11,80.68,80.68,0,0,0,10.74-8.46Z"/><path d="M851.82,1835.22c2.34,0,2.76-1.74,3-9.24a10.81,10.81,0,0,0,3.66,1.74c-.54,8.46-1.62,11.16-6.48,11.16h-9.54c-5.1,0-6.6-1.44-6.6-6.84v-37.49H820.62a81.19,81.19,0,0,1-3.3,9.24h11.82l.78-.12,2.4,1c-3.54,19.61-13.2,30.41-25.74,35.75a13.85,13.85,0,0,0-2.76-3.18,36.45,36.45,0,0,0,16.2-12.06,95,95,0,0,0-9.6-9.18,43.48,43.48,0,0,1-4.2,4.56,20,20,0,0,0-2.88-2.58c6.36-5.76,10.8-15.11,13.08-23.39H804.54v-3.9h53v3.9H839.88v16.37h15.78v3.72H839.88v17.46c0,2.58.48,3.12,3,3.12Zm-36.24-27.72a49.44,49.44,0,0,1-3.06,5.34,90.33,90.33,0,0,1,9.78,8.94,48.24,48.24,0,0,0,5.52-14.28Z"/><path d="M894.9,1809.84c-3.3,2.34-6.72,4.5-10.2,6.54h25.44v24.84h-4.08v-1.74h-25v2h-4v-21c-3.72,1.8-7.44,3.48-11.28,4.92a31,31,0,0,0-2.58-3.3,119.93,119.93,0,0,0,25.14-12.24H864.48v-3.59H885.3v-8.1H869.76v-3.54H885.3v-7.74h3.9v7.74h15.24V1797a87.19,87.19,0,0,0,7-8l3.36,1.86a92.21,92.21,0,0,1-15.18,15.42h17.94v3.59Zm11.16,10h-25v6.3h25Zm0,16.2v-6.66h-25V1836Zm-12.48-29.75a90.05,90.05,0,0,0,9.6-8.1h-14v8.1Z"/><path d="M935.28,1799.05h6.84v3.72h-6.84V1815l5.94-2,.54,3.73c-2.1.71-4.32,1.5-6.48,2.21v17.64c0,2.28-.54,3.36-1.86,4s-3.6.78-7.32.72a14.48,14.48,0,0,0-1.14-3.72c2.58.12,4.92.12,5.58.06s1.08-.24,1.08-1.08v-16.43l-7.62,2.51-1.14-3.78c2.4-.72,5.4-1.68,8.76-2.76v-13.37H923.7v-3.72h7.92v-12.18h3.66ZM972,1821.12a26.21,26.21,0,0,1-6.6,11.22,108.2,108.2,0,0,1,11.94,6.12l-2.94,2.82a135.21,135.21,0,0,0-12.06-6.48c-4.38,3.12-10.2,5.22-17.88,6.54a10.54,10.54,0,0,0-1.86-3.42c6.6-1,11.76-2.58,15.72-4.92-4.08-1.74-8.34-3.48-12.18-4.8,1.56-2,3.24-4.44,4.92-7.08h-8.52v-3.54h10.62a62.75,62.75,0,0,0,3-6.06l3.78.78c-.78,1.68-1.68,3.54-2.64,5.28h11.64c.24-1.14.48-2.28.72-3.54l3.84.79c-.18,1-.36,1.85-.54,2.75h5.46v3.54Zm5.82-10.37H943.26v-3.49h20.16a54.93,54.93,0,0,0,4.86-9.53l3.72,1.08c-1.38,2.82-3.06,5.94-4.62,8.45h10.44Zm-1.2-14h-31.8v-3.48H959.7a48.49,48.49,0,0,0-2.7-5.94l4.08-.78a40.35,40.35,0,0,1,3.24,6.72h12.3Zm-22.8,10a36.54,36.54,0,0,0-4.5-7.74l3.24-1.32a36.57,36.57,0,0,1,4.68,7.5Zm1.38,14.39a52.9,52.9,0,0,1-3.66,5.58c3.24,1.2,6.66,2.52,10,4a22.2,22.2,0,0,0,6.3-9.54Z"/><path d="M1029.06,1816.33a37.4,37.4,0,0,1-14,15.23,73.55,73.55,0,0,0,22.56,6.12,21,21,0,0,0-2.46,3.72,70.86,70.86,0,0,1-24.06-7.62c-7.26,3.78-15.72,6.18-24.42,7.62a16.14,16.14,0,0,0-2.28-3.54,80.06,80.06,0,0,0,22.92-6.36,40.89,40.89,0,0,1-12.6-12.83l.3-.13h-2.46v-3.71h33.12l.84-.19Zm-39.66-.25h-3.78v-12h36.18a86,86,0,0,0,5.82-10.43l4,1.2a98.83,98.83,0,0,1-5.76,9.23h10.62v12h-3.9v-8.45H989.4Zm43.44-26.21c-11.7,2.52-30.24,4-45.66,4.68a13.84,13.84,0,0,0-1-3.42c15.3-.66,33.72-2.22,43.8-4.44Zm-38.28,5a34.73,34.73,0,0,1,4.38,8l-3.54,1.19a39.1,39.1,0,0,0-4.26-8.27Zm4.44,23.69a36.27,36.27,0,0,0,12.12,10.92,34.08,34.08,0,0,0,12-10.92Zm11.1-15a37.22,37.22,0,0,0-3.06-9l3.54-.78a34.58,34.58,0,0,1,3.3,8.88Z"/><path d="M1094.4,1791.73a88.51,88.51,0,0,1-10.74,14.34,40.76,40.76,0,0,0,15,10.31,13,13,0,0,0-2.64,3.3,43.09,43.09,0,0,1-13.32-9.3v3.49H1060v-3.19a46,46,0,0,1-14.34,9.42,13.58,13.58,0,0,0-2.28-3.18,41.65,41.65,0,0,0,17-12.23c-2-1.74-5.1-4.15-7.8-6.12a37.29,37.29,0,0,1-5.46,5,10.58,10.58,0,0,0-2.64-2.58,36.34,36.34,0,0,0,11.82-14.22l4,.66c-.6,1.2-1.26,2.34-2,3.6h9.78l.72-.18,2.52,1.14a43.86,43.86,0,0,1-10.86,18.18h22.14a50,50,0,0,1-10.56-16.32l2.76-.78v-2.94H1091l.78-.3Zm-38.7,16.44c-3.54.54-6.78,1-9.9,1.43l-.6-3.06c2.82-.29,6.36-.71,10.32-1.2Zm7.44,19.25a118.79,118.79,0,0,1-14,11.64,22.61,22.61,0,0,0-3.12-2.64,83.26,83.26,0,0,0,13.5-10.56Zm9.84-4.2v18.3h-4v-18.3h-19.32v-3.66h43.68v3.66Zm-16.92-28.85a15.62,15.62,0,0,1-1.5,2c2.58,1.86,5.64,4.08,7.74,5.76a33.27,33.27,0,0,0,4.2-7.74Zm19.62-.78a44.91,44.91,0,0,0,5.7,9.72,77.71,77.71,0,0,0,7.32-9.72Zm6.06,32.39c4.32,3.3,10.14,8,13.2,10.8l-3.3,2.4a162.45,162.45,0,0,0-13.08-11.28Z"/><path d="M1121.34,1823.16c-1.08-1.68-3.54-4.86-5.52-7.44v25.74h-3.66v-24.54a46.56,46.56,0,0,1-7.08,6.84,13.07,13.07,0,0,0-1.86-3.78c5.76-4.14,11.82-11.64,15.18-19.13h-14v-3.66h15.9l.72-.18,2.16,1.5a56.84,56.84,0,0,1-6.72,12.83c2,2.29,6.3,7.2,7.38,8.58Zm-7.38-26.45a35.79,35.79,0,0,0-5-7.68l2.94-1.92a36.63,36.63,0,0,1,5.16,7.5Zm44.4,40.37v3.18h-35.7v-3.18h11.28a61.87,61.87,0,0,0-2.34-6l3.12-.9a52.37,52.37,0,0,1,2.82,6.9h6.72a49.89,49.89,0,0,0,3.06-7l3.66,1c-1.14,2.1-2.28,4.2-3.3,6Zm-.6-21.95H1124.1V1812h33.66ZM1156,1809h-29.88v-17.1h8.7v-5h3.3v5h5.58v-5h3.3v5h9Zm-28,20.51v-11.1H1154v11.1Zm1.5-30.47h5.76v-4.38h-5.76Zm0,7.2h5.76v-4.56h-5.76Zm1.92,20.45h19.14v-5.52h-19.14Zm12.3-27.65v-4.38h-5.58V1799Zm-5.58,2.64v4.56h5.58v-4.56Zm14.4-7h-5.94V1799h5.94Zm0,7h-5.94v4.56h5.94Z"/><path d="M1176.18,1805.17a9.06,9.06,0,1,1-9.06,9A9.09,9.09,0,0,1,1176.18,1805.17Zm0,15.23a6.18,6.18,0,0,0,0-12.36,6.18,6.18,0,0,0,0,12.36Z"/><path d="M120.9,1861.33v52.07h-3.84v-2.94H74.94v2.94H71.22v-52.07ZM117.06,1907v-42H74.94v42Zm-19.68-25.56c-.18,1.08-.36,2.1-.6,3.12,6.3,5.46,13.2,12.72,16.5,17.52l-2.88,2.4c-2.94-4.44-8.88-11-14.52-16.32-2.28,7.26-6.42,13.08-14.58,16.86a10.68,10.68,0,0,0-2.52-3.12c9.54-4.2,13.2-11.46,14.7-20.46H78.6v-3.66H94c.36-3.18.54-6.59.66-10.13h3.9c-.18,3.54-.36,6.9-.72,10.13H113.4v3.66Z"/><path d="M181.74,1890.67s-.06,1.19-.12,1.73c-1.14,12.66-2.28,17.64-4.14,19.56a5.52,5.52,0,0,1-4,1.56,66.58,66.58,0,0,1-7.5-.12,9.39,9.39,0,0,0-1.2-3.66c3.12.3,6.06.3,7.2.3a3,3,0,0,0,2.22-.54c1.26-1.32,2.4-5.34,3.36-15.3H140a59.21,59.21,0,0,1-9.66,7.32,19.86,19.86,0,0,0-2.22-3.3c10.26-6,17.82-15.18,23.1-25.43h-20v-3.66H153a82.29,82.29,0,0,0,3.84-10.32l3.9,1a92.32,92.32,0,0,1-3.54,9.3H173c-.72,3.48-1.56,7.62-2.34,10.74h7c-.66,3.47-1.5,7.67-2.28,10.8ZM132.36,1911c3.42-3.24,5.7-8.58,7-13.2l3.3,1.08c-1.44,4.92-3.54,10.62-7.14,14.16Zm12.42-42.17a39,39,0,0,0-6-8.34l3.42-1.44a39.57,39.57,0,0,1,6.18,8Zm26.82,21.84c.54-2.11,1.08-4.69,1.56-7.21H149.34a75.18,75.18,0,0,1-5.76,7.21Zm-21.48,7.91a44,44,0,0,1,1.8,11.88l-3.48.54a39.57,39.57,0,0,0-1.62-11.94Zm5.4-25.79c-1.14,2.4-2.46,4.79-3.84,7.08h15.24c.54-2,1.14-4.62,1.62-7.08Zm3.18,25a43,43,0,0,1,3.6,10.26l-3.3.9a45.91,45.91,0,0,0-3.42-10.44Zm10.32,8a38.83,38.83,0,0,0-4.56-8.1l2.76-1.08a34.18,34.18,0,0,1,4.74,7.86Z"/><path d="M210.42,1897.44a68.66,68.66,0,0,1-18.18,16.26,34.82,34.82,0,0,0-3.12-2.82c6.48-3.72,13.62-9.72,17.16-14.94Zm25.92-34.07v26.76H195.78v-26.76Zm-36.54,22.92h32.34v-19.14H199.8Zm25.32,9.47c6,4.56,13.56,11,17.28,15.36l-3.6,2.46c-3.48-4.38-10.92-11-17-15.78Z"/><path d="M269.76,1870.45c-1.2,2.46-2.52,5-3.9,7.31h29.22v30.54c0,2.52-.6,3.72-2.46,4.38s-5.16.66-10.38.66a16.63,16.63,0,0,0-1.32-3.9c4.14.18,7.8.12,8.82.12s1.44-.42,1.44-1.32v-6.66H264.9c-.84,4.38-2.58,8.88-6.12,12.24a12.44,12.44,0,0,0-2.76-3.12c5-4.86,5.52-11.52,5.52-17.22V1884a50.45,50.45,0,0,1-10.14,9.71,17.42,17.42,0,0,0-2.52-3.12c7.2-4.91,12.66-12.17,16.56-20.09H250.08v-3.78h17a57.7,57.7,0,0,0,2.76-7.8l4,.9a72.7,72.7,0,0,1-2.46,6.9h30.84v3.78Zm21.42,27.65v-6.72H265.56v2.16c0,1.44-.06,2.94-.18,4.56Zm0-16.73H265.56v6.53h25.62Z"/><path d="M354.06,1888.33a37.4,37.4,0,0,1-14,15.23,73.55,73.55,0,0,0,22.56,6.12,21,21,0,0,0-2.46,3.72,70.86,70.86,0,0,1-24.06-7.62c-7.26,3.78-15.72,6.18-24.42,7.62a16.14,16.14,0,0,0-2.28-3.54,80.06,80.06,0,0,0,22.92-6.36,40.89,40.89,0,0,1-12.6-12.83l.3-.13h-2.46v-3.71h33.12l.84-.19Zm-39.66-.25h-3.78v-12H346.8a86,86,0,0,0,5.82-10.43l4,1.2a98.83,98.83,0,0,1-5.76,9.23h10.62v12h-3.9v-8.45H314.4Zm43.44-26.21c-11.7,2.52-30.24,4-45.66,4.68a13.84,13.84,0,0,0-1-3.42c15.3-.66,33.72-2.22,43.8-4.44Zm-38.28,5a34.73,34.73,0,0,1,4.38,8l-3.54,1.19a39.1,39.1,0,0,0-4.26-8.27Zm4.44,23.69a36.27,36.27,0,0,0,12.12,10.92,34.08,34.08,0,0,0,12-10.92Zm11.1-15a37.22,37.22,0,0,0-3.06-9l3.54-.78a34.58,34.58,0,0,1,3.3,8.88Z"/><path d="M387.78,1903.38c4.2-.78,8.52-1.5,12.72-2.34l.24,3.48c-10.62,2.1-22,4.32-29.88,5.76l-.84-3.72c3.72-.66,8.58-1.5,13.92-2.46v-10.44H372.12v-3.6h11.82v-6.65h3.84v6.65H400v3.6H387.78Zm-17.28-40.49h30.6v3.54H384.84a79.11,79.11,0,0,1-7.26,11.7l16.2-1.44c-1.56-2.16-3.18-4.32-4.68-6.18l2.88-1.74a88.33,88.33,0,0,1,9.12,12.83l-3,2a36.18,36.18,0,0,0-2.28-3.83c-19,1.92-21.18,2.16-22.5,2.75a24.8,24.8,0,0,0-1.38-3.77c1-.19,1.86-1.27,2.88-2.65a55.36,55.36,0,0,0,5.58-9.65h-9.9ZM408.36,1900h-3.72v-36h3.72Zm12-40.13v47c0,2.64-.66,3.84-2.34,4.5s-4.92.78-9.18.78a16.81,16.81,0,0,0-1.56-4c3.6.12,6.9.12,7.92.06s1.26-.3,1.26-1.26v-47Z"/><path d="M483,1900.74H468.9v8.1c0,2.4-.54,3.42-2.4,4s-5,.6-9.78.6a12.7,12.7,0,0,0-1.38-3.6c4.08.12,7.32.12,8.4.06s1.2-.3,1.2-1.08v-8.1h-36v-3.36h36v-4h-30v-20.88h14v-3.83H430.26v-3.24H445a42.77,42.77,0,0,0-4.32-5.28l3.24-1.44a48.49,48.49,0,0,1,5.1,6.18l-1.08.54h15.18a43.14,43.14,0,0,0,3.9-6.72l4.08,1.32c-1.26,1.86-2.7,3.78-4,5.4h14.46v3.24h-19v3.83h14.4v20.88h-8v4H483Zm-44.4-10h34.56v-9h-8.82c-4.2,0-5.28-.65-5.28-3.77v-2.64H452.4c-.42,3.42-2.7,6.77-10.44,8.82a9.32,9.32,0,0,0-2-2.64c6.84-1.27,8.58-3.73,8.94-6.18H438.6Zm3.66,10.2a67.43,67.43,0,0,1,10.14,7.5l-2.52,2.82a62.67,62.67,0,0,0-10-7.86Zm1.44-16.08h25v2.58h-25Zm8.76-12.3h6.6v-3.83h-6.6Zm10.08,2.77V1878c0,1.13.36,1.38,2.16,1.38h7c1.08,0,1.32-.07,1.44-.3v-3.72Z"/><path d="M538.26,1872.19c-1.32,10.73-3.48,19.37-7.2,26.33a27.86,27.86,0,0,0,12.36,11.34,17.36,17.36,0,0,0-2.88,3.36,30.12,30.12,0,0,1-11.76-11,38.1,38.1,0,0,1-12.84,11.34,20.49,20.49,0,0,0-2.4-3.54,31.88,31.88,0,0,0,13-11.58,74.8,74.8,0,0,1-5.76-17.94,38.81,38.81,0,0,1-2.52,3.42,17.14,17.14,0,0,0-2.7-2.88c-.12,19.62-.24,25.68-1.38,27.6a4,4,0,0,1-3.18,1.8,30,30,0,0,1-4.74.06,9.53,9.53,0,0,0-1-3.6,41.84,41.84,0,0,0,4.2.18,1.34,1.34,0,0,0,1.44-.84c.66-1.2.84-7.44,1-25.55H496.8c-.78,1.56-1.56,3.18-2.4,4.56h13.8v18.89H505v-2.88h-8.28v5h-3.06v-19.85a31,31,0,0,1-2.82,3.72,21.32,21.32,0,0,0-2.34-3.3,33.23,33.23,0,0,0,7.26-13.92l3.54.9c-.36,1.14-.72,2.27-1.14,3.42h17.4v3.35c4.5-5.33,7.38-13.31,9.12-21.89l4,.66a84.51,84.51,0,0,1-2.46,9.12H542.7v3.72Zm-39.9-4.14H490.2v-3.48h8.16v-5.7h3.42v13.2h-3.42Zm-1.62,20.33v9.42H505v-9.42Zm13.56-15.23h-3.54V1859h3.54v5.58h8.1v3.48h-8.1Zm14.7-1c-.54,1.26-1.08,2.46-1.68,3.72a70.92,70.92,0,0,0,5.46,18.47c2.88-6,4.5-13.38,5.52-22.19Z"/><path d="M565,1859.53c-1,2.94-2.1,6.3-3.18,8.88H572v38.75h-16.8v4.8h-3.66v-43.55h6.66a64.68,64.68,0,0,0,2.58-9.72Zm3.3,12.47H555.18v13.08h13.14Zm0,31.56v-14.88H555.18v14.88Zm33.06-33.17c-1,27.53-1.8,36.71-4.2,39.59a5.6,5.6,0,0,1-4.56,2.28,74.94,74.94,0,0,1-8.82-.12,9.42,9.42,0,0,0-1.32-3.9c3.9.36,7.5.36,8.82.36s1.92-.12,2.52-.9c2-2.1,2.94-11.34,3.72-35.7H581.82a55.33,55.33,0,0,1-5.64,10.68,36.22,36.22,0,0,0-3.36-2.22c4.08-5.33,7.32-13.61,9.18-21.89l3.84.84c-.78,3-1.62,6-2.64,8.88h18.18Zm-12.78,27a106.51,106.51,0,0,0-9.3-13.92l3.06-1.79a102.47,102.47,0,0,1,9.6,13.61Z"/><path d="M658,1881.07H620.94c-.12,10.31-1.32,22.61-8.52,31.55a20.71,20.71,0,0,0-3.42-2.46c7.08-8.76,7.86-21,7.86-30.53v-17.34H658Zm-4.14-14.76H620.94V1877h32.94Z"/><path d="M722,1875.13H705.6V1907c0,3-.84,4.2-2.82,4.92s-5.4.78-11.28.72a17,17,0,0,0-1.44-4.14c4.32.18,8.46.12,9.6.12s1.68-.42,1.68-1.62V1876.5c-7,11.46-18.78,23.34-29.94,29.64a16.78,16.78,0,0,0-3-3.54c10.92-5.52,22.38-16.68,29-27.47H670.26v-4.08h31.08v-12.24h4.26v12.24H722Z"/><path d="M753.42,1909c0,2.16-.42,3.12-1.92,3.72s-4.14.66-7.92.66a12,12,0,0,0-1.26-3.36c2.94.12,5.52.06,6.3,0s1-.24,1-1v-9.84c-4.2,2.4-8.4,4.8-11.88,6.72l-1.56-3.42c3.42-1.44,8.46-4,13.44-6.54v-12.42h-13V1895c0,5.82-.66,13.44-4.8,18.6a11,11,0,0,0-2.76-2.76c3.48-4.56,3.84-10.8,3.84-15.9V1880h20.52Zm-4-45.83a80.34,80.34,0,0,1,8,13.2l-3.42,1.62a43.11,43.11,0,0,0-2-4.14c-16.44,1.38-18.48,1.61-19.8,2.15-.24-.83-.84-2.81-1.26-3.77.9-.19,1.92-1.08,3.12-2.4a61,61,0,0,0,7.74-11l4,1.32a74.45,74.45,0,0,1-8.58,11.4l13.08-1c-1.32-2.1-2.64-4.32-4-6.12Zm-10,24.12a88.43,88.43,0,0,1,9.9,6.23l-2.1,2.34a93.21,93.21,0,0,0-9.84-6.54Zm26-2.65c-4.92,0-6.36-1.73-6.36-6.47v-19.26H763v8.46h16.44v3.6H763v7.26c0,2.15.54,2.94,2.52,2.94h11.4a31,31,0,0,0,4.92-.37c.06,1.08.24,2.58.36,3.49a27.05,27.05,0,0,1-5.16.35Zm11.4,24.78c2.58,0,3.06-1.14,3.3-7.74a11.77,11.77,0,0,0,3.6,1.5c-.54,7.8-1.74,9.78-6.54,9.78h-11c-5.58,0-7.08-1.2-7.08-5.82v-20.39H763V1894h17.1v3.6H763V1907c0,2,.6,2.34,3.54,2.34Z"/><path d="M809.22,1885.5c-1.86-2.46-5.4-6.35-8.52-9.59a39,39,0,0,1-9.06,12.59,27.49,27.49,0,0,0-3.06-2.82c6.36-5.27,10.44-13.73,12.48-24l4,.66a61.81,61.81,0,0,1-2.88,10.08,116.79,116.79,0,0,1,9.84,10.31Zm33.6,21.84v3.84h-53.4v-3.84H813.9v-12H793.68v-3.78H813.9v-31.91h4v24.53c6.3-4.92,10.32-12.83,12.36-22.37l3.84.66a59,59,0,0,1-3.18,10.44,146.81,146.81,0,0,1,11.7,12.42l-2.82,2.81a125.17,125.17,0,0,0-10.56-11.81,35.13,35.13,0,0,1-8.34,10.8c-.66-.67-2.1-2.11-3-2.83v7.26h20.82v3.78H817.92v12Z"/><path d="M869.16,1872.13a67.9,67.9,0,0,1-7.2,12.24v28.85h-4v-24a41.57,41.57,0,0,1-7.26,6.41,17,17,0,0,0-2-3.48c7-5,12.3-12.23,16.14-20H850v-3.84h16.44a65.25,65.25,0,0,0,3.3-9.42l4.08,1c-.9,2.82-1.86,5.64-3,8.4H902.1v3.84Zm32.94,36.23v3.72H866v-3.72h16v-17.52H868.32v-3.71H882v-11.82h4v11.82h13.8v3.71H886v17.52Z"/><path d="M957.48,1908.24c1.86,0,2.1-2.28,2.34-11.4a9.66,9.66,0,0,0,3.78,1.86c-.42,10-1.32,13.44-5.88,13.44h-6.84c-4.32,0-5.64-1.5-5.64-6.9v-38.87H925.68v14.34c0,10.31-1.74,24.11-13.74,32.93a14.51,14.51,0,0,0-3-3.06c11.4-8.28,12.6-20.28,12.6-29.93v-18.18h27.78v42.83c0,2.46.36,2.94,2.16,2.94Z"/><path d="M996.66,1903.56c-9.18,2-19,4.2-25.86,5.64l-.84-4c6.48-1.26,16.68-3.3,26.4-5.34ZM1019.4,1878a72.08,72.08,0,0,1-10.68,21c2.22,6.54,5.1,10.44,8.34,10.44,1.74,0,2.52-3.12,2.88-11.16a9.35,9.35,0,0,0,3.48,2.16c-.72,10.2-2.28,13.14-6.72,13.14-4.68,0-8.34-4.14-11.1-10.86a56,56,0,0,1-13.26,10.74,21,21,0,0,0-3.06-3.06,49.81,49.81,0,0,0,14.82-12c-2.16-7.08-3.54-16-4.26-25.85H970.32v-4h29.34c-.18-3.12-.24-6.3-.3-9.54h4.26c0,3.24.06,6.48.18,9.54h18.06v4H1004a119.47,119.47,0,0,0,3.3,21.77,67.39,67.39,0,0,0,8.22-17.27Zm-25.08.12v18h-20.4v-18Zm-3.9,3.47H977.58v11h12.84Zm27.36-13.37a46.24,46.24,0,0,0-10.38-6.6l2.28-2.46a44.18,44.18,0,0,1,10.5,6.3Z"/><path d="M1047.3,1891.68l.78,3.54c-6.3,2.88-13,5.94-18.24,8.16l-1.5-4c2.28-.9,5.22-2,8.4-3.36v-19h-7.38v-3.77h7.38v-13.74h3.72v13.74h6.6V1877h-6.6v17.52Zm28.08,16.8c3.54,0,4.14-1.62,4.56-8.7a9.15,9.15,0,0,0,3.6,1.56c-.66,8.16-1.92,10.74-8,10.74h-15.12c-6.66,0-8.52-1.5-8.52-7.68v-19.49l-5,2.15-1.56-3.48,6.6-2.75v-16.5h3.78v14.88l8.64-3.67v-16.73h3.78V1874l9.6-4.08,3.06,1-.24.72c-.6,8.46-1.74,19.49-3.24,26.27l-3.24-1a207.74,207.74,0,0,0,2.4-22.43l-8.34,3.54v22.19h-3.78v-20.63l-8.64,3.66v21.17c0,3.24.78,4,4.8,4Z"/><path d="M1142.76,1906.68v4H1089.3v-4h22.62v-46.85h4.14v18.54h22.62v4h-22.62v24.3Z"/><path d="M1154.88,1894.5c4.68-2,7.26-4.86,7.56-9.17a4,4,0,0,1-1.14.11c-2.34,0-4.26-1.31-4.26-4.07a4,4,0,0,1,4.32-4.08c3.18,0,4.86,2.58,4.86,6.66,0,6.41-4,11.21-10.08,13.43Z"/><path d="M256,1963c-.3,7.5-1.38,16.2-4.74,22.5A14.72,14.72,0,0,0,248,1983c3.84-7.32,4.14-17.7,4.14-25.5v-20.69c7.14-.84,15.84-2.46,20.46-4.68l2.58,3.3c-4.86,2.16-12.42,3.6-19.14,4.44v5.94h16.26V1963Zm.12-13.56v10h12.36v-10Zm47,5.46h-7.26v30.36H292v-30.36h-9.84v2.16c0,8.82-1.14,20.82-8.52,28.5a17.13,17.13,0,0,0-3.12-2.7c6.9-7.2,7.56-17.64,7.56-25.8v-20.15c7.5-1.14,16.38-3.06,21.18-5.34l2.7,3.36c-5,2.22-12.84,3.84-19.8,4.92v11.21h21Z"/><path d="M334,1968.3c-8.34,3.84-17.52,7.86-24.06,10.74l-1.44-4.08c2.34-.9,5.16-2.1,8.28-3.42l-1-37.55,4-.12.9,36c4-1.74,8.22-3.6,12.36-5.46Zm26.64,17c-2.82-4.2-8.58-10.68-13.8-16.14-4.68,7.2-11.4,12.54-21,16.5a31.65,31.65,0,0,0-3.12-3.42c20.88-7.56,27.24-22.14,29.94-48.35l4.32.42c-1.44,13-3.78,23.21-8,31.31,5.46,5.4,11.88,12.24,15.06,16.56Zm-23.22-30.6c-1.56-4.14-5.46-10.25-9.24-14.63l3.42-1.74a56.51,56.51,0,0,1,9.54,14.27Z"/><path d="M418.92,1979.82c0,2.76-.78,4-2.64,4.68s-5.46.72-11.1.66a12.92,12.92,0,0,0-1.38-3.84c4.32.18,8.4.12,9.6.06s1.56-.42,1.56-1.56V1967H398.22V1985h-4V1967H378.78c-.9,6.72-2.88,13.56-7.56,18.78a11.58,11.58,0,0,0-3-2.64c6.6-7.44,7.26-18,7.26-26.46v-21.59h43.44Zm-24.66-16.56v-10.5H379.38v4c0,2.11-.06,4.26-.24,6.54Zm-14.88-24.35V1949h14.88v-10.13Zm35.58,0H398.22V1949H415Zm0,24.35v-10.5H398.22v10.5Z"/><path d="M444.3,1960.21a54.19,54.19,0,0,1-4,13.55c4.08,6.36,11.7,7.26,22.86,7.32,6.24,0,14.76-.3,20.7-.78a15.25,15.25,0,0,0-1.32,3.84c-5.46.36-12.9.48-19.44.48-12.12,0-19.68-1.2-24.36-7.8a29.13,29.13,0,0,1-8.1,8.88,11.88,11.88,0,0,0-2.64-2.82c5.88-3.72,10.26-10.44,12.18-20.1h-6.84a6.23,6.23,0,0,0-3.48.85,26.17,26.17,0,0,0-1.56-3.73,5.57,5.57,0,0,0,2.88-1.73c1.44-1.45,5.22-6.54,7.86-10.21h-10v-3.29H441.6l.66-.3,2.7,1.26c-2.58,3.54-7.2,9.83-10.68,13.85h7.32l.66-.06Zm-5.46-17.88a84.82,84.82,0,0,0-7.5-9.6l2.94-1.8a88.78,88.78,0,0,1,7.62,9.18Zm43.74-1.14H444.84V1938H462.9a42.75,42.75,0,0,0-4.5-6.3l3.66-1.5a45.34,45.34,0,0,1,4.8,6.36L463.8,1938h18.78ZM449,1961.52h28.74v14.1H449Zm28.5-12.71H449.64v-3.06h27.84Zm-27.84,4.86h27.84v3H449.64Zm3.12,18.83h21v-7.86h-21Z"/><path d="M543.66,1980.84v3.36H508v-3.36h16.68v-5H511.38v-3.24h13.26v-4.62H512.1v-19h12.54v-4.32H509.46v-3.3h15.18V1937c-4.44.36-8.94.6-13.08.72a10.47,10.47,0,0,0-.84-2.88,56.71,56.71,0,0,1-7.74,2.4v10.44h7.8v3.71H503v4c1.8,1.57,7.08,7,8.28,8.4l-2.4,3.12a90.6,90.6,0,0,0-5.88-7.68v26.16H499.2v-27.47c-2.52,6.3-5.88,12.65-9.12,16.43a18.74,18.74,0,0,0-2-3.54c3.84-4.32,8.16-12.3,10.56-19.38h-9.42v-3.71h10v-9.6c-3.06.6-6.18,1.14-9.06,1.62a17,17,0,0,0-1.26-3.12c6.72-1.14,14.7-2.82,19.08-4.8l2.76,3-.06-.12c10-.42,22.56-1.44,29.28-3l2.46,3a129.87,129.87,0,0,1-13.92,2v4.68h14v3.3h-14V1949h12.78v19H528.48v4.62h13.14v3.24H528.48v5Zm-28-23.76h9v-5h-9Zm9,7.8v-5.09h-9v5.09Zm3.84-12.84v5h9.18v-5Zm9.18,7.75h-9.18v5.09h9.18Z"/><path d="M569.22,1957.5c-1.86-2.46-5.4-6.35-8.52-9.59a39,39,0,0,1-9.06,12.59,27.49,27.49,0,0,0-3.06-2.82c6.36-5.27,10.44-13.73,12.48-24l4,.66a61.81,61.81,0,0,1-2.88,10.08,116.79,116.79,0,0,1,9.84,10.31Zm33.6,21.84v3.84h-53.4v-3.84H573.9v-12H553.68v-3.78H573.9v-31.91h4v24.53c6.3-4.92,10.32-12.83,12.36-22.37l3.84.66a59,59,0,0,1-3.18,10.44,146.81,146.81,0,0,1,11.7,12.42l-2.82,2.81a125.17,125.17,0,0,0-10.56-11.81,35.13,35.13,0,0,1-8.34,10.8c-.66-.67-2.1-2.11-3-2.83v7.26h20.82v3.78H577.92v12Z"/><path d="M650.52,1967.4a25.2,25.2,0,0,1-7.32,9.06,188.15,188.15,0,0,1,19.08,5.82l-3.84,3a165.65,165.65,0,0,0-19.44-6.12c-6.72,3.6-15.78,5.46-27.78,6.36a11.83,11.83,0,0,0-1.56-3.66c9.84-.54,17.58-1.74,23.46-4.14-4.86-1.08-10.14-2.22-15.42-3.12a88.54,88.54,0,0,0,6.36-7.2H609v-3.54h17.7a69.69,69.69,0,0,0,3.84-5.88,46.72,46.72,0,0,1-5.22,1.62,10.74,10.74,0,0,0-2-3.11c16.74-4.27,18.18-11.28,18.18-16v-.6h-6.24a35.55,35.55,0,0,1-6,8,28.87,28.87,0,0,0-3.3-2.28,34.82,34.82,0,0,0,9.06-14.94l3.9.9c-.54,1.62-1.2,3.24-1.86,4.8h21.06l.66-.24,2.88,1A76,76,0,0,1,656.7,1948l-3.48-1.19a53.55,53.55,0,0,0,3.12-6.9h-11v.72a19.67,19.67,0,0,1-.48,4.44c5.94,3.66,13.8,8.64,17.82,11.64l-2.16,3.29c-3.78-2.94-11-7.79-17-11.58-1.74,3.25-5.22,6.49-11.76,9.12l3.36,1c-1,1.69-2.16,3.54-3.42,5.34h16c.42-1,.78-2,1.14-3.18l3.9,1.08a16.74,16.74,0,0,1-.66,2.1h11v3.54Zm-24.36-15.18h-17v-3.65h17Zm-1.5-12.83H610.44v-3.54h14.22Zm4.32,28c-1.38,1.8-2.88,3.6-4.2,5,4.5.84,9.06,1.86,13.38,2.82a22.56,22.56,0,0,0,7.74-7.86Z"/><path d="M697.86,1957.63c5.34,9.17,15.54,17.81,25.68,21.65a14.63,14.63,0,0,0-2.88,3.54c-8.46-3.72-16.86-10.74-22.8-18.78v21.42h-4V1964.1a63.16,63.16,0,0,1-22.5,18.48,17.92,17.92,0,0,0-2.82-3.3,58.29,58.29,0,0,0,25.32-21.3v-14.75H670.56v-3.9h23.28v-8.4h4v8.4h24.06v3.9H697.86ZM685,1945.5a48.37,48.37,0,0,1-2.4,7.21,79.05,79.05,0,0,1,7,6.83l-2.76,2.71a67.8,67.8,0,0,0-5.88-6.07,32.44,32.44,0,0,1-7.74,9.6c-.66-.66-2.28-1.92-3.12-2.58,5.46-4.07,9.24-10.62,11-18.41Zm28.26,0a53.26,53.26,0,0,1-2.1,7.2,126.18,126.18,0,0,1,11,9.48l-2.82,2.75a100,100,0,0,0-9.72-8.93,28.54,28.54,0,0,1-5.46,7.49,22.47,22.47,0,0,0-3.36-2.22c4.44-3.72,7.26-9.59,8.58-16.43Z"/><path d="M749.16,1960.44l-7.62,2.34v17.82c0,2.34-.6,3.42-2,4.08s-3.84.78-7.8.72a17,17,0,0,0-1.32-3.66c2.76.06,5.34.06,6.06,0s1.14-.24,1.14-1.14V1964l-8.4,2.58-1.26-3.95c2.64-.73,6-1.63,9.66-2.71v-13.07h-8.7v-3.84h8.7v-12.12h4v12.12h7v3.84h-7v11.87c2.34-.59,4.74-1.38,7.08-2.09Zm10.68-6.3c-5.52,0-7.26-1.73-7.26-6.72v-16.31h3.9v7.32h24.3V1942h-24.3v5.57c0,2.29.66,3.13,3.3,3.13h16.14a49.43,49.43,0,0,0,6.42-.37c.18,1.08.36,2.58.54,3.49a38.74,38.74,0,0,1-6.72.35Zm-7.26,5.34h28v25.74h-4v-2.52H756.36v2.76h-3.78Zm3.78,3.48v6.36h20.22V1963Zm20.22,16.38v-6.72H756.36v6.72Z"/><path d="M807.06,1966.2c-1-1.56-3.42-4.86-5.4-7.32v26.76h-3.78v-26.76c-2.1,6.12-4.8,12.24-7.5,16a17.23,17.23,0,0,0-2.1-3.54c3.36-4.44,7-12.47,8.94-19.5h-8.28v-3.72h8.94v-9.71c-2.7.6-5.4,1.08-8,1.44a12.14,12.14,0,0,0-1.2-2.94c6.24-1.08,13.5-2.76,17.34-4.68l3.06,2.76a53.43,53.43,0,0,1-7.44,2.58v10.55h7.86v3.72h-7.86V1955c1.62,1.5,6.6,6.89,7.8,8.21Zm37,7.44H840.6v7.44c0,2.1-.48,3.12-1.92,3.72s-3.9.72-7.68.72a13.54,13.54,0,0,0-1.38-3.54c2.82.12,5.46.06,6.18.06s1-.3,1-1v-7.38H815.76v11.82H812.1v-11.82h-4.44v-3.36h4.44v-18.53h12.06v-3.25h3.66v3.25H840.6v18.53H844ZM841,1934.59c-7.44,2.4-19.8,3.9-29.82,4.68a10.93,10.93,0,0,0-1-3c9.78-.84,22-2.4,28.32-4.56Zm-24.42,14.52a40.06,40.06,0,0,0-5-8.22l3.12-1.32a34.9,34.9,0,0,1,5.22,8Zm-.78,5.93v6h8.4v-6Zm0,15.24h8.4v-6.11h-8.4Zm10-22.37a28.74,28.74,0,0,0-3.72-7.8l3.12-1.14a26.82,26.82,0,0,1,4,7.68Zm2,7.13v6h9v-6Zm9,15.24v-6.11h-9v6.11Zm3.84-31.91a45.78,45.78,0,0,1-7.14,10.38,35.06,35.06,0,0,0-3.36-1.68,39.06,39.06,0,0,0,6.9-9.6Z"/><path d="M875,1934H860.22v35.15h-4v-38.87H875Z"/><path d="M928,1953.07H890.94c-.12,10.31-1.32,22.61-8.52,31.55a20.71,20.71,0,0,0-3.42-2.46c7.08-8.76,7.86-21,7.86-30.53v-17.34H928Zm-4.14-14.76H890.94V1949h32.94Z"/><path d="M937,1982.34h14.82v-35.15h4v38.87H937Z"/><path d="M981.18,1949.17a9.06,9.06,0,1,1-9.06,9A9.09,9.09,0,0,1,981.18,1949.17Zm0,15.23a6.18,6.18,0,1,0,0-12.36,6.18,6.18,0,1,0,0,12.36Z"/><path d="M522.9,2019.67c4.44,10.31,12.24,20,20.76,24.71a23.11,23.11,0,0,0-3.06,3.36c-9-5.58-16.92-16.32-21.6-28.07h-1v22.43h14.28v4H518v11.4H513.9v-11.4H499.68v-4H513.9v-22.43h-1.08c-4.74,11.75-12.66,22.43-21.3,28.25a24.18,24.18,0,0,0-2.88-3.18c8-4.92,15.66-14.76,20.16-25.07H490.14v-4H513.9v-12.72H518v12.72h24v4Z"/><path d="M597.9,2042a33.64,33.64,0,0,1-8.22,7.38c2.4,2.82,5.22,4.44,8.16,4.38,1.68-.06,2.16-1.5,2.46-5.94a10.31,10.31,0,0,0,3.12,1.62c-.6,6.3-2.1,7.92-5.76,8-4.26,0-8.16-2.22-11.28-6a74.41,74.41,0,0,1-13.68,5.82,36.46,36.46,0,0,0-2.1-3.24,65.61,65.61,0,0,0,13.86-5.34,34.94,34.94,0,0,1-3.84-8.82H566.16v4.38l11.16-1-.06,2.88-11.1,1.08v6.12c0,2.1-.48,3.06-2.16,3.54s-4.38.54-8.94.54a19.42,19.42,0,0,0-1.26-3.18c3.36.12,6.48.06,7.38,0s1.2-.24,1.2-1v-5.7c-4.74.48-9.12.9-12.72,1.2l-.42-3.3c3.54-.24,8.1-.54,13.14-1v-4.68h-12.9v-3.18h12.9v-4.44c-3.78.42-7.68.72-11.28.91a12,12,0,0,0-.9-2.71c8.16-.48,18.18-1.55,23.52-2.94l2.52,2.58c-2.82.66-6.36,1.26-10.08,1.74v4.86h13.68a52.67,52.67,0,0,1-1.2-8.94h3.84a57.48,57.48,0,0,0,1.2,8.94h19v3.18H584.58a31.91,31.91,0,0,0,3.12,6.9,27.09,27.09,0,0,0,6.72-5.94Zm4.62-15.17h-53v-3.24H573.9v-4.14H555.3v-3.06h18.6v-4H552.06v-3.18h12.66a30,30,0,0,0-3.48-5.16l3.42-1.26a24.4,24.4,0,0,1,4.32,6.24l-.42.18H583.2a54.7,54.7,0,0,0,3.6-6.6l4.14,1.2c-1.2,1.86-2.52,3.84-3.72,5.4h12.84v3.18H577.92v4h18.9v3.06h-18.9v4.14h24.6Zm-5.7,9a34,34,0,0,0-9.48-5.52l2.16-2.46a38.32,38.32,0,0,1,9.66,5.22Z"/><path d="M638.46,2052.12a70.7,70.7,0,0,0,7.38.36c2.1.06,14.76,0,17.58-.06a16.36,16.36,0,0,0-1.44,3.84H645.72c-12.3,0-19.92-1.92-24.72-10.38a31.55,31.55,0,0,1-9.48,11.7,19.84,19.84,0,0,0-3.06-2.82c6.3-4.14,10.2-10.92,11.82-19.86l4,.6a55.92,55.92,0,0,1-1.5,6.06c2.34,5.64,6.3,8.52,11.7,9.84v-18.54H609.72v-3.6H662.4v3.6H638.46v7.08h20v3.6h-20ZM655.68,2025h-39.6v-19.56h39.6Zm-4-16.44H620v5.16h31.68Zm0,8.1H620v5.27h31.68Z"/><path d="M689.22,2029.5c-1.86-2.46-5.4-6.35-8.52-9.59a39,39,0,0,1-9.06,12.59,27.49,27.49,0,0,0-3.06-2.82c6.36-5.27,10.44-13.73,12.48-24l4,.66a61.81,61.81,0,0,1-2.88,10.08,116.79,116.79,0,0,1,9.84,10.31Zm33.6,21.84v3.84h-53.4v-3.84H693.9v-12H673.68v-3.78H693.9v-31.91h4v24.53c6.3-4.92,10.32-12.83,12.36-22.37l3.84.66a59,59,0,0,1-3.18,10.44,146.81,146.81,0,0,1,11.7,12.42l-2.82,2.81a125.17,125.17,0,0,0-10.56-11.81,35.13,35.13,0,0,1-8.34,10.8c-.66-.67-2.1-2.11-3-2.83v7.26h20.82v3.78H697.92v12Z"/><path d="M741.18,2021.17a9.06,9.06,0,1,1-9.06,9A9.09,9.09,0,0,1,741.18,2021.17Zm0,15.23a6.18,6.18,0,1,0,0-12.36,6.18,6.18,0,1,0,0,12.36Z"/><path d="M398.7,2104.56s-.06,1.32-.12,1.86c-1.08,13.56-2.1,18.84-4.08,20.82-1.26,1.32-2.46,1.68-4.56,1.8a90.37,90.37,0,0,1-9.48-.18,8,8,0,0,0-1.44-4c4,.36,8,.36,9.48.36s2-.06,2.58-.6c1.5-1.2,2.4-5.7,3.3-16.32h-22.8c1.14-4.56,2.46-11.63,3.24-17.09H394.5v-10.08h-22v-3.78H398.4v17.58H378.3c-.6,3.3-1.2,6.72-1.86,9.65Zm18.36-29.15v54.11h-4v-54.11Z"/><path d="M479.28,2082.73V2116H475.2v-3.18H457.92v16.5h-4.14v-16.5H437v3.54h-4v-33.65h20.76v-7.92h4.14v7.92Zm-42.3,3.84v9.18h16.8v-9.18Zm16.8,22.49v-9.6H437v9.6Zm4.14-22.49v9.18H475.2v-9.18Zm17.28,22.49v-9.6H457.92v9.6Z"/><path d="M541.74,2106.67s-.06,1.19-.12,1.73c-1.14,12.66-2.28,17.64-4.14,19.56a5.52,5.52,0,0,1-4,1.56,66.58,66.58,0,0,1-7.5-.12,9.39,9.39,0,0,0-1.2-3.66c3.12.3,6.06.3,7.2.3a3,3,0,0,0,2.22-.54c1.26-1.32,2.4-5.34,3.36-15.3H500a59.21,59.21,0,0,1-9.66,7.32,19.86,19.86,0,0,0-2.22-3.3c10.26-6,17.82-15.18,23.1-25.43h-20v-3.66H513a82.29,82.29,0,0,0,3.84-10.32l3.9,1a92.32,92.32,0,0,1-3.54,9.3H533c-.72,3.48-1.56,7.62-2.34,10.74h7c-.66,3.47-1.5,7.67-2.28,10.8ZM492.36,2127c3.42-3.24,5.7-8.58,7-13.2l3.3,1.08c-1.44,4.92-3.54,10.62-7.14,14.16Zm12.42-42.17a39,39,0,0,0-6-8.34l3.42-1.44a39.57,39.57,0,0,1,6.18,8Zm26.82,21.84c.54-2.11,1.08-4.69,1.56-7.21H509.34a75.18,75.18,0,0,1-5.76,7.21Zm-21.48,7.91a44,44,0,0,1,1.8,11.88l-3.48.54a39.57,39.57,0,0,0-1.62-11.94Zm5.4-25.79c-1.14,2.4-2.46,4.79-3.84,7.08h15.24c.54-2,1.14-4.62,1.62-7.08Zm3.18,24.95a43,43,0,0,1,3.6,10.26l-3.3.9a45.91,45.91,0,0,0-3.42-10.44Zm10.32,8a38.83,38.83,0,0,0-4.56-8.1l2.76-1.08a34.18,34.18,0,0,1,4.74,7.86Z"/><path d="M596.82,2123.22c2.34,0,2.76-1.74,3-9.24a10.81,10.81,0,0,0,3.66,1.74c-.54,8.46-1.62,11.16-6.48,11.16h-9.54c-5.1,0-6.6-1.44-6.6-6.84v-37.49H565.62a81.19,81.19,0,0,1-3.3,9.24h11.82l.78-.12,2.4,1c-3.54,19.61-13.2,30.41-25.74,35.75a13.85,13.85,0,0,0-2.76-3.18,36.45,36.45,0,0,0,16.2-12.06,95,95,0,0,0-9.6-9.18,43.48,43.48,0,0,1-4.2,4.56,20,20,0,0,0-2.88-2.58c6.36-5.76,10.8-15.11,13.08-23.39H549.54v-3.9h53v3.9H584.88v16.37h15.78v3.72H584.88v17.46c0,2.58.48,3.12,3,3.12Zm-36.24-27.72a49.44,49.44,0,0,1-3.06,5.34,90.33,90.33,0,0,1,9.78,8.94,48.24,48.24,0,0,0,5.52-14.28Z"/><path d="M638.28,2075.05c-.06,2.1-.12,5.1-.42,8.64.9,7,4.56,32.51,25.74,42a12.63,12.63,0,0,0-2.88,3.36c-15.42-7.26-21.72-22.74-24.6-34-2.64,12.23-8.94,26.33-24.06,34.19a13.77,13.77,0,0,0-3.12-3.06c25-12.48,24.78-42.11,25-51.11Z"/><path d="M685,2075.53c-1,2.94-2.1,6.3-3.18,8.88H692v38.75h-16.8v4.8h-3.66v-43.55h6.66a64.68,64.68,0,0,0,2.58-9.72Zm3.3,12.47H675.18v13.08h13.14Zm0,31.56v-14.88H675.18v14.88Zm33.06-33.17c-1,27.53-1.8,36.71-4.2,39.59a5.6,5.6,0,0,1-4.56,2.28,74.94,74.94,0,0,1-8.82-.12,9.42,9.42,0,0,0-1.32-3.9c3.9.36,7.5.36,8.82.36s1.92-.12,2.52-.9c2-2.1,2.94-11.34,3.72-35.7H701.82a55.33,55.33,0,0,1-5.64,10.68,36.22,36.22,0,0,0-3.36-2.22c4.08-5.33,7.32-13.61,9.18-21.89l3.84.84c-.78,3-1.62,6-2.64,8.88h18.18Zm-12.78,27a106.51,106.51,0,0,0-9.3-13.92l3.06-1.79a102.47,102.47,0,0,1,9.6,13.61Z"/><path d="M753.72,2102.17c-1.26,2.09-2.76,4.08-4.26,6.11v16.5c0,2.1-.54,3.18-1.86,3.78s-3.66.72-7.38.72a13.93,13.93,0,0,0-1.26-3.54c2.76.12,5.16.06,5.88.06s1-.3,1-1.08v-12.18a78.84,78.84,0,0,1-15.24,13.08,25.08,25.08,0,0,0-2.34-2.94,66.31,66.31,0,0,0,16.32-13.74c-5.4,1-10.74,1.92-15,2.64l-.72-3.6c1.08-.12,2.22-.3,3.54-.48v-26.33h5a54.27,54.27,0,0,0,2-6.36l4.14.66c-.84,1.92-1.68,4-2.52,5.7h8.4v21.47c.36-.54.72-1.08,1.08-1.68Zm-17.88-17.76v5.16h10v-5.16Zm10,8.22h-10v5.28h10Zm-10,14.33c3.12-.48,6.48-1.08,10-1.56V2101h-10Zm41.64,17a39.12,39.12,0,0,0,5.76-.42c.12,1,.36,2.52.54,3.3a38.09,38.09,0,0,1-6.3.36H762.66c-6.06,0-8.46-2.1-8.46-8.4v-36.53h-2.4V2079h30.78v3.3h-25V2119c0,3.6,1.32,5,4.86,5Zm-17.82-20.7h9.72v16.38h-9.72Zm2.46,13.62h4.74v-10.86h-4.74Zm16.08-17.28H763v-14H778.2ZM775,2088.31H766.2V2097H775Zm6.66,31.37h-9.78V2103.3h9.78ZM779,2106.06H774.3v10.86H779Z"/><path d="M809.34,2093.53h2.58v8.39h-2.76v23.28c0,1.8-.36,2.7-1.68,3.3s-3.24.6-6.72.6a10.93,10.93,0,0,0-1.14-3.12c2.46.06,4.62.06,5.22.06s.9-.24.9-.84v-8.34c-2.94,1.8-5.88,3.6-8.46,5.1l-1.62-2.88c2.64-1.14,6.3-3.06,10.08-5V2103.6h-9.9v8.34c0,5.4-.6,12.6-4.2,17.76a11.54,11.54,0,0,0-2.82-2.22c3.24-4.56,3.6-10.8,3.6-15.54v-10h-2.94v-8.39h2.46V2077h17.4Zm-.66,3H792.6v4.19h16.08Zm-13.44-3h4v-9.3h6.66v-4.08H795.24Zm7.68,19.79a48.92,48.92,0,0,0-6.54-5.34l2-1.92a45.23,45.23,0,0,1,6.66,5Zm3-19.79v-6.66h-4.14v6.66Zm37.32,31.55v3.18h-31v-3.18h8.88a49.1,49.1,0,0,0-2.16-5.88l3.12-.9c.9,2.1,2,4.8,2.64,6.78h5.94a60,60,0,0,0,2.7-7l3.66,1.08c-1,2-2.1,4.14-3.06,5.94Zm-.48-21.24H813v-3.12h29.76Zm-1.62-6.35H814.38v-17.94h7.44v-4.62h3.3v4.62h4.68v-4.62h3.3v4.62h8ZM816,2117.88v-11h23.7v11Zm1.56-30.89h4.8v-4.5h-4.8Zm0,7.55h4.8v-4.73h-4.8Zm2,20.52H836v-5.4H819.54ZM829.92,2087v-4.5h-4.74v4.5Zm-4.74,2.82v4.73h4.74v-4.73Zm12.72-7.32h-5.16v4.5h5.16Zm0,7.32h-5.16v4.73h5.16Z"/><path d="M861.18,2093.17a9.06,9.06,0,1,1-9.06,9A9.09,9.09,0,0,1,861.18,2093.17Zm0,15.23a6.18,6.18,0,1,0,0-12.36,6.18,6.18,0,1,0,0,12.36Z"/><rect class="cls-2" x="1135" y="1388" width="65" height="220" rx="12"/><path class="cls-1" d="M1179.05,1426.79a27.61,27.61,0,0,0,11.5,8.1,11.65,11.65,0,0,0-2.15,2.55,30.77,30.77,0,0,1-12.8-10.65h-15.95a34.39,34.39,0,0,1-13,11.3,11.43,11.43,0,0,0-2.15-2.55,30.39,30.39,0,0,0,11.6-8.75H1145v-2.85h10v-16.15h-7.7V1405h7.7v-5h3.3v5h18.55v-5h3.35v5h7.65v2.8h-7.65v16.15h9.8v2.85Zm-10,14.5h17.3v2.85H1148.8v-2.85h16.9v-5.6h-10.45v-2.8h10.45v-4.4h3.35v4.4h10.65v2.8h-10.65Zm-10.8-33.5v3.6h18.55v-3.6Zm0,9.8h18.55v-3.65h-18.55Zm0,6.35h18.55v-3.8h-18.55Z"/><path class="cls-1" d="M1163.25,1468.54s0,1.15,0,1.55c-.6,15.85-1.2,21.2-2.6,23a3.71,3.71,0,0,1-2.8,1.45,32.65,32.65,0,0,1-4.45,0,9.25,9.25,0,0,0-.85-3c1.75.15,3.2.15,3.9.15a1.42,1.42,0,0,0,1.45-.65c1-1.2,1.6-6,2.15-19.35h-6.8c-.55,10-2,18.25-6.45,23.65a9.53,9.53,0,0,0-2.55-2.35c5.45-6.45,5.9-17.85,6.1-31.55h-5.2v-3.1h20.1v3.1h-11.65c0,2.45-.1,4.85-.2,7.15Zm-7.9-10.45a33.47,33.47,0,0,0-4.25-7.15l2.9-1.15a31.92,31.92,0,0,1,4.4,7Zm23.85-7.45a15.26,15.26,0,0,1-.85,2.55c2.65,5.45,7.7,11.35,12.45,14a13,13,0,0,0-2.45,2.75c-4.25-2.7-8.5-8-11.4-13.3a32.61,32.61,0,0,1-11,13.6,12.79,12.79,0,0,0-2.35-2.65c5.85-3.6,10.35-10.2,12.5-17.85Zm-8.3,32.45a74,74,0,0,1,13.6,8.25l-2.25,2.9c-2.85-2.6-8.75-6.3-13.4-8.65Zm9.5-4.85a66.22,66.22,0,0,0-8.6-6.85l2.15-2.2a67.46,67.46,0,0,1,8.75,6.55Z"/><path class="cls-1" d="M1156.5,1513c-1.6,7.2-4.55,16.15-9.1,21.7a19.23,19.23,0,0,0-3.1-1.8c4.55-5.25,7.3-13.85,8.55-20.55Zm12.9-12.3v40c0,2.55-.7,3.6-2.35,4.2s-4.8.6-9.4.6a15.62,15.62,0,0,0-1.4-3.45c3.7.1,7.3.1,8.25.05s1.45-.35,1.45-1.4v-40ZM1181,1512c4.45,7,8.7,16.1,10,22l-3.45,1.45c-1.25-5.85-5.25-15.15-9.6-22.3Z"/><path class="cls-1" d="M1185.65,1577.74a72.75,72.75,0,0,1-7.65,3.65,19.75,19.75,0,0,0,12.1,9.55,10.66,10.66,0,0,0-2.1,2.6,22.77,22.77,0,0,1-12.5-11.1c-1.1.45-2.15.85-3.2,1.2,1.5,4.4.7,8.7-1.6,10.35a6,6,0,0,1-4.25,1.3c-1,0-2.25,0-3.55-.1a5.77,5.77,0,0,0-.9-2.85,30,30,0,0,0,4,.2,4.12,4.12,0,0,0,2.7-.65c1.35-1,1.9-3.75,1-6.9-5.55,3.7-14.45,7-22,8.45a11,11,0,0,0-1.45-2.4c8-1.1,17.65-4.65,22.65-8.35a13.35,13.35,0,0,0-1.25-2.15,69.47,69.47,0,0,1-17.55,6.35,7.59,7.59,0,0,0-1.4-2.15c5.8-1,13.4-3.4,17.7-5.85-.6-.55-1.25-1.15-2-1.7a80,80,0,0,1-15.25,4.15,16.41,16.41,0,0,0-1.55-2.2c5.7-.75,12.15-2.15,16.75-4.15h-18.55v-2.55h28c.3-.9.55-1.8.9-2.75h-21.7c1.25-2.8,3-7,4-10.25l3,.5a42,42,0,0,0-3.4-3.25l2-1.15h-6.25a29.23,29.23,0,0,1-5.1,5.6,25.27,25.27,0,0,0-2.35-2.2,26.89,26.89,0,0,0,7.5-9.35l3,.85c-.45.9-1,1.75-1.4,2.65h13.45v2.45h-8.3a44.9,44.9,0,0,1,4,3.65l-2.45,1.6a4.8,4.8,0,0,0-.7-.75c-.2.65-.45,1.25-.65,2h17.75l.6-.2,2.25.5c-.8,3.15-1.9,7-3,10.15h12V1575h-20.25c-.6.35-1.2.7-1.85,1a16.36,16.36,0,0,1,4.4,5.35,90.1,90.1,0,0,0,11.6-5.5Zm-10.2-10.3c.35-1.15.65-2.2,1-3.2h-17.7c-.45,1.15-.9,2.2-1.3,3.2Zm14.75-14.3v2.45h-16.6a28.84,28.84,0,0,1-4.55,5.15,15.06,15.06,0,0,0-2.55-2,21.57,21.57,0,0,0,6.7-9.1l3.1.8a26.43,26.43,0,0,1-1.25,2.7Zm-7.9,8a32.47,32.47,0,0,0-3.9-4.25l2.3-1.25a30.14,30.14,0,0,1,4,4Z"/><rect class="cls-2" x="1135" y="365.5" width="65" height="126" rx="12"/><path class="cls-1" d="M1154.7,395.32c1.25,1.6,4.9,6.7,5.7,8.05l-2,2.45c-.7-1.5-2.35-4.4-3.75-6.65v26.35h-3.15V401.07c-1.5,5.05-3.5,9.9-5.55,12.85a14.83,14.83,0,0,0-1.75-3.1c2.9-4,5.8-11.5,7.2-18h-6.2v-3.15h6.3V380h3.15v9.65h5.45v3.15h-5.45Zm19.1.7a19.47,19.47,0,0,0,.45,2.65c-10.15,2.7-11.6,3.15-12.5,3.75a12.13,12.13,0,0,0-1.1-3.2c.7-.2,1.55-.5,1.55-2.2v-16.7h3.25v6.5h8.35v2.9h-8.35V398Zm2.35,5.5-2,3.75h12.65v20.25h-3.4v-1.75h-17v2h-3.3V405.27h7.9c.55-1.5,1.2-3.25,1.55-4.6Zm7.3,6.5h-17v5.05h17Zm0,13v-5.3h-17V421Zm2.25-22.4c1.25,0,1.5-.75,1.65-5.25a9.16,9.16,0,0,0,2.85,1.25c-.3,5.45-1.2,6.95-4.15,6.95h-5.85c-3.65,0-4.55-.95-4.55-4.45V380.37h3.25v6.5h10.2v2.9h-10.2v7.35c0,1.3.25,1.5,1.65,1.5Z"/><path class="cls-1" d="M1189.55,455.37v2.5H1145.4v-2.5h20.25v-3.2H1148.8v-2.3h16.85v-3H1150.2v-2.25h15.45v-3.2H1145.5v-2.5h20.15v-3.05H1150.8v-2.35h14.85V430h3.25v3.55h14.45v5.4h6.15v2.5h-6.15v5.45H1168.9v3h17.3v2.3h-17.3v3.2Zm-37.75,5h31.75v15.25h-3.25V474H1155v1.7h-3.2Zm3.2,2.4V466h25.3v-3.2Zm25.3,8.85v-3.4H1155v3.4Zm-11.4-32.7h11.15v-3.05H1168.9Zm0,5.7h11.15v-3.2H1168.9Z"/><path d="M352.5,951c46.34,1.44,92.52,6.08,138.46,12.25l-6.78-.91c42.58,5.74,85,12.8,127.3,20.13,20.92,3.62,41.82,7.31,62.73,10.93,19.91,3.44,39.83,6.68,59.45,11.55a401.9,401.9,0,0,1,59.16,19.48l-6.09-2.57c17.7,7.5,36.16,15.92,51.54,27.6l-5.17-4a107.22,107.22,0,0,1,18.77,18.65l-4-5.16a101.24,101.24,0,0,1,12.67,21.34l-2.58-6.09a82.67,82.67,0,0,1,5.77,20.31l-.91-6.78a67.64,67.64,0,0,1,.08,17.81l.91-6.78a60,60,0,0,1-3.74,13.85l2.57-6.1a59.42,59.42,0,0,1-7.49,12.88l4-5.16a71,71,0,0,1-12.16,12l5.16-4a103,103,0,0,1-21.84,12.49l6.09-2.57c-22.2,9.35-46.58,13.64-70.33,16.89l6.78-.92c-49.69,6.66-99.37,3-149.24,1.48-23.44-.71-47-.85-70.33,1.37-24.47,2.33-49,6.51-71.95,15.58-23.54,9.3-44.86,21.89-63.47,39.18a202.14,202.14,0,0,0-39.21,51.12c-21.1,38.73-31,82.21-34.6,125.87-4.28,51.27.14,102.85-4.25,154.11q-.84,9.77-2.12,19.46l.91-6.78a298.41,298.41,0,0,1-11.18,50.65l49.18,13.56,3.73-12c4-12.73-4.69-28.38-17.81-31.36-13.85-3.16-27.12,4.17-31.37,17.81l-3.73,12c-4,12.74,4.69,28.38,17.81,31.37,13.94,3.17,27-4.2,31.37-17.81,21-65.81,14.83-135.47,17-203.42a458.49,458.49,0,0,1,3.57-46.68l-.91,6.78c3.47-25.32,9.58-50.32,19.46-73.94l-2.57,6.1a205.71,205.71,0,0,1,26.3-45.65l-4,5.16a170,170,0,0,1,29.31-29.47l-5.16,4a170.22,170.22,0,0,1,37.88-22l-6.09,2.57c17.91-7.45,36.79-12,56-14.63l-6.78.91c64.45-8.65,129.45,2.41,194.1-.79a507.94,507.94,0,0,0,60.64-6.84c15.91-2.73,31.9-6,47.11-11.52,17.2-6.21,33.6-14.48,46.84-27.36,11.47-11.17,20.46-26.3,23.37-42.16a95.35,95.35,0,0,0-2.9-47.47c-5.34-16.07-13.79-30.1-24.74-42.93-21.09-24.7-52.75-38.62-82.16-50.66-30-12.31-61.58-20.39-93.53-25.86-35.84-6.13-71.64-12.52-107.5-18.61-73.62-12.51-147.72-23.9-222.35-28.12Q366,900.42,352.5,900c-13.35-.42-26.1,12-25.5,25.5.63,14.17,11.2,25,25.5,25.5Z"/><path d="M488.11,935.26a39.73,39.73,0,0,0-3.93,4.17,94.58,94.58,0,0,0-6.89,9.26,89.06,89.06,0,0,0-7.2,15.62c-2.68,7.06-4.23,14.47-6,21.78a495.49,495.49,0,0,1-14.52,48.48q-4.87,13.67-10.52,27l2.57-6.09A517.57,517.57,0,0,1,408.24,1121q-5.5,9.13-11.38,18a18.9,18.9,0,0,0-3,9.48A26.22,26.22,0,0,0,406,1173.93l6.1,2.57a25.54,25.54,0,0,0,13.55,0l6.09-2.57a25.4,25.4,0,0,0,9.15-9.15A517.68,517.68,0,0,0,480,1094.11a543.53,543.53,0,0,0,29.28-79.29c1.9-6.8,3.6-13.65,5.25-20.52a121.29,121.29,0,0,1,5.59-18.59l-2.57,6.09a48.73,48.73,0,0,1,6.07-10.7l-4,5.16a39.26,39.26,0,0,1,4.54-4.93,26.24,26.24,0,0,0,0-36.07l-5.17-4a25.27,25.27,0,0,0-12.87-3.48l-6.77.91a25.47,25.47,0,0,0-11.26,6.55Z"/><path class="cls-3" d="M166,1070.72H141.16v14c0,3-1,4.2-3.06,4.86s-5.94.72-12.3.66a17.27,17.27,0,0,0-1.74-3.9c5.16.12,9.84.06,11.16.06s1.86-.48,1.86-1.74v-13.92H112.24v-3.9h24.84v-10.2H116.2v-3.84h20.88v-9.6c-6.66.66-13.56,1.14-19.8,1.44a16.18,16.18,0,0,0-1-3.54c14.16-.72,31.8-2.28,40.74-5.16l2.94,3.24a123.25,123.25,0,0,1-18.78,3.6v10h21.48v3.84H141.16v10.2H166Z"/><path class="cls-3" d="M178.66,1052.42a22.26,22.26,0,0,1-4.44,9.78,10.13,10.13,0,0,0-2.7-2.34c3.84-4.68,4.44-10.8,4.44-15.3v-6.18h20.88v9.78H179.26a19.25,19.25,0,0,1-.42,3.18h18.48v11H178.66Zm40,33.78c0,2.28-.6,3.24-2.4,3.84s-4.86.48-9.54.48a15,15,0,0,0-1.38-3.24c3.72.18,7.08.12,8,.06s1.32-.3,1.32-1.08v-6.42c-10.26,1.86-20.94,3.72-28.8,5l-1.08-3.24c7.26-1,18.9-2.58,29.88-4.2V1068H184.3v7.08c0,4.92-.54,11.58-3.66,16.26a15.67,15.67,0,0,0-3.12-2.46c2.7-4.08,3-9.66,3-13.86v-9.9h38.1Zm-39.18-45.12v4.38h13.92v-4.38Zm2.58,18.48h11.76V1054H182Zm5.52,11c7.5.72,17.7,2.16,23.1,3.3l-.78,2.7c-5.46-1.14-15.54-2.76-23.22-3.66Zm26.76-19.14v3.9h10.44v2.88H214.3v5.28h-3.78v-5.28H199.84v-2.88h10.68v-3.9H198.46v-2.94H206a21.41,21.41,0,0,0-2.1-4.44l2.94-.6a19.52,19.52,0,0,1,2.46,5h5.94a37.43,37.43,0,0,0,2.4-5l3.3.78c-.78,1.5-1.56,2.94-2.34,4.2h7.8v2.94Zm10.38-8.76H199.9v-2.88h10.74a21,21,0,0,0-1.44-3.36l3.54-.72a21.07,21.07,0,0,1,1.92,4.08h10Z"/><path class="cls-3" d="M125.92,1382.52c-1.92,8.64-5.46,19.38-10.92,26a23.08,23.08,0,0,0-3.72-2.16c5.46-6.3,8.76-16.62,10.26-24.66Zm15.48-14.76v48c0,3.06-.84,4.32-2.82,5s-5.76.72-11.28.72a18.75,18.75,0,0,0-1.68-4.14c4.44.12,8.76.12,9.9.06s1.74-.42,1.74-1.68v-48Zm13.92,13.56c5.34,8.4,10.43,19.32,11.93,26.46l-4.14,1.74c-1.49-7-6.29-18.18-11.51-26.76Z"/><path class="cls-3" d="M189,1416.78c0,2-.54,3.12-1.8,3.78s-3.54.66-7.44.66a13.7,13.7,0,0,0-1-3.42c2.82.12,5.22.06,5.94.06s1-.3,1-1.14v-17.64c-2,1.44-4.08,2.94-6.06,4.38l-1.62-3.24c-.42,7.26-1.56,15.18-4.32,21.3a10.09,10.09,0,0,0-2.64-2.4c3.66-8.46,4-20.28,4-28.92V1369h14ZM178.3,1390.2c0,2.94-.06,6.36-.3,10,2-1.14,4.74-2.76,7.68-4.62v-8.16l-2.16,1.56a51.31,51.31,0,0,0-5.1-6.54l2.34-1.56a63.54,63.54,0,0,1,4.92,5.76v-13.86H178.3Zm24.48,5.82a60.07,60.07,0,0,1-3.78,13.74c3.24,6.6,8.94,7.92,16.62,7.92,3.36,0,8-.18,11.27-.54a11.21,11.21,0,0,0-1.14,3.6c-2.94.24-6.83.3-10.19.3-8.52,0-14.28-1.5-18.12-8a30,30,0,0,1-6.54,8.64,11.83,11.83,0,0,0-2.1-2.94c4.68-4,8.34-11,10.08-20H195.1a6.12,6.12,0,0,0-3.18.84,22.32,22.32,0,0,0-1.44-3.48,3.78,3.78,0,0,0,2.4-1.74c1-1.26,3.42-6.48,5.16-10.32h-7.2v-3.42h8.82l.78-.36,2.58.84c-1.68,3.42-4.8,10-7.14,14.22h4.68l.6-.12Zm-5.1-18.12a65.84,65.84,0,0,0-5-9.42l3.06-1a69.69,69.69,0,0,1,5.16,9.12Zm19.08,27.24a19.17,19.17,0,0,0,.72,2.94c-10.32,4.74-11.76,5.58-12.6,6.3a14.73,14.73,0,0,0-1.44-3.12,3.69,3.69,0,0,0,1.86-3.6V1369.5h17.93V1392H208.72v16.44Zm-8-32.28v5.94h11v-5.94Zm11,15.78v-6.54h-11v6.54Zm-6.89,5.28c1,1,2.94,3.18,5.16,5.64a73.62,73.62,0,0,0,6.11-6.18l2.29,2.46a82.16,82.16,0,0,1-6.48,5.82c2.81,3.24,5.63,6.42,6.77,7.68l-2.64,2.52c-2.57-3.6-10.67-13-13.61-16.14Z"/><path class="cls-3" d="M1061.82,950.68v4h-53.46v-4H1031V903.82h4.14v18.54h22.62v4h-22.62v24.3Z"/><path class="cls-3" d="M1121.16,924.16a67.65,67.65,0,0,1-9.84,11.22V951.7c0,3-.66,4.38-2.82,5.1s-6.06.72-12.18.66a16.43,16.43,0,0,0-1.5-4.14c4.86.18,9.48.12,10.74.06s1.8-.42,1.8-1.68V938.8c-10.32,8.22-23,14.1-36.72,18.12a19.65,19.65,0,0,0-2.58-3.54c11.82-3.12,22.8-7.8,31.92-14-11.4.9-22.62,1.86-30.78,2.4l-.66-4c2.76-.12,5.94-.3,9.42-.48V908.8h12.24a54.28,54.28,0,0,0,2.58-6.12l4.68.78a57.5,57.5,0,0,1-2.94,5.34h16.8v21a52.71,52.71,0,0,0,6.12-7.56Zm-39.3-11.82v5.88h25.5v-5.88Zm25.5,9h-25.5v5.94h25.5ZM1081.86,937c7.14-.42,15.24-.9,23.28-1.44.72-.66,1.5-1.26,2.22-1.92V930.4h-25.5Z"/><path class="cls-3" d="M1038.48,1237.22c4.26,13.5,12.18,24.6,23.76,29.46a20.13,20.13,0,0,0-3,3.72c-11.69-5.52-19.55-16.62-24.17-30.66-2.82,11.88-9.24,23.88-24.18,30.72a15.58,15.58,0,0,0-3-3.3c15.06-6.54,21.06-18.42,23.52-29.94H1009v-4.08h23.16a123.53,123.53,0,0,0,1-17.22h4.2a133,133,0,0,1-1,17.22h25v4.08Z"/><path class="cls-3" d="M1085,1265.78c0,2-.54,3.12-1.8,3.78s-3.54.66-7.44.66a13.7,13.7,0,0,0-1-3.42c2.82.12,5.22.06,5.94.06s1-.3,1-1.14v-17.64c-2,1.44-4.08,2.94-6.06,4.38l-1.62-3.24c-.42,7.26-1.56,15.18-4.32,21.3a10.09,10.09,0,0,0-2.64-2.4c3.66-8.46,4-20.28,4-28.92V1218h14Zm-10.68-26.58c0,2.94-.06,6.36-.3,10,2-1.14,4.74-2.76,7.68-4.62v-8.16l-2.16,1.56a51.31,51.31,0,0,0-5.1-6.54l2.34-1.56a63.54,63.54,0,0,1,4.92,5.76v-13.86h-7.38Zm24.48,5.82a60.07,60.07,0,0,1-3.78,13.74c3.24,6.6,8.94,7.92,16.62,7.92,3.36,0,8-.18,11.27-.54a11.46,11.46,0,0,0-1.14,3.6c-2.93.24-6.83.3-10.19.3-8.52,0-14.28-1.5-18.12-8a30,30,0,0,1-6.54,8.64,11.83,11.83,0,0,0-2.1-2.94c4.68-4,8.34-11,10.08-20h-3.78a6.12,6.12,0,0,0-3.18.84,22.32,22.32,0,0,0-1.44-3.48,3.78,3.78,0,0,0,2.4-1.74c1-1.26,3.42-6.48,5.16-10.32h-7.2v-3.42h8.82l.78-.36,2.58.84c-1.68,3.42-4.8,10-7.14,14.22h4.68l.6-.12Zm-5.1-18.12a65.84,65.84,0,0,0-5-9.42l3.06-1a69.69,69.69,0,0,1,5.16,9.12Zm19.08,27.24a19.17,19.17,0,0,0,.72,2.94c-10.32,4.74-11.76,5.58-12.6,6.3a14.73,14.73,0,0,0-1.44-3.12,3.69,3.69,0,0,0,1.86-3.6V1218.5h17.94V1241h-14.52v16.44Zm-8-32.28v5.94h11v-5.94Zm11,15.78v-6.54h-11v6.54Zm-6.89,5.28c1,1,2.94,3.18,5.16,5.64a73.62,73.62,0,0,0,6.11-6.18l2.29,2.46a82.16,82.16,0,0,1-6.48,5.82c2.81,3.24,5.64,6.42,6.77,7.68l-2.63,2.52c-2.58-3.6-10.68-13-13.62-16.14Z"/><path class="cls-3" d="M249.3,1073.51a392,392,0,0,0,116.29-8.35q16.13-3.62,31.9-8.6c1.84-.58,1.05-3.48-.79-2.89a389.09,389.09,0,0,1-114.62,18q-16.41.11-32.78-1.18c-1.93-.15-1.92,2.85,0,3Z"/><path class="cls-3" d="M966.52,928.75q-37.24-4-74.65-6.1-37.14-2-74.36-2.13-21.09,0-42.16.53c-1.93.05-1.93,3.05,0,3q37.44-1,74.89-.07,37.2.94,74.3,3.85,21,1.65,42,3.92c1.91.21,1.9-2.79,0-3Z"/><path class="cls-3" d="M961.65,1255.74c-21.18,4.91-42.37,9.82-63.72,14a592.72,592.72,0,0,1-64.85,9.29,355.53,355.53,0,0,1-59.9.1,268.12,268.12,0,0,1-55.72-10.67A208.38,208.38,0,0,1,666.33,1245c-2-1.28-4-2.61-6-4-1.59-1.11-3.09,1.49-1.52,2.59A206.78,206.78,0,0,0,709.62,1269a263.28,263.28,0,0,0,55.62,12.27,340.32,340.32,0,0,0,59.63,1.29,549.31,549.31,0,0,0,64.88-8.3c21.68-4,43.18-8.82,64.65-13.78l8-1.87c1.88-.43,1.09-3.33-.79-2.89Z"/><path class="cls-3" d="M244.63,1401.63a83.22,83.22,0,0,0,50.79-5.85,79.68,79.68,0,0,0,12.87-7.38c1.57-1.11.07-3.71-1.51-2.59a80.09,80.09,0,0,1-47.21,14.47,77.28,77.28,0,0,1-14.14-1.55c-1.89-.38-2.69,2.51-.8,2.9Z"/></svg>