<svg id="Layer_1" data-name="Layer 1" xmlns="http://www.w3.org/2000/svg" viewBox="0 0 1242 2208"><defs><style>.cls-1{fill:#f6eabe;}.cls-2{fill:#999;}.cls-3{fill:none;stroke:#000;stroke-miterlimit:10;}</style></defs><rect class="cls-1" width="1242" height="2208"/><path d="M543.25,335.71c-46.05,181.82-119.1,358.09-249.31,478A419.34,419.34,0,0,0,259,772.41c119.1-107.19,188.18-269.17,231.05-436.7H289.17V284.1H502.76c10.32-48.43,19-96.87,27-143.71l53.2,7.14C575.8,192,567.07,238.05,556,284.1H967.24v51.61ZM982.33,788.29V839.1H416.21V788.29H677.43V542.94H497.2V492.13H945v50.81H731.43V788.29Z"/><path d="M391.92,1807.69a98.85,98.85,0,0,1-6.18,13.56v39.59H381.9v-33.35a61.73,61.73,0,0,1-5.46,7,32.86,32.86,0,0,0-2.28-3.9c5.58-5.87,10.8-14.87,14-24Zm34.14,28c-2.1,1.26-4.44,2.64-6.84,3.78,2,6.06,5.82,11.82,10.38,14.52a11.2,11.2,0,0,0-2.64,2.94c-4.62-3.18-8.46-9.42-10.68-16a27.45,27.45,0,0,1-2.76,1.2c2.58,6.84,1.86,14-1,16.68a6.91,6.91,0,0,1-5.22,1.92c-1.08,0-2.4-.06-3.78-.18a9.31,9.31,0,0,0-1-3.42,38.26,38.26,0,0,0,4.14.24,3.66,3.66,0,0,0,3.12-1.14c1.56-1.38,2.22-5.16,1.44-9.36-5.16,4.92-13.08,9.36-19.8,11.7a15.8,15.8,0,0,0-2.34-2.82c7.62-2.28,16.62-7.14,21.3-12.24a35.76,35.76,0,0,0-1.5-3.48,63.52,63.52,0,0,1-17.22,9.9,16.14,16.14,0,0,0-2.22-2.64c5.94-1.8,13.74-5.76,17.88-9.54a16.39,16.39,0,0,0-2.94-3.18,58.44,58.44,0,0,1-13.56,7.26,11.26,11.26,0,0,0-2.22-2.58,52.7,52.7,0,0,0,15.06-7.55H393.48v-9.36c-1.14,1-2.28,2-3.54,2.94a9.37,9.37,0,0,0-2.52-2.58,44.69,44.69,0,0,0,13.86-16.26l3.84.72c-.6,1.2-1.32,2.34-2,3.54h11.1l.72-.18,2.34,1.68a52.13,52.13,0,0,1-4.8,6.84h13.08v12.66H407.94c-.36.36-.78.66-1.2,1a21,21,0,0,1,5.64,6.84,110,110,0,0,0,10.92-6.42ZM401,1813.81a54.58,54.58,0,0,1-4.2,5.16h11.58a37.88,37.88,0,0,0,3.72-5.16Zm-3.9,14.69h10.5v-6.42h-10.5Zm24.72-6.42H411.18v6.42H421.8Z"/><path d="M455.52,1821.13c-3.48,13.73-9,27-18.84,36.11a31.63,31.63,0,0,0-2.64-3.12c9-8.1,14.22-20.33,17.46-33H436.32v-3.9h16.14c.78-3.66,1.44-7.32,2-10.86l4,.54c-.54,3.36-1.2,6.84-2,10.32h31.08v3.9Zm33.18,34.19v3.84H445.92v-3.84h19.74v-18.54H452v-3.84h33.84v3.84H469.74v18.54Z"/><path d="M548.94,1841.22H524.1v14c0,3-1,4.2-3.06,4.86s-5.94.72-12.3.66a17.27,17.27,0,0,0-1.74-3.9c5.16.12,9.84.06,11.16.06s1.86-.48,1.86-1.74v-13.92H495.18v-3.9H520v-10.19H499.14v-3.84H520v-9.6c-6.66.66-13.56,1.14-19.8,1.44a16.18,16.18,0,0,0-1-3.54c14.16-.72,31.8-2.28,40.74-5.16l2.94,3.24a123.25,123.25,0,0,1-18.78,3.6v10h21.48v3.84H524.1v10.19h24.84Z"/><path d="M575.16,1819.63a67.9,67.9,0,0,1-7.2,12.24v28.85h-4v-24a41.57,41.57,0,0,1-7.26,6.41,17,17,0,0,0-2-3.48c7-5,12.3-12.23,16.14-20H556v-3.84h16.44a65.25,65.25,0,0,0,3.3-9.42l4.08,1c-.9,2.82-1.86,5.64-3,8.4H608.1v3.84Zm32.94,36.23v3.72H572v-3.72h16v-17.52H574.32v-3.71H588v-11.82h4v11.82h13.8v3.71H592v17.52Z"/><path d="M625.68,1838.22v18c0,2.1-.48,3.12-1.68,3.78s-3.12.72-6.12.72a19,19,0,0,0-1.14-3.6c2,.06,3.78.06,4.32.06s.9-.24.9-.9v-16.61c-2.22.89-4.44,1.67-6.36,2.45l-1-3.84c2-.6,4.56-1.56,7.38-2.57v-13.44h-6.84v-3.72H622v-12.18h3.72v12.18h5.7v3.72h-5.7v12.06l5.4-2,.66,3.54Zm19.38,10.26a83.39,83.39,0,0,1-11.7,11,29.81,29.81,0,0,0-2.82-2.52,61,61,0,0,0,11-9.66Zm7.2-2.58v15.18h-3.84V1845.9H632.58v-3.42h15.84v-4.56h3.84v4.56h16.56v3.42Zm-3.72-8.1H633.66v-13.31h14.88Zm-3.3-10.31H636.9v7.31h8.34Zm16-5.76H639.78v-12.9h21.48Zm-3.66-9.84H643.26v6.78H657.6Zm-5.46,12.6h15.24v13.31H652.14Zm3.24,10.31H664v-7.31h-8.64Zm2.46,12.24a71.48,71.48,0,0,1,11.64,9.66l-2.52,2.58a65.71,65.71,0,0,0-11.52-10Z"/><path d="M693.36,1807.75a105.89,105.89,0,0,1-6.18,12.9v40.25h-4v-34.07a58.5,58.5,0,0,1-6.36,7.67,22.37,22.37,0,0,0-2.34-3.9c6-5.81,11.64-14.81,15.06-24Zm17.22,12.48v9H728.1v3.72H710.58v9.48h18.3v3.78h-18.3V1861h-4v-40.73h-4.44a65.13,65.13,0,0,1-8.64,12.65,28.89,28.89,0,0,0-3.12-2.7c5.46-5.57,10.32-14.27,13.26-23l3.84,1c-1,2.82-2.22,5.58-3.42,8.28h25.38v3.84Z"/><path d="M788.82,1852.32v4H735.36v-4h24.36v-35h-21.3v-4.08h47.46v4.08H764.1v35Z"/><path d="M815.7,1850.82a81.5,81.5,0,0,1-18.12,10.2,18.9,18.9,0,0,0-2.88-2.94c6.06-2.34,13.5-6.36,17.16-9.6Zm33.06-3.06h-53.4v-3.66h9.54v-34.85h35v34.85h8.82Zm-40-35.15v5.46h27.18v-5.46Zm27.18,8.58H808.74v5.39h27.18Zm-27.18,8.52v5.51h27.18v-5.51Zm0,14.39h27.18v-5.76H808.74Zm22.38,4.2a161.48,161.48,0,0,1,18.3,9.72l-3.12,3a145.77,145.77,0,0,0-17.7-10Z"/><path d="M860.88,1842c4.68-2,7.26-4.86,7.56-9.17a4,4,0,0,1-1.14.11c-2.34,0-4.26-1.31-4.26-4.07a4,4,0,0,1,4.32-4.08c3.18,0,4.86,2.58,4.86,6.66,0,6.41-4,11.21-10.08,13.43Z"/><path d="M495.24,1879.51a13.18,13.18,0,0,1-.84,1.08c5.7,5.64,16.2,10.62,25.56,12.83a12.89,12.89,0,0,0-2.52,3.12,71.7,71.7,0,0,1-14.88-6.17l-.06,1.92H481.74l.06-1.68a88.84,88.84,0,0,1-14.88,6.23,32.14,32.14,0,0,0-2.28-3c10.8-3,21.48-8.28,27.12-15.6Zm-23.16,16H512v14.88h-39.9Zm3.42,12.06h14.7v-9.23H475.5Zm.12,5.82H509v19.38h-4v-1.86h-25.5v2h-3.9Zm6.66-14.21a21.72,21.72,0,0,1,3.78,6.83l-3.06,1.21a27.26,27.26,0,0,0-3.6-7.09Zm-2.76,17.15v4.32H505v-4.32Zm25.5,11.64v-4.38h-25.5v4.38Zm-4.2-38.57a48.46,48.46,0,0,1-8.58-6.42,45.19,45.19,0,0,1-8.34,6.42Zm7.5,8.94H493.56v9.23h14.76Zm-10.62,7.79a53.26,53.26,0,0,0,3.54-7.2l3.36,1.08a73,73,0,0,1-4.14,7.21Z"/><path d="M539,1918.8h10.26v3.6H539v10.68h-3.6V1922.4h-10.8v-3.6h10.8v-5H526.8v-20.63h8.58v-4.62h-10V1885h10v-6.66H539V1885h9.42v3.48H539v4.62h8.76v20.63H539ZM529.86,1902h5.88v-5.7h-5.88Zm0,8.75h5.88v-5.82h-5.88Zm14.76-14.45h-5.94v5.7h5.94Zm0,8.63h-5.94v5.82h5.94Zm21.48-14.57v5.88h11.76v32.39c0,1.92-.36,3.06-1.56,3.72s-3.36.66-6.42.66a13.71,13.71,0,0,0-1.08-3.6c2.16.06,4,.06,4.62,0s.72-.18.72-.84v-8.82h-8v12.84h-3.6V1919.7h-8V1933h-3.6v-36.77H562.5v-5.88H549.84v-3.54H562.5v-8.4h3.6v8.4h13.2v3.54Zm-11.58,9.36v6.41h8v-6.41Zm8,16.55v-6.78h-8v6.78Zm3.6-16.55v6.41h8v-6.41Zm8,16.55v-6.78h-8v6.78Zm2-29.75a46.28,46.28,0,0,0-7.5-6.18l2.28-1.86a35.85,35.85,0,0,1,7.5,5.88Z"/><path d="M602.64,1879.63a89.36,89.36,0,0,1-6.18,12.48v40.67h-3.78v-34.86a61.13,61.13,0,0,1-7,8.29,24.83,24.83,0,0,0-2.28-3.84c6.12-5.7,12-14.7,15.48-23.82Zm12.66,14.82a105.68,105.68,0,0,1-3.36,11.63h26.22v3.72h-12.6v17.46h13.8V1931h-33v-3.78h15.36V1909.8h-10.5v-1.74c-2.82,7.5-6.42,14-11.16,19.14a25.56,25.56,0,0,0-3.18-3c7-7.14,11.4-17.52,14.34-29.75h-11.4v-3.78h12.3c.78-3.84,1.44-7.8,2-11.88l4.08.48c-.6,4-1.32,7.74-2,11.4h23.34v3.78Z"/><path d="M693.6,1892.11c-7.38,10.91-20.82,23.51-33.18,31,.6.42,1.26.84,1.92,1.32,3.78,2.4,8.64,2.82,15.36,2.82,7.14,0,16-.48,21.72-1a17.18,17.18,0,0,0-1.14,4.26c-4.5.3-15,.66-20.7.66-7.26,0-12.18-.66-16.14-3.24-2.4-1.5-4.26-3.48-5.58-3.48-1.92,0-4.74,3.42-7.68,7.38l-3-3.6c4-4.26,7.74-7.5,10.74-7.5a4.63,4.63,0,0,1,.9.12c11-6.36,23.22-17.39,30-26.63H648.3v-3.9h41.46l.84-.24ZM673.5,1890a70.73,70.73,0,0,0-6.3-10l3.48-1.8a70.87,70.87,0,0,1,6.42,9.78Z"/><path d="M753.9,1917.54a33.64,33.64,0,0,1-8.22,7.38c2.4,2.82,5.22,4.44,8.16,4.38,1.68-.06,2.16-1.5,2.46-5.94a10.31,10.31,0,0,0,3.12,1.62c-.6,6.3-2.1,7.92-5.76,8-4.26,0-8.16-2.22-11.28-6a74.41,74.41,0,0,1-13.68,5.82,36.46,36.46,0,0,0-2.1-3.24,65.61,65.61,0,0,0,13.86-5.34,34.94,34.94,0,0,1-3.84-8.82H722.16v4.38l11.16-1-.06,2.88-11.1,1.08v6.12c0,2.1-.48,3.06-2.16,3.54s-4.38.54-8.94.54a19.42,19.42,0,0,0-1.26-3.18c3.36.12,6.48.06,7.38,0s1.2-.24,1.2-1v-5.7c-4.74.48-9.12.9-12.72,1.2l-.42-3.3c3.54-.24,8.1-.54,13.14-1v-4.68h-12.9v-3.18h12.9v-4.44c-3.78.42-7.68.72-11.28.91a12,12,0,0,0-.9-2.71c8.16-.48,18.18-1.55,23.52-2.94l2.52,2.58c-2.82.66-6.36,1.26-10.08,1.74v4.86h13.68a52.67,52.67,0,0,1-1.2-8.94h3.84a57.48,57.48,0,0,0,1.2,8.94h19v3.18H740.58a31.91,31.91,0,0,0,3.12,6.9,27.09,27.09,0,0,0,6.72-5.94Zm4.62-15.17h-53v-3.24H729.9V1895H711.3v-3.06h18.6v-4H708.06v-3.18h12.66a30,30,0,0,0-3.48-5.16l3.42-1.26a24.4,24.4,0,0,1,4.32,6.24l-.42.18H739.2a54.7,54.7,0,0,0,3.6-6.6l4.14,1.2c-1.2,1.86-2.52,3.84-3.72,5.4h12.84V1888H733.92v4h18.9V1895h-18.9v4.14h24.6Zm-5.7,9a34,34,0,0,0-9.48-5.52l2.16-2.46a38.32,38.32,0,0,1,9.66,5.22Z"/><path d="M777.18,1896.67a9.06,9.06,0,1,1-9.06,9A9.09,9.09,0,0,1,777.18,1896.67Zm0,15.23a6.18,6.18,0,1,0,0-12.36,6.18,6.18,0,1,0,0,12.36Z"/><path d="M392,1963.63a67.67,67.67,0,0,1-5.4,8.45v33.18h-3.78v-28.5a55.81,55.81,0,0,1-6,5.94,23.11,23.11,0,0,0-2.4-3.41,57.79,57.79,0,0,0,14-16.92Zm-1.44-11.88a59.41,59.41,0,0,1-13.32,14.1,20,20,0,0,0-2.22-2.82c4.44-3.3,9.42-8.4,11.94-12.66ZM424,1982.17a34,34,0,0,1-11.58,13.91,56.54,56.54,0,0,0,16.08,5.52,13.63,13.63,0,0,0-2.46,3.48,58.51,58.51,0,0,1-17.16-6.72,63.26,63.26,0,0,1-17.7,6.78,10.39,10.39,0,0,0-2-3.42,62.23,62.23,0,0,0,16.26-5.64,41.7,41.7,0,0,1-7.2-6.54,42.74,42.74,0,0,1-4.86,4.08,25.12,25.12,0,0,0-2.76-2.94,46.2,46.2,0,0,0,5.28-4.08,34,34,0,0,1-2.82-4.38l3.3-1.2a19.06,19.06,0,0,0,2,3.18,40.7,40.7,0,0,0,5.82-7.86c-9,.6-10.5.91-11.64,1.26a33.39,33.39,0,0,0-1.2-3.77c1.62-.19,3.78-1.26,6.6-2.88,1.44-.78,4.38-2.58,7.8-4.87-9.36.49-10.92.73-11.82,1.09a28.56,28.56,0,0,0-1.26-3.84,10.79,10.79,0,0,0,3.9-2.16A67.38,67.38,0,0,0,407.28,1951l3.9,1.8a87.44,87.44,0,0,1-11.7,10.32l11.1-.36a87.91,87.91,0,0,0,8.22-6.6l3.66,2.1a135.45,135.45,0,0,1-22.44,15l20.1-1.08c-1.5-1.87-2.94-3.72-4.38-5.29l3.06-1.61a90.33,90.33,0,0,1,10,13l-3.24,1.92c-.78-1.38-2-3.12-3.24-5-5.58.35-10.14.66-13.68.83a52.18,52.18,0,0,1-3,5h15.18l.72-.18Zm-20.94,2.21a33.51,33.51,0,0,1-2.34,2.76,40,40,0,0,0,8.16,6.9,31.13,31.13,0,0,0,9.72-9.66Z"/><path d="M484.92,1999.32c0,2.76-.78,4-2.64,4.68s-5.46.72-11.1.66a12.92,12.92,0,0,0-1.38-3.84c4.32.18,8.4.12,9.6.06s1.56-.42,1.56-1.56v-12.78H464.22v17.94h-4v-17.94H444.78c-.9,6.72-2.88,13.56-7.56,18.78a11.58,11.58,0,0,0-3-2.64c6.6-7.44,7.26-18,7.26-26.46v-21.59h43.44Zm-24.66-16.56v-10.5H445.38v4c0,2.11-.06,4.26-.24,6.54Zm-14.88-24.35v10.13h14.88v-10.13Zm35.58,0H464.22v10.13H481Zm0,24.35v-10.5H464.22v10.5Z"/><path d="M521,1953.49H506.22v35.15h-4v-38.87H521Z"/><path d="M542.64,1951.63a89.36,89.36,0,0,1-6.18,12.48v40.67h-3.78v-34.86a61.13,61.13,0,0,1-7,8.29,24.83,24.83,0,0,0-2.28-3.84c6.12-5.7,12-14.7,15.48-23.82Zm12.66,14.82a105.68,105.68,0,0,1-3.36,11.63h26.22v3.72h-12.6v17.46h13.8V2003h-33v-3.78h15.36V1981.8h-10.5v-1.74c-2.82,7.5-6.42,14-11.16,19.14a25.56,25.56,0,0,0-3.18-3c7-7.14,11.4-17.52,14.34-29.75h-11.4v-3.78h12.3c.78-3.84,1.44-7.8,2-11.88l4.08.48c-.6,4-1.32,7.74-2,11.4h23.34v3.78Z"/><path d="M583,2001.84h14.82v-35.15h4v38.87H583Z"/><path d="M666.12,1982a100.84,100.84,0,0,1-11.7,8.58,36.22,36.22,0,0,0,15.3,8.76,24.16,24.16,0,0,0-2.64,3.48c-12.3-4.08-20.82-13.2-25.38-25.61h-.18a53.79,53.79,0,0,1-9.6,8V1999l14.88-4.5a18.38,18.38,0,0,0,.6,3.42c-16.62,5.4-18.66,6.12-20,7a14.6,14.6,0,0,0-1.74-3.66,3.9,3.9,0,0,0,2.16-3.78v-9.72a71.36,71.36,0,0,1-10.68,5.1,19.48,19.48,0,0,0-2.64-3.24,62.5,62.5,0,0,0,21.9-12.41H616.2v-3.54h23.7v-5.64H621.54v-3.36H639.9v-5.4H618.54v-3.48H639.9v-5.52h4v5.52h22v3.48h-22v5.4h19.32v3.36H643.92v5.64H667.8v3.54H645.54a38.86,38.86,0,0,0,6.6,11,80.68,80.68,0,0,0,10.74-8.46Z"/><path d="M690.24,1980.78a58,58,0,0,1-12.06,19.14,26,26,0,0,0-3.66-2.46,47,47,0,0,0,11.64-17.75Zm13.62-7.91v31.79h-4.14v-31.79H675.84v-4h52.5v4Zm19.2-14.22H681.18v-3.9h41.88Zm-5.16,20.93c4.5,5.58,9.24,13.14,11,18.24l-3.9,1.8c-1.74-5-6.3-12.78-10.8-18.48Z"/><path d="M749,1990.8h10.26v3.6H749v10.68h-3.6V1994.4h-10.8v-3.6h10.8v-5H736.8v-20.63h8.58v-4.62h-10V1957h10v-6.66H749V1957h9.42v3.48H749v4.62h8.76v20.63H749ZM739.86,1974h5.88v-5.7h-5.88Zm0,8.75h5.88v-5.82h-5.88Zm14.76-14.45h-5.94v5.7h5.94Zm0,8.63h-5.94v5.82h5.94Zm21.48-14.57v5.88h11.76v32.39c0,1.92-.36,3.06-1.56,3.72s-3.36.66-6.42.66a13.71,13.71,0,0,0-1.08-3.6c2.16.06,4,.06,4.62,0s.72-.18.72-.84v-8.82h-8v12.84h-3.6V1991.7h-8V2005h-3.6v-36.77H772.5v-5.88H759.84v-3.54H772.5v-8.4h3.6v8.4h13.2v3.54Zm-11.58,9.36v6.41h8v-6.41Zm8,16.55v-6.78h-8v6.78Zm3.6-16.55v6.41h8v-6.41Zm8,16.55v-6.78h-8v6.78Zm2-29.75a46.28,46.28,0,0,0-7.5-6.18l2.28-1.86a35.85,35.85,0,0,1,7.5,5.88Z"/><path d="M812.64,1951.63a89.36,89.36,0,0,1-6.18,12.48v40.67h-3.78v-34.86a61.13,61.13,0,0,1-7,8.29,24.83,24.83,0,0,0-2.28-3.84c6.12-5.7,12-14.7,15.48-23.82Zm12.66,14.82a105.68,105.68,0,0,1-3.36,11.63h26.22v3.72h-12.6v17.46h13.8V2003h-33v-3.78h15.36V1981.8h-10.5v-1.74c-2.82,7.5-6.42,14-11.16,19.14a25.56,25.56,0,0,0-3.18-3c7-7.14,11.4-17.52,14.34-29.75h-11.4v-3.78h12.3c.78-3.84,1.44-7.8,2-11.88l4.08.48c-.6,4-1.32,7.74-2,11.4h23.34v3.78Z"/><path d="M860.88,1986c4.68-2,7.26-4.86,7.56-9.17a4,4,0,0,1-1.14.11c-2.34,0-4.26-1.31-4.26-4.07a4,4,0,0,1,4.32-4.08c3.18,0,4.86,2.58,4.86,6.66,0,6.41-4,11.21-10.08,13.43Z"/><path d="M403.68,2029.69c-.84,3.12-1.8,6.42-2.7,9.06h24.66v32.93c0,2.46-.54,3.6-2.22,4.26s-4.8.72-9.12.72a12.47,12.47,0,0,0-1.38-3.78c3.54.12,6.6.06,7.5,0s1.2-.3,1.2-1.2v-29.22H410.94V2075h-4v-32.58H396.54V2075h-3.9v-32.58h-10V2077h-4v-38.27h18.24c.84-2.71,1.56-6.12,2.16-9.06H375.48v-4h53.34v4Z"/><path d="M484.92,2071.32c0,2.76-.78,4-2.64,4.68s-5.46.72-11.1.66a12.92,12.92,0,0,0-1.38-3.84c4.32.18,8.4.12,9.6.06s1.56-.42,1.56-1.56v-12.78H464.22v17.94h-4v-17.94H444.78c-.9,6.72-2.88,13.56-7.56,18.78a11.58,11.58,0,0,0-3-2.64c6.6-7.44,7.26-18,7.26-26.46v-21.59h43.44Zm-24.66-16.56v-10.5H445.38v4c0,2.11-.06,4.26-.24,6.54Zm-14.88-24.35v10.13h14.88v-10.13Zm35.58,0H464.22v10.13H481Zm0,24.35v-10.5H464.22v10.5Z"/><path d="M521,2025.49H506.22v35.15h-4v-38.87H521Z"/><path d="M545.52,2037.13c-3.48,13.73-9,27-18.84,36.11a31.63,31.63,0,0,0-2.64-3.12c9-8.1,14.22-20.33,17.46-33H526.32v-3.9h16.14c.78-3.66,1.44-7.32,2-10.86l4,.54c-.54,3.36-1.2,6.84-2,10.32h31.08v3.9Zm33.18,34.19v3.84H535.92v-3.84h19.74v-18.54H542v-3.84h33.84v3.84H559.74v18.54Z"/><path d="M583,2073.84h14.82v-35.15h4v38.87H583Z"/><path d="M666.12,2054a100.84,100.84,0,0,1-11.7,8.58,36.22,36.22,0,0,0,15.3,8.76,24.16,24.16,0,0,0-2.64,3.48c-12.3-4.08-20.82-13.2-25.38-25.61h-.18a53.79,53.79,0,0,1-9.6,8V2071l14.88-4.5a18.38,18.38,0,0,0,.6,3.42c-16.62,5.4-18.66,6.12-20,7a14.6,14.6,0,0,0-1.74-3.66,3.9,3.9,0,0,0,2.16-3.78v-9.72a71.36,71.36,0,0,1-10.68,5.1,19.48,19.48,0,0,0-2.64-3.24,62.5,62.5,0,0,0,21.9-12.41H616.2v-3.54h23.7v-5.64H621.54v-3.36H639.9v-5.4H618.54v-3.48H639.9v-5.52h4v5.52h22v3.48h-22v5.4h19.32v3.36H643.92v5.64H667.8v3.54H645.54a38.86,38.86,0,0,0,6.6,11,80.68,80.68,0,0,0,10.74-8.46Z"/><path d="M690.24,2052.78a58,58,0,0,1-12.06,19.14,26,26,0,0,0-3.66-2.46,47,47,0,0,0,11.64-17.75Zm13.62-7.91v31.79h-4.14v-31.79H675.84v-4h52.5v4Zm19.2-14.22H681.18v-3.9h41.88Zm-5.16,20.93c4.5,5.58,9.24,13.14,11,18.24l-3.9,1.8c-1.74-5-6.3-12.78-10.8-18.48Z"/><path d="M755.52,2037.13c-3.48,13.73-9,27-18.84,36.11a31.63,31.63,0,0,0-2.64-3.12c9-8.1,14.22-20.33,17.46-33H736.32v-3.9h16.14c.78-3.66,1.44-7.32,2-10.86l4,.54c-.54,3.36-1.2,6.84-2,10.32h31.08v3.9Zm33.18,34.19v3.84H745.92v-3.84h19.74v-18.54H752v-3.84h33.84v3.84H769.74v18.54Z"/><path d="M817.26,2036.71c-.18,3.29-.48,6.59-.9,10h25.5s-.06,1.37-.12,2c-1.26,17-2.4,23.46-4.8,25.8-1.26,1.38-2.64,1.8-4.86,1.92a87,87,0,0,1-10-.24,9,9,0,0,0-1.38-3.84c4.26.36,8.46.42,10,.42a4,4,0,0,0,2.82-.72c1.74-1.56,2.88-7.44,4-21.48H815.76c-1.92,10.68-6.42,20.7-17.82,26.64a11.83,11.83,0,0,0-2.88-3.12c15.54-7.68,17.1-23.46,17.82-37.31H796.44v-3.84H847.8v3.84Zm5.64-4a74.52,74.52,0,0,0-4.2-9.18l3.84-1.5a65.56,65.56,0,0,1,4.26,8.94Z"/><path d="M867.18,2040.67a9.06,9.06,0,1,1-9.06,9A9.09,9.09,0,0,1,867.18,2040.67Zm0,15.23a6.18,6.18,0,1,0,0-12.36,6.18,6.18,0,1,0,0,12.36Z"/><rect class="cls-2" x="1113" y="1235" width="65" height="220" rx="12"/><path class="cls-1" d="M1157.05,1273.79a27.61,27.61,0,0,0,11.5,8.1,11.65,11.65,0,0,0-2.15,2.55,30.77,30.77,0,0,1-12.8-10.65h-15.95a34.39,34.39,0,0,1-13,11.3,11.43,11.43,0,0,0-2.15-2.55,30.39,30.39,0,0,0,11.6-8.75H1123v-2.85h10v-16.15h-7.7V1252h7.7v-5h3.3v5h18.55v-5h3.35v5h7.65v2.8h-7.65v16.15h9.8v2.85Zm-10,14.5h17.3v2.85H1126.8v-2.85h16.9v-5.6h-10.45v-2.8h10.45v-4.4h3.35v4.4h10.65v2.8h-10.65Zm-10.8-33.5v3.6h18.55v-3.6Zm0,9.8h18.55v-3.65h-18.55Zm0,6.35h18.55v-3.8h-18.55Z"/><path class="cls-1" d="M1141.25,1315.54s0,1.15,0,1.55c-.6,15.85-1.2,21.2-2.6,23a3.71,3.71,0,0,1-2.8,1.45,32.65,32.65,0,0,1-4.45,0,9.25,9.25,0,0,0-.85-3c1.75.15,3.2.15,3.9.15a1.42,1.42,0,0,0,1.45-.65c1-1.2,1.6-6,2.15-19.35h-6.8c-.55,10-2,18.25-6.45,23.65a9.53,9.53,0,0,0-2.55-2.35c5.45-6.45,5.9-17.85,6.1-31.55h-5.2v-3.1h20.1v3.1h-11.65c0,2.45-.1,4.85-.2,7.15Zm-7.9-10.45a33.47,33.47,0,0,0-4.25-7.15l2.9-1.15a31.92,31.92,0,0,1,4.4,7Zm23.85-7.45a15.26,15.26,0,0,1-.85,2.55c2.65,5.45,7.7,11.35,12.45,14a13,13,0,0,0-2.45,2.75c-4.25-2.7-8.5-8-11.4-13.3a32.61,32.61,0,0,1-11,13.6,12.79,12.79,0,0,0-2.35-2.65c5.85-3.6,10.35-10.2,12.5-17.85Zm-8.3,32.45a74,74,0,0,1,13.6,8.25l-2.25,2.9c-2.85-2.6-8.75-6.3-13.4-8.65Zm9.5-4.85a66.22,66.22,0,0,0-8.6-6.85l2.15-2.2a67.46,67.46,0,0,1,8.75,6.55Z"/><path class="cls-1" d="M1134.5,1360c-1.6,7.2-4.55,16.15-9.1,21.7a19.23,19.23,0,0,0-3.1-1.8c4.55-5.25,7.3-13.85,8.55-20.55Zm12.9-12.3v40c0,2.55-.7,3.6-2.35,4.2s-4.8.6-9.4.6a15.62,15.62,0,0,0-1.4-3.45c3.7.1,7.3.1,8.25.05s1.45-.35,1.45-1.4v-40ZM1159,1359c4.45,7,8.7,16.1,10,22l-3.45,1.45c-1.25-5.85-5.25-15.15-9.6-22.3Z"/><path class="cls-1" d="M1163.65,1424.74a72.75,72.75,0,0,1-7.65,3.65,19.75,19.75,0,0,0,12.1,9.55,10.66,10.66,0,0,0-2.1,2.6,22.77,22.77,0,0,1-12.5-11.1c-1.1.45-2.15.85-3.2,1.2,1.5,4.4.7,8.7-1.6,10.35a6,6,0,0,1-4.25,1.3c-1,0-2.25,0-3.55-.1a5.77,5.77,0,0,0-.9-2.85,30,30,0,0,0,4,.2,4.12,4.12,0,0,0,2.7-.65c1.35-1,1.9-3.75,1-6.9-5.55,3.7-14.45,7-22,8.45a11,11,0,0,0-1.45-2.4c8-1.1,17.65-4.65,22.65-8.35a13.35,13.35,0,0,0-1.25-2.15,69.47,69.47,0,0,1-17.55,6.35,7.59,7.59,0,0,0-1.4-2.15c5.8-1,13.4-3.4,17.7-5.85-.6-.55-1.25-1.15-2-1.7a80,80,0,0,1-15.25,4.15,16.41,16.41,0,0,0-1.55-2.2c5.7-.75,12.15-2.15,16.75-4.15h-18.55v-2.55h28c.3-.9.55-1.8.9-2.75h-21.7c1.25-2.8,3-7,4-10.25l3,.5a42,42,0,0,0-3.4-3.25l2-1.15h-6.25a29.23,29.23,0,0,1-5.1,5.6,25.27,25.27,0,0,0-2.35-2.2,26.89,26.89,0,0,0,7.5-9.35l3,.85c-.45.9-1,1.75-1.4,2.65h13.45v2.45h-8.3a44.9,44.9,0,0,1,4,3.65l-2.45,1.6a4.8,4.8,0,0,0-.7-.75c-.2.65-.45,1.25-.65,2h17.75l.6-.2,2.25.5c-.8,3.15-1.9,7-3,10.15h12V1422h-20.25c-.6.35-1.2.7-1.85,1a16.36,16.36,0,0,1,4.4,5.35,90.1,90.1,0,0,0,11.6-5.5Zm-10.2-10.3c.35-1.15.65-2.2,1-3.2h-17.7c-.45,1.15-.9,2.2-1.3,3.2Zm14.75-14.3v2.45h-16.6a28.84,28.84,0,0,1-4.55,5.15,15.06,15.06,0,0,0-2.55-2,21.57,21.57,0,0,0,6.7-9.1l3.1.8a26.43,26.43,0,0,1-1.25,2.7Zm-7.9,8a32.47,32.47,0,0,0-3.9-4.25l2.3-1.25a30.14,30.14,0,0,1,4,4Z"/><rect class="cls-2" x="1113" y="447" width="65" height="126" rx="12"/><path class="cls-1" d="M1132.7,476.82c1.25,1.6,4.9,6.7,5.7,8.05l-2,2.45c-.7-1.5-2.35-4.4-3.75-6.65V507h-3.15V482.57c-1.5,5.05-3.5,9.9-5.55,12.85a14.83,14.83,0,0,0-1.75-3.1c2.9-4,5.8-11.5,7.2-18h-6.2v-3.15h6.3v-9.65h3.15v9.65h5.45v3.15h-5.45Zm19.1.7a19.47,19.47,0,0,0,.45,2.65c-10.15,2.7-11.6,3.15-12.5,3.75a12.13,12.13,0,0,0-1.1-3.2c.7-.2,1.55-.5,1.55-2.2v-16.7h3.25v6.5h8.35v2.9h-8.35v8.3Zm2.35,5.5-2,3.75h12.65V507h-3.4v-1.75h-17v2h-3.3V486.77h7.9c.55-1.5,1.2-3.25,1.55-4.6Zm7.3,6.5h-17v5.05h17Zm0,13v-5.3h-17v5.3Zm2.25-22.4c1.25,0,1.5-.75,1.65-5.25a9.16,9.16,0,0,0,2.85,1.25c-.3,5.45-1.2,6.95-4.15,6.95h-5.85c-3.65,0-4.55-.95-4.55-4.45V461.87h3.25v6.5h10.2v2.9h-10.2v7.35c0,1.3.25,1.5,1.65,1.5Z"/><path class="cls-1" d="M1167.55,536.87v2.5H1123.4v-2.5h20.25v-3.2H1126.8v-2.3h16.85v-3H1128.2v-2.25h15.45v-3.2H1123.5v-2.5h20.15v-3H1128.8V515h14.85v-3.55h3.25V515h14.45v5.4h6.15v2.5h-6.15v5.45H1146.9v3h17.3v2.3h-17.3v3.2Zm-37.75,5h31.75v15.25h-3.25v-1.6H1133v1.7h-3.2Zm3.2,2.4v3.2h25.3v-3.2Zm25.3,8.85v-3.4H1133v3.4Zm-11.4-32.7h11.15v-3H1146.9Zm0,5.7h11.15v-3.2H1146.9Z"/><line class="cls-3" x1="601.5" y1="792.5" x2="601.5" y2="783.5"/><path d="M281.78,1652.59a130.17,130.17,0,0,0,18.73-9,148.88,148.88,0,0,0,16.21-11.93,145.22,145.22,0,0,0,20.75-21.46c14.47-18.05,26.84-37.59,39-57.23q36-58,66.32-119.31c20.95-42.35,39.83-85.76,56.67-129.9q24.13-63.27,42.15-128.64t29.63-132.38q1.43-8.22,2.74-16.46c1.13-7,1.14-13.31-2.57-19.65-3.09-5.28-9.16-10.33-15.24-11.71-6.53-1.49-13.85-1.17-19.65,2.57-5.23,3.37-10.68,8.82-11.72,15.24q-10.44,64.85-26.94,128.53T459,1266.88q-12.68,35.05-27.17,69.41l2.57-6.09q-21.58,51.08-47.06,100.39t-54.84,96.61c-10.34,16.67-20.7,33.5-32.67,49.06l4-5.16c-7.58,9.76-15.93,18.9-25.69,26.52l5.16-4a94.89,94.89,0,0,1-20.24,12l6.1-2.57-.89.37A28.62,28.62,0,0,0,253,1615.13c-3.2,5.47-4.55,13.52-2.57,19.65s5.82,12.12,11.72,15.24c5.62,3,13.48,5.14,19.65,2.57Z"/><path d="M318.54,1030.39a255.48,255.48,0,0,0,6.55,63.86,223.84,223.84,0,0,0,8.37,28c3.75,10.1,7.94,20.31,13.76,29.43,11.25,17.61,27.42,31.45,46,40.84a204.88,204.88,0,0,0,55.56,18.53,269.2,269.2,0,0,0,59.84,4.3,336.15,336.15,0,0,0,60.57-8.37c38-8.73,74.31-24.29,108.48-42.78,32.9-17.81,64-38.7,94.79-59.9l11.43-7.89c5.54-3.82,9.89-8.57,11.72-15.24,1.68-6.1.92-14.23-2.57-19.65s-8.74-10.23-15.24-11.71-14-1.31-19.65,2.57c-37.2,25.69-74.57,51.45-114.77,72.32-11.35,5.89-22.92,11.37-34.7,16.35l6.09-2.57c-27.95,11.75-57.18,20.35-87.25,24.47l6.78-.91a260.41,260.41,0,0,1-69.16.44l6.78.91a199.94,199.94,0,0,1-50.42-13.48l6.09,2.57a122.71,122.71,0,0,1-26.6-15.19l5.16,4a84.49,84.49,0,0,1-14.62-14.41l4,5.16a101.58,101.58,0,0,1-12.77-22.55l2.57,6.1a220.86,220.86,0,0,1-14.76-55.07l.91,6.77a230,230,0,0,1-2-36.91c.17-6.42-3-13.53-7.47-18s-11.68-7.75-18-7.47c-6.6.3-13.44,2.46-18,7.47a27.09,27.09,0,0,0-7.46,18Z"/><path d="M520.45,1356.89q78.91-2.69,157.91-2.93t157.92,2q44.31,1.24,88.58,3.25c6.35.29,13.61-3,18-7.47s7.76-11.68,7.47-18c-.29-6.59-2.46-13.43-7.47-18a27.54,27.54,0,0,0-18-7.47Q846,1304.61,767,1303.47t-157.93.17q-44.32.73-88.61,2.25a26.65,26.65,0,0,0-18,7.47c-4.42,4.42-7.75,11.67-7.46,18,.29,6.59,2.46,13.43,7.46,18s11.21,7.7,18,7.47Z"/><path d="M686.21,1346.29l-1.58,103.76-1.57,103.23-.89,58.24a26.23,26.23,0,0,0,25.5,25.5l6.78-.91a25.55,25.55,0,0,0,11.25-6.56l4-5.16a25.32,25.32,0,0,0,3.48-12.87l1.58-103.76,1.57-103.23.89-58.24a26.21,26.21,0,0,0-25.5-25.5l-6.78.92a25.43,25.43,0,0,0-11.25,6.55l-4,5.16a25.52,25.52,0,0,0-3.48,12.87Z"/><path d="M509.75,1658.76q78.93-2.67,157.91-2.92t157.92,2q44.31,1.25,88.58,3.25c6.35.29,13.62-3,18-7.47s7.75-11.68,7.46-18c-.29-6.6-2.46-13.44-7.46-18a27.54,27.54,0,0,0-18-7.47q-78.88-3.57-157.86-4.72t-157.94.18q-44.31.74-88.61,2.24a26.67,26.67,0,0,0-18,7.47c-4.43,4.42-7.76,11.68-7.47,18,.29,6.6,2.46,13.44,7.47,18s11.21,7.7,18,7.47Z"/></svg>