<svg id="Layer_1" data-name="Layer 1" xmlns="http://www.w3.org/2000/svg" viewBox="0 0 1242 2208"><defs><style>.cls-1{fill:#f6eabe;}.cls-2{fill:#b3b3b3;}.cls-3{fill:gray;}.cls-4{fill:#999;}</style></defs><rect class="cls-1" width="1242" height="2208"/><path d="M932.66,669.39c0,34.14-7.94,50.82-34.94,59.55-27.79,8.73-75.43,8.73-149.27,8.73-2.38-15.08-11.91-36.52-19.85-51.61,60.34,2.39,114.34,2.39,131,.8,14.29-.8,19.06-4,19.06-18.26V343.06H651.58V852.8H595.21V343.06H378.45V741.64H322.87v-451H595.21V127.09h56.37V290.66H932.66Z"/><path d="M321.92,1764.19a98.85,98.85,0,0,1-6.18,13.56v39.59H311.9V1784a61.73,61.73,0,0,1-5.46,7,32.86,32.86,0,0,0-2.28-3.9c5.58-5.87,10.8-14.87,14-24Zm34.14,28c-2.1,1.26-4.44,2.64-6.84,3.78,2,6.06,5.82,11.82,10.38,14.52a11.2,11.2,0,0,0-2.64,2.94c-4.62-3.18-8.46-9.42-10.68-16a27.45,27.45,0,0,1-2.76,1.2c2.58,6.84,1.86,14-1,16.68a6.91,6.91,0,0,1-5.22,1.92c-1.08,0-2.4-.06-3.78-.18a9.31,9.31,0,0,0-1-3.42,38.26,38.26,0,0,0,4.14.24,3.66,3.66,0,0,0,3.12-1.14c1.56-1.38,2.22-5.16,1.44-9.36-5.16,4.92-13.08,9.36-19.8,11.7a15.8,15.8,0,0,0-2.34-2.82c7.62-2.28,16.62-7.14,21.3-12.24a35.76,35.76,0,0,0-1.5-3.48,63.52,63.52,0,0,1-17.22,9.9,16.14,16.14,0,0,0-2.22-2.64c5.94-1.8,13.74-5.76,17.88-9.54a16.39,16.39,0,0,0-2.94-3.18,58.44,58.44,0,0,1-13.56,7.26,11.26,11.26,0,0,0-2.22-2.58,52.7,52.7,0,0,0,15.06-7.55H323.48v-9.36c-1.14,1-2.28,2-3.54,2.94a9.37,9.37,0,0,0-2.52-2.58,44.69,44.69,0,0,0,13.86-16.26l3.84.72c-.6,1.2-1.32,2.34-2,3.54h11.1l.72-.18,2.34,1.68a52.13,52.13,0,0,1-4.8,6.84h13.08v12.66H337.94c-.36.36-.78.66-1.2,1a21,21,0,0,1,5.64,6.84,110,110,0,0,0,10.92-6.42ZM331,1770.31a54.58,54.58,0,0,1-4.2,5.16h11.58a37.88,37.88,0,0,0,3.72-5.16Zm-3.9,14.69h10.5v-6.42h-10.5Zm24.72-6.42H341.18V1785H351.8Z"/><path d="M419.36,1787.41v4.31H364.88v-4.31Z"/><path d="M444,1802c-6.3,2.64-13.14,5.34-18.36,7.38l-1.26-4c2.28-.78,5.1-1.8,8.22-2.94v-21.17h-7.26v-3.78h7.26v-13.92h3.72v13.92h6.54v3.78h-6.54V1801l7-2.64Zm31,11.52c1.68,0,2-.66,2.16-4.62a10.07,10.07,0,0,0,3.18,1.26c-.42,5.28-1.44,6.72-5,6.72h-8.64c-4.56,0-5.76-1-5.76-5.22v-18.36h-4c-1,10.74-3.54,19.62-13.38,24.48a9.45,9.45,0,0,0-2.34-3c8.94-4.08,11.22-12.06,12.12-21.48h-7.74v-24.41h6.12a36.07,36.07,0,0,0,2.22-6.3l4.2.66c-.9,2-1.74,4-2.64,5.64h21.24v24.41h-12.3v18.36c0,1.56.36,1.86,2.58,1.86Zm-25.92-34h10.14v-7.26H449.12Zm0,10.43h10.14v-7.25H449.12Zm24.06-17.69H462.86v7.26h10.32Zm0,10.44H462.86v7.25h10.32Zm-.18,13.07a56.8,56.8,0,0,1-4.2,9.36l6.36-.66a42.18,42.18,0,0,0-2.34-5l2.16-.84a69.24,69.24,0,0,1,4.08,8.88l-2.22,1.2a20.57,20.57,0,0,0-.72-2c-8.22,1.08-9.6,1.38-10.26,1.74a13.43,13.43,0,0,0-.9-2.76c.66-.06,1.08-.78,1.68-1.86a38.1,38.1,0,0,0,3.66-9.06Z"/><path d="M498.92,1764.13a100.42,100.42,0,0,1-4.14,12.18v41h-3.6v-33.47a60.86,60.86,0,0,1-5,7.8,30.13,30.13,0,0,0-2.16-4c4.86-6,8.94-15.17,11.34-24.47Zm35.28,1.74c-.24,25.43-.54,47.75,2.1,47.75.72,0,1-4.92,1-10.38a12.12,12.12,0,0,0,2.28,2.34c-.36,9-.9,11.7-3.66,11.7-5.88,0-5.22-19.32-5.28-47.93H504.92v13.14c0,9.89-.72,24.77-5.4,35a12.47,12.47,0,0,0-2.88-2c4.44-9.84,4.86-23.46,4.86-33v-16.62Zm-26.64,9.84h20.22V1779h-8.16v6.6h7.62v20.52c0,1.44-.3,2.22-1.2,2.76a9.7,9.7,0,0,1-4.2.54,10.53,10.53,0,0,0-1.08-2.76c1.56.06,2.7.06,3.12.06s.54-.18.54-.6v-17.94h-5.16v28.68h-2.82v-28.68H511v21.48h-2.76V1785.6h7.8V1779h-8.52Z"/><path d="M595.4,1803.78c0,2.58-.6,3.84-2.64,4.5s-5.7.66-11.28.66a14.91,14.91,0,0,0-1.5-3.9c4.56.18,8.64.18,9.9.06,1.08-.06,1.44-.3,1.44-1.38v-24.59H574.16v38.51H569.9v-38.51H553.52v30.11h-4.2v-34.07H569.9v-12.36h4.26v12.36H595.4Z"/><path d="M613.28,1792a35.25,35.25,0,0,1-6.6,8.4,16.68,16.68,0,0,0-2.58-1.86,25.58,25.58,0,0,0,6.24-7.43Zm3.6,9.18v-11.52H605.24v-2.93h3.18v-22.2h20.46v22.2h2.94v2.93h-11.7v11.52Zm-11.58,12.06c2.94-2.7,5.28-7.2,6.72-10.68l3.18,1.2c-1.68,3.72-3.78,8.28-6.6,11.1Zm6.36-46v3.36h13.86v-3.36Zm13.86,5.64H611.66v2.94h13.86Zm-13.86,8.28h13.86v-3.12H611.66Zm0,5.52h13.86v-3.37H611.66Zm27.42,25.85c2.94,0,3.42-.9,3.72-7.56a14,14,0,0,0,3.54,1.38c-.54,7.86-1.74,9.6-7,9.6H627.2c-5.88,0-7.56-1-7.56-5.1v-8.64h3.9v8.58c0,1.5.6,1.74,4,1.74Zm-13.26-21.3a37.09,37.09,0,0,1,5.46,5.88L629,1799a40.3,40.3,0,0,0-5.4-6.12Zm7.74,18.6a56.22,56.22,0,0,0-5.82-8l2.82-1.68a59.46,59.46,0,0,1,6,7.8Zm6.42-18.72a34.67,34.67,0,0,1-6.48,8.64,29.92,29.92,0,0,0-2.4-2.16,25.06,25.06,0,0,0,5.88-7.37ZM651.92,1765c-4.92,3.06-12.3,6-18.66,8.28a9.75,9.75,0,0,0-1.14-2.4c6.18-2.22,13.2-5.4,17.16-8.16Zm-5.34,22.49v13.68h-3.42v-13.38c-6.72.61-7.92.84-8.76,1.2a23.64,23.64,0,0,0-1.08-3.29,13.19,13.19,0,0,0,4.92-2.1,69.55,69.55,0,0,0,6-3.9c-7.56.71-8.82.9-9.6,1.25a21.93,21.93,0,0,0-1.08-3.11,6.5,6.5,0,0,0,3.12-1.32,48.42,48.42,0,0,0,8.34-6.9l3,1.44a60.8,60.8,0,0,1-8.22,6.47l8-.53a54.39,54.39,0,0,0,4.92-4.14l2.94,1.8a105.56,105.56,0,0,1-15.24,10.74l12.3-1c-.84-1-1.68-1.87-2.4-2.7l2.34-1.33a42.64,42.64,0,0,1,6.54,8l-2.58,1.56a21.33,21.33,0,0,0-2-3.23Zm5.82,14.76a68.54,68.54,0,0,1,4.62,10.92l-3.6,1.2a71.14,71.14,0,0,0-4.5-11.16Zm-.66-12.42a48.43,48.43,0,0,1,7.14,7.56l-2.46,1.86a56.86,56.86,0,0,0-7-7.74Z"/><path d="M676.94,1795.2v17c0,2.46-.6,3.48-2,4.08s-3.9.78-8,.78a15.75,15.75,0,0,0-1.2-3.72c2.88.12,5.52.06,6.24.06s1.14-.3,1.14-1.14v-15.9c-2.52.78-5,1.5-7.14,2.16l-1.2-3.9c2.34-.6,5.22-1.32,8.34-2.22v-13.61h-7.56v-3.72H673v-12.18h3.9v12.18h6.66v3.72h-6.66v12.59l6.9-2,.42,3.59Zm42.42,16.38v3.78H681.62v-3.78h17.64V1801h-13.5v-3.72h13.5v-7.13h4v7.13H716.6V1801H703.28v10.56Zm-.6-23.75H684.5v-3.72h14.76v-9.24H686.72v-3.66h12.54v-8h4v8h12.48v3.66H703.28v9.24h15.48Z"/><path d="M745.16,1776.13a67.9,67.9,0,0,1-7.2,12.24v28.85h-4v-24a41.57,41.57,0,0,1-7.26,6.41,17,17,0,0,0-2-3.48c7-5,12.3-12.23,16.14-20H726v-3.84h16.44a65.25,65.25,0,0,0,3.3-9.42l4.08,1c-.9,2.82-1.86,5.64-3,8.4H778.1v3.84Zm32.94,36.23v3.72H742v-3.72h16v-17.52H744.32v-3.71H758v-11.82h4v11.82h13.8v3.71H762v17.52Z"/><path d="M802.4,1812.54c0,2.16-.54,3.3-1.8,3.9-1.5.66-3.72.72-7.56.72a14.67,14.67,0,0,0-1.14-3.6c2.82.12,5.22.06,5.94.06s1.08-.3,1.08-1.14v-17.64c-2.16,1.56-4.2,3.12-6.3,4.62l-1.32-2.64c-.42,7.14-1.5,14.88-4.08,20.82a12.5,12.5,0,0,0-2.82-2.52c3.36-7.68,3.66-18.48,3.66-26.7V1765H802.4Zm-10.92-24.12q0,3.51-.18,7.56c2-1.14,4.74-2.76,7.62-4.5V1784l-2,1.38a54.22,54.22,0,0,0-5.4-6.89Zm0-19.67v9.6l2.16-1.44a59.15,59.15,0,0,1,5.28,6.17v-14.33Zm40.8,31.67a24.19,24.19,0,0,1-6.6,9.18,118.54,118.54,0,0,1,13.14,5.46l-3.66,2.46a104.67,104.67,0,0,0-12.78-5.64c-4.2,2.52-9.54,4.32-16.32,5.52a12.17,12.17,0,0,0-1.92-3.12,43.22,43.22,0,0,0,13.86-4c-3.3-1.08-6.72-2.28-10.26-3.3,1.38-1.86,2.88-4.14,4.38-6.54h-8v-3.36H814a53.37,53.37,0,0,0,2.82-5.93l3.84.83c-.72,1.62-1.56,3.36-2.52,5.1h11.28c.3-1,.6-1.92.84-3l3.78.84c-.18.73-.36,1.44-.6,2.16h5.22v3.36Zm6.6-34.55v3.6h-11v5.22h9.54v15.18H806.18v-15.18h8.76v-5.22H804.56v-3.6Zm-29.4,20.58h5.7V1778h-5.7Zm6.84,14c-1.14,1.8-2.22,3.54-3.18,4.92,2.82.9,5.7,1.8,8.52,2.76a20.44,20.44,0,0,0,6.42-7.68Zm8.1-31H818.3v5.22h6.12ZM818.3,1778v8.41h6.12V1778Zm15.78,0H827.6v8.41h6.48Z"/><path d="M851.6,1785.72v31.8h-3.9v-52.07h21.42v20.27Zm0-17.15v5.4h13.74v-5.4Zm13.74,14V1777H851.6v5.64Zm-.84,29.27v3.06h-3.66v-24.53H883v21.47Zm0-18.36v5.88h14.76v-5.88Zm14.76,15.18v-6.18H864.5v6.18Zm17.4,3.3c0,2.7-.66,4-2.52,4.74s-5,.72-10,.72a13.68,13.68,0,0,0-1.38-4.08c3.78.18,7.44.12,8.46.06s1.44-.36,1.44-1.44v-26.21h-18v-20.34h22Zm-18.12-43.43v5.4H892.7v-5.4Zm14.16,14.1V1777H878.54v5.7Z"/><path d="M910.88,1798.5c4.68-2,7.26-4.86,7.56-9.17a4,4,0,0,1-1.14.11c-2.34,0-4.26-1.31-4.26-4.07a4,4,0,0,1,4.32-4.08c3.18,0,4.86,2.58,4.86,6.66,0,6.41-4,11.21-10.08,13.43Z"/><path d="M442.82,1843v46.25h-4.14v-3.12H406.16v3.42h-4V1843h15a61.41,61.41,0,0,0,2.52-8.28l4.5.66c-.9,2.52-2,5.34-3,7.62Zm-36.66,3.84v9.47h32.52v-9.47Zm0,13.19v9.24h32.52v-9.24Zm32.52,22.32V1873H406.16v9.36Z"/><path d="M454.82,1888a50,50,0,0,0,7.92-11.52l3.6,1a65,65,0,0,1-7.92,12Zm27.9-46.91c-3.6,17.46-12.9,27.77-24.3,33.05a13.16,13.16,0,0,0-2.76-3.06,36.84,36.84,0,0,0,17.7-15.35,69.78,69.78,0,0,0-8.58-7.8,43.16,43.16,0,0,1-8,9.3,23.32,23.32,0,0,0-1.8-3.18c5.64-4.92,10.26-13,12.42-19.74l3.78,1.14c-.6,1.56-1.32,3.18-2,4.74H479.6l.72-.12Zm-14,18.3-11.76,3.65-1.14-3.18c3.3-.71,7.86-1.85,12.54-3.05Zm-1.26-15.84c-.36.6-.66,1.26-1,1.86a73.93,73.93,0,0,1,8.58,7.32,50.36,50.36,0,0,0,3.3-9.18Zm9.18,34.19a64.24,64.24,0,0,1,1.5,10.62l-3.9.6a63.61,63.61,0,0,0-1.26-10.86Zm29.22-3.48a130.07,130.07,0,0,0-11.34-19.86c-1.86,7-5.94,14.4-15.06,20.52a16.36,16.36,0,0,0-3-2.58c9.48-6.3,13.26-14,14.76-20.87h-9.24v-3.78h9.9a52.13,52.13,0,0,0,.3-5.88v-6.3h3.78v6.36c0,1.8-.06,3.72-.24,5.82h13v3.78H496.76c4.92,6.89,10.26,15.53,12.54,21Zm-16.92,3a54.08,54.08,0,0,1,3.9,10.8l-3.84.84a54.74,54.74,0,0,0-3.72-10.92Zm12.18-1.08a66.16,66.16,0,0,1,8.16,11.7l-3.66,1.68a75,75,0,0,0-8-11.94Zm3.18-30a43.7,43.7,0,0,0-6.54-8.16l2.94-1.74a42.23,42.23,0,0,1,6.66,8Z"/><path d="M543,1843.21v10.86l.66-.78c7.32,3.54,16.74,8.93,21.54,12.53l-2.76,3.6c-4.2-3.42-12.48-8.46-19.44-12.12v32.1h-4.2v-46.19H515.54v-4h53v4Z"/><path d="M627.62,1848.19v3.65h-23.7v20.88h19.62v3.66H603.92v7.68h21.84v3.66H577.94v-3.66h22v-7.68H580v-3.66H599.9v-20.88H576.08v-3.65H599.9v-6.48c-6.66.48-13.56.84-19.74,1a10.81,10.81,0,0,0-1-3.36c14.4-.48,32.1-1.74,41.88-3.84l2,3.42a166.55,166.55,0,0,1-19.14,2.52v6.78Zm-38.16,5.69v6.42h6.78V1864h-6.78v6.42h-3.78V1864h-8.46v-3.66h8.46v-6.42Zm29.46,6.42h7.56V1864h-7.56v6.42h-3.84V1864H607v-3.72h8.1V1854h3.84Z"/><path d="M651,1835.53c-1,2.94-2.1,6.3-3.18,8.88H658v38.75h-16.8v4.8h-3.66v-43.55h6.66a64.68,64.68,0,0,0,2.58-9.72Zm3.3,12.47H641.18v13.08h13.14Zm0,31.56v-14.88H641.18v14.88Zm33.06-33.17c-1,27.53-1.8,36.71-4.2,39.59a5.6,5.6,0,0,1-4.56,2.28,74.94,74.94,0,0,1-8.82-.12,9.42,9.42,0,0,0-1.32-3.9c3.9.36,7.5.36,8.82.36s1.92-.12,2.52-.9c2-2.1,2.94-11.34,3.72-35.7H667.82a55.33,55.33,0,0,1-5.64,10.68,36.22,36.22,0,0,0-3.36-2.22c4.08-5.33,7.32-13.61,9.18-21.89l3.84.84c-.78,3-1.62,6-2.64,8.88h18.18Zm-12.78,27a106.51,106.51,0,0,0-9.3-13.92l3.06-1.79a102.47,102.47,0,0,1,9.6,13.61Z"/><path d="M712.64,1869.24c-.9-1.92-3.12-5.88-5-8.87v29H704v-29c-2,6.83-4.86,13.55-7.68,17.63a24.88,24.88,0,0,0-2.1-3.42c3.72-5,7.5-14.63,9.3-23h-8.1v-3.72H704v-13.08h3.66v13.08h7v3.72h-7v4c1.68,2.22,6.24,9.06,7.26,10.73Zm14.88,4a23.6,23.6,0,0,1-13,14.82,13.3,13.3,0,0,0-2.22-2.64,20.42,20.42,0,0,0,10.86-10h-9v-3H724.7l.66-.12Zm2.4-28.37h-14v-3.06h8a49.35,49.35,0,0,0-3.42-5.7l3-1.26a35,35,0,0,1,3.9,6.24l-1.56.72h11.1l-1-.36a55.82,55.82,0,0,0,3.72-6.6l3.54,1.2c-1.32,2-2.7,4.14-3.9,5.76h9v3.06H733.76v4h12.6v3h-12.6v4.2h15.18v3.18H727.88a71.37,71.37,0,0,1,12.66,5l-2.16,2.63a68.66,68.66,0,0,0-13.38-5.51l1.8-2.11H714.5V1856h15.42v-4.2H718.46v-3h11.46ZM748,1869.9a110.13,110.13,0,0,1-9.24,7.2,28.13,28.13,0,0,0,11.28,7.62,15.28,15.28,0,0,0-2.46,3,31.62,31.62,0,0,1-13.86-12.36v10c0,2-.42,3-1.92,3.54s-3.9.6-7.68.6a15.57,15.57,0,0,0-1.08-3.36c2.82.06,5.22.06,6,0s.9-.18.9-.78v-16.56H718.82v-3h14.94v3.48a26,26,0,0,0,3.24,5.58,65.15,65.15,0,0,0,8-7.25Z"/><path d="M808.94,1865.46H784.22v18.6c0,2.82-.72,4-2.88,4.68s-5.94.78-11.7.78a17.7,17.7,0,0,0-1.8-4.14c5,.18,9.36.18,10.68.12s1.62-.42,1.62-1.5v-18.54h-25v-4h25v-8.75a74.47,74.47,0,0,0,15.72-9.84H761.18V1839h39l.84-.24,3,2.28a90,90,0,0,1-19.8,13.79v6.66h24.72Z"/><path d="M827.18,1853.17a9.06,9.06,0,1,1-9.06,9A9.09,9.09,0,0,1,827.18,1853.17Zm0,15.23a6.18,6.18,0,1,0,0-12.36,6.18,6.18,0,1,0,0,12.36Z"/><path d="M303.56,1914.37v7.92h22.26v34.31c0,2.28-.54,3.48-2.22,4.08s-4.68.66-8.94.66a14.79,14.79,0,0,0-1.38-3.6c3.42.12,6.54.12,7.5.06s1.14-.3,1.14-1.2V1926H303.56v35.1h-3.78V1926h-17.4v35.34h-3.84v-39h21.24v-7.92h-23.4v-3.9h51.54v3.9Zm-9.84,16.43c0,6.12.42,13.92,5.76,20a8.65,8.65,0,0,0-2.28,1.8A23.88,23.88,0,0,1,292,1941.3a27.16,27.16,0,0,1-6.24,11.4,14.22,14.22,0,0,0-2.34-1.8c4.08-3.9,6.24-9.9,7.2-17.15h-3.9v-3Zm21.12,0c0,6.18.48,13.92,6.24,19.92a11.7,11.7,0,0,0-2.4,1.74,23.65,23.65,0,0,1-5.58-11.64,27.62,27.62,0,0,1-6.18,11.46,15,15,0,0,0-2.34-1.8c4-3.84,6.06-9.72,7.08-16.73h-4.08v-3Z"/><path d="M349.22,1936.14a49.67,49.67,0,0,1-3.42,13c4,7,11.7,7.92,23.4,8,6.3,0,14.82-.24,20.82-.78a10.52,10.52,0,0,0-1.32,3.78c-5.52.3-13,.42-19.5.42-12.48,0-20.16-1.26-24.84-8.16a27.85,27.85,0,0,1-7.5,9.24,12,12,0,0,0-2.76-2.76c5.4-3.78,9.3-10.62,11.16-20h-5.82a6.23,6.23,0,0,0-3.48.85,19.84,19.84,0,0,0-1.56-3.67,5.53,5.53,0,0,0,2.76-1.74A94.39,94.39,0,0,0,344.3,1924h-9.36v-3.29h11.58l.78-.36,2.7,1.14c-2.34,3.59-6.6,10-9.78,14h6.54l.66-.06.18.06Zm-4.92-17.87a86.16,86.16,0,0,0-7-9.66l3-1.68a76.07,76.07,0,0,1,7.14,9.3Zm9.3,17.4h-3.54v-5.88h16.86c-.42-.91-.9-1.87-1.26-2.71H354.32v-16.61h10.74c.66-1.32,1.26-2.76,1.68-3.78l4.14.66c-.66,1.14-1.38,2.16-2,3.12h14.52v16.61H369.74a23.09,23.09,0,0,1,1.32,2.71h16.68v5.57h-3.66v-3.11H376.4v3c0,1.08.12,1.43,1.26,1.43h5.46a21.71,21.71,0,0,0,3.54-.24,15.51,15.51,0,0,0,.24,2.28,20,20,0,0,1-3.6.18h-7c-2.88,0-3.36-1.19-3.36-3.72v-2.93h-6.72c-1.86,4.31-6,6.29-14,7.67a7.14,7.14,0,0,0-1.68-2.28c6.84-.89,10.38-2.46,12.06-5.39h-9Zm11.94,7.85a13.56,13.56,0,0,1-.66,2.22H382a6.23,6.23,0,0,1-.24,1.44c-.84,4.14-1.74,6.18-2.94,7.08a5.16,5.16,0,0,1-3.24.9,49.5,49.5,0,0,1-6.3-.18,7.45,7.45,0,0,0-.78-2.58,50.09,50.09,0,0,0,5.82.3,3,3,0,0,0,1.86-.36c.6-.54,1.2-1.74,1.8-4H363.74c-1.92,3.12-5,5.52-10.26,7a11,11,0,0,0-2-2.7c6.66-1.74,9.42-4.86,10.62-9.12H351.2v-2.64h16.08c-.48-1.14-1.08-2.46-1.62-3.48l3.24-.72a46,46,0,0,1,2.16,4.2h16v2.64Zm-7.44-28.25h21.42v-2.64H358.1Zm0,4.8h21.42v-2.64H358.1Zm0,4.85h21.42v-2.69H358.1Z"/><path d="M411,1907.53c-1,2.94-2.1,6.3-3.18,8.88H418v38.75h-16.8v4.8h-3.66v-43.55h6.66a64.68,64.68,0,0,0,2.58-9.72Zm3.3,12.47H401.18v13.08h13.14Zm0,31.56v-14.88H401.18v14.88Zm33.06-33.17c-1,27.53-1.8,36.71-4.2,39.59a5.6,5.6,0,0,1-4.56,2.28,74.94,74.94,0,0,1-8.82-.12,9.42,9.42,0,0,0-1.32-3.9c3.9.36,7.5.36,8.82.36s1.92-.12,2.52-.9c2-2.1,2.94-11.34,3.72-35.7H427.82a55.33,55.33,0,0,1-5.64,10.68,36.22,36.22,0,0,0-3.36-2.22c4.08-5.33,7.32-13.61,9.18-21.89l3.84.84c-.78,3-1.62,6-2.64,8.88h18.18Zm-12.78,27a106.51,106.51,0,0,0-9.3-13.92l3.06-1.79a102.47,102.47,0,0,1,9.6,13.61Z"/><path d="M460.46,1945.68a76.31,76.31,0,0,1-3.06,14.4,27.62,27.62,0,0,0-3.12-1.14,67.82,67.82,0,0,0,2.94-13.86Zm11-16.55a62.11,62.11,0,0,1,3.78,12.29l-3.24,1.14a27.5,27.5,0,0,0-.66-3.18c-12.6,2-14.4,2.34-15.42,2.94a29,29,0,0,0-1.26-3.6c1.2-.24,2.58-1.86,4.26-4.08a72.88,72.88,0,0,0,5.16-7.19c-6.48.77-7.74,1.08-8.58,1.43a25.53,25.53,0,0,0-1.2-3.54c1-.23,2-1.55,3.24-3.35a77.14,77.14,0,0,0,8-15.24l3.54,1.56a99.15,99.15,0,0,1-9.36,16.38l6.48-.61a83.64,83.64,0,0,0,4.5-8.21l3.36,1.86a117.07,117.07,0,0,1-13.56,20l10-1.38a65.77,65.77,0,0,0-2.22-6.3Zm-5.28,15.71a114.36,114.36,0,0,1,1.62,12.66l-3.18.72a116.54,116.54,0,0,0-1.5-12.78Zm5.4-1.2a83.79,83.79,0,0,1,3.6,11.58l-3,1a92.55,92.55,0,0,0-3.48-11.7Zm33.42,1.5a33.55,33.55,0,0,1-9.72,8.46,13.94,13.94,0,0,0,9.06,4.26c1.26.06,2-1.74,2.52-5.76a9.29,9.29,0,0,0,3,1.8c-1,5.7-2.58,7.86-5.22,7.8a17.74,17.74,0,0,1-12.84-6.24,77.57,77.57,0,0,1-14,5.28,13.86,13.86,0,0,0-2.22-3.3,68.78,68.78,0,0,0,14.16-4.68,36.47,36.47,0,0,1-4.38-8.64l-8.82.66-.3-3.36,8.1-.6a77.67,77.67,0,0,1-1.8-8.15h3.78a59.07,59.07,0,0,0,1.74,7.91l20.88-1.44.3,3.3-20,1.38a34.08,34.08,0,0,0,3.84,7.2,30,30,0,0,0,8.52-7.2Zm-.66-25.07a31.34,31.34,0,0,1-8.52,5.93,12.21,12.21,0,0,0,8.28,3.91c1.2,0,1.86-1.5,2.28-5.22a8.85,8.85,0,0,0,2.88,1.85c-1,5.22-2.46,7.21-4.86,7.14a16.68,16.68,0,0,1-12.12-5.93,92,92,0,0,1-14.46,4.85,19.71,19.71,0,0,0-2-3.18,85.68,85.68,0,0,0,14.52-4.19,36.1,36.1,0,0,1-3.54-6.54l-10.26.78-.24-3.24,9.3-.72a61.51,61.51,0,0,1-2.1-8.7h3.72a44.74,44.74,0,0,0,2.16,8.46l18.84-1.38.24,3.24-17.76,1.26a25.9,25.9,0,0,0,3,5.28,28.08,28.08,0,0,0,7.38-5Zm-4.5,19a45.34,45.34,0,0,0-9.12-5.1l2.46-2a48.19,48.19,0,0,1,9.18,4.85Zm1.26-25.43a39.07,39.07,0,0,0-8.82-4.86l2.46-2a40.83,40.83,0,0,1,8.88,4.56Z"/><path d="M530,1908a99.35,99.35,0,0,1-4.62,12.42v41.15h-3.84v-33.6a56.4,56.4,0,0,1-5,7.56,24.14,24.14,0,0,0-2.22-3.9c5-6,9.36-15.29,12.12-24.65Zm.54,6.84h3.54v36.53h-3.54Zm15.84,31.37a43.11,43.11,0,0,1-8.76,12.12,25.39,25.39,0,0,0-3.12-2,34.4,34.4,0,0,0,8.4-11.1Zm18.12-30.65a32.75,32.75,0,0,1-8.94,10.68,36.62,36.62,0,0,0,13.56,5.57,22.21,22.21,0,0,0-2.22,3.24,41.33,41.33,0,0,1-14.34-6.59,58.21,58.21,0,0,1-14.58,6.72,17.4,17.4,0,0,0-2.34-3.3,50.1,50.1,0,0,0,14-5.83,31.9,31.9,0,0,1-6.06-7.37,32.58,32.58,0,0,1-5.22,5.16,19.18,19.18,0,0,0-2.64-2.88,35.23,35.23,0,0,0,11.1-14l3.6,1a34.51,34.51,0,0,1-2.28,4.44h20.1v3.24Zm-10.32,27.11v18.78h-3.72v-18.78h-13.2v-3.54h13.2v-6.36h3.72v6.36H567.8v3.54Zm-8.34-26.75a27,27,0,0,0,6.72,8.16,28.79,28.79,0,0,0,7.68-8.52h-14.1Zm15.06,29.21a49.87,49.87,0,0,1,7.92,10.56l-3.12,1.74a51.92,51.92,0,0,0-7.74-10.74Z"/><path d="M592,1908.13a84.89,84.89,0,0,1-6.18,12.9v40.31H582V1927a62.31,62.31,0,0,1-6.42,7.91,20.27,20.27,0,0,0-2.34-3.84c6-5.81,11.64-14.81,15.06-24Zm18.84,35.93c-7.2,2.88-14.7,5.88-20.52,8l-1.68-3.9,6.3-2.1-.36-35.81h3.84l.36,34.43c3.6-1.32,7.5-2.7,11.28-4.08Zm16.56,17.4a151.77,151.77,0,0,0-9.78-13.32c-4.32,6.06-10.56,10.44-19.8,13.68a17.89,17.89,0,0,0-2.58-3.48c22-6.78,26.22-20.76,27.36-49.07l4.08.12c-.72,15.53-2.4,26.87-7,35.33a163.63,163.63,0,0,1,10.8,13.92Zm-16-31.13a66,66,0,0,0-7.92-14.22l3.3-1.56c3.3,4.44,6.78,10.32,8.16,14Z"/><path d="M648.92,1908.13a100.42,100.42,0,0,1-4.14,12.18v41h-3.6v-33.47a60.86,60.86,0,0,1-5,7.8,30.13,30.13,0,0,0-2.16-4c4.86-6,8.94-15.17,11.34-24.47Zm35.28,1.74c-.24,25.43-.54,47.75,2.1,47.75.72,0,1-4.92,1-10.38a12.12,12.12,0,0,0,2.28,2.34c-.36,9-.9,11.7-3.66,11.7-5.88,0-5.22-19.32-5.28-47.93H654.92v13.14c0,9.89-.72,24.77-5.4,35a12.47,12.47,0,0,0-2.88-2c4.44-9.84,4.86-23.46,4.86-33v-16.62Zm-26.64,9.84h20.22V1923h-8.16v6.6h7.62v20.52c0,1.44-.3,2.22-1.2,2.76a9.7,9.7,0,0,1-4.2.54,10.53,10.53,0,0,0-1.08-2.76c1.56.06,2.7.06,3.12.06s.54-.18.54-.6v-17.94h-5.16v28.68h-2.82v-28.68H661v21.48h-2.76V1929.6h7.8V1923h-8.52Z"/><path d="M745.4,1947.78c0,2.58-.6,3.84-2.64,4.5s-5.7.66-11.28.66a14.91,14.91,0,0,0-1.5-3.9c4.56.18,8.64.18,9.9.06,1.08-.06,1.44-.3,1.44-1.38v-24.59H724.16v38.51H719.9v-38.51H703.52v30.11h-4.2v-34.07H719.9v-12.36h4.26v12.36H745.4Z"/><path d="M771,1907.53c-1,2.94-2.1,6.3-3.18,8.88H778v38.75h-16.8v4.8h-3.66v-43.55h6.66a64.68,64.68,0,0,0,2.58-9.72Zm3.3,12.47H761.18v13.08h13.14Zm0,31.56v-14.88H761.18v14.88Zm33.06-33.17c-1,27.53-1.8,36.71-4.2,39.59a5.6,5.6,0,0,1-4.56,2.28,74.94,74.94,0,0,1-8.82-.12,9.42,9.42,0,0,0-1.32-3.9c3.9.36,7.5.36,8.82.36s1.92-.12,2.52-.9c2-2.1,2.94-11.34,3.72-35.7H787.82a55.33,55.33,0,0,1-5.64,10.68,36.22,36.22,0,0,0-3.36-2.22c4.08-5.33,7.32-13.61,9.18-21.89l3.84.84c-.78,3-1.62,6-2.64,8.88h18.18Zm-12.78,27a106.51,106.51,0,0,0-9.3-13.92l3.06-1.79a102.47,102.47,0,0,1,9.6,13.61Z"/><path d="M829.22,1936.14a49.67,49.67,0,0,1-3.42,13c4,7,11.7,7.92,23.4,8,6.3,0,14.82-.24,20.82-.78a10.52,10.52,0,0,0-1.32,3.78c-5.52.3-13,.42-19.5.42-12.48,0-20.16-1.26-24.84-8.16a27.85,27.85,0,0,1-7.5,9.24,12,12,0,0,0-2.76-2.76c5.4-3.78,9.3-10.62,11.16-20h-5.82a6.23,6.23,0,0,0-3.48.85,19.84,19.84,0,0,0-1.56-3.67,5.53,5.53,0,0,0,2.76-1.74A94.39,94.39,0,0,0,824.3,1924h-9.36v-3.29h11.58l.78-.36,2.7,1.14c-2.34,3.59-6.6,10-9.78,14h6.54l.66-.06.18.06Zm-4.92-17.87a86.16,86.16,0,0,0-7-9.66l3-1.68a76.07,76.07,0,0,1,7.14,9.3Zm9.3,17.4h-3.54v-5.88h16.86c-.42-.91-.9-1.87-1.26-2.71H834.32v-16.61h10.74c.66-1.32,1.26-2.76,1.68-3.78l4.14.66c-.66,1.14-1.38,2.16-2,3.12h14.52v16.61H849.74a23.09,23.09,0,0,1,1.32,2.71h16.68v5.57h-3.66v-3.11H856.4v3c0,1.08.12,1.43,1.26,1.43h5.46a21.71,21.71,0,0,0,3.54-.24,15.51,15.51,0,0,0,.24,2.28,20,20,0,0,1-3.6.18h-7c-2.88,0-3.36-1.19-3.36-3.72v-2.93h-6.72c-1.86,4.31-6,6.29-14,7.67a7.14,7.14,0,0,0-1.68-2.28c6.84-.89,10.38-2.46,12.06-5.39h-9Zm11.94,7.85a13.56,13.56,0,0,1-.66,2.22H862a6.23,6.23,0,0,1-.24,1.44c-.84,4.14-1.74,6.18-2.94,7.08a5.16,5.16,0,0,1-3.24.9,49.5,49.5,0,0,1-6.3-.18,7.45,7.45,0,0,0-.78-2.58,50.09,50.09,0,0,0,5.82.3,3,3,0,0,0,1.86-.36c.6-.54,1.2-1.74,1.8-4H843.74c-1.92,3.12-5,5.52-10.26,7a11,11,0,0,0-2-2.7c6.66-1.74,9.42-4.86,10.62-9.12H831.2v-2.64h16.08c-.48-1.14-1.08-2.46-1.62-3.48l3.24-.72a46,46,0,0,1,2.16,4.2h16v2.64Zm-7.44-28.25h21.42v-2.64H838.1Zm0,4.8h21.42v-2.64H838.1Zm0,4.85h21.42v-2.69H838.1Z"/><path d="M880.4,1945.56a84.85,84.85,0,0,1-3.12,14.46c-.66-.3-2.22-.84-3-1.08,1.38-3.72,2.28-9.06,2.94-13.86Zm-4.5-3.3a19.5,19.5,0,0,0-1.14-3.48c1.2-.24,2.52-1.8,4.26-4a84.1,84.1,0,0,0,5.16-7.26c-6.6.72-7.86,1.08-8.64,1.45-.18-.84-.78-2.53-1.14-3.54.9-.24,2-1.45,3.18-3.3a78.49,78.49,0,0,0,7.92-15.24l3.42,1.5a99.8,99.8,0,0,1-9.36,16.44l6.72-.66c1.62-2.65,3.18-5.52,4.56-8.34l3.18,1.86a125.42,125.42,0,0,1-13.5,20.15l11.22-1.49c-.72-2.16-1.56-4.33-2.4-6.19l2.82-1a57.63,57.63,0,0,1,4.14,11.46l-3.06,1.2c-.18-.78-.36-1.67-.66-2.58-13.86,2.1-15.6,2.58-16.68,3.12Zm10.5,2.58A116.19,116.19,0,0,1,888,1957.5l-3.06.72a119.26,119.26,0,0,0-1.5-12.84Zm6.3-1.5a89.15,89.15,0,0,1,3.6,11.58l-2.88,1a91.71,91.71,0,0,0-3.42-11.7Zm35.64-8.58a58.8,58.8,0,0,1-6.42,4c1.32,7,4,13.5,8.1,16.56a11.61,11.61,0,0,0-2.52,2.88c-4.26-3.6-7-10.44-8.46-18-1.14.65-2.34,1.19-3.42,1.67,3.12,7.5,2,15.48-1,18.06a6.77,6.77,0,0,1-5,1.62c-1,.06-2.46,0-3.84-.06a7.9,7.9,0,0,0-.9-3.48,27.68,27.68,0,0,0,4.08.3,3.74,3.74,0,0,0,3.12-1.08c1.5-1.26,2.28-5,1.62-9.3a55.12,55.12,0,0,1-16.38,10.8,16.21,16.21,0,0,0-2.28-2.82c6.3-2.1,13.86-7,17.82-11.52a17,17,0,0,0-1.68-3.9,52.7,52.7,0,0,1-12.3,7.8,15.69,15.69,0,0,0-2.16-2.88,40.54,40.54,0,0,0,12.9-7.44,21,21,0,0,0-2.7-3,61,61,0,0,1-8.52,4.8,14.93,14.93,0,0,0-2.22-2.76,49.48,49.48,0,0,0,13.2-7.68H896V1926h21.3c.3-1.26.54-2.53.84-3.84H900.2c1.26-4.08,2.82-10.56,3.78-15.48l3.72.42c-.3,1.2-.54,2.4-.9,3.72h13.74l.66-.18,2.58.42c-.72,4.38-1.8,10.14-2.82,14.94h8.82v3.35h-16a32.69,32.69,0,0,1-4.32,3.84,22,22,0,0,1,4.86,6,86.68,86.68,0,0,0,11.4-6.72Zm-9.6-15.65c.3-1.86.66-3.78,1-5.34H906.14c-.48,1.86-1,3.72-1.44,5.34Z"/><path d="M940.88,1942.5c4.68-2,7.26-4.86,7.56-9.17a4,4,0,0,1-1.14.11c-2.34,0-4.26-1.31-4.26-4.07a4,4,0,0,1,4.32-4.08c3.18,0,4.86,2.58,4.86,6.66,0,6.41-4,11.21-10.08,13.43Z"/><path d="M415.82,1989.55v27.77h-4.08v-3.48H393.92v19.56h-4.14v-19.56H372v3.78h-4v-28.07h21.72v-10.74h4.14v10.74Zm-26,20.33v-16.43H372v16.43Zm22,0v-16.43H393.92v16.43Z"/><path d="M431.6,2001.72v31.8h-3.9v-52.07h21.42v20.27Zm0-17.15v5.4h13.74v-5.4Zm13.74,14V1993H431.6v5.64Zm-.84,29.27v3.06h-3.66v-24.53H463v21.47Zm0-18.36v5.88h14.76v-5.88Zm14.76,15.18v-6.18H444.5v6.18Zm17.4,3.3c0,2.7-.66,4-2.52,4.74s-5,.72-10,.72a13.68,13.68,0,0,0-1.38-4.08c3.78.18,7.44.12,8.46.06s1.44-.36,1.44-1.44v-26.21h-18v-20.34h22Zm-18.12-43.43v5.4H472.7v-5.4Zm14.16,14.1V1993H458.54v5.7Z"/><path d="M502,1980.13a84.89,84.89,0,0,1-6.18,12.9v40.31H492V1999a62.31,62.31,0,0,1-6.42,7.91,20.27,20.27,0,0,0-2.34-3.84c6-5.81,11.64-14.81,15.06-24Zm18.84,35.93c-7.2,2.88-14.7,5.88-20.52,8l-1.68-3.9,6.3-2.1-.36-35.81h3.84l.36,34.43c3.6-1.32,7.5-2.7,11.28-4.08Zm16.56,17.4a151.77,151.77,0,0,0-9.78-13.32c-4.32,6.06-10.56,10.44-19.8,13.68a17.89,17.89,0,0,0-2.58-3.48c22-6.78,26.22-20.76,27.36-49.07l4.08.12c-.72,15.53-2.4,26.87-7,35.33a163.63,163.63,0,0,1,10.8,13.92Zm-16-31.13a66,66,0,0,0-7.92-14.22l3.3-1.56c3.3,4.44,6.78,10.32,8.16,14Z"/><path d="M558.92,1980.13a100.42,100.42,0,0,1-4.14,12.18v41h-3.6v-33.47a60.86,60.86,0,0,1-5,7.8,30.13,30.13,0,0,0-2.16-4c4.86-6,8.94-15.17,11.34-24.47Zm35.28,1.74c-.24,25.43-.54,47.75,2.1,47.75.72,0,1-4.92,1-10.38a12.12,12.12,0,0,0,2.28,2.34c-.36,9-.9,11.7-3.66,11.7-5.88,0-5.22-19.32-5.28-47.93H564.92v13.14c0,9.89-.72,24.77-5.4,35a12.47,12.47,0,0,0-2.88-2c4.44-9.84,4.86-23.46,4.86-33v-16.62Zm-26.64,9.84h20.22V1995h-8.16v6.6h7.62v20.52c0,1.44-.3,2.22-1.2,2.76a9.7,9.7,0,0,1-4.2.54,10.53,10.53,0,0,0-1.08-2.76c1.56.06,2.7.06,3.12.06s.54-.18.54-.6v-17.94h-5.16v28.68h-2.82v-28.68H571v21.48h-2.76V2001.6h7.8V1995h-8.52Z"/><path d="M655.4,2019.78c0,2.58-.6,3.84-2.64,4.5s-5.7.66-11.28.66a14.91,14.91,0,0,0-1.5-3.9c4.56.18,8.64.18,9.9.06,1.08-.06,1.44-.3,1.44-1.38v-24.59H634.16v38.51H629.9v-38.51H613.52v30.11h-4.2v-34.07H629.9v-12.36h4.26v12.36H655.4Z"/><path d="M681,1979.53c-1,2.94-2.1,6.3-3.18,8.88H688v38.75h-16.8v4.8h-3.66v-43.55h6.66a64.68,64.68,0,0,0,2.58-9.72Zm3.3,12.47H671.18v13.08h13.14Zm0,31.56v-14.88H671.18v14.88Zm33.06-33.17c-1,27.53-1.8,36.71-4.2,39.59a5.6,5.6,0,0,1-4.56,2.28,74.94,74.94,0,0,1-8.82-.12,9.42,9.42,0,0,0-1.32-3.9c3.9.36,7.5.36,8.82.36s1.92-.12,2.52-.9c2-2.1,2.94-11.34,3.72-35.7H697.82a55.33,55.33,0,0,1-5.64,10.68,36.22,36.22,0,0,0-3.36-2.22c4.08-5.33,7.32-13.61,9.18-21.89l3.84.84c-.78,3-1.62,6-2.64,8.88h18.18Zm-12.78,27a106.51,106.51,0,0,0-9.3-13.92l3.06-1.79a102.47,102.47,0,0,1,9.6,13.61Z"/><path d="M743.48,2004.42c-1.62,1.75-3.36,3.6-4.92,5.1,1.86,2.16,3.72,4.44,4.44,5.28l-2.22,3c-1.2-1.8-4-5.58-6.12-8.34v24.12h-3.6v-22.91a44.17,44.17,0,0,1-5.16,5.93,14.09,14.09,0,0,0-2.1-3.3,56.23,56.23,0,0,0,13.38-20.09H725v-3.66h13.86l.72-.18,2,1.38a65.74,65.74,0,0,1-6.78,14.58c.54.47,1.26,1.31,2.1,2.21a50,50,0,0,0,4.2-5.21Zm-9.3-16a57.46,57.46,0,0,0-4.44-8l3.06-1.5a65.9,65.9,0,0,1,4.56,7.74Zm19.44,8.09c-3.42,1.87-7,3.67-10.08,5.29l-1.62-2.83c2.82-1.13,6.84-3,11-5Zm6.78,7.56c-.66,1.5-1.26,3.07-1.92,4.38H775.4V2033h-3.78v-2.7H749.18v3.06h-3.66v-24.9h8.82a44.29,44.29,0,0,0,1.74-4.38,31.83,31.83,0,0,1-6.54.36,20.35,20.35,0,0,0-.9-3.12c2.58.07,4.8.07,5.46.07s.9-.24.9-.91v-16.07H742.82v-3.3h15.6v19.44c0,1.55-.24,2.46-1.08,3Zm-13.5-18.41a42.26,42.26,0,0,1,4.8,5.46l-2.34,1.92a43,43,0,0,0-4.8-5.82Zm24.72,26.15H749.18v6.06h22.44Zm0,15.3v-6.3H749.18v6.3Zm-11-28.43c2.76-1.21,6.72-3.18,10.8-5.22l.84,2.51c-3.48,1.92-7,3.91-10,5.58Zm16.2,2.09c0,2-.36,2.88-1.74,3.42s-3.78.54-7.2.54a17.58,17.58,0,0,0-1-3.18,52.83,52.83,0,0,0,5.52.06c.72-.06.9-.23.9-.84v-16.25H761v-3.3h15.84Zm-9.36-7.73a41,41,0,0,0-5-5.82l2.34-1.5a33.93,33.93,0,0,1,4.92,5.52Z"/><path d="M811.22,2008.44s0,1.08-.06,1.56c-.54,14.22-1.08,19.32-2.4,20.94a4,4,0,0,1-3.18,1.5c-1.08.06-3.24.06-5.28,0a7.8,7.8,0,0,0-1-3.3,45.41,45.41,0,0,0,4.92.24,1.74,1.74,0,0,0,1.62-.6c1-1.14,1.5-5.4,1.92-17.1h-16a31.7,31.7,0,0,1-3.3,4.32h2v6.42h3.9c.06-.72.12-1.44.12-2.1v-7.38h2.94v7.38c0,.66-.06,1.38-.12,2.1h4.32v-6.54h2.64v9.3H796.7c-1.08,3.06-3.66,6.12-9.18,8.28a14.62,14.62,0,0,0-1.8-2.22c4.62-1.5,6.84-3.72,7.92-6.06h-5.7v-8.58c-.42.42-.84.9-1.32,1.32a10.27,10.27,0,0,0-2.52-2.34,30.43,30.43,0,0,0,7.86-11.52,26.13,26.13,0,0,1-4.08,1.92,12.65,12.65,0,0,0-1.8-2.27c4.5-1.33,6.66-3.25,7.68-5.22h-5.58v-7.26a13.12,13.12,0,0,1-1.38,1.31,11.59,11.59,0,0,0-2.46-2.33,28.44,28.44,0,0,0,7.86-11.28l3.54.54a40.75,40.75,0,0,1-1.92,4h17.46s0,1.08-.06,1.62c-.42,12.47-.84,16.8-2,18.3a4,4,0,0,1-2.94,1.38c-1.08,0-3.06,0-4.92-.07a7.29,7.29,0,0,0-.9-3c2,.12,3.78.12,4.44.12s1.14,0,1.5-.54c.78-.89,1.2-4.61,1.56-14.57H791.84a26.56,26.56,0,0,1-2.82,3.6h1.74v5.51h3.78a11.32,11.32,0,0,0,.06-1.43v-6.24h2.94v6.24a11.32,11.32,0,0,1-.06,1.43h4.14v-5.57h2.64v8.22h-7.44a10.92,10.92,0,0,1-3.84,4.92l2.76.35a39.36,39.36,0,0,1-2.1,4.68Zm26.1-5.76a49.27,49.27,0,0,1-7.8,19.56,29.2,29.2,0,0,0,10.5,8.22,18,18,0,0,0-2.52,3.06,31.48,31.48,0,0,1-10.2-8.4,33.84,33.84,0,0,1-10.32,8.34,15.44,15.44,0,0,0-2.28-2.94,29.57,29.57,0,0,0,10.38-8.34,59.73,59.73,0,0,1-7.56-16.68c-.18,8.64-1.2,20-5.52,27.9a14,14,0,0,0-2.94-2c4.56-8.4,5-20,5-28.38v-15.17h9.66v-8.4h3.54v8.4h8.76l.66-.18,2.52.66a109.35,109.35,0,0,1-2.88,10.61l-3.12-.89c.54-1.8,1.14-4.26,1.62-6.66H827.3V2002h7l.66-.12Zm-19.8-11.27V2002h6.24v-10.62Zm3.3,14.09a50.77,50.77,0,0,0,6.48,13.74,44,44,0,0,0,5.82-13.74Z"/><path d="M857.18,1997.17a9.06,9.06,0,1,1-9.06,9A9.09,9.09,0,0,1,857.18,1997.17Zm0,15.23a6.18,6.18,0,1,0,0-12.36,6.18,6.18,0,1,0,0,12.36Z"/><path d="M413.9,2067.67c4.44,10.31,12.24,20,20.76,24.71a23.11,23.11,0,0,0-3.06,3.36c-9-5.58-16.92-16.32-21.6-28.07h-1v22.43h14.28v4H409v11.4H404.9v-11.4H390.68v-4H404.9v-22.43h-1.08c-4.74,11.75-12.66,22.43-21.3,28.25a24.18,24.18,0,0,0-2.88-3.18c8-4.92,15.66-14.76,20.16-25.07H381.14v-4H404.9v-12.72H409v12.72h24v4Z"/><path d="M488.9,2090a33.64,33.64,0,0,1-8.22,7.38c2.4,2.82,5.22,4.44,8.16,4.38,1.68-.06,2.16-1.5,2.46-5.94a10.31,10.31,0,0,0,3.12,1.62c-.6,6.3-2.1,7.92-5.76,8-4.26,0-8.16-2.22-11.28-6a74.41,74.41,0,0,1-13.68,5.82,36.46,36.46,0,0,0-2.1-3.24,65.61,65.61,0,0,0,13.86-5.34,34.94,34.94,0,0,1-3.84-8.82H457.16v4.38l11.16-1-.06,2.88-11.1,1.08v6.12c0,2.1-.48,3.06-2.16,3.54s-4.38.54-8.94.54a19.42,19.42,0,0,0-1.26-3.18c3.36.12,6.48.06,7.38,0s1.2-.24,1.2-1v-5.7c-4.74.48-9.12.9-12.72,1.2l-.42-3.3c3.54-.24,8.1-.54,13.14-1v-4.68h-12.9v-3.18h12.9v-4.44c-3.78.42-7.68.72-11.28.91a12,12,0,0,0-.9-2.71c8.16-.48,18.18-1.55,23.52-2.94l2.52,2.58c-2.82.66-6.36,1.26-10.08,1.74v4.86h13.68a52.67,52.67,0,0,1-1.2-8.94h3.84a57.48,57.48,0,0,0,1.2,8.94h19v3.18H475.58a31.91,31.91,0,0,0,3.12,6.9,27.09,27.09,0,0,0,6.72-5.94Zm4.62-15.17h-53v-3.24H464.9v-4.14H446.3v-3.06h18.6v-4H443.06v-3.18h12.66a30,30,0,0,0-3.48-5.16l3.42-1.26a24.4,24.4,0,0,1,4.32,6.24l-.42.18H474.2a54.7,54.7,0,0,0,3.6-6.6l4.14,1.2c-1.2,1.86-2.52,3.84-3.72,5.4h12.84v3.18H468.92v4h18.9v3.06h-18.9v4.14h24.6Zm-5.7,9a34,34,0,0,0-9.48-5.52l2.16-2.46a38.32,38.32,0,0,1,9.66,5.22Z"/><path d="M529.46,2100.12a70.7,70.7,0,0,0,7.38.36c2.1.06,14.76,0,17.58-.06a16.36,16.36,0,0,0-1.44,3.84H536.72c-12.3,0-19.92-1.92-24.72-10.38a31.55,31.55,0,0,1-9.48,11.7,19.84,19.84,0,0,0-3.06-2.82c6.3-4.14,10.2-10.92,11.82-19.86l4,.6a55.92,55.92,0,0,1-1.5,6.06c2.34,5.64,6.3,8.52,11.7,9.84v-18.54H500.72v-3.6H553.4v3.6H529.46v7.08h20v3.6h-20ZM546.68,2073h-39.6v-19.56h39.6Zm-4-16.44H511v5.16h31.68Zm0,8.1H511v5.27h31.68Z"/><path d="M573.92,2052.13a100.42,100.42,0,0,1-4.14,12.18v41h-3.6v-33.47a60.86,60.86,0,0,1-5,7.8,30.13,30.13,0,0,0-2.16-4c4.86-6,8.94-15.17,11.34-24.47Zm35.28,1.74c-.24,25.43-.54,47.75,2.1,47.75.72,0,1-4.92,1-10.38a12.12,12.12,0,0,0,2.28,2.34c-.36,9-.9,11.7-3.66,11.7-5.88,0-5.22-19.32-5.28-47.93H579.92v13.14c0,9.89-.72,24.77-5.4,35a12.47,12.47,0,0,0-2.88-2c4.44-9.84,4.86-23.46,4.86-33v-16.62Zm-26.64,9.84h20.22V2067h-8.16v6.6h7.62v20.52c0,1.44-.3,2.22-1.2,2.76a9.7,9.7,0,0,1-4.2.54,10.53,10.53,0,0,0-1.08-2.76c1.56.06,2.7.06,3.12.06s.54-.18.54-.6v-17.94h-5.16v28.68h-2.82v-28.68H586v21.48h-2.76V2073.6h7.8V2067h-8.52Z"/><path d="M670.4,2091.78c0,2.58-.6,3.84-2.64,4.5s-5.7.66-11.28.66a14.91,14.91,0,0,0-1.5-3.9c4.56.18,8.64.18,9.9.06,1.08-.06,1.44-.3,1.44-1.38v-24.59H649.16v38.51H644.9v-38.51H628.52v30.11h-4.2v-34.07H644.9v-12.36h4.26v12.36H670.4Z"/><path d="M700.52,2083.56l-3.66,3.12a93.63,93.63,0,0,0-13.32-13.38l3.42-3.11A118.53,118.53,0,0,1,700.52,2083.56Z"/><path d="M763.94,2085.72H739.1v14c0,3-1,4.2-3.06,4.86s-5.94.72-12.3.66a17.27,17.27,0,0,0-1.74-3.9c5.16.12,9.84.06,11.16.06s1.86-.48,1.86-1.74v-13.92H710.18v-3.9H735v-10.19H714.14v-3.84H735v-9.6c-6.66.66-13.56,1.14-19.8,1.44a16.18,16.18,0,0,0-1-3.54c14.16-.72,31.8-2.28,40.74-5.16l2.94,3.24a123.25,123.25,0,0,1-18.78,3.6v10h21.48v3.84H739.1v10.19h24.84Z"/><path d="M792.32,2088.84c0,1.68-.24,2.76-1.32,3.48s-2.64.72-4.92.72a13.71,13.71,0,0,0-1.08-3.6,31.42,31.42,0,0,0,3.48,0c.48,0,.6-.12.6-.6v-23h-5.52v39.71h-3.72v-39.71h-5.22v27.47h-3.24v-31.07h8.46v-11.28h3.72v11.28h8.76ZM821,2061.67v43.43h-3.84v-2.94h-17.1v3.36H796.4v-43.85h7.92a97.58,97.58,0,0,0,2.82-10.92l4,.6c-1,3.48-2,7.26-3,10.32Zm-20.94,3.78v14.45h17.1v-14.45Zm17.1,33V2083.5h-17.1v14.94Z"/><path d="M842.18,2069.17a9.06,9.06,0,1,1-9.06,9A9.09,9.09,0,0,1,842.18,2069.17Zm0,15.23a6.18,6.18,0,1,0,0-12.36,6.18,6.18,0,1,0,0,12.36Z"/><rect class="cls-2" x="1135" y="1423" width="65" height="220" rx="12"/><path class="cls-1" d="M1179.05,1461.79a27.61,27.61,0,0,0,11.5,8.1,11.65,11.65,0,0,0-2.15,2.55,30.77,30.77,0,0,1-12.8-10.65h-15.95a34.39,34.39,0,0,1-13,11.3,11.43,11.43,0,0,0-2.15-2.55,30.39,30.39,0,0,0,11.6-8.75H1145v-2.85h10v-16.15h-7.7V1440h7.7v-5h3.3v5h18.55v-5h3.35v5h7.65v2.8h-7.65v16.15h9.8v2.85Zm-10,14.5h17.3v2.85H1148.8v-2.85h16.9v-5.6h-10.45v-2.8h10.45v-4.4h3.35v4.4h10.65v2.8h-10.65Zm-10.8-33.5v3.6h18.55v-3.6Zm0,9.8h18.55v-3.65h-18.55Zm0,6.35h18.55v-3.8h-18.55Z"/><path class="cls-1" d="M1163.25,1503.54s0,1.15,0,1.55c-.6,15.85-1.2,21.2-2.6,23a3.71,3.71,0,0,1-2.8,1.45,32.65,32.65,0,0,1-4.45,0,9.25,9.25,0,0,0-.85-3c1.75.15,3.2.15,3.9.15a1.42,1.42,0,0,0,1.45-.65c1-1.2,1.6-6,2.15-19.35h-6.8c-.55,10-2,18.25-6.45,23.65a9.53,9.53,0,0,0-2.55-2.35c5.45-6.45,5.9-17.85,6.1-31.55h-5.2v-3.1h20.1v3.1h-11.65c0,2.45-.1,4.85-.2,7.15Zm-7.9-10.45a33.47,33.47,0,0,0-4.25-7.15l2.9-1.15a31.92,31.92,0,0,1,4.4,7Zm23.85-7.45a15.26,15.26,0,0,1-.85,2.55c2.65,5.45,7.7,11.35,12.45,14a13,13,0,0,0-2.45,2.75c-4.25-2.7-8.5-8-11.4-13.3a32.61,32.61,0,0,1-11,13.6,12.79,12.79,0,0,0-2.35-2.65c5.85-3.6,10.35-10.2,12.5-17.85Zm-8.3,32.45a74,74,0,0,1,13.6,8.25l-2.25,2.9c-2.85-2.6-8.75-6.3-13.4-8.65Zm9.5-4.85a66.22,66.22,0,0,0-8.6-6.85l2.15-2.2a67.46,67.46,0,0,1,8.75,6.55Z"/><path class="cls-1" d="M1156.5,1548c-1.6,7.2-4.55,16.15-9.1,21.7a19.23,19.23,0,0,0-3.1-1.8c4.55-5.25,7.3-13.85,8.55-20.55Zm12.9-12.3v40c0,2.55-.7,3.6-2.35,4.2s-4.8.6-9.4.6a15.62,15.62,0,0,0-1.4-3.45c3.7.1,7.3.1,8.25.05s1.45-.35,1.45-1.4v-40ZM1181,1547c4.45,7,8.7,16.1,10,22l-3.45,1.45c-1.25-5.85-5.25-15.15-9.6-22.3Z"/><path class="cls-1" d="M1185.65,1612.74a72.75,72.75,0,0,1-7.65,3.65,19.75,19.75,0,0,0,12.1,9.55,10.66,10.66,0,0,0-2.1,2.6,22.77,22.77,0,0,1-12.5-11.1c-1.1.45-2.15.85-3.2,1.2,1.5,4.4.7,8.7-1.6,10.35a6,6,0,0,1-4.25,1.3c-1,0-2.25,0-3.55-.1a5.77,5.77,0,0,0-.9-2.85,30,30,0,0,0,4,.2,4.12,4.12,0,0,0,2.7-.65c1.35-1,1.9-3.75,1-6.9-5.55,3.7-14.45,7-22,8.45a11,11,0,0,0-1.45-2.4c8-1.1,17.65-4.65,22.65-8.35a13.35,13.35,0,0,0-1.25-2.15,69.47,69.47,0,0,1-17.55,6.35,7.59,7.59,0,0,0-1.4-2.15c5.8-1,13.4-3.4,17.7-5.85-.6-.55-1.25-1.15-2-1.7a80,80,0,0,1-15.25,4.15,16.41,16.41,0,0,0-1.55-2.2c5.7-.75,12.15-2.15,16.75-4.15h-18.55v-2.55h28c.3-.9.55-1.8.9-2.75h-21.7c1.25-2.8,3-7,4-10.25l3,.5a42,42,0,0,0-3.4-3.25l2-1.15h-6.25a29.23,29.23,0,0,1-5.1,5.6,25.27,25.27,0,0,0-2.35-2.2,26.89,26.89,0,0,0,7.5-9.35l3,.85c-.45.9-1,1.75-1.4,2.65h13.45v2.45h-8.3a44.9,44.9,0,0,1,4,3.65l-2.45,1.6a4.8,4.8,0,0,0-.7-.75c-.2.65-.45,1.25-.65,2h17.75l.6-.2,2.25.5c-.8,3.15-1.9,7-3,10.15h12V1610h-20.25c-.6.35-1.2.7-1.85,1a16.36,16.36,0,0,1,4.4,5.35,90.1,90.1,0,0,0,11.6-5.5Zm-10.2-10.3c.35-1.15.65-2.2,1-3.2h-17.7c-.45,1.15-.9,2.2-1.3,3.2Zm14.75-14.3v2.45h-16.6a28.84,28.84,0,0,1-4.55,5.15,15.06,15.06,0,0,0-2.55-2,21.57,21.57,0,0,0,6.7-9.1l3.1.8a26.43,26.43,0,0,1-1.25,2.7Zm-7.9,8a32.47,32.47,0,0,0-3.9-4.25l2.3-1.25a30.14,30.14,0,0,1,4,4Z"/><rect class="cls-2" x="1135" y="427.5" width="65" height="126" rx="12"/><path class="cls-1" d="M1154.7,457.32c1.25,1.6,4.9,6.7,5.7,8.05l-2,2.45c-.7-1.5-2.35-4.4-3.75-6.65v26.35h-3.15V463.07c-1.5,5.05-3.5,9.9-5.55,12.85a14.83,14.83,0,0,0-1.75-3.1c2.9-4,5.8-11.5,7.2-18h-6.2v-3.15h6.3V442h3.15v9.65h5.45v3.15h-5.45Zm19.1.7a19.47,19.47,0,0,0,.45,2.65c-10.15,2.7-11.6,3.15-12.5,3.75a12.13,12.13,0,0,0-1.1-3.2c.7-.2,1.55-.5,1.55-2.2v-16.7h3.25v6.5h8.35v2.9h-8.35V460Zm2.35,5.5-2,3.75h12.65v20.25h-3.4v-1.75h-17v2h-3.3V467.27h7.9c.55-1.5,1.2-3.25,1.55-4.6Zm7.3,6.5h-17v5.05h17Zm0,13v-5.3h-17V483Zm2.25-22.4c1.25,0,1.5-.75,1.65-5.25a9.16,9.16,0,0,0,2.85,1.25c-.3,5.45-1.2,6.95-4.15,6.95h-5.85c-3.65,0-4.55-.95-4.55-4.45V442.37h3.25v6.5h10.2v2.9h-10.2v7.35c0,1.3.25,1.5,1.65,1.5Z"/><path class="cls-1" d="M1189.55,517.37v2.5H1145.4v-2.5h20.25v-3.2H1148.8v-2.3h16.85v-3H1150.2v-2.25h15.45v-3.2H1145.5v-2.5h20.15v-3.05H1150.8v-2.35h14.85V492h3.25v3.55h14.45v5.4h6.15v2.5h-6.15v5.45H1168.9v3h17.3v2.3h-17.3v3.2Zm-37.75,5h31.75v15.25h-3.25V536H1155v1.7h-3.2Zm3.2,2.4V528h25.3v-3.2Zm25.3,8.85v-3.4H1155v3.4Zm-11.4-32.7h11.15v-3.05H1168.9Zm0,5.7h11.15v-3.2H1168.9Z"/><path class="cls-3" d="M1028.64,1333.91a67.6,67.6,0,0,1-6.54,11.22h13.74v-8.22h4v8.22h18.06v19.38c0,2.28-.54,3.36-2.28,4s-5,.66-10.14.66a12.05,12.05,0,0,0-1.38-3.6c4,.12,7.5.06,8.52.06s1.26-.3,1.26-1.2V1349h-14v26.52h-4V1349h-13.32v20.88h-4v-20.16a52.21,52.21,0,0,1-8.94,8.1,25.72,25.72,0,0,0-2.4-3.3c7.32-5,13-12.54,17-20.58h-15.3v-3.84H1026a72.6,72.6,0,0,0,3.3-9.36l4.14,1c-.9,2.82-1.92,5.64-3.06,8.4h30.9v3.84Z"/><path class="cls-3" d="M1082.28,1350.05a49.67,49.67,0,0,1-3.42,13c4,7,11.7,7.92,23.4,8,6.3,0,14.82-.24,20.82-.78a10.54,10.54,0,0,0-1.33,3.78c-5.51.3-13,.42-19.49.42-12.48,0-20.16-1.26-24.84-8.16a27.85,27.85,0,0,1-7.5,9.24,12,12,0,0,0-2.76-2.76c5.4-3.78,9.3-10.62,11.16-20h-5.82a6.33,6.33,0,0,0-3.48.84,19.75,19.75,0,0,0-1.56-3.66,5.53,5.53,0,0,0,2.76-1.74,95.41,95.41,0,0,0,7.14-10.26H1068v-3.3h11.58l.78-.36,2.7,1.14c-2.34,3.6-6.6,10-9.78,14h6.54l.66-.06.18.06Zm-4.92-17.88a86.16,86.16,0,0,0-7-9.66l3-1.68a76.07,76.07,0,0,1,7.14,9.3Zm9.3,17.4h-3.54v-5.88H1100c-.42-.9-.9-1.86-1.26-2.7h-11.34v-16.62h10.74c.66-1.32,1.26-2.76,1.68-3.78l4.14.66c-.66,1.14-1.38,2.16-2,3.12h14.52V1341H1102.8a22.24,22.24,0,0,1,1.32,2.7h16.67v5.58h-3.66v-3.12h-7.67v3c0,1.08.12,1.44,1.26,1.44h5.45a22.71,22.71,0,0,0,3.54-.24,17.07,17.07,0,0,0,.25,2.28,20,20,0,0,1-3.6.18h-7c-2.88,0-3.36-1.2-3.36-3.72v-2.94h-6.72c-1.86,4.32-6,6.3-14,7.68a7,7,0,0,0-1.68-2.28c6.84-.9,10.38-2.46,12.06-5.4h-9Zm11.94,7.86a13.56,13.56,0,0,1-.66,2.22h17.16a6.23,6.23,0,0,1-.24,1.44c-.84,4.14-1.74,6.18-2.94,7.08a5.16,5.16,0,0,1-3.24.9,49.5,49.5,0,0,1-6.3-.18,7.45,7.45,0,0,0-.78-2.58,50.09,50.09,0,0,0,5.82.3,3,3,0,0,0,1.86-.36c.6-.54,1.2-1.74,1.8-4H1096.8c-1.92,3.12-5,5.52-10.26,7a11,11,0,0,0-2-2.7c6.66-1.74,9.42-4.86,10.62-9.12h-10.86v-2.64h16.08c-.48-1.14-1.08-2.46-1.62-3.48l3.24-.72a46,46,0,0,1,2.16,4.2h16v2.64Zm-7.44-28.26h21.42v-2.64h-21.42Zm0,4.8h21.42v-2.64h-21.42Zm0,4.86h21.42v-2.7h-21.42Z"/><path d="M596.51,1043.29a120.48,120.48,0,0,1,7.81,15.1l-2.57-6.09a132.89,132.89,0,0,1,9,33.23l-.91-6.78a184.79,184.79,0,0,1-.38,48.32l.91-6.78c-4.67,34.48-16.44,67.35-25.09,100.9a629.12,629.12,0,0,0-17.1,100.64c-5.94,66.1-.59,133.36,14.73,197.9,8.9,37.49,21.64,73.78,37.11,109,2.4,5.46,9.76,10.21,15.24,11.72,6.11,1.68,14.23.92,19.65-2.57s10.24-8.74,11.72-15.24l.91-6.78A25.32,25.32,0,0,0,664,1603c-1.14-2.59-2.26-5.2-3.37-7.8l2.57,6.09a603.66,603.66,0,0,1-36.37-119.26q-3.35-17.22-5.69-34.61l.92,6.78a598.47,598.47,0,0,1-3.67-123.56q1.3-17.46,3.65-34.83l-.91,6.78q3.63-26.75,9.66-53.08c4.2-18.24,9.5-36.18,14.64-54.18,10.38-36.32,20-74.64,15.83-112.7-2.52-23-8.54-45.19-20.74-65.12a26.55,26.55,0,0,0-15.24-11.71c-6.1-1.69-14.23-.93-19.65,2.57s-10.23,8.73-11.72,15.24-1,13.72,2.58,19.64Z"/><path d="M626.28,1147.2c-17.51,0-35,.15-52.52,1.42-19.14,1.39-38.45,3.81-57.06,8.59a180.11,180.11,0,0,0-23.77,7.83c-9.49,3.92-18.79,8.08-27.5,13.57a155.41,155.41,0,0,0-24.55,19.1c-8.52,8.17-15.85,17.68-22.51,27.39-11,16-20.21,33.43-28.51,51a517.24,517.24,0,0,0-23.68,59,502.25,502.25,0,0,0-23.35,119.75,490.69,490.69,0,0,0,6.58,121.78q1.23,6.93,2.67,13.82c1.26,6,6.53,12.2,11.72,15.24,5.46,3.2,13.52,4.56,19.65,2.57s12.12-5.82,15.23-11.72l2.58-6.09a25.78,25.78,0,0,0,0-13.56q-3.39-16.19-5.59-32.6l.91,6.78a468.09,468.09,0,0,1-2.7-96.92q1-13.7,2.87-27.3l-.91,6.77a474,474,0,0,1,22.94-94.95q4.58-12.93,9.93-25.58l-2.57,6.09q8.37-19.77,18.55-38.7c6.95-12.89,14.36-25.65,23.27-37.29l-4,5.16a127.34,127.34,0,0,1,22.46-22.76l-5.17,4a137.1,137.1,0,0,1,30.2-17.46l-6.09,2.58c17.12-7.19,35.33-11.32,53.69-13.8l-6.77.91c24.51-3.27,49.29-3.66,74-3.6a26.31,26.31,0,0,0,18-7.47c4.43-4.43,7.76-11.68,7.47-18-.29-6.6-2.46-13.44-7.47-18a26.51,26.51,0,0,0-18-7.46Z"/><path d="M645.1,1198.74a132.74,132.74,0,0,1,14.35,1.14l-6.78-.91a141.48,141.48,0,0,1,35.47,9.87l-6.09-2.57a171,171,0,0,1,37.23,22l-5.16-4a204.12,204.12,0,0,1,36.06,36.24l-4-5.16c13.49,17.51,24.13,37.06,32.75,57.37l-2.57-6.09c13.79,32.68,22.32,67.27,29.49,101.92,7.5,36.23,13.62,72.78,23.28,108.52a452.14,452.14,0,0,0,22.84,64.7,28.62,28.62,0,0,0,15.24,11.72c6.11,1.68,14.23.92,19.65-2.57s10.24-8.74,11.72-15.24l.91-6.78A25.32,25.32,0,0,0,896,1556q-1.18-2.68-2.32-5.37l2.57,6.09c-13.42-32-21.78-65.74-28.82-99.6-6.92-33.26-12.63-66.79-20.94-99.75-8.52-33.8-20-67.3-36.82-97.9a259.63,259.63,0,0,0-29.21-42.17c-10.61-12.56-22.69-23.31-35.7-33.3a170.79,170.79,0,0,0-36.72-21.69,188,188,0,0,0-25.49-9.27,177.41,177.41,0,0,0-27-4.66c-3.49-.37-7-.59-10.49-.68a26.1,26.1,0,0,0-18,7.47c-4.42,4.42-7.75,11.68-7.46,18,.29,6.6,2.46,13.44,7.46,18a27,27,0,0,0,18,7.47Z"/><path class="cls-3" d="M132.63,1679.92v3.66h-23.7v20.88h19.62v3.66H108.93v7.67h21.84v3.67H83v-3.67h22v-7.67H85v-3.66h19.92v-20.88H81.09v-3.66h23.82v-6.48c-6.66.48-13.56.84-19.74,1a10.81,10.81,0,0,0-1-3.36c14.4-.48,32.1-1.74,41.88-3.84l2,3.42a166.55,166.55,0,0,1-19.14,2.52v6.78Zm-38.16,5.7V1692h6.78v3.66H94.47v6.42H90.69v-6.42H82.23V1692h8.46v-6.42Zm29.46,6.42h7.56v3.72h-7.56v6.42h-3.84v-6.42H112V1692h8.1v-6.36h3.84Z"/><path class="cls-3" d="M152.79,1676.56v14.28c0,9.3-1.26,22-9.6,30.24a18.62,18.62,0,0,0-3-2.88c5-5,7.14-11.58,8-17.88-2.82,1.68-5.58,3.24-8.1,4.62l-1.5-3.6c2.7-1.2,6.24-3.06,10-5q.18-3,.18-5.58V1673H170c-.54-1.8-1.32-3.9-1.92-5.58l4.2-1a66.46,66.46,0,0,1,2.34,6.54h19.2v3.6Zm-8.46,14a103.38,103.38,0,0,0-4.68-11.22l3.06-1.38a115.64,115.64,0,0,1,4.8,10.86Zm48.12,13a87.51,87.51,0,0,1-11.82,7.8,29,29,0,0,0,14.1,6.48,12.58,12.58,0,0,0-2.4,3.3c-11.4-2.7-18.48-9.18-22.08-19.44h-8.52V1716l11.7-2.94a17.8,17.8,0,0,0,.54,3.29c-13.56,3.72-15.3,4.38-16.38,5.11a13.9,13.9,0,0,0-1.74-3.24,4.33,4.33,0,0,0,2-4v-32.94h29.82v20.52H174a25.63,25.63,0,0,0,4.56,7.5,88.74,88.74,0,0,0,11.16-7.86Zm-30.72-19.14v5.4h22.14v-5.4Zm0,14h22.14v-5.64H161.73Z"/><path class="cls-3" d="M100.59,1333.74A67.6,67.6,0,0,1,94.05,1345h13.74v-8.22h4V1345h18.06v19.38c0,2.28-.54,3.36-2.28,4s-5,.66-10.14.66a12.05,12.05,0,0,0-1.38-3.6c4,.12,7.5.06,8.52.06s1.26-.3,1.26-1.2V1348.8h-14v26.52h-4V1348.8H94.47v20.88h-4v-20.16a52.21,52.21,0,0,1-8.94,8.1,25.72,25.72,0,0,0-2.4-3.3c7.32-5,13-12.54,17-20.58H80.85v-3.84H98a72.6,72.6,0,0,0,3.3-9.36l4.14,1c-.9,2.82-1.92,5.64-3.06,8.4h30.9v3.84Z"/><path class="cls-3" d="M154.23,1349.88a49.67,49.67,0,0,1-3.42,13c4,7,11.7,7.91,23.4,8,6.3,0,14.82-.24,20.82-.78a10.52,10.52,0,0,0-1.32,3.78c-5.52.3-13,.42-19.5.42-12.48,0-20.16-1.26-24.84-8.16a27.85,27.85,0,0,1-7.5,9.24,12,12,0,0,0-2.76-2.76c5.4-3.78,9.3-10.62,11.16-20h-5.82a6.33,6.33,0,0,0-3.48.84,19.75,19.75,0,0,0-1.56-3.66,5.53,5.53,0,0,0,2.76-1.74,95.41,95.41,0,0,0,7.14-10.26H140v-3.3h11.58l.78-.36,2.7,1.14c-2.34,3.6-6.6,10-9.78,14h6.54l.66-.06.18.06ZM149.31,1332a86.16,86.16,0,0,0-7-9.66l3-1.68a76.07,76.07,0,0,1,7.14,9.3Zm9.3,17.4h-3.54v-5.88h16.86c-.42-.9-.9-1.86-1.26-2.7H159.33V1324.2h10.74c.66-1.32,1.26-2.76,1.68-3.78l4.14.66c-.66,1.14-1.38,2.16-2,3.12h14.52v16.62H174.75a22.24,22.24,0,0,1,1.32,2.7h16.68v5.58h-3.66V1346h-7.68v3c0,1.08.12,1.44,1.26,1.44h5.46a22.88,22.88,0,0,0,3.54-.24,15.51,15.51,0,0,0,.24,2.28,20,20,0,0,1-3.6.18h-7c-2.88,0-3.36-1.2-3.36-3.72V1346h-6.72c-1.86,4.32-6,6.3-14,7.68a7,7,0,0,0-1.68-2.28c6.84-.9,10.38-2.46,12.06-5.4h-9Zm11.94,7.86a13.56,13.56,0,0,1-.66,2.22h17.16a6.23,6.23,0,0,1-.24,1.44c-.84,4.14-1.74,6.18-2.94,7.08a5.16,5.16,0,0,1-3.24.9,49.5,49.5,0,0,1-6.3-.18,7.45,7.45,0,0,0-.78-2.58,50.09,50.09,0,0,0,5.82.3,3,3,0,0,0,1.86-.36c.6-.54,1.2-1.74,1.8-4H168.75c-1.92,3.12-5,5.52-10.26,7a10.85,10.85,0,0,0-2-2.7c6.66-1.74,9.42-4.86,10.62-9.12H156.21v-2.64h16.08c-.48-1.14-1.08-2.46-1.62-3.48l3.24-.72a46,46,0,0,1,2.16,4.2h16v2.64ZM163.11,1329h21.42v-2.64H163.11Zm0,4.8h21.42v-2.64H163.11Zm0,4.86h21.42V1336H163.11Z"/><path class="cls-4" d="M239.43,1355.72a438.61,438.61,0,0,1,62.73-11.06q9.4-1,18.84-1.62c1.44-.09,1.45-2.34,0-2.25a472.7,472.7,0,0,0-65.11,8.8q-8.58,1.8-17.06,4a1.13,1.13,0,0,0,.6,2.17Z"/><path class="cls-4" d="M969.12,1349.89A110.14,110.14,0,0,0,902.8,1347a107.94,107.94,0,0,0-17.66,6.47c-1.31.61-.17,2.55,1.14,1.94a107.8,107.8,0,0,1,64.39-8.24,106.33,106.33,0,0,1,17.86,4.89c1.36.5,1.94-1.68.59-2.17Z"/><path class="cls-4" d="M234.34,1703.61c25.06,4.2,50.63,1.44,74.91-5.64,24.62-7.18,48.2-18.35,70.07-31.67a313.75,313.75,0,0,0,58.76-46.43c17.53-17.55,33.32-36.76,48.27-56.52,15.74-20.82,30.55-42.33,45.25-63.9l5.37-7.88c.82-1.2-1.13-2.33-1.94-1.14-14.46,21.25-28.94,42.5-44.2,63.18-14.78,20-30.32,39.56-47.48,57.62a320,320,0,0,1-56.48,47.64,305,305,0,0,1-68.11,33.73c-23.85,8.15-49.2,12.58-74.42,10.1q-4.72-.46-9.4-1.26c-1.42-.23-2,1.93-.6,2.17Z"/></svg>