<svg id="Layer_1" data-name="Layer 1" xmlns="http://www.w3.org/2000/svg" viewBox="0 0 1242 2208"><defs><style>.cls-1{fill:#f6eabe;}.cls-2{fill:#999;}.cls-3,.cls-4{fill:none;}.cls-4{stroke:#000;stroke-linecap:round;stroke-miterlimit:10;stroke-width:50px;}</style></defs><rect class="cls-1" width="1242" height="2208"/><path d="M899,480.78c-58.75,92.11-135,170.71-223.11,237.41,50,85.75,112,137.36,181,137.36,34.14,0,46.85-33.35,54.79-141.33,13.49,11.11,34.93,23,51.61,27-14.3,133.39-38.12,169.92-108,169.92-92.1,0-168.32-61.93-226.28-159.6C534.54,814.26,428.94,865.08,317,904c-7.15-13.5-24.62-37.32-35.73-50,117.51-35.73,227.08-86.55,322.36-150.86-34.94-74.63-62.73-165.94-79.4-264.4L260.61,460.93l-5.55-51.61,261.22-21.43a1571.94,1571.94,0,0,1-15.09-196.12h58a1631.13,1631.13,0,0,0,13.49,191.35l379.53-31,4.76,50L580.59,433.94c15.88,89.72,39.7,169.12,70.67,235,78.6-61.14,145.3-131.8,196.91-213.58Zm-73-147.68c-36.53-30.17-109.57-71.46-168.33-97.66l34.14-34.94c57.17,23,131.8,62.73,169.12,92.11Z"/><rect class="cls-2" x="1114" y="477" width="65" height="126" rx="12"/><path class="cls-1" d="M1133.7,506.82c1.25,1.6,4.9,6.7,5.7,8.05l-2,2.45c-.7-1.5-2.35-4.4-3.75-6.65V537h-3.15V512.57c-1.5,5-3.5,9.9-5.55,12.85a14.83,14.83,0,0,0-1.75-3.1c2.9-4,5.8-11.5,7.2-18h-6.2v-3.15h6.3v-9.65h3.15v9.65h5.45v3.15h-5.45Zm19.1.7a19.47,19.47,0,0,0,.45,2.65c-10.15,2.7-11.6,3.15-12.5,3.75a12.13,12.13,0,0,0-1.1-3.2c.7-.2,1.55-.5,1.55-2.2v-16.7h3.25v6.5h8.35v2.9h-8.35v8.3Zm2.35,5.5-2,3.75h12.65V537h-3.4v-1.75h-17v2h-3.3V516.77h7.9c.55-1.5,1.2-3.25,1.55-4.6Zm7.3,6.5h-17v5.05h17Zm0,13v-5.3h-17v5.3Zm2.25-22.4c1.25,0,1.5-.75,1.65-5.25a9.16,9.16,0,0,0,2.85,1.25c-.3,5.45-1.2,7-4.15,7h-5.85c-3.65,0-4.55-1-4.55-4.45V491.87h3.25v6.5h10.2v2.9h-10.2v7.35c0,1.3.25,1.5,1.65,1.5Z"/><path class="cls-1" d="M1168.55,566.87v2.5H1124.4v-2.5h20.25v-3.2H1127.8v-2.3h16.85v-3H1129.2v-2.25h15.45v-3.2H1124.5v-2.5h20.15v-3H1129.8V545h14.85v-3.55h3.25V545h14.45v5.4h6.15v2.5h-6.15v5.45H1147.9v3h17.3v2.3h-17.3v3.2Zm-37.75,5h31.75v15.25h-3.25v-1.6H1134v1.7h-3.2Zm3.2,2.4v3.2h25.3v-3.2Zm25.3,8.85v-3.4H1134v3.4Zm-11.4-32.7h11.15v-3H1147.9Zm0,5.7h11.15v-3.2H1147.9Z"/><path d="M384.92,1906.69a98.85,98.85,0,0,1-6.18,13.56v39.59H374.9v-33.35a61.73,61.73,0,0,1-5.46,7,32.86,32.86,0,0,0-2.28-3.9c5.58-5.87,10.8-14.87,14-24Zm34.14,28c-2.1,1.26-4.44,2.64-6.84,3.78,2,6.06,5.82,11.82,10.38,14.52a11.2,11.2,0,0,0-2.64,2.94c-4.62-3.18-8.46-9.42-10.68-16a27.45,27.45,0,0,1-2.76,1.2c2.58,6.84,1.86,14-1,16.68a6.91,6.91,0,0,1-5.22,1.92c-1.08,0-2.4-.06-3.78-.18a9.31,9.31,0,0,0-1-3.42,38.26,38.26,0,0,0,4.14.24,3.66,3.66,0,0,0,3.12-1.14c1.56-1.38,2.22-5.16,1.44-9.36-5.16,4.92-13.08,9.36-19.8,11.7a15.8,15.8,0,0,0-2.34-2.82c7.62-2.28,16.62-7.14,21.3-12.24a35.76,35.76,0,0,0-1.5-3.48,63.52,63.52,0,0,1-17.22,9.9,16.14,16.14,0,0,0-2.22-2.64c5.94-1.8,13.74-5.76,17.88-9.54a16.39,16.39,0,0,0-2.94-3.18,58.44,58.44,0,0,1-13.56,7.26,11.26,11.26,0,0,0-2.22-2.58,52.48,52.48,0,0,0,15.06-7.56H386.48v-9.35c-1.14,1-2.28,2-3.54,2.94a9.54,9.54,0,0,0-2.52-2.59,44.59,44.59,0,0,0,13.86-16.25l3.84.72c-.6,1.2-1.32,2.34-2,3.54h11.1l.72-.18,2.34,1.68a52.13,52.13,0,0,1-4.8,6.84h13.08v12.65H400.94a15.29,15.29,0,0,1-1.2,1,21,21,0,0,1,5.64,6.84,111.93,111.93,0,0,0,10.92-6.42ZM394,1912.81a54.58,54.58,0,0,1-4.2,5.16h11.58a37.88,37.88,0,0,0,3.72-5.16Zm-3.9,14.69h10.5v-6.42h-10.5Zm24.72-6.42H404.18v6.42H414.8Z"/><path d="M436.7,1924.62c-.72,5.05-2.58,8.82-7.2,11.16a8.49,8.49,0,0,0-2.28-2.57c3.66-1.75,5.16-4.68,5.82-8.59h-4.38v-3.23h14.82v-3.72h-12v-11.34H435v8h8.46v-9h3.84v29.4h-3.84v-10.09Zm41.64,19.2a79.83,79.83,0,0,1-10.8,6.18,41.41,41.41,0,0,0,15.18,6.48,13.85,13.85,0,0,0-2.4,3.18c-11.58-2.88-20.64-9.54-25.62-19.2h-.24a44.67,44.67,0,0,1-9.48,5.76v8.88l14.46-3a29.71,29.71,0,0,0-.18,3.12c-16.32,3.84-18.24,4.32-19.44,5a13.87,13.87,0,0,0-1.68-3.24,4.56,4.56,0,0,0,2.88-4.32v-4.8a72,72,0,0,1-11.16,3.48,15.75,15.75,0,0,0-2.34-2.94c7.44-1.44,15.9-4.38,21.54-8h-20.7v-3.24h25.26a31.46,31.46,0,0,0-2.16-4l3.84-1.09a35,35,0,0,1,2.76,5.1H481.7v3.24H458.6a28.73,28.73,0,0,0,6.3,7.5,82.73,82.73,0,0,0,10.44-6.24Zm-15.24-26.51H450v-3.54H463.1v-8.46h4v8.46H480.8v3.54H467.06v10.31H479.6v3.55H451.28v-3.55H463.1Z"/><path d="M541.76,1953.18v4H488.3v-4h22.62v-46.85h4.14v18.54h22.62v4H515.06v24.3Z"/><path d="M598.88,1940.64a97.41,97.41,0,0,1-13.44,8.1,42.76,42.76,0,0,0,17.64,7.26,14.08,14.08,0,0,0-2.46,3.48c-13.74-3-23.34-10.38-28.56-21.72h-9.78v16.62l16.8-4.08c-.12,1-.18,2.64-.18,3.48-17,4.44-20,5.22-21.3,6l-.3.18a16.11,16.11,0,0,0-1.86-3.84,4.87,4.87,0,0,0,2.94-4.26v-14.1h-10v-3.66H559v-26.33h36.9v3.42H563.06v5.52H594V1920h-30.9v5.34H594v3.3h-30.9v5.46h38.58v3.66H576.08a30.21,30.21,0,0,0,6.72,8.82,90.28,90.28,0,0,0,12.78-8.1Z"/><path d="M620.48,1923.12c1.62,2.22,6.78,10,7.92,11.94l-2.4,2.82c-1-2.16-3.54-6.71-5.52-10v32h-3.72v-29.15c-1.92,6.47-4.44,12.83-7.08,16.73a15.21,15.21,0,0,0-2.1-3.72c3.6-5,7.32-14.81,9-23.09H609v-3.78h7.8v-11.58h3.72v11.58h6.42v3.78h-6.42Zm26.64-10.55v8.34h13.74v34.37c0,2.4-.48,3.54-2.1,4.2s-4.5.66-8.82.66a13.16,13.16,0,0,0-1.2-3.78c3.3.12,6.3.12,7.14.06s1.14-.3,1.14-1.2V1924.5H646.94v1.62a27.14,27.14,0,0,1-.24,3.42c3.54,5.1,7.74,11.58,9.78,15.42l-3.06,1.92a137.82,137.82,0,0,0-7.68-12.9,27.77,27.77,0,0,1-8.4,13.68,17.59,17.59,0,0,0-2.82-2.4c7.86-6.3,8.82-15.12,8.82-19.19v-1.57H633.8v35.76h-3.72v-39.35h13.26v-8.34H628.7v-3.72h32.94v3.72Z"/><path d="M684,1906c-1,2.94-2.1,6.3-3.18,8.88H691v38.75h-16.8v4.8h-3.66v-43.55h6.66a64.68,64.68,0,0,0,2.58-9.72Zm3.3,12.47H674.18v13.08h13.14Zm0,31.56v-14.88H674.18v14.88Zm33.06-33.17c-1,27.53-1.8,36.71-4.2,39.59a5.6,5.6,0,0,1-4.56,2.28,74.94,74.94,0,0,1-8.82-.12,9.42,9.42,0,0,0-1.32-3.9c3.9.36,7.5.36,8.82.36s1.92-.12,2.52-.9c2-2.1,2.94-11.34,3.72-35.7H700.82a55.33,55.33,0,0,1-5.64,10.68,36.22,36.22,0,0,0-3.36-2.22c4.08-5.34,7.32-13.61,9.18-21.89l3.84.84c-.78,3-1.62,6-2.64,8.88h18.18Zm-12.78,27a106.51,106.51,0,0,0-9.3-13.92l3.06-1.79a102.47,102.47,0,0,1,9.6,13.61Z"/><path d="M754,1908.49H739.22v35.15h-4v-38.87H754Z"/><path d="M807.14,1927.38a69.44,69.44,0,0,1-16.86,17.94c3.78,6.48,8.46,10.38,13.68,10.38,2.58,0,3.54-2.52,4.14-10.68a11.06,11.06,0,0,0,3.9,2c-1.08,10.08-2.88,12.84-8.16,12.84-7,0-12.72-4.68-17.1-12.06a104.91,104.91,0,0,1-23.58,11.52,25.82,25.82,0,0,0-2.7-3.78,90.84,90.84,0,0,0,24.36-11.4,79.08,79.08,0,0,1-6-20l-19.92,1.67-.42-3.89,19.74-1.62a118.64,118.64,0,0,1-1.14-14.82h4.38a123,123,0,0,0,1,14.45l28.68-2.33.36,3.78-28.44,2.39a71.28,71.28,0,0,0,5.34,17.76,63.29,63.29,0,0,0,14.88-16.14Zm-5.52-11.15a65.3,65.3,0,0,0-12.72-7.38l2.58-2.64a62,62,0,0,1,12.78,7Z"/><path d="M816,1956.84h14.82v-35.15h4v38.87H816Z"/><path d="M853.88,1941c4.68-2,7.26-4.86,7.56-9.17a4,4,0,0,1-1.14.11c-2.34,0-4.26-1.32-4.26-4.07a4,4,0,0,1,4.32-4.08c3.18,0,4.86,2.58,4.86,6.66,0,6.41-4,11.21-10.08,13.43Z"/><path d="M337.46,2026.62a70.7,70.7,0,0,0,7.38.36c2.1.06,14.76,0,17.58-.06a16.36,16.36,0,0,0-1.44,3.84H344.72c-12.3,0-19.92-1.92-24.72-10.38a31.55,31.55,0,0,1-9.48,11.7,19.84,19.84,0,0,0-3.06-2.82c6.3-4.14,10.2-10.92,11.82-19.86l4,.6a55.92,55.92,0,0,1-1.5,6.06c2.34,5.64,6.3,8.52,11.7,9.84v-18.54H308.72v-3.6H361.4v3.6H337.46v7.08h20v3.6h-20Zm17.22-27.17h-39.6v-19.56h39.6Zm-4-16.44H319v5.16h31.68Zm0,8.1H319v5.27h31.68Z"/><path d="M397.1,1992.12v13.32h18.12v26.4H411v-3H379.1v3.24H375v-26.64H392.9v-13.32H368.48v-3.89H392.9v-10.92h4.2v10.92h24.6v3.89Zm13.86,17.1H379.1V2025H411Z"/><path d="M447.92,1979.17a83.4,83.4,0,0,1-6.6,12.3v40.37h-4v-34.67a66.33,66.33,0,0,1-8.4,9.17,25.86,25.86,0,0,0-2.34-3.78A67.69,67.69,0,0,0,444.2,1978Zm15.72,20.16c2.16,16.25,6.24,27.41,13,28,1.68.12,2.76-3.48,3.42-10.5a13,13,0,0,0,3.3,2c-1.26,10.08-3.48,13.26-6.6,13.14-9.9-.72-14.58-13.38-16.92-32.21l-14.88,1.92-.6-3.79,15-1.85c-.54-5.53-1-11.52-1.26-17.82h4c.18,6.12.6,12,1.14,17.33l18.18-2.21.6,3.66Zm14.1-8.76a64.7,64.7,0,0,0-10-9.9l2.88-1.86a68.6,68.6,0,0,1,10.14,9.54Z"/><path d="M504,1978c-1,2.94-2.1,6.3-3.18,8.88H511v38.75h-16.8v4.8h-3.66v-43.55h6.66a64.68,64.68,0,0,0,2.58-9.72Zm3.3,12.47H494.18v13.08h13.14Zm0,31.56v-14.88H494.18v14.88Zm33.06-33.17c-1,27.53-1.8,36.71-4.2,39.59a5.6,5.6,0,0,1-4.56,2.28,74.94,74.94,0,0,1-8.82-.12,9.42,9.42,0,0,0-1.32-3.9c3.9.36,7.5.36,8.82.36s1.92-.12,2.52-.9c2-2.1,2.94-11.34,3.72-35.7H520.82a55.33,55.33,0,0,1-5.64,10.68,36.22,36.22,0,0,0-3.36-2.22c4.08-5.34,7.32-13.61,9.18-21.89l3.84.84c-.78,3-1.62,6-2.64,8.88h18.18Zm-12.78,27a106.51,106.51,0,0,0-9.3-13.92l3.06-1.79a102.47,102.47,0,0,1,9.6,13.61Z"/><path d="M602.36,2001.91v4.31H547.88v-4.31Z"/><path d="M662.66,2027.34v3.36H627v-3.36h16.68v-5H630.38v-3.24h13.26v-4.62H631.1v-19h12.54v-4.32H628.46v-3.3h15.18v-4.38c-4.44.36-8.94.6-13.08.72a10.47,10.47,0,0,0-.84-2.88,56.71,56.71,0,0,1-7.74,2.4v10.44h7.8v3.71H622v4c1.8,1.57,7.08,7,8.28,8.4l-2.4,3.12a90.6,90.6,0,0,0-5.88-7.68v26.16H618.2v-27.47c-2.52,6.3-5.88,12.65-9.12,16.43a18.74,18.74,0,0,0-2-3.54c3.84-4.32,8.16-12.3,10.56-19.38h-9.42v-3.71h10v-9.6c-3.06.6-6.18,1.14-9.06,1.62a17,17,0,0,0-1.26-3.12c6.72-1.14,14.7-2.82,19.08-4.8l2.76,3-.06-.12c10-.42,22.56-1.44,29.28-3l2.46,3a129.87,129.87,0,0,1-13.92,2v4.68h14v3.3h-14v4.32h12.78v19H647.48v4.62h13.14v3.24H647.48v5Zm-28-23.76h9v-5h-9Zm9,7.8v-5.09h-9v5.09Zm3.84-12.84v5h9.18v-5Zm9.18,7.75h-9.18v5.09h9.18Z"/><path d="M685.7,2011.92c-.9-1.92-3.24-5.88-5.1-8.88v28.8h-3.66v-29.16c-2,7.14-4.86,14-7.68,18.3a24,24,0,0,0-2.28-4c3.72-5,7.5-14.75,9.3-23h-8.1v-3.77h8.76v-12.84h3.66v12.84h7.26v3.77H680.6v4.2c1.68,2.17,6.3,8.76,7.38,10.32ZM700.82,2024a50.05,50.05,0,0,1-13.74,8.22c-.54-.84-1.62-2-2.34-2.94,4.5-1.68,10-4.8,12.6-7.44Zm21.54-24.24H686.42v-3.23h36Zm-27.3-13.61h-7.8v-3.12h7.8v-4.8h3.6v4.8h11v-4.8h3.72v4.8h8v3.12h-8V1994h-18.3ZM689.54,2021v-17.87h29.64V2021Zm3.6-10.32h9.06v-4.55h-9.06Zm0,7.32h9.06v-4.62h-9.06Zm5.52-31.85v5h11v-5Zm16.8,20h-9.54v4.55h9.54Zm0,7.25h-9.54V2018h9.54Zm-4.32,8.46a88.84,88.84,0,0,1,11.64,7.74l-3.18,2.58a84.32,84.32,0,0,0-11-7.86Z"/><path d="M777.38,1983.85s0,1.74-.06,2.28c-1,29.51-1.8,39.65-4.26,42.71a6.28,6.28,0,0,1-4.92,2.46,75.54,75.54,0,0,1-9.48-.18,8.92,8.92,0,0,0-1.38-4.2c4.2.36,8,.42,9.42.42a2.91,2.91,0,0,0,2.64-1c2.1-2.22,3.06-12.18,3.84-38.57H756.32c-1.14,12.42-3.9,34.13-25.14,44.21a11.71,11.71,0,0,0-3-3.24,36.24,36.24,0,0,0,18.6-18.24c-3.42-3.42-9.36-8.4-13.86-12.11l2.46-2.64c4.14,3.3,9.54,7.56,13,10.73,2.52-6.84,3.12-13.73,3.54-18.71H730.76v-3.9Z"/><path d="M841.94,2011.8v3.84h-53.7v-3.84h10.38v-30.59c11.88-.66,26.34-1.86,34.62-3.6l2.16,3.6c-8.52,1.68-21.48,2.88-32.76,3.36v8.93h35.94v3.79H827.66v14.51ZM809.66,2020a94.94,94.94,0,0,1-18.24,12,31.38,31.38,0,0,0-2.82-2.88c6.06-2.88,13.38-7.56,17.28-11.46Zm-7-8.16h20.94v-14.51H802.64Zm20.7,5.82a141.67,141.67,0,0,1,17.4,11.1l-3.06,3a143.48,143.48,0,0,0-17.28-11.52Z"/><path d="M899.24,2017.8c-.84-.78-1.74-1.56-2.82-2.4v16.14H892.7V2030H881.36v1.92h-3.54v-18.48h15.84a99.34,99.34,0,0,0-13.56-7.74H868.64a46.61,46.61,0,0,1-9.54,7.74H872v18.12h-3.66V2030h-10.8v1.92h-3.6v-15.6c-1.5.72-3.06,1.44-4.68,2a11,11,0,0,0-2.28-3,49.66,49.66,0,0,0,16.56-9.66H848.36v-3.47H866.9a27.86,27.86,0,0,0,4-5.83H852.8v-16.31h18.54v15.35l.06-.11,4,.77a39.82,39.82,0,0,1-3.78,6.13h17.94a39.91,39.91,0,0,0-7.56-3.84l1.92-2H878.3v-16.31h19v16.31H884.12a33.13,33.13,0,0,1,8.46,4.33l-1.32,1.5H901.7v3.47H887.12a78.76,78.76,0,0,1,15,9.72Zm-31.62-34.43H856.34V1993h11.28Zm.72,33.41h-10.8v9.84h10.8Zm24.36,9.84v-9.84H881.36v9.84ZM881.84,1993H893.6v-9.66H881.84Z"/><path d="M920.18,1995.67a9.06,9.06,0,1,1-9.06,9A9.09,9.09,0,0,1,920.18,1995.67Zm0,15.23a6.18,6.18,0,1,0,0-12.36,6.18,6.18,0,1,0,0,12.36Z"/><line class="cls-3" x1="621" y1="351" x2="621" y2="351"/><rect class="cls-2" x="1115" y="1302" width="65" height="220" rx="12"/><path class="cls-1" d="M1159.05,1340.79a27.61,27.61,0,0,0,11.5,8.1,11.65,11.65,0,0,0-2.15,2.55,30.77,30.77,0,0,1-12.8-10.65h-15.95a34.39,34.39,0,0,1-13,11.3,11.43,11.43,0,0,0-2.15-2.55,30.39,30.39,0,0,0,11.6-8.75H1125v-2.85h10v-16.15h-7.7V1319h7.7v-5h3.3v5h18.55v-5h3.35v5h7.65v2.8h-7.65v16.15h9.8v2.85Zm-10,14.5h17.3v2.85H1128.8v-2.85h16.9v-5.6h-10.45v-2.8h10.45v-4.4h3.35v4.4h10.65v2.8h-10.65Zm-10.8-33.5v3.6h18.55v-3.6Zm0,9.8h18.55v-3.65h-18.55Zm0,6.35h18.55v-3.8h-18.55Z"/><path class="cls-1" d="M1143.25,1382.54s0,1.15,0,1.55c-.6,15.85-1.2,21.2-2.6,23a3.71,3.71,0,0,1-2.8,1.45,32.65,32.65,0,0,1-4.45,0,9.25,9.25,0,0,0-.85-3c1.75.15,3.2.15,3.9.15a1.42,1.42,0,0,0,1.45-.65c1-1.2,1.6-6,2.15-19.35h-6.8c-.55,10-2,18.25-6.45,23.65a9.53,9.53,0,0,0-2.55-2.35c5.45-6.45,5.9-17.85,6.1-31.55h-5.2v-3.1h20.1v3.1h-11.65c0,2.45-.1,4.85-.2,7.15Zm-7.9-10.45a33.47,33.47,0,0,0-4.25-7.15l2.9-1.15a31.92,31.92,0,0,1,4.4,7Zm23.85-7.45a15.26,15.26,0,0,1-.85,2.55c2.65,5.45,7.7,11.35,12.45,14a13,13,0,0,0-2.45,2.75c-4.25-2.7-8.5-8-11.4-13.3a32.61,32.61,0,0,1-11,13.6,12.79,12.79,0,0,0-2.35-2.65c5.85-3.6,10.35-10.2,12.5-17.85Zm-8.3,32.45a74,74,0,0,1,13.6,8.25l-2.25,2.9c-2.85-2.6-8.75-6.3-13.4-8.65Zm9.5-4.85a66.22,66.22,0,0,0-8.6-6.85l2.15-2.2a67.46,67.46,0,0,1,8.75,6.55Z"/><path class="cls-1" d="M1150.6,1414.94c-.35.6-.8,1.15-1.2,1.75,4.95,5.5,13.85,10.9,21.4,13.3a16.56,16.56,0,0,0-2.35,2.9,60.7,60.7,0,0,1-21-13.9,48.65,48.65,0,0,1-12.4,10h25.1v3.1h-11.1v7.05h17.75v3H1149.1v12.7H1169v3.1h-43v-3.1h19.55v-12.7h-17.35v-3h17.35v-7.05h-10.9v-2.9a58.72,58.72,0,0,1-8.25,3.85,11.79,11.79,0,0,0-2.25-3c9.35-3.1,18.55-9.1,23.3-16.5Zm-15.25,28.65a42.46,42.46,0,0,1,4.8,9.1l-2.9,1.2a40.78,40.78,0,0,0-4.65-9.2Zm18.55,9.3a71.79,71.79,0,0,0,5.35-9.35l3.15,1.25a101.62,101.62,0,0,1-6,9.2Z"/><path class="cls-1" d="M1162,1476.09a51.83,51.83,0,0,1-12,19.6,49.94,49.94,0,0,0,20.5,10.5,16.79,16.79,0,0,0-2.25,3,50.92,50.92,0,0,1-20.75-11.1c-5.65,5-12.55,8.6-21,11.3a15.53,15.53,0,0,0-2-3.05c8.35-2.45,15.1-5.9,20.6-10.6a57.05,57.05,0,0,1-12.2-19.65h-7.75v-3.25h44.75v3.25Zm-25.75,0a52.13,52.13,0,0,0,11.3,17.3,47.46,47.46,0,0,0,10.7-17.3Zm11.25-3.55a38.13,38.13,0,0,0-3.8-7.8l3.4-1a39,39,0,0,1,4,7.65Z"/><line class="cls-4" x1="761.6" y1="1158" x2="761.6" y2="1738"/><path class="cls-4" d="M765.16,1214.92c27-6.11,49-26.78,62.33-51s19.15-51.84,23.22-79.21"/><line class="cls-4" x1="685.6" y1="1692" x2="836.6" y2="1692"/><path d="M754.87,1240.91a715.72,715.72,0,0,0-80.21-22,619.62,619.62,0,0,0-89.5-12.64,511.93,511.93,0,0,0-70.17.61c-25.47,1.9-51.15,5.39-75.8,12.23a260.1,260.1,0,0,0-37.76,13.92,149,149,0,0,0-28.19,16.5c-3.74,2.82-7.47,5.66-11,8.7a28.44,28.44,0,0,0-7.47,18c0,6.26,2.78,13.73,7.47,18,4.86,4.46,11.24,7.78,18,7.47l6.78-.91a25.45,25.45,0,0,0,11.25-6.56q2.3-1.95,4.68-3.79l-5.16,4a154.33,154.33,0,0,1,34-19.43l-6.09,2.57c17.41-7.32,35.78-12.16,54.34-15.49,5.39-1,10.8-1.8,16.23-2.53l-6.78.91a493.25,493.25,0,0,1,98.9-3c10.87.77,21.72,1.91,32.52,3.35l-6.78-.91a674.74,674.74,0,0,1,100.49,21.71q13.44,4,26.72,8.44a19.34,19.34,0,0,0,10.17.45,19,19,0,0,0,9.48-3c5.29-3.1,10.33-9.16,11.71-15.24,1.49-6.53,1.17-13.86-2.57-19.65l-4-5.16a25.48,25.48,0,0,0-11.26-6.56Z"/><path d="M366.42,1299.62c17.15,11.85,36.09,20.74,55.56,28a346.93,346.93,0,0,0,54.1,15c9.32,1.85,18.69,3.42,28.09,4.78,9.08,1.31,18.14,2.58,27.29,3.16,13.71.87,27.46.74,41.18.82,15.85.1,31.76.39,47.49,2.5l-6.78-.91a133,133,0,0,1,33.71,8.68l-6.1-2.57a86.17,86.17,0,0,1,19,11l-5.16-4a79,79,0,0,1,13.73,13.8l-4-5.16c7.89,10.29,12.5,22.44,19.25,33.42,4.28,7,9.36,14,15.8,19.11a84.52,84.52,0,0,0,13.49,9.08,170.3,170.3,0,0,0,16.57,7.53,55.71,55.71,0,0,0,12.72,3.51,78.8,78.8,0,0,0,12.35,1.24,77.42,77.42,0,0,0,13.15-1.57,28.52,28.52,0,0,0,15.24-11.72,18.9,18.9,0,0,0,3-9.48,19.24,19.24,0,0,0-.46-10.17c-2-6.17-5.82-12.12-11.71-15.24l-6.1-2.57a25.74,25.74,0,0,0-13.55,0c-.68.13-1.35.24-2,.34l6.78-.91a39.68,39.68,0,0,1-9.92,0l6.78.91a56.71,56.71,0,0,1-14-4l6.09,2.57c-5.94-2.53-12.18-5.44-17.35-9.37l5.16,4a45.33,45.33,0,0,1-7.76-7.9l4,5.16c-5.14-6.71-8.82-14.36-12.68-21.84a138.22,138.22,0,0,0-16.34-24.89c-5.79-7-12.89-12.82-20.33-18S667,1315,658.48,1311.63c-15.24-6-31.84-8.35-48.06-9.81-15-1.36-30.14-1.38-45.22-1.44-15.9-.06-31.91,0-47.71-2.13l6.78.91c-26.22-3.55-52.37-8.49-77.55-16.76q-10.62-3.48-20.94-7.8l6.09,2.57a221,221,0,0,1-39.7-21.59,19,19,0,0,0-9.49-3,19.3,19.3,0,0,0-10.16.45c-5.92,1.63-12.33,6.21-15.24,11.72-3.13,5.92-4.7,13.09-2.57,19.65l2.57,6.09a25.53,25.53,0,0,0,9.14,9.15Z"/><line class="cls-4" x1="763.1" y1="1269.5" x2="847.6" y2="1292"/><line class="cls-4" x1="763.1" y1="1345.5" x2="847.6" y2="1368"/><path class="cls-4" d="M849.6,1369"/><line class="cls-4" x1="847.6" y1="1368" x2="847.6" y2="1292"/></svg>