<svg id="Layer_1" data-name="Layer 1" xmlns="http://www.w3.org/2000/svg" viewBox="0 0 1242 2208"><defs><style>.cls-1{fill:#f6eabe;}.cls-2{fill:#999;}.cls-3,.cls-4{fill:none;}.cls-4{stroke:#000;stroke-linecap:round;stroke-miterlimit:10;stroke-width:50px;}</style></defs><rect class="cls-1" width="1242" height="2208"/><path d="M920.42,422.52C881.52,525,830.7,613.87,766.39,689.3c28.58,74.64,65.9,121.48,115.92,127.83,21.44,3.18,33.35-48.43,41.29-135.77,11.11,10.32,30.17,21.44,42.87,27-11.91,127-40.49,176.26-97.66,160.38-62.72-10.32-108-59.54-141.33-136.56A784.07,784.07,0,0,1,536.13,878.27C529,867.16,510.72,844.92,498,834.6A731.28,731.28,0,0,0,708.43,678.19c-28.59-89.72-45.26-204.85-55.58-335.86H370.19V478.9L390,460.63c71.45,42.88,154.82,108,194.52,154.83l-38.9,37.32C510.72,608.32,436.09,548,370.19,503.51c-.8,111.16-13.5,266-85.76,370-8.73-9.53-30.17-27-42.08-34.14,68.29-99.25,76.23-239,76.23-343V291.51h330.3c-3.18-46-5.56-93.69-7.94-141.33h53.19c1.59,47.64,3.18,95.28,6.36,141.33H953.77v50.82H704.46c8.73,109.57,22.23,209.61,43.66,289,50.82-65.9,91.31-139.74,120.69-223.11ZM881.52,278c-29.38-26.21-89.73-65.11-137.36-90.52l31.75-31.76c47.64,23.82,108,61.14,138.16,87.34Z"/><rect class="cls-2" x="1114" y="437" width="65" height="126" rx="12"/><path class="cls-1" d="M1133.7,466.82c1.25,1.6,4.9,6.7,5.7,8.05l-2,2.45c-.7-1.5-2.35-4.4-3.75-6.65V497h-3.15V472.57c-1.5,5.05-3.5,9.9-5.55,12.85a14.83,14.83,0,0,0-1.75-3.1c2.9-4,5.8-11.5,7.2-18h-6.2v-3.15h6.3v-9.65h3.15v9.65h5.45v3.15h-5.45Zm19.1.7a19.47,19.47,0,0,0,.45,2.65c-10.15,2.7-11.6,3.15-12.5,3.75a12.13,12.13,0,0,0-1.1-3.2c.7-.2,1.55-.5,1.55-2.2v-16.7h3.25v6.5h8.35v2.9h-8.35v8.3Zm2.35,5.5-2,3.75h12.65V497h-3.4v-1.75h-17v2h-3.3V476.77h7.9c.55-1.5,1.2-3.25,1.55-4.6Zm7.3,6.5h-17v5.05h17Zm0,13v-5.3h-17v5.3Zm2.25-22.4c1.25,0,1.5-.75,1.65-5.25a9.16,9.16,0,0,0,2.85,1.25c-.3,5.45-1.2,6.95-4.15,6.95h-5.85c-3.65,0-4.55-.95-4.55-4.45V451.87h3.25v6.5h10.2v2.9h-10.2v7.35c0,1.3.25,1.5,1.65,1.5Z"/><path class="cls-1" d="M1168.55,526.87v2.5H1124.4v-2.5h20.25v-3.2H1127.8v-2.3h16.85v-3H1129.2v-2.25h15.45v-3.2H1124.5v-2.5h20.15v-3.05H1129.8V505h14.85v-3.55h3.25V505h14.45v5.4h6.15v2.5h-6.15v5.45H1147.9v3h17.3v2.3h-17.3v3.2Zm-37.75,5h31.75v15.25h-3.25v-1.6H1134v1.7h-3.2Zm3.2,2.4v3.2h25.3v-3.2Zm25.3,8.85v-3.4H1134v3.4Zm-11.4-32.7h11.15v-3.05H1147.9Zm0,5.7h11.15v-3.2H1147.9Z"/><path d="M234.92,1897.69a98.85,98.85,0,0,1-6.18,13.56v39.59H224.9v-33.35a61.73,61.73,0,0,1-5.46,7,32.86,32.86,0,0,0-2.28-3.9c5.58-5.87,10.8-14.87,14-24Zm34.14,28c-2.1,1.26-4.44,2.64-6.84,3.78,2,6.06,5.82,11.82,10.38,14.52a11.2,11.2,0,0,0-2.64,2.94c-4.62-3.18-8.46-9.42-10.68-16a27.45,27.45,0,0,1-2.76,1.2c2.58,6.84,1.86,14-1,16.68a6.91,6.91,0,0,1-5.22,1.92c-1.08,0-2.4-.06-3.78-.18a9.31,9.31,0,0,0-1-3.42,38.26,38.26,0,0,0,4.14.24,3.66,3.66,0,0,0,3.12-1.14c1.56-1.38,2.22-5.16,1.44-9.36-5.16,4.92-13.08,9.36-19.8,11.7a15.8,15.8,0,0,0-2.34-2.82c7.62-2.28,16.62-7.14,21.3-12.24a35.76,35.76,0,0,0-1.5-3.48,63.52,63.52,0,0,1-17.22,9.9,16.14,16.14,0,0,0-2.22-2.64c5.94-1.8,13.74-5.76,17.88-9.54a16.39,16.39,0,0,0-2.94-3.18,58.44,58.44,0,0,1-13.56,7.26,11.26,11.26,0,0,0-2.22-2.58,52.48,52.48,0,0,0,15.06-7.56H236.48v-9.35c-1.14,1-2.28,2-3.54,2.94a9.54,9.54,0,0,0-2.52-2.59,44.59,44.59,0,0,0,13.86-16.25l3.84.72c-.6,1.2-1.32,2.34-2,3.54h11.1l.72-.18,2.34,1.68a52.13,52.13,0,0,1-4.8,6.84h13.08v12.65H250.94a15.29,15.29,0,0,1-1.2,1,21,21,0,0,1,5.64,6.84,111.93,111.93,0,0,0,10.92-6.42ZM244,1903.81a54.58,54.58,0,0,1-4.2,5.16h11.58a37.88,37.88,0,0,0,3.72-5.16Zm-3.9,14.69h10.5v-6.42h-10.5Zm24.72-6.42H254.18v6.42H264.8Z"/><path d="M304,1899.49H289.22v35.15h-4v-38.87H304Z"/><path d="M337.28,1896.55c-.06,2.1-.12,5.1-.42,8.64.9,7,4.56,32.51,25.74,42a12.63,12.63,0,0,0-2.88,3.36c-15.42-7.26-21.72-22.74-24.6-34-2.64,12.23-8.94,26.33-24.06,34.19a13.77,13.77,0,0,0-3.12-3.06c25-12.48,24.78-42.11,25-51.11Z"/><path d="M366,1947.84h14.82v-35.15h4v38.87H366Z"/><path d="M423,1914.91c-8.58,1.55-17.4,3.3-23.82,4.43l-.66-3.42c4.32-.66,10.14-1.67,16.32-2.75V1905H400v-3.3H414.8v-5.34h4v16.26l4-.72Zm20.4,31.55c0,2.28-.6,3.36-2.34,4s-4.86.66-9.6.66a16.27,16.27,0,0,0-1.32-3.6c3.54.12,7,.12,7.92.12s1.26-.36,1.26-1.2v-8c-9.06,1.86-18.78,3.72-25.92,4.92l-1.32-3.54c6.84-1,17.34-2.88,27.24-4.74v-11.21H411.14v7.43c0,6.3-1.2,14.64-7.74,20.16a12.58,12.58,0,0,0-2.88-2.76c5.94-5.1,6.72-11.94,6.72-17.46v-10.79h36.12Zm-29.46-20.21c6.6,1.07,15.18,3.35,19.68,5.45l-1.38,3.12a103.06,103.06,0,0,0-19.8-5.82Zm31.26-12c2.1,0,2.52-.72,2.7-5.17a13.61,13.61,0,0,0,3.6,1.39c-.42,5.7-1.68,7.25-5.94,7.25H435.14c-5.46,0-6.9-1.14-6.9-5.39v-16h4v5.28h15.18v3.3H432.26v7.38c0,1.55.48,1.92,3.24,1.92Z"/><path d="M465.86,1912.62a50.7,50.7,0,0,1-4.56,3.37,14.55,14.55,0,0,0-3-2.82,48.27,48.27,0,0,0,16.5-16.74l4.44.84a41.68,41.68,0,0,1-2.4,3.6h15l.6-.18,2.7,1.74a42.64,42.64,0,0,1-5.4,7.56H505.1v30.71H465.86Zm13.92,30.84a85.13,85.13,0,0,1-18,7.68,36.5,36.5,0,0,0-3-3.18c5.94-1.38,13-3.78,17.22-6.3Zm-5.4-39.35a62.47,62.47,0,0,1-5.52,5.88H485a43.29,43.29,0,0,0,4.62-5.88Zm26.7,9.18H469.76v5.88h31.32Zm0,9H469.76v5.93h31.32Zm0,9.11H469.76v6h31.32Zm-7.44,10.32a172.73,172.73,0,0,1,17.64,7.08l-4.08,2.28a132.35,132.35,0,0,0-16.62-7.08Z"/><path d="M537.86,1921.92c-.84,1.26-1.62,2.58-2.46,3.79h29.76v25.19H561v-2.16h-25.8v2.34h-4V1931a60.86,60.86,0,0,1-11.1,10.14,23.93,23.93,0,0,0-3.06-2.94,54.37,54.37,0,0,0,16.2-16.26H519.2v-3.3h16.14c.84-1.44,1.56-2.87,2.28-4.43h-13V1911h14.46c.6-1.38,1.2-2.88,1.74-4.37H522v-3.3h12.12a39.08,39.08,0,0,0-4.14-5.88l3.72-1.38a38.18,38.18,0,0,1,4.62,6.36l-2.1.9h15.54a58.52,58.52,0,0,0,4.5-7.14l4.08,1.32c-1.32,2-2.88,4.08-4.32,5.82H568.1v3.3H544.94c-.54,1.49-1.08,3-1.68,4.37h22.2v3.19H541.88c-.66,1.56-1.38,3-2.16,4.43h31v3.3Zm23.16,6.9h-25.8v3.78H561Zm0,6.42h-25.8v3.84H561Zm0,10.38v-3.9h-25.8v3.9Z"/><path d="M604,1899.49H589.22v35.15h-4v-38.87H604Z"/><path d="M657.14,1918.38a69.44,69.44,0,0,1-16.86,17.94c3.78,6.48,8.46,10.38,13.68,10.38,2.58,0,3.54-2.52,4.14-10.68a11.06,11.06,0,0,0,3.9,2c-1.08,10.08-2.88,12.84-8.16,12.84-7,0-12.72-4.68-17.1-12.06a104.91,104.91,0,0,1-23.58,11.52,25.82,25.82,0,0,0-2.7-3.78,90.84,90.84,0,0,0,24.36-11.4,79.08,79.08,0,0,1-6-20l-19.92,1.67-.42-3.89,19.74-1.62a118.64,118.64,0,0,1-1.14-14.82h4.38a123,123,0,0,0,1,14.45l28.68-2.33.36,3.78-28.44,2.39a71.28,71.28,0,0,0,5.34,17.76,63.29,63.29,0,0,0,14.88-16.14Zm-5.52-11.15a65.3,65.3,0,0,0-12.72-7.38l2.58-2.64a62,62,0,0,1,12.78,7Z"/><path d="M666,1947.84h14.82v-35.15h4v38.87H666Z"/><path d="M722.6,1925.64a119.68,119.68,0,0,1-13.44,18.24l30.72-2.22a110.31,110.31,0,0,0-8.46-10.8l3.48-1.62c5.4,5.88,11.28,13.8,14.1,19l-3.78,2.1c-.78-1.56-1.86-3.36-3.06-5.28-32.88,2.64-36.12,2.88-38.34,3.72a18,18,0,0,0-1.32-4c1.26-.18,2.64-1.68,4.38-3.84a100.43,100.43,0,0,0,10.8-15.36H698.36v-4H722.9v-11.69H703v-4H722.9v-9.66H727V1906h20.28v4H727v11.69h24.78v4Z"/><path d="M775.64,1897.69a97.51,97.51,0,0,1-6.36,12.78v40.37H765.5v-34.61a65,65,0,0,1-6.66,8,28.61,28.61,0,0,0-2.28-3.84c6.06-5.7,11.88-14.7,15.36-23.82Zm10.86,35.57A97.24,97.24,0,0,1,776.12,1948a26.42,26.42,0,0,0-3.12-2.34,70,70,0,0,0,10-13.56Zm8.52-4.2v22h-4v-22H773.3v-3.72H791v-7.43H777.74v-18.72h30.9v18.72H795v7.43h17.16v3.72Zm-13.44-14.75h23v-11.52h-23Zm20,17.81a94.84,94.84,0,0,1,10.74,13.56l-3.24,2a98.75,98.75,0,0,0-10.44-13.92Z"/><path d="M832,1909.39a78.74,78.74,0,0,1-4.2,7.61v33.9h-3.66v-28.61a68.47,68.47,0,0,1-5.46,6.47,32,32,0,0,0-2.4-3.42,63.74,63.74,0,0,0,12.24-17.15Zm-1.14-11.7a59.31,59.31,0,0,1-11.7,13.62,25.77,25.77,0,0,0-2.22-3,45.44,45.44,0,0,0,10.26-11.88Zm17.46,46V1951h-3.66v-7.38H832.4c.54-2.46,1.14-6.06,1.62-9.06h-2.58v-3.12h13.2v-3.54H834.32V1916H855v11.93H848.3v3.54h8.46v3.12H848.3v5.94h9.9v3.12Zm9.18-30.65H832.1v-3.3h6.36c.42-1.62.78-3.6,1.14-5.52h-5.7v-3.06h6.24c.3-1.62.54-3.3.78-4.74l3.42.3c-.18,1.38-.42,2.94-.72,4.44h9.84v8.58h4Zm-12.84,27.53v-5.94h-7.32c-.3,1.92-.6,4.08-1,5.94Zm-7.2-15.54H851.6v-6.06H837.44Zm5.64-20.81c-.36,2-.72,3.9-1.08,5.52h8.1v-5.52Zm29.4,15.59h-5.4v25.86c0,2.34-.42,3.42-2,4.08s-4.26.72-8.28.72a26.72,26.72,0,0,0-1.08-3.84c3.12.12,5.76.12,6.54.06s1.08-.24,1.08-1v-25.86h-6.78v-3.65h15.9Zm-1-16H857.6v-3.66h13.86Z"/><path d="M892.22,1925.64a49.67,49.67,0,0,1-3.42,13c4,7,11.7,7.92,23.4,8,6.3,0,14.82-.24,20.82-.78a10.52,10.52,0,0,0-1.32,3.78c-5.52.3-13,.42-19.5.42-12.48,0-20.16-1.26-24.84-8.16a27.85,27.85,0,0,1-7.5,9.24,12,12,0,0,0-2.76-2.76c5.4-3.78,9.3-10.62,11.16-20h-5.82a6.33,6.33,0,0,0-3.48.84,20,20,0,0,0-1.56-3.66,5.53,5.53,0,0,0,2.76-1.74,94.39,94.39,0,0,0,7.14-10.26h-9.36v-3.29h11.58l.78-.36L893,1911c-2.34,3.59-6.6,10-9.78,14h6.54l.66-.06.18.06Zm-4.92-17.87a86.16,86.16,0,0,0-7-9.66l3-1.68a76.07,76.07,0,0,1,7.14,9.3Zm9.3,17.4h-3.54v-5.88h16.86c-.42-.91-.9-1.87-1.26-2.71H897.32V1900h10.74c.66-1.32,1.26-2.76,1.68-3.78l4.14.66c-.66,1.14-1.38,2.16-2,3.12h14.52v16.61H912.74a23.09,23.09,0,0,1,1.32,2.71h16.68v5.57h-3.66v-3.11H919.4v3c0,1.08.12,1.43,1.26,1.43h5.46a22.88,22.88,0,0,0,3.54-.24,15.51,15.51,0,0,0,.24,2.28,20,20,0,0,1-3.6.18h-7c-2.88,0-3.36-1.19-3.36-3.72v-2.93h-6.72c-1.86,4.31-6,6.29-14,7.67a7,7,0,0,0-1.68-2.28c6.84-.89,10.38-2.46,12.06-5.39h-9Zm11.94,7.85a13.56,13.56,0,0,1-.66,2.22H925a6.23,6.23,0,0,1-.24,1.44c-.84,4.14-1.74,6.18-2.94,7.08a5.16,5.16,0,0,1-3.24.9,49.5,49.5,0,0,1-6.3-.18,7.45,7.45,0,0,0-.78-2.58,50.09,50.09,0,0,0,5.82.3,3,3,0,0,0,1.86-.36c.6-.54,1.2-1.74,1.8-4H906.74c-1.92,3.12-5,5.52-10.26,7a11,11,0,0,0-2-2.7c6.66-1.74,9.42-4.86,10.62-9.12H894.2v-2.64h16.08c-.48-1.14-1.08-2.46-1.62-3.48l3.24-.72a46,46,0,0,1,2.16,4.2h16V1933Zm-7.44-28.25h21.42v-2.64H901.1Zm0,4.8h21.42v-2.64H901.1Zm0,4.85h21.42v-2.69H901.1Z"/><path d="M951.92,1940.64c-5,.84-9.9,1.62-14,2.28l-.42-3.06c1.74-.24,3.84-.54,6.12-.84V1933h-4.86v-2.76h4.86V1926h3v4.2h4.68V1933h-4.68v5.58l5.16-.78Zm5.4-17.64c-.78,17.4-1.56,23.52-3.18,25.5a4.56,4.56,0,0,1-3.6,1.62,52.32,52.32,0,0,1-6.66-.12,7.24,7.24,0,0,0-1-3.3c2.76.24,5.28.24,6.3.24a2,2,0,0,0,1.92-.66c1.26-1.38,2-6.9,2.64-21.66H938.9c.6-3.83,1.44-9.78,1.8-14.45h12.24v-7.92H939v-3.42h17.46v14.75H943.88c-.3,2.65-.6,5.34-1,7.68h14.4Zm34.92,23.28v3.18H957.08v-3.18Zm-.84-44.45H959.12v-3.06H991.4Zm.24,23.15H959.12V1922h32.52Zm-29.58,18.42v-15.6H988.4v15.6Zm.72-24.11v-14.64h24.9v14.64Zm2.76,15h8v-4h-8Zm0,6.48h8v-4.08h-8Zm.72-30h7.26v-3.6h-7.26Zm0,6h7.26v-3.65h-7.26Zm17.88-9.59H976.7v3.6h7.44Zm0,5.94H976.7v3.65h7.44Zm.66,17.27h-8.1v4h8.1Zm0,6.36h-8.1v4.08h8.1Z"/><path d="M1010.18,1914.67a9.06,9.06,0,1,1-9.06,9A9.09,9.09,0,0,1,1010.18,1914.67Zm0,15.23a6.18,6.18,0,1,0,0-12.36,6.18,6.18,0,1,0,0,12.36Z"/><path d="M443.24,1969.51a13.18,13.18,0,0,1-.84,1.08c5.7,5.64,16.2,10.62,25.56,12.83a12.89,12.89,0,0,0-2.52,3.12,71.7,71.7,0,0,1-14.88-6.17l-.06,1.92H429.74l.06-1.68a89.68,89.68,0,0,1-14.88,6.23,30.91,30.91,0,0,0-2.28-3c10.8-3,21.48-8.28,27.12-15.6Zm-23.16,16H460v14.88h-39.9Zm3.42,12.06h14.7v-9.23H423.5Zm.12,5.82H457v19.38h-4v-1.86h-25.5v2h-3.9Zm6.66-14.22a21.86,21.86,0,0,1,3.78,6.84l-3.06,1.21a27.26,27.26,0,0,0-3.6-7.09Zm-2.76,17.16v4.32H453v-4.32Zm25.5,11.64v-4.38h-25.5v4.38Zm-4.2-38.57a48.46,48.46,0,0,1-8.58-6.42,45.19,45.19,0,0,1-8.34,6.42Zm7.5,8.94H441.56v9.23h14.76Zm-10.62,7.79a53.26,53.26,0,0,0,3.54-7.2l3.36,1.08a73,73,0,0,1-4.14,7.21Z"/><path d="M474.08,2019.48c3.06-2.58,5.64-7,7.08-10.44l3.3,1.5c-1.68,3.6-4.08,8-7.14,10.86Zm51.72-36.9v3.25H474.56v-3.25h14.16a23.89,23.89,0,0,0-2.34-5.45l3.36-.84H477.26V1973h21.9c-.72-1.44-1.56-2.94-2.34-4.2l3.78-.9a39.9,39.9,0,0,1,2.94,5.1h19.2v3.3H510.86l3.24.78c-1,1.92-2,3.84-3,5.51Zm-7,23.7H497.66a47.07,47.07,0,0,1,8.82,6.24L504,2015a48.61,48.61,0,0,0-9.3-6.9l2-1.8H481.58V1989h37.2Zm-3.9-14.45H485.36v4.43h29.52Zm0,7.13H485.36v4.44h29.52Zm-8.22,20.16c2.58,0,3-.72,3.24-6.24a12.08,12.08,0,0,0,3.54,1.38c-.48,6.66-1.74,8.22-6.42,8.22H495.44c-5.82,0-7.38-1-7.38-5v-8H492v8c0,1.38.54,1.68,3.72,1.68ZM490,1976.29a26.19,26.19,0,0,1,2.76,6.18l-.48.11H507a59.18,59.18,0,0,0,3.06-6.29Zm27.66,32.21a46.55,46.55,0,0,1,8,10.2l-3.36,1.74a49,49,0,0,0-7.8-10.56Z"/><path d="M583.76,1989a67.67,67.67,0,0,1-11.64,20.16c2.16,5.64,5,9.18,8.76,9.66,1.62.24,2.52-3.66,3.12-10.26a13.32,13.32,0,0,0,3.24,2c-.9,9.6-3.06,13.32-7.38,12.12-4.74-.78-8.16-4.5-10.68-10.32a59.26,59.26,0,0,1-14.46,11,18,18,0,0,0-2.88-3.3,55.25,55.25,0,0,0,15.9-11.82c-2.16-6.78-3.42-15.48-4.2-25.37H542.18v10.31l1.5-1.38c5.4,3.24,11.7,8.16,14.7,11.7l-2.94,2.82c-2.64-3.36-8.28-7.92-13.26-11.28-.06,8.4-1,20.1-6.48,28a19.26,19.26,0,0,0-3.18-2.58c5.16-7.5,5.76-18.06,5.76-25.92v-15.47h25c-.24-3.48-.42-7.08-.6-10.68h4c.12,3.6.24,7.2.48,10.68h19.14V1983H567.44a125.7,125.7,0,0,0,3.3,21.83,60,60,0,0,0,9.12-16.86Zm-2.94-10.91a63.5,63.5,0,0,0-10.38-6.84l2.4-2.4a59.24,59.24,0,0,1,10.44,6.6Z"/><path d="M646.34,1995.48H630.86v21.78c0,2.82-.78,4-2.76,4.62s-5.46.72-11.22.66a17.55,17.55,0,0,0-1.44-4c4.44.18,8.58.12,9.78.06s1.56-.3,1.56-1.44v-21.72H593.72v-3.9h33.06v-8.69h4.08v8.69h15.48Zm-47.16-8.1h-4v-11.75h24.06a49.74,49.74,0,0,0-3.18-6.48l3.78-1a34.79,34.79,0,0,1,3.72,7.5h21.06v11.75h-4.2v-7.91H599.18Zm5.1,11.46c3.9,3.72,8.16,8.94,10,12.48l-3.3,2.28a58.55,58.55,0,0,0-9.84-12.78Z"/><path d="M673.52,2001.06l-3.66,3.12a93.63,93.63,0,0,0-13.32-13.38l3.42-3.11A118.53,118.53,0,0,1,673.52,2001.06Z"/><path d="M736.34,1995.48H720.86v21.78c0,2.82-.78,4-2.76,4.62s-5.46.72-11.22.66a17.55,17.55,0,0,0-1.44-4c4.44.18,8.58.12,9.78.06s1.56-.3,1.56-1.44v-21.72H683.72v-3.9h33.06v-8.69h4.08v8.69h15.48Zm-47.16-8.1h-4v-11.75h24.06a49.74,49.74,0,0,0-3.18-6.48l3.78-1a34.79,34.79,0,0,1,3.72,7.5h21.06v11.75h-4.2v-7.91H689.18Zm5.1,11.46c3.9,3.72,8.16,8.94,10,12.48l-3.3,2.28a58.55,58.55,0,0,0-9.84-12.78Z"/><path d="M757,1981.39a78.74,78.74,0,0,1-4.2,7.61v33.9h-3.66v-28.61a68.47,68.47,0,0,1-5.46,6.47,32,32,0,0,0-2.4-3.42,63.74,63.74,0,0,0,12.24-17.15Zm-1.14-11.7a59.31,59.31,0,0,1-11.7,13.62,25.77,25.77,0,0,0-2.22-3,45.44,45.44,0,0,0,10.26-11.88Zm17.46,46V2023h-3.66v-7.38H757.4c.54-2.46,1.14-6.06,1.62-9.06h-2.58v-3.12h13.2v-3.54H759.32V1988H780v11.93H773.3v3.54h8.46v3.12H773.3v5.94h9.9v3.12Zm9.18-30.65H757.1v-3.3h6.36c.42-1.62.78-3.6,1.14-5.52h-5.7v-3.06h6.24c.3-1.62.54-3.3.78-4.74l3.42.3c-.18,1.38-.42,2.94-.72,4.44h9.84v8.58h4Zm-12.84,27.53v-5.94h-7.32c-.3,1.92-.6,4.08-1,5.94Zm-7.2-15.54H776.6v-6.06H762.44Zm5.64-20.81c-.36,2-.72,3.9-1.08,5.52h8.1v-5.52Zm29.4,15.59h-5.4v25.86c0,2.34-.42,3.42-2,4.08s-4.26.72-8.28.72a26.72,26.72,0,0,0-1.08-3.84c3.12.12,5.76.12,6.54.06s1.08-.24,1.08-1v-25.86h-6.78v-3.65h15.9Zm-1-16H782.6v-3.66h13.86Z"/><path d="M815.18,1986.67a9.06,9.06,0,1,1-9.06,9A9.09,9.09,0,0,1,815.18,1986.67Zm0,15.23a6.18,6.18,0,1,0,0-12.36,6.18,6.18,0,1,0,0,12.36Z"/><line class="cls-3" x1="621" y1="351" x2="621" y2="351"/><path d="M449.9,1341q7.74,4.82,15,10.37l-5.16-4A193.06,193.06,0,0,1,494,1381.8l-4-5.16a226.51,226.51,0,0,1,29,50l-2.57-6.09c9.67,23,16.16,47.34,20.7,71.82q2,11,3.52,22.06l-.91-6.78a608.64,608.64,0,0,1,4.94,82.74c-.08,27.56-1.55,55.09-3.49,82.58-1.08,15.35-2.31,30.69-3.53,46a28.44,28.44,0,0,0,7.47,18c4.42,4.42,11.68,7.75,18,7.47,6.6-.3,13.44-2.46,18-7.47l4-5.16a25.32,25.32,0,0,0,3.48-12.87c2.37-29.85,4.79-59.7,6.08-89.63s1.45-60.06-.73-90c-2.34-31.95-7-64-15.6-94.89-7.55-27.18-18.09-54-33.28-77.82a240.82,240.82,0,0,0-27-35,216.5,216.5,0,0,0-34.25-29.28c-2.68-1.88-5.41-3.67-8.19-5.4-5.52-3.44-13.44-4.28-19.65-2.57-5.91,1.63-12.32,6.2-15.23,11.72-3.13,5.92-4.7,13.09-2.58,19.65A27.35,27.35,0,0,0,449.9,1341Z"/><line class="cls-4" x1="461.82" y1="1319.29" x2="380.14" y2="1545.24"/><line class="cls-4" x1="769.99" y1="1105.28" x2="769.99" y2="1720.33"/><path class="cls-4" d="M772.92,1155.6c24.89-5.18,45.18-22.72,57.52-43.28s17.67-44,21.42-67.21"/><line class="cls-4" x1="699.5" y1="1679.41" x2="838.84" y2="1679.41"/><rect class="cls-2" x="1115" y="1246" width="65" height="271" rx="12"/><path class="cls-1" d="M1160.05,1285.79a27.61,27.61,0,0,0,11.5,8.1,11.65,11.65,0,0,0-2.15,2.55,30.77,30.77,0,0,1-12.8-10.65h-15.95a34.39,34.39,0,0,1-13,11.3,11.43,11.43,0,0,0-2.15-2.55,30.39,30.39,0,0,0,11.6-8.75H1126v-2.85h10v-16.15h-7.7V1264h7.7v-5h3.3v5h18.55v-5h3.35v5h7.65v2.8h-7.65v16.15h9.8v2.85Zm-10,14.5h17.3v2.85H1129.8v-2.85h16.9v-5.6h-10.45v-2.8h10.45v-4.4h3.35v4.4h10.65v2.8h-10.65Zm-10.8-33.5v3.6h18.55v-3.6Zm0,9.8h18.55v-3.65h-18.55Zm0,6.35h18.55v-3.8h-18.55Z"/><path class="cls-1" d="M1144.25,1327.54s0,1.15,0,1.55c-.6,15.85-1.2,21.2-2.6,23a3.71,3.71,0,0,1-2.8,1.45,32.65,32.65,0,0,1-4.45,0,9.25,9.25,0,0,0-.85-3c1.75.15,3.2.15,3.9.15a1.42,1.42,0,0,0,1.45-.65c1-1.2,1.6-6,2.15-19.35h-6.8c-.55,10-2,18.25-6.45,23.65a9.53,9.53,0,0,0-2.55-2.35c5.45-6.45,5.9-17.85,6.1-31.55h-5.2v-3.1h20.1v3.1h-11.65c0,2.45-.1,4.85-.2,7.15Zm-7.9-10.45a33.47,33.47,0,0,0-4.25-7.15l2.9-1.15a31.92,31.92,0,0,1,4.4,7Zm23.85-7.45a15.26,15.26,0,0,1-.85,2.55c2.65,5.45,7.7,11.35,12.45,14a13,13,0,0,0-2.45,2.75c-4.25-2.7-8.5-8-11.4-13.3a32.61,32.61,0,0,1-11,13.6,12.79,12.79,0,0,0-2.35-2.65c5.85-3.6,10.35-10.2,12.5-17.85Zm-8.3,32.45a74,74,0,0,1,13.6,8.25l-2.25,2.9c-2.85-2.6-8.75-6.3-13.4-8.65Zm9.5-4.85a66.22,66.22,0,0,0-8.6-6.85l2.15-2.2a67.46,67.46,0,0,1,8.75,6.55Z"/><path class="cls-1" d="M1167,1362.19v29.3h-3.5v-2.55h-13.3v15.6h-3.45v-15.6h-13.4v2.75H1130v-29.5Zm-33.65,3.2V1374h13.4v-8.65Zm13.4,20.35v-8.5h-13.4v8.5Zm16.75-20.35h-13.3V1374h13.3Zm0,20.35v-8.5h-13.3v8.5Z"/><path class="cls-1" d="M1169.25,1424.09v9.3h-3.15V1427h-35.4v6.4h-3v-9.3h6.95v-12.95h27.7v12.95Zm-6.45,26.6c0,1.85-.45,2.7-1.85,3.2s-3.9.5-7.7.45a8.57,8.57,0,0,0-1.1-2.75c3,.05,5.65.05,6.4.05s1-.25,1-1v-6.2c-7.3,1.45-14.85,3-20.45,4l-1.1-3c5.4-.8,13.6-2.3,21.55-3.75V1433h-22.2v5.3c0,4.85-.65,11.55-4.35,16.2a13.29,13.29,0,0,0-2.7-2c3.45-4.25,3.85-10,3.85-14.25v-8h28.6Zm-25-26.6h7.45v-6.9H1159v-3.35h-21.2Zm2.45,11.7a75.14,75.14,0,0,1,17.7,3l-.9,2.6c-4-1.5-11.7-2.9-17.7-3.35Zm18.75-16.3h-10.75v4.6H1159Z"/><path class="cls-1" d="M1163,1471.09a51.83,51.83,0,0,1-12,19.6,49.94,49.94,0,0,0,20.5,10.5,16.79,16.79,0,0,0-2.25,3,50.92,50.92,0,0,1-20.75-11.1c-5.65,5-12.55,8.6-21,11.3a15.53,15.53,0,0,0-2-3.05c8.35-2.45,15.1-5.9,20.6-10.6a57.05,57.05,0,0,1-12.2-19.65h-7.75v-3.25h44.75v3.25Zm-25.75,0a52.13,52.13,0,0,0,11.3,17.3,47.46,47.46,0,0,0,10.7-17.3Zm11.25-3.55a38.13,38.13,0,0,0-3.8-7.8l3.4-1a39,39,0,0,1,4,7.65Z"/><path d="M762.51,1175.61a715.89,715.89,0,0,0-80.22-22,622.21,622.21,0,0,0-89.5-12.64,511.77,511.77,0,0,0-70.16.61c-25.48,1.9-51.15,5.39-75.81,12.24a258.89,258.89,0,0,0-37.76,13.91,149.85,149.85,0,0,0-28.19,16.5c-3.74,2.82-7.47,5.67-11,8.7a28.44,28.44,0,0,0-7.47,18c0,6.26,2.78,13.73,7.47,18,4.86,4.47,11.24,7.78,18,7.47l6.78-.91a25.45,25.45,0,0,0,11.25-6.56q2.3-2,4.68-3.79l-5.16,4a154.17,154.17,0,0,1,34-19.43l-6.1,2.57c17.41-7.32,35.78-12.16,54.34-15.49q8.09-1.44,16.23-2.53l-6.78.91a492.51,492.51,0,0,1,98.9-3c10.87.76,21.72,1.9,32.52,3.34l-6.78-.91a673.51,673.51,0,0,1,100.49,21.72q13.44,3.95,26.72,8.43a19.44,19.44,0,0,0,10.17.46,19.1,19.1,0,0,0,9.48-3c5.29-3.1,10.33-9.16,11.72-15.24,1.48-6.53,1.16-13.85-2.57-19.65l-4-5.16a25.45,25.45,0,0,0-11.25-6.56Z"/><path d="M374.06,1234.32c17.14,11.85,36.08,20.74,55.56,28a346.51,346.51,0,0,0,54.09,15c9.32,1.85,18.69,3.42,28.09,4.78,9.08,1.31,18.14,2.58,27.3,3.17,13.7.87,27.45.73,41.17.81,15.85.1,31.76.39,47.49,2.5l-6.78-.91a133,133,0,0,1,33.71,8.68l-6.1-2.57a86.17,86.17,0,0,1,19,11l-5.16-4a79,79,0,0,1,13.73,13.8l-4-5.16c7.89,10.29,12.5,22.44,19.25,33.42,4.28,7,9.36,14,15.8,19.12a85.59,85.59,0,0,0,13.49,9.07,170.3,170.3,0,0,0,16.57,7.53,55.71,55.71,0,0,0,12.72,3.51,80.15,80.15,0,0,0,12.35,1.25,78.7,78.7,0,0,0,13.16-1.58,28.49,28.49,0,0,0,15.24-11.72,19,19,0,0,0,3-9.48,19.34,19.34,0,0,0-.45-10.17c-2-6.17-5.82-12.12-11.72-15.24l-6.09-2.57a25.78,25.78,0,0,0-13.56,0c-.68.13-1.35.24-2,.34l6.78-.91a39.68,39.68,0,0,1-9.92,0l6.78.91a56.71,56.71,0,0,1-14-4l6.1,2.57c-6-2.53-12.19-5.44-17.36-9.37l5.16,4a45.68,45.68,0,0,1-7.76-7.9l4,5.16c-5.15-6.71-8.83-14.36-12.69-21.84a138.22,138.22,0,0,0-16.34-24.89c-5.79-7-12.89-12.82-20.33-18.05s-15.78-8.91-24.25-12.26c-15.24-6-31.84-8.34-48.06-9.81-15-1.35-30.14-1.38-45.22-1.44-15.9-.06-31.91,0-47.71-2.13l6.78.91c-26.22-3.55-52.37-8.49-77.55-16.75q-10.62-3.49-20.94-7.81l6.09,2.57a221.62,221.62,0,0,1-39.7-21.58,18.9,18.9,0,0,0-9.48-3,19.24,19.24,0,0,0-10.17.46c-5.92,1.62-12.33,6.2-15.24,11.71-3.13,5.92-4.7,13.09-2.57,19.65l2.57,6.09a25.4,25.4,0,0,0,9.15,9.15Z"/><line class="cls-4" x1="770.73" y1="1204.2" x2="855.23" y2="1226.7"/><line class="cls-4" x1="770.73" y1="1280.2" x2="855.23" y2="1302.7"/><path class="cls-4" d="M857.23,1303.7"/><line class="cls-4" x1="855.23" y1="1302.7" x2="855.23" y2="1226.7"/></svg>