<svg id="Layer_1" data-name="Layer 1" xmlns="http://www.w3.org/2000/svg" viewBox="0 0 1242 2208"><defs><style>.cls-1{fill:#f6eabe;}.cls-2{fill:#999;}.cls-3{fill:none;stroke:#000;stroke-linecap:round;stroke-miterlimit:10;stroke-width:50px;}</style></defs><rect class="cls-1" width="1242" height="2208"/><rect class="cls-2" x="1113.23" y="443" width="65" height="126" rx="12"/><path d="M923.81,211.17V828.89H869V774.11H389.45v58.75h-53.2V211.17Zm-534.36,53.2V464.45H869V264.37ZM869,721.71V516.86H389.45V721.71Z"/><path d="M392.15,1847.69a98.85,98.85,0,0,1-6.18,13.56v39.59h-3.84v-33.35a61.73,61.73,0,0,1-5.46,7,32.86,32.86,0,0,0-2.28-3.9c5.58-5.87,10.8-14.87,14-24Zm34.14,28c-2.1,1.26-4.44,2.64-6.84,3.78,2,6.06,5.82,11.82,10.38,14.52a11.2,11.2,0,0,0-2.64,2.94c-4.62-3.18-8.46-9.42-10.68-16a27.45,27.45,0,0,1-2.76,1.2c2.58,6.84,1.86,14-1,16.68a6.91,6.91,0,0,1-5.22,1.92c-1.08,0-2.4-.06-3.78-.18a9.31,9.31,0,0,0-1-3.42,38.26,38.26,0,0,0,4.14.24,3.66,3.66,0,0,0,3.12-1.14c1.56-1.38,2.22-5.16,1.44-9.36-5.16,4.92-13.08,9.36-19.8,11.7a15.8,15.8,0,0,0-2.34-2.82c7.62-2.28,16.62-7.14,21.3-12.24a35.76,35.76,0,0,0-1.5-3.48,63.52,63.52,0,0,1-17.22,9.9,16.14,16.14,0,0,0-2.22-2.64c5.94-1.8,13.74-5.76,17.88-9.54a16.39,16.39,0,0,0-2.94-3.18,58.44,58.44,0,0,1-13.56,7.26,11.26,11.26,0,0,0-2.22-2.58,52.7,52.7,0,0,0,15.06-7.55H393.71v-9.36c-1.14,1-2.28,2-3.54,2.94a9.37,9.37,0,0,0-2.52-2.58,44.69,44.69,0,0,0,13.86-16.26l3.84.72c-.6,1.2-1.32,2.34-2,3.54h11.1l.72-.18,2.34,1.68a52.13,52.13,0,0,1-4.8,6.84h13.08v12.66H408.17c-.36.36-.78.66-1.2,1a21,21,0,0,1,5.64,6.84,110,110,0,0,0,10.92-6.42Zm-25.08-21.83A54.58,54.58,0,0,1,397,1859h11.58a37.88,37.88,0,0,0,3.72-5.16Zm-3.9,14.69h10.5v-6.42h-10.5Zm24.72-6.42H411.41v6.42H422Z"/><path d="M455.39,1859.63a67.9,67.9,0,0,1-7.2,12.24v28.85h-4v-24a41.57,41.57,0,0,1-7.26,6.41,17,17,0,0,0-2-3.48c7-5,12.3-12.23,16.14-20H436.25v-3.84h16.44a65.25,65.25,0,0,0,3.3-9.42l4.08,1c-.9,2.82-1.86,5.64-3,8.4h31.26v3.84Zm32.94,36.23v3.72H452.21v-3.72h16v-17.52H454.55v-3.71h13.68v-11.82h4v11.82H486v3.71h-13.8v17.52Z"/><path d="M544.49,1852.67v46.49h-4.26v-4.86H504.29v5.16h-4.08v-46.79Zm-4.26,37.61v-33.59H504.29v33.59Z"/><path d="M609,1894.18v4H555.53v-4h22.62v-46.85h4.14v18.54h22.62v4H582.29v24.3Z"/><path d="M669,1873.91v2.81h-53.4v-2.81h24.48v-3.42H620.21v-2.58h19.86v-3.3H621.65V1862h18.42v-3.54H615.65v-2.58h24.42v-3.3H622v-2.52h18.06v-3.78H644v3.78h18.3v5.82h6.54v2.58h-6.54v6.12H644v3.3h20.64v2.58H644v3.42Zm-53.4,22.43H669v2.88h-53.4Zm46.8-16.86v13.86h-40v-13.86Zm-36.18,5.7h14v-3.24h-14Zm0,5.76h14v-3.36h-14Zm32.16-9H643.85v3.24h14.52Zm0,5.64H643.85v3.36h14.52ZM644,1855.91h14.34v-3.3H644Zm0,6.12h14.34v-3.54H644Z"/><path d="M729.59,1870.91v4.31H675.11v-4.31Z"/><path d="M752.93,1880.92c-.9-1.92-3.24-5.88-5.1-8.88v28.8h-3.66v-29.16c-2,7.14-4.86,14-7.68,18.3a24,24,0,0,0-2.28-4c3.72-5,7.5-14.75,9.3-23h-8.1v-3.77h8.76v-12.84h3.66v12.84h7.26v3.77h-7.26v4.21c1.68,2.16,6.3,8.75,7.38,10.31ZM768.05,1893a50.05,50.05,0,0,1-13.74,8.22c-.54-.84-1.62-2-2.34-2.94,4.5-1.68,10-4.8,12.6-7.44Zm21.54-24.24H753.65v-3.23h36Zm-27.3-13.61h-7.8v-3.12h7.8v-4.8h3.6v4.8h11v-4.8h3.72v4.8h8v3.12h-8V1863h-18.3ZM756.77,1890v-17.87h29.64V1890Zm3.6-10.32h9.06v-4.55h-9.06Zm0,7.32h9.06v-4.62h-9.06Zm5.52-31.85v5h11v-5Zm16.8,20h-9.54v4.55h9.54Zm0,7.25h-9.54V1887h9.54Zm-4.32,8.46a88.84,88.84,0,0,1,11.64,7.74l-3.18,2.58a84.32,84.32,0,0,0-11-7.86Z"/><path d="M849,1873.91v2.81h-53.4v-2.81h24.48v-3.42H800.21v-2.58h19.86v-3.3H801.65V1862h18.42v-3.54H795.65v-2.58h24.42v-3.3H802v-2.52h18.06v-3.78H824v3.78h18.3v5.82h6.54v2.58h-6.54v6.12H824v3.3h20.64v2.58H824v3.42Zm-53.4,22.43H849v2.88h-53.4Zm46.8-16.86v13.86h-40v-13.86Zm-36.18,5.7h14v-3.24h-14Zm0,5.76h14v-3.36h-14Zm32.16-9H823.85v3.24h14.52Zm0,5.64H823.85v3.36h14.52ZM824,1855.91h14.34v-3.3H824Zm0,6.12h14.34v-3.54H824Z"/><path d="M861.11,1882c4.68-2,7.26-4.86,7.56-9.17a4,4,0,0,1-1.14.11c-2.34,0-4.26-1.31-4.26-4.07a4,4,0,0,1,4.32-4.08c3.18,0,4.86,2.58,4.86,6.66,0,6.41-4,11.21-10.08,13.43Z"/><path d="M155.39,1947.94l-7.62,2.34v17.82c0,2.34-.6,3.42-2,4.08s-3.84.78-7.8.72a17,17,0,0,0-1.32-3.66c2.76.06,5.34.06,6.06,0s1.14-.24,1.14-1.14v-16.56l-8.4,2.58-1.26-3.95c2.64-.73,6-1.63,9.66-2.71v-13.07h-8.7v-3.84h8.7v-12.12h4v12.12h7v3.84h-7v11.87c2.34-.59,4.74-1.38,7.08-2.09Zm10.68-6.3c-5.52,0-7.26-1.73-7.26-6.72v-16.31h3.9v7.32H187v3.54h-24.3V1935c0,2.29.66,3.13,3.3,3.13h16.14a49.43,49.43,0,0,0,6.42-.37c.18,1.08.36,2.58.54,3.49a38.74,38.74,0,0,1-6.72.35Zm-7.26,5.34h28v25.74h-4v-2.52H162.59V1973h-3.78Zm3.78,3.48v6.36h20.22v-6.36Zm20.22,16.38v-6.72H162.59v6.72Z"/><path d="M210.47,1948.78a58,58,0,0,1-12.06,19.14,26,26,0,0,0-3.66-2.46,47,47,0,0,0,11.64-17.75Zm13.62-7.91v31.79H220v-31.79H196.07v-4h52.5v4Zm19.2-14.22H201.41v-3.9h41.88Zm-5.16,20.93c4.5,5.58,9.24,13.14,11,18.24l-3.9,1.8c-1.74-5-6.3-12.78-10.8-18.48Z"/><path d="M272.27,1931.63a65.37,65.37,0,0,1-5.34,7.91v33.66h-3.72v-29.28a74.28,74.28,0,0,1-7.14,6.78,29.45,29.45,0,0,0-2.34-3.48,58.73,58.73,0,0,0,15-16.85Zm-1.44-11.88a59.36,59.36,0,0,1-14.1,14.1,21.26,21.26,0,0,0-2.28-2.82c4.74-3.24,10.14-8.4,12.78-12.66Zm22.2,48.59a31.51,31.51,0,0,0,5.46.42c1.26.06,9.36,0,11.22,0a10.05,10.05,0,0,0-1.32,3.6H298.25c-9.06,0-15.3-2.22-19.14-11.4a26.48,26.48,0,0,1-7.26,11.82,28.42,28.42,0,0,0-3.12-2.52c6.18-5,8.4-13.2,8.94-24.3l3.84.3a74,74,0,0,1-1,8.88c1.86,6.78,4.86,10.38,8.88,12.12v-25.68h.48a25.66,25.66,0,0,0-2.88-2.21c6.12-4.45,9.48-11.64,10.8-20.94l3.84.48a50.08,50.08,0,0,1-2.4,9.72A78.36,78.36,0,0,1,310,1939.25l-2.82,2.75a80.5,80.5,0,0,0-9.36-10,28.48,28.48,0,0,1-7.26,9.59H293v10.32h13.62v3.48H293Zm-5.22-30.84a61,61,0,0,0-6.18-6,36.85,36.85,0,0,1-7.92,11.34,19.54,19.54,0,0,0-3-2.76c5.64-4.85,9.24-12.59,11-21.71l3.9.6a60.12,60.12,0,0,1-2.64,9.3,60.56,60.56,0,0,1,6.78,6.12Z"/><path d="M364.49,1924.67v46.49h-4.26v-4.86H324.29v5.16h-4.08v-46.79Zm-4.26,37.61v-33.59H324.29v33.59Z"/><path d="M426.05,1929.05v27.77H422v-3.48H404.15v19.56H400v-19.56H382.25v3.78h-4v-28.07H400v-10.74h4.14v10.74Zm-26,20.33V1933H382.25v16.43Zm22,0V1933H404.15v16.43Z"/><path d="M457.13,1956.1s-.06,1.14-.12,1.62c-.78,8.4-1.56,11.88-3,13.26a5.12,5.12,0,0,1-3.78,1.38,74.41,74.41,0,0,1-7.92-.12,9,9,0,0,0-1.2-3.42c3.3.24,6.6.3,7.74.3a3.22,3.22,0,0,0,2.22-.48c.9-.84,1.56-3.42,2.16-9.42h-14c.66-3.48,1.5-8.7,2-12.89h12.12v-6.66h-10.2V1939a49.59,49.59,0,0,1-6.9,2.93,15.49,15.49,0,0,0-2.22-3,42.47,42.47,0,0,0,12.06-5.75,40.34,40.34,0,0,0-6.9-5.52l2.34-2.16A42.45,42.45,0,0,1,449,1931a30.58,30.58,0,0,0,6.06-6.78H440.75V1921h16.38l.72-.18,2.4,1.26c-2.64,6-7.38,10.8-12.78,14.39H457v13.08H444.23c-.3,2.28-.66,4.56-1,6.6Zm30.9-29.27a66.55,66.55,0,0,1-8.7,6.78,41.49,41.49,0,0,0,10.5,4.43,20.1,20.1,0,0,0-2.4,3.18,44.52,44.52,0,0,1-8.88-3.84v8.46c0,1.33.12,1.68,1,1.68h4.74a15.17,15.17,0,0,0,2.82-.18,21.74,21.74,0,0,0,.24,2.83,11.25,11.25,0,0,1-3,.23h-5.22c-3.36,0-4-1.32-4-4.61v-6.3h-8.7V1941a11.94,11.94,0,0,1-6.54,11.16,12.87,12.87,0,0,0-2.58-2.52c4.86-2.51,5.7-5.81,5.7-8.69v-4.74h13.74a40.47,40.47,0,0,1-14.82-16.8l3.24-1a33.07,33.07,0,0,0,4.86,7.44,73.26,73.26,0,0,0,8-7.08l2.94,2a107.11,107.11,0,0,1-8.88,7.26,45.63,45.63,0,0,0,4.56,3.72,68.25,68.25,0,0,0,8.46-7Zm-4.44,27.47a25.88,25.88,0,0,1-8,10.8c3.3,2,6.24,3.9,8.34,5.46l-2,2.64c-2.22-1.68-5.4-3.84-8.94-6.06a45.77,45.77,0,0,1-13.8,5.94,10.15,10.15,0,0,0-1.86-2.94,43.71,43.71,0,0,0,12.54-4.92c-3.3-2-6.66-4-9.66-5.7l2-2.16c3.18,1.74,6.9,3.84,10.44,6a25,25,0,0,0,6.18-6.9H460.07v-2.94h20.64l.66-.18Z"/><path d="M545.63,1948.13v24.77h-4.32v-3.48H498.89v-21.29h4.32v17.39H520v-21.3H501.47v-20.33h4.14v16.44H520v-22h4.32v22H539v-16.5h4.32v20.39h-19v21.3h17v-17.39Z"/><path d="M571.25,1919c-1,2.94-2.1,6.3-3.18,8.88h10.14v38.75h-16.8v4.8h-3.66v-43.55h6.66a64.68,64.68,0,0,0,2.58-9.72Zm3.3,12.47H561.41v13.08h13.14Zm0,31.56v-14.88H561.41v14.88Zm33.06-33.17c-1,27.53-1.8,36.71-4.2,39.59a5.6,5.6,0,0,1-4.56,2.28,74.94,74.94,0,0,1-8.82-.12,9.42,9.42,0,0,0-1.32-3.9c3.9.36,7.5.36,8.82.36s1.92-.12,2.52-.9c2-2.1,2.94-11.34,3.72-35.7H588.05a55.33,55.33,0,0,1-5.64,10.68,36.22,36.22,0,0,0-3.36-2.22c4.08-5.33,7.32-13.61,9.18-21.89l3.84.84c-.78,3-1.62,6-2.64,8.88h18.18Zm-12.78,27a106.51,106.51,0,0,0-9.3-13.92l3.06-1.79a102.47,102.47,0,0,1,9.6,13.61Z"/><path d="M659.57,1964.74h8.76v3.06h-8.76v5.34h-3.9v-5.34H615.83v-3.06H625V1949h-7.14v-2.63a11.58,11.58,0,0,0-2.58-1.81,14,14,0,0,0,3.54-10v-3.24h21.48v9.35H621.17a14.37,14.37,0,0,1-2.64,5.23h48.66v3h-7.62Zm-32.22-40.91H616v-2.52h11.4v-3H631v3h11.16v2.52H631v2.82h9.48v2.46H617.93v-2.46h9.42Zm-5.34,9.9v.9a20.1,20.1,0,0,1-.3,3.66h5.94v-4.56Zm6.78,15.23v3.3h26.88V1949Zm0,9.72h26.88V1955H628.79Zm26.88,6.06v-3.3H628.79v3.3Zm-18.66-31h-6.3v4.56H637Zm28.14-2.16a19.44,19.44,0,0,1-7,8.22,42.17,42.17,0,0,0,10.32,2.51,14.46,14.46,0,0,0-2.1,2.88,40.74,40.74,0,0,1-11.46-3.6,46.48,46.48,0,0,1-12.18,3.72,9.24,9.24,0,0,0-1.62-2.88,43.8,43.8,0,0,0,10.68-2.7,20.71,20.71,0,0,1-6.18-6.35h-1.86v-2a9.34,9.34,0,0,0-2.16-2.4c4.32-1.74,5.16-3.78,5.16-5.82v-2.94h14.82v5.76c0,1.2.12,1.56.9,1.56h3.36a13.19,13.19,0,0,0,2.64-.3c.06.84.18,1.8.24,2.58a9.24,9.24,0,0,1-2.76.3h-4.26c-2.94,0-3.48-1.32-3.48-4.14v-2.82H650v.12c0,2.58-1,5.4-4.86,7.56h17.28l.66-.12Zm-16.08,1.8a17.6,17.6,0,0,0,5.76,4.8,17.65,17.65,0,0,0,5.64-4.8Z"/><path d="M728.81,1938v3.65h-53.1V1938h15.36a31.79,31.79,0,0,0-3.66-9.12l3.78-.84a30.77,30.77,0,0,1,4,9.3l-2.52.66h16.38a80,80,0,0,0,4.5-10.2l4.32,1.08c-1.5,3-3.12,6.42-4.62,9.12Zm-3-10.5H679.13v-3.6H701a23.94,23.94,0,0,0-2.46-5.16l3.9-.84a26.71,26.71,0,0,1,3,6h20.34ZM684.11,1947H721V1973h-4.08v-2.16h-28.8v2.28h-4Zm4,3.48v6.66h28.8v-6.66Zm28.8,16.86v-7h-28.8v7Z"/><path d="M751.37,1936h10.74v3.72H751.37v1.62c2.22,2.39,8.7,10,10.14,11.87l-2.46,3.24a129,129,0,0,0-7.68-10.49v26.93h-4v-27.17c-3,7.07-7.2,14.21-11.1,18.41a28.3,28.3,0,0,0-2.22-3.66c4.56-4.62,9.6-13.08,12.36-20.75H735.47V1936h11.88v-10.32c-3.42.54-6.9,1-10.14,1.44a15.29,15.29,0,0,0-1.08-3.18c7.92-1.08,17.52-2.82,22.68-5l2.76,3.12a83.55,83.55,0,0,1-10.2,2.82Zm34.74-12.06V1970h-4v-4.56h-14v5h-3.9v-46.49Zm-4,37.67v-33.83h-14v33.83Z"/><path d="M800.63,1958.44V1963H797v-39.17h15.54v34.61Zm0-30.71v26.81h8.16v-26.81Zm49,38.75v3.9h-37.8v-3.9h17.58v-25.19h-13.5v-3.91h13.5v-18.05h4.08v18.05h14.34v3.91H833.45v25.19Z"/><path d="M905.63,1948.13v24.77h-4.32v-3.48H858.89v-21.29h4.32v17.39H880v-21.3H861.47v-20.33h4.14v16.44H880v-22h4.32v22H899v-16.5h4.32v20.39h-19v21.3h17v-17.39Z"/><path d="M931.25,1919c-1,2.94-2.1,6.3-3.18,8.88h10.14v38.75h-16.8v4.8h-3.66v-43.55h6.66a64.68,64.68,0,0,0,2.58-9.72Zm3.3,12.47H921.41v13.08h13.14Zm0,31.56v-14.88H921.41v14.88Zm33.06-33.17c-1,27.53-1.8,36.71-4.2,39.59a5.6,5.6,0,0,1-4.56,2.28,74.94,74.94,0,0,1-8.82-.12,9.42,9.42,0,0,0-1.32-3.9c3.9.36,7.5.36,8.82.36s1.92-.12,2.52-.9c2-2.1,2.94-11.34,3.72-35.7H948.05a55.33,55.33,0,0,1-5.64,10.68,36.22,36.22,0,0,0-3.36-2.22c4.08-5.33,7.32-13.61,9.18-21.89l3.84.84c-.78,3-1.62,6-2.64,8.88h18.18Zm-12.78,27a106.51,106.51,0,0,0-9.3-13.92l3.06-1.79a102.47,102.47,0,0,1,9.6,13.61Z"/><path d="M988.19,1927.13a51.63,51.63,0,0,1-10.2,11.7,22.7,22.7,0,0,0-2.94-3.06,43.34,43.34,0,0,0,13.44-17.52l3.84,1.14a40.39,40.39,0,0,1-2.28,4.56h37.26v3.18Zm3.36,33.17a38.34,38.34,0,0,1-12.48,12.36,22.8,22.8,0,0,0-2.52-2.88,32.07,32.07,0,0,0,12-10.68Zm5.7-3.24V1973h-3.78v-15.9H977.15v-3.24h16.32v-10.74h3.78v10.74h16v3.24Zm22.38-18.53c-.12,19,.42,30.53,5.46,30.53,1.26,0,1.56-3.54,1.74-8.76a11.84,11.84,0,0,0,2.76,2.28c-.36,7.92-1.2,10.44-4.74,10.44-8.28,0-9.06-11.46-9.24-31.26H981v-3.23Zm-35.22,5.27a27.7,27.7,0,0,1,4.86,7.62l-3.12,1.44a26.82,26.82,0,0,0-4.8-7.73Zm2.64-9.41v-3.12h35.76v3.12Zm15.36,24.83a73.26,73.26,0,0,1,11.28,9.9l-2.52,2.4c-2.28-2.82-7.2-7.14-11.1-10.14Zm7.56-14a102,102,0,0,1-6.6,8.09l-2.58-1.14a67,67,0,0,0,5.7-8.33Z"/><path d="M1035.29,1968.46a58.72,58.72,0,0,0,6.18-12.06l3.42,1.44c-1.62,3.72-3.78,9-6,12.36Zm45-16.26h-36.18V1924h14c.84-1.92,1.86-4.44,2.4-6.18l4.5.84c-1,1.86-1.92,3.78-2.82,5.34h18.12Zm-4-25H1048v5.16h28.38Zm0,8.27H1048v5.17h28.38Zm0,8.29H1048V1949h28.38Zm-5.88,24.47c3.3,0,3.78-.9,4.08-7.08a10.68,10.68,0,0,0,3.72,1.56c-.54,7.44-1.86,9.18-7.5,9.18h-14.16c-6.6,0-8.4-1.08-8.4-5.58v-10h4v10c0,1.56.72,1.92,4.56,1.92Zm-10-16a48.15,48.15,0,0,1,8.34,9.18l-3.24,2a47,47,0,0,0-8.16-9.42Zm21.18,3.18c2.82,3.6,5.82,8.52,6.9,11.76l-3.66,1.68a50.39,50.39,0,0,0-6.78-11.94Z"/><path d="M1107.41,1936.67a9.06,9.06,0,1,1-9.06,9A9.09,9.09,0,0,1,1107.41,1936.67Zm0,15.23a6.18,6.18,0,0,0,0-12.36,6.18,6.18,0,0,0,0,12.36Z"/><path d="M499.13,2007.17c4.44,10.31,12.24,20,20.76,24.71a23.11,23.11,0,0,0-3.06,3.36c-9-5.58-16.92-16.32-21.6-28.07h-1v22.43h14.28v4H494.27V2045h-4.14v-11.4H475.91v-4h14.22v-22.43h-1.08c-4.74,11.75-12.66,22.43-21.3,28.25a24.18,24.18,0,0,0-2.88-3.18c8-4.92,15.66-14.76,20.16-25.07H466.37v-4h23.76v-12.72h4.14v12.72h24v4Z"/><path d="M574.13,2029.54a33.64,33.64,0,0,1-8.22,7.38c2.4,2.82,5.22,4.44,8.16,4.38,1.68-.06,2.16-1.5,2.46-5.94a10.31,10.31,0,0,0,3.12,1.62c-.6,6.3-2.1,7.92-5.76,8-4.26,0-8.16-2.22-11.28-6a74.41,74.41,0,0,1-13.68,5.82,36.46,36.46,0,0,0-2.1-3.24,65.61,65.61,0,0,0,13.86-5.34,34.94,34.94,0,0,1-3.84-8.82H542.39v4.38l11.16-1-.06,2.88-11.1,1.08v6.12c0,2.1-.48,3.06-2.16,3.54s-4.38.54-8.94.54a19.42,19.42,0,0,0-1.26-3.18c3.36.12,6.48.06,7.38,0s1.2-.24,1.2-1v-5.7c-4.74.48-9.12.9-12.72,1.2l-.42-3.3c3.54-.24,8.1-.54,13.14-1v-4.68h-12.9v-3.18h12.9v-4.44c-3.78.42-7.68.72-11.28.91a12,12,0,0,0-.9-2.71c8.16-.48,18.18-1.55,23.52-2.94l2.52,2.58c-2.82.66-6.36,1.26-10.08,1.74v4.86h13.68a52.67,52.67,0,0,1-1.2-8.94h3.84a57.48,57.48,0,0,0,1.2,8.94h19v3.18H560.81a31.91,31.91,0,0,0,3.12,6.9,27.09,27.09,0,0,0,6.72-5.94Zm4.62-15.17h-53v-3.24h24.36V2007h-18.6v-3.06h18.6v-4H528.29v-3.18H541a30,30,0,0,0-3.48-5.16l3.42-1.26a24.4,24.4,0,0,1,4.32,6.24l-.42.18h14.64a54.7,54.7,0,0,0,3.6-6.6l4.14,1.2c-1.2,1.86-2.52,3.84-3.72,5.4h12.84V2000H554.15v4h18.9V2007h-18.9v4.14h24.6Zm-5.7,9a34,34,0,0,0-9.48-5.52l2.16-2.46a38.32,38.32,0,0,1,9.66,5.22Z"/><path d="M614.69,2039.62a70.7,70.7,0,0,0,7.38.36c2.1.06,14.76,0,17.58-.06a16.36,16.36,0,0,0-1.44,3.84H622c-12.3,0-19.92-1.92-24.72-10.38a31.55,31.55,0,0,1-9.48,11.7,19.84,19.84,0,0,0-3.06-2.82c6.3-4.14,10.2-10.92,11.82-19.86l4,.6a55.92,55.92,0,0,1-1.5,6.06c2.34,5.64,6.3,8.52,11.7,9.84v-18.54H586v-3.6h52.68v3.6H614.69v7.08h20v3.6h-20Zm17.22-27.17h-39.6v-19.56h39.6Zm-4-16.44H596.21v5.16h31.68Zm0,8.1H596.21v5.27h31.68Z"/><path d="M671.27,1993.49H656.45v35.15h-4v-38.87h18.78Z"/><path d="M695.81,2003.87H674.93v-3.3h20.88ZM694,2041.3H680.75v2.88h-3.6v-20.1H694Zm-.54-29.76H677.21v-3.17h16.26Zm-16.26,4.56h16.26v3.24H677.21Zm3.54,11.34v10.5h9.84v-10.5Zm4.38-27.59a40.4,40.4,0,0,0-3.78-8.1l3.3-1.2a39.79,39.79,0,0,1,4,8Zm24.24-7.5a55.52,55.52,0,0,1-11.76,17.15,28.57,28.57,0,0,0-3.06-2.75,43.3,43.3,0,0,0,11-15.54Zm15.12,48.05c1.32,0,1.56-.9,1.68-7.2a11.06,11.06,0,0,0,3.54,1.5c-.42,7.5-1.44,9.36-4.74,9.36h-5.1c-3.9,0-4.8-1.2-4.8-5.28V2024h-5.16c-1,9.48-3.48,16.92-12.3,21.18a12.57,12.57,0,0,0-2.4-3c7.92-3.54,10-10.14,10.86-18.18h-5.28v-17.45h23V2024h-4.86v14.76c0,1.38.24,1.62,1.5,1.62Zm-19.92-19.92h15.24v-10.31H704.57Zm21.84-11.33c-2.34-4.44-7.68-11.58-12.42-16.68l2.88-1.86c4.68,5.1,10.26,11.94,12.6,16.43Z"/><path d="M733.19,2041.84H748v-35.15h4v38.87H733.19Z"/><path d="M777.41,2008.67a9.06,9.06,0,1,1-9.06,9A9.09,9.09,0,0,1,777.41,2008.67Zm0,15.23a6.18,6.18,0,1,0,0-12.36,6.18,6.18,0,1,0,0,12.36Z"/><rect class="cls-2" x="1113.23" y="1191" width="65" height="321" rx="12"/><path class="cls-1" d="M1157.28,1229.79a27.61,27.61,0,0,0,11.5,8.1,11.65,11.65,0,0,0-2.15,2.55,30.77,30.77,0,0,1-12.8-10.65h-15.95a34.39,34.39,0,0,1-13,11.3,11.43,11.43,0,0,0-2.15-2.55,30.39,30.39,0,0,0,11.6-8.75h-11.1v-2.85h10v-16.15h-7.7V1208h7.7v-5h3.3v5H1155v-5h3.35v5H1166v2.8h-7.65v16.15h9.8v2.85Zm-10,14.5h17.3v2.85H1127v-2.85h16.9v-5.6h-10.45v-2.8h10.45v-4.4h3.35v4.4h10.65v2.8h-10.65Zm-10.8-33.5v3.6H1155v-3.6Zm0,9.8H1155v-3.65h-18.55Zm0,6.35H1155v-3.8h-18.55Z"/><path class="cls-1" d="M1141.48,1271.54s0,1.15,0,1.55c-.6,15.85-1.2,21.2-2.6,23a3.71,3.71,0,0,1-2.8,1.45,32.65,32.65,0,0,1-4.45,0,9.25,9.25,0,0,0-.85-3c1.75.15,3.2.15,3.9.15a1.42,1.42,0,0,0,1.45-.65c1-1.2,1.6-6,2.15-19.35h-6.8c-.55,10-2,18.25-6.45,23.65a9.53,9.53,0,0,0-2.55-2.35c5.45-6.45,5.9-17.85,6.1-31.55h-5.2v-3.1h20.1v3.1h-11.65c0,2.45-.1,4.85-.2,7.15Zm-7.9-10.45a33.47,33.47,0,0,0-4.25-7.15l2.9-1.15a31.92,31.92,0,0,1,4.4,7Zm23.85-7.45a15.26,15.26,0,0,1-.85,2.55c2.65,5.45,7.7,11.35,12.45,14a13,13,0,0,0-2.45,2.75c-4.25-2.7-8.5-8-11.4-13.3a32.61,32.61,0,0,1-11,13.6,12.79,12.79,0,0,0-2.35-2.65c5.85-3.6,10.35-10.2,12.5-17.85Zm-8.3,32.45a74,74,0,0,1,13.6,8.25l-2.25,2.9c-2.85-2.6-8.75-6.3-13.4-8.65Zm9.5-4.85a66.22,66.22,0,0,0-8.6-6.85l2.15-2.2a67.46,67.46,0,0,1,8.75,6.55Z"/><path class="cls-1" d="M1137.38,1340.64v7.9h-3.15v-7.9h-11.4v-3h11.4v-3.75h-9.3v-16.75h22v16.75h-9.6v3.75h11.3v3Zm-2.75-26.25h-10.1v-9.85h10.1Zm-2.6-7.45h-4.9v5h4.9Zm-4.25,17.3h6.6v-4.45h-6.6Zm0,7h6.6v-4.5h-6.6Zm19.65-16.85h-10.3v-9.85h10.3Zm-3.35,5.4h-6.85v4.45h6.85Zm0,7h-6.85v4.5h6.85Zm.7-19.8h-5.1v5h5.1Zm22,16a50.63,50.63,0,0,1-7.2,13.95c1.35,4.9,3,7.85,5.1,8,1.1,0,1.85-2.75,2.2-7.8a12.91,12.91,0,0,0,2.55,1.75c-1,7.7-2.75,10-4.7,9.9-3.35-.15-5.8-3.35-7.6-8.75a35.7,35.7,0,0,1-10,8.15,10.74,10.74,0,0,0-2.4-2.35,33.46,33.46,0,0,0,11.4-9.3,107.54,107.54,0,0,1-2.45-16l-5.6.7-.45-3,5.75-.7c-.35-4.4-.55-9.1-.75-14h3.15c.15,4.75.35,9.35.7,13.6l11.9-1.45.4,3-12,1.5a124,124,0,0,0,1.85,13,46.84,46.84,0,0,0,5.6-11.6Zm-1.75-9.15a32.82,32.82,0,0,0-6-8.45l2.5-1.4a36.73,36.73,0,0,1,6.1,8.25Z"/><path class="cls-1" d="M1166.38,1355.29v43.35h-3.3v-2.35h-34.9v2.35H1125v-43.35Zm-3.3,38v-34.9h-34.9v34.9Zm-17.2-7.9c-5.25,1.05-10.65,2.15-14.75,3l-.55-2.55c3.9-.65,9.5-1.7,15.2-2.75Zm12.3-14.55a38.63,38.63,0,0,1-5.6,12.4c1.15,2.9,2.6,4.75,4.4,5,.75.1,1.3-2,1.6-5.25a9.83,9.83,0,0,0,2.2,1.45c-.65,5.35-2.15,7.3-4.65,6.45-2.3-.45-4.1-2.3-5.5-5.15a31.26,31.26,0,0,1-6.85,6,15.66,15.66,0,0,0-2-2.1,26.23,26.23,0,0,0,7.7-6.75,70.89,70.89,0,0,1-2.8-15.1h-15.6v-2.55h15.35c-.15-1.8-.3-3.65-.4-5.55h2.9c.1,1.85.2,3.75.35,5.55h11.15v2.55h-11a73.53,73.53,0,0,0,2,12.2,35.88,35.88,0,0,0,4-9.7Zm-14.15.3v9.7h-11.1v-9.7Zm-2.5,2.15h-6.2v5.35h6.2Zm15.9-8.85a22.72,22.72,0,0,0-5.5-3.55l1.6-1.65a20.21,20.21,0,0,1,5.5,3.4Z"/><path class="cls-1" d="M1136.58,1416.44v32.1h-3.3v-32.1h-2.75a49.68,49.68,0,0,1-5.4,9.75,22.6,22.6,0,0,0-2.9-2c4-5.1,7.25-13.15,9.15-21.25l3.45.7a92.54,92.54,0,0,1-3,9.55h13.9v3.25Zm31.9,0h-7.75V1444c0,2.25-.5,3.3-2,3.85s-4.3.65-8.15.65a14.17,14.17,0,0,0-1.2-3.55c3.2.1,6.1.1,7,.1s1.1-.3,1.1-1v-27.55h-7.7a47.66,47.66,0,0,1-5.25,9.7,30.88,30.88,0,0,0-2.8-2c4-5.1,7-13.05,8.85-21.2l3.3.65a93.23,93.23,0,0,1-2.85,9.6h17.55Z"/><path class="cls-1" d="M1167.78,1478.29v2.5h-44.15v-2.5h20.25v-3.2H1127v-2.3h16.85v-3h-15.45v-2.25h15.45v-3.2h-20.15v-2.5h20.15v-3H1129v-2.35h14.85v-3.55h3.25v3.55h14.45v5.4h6.15v2.5h-6.15v5.45h-14.45v3h17.3v2.3h-17.3v3.2Zm-37.75,5h31.75v15.25h-3.25v-1.6h-25.3v1.7H1130Zm3.2,2.4v3.2h25.3v-3.2Zm25.3,8.85v-3.4h-25.3v3.4Zm-11.4-32.7h11.15v-3h-11.15Zm0,5.7h11.15v-3.2h-11.15Z"/><path class="cls-1" d="M1132.93,471.82c1.25,1.6,4.9,6.7,5.7,8.05l-2,2.45c-.7-1.5-2.35-4.4-3.75-6.65V502h-3.15V477.57c-1.5,5.05-3.5,9.9-5.55,12.85a14.83,14.83,0,0,0-1.75-3.1c2.9-4,5.8-11.5,7.2-18h-6.2v-3.15h6.3v-9.65h3.15v9.65h5.45v3.15h-5.45Zm19.1.7a19.47,19.47,0,0,0,.45,2.65c-10.15,2.7-11.6,3.15-12.5,3.75a12.13,12.13,0,0,0-1.1-3.2c.7-.2,1.55-.5,1.55-2.2v-16.7h3.25v6.5H1152v2.9h-8.35v8.3Zm2.35,5.5-2,3.75h12.65V502h-3.4v-1.75h-17v2h-3.3V481.77h7.9c.55-1.5,1.2-3.25,1.55-4.6Zm7.3,6.5h-17v5.05h17Zm0,13v-5.3h-17v5.3Zm2.25-22.4c1.25,0,1.5-.75,1.65-5.25a9.16,9.16,0,0,0,2.85,1.25c-.3,5.45-1.2,6.95-4.15,6.95h-5.85c-3.65,0-4.55-.95-4.55-4.45V456.87h3.25v6.5h10.2v2.9h-10.2v7.35c0,1.3.25,1.5,1.65,1.5Z"/><path class="cls-1" d="M1167.78,531.87v2.5h-44.15v-2.5h20.25v-3.2H1127v-2.3h16.85v-3h-15.45v-2.25h15.45v-3.2h-20.15v-2.5h20.15v-3H1129V510h14.85v-3.55h3.25V510h14.45v5.4h6.15v2.5h-6.15v5.45h-14.45v3h17.3v2.3h-17.3v3.2Zm-37.75,5h31.75v15.25h-3.25v-1.6h-25.3v1.7H1130Zm3.2,2.4v3.2h25.3v-3.2Zm25.3,8.85v-3.4h-25.3v3.4Zm-11.4-32.7h11.15v-3h-11.15Zm0,5.7h11.15v-3.2h-11.15Z"/><path d="M620.53,1554.3c-14.35,0-28.75-.08-43-2l6.78.91a119.22,119.22,0,0,1-29.95-7.81l6.09,2.57a128.33,128.33,0,0,1-27.66-16.69l5.16,4a191.45,191.45,0,0,1-34.11-34.68l4,5.16c-19.72-25.6-34.22-54.67-48.41-83.56q-26.18-53.31-50.4-107.54-13.61-30.45-26.56-61.17l2.57,6.09q-3.24-7.66-6.44-15.37A28.55,28.55,0,0,0,366.87,1229a18.9,18.9,0,0,0-9.48-3,19.34,19.34,0,0,0-10.17.45c-6.17,2-12.12,5.83-15.24,11.72l-2.57,6.09a25.78,25.78,0,0,0,0,13.56q20.23,48.65,41.88,96.67,20.5,45.35,42.4,90c12,24.51,24.08,49.12,39.25,71.87a279.81,279.81,0,0,0,28,35.82,198,198,0,0,0,34.46,29.15,129.56,129.56,0,0,0,44.16,19.13c16.34,3.57,33.18,4.61,49.86,4.79,3.71,0,7.42,0,11.14,0a26.33,26.33,0,0,0,18-7.47,28.44,28.44,0,0,0,7.47-18c-.3-6.6-2.46-13.44-7.47-18s-11.12-7.47-18-7.47Z"/><path d="M620,1276.08c-14.85.12-29.69.6-44.51,1.56-16.82,1.1-33.54,3-50.23,5.28a440.43,440.43,0,0,0-84.33,19.8,404.61,404.61,0,0,0-50.76,21.58A24.54,24.54,0,0,0,378,1349.71a18.9,18.9,0,0,0,3,9.48l4,5.16a25.48,25.48,0,0,0,11.26,6.56l6.77.91a25.46,25.46,0,0,0,12.87-3.48q11.16-5.7,22.69-10.57l-6.09,2.57a404.9,404.9,0,0,1,83.81-24.61q12.31-2.28,24.72-3.94l-6.78.91a651.12,651.12,0,0,1,66.61-5.26q9.55-.29,19.13-.36a26.23,26.23,0,0,0,25.5-25.5l-.91-6.78a25.45,25.45,0,0,0-6.56-11.25c-5-4.56-11.14-7.53-18-7.47Z"/><path d="M619.47,1605.3c7.57,0,15.14,0,22.71-.32a274.71,274.71,0,0,0,28.18-2.72,124.06,124.06,0,0,0,20.51-4.58,130,130,0,0,0,25.4-11.14,154.66,154.66,0,0,0,16.68-11.2,220.16,220.16,0,0,0,19.39-16.29c10.94-10.57,20.5-22.56,29.35-34.91,15.44-21.58,27.64-45.25,39.37-69q22-44.48,42.6-89.61,21.9-47.92,42.23-96.53,2.36-5.62,4.7-11.24a19.34,19.34,0,0,0,.45-10.17,19,19,0,0,0-3-9.48,28.62,28.62,0,0,0-15.24-11.72c-6.53-1.48-13.86-1.16-19.65,2.58l-5.16,4a25.51,25.51,0,0,0-6.56,11.25q-3.2,7.69-6.44,15.37l2.57-6.09q-23.07,54.66-48.13,108.46-12.61,27.06-25.72,53.9c-7.39,15.13-14.79,30.26-22.86,45a339.82,339.82,0,0,1-28.66,44.87l4-5.16a191.45,191.45,0,0,1-34.11,34.68l5.16-4A128.33,128.33,0,0,1,679.55,1548l6.09-2.57a119.25,119.25,0,0,1-29.94,7.81l6.77-.91c-14.24,1.89-28.65,2-43,2a26.29,26.29,0,0,0-18,7.47,28.38,28.38,0,0,0-7.47,18c.3,6.59,2.47,13.43,7.47,18s11.12,7.47,18,7.47Z"/><path d="M620,1327.08c22.37.18,44.74,1.18,67,3.42q9.39,1,18.74,2.2l-6.78-.91c28.95,3.91,57.64,10.16,85.29,19.67q11.76,4.05,23.24,8.88l-6.09-2.57q11.52,4.88,22.69,10.57a18.92,18.92,0,0,0,9.48,3,26.18,26.18,0,0,0,25.4-12.17l2.58-6.09a25.78,25.78,0,0,0,0-13.56l-2.58-6.09a25.61,25.61,0,0,0-9.14-9.15A403.23,403.23,0,0,0,762.47,1292c-14-3.42-28.16-6.14-42.41-8.27-16.64-2.48-33.36-4.43-50.14-5.66-16.61-1.22-33.26-1.81-49.92-1.94a28.3,28.3,0,0,0-18,7.47,19,19,0,0,0-5.27,8.2,19.22,19.22,0,0,0-2.2,9.83l.91,6.78a25.45,25.45,0,0,0,6.56,11.25l5.16,4a25.52,25.52,0,0,0,12.87,3.48Z"/><line class="cls-3" x1="501.77" y1="1124.57" x2="738.23" y2="1123"/></svg>