<svg id="Layer_1" data-name="Layer 1" xmlns="http://www.w3.org/2000/svg" viewBox="0 0 1242 2208"><defs><style>.cls-1{fill:#f6eabe;}.cls-2{fill:#b3b3b3;}.cls-3{fill:gray;}.cls-4{fill:#999;}.cls-5{fill:none;stroke:#000;stroke-linecap:round;stroke-miterlimit:10;stroke-width:50px;}</style></defs><rect class="cls-1" width="1242" height="2208"/><path d="M673.82,378.41c73,136.56,199.29,274.72,318.39,341.41-12.71,10.33-31,30.18-40.5,45.26C841.35,696,727.81,567.38,650,433.19v420H595.21V434c-76.22,137.36-189,264.4-303.3,332.68-9.53-13.5-27-33.35-38.91-43.67,122.28-66.7,245.34-204.85,317.6-344.59H282.38V326H595.21V130.68H650V326H966v52.41Z"/><path d="M230.06,1920c-.72-1.92-2.46-5.7-4-8.7v29h-3.48V1912c-1.74,6.61-4,13-6.42,16.92a22.27,22.27,0,0,0-2-3.24c3.24-5.1,6.54-14.82,8.1-23.16h-7v-3.65h7.26v-13.08h3.48v13.08h5.58v3.65H226.1v4c1.44,2.27,5.22,8.81,6.06,10.43Zm20.22,3.12c-1.14,3.36-2.46,7.2-3.6,10.08,2.28-.36,4.62-.78,6.9-1.14l.24,3.36c-8,1.38-16.5,2.7-22.62,3.72l-1-3.54c3.66-.48,8.58-1.2,13.92-2l-1-.3a78.58,78.58,0,0,0,3.48-11Zm-10-27.77h-8.76v-3.3h8.76v-6.12h3.48v6.12h8.88v3.3H243.8v5.57h7.5v3.31H232.82v-3.31h7.5Zm10.5,25.61h-17.4v-13.31h17.4Zm-14,12.24a44,44,0,0,0-2.52-9.84l3.24-.78a48.58,48.58,0,0,1,2.7,9.66Zm10.44-22.56h-10.5v7.26h10.5Zm22.08-7.49h-3.72v32.45c0,2.34-.6,3.54-2,4.2s-4,.72-7.68.72a16.45,16.45,0,0,0-1.26-3.78c2.82.06,5.34.06,6.18.06s1-.3,1-1.14v-32.51h-9.3v-3.61h9.3V1886h3.72v13.55h3.72Zm-12.78,21.17a77.39,77.39,0,0,0-3.54-14.75l3.06-.85a73.94,73.94,0,0,1,3.72,14.52Z"/><path d="M293.36,1918.32c-1.08-2.22-3.72-6.78-5.76-10.19v32.21h-3.9v-29.88c-2.1,6.9-4.92,13.56-7.74,17.58a18.38,18.38,0,0,0-2.22-3.78c3.9-5,7.8-14.69,9.72-23.09h-8.28v-3.78h8.52v-11.58h3.9v11.58H295v3.78H287.6v2c1.8,2.33,7.08,10.2,8.28,12Zm32.82-9a43.85,43.85,0,0,1-11.76,19.55,39.77,39.77,0,0,0,15.66,8.1,17.84,17.84,0,0,0-2.58,3.36,40.75,40.75,0,0,1-16-8.88,51.53,51.53,0,0,1-17.1,9,13.93,13.93,0,0,0-2.22-3.42,47.5,47.5,0,0,0,16.5-8.28,47.08,47.08,0,0,1-9.78-16.5l.6-.18h-2.16v-3.66h12.18v-9.29h-12.9v-3.72h12.9v-9.6h4v9.6h14.1v3.72h-14.1v9.29H323l.78-.17Zm-23.46,2.75a40.79,40.79,0,0,0,8.88,14.22,38.14,38.14,0,0,0,9.66-14.22Z"/><path d="M355.16,1899.13a67.9,67.9,0,0,1-7.2,12.24v28.85h-4v-24a41.57,41.57,0,0,1-7.26,6.41,17,17,0,0,0-2-3.48c7-5,12.3-12.23,16.14-20H336v-3.84h16.44a65.25,65.25,0,0,0,3.3-9.42l4.08,1c-.9,2.82-1.86,5.64-3,8.4H388.1v3.84Zm32.94,36.23v3.72H352v-3.72h16v-17.52H354.32v-3.71H368v-11.82h4v11.82h13.8v3.71H372v17.52Z"/><path d="M448.76,1933.68v4H395.3v-4h22.62v-46.85h4.14v18.54h22.62v4H422.06v24.3Z"/><path d="M460.88,1921.5c4.68-2,7.26-4.86,7.56-9.17a4,4,0,0,1-1.14.11c-2.34,0-4.26-1.31-4.26-4.07a4,4,0,0,1,4.32-4.08c3.18,0,4.86,2.58,4.86,6.66,0,6.41-4,11.21-10.08,13.43Z"/><path d="M500.06,1920c-.72-1.92-2.46-5.7-4-8.7v29h-3.48V1912c-1.74,6.61-4,13-6.42,16.92a22.27,22.27,0,0,0-2-3.24c3.24-5.1,6.54-14.82,8.1-23.16h-7v-3.65h7.26v-13.08h3.48v13.08h5.58v3.65H496.1v4c1.44,2.27,5.22,8.81,6.06,10.43Zm20.22,3.12c-1.14,3.36-2.46,7.2-3.6,10.08,2.28-.36,4.62-.78,6.9-1.14l.24,3.36c-8,1.38-16.5,2.7-22.62,3.72l-1-3.54c3.66-.48,8.58-1.2,13.92-2l-1-.3a78.58,78.58,0,0,0,3.48-11Zm-10-27.77h-8.76v-3.3h8.76v-6.12h3.48v6.12h8.88v3.3H513.8v5.57h7.5v3.31H502.82v-3.31h7.5Zm10.5,25.61h-17.4v-13.31h17.4Zm-14,12.24a44,44,0,0,0-2.52-9.84l3.24-.78a48.58,48.58,0,0,1,2.7,9.66Zm10.44-22.56h-10.5v7.26h10.5Zm22.08-7.49h-3.72v32.45c0,2.34-.6,3.54-2,4.2s-4,.72-7.68.72a16.45,16.45,0,0,0-1.26-3.78c2.82.06,5.34.06,6.18.06s1-.3,1-1.14v-32.51h-9.3v-3.61h9.3V1886h3.72v13.55h3.72Zm-12.78,21.17a77.39,77.39,0,0,0-3.54-14.75l3.06-.85a73.94,73.94,0,0,1,3.72,14.52Z"/><path d="M587.6,1886c-.54,1.32-1.14,2.58-1.74,3.9,3.36,5.64,9.36,12,14.28,15.06a13.9,13.9,0,0,0-2.64,2.76c-4.38-3.18-9.66-9.06-13.26-14.76a46.36,46.36,0,0,1-13.08,14.88,15.62,15.62,0,0,0-2.28-2.7V1921h-8.7v5h11.1v3.66h-11.1v10.86h-3.9V1929.6H544.76v-3.66h11.52v-5h-8.76v-19.67h8.76v-4.92H545.42v-3.54h10.86V1886h3.9v6.84h10.56v3.54H560.18v4.92h8.7v3.29c6.18-3.95,12.24-11.87,15.36-19.67Zm-22.44,18.54h-14v5h14Zm0,8.1h-14v5.09h14Zm21.42,8.51h11.16v3.72H586.58v15.66h-4v-15.66h-11.4v-3.72h11.4V1911h-8.88v-3.73h21.42V1911h-8.58Z"/><path d="M625.16,1899.13a67.9,67.9,0,0,1-7.2,12.24v28.85h-4v-24a41.57,41.57,0,0,1-7.26,6.41,17,17,0,0,0-2-3.48c7-5,12.3-12.23,16.14-20H606v-3.84h16.44a65.25,65.25,0,0,0,3.3-9.42l4.08,1c-.9,2.82-1.86,5.64-3,8.4H658.1v3.84Zm32.94,36.23v3.72H622v-3.72h16v-17.52H624.32v-3.71H638v-11.82h4v11.82h13.8v3.71H642v17.52Z"/><path d="M715.82,1896.55v27.77h-4.08v-3.48H693.92v19.56h-4.14v-19.56H672v3.78h-4v-28.07h21.72v-10.74h4.14v10.74Zm-26,20.33v-16.43H672v16.43Zm22,0v-16.43H693.92v16.43Z"/><path d="M730.88,1921.5c4.68-2,7.26-4.86,7.56-9.17a4,4,0,0,1-1.14.11c-2.34,0-4.26-1.31-4.26-4.07a4,4,0,0,1,4.32-4.08c3.18,0,4.86,2.58,4.86,6.66,0,6.41-4,11.21-10.08,13.43Z"/><path d="M770.06,1920c-.72-1.92-2.46-5.7-4-8.7v29h-3.48V1912c-1.74,6.61-4,13-6.42,16.92a22.27,22.27,0,0,0-2-3.24c3.24-5.1,6.54-14.82,8.1-23.16h-7v-3.65h7.26v-13.08h3.48v13.08h5.58v3.65H766.1v4c1.44,2.27,5.22,8.81,6.06,10.43Zm20.22,3.12c-1.14,3.36-2.46,7.2-3.6,10.08,2.28-.36,4.62-.78,6.9-1.14l.24,3.36c-8,1.38-16.5,2.7-22.62,3.72l-1-3.54c3.66-.48,8.58-1.2,13.92-2l-1-.3a78.58,78.58,0,0,0,3.48-11Zm-10-27.77h-8.76v-3.3h8.76v-6.12h3.48v6.12h8.88v3.3H783.8v5.57h7.5v3.31H772.82v-3.31h7.5Zm10.5,25.61h-17.4v-13.31h17.4Zm-14,12.24a44,44,0,0,0-2.52-9.84l3.24-.78a48.58,48.58,0,0,1,2.7,9.66Zm10.44-22.56h-10.5v7.26h10.5Zm22.08-7.49h-3.72v32.45c0,2.34-.6,3.54-2,4.2s-4,.72-7.68.72a16.45,16.45,0,0,0-1.26-3.78c2.82.06,5.34.06,6.18.06s1-.3,1-1.14v-32.51h-9.3v-3.61h9.3V1886h3.72v13.55h3.72Zm-12.78,21.17a77.39,77.39,0,0,0-3.54-14.75l3.06-.85a73.94,73.94,0,0,1,3.72,14.52Z"/><path d="M828.26,1897.39h7.2v3.78h-7.2v3.06c1.62,2.22,6,8.94,7,10.67l-2.4,2.88c-.84-1.86-2.88-5.64-4.56-8.64v31.26h-3.72v-30.23c-2.1,7-5,13.79-7.92,17.87a21,21,0,0,0-2.22-3.72c3.9-5.1,7.8-14.75,9.72-23.15H815.3v-3.78h9.24v-11.58h3.72Zm39.6,22.07a77.93,77.93,0,0,1-10.68,7.26,27,27,0,0,0,12.42,9.84,19.57,19.57,0,0,0-2.76,3.48c-9.72-4.32-15.66-13.56-18.78-25.5h-6.3V1935l11.34-2.76a20.69,20.69,0,0,0,.18,3.48c-12.48,3.48-14.22,4-15.3,4.8a18.6,18.6,0,0,0-1.68-3.48c.72-.42,1.56-1.08,1.56-3.36v-45.17h26.46v26H851.6a40.25,40.25,0,0,0,3.78,9.3,76.49,76.49,0,0,0,9.84-7.13Zm-26.1-27.41v7.68h18.66v-7.68Zm0,19h18.66v-7.92H841.76Z"/><path d="M895.16,1899.13a67.9,67.9,0,0,1-7.2,12.24v28.85h-4v-24a41.57,41.57,0,0,1-7.26,6.41,17,17,0,0,0-2-3.48c7-5,12.3-12.23,16.14-20H876v-3.84h16.44a65.25,65.25,0,0,0,3.3-9.42l4.08,1c-.9,2.82-1.86,5.64-3,8.4H928.1v3.84Zm32.94,36.23v3.72H892v-3.72h16v-17.52H894.32v-3.71H908v-11.82h4v11.82h13.8v3.71H912v17.52Z"/><path d="M963,1894.21v10.86l.66-.78c7.32,3.54,16.74,8.93,21.54,12.53l-2.76,3.6c-4.2-3.42-12.48-8.46-19.44-12.12v32.1h-4.2v-46.19H935.54v-4h53v4Z"/><path d="M1000.88,1921.5c4.68-2,7.26-4.86,7.56-9.17a4,4,0,0,1-1.14.11c-2.34,0-4.26-1.31-4.26-4.07a4,4,0,0,1,4.32-4.08c3.18,0,4.86,2.58,4.86,6.66,0,6.41-4,11.21-10.08,13.43Z"/><path d="M471.92,1959.19a98.85,98.85,0,0,1-6.18,13.56v39.59H461.9V1979a61.73,61.73,0,0,1-5.46,7,32.86,32.86,0,0,0-2.28-3.9c5.58-5.87,10.8-14.87,14-24Zm34.14,28c-2.1,1.26-4.44,2.64-6.84,3.78,2,6.06,5.82,11.82,10.38,14.52a11.2,11.2,0,0,0-2.64,2.94c-4.62-3.18-8.46-9.42-10.68-16a27.45,27.45,0,0,1-2.76,1.2c2.58,6.84,1.86,14-1,16.68a6.91,6.91,0,0,1-5.22,1.92c-1.08,0-2.4-.06-3.78-.18a9.31,9.31,0,0,0-1-3.42,38.26,38.26,0,0,0,4.14.24,3.66,3.66,0,0,0,3.12-1.14c1.56-1.38,2.22-5.16,1.44-9.36-5.16,4.92-13.08,9.36-19.8,11.7a15.8,15.8,0,0,0-2.34-2.82c7.62-2.28,16.62-7.14,21.3-12.24a35.76,35.76,0,0,0-1.5-3.48,63.52,63.52,0,0,1-17.22,9.9,16.14,16.14,0,0,0-2.22-2.64c5.94-1.8,13.74-5.76,17.88-9.54a16.39,16.39,0,0,0-2.94-3.18,58.44,58.44,0,0,1-13.56,7.26,11.26,11.26,0,0,0-2.22-2.58,52.7,52.7,0,0,0,15.06-7.55H473.48v-9.36c-1.14,1-2.28,2-3.54,2.94a9.37,9.37,0,0,0-2.52-2.58,44.69,44.69,0,0,0,13.86-16.26l3.84.72c-.6,1.2-1.32,2.34-2,3.54h11.1l.72-.18,2.34,1.68a52.13,52.13,0,0,1-4.8,6.84h13.08v12.66H487.94c-.36.36-.78.66-1.2,1a21,21,0,0,1,5.64,6.84,110,110,0,0,0,10.92-6.42ZM481,1965.31a54.58,54.58,0,0,1-4.2,5.16h11.58a37.88,37.88,0,0,0,3.72-5.16Zm-3.9,14.69h10.5v-6.42h-10.5Zm24.72-6.42H491.18V1980H501.8Z"/><path d="M569.36,1982.41v4.31H514.88v-4.31Z"/><path d="M593.24,1989.67c-.9-2-3.24-6.37-5-9.6v32.27h-3.84V1982c-2.1,7-5,13.91-7.92,18a18,18,0,0,0-2.22-3.72c3.9-5.09,7.8-14.69,9.72-23.09h-8.4v-3.78h8.82v-11.58h3.84v11.58h7.86v3.78H588.2v2c1.62,2.1,6.48,9.77,7.5,11.64Zm24-2.17c3.06,7.26,8.34,14.58,13.26,18.42a11.66,11.66,0,0,0-2.88,3.06c-4.8-4.26-9.66-11.82-12.84-19.38v22.86h-3.9v-22.32c-3.72,7.86-9.36,15.18-15.06,19.32a13.3,13.3,0,0,0-2.76-3.06c5.94-3.78,11.94-11.28,15.42-18.9H596.42v-3.66h14.46v-11h-7.74a38.56,38.56,0,0,1-4,9.05,21.81,21.81,0,0,0-3.3-2c3.24-4.74,5.16-11.94,6.18-19.32l3.78.66a80.33,80.33,0,0,1-1.68,7.92h6.78v-11.34h3.9v11.34H626.6v3.66H614.78v11h14v3.66Z"/><path d="M650.06,1992c-.72-1.92-2.46-5.7-4-8.7v29h-3.48V1984c-1.74,6.61-4,13-6.42,16.92a22.27,22.27,0,0,0-2-3.24c3.24-5.1,6.54-14.82,8.1-23.16h-7v-3.65h7.26v-13.08h3.48v13.08h5.58v3.65H646.1v4c1.44,2.27,5.22,8.81,6.06,10.43Zm20.22,3.12c-1.14,3.36-2.46,7.2-3.6,10.08,2.28-.36,4.62-.78,6.9-1.14l.24,3.36c-8,1.38-16.5,2.7-22.62,3.72l-1-3.54c3.66-.48,8.58-1.2,13.92-2l-1-.3a78.58,78.58,0,0,0,3.48-11Zm-10-27.77h-8.76v-3.3h8.76v-6.12h3.48v6.12h8.88v3.3H663.8v5.57h7.5v3.31H652.82v-3.31h7.5Zm10.5,25.61h-17.4v-13.31h17.4Zm-14,12.24a44,44,0,0,0-2.52-9.84l3.24-.78a48.58,48.58,0,0,1,2.7,9.66Zm10.44-22.56h-10.5v7.26h10.5Zm22.08-7.49h-3.72v32.45c0,2.34-.6,3.54-2,4.2s-4,.72-7.68.72a16.45,16.45,0,0,0-1.26-3.78c2.82.06,5.34.06,6.18.06s1-.3,1-1.14v-32.51h-9.3v-3.61h9.3V1958h3.72v13.55h3.72Zm-12.78,21.17a77.39,77.39,0,0,0-3.54-14.75l3.06-.85a73.94,73.94,0,0,1,3.72,14.52Z"/><path d="M725.84,1976.65c5.52,10.31,15.06,20.75,24.06,25.79a16.83,16.83,0,0,0-3.06,3.42c-8.34-5.22-16.92-14.94-22.8-25.07v31.73H719.9v-31.68c-5.76,10.38-14.28,20-22.92,25.14a22.2,22.2,0,0,0-2.94-3.3c9.24-5,18.54-15.47,24-26H696.26v-4H719.9v-14.76H724v14.76h23.88v4Z"/><path d="M767.18,1976.17a9.06,9.06,0,1,1-9.06,9A9.09,9.09,0,0,1,767.18,1976.17Zm0,15.23a6.18,6.18,0,1,0,0-12.36,6.18,6.18,0,1,0,0,12.36Z"/><path d="M488.9,2046.67c4.44,10.31,12.24,20,20.76,24.71a23.11,23.11,0,0,0-3.06,3.36c-9-5.58-16.92-16.32-21.6-28.07h-1v22.43h14.28v4H484v11.4H479.9v-11.4H465.68v-4H479.9v-22.43h-1.08c-4.74,11.75-12.66,22.43-21.3,28.25a24.18,24.18,0,0,0-2.88-3.18c8-4.92,15.66-14.76,20.16-25.07H456.14v-4H479.9v-12.72H484v12.72h24v4Z"/><path d="M563.9,2069a33.64,33.64,0,0,1-8.22,7.38c2.4,2.82,5.22,4.44,8.16,4.38,1.68-.06,2.16-1.5,2.46-5.94a10.31,10.31,0,0,0,3.12,1.62c-.6,6.3-2.1,7.92-5.76,8-4.26,0-8.16-2.22-11.28-6a74.41,74.41,0,0,1-13.68,5.82,36.46,36.46,0,0,0-2.1-3.24,65.61,65.61,0,0,0,13.86-5.34,34.94,34.94,0,0,1-3.84-8.82H532.16v4.38l11.16-1-.06,2.88-11.1,1.08v6.12c0,2.1-.48,3.06-2.16,3.54s-4.38.54-8.94.54a19.42,19.42,0,0,0-1.26-3.18c3.36.12,6.48.06,7.38,0s1.2-.24,1.2-1v-5.7c-4.74.48-9.12.9-12.72,1.2l-.42-3.3c3.54-.24,8.1-.54,13.14-1v-4.68h-12.9v-3.18h12.9v-4.44c-3.78.42-7.68.72-11.28.91a12,12,0,0,0-.9-2.71c8.16-.48,18.18-1.55,23.52-2.94l2.52,2.58c-2.82.66-6.36,1.26-10.08,1.74v4.86h13.68a52.67,52.67,0,0,1-1.2-8.94h3.84a57.48,57.48,0,0,0,1.2,8.94h19v3.18H550.58a31.91,31.91,0,0,0,3.12,6.9,27.09,27.09,0,0,0,6.72-5.94Zm4.62-15.17h-53v-3.24H539.9v-4.14H521.3v-3.06h18.6v-4H518.06v-3.18h12.66a30,30,0,0,0-3.48-5.16l3.42-1.26a24.4,24.4,0,0,1,4.32,6.24l-.42.18H549.2a54.7,54.7,0,0,0,3.6-6.6l4.14,1.2c-1.2,1.86-2.52,3.84-3.72,5.4h12.84v3.18H543.92v4h18.9v3.06h-18.9v4.14h24.6Zm-5.7,9a34,34,0,0,0-9.48-5.52l2.16-2.46a38.32,38.32,0,0,1,9.66,5.22Z"/><path d="M627.74,2061.67s-.06,1.19-.12,1.73c-1.14,12.66-2.28,17.64-4.14,19.56a5.52,5.52,0,0,1-4,1.56,66.58,66.58,0,0,1-7.5-.12,9.39,9.39,0,0,0-1.2-3.66c3.12.3,6.06.3,7.2.3a3,3,0,0,0,2.22-.54c1.26-1.32,2.4-5.34,3.36-15.3H586a59.21,59.21,0,0,1-9.66,7.32,19.86,19.86,0,0,0-2.22-3.3c10.26-6,17.82-15.18,23.1-25.43h-20v-3.66H599a82.29,82.29,0,0,0,3.84-10.32l3.9,1a92.32,92.32,0,0,1-3.54,9.3H619c-.72,3.48-1.56,7.62-2.34,10.74h7c-.66,3.47-1.5,7.67-2.28,10.8ZM578.36,2082c3.42-3.24,5.7-8.58,7-13.2l3.3,1.08c-1.44,4.92-3.54,10.62-7.14,14.16Zm12.42-42.17a39,39,0,0,0-6-8.34l3.42-1.44a39.57,39.57,0,0,1,6.18,8Zm26.82,21.84c.54-2.11,1.08-4.69,1.56-7.21H595.34a75.18,75.18,0,0,1-5.76,7.21Zm-21.48,7.91a44,44,0,0,1,1.8,11.88l-3.48.54a39.57,39.57,0,0,0-1.62-11.94Zm5.4-25.79c-1.14,2.4-2.46,4.79-3.84,7.08h15.24c.54-2,1.14-4.62,1.62-7.08Zm3.18,24.95a43,43,0,0,1,3.6,10.26l-3.3.9a45.91,45.91,0,0,0-3.42-10.44Zm10.32,8a38.83,38.83,0,0,0-4.56-8.1l2.76-1.08a34.18,34.18,0,0,1,4.74,7.86Z"/><path d="M650.06,2064c-.72-1.92-2.46-5.7-4-8.7v29h-3.48V2056c-1.74,6.61-4,13-6.42,16.92a22.27,22.27,0,0,0-2-3.24c3.24-5.1,6.54-14.82,8.1-23.16h-7v-3.65h7.26v-13.08h3.48v13.08h5.58v3.65H646.1v4c1.44,2.27,5.22,8.81,6.06,10.43Zm20.22,3.12c-1.14,3.36-2.46,7.2-3.6,10.08,2.28-.36,4.62-.78,6.9-1.14l.24,3.36c-8,1.38-16.5,2.7-22.62,3.72l-1-3.54c3.66-.48,8.58-1.2,13.92-2l-1-.3a78.58,78.58,0,0,0,3.48-11Zm-10-27.77h-8.76v-3.3h8.76v-6.12h3.48v6.12h8.88v3.3H663.8v5.57h7.5v3.31H652.82v-3.31h7.5Zm10.5,25.61h-17.4v-13.31h17.4Zm-14,12.24a44,44,0,0,0-2.52-9.84l3.24-.78a48.58,48.58,0,0,1,2.7,9.66Zm10.44-22.56h-10.5v7.26h10.5Zm22.08-7.49h-3.72v32.45c0,2.34-.6,3.54-2,4.2s-4,.72-7.68.72a16.45,16.45,0,0,0-1.26-3.78c2.82.06,5.34.06,6.18.06s1-.3,1-1.14v-32.51h-9.3v-3.61h9.3V2030h3.72v13.55h3.72Zm-12.78,21.17a77.39,77.39,0,0,0-3.54-14.75l3.06-.85a73.94,73.94,0,0,1,3.72,14.52Z"/><path d="M725.84,2048.65c5.52,10.31,15.06,20.75,24.06,25.79a16.83,16.83,0,0,0-3.06,3.42c-8.34-5.22-16.92-14.94-22.8-25.07v31.73H719.9v-31.68c-5.76,10.38-14.28,20-22.92,25.14a22.2,22.2,0,0,0-2.94-3.3c9.24-5,18.54-15.47,24-26H696.26v-4H719.9v-14.76H724v14.76h23.88v4Z"/><path d="M767.18,2048.17a9.06,9.06,0,1,1-9.06,9A9.09,9.09,0,0,1,767.18,2048.17Zm0,15.23a6.18,6.18,0,1,0,0-12.36,6.18,6.18,0,1,0,0,12.36Z"/><rect class="cls-2" x="1134" y="1207" width="65" height="269" rx="12"/><path class="cls-1" d="M1178.05,1245.79a27.61,27.61,0,0,0,11.5,8.1,11.65,11.65,0,0,0-2.15,2.55,30.77,30.77,0,0,1-12.8-10.65h-15.95a34.39,34.39,0,0,1-13,11.3,11.43,11.43,0,0,0-2.15-2.55,30.39,30.39,0,0,0,11.6-8.75H1144v-2.85h10v-16.15h-7.7V1224h7.7v-5h3.3v5h18.55v-5h3.35v5h7.65v2.8h-7.65v16.15h9.8v2.85Zm-10,14.5h17.3v2.85H1147.8v-2.85h16.9v-5.6h-10.45v-2.8h10.45v-4.4h3.35v4.4h10.65v2.8h-10.65Zm-10.8-33.5v3.6h18.55v-3.6Zm0,9.8h18.55v-3.65h-18.55Zm0,6.35h18.55v-3.8h-18.55Z"/><path class="cls-1" d="M1162.25,1287.54s0,1.15,0,1.55c-.6,15.85-1.2,21.2-2.6,23a3.71,3.71,0,0,1-2.8,1.45,32.65,32.65,0,0,1-4.45,0,9.25,9.25,0,0,0-.85-3c1.75.15,3.2.15,3.9.15a1.42,1.42,0,0,0,1.45-.65c1-1.2,1.6-6,2.15-19.35h-6.8c-.55,10-2,18.25-6.45,23.65a9.53,9.53,0,0,0-2.55-2.35c5.45-6.45,5.9-17.85,6.1-31.55h-5.2v-3.1h20.1v3.1h-11.65c0,2.45-.1,4.85-.2,7.15Zm-7.9-10.45a33.47,33.47,0,0,0-4.25-7.15l2.9-1.15a31.92,31.92,0,0,1,4.4,7Zm23.85-7.45a15.26,15.26,0,0,1-.85,2.55c2.65,5.45,7.7,11.35,12.45,14a13,13,0,0,0-2.45,2.75c-4.25-2.7-8.5-8-11.4-13.3a32.61,32.61,0,0,1-11,13.6,12.79,12.79,0,0,0-2.35-2.65c5.85-3.6,10.35-10.2,12.5-17.85Zm-8.3,32.45a74,74,0,0,1,13.6,8.25l-2.25,2.9c-2.85-2.6-8.75-6.3-13.4-8.65Zm9.5-4.85a66.22,66.22,0,0,0-8.6-6.85l2.15-2.2a67.46,67.46,0,0,1,8.75,6.55Z"/><path class="cls-1" d="M1185,1322.19v29.3h-3.5v-2.55h-13.3v15.6h-3.45v-15.6h-13.4v2.75H1148v-29.5Zm-33.65,3.2V1334h13.4v-8.65Zm13.4,20.35v-8.5h-13.4v8.5Zm16.75-20.35h-13.3V1334h13.3Zm0,20.35v-8.5h-13.3v8.5Z"/><path class="cls-1" d="M1187.25,1384.09v9.3h-3.15V1387h-35.4v6.4h-3v-9.3h6.95v-12.95h27.7v12.95Zm-6.45,26.6c0,1.85-.45,2.7-1.85,3.2s-3.9.5-7.7.45a8.57,8.57,0,0,0-1.1-2.75c3,.05,5.65.05,6.4.05s1-.25,1-1v-6.2c-7.3,1.45-14.85,3-20.45,4l-1.1-3c5.4-.8,13.6-2.3,21.55-3.75V1393h-22.2v5.3c0,4.85-.65,11.55-4.35,16.2a13.29,13.29,0,0,0-2.7-2c3.45-4.25,3.85-10,3.85-14.25v-8h28.6Zm-25-26.6h7.45v-6.9H1177v-3.35h-21.2Zm2.45,11.7a75.14,75.14,0,0,1,17.7,3l-.9,2.6c-4-1.5-11.7-2.9-17.7-3.35Zm18.75-16.3h-10.75v4.6H1177Z"/><path class="cls-1" d="M1181,1431.09a51.83,51.83,0,0,1-12,19.6,49.94,49.94,0,0,0,20.5,10.5,16.79,16.79,0,0,0-2.25,3,50.92,50.92,0,0,1-20.75-11.1c-5.65,5-12.55,8.6-21,11.3a15.53,15.53,0,0,0-2-3.05c8.35-2.45,15.1-5.9,20.6-10.6a57.05,57.05,0,0,1-12.2-19.65h-7.75v-3.25h44.75v3.25Zm-25.75,0a52.13,52.13,0,0,0,11.3,17.3,47.46,47.46,0,0,0,10.7-17.3Zm11.25-3.55a38.13,38.13,0,0,0-3.8-7.8l3.4-1a39,39,0,0,1,4,7.65Z"/><rect class="cls-2" x="1135" y="427.5" width="65" height="126" rx="12"/><path class="cls-1" d="M1154.7,457.32c1.25,1.6,4.9,6.7,5.7,8.05l-2,2.45c-.7-1.5-2.35-4.4-3.75-6.65v26.35h-3.15V463.07c-1.5,5.05-3.5,9.9-5.55,12.85a14.83,14.83,0,0,0-1.75-3.1c2.9-4,5.8-11.5,7.2-18h-6.2v-3.15h6.3V442h3.15v9.65h5.45v3.15h-5.45Zm19.1.7a19.47,19.47,0,0,0,.45,2.65c-10.15,2.7-11.6,3.15-12.5,3.75a12.13,12.13,0,0,0-1.1-3.2c.7-.2,1.55-.5,1.55-2.2v-16.7h3.25v6.5h8.35v2.9h-8.35V460Zm2.35,5.5-2,3.75h12.65v20.25h-3.4v-1.75h-17v2h-3.3V467.27h7.9c.55-1.5,1.2-3.25,1.55-4.6Zm7.3,6.5h-17v5.05h17Zm0,13v-5.3h-17V483Zm2.25-22.4c1.25,0,1.5-.75,1.65-5.25a9.16,9.16,0,0,0,2.85,1.25c-.3,5.45-1.2,6.95-4.15,6.95h-5.85c-3.65,0-4.55-.95-4.55-4.45V442.37h3.25v6.5h10.2v2.9h-10.2v7.35c0,1.3.25,1.5,1.65,1.5Z"/><path class="cls-1" d="M1189.55,517.37v2.5H1145.4v-2.5h20.25v-3.2H1148.8v-2.3h16.85v-3H1150.2v-2.25h15.45v-3.2H1145.5v-2.5h20.15v-3.05H1150.8v-2.35h14.85V492h3.25v3.55h14.45v5.4h6.15v2.5h-6.15v5.45H1168.9v3h17.3v2.3h-17.3v3.2Zm-37.75,5h31.75v15.25h-3.25V536H1155v1.7h-3.2Zm3.2,2.4V528h25.3v-3.2Zm25.3,8.85v-3.4H1155v3.4Zm-11.4-32.7h11.15v-3.05H1168.9Zm0,5.7h11.15v-3.2H1168.9Z"/><path class="cls-3" d="M108.07,1101.83c-.72-1.92-2.46-5.7-4-8.7v29h-3.48v-28.32c-1.74,6.6-4,13-6.42,16.92a22.27,22.27,0,0,0-2-3.24c3.24-5.1,6.54-14.82,8.1-23.16h-7v-3.66h7.26v-13.08h3.48v13.08h5.58v3.66h-5.58v4c1.44,2.28,5.22,8.82,6.06,10.44Zm20.22,3.12c-1.14,3.36-2.46,7.2-3.6,10.08,2.28-.36,4.62-.78,6.9-1.14l.24,3.36c-8,1.38-16.5,2.7-22.62,3.72l-1-3.54c3.66-.48,8.58-1.2,13.92-2l-1-.3a78.58,78.58,0,0,0,3.48-11Zm-10-27.78h-8.76v-3.3h8.76v-6.12h3.48v6.12h8.88v3.3h-8.88v5.58h7.5v3.3H110.83v-3.3h7.5Zm10.5,25.62h-17.4v-13.32h17.4Zm-14,12.24a44,44,0,0,0-2.52-9.84l3.24-.78a48.58,48.58,0,0,1,2.7,9.66Zm10.44-22.56h-10.5v7.26h10.5Zm22.08-7.5h-3.72v32.46c0,2.34-.6,3.54-2,4.2s-4,.72-7.68.72a16.45,16.45,0,0,0-1.26-3.78c2.82.06,5.34.06,6.18.06s1-.3,1-1.14V1085h-9.3v-3.6h9.3v-13.56h3.72v13.56h3.72Zm-12.78,21.18a77.65,77.65,0,0,0-3.54-14.76l3.06-.84a73.94,73.94,0,0,1,3.72,14.52Z"/><path class="cls-3" d="M171.37,1100.15c-1.08-2.22-3.72-6.78-5.76-10.2v32.22h-3.9v-29.88c-2.1,6.9-4.92,13.56-7.74,17.58a18.38,18.38,0,0,0-2.22-3.78c3.9-5,7.8-14.7,9.72-23.1h-8.28v-3.78h8.52v-11.58h3.9v11.58H173V1083h-7.38v2c1.8,2.34,7.08,10.2,8.28,12.06Zm32.82-9a43.83,43.83,0,0,1-11.76,19.56,39.77,39.77,0,0,0,15.66,8.1,17.84,17.84,0,0,0-2.58,3.36,40.75,40.75,0,0,1-16-8.88,51.53,51.53,0,0,1-17.1,9,13.93,13.93,0,0,0-2.22-3.42,47.5,47.5,0,0,0,16.5-8.28,47.08,47.08,0,0,1-9.78-16.5l.6-.18h-2.16v-3.66h12.18V1081h-12.9v-3.72h12.9v-9.6h4v9.6h14.1V1081h-14.1v9.3H201l.78-.18Zm-23.46,2.76a40.79,40.79,0,0,0,8.88,14.22,38.14,38.14,0,0,0,9.66-14.22Z"/><path class="cls-3" d="M108.07,1498.83c-.72-1.92-2.46-5.7-4-8.7v29h-3.48v-28.32c-1.74,6.6-4,13-6.42,16.92a22.27,22.27,0,0,0-2-3.24c3.24-5.1,6.54-14.82,8.1-23.16h-7v-3.66h7.26v-13.08h3.48v13.08h5.58v3.66h-5.58v4c1.44,2.28,5.22,8.82,6.06,10.44Zm20.22,3.12c-1.14,3.36-2.46,7.2-3.6,10.08,2.28-.36,4.62-.78,6.9-1.14l.24,3.36c-8,1.38-16.5,2.7-22.62,3.72l-1-3.54c3.66-.48,8.58-1.2,13.92-2l-1-.3a78.58,78.58,0,0,0,3.48-11Zm-10-27.78h-8.76v-3.3h8.76v-6.12h3.48v6.12h8.88v3.3h-8.88v5.58h7.5v3.3H110.83v-3.3h7.5Zm10.5,25.62h-17.4v-13.32h17.4Zm-14,12.24a44,44,0,0,0-2.52-9.84l3.24-.78a48.58,48.58,0,0,1,2.7,9.66Zm10.44-22.56h-10.5v7.26h10.5Zm22.08-7.5h-3.72v32.46c0,2.34-.6,3.54-2,4.2s-4,.72-7.68.72a16.45,16.45,0,0,0-1.26-3.78c2.82.06,5.34.06,6.18.06s1-.3,1-1.14V1482h-9.3v-3.6h9.3v-13.56h3.72v13.56h3.72Zm-12.78,21.18a77.65,77.65,0,0,0-3.54-14.76l3.06-.84a73.94,73.94,0,0,1,3.72,14.52Z"/><path class="cls-3" d="M166.27,1476.21h7.2V1480h-7.2v3.06c1.62,2.22,6,8.94,7,10.68l-2.4,2.88c-.84-1.86-2.88-5.64-4.56-8.64v31.26h-3.72V1489c-2.1,7-5,13.8-7.92,17.88a21,21,0,0,0-2.22-3.72c3.9-5.1,7.8-14.76,9.72-23.16h-8.82v-3.78h9.24v-11.58h3.72Zm39.6,22.08a77.93,77.93,0,0,1-10.68,7.26,27,27,0,0,0,12.42,9.84,19.57,19.57,0,0,0-2.76,3.48c-9.72-4.32-15.66-13.56-18.78-25.5h-6.3v20.46l11.34-2.76a20.69,20.69,0,0,0,.18,3.48c-12.48,3.48-14.22,4-15.3,4.8a18.6,18.6,0,0,0-1.68-3.48c.72-.42,1.56-1.08,1.56-3.36v-45.18h26.46v26H189.61a40.25,40.25,0,0,0,3.78,9.3,75.58,75.58,0,0,0,9.84-7.14Zm-26.1-27.42v7.68h18.66v-7.68Zm0,19h18.66v-7.92H179.77Z"/><path class="cls-3" d="M108.07,1325.83c-.72-1.92-2.46-5.7-4-8.7v29h-3.48v-28.32c-1.74,6.6-4,13-6.42,16.92a22.27,22.27,0,0,0-2-3.24c3.24-5.1,6.54-14.82,8.1-23.16h-7v-3.66h7.26v-13.08h3.48v13.08h5.58v3.66h-5.58v4c1.44,2.28,5.22,8.82,6.06,10.44Zm20.22,3.12c-1.14,3.36-2.46,7.2-3.6,10.08,2.28-.36,4.62-.78,6.9-1.14l.24,3.36c-8,1.38-16.5,2.7-22.62,3.72l-1-3.54c3.66-.48,8.58-1.2,13.92-2l-1-.3a78.58,78.58,0,0,0,3.48-11Zm-10-27.78h-8.76v-3.3h8.76v-6.12h3.48v6.12h8.88v3.3h-8.88v5.58h7.5v3.3H110.83v-3.3h7.5Zm10.5,25.62h-17.4v-13.32h17.4Zm-14,12.24a44,44,0,0,0-2.52-9.84l3.24-.78a48.58,48.58,0,0,1,2.7,9.66Zm10.44-22.56h-10.5v7.26h10.5Zm22.08-7.5h-3.72v32.46c0,2.34-.6,3.54-2,4.2s-4,.72-7.68.72a16.45,16.45,0,0,0-1.26-3.78c2.82.06,5.34.06,6.18.06s1-.3,1-1.14V1309h-9.3v-3.6h9.3v-13.56h3.72v13.56h3.72Zm-12.78,21.18a77.65,77.65,0,0,0-3.54-14.76l3.06-.84a73.94,73.94,0,0,1,3.72,14.52Z"/><path class="cls-3" d="M195.61,1291.81c-.54,1.32-1.14,2.58-1.74,3.9,3.36,5.64,9.36,12,14.28,15.06a14.47,14.47,0,0,0-2.64,2.76c-4.38-3.18-9.66-9.06-13.26-14.76a46.36,46.36,0,0,1-13.08,14.88,16,16,0,0,0-2.28-2.7v15.84h-8.7v5h11.1v3.66h-11.1v10.86h-3.9v-10.86H152.77v-3.66h11.52v-5h-8.76v-19.68h8.76v-4.92H153.43v-3.54h10.86v-6.84h3.9v6.84h10.56v3.54H168.19v4.92h8.7v3.3c6.18-4,12.24-11.88,15.36-19.68Zm-22.44,18.54h-14v5h14Zm0,8.1h-14v5.1h14Zm21.42,8.52h11.16v3.72H194.59v15.66h-4v-15.66h-11.4V1327h11.4v-10.2h-8.88v-3.72h21.42v3.72h-8.58Z"/><path class="cls-4" d="M228.76,1130.82a115.2,115.2,0,0,0,62,7.88,111.94,111.94,0,0,0,17.52-4.09c1.38-.44.79-2.61-.6-2.17a112.66,112.66,0,0,1-61,2,110.58,110.58,0,0,1-16.79-5.59c-1.31-.56-2.46,1.37-1.13,1.94Z"/><path class="cls-4" d="M230,1321.63q62.88-1,125.78-.25t125.73,3.11q35.25,1.35,70.49,3.22c1.45.08,1.44-2.17,0-2.25q-62.79-3.33-125.64-5t-125.77-1.64q-35.29,0-70.59.56a1.13,1.13,0,0,0,0,2.25Z"/><path class="cls-4" d="M379,1588.88a124.82,124.82,0,0,1-29.47-6.82,280.41,280.41,0,0,1-31-13.2c-10.36-5-20.53-10.48-30.68-15.93-8.74-4.69-17.46-9.44-25.74-14.91a117.64,117.64,0,0,1-26-22.64c-.93-1.12-2.51.48-1.59,1.59,13.15,15.84,31,26.47,48.86,36.13,20.2,10.91,40.55,22,62.15,29.94,10.77,4,21.94,7,33.4,8.09,1.44.12,1.43-2.13,0-2.25Z"/><path class="cls-4" d="M199.46,1550.86a255.49,255.49,0,0,0,24.25,94,224.38,224.38,0,0,0,143.84,120.8,208.51,208.51,0,0,0,47.94,7.29,233,233,0,0,0,53.47-4.8c35.91-7.21,70-21.26,103.39-35.91l12.22-5.39c1.32-.59.18-2.53-1.14-2-33,14.62-66.27,29.2-101.38,38-33.5,8.39-68.19,10.66-102.12,3.46A221.69,221.69,0,0,1,231.44,1655a249.29,249.29,0,0,1-28.71-92.3q-.64-5.92-1-11.88c-.09-1.44-2.34-1.45-2.25,0Z"/><path class="cls-4" d="M465.29,1769.4a319,319,0,0,0,82.43,19.54,322.89,322.89,0,0,0,84.69-2.65,312.86,312.86,0,0,0,75.71-22.62,322.18,322.18,0,0,0,119.48-91.22q2.86-3.53,5.62-7.15c.88-1.15-1.08-2.27-1.94-1.13a316.41,316.41,0,0,1-52.34,53.66,321.29,321.29,0,0,1-63.42,40,312.1,312.1,0,0,1-73.66,24.49,319.75,319.75,0,0,1-166.07-11.45q-5-1.72-9.9-3.62c-1.35-.52-1.93,1.65-.6,2.17Z"/><path class="cls-4" d="M225.28,1078.8a445.2,445.2,0,0,1,102.84-94.58,429.58,429.58,0,0,1,121.61-55.58c47.6-13.23,97.37-17.74,146.62-14.5,52.5,3.46,104.23,15.61,153.39,34.18,44.58,16.84,90.13,38,123.15,73.39A187.74,187.74,0,0,1,885,1036.13c.86,1.13,2.82,0,1.94-1.14-29.1-38.3-71.4-61.79-115-80.17-49-20.66-100.68-35-153.55-41-50.72-5.68-102.43-3.36-152.19,8.23a429.5,429.5,0,0,0-124.22,50.66,443.69,443.69,0,0,0-107,90.73q-5.79,6.75-11.32,13.72c-.89,1.13.69,2.73,1.59,1.6Z"/><line class="cls-5" x1="621" y1="1011" x2="621" y2="1672"/><line class="cls-5" x1="621" y1="1456" x2="431.61" y2="1616"/><line class="cls-5" x1="621" y1="1456" x2="810.39" y2="1616"/><line class="cls-5" x1="621" y1="1214" x2="875.75" y2="1102"/><line class="cls-5" x1="621" y1="1214" x2="366.25" y2="1102"/></svg>