<svg id="Layer_1" data-name="Layer 1" xmlns="http://www.w3.org/2000/svg" viewBox="0 0 1242 2208"><defs><style>.cls-1{fill:#f6eabe;}.cls-2{fill:#b3b3b3;}.cls-3{fill:gray;}.cls-4{fill:#999;}</style></defs><rect class="cls-1" width="1242" height="2208"/><path d="M684.93,514.18c73.84,100,195.32,197.7,304.89,245.34-12.7,9.53-29.37,31-38.9,45.26C844.52,751.58,726.22,650,649.2,542V851.63H594.42V546.73c-76.23,107.19-191.36,206.44-297,259.64-9.52-13.5-26.2-34.14-38.11-44.46C368.92,713.47,489.61,616.6,561.86,514.18h-243V462.57H594.42V318.06H277.61v-52.4H594.42V129.09H649.2V265.66H972.36v52.4H649.2V462.57H930.28v51.61Z"/><path d="M261.92,1887.19a98.85,98.85,0,0,1-6.18,13.56v39.59H251.9V1907a61.73,61.73,0,0,1-5.46,7,32.86,32.86,0,0,0-2.28-3.9c5.58-5.87,10.8-14.87,14-24Zm34.14,28c-2.1,1.26-4.44,2.64-6.84,3.78,2,6.06,5.82,11.82,10.38,14.52a11.2,11.2,0,0,0-2.64,2.94c-4.62-3.18-8.46-9.42-10.68-16a27.45,27.45,0,0,1-2.76,1.2c2.58,6.84,1.86,14-1,16.68a6.91,6.91,0,0,1-5.22,1.92c-1.08,0-2.4-.06-3.78-.18a9.31,9.31,0,0,0-1-3.42,38.26,38.26,0,0,0,4.14.24,3.66,3.66,0,0,0,3.12-1.14c1.56-1.38,2.22-5.16,1.44-9.36-5.16,4.92-13.08,9.36-19.8,11.7a15.8,15.8,0,0,0-2.34-2.82c7.62-2.28,16.62-7.14,21.3-12.24a35.76,35.76,0,0,0-1.5-3.48,63.52,63.52,0,0,1-17.22,9.9,16.14,16.14,0,0,0-2.22-2.64c5.94-1.8,13.74-5.76,17.88-9.54a16.39,16.39,0,0,0-2.94-3.18,58.44,58.44,0,0,1-13.56,7.26,11.26,11.26,0,0,0-2.22-2.58,52.7,52.7,0,0,0,15.06-7.55H263.48v-9.36c-1.14,1-2.28,2-3.54,2.94a9.37,9.37,0,0,0-2.52-2.58,44.69,44.69,0,0,0,13.86-16.26l3.84.72c-.6,1.2-1.32,2.34-2,3.54h11.1l.72-.18,2.34,1.68a52.13,52.13,0,0,1-4.8,6.84h13.08v12.66H277.94c-.36.36-.78.66-1.2,1a21,21,0,0,1,5.64,6.84,110,110,0,0,0,10.92-6.42ZM271,1893.31a54.58,54.58,0,0,1-4.2,5.16h11.58a37.88,37.88,0,0,0,3.72-5.16Zm-3.9,14.69h10.5v-6.42h-10.5Zm24.72-6.42H281.18V1908H291.8Z"/><path d="M325.16,1899.13a67.9,67.9,0,0,1-7.2,12.24v28.85h-4v-24a41.57,41.57,0,0,1-7.26,6.41,17,17,0,0,0-2-3.48c7-5,12.3-12.23,16.14-20H306v-3.84h16.44a65.25,65.25,0,0,0,3.3-9.42l4.08,1c-.9,2.82-1.86,5.64-3,8.4H358.1v3.84Zm32.94,36.23v3.72H322v-3.72h16v-17.52H324.32v-3.71H338v-11.82h4v11.82h13.8v3.71H342v17.52Z"/><path d="M391,1889H376.22v35.15h-4v-38.87H391Z"/><path d="M425.84,1904.65c5.52,10.31,15.06,20.75,24.06,25.79a16.83,16.83,0,0,0-3.06,3.42c-8.34-5.22-16.92-14.94-22.8-25.07v31.73H419.9v-31.68c-5.76,10.38-14.28,20-22.92,25.14a22.2,22.2,0,0,0-2.94-3.3c9.24-5,18.54-15.47,24-26H396.26v-4H419.9v-14.76H424v14.76h23.88v4Z"/><path d="M453,1937.34h14.82v-35.15h4v38.87H453Z"/><path d="M501,1886.53c-1,2.94-2.1,6.3-3.18,8.88H508v38.75h-16.8v4.8h-3.66v-43.55h6.66a64.68,64.68,0,0,0,2.58-9.72Zm3.3,12.47H491.18v13.08h13.14Zm0,31.56v-14.88H491.18v14.88Zm33.06-33.17c-1,27.53-1.8,36.71-4.2,39.59a5.6,5.6,0,0,1-4.56,2.28,74.94,74.94,0,0,1-8.82-.12,9.42,9.42,0,0,0-1.32-3.9c3.9.36,7.5.36,8.82.36s1.92-.12,2.52-.9c2-2.1,2.94-11.34,3.72-35.7H517.82a55.33,55.33,0,0,1-5.64,10.68,36.22,36.22,0,0,0-3.36-2.22c4.08-5.33,7.32-13.61,9.18-21.89l3.84.84c-.78,3-1.62,6-2.64,8.88h18.18Zm-12.78,27a106.51,106.51,0,0,0-9.3-13.92l3.06-1.79a102.47,102.47,0,0,1,9.6,13.61Z"/><path d="M562.64,1917.72c-.84-1.86-2.94-5.64-4.62-8.64v31.32h-3.66V1910c-2.1,7-5,13.91-7.92,18a18.38,18.38,0,0,0-2.22-3.78c3.9-5,7.8-14.69,9.72-23.09H545.3v-3.78h9.06v-11.58H558v11.58h6.78v3.78H558v3c1.56,2.09,6,9,7,10.67Zm33.78,17.58c0,2.28-.48,3.48-2.16,4.14s-4.56.66-9.06.66a15.78,15.78,0,0,0-1.32-3.78c3.54.12,6.66.12,7.56.06s1.2-.3,1.2-1.14v-11.52c-6.9,1.8-13.92,3.48-19.38,4.8l-1.38-3.48c5.28-1.14,13.14-2.82,20.76-4.68V1906.5H570.92v12.6c0,6.6-.54,15.48-4.14,21.6a12,12,0,0,0-3.06-2.4c3.18-5.58,3.54-13.2,3.54-19.2v-16.19h12.9v-17.1H584v17.1h12.42Zm-24.36-34.67a42.36,42.36,0,0,0-6-11.28l3.24-1.5a42.53,42.53,0,0,1,6.24,11Zm2.4,10.25a73.8,73.8,0,0,1,16,5l-1.62,3a69.23,69.23,0,0,0-15.9-5.4Zm23.94-21.83a84.92,84.92,0,0,1-6.84,11.28l-3.24-1.44a72.6,72.6,0,0,0,6.42-11.34Z"/><path d="M632.42,1898.05c-1.44,3.6-3.12,7.79-4.62,11h8.7v3.67H605.36v-3.67H623.9a77.72,77.72,0,0,0,4.5-11.93Zm2.7-1.38h-28V1893h12.6a52.73,52.73,0,0,0-2.64-6.36l3.6-1a57,57,0,0,1,3.18,7.38h11.22Zm-26.22,21.77h24.72v21.12h-3.9v-2.4h-17V1940H608.9Zm5.82-9.72a46.73,46.73,0,0,0-3.9-10.55l3.48-.84a38.22,38.22,0,0,1,4,10.38Zm-2,13.32v11.52h17V1922Zm45.84-31.31c-2.16,5.46-5,12.3-7.56,17.87,5.46,5.7,6.84,10.32,6.84,14.52,0,3.36-.78,6.24-2.64,7.5a7.78,7.78,0,0,1-3.66,1.2,29.42,29.42,0,0,1-5.16.06,9.55,9.55,0,0,0-1.2-3.78,35.57,35.57,0,0,0,4.92.12,5.55,5.55,0,0,0,2.46-.66c1.2-.78,1.62-2.7,1.56-4.8,0-3.78-1.56-8.16-7-13.73,2.34-5.16,4.74-11.58,6.42-16.26H643.34v47.69h-3.6v-51.35h15.42l.6-.18Z"/><path d="M718.76,1913.41v2.81h-53.4v-2.81h24.48V1910H670v-2.58h19.86v-3.3H671.42v-2.58h18.42V1898H665.42v-2.58h24.42v-3.3H671.78v-2.52h18.06v-3.78h3.9v3.78H712v5.82h6.54V1898H712v6.12h-18.3v3.3h20.64V1910H693.74v3.42Zm-53.4,22.43h53.4v2.88h-53.4Zm46.8-16.86v13.86h-40V1919Zm-36.18,5.7h14v-3.24H676Zm0,5.76h14v-3.36H676Zm32.16-9H693.62v3.24h14.52Zm0,5.64H693.62v3.36h14.52Zm-14.4-31.67h14.34v-3.3H693.74Zm0,6.12h14.34V1898H693.74Z"/><path d="M779.36,1910.41v4.31H724.88v-4.31Z"/><path d="M800,1887a99.35,99.35,0,0,1-4.62,12.42v41.15h-3.84v-33.6a56.4,56.4,0,0,1-5,7.56,24.14,24.14,0,0,0-2.22-3.9c5-6,9.36-15.29,12.12-24.65Zm.54,6.84h3.54v36.53h-3.54Zm15.84,31.37a43.11,43.11,0,0,1-8.76,12.12,25.39,25.39,0,0,0-3.12-2,34.4,34.4,0,0,0,8.4-11.1Zm18.12-30.65a32.75,32.75,0,0,1-8.94,10.68,36.62,36.62,0,0,0,13.56,5.57,22.21,22.21,0,0,0-2.22,3.24,41.33,41.33,0,0,1-14.34-6.59,58.21,58.21,0,0,1-14.58,6.72,17.4,17.4,0,0,0-2.34-3.3,50.1,50.1,0,0,0,14-5.83,31.9,31.9,0,0,1-6.06-7.37,32.58,32.58,0,0,1-5.22,5.16,19.18,19.18,0,0,0-2.64-2.88,35.23,35.23,0,0,0,11.1-14l3.6,1a34.51,34.51,0,0,1-2.28,4.44h20.1v3.24Zm-10.32,27.11v18.78h-3.72v-18.78h-13.2v-3.54h13.2v-6.36h3.72v6.36H837.8v3.54Zm-8.34-26.75a27,27,0,0,0,6.72,8.16,28.79,28.79,0,0,0,7.68-8.52h-14.1Zm15.06,29.21a49.87,49.87,0,0,1,7.92,10.56l-3.12,1.74a51.92,51.92,0,0,0-7.74-10.74Z"/><path d="M862.7,1920.42c-.9-1.92-3.24-5.88-5.1-8.88v28.8h-3.66v-29.16c-2,7.14-4.86,14-7.68,18.3a24,24,0,0,0-2.28-4c3.72-5,7.5-14.75,9.3-23h-8.1v-3.77h8.76v-12.84h3.66v12.84h7.26v3.77H857.6v4.21c1.68,2.16,6.3,8.75,7.38,10.31Zm15.12,12.12a50.05,50.05,0,0,1-13.74,8.22c-.54-.84-1.62-2-2.34-2.94,4.5-1.68,10-4.8,12.6-7.44Zm21.54-24.24H863.42v-3.23h36Zm-27.3-13.61h-7.8v-3.12h7.8v-4.8h3.6v4.8h11v-4.8h3.72v4.8h8v3.12h-8v7.85h-18.3Zm-5.52,34.85v-17.87h29.64v17.87Zm3.6-10.32h9.06v-4.55h-9.06Zm0,7.32h9.06v-4.62h-9.06Zm5.52-31.85v5h11v-5Zm16.8,20h-9.54v4.55h9.54Zm0,7.25h-9.54v4.62h9.54Zm-4.32,8.46a88.84,88.84,0,0,1,11.64,7.74l-3.18,2.58a84.32,84.32,0,0,0-11-7.86Z"/><path d="M958.76,1913.41v2.81h-53.4v-2.81h24.48V1910H910v-2.58h19.86v-3.3H911.42v-2.58h18.42V1898H905.42v-2.58h24.42v-3.3H911.78v-2.52h18.06v-3.78h3.9v3.78H952v5.82h6.54V1898H952v6.12h-18.3v3.3h20.64V1910H933.74v3.42Zm-53.4,22.43h53.4v2.88h-53.4Zm46.8-16.86v13.86h-40V1919Zm-36.18,5.7h14v-3.24H916Zm0,5.76h14v-3.36H916Zm32.16-9H933.62v3.24h14.52Zm0,5.64H933.62v3.36h14.52Zm-14.4-31.67h14.34v-3.3H933.74Zm0,6.12h14.34V1898H933.74Z"/><path d="M977.18,1904.17a9.06,9.06,0,1,1-9.06,9A9.09,9.09,0,0,1,977.18,1904.17Zm0,15.23a6.18,6.18,0,1,0,0-12.36,6.18,6.18,0,1,0,0,12.36Z"/><path d="M428.9,1974.67c4.44,10.31,12.24,20,20.76,24.71a23.11,23.11,0,0,0-3.06,3.36c-9-5.58-16.92-16.32-21.6-28.07h-1v22.43h14.28v4H424v11.4H419.9v-11.4H405.68v-4H419.9v-22.43h-1.08c-4.74,11.75-12.66,22.43-21.3,28.25a24.18,24.18,0,0,0-2.88-3.18c8-4.92,15.66-14.76,20.16-25.07H396.14v-4H419.9v-12.72H424v12.72h24v4Z"/><path d="M503.9,1997a33.64,33.64,0,0,1-8.22,7.38c2.4,2.82,5.22,4.44,8.16,4.38,1.68-.06,2.16-1.5,2.46-5.94a10.31,10.31,0,0,0,3.12,1.62c-.6,6.3-2.1,7.92-5.76,8-4.26,0-8.16-2.22-11.28-6a74.41,74.41,0,0,1-13.68,5.82,36.46,36.46,0,0,0-2.1-3.24,65.61,65.61,0,0,0,13.86-5.34,34.94,34.94,0,0,1-3.84-8.82H472.16v4.38l11.16-1-.06,2.88-11.1,1.08v6.12c0,2.1-.48,3.06-2.16,3.54s-4.38.54-8.94.54a19.42,19.42,0,0,0-1.26-3.18c3.36.12,6.48.06,7.38,0s1.2-.24,1.2-1v-5.7c-4.74.48-9.12.9-12.72,1.2l-.42-3.3c3.54-.24,8.1-.54,13.14-1v-4.68h-12.9v-3.18h12.9v-4.44c-3.78.42-7.68.72-11.28.91a12,12,0,0,0-.9-2.71c8.16-.48,18.18-1.55,23.52-2.94l2.52,2.58c-2.82.66-6.36,1.26-10.08,1.74v4.86h13.68a52.67,52.67,0,0,1-1.2-8.94h3.84a57.48,57.48,0,0,0,1.2,8.94h19v3.18H490.58a31.91,31.91,0,0,0,3.12,6.9,27.09,27.09,0,0,0,6.72-5.94Zm4.62-15.17h-53v-3.24H479.9v-4.14H461.3v-3.06h18.6v-4H458.06v-3.18h12.66a30,30,0,0,0-3.48-5.16l3.42-1.26a24.4,24.4,0,0,1,4.32,6.24l-.42.18H489.2a54.7,54.7,0,0,0,3.6-6.6l4.14,1.2c-1.2,1.86-2.52,3.84-3.72,5.4h12.84v3.18H483.92v4h18.9v3.06h-18.9v4.14h24.6Zm-5.7,9a34,34,0,0,0-9.48-5.52l2.16-2.46a38.32,38.32,0,0,1,9.66,5.22Z"/><path d="M567.74,1989.67s-.06,1.19-.12,1.73c-1.14,12.66-2.28,17.64-4.14,19.56a5.52,5.52,0,0,1-4,1.56,66.58,66.58,0,0,1-7.5-.12,9.39,9.39,0,0,0-1.2-3.66c3.12.3,6.06.3,7.2.3a3,3,0,0,0,2.22-.54c1.26-1.32,2.4-5.34,3.36-15.3H526a59.21,59.21,0,0,1-9.66,7.32,19.86,19.86,0,0,0-2.22-3.3c10.26-6,17.82-15.18,23.1-25.43h-20v-3.66H539a82.29,82.29,0,0,0,3.84-10.32l3.9,1a92.32,92.32,0,0,1-3.54,9.3H559c-.72,3.48-1.56,7.62-2.34,10.74h7c-.66,3.47-1.5,7.67-2.28,10.8ZM518.36,2010c3.42-3.24,5.7-8.58,7-13.2l3.3,1.08c-1.44,4.92-3.54,10.62-7.14,14.16Zm12.42-42.17a39,39,0,0,0-6-8.34l3.42-1.44a39.57,39.57,0,0,1,6.18,8Zm26.82,21.84c.54-2.11,1.08-4.69,1.56-7.21H535.34a75.18,75.18,0,0,1-5.76,7.21Zm-21.48,7.91a44,44,0,0,1,1.8,11.88l-3.48.54a39.57,39.57,0,0,0-1.62-11.94Zm5.4-25.79c-1.14,2.4-2.46,4.79-3.84,7.08h15.24c.54-2,1.14-4.62,1.62-7.08Zm3.18,25a43,43,0,0,1,3.6,10.26l-3.3.9a45.91,45.91,0,0,0-3.42-10.44Zm10.32,8a38.83,38.83,0,0,0-4.56-8.1l2.76-1.08a34.18,34.18,0,0,1,4.74,7.86Z"/><path d="M628.58,2002.56H603.8v10h-4v-10H575.6v-3.66h24.24v-5.4H583V1972H621.2v21.53H603.8v5.4h24.78Zm-40.2-36.77h-12.6v-3.6h12.6v-4.38h3.9v4.38h8.22v3.6h-8.22v5h-3.9Zm-1.56,15.35h30.42v-5.87H586.82Zm0,9.12h30.42v-6H586.82Zm25.08-24.47h-8.34v-3.6h8.34v-4.32h3.9v4.32h12.54v3.6H615.8v5h-3.9Z"/><path d="M665.84,1976.65c5.52,10.31,15.06,20.75,24.06,25.79a16.83,16.83,0,0,0-3.06,3.42c-8.34-5.22-16.92-14.94-22.8-25.07v31.73H659.9v-31.68c-5.76,10.38-14.28,20-22.92,25.14a22.2,22.2,0,0,0-2.94-3.3c9.24-5,18.54-15.47,24-26H636.26v-4H659.9v-14.76H664v14.76h23.88v4Z"/><path d="M711,1958.53c-1,2.94-2.1,6.3-3.18,8.88H718v38.75h-16.8v4.8h-3.66v-43.55h6.66a64.68,64.68,0,0,0,2.58-9.72Zm3.3,12.47H701.18v13.08h13.14Zm0,31.56v-14.88H701.18v14.88Zm33.06-33.17c-1,27.53-1.8,36.71-4.2,39.59a5.6,5.6,0,0,1-4.56,2.28,74.94,74.94,0,0,1-8.82-.12,9.42,9.42,0,0,0-1.32-3.9c3.9.36,7.5.36,8.82.36s1.92-.12,2.52-.9c2-2.1,2.94-11.34,3.72-35.7H727.82a55.33,55.33,0,0,1-5.64,10.68,36.22,36.22,0,0,0-3.36-2.22c4.08-5.33,7.32-13.61,9.18-21.89l3.84.84c-.78,3-1.62,6-2.64,8.88h18.18Zm-12.78,27a106.51,106.51,0,0,0-9.3-13.92l3.06-1.79a102.47,102.47,0,0,1,9.6,13.61Z"/><path d="M772.64,1989.72c-.84-1.86-2.94-5.64-4.62-8.64v31.32h-3.66V1982c-2.1,7-5,13.91-7.92,18a18.38,18.38,0,0,0-2.22-3.78c3.9-5,7.8-14.69,9.72-23.09H755.3v-3.78h9.06v-11.58H768v11.58h6.78v3.78H768v3c1.56,2.09,6,9,7,10.67Zm33.78,17.58c0,2.28-.48,3.48-2.16,4.14s-4.56.66-9.06.66a15.78,15.78,0,0,0-1.32-3.78c3.54.12,6.66.12,7.56.06s1.2-.3,1.2-1.14v-11.52c-6.9,1.8-13.92,3.48-19.38,4.8l-1.38-3.48c5.28-1.14,13.14-2.82,20.76-4.68V1978.5H780.92v12.6c0,6.6-.54,15.48-4.14,21.6a12,12,0,0,0-3.06-2.4c3.18-5.58,3.54-13.2,3.54-19.2v-16.19h12.9v-17.1H794v17.1h12.42Zm-24.36-34.67a42.36,42.36,0,0,0-6-11.28l3.24-1.5a42.53,42.53,0,0,1,6.24,11Zm2.4,10.25a73.8,73.8,0,0,1,16,5l-1.62,3a69.23,69.23,0,0,0-15.9-5.4Zm23.94-21.83a84.92,84.92,0,0,1-6.84,11.28l-3.24-1.44a72.6,72.6,0,0,0,6.42-11.34Z"/><path d="M827.18,1976.17a9.06,9.06,0,1,1-9.06,9A9.09,9.09,0,0,1,827.18,1976.17Zm0,15.23a6.18,6.18,0,1,0,0-12.36,6.18,6.18,0,1,0,0,12.36Z"/><path d="M409.7,2059.56s-.06,1.32-.12,1.86c-1.08,13.56-2.1,18.84-4.08,20.82-1.26,1.32-2.46,1.68-4.56,1.8a90.37,90.37,0,0,1-9.48-.18,8,8,0,0,0-1.44-4c4,.36,8,.36,9.48.36s2-.06,2.58-.6c1.5-1.2,2.4-5.7,3.3-16.32h-22.8c1.14-4.56,2.46-11.63,3.24-17.09H405.5v-10.08h-22v-3.78H409.4v17.58H389.3c-.6,3.3-1.2,6.72-1.86,9.65Zm18.36-29.15v54.11h-4v-54.11Z"/><path d="M490.28,2037.73V2071H486.2v-3.18H468.92v16.5h-4.14v-16.5H448v3.54h-4v-33.65h20.76v-7.92h4.14v7.92Zm-42.3,3.84v9.18h16.8v-9.18Zm16.8,22.49v-9.6H448v9.6Zm4.14-22.49v9.18H486.2v-9.18Zm17.28,22.49v-9.6H468.92v9.6Z"/><path d="M552.74,2061.67s-.06,1.19-.12,1.73c-1.14,12.66-2.28,17.64-4.14,19.56a5.52,5.52,0,0,1-4,1.56,66.58,66.58,0,0,1-7.5-.12,9.39,9.39,0,0,0-1.2-3.66c3.12.3,6.06.3,7.2.3a3,3,0,0,0,2.22-.54c1.26-1.32,2.4-5.34,3.36-15.3H511a59.21,59.21,0,0,1-9.66,7.32,19.86,19.86,0,0,0-2.22-3.3c10.26-6,17.82-15.18,23.1-25.43h-20v-3.66H524a82.29,82.29,0,0,0,3.84-10.32l3.9,1a92.32,92.32,0,0,1-3.54,9.3H544c-.72,3.48-1.56,7.62-2.34,10.74h7c-.66,3.47-1.5,7.67-2.28,10.8ZM503.36,2082c3.42-3.24,5.7-8.58,7-13.2l3.3,1.08c-1.44,4.92-3.54,10.62-7.14,14.16Zm12.42-42.17a39,39,0,0,0-6-8.34l3.42-1.44a39.57,39.57,0,0,1,6.18,8Zm26.82,21.84c.54-2.11,1.08-4.69,1.56-7.21H520.34a75.18,75.18,0,0,1-5.76,7.21Zm-21.48,7.91a44,44,0,0,1,1.8,11.88l-3.48.54a39.57,39.57,0,0,0-1.62-11.94Zm5.4-25.79c-1.14,2.4-2.46,4.79-3.84,7.08h15.24c.54-2,1.14-4.62,1.62-7.08Zm3.18,24.95a43,43,0,0,1,3.6,10.26l-3.3.9a45.91,45.91,0,0,0-3.42-10.44Zm10.32,8a38.83,38.83,0,0,0-4.56-8.1l2.76-1.08a34.18,34.18,0,0,1,4.74,7.86Z"/><path d="M591.68,2058.9a61.91,61.91,0,0,0,23,18.54,16.34,16.34,0,0,0-2.94,3.42c-8-4-17-11.7-22.8-19.86v23.4h-4.14v-23A66.15,66.15,0,0,1,562.4,2081a22.34,22.34,0,0,0-2.88-3.36,59.79,59.79,0,0,0,22.86-18.72H564V2055h20.82v-10.92H560.9v-3.95h23.94v-10.32H589v10.32H613.4v3.95H589V2055h21.24v3.9Z"/><path d="M629.3,2047v3.25c0,10-.78,24.41-6.66,34.19a15.57,15.57,0,0,0-3.48-2c5.64-9.36,6.18-22.68,6.18-32.1v-17.51H669.8V2047Zm0-10.67v7.14h36.48v-7.14Zm37,43.67c2.7,0,3.18-1.14,3.48-6.78a13.21,13.21,0,0,0,3.66,1.56c-.6,7-1.8,8.88-6.9,8.88H654c-6,0-7.68-1.32-7.68-6.3v-4.92l-15.72,2.46-.6-3.36,16.32-2.52v-5.88l-13.62,2.1L632,2062l14.28-2.28v-5.46c-4.26.78-8.7,1.38-12.78,1.92a13.47,13.47,0,0,0-1.14-2.93c10.14-1.33,22-3.48,28.26-5.88L664,2050a106.83,106.83,0,0,1-13.86,3.54v5.64l17.22-2.64.6,3.25-17.82,2.75v5.88l21.48-3.36.6,3.3-22.08,3.48v5.46c0,2.22.66,2.7,4,2.7Z"/><path d="M700.52,2062.56l-3.66,3.12a93.63,93.63,0,0,0-13.32-13.38l3.42-3.11A118.53,118.53,0,0,1,700.52,2062.56Z"/><path d="M723.2,2042.89c-1.14,2.57-2.4,5.15-3.84,7.68v33.89h-3.6v-28.08a54.49,54.49,0,0,1-4.44,5.82,16.26,16.26,0,0,0-2.22-3.36A61.58,61.58,0,0,0,720,2041.69Zm-1.14-11.7a59.44,59.44,0,0,1-10.2,13.62,32.36,32.36,0,0,0-2-3,45.35,45.35,0,0,0,8.76-11.94Zm7.68,29.21c-.18,10.74-1.14,18.36-6.12,22.92a10.16,10.16,0,0,0-2.52-2.82c4.32-3.84,5-10.5,5.16-20.1Zm-6.54-5.88h19.74v3.31h-19.8Zm19.68-4.14H724.34v-14.87h3v11.76h4.8v-17.4h3.18v17.4h4.44v-11.7h3.12Zm2.1,18.78a16.19,16.19,0,0,0,1,2.88c-7.56,4.86-8.82,5.94-9.42,6.72a16.31,16.31,0,0,0-1.56-3.48c.66-.42,1.62-1.38,1.62-3.72v-11.28H740V2072Zm16.44-24.53c-1.08,9.83-2.7,18.11-5.58,24.95,2.16,4.92,5,8.82,8.82,11.46a10.59,10.59,0,0,0-2.4,3,31,31,0,0,1-8.34-10.62,34,34,0,0,1-9.24,11.16,20.43,20.43,0,0,0-2.52-2.7,31.46,31.46,0,0,0,10.08-12.42,86.35,86.35,0,0,1-4.26-17.33,29.79,29.79,0,0,1-2.34,4.13,18.11,18.11,0,0,0-2.58-2.81c3.9-5.76,6.24-14.52,7.5-23.64l3.48.6a87.26,87.26,0,0,1-2.22,10.74h12.54v3.48Zm-10.62,0a16.83,16.83,0,0,1-.54,1.86A98.66,98.66,0,0,0,754,2065a89,89,0,0,0,4-20.33Z"/><path d="M801.68,2058.9a61.91,61.91,0,0,0,23,18.54,16.34,16.34,0,0,0-2.94,3.42c-8-4-17-11.7-22.8-19.86v23.4h-4.14v-23A66.15,66.15,0,0,1,772.4,2081a22.34,22.34,0,0,0-2.88-3.36,59.79,59.79,0,0,0,22.86-18.72H774V2055h20.82v-10.92H770.9v-3.95h23.94v-10.32H799v10.32H823.4v3.95H799V2055h21.24v3.9Z"/><path d="M842.18,2048.17a9.06,9.06,0,1,1-9.06,9A9.09,9.09,0,0,1,842.18,2048.17Zm0,15.23a6.18,6.18,0,1,0,0-12.36,6.18,6.18,0,1,0,0,12.36Z"/><rect class="cls-2" x="1134" y="1488" width="65" height="220" rx="12"/><path class="cls-1" d="M1178.05,1526.79a27.61,27.61,0,0,0,11.5,8.1,11.65,11.65,0,0,0-2.15,2.55,30.77,30.77,0,0,1-12.8-10.65h-15.95a34.39,34.39,0,0,1-13,11.3,11.43,11.43,0,0,0-2.15-2.55,30.39,30.39,0,0,0,11.6-8.75H1144v-2.85h10v-16.15h-7.7V1505h7.7v-5h3.3v5h18.55v-5h3.35v5h7.65v2.8h-7.65v16.15h9.8v2.85Zm-10,14.5h17.3v2.85H1147.8v-2.85h16.9v-5.6h-10.45v-2.8h10.45v-4.4h3.35v4.4h10.65v2.8h-10.65Zm-10.8-33.5v3.6h18.55v-3.6Zm0,9.8h18.55v-3.65h-18.55Zm0,6.35h18.55v-3.8h-18.55Z"/><path class="cls-1" d="M1162.25,1568.54s0,1.15,0,1.55c-.6,15.85-1.2,21.2-2.6,23a3.71,3.71,0,0,1-2.8,1.45,32.65,32.65,0,0,1-4.45,0,9.25,9.25,0,0,0-.85-3c1.75.15,3.2.15,3.9.15a1.42,1.42,0,0,0,1.45-.65c1-1.2,1.6-6,2.15-19.35h-6.8c-.55,10-2,18.25-6.45,23.65a9.53,9.53,0,0,0-2.55-2.35c5.45-6.45,5.9-17.85,6.1-31.55h-5.2v-3.1h20.1v3.1h-11.65c0,2.45-.1,4.85-.2,7.15Zm-7.9-10.45a33.47,33.47,0,0,0-4.25-7.15l2.9-1.15a31.92,31.92,0,0,1,4.4,7Zm23.85-7.45a15.26,15.26,0,0,1-.85,2.55c2.65,5.45,7.7,11.35,12.45,14a13,13,0,0,0-2.45,2.75c-4.25-2.7-8.5-8-11.4-13.3a32.61,32.61,0,0,1-11,13.6,12.79,12.79,0,0,0-2.35-2.65c5.85-3.6,10.35-10.2,12.5-17.85Zm-8.3,32.45a74,74,0,0,1,13.6,8.25l-2.25,2.9c-2.85-2.6-8.75-6.3-13.4-8.65Zm9.5-4.85a66.22,66.22,0,0,0-8.6-6.85l2.15-2.2a67.46,67.46,0,0,1,8.75,6.55Z"/><path class="cls-1" d="M1155.5,1613c-1.6,7.2-4.55,16.15-9.1,21.7a19.23,19.23,0,0,0-3.1-1.8c4.55-5.25,7.3-13.85,8.55-20.55Zm12.9-12.3v40c0,2.55-.7,3.6-2.35,4.2s-4.8.6-9.4.6a15.62,15.62,0,0,0-1.4-3.45c3.7.1,7.3.1,8.25.05s1.45-.35,1.45-1.4v-40ZM1180,1612c4.45,7,8.7,16.1,10,22l-3.45,1.45c-1.25-5.85-5.25-15.15-9.6-22.3Z"/><path class="cls-1" d="M1184.65,1677.74a72.75,72.75,0,0,1-7.65,3.65,19.75,19.75,0,0,0,12.1,9.55,10.66,10.66,0,0,0-2.1,2.6,22.77,22.77,0,0,1-12.5-11.1c-1.1.45-2.15.85-3.2,1.2,1.5,4.4.7,8.7-1.6,10.35a6,6,0,0,1-4.25,1.3c-1,0-2.25,0-3.55-.1a5.77,5.77,0,0,0-.9-2.85,30,30,0,0,0,4,.2,4.12,4.12,0,0,0,2.7-.65c1.35-1,1.9-3.75,1-6.9-5.55,3.7-14.45,7-22,8.45a11,11,0,0,0-1.45-2.4c8-1.1,17.65-4.65,22.65-8.35a13.35,13.35,0,0,0-1.25-2.15,69.47,69.47,0,0,1-17.55,6.35,7.59,7.59,0,0,0-1.4-2.15c5.8-1,13.4-3.4,17.7-5.85-.6-.55-1.25-1.15-2-1.7a80,80,0,0,1-15.25,4.15,16.41,16.41,0,0,0-1.55-2.2c5.7-.75,12.15-2.15,16.75-4.15h-18.55v-2.55h28c.3-.9.55-1.8.9-2.75h-21.7c1.25-2.8,3-7,4-10.25l3,.5a42,42,0,0,0-3.4-3.25l2-1.15h-6.25a29.23,29.23,0,0,1-5.1,5.6,25.27,25.27,0,0,0-2.35-2.2,26.89,26.89,0,0,0,7.5-9.35l3,.85c-.45.9-1,1.75-1.4,2.65h13.45v2.45h-8.3a44.9,44.9,0,0,1,4,3.65l-2.45,1.6a4.8,4.8,0,0,0-.7-.75c-.2.65-.45,1.25-.65,2h17.75l.6-.2,2.25.5c-.8,3.15-1.9,7-3,10.15h12V1675h-20.25c-.6.35-1.2.7-1.85,1a16.36,16.36,0,0,1,4.4,5.35,90.1,90.1,0,0,0,11.6-5.5Zm-10.2-10.3c.35-1.15.65-2.2,1-3.2h-17.7c-.45,1.15-.9,2.2-1.3,3.2Zm14.75-14.3v2.45h-16.6a28.84,28.84,0,0,1-4.55,5.15,15.06,15.06,0,0,0-2.55-2,21.57,21.57,0,0,0,6.7-9.1l3.1.8a26.43,26.43,0,0,1-1.25,2.7Zm-7.9,8a32.47,32.47,0,0,0-3.9-4.25l2.3-1.25a30.14,30.14,0,0,1,4,4Z"/><rect class="cls-2" x="1135" y="427.5" width="65" height="126" rx="12"/><path class="cls-1" d="M1154.7,457.32c1.25,1.6,4.9,6.7,5.7,8.05l-2,2.45c-.7-1.5-2.35-4.4-3.75-6.65v26.35h-3.15V463.07c-1.5,5.05-3.5,9.9-5.55,12.85a14.83,14.83,0,0,0-1.75-3.1c2.9-4,5.8-11.5,7.2-18h-6.2v-3.15h6.3V442h3.15v9.65h5.45v3.15h-5.45Zm19.1.7a19.47,19.47,0,0,0,.45,2.65c-10.15,2.7-11.6,3.15-12.5,3.75a12.13,12.13,0,0,0-1.1-3.2c.7-.2,1.55-.5,1.55-2.2v-16.7h3.25v6.5h8.35v2.9h-8.35V460Zm2.35,5.5-2,3.75h12.65v20.25h-3.4v-1.75h-17v2h-3.3V467.27h7.9c.55-1.5,1.2-3.25,1.55-4.6Zm7.3,6.5h-17v5.05h17Zm0,13v-5.3h-17V483Zm2.25-22.4c1.25,0,1.5-.75,1.65-5.25a9.16,9.16,0,0,0,2.85,1.25c-.3,5.45-1.2,6.95-4.15,6.95h-5.85c-3.65,0-4.55-.95-4.55-4.45V442.37h3.25v6.5h10.2v2.9h-10.2v7.35c0,1.3.25,1.5,1.65,1.5Z"/><path class="cls-1" d="M1189.55,517.37v2.5H1145.4v-2.5h20.25v-3.2H1148.8v-2.3h16.85v-3H1150.2v-2.25h15.45v-3.2H1145.5v-2.5h20.15v-3.05H1150.8v-2.35h14.85V492h3.25v3.55h14.45v5.4h6.15v2.5h-6.15v5.45H1168.9v3h17.3v2.3h-17.3v3.2Zm-37.75,5h31.75v15.25h-3.25V536H1155v1.7h-3.2Zm3.2,2.4V528h25.3v-3.2Zm25.3,8.85v-3.4H1155v3.4Zm-11.4-32.7h11.15v-3.05H1168.9Zm0,5.7h11.15v-3.2H1168.9Z"/><path d="M593,1040q5.78,131.73,7.48,263.6t-.69,263.71q-1.35,74-4,148c-.47,13.35,12.07,26.1,25.5,25.5,14.22-.63,25-11.2,25.5-25.5q4.68-131.77,5.29-263.65t-2.89-263.7q-2-74-5.21-147.91a26.81,26.81,0,0,0-7.47-18c-4.42-4.42-11.68-7.75-18-7.47-13.32.6-26.13,11.23-25.5,25.5Z"/><path d="M378,1256c27,26.28,57.54,49.69,90.83,67.54,30.29,16.24,63.12,28.55,97,34.62a299,299,0,0,0,106.49,1.1c34-5.26,67-16.91,97.59-32.52,33.29-17,63.85-39.54,91.09-65Q866.09,1257,871,1252a26.27,26.27,0,0,0,7.47-18c0-6.25-2.78-13.73-7.47-18-4.86-4.46-11.24-7.77-18-7.47a26.64,26.64,0,0,0-18,7.47,423.88,423.88,0,0,1-39.31,34.64l5.17-4a360.35,360.35,0,0,1-60.38,38q-8.7,4.29-17.64,8.06l6.09-2.57A300.07,300.07,0,0,1,653,1310.94l6.78-.91a284.35,284.35,0,0,1-75,0l6.78.91a299.75,299.75,0,0,1-75.91-21l6.1,2.57a351.45,351.45,0,0,1-77.4-45.73l5.16,4A418.38,418.38,0,0,1,414,1220a26.42,26.42,0,0,0-18-7.47c-6.25,0-13.73,2.78-18,7.47-4.46,4.86-7.77,11.24-7.47,18s2.54,13.25,7.47,18Z"/><path d="M624,1367.5a258,258,0,0,0-47.7,7.16,270.73,270.73,0,0,0-43.57,15.49c-25.3,11.19-48.59,26.9-69.17,45.34a248.15,248.15,0,0,0-27.5,29.11A359.52,359.52,0,0,0,407.64,1505c-14.53,24.18-26.18,49.91-37.56,75.68q-19.89,45-39.73,90.09l-4.86,11a19,19,0,0,0-3,9.48,19.34,19.34,0,0,0,.45,10.17,28.62,28.62,0,0,0,11.72,15.24c5.92,3.13,13.09,4.69,19.65,2.57l6.09-2.57a25.63,25.63,0,0,0,9.15-9.15q19.92-45.15,39.83-90.31c11.42-25.9,22.71-51.92,36.6-76.62a334.79,334.79,0,0,1,26.35-40.22l-4,5.16a252.08,252.08,0,0,1,34.5-36.74q5.06-4.38,10.35-8.46l-5.16,4a247,247,0,0,1,41.09-25.69q6.38-3.15,12.92-5.92l-6.09,2.57a229.18,229.18,0,0,1,58.07-16l-6.78.91q8.35-1.12,16.78-1.61a19.16,19.16,0,0,0,9.82-2.2,22.89,22.89,0,0,0,13.48-13.48,19.16,19.16,0,0,0,2.2-9.82c-.3-6.59-2.46-13.43-7.47-18-4.82-4.43-11.28-7.86-18-7.47Z"/><path d="M624,1418.8a161,161,0,0,1,41.84.17l-6.78-.91a186.65,186.65,0,0,1,47.34,13.06l-6.09-2.57a193.67,193.67,0,0,1,42.36,24.63l-5.17-4A199.47,199.47,0,0,1,773,1485.07l-4-5.16c18.2,23.59,31.45,50.34,44,77.23q22.37,48,44.56,96Q870.25,1680.57,883,1708a26.28,26.28,0,0,0,34.89,9.15c5.45-3.51,10.24-8.74,11.72-15.24l.91-6.78a25.32,25.32,0,0,0-3.48-12.87q-20.89-45-41.8-90-10.5-22.65-21-45.3c-5.91-12.75-11.76-25.53-18-38.11-13.24-26.58-28.91-52-49.09-74a216.94,216.94,0,0,0-34.68-30.13,192.72,192.72,0,0,0-35-19.6c-14.52-6.27-29.23-11.58-44.79-14.58-15.87-3.07-32.2-4.73-48.36-3.72-3.43.22-6.85.56-10.26,1a19.16,19.16,0,0,0-9.82,2.2,22.91,22.91,0,0,0-13.48,13.47,19.22,19.22,0,0,0-2.2,9.83c.3,6.59,2.46,13.43,7.47,18l5.16,4A25.42,25.42,0,0,0,624,1418.8Z"/><path d="M299,1182.25q126.36,5.55,252.86,7.29t253.18-.39q71-1.19,142-3.58a26.65,26.65,0,0,0,18-7.47c4.42-4.42,7.75-11.68,7.47-18-.6-13.43-11.22-26-25.5-25.5q-126.48,4.26-253,4.7t-253.13-3q-70.93-1.9-141.83-5c-13.34-.59-26.1,12.14-25.5,25.5.64,14.31,11.2,24.87,25.5,25.5Z"/><path class="cls-3" d="M108.07,1253.83c-.72-1.92-2.46-5.7-4-8.7v29h-3.48v-28.32c-1.74,6.6-4,13-6.42,16.92a22.27,22.27,0,0,0-2-3.24c3.24-5.1,6.54-14.82,8.1-23.16h-7v-3.66h7.26v-13.08h3.48v13.08h5.58v3.66h-5.58v4c1.44,2.28,5.22,8.82,6.06,10.44Zm20.22,3.12c-1.14,3.36-2.46,7.2-3.6,10.08,2.28-.36,4.62-.78,6.9-1.14l.24,3.36c-8,1.38-16.5,2.7-22.62,3.72l-1-3.54c3.66-.48,8.58-1.2,13.92-2l-1-.3a78.58,78.58,0,0,0,3.48-11Zm-10-27.78h-8.76v-3.3h8.76v-6.12h3.48v6.12h8.88v3.3h-8.88v5.58h7.5v3.3H110.83v-3.3h7.5Zm10.5,25.62h-17.4v-13.32h17.4Zm-14,12.24a44,44,0,0,0-2.52-9.84l3.24-.78a48.58,48.58,0,0,1,2.7,9.66Zm10.44-22.56h-10.5v7.26h10.5Zm22.08-7.5h-3.72v32.46c0,2.34-.6,3.54-2,4.2s-4,.72-7.68.72a16.45,16.45,0,0,0-1.26-3.78c2.82.06,5.34.06,6.18.06s1-.3,1-1.14V1237h-9.3v-3.6h9.3v-13.56h3.72v13.56h3.72Zm-12.78,21.18a77.65,77.65,0,0,0-3.54-14.76l3.06-.84a73.94,73.94,0,0,1,3.72,14.52Z"/><path class="cls-3" d="M171.37,1252.15c-1.08-2.22-3.72-6.78-5.76-10.2v32.22h-3.9v-29.88c-2.1,6.9-4.92,13.56-7.74,17.58a18.38,18.38,0,0,0-2.22-3.78c3.9-5,7.8-14.7,9.72-23.1h-8.28v-3.78h8.52v-11.58h3.9v11.58H173V1235h-7.38v2c1.8,2.34,7.08,10.2,8.28,12.06Zm32.82-9a43.83,43.83,0,0,1-11.76,19.56,39.77,39.77,0,0,0,15.66,8.1,17.84,17.84,0,0,0-2.58,3.36,40.75,40.75,0,0,1-16-8.88,51.53,51.53,0,0,1-17.1,9,13.93,13.93,0,0,0-2.22-3.42,47.5,47.5,0,0,0,16.5-8.28,47.08,47.08,0,0,1-9.78-16.5l.6-.18h-2.16v-3.66h12.18V1233h-12.9v-3.72h12.9v-9.6h4v9.6h14.1V1233h-14.1v9.3H201l.78-.18Zm-23.46,2.76a40.79,40.79,0,0,0,8.88,14.22,38.14,38.14,0,0,0,9.66-14.22Z"/><path class="cls-3" d="M108.07,1498.83c-.72-1.92-2.46-5.7-4-8.7v29h-3.48v-28.32c-1.74,6.6-4,13-6.42,16.92a22.27,22.27,0,0,0-2-3.24c3.24-5.1,6.54-14.82,8.1-23.16h-7v-3.66h7.26v-13.08h3.48v13.08h5.58v3.66h-5.58v4c1.44,2.28,5.22,8.82,6.06,10.44Zm20.22,3.12c-1.14,3.36-2.46,7.2-3.6,10.08,2.28-.36,4.62-.78,6.9-1.14l.24,3.36c-8,1.38-16.5,2.7-22.62,3.72l-1-3.54c3.66-.48,8.58-1.2,13.92-2l-1-.3a78.58,78.58,0,0,0,3.48-11Zm-10-27.78h-8.76v-3.3h8.76v-6.12h3.48v6.12h8.88v3.3h-8.88v5.58h7.5v3.3H110.83v-3.3h7.5Zm10.5,25.62h-17.4v-13.32h17.4Zm-14,12.24a44,44,0,0,0-2.52-9.84l3.24-.78a48.58,48.58,0,0,1,2.7,9.66Zm10.44-22.56h-10.5v7.26h10.5Zm22.08-7.5h-3.72v32.46c0,2.34-.6,3.54-2,4.2s-4,.72-7.68.72a16.45,16.45,0,0,0-1.26-3.78c2.82.06,5.34.06,6.18.06s1-.3,1-1.14V1482h-9.3v-3.6h9.3v-13.56h3.72v13.56h3.72Zm-12.78,21.18a77.65,77.65,0,0,0-3.54-14.76l3.06-.84a73.94,73.94,0,0,1,3.72,14.52Z"/><path class="cls-3" d="M166.27,1476.21h7.2V1480h-7.2v3.06c1.62,2.22,6,8.94,7,10.68l-2.4,2.88c-.84-1.86-2.88-5.64-4.56-8.64v31.26h-3.72V1489c-2.1,7-5,13.8-7.92,17.88a21,21,0,0,0-2.22-3.72c3.9-5.1,7.8-14.76,9.72-23.16h-8.82v-3.78h9.24v-11.58h3.72Zm39.6,22.08a77.93,77.93,0,0,1-10.68,7.26,27,27,0,0,0,12.42,9.84,19.57,19.57,0,0,0-2.76,3.48c-9.72-4.32-15.66-13.56-18.78-25.5h-6.3v20.46l11.34-2.76a20.69,20.69,0,0,0,.18,3.48c-12.48,3.48-14.22,4-15.3,4.8a18.6,18.6,0,0,0-1.68-3.48c.72-.42,1.56-1.08,1.56-3.36v-45.18h26.46v26H189.61a40.25,40.25,0,0,0,3.78,9.3,75.58,75.58,0,0,0,9.84-7.14Zm-26.1-27.42v7.68h18.66v-7.68Zm0,19h18.66v-7.92H179.77Z"/><path class="cls-3" d="M1070.07,1079.83c-.72-1.92-2.46-5.7-4-8.7v29h-3.48v-28.32c-1.74,6.6-4,13-6.42,16.92a22.27,22.27,0,0,0-2-3.24c3.24-5.1,6.54-14.82,8.1-23.16h-7v-3.66h7.26v-13.08h3.48v13.08h5.58v3.66h-5.58v4c1.44,2.28,5.22,8.82,6.06,10.44Zm20.22,3.12c-1.14,3.36-2.46,7.2-3.6,10.08,2.28-.36,4.62-.78,6.9-1.14l.24,3.36c-8,1.38-16.5,2.7-22.62,3.72l-1-3.54c3.66-.48,8.58-1.2,13.92-2l-1-.3a78.58,78.58,0,0,0,3.48-11Zm-10-27.78h-8.76v-3.3h8.76v-6.12h3.48v6.12h8.88v3.3h-8.88v5.58h7.5v3.3h-18.48v-3.3h7.5Zm10.5,25.62h-17.4v-13.32h17.4Zm-14,12.24a44,44,0,0,0-2.52-9.84l3.24-.78a48.58,48.58,0,0,1,2.7,9.66Zm10.44-22.56h-10.5v7.26h10.5Zm22.08-7.5h-3.72v32.46c0,2.34-.6,3.54-2,4.2s-4,.72-7.68.72a16.45,16.45,0,0,0-1.26-3.78c2.82.06,5.34.06,6.18.06s1-.3,1-1.14V1063h-9.3v-3.6h9.3v-13.56h3.72v13.56h3.72Zm-12.78,21.18a77.65,77.65,0,0,0-3.54-14.76l3.06-.84a73.94,73.94,0,0,1,3.72,14.52Z"/><path class="cls-3" d="M1128,1057.21h7.38V1061H1128v3c1.56,2.1,5.94,9,7,10.74l-2.4,2.88c-.84-1.92-2.88-5.7-4.56-8.7v31.32h-3.66v-30.42c-2.1,7-5,13.92-7.92,18.06a18.38,18.38,0,0,0-2.22-3.78c3.9-5,7.8-14.7,9.72-23.1h-8.64v-3.78h9.06v-11.58H1128Zm14.1,3.24a49.51,49.51,0,0,0-6-11.28l3.18-1.5a42.8,42.8,0,0,1,6.24,11.1Zm24.24,34.62c0,2.34-.48,3.54-2.16,4.2s-4.56.66-9.06.66a15.78,15.78,0,0,0-1.32-3.78c3.54.12,6.66.12,7.56.06s1.2-.3,1.2-1.2v-8h-21.36v13.32h-3.78v-37.62h12.78v-17.1h3.84v17.1h12.3Zm-25.14-28.56v6.78h21.36v-6.78Zm21.36,17v-6.78h-21.36v6.78Zm5.94-34.68a91.77,91.77,0,0,1-6.9,11.28l-3.24-1.44a72.6,72.6,0,0,0,6.42-11.34Z"/><path class="cls-4" d="M243.54,1489.22c15.29-5,31.48-7.4,47.37-9.71,18.47-2.68,37-5.2,55.62-7a295.83,295.83,0,0,1,32.47-1.4,1.13,1.13,0,0,0,0-2.25c-18.94-.32-37.75,1.79-56.51,4.16-18.39,2.31-36.81,4.57-55,8a194.71,194.71,0,0,0-24.52,6c-1.37.45-.78,2.63.6,2.17Z"/><path class="cls-4" d="M199.46,1550.86a270,270,0,0,0,22,92.63c12.66,28.78,30.85,55.25,54.13,76.46A207,207,0,0,0,354,1765a183.52,183.52,0,0,0,44.4,7.88,200,200,0,0,0,50.84-4.3c34.18-7.09,66.39-21.3,97.84-36.08l11.85-5.6c1.31-.62.17-2.56-1.14-2-31.28,14.86-62.89,29.74-96.52,38.5a217.2,217.2,0,0,1-50.56,7.38,178.28,178.28,0,0,1-45.15-5,201.69,201.69,0,0,1-80.32-40.52c-23.86-19.64-42.94-44.52-56.72-72.13a262.74,262.74,0,0,1-25.85-90.68q-.58-5.79-.92-11.62c-.08-1.44-2.34-1.45-2.25,0Z"/><path class="cls-4" d="M463,1766.92a319.11,319.11,0,0,0,76.58,30.29,323.09,323.09,0,0,0,81.79,9.84,313.63,313.63,0,0,0,79-10.84,322.78,322.78,0,0,0,71.75-29,319.38,319.38,0,0,0,62.74-45.32q3.52-3.27,7-6.65a1.12,1.12,0,0,0-1.59-1.59,316.34,316.34,0,0,1-60.88,46.84A321.16,321.16,0,0,1,709,1791.39a311.45,311.45,0,0,1-77.46,13.16,319.86,319.86,0,0,1-158.44-34.74c-3-1.56-6.05-3.18-9-4.83-1.27-.71-2.4,1.24-1.13,1.94Z"/><path class="cls-3" d="M1070.07,1253.83c-.72-1.92-2.46-5.7-4-8.7v29h-3.48v-28.32c-1.74,6.6-4,13-6.42,16.92a22.27,22.27,0,0,0-2-3.24c3.24-5.1,6.54-14.82,8.1-23.16h-7v-3.66h7.26v-13.08h3.48v13.08h5.58v3.66h-5.58v4c1.44,2.28,5.22,8.82,6.06,10.44Zm20.22,3.12c-1.14,3.36-2.46,7.2-3.6,10.08,2.28-.36,4.62-.78,6.9-1.14l.24,3.36c-8,1.38-16.5,2.7-22.62,3.72l-1-3.54c3.66-.48,8.58-1.2,13.92-2l-1-.3a78.58,78.58,0,0,0,3.48-11Zm-10-27.78h-8.76v-3.3h8.76v-6.12h3.48v6.12h8.88v3.3h-8.88v5.58h7.5v3.3h-18.48v-3.3h7.5Zm10.5,25.62h-17.4v-13.32h17.4Zm-14,12.24a44,44,0,0,0-2.52-9.84l3.24-.78a48.58,48.58,0,0,1,2.7,9.66Zm10.44-22.56h-10.5v7.26h10.5Zm22.08-7.5h-3.72v32.46c0,2.34-.6,3.54-2,4.2s-4,.72-7.68.72a16.45,16.45,0,0,0-1.26-3.78c2.82.06,5.34.06,6.18.06s1-.3,1-1.14V1237h-9.3v-3.6h9.3v-13.56h3.72v13.56h3.72Zm-12.78,21.18a77.65,77.65,0,0,0-3.54-14.76l3.06-.84a73.94,73.94,0,0,1,3.72,14.52Z"/><path class="cls-3" d="M1133.37,1252.15c-1.08-2.22-3.72-6.78-5.76-10.2v32.22h-3.9v-29.88c-2.1,6.9-4.92,13.56-7.74,17.58a18.38,18.38,0,0,0-2.22-3.78c3.9-5,7.8-14.7,9.72-23.1h-8.28v-3.78h8.52v-11.58h3.9v11.58H1135V1235h-7.38v2c1.8,2.34,7.08,10.2,8.28,12.06Zm32.82-9a43.83,43.83,0,0,1-11.76,19.56,39.77,39.77,0,0,0,15.66,8.1,17.84,17.84,0,0,0-2.58,3.36,40.75,40.75,0,0,1-16-8.88,51.53,51.53,0,0,1-17.1,9,13.93,13.93,0,0,0-2.22-3.42,47.5,47.5,0,0,0,16.5-8.28,47.08,47.08,0,0,1-9.78-16.5l.6-.18h-2.16v-3.66h12.18V1233h-12.9v-3.72h12.9v-9.6h4v9.6h14.1V1233h-14.1v9.3H1163l.78-.18Zm-23.46,2.76a40.79,40.79,0,0,0,8.88,14.22,38.14,38.14,0,0,0,9.66-14.22Z"/><path class="cls-4" d="M222.72,1256.81a205.12,205.12,0,0,0,46.46,1.07,207.46,207.46,0,0,0,45.53-9.38,205.15,205.15,0,0,0,24.34-9.74c1.3-.62.16-2.56-1.14-1.94a202.46,202.46,0,0,1-43.19,14.82,204.73,204.73,0,0,1-45.63,4.84,200.13,200.13,0,0,1-25.77-1.84c-1.42-.19-2,2-.6,2.17Z"/><path class="cls-4" d="M907.55,1237.62a206,206,0,0,0,88.72,24.78,202.11,202.11,0,0,0,26.16-.45c1.43-.12,1.45-2.37,0-2.25a203,203,0,0,1-45.95-1.46,206.52,206.52,0,0,1-44.12-11.59,202.36,202.36,0,0,1-23.68-11c-1.27-.7-2.41,1.25-1.13,1.94Z"/><path class="cls-4" d="M688,1109.25a579.67,579.67,0,0,1,60.62-19.93,573.62,573.62,0,0,1,62.63-13.1,590.14,590.14,0,0,1,64.34-6.13,632.3,632.3,0,0,1,65.74.8q34.2,2.17,68,7.79,4.23.69,8.43,1.43c1.42.25,2-1.92.6-2.17-22.49-4-45.17-6.89-67.94-8.66a640.12,640.12,0,0,0-66.57-1.72,601.8,601.8,0,0,0-64.58,5.24,574,574,0,0,0-124.26,31.35c-2.56,1-5.11,1.93-7.66,2.93-1.33.52-.75,2.69.6,2.17Z"/></svg>