<svg id="Layer_1" data-name="Layer 1" xmlns="http://www.w3.org/2000/svg" viewBox="0 0 1242 2208"><defs><style>.cls-1{fill:#f6eabe;}.cls-2{fill:#999;}</style></defs><rect class="cls-1" width="1242" height="2208"/><path d="M974.33,775.41V827H266.09v-51.6H377.25V318.86h54V775.41H623.38V145.77h54.79V411h262v52.41h-262v312Z"/><rect class="cls-2" x="1113" y="450" width="65" height="126" rx="12"/><path class="cls-1" d="M1132.7,479.82c1.25,1.6,4.9,6.7,5.7,8.05l-2,2.45c-.7-1.5-2.35-4.4-3.75-6.65V510h-3.15V485.57c-1.5,5.05-3.5,9.9-5.55,12.85a14.83,14.83,0,0,0-1.75-3.1c2.9-4,5.8-11.5,7.2-18h-6.2v-3.15h6.3v-9.65h3.15v9.65h5.45v3.15h-5.45Zm19.1.7a19.47,19.47,0,0,0,.45,2.65c-10.15,2.7-11.6,3.15-12.5,3.75a12.13,12.13,0,0,0-1.1-3.2c.7-.2,1.55-.5,1.55-2.2v-16.7h3.25v6.5h8.35v2.9h-8.35v8.3Zm2.35,5.5-2,3.75h12.65V510h-3.4v-1.75h-17v2h-3.3V489.77h7.9c.55-1.5,1.2-3.25,1.55-4.6Zm7.3,6.5h-17v5.05h17Zm0,13v-5.3h-17v5.3Zm2.25-22.4c1.25,0,1.5-.75,1.65-5.25a9.16,9.16,0,0,0,2.85,1.25c-.3,5.45-1.2,6.95-4.15,6.95h-5.85c-3.65,0-4.55-.95-4.55-4.45V464.87h3.25v6.5h10.2v2.9h-10.2v7.35c0,1.3.25,1.5,1.65,1.5Z"/><path class="cls-1" d="M1167.55,539.87v2.5H1123.4v-2.5h20.25v-3.2H1126.8v-2.3h16.85v-3H1128.2v-2.25h15.45v-3.2H1123.5v-2.5h20.15v-3H1128.8V518h14.85v-3.55h3.25V518h14.45v5.4h6.15v2.5h-6.15v5.45H1146.9v3h17.3v2.3h-17.3v3.2Zm-37.75,5h31.75v15.25h-3.25v-1.6H1133v1.7h-3.2Zm3.2,2.4v3.2h25.3v-3.2Zm25.3,8.85v-3.4H1133v3.4Zm-11.4-32.7h11.15v-3H1146.9Zm0,5.7h11.15v-3.2H1146.9Z"/><path d="M504.92,1832.69a98.85,98.85,0,0,1-6.18,13.56v39.59H494.9v-33.35a61.73,61.73,0,0,1-5.46,7,32.86,32.86,0,0,0-2.28-3.9c5.58-5.87,10.8-14.87,14-24Zm34.14,28c-2.1,1.26-4.44,2.64-6.84,3.78,2,6.06,5.82,11.82,10.38,14.52a11.2,11.2,0,0,0-2.64,2.94c-4.62-3.18-8.46-9.42-10.68-16a27.45,27.45,0,0,1-2.76,1.2c2.58,6.84,1.86,14-1,16.68a6.91,6.91,0,0,1-5.22,1.92c-1.08,0-2.4-.06-3.78-.18a9.31,9.31,0,0,0-1-3.42,38.26,38.26,0,0,0,4.14.24,3.66,3.66,0,0,0,3.12-1.14c1.56-1.38,2.22-5.16,1.44-9.36-5.16,4.92-13.08,9.36-19.8,11.7a15.8,15.8,0,0,0-2.34-2.82c7.62-2.28,16.62-7.14,21.3-12.24a35.76,35.76,0,0,0-1.5-3.48,63.52,63.52,0,0,1-17.22,9.9,16.14,16.14,0,0,0-2.22-2.64c5.94-1.8,13.74-5.76,17.88-9.54a16.39,16.39,0,0,0-2.94-3.18,58.44,58.44,0,0,1-13.56,7.26,11.26,11.26,0,0,0-2.22-2.58,52.48,52.48,0,0,0,15.06-7.56H506.48v-9.35c-1.14,1-2.28,2-3.54,2.94a9.54,9.54,0,0,0-2.52-2.59,44.59,44.59,0,0,0,13.86-16.25l3.84.72c-.6,1.2-1.32,2.34-2,3.54h11.1l.72-.18,2.34,1.68a52.13,52.13,0,0,1-4.8,6.84h13.08v12.65H520.94a15.29,15.29,0,0,1-1.2,1,21,21,0,0,1,5.64,6.84,111.93,111.93,0,0,0,10.92-6.42ZM514,1838.81a54.58,54.58,0,0,1-4.2,5.16h11.58a37.88,37.88,0,0,0,3.72-5.16Zm-3.9,14.69h10.5v-6.42h-10.5Zm24.72-6.42H524.18v6.42H534.8Z"/><path d="M577.28,1831.55c-.06,2.1-.12,5.1-.42,8.64.9,7,4.56,32.51,25.74,42a12.63,12.63,0,0,0-2.88,3.36c-15.42-7.26-21.72-22.74-24.6-34-2.64,12.23-8.94,26.33-24.06,34.19a13.77,13.77,0,0,0-3.12-3.06c25-12.48,24.78-42.11,25-51.11Z"/><path d="M624,1832c-1,2.94-2.1,6.3-3.18,8.88H631v38.75h-16.8v4.8h-3.66v-43.55h6.66a64.68,64.68,0,0,0,2.58-9.72Zm3.3,12.47H614.18v13.08h13.14Zm0,31.56v-14.88H614.18v14.88Zm33.06-33.17c-1,27.53-1.8,36.71-4.2,39.59a5.6,5.6,0,0,1-4.56,2.28,74.94,74.94,0,0,1-8.82-.12,9.42,9.42,0,0,0-1.32-3.9c3.9.36,7.5.36,8.82.36s1.92-.12,2.52-.9c2-2.1,2.94-11.34,3.72-35.7H640.82a55.33,55.33,0,0,1-5.64,10.68,36.22,36.22,0,0,0-3.36-2.22c4.08-5.34,7.32-13.61,9.18-21.89l3.84.84c-.78,3-1.62,6-2.64,8.88h18.18Zm-12.78,27a106.51,106.51,0,0,0-9.3-13.92l3.06-1.79a102.47,102.47,0,0,1,9.6,13.61Z"/><path d="M683.3,1881.46c0,2-.42,3.12-1.62,3.72s-3.24.72-6.42.72a14.26,14.26,0,0,0-1.14-3.54c2.34.06,4.26.06,4.92,0s.9-.18.9-1v-17.22c-1.56,1.32-3.06,2.64-4.62,3.9l-1.62-3c-.42,7.26-1.38,14.94-3.6,20.88a15.61,15.61,0,0,0-2.94-1.68c3.24-8.52,3.48-20.58,3.48-29.28v-21.47H683.3ZM673.94,1855c0,2.94-.06,6.3-.24,9.84,1.74-1.08,3.9-2.7,6.24-4.38v-8.09l-1.62,1.31a38.55,38.55,0,0,0-4.38-5.76Zm0-17.75v9.9l1.86-1.26a42.57,42.57,0,0,1,4.14,4.73v-13.37Zm24.06,7.14c-.24.84-.54,1.61-.78,2.46,3.72,4.73,8.1,10.86,10,14.63l-2.7,2.16a93.59,93.59,0,0,0-8.76-13.49,39.5,39.5,0,0,1-9.12,13.43,13.73,13.73,0,0,0-2.64-2.52c4.68-3.89,8.64-10.56,10.62-17.57Zm-3.66-10.92a43.07,43.07,0,0,1-7.08,14.4,16.68,16.68,0,0,0-2.76-2.1c2.88-3.24,5.16-8.16,6.48-13Zm-6.12,29.15h15.24V1885h-3.3v-3.48H691.4v3.72h-3.18Zm3.18,3.6V1878h8.76v-11.76Zm12-19a61.47,61.47,0,0,0-6.24-13.5l2.94-1c2.64,4.2,5.46,9.78,6.42,13.2ZM720.14,1872c0,1.8-.3,2.82-1.5,3.42s-2.94.66-5.46.66a11.14,11.14,0,0,0-1.14-3.36c1.92.06,3.6.06,4.08,0s.72-.18.72-.78v-33.59H710.9V1886h-3.18v-51.17h12.42Z"/><path d="M733.88,1867c4.68-2,7.26-4.86,7.56-9.17a4,4,0,0,1-1.14.11c-2.34,0-4.26-1.32-4.26-4.07a4,4,0,0,1,4.32-4.08c3.18,0,4.86,2.58,4.86,6.66,0,6.41-4,11.21-10.08,13.43Z"/><path d="M388.76,1915c-1.2,2.46-2.52,5-3.9,7.31h29.22v30.54c0,2.52-.6,3.72-2.46,4.38s-5.16.66-10.38.66a16.63,16.63,0,0,0-1.32-3.9c4.14.18,7.8.12,8.82.12s1.44-.42,1.44-1.32v-6.66H383.9c-.84,4.38-2.58,8.88-6.12,12.24a12.44,12.44,0,0,0-2.76-3.12c5-4.86,5.52-11.52,5.52-17.22v-9.53a50.45,50.45,0,0,1-10.14,9.71,17.42,17.42,0,0,0-2.52-3.12c7.2-4.92,12.66-12.17,16.56-20.09H369.08v-3.78h17a57.7,57.7,0,0,0,2.76-7.8l4,.9a72.7,72.7,0,0,1-2.46,6.9h30.84V1915Zm21.42,27.65v-6.72H384.56V1938c0,1.44-.06,2.94-.18,4.56Zm0-16.73H384.56v6.53h25.62Z"/><path d="M443.3,1953.46c0,2-.42,3.12-1.62,3.72s-3.24.72-6.42.72a14.26,14.26,0,0,0-1.14-3.54c2.34.06,4.26.06,4.92,0s.9-.18.9-1v-17.22c-1.56,1.32-3.06,2.64-4.62,3.9l-1.62-3c-.42,7.26-1.38,14.94-3.6,20.88a15.61,15.61,0,0,0-2.94-1.68c3.24-8.52,3.48-20.58,3.48-29.28v-21.47H443.3ZM433.94,1927c0,2.94-.06,6.3-.24,9.84,1.74-1.08,3.9-2.7,6.24-4.38v-8.09l-1.62,1.31a38.55,38.55,0,0,0-4.38-5.76Zm0-17.75v9.9l1.86-1.26a42.57,42.57,0,0,1,4.14,4.73v-13.37Zm24.06,7.14c-.24.84-.54,1.61-.78,2.46,3.72,4.73,8.1,10.86,10,14.63l-2.7,2.16a93.59,93.59,0,0,0-8.76-13.49,39.5,39.5,0,0,1-9.12,13.43,13.73,13.73,0,0,0-2.64-2.52c4.68-3.89,8.64-10.56,10.62-17.57Zm-3.66-10.92a43.07,43.07,0,0,1-7.08,14.4,16.68,16.68,0,0,0-2.76-2.1c2.88-3.24,5.16-8.16,6.48-13Zm-6.12,29.15h15.24V1957h-3.3v-3.48H451.4v3.72h-3.18Zm3.18,3.6V1950h8.76v-11.76Zm12-19a61.47,61.47,0,0,0-6.24-13.5l2.94-1c2.64,4.2,5.46,9.78,6.42,13.2ZM480.14,1944c0,1.8-.3,2.82-1.5,3.42s-2.94.66-5.46.66a11.14,11.14,0,0,0-1.14-3.36c1.92.06,3.6.06,4.08,0s.72-.18.72-.78v-33.59H470.9V1958h-3.18v-51.17h12.42Z"/><path d="M511,1948.48l-22.56,6.3-1-3.72c1-.24,2-.48,3.18-.78v-20.45h3.36v19.61c1.62-.42,3.36-.84,5.1-1.26V1924h-8.58v-18h19.2v18h-7.08v8.39h7.26v3.6h-7.26v11.28c2.58-.72,5.22-1.5,7.92-2.16Zm-17-28.07h12v-10.92H494Zm48.36,32.09v3.78h-35v-3.78h7.5v-35.69h3.78v35.69h6.84v-49.07h3.9V1925h10.92v3.77H529.4v23.7Z"/><path d="M568.52,1936.06l-3.66,3.12a93.63,93.63,0,0,0-13.32-13.38l3.42-3.11A118.53,118.53,0,0,1,568.52,1936.06Z"/><path d="M593.3,1953.46c0,2-.42,3.12-1.62,3.72s-3.24.72-6.42.72a14.26,14.26,0,0,0-1.14-3.54c2.34.06,4.26.06,4.92,0s.9-.18.9-1v-17.22c-1.56,1.32-3.06,2.64-4.62,3.9l-1.62-3c-.42,7.26-1.38,14.94-3.6,20.88a15.61,15.61,0,0,0-2.94-1.68c3.24-8.52,3.48-20.58,3.48-29.28v-21.47H593.3ZM583.94,1927c0,2.94-.06,6.3-.24,9.84,1.74-1.08,3.9-2.7,6.24-4.38v-8.09l-1.62,1.31a38.55,38.55,0,0,0-4.38-5.76Zm0-17.75v9.9l1.86-1.26a42.57,42.57,0,0,1,4.14,4.73v-13.37Zm24.06,7.14c-.24.84-.54,1.61-.78,2.46,3.72,4.73,8.1,10.86,10,14.63l-2.7,2.16a93.59,93.59,0,0,0-8.76-13.49,39.5,39.5,0,0,1-9.12,13.43,13.73,13.73,0,0,0-2.64-2.52c4.68-3.89,8.64-10.56,10.62-17.57Zm-3.66-10.92a43.07,43.07,0,0,1-7.08,14.4,16.68,16.68,0,0,0-2.76-2.1c2.88-3.24,5.16-8.16,6.48-13Zm-6.12,29.15h15.24V1957h-3.3v-3.48H601.4v3.72h-3.18Zm3.18,3.6V1950h8.76v-11.76Zm12-19a61.47,61.47,0,0,0-6.24-13.5l2.94-1c2.64,4.2,5.46,9.78,6.42,13.2ZM630.14,1944c0,1.8-.3,2.82-1.5,3.42s-2.94.66-5.46.66a11.14,11.14,0,0,0-1.14-3.36c1.92.06,3.6.06,4.08,0s.72-.18.72-.78v-33.59H620.9V1958h-3.18v-51.17h12.42Z"/><path d="M691.46,1949.62h-24.6v4.14c0,2.34-.66,3.24-2.52,3.78s-5.22.48-10.68.48a11,11,0,0,0-1.38-3.12c4.32.12,8.22.06,9.24,0s1.44-.3,1.44-1.2v-4.08h-24.3v-2.94H663v-4.32H642.08v-2.94H663v-3.9c-6.12.3-12.48.48-18.12.48a7.33,7.33,0,0,0-.78-2.7c13.14-.18,29.28-1,37.8-2.46l2.58,2.58c-4.74.79-11,1.44-17.58,1.86v4.14h21.42v2.94H666.86v4.32h24.6Zm-47.64-26.45H640.1v-11.76h10.32a47.56,47.56,0,0,0-4.38-6.24l3.42-1.38a33.88,33.88,0,0,1,4.74,6.3l-2.7,1.32h11.4v-8.1h4v8.1h11.16l-2.46-1.08a43.71,43.71,0,0,0,5.16-6.6l4,1.5a73.78,73.78,0,0,1-5.64,6.18h11.1v11.76h-3.84v-8.34H643.82Zm4.8,6.29v-10.67h33.24v10.67Zm3.72-2.75H678v-5.1H652.34Z"/><path d="M718.52,1936.06l-3.66,3.12a93.63,93.63,0,0,0-13.32-13.38l3.42-3.11A118.53,118.53,0,0,1,718.52,1936.06Z"/><path d="M743.3,1953.46c0,2-.42,3.12-1.62,3.72s-3.24.72-6.42.72a14.26,14.26,0,0,0-1.14-3.54c2.34.06,4.26.06,4.92,0s.9-.18.9-1v-17.22c-1.56,1.32-3.06,2.64-4.62,3.9l-1.62-3c-.42,7.26-1.38,14.94-3.6,20.88a15.61,15.61,0,0,0-2.94-1.68c3.24-8.52,3.48-20.58,3.48-29.28v-21.47H743.3ZM733.94,1927c0,2.94-.06,6.3-.24,9.84,1.74-1.08,3.9-2.7,6.24-4.38v-8.09l-1.62,1.31a38.55,38.55,0,0,0-4.38-5.76Zm0-17.75v9.9l1.86-1.26a42.57,42.57,0,0,1,4.14,4.73v-13.37Zm24.06,7.14c-.24.84-.54,1.61-.78,2.46,3.72,4.73,8.1,10.86,10,14.63l-2.7,2.16a93.59,93.59,0,0,0-8.76-13.49,39.5,39.5,0,0,1-9.12,13.43,13.73,13.73,0,0,0-2.64-2.52c4.68-3.89,8.64-10.56,10.62-17.57Zm-3.66-10.92a43.07,43.07,0,0,1-7.08,14.4,16.68,16.68,0,0,0-2.76-2.1c2.88-3.24,5.16-8.16,6.48-13Zm-6.12,29.15h15.24V1957h-3.3v-3.48H751.4v3.72h-3.18Zm3.18,3.6V1950h8.76v-11.76Zm12-19a61.47,61.47,0,0,0-6.24-13.5l2.94-1c2.64,4.2,5.46,9.78,6.42,13.2ZM780.14,1944c0,1.8-.3,2.82-1.5,3.42s-2.94.66-5.46.66a11.14,11.14,0,0,0-1.14-3.36c1.92.06,3.6.06,4.08,0s.72-.18.72-.78v-33.59H770.9V1958h-3.18v-51.17h12.42Z"/><path d="M810.8,1949.08c-7.92,2.1-16.32,4.44-22.38,6l-1-3.78,3.18-.72v-20.7h3.36v19.92l5-1.32V1924h-8.52v-18h19.2v18h-7.08v8.63H810v3.6h-7.44v11.34c2.52-.66,5.22-1.26,7.8-2ZM794,1920.41h12v-10.92H794ZM841.88,1937a76,76,0,0,1-10.68,7.26,25.42,25.42,0,0,0,11.64,9.84,16.63,16.63,0,0,0-2.64,3.48c-9.18-4.44-14.7-13.62-17.58-25.5h-6.06v20.28l11-2.7a22.19,22.19,0,0,0,.18,3.6c-12.48,3.42-14.22,4-15.36,4.8a15.14,15.14,0,0,0-1.8-3.36,4.16,4.16,0,0,0,2.1-4v-44.57h25.8v26H826a44.06,44.06,0,0,0,3.6,9.3,81.83,81.83,0,0,0,9.78-7.13Zm-25.32-27.35v7.62H834.8v-7.62Zm0,18.89H834.8v-7.92H816.56Z"/><path d="M860.18,1921.67a9.06,9.06,0,1,1-9.06,9A9.09,9.09,0,0,1,860.18,1921.67Zm0,15.23a6.18,6.18,0,1,0,0-12.36,6.18,6.18,0,1,0,0,12.36Z"/><path d="M160,1988.62a64.41,64.41,0,0,1-5.4,8.34v33.3h-3.78v-28.62a65.82,65.82,0,0,1-6.18,6.12,20.75,20.75,0,0,0-2.4-3.47,56.52,56.52,0,0,0,14.16-16.92Zm-1.44-11.87a60.18,60.18,0,0,1-13.5,14.1,25,25,0,0,0-2.16-2.82c4.44-3.3,9.54-8.4,12.06-12.66Zm33.18,30.71a33.28,33.28,0,0,1-10.38,12.84,51.56,51.56,0,0,0,16.68,6.36,15.25,15.25,0,0,0-2.4,3.42,52.11,52.11,0,0,1-17.46-7.56,60.2,60.2,0,0,1-19,7.62,10.39,10.39,0,0,0-2-3.42,56.43,56.43,0,0,0,17.82-6.6,38.35,38.35,0,0,1-7.44-8.16,54.89,54.89,0,0,1-7.38,5.52,24,24,0,0,0-2.7-2.94,44.29,44.29,0,0,0,14.76-13.13c-8.88.59-10.38.77-11.52,1.19a20.77,20.77,0,0,0-1.14-3.6c1.62-.17,3.78-1.25,6.54-2.88,1.44-.78,4.44-2.63,7.92-5-9.42.49-11,.73-12,1.09a28.45,28.45,0,0,0-1.14-3.67,9.92,9.92,0,0,0,3.72-2.27,71.11,71.11,0,0,0,10.08-10.74l3.66,1.74a87.28,87.28,0,0,1-11.16,11l11.52-.36a94.8,94.8,0,0,0,8.1-6.6l3.42,2a137.26,137.26,0,0,1-22.2,15.11l20.28-1.08a60.23,60.23,0,0,0-4.56-5.34l3.06-1.67a72.52,72.52,0,0,1,10.08,13l-3.3,1.92a52.84,52.84,0,0,0-3.06-5l-13.86.89a37.65,37.65,0,0,1-3.66,5.22h15.36l.72-.18Zm-13.56,10.68a30.76,30.76,0,0,0,8.16-8.58l-16.26.06A32.94,32.94,0,0,0,178.22,2018.14Z"/><path d="M252.92,2024.32c0,2.76-.78,4-2.64,4.68s-5.46.72-11.1.66a12.92,12.92,0,0,0-1.38-3.84c4.32.18,8.4.12,9.6.06s1.56-.42,1.56-1.56v-12.78H232.22v17.94h-4v-17.94H212.78c-.9,6.72-2.88,13.56-7.56,18.78a11.58,11.58,0,0,0-3-2.64c6.6-7.44,7.26-18,7.26-26.46v-21.59h43.44Zm-24.66-16.56v-10.5H213.38v4c0,2.11-.06,4.26-.24,6.54Zm-14.88-24.35v10.13h14.88v-10.13Zm35.58,0H232.22v10.13H249Zm0,24.35v-10.5H232.22v10.5Z"/><path d="M289,1978.49H274.22v35.15h-4v-38.87H289Z"/><path d="M316,2020.48l-22.56,6.3-1-3.72c1-.24,2-.48,3.18-.78v-20.45h3.36v19.61c1.62-.42,3.36-.84,5.1-1.26V1996h-8.58v-18h19.2v18h-7.08v8.39h7.26v3.6h-7.26v11.28c2.58-.72,5.22-1.5,7.92-2.16Zm-17-28.07h12v-10.92H299Zm48.36,32.09v3.78h-35v-3.78h7.5v-35.69h3.78v35.69h6.84v-49.07h3.9V1997h10.92v3.77H334.4v23.7Z"/><path d="M351,2026.84h14.82v-35.15h4v38.87H351Z"/><path d="M434.12,2007a100.84,100.84,0,0,1-11.7,8.58,36.22,36.22,0,0,0,15.3,8.76,24.16,24.16,0,0,0-2.64,3.48c-12.3-4.08-20.82-13.2-25.38-25.61h-.18a53.79,53.79,0,0,1-9.6,8V2024l14.88-4.5a18.38,18.38,0,0,0,.6,3.42c-16.62,5.4-18.66,6.12-20,7a14.6,14.6,0,0,0-1.74-3.66,3.9,3.9,0,0,0,2.16-3.78v-9.72a71.36,71.36,0,0,1-10.68,5.1,19.48,19.48,0,0,0-2.64-3.24,62.5,62.5,0,0,0,21.9-12.41H384.2v-3.54h23.7v-5.64H389.54v-3.36H407.9v-5.4H386.54v-3.48H407.9v-5.52h4v5.52h22v3.48h-22v5.4h19.32v3.36H411.92v5.64H435.8v3.54H413.54a38.86,38.86,0,0,0,6.6,11,80.68,80.68,0,0,0,10.74-8.46Z"/><path d="M458.6,2005.48a55.25,55.25,0,0,1-12.66,19.08,26.09,26.09,0,0,0-3.54-2.4,46.53,46.53,0,0,0,12.12-17.7Zm37.62-11.1v4H472.16v26.34c0,2.7-.72,3.84-2.64,4.56s-5.52.72-10.8.72a16.61,16.61,0,0,0-1.44-4.2c4.2.12,8,.18,9.12.12s1.5-.36,1.5-1.32v-26.22H443.72v-4ZM491,1983.89H449.06v-4H491Zm-6.3,20.75c4.44,5.58,9.18,13.14,11,18.18l-4,1.74c-1.62-5-6.24-12.72-10.68-18.48Z"/><path d="M518.3,2025.46c0,2-.42,3.12-1.62,3.72s-3.24.72-6.48.72a11.94,11.94,0,0,0-1.08-3.54c2.34.06,4.26.06,4.92,0s.9-.18.9-1v-15.66h-6.3c-.42,7-1.38,14.46-3.54,20.22a12.7,12.7,0,0,0-2.94-1.62c3.24-8.52,3.48-20.58,3.48-29.27v-21.54H518.3ZM514.94,2006v-10.68h-6V1999c0,2.17,0,4.5-.12,7Zm-6-24.77v10.44h6v-10.44Zm23.76,7.44c-.18.66-.36,1.26-.6,1.92,3.66,4.73,8.1,10.85,10.08,14.69l-2.46,2.46a97.23,97.23,0,0,0-9-13.73c-2.46,5.76-5.76,10.73-9.6,14a18.61,18.61,0,0,0-2.16-3c4.62-3.77,8.76-10.37,10.8-17.57Zm-3.48-10.92a44.12,44.12,0,0,1-7.26,14.46,21.48,21.48,0,0,0-2.58-2.65c2.94-3.17,5.34-8,6.84-12.83Zm-6.06,28.85h15.12V2029H535.1v-3.48h-8.88v3.72h-3.06Zm3.06,3.6V2022h8.88v-11.76Zm13.14-18.47a80,80,0,0,0-7.2-13.74l2.52-1.5a72.82,72.82,0,0,1,7.44,13.44Zm15.72,24.47c0,2.1-.3,3.06-1.44,3.72s-2.94.72-5.4.72a20.52,20.52,0,0,0-1.08-3.6c1.86.06,3.36.06,3.9,0s.72-.18.72-.84v-33.89h-5.64V2030h-3.42v-51.17h12.36Z"/><path d="M564,2028.7c4.68-2,7.26-4.92,7.56-9.18a7.35,7.35,0,0,1-1.14.12c-2.34,0-4.26-1.38-4.26-4.08a4,4,0,0,1,4.32-4.14c3.18,0,4.86,2.64,4.86,6.66,0,6.48-4,11.28-10.08,13.44Z"/><path d="M621.68,1982.69c-.84,3.12-1.8,6.42-2.7,9.06h24.66v32.93c0,2.46-.54,3.6-2.22,4.26s-4.8.72-9.12.72a12.47,12.47,0,0,0-1.38-3.78c3.54.12,6.6.06,7.5,0s1.2-.3,1.2-1.2v-29.22H628.94V2028h-4v-32.58H614.54V2028h-3.9v-32.58h-10V2030h-4v-38.27h18.24c.84-2.71,1.56-6.12,2.16-9.06H593.48v-4h53.34v4Z"/><path d="M702.92,2024.32c0,2.76-.78,4-2.64,4.68s-5.46.72-11.1.66a12.92,12.92,0,0,0-1.38-3.84c4.32.18,8.4.12,9.6.06s1.56-.42,1.56-1.56v-12.78H682.22v17.94h-4v-17.94H662.78c-.9,6.72-2.88,13.56-7.56,18.78a11.58,11.58,0,0,0-3-2.64c6.6-7.44,7.26-18,7.26-26.46v-21.59h43.44Zm-24.66-16.56v-10.5H663.38v4c0,2.11-.06,4.26-.24,6.54Zm-14.88-24.35v10.13h14.88v-10.13Zm35.58,0H682.22v10.13H699Zm0,24.35v-10.5H682.22v10.5Z"/><path d="M739,1978.49H724.22v35.15h-4v-38.87H739Z"/><path d="M796.7,2023.12v3.9H743.18v-3.9h8.4v-34.5h4.08v34.5h14.52v-47.57h4.14v20h19.8v4h-19.8v23.58Z"/><path d="M801,2026.84h14.82v-35.15h4v38.87H801Z"/><path d="M884.12,2007a100.84,100.84,0,0,1-11.7,8.58,36.22,36.22,0,0,0,15.3,8.76,24.16,24.16,0,0,0-2.64,3.48c-12.3-4.08-20.82-13.2-25.38-25.61h-.18a53.79,53.79,0,0,1-9.6,8V2024l14.88-4.5a18.38,18.38,0,0,0,.6,3.42c-16.62,5.4-18.66,6.12-20,7a14.6,14.6,0,0,0-1.74-3.66,3.9,3.9,0,0,0,2.16-3.78v-9.72a71.36,71.36,0,0,1-10.68,5.1,19.48,19.48,0,0,0-2.64-3.24,62.5,62.5,0,0,0,21.9-12.41H834.2v-3.54h23.7v-5.64H839.54v-3.36H857.9v-5.4H836.54v-3.48H857.9v-5.52h4v5.52h22v3.48h-22v5.4h19.32v3.36H861.92v5.64H885.8v3.54H863.54a38.86,38.86,0,0,0,6.6,11,80.68,80.68,0,0,0,10.74-8.46Z"/><path d="M908.6,2005.48a55.25,55.25,0,0,1-12.66,19.08,26.09,26.09,0,0,0-3.54-2.4,46.53,46.53,0,0,0,12.12-17.7Zm37.62-11.1v4H922.16v26.34c0,2.7-.72,3.84-2.64,4.56s-5.52.72-10.8.72a16.61,16.61,0,0,0-1.44-4.2c4.2.12,8,.18,9.12.12s1.5-.36,1.5-1.32v-26.22H893.72v-4ZM941,1983.89H899.06v-4H941Zm-6.3,20.75c4.44,5.58,9.18,13.14,11,18.18l-4,1.74c-1.62-5-6.24-12.72-10.68-18.48Z"/><path d="M969.86,1976.51a99.88,99.88,0,0,1-6.3,13.86V2030H959.9v-33.59a59.15,59.15,0,0,1-5.4,7,32.11,32.11,0,0,0-2.22-3.89c5.58-5.88,10.74-14.88,13.92-24.06Zm-1.2,26.45h38v9.48h-3.6v-6.18H972.2v6.18h-3.54Zm38.16-22.13v3.48H969.56v-3.48h16.8a34.78,34.78,0,0,0-2.46-4.68l3.6-1.08a31.81,31.81,0,0,1,3.12,5.76ZM973.76,2011h27.72v3.3h-11.7v11.16c0,2.16-.54,3.18-2.28,3.78s-4.86.54-9.54.54a11.82,11.82,0,0,0-1.32-3.48c3.78.06,7,.06,7.92.06s1.2-.3,1.2-1v-11h-12Zm27.9-23.33V1999H974v-11.28Zm-3.84,3h-20.1V1996h20.1Z"/><path d="M1031.36,1976.75a92.85,92.85,0,0,1-6.18,12.83v40.32h-4v-34.07a58.5,58.5,0,0,1-6.36,7.67,22.37,22.37,0,0,0-2.34-3.9c6-5.81,11.64-14.81,15.06-24Zm36.12,47.39v3.78h-38.7v-3.78h17.58v-15.78h-14v-3.78h14v-13.67h-16v-3.79h36.24v3.79h-16.2v13.67h14.4v3.78h-14.4v15.78ZM1048,1986.41a54.81,54.81,0,0,0-5.16-10l3.6-1.32a52,52,0,0,1,5.4,9.72Z"/><path d="M1091.36,2019.88a9,9,0,1,1-9.06-9A9,9,0,0,1,1091.36,2019.88Zm-2.82,0a6.21,6.21,0,1,0-6.24,6.24A6.22,6.22,0,0,0,1088.54,2019.88Z"/><rect class="cls-2" x="1113" y="1233" width="65" height="271" rx="12"/><path class="cls-1" d="M1158.05,1272.79a27.61,27.61,0,0,0,11.5,8.1,11.65,11.65,0,0,0-2.15,2.55,30.77,30.77,0,0,1-12.8-10.65h-15.95a34.39,34.39,0,0,1-13,11.3,11.43,11.43,0,0,0-2.15-2.55,30.39,30.39,0,0,0,11.6-8.75H1124v-2.85h10v-16.15h-7.7V1251h7.7v-5h3.3v5h18.55v-5h3.35v5h7.65v2.8h-7.65v16.15h9.8v2.85Zm-10,14.5h17.3v2.85H1127.8v-2.85h16.9v-5.6h-10.45v-2.8h10.45v-4.4h3.35v4.4h10.65v2.8h-10.65Zm-10.8-33.5v3.6h18.55v-3.6Zm0,9.8h18.55v-3.65h-18.55Zm0,6.35h18.55v-3.8h-18.55Z"/><path class="cls-1" d="M1142.25,1314.54s0,1.15,0,1.55c-.6,15.85-1.2,21.2-2.6,23a3.71,3.71,0,0,1-2.8,1.45,32.65,32.65,0,0,1-4.45,0,9.25,9.25,0,0,0-.85-3c1.75.15,3.2.15,3.9.15a1.42,1.42,0,0,0,1.45-.65c1-1.2,1.6-6,2.15-19.35h-6.8c-.55,10-2,18.25-6.45,23.65a9.53,9.53,0,0,0-2.55-2.35c5.45-6.45,5.9-17.85,6.1-31.55h-5.2v-3.1h20.1v3.1h-11.65c0,2.45-.1,4.85-.2,7.15Zm-7.9-10.45a33.47,33.47,0,0,0-4.25-7.15l2.9-1.15a31.92,31.92,0,0,1,4.4,7Zm23.85-7.45a15.26,15.26,0,0,1-.85,2.55c2.65,5.45,7.7,11.35,12.45,14a13,13,0,0,0-2.45,2.75c-4.25-2.7-8.5-8-11.4-13.3a32.61,32.61,0,0,1-11,13.6,12.79,12.79,0,0,0-2.35-2.65c5.85-3.6,10.35-10.2,12.5-17.85Zm-8.3,32.45a74,74,0,0,1,13.6,8.25l-2.25,2.9c-2.85-2.6-8.75-6.3-13.4-8.65Zm9.5-4.85a66.22,66.22,0,0,0-8.6-6.85l2.15-2.2a67.46,67.46,0,0,1,8.75,6.55Z"/><path class="cls-1" d="M1165,1349.19v29.3h-3.5v-2.55h-13.3v15.6h-3.45v-15.6h-13.4v2.75H1128v-29.5Zm-33.65,3.2V1361h13.4v-8.65Zm13.4,20.35v-8.5h-13.4v8.5Zm16.75-20.35h-13.3V1361h13.3Zm0,20.35v-8.5h-13.3v8.5Z"/><path class="cls-1" d="M1167.25,1411.09v9.3h-3.15V1414h-35.4v6.4h-3v-9.3h6.95v-12.95h27.7v12.95Zm-6.45,26.6c0,1.85-.45,2.7-1.85,3.2s-3.9.5-7.7.45a8.57,8.57,0,0,0-1.1-2.75c3,.05,5.65.05,6.4.05s1-.25,1-1v-6.2c-7.3,1.45-14.85,3-20.45,4l-1.1-3c5.4-.8,13.6-2.3,21.55-3.75V1420h-22.2v5.3c0,4.85-.65,11.55-4.35,16.2a13.29,13.29,0,0,0-2.7-2c3.45-4.25,3.85-10,3.85-14.25v-8h28.6Zm-25-26.6h7.45v-6.9H1157v-3.35h-21.2Zm2.45,11.7a75.14,75.14,0,0,1,17.7,3l-.9,2.6c-4-1.5-11.7-2.9-17.7-3.35Zm18.75-16.3h-10.75v4.6H1157Z"/><path class="cls-1" d="M1161,1458.09a51.83,51.83,0,0,1-12,19.6,49.94,49.94,0,0,0,20.5,10.5,16.79,16.79,0,0,0-2.25,3,50.92,50.92,0,0,1-20.75-11.1c-5.65,5-12.55,8.6-21,11.3a15.53,15.53,0,0,0-2-3.05c8.35-2.45,15.1-5.9,20.6-10.6a57.05,57.05,0,0,1-12.2-19.65h-7.75v-3.25h44.75v3.25Zm-25.75,0a52.13,52.13,0,0,0,11.3,17.3,47.46,47.46,0,0,0,10.7-17.3Zm11.25-3.55a38.13,38.13,0,0,0-3.8-7.8l3.4-1a39,39,0,0,1,4,7.65Z"/><path d="M382.29,1193.33c-3.33,38.81-6.35,77.66-7.75,116.59-1.39,38.74-1.18,77.58,2,116.23,1.77,21.37,4.44,42.69,8.05,63.83,3,17.79,6.64,35.63,11.76,53,8.8,29.75,22.74,58.37,43.83,81.37a118,118,0,0,0,14.37,13.28c6.68,5.23,13.39,10.2,20.93,14.11a134.55,134.55,0,0,0,24.21,9.83,142.3,142.3,0,0,0,27.12,4.71c3.72.34,7.46.48,11.2.47a26.33,26.33,0,0,0,18-7.47c4.42-4.42,7.75-11.68,7.47-18-.3-6.59-2.46-13.43-7.47-18s-11.13-7.48-18-7.47a121.33,121.33,0,0,1-16.27-1l6.78.91a105,105,0,0,1-26.09-7.06l6.1,2.57a104.83,104.83,0,0,1-23.08-13.54l5.16,4a123.12,123.12,0,0,1-21.56-21.84l4,5.16a171.2,171.2,0,0,1-21.59-37.71l2.57,6.09c-9.8-23.3-15.2-48.26-19.6-73.06q-2.25-12.7-4-25.48l.91,6.78a808.75,808.75,0,0,1-6.67-104.8c-.11-34.84,1.52-69.68,3.92-104.43,1.35-19.65,3-39.29,4.64-58.91.53-6.18-3.22-13.79-7.47-18-4.42-4.43-11.68-7.76-18-7.47-6.59.29-13.43,2.46-18,7.47l-4,5.16a25.36,25.36,0,0,0-3.48,12.87Z"/><path d="M634,1095.5q2.78,32.31,5.2,64.64,2.82,38.17,4.87,76.42c1.43,27.31,2.49,54.64,3,82s.52,54.47-.37,81.68c-.81,24.82-2.32,49.64-5.27,74.3-.33,2.81-.69,5.61-1.06,8.41l.91-6.78c-3.55,26.24-8.9,52.35-19.18,76.86l2.57-6.09a172.09,172.09,0,0,1-21.73,38l4-5.16a124.62,124.62,0,0,1-21.45,21.73l5.16-4a105.46,105.46,0,0,1-22.74,13.44l6.1-2.57a105.71,105.71,0,0,1-26.87,7.29l6.78-.91a122.22,122.22,0,0,1-15.88,1,26.27,26.27,0,0,0-18,7.47c-4.43,4.42-7.76,11.68-7.47,18,.29,6.6,2.46,13.44,7.47,18a26.54,26.54,0,0,0,18,7.47c24.4,0,49.11-6.16,69.85-19.24,19.58-12.34,35.38-29.52,47.59-49.07,22.29-35.69,30.92-77,36.25-118.14,5.3-40.87,6.62-82.25,6.69-123.42.08-44.6-1.57-89.18-4.09-133.7-2.2-38.73-5.1-77.42-8.36-116.07q-.48-5.79-1-11.57c-.59-6.88-2.45-13-7.47-18-4.42-4.42-11.68-7.75-18-7.47-6.59.3-13.43,2.46-18,7.47-4.35,4.74-8,11.36-7.47,18Z"/><path d="M393.93,1311.55a390.62,390.62,0,0,0,101.3,38.25c35.71,7.91,72.64,11,109.11,7.85a434,434,0,0,0,58.8-9.13c16.52-3.77,33.2-8.2,48.88-14.7,9.25-3.84,18.36-7.84,26.87-13.16a127.14,127.14,0,0,0,41.44-40.77c5.29-8.11,9.21-16.82,12.93-25.74,7.06-16.93,10.36-35,12-53.15s.82-36.68-1.09-54.9c-.48-4.56-1-9.12-1.61-13.67a28.38,28.38,0,0,0-7.47-18c-4.42-4.43-11.68-7.76-18-7.47-6.6.29-13.44,2.46-18,7.47l-4,5.16a25.27,25.27,0,0,0-3.48,12.87c3.26,25.32,5.19,51,1.81,76.46l.91-6.78A153.94,153.94,0,0,1,744,1240.87l2.57-6.09a121.13,121.13,0,0,1-15.26,26.45l4-5.16a102.9,102.9,0,0,1-18,18.07l5.16-4a130.63,130.63,0,0,1-28.88,16.57l6.09-2.57a256.85,256.85,0,0,1-31.18,10.42q-17,4.7-34.24,8-9.8,1.83-19.66,3.15l6.78-.91a338.61,338.61,0,0,1-70.58,2.19q-9.87-.75-19.67-2.08l6.78.92a359.74,359.74,0,0,1-72-17.51q-10-3.54-19.71-7.65l6.09,2.57q-16.68-7.05-32.61-15.7a26.76,26.76,0,0,0-19.65-2.57c-5.92,1.63-12.33,6.2-15.24,11.72-3.13,5.92-4.69,13.09-2.57,19.65,2,6.21,5.83,12,11.72,15.24Z"/><path class="cls-2" d="M1054.36,1150c0,2-.42,3.12-1.62,3.72s-3.24.72-6.42.72a14.26,14.26,0,0,0-1.14-3.54c2.34.06,4.26.06,4.92,0s.9-.18.9-1v-17.22c-1.56,1.32-3.06,2.64-4.62,3.9l-1.62-3c-.42,7.26-1.38,14.94-3.6,20.88a15.61,15.61,0,0,0-2.94-1.68c3.24-8.52,3.48-20.58,3.48-29.28V1102h12.66ZM1045,1123.5c0,2.94-.06,6.3-.24,9.84,1.74-1.08,3.9-2.7,6.24-4.38v-8.1l-1.62,1.32a37.55,37.55,0,0,0-4.38-5.76Zm0-17.76v9.9l1.86-1.26a41.75,41.75,0,0,1,4.14,4.74v-13.38Zm24.06,7.14c-.24.84-.54,1.62-.78,2.46,3.72,4.74,8.1,10.86,10,14.64l-2.7,2.16a93.08,93.08,0,0,0-8.76-13.5,39.64,39.64,0,0,1-9.12,13.44,13.15,13.15,0,0,0-2.64-2.52c4.68-3.9,8.64-10.56,10.62-17.58ZM1065.4,1102a43.07,43.07,0,0,1-7.08,14.4,16.68,16.68,0,0,0-2.76-2.1c2.88-3.24,5.16-8.16,6.48-13Zm-6.12,29.16h15.24v22.38h-3.3V1150h-8.76v3.72h-3.18Zm3.18,3.6v11.76h8.76v-11.76Zm12-19a61.47,61.47,0,0,0-6.24-13.5l2.94-1c2.64,4.2,5.46,9.78,6.42,13.2Zm16.74,24.72c0,1.8-.3,2.82-1.5,3.42s-3,.66-5.46.66a11.14,11.14,0,0,0-1.14-3.36c1.92.06,3.6.06,4.07,0s.73-.18.73-.78v-33.6H1082v47.64h-3.18v-51.18h12.42Z"/><path class="cls-2" d="M1122,1145l-22.56,6.3-1-3.72c1-.24,2-.48,3.18-.78v-20.46H1105v19.62c1.62-.42,3.36-.84,5.1-1.26v-24.24h-8.58v-18h19.2v18h-7.08v8.4h7.26v3.6h-7.26v11.28c2.58-.72,5.22-1.5,7.92-2.16Zm-17-28.08h12V1106h-12Zm48.36,32.1v3.78h-35V1149h7.5v-35.7h3.78V1149h6.84v-49.08h3.9v21.6h10.92v3.78h-10.92V1149Z"/><path class="cls-2" d="M1009,1117.43c-7-9.28-17.81-14.52-28.54-18.18-13-4.42-26.64-7.15-40.11-9.51-28.57-5-58.07-6.59-86.64-.76-14.77,3-29.23,8-42.25,15.67a1.13,1.13,0,0,0,1.14,1.94c23.17-13.63,50.66-18.8,77.28-19.1a264,264,0,0,1,43.67,3.39,320.71,320.71,0,0,1,40.56,8.72c12,3.52,25.18,8.58,32.95,19,.86,1.14,2.81,0,1.94-1.14Z"/><path class="cls-2" d="M1030,1087.59c-26.91-37.58-68.28-61.5-111-77-41.74-15.12-86.06-23.28-130.35-25.38a498.42,498.42,0,0,0-254.68,57,450.31,450.31,0,0,0-105,76.37q-5.81,5.7-11.39,11.64c-1,1.06.59,2.65,1.59,1.6a442.48,442.48,0,0,1,101.52-79.72,488.67,488.67,0,0,1,119.93-48.93A495.76,495.76,0,0,1,770.18,987a457,457,0,0,1,129.12,19.48c43.65,13.32,87.17,34.17,118,68.78a164.72,164.72,0,0,1,10.78,13.5c.83,1.17,2.79,0,1.94-1.13Z"/><path class="cls-2" d="M1018.8,1101.2a156.74,156.74,0,0,0-49.63-32.79c-18.71-7.94-38.58-12.86-58.64-15.92a465.34,465.34,0,0,0-61.84-4.78c-23.38-.43-46.87-.15-70.14,2.28-23.53,2.45-46.95,7.25-68.86,16.34q-3.91,1.62-7.76,3.42c-1.31.61-.17,2.55,1.14,1.94,21.38-10,44.53-15.61,67.87-18.58s46.78-3.44,70.21-3.25a510.54,510.54,0,0,1,61.05,3.71c20,2.58,39.91,6.85,58.82,14,18.51,7,36,16.86,50.77,30.11,1.85,1.66,3.65,3.38,5.41,5.14a1.13,1.13,0,0,0,1.6-1.6Z"/><path class="cls-2" d="M86.36,1429c0,2-.42,3.12-1.62,3.72s-3.24.72-6.42.72a14.26,14.26,0,0,0-1.14-3.54c2.34.06,4.26.06,4.92,0s.9-.18.9-1v-17.22c-1.56,1.32-3.06,2.64-4.62,3.9l-1.62-3c-.42,7.26-1.38,14.94-3.6,20.88a15.61,15.61,0,0,0-2.94-1.68c3.24-8.52,3.48-20.58,3.48-29.28V1381H86.36ZM77,1402.5c0,2.94-.06,6.3-.24,9.84,1.74-1.08,3.9-2.7,6.24-4.38v-8.1l-1.62,1.32a37.55,37.55,0,0,0-4.38-5.76Zm0-17.76v9.9l1.86-1.26a41.75,41.75,0,0,1,4.14,4.74v-13.38Zm24.06,7.14c-.24.84-.54,1.62-.78,2.46,3.72,4.74,8.1,10.86,10,14.64l-2.7,2.16a93.08,93.08,0,0,0-8.76-13.5,39.64,39.64,0,0,1-9.12,13.44,13.15,13.15,0,0,0-2.64-2.52c4.68-3.9,8.64-10.56,10.62-17.58ZM97.4,1381a43.07,43.07,0,0,1-7.08,14.4,16.68,16.68,0,0,0-2.76-2.1c2.88-3.24,5.16-8.16,6.48-13Zm-6.12,29.16h15.24v22.38h-3.3V1429H94.46v3.72H91.28Zm3.18,3.6v11.76h8.76v-11.76Zm12-19a61.47,61.47,0,0,0-6.24-13.5l2.94-1c2.64,4.2,5.46,9.78,6.42,13.2Zm16.74,24.72c0,1.8-.3,2.82-1.5,3.42s-2.94.66-5.46.66a11.14,11.14,0,0,0-1.14-3.36c1.92.06,3.6.06,4.08,0s.72-.18.72-.78v-33.6H114v47.64h-3.18v-51.18H123.2Z"/><path class="cls-2" d="M184.52,1425.12h-24.6v4.14c0,2.34-.66,3.24-2.52,3.78s-5.22.48-10.68.48a11,11,0,0,0-1.38-3.12c4.32.12,8.22.06,9.24,0s1.44-.3,1.44-1.2v-4.08h-24.3v-2.94H156v-4.32H135.14v-2.94H156V1411c-6.12.3-12.48.48-18.12.48a7.33,7.33,0,0,0-.78-2.7c13.14-.18,29.28-1,37.8-2.46l2.58,2.58c-4.74.78-11,1.44-17.58,1.86v4.14h21.42v2.94H159.92v4.32h24.6Zm-47.64-26.46h-3.72V1386.9h10.32a47.56,47.56,0,0,0-4.38-6.24l3.42-1.38a33.88,33.88,0,0,1,4.74,6.3l-2.7,1.32H156v-8.1h4v8.1h11.16l-2.46-1.08a43.71,43.71,0,0,0,5.16-6.6l4,1.5a73.78,73.78,0,0,1-5.64,6.18h11.1v11.76h-3.84v-8.34H136.88Zm4.8,6.3v-10.68h33.24V1405Zm3.72-2.76H171v-5.1H145.4Z"/><path class="cls-2" d="M209.05,1418.55a291.18,291.18,0,0,0,97.14,35q14.37,2.41,28.92,3.39c1.45.1,1.44-2.15,0-2.25a287.92,287.92,0,0,1-124.93-38,1.12,1.12,0,0,0-1.13,1.94Z"/><path class="cls-2" d="M1053.36,1641c0,2-.42,3.12-1.62,3.72s-3.24.72-6.42.72a14.26,14.26,0,0,0-1.14-3.54c2.34.06,4.26.06,4.92,0s.9-.18.9-1v-17.22c-1.56,1.32-3.06,2.64-4.62,3.9l-1.62-3c-.42,7.26-1.38,14.94-3.6,20.88a15.61,15.61,0,0,0-2.94-1.68c3.24-8.52,3.48-20.58,3.48-29.28V1593h12.66ZM1044,1614.5c0,2.94-.06,6.3-.24,9.84,1.74-1.08,3.9-2.7,6.24-4.38v-8.1l-1.62,1.32a37.55,37.55,0,0,0-4.38-5.76Zm0-17.76v9.9l1.86-1.26a41.75,41.75,0,0,1,4.14,4.74v-13.38Zm24.06,7.14c-.24.84-.54,1.62-.78,2.46,3.72,4.74,8.1,10.86,10,14.64l-2.7,2.16a93.08,93.08,0,0,0-8.76-13.5,39.64,39.64,0,0,1-9.12,13.44,13.15,13.15,0,0,0-2.64-2.52c4.68-3.9,8.64-10.56,10.62-17.58ZM1064.4,1593a43.07,43.07,0,0,1-7.08,14.4,16.68,16.68,0,0,0-2.76-2.1c2.88-3.24,5.16-8.16,6.48-13Zm-6.12,29.16h15.24v22.38h-3.3V1641h-8.76v3.72h-3.18Zm3.18,3.6v11.76h8.76v-11.76Zm12-19a61.47,61.47,0,0,0-6.24-13.5l2.94-1c2.64,4.2,5.46,9.78,6.42,13.2Zm16.74,24.72c0,1.8-.3,2.82-1.5,3.42s-3,.66-5.46.66a11.14,11.14,0,0,0-1.14-3.36c1.92.06,3.6.06,4.07,0s.73-.18.73-.78v-33.6H1081v47.64h-3.18v-51.18h12.42Z"/><path class="cls-2" d="M1120.86,1636.58c-7.92,2.1-16.32,4.44-22.38,6l-1-3.78,3.18-.72v-20.7H1104v19.92l5-1.32v-24.54h-8.52v-18h19.2v18h-7.08v8.64h7.44v3.6h-7.44V1635c2.52-.66,5.22-1.26,7.8-2Zm-16.8-28.68h12V1597h-12Zm47.87,16.56a75.37,75.37,0,0,1-10.67,7.26,25.44,25.44,0,0,0,11.63,9.84,17.35,17.35,0,0,0-2.64,3.48c-9.17-4.44-14.69-13.62-17.57-25.5h-6.06v20.28l11-2.7a22.19,22.19,0,0,0,.18,3.6c-12.48,3.42-14.22,4-15.36,4.8a15.14,15.14,0,0,0-1.8-3.36,4.16,4.16,0,0,0,2.1-4v-44.58h25.8v26H1136a44.06,44.06,0,0,0,3.6,9.3,80.78,80.78,0,0,0,9.78-7.14Zm-25.31-27.36v7.62h18.24v-7.62Zm0,18.9h18.24v-7.92h-18.24Z"/><path class="cls-2" d="M1004.86,1625.54q-31.08,9.29-62.87,15.93-32.06,6.69-64.61,10.62-32.21,3.87-64.66,5t-65.16-.43q-32.55-1.59-64.9-6c-2.68-.36-5.35-.74-8-1.14-1.41-.2-2,2-.6,2.17q32.25,4.73,64.81,6.72t65.46,1.16q32.75-.83,65.33-4.41,32.39-3.57,64.4-9.86T997.67,1630q3.9-1.12,7.78-2.28a1.12,1.12,0,0,0-.59-2.17Z"/></svg>