<svg id="Layer_1" data-name="Layer 1" xmlns="http://www.w3.org/2000/svg" viewBox="0 0 1242 2208"><defs><style>.cls-1{fill:#f6eabe;}.cls-2{fill:#999;}.cls-3,.cls-4{fill:none;}.cls-4{stroke:#000;stroke-linecap:round;stroke-miterlimit:10;stroke-width:50px;}</style></defs><rect class="cls-1" width="1242" height="2208"/><path d="M589.33,713.92c0,14.29,2.38,36.52,4,48.43-227.88,62.73-255.67,71.46-274.72,84.16-4-13.5-16.68-34.93-25.41-45.25,11.11-7.94,30.17-24.62,30.17-58V149.39h54V395.53H583.77v51.61H377.33v320ZM872,803.64c38.11,0,43.67-29.38,48.43-144.51,13.5,10.32,34.14,19.85,49.23,23-7.15,127.83-22.23,171.5-95.28,171.5H737.8c-74.63,0-95.28-21.44-95.28-103.22V148.59h53.2V395.53H912.48v51.61H695.72V752c0,42.87,7.94,51.61,46.85,51.61Z"/><rect class="cls-2" x="1113" y="456" width="65" height="126" rx="12"/><path class="cls-1" d="M1132.7,485.82c1.25,1.6,4.9,6.7,5.7,8.05l-2,2.45c-.7-1.5-2.35-4.4-3.75-6.65V516h-3.15V491.57c-1.5,5.05-3.5,9.9-5.55,12.85a14.83,14.83,0,0,0-1.75-3.1c2.9-4,5.8-11.5,7.2-18h-6.2v-3.15h6.3v-9.65h3.15v9.65h5.45v3.15h-5.45Zm19.1.7a19.47,19.47,0,0,0,.45,2.65c-10.15,2.7-11.6,3.15-12.5,3.75a12.13,12.13,0,0,0-1.1-3.2c.7-.2,1.55-.5,1.55-2.2v-16.7h3.25v6.5h8.35v2.9h-8.35v8.3Zm2.35,5.5-2,3.75h12.65V516h-3.4v-1.75h-17v2h-3.3V495.77h7.9c.55-1.5,1.2-3.25,1.55-4.6Zm7.3,6.5h-17v5.05h17Zm0,13v-5.3h-17v5.3Zm2.25-22.4c1.25,0,1.5-.75,1.65-5.25a9.16,9.16,0,0,0,2.85,1.25c-.3,5.45-1.2,6.95-4.15,6.95h-5.85c-3.65,0-4.55-.95-4.55-4.45V470.87h3.25v6.5h10.2v2.9h-10.2v7.35c0,1.3.25,1.5,1.65,1.5Z"/><path class="cls-1" d="M1167.55,545.87v2.5H1123.4v-2.5h20.25v-3.2H1126.8v-2.3h16.85v-3H1128.2v-2.25h15.45v-3.2H1123.5v-2.5h20.15v-3H1128.8V524h14.85v-3.55h3.25V524h14.45v5.4h6.15v2.5h-6.15v5.45H1146.9v3h17.3v2.3h-17.3v3.2Zm-37.75,5h31.75v15.25h-3.25v-1.6H1133v1.7h-3.2Zm3.2,2.4v3.2h25.3v-3.2Zm25.3,8.85v-3.4H1133v3.4Zm-11.4-32.7h11.15v-3H1146.9Zm0,5.7h11.15v-3.2H1146.9Z"/><path d="M276.56,1884.87v7.92h22.26v34.31c0,2.28-.54,3.48-2.22,4.08s-4.68.66-8.94.66a14.79,14.79,0,0,0-1.38-3.6c3.42.12,6.54.12,7.5.06s1.14-.3,1.14-1.2v-30.6H276.56v35.1h-3.78v-35.1h-17.4v35.34h-3.84v-39h21.24v-7.92h-23.4V1881h51.54v3.9Zm-9.84,16.43c0,6.12.42,13.92,5.76,20a8.65,8.65,0,0,0-2.28,1.8A23.88,23.88,0,0,1,265,1911.8a27.16,27.16,0,0,1-6.24,11.4,14.22,14.22,0,0,0-2.34-1.8c4.08-3.9,6.24-9.9,7.2-17.15h-3.9v-3Zm21.12,0c0,6.18.48,13.92,6.24,19.92a11.7,11.7,0,0,0-2.4,1.74,23.65,23.65,0,0,1-5.58-11.64,27.62,27.62,0,0,1-6.18,11.46,15,15,0,0,0-2.34-1.8c4-3.84,6.06-9.72,7.08-16.73h-4.08v-3Z"/><path d="M323.3,1878.63a99.16,99.16,0,0,1-4.86,11.64V1932H314.6v-34.73a68.26,68.26,0,0,1-6.12,8.46,21.26,21.26,0,0,0-2.22-4c5.46-5.88,10.32-14.94,13.32-24.12Zm37,2.46v50.33h-3.78v-3.06H329.3v3.54h-3.72v-50.81Zm-3.78,43.73v-40.25H329.3v40.25Zm-11.82-28.13v6.83h7.08v16H334.58v-16h6.78v-6.83h-9.42v-3.19h9.42v-6.83h3.3v6.83h9.66v3.19Zm3.9,9.89H337.7v9.9h10.86Z"/><path d="M394,1880.49H379.22v35.15h-4v-38.87H394Z"/><path d="M439.7,1926.68c6.12,0,7-2.34,7.92-12.48a12.28,12.28,0,0,0,4,1.74c-1,11-2.76,14.64-11.94,14.64H418.7c-8.94,0-11.58-1.92-11.58-9.66v-41.87h4.14v17.45H445v3.67H411.26v20.93c0,4.5,1.26,5.58,7.26,5.58Z"/><path d="M456,1928.84h14.82v-35.15h4v38.87H456Z"/><path d="M511.16,1876.17l3.24,1.74c-7.08,7.26-11.28,16.2-11.28,26.76s4.2,19.49,11.28,26.75l-3.24,1.74c-7.32-7.5-11.94-17-11.94-28.49S503.84,1883.67,511.16,1876.17Z"/><path d="M534.92,1878.69a98.85,98.85,0,0,1-6.18,13.56v39.59H524.9v-33.35a61.73,61.73,0,0,1-5.46,7,32.86,32.86,0,0,0-2.28-3.9c5.58-5.87,10.8-14.87,14-24Zm34.14,28c-2.1,1.26-4.44,2.64-6.84,3.78,2,6.06,5.82,11.82,10.38,14.52a11.2,11.2,0,0,0-2.64,2.94c-4.62-3.18-8.46-9.42-10.68-16a27.45,27.45,0,0,1-2.76,1.2c2.58,6.84,1.86,14-1,16.68a6.91,6.91,0,0,1-5.22,1.92c-1.08,0-2.4-.06-3.78-.18a9.31,9.31,0,0,0-1-3.42,38.26,38.26,0,0,0,4.14.24,3.66,3.66,0,0,0,3.12-1.14c1.56-1.38,2.22-5.16,1.44-9.36-5.16,4.92-13.08,9.36-19.8,11.7a15.8,15.8,0,0,0-2.34-2.82c7.62-2.28,16.62-7.14,21.3-12.24a35.76,35.76,0,0,0-1.5-3.48,63.52,63.52,0,0,1-17.22,9.9,16.14,16.14,0,0,0-2.22-2.64c5.94-1.8,13.74-5.76,17.88-9.54a16.39,16.39,0,0,0-2.94-3.18,58.44,58.44,0,0,1-13.56,7.26,11.26,11.26,0,0,0-2.22-2.58,52.48,52.48,0,0,0,15.06-7.56H536.48v-9.35c-1.14,1-2.28,2-3.54,2.94a9.54,9.54,0,0,0-2.52-2.59,44.59,44.59,0,0,0,13.86-16.25l3.84.72c-.6,1.2-1.32,2.34-2,3.54h11.1l.72-.18,2.34,1.68a52.13,52.13,0,0,1-4.8,6.84h13.08v12.65H550.94a15.29,15.29,0,0,1-1.2,1,21,21,0,0,1,5.64,6.84,111.93,111.93,0,0,0,10.92-6.42ZM544,1884.81a54.58,54.58,0,0,1-4.2,5.16h11.58a37.88,37.88,0,0,0,3.72-5.16Zm-3.9,14.69h10.5v-6.42h-10.5Zm24.72-6.42H554.18v6.42H564.8Z"/><path d="M593,1878.69a104.28,104.28,0,0,1-4.68,11.76V1932h-3.84v-34.31a59.9,59.9,0,0,1-6,8.57,24,24,0,0,0-2.16-4c5.28-6,10.08-15.23,13-24.59Zm8.82,42a47.22,47.22,0,0,1-8,10.92,28.69,28.69,0,0,0-2.88-2.34,33.55,33.55,0,0,0,7.38-10.2Zm10.14-3.06H594.74v-36.71H612Zm-3.6-33.35H598.22v7.8h10.14Zm0,11H598.22v7.85h10.14Zm0,11H598.22v8h10.14Zm-.12,12.71a67.1,67.1,0,0,1,5.4,9.48l-3.12,1.92a64.06,64.06,0,0,0-5.22-9.9Zm12.24-.48h-3.54v-35.09h3.54Zm10.14-40.37v48.95c0,2.4-.6,3.6-2.1,4.2s-4,.72-8.16.72a16,16,0,0,0-1.26-3.72c3.12.12,5.82.06,6.66.06s1.26-.3,1.26-1.2v-49Z"/><path d="M678.74,1885.77c0,2.58-.06,5.4-.24,8.52,2.28,14.57,7,27.65,14.52,34.07a13.82,13.82,0,0,0-2.7,2.88c-6.12-5.7-10.2-15.12-13-26.22a60.81,60.81,0,0,1-11.16,26.76,15.7,15.7,0,0,0-3.12-2.34c.48-.66,1-1.32,1.56-2H641.12v-46.49h24.42v3.54H657v10.74h8.1v16.91H656.9v11.76h8.76v2c9.24-13.92,9.42-30.11,9.42-40.07v-7.26h3.66ZM645,1884.45v10.74h8.34v-10.74ZM661.4,1899H645v9.42H661.4ZM645,1923.86h8.28V1912.1H645Z"/><path d="M714,1878c-1,2.94-2.1,6.3-3.18,8.88H721v38.75h-16.8v4.8h-3.66v-43.55h6.66a64.68,64.68,0,0,0,2.58-9.72Zm3.3,12.47H704.18v13.08h13.14Zm0,31.56v-14.88H704.18v14.88Zm33.06-33.17c-1,27.53-1.8,36.71-4.2,39.59a5.6,5.6,0,0,1-4.56,2.28,74.94,74.94,0,0,1-8.82-.12,9.42,9.42,0,0,0-1.32-3.9c3.9.36,7.5.36,8.82.36s1.92-.12,2.52-.9c2-2.1,2.94-11.34,3.72-35.7H730.82a55.33,55.33,0,0,1-5.64,10.68,36.22,36.22,0,0,0-3.36-2.22c4.08-5.34,7.32-13.61,9.18-21.89l3.84.84c-.78,3-1.62,6-2.64,8.88h18.18Zm-12.78,27a106.51,106.51,0,0,0-9.3-13.92l3.06-1.79a102.47,102.47,0,0,1,9.6,13.61Z"/><path d="M787.28,1877.55c-.06,2.1-.12,5.1-.42,8.64.9,7,4.56,32.51,25.74,42a12.63,12.63,0,0,0-2.88,3.36c-15.42-7.26-21.72-22.74-24.6-34-2.64,12.23-8.94,26.33-24.06,34.19a13.77,13.77,0,0,0-3.12-3.06c25-12.48,24.78-42.11,25-51.11Z"/><path d="M818.84,1933.16l-3.24-1.74c7.08-7.26,11.28-16.2,11.28-26.75s-4.2-19.5-11.28-26.76l3.24-1.74c7.32,7.5,11.94,17,11.94,28.5S826.16,1925.66,818.84,1933.16Z"/><path d="M901.64,1925.3v4H848.48v-4h18.06v-31.91H850.1v-3.84H885l-2.82-1.08a71.71,71.71,0,0,0,6.18-11.1l4.2,1.32a99.91,99.91,0,0,1-6.78,10.86H900v3.84H883.1v31.91Zm-45.12-25.85a66.6,66.6,0,0,1,6.18,19l-3.84,1c-.54-5.22-3-13.08-5.88-19Zm7.56-10a43.74,43.74,0,0,0-6-10.62l3.48-1.38a41.45,41.45,0,0,1,6.12,10.32Zm6.42,35.87h8.7v-31.91h-8.7Zm15.9-6.9a131.39,131.39,0,0,0,6.78-19.56l4.14,1.08a196.29,196.29,0,0,1-7.38,19.62Z"/><path d="M908.84,1880.49h29.7v3.72H923.48a90.91,90.91,0,0,1-2.88,9.24h12.6l.72-.18,2.52.9c-3.36,19.49-12.12,31.61-23.16,38a15.78,15.78,0,0,0-3-3A38.8,38.8,0,0,0,925.7,1914a102,102,0,0,0-11.46-7.92,37.46,37.46,0,0,1-4.86,5.76,23.07,23.07,0,0,0-2.76-2.64c6.42-6.18,10.62-16.14,12.66-25H908.84Zm10.26,16.62a50.73,50.73,0,0,1-3,6,104.42,104.42,0,0,1,11.4,7.5,56.66,56.66,0,0,0,4.44-13.49Zm21.84-12.9h3.9v32.51h-3.9Zm18.6-5.7v48.11c0,2.82-.78,4-2.52,4.68-1.92.66-5,.78-10.5.72a21.74,21.74,0,0,0-1.38-3.9c4.14.12,7.8.12,8.94.06s1.5-.42,1.5-1.5v-48.17Z"/><path d="M973.88,1913c4.68-2,7.26-4.86,7.56-9.17a4,4,0,0,1-1.14.11c-2.34,0-4.26-1.32-4.26-4.07a4,4,0,0,1,4.32-4.08c3.18,0,4.86,2.58,4.86,6.66,0,6.41-4,11.21-10.08,13.43Z"/><path d="M443.24,1950.51a13.18,13.18,0,0,1-.84,1.08c5.7,5.64,16.2,10.62,25.56,12.83a12.89,12.89,0,0,0-2.52,3.12,71.7,71.7,0,0,1-14.88-6.17l-.06,1.92H429.74l.06-1.68a89.68,89.68,0,0,1-14.88,6.23,30.91,30.91,0,0,0-2.28-3c10.8-3,21.48-8.28,27.12-15.6Zm-23.16,16H460v14.88h-39.9Zm3.42,12.06h14.7v-9.23H423.5Zm.12,5.82H457v19.38h-4v-1.86h-25.5v2h-3.9Zm6.66-14.22a21.86,21.86,0,0,1,3.78,6.84l-3.06,1.21a27.26,27.26,0,0,0-3.6-7.09Zm-2.76,17.16v4.32H453v-4.32Zm25.5,11.64v-4.38h-25.5v4.38Zm-4.2-38.57a48.46,48.46,0,0,1-8.58-6.42,45.19,45.19,0,0,1-8.34,6.42Zm7.5,8.94H441.56v9.23h14.76Zm-10.62,7.79a53.26,53.26,0,0,0,3.54-7.2l3.36,1.08a73,73,0,0,1-4.14,7.21Z"/><path d="M474.08,2000.48c3.06-2.58,5.64-7,7.08-10.44l3.3,1.5c-1.68,3.6-4.08,8-7.14,10.86Zm51.72-36.9v3.25H474.56v-3.25h14.16a23.89,23.89,0,0,0-2.34-5.45l3.36-.84H477.26V1954h21.9c-.72-1.44-1.56-2.94-2.34-4.2l3.78-.9a39.9,39.9,0,0,1,2.94,5.1h19.2v3.3H510.86l3.24.78c-1,1.92-2,3.84-3,5.51Zm-7,23.7H497.66a47.07,47.07,0,0,1,8.82,6.24L504,1996a48.61,48.61,0,0,0-9.3-6.9l2-1.8H481.58V1970h37.2Zm-3.9-14.45H485.36v4.43h29.52Zm0,7.13H485.36v4.44h29.52Zm-8.22,20.16c2.58,0,3-.72,3.24-6.24a12.08,12.08,0,0,0,3.54,1.38c-.48,6.66-1.74,8.22-6.42,8.22H495.44c-5.82,0-7.38-1-7.38-5v-8H492v8c0,1.38.54,1.68,3.72,1.68ZM490,1957.29a26.19,26.19,0,0,1,2.76,6.18l-.48.11H507a59.18,59.18,0,0,0,3.06-6.29Zm27.66,32.21a46.55,46.55,0,0,1,8,10.2l-3.36,1.74a49,49,0,0,0-7.8-10.56Z"/><path d="M586.64,1997.3v4H533.48v-4h18.06v-31.91H535.1v-3.84H570l-2.82-1.08a71.71,71.71,0,0,0,6.18-11.1l4.2,1.32a99.91,99.91,0,0,1-6.78,10.86H585v3.84H568.1v31.91Zm-45.12-25.85a66.6,66.6,0,0,1,6.18,19l-3.84,1c-.54-5.22-3-13.08-5.88-19Zm7.56-10a43.74,43.74,0,0,0-6-10.62l3.48-1.38a41.45,41.45,0,0,1,6.12,10.32Zm6.42,35.87h8.7v-31.91h-8.7Zm15.9-6.9a131.39,131.39,0,0,0,6.78-19.56l4.14,1.08a196.29,196.29,0,0,1-7.38,19.62Z"/><path d="M593.84,1952.49h29.7v3.72H608.48a90.91,90.91,0,0,1-2.88,9.24h12.6l.72-.18,2.52.9c-3.36,19.49-12.12,31.61-23.16,38a15.78,15.78,0,0,0-3-3A38.8,38.8,0,0,0,610.7,1986a102,102,0,0,0-11.46-7.92,37.46,37.46,0,0,1-4.86,5.76,23.07,23.07,0,0,0-2.76-2.64c6.42-6.18,10.62-16.14,12.66-25H593.84Zm10.26,16.62a50.73,50.73,0,0,1-3,6,104.42,104.42,0,0,1,11.4,7.5,56.66,56.66,0,0,0,4.44-13.49Zm21.84-12.9h3.9v32.51h-3.9Zm18.6-5.7v48.11c0,2.82-.78,4-2.52,4.68-1.92.66-5,.78-10.5.72a21.74,21.74,0,0,0-1.38-3.9c4.14.12,7.8.12,8.94.06s1.5-.42,1.5-1.5v-48.17Z"/><path d="M673.52,1982.06l-3.66,3.12a93.63,93.63,0,0,0-13.32-13.38l3.42-3.11A118.53,118.53,0,0,1,673.52,1982.06Z"/><path d="M699,1982.78v20.64h-3.72v-20.64H683.42v-3.48h11.82v-6.23H682.7v-3.49h16.56a76.65,76.65,0,0,0,3.18-9.77l3.66.84c-1,2.93-2.22,6.3-3.36,8.93h6.9v3.49H699v6.23H709.1v3.48Zm-6.6,3.18a43.37,43.37,0,0,1-6.24,12.6c-.66-.48-2-1.5-2.82-2a34.2,34.2,0,0,0,5.7-11.46ZM708.62,1959H684v-3.42h11.1a52.77,52.77,0,0,0-2.52-4.86l3.72-1.08a63.78,63.78,0,0,1,3.24,5.94h9.12Zm-18.36,9.77a39.92,39.92,0,0,0-2.52-8.09l3.12-.66a31.21,31.21,0,0,1,2.7,8Zm16,26.88a57.57,57.57,0,0,0-4.62-9.24l2.7-1.32a55.86,55.86,0,0,1,4.8,9.06Zm26.82,4c1.2,0,1.38-.84,1.5-8a10,10,0,0,0,3.36,1.5c-.3,8.22-1.26,10.08-4.5,10.08H729c-3.66,0-4.5-1.14-4.5-4.92V1985.6h-4.92c-.9,9.12-3.36,15.06-12.3,18.54a8.5,8.5,0,0,0-2.28-3c8-2.82,10.08-7.86,10.86-15.54h-4.2v-33.71h22.5v33.71h-6v12.66c0,1.26.18,1.44,1.32,1.44Zm-17.76-37.62h15.06v-6.59H715.28Zm0,10h15.06v-6.65H715.28Zm0,10h15.06v-6.72H715.28Z"/><path d="M766,1982.36c-3.72,0-5.82-.36-6.78-1.61a137.64,137.64,0,0,1-14.34,5,20.41,20.41,0,0,0-2.4-3.36,116.35,116.35,0,0,0,15.84-5.16v-11.87H762v10.19c7.86-3.71,14.76-8.46,19.44-14.21l3.42,1.67c-5.4,6.54-13,11.71-21.48,15.84a16.31,16.31,0,0,0,2.88.18h12.54c2.88,0,3.42-.89,3.66-6.84a10.88,10.88,0,0,0,3.42,1.38c-.54,7.08-1.74,8.76-6.84,8.76Zm-11.58-14.52c-1.92,3.78-4.62,8.41-8.16,11.34l-3.24-2c3.6-2.71,6.48-7.14,8.16-10.75Zm-5.7-1.73h-3.9v-11.52h23.52a40.08,40.08,0,0,0-1.56-5.22l3.78-.6a36.35,36.35,0,0,1,1.86,5.82h22.86v11.52h-4v-7.92H748.76Zm37.8,21.11h4V2004h-4v-2.76H750v-13.56h3.9v9.78h14v-13h4v13h14.64Zm-14.88-18.84a44.93,44.93,0,0,0-10.26-6.65l2-2.4a46.75,46.75,0,0,1,10.38,6.48Zm14.94-1.67c3.9,3.24,8.34,7.85,10.38,11l-3.06,2.21c-1.92-3.17-6.3-7.92-10.14-11.27Z"/><path d="M815.18,1967.67a9.06,9.06,0,1,1-9.06,9A9.09,9.09,0,0,1,815.18,1967.67Zm0,15.23a6.18,6.18,0,1,0,0-12.36,6.18,6.18,0,1,0,0,12.36Z"/><line class="cls-3" x1="621" y1="351" x2="621" y2="351"/><rect class="cls-2" x="1114" y="1240" width="65" height="271" rx="12"/><path class="cls-1" d="M1159.05,1279.79a27.61,27.61,0,0,0,11.5,8.1,11.65,11.65,0,0,0-2.15,2.55,30.77,30.77,0,0,1-12.8-10.65h-15.95a34.39,34.39,0,0,1-13,11.3,11.43,11.43,0,0,0-2.15-2.55,30.39,30.39,0,0,0,11.6-8.75H1125v-2.85h10v-16.15h-7.7V1258h7.7v-5h3.3v5h18.55v-5h3.35v5h7.65v2.8h-7.65v16.15h9.8v2.85Zm-10,14.5h17.3v2.85H1128.8v-2.85h16.9v-5.6h-10.45v-2.8h10.45v-4.4h3.35v4.4h10.65v2.8h-10.65Zm-10.8-33.5v3.6h18.55v-3.6Zm0,9.8h18.55v-3.65h-18.55Zm0,6.35h18.55v-3.8h-18.55Z"/><path class="cls-1" d="M1143.25,1321.54s0,1.15,0,1.55c-.6,15.85-1.2,21.2-2.6,23a3.71,3.71,0,0,1-2.8,1.45,32.65,32.65,0,0,1-4.45,0,9.25,9.25,0,0,0-.85-3c1.75.15,3.2.15,3.9.15a1.42,1.42,0,0,0,1.45-.65c1-1.2,1.6-6,2.15-19.35h-6.8c-.55,10-2,18.25-6.45,23.65a9.53,9.53,0,0,0-2.55-2.35c5.45-6.45,5.9-17.85,6.1-31.55h-5.2v-3.1h20.1v3.1h-11.65c0,2.45-.1,4.85-.2,7.15Zm-7.9-10.45a33.47,33.47,0,0,0-4.25-7.15l2.9-1.15a31.92,31.92,0,0,1,4.4,7Zm23.85-7.45a15.26,15.26,0,0,1-.85,2.55c2.65,5.45,7.7,11.35,12.45,14a13,13,0,0,0-2.45,2.75c-4.25-2.7-8.5-8-11.4-13.3a32.61,32.61,0,0,1-11,13.6,12.79,12.79,0,0,0-2.35-2.65c5.85-3.6,10.35-10.2,12.5-17.85Zm-8.3,32.45a74,74,0,0,1,13.6,8.25l-2.25,2.9c-2.85-2.6-8.75-6.3-13.4-8.65Zm9.5-4.85a66.22,66.22,0,0,0-8.6-6.85l2.15-2.2a67.46,67.46,0,0,1,8.75,6.55Z"/><path class="cls-1" d="M1166,1356.19v29.3h-3.5v-2.55h-13.3v15.6h-3.45v-15.6h-13.4v2.75H1129v-29.5Zm-33.65,3.2V1368h13.4v-8.65Zm13.4,20.35v-8.5h-13.4v8.5Zm16.75-20.35h-13.3V1368h13.3Zm0,20.35v-8.5h-13.3v8.5Z"/><path class="cls-1" d="M1168.25,1418.09v9.3h-3.15V1421h-35.4v6.4h-3v-9.3h6.95v-12.95h27.7v12.95Zm-6.45,26.6c0,1.85-.45,2.7-1.85,3.2s-3.9.5-7.7.45a8.57,8.57,0,0,0-1.1-2.75c3,.05,5.65.05,6.4.05s1-.25,1-1v-6.2c-7.3,1.45-14.85,3-20.45,4l-1.1-3c5.4-.8,13.6-2.3,21.55-3.75V1427h-22.2v5.3c0,4.85-.65,11.55-4.35,16.2a13.29,13.29,0,0,0-2.7-2c3.45-4.25,3.85-10,3.85-14.25v-8h28.6Zm-25-26.6h7.45v-6.9H1158v-3.35h-21.2Zm2.45,11.7a75.14,75.14,0,0,1,17.7,3l-.9,2.6c-4-1.5-11.7-2.9-17.7-3.35Zm18.75-16.3h-10.75v4.6H1158Z"/><path class="cls-1" d="M1162,1465.09a51.83,51.83,0,0,1-12,19.6,49.94,49.94,0,0,0,20.5,10.5,16.79,16.79,0,0,0-2.25,3,50.92,50.92,0,0,1-20.75-11.1c-5.65,5-12.55,8.6-21,11.3a15.53,15.53,0,0,0-2-3.05c8.35-2.45,15.1-5.9,20.6-10.6a57.05,57.05,0,0,1-12.2-19.65h-7.75v-3.25h44.75v3.25Zm-25.75,0a52.13,52.13,0,0,0,11.3,17.3,47.46,47.46,0,0,0,10.7-17.3Zm11.25-3.55a38.13,38.13,0,0,0-3.8-7.8l3.4-1a39,39,0,0,1,4,7.65Z"/><path d="M442.62,1025.48c-17.74,29.29-34.94,58.9-51.12,89.08-15.77,29.43-30.93,59.3-43.31,90.33-11.66,29.23-19.87,59.7-22.29,91.16a190.41,190.41,0,0,0,2.84,49.41c3,16.36,9.32,31.76,17.05,46.44,15.32,29.07,32,57.5,44.88,87.79l-2.57-6.1c9,21.43,15.93,43.67,19,66.76l-.91-6.78a220.64,220.64,0,0,1-.19,56.89l.91-6.78c-3.74,27.53-12.1,54.12-22.82,79.69l2.57-6.09c-6.2,14.69-13.15,29-20.51,43.2-3.15,6.06-4.42,13-2.57,19.65,1.63,5.92,6.2,12.33,11.72,15.24,11.72,6.19,28.32,3.49,34.89-9.15,25.17-48.41,45.94-100,48.56-155.09a240.79,240.79,0,0,0-9.65-78.11c-7-24-17.35-47.12-28.66-69.39-5.94-11.71-12.2-23.25-18.46-34.79-6.39-11.76-13.3-23.45-18.56-35.76l2.57,6.09a137,137,0,0,1-9.15-33.73l.91,6.78a182,182,0,0,1,.41-48.34l-.91,6.78c3.85-27.75,12.58-54.57,23.41-80.32l-2.57,6.09c18.83-44.5,42.65-87.13,66.91-128.84q10.63-18.28,21.61-36.37c6.92-11.42,2.9-28.52-9.15-34.89-12.38-6.54-27.5-3-34.88,9.15Z"/><line class="cls-4" x1="395.71" y1="1176.35" x2="470.71" y2="1337.28"/><line class="cls-4" x1="558.71" y1="1223.69" x2="470.71" y2="1337.28"/><path d="M758.62,1025.48c-17.74,29.29-34.94,58.9-51.12,89.08-15.77,29.43-30.93,59.3-43.31,90.33-11.66,29.23-19.87,59.7-22.29,91.16a190.41,190.41,0,0,0,2.84,49.41c3,16.36,9.32,31.76,17,46.44,15.32,29.07,32,57.5,44.88,87.79l-2.57-6.1c9,21.43,15.93,43.67,19,66.76l-.91-6.78a220.64,220.64,0,0,1-.19,56.89l.91-6.78c-3.74,27.53-12.1,54.12-22.82,79.69l2.57-6.09c-6.2,14.69-13.15,29-20.51,43.2-3.15,6.06-4.42,13-2.57,19.65,1.63,5.92,6.2,12.33,11.72,15.24,11.72,6.19,28.32,3.49,34.89-9.15,25.17-48.41,45.94-100,48.56-155.09a240.79,240.79,0,0,0-9.65-78.11c-7-24-17.35-47.12-28.66-69.39-5.94-11.71-12.2-23.25-18.46-34.79-6.39-11.76-13.3-23.45-18.56-35.76l2.57,6.09a137,137,0,0,1-9.15-33.73l.91,6.78a182,182,0,0,1,.41-48.34l-.91,6.78c3.85-27.75,12.58-54.57,23.41-80.32l-2.57,6.09c18.83-44.5,42.65-87.13,66.91-128.84q10.63-18.28,21.61-36.37c6.92-11.42,2.9-28.52-9.15-34.89-12.38-6.54-27.5-3-34.88,9.15Z"/><line class="cls-4" x1="711.71" y1="1176.35" x2="786.71" y2="1337.28"/><line class="cls-4" x1="874.71" y1="1223.69" x2="786.71" y2="1337.28"/></svg>