<svg id="Layer_1" data-name="Layer 1" xmlns="http://www.w3.org/2000/svg" viewBox="0 0 1242 2208"><defs><style>.cls-1{fill:#f6eabe;}.cls-2{fill:#999;}.cls-3{fill:none;stroke:#000;stroke-linecap:round;stroke-miterlimit:10;stroke-width:50px;}</style></defs><rect class="cls-1" width="1242" height="2208"/><rect class="cls-2" x="1113" y="1253" width="65" height="271" rx="12"/><path class="cls-1" d="M1158.05,1292.79a27.61,27.61,0,0,0,11.5,8.1,11.65,11.65,0,0,0-2.15,2.55,30.77,30.77,0,0,1-12.8-10.65h-15.95a34.39,34.39,0,0,1-13,11.3,11.43,11.43,0,0,0-2.15-2.55,30.39,30.39,0,0,0,11.6-8.75H1124v-2.85h10v-16.15h-7.7V1271h7.7v-5h3.3v5h18.55v-5h3.35v5h7.65v2.8h-7.65v16.15h9.8v2.85Zm-10,14.5h17.3v2.85H1127.8v-2.85h16.9v-5.6h-10.45v-2.8h10.45v-4.4h3.35v4.4h10.65v2.8h-10.65Zm-10.8-33.5v3.6h18.55v-3.6Zm0,9.8h18.55v-3.65h-18.55Zm0,6.35h18.55v-3.8h-18.55Z"/><path class="cls-1" d="M1142.25,1334.54s0,1.15,0,1.55c-.6,15.85-1.2,21.2-2.6,23a3.71,3.71,0,0,1-2.8,1.45,32.65,32.65,0,0,1-4.45,0,9.25,9.25,0,0,0-.85-3c1.75.15,3.2.15,3.9.15a1.42,1.42,0,0,0,1.45-.65c1-1.2,1.6-6,2.15-19.35h-6.8c-.55,10-2,18.25-6.45,23.65a9.53,9.53,0,0,0-2.55-2.35c5.45-6.45,5.9-17.85,6.1-31.55h-5.2v-3.1h20.1v3.1h-11.65c0,2.45-.1,4.85-.2,7.15Zm-7.9-10.45a33.47,33.47,0,0,0-4.25-7.15l2.9-1.15a31.92,31.92,0,0,1,4.4,7Zm23.85-7.45a15.26,15.26,0,0,1-.85,2.55c2.65,5.45,7.7,11.35,12.45,14a13,13,0,0,0-2.45,2.75c-4.25-2.7-8.5-8-11.4-13.3a32.61,32.61,0,0,1-11,13.6,12.79,12.79,0,0,0-2.35-2.65c5.85-3.6,10.35-10.2,12.5-17.85Zm-8.3,32.45a74,74,0,0,1,13.6,8.25l-2.25,2.9c-2.85-2.6-8.75-6.3-13.4-8.65Zm9.5-4.85a66.22,66.22,0,0,0-8.6-6.85l2.15-2.2a67.46,67.46,0,0,1,8.75,6.55Z"/><path class="cls-1" d="M1165,1369.19v29.3h-3.5v-2.55h-13.3v15.6h-3.45v-15.6h-13.4v2.75H1128v-29.5Zm-33.65,3.2V1381h13.4v-8.65Zm13.4,20.35v-8.5h-13.4v8.5Zm16.75-20.35h-13.3V1381h13.3Zm0,20.35v-8.5h-13.3v8.5Z"/><path class="cls-1" d="M1167.25,1431.09v9.3h-3.15V1434h-35.4v6.4h-3v-9.3h6.95v-12.95h27.7v12.95Zm-6.45,26.6c0,1.85-.45,2.7-1.85,3.2s-3.9.5-7.7.45a8.57,8.57,0,0,0-1.1-2.75c3,.05,5.65.05,6.4.05s1-.25,1-1v-6.2c-7.3,1.45-14.85,3-20.45,4l-1.1-3c5.4-.8,13.6-2.3,21.55-3.75V1440h-22.2v5.3c0,4.85-.65,11.55-4.35,16.2a13.29,13.29,0,0,0-2.7-2c3.45-4.25,3.85-10,3.85-14.25v-8h28.6Zm-25-26.6h7.45v-6.9H1157v-3.35h-21.2Zm2.45,11.7a75.14,75.14,0,0,1,17.7,3l-.9,2.6c-4-1.5-11.7-2.9-17.7-3.35Zm18.75-16.3h-10.75v4.6H1157Z"/><path class="cls-1" d="M1161,1478.09a51.83,51.83,0,0,1-12,19.6,49.94,49.94,0,0,0,20.5,10.5,16.79,16.79,0,0,0-2.25,3,50.92,50.92,0,0,1-20.75-11.1c-5.65,5-12.55,8.6-21,11.3a15.53,15.53,0,0,0-2-3.05c8.35-2.45,15.1-5.9,20.6-10.6a57.05,57.05,0,0,1-12.2-19.65h-7.75v-3.25h44.75v3.25Zm-25.75,0a52.13,52.13,0,0,0,11.3,17.3,47.46,47.46,0,0,0,10.7-17.3Zm11.25-3.55a38.13,38.13,0,0,0-3.8-7.8l3.4-1a39,39,0,0,1,4,7.65Z"/><path d="M656.73,152.92c-.79,105.6-.79,212-18.26,309.65,46.84,181,152.44,305.69,337.44,352.54-11.91,11.11-27.79,32.55-34.14,47.63C776.62,814.31,676.58,709.5,617.82,552.29,575.74,688.07,487.61,800.81,304.2,866.71c-7.15-12.7-23-31-35.73-42.08C606.71,706.33,598,433.2,599.56,152.92ZM397.89,551.5C382,491.16,347.07,388.73,315.31,310.92l50-17.47c31.76,77,68.29,177.06,85.76,235ZM945,325.21c-35.73,74.64-83.37,166-122.28,223.11l-44.46-19.85c37.32-59.55,85-156.41,110.37-225.49Z"/><path d="M384.92,1898.69a98.85,98.85,0,0,1-6.18,13.56v39.59H374.9v-33.35a61.73,61.73,0,0,1-5.46,7,32.86,32.86,0,0,0-2.28-3.9c5.58-5.87,10.8-14.87,14-24Zm34.14,28c-2.1,1.26-4.44,2.64-6.84,3.78,2,6.06,5.82,11.82,10.38,14.52a11.2,11.2,0,0,0-2.64,2.94c-4.62-3.18-8.46-9.42-10.68-16a27.45,27.45,0,0,1-2.76,1.2c2.58,6.84,1.86,14-1,16.68a6.91,6.91,0,0,1-5.22,1.92c-1.08,0-2.4-.06-3.78-.18a9.31,9.31,0,0,0-1-3.42,38.26,38.26,0,0,0,4.14.24,3.66,3.66,0,0,0,3.12-1.14c1.56-1.38,2.22-5.16,1.44-9.36-5.16,4.92-13.08,9.36-19.8,11.7a15.8,15.8,0,0,0-2.34-2.82c7.62-2.28,16.62-7.14,21.3-12.24a35.76,35.76,0,0,0-1.5-3.48,63.52,63.52,0,0,1-17.22,9.9,16.14,16.14,0,0,0-2.22-2.64c5.94-1.8,13.74-5.76,17.88-9.54a16.39,16.39,0,0,0-2.94-3.18,58.44,58.44,0,0,1-13.56,7.26,11.26,11.26,0,0,0-2.22-2.58,52.48,52.48,0,0,0,15.06-7.56H386.48v-9.35c-1.14,1-2.28,2-3.54,2.94a9.54,9.54,0,0,0-2.52-2.59,44.59,44.59,0,0,0,13.86-16.25l3.84.72c-.6,1.2-1.32,2.34-2,3.54h11.1l.72-.18,2.34,1.68a52.13,52.13,0,0,1-4.8,6.84h13.08v12.65H400.94a15.29,15.29,0,0,1-1.2,1,21,21,0,0,1,5.64,6.84,111.93,111.93,0,0,0,10.92-6.42ZM394,1904.81a54.58,54.58,0,0,1-4.2,5.16h11.58a37.88,37.88,0,0,0,3.72-5.16Zm-3.9,14.69h10.5v-6.42h-10.5Zm24.72-6.42H404.18v6.42H414.8Z"/><path d="M457.7,1898.09c-.06,8-.06,16-1.38,23.4,3.54,13.67,11.52,23.09,25.5,26.63a12.77,12.77,0,0,0-2.58,3.6c-12.48-3.66-20-11.58-24.48-23.46-3.18,10.26-9.84,18.78-23.7,23.76a14.64,14.64,0,0,0-2.7-3.18c25.56-8.94,24.9-29.58,25-50.75Zm-19.56,30.12A173,173,0,0,0,431.9,1910l3.78-1.32c2.4,5.82,5.16,13.37,6.48,17.75Zm41.34-17.1a145.58,145.58,0,0,1-9.24,16.85l-3.36-1.5a106.75,106.75,0,0,0,8.34-17Z"/><path d="M500,1918.25a91.61,91.61,0,0,1-.78,13.49c2,2.28,7.32,9.06,8.64,10.74l-2.88,2.94c-1.26-2.16-4.26-6.36-6.6-9.42a33.75,33.75,0,0,1-8.34,16.14,11.53,11.53,0,0,0-2.7-2.7c8.16-8.82,9.06-20.16,9.06-31.26V1898H500Zm-8.1,6.42c-.72-3.91-2.52-10.63-4.08-15.78l3-1.14a143.39,143.39,0,0,1,4.2,15.35Zm16.68-17.28c-1.5,4.68-3.24,10.68-4.68,14.28l-2.52-1a117.15,117.15,0,0,0,3.6-14.52Zm11.1.36a53.43,53.43,0,0,1-9.36,13.79,30.35,30.35,0,0,0-3.3-2.33c5.52-5.17,10.08-13.32,12.66-21.9l3.78,1c-.66,2-1.38,4-2.16,5.82h13.5l.72-.18,2.58,1.68a65.2,65.2,0,0,1-8.76,14.75,16.59,16.59,0,0,0-2.88-1.92,49,49,0,0,0,6.36-10.67ZM540,1922.62v29h-3.84v-2.94H513.86v3.06H510v-27.66a68.21,68.21,0,0,0,12.24-5.45l3.06,2.7a93.55,93.55,0,0,1-11.4,4.61v7.74h10v3.3h-10v8.28h22.26v-8.22h-10v-3.36h10V1926H525.56v-3.42Z"/><path d="M601.76,1945.18v4H548.3v-4h22.62v-46.85h4.14v18.54h22.62v4H575.06v24.3Z"/><path d="M661.82,1925.33H648.74V1952h-4v-26.69h-18.9c-.42,10-2.94,19.73-15.3,26.81a14.83,14.83,0,0,0-2.82-3c11.34-6.36,13.74-15,14.16-23.81H608.3v-3.84h13.62v-13.8c-3.9,1.08-7.86,2.1-11.7,3a11,11,0,0,0-1.38-3.24c9.48-2.16,20.22-5.46,26.1-9.06l3.06,3.24a78.27,78.27,0,0,1-12.12,4.86v15h18.84v-22.92h4v22.92h13.08Z"/><path d="M684,1898c-1,2.94-2.1,6.3-3.18,8.88H691v38.75h-16.8v4.8h-3.66v-43.55h6.66a64.68,64.68,0,0,0,2.58-9.72Zm3.3,12.47H674.18v13.08h13.14Zm0,31.56v-14.88H674.18v14.88Zm33.06-33.17c-1,27.53-1.8,36.71-4.2,39.59a5.6,5.6,0,0,1-4.56,2.28,74.94,74.94,0,0,1-8.82-.12,9.42,9.42,0,0,0-1.32-3.9c3.9.36,7.5.36,8.82.36s1.92-.12,2.52-.9c2-2.1,2.94-11.34,3.72-35.7H700.82a55.33,55.33,0,0,1-5.64,10.68,36.22,36.22,0,0,0-3.36-2.22c4.08-5.34,7.32-13.61,9.18-21.89l3.84.84c-.78,3-1.62,6-2.64,8.88h18.18Zm-12.78,27a106.51,106.51,0,0,0-9.3-13.92l3.06-1.79a102.47,102.47,0,0,1,9.6,13.61Z"/><path d="M745.64,1931.74c-.9-1.92-3.12-5.88-5-8.87v29H737v-29c-2,6.83-4.86,13.55-7.68,17.63a24.88,24.88,0,0,0-2.1-3.42c3.72-5,7.5-14.63,9.3-23h-8.1v-3.72H737v-13.08h3.66v13.08h7v3.72h-7v4c1.68,2.22,6.24,9,7.26,10.73Zm14.88,4a23.6,23.6,0,0,1-13,14.82,13.3,13.3,0,0,0-2.22-2.64,20.42,20.42,0,0,0,10.86-10h-9v-3H757.7l.66-.12Zm2.4-28.37h-14v-3.06h8a49.35,49.35,0,0,0-3.42-5.7l3-1.26a35,35,0,0,1,3.9,6.24l-1.56.72h11.1l-1-.36a55.82,55.82,0,0,0,3.72-6.6l3.54,1.2c-1.32,2-2.7,4.14-3.9,5.76h9v3.06H766.76v4h12.6v3h-12.6v4.2h15.18v3.18H760.88a71.37,71.37,0,0,1,12.66,5l-2.16,2.63a68.66,68.66,0,0,0-13.38-5.51l1.8-2.11H747.5v-3.18h15.42v-4.2H751.46v-3h11.46ZM781,1932.4a110.13,110.13,0,0,1-9.24,7.2,28.13,28.13,0,0,0,11.28,7.62,15.28,15.28,0,0,0-2.46,3,31.62,31.62,0,0,1-13.86-12.36v10c0,2-.42,3-1.92,3.54s-3.9.6-7.68.6a15.57,15.57,0,0,0-1.08-3.36c2.82.06,5.22.06,6,0s.9-.18.9-.78v-16.56H751.82v-3h14.94v3.48a26,26,0,0,0,3.24,5.58,64.4,64.4,0,0,0,8-7.26Z"/><path d="M841.94,1928H817.22v18.6c0,2.82-.72,4-2.88,4.68s-5.94.78-11.7.78a17.7,17.7,0,0,0-1.8-4.14c5,.18,9.36.18,10.68.12s1.62-.42,1.62-1.5V1928h-25v-4h25v-8.75a74.47,74.47,0,0,0,15.72-9.84H794.18v-3.9h39l.84-.24,3,2.28a90,90,0,0,1-19.8,13.79V1924h24.72Z"/><path d="M853.88,1933c4.68-2,7.26-4.86,7.56-9.17a4,4,0,0,1-1.14.11c-2.34,0-4.26-1.32-4.26-4.07a4,4,0,0,1,4.32-4.08c3.18,0,4.86,2.58,4.86,6.66,0,6.41-4,11.21-10.08,13.43Z"/><path d="M491.9,1986.17c4.44,10.31,12.24,20,20.76,24.71a23.11,23.11,0,0,0-3.06,3.36c-9-5.58-16.92-16.32-21.6-28.07h-1v22.43h14.28v4H487V2024H482.9v-11.4H468.68v-4H482.9v-22.43h-1.08c-4.74,11.75-12.66,22.43-21.3,28.25a24.18,24.18,0,0,0-2.88-3.18c8-4.92,15.66-14.76,20.16-25.07H459.14v-4H482.9v-12.72H487v12.72h24v4Z"/><path d="M566.9,2008.54a33.64,33.64,0,0,1-8.22,7.38c2.4,2.82,5.22,4.44,8.16,4.38,1.68-.06,2.16-1.5,2.46-5.94a10.31,10.31,0,0,0,3.12,1.62c-.6,6.3-2.1,7.92-5.76,8-4.26,0-8.16-2.22-11.28-6a74.41,74.41,0,0,1-13.68,5.82,36.46,36.46,0,0,0-2.1-3.24,65.61,65.61,0,0,0,13.86-5.34,34.94,34.94,0,0,1-3.84-8.82H535.16v4.38l11.16-1-.06,2.88-11.1,1.08v6.12c0,2.1-.48,3.06-2.16,3.54s-4.38.54-8.94.54a19.42,19.42,0,0,0-1.26-3.18c3.36.12,6.48.06,7.38,0s1.2-.24,1.2-1v-5.7c-4.74.48-9.12.9-12.72,1.2l-.42-3.3c3.54-.24,8.1-.54,13.14-1v-4.68h-12.9v-3.18h12.9v-4.44c-3.78.42-7.68.72-11.28.91a12,12,0,0,0-.9-2.71c8.16-.48,18.18-1.55,23.52-2.94l2.52,2.58c-2.82.66-6.36,1.26-10.08,1.74v4.86h13.68a52.67,52.67,0,0,1-1.2-8.94h3.84a57.48,57.48,0,0,0,1.2,8.94h19v3.18H553.58a31.91,31.91,0,0,0,3.12,6.9,27.09,27.09,0,0,0,6.72-5.94Zm4.62-15.17h-53v-3.25H542.9V1986H524.3v-3.06h18.6v-4H521.06v-3.18h12.66a30,30,0,0,0-3.48-5.16l3.42-1.26a24.4,24.4,0,0,1,4.32,6.24l-.42.18H552.2a54.7,54.7,0,0,0,3.6-6.6l4.14,1.2c-1.2,1.86-2.52,3.84-3.72,5.4h12.84V1979H546.92v4h18.9V1986h-18.9v4.13h24.6Zm-5.7,9a34,34,0,0,0-9.48-5.52l2.16-2.46a38.32,38.32,0,0,1,9.66,5.22Z"/><path d="M607.46,2018.62a70.7,70.7,0,0,0,7.38.36c2.1.06,14.76,0,17.58-.06a16.36,16.36,0,0,0-1.44,3.84H614.72c-12.3,0-19.92-1.92-24.72-10.38a31.55,31.55,0,0,1-9.48,11.7,19.84,19.84,0,0,0-3.06-2.82c6.3-4.14,10.2-10.92,11.82-19.86l4,.6a55.92,55.92,0,0,1-1.5,6.06c2.34,5.64,6.3,8.52,11.7,9.84v-18.54H578.72v-3.6H631.4v3.6H607.46v7.08h20v3.6h-20Zm17.22-27.17h-39.6v-19.56h39.6Zm-4-16.44H589v5.16h31.68Zm0,8.1H589v5.27h31.68Z"/><path d="M667.7,1970.09c-.06,8-.06,16-1.38,23.4,3.54,13.67,11.52,23.09,25.5,26.63a12.77,12.77,0,0,0-2.58,3.6c-12.48-3.66-20-11.58-24.48-23.46-3.18,10.26-9.84,18.78-23.7,23.76a14.64,14.64,0,0,0-2.7-3.18c25.56-8.94,24.9-29.58,25-50.75Zm-19.56,30.12A173,173,0,0,0,641.9,1982l3.78-1.32c2.4,5.82,5.16,13.37,6.48,17.75Zm41.34-17.1a145.58,145.58,0,0,1-9.24,16.85l-3.36-1.5a106.75,106.75,0,0,0,8.34-17Z"/><path d="M710,1990.25a91.61,91.61,0,0,1-.78,13.49c2,2.28,7.32,9.06,8.64,10.74l-2.88,2.94c-1.26-2.16-4.26-6.36-6.6-9.42a33.75,33.75,0,0,1-8.34,16.14,11.53,11.53,0,0,0-2.7-2.7c8.16-8.82,9.06-20.16,9.06-31.26V1970H710Zm-8.1,6.42c-.72-3.91-2.52-10.63-4.08-15.78l3-1.14a143.39,143.39,0,0,1,4.2,15.35Zm16.68-17.28c-1.5,4.68-3.24,10.68-4.68,14.28l-2.52-1a117.15,117.15,0,0,0,3.6-14.52Zm11.1.36a53.43,53.43,0,0,1-9.36,13.79,30.35,30.35,0,0,0-3.3-2.33c5.52-5.17,10.08-13.32,12.66-21.9l3.78,1c-.66,2-1.38,4-2.16,5.82h13.5l.72-.18,2.58,1.68a65.2,65.2,0,0,1-8.76,14.75,16.59,16.59,0,0,0-2.88-1.92,49,49,0,0,0,6.36-10.67ZM750,1994.62v29h-3.84v-2.94H723.86v3.06H720v-27.66a68.21,68.21,0,0,0,12.24-5.45l3.06,2.7a93.55,93.55,0,0,1-11.4,4.61v7.74h10v3.3h-10v8.28h22.26v-8.22h-10v-3.36h10V1998H735.56v-3.42Z"/><path d="M770.18,1987.67a9.06,9.06,0,1,1-9.06,9A9.09,9.09,0,0,1,770.18,1987.67Zm0,15.23a6.18,6.18,0,1,0,0-12.36,6.18,6.18,0,1,0,0,12.36Z"/><rect class="cls-2" x="1113" y="450" width="65" height="126" rx="12"/><path class="cls-1" d="M1132.7,479.82c1.25,1.6,4.9,6.7,5.7,8.05l-2,2.45c-.7-1.5-2.35-4.4-3.75-6.65V510h-3.15V485.57c-1.5,5.05-3.5,9.9-5.55,12.85a14.83,14.83,0,0,0-1.75-3.1c2.9-4,5.8-11.5,7.2-18h-6.2v-3.15h6.3v-9.65h3.15v9.65h5.45v3.15h-5.45Zm19.1.7a19.47,19.47,0,0,0,.45,2.65c-10.15,2.7-11.6,3.15-12.5,3.75a12.13,12.13,0,0,0-1.1-3.2c.7-.2,1.55-.5,1.55-2.2v-16.7h3.25v6.5h8.35v2.9h-8.35v8.3Zm2.35,5.5-2,3.75h12.65V510h-3.4v-1.75h-17v2h-3.3V489.77h7.9c.55-1.5,1.2-3.25,1.55-4.6Zm7.3,6.5h-17v5.05h17Zm0,13v-5.3h-17v5.3Zm2.25-22.4c1.25,0,1.5-.75,1.65-5.25a9.16,9.16,0,0,0,2.85,1.25c-.3,5.45-1.2,6.95-4.15,6.95h-5.85c-3.65,0-4.55-.95-4.55-4.45V464.87h3.25v6.5h10.2v2.9h-10.2v7.35c0,1.3.25,1.5,1.65,1.5Z"/><path class="cls-1" d="M1167.55,539.87v2.5H1123.4v-2.5h20.25v-3.2H1126.8v-2.3h16.85v-3H1128.2v-2.25h15.45v-3.2H1123.5v-2.5h20.15v-3H1128.8V518h14.85v-3.55h3.25V518h14.45v5.4h6.15v2.5h-6.15v5.45H1146.9v3h17.3v2.3h-17.3v3.2Zm-37.75,5h31.75v15.25h-3.25v-1.6H1133v1.7h-3.2Zm3.2,2.4v3.2h25.3v-3.2Zm25.3,8.85v-3.4H1133v3.4Zm-11.4-32.7h11.15v-3H1146.9Zm0,5.7h11.15v-3.2H1146.9Z"/><path d="M895.33,1198q1.84,10.68,3.3,21.43l-.91-6.78a515.81,515.81,0,0,1,3.53,104.65q-1,14.69-3,29.27l.91-6.78a419.42,419.42,0,0,1-19.29,81.61q-3.93,11.25-8.55,22.23l2.57-6.09a340.17,340.17,0,0,1-43.64,75.47l4-5.16A327.07,327.07,0,0,1,776,1566.16l5.16-4a305.28,305.28,0,0,1-67,39.38l6.09-2.57a268.57,268.57,0,0,1-68.4,18.87l6.78-.91a248.21,248.21,0,0,1-36.66,2.11,26.14,26.14,0,0,0-18,7.47c-4.42,4.42-7.75,11.68-7.47,18,.3,6.59,2.46,13.43,7.47,18a26.89,26.89,0,0,0,18,7.47,279.64,279.64,0,0,0,62.79-6.37c20.59-4.38,40.29-11.48,59.51-20a300.79,300.79,0,0,0,49.89-28.16A356.78,356.78,0,0,0,843,1575a350.09,350.09,0,0,0,70.89-102.47,423.58,423.58,0,0,0,23.91-66.15,479,479,0,0,0,12.65-69.7c5.1-45.4,3.08-91-3.43-136.09q-1.15-8.05-2.56-16.06c-1-6-6.7-12.31-11.72-15.24-5.46-3.2-13.52-4.56-19.64-2.57s-12.13,5.82-15.24,11.72l-2.57,6.09a25.58,25.58,0,0,0,0,13.56Z"/><path d="M299.5,1184.48c-7.8,44.84-11,90.52-7.52,136,3.48,45,12.49,89.87,29.46,131.83,8.65,21.4,18.6,42.23,30.94,61.78A360.38,360.38,0,0,0,391,1564.49c14.38,15.73,30.31,29.62,47.21,42.56a307,307,0,0,0,48.61,30.55c37.7,19,78.62,30.55,120.88,32.29q7.17.3,14.34.17a26.52,26.52,0,0,0,18-7.47c4.42-4.42,7.75-11.68,7.47-18-.3-6.6-2.46-13.44-7.47-18s-11.16-7.59-18-7.47a248.21,248.21,0,0,1-36.66-2.11l6.78.91a268.57,268.57,0,0,1-68.4-18.87l6.09,2.57a305.28,305.28,0,0,1-67-39.38l5.16,4a327.07,327.07,0,0,1-58.23-58.27l4,5.16a340.17,340.17,0,0,1-43.64-75.47l2.57,6.09a400.45,400.45,0,0,1-24-80.2q-2.24-11.76-3.84-23.64l.91,6.78A495.44,495.44,0,0,1,343.15,1242q1.16-14.71,3.13-29.35l-.91,6.78q1.44-10.74,3.3-21.43a19.24,19.24,0,0,0,.46-10.17,18.84,18.84,0,0,0-3-9.48c-3.09-5.29-9.16-10.34-15.24-11.72-6.52-1.49-13.85-1.17-19.64,2.57-5.28,3.4-10.6,8.8-11.72,15.24Z"/><line class="cls-3" x1="325.01" y1="1190.98" x2="505.72" y2="1390.51"/><line class="cls-3" x1="622.42" y1="1132" x2="505.72" y2="1390.51"/><line class="cls-3" x1="919.83" y1="1190.98" x2="739.12" y2="1390.51"/><line class="cls-3" x1="622.42" y1="1132" x2="739.12" y2="1390.51"/></svg>