<svg id="Layer_1" data-name="Layer 1" xmlns="http://www.w3.org/2000/svg" viewBox="0 0 1242 2208"><defs><style>.cls-1{fill:#f6eabe;}.cls-2{fill:#999;}.cls-3{fill:none;stroke:#000;stroke-linecap:round;stroke-miterlimit:10;stroke-width:50px;}</style></defs><rect class="cls-1" width="1242" height="2208"/><path d="M983.12,566.44H664.73V845.13H609.94V566.44H276.47V514.83H609.94V321.09H411.45c-25.41,50.82-54,96.87-83.37,132.6-10.32-8.73-35.73-23-48.44-29.38C341.58,357.62,392.39,252,422.56,144.83L475,155.94c-10.33,38.91-24.62,76.23-39.7,112.75H609.94V122.59h54.79v146.1H939.45v52.4H664.73V514.83H983.12Z"/><path d="M457.92,1863.69a98.85,98.85,0,0,1-6.18,13.56v39.59H447.9v-33.35a61.73,61.73,0,0,1-5.46,7,32.86,32.86,0,0,0-2.28-3.9c5.58-5.87,10.8-14.87,14-24Zm34.14,28c-2.1,1.26-4.44,2.64-6.84,3.78,2,6.06,5.82,11.82,10.38,14.52a11.2,11.2,0,0,0-2.64,2.94c-4.62-3.18-8.46-9.42-10.68-16a27.45,27.45,0,0,1-2.76,1.2c2.58,6.84,1.86,14-1,16.68a6.91,6.91,0,0,1-5.22,1.92c-1.08,0-2.4-.06-3.78-.18a9.31,9.31,0,0,0-1-3.42,38.26,38.26,0,0,0,4.14.24,3.66,3.66,0,0,0,3.12-1.14c1.56-1.38,2.22-5.16,1.44-9.36-5.16,4.92-13.08,9.36-19.8,11.7a15.8,15.8,0,0,0-2.34-2.82c7.62-2.28,16.62-7.14,21.3-12.24a35.76,35.76,0,0,0-1.5-3.48,63.52,63.52,0,0,1-17.22,9.9,16.14,16.14,0,0,0-2.22-2.64c5.94-1.8,13.74-5.76,17.88-9.54a16.39,16.39,0,0,0-2.94-3.18,58.44,58.44,0,0,1-13.56,7.26,11.26,11.26,0,0,0-2.22-2.58,52.7,52.7,0,0,0,15.06-7.55H459.48v-9.36c-1.14,1-2.28,2-3.54,2.94a9.37,9.37,0,0,0-2.52-2.58,44.69,44.69,0,0,0,13.86-16.26l3.84.72c-.6,1.2-1.32,2.34-2,3.54h11.1l.72-.18,2.34,1.68a52.13,52.13,0,0,1-4.8,6.84h13.08v12.66H473.94c-.36.36-.78.66-1.2,1a21,21,0,0,1,5.64,6.84,110,110,0,0,0,10.92-6.42ZM467,1869.81a54.58,54.58,0,0,1-4.2,5.16h11.58a37.88,37.88,0,0,0,3.72-5.16Zm-3.9,14.69h10.5v-6.42h-10.5Zm24.72-6.42H477.18v6.42H487.8Z"/><path d="M554.76,1910.42v3.9h-53.4v-3.9h8.28V1882h4.08v28.43H527.4v-39.71H503.64v-3.84h49.14v3.84H531.54v16.5h19v3.89h-19v19.32Z"/><path d="M580.8,1898.66c-1.26-1.8-4.2-5.22-6.54-7.8V1917h-3.9v-24.83a51.47,51.47,0,0,1-8.58,7.13,16.52,16.52,0,0,0-1.8-3.72,52.46,52.46,0,0,0,17.64-19.19H561.48v-3.66h18.24l.72-.18,2.22,1.56a59.66,59.66,0,0,1-7.68,12.84c2.4,2.15,7.08,7.07,8.34,8.45Zm-7.32-26.45a36.35,36.35,0,0,0-5.52-7.74l2.88-1.92a35.89,35.89,0,0,1,5.76,7.5Zm37.2,41c1.38,0,1.56-.84,1.74-7.5a11.15,11.15,0,0,0,3.42,1.5c-.36,7.74-1.38,9.54-4.74,9.54h-5.16c-3.84,0-4.8-1.08-4.8-5v-14.52h-5.46c-1,10-3.78,16.44-14.1,20a9.52,9.52,0,0,0-2.22-2.94c9.48-3,11.82-8.58,12.6-17.1h-5.64V1865h25.8v32.15h-7.26v14.52c0,1.26.24,1.5,1.56,1.5ZM590,1874.67h18.36v-6.3H590Zm0,9.54h18.36v-6.36H590Zm0,9.65h18.36v-6.41H590Z"/><path d="M637,1863c-1,2.94-2.1,6.3-3.18,8.88H644v38.75h-16.8v4.8h-3.66v-43.55h6.66a64.68,64.68,0,0,0,2.58-9.72Zm3.3,12.47H627.18v13.08h13.14Zm0,31.56v-14.88H627.18v14.88Zm33.06-33.17c-1,27.53-1.8,36.71-4.2,39.59a5.6,5.6,0,0,1-4.56,2.28,74.94,74.94,0,0,1-8.82-.12,9.42,9.42,0,0,0-1.32-3.9c3.9.36,7.5.36,8.82.36s1.92-.12,2.52-.9c2-2.1,2.94-11.34,3.72-35.7H653.82a55.33,55.33,0,0,1-5.64,10.68,36.22,36.22,0,0,0-3.36-2.22c4.08-5.33,7.32-13.61,9.18-21.89l3.84.84c-.78,3-1.62,6-2.64,8.88h18.18Zm-12.78,27a106.51,106.51,0,0,0-9.3-13.92l3.06-1.79a102.47,102.47,0,0,1,9.6,13.61Z"/><path d="M734.76,1895.84H710.7v21.06h-4.14v-21.06h-25.2v-3.9h25.2v-14.63h-15a54.27,54.27,0,0,1-6.3,10,24.8,24.8,0,0,0-3.66-2.23c4.68-5,8.52-13,10.8-21.11l4,.84a68.18,68.18,0,0,1-3,8.52h13.2v-11h4.14v11h20.76v4H710.7v14.63h24.06Z"/><path d="M765.54,1908.2c-8.52,2-17.46,4-24,5.34l-1-3.72c6.18-1.14,15.6-3.06,24.72-5Zm-.72-38.81h-23.4v-3.72h23.4Zm-1.44,21.9H743v-16h20.34Zm-16.44,14.45a41.62,41.62,0,0,0-2.34-11.28l3.24-.78a37.26,37.26,0,0,1,2.58,11.16Zm12.78-27h-13.2v9.23h13.2ZM755,1905.26a85,85,0,0,0,2.7-12.12l3.9,1c-1.08,4.07-2.4,8.93-3.54,12Zm22.5,3.9c-3.18,3.12-8.46,6.12-13.08,7.86a22.91,22.91,0,0,0-2.7-2.7c4.68-1.56,9.84-4.56,12.24-7.14Zm-.72-34.43c.48-1.86,1-4,1.26-5.94H766.44v-3.54h28.74v3.54H782.4c-.54,2-1.14,4.14-1.74,5.94H793.2v31H768.36v-31Zm12.66,3.18H772v6.17h17.4Zm0,9.11H772v6.24h17.4Zm0,9.3H772v6.24h17.4Zm-3.36,11.16a75.29,75.29,0,0,1,10.32,7.38l-3.24,2.16A66.38,66.38,0,0,0,783,1909.4Z"/><path d="M806.88,1898c4.68-2,7.26-4.86,7.56-9.17a4,4,0,0,1-1.14.11c-2.34,0-4.26-1.31-4.26-4.07a4,4,0,0,1,4.32-4.08c3.18,0,4.86,2.58,4.86,6.66,0,6.41-4,11.21-10.08,13.43Z"/><path d="M431.76,1946c-1.2,2.46-2.52,5-3.9,7.31h29.22v30.54c0,2.52-.6,3.72-2.46,4.38s-5.16.66-10.38.66a16.63,16.63,0,0,0-1.32-3.9c4.14.18,7.8.12,8.82.12s1.44-.42,1.44-1.32v-6.66H426.9c-.84,4.38-2.58,8.88-6.12,12.24a12.44,12.44,0,0,0-2.76-3.12c5-4.86,5.52-11.52,5.52-17.22v-9.53a50.45,50.45,0,0,1-10.14,9.71,17.42,17.42,0,0,0-2.52-3.12c7.2-4.91,12.66-12.17,16.56-20.09H412.08v-3.78h17a57.7,57.7,0,0,0,2.76-7.8l4,.9a72.7,72.7,0,0,1-2.46,6.9h30.84V1946Zm21.42,27.65v-6.72H427.56V1969c0,1.44-.06,2.94-.18,4.56Zm0-16.73H427.56v6.53h25.62Z"/><path d="M499.56,1941.87v7.92h22.26v34.31c0,2.28-.54,3.48-2.22,4.08s-4.68.66-8.94.66a14.79,14.79,0,0,0-1.38-3.6c3.42.12,6.54.12,7.5.06s1.14-.3,1.14-1.2v-30.6H499.56v35.1h-3.78v-35.1h-17.4v35.34h-3.84v-39h21.24v-7.92h-23.4V1938h51.54v3.9Zm-9.84,16.43c0,6.12.42,13.92,5.76,20a8.65,8.65,0,0,0-2.28,1.8A23.88,23.88,0,0,1,488,1968.8a27.16,27.16,0,0,1-6.24,11.4,14.22,14.22,0,0,0-2.34-1.8c4.08-3.9,6.24-9.9,7.2-17.15h-3.9v-3Zm21.12,0c0,6.18.48,13.92,6.24,19.92a11.7,11.7,0,0,0-2.4,1.74,23.65,23.65,0,0,1-5.58-11.64,27.62,27.62,0,0,1-6.18,11.46,15,15,0,0,0-2.34-1.8c4-3.84,6.06-9.72,7.08-16.73h-4.08v-3Z"/><path d="M538.8,1949.31a51.81,51.81,0,0,1-5.76,6.06,19,19,0,0,0-3.06-2.64,50.31,50.31,0,0,0,13.8-18.54l3.72,1.14a54,54,0,0,1-3.18,6.12H559a49.89,49.89,0,0,0-3.12-5.88l3.66-1.08a49.49,49.49,0,0,1,3.72,7H580.5v3.18H561.18v4.2H578.4v2.88H561.18V1956H578.4v2.88H561.18v4.33h20.28v3.11H542.52v1.86H538.8Zm38.28,22.13c-3.12,4.32-7.86,7.68-13.44,10.26a103.56,103.56,0,0,0,20.7,3.42,15.5,15.5,0,0,0-2.22,3.48,96.13,96.13,0,0,1-23.46-4.86c-8,2.88-17.22,4.38-26,5.22a14.88,14.88,0,0,0-1.5-3.48,107.35,107.35,0,0,0,22.62-3.78,35.1,35.1,0,0,1-11.76-8.28l.12-.06h-8.64v-3.3H574l.66-.24Zm-19.8-26.81H542.52v4.2h14.76Zm0,7.08H542.52V1956h14.76Zm0,7.13H542.52v4.33h14.76Zm-10.5,14.52a37.11,37.11,0,0,0,11.94,6.78,37,37,0,0,0,11.88-6.78Z"/><path d="M596.88,1956.75a40.85,40.85,0,0,1-2.82,8.69,18,18,0,0,0-2.4-1.38,35.33,35.33,0,0,0,2.52-8Zm10.56-1.33c-.24-.71-.54-1.5-1-2.46-10.92,1.45-12.48,1.75-13.38,2.22a21.08,21.08,0,0,0-1-3,7.72,7.72,0,0,0,3.36-2,52.86,52.86,0,0,0,4.5-4.57c-5.28.55-6.42.85-7.08,1.09a12.68,12.68,0,0,0-1-3,3.75,3.75,0,0,0,2.22-1.44,28.08,28.08,0,0,0,5.34-7.32l3.06,1a48.11,48.11,0,0,1-5.7,7.5l5.4-.42a35.23,35.23,0,0,0,2.46-3.24l2.94,1.26a78.82,78.82,0,0,1-9.78,10.55l7.56-.89c-.54-1.08-1.14-2.22-1.74-3.24l2.34-.66a43.11,43.11,0,0,1,4,7.74Zm33.48,23a10.37,10.37,0,0,1-.3,1.74c-1,4.38-2.1,6.66-3.72,7.68-1.32.78-2.58,1-4.92,1-2.16.06-6.9,0-11.58-.36a6.11,6.11,0,0,0-1.08-2.82c4.8.42,10,.48,11.82.48a6.93,6.93,0,0,0,2.94-.36c1-.6,1.62-2,2.28-4.5H597a81.82,81.82,0,0,0,3.18-8.94h33.24v-3.18H597.06v-2.76h40.08v8.7h-34c-.42,1.2-.84,2.28-1.2,3.36Zm-40.74-14a52.9,52.9,0,0,0-1.5-7.74l2.64-.42a51.62,51.62,0,0,1,1.56,7.57Zm6.3-9.24a25.49,25.49,0,0,1,2.58,6.42l-2.52.9a26.43,26.43,0,0,0-2.34-6.59Zm19.92-12.77H609.12v-2.58h8.1a22,22,0,0,0-2.4-4.74l2.7-.84a21.87,21.87,0,0,1,2.76,5.58h6.12Zm-1.8,5.16H610.74v-2.28H624.6Zm-13.86,2.88H624.6v2.34H610.74Zm0,5.22H624.9v8.46H610.74Zm2.7,6.12h8.64V1958h-8.64Zm28.74-6.25a21.22,21.22,0,0,0-.84-2.46c-11.52,1.5-13.08,1.8-14,2.29a17.75,17.75,0,0,0-1-3c1-.06,2.28-.91,3.6-2.1a48.85,48.85,0,0,0,4.62-4.38c-5.52.6-6.72.84-7.38,1.14-.18-.66-.66-2.16-1-2.88a4.41,4.41,0,0,0,2.28-1.5,34.7,34.7,0,0,0,5.34-7.56l2.88,1.08a42.74,42.74,0,0,1-5.64,7.56l5.82-.42c1-1.2,1.92-2.34,2.82-3.6l2.82,1.32a83.68,83.68,0,0,1-10.26,10.74l8-.9c-.54-1.08-1.14-2-1.68-3l2.34-.79a31.16,31.16,0,0,1,3.72,7.5ZM631.5,1957a39.25,39.25,0,0,1-2.58,8.28,15.69,15.69,0,0,0-2.4-1.44,27.41,27.41,0,0,0,2.16-7.43Zm3.3,7.44a35.29,35.29,0,0,0-1.38-7.68l2.52-.47a33.88,33.88,0,0,1,1.56,7.55Zm6.84-9a45,45,0,0,1,2.7,7.37l-2.58.78a32.56,32.56,0,0,0-2.46-7.43Z"/><path d="M656.88,1956.75a40.85,40.85,0,0,1-2.82,8.69,18,18,0,0,0-2.4-1.38,35.33,35.33,0,0,0,2.52-8Zm10.56-1.33c-.24-.71-.54-1.5-1-2.46-10.92,1.45-12.48,1.75-13.38,2.22a21.08,21.08,0,0,0-1-3,7.72,7.72,0,0,0,3.36-2,52.86,52.86,0,0,0,4.5-4.57c-5.28.55-6.42.85-7.08,1.09a12.68,12.68,0,0,0-1-3,3.75,3.75,0,0,0,2.22-1.44,28.08,28.08,0,0,0,5.34-7.32l3.06,1a48.11,48.11,0,0,1-5.7,7.5l5.4-.42a35.23,35.23,0,0,0,2.46-3.24l2.94,1.26a78.82,78.82,0,0,1-9.78,10.55l7.56-.89c-.54-1.08-1.14-2.22-1.74-3.24l2.34-.66a43.11,43.11,0,0,1,4,7.74Zm33.48,23a10.37,10.37,0,0,1-.3,1.74c-1,4.38-2.1,6.66-3.72,7.68-1.32.78-2.58,1-4.92,1-2.16.06-6.9,0-11.58-.36a6.11,6.11,0,0,0-1.08-2.82c4.8.42,10,.48,11.82.48a6.93,6.93,0,0,0,2.94-.36c1-.6,1.62-2,2.28-4.5H657a81.82,81.82,0,0,0,3.18-8.94h33.24v-3.18H657.06v-2.76h40.08v8.7h-34c-.42,1.2-.84,2.28-1.2,3.36Zm-40.74-14a52.9,52.9,0,0,0-1.5-7.74l2.64-.42a51.62,51.62,0,0,1,1.56,7.57Zm6.3-9.24a25.49,25.49,0,0,1,2.58,6.42l-2.52.9a26.43,26.43,0,0,0-2.34-6.59Zm19.92-12.77H669.12v-2.58h8.1a22,22,0,0,0-2.4-4.74l2.7-.84a21.87,21.87,0,0,1,2.76,5.58h6.12Zm-1.8,5.16H670.74v-2.28H684.6Zm-13.86,2.88H684.6v2.34H670.74Zm0,5.22H684.9v8.46H670.74Zm2.7,6.12h8.64V1958h-8.64Zm28.74-6.25a21.22,21.22,0,0,0-.84-2.46c-11.52,1.5-13.08,1.8-14,2.29a17.75,17.75,0,0,0-1-3c1-.06,2.28-.91,3.6-2.1a48.85,48.85,0,0,0,4.62-4.38c-5.52.6-6.72.84-7.38,1.14-.18-.66-.66-2.16-1-2.88a4.41,4.41,0,0,0,2.28-1.5,34.7,34.7,0,0,0,5.34-7.56l2.88,1.08a42.74,42.74,0,0,1-5.64,7.56l5.82-.42c1-1.2,1.92-2.34,2.82-3.6l2.82,1.32a83.68,83.68,0,0,1-10.26,10.74l8-.9c-.54-1.08-1.14-2-1.68-3l2.34-.79a31.16,31.16,0,0,1,3.72,7.5ZM691.5,1957a39.25,39.25,0,0,1-2.58,8.28,15.69,15.69,0,0,0-2.4-1.44,27.41,27.41,0,0,0,2.16-7.43Zm3.3,7.44a35.29,35.29,0,0,0-1.38-7.68l2.52-.47a33.88,33.88,0,0,1,1.56,7.55Zm6.84-9a45,45,0,0,1,2.7,7.37l-2.58.78a32.56,32.56,0,0,0-2.46-7.43Z"/><path d="M727,1935c-1,2.94-2.1,6.3-3.18,8.88H734v38.75h-16.8v4.8h-3.66v-43.55h6.66a64.68,64.68,0,0,0,2.58-9.72Zm3.3,12.47H717.18v13.08h13.14Zm0,31.56v-14.88H717.18v14.88Zm33.06-33.17c-1,27.53-1.8,36.71-4.2,39.59a5.6,5.6,0,0,1-4.56,2.28,74.94,74.94,0,0,1-8.82-.12,9.42,9.42,0,0,0-1.32-3.9c3.9.36,7.5.36,8.82.36s1.92-.12,2.52-.9c2-2.1,2.94-11.34,3.72-35.7H743.82a55.33,55.33,0,0,1-5.64,10.68,36.22,36.22,0,0,0-3.36-2.22c4.08-5.33,7.32-13.61,9.18-21.89l3.84.84c-.78,3-1.62,6-2.64,8.88h18.18Zm-12.78,27a106.51,106.51,0,0,0-9.3-13.92l3.06-1.79a102.47,102.47,0,0,1,9.6,13.61Z"/><path d="M820,1983.68c0,2.76-.78,4.08-2.88,4.68s-6,.72-12.06.72a14.18,14.18,0,0,0-1.62-3.84c5,.12,9.6.12,10.92.06s1.68-.42,1.68-1.62v-7.92H781.86A25.93,25.93,0,0,1,773,1989.2a13.61,13.61,0,0,0-2.76-2.82c8.46-6.66,9.48-16,9.48-23.63v-10.92a58.8,58.8,0,0,1-5.1,4.13,14.75,14.75,0,0,0-2.94-2.81,52.86,52.86,0,0,0,17-19l4.32.78c-.54,1-1.14,1.92-1.74,2.94h14.94l.72-.24,2.64,1.74a48.84,48.84,0,0,1-5.58,8.58h16Zm-36.42-20.28a51.06,51.06,0,0,1-.78,8.82h14.58v-8.82Zm5.4-22.07a59.72,59.72,0,0,1-5.4,6.66h16a47.61,47.61,0,0,0,4.44-6.66Zm-5.4,18.59h13.8v-8.39h-13.8Zm32.46-8.39H801.18v8.39H816Zm0,20.69v-8.82H801.18v8.82Z"/><path d="M843.18,1952.67a9.06,9.06,0,1,1-9.06,9A9.09,9.09,0,0,1,843.18,1952.67Zm0,15.23a6.18,6.18,0,1,0,0-12.36,6.18,6.18,0,1,0,0,12.36Z"/><path d="M534.9,2023.17c4.44,10.31,12.24,20,20.76,24.71a23.11,23.11,0,0,0-3.06,3.36c-9-5.58-16.92-16.32-21.6-28.07h-1v22.43h14.28v4H530V2061H525.9v-11.4H511.68v-4H525.9v-22.43h-1.08c-4.74,11.75-12.66,22.43-21.3,28.25a24.18,24.18,0,0,0-2.88-3.18c8-4.92,15.66-14.76,20.16-25.07H502.14v-4H525.9v-12.72H530v12.72h24v4Z"/><path d="M609.9,2045.54a33.64,33.64,0,0,1-8.22,7.38c2.4,2.82,5.22,4.44,8.16,4.38,1.68-.06,2.16-1.5,2.46-5.94a10.31,10.31,0,0,0,3.12,1.62c-.6,6.3-2.1,7.92-5.76,8-4.26,0-8.16-2.22-11.28-6a74.41,74.41,0,0,1-13.68,5.82,36.46,36.46,0,0,0-2.1-3.24,65.61,65.61,0,0,0,13.86-5.34,34.94,34.94,0,0,1-3.84-8.82H578.16v4.38l11.16-1-.06,2.88-11.1,1.08v6.12c0,2.1-.48,3.06-2.16,3.54s-4.38.54-8.94.54a19.42,19.42,0,0,0-1.26-3.18c3.36.12,6.48.06,7.38,0s1.2-.24,1.2-1v-5.7c-4.74.48-9.12.9-12.72,1.2l-.42-3.3c3.54-.24,8.1-.54,13.14-1v-4.68h-12.9v-3.18h12.9v-4.44c-3.78.42-7.68.72-11.28.91a12,12,0,0,0-.9-2.71c8.16-.48,18.18-1.55,23.52-2.94l2.52,2.58c-2.82.66-6.36,1.26-10.08,1.74v4.86h13.68a52.67,52.67,0,0,1-1.2-8.94h3.84a57.48,57.48,0,0,0,1.2,8.94h19v3.18H596.58a31.91,31.91,0,0,0,3.12,6.9,27.09,27.09,0,0,0,6.72-5.94Zm4.62-15.17h-53v-3.24H585.9V2023H567.3v-3.06h18.6v-4H564.06v-3.18h12.66a30,30,0,0,0-3.48-5.16l3.42-1.26a24.4,24.4,0,0,1,4.32,6.24l-.42.18H595.2a54.7,54.7,0,0,0,3.6-6.6l4.14,1.2c-1.2,1.86-2.52,3.84-3.72,5.4h12.84V2016H589.92v4h18.9V2023h-18.9v4.14h24.6Zm-5.7,9a34,34,0,0,0-9.48-5.52l2.16-2.46a38.32,38.32,0,0,1,9.66,5.22Z"/><path d="M650.46,2055.62a70.7,70.7,0,0,0,7.38.36c2.1.06,14.76,0,17.58-.06a16.36,16.36,0,0,0-1.44,3.84H657.72c-12.3,0-19.92-1.92-24.72-10.38a31.55,31.55,0,0,1-9.48,11.7,19.84,19.84,0,0,0-3.06-2.82c6.3-4.14,10.2-10.92,11.82-19.86l4,.6a55.92,55.92,0,0,1-1.5,6.06c2.34,5.64,6.3,8.52,11.7,9.84v-18.54H621.72v-3.6H674.4v3.6H650.46v7.08h20v3.6h-20Zm17.22-27.17h-39.6v-19.56h39.6Zm-4-16.44H632v5.16h31.68Zm0,8.1H632v5.27h31.68Z"/><path d="M734.76,2039.84H710.7v21.06h-4.14v-21.06h-25.2v-3.9h25.2v-14.63h-15a54.27,54.27,0,0,1-6.3,10,24.8,24.8,0,0,0-3.66-2.23c4.68-5,8.52-13,10.8-21.11l4,.84a68.18,68.18,0,0,1-3,8.52h13.2v-11h4.14v11h20.76v4H710.7v14.63h24.06Z"/><path d="M753.18,2024.67a9.06,9.06,0,1,1-9.06,9A9.09,9.09,0,0,1,753.18,2024.67Zm0,15.23a6.18,6.18,0,1,0,0-12.36,6.18,6.18,0,1,0,0,12.36Z"/><rect class="cls-2" x="1113" y="430" width="65" height="126" rx="12"/><path class="cls-1" d="M1132.7,459.82c1.25,1.6,4.9,6.7,5.7,8.05l-2,2.45c-.7-1.5-2.35-4.4-3.75-6.65V490h-3.15V465.57c-1.5,5.05-3.5,9.9-5.55,12.85a14.83,14.83,0,0,0-1.75-3.1c2.9-4,5.8-11.5,7.2-18h-6.2v-3.15h6.3v-9.65h3.15v9.65h5.45v3.15h-5.45Zm19.1.7a19.47,19.47,0,0,0,.45,2.65c-10.15,2.7-11.6,3.15-12.5,3.75a12.13,12.13,0,0,0-1.1-3.2c.7-.2,1.55-.5,1.55-2.2v-16.7h3.25v6.5h8.35v2.9h-8.35v8.3Zm2.35,5.5-2,3.75h12.65V490h-3.4v-1.75h-17v2h-3.3V469.77h7.9c.55-1.5,1.2-3.25,1.55-4.6Zm7.3,6.5h-17v5.05h17Zm0,13v-5.3h-17v5.3Zm2.25-22.4c1.25,0,1.5-.75,1.65-5.25a9.16,9.16,0,0,0,2.85,1.25c-.3,5.45-1.2,6.95-4.15,6.95h-5.85c-3.65,0-4.55-.95-4.55-4.45V444.87h3.25v6.5h10.2v2.9h-10.2v7.35c0,1.3.25,1.5,1.65,1.5Z"/><path class="cls-1" d="M1167.55,519.87v2.5H1123.4v-2.5h20.25v-3.2H1126.8v-2.3h16.85v-3H1128.2v-2.25h15.45v-3.2H1123.5v-2.5h20.15v-3.05H1128.8V498h14.85v-3.55h3.25V498h14.45v5.4h6.15v2.5h-6.15v5.45H1146.9v3h17.3v2.3h-17.3v3.2Zm-37.75,5h31.75v15.25h-3.25v-1.6H1133v1.7h-3.2Zm3.2,2.4v3.2h25.3v-3.2Zm25.3,8.85v-3.4H1133v3.4Zm-11.4-32.7h11.15v-3.05H1146.9Zm0,5.7h11.15v-3.2H1146.9Z"/><rect class="cls-2" x="1113" y="1263" width="65" height="222" rx="12"/><path class="cls-1" d="M1158.05,1302.79a27.61,27.61,0,0,0,11.5,8.1,11.65,11.65,0,0,0-2.15,2.55,30.77,30.77,0,0,1-12.8-10.65h-15.95a34.39,34.39,0,0,1-13,11.3,11.43,11.43,0,0,0-2.15-2.55,30.39,30.39,0,0,0,11.6-8.75H1124v-2.85h10v-16.15h-7.7V1281h7.7v-5h3.3v5h18.55v-5h3.35v5h7.65v2.8h-7.65v16.15h9.8v2.85Zm-10,14.5h17.3v2.85H1127.8v-2.85h16.9v-5.6h-10.45v-2.8h10.45v-4.4h3.35v4.4h10.65v2.8h-10.65Zm-10.8-33.5v3.6h18.55v-3.6Zm0,9.8h18.55v-3.65h-18.55Zm0,6.35h18.55v-3.8h-18.55Z"/><path class="cls-1" d="M1142.25,1344.54s0,1.15,0,1.55c-.6,15.85-1.2,21.2-2.6,23a3.71,3.71,0,0,1-2.8,1.45,32.65,32.65,0,0,1-4.45,0,9.25,9.25,0,0,0-.85-3c1.75.15,3.2.15,3.9.15a1.42,1.42,0,0,0,1.45-.65c1-1.2,1.6-6,2.15-19.35h-6.8c-.55,10-2,18.25-6.45,23.65a9.53,9.53,0,0,0-2.55-2.35c5.45-6.45,5.9-17.85,6.1-31.55h-5.2v-3.1h20.1v3.1h-11.65c0,2.45-.1,4.85-.2,7.15Zm-7.9-10.45a33.47,33.47,0,0,0-4.25-7.15l2.9-1.15a31.92,31.92,0,0,1,4.4,7Zm23.85-7.45a15.26,15.26,0,0,1-.85,2.55c2.65,5.45,7.7,11.35,12.45,14a13,13,0,0,0-2.45,2.75c-4.25-2.7-8.5-8-11.4-13.3a32.61,32.61,0,0,1-11,13.6,12.79,12.79,0,0,0-2.35-2.65c5.85-3.6,10.35-10.2,12.5-17.85Zm-8.3,32.45a74,74,0,0,1,13.6,8.25l-2.25,2.9c-2.85-2.6-8.75-6.3-13.4-8.65Zm9.5-4.85a66.22,66.22,0,0,0-8.6-6.85l2.15-2.2a67.46,67.46,0,0,1,8.75,6.55Z"/><path class="cls-1" d="M1135.5,1389c-1.6,7.2-4.55,16.15-9.1,21.7a19.23,19.23,0,0,0-3.1-1.8c4.55-5.25,7.3-13.85,8.55-20.55Zm12.9-12.3v40c0,2.55-.7,3.6-2.35,4.2s-4.8.6-9.4.6a15.62,15.62,0,0,0-1.4-3.45c3.7.1,7.3.1,8.25.05s1.45-.35,1.45-1.4v-40ZM1160,1388c4.45,7,8.7,16.1,10,22l-3.45,1.45c-1.25-5.85-5.25-15.15-9.6-22.3Z"/><path class="cls-1" d="M1164.65,1453.74a72.75,72.75,0,0,1-7.65,3.65,19.75,19.75,0,0,0,12.1,9.55,10.66,10.66,0,0,0-2.1,2.6,22.77,22.77,0,0,1-12.5-11.1c-1.1.45-2.15.85-3.2,1.2,1.5,4.4.7,8.7-1.6,10.35a6,6,0,0,1-4.25,1.3c-1,0-2.25,0-3.55-.1a5.77,5.77,0,0,0-.9-2.85,30,30,0,0,0,4,.2,4.12,4.12,0,0,0,2.7-.65c1.35-1,1.9-3.75,1-6.9-5.55,3.7-14.45,7-22,8.45a11,11,0,0,0-1.45-2.4c8-1.1,17.65-4.65,22.65-8.35a13.35,13.35,0,0,0-1.25-2.15,69.47,69.47,0,0,1-17.55,6.35,7.59,7.59,0,0,0-1.4-2.15c5.8-1,13.4-3.4,17.7-5.85-.6-.55-1.25-1.15-2-1.7a80,80,0,0,1-15.25,4.15,16.41,16.41,0,0,0-1.55-2.2c5.7-.75,12.15-2.15,16.75-4.15h-18.55v-2.55h28c.3-.9.55-1.8.9-2.75h-21.7c1.25-2.8,3-7,4-10.25l3,.5a42,42,0,0,0-3.4-3.25l2-1.15h-6.25a29.23,29.23,0,0,1-5.1,5.6,25.27,25.27,0,0,0-2.35-2.2,26.89,26.89,0,0,0,7.5-9.35l3,.85c-.45.9-1,1.75-1.4,2.65h13.45v2.45h-8.3a44.9,44.9,0,0,1,4,3.65l-2.45,1.6a4.8,4.8,0,0,0-.7-.75c-.2.65-.45,1.25-.65,2h17.75l.6-.2,2.25.5c-.8,3.15-1.9,7-3,10.15h12V1451h-20.25c-.6.35-1.2.7-1.85,1a16.36,16.36,0,0,1,4.4,5.35,90.1,90.1,0,0,0,11.6-5.5Zm-10.2-10.3c.35-1.15.65-2.2,1-3.2h-17.7c-.45,1.15-.9,2.2-1.3,3.2Zm14.75-14.3v2.45h-16.6a28.84,28.84,0,0,1-4.55,5.15,15.06,15.06,0,0,0-2.55-2,21.57,21.57,0,0,0,6.7-9.1l3.1.8a26.43,26.43,0,0,1-1.25,2.7Zm-7.9,8a32.47,32.47,0,0,0-3.9-4.25l2.3-1.25a30.14,30.14,0,0,1,4,4Z"/><line class="cls-3" x1="410.25" y1="1434" x2="853.75" y2="1434"/><path d="M443.16,1018.25a175.87,175.87,0,0,0-14.47,16.39A220,220,0,0,0,413,1057.05a174.14,174.14,0,0,0-9.44,18.26,247.69,247.69,0,0,0-9.7,24.82c-4.75,14.81-7.39,30-9.31,45.41a232.15,232.15,0,0,0-1.7,40.4c.18,3.52.47,7,.92,10.54.71,5.56,1.39,11.14,2.61,16.61a90.93,90.93,0,0,0,2.9,10.23,129.85,129.85,0,0,0,6.61,15.62,74,74,0,0,0,5.59,9.33,130.12,130.12,0,0,0,9.85,12.48c5.56,6.12,12.08,11.22,18.71,16.12,12.53,9.27,27,15.76,41.56,21.12a218.39,218.39,0,0,0,42.28,10.7,412.11,412.11,0,0,0,56.22,4.74c16.76.27,33.52-.28,50.26-1l12.41-.55a26.19,26.19,0,0,0,25.5-25.5l-.91-6.78a25.45,25.45,0,0,0-6.56-11.25l-5.16-4a25.27,25.27,0,0,0-12.87-3.48c-27.81,1.26-55.71,2.51-83.54.74-7.79-.49-15.58-1.24-23.32-2.27l6.78.91a228,228,0,0,1-43.85-10.14q-5.79-2-11.44-4.38l6.09,2.57A134,134,0,0,1,454,1231.5l5.16,4A87.64,87.64,0,0,1,443.44,1220l4,5.16a76.82,76.82,0,0,1-9.81-16.89l2.57,6.09a95.44,95.44,0,0,1-6.29-24.07l.91,6.78c-1.83-13.94-1.48-28.19-.29-42.17q.51-5.85,1.29-11.68l-.92,6.78a210.2,210.2,0,0,1,9.54-40.6q2-5.67,4.29-11.2l-2.57,6.09a174.45,174.45,0,0,1,22.46-38.6l-4,5.16a175.31,175.31,0,0,1,14.61-16.55,26.24,26.24,0,0,0,0-36.07l-5.16-4a25.32,25.32,0,0,0-12.87-3.48l-6.78.91a25.52,25.52,0,0,0-11.26,6.55Z"/><path d="M785.86,1054a175,175,0,0,1,14.6,16.55l-4-5.16A174.29,174.29,0,0,1,818.94,1104l-2.57-6.09a198.48,198.48,0,0,1,11.94,40.15q1.1,5.81,1.88,11.65l-.91-6.78a235.69,235.69,0,0,1,2.05,41.47c-.17,4.14-.51,8.27-1.05,12.37l.91-6.78a95.65,95.65,0,0,1-6.29,24.07l2.57-6.09a77,77,0,0,1-9.81,16.89l4-5.16A88.09,88.09,0,0,1,806,1235.2l5.17-4A134.31,134.31,0,0,1,781.64,1248l6.09-2.58a204.49,204.49,0,0,1-41.83,12.36c-4.47.85-9,1.55-13.46,2.16l6.78-.91c-27.58,3.7-55.48,3.53-83.23,2.53-7.88-.29-15.76-.64-23.64-1a26.23,26.23,0,0,0-25.5,25.5l.91,6.78a25.55,25.55,0,0,0,6.56,11.25l5.16,4a25.32,25.32,0,0,0,12.87,3.48c16.82.76,33.65,1.51,50.49,1.61a422.06,422.06,0,0,0,50.15-2.37c17.1-1.94,34.08-4.69,50.55-9.76a240.77,240.77,0,0,0,25.69-9.8,142.65,142.65,0,0,0,17.9-9.32c2.78-1.72,5.49-3.54,8.11-5.49,4.13-3.06,8.26-6.2,12.11-9.63a109,109,0,0,0,16.43-19,75,75,0,0,0,5.55-9.33,129.82,129.82,0,0,0,6.58-15.63c3-8.71,4.32-17.73,5.47-26.85,1.71-13.54,1.36-27.39.22-41A263.2,263.2,0,0,0,874,1109.2a191.77,191.77,0,0,0-6.19-19.16,235.45,235.45,0,0,0-10.82-24.5,170.93,170.93,0,0,0-10.66-17.85,223.66,223.66,0,0,0-16.91-21.75q-3.63-4.1-7.51-8a19,19,0,0,0-8.2-5.27,23,23,0,0,0-19.65,0,19,19,0,0,0-8.21,5.27l-4,5.16a25.52,25.52,0,0,0-3.48,12.87l.91,6.78a25.45,25.45,0,0,0,6.56,11.25Z"/><line class="cls-3" x1="632" y1="1708" x2="632" y2="1103"/></svg>