<svg id="Layer_1" data-name="Layer 1" xmlns="http://www.w3.org/2000/svg" viewBox="0 0 1242 2208"><defs><style>.cls-1{fill:#f6eabe;}.cls-2{fill:#999;}.cls-3,.cls-4{fill:none;}.cls-4{stroke:#000;stroke-linecap:round;stroke-miterlimit:10;stroke-width:50px;}</style></defs><rect class="cls-1" width="1242" height="2208"/><path d="M960.12,768.55v51.61H253.47V768.55H574.24V508.92H325.72V458.1H574.24V234.2H293.17V181.79h628V234.2H629.82V458.1H891v50.82H629.82V768.55ZM743.36,551.79c50,45.26,115.92,107.19,149.27,144.51l-39.7,34.93C821.17,693.12,756.06,628,705.25,581.17Z"/><rect class="cls-2" x="1113" y="436" width="65" height="126" rx="12"/><path class="cls-1" d="M1132.7,465.82c1.25,1.6,4.9,6.7,5.7,8.05l-2,2.45c-.7-1.5-2.35-4.4-3.75-6.65V496h-3.15V471.57c-1.5,5.05-3.5,9.9-5.55,12.85a14.83,14.83,0,0,0-1.75-3.1c2.9-4,5.8-11.5,7.2-18h-6.2v-3.15h6.3v-9.65h3.15v9.65h5.45v3.15h-5.45Zm19.1.7a19.47,19.47,0,0,0,.45,2.65c-10.15,2.7-11.6,3.15-12.5,3.75a12.13,12.13,0,0,0-1.1-3.2c.7-.2,1.55-.5,1.55-2.2v-16.7h3.25v6.5h8.35v2.9h-8.35v8.3Zm2.35,5.5-2,3.75h12.65V496h-3.4v-1.75h-17v2h-3.3V475.77h7.9c.55-1.5,1.2-3.25,1.55-4.6Zm7.3,6.5h-17v5.05h17Zm0,13v-5.3h-17v5.3Zm2.25-22.4c1.25,0,1.5-.75,1.65-5.25a9.16,9.16,0,0,0,2.85,1.25c-.3,5.45-1.2,6.95-4.15,6.95h-5.85c-3.65,0-4.55-.95-4.55-4.45V450.87h3.25v6.5h10.2v2.9h-10.2v7.35c0,1.3.25,1.5,1.65,1.5Z"/><path class="cls-1" d="M1167.55,525.87v2.5H1123.4v-2.5h20.25v-3.2H1126.8v-2.3h16.85v-3H1128.2v-2.25h15.45v-3.2H1123.5v-2.5h20.15v-3.05H1128.8V504h14.85v-3.55h3.25V504h14.45v5.4h6.15v2.5h-6.15v5.45H1146.9v3h17.3v2.3h-17.3v3.2Zm-37.75,5h31.75v15.25h-3.25v-1.6H1133v1.7h-3.2Zm3.2,2.4v3.2h25.3v-3.2Zm25.3,8.85v-3.4H1133v3.4Zm-11.4-32.7h11.15v-3.05H1146.9Zm0,5.7h11.15v-3.2H1146.9Z"/><path d="M324.92,1881.69a98.85,98.85,0,0,1-6.18,13.56v39.59H314.9v-33.35a61.73,61.73,0,0,1-5.46,7,32.86,32.86,0,0,0-2.28-3.9c5.58-5.87,10.8-14.87,14-24Zm34.14,28c-2.1,1.26-4.44,2.64-6.84,3.78,2,6.06,5.82,11.82,10.38,14.52a11.2,11.2,0,0,0-2.64,2.94c-4.62-3.18-8.46-9.42-10.68-16a27.45,27.45,0,0,1-2.76,1.2c2.58,6.84,1.86,14-1,16.68a6.91,6.91,0,0,1-5.22,1.92c-1.08,0-2.4-.06-3.78-.18a9.31,9.31,0,0,0-1-3.42,38.26,38.26,0,0,0,4.14.24,3.66,3.66,0,0,0,3.12-1.14c1.56-1.38,2.22-5.16,1.44-9.36-5.16,4.92-13.08,9.36-19.8,11.7a15.8,15.8,0,0,0-2.34-2.82c7.62-2.28,16.62-7.14,21.3-12.24a35.76,35.76,0,0,0-1.5-3.48,63.52,63.52,0,0,1-17.22,9.9,16.14,16.14,0,0,0-2.22-2.64c5.94-1.8,13.74-5.76,17.88-9.54a16.39,16.39,0,0,0-2.94-3.18,58.44,58.44,0,0,1-13.56,7.26,11.26,11.26,0,0,0-2.22-2.58,52.48,52.48,0,0,0,15.06-7.56H326.48v-9.35c-1.14,1-2.28,2-3.54,2.94a9.54,9.54,0,0,0-2.52-2.59,44.59,44.59,0,0,0,13.86-16.25l3.84.72c-.6,1.2-1.32,2.34-2,3.54h11.1l.72-.18,2.34,1.68a52.13,52.13,0,0,1-4.8,6.84h13.08v12.65H340.94a15.29,15.29,0,0,1-1.2,1,21,21,0,0,1,5.64,6.84,111.93,111.93,0,0,0,10.92-6.42ZM334,1887.81a54.58,54.58,0,0,1-4.2,5.16h11.58a37.88,37.88,0,0,0,3.72-5.16Zm-3.9,14.69h10.5v-6.42h-10.5Zm24.72-6.42H344.18v6.42H354.8Z"/><path d="M417.92,1929.32c0,2.76-.78,4-2.64,4.68s-5.46.72-11.1.66a12.92,12.92,0,0,0-1.38-3.84c4.32.18,8.4.12,9.6.06s1.56-.42,1.56-1.56v-12.78H397.22v17.94h-4v-17.94H377.78c-.9,6.72-2.88,13.56-7.56,18.78a11.58,11.58,0,0,0-3-2.64c6.6-7.44,7.26-18,7.26-26.46v-21.59h43.44Zm-24.66-16.56v-10.5H378.38v4c0,2.11-.06,4.26-.24,6.54Zm-14.88-24.35v10.13h14.88v-10.13Zm35.58,0H397.22v10.13H414Zm0,24.35v-10.5H397.22v10.5Z"/><path d="M434.36,1919.18a87.3,87.3,0,0,1-4.08,14.28,21.14,21.14,0,0,0-3.12-1,66.84,66.84,0,0,0,4-13.92Zm13.5-16.73a65.09,65.09,0,0,1,4.32,11.75l-3.18,1c-.18-.84-.48-1.86-.84-3-16.08,2.57-18.06,2.93-19.2,3.59a36.84,36.84,0,0,0-1.26-3.59c1.32-.25,2.76-1.75,4.8-4a80.21,80.21,0,0,0,6.18-7.45c-7.86.91-9.3,1.27-10.14,1.69a24.67,24.67,0,0,0-1.2-3.54c1.08-.24,2.16-1.5,3.6-3.3a82.57,82.57,0,0,0,9.3-15.42l3.48,1.56A96.25,96.25,0,0,1,433,1898.07l8.28-.73c1.8-2.63,3.66-5.45,5.28-8.27l3.24,2A129.77,129.77,0,0,1,434.36,1911l12.9-1.8c-.72-2-1.56-4.14-2.4-5.93Zm-6.78,15.65a126.41,126.41,0,0,1,1.86,12.78l-3.24.78a122.06,122.06,0,0,0-1.68-12.84Zm7-1.32a78.18,78.18,0,0,1,3.9,11.16l-3.06,1.14a82.8,82.8,0,0,0-3.72-11.34Zm14.58-1.14a42.51,42.51,0,0,1-6,14.52,28.31,28.31,0,0,0-3.3-1.56c2.7-3.48,4.62-8.52,5.7-13.62Zm7.26-4.38v19.14c0,2-.36,3-1.74,3.6s-3.48.66-6.72.66a12.62,12.62,0,0,0-1.2-3.48c2.46.06,4.5.06,5.1,0s.84-.18.84-.78v-18.72c-7.74.78-9.12,1.08-10.08,1.5a18,18,0,0,0-1.2-3.6c1.26-.24,2.76-1.67,4.8-3.71a82.19,82.19,0,0,0,6.12-7.26c-7.68.89-9.12,1.26-9.9,1.62a24.05,24.05,0,0,0-1.2-3.48c1-.18,1.86-1.26,3-2.76a69.28,69.28,0,0,0,7.44-13.08l3.48,1.56a90.46,90.46,0,0,1-8.46,13.49l8.16-.71c1.8-2.46,3.54-5,5.1-7.62l3.24,2a126.34,126.34,0,0,1-15.48,19.31l14.58-1.44a59.86,59.86,0,0,0-3.66-6.65l2.94-1.26a52,52,0,0,1,6.42,13l-3.18,1.56c-.3-1.08-.72-2.28-1.2-3.66Zm6.78,3.42a72.15,72.15,0,0,1,5.82,13.5l-3.42,1.26a77.92,77.92,0,0,0-5.64-13.68Z"/><path d="M493.64,1919.06a84.79,84.79,0,0,1-3.12,14.7,27.64,27.64,0,0,0-3.18-1.14,58.35,58.35,0,0,0,3-14.1Zm11.16-2.46c-.18-1.08-.42-2.28-.72-3.66-12.12,1.86-13.92,2.28-14.94,2.82-.24-.84-.9-2.76-1.32-3.78,1.2-.3,2.58-1.8,4.32-4a75.87,75.87,0,0,0,5.16-7.07c-6.42.77-7.74,1.08-8.58,1.5a30.29,30.29,0,0,0-1.26-3.72c1-.24,2-1.5,3.24-3.31a77.54,77.54,0,0,0,7.74-15.17l3.72,1.56A89,89,0,0,1,493,1898l6.66-.59c1.5-2.52,3.06-5.34,4.38-8l3.54,2a113.57,113.57,0,0,1-13.5,19.67l9.24-1.2c-.54-2.09-1.14-4.26-1.8-6.24l3.06-.72a73.33,73.33,0,0,1,3.48,12.72Zm-5.7,1.8a106.51,106.51,0,0,1,1.56,12.84l-3.18.6a104.68,104.68,0,0,0-1.44-12.9Zm5.34-1.38a72.51,72.51,0,0,1,3.06,9.84l-3,1a84.63,84.63,0,0,0-2.88-10Zm18.36-3.54c-2.28,9.06-7.56,15.42-13.68,18.72a10.48,10.48,0,0,0-2.34-2.82,24.24,24.24,0,0,0,11.52-13.26H510v-3.36h9.78l.6-.18Zm18.24-1.2a95.41,95.41,0,0,1-8.46,7.38,27.46,27.46,0,0,0,10,9.54,13.6,13.6,0,0,0-2.58,3.18c-5-3-9-8.16-11.88-14.34v12.42c0,2.16-.42,3.24-1.92,3.9s-4,.72-7.92.72a16.63,16.63,0,0,0-1.14-3.72c2.88.06,5.4.06,6.18,0s1-.18,1-.9v-22.92H512.24v-20.87h9.3a51.67,51.67,0,0,0,2-6.36l4.44,1c-.84,1.8-1.74,3.78-2.52,5.4h13.68v20.87h-11.1v2.1a39.64,39.64,0,0,0,3,7.38,76.28,76.28,0,0,0,7-7.08ZM516,1895.54h19.38v-5.63H516Zm0,8.83h19.38v-5.76H516Z"/><path d="M598.7,1908.5v18.9h-4.26V1925H576.92v10h-4.14v-10h-17.1v2.52H551.6v-19h21.18v-5.21H553.94v-16h18.84v-6.9h4.14v6.9H596v16H576.92v5.21Zm-25.92,12.84v-9.17h-17.1v9.17Zm0-21.65v-8.76H558v8.76Zm4.14-8.76v8.76H591.8v-8.76Zm17.52,30.41v-9.17H576.92v9.17Z"/><path d="M622.46,1909.64a53.51,53.51,0,0,1-3.54,13.14c4,6.78,11.7,7.74,23.28,7.8,6.3,0,14.82-.24,20.82-.78a10.52,10.52,0,0,0-1.32,3.78c-5.52.3-13,.42-19.5.42-12.42,0-20-1.2-24.78-8a27.61,27.61,0,0,1-7.62,9.12,13.1,13.1,0,0,0-2.7-2.76c5.46-3.78,9.42-10.56,11.34-20h-6.12a6.5,6.5,0,0,0-3.48.84,26.54,26.54,0,0,0-1.56-3.72,5.33,5.33,0,0,0,2.82-1.73c1.38-1.45,4.92-6.55,7.44-10.21H608v-3.29h11.82l.78-.36,2.7,1.26c-2.34,3.54-6.84,9.84-10.08,13.91h6.72l.72-.06Zm-5.16-17.93a94.58,94.58,0,0,0-7-9.66l3-1.68a81,81,0,0,1,7.14,9.3Zm22.26-2.46H623.18v-3.36h16.38v-5.52h3.84v5.52h17.28v3.36H643.4V1894h14v19.14h-14v4.68h18.12v3.42H643.4v7.32h-3.84v-7.32H623.12v-3.42h16.44v-4.68H626.12V1894h13.44Zm-9.78,12.83h9.78v-5h-9.78Zm9.78,8V1905h-9.78v5.1ZM643.4,1897v5h10.2v-5Zm10.2,8H643.4v5.1h10.2Z"/><path d="M720.86,1926.5v4H669.14v-4Zm-3.3-40.37v4h-45v-4Zm-4.62,19.55v4h-36.6v-4Z"/><path d="M747,1919.48c-6.3,2.64-13.14,5.34-18.36,7.38l-1.26-4c2.28-.78,5.1-1.8,8.22-2.94v-21.17h-7.26V1895h7.26V1881h3.72V1895h6.54v3.78h-6.54v19.79l7-2.64ZM778,1931c1.68,0,2-.66,2.16-4.62a10.07,10.07,0,0,0,3.18,1.26c-.42,5.28-1.44,6.72-5,6.72h-8.64c-4.56,0-5.76-1-5.76-5.22v-18.36h-4c-1,10.74-3.54,19.62-13.38,24.48a9.45,9.45,0,0,0-2.34-3c8.94-4.08,11.22-12.06,12.12-21.48h-7.74v-24.41h6.12a36.07,36.07,0,0,0,2.22-6.3l4.2.66c-.9,2-1.74,4-2.64,5.64h21.24v24.41h-12.3v18.36c0,1.56.36,1.86,2.58,1.86Zm-25.92-34h10.14v-7.26H752.12Zm0,10.43h10.14v-7.25H752.12Zm24.06-17.69H765.86V1897h10.32Zm0,10.44H765.86v7.25h10.32Zm-.18,13.07a56.8,56.8,0,0,1-4.2,9.36l6.36-.66a42.18,42.18,0,0,0-2.34-5l2.16-.84a69.24,69.24,0,0,1,4.08,8.88l-2.22,1.2a20.57,20.57,0,0,0-.72-2c-8.22,1.08-9.6,1.38-10.26,1.74a13.43,13.43,0,0,0-.9-2.76c.66-.06,1.08-.78,1.68-1.86a38.1,38.1,0,0,0,3.66-9.06Z"/><path d="M841.76,1928.66v3.9h-53.4v-3.9H812.6V1909H793.82v-3.83H812.6v-16.92H791.36v-4h47.46v4h-22v16.92h19.74V1909H816.8v19.62Zm-16.38-16.38c3.78,3.42,8.76,8.1,11.28,10.92l-3,2.64a149.15,149.15,0,0,0-11.16-11.34Z"/><path d="M890.9,1909.29V1935h-4.14v-21.78H861c-.9,7.92-3.24,15.54-8.88,22a13.94,13.94,0,0,0-3-2.94c7.62-8.82,8.46-20.16,8.46-31.08v-20.27h4v14.46h23.1v-14.94h4v18.9H861.62v1.85c0,2.7-.06,5.4-.24,8.11Z"/><path d="M920.18,1898.67a9.06,9.06,0,1,1-9.06,9A9.09,9.09,0,0,1,920.18,1898.67Zm0,15.23a6.18,6.18,0,1,0,0-12.36,6.18,6.18,0,1,0,0,12.36Z"/><path d="M491.9,1969.17c4.44,10.31,12.24,20,20.76,24.71a23.11,23.11,0,0,0-3.06,3.36c-9-5.58-16.92-16.32-21.6-28.07h-1v22.43h14.28v4H487V2007H482.9v-11.4H468.68v-4H482.9v-22.43h-1.08c-4.74,11.75-12.66,22.43-21.3,28.25a24.18,24.18,0,0,0-2.88-3.18c8-4.92,15.66-14.76,20.16-25.07H459.14v-4H482.9v-12.72H487v12.72h24v4Z"/><path d="M566.9,1991.54a33.64,33.64,0,0,1-8.22,7.38c2.4,2.82,5.22,4.44,8.16,4.38,1.68-.06,2.16-1.5,2.46-5.94a10.31,10.31,0,0,0,3.12,1.62c-.6,6.3-2.1,7.92-5.76,8-4.26,0-8.16-2.22-11.28-6a74.41,74.41,0,0,1-13.68,5.82,36.46,36.46,0,0,0-2.1-3.24,65.61,65.61,0,0,0,13.86-5.34,34.94,34.94,0,0,1-3.84-8.82H535.16v4.38l11.16-1-.06,2.88-11.1,1.08v6.12c0,2.1-.48,3.06-2.16,3.54s-4.38.54-8.94.54a19.42,19.42,0,0,0-1.26-3.18c3.36.12,6.48.06,7.38,0s1.2-.24,1.2-1v-5.7c-4.74.48-9.12.9-12.72,1.2l-.42-3.3c3.54-.24,8.1-.54,13.14-1v-4.68h-12.9v-3.18h12.9v-4.44c-3.78.42-7.68.72-11.28.91a12,12,0,0,0-.9-2.71c8.16-.48,18.18-1.55,23.52-2.94l2.52,2.58c-2.82.66-6.36,1.26-10.08,1.74v4.86h13.68a52.67,52.67,0,0,1-1.2-8.94h3.84a57.48,57.48,0,0,0,1.2,8.94h19v3.18H553.58a31.91,31.91,0,0,0,3.12,6.9,27.09,27.09,0,0,0,6.72-5.94Zm4.62-15.17h-53v-3.25H542.9V1969H524.3v-3.06h18.6v-4H521.06v-3.18h12.66a30,30,0,0,0-3.48-5.16l3.42-1.26a24.4,24.4,0,0,1,4.32,6.24l-.42.18H552.2a54.7,54.7,0,0,0,3.6-6.6l4.14,1.2c-1.2,1.86-2.52,3.84-3.72,5.4h12.84V1962H546.92v4h18.9V1969h-18.9v4.13h24.6Zm-5.7,9a34,34,0,0,0-9.48-5.52l2.16-2.46a38.32,38.32,0,0,1,9.66,5.22Z"/><path d="M607.46,2001.62a70.7,70.7,0,0,0,7.38.36c2.1.06,14.76,0,17.58-.06a16.36,16.36,0,0,0-1.44,3.84H614.72c-12.3,0-19.92-1.92-24.72-10.38a31.55,31.55,0,0,1-9.48,11.7,19.84,19.84,0,0,0-3.06-2.82c6.3-4.14,10.2-10.92,11.82-19.86l4,.6a55.92,55.92,0,0,1-1.5,6.06c2.34,5.64,6.3,8.52,11.7,9.84v-18.54H578.72v-3.6H631.4v3.6H607.46v7.08h20v3.6h-20Zm17.22-27.17h-39.6v-19.56h39.6Zm-4-16.44H589v5.16h31.68Zm0,8.1H589v5.27h31.68Z"/><path d="M691.76,2000.66v3.9h-53.4v-3.9H662.6V1981H643.82v-3.83H662.6v-16.92H641.36v-4h47.46v4h-22v16.92h19.74V1981H666.8v19.62Zm-16.38-16.38c3.78,3.42,8.76,8.1,11.28,10.92l-3,2.64a149.15,149.15,0,0,0-11.16-11.34Z"/><path d="M721.16,1960.89a96.9,96.9,0,0,1-7.44,16.07h33.54v30h-4.14v-4.26H713.9V2007h-4v-24.3a52.86,52.86,0,0,1-10.32,10.68,18.61,18.61,0,0,0-2.76-3c9.48-7.08,16.14-18.6,19.86-29.51H699.2V1957H751v3.9Zm-7.26,19.91v18.06h29.22V1980.8Z"/><path d="M770.18,1970.67a9.06,9.06,0,1,1-9.06,9A9.09,9.09,0,0,1,770.18,1970.67Zm0,15.23a6.18,6.18,0,1,0,0-12.36,6.18,6.18,0,1,0,0,12.36Z"/><line class="cls-3" x1="621" y1="350" x2="621" y2="350"/><line class="cls-4" x1="609" y1="1072" x2="609" y2="1682"/><line class="cls-4" x1="459" y1="1238" x2="759" y2="1238"/><line class="cls-4" x1="459" y1="1377" x2="759" y2="1377"/><line class="cls-4" x1="459" y1="1516" x2="759" y2="1516"/><rect class="cls-2" x="1114" y="1241" width="65" height="271" rx="12"/><path class="cls-1" d="M1159.05,1280.79a27.61,27.61,0,0,0,11.5,8.1,11.65,11.65,0,0,0-2.15,2.55,30.77,30.77,0,0,1-12.8-10.65h-15.95a34.39,34.39,0,0,1-13,11.3,11.43,11.43,0,0,0-2.15-2.55,30.39,30.39,0,0,0,11.6-8.75H1125v-2.85h10v-16.15h-7.7V1259h7.7v-5h3.3v5h18.55v-5h3.35v5h7.65v2.8h-7.65v16.15h9.8v2.85Zm-10,14.5h17.3v2.85H1128.8v-2.85h16.9v-5.6h-10.45v-2.8h10.45v-4.4h3.35v4.4h10.65v2.8h-10.65Zm-10.8-33.5v3.6h18.55v-3.6Zm0,9.8h18.55v-3.65h-18.55Zm0,6.35h18.55v-3.8h-18.55Z"/><path class="cls-1" d="M1143.25,1322.54s0,1.15,0,1.55c-.6,15.85-1.2,21.2-2.6,23a3.71,3.71,0,0,1-2.8,1.45,32.65,32.65,0,0,1-4.45,0,9.25,9.25,0,0,0-.85-3c1.75.15,3.2.15,3.9.15a1.42,1.42,0,0,0,1.45-.65c1-1.2,1.6-6,2.15-19.35h-6.8c-.55,10-2,18.25-6.45,23.65a9.53,9.53,0,0,0-2.55-2.35c5.45-6.45,5.9-17.85,6.1-31.55h-5.2v-3.1h20.1v3.1h-11.65c0,2.45-.1,4.85-.2,7.15Zm-7.9-10.45a33.47,33.47,0,0,0-4.25-7.15l2.9-1.15a31.92,31.92,0,0,1,4.4,7Zm23.85-7.45a15.26,15.26,0,0,1-.85,2.55c2.65,5.45,7.7,11.35,12.45,14a13,13,0,0,0-2.45,2.75c-4.25-2.7-8.5-8-11.4-13.3a32.61,32.61,0,0,1-11,13.6,12.79,12.79,0,0,0-2.35-2.65c5.85-3.6,10.35-10.2,12.5-17.85Zm-8.3,32.45a74,74,0,0,1,13.6,8.25l-2.25,2.9c-2.85-2.6-8.75-6.3-13.4-8.65Zm9.5-4.85a66.22,66.22,0,0,0-8.6-6.85l2.15-2.2a67.46,67.46,0,0,1,8.75,6.55Z"/><path class="cls-1" d="M1166,1357.19v29.3h-3.5v-2.55h-13.3v15.6h-3.45v-15.6h-13.4v2.75H1129v-29.5Zm-33.65,3.2V1369h13.4v-8.65Zm13.4,20.35v-8.5h-13.4v8.5Zm16.75-20.35h-13.3V1369h13.3Zm0,20.35v-8.5h-13.3v8.5Z"/><path class="cls-1" d="M1168.25,1419.09v9.3h-3.15V1422h-35.4v6.4h-3v-9.3h6.95v-12.95h27.7v12.95Zm-6.45,26.6c0,1.85-.45,2.7-1.85,3.2s-3.9.5-7.7.45a8.57,8.57,0,0,0-1.1-2.75c3,.05,5.65.05,6.4.05s1-.25,1-1v-6.2c-7.3,1.45-14.85,3-20.45,4l-1.1-3c5.4-.8,13.6-2.3,21.55-3.75V1428h-22.2v5.3c0,4.85-.65,11.55-4.35,16.2a13.29,13.29,0,0,0-2.7-2c3.45-4.25,3.85-10,3.85-14.25v-8h28.6Zm-25-26.6h7.45v-6.9H1158v-3.35h-21.2Zm2.45,11.7a75.14,75.14,0,0,1,17.7,3l-.9,2.6c-4-1.5-11.7-2.9-17.7-3.35Zm18.75-16.3h-10.75v4.6H1158Z"/><path class="cls-1" d="M1162,1466.09a51.83,51.83,0,0,1-12,19.6,49.94,49.94,0,0,0,20.5,10.5,16.79,16.79,0,0,0-2.25,3,50.92,50.92,0,0,1-20.75-11.1c-5.65,5-12.55,8.6-21,11.3a15.53,15.53,0,0,0-2-3.05c8.35-2.45,15.1-5.9,20.6-10.6a57.05,57.05,0,0,1-12.2-19.65h-7.75v-3.25h44.75v3.25Zm-25.75,0a52.13,52.13,0,0,0,11.3,17.3,47.46,47.46,0,0,0,10.7-17.3Zm11.25-3.55a38.13,38.13,0,0,0-3.8-7.8l3.4-1a39,39,0,0,1,4,7.65Z"/></svg>