<svg id="Layer_1" data-name="Layer 1" xmlns="http://www.w3.org/2000/svg" viewBox="0 0 1242 2208"><defs><style>.cls-1{fill:#f6eabe;}.cls-2{fill:#999;}.cls-3,.cls-4{fill:none;}.cls-4{stroke:#000;stroke-linecap:round;stroke-miterlimit:10;stroke-width:50px;}</style></defs><rect class="cls-1" width="1242" height="2208"/><path d="M960.12,765.38V817H253.47v-51.6H578.21V513.68H328.1v-52.4H578.21V235H294.76V183.38H918.83V235H633V461.28H891.84v52.4H633v251.7Z"/><rect class="cls-2" x="1113" y="436" width="65" height="126" rx="12"/><path class="cls-1" d="M1132.7,465.82c1.25,1.6,4.9,6.7,5.7,8.05l-2,2.45c-.7-1.5-2.35-4.4-3.75-6.65V496h-3.15V471.57c-1.5,5.05-3.5,9.9-5.55,12.85a14.83,14.83,0,0,0-1.75-3.1c2.9-4,5.8-11.5,7.2-18h-6.2v-3.15h6.3v-9.65h3.15v9.65h5.45v3.15h-5.45Zm19.1.7a19.47,19.47,0,0,0,.45,2.65c-10.15,2.7-11.6,3.15-12.5,3.75a12.13,12.13,0,0,0-1.1-3.2c.7-.2,1.55-.5,1.55-2.2v-16.7h3.25v6.5h8.35v2.9h-8.35v8.3Zm2.35,5.5-2,3.75h12.65V496h-3.4v-1.75h-17v2h-3.3V475.77h7.9c.55-1.5,1.2-3.25,1.55-4.6Zm7.3,6.5h-17v5.05h17Zm0,13v-5.3h-17v5.3Zm2.25-22.4c1.25,0,1.5-.75,1.65-5.25a9.16,9.16,0,0,0,2.85,1.25c-.3,5.45-1.2,6.95-4.15,6.95h-5.85c-3.65,0-4.55-.95-4.55-4.45V450.87h3.25v6.5h10.2v2.9h-10.2v7.35c0,1.3.25,1.5,1.65,1.5Z"/><path class="cls-1" d="M1167.55,525.87v2.5H1123.4v-2.5h20.25v-3.2H1126.8v-2.3h16.85v-3H1128.2v-2.25h15.45v-3.2H1123.5v-2.5h20.15v-3.05H1128.8V504h14.85v-3.55h3.25V504h14.45v5.4h6.15v2.5h-6.15v5.45H1146.9v3h17.3v2.3h-17.3v3.2Zm-37.75,5h31.75v15.25h-3.25v-1.6H1133v1.7h-3.2Zm3.2,2.4v3.2h25.3v-3.2Zm25.3,8.85v-3.4H1133v3.4Zm-11.4-32.7h11.15v-3.05H1146.9Zm0,5.7h11.15v-3.2H1146.9Z"/><path d="M324.92,1837.69a98.85,98.85,0,0,1-6.18,13.56v39.59H314.9v-33.35a61.73,61.73,0,0,1-5.46,7,32.86,32.86,0,0,0-2.28-3.9c5.58-5.87,10.8-14.87,14-24Zm34.14,28c-2.1,1.26-4.44,2.64-6.84,3.78,2,6.06,5.82,11.82,10.38,14.52a11.2,11.2,0,0,0-2.64,2.94c-4.62-3.18-8.46-9.42-10.68-16a27.45,27.45,0,0,1-2.76,1.2c2.58,6.84,1.86,14-1,16.68a6.91,6.91,0,0,1-5.22,1.92c-1.08,0-2.4-.06-3.78-.18a9.31,9.31,0,0,0-1-3.42,38.26,38.26,0,0,0,4.14.24,3.66,3.66,0,0,0,3.12-1.14c1.56-1.38,2.22-5.16,1.44-9.36-5.16,4.92-13.08,9.36-19.8,11.7a15.8,15.8,0,0,0-2.34-2.82c7.62-2.28,16.62-7.14,21.3-12.24a35.76,35.76,0,0,0-1.5-3.48,63.52,63.52,0,0,1-17.22,9.9,16.14,16.14,0,0,0-2.22-2.64c5.94-1.8,13.74-5.76,17.88-9.54a16.39,16.39,0,0,0-2.94-3.18,58.44,58.44,0,0,1-13.56,7.26,11.26,11.26,0,0,0-2.22-2.58,52.48,52.48,0,0,0,15.06-7.56H326.48v-9.35c-1.14,1-2.28,2-3.54,2.94a9.54,9.54,0,0,0-2.52-2.59,44.59,44.59,0,0,0,13.86-16.25l3.84.72c-.6,1.2-1.32,2.34-2,3.54h11.1l.72-.18,2.34,1.68a52.13,52.13,0,0,1-4.8,6.84h13.08v12.65H340.94a15.29,15.29,0,0,1-1.2,1,21,21,0,0,1,5.64,6.84,111.93,111.93,0,0,0,10.92-6.42ZM334,1843.81a54.58,54.58,0,0,1-4.2,5.16h11.58a37.88,37.88,0,0,0,3.72-5.16Zm-3.9,14.69h10.5v-6.42h-10.5Zm24.72-6.42H344.18v6.42H354.8Z"/><path d="M422.36,1860.91v4.31H367.88v-4.31Z"/><path d="M447,1866.42c-2.52.79-5,1.56-7.44,2.28v17.58c0,2.28-.54,3.3-1.92,4s-3.48.78-6.9.72a15.61,15.61,0,0,0-1.26-3.66c2.4.06,4.56.06,5.16,0s1-.24,1-1V1869.9l-7.08,2.16-1.14-3.89c2.28-.55,5.1-1.39,8.22-2.29v-13.55H428.3v-3.78h7.38v-12.18h3.9v12.18h6.36v3.78h-6.36v12.42l6.9-2.11Zm27.24,19.2c3.72,0,4.32-1.8,4.86-9a11.1,11.1,0,0,0,3.78,1.62c-.66,8.34-2,11.16-8.58,11.16h-16c-6.84,0-8.94-1.56-8.94-8v-41.93h30.06v31.25H475.4v-4h-22v14.76c0,3.3.84,4.14,5.1,4.14Zm-20.82-42.17v19.49h9.06v-19.49Zm22,0h-9.24v19.49h9.24Z"/><path d="M502.1,1883c2.82-.6,5.82-1.2,8.76-1.86l.3,3.36c-7.56,1.68-15.42,3.36-21.3,4.62l-.9-3.66c2.7-.48,6.06-1.08,9.66-1.86v-18.72h-9.3v-3.48h9.3v-6.84H492.5l-.06-2a21.82,21.82,0,0,1-2.22,2,22.06,22.06,0,0,0-3.12-2.27A42.89,42.89,0,0,0,499.58,1836l3.66,1c-.36.78-.72,1.56-1.14,2.34a113.26,113.26,0,0,1,10,9.42l-3.06,2.1a81.85,81.85,0,0,0-8.58-8.64,53.05,53.05,0,0,1-6.6,9h14.64v3.42H502.1v6.84h8.1v3.48h-8.1Zm-8.7-14.76a51.46,51.46,0,0,1,2.52,11.46l-2.94.72a52.51,52.51,0,0,0-2.28-11.58Zm10.86,10.14a85.47,85.47,0,0,0,2.52-10.92l3.06.84c-1,3.6-2,8-2.94,10.86Zm34.68-36a33.62,33.62,0,0,1-8.58,12.66,38,38,0,0,0,13.26,6,18.14,18.14,0,0,0-2.34,3.36,38,38,0,0,1-13.68-7,46.24,46.24,0,0,1-15.06,7.8,12.74,12.74,0,0,0-2-3.18,41.68,41.68,0,0,0,14.34-7,36.12,36.12,0,0,1-5.4-6.71,38.59,38.59,0,0,1-6,5.7,20.34,20.34,0,0,0-2.94-2.4,35.22,35.22,0,0,0,12.3-15.3l3.6.9c-.6,1.44-1.32,2.76-2,4.14h11.52l.66-.18Zm-9.6,38.09h13v3.3h-13v7.2H525.5v-7.2H512.24v-3.3H525.5v-4.56H515.12v-3.18H525.5v-4.2H514.76v-3.12H525.5v-4h3.84v4H539.9v3.12H529.34v4.2h10.38v3.18H529.34Zm-7-35.81-.66,1a30.14,30.14,0,0,0,5.88,7.2,28.6,28.6,0,0,0,6.36-8.16Z"/><path d="M597.38,1842.85s0,1.74-.06,2.28c-1,29.51-1.8,39.65-4.26,42.71a6.28,6.28,0,0,1-4.92,2.46,75.54,75.54,0,0,1-9.48-.18,8.92,8.92,0,0,0-1.38-4.2c4.2.36,8,.42,9.42.42a2.91,2.91,0,0,0,2.64-1c2.1-2.22,3.06-12.18,3.84-38.57H576.32c-1.14,12.42-3.9,34.13-25.14,44.21a11.71,11.71,0,0,0-3-3.24,36.24,36.24,0,0,0,18.6-18.24c-3.42-3.42-9.36-8.4-13.86-12.11l2.46-2.64c4.14,3.3,9.54,7.56,13,10.73,2.52-6.84,3.12-13.73,3.54-18.71H550.76v-3.9Z"/><path d="M659.12,1885.44c0,2.76-.66,4.14-2.64,4.86s-5.76.66-11.22.66a15.26,15.26,0,0,0-1.5-4.08c4.5.18,8.64.12,9.9.06s1.5-.36,1.5-1.5v-34.86h-40V1891h-4v-44.27h16.5a99,99,0,0,0,3.9-10.5l4.86.84c-1.38,3.18-2.94,6.78-4.44,9.66h27.12Zm-32.1-7v4.32h-3.66v-23.93H646.7v19.61Zm0-16v12.42h16v-12.42Z"/><path d="M696,1844.71v10.86l.66-.78c7.32,3.54,16.74,8.93,21.54,12.53l-2.76,3.6c-4.2-3.42-12.48-8.46-19.44-12.12v32.1h-4.2v-46.19H668.54v-4h53v4Z"/><path d="M744,1837c-1,2.94-2.1,6.3-3.18,8.88H751v38.75h-16.8v4.8h-3.66v-43.55h6.66a64.68,64.68,0,0,0,2.58-9.72Zm3.3,12.47H734.18v13.08h13.14Zm0,31.56v-14.88H734.18v14.88Zm33.06-33.17c-1,27.53-1.8,36.71-4.2,39.59a5.6,5.6,0,0,1-4.56,2.28,74.94,74.94,0,0,1-8.82-.12,9.42,9.42,0,0,0-1.32-3.9c3.9.36,7.5.36,8.82.36s1.92-.12,2.52-.9c2-2.1,2.94-11.34,3.72-35.7H760.82a55.33,55.33,0,0,1-5.64,10.68,36.22,36.22,0,0,0-3.36-2.22c4.08-5.34,7.32-13.61,9.18-21.89l3.84.84c-.78,3-1.62,6-2.64,8.88h18.18Zm-12.78,27a106.51,106.51,0,0,0-9.3-13.92l3.06-1.79a102.47,102.47,0,0,1,9.6,13.61Z"/><path d="M837.5,1849c-2-1.44-5.1-3.42-8.4-5.4a37.87,37.87,0,0,1-9.48,7.8,96.48,96.48,0,0,0,22.92,5.75,17,17,0,0,0-2.28,3.42,91.63,91.63,0,0,1-24.54-7.08c-7.5,3.66-16.26,6-25.08,7.68a29.54,29.54,0,0,0-2.52-3.47,95.58,95.58,0,0,0,23.58-6.25,45.62,45.62,0,0,1-9.06-6.47,76,76,0,0,1-8.34,4.5,31.8,31.8,0,0,0-2.82-3c5.76-2.28,12.36-6.06,16.26-9.84l3.66,1.38a44.93,44.93,0,0,1-5.94,5,38.6,38.6,0,0,0,10.08,6.6,33.91,33.91,0,0,0,10.14-7.86c-1.8-1-3.48-1.86-5.1-2.64l2.64-2.4a136.15,136.15,0,0,1,17,9.54Zm-35,21.89h37v3.6H825.62v16.14h-4v-16.14H802.22a22.52,22.52,0,0,1-9.3,16.62,18.51,18.51,0,0,0-3-2.64c7.62-5.7,8.58-12.9,8.58-18.36v-6.83c11.34-.91,24.3-2.53,31.68-4.15l3.3,2.94a255.1,255.1,0,0,1-31,4.14v4.68Z"/><path d="M869.36,1880.7l.18,3.24c-7.26,1.8-15.06,3.6-20.64,4.92l-.9-3.6c2.64-.54,6.18-1.2,10-2v-17.76h-9.36v-3.54H858V1855h-6.18v-2.53a34.74,34.74,0,0,1-2.82,2.58,24.81,24.81,0,0,0-1.68-4A45.46,45.46,0,0,0,859.52,1836l3,1.38a27.07,27.07,0,0,1-1.32,2.64,74.84,74.84,0,0,1,10.26,8.4l-1.92,3.24a75.72,75.72,0,0,0-10-8.76,53.79,53.79,0,0,1-6.72,8.63h15.54V1855h-7v6.89h8.58v3.54h-8.58v17Zm-16.68-11.88a67.42,67.42,0,0,1,2.46,11.16l-2.82.78a59.7,59.7,0,0,0-2.22-11.22Zm10.68,10.38a107.22,107.22,0,0,0,2.82-11.1l2.94,1c-1.08,3.66-2.28,8.16-3.36,11ZM900.5,1857c-1.5,8.76-3.78,16.08-7.2,22.14,1.44,5.1,3,7.56,4.56,7.56,1.14,0,1.8-1.92,2.1-8.82a8.42,8.42,0,0,0,3,2c-.66,8.94-2,10.5-5.4,10.56-2.7,0-5-2.58-6.72-7.56a39.29,39.29,0,0,1-8.52,8.46,24.79,24.79,0,0,0-2.94-2.52,33.09,33.09,0,0,0,10.14-10.26c-1.56-6.42-2.64-15.36-3.3-26.58h-9.3v28.92l6.12-3.66a20.92,20.92,0,0,0,1.08,3.42c-7.5,4.56-10,6.24-11.28,7.2l-.78.78a17.33,17.33,0,0,0-2.22-3.54,6.26,6.26,0,0,0,3.24-5.1v-31.73h13c-.18-3.78-.36-7.68-.42-11.94h3.72c0,4.26.06,8.22.24,11.94h12.06V1852H889.7A173.66,173.66,0,0,0,892,1873.8a63.64,63.64,0,0,0,4.86-17.27Zm-2.4-10.07a99.28,99.28,0,0,0-6-8.28l2.76-1.44a89.7,89.7,0,0,1,6.12,8Z"/><path d="M913.88,1872c4.68-2,7.26-4.86,7.56-9.17a4,4,0,0,1-1.14.11c-2.34,0-4.26-1.32-4.26-4.07a4,4,0,0,1,4.32-4.08c3.18,0,4.86,2.58,4.86,6.66,0,6.41-4,11.21-10.08,13.43Z"/><path d="M162.5,1921c-2-1.44-5.1-3.42-8.4-5.4a37.87,37.87,0,0,1-9.48,7.8,96.48,96.48,0,0,0,22.92,5.75,17,17,0,0,0-2.28,3.42,91.63,91.63,0,0,1-24.54-7.08c-7.5,3.66-16.26,6-25.08,7.68a29.54,29.54,0,0,0-2.52-3.47,95.58,95.58,0,0,0,23.58-6.25,45.62,45.62,0,0,1-9.06-6.47,76,76,0,0,1-8.34,4.5,31.8,31.8,0,0,0-2.82-3c5.76-2.28,12.36-6.06,16.26-9.84l3.66,1.38a44.93,44.93,0,0,1-5.94,5,38.6,38.6,0,0,0,10.08,6.6,33.91,33.91,0,0,0,10.14-7.86c-1.8-1-3.48-1.86-5.1-2.64l2.64-2.4a136.15,136.15,0,0,1,17,9.54Zm-35,21.89h37v3.6H150.62v16.14h-4v-16.14H127.22a22.52,22.52,0,0,1-9.3,16.62,18.51,18.51,0,0,0-3-2.64c7.62-5.7,8.58-12.9,8.58-18.36v-6.83c11.34-.91,24.3-2.53,31.68-4.15l3.3,2.94a255.1,255.1,0,0,1-31,4.14v4.68Z"/><path d="M194.36,1952.7l.18,3.24c-7.26,1.8-15.06,3.6-20.64,4.92l-.9-3.6c2.64-.54,6.18-1.2,10-2v-17.76h-9.36v-3.54H183V1927h-6.18v-2.53a34.74,34.74,0,0,1-2.82,2.58,24.81,24.81,0,0,0-1.68-4A45.46,45.46,0,0,0,184.52,1908l3,1.38a27.07,27.07,0,0,1-1.32,2.64,74.84,74.84,0,0,1,10.26,8.4l-1.92,3.24a75.72,75.72,0,0,0-10-8.76,53.79,53.79,0,0,1-6.72,8.63h15.54V1927h-7v6.89h8.58v3.54h-8.58v17Zm-16.68-11.88a67.42,67.42,0,0,1,2.46,11.16l-2.82.78a59.7,59.7,0,0,0-2.22-11.22Zm10.68,10.38a107.22,107.22,0,0,0,2.82-11.1l2.94,1c-1.08,3.66-2.28,8.16-3.36,11ZM225.5,1929c-1.5,8.76-3.78,16.08-7.2,22.14,1.44,5.1,3,7.56,4.56,7.56,1.14,0,1.8-1.92,2.1-8.82a8.42,8.42,0,0,0,3,2c-.66,8.94-2,10.5-5.4,10.56-2.7,0-5-2.58-6.72-7.56a39.29,39.29,0,0,1-8.52,8.46,24.79,24.79,0,0,0-2.94-2.52,33.09,33.09,0,0,0,10.14-10.26c-1.56-6.42-2.64-15.36-3.3-26.58h-9.3v28.92l6.12-3.66a20.92,20.92,0,0,0,1.08,3.42c-7.5,4.56-10,6.24-11.28,7.2l-.78.78a17.33,17.33,0,0,0-2.22-3.54,6.26,6.26,0,0,0,3.24-5.1v-31.73h13c-.18-3.78-.36-7.68-.42-11.94h3.72c0,4.26.06,8.22.24,11.94h12.06V1924H214.7A173.66,173.66,0,0,0,217,1945.8a63.64,63.64,0,0,0,4.86-17.27Zm-2.4-10.07a99.28,99.28,0,0,0-6-8.28l2.76-1.44a89.7,89.7,0,0,1,6.12,8Z"/><path d="M262.46,1957.62a70.7,70.7,0,0,0,7.38.36c2.1.06,14.76,0,17.58-.06a16.36,16.36,0,0,0-1.44,3.84H269.72c-12.3,0-19.92-1.92-24.72-10.38a31.55,31.55,0,0,1-9.48,11.7,19.84,19.84,0,0,0-3.06-2.82c6.3-4.14,10.2-10.92,11.82-19.86l4,.6a55.92,55.92,0,0,1-1.5,6.06c2.34,5.64,6.3,8.52,11.7,9.84v-18.54H233.72v-3.6H286.4v3.6H262.46v7.08h20v3.6h-20Zm17.22-27.17h-39.6v-19.56h39.6Zm-4-16.44H244v5.16h31.68Zm0,8.1H244v5.27h31.68Z"/><path d="M346.22,1955.46H321.86v7.62H318v-7.62H294v-3.6h24v-4.8H300.62V1927.5H318v-4.43H302v-3.18h16V1915H299V1923h-3.84v-11.4h49.92V1923h-4V1915H321.86v4.86h16.32v3.18H321.86v4.43H340.1v19.56H321.86v4.8h24.36Zm-41.88-19.67H318v-5.29H304.34Zm13.62,8.27v-5.34H304.34v5.34Zm3.9-13.56v5.29H336.2v-5.29Zm14.34,8.22H321.86v5.34H336.2Z"/><path d="M370.16,1939.56c-.78-1.73-2.76-5.27-4.38-8v31.31h-3.54v-31.26c-2,7.2-5,14.34-7.86,18.72a21.28,21.28,0,0,0-2.16-3.78c3.72-5,7.56-14.69,9.42-22.85h-7.92v-3.78h8.52v-11.52h3.54v11.52h6.6v3.78h-6.6v3.24c1.5,1.92,5.76,8.21,6.72,9.77Zm22,18.12h14.82v3.06H379.28V1963h-3.6v-19a36.3,36.3,0,0,1-4,4,19.27,19.27,0,0,0-2.22-3,39.31,39.31,0,0,0,9.9-12.72h-5.28v-11.51H387.5v11.51h-7.08l2.4.78a47.31,47.31,0,0,1-2.52,4.56h8.34c-.42-1.26-1-2.58-1.44-3.72l3.36-1c.72,1.45,1.44,3.25,2,4.68H406v2.82H392.12v3.78h11.16v2.88H392.12V1951h11.16v2.88H392.12Zm-9.72-41.27H371.72v-3.18H382.4v-4.86h3.54v11.21H382.4Zm-5.22,13.08h7.14v-6h-7.14Zm11.34,11h-9.24v3.78h9.24Zm0,6.66h-9.24V1951h9.24Zm-9.24,10.56h9.24v-3.84h-9.24Zm25.38-25.38H391v-11.51h13.68Zm2.7-19.07v3.18H396.14v3h-3.6v-11h3.6v4.86Zm-5.94,10.31H394.1v6h7.32Z"/><path d="M429,1909c-1,2.94-2.1,6.3-3.18,8.88H436v38.75h-16.8v4.8h-3.66v-43.55h6.66a64.68,64.68,0,0,0,2.58-9.72Zm3.3,12.47H419.18v13.08h13.14Zm0,31.56v-14.88H419.18v14.88Zm33.06-33.17c-1,27.53-1.8,36.71-4.2,39.59a5.6,5.6,0,0,1-4.56,2.28,74.94,74.94,0,0,1-8.82-.12,9.42,9.42,0,0,0-1.32-3.9c3.9.36,7.5.36,8.82.36s1.92-.12,2.52-.9c2-2.1,2.94-11.34,3.72-35.7H445.82a55.33,55.33,0,0,1-5.64,10.68,36.22,36.22,0,0,0-3.36-2.22c4.08-5.34,7.32-13.61,9.18-21.89l3.84.84c-.78,3-1.62,6-2.64,8.88h18.18Zm-12.78,27a106.51,106.51,0,0,0-9.3-13.92l3.06-1.79a102.47,102.47,0,0,1,9.6,13.61Z"/><path d="M521.18,1937.17c-2.58,1.43-5.7,3-8.7,4.37,2.46,5.52,7.32,11.88,14.52,14.94a18.12,18.12,0,0,0-2.64,3.36c-7.5-3.66-12.54-11-15.06-16.86-1.2.54-2.4,1-3.48,1.38,4,7,3.12,13.86-1.14,16.62a9.52,9.52,0,0,1-6.12,1.74c-1.38,0-3.18-.06-5.1-.12a9.28,9.28,0,0,0-1.14-3.66,50.42,50.42,0,0,0,5.58.24,6.85,6.85,0,0,0,4.26-1c2.52-1.68,3.24-6,1.08-10.8-6.84,5.28-17.88,10.08-26.76,12.42a14.51,14.51,0,0,0-2.28-3.06c9.48-2.1,21.24-7,27.54-12.12a25.51,25.51,0,0,0-2.34-3c-5.82,3.9-14.88,7.32-21.9,9.06a15.75,15.75,0,0,0-2.34-2.94c7.38-1.44,16.62-4.68,22.08-8.16a31.09,31.09,0,0,0-3.66-2.88,95,95,0,0,1-15.42,5.64,14.31,14.31,0,0,0-2.28-2.76,83.52,83.52,0,0,0,17.76-5.94H479.78v-9.83c-1.2.83-2.4,1.55-3.72,2.33a14.34,14.34,0,0,0-2.64-2.75c8-4.32,14.16-10.32,17.34-15.24l4.26.84c-.84,1.2-1.68,2.28-2.7,3.48h13.56l.6-.24,2.76,1.8a40.15,40.15,0,0,1-4.8,6.48H520.7v13.13H499c-.72.48-1.5,1-2.28,1.44a28.71,28.71,0,0,1,7.32,6.78,101.21,101.21,0,0,0,13.92-7.13Zm-37.62-6.67H498v-6.83H483.56Zm5.88-14.87a59.64,59.64,0,0,1-5.28,4.86h15.66a38,38,0,0,0,3.84-4.86Zm27.36,8H501.62v6.83H516.8Z"/><path d="M547,1921.33a67.68,67.68,0,0,1-4.2,7.62v34h-3.66v-28.61a68.47,68.47,0,0,1-5.46,6.47,27,27,0,0,0-2.4-3.42,63.74,63.74,0,0,0,12.24-17.15Zm-1.14-11.7a59.62,59.62,0,0,1-11.7,13.68,18.49,18.49,0,0,0-2.22-3,46.65,46.65,0,0,0,10.26-11.94Zm39.3,14.28c-1.14,9.77-3,17.69-6.18,24.23,2.22,5,5.28,9.06,9.24,11.64a11.23,11.23,0,0,0-2.58,3,29.26,29.26,0,0,1-8.7-11,35.88,35.88,0,0,1-11.28,11.4,36.93,36.93,0,0,0-2.64-2.7,34.65,34.65,0,0,0,5-3.6c-7.92,1.08-16,2.16-22,2.82l-.54-3.42c2.94-.18,6.54-.54,10.5-1v-6.54h-8.46v-3.12H556v-5.45c-2.76.47-5.64.83-8.22,1.07a17.34,17.34,0,0,0-1.62-2.64,130.13,130.13,0,0,0,19.92-3.48l1.8,2.52a61.63,61.63,0,0,1-8.34,2v6h8.16v3.12h-8.16v6.18l8.82-1v2.58a31.94,31.94,0,0,0,6.84-8.82,79.87,79.87,0,0,1-4-15.89c-.72,1.38-1.44,2.63-2.22,3.84a15.82,15.82,0,0,0-2.16-2.76H547.16v-3.12h20v2c3.84-5.88,6.06-14.52,7.44-23.52l3.48.6c-.66,4-1.5,7.86-2.46,11.52h12.12v3.48Zm-17.58,1.67h-19.8v-13h3v9.78H556v-14h3.24v14h5.22v-9.78h3.06Zm7-1.67c-.36,1-.72,1.92-1.08,2.88a85.8,85.8,0,0,0,3.66,16.79c2.22-5.52,3.54-12,4.38-19.67Z"/><path d="M598.88,1944c4.68-2,7.26-4.86,7.56-9.17a4,4,0,0,1-1.14.11c-2.34,0-4.26-1.32-4.26-4.07a4,4,0,0,1,4.32-4.08c3.18,0,4.86,2.58,4.86,6.66,0,6.41-4,11.21-10.08,13.43Z"/><path d="M674.9,1910.83v52.07h-3.84V1960H628.94v2.94h-3.72v-52.07Zm-3.84,45.65v-42H628.94v42Zm-19.68-25.56c-.18,1.08-.36,2.1-.6,3.12,6.3,5.46,13.2,12.72,16.5,17.52l-2.88,2.4c-2.94-4.44-8.88-11-14.52-16.32-2.28,7.26-6.42,13.08-14.58,16.86a10.68,10.68,0,0,0-2.52-3.12c9.54-4.2,13.2-11.46,14.7-20.46H632.6v-3.66H648c.36-3.18.54-6.59.66-10.13h3.9c-.18,3.54-.36,6.9-.72,10.13H667.4v3.66Z"/><path d="M703,1954.44l8.76-1.62.3,4c-10.14,2-21,4-28.5,5.4l-.66-4.32c1.44-.24,3.18-.48,4.92-.84v-36.65h3.9v36l7.2-1.2v-46.79H703v18.54h8.76v3.84H703Zm27.84,2.58c2.58,0,3-2.16,3.3-10.8a13.32,13.32,0,0,0,3.84,1.86c-.48,9.6-1.62,12.84-6.84,12.84h-9.42c-5.34,0-6.84-1.62-6.84-7.74v-44.81h4.2v18.54h14.82v3.84H719.12v22.55c0,3.12.48,3.72,3.12,3.72Z"/><path d="M792.92,1957.32c0,2.76-.78,4-2.64,4.68s-5.46.72-11.1.66a12.92,12.92,0,0,0-1.38-3.84c4.32.18,8.4.12,9.6.06s1.56-.42,1.56-1.56v-12.78H772.22v17.94h-4v-17.94H752.78c-.9,6.72-2.88,13.56-7.56,18.78a11.58,11.58,0,0,0-3-2.64c6.6-7.44,7.26-18,7.26-26.46v-21.59h43.44Zm-24.66-16.56v-10.5H753.38v4c0,2.11-.06,4.26-.24,6.54Zm-14.88-24.35v10.13h14.88v-10.13Zm35.58,0H772.22v10.13H789Zm0,24.35v-10.5H772.22v10.5Z"/><path d="M831.86,1935.12c5.34,9.18,15.54,17.82,25.68,21.66a14.63,14.63,0,0,0-2.88,3.54c-8.46-3.72-16.86-10.74-22.8-18.78V1963h-4V1941.6a63.16,63.16,0,0,1-22.5,18.48,17.92,17.92,0,0,0-2.82-3.3,58.29,58.29,0,0,0,25.32-21.3v-14.75H804.56v-3.9h23.28v-8.4h4v8.4h24.06v3.9H831.86ZM819,1923a48.37,48.37,0,0,1-2.4,7.21,79.05,79.05,0,0,1,7,6.83l-2.76,2.71a66.48,66.48,0,0,0-5.88-6.07,32.44,32.44,0,0,1-7.74,9.6c-.66-.66-2.28-1.92-3.12-2.58,5.46-4.08,9.24-10.62,11-18.41Zm28.26,0a53.26,53.26,0,0,1-2.1,7.2,128,128,0,0,1,11,9.47l-2.82,2.76a100,100,0,0,0-9.72-8.93,28.54,28.54,0,0,1-5.46,7.49,22.47,22.47,0,0,0-3.36-2.22c4.44-3.72,7.26-9.6,8.58-16.43Z"/><path d="M882.92,1910.17a83.4,83.4,0,0,1-6.6,12.3v40.37h-4v-34.67a66.33,66.33,0,0,1-8.4,9.17,25.86,25.86,0,0,0-2.34-3.78A67.69,67.69,0,0,0,879.2,1909Zm15.72,20.16c2.16,16.25,6.24,27.41,13,28,1.68.12,2.76-3.48,3.42-10.5a13,13,0,0,0,3.3,2c-1.26,10.08-3.48,13.26-6.6,13.14-9.9-.72-14.58-13.38-16.92-32.21l-14.88,1.92-.6-3.79,15-1.85c-.54-5.53-1-11.52-1.26-17.82h4c.18,6.12.6,12,1.14,17.33l18.18-2.21.6,3.66Zm14.1-8.76a64.7,64.7,0,0,0-10-9.9l2.88-1.86a68.6,68.6,0,0,1,10.14,9.54Z"/><path d="M974.12,1940a100.84,100.84,0,0,1-11.7,8.58,36.22,36.22,0,0,0,15.3,8.76,24.16,24.16,0,0,0-2.64,3.48c-12.3-4.08-20.82-13.2-25.38-25.61h-.18a53.79,53.79,0,0,1-9.6,8V1957l14.88-4.5a18.38,18.38,0,0,0,.6,3.42c-16.62,5.4-18.66,6.12-20,7a14.6,14.6,0,0,0-1.74-3.66,3.9,3.9,0,0,0,2.16-3.78v-9.72a71.36,71.36,0,0,1-10.68,5.1,19.48,19.48,0,0,0-2.64-3.24,62.5,62.5,0,0,0,21.9-12.41H924.2v-3.54h23.7v-5.64H929.54v-3.36H947.9v-5.4H926.54v-3.48H947.9v-5.52h4v5.52h22v3.48h-22v5.4h19.32v3.36H951.92v5.64H975.8v3.54H953.54a38.86,38.86,0,0,0,6.6,11,80.68,80.68,0,0,0,10.74-8.46Z"/><path d="M1002.68,1935.48a51.27,51.27,0,0,1-4.08,6.48h33.06v21.12h-4.14v-3H1000v3.06h-4v-18a42.13,42.13,0,0,1-11,8.76,32.58,32.58,0,0,0-2.52-3.18,39.12,39.12,0,0,0,15.66-15.24h-9V1932H1000a63.23,63.23,0,0,0,2.82-7H983.42v-3.54h20.46c.54-2.21,1.08-4.55,1.56-6.83H989.78v-3.48h40.38v10.31h6.54V1925h-6.54v10.44Zm-2.64,10v11h27.48v-11Zm6.9-20.46a52.62,52.62,0,0,1-2.64,7h21.78v-7Zm2.7-10.37c-.48,2.28-1,4.62-1.62,6.83h18.06v-6.83Z"/><path d="M1096.76,1956.42v3.9h-53.4v-3.9h24.54v-19H1049v-4h18.9v-17.1h-21.42v-3.9h47.16v3.9H1072v17.1h19.56v4H1072v19Z"/><path d="M1115.18,1926.67a9.06,9.06,0,1,1-9.06,9A9.09,9.09,0,0,1,1115.18,1926.67Zm0,15.23a6.18,6.18,0,0,0,0-12.36,6.18,6.18,0,0,0,0,12.36Z"/><path d="M491.9,1997.17c4.44,10.31,12.24,20,20.76,24.71a23.11,23.11,0,0,0-3.06,3.36c-9-5.58-16.92-16.32-21.6-28.07h-1v22.43h14.28v4H487V2035H482.9v-11.4H468.68v-4H482.9v-22.43h-1.08c-4.74,11.75-12.66,22.43-21.3,28.25a24.18,24.18,0,0,0-2.88-3.18c8-4.92,15.66-14.76,20.16-25.07H459.14v-4H482.9v-12.72H487v12.72h24v4Z"/><path d="M566.9,2019.54a33.64,33.64,0,0,1-8.22,7.38c2.4,2.82,5.22,4.44,8.16,4.38,1.68-.06,2.16-1.5,2.46-5.94a10.31,10.31,0,0,0,3.12,1.62c-.6,6.3-2.1,7.92-5.76,8-4.26,0-8.16-2.22-11.28-6a74.41,74.41,0,0,1-13.68,5.82,36.46,36.46,0,0,0-2.1-3.24,65.61,65.61,0,0,0,13.86-5.34,34.94,34.94,0,0,1-3.84-8.82H535.16v4.38l11.16-1-.06,2.88-11.1,1.08v6.12c0,2.1-.48,3.06-2.16,3.54s-4.38.54-8.94.54a19.42,19.42,0,0,0-1.26-3.18c3.36.12,6.48.06,7.38,0s1.2-.24,1.2-1v-5.7c-4.74.48-9.12.9-12.72,1.2l-.42-3.3c3.54-.24,8.1-.54,13.14-1v-4.68h-12.9v-3.18h12.9v-4.44c-3.78.42-7.68.72-11.28.91a12,12,0,0,0-.9-2.71c8.16-.48,18.18-1.55,23.52-2.94l2.52,2.58c-2.82.66-6.36,1.26-10.08,1.74v4.86h13.68a52.67,52.67,0,0,1-1.2-8.94h3.84a57.48,57.48,0,0,0,1.2,8.94h19v3.18H553.58a31.91,31.91,0,0,0,3.12,6.9,27.09,27.09,0,0,0,6.72-5.94Zm4.62-15.17h-53v-3.25H542.9V1997H524.3v-3.06h18.6v-4H521.06v-3.18h12.66a30,30,0,0,0-3.48-5.16l3.42-1.26a24.4,24.4,0,0,1,4.32,6.24l-.42.18H552.2a54.7,54.7,0,0,0,3.6-6.6l4.14,1.2c-1.2,1.86-2.52,3.84-3.72,5.4h12.84V1990H546.92v4h18.9V1997h-18.9v4.13h24.6Zm-5.7,9a34,34,0,0,0-9.48-5.52l2.16-2.46a38.32,38.32,0,0,1,9.66,5.22Z"/><path d="M607.46,2029.62a70.7,70.7,0,0,0,7.38.36c2.1.06,14.76,0,17.58-.06a16.36,16.36,0,0,0-1.44,3.84H614.72c-12.3,0-19.92-1.92-24.72-10.38a31.55,31.55,0,0,1-9.48,11.7,19.84,19.84,0,0,0-3.06-2.82c6.3-4.14,10.2-10.92,11.82-19.86l4,.6a55.92,55.92,0,0,1-1.5,6.06c2.34,5.64,6.3,8.52,11.7,9.84v-18.54H578.72v-3.6H631.4v3.6H607.46v7.08h20v3.6h-20Zm17.22-27.17h-39.6v-19.56h39.6Zm-4-16.44H589v5.16h31.68Zm0,8.1H589v5.27h31.68Z"/><path d="M657.68,2007.48a51.27,51.27,0,0,1-4.08,6.48h33.06v21.12h-4.14v-3H655v3.06h-4v-18a42.13,42.13,0,0,1-11,8.76,32.58,32.58,0,0,0-2.52-3.18,39.12,39.12,0,0,0,15.66-15.24h-9V2004H655a63.23,63.23,0,0,0,2.82-7H638.42v-3.54h20.46c.54-2.21,1.08-4.55,1.56-6.83H644.78v-3.48h40.38v10.31h6.54V1997h-6.54v10.44Zm-2.64,10v11h27.48v-11Zm6.9-20.46a52.62,52.62,0,0,1-2.64,7h21.78v-7Zm2.7-10.37c-.48,2.28-1,4.62-1.62,6.83h18.06v-6.83Z"/><path d="M751.76,2028.42v3.9h-53.4v-3.9H722.9v-19H704v-4h18.9v-17.1H701.48v-3.9h47.16v3.9H727v17.1H746.6v4H727v19Z"/><path d="M770.18,1998.67a9.06,9.06,0,1,1-9.06,9A9.09,9.09,0,0,1,770.18,1998.67Zm0,15.23a6.18,6.18,0,1,0,0-12.36,6.18,6.18,0,1,0,0,12.36Z"/><line class="cls-3" x1="621" y1="350" x2="621" y2="350"/><rect class="cls-2" x="1114" y="1211" width="65" height="271" rx="12"/><path class="cls-1" d="M1159.05,1250.79a27.61,27.61,0,0,0,11.5,8.1,11.65,11.65,0,0,0-2.15,2.55,30.77,30.77,0,0,1-12.8-10.65h-15.95a34.39,34.39,0,0,1-13,11.3,11.43,11.43,0,0,0-2.15-2.55,30.39,30.39,0,0,0,11.6-8.75H1125v-2.85h10v-16.15h-7.7V1229h7.7v-5h3.3v5h18.55v-5h3.35v5h7.65v2.8h-7.65v16.15h9.8v2.85Zm-10,14.5h17.3v2.85H1128.8v-2.85h16.9v-5.6h-10.45v-2.8h10.45v-4.4h3.35v4.4h10.65v2.8h-10.65Zm-10.8-33.5v3.6h18.55v-3.6Zm0,9.8h18.55v-3.65h-18.55Zm0,6.35h18.55v-3.8h-18.55Z"/><path class="cls-1" d="M1143.25,1292.54s0,1.15,0,1.55c-.6,15.85-1.2,21.2-2.6,23a3.71,3.71,0,0,1-2.8,1.45,32.65,32.65,0,0,1-4.45,0,9.25,9.25,0,0,0-.85-3c1.75.15,3.2.15,3.9.15a1.42,1.42,0,0,0,1.45-.65c1-1.2,1.6-6,2.15-19.35h-6.8c-.55,10-2,18.25-6.45,23.65a9.53,9.53,0,0,0-2.55-2.35c5.45-6.45,5.9-17.85,6.1-31.55h-5.2v-3.1h20.1v3.1h-11.65c0,2.45-.1,4.85-.2,7.15Zm-7.9-10.45a33.47,33.47,0,0,0-4.25-7.15l2.9-1.15a31.92,31.92,0,0,1,4.4,7Zm23.85-7.45a15.26,15.26,0,0,1-.85,2.55c2.65,5.45,7.7,11.35,12.45,14a13,13,0,0,0-2.45,2.75c-4.25-2.7-8.5-8-11.4-13.3a32.61,32.61,0,0,1-11,13.6,12.79,12.79,0,0,0-2.35-2.65c5.85-3.6,10.35-10.2,12.5-17.85Zm-8.3,32.45a74,74,0,0,1,13.6,8.25l-2.25,2.9c-2.85-2.6-8.75-6.3-13.4-8.65Zm9.5-4.85a66.22,66.22,0,0,0-8.6-6.85l2.15-2.2a67.46,67.46,0,0,1,8.75,6.55Z"/><path class="cls-1" d="M1166,1327.19v29.3h-3.5v-2.55h-13.3v15.6h-3.45v-15.6h-13.4v2.75H1129v-29.5Zm-33.65,3.2V1339h13.4v-8.65Zm13.4,20.35v-8.5h-13.4v8.5Zm16.75-20.35h-13.3V1339h13.3Zm0,20.35v-8.5h-13.3v8.5Z"/><path class="cls-1" d="M1168.25,1389.09v9.3h-3.15V1392h-35.4v6.4h-3v-9.3h6.95v-12.95h27.7v12.95Zm-6.45,26.6c0,1.85-.45,2.7-1.85,3.2s-3.9.5-7.7.45a8.57,8.57,0,0,0-1.1-2.75c3,.05,5.65.05,6.4.05s1-.25,1-1v-6.2c-7.3,1.45-14.85,3-20.45,4l-1.1-3c5.4-.8,13.6-2.3,21.55-3.75V1398h-22.2v5.3c0,4.85-.65,11.55-4.35,16.2a13.29,13.29,0,0,0-2.7-2c3.45-4.25,3.85-10,3.85-14.25v-8h28.6Zm-25-26.6h7.45v-6.9H1158v-3.35h-21.2Zm2.45,11.7a75.14,75.14,0,0,1,17.7,3l-.9,2.6c-4-1.5-11.7-2.9-17.7-3.35Zm18.75-16.3h-10.75v4.6H1158Z"/><path class="cls-1" d="M1162,1436.09a51.83,51.83,0,0,1-12,19.6,49.94,49.94,0,0,0,20.5,10.5,16.79,16.79,0,0,0-2.25,3,50.92,50.92,0,0,1-20.75-11.1c-5.65,5-12.55,8.6-21,11.3a15.53,15.53,0,0,0-2-3.05c8.35-2.45,15.1-5.9,20.6-10.6a57.05,57.05,0,0,1-12.2-19.65h-7.75v-3.25h44.75v3.25Zm-25.75,0a52.13,52.13,0,0,0,11.3,17.3,47.46,47.46,0,0,0,10.7-17.3Zm11.25-3.55a38.13,38.13,0,0,0-3.8-7.8l3.4-1a39,39,0,0,1,4,7.65Z"/><line class="cls-4" x1="285" y1="1213.82" x2="935" y2="1213.82"/><line class="cls-4" x1="474.26" y1="1055.45" x2="745.74" y2="1055.45"/><line class="cls-4" x1="609.1" y1="1055.45" x2="382.85" y2="1562.23"/><line class="cls-4" x1="609.1" y1="1055.45" x2="837.15" y2="1562.23"/><path class="cls-4" d="M836.24,1562.86c-65.68,47.67-146,73.43-226.24,72.57"/><path class="cls-4" d="M383.76,1562.86c65.68,47.67,146,73.43,226.24,72.57"/></svg>