<svg id="Layer_1" data-name="Layer 1" xmlns="http://www.w3.org/2000/svg" viewBox="0 0 1242 2208"><defs><style>.cls-1{fill:#f6eabe;}.cls-2{fill:#999;}.cls-3{fill:none;stroke:#000;stroke-linecap:round;stroke-miterlimit:10;stroke-width:50px;}</style></defs><rect class="cls-1" width="1242" height="2208"/><rect class="cls-2" x="1113.23" y="443" width="65" height="126" rx="12"/><path d="M984.15,333.44H838.05V848H781.68V797.13H477.58v55.58H422V333.44H274.32V281H422V131.77h55.58V281h304.1V131.77h56.37V281h146.1Zm-202.47,0H477.58V512.09h304.1Zm0,411.29v-181H477.58v181Z"/><path d="M392.15,1739.69a98.85,98.85,0,0,1-6.18,13.56v39.59h-3.84v-33.35a61.73,61.73,0,0,1-5.46,7,32.86,32.86,0,0,0-2.28-3.9c5.58-5.87,10.8-14.87,14-24Zm34.14,28c-2.1,1.26-4.44,2.64-6.84,3.78,2,6.06,5.82,11.82,10.38,14.52a11.2,11.2,0,0,0-2.64,2.94c-4.62-3.18-8.46-9.42-10.68-16a27.45,27.45,0,0,1-2.76,1.2c2.58,6.84,1.86,14-1,16.68a6.91,6.91,0,0,1-5.22,1.92c-1.08,0-2.4-.06-3.78-.18a9.31,9.31,0,0,0-1-3.42,38.26,38.26,0,0,0,4.14.24,3.66,3.66,0,0,0,3.12-1.14c1.56-1.38,2.22-5.16,1.44-9.36-5.16,4.92-13.08,9.36-19.8,11.7a15.8,15.8,0,0,0-2.34-2.82c7.62-2.28,16.62-7.14,21.3-12.24a35.76,35.76,0,0,0-1.5-3.48,63.52,63.52,0,0,1-17.22,9.9,16.14,16.14,0,0,0-2.22-2.64c5.94-1.8,13.74-5.76,17.88-9.54a16.39,16.39,0,0,0-2.94-3.18,58.44,58.44,0,0,1-13.56,7.26,11.26,11.26,0,0,0-2.22-2.58,52.7,52.7,0,0,0,15.06-7.55H393.71v-9.36c-1.14,1-2.28,2-3.54,2.94a9.37,9.37,0,0,0-2.52-2.58,44.69,44.69,0,0,0,13.86-16.26l3.84.72c-.6,1.2-1.32,2.34-2,3.54h11.1l.72-.18,2.34,1.68a52.13,52.13,0,0,1-4.8,6.84h13.08v12.66H408.17c-.36.36-.78.66-1.2,1a21,21,0,0,1,5.64,6.84,110,110,0,0,0,10.92-6.42Zm-25.08-21.83A54.58,54.58,0,0,1,397,1751h11.58a37.88,37.88,0,0,0,3.72-5.16Zm-3.9,14.69h10.5v-6.42h-10.5Zm24.72-6.42H411.41v6.42H422Z"/><path d="M455.39,1751.63a67.9,67.9,0,0,1-7.2,12.24v28.85h-4v-24a41.57,41.57,0,0,1-7.26,6.41,17,17,0,0,0-2-3.48c7-5,12.3-12.23,16.14-20H436.25v-3.84h16.44a65.25,65.25,0,0,0,3.3-9.42l4.08,1c-.9,2.82-1.86,5.64-3,8.4h31.26v3.84Zm32.94,36.23v3.72H452.21v-3.72h16v-17.52H454.55v-3.71h13.68v-11.82h4v11.82H486v3.71h-13.8v17.52Z"/><path d="M544.49,1744.67v46.49h-4.26v-4.86H504.29v5.16h-4.08v-46.79Zm-4.26,37.61v-33.59H504.29v33.59Z"/><path d="M606.05,1749.05v27.77H602v-3.48H584.15v19.56H580v-19.56H562.25v3.78h-4v-28.07H580v-10.74h4.14v10.74Zm-26,20.33V1753H562.25v16.43Zm22,0V1753H584.15v16.43Z"/><path d="M669,1765.91v2.81h-53.4v-2.81h24.48v-3.42H620.21v-2.58h19.86v-3.3H621.65V1754h18.42v-3.54H615.65v-2.58h24.42v-3.3H622v-2.52h18.06v-3.78H644v3.78h18.3v5.82h6.54v2.58h-6.54v6.12H644v3.3h20.64v2.58H644v3.42Zm-53.4,22.43H669v2.88h-53.4Zm46.8-16.86v13.86h-40v-13.86Zm-36.18,5.7h14v-3.24h-14Zm0,5.76h14v-3.36h-14Zm32.16-9H643.85v3.24h14.52Zm0,5.64H643.85v3.36h14.52ZM644,1747.91h14.34v-3.3H644Zm0,6.12h14.34v-3.54H644Z"/><path d="M729.59,1762.91v4.31H675.11v-4.31Z"/><path d="M752.93,1772.92c-.9-1.92-3.24-5.88-5.1-8.88v28.8h-3.66v-29.16c-2,7.14-4.86,14-7.68,18.3a24,24,0,0,0-2.28-4c3.72-5,7.5-14.75,9.3-23h-8.1v-3.77h8.76v-12.84h3.66v12.84h7.26v3.77h-7.26v4.21c1.68,2.16,6.3,8.75,7.38,10.31ZM768.05,1785a50.05,50.05,0,0,1-13.74,8.22c-.54-.84-1.62-2-2.34-2.94,4.5-1.68,10-4.8,12.6-7.44Zm21.54-24.24H753.65v-3.23h36Zm-27.3-13.61h-7.8v-3.12h7.8v-4.8h3.6v4.8h11v-4.8h3.72v4.8h8v3.12h-8V1755h-18.3ZM756.77,1782v-17.87h29.64V1782Zm3.6-10.32h9.06v-4.55h-9.06Zm0,7.32h9.06v-4.62h-9.06Zm5.52-31.85v5h11v-5Zm16.8,20h-9.54v4.55h9.54Zm0,7.25h-9.54V1779h9.54Zm-4.32,8.46a88.84,88.84,0,0,1,11.64,7.74l-3.18,2.58a84.32,84.32,0,0,0-11-7.86Z"/><path d="M849,1765.91v2.81h-53.4v-2.81h24.48v-3.42H800.21v-2.58h19.86v-3.3H801.65V1754h18.42v-3.54H795.65v-2.58h24.42v-3.3H802v-2.52h18.06v-3.78H824v3.78h18.3v5.82h6.54v2.58h-6.54v6.12H824v3.3h20.64v2.58H824v3.42Zm-53.4,22.43H849v2.88h-53.4Zm46.8-16.86v13.86h-40v-13.86Zm-36.18,5.7h14v-3.24h-14Zm0,5.76h14v-3.36h-14Zm32.16-9H823.85v3.24h14.52Zm0,5.64H823.85v3.36h14.52ZM824,1747.91h14.34v-3.3H824Zm0,6.12h14.34v-3.54H824Z"/><path d="M861.11,1774c4.68-2,7.26-4.86,7.56-9.17a4,4,0,0,1-1.14.11c-2.34,0-4.26-1.31-4.26-4.07a4,4,0,0,1,4.32-4.08c3.18,0,4.86,2.58,4.86,6.66,0,6.41-4,11.21-10.08,13.43Z"/><path d="M395.39,1839.94l-7.62,2.34v17.82c0,2.34-.6,3.42-2,4.08s-3.84.78-7.8.72a17,17,0,0,0-1.32-3.66c2.76.06,5.34.06,6.06,0s1.14-.24,1.14-1.14v-16.56l-8.4,2.58-1.26-3.95c2.64-.73,6-1.63,9.66-2.71v-13.07h-8.7v-3.84h8.7v-12.12h4v12.12h7v3.84h-7v11.87c2.34-.59,4.74-1.38,7.08-2.09Zm10.68-6.3c-5.52,0-7.26-1.73-7.26-6.72v-16.31h3.9v7.32H427v3.54h-24.3V1827c0,2.29.66,3.13,3.3,3.13h16.14a49.43,49.43,0,0,0,6.42-.37c.18,1.08.36,2.58.54,3.49a38.74,38.74,0,0,1-6.72.35Zm-7.26,5.34h28v25.74h-4v-2.52H402.59V1865h-3.78Zm3.78,3.48v6.36h20.22v-6.36Zm20.22,16.38v-6.72H402.59v6.72Z"/><path d="M450.47,1840.78a58,58,0,0,1-12.06,19.14,26,26,0,0,0-3.66-2.46,47,47,0,0,0,11.64-17.75Zm13.62-7.91v31.79H460v-31.79H436.07v-4h52.5v4Zm19.2-14.22H441.41v-3.9h41.88Zm-5.16,20.93c4.5,5.58,9.24,13.14,11,18.24l-3.9,1.8c-1.74-5-6.3-12.78-10.8-18.48Z"/><path d="M544.49,1816.67v46.49h-4.26v-4.86H504.29v5.16h-4.08v-46.79Zm-4.26,37.61v-33.59H504.29v33.59Z"/><path d="M606.05,1821.05v27.77H602v-3.48H584.15v19.56H580v-19.56H562.25v3.78h-4v-28.07H580v-10.74h4.14v10.74Zm-26,20.33V1825H562.25v16.43Zm22,0V1825H584.15v16.43Z"/><path d="M622.19,1842.52c-.3,7.5-1.38,16.2-4.74,22.5a14.72,14.72,0,0,0-3.18-2.52c3.84-7.32,4.14-17.7,4.14-25.5v-20.69c7.14-.84,15.84-2.46,20.46-4.68l2.58,3.3c-4.86,2.16-12.42,3.6-19.14,4.44v5.94h16.26v17.21Zm.12-13.56v10h12.36v-10Zm47,5.46h-7.26v30.36h-3.9v-30.36h-9.84v2.16c0,8.82-1.14,20.82-8.52,28.5a17.13,17.13,0,0,0-3.12-2.7c6.9-7.2,7.56-17.64,7.56-25.8v-20.15c7.5-1.14,16.38-3.06,21.18-5.34l2.7,3.36c-5,2.22-12.84,3.84-19.8,4.92v11.21h21Z"/><path d="M706,1812.11c-.48.54-1,1.08-1.44,1.56,5.82,5.58,16.62,11.22,25.56,13.74a14.81,14.81,0,0,0-2.76,3.42c-8.52-2.76-18.78-8.64-25.14-14.76a66.58,66.58,0,0,1-9.9,7.62h19.56v3.48h-20.1V1824a78.2,78.2,0,0,1-14.22,7.14,12.92,12.92,0,0,0-2.7-3.35c10.38-3.66,21.54-10.26,27.6-17.64Zm14,20.27c-1.92,3.66-4.56,8-7,11.82h7.92V1865h-4v-2.34H688.73V1865h-3.9V1844.2h23.58c1.86-2.88,3.9-6.36,5.52-9.18H682.85v-3.53h33.42l.72-.24Zm-3.12,15.36H688.73v11.4h28.14Z"/><path d="M783.83,1824.11c-7.38,10.91-20.82,23.51-33.18,31,.6.42,1.26.84,1.92,1.32,3.78,2.4,8.64,2.82,15.36,2.82,7.14,0,16-.48,21.72-1a17.18,17.18,0,0,0-1.14,4.26c-4.5.3-15,.66-20.7.66-7.26,0-12.18-.66-16.14-3.24-2.4-1.5-4.26-3.48-5.58-3.48-1.92,0-4.74,3.42-7.68,7.38l-3-3.6c4-4.26,7.74-7.5,10.74-7.5a4.63,4.63,0,0,1,.9.12c11-6.36,23.22-17.39,30-26.63H738.53v-3.9H780l.84-.24Zm-20.1-2.16a70.73,70.73,0,0,0-6.3-10l3.48-1.8a70.87,70.87,0,0,1,6.42,9.78Z"/><path d="M817.25,1840.54l-7.74,2.52v22h-3.72v-20.76c-3.6,1.08-7.08,2.22-10.08,3.12l-1.08-3.84c3.06-.84,7-1.91,11.16-3.18v-13.79h-5.7a53.29,53.29,0,0,1-2.76,9.11,25.52,25.52,0,0,0-3.06-1.85c2.28-5,3.54-12.6,4.26-20l3.54.6c-.36,2.82-.78,5.64-1.26,8.34h5v-12.3h3.72v12.3h6.42v3.84h-6.42v12.72l7.26-2.23Zm31.68-20s0,1.56-.06,2.1c-1.44,27.29-2.7,36.59-5.22,39.47a5,5,0,0,1-4,2.22,53,53,0,0,1-6.84-.06,10.36,10.36,0,0,0-1.14-4c2.82.24,5.28.3,6.42.3a2.61,2.61,0,0,0,2.34-1c1.92-2.16,3.3-11.1,4.56-35.33h-3.36c-3.06,15.83-9.72,32-19.68,39.83a11.72,11.72,0,0,0-3.36-2.4c10-7.2,16.44-22.2,19.56-37.43h-5.34c-2.7,10.37-8.28,21.65-14.88,27.41a14.07,14.07,0,0,0-3.18-2.34c6.42-5,11.82-15.3,14.64-25.07h-5.52a48.55,48.55,0,0,1-7,11.52,29.73,29.73,0,0,0-3.06-2.29c5-5.39,8.58-14,10.62-23.15l3.66.72a87.43,87.43,0,0,1-2.76,9.48Z"/><path d="M867.41,1828.67a9.06,9.06,0,1,1-9.06,9A9.09,9.09,0,0,1,867.41,1828.67Zm0,15.23a6.18,6.18,0,1,0,0-12.36,6.18,6.18,0,1,0,0,12.36Z"/><path d="M499.13,1899.17c4.44,10.31,12.24,20,20.76,24.71a23.11,23.11,0,0,0-3.06,3.36c-9-5.58-16.92-16.32-21.6-28.07h-1v22.43h14.28v4H494.27V1937h-4.14v-11.4H475.91v-4h14.22v-22.43h-1.08c-4.74,11.75-12.66,22.43-21.3,28.25a24.18,24.18,0,0,0-2.88-3.18c8-4.92,15.66-14.76,20.16-25.07H466.37v-4h23.76v-12.72h4.14v12.72h24v4Z"/><path d="M574.13,1921.54a33.64,33.64,0,0,1-8.22,7.38c2.4,2.82,5.22,4.44,8.16,4.38,1.68-.06,2.16-1.5,2.46-5.94a10.31,10.31,0,0,0,3.12,1.62c-.6,6.3-2.1,7.92-5.76,8-4.26,0-8.16-2.22-11.28-6a74.41,74.41,0,0,1-13.68,5.82,36.46,36.46,0,0,0-2.1-3.24,65.61,65.61,0,0,0,13.86-5.34,34.94,34.94,0,0,1-3.84-8.82H542.39v4.38l11.16-1-.06,2.88-11.1,1.08v6.12c0,2.1-.48,3.06-2.16,3.54s-4.38.54-8.94.54a19.42,19.42,0,0,0-1.26-3.18c3.36.12,6.48.06,7.38,0s1.2-.24,1.2-1v-5.7c-4.74.48-9.12.9-12.72,1.2l-.42-3.3c3.54-.24,8.1-.54,13.14-1v-4.68h-12.9v-3.18h12.9v-4.44c-3.78.42-7.68.72-11.28.91a12,12,0,0,0-.9-2.71c8.16-.48,18.18-1.55,23.52-2.94l2.52,2.58c-2.82.66-6.36,1.26-10.08,1.74v4.86h13.68a52.67,52.67,0,0,1-1.2-8.94h3.84a57.48,57.48,0,0,0,1.2,8.94h19v3.18H560.81a31.91,31.91,0,0,0,3.12,6.9,27.09,27.09,0,0,0,6.72-5.94Zm4.62-15.17h-53v-3.24h24.36V1899h-18.6v-3.06h18.6v-4H528.29v-3.18H541a30,30,0,0,0-3.48-5.16l3.42-1.26a24.4,24.4,0,0,1,4.32,6.24l-.42.18h14.64a54.7,54.7,0,0,0,3.6-6.6l4.14,1.2c-1.2,1.86-2.52,3.84-3.72,5.4h12.84V1892H554.15v4h18.9V1899h-18.9v4.14h24.6Zm-5.7,9a34,34,0,0,0-9.48-5.52l2.16-2.46a38.32,38.32,0,0,1,9.66,5.22Z"/><path d="M614.69,1931.62a70.7,70.7,0,0,0,7.38.36c2.1.06,14.76,0,17.58-.06a16.36,16.36,0,0,0-1.44,3.84H622c-12.3,0-19.92-1.92-24.72-10.38a31.55,31.55,0,0,1-9.48,11.7,19.84,19.84,0,0,0-3.06-2.82c6.3-4.14,10.2-10.92,11.82-19.86l4,.6a55.92,55.92,0,0,1-1.5,6.06c2.34,5.64,6.3,8.52,11.7,9.84v-18.54H586v-3.6h52.68v3.6H614.69v7.08h20v3.6h-20Zm17.22-27.17h-39.6v-19.56h39.6Zm-4-16.44H596.21v5.16h31.68Zm0,8.1H596.21v5.27h31.68Z"/><path d="M671.27,1885.49H656.45v35.15h-4v-38.87h18.78Z"/><path d="M706,1884.11c-.48.54-1,1.08-1.44,1.56,5.82,5.58,16.62,11.22,25.56,13.74a14.81,14.81,0,0,0-2.76,3.42c-8.52-2.76-18.78-8.64-25.14-14.76a66.58,66.58,0,0,1-9.9,7.62h19.56v3.48h-20.1V1896a78.2,78.2,0,0,1-14.22,7.14,12.92,12.92,0,0,0-2.7-3.35c10.38-3.66,21.54-10.26,27.6-17.64Zm14,20.27c-1.92,3.66-4.56,8-7,11.82h7.92V1937h-4v-2.34H688.73V1937h-3.9V1916.2h23.58c1.86-2.88,3.9-6.36,5.52-9.18H682.85v-3.53h33.42l.72-.24Zm-3.12,15.36H688.73v11.4h28.14Z"/><path d="M733.19,1933.84H748v-35.15h4v38.87H733.19Z"/><path d="M777.41,1900.67a9.06,9.06,0,1,1-9.06,9A9.09,9.09,0,0,1,777.41,1900.67Zm0,15.23a6.18,6.18,0,1,0,0-12.36,6.18,6.18,0,1,0,0,12.36Z"/><path d="M182.27,1967.63a67.67,67.67,0,0,1-5.4,8.45v33.18h-3.78v-28.5a55.81,55.81,0,0,1-6,5.94,23.11,23.11,0,0,0-2.4-3.41,57.79,57.79,0,0,0,14-16.92Zm-1.44-11.88a59.41,59.41,0,0,1-13.32,14.1,20,20,0,0,0-2.22-2.82c4.44-3.3,9.42-8.4,11.94-12.66Zm33.42,30.42a34,34,0,0,1-11.58,13.91,56.54,56.54,0,0,0,16.08,5.52,13.63,13.63,0,0,0-2.46,3.48,58.51,58.51,0,0,1-17.16-6.72,63.26,63.26,0,0,1-17.7,6.78,10.39,10.39,0,0,0-2-3.42,62.23,62.23,0,0,0,16.26-5.64,41.7,41.7,0,0,1-7.2-6.54,42.74,42.74,0,0,1-4.86,4.08,25.12,25.12,0,0,0-2.76-2.94,46.2,46.2,0,0,0,5.28-4.08,34,34,0,0,1-2.82-4.38l3.3-1.2a19.06,19.06,0,0,0,2,3.18,40.7,40.7,0,0,0,5.82-7.86c-9,.6-10.5.91-11.64,1.26a33.39,33.39,0,0,0-1.2-3.77c1.62-.19,3.78-1.26,6.6-2.88,1.44-.78,4.38-2.58,7.8-4.87-9.36.49-10.92.73-11.82,1.09a28.56,28.56,0,0,0-1.26-3.84,10.79,10.79,0,0,0,3.9-2.16A67.38,67.38,0,0,0,197.51,1955l3.9,1.8a87.44,87.44,0,0,1-11.7,10.32l11.1-.36a87.91,87.91,0,0,0,8.22-6.6l3.66,2.1a135.45,135.45,0,0,1-22.44,15l20.1-1.08c-1.5-1.87-2.94-3.72-4.38-5.29l3.06-1.61a90.33,90.33,0,0,1,10,13l-3.24,1.92c-.78-1.38-2-3.12-3.24-5-5.58.35-10.14.66-13.68.83a52.18,52.18,0,0,1-3,5h15.18l.72-.18Zm-20.94,2.21a33.51,33.51,0,0,1-2.34,2.76,40,40,0,0,0,8.16,6.9,31.13,31.13,0,0,0,9.72-9.66Z"/><path d="M275.15,1966v42.77h-4.08v-3.54H233.33V2009h-4v-43h20.7v-11.58h4.08V1966Zm-41.82,4v13.5h16.74V1970Zm0,31.26h16.74v-13.86H233.33ZM254.15,1970v13.5h16.92V1970Zm16.92,31.26v-13.86H254.15v13.86Z"/><path d="M307.19,1976.63s0,1.37-.06,1.86c-.72,19-1.44,25.43-3.12,27.59a4.45,4.45,0,0,1-3.36,1.74,39.18,39.18,0,0,1-5.34,0,11.1,11.1,0,0,0-1-3.66c2.1.18,3.84.18,4.68.18a1.7,1.7,0,0,0,1.74-.78c1.2-1.44,1.92-7.2,2.58-23.22h-8.16c-.66,12-2.34,21.9-7.74,28.38a11.44,11.44,0,0,0-3.06-2.82c6.54-7.74,7.08-21.42,7.32-37.86h-6.24v-3.71h24.12V1968h-14c-.06,3-.12,5.83-.24,8.59Zm-9.48-12.54a40.17,40.17,0,0,0-5.1-8.58l3.48-1.38a38.31,38.31,0,0,1,5.28,8.4Zm28.62-8.94a18.31,18.31,0,0,1-1,3.06c3.18,6.54,9.24,13.62,14.94,16.74a15.63,15.63,0,0,0-2.94,3.3c-5.1-3.25-10.2-9.54-13.68-16-3.12,6.78-7.5,12.47-13.14,16.31a15.35,15.35,0,0,0-2.82-3.18c7-4.31,12.42-12.23,15-21.41Zm-10,38.93c5.58,2.64,12.78,6.9,16.32,9.9l-2.7,3.48c-3.42-3.12-10.5-7.56-16.08-10.38Zm11.4-5.82a79.47,79.47,0,0,0-10.32-8.22l2.58-2.63a80,80,0,0,1,10.5,7.85Z"/><path d="M399.05,1969.79H388v38.87h-4.26v-3.84h-23v4.2h-4.2v-39.23H345.41v-4h11.16v-11.28h4.2v11.28h23v-11.28H388v11.28h11Zm-15.3,0h-23v13.5h23Zm0,31.07v-13.68h-23v13.68Z"/><path d="M459,1980.58v3.55H433.85c-.18,1.67-.48,3.35-.78,4.85h25.08v3.54h-26.1c-2.82,8.4-9.24,13.56-25,16.26a13.2,13.2,0,0,0-2-3.54c14.16-2.1,20-6.12,22.74-12.72H407.21V1989h21.66a37.29,37.29,0,0,0,.84-4.85H405.83v-3.55h24.3v-5.45H411.29v-3.48h18.84v-5.16h-22v-3.66h12.78a40.93,40.93,0,0,0-4.8-7.26l3.48-1.44a32.67,32.67,0,0,1,5.28,7.68l-2.1,1H439a71.33,71.33,0,0,0,5.4-8.7l4,1.38a86.34,86.34,0,0,1-4.92,7.32h13v3.66H434.15v5.16h19.32v3.48H434.15v5.45Zm-24.66,12.9c8.34,3.24,19.08,8.52,24.6,12.3L457,2009.2c-5.28-3.9-16-9.36-24.48-12.84Z"/><path d="M513.83,1968.11c-7.38,10.91-20.82,23.51-33.18,31,.6.42,1.26.84,1.92,1.32,3.78,2.4,8.64,2.82,15.36,2.82,7.14,0,16-.48,21.72-1a17.18,17.18,0,0,0-1.14,4.26c-4.5.3-15,.66-20.7.66-7.26,0-12.18-.66-16.14-3.24-2.4-1.5-4.26-3.48-5.58-3.48-1.92,0-4.74,3.42-7.68,7.38l-3-3.6c4-4.26,7.74-7.5,10.74-7.5a4.63,4.63,0,0,1,.9.12c11-6.36,23.22-17.39,30-26.63H468.53v-3.9H510l.84-.24Zm-20.1-2.16a70.73,70.73,0,0,0-6.3-10l3.48-1.8a70.87,70.87,0,0,1,6.42,9.78Z"/><path d="M547.25,1984.54l-7.74,2.52v22h-3.72v-20.76c-3.6,1.08-7.08,2.22-10.08,3.12l-1.08-3.84c3.06-.84,7-1.91,11.16-3.18v-13.79h-5.7a53.29,53.29,0,0,1-2.76,9.11,25.52,25.52,0,0,0-3.06-1.85c2.28-5,3.54-12.6,4.26-20l3.54.6c-.36,2.82-.78,5.64-1.26,8.34h5v-12.3h3.72v12.3h6.42v3.84h-6.42v12.72l7.26-2.23Zm31.68-20s0,1.56-.06,2.1c-1.44,27.29-2.7,36.59-5.22,39.47a5,5,0,0,1-4,2.22,53,53,0,0,1-6.84-.06,10.36,10.36,0,0,0-1.14-4c2.82.24,5.28.3,6.42.3a2.61,2.61,0,0,0,2.34-1c1.92-2.16,3.3-11.1,4.56-35.33h-3.36c-3.06,15.83-9.72,32-19.68,39.83a11.72,11.72,0,0,0-3.36-2.4c10-7.2,16.44-22.2,19.56-37.43h-5.34c-2.7,10.37-8.28,21.65-14.88,27.41a14.07,14.07,0,0,0-3.18-2.34c6.42-5,11.82-15.3,14.64-25.07h-5.52a48.55,48.55,0,0,1-7,11.52,29.73,29.73,0,0,0-3.06-2.29c5-5.39,8.58-14,10.62-23.15l3.66.72a87.43,87.43,0,0,1-2.76,9.48Z"/><path d="M614.69,2003.62a70.7,70.7,0,0,0,7.38.36c2.1.06,14.76,0,17.58-.06a16.36,16.36,0,0,0-1.44,3.84H622c-12.3,0-19.92-1.92-24.72-10.38a31.55,31.55,0,0,1-9.48,11.7,19.84,19.84,0,0,0-3.06-2.82c6.3-4.14,10.2-10.92,11.82-19.86l4,.6a55.92,55.92,0,0,1-1.5,6.06c2.34,5.64,6.3,8.52,11.7,9.84v-18.54H586v-3.6h52.68v3.6H614.69v7.08h20v3.6h-20Zm17.22-27.17h-39.6v-19.56h39.6Zm-4-16.44H596.21v5.16h31.68Zm0,8.1H596.21v5.27h31.68Z"/><path d="M674.51,1954.55c-.06,2.1-.12,5.1-.42,8.64.9,7,4.56,32.51,25.74,42a12.63,12.63,0,0,0-2.88,3.36c-15.42-7.26-21.72-22.74-24.6-34-2.64,12.23-8.94,26.33-24.06,34.19a13.77,13.77,0,0,0-3.12-3.06c25-12.48,24.78-42.11,25-51.11Z"/><path d="M712.19,1986.52c-.3,7.5-1.38,16.2-4.74,22.5a14.72,14.72,0,0,0-3.18-2.52c3.84-7.32,4.14-17.7,4.14-25.5v-20.69c7.14-.84,15.84-2.46,20.46-4.68l2.58,3.3c-4.86,2.16-12.42,3.6-19.14,4.44v5.94h16.26v17.21Zm.12-13.56v10h12.36v-10Zm47,5.46h-7.26v30.36h-3.9v-30.36h-9.84v2.16c0,8.82-1.14,20.82-8.52,28.5a17.13,17.13,0,0,0-3.12-2.7c6.9-7.2,7.56-17.64,7.56-25.8v-20.15c7.5-1.14,16.38-3.06,21.18-5.34l2.7,3.36c-5,2.22-12.84,3.84-19.8,4.92v11.21h21Z"/><path d="M810.29,1991.38c-3.06,4.26-7.5,7.56-12.72,10.14a107,107,0,0,0,21.36,3.66,14.76,14.76,0,0,0-2.28,3.72,100,100,0,0,1-24.24-5.16,107.49,107.49,0,0,1-24.42,5.34,13.92,13.92,0,0,0-2.1-3.3,114.41,114.41,0,0,0,21.72-4,46.61,46.61,0,0,1-9.84-5.94,69.69,69.69,0,0,1-8.58,4.56,17.72,17.72,0,0,0-2.88-2.64,62.06,62.06,0,0,0,8.76-4.26,35.39,35.39,0,0,1-4.26-4.8l3.18-1.44a33.46,33.46,0,0,0,4,4.32,34,34,0,0,0,7.08-6.12c-2.4-.42-3.12-1.56-3.12-4.32v-6h3.72v6c0,1.26.42,1.45,3,1.45h9.24c1.92,0,2.34-.42,2.52-4.21a12,12,0,0,0,3.24,1.21c-.42,4.85-1.5,6-5.28,6H787.91l1.2.42a33.17,33.17,0,0,1-3.48,3.66H807l.78-.18ZM771,1978.54h-3.84v-10.25h11.16a24.47,24.47,0,0,0-3.72-6.24l3.06-1.26c-2.58.12-5.16.18-7.68.24a10.51,10.51,0,0,0-.84-3.06c14.64-.48,32.76-1.62,42.36-3.66l2.64,2.82c-9.18,1.92-23.34,3.06-36.3,3.66a22,22,0,0,1,4,6.48l-2.28,1H802a65.12,65.12,0,0,0,5.82-8.94l3.78,1.5a92.05,92.05,0,0,1-5.52,7.44h11.16v10.55h-3.9v-7.31H789.29a37.91,37.91,0,0,1,8.46,4.85l-2.1,2.41a44,44,0,0,0-8.94-5.29l1.8-2H771Zm-1.86,5.59a16.21,16.21,0,0,0,6.6-9.06l3.18,1.26c-1.2,3.77-3.3,7.73-6.9,10Zm12.84,8.75c-.42.3-.84.66-1.26,1a50.5,50.5,0,0,0,12.06,6.18,35.65,35.65,0,0,0,11.28-7.14Zm8.88-24.77a21.15,21.15,0,0,0-3.24-7l3.24-1.14a19.74,19.74,0,0,1,3.48,6.78Zm15.6,6.47a49.79,49.79,0,0,1,9.42,9.3l-2.94,2.16a52.61,52.61,0,0,0-9.24-9.54Z"/><path d="M856,1956.11c-.48.54-1,1.08-1.44,1.56,5.82,5.58,16.62,11.22,25.56,13.74a14.81,14.81,0,0,0-2.76,3.42c-8.52-2.76-18.78-8.64-25.14-14.76a66.58,66.58,0,0,1-9.9,7.62h19.56v3.48h-20.1V1968a78.2,78.2,0,0,1-14.22,7.14,12.92,12.92,0,0,0-2.7-3.35c10.38-3.66,21.54-10.26,27.6-17.64Zm14,20.27c-1.92,3.66-4.56,8-7,11.82h7.92V2009h-4v-2.34H838.73V2009h-3.9V1988.2h23.58c1.86-2.88,3.9-6.36,5.52-9.18H832.85v-3.53h33.42l.72-.24Zm-3.12,15.36H838.73v11.4h28.14Z"/><path d="M901.25,1955c-1,2.94-2.1,6.3-3.18,8.88h10.14v38.75h-16.8v4.8h-3.66v-43.55h6.66a64.68,64.68,0,0,0,2.58-9.72Zm3.3,12.47H891.41v13.08h13.14Zm0,31.56v-14.88H891.41v14.88Zm33.06-33.17c-1,27.53-1.8,36.71-4.2,39.59a5.6,5.6,0,0,1-4.56,2.28,74.94,74.94,0,0,1-8.82-.12,9.42,9.42,0,0,0-1.32-3.9c3.9.36,7.5.36,8.82.36s1.92-.12,2.52-.9c2-2.1,2.94-11.34,3.72-35.7H918.05a55.33,55.33,0,0,1-5.64,10.68,36.22,36.22,0,0,0-3.36-2.22c4.08-5.33,7.32-13.61,9.18-21.89l3.84.84c-.78,3-1.62,6-2.64,8.88h18.18Zm-12.78,27a106.51,106.51,0,0,0-9.3-13.92l3.06-1.79a102.47,102.47,0,0,1,9.6,13.61Z"/><path d="M977.57,1990.9c5.46,5.82,14.28,11.22,22.08,13.8a13.83,13.83,0,0,0-2.76,3.42,64.1,64.1,0,0,1-22.8-15.84V2009h-4v-16.5c-5.76,6.54-14.64,12.36-22.32,15.54a13.25,13.25,0,0,0-2.76-3.3,59.47,59.47,0,0,0,21.66-13.8h-15v-21.65h18.42v-5.34H946.43v-3.78h23.64v-5.7h4v5.7h24.3v3.78h-24.3v5.34h19.44v21.65Zm-22-12.36h14.52v-6H955.55Zm0,9.24h14.52v-6.18H955.55Zm18.54-15.29v6h15.42v-6Zm15.42,9.11H974.09v6.18h15.42Z"/><path d="M1040.33,1962.23v9h15.18v37.31h-4V2005h-38.28v3.78h-3.9v-37.55h14.58v-9h-17.82v-3.84h52.2v3.84Zm11.16,39v-10.8h-9.18c-4.62,0-5.82-1.08-5.82-5.52v-10h-9.06c-.3,6.35-2.52,13.37-11.58,17.93a12.32,12.32,0,0,0-2.34-2.94c8.16-4,10-9.65,10.32-15h-10.62v26.33Zm-15-39h-9v9h9Zm3.84,12.72v10c0,1.5.3,1.74,2.4,1.74h7.56a5.89,5.89,0,0,0,1.2-.06V1975Z"/><path d="M1071.11,1990c4.68-2,7.26-4.86,7.56-9.17a4,4,0,0,1-1.14.11c-2.34,0-4.26-1.31-4.26-4.07a4,4,0,0,1,4.32-4.08c3.18,0,4.86,2.58,4.86,6.66,0,6.41-4,11.21-10.08,13.43Z"/><path d="M404.93,2056.06s-.06,1.32-.12,1.86c-1.08,13.56-2.1,18.84-4.08,20.82-1.26,1.32-2.46,1.68-4.56,1.8a90.37,90.37,0,0,1-9.48-.18,8,8,0,0,0-1.44-4c4,.36,8,.36,9.48.36s2-.06,2.58-.6c1.5-1.2,2.4-5.7,3.3-16.32h-22.8c1.14-4.56,2.46-11.63,3.24-17.09h19.68v-10.08h-22v-3.78h25.92v17.58h-20.1c-.6,3.3-1.2,6.72-1.86,9.65Zm18.36-29.15V2081h-4v-54.11Z"/><path d="M485.51,2034.23v33.29h-4.08v-3.18H464.15v16.5H460v-16.5h-16.8v3.54h-4v-33.65H460v-7.92h4.14v7.92Zm-42.3,3.84v9.18H460v-9.18Zm16.8,22.49V2051h-16.8v9.6Zm4.14-22.49v9.18h17.28v-9.18Zm17.28,22.49V2051H464.15v9.6Z"/><path d="M545.63,2056.13v24.77h-4.32v-3.48H498.89v-21.29h4.32v17.39H520v-21.3H501.47v-20.33h4.14v16.44H520v-22h4.32v22H539v-16.5h4.32v20.39h-19v21.3h17v-17.39Z"/><path d="M609.05,2041.79H598v38.87h-4.26v-3.84h-23v4.2h-4.2v-39.23H555.41v-4h11.16v-11.28h4.2v11.28h23v-11.28H598v11.28h11Zm-15.3,0h-23v13.5h23Zm0,31.07v-13.68h-23v13.68Z"/><path d="M629.27,2043.23h9.84V2047h-9.84v10.56h8.34v21.36h-3.78v-2.28h-13v3.66h-3.66v-22.74h8V2047H614.93v-3.77h10.32v-11.46h-9.36V2028H638v3.78h-8.7Zm4.56,17.93h-13V2073h13Zm35.7-19.67h-4.86v39.29h-4v-3.18H647.93V2081h-4v-39.53h-5.76v-3.84H644v-11.16h4v11.16h12.72v-11.16h4v11.16h4.86Zm-8.88,0H647.93v13.85h12.72Zm0,32.33v-14.69H647.93v14.69Z"/><path d="M723.83,2040.11c-7.38,10.91-20.82,23.51-33.18,31,.6.42,1.26.84,1.92,1.32,3.78,2.4,8.64,2.82,15.36,2.82,7.14,0,16-.48,21.72-1a17.18,17.18,0,0,0-1.14,4.26c-4.5.3-15,.66-20.7.66-7.26,0-12.18-.66-16.14-3.24-2.4-1.5-4.26-3.48-5.58-3.48-1.92,0-4.74,3.42-7.68,7.38l-3-3.6c4-4.26,7.74-7.5,10.74-7.5a4.63,4.63,0,0,1,.9.12c11-6.36,23.22-17.39,30-26.63H678.53v-3.9H720l.84-.24Zm-20.1-2.16a70.73,70.73,0,0,0-6.3-10l3.48-1.8a70.87,70.87,0,0,1,6.42,9.78Z"/><path d="M761.27,2029.49H746.45v35.15h-4v-38.87h18.78Z"/><path d="M819.05,2041.79H808v38.87h-4.26v-3.84h-23v4.2h-4.2v-39.23H765.41v-4h11.16v-11.28h4.2v11.28h23v-11.28H808v11.28h11Zm-15.3,0h-23v13.5h23Zm0,31.07v-13.68h-23v13.68Z"/><path d="M823.19,2077.84H838v-35.15h4v38.87H823.19Z"/><path d="M867.41,2044.67a9.06,9.06,0,1,1-9.06,9A9.09,9.09,0,0,1,867.41,2044.67Zm0,15.23a6.18,6.18,0,1,0,0-12.36,6.18,6.18,0,1,0,0,12.36Z"/><rect class="cls-2" x="1113.23" y="1139" width="65" height="321" rx="12"/><path class="cls-1" d="M1157.28,1177.79a27.61,27.61,0,0,0,11.5,8.1,11.65,11.65,0,0,0-2.15,2.55,30.77,30.77,0,0,1-12.8-10.65h-15.95a34.39,34.39,0,0,1-13,11.3,11.43,11.43,0,0,0-2.15-2.55,30.39,30.39,0,0,0,11.6-8.75h-11.1v-2.85h10v-16.15h-7.7V1156h7.7v-5h3.3v5H1155v-5h3.35v5H1166v2.8h-7.65v16.15h9.8v2.85Zm-10,14.5h17.3v2.85H1127v-2.85h16.9v-5.6h-10.45v-2.8h10.45v-4.4h3.35v4.4h10.65v2.8h-10.65Zm-10.8-33.5v3.6H1155v-3.6Zm0,9.8H1155v-3.65h-18.55Zm0,6.35H1155v-3.8h-18.55Z"/><path class="cls-1" d="M1141.48,1219.54s0,1.15,0,1.55c-.6,15.85-1.2,21.2-2.6,23a3.71,3.71,0,0,1-2.8,1.45,32.65,32.65,0,0,1-4.45,0,9.25,9.25,0,0,0-.85-3c1.75.15,3.2.15,3.9.15a1.42,1.42,0,0,0,1.45-.65c1-1.2,1.6-6,2.15-19.35h-6.8c-.55,10-2,18.25-6.45,23.65a9.53,9.53,0,0,0-2.55-2.35c5.45-6.45,5.9-17.85,6.1-31.55h-5.2v-3.1h20.1v3.1h-11.65c0,2.45-.1,4.85-.2,7.15Zm-7.9-10.45a33.47,33.47,0,0,0-4.25-7.15l2.9-1.15a31.92,31.92,0,0,1,4.4,7Zm23.85-7.45a15.26,15.26,0,0,1-.85,2.55c2.65,5.45,7.7,11.35,12.45,14a13,13,0,0,0-2.45,2.75c-4.25-2.7-8.5-8-11.4-13.3a32.61,32.61,0,0,1-11,13.6,12.79,12.79,0,0,0-2.35-2.65c5.85-3.6,10.35-10.2,12.5-17.85Zm-8.3,32.45a74,74,0,0,1,13.6,8.25l-2.25,2.9c-2.85-2.6-8.75-6.3-13.4-8.65Zm9.5-4.85a66.22,66.22,0,0,0-8.6-6.85l2.15-2.2a67.46,67.46,0,0,1,8.75,6.55Z"/><path class="cls-1" d="M1137.38,1288.64v7.9h-3.15v-7.9h-11.4v-3h11.4v-3.75h-9.3v-16.75h22v16.75h-9.6v3.75h11.3v3Zm-2.75-26.25h-10.1v-9.85h10.1Zm-2.6-7.45h-4.9v5h4.9Zm-4.25,17.3h6.6v-4.45h-6.6Zm0,7h6.6v-4.5h-6.6Zm19.65-16.85h-10.3v-9.85h10.3Zm-3.35,5.4h-6.85v4.45h6.85Zm0,7h-6.85v4.5h6.85Zm.7-19.8h-5.1v5h5.1Zm22,16a50.63,50.63,0,0,1-7.2,13.95c1.35,4.9,3,7.85,5.1,8,1.1,0,1.85-2.75,2.2-7.8a12.91,12.91,0,0,0,2.55,1.75c-1,7.7-2.75,10-4.7,9.9-3.35-.15-5.8-3.35-7.6-8.75a35.7,35.7,0,0,1-10,8.15,10.74,10.74,0,0,0-2.4-2.35,33.46,33.46,0,0,0,11.4-9.3,107.54,107.54,0,0,1-2.45-16l-5.6.7-.45-3,5.75-.7c-.35-4.4-.55-9.1-.75-14h3.15c.15,4.75.35,9.35.7,13.6l11.9-1.45.4,3-12,1.5a124,124,0,0,0,1.85,13,46.84,46.84,0,0,0,5.6-11.6Zm-1.75-9.15a32.82,32.82,0,0,0-6-8.45l2.5-1.4a36.73,36.73,0,0,1,6.1,8.25Z"/><path class="cls-1" d="M1166.38,1303.29v43.35h-3.3v-2.35h-34.9v2.35H1125v-43.35Zm-3.3,38v-34.9h-34.9v34.9Zm-17.2-7.9c-5.25,1.05-10.65,2.15-14.75,3l-.55-2.55c3.9-.65,9.5-1.7,15.2-2.75Zm12.3-14.55a38.63,38.63,0,0,1-5.6,12.4c1.15,2.9,2.6,4.75,4.4,5,.75.1,1.3-2,1.6-5.25a9.83,9.83,0,0,0,2.2,1.45c-.65,5.35-2.15,7.3-4.65,6.45-2.3-.45-4.1-2.3-5.5-5.15a31.26,31.26,0,0,1-6.85,6,15.66,15.66,0,0,0-2-2.1,26.23,26.23,0,0,0,7.7-6.75,70.89,70.89,0,0,1-2.8-15.1h-15.6v-2.55h15.35c-.15-1.8-.3-3.65-.4-5.55h2.9c.1,1.85.2,3.75.35,5.55h11.15v2.55h-11a73.53,73.53,0,0,0,2,12.2,35.88,35.88,0,0,0,4-9.7Zm-14.15.3v9.7h-11.1v-9.7Zm-2.5,2.15h-6.2v5.35h6.2Zm15.9-8.85a22.72,22.72,0,0,0-5.5-3.55l1.6-1.65a20.21,20.21,0,0,1,5.5,3.4Z"/><path class="cls-1" d="M1136.58,1364.44v32.1h-3.3v-32.1h-2.75a49.68,49.68,0,0,1-5.4,9.75,22.6,22.6,0,0,0-2.9-2c4-5.1,7.25-13.15,9.15-21.25l3.45.7a92.54,92.54,0,0,1-3,9.55h13.9v3.25Zm31.9,0h-7.75V1392c0,2.25-.5,3.3-2,3.85s-4.3.65-8.15.65a14.17,14.17,0,0,0-1.2-3.55c3.2.1,6.1.1,7,.1s1.1-.3,1.1-1v-27.55h-7.7a47.66,47.66,0,0,1-5.25,9.7,30.88,30.88,0,0,0-2.8-2c4-5.1,7-13.05,8.85-21.2l3.3.65a93.23,93.23,0,0,1-2.85,9.6h17.55Z"/><path class="cls-1" d="M1167.78,1426.29v2.5h-44.15v-2.5h20.25v-3.2H1127v-2.3h16.85v-3h-15.45v-2.25h15.45v-3.2h-20.15v-2.5h20.15v-3H1129v-2.35h14.85v-3.55h3.25v3.55h14.45v5.4h6.15v2.5h-6.15v5.45h-14.45v3h17.3v2.3h-17.3v3.2Zm-37.75,5h31.75v15.25h-3.25v-1.6h-25.3v1.7H1130Zm3.2,2.4v3.2h25.3v-3.2Zm25.3,8.85v-3.4h-25.3v3.4Zm-11.4-32.7h11.15v-3h-11.15Zm0,5.7h11.15v-3.2h-11.15Z"/><path class="cls-1" d="M1132.93,471.82c1.25,1.6,4.9,6.7,5.7,8.05l-2,2.45c-.7-1.5-2.35-4.4-3.75-6.65V502h-3.15V477.57c-1.5,5.05-3.5,9.9-5.55,12.85a14.83,14.83,0,0,0-1.75-3.1c2.9-4,5.8-11.5,7.2-18h-6.2v-3.15h6.3v-9.65h3.15v9.65h5.45v3.15h-5.45Zm19.1.7a19.47,19.47,0,0,0,.45,2.65c-10.15,2.7-11.6,3.15-12.5,3.75a12.13,12.13,0,0,0-1.1-3.2c.7-.2,1.55-.5,1.55-2.2v-16.7h3.25v6.5H1152v2.9h-8.35v8.3Zm2.35,5.5-2,3.75h12.65V502h-3.4v-1.75h-17v2h-3.3V481.77h7.9c.55-1.5,1.2-3.25,1.55-4.6Zm7.3,6.5h-17v5.05h17Zm0,13v-5.3h-17v5.3Zm2.25-22.4c1.25,0,1.5-.75,1.65-5.25a9.16,9.16,0,0,0,2.85,1.25c-.3,5.45-1.2,6.95-4.15,6.95h-5.85c-3.65,0-4.55-.95-4.55-4.45V456.87h3.25v6.5h10.2v2.9h-10.2v7.35c0,1.3.25,1.5,1.65,1.5Z"/><path class="cls-1" d="M1167.78,531.87v2.5h-44.15v-2.5h20.25v-3.2H1127v-2.3h16.85v-3h-15.45v-2.25h15.45v-3.2h-20.15v-2.5h20.15v-3H1129V510h14.85v-3.55h3.25V510h14.45v5.4h6.15v2.5h-6.15v5.45h-14.45v3h17.3v2.3h-17.3v3.2Zm-37.75,5h31.75v15.25h-3.25v-1.6h-25.3v1.7H1130Zm3.2,2.4v3.2h25.3v-3.2Zm25.3,8.85v-3.4h-25.3v3.4Zm-11.4-32.7h11.15v-3h-11.15Zm0,5.7h11.15v-3.2h-11.15Z"/><path d="M621.53,1434.73c-14.35,0-28.75-.07-43-2l6.78.91a119.2,119.2,0,0,1-29.95-7.8l6.09,2.57a128.37,128.37,0,0,1-27.66-16.7l5.16,4A191.5,191.5,0,0,1,504.84,1381l4,5.16c-19.72-25.6-34.22-54.67-48.41-83.56q-26.18-53.3-50.4-107.54-13.61-30.43-26.56-61.16L386,1140q-3.24-7.68-6.44-15.37a24.57,24.57,0,0,0-21.2-18.27,19.34,19.34,0,0,0-10.17.46c-6.17,2-12.12,5.82-15.24,11.72l-2.57,6.09a25.78,25.78,0,0,0,0,13.56q20.23,48.63,41.88,96.67,20.5,45.33,42.4,90c12,24.51,24.08,49.13,39.25,71.87a279.81,279.81,0,0,0,28,35.82,198.08,198.08,0,0,0,34.46,29.16,129.34,129.34,0,0,0,44.16,19.12c16.34,3.57,33.18,4.61,49.86,4.8,3.71,0,7.42,0,11.14,0a26.29,26.29,0,0,0,18-7.47,28.38,28.38,0,0,0,7.47-18c-.3-6.59-2.46-13.43-7.47-18s-11.12-7.47-18-7.47Z"/><path d="M621,1156.51c-14.85.12-29.69.6-44.51,1.57-16.82,1.1-33.54,3-50.23,5.27a441.18,441.18,0,0,0-84.33,19.8,404.61,404.61,0,0,0-50.76,21.58A24.54,24.54,0,0,0,379,1230.14a18.84,18.84,0,0,0,3,9.48l4,5.16a25.48,25.48,0,0,0,11.26,6.56l6.77.91a25.27,25.27,0,0,0,12.87-3.48q11.16-5.68,22.69-10.56l-6.09,2.57a405.54,405.54,0,0,1,83.81-24.62q12.31-2.28,24.72-3.93l-6.78.91a648.3,648.3,0,0,1,66.61-5.26q9.55-.3,19.13-.37a28.3,28.3,0,0,0,18-7.47,19,19,0,0,0,5.27-8.2,19.22,19.22,0,0,0,2.2-9.83l-.91-6.78A25.45,25.45,0,0,0,639,1164c-5-4.56-11.14-7.52-18-7.47Z"/><path d="M620.47,1485.73c7.57,0,15.14,0,22.71-.32a274.69,274.69,0,0,0,28.18-2.71,126.12,126.12,0,0,0,20.51-4.58,130,130,0,0,0,25.4-11.14,154.66,154.66,0,0,0,16.68-11.2,222,222,0,0,0,19.39-16.3c10.94-10.57,20.5-22.55,29.35-34.9,15.44-21.58,27.64-45.25,39.37-69q22-44.47,42.6-89.6,21.9-47.92,42.23-96.54,2.36-5.61,4.7-11.23a19.34,19.34,0,0,0,.45-10.17,19,19,0,0,0-3-9.48,28.49,28.49,0,0,0-15.24-11.72c-6.53-1.49-13.86-1.17-19.65,2.57l-5.16,4a25.45,25.45,0,0,0-6.56,11.25q-3.2,7.69-6.44,15.37l2.57-6.09q-23.07,54.66-48.13,108.45-12.61,27.08-25.72,53.91c-7.39,15.12-14.79,30.26-22.86,45a340.37,340.37,0,0,1-28.66,44.86l4-5.16a191.5,191.5,0,0,1-34.11,34.69l5.16-4a128.37,128.37,0,0,1-27.66,16.7l6.09-2.57a119.23,119.23,0,0,1-29.94,7.8l6.77-.91c-14.24,1.9-28.65,2-43,2a26.33,26.33,0,0,0-18,7.47,28.44,28.44,0,0,0-7.47,18c.3,6.6,2.47,13.44,7.47,18s11.12,7.47,18,7.47Z"/><path d="M621,1207.51c22.37.18,44.74,1.18,67,3.43q9.39.94,18.74,2.2l-6.78-.91c28.95,3.91,57.64,10.15,85.29,19.66q11.76,4,23.24,8.89l-6.09-2.57q11.52,4.88,22.69,10.56a19,19,0,0,0,9.48,3,26.15,26.15,0,0,0,25.4-12.18l2.58-6.09a25.78,25.78,0,0,0,0-13.56l-2.58-6.09a25.61,25.61,0,0,0-9.14-9.15,403.23,403.23,0,0,0-87.36-32.35c-14-3.42-28.16-6.13-42.41-8.26-16.64-2.48-33.36-4.43-50.14-5.67-16.61-1.22-33.26-1.8-49.92-1.94a26.23,26.23,0,0,0-25.5,25.5l.91,6.78A25.45,25.45,0,0,0,603,1200l5.16,4a25.32,25.32,0,0,0,12.87,3.48Z"/><line class="cls-3" x1="545.78" y1="1312" x2="696.22" y2="1311"/></svg>