<svg id="Layer_1" data-name="Layer 1" xmlns="http://www.w3.org/2000/svg" viewBox="0 0 1242 2208"><defs><style>.cls-1{fill:#f6eabe;}.cls-2{fill:#999;}.cls-3{fill:none;stroke:#000;stroke-linecap:round;stroke-miterlimit:10;stroke-width:50px;}</style></defs><rect class="cls-1" width="1242" height="2208"/><path d="M973.53,652.33H648V839.71H593.21V652.33H270.85V601.52H593.21v-127H351.84V423.66H593.21V304.56H313.73V253.75H478.08c-12.7-32.55-40.49-82.58-66.69-119.1l46.84-17.47c28.59,36.53,58,85.75,70.67,118.31l-42.08,18.26h237.4c22.23-40.49,51.61-98.46,65.9-139.74l55.58,15.88c-20.64,41.28-45.26,87.34-67.49,123.86H935.42v50.81H648v119.1H887v50.82H648v127H973.53Z"/><path d="M445.92,1804.69a98.85,98.85,0,0,1-6.18,13.56v39.59H435.9v-33.35a61.73,61.73,0,0,1-5.46,7,32.86,32.86,0,0,0-2.28-3.9c5.58-5.87,10.8-14.87,14-24Zm34.14,28c-2.1,1.26-4.44,2.64-6.84,3.78,2,6.06,5.82,11.82,10.38,14.52a11.2,11.2,0,0,0-2.64,2.94c-4.62-3.18-8.46-9.42-10.68-16a27.45,27.45,0,0,1-2.76,1.2c2.58,6.84,1.86,14-1,16.68a6.91,6.91,0,0,1-5.22,1.92c-1.08,0-2.4-.06-3.78-.18a9.31,9.31,0,0,0-1-3.42,38.26,38.26,0,0,0,4.14.24,3.66,3.66,0,0,0,3.12-1.14c1.56-1.38,2.22-5.16,1.44-9.36-5.16,4.92-13.08,9.36-19.8,11.7a15.8,15.8,0,0,0-2.34-2.82c7.62-2.28,16.62-7.14,21.3-12.24a35.76,35.76,0,0,0-1.5-3.48,63.52,63.52,0,0,1-17.22,9.9,16.14,16.14,0,0,0-2.22-2.64c5.94-1.8,13.74-5.76,17.88-9.54a16.39,16.39,0,0,0-2.94-3.18,58.44,58.44,0,0,1-13.56,7.26,11.26,11.26,0,0,0-2.22-2.58,52.7,52.7,0,0,0,15.06-7.55H447.48v-9.36c-1.14,1-2.28,2-3.54,2.94a9.37,9.37,0,0,0-2.52-2.58,44.69,44.69,0,0,0,13.86-16.26l3.84.72c-.6,1.2-1.32,2.34-2,3.54h11.1l.72-.18,2.34,1.68a52.13,52.13,0,0,1-4.8,6.84h13.08v12.66H461.94c-.36.36-.78.66-1.2,1a21,21,0,0,1,5.64,6.84,110,110,0,0,0,10.92-6.42ZM455,1810.81a54.58,54.58,0,0,1-4.2,5.16h11.58a37.88,37.88,0,0,0,3.72-5.16Zm-3.9,14.69h10.5v-6.42h-10.5Zm24.72-6.42H465.18v6.42H475.8Z"/><path d="M542.76,1851.42v3.9h-53.4v-3.9h8.28V1823h4.08v28.43H515.4v-39.71H491.64v-3.84h49.14v3.84H519.54v16.5h19v3.89h-19v19.32Z"/><path d="M568.8,1839.66c-1.26-1.8-4.2-5.22-6.54-7.8V1858h-3.9v-24.83a51.47,51.47,0,0,1-8.58,7.13,16.52,16.52,0,0,0-1.8-3.72,52.46,52.46,0,0,0,17.64-19.19H549.48v-3.66h18.24l.72-.18,2.22,1.56a59.66,59.66,0,0,1-7.68,12.84c2.4,2.15,7.08,7.07,8.34,8.45Zm-7.32-26.45a36.35,36.35,0,0,0-5.52-7.74l2.88-1.92a35.89,35.89,0,0,1,5.76,7.5Zm37.2,41c1.38,0,1.56-.84,1.74-7.5a11.15,11.15,0,0,0,3.42,1.5c-.36,7.74-1.38,9.54-4.74,9.54h-5.16c-3.84,0-4.8-1.08-4.8-5v-14.52h-5.46c-1,10-3.78,16.44-14.1,20a9.52,9.52,0,0,0-2.22-2.94c9.48-3,11.82-8.58,12.6-17.1h-5.64V1806h25.8v32.15h-7.26v14.52c0,1.26.24,1.5,1.56,1.5ZM578,1815.67h18.36v-6.3H578Zm0,9.54h18.36v-6.36H578Zm0,9.65h18.36v-6.41H578Z"/><path d="M625,1804c-1,2.94-2.1,6.3-3.18,8.88H632v38.75h-16.8v4.8h-3.66v-43.55h6.66a64.68,64.68,0,0,0,2.58-9.72Zm3.3,12.47H615.18v13.08h13.14Zm0,31.56v-14.88H615.18v14.88Zm33.06-33.17c-1,27.53-1.8,36.71-4.2,39.59a5.6,5.6,0,0,1-4.56,2.28,74.94,74.94,0,0,1-8.82-.12,9.42,9.42,0,0,0-1.32-3.9c3.9.36,7.5.36,8.82.36s1.92-.12,2.52-.9c2-2.1,2.94-11.34,3.72-35.7H641.82a55.33,55.33,0,0,1-5.64,10.68,36.22,36.22,0,0,0-3.36-2.22c4.08-5.33,7.32-13.61,9.18-21.89l3.84.84c-.78,3-1.62,6-2.64,8.88h18.18Zm-12.78,27a106.51,106.51,0,0,0-9.3-13.92l3.06-1.79a102.47,102.47,0,0,1,9.6,13.61Z"/><path d="M722.64,1843.86H698V1858H693.9v-14.16H669.54V1840H693.9v-9.6H675.66v-3.84H693.9v-9H672.78v-3.83H685.2a47.71,47.71,0,0,0-5-9l3.54-1.32a41.25,41.25,0,0,1,5.34,8.94l-3.18,1.38H703.8a80.05,80.05,0,0,0,5-10.56l4.2,1.2c-1.56,3.12-3.42,6.6-5.1,9.36h11.88v3.83H698v9H716.1v3.84H698v9.6h24.6Z"/><path d="M753.54,1849.2c-8.52,2-17.46,4-24,5.34l-1-3.72c6.18-1.14,15.6-3.06,24.72-5Zm-.72-38.81h-23.4v-3.72h23.4Zm-1.44,21.9H731v-16h20.34Zm-16.44,14.45a41.62,41.62,0,0,0-2.34-11.28l3.24-.78a37.26,37.26,0,0,1,2.58,11.16Zm12.78-27h-13.2v9.23h13.2ZM743,1846.26a85,85,0,0,0,2.7-12.12l3.9,1c-1.08,4.07-2.4,8.93-3.54,12Zm22.5,3.9c-3.18,3.12-8.46,6.12-13.08,7.86a22.91,22.91,0,0,0-2.7-2.7c4.68-1.56,9.84-4.56,12.24-7.14Zm-.72-34.43c.48-1.86,1-4,1.26-5.94H754.44v-3.54h28.74v3.54H770.4c-.54,2-1.14,4.14-1.74,5.94H781.2v31H756.36v-31Zm12.66,3.18H760v6.17h17.4Zm0,9.11H760v6.24h17.4Zm0,9.3H760v6.24h17.4Zm-3.36,11.16a75.29,75.29,0,0,1,10.32,7.38l-3.24,2.16A66.38,66.38,0,0,0,771,1850.4Z"/><path d="M794.88,1839c4.68-2,7.26-4.86,7.56-9.17a4,4,0,0,1-1.14.11c-2.34,0-4.26-1.31-4.26-4.07a4,4,0,0,1,4.32-4.08c3.18,0,4.86,2.58,4.86,6.66,0,6.41-4,11.21-10.08,13.43Z"/><path d="M422.76,1923.18v4H369.3v-4h22.62v-46.85h4.14v18.54h22.62v4H396.06v24.3Z"/><path d="M457.62,1883.23c-.72,2.64-1.62,5.52-2.46,7.92h24.3V1930h-4v-3.18H436.38V1930h-3.9v-38.87h18.6a80.35,80.35,0,0,0,1.92-7.92H429.78v-3.78H482.4v3.78Zm-21.24,39.89h9v-28.25h-9Zm26-28.25H449v7h13.32Zm0,10.31H449v7.2h13.32ZM449,1923.12h13.32v-7.44H449Zm26.4-28.25H466v28.25h9.42Z"/><path d="M518.46,1924.62a70.7,70.7,0,0,0,7.38.36c2.1.06,14.76,0,17.58-.06a16.36,16.36,0,0,0-1.44,3.84H525.72c-12.3,0-19.92-1.92-24.72-10.38a31.55,31.55,0,0,1-9.48,11.7,19.84,19.84,0,0,0-3.06-2.82c6.3-4.14,10.2-10.92,11.82-19.86l4,.6a55.92,55.92,0,0,1-1.5,6.06c2.34,5.64,6.3,8.52,11.7,9.84v-18.54H489.72v-3.6H542.4v3.6H518.46v7.08h20v3.6h-20Zm17.22-27.17h-39.6v-19.56h39.6Zm-4-16.44H500v5.16h31.68Zm0,8.1H500v5.27h31.68Z"/><path d="M554.88,1897.75a40.85,40.85,0,0,1-2.82,8.69,18,18,0,0,0-2.4-1.38,35.33,35.33,0,0,0,2.52-8Zm10.56-1.33c-.24-.71-.54-1.5-1-2.46-10.92,1.45-12.48,1.75-13.38,2.22a21.08,21.08,0,0,0-1-3,7.72,7.72,0,0,0,3.36-2,52.86,52.86,0,0,0,4.5-4.57c-5.28.55-6.42.85-7.08,1.09a12.68,12.68,0,0,0-1-3,3.75,3.75,0,0,0,2.22-1.44,28.08,28.08,0,0,0,5.34-7.32l3.06,1a48.11,48.11,0,0,1-5.7,7.5l5.4-.42a35.23,35.23,0,0,0,2.46-3.24l2.94,1.26a78.82,78.82,0,0,1-9.78,10.55l7.56-.89c-.54-1.08-1.14-2.22-1.74-3.24l2.34-.66a43.11,43.11,0,0,1,4,7.74Zm33.48,23a10.37,10.37,0,0,1-.3,1.74c-1,4.38-2.1,6.66-3.72,7.68-1.32.78-2.58,1-4.92,1-2.16.06-6.9,0-11.58-.36a6.11,6.11,0,0,0-1.08-2.82c4.8.42,10,.48,11.82.48a6.93,6.93,0,0,0,2.94-.36c1-.6,1.62-2,2.28-4.5H555a81.82,81.82,0,0,0,3.18-8.94h33.24v-3.18H555.06v-2.76h40.08v8.7h-34c-.42,1.2-.84,2.28-1.2,3.36Zm-40.74-14a52.9,52.9,0,0,0-1.5-7.74l2.64-.42a51.62,51.62,0,0,1,1.56,7.57Zm6.3-9.24a25.49,25.49,0,0,1,2.58,6.42l-2.52.9a26.43,26.43,0,0,0-2.34-6.59Zm19.92-12.77H567.12v-2.58h8.1a22,22,0,0,0-2.4-4.74l2.7-.84a21.87,21.87,0,0,1,2.76,5.58h6.12Zm-1.8,5.16H568.74v-2.28H582.6Zm-13.86,2.88H582.6v2.34H568.74Zm0,5.22H582.9v8.46H568.74Zm2.7,6.12h8.64V1899h-8.64Zm28.74-6.25a21.22,21.22,0,0,0-.84-2.46c-11.52,1.5-13.08,1.8-14,2.29a17.75,17.75,0,0,0-1-3c1-.06,2.28-.91,3.6-2.1a48.85,48.85,0,0,0,4.62-4.38c-5.52.6-6.72.84-7.38,1.14-.18-.66-.66-2.16-1-2.88a4.41,4.41,0,0,0,2.28-1.5,34.7,34.7,0,0,0,5.34-7.56l2.88,1.08a42.74,42.74,0,0,1-5.64,7.56l5.82-.42c1-1.2,1.92-2.34,2.82-3.6l2.82,1.32a83.68,83.68,0,0,1-10.26,10.74l8-.9c-.54-1.08-1.14-2-1.68-3l2.34-.79a31.16,31.16,0,0,1,3.72,7.5ZM589.5,1898a39.25,39.25,0,0,1-2.58,8.28,15.69,15.69,0,0,0-2.4-1.44,27.41,27.41,0,0,0,2.16-7.43Zm3.3,7.44a35.29,35.29,0,0,0-1.38-7.68l2.52-.47a33.88,33.88,0,0,1,1.56,7.55Zm6.84-9a45,45,0,0,1,2.7,7.37l-2.58.78a32.56,32.56,0,0,0-2.46-7.43Z"/><path d="M660.06,1887.31v42.47h-3.9v-3.66H616v4h-3.78v-42.77h14.4V1876h3.9v11.34H641V1876h3.9v11.34Zm-44.1,3.9v13.43h10.62v-13.43Zm0,31h10.62v-13.74H616Zm14.52-31v13.43H641v-13.43Zm0,17.27v13.74H641v-13.74Zm14.46-17.27v13.43h11.22v-13.43Zm11.22,31v-13.74H644.94v13.74Z"/><path d="M685,1876c-1,2.94-2.1,6.3-3.18,8.88H692v38.75h-16.8v4.8h-3.66v-43.55h6.66a64.68,64.68,0,0,0,2.58-9.72Zm3.3,12.47H675.18v13.08h13.14Zm0,31.56v-14.88H675.18v14.88Zm33.06-33.17c-1,27.53-1.8,36.71-4.2,39.59a5.6,5.6,0,0,1-4.56,2.28,74.94,74.94,0,0,1-8.82-.12,9.42,9.42,0,0,0-1.32-3.9c3.9.36,7.5.36,8.82.36s1.92-.12,2.52-.9c2-2.1,2.94-11.34,3.72-35.7H701.82a55.33,55.33,0,0,1-5.64,10.68,36.22,36.22,0,0,0-3.36-2.22c4.08-5.33,7.32-13.61,9.18-21.89l3.84.84c-.78,3-1.62,6-2.64,8.88h18.18Zm-12.78,27a106.51,106.51,0,0,0-9.3-13.92l3.06-1.79a102.47,102.47,0,0,1,9.6,13.61Z"/><path d="M782.64,1915.86H758V1930H753.9v-14.16H729.54V1912H753.9v-9.6H735.66v-3.84H753.9v-9H732.78v-3.83H745.2a47.71,47.71,0,0,0-5-9l3.54-1.32a41.25,41.25,0,0,1,5.34,8.94l-3.18,1.38H763.8a80.05,80.05,0,0,0,5-10.56l4.2,1.2c-1.56,3.12-3.42,6.6-5.1,9.36h11.88v3.83H758v9H776.1v3.84H758v9.6h24.6Z"/><path d="M838,1924.68c0,2.76-.78,4.08-2.88,4.68s-6,.72-12.06.72a14.18,14.18,0,0,0-1.62-3.84c5,.12,9.6.12,10.92.06s1.68-.42,1.68-1.62v-7.92H799.86A25.93,25.93,0,0,1,791,1930.2a13.61,13.61,0,0,0-2.76-2.82c8.46-6.66,9.48-16,9.48-23.63v-10.92a58.8,58.8,0,0,1-5.1,4.13,14.75,14.75,0,0,0-2.94-2.81,52.86,52.86,0,0,0,17-19l4.32.78c-.54,1-1.14,1.92-1.74,2.94h14.94l.72-.24,2.64,1.74a48.84,48.84,0,0,1-5.58,8.58h16Zm-36.42-20.28a51.06,51.06,0,0,1-.78,8.82h14.58v-8.82Zm5.4-22.07a59.72,59.72,0,0,1-5.4,6.66h16a47.61,47.61,0,0,0,4.44-6.66Zm-5.4,18.59h13.8v-8.39h-13.8Zm32.46-8.39H819.18v8.39H834Zm0,20.69v-8.82H819.18v8.82Z"/><path d="M854.88,1911c4.68-2,7.26-4.86,7.56-9.17a4,4,0,0,1-1.14.11c-2.34,0-4.26-1.31-4.26-4.07a4,4,0,0,1,4.32-4.08c3.18,0,4.86,2.58,4.86,6.66,0,6.41-4,11.21-10.08,13.43Z"/><path d="M194.82,1958.05v27.77h-4.08v-3.48H172.92v19.56h-4.14v-19.56H151v3.78h-4v-28.07h21.72v-10.74h4.14v10.74Zm-26,20.33V1962H151v16.43Zm22,0V1962H172.92v16.43Z"/><path d="M210.6,1970.22V2002h-3.9V1950h21.42v20.27Zm0-17.15v5.4h13.74v-5.4Zm13.74,14v-5.64H210.6v5.64Zm-.84,29.27v3.06h-3.66v-24.53H242v21.47Zm0-18.36v5.88h14.76V1978Zm14.76,15.18V1987H223.5v6.18Zm17.4,3.3c0,2.7-.66,4-2.52,4.74s-5,.72-10,.72a13.68,13.68,0,0,0-1.38-4.08c3.78.18,7.44.12,8.46.06s1.44-.36,1.44-1.44v-26.21h-18V1950h22Zm-18.12-43.43v5.4H251.7v-5.4Zm14.16,14.1v-5.7H237.54v5.7Z"/><path d="M318.36,1971.91v4.31H263.88v-4.31Z"/><path d="M364.08,1992.78a51.37,51.37,0,0,1-3.54,4.86h17.28v3.12H324.3v-3.12h17a26.79,26.79,0,0,0-2.64-4.74l1.8-.54h-7.86V1982h37v10.38h-6.84ZM351,1973.1H326.64v-23.39h23.7v2.88h-9.6v4h9.06v9.71h-9.06v4H351v1.69a34.47,34.47,0,0,0,10.86-5.46,35.41,35.41,0,0,1-7.2-11.94l2.7-.72h-4.92v-3.36h20.4l.6-.12,2.28.84a33.26,33.26,0,0,1-8.7,15.3,30.57,30.57,0,0,0,10.86,5.57,12.11,12.11,0,0,0-2.4,3.06,32.17,32.17,0,0,1-11.16-6.24,36.81,36.81,0,0,1-11.4,6.12,12.16,12.16,0,0,0-1.92-3Zm-24.24,3.19h48.78v2.93H326.76Zm3.48-23.7v4h7v-4Zm16,6.54h-16v4.5h16Zm-16,11.09h7v-4h-7Zm6.3,19.44h29v-5h-29Zm5.88,2.7a19.32,19.32,0,0,1,2.7,4.74l-1.5.54h14.22l-1-.36a46.44,46.44,0,0,0,3.24-4.92Zm15.48-38.57a29.64,29.64,0,0,0,6.54,10.38,28.25,28.25,0,0,0,6.84-10.38Z"/><path d="M432.18,1976.17c-2.58,1.43-5.7,3-8.7,4.37,2.46,5.52,7.32,11.88,14.52,14.94a18.12,18.12,0,0,0-2.64,3.36c-7.5-3.66-12.54-11-15.06-16.86-1.2.54-2.4,1-3.48,1.38,4,7,3.12,13.86-1.14,16.62a9.52,9.52,0,0,1-6.12,1.74c-1.38,0-3.18-.06-5.1-.12a9.28,9.28,0,0,0-1.14-3.66,50.42,50.42,0,0,0,5.58.24,6.85,6.85,0,0,0,4.26-1c2.52-1.68,3.24-6,1.08-10.8-6.84,5.28-17.88,10.08-26.76,12.42a14.51,14.51,0,0,0-2.28-3.06c9.48-2.1,21.24-7,27.54-12.12a25.51,25.51,0,0,0-2.34-3c-5.82,3.9-14.88,7.32-21.9,9.06a15.75,15.75,0,0,0-2.34-2.94c7.38-1.44,16.62-4.68,22.08-8.16a31.09,31.09,0,0,0-3.66-2.88,94,94,0,0,1-15.42,5.64,14.31,14.31,0,0,0-2.28-2.76,84.06,84.06,0,0,0,17.76-5.93H390.78v-9.84c-1.2.84-2.4,1.55-3.72,2.34a14.11,14.11,0,0,0-2.64-2.76c8-4.32,14.16-10.32,17.34-15.24l4.26.84c-.84,1.2-1.68,2.28-2.7,3.48h13.56l.6-.24,2.76,1.8a40.15,40.15,0,0,1-4.8,6.48H431.7v13.14H410c-.72.47-1.5.95-2.28,1.43a28.71,28.71,0,0,1,7.32,6.78,101.21,101.21,0,0,0,13.92-7.13Zm-37.62-6.67H409v-6.83H394.56Zm5.88-14.87a59.64,59.64,0,0,1-5.28,4.86h15.66a38,38,0,0,0,3.84-4.86Zm27.36,8H412.62v6.83H427.8Z"/><path d="M458,1960.33a67.68,67.68,0,0,1-4.2,7.62v34h-3.66v-28.61a68.47,68.47,0,0,1-5.46,6.47,27,27,0,0,0-2.4-3.42,63.74,63.74,0,0,0,12.24-17.15Zm-1.14-11.7a59.62,59.62,0,0,1-11.7,13.68,18.49,18.49,0,0,0-2.22-3,46.65,46.65,0,0,0,10.26-11.94Zm39.3,14.28c-1.14,9.77-3,17.69-6.18,24.23,2.22,5,5.28,9.06,9.24,11.64a11.23,11.23,0,0,0-2.58,3,29.26,29.26,0,0,1-8.7-11,35.88,35.88,0,0,1-11.28,11.4,36.93,36.93,0,0,0-2.64-2.7,34.65,34.65,0,0,0,5-3.6c-7.92,1.08-16,2.16-22,2.82l-.54-3.42c2.94-.18,6.54-.54,10.5-1v-6.54h-8.46v-3.12H467v-5.45c-2.76.47-5.64.83-8.22,1.07a17.34,17.34,0,0,0-1.62-2.64,131.47,131.47,0,0,0,19.92-3.47l1.8,2.51a63,63,0,0,1-8.34,2v6h8.16v3.12h-8.16v6.18l8.82-1v2.58a31.94,31.94,0,0,0,6.84-8.82,79.87,79.87,0,0,1-4-15.89c-.72,1.38-1.44,2.63-2.22,3.84a15.82,15.82,0,0,0-2.16-2.76H458.16v-3.12h20v2c3.84-5.88,6.06-14.52,7.44-23.52l3.48.6c-.66,4-1.5,7.86-2.46,11.52h12.12v3.48Zm-17.58,1.67h-19.8v-13h3v9.78H467v-14h3.24v14h5.22v-9.78h3.06Zm7-1.67c-.36,1-.72,1.92-1.08,2.88a85.8,85.8,0,0,0,3.66,16.79c2.22-5.52,3.54-12,4.38-19.67Z"/><path d="M557.64,1987.86H533V2002H528.9v-14.16H504.54V1984H528.9v-9.6H510.66v-3.84H528.9v-9H507.78v-3.83H520.2a47.71,47.71,0,0,0-5-9l3.54-1.32a41.25,41.25,0,0,1,5.34,8.94l-3.18,1.38H538.8a80.05,80.05,0,0,0,5-10.56l4.2,1.2c-1.56,3.12-3.42,6.6-5.1,9.36h11.88v3.83H533v9H551.1v3.84H533v9.6h24.6Z"/><path d="M588.54,1993.2c-8.52,2-17.46,4-24,5.34l-1-3.72c6.18-1.14,15.6-3.06,24.72-5Zm-.72-38.81h-23.4v-3.72h23.4Zm-1.44,21.9H566v-16h20.34Zm-16.44,14.45a41.62,41.62,0,0,0-2.34-11.28l3.24-.78a37.26,37.26,0,0,1,2.58,11.16Zm12.78-27h-13.2v9.23h13.2ZM578,1990.26a85,85,0,0,0,2.7-12.12l3.9,1c-1.08,4.07-2.4,8.93-3.54,12Zm22.5,3.9c-3.18,3.12-8.46,6.12-13.08,7.86a22.91,22.91,0,0,0-2.7-2.7c4.68-1.56,9.84-4.56,12.24-7.14Zm-.72-34.43c.48-1.86,1-4,1.26-5.94H589.44v-3.54h28.74v3.54H605.4c-.54,2-1.14,4.14-1.74,5.94H616.2v31H591.36v-31Zm12.66,3.18H595v6.17h17.4Zm0,9.11H595v6.24h17.4Zm0,9.3H595v6.24h17.4Zm-3.36,11.16a75.29,75.29,0,0,1,10.32,7.38l-3.24,2.16A66.38,66.38,0,0,0,606,1994.4Z"/><path d="M629.88,1983c4.68-2,7.26-4.86,7.56-9.17a4,4,0,0,1-1.14.11c-2.34,0-4.26-1.31-4.26-4.07a4,4,0,0,1,4.32-4.08c3.18,0,4.86,2.58,4.86,6.66,0,6.41-4,11.21-10.08,13.43Z"/><path d="M682,1955.71v10.86l.66-.78c7.32,3.54,16.74,8.93,21.54,12.53l-2.76,3.6c-4.2-3.42-12.48-8.46-19.44-12.12v32.1h-4.2v-46.19H654.54v-4h53v4Z"/><path d="M742.62,1955.23c-.72,2.64-1.62,5.52-2.46,7.92h24.3V2002h-4v-3.18H721.38V2002h-3.9v-38.87h18.6a80.35,80.35,0,0,0,1.92-7.92H714.78v-3.78H767.4v3.78Zm-21.24,39.89h9v-28.25h-9Zm26-28.25H734v7h13.32Zm0,10.31H734v7.2h13.32ZM734,1995.12h13.32v-7.44H734Zm26.4-28.25H751v28.25h9.42Z"/><path d="M802.56,1954.87v7.92h22.26v34.31c0,2.28-.54,3.48-2.22,4.08s-4.68.66-8.94.66a14.79,14.79,0,0,0-1.38-3.6c3.42.12,6.54.12,7.5.06s1.14-.3,1.14-1.2v-30.6H802.56v35.1h-3.78v-35.1h-17.4v35.34h-3.84v-39h21.24v-7.92h-23.4V1951h51.54v3.9Zm-9.84,16.43c0,6.12.42,13.92,5.76,20a8.65,8.65,0,0,0-2.28,1.8A23.88,23.88,0,0,1,791,1981.8a27.16,27.16,0,0,1-6.24,11.4,14.22,14.22,0,0,0-2.34-1.8c4.08-3.9,6.24-9.9,7.2-17.15h-3.9v-3Zm21.12,0c0,6.18.48,13.92,6.24,19.92a11.7,11.7,0,0,0-2.4,1.74,23.65,23.65,0,0,1-5.58-11.64,27.62,27.62,0,0,1-6.18,11.46,15,15,0,0,0-2.34-1.8c4-3.84,6.06-9.72,7.08-16.73h-4.08v-3Z"/><path d="M848.22,1976.64a49.67,49.67,0,0,1-3.42,13c4,7,11.7,7.92,23.4,8,6.3,0,14.82-.24,20.82-.78a10.52,10.52,0,0,0-1.32,3.78c-5.52.3-13,.42-19.5.42-12.48,0-20.16-1.26-24.84-8.16a27.85,27.85,0,0,1-7.5,9.24,12,12,0,0,0-2.76-2.76c5.4-3.78,9.3-10.62,11.16-20h-5.82a6.23,6.23,0,0,0-3.48.85,19.84,19.84,0,0,0-1.56-3.67,5.53,5.53,0,0,0,2.76-1.74,94.39,94.39,0,0,0,7.14-10.26h-9.36v-3.29h11.58l.78-.36L849,1962c-2.34,3.59-6.6,10-9.78,14h6.54l.66-.06.18.06Zm-4.92-17.87a86.16,86.16,0,0,0-7-9.66l3-1.68a76.07,76.07,0,0,1,7.14,9.3Zm9.3,17.4h-3.54v-5.88h16.86c-.42-.91-.9-1.87-1.26-2.71H853.32V1951h10.74c.66-1.32,1.26-2.76,1.68-3.78l4.14.66c-.66,1.14-1.38,2.16-2,3.12h14.52v16.61H868.74a23.09,23.09,0,0,1,1.32,2.71h16.68v5.57h-3.66v-3.11H875.4v3c0,1.08.12,1.43,1.26,1.43h5.46a21.71,21.71,0,0,0,3.54-.24,15.51,15.51,0,0,0,.24,2.28,20,20,0,0,1-3.6.18h-7c-2.88,0-3.36-1.19-3.36-3.72v-2.93h-6.72c-1.86,4.31-6,6.29-14,7.67a7.14,7.14,0,0,0-1.68-2.28c6.84-.89,10.38-2.46,12.06-5.39h-9Zm11.94,7.85a13.56,13.56,0,0,1-.66,2.22H881a6.23,6.23,0,0,1-.24,1.44c-.84,4.14-1.74,6.18-2.94,7.08a5.16,5.16,0,0,1-3.24.9,49.5,49.5,0,0,1-6.3-.18,7.45,7.45,0,0,0-.78-2.58,50.09,50.09,0,0,0,5.82.3,3,3,0,0,0,1.86-.36c.6-.54,1.2-1.74,1.8-4H862.74c-1.92,3.12-5,5.52-10.26,7a11,11,0,0,0-2-2.7c6.66-1.74,9.42-4.86,10.62-9.12H850.2v-2.64h16.08c-.48-1.14-1.08-2.46-1.62-3.48l3.24-.72a46,46,0,0,1,2.16,4.2h16V1984Zm-7.44-28.25h21.42v-2.64H857.1Zm0,4.8h21.42v-2.64H857.1Zm0,4.85h21.42v-2.69H857.1Z"/><path d="M923.46,1996.62a70.7,70.7,0,0,0,7.38.36c2.1.06,14.76,0,17.58-.06a16.36,16.36,0,0,0-1.44,3.84H930.72c-12.3,0-19.92-1.92-24.72-10.38a31.55,31.55,0,0,1-9.48,11.7,19.84,19.84,0,0,0-3.06-2.82c6.3-4.14,10.2-10.92,11.82-19.86l4,.6a55.92,55.92,0,0,1-1.5,6.06c2.34,5.64,6.3,8.52,11.7,9.84v-18.54H894.72v-3.6H947.4v3.6H923.46v7.08h20v3.6h-20Zm17.22-27.17h-39.6v-19.56h39.6Zm-4-16.44H905v5.16h31.68Zm0,8.1H905v5.27h31.68Z"/><path d="M1007.64,1987.86H983V2002H978.9v-14.16H954.54V1984H978.9v-9.6H960.66v-3.84H978.9v-9H957.78v-3.83H970.2a47.71,47.71,0,0,0-5-9l3.54-1.32a41.25,41.25,0,0,1,5.34,8.94l-3.18,1.38H988.8a80.05,80.05,0,0,0,5-10.56l4.2,1.2c-1.56,3.12-3.42,6.6-5.1,9.36h11.88v3.83H983v9h18.06v3.84H983v9.6h24.6Z"/><path d="M1068,1994h-10.68v8h-4.14v-8h-38.94v-4h10.2v-35h-9v-3.84h51.24V1955h-9.36v35H1068Zm-39.42-39v8.82h24.6V1955Zm0,21.53h24.6v-9h-24.6Zm24.6,13.5v-9.84h-24.6V1990Z"/><path d="M1086.18,1965.67a9.06,9.06,0,1,1-9.06,9A9.09,9.09,0,0,1,1086.18,1965.67Zm0,15.23a6.18,6.18,0,0,0,0-12.36,6.18,6.18,0,0,0,0,12.36Z"/><path d="M522.9,2036.17c4.44,10.31,12.24,20,20.76,24.71a23.11,23.11,0,0,0-3.06,3.36c-9-5.58-16.92-16.32-21.6-28.07h-1v22.43h14.28v4H518V2074H513.9v-11.4H499.68v-4H513.9v-22.43h-1.08c-4.74,11.75-12.66,22.43-21.3,28.25a24.18,24.18,0,0,0-2.88-3.18c8-4.92,15.66-14.76,20.16-25.07H490.14v-4H513.9v-12.72H518v12.72h24v4Z"/><path d="M597.9,2058.54a33.64,33.64,0,0,1-8.22,7.38c2.4,2.82,5.22,4.44,8.16,4.38,1.68-.06,2.16-1.5,2.46-5.94a10.31,10.31,0,0,0,3.12,1.62c-.6,6.3-2.1,7.92-5.76,8-4.26,0-8.16-2.22-11.28-6a74.41,74.41,0,0,1-13.68,5.82,36.46,36.46,0,0,0-2.1-3.24,65.61,65.61,0,0,0,13.86-5.34,34.94,34.94,0,0,1-3.84-8.82H566.16v4.38l11.16-1-.06,2.88-11.1,1.08v6.12c0,2.1-.48,3.06-2.16,3.54s-4.38.54-8.94.54a19.42,19.42,0,0,0-1.26-3.18c3.36.12,6.48.06,7.38,0s1.2-.24,1.2-1v-5.7c-4.74.48-9.12.9-12.72,1.2l-.42-3.3c3.54-.24,8.1-.54,13.14-1v-4.68h-12.9v-3.18h12.9v-4.44c-3.78.42-7.68.72-11.28.91a12,12,0,0,0-.9-2.71c8.16-.48,18.18-1.55,23.52-2.94l2.52,2.58c-2.82.66-6.36,1.26-10.08,1.74v4.86h13.68a52.67,52.67,0,0,1-1.2-8.94h3.84a57.48,57.48,0,0,0,1.2,8.94h19v3.18H584.58a31.91,31.91,0,0,0,3.12,6.9,27.09,27.09,0,0,0,6.72-5.94Zm4.62-15.17h-53v-3.24H573.9V2036H555.3v-3.06h18.6v-4H552.06v-3.18h12.66a30,30,0,0,0-3.48-5.16l3.42-1.26a24.4,24.4,0,0,1,4.32,6.24l-.42.18H583.2a54.7,54.7,0,0,0,3.6-6.6l4.14,1.2c-1.2,1.86-2.52,3.84-3.72,5.4h12.84V2029H577.92v4h18.9V2036h-18.9v4.14h24.6Zm-5.7,9a34,34,0,0,0-9.48-5.52l2.16-2.46a38.32,38.32,0,0,1,9.66,5.22Z"/><path d="M638.46,2068.62a70.7,70.7,0,0,0,7.38.36c2.1.06,14.76,0,17.58-.06a16.36,16.36,0,0,0-1.44,3.84H645.72c-12.3,0-19.92-1.92-24.72-10.38a31.55,31.55,0,0,1-9.48,11.7,19.84,19.84,0,0,0-3.06-2.82c6.3-4.14,10.2-10.92,11.82-19.86l4,.6a55.92,55.92,0,0,1-1.5,6.06c2.34,5.64,6.3,8.52,11.7,9.84v-18.54H609.72v-3.6H662.4v3.6H638.46v7.08h20v3.6h-20Zm17.22-27.17h-39.6v-19.56h39.6Zm-4-16.44H620v5.16h31.68Zm0,8.1H620v5.27h31.68Z"/><path d="M722.64,2059.86H698V2074H693.9v-14.16H669.54V2056H693.9v-9.6H675.66v-3.84H693.9v-9H672.78v-3.83H685.2a47.71,47.71,0,0,0-5-9l3.54-1.32a41.25,41.25,0,0,1,5.34,8.94l-3.18,1.38H703.8a80.05,80.05,0,0,0,5-10.56l4.2,1.2c-1.56,3.12-3.42,6.6-5.1,9.36h11.88v3.83H698v9H716.1v3.84H698v9.6h24.6Z"/><path d="M741.18,2037.67a9.06,9.06,0,1,1-9.06,9A9.09,9.09,0,0,1,741.18,2037.67Zm0,15.23a6.18,6.18,0,1,0,0-12.36,6.18,6.18,0,1,0,0,12.36Z"/><rect class="cls-2" x="1113" y="423" width="65" height="126" rx="12"/><path class="cls-1" d="M1132.7,452.82c1.25,1.6,4.9,6.7,5.7,8.05l-2,2.45c-.7-1.5-2.35-4.4-3.75-6.65V483h-3.15V458.57c-1.5,5.05-3.5,9.9-5.55,12.85a14.83,14.83,0,0,0-1.75-3.1c2.9-4,5.8-11.5,7.2-18h-6.2v-3.15h6.3v-9.65h3.15v9.65h5.45v3.15h-5.45Zm19.1.7a19.47,19.47,0,0,0,.45,2.65c-10.15,2.7-11.6,3.15-12.5,3.75a12.13,12.13,0,0,0-1.1-3.2c.7-.2,1.55-.5,1.55-2.2v-16.7h3.25v6.5h8.35v2.9h-8.35v8.3Zm2.35,5.5-2,3.75h12.65V483h-3.4v-1.75h-17v2h-3.3V462.77h7.9c.55-1.5,1.2-3.25,1.55-4.6Zm7.3,6.5h-17v5.05h17Zm0,13v-5.3h-17v5.3Zm2.25-22.4c1.25,0,1.5-.75,1.65-5.25a9.16,9.16,0,0,0,2.85,1.25c-.3,5.45-1.2,6.95-4.15,6.95h-5.85c-3.65,0-4.55-.95-4.55-4.45V437.87h3.25v6.5h10.2v2.9h-10.2v7.35c0,1.3.25,1.5,1.65,1.5Z"/><path class="cls-1" d="M1167.55,512.87v2.5H1123.4v-2.5h20.25v-3.2H1126.8v-2.3h16.85v-3H1128.2v-2.25h15.45v-3.2H1123.5v-2.5h20.15v-3.05H1128.8V491h14.85v-3.55h3.25V491h14.45v5.4h6.15v2.5h-6.15v5.45H1146.9v3h17.3v2.3h-17.3v3.2Zm-37.75,5h31.75v15.25h-3.25v-1.6H1133v1.7h-3.2Zm3.2,2.4v3.2h25.3v-3.2Zm25.3,8.85v-3.4H1133v3.4Zm-11.4-32.7h11.15v-3.05H1146.9Zm0,5.7h11.15v-3.2H1146.9Z"/><rect class="cls-2" x="1114" y="1486" width="65" height="271" rx="12"/><path class="cls-1" d="M1159.05,1525.79a27.61,27.61,0,0,0,11.5,8.1,11.65,11.65,0,0,0-2.15,2.55,30.77,30.77,0,0,1-12.8-10.65h-15.95a34.39,34.39,0,0,1-13,11.3,11.43,11.43,0,0,0-2.15-2.55,30.39,30.39,0,0,0,11.6-8.75H1125v-2.85h10v-16.15h-7.7V1504h7.7v-5h3.3v5h18.55v-5h3.35v5h7.65v2.8h-7.65v16.15h9.8v2.85Zm-10,14.5h17.3v2.85H1128.8v-2.85h16.9v-5.6h-10.45v-2.8h10.45v-4.4h3.35v4.4h10.65v2.8h-10.65Zm-10.8-33.5v3.6h18.55v-3.6Zm0,9.8h18.55v-3.65h-18.55Zm0,6.35h18.55v-3.8h-18.55Z"/><path class="cls-1" d="M1143.25,1567.54s0,1.15,0,1.55c-.6,15.85-1.2,21.2-2.6,23a3.71,3.71,0,0,1-2.8,1.45,32.65,32.65,0,0,1-4.45,0,9.25,9.25,0,0,0-.85-3c1.75.15,3.2.15,3.9.15a1.42,1.42,0,0,0,1.45-.65c1-1.2,1.6-6,2.15-19.35h-6.8c-.55,10-2,18.25-6.45,23.65a9.53,9.53,0,0,0-2.55-2.35c5.45-6.45,5.9-17.85,6.1-31.55h-5.2v-3.1h20.1v3.1h-11.65c0,2.45-.1,4.85-.2,7.15Zm-7.9-10.45a33.47,33.47,0,0,0-4.25-7.15l2.9-1.15a31.92,31.92,0,0,1,4.4,7Zm23.85-7.45a15.26,15.26,0,0,1-.85,2.55c2.65,5.45,7.7,11.35,12.45,14a13,13,0,0,0-2.45,2.75c-4.25-2.7-8.5-8-11.4-13.3a32.61,32.61,0,0,1-11,13.6,12.79,12.79,0,0,0-2.35-2.65c5.85-3.6,10.35-10.2,12.5-17.85Zm-8.3,32.45a74,74,0,0,1,13.6,8.25l-2.25,2.9c-2.85-2.6-8.75-6.3-13.4-8.65Zm9.5-4.85a66.22,66.22,0,0,0-8.6-6.85l2.15-2.2a67.46,67.46,0,0,1,8.75,6.55Z"/><path class="cls-1" d="M1166,1602.19v29.3h-3.5v-2.55h-13.3v15.6h-3.45v-15.6h-13.4v2.75H1129v-29.5Zm-33.65,3.2V1614h13.4v-8.65Zm13.4,20.35v-8.5h-13.4v8.5Zm16.75-20.35h-13.3V1614h13.3Zm0,20.35v-8.5h-13.3v8.5Z"/><path class="cls-1" d="M1168.25,1664.09v9.3h-3.15V1667h-35.4v6.4h-3v-9.3h6.95v-12.95h27.7v12.95Zm-6.45,26.6c0,1.85-.45,2.7-1.85,3.2s-3.9.5-7.7.45a8.57,8.57,0,0,0-1.1-2.75c3,.05,5.65.05,6.4.05s1-.25,1-1v-6.2c-7.3,1.45-14.85,3-20.45,4l-1.1-3c5.4-.8,13.6-2.3,21.55-3.75V1673h-22.2v5.3c0,4.85-.65,11.55-4.35,16.2a13.29,13.29,0,0,0-2.7-2c3.45-4.25,3.85-10,3.85-14.25v-8h28.6Zm-25-26.6h7.45v-6.9H1158v-3.35h-21.2Zm2.45,11.7a75.14,75.14,0,0,1,17.7,3l-.9,2.6c-4-1.5-11.7-2.9-17.7-3.35Zm18.75-16.3h-10.75v4.6H1158Z"/><path class="cls-1" d="M1162,1711.09a51.83,51.83,0,0,1-12,19.6,49.94,49.94,0,0,0,20.5,10.5,16.79,16.79,0,0,0-2.25,3,50.92,50.92,0,0,1-20.75-11.1c-5.65,5-12.55,8.6-21,11.3a15.53,15.53,0,0,0-2-3.05c8.35-2.45,15.1-5.9,20.6-10.6a57.05,57.05,0,0,1-12.2-19.65h-7.75v-3.25h44.75v3.25Zm-25.75,0a52.13,52.13,0,0,0,11.3,17.3,47.46,47.46,0,0,0,10.7-17.3Zm11.25-3.55a38.13,38.13,0,0,0-3.8-7.8l3.4-1a39,39,0,0,1,4,7.65Z"/><line class="cls-3" x1="624" y1="1170" x2="624" y2="1692"/><line class="cls-3" x1="491.12" y1="1020" x2="624.74" y2="1169.4"/><line class="cls-3" x1="758.36" y1="1020" x2="624.74" y2="1169.4"/><line class="cls-3" x1="489.91" y1="1019.37" x2="340.83" y2="1160.97"/><line class="cls-3" x1="760.09" y1="1020.37" x2="909.17" y2="1161.97"/><line class="cls-3" x1="465" y1="1405" x2="624" y2="1517.3"/><line class="cls-3" x1="783" y1="1405" x2="624" y2="1517.3"/><path class="cls-2" d="M137.7,1061.36H113.1v14.16H109v-14.16H84.6v-3.84H109v-9.6H90.72v-3.84H109v-9H87.84v-3.84h12.42a47.71,47.71,0,0,0-5-9l3.54-1.32a41.25,41.25,0,0,1,5.34,8.94l-3.18,1.38h17.94a80.05,80.05,0,0,0,5-10.56l4.2,1.2c-1.56,3.12-3.42,6.6-5.1,9.36h11.88v3.84H113.1v9h18.06v3.84H113.1v9.6h24.6Z"/><path class="cls-2" d="M193,1070.18c0,2.76-.78,4.08-2.88,4.68s-6,.72-12.06.72a14.18,14.18,0,0,0-1.62-3.84c5,.12,9.6.12,10.92.06s1.68-.42,1.68-1.62v-7.92H154.92A25.93,25.93,0,0,1,146,1075.7a13.61,13.61,0,0,0-2.76-2.82c8.46-6.66,9.48-16,9.48-23.64v-10.92a58.88,58.88,0,0,1-5.1,4.14,14.53,14.53,0,0,0-2.94-2.82,52.86,52.86,0,0,0,17-19l4.32.78c-.54,1-1.14,1.92-1.74,2.94h14.94l.72-.24,2.64,1.74a48.84,48.84,0,0,1-5.58,8.58h16ZM156.6,1049.9a51.15,51.15,0,0,1-.78,8.82H170.4v-8.82Zm5.4-22.08a59.72,59.72,0,0,1-5.4,6.66h16a47.61,47.61,0,0,0,4.44-6.66Zm-5.4,18.6h13.8V1038H156.6Zm32.46-8.4H174.24v8.4h14.82Zm0,20.7v-8.82H174.24v8.82Z"/><path class="cls-2" d="M1120.7,1061.36h-24.6v14.16H1092v-14.16H1067.6v-3.84H1092v-9.6h-18.24v-3.84H1092v-9h-21.12v-3.84h12.42a47.71,47.71,0,0,0-5-9l3.54-1.32a41.25,41.25,0,0,1,5.34,8.94l-3.18,1.38h17.94a80.05,80.05,0,0,0,5-10.56l4.2,1.2c-1.56,3.12-3.42,6.6-5.1,9.36h11.88v3.84H1096.1v9h18.06v3.84H1096.1v9.6h24.6Z"/><path class="cls-2" d="M1176,1070.18c0,2.76-.78,4.08-2.88,4.68s-6,.72-12.06.72a14.18,14.18,0,0,0-1.62-3.84c5,.12,9.6.12,10.92.06s1.68-.42,1.68-1.62v-7.92h-34.14a25.93,25.93,0,0,1-8.88,13.44,13.61,13.61,0,0,0-2.76-2.82c8.46-6.66,9.48-16,9.48-23.64v-10.92a58.88,58.88,0,0,1-5.1,4.14,14.53,14.53,0,0,0-2.94-2.82,52.86,52.86,0,0,0,17-19l4.32.78c-.54,1-1.14,1.92-1.74,2.94h14.94l.72-.24,2.64,1.74a48.84,48.84,0,0,1-5.58,8.58h16Zm-36.42-20.28a51.15,51.15,0,0,1-.78,8.82h14.58v-8.82Zm5.4-22.08a59.72,59.72,0,0,1-5.4,6.66h16a47.61,47.61,0,0,0,4.44-6.66Zm-5.4,18.6h13.8V1038h-13.8Zm32.46-8.4h-14.82v8.4h14.82Zm0,20.7v-8.82h-14.82v8.82Z"/><path class="cls-2" d="M137.7,1421.36H113.1v14.16H109v-14.16H84.6v-3.84H109v-9.6H90.72v-3.84H109v-9H87.84v-3.84h12.42a47.71,47.71,0,0,0-5-9l3.54-1.32a41.25,41.25,0,0,1,5.34,8.94l-3.18,1.38h17.94a80.05,80.05,0,0,0,5-10.56l4.2,1.2c-1.56,3.12-3.42,6.6-5.1,9.36h11.88v3.84H113.1v9h18.06v3.84H113.1v9.6h24.6Z"/><path class="cls-2" d="M198.05,1427.48H187.38v8h-4.14v-8H144.3v-4h10.2v-35h-9v-3.84h51.24v3.84h-9.36v35h10.67Zm-39.41-39v8.82h24.6v-8.82Zm0,21.54h24.6v-9h-24.6Zm24.6,13.5v-9.84h-24.6v9.84Z"/><path class="cls-2" d="M1120.7,1421.36h-24.6v14.16H1092v-14.16H1067.6v-3.84H1092v-9.6h-18.24v-3.84H1092v-9h-21.12v-3.84h12.42a47.71,47.71,0,0,0-5-9l3.54-1.32a41.25,41.25,0,0,1,5.34,8.94l-3.18,1.38h17.94a80.05,80.05,0,0,0,5-10.56l4.2,1.2c-1.56,3.12-3.42,6.6-5.1,9.36h11.88v3.84H1096.1v9h18.06v3.84H1096.1v9.6h24.6Z"/><path class="cls-2" d="M1181.05,1427.48h-10.67v8h-4.14v-8H1127.3v-4h10.2v-35h-9v-3.84h51.24v3.84h-9.36v35h10.67Zm-39.41-39v8.82h24.6v-8.82Zm0,21.54h24.6v-9h-24.6Zm24.6,13.5v-9.84h-24.6v9.84Z"/><path class="cls-2" d="M200.83,1098.28c12,20.35,32.82,35.06,55.82,40.29a83.8,83.8,0,0,0,19.78,2.09,1.13,1.13,0,0,0,0-2.25c-23.08.34-45.86-9.46-61.92-26a80.92,80.92,0,0,1-11.74-15.32,1.13,1.13,0,0,0-1.94,1.14Z"/><path class="cls-2" d="M226.44,1419.23q33.85,2.8,67.88,2.85t67.89-2.71q19.14-1.55,38.2-4c1.42-.18,1.43-2.43,0-2.25q-33.71,4.29-67.69,5.84t-67.94.29q-19.2-.7-38.34-2.29c-1.45-.12-1.44,2.13,0,2.25Z"/><path class="cls-2" d="M837.25,1417.67q38.93,3.69,78,4.63t78.18-.89q22-1,44-2.94c1.43-.12,1.44-2.37,0-2.25q-39,3.38-78.09,4t-78.17-1.52q-22-1.21-43.92-3.29c-1.44-.14-1.43,2.11,0,2.25Z"/><path class="cls-2" d="M1048.27,1100.83a90,90,0,0,1-48.25,37.92,86.67,86.67,0,0,1-17.13,3.78c-1.42.17-1.43,2.42,0,2.25a92.36,92.36,0,0,0,56.32-28.42,89.56,89.56,0,0,0,11-14.4c.76-1.24-1.19-2.37-2-1.13Z"/></svg>