<svg id="Layer_1" data-name="Layer 1" xmlns="http://www.w3.org/2000/svg" viewBox="0 0 1242 2208"><defs><style>.cls-1{fill:#f6eabe;}.cls-2{fill:#999;}</style></defs><rect class="cls-1" width="1242" height="2208"/><path d="M398.74,529.65c0,101.63-13.49,238.2-97.66,329.51-8.73-8.74-27.79-24.62-39.7-29.38C340,744,349.52,623.34,349.52,528.86V303.36H570.25V142.18h52.4V205.7H895v43.67H622.65v54h293l7.94-1.59,36.52,9.53c-14.29,39.7-31.76,84.17-45.25,112.75l-45.26-11.91c7.94-17.47,15.88-41.29,24.61-64.31H398.74Zm186.59,90.52C583,773.41,559.13,834.54,412.24,867.89c-3.18-11.91-16.67-30.17-27-38.11C515.46,802,532.93,755.94,535.31,620.17Zm237.4-91.31c21.44,0,57.17-.8,73-4.77,1.59,14.29,4,32.56,5.56,44.47-13.5,4-45.26,4.76-75.43,4.76H649.64c-63.51,0-81-20.64-81-77V474.07L440,486.77l-4.76-42.08L568.66,431.2V362.91h50.81v62.73L825.12,404.2l4.76,42.08L619.47,468.51V497.1c0,23.82,5.56,31.76,31.76,31.76Zm92.9,279.48c26.2,0,31-11.91,34.14-101.63,11.12,7.15,31,14.29,45.26,18.26-5.56,102.43-19.85,125.45-74.63,125.45H810.82c-63.52,0-79.39-13.5-79.39-62.72V620.17h50V786.9c0,18.27,4.76,21.44,34.14,21.44Z"/><path d="M397.92,1896.69a98.85,98.85,0,0,1-6.18,13.56v39.59H387.9v-33.35a61.73,61.73,0,0,1-5.46,7,32.86,32.86,0,0,0-2.28-3.9c5.58-5.87,10.8-14.87,14-24Zm34.14,28c-2.1,1.26-4.44,2.64-6.84,3.78,2,6.06,5.82,11.82,10.38,14.52a11.2,11.2,0,0,0-2.64,2.94c-4.62-3.18-8.46-9.42-10.68-16a27.45,27.45,0,0,1-2.76,1.2c2.58,6.84,1.86,14-1,16.68a6.91,6.91,0,0,1-5.22,1.92c-1.08,0-2.4-.06-3.78-.18a9.31,9.31,0,0,0-1-3.42,38.26,38.26,0,0,0,4.14.24,3.66,3.66,0,0,0,3.12-1.14c1.56-1.38,2.22-5.16,1.44-9.36-5.16,4.92-13.08,9.36-19.8,11.7a15.8,15.8,0,0,0-2.34-2.82c7.62-2.28,16.62-7.14,21.3-12.24a35.76,35.76,0,0,0-1.5-3.48,63.52,63.52,0,0,1-17.22,9.9,16.14,16.14,0,0,0-2.22-2.64c5.94-1.8,13.74-5.76,17.88-9.54a16.39,16.39,0,0,0-2.94-3.18,58.44,58.44,0,0,1-13.56,7.26,11.26,11.26,0,0,0-2.22-2.58,52.7,52.7,0,0,0,15.06-7.55H399.48v-9.36c-1.14,1-2.28,2-3.54,2.94a9.37,9.37,0,0,0-2.52-2.58,44.69,44.69,0,0,0,13.86-16.26l3.84.72c-.6,1.2-1.32,2.34-2,3.54h11.1l.72-.18,2.34,1.68a52.13,52.13,0,0,1-4.8,6.84h13.08v12.66H413.94c-.36.36-.78.66-1.2,1a21,21,0,0,1,5.64,6.84,110,110,0,0,0,10.92-6.42ZM407,1902.81a54.58,54.58,0,0,1-4.2,5.16h11.58a37.88,37.88,0,0,0,3.72-5.16Zm-3.9,14.69h10.5v-6.42h-10.5Zm24.72-6.42H417.18v6.42H427.8Z"/><path d="M456,1896.69a104.28,104.28,0,0,1-4.68,11.76V1950h-3.84v-34.31a59.9,59.9,0,0,1-6,8.57,24,24,0,0,0-2.16-4c5.28-6,10.08-15.23,13-24.59Zm8.82,42a47.22,47.22,0,0,1-8,10.92,28.69,28.69,0,0,0-2.88-2.34,33.55,33.55,0,0,0,7.38-10.2Zm10.14-3.06H457.74v-36.71H475Zm-3.6-33.35H461.22v7.8h10.14Zm0,11H461.22v7.85h10.14Zm0,11H461.22v8h10.14Zm-.12,12.71a67.1,67.1,0,0,1,5.4,9.48l-3.12,1.92a64.06,64.06,0,0,0-5.22-9.9Zm12.24-.48h-3.54v-35.09h3.54Zm10.14-40.37v48.95c0,2.4-.6,3.6-2.1,4.2s-4,.72-8.16.72a16,16,0,0,0-1.26-3.72c3.12.12,5.82.06,6.66.06s1.26-.3,1.26-1.2v-49Z"/><path d="M520.8,1931.66c-1.26-1.8-4.2-5.22-6.54-7.8V1950h-3.9v-24.83a51.47,51.47,0,0,1-8.58,7.13,16.52,16.52,0,0,0-1.8-3.72,52.46,52.46,0,0,0,17.64-19.19H501.48v-3.66h18.24l.72-.18,2.22,1.56a59.66,59.66,0,0,1-7.68,12.84c2.4,2.15,7.08,7.07,8.34,8.45Zm-7.32-26.45a36.35,36.35,0,0,0-5.52-7.74l2.88-1.92a35.89,35.89,0,0,1,5.76,7.5Zm37.2,41c1.38,0,1.56-.84,1.74-7.5a11.15,11.15,0,0,0,3.42,1.5c-.36,7.74-1.38,9.54-4.74,9.54h-5.16c-3.84,0-4.8-1.08-4.8-5v-14.52h-5.46c-1,10-3.78,16.44-14.1,20a9.52,9.52,0,0,0-2.22-2.94c9.48-3,11.82-8.58,12.6-17.1h-5.64V1898h25.8v32.15h-7.26v14.52c0,1.26.24,1.5,1.56,1.5ZM530,1907.67h18.36v-6.3H530Zm0,9.54h18.36v-6.36H530Zm0,9.65h18.36v-6.41H530Z"/><path d="M577,1896c-1,2.94-2.1,6.3-3.18,8.88H584v38.75h-16.8v4.8h-3.66v-43.55h6.66a64.68,64.68,0,0,0,2.58-9.72Zm3.3,12.47H567.18v13.08h13.14Zm0,31.56v-14.88H567.18v14.88Zm33.06-33.17c-1,27.53-1.8,36.71-4.2,39.59a5.6,5.6,0,0,1-4.56,2.28,74.94,74.94,0,0,1-8.82-.12,9.42,9.42,0,0,0-1.32-3.9c3.9.36,7.5.36,8.82.36s1.92-.12,2.52-.9c2-2.1,2.94-11.34,3.72-35.7H593.82a55.33,55.33,0,0,1-5.64,10.68,36.22,36.22,0,0,0-3.36-2.22c4.08-5.33,7.32-13.61,9.18-21.89l3.84.84c-.78,3-1.62,6-2.64,8.88h18.18Zm-12.78,27a106.51,106.51,0,0,0-9.3-13.92l3.06-1.79a102.47,102.47,0,0,1,9.6,13.61Z"/><path d="M661.08,1940.78a51.37,51.37,0,0,1-3.54,4.86h17.28v3.12H621.3v-3.12h17a26.79,26.79,0,0,0-2.64-4.74l1.8-.54h-7.86V1930h37v10.38h-6.84ZM648,1921.1H623.64v-23.39h23.7v2.88h-9.6v4h9.06v9.71h-9.06v4H648v1.69a34.47,34.47,0,0,0,10.86-5.46,35.41,35.41,0,0,1-7.2-11.94l2.7-.72h-4.92v-3.36h20.4l.6-.12,2.28.84a33.26,33.26,0,0,1-8.7,15.3,30.57,30.57,0,0,0,10.86,5.57,12.11,12.11,0,0,0-2.4,3.06,32.17,32.17,0,0,1-11.16-6.24,36.81,36.81,0,0,1-11.4,6.12,12.16,12.16,0,0,0-1.92-3Zm-24.24,3.19h48.78v2.93H623.76Zm3.48-23.7v4h7v-4Zm16,6.54h-16v4.5h16Zm-16,11.09h7v-4h-7Zm6.3,19.44h29v-5h-29Zm5.88,2.7a19.32,19.32,0,0,1,2.7,4.74l-1.5.54h14.22l-1-.36a46.44,46.44,0,0,0,3.24-4.92Zm15.48-38.57a29.64,29.64,0,0,0,6.54,10.38,28.25,28.25,0,0,0,6.84-10.38Z"/><path d="M734.52,1943.42v4h-53v-4h29a198.72,198.72,0,0,0,9.12-29.27l4.56.84c-2.64,9-6.18,20.69-9.42,28.43Zm-2.34-32.75H684v-4h48.18Zm-33.9,30c-.9-7-3.54-17.58-5.82-25.55l4-.9a209.86,209.86,0,0,1,6,25.43Zm8.58-34.85a61.85,61.85,0,0,0-2.94-9.66l3.84-1.08a70.16,70.16,0,0,1,3.12,9.54Z"/><path d="M750.6,1924.71c0,7.67-1,18-7.38,24.89a12.17,12.17,0,0,0-3-2.22c5.94-6.48,6.66-15.6,6.66-22.74v-17h16.68v-12.18h4v4.8H788.1v3.3H767.52v4.08h22.14l.6-.12,2.76.72c-1.08,3-2.4,6.36-3.42,8.51l-3.42-.89c.6-1.33,1.2-3.12,1.86-4.87H750.6Zm14.1,6.83c-.18,11.58-2,16.2-13.08,18.72a6.88,6.88,0,0,0-2-2.88c9.84-2.1,11.16-5.58,11.34-15.84Zm17.94-6.9a32.24,32.24,0,0,0,5.52-.35c.12,1.07.3,2.46.42,3.35a28,28,0,0,1-5.7.36H769.56c-4.8,0-6.12-1.56-6.12-5.82v-1.68l-9.72,1-.36-3.17,10.08-1v-5.15h3.84v4.73l15.54-1.61.36,3.18-15.9,1.67v2.17c0,1.79.42,2.39,2.4,2.39Zm7,21.12c2,0,2.34-.9,2.58-7.68a14.56,14.56,0,0,0,3.42,1.38c-.42,7.74-1.5,9.48-5.64,9.48h-8.28c-4.8,0-6-1-6-4.74v-12.66h3.78v12.6c0,1.38.36,1.62,2.58,1.62Z"/><path d="M826.56,1922.42V1950h-3.9v-27.54H812.4c-.18,10.08-1.74,20-8.88,27.9a15.89,15.89,0,0,0-2.94-2.7c6.54-7.2,7.86-16.14,8.1-25.2h-7.92v-3.71h8v-15.9h-7.08v-3.72h30.66v3.72h-5.76v15.9h6.54v3.71Zm-3.9-3.71v-15.9h-10.2v15.9Zm33.18,11.69c-5,8.16-13.68,15.36-23,19.62a14.41,14.41,0,0,0-2.82-3.24c9-3.66,17.58-10.38,22.08-17.82Zm-3.24-32.51c-4.32,5.46-11.16,10.74-17.16,14a15.73,15.73,0,0,0-2.88-2.75c5.76-2.88,12.6-8,16.32-12.78Zm1.8,16.37A65.72,65.72,0,0,1,836,1929.38a20.87,20.87,0,0,0-2.82-2.82c6.18-3.12,13.5-8.64,17.58-13.79Z"/><path d="M866.88,1931c4.68-2,7.26-4.86,7.56-9.17a4,4,0,0,1-1.14.11c-2.34,0-4.26-1.31-4.26-4.07a4,4,0,0,1,4.32-4.08c3.18,0,4.86,2.58,4.86,6.66,0,6.41-4,11.21-10.08,13.43Z"/><path d="M266.76,1979c-1.2,2.46-2.52,5-3.9,7.31h29.22v30.54c0,2.52-.6,3.72-2.46,4.38s-5.16.66-10.38.66a16.63,16.63,0,0,0-1.32-3.9c4.14.18,7.8.12,8.82.12s1.44-.42,1.44-1.32v-6.66H261.9c-.84,4.38-2.58,8.88-6.12,12.24a12.44,12.44,0,0,0-2.76-3.12c5-4.86,5.52-11.52,5.52-17.22v-9.53a50.45,50.45,0,0,1-10.14,9.71,17.42,17.42,0,0,0-2.52-3.12c7.2-4.91,12.66-12.17,16.56-20.09H247.08v-3.78h17a57.7,57.7,0,0,0,2.76-7.8l4,.9a72.7,72.7,0,0,1-2.46,6.9h30.84V1979Zm21.42,27.65v-6.72H262.56V2002c0,1.44-.06,2.94-.18,4.56Zm0-16.73H262.56v6.53h25.62Z"/><path d="M358.86,2014.52v3.9H307.14v-3.9h6.72v-39.71h-6.3V1971H357v3.78H317.94v8.76h33.9v20.51h-33.9v10.44Zm-40.92-27.11v12.89h29.82v-12.89Z"/><path d="M415.26,1973.67v46.49H411v-4.86H375.06v5.16H371v-46.79ZM411,2011.28v-33.59H375.06v33.59Z"/><path d="M442.8,1985.37h11.76v3.71H442.8v4.44c2.64,2,9.66,8.22,11.52,9.84l-2.4,3.3c-1.8-2-6-6.06-9.12-8.94v24.12H439V1995c-3.24,7.2-7.68,14.34-11.88,18.54a20.76,20.76,0,0,0-2.16-3.72c4.86-4.56,10.2-13,13.14-20.76H426.24v-3.71H439v-10.62c-4,.72-8.1,1.38-11.88,1.86a10.36,10.36,0,0,0-1.26-3.18c8.82-1.26,19.44-3.3,25-5.7l3,3a65.55,65.55,0,0,1-11,3.18Zm16-11h3.9v32.81h-3.9Zm18.72-5.88v48c0,2.82-.84,4.08-2.58,4.74-1.92.66-5.16.78-10.62.72a19,19,0,0,0-1.5-4c4.32.12,8,.06,9.18.06s1.56-.42,1.56-1.56v-48Z"/><path d="M539.1,1995H525.48v21.54c0,2.82-.78,4-2.58,4.68s-5,.84-10.2.78a14.26,14.26,0,0,0-1.56-4.08c4,.12,7.68.06,8.76,0s1.44-.3,1.44-1.38v-21.18c-7.92,9.84-20.94,19.08-32.28,23.82a17.49,17.49,0,0,0-2.82-3.42c10.68-4,23-12.24,30.54-20.76H494.4V1995h-2.7a203.65,203.65,0,0,0,4.8-20.45h-6v-3.84h45.78v3.84h-10.8v16.67H539.1Zm-38.34-20.51c-1.08,5.28-2.52,11.7-3.84,16.67h24.42v-16.67Z"/><path d="M566.52,2000.06l-3.66,3.12a93.63,93.63,0,0,0-13.32-13.38l3.42-3.11A118.53,118.53,0,0,1,566.52,2000.06Z"/><path d="M630,2014H619.32v8h-4.14v-8H576.24v-4h10.2v-35h-9v-3.84h51.24V1975h-9.36v35H630Zm-39.42-39v8.82h24.6V1975Zm0,21.53h24.6v-9h-24.6Zm24.6,13.5v-9.84h-24.6V2010Z"/><path d="M656.52,2000.06l-3.66,3.12a93.63,93.63,0,0,0-13.32-13.38l3.42-3.11A118.53,118.53,0,0,1,656.52,2000.06Z"/><path d="M681.3,2017.46c0,2-.42,3.12-1.62,3.72s-3.24.72-6.42.72a14.26,14.26,0,0,0-1.14-3.54c2.34.06,4.26.06,4.92,0s.9-.18.9-1v-17.22c-1.56,1.32-3.06,2.64-4.62,3.9l-1.62-3c-.42,7.26-1.38,14.94-3.6,20.88a15.61,15.61,0,0,0-2.94-1.68c3.24-8.52,3.48-20.58,3.48-29.28v-21.47H681.3ZM671.94,1991c0,2.94-.06,6.3-.24,9.84,1.74-1.08,3.9-2.7,6.24-4.38v-8.09l-1.62,1.31a38.55,38.55,0,0,0-4.38-5.76Zm0-17.75v9.9l1.86-1.26a41.75,41.75,0,0,1,4.14,4.74v-13.38Zm24.06,7.14c-.24.84-.54,1.61-.78,2.46,3.72,4.73,8.1,10.86,10,14.63l-2.7,2.16a93.59,93.59,0,0,0-8.76-13.49,39.5,39.5,0,0,1-9.12,13.43,13.73,13.73,0,0,0-2.64-2.52c4.68-3.89,8.64-10.56,10.62-17.57Zm-3.66-10.92a43.07,43.07,0,0,1-7.08,14.4,16.68,16.68,0,0,0-2.76-2.1c2.88-3.24,5.16-8.16,6.48-13Zm-6.12,29.16h15.24V2021h-3.3v-3.48H689.4v3.72h-3.18Zm3.18,3.59V2014h8.76v-11.76Zm12-19a61.47,61.47,0,0,0-6.24-13.5l2.94-1c2.64,4.2,5.46,9.78,6.42,13.2ZM718.14,2008c0,1.8-.3,2.82-1.5,3.42s-2.94.66-5.46.66a11.14,11.14,0,0,0-1.14-3.36c1.92.06,3.6.06,4.08,0s.72-.18.72-.78v-33.59H708.9V2022h-3.18v-51.17h12.42Z"/><path d="M746.52,2000.06l-3.66,3.12a93.63,93.63,0,0,0-13.32-13.38l3.42-3.11A118.53,118.53,0,0,1,746.52,2000.06Z"/><path d="M781,1985.91c-8.58,1.55-17.4,3.3-23.82,4.43l-.66-3.42c4.32-.66,10.14-1.67,16.32-2.75V1976H758v-3.3H772.8v-5.34h4v16.26l4-.72Zm20.4,31.55c0,2.28-.6,3.36-2.34,4s-4.86.66-9.6.66a16.27,16.27,0,0,0-1.32-3.6c3.54.12,7,.12,7.92.12s1.26-.36,1.26-1.2v-8c-9.06,1.86-18.78,3.72-25.92,4.92l-1.32-3.54c6.84-1,17.34-2.88,27.24-4.74v-11.21H769.14v7.43c0,6.3-1.2,14.64-7.74,20.16a12.58,12.58,0,0,0-2.88-2.76c5.94-5.1,6.72-11.94,6.72-17.46v-10.79h36.12Zm-29.46-20.21c6.6,1.07,15.18,3.35,19.68,5.45l-1.38,3.12a103.06,103.06,0,0,0-19.8-5.82Zm31.26-12c2.1,0,2.52-.72,2.7-5.17a13.28,13.28,0,0,0,3.6,1.39c-.42,5.7-1.68,7.25-5.94,7.25H793.14c-5.46,0-6.9-1.14-6.9-5.39v-16h4v5.28h15.18v3.3H790.26v7.38c0,1.55.48,1.92,3.24,1.92Z"/><path d="M832.14,1985h10.74v3.72H832.14v1.62c2.22,2.39,8.7,10,10.14,11.87l-2.46,3.24a129,129,0,0,0-7.68-10.49v26.93h-4v-27.17c-3,7.07-7.2,14.21-11.1,18.41a28.3,28.3,0,0,0-2.22-3.66c4.56-4.62,9.6-13.08,12.36-20.75H816.24V1985h11.88v-10.32c-3.42.54-6.9,1-10.14,1.44a15.29,15.29,0,0,0-1.08-3.18c7.92-1.08,17.52-2.82,22.68-5l2.76,3.12a83.55,83.55,0,0,1-10.2,2.82Zm34.74-12.06V2019h-4v-4.56h-14v5H845v-46.49Zm-4,37.67v-33.83h-14v33.83Z"/><path d="M926.88,2002.64a97.41,97.41,0,0,1-13.44,8.1,42.76,42.76,0,0,0,17.64,7.26,14.08,14.08,0,0,0-2.46,3.48c-13.74-3-23.34-10.38-28.56-21.72h-9.78v16.62l16.8-4.08c-.12,1-.18,2.64-.18,3.48-17,4.44-20,5.22-21.3,6l-.3.18a16.11,16.11,0,0,0-1.86-3.84,4.87,4.87,0,0,0,2.94-4.26v-14.1h-10v-3.66H887v-26.33h36.9v3.42H891.06v5.52H922V1982h-30.9v5.34H922v3.3h-30.9v5.46h38.58v3.66H904.08a30.21,30.21,0,0,0,6.72,8.82,90.28,90.28,0,0,0,12.78-8.1Z"/><path d="M945.3,1984.46v3.25c0,10-.78,24.41-6.66,34.19a15.57,15.57,0,0,0-3.48-2c5.64-9.36,6.18-22.68,6.18-32.1v-17.51H985.8v14.21Zm0-10.67v7.14h36.48v-7.14Zm37,43.67c2.7,0,3.18-1.14,3.48-6.78a13.21,13.21,0,0,0,3.66,1.56c-.6,7-1.8,8.88-6.9,8.88H970c-6,0-7.68-1.32-7.68-6.3v-4.92l-15.72,2.46L946,2009l16.32-2.52v-5.88l-13.62,2.1-.66-3.24,14.28-2.28v-5.46c-4.26.78-8.7,1.38-12.78,1.92a13.47,13.47,0,0,0-1.14-2.93c10.14-1.33,22-3.48,28.26-5.88l3.42,2.63a106.83,106.83,0,0,1-13.86,3.54v5.64L983.4,1994l.6,3.25L966.18,2000v5.88l21.48-3.36.6,3.3-22.08,3.48v5.46c0,2.22.66,2.7,4,2.7Z"/><path d="M1008.18,1985.67a9.06,9.06,0,1,1-9.06,9A9.09,9.09,0,0,1,1008.18,1985.67Zm0,15.23a6.18,6.18,0,1,0,0-12.36,6.18,6.18,0,1,0,0,12.36Z"/><rect class="cls-2" x="1113" y="448" width="65" height="126" rx="12"/><path class="cls-1" d="M1132.7,477.82c1.25,1.6,4.9,6.7,5.7,8.05l-2,2.45c-.7-1.5-2.35-4.4-3.75-6.65V508h-3.15V483.57c-1.5,5.05-3.5,9.9-5.55,12.85a14.83,14.83,0,0,0-1.75-3.1c2.9-4,5.8-11.5,7.2-18h-6.2v-3.15h6.3v-9.65h3.15v9.65h5.45v3.15h-5.45Zm19.1.7a19.47,19.47,0,0,0,.45,2.65c-10.15,2.7-11.6,3.15-12.5,3.75a12.13,12.13,0,0,0-1.1-3.2c.7-.2,1.55-.5,1.55-2.2v-16.7h3.25v6.5h8.35v2.9h-8.35v8.3Zm2.35,5.5-2,3.75h12.65V508h-3.4v-1.75h-17v2h-3.3V487.77h7.9c.55-1.5,1.2-3.25,1.55-4.6Zm7.3,6.5h-17v5.05h17Zm0,13v-5.3h-17v5.3Zm2.25-22.4c1.25,0,1.5-.75,1.65-5.25a9.16,9.16,0,0,0,2.85,1.25c-.3,5.45-1.2,6.95-4.15,6.95h-5.85c-3.65,0-4.55-.95-4.55-4.45V462.87h3.25v6.5h10.2v2.9h-10.2v7.35c0,1.3.25,1.5,1.65,1.5Z"/><path class="cls-1" d="M1167.55,537.87v2.5H1123.4v-2.5h20.25v-3.2H1126.8v-2.3h16.85v-3H1128.2v-2.25h15.45v-3.2H1123.5v-2.5h20.15v-3H1128.8V516h14.85v-3.55h3.25V516h14.45v5.4h6.15v2.5h-6.15v5.45H1146.9v3h17.3v2.3h-17.3v3.2Zm-37.75,5h31.75v15.25h-3.25v-1.6H1133v1.7h-3.2Zm3.2,2.4v3.2h25.3v-3.2Zm25.3,8.85v-3.4H1133v3.4Zm-11.4-32.7h11.15v-3H1146.9Zm0,5.7h11.15v-3.2H1146.9Z"/><rect class="cls-2" x="1113" y="1273" width="65" height="271" rx="12"/><path class="cls-1" d="M1158.05,1312.79a27.61,27.61,0,0,0,11.5,8.1,11.65,11.65,0,0,0-2.15,2.55,30.77,30.77,0,0,1-12.8-10.65h-15.95a34.39,34.39,0,0,1-13,11.3,11.43,11.43,0,0,0-2.15-2.55,30.39,30.39,0,0,0,11.6-8.75H1124v-2.85h10v-16.15h-7.7V1291h7.7v-5h3.3v5h18.55v-5h3.35v5h7.65v2.8h-7.65v16.15h9.8v2.85Zm-10,14.5h17.3v2.85H1127.8v-2.85h16.9v-5.6h-10.45v-2.8h10.45v-4.4h3.35v4.4h10.65v2.8h-10.65Zm-10.8-33.5v3.6h18.55v-3.6Zm0,9.8h18.55v-3.65h-18.55Zm0,6.35h18.55v-3.8h-18.55Z"/><path class="cls-1" d="M1142.25,1354.54s0,1.15,0,1.55c-.6,15.85-1.2,21.2-2.6,23a3.71,3.71,0,0,1-2.8,1.45,32.65,32.65,0,0,1-4.45,0,9.25,9.25,0,0,0-.85-3c1.75.15,3.2.15,3.9.15a1.42,1.42,0,0,0,1.45-.65c1-1.2,1.6-6,2.15-19.35h-6.8c-.55,10-2,18.25-6.45,23.65a9.53,9.53,0,0,0-2.55-2.35c5.45-6.45,5.9-17.85,6.1-31.55h-5.2v-3.1h20.1v3.1h-11.65c0,2.45-.1,4.85-.2,7.15Zm-7.9-10.45a33.47,33.47,0,0,0-4.25-7.15l2.9-1.15a31.92,31.92,0,0,1,4.4,7Zm23.85-7.45a15.26,15.26,0,0,1-.85,2.55c2.65,5.45,7.7,11.35,12.45,14a13,13,0,0,0-2.45,2.75c-4.25-2.7-8.5-8-11.4-13.3a32.61,32.61,0,0,1-11,13.6,12.79,12.79,0,0,0-2.35-2.65c5.85-3.6,10.35-10.2,12.5-17.85Zm-8.3,32.45a74,74,0,0,1,13.6,8.25l-2.25,2.9c-2.85-2.6-8.75-6.3-13.4-8.65Zm9.5-4.85a66.22,66.22,0,0,0-8.6-6.85l2.15-2.2a67.46,67.46,0,0,1,8.75,6.55Z"/><path class="cls-1" d="M1165,1389.19v29.3h-3.5v-2.55h-13.3v15.6h-3.45v-15.6h-13.4v2.75H1128v-29.5Zm-33.65,3.2V1401h13.4v-8.65Zm13.4,20.35v-8.5h-13.4v8.5Zm16.75-20.35h-13.3V1401h13.3Zm0,20.35v-8.5h-13.3v8.5Z"/><path class="cls-1" d="M1167.25,1451.09v9.3h-3.15V1454h-35.4v6.4h-3v-9.3h6.95v-12.95h27.7v12.95Zm-6.45,26.6c0,1.85-.45,2.7-1.85,3.2s-3.9.5-7.7.45a8.57,8.57,0,0,0-1.1-2.75c3,.05,5.65.05,6.4.05s1-.25,1-1v-6.2c-7.3,1.45-14.85,3-20.45,4l-1.1-3c5.4-.8,13.6-2.3,21.55-3.75V1460h-22.2v5.3c0,4.85-.65,11.55-4.35,16.2a13.29,13.29,0,0,0-2.7-2c3.45-4.25,3.85-10,3.85-14.25v-8h28.6Zm-25-26.6h7.45v-6.9H1157v-3.35h-21.2Zm2.45,11.7a75.14,75.14,0,0,1,17.7,3l-.9,2.6c-4-1.5-11.7-2.9-17.7-3.35Zm18.75-16.3h-10.75v4.6H1157Z"/><path class="cls-1" d="M1161,1498.09a51.83,51.83,0,0,1-12,19.6,49.94,49.94,0,0,0,20.5,10.5,16.79,16.79,0,0,0-2.25,3,50.92,50.92,0,0,1-20.75-11.1c-5.65,5-12.55,8.6-21,11.3a15.53,15.53,0,0,0-2-3.05c8.35-2.45,15.1-5.9,20.6-10.6a57.05,57.05,0,0,1-12.2-19.65h-7.75v-3.25h44.75v3.25Zm-25.75,0a52.13,52.13,0,0,0,11.3,17.3,47.46,47.46,0,0,0,10.7-17.3Zm11.25-3.55a38.13,38.13,0,0,0-3.8-7.8l3.4-1a39,39,0,0,1,4,7.65Z"/><path d="M552.35,1270.8c-18.08,47.39-36,95.58-43.14,146a352.12,352.12,0,0,0-3.89,43,275.14,275.14,0,0,0,3,43.58,207.93,207.93,0,0,0,24.34,72.48c12.22,21.88,27.42,42.17,37.24,65.34l-2.57-6.09a102.25,102.25,0,0,1,7.28,25.4l-.91-6.78a56,56,0,0,1,.24,14.29l.91-6.78a43.11,43.11,0,0,1-2.87,10.57l2.57-6.1a45.2,45.2,0,0,1-5.64,9.55l4-5.16a58.55,58.55,0,0,1-10.3,10.09l5.16-4a97.14,97.14,0,0,1-20.95,11.82l6.09-2.57c-18.29,7.68-38.07,11.86-57.66,14.49l6.78-.91c-35,4.62-70.59,3.77-105.69.43q-15.1-1.44-30.15-3.48l6.78.91c-25.32-3.41-50.47-7.92-75.51-13-6.77-1.37-13.55-1-19.65,2.57-5.29,3.1-10.34,9.16-11.72,15.24-1.49,6.53-1.17,13.85,2.57,19.65,3.46,5.36,8.76,10.41,15.24,11.72,36,7.27,72.32,13.37,108.9,17,35,3.5,70.52,4.63,105.52.38,16.92-2,33.77-4.78,50.16-9.56a168.44,168.44,0,0,0,17.73-6.21c7.67-3.19,15.27-6.44,22.27-11,6.59-4.25,13.14-9.18,18.38-15.07a75.79,75.79,0,0,0,15-25,42.63,42.63,0,0,0,2.17-8.63c.8-5.31,1.55-10.5,1.24-15.85a112.56,112.56,0,0,0-5.07-27.9c-5.43-16.76-13.87-32.4-23-47.4-8.23-13.56-17.08-26.81-24.32-41-1.69-3.31-3.28-6.68-4.74-10.1l2.57,6.09a197.84,197.84,0,0,1-13.3-49.91l.91,6.78c-3.08-23.22-2.42-46.72.67-69.89l-.91,6.78c5.44-40.1,17.78-78.88,31.6-116.78,3.85-10.58,7.84-21.11,11.85-31.64a19.21,19.21,0,0,0,.46-10.16,18.9,18.9,0,0,0-3-9.49c-3.09-5.29-9.16-10.33-15.24-11.71-6.52-1.49-13.85-1.17-19.65,2.57l-5.16,4a25.52,25.52,0,0,0-6.55,11.26Z"/><path d="M796.42,1646.35c-1.76,2.46-3.56,4.9-5.42,7.29l4-5.16a184.94,184.94,0,0,1-33.32,33l5.16-4c-10.84,8.37-22,16.3-34.67,21.7l6.1-2.57a93.32,93.32,0,0,1-23.55,6.57l6.77-.91a80.52,80.52,0,0,1-21-.08l6.78.91a105,105,0,0,1-26.1-7.4l6.09,2.57a151,151,0,0,1-32.9-19.27l5.16,4a147.47,147.47,0,0,1-26.6-26.47l4,5.16a126.89,126.89,0,0,1-16.3-27.67l2.57,6.09q-1.23-2.92-2.3-5.91a24.57,24.57,0,0,0-21.2-18.27,19.44,19.44,0,0,0-10.17.46l-6.09,2.57a25.71,25.71,0,0,0-9.15,9.15l-2.57,6.09a25.78,25.78,0,0,0,0,13.56,150.3,150.3,0,0,0,14,29.34,192.07,192.07,0,0,0,11.44,15.79q4.14,5.34,8.77,10.26A186.36,186.36,0,0,0,631,1724.76a150.57,150.57,0,0,0,23.1,14.09c11,5.41,22.59,10.2,34.66,12.55a120.12,120.12,0,0,0,22.37,2.5,115.88,115.88,0,0,0,21.42-2.26,90.79,90.79,0,0,0,14.29-3.93,153.62,153.62,0,0,0,19.47-8.51c8.68-4.58,16.63-10.36,24.43-16.29,8.52-6.47,16.94-13.05,24.59-20.54s14.44-16,21-24.58c1.43-1.88,2.82-3.78,4.2-5.7a19,19,0,0,0,3-9.48,19.34,19.34,0,0,0-.45-10.17,28.62,28.62,0,0,0-11.72-15.24l-6.09-2.57a25.58,25.58,0,0,0-13.56,0l-6.09,2.57a25.63,25.63,0,0,0-9.15,9.15Z"/><path d="M387.65,1082.59c26.15,4.11,52.18,9.8,77.22,18.48q9.09,3.17,18,6.88l-6.09-2.57a216.88,216.88,0,0,1,36.93,19.69q4.46,3,8.71,6.28l-5.16-4a139.94,139.94,0,0,1,25.23,25l-4-5.16a121.3,121.3,0,0,1,15.65,26.77l-2.57-6.09a131.28,131.28,0,0,1,8.92,33.21l-.91-6.78a173.48,173.48,0,0,1,.7,37.36q-.46,5.56-1.22,11.11L560,1236c-.84,6.27-1.94,12.5-3.24,18.69-1.42,6.72-2.86,13.51-5.51,19.87l2.57-6.09a77.42,77.42,0,0,1-10,16.93l4-5.16a118.5,118.5,0,0,1-21.34,20.88l5.16-4a204.7,204.7,0,0,1-37,22.28q-5.65,2.7-11.44,5.14l6.09-2.58a291.78,291.78,0,0,1-54.22,17c-6.65,1.37-13.36,2.49-20.09,3.4l6.77-.91c-26.55,3.52-53.46,3.55-80.12,1.23q-11.38-1-22.73-2.52l6.78.92q-13.57-1.83-27-4.31a19.34,19.34,0,0,0-10.17-.46,22.89,22.89,0,0,0-16.64,9.6,19.22,19.22,0,0,0-4.56,8.67c-1.49,6.53-1.17,13.85,2.57,19.65,3.42,5.3,8.79,10.54,15.24,11.72,32.88,6,66.42,9.94,99.89,9.26a369.39,369.39,0,0,0,53.09-5.1,281.5,281.5,0,0,0,39.86-9.73,352.89,352.89,0,0,0,38.14-14.93,227.4,227.4,0,0,0,31.25-17.08,224.16,224.16,0,0,0,18.82-14,122,122,0,0,0,12-11.26,132.3,132.3,0,0,0,13.49-17.18,102.25,102.25,0,0,0,9.46-19.31,98,98,0,0,0,3.9-13.79c1-4.25,1.84-8.53,2.61-12.82a294.32,294.32,0,0,0,4-31.58,185.35,185.35,0,0,0-4-52.68,127.67,127.67,0,0,0-6.6-20.92c-3.68-8.87-7.6-17.47-12.86-25.53a163.07,163.07,0,0,0-18-22.83c-7.13-7.53-15.16-14-23.44-20.23-17-12.79-36.23-21.92-55.93-29.73-22.42-8.88-45.88-15-69.53-19.55-6.64-1.29-13.3-2.44-20-3.49A19.3,19.3,0,0,0,391,1033a18.92,18.92,0,0,0-9.48,3,28.49,28.49,0,0,0-11.72,15.24c-1.49,6.53-1.17,13.86,2.57,19.65l4,5.16a25.54,25.54,0,0,0,11.26,6.56Z"/><path d="M394.69,1273.67q33.63-2.46,67.25-5.26t67.34-6q18.9-1.76,37.8-3.63a28.38,28.38,0,0,0,18-7.47,28.44,28.44,0,0,0,7.47-18l-.91-6.78a25.45,25.45,0,0,0-6.56-11.25l-5.16-4a25.32,25.32,0,0,0-12.87-3.48q-33.68,3.33-67.38,6.33t-67.31,5.64q-18.84,1.5-37.7,2.87a28.43,28.43,0,0,0-18,7.47,28.36,28.36,0,0,0-7.46,18l.91,6.78a25.43,25.43,0,0,0,6.55,11.25l5.17,4a25.27,25.27,0,0,0,12.87,3.48Z"/><path d="M368.56,1058.09q-.84,26.82-.58,53.65a24.61,24.61,0,0,0,15.68,23.3,19.16,19.16,0,0,0,9.82,2.2l6.78-.91a25.45,25.45,0,0,0,11.25-6.56c4.56-5,7.54-11.15,7.47-18q-.25-26.84.58-53.65a24.61,24.61,0,0,0-15.68-23.3,19.18,19.18,0,0,0-9.82-2.2l-6.78.91a25.55,25.55,0,0,0-11.25,6.56l-4,5.16a25.32,25.32,0,0,0-3.48,12.87Z"/><path d="M367.86,1191.94q-.84,26.8-.58,53.64A24.66,24.66,0,0,0,383,1268.89a19.32,19.32,0,0,0,9.83,2.19l6.78-.91a25.45,25.45,0,0,0,11.25-6.56c4.55-5,7.53-11.14,7.47-18q-.27-26.82.58-53.64a24.64,24.64,0,0,0-15.68-23.31,19.28,19.28,0,0,0-9.82-2.19l-6.78.91a25.54,25.54,0,0,0-11.26,6.56l-4,5.16a25.27,25.27,0,0,0-3.48,12.87Z"/><path d="M508.15,1242.16q6.79-10.85,14.62-21l-4,5.16a230.24,230.24,0,0,1,29.79-32q4.7-4.14,9.66-8l-5.17,4A159.87,159.87,0,0,1,588,1169.68l-6.09,2.57a126.85,126.85,0,0,1,32.09-8.88l-6.77.91a119.77,119.77,0,0,1,31.48,0l-6.77-.91a112.15,112.15,0,0,1,28.11,7.19L654,1168a61,61,0,0,1,13.21,7.68l-5.16-4a49.2,49.2,0,0,1,8.52,8.42l-4-5.16a36.17,36.17,0,0,1,4.68,8l-2.57-6.09a28.84,28.84,0,0,1,1.92,7l-.91-6.78a26.67,26.67,0,0,1,0,6.68l.91-6.78a28.57,28.57,0,0,1-1.93,7l2.57-6.09a35.86,35.86,0,0,1-4.55,7.65l4-5.16a48.62,48.62,0,0,1-8.29,8.18l5.16-4a70,70,0,0,1-15.64,8.8l6.09-2.57c-13.17,5.52-27.13,8.61-41.24,10.51l6.78-.91c-15.16,2-30.44,2.84-45.69,3.77a26.19,26.19,0,0,0-25.5,25.5l.91,6.78a25.45,25.45,0,0,0,6.56,11.25l5.16,4a25.27,25.27,0,0,0,12.87,3.48c8.06-.49,16.12-1,24.17-1.59,9.54-.73,19-1.83,28.5-3.12,13.84-1.88,27.57-4.88,40.5-10.25a141.59,141.59,0,0,0,15.11-6.86,95.52,95.52,0,0,0,13.53-9.69,47.06,47.06,0,0,0,7-7.07c3.26-4.13,6.55-8.12,8.65-13a69.06,69.06,0,0,0,4-10.21c.18-.73.33-1.47.45-2.21.47-2.93.93-5.89,1.16-8.84a26,26,0,0,0,0-4.32,71.08,71.08,0,0,0-1.62-10.84,70.21,70.21,0,0,0-3.89-10,33.47,33.47,0,0,0-2-3.93,38.92,38.92,0,0,0-2.62-3.89,102.49,102.49,0,0,0-6.88-8.55,86.42,86.42,0,0,0-12.26-10.17,58.76,58.76,0,0,0-8.68-5.22,119.55,119.55,0,0,0-26.2-9.19q-5.16-1.17-10.4-1.92c-5.58-.78-11.15-1.57-16.78-1.89a118.22,118.22,0,0,0-19.73.55,164.44,164.44,0,0,0-25.4,4.53,176.91,176.91,0,0,0-23.74,8.86A158.74,158.74,0,0,0,528,1145.77c-6.71,5.12-13.3,10.34-19.49,16.09-4.61,4.27-9,8.75-13.25,13.39a297.89,297.89,0,0,0-26.51,34q-2.4,3.55-4.68,7.2a19,19,0,0,0-3,9.48,19.34,19.34,0,0,0,.45,10.17,28.62,28.62,0,0,0,11.72,15.24l6.09,2.57a25.78,25.78,0,0,0,13.56,0l6.09-2.57a25.71,25.71,0,0,0,9.15-9.15Z"/><path class="cls-2" d="M88.09,1119.85v3.9H36.37v-3.9h6.72v-39.72h-6.3v-3.78H86.23v3.78H47.17v8.76h33.9v20.52H47.17v10.44Zm-40.92-27.12v12.9H77v-12.9Z"/><path class="cls-2" d="M144.49,1079v46.5h-4.26v-4.86H104.29v5.16h-4.08V1079Zm-4.26,37.62V1083H104.29v33.6Z"/><path class="cls-2" d="M172,1090.69h11.76v3.72H172v4.44c2.64,2,9.66,8.22,11.52,9.84l-2.4,3.3c-1.8-2-6-6.06-9.12-8.94v24.12h-3.84v-26.82c-3.24,7.2-7.68,14.34-11.88,18.54a20.76,20.76,0,0,0-2.16-3.72c4.86-4.56,10.2-13,13.14-20.76H155.47v-3.72h12.72v-10.62c-4,.72-8.1,1.38-11.88,1.86a10.36,10.36,0,0,0-1.26-3.18c8.82-1.26,19.44-3.3,25-5.7l3,3a65.55,65.55,0,0,1-11,3.18Zm16-11h3.9v32.82H188Zm18.72-5.88v48.06c0,2.82-.84,4.08-2.58,4.74-1.92.66-5.16.78-10.62.72a19,19,0,0,0-1.5-4c4.32.12,8,.06,9.18.06s1.56-.42,1.56-1.56v-48.06Z"/><path class="cls-2" d="M268.33,1100.35H254.71v21.54c0,2.82-.78,4-2.58,4.68s-5,.84-10.2.78a14.26,14.26,0,0,0-1.56-4.08c4,.12,7.68.06,8.76,0s1.44-.3,1.44-1.38v-21.18c-7.92,9.84-20.94,19.08-32.28,23.82a17.49,17.49,0,0,0-2.82-3.42c10.68-4,23-12.24,30.54-20.76H223.63v-.06h-2.7a203.88,203.88,0,0,0,4.8-20.46h-6V1076h45.78v3.84h-10.8v16.68h13.62ZM230,1079.83c-1.08,5.28-2.52,11.7-3.84,16.68h24.42v-16.68Z"/><path class="cls-2" d="M50.53,1513.79c0,2-.42,3.12-1.62,3.72s-3.24.72-6.42.72a14.26,14.26,0,0,0-1.14-3.54c2.34.06,4.26.06,4.92,0s.9-.18.9-1v-17.22c-1.56,1.32-3.06,2.64-4.62,3.9l-1.62-3c-.42,7.26-1.38,14.94-3.6,20.88a15.61,15.61,0,0,0-2.94-1.68c3.24-8.52,3.48-20.58,3.48-29.28v-21.48H50.53Zm-9.36-26.46c0,2.94-.06,6.3-.24,9.84,1.74-1.08,3.9-2.7,6.24-4.38v-8.1L45.55,1486a37.55,37.55,0,0,0-4.38-5.76Zm0-17.76v9.9l1.86-1.26a41.75,41.75,0,0,1,4.14,4.74v-13.38Zm24.06,7.14c-.24.84-.54,1.62-.78,2.46,3.72,4.74,8.1,10.86,10,14.64l-2.7,2.16a93.08,93.08,0,0,0-8.76-13.5,39.64,39.64,0,0,1-9.12,13.44,13.15,13.15,0,0,0-2.64-2.52c4.68-3.9,8.64-10.56,10.62-17.58Zm-3.66-10.92a43.07,43.07,0,0,1-7.08,14.4,16.68,16.68,0,0,0-2.76-2.1c2.88-3.24,5.16-8.16,6.48-13ZM55.45,1495H70.69v22.38h-3.3v-3.48H58.63v3.72H55.45Zm3.18,3.6v11.76h8.76v-11.76Zm12-19a61.47,61.47,0,0,0-6.24-13.5l2.94-1c2.64,4.2,5.46,9.78,6.42,13.2Zm16.74,24.72c0,1.8-.3,2.82-1.5,3.42s-2.94.66-5.46.66a11.14,11.14,0,0,0-1.14-3.36c1.92.06,3.6.06,4.08,0s.72-.18.72-.78v-33.6H78.13v47.64H75v-51.18H87.37Z"/><path class="cls-2" d="M973.19,1440.23c-8.58,1.56-17.4,3.3-23.82,4.44l-.66-3.42c4.32-.66,10.14-1.68,16.32-2.76v-8.22H950.21V1427H965v-5.34h4v16.26l4-.72Zm20.4,31.56c0,2.28-.6,3.36-2.34,4s-4.86.66-9.6.66a16.27,16.27,0,0,0-1.32-3.6c3.54.12,7,.12,7.92.12s1.26-.36,1.26-1.2v-8c-9.06,1.86-18.78,3.72-25.92,4.92l-1.32-3.54c6.84-1,17.34-2.88,27.24-4.74v-11.22H961.37v7.44c0,6.3-1.2,14.64-7.74,20.16a12.58,12.58,0,0,0-2.88-2.76c5.94-5.1,6.72-11.94,6.72-17.46v-10.8h36.12Zm-29.46-20.22c6.6,1.08,15.18,3.36,19.68,5.46l-1.38,3.12a103.06,103.06,0,0,0-19.8-5.82Zm31.26-12c2.1,0,2.52-.72,2.7-5.16a13.6,13.6,0,0,0,3.6,1.38c-.42,5.7-1.68,7.26-5.94,7.26H985.37c-5.46,0-6.9-1.14-6.9-5.4v-16h4V1427h15.18v3.3H982.49v7.38c0,1.56.48,1.92,3.24,1.92Z"/><path class="cls-2" d="M1002.23,1210.31H991.55v8h-4.14v-8H948.47v-4h10.2v-35h-9v-3.84h51.24v3.84h-9.36v35h10.68Zm-39.42-39v8.82h24.6v-8.82Zm0,21.54h24.6v-9h-24.6Zm24.6,13.5v-9.84h-24.6v9.84Z"/><path class="cls-2" d="M999.11,1690a97.41,97.41,0,0,1-13.44,8.1,42.76,42.76,0,0,0,17.64,7.26,14.08,14.08,0,0,0-2.46,3.48c-13.74-3-23.34-10.38-28.56-21.72h-9.78v16.62l16.8-4.08c-.12,1-.18,2.64-.18,3.48-17,4.44-20,5.22-21.3,6l-.3.18a16.11,16.11,0,0,0-1.86-3.84,4.87,4.87,0,0,0,2.94-4.26v-14.1h-10v-3.66h10.56v-26.34h36.9v3.42H963.29V1666h30.9v3.3h-30.9v5.34h30.9v3.3h-30.9v5.46h38.58v3.66H976.31a30.21,30.21,0,0,0,6.72,8.82,90.28,90.28,0,0,0,12.78-8.1Z"/><path class="cls-2" d="M1017.53,1671.79V1675c0,10-.78,24.42-6.66,34.2a15.57,15.57,0,0,0-3.48-2c5.64-9.36,6.18-22.68,6.18-32.1v-17.52H1058v14.22Zm0-10.68v7.14H1054v-7.14Zm37,43.68c2.7,0,3.18-1.14,3.48-6.78a13.21,13.21,0,0,0,3.66,1.56c-.6,7-1.8,8.88-6.9,8.88h-12.54c-6,0-7.68-1.32-7.68-6.3v-4.92l-15.72,2.46-.6-3.36,16.32-2.52v-5.88l-13.62,2.1-.66-3.24,14.28-2.28v-5.46c-4.26.78-8.7,1.38-12.78,1.92a13.55,13.55,0,0,0-1.14-2.94c10.14-1.32,22-3.48,28.26-5.88l3.42,2.64a110.17,110.17,0,0,1-13.86,3.54V1684l17.22-2.64.6,3.24-17.82,2.76v5.88l21.48-3.36.6,3.3-22.08,3.48v5.46c0,2.22.66,2.7,4,2.7Z"/><path class="cls-2" d="M109.3,1478.47c26.15-5.42,51.81-13.87,75.48-26.34,18.85-9.93,36.58-22.51,51.06-38.22a128.2,128.2,0,0,0,17.84-24.34c.7-1.27-1.24-2.4-2-1.14-9.08,16.3-22.14,30.11-36.74,41.6-18.38,14.46-39.46,25.38-61.33,33.49a310.48,310.48,0,0,1-45,12.78c-1.42.29-.82,2.46.6,2.17Z"/><path class="cls-2" d="M108.92,1504.08a120.31,120.31,0,0,1,36.3,18.07A191.12,191.12,0,0,1,178,1552.42a295.69,295.69,0,0,1,27.73,38,467.93,467.93,0,0,1,23.18,42.26c7.34,15,14,30.35,20.37,45.82q1.19,2.91,2.36,5.83c.53,1.33,2.71.75,2.17-.6-6.3-15.66-12.94-31.2-20.19-46.45-7-14.79-14.64-29.33-23.11-43.36a314.24,314.24,0,0,0-27.28-38.79,204.08,204.08,0,0,0-32.57-31.73,128.47,128.47,0,0,0-36.45-20q-2.32-.78-4.67-1.45a1.12,1.12,0,0,0-.6,2.16Z"/><path class="cls-2" d="M924.38,1457.41c-19.42-.08-38.82-.92-58.19-2.18s-38.7-2.91-58-4.6-38.55-3.41-57.85-4.81-38.43-2.44-57.68-2.79-38.37,0-57.5,1.43q-3.57.27-7.14.58c-1.43.13-1.44,2.38,0,2.25,19.11-1.69,38.3-2.28,57.48-2.11s38.46,1.09,57.65,2.39,38.57,3,57.83,4.68,38.65,3.4,58,4.75,38.76,2.33,58.17,2.6c2.42,0,4.83.05,7.25.06a1.13,1.13,0,0,0,0-2.25Z"/><path class="cls-2" d="M924.2,1704.55a128.33,128.33,0,0,1-26.51,4.24c-9.91.69-19.87.72-29.81.53-5.63-.11-11.25-.3-16.88-.51-1.45,0-1.45,2.2,0,2.25,19.69.72,39.63,1.46,59.2-1.32a106.54,106.54,0,0,0,14.6-3,1.13,1.13,0,0,0-.6-2.17Z"/><path class="cls-2" d="M274.43,1137a98.42,98.42,0,0,0,24.35,10.83,269,269,0,0,0,26.66,6.94,60.94,60.94,0,0,0,16.21,1.37c1.44-.1,1.45-2.35,0-2.25-9.48.65-18.71-1.89-27.8-4.22a192.16,192.16,0,0,1-25.06-7.77,81.91,81.91,0,0,1-13.22-6.84c-1.22-.79-2.35,1.16-1.14,1.94Z"/><path class="cls-2" d="M928.48,1197.05c-23.8,4.9-47.66,9.7-71.79,12.66-23.67,2.9-47.69,4-71.44,1.44a200.6,200.6,0,0,1-39.4-8.3c-1.39-.45-2,1.72-.6,2.17,22.88,7.35,47,10.09,70.93,9.82,24.35-.28,48.58-3.51,72.54-7.74,13.49-2.39,26.93-5.11,40.35-7.88,1.42-.29.82-2.46-.59-2.17Z"/></svg>