<svg id="Layer_1" data-name="Layer 1" xmlns="http://www.w3.org/2000/svg" viewBox="0 0 1242 2208"><defs><style>.cls-1{fill:#f6eabe;}.cls-2{fill:#999;}</style></defs><rect class="cls-1" width="1242" height="2208"/><path d="M928.3,321.89c-42.08,31-92.89,65.9-144.5,96.07,40.49,123.86,115.92,239.78,208,293-12.7,10.32-28.58,29.38-36.52,42.88C860,693.47,785.39,574.38,741.72,442.57c-19.85,11.12-38.91,22.23-58,30.17,46.84,143.72,30.17,294.58-24.62,339-26.2,25.41-50,32.55-90.51,33.35-18.26,0-47.64-.8-77-3.18-.79-15.88-6.35-37.32-15.09-54a723.32,723.32,0,0,0,82.58,4.76c24.61,0,42.08-2.38,58.75-19.85,31-27,46.85-110.36,33.35-204-94.48,84.95-235.81,158-357.29,196.11-7.15-12.7-23-32.55-34.15-43.67,136.57-37.31,295.37-119.09,381.12-208a432,432,0,0,0-28.58-83.37C532.1,497.36,413,554.53,313,583.9c-7.94-11.91-23-31-34.14-41.28,110.37-28.59,240.58-88.93,312-154.83-13.5-23-30.17-45.26-48.43-65.9-74.64,45.25-162,79.4-247.73,104-5.56-11.12-21.44-36.52-31.76-46.85,131-31,262-86.54,341.42-165.15H296.29v-50h659v50H673.43a500.87,500.87,0,0,1-91.3,81.78c37.31,39.7,65.9,86.55,87.33,135,72.26-39.7,162-99.25,216.76-146.09Z"/><path d="M387.92,1906.69a98.85,98.85,0,0,1-6.18,13.56v39.59H377.9v-33.35a61.73,61.73,0,0,1-5.46,7,32.86,32.86,0,0,0-2.28-3.9c5.58-5.87,10.8-14.87,14-24Zm34.14,28c-2.1,1.26-4.44,2.64-6.84,3.78,2,6.06,5.82,11.82,10.38,14.52a11.2,11.2,0,0,0-2.64,2.94c-4.62-3.18-8.46-9.42-10.68-16a27.45,27.45,0,0,1-2.76,1.2c2.58,6.84,1.86,14-1,16.68a6.91,6.91,0,0,1-5.22,1.92c-1.08,0-2.4-.06-3.78-.18a9.31,9.31,0,0,0-1-3.42,38.26,38.26,0,0,0,4.14.24,3.66,3.66,0,0,0,3.12-1.14c1.56-1.38,2.22-5.16,1.44-9.36-5.16,4.92-13.08,9.36-19.8,11.7a15.8,15.8,0,0,0-2.34-2.82c7.62-2.28,16.62-7.14,21.3-12.24a35.76,35.76,0,0,0-1.5-3.48,63.52,63.52,0,0,1-17.22,9.9,16.14,16.14,0,0,0-2.22-2.64c5.94-1.8,13.74-5.76,17.88-9.54a16.39,16.39,0,0,0-2.94-3.18,58.44,58.44,0,0,1-13.56,7.26,11.26,11.26,0,0,0-2.22-2.58,52.7,52.7,0,0,0,15.06-7.55H389.48v-9.36c-1.14,1-2.28,2-3.54,2.94a9.37,9.37,0,0,0-2.52-2.58,44.69,44.69,0,0,0,13.86-16.26l3.84.72c-.6,1.2-1.32,2.34-2,3.54h11.1l.72-.18,2.34,1.68a52.13,52.13,0,0,1-4.8,6.84h13.08v12.66H403.94c-.36.36-.78.66-1.2,1a21,21,0,0,1,5.64,6.84,110,110,0,0,0,10.92-6.42ZM397,1912.81a54.58,54.58,0,0,1-4.2,5.16h11.58a37.88,37.88,0,0,0,3.72-5.16Zm-3.9,14.69h10.5v-6.42h-10.5Zm24.72-6.42H407.18v6.42H417.8Z"/><path d="M446,1906.69a104.28,104.28,0,0,1-4.68,11.76V1960h-3.84v-34.31a59.9,59.9,0,0,1-6,8.57,24,24,0,0,0-2.16-4c5.28-6,10.08-15.23,13-24.59Zm8.82,42a47.22,47.22,0,0,1-8,10.92,28.69,28.69,0,0,0-2.88-2.34,33.55,33.55,0,0,0,7.38-10.2Zm10.14-3.06H447.74v-36.71H465Zm-3.6-33.35H451.22v7.8h10.14Zm0,11H451.22v7.85h10.14Zm0,11H451.22v8h10.14Zm-.12,12.71a67.1,67.1,0,0,1,5.4,9.48l-3.12,1.92a64.06,64.06,0,0,0-5.22-9.9Zm12.24-.48h-3.54v-35.09h3.54Zm10.14-40.37v48.95c0,2.4-.6,3.6-2.1,4.2s-4,.72-8.16.72a16,16,0,0,0-1.26-3.72c3.12.12,5.82.06,6.66.06s1.26-.3,1.26-1.2v-49Z"/><path d="M510.8,1941.66c-1.26-1.8-4.2-5.22-6.54-7.8V1960h-3.9v-24.83a51.47,51.47,0,0,1-8.58,7.13,16.52,16.52,0,0,0-1.8-3.72,52.46,52.46,0,0,0,17.64-19.19H491.48v-3.66h18.24l.72-.18,2.22,1.56a59.66,59.66,0,0,1-7.68,12.84c2.4,2.15,7.08,7.07,8.34,8.45Zm-7.32-26.45a36.35,36.35,0,0,0-5.52-7.74l2.88-1.92a35.89,35.89,0,0,1,5.76,7.5Zm37.2,41c1.38,0,1.56-.84,1.74-7.5a11.15,11.15,0,0,0,3.42,1.5c-.36,7.74-1.38,9.54-4.74,9.54h-5.16c-3.84,0-4.8-1.08-4.8-5v-14.52h-5.46c-1,10-3.78,16.44-14.1,20a9.52,9.52,0,0,0-2.22-2.94c9.48-3,11.82-8.58,12.6-17.1h-5.64V1908h25.8v32.15h-7.26v14.52c0,1.26.24,1.5,1.56,1.5ZM520,1917.67h18.36v-6.3H520Zm0,9.54h18.36v-6.36H520Zm0,9.65h18.36v-6.41H520Z"/><path d="M567,1906c-1,2.94-2.1,6.3-3.18,8.88H574v38.75h-16.8v4.8h-3.66v-43.55h6.66a64.68,64.68,0,0,0,2.58-9.72Zm3.3,12.47H557.18v13.08h13.14Zm0,31.56v-14.88H557.18v14.88Zm33.06-33.17c-1,27.53-1.8,36.71-4.2,39.59a5.6,5.6,0,0,1-4.56,2.28,74.94,74.94,0,0,1-8.82-.12,9.42,9.42,0,0,0-1.32-3.9c3.9.36,7.5.36,8.82.36s1.92-.12,2.52-.9c2-2.1,2.94-11.34,3.72-35.7H583.82a55.33,55.33,0,0,1-5.64,10.68,36.22,36.22,0,0,0-3.36-2.22c4.08-5.33,7.32-13.61,9.18-21.89l3.84.84c-.78,3-1.62,6-2.64,8.88h18.18Zm-12.78,27a106.51,106.51,0,0,0-9.3-13.92l3.06-1.79a102.47,102.47,0,0,1,9.6,13.61Z"/><path d="M651.08,1950.78a51.37,51.37,0,0,1-3.54,4.86h17.28v3.12H611.3v-3.12h17a26.79,26.79,0,0,0-2.64-4.74l1.8-.54h-7.86V1940h37v10.38h-6.84ZM638,1931.1H613.64v-23.39h23.7v2.88h-9.6v4h9.06v9.71h-9.06v4H638v1.69a34.47,34.47,0,0,0,10.86-5.46,35.41,35.41,0,0,1-7.2-11.94l2.7-.72h-4.92v-3.36h20.4l.6-.12,2.28.84a33.26,33.26,0,0,1-8.7,15.3,30.57,30.57,0,0,0,10.86,5.57,12.11,12.11,0,0,0-2.4,3.06,32.17,32.17,0,0,1-11.16-6.24,36.81,36.81,0,0,1-11.4,6.12,12.16,12.16,0,0,0-1.92-3Zm-24.24,3.19h48.78v2.93H613.76Zm3.48-23.7v4h7v-4Zm16,6.54h-16v4.5h16Zm-16,11.09h7v-4h-7Zm6.3,19.44h29v-5h-29Zm5.88,2.7a19.32,19.32,0,0,1,2.7,4.74l-1.5.54h14.22l-1-.36a46.44,46.44,0,0,0,3.24-4.92Zm15.48-38.57a29.64,29.64,0,0,0,6.54,10.38,28.25,28.25,0,0,0,6.84-10.38Z"/><path d="M724.52,1953.42v4h-53v-4h29a198.72,198.72,0,0,0,9.12-29.27l4.56.84c-2.64,9-6.18,20.69-9.42,28.43Zm-2.34-32.75H674v-4h48.18Zm-33.9,30c-.9-7-3.54-17.58-5.82-25.55l4-.9a209.86,209.86,0,0,1,6,25.43Zm8.58-34.85a61.85,61.85,0,0,0-2.94-9.66l3.84-1.08a70.16,70.16,0,0,1,3.12,9.54Z"/><path d="M747,1930.08c3.06,11.1,2.22,23.88-.72,27.24a6.37,6.37,0,0,1-5.46,2.52c-1,0-2.7,0-4.26-.12a8.76,8.76,0,0,0-.84-3.6c1.68.18,3.36.24,4.26.24a3.39,3.39,0,0,0,3.3-1.44c1.44-1.68,2.28-7.74,1.8-14.64a47.44,47.44,0,0,1-13,11.16,15.8,15.8,0,0,0-1.86-3.42,37.53,37.53,0,0,0,14.34-12.35,44.89,44.89,0,0,0-1.38-6.42,46.15,46.15,0,0,1-10.5,8.93,13.84,13.84,0,0,0-1.86-3.12,33.49,33.49,0,0,0,11.16-9.23,25.24,25.24,0,0,0-2.7-5.22,45.06,45.06,0,0,1-6.3,4.5,17.37,17.37,0,0,0-1.92-3.36,31.88,31.88,0,0,0,11.16-9.18H731V1909h24.06v3.6h-8.7a31.35,31.35,0,0,1-4.74,5.88,28.38,28.38,0,0,1,4.44,8.34,72.71,72.71,0,0,0,6.12-8.34l3.24,1.92c-1.74,2.28-3.72,4.67-5.58,6.84a28.34,28.34,0,0,1,4.74,6.29l-2.4,1.86a31,31,0,0,0-4.32-6.18Zm23.52-2.28a83,83,0,0,1-7.74,6.84h18.36v25.08h-4v-2.46H761.54v2.7H757.7V1938.3c-1.5,1.08-3.12,2-4.68,2.94a17.78,17.78,0,0,0-2.28-3.36,75.87,75.87,0,0,0,14.52-10.08H753.8v-3.54h10.32v-7.85H756.5v-3.48h7.62v-7.5H768v7.5h8.28v2.7a60.41,60.41,0,0,0,3.36-5.28l3.48,1.26a70.11,70.11,0,0,1-9.24,12.65h11.4v3.54Zm6.66,10.08H761.54v6.18H777.2Zm0,16v-6.66H761.54v6.66ZM768,1924.26h1a68.46,68.46,0,0,0,6.72-7.85H768Z"/><path d="M816.56,1932.42V1960h-3.9v-27.54H802.4c-.18,10.08-1.74,20-8.88,27.9a15.89,15.89,0,0,0-2.94-2.7c6.54-7.2,7.86-16.14,8.1-25.2h-7.92v-3.71h8v-15.9h-7.08v-3.72h30.66v3.72h-5.76v15.9h6.54v3.71Zm-3.9-3.71v-15.9h-10.2v15.9Zm33.18,11.69c-5,8.16-13.68,15.36-23,19.62a14.41,14.41,0,0,0-2.82-3.24c9-3.66,17.58-10.38,22.08-17.82Zm-3.24-32.51c-4.32,5.46-11.16,10.74-17.16,14a15.73,15.73,0,0,0-2.88-2.75c5.76-2.88,12.6-8,16.32-12.78Zm1.8,16.37A65.72,65.72,0,0,1,826,1939.38a20.87,20.87,0,0,0-2.82-2.82c6.18-3.12,13.5-8.64,17.58-13.79Z"/><path d="M856.88,1941c4.68-2,7.26-4.86,7.56-9.17a4,4,0,0,1-1.14.11c-2.34,0-4.26-1.31-4.26-4.07a4,4,0,0,1,4.32-4.08c3.18,0,4.86,2.58,4.86,6.66,0,6.41-4,11.21-10.08,13.43Z"/><path d="M421.76,1989c-1.2,2.46-2.52,5-3.9,7.31h29.22v30.54c0,2.52-.6,3.72-2.46,4.38s-5.16.66-10.38.66a16.63,16.63,0,0,0-1.32-3.9c4.14.18,7.8.12,8.82.12s1.44-.42,1.44-1.32v-6.66H416.9c-.84,4.38-2.58,8.88-6.12,12.24a12.44,12.44,0,0,0-2.76-3.12c5-4.86,5.52-11.52,5.52-17.22v-9.53a50.45,50.45,0,0,1-10.14,9.71,17.42,17.42,0,0,0-2.52-3.12c7.2-4.91,12.66-12.17,16.56-20.09H402.08v-3.78h17a57.7,57.7,0,0,0,2.76-7.8l4,.9a72.7,72.7,0,0,1-2.46,6.9h30.84V1989Zm21.42,27.65v-6.72H417.56V2012c0,1.44-.06,2.94-.18,4.56Zm0-16.73H417.56v6.53h25.62Z"/><path d="M485.54,2023.2c-8.52,2-17.46,4-24,5.34l-1-3.72c6.18-1.14,15.6-3.06,24.72-5Zm-.72-38.81h-23.4v-3.72h23.4Zm-1.44,21.9H463v-16h20.34Zm-16.44,14.45a41.62,41.62,0,0,0-2.34-11.28l3.24-.78a37.26,37.26,0,0,1,2.58,11.16Zm12.78-27h-13.2v9.23h13.2ZM475,2020.26a85,85,0,0,0,2.7-12.12l3.9,1c-1.08,4.07-2.4,8.93-3.54,12Zm22.5,3.9c-3.18,3.12-8.46,6.12-13.08,7.86a22.91,22.91,0,0,0-2.7-2.7c4.68-1.56,9.84-4.56,12.24-7.14Zm-.72-34.43c.48-1.86,1-4,1.26-5.94H486.44v-3.54h28.74v3.54H502.4c-.54,2-1.14,4.14-1.74,5.94H513.2v31H488.36v-31Zm12.66,3.18H492v6.17h17.4Zm0,9.11H492v6.24h17.4Zm0,9.3H492v6.24h17.4Zm-3.36,11.16a75.29,75.29,0,0,1,10.32,7.38l-3.24,2.16A66.38,66.38,0,0,0,503,2024.4Z"/><path d="M541.52,2010.06l-3.66,3.12a93.63,93.63,0,0,0-13.32-13.38l3.42-3.11A118.53,118.53,0,0,1,541.52,2010.06Z"/><path d="M571.7,2019.54l.48,3.42c-7.38,2.1-15.06,4.26-20.76,5.82l-1-3.72c1-.24,1.92-.48,3-.72v-20.51h3.36v19.61l4.62-1.14V1998h-7.86v-18h17v18H565v8.63h6.48v3.6H565v11.16ZM557,1994.41h9.9v-10.92H557Zm47.88,1v9.77h-3.66v-6.47H576.5v6.47h-3.6v-9.77H592a87.44,87.44,0,0,0,3.06-8.94l3.66,1.08c-1,2.52-2.22,5.52-3.3,7.86Zm-.72-9.06H573.74v-3.42h13.08a33.18,33.18,0,0,0-1.68-4.86l3.6-1a28.62,28.62,0,0,1,2.16,5.82h13.26Zm-2.28,35.57c0,1.92-.3,2.88-1.62,3.48s-3.42.66-6.48.66a15.27,15.27,0,0,0-1.14-3.42c2.4.06,4.26.06,4.92,0s.78-.18.78-.72V2009.7h-8V2032h-3.66V2009.7h-7.5v16h-3.48v-19.43h11v-5.76h3.66v5.76h11.58Zm-20.58-26.57a40,40,0,0,0-2.46-8l3.18-.72a50.14,50.14,0,0,1,2.64,7.79Z"/><path d="M631.52,2010.06l-3.66,3.12a93.63,93.63,0,0,0-13.32-13.38l3.42-3.11A118.53,118.53,0,0,1,631.52,2010.06Z"/><path d="M659.9,2027.1c0,2.22-.48,3.42-1.86,4.14s-3.72.78-7.62.72a16.18,16.18,0,0,0-1.2-3.78c2.76.12,5.22.06,5.94.06s1.08-.3,1.08-1.14V2009c-2.22,1.63-4.44,3.3-6.54,4.8l-1.92-3.17c-.42,7.43-1.62,15.47-4.44,21.47a11.57,11.57,0,0,0-3.24-1.92c4.08-8.46,4.38-20.46,4.38-29.22v-21.47H659.9ZM648.08,2001c0,2.88-.06,6.11-.24,9.53,2.16-1.14,5.16-3.06,8.4-5v-7.32l-2,1.62a57.25,57.25,0,0,0-6.18-6.84Zm0-17.7v9.6l2.4-1.74a58.38,58.38,0,0,1,5.76,5.88v-13.74Zm43.5,29.63a30,30,0,0,1-9.36,10.92,53.32,53.32,0,0,0,13.62,4.44,17.72,17.72,0,0,0-2.52,3.48,52.28,52.28,0,0,1-14.7-5.64,55,55,0,0,1-16,5.94,12.49,12.49,0,0,0-1.92-3.18,53,53,0,0,0,14.52-4.8,51,51,0,0,1-6.72-5.58,49.35,49.35,0,0,1-5.4,4.26,24.73,24.73,0,0,0-2.82-2.76,34.8,34.8,0,0,0,5.82-4.2,37.57,37.57,0,0,1-3.36-4.92l2.88-1.14a31.89,31.89,0,0,0,2.76,3.78,29.64,29.64,0,0,0,4.26-5.64h-6.6v-15.65a33.57,33.57,0,0,1-2.64,3,23.89,23.89,0,0,0-3.24-2.65,41.05,41.05,0,0,0,9.9-15.29l3.84,1a34.53,34.53,0,0,1-2,4.62h22.5v3.54H670c-.9,1.5-1.86,2.88-2.76,4.26h24.36v17.15H676.22l.54.18a29.09,29.09,0,0,1-2.4,3.84h13.92l.78-.18Zm-21.84-15H687.8v-4.38H669.74Zm0,7.14H687.8v-4.44H669.74Zm2.16,10c-.36.36-.66.78-1,1.14a45.51,45.51,0,0,0,7.8,5.82,27.09,27.09,0,0,0,7.32-7Z"/><path d="M717.14,1995h10.74v3.72H717.14v1.62c2.22,2.39,8.7,10,10.14,11.87l-2.46,3.24a129,129,0,0,0-7.68-10.49v26.93h-4v-27.17c-3,7.07-7.2,14.21-11.1,18.41a28.3,28.3,0,0,0-2.22-3.66c4.56-4.62,9.6-13.08,12.36-20.75H701.24V1995h11.88v-10.32c-3.42.54-6.9,1-10.14,1.44a15.29,15.29,0,0,0-1.08-3.18c7.92-1.08,17.52-2.82,22.68-5l2.76,3.12a83.55,83.55,0,0,1-10.2,2.82Zm34.74-12.06V2029h-4v-4.56h-14v5H730v-46.49Zm-4,37.67v-33.83h-14v33.83Z"/><path d="M770.3,1994.46v3.25c0,10-.78,24.41-6.66,34.19a15.57,15.57,0,0,0-3.48-2c5.64-9.36,6.18-22.68,6.18-32.1v-17.51H810.8v14.21Zm0-10.67v7.14h36.48v-7.14Zm37,43.67c2.7,0,3.18-1.14,3.48-6.78a13.21,13.21,0,0,0,3.66,1.56c-.6,7-1.8,8.88-6.9,8.88H795c-6,0-7.68-1.32-7.68-6.3v-4.92l-15.72,2.46L771,2019l16.32-2.52v-5.88l-13.62,2.1-.66-3.24,14.28-2.28v-5.46c-4.26.78-8.7,1.38-12.78,1.92a13.47,13.47,0,0,0-1.14-2.93c10.14-1.33,22-3.48,28.26-5.88l3.42,2.63a106.83,106.83,0,0,1-13.86,3.54v5.64L808.4,2004l.6,3.25L791.18,2010v5.88l21.48-3.36.6,3.3-22.08,3.48v5.46c0,2.22.66,2.7,4,2.7Z"/><path d="M833.18,1995.67a9.06,9.06,0,1,1-9.06,9A9.09,9.09,0,0,1,833.18,1995.67Zm0,15.23a6.18,6.18,0,1,0,0-12.36,6.18,6.18,0,1,0,0,12.36Z"/><rect class="cls-2" x="1109" y="430" width="65" height="126" rx="12"/><path class="cls-1" d="M1128.7,459.82c1.25,1.6,4.9,6.7,5.7,8.05l-2,2.45c-.7-1.5-2.35-4.4-3.75-6.65V490h-3.15V465.57c-1.5,5.05-3.5,9.9-5.55,12.85a14.83,14.83,0,0,0-1.75-3.1c2.9-4,5.8-11.5,7.2-18h-6.2v-3.15h6.3v-9.65h3.15v9.65h5.45v3.15h-5.45Zm19.1.7a19.47,19.47,0,0,0,.45,2.65c-10.15,2.7-11.6,3.15-12.5,3.75a12.13,12.13,0,0,0-1.1-3.2c.7-.2,1.55-.5,1.55-2.2v-16.7h3.25v6.5h8.35v2.9h-8.35v8.3Zm2.35,5.5-2,3.75h12.65V490h-3.4v-1.75h-17v2h-3.3V469.77h7.9c.55-1.5,1.2-3.25,1.55-4.6Zm7.3,6.5h-17v5.05h17Zm0,13v-5.3h-17v5.3Zm2.25-22.4c1.25,0,1.5-.75,1.65-5.25a9.16,9.16,0,0,0,2.85,1.25c-.3,5.45-1.2,6.95-4.15,6.95h-5.85c-3.65,0-4.55-.95-4.55-4.45V444.87h3.25v6.5h10.2v2.9h-10.2v7.35c0,1.3.25,1.5,1.65,1.5Z"/><path class="cls-1" d="M1163.55,519.87v2.5H1119.4v-2.5h20.25v-3.2H1122.8v-2.3h16.85v-3H1124.2v-2.25h15.45v-3.2H1119.5v-2.5h20.15v-3.05H1124.8V498h14.85v-3.55h3.25V498h14.45v5.4h6.15v2.5h-6.15v5.45H1142.9v3h17.3v2.3h-17.3v3.2Zm-37.75,5h31.75v15.25h-3.25v-1.6H1129v1.7h-3.2Zm3.2,2.4v3.2h25.3v-3.2Zm25.3,8.85v-3.4H1129v3.4Zm-11.4-32.7h11.15v-3.05H1142.9Zm0,5.7h11.15v-3.2H1142.9Z"/><rect class="cls-2" x="1153" y="1276" width="65" height="222" rx="12"/><path class="cls-1" d="M1198.05,1315.79a27.61,27.61,0,0,0,11.5,8.1,11.65,11.65,0,0,0-2.15,2.55,30.77,30.77,0,0,1-12.8-10.65h-15.95a34.39,34.39,0,0,1-13,11.3,11.43,11.43,0,0,0-2.15-2.55,30.39,30.39,0,0,0,11.6-8.75H1164v-2.85h10v-16.15h-7.7V1294h7.7v-5h3.3v5h18.55v-5h3.35v5h7.65v2.8h-7.65v16.15h9.8v2.85Zm-10,14.5h17.3v2.85H1167.8v-2.85h16.9v-5.6h-10.45v-2.8h10.45v-4.4h3.35v4.4h10.65v2.8h-10.65Zm-10.8-33.5v3.6h18.55v-3.6Zm0,9.8h18.55v-3.65h-18.55Zm0,6.35h18.55v-3.8h-18.55Z"/><path class="cls-1" d="M1182.25,1357.54s0,1.15,0,1.55c-.6,15.85-1.2,21.2-2.6,23a3.71,3.71,0,0,1-2.8,1.45,32.65,32.65,0,0,1-4.45,0,9.25,9.25,0,0,0-.85-3c1.75.15,3.2.15,3.9.15a1.42,1.42,0,0,0,1.45-.65c1-1.2,1.6-6,2.15-19.35h-6.8c-.55,10-2,18.25-6.45,23.65a9.53,9.53,0,0,0-2.55-2.35c5.45-6.45,5.9-17.85,6.1-31.55h-5.2v-3.1h20.1v3.1h-11.65c0,2.45-.1,4.85-.2,7.15Zm-7.9-10.45a33.47,33.47,0,0,0-4.25-7.15l2.9-1.15a31.92,31.92,0,0,1,4.4,7Zm23.85-7.45a15.26,15.26,0,0,1-.85,2.55c2.65,5.45,7.7,11.35,12.45,14a13,13,0,0,0-2.45,2.75c-4.25-2.7-8.5-8-11.4-13.3a32.61,32.61,0,0,1-11,13.6,12.79,12.79,0,0,0-2.35-2.65c5.85-3.6,10.35-10.2,12.5-17.85Zm-8.3,32.45a74,74,0,0,1,13.6,8.25l-2.25,2.9c-2.85-2.6-8.75-6.3-13.4-8.65Zm9.5-4.85a66.22,66.22,0,0,0-8.6-6.85l2.15-2.2a67.46,67.46,0,0,1,8.75,6.55Z"/><path class="cls-1" d="M1175.5,1402c-1.6,7.2-4.55,16.15-9.1,21.7a19.23,19.23,0,0,0-3.1-1.8c4.55-5.25,7.3-13.85,8.55-20.55Zm12.9-12.3v40c0,2.55-.7,3.6-2.35,4.2s-4.8.6-9.4.6a15.62,15.62,0,0,0-1.4-3.45c3.7.1,7.3.1,8.25.05s1.45-.35,1.45-1.4v-40ZM1200,1401c4.45,7,8.7,16.1,10,22l-3.45,1.45c-1.25-5.85-5.25-15.15-9.6-22.3Z"/><path class="cls-1" d="M1204.65,1466.74a72.75,72.75,0,0,1-7.65,3.65,19.75,19.75,0,0,0,12.1,9.55,10.66,10.66,0,0,0-2.1,2.6,22.77,22.77,0,0,1-12.5-11.1c-1.1.45-2.15.85-3.2,1.2,1.5,4.4.7,8.7-1.6,10.35a6,6,0,0,1-4.25,1.3c-1,0-2.25,0-3.55-.1a5.77,5.77,0,0,0-.9-2.85,30,30,0,0,0,4,.2,4.12,4.12,0,0,0,2.7-.65c1.35-1,1.9-3.75,1-6.9-5.55,3.7-14.45,7-22,8.45a11,11,0,0,0-1.45-2.4c8-1.1,17.65-4.65,22.65-8.35a13.35,13.35,0,0,0-1.25-2.15,69.47,69.47,0,0,1-17.55,6.35,7.59,7.59,0,0,0-1.4-2.15c5.8-1,13.4-3.4,17.7-5.85-.6-.55-1.25-1.15-2-1.7a80,80,0,0,1-15.25,4.15,16.41,16.41,0,0,0-1.55-2.2c5.7-.75,12.15-2.15,16.75-4.15h-18.55v-2.55h28c.3-.9.55-1.8.9-2.75h-21.7c1.25-2.8,3-7,4-10.25l3,.5a42,42,0,0,0-3.4-3.25l2-1.15h-6.25a29.23,29.23,0,0,1-5.1,5.6,25.27,25.27,0,0,0-2.35-2.2,26.89,26.89,0,0,0,7.5-9.35l3,.85c-.45.9-1,1.75-1.4,2.65h13.45v2.45h-8.3a44.9,44.9,0,0,1,4,3.65l-2.45,1.6a4.8,4.8,0,0,0-.7-.75c-.2.65-.45,1.25-.65,2h17.75l.6-.2,2.25.5c-.8,3.15-1.9,7-3,10.15h12V1464h-20.25c-.6.35-1.2.7-1.85,1a16.36,16.36,0,0,1,4.4,5.35,90.1,90.1,0,0,0,11.6-5.5Zm-10.2-10.3c.35-1.15.65-2.2,1-3.2h-17.7c-.45,1.15-.9,2.2-1.3,3.2Zm14.75-14.3v2.45h-16.6a28.84,28.84,0,0,1-4.55,5.15,15.06,15.06,0,0,0-2.55-2,21.57,21.57,0,0,0,6.7-9.1l3.1.8a26.43,26.43,0,0,1-1.25,2.7Zm-7.9,8a32.47,32.47,0,0,0-3.9-4.25l2.3-1.25a30.14,30.14,0,0,1,4,4Z"/><path class="cls-2" d="M145.07,1099.7c-8.52,2-17.45,4-24,5.34l-1-3.72c6.18-1.14,15.59-3.06,24.71-5Zm-.72-38.82H121v-3.72h23.39Zm-1.44,21.9H122.58v-16h20.33Zm-16.43,14.46a41.62,41.62,0,0,0-2.34-11.28l3.24-.78a37.56,37.56,0,0,1,2.58,11.16Zm12.77-27.06H126.06v9.24h13.19Zm-4.73,26.58a85,85,0,0,0,2.69-12.12l3.9,1c-1.08,4.08-2.4,8.94-3.54,12.06Zm22.49,3.9c-3.18,3.12-8.46,6.12-13.08,7.86a22.91,22.91,0,0,0-2.7-2.7c4.68-1.56,9.84-4.56,12.24-7.14Zm-.72-34.44c.48-1.86,1-4,1.26-5.94H146v-3.54h28.74v3.54H161.93c-.54,2-1.14,4.14-1.74,5.94h12.54v31H147.89v-31ZM169,1069.4h-17.4v6.18H169Zm0,9.12h-17.4v6.24H169Zm0,9.3h-17.4v6.24H169ZM165.59,1099a75.29,75.29,0,0,1,10.32,7.38l-3.24,2.16a66.38,66.38,0,0,0-10.14-7.62Z"/><path class="cls-2" d="M141.23,1334l.48,3.42c-7.38,2.1-15.05,4.26-20.75,5.82l-1-3.72c1-.24,1.92-.48,3-.72v-20.52h3.36v19.62l4.62-1.14v-24.36h-7.86v-18h17v18h-5.57v8.64H141v3.6h-6.47v11.16Zm-14.69-25.14h9.9V1298h-9.9Zm47.87,1v9.78h-3.66v-6.48H146v6.48h-3.6v-9.78h19.14a87.44,87.44,0,0,0,3.06-8.94l3.66,1.08c-1,2.52-2.22,5.52-3.3,7.86Zm-.72-9.06H143.27v-3.42h13.08a33.18,33.18,0,0,0-1.68-4.86l3.6-1a28.62,28.62,0,0,1,2.16,5.82h13.26Zm-2.28,35.58c0,1.92-.3,2.88-1.62,3.48s-3.42.66-6.48.66a15.27,15.27,0,0,0-1.14-3.42c2.4.06,4.26.06,4.92,0s.78-.18.78-.72V1324.2h-8v22.32h-3.66V1324.2h-7.5v16h-3.48v-19.44h11V1315h3.66v5.76h11.58Zm-20.58-26.58a40,40,0,0,0-2.46-8l3.18-.72a49.87,49.87,0,0,1,2.64,7.8Z"/><path class="cls-2" d="M980.83,1612v3.24c0,10-.77,24.42-6.65,34.2a15.57,15.57,0,0,0-3.48-2c5.64-9.36,6.18-22.68,6.18-32.1v-17.52h44.45V1612Zm0-10.68v7.14h36.48v-7.14Zm37,43.68c2.7,0,3.18-1.14,3.48-6.78a13.21,13.21,0,0,0,3.66,1.56c-.6,7-1.8,8.88-6.9,8.88h-12.54c-6,0-7.68-1.32-7.68-6.3v-4.92l-15.71,2.46-.6-3.36,16.31-2.52v-5.88l-13.61,2.1-.66-3.24,14.27-2.28v-5.46c-4.26.78-8.69,1.38-12.77,1.92a13.55,13.55,0,0,0-1.14-2.94c10.14-1.32,22-3.48,28.25-5.88l3.42,2.64a110.17,110.17,0,0,1-13.86,3.54v5.64l17.22-2.64.6,3.24-17.82,2.76v5.88l21.48-3.36.6,3.3-22.08,3.48v5.46c0,2.22.66,2.7,4,2.7Z"/><path class="cls-2" d="M139.43,1506.6c0,2.22-.48,3.42-1.86,4.14s-3.72.78-7.61.72a16.66,16.66,0,0,0-1.2-3.78c2.76.12,5.22.06,5.93.06s1.08-.3,1.08-1.14v-18.06c-2.21,1.62-4.44,3.3-6.53,4.8l-1.92-3.18c-.42,7.44-1.62,15.48-4.44,21.48a11.57,11.57,0,0,0-3.24-1.92c4.08-8.46,4.38-20.46,4.38-29.22V1459h15.41Zm-11.81-26.16c0,2.88-.06,6.12-.24,9.54,2.16-1.14,5.16-3.06,8.39-5v-7.32l-2,1.62a55.6,55.6,0,0,0-6.17-6.84Zm0-17.7v9.6l2.4-1.74a58.22,58.22,0,0,1,5.75,5.88v-13.74Zm43.49,29.64a30,30,0,0,1-9.36,10.92,53.32,53.32,0,0,0,13.62,4.44,17.72,17.72,0,0,0-2.52,3.48,52.28,52.28,0,0,1-14.7-5.64,55,55,0,0,1-16,5.94,12.49,12.49,0,0,0-1.92-3.18,53,53,0,0,0,14.52-4.8,51,51,0,0,1-6.72-5.58,49.35,49.35,0,0,1-5.4,4.26,24.73,24.73,0,0,0-2.82-2.76,34.8,34.8,0,0,0,5.82-4.2,37.57,37.57,0,0,1-3.36-4.92l2.88-1.14A31.89,31.89,0,0,0,148,1493a29.64,29.64,0,0,0,4.26-5.64h-6.6v-15.66a33.57,33.57,0,0,1-2.64,3,23.84,23.84,0,0,0-3.24-2.64,41.18,41.18,0,0,0,9.9-15.3l3.84,1a34.53,34.53,0,0,1-2,4.62H174v3.54H149.57c-.9,1.5-1.86,2.88-2.76,4.26h24.36v17.16H155.75l.54.18a29.09,29.09,0,0,1-2.4,3.84h13.92l.78-.18Zm-21.84-15h18.06V1473H149.27Zm0,7.14h18.06v-4.44H149.27Zm2.16,10c-.36.36-.66.78-1,1.14a45.51,45.51,0,0,0,7.8,5.82,27.09,27.09,0,0,0,7.32-7Z"/><path class="cls-2" d="M210.55,1088.81A331.68,331.68,0,0,0,256,1114a343.88,343.88,0,0,0,48.89,17.93,349.47,349.47,0,0,0,50.84,10.35,342.94,342.94,0,0,0,52.14,2.67,333.26,333.26,0,0,0,51.59-5.33c2.1-.38,4.2-.79,6.29-1.21,1.42-.29.82-2.46-.6-2.17a329.12,329.12,0,0,1-51.31,6.25,344.43,344.43,0,0,1-151.25-28,331.28,331.28,0,0,1-45.57-24.13q-2.7-1.71-5.37-3.48c-1.21-.8-2.34,1.15-1.14,1.94Z"/><path class="cls-2" d="M191.51,1329.23a50.42,50.42,0,0,0,44.77-14.31c1-1-.58-2.64-1.59-1.59a48.11,48.11,0,0,1-42.58,13.73c-1.41-.26-2,1.91-.6,2.17Z"/><path class="cls-2" d="M186.2,1353.8c12.3,15,25.56,29.3,36.78,45.19,5.66,8,10.78,16.39,15.63,24.91a261.19,261.19,0,0,1,13.29,26.5c3.95,9.21,7.2,18.73,10.58,28.17,3.32,9.28,6.55,18.59,9.59,28a483.71,483.71,0,0,1,15.31,58,289.16,289.16,0,0,1,5.43,60.79q-.09,3.84-.3,7.68c-.08,1.45,2.17,1.44,2.25,0a280.53,280.53,0,0,0-3.84-61.45,444.06,444.06,0,0,0-14.52-58.81c-5.94-19-12.49-37.91-19.69-56.46s-16.82-36-27.69-52.43-24-31-36.58-46q-2.34-2.79-4.64-5.61c-.92-1.12-2.51.48-1.6,1.6Z"/><path class="cls-2" d="M194,1488.71c22,4.35,43.93,8.67,66.06,12.09a545.39,545.39,0,0,0,65.89,6.61,345.26,345.26,0,0,0,36.82-.74c1.44-.11,1.45-2.36,0-2.25a381.41,381.41,0,0,1-65.35-1.12c-22.17-2.11-44.18-5.65-66.08-9.67-12.27-2.25-24.51-4.67-36.75-7.09-1.41-.28-2,1.89-.59,2.17Z"/><path class="cls-2" d="M950.16,1624.54a139.1,139.1,0,0,0-70.49-8.69,137.69,137.69,0,0,0-20,4.32,1.13,1.13,0,0,0,.6,2.17,135.73,135.73,0,0,1,70.07-1.77,141.41,141.41,0,0,1,19.19,6.14c1.35.54,1.93-1.64.6-2.17Z"/><path d="M477.69,1097.75q32.74,10.56,65.52,21,29.7,9.4,59.45,18.61,28.55,8.81,57.16,17.38,29.64,8.86,59.35,17.49,32.63,9.46,65.32,18.72l8.63,2.44a19.34,19.34,0,0,0,10.17.46,26.25,26.25,0,0,0,21.2-18.27c1.48-6.53,1.16-13.85-2.57-19.65a26.8,26.8,0,0,0-15.24-11.72q-33.2-9.37-66.33-19-30-8.67-59.86-17.58-28.63-8.54-57.19-17.32-29.52-9.07-59-18.4-32.31-10.22-64.56-20.61l-8.51-2.74a19.24,19.24,0,0,0-10.17-.46,18.9,18.9,0,0,0-9.48,3,28.52,28.52,0,0,0-11.72,15.24c-1.48,6.52-1.16,13.85,2.57,19.64l4,5.17a25.43,25.43,0,0,0,11.25,6.55Z"/><path d="M652.09,1127.1q-5.43,8.25-11.48,16.07l4-5.16a295.74,295.74,0,0,1-41.2,43q-6.63,5.68-13.54,11l5.16-4a397.18,397.18,0,0,1-69.31,42.57q-10.53,5.1-21.32,9.66l6.09-2.57a295.59,295.59,0,0,1-75.76,20.44l6.78-.91c-32.48,4.32-65.46,4.32-98.07,1.49-8.84-.76-17.67-1.75-26.46-2.92l6.78.91q-10.87-1.47-21.67-3.33a19.34,19.34,0,0,0-10.17-.45,18.92,18.92,0,0,0-9.48,3c-5.29,3.1-10.34,9.16-11.72,15.24-1.49,6.53-1.17,13.86,2.57,19.65,3.39,5.27,8.8,10.61,15.24,11.72a598.15,598.15,0,0,0,88.46,9,422.87,422.87,0,0,0,93.46-8c30.1-6.13,58.64-17.7,86-31.42a417.87,417.87,0,0,0,75.13-48.56A316.8,316.8,0,0,0,690.55,1161q2.87-4,5.58-8.13a19.1,19.1,0,0,0,3-9.48,19.44,19.44,0,0,0-.46-10.17c-1.63-5.91-6.2-12.32-11.72-15.24-5.92-3.13-13.09-4.69-19.65-2.57a28,28,0,0,0-15.24,11.72Z"/><path d="M575.28,1262q6.53,7.93,12.83,16.07l-4-5.16c20.08,26,38.26,53.58,53,83q6,12,11.25,24.32l-2.57-6.09a342.86,342.86,0,0,1,20.4,65.47q1.92,9.59,3.24,19.27l-.91-6.78a301.43,301.43,0,0,1,0,80l.91-6.78c-2.52,18.56-6.26,37.26-13.52,54.6l2.57-6.09c-6.24,14.67-15.13,27.83-24.83,40.41l4-5.16a117.43,117.43,0,0,1-20.46,21.15l5.16-4c-11.51,8.87-24.83,15.84-38.17,21.51l6.09-2.58c-16.49,6.94-34,11.38-51.53,14.52-5.48,1-11,1.82-16.5,2.57l6.78-.92a540.58,540.58,0,0,1-68.83,4.39c-23.69.12-47.38-1-71-3q-19-1.65-37.83-4.18l6.78.91c-19-2.55-37.83-5.74-56.49-9.93-6.64-1.49-13.66-.93-19.65,2.57-5.28,3.1-10.33,9.16-11.71,15.24-1.49,6.53-1.17,13.86,2.57,19.65,3.5,5.44,8.74,10.26,15.24,11.72,24.08,5.41,48.52,9.11,73,12.09q38.46,4.68,77.27,5.73a604,604,0,0,0,78.08-2.67c25.12-2.62,50.45-6.51,74.45-14.61a242.15,242.15,0,0,0,36.45-15.91A153.13,153.13,0,0,0,660,1660.57c9.32-8.69,16.9-19.19,24.35-29.46a180.87,180.87,0,0,0,22.94-42.95c5.07-13.53,8.09-27.78,10.36-42a350.93,350.93,0,0,0,4.64-48.74,331.75,331.75,0,0,0-10.91-89.13c-7.6-29.16-19.22-57.41-33.18-84.09a520.15,520.15,0,0,0-49.07-75.82c-5.81-7.55-11.68-15.06-17.74-22.42-3.91-4.76-12.13-7.47-18-7.47-6.25,0-13.72,2.78-18,7.47-4.46,4.86-7.77,11.24-7.47,18l.91,6.78a25.45,25.45,0,0,0,6.56,11.25Z"/><path d="M650.34,1436.28q-11.88,10.9-24.67,20.78l5.16-4a405.75,405.75,0,0,1-34.38,23.79,424.56,424.56,0,0,1-37.34,20.57q-10.89,5.33-22.06,10l6.09-2.57a458,458,0,0,1-90.07,27.45q-13.23,2.6-26.6,4.39l6.78-.91-1.69.23a28.24,28.24,0,0,0-18,7.47,19,19,0,0,0-5.28,8.2,19.32,19.32,0,0,0-2.19,9.83l.91,6.78a25.45,25.45,0,0,0,6.56,11.25l5.16,4a25.43,25.43,0,0,0,12.87,3.49,519.65,519.65,0,0,0,58.6-10.77,458.22,458.22,0,0,0,50.09-15.65,501.26,501.26,0,0,0,53.26-23.52,421.54,421.54,0,0,0,43.83-26.06,440.34,440.34,0,0,0,44.51-34.6q2.29-2,4.56-4.12a26.24,26.24,0,0,0,0-36.06l-5.16-4a25.52,25.52,0,0,0-12.87-3.48l-6.78.91a25.54,25.54,0,0,0-11.26,6.56Z"/><path d="M714.74,1565.1a36.24,36.24,0,0,1,8.2-2.06l-6.78.91a50.32,50.32,0,0,1,12.8.13l-6.78-.91a80.09,80.09,0,0,1,20.11,5.66l-6.1-2.57a105.5,105.5,0,0,1,23.37,13.63l-5.16-4a76.34,76.34,0,0,1,13.6,13.22l-4-5.16a56.74,56.74,0,0,1,7.21,12.44l-2.57-6.09a77.44,77.44,0,0,1,5.11,19.34l-.91-6.78a100.88,100.88,0,0,1,0,26.44l.91-6.78a98.33,98.33,0,0,1-6.68,24.76l2.57-6.09a88.11,88.11,0,0,1-11.32,19.5l4-5.16a79.11,79.11,0,0,1-13.94,14l5.16-4c-1.77,1.36-3.6,2.65-5.48,3.85a24.54,24.54,0,0,0-12.17,25.41,18.92,18.92,0,0,0,3,9.48l4,5.16a25.45,25.45,0,0,0,11.25,6.56l6.78.91a25.32,25.32,0,0,0,12.87-3.48,122.27,122.27,0,0,0,14.07-10.65,77.85,77.85,0,0,0,8-8.06,109.33,109.33,0,0,0,16-23.61,122.76,122.76,0,0,0,9.73-27,162.51,162.51,0,0,0,2.66-17.68,100.86,100.86,0,0,0,.52-11.39,98.93,98.93,0,0,0-.85-11.92c-.85-6.53-1.67-13-3.55-19.32a98.1,98.1,0,0,0-7.25-17.7A85.34,85.34,0,0,0,803,1551.71c-5.58-6.74-12.59-12.16-19.6-17.31a105.61,105.61,0,0,0-19-11.09c-8.46-3.83-17.14-7.41-26.35-9a95.1,95.1,0,0,0-16.59-1.74,71.29,71.29,0,0,0-16,2,34.2,34.2,0,0,0-4.28,1.34A28.39,28.39,0,0,0,686,1527.64a18.9,18.9,0,0,0-3,9.48,19.24,19.24,0,0,0,.46,10.17l2.57,6.09a25.61,25.61,0,0,0,9.14,9.15l6.1,2.57a25.74,25.74,0,0,0,13.55,0Z"/><path d="M617.59,1312.85a341.91,341.91,0,0,1-32.39,28.45l5.16-4a360.27,360.27,0,0,1-61.54,38.17q-9.23,4.51-18.68,8.51l6.09-2.57a371.15,371.15,0,0,1-70.5,21.79q-10.37,2.1-20.84,3.6a28.49,28.49,0,0,0-15.24,11.72,18.92,18.92,0,0,0-3,9.48,19.3,19.3,0,0,0,.45,10.16l2.57,6.1a25.61,25.61,0,0,0,9.15,9.14l6.09,2.58a25.78,25.78,0,0,0,13.56,0,369.27,369.27,0,0,0,88.11-24A421.52,421.52,0,0,0,573,1409.81a357.42,357.42,0,0,0,37.73-24.43,389.72,389.72,0,0,0,38.87-32.53q2-1.95,4-3.94a19.1,19.1,0,0,0,5.28-8.2,26.21,26.21,0,0,0-5.28-27.86l-5.16-4a25.52,25.52,0,0,0-12.87-3.48l-6.78.91a25.45,25.45,0,0,0-11.25,6.56Z"/></svg>