<svg id="Layer_1" data-name="Layer 1" xmlns="http://www.w3.org/2000/svg" viewBox="0 0 1242 2208"><defs><style>.cls-1{fill:#f6eabe;}.cls-2{fill:#999;}.cls-3,.cls-4,.cls-5{fill:none;}.cls-4,.cls-5{stroke:#000;stroke-miterlimit:10;stroke-width:50px;}.cls-5{stroke-linecap:round;}</style></defs><rect class="cls-1" width="1242" height="2208"/><path d="M960.91,733.2H630.61V852.3h-52.4V733.2h-324V684.77h324V616.49H337.63V310.8H578.21V248.87H278.88V200.44H578.21V128.18h52.4v72.26H933.12v48.43H630.61V310.8H877.54V616.49H630.61v68.28h330.3ZM388.45,441.81H578.21V355.26H388.45ZM578.21,572V484.68H388.45V572Zm52.4-216.76v86.55H824.35V355.26ZM824.35,484.68H630.61V572H824.35Z"/><rect class="cls-2" x="1113" y="434" width="65" height="126" rx="12"/><path class="cls-1" d="M1132.7,463.82c1.25,1.6,4.9,6.7,5.7,8.05l-2,2.45c-.7-1.5-2.35-4.4-3.75-6.65V494h-3.15V469.57c-1.5,5.05-3.5,9.9-5.55,12.85a14.83,14.83,0,0,0-1.75-3.1c2.9-4,5.8-11.5,7.2-18h-6.2v-3.15h6.3v-9.65h3.15v9.65h5.45v3.15h-5.45Zm19.1.7a19.47,19.47,0,0,0,.45,2.65c-10.15,2.7-11.6,3.15-12.5,3.75a12.13,12.13,0,0,0-1.1-3.2c.7-.2,1.55-.5,1.55-2.2v-16.7h3.25v6.5h8.35v2.9h-8.35v8.3Zm2.35,5.5-2,3.75h12.65V494h-3.4v-1.75h-17v2h-3.3V473.77h7.9c.55-1.5,1.2-3.25,1.55-4.6Zm7.3,6.5h-17v5.05h17Zm0,13v-5.3h-17v5.3Zm2.25-22.4c1.25,0,1.5-.75,1.65-5.25a9.16,9.16,0,0,0,2.85,1.25c-.3,5.45-1.2,6.95-4.15,6.95h-5.85c-3.65,0-4.55-.95-4.55-4.45V448.87h3.25v6.5h10.2v2.9h-10.2v7.35c0,1.3.25,1.5,1.65,1.5Z"/><path class="cls-1" d="M1167.55,523.87v2.5H1123.4v-2.5h20.25v-3.2H1126.8v-2.3h16.85v-3H1128.2v-2.25h15.45v-3.2H1123.5v-2.5h20.15v-3.05H1128.8V502h14.85v-3.55h3.25V502h14.45v5.4h6.15v2.5h-6.15v5.45H1146.9v3h17.3v2.3h-17.3v3.2Zm-37.75,5h31.75v15.25h-3.25v-1.6H1133v1.7h-3.2Zm3.2,2.4v3.2h25.3v-3.2Zm25.3,8.85v-3.4H1133v3.4Zm-11.4-32.7h11.15v-3.05H1146.9Zm0,5.7h11.15v-3.2H1146.9Z"/><path d="M354.92,1857.69a98.85,98.85,0,0,1-6.18,13.56v39.59H344.9v-33.35a61.73,61.73,0,0,1-5.46,7,32.86,32.86,0,0,0-2.28-3.9c5.58-5.87,10.8-14.87,14-24Zm34.14,28c-2.1,1.26-4.44,2.64-6.84,3.78,2,6.06,5.82,11.82,10.38,14.52a11.2,11.2,0,0,0-2.64,2.94c-4.62-3.18-8.46-9.42-10.68-16a27.45,27.45,0,0,1-2.76,1.2c2.58,6.84,1.86,14-1,16.68a6.91,6.91,0,0,1-5.22,1.92c-1.08,0-2.4-.06-3.78-.18a9.31,9.31,0,0,0-1-3.42,38.26,38.26,0,0,0,4.14.24,3.66,3.66,0,0,0,3.12-1.14c1.56-1.38,2.22-5.16,1.44-9.36-5.16,4.92-13.08,9.36-19.8,11.7a15.8,15.8,0,0,0-2.34-2.82c7.62-2.28,16.62-7.14,21.3-12.24a35.76,35.76,0,0,0-1.5-3.48,63.52,63.52,0,0,1-17.22,9.9,16.14,16.14,0,0,0-2.22-2.64c5.94-1.8,13.74-5.76,17.88-9.54a16.39,16.39,0,0,0-2.94-3.18,58.44,58.44,0,0,1-13.56,7.26,11.26,11.26,0,0,0-2.22-2.58,52.48,52.48,0,0,0,15.06-7.56H356.48v-9.35c-1.14,1-2.28,2-3.54,2.94a9.54,9.54,0,0,0-2.52-2.59,44.59,44.59,0,0,0,13.86-16.25l3.84.72c-.6,1.2-1.32,2.34-2,3.54h11.1l.72-.18,2.34,1.68a52.13,52.13,0,0,1-4.8,6.84h13.08v12.65H370.94a15.29,15.29,0,0,1-1.2,1,21,21,0,0,1,5.64,6.84,111.93,111.93,0,0,0,10.92-6.42ZM364,1863.81a54.58,54.58,0,0,1-4.2,5.16h11.58a37.88,37.88,0,0,0,3.72-5.16Zm-3.9,14.69h10.5v-6.42h-10.5Zm24.72-6.42H374.18v6.42H384.8Z"/><path d="M452.36,1880.91v4.31H397.88v-4.31Z"/><path d="M470.72,1896.86h9v3.48h-9V1911h-3.48v-10.68h-9.6v-3.48h9.6v-4.92H459.5v-21h7.74v-4.56h-9.06V1863h9.06v-6.6h3.48v6.6h8.58v3.42h-8.58V1871h7.92v21h-7.92ZM462.38,1880h5.22v-6h-5.22Zm0,8.93h5.22v-6h-5.22ZM475.64,1874h-5.28v6h5.28Zm0,8.88h-5.28v6h5.28Zm22.08-18.23v6.18h13.56v35.69c0,2-.42,3.06-1.8,3.66s-3.72.6-7.26.6a14.59,14.59,0,0,0-1.08-3.36c2.7.06,5.1.06,5.88,0s.9-.18.9-.9v-7.86a8.93,8.93,0,0,0-1.32,1.26,22.75,22.75,0,0,1-3.54-9.18c-.9,4-2.22,7.26-4.08,9.36a6.59,6.59,0,0,0-1.62-2v12.36H494.6v-12.24a16,16,0,0,0-1.8,1.56,22.81,22.81,0,0,1-2.82-8.4c-.84,3.78-2,6.9-3.78,8.88a6.21,6.21,0,0,0-1.62-2.16c2.52-2.7,3.84-8.52,4.5-15.6H486.2v-2.63h5.22c0,6.59.18,12.89,3.18,17.93v-23.51H484.28v36.59h-3.12v-40h13v-6.18H480.44v-3.54h31.62v3.54Zm10.2,9.6H497.36v23.69c2.64-2.82,4-8.64,4.68-15.48H499v-2.63h5.58c0,6.29.24,12.41,3.36,17.45Z"/><path d="M571.82,1902.14h-25v9h-4v-9H518.42v-3.66H542.9v-5.16H524.72v-23.09H542.9v-4.68H520.28v-3.66H542.9v-5.46h4v5.46h22.86v3.66H546.86v4.68h18.66v23.09H546.86v5.16h25Zm-43.26-22H542.9v-6.54H528.56ZM542.9,1890v-6.59H528.56V1890Zm4-16.38v6.54H561.5v-6.54Zm14.64,9.79H546.86V1890H561.5Z"/><path d="M594,1857c-1,2.94-2.1,6.3-3.18,8.88H601v38.75h-16.8v4.8h-3.66v-43.55h6.66a64.68,64.68,0,0,0,2.58-9.72Zm3.3,12.47H584.18v13.08h13.14Zm0,31.56v-14.88H584.18v14.88Zm33.06-33.17c-1,27.53-1.8,36.71-4.2,39.59a5.6,5.6,0,0,1-4.56,2.28,74.94,74.94,0,0,1-8.82-.12,9.42,9.42,0,0,0-1.32-3.9c3.9.36,7.5.36,8.82.36s1.92-.12,2.52-.9c2-2.1,2.94-11.34,3.72-35.7H610.82a55.33,55.33,0,0,1-5.64,10.68,36.22,36.22,0,0,0-3.36-2.22c4.08-5.34,7.32-13.61,9.18-21.89l3.84.84c-.78,3-1.62,6-2.64,8.88h18.18Zm-12.78,27a106.51,106.51,0,0,0-9.3-13.92l3.06-1.79a102.47,102.47,0,0,1,9.6,13.61Z"/><path d="M657.5,1886l-7.44,2.4v17.82c0,2.4-.54,3.42-2,4.08s-3.84.72-7.74.72a15.89,15.89,0,0,0-1.32-3.66c2.82.06,5.34.06,6.06.06s1.14-.3,1.14-1.14V1889.6c-2.94,1-5.7,1.8-8.16,2.58l-1.14-3.9c2.58-.72,5.82-1.61,9.3-2.7v-13.31h-8.46v-3.78h8.46v-12.12h3.84v12.12h6.84v3.78h-6.84v12.23l7-2.09Zm33.72-15.89v40.31h-4v-3.84H663v4.26h-3.78v-40.73H673v-13.68h3.78v13.68ZM663,1874v12.23h10V1874Zm0,28.85h10V1890H663Zm13.8-28.85v12.23h10.5V1874Zm10.5,28.85V1890h-10.5v12.84Z"/><path d="M746.18,1885.17c-2.58,1.43-5.7,3-8.7,4.37,2.46,5.52,7.32,11.88,14.52,14.94a18.12,18.12,0,0,0-2.64,3.36c-7.5-3.66-12.54-11-15.06-16.86-1.2.54-2.4,1-3.48,1.38,4,7,3.12,13.86-1.14,16.62a9.52,9.52,0,0,1-6.12,1.74c-1.38,0-3.18-.06-5.1-.12a9.28,9.28,0,0,0-1.14-3.66,50.42,50.42,0,0,0,5.58.24,6.85,6.85,0,0,0,4.26-1c2.52-1.68,3.24-6,1.08-10.8-6.84,5.28-17.88,10.08-26.76,12.42a14.51,14.51,0,0,0-2.28-3.06c9.48-2.1,21.24-7,27.54-12.12a25.51,25.51,0,0,0-2.34-3c-5.82,3.9-14.88,7.32-21.9,9.06a15.75,15.75,0,0,0-2.34-2.94c7.38-1.44,16.62-4.68,22.08-8.16a31.09,31.09,0,0,0-3.66-2.88,95,95,0,0,1-15.42,5.64,14.31,14.31,0,0,0-2.28-2.76,83.52,83.52,0,0,0,17.76-5.94H704.78v-9.83c-1.2.83-2.4,1.55-3.72,2.33a14.34,14.34,0,0,0-2.64-2.75c8-4.32,14.16-10.32,17.34-15.24l4.26.84c-.84,1.2-1.68,2.28-2.7,3.48h13.56l.6-.24,2.76,1.8a40.15,40.15,0,0,1-4.8,6.48H745.7v13.13H724c-.72.48-1.5,1-2.28,1.44a28.71,28.71,0,0,1,7.32,6.78,101.21,101.21,0,0,0,13.92-7.13Zm-37.62-6.67H723v-6.83H708.56Zm5.88-14.87a59.64,59.64,0,0,1-5.28,4.86h15.66a38,38,0,0,0,3.84-4.86Zm27.36,8H726.62v6.83H741.8Z"/><path d="M773.24,1886.78a58,58,0,0,1-12.06,19.14,26,26,0,0,0-3.66-2.46,47,47,0,0,0,11.64-17.75Zm13.62-7.91v31.79h-4.14v-31.79H758.84v-4h52.5v4Zm19.2-14.22H764.18v-3.9h41.88Zm-5.16,20.93c4.5,5.58,9.24,13.14,11,18.24l-3.9,1.8c-1.74-5-6.3-12.78-10.8-18.48Z"/><path d="M819.08,1907.48c3.06-2.58,5.64-7,7.08-10.44l3.3,1.5c-1.68,3.6-4.08,8-7.14,10.86Zm51.72-36.9v3.25H819.56v-3.25h14.16a23.89,23.89,0,0,0-2.34-5.45l3.36-.84H822.26V1861h21.9c-.72-1.44-1.56-2.94-2.34-4.2l3.78-.9a39.9,39.9,0,0,1,2.94,5.1h19.2v3.3H855.86l3.24.78c-1,1.92-2,3.84-3,5.51Zm-7,23.7H842.66a47.07,47.07,0,0,1,8.82,6.24L849,1903a48.61,48.61,0,0,0-9.3-6.9l2-1.8H826.58V1877h37.2Zm-3.9-14.45H830.36v4.43h29.52Zm0,7.13H830.36v4.44h29.52Zm-8.22,20.16c2.58,0,3-.72,3.24-6.24a12.08,12.08,0,0,0,3.54,1.38c-.48,6.66-1.74,8.22-6.42,8.22H840.44c-5.82,0-7.38-1-7.38-5v-8H837v8c0,1.38.54,1.68,3.72,1.68ZM835,1864.29a26.19,26.19,0,0,1,2.76,6.18l-.48.11H852a59.18,59.18,0,0,0,3.06-6.29Zm27.66,32.21a46.55,46.55,0,0,1,8,10.2l-3.36,1.74a49,49,0,0,0-7.8-10.56Z"/><path d="M883.88,1892c4.68-2,7.26-4.86,7.56-9.17a4,4,0,0,1-1.14.11c-2.34,0-4.26-1.32-4.26-4.07a4,4,0,0,1,4.32-4.08c3.18,0,4.86,2.58,4.86,6.66,0,6.41-4,11.21-10.08,13.43Z"/><path d="M287.36,1952.91v4.31H232.88v-4.31Z"/><path d="M306.26,1939.89h7.2v3.78h-7.2v3.06c1.62,2.22,6,8.94,7,10.67l-2.4,2.88c-.84-1.86-2.88-5.64-4.56-8.64v31.26h-3.72v-30.23c-2.1,6.95-5,13.79-7.92,17.87a21,21,0,0,0-2.22-3.72c3.9-5.1,7.8-14.75,9.72-23.15H293.3v-3.78h9.24v-11.58h3.72Zm39.6,22.07a77.93,77.93,0,0,1-10.68,7.26,27,27,0,0,0,12.42,9.84,19.57,19.57,0,0,0-2.76,3.48c-9.72-4.32-15.66-13.56-18.78-25.5h-6.3v20.46l11.34-2.76a20.69,20.69,0,0,0,.18,3.48c-12.48,3.48-14.22,4-15.3,4.8a18.6,18.6,0,0,0-1.68-3.48c.72-.42,1.56-1.08,1.56-3.36V1931h26.46v26H329.6a40.25,40.25,0,0,0,3.78,9.3,76.49,76.49,0,0,0,9.84-7.13Zm-26.1-27.41v7.68h18.66v-7.68Zm0,19h18.66v-7.92H319.76Z"/><path d="M406.82,1974.14h-25v9h-4v-9H353.42v-3.66H377.9v-5.16H359.72v-23.09H377.9v-4.68H355.28v-3.66H377.9v-5.46h4v5.46h22.86v3.66H381.86v4.68h18.66v23.09H381.86v5.16h25Zm-43.26-22H377.9v-6.54H363.56ZM377.9,1962v-6.59H363.56V1962Zm4-16.38v6.54H396.5v-6.54Zm14.64,9.79H381.86V1962H396.5Z"/><path d="M427.52,1968.8h11.1v3.6h-11.1v10.68h-3.66V1972.4H412.64v-3.6h11.22v-5H415v-20.64h8.88v-4.61H413.24V1935h10.62v-6.66h3.66V1935H437.9v3.48H427.52v4.61h9.24v20.64h-9.24ZM418,1952h6.12v-5.7H418Zm0,8.75h6.12v-5.82H418Zm15.48-14.45h-6.36v5.7h6.36Zm0,8.63h-6.36v5.82h6.36Zm32.1-13.85v41.51H462v-2.88H443.36v3.3h-3.48V1941h10.68v-12.66h3.78V1941Zm-22.26,3.54V1958h7.32v-13.43Zm0,31.49h7.32V1961.6h-7.32ZM462,1944.57h-7.8V1958H462Zm0,31.49V1961.6h-7.8v14.46Z"/><path d="M490,1941.62a64.7,64.7,0,0,1-5.34,7.92v33.66H481v-29.28a74.28,74.28,0,0,1-7.14,6.78,29.45,29.45,0,0,0-2.34-3.48,58.73,58.73,0,0,0,15-16.85Zm-1.44-11.87a59.36,59.36,0,0,1-14.1,14.1,20.64,20.64,0,0,0-2.28-2.82c4.74-3.24,10.14-8.4,12.78-12.66Zm22.2,48.59a31.51,31.51,0,0,0,5.46.42c1.26.06,9.36,0,11.22,0a10.05,10.05,0,0,0-1.32,3.6H516c-9.06,0-15.3-2.22-19.14-11.4a26.48,26.48,0,0,1-7.26,11.82,28.42,28.42,0,0,0-3.12-2.52c6.18-5,8.4-13.2,8.94-24.3l3.84.3a74,74,0,0,1-1,8.88c1.86,6.78,4.86,10.38,8.88,12.12v-25.68h.48a25.66,25.66,0,0,0-2.88-2.21c6.12-4.45,9.48-11.64,10.8-20.94l3.84.48a50.08,50.08,0,0,1-2.4,9.72,78.36,78.36,0,0,1,10.74,10.62L524.9,1952a80.5,80.5,0,0,0-9.36-10,28.48,28.48,0,0,1-7.26,9.59h2.52v10.32h13.62v3.48H510.8Zm-5.22-30.84a61,61,0,0,0-6.18-6,36.85,36.85,0,0,1-7.92,11.34,19,19,0,0,0-3-2.76c5.64-4.85,9.24-12.59,11-21.71l3.9.6a60.12,60.12,0,0,1-2.64,9.3,60.56,60.56,0,0,1,6.78,6.12Z"/><path d="M586.76,1976.18v4H533.3v-4h22.62v-46.85h4.14v18.54h22.62v4H560.06v24.3Z"/><path d="M611.78,1972.88c4.2-.78,8.52-1.5,12.72-2.34l.24,3.48c-10.62,2.1-22,4.32-29.88,5.76l-.84-3.72c3.72-.66,8.58-1.5,13.92-2.46v-10.44H596.12v-3.6h11.82v-6.65h3.84v6.65H624v3.6H611.78Zm-17.28-40.49h30.6v3.54H608.84a79,79,0,0,1-7.26,11.69l16.2-1.43c-1.56-2.16-3.18-4.32-4.68-6.18l2.88-1.74a88.33,88.33,0,0,1,9.12,12.83l-3,2a36.18,36.18,0,0,0-2.28-3.83c-19,1.92-21.18,2.16-22.5,2.75a24.8,24.8,0,0,0-1.38-3.77c1-.19,1.86-1.27,2.88-2.65a55.36,55.36,0,0,0,5.58-9.65h-9.9Zm37.86,37.13h-3.72v-36h3.72Zm12-40.13v47c0,2.64-.66,3.84-2.34,4.5s-4.92.78-9.18.78a16.81,16.81,0,0,0-1.56-4c3.6.12,6.9.12,7.92.06s1.26-.3,1.26-1.26v-47Z"/><path d="M681,1936.71v10.86l.66-.78c7.32,3.54,16.74,8.93,21.54,12.53l-2.76,3.6c-4.2-3.42-12.48-8.46-19.44-12.12v32.1h-4.2v-46.19H653.54v-4h53v4Z"/><path d="M766.7,1936.77v3.35h-8.4l-.54,6.49H721.4l.9-6.49h-8.94v-3.35h9.36l.84-6.18h35.52l-.48,6.18Zm-32,39.23c-4.86,2.82-12.36,5.52-18.3,7.14a27.58,27.58,0,0,0-2.94-3c6.12-1.32,13.26-3.48,17.64-5.82Zm25-2.46H721v-24.12h38.64Zm-3.9-21.29h-30.9v4.25h30.9Zm0,7h-30.9v4.37h30.9Zm0,7.07h-30.9v4.44h30.9Zm-30.24-22.43h12.12q.27-1.8.54-4H726.08Zm1.44-10.56-.48,3.72h12.06c.12-1.26.24-2.52.3-3.72ZM754,1943.85l.36-4H741.86c-.12,1.44-.3,2.76-.48,4Zm.9-10.56H742.58l-.36,3.72h12.42Zm-6.6,41.15a182.06,182.06,0,0,1,18.24,6.42l-4.14,2.22a138.62,138.62,0,0,0-17.16-6.54Z"/><path d="M825.44,1966.34H811.82v11.76c0,2.4-.6,3.48-2.34,4.08s-4.74.66-9.36.66a17.26,17.26,0,0,0-1.5-3.72c3.78.12,7.08.12,8,.06s1.26-.3,1.26-1.14v-11.7h-.42c-7.56,6.48-20.64,11.7-31.74,14a20.32,20.32,0,0,0-2.4-3.3c10-1.86,21.6-5.88,29-10.74H780.08c.9-3.12,2.1-7.8,2.94-11.76h-5.1v-3.24h45.66v3.24H811.82v8.22h13.62Zm-46.56-22.61H775v-9.3h23.94c-.54-1.68-1.2-3.78-1.92-5.4l3.9-1a59.39,59.39,0,0,1,2.4,6.36h22v9.3h-4v-5.82H806.9v5.4c0,1.5.24,2,1.68,2h9.3a26.55,26.55,0,0,0,4.5-.3c.12,1.08.24,2.22.36,3.18a24.39,24.39,0,0,1-4.68.29h-10.2c-4,0-4.92-1.62-4.92-5.21v-5.34h-6.6c-1.5,7.2-5.88,10.62-18.6,12.24a13.32,13.32,0,0,0-1.86-3.07c11.4-1.25,15.24-3.71,16.5-9.17h-13.5Zm8.1,10.85c-.66,2.64-1.38,5.64-2.1,8.22h23v-8.22Z"/><path d="M886.82,1974.14h-25v9h-4v-9H833.42v-3.66H857.9v-5.16H839.72v-23.09H857.9v-4.68H835.28v-3.66H857.9v-5.46h4v5.46h22.86v3.66H861.86v4.68h18.66v23.09H861.86v5.16h25Zm-43.26-22H857.9v-6.54H843.56ZM857.9,1962v-6.59H843.56V1962Zm4-16.38v6.54H876.5v-6.54Zm14.64,9.79H861.86V1962H876.5Z"/><path d="M933.44,1929.27c-.36.72-.78,1.44-1.14,2.16a78.7,78.7,0,0,0,15.72,15,11.17,11.17,0,0,0-2.7,3.07c-1.68-1.45-3.36-3-5-4.38V1948h-19.2v-2.33a56.38,56.38,0,0,1-4.74,4.13,14.7,14.7,0,0,0-2.46-2.69v17.21h-7.68v4.8h8.88v3.54h-8.88V1983H902.6V1972.7h-9.66v-3.54h9.66v-4.8h-7.86v-21.29h7.86v-4.74h-9.12v-3.48h9.12v-6.48h3.66v6.48h8.94v3.48h-8.94v4.74h7.68v3.84a58.26,58.26,0,0,0,16.56-19Zm-35.58,22.91H903v-6.06h-5.1Zm0,9.12H903v-6.18h-5.1Zm12.84-15.18h-4.8v6.06h4.8Zm0,9h-4.8v6.18h4.8Zm34,23.58c0,1.68-.24,2.64-1.32,3.3s-2.46.66-4.74.66a13.72,13.72,0,0,0-1.08-3.36c1.44.06,2.76.06,3.24.06s.6-.18.6-.72v-9.78h-5v13h-3.06v-13h-5v13h-3v-13h-5.16v14h-3.3v-29.4h27.84Zm-19.38-13.2v-8.58h-5.16v8.58Zm14.58-20.81a97.44,97.44,0,0,1-9.48-10.26,69.34,69.34,0,0,1-8.28,10.26Zm-6.6,20.81v-8.58h-5v8.58Zm8.1,0v-8.58h-5v8.58Z"/><path d="M969.14,1946h10.74v3.72H969.14v1.62c2.22,2.39,8.7,10,10.14,11.87l-2.46,3.24a129,129,0,0,0-7.68-10.49v26.93h-4v-27.17c-3,7.07-7.2,14.21-11.1,18.41a28.3,28.3,0,0,0-2.22-3.66c4.56-4.62,9.6-13.08,12.36-20.75H953.24V1946h11.88v-10.32c-3.42.54-6.9,1-10.14,1.44a15.29,15.29,0,0,0-1.08-3.18c7.92-1.08,17.52-2.82,22.68-5l2.76,3.12a83.55,83.55,0,0,1-10.2,2.82Zm34.74-12.06V1980h-4v-4.56h-14v5H982v-46.49Zm-4,37.67v-33.83h-14v33.83Z"/><path d="M358.28,2004.33c-1.86,5-4.32,11.28-6.48,16.2,4.74,5.15,5.88,9.59,5.88,13.43,0,3.12-.72,5.7-2.4,6.9A8,8,0,0,1,352,2042a35.41,35.41,0,0,1-4.38.06,8.3,8.3,0,0,0-1.08-3.66,30.05,30.05,0,0,0,4,.06,3.78,3.78,0,0,0,2.1-.6c1-.66,1.32-2.46,1.32-4.26,0-3.48-1.2-7.68-5.94-12.6,2-4.55,4-10.19,5.4-14.45h-9.48V2055h-3.72v-52.07H355l.6-.18Zm12.66,9.9c-.12,3.23-.24,6.35-.48,9.41h17.82s-.06,1.38-.06,1.92c-.72,18.66-1.38,25.32-3.18,27.48a5.24,5.24,0,0,1-4,1.86,65.45,65.45,0,0,1-8.22-.12,10.84,10.84,0,0,0-1.2-3.9c3.36.3,6.6.36,7.8.36a2.5,2.5,0,0,0,2.22-.78c1.26-1.44,2-7.26,2.58-23.09H370c-1.32,11.75-4.92,21.65-15.3,27.47a12,12,0,0,0-2.64-2.88c13.32-7.26,14.46-21.71,14.88-37.73H357.2v-3.72h34.62v3.72Zm2.94-3.84a75.22,75.22,0,0,0-2.82-9l3.66-.84a73.26,73.26,0,0,1,2.88,8.7Z"/><path d="M451.7,2048.12v3.9H398.18v-3.9h8.4v-34.5h4.08v34.5h14.52v-47.57h4.14v20h19.8v4h-19.8v23.58Z"/><path d="M511.82,2046.14h-25v9h-4v-9H458.42v-3.66H482.9v-5.16H464.72v-23.09H482.9v-4.68H460.28v-3.66H482.9v-5.46h4v5.46h22.86v3.66H486.86v4.68h18.66v23.09H486.86v5.16h25Zm-43.26-22H482.9v-6.54H468.56ZM482.9,2034v-6.59H468.56V2034Zm4-16.38v6.54H501.5v-6.54Zm14.64,9.79H486.86V2034H501.5Z"/><path d="M558.44,2001.27c-.36.72-.78,1.44-1.14,2.16a78.7,78.7,0,0,0,15.72,15,11.17,11.17,0,0,0-2.7,3.07c-1.68-1.45-3.36-3-5-4.38V2020h-19.2v-2.33a56.38,56.38,0,0,1-4.74,4.13,14.7,14.7,0,0,0-2.46-2.69v17.21h-7.68v4.8h8.88v3.54h-8.88V2055H527.6V2044.7h-9.66v-3.54h9.66v-4.8h-7.86v-21.29h7.86v-4.74h-9.12v-3.48h9.12v-6.48h3.66v6.48h8.94v3.48h-8.94v4.74h7.68v3.84a58.26,58.26,0,0,0,16.56-19Zm-35.58,22.91H528v-6.06h-5.1Zm0,9.12H528v-6.18h-5.1Zm12.84-15.18h-4.8v6.06h4.8Zm0,9h-4.8v6.18h4.8Zm34,23.58c0,1.68-.24,2.64-1.32,3.3s-2.46.66-4.74.66a13.72,13.72,0,0,0-1.08-3.36c1.44.06,2.76.06,3.24.06s.6-.18.6-.72v-9.78h-5v13h-3.06v-13h-5v13h-3v-13h-5.16v14h-3.3v-29.4h27.84Zm-19.38-13.2v-8.58h-5.16v8.58Zm14.58-20.81a97.44,97.44,0,0,1-9.48-10.26,69.34,69.34,0,0,1-8.28,10.26Zm-6.6,20.81v-8.58h-5v8.58Zm8.1,0v-8.58h-5v8.58Z"/><path d="M596.24,2049.74c0,2.16-.54,3.3-1.86,4s-3.6.72-7.5.72a22.79,22.79,0,0,0-1.08-3.66c2.7.12,5.1.06,5.82.06s1-.3,1-1.14v-17.46c-2.16,1.56-4.26,3.18-6.3,4.62l-1.74-3c-.48,7.32-1.62,15.24-4.32,21.18a11.24,11.24,0,0,0-3.18-1.92c4-8.4,4.26-20.4,4.26-29.1v-21.47h14.88ZM584.9,2024c0,2.76-.06,6.06-.24,9.42,2-1.08,5-2.94,8-4.8v-8l-2.16,1.68a55.49,55.49,0,0,0-5.58-6.25Zm0-17.75v9.54l2.22-1.62a52.34,52.34,0,0,1,5.52,5.58v-13.5Zm42.54,44.33c1.44,0,1.74-1,1.86-7.86a9.67,9.67,0,0,0,3.48,1.56c-.36,8-1.44,9.9-4.92,9.9H622.1c-4.08,0-5-1.2-5-5.28v-14.82h-5.52c-.78,10.14-2.94,17.16-11.7,21.06a13.77,13.77,0,0,0-2.46-3.12c7.8-3.24,9.54-9.18,10.14-17.94h-5.16V2017c-.9,1-1.8,1.92-2.76,2.81a18.77,18.77,0,0,0-2.88-2.81,39.87,39.87,0,0,0,10.92-15.78l3.66,1a49.93,49.93,0,0,1-8.82,14.7h25.14a103.31,103.31,0,0,0-10.56-14.34l2.88-1.68c4.68,5.16,10,12.23,12.36,16.73l-3.12,2.11c-.42-.85-.9-1.69-1.5-2.7v17.09H620.9v14.82c0,1.44.24,1.68,1.68,1.68ZM606,2030.67H623.9v-10.33H606Z"/><path d="M648,2033.18c-2.28-1.56-6.78-4.26-10.2-6.06l2.28-2.7c3.36,1.75,7.92,4.14,10.32,5.7Zm4-24.89H638.84v-3.6H652v-4.32h3.9v4.32h7.62v3.6h-7.62v5.28H652Zm-13,43.43a155.45,155.45,0,0,0,11.88-15.36l2.46,2.82a185.5,185.5,0,0,1-11.4,15.54Zm5.22-38.75,10.14,5.94-2.34,3c-2.34-1.45-7-4.33-10.2-6.3Zm44,4.49a38.06,38.06,0,0,1-11,10.92,71.08,71.08,0,0,0,16,5.76,15.49,15.49,0,0,0-2.46,3.42,73.25,73.25,0,0,1-17-7.08,76.11,76.11,0,0,1-18.42,7.32,14.62,14.62,0,0,0-2-3.24,70.16,70.16,0,0,0,17-6.18,52.07,52.07,0,0,1-7.5-6.17,59.92,59.92,0,0,1-7,6.12,10.76,10.76,0,0,0-2.82-2.41,46.42,46.42,0,0,0,13.62-14.39l3.9.72c-.72,1.25-1.62,2.46-2.52,3.78h17l.66-.18Zm-28.62,19.86h27.18V2055h-4v-2.58H663.38V2055h-3.84Zm3.84,3.24v8.64h19.38v-8.64Zm1.56-20.81a44.41,44.41,0,0,0,8.7,6.71,36,36,0,0,0,8.64-7.25H665.42Zm8.94-11.52h-7.26v-3.6h7.26v-4.26h3.9v4.26H691v3.6h-13.2v5.34h-3.9Z"/><path d="M714,2001c-1,2.94-2.1,6.3-3.18,8.88H721v38.75h-16.8v4.8h-3.66v-43.55h6.66a64.68,64.68,0,0,0,2.58-9.72Zm3.3,12.47H704.18v13.08h13.14Zm0,31.56v-14.88H704.18v14.88Zm33.06-33.17c-1,27.53-1.8,36.71-4.2,39.59a5.6,5.6,0,0,1-4.56,2.28,74.94,74.94,0,0,1-8.82-.12,9.42,9.42,0,0,0-1.32-3.9c3.9.36,7.5.36,8.82.36s1.92-.12,2.52-.9c2-2.1,2.94-11.34,3.72-35.7H730.82a55.33,55.33,0,0,1-5.64,10.68,36.22,36.22,0,0,0-3.36-2.22c4.08-5.34,7.32-13.61,9.18-21.89l3.84.84c-.78,3-1.62,6-2.64,8.88h18.18Zm-12.78,27a106.51,106.51,0,0,0-9.3-13.92l3.06-1.79a102.47,102.47,0,0,1,9.6,13.61Z"/><path d="M811.82,2046.14h-25v9h-4v-9H758.42v-3.66H782.9v-5.16H764.72v-23.09H782.9v-4.68H760.28v-3.66H782.9v-5.46h4v5.46h22.86v3.66H786.86v4.68h18.66v23.09H786.86v5.16h25Zm-43.26-22H782.9v-6.54H768.56ZM782.9,2034v-6.59H768.56V2034Zm4-16.38v6.54H801.5v-6.54Zm14.64,9.79H786.86V2034H801.5Z"/><path d="M831.62,2041.16h9.72v3.54h-9.72V2055H828V2044.7h-10v-3.54h10v-4.8h-8.22v-21.29H828v-4.74h-9.48v-3.48H828v-6.48h3.66v6.48h9.54v3.48h-9.54v4.74h8.46v21.29h-8.46Zm-8.64-17h5.22v-6.06H823Zm0,9.12h5.22v-6.18H823Zm13.74-15.18h-5.34v6.06h5.34Zm0,9h-5.34v6.18h5.34Zm35.4,3v3.24H842.24v-3.24H854.9v-4H845V2023h9.9v-4.67c-3.42.24-6.9.42-10.08.42a11.68,11.68,0,0,0-1-2.76c3.48-.07,7.38-.3,11-.61v-4.13h3.72v3.83a76.13,76.13,0,0,0,8.22-1.25L868,2015v-5H845.9v5.63h-3.54v-8.87H856.1a34.78,34.78,0,0,0-3.9-5.46l3.18-1.44a27.76,27.76,0,0,1,4.92,6.9h11.4v8.75h-3.12l1,1a87.32,87.32,0,0,1-11,1.68v5H869v3.06H858.62v4Zm-26.82,7.38h23.58v17.28H865V2053H849V2055H845.3Zm3.72,3.24v9.06h16v-9.06Z"/><path d="M890.18,2018.67a9.06,9.06,0,1,1-9.06,9A9.09,9.09,0,0,1,890.18,2018.67Zm0,15.23a6.18,6.18,0,1,0,0-12.36,6.18,6.18,0,1,0,0,12.36Z"/><line class="cls-3" x1="621" y1="350" x2="621" y2="350"/><rect class="cls-2" x="1113" y="1266" width="65" height="220" rx="12"/><path class="cls-1" d="M1157.05,1304.79a27.61,27.61,0,0,0,11.5,8.1,11.65,11.65,0,0,0-2.15,2.55,30.77,30.77,0,0,1-12.8-10.65h-15.95a34.39,34.39,0,0,1-13,11.3,11.43,11.43,0,0,0-2.15-2.55,30.39,30.39,0,0,0,11.6-8.75H1123v-2.85h10v-16.15h-7.7V1283h7.7v-5h3.3v5h18.55v-5h3.35v5h7.65v2.8h-7.65v16.15h9.8v2.85Zm-10,14.5h17.3v2.85H1126.8v-2.85h16.9v-5.6h-10.45v-2.8h10.45v-4.4h3.35v4.4h10.65v2.8h-10.65Zm-10.8-33.5v3.6h18.55v-3.6Zm0,9.8h18.55v-3.65h-18.55Zm0,6.35h18.55v-3.8h-18.55Z"/><path class="cls-1" d="M1141.25,1346.54s0,1.15,0,1.55c-.6,15.85-1.2,21.2-2.6,23a3.71,3.71,0,0,1-2.8,1.45,32.65,32.65,0,0,1-4.45,0,9.25,9.25,0,0,0-.85-3c1.75.15,3.2.15,3.9.15a1.42,1.42,0,0,0,1.45-.65c1-1.2,1.6-6,2.15-19.35h-6.8c-.55,10-2,18.25-6.45,23.65a9.53,9.53,0,0,0-2.55-2.35c5.45-6.45,5.9-17.85,6.1-31.55h-5.2v-3.1h20.1v3.1h-11.65c0,2.45-.1,4.85-.2,7.15Zm-7.9-10.45a33.47,33.47,0,0,0-4.25-7.15l2.9-1.15a31.92,31.92,0,0,1,4.4,7Zm23.85-7.45a15.26,15.26,0,0,1-.85,2.55c2.65,5.45,7.7,11.35,12.45,14a13,13,0,0,0-2.45,2.75c-4.25-2.7-8.5-8-11.4-13.3a32.61,32.61,0,0,1-11,13.6,12.79,12.79,0,0,0-2.35-2.65c5.85-3.6,10.35-10.2,12.5-17.85Zm-8.3,32.45a74,74,0,0,1,13.6,8.25l-2.25,2.9c-2.85-2.6-8.75-6.3-13.4-8.65Zm9.5-4.85a66.22,66.22,0,0,0-8.6-6.85l2.15-2.2a67.46,67.46,0,0,1,8.75,6.55Z"/><path class="cls-1" d="M1148.6,1378.94c-.35.6-.8,1.15-1.2,1.75,4.95,5.5,13.85,10.9,21.4,13.3a16.56,16.56,0,0,0-2.35,2.9,60.7,60.7,0,0,1-21-13.9,48.65,48.65,0,0,1-12.4,10h25.1v3.1h-11.1v7.05h17.75v3H1147.1v12.7H1167v3.1h-43v-3.1h19.55v-12.7h-17.35v-3h17.35v-7.05h-10.9v-2.9a58.72,58.72,0,0,1-8.25,3.85,11.79,11.79,0,0,0-2.25-3c9.35-3.1,18.55-9.1,23.3-16.5Zm-15.25,28.65a42.46,42.46,0,0,1,4.8,9.1l-2.9,1.2a40.78,40.78,0,0,0-4.65-9.2Zm18.55,9.3a71.79,71.79,0,0,0,5.35-9.35l3.15,1.25a101.62,101.62,0,0,1-6,9.2Z"/><path class="cls-1" d="M1160,1440.09a51.83,51.83,0,0,1-12,19.6,49.94,49.94,0,0,0,20.5,10.5,16.79,16.79,0,0,0-2.25,3,50.92,50.92,0,0,1-20.75-11.1c-5.65,5-12.55,8.6-21,11.3a15.53,15.53,0,0,0-2-3.05c8.35-2.45,15.1-5.9,20.6-10.6a57.05,57.05,0,0,1-12.2-19.65h-7.75v-3.25h44.75v3.25Zm-25.75,0a52.13,52.13,0,0,0,11.3,17.3,47.46,47.46,0,0,0,10.7-17.3Zm11.25-3.55a38.13,38.13,0,0,0-3.8-7.8l3.4-1a39,39,0,0,1,4,7.65Z"/><circle class="cls-4" cx="610" cy="1376" r="200"/><line class="cls-5" x1="610" y1="1041" x2="610" y2="1711"/><line class="cls-5" x1="520" y1="1089" x2="700" y2="1089"/><line class="cls-5" x1="520" y1="1663" x2="700" y2="1663"/><line class="cls-5" x1="410" y1="1376" x2="810" y2="1376"/><path class="cls-2" d="M138.88,1391.64h-25v9h-4v-9H85.48V1388H110v-5.16H91.78v-23.1H110V1355H87.34v-3.66H110v-5.46h4v5.46h22.85V1355H113.92v4.68h18.66v23.1H113.92V1388h25Zm-43.26-22H110v-6.54H95.62Zm14.34,9.84v-6.6H95.62v6.6Zm4-16.38v6.54h14.64v-6.54Zm14.64,9.78H113.92v6.6h14.64Z"/><path class="cls-2" d="M185.5,1346.76c-.36.72-.78,1.44-1.14,2.16a79,79,0,0,0,15.71,15,10.94,10.94,0,0,0-2.69,3.06c-1.69-1.44-3.36-2.94-5-4.38v2.94H173.2v-2.34a58.44,58.44,0,0,1-4.74,4.14,14.75,14.75,0,0,0-2.46-2.7v17.22h-7.68v4.8h8.88v3.54h-8.88v10.26h-3.66V1390.2H145v-3.54h9.66v-4.8H146.8v-21.3h7.86v-4.74h-9.12v-3.48h9.12v-6.48h3.66v6.48h8.94v3.48h-8.94v4.74H166v3.84a58.26,58.26,0,0,0,16.56-19Zm-35.58,22.92H155v-6.06h-5.1Zm0,9.12H155v-6.18h-5.1Zm12.84-15.18H158v6.06h4.8Zm0,9H158v6.18h4.8Zm34,23.58c0,1.68-.23,2.64-1.31,3.3s-2.46.66-4.74.66a13.72,13.72,0,0,0-1.08-3.36c1.44.06,2.76.06,3.24.06s.6-.18.6-.72v-9.78h-5v13h-3.06v-13h-5v13h-3v-13h-5.16v14h-3.3V1371h27.83ZM177.4,1383v-8.58h-5.16V1383ZM192,1362.18a97.44,97.44,0,0,1-9.48-10.26,68.83,68.83,0,0,1-8.28,10.26Zm-6.6,20.82v-8.58h-5V1383Zm8.1,0v-8.58h-5V1383Z"/><path class="cls-2" d="M1078.88,1105.64h-25v9h-4v-9h-24.48V1102H1050v-5.16h-18.18v-23.1H1050V1069h-22.62v-3.66H1050v-5.46h4v5.46h22.86V1069h-22.86v4.68h18.66v23.1h-18.66V1102h25Zm-43.26-22H1050v-6.54h-14.34Zm14.34,9.84v-6.6h-14.34v6.6Zm4-16.38v6.54h14.64v-6.54Zm14.64,9.78h-14.64v6.6h14.64Z"/><path class="cls-2" d="M1098.68,1100.66h9.72v3.54h-9.72v10.26H1095V1104.2h-10v-3.54h10v-4.8h-8.22v-21.3H1095v-4.74h-9.48v-3.48H1095v-6.48h3.66v6.48h9.54v3.48h-9.54v4.74h8.46v21.3h-8.46Zm-8.64-17h5.22v-6.06H1090Zm0,9.12h5.22v-6.18H1090Zm13.74-15.18h-5.34v6.06h5.34Zm0,9h-5.34v6.18h5.34Zm35.39,3v3.24H1109.3v-3.24H1122v-4h-9.9v-3.06h9.9v-4.68c-3.42.24-6.9.42-10.08.42a11.68,11.68,0,0,0-1-2.76c3.48-.06,7.38-.3,11-.6v-4.14h3.72v3.84a78.81,78.81,0,0,0,8.22-1.26l1.19,1.08v-5H1113V1075h-3.54v-8.88h13.74a34.78,34.78,0,0,0-3.9-5.46l3.18-1.44a27.76,27.76,0,0,1,4.92,6.9h11.39v8.76h-3.12l1,1a87.32,87.32,0,0,1-11,1.68v5h10.37v3.06h-10.37v4Zm-26.81,7.38h23.58v17.28H1132v-1.74h-16v1.92h-3.72Zm3.72,3.24v9.06h16v-9.06Z"/><path class="cls-2" d="M1081.88,1676.64h-25v9h-4v-9h-24.48V1673H1053v-5.16h-18.18v-23.1H1053V1640h-22.62v-3.66H1053v-5.46h4v5.46h22.86V1640h-22.86v4.68h18.66v23.1h-18.66V1673h25Zm-43.26-22H1053v-6.54h-14.34Zm14.34,9.84v-6.6h-14.34v6.6Zm4-16.38v6.54h14.64v-6.54Zm14.64,9.78h-14.64v6.6h14.64Z"/><path class="cls-2" d="M1101.68,1671.66h9.72v3.54h-9.72v10.26H1098V1675.2h-10v-3.54h10v-4.8h-8.22v-21.3H1098v-4.74h-9.48v-3.48H1098v-6.48h3.66v6.48h9.54v3.48h-9.54v4.74h8.46v21.3h-8.46Zm-8.64-17h5.22v-6.06H1093Zm0,9.12h5.22v-6.18H1093Zm13.74-15.18h-5.34v6.06h5.34Zm0,9h-5.34v6.18h5.34Zm35.39,3v3.24H1112.3v-3.24H1125v-4h-9.9v-3.06h9.9v-4.68c-3.42.24-6.9.42-10.08.42a11.68,11.68,0,0,0-1-2.76c3.48-.06,7.38-.3,11-.6v-4.14h3.72v3.84a78.81,78.81,0,0,0,8.22-1.26l1.19,1.08v-5H1116V1646h-3.54v-8.88h13.74a34.78,34.78,0,0,0-3.9-5.46l3.18-1.44a27.76,27.76,0,0,1,4.92,6.9h11.39v8.76h-3.12l1,1a87.32,87.32,0,0,1-11,1.68v5h10.37v3.06h-10.37v4Zm-26.81,7.38h23.58v17.28H1135v-1.74h-16v1.92h-3.72Zm3.72,3.24v9.06h16v-9.06Z"/><path class="cls-2" d="M216.85,1355.25a345.92,345.92,0,0,1,113.08-16.66c10.8.2,21.6.92,32.34,2.13,1.43.16,1.42-2.09,0-2.25a349.35,349.35,0,0,0-114.74,6.11q-15.83,3.51-31.28,8.5c-1.37.44-.78,2.61.6,2.17Z"/><path class="cls-2" d="M1005.72,1658.55a322.08,322.08,0,0,1-47.81,18.55,337.31,337.31,0,0,1-152.46,9.36A324.15,324.15,0,0,1,755.87,1674c-2-.68-4-1.39-6-2.11-1.37-.49-2,1.68-.6,2.17a324.68,324.68,0,0,0,50,13.58A339.65,339.65,0,0,0,952.58,1681a326.87,326.87,0,0,0,48.49-17.76q2.89-1.34,5.79-2.73c1.3-.63.16-2.57-1.14-1.94Z"/><path class="cls-2" d="M1005.72,1081.55a322.08,322.08,0,0,1-47.81,18.55,337.31,337.31,0,0,1-152.46,9.36A324.15,324.15,0,0,1,755.87,1097c-2-.68-4-1.39-6-2.11-1.37-.49-2,1.68-.6,2.17a324.68,324.68,0,0,0,50,13.58A339.65,339.65,0,0,0,952.58,1104a326.87,326.87,0,0,0,48.49-17.76q2.89-1.34,5.79-2.73c1.3-.63.16-2.57-1.14-1.94Z"/></svg>