<svg id="Layer_1" data-name="Layer 1" xmlns="http://www.w3.org/2000/svg" viewBox="0 0 1242 2208"><defs><style>.cls-1{fill:#f6eabe;}.cls-2{fill:none;stroke:#000;stroke-linecap:round;stroke-miterlimit:10;stroke-width:51px;}</style></defs><rect class="cls-1" width="1242" height="2208"/><path d="M579.71,505.64H352.63V903.43H301V219H579.71ZM352.63,263.47v74.64H529.69V263.47ZM529.69,461.18V379.39H352.63v81.79ZM945.74,828.79c0,37.32-9.53,54.79-34.93,64.32-26.2,7.94-72.26,8.73-142.92,8.73-2.38-14.29-11.12-38.91-19.06-54,54.79,2.38,108,1.59,123.87,1.59,15.08-.8,20.64-5.56,20.64-20.65V506.43H656.73V219h289ZM707.55,263.47v74.64H893.34V263.47ZM893.34,462V379.39H707.55V462Z"/><path d="M439,1885.83c-2.92,1.64-6.46,3.47-9.86,5,2.79,6.25,8.29,13.46,16.45,16.93a20.37,20.37,0,0,0-3,3.81c-8.5-4.15-14.21-12.52-17.06-19.11-1.36.61-2.72,1.09-4,1.56,4.49,7.89,3.54,15.71-1.29,18.84a10.81,10.81,0,0,1-6.93,2c-1.57,0-3.61-.07-5.78-.14a10.52,10.52,0,0,0-1.3-4.14,57.65,57.65,0,0,0,6.33.27,7.73,7.73,0,0,0,4.82-1.16c2.86-1.9,3.68-6.8,1.23-12.24-7.75,6-20.26,11.43-30.33,14.08a16.57,16.57,0,0,0-2.58-3.47c10.74-2.38,24.07-8,31.21-13.73a28.29,28.29,0,0,0-2.65-3.4c-6.6,4.42-16.86,8.29-24.82,10.26a18,18,0,0,0-2.65-3.33c8.36-1.63,18.83-5.3,25-9.25a36.1,36.1,0,0,0-4.15-3.26,107.81,107.81,0,0,1-17.47,6.39,16.09,16.09,0,0,0-2.59-3.13,94.33,94.33,0,0,0,20.13-6.73H392.08v-11.15c-1.36.95-2.72,1.77-4.21,2.65a16.38,16.38,0,0,0-3-3.12c9.11-4.9,16-11.7,19.65-17.27l4.82,1c-1,1.36-1.9,2.58-3.06,3.94h15.37l.68-.27,3.13,2a45.34,45.34,0,0,1-5.44,7.34h18.42v14.89H413.91c-.82.55-1.7,1.09-2.58,1.63a32.77,32.77,0,0,1,8.29,7.69,115.19,115.19,0,0,0,15.78-8.09Zm-42.63-7.54h16.38v-7.75H396.37Zm6.66-16.87a68.36,68.36,0,0,1-6,5.51h17.74a41.84,41.84,0,0,0,4.35-5.51Zm31,9.12H416.83v7.75H434Z"/><path d="M484.76,1861.7v9H510v38.89c0,2.59-.61,4-2.52,4.63s-5.3.75-10.13.75a16.52,16.52,0,0,0-1.56-4.08c3.88.13,7.41.13,8.5.06s1.29-.34,1.29-1.36v-34.67H484.76v39.77h-4.28v-39.77H460.76v40h-4.35v-44.27h24.07v-9H454v-4.42h58.41v4.42Zm-11.15,18.63c0,6.93.48,15.77,6.53,22.64a9.86,9.86,0,0,0-2.58,2,27,27,0,0,1-5.85-12.78,30.77,30.77,0,0,1-7.07,12.91,16.61,16.61,0,0,0-2.65-2c4.62-4.42,7.07-11.21,8.16-19.44h-4.42v-3.33Zm23.94,0c0,7,.54,15.77,7.07,22.57a13.24,13.24,0,0,0-2.72,2,26.76,26.76,0,0,1-6.32-13.19,31.37,31.37,0,0,1-7,13,15.94,15.94,0,0,0-2.65-2c4.49-4.35,6.87-11,8-19h-4.62v-3.33Z"/><path d="M531.35,1879.51c-.41,11.29-2.11,25.57-8.23,35.77a15.91,15.91,0,0,0-3.88-2.32c7-11.62,7.69-27.74,7.69-39v-15.23c16.32-.68,36.71-2.24,48.2-4.48l1.7,3.73c-11.35,2.11-29.78,3.54-45.41,4.22v3.26h44.26v14Zm15.16,24.07c-5,2.24-10.13,4.42-14.35,6.26l-1.49-3.68c3.87-1.36,9.45-3.53,15.16-5.78Zm-15.09-34.47v6.8h39.84v-6.8Zm20.6,41.41c0,2.24-.41,3.26-2.11,4s-4.15.68-8.3.68a16.83,16.83,0,0,0-1.42-3.74c3.06.07,5.78.07,6.52.07s1.09-.28,1.09-1v-22.31H533v-3.67h19Zm-11.36-11.22a25.58,25.58,0,0,0-6.12-7.62l3.06-1.83c2.59,2.1,5.31,5.16,6.33,7.41Zm30.12,3.87c-5.16,2.25-10.4,4.49-14.82,6.39l-1.5-3.67c4-1.36,9.8-3.67,15.58-6.05Zm6,7.28c0,2.24-.55,3.33-2.11,4s-4.35.75-8.64.75a13.56,13.56,0,0,0-1.42-3.81c3.19.07,6,.07,6.73,0s1.15-.2,1.15-1v-22.17H555.62v-3.67h21.15Zm-12.58-11.36a27.52,27.52,0,0,0-6.53-7.54l3.06-1.84a28.62,28.62,0,0,1,6.73,7.21Z"/><path d="M615.46,1881H596v34.06H591.6v-58.61h23.86ZM596,1860.27v6.39h15.16v-6.39Zm15.16,16.93v-7H596v7Zm35.63,31.48c0,3.2-.82,4.69-3,5.51s-6.18.75-12.23.75a19.07,19.07,0,0,0-1.64-4.63c4.7.21,9.25.14,10.61.14s1.77-.48,1.77-1.77v-27.61H622.06v-24.61h24.75Zm-20.4-48.41v6.39h15.91v-6.39Zm15.91,17v-7.07H626.41v7.07Z"/><path d="M674.55,1854c-1.08,3.33-2.38,7.13-3.6,10.06h11.49v43.92h-19v5.44h-4.14V1864h7.54a73.62,73.62,0,0,0,2.93-11Zm3.74,14.14H663.4v14.82h14.89Zm0,35.76V1887H663.4v16.86Zm37.47-37.6c-1.09,31.21-2,41.61-4.76,44.88-1.36,1.83-2.92,2.38-5.17,2.58a84.19,84.19,0,0,1-10-.13,10.67,10.67,0,0,0-1.5-4.42c4.42.4,8.5.4,10,.4s2.18-.13,2.86-1c2.24-2.38,3.33-12.85,4.22-40.45H693.59a62.56,62.56,0,0,1-6.39,12.1,43.38,43.38,0,0,0-3.81-2.52c4.63-6.05,8.3-15.43,10.41-24.81l4.35,1c-.89,3.4-1.84,6.8-3,10.06h20.6Zm-14.48,30.6a121.12,121.12,0,0,0-10.54-15.78l3.46-2c3.95,4.82,8.71,11.35,10.88,15.43Z"/><path d="M753.37,1883.86v31.21H749v-31.21H737.32c-.21,11.43-2,22.64-10.06,31.62a17.85,17.85,0,0,0-3.34-3.06c7.41-8.16,8.91-18.29,9.18-28.56h-9v-4.21h9v-18h-8v-4.22h34.74v4.22h-6.52v18h7.41v4.21Zm-4.42-4.21v-18H737.39v18Zm37.59,13.26c-5.64,9.24-15.5,17.4-26,22.23a16.07,16.07,0,0,0-3.19-3.67c10.2-4.15,19.92-11.76,25-20.2Zm-3.67-36.86c-4.89,6.19-12.64,12.17-19.44,15.91a17.68,17.68,0,0,0-3.27-3.12c6.53-3.27,14.28-9,18.5-14.49Zm2,18.57A74.51,74.51,0,0,1,764,1891.75a24.18,24.18,0,0,0-3.2-3.2c7-3.53,15.3-9.79,19.93-15.63Z"/><path d="M809.26,1853.13h4.29V1915h-4.29v-23.79h-7.21v2.24c0,5.64-1.15,14.28-6.52,20.13a29,29,0,0,0-3.54-2.11c5-5.51,5.92-13.19,5.92-18.16v-2.1h-5.44v-4.08h16.79V1877H795.12v-21h4.15v16.87h10Zm27.34,24.75c1,9.72,4.35,25.84,17.88,33.32a16.74,16.74,0,0,0-3.4,3.6c-10.41-6-14.89-17.34-17.07-27.13a42.3,42.3,0,0,1-17.34,27.54,14.46,14.46,0,0,0-3.06-3.4c13.33-9.79,16.53-22.24,17.21-33.93h-15v-4.49H831V1853.2h4.35v20.19h18.36v4.49Zm11.69-8.43c-1.63-3.33-5.64-8.5-9.11-12.24l3.53-1.84a65.42,65.42,0,0,1,9.39,12Z"/><path d="M524.82,1953.83c5,11.7,13.87,22.71,23.52,28a26,26,0,0,0-3.47,3.81c-10.19-6.33-19.17-18.5-24.47-31.83h-1.09v25.43h16.18v4.56H519.31v12.92h-4.69v-12.92H498.5v-4.56h16.12v-25.43h-1.23c-5.37,13.33-14.34,25.43-24.13,32a27.31,27.31,0,0,0-3.27-3.6c9.11-5.58,17.75-16.73,22.85-28.43H487.69v-4.55h26.93v-14.41h4.69v14.41h27.2v4.55Z"/><path d="M609.81,1979.2a38.13,38.13,0,0,1-9.31,8.36c2.72,3.19,5.92,5,9.25,5,1.9-.06,2.44-1.7,2.78-6.73a11.72,11.72,0,0,0,3.54,1.84c-.68,7.14-2.38,9-6.53,9-4.83,0-9.24-2.51-12.78-6.8a84.48,84.48,0,0,1-15.5,6.6,42.43,42.43,0,0,0-2.38-3.68,73.42,73.42,0,0,0,15.7-6,39.79,39.79,0,0,1-4.35-10H573.85v5l12.64-1.09-.07,3.27c-4.21.41-8.49.81-12.57,1.22v6.94c0,2.38-.55,3.46-2.45,4s-5,.61-10.13.61a22.24,22.24,0,0,0-1.43-3.6c3.81.13,7.34.06,8.36,0s1.36-.28,1.36-1.09v-6.46c-5.37.54-10.33,1-14.41,1.36l-.48-3.74c4-.27,9.18-.61,14.89-1.09v-5.3H554.94v-3.6h14.62v-5c-4.28.48-8.7.82-12.78,1a13.75,13.75,0,0,0-1-3.06c9.25-.54,20.6-1.76,26.65-3.33l2.86,2.93c-3.2.74-7.21,1.42-11.42,2v5.51h15.5A59.19,59.19,0,0,1,588,1963h4.35a64.71,64.71,0,0,0,1.36,10.14h21.49v3.6H594.72a36.25,36.25,0,0,0,3.54,7.82,30.71,30.71,0,0,0,7.61-6.73Zm5.24-17.21H555v-3.67h27.61v-4.69H561.54v-3.47h21.08v-4.48H557.87v-3.61h14.34a33.93,33.93,0,0,0-3.94-5.85l3.88-1.42a27.57,27.57,0,0,1,4.89,7.07l-.47.2h16.59a63,63,0,0,0,4.08-7.48l4.69,1.36c-1.36,2.11-2.86,4.35-4.22,6.12h14.55v3.61H587.17v4.48h21.42v3.47H587.17v4.69h27.88Zm-6.46,10.2a38.06,38.06,0,0,0-10.74-6.25l2.45-2.79a43.29,43.29,0,0,1,10.94,5.92Z"/><path d="M655.78,1990.62a80.89,80.89,0,0,0,8.37.41c2.38.07,16.72,0,19.92-.07a18.58,18.58,0,0,0-1.63,4.35H664c-13.94,0-22.57-2.18-28-11.76a35.79,35.79,0,0,1-10.74,13.26,22.32,22.32,0,0,0-3.47-3.2c7.14-4.69,11.56-12.37,13.39-22.5l4.49.68a64.28,64.28,0,0,1-1.7,6.86c2.65,6.39,7.14,9.66,13.26,11.15v-21h-28v-4.08h59.69v4.08H655.78v8h22.71v4.08H655.78Zm19.52-30.8H630.42v-22.17H675.3Zm-4.56-18.63h-35.9V1947h35.9Zm0,9.18h-35.9v6h35.9Z"/><path d="M717.46,1962.61H698v34.06H693.6v-58.61h23.86ZM698,1941.87v6.39h15.17v-6.39Zm15.17,16.93v-7H698v7Zm35.63,31.48c0,3.2-.82,4.69-3,5.51s-6.18.75-12.23.75a19.07,19.07,0,0,0-1.64-4.63c4.69.21,9.25.14,10.61.14s1.77-.48,1.77-1.77v-27.61H724.06v-24.61h24.75Zm-20.4-48.41v6.39h15.91v-6.39Zm15.91,17v-7.08H728.41v7.08Z"/><line class="cls-2" x1="322.5" y1="1077.5" x2="322.5" y2="1711.5"/><line class="cls-2" x1="556.5" y1="1077.5" x2="322.5" y2="1077.5"/><line class="cls-2" x1="556.5" y1="1511.5" x2="556.5" y2="1077.5"/><line class="cls-2" x1="322.5" y1="1512.5" x2="556.5" y2="1512.5"/><line class="cls-2" x1="915.5" y1="1077.5" x2="915.5" y2="1711.5"/><line class="cls-2" x1="681.5" y1="1077.5" x2="915.5" y2="1077.5"/><line class="cls-2" x1="681.5" y1="1511.5" x2="681.5" y2="1077.5"/><line class="cls-2" x1="915.5" y1="1512.5" x2="681.5" y2="1512.5"/><line class="cls-2" x1="696.5" y1="1294.5" x2="907.5" y2="1294.5"/><line class="cls-2" x1="339.5" y1="1294.5" x2="543.5" y2="1294.5"/></svg>