<svg id="Layer_1" data-name="Layer 1" xmlns="http://www.w3.org/2000/svg" viewBox="0 0 1242 2208"><defs><style>.cls-1{fill:#f6eabe;}.cls-2{fill:#999;}.cls-3{fill:none;stroke:#000;stroke-miterlimit:10;stroke-width:50px;}</style></defs><rect class="cls-1" width="1242" height="2208"/><path d="M257.35,806c50-41.28,77.81-112.74,90.52-181.82l46.05,12.7C378.83,710.71,353.43,788.52,299.43,833ZM960.83,541.59s-.8,15.88-2.38,23.82C947.33,731.35,936.21,795.66,914,819.48c-13.49,14.29-27.79,19.06-50,20.65-20.64,1.58-60.34,1.58-101.63-1.59-.79-13.5-5.56-34.94-14.29-48.43,40.49,4,79.4,4,92.9,4,15.08,0,23,0,29.37-7.15,14.3-15.88,25.41-67.49,34.94-198.5H359.78V158.09H912.4v46.84h-258V288.3H884.61v42.88H654.35v83.37H884.61v43.67H654.35v83.37ZM410.59,204.93V288.3H602.74V204.93ZM602.74,331.18H410.59v83.37H602.74ZM410.59,541.59H602.74V458.22H410.59Zm95.28,100.83c14.29,50,24.62,114.34,27,156.42l-48.44,7.94c0-42.08-10.32-106.4-23-156.42Zm133.39-7.14c22.23,42.87,42.88,101.63,49.23,138.15l-43.67,12.7c-6.35-36.52-26.2-96.86-46.85-141.33ZM795.68,741.67C783,712.29,753.6,666.24,725,632.89L763.12,617c29.38,31.75,59.55,77,72.26,105.6Z"/><path d="M505.92,1893.69a98.85,98.85,0,0,1-6.18,13.56v39.59H495.9v-33.35a61.73,61.73,0,0,1-5.46,7,32.86,32.86,0,0,0-2.28-3.9c5.58-5.87,10.8-14.87,14-24Zm34.14,28c-2.1,1.26-4.44,2.64-6.84,3.78,2,6.06,5.82,11.82,10.38,14.52a11.2,11.2,0,0,0-2.64,2.94c-4.62-3.18-8.46-9.42-10.68-16a27.45,27.45,0,0,1-2.76,1.2c2.58,6.84,1.86,14-1,16.68a6.91,6.91,0,0,1-5.22,1.92c-1.08,0-2.4-.06-3.78-.18a9.31,9.31,0,0,0-1-3.42,38.26,38.26,0,0,0,4.14.24,3.66,3.66,0,0,0,3.12-1.14c1.56-1.38,2.22-5.16,1.44-9.36-5.16,4.92-13.08,9.36-19.8,11.7a15.8,15.8,0,0,0-2.34-2.82c7.62-2.28,16.62-7.14,21.3-12.24a35.76,35.76,0,0,0-1.5-3.48,63.52,63.52,0,0,1-17.22,9.9,16.14,16.14,0,0,0-2.22-2.64c5.94-1.8,13.74-5.76,17.88-9.54a16.39,16.39,0,0,0-2.94-3.18,58.44,58.44,0,0,1-13.56,7.26,11.26,11.26,0,0,0-2.22-2.58,52.48,52.48,0,0,0,15.06-7.56H507.48v-9.35c-1.14,1-2.28,2-3.54,2.94a9.54,9.54,0,0,0-2.52-2.59,44.59,44.59,0,0,0,13.86-16.25l3.84.72c-.6,1.2-1.32,2.34-2,3.54h11.1l.72-.18,2.34,1.68a52.13,52.13,0,0,1-4.8,6.84h13.08v12.65H521.94a15.29,15.29,0,0,1-1.2,1,21,21,0,0,1,5.64,6.84,111.93,111.93,0,0,0,10.92-6.42ZM515,1899.81a54.58,54.58,0,0,1-4.2,5.16h11.58a37.88,37.88,0,0,0,3.72-5.16Zm-3.9,14.69h10.5v-6.42h-10.5Zm24.72-6.42H525.18v6.42H535.8Z"/><path d="M603.36,1916.91v4.31H548.88v-4.31Z"/><path d="M652.2,1939.52a73.54,73.54,0,0,0,9.66-.6c.18,1.08.48,2.88.72,3.84a70,70,0,0,1-10.38.48H625.14c-8.52,0-12.36-2.58-12.36-10.38v-32.75H609.9v-3.78h51.42v3.78H646.74v23c0,2.1.36,2.82,1.86,2.82h7.92a23.65,23.65,0,0,0,3.6-.29c.12,1,.3,2.75.42,3.65a17.54,17.54,0,0,1-4.08.3h-7.74c-4.62,0-5.88-1.68-5.88-6.6v-22.91h-10c-.36,15.89-1.8,26.21-11.28,32a9.35,9.35,0,0,0-2.52-3c8.58-5.22,9.6-14.39,10-29h-12.3v33c0,4.44,2,6.42,8,6.42Z"/><path d="M668.52,1944.32c3.78-3.12,5.88-8.52,6.84-13.74l3.48,1c-1.14,5.58-3.06,11.46-7.14,14.82Zm53.16-20a17.12,17.12,0,0,1-.18,1.8c-.84,12.54-1.68,17.4-3.36,19.2a5.1,5.1,0,0,1-3.78,1.56,57.3,57.3,0,0,1-7.68-.12,8.53,8.53,0,0,0-1.08-3.66c3.06.3,6,.3,7,.3s1.74,0,2.22-.54c1.08-1.2,1.92-5.1,2.64-15H676.26v-32.51H718v3.54h-19.5v6.3h17.4v3.24h-17.4v6.3h17.4V1918h-17.4v6.3Zm-41.58-25.43v6.3h14.52v-6.3Zm14.52,9.54H680.1v6.3h14.52Zm-14.52,15.89h14.52V1918H680.1Zm7.2,7.62a61.12,61.12,0,0,1,2,11.82l-3.66.6a55.22,55.22,0,0,0-1.74-11.82Zm10.08-.54a42.28,42.28,0,0,1,3.72,10.44l-3.3,1a50.43,50.43,0,0,0-3.54-10.68Zm11.82,8a38,38,0,0,0-5.34-8.22l2.88-1.2a34.46,34.46,0,0,1,5.46,8Z"/><path d="M734.88,1928c4.68-2,7.26-4.86,7.56-9.17a4,4,0,0,1-1.14.11c-2.34,0-4.26-1.32-4.26-4.07a4,4,0,0,1,4.32-4.08c3.18,0,4.86,2.58,4.86,6.66,0,6.41-4,11.21-10.08,13.43Z"/><path d="M239.76,1976c-1.2,2.46-2.52,5-3.9,7.31h29.22v30.54c0,2.52-.6,3.72-2.46,4.38s-5.16.66-10.38.66a16.63,16.63,0,0,0-1.32-3.9c4.14.18,7.8.12,8.82.12s1.44-.42,1.44-1.32v-6.66H234.9c-.84,4.38-2.58,8.88-6.12,12.24a12.44,12.44,0,0,0-2.76-3.12c5-4.86,5.52-11.52,5.52-17.22v-9.53a50.45,50.45,0,0,1-10.14,9.71,17.42,17.42,0,0,0-2.52-3.12c7.2-4.92,12.66-12.17,16.56-20.09H220.08v-3.78h17a57.7,57.7,0,0,0,2.76-7.8l4,.9a72.7,72.7,0,0,1-2.46,6.9h30.84V1976Zm21.42,27.65v-6.72H235.56V1999c0,1.44-.06,2.94-.18,4.56Zm0-16.73H235.56v6.53h25.62Z"/><path d="M329.88,1999.64a97.41,97.41,0,0,1-13.44,8.1,42.76,42.76,0,0,0,17.64,7.26,14.08,14.08,0,0,0-2.46,3.48c-13.74-3-23.34-10.38-28.56-21.72h-9.78v16.62l16.8-4.08c-.12,1-.18,2.64-.18,3.48-17,4.44-20,5.22-21.3,6l-.3.18a16.11,16.11,0,0,0-1.86-3.84,4.87,4.87,0,0,0,2.94-4.26v-14.1h-10v-3.66H290v-26.33h36.9v3.42H294.06v5.52H325V1979h-30.9v5.34H325v3.3h-30.9v5.46h38.58v3.66H307.08a30.21,30.21,0,0,0,6.72,8.82,90.28,90.28,0,0,0,12.78-8.1Z"/><path d="M356.64,2014c0,2.1-.54,3.18-1.8,3.78s-3.6.66-7.44.66a16,16,0,0,0-1.08-3.42c2.82.12,5.22.06,5.94.06s1.08-.3,1.08-1.14V1996.4c-2.1,1.56-4.2,3.06-6.24,4.56l-1.62-3.29c2.1-1.15,4.86-2.83,7.86-4.69v-7.91l-2.16,1.55a52.91,52.91,0,0,0-5.28-6.71l2.28-1.44a45,45,0,0,1,5.16,5.94v-14.16h-7.56v17.46c0,9.11-.6,22.25-4.86,31.37a9.84,9.84,0,0,0-2.82-2.4c3.9-8.52,4.26-20.28,4.26-29v-21.18h14.28Zm12.78-11.46c-.36,1.56-.84,3-1.26,4.5a38.56,38.56,0,0,1,6.72,5.28l-2.1,2.64a44.39,44.39,0,0,0-5.88-4.92,29.89,29.89,0,0,1-6.36,9.06,20.82,20.82,0,0,0-2.7-2.4c4.08-3.42,6.78-8.7,8.1-14.88Zm-2.7-24.11a61.21,61.21,0,0,1-5.28,3.65,15.05,15.05,0,0,0-2.7-2.39c7-4,13.08-10.14,16.2-15.9l3.72,1.14c-.42.66-.84,1.38-1.32,2,3.72,4.26,10.62,8.76,16.14,11.16a12.69,12.69,0,0,0-1.86,3.29,61.6,61.6,0,0,1-16.14-11.81,57.34,57.34,0,0,1-8,8.22h17.16v3.24H366.72Zm-6,7.68H374.4v14H360.72Zm3,10.85h7.56v-7.74h-7.56Zm22.26,5a26.6,26.6,0,0,1-1.44,5.52,63.23,63.23,0,0,1,9.3,8.16l-2.46,2.58a73.84,73.84,0,0,0-8.1-7.62,25.22,25.22,0,0,1-6.36,8.28,18.79,18.79,0,0,0-2.7-2.64c4.38-3.24,7-8.4,8-14.7Zm-8.82-15.89H391v14H377.16Zm3.06,10.85h7.68v-7.74h-7.68Z"/><path d="M419.52,1997.06l-3.66,3.12a93.63,93.63,0,0,0-13.32-13.38l3.42-3.11A118.53,118.53,0,0,1,419.52,1997.06Z"/><path d="M446.94,2009.06H434.28v5.28h-3.54v-46.19h16.2Zm-12.66-37.31v8.75h9.24v-8.75Zm0,21.11h9.24V1984h-9.24Zm9.24,12.6v-9.12h-9.24v9.12Zm39.06-7.5a93.7,93.7,0,0,1-10.92,7.32,26.11,26.11,0,0,0,11.82,9.78,13.84,13.84,0,0,0-2.76,3.48c-9.42-4.44-15-13.62-17.88-25.5h-6.72v20.28l11-2.7a22.19,22.19,0,0,0,.18,3.6c-12.48,3.42-14.22,4-15.3,4.8a18.39,18.39,0,0,0-1.86-3.36,4.16,4.16,0,0,0,2.1-4V1967h27.06v26h-13a48.23,48.23,0,0,0,3.66,9.36,80.77,80.77,0,0,0,10-7.19Zm-26.46-27.41v7.68h19.32v-7.68Zm0,19h19.32v-7.92H456.12Z"/><path d="M505.74,2009H494.28v5.28h-3.6v-46.19h15.06Zm-11.46-37.31v8.64h7.86v-8.64Zm7.86,12.18h-7.86v8.93h7.86Zm0,21.53v-9.12h-7.86v9.12Zm37.2,9.12c0,2.1-.48,3.12-2,3.72s-4.2.66-8.46.66a16,16,0,0,0-1.2-3.48c3.12.12,6,.12,6.78.06s1.08-.3,1.08-1v-4.92H516.24a23.27,23.27,0,0,1-3.9,10.14,11.43,11.43,0,0,0-2.88-2.76c3.24-4.56,3.6-10.62,3.6-15.36v-11h26.28Zm3.9-30.72v3.12H509.7v-3.12h14.52v-4.49H511.44v-3h12.78v-4h-14.4v-3.12h14.4v-4.8H528v4.8h14.76v3.12H528v4h13.32v3H528v4.49Zm-7.74,22.68v-4.92H516.84v.06a46.17,46.17,0,0,1-.24,4.86Zm-18.66-12.84v4.86H535.5v-4.86Z"/><path d="M569.52,1997.06l-3.66,3.12a93.63,93.63,0,0,0-13.32-13.38l3.42-3.11A118.53,118.53,0,0,1,569.52,1997.06Z"/><path d="M604.08,1988.25c-19,1.67-21.12,1.92-22.32,2.39a23.53,23.53,0,0,0-1.08-3.11,4.41,4.41,0,0,0,2.22-1,32.86,32.86,0,0,0,3.54-3.12h-7v-2.63h4.86v-14.7h22.38v2.64H588.06v2.4h17.1v2.28h-17.1v2.46h17.1v2.34h-17.1v2.58h21.06v2.63h-5.88a24.76,24.76,0,0,1,4.5,4.5l-1.68,1a31.85,31.85,0,0,1,2.28,3.59h22.44v8h-4v-5.22H585.06v5.22h-3.84v-8h22.56c-.6-1-1.26-2.09-1.92-3l2.7-.71Zm-6.78,22.55a55.75,55.75,0,0,1-14.22,6.84,19.51,19.51,0,0,0-2.82-2.52c4.92-1.32,10.32-3.42,13.62-5.64Zm-16.2-6.48h49.74v2.88H608.1v11.52h-4V2007.2h-23Zm20.64-18.48a18.89,18.89,0,0,0-2.1-1.73l1.26-.73H590.64a29.26,29.26,0,0,1-4.14,3.61ZM589.86,2001v-2.7h32.22v2.7Zm38.94-34.91c-4.86,3.24-12.36,6.12-18.3,7.74a12.85,12.85,0,0,0-2.34-2.46c5.7-1.5,13.32-4.14,17.52-6.9Zm4.08,13.62c-4.44,4.68-12.78,7.68-21.48,9.41a14.5,14.5,0,0,0-2.1-2.93c8.22-1.33,16.32-3.9,20.28-7.86Zm-2.46-7c-4.5,3.66-12,6.48-18.66,8.16a18,18,0,0,0-2.22-2.64c6.36-1.38,13.74-3.9,17.7-7Zm-13.8,36.41a93.47,93.47,0,0,1,13.74,6.12l-2.88,2.28a105.44,105.44,0,0,0-13.62-6.3Z"/><path d="M684.84,2014c3.6,0,4.2-1.56,4.68-8.52a12.48,12.48,0,0,0,3.9,1.62c-.78,8.22-2.1,10.8-8.46,10.8H669.24c-7,0-9-1.62-9-7.86v-8.76l-19.8,2.64-.54-3.72,20.34-2.64v-9.84l-18,2.53-.6-3.79,18.6-2.58v-9.53c-6.12,1.14-12.42,2.16-18.42,2.94a11,11,0,0,0-1.14-3.42c14.82-2,32-5.28,41.1-9.12l3.48,3.18a149.52,149.52,0,0,1-20.94,5.7v9.66l23-3.12.6,3.66-23.64,3.3v9.89l27.18-3.6.48,3.72-27.66,3.66v9.3c0,3.12.84,3.9,5,3.9Z"/><path d="M719.52,1997.06l-3.66,3.12a93.63,93.63,0,0,0-13.32-13.38l3.42-3.11A118.53,118.53,0,0,1,719.52,1997.06Z"/><path d="M780.3,1969.59v47h-4.14v-4.14H735.54V2017h-4v-47.39Zm-4.14,39v-35.15h-12.3v19.37c0,1.87.24,2.58,1.56,2.58h6.18a14.9,14.9,0,0,0,3.36-.3c.06,1.09.18,2.46.3,3.42a14.3,14.3,0,0,1-3.54.24h-6.78c-3.9,0-4.86-1.68-4.86-6.06v-19.25h-8.82c-.3,16.49-1.86,25.37-12.36,30.35a12,12,0,0,0-2.4-3.12c9.42-4.32,10.62-12.12,10.86-27.23H735.54v35.15Z"/><path d="M808.26,2014c0,2.22-.54,3.36-1.86,4-1.56.66-3.84.72-7.86.72a12.7,12.7,0,0,0-1.2-3.6c2.94.12,5.52.12,6.3.06s1.08-.3,1.08-1.14v-18.42c-2.64,1.92-5.22,3.66-7.68,5.46l-1.5-2.94c-.48,7.2-1.68,15.06-4.56,21.12a9.6,9.6,0,0,0-2.88-2.52c3.9-8.52,4.26-20.28,4.26-28.92v-21.23h15.9Zm-12.36-26.27c0,2.93-.06,6.29-.3,9.83,2.4-1.32,5.7-3.29,9.12-5.4V1986l-2.46,1.68a66.25,66.25,0,0,0-5.94-7.73l2.46-1.44a65.52,65.52,0,0,1,5.94,7.14v-15.36H795.9Zm45.12,0a45.27,45.27,0,0,1-11.4,20,37,37,0,0,0,13.74,7.8,16,16,0,0,0-2.58,3.42,40,40,0,0,1-14.1-8.52,47.39,47.39,0,0,1-14.4,8.46,10.92,10.92,0,0,0-2.28-3.48,42,42,0,0,0,14-7.74,49.44,49.44,0,0,1-9.42-17.16h-2.34v-3.66h12.18v-9.3H811.08v-3.71h13.38v-9.6h4v9.6H842.7v3.71H828.48v9.3h9.3l.78-.17Zm-22.62,2.82a42.92,42.92,0,0,0,8.46,14.58,38.62,38.62,0,0,0,9.24-14.58Z"/><path d="M869.52,1997.06l-3.66,3.12a93.63,93.63,0,0,0-13.32-13.38l3.42-3.11A118.53,118.53,0,0,1,869.52,1997.06Z"/><path d="M888.3,1981.46v3.25c0,10-.78,24.41-6.66,34.19a15.57,15.57,0,0,0-3.48-2c5.64-9.36,6.18-22.68,6.18-32.1v-17.51H928.8v14.21Zm0-10.67v7.14h36.48v-7.14Zm37,43.67c2.7,0,3.18-1.14,3.48-6.78a13.21,13.21,0,0,0,3.66,1.56c-.6,7-1.8,8.88-6.9,8.88H913c-6,0-7.68-1.32-7.68-6.3v-4.92l-15.72,2.46L889,2006l16.32-2.52v-5.88l-13.62,2.1-.66-3.24,14.28-2.28v-5.46c-4.26.78-8.7,1.38-12.78,1.92a13.47,13.47,0,0,0-1.14-2.93c10.14-1.33,22-3.48,28.26-5.88l3.42,2.63a106.83,106.83,0,0,1-13.86,3.54v5.64L926.4,1991l.6,3.25L909.18,1997v5.88l21.48-3.36.6,3.3-22.08,3.48v5.46c0,2.22.66,2.7,4,2.7Z"/><path d="M980.46,2013.86c6.18,0,7.26-2,8.1-10.38a12.31,12.31,0,0,0,4,1.62c-1,9.48-2.94,12.66-12.12,12.66H956.34c-9.48,0-12.42-1.92-12.42-9.78v-40.19H987.3V1996h-4.08v-3.18H948v15.24c0,4.56,1.32,5.76,7.92,5.76ZM948,1971.69V1989h15.66v-17.33Zm35.22,0h-15.6V1989h15.6Z"/><path d="M1011.18,1982.67a9.06,9.06,0,1,1-9.06,9A9.09,9.09,0,0,1,1011.18,1982.67Zm0,15.23a6.18,6.18,0,1,0,0-12.36,6.18,6.18,0,1,0,0,12.36Z"/><rect class="cls-2" x="1113" y="425" width="65" height="126" rx="12"/><path class="cls-1" d="M1132.7,454.82c1.25,1.6,4.9,6.7,5.7,8.05l-2,2.45c-.7-1.5-2.35-4.4-3.75-6.65V485h-3.15V460.57c-1.5,5.05-3.5,9.9-5.55,12.85a14.83,14.83,0,0,0-1.75-3.1c2.9-4,5.8-11.5,7.2-18h-6.2v-3.15h6.3v-9.65h3.15v9.65h5.45v3.15h-5.45Zm19.1.7a19.47,19.47,0,0,0,.45,2.65c-10.15,2.7-11.6,3.15-12.5,3.75a12.13,12.13,0,0,0-1.1-3.2c.7-.2,1.55-.5,1.55-2.2v-16.7h3.25v6.5h8.35v2.9h-8.35v8.3Zm2.35,5.5-2,3.75h12.65V485h-3.4v-1.75h-17v2h-3.3V464.77h7.9c.55-1.5,1.2-3.25,1.55-4.6Zm7.3,6.5h-17v5.05h17Zm0,13v-5.3h-17v5.3Zm2.25-22.4c1.25,0,1.5-.75,1.65-5.25a9.16,9.16,0,0,0,2.85,1.25c-.3,5.45-1.2,6.95-4.15,6.95h-5.85c-3.65,0-4.55-.95-4.55-4.45V439.87h3.25v6.5h10.2v2.9h-10.2v7.35c0,1.3.25,1.5,1.65,1.5Z"/><path class="cls-1" d="M1167.55,514.87v2.5H1123.4v-2.5h20.25v-3.2H1126.8v-2.3h16.85v-3H1128.2v-2.25h15.45v-3.2H1123.5v-2.5h20.15v-3.05H1128.8V493h14.85v-3.55h3.25V493h14.45v5.4h6.15v2.5h-6.15v5.45H1146.9v3h17.3v2.3h-17.3v3.2Zm-37.75,5h31.75v15.25h-3.25v-1.6H1133v1.7h-3.2Zm3.2,2.4v3.2h25.3v-3.2Zm25.3,8.85v-3.4H1133v3.4Zm-11.4-32.7h11.15v-3.05H1146.9Zm0,5.7h11.15v-3.2H1146.9Z"/><rect class="cls-2" x="1113" y="1225" width="65" height="271" rx="12"/><path class="cls-1" d="M1158.05,1264.79a27.61,27.61,0,0,0,11.5,8.1,11.65,11.65,0,0,0-2.15,2.55,30.77,30.77,0,0,1-12.8-10.65h-15.95a34.39,34.39,0,0,1-13,11.3,11.43,11.43,0,0,0-2.15-2.55,30.39,30.39,0,0,0,11.6-8.75H1124v-2.85h10v-16.15h-7.7V1243h7.7v-5h3.3v5h18.55v-5h3.35v5h7.65v2.8h-7.65v16.15h9.8v2.85Zm-10,14.5h17.3v2.85H1127.8v-2.85h16.9v-5.6h-10.45v-2.8h10.45v-4.4h3.35v4.4h10.65v2.8h-10.65Zm-10.8-33.5v3.6h18.55v-3.6Zm0,9.8h18.55v-3.65h-18.55Zm0,6.35h18.55v-3.8h-18.55Z"/><path class="cls-1" d="M1142.25,1306.54s0,1.15,0,1.55c-.6,15.85-1.2,21.2-2.6,23a3.71,3.71,0,0,1-2.8,1.45,32.65,32.65,0,0,1-4.45,0,9.25,9.25,0,0,0-.85-3c1.75.15,3.2.15,3.9.15a1.42,1.42,0,0,0,1.45-.65c1-1.2,1.6-6,2.15-19.35h-6.8c-.55,10-2,18.25-6.45,23.65a9.53,9.53,0,0,0-2.55-2.35c5.45-6.45,5.9-17.85,6.1-31.55h-5.2v-3.1h20.1v3.1h-11.65c0,2.45-.1,4.85-.2,7.15Zm-7.9-10.45a33.47,33.47,0,0,0-4.25-7.15l2.9-1.15a31.92,31.92,0,0,1,4.4,7Zm23.85-7.45a15.26,15.26,0,0,1-.85,2.55c2.65,5.45,7.7,11.35,12.45,14a13,13,0,0,0-2.45,2.75c-4.25-2.7-8.5-8-11.4-13.3a32.61,32.61,0,0,1-11,13.6,12.79,12.79,0,0,0-2.35-2.65c5.85-3.6,10.35-10.2,12.5-17.85Zm-8.3,32.45a74,74,0,0,1,13.6,8.25l-2.25,2.9c-2.85-2.6-8.75-6.3-13.4-8.65Zm9.5-4.85a66.22,66.22,0,0,0-8.6-6.85l2.15-2.2a67.46,67.46,0,0,1,8.75,6.55Z"/><path class="cls-1" d="M1165,1341.19v29.3h-3.5v-2.55h-13.3v15.6h-3.45v-15.6h-13.4v2.75H1128v-29.5Zm-33.65,3.2V1353h13.4v-8.65Zm13.4,20.35v-8.5h-13.4v8.5Zm16.75-20.35h-13.3V1353h13.3Zm0,20.35v-8.5h-13.3v8.5Z"/><path class="cls-1" d="M1167.25,1403.09v9.3h-3.15V1406h-35.4v6.4h-3v-9.3h6.95v-12.95h27.7v12.95Zm-6.45,26.6c0,1.85-.45,2.7-1.85,3.2s-3.9.5-7.7.45a8.57,8.57,0,0,0-1.1-2.75c3,.05,5.65.05,6.4.05s1-.25,1-1v-6.2c-7.3,1.45-14.85,3-20.45,4l-1.1-3c5.4-.8,13.6-2.3,21.55-3.75V1412h-22.2v5.3c0,4.85-.65,11.55-4.35,16.2a13.29,13.29,0,0,0-2.7-2c3.45-4.25,3.85-10,3.85-14.25v-8h28.6Zm-25-26.6h7.45v-6.9H1157v-3.35h-21.2Zm2.45,11.7a75.14,75.14,0,0,1,17.7,3l-.9,2.6c-4-1.5-11.7-2.9-17.7-3.35Zm18.75-16.3h-10.75v4.6H1157Z"/><path class="cls-1" d="M1161,1450.09a51.83,51.83,0,0,1-12,19.6,49.94,49.94,0,0,0,20.5,10.5,16.79,16.79,0,0,0-2.25,3,50.92,50.92,0,0,1-20.75-11.1c-5.65,5-12.55,8.6-21,11.3a15.53,15.53,0,0,0-2-3.05c8.35-2.45,15.1-5.9,20.6-10.6a57.05,57.05,0,0,1-12.2-19.65h-7.75v-3.25h44.75v3.25Zm-25.75,0a52.13,52.13,0,0,0,11.3,17.3,47.46,47.46,0,0,0,10.7-17.3Zm11.25-3.55a38.13,38.13,0,0,0-3.8-7.8l3.4-1a39,39,0,0,1,4,7.65Z"/><path d="M607,1140a111.78,111.78,0,0,0-.48-16.77,164.32,164.32,0,0,0-3.75-22.7,118.86,118.86,0,0,0-5.24-15.94,170.19,170.19,0,0,0-9.7-20.64,143.1,143.1,0,0,0-24-30.91,156.89,156.89,0,0,0-17.52-14.41,100.37,100.37,0,0,0-15.26-9.17,122.37,122.37,0,0,0-22.76-8.62,120.32,120.32,0,0,0-24-3.46c-8.09-.38-16.07.61-24.06,1.85a88.41,88.41,0,0,0-17.57,4.66,127.24,127.24,0,0,0-22.27,10.59,163,163,0,0,0-19,14.15c-10.78,9.15-19.71,20-28.16,31.32-15.35,20.52-27.39,43.62-38.43,66.68a800.28,800.28,0,0,0-33.34,81q-6.79,19.36-12.68,39c-3.84,12.8-7.67,25.67-10.72,38.68-6.82,29-7,60.49,7.51,87.32a77.75,77.75,0,0,0,14,18.56,92.69,92.69,0,0,0,11.34,9.11,46.39,46.39,0,0,0,7.42,4.28c9.12,4.18,17.82,6.88,28,7.1a66,66,0,0,0,14.62-1.67,44.93,44.93,0,0,0,8-2.54,81.54,81.54,0,0,0,12.88-6.18,110.11,110.11,0,0,0,11.38-8.55A92.36,92.36,0,0,0,405,1380.75c8.81-10.66,16.45-22.06,24.1-33.55,3.35-5,6.78-10,10.49-14.85l-4,5.17a98.72,98.72,0,0,1,17.08-17.64l-5.16,4a41.65,41.65,0,0,1,8.56-5.1l-6.09,2.57a26.36,26.36,0,0,1,6.16-1.72l-6.78.91a20.4,20.4,0,0,1,4.35,0l-6.78-.91a17.8,17.8,0,0,1,4.17,1.15l-6.09-2.57a17,17,0,0,1,3.18,1.89l-5.16-4a19.61,19.61,0,0,1,3.32,3.37l-4-5.16a26.8,26.8,0,0,1,3,5.18l-2.58-6.09a37.79,37.79,0,0,1,2.46,9.11l-.92-6.78a69.35,69.35,0,0,1-.11,17.92l.91-6.78c-1.84,13.55-6.78,26.34-12.07,38.87l2.57-6.09c-4.16,9.86-8.57,19.64-12.17,29.72-3.13,8.77-5.67,17.15-6.29,26.56a40.12,40.12,0,0,0,.58,8.1,37.76,37.76,0,0,0,2.92,10.9,40.31,40.31,0,0,0,7.33,11.74,39.81,39.81,0,0,0,8.2,6.85c5.27,3.57,11.18,5.11,17.33,5.93a46.4,46.4,0,0,0,18.81-1.06c20.57-5.51,32.88-23.86,44.35-40.31q12.25-17.58,22.91-36.21a557,557,0,0,0,40.18-87,443.36,443.36,0,0,0,22.46-87.66c4.45-30.77,6.25-61.74,2.18-92.67-.71-5.43-1.43-10.87-2.36-16.27A28.49,28.49,0,0,0,590.34,1083c-5.46-3.2-13.52-4.56-19.65-2.57s-12.12,5.82-15.24,11.72l-2.57,6.09a25.78,25.78,0,0,0,0,13.56c.54,3.15,1,6.32,1.45,9.49l-.91-6.78a299.59,299.59,0,0,1,1.27,63.57q-.77,9.3-2,18.54l.91-6.78a440.91,440.91,0,0,1-22.77,90.83q-4.55,12.57-9.76,24.88l2.57-6.09a514.33,514.33,0,0,1-45.52,84.81c-4.82,7.22-9.77,14.39-15.08,21.26l4-5.16a60.05,60.05,0,0,1-9.85,10.3l5.16-4a33.53,33.53,0,0,1-6.58,4l6.09-2.57a24.33,24.33,0,0,1-5.73,1.62l6.77-.91a24.25,24.25,0,0,1-6,.06l6.78.91a20.64,20.64,0,0,1-5.12-1.38l6.1,2.57a18.05,18.05,0,0,1-3.16-1.83l5.16,4a16.33,16.33,0,0,1-2.62-2.57l4,5.16a17.73,17.73,0,0,1-2.06-3.52l2.57,6.09a19.64,19.64,0,0,1-1.18-4.47l.91,6.78a27.26,27.26,0,0,1,.06-6.51l-.92,6.77c.72-5.33,2.51-10.4,4.31-15.44,2.16-6,4.49-12,7-17.87l-2.57,6.09c6.34-15,13.46-30,16.89-46,1.9-8.84,3.22-18.13,2.74-27.2-.55-10.19-2.52-19.11-7.07-28.23a23.64,23.64,0,0,0-1.94-3.25,50.9,50.9,0,0,0-6.42-8,43.73,43.73,0,0,0-17.05-10,44.52,44.52,0,0,0-10.16-1.59c-3.69-.28-7.55.47-11.13,1.09a23.72,23.72,0,0,0-4.32,1.15,78.88,78.88,0,0,0-10,4.33,77.27,77.27,0,0,0-12.59,9,85.56,85.56,0,0,0-7.11,6.62,176.19,176.19,0,0,0-15.77,19.44c-8.33,11.49-15.55,23.73-24.23,35l4-5.16a98,98,0,0,1-16.6,17.32l5.16-4a53.42,53.42,0,0,1-11.15,6.68l6.1-2.57a44.15,44.15,0,0,1-10.44,3l6.78-.91a35.88,35.88,0,0,1-9.6,0l6.78.91a41.37,41.37,0,0,1-9.82-2.77l6.09,2.57a49.57,49.57,0,0,1-10.51-6.24l5.16,4a54.69,54.69,0,0,1-9.14-9.17l4,5.16a62.9,62.9,0,0,1-7.82-13.56l2.57,6.09a77.6,77.6,0,0,1-5.14-19.41l.92,6.78a110.39,110.39,0,0,1,.27-28.25l-.91,6.78a201.47,201.47,0,0,1,5.5-25.37q3.73-13.87,7.86-27.64,8.3-27.57,18.31-54.59,5.66-15.14,11.93-30l-2.57,6.09c11.56-27.34,24.57-54.4,40.38-79.56,4.13-6.56,8.51-13,13.25-19.09l-4,5.16A151.89,151.89,0,0,1,442,1061l-5.16,4a104,104,0,0,1,22.17-13.17l-6.09,2.57a90.42,90.42,0,0,1,22.53-6.24l-6.77.91a88.85,88.85,0,0,1,23-.06l-6.78-.91a90.11,90.11,0,0,1,22.55,6.17l-6.09-2.57a101.41,101.41,0,0,1,21.84,12.92l-5.16-4a117,117,0,0,1,20.68,20.74l-4-5.16a122.58,122.58,0,0,1,15.67,26.89l-2.57-6.09a119.17,119.17,0,0,1,8.18,30l-.91-6.78A113.38,113.38,0,0,1,556,1140c-.3,6.34,3.05,13.61,7.47,18s11.68,7.75,18,7.47c6.59-.3,13.43-2.47,18-7.47a27.58,27.58,0,0,0,7.47-18Z"/><path d="M585.33,1156.77q13.44,1.44,26.82,3.23l-6.77-.91q31.5,4.25,62.72,10.42t62.11,14.33q17.38,4.58,34.59,9.76a19.34,19.34,0,0,0,10.17.46,26.25,26.25,0,0,0,21.2-18.27l.91-6.78a25.43,25.43,0,0,0-3.49-12.87l-4-5.16a25.48,25.48,0,0,0-11.26-6.56q-35.77-10.77-72.28-18.94-36.26-8.1-73-13.57-23.79-3.54-47.71-6.14a26.21,26.21,0,0,0-25.5,25.5l.91,6.78a25.55,25.55,0,0,0,6.56,11.25l5.16,4a25.52,25.52,0,0,0,12.87,3.48Z"/><path d="M509.13,1373.74a151,151,0,0,0,20.23,25.58,135.67,135.67,0,0,0,23.6,18.57c9,5.62,18.67,9.81,28.44,13.83a145.16,145.16,0,0,0,27.63,8.8,168.44,168.44,0,0,0,37.76,3.13,235.33,235.33,0,0,0,37.4-4.59c20.81-4.12,40.57-11.53,60.27-19.23,22.32-8.75,44.95-17.92,68.87-21.15l-6.78.91a108,108,0,0,1,28-.21l-6.78-.91a88.35,88.35,0,0,1,22,6l-6.09-2.57a86.65,86.65,0,0,1,18.82,11l-5.17-4a97.05,97.05,0,0,1,16.91,17l-4-5.16a128.72,128.72,0,0,1,16.37,28.47l-2.57-6.09a183.84,183.84,0,0,1,12.29,46.32l-.91-6.77c3.67,27.55,1.92,55.47-1.74,82.92l.91-6.78c-.17,1.26-.34,2.53-.52,3.8a19.34,19.34,0,0,0-.45,10.17,19,19,0,0,0,3,9.48c3.1,5.29,9.16,10.33,15.24,11.72,6.53,1.48,13.86,1.16,19.65-2.57l5.16-4a25.45,25.45,0,0,0,6.56-11.25c2.57-18.37,4.77-36.78,5.15-55.34a278,278,0,0,0-3.74-50.64,185.2,185.2,0,0,0-8.5-33.11c-4.55-12.56-10.08-25-17.57-36.11a148.13,148.13,0,0,0-14.23-18.12,128.06,128.06,0,0,0-17.19-14.84,84.68,84.68,0,0,0-14.78-8.9,115.31,115.31,0,0,0-24-8.63,125.16,125.16,0,0,0-26.87-3,162.45,162.45,0,0,0-27,2.75c-14.51,2.49-28.57,7.08-42.35,12.17-27.61,10.18-54.47,22.32-83.56,27.8q-5.4,1-10.84,1.76l6.78-.91a159.41,159.41,0,0,1-42.14.4l6.78.91c-12.47-1.73-24.25-5.68-35.82-10.54l6.09,2.57a133.53,133.53,0,0,1-29.74-16.86l5.16,4A108,108,0,0,1,556,1352.52l4,5.16c-2.4-3.12-4.66-6.36-6.79-9.68a26.9,26.9,0,0,0-15.24-11.72,19.34,19.34,0,0,0-10.17-.45,19,19,0,0,0-9.48,3c-5.44,3.51-10.24,8.74-11.72,15.24s-1.15,13.85,2.57,19.65Z"/><path d="M525,1401.11c-5.31,30.05-11.26,60-18.33,89.66-7,29.29-15,58.34-24.74,86.85-5.35,15.73-11.2,31.29-17.66,46.6l2.57-6.09q-6.08,14.37-12.88,28.42a19,19,0,0,0-3,9.49,26.18,26.18,0,0,0,12.17,25.4l6.09,2.57a25.58,25.58,0,0,0,13.56,0l6.09-2.57a25.61,25.61,0,0,0,9.15-9.14c8.16-16.81,15.52-34,22.3-51.43q9.23-23.7,16.8-48,7.74-24.66,14.1-49.72T563,1472.54c3.63-17.08,6.94-34.22,10-51.4.38-2.16.77-4.31,1.15-6.47a19.34,19.34,0,0,0,.45-10.17,19,19,0,0,0-3-9.48,28.62,28.62,0,0,0-15.24-11.72l-6.78-.91a25.52,25.52,0,0,0-12.87,3.48l-5.16,4a25.45,25.45,0,0,0-6.56,11.25Z"/><path d="M539.87,1434q3.51,44.32,7.51,88.61,4,43.86,8.41,87.66,2.49,24.51,5.13,49a19.22,19.22,0,0,0,2.2,9.83,26.18,26.18,0,0,0,23.3,15.67l6.78-.91a25.43,25.43,0,0,0,11.25-6.55l4-5.17a25.27,25.27,0,0,0,3.48-12.87q-4.74-43.9-9-87.86t-8-87.86q-2.12-24.78-4.07-49.56a26.19,26.19,0,0,0-25.5-25.5l-6.78.91a25.54,25.54,0,0,0-11.26,6.56l-4,5.16a25.27,25.27,0,0,0-3.48,12.87Z"/><path d="M739.81,1401.4a798.48,798.48,0,0,1-4,91.22q-1.3,12.93-3,25.81l.91-6.78q-3.78,28.14-9.55,55.95-5.73,27.56-13.42,54.65-4.34,15.3-9.32,30.4a19.3,19.3,0,0,0-.45,10.16,19,19,0,0,0,3,9.49A28.54,28.54,0,0,0,719.22,1684l6.78.91a25.32,25.32,0,0,0,12.87-3.48l5.16-4a25.54,25.54,0,0,0,6.56-11.26q8-24.23,14.35-48.94t11.1-49.77c3.59-18.92,6.42-38,8.78-57.08q3.15-25.44,4.67-51.06t1.38-51.56q0-3.19-.06-6.39a26.21,26.21,0,0,0-25.5-25.5l-6.78.91a25.55,25.55,0,0,0-11.25,6.56c-4.55,5-7.56,11.16-7.47,18Z"/><path d="M760,1434.17a20.73,20.73,0,0,1,1.89,2.08l-4-5.16a41.73,41.73,0,0,1,5.05,9.19l-2.57-6.09c2.83,6.79,5.1,13.84,7.34,20.84s4.33,14.12,6.25,21.25q5.94,22,10,44.55,2.34,13,4.08,26l-.91-6.77q3.07,23,4.39,46.12,1.35,23.35.91,46.75-.24,13.24-1.07,26.47a26.19,26.19,0,0,0,25.5,25.5l6.78-.91a25.43,25.43,0,0,0,11.25-6.55l4-5.16a25.33,25.33,0,0,0,3.48-12.88q1.57-25.31,1-50.68t-3.12-50.43c-1.92-18.57-4.51-37.11-8-55.46q-4.47-23.74-11-47-3.19-11.17-6.93-22.19c-1.25-3.68-2.51-7.35-3.93-11-2.1-5.34-4.2-11.14-7.46-16-1.59-2.35-3.4-4.6-5.2-6.8a20.1,20.1,0,0,0-1.66-1.79,24.64,24.64,0,0,0-27.86-5.27,19.08,19.08,0,0,0-8.2,5.27l-4,5.16a25.32,25.32,0,0,0-3.48,12.87l.91,6.78a25.45,25.45,0,0,0,6.56,11.25Z"/><ellipse class="cls-3" cx="473.2" cy="1153.48" rx="38.91" ry="35.27"/><path d="M486.19,1048.15q35.06-.36,70.08,1.2,34.77,1.58,69.42,5.09,19.48,2,38.91,4.59l-6.78-.91q49.88,6.7,99.08,17.53,13.88,3.06,27.66,6.45a26.65,26.65,0,0,0,19.65-2.57,28.39,28.39,0,0,0,11.72-15.24c1.49-6.52,1.17-13.85-2.57-19.65-3.54-5.5-8.72-10.11-15.24-11.71q-29-7.14-58.36-12.81t-58.84-9.86c-21.95-3.12-43.95-5.82-66-7.87q-30.14-2.79-60.4-4.12t-60.59-1.18c-2.57,0-5.15,0-7.72.06a26.37,26.37,0,0,0-18,7.46,28.43,28.43,0,0,0-7.47,18c.3,6.59,2.46,13.43,7.47,18s11.15,7.54,18,7.47Z"/><path d="M572.28,1270.1q13.44,1.44,26.83,3.23l-6.78-.91q31.5,4.23,62.72,10.42t62.11,14.33q17.39,4.57,34.59,9.76a19.44,19.44,0,0,0,10.17.46,26.25,26.25,0,0,0,21.2-18.27l.91-6.78a25.52,25.52,0,0,0-3.48-12.87l-4-5.16a25.45,25.45,0,0,0-11.25-6.56Q729.52,1247,693,1238.81q-36.25-8.1-73-13.57-23.79-3.54-47.71-6.14a26.21,26.21,0,0,0-25.5,25.5l.92,6.78a25.43,25.43,0,0,0,6.55,11.25l5.16,4a25.52,25.52,0,0,0,12.87,3.48Z"/><path class="cls-2" d="M1065.32,1158.74c-19,1.68-21.12,1.92-22.32,2.4a24.16,24.16,0,0,0-1.08-3.12,4.36,4.36,0,0,0,2.22-1,32.86,32.86,0,0,0,3.54-3.12h-7v-2.64h4.86v-14.7H1068v2.64H1049.3v2.4h17.1v2.28h-17.1v2.46h17.1v2.34h-17.1v2.58h21.06v2.64h-5.88a24.44,24.44,0,0,1,4.5,4.5l-1.68,1a32.9,32.9,0,0,1,2.28,3.6H1092v8h-4v-5.22H1046.3V1171h-3.84v-8H1065c-.6-1-1.26-2.1-1.92-3l2.7-.72Zm-6.78,22.56a55.75,55.75,0,0,1-14.22,6.84,19.51,19.51,0,0,0-2.82-2.52c4.92-1.32,10.32-3.42,13.62-5.64Zm-16.2-6.48h49.74v2.88h-22.74v11.52h-4V1177.7h-23Zm20.64-18.48a19,19,0,0,0-2.1-1.74l1.26-.72h-10.26a29.19,29.19,0,0,1-4.14,3.6Zm-11.88,15.18v-2.7h32.22v2.7ZM1090,1136.6c-4.86,3.24-12.36,6.12-18.3,7.74a12.85,12.85,0,0,0-2.34-2.46c5.7-1.5,13.32-4.14,17.52-6.9Zm4.08,13.62c-4.44,4.68-12.78,7.68-21.48,9.42a14.56,14.56,0,0,0-2.1-2.94c8.22-1.32,16.32-3.9,20.28-7.86Zm-2.46-7c-4.5,3.66-12,6.48-18.66,8.16a18.49,18.49,0,0,0-2.22-2.64c6.36-1.38,13.74-3.9,17.7-7Zm-13.8,36.42a93.47,93.47,0,0,1,13.74,6.12l-2.88,2.28a105.44,105.44,0,0,0-13.62-6.3Z"/><path class="cls-2" d="M1146.08,1184.54c3.6,0,4.2-1.56,4.68-8.52a12.48,12.48,0,0,0,3.9,1.62c-.78,8.22-2.1,10.8-8.46,10.8h-15.72c-7,0-9-1.62-9-7.86v-8.76l-19.8,2.64-.54-3.72,20.34-2.64v-9.84l-18,2.52-.6-3.78,18.6-2.58v-9.54c-6.12,1.14-12.42,2.16-18.42,2.94a11,11,0,0,0-1.14-3.42c14.82-2,32-5.28,41.1-9.12l3.48,3.18a149.52,149.52,0,0,1-20.94,5.7v9.66l23-3.12.6,3.66-23.64,3.3v9.9l27.18-3.6.48,3.72-27.66,3.66v9.3c0,3.12.84,3.9,5,3.9Z"/><path class="cls-2" d="M1049.36,1558v3.24c0,10-.78,24.42-6.66,34.2a15.57,15.57,0,0,0-3.48-2c5.64-9.36,6.18-22.68,6.18-32.1v-17.52h44.46V1558Zm0-10.68v7.14h36.47v-7.14Zm37,43.68c2.7,0,3.18-1.14,3.47-6.78a13.27,13.27,0,0,0,3.67,1.56c-.6,7-1.8,8.88-6.9,8.88H1074c-6,0-7.68-1.32-7.68-6.3v-4.92l-15.72,2.46-.6-3.36,16.32-2.52v-5.88l-13.62,2.1-.66-3.24,14.28-2.28v-5.46c-4.26.78-8.7,1.38-12.78,1.92a13.55,13.55,0,0,0-1.14-2.94c10.14-1.32,22-3.48,28.26-5.88l3.42,2.64a110.17,110.17,0,0,1-13.86,3.54v5.64l17.22-2.64.6,3.24-17.82,2.76v5.88l21.47-3.36.61,3.3-22.08,3.48v5.46c0,2.22.66,2.7,4,2.7Z"/><path class="cls-2" d="M1141.52,1590.36c6.18,0,7.26-2,8.1-10.38a12.26,12.26,0,0,0,4,1.62c-1,9.48-2.93,12.66-12.11,12.66H1117.4c-9.48,0-12.42-1.92-12.42-9.78v-40.2h43.38v28.26h-4.08v-3.18h-35.22v15.24c0,4.56,1.32,5.76,7.92,5.76Zm-32.46-42.18v17.34h15.66v-17.34Zm35.22,0h-15.6v17.34h15.6Z"/><path class="cls-2" d="M117.12,1170.14a97.41,97.41,0,0,1-13.44,8.1,42.76,42.76,0,0,0,17.64,7.26,14.08,14.08,0,0,0-2.46,3.48c-13.74-3-23.34-10.38-28.56-21.72H80.52v16.62l16.8-4.08c-.12,1-.18,2.64-.18,3.48-17,4.44-20,5.22-21.3,6l-.3.18a16.11,16.11,0,0,0-1.86-3.84,4.87,4.87,0,0,0,2.94-4.26v-14.1h-10v-3.66H77.22v-26.34h36.9v3.42H81.3v5.52h30.9v3.3H81.3v5.34h30.9v3.3H81.3v5.46h38.58v3.66H94.32a30.21,30.21,0,0,0,6.72,8.82,90.28,90.28,0,0,0,12.78-8.1Z"/><path class="cls-2" d="M143.88,1184.54c0,2.1-.54,3.18-1.8,3.78s-3.6.66-7.44.66a16,16,0,0,0-1.08-3.42c2.82.12,5.22.06,5.94.06s1.08-.3,1.08-1.14V1166.9c-2.1,1.56-4.2,3.06-6.24,4.56l-1.62-3.3c2.1-1.14,4.86-2.82,7.86-4.68v-7.92l-2.16,1.56a52.26,52.26,0,0,0-5.28-6.72l2.28-1.44a45,45,0,0,1,5.16,5.94v-14.16H133v17.46c0,9.12-.6,22.26-4.86,31.38a9.84,9.84,0,0,0-2.82-2.4c3.9-8.52,4.26-20.28,4.26-29V1137h14.28Zm12.78-11.46c-.36,1.56-.84,3-1.26,4.5a38.56,38.56,0,0,1,6.72,5.28l-2.1,2.64a44.39,44.39,0,0,0-5.88-4.92,29.89,29.89,0,0,1-6.36,9.06,20.82,20.82,0,0,0-2.7-2.4c4.08-3.42,6.78-8.7,8.1-14.88ZM154,1149a63.65,63.65,0,0,1-5.28,3.66,15.09,15.09,0,0,0-2.7-2.4c7-4,13.08-10.14,16.2-15.9l3.72,1.14c-.42.66-.84,1.38-1.32,2,3.72,4.26,10.62,8.76,16.14,11.16a12.91,12.91,0,0,0-1.86,3.3,61.86,61.86,0,0,1-16.14-11.82,57.34,57.34,0,0,1-8,8.22H171.9v3.24H154Zm-6,7.68h13.68v14H148Zm3,10.86h7.56v-7.74H151Zm22.26,5a26.6,26.6,0,0,1-1.44,5.52,63.23,63.23,0,0,1,9.3,8.16l-2.46,2.58a73.84,73.84,0,0,0-8.1-7.62,25.22,25.22,0,0,1-6.36,8.28,18.79,18.79,0,0,0-2.7-2.64c4.38-3.24,7-8.4,8-14.7Zm-8.82-15.9h13.86v14H164.4Zm3.06,10.86h7.68v-7.74h-7.68Z"/><path class="cls-2" d="M199.65,1182.17a89.67,89.67,0,0,0,55.44,22.77,87.48,87.48,0,0,0,17.26-.9c1.42-.22.82-2.39-.6-2.17a87.23,87.23,0,0,1-56.91-11.28,83.3,83.3,0,0,1-13.6-10c-1.07-1-2.67.62-1.59,1.59Z"/><path class="cls-2" d="M117.35,1554.08v47h-4.14v-4.14H72.6v4.56h-4v-47.4Zm-4.14,39v-35.16H100.92v19.38c0,1.86.24,2.58,1.56,2.58h6.18a14.9,14.9,0,0,0,3.36-.3c.06,1.08.18,2.46.29,3.42a14.17,14.17,0,0,1-3.53.24H102c-3.9,0-4.86-1.68-4.86-6.06v-19.26H88.32c-.3,16.5-1.86,25.38-12.36,30.36a12,12,0,0,0-2.4-3.12c9.42-4.32,10.62-12.12,10.86-27.24H72.6v35.16Z"/><path class="cls-2" d="M145.32,1598.48c0,2.22-.54,3.36-1.86,4-1.56.66-3.84.72-7.86.72a12.7,12.7,0,0,0-1.2-3.6c2.94.12,5.52.12,6.3.06s1.08-.3,1.08-1.14v-18.42c-2.64,1.92-5.22,3.66-7.68,5.46l-1.5-2.94c-.48,7.2-1.68,15.06-4.56,21.12a9.6,9.6,0,0,0-2.88-2.52c3.9-8.52,4.26-20.28,4.26-28.92V1551h15.9ZM133,1572.2c0,2.94-.06,6.3-.3,9.84,2.4-1.32,5.7-3.3,9.12-5.4v-6.18l-2.46,1.68a65.47,65.47,0,0,0-5.94-7.74l2.46-1.44a65.52,65.52,0,0,1,5.94,7.14v-15.36H133Zm45.11.06a45.26,45.26,0,0,1-11.39,20,36.89,36.89,0,0,0,13.74,7.8,16,16,0,0,0-2.59,3.42,40.05,40.05,0,0,1-14.09-8.52,47.39,47.39,0,0,1-14.4,8.46,10.92,10.92,0,0,0-2.28-3.48,42,42,0,0,0,14-7.74,49.44,49.44,0,0,1-9.42-17.16h-2.34v-3.66h12.18v-9.3H148.14v-3.72h13.38v-9.6h4v9.6h14.21v3.72H165.54v9.3h9.29l.79-.18Zm-22.61,2.82a42.92,42.92,0,0,0,8.46,14.58,38.62,38.62,0,0,0,9.24-14.58Z"/><path class="cls-2" d="M176.88,1630.37c11.45,19.65,26.87,36.46,44.07,51.22a458.09,458.09,0,0,0,52.83,38.83,470.76,470.76,0,0,0,116.12,53.4,451.24,451.24,0,0,0,122.25,19.24,446,446,0,0,0,123-15.11,457.31,457.31,0,0,0,116.68-49.63q6.93-4.15,13.73-8.56c1.21-.78.08-2.73-1.14-1.94a459.82,459.82,0,0,1-115,53.7,443.86,443.86,0,0,1-243.16,4.59,464.63,464.63,0,0,1-116.39-48.49,487.27,487.27,0,0,1-54-36.71c-17.6-13.77-34.34-29-47.55-47.09a170.43,170.43,0,0,1-9.51-14.59,1.13,1.13,0,0,0-2,1.14Z"/><path class="cls-2" d="M194.46,1624.37a348.24,348.24,0,0,0,56.79,46.29A360,360,0,0,0,386.93,1724,346.27,346.27,0,0,0,423,1728.3a247.5,247.5,0,0,0,35,.14c21.55-1.65,44.18-7.26,60.36-22.43a63,63,0,0,0,5.53-5.9c.92-1.11-.66-2.71-1.59-1.59-14.21,17.16-36.17,24.52-57.67,27a213.27,213.27,0,0,1-33.62.93,340.5,340.5,0,0,1-36.34-3.47,357.06,357.06,0,0,1-135-49.7,346.38,346.38,0,0,1-57.07-44.16q-3.28-3.15-6.47-6.37a1.12,1.12,0,0,0-1.59,1.59Z"/><path class="cls-2" d="M1004.51,1216c-21.41,5.22-42.87,10.35-64.65,13.8-21.37,3.39-43.13,5.14-64.74,3.4a177,177,0,0,1-36.08-6.61,1.13,1.13,0,0,0-.6,2.17c20.88,6.17,42.75,8.06,64.44,7.15,22.14-.93,44.07-4.62,65.7-9.24,12.23-2.61,24.39-5.54,36.53-8.5a1.13,1.13,0,0,0-.6-2.17Z"/><path class="cls-2" d="M1022.56,1574.44c-4.68-9.09-9.65-18.1-15.74-26.34-5.82-7.87-12.75-15.21-21.37-20a44.22,44.22,0,0,0-15.31-5.22c-1.42-.2-2,2-.6,2.17,20,2.84,33.33,19.62,43,35.88,2.86,4.8,5.5,9.72,8.05,14.69.67,1.29,2.61.15,1.95-1.14Z"/></svg>