<svg id="Layer_1" data-name="Layer 1" xmlns="http://www.w3.org/2000/svg" viewBox="0 0 1242 2208"><defs><style>.cls-1{fill:#f6eabe;}.cls-2{fill:#999;}.cls-3{fill:none;stroke:#000;stroke-miterlimit:10;stroke-width:50px;}</style></defs><rect class="cls-1" width="1242" height="2208"/><path d="M374.07,512.21C368.51,621,349.46,746.44,296.26,838.54c-8.74-9.53-30.17-23.82-42.08-30.17,65.1-112.75,71.46-271.55,71.46-387.47V187.47H623.38c-7.94-19.85-16.67-42.88-25.41-60.35l51.61-13.5c10.33,23,23.82,51.61,32.56,73.85H970.36v46.84H376.45v86.55H510.64V251h49.22v69.88H704.37V251h50v69.88H949.71V512.21Zm2.38-146.89V420.9c0,15.08,0,30.17-.79,46.84h135V365.32Zm285,391.44c-.79,14.29,0,32.55,1.59,42.87-198.5,28.59-223.11,34.14-239,42.08-2.38-12.7-11.91-34.14-19-45.25,11.9-4,26.2-11.91,26.2-39.7V528.88h50v82.58H657.52v44.46H481.26V780.58ZM559.86,365.32V467.74H704.37V365.32Zm339,427.17c26.2,0,31.76-11.91,34.14-78.61,11.11,8.74,31,16.68,45.26,19.06-6.36,82.57-21.44,104-74.64,104H779.8c-67.49,0-84.16-15.09-84.16-70.66V534.44h50.81v77.81H951.3v44.46H746.45V766.29c0,21.43,5.56,26.2,38.11,26.2ZM754.39,365.32V467.74h145.3V365.32Z"/><path d="M505.92,1893.69a98.85,98.85,0,0,1-6.18,13.56v39.59H495.9v-33.35a61.73,61.73,0,0,1-5.46,7,32.86,32.86,0,0,0-2.28-3.9c5.58-5.87,10.8-14.87,14-24Zm34.14,28c-2.1,1.26-4.44,2.64-6.84,3.78,2,6.06,5.82,11.82,10.38,14.52a11.2,11.2,0,0,0-2.64,2.94c-4.62-3.18-8.46-9.42-10.68-16a27.45,27.45,0,0,1-2.76,1.2c2.58,6.84,1.86,14-1,16.68a6.91,6.91,0,0,1-5.22,1.92c-1.08,0-2.4-.06-3.78-.18a9.31,9.31,0,0,0-1-3.42,38.26,38.26,0,0,0,4.14.24,3.66,3.66,0,0,0,3.12-1.14c1.56-1.38,2.22-5.16,1.44-9.36-5.16,4.92-13.08,9.36-19.8,11.7a15.8,15.8,0,0,0-2.34-2.82c7.62-2.28,16.62-7.14,21.3-12.24a35.76,35.76,0,0,0-1.5-3.48,63.52,63.52,0,0,1-17.22,9.9,16.14,16.14,0,0,0-2.22-2.64c5.94-1.8,13.74-5.76,17.88-9.54a16.39,16.39,0,0,0-2.94-3.18,58.44,58.44,0,0,1-13.56,7.26,11.26,11.26,0,0,0-2.22-2.58,52.48,52.48,0,0,0,15.06-7.56H507.48v-9.35c-1.14,1-2.28,2-3.54,2.94a9.54,9.54,0,0,0-2.52-2.59,44.59,44.59,0,0,0,13.86-16.25l3.84.72c-.6,1.2-1.32,2.34-2,3.54h11.1l.72-.18,2.34,1.68a52.13,52.13,0,0,1-4.8,6.84h13.08v12.65H521.94a15.29,15.29,0,0,1-1.2,1,21,21,0,0,1,5.64,6.84,111.93,111.93,0,0,0,10.92-6.42ZM515,1899.81a54.58,54.58,0,0,1-4.2,5.16h11.58a37.88,37.88,0,0,0,3.72-5.16Zm-3.9,14.69h10.5v-6.42h-10.5Zm24.72-6.42H525.18v6.42H535.8Z"/><path d="M603.36,1916.91v4.31H548.88v-4.31Z"/><path d="M652.2,1939.52a73.54,73.54,0,0,0,9.66-.6c.18,1.08.48,2.88.72,3.84a70,70,0,0,1-10.38.48H625.14c-8.52,0-12.36-2.58-12.36-10.38v-32.75H609.9v-3.78h51.42v3.78H646.74v23c0,2.1.36,2.82,1.86,2.82h7.92a23.65,23.65,0,0,0,3.6-.29c.12,1,.3,2.75.42,3.65a17.54,17.54,0,0,1-4.08.3h-7.74c-4.62,0-5.88-1.68-5.88-6.6v-22.91h-10c-.36,15.89-1.8,26.21-11.28,32a9.35,9.35,0,0,0-2.52-3c8.58-5.22,9.6-14.39,10-29h-12.3v33c0,4.44,2,6.42,8,6.42Z"/><path d="M677.34,1922.12c-.42,8.22-1.86,17.7-5.88,24.66a15.3,15.3,0,0,0-3.18-2.28c4.92-8.52,5.4-20.52,5.4-29.28v-17.63h22.5c-.6-1.5-1.26-3.24-1.92-4.56l3.9-1c.78,1.74,1.8,3.9,2.46,5.58H722.4v3.54H677.52v6.54h10.14v-5.28h3.72v5.28H702.3v-5.28h3.78v5.28h14.76v14.45Zm.18-11.09v4.19c0,1.15,0,2.28-.06,3.54h10.2V1911Zm21.54,29.57a18.3,18.3,0,0,0,.12,3.24c-15,2.16-16.86,2.58-18.06,3.18a12.2,12.2,0,0,0-1.44-3.42,2.72,2.72,0,0,0,2-3v-17.22h3.78v6.24h13.32V1933H685.44v9.42ZM691.38,1911v7.73H702.3V1911ZM717,1943.3c2,0,2.4-.9,2.58-5.94a8.67,8.67,0,0,0,3.42,1.44c-.48,6.24-1.62,7.86-5.64,7.86H708c-5.1,0-6.36-1.14-6.36-5.34V1923.8h3.84v5.88H721V1933H705.48v8.28c0,1.62.42,2,2.88,2ZM706.08,1911v7.73h11V1911Z"/><path d="M734.88,1928c4.68-2,7.26-4.86,7.56-9.17a4,4,0,0,1-1.14.11c-2.34,0-4.26-1.32-4.26-4.07a4,4,0,0,1,4.32-4.08c3.18,0,4.86,2.58,4.86,6.66,0,6.41-4,11.21-10.08,13.43Z"/><path d="M239.76,1976c-1.2,2.46-2.52,5-3.9,7.31h29.22v30.54c0,2.52-.6,3.72-2.46,4.38s-5.16.66-10.38.66a16.63,16.63,0,0,0-1.32-3.9c4.14.18,7.8.12,8.82.12s1.44-.42,1.44-1.32v-6.66H234.9c-.84,4.38-2.58,8.88-6.12,12.24a12.44,12.44,0,0,0-2.76-3.12c5-4.86,5.52-11.52,5.52-17.22v-9.53a50.45,50.45,0,0,1-10.14,9.71,17.42,17.42,0,0,0-2.52-3.12c7.2-4.92,12.66-12.17,16.56-20.09H220.08v-3.78h17a57.7,57.7,0,0,0,2.76-7.8l4,.9a72.7,72.7,0,0,1-2.46,6.9h30.84V1976Zm21.42,27.65v-6.72H235.56V1999c0,1.44-.06,2.94-.18,4.56Zm0-16.73H235.56v6.53h25.62Z"/><path d="M287.34,1994.12c-.42,8.22-1.86,17.7-5.88,24.66a15.3,15.3,0,0,0-3.18-2.28c4.92-8.52,5.4-20.52,5.4-29.28v-17.63h22.5c-.6-1.5-1.26-3.24-1.92-4.56l3.9-1c.78,1.74,1.8,3.9,2.46,5.58H332.4v3.54H287.52v6.54h10.14v-5.28h3.72v5.28H312.3v-5.28h3.78v5.28h14.76v14.45Zm.18-11.09v4.19c0,1.15,0,2.28-.06,3.54h10.2V1983Zm21.54,29.57a18.3,18.3,0,0,0,.12,3.24c-15,2.16-16.86,2.58-18.06,3.18a12.2,12.2,0,0,0-1.44-3.42,2.72,2.72,0,0,0,2-3v-17.22h3.78v6.24h13.32V2005H295.44v9.42ZM301.38,1983v7.73H312.3V1983ZM327,2015.3c2,0,2.4-.9,2.58-5.94a8.67,8.67,0,0,0,3.42,1.44c-.48,6.24-1.62,7.86-5.64,7.86H318c-5.1,0-6.36-1.14-6.36-5.34V1995.8h3.84v5.88H331V2005H315.48v8.28c0,1.62.42,2,2.88,2ZM316.08,1983v7.73h11V1983Z"/><path d="M388,2013.68c0,2.76-.78,4.08-2.88,4.68s-6,.72-12.06.72a14.18,14.18,0,0,0-1.62-3.84c5,.12,9.6.12,10.92.06s1.68-.42,1.68-1.62v-7.92H349.86A25.93,25.93,0,0,1,341,2019.2a13.61,13.61,0,0,0-2.76-2.82c8.46-6.66,9.48-16,9.48-23.63v-10.92a58.8,58.8,0,0,1-5.1,4.13,14.75,14.75,0,0,0-2.94-2.81,52.86,52.86,0,0,0,17-19l4.32.78c-.54,1-1.14,1.92-1.74,2.94h14.94l.72-.24,2.64,1.74a48.84,48.84,0,0,1-5.58,8.58h16Zm-36.42-20.28a51.06,51.06,0,0,1-.78,8.82h14.58v-8.82Zm5.4-22.07a59.72,59.72,0,0,1-5.4,6.66h16a47.61,47.61,0,0,0,4.44-6.66Zm-5.4,18.59h13.8v-8.39h-13.8Zm32.46-8.39H369.18v8.39H384Zm0,20.69v-8.82H369.18v8.82Z"/><path d="M419.52,1997.06l-3.66,3.12a93.63,93.63,0,0,0-13.32-13.38l3.42-3.11A118.53,118.53,0,0,1,419.52,1997.06Z"/><path d="M437.34,1994.12c-.42,8.22-1.86,17.7-5.88,24.66a15.3,15.3,0,0,0-3.18-2.28c4.92-8.52,5.4-20.52,5.4-29.28v-17.63h22.5c-.6-1.5-1.26-3.24-1.92-4.56l3.9-1c.78,1.74,1.8,3.9,2.46,5.58H482.4v3.54H437.52v6.54h10.14v-5.28h3.72v5.28H462.3v-5.28h3.78v5.28h14.76v14.45Zm.18-11.09v4.19c0,1.15,0,2.28-.06,3.54h10.2V1983Zm21.54,29.57a18.3,18.3,0,0,0,.12,3.24c-15,2.16-16.86,2.58-18.06,3.18a12.2,12.2,0,0,0-1.44-3.42,2.72,2.72,0,0,0,2-3v-17.22h3.78v6.24h13.32V2005H445.44v9.42ZM451.38,1983v7.73H462.3V1983ZM477,2015.3c2,0,2.4-.9,2.58-5.94a8.67,8.67,0,0,0,3.42,1.44c-.48,6.24-1.62,7.86-5.64,7.86H468c-5.1,0-6.36-1.14-6.36-5.34V1995.8h3.84v5.88H481V2005H465.48v8.28c0,1.62.42,2,2.88,2ZM466.08,1983v7.73h11V1983Z"/><path d="M513.54,2010.2c-8.52,2-17.46,4-24,5.34l-1-3.72c6.18-1.14,15.6-3.06,24.72-5Zm-.72-38.81h-23.4v-3.72h23.4Zm-1.44,21.9H491v-16h20.34Zm-16.44,14.45a41.62,41.62,0,0,0-2.34-11.28l3.24-.78a37.26,37.26,0,0,1,2.58,11.16Zm12.78-27h-13.2v9.23h13.2ZM503,2007.26a85,85,0,0,0,2.7-12.12l3.9,1c-1.08,4.07-2.4,8.93-3.54,12Zm22.5,3.9c-3.18,3.12-8.46,6.12-13.08,7.86a22.91,22.91,0,0,0-2.7-2.7c4.68-1.56,9.84-4.56,12.24-7.14Zm-.72-34.43c.48-1.86,1-4,1.26-5.94H514.44v-3.54h28.74v3.54H530.4c-.54,2-1.14,4.14-1.74,5.94H541.2v31H516.36v-31Zm12.66,3.18H520v6.17h17.4Zm0,9.11H520v6.24h17.4Zm0,9.3H520v6.24h17.4Zm-3.36,11.16a75.29,75.29,0,0,1,10.32,7.38l-3.24,2.16A66.38,66.38,0,0,0,531,2011.4Z"/><path d="M569.52,1997.06l-3.66,3.12a93.63,93.63,0,0,0-13.32-13.38l3.42-3.11A118.53,118.53,0,0,1,569.52,1997.06Z"/><path d="M596.94,2009.06H584.28v5.28h-3.54v-46.19h16.2Zm-12.66-37.31v8.75h9.24v-8.75Zm0,21.11h9.24V1984h-9.24Zm9.24,12.6v-9.12h-9.24v9.12Zm39.06-7.5a93.7,93.7,0,0,1-10.92,7.32,26.11,26.11,0,0,0,11.82,9.78,13.84,13.84,0,0,0-2.76,3.48c-9.42-4.44-15-13.62-17.88-25.5h-6.72v20.28l11-2.7a22.19,22.19,0,0,0,.18,3.6c-12.48,3.42-14.22,4-15.3,4.8a18.39,18.39,0,0,0-1.86-3.36,4.16,4.16,0,0,0,2.1-4V1967h27.06v26h-13a48.23,48.23,0,0,0,3.66,9.36,80.77,80.77,0,0,0,10-7.19Zm-26.46-27.41v7.68h19.32v-7.68Zm0,19h19.32v-7.92H606.12Z"/><path d="M655.74,2009H644.28v5.28h-3.6v-46.19h15.06Zm-11.46-37.31v8.64h7.86v-8.64Zm7.86,12.18h-7.86v8.93h7.86Zm0,21.53v-9.12h-7.86v9.12Zm37.2,9.12c0,2.1-.48,3.12-2,3.72s-4.2.66-8.46.66a16,16,0,0,0-1.2-3.48c3.12.12,6,.12,6.78.06s1.08-.3,1.08-1v-4.92H666.24a23.27,23.27,0,0,1-3.9,10.14,11.43,11.43,0,0,0-2.88-2.76c3.24-4.56,3.6-10.62,3.6-15.36v-11h26.28Zm3.9-30.72v3.12H659.7v-3.12h14.52v-4.49H661.44v-3h12.78v-4h-14.4v-3.12h14.4v-4.8H678v4.8h14.76v3.12H678v4h13.32v3H678v4.49Zm-7.74,22.68v-4.92H666.84v.06a46.17,46.17,0,0,1-.24,4.86Zm-18.66-12.84v4.86H685.5v-4.86Z"/><path d="M719.52,1997.06l-3.66,3.12a93.63,93.63,0,0,0-13.32-13.38l3.42-3.11A118.53,118.53,0,0,1,719.52,1997.06Z"/><path d="M780.3,1969.59v47h-4.14v-4.14H735.54V2017h-4v-47.39Zm-4.14,39v-35.15h-12.3v19.37c0,1.87.24,2.58,1.56,2.58h6.18a14.9,14.9,0,0,0,3.36-.3c.06,1.09.18,2.46.3,3.42a14.3,14.3,0,0,1-3.54.24h-6.78c-3.9,0-4.86-1.68-4.86-6.06v-19.25h-8.82c-.3,16.49-1.86,25.37-12.36,30.35a12,12,0,0,0-2.4-3.12c9.42-4.32,10.62-12.12,10.86-27.23H735.54v35.15Z"/><path d="M808.26,2014c0,2.22-.54,3.36-1.86,4-1.56.66-3.84.72-7.86.72a12.7,12.7,0,0,0-1.2-3.6c2.94.12,5.52.12,6.3.06s1.08-.3,1.08-1.14v-18.42c-2.64,1.92-5.22,3.66-7.68,5.46l-1.5-2.94c-.48,7.2-1.68,15.06-4.56,21.12a9.6,9.6,0,0,0-2.88-2.52c3.9-8.52,4.26-20.28,4.26-28.92v-21.23h15.9Zm-12.36-26.27c0,2.93-.06,6.29-.3,9.83,2.4-1.32,5.7-3.29,9.12-5.4V1986l-2.46,1.68a66.25,66.25,0,0,0-5.94-7.73l2.46-1.44a65.52,65.52,0,0,1,5.94,7.14v-15.36H795.9Zm45.12,0a45.27,45.27,0,0,1-11.4,20,37,37,0,0,0,13.74,7.8,16,16,0,0,0-2.58,3.42,40,40,0,0,1-14.1-8.52,47.39,47.39,0,0,1-14.4,8.46,10.92,10.92,0,0,0-2.28-3.48,42,42,0,0,0,14-7.74,49.44,49.44,0,0,1-9.42-17.16h-2.34v-3.66h12.18v-9.3H811.08v-3.71h13.38v-9.6h4v9.6H842.7v3.71H828.48v9.3h9.3l.78-.17Zm-22.62,2.82a42.92,42.92,0,0,0,8.46,14.58,38.62,38.62,0,0,0,9.24-14.58Z"/><path d="M869.52,1997.06l-3.66,3.12a93.63,93.63,0,0,0-13.32-13.38l3.42-3.11A118.53,118.53,0,0,1,869.52,1997.06Z"/><path d="M898.26,2011.7c-1.38-2.4-4.68-7.38-7.08-10.68a34.08,34.08,0,0,1-9.9,16.86,12.79,12.79,0,0,0-2.7-2.7c7.5-6.72,9.84-15.6,10.5-23.39h-10.2v-3.61h10.38c.06-.84.06-1.61.06-2.46v-9.6h-3.66a39.12,39.12,0,0,1-3.78,9.55,18.92,18.92,0,0,0-3.12-2.1c2.88-4.74,4.62-11.94,5.64-19.2l3.66.66c-.36,2.52-.84,5-1.38,7.44h13.86v3.65H893v9.67c0,.78,0,1.55-.06,2.39h8.46v3.61h-8.64c-.12,1.55-.36,3.23-.6,4.85,2.1,2.64,7.44,10,8.82,11.82Zm35,1.62V2017H900.18v-3.72H919a107.07,107.07,0,0,0,5.64-15l4,.84c-1.74,4.62-3.9,10.14-5.82,14.16Zm-.6-42.59H902.64V1967H932.7ZM930.24,1996H904.62v-18.53h25.62Zm-19.62,16.14a68.38,68.38,0,0,0-4.2-12.54l3.3-.9a64.08,64.08,0,0,1,4.44,12.48ZM926.4,1981H908.34v11.34H926.4Z"/><path d="M948.3,1981.46v3.25c0,10-.78,24.41-6.66,34.19a15.57,15.57,0,0,0-3.48-2c5.64-9.36,6.18-22.68,6.18-32.1v-17.51H988.8v14.21Zm0-10.67v7.14h36.48v-7.14Zm37,43.67c2.7,0,3.18-1.14,3.48-6.78a13.21,13.21,0,0,0,3.66,1.56c-.6,7-1.8,8.88-6.9,8.88H973c-6,0-7.68-1.32-7.68-6.3v-4.92l-15.72,2.46L949,2006l16.32-2.52v-5.88l-13.62,2.1-.66-3.24,14.28-2.28v-5.46c-4.26.78-8.7,1.38-12.78,1.92a13.47,13.47,0,0,0-1.14-2.93c10.14-1.33,22-3.48,28.26-5.88l3.42,2.63a106.83,106.83,0,0,1-13.86,3.54v5.64L986.4,1991l.6,3.25L969.18,1997v5.88l21.48-3.36.6,3.3-22.08,3.48v5.46c0,2.22.66,2.7,4,2.7Z"/><path d="M1011.18,1982.67a9.06,9.06,0,1,1-9.06,9A9.09,9.09,0,0,1,1011.18,1982.67Zm0,15.23a6.18,6.18,0,1,0,0-12.36,6.18,6.18,0,1,0,0,12.36Z"/><rect class="cls-2" x="1113" y="425" width="65" height="126" rx="12"/><path class="cls-1" d="M1132.7,454.82c1.25,1.6,4.9,6.7,5.7,8.05l-2,2.45c-.7-1.5-2.35-4.4-3.75-6.65V485h-3.15V460.57c-1.5,5.05-3.5,9.9-5.55,12.85a14.83,14.83,0,0,0-1.75-3.1c2.9-4,5.8-11.5,7.2-18h-6.2v-3.15h6.3v-9.65h3.15v9.65h5.45v3.15h-5.45Zm19.1.7a19.47,19.47,0,0,0,.45,2.65c-10.15,2.7-11.6,3.15-12.5,3.75a12.13,12.13,0,0,0-1.1-3.2c.7-.2,1.55-.5,1.55-2.2v-16.7h3.25v6.5h8.35v2.9h-8.35v8.3Zm2.35,5.5-2,3.75h12.65V485h-3.4v-1.75h-17v2h-3.3V464.77h7.9c.55-1.5,1.2-3.25,1.55-4.6Zm7.3,6.5h-17v5.05h17Zm0,13v-5.3h-17v5.3Zm2.25-22.4c1.25,0,1.5-.75,1.65-5.25a9.16,9.16,0,0,0,2.85,1.25c-.3,5.45-1.2,6.95-4.15,6.95h-5.85c-3.65,0-4.55-.95-4.55-4.45V439.87h3.25v6.5h10.2v2.9h-10.2v7.35c0,1.3.25,1.5,1.65,1.5Z"/><path class="cls-1" d="M1167.55,514.87v2.5H1123.4v-2.5h20.25v-3.2H1126.8v-2.3h16.85v-3H1128.2v-2.25h15.45v-3.2H1123.5v-2.5h20.15v-3.05H1128.8V493h14.85v-3.55h3.25V493h14.45v5.4h6.15v2.5h-6.15v5.45H1146.9v3h17.3v2.3h-17.3v3.2Zm-37.75,5h31.75v15.25h-3.25v-1.6H1133v1.7h-3.2Zm3.2,2.4v3.2h25.3v-3.2Zm25.3,8.85v-3.4H1133v3.4Zm-11.4-32.7h11.15v-3.05H1146.9Zm0,5.7h11.15v-3.2H1146.9Z"/><rect class="cls-2" x="1113" y="1235" width="65" height="222" rx="12"/><path class="cls-1" d="M1158.05,1274.79a27.61,27.61,0,0,0,11.5,8.1,11.65,11.65,0,0,0-2.15,2.55,30.77,30.77,0,0,1-12.8-10.65h-15.95a34.39,34.39,0,0,1-13,11.3,11.43,11.43,0,0,0-2.15-2.55,30.39,30.39,0,0,0,11.6-8.75H1124v-2.85h10v-16.15h-7.7V1253h7.7v-5h3.3v5h18.55v-5h3.35v5h7.65v2.8h-7.65v16.15h9.8v2.85Zm-10,14.5h17.3v2.85H1127.8v-2.85h16.9v-5.6h-10.45v-2.8h10.45v-4.4h3.35v4.4h10.65v2.8h-10.65Zm-10.8-33.5v3.6h18.55v-3.6Zm0,9.8h18.55v-3.65h-18.55Zm0,6.35h18.55v-3.8h-18.55Z"/><path class="cls-1" d="M1142.25,1316.54s0,1.15,0,1.55c-.6,15.85-1.2,21.2-2.6,23a3.71,3.71,0,0,1-2.8,1.45,32.65,32.65,0,0,1-4.45,0,9.25,9.25,0,0,0-.85-3c1.75.15,3.2.15,3.9.15a1.42,1.42,0,0,0,1.45-.65c1-1.2,1.6-6,2.15-19.35h-6.8c-.55,10-2,18.25-6.45,23.65a9.53,9.53,0,0,0-2.55-2.35c5.45-6.45,5.9-17.85,6.1-31.55h-5.2v-3.1h20.1v3.1h-11.65c0,2.45-.1,4.85-.2,7.15Zm-7.9-10.45a33.47,33.47,0,0,0-4.25-7.15l2.9-1.15a31.92,31.92,0,0,1,4.4,7Zm23.85-7.45a15.26,15.26,0,0,1-.85,2.55c2.65,5.45,7.7,11.35,12.45,14a13,13,0,0,0-2.45,2.75c-4.25-2.7-8.5-8-11.4-13.3a32.61,32.61,0,0,1-11,13.6,12.79,12.79,0,0,0-2.35-2.65c5.85-3.6,10.35-10.2,12.5-17.85Zm-8.3,32.45a74,74,0,0,1,13.6,8.25l-2.25,2.9c-2.85-2.6-8.75-6.3-13.4-8.65Zm9.5-4.85a66.22,66.22,0,0,0-8.6-6.85l2.15-2.2a67.46,67.46,0,0,1,8.75,6.55Z"/><path class="cls-1" d="M1149.6,1348.94c-.35.6-.8,1.15-1.2,1.75,4.95,5.5,13.85,10.9,21.4,13.3a16.56,16.56,0,0,0-2.35,2.9,60.7,60.7,0,0,1-21-13.9,48.65,48.65,0,0,1-12.4,10h25.1v3.1h-11.1v7.05h17.75v3H1148.1v12.7H1168v3.1h-43v-3.1h19.55v-12.7h-17.35v-3h17.35v-7.05h-10.9v-2.9a58.72,58.72,0,0,1-8.25,3.85,11.79,11.79,0,0,0-2.25-3c9.35-3.1,18.55-9.1,23.3-16.5Zm-15.25,28.65a42.46,42.46,0,0,1,4.8,9.1l-2.9,1.2a40.78,40.78,0,0,0-4.65-9.2Zm18.55,9.3a71.79,71.79,0,0,0,5.35-9.35l3.15,1.25a101.62,101.62,0,0,1-6,9.2Z"/><path class="cls-1" d="M1161,1410.09a51.83,51.83,0,0,1-12,19.6,49.94,49.94,0,0,0,20.5,10.5,16.79,16.79,0,0,0-2.25,3,50.92,50.92,0,0,1-20.75-11.1c-5.65,5-12.55,8.6-21,11.3a15.53,15.53,0,0,0-2-3.05c8.35-2.45,15.1-5.9,20.6-10.6a57.05,57.05,0,0,1-12.2-19.65h-7.75v-3.25h44.75v3.25Zm-25.75,0a52.13,52.13,0,0,0,11.3,17.3,47.46,47.46,0,0,0,10.7-17.3Zm11.25-3.55a38.13,38.13,0,0,0-3.8-7.8l3.4-1a39,39,0,0,1,4,7.65Z"/><path d="M542.42,1402.74c6.3,9.23,13.33,18.2,21.54,25.82a141.72,141.72,0,0,0,25.62,19A208.77,208.77,0,0,0,620,1461.35a155.42,155.42,0,0,0,30.4,8.62,193.16,193.16,0,0,0,39.53,2.59,269.28,269.28,0,0,0,39.71-5c19-3.76,37.24-10,55.39-16.67,16.61-6.15,33.36-12.4,50.82-15.65,2.14-.4,4.28-.75,6.44-1l-6.78.91a92,92,0,0,1,24.13-.31l-6.78-.91a64.72,64.72,0,0,1,16.16,4.34l-6.1-2.57a60.8,60.8,0,0,1,13,7.61l-5.16-4A72.35,72.35,0,0,1,883.45,1452l-4-5.16a111.3,111.3,0,0,1,14,24.68l-2.57-6.09c3.27,7.79,6,15.8,8.56,23.83a26.84,26.84,0,0,0,11.72,15.24,18.93,18.93,0,0,0,9.48,3,19.2,19.2,0,0,0,10.16-.46c6.17-2,12.13-5.82,15.24-11.72s4.7-13.08,2.57-19.64a315.51,315.51,0,0,0-12.86-33.89A120,120,0,0,0,916.25,1412a68.91,68.91,0,0,0-9-8.51c-4.61-3.64-9.17-7.22-14.38-9.93a96.26,96.26,0,0,0-15.82-6.56c-5.68-1.76-11.5-2.48-17.38-3.23a90,90,0,0,0-22.24.07,199.51,199.51,0,0,0-29.77,5.62c-15.57,4.3-30.61,10.25-45.78,15.76-19.51,7.09-39.49,12.7-60.1,15.52l6.78-.91a181.23,181.23,0,0,1-47.68.57l6.78.91c-14.46-2-28.31-6.56-41.73-12.21l6.09,2.57a135.17,135.17,0,0,1-30-17.06l5.16,4a113.53,113.53,0,0,1-20-20.17l4,5.16q-2.47-3.22-4.77-6.6a24.54,24.54,0,0,0-25.41-12.17,19,19,0,0,0-9.48,3c-5.45,3.51-10.24,8.74-11.72,15.24s-1.28,14,2.57,19.65Z"/><path d="M559.51,1429.37c-4.61,21.69-9.67,43.28-15.43,64.68s-12.2,42.54-19.62,63.37q-6.21,17.41-13.37,34.47l2.57-6.09c-6.81,16.13-14.31,32-22.67,47.36q-3.56,6.54-7.3,13a18.9,18.9,0,0,0-3,9.48A26.22,26.22,0,0,0,492.83,1681l6.09,2.57a25.78,25.78,0,0,0,13.56,0l6.09-2.57a25.55,25.55,0,0,0,9.15-9.15q11.52-19.72,21.15-40.45c7.4-15.84,14.16-32,20.33-48.35,5.47-14.48,10.43-29.16,15-44s8.75-29.88,12.59-45,7.38-30.24,10.67-45.45c.41-1.93.83-3.85,1.24-5.78a19.34,19.34,0,0,0,.45-10.17,19,19,0,0,0-3-9.48,19.4,19.4,0,0,0-6.57-7.15,19.19,19.19,0,0,0-8.67-4.57l-6.78-.91a25.46,25.46,0,0,0-12.87,3.48l-5.16,4a25.45,25.45,0,0,0-6.56,11.25Z"/><path d="M575.38,1459.32q3.72,39.15,8,78.25,4.23,38.94,9,77.83,2.65,21.76,5.48,43.51a19.32,19.32,0,0,0,2.19,9.83,26.24,26.24,0,0,0,23.31,15.67l6.78-.91a25.45,25.45,0,0,0,11.25-6.56l4-5.16a25.52,25.52,0,0,0,3.48-12.87q-5-38.76-9.54-77.58-4.51-39-8.53-78-2.26-22-4.35-44a26.19,26.19,0,0,0-25.5-25.5l-6.78.91a25.52,25.52,0,0,0-11.26,6.55l-4,5.17a25.27,25.27,0,0,0-3.48,12.87Z"/><path d="M788.31,1430.4a589.32,589.32,0,0,1-2.89,68.65q-1,9.78-2.29,19.52l.91-6.78q-3.78,28.1-10.21,55.74t-15.48,54.64q-5.1,15.16-11,30a19.34,19.34,0,0,0-.46,10.17,26.25,26.25,0,0,0,18.27,21.2l6.78.91a25.32,25.32,0,0,0,12.87-3.48l5.16-4a25.45,25.45,0,0,0,6.56-11.25,598.83,598.83,0,0,0,27.1-87.44,640.49,640.49,0,0,0,14.26-96.53q1.83-25.66,1.41-51.41a26.21,26.21,0,0,0-25.5-25.5l-6.78.91a25.55,25.55,0,0,0-11.25,6.56c-4.54,4.94-7.58,11.16-7.47,18Z"/><path d="M809.32,1461.49a20.78,20.78,0,0,1,3.35,3.41l-4-5.16c3.32,4.31,5.46,9.41,7.56,14.38l-2.57-6.09a395.55,395.55,0,0,1,23.68,79.36q2.28,12,3.91,24l-.91-6.78a456.44,456.44,0,0,1,3.9,73.34q-.29,10.52-1.08,21a26.23,26.23,0,0,0,25.5,25.5l6.78-.91A25.45,25.45,0,0,0,886.7,1677l4-5.16a25.32,25.32,0,0,0,3.48-12.87,453.53,453.53,0,0,0-2.29-90.3c-2.1-16.71-4.72-33.32-8.47-49.75a401.15,401.15,0,0,0-11.87-41.76q-3.82-11.1-8.36-21.94c-2.32-5.52-4.5-11.27-7.41-16.53a37.25,37.25,0,0,0-3-4.72c-2.21-2.91-4.4-6.25-7.34-8.57a26.22,26.22,0,0,0-36.06,0l-4,5.16a25.32,25.32,0,0,0-3.48,12.87l.91,6.78a25.45,25.45,0,0,0,6.56,11.25Z"/><path d="M605.57,1328.24a90,90,0,0,0,7.85-13,135,135,0,0,0,7.92-19.54,95.17,95.17,0,0,0,3.3-14.72,139.34,139.34,0,0,0,1.85-21.18,137.86,137.86,0,0,0-2.16-21.15,90.85,90.85,0,0,0-3.68-14.61,126.83,126.83,0,0,0-8.36-19.3,111.41,111.41,0,0,0-10.55-15.26A88.94,88.94,0,0,0,580,1170.14a69.93,69.93,0,0,0-9.89-5.36,120,120,0,0,0-16.37-6.25,85.2,85.2,0,0,0-11-2.25,147.27,147.27,0,0,0-17.77-1.76,103.39,103.39,0,0,0-11.67.44c-6,.56-12.06,1.37-18,2.52a125.05,125.05,0,0,0-22.74,6.74,160.84,160.84,0,0,0-26.76,13.16c-5.6,3.57-10.84,7.67-16.06,11.76-4.36,3.42-8.54,7-12.57,10.84a256.49,256.49,0,0,0-22.47,24.37c-8.57,10.48-16.57,21.41-24.62,32.29-7.41,10-14.9,19.94-22.37,29.9s-15,20-22.34,30.15S311,1336.82,304.6,1347.4c-1.25,2-2.53,4.09-3.65,6.21-1.64,3.1-2.94,6.47-4.25,9.67A46.12,46.12,0,0,0,294,1372a90,90,0,0,0-1.47,11,25.48,25.48,0,0,0,0,4.28c.71,7,1.77,13.86,5.87,19.84,3.77,5.51,6,7.67,11.47,11.5a12,12,0,0,0,1.65,1,54.68,54.68,0,0,0,7.91,3.28c7.79,2.37,16.48,1.8,24.31.1a58.43,58.43,0,0,0,13.22-5.16,60.9,60.9,0,0,0,6.82-4c4.58-3.07,9-6.32,13.78-9.11a126.3,126.3,0,0,1,14.48-7.26L386,1400a126.22,126.22,0,0,1,31.2-8.66l-6.77.91a24.66,24.66,0,0,1,5.76-.14l-6.78-.91a12.62,12.62,0,0,1,2.83.71l-6.1-2.57a9.16,9.16,0,0,1,1.53.85l-5.17-4a7.22,7.22,0,0,1,1.25,1.22l-4-5.16a7.25,7.25,0,0,1,.79,1.38l-2.57-6.09a8.34,8.34,0,0,1,.41,1.54l-.91-6.78a9.94,9.94,0,0,1,0,2l.91-6.78a15.34,15.34,0,0,1-1.05,3.7l2.57-6.09a45.82,45.82,0,0,1-5.85,9.35l4-5.16a97.66,97.66,0,0,1-17.51,16.78l5.17-4c-12.58,9.71-26.17,18.11-38,28.81a71.56,71.56,0,0,0-11.09,13,49.69,49.69,0,0,0-4.9,10.47,16.09,16.09,0,0,0-.71,2.46,71.12,71.12,0,0,0-1.2,8.84,19.72,19.72,0,0,0,0,3.26c.26,2.63.57,5.33,1.09,7.93a11.13,11.13,0,0,0,.39,1.48,64.79,64.79,0,0,0,3,7.05,11.28,11.28,0,0,0,.61,1.13,59.39,59.39,0,0,0,4.54,5.94,10.29,10.29,0,0,0,.83.92,37.53,37.53,0,0,0,3.37,2.67,43.14,43.14,0,0,0,3.52,2.65c.34.2.68.39,1,.56,2.3,1.12,4.72,2.11,7.11,3,3.71,1.4,8,1.66,11.85,2a35.5,35.5,0,0,0,6.1.06,126.63,126.63,0,0,0,13-1.68,122.56,122.56,0,0,0,22.36-6.42c15.07-5.68,30-12,44.51-18.88,12.87-6.11,25.46-12.79,37.67-20.11a377.92,377.92,0,0,0,35-23.65,366.15,366.15,0,0,0,36.37-31.06,304.64,304.64,0,0,0,30.78-36.13,226.55,226.55,0,0,0,21.22-35q2.21-4.53,4.2-9.17a18.92,18.92,0,0,0,3-9.48,26.22,26.22,0,0,0-12.17-25.41c-5.92-3.12-13.09-4.69-19.65-2.57l-6.09,2.57a25.71,25.71,0,0,0-9.15,9.15A222.2,222.2,0,0,1,553,1315.23q-3.62,5.22-7.5,10.25l4-5.16a281.23,281.23,0,0,1-39.91,41.57q-6.3,5.38-12.85,10.44l5.16-4a376.28,376.28,0,0,1-34.9,23.84c-12.18,7.38-24.74,14.12-37.57,20.29q-10.78,5.19-21.81,9.83l6.09-2.57c-11.16,4.7-22.5,9.47-34.28,12.41a85.06,85.06,0,0,1-9.1,1.79l6.78-.92a40.84,40.84,0,0,1-10.65.24l6.78.91a18.41,18.41,0,0,1-4.74-1.24l6.09,2.57A12.17,12.17,0,0,1,372,1434l5.16,4a10.23,10.23,0,0,1-1.73-1.75l4,5.16a10.88,10.88,0,0,1-1.17-2l2.57,6.09a13.18,13.18,0,0,1-.78-3l.92,6.78a18.71,18.71,0,0,1,0-4.61l-.91,6.78a17.87,17.87,0,0,1,1.14-4.12l-2.57,6.1a24.88,24.88,0,0,1,3.12-5.22l-4,5.16c4-5.11,9.23-9.28,14.33-13.23l-5.16,4c10-7.69,20.43-14.69,30.36-22.45a113,113,0,0,0,11.44-10.08,72,72,0,0,0,4.91-5.56,114.63,114.63,0,0,0,8.15-11.07,36,36,0,0,0,1.83-3.27c1.19-2.5,2.3-5.1,3.25-7.7a13.25,13.25,0,0,0,.59-2.07c1.31-6.63,1.35-9.88.13-16.42a22.36,22.36,0,0,0-1.69-4.59c-1.87-4.43-2.43-5.38-6.07-9.59a30.47,30.47,0,0,0-16.48-9.28,51.83,51.83,0,0,0-9.84-1.07,86.07,86.07,0,0,0-10,1.19c-14.06,2-27.27,6.69-40.17,12.55a121.58,121.58,0,0,0-17.47,9.7c-5.42,3.61-10.57,7.72-16.59,10.32l6.09-2.57a29.18,29.18,0,0,1-6.87,2l6.78-.91a25.23,25.23,0,0,1-6.61.09l6.78.91a15.81,15.81,0,0,1-3.53-.92l6.09,2.57a12.1,12.1,0,0,1-2.56-1.48l5.16,4a10.81,10.81,0,0,1-1.81-1.83l4,5.17a12.65,12.65,0,0,1-1.5-2.59l2.57,6.09a16.86,16.86,0,0,1-1.07-4.13l.91,6.77a27.79,27.79,0,0,1,.09-6.88l-.91,6.77a44.55,44.55,0,0,1,3.11-11.15l-2.57,6.09a62.57,62.57,0,0,1,4-7.54q3.84-6.42,8-12.64c5.48-8.3,11.33-16.36,17.2-24.39,11.89-16.27,24.12-32.31,36.17-48.47,6.42-8.62,12.69-17.36,19.26-25.87l-4,5.16c9.76-12.61,20.2-24.76,32-35.48q5.1-4.62,10.53-8.85l-5.16,4a129.71,129.71,0,0,1,28.63-16.88L484,1214.3a125,125,0,0,1,31.7-8.75l-6.78.91a102.32,102.32,0,0,1,26.8-.13l-6.77-.92a80.92,80.92,0,0,1,20.54,5.54l-6.09-2.58a70.18,70.18,0,0,1,15.34,9l-5.17-4a69.62,69.62,0,0,1,12.13,12.19l-4-5.16a80.7,80.7,0,0,1,10.15,17.54l-2.58-6.09a91.57,91.57,0,0,1,6.33,23.32l-.91-6.78a96.78,96.78,0,0,1,0,25l.91-6.78a95.44,95.44,0,0,1-6.55,24.16l2.57-6.09a91.05,91.05,0,0,1-10.06,17.84,18.9,18.9,0,0,0-3,9.49,26.18,26.18,0,0,0,12.17,25.4c5.92,3.13,13.09,4.7,19.65,2.57l6.1-2.57a25.5,25.5,0,0,0,9.14-9.14Z"/><ellipse class="cls-3" cx="497.58" cy="1280.21" rx="32.6" ry="30.5"/><path d="M558.07,1174.6a61.16,61.16,0,0,1,5.45-8.42l-4,5.16a81.64,81.64,0,0,1,14.74-14.45l-5.16,4c10.47-8,22.32-14.16,34.45-19.3l-6.09,2.57c16.37-6.89,33.45-11.91,50.44-17,8.74-2.63,17.47-5.27,26.12-8.19,10.43-3.51,20.65-7.53,30.73-12a194.67,194.67,0,0,0,45.38-28.49A145.7,145.7,0,0,0,766.23,1063c3.78-4.23,7.22-8.72,10.66-13.23,2.14-2.81,4.18-5.72,6.09-8.7a154.79,154.79,0,0,0,12-24,106.64,106.64,0,0,0,6-19.36c.34-1.65.64-3.3.9-5a19.34,19.34,0,0,0,.45-10.17,19,19,0,0,0-3-9.48,28.49,28.49,0,0,0-15.24-11.72l-6.78-.91A25.32,25.32,0,0,0,764.4,964l-5.16,4a25.45,25.45,0,0,0-6.56,11.25,106.77,106.77,0,0,1-7,24.64l2.57-6.09a122.24,122.24,0,0,1-15.91,27l4-5.16a146.77,146.77,0,0,1-26.24,26l5.16-4a178.41,178.41,0,0,1-39.44,22.7l6.09-2.58c-22.9,9.64-47.08,15.73-70.69,23.32a363.78,363.78,0,0,0-38.3,14.63,149.88,149.88,0,0,0-28.3,16.23c-6.16,4.61-12.27,9.32-17.47,15a125.6,125.6,0,0,0-8.87,11.17,57.81,57.81,0,0,0-4.19,6.74,18.9,18.9,0,0,0-3,9.48,26.22,26.22,0,0,0,12.17,25.41l6.1,2.57a25.74,25.74,0,0,0,13.55,0l6.09-2.57a25.55,25.55,0,0,0,9.15-9.15Z"/><path d="M547.94,1135.14q-2-4.19-3.85-8.47l2.57,6.09A166.89,166.89,0,0,1,535,1090.48l.91,6.78a161,161,0,0,1-1.4-23.43,24.61,24.61,0,0,0-15.68-23.3,19.18,19.18,0,0,0-9.82-2.2l-6.78.91A25.45,25.45,0,0,0,491,1055.8l-4,5.16a25.32,25.32,0,0,0-3.48,12.87,196.28,196.28,0,0,0,3.21,36,164.86,164.86,0,0,0,7.92,29.35c2.72,7.35,5.8,14.61,9.24,21.66a24.54,24.54,0,0,0,25.41,12.17,19,19,0,0,0,9.48-3l5.16-4a25.55,25.55,0,0,0,6.56-11.25l.91-6.78a25.37,25.37,0,0,0-3.49-12.87Z"/><path d="M674.2,1074q-2-4.18-3.85-8.48l2.57,6.1a167,167,0,0,1-11.63-42.28l.91,6.78a161,161,0,0,1-1.4-23.43,26.23,26.23,0,0,0-25.5-25.5l-6.78.91a25.45,25.45,0,0,0-11.25,6.56l-4,5.16a25.32,25.32,0,0,0-3.48,12.87,196.36,196.36,0,0,0,3.21,36,164.86,164.86,0,0,0,7.92,29.35c2.72,7.35,5.8,14.6,9.24,21.66a24.54,24.54,0,0,0,25.4,12.17,18.9,18.9,0,0,0,9.49-3l5.16-4a25.43,25.43,0,0,0,6.55-11.25l.92-6.78A25.37,25.37,0,0,0,674.2,1074Z"/><path d="M510.18,1126.8c-18,1.45-36.18,2.38-54.27,1.3q-7.85-.46-15.64-1.49l6.78.91a146.68,146.68,0,0,1-37.28-9.63l6.09,2.57A100.2,100.2,0,0,1,394.12,1108l5.16,4a70.73,70.73,0,0,1-12.75-12.54l4,5.16a48.18,48.18,0,0,1-6.12-10.32l2.57,6.09a36.4,36.4,0,0,1-2.52-9.1l.91,6.78c-.08-.62-.14-1.24-.19-1.86a24.64,24.64,0,0,0-15.68-23.31,19.28,19.28,0,0,0-9.82-2.19l-6.78.91a25.45,25.45,0,0,0-11.25,6.56l-4,5.16a25.29,25.29,0,0,0-3.48,12.87,70.58,70.58,0,0,0,2,13.08,78.21,78.21,0,0,0,4.85,12.23c2.88,6.13,7.27,11.65,11.67,16.72,4.82,5.54,10.61,10,16.46,14.39a95.55,95.55,0,0,0,14.3,8.84,152.48,152.48,0,0,0,40.35,13.73,256.09,256.09,0,0,0,44,4.39c14.14.21,28.26-.6,42.35-1.73a24.58,24.58,0,0,0,23.3-15.67,19.2,19.2,0,0,0,2.2-9.83l-.91-6.77a25.54,25.54,0,0,0-6.56-11.26l-5.16-4a25.43,25.43,0,0,0-12.87-3.49Z"/><path class="cls-2" d="M1050.58,1066.62c-.42,8.22-1.86,17.7-5.87,24.66a15.64,15.64,0,0,0-3.19-2.28c4.92-8.52,5.4-20.52,5.4-29.28v-17.64h22.5c-.6-1.5-1.26-3.24-1.92-4.56l3.9-1c.78,1.74,1.8,3.9,2.46,5.58h21.78v3.54h-44.88v6.54h10.14v-5.28h3.72v5.28h10.92v-5.28h3.78v5.28h14.76v14.46Zm.18-11.1v4.2c0,1.14,0,2.28-.06,3.54h10.2v-7.74Zm21.54,29.58a18.3,18.3,0,0,0,.12,3.24c-15,2.16-16.86,2.58-18.06,3.18a12.2,12.2,0,0,0-1.44-3.42,2.72,2.72,0,0,0,2-3v-17.22h3.78v6.24H1072v3.36h-13.32v9.42Zm-7.68-29.58v7.74h10.92v-7.74Zm25.62,32.28c2,0,2.4-.9,2.58-5.94a8.67,8.67,0,0,0,3.42,1.44c-.48,6.24-1.62,7.86-5.64,7.86h-9.36c-5.1,0-6.36-1.14-6.36-5.34V1068.3h3.84v5.88h15.48v3.36h-15.48v8.28c0,1.62.42,2,2.88,2Zm-10.92-32.28v7.74h11v-7.74Z"/><path class="cls-2" d="M1151.2,1086.18c0,2.76-.78,4.08-2.88,4.68s-6,.72-12.06.72a14.18,14.18,0,0,0-1.62-3.84c5,.12,9.6.12,10.92.06s1.68-.42,1.68-1.62v-7.92H1113.1a25.93,25.93,0,0,1-8.88,13.44,13.36,13.36,0,0,0-2.76-2.82c8.46-6.66,9.48-16,9.48-23.64v-10.92a58.88,58.88,0,0,1-5.1,4.14,14.53,14.53,0,0,0-2.94-2.82,52.86,52.86,0,0,0,17-19l4.32.78c-.54,1-1.14,1.92-1.74,2.94h14.94l.72-.24,2.64,1.74a48.84,48.84,0,0,1-5.58,8.58h16Zm-36.42-20.28a51.15,51.15,0,0,1-.78,8.82h14.58v-8.82Zm5.4-22.08a59.72,59.72,0,0,1-5.4,6.66h16a47.61,47.61,0,0,0,4.44-6.66Zm-5.4,18.6h13.8V1054h-13.8Zm32.46-8.4h-14.82v8.4h14.82Zm0,20.7v-8.82h-14.82v8.82Z"/><path class="cls-2" d="M1059.32,1617.2c-1.38-2.4-4.68-7.38-7.08-10.68a34.08,34.08,0,0,1-9.9,16.86,12.79,12.79,0,0,0-2.7-2.7c7.5-6.72,9.84-15.6,10.5-23.4h-10.2v-3.6h10.38c.06-.84.06-1.62.06-2.46v-9.6h-3.66a39,39,0,0,1-3.78,9.54,18.92,18.92,0,0,0-3.12-2.1c2.88-4.74,4.62-11.94,5.64-19.2l3.66.66c-.36,2.52-.84,5-1.38,7.44h13.86v3.66H1054v9.66c0,.78,0,1.56-.06,2.4h8.46v3.6h-8.64c-.12,1.56-.36,3.24-.6,4.86,2.1,2.64,7.44,10,8.82,11.82Zm35,1.62v3.72h-33.12v-3.72H1080a108.33,108.33,0,0,0,5.64-15l4,.84c-1.73,4.62-3.89,10.14-5.81,14.16Zm-.61-42.6h-30v-3.78h30Zm-2.46,25.26h-25.61v-18.54h25.61Zm-19.61,16.14a68.38,68.38,0,0,0-4.2-12.54l3.3-.9a64.08,64.08,0,0,1,4.44,12.48Zm15.78-31.08H1069.4v11.34h18.06Z"/><path class="cls-2" d="M1109.36,1587v3.24c0,10-.78,24.42-6.66,34.2a15.57,15.57,0,0,0-3.48-2c5.64-9.36,6.18-22.68,6.18-32.1v-17.52h44.46V1587Zm0-10.68v7.14h36.47v-7.14Zm37,43.68c2.7,0,3.18-1.14,3.47-6.78a13.27,13.27,0,0,0,3.67,1.56c-.6,7-1.8,8.88-6.9,8.88H1134c-6,0-7.68-1.32-7.68-6.3v-4.92l-15.72,2.46-.6-3.36,16.32-2.52v-5.88l-13.62,2.1-.66-3.24,14.28-2.28v-5.46c-4.26.78-8.7,1.38-12.78,1.92a13.55,13.55,0,0,0-1.14-2.94c10.14-1.32,22-3.48,28.26-5.88l3.42,2.64a110.17,110.17,0,0,1-13.86,3.54v5.64l17.22-2.64.6,3.24-17.82,2.76v5.88l21.47-3.36.61,3.3-22.08,3.48v5.46c0,2.22.66,2.7,4,2.7Z"/><path class="cls-2" d="M74.58,1193.62c-.42,8.22-1.86,17.7-5.88,24.66a15.3,15.3,0,0,0-3.18-2.28c4.92-8.52,5.4-20.52,5.4-29.28v-17.64h22.5c-.6-1.5-1.26-3.24-1.92-4.56l3.9-1c.78,1.74,1.8,3.9,2.46,5.58h21.78v3.54H74.76v6.54H84.9v-5.28h3.72v5.28H99.54v-5.28h3.78v5.28h14.76v14.46Zm.18-11.1v4.2c0,1.14,0,2.28-.06,3.54H84.9v-7.74ZM96.3,1212.1a18.3,18.3,0,0,0,.12,3.24c-15,2.16-16.86,2.58-18.06,3.18a12.2,12.2,0,0,0-1.44-3.42,2.72,2.72,0,0,0,2-3v-17.22h3.78v6.24H96v3.36H82.68v9.42Zm-7.68-29.58v7.74H99.54v-7.74Zm25.62,32.28c2,0,2.4-.9,2.58-5.94a8.67,8.67,0,0,0,3.42,1.44c-.48,6.24-1.62,7.86-5.64,7.86h-9.36c-5.1,0-6.36-1.14-6.36-5.34V1195.3h3.84v5.88H118.2v3.36H102.72v8.28c0,1.62.42,2,2.88,2Zm-10.92-32.28v7.74h11v-7.74Z"/><path class="cls-2" d="M150.78,1209.7c-8.52,2-17.46,4-24,5.34l-1-3.72c6.18-1.14,15.6-3.06,24.72-5Zm-.72-38.82h-23.4v-3.72h23.4Zm-1.44,21.9H128.28v-16h20.34Zm-16.44,14.46a41.62,41.62,0,0,0-2.34-11.28l3.24-.78a37.26,37.26,0,0,1,2.58,11.16ZM145,1180.18h-13.2v9.24H145Zm-4.74,26.58a85,85,0,0,0,2.7-12.12l3.9,1c-1.08,4.08-2.4,8.94-3.54,12.06Zm22.5,3.9c-3.18,3.12-8.46,6.12-13.08,7.86a22.91,22.91,0,0,0-2.7-2.7c4.68-1.56,9.84-4.56,12.24-7.14Zm-.72-34.44c.48-1.86,1-4,1.26-5.94H151.68v-3.54h28.74v3.54H167.64c-.54,2-1.14,4.14-1.74,5.94h12.54v31H153.6v-31Zm12.66,3.18h-17.4v6.18h17.4Zm0,9.12h-17.4v6.24h17.4Zm0,9.3h-17.4v6.24h17.4ZM171.3,1209a75.29,75.29,0,0,1,10.32,7.38l-3.24,2.16a66.38,66.38,0,0,0-10.14-7.62Z"/><path class="cls-2" d="M199.65,1211.17a144.13,144.13,0,0,0,42.08,34.94,118.68,118.68,0,0,0,48.46,14.26,107.78,107.78,0,0,0,28.11-1.92c1.42-.29.82-2.46-.6-2.17a106.92,106.92,0,0,1-48.77-1.7,126.28,126.28,0,0,1-45.6-23.3,150.07,150.07,0,0,1-22.09-21.7c-.93-1.11-2.51.48-1.59,1.59Z"/><path class="cls-2" d="M117.35,1583.08v47h-4.14v-4.14H72.6v4.56h-4v-47.4Zm-4.14,39v-35.16H100.92v19.38c0,1.86.24,2.58,1.56,2.58h6.18a14.9,14.9,0,0,0,3.36-.3c.06,1.08.18,2.46.29,3.42a14.17,14.17,0,0,1-3.53.24H102c-3.9,0-4.86-1.68-4.86-6.06v-19.26H88.32c-.3,16.5-1.86,25.38-12.36,30.36a12,12,0,0,0-2.4-3.12c9.42-4.32,10.62-12.12,10.86-27.24H72.6v35.16Z"/><path class="cls-2" d="M145.32,1627.48c0,2.22-.54,3.36-1.86,4-1.56.66-3.84.72-7.86.72a12.7,12.7,0,0,0-1.2-3.6c2.94.12,5.52.12,6.3.06s1.08-.3,1.08-1.14v-18.42c-2.64,1.92-5.22,3.66-7.68,5.46l-1.5-2.94c-.48,7.2-1.68,15.06-4.56,21.12a9.6,9.6,0,0,0-2.88-2.52c3.9-8.52,4.26-20.28,4.26-28.92V1580h15.9ZM133,1601.2c0,2.94-.06,6.3-.3,9.84,2.4-1.32,5.7-3.3,9.12-5.4v-6.18l-2.46,1.68a65.47,65.47,0,0,0-5.94-7.74l2.46-1.44a65.52,65.52,0,0,1,5.94,7.14v-15.36H133Zm45.11.06a45.26,45.26,0,0,1-11.39,20,36.89,36.89,0,0,0,13.74,7.8,16,16,0,0,0-2.59,3.42,40.05,40.05,0,0,1-14.09-8.52,47.39,47.39,0,0,1-14.4,8.46,10.92,10.92,0,0,0-2.28-3.48,42,42,0,0,0,14-7.74,49.44,49.44,0,0,1-9.42-17.16h-2.34v-3.66h12.18v-9.3H148.14v-3.72h13.38v-9.6h4v9.6h14.21v3.72H165.54v9.3h9.29l.79-.18Zm-22.61,2.82a42.92,42.92,0,0,0,8.46,14.58,38.62,38.62,0,0,0,9.24-14.58Z"/><path class="cls-2" d="M194.88,1646.85c13.78,19.05,32.05,34,51.48,47A442.45,442.45,0,0,0,304,1726.32a502.22,502.22,0,0,0,123.71,39A592.88,592.88,0,0,0,559.32,1774a651.63,651.63,0,0,0,131-19.28,636.56,636.56,0,0,0,123.4-45q7.21-3.51,14.32-7.23c1.28-.67.15-2.61-1.14-1.94a628,628,0,0,1-120.82,47.61,651.43,651.43,0,0,1-129.84,22.6,601.61,601.61,0,0,1-131.46-4.84c-42.43-6.38-84.21-17.64-123.74-34.4a451.56,451.56,0,0,1-57-29.07c-20.08-12.13-39.78-25.63-55.85-42.88a144.5,144.5,0,0,1-11.37-13.83c-.84-1.17-2.8,0-2,1.13Z"/><path class="cls-2" d="M213.38,1641.8a362.71,362.71,0,0,0,59.71,39.29,419,419,0,0,0,68.48,28.57,446.89,446.89,0,0,0,74.21,16.78c24.73,3.42,50.06,5.3,75,3.76,21.94-1.35,45.72-5.5,63.61-19.19a63.18,63.18,0,0,0,5.69-4.91c1-1-.55-2.6-1.59-1.59-16,15.54-39.32,20.89-60.82,22.91-24.31,2.28-49.13.77-73.32-2.13a446.35,446.35,0,0,1-73.8-15.22,421,421,0,0,1-68.51-26.9A367.83,367.83,0,0,1,222,1645.78q-3.56-2.74-7-5.58c-1.12-.9-2.72.68-1.59,1.6Z"/><path class="cls-2" d="M1004.51,1047c-24.58,5.9-49.24,11.69-74.24,15.59-24.7,3.85-49.85,5.84-74.83,3.83A206.83,206.83,0,0,1,814.3,1059a1.13,1.13,0,0,0-.6,2.17c24,7,49.22,9.12,74.18,8.07,25.38-1.06,50.53-5.22,75.36-10.44,14-3,28-6.25,41.87-9.59,1.41-.34.81-2.51-.6-2.17Z"/><path class="cls-2" d="M1022.56,1540.44c-4.68-9.09-9.65-18.1-15.74-26.34-5.82-7.87-12.75-15.21-21.37-20a44.22,44.22,0,0,0-15.31-5.22c-1.42-.2-2,2-.6,2.17,20,2.84,33.33,19.62,43,35.88,2.86,4.8,5.5,9.72,8.05,14.69.67,1.29,2.61.15,1.95-1.14Z"/></svg>