<svg id="Layer_1" data-name="Layer 1" xmlns="http://www.w3.org/2000/svg" viewBox="0 0 1242 2208"><defs><style>.cls-1{fill:#f6eabe;}.cls-2{fill:#999;}</style></defs><rect class="cls-1" width="1242" height="2208"/><path d="M571.83,231.75c-12.7,31.76-27.79,65.9-42.08,93.69H631.38v46.05H268.53V325.44H365.4c-4.77-27.79-15.88-66.7-28.59-96.07L379.69,219c13.5,31,27,73,31.76,99.25L386,325.44h96.07C498,293.68,516.25,250,524.19,219ZM593.27,751c0,27-5.56,41.29-25.41,50-18.26,8.73-50,9.53-94.48,9.53-3.18-15.09-11.12-34.94-18.26-48.44,34.93.8,65.1.8,73.84,0,9.53,0,12.7-2.38,12.7-11.9V640.65c-56.37,26.21-113.54,51.61-161.18,72.26l-18.26-42.08c46.84-15.09,112.75-41.29,179.44-66.7V461.21H361.43V575.55c0,73.84-7.15,173.88-47.64,245.34-7.94-8.73-27-23.82-38.12-29.38,35.73-64.31,39.7-150.86,39.7-216V419.92h277.9Zm23.82-540.71H283.61V165.05H435.27c-6.35-20.64-15.09-43.67-23-62.72l46.05-11.91c11.91,22.23,23,51.61,29.38,74.63H617.09ZM395.57,500.12c45.25,15.08,104,38.9,135.77,54L510.7,586.66c-31-16.67-90.52-41.28-135.78-58ZM913.25,767.69c27.79,0,33.35-10.32,36.52-65.1,11.12,8.73,31.76,15.88,46.05,19-6.35,70.67-21.43,90.52-79.4,90.52H765.57c-71.46,0-92.9-13.5-92.9-75.43V390.55H899.75v-77H672.67V94.39h51.61V158.7H982.33v44.47H724.28v68.28H950.57V432.63H724.28v51.61H949.77V520H724.28v52.4H945V608.1H724.28v54.79H953v35.73H724.28v38.11c0,25.4,6.35,31,46.05,31Z"/><path d="M511.92,1837.69a98.85,98.85,0,0,1-6.18,13.56v39.59H501.9v-33.35a61.73,61.73,0,0,1-5.46,7,32.86,32.86,0,0,0-2.28-3.9c5.58-5.87,10.8-14.87,14-24Zm34.14,28c-2.1,1.26-4.44,2.64-6.84,3.78,2,6.06,5.82,11.82,10.38,14.52a11.2,11.2,0,0,0-2.64,2.94c-4.62-3.18-8.46-9.42-10.68-16a27.45,27.45,0,0,1-2.76,1.2c2.58,6.84,1.86,14-1,16.68a6.91,6.91,0,0,1-5.22,1.92c-1.08,0-2.4-.06-3.78-.18a9.31,9.31,0,0,0-1-3.42,38.26,38.26,0,0,0,4.14.24,3.66,3.66,0,0,0,3.12-1.14c1.56-1.38,2.22-5.16,1.44-9.36-5.16,4.92-13.08,9.36-19.8,11.7a15.8,15.8,0,0,0-2.34-2.82c7.62-2.28,16.62-7.14,21.3-12.24a35.76,35.76,0,0,0-1.5-3.48,63.52,63.52,0,0,1-17.22,9.9,16.14,16.14,0,0,0-2.22-2.64c5.94-1.8,13.74-5.76,17.88-9.54a16.39,16.39,0,0,0-2.94-3.18,58.44,58.44,0,0,1-13.56,7.26,11.26,11.26,0,0,0-2.22-2.58,52.7,52.7,0,0,0,15.06-7.55H513.48v-9.36c-1.14,1-2.28,2-3.54,2.94a9.37,9.37,0,0,0-2.52-2.58,44.69,44.69,0,0,0,13.86-16.26l3.84.72c-.6,1.2-1.32,2.34-2,3.54h11.1l.72-.18,2.34,1.68a52.13,52.13,0,0,1-4.8,6.84h13.08v12.66H527.94c-.36.36-.78.66-1.2,1a21,21,0,0,1,5.64,6.84,110,110,0,0,0,10.92-6.42ZM521,1843.81a54.58,54.58,0,0,1-4.2,5.16h11.58a37.88,37.88,0,0,0,3.72-5.16Zm-3.9,14.69h10.5v-6.42h-10.5Zm24.72-6.42H531.18v6.42H541.8Z"/><path d="M609.36,1860.91v4.31H554.88v-4.31Z"/><path d="M630,1837.45a99.35,99.35,0,0,1-4.62,12.42V1891h-3.84v-33.6a56.4,56.4,0,0,1-5,7.56,24.14,24.14,0,0,0-2.22-3.9c5-6,9.36-15.29,12.12-24.65Zm.54,6.84h3.54v36.53h-3.54Zm15.84,31.37a43.11,43.11,0,0,1-8.76,12.12,25.39,25.39,0,0,0-3.12-2,34.4,34.4,0,0,0,8.4-11.1ZM664.5,1845a32.75,32.75,0,0,1-8.94,10.68,36.62,36.62,0,0,0,13.56,5.57,22.21,22.21,0,0,0-2.22,3.24,41.33,41.33,0,0,1-14.34-6.59,58.21,58.21,0,0,1-14.58,6.72,17.4,17.4,0,0,0-2.34-3.3,50.1,50.1,0,0,0,14-5.83,31.9,31.9,0,0,1-6.06-7.37,32.58,32.58,0,0,1-5.22,5.16,19.18,19.18,0,0,0-2.64-2.88,35.23,35.23,0,0,0,11.1-14l3.6,1a34.51,34.51,0,0,1-2.28,4.44h20.1V1845Zm-10.32,27.11v18.78h-3.72v-18.78h-13.2v-3.54h13.2v-6.36h3.72v6.36H667.8v3.54Zm-8.34-26.75a27,27,0,0,0,6.72,8.16,28.79,28.79,0,0,0,7.68-8.52h-14.1Zm15.06,29.21a49.87,49.87,0,0,1,7.92,10.56l-3.12,1.74a51.92,51.92,0,0,0-7.74-10.74Z"/><path d="M697.68,1846.75c-1,2.4-2.1,5-3.18,7.08h7.68v3.47H674.76v-3.47h7.32a35.43,35.43,0,0,0-2.16-7.26l3.24-.78a39.83,39.83,0,0,1,2.4,7.5l-1.92.54h7.26a46.89,46.89,0,0,0,3.18-8ZM699.3,1886c0,2-.42,3.12-1.92,3.78s-3.78.72-7.14.72a15.85,15.85,0,0,0-1.38-3.66c2.64.06,4.92.06,5.58,0s1-.18,1-.9v-8.28c-4.26,2-8.58,3.9-12.18,5.46l-1.38-3.18c3.54-1.14,8.52-3.12,13.56-5v-10.8H681.78v8.64c0,5.58-.54,13.14-3.6,18.54a13.16,13.16,0,0,0-2.88-2.22c2.7-4.86,3-11.4,3-16.32V1861h21Zm1.8-40.85H675.9v-3.42h11.46c-.48-1.56-1.14-3.3-1.74-4.74l3.48-.9a29.74,29.74,0,0,1,2.22,5.64h9.78ZM684.36,1867a110.15,110.15,0,0,1,10.26,4.08l-1.56,2.46a97.48,97.48,0,0,0-10.26-4.38Zm39.12,20.22c2.1,0,2.52-.78,2.76-4.92a9.94,9.94,0,0,0,3.48,1.44c-.48,5.34-1.62,6.84-6,6.84h-11.4c-5.4,0-7-1-7-5.7v-26.15h17.16v-5.83H705.3v-16.55h3.9v4.86h19.5v3.36H709.2v5.16h17.1v12.17H709.2v3.91h17v2.69h-17v4h16.68v2.7H709.2v4.14h17.28v2.7H709.2v2.88c0,1.92.48,2.34,3.48,2.34Z"/><path d="M740.88,1872c4.68-2,7.26-4.86,7.56-9.17a4,4,0,0,1-1.14.11c-2.34,0-4.26-1.31-4.26-4.07a4,4,0,0,1,4.32-4.08c3.18,0,4.86,2.58,4.86,6.66,0,6.41-4,11.21-10.08,13.43Z"/><path d="M155.76,1920c-1.2,2.46-2.52,5-3.9,7.31h29.22v30.54c0,2.52-.6,3.72-2.46,4.38s-5.16.66-10.38.66a16.63,16.63,0,0,0-1.32-3.9c4.14.18,7.8.12,8.82.12s1.44-.42,1.44-1.32v-6.66H150.9c-.84,4.38-2.58,8.88-6.12,12.24a12.44,12.44,0,0,0-2.76-3.12c5-4.86,5.52-11.52,5.52-17.22v-9.53a50.45,50.45,0,0,1-10.14,9.71,17.42,17.42,0,0,0-2.52-3.12c7.2-4.91,12.66-12.17,16.56-20.09H136.08v-3.78h17a57.7,57.7,0,0,0,2.76-7.8l4,.9a72.7,72.7,0,0,1-2.46,6.9h30.84V1920Zm21.42,27.65v-6.72H151.56V1943c0,1.44-.06,2.94-.18,4.56Zm0-16.73H151.56v6.53h25.62Z"/><path d="M219.54,1954.2c-8.52,2-17.46,4-24,5.34l-1-3.72c6.18-1.14,15.6-3.06,24.72-5Zm-.72-38.81h-23.4v-3.72h23.4Zm-1.44,21.9H197v-16h20.34Zm-16.44,14.45a41.62,41.62,0,0,0-2.34-11.28l3.24-.78a37.26,37.26,0,0,1,2.58,11.16Zm12.78-27h-13.2v9.23h13.2ZM209,1951.26a85,85,0,0,0,2.7-12.12l3.9,1c-1.08,4.07-2.4,8.93-3.54,12Zm22.5,3.9c-3.18,3.12-8.46,6.12-13.08,7.86a22.91,22.91,0,0,0-2.7-2.7c4.68-1.56,9.84-4.56,12.24-7.14Zm-.72-34.43c.48-1.86,1-4,1.26-5.94H220.44v-3.54h28.74v3.54H236.4c-.54,2-1.14,4.14-1.74,5.94H247.2v31H222.36v-31Zm12.66,3.18H226v6.17h17.4Zm0,9.11H226v6.24h17.4Zm0,9.3H226v6.24h17.4Zm-3.36,11.16a75.29,75.29,0,0,1,10.32,7.38l-3.24,2.16A66.38,66.38,0,0,0,237,1955.4Z"/><path d="M300.54,1958.64c4.26,0,4.92-1.14,5.34-8.16a12.94,12.94,0,0,0,3.66,1.44c-.72,8.22-2.1,10.32-8.94,10.32H282.78c-7.62,0-9.78-1.26-9.78-6.42v-17.76h-6.78v4.38c0,6.42-1.62,14.76-9.12,20.64a12.11,12.11,0,0,0-2.7-2.82c6.9-5.28,8.1-12.42,8.1-17.88v-4.32h-7.08v-3.72h27.3v3.72h-5.94v17.76c0,2.28,1,2.82,5.88,2.82Zm-39.66-37.31H257v-10h50.16v10h-4V1915H260.88Zm-1.38,1.25h20.94v3.73H259.5Zm42.42,27.84c0,2.16-.48,3.18-2,3.84s-4,.66-7.86.6a13.54,13.54,0,0,0-1.26-3.48c2.94.06,5.52.06,6.3,0s1.08-.24,1.08-1v-18.83H282.6v-3.66h15.54v-7.8h3.78v7.8h6.72v3.66h-6.72Zm-14-15.42a37.57,37.57,0,0,1,5.52,10.26l-3.36,1.5a38.68,38.68,0,0,0-5.28-10.43Z"/><path d="M335.52,1941.06l-3.66,3.12a93.63,93.63,0,0,0-13.32-13.38l3.42-3.11A118.53,118.53,0,0,1,335.52,1941.06Z"/><path d="M373.56,1915.87v7.92h22.26v34.31c0,2.28-.54,3.48-2.22,4.08s-4.68.66-8.94.66a14.79,14.79,0,0,0-1.38-3.6c3.42.12,6.54.12,7.5.06s1.14-.3,1.14-1.2v-30.6H373.56v35.1h-3.78v-35.1h-17.4v35.34h-3.84v-39h21.24v-7.92h-23.4V1912h51.54v3.9Zm-9.84,16.43c0,6.12.42,13.92,5.76,20a8.65,8.65,0,0,0-2.28,1.8A23.88,23.88,0,0,1,362,1942.8a27.16,27.16,0,0,1-6.24,11.4,14.22,14.22,0,0,0-2.34-1.8c4.08-3.9,6.24-9.9,7.2-17.15h-3.9v-3Zm21.12,0c0,6.18.48,13.92,6.24,19.92a11.7,11.7,0,0,0-2.4,1.74,23.65,23.65,0,0,1-5.58-11.64,27.62,27.62,0,0,1-6.18,11.46,15,15,0,0,0-2.34-1.8c4-3.84,6.06-9.72,7.08-16.73h-4.08v-3Z"/><path d="M454,1957.68c0,2.76-.78,4.08-2.88,4.68s-6,.72-12.06.72a14.18,14.18,0,0,0-1.62-3.84c5,.12,9.6.12,10.92.06s1.68-.42,1.68-1.62v-7.92H415.86A25.93,25.93,0,0,1,407,1963.2a13.61,13.61,0,0,0-2.76-2.82c8.46-6.66,9.48-16,9.48-23.63v-10.92a58.8,58.8,0,0,1-5.1,4.13,14.75,14.75,0,0,0-2.94-2.81,52.86,52.86,0,0,0,17-19l4.32.78c-.54,1-1.14,1.92-1.74,2.94h14.94l.72-.24,2.64,1.74a48.84,48.84,0,0,1-5.58,8.58h16Zm-36.42-20.28a51.06,51.06,0,0,1-.78,8.82h14.58v-8.82Zm5.4-22.07a59.72,59.72,0,0,1-5.4,6.66h16a47.61,47.61,0,0,0,4.44-6.66Zm-5.4,18.59h13.8v-8.39h-13.8Zm32.46-8.39H435.18v8.39H450Zm0,20.69v-8.82H435.18v8.82Z"/><path d="M485.52,1941.06l-3.66,3.12a93.63,93.63,0,0,0-13.32-13.38l3.42-3.11A118.53,118.53,0,0,1,485.52,1941.06Z"/><path d="M547.86,1955.52v3.9H496.14v-3.9h6.72v-39.71h-6.3V1912H546v3.78H506.94v8.76h33.9v20.51h-33.9v10.44Zm-40.92-27.11v12.89h29.82v-12.89Z"/><path d="M604.26,1914.67v46.49H600v-4.86H564.06v5.16H560v-46.79ZM600,1952.28v-33.59H564.06v33.59Z"/><path d="M635.52,1941.06l-3.66,3.12a93.63,93.63,0,0,0-13.32-13.38l3.42-3.11A118.53,118.53,0,0,1,635.52,1941.06Z"/><path d="M695.88,1943.64a97.41,97.41,0,0,1-13.44,8.1,42.76,42.76,0,0,0,17.64,7.26,14.08,14.08,0,0,0-2.46,3.48c-13.74-3-23.34-10.38-28.56-21.72h-9.78v16.62l16.8-4.08c-.12,1-.18,2.64-.18,3.48-17,4.44-20,5.22-21.3,6l-.3.18a16.11,16.11,0,0,0-1.86-3.84,4.87,4.87,0,0,0,2.94-4.26v-14.1h-10v-3.66H656v-26.33h36.9v3.42H660.06v5.52H691V1923h-30.9v5.34H691v3.3h-30.9v5.46h38.58v3.66H673.08a30.21,30.21,0,0,0,6.72,8.82,90.28,90.28,0,0,0,12.78-8.1Z"/><path d="M758.1,1929.67a68,68,0,0,1-9.84,11.21v16.32c0,3-.66,4.38-2.82,5.1s-6.06.72-12.18.66a16.43,16.43,0,0,0-1.5-4.14c4.86.18,9.48.12,10.74.06s1.8-.42,1.8-1.68v-12.9c-10.32,8.22-23,14.1-36.72,18.12a19.65,19.65,0,0,0-2.58-3.54c11.82-3.12,22.8-7.8,31.92-14-11.4.9-22.62,1.86-30.78,2.4l-.66-4c2.76-.12,5.94-.3,9.42-.48v-28.43h12.24a54.28,54.28,0,0,0,2.58-6.12l4.68.78a57.5,57.5,0,0,1-2.94,5.34h16.8v21a52.63,52.63,0,0,0,6.12-7.55Zm-39.3-11.82v5.88h25.5v-5.88Zm25.5,9H718.8v6h25.5Zm-25.5,15.66c7.14-.42,15.24-.9,23.28-1.44.72-.66,1.5-1.26,2.22-1.92v-3.23H718.8Z"/><path d="M785.52,1941.06l-3.66,3.12a93.63,93.63,0,0,0-13.32-13.38l3.42-3.11A118.53,118.53,0,0,1,785.52,1941.06Z"/><path d="M825.24,1908.85a49.76,49.76,0,0,1-1.8,7c4.86,8.76,14.64,15.12,26.46,17.63a17.63,17.63,0,0,0-2.52,3.42,41.12,41.12,0,0,1-8.94-3.17v24.35c0,2.28-.6,3.24-2.34,3.9-1.74.48-4.74.54-9.42.54a14.48,14.48,0,0,0-1.32-3.36c3.54.12,6.84.12,7.74.06s1.26-.3,1.26-1.14v-7.56c-8,1.68-16.38,3.3-22.62,4.38l-1.32-3.48c6.06-1,15.06-2.58,23.94-4.2V1935.3h-24.6v7.2c0,6.24-.9,14.82-5.7,20.82a13.15,13.15,0,0,0-3.3-2.46c4.5-5.46,5-12.9,5-18.42v-8a53.1,53.1,0,0,1-9.18,3.11,22.71,22.71,0,0,0-2.4-3.48c15.84-3.29,24.42-10.31,26.88-25.79Zm-10.14,13.26c-5.88,1.43-11.88,2.76-16.68,3.84l-1.2-3.54c4.44-.72,11-2.1,17.58-3.48Zm-1.74-3.9a72.19,72.19,0,0,0-14-5.52l1.5-2.76a75.36,75.36,0,0,1,13.92,5.22ZM834.9,1932a39.41,39.41,0,0,1-13.14-12.18,29.15,29.15,0,0,1-11.1,12.18Zm-21.78,6.89c6.48.54,14.76,2.1,19.32,3.84l-1.14,3.18c-4.38-1.8-12.78-3.54-19.2-4.26Zm32.52-12.65a135.33,135.33,0,0,0-17.34-4.32l1.32-3.12a150.12,150.12,0,0,1,17.28,4Zm.3-13.32a82.09,82.09,0,0,1-14.88,4.62l-1.26-2.94a113.45,113.45,0,0,0,14.7-4.62Z"/><path d="M896.94,1924.08a81.45,81.45,0,0,1-9.78,6.07h18.3v3.06h-18.3v1.62c0,1.67.36,2.21,2.22,2.21h12.9a39.11,39.11,0,0,0,5.4-.29c.12,1,.3,2.15.42,3a34.42,34.42,0,0,1-5.52.29h-13.5c-4.38,0-5.46-1.5-5.46-5.28v-2.88c-1.5.72-3.06,1.38-4.56,2-.48-.59-1.38-1.67-2.16-2.46v14.94h-19v-18.65c-.36.54-.72,1-1.08,1.43a7.63,7.63,0,0,0-2.58-2c4.44-5.65,7.14-13.14,8.46-18.72l3.42.42a47.83,47.83,0,0,1-1.44,4.86h6.84l.6-.24,2.28,1.5a58.75,58.75,0,0,1-4.2,8.7h6.72V1931c2.28-.84,4.5-1.81,6.72-2.76v-.85h1.68a64,64,0,0,0,5.82-3.3H878.34v-3.17H889.2v-4.62h-8.94v-3.12h8.94v-4.74h3.72v4.74h8.16v3.12h-8.16v4.62h2.88a48.52,48.52,0,0,0,9.54-9.3l3.3,1.2a54.81,54.81,0,0,1-7.74,8.1h8.46v3.17Zm-42.36,37.38c1.8-3.24,3.3-8.52,4.08-12.3l2.88,1c-.9,3.9-2.22,9.24-4,12.54Zm8.88-44.51a52.23,52.23,0,0,1-3.06,6.72h6.48a46.94,46.94,0,0,0,3-6.72Zm-2.4,10v6.49h4.74V1927Zm0,16.14h4.74v-6.54h-4.74Zm5,6.54a46.73,46.73,0,0,1,1,11.22l-2.88.36a53.27,53.27,0,0,0-.84-11.22Zm5-.72a39,39,0,0,1,3.06,10.2l-2.76.66a47.67,47.67,0,0,0-2.88-10.26Zm2.52-22h-4.92v6.49h4.92Zm0,9.6h-4.92v6.54h4.92Zm2.52,11.52a37.81,37.81,0,0,1,4.2,8.16l-2.52,1.2a42.76,42.76,0,0,0-4-8.46Zm6.42-5.46h23.58V1963H902.4v-2.34H886.14V1963h-3.6Zm3.6,3V1950H902.4v-4.38Zm16.26,11.94v-4.68H886.14v4.68Z"/><path d="M931.14,1926h10.74v3.72H931.14v1.62c2.22,2.39,8.7,10,10.14,11.87l-2.46,3.24a129,129,0,0,0-7.68-10.49v26.93h-4v-27.17c-3,7.07-7.2,14.21-11.1,18.41a28.3,28.3,0,0,0-2.22-3.66c4.56-4.62,9.6-13.08,12.36-20.75H915.24V1926h11.88v-10.32c-3.42.54-6.9,1-10.14,1.44a15.29,15.29,0,0,0-1.08-3.18c7.92-1.08,17.52-2.82,22.68-5l2.76,3.12a83.55,83.55,0,0,1-10.2,2.82Zm34.74-12.06V1960h-4v-4.56h-14v5H944v-46.49Zm-4,37.67v-33.83h-14v33.83Z"/><path d="M1025.88,1943.64a97.41,97.41,0,0,1-13.44,8.1,42.76,42.76,0,0,0,17.64,7.26,14.08,14.08,0,0,0-2.46,3.48c-13.74-3-23.34-10.38-28.56-21.72h-9.78v16.62l16.8-4.08c-.12,1-.18,2.64-.18,3.48-17,4.44-20,5.22-21.3,6l-.3.18a16.11,16.11,0,0,0-1.86-3.84,4.87,4.87,0,0,0,2.94-4.26v-14.1h-10v-3.66H986v-26.33h36.9v3.42H990.06v5.52H1021V1923h-30.9v5.34H1021v3.3h-30.9v5.46h38.58v3.66h-25.56a30.21,30.21,0,0,0,6.72,8.82,90.28,90.28,0,0,0,12.78-8.1Z"/><path d="M1044.3,1925.46v3.25c0,10-.78,24.41-6.66,34.19a15.57,15.57,0,0,0-3.48-2c5.64-9.36,6.18-22.68,6.18-32.1v-17.51h44.46v14.21Zm0-10.67v7.14h36.48v-7.14Zm37,43.67c2.7,0,3.18-1.14,3.48-6.78a13.21,13.21,0,0,0,3.66,1.56c-.6,7-1.8,8.88-6.9,8.88H1069c-6,0-7.68-1.32-7.68-6.3v-4.92l-15.72,2.46-.6-3.36,16.32-2.52v-5.88l-13.62,2.1-.66-3.24,14.28-2.28v-5.46c-4.26.78-8.7,1.38-12.78,1.92a13.47,13.47,0,0,0-1.14-2.93c10.14-1.33,22-3.48,28.26-5.88l3.42,2.63a106.83,106.83,0,0,1-13.86,3.54v5.64l17.22-2.64.6,3.25-17.82,2.75v5.88l21.48-3.36.6,3.3-22.08,3.48v5.46c0,2.22.66,2.7,4,2.7Z"/><path d="M1107.18,1926.67a9.06,9.06,0,1,1-9.06,9A9.09,9.09,0,0,1,1107.18,1926.67Zm0,15.23a6.18,6.18,0,0,0,0-12.36,6.18,6.18,0,0,0,0,12.36Z"/><path d="M172.68,1990.75c-1,2.4-2.1,5-3.18,7.08h7.68v3.47H149.76v-3.47h7.32a35.43,35.43,0,0,0-2.16-7.26l3.24-.78a39.83,39.83,0,0,1,2.4,7.5l-1.92.54h7.26a46.89,46.89,0,0,0,3.18-8ZM174.3,2030c0,2-.42,3.12-1.92,3.78s-3.78.72-7.14.72a15.85,15.85,0,0,0-1.38-3.66c2.64.06,4.92.06,5.58,0s1-.18,1-.9v-8.28c-4.26,2-8.58,3.9-12.18,5.46l-1.38-3.18c3.54-1.14,8.52-3.12,13.56-5v-10.8H156.78v8.64c0,5.58-.54,13.14-3.6,18.54a13.16,13.16,0,0,0-2.88-2.22c2.7-4.86,3-11.4,3-16.32V2005h21Zm1.8-40.85H150.9v-3.42h11.46c-.48-1.56-1.14-3.3-1.74-4.74l3.48-.9a29.74,29.74,0,0,1,2.22,5.64h9.78ZM159.36,2011a110.15,110.15,0,0,1,10.26,4.08l-1.56,2.46a97.48,97.48,0,0,0-10.26-4.38Zm39.12,20.22c2.1,0,2.52-.78,2.76-4.92a9.94,9.94,0,0,0,3.48,1.44c-.48,5.34-1.62,6.84-6,6.84h-11.4c-5.4,0-7-1-7-5.7v-26.15h17.16v-5.83H180.3v-16.55h3.9v4.86h19.5v3.36H184.2v5.16h17.1v12.17H184.2v3.91h17v2.69h-17v4h16.68v2.7H184.2v4.14h17.28v2.7H184.2v2.88c0,1.92.48,2.34,3.48,2.34Z"/><path d="M239.46,2029.62a70.7,70.7,0,0,0,7.38.36c2.1.06,14.76,0,17.58-.06a16.36,16.36,0,0,0-1.44,3.84H246.72c-12.3,0-19.92-1.92-24.72-10.38a31.55,31.55,0,0,1-9.48,11.7,19.84,19.84,0,0,0-3.06-2.82c6.3-4.14,10.2-10.92,11.82-19.86l4,.6a55.92,55.92,0,0,1-1.5,6.06c2.34,5.64,6.3,8.52,11.7,9.84v-18.54H210.72v-3.6H263.4v3.6H239.46v7.08h20v3.6h-20Zm17.22-27.17h-39.6v-19.56h39.6Zm-4-16.44H221v5.16h31.68Zm0,8.1H221v5.27h31.68Z"/><path d="M287,1981.63a84.89,84.89,0,0,1-6.18,12.9v40.31H277v-34.31a62.31,62.31,0,0,1-6.42,7.91,20.27,20.27,0,0,0-2.34-3.84c6-5.81,11.64-14.81,15.06-24Zm28.8,36.77h8.58v3.24h-8.58v9c0,2.22-.48,3.24-2.28,3.78s-4.74.54-9.36.54a14,14,0,0,0-1.26-3.42c3.84.12,6.9.12,7.86,0s1.2-.18,1.2-1v-8.94H284.4v-3.24h27.54v-4.2c-9.66.36-19,.66-26,.78l-.36-3.3c4.62,0,10.62-.12,17.16-.24v-3.84H288.54v-15.83h14.22v-3.6H286.08v-3.12h16.68v-4.26h3.84v4.26h17.1v3.12H306.6v3.6h14.64v15.83h-4.86a54.83,54.83,0,0,1,8.28,7.26l-2.88,1.92a27,27,0,0,0-2.64-2.82l-3.36.12Zm-21.9,3.48a47.2,47.2,0,0,1,7.74,7.8l-3.12,2.16a47.76,47.76,0,0,0-7.5-8Zm-1.62-23.51h10.5v-4h-10.5Zm10.5,6.59v-4.08h-10.5V2005Zm3.84-10.55v4h10.8v-4Zm10.8,6.47H306.6V2005h10.8Zm-10.8,10.5,9.42-.24c-1.26-1-2.52-2.1-3.78-3l1-.54h-6.6Z"/><path d="M350.58,1993.87H329.7v-3.3h20.88Zm-1.8,37.43H335.52v2.88h-3.6v-20.1h16.86Zm-.54-29.76H332v-3.17h16.26ZM332,2006.1h16.26v3.24H332Zm3.54,11.34v10.5h9.84v-10.5Zm4.38-27.59a40.4,40.4,0,0,0-3.78-8.1l3.3-1.2a39.79,39.79,0,0,1,4,8Zm24.24-7.5a55.52,55.52,0,0,1-11.76,17.15,28.57,28.57,0,0,0-3.06-2.75,43.3,43.3,0,0,0,11-15.54Zm15.12,48.05c1.32,0,1.56-.9,1.68-7.2a11.06,11.06,0,0,0,3.54,1.5c-.42,7.5-1.44,9.36-4.74,9.36h-5.1c-3.9,0-4.8-1.2-4.8-5.28V2014h-5.16c-1,9.48-3.48,16.92-12.3,21.18a12.57,12.57,0,0,0-2.4-3c7.92-3.54,10-10.14,10.86-18.18h-5.28v-17.45h23V2014h-4.86v14.76c0,1.38.24,1.62,1.5,1.62Zm-19.92-19.92h15.24v-10.31H359.34Zm21.84-11.33c-2.34-4.44-7.68-11.58-12.42-16.68l2.88-1.86c4.68,5.1,10.26,11.94,12.6,16.43Z"/><path d="M440.82,1991.05v27.77h-4.08v-3.48H418.92v19.56h-4.14v-19.56H397v3.78h-4v-28.07h21.72v-10.74h4.14v10.74Zm-26,20.33V1995H397v16.43Zm22,0V1995H418.92v16.43Z"/><path d="M466,1981c-1,2.94-2.1,6.3-3.18,8.88H473v38.75h-16.8v4.8h-3.66v-43.55h6.66a64.68,64.68,0,0,0,2.58-9.72Zm3.3,12.47H456.18v13.08h13.14Zm0,31.56v-14.88H456.18v14.88Zm33.06-33.17c-1,27.53-1.8,36.71-4.2,39.59a5.6,5.6,0,0,1-4.56,2.28,74.94,74.94,0,0,1-8.82-.12,9.42,9.42,0,0,0-1.32-3.9c3.9.36,7.5.36,8.82.36s1.92-.12,2.52-.9c2-2.1,2.94-11.34,3.72-35.7H482.82a55.33,55.33,0,0,1-5.64,10.68,36.22,36.22,0,0,0-3.36-2.22c4.08-5.33,7.32-13.61,9.18-21.89l3.84.84c-.78,3-1.62,6-2.64,8.88h18.18Zm-12.78,27a106.51,106.51,0,0,0-9.3-13.92l3.06-1.79a102.47,102.47,0,0,1,9.6,13.61Z"/><path d="M564.36,2004.91v4.31H509.88v-4.31Z"/><path d="M624.66,2030.34v3.36H589v-3.36h16.68v-5H592.38v-3.24h13.26v-4.62H593.1v-19h12.54v-4.32H590.46v-3.3h15.18v-4.38c-4.44.36-8.94.6-13.08.72a10.47,10.47,0,0,0-.84-2.88,56.71,56.71,0,0,1-7.74,2.4v10.44h7.8v3.71H584v4c1.8,1.57,7.08,7,8.28,8.4l-2.4,3.12a90.6,90.6,0,0,0-5.88-7.68v26.16H580.2v-27.47c-2.52,6.3-5.88,12.65-9.12,16.43a18.74,18.74,0,0,0-2-3.54c3.84-4.32,8.16-12.3,10.56-19.38h-9.42v-3.71h10v-9.6c-3.06.6-6.18,1.14-9.06,1.62a17,17,0,0,0-1.26-3.12c6.72-1.14,14.7-2.82,19.08-4.8l2.76,3-.06-.12c10-.42,22.56-1.44,29.28-3l2.46,3a129.87,129.87,0,0,1-13.92,2v4.68h14v3.3h-14v4.32h12.78v19H609.48v4.62h13.14v3.24H609.48v5Zm-28-23.76h9v-5h-9Zm9,7.8v-5.09h-9v5.09Zm3.84-12.84v5h9.18v-5Zm9.18,7.75h-9.18v5.09h9.18Z"/><path d="M650.7,1992a57.92,57.92,0,0,1-7.32,13c2.34,2.35,6.84,7,8,8.34l-2.4,3.24c-1.26-1.8-4.2-5.28-6.54-7.85V2035h-3.66v-24.48a52,52,0,0,1-7.74,6.78,12.36,12.36,0,0,0-1.86-3.78A50.23,50.23,0,0,0,646,1994.35H630.42v-3.66h17.52l.72-.18Zm-8.46-1.92a54.42,54.42,0,0,0-5.52-7.86l3.06-1.8a45.38,45.38,0,0,1,5.7,7.56Zm40-.18v30.95h-3.78v-2.4H669.3v16.44h-3.9v-16.44h-8.94v2.82H652.8v-31.37h12.6v-9.54h3.9v9.54Zm-25.74,3.66v8.76h8.94v-8.76Zm8.94,21.23v-8.88h-8.94v8.88Zm3.9-21.23v8.76h9.12v-8.76Zm9.12,21.23v-8.88H669.3v8.88Z"/><path d="M721.08,2017.08H689.64V2014h31.44Zm-17.4-24.17H691.86v-10.74h11.82Zm-11.34,2.34h25.92v16.07H692.34Zm41.16,5.4c1.68,13.55,4.92,25.19,11.4,31.19a16.61,16.61,0,0,0-2.88,3.24c-5.52-5.64-8.7-14.82-10.62-26-1.2,8.76-4.14,18.24-11,25.86a17.51,17.51,0,0,0-2.88-2.58v1.32h-3.84V2032h-16.5v2.82h-3.66v-15h24v12.24c8.76-9.24,10.44-21.6,10.8-31.43H719.1v-3.73h9.24v-16.43h3.84v16.43h11.7v3.73Zm-32.94-15.78h-5.64v5.4h5.64Zm-4.62,17h7.44V1998h-7.44Zm0,6.65h7.44v-4h-7.44Zm17.7,20.4v-6.06h-16.5V2029Zm5-36H706.44v-10.74h12.24Zm-4.14,5.09h-7.86v3.91h7.86Zm0,6.6h-7.86v4h7.86Zm1-19.73h-6v5.4h6Zm24.72,8.58a40.78,40.78,0,0,0-5.7-9.72l3.12-1.32a38.37,38.37,0,0,1,5.88,9.6Z"/><path d="M755.88,2016c4.68-2,7.26-4.86,7.56-9.17a4,4,0,0,1-1.14.11c-2.34,0-4.26-1.31-4.26-4.07a4,4,0,0,1,4.32-4.08c3.18,0,4.86,2.58,4.86,6.66,0,6.41-4,11.21-10.08,13.43Z"/><path d="M804.42,2030.46c0,2.16-.42,3.12-1.92,3.72s-4.14.66-7.92.66a12,12,0,0,0-1.26-3.36c2.94.12,5.52.06,6.3,0s1-.24,1-1v-9.84c-4.2,2.4-8.4,4.8-11.88,6.72l-1.56-3.42c3.42-1.44,8.46-4,13.44-6.54V2005h-13v11.52c0,5.82-.66,13.44-4.8,18.6a11,11,0,0,0-2.76-2.76c3.48-4.56,3.84-10.8,3.84-15.9v-14.93h20.52Zm-4-45.83a80.34,80.34,0,0,1,8,13.2l-3.42,1.62a43.11,43.11,0,0,0-2-4.14c-16.44,1.38-18.48,1.61-19.8,2.15-.24-.83-.84-2.81-1.26-3.77.9-.19,1.92-1.08,3.12-2.4a61,61,0,0,0,7.74-11l4,1.32a74.45,74.45,0,0,1-8.58,11.4l13.08-1c-1.32-2.1-2.64-4.32-4-6.12Zm-10,24.12a88.43,88.43,0,0,1,9.9,6.23l-2.1,2.34a93.21,93.21,0,0,0-9.84-6.54Zm26-2.65c-4.92,0-6.36-1.73-6.36-6.47v-19.26H814v8.46h16.44v3.6H814v7.26c0,2.15.54,2.94,2.52,2.94h11.4a31,31,0,0,0,4.92-.37c.06,1.08.24,2.58.36,3.49a27.05,27.05,0,0,1-5.16.35Zm11.4,24.78c2.58,0,3.06-1.14,3.3-7.74a11.77,11.77,0,0,0,3.6,1.5c-.54,7.8-1.74,9.78-6.54,9.78h-11c-5.58,0-7.08-1.2-7.08-5.82v-20.39H814v7.31h17.1v3.6H814v9.42c0,2,.6,2.34,3.54,2.34Z"/><path d="M893.82,2017v3.72H840.06V2017H845l-1-32.09a80.47,80.47,0,0,0,10.26-3.78l1.92,3.42a80,80,0,0,1-8.58,2.7l.24,7.38h7V1998h-6.9l.3,7.87h7v3.35h-6.9l.24,7.8h8.22v-33.59H877.2V2017h8.4c.12-2.28.24-4.85.36-7.62h-7V2006h7.14c.06-2.58.18-5.21.24-7.85h-7.14v-3.36h7.2c.06-2.88.12-5.76.12-8.4h-7.56v-3.36H890.1c-.12,10.5-.54,24.84-1,34Zm-33,7.5A94.88,94.88,0,0,1,843,2034.9a21,21,0,0,0-2.4-3c5.7-2.4,13-6.48,16.68-9.78Zm-1-7.5h14.28v-30.35H859.8Zm12.24-26v2.82h-10.5v-2.82Zm-9.66,7.08h9.24v13.79h-9.24Zm2.22,11.09h4.74v-8.39H864.6Zm10.56,12.48a138.68,138.68,0,0,1,17.4,9.78l-2.58,3a138,138,0,0,0-17-10Z"/><path d="M953.58,2022.48h-15.3a79.09,79.09,0,0,1,12.36,11l-3.42,1.86a37.67,37.67,0,0,0-3.12-3.42c-31.56,1.5-34.5,1.62-36.48,2.34a36.14,36.14,0,0,0-1.26-3.9,8.06,8.06,0,0,0,3.36-1.8,57.49,57.49,0,0,0,6.54-6.06H900.42v-3.24h53.16Zm-48.06-21.3h-3.6v-12.47H925v-3.54H905.28v-3.06h43.44v3.06h-19.8v3.54H952.2v12.47h-3.78v-9.6h-19.5v16.92H925v-16.92h-19.5Zm.78,5.16c3.84-1.2,9.54-3.3,15.18-5.27l.48,2.81c-4.92,2-9.9,4.08-14.1,5.76Zm40.26,8.34H907.2v-3.18h39.36Zm-36.78-21.47a100.1,100.1,0,0,1,11.88,4.37l-1.56,2.59a86.6,86.6,0,0,0-11.82-4.68Zm31.08,35.69a65.66,65.66,0,0,0-6.24-5l2.64-1.38h-15.6a86.8,86.8,0,0,1-8.4,7.56Zm5.4-32.94a73.94,73.94,0,0,1-13,4.15l-1.56-2.28a114.65,114.65,0,0,0,12.6-4.5Zm.66,13.5a105.23,105.23,0,0,0-15.06-5.88l1.44-2.45a105.67,105.67,0,0,1,14.94,5.45Z"/><path d="M979.92,1984.27c-2,4.86-4.44,10.62-6.72,15.42,5,5,6.12,9.29,6.18,13.13,0,3.06-.78,5.64-2.46,6.84a6.93,6.93,0,0,1-3.24,1.08,20.74,20.74,0,0,1-4.32.06,8.67,8.67,0,0,0-1.14-3.6,15.59,15.59,0,0,0,4,.12,3.35,3.35,0,0,0,2.1-.6c1.08-.6,1.44-2.34,1.38-4.26,0-3.36-1.32-7.5-6.3-12.35a139,139,0,0,0,5.58-13.62h-9.48V2035h-3.6v-52.13h14.76l.66-.18Zm31.08,2.4a31.86,31.86,0,0,1-10.08,11.64,47.85,47.85,0,0,0,13.92,5.1,15.31,15.31,0,0,0-2.4,3.23,46.3,46.3,0,0,1-14.7-6.23,62.33,62.33,0,0,1-16.38,6.53,15,15,0,0,0-2-3.18,57.55,57.55,0,0,0,15.3-5.63,33,33,0,0,1-6-6.3,45.91,45.91,0,0,1-6.12,5.09,16,16,0,0,0-2.64-2.63A40.82,40.82,0,0,0,993,1980.37l4,.72c-.9,1.44-1.8,2.94-2.94,4.44h13.86l.6-.18Zm-10.32,35.39h13.5v3.54h-13.5V2035h-3.84v-9.42H981.06a113.94,113.94,0,0,0,3.54-12.12h-2.4v-3.54h14.64v-4.73h3.84v4.73h11.94v3.54h-11.94Zm-3.84,0v-8.58h-8.58c-.72,2.76-1.56,5.88-2.34,8.58ZM991,1989.43a28.16,28.16,0,0,0,6.78,6.84,28.86,28.86,0,0,0,7.86-7.56h-14Z"/><path d="M1048.92,1988.11v8.28h22v33.23c0,2.46-.6,3.6-2.4,4.26s-5.22.66-10.08.66a15.45,15.45,0,0,0-1.44-3.66c4,.12,7.62.06,8.64.06s1.38-.36,1.38-1.32v-29.45h-18.06v34.13H1045v-34.13h-17.88v34.73h-3.84v-38.51H1045v-8.28h-24.66v-4h53.28v4Zm-20.46,38c3.3-2,8.28-5.46,13.08-8.88l1.38,2.82c-4.26,3.3-8.7,6.66-12.3,9.36Zm3.42-22.5a103.62,103.62,0,0,1,10.92,8.05l-2.4,2.63a108.2,108.2,0,0,0-10.8-8.46Zm30.66,24.72a105.4,105.4,0,0,0-11.7-8.94l2.46-2a118.16,118.16,0,0,1,11.76,8.52Zm2.7-21.89a95.84,95.84,0,0,1-12.36,7.91l-1.86-2.4a90.35,90.35,0,0,0,11.88-8.28Z"/><path d="M1092.18,1998.67a9.06,9.06,0,1,1-9.06,9A9.09,9.09,0,0,1,1092.18,1998.67Zm0,15.23a6.18,6.18,0,0,0,0-12.36,6.18,6.18,0,0,0,0,12.36Z"/><rect class="cls-2" x="1113" y="401" width="65" height="126" rx="12"/><path class="cls-1" d="M1132.7,430.82c1.25,1.6,4.9,6.7,5.7,8.05l-2,2.45c-.7-1.5-2.35-4.4-3.75-6.65V461h-3.15V436.57c-1.5,5.05-3.5,9.9-5.55,12.85a14.83,14.83,0,0,0-1.75-3.1c2.9-4,5.8-11.5,7.2-18h-6.2v-3.15h6.3v-9.65h3.15v9.65h5.45v3.15h-5.45Zm19.1.7a19.47,19.47,0,0,0,.45,2.65c-10.15,2.7-11.6,3.15-12.5,3.75a12.13,12.13,0,0,0-1.1-3.2c.7-.2,1.55-.5,1.55-2.2v-16.7h3.25v6.5h8.35v2.9h-8.35v8.3Zm2.35,5.5-2,3.75h12.65V461h-3.4v-1.75h-17v2h-3.3V440.77h7.9c.55-1.5,1.2-3.25,1.55-4.6Zm7.3,6.5h-17v5.05h17Zm0,13v-5.3h-17v5.3Zm2.25-22.4c1.25,0,1.5-.75,1.65-5.25a9.16,9.16,0,0,0,2.85,1.25c-.3,5.45-1.2,6.95-4.15,6.95h-5.85c-3.65,0-4.55-.95-4.55-4.45V415.87h3.25v6.5h10.2v2.9h-10.2v7.35c0,1.3.25,1.5,1.65,1.5Z"/><path class="cls-1" d="M1167.55,490.87v2.5H1123.4v-2.5h20.25v-3.2H1126.8v-2.3h16.85v-3H1128.2v-2.25h15.45v-3.2H1123.5v-2.5h20.15v-3.05H1128.8V469h14.85v-3.55h3.25V469h14.45v5.4h6.15v2.5h-6.15v5.45H1146.9v3h17.3v2.3h-17.3v3.2Zm-37.75,5h31.75v15.25h-3.25v-1.6H1133v1.7h-3.2Zm3.2,2.4v3.2h25.3v-3.2Zm25.3,8.85v-3.4H1133v3.4Zm-11.4-32.7h11.15v-3.05H1146.9Zm0,5.7h11.15v-3.2H1146.9Z"/><rect class="cls-2" x="1159" y="1218" width="65" height="319" rx="12"/><path class="cls-1" d="M1204.05,1256.79a27.61,27.61,0,0,0,11.5,8.1,11.65,11.65,0,0,0-2.15,2.55,30.77,30.77,0,0,1-12.8-10.65h-15.95a34.39,34.39,0,0,1-13,11.3,11.43,11.43,0,0,0-2.15-2.55,30.39,30.39,0,0,0,11.6-8.75H1170v-2.85h10v-16.15h-7.7V1235h7.7v-5h3.3v5h18.55v-5h3.35v5h7.65v2.8h-7.65v16.15h9.8v2.85Zm-10,14.5h17.3v2.85H1173.8v-2.85h16.9v-5.6h-10.45v-2.8h10.45v-4.4h3.35v4.4h10.65v2.8h-10.65Zm-10.8-33.5v3.6h18.55v-3.6Zm0,9.8h18.55v-3.65h-18.55Zm0,6.35h18.55v-3.8h-18.55Z"/><path class="cls-1" d="M1188.25,1298.54s0,1.15,0,1.55c-.6,15.85-1.2,21.2-2.6,23a3.71,3.71,0,0,1-2.8,1.45,32.65,32.65,0,0,1-4.45,0,9.25,9.25,0,0,0-.85-3c1.75.15,3.2.15,3.9.15a1.42,1.42,0,0,0,1.45-.65c1-1.2,1.6-6,2.15-19.35h-6.8c-.55,10-2,18.25-6.45,23.65a9.53,9.53,0,0,0-2.55-2.35c5.45-6.45,5.9-17.85,6.1-31.55h-5.2v-3.1h20.1v3.1h-11.65c0,2.45-.1,4.85-.2,7.15Zm-7.9-10.45a33.47,33.47,0,0,0-4.25-7.15l2.9-1.15a31.92,31.92,0,0,1,4.4,7Zm23.85-7.45a15.26,15.26,0,0,1-.85,2.55c2.65,5.45,7.7,11.35,12.45,14a13,13,0,0,0-2.45,2.75c-4.25-2.7-8.5-8-11.4-13.3a32.61,32.61,0,0,1-11,13.6,12.79,12.79,0,0,0-2.35-2.65c5.85-3.6,10.35-10.2,12.5-17.85Zm-8.3,32.45a74,74,0,0,1,13.6,8.25l-2.25,2.9c-2.85-2.6-8.75-6.3-13.4-8.65Zm9.5-4.85a66.22,66.22,0,0,0-8.6-6.85l2.15-2.2a67.46,67.46,0,0,1,8.75,6.55Z"/><path class="cls-1" d="M1184.15,1367.64v7.9H1181v-7.9h-11.4v-3H1181v-3.75h-9.3v-16.75h22v16.75h-9.6v3.75h11.3v3Zm-2.75-26.25h-10.1v-9.85h10.1Zm-2.6-7.45h-4.9v5h4.9Zm-4.25,17.3h6.6v-4.45h-6.6Zm0,7h6.6v-4.5h-6.6Zm19.65-16.85h-10.3v-9.85h10.3Zm-3.35,5.4H1184v4.45h6.85Zm0,7H1184v4.5h6.85Zm.7-19.8h-5.1v5h5.1Zm22,16a50.63,50.63,0,0,1-7.2,13.95c1.35,4.9,3,7.85,5.1,8,1.1,0,1.85-2.75,2.2-7.8a12.91,12.91,0,0,0,2.55,1.75c-1,7.7-2.75,10-4.7,9.9-3.35-.15-5.8-3.35-7.6-8.75a35.7,35.7,0,0,1-10,8.15,10.74,10.74,0,0,0-2.4-2.35,33.46,33.46,0,0,0,11.4-9.3,107.54,107.54,0,0,1-2.45-16l-5.6.7-.45-3,5.75-.7c-.35-4.4-.55-9.1-.75-14h3.15c.15,4.75.35,9.35.7,13.6l11.9-1.45.4,3-12,1.5a124,124,0,0,0,1.85,13,46.84,46.84,0,0,0,5.6-11.6Zm-1.75-9.15a32.82,32.82,0,0,0-6-8.45l2.5-1.4a36.73,36.73,0,0,1,6.1,8.25Z"/><path class="cls-1" d="M1213.15,1382.29v43.35h-3.3v-2.35H1175v2.35h-3.15v-43.35Zm-3.3,38v-34.9H1175v34.9Zm-17.2-7.9c-5.25,1.05-10.65,2.15-14.75,3l-.55-2.55c3.9-.65,9.5-1.7,15.2-2.75Zm12.3-14.55a38.63,38.63,0,0,1-5.6,12.4c1.15,2.9,2.6,4.75,4.4,5,.75.1,1.3-2,1.6-5.25a9.83,9.83,0,0,0,2.2,1.45c-.65,5.35-2.15,7.3-4.65,6.45-2.3-.45-4.1-2.3-5.5-5.15a31.26,31.26,0,0,1-6.85,6,15.66,15.66,0,0,0-2-2.1,26.23,26.23,0,0,0,7.7-6.75,70.89,70.89,0,0,1-2.8-15.1h-15.6v-2.55h15.35c-.15-1.8-.3-3.65-.4-5.55h2.9c.1,1.85.2,3.75.35,5.55h11.15v2.55h-11a73.53,73.53,0,0,0,2,12.2,35.88,35.88,0,0,0,4-9.7Zm-14.15.3v9.7h-11.1v-9.7Zm-2.5,2.15h-6.2v5.35h6.2Zm15.9-8.85a22.72,22.72,0,0,0-5.5-3.55l1.6-1.65a20.21,20.21,0,0,1,5.5,3.4Z"/><path class="cls-1" d="M1207,1442.09a51.83,51.83,0,0,1-12,19.6,49.94,49.94,0,0,0,20.5,10.5,16.79,16.79,0,0,0-2.25,3,50.92,50.92,0,0,1-20.75-11.1c-5.65,5-12.55,8.6-21,11.3a15.53,15.53,0,0,0-2-3.05c8.35-2.45,15.1-5.9,20.6-10.6a57.05,57.05,0,0,1-12.2-19.65h-7.75v-3.25h44.75v3.25Zm-25.75,0a52.13,52.13,0,0,0,11.3,17.3,47.46,47.46,0,0,0,10.7-17.3Zm11.25-3.55a38.13,38.13,0,0,0-3.8-7.8l3.4-1a39,39,0,0,1,4,7.65Z"/><path class="cls-1" d="M1213.8,1510h-19.65v11.35c0,2.05-.55,3-2.2,3.55s-4.15.6-8.35.6a12.78,12.78,0,0,0-1.45-3.3c3.4.1,6.55.1,7.4,0s1.15-.25,1.15-1V1510h-19.65v-3.15h19.65v-3.2a44.78,44.78,0,0,0,9.2-6.15h-20.7v-3.15h24l.75-.2,2.25,1.7a51.88,51.88,0,0,1-12.1,9v2h19.65Zm-38.85-14.7h-3.25v-10h19.8a28.4,28.4,0,0,0-2.7-4.6l3.2-1a29.73,29.73,0,0,1,3.4,5.65h17.8v10h-3.4v-6.85H1175Z"/><path d="M437.11,1033a259.13,259.13,0,0,1,.12,59.31,19.22,19.22,0,0,0,2.2,9.83,26.18,26.18,0,0,0,23.3,15.67l6.78-.91a25.45,25.45,0,0,0,11.25-6.56l4-5.16a25.27,25.27,0,0,0,3.48-12.87,259.13,259.13,0,0,0-.12-59.31,19.16,19.16,0,0,0-2.2-9.82,22.91,22.91,0,0,0-13.47-13.48,19.22,19.22,0,0,0-9.83-2.2l-6.78.91a25.45,25.45,0,0,0-11.25,6.56l-4,5.16a25.52,25.52,0,0,0-3.48,12.87Z"/><path d="M350,1116.84c15.2.94,30.31,2.76,45.45,4.38,14.8,1.58,29.63,2.73,44.52,3.23a640,640,0,0,0,91-3.24c16.38-1.8,32.83-4,48.92-7.71a28.62,28.62,0,0,0,15.24-11.72,19,19,0,0,0,3-9.48,19.34,19.34,0,0,0-.45-10.17l-2.57-6.09a25.71,25.71,0,0,0-9.15-9.15l-6.09-2.57a25.78,25.78,0,0,0-13.56,0c-10.07,2.31-20.27,4-30.5,5.39l6.78-.92a601.89,601.89,0,0,1-75.18,5,645.73,645.73,0,0,1-75.12-3.9c-14.08-1.54-28.16-3.16-42.3-4a19.22,19.22,0,0,0-9.83,2.2,23,23,0,0,0-13.48,13.47,19.32,19.32,0,0,0-2.19,9.83l.91,6.78a25.45,25.45,0,0,0,6.56,11.25l5.16,4a25.36,25.36,0,0,0,12.87,3.48Z"/><path d="M469.71,1214.15c-7.12-19.84-14.51-39.63-23.52-58.71A235.4,235.4,0,0,0,412,1102.23a155.43,155.43,0,0,0-11.13-11.68,207.93,207.93,0,0,0-17.77-14.66,19,19,0,0,0-9.48-3,19.34,19.34,0,0,0-10.17.45A28.62,28.62,0,0,0,348.22,1085l-2.57,6.09a25.58,25.58,0,0,0,0,13.56l2.57,6.09a25.71,25.71,0,0,0,9.15,9.15l1.3,1-5.16-4a157,157,0,0,1,27.84,28l-4-5.16a225,225,0,0,1,25.28,42.46q2.94,6.32,5.64,12.74l-2.57-6.1c5.38,12.78,10.13,25.8,14.81,38.84a24.57,24.57,0,0,0,21.2,18.27,19.34,19.34,0,0,0,10.17-.46L458,1243a25.71,25.71,0,0,0,9.15-9.15l2.57-6.09a25.78,25.78,0,0,0,0-13.56Z"/><path d="M428.43,1269.42c-17.43,12.67-33.84,26.63-48.31,42.63a345,345,0,0,0-36.78,49.1,492,492,0,0,0-26.61,49.65c-10.29,21.8-19.84,44-28.24,66.63-7.33,19.75-13.84,40-17.85,60.67q-.67,3.45-1.23,6.9a19.34,19.34,0,0,0-.45,10.17,18.92,18.92,0,0,0,3,9.48,28.49,28.49,0,0,0,15.24,11.72l6.78.91a25.32,25.32,0,0,0,12.87-3.48l5.16-4a25.54,25.54,0,0,0,6.56-11.26c4.08-25.26,12.25-49.84,21.39-73.67q4.23-11.06,8.85-22l-2.57,6.09c6.75-16,13.93-31.8,21.73-47.29A427.7,427.7,0,0,1,391.15,1381q7.13-11,15.12-21.37l-4,5.16a278.29,278.29,0,0,1,37.5-39.76q6.15-5.34,12.6-10.31l-5.16,4q3.43-2.65,6.94-5.2a24.58,24.58,0,0,0,12.18-25.41,18.9,18.9,0,0,0-3-9.48c-3.51-5.44-8.73-10.24-15.24-11.72l-6.78-.91a25.42,25.42,0,0,0-12.87,3.48Z"/><path d="M471.63,1307.66a130.26,130.26,0,0,1,20,12.67l-5.16-4A130.52,130.52,0,0,1,509,1339l-4-5.16a166.2,166.2,0,0,1,21.18,36.94l-2.57-6.09c8.51,20.25,14,41.77,18.28,63.28q2.19,11.12,3.72,22.34l-.91-6.78c3.16,23.68,3.86,47.7.73,71.42l.91-6.78a204.58,204.58,0,0,1-14,51.82l2.57-6.09a186.4,186.4,0,0,1-24.18,41l4-5.16A210,210,0,0,1,477.32,1627l5.16-4a218.92,218.92,0,0,1-48.3,28.09l6.09-2.57a224.32,224.32,0,0,1-41.88,12.87c-6,1.23-12.21,6.56-15.24,11.72-3.2,5.47-4.55,13.52-2.57,19.65s5.82,12.12,11.72,15.24l6.09,2.57a25.58,25.58,0,0,0,13.56,0,249.88,249.88,0,0,0,54.76-18.43,218.36,218.36,0,0,0,41.51-25.1c14-10.72,27-22.26,38.27-35.83,10.71-12.87,20.42-26.6,27.92-41.6a216.83,216.83,0,0,0,19.42-57.19,270.7,270.7,0,0,0,4.23-64.67,396.16,396.16,0,0,0-9.4-64.81,326.43,326.43,0,0,0-13.56-46.16c-6.29-16.16-13.66-32-24-46a170.47,170.47,0,0,0-18.74-22,159.09,159.09,0,0,0-24-18.87c-3.55-2.29-7.23-4.38-11-6.32-6.08-3.13-12.92-4.42-19.65-2.57-5.91,1.63-12.32,6.2-15.24,11.72-3.12,5.92-4.69,13.09-2.57,19.65,2,6.13,5.82,12.2,11.72,15.24Z"/><path d="M379.19,1415.12a243.53,243.53,0,0,1,25,16.91l-5.16-4A263.69,263.69,0,0,1,436,1463q4.85,5.55,9.39,11.34a28.44,28.44,0,0,0,18,7.47,19.22,19.22,0,0,0,9.83-2.2,19,19,0,0,0,8.2-5.27l4-5.16a25.32,25.32,0,0,0,3.48-12.87l-.91-6.78a25.45,25.45,0,0,0-6.56-11.25,285.47,285.47,0,0,0-59.19-55.91q-8.43-6-17.34-11.26a19,19,0,0,0-9.48-3,22.94,22.94,0,0,0-18.84,5,19.43,19.43,0,0,0-6.57,7.16l-2.57,6.09a25.78,25.78,0,0,0,0,13.56L370,1406a25.71,25.71,0,0,0,9.15,9.15Z"/><path d="M320,1539.79q33.56,14.4,66.21,30.78,9.27,4.65,18.45,9.45a18.92,18.92,0,0,0,9.48,3,26.22,26.22,0,0,0,25.41-12.17l2.57-6.09a25.78,25.78,0,0,0,0-13.56l-2.57-6.09a25.71,25.71,0,0,0-9.15-9.15Q398,1519,364.59,1504q-9.39-4.21-18.84-8.27a19,19,0,0,0-9.48-3,22.94,22.94,0,0,0-18.84,5,19.43,19.43,0,0,0-6.57,7.16l-2.57,6.09a25.78,25.78,0,0,0,0,13.56l2.57,6.09a25.71,25.71,0,0,0,9.15,9.15Z"/><path d="M546.37,1326.52c63.88-27.4,122.07-67.12,176.07-110.52,12-9.62,23.66-19.61,35.8-29l-5.16,4c13.79-10.63,28.34-20,44.4-26.85l-6.09,2.57a198.77,198.77,0,0,1,49.85-13.62l-6.78.91a125.09,125.09,0,0,1,32.23-.29l-6.78-.91a76.35,76.35,0,0,1,18.8,4.89l-6.09-2.57a83.85,83.85,0,0,1,17.53,10.51l-5.16-4a65.68,65.68,0,0,1,11.85,11.65l-4-5.16a58.59,58.59,0,0,1,7,12.15l-2.57-6.09c3.61,8.58,5.42,17.8,6.73,27l-.92-6.78a72.66,72.66,0,0,1,0,18.81l.91-6.78a83.86,83.86,0,0,1-5.74,20.61l2.57-6.09A109,109,0,0,1,887,1244.3l4-5.16a126.06,126.06,0,0,1-22.48,22.57l5.17-4a117.79,117.79,0,0,1-25.5,14.62l6.09-2.57c-12.55,5.25-25.76,8.43-39,11.47-12.2,2.8-24.33,5.88-36.43,9.08-25.75,6.81-48.39,20.4-68.78,37.38-20.69,17.23-35.42,42.07-45.58,66.74-11.48,27.86-13.07,58.81-13.88,88.58-.68,24.77-1.87,49.53.13,74.27a319.09,319.09,0,0,0,5.81,41A206.15,206.15,0,0,0,668.9,1636a134.66,134.66,0,0,0,49.27,59.41c13.59,9,29.37,15.13,45,19.57a299.28,299.28,0,0,0,44.08,8.69,202.39,202.39,0,0,0,77.6-4.83c29.22-7.78,55.3-22.84,78.59-41.85,5.59-4.56,10.93-9.4,16.09-14.44a26.22,26.22,0,0,0,7.47-18c0-6.25-2.78-13.73-7.47-18-10.27-9.43-25.87-10-36.06,0a241.1,241.1,0,0,1-20.73,18.12l5.16-4a188.9,188.9,0,0,1-41,24.16l6.1-2.57a169.48,169.48,0,0,1-42.1,11.52l6.78-.91a194,194,0,0,1-51.29-.27l6.78.91c-19.09-2.59-38.36-7-56.16-14.48l6.09,2.57A115,115,0,0,1,737.86,1647l5.16,4a105.42,105.42,0,0,1-18.19-18.31l4,5.16a127.06,127.06,0,0,1-15.88-27.6l2.58,6.09c-6.68-15.93-10.6-32.84-13-49.91l.91,6.78c-4.48-33.43-2.79-67.34-1.5-100.92.41-10.68,1.09-21.35,2.5-31.94l-.91,6.78A157.67,157.67,0,0,1,713.68,1408l-2.57,6.09a194.77,194.77,0,0,1,11.14-21.28,151.9,151.9,0,0,1,11.17-17l-4,5.16a117.39,117.39,0,0,1,20.66-20.35l-5.17,4c11.06-8.46,23.1-16.5,36-21.95l-6.09,2.57a147.79,147.79,0,0,1,19.63-6.24c9.31-2.42,18.61-4.89,28-7.07,22-5.14,43.85-10.37,63.81-21.52a136.63,136.63,0,0,0,40.37-34.57c6.64-8.46,12.83-17.07,17.29-26.91a133.06,133.06,0,0,0,7-18,117.83,117.83,0,0,0,3.44-19.4c1.25-11.08-.5-22.29-2.63-33.16a108,108,0,0,0-9.08-26.76,75.3,75.3,0,0,0-16.51-21.82,106.94,106.94,0,0,0-24.88-17.43c-17.45-8.55-37.07-11.5-56.38-10.36a205.81,205.81,0,0,0-65.52,14.92,214.18,214.18,0,0,0-47.78,26.84c-16.23,12.16-31.59,25.37-47.42,38q-6.15,4.9-12.39,9.73l5.16-4c-37.74,29.13-77.6,55.82-120,77.78-11.88,6.16-24,11.92-36.27,17.19-5.45,2.34-10.22,9.81-11.72,15.24-1.68,6.11-.92,14.23,2.57,19.65s8.74,10.24,15.24,11.72l6.78.91a25.32,25.32,0,0,0,12.87-3.48Z"/><path d="M504.91,1224.37c4.68-13,9.43-26.07,14.81-38.84l-2.57,6.09c6.41-15.19,13.73-30.06,22.82-43.84q3.84-5.83,8.1-11.35l-4,5.16a157,157,0,0,1,27.84-28l-5.16,4,1.3-1a24.58,24.58,0,0,0,12.18-25.41,18.93,18.93,0,0,0-3-9.48l-4-5.16A25.45,25.45,0,0,0,562,1070l-6.78-.91a25.32,25.32,0,0,0-12.87,3.48c-9.54,7.21-18.57,14.78-26.57,23.69A218.43,218.43,0,0,0,494.67,1124c-11.46,17.81-20,37.31-27.79,56.94-3.93,9.88-7.56,19.88-11.15,29.89a19.34,19.34,0,0,0-.45,10.17,19,19,0,0,0,3,9.48,28.62,28.62,0,0,0,15.24,11.72l6.78.91a25.46,25.46,0,0,0,12.87-3.48l5.16-4a25.36,25.36,0,0,0,6.56-11.25Z"/><path d="M690.93,1620.16a183.84,183.84,0,0,0,35,12.65c5,1.19,10,2.12,15,2.83,7.19,1,14.36,1.93,21.62,2.25,12.49.55,24.77-.65,37.12-2.45a159.56,159.56,0,0,0,29.91-7.35,183.53,183.53,0,0,0,37-17.49,26.8,26.8,0,0,0,11.72-15.24,19.34,19.34,0,0,0,.45-10.17,18.9,18.9,0,0,0-3-9.48l-4-5.16a25.45,25.45,0,0,0-11.25-6.56l-6.78-.91a25.36,25.36,0,0,0-12.87,3.48,152.67,152.67,0,0,1-22.22,11.58l6.1-2.57a160.15,160.15,0,0,1-40.36,11l6.77-.92a162.33,162.33,0,0,1-43,0l6.78.91a155.1,155.1,0,0,1-39.17-10.65l6.09,2.57q-2.61-1.11-5.17-2.31a19,19,0,0,0-9.49-3,26.18,26.18,0,0,0-25.4,12.17l-2.57,6.09a25.58,25.58,0,0,0,0,13.56l2.57,6.09a25.55,25.55,0,0,0,9.15,9.15Z"/><path d="M687,1529a183.68,183.68,0,0,0,35,12.3c7.07,1.61,14.22,2.59,21.41,3.52,5.11.66,10.26,1.07,15.41,1.24a198,198,0,0,0,37-2.8,159.24,159.24,0,0,0,29.94-7.72,183.71,183.71,0,0,0,36.72-17.82,24.59,24.59,0,0,0,12.17-25.41,18.9,18.9,0,0,0-3-9.48l-4-5.16a25.48,25.48,0,0,0-11.26-6.56l-6.77-.91a25.46,25.46,0,0,0-12.87,3.48,153.59,153.59,0,0,1-23.51,12.45l6.09-2.57a160.85,160.85,0,0,1-40.63,11.05l6.77-.91a162.35,162.35,0,0,1-42.87,0l6.78.91A154.06,154.06,0,0,1,710.33,1484l6.09,2.57c-1.23-.52-2.47-1.06-3.69-1.62a19,19,0,0,0-9.48-3,19.34,19.34,0,0,0-10.17.45,28.62,28.62,0,0,0-15.24,11.72l-2.57,6.09a25.78,25.78,0,0,0,0,13.56l2.57,6.09A25.71,25.71,0,0,0,687,1529Z"/><path d="M716.36,1454.46a102.81,102.81,0,0,0,17.37.22c10.9-.54,21.74-1.93,32.53-3.49,21.21-3.07,42.35-8.1,62.23-16.16,13-5.28,25.81-11.08,37.16-19.45a24.59,24.59,0,0,0,12.17-25.41,18.9,18.9,0,0,0-3-9.48l-4-5.16a25.54,25.54,0,0,0-11.26-6.56l-6.77-.91a25.53,25.53,0,0,0-12.88,3.48,139.37,139.37,0,0,1-28.67,15.89l6.09-2.57c-17.14,7.21-35.26,12-53.53,15.34q-7.1,1.29-14.25,2.25l6.78-.91a214.5,214.5,0,0,1-34.06,2.32c-2-.06-3.94-.16-5.9-.4a19.16,19.16,0,0,0-9.82,2.2,22.89,22.89,0,0,0-13.48,13.48,19.16,19.16,0,0,0-2.2,9.82l.91,6.78a25.45,25.45,0,0,0,6.56,11.25l5.16,4a25.32,25.32,0,0,0,12.87,3.48Z"/><path d="M456.22,1232.3q-10.49-3.36-20.63-7.64l6.09,2.57a285.05,285.05,0,0,1-51.16-28.34q-7.12-4.92-14-10.22l5.16,4a382.82,382.82,0,0,1-50.41-47.19q-6.81-7.6-13.27-15.5a19,19,0,0,0-8.21-5.27,23,23,0,0,0-19.64,0A19,19,0,0,0,282,1130l-4,5.16A25.32,25.32,0,0,0,274.5,1148l.91,6.78A25.45,25.45,0,0,0,282,1166a402.64,402.64,0,0,0,55.26,56c20,16.46,41.29,31.32,64.54,42.79a299.92,299.92,0,0,0,40.89,16.69,19.24,19.24,0,0,0,10.17.46,19,19,0,0,0,9.48-3A28.62,28.62,0,0,0,474,1263.67l.91-6.78a25.52,25.52,0,0,0-3.48-12.87l-4-5.16a25.55,25.55,0,0,0-11.25-6.56Z"/><path d="M480.94,1282.12a303.78,303.78,0,0,0,37.1-14.87,284.27,284.27,0,0,0,30.61-16.94,382.5,382.5,0,0,0,34.17-24.79,371.74,371.74,0,0,0,28.5-25.46,426.18,426.18,0,0,0,30.31-33.4,26.24,26.24,0,0,0,0-36.06l-5.16-4a25.52,25.52,0,0,0-12.87-3.48l-6.78.91a25.63,25.63,0,0,0-11.26,6.56,407.84,407.84,0,0,1-49.16,50.83q-7.1,6.12-14.51,11.86l5.16-4a303.49,303.49,0,0,1-50.45,31.83q-7.25,3.58-14.68,6.73l6.09-2.57q-10.15,4.28-20.63,7.65a24.57,24.57,0,0,0-18.27,21.2,19.44,19.44,0,0,0,.46,10.17l2.57,6.09a25.71,25.71,0,0,0,9.15,9.15l6.09,2.57a25.78,25.78,0,0,0,13.56,0Z"/><path class="cls-2" d="M97.6,1028.7c-8.52,2-17.46,4-24,5.34l-1-3.72c6.18-1.14,15.6-3.06,24.72-5Zm-.72-38.82H73.48v-3.72h23.4Zm-1.44,21.9H75.1v-16H95.44ZM79,1026.24A41.62,41.62,0,0,0,76.66,1015l3.24-.78a37.26,37.26,0,0,1,2.58,11.16Zm12.78-27.06H78.58v9.24h13.2ZM87,1025.76a85,85,0,0,0,2.7-12.12l3.9,1c-1.08,4.08-2.4,8.94-3.54,12.06Zm22.5,3.9c-3.18,3.12-8.46,6.12-13.08,7.86a22.91,22.91,0,0,0-2.7-2.7c4.68-1.56,9.84-4.56,12.24-7.14Zm-.72-34.44c.48-1.86,1-4,1.26-5.94H98.5v-3.54h28.73v3.54H114.46c-.54,2-1.14,4.14-1.74,5.94h12.53v31H100.42v-31Zm12.66,3.18h-17.4v6.18h17.4Zm0,9.12h-17.4v6.24h17.4Zm0,9.3h-17.4v6.24h17.4ZM118.12,1028a75.15,75.15,0,0,1,10.31,7.38l-3.24,2.16a66.25,66.25,0,0,0-10.13-7.62Z"/><path class="cls-2" d="M178.6,1033.14c4.25,0,4.92-1.14,5.34-8.16a13,13,0,0,0,3.65,1.44c-.71,8.22-2.09,10.32-8.93,10.32H160.84c-7.62,0-9.78-1.26-9.78-6.42v-17.76h-6.78v4.38c0,6.42-1.62,14.76-9.12,20.64a12.11,12.11,0,0,0-2.7-2.82c6.9-5.28,8.1-12.42,8.1-17.88v-4.32h-7.08v-3.72h27.3v3.72h-5.94v17.76c0,2.28,1,2.82,5.88,2.82Zm-39.66-37.32H135v-10h50.15v10h-4v-6.3H138.94Zm-1.38,1.26H158.5v3.72H137.56ZM180,1024.92c0,2.16-.48,3.18-2,3.84s-4,.66-7.86.6a13.54,13.54,0,0,0-1.26-3.48c2.94.06,5.52.06,6.3,0s1.08-.24,1.08-1V1006H160.66v-3.66H176.2v-7.8H180v7.8h6.71V1006H180Zm-14-15.42a37.57,37.57,0,0,1,5.52,10.26l-3.36,1.5a38.88,38.88,0,0,0-5.28-10.44Z"/><path class="cls-2" d="M101.62,1160.36v7.92h22.26v34.32c0,2.28-.54,3.48-2.22,4.08s-4.68.66-8.94.66a14.79,14.79,0,0,0-1.38-3.6c3.42.12,6.54.12,7.5.06s1.14-.3,1.14-1.2V1172H101.62v35.1H97.84V1172H80.44v35.34H76.6v-39.06H97.84v-7.92H74.44v-3.9H126v3.9Zm-9.84,16.44c0,6.12.42,13.92,5.76,20a8.65,8.65,0,0,0-2.28,1.8,23.88,23.88,0,0,1-5.16-11.28,27.16,27.16,0,0,1-6.24,11.4,14.22,14.22,0,0,0-2.34-1.8c4.08-3.9,6.24-9.9,7.2-17.16h-3.9v-2.94Zm21.12,0c0,6.18.48,13.92,6.24,19.92a11.7,11.7,0,0,0-2.4,1.74,23.65,23.65,0,0,1-5.58-11.64,27.62,27.62,0,0,1-6.18,11.46,15,15,0,0,0-2.34-1.8c4-3.84,6.06-9.72,7.08-16.74h-4.08v-2.94Z"/><path class="cls-2" d="M182,1202.18c0,2.76-.78,4.08-2.88,4.68s-6,.72-12.06.72a14.18,14.18,0,0,0-1.62-3.84c5,.12,9.6.12,10.92.06s1.68-.42,1.68-1.62v-7.92H143.92A25.93,25.93,0,0,1,135,1207.7a13.61,13.61,0,0,0-2.76-2.82c8.46-6.66,9.48-16,9.48-23.64v-10.92a58.88,58.88,0,0,1-5.1,4.14,14.53,14.53,0,0,0-2.94-2.82,52.86,52.86,0,0,0,17-19l4.32.78c-.54,1-1.14,1.92-1.74,2.94h14.94l.72-.24,2.64,1.74a48.84,48.84,0,0,1-5.58,8.58h16ZM145.6,1181.9a51.15,51.15,0,0,1-.78,8.82H159.4v-8.82Zm5.4-22.08a59.72,59.72,0,0,1-5.4,6.66h16a47.61,47.61,0,0,0,4.44-6.66Zm-5.4,18.6h13.8V1170H145.6Zm32.46-8.4H163.24v8.4h14.82Zm0,20.7v-8.82H163.24v8.82Z"/><path class="cls-2" d="M125.92,1483v3.9H74.2V1483h6.72V1443.3h-6.3v-3.78h49.44v3.78H85v8.76h33.9v20.52H85V1483ZM85,1455.9v12.9h29.82v-12.9Z"/><path class="cls-2" d="M182.32,1442.16v46.5h-4.26v-4.86H142.12V1489H138v-46.8Zm-4.26,37.62v-33.6H142.12v33.6Z"/><path class="cls-2" d="M1079.94,1151.14a97.41,97.41,0,0,1-13.44,8.1,42.78,42.78,0,0,0,17.63,7.26,14.35,14.35,0,0,0-2.46,3.48c-13.73-3-23.33-10.38-28.55-21.72h-9.78v16.62l16.8-4.08c-.12,1-.18,2.64-.18,3.48-17,4.44-20,5.22-21.3,6l-.3.18a16.11,16.11,0,0,0-1.86-3.84,4.87,4.87,0,0,0,2.94-4.26v-14.1h-10v-3.66H1040v-26.34h36.9v3.42h-32.82v5.52H1075v3.3h-30.9v5.34H1075v3.3h-30.9v5.46h38.58v3.66h-25.56a30.21,30.21,0,0,0,6.72,8.82,90.28,90.28,0,0,0,12.78-8.1Z"/><path class="cls-2" d="M1142.16,1137.16a67.65,67.65,0,0,1-9.84,11.22v16.32c0,3-.66,4.38-2.82,5.1s-6.06.72-12.18.66a16.43,16.43,0,0,0-1.5-4.14c4.86.18,9.48.12,10.74.06s1.8-.42,1.8-1.68v-12.9c-10.32,8.22-23,14.1-36.72,18.12a19.65,19.65,0,0,0-2.58-3.54c11.82-3.12,22.8-7.8,31.92-14-11.4.9-22.62,1.86-30.78,2.4l-.66-4c2.76-.12,5.94-.3,9.42-.48V1121.8h12.24a54.28,54.28,0,0,0,2.58-6.12l4.68.78a57.5,57.5,0,0,1-2.94,5.34h16.8v21a52.71,52.71,0,0,0,6.12-7.56Zm-39.3-11.82v5.88h25.5v-5.88Zm25.5,9h-25.5v5.94h25.5Zm-25.5,15.66c7.14-.42,15.24-.9,23.28-1.44.72-.66,1.5-1.26,2.22-1.92v-3.24h-25.5Z"/><path class="cls-2" d="M1046.3,1450.34a49.76,49.76,0,0,1-1.8,7c4.86,8.76,14.64,15.12,26.46,17.64a17,17,0,0,0-2.52,3.42,41.68,41.68,0,0,1-8.94-3.18v24.36c0,2.28-.6,3.24-2.34,3.9-1.74.48-4.74.54-9.42.54a14.48,14.48,0,0,0-1.32-3.36c3.54.12,6.84.12,7.74.06s1.26-.3,1.26-1.14V1492c-8,1.68-16.38,3.3-22.62,4.38l-1.32-3.48c6.06-1,15.06-2.58,23.94-4.2V1476.8h-24.6v7.2c0,6.24-.9,14.82-5.7,20.82a13.15,13.15,0,0,0-3.3-2.46c4.5-5.46,5-12.9,5-18.42v-8a53.1,53.1,0,0,1-9.18,3.12,22.71,22.71,0,0,0-2.4-3.48c15.84-3.3,24.42-10.32,26.88-25.8Zm-10.14,13.26c-5.88,1.44-11.88,2.76-16.68,3.84l-1.2-3.54c4.44-.72,11-2.1,17.58-3.48Zm-1.74-3.9a72.19,72.19,0,0,0-14-5.52l1.5-2.76a75.36,75.36,0,0,1,13.92,5.22Zm21.54,13.74a39.41,39.41,0,0,1-13.14-12.18,29.09,29.09,0,0,1-11.1,12.18Zm-21.78,6.9c6.48.54,14.76,2.1,19.32,3.84l-1.14,3.18c-4.38-1.8-12.78-3.54-19.2-4.26Zm32.52-12.66a135.33,135.33,0,0,0-17.34-4.32l1.32-3.12a152.25,152.25,0,0,1,17.28,4Zm.3-13.32a82.09,82.09,0,0,1-14.88,4.62l-1.26-2.94a113.45,113.45,0,0,0,14.7-4.62Z"/><path class="cls-2" d="M1118,1465.58a82.66,82.66,0,0,1-9.78,6.06h18.3v3.06h-18.3v1.62c0,1.68.36,2.22,2.22,2.22h12.89a37.58,37.58,0,0,0,5.41-.3c.12,1,.3,2.16.42,3a33.2,33.2,0,0,1-5.52.3h-13.5c-4.38,0-5.46-1.5-5.46-5.28v-2.88c-1.5.72-3.06,1.38-4.56,2-.48-.6-1.38-1.68-2.16-2.46v14.94h-19v-18.66c-.36.54-.72,1-1.08,1.44a7.79,7.79,0,0,0-2.58-2c4.44-5.64,7.14-13.14,8.46-18.72l3.42.42a47.83,47.83,0,0,1-1.44,4.86h6.84l.6-.24,2.28,1.5a58.27,58.27,0,0,1-4.2,8.7H1098v7.32c2.28-.84,4.5-1.8,6.72-2.76v-.84h1.68c2-1,4-2.1,5.82-3.3H1099.4v-3.18h10.86v-4.62h-8.94v-3.12h8.94v-4.74H1114v4.74h8.16v3.12H1114v4.62h2.88a48.52,48.52,0,0,0,9.54-9.3l3.3,1.2a55.33,55.33,0,0,1-7.74,8.1h8.46v3.18ZM1075.64,1503c1.8-3.24,3.3-8.52,4.08-12.3l2.88,1c-.9,3.9-2.22,9.24-4,12.54Zm8.88-44.52a51.62,51.62,0,0,1-3.06,6.72h6.48a46.94,46.94,0,0,0,3-6.72Zm-2.4,10v6.48h4.74v-6.48Zm0,16.14h4.74v-6.54h-4.74Zm5,6.54a46.73,46.73,0,0,1,1,11.22l-2.88.36a53.27,53.27,0,0,0-.84-11.22Zm5-.72a39,39,0,0,1,3.06,10.2l-2.76.66a47.67,47.67,0,0,0-2.88-10.26Zm2.52-22h-4.92v6.48h4.92Zm0,9.6h-4.92v6.54h4.92Zm2.52,11.52a37.81,37.81,0,0,1,4.2,8.16l-2.52,1.2a42.76,42.76,0,0,0-4-8.46Zm6.42-5.46h23.57v20.34h-3.71v-2.34H1107.2v2.34h-3.6Zm3.6,3v4.38h16.26v-4.38Zm16.26,11.94v-4.68H1107.2v4.68Z"/><path class="cls-2" d="M1122.94,1701.14a97.41,97.41,0,0,1-13.44,8.1,42.78,42.78,0,0,0,17.63,7.26,14.35,14.35,0,0,0-2.46,3.48c-13.73-3-23.33-10.38-28.55-21.72h-9.78v16.62l16.8-4.08c-.12,1-.18,2.64-.18,3.48-17,4.44-20,5.22-21.3,6l-.3.18a16.11,16.11,0,0,0-1.86-3.84,4.87,4.87,0,0,0,2.94-4.26v-14.1h-10v-3.66H1083v-26.34h36.9v3.42h-32.82v5.52H1118v3.3h-30.9v5.34H1118v3.3h-30.9v5.46h38.58v3.66h-25.56a30.21,30.21,0,0,0,6.72,8.82,90.28,90.28,0,0,0,12.78-8.1Z"/><path class="cls-2" d="M1141.36,1683v3.24c0,10-.78,24.42-6.66,34.2a15.57,15.57,0,0,0-3.48-2c5.64-9.36,6.18-22.68,6.18-32.1v-17.52h44.46V1683Zm0-10.68v7.14h36.47v-7.14Zm37,43.68c2.7,0,3.18-1.14,3.47-6.78a13.27,13.27,0,0,0,3.67,1.56c-.6,7-1.8,8.88-6.9,8.88H1166c-6,0-7.68-1.32-7.68-6.3v-4.92l-15.72,2.46-.6-3.36,16.32-2.52v-5.88l-13.62,2.1-.66-3.24,14.28-2.28v-5.46c-4.26.78-8.7,1.38-12.78,1.92a13.55,13.55,0,0,0-1.14-2.94c10.14-1.32,22-3.48,28.26-5.88l3.42,2.64a110.17,110.17,0,0,1-13.86,3.54v5.64l17.22-2.64.6,3.24-17.82,2.76v5.88l21.47-3.36.61,3.3-22.08,3.48v5.46c0,2.22.66,2.7,4,2.7Z"/><path class="cls-2" d="M220.24,1014.36c23.37-8.14,47.51-15.07,72.3-16.85,23.69-1.7,47.62,1.83,68.83,12.85a115.16,115.16,0,0,1,29.83,22.21c1,1,2.6-.55,1.6-1.6a118.26,118.26,0,0,0-58.18-32.82c-24.36-5.61-49.73-3.47-73.91,2a377.92,377.92,0,0,0-41.06,12.07c-1.36.48-.78,2.65.59,2.17Z"/><path class="cls-2" d="M199.26,1186.92a84.11,84.11,0,0,0,54.09-6.13,81.28,81.28,0,0,0,13.48-8.13c1.15-.85,0-2.8-1.13-1.94a81,81,0,0,1-65.84,14c-1.41-.31-2,1.86-.6,2.17Z"/><path class="cls-2" d="M189.12,1149.72c37.41-24.86,63.19-62.55,90.65-97.22,14.07-17.76,28.85-35,45.87-50A284.05,284.05,0,0,1,383,963.28c40.45-20.95,86.07-32.17,131.68-31.09,42.07,1,89.49,13.77,115.49,49.4,11.11,15.23,18.85,33,23.7,51.21,4.71,17.66,7.18,37.13,2.67,55.1a56.74,56.74,0,0,1-4,11c-.63,1.3,1.31,2.44,1.94,1.14,7.73-15.82,7.63-34.49,5-51.52a165.08,165.08,0,0,0-19.11-55.13A115.51,115.51,0,0,0,625,971.74a110.86,110.86,0,0,0-24.43-19.44c-19.32-11.63-41.39-18-63.66-20.74-45.41-5.65-92.56,2.46-134.56,20.17a286.32,286.32,0,0,0-60.92,35,309,309,0,0,0-49.79,47.68c-29.4,34.72-54.08,74.31-89.79,103.19q-6.69,5.4-13.85,10.16c-1.2.8-.08,2.75,1.13,1.94Z"/><path class="cls-2" d="M217.1,1449.5a143,143,0,0,1,53.07-52.75,139.18,139.18,0,0,1,19.17-9.06c1.34-.52.76-2.69-.59-2.17a144.46,144.46,0,0,0-73.59,62.84,1.13,1.13,0,0,0,1.94,1.14Z"/><path class="cls-2" d="M1014.47,1119.93a68.43,68.43,0,0,0-4.41-8.66,31.25,31.25,0,0,0-4.39-5.28c-2.55-2.53-5.11-5.1-7.85-7.42a72.84,72.84,0,0,0-10.65-7.36,135.72,135.72,0,0,0-24.1-10.51,99.6,99.6,0,0,0-25.86-5.33,57.41,57.41,0,0,0-28.28,5.16c-1.3.62-.16,2.57,1.14,1.94,15.63-7.49,33.62-5.48,49.68-.48a138.93,138.93,0,0,1,23.63,9.71,77.46,77.46,0,0,1,10.73,6.76,102.39,102.39,0,0,1,8.61,7.79,37,37,0,0,1,5,5.58,62.63,62.63,0,0,1,4.78,9.24c.6,1.31,2.54.17,1.94-1.14Z"/><path class="cls-2" d="M912.66,1396.66c10.71,8.72,19.13,19.76,27.34,30.76s16.09,22,26.22,31.1a72.47,72.47,0,0,0,18.71,12.41c1.31.58,2.46-1.36,1.14-2-12.3-5.49-22.08-14.84-30.59-25.09-8.74-10.52-16.32-22-25.07-32.46a119,119,0,0,0-16.16-16.36c-1.12-.9-2.72.68-1.59,1.59Z"/><path class="cls-2" d="M906.88,1490.86a221.06,221.06,0,0,0,61.85-5.52q8.52-2,16.87-4.69c1.37-.44.78-2.61-.6-2.17a218.33,218.33,0,0,1-60.62,10.36q-8.75.23-17.5-.23c-1.45-.08-1.44,2.17,0,2.25Z"/><path class="cls-2" d="M992.15,1483.21a156.93,156.93,0,0,1-27.35,34.55,284,284,0,0,1-34.7,28.11c-6.88,4.83-13.89,9.47-21,14.05-1.21.78-.08,2.73,1.14,1.94,12.64-8.19,25.14-16.62,37-25.93A211,211,0,0,0,979.72,1505a145.75,145.75,0,0,0,14.38-20.65,1.13,1.13,0,0,0-2-1.14Z"/><path class="cls-2" d="M1057.21,1733.84a111.1,111.1,0,0,1-29,18.78,142.33,142.33,0,0,1-34.43,10.31,173.24,173.24,0,0,1-36.74,2.25,182.67,182.67,0,0,1-36.64-5.3,161.11,161.11,0,0,1-33.44-12.32c-1.3-.66-2.58-1.34-3.86-2s-2.41,1.25-1.14,1.94a159.52,159.52,0,0,0,33.4,13.4,184.26,184.26,0,0,0,37,6.3,178.47,178.47,0,0,0,37.46-1.35,147.88,147.88,0,0,0,35.32-9.45,116.06,116.06,0,0,0,30.4-18.09c1.12-.92,2.21-1.88,3.28-2.85s-.52-2.56-1.59-1.59Z"/></svg>