<?xml version="1.0" encoding="utf-8"?>
<!-- Generator: Adobe Illustrator 24.0.2, SVG Export Plug-In . SVG Version: 6.00 Build 0)  -->
<svg version="1.1" id="Layer_1" xmlns="http://www.w3.org/2000/svg" xmlns:xlink="http://www.w3.org/1999/xlink" x="0px" y="0px"
	 viewBox="0 0 180 263.5" style="enable-background:new 0 0 180 263.5;" xml:space="preserve">
<style type="text/css">
	.st0{fill:#000001;}
</style>
<path class="st0" d="M49.7,225.7c-1-4.2-0.6-8.2,0.7-11.9c1.7-4.7,3.7-9.4,6-13.9c2.5-4.9,5.7-9.4,8.1-14.4
	c4.4-8.8,11.7-15.2,17.6-22.8c8.8-11.5,19.8-20.7,31-29.7c1.6-1.3,2.1-2.6,1.6-4.6c-1-4-1.8-8-2.8-12.5c-2.2,0.9-4.3,1.4-6.2,2.4
	c-11.4,6-22.7,12.2-32,21.4c-4.4,4.3-9.1,8.3-13.8,12.3c-4,3.5-7.7,7.1-10.8,11.5c-1.2,1.6-3.2,2.9-5.1,3.7
	c-2.9,1.1-5.2-1.3-4.1-4.3c1-2.6,2.4-5,4-7.1c2.1-2.8,4.7-5.1,6.9-7.9c6.2-7.8,14.9-12.8,22.3-19.2c9.2-8,19.7-13.9,30.5-19.3
	c1-0.5,2-1.1,3.5-1.9c-1.2-1.2-2.2-2.5-3.4-3.3c-5-3.5-10.8-5-17-5.2c-0.7,0-1.5,0.4-2,0.9c-2.2,2-4.3,4.1-6.3,6.3
	c-6.1,6.9-14,10.9-22.7,13.4c-9.3,2.6-18.8,4.1-28.4,4.5c-2.4,0.1-3.7-0.6-3.9-2.9c-0.1-0.7-0.3-1.2-0.7-2.4
	c4.8-1.8,9.4-3.9,14.2-5.2c4.7-1.4,9.6-1.9,14.5-2.9c9.2-1.9,16.8-6.9,24.1-13.4c-3.2-1.2-6.1-2.3-9-3.3c-2.7-0.9-5.4-1.7-8.1-2.6
	c-7.1-2.4-10.9-7.6-12.8-14.7c-1.4-5.3-1.6-10.7-1.2-16.2c0.5-9.7,1.5-19.3,5.2-28.5c0.5-1.2,1.2-2.3,2.2-3.1
	c6.7-5.8,14.7-8.1,23.3-9c16.4-1.8,32.8-1.1,49.3-0.8c3.3,0.1,6.5,0.3,9.7,0.9c1.2,0.2,2.6,1.1,3.3,2.2c1.7,2.4,1.2,3.6-1.4,4.7
	c-5.4,2.2-11.1,1.8-16.7,1.6c-6.2-0.2-12.3-0.1-18.6-0.1c-0.3,3.9-0.7,7.7-0.9,11.5c0,0.5,1,1.3,1.6,1.3c5.8,0.1,11.6,0.1,17.4,0.3
	c3.1,0.1,6.2,0.2,9.2,0.8c3.1,0.6,4.7,2.8,4.4,5.6c-0.1,0.7-0.7,1.6-1.3,1.8c-4.5,2.2-9.2,2.3-14,2c-4.7-0.3-9.4-0.7-14.1-0.7
	c-3.5,0-3.4,0.2-4.1,3.6c-0.5,2.5-1,5-1.6,7.9c2.6,0.1,4.9,0.4,7.3,0.4c6.3,0,12.6-0.3,18.9-0.1c2.5,0.1,5,0.6,7.4,1.3
	c1.2,0.4,2.4,1.6,3.1,2.8c1.3,2.1,0.7,4.1-1.6,4.8c-3.1,1-6.4,2-9.6,2.1c-5.2,0.2-10.4-0.5-15.6-0.6c-3.7,0-7.3,0.5-11,0.9
	c-0.5,0.1-1.1,0.5-1.2,0.9c-1.6,5.1-3.1,10.2-4.7,15.3c4.8,1.6,9.3,3.2,13.9,4.8c7.1,2.4,11.5,7.5,14.2,14.4
	c1.6,4.1,2.8,8.2,4.3,12.3c0.5,1.4,1.4,2.6,2,3.6c4.5-2.7,8.6-5.3,12.9-7.7c3.7-2,7.7-2.8,11.7-1.6c1.2,0.3,2.4,1.3,3.1,2.4
	c3.1,5.2,4.6,11,4.7,17c0.1,13.4,0.1,26.8-0.2,40.2c-0.3,10.4-1.4,20.8-4.4,30.9c-1,3.5-2.5,6.9-3.6,10.5c-0.6,1.8-1.7,2.7-3.5,2.9
	c-1.1,0.2-2.2,0.5-3.5,0.8c-1.6-2.6-1.8-5.4-1-8.1c4.5-14.6,6.2-29.6,7.9-44.6c0.6-5.4,0.2-11-0.1-16.5c-0.3-7-0.9-14-1.5-21
	c-0.2-2.1-0.9-4.1-1.5-6.5c-1,0.5-1.6,0.8-2.2,1.1c-5.2,3-10.5,5.9-15.6,9c-1,0.7-1.9,2-2.4,3.3c-0.5,1.3-0.6,2.9-0.5,4.3
	c0.5,9.8-0.6,19.4-2.2,29c-1.9,11.7-3.4,23.4-5.8,34.9c-2.2,10.6-5.1,20.9-7.9,31.3c-1,4-3.3,7.1-7.5,8.3c-1.4,0.4-2.1,0.1-2.6-1.4
	c-1-3.1-1-6.2,0.2-9.2c5.8-13.8,7.8-28.6,11.1-43c2.2-9.6,4-19.3,5.4-29c0.9-6.3,0.6-12.7-0.7-19.2c-0.3,0.1-0.6,0.1-0.8,0.3
	c-16.1,12-30,26.2-40.2,43.5c-4.4,7.4-7.8,15.5-11.5,23.3c-2.1,4.5-4.2,8.9-6,13.4c-0.7,1.8-1.6,2.6-3.5,2.3
	C52.1,225.5,50.9,225.7,49.7,225.7L49.7,225.7z M56,40.9h34.7c0.2-3.1,0.4-6,0.5-8.8c0.1-3.1-0.3-3.3-3.4-3.7c-7-0.9-14,0.1-20.6,2
	C61.7,31.9,56.4,34,56,40.9z M55.2,72.5c0.1,4.5,1.3,8.7,5.2,10.4c6.1,2.6,12.3,5,19.1,5.5c1.2,0.1,2-0.2,2.4-1.6
	c1.1-3.7,2.4-7.5,3.5-11.2c0.7-2,0.2-2.8-2-3c-1.7-0.1-3.5-0.1-5.2-0.1C70.6,72.5,63,72.5,55.2,72.5z M54.2,62.8
	c11.5-0.4,22.9-0.8,34.2-1.2c0-3.6,0-6.9,0-10.2c-11.5,0-22.8,0-34.2,0V62.8z"/>
</svg>
