<?xml version="1.0" encoding="utf-8"?>
<!-- Generator: Adobe Illustrator 24.0.2, SVG Export Plug-In . SVG Version: 6.00 Build 0)  -->
<svg version="1.1" id="Layer_1" xmlns="http://www.w3.org/2000/svg" xmlns:xlink="http://www.w3.org/1999/xlink" x="0px" y="0px"
	 viewBox="0 0 263.5 180" style="enable-background:new 0 0 263.5 180;" xml:space="preserve">
<style type="text/css">
	.st0{fill:#000001;}
	.st1{fill:#FFFFFF;}
	.st2{font-family:'SourceHanSansTW-Regular-B5pc-H';}
	.st3{font-size:12px;glyph-orientation-vertical:0;writing-mode:tb;}
</style>
<g>
	<path class="st0" d="M178.9,149.8c-0.6-2.6-0.4-5,0.4-7.2c1-2.9,2.3-5.7,3.7-8.5c1.5-3,3.5-5.7,4.9-8.8c2.7-5.4,7.1-9.3,10.7-13.9
		c5.4-7,12.1-12.6,18.9-18.1c1-0.8,1.3-1.6,1-2.8c-0.6-2.4-1.1-4.9-1.7-7.6c-1.3,0.5-2.6,0.9-3.8,1.5c-6.9,3.7-13.8,7.4-19.5,13
		c-2.7,2.6-5.5,5.1-8.4,7.5c-2.4,2.1-4.7,4.3-6.6,7c-0.7,1-1.9,1.8-3.1,2.3c-1.8,0.7-3.2-0.8-2.5-2.6c0.6-1.6,1.5-3,2.4-4.3
		c1.3-1.7,2.9-3.1,4.2-4.8c3.8-4.8,9.1-7.8,13.6-11.7c5.6-4.9,12-8.5,18.6-11.8c0.6-0.3,1.2-0.7,2.1-1.2c-0.7-0.7-1.3-1.5-2.1-2
		c-3-2.1-6.6-3-10.4-3.2c-0.4,0-0.9,0.2-1.2,0.5c-1.3,1.2-2.6,2.5-3.8,3.8c-3.7,4.2-8.5,6.6-13.8,8.2c-5.7,1.6-11.4,2.5-17.3,2.7
		c-1.5,0.1-2.3-0.4-2.4-1.8c-0.1-0.4-0.2-0.7-0.4-1.5c2.9-1.1,5.7-2.4,8.6-3.2c2.9-0.9,5.8-1.2,8.8-1.8c5.6-1.2,10.2-4.2,14.7-8.2
		c-1.9-0.7-3.7-1.4-5.5-2c-1.6-0.5-3.3-1-4.9-1.6c-4.3-1.5-6.6-4.6-7.8-9c-0.9-3.2-1-6.5-0.7-9.9c0.3-5.9,0.9-11.8,3.2-17.4
		c0.3-0.7,0.7-1.4,1.3-1.9c4.1-3.5,9-4.9,14.2-5.5c10-1.1,20-0.7,30-0.5c2,0.1,4,0.2,5.9,0.5c0.7,0.1,1.6,0.7,2,1.3
		c1,1.5,0.7,2.2-0.9,2.9c-3.3,1.3-6.8,1.1-10.2,1c-3.8-0.1-7.5-0.1-11.3-0.1c-0.2,2.4-0.4,4.7-0.5,7c0,0.3,0.6,0.8,1,0.8
		c3.5,0.1,7.1,0.1,10.6,0.2c1.9,0.1,3.8,0.1,5.6,0.5c1.9,0.4,2.9,1.7,2.7,3.4c-0.1,0.4-0.4,1-0.8,1.1c-2.7,1.3-5.6,1.4-8.5,1.2
		c-2.9-0.2-5.7-0.4-8.6-0.4c-2.1,0-2.1,0.1-2.5,2.2c-0.3,1.5-0.6,3-1,4.8c1.6,0.1,3,0.2,4.4,0.2c3.8,0,7.7-0.2,11.5-0.1
		c1.5,0.1,3,0.4,4.5,0.8c0.7,0.2,1.5,1,1.9,1.7c0.8,1.3,0.4,2.5-1,2.9c-1.9,0.6-3.9,1.2-5.8,1.3c-3.2,0.1-6.3-0.3-9.5-0.4
		c-2.3,0-4.4,0.3-6.7,0.5c-0.3,0.1-0.7,0.3-0.7,0.5c-1,3.1-1.9,6.2-2.9,9.3c2.9,1,5.7,1.9,8.5,2.9c4.3,1.5,7,4.6,8.6,8.8
		c1,2.5,1.7,5,2.6,7.5c0.3,0.9,0.9,1.6,1.2,2.2c2.7-1.6,5.2-3.2,7.9-4.7c2.3-1.2,4.7-1.7,7.1-1c0.7,0.2,1.5,0.8,1.9,1.5
		c1.9,3.2,2.8,6.7,2.9,10.4c0.1,8.2,0.1,16.3-0.1,24.5c-0.2,6.3-0.9,12.7-2.7,18.8c-0.6,2.1-1.5,4.2-2.2,6.4c-0.4,1.1-1,1.6-2.1,1.8
		c-0.7,0.1-1.3,0.3-2.1,0.5c-1-1.6-1.1-3.3-0.6-4.9c2.7-8.9,3.8-18,4.8-27.2c0.4-3.3,0.1-6.7-0.1-10c-0.2-4.3-0.5-8.5-0.9-12.8
		c-0.1-1.3-0.5-2.5-0.9-4c-0.6,0.3-1,0.5-1.3,0.7c-3.2,1.8-6.4,3.6-9.5,5.5c-0.6,0.4-1.2,1.2-1.5,2c-0.3,0.8-0.4,1.8-0.3,2.6
		c0.3,6-0.4,11.8-1.3,17.7c-1.2,7.1-2.1,14.3-3.5,21.3c-1.3,6.5-3.1,12.7-4.8,19.1c-0.6,2.4-2,4.3-4.6,5.1c-0.9,0.2-1.3,0.1-1.6-0.9
		c-0.6-1.9-0.6-3.8,0.1-5.6c3.5-8.4,4.8-17.4,6.8-26.2c1.3-5.8,2.4-11.8,3.3-17.7c0.5-3.8,0.4-7.7-0.4-11.7
		c-0.2,0.1-0.4,0.1-0.5,0.2c-9.8,7.3-18.3,16-24.5,26.5c-2.7,4.5-4.8,9.4-7,14.2c-1.3,2.7-2.6,5.4-3.7,8.2c-0.4,1.1-1,1.6-2.1,1.4
		C180.3,149.6,179.6,149.8,178.9,149.8L178.9,149.8z M182.7,37.2h21.1c0.1-1.9,0.2-3.7,0.3-5.4c0.1-1.9-0.2-2-2.1-2.3
		c-4.3-0.5-8.5,0.1-12.5,1.2C186.2,31.7,183,33,182.7,37.2z M182.2,56.5c0.1,2.7,0.8,5.3,3.2,6.3c3.7,1.6,7.5,3,11.6,3.3
		c0.7,0.1,1.2-0.1,1.5-1c0.7-2.3,1.5-4.6,2.1-6.8c0.4-1.2,0.1-1.7-1.2-1.8c-1-0.1-2.1-0.1-3.2-0.1C191.6,56.5,187,56.5,182.2,56.5z
		 M181.6,50.6c7-0.2,13.9-0.5,20.8-0.7c0-2.2,0-4.2,0-6.2c-7,0-13.9,0-20.8,0V50.6z"/>
	<g>
		<path d="M88.4,24c-3.8,0-6.1,0.3-8.3,0c-9.9-1.4-17.5,3.4-22.2,10.9c-3,4.7-6.8,9.1-8.6,15.3c-2.3,8.1-0.9,14,3.4,20.2
			c1,1.5,2.6,2.5,3.8,3.8c3.2,3.8,3.4,6.8-0.3,10c-4.2,3.6-8.7,6.9-13.5,9.6c-5.5,3-9.2,6.5-8.3,13.3c0.1,0.9-1.4,2.9-1.7,2.8
			c-1.6-0.4-3.4-1-4.4-2.2c-1-1.1-2.1-3.8-1.6-4.4c3.9-4.2,8.2-8.2,12.5-12.1c1.2-1.1,3.2-1.3,4.4-2.4c3.3-3,7.6-5.8,9.1-9.6
			c0.8-2.1-3.7-6-5.5-9.2c-8.6-15.2-4.7-20.6,3.5-33.8c2.7-4.4,6.2-8.2,9.5-12.2c2.6-3.2,15.6-7.6,20.5-5.2c5.6,2.8,11,2.3,16.6,2.3
			c6.5,0.1,13.1-0.4,18.5,4.3c3.5,3.1,8.4-0.6,12.3,3.4c1.6,1.6,4.6,2.2,3.6,5.1c-0.7,2.3-2.4,4.8-4.3,5.9c-1.7,1-4.4,0.1-6.6,0.3
			c-1.7,0.1-3.3,0.7-4.9,1.1c1.5,0.5,3,0.9,4.4,1.6c1.9,0.9,4.1,1.7,5.3,3.3c3.1,3.9-0.2,9.9-5.7,10.1c-6.5,0.2-13.1,0.8-19.2-2.5
			c-0.8-0.4-2.4,0.6-3.6,0.9c0.7,0.9,1.3,2.4,2.2,2.7c2.4,0.8,4.9,1.2,7.4,1.6c5,0.9,10.1,1.5,15,2.8c3.3,0.9,5.7,5.4,4.6,8.4
			c-1.1,2.9-3,5.1-6.8,5c-6.9-0.2-13.8,0.6-20.1-3.8c-1.9-1.3-4.9-1.3-7.4-1.6c-5.4-0.7-3.4,5-6,7.2c-1.6,1.3,1,2.8,3.4,3.8
			c8.1,3.4,14.5,8.8,15.4,18.6c0.1,1.5,1.5,3.6,2.8,4.1c12,4.8,14.7,16.9,20.6,26.3c2.4,3.8-1.4,10.6-6.3,12.7c-3.1,1.3-7-0.7-9-5.4
			c-2.2-5.3-3.7-11-5.5-16.5c-0.3-0.8-0.8-1.5-1.2-2.2c-0.5,0.6-1.3,1.2-1.4,1.9c-0.5,3.3,0.9,6.8-2.1,10c-1,1.1,2.1,5.2,1.9,7.9
			c-0.3,5.5-0.4,11.6-2.9,16.1c-1.9,3.4-7.5,4.9-11.8,6.6c-0.6,0.2-2.7-2.9-4-4.6c-2.4-3.2,4.5-5.9,0.2-10.1
			c-2.5-2.5,0.7-6.6,2.6-9.3c4.2-6,2.1-12.7,2.5-19.1c0-0.7-0.8-1.4-1.2-2.2c-0.6,0.6-1.5,1-1.9,1.8c-2.3,4-5.1,7.8-6.6,12.1
			c-2.2,6.3-7.2,9.1-12.3,12.2c-2.6,1.6-4,0.5-5.6-1.2c-1.7-1.7-2.7-3-1.3-5.6c6.3-11.6,11.4-24,24.6-30.2c0.9-0.4,0.9-2.8,1.4-4.2
			c-1.2-0.3-2.8-1.3-3.6-0.9c-7.7,4.1-17.6,5.8-18.1,17.6c-0.1,1.3-3.3,3.7-4.9,3.6c-3.7-0.2-5.4,2.2-8,3.8
			c-2.4,1.4-5.7,1.6-8.7,1.6c-0.7,0-2.4-2.6-2.1-3.6c0.8-3.2,1.5-7,3.7-9.1c7.7-7.7,13.5-17.6,24.2-22.1c0.6-0.2,0.8-1.1,1.3-1.7
			c-0.8-0.3-1.5-0.9-2.3-0.9c-5.5,0.1-9.6,2.9-13.5,6.5C52,98.9,49,104.2,43,105.6c-1,0.2-1.9,0.4-2.9,0.7c0.2-1.2-0.2-3,0.5-3.6
			c8-6.6,16-13.2,24.3-19.5c1.7-1.3,3.4-4.4,6.6-2.2c2.8,2,6.2,3.3,8.3,5.8c2.3,2.8-1.2,6-2.9,6.1c-8.3,0.4-11.7,7.2-16.8,11.7
			c-3.2,2.9-6.7,5.6-7.7,10.2c-0.5,2.1-5.2,2.4-3,5.5c0.4,0.5,4.5-1.2,6.6-2.5c2-1.3,3.7-3.2,5.4-5c4.8-5.2,9-10.9,14.3-15.5
			c2.6-2.3,6.9-3.1,10.6-3.5c7.6-0.8,9.1,0.5,7.3,7.8c-0.9,3.5-1,5,1.2,8.3c3.6,5.5,2,12.3,0.5,18.8c-1.5,6.6-4.3,12.8-4.3,19.8
			c0,3.7,1.3,4.5,4.7,4.4c3-0.1,3.6-1.3,3.6-4.1c0-3.8-1.5-8,2.5-10.9c-3.9-2.4-2.4-6.3-2.6-9.7c-0.2-6.1,0.8-11.5,7.6-14.2
			c2.4-0.9,4.1-3.3,0.5-5.6c-1.5-1-3.2-2.3-3.8-3.8c-4.4-11.4-12.2-19-23.6-23.5c-2.5-1-3.9-3.7-1.1-6.4c2.3-2.2,4.4-4.5,6.7-6.6
			c5.4-5.2,11.8-6.2,17.3-1.3c5.3,4.7,11,1.7,16.5,2.5c0.3,0,1-0.7,0.9-0.9c-0.3-0.7-0.6-1.6-1.2-1.9c-4.6-1.8-9.2-4-14.1-5.1
			c-3.7-0.9-7.8,0.5-11.1-2.7c-1.3-1.2-4.7-0.7-5.4-2c-1-1.7-0.5-4.4-0.1-6.6c0.1-0.9,1.7-2.3,2.4-2.2c4.7,0.7,9.6-1.9,14.2,1.6
			c4.2,3.2,10.6-1.6,14.5,3.5c0.4-1.2,1.5-2.9,1-3.5c-1.2-1.7-2.9-3.9-4.7-4.2c-6.7-1.3-13.6-2-20.4-2.8c-1.8-0.2-4.2,0.7-5.3-0.2
			c-2.5-2-6.2-4.7-6.2-7.2c0-2.6,4.1-3.7,7.6-3.5c7.8,0.4,15.6-0.4,23.2,2.6c2.3,0.9,5.7-0.8,8.5-1.2c-2.1-2.3-4-4.7-7.8-4
			c-1.6,0.3-3.9,0.1-5-0.8C103.6,22,94.9,24.6,88.4,24z"/>
		<path d="M67.9,58.9c-1.8,0-3.6,0.2-5.4-0.1C60,58.5,55.9,61,56,55.2c0.1-6.5,1.3-9.2,6.1-9.7c5.4-0.5,10.6-0.1,15.6,2.5
			c2,1,5.5-1,5.4,3.6c-0.1,4.1-1.6,6.8-5.8,7.3C74.2,59.2,71,58.9,67.9,58.9z"/>
		<path d="M77.7,65.7c-0.2,5-7.8,10.4-11.8,9.4c-4.8-1.2-7.6-4.2-7.1-7.3c0.7-4.1,3.1-6,8.3-6.1c2.2-0.1,4.7-0.5,6.6,0.3
			C75.5,62.6,76.7,64.7,77.7,65.7z"/>
		<path d="M80.6,38.3c-1.8,1.3-3.8,3.7-6.3,4.3c-5.2,1.3-9.4-1.3-10.2-5.4c-0.6-3.3,2-7.2,5.2-7.9C72.6,28.7,79.7,33.7,80.6,38.3z"
			/>
		<path class="st1" d="M120.9,133.1c0,1.3,0.1,2.7,0,4c-0.1,0.8-0.7,1.5-1.1,2.2c-0.5-0.5-1.4-0.9-1.5-1.6c-1.9-6-3.8-11.9-5.3-17.9
			c-0.3-1.2,0.9-2.8,1.5-4.2c1,1,2.3,1.7,2.8,2.9c1.8,4.6,3.3,9.4,4.9,14.1C121.6,132.8,121.3,132.9,120.9,133.1z"/>
		<path class="st1" d="M80.2,119.1c-3.1,4.6-2.7,11.1-8.2,14c-0.5,0.3-1.7,0.5-1.8,0.3c-0.4-0.7-0.9-1.8-0.6-2.3
			c2.2-4.4,4.4-8.7,6.8-13c0.2-0.4,1.7-0.2,2.5,0C79.6,118.3,80,118.9,80.2,119.1z"/>
		<path class="st1" d="M85.8,109.3c1.4,1.3,2,1.8,2.5,2.3c-0.9,0.9-1.8,2-2.8,2.8c-1.6,1.3-3.4,2.5-5.1,3.8c0-0.9-0.4-2,0.1-2.6
			C82.1,113.3,83.9,111.3,85.8,109.3z"/>
		<path class="st1" d="M102.6,37.4c0.9,0,1.8-0.2,2.6,0.1c0.8,0.2,1.4,0.8,2.1,1.3c-0.7,0.4-1.4,1.2-2.1,1.3c-1.7,0.2-3.5,0.2-5.3,0
			c-1.2-0.1-2.3-0.8-3.4-1.3c1.1-0.4,2.2-1,3.4-1.3C100.8,37.3,101.7,37.4,102.6,37.4z"/>
		<path class="st1" d="M68.6,56.3c-0.5-0.1-2.4,0-3.8-0.8c-1.3-0.7-2.5-2.3-2.9-3.7c-0.2-0.6,1.5-2.2,2.7-2.7
			c1.5-0.6,3.3-0.7,4.9-0.9c3-0.4,5.9-0.2,7.2,3.2C77.6,53.8,74.1,56.2,68.6,56.3z"/>
		<path class="st1" d="M72.6,68.2c-1.7,0.5-3.3,1.3-5,1.4c-1.1,0.1-2.3-0.7-3.4-1.2c2-1.4,3.9-3,6-4c0.9-0.4,2.4,0.6,3.6,0.9
			C73.5,66.3,73.1,67.2,72.6,68.2z"/>
		<path class="st1" d="M71.7,32.2c0.2,1.5,0.5,2.7,0.5,3.8c0,0.4-1.1,0.7-1.7,1c-0.3-1.2-0.8-2.3-0.8-3.5
			C69.6,33.2,70.7,32.8,71.7,32.2z"/>
	</g>
	<text transform="matrix(1 0 0 1 25.194 23.7166)" class="st2 st3">大篆</text>
	<text transform="matrix(1 0 0 1 153.1036 23.7168)" class="st2 st3">小篆</text>
</g>
</svg>
