<svg enable-background="new 0 0 400 400" viewBox="0 0 400 400" xmlns="http://www.w3.org/2000/svg"><g fill="#000001"><path d="m191.7 272c-12.2 1.1-23-3.3-34.4-7.3-1.6 7.7-3.4 15.1-4.6 22.6-2.6 16.5-5.7 32.9-13.3 48-1.1 2.2-2.1 4.4-3.5 6.4-1 1.5-2.4 3.3-3.9 3.8-2.2.7-4.8.9-7 .2-.8-.2-1-3.6-.8-5.4.6-3.6 1.3-7.3 2.7-10.6 7.3-17 10.1-35.1 13-53.2 1.2-7.3 3-14.5 3.6-21.9.8-8.6.6-17.2 1-25.8.1-3.2.4-6.4 1.1-9.5.5-2.3-.1-3.3-2.2-4.3-5.7-2.6-11.4-5.4-17.1-8.1-10.7-5-15.7-13.9-16.5-25.2-.8-11.4 2.9-21.9 9.1-31.3 1.6-2.4 3.4-5.8 7.4-5.1 4.4.8 7.1 4.4 5.9 8.8-1.1 4.1-2.9 8.1-4.7 12-3 6.8-5.3 13.7-2.9 21.1.7 2.1 2.2 4.4 4 5.8 10.6 8.4 22.8 12.3 36.1 13.3 11.5.9 21.8 4.7 31.4 11.2 9 6.2 12.9 14.9 13.3 25.3.2 4.9-.5 9.9-.9 15.5 1.7 0 3.7.5 5.4-.1 7-2.2 14-4.6 21-7.2 1.1-.4 2.3-2 2.4-3.1.6-6.2.9-12.5 1.1-18.7.1-3.6-.5-7.3-.3-10.9.3-4.7 2.8-8 7.4-9.6 1.7-.6 2.5-.3 3.4 1.4 2.8 5.4 3.8 11.1 3.6 17-1.2 30.3-2.3 60.5-3.9 90.8-.5 9.8-2.5 19.5-3.9 29.2-.4 2.7-2.8 3.3-5 3.3-2.4-.1-5.3-.4-5.4-3.6-.3-7.6-.7-15.2-.2-22.8 1.2-19.1 2.9-38.1 4.4-57.2 0-.4 0-.9-.1-1.8-3.2.8-6.3 1.5-9.3 2.2-6.3 1.5-12.6 3.2-19 4.5-2.2.5-3 1.5-3.4 3.6-3.3 19.9-6.7 39.9-10.2 59.8-1.8 9.8-3.9 19.5-6.1 29.2-1 4.4-3.4 7.9-8.2 9.1-2.1.5-3.3-.1-4.4-1.9-1.7-2.9-1.7-5.8-.9-8.9 2.7-10.5 6.1-20.8 7.8-31.5 2.9-18.5 4.8-37.2 7.1-55.9 0-.9-.1-1.7-.1-3.2zm-33.2-54.5c0 11.2-.1 21.9.1 32.6 0 .9 1.3 2.2 2.2 2.5 5 1.7 10.1 3.1 15.2 4.6 5.5 1.6 11 2.4 16.7 1 .9-.2 2.1-1.3 2.2-2.2.4-3.8.9-7.7.6-11.6-.4-6.3-2.3-12-8.1-15.5-8.8-5.3-18.5-8.7-28.9-11.4z"/><path d="m194.7 28.3c5.1.4 7.6 2.3 8.4 6.8.6 3.6 1 7.2 1 10.9.1 16 .1 32.1 0 48.1 0 2.6.6 3.7 3.4 4.1 5.4.7 10.7 1.8 16 2.8 9.7 1.9 16.4 8.8 17.4 18.7.7 7.3.5 14.6-2.4 21.5-.6 1.4-1.9 3-3.3 3.6-12.4 5.5-25.5 7.4-39 7.8-5 .1-10.2.7-14.9 2.1-6.9 2.1-11 10.9-9.1 17.9.2.8 1.4 1.6 2.3 2 11.5 5.4 23.8 6.6 36.3 5.4 12.8-1.2 25.5-1.4 38.2 1.6 15.6 3.7 25.4 13.3 30.7 28.1 4.5 12.6 6.2 25.8 7.7 38.9 2.8 24.6 4.8 49.3 4.4 74.1-.2 12.1-1.8 24.2-2.8 36.3-.3 3.3-2.8 3.8-5.2 3.8-2.3 0-4.7-.2-5-3.5-.3-4-1.1-7.9-1.3-11.8-1-21.1-1.8-42.2-2.8-63.2-.6-12.6-1.4-25.2-2.4-37.7-.6-7.3-1.6-14.5-2.5-21.7-2.8-21.6-17.7-32-37.6-33.1-11.1-.6-22.3 1-33.4.9-7.4-.1-14.8-.9-22.1-2.1-14.6-2.6-22.6-16.3-18.9-31.2 1.8-7.2 5.5-12.4 12.5-15 5.7-2.2 11.3-4.4 17-6.5 2.4-.9 3.3-2.2 3.3-4.9-.4-22-.9-44-1-66-.1-11.4.6-22.8 3.8-33.8.1-1.6.7-3.2 1.3-4.9zm10.3 111.2c5.4-.6 10.6-.5 15.6-1.8 2.8-.7 6-3 7.4-5.5 2.1-3.8-1.6-13.2-5.5-15.7-5.3-3.4-11.3-4-17.5-3.8z"/><path d="m243.5 43.5c-.2-5 1.1-9.6 3.9-13.8 1.1-1.6 2.4-1.9 3.5-.6 2.2 2.8 5.1 5.7 5.8 8.9 1.7 8 2.6 16.1 3.4 24.2.9 8.5 2.3 16.8 6.1 24.6 2.5 5 4.7 10.3 6.6 15.5 3.3 8.8 8 16.6 14.1 23.8 2.6 3.1 4.6 7 6 10.9 1.6 4.3-2.4 8-6.8 6.5-1.8-.6-3.7-1.7-5-3-11.6-11.7-20.3-25.3-25.7-40.9-6.3-18.1-10.5-36.8-11.9-56.1z"/><path d="m150 45.1c-2.5 11.6-4.7 23.3-7.7 34.8-4.3 16.5-10.8 32.3-19 47.1-3 5.5-8.1 9.8-12.5 14.4-1 1.1-2.9 1.5-4.5 1.8-4.1.6-5.3-.8-5.6-4.9-.2-3.2.7-5.5 3-7.9 15.7-16.5 23.5-36.9 27.6-58.8 1.7-9.1 1.5-18.5 2.9-27.6.7-4.8 3-9.4 4.5-14 .7-1.9 2-2 3.7-1.4 4 1.6 5.6 4.8 6.2 8.7.4 2.5.5 5.1.7 7.6.2.1.5.2.7.2z"/></g><path d="m362.1 8.8c1.1.8 2.1 1.6 3.1 2.4l-1 1.1c-1.3-1.1-2.3-2-3-2.5zm1.9 4.8c.5.2.9.4 1.4.5-.6 2.3-1.3 4.5-1.9 6.8l-1.5-.5c.8-2.1 1.4-4.3 2-6.8zm-1-9.4c1.3.9 2.4 1.8 3.4 2.5l-1 1.1c-1.4-1.2-2.4-2.1-3.2-2.6zm3.7 2.2v-1.4h10.3v1.2c-.5 3.6-1.8 6.8-4 9.4 1.5 1.6 3.4 2.8 5.7 3.8-.3.4-.7.8-1.1 1.4-2.3-1.1-4.1-2.5-5.6-4.1-1.6 1.6-3.6 3.1-5.9 4.3-.3-.5-.7-.9-1-1.3 2.4-1.1 4.4-2.5 6-4.1-1.9-2.5-3-5.6-3.3-9.3h-1.1zm8.8 0h-6.4c.3 3.3 1.3 6 3 8.2 2-2.3 3.1-5.1 3.4-8.2z" fill="#fafafb"/><path d="m385.3 3.8h1.3v2.2h2.8v-2.2h1.3v2.2h4.1v9.1h1.7v1.3h-16.9v-1.3h1.7v-9.1h4.1v-2.2zm.4 13.1.7 1.2c-1.8.9-3.8 1.9-6 2.9-.2-.4-.5-.8-.8-1.3 2.3-1 4.3-1.9 6.1-2.8zm-3.1-6.4h2.8v-3.2h-2.8zm0 4.6h2.8v-3.3h-2.8zm4-4.6h2.8v-3.2h-2.8zm0 4.6h2.8v-3.3h-2.8zm3.7 1.9c2.1.9 4.1 1.8 6.1 2.7l-.7 1.3c-2.2-1.1-4.2-2-6.1-2.9zm3.2-9.7h-2.8v3.2h2.8zm-2.8 7.8h2.8v-3.3h-2.8z" fill="#fafafb"/></svg>