<svg enable-background="new 0 0 400 400" viewBox="0 0 400 400" xmlns="http://www.w3.org/2000/svg"><path d="m203.8 193.6v18.4c-.2 39.9-.6 79.8-.7 119.8 0 8.5.6 17 .6 25.5 0 3.4-.6 6.8-1.4 10.1-.4 1.6-1.5 3.3-2.7 4.4-3.1 2.8-6.9 2.3-8-1.6-1.6-5.4-3.2-11.1-3.2-16.7-.2-40.1.1-80.3.2-120.4 0-11.8 0-23.7 0-35.5 0-3.4-1.1-4.5-4.4-3.6-9.9 2.7-18.9 6.5-24.7 16.2-6.8 11.5-10.2 23.9-12.1 36.9-1.4 9.4-3 18.8-4.4 28.2-.4 3-.3 6.2-.4 9.3-.2 11.5-.3 23-.6 34.5-.1 5.7-2.9 8.8-7.5 9.3-1.8.2-3.4-.1-3.9-2.1-1.1-4.5-3.1-9-3-13.4.4-13.3 1.7-26.7 2.7-40 .7-8.4 1.4-16.8 2.4-25.1.5-4 1.3-8.1 2.6-11.9 3.4-10.1 7.1-20.2 10.8-30.2.6-1.6 1.6-3.2 2.8-4.4 5.4-5.1 10.7-10.2 16.5-14.8 2.6-2 6.4-2.8 9.7-3.8 4.3-1.3 8.7-2.3 13.2-3.4 0-8.8 0-17.4 0-26.3-6-1.4-12-3.1-18-4.1-6.6-1.2-12.6-3.6-17.8-7.6-5.7-4.3-11.4-8.8-16.4-13.9-8.2-8.4-9.7-18.7-7.2-29.9 5.5-1.6 6.6-1 9.1 3.6 2.9 5.5 5.6 11.1 8.9 16.3 3.5 5.6 8.5 10 14.8 12.3 8.4 3.1 16.9 5.7 26.2 8.7 0-18.6 0-36.2 0-54.4-3.3 0-6.9 0-10.5 0-18.7-.2-37.4-.4-56-.7-7.5-.1-15-.4-22.4-1.1-4.8-.5-6.5-3.5-4.9-7.7.5-1.2 1.9-2.5 3.1-2.8 12.4-3.5 25.1-3.4 37.8-3 16.8.6 33.6.7 50.4 1 .4 0 .8-.1 2.1-.3.4-8.1.9-16.2 1.2-24.3.2-6.2 1.7-11.9 5.2-17 7.8 1.6 11.4 6.9 10.4 15.2-.6 4.6-1.3 9.2-1.8 13.8-.1 1-.1 2-.1 3 0 9.1.6 9.7 9.4 9.7h73.3c2.5 0 5.1.1 7.6.4 6.4.7 8.3 2.7 9.4 10-7 1.2-14 3.2-21.1 3.4-16 .4-32-.2-48-.3-9.2-.1-18.3 0-28 0-.6 17.8-1.1 35.5-1.7 53.3 4.8 1.6 9.4 1.2 13.9 0 11.5-2.9 21-9.4 29.2-17.6 3.6-3.6 5.1-9.1 7.3-13.9 1.7-3.7 3.2-7.3 7-9.3 4-2.1 5.5-1.6 7.3 2.5 3 6.7.2 12.8-2.1 18.8-3.4 9-11.2 14-18 19.9-9.3 8.1-20.8 10.8-32.5 13-3.5.7-8 .6-9.9 2.8-1.8 2-1 6.5-1.2 9.9-.4 5.4-.7 10.8-1.1 16.6 3.9 1.1 7.6 2.5 11.5 3.1 15.4 2.3 25.1 12 32.8 24.5 7 11.2 9.6 23.6 10.9 36.5 1.3 13.9 3.3 27.7 4.3 41.6.7 9.7.3 19.5.4 29.2 0 3.2-.1 6.4 0 9.6.1 2.7-1.4 4.3-3.5 4.9-2.2.7-4.6.5-6.2-1.8-2.3-3.3-3.1-7-3-11 .4-28.5-3.6-56.7-7.9-84.7-1.9-12.9-7.7-23.9-19.3-31.1-5.9-3.8-12.1-5.7-19.4-6.5z" fill="#000001"/><g fill="#fafafb"><path d="m362.1 8.8c1.1.8 2.1 1.6 3.1 2.4l-1 1.1c-1.3-1.1-2.3-2-3-2.5zm1.9 4.8c.5.2.9.4 1.4.5-.6 2.3-1.3 4.5-1.9 6.8l-1.5-.5c.8-2.1 1.4-4.3 2-6.8zm-1-9.4c1.3.9 2.4 1.8 3.4 2.5l-1 1.1c-1.4-1.2-2.4-2.1-3.2-2.6zm3.7 2.2v-1.4h10.3v1.2c-.5 3.6-1.8 6.8-4 9.4 1.5 1.6 3.4 2.8 5.7 3.8-.3.4-.7.8-1.1 1.4-2.3-1.1-4.1-2.5-5.6-4.1-1.6 1.6-3.6 3.1-5.9 4.3-.3-.5-.7-.9-1-1.3 2.4-1.1 4.4-2.5 6-4.1-1.9-2.5-3-5.6-3.3-9.3h-1.1zm8.8 0h-6.4c.3 3.3 1.3 6 3 8.2 2-2.3 3.1-5.1 3.4-8.2z"/><path d="m385.3 3.8h1.3v2.2h2.8v-2.2h1.3v2.2h4.1v9.1h1.7v1.3h-16.9v-1.3h1.7v-9.1h4.1v-2.2zm.4 13.1.7 1.2c-1.8.9-3.8 1.9-6 2.9-.2-.4-.5-.8-.8-1.3 2.3-1 4.3-1.9 6.1-2.8zm-3.1-6.4h2.8v-3.2h-2.8zm0 4.6h2.8v-3.3h-2.8zm4-4.6h2.8v-3.2h-2.8zm0 4.6h2.8v-3.3h-2.8zm3.7 1.9c2.1.9 4.1 1.8 6.1 2.7l-.7 1.3c-2.2-1.1-4.2-2-6.1-2.9zm3.2-9.7h-2.8v3.2h2.8zm-2.8 7.8h2.8v-3.3h-2.8z"/></g></svg>