<svg enable-background="new 0 0 400 400" viewBox="0 0 400 400" xmlns="http://www.w3.org/2000/svg"><path d="m283.4 349.3c-2.4.5-3.9.5-5.2 1.1-3.5 1.4-5.2-.1-5.9-3.3-.4-1.7-.8-3.4-.9-5.2-1.2-21.4-2.2-42.8-3.5-64.2-.7-11.3-1.8-22.7-2.8-34.2-19.6 0-38.9 0-58.7 0v18c-.2 26.2-.4 52.4-.6 78.6-.1 7.5.2 15-.1 22.5-.1 2.6-.9 5.2-2 7.5-1.3 2.6-4.1 3.8-6.7 3.1-1.4-.4-3-2.6-3.3-4.2-.9-4-1.7-8.2-1.7-12.4-.1-35.7 0-71.4 0-107.2 0-1.3 0-2.6 0-4.4-19.3-.9-38.3-1.8-57.9-2.8-.6 3.5-1.2 7-1.9 10.5-3.5 15.2-3.2 30.7-3.9 46.2-.6 14.8-.8 29.6-1.4 44.4-.2 5.7-3 8.5-7.8 8-1.2-.1-3-1.1-3.3-2-1.5-4.3-3.7-8.9-3.5-13.2 1.4-32.8.7-65.7 6.1-98.2 3.1-18.6 9.1-36.2 19.1-52.3 1.1-1.7 2.7-3.2 4.2-4.6 8.4-8.1 16.9-16.1 27.8-20.6 5.3-2.2 11.2-2.9 17-3.8 3.1-.5 4.3-1.4 4.3-4.7.1-5.9.8-11.9 1.4-18.4-7.3-1.4-14.5-2.6-21.5-4.3-6.3-1.5-12.7-3.1-18.7-5.6s-9.8-7.9-12.4-13.7c-6.6-14.4-7.7-29.8-6.9-45.4.1-2 .5-3.9.8-5.9 1.2-6.6 1.2-6.6 9-7.6 1.7 7.1 3.8 14.3 5 21.7 1.2 7.9 1 16.1 2.2 24.1 1.7 11.3 11.2 19.3 22.8 20 6.3.4 12.5 1 19.3 1.5.6-5.1 1.6-9.9 1.5-14.7-.2-11-.8-22.1-1.7-33.1-1.2-14-1.4-27.8 4.4-41.1.2-.5.5-1 .7-1.4 5.8.5 9.1 3.5 9.3 9.2.3 8.9 0 17.9.1 26.8.2 16.9.5 33.8.5 50.7 0 3.6 1.7 4.6 4.5 4.4 4.4-.4 8.7-1.2 13-2.1 2.3-.5 4.4-1.6 6.6-2.1 10.5-2.5 15.8-10 17.8-19.7 1.7-8.2 2-16.6 2.8-25 .4-4.3.6-8.6 1.2-12.8.2-1.6 1.2-3.4 2.4-4.5 3.1-3 5.7-2.4 7.6 1.5 4.5 9.1 5.1 18.8 2.9 28.5s-5.2 19.2-8 28.7c-.5 1.7-1.8 3.2-3.1 4.6-10.2 11.2-23.3 15.8-38.1 16.5-3.3.2-6.6.8-10 1.2v21.6c5.6 1.5 11.2 3.4 16.9 4.3 17.9 2.9 30 13.4 39.3 28.3 7.9 12.5 11.7 26.4 13.9 40.8s5.1 28.8 6.4 43.3c1.2 14.5.8 29.2 1 43.7-.2 11-.3 22.1-.3 33.4zm-91-121.6c0-18 0-35.5 0-53.1 0-3.4-2.7-5.4-6.5-4.9-2.4.3-4.8.7-7.1 1.5-14.7 5.1-25.7 14.9-33.4 28.1-5.2 8.9-8.7 18.5-9 29.4 18.5-.3 36.8-.6 56-1zm69.7.9c-3.2-16.7-10.2-31.3-21.5-43.6-9-9.8-20.6-14.5-34-15.3v58.8c18.5.1 36.8.1 55.5.1z" fill="#000001"/><g fill="#fafafb"><path d="m362.1 8.8c1.1.8 2.1 1.6 3.1 2.4l-1 1.1c-1.3-1.1-2.3-2-3-2.5zm1.9 4.8c.5.2.9.4 1.4.5-.6 2.3-1.3 4.5-1.9 6.8l-1.5-.5c.8-2.1 1.4-4.3 2-6.8zm-1-9.4c1.3.9 2.4 1.8 3.4 2.5l-1 1.1c-1.4-1.2-2.4-2.1-3.2-2.6zm3.7 2.2v-1.4h10.3v1.2c-.5 3.6-1.8 6.8-4 9.4 1.5 1.6 3.4 2.8 5.7 3.8-.3.4-.7.8-1.1 1.4-2.3-1.1-4.1-2.5-5.6-4.1-1.6 1.6-3.6 3.1-5.9 4.3-.3-.5-.7-.9-1-1.3 2.4-1.1 4.4-2.5 6-4.1-1.9-2.5-3-5.6-3.3-9.3h-1.1zm8.8 0h-6.4c.3 3.3 1.3 6 3 8.2 2-2.3 3.1-5.1 3.4-8.2z"/><path d="m385.3 3.8h1.3v2.2h2.8v-2.2h1.3v2.2h4.1v9.1h1.7v1.3h-16.9v-1.3h1.7v-9.1h4.1v-2.2zm.4 13.1.7 1.2c-1.8.9-3.8 1.9-6 2.9-.2-.4-.5-.8-.8-1.3 2.3-1 4.3-1.9 6.1-2.8zm-3.1-6.4h2.8v-3.2h-2.8zm0 4.6h2.8v-3.3h-2.8zm4-4.6h2.8v-3.2h-2.8zm0 4.6h2.8v-3.3h-2.8zm3.7 1.9c2.1.9 4.1 1.8 6.1 2.7l-.7 1.3c-2.2-1.1-4.2-2-6.1-2.9zm3.2-9.7h-2.8v3.2h2.8zm-2.8 7.8h2.8v-3.3h-2.8z"/></g></svg>