<svg enable-background="new 0 0 400 400" viewBox="0 0 400 400" xmlns="http://www.w3.org/2000/svg"><g fill="#000001"><path d="m260.4 96.8c3.6-10.4 6.1-20.2 2.5-30.6-1.6-4.6-4.3-8-8.4-10.6-11.7-7.2-24.6-10.5-38.1-11.2-21.5-1.1-43.1-1.4-64.6-2.1-3.6-.1-7.3-.4-10.9-.7-1.2-.1-2.4-.5-3.5-.9-3.6-1.4-5.8-4.9-5.3-8.3.3-1.8 4.8-4.6 7.7-4.6 9.3.1 18.6.3 27.8.5 20.4.5 40.6 2 60.7 5.4 11 1.9 22.1 3.9 31.9 9.5 14 8 19.7 20.5 18.9 36.3-.6 11.8-4.1 22.7-8.6 33.5-.9 2-1 4.7-.5 6.9 2.5 11.2 5.6 22.3 7.9 33.5 1.4 6.9 1.5 14 2.1 21.1 2.2 26.1 4.2 52.2 6.5 78.3 2.7 30.6 4.9 61.3 5.5 92 .1 8.2 0 16.3 0 25-2 .4-4.7 1-7.5 1.6-4.2-7-5.9-14.7-6.2-22.7-.4-12.4-.2-24.8-1-37.1-1.6-24-3.7-48.1-5.6-72.1-1.4-17.9-2.3-35.8-4.4-53.5-2.1-18.4-3-37-8.5-54.9-.3-1-.6-2.1-1-3.2-4.8 1.1-9.5 2-14 3.3-11.4 3.4-23.1 3.7-34.8 4.1-21.7.9-43.5 1.9-65.2 2.8-3.2.1-6.4-.1-9.6-.5-1.6-.2-3.7-.7-4.5-1.8-1.4-1.9-2.5-4.4-2.7-6.7-.1-.9 2.5-2.5 4.1-2.9 2.9-.8 6-1.4 9.1-1.5 16-.7 32-1.2 48-1.9 14.4-.6 28.7-1.2 43-2.2 4.8-.3 9.6-1.6 14.1-3.3 6-2.3 6.6-7.8 1.7-11.9-15.4-12.8-33.2-18.6-53-18.2-24.4.5-48.8 1.5-73.2 2.2-4 .1-7.9-.2-11.9-.6-1.4-.2-3-1-4.1-1.9-2.4-1.9-2.7-4.7-1.8-7.3.4-1.1 2.6-2.2 4-2.4 6.1-.8 12.3-1.2 18.4-1.7 10.8-1 21.5-2.5 32.3-2.9 27.2-1 54.4-.1 80.7 8.2 4.1 1.3 7.7 3.1 10.8 6.1 3.5 3.3 7.2 6.3 11.2 9.9z"/><path d="m190 279.5c-5.5 11-10.5 22.6-17 33.3-7.2 11.8-15.7 22.7-23.7 33.9-4.4 6.2-9.1 12.2-13.6 18.4-2.5 3.5-5.6 6.3-9.8 7.5-4 1.2-6.8-.8-6.4-5 .2-2.4 1.1-5.1 2.5-7 5.4-7.6 10.6-15.3 16.7-22.3 23.2-26.6 36.4-57.8 43.3-92.1 3.2-15.6 2.1-31.2 2.7-46.9.5-13 .7-26.1 1.1-39.1.2-4 2.3-7.3 5.2-9.9 5.9 2.3 8.8 6.5 8.7 13.5-.2 18.1-.6 36.2-1 54.4-.5 19.3-.1 38.4 5.5 57.1 6.6 22.1 17.7 41.5 32.5 59 5.9 7 11.5 14.2 16.9 21.6 1.6 2.2 2.2 5.3 2.8 8 .9 3.9-2.1 6.5-6 5.1-1.7-.6-3.4-1.7-4.7-3-16.8-17-31.7-35.5-42.7-56.8-4.6-8.8-8-18.2-11.9-27.3-.4-.9-.9-2-1.1-2.4z"/><path d="m148.5 164c6.8 1.1 9.5 3.7 10.3 10 4 30.5 5.1 61-1.5 91.3-1.3 6-3.6 11.8-5.5 17.7-1.2 3.8-4.7 2.5-7.3 2.8-.8.1-2.4-1.9-2.5-3.1-.4-3.9-1.4-8.1-.3-11.7 4.7-16 3.6-32.4 4.4-48.7.3-5.6.6-11.3.5-16.9-.2-7.7-.8-15.4-1.5-23.1-.8-6.4.3-12.5 3.4-18.3z"/><path d="m241.5 280.7c-.3.3-.4.4-.5.4-9.5 1.8-7.2 3.6-11.4-5.6-5.4-11.9-6.3-24.7-7.1-37.5-1-15.8-2.5-31.5-3.8-47.2-.7-8.9-.6-17.6 3.6-25.9 1.3-2.6 2.8-2.9 5.2-2 3.1 1.3 5.2 3.4 5.5 6.8.3 2.9.3 5.7.5 8.6.8 13 1.4 26 2.5 39 1.7 20.4 3.7 40.7 5.6 61 0 .8-.1 1.5-.1 2.4z"/></g><path d="m362.1 8.8c1.1.8 2.1 1.6 3.1 2.4l-1 1.1c-1.3-1.1-2.3-2-3-2.5zm1.9 4.8c.5.2.9.4 1.4.5-.6 2.3-1.3 4.5-1.9 6.8l-1.5-.5c.8-2.1 1.4-4.3 2-6.8zm-1-9.4c1.3.9 2.4 1.8 3.4 2.5l-1 1.1c-1.4-1.2-2.4-2.1-3.2-2.6zm3.7 2.2v-1.4h10.3v1.2c-.5 3.6-1.8 6.8-4 9.4 1.5 1.6 3.4 2.8 5.7 3.8-.3.4-.7.8-1.1 1.4-2.3-1.1-4.1-2.5-5.6-4.1-1.6 1.6-3.6 3.1-5.9 4.3-.3-.5-.7-.9-1-1.3 2.4-1.1 4.4-2.5 6-4.1-1.9-2.5-3-5.6-3.3-9.3h-1.1zm8.8 0h-6.4c.3 3.3 1.3 6 3 8.2 2-2.3 3.1-5.1 3.4-8.2z" fill="#fafafb"/><path d="m385.3 3.8h1.3v2.2h2.8v-2.2h1.3v2.2h4.1v9.1h1.7v1.3h-16.9v-1.3h1.7v-9.1h4.1v-2.2zm.4 13.1.7 1.2c-1.8.9-3.8 1.9-6 2.9-.2-.4-.5-.8-.8-1.3 2.3-1 4.3-1.9 6.1-2.8zm-3.1-6.4h2.8v-3.2h-2.8zm0 4.6h2.8v-3.3h-2.8zm4-4.6h2.8v-3.2h-2.8zm0 4.6h2.8v-3.3h-2.8zm3.7 1.9c2.1.9 4.1 1.8 6.1 2.7l-.7 1.3c-2.2-1.1-4.2-2-6.1-2.9zm3.2-9.7h-2.8v3.2h2.8zm-2.8 7.8h2.8v-3.3h-2.8z" fill="#fafafb"/></svg>