<svg enable-background="new 0 0 400 400" viewBox="0 0 400 400" xmlns="http://www.w3.org/2000/svg"><g fill="#000001"><path d="m168.5 61.4c-9.1.7-16.8 4.2-24.1 8.7-7.1 4.4-14.3 8.8-21.3 13.5-2.5 1.7-4.5 4.2-6.8 6.2-5.6 5-11.3 10-18.8 12.1-2.5.7-5.5 2.6-7.6-1.1-1.6-2.8-.9-7.3 2-9.6 8.9-7.2 17.6-14.9 27.1-21.2 27.4-18.2 57-31.3 89.2-38 18.6-3.9 37.3-4.3 56.1-2.4 24.6 2.6 43.8 22.6 45.6 47.3.4 5.6.1 11.3-.8 16.8-.8 4.9-2.2 9.6-5.7 13.8-10.6 12.9-25 16.8-40.6 17.6-28.2 1.5-56.1 5.4-83.8 10.4-15.3 2.8-30.3 7.4-43.1 17-13.8 10.4-23.7 23.9-31 39.5-1.9 4-3.4 8.2-5.2 12.2-2 4.4-5.1 7.3-10 8.3-2 .4-3.4 0-3.5-2.1-.1-3.4-.6-7 .4-10.1 3.9-12.8 9.4-25.3 17.9-35.2 11.8-13.8 25.1-26.6 41.8-34.8 4.6-2.2 9.9-2.9 14.9-4.4 3.2-1 6.6-2 9.5-3.7 1.3-.7 2.4-3 2.3-4.5-1.2-18.1-2.6-36.2-4-54.2 0-.6-.3-1.2-.5-2.1zm76.4 51.2c9.4-1 18.5-1.9 27.6-3 6.8-.8 12.6-4 17.7-8.5.8-.7 1.6-1.5 2.1-2.5 3.7-7.3 5.1-15.1 3.2-23.1-2.7-11.6-9.9-20.1-19.7-26.4-2.5-1.6-5.6-2.7-8.5-3.2-6.4-1.1-12.9-1.6-19.4-2.3-6.1-.7-7.4.5-7 6.8.1 1 .3 2 .4 3 .5 4.6 1.3 9.2 1.6 13.8.5 7.2.6 14.4.9 21.5.3 7.8.7 15.8 1.1 23.9zm-14.4.1c.1-1 .3-1.8.3-2.6-.2-12.3-.2-24.5-.8-36.8-.5-9.1-2.1-18-6-26.3-.9-1.8-1.8-2.4-3.8-1.7-5.2 1.6-10.4 2.9-15.6 4.4-7.5 2.1-15 4.2-22.7 6.4 1.9 21 3.7 41.8 5.6 62.8 14.6-2.2 28.8-4.2 43-6.2z"/><path d="m208 137.8c6.5.7 9.7 4 9.7 10.5.1 12.5-.1 25 .1 37.5.5 22.8 1.8 45.5 5.9 68 3.8 20.7 12.8 39.1 24.3 56.5 9.6 14.7 20.9 27.9 33 40.6 4.5 4.7 8.3 9.8 9.9 16.2.5 1.9.7 3.9 1.1 6.2-3.5 0-6.5.1-9.6-.1-.9-.1-1.8-1.1-2.6-1.8-23.7-24-43.5-51-58.4-81.2-5.1-10.4-7.8-22-11.5-33.1-.6-1.7-1.1-3.4-1.8-5.7-.6 1.3-1.1 2.1-1.3 3-10.2 32.1-27.5 60.1-48.9 85.8-5.6 6.7-10.8 13.7-16.4 20.4-3.9 4.6-8.6 8-14.9 8.3-4.1.2-6.7-2.2-5.9-6.2.5-2.6 1.8-5.6 3.7-7.4 20.5-20.4 38.4-42.7 52.3-68.2 12-21.9 20.3-45.2 23.5-70 1.9-14.7 1.8-29.8 2.3-44.7.4-11.3 1.4-22.5 5-33.3-.1-.4.2-.7.5-1.3z"/><path d="m284.8 295.1c-1.9.3-3.4.6-4.9.8-6.1 1-6.1 1-8.5-4.8-5.3-12.7-8.1-26-9.1-39.6-2-28.4-3.2-56.9-4.8-85.4-.3-6.3 1.8-11.7 5.3-16.7 1.5-2.2 3-2.1 4.9-.9 3.1 1.9 4.6 4.8 5 8.2.4 3.8.7 7.7.4 11.6-1.1 14 .8 27.8 1.9 41.7 1.1 14.4 2.1 28.9 3.8 43.3 1.5 12.8 3.8 25.6 5.7 38.3 0 1 .2 2.1.3 3.5z"/><path d="m161.6 151.8c6.8 3.2 9.6 8.9 9.4 15.9-.2 8.5-.9 17-1.9 25.4-1.8 15.4-3 30.8-6 46-3.2 15.7-8 31.2-12.7 46.6-.9 2.8-4.7 4.9-7.6 6.7-2.3 1.3-4.4 0-4.7-2.8-.2-2.9-.8-6.2.2-8.7 6-13.9 7.2-28.8 9.5-43.5 2.9-18.4 5.8-36.9 8.2-55.4.8-6.1.4-12.3.4-18.5.2-4.7 1.8-8.5 5.2-11.7z"/></g><path d="m362.1 8.8c1.1.8 2.1 1.6 3.1 2.4l-1 1.1c-1.3-1.1-2.3-2-3-2.5zm1.9 4.8c.5.2.9.4 1.4.5-.6 2.3-1.3 4.5-1.9 6.8l-1.5-.5c.8-2.1 1.4-4.3 2-6.8zm-1-9.4c1.3.9 2.4 1.8 3.4 2.5l-1 1.1c-1.4-1.2-2.4-2.1-3.2-2.6zm3.7 2.2v-1.4h10.3v1.2c-.5 3.6-1.8 6.8-4 9.4 1.5 1.6 3.4 2.8 5.7 3.8-.3.4-.7.8-1.1 1.4-2.3-1.1-4.1-2.5-5.6-4.1-1.6 1.6-3.6 3.1-5.9 4.3-.3-.5-.7-.9-1-1.3 2.4-1.1 4.4-2.5 6-4.1-1.9-2.5-3-5.6-3.3-9.3h-1.1zm8.8 0h-6.4c.3 3.3 1.3 6 3 8.2 2-2.3 3.1-5.1 3.4-8.2z" fill="#fafafb"/><path d="m385.3 3.8h1.3v2.2h2.8v-2.2h1.3v2.2h4.1v9.1h1.7v1.3h-16.9v-1.3h1.7v-9.1h4.1v-2.2zm.4 13.1.7 1.2c-1.8.9-3.8 1.9-6 2.9-.2-.4-.5-.8-.8-1.3 2.3-1 4.3-1.9 6.1-2.8zm-3.1-6.4h2.8v-3.2h-2.8zm0 4.6h2.8v-3.3h-2.8zm4-4.6h2.8v-3.2h-2.8zm0 4.6h2.8v-3.3h-2.8zm3.7 1.9c2.1.9 4.1 1.8 6.1 2.7l-.7 1.3c-2.2-1.1-4.2-2-6.1-2.9zm3.2-9.7h-2.8v3.2h2.8zm-2.8 7.8h2.8v-3.3h-2.8z" fill="#fafafb"/></svg>