<svg enable-background="new 0 0 400 400" viewBox="0 0 400 400" xmlns="http://www.w3.org/2000/svg"><path d="m181.3 174.6c-8.4-1.2-16.5-2.1-24.5-3.6-6-1.2-12.1-2.7-17.8-5-5.2-2.1-8.5-6.8-10.8-11.8-6.9-15-9.2-30.6-5.4-46.8 1-4.2 4-6 8.2-4.9.7.2 1.3 1.1 1.7 1.8 3.8 6.9 3.6 14.4 3.2 22-.2 3.4-.1 6.9.3 10.2 1.3 13.6 12.3 21.1 23.2 21.9 8.5.6 16.9 1.5 25.7 2.3.1-.4.5-1.1.6-1.8 1-11.2 1.9-22.5 3-33.7.2-2.2-.4-3.1-2.6-3.5-7.5-1.5-14.8-3.5-22.4-4.7-6.3-1-10.3-4.7-13.5-9.6-4.8-7.3-6.4-15.6-6.5-24-.2-7 .3-14.1 1.2-21.1.8-5.7 1.3-5.7 7.8-6.7 4.4 9 6.8 18.5 5.9 28.6-.9 9.5 1.9 15.1 10.8 18.5 6.1 2.4 12.6 3.6 19.5 5.5 1.6-8.1 3.1-15.3 4.3-22.5 1.2-7.5 2.4-15.1 3.2-22.6 1.4-13.4 9-21.8 20.8-27.2 7.1-3.3 14.7-4.7 22.5-5.1 12.6-.6 25.1-1.3 37.7-1.6 4.5-.1 8 2.2 9.8 6.7.8 2 .6 3.2-1.6 4.1-8.3 3.6-16.9 5.1-25.8 4.7-9.4-.4-18.7 0-28 1.9-10.4 2.1-16.8 8.4-20.5 17.8-4.6 11.9-5.6 24.5-6.2 37.1-.3 6.9.2 7.2 7.2 7.5 7.1.3 13.8-1.2 20.3-4 2.7-1.1 4.6-2.8 5-5.6 1.5-8.6 2.7-17.2 4.1-25.8.7-4.1 1.3-8.3 2.8-12.2.9-2.4 3.4-4.2 5.6-6.8 4.1 6 5.8 11.8 6.1 17.9.5 11.8-1.8 23.2-6.8 33.8-2.8 6-9 9.2-15 11.9-6.1 2.8-12.7 2.6-19.2 3-2.8.2-5.5.1-8.3.5-.9.1-2.2 1.2-2.3 2-1.7 11.9-3.2 23.9-4.8 35.8-.1.4 0 .9 0 1.8 3.3.4 6.6 1 9.8 1 13.8 0 27.3-1.9 40.4-6.4 2.2-.8 4.4-2.5 6-4.3 4.9-5.8 7.2-12.6 7.4-20.1.2-7.1.5-14.1.8-21.2.2-5.1 2.9-8 7.3-8.1 2.1-.1 3.5.7 3.9 2.7 1.2 5.6 3.5 11.2 3.3 16.7-.3 8.3-2.1 16.6-3.6 24.8-1.7 9-8 14.4-15.4 18.9-8.6 5.3-18.3 7.2-28 8.5-10.8 1.4-21.8 1.7-32.7 2.7-1.4.1-3.2 1.1-3.9 2.2-2.3 3.5-4.3 7.2-6.1 11-3 6.4-7.1 11.5-14 14.2-16.6 6.6-28.9 18.1-37.3 33.8-4.9 9.1-7.2 19-8.9 29-4.6 26.9-6.1 54-6.2 81.2 0 6.1-.5 12.1-1.3 18.2-.6 5.1-3.8 7.9-8 7.6-1.2-.1-2.8-1.1-3.4-2.2-2.8-5.4-2.8-11.2-2.5-17.1.9-15.7 1.5-31.4 2.7-47 1.7-22.2 3.7-44.3 11.3-65.4 2.2-6 4.3-12.2 7.6-17.6 5.1-8.7 11.7-16.3 20.4-21.7 5-3.1 10.2-5.7 15.4-8.3 8.3-4.5 13.2-10 16.5-19.8z" fill="#000001"/><path d="m181.8 284.6c0-16.4 3.1-32.4 5.1-48.5 1.7-13.4 10.9-20.5 22.8-23 15-3.2 30.4-2.6 45.4.7 12.7 2.8 19.7 11.6 21.1 24.5 2 19.4 5 38.8 3.8 58.5-.7 12.8-2.3 25.3-7.5 37.1-8 18.2-23.3 26.3-42.4 25.5-9.8-.4-19.2-2.7-28.1-6.9-1.5-.7-3.1-1.8-4.1-3.1-7.6-9.9-11.7-21.3-13.4-33.5-1.3-10.4-1.8-20.9-2.7-31.3zm17.3 25c-1.4 11.6 3.2 20.8 9 29.8.2.3.5.5.8.6 12 6.4 29.6 8.9 42.7-.9 8.1-6.1 11.1-14.6 12-24.1.4-4.1-1.1-5.4-5.1-5.4-10.7 0-21.4 0-32.2 0-9 0-17.9 0-27.2 0zm66.2-14.9c.5-6.5 1.5-12.4 1.3-18.2-.2-5.9-1.4-8.1-8-8.1-17.3 0-34.7-.5-52-.8-2.8 0-5.7 0-8.6 0v27.1zm-1.2-42.8c-.9-4.9-1.4-8.9-2.6-12.8-1.7-6.1-5.8-9.8-12-11.7-11.9-3.5-23.9-3.4-36-1.1-10.9 2.1-17.8 12.8-15.2 23.7.5 2 1.5 2.3 3.3 2.3 14.5-.2 28.9-.3 43.4-.4z" fill="#000001"/><g fill="#fafafb"><path d="m362.1 8.8c1.1.8 2.1 1.6 3.1 2.4l-1 1.1c-1.3-1.1-2.3-2-3-2.5zm1.9 4.8c.5.2.9.4 1.4.5-.6 2.3-1.3 4.5-1.9 6.8l-1.5-.5c.8-2.1 1.4-4.3 2-6.8zm-1-9.4c1.3.9 2.4 1.8 3.4 2.5l-1 1.1c-1.4-1.2-2.4-2.1-3.2-2.6zm3.7 2.2v-1.4h10.3v1.2c-.5 3.6-1.8 6.8-4 9.4 1.5 1.6 3.4 2.8 5.7 3.8-.3.4-.7.8-1.1 1.4-2.3-1.1-4.1-2.5-5.6-4.1-1.6 1.6-3.6 3.1-5.9 4.3-.3-.5-.7-.9-1-1.3 2.4-1.1 4.4-2.5 6-4.1-1.9-2.5-3-5.6-3.3-9.3h-1.1zm8.8 0h-6.4c.3 3.3 1.3 6 3 8.2 2-2.3 3.1-5.1 3.4-8.2z"/><path d="m385.3 3.8h1.3v2.2h2.8v-2.2h1.3v2.2h4.1v9.1h1.7v1.3h-16.9v-1.3h1.7v-9.1h4.1v-2.2zm.4 13.1.7 1.2c-1.8.9-3.8 1.9-6 2.9-.2-.4-.5-.8-.8-1.3 2.3-1 4.3-1.9 6.1-2.8zm-3.1-6.4h2.8v-3.2h-2.8zm0 4.6h2.8v-3.3h-2.8zm4-4.6h2.8v-3.2h-2.8zm0 4.6h2.8v-3.3h-2.8zm3.7 1.9c2.1.9 4.1 1.8 6.1 2.7l-.7 1.3c-2.2-1.1-4.2-2-6.1-2.9zm3.2-9.7h-2.8v3.2h2.8zm-2.8 7.8h2.8v-3.3h-2.8z"/></g></svg>