<svg enable-background="new 0 0 400 400" viewBox="0 0 400 400" xmlns="http://www.w3.org/2000/svg"><g fill="#000001"><path d="m193.8 70.1c.2-1.8.5-4.1 1-7.2-6.6 0-12.7.1-18.9 0-14.8-.2-29.6-.3-44.4-.7-3.2-.1-6.5-1.2-9.6-2.1-2.4-.8-3.8-2.7-3.4-5.4.4-2.5 1-4.7 4.1-5.6 12.2-3.5 24.7-3.3 37.2-3 10.7.3 21.4.3 32.2.2 1 0 2.4-1.3 2.9-2.3.5-1.1.4-2.6.2-3.9-.6-4.8 1.1-8.6 4.4-12 4.8 1.6 7.1 4.6 7.1 9.5 0 1-.1 2 0 3 .1 4.7 1.2 5.8 5.8 5.8 16.4 0 32.7-.1 49.1.1 3.9.1 7.8 1 11.7 2 1.5.4 3 1.5 4 2.7 3.3 3.6 2.8 6.1-1.5 8.2-8.9 4.3-18.3 4.6-27.9 4.2-10.8-.4-21.6-1-32.4-1.2-5.8-.1-7.5 1.5-8.7 8.2 6.7.8 13.3 1.7 19.9 2.3 5.4.4 10.9-.2 16.2.5 15.1 1.8 25.5 12.9 26.7 28.3.7 8.9-2.1 17.3-4.8 25.6-1 3.2-5.1 5.6-8.2 7.9-10.1 7.3-21.8 9.8-34.1 10-5 .1-9.9.4-15 .7-.3 2.5-.5 4.8-.9 7.7h13.9c17.2.2 34.5.3 51.7.6 4.2.1 8.3 1 12.4 1.8 2.6.5 4.4 2.2 4.7 4.9.3 2.5-.2 4.4-2.9 5.5-6.4 2.5-13 3.7-19.8 3.6-18.5-.4-36.9-.8-55.3-1.5-3.7-.1-5 1.2-4.9 4.6.2 5.2.3 10.4.4 15.5 0 2.3.2 4.7-.4 6.9-.5 1.7-1.9 3.6-3.4 4.5-3 1.9-5.6 1-6.3-2.4-1-4.9-1.1-10-1.6-15-.3-3.4-.2-6.8-.7-10.2-.4-2.6-2-4-5.1-3.9-23.1.2-46.2.3-69.3.3-3.2 0-6.4-.3-9.6-.9-3.1-.5-5.2-2.2-5.6-5.6-.3-2.8.3-5 3.3-5.5 7-1.3 14.1-3.3 21.1-3.3 18 0 36 .9 54 1.4 1.8.1 3.5.2 5.3.1 3.7-.2 6.7-3.5 6.1-7.2-.1-.7-1.6-1.6-2.5-1.7-11.8-1.7-23.6-3.5-35.5-4.8-6.6-.7-11.1-4.5-15.2-9.1-4.4-4.9-6.5-10.9-7.1-17.5-.7-9.4.2-18.5 3.1-27.5.4-1.2 1.2-2.3 2.1-3.2 6.4-6.3 14.6-9.1 23.2-10.3 10.2-1.5 20.4-2.4 31.2-3.6zm-44.8 46.2c.4 1.4.9 2.7 1 4.1.4 4.1 3 6.3 6.6 7.3 5.6 1.7 11.2 3.8 16.9 4.4 6.2.6 12.5-.2 18.7-.6.8 0 2.2-1.1 2.2-1.8.2-4.4.1-8.7.1-13.5-15.3.1-30.2.1-45.5.1zm-.5-15.7c15.3-.4 30.6-.7 46.5-1.1 0-3.1 0-5.7 0-8.3-.1-4.9-2.4-7.1-7.2-6.7-5.1.4-10.1.7-15.2 1.1-7 .5-13.8 1.6-19.8 5.5-3.3 2-6.1 4.3-4.3 9.5zm105.9-1.1c-3-9.1-10.4-14.4-19.3-14-3.6.2-7.3.7-10.9.5-5.6-.2-11.2-.9-16.7-1.3v15.9c15.7-.4 31.2-.7 46.9-1.1zm-47.2 32.2c13.5.4 26.5-.4 38.8-5.9 4.5-2 5.7-5.6 6.7-9.7-15.3 0-30.3 0-45.5 0z"/><path d="m137.7 171.8c7.9 1.3 9.7 3.5 9.2 10.7-.1 1.5 0 3.1.4 4.6.5 2.1 1.8 3.3 4.2 3.4 8.6.1 17.2.1 25.9.5 5.4.2 8.3 2.9 8.8 6.9.3 2.2-.2 3.9-2.5 4.2-5.4.9-10.8 1.9-16.3 2.2s-11 0-16.6-.1c-2 0-3 .5-3 2.8 0 3.5-.5 7-.8 11 5.9 1 11.6 2.3 17.4 2.7 9 .6 16.6 3.6 20.6 12 2.2 4.5 3.6 9.5 4.2 14.4 1.1 10.1-.7 19.8-6 28.7-.8 1.4-2.3 2.7-3.7 3.6-3.1 1.9-6.5 3.3-9.5 5.3-5.6 3.6-11.7 5.7-18.3 5.8-2.3.1-3.3 1.1-3.5 3.3-.2 2.1-.6 4.1-1.1 7 7 .2 13.7.5 20.4.6 5.8.1 11.7-.3 17.5.4 4.9.6 7.9 4.1 8.6 9.4-7.1 3.6-14.7 4.4-22.5 4.2-6.4-.2-12.8-.3-19.2-.5-2.6-.1-4 .6-4 3.7.2 10.7.2 21.4.1 32.1 0 3.5-.6 7-1.3 10.5-.3 1.6-1.4 3.3-2.5 4.5-3.6 3.8-7 3-8.6-1.8-2.7-7.8-1.8-15.7-1.2-23.6.5-6.4.4-12.8.3-19.1 0-2.7-1.4-3.9-4.4-4.5-7.7-1.5-15.4-.4-23.1-.4-5.6-.1-11.3-.1-16.9-.7-4.3-.4-8.1-2.3-9.5-7-.6-2-.5-3.6 1.8-4.1 5.6-1.2 11.1-3 16.8-3.2 11.2-.5 22.5-.2 34-.2 0-3.5 0-6.1 0-9.4-5.5-.8-11.3-1.8-17-2.5-13.2-1.5-22.1-8.3-24.8-20-2.9-12.7-1.3-25.3 2.9-37.5.3-1 1.5-1.9 2.4-2.6 8.3-6.1 17.6-9.5 27.9-10.3 2.6-.2 5.3-.5 8.2-.8.3-4 .5-8 .8-12.4-6.3-.2-12.5-.4-18.6-.6-2.5-.1-5.1.2-7.6-.1-2.4-.3-4.8-.8-7-1.7-2.9-1.2-4.2-3.8-4.2-7 0-3 2.7-3.3 4.5-4.1 5.1-2.4 10.5-1.6 15.9-1 4.1.5 8.3.1 12.5 0 2 0 3-1.4 3.6-3.3 1.4-5.3 3.1-10.6 4.8-16zm-4.3 73.7c.1-1.8.3-3.2.3-4.6 0-6.3-1.6-8.5-8-8-5.3.5-10.5 2.2-15.5 4-1.6.6-3.3 2.8-3.7 4.5-1.2 4.9-2.1 9.9-2.5 15-.4 6.5 1.1 13.2 6.6 16.9 5.9 4 13.1 5.6 20.6 4.2 2-.4 2.5-1.3 2.4-3.1-.1-3.2 0-6.4 0-9.6 0-4.8-.3-5.2-5.1-5.4-1.1-.1-2.2.1-3.3-.1-3.3-.7-6.6-1.5-9.8-2.5-2.3-.7-2.6-2.7-2.3-4.9.5-3 3-4.7 7.2-5.1 4.2-.5 8.4-.9 13.1-1.3zm14.3-13.8c.3 4.2.5 7 .8 9.8.3 3.2 2.2 4.7 5.5 5.1 3.5.4 6.9 1.3 10.4 1.7 3.4.4 3.5 2.9 3.9 5.3.3 2.4-1.1 4-3.3 4.7-1.5.5-3 .7-4.5.9-4.4.5-8.7 1-13 1.5 0 2.8-.1 5.5 0 8.1s.4 5.2.7 8.3c4.6-.8 9.1-.8 12.9-2.4s8.5-3.9 10.2-7.3c2.7-5.3 3.9-11.7 4.5-17.8.7-7.2-2.8-12.1-9.8-14.3-5.5-1.6-11.5-2.2-18.3-3.6z"/><path d="m258 293.5c-4.8-.7-9.3-1.8-13.9-2.1-14.3-.8-24.6-12.4-26.8-25.3-2-11.6-.4-22.9 5-33.5.7-1.4 2.3-2.5 3.6-3.6.7-.6 1.6-.7 2.4-1.2 8.1-5 16.8-7.5 26.4-6.9.6 0 1.3-.2 2.1-.3.4-3.4.8-6.6 1.3-10.5-4.4 0-8.3.1-12.2 0-5.1-.1-10.2-.1-15.2-.6-4.9-.5-7.4-3.2-7.8-7.2-.2-1.8.3-3.1 2.3-3.3 6.7-.7 13.4-1.5 20-2.1 2.9-.3 5.7-.2 8.6-.5 4.7-.6 5.3-1.4 5.9-6.3.4-3.4.7-6.9 1.7-10.1.6-1.8.2-5.2 3.7-4.8 4.6.4 7.9 3.4 7.9 7 0 2.4-.6 4.8-.6 7.2-.1 6.3 1.3 8.1 7.6 8 4.8-.1 9.6-.9 14.4-1.7 6.8-1.1 11.1 1.5 11.8 7.7.1 1.1-.6 2.8-1.5 3.4-5.2 3.6-11 3.1-16.9 2.5-3.7-.3-7.5-.3-11.2-.2-1.7 0-3 .8-3 3.1 0 2.5-.4 5-.7 8.1 4.9.7 9.5 1.3 14 1.9 1.9.2 3.8.1 5.6.3 14.8 1.5 24.1 11.3 24.2 26.1.1 10.3-1.8 20.2-7.2 29.2-.7 1.3-1.9 2.5-3.1 3.2-5.6 3.2-11.1 6.5-16.9 9-4 1.7-8.5 2.1-12.8 3.1-1.2.3-2.3.5-3.7.7v11.2c7.7.2 15.2.3 22.8.5 3.5.1 7.1-.3 10.6.3 2.6.5 5.4 1.7 7.2 3.5 3.3 3.3 2.2 6.8-2.2 7.5-6.3 1-12.7 1.5-19 2.1-5.3.5-10.6.7-15.8 1.1-2.8.2-3.9 1.7-3.8 4.6.4 10.4.8 20.8.9 31.2 0 3.7-.5 7.5-1.4 11.1-.5 1.9-1.9 3.8-3.5 5-3.1 2.5-5.9 1.8-7.9-1.5-3.4-5.7-3.6-11.9-3.4-18.3.3-9.6.4-19.2.9-28.8.2-3.2-1.2-4.3-3.9-4.3-8.4.2-16.7.6-25.1.8-2.6.1-5.4.3-7.9-.4-2.3-.7-4.8-2.1-6.1-4-2.7-3.7-1.6-6.9 2.9-7.6 5.8-1 11.8-1.3 17.7-1.5s11.9.1 17.9.2c2.7 0 4.2-1.2 4-4.3-.5-2.7-.1-5.3.1-8.7zm0-29.2c-5.9-1.3-11.7-.1-16.8-3.5-3.4-2.3-4.1-3.7-1.6-6.9 1.2-1.5 3.3-2.5 5.2-3.1 2.1-.6 4.4-.4 6.6-.8 8.3-1.5 6.6 0 6.9-7.3.3-6.7-2.7-9.3-9.4-7.9-4.7 1-9.2 2.9-13.7 4.6-1 .4-1.9 1.7-2.3 2.9-2.3 6.6-2.7 13.4-1.8 20.3 1.9 13.5 11.7 17.6 23.7 16.5 1.1-.1 3-1.5 3-2.5.4-4 .2-8.1.2-12.3zm15.1-30c.4 4.3.5 8.1 1 11.7.4 2.6 2.1 3.8 4.9 4 4.3.4 8.5 1.3 12.8 1.7 2.9.2 3.7 1.9 4.1 4.3.7 3.9-1.4 6.1-6.3 6.6-5.6.6-11.2 1-17.1 1.6.3 5.1.7 10 1 14.9 6.3.4 12.1-.5 17.3-3.3 2.7-1.5 6-3.4 7.3-5.9 4.1-8 5.4-16.7 2.8-25.4-.8-2.9-3.3-6.9-5.6-7.4-6.9-1.7-14.1-1.9-22.2-2.8z"/></g><path d="m362.1 8.8c1.1.8 2.1 1.6 3.1 2.4l-1 1.1c-1.3-1.1-2.3-2-3-2.5zm1.9 4.8c.5.2.9.4 1.4.5-.6 2.3-1.3 4.5-1.9 6.8l-1.5-.5c.8-2.1 1.4-4.3 2-6.8zm-1-9.4c1.3.9 2.4 1.8 3.4 2.5l-1 1.1c-1.4-1.2-2.4-2.1-3.2-2.6zm3.7 2.2v-1.4h10.3v1.2c-.5 3.6-1.8 6.8-4 9.4 1.5 1.6 3.4 2.8 5.7 3.8-.3.4-.7.8-1.1 1.4-2.3-1.1-4.1-2.5-5.6-4.1-1.6 1.6-3.6 3.1-5.9 4.3-.3-.5-.7-.9-1-1.3 2.4-1.1 4.4-2.5 6-4.1-1.9-2.5-3-5.6-3.3-9.3h-1.1zm8.8 0h-6.4c.3 3.3 1.3 6 3 8.2 2-2.3 3.1-5.1 3.4-8.2z" fill="#fafafb"/><path d="m385.3 3.8h1.3v2.2h2.8v-2.2h1.3v2.2h4.1v9.1h1.7v1.3h-16.9v-1.3h1.7v-9.1h4.1v-2.2zm.4 13.1.7 1.2c-1.8.9-3.8 1.9-6 2.9-.2-.4-.5-.8-.8-1.3 2.3-1 4.3-1.9 6.1-2.8zm-3.1-6.4h2.8v-3.2h-2.8zm0 4.6h2.8v-3.3h-2.8zm4-4.6h2.8v-3.2h-2.8zm0 4.6h2.8v-3.3h-2.8zm3.7 1.9c2.1.9 4.1 1.8 6.1 2.7l-.7 1.3c-2.2-1.1-4.2-2-6.1-2.9zm3.2-9.7h-2.8v3.2h2.8zm-2.8 7.8h2.8v-3.3h-2.8z" fill="#fafafb"/></svg>