<svg enable-background="new 0 0 400 400" viewBox="0 0 400 400" xmlns="http://www.w3.org/2000/svg"><g fill="#000001"><path d="m95.9 203.6c4.1 10.2 5.8 20.7 5.8 31.5 0 2.8.1 5.5.3 8.3.6 6.7 4 11.8 10.1 14.5 4.7 2 9.8 2.9 15.5 4.5 0-2.2 0-3.4 0-4.6 0-18.4.1-36.7-.1-55.1 0-4.6-.9-9.2-1.1-13.9-.3-5.7-.3-11.3 2.3-16.5.9-1.9 1.2-4.8 4.4-4.5 3.4.3 6.2 2.6 6.9 5.8.4 1.8.5 3.7.6 5.6.6 18.3 1.1 36.7 1.6 55 .2 7.5.4 15 .6 22.5.1 3.7 2.2 5.2 5.6 3.8 4-1.6 7.1-3.9 9.1-8.1 6-12.7 7.7-26.2 7.5-40-.1-3.1.9-5.6 3.1-7.7.5-.5 1-.9 1.6-1.2 4-2.3 5.5-1.9 7.3 2.3 3.9 8.6 4.4 17.5 2 26.6-2.3 8.7-5 17.4-7.7 26-.5 1.5-1.6 3.3-3 4.1-7.2 4.6-14.5 9.2-22 13.4-3 1.7-4.3 3.5-4.4 7.1-.6 21.6-4.5 42.8-8.2 64-1.1 6.1-2.8 12-4.4 17.9-.5 1.6-1.6 3.2-2.8 4.4-2.6 2.7-6.2 3-9.2 1.6-1.4-.7-2.2-3.8-2.4-6-.3-2.7-.1-5.6.7-8.2 3.5-11.6 5.4-23.5 6.9-35.4 1.8-13.5 3.3-27 5-40.4.3-2.5-.5-3.7-2.9-4.6-7.1-2.5-14.1-5.2-21.1-7.9-1.6-.6-3.1-1.6-4.3-2.8-6.3-6.2-10.1-13.9-12.1-22.5-2.7-12-2.9-24.1-.1-36.1.7-2.8 1.9-3.9 4.7-3.7 1.3.4 2.6.3 4.2.3z"/><path d="m264.7 263.6c5.1-1.5 9.6-2.8 14.1-4.2.9-.3 1.6-1 2.3-1.7 7.4-7.1 10.7-15.9 11.5-26 .6-6.8 2-13.5 3.2-20.2.3-1.4 1.3-2.9 2.4-3.9 2.9-2.7 5.4-2.2 7.5 1 4.8 7.5 5 15.6 2.5 23.9-2.5 8.2-5.3 16.4-8.1 24.5-.5 1.4-1.5 2.7-2.6 3.7-4.7 4.3-9.4 8.8-14.5 12.7-2.5 1.9-5.9 2.8-9 3.7-8.6 2.6-9.1 2.5-8.6 11.3.8 12.2 2.2 24.4 3.5 36.6 1.2 11.1 2.7 22.2 3.7 33.3.3 3.1-.2 6.4-.8 9.5-.3 1.6-1.5 3.2-2.8 4.3-3 2.4-5.2 1.8-7-1.6-6-11.4-8.2-23.7-8.7-36.4-.6-16.2-1.2-32.5-2-48.7-.1-1.6-1.3-3.6-2.6-4.5-3.2-2-6.7-3.9-10.3-5.1-13.4-4.5-21.7-13.9-26.6-26.7-4.3-11.1-6.4-22.6-4-34.4 1.6-8.3 0-6.6 8.9-8.9 4.2 8.8 7.7 18.1 7.3 27.8-.6 14.6 6.7 23.1 18.9 28.9 2 .9 4 1.8 6.5 2.8.2-2.2.5-4.1.6-6 1-19.4 1.9-38.9 2.9-58.3.3-6.2.9-12.4 2-18.4.5-2.7 1.9-5.4 3.5-7.7 2.5-3.5 6.6-3.3 8.8.5 1.1 2 1.7 4.6 1.6 6.9-.4 11.5-1.1 23-1.8 34.4-.8 14.7-1.6 29.4-2.4 44 .1.9.1 1.6.1 2.9z"/><path d="m251.4 120.9c3.2-13.4 3.4-27.1 2.4-40.8-.8-12.1-1-24.1 3.2-35.7 1.1-3 2.7-5.8 3.9-8.7.8-2 2.1-2.1 4-1.5 3.9 1.3 6.1 4 6 8.9-.2 6.8-.7 13.7-1 20.5-.8 18.1-1.6 36.2-2.3 54.3v2.7c5.1-1.4 9.9-2.7 14.7-4.1.8-.2 1.4-1 1.9-1.7 6-8.3 9.9-17.4 10.5-27.8.3-5.9 1.2-11.9 2-17.8.2-1.7.9-3.5 2-4.8 2.9-3.5 7-2.9 8.9 1.2 4.8 10.6 4.4 21.5 2.1 32.5-.4 1.8-.9 3.6-1.4 5.5-2.5 10.5-9.4 18-17.3 24.8-5.2 4.5-11.5 5.8-18 6.6-2.8.3-3.7 1.8-3.4 4.1.4 4.8 1 9.6 1.6 14.5.2 1.6.4 3.3.5 4.9.1 2.8-.8 5.2-3.7 5.9-2.8.6-6 .9-7.3-2.6-1.4-3.6-2.4-7.4-3.5-11.2-.3-1-.1-2.2-.2-3.3-.9-8.8-1.7-9.5-10.1-11.8-3.5-1-6.7-3.2-10-4.8-15.9-7.7-21.7-21.7-23.7-38.1-1-8.4-.9-16.7.7-25.1.6-3.2 2.6-4.5 5.4-4.8 2.7-.3 4.9 0 6.1 3.4 2.2 6.2 3.4 12.5 3.2 19.1-.2 6.5-.5 13 2.2 19.2 3.6 9.3 10.8 14.3 20.6 16.5z"/><path d="m130.4 119.7c0-2 0-3.2 0-4.4 0-17.4.2-34.7-.1-52.1-.1-6-1.2-12.1-1.8-18.1-.5-5.4.2-10.6 3.5-15.1.6-.8 2.4-1.5 3.4-1.3 3.5.8 5.9 3.2 6.6 6.7.9 4.6 1.7 9.4 1.9 14.1.7 21.9 1.1 43.8 1.6 65.6.1 4 1.5 4.9 5.5 3.7 10.3-3.1 19.7-15.2 20.8-26.7.7-7.5 1.4-15 2.1-22.4.6-6.4 3.3-9.5 8.2-9 1.2.1 2.9 1.2 3.5 2.3 4 7.6 5.5 15.9 3.2 24.1-2.5 9.2-6 18.2-9.6 27.1-1 2.5-3.5 4.4-5.4 6.5-.5.6-1.2.9-1.8 1.5-6.5 6.3-14.2 10.4-23.2 11.8-2.9.5-4.5 2.2-5.2 4.8-.8 2.6-1.3 5.3-1.8 8-.3 1.8-.2 3.8-.6 5.6-.6 3.5-4.5 6.5-8.4 6.2-3.6-.3-3.8-3.6-4.2-6.1-.3-1.9.2-3.9.6-5.8.3-1.6 1-3.2 1.3-4.8 1.1-5.5.5-6.5-4.6-8.7-2.7-1.2-5.4-2.6-8.2-3.5-12.3-3.9-19-13.3-23.3-24.5-5-13-5.3-26.5-2.2-40.1 1-4.1 4.2-3.7 6.8-4.2 1-.2 3.1 1.7 3.5 3 1.3 4 2.3 8.2 3 12.5 1.1 7.4 1.5 14.9 2.9 22.3 1.1 5.9 4.6 10.7 10 13.8 3.8 2 7.6 4.4 12 7.2z"/></g><path d="m362.1 8.8c1.1.8 2.1 1.6 3.1 2.4l-1 1.1c-1.3-1.1-2.3-2-3-2.5zm1.9 4.8c.5.2.9.4 1.4.5-.6 2.3-1.3 4.5-1.9 6.8l-1.5-.5c.8-2.1 1.4-4.3 2-6.8zm-1-9.4c1.3.9 2.4 1.8 3.4 2.5l-1 1.1c-1.4-1.2-2.4-2.1-3.2-2.6zm3.7 2.2v-1.4h10.3v1.2c-.5 3.6-1.8 6.8-4 9.4 1.5 1.6 3.4 2.8 5.7 3.8-.3.4-.7.8-1.1 1.4-2.3-1.1-4.1-2.5-5.6-4.1-1.6 1.6-3.6 3.1-5.9 4.3-.3-.5-.7-.9-1-1.3 2.4-1.1 4.4-2.5 6-4.1-1.9-2.5-3-5.6-3.3-9.3h-1.1zm8.8 0h-6.4c.3 3.3 1.3 6 3 8.2 2-2.3 3.1-5.1 3.4-8.2z" fill="#fafafb"/><path d="m385.3 3.8h1.3v2.2h2.8v-2.2h1.3v2.2h4.1v9.1h1.7v1.3h-16.9v-1.3h1.7v-9.1h4.1v-2.2zm.4 13.1.7 1.2c-1.8.9-3.8 1.9-6 2.9-.2-.4-.5-.8-.8-1.3 2.3-1 4.3-1.9 6.1-2.8zm-3.1-6.4h2.8v-3.2h-2.8zm0 4.6h2.8v-3.3h-2.8zm4-4.6h2.8v-3.2h-2.8zm0 4.6h2.8v-3.3h-2.8zm3.7 1.9c2.1.9 4.1 1.8 6.1 2.7l-.7 1.3c-2.2-1.1-4.2-2-6.1-2.9zm3.2-9.7h-2.8v3.2h2.8zm-2.8 7.8h2.8v-3.3h-2.8z" fill="#fafafb"/></svg>