<svg enable-background="new 0 0 400 400" viewBox="0 0 400 400" xmlns="http://www.w3.org/2000/svg"><path d="m374.8 390.4.4-.4c.7.5 1.3 1 1.8 1.4l-.5.5c-.5-.6-1.1-1.1-1.7-1.5zm1 7.3-.6-.3c.5-1.4 1.1-2.8 1.5-4.3.2.1.4.2.6.3-.5 1.3-1 2.8-1.5 4.3zm-.4-10.3.4-.4c.4.3 1 .8 1.7 1.4l-.5.5c-.4-.5-1-1-1.6-1.5zm2.5.3h1.7v-1h.6v1h3.5v-1h.6v1h1.8v.5h-1.8v1.4h-2v1h3.2v2h-3.2v.9h3.3v.5h-3.4c0 .3-.1.6-.1.9h4v.5h-3.7c.7.9 1.9 1.5 3.8 1.7-.1.2-.2.4-.3.6-2.1-.4-3.5-1.1-4-2.1-.4 1-1.8 1.7-4 2.2-.1-.2-.2-.4-.3-.6 2.1-.4 3.4-1 3.8-1.8h-3.4v-.5h3.6c.1-.3.1-.6.2-.9h-3.3v-.5h3.4c0-.3 0-.6 0-.9h-3.2v-2h3.3v-1h-2.1v-1.4h-1.7v-.5zm1.1 3.5v1h2.7c0-.3 0-.4 0-.4 0-.1 0-.2 0-.2 0-.1 0-.2 0-.3h-2.7zm1.2-3v.9h3.5v-.9zm4.7 3h-2.6v.6.4h2.6z" fill="#fbfafc"/><path d="m393.6 386.7h.6v1.5h2.7v6.1h1.1v.6h-11v-.6h1.1v-6.1h2.7v-1.5h.6v1.5h2.1v-1.5zm-2.7 8.8.4.6c-1.2.6-2.5 1.3-3.8 1.9-.1-.2-.2-.4-.3-.6 1.2-.6 2.5-1.2 3.7-1.9zm-2.2-6.7v2.4h2.1v-2.4zm0 3v2.5h2.1v-2.5zm2.8-3v2.4h2.1v-2.4zm0 3v2.5h2.1v-2.5zm6 6.1c-1.4-.7-2.7-1.3-3.9-1.8l.3-.6c1.5.6 2.7 1.2 3.9 1.7zm-1.2-9.1h-2.1v2.4h2.1zm-2.1 3v2.5h2.1v-2.5z" fill="#fbfafc"/><g fill="#010000"><path d="m280.38 199.74c-.44 2.56-.62 4.91-1.32 7.09-.37 1.14-1.52 2.21-2.58 2.91-11.22 7.41-23.78 11.99-36.12 17.07-14 5.76-27.87 11.83-41.83 17.68-1.61.68-2.26 1.49-2.25 3.26.07 11.88-.01 23.76.11 35.63.01 1.12.84 2.66 1.77 3.27 20.72 13.47 42.97 23.7 66.48 31.3 4.2 1.36 8.3 3.16 12.24 5.16 4.33 2.19 5.64 6.17 4.89 10.76-.15.89-1.39 2.1-2.31 2.28-6.81 1.36-13.27 1.23-20.01-1.76-14.02-6.21-28.46-11.46-42.67-17.26-3.41-1.39-6.48-3.64-9.88-5.07-2.38-1-5.05-1.61-7.63-1.79-3.9-.27-6.22 1.8-6.48 5.77-.24 3.69.3 7.42.06 11.11-.53 8.22-.94 16.48-2.17 24.61-.87 5.77-4.44 10.38-9.27 14.17-2.65-3.36-3.91-7.16-3.81-11.03.27-10.14.77-20.3 1.7-30.4.45-4.89.75-9.51-1.97-13.8-.78-1.23-1.76-2.42-2.89-3.32-1.88-1.5-3.46-1.57-5.79.17-4.36 3.24-9.07 6.35-14.1 8.29-8.39 3.24-16.39 6.83-22.81 13.33-.66.67-1.45 1.32-2.3 1.66-9.74 3.81-19.51 7.56-29.55 11.44-.91-1.81-1.73-3.46-2.63-5.25 1.05-.7 1.9-1.31 2.79-1.84 10.05-5.94 19.69-12.45 28.46-20.22 1.35-1.2 3.26-1.8 4.96-2.57 3.42-1.55 7.26-2.5 10.25-4.65 8.08-5.81 15.92-11.98 23.64-18.26 9.96-8.1 14.25-18.18 11.07-31.24-1.65-6.75-1.89-13.84-2.93-20.75-.18-1.19-.91-2.79-1.87-3.29-19.83-10.53-39.7-20.97-59.62-31.33-2.9-1.51-6.18-2.27-9.06-3.8-1.55-.82-2.94-2.36-3.83-3.9-1.16-1.99-.43-3.81 1.63-5.1 4.47-2.8 9.21-3.7 14.29-2.12 7.33 2.29 14.03 5.73 20.2 10.42 11.18 8.5 23.8 13.69 37.85 15.14.73.08 1.47.01 2.61.01.19-2.34.38-4.61.55-6.89.43-5.71.98-11.41 1.18-17.13.04-1.28-.83-3-1.84-3.84-7.63-6.33-16.95-8.79-26.23-11.54-5.32-1.58-10.42-4.07-15.39-6.58-3.92-1.98-7.03-4.95-8.25-9.52-.96-3.58-3.27-6.08-6.35-8.32-10.01-7.28-15.03-17.82-18.17-29.42-1.16-4.29-2-8.67-3.22-12.94-2.44-8.53-1.11-17.01-.01-25.51.83-6.41 1.51-12.84 2.46-19.23.17-1.15 1.04-2.53 2-3.2 19.37-13.46 40.78-21.16 64.3-23.53 16.75-1.69 33.46-.69 50.19-.53 2.65.03 5.31.18 7.95.06 13.43-.59 25.75 4.65 38.56 7.28 2.9.6 5.71 1.68 8.63 2.13 6.97 1.07 12.22 4.86 16.01 10.47 2.94 4.34 5.57 9.02 7.53 13.87 2.3 5.67 1.89 11.42-.89 17.2-6.1 12.68-12.19 25.41-17.41 38.46-2.52 6.29-5.42 11.77-10.68 16.06-2.27 1.86-3.82 4.6-6.13 6.4-2.34 1.82-5.08 3.33-7.88 4.32-3.05 1.08-5.14 2.59-5.89 5.84-1.13 4.89-4.1 8.03-8.91 9.71-2.88 1-5.47 2.78-8.28 4.02-4.53 1.99-8.52 4.66-11.73 8.46-2.8 3.31-6.62 4.39-10.74 4.78-1.58.15-3.18.21-4.73.5-5.43 1-7.96 4.07-7.96 9.49v22.91c0 3.82 1.17 5.6 5.07 5.73 3.51.11 7.22-.36 10.57-1.42 22.5-7.13 44.93-14.49 67.38-21.77.14-.09.36-.06.99-.1zm-84.02-123.21c.94 5.62 1.99 12.17 3.16 18.71.45 2.54 2.07 3.89 4.67 4.45 5.9 1.26 11.71 2.92 17.63 4.09 11.63 2.31 23.25 4.8 35.25 4.14 9.64-.53 15.14-5.14 16.48-14.72.58-4.14.48-8.46.08-12.64-1.58-16.46-9.44-25.41-25-29.12-15.35-3.67-30.75-4.57-46.3-1.32-1.84.39-2.81 1.17-3.03 2.95-.94 7.44-1.87 14.9-2.94 23.46zm-75.61 38.74c1.91 4.15 2.97 8.24 5.36 11.29 7.64 9.76 15.76 19.16 23.76 28.64.83.99 2.06 1.84 3.27 2.28 4.17 1.52 8.42 2.83 12.64 4.24 3.97 1.32 7.96 2.08 12.15.93 2.42-.66 3.62-1.63 3.47-4.55-.64-12.6-1.22-25.21-1.3-37.83-.03-4.76-1.94-7.28-6.08-8.71-1-.34-1.97-.9-2.99-1.02-5.98-.72-11.97-1.47-17.97-1.95-3.68-.3-7.58-.87-11.07-.02-6.96 1.69-13.7 4.26-21.24 6.7zm44.82-64.69c-2.34.61-5.02 1.22-7.65 2-9.74 2.92-19.78 4.49-28.58 10.65-5.88 4.11-9.5 8.74-10.56 15.47-.37 2.35.08 4.99.8 7.31 1.21 3.94 5 4.79 8.37 6.01 8.44 3.06 17.12 2.07 25.77 1.51 5.92-.39 11.8-.87 17.53 1.43 2.6 1.04 5.72.33 6.91-1.81 2.12-3.79 4.65-8.21 4.47-12.26-.4-9.04-2.34-18.02-3.76-27.01-.11-.69-.98-1.69-1.63-1.8-3.75-.61-7.54-1-11.67-1.5zm89.4 77.21c-2.25-2.76-4.33-5.42-6.57-7.95-.54-.61-1.59-1.02-2.45-1.09-13.51-1.14-27.03-2.23-40.55-3.29-4.01-.31-6.83 2.84-6.94 6.96-.14 5.6-.66 11.18-1.07 16.77-.42 5.79-1.28 11.58-1.26 17.36.03 6.23 4.62 7.12 8.77 4.73 8.67-5.01 18.25-7.29 27.47-10.65.88-.32 1.91-.6 2.51-1.24 6.7-7.1 13.3-14.26 20.09-21.6z"/><path d="m234.51 86.97c-1.8-6.95-3-13.53 2.83-19.5 3.32 2.24 6.79 4.28 9.87 6.78 1.34 1.09 2.22 3.04 2.73 4.77.59 2.02-.17 3.52-2.63 4.13-4.27 1.07-8.45 2.5-12.8 3.82z"/><path d="m143.55 126.03c5.47-5 9.26-5.66 15.35-2.78 4.49 2.12 6.74 6.51 6.35 12.38-.17.12-.32.26-.51.34-8.91 3.82-8.91 3.82-15.33-3.38-1.95-2.19-3.91-4.38-5.86-6.56z"/><path d="m151.74 64.93c6.33.29 8.77 2.82 8.51 8.81-.12 2.82-4.23 5.55-8.14 5.41-5.44-.19-8.49-2.31-8.3-5.75.3-5.38 3.39-8.68 7.93-8.47z"/><path d="m229.92 136.45c-5.17 1.17-10.35 2.35-15.69 3.56-.7-2.54-1.29-4.65-1.87-6.77-.75-2.74 1.41-6.41 4.17-6.2 3.4.25 6.88.99 10.06 2.21 2.83 1.09 3.43 3.99 3.33 7.2z"/></g></svg>