<svg enable-background="new 0 0 400 400" viewBox="0 0 400 400" xmlns="http://www.w3.org/2000/svg"><path d="m362.1 8.8c1.1.8 2.1 1.6 3.1 2.4l-1 1.1c-1.3-1.1-2.3-2-3-2.5zm1.9 4.8c.5.2.9.4 1.4.5-.6 2.3-1.3 4.5-1.9 6.8l-1.5-.5c.8-2.1 1.4-4.3 2-6.8zm-1-9.4c1.3.9 2.4 1.8 3.4 2.5l-1 1.1c-1.4-1.2-2.4-2.1-3.2-2.6zm3.7 2.2v-1.4h10.3v1.2c-.5 3.6-1.8 6.8-4 9.4 1.5 1.6 3.4 2.8 5.7 3.8-.3.4-.7.8-1.1 1.4-2.3-1.1-4.1-2.5-5.6-4.1-1.6 1.6-3.6 3.1-5.9 4.3-.3-.5-.7-.9-1-1.3 2.4-1.1 4.4-2.5 6-4.1-1.9-2.5-3-5.6-3.3-9.3h-1.1zm8.8 0h-6.4c.3 3.3 1.3 6 3 8.2 2-2.3 3.1-5.1 3.4-8.2z" fill="#fbfcfa"/><path d="m385.3 3.8h1.3v2.2h2.8v-2.2h1.3v2.2h4.1v9.1h1.7v1.3h-16.9v-1.3h1.7v-9.1h4.1v-2.2zm.4 13.1.7 1.2c-1.8.9-3.8 1.9-6 2.9-.2-.4-.5-.8-.8-1.3 2.3-1 4.3-1.9 6.1-2.8zm-3.1-6.4h2.8v-3.2h-2.8zm0 4.6h2.8v-3.3h-2.8zm4-4.6h2.8v-3.2h-2.8zm0 4.6h2.8v-3.3h-2.8zm3.7 1.9c2.1.9 4.1 1.8 6.1 2.7l-.7 1.3c-2.2-1.1-4.2-2-6.1-2.9zm3.2-9.7h-2.8v3.2h2.8zm-2.8 7.8h2.8v-3.3h-2.8z" fill="#fbfcfa"/><g fill="#010101"><path d="m31.78 217.72c.76-4.68 1.86-8.74 5.66-12.28 16.61-15.5 34.35-29.28 55.18-38.7 14.8-6.69 30.48-10.16 46.5-12.36 11.75-1.62 23.45-3.65 35.21-5.24 4.6-.62 9.28-.69 13.94-.78 6.57-.12 13.15.07 19.73-.07 3.67-.08 6.92.95 10.39 2.07 4 1.3 8.51 1.16 12.81 1.33 8.58.34 17.22-.07 25.72.85 6.68.72 13.2 2.93 19.78 4.54 4.52 1.11 8.97 2.59 13.54 3.43 10.16 1.86 19.27 5.94 27.97 11.46 9.56 6.06 19.65 11.27 29.28 17.23 7.2 4.45 12.76 10.48 14.89 19.05.99 3.97.54 5.22-3.46 5.56-2.67.23-5.58-.57-8.16-1.52-4.52-1.67-8.87-3.81-13.29-5.74-.48-.21-1.04-.3-1.44-.61-10.97-8.59-24.11-12.15-37.17-15.79-6.82-1.9-13.83-3.15-20.73-4.77-2.25-.53-4.61-.98-6.66-1.99-7.94-3.9-16.4-5.35-25.12-6.07-9.71-.81-19.38-2.24-29.1-2.93-5.25-.37-10.56.29-15.85.41-9.73.22-19.49.93-29.18.43-10.27-.53-20.23.38-30.19 2.76-8.24 1.97-16.69 3.13-24.82 5.43-10.47 2.96-20.73 6.66-31.05 10.12-4.38 1.47-5.07 1.15-6.5-3.26-.23-.72-1.19-1.59-1.89-1.66-.88-.09-2.37.34-2.64.97-.72 1.66-1.38 3.58-1.26 5.34.23 3.25-.67 5.35-3.72 6.9-9.81 5-19.57 10.12-29.2 15.45-3.15 1.72-5.97 1.59-9.17.44z"/><path d="m122.05 253.17c-2.15-3.69-.62-5.38 2.45-6.88 4.94-2.42 9.81-5.04 14.48-7.94 5.34-3.32 10.99-5.06 17.26-5.61 11.29-1 22.52-2.75 33.82-3.58 4.45-.33 9 1.17 13.53 1.5 10.04.74 20.12.95 30.12 2.02 5.5.59 10.94 2.2 16.24 3.88 3.14 1 5.47 3.49 6.85 6.87-6.76 5.03-14.31 8.07-22.52 8.82-6.71.61-13.51.18-20.27.24-1.37.01-2.75.1-4.1.3-3.52.54-6.7.19-10.1-1.4-2.46-1.15-5.75-.81-8.66-.7-22.45.82-44.89 1.74-67.33 2.62-.61.02-1.24-.1-1.77-.14z"/></g></svg>