<svg enable-background="new 0 0 400 400" viewBox="0 0 400 400" xmlns="http://www.w3.org/2000/svg"><path d="m362.1 8.8c1.1.8 2.1 1.6 3.1 2.4l-1 1.1c-1.3-1.1-2.3-2-3-2.5zm1.9 4.8c.5.2.9.4 1.4.5-.6 2.3-1.3 4.5-1.9 6.8l-1.5-.5c.8-2.1 1.4-4.3 2-6.8zm-1-9.4c1.3.9 2.4 1.8 3.4 2.5l-1 1.1c-1.4-1.2-2.4-2.1-3.2-2.6zm3.7 2.2v-1.4h10.3v1.2c-.5 3.6-1.8 6.8-4 9.4 1.5 1.6 3.4 2.8 5.7 3.8-.3.4-.7.8-1.1 1.4-2.3-1.1-4.1-2.5-5.6-4.1-1.6 1.6-3.6 3.1-5.9 4.3-.3-.5-.7-.9-1-1.3 2.4-1.1 4.4-2.5 6-4.1-1.9-2.5-3-5.6-3.3-9.3h-1.1zm8.8 0h-6.4c.3 3.3 1.3 6 3 8.2 2-2.3 3.1-5.1 3.4-8.2z" fill="#fbfcfa"/><path d="m385.3 3.8h1.3v2.2h2.8v-2.2h1.3v2.2h4.1v9.1h1.7v1.3h-16.9v-1.3h1.7v-9.1h4.1v-2.2zm.4 13.1.7 1.2c-1.8.9-3.8 1.9-6 2.9-.2-.4-.5-.8-.8-1.3 2.3-1 4.3-1.9 6.1-2.8zm-3.1-6.4h2.8v-3.2h-2.8zm0 4.6h2.8v-3.3h-2.8zm4-4.6h2.8v-3.2h-2.8zm0 4.6h2.8v-3.3h-2.8zm3.7 1.9c2.1.9 4.1 1.8 6.1 2.7l-.7 1.3c-2.2-1.1-4.2-2-6.1-2.9zm3.2-9.7h-2.8v3.2h2.8zm-2.8 7.8h2.8v-3.3h-2.8z" fill="#fbfcfa"/><g fill="#010101"><path d="m32.06 318.46c7.12-4.19 14.56-6.82 22.54-7.48 6.85-.57 13.76-.88 20.63-.74 10.25.21 20.22-1.05 30.23-3.24 7.03-1.54 14.02-2.71 20.66-5.76 2.63-1.21 6.02-.84 9.07-1.06 10.25-.74 20.52-1.31 30.76-2.2 2.79-.24 5.59-1.18 8.25-2.16 5.13-1.89 10.23-3.14 15.79-2.23 7.77 1.27 15.41-.19 22.97-1.8 22.93-4.86 46.14-6 69.52-6.02 8.68-.01 17.35-2.42 26.06-3.52 2.51-.32 5.38-.54 7.64.35 5.04 1.98 9.96 1.76 15.2 1.41 7.02-.47 14.17-.36 21.16.43 3.68.42 7.14 2.8 10.7 4.3.05.44.1.88.15 1.32-3.37 2.43-6.52 5.27-10.16 7.18-4.18 2.2-8.67 4.52-13.24 5.12-10.31 1.36-20.19 4.47-30.35 6.3-5.67 1.02-11.67.06-17.43.74-12.3 1.46-24.52 3.58-36.81 5.08-7.65.94-15.37 1.6-23.07 1.75-8.9.17-17.78-.08-26.46 2.41-1.79.52-3.84.76-5.66.47-9.3-1.49-18.37.78-27.5 1.61-20.79 1.89-41.55 4.06-62.32 6.1-5.8.57-11.6 1.14-17.41 1.56-1.12.08-2.68-.18-3.37-.91-2.31-2.43-4.99-2.37-7.18-.67-8.13 6.31-17.11 6.58-26.58 4.46-5.17-1.16-10.32-2.37-15.53-3.33-3.21-.6-5.35-2.09-6.33-5.27-.47-1.4-1.23-2.68-1.93-4.2z"/><path d="m343.03 190.92c-3.06 2.68-6.18 4.31-10.19 4.09-13.88-.73-27.04 2.98-40.21 6.64-1.1.31-2.43.75-3.39.4-7.82-2.86-15.5-.41-23.21.42-24.32 2.62-48.62 5.53-72.97 7.86-26.47 2.54-52.98 4.76-79.5 6.73-15.67 1.17-30.47 6.14-45.64 9.47-9.56 2.1-19.1 2.47-28.68.34-.81-.18-1.59-.49-2.62-.81.3-4.49.6-8.9.93-13.71 6.09-1.23 12.17-2.46 18.25-3.67 7.17-1.42 14.33-2.85 21.52-4.18 1.18-.22 2.6-.27 3.65.19 2.79 1.21 5.38 1.04 8.26.18 8.52-2.55 17.03-5.22 25.72-7.05 5.41-1.14 11.13-.81 16.71-1.16 1.47-.09 3.17.18 4.37-.46 8.86-4.66 18.68-4.65 28.19-5.44 18.25-1.52 36.59-1.86 54.84-3.38 10.1-.84 20.11-2.91 30.1-4.74 12.54-2.29 25.1-4.03 37.89-3.58 10.01.35 19.74-1.26 29.56-3.28 9.05-1.86 18.79 1.79 24.51 11.59.62 1.11 1.2 2.24 1.91 3.55z"/><path d="m96.03 110.19c-17.36-2.81-34.28-.54-51.2-.08-2.71.07-4.13-.3-4.37-3.31-.2-2.51-1.18-4.96-1.44-7.47-.09-.89.74-2.51 1.48-2.74 3.52-1.09 7.15-2.58 10.73-2.54 15.16.16 29.92-2.92 44.8-5 6.08-.85 12.13-2.14 18.24-2.61 4.28-.33 8.65.45 12.98.64 4.74.21 9.49.54 14.22.42 13.02-.33 26.05-1.36 39.06-1.18 10.34.14 20.18-2.11 30.1-4.2 7.4-1.56 14.77-2.78 22.35-2.33 13.81.83 27.14-2.69 40.64-4.59 14.05-1.98 27.98-4.99 42.08-6.37 8.81-.87 17.34 2.13 24.93 7.05.44.28.79.71 1.15 1.09 2.86 3.04 2.82 4.33-.53 6.75-8.2 5.92-17.66 8.65-27.47 10.08-4.22.62-8.61.11-12.92.12-.63 0-1.42-.24-1.87.04-6 3.72-12.77 2.46-19.22 2.83-6.57.37-12.98 1.31-19.46 2.45-7.24 1.27-14.76 1.69-22.12 1.42-14.08-.51-27.91 1.24-41.78 3.07-13.55 1.78-27.06 3.96-40.66 5.2-7.11.65-14.39-.14-21.57-.66-10.19-.74-20.3-.57-30.37 1.26-2.67.5-5.45.48-7.78.66z"/></g></svg>