<svg enable-background="new 0 0 400 400" viewBox="0 0 400 400" xmlns="http://www.w3.org/2000/svg"><path d="m362.1 8.8c1.1.8 2.1 1.6 3.1 2.4l-1 1.1c-1.3-1.1-2.3-2-3-2.5zm1.9 4.8c.5.2.9.4 1.4.5-.6 2.3-1.3 4.5-1.9 6.8l-1.5-.5c.8-2.1 1.4-4.3 2-6.8zm-1-9.4c1.3.9 2.4 1.8 3.4 2.5l-1 1.1c-1.4-1.2-2.4-2.1-3.2-2.6zm3.7 2.2v-1.4h10.3v1.2c-.5 3.6-1.8 6.8-4 9.4 1.5 1.6 3.4 2.8 5.7 3.8-.3.4-.7.8-1.1 1.4-2.3-1.1-4.1-2.5-5.6-4.1-1.6 1.6-3.6 3.1-5.9 4.3-.3-.5-.7-.9-1-1.3 2.4-1.1 4.4-2.5 6-4.1-1.9-2.5-3-5.6-3.3-9.3h-1.1zm8.8 0h-6.4c.3 3.3 1.3 6 3 8.2 2-2.3 3.1-5.1 3.4-8.2z" fill="#fbfcfa"/><path d="m385.3 3.8h1.3v2.2h2.8v-2.2h1.3v2.2h4.1v9.1h1.7v1.3h-16.9v-1.3h1.7v-9.1h4.1v-2.2zm.4 13.1.7 1.2c-1.8.9-3.8 1.9-6 2.9-.2-.4-.5-.8-.8-1.3 2.3-1 4.3-1.9 6.1-2.8zm-3.1-6.4h2.8v-3.2h-2.8zm0 4.6h2.8v-3.3h-2.8zm4-4.6h2.8v-3.2h-2.8zm0 4.6h2.8v-3.3h-2.8zm3.7 1.9c2.1.9 4.1 1.8 6.1 2.7l-.7 1.3c-2.2-1.1-4.2-2-6.1-2.9zm3.2-9.7h-2.8v3.2h2.8zm-2.8 7.8h2.8v-3.3h-2.8z" fill="#fbfcfa"/><path d="m173.98 273.26c.92-2.95 1.5-5.53 2.5-7.93 4.76-11.44 5.91-23.52 6.84-35.69.98-12.68 2.33-25.33 3.39-38.01.16-1.93-.09-4-.61-5.87-1.28-4.58-3-9.05-4.24-13.64-1.34-4.97-.22-9.49 2.59-13.89 6.09-9.55 13.95-17.58 21.55-25.84 5.16-5.61 8.67-12.02 9.18-19.77.09-1.42-.04-2.96-.49-4.3-1.92-5.83-3.87-11.66-6.06-17.39-.83-2.17-2.31-4.09-3.46-6.06-.82.36-1.1.39-1.18.53-7.32 13.61-18.77 23.98-28.19 35.94-3.48 4.41-7.12 8.69-10.63 13.08-2.83 3.55-6.37 5.43-11.81 5.13 2.36-4.37 4.02-8.7 6.73-12.22 8.71-11.34 18.06-22.18 26.65-33.61 4.42-5.88 7.84-12.54 11.5-18.96 3.6-6.31 2.85-12.82.35-19.31-.99-2.57-2.11-5.1-2.88-7.73-1.34-4.57-.46-8.74 2.71-12.79 2.13 2.57 4.67 4.79 6.12 7.57 2.33 4.46 3.85 9.33 5.87 13.96 1.22 2.79 2.8 5.42 4.09 8.18.84 1.79 1.54 3.66 2.17 5.54 1.75 5.18 3.34 10.42 5.17 15.57 3.22 9.04 5.78 18.2 4.76 27.93-.71 6.8-2.44 13.11-6.93 18.72-8.74 10.92-16.96 22.24-25.44 33.37-1.25 1.65-1.8 3.31-.88 5.28.09.19.05.43.12.62 5.62 16.42 3.77 32.94 1.04 49.58-.89 5.43-.32 11.12-.15 16.69.04 1.14 1.04 2.82 2.03 3.26 12.26 5.42 19.82 15.96 28.24 25.57.63.72 1.25 1.44 1.9 2.14.13.14.35.19.74.38 4.52-5.49 5.26-11.9 4.01-18.53-1.62-8.63-3.99-17.13-5.5-25.77-.75-4.28-2.14-8.09-4.32-11.78-3.33-5.64-6.46-11.4-9.73-17.2 2.66-1.37 4.97-1.53 7.05.7.43.46.95.86 1.5 1.18 6.72 4.02 11.36 9.63 13.39 17.29.19.7.47 1.51.98 1.97 5.85 5.26 6.31 12.47 7.01 19.52 1.33 13.29.85 26.47-2.98 39.38-.24.8-.41 1.69-.87 2.34-5.58 7.86-7.16 16.84-7.42 26.2-.4 14.72-.66 29.45-1.33 44.16-.19 4.26-1.33 8.54-2.5 12.67-.5 1.75-2.19 3.17-3.35 4.74-.42-.07-.84-.14-1.26-.21-.61-4.95-1.62-9.9-1.74-14.86-.24-10.6-.01-21.21.01-31.81.01-2.44.3-4.94-.17-7.29-.41-2.06-1.4-4.16-2.67-5.85-1.24-1.65-2.8-1.52-4.87-.19-4.4 2.82-9.14 5.16-13.92 7.32-1.61.73-4.06 1.15-4.81-1.39 5.61-4.38 11.2-8.53 16.55-12.97 4.74-3.93 6.85-9.18 5.94-15.29-.34-2.3-1.36-4.61-2.56-6.63-2.85-4.83-6.01-9.47-8.99-14.23-2.86-4.58-6.58-7.94-11.99-9.25-1.7-.41-2.78-.2-3.7 1.36-2.21 3.73-4.54 7.4-6.82 11.09-1.9 3.08-4.26 5.66-8.23 7.3z" fill="#010101"/></svg>