<svg enable-background="new 0 0 400 400" viewBox="0 0 400 400" xmlns="http://www.w3.org/2000/svg"><path d="m362.1 8.8c1.1.8 2.1 1.6 3.1 2.4l-1 1.1c-1.3-1.1-2.3-2-3-2.5zm1.9 4.8c.5.2.9.4 1.4.5-.6 2.3-1.3 4.5-1.9 6.8l-1.5-.5c.8-2.1 1.4-4.3 2-6.8zm-1-9.4c1.3.9 2.4 1.8 3.4 2.5l-1 1.1c-1.4-1.2-2.4-2.1-3.2-2.6zm3.7 2.2v-1.4h10.3v1.2c-.5 3.6-1.8 6.8-4 9.4 1.5 1.6 3.4 2.8 5.7 3.8-.3.4-.7.8-1.1 1.4-2.3-1.1-4.1-2.5-5.6-4.1-1.6 1.6-3.6 3.1-5.9 4.3-.3-.5-.7-.9-1-1.3 2.4-1.1 4.4-2.5 6-4.1-1.9-2.5-3-5.6-3.3-9.3h-1.1zm8.8 0h-6.4c.3 3.3 1.3 6 3 8.2 2-2.3 3.1-5.1 3.4-8.2z" fill="#fbfcfa"/><path d="m385.3 3.8h1.3v2.2h2.8v-2.2h1.3v2.2h4.1v9.1h1.7v1.3h-16.9v-1.3h1.7v-9.1h4.1v-2.2zm.4 13.1.7 1.2c-1.8.9-3.8 1.9-6 2.9-.2-.4-.5-.8-.8-1.3 2.3-1 4.3-1.9 6.1-2.8zm-3.1-6.4h2.8v-3.2h-2.8zm0 4.6h2.8v-3.3h-2.8zm4-4.6h2.8v-3.2h-2.8zm0 4.6h2.8v-3.3h-2.8zm3.7 1.9c2.1.9 4.1 1.8 6.1 2.7l-.7 1.3c-2.2-1.1-4.2-2-6.1-2.9zm3.2-9.7h-2.8v3.2h2.8zm-2.8 7.8h2.8v-3.3h-2.8z" fill="#fbfcfa"/><g fill="#010101"><path d="m174.05 279.92c-19.74-1.85-39.61-3.28-59.36-5.71-16.6-2.04-33.06-5.19-49.55-8-1.85-.32-3.82-1.3-5.25-2.53-6.03-5.18-11.93-10.52-17.79-15.9-6.34-5.83-9.07-13.09-8.48-21.7.14-2.02.89-2.69 2.78-3 12.38-1.97 24.8-1.49 37.06.36 23.35 3.54 46.6 7.71 69.9 11.54 1.72.28 3.59.17 5.32-.16 4.16-.78 8.36-1.54 12.39-2.79 5.2-1.61 10.27-.58 15.38.07 7.15.9 14.27 2.06 21.43 2.8 2.54.26 5.42.2 7.72-.74 11.38-4.66 23.1-6.89 35.35-5.64 7.09.72 13.09-1.42 19.16-4.95 16.12-9.37 32.3-18.67 48.86-27.21 11.92-6.15 24.33-11.46 36.87-16.25 5.02-1.92 10.76-.33 15.18 3.4 2.76 2.32 2.67 5.75 2.18 8.88-1.17 7.54-3.67 14.33-9.58 19.82-8.77 8.15-17.08 16.81-25.45 25.38-1.82 1.87-3.76 2.97-6.28 3.18-6.95.59-13.35 2.88-19.7 5.69-19.08 8.43-38.17 16.84-57.48 24.7-5.57 2.27-11.86 3.14-17.92 3.79-17.47 1.91-34.99 3.34-52.74 4.97z"/><path d="m271.78 135.64c-1.11 4.88-1.8 8.99-5.64 12.28-4.73 4.06-8.86 8.82-13.39 13.14-1.15 1.1-2.74 2.02-4.28 2.4-33.59 8.34-67.2 16.6-100.82 24.81-1.15.28-2.52.18-3.66-.17-11.25-3.39-22.47-6.85-33.69-10.34-4.47-1.39-8.68-8.51-8.24-13.86.19-2.32.52-4.63.87-6.93.9-5.79.94-5.67 6.84-6.46 23.93-3.22 47.85-6.52 71.78-9.79 13.01-1.78 26.02-3.56 39.03-5.4 1.44-.2 2.9-.62 4.23-1.2 7.08-3.09 13.99-6.62 21.21-9.33 7.59-2.84 15.17-1.47 21.69 3.07 2.13 1.5 2.76 5.13 4.07 7.78z"/></g></svg>