<svg enable-background="new 0 0 400 400" viewBox="0 0 400 400" xmlns="http://www.w3.org/2000/svg"><path d="m362.1 8.8c1.1.8 2.1 1.6 3.1 2.4l-1 1.1c-1.3-1.1-2.3-2-3-2.5zm1.9 4.8c.5.2.9.4 1.4.5-.6 2.3-1.3 4.5-1.9 6.8l-1.5-.5c.8-2.1 1.4-4.3 2-6.8zm-1-9.4c1.3.9 2.4 1.8 3.4 2.5l-1 1.1c-1.4-1.2-2.4-2.1-3.2-2.6zm3.7 2.2v-1.4h10.3v1.2c-.5 3.6-1.8 6.8-4 9.4 1.5 1.6 3.4 2.8 5.7 3.8-.3.4-.7.8-1.1 1.4-2.3-1.1-4.1-2.5-5.6-4.1-1.6 1.6-3.6 3.1-5.9 4.3-.3-.5-.7-.9-1-1.3 2.4-1.1 4.4-2.5 6-4.1-1.9-2.5-3-5.6-3.3-9.3h-1.1zm8.8 0h-6.4c.3 3.3 1.3 6 3 8.2 2-2.3 3.1-5.1 3.4-8.2z" fill="#fbfcfa"/><path d="m385.3 3.8h1.3v2.2h2.8v-2.2h1.3v2.2h4.1v9.1h1.7v1.3h-16.9v-1.3h1.7v-9.1h4.1v-2.2zm.4 13.1.7 1.2c-1.8.9-3.8 1.9-6 2.9-.2-.4-.5-.8-.8-1.3 2.3-1 4.3-1.9 6.1-2.8zm-3.1-6.4h2.8v-3.2h-2.8zm0 4.6h2.8v-3.3h-2.8zm4-4.6h2.8v-3.2h-2.8zm0 4.6h2.8v-3.3h-2.8zm3.7 1.9c2.1.9 4.1 1.8 6.1 2.7l-.7 1.3c-2.2-1.1-4.2-2-6.1-2.9zm3.2-9.7h-2.8v3.2h2.8zm-2.8 7.8h2.8v-3.3h-2.8z" fill="#fbfcfa"/><g fill="#010101"><path d="m59.29 224.93c6.87-3.79 14.16-6.05 21.9-5.44 10.64.84 21 .43 31.52-1.94 7.11-1.6 14.77-1.84 22.06-1.26 15.52 1.24 30.64-.57 45.76-3.65 12.86-2.63 25.75-5.27 38.72-7.21 9.73-1.45 19.62-1.8 29.43-2.61 7.92-.65 15.83-1.56 23.77-1.79 8.02-.23 16.12-.34 24.07.53 17.78 1.96 35.5 4.5 53.23 6.96 3.12.43 6.2 1.43 9.15 2.57 1.25.48 2.6 1.84 3.02 3.1 2.01 5.94 2.01 6.2-3.86 9.13-3.68 1.84-5.27 4.14-5.74 8.39-2.23 20.22-4.78 40.41-7.54 60.56-.95 6.9-2.8 13.69-4.4 20.49-.23.97-1.2 1.95-2.09 2.56-5.49 3.74-11.51 4.1-17.63 2.05-5.21-1.74-10.24-4.04-15.44-5.83-7.49-2.57-14.93-5.48-22.62-7.2-9.83-2.2-18.99-5.81-27.84-10.41-1.83-.95-2.94-.72-4.28.85-2.96 3.46-6.46 6.5-9.18 10.13-4.39 5.85-10.55 8.16-17.23 9.81-13.23 3.28-26.03.67-38.9-2.38-9.69-2.29-17.63-6.64-22.89-15.41-6.13-10.21-15.21-16.52-26.4-20.49-11.48-4.08-22.61-9.1-32.38-16.62-4.2-3.23-8.47-6.42-12.28-10.08-5.62-5.39-11.96-9.45-19.29-11.92-6.38-2.11-10.62-6.23-12.64-12.89zm225.82-5.66c-7.94 0-15.88.03-23.82-.01-4.19-.02-7.41 2.06-8.47 6.04-1.98 7.46-4 14.93-5.5 22.5-.86 4.32-1.14 8.85-.94 13.25.31 6.72 2.27 12.54 9.65 15.19 4.24 1.52 8.09 4.14 12.12 6.25 4.6 2.4 9.03 5.24 13.84 7.07 8.19 3.12 16.62 5.64 24.96 8.36 5.61 1.83 11.2 1.92 16.79-.27 1.74-.69 2.57-1.59 2.91-3.59 3.29-19.39 5.13-39.04 10.72-58.02.85-2.89-.16-6.41-.62-9.6-.26-1.78-1.61-2.55-3.59-2.91-15.89-2.88-31.9-4.2-48.05-4.26zm-105.67 8.57c-5.13-.6-12.79.96-19.76 5.32-1 .62-1.91 2.19-1.97 3.35-.17 3.8-.09 7.64.21 11.43.8 9.9 2.19 19.79 8.82 27.69 6.45 7.69 13.49 14.89 20.36 22.23.63.67 1.84.97 2.83 1.1 6.4.84 12.81 1.64 19.23 2.36 6.71.75 13.11-.32 18.97-3.77.94-.56 1.96-1.72 2.13-2.74.82-5.01 1.3-10.08 2.03-15.11 2.1-14.55 4.26-29.1 6.39-43.65.2-1.36.56-2.71.57-4.07.05-4.5-2.27-7.05-6.69-7.57-2.52-.3-5.06-.51-7.56-.99-4.23-.81-8.31-.66-12.49.57-9.77 2.89-19.74 4.79-33.07 3.85zm-73.46 9.98c2.71 5.2 6.24 8.98 10.85 11.86 3.49 2.18 6.73 4.76 10.22 6.95 2.67 1.67 5.44 3.31 8.36 4.42 3.19 1.21 7.7-1.49 7.77-4.46.11-4.97.14-9.96-.14-14.92-.2-3.54-1.67-7.23-5.17-8.07-4.87-1.17-10.19-1.99-15.06-1.26-5.65.83-11.02 3.5-16.83 5.48z"/><path d="m35.65 207.25c-2.78-3.59-2.94-7.47-1.47-11.03 3.18-7.71 6.44-15.45 10.45-22.75 4.74-8.62 7.96-17.71 10.82-27.05 1.91-6.23 4.33-12.35 7.13-18.23 1.85-3.87 5.36-6.6 9.56-7.92.99-.31 2.7.12 3.46.85 12.1 11.57 26.44 18.89 42.63 22.73 3.87.92 6.75.14 9.47-3.49 13.74-18.32 27.84-36.36 41.82-54.5.57-.74 1.22-1.43 1.95-2.29 2.82 4.54 5.32 8.74 3.6 14.37-1.05 3.43.04 6.34 3.2 9.1 10.94 9.54 21.34 19.69 32.15 29.37 4.55 4.07 9.54 7.67 14.53 11.21 1.66 1.18 3.88 1.66 5.92 2.2 5.03 1.35 8.79.53 12.06-4.48 7.07-10.81 14.8-21.21 22.51-31.59 4.4-5.92 7.94-12.24 10.76-19.01 1.7-4.1 4.56-6.92 9.04-7.57 1.06-.15 2.7.49 3.34 1.32 2.4 3.11 3.46 6.76 3.06 10.73-.53 5.16-.51 10.36 2.49 14.74 2.25 3.28 5.04 6.36 8.15 8.84 9.44 7.51 19.05 14.81 28.77 21.96 8.6 6.33 16.3 13.47 22.51 22.28-5.83.74-10.59-.53-15.33-3.06-19.89-10.6-35.78-26.32-52.67-40.77-.8-.68-1.61-1.36-2.68-2.28-.85.99-1.68 1.89-2.43 2.85-7.4 9.42-15.12 18.62-22.09 28.34-7.27 10.14-17.03 12.9-28.67 11.48-2.1-.26-4.19-.66-6.26-1.08-4.19-.84-7.61-2.6-10.86-5.77-12.13-11.82-25.73-21.71-41.25-28.76-.29-.13-.58-.25-.88-.37-8.33-3.24-8.76-3.14-14.43 3.51-.76.89-1.43 1.86-2.26 2.67-5.81 5.68-9.83 12.4-11.77 20.3-.52 2.13-1.68 3.07-3.86 3.42-5.96.96-11.85 2.33-17.82 3.2-2.53.37-5.3.36-7.75-.28-13-3.41-25.96-7-38.88-10.7-2.27-.65-3.45-.4-4.44 1.83-3.68 8.32-7.55 16.56-11.26 24.88-4.56 10.22-9.72 20.04-18.26 27.61-1.25 1.13-2.62 2.08-4.06 3.19z"/></g></svg>