<svg enable-background="new 0 0 400 400" viewBox="0 0 400 400" xmlns="http://www.w3.org/2000/svg"><g fill="#010000"><path d="m300.32 315.66c-5.94 0-11.88.22-17.8-.07-4.3-.21-8.48-.17-12.4 1.73-9.4 4.56-18.46 3.69-27.78-.65-3.77-1.76-6.04-3.66-7.12-7.78-3.33-12.69-7.4-25.19-10.42-37.94-1.14-4.79-.61-10.13-.08-15.14 1.47-13.78 3.29-27.53 5.09-41.28.61-4.64 2.5-8.62 7.51-9.93 1.56-.41 3.61-.77 4.89-.11 8.98 4.59 18.09 2.78 27.31 1.17 10.74-1.87 21.5-3.89 32.34-4.95 6.02-.59 12.22.72 18.35 1.03 11.08.56 22.08 2.65 33.27 1.18 5.27-.69 7.65 1.74 7.51 6.96-.31 11.05.48 21.98 2.16 32.92 2.12 13.83-.08 27.47-2.58 41.05-.31 1.67-.84 3.32-.94 4.99-.41 7.28-3.94 13.08-8.77 18.14-1.39 1.45-3.43 2.46-5.35 3.19-11.07 4.19-22.71 4.84-34.38 5.18-3.6.11-7.2.02-10.81.02zm-30.51-18.64c7.13.91 13.84-.98 20.6-2.9 3.74-1.06 7.59-1.94 11.44-2.32 5.37-.53 10.79-.42 16.18-.79 1.48-.1 3.19-.6 4.3-1.52 11.26-9.34 11.24-9.37 14.55-23.7.52-2.27 1.1-4.54 1.36-6.85 1.03-9.45 2.22-18.9 2.79-28.38.28-4.67-1.24-9.2-4.44-12.93-1.56-1.82-2.96-2.41-5.39-1.07-7.75 4.27-16.07 7.14-24.81 8.48-14.73 2.26-29.37 5.36-44.46 4.51-6.69-.38-10.71 3.01-12.02 9.43-1.36 6.63-2.43 13.32-3.47 20.01-1.83 11.76.67 22.37 7.88 32.06 3.27 4.4 6.7 7.06 12.33 6 1.01-.2 2.1-.03 3.16-.03z"/><path d="m59.72 219.59c8.62-4.91 17.9-7.93 27.78-9.1 8.19-.97 15.89-3.49 23.35-6.9 1.49-.68 3.24-1.17 4.86-1.12 17.48.44 34.95.98 52.42 1.55 2.85.09 5.78.16 8.52.86 2.55.65 5.08 1.86 7.28 3.33 2.63 1.75 4.71 4.34 7.37 6.03 6.02 3.83 7.24 9.8 7.84 16.13.24 2.53.32 5.08.37 7.62.12 6.05 1.32 11.77 4.96 16.75 1.27 1.74 1.49 3.42.19 5.22-3.24 4.47-2.13 9.8-2.8 14.76-.41 3.04-.74 6.14-.59 9.2.34 6.98-1.82 13.02-5.77 18.69-2.54 3.64-4.84 7.5-6.76 11.5-4 8.33-11.27 12.35-19.54 14.37-9.65 2.35-19.54 3.7-29.55 5.52-.3-2.49-.52-4.76-.86-7-.39-2.51-1.86-3.72-4.45-3.34-3.04.45-6.37.31-9 1.6-2.08 1.02-3.8 3.59-4.77 5.85-1.12 2.59-2.17 3.97-5.28 4.32-14.52 1.65-28.97 4.28-43.68 2.2-3.36-.47-6.7-1.07-10.06-1.51-3.62-.47-6.44-2.12-8.92-4.85-3.63-4-7.31-8.06-11.5-11.43-5.66-4.56-7.42-10.62-7.99-17.29-1.75-20.54 1.63-40.56 6.54-60.39.25-1.02 1.61-2.05 2.69-2.46.41-.15 1.75 1.31 2.2 2.26 2.02 4.31 3.95 8.67 5.75 13.08 3.97 9.69 3.54 19.93 3.63 30.1.06 6.69.18 13.34 2.69 19.71 2.85 7.22 7.87 11.15 15.45 10.98 24.57-.54 49.19-.45 73.55-4.36 5.63-.9 11.15-2.5 16.77-3.54 3.15-.58 4.92-2.46 6.42-5.06 3.82-6.63 5.84-13.86 7.08-21.29 2.39-14.37 3.73-28.87 1.59-43.36-1.59-10.75.06-8.92-10.34-10.45-11.71-1.72-23.61-2.89-35.43-2.89-15.12 0-30.23 1.51-45.36 2.14-6.02.25-12.09.09-18.1-.32-5.18-.36-7.7-2.72-8.55-7.11z"/><path d="m142.29 85.41c2.65 9.4 5.23 18.55 7.81 27.71.23.81.45 1.63.68 2.45 1.68 6.07 1.71 6.71 8.06 6.44 7.88-.34 15.7-1.87 23.54-2.91 3.87-.51 7.73-1.51 11.6-1.55 8.1-.07 13.47 4.9 14.86 12.87.3 1.72-.2 2.44-1.61 3.19-6.34 3.36-13.19 4.71-20.22 4.66-7.4-.05-14.81-1.01-22.2-.96-3.59.03-7.24 1.24-10.71 2.39-1.57.52-2.97 2.03-4.05 3.4-2.55 3.26-1.92 4 .22 7.37 5.65 8.87 14.4 9.65 23.42 9.45 15.26-.34 30.44-1.72 45.44-4.81 2.81-.58 4.62-1.91 6.13-4.36 7.37-11.95 10.04-25.05 9.99-38.87-.02-7.63-.17-15.26-.04-22.89.04-2.29-.99-3.18-2.89-3.8-8.72-2.85-17.7-3.08-26.73-2.71-11.43.47-22.87.86-34.28 1.65-5.15.36-10.24 1.63-15.37 2.4-1.23.19-2.8.49-3.7-.08-1.36-.84-2.67-2.24-3.26-3.71-.72-1.78.19-3.15 2.09-4.28 14.92-8.85 31.42-12.13 48.3-14.56 13.48-1.94 26.67-1.35 39.57 2.75 4.54 1.45 8.93 3.88 12.84 6.65 3.96 2.81 5.53 7.36 4.39 12.17-1.47 6.21-.79 12.01 1.12 18.06 5.27 16.71 5.98 33.7 1.73 50.78-.29 1.17-.87 2.42-1.68 3.28-5.87 6.26-11.81 12.47-17.82 18.6-.79.8-2.22 1.64-3.2 1.49-11.55-1.84-22.7.97-34.03 2.34-12.59 1.52-25.3 2.39-37.98 2.67-6.36.14-12.78-1.61-19.14-2.64-.88-.14-1.91-.95-2.4-1.74-8.29-13.41-13.07-27.93-13.6-43.77-.47-14.15.85-28.13 3.59-42.02.65-3.32 1.9-5.06 5.1-5.67 1.44-.27 2.8-.89 4.43-1.44z"/><path d="m147.74 271.32c-9.27 6.78-19.47 10.59-30.96 10.62-9.3.03-18.22-1.85-26.88-5.32-2.5-1-2.16-2.61-2.3-4.47-.17-2.24 1.49-2.22 2.85-2.55 11.4-2.77 22.8-5.52 34.2-8.25 5.8-1.39 11.36-.23 16.7 1.99 3.4 1.42 5.4 4.23 6.39 7.98z"/><path d="m318.76 256.51c-7.61 7.16-16.68 11.26-27.05 12.68-11.7 1.59-23.02.37-33.79-4.66-2.2-1.03-4.66-2.28-3.95-5.33.33-1.43 1.32-3.38 2.49-3.84 5.57-2.18 11.19-4.73 17.03-5.63 10.23-1.58 20.61-2.36 30.96-2.87 7.98-.41 11.59 2.43 14.31 9.65z"/></g><path d="m361.2 9.6.8-1c.9.7 1.9 1.4 2.9 2.3l-.9 1.1c-1-1-2-1.8-2.8-2.4zm.5 10.6c.9-2.1 1.6-4.3 2.3-6.7.4.2.8.4 1.3.6-.7 2.1-1.5 4.3-2.2 6.6zm.4-15.2.9-.9c1 .8 2 1.6 2.8 2.4l-1 1c-.9-.9-1.8-1.7-2.7-2.5zm12.5-1.2h1.2v1.4h2.7v1.1h-2.7v2.7h-1.2v-.6h-1.8v1.3h4.9v3.8h-1.2v-.5h-3.7c0 .4-.1.9-.1 1.2h5.1v1h-5.2c0 .5-.1.9-.2 1.2h6v1h-5.2c1.1 1.3 2.9 2 5.5 2.2-.4.4-.7.8-.9 1.3-2.9-.5-4.8-1.6-5.7-3.5h-.1c-.8 1.7-2.7 2.9-5.9 3.6-.2-.4-.6-.8-.9-1.1 2.8-.6 4.6-1.4 5.4-2.5h-4.8v-1h5.3c.1-.3.2-.7.2-1.2h-4.9v-1h5c0-.4 0-.8.1-1.2h-3.5v.5h-1.2v-3.8h4.9v-1.3h-1.8v.5h-1.2v-2.7h-2.7v-1h2.6v-1.4h1.2v1.4h4.7v-1.4zm-6.6 8.3h3.6c0-.4 0-.9 0-1.4h-3.6zm1.9-4.6h4.7v-1.3h-4.7zm6.6 3.2h-3.7v1.4h3.7z" fill="#fafafb"/><path d="m385.3 3.8h1.3v2.2h2.8v-2.2h1.3v2.2h4.1v9.1h1.7v1.3h-16.9v-1.3h1.7v-9.1h4.1v-2.2zm.4 13.1.7 1.2c-1.8.9-3.8 1.9-6 2.9-.2-.4-.5-.8-.8-1.3 2.3-1 4.3-1.9 6.1-2.8zm-3.1-6.4h2.8v-3.2h-2.8zm0 4.6h2.8v-3.3h-2.8zm4-4.6h2.8v-3.2h-2.8zm0 4.6h2.8v-3.3h-2.8zm3.7 1.9c2.1.9 4.1 1.8 6.1 2.7l-.7 1.3c-2.2-1.1-4.2-2-6.1-2.9zm3.2-9.7h-2.8v3.2h2.8zm-2.8 7.8h2.8v-3.3h-2.8z" fill="#fafafb"/></svg>