<svg enable-background="new 0 0 400 400" viewBox="0 0 400 400" xmlns="http://www.w3.org/2000/svg"><path d="m78.6 113.11c14.32 13.52 26.24 29.62 42.84 41.1 4.73-6.73 6.97-13.85 7.6-21.22.83-9.58 1.28-19.26.89-28.86-.89-21.82 1.3-42.94 11.19-62.8 1.06-2.12 2.2-2.4 4.19-1.93 4.82 1.14 6.52 3.29 6.81 8.15 1.36 23.28 2.79 46.56 4.2 69.84.49 8.03 1.01 16.06 1.52 24.28 4.81.52 8.95 1 12.46-3.7 4.87-6.52 10.55-12.45 16-18.52 6.13-6.83 14.04-10.73 22.93-13.43 1.12 4.72 2.37 9.32 3.18 13.99.19 1.07-.92 2.63-1.83 3.59-14.06 14.72-28.5 29.08-42.19 44.13-9.73 10.69-16.59 23.24-19.69 37.59-.86 3.98-1.08 7.79.18 11.83 3.44 11.12 6.44 22.38 9.81 33.52.57 1.88 1.88 3.75 3.32 5.12 7.15 6.8 12.5 14.91 17.52 23.3 4.4 7.35 9.01 14.59 13.56 21.84 2.07 3.3 4.65 3.9 8.78 3.39 8.22-1.02 13.61-5.05 18.57-11.43 10.59-13.64 21.86-26.77 32.96-40.01 1.64-1.95 2.19-3.74 1.89-6.28-1.56-13.37-2.97-26.75-4.31-40.15-.21-2.1-1.09-3.35-2.71-4.61-15.37-11.93-28.06-26.1-36.09-44.05-1.2-2.68-1.99-5.54-3.11-8.73 2.18-.63 4.03-1.41 5.95-1.62.89-.1 2.11.69 2.81 1.43 5.36 5.59 10.56 11.32 15.94 16.89 4.31 4.46 9.11 8.27 15.31 9.82.98.25 2.01.33 3.57.58 1.06-8.53 2.63-16.68 2.98-24.88.67-15.88.77-31.78.87-47.67.09-14.15.66-28.2 5.75-41.62 2.59-6.82 6.33-12.91 12.22-17.87 5.59 6.01 9.48 12.89 11.89 20.65 2.9 9.36 2.05 18.82 1.01 28.36-1.89 17.26-4.97 34.44-4.13 51.92.09 1.9.2 3.82.54 5.69.75 4.09 4.51 6.96 8.54 6.36 1.06-.16 2.13-1.2 2.91-2.09 6.61-7.6 13.72-14.5 23.8-17.28 1.49-.41 3.05-.58 5.17-.97-1.48 4.64-3.18 8.65-4.01 12.83-1.86 9.31-6.65 16.25-14.54 21.59-5.77 3.91-10.84 8.84-16.33 13.17-1.94 1.53-3.08 3.17-3.35 5.72-2.06 19.54-3.77 39.06.25 58.57 1.01 4.92 2.94 9.27 5.8 13.53 8.89 13.21 19.41 24.58 32.38 34.03 11.01 8.02 21.71 16.73 30.35 27.47 7.19 8.94 10.4 19.07 7.86 30.59-.07.31-.16.62-.28.91-.08.19-.23.35-.19.28-1.86-1.71-3.61-3.6-5.63-5.12-22.95-17.28-45.95-34.5-68.94-51.73-.82-.61-1.7-1.14-3.35-2.24-.77 7.02-1.86 13.38-2.05 19.76-.25 8.15.45 16.32.31 24.47-.08 4.39-.51 8.94-1.76 13.12-2.01 6.73-7.94 9.74-14.77 8.2-.78-.18-1.82-1.08-1.99-1.82-3.39-14.87-6.97-29.7-9.81-44.67-1.01-5.33-.19-11-.21-16.51 0-1.25 0-2.49 0-4.02-5.73.52-11.1.89-16.42 1.6-1.17.16-2.26 1.44-3.25 2.35-8.2 7.46-17.56 13.03-28.14 16.16-4.04 1.2-8.55 1.2-12.83 1.13-4.36-.08-7.95-2.26-11.22-5.27-10.15-9.31-20.5-18.4-31.27-28.02-1.36 4-2.89 7.58-3.79 11.3-2.3 9.57-4.14 19.25-6.49 28.81-1.52 6.16-4.44 11.69-9.54 15.76-1.06.84-2.27 1.5-4.24 2.78-.68-6.45-1.9-12.28-1.79-18.09.23-12.07 1.08-24.13 1.87-36.19.14-2.2-.47-3-2.48-3.41-3.1-.64-6.57-2.75-9.11-1.91-2.31.76-3.63 4.6-5.32 7.13-10.01 14.95-21.44 28.73-34.58 41-10.05 9.38-21.78 15.37-35.98 15.11-2.2-.04-4.4-.4-6.76-.63 1.04-4.78 1.97-9.34 3.08-13.85.22-.91.97-1.89 1.76-2.45 25.52-18.14 44.66-42.05 61.28-68.15 3.29-5.16 7.17-9.52 12.12-12.77 8.15-5.35 12.48-12.06 12.61-22.29.14-10.76 2.03-21.5 3.31-32.24.25-2.06-.39-3.26-1.85-4.62-12.43-11.54-25-22.95-37.06-34.87-8.43-8.32-13.75-18.45-14.42-30.64-.34-5.97-.18-6.51 5.17-9.51z" fill="#010000"/><g fill="#fafafb"><path d="m361.2 9.6.8-1c.9.7 1.9 1.4 2.9 2.3l-.9 1.1c-1-1-2-1.8-2.8-2.4zm.5 10.6c.9-2.1 1.6-4.3 2.3-6.7.4.2.8.4 1.3.6-.7 2.1-1.5 4.3-2.2 6.6zm.4-15.2.9-.9c1 .8 2 1.6 2.8 2.4l-1 1c-.9-.9-1.8-1.7-2.7-2.5zm12.5-1.2h1.2v1.4h2.7v1.1h-2.7v2.7h-1.2v-.6h-1.8v1.3h4.9v3.8h-1.2v-.5h-3.7c0 .4-.1.9-.1 1.2h5.1v1h-5.2c0 .5-.1.9-.2 1.2h6v1h-5.2c1.1 1.3 2.9 2 5.5 2.2-.4.4-.7.8-.9 1.3-2.9-.5-4.8-1.6-5.7-3.5h-.1c-.8 1.7-2.7 2.9-5.9 3.6-.2-.4-.6-.8-.9-1.1 2.8-.6 4.6-1.4 5.4-2.5h-4.8v-1h5.3c.1-.3.2-.7.2-1.2h-4.9v-1h5c0-.4 0-.8.1-1.2h-3.5v.5h-1.2v-3.8h4.9v-1.3h-1.8v.5h-1.2v-2.7h-2.7v-1h2.6v-1.4h1.2v1.4h4.7v-1.4zm-6.6 8.3h3.6c0-.4 0-.9 0-1.4h-3.6zm1.9-4.6h4.7v-1.3h-4.7zm6.6 3.2h-3.7v1.4h3.7z"/><path d="m385.3 3.8h1.3v2.2h2.8v-2.2h1.3v2.2h4.1v9.1h1.7v1.3h-16.9v-1.3h1.7v-9.1h4.1v-2.2zm.4 13.1.7 1.2c-1.8.9-3.8 1.9-6 2.9-.2-.4-.5-.8-.8-1.3 2.3-1 4.3-1.9 6.1-2.8zm-3.1-6.4h2.8v-3.2h-2.8zm0 4.6h2.8v-3.3h-2.8zm4-4.6h2.8v-3.2h-2.8zm0 4.6h2.8v-3.3h-2.8zm3.7 1.9c2.1.9 4.1 1.8 6.1 2.7l-.7 1.3c-2.2-1.1-4.2-2-6.1-2.9zm3.2-9.7h-2.8v3.2h2.8zm-2.8 7.8h2.8v-3.3h-2.8z"/></g></svg>