<svg enable-background="new 0 0 400 400" viewBox="0 0 400 400" xmlns="http://www.w3.org/2000/svg"><path d="m178.12 126.97c.98-2.23 1.95-4.22 2.71-6.29.25-.67.25-1.78-.15-2.29-1.63-2.03-.62-3.58.1-5.69 1.29-3.83 2.08-7.99 2.16-12.03.09-4.52-1.02-9.04-1.27-13.59-.14-2.5.41-5.03.64-7.55.1-1.05.62-2.33.2-3.11-3.09-5.88-1.28-11.82-.43-17.73 1.12-7.85 2.38-15.67 3.61-23.75 3.6 1.52 5.33 4.23 6.18 7.45.76 2.85 1.55 5.84 1.45 8.74-.25 7.33 2.05 14.21 2.97 21.32 1.2 9.33 1.73 18.77 2.16 28.17.32 6.97.07 13.98-.05 20.96-.06 3.72.35 7.19 3.68 10.02 4.77-5.56 9.54-11.05 14.24-16.6 10.14-11.97 20.26-23.97 30.36-35.98 2.62-3.11 6.02-3.73 9.76-3.25 2.71.35 3.03 2.71 2.72 4.59-.54 3.29-1.5 6.37-4.31 8.88-2.62 2.34-4.65 5.47-6.52 8.51-2.41 3.93-5.04 7.52-8.94 10.14-1.53 1.03-2.82 2.55-3.91 4.08-5.54 7.77-10.85 15.7-16.47 23.4-5.33 7.3-10.16 14.85-13.27 23.39-.22.59-.38 1.31-.81 1.71-4.92 4.51-4.38 10.12-3.88 16.07.8 9.49.66 19.07 1.36 28.57.48 6.41 1.66 12.78 2.7 19.14.23 1.39 1.06 2.76 1.87 3.97 7.29 10.81 14.38 21.77 22.07 32.28 4.11 5.61 9.32 10.41 13.97 15.63 8.39 9.42 17.04 18.63 25.01 28.39 6.78 8.31 11.22 17.92 12.4 29.02-3.09.63-5.73.76-8.29-1.85-4.19-4.26-8.07-9.04-14.15-10.98-.93-.3-1.75-1.52-2.23-2.51-3.36-6.96-8.42-12.32-14.85-16.53-13.25-8.69-22.36-21.57-32.98-32.92-.94-1.01-1.84-2.05-2.78-3.06-.13-.14-.35-.2-1.15-.64-.13 1.95-.6 3.69-.28 5.29 2.56 13.03.32 26.02-.33 38.99-.77 15.44-2.23 30.85-3.54 46.26-.35 4.15-1.47 8.13-5.75 10.12-.34-.27-.6-.37-.62-.51-3.28-18.86-7.27-37.62-6.83-56.94.13-5.48-.27-11-.81-16.47-.33-3.3-2.24-5.89-5.54-7.44-7.68 8.17-15.37 16.36-23.06 24.55-8.42 8.97-16.78 17.99-25.33 26.84-1.24 1.29-3.32 2.03-5.15 2.43-2.57.56-5.26.59-7.9.8-2.72.21-4.27-1.27-3.56-3.91.91-3.38 1.7-6.63 5.07-9.08 8.24-5.98 14.45-14.08 19.97-22.49 7.37-11.24 16.45-21.01 25.18-31.1 4.44-5.13 8.97-10.19 13.37-15.35.77-.91 1.55-2.18 1.57-3.29.38-19.39.75-38.78.86-58.17.04-6.98-.59-13.96-.92-20.95-.04-.84.06-1.76-.24-2.51-2.39-5.86-4.82-11.69-7.32-17.5-.58-1.35-1.18-2.83-2.2-3.82-7.85-7.66-12.17-17.47-16.81-27.1-4.65-9.63-9.4-19.21-14.07-28.83-.55-1.13-1.18-2.35-1.23-3.56-.25-5.38-2.8-9.66-6.09-13.66-1.96-2.39-3.28-5.07-2-8.18.29-.72 1.65-1.55 2.39-1.44 2.53.36 4.59 1.49 6.35 3.67 7.53 9.29 13.41 19.53 18.67 30.22 4.64 9.43 10.73 17.77 19.11 24.28.24.19.52.35 1.16.77z" fill="#010000"/><g fill="#fafafb"><path d="m361.2 9.6.8-1c.9.7 1.9 1.4 2.9 2.3l-.9 1.1c-1-1-2-1.8-2.8-2.4zm.5 10.6c.9-2.1 1.6-4.3 2.3-6.7.4.2.8.4 1.3.6-.7 2.1-1.5 4.3-2.2 6.6zm.4-15.2.9-.9c1 .8 2 1.6 2.8 2.4l-1 1c-.9-.9-1.8-1.7-2.7-2.5zm12.5-1.2h1.2v1.4h2.7v1.1h-2.7v2.7h-1.2v-.6h-1.8v1.3h4.9v3.8h-1.2v-.5h-3.7c0 .4-.1.9-.1 1.2h5.1v1h-5.2c0 .5-.1.9-.2 1.2h6v1h-5.2c1.1 1.3 2.9 2 5.5 2.2-.4.4-.7.8-.9 1.3-2.9-.5-4.8-1.6-5.7-3.5h-.1c-.8 1.7-2.7 2.9-5.9 3.6-.2-.4-.6-.8-.9-1.1 2.8-.6 4.6-1.4 5.4-2.5h-4.8v-1h5.3c.1-.3.2-.7.2-1.2h-4.9v-1h5c0-.4 0-.8.1-1.2h-3.5v.5h-1.2v-3.8h4.9v-1.3h-1.8v.5h-1.2v-2.7h-2.7v-1h2.6v-1.4h1.2v1.4h4.7v-1.4zm-6.6 8.3h3.6c0-.4 0-.9 0-1.4h-3.6zm1.9-4.6h4.7v-1.3h-4.7zm6.6 3.2h-3.7v1.4h3.7z"/><path d="m385.3 3.8h1.3v2.2h2.8v-2.2h1.3v2.2h4.1v9.1h1.7v1.3h-16.9v-1.3h1.7v-9.1h4.1v-2.2zm.4 13.1.7 1.2c-1.8.9-3.8 1.9-6 2.9-.2-.4-.5-.8-.8-1.3 2.3-1 4.3-1.9 6.1-2.8zm-3.1-6.4h2.8v-3.2h-2.8zm0 4.6h2.8v-3.3h-2.8zm4-4.6h2.8v-3.2h-2.8zm0 4.6h2.8v-3.3h-2.8zm3.7 1.9c2.1.9 4.1 1.8 6.1 2.7l-.7 1.3c-2.2-1.1-4.2-2-6.1-2.9zm3.2-9.7h-2.8v3.2h2.8zm-2.8 7.8h2.8v-3.3h-2.8z"/></g></svg>