<svg enable-background="new 0 0 400 400" viewBox="0 0 400 400" xmlns="http://www.w3.org/2000/svg"><path d="m168.33 35.12c5.72 4.02 7.41 10.35 4.86 17.46-2.17 6.07-5.22 11.97-6.41 18.22-1.57 8.27-1.93 16.8-2.42 25.23-1.4 23.92-2.44 47.85-3.97 71.76-.59 9.14 2.65 16.65 8.3 23.27 14.86 17.41 29.77 34.78 45 51.87 3.97 4.46 9.28 7.7 13.77 11.73 1.55 1.39 2.71 3.37 3.64 5.27 1.02 2.07 1.74 4.33 2.28 6.59.94 3.97 2.11 7.37 7.36 6.15.51-.12 1.49.42 1.77.92 3.72 6.63 7.34 13.3 11.3 20.51-1.84.39-3.38 1.24-4.54.88-3.58-1.13-7.9-1.83-10.35-4.28-17.37-17.41-34.47-35.09-51.36-52.96-5-5.29-9.03-11.49-13.54-17.24-4.15-5.3-9.38-9.13-16.3-11.45-2.14 5.93-6.95 10.64-5.78 18.07 2.13 13.43 2.17 27 .94 40.57-.33 3.65.26 7.4.63 11.08.42 4.07 1.68 7.82 4.85 10.72 1.01.92 1.88 2.04 2.63 3.18 6.7 10.21 16.65 16.68 26.54 23.25 11.7 7.77 22.45 16.61 31.76 27.25 3 3.42 7.1 5.99 10.98 8.5 3.78 2.45 6.79 5.41 8.54 9.52.33.79.07 2.27-.5 2.92-2.82 3.21-5.69 3.97-9.65 2.12-3.89-1.82-7.65-4.01-11.26-6.35-3.23-2.1-6.42-3.71-10.38-4.34-2.95-.47-6.09-2.1-8.37-4.1-15.51-13.51-30.98-27.07-46.11-41-6.02-5.54-9.12-13.23-11.7-20.88-5.47-16.24-7.86-32.93-6.45-50.07.13-1.55.38-3.27 1.17-4.54 2.05-3.3 2.58-6.77 2.47-10.59-.19-6.89.24-13.8-.12-20.67-.78-14.85 1.09-29.35 4.86-43.68 1.1-4.19 2.01-8.45 2.77-12.72.36-2.03.6-4.26.15-6.22-1.58-6.87-1.1-13.65.14-20.47.75-4.17 1.27-8.38 1.9-12.57.43-2.91.82-5.64 3.24-7.97 1.27-1.22 1.84-3.92 1.6-5.82-.75-5.98.51-11.52 2.35-17.12 4.57-13.86 8.9-27.8 13.41-42z" fill="#010000"/><path d="m236.84 94.12c7.81 2.98 12.97 7.93 13.78 16.38 1.51 15.83 4.41 31.43 7.75 46.96.71 3.31 1.01 6.74 2.05 9.94 2.59 8.03 1.17 15.87-.62 24.24-3.88-.59-7.81-1.11-11.69-1.85-.55-.11-1.07-1.19-1.33-1.92-1.85-5.18-3.82-10.33-5.32-15.61-.46-1.61.47-3.6.65-5.42.13-1.37.65-3.13.02-4.07-4.26-6.39-5.86-13.49-6.38-21-1.02-14.81-1.93-29.62.35-44.4.13-1.03.45-2.04.74-3.25z" fill="#010000"/><g fill="#fafafb"><path d="m361.2 9.6.8-1c.9.7 1.9 1.4 2.9 2.3l-.9 1.1c-1-1-2-1.8-2.8-2.4zm.5 10.6c.9-2.1 1.6-4.3 2.3-6.7.4.2.8.4 1.3.6-.7 2.1-1.5 4.3-2.2 6.6zm.4-15.2.9-.9c1 .8 2 1.6 2.8 2.4l-1 1c-.9-.9-1.8-1.7-2.7-2.5zm12.5-1.2h1.2v1.4h2.7v1.1h-2.7v2.7h-1.2v-.6h-1.8v1.3h4.9v3.8h-1.2v-.5h-3.7c0 .4-.1.9-.1 1.2h5.1v1h-5.2c0 .5-.1.9-.2 1.2h6v1h-5.2c1.1 1.3 2.9 2 5.5 2.2-.4.4-.7.8-.9 1.3-2.9-.5-4.8-1.6-5.7-3.5h-.1c-.8 1.7-2.7 2.9-5.9 3.6-.2-.4-.6-.8-.9-1.1 2.8-.6 4.6-1.4 5.4-2.5h-4.8v-1h5.3c.1-.3.2-.7.2-1.2h-4.9v-1h5c0-.4 0-.8.1-1.2h-3.5v.5h-1.2v-3.8h4.9v-1.3h-1.8v.5h-1.2v-2.7h-2.7v-1h2.6v-1.4h1.2v1.4h4.7v-1.4zm-6.6 8.3h3.6c0-.4 0-.9 0-1.4h-3.6zm1.9-4.6h4.7v-1.3h-4.7zm6.6 3.2h-3.7v1.4h3.7z"/><path d="m385.3 3.8h1.3v2.2h2.8v-2.2h1.3v2.2h4.1v9.1h1.7v1.3h-16.9v-1.3h1.7v-9.1h4.1v-2.2zm.4 13.1.7 1.2c-1.8.9-3.8 1.9-6 2.9-.2-.4-.5-.8-.8-1.3 2.3-1 4.3-1.9 6.1-2.8zm-3.1-6.4h2.8v-3.2h-2.8zm0 4.6h2.8v-3.3h-2.8zm4-4.6h2.8v-3.2h-2.8zm0 4.6h2.8v-3.3h-2.8zm3.7 1.9c2.1.9 4.1 1.8 6.1 2.7l-.7 1.3c-2.2-1.1-4.2-2-6.1-2.9zm3.2-9.7h-2.8v3.2h2.8zm-2.8 7.8h2.8v-3.3h-2.8z"/></g></svg>