<svg enable-background="new 0 0 400 400" viewBox="0 0 400 400" xmlns="http://www.w3.org/2000/svg"><path d="m206.57 350.06c-6.05-2.07-10.91-4.14-15.12-8.09-12.92-12.11-26.2-23.83-39.35-35.69-.91-.82-1.88-1.57-3.3-2.75 1.21 20.45 1.43 40.16-8.42 58.19-.57 0-1.14 0-1.72-.01-.45-2.62-.99-5.22-1.33-7.86-.67-5.21-.7-10.57-1.95-15.63-2.5-10.04-3.69-20.18-4.05-30.48-.15-4.32-.89-8.63-1.57-12.91-.22-1.41-.87-2.86-1.68-4.05-1.87-2.74-4-2.77-6.02-.16-6.4 8.31-12.66 16.74-19.15 24.98-4.78 6.07-10.75 10.74-18.69 13.46 2.1-5.1 3.45-10.7 6.44-15.21 8.49-12.8 17.52-25.26 26.6-37.65 3.4-4.63 5.88-9.45 6.86-15.11.26-1.49.91-3.17 1.94-4.2 2.67-2.67 3.49-5.71 3.52-9.42.07-9.75.54-19.5.7-29.25.02-1.34-.56-2.86-1.31-4.01-4.19-6.48-9.71-11.61-15.85-16.28-11.32-8.61-20.13-19.65-28.62-30.94-7.29-9.71-9.01-20.94-8.37-32.56.84-15.44 2.19-30.86 3.57-46.26.12-1.29 2.07-2.43 3.17-3.63.43.05.86.1 1.28.14 1.41 3.21 3.29 6.31 4.12 9.67 1.56 6.36 2.21 12.71.33 19.38-1.37 4.89-1.18 10.27-1.31 15.44-.1 4.01.46 8.04.56 12.07.13 5.09 1.92 9.14 5.62 12.89 7.29 7.38 13.85 15.48 21.09 22.92 3.5 3.59 7.84 6.35 11.87 9.54 4.44-4.5 6.91-9.46 6.26-15.21-2.03-17.99.69-35.77 1.84-53.62.91-14.16 2.74-28.28 1.56-42.52-.5-6 1.28-11.45 3.89-16.8 1.29-2.66 3.36-2.47 5.29-2.05 1.22.27 2.9 1.64 3.11 2.75.91 4.86 1.96 9.82 1.86 14.72-.33 17.48-1.18 34.95-1.7 52.42-.44 14.62-.79 29.25-1 43.88-.13 9.11 5.66 12.28 13.6 7.67 3.11-1.8 6.21-3.63 9.29-5.49.62-.37 1.16-.89 1.65-1.43.5-.54.82-1.25 1.33-1.78 8.64-8.91 11.62-19.88 12.42-31.97.81-12.25 2.49-24.44 3.83-36.65.47-4.23 2.07-7.74 6.52-9.35 2.73 2.8 5 5.46 5.28 9.75.67 10.15 2.49 20.24 2.73 30.38.18 7.88-1.33 15.8-2.13 23.7-.05.45-.43 1.21-.74 1.25-3.2.43-3.38 2.75-3.86 5.27-.31 1.62-1.52 3.27-2.75 4.48-5.51 5.43-11.19 10.69-16.76 16.07-.89.86-1.99 1.9-2.17 3-.59 3.52-2.77 5.76-5.25 8.01-7.15 6.48-14.21 13.06-21.21 19.7-.89.84-1.67 2.24-1.75 3.44-.92 14.07-1.95 28.14-2.38 42.23-.14 4.54 1.4 9.14 2.27 13.7.12.63.8 1.17 1.27 1.71 3.24 3.73 6.8 7.23 9.64 11.24 3.33 4.7 6.86 8.97 11.43 12.62 3.91 3.12 7.12 7.22 10.29 11.17 8.4 10.5 17.41 20.58 23.15 32.95 1.19 2.49 2.09 5.09 3.33 8.23z" fill="#010000"/><path d="m270.73 103.26c-4.11 5.56-8.23 11.07-12.26 16.64-5.01 6.92-4.49 14.78-3.62 22.64.72 6.53 1.92 13.02 2.37 19.56.28 4.16-.08 8.46-.84 12.57-.42 2.29-2.25 4.32-3.91 7.3-2.74-6.88-5.02-12.68-7.36-18.47-1.82-4.51-4.26-8.51-9.11-10.59-8.92 10.81-16.89 22.54-30.19 29.57-.37-3.78-.34-6.63 1.16-9.7 6.57-13.42 15.3-25.42 24.48-37.04 4.23-5.36 5.05-10.89 3.66-16.93-2.31-10-5.29-19.84-7.6-29.84-.81-3.53-1.04-7.39-.55-10.97.77-5.56 3.65-7.84 9.8-8.81.84 4.51 1.67 9.05 2.52 13.58.62 3.33.84 6.82 2.05 9.92 1.02 2.62 2.76 5.34 4.95 7.04 3.77 2.93 7.54 2.25 10.58-1.25 10.08-11.59 19.98-23.36 30.21-34.82 4.93-5.53 10.52-10.46 15.63-15.83 2.38-2.5 4.56-5.25 6.43-8.14 2.61-4.07 7.59-5.74 10.27-2.81 1.01 1.11 1.73 3.38 1.3 4.71-.84 2.65-2.3 5.23-3.99 7.47-7.28 9.64-14.78 19.12-22.07 28.75-1.01 1.33-1.77 3.14-1.93 4.79-.95 9.81-1.69 19.64-2.51 29.46-.05.63-.06 1.3-.3 1.87-3.95 9.66-2.7 19.63-1.28 29.44 1.41 9.71 3.91 19.26 5.54 28.95.43 2.54-.34 5.41-1.07 7.98-.94 3.32-1.16 5.89 1.58 8.84 3.5 3.76 4.36 9.03 4.28 14.01-.34 19.91 2.8 39.49 5.26 59.13 1.2 9.59-1.15 18.74-2.79 28-.17.94-.21 1.9-.42 2.82-.83 3.77-1.7 7.54-2.57 11.31-.14.62-.53 1.24-.47 1.83.84 8.74-2.98 16.37-5.92 24.14-3.37 8.89-7.08 17.68-11.04 26.32-1.54 3.37-4.16 6.24-6.29 9.33-.33-.14-.67-.28-1-.42.41-4.11.8-8.23 1.22-12.34 1.49-14.44 2.75-28.91 4.56-43.31 1.57-12.5 3.96-24.89 5.64-37.38 1.64-12.19.37-24.31-1.59-36.39-4.17-25.72-8.72-51.39-12.14-77.21-1.33-10.09-.31-20.54.16-30.8.3-6.63 1.35-13.25 2.46-19.81.47-2.83.08-4.48-3.29-5.11z" fill="#010000"/><g fill="#fafafb"><path d="m361.2 9.6.8-1c.9.7 1.9 1.4 2.9 2.3l-.9 1.1c-1-1-2-1.8-2.8-2.4zm.5 10.6c.9-2.1 1.6-4.3 2.3-6.7.4.2.8.4 1.3.6-.7 2.1-1.5 4.3-2.2 6.6zm.4-15.2.9-.9c1 .8 2 1.6 2.8 2.4l-1 1c-.9-.9-1.8-1.7-2.7-2.5zm12.5-1.2h1.2v1.4h2.7v1.1h-2.7v2.7h-1.2v-.6h-1.8v1.3h4.9v3.8h-1.2v-.5h-3.7c0 .4-.1.9-.1 1.2h5.1v1h-5.2c0 .5-.1.9-.2 1.2h6v1h-5.2c1.1 1.3 2.9 2 5.5 2.2-.4.4-.7.8-.9 1.3-2.9-.5-4.8-1.6-5.7-3.5h-.1c-.8 1.7-2.7 2.9-5.9 3.6-.2-.4-.6-.8-.9-1.1 2.8-.6 4.6-1.4 5.4-2.5h-4.8v-1h5.3c.1-.3.2-.7.2-1.2h-4.9v-1h5c0-.4 0-.8.1-1.2h-3.5v.5h-1.2v-3.8h4.9v-1.3h-1.8v.5h-1.2v-2.7h-2.7v-1h2.6v-1.4h1.2v1.4h4.7v-1.4zm-6.6 8.3h3.6c0-.4 0-.9 0-1.4h-3.6zm1.9-4.6h4.7v-1.3h-4.7zm6.6 3.2h-3.7v1.4h3.7z"/><path d="m385.3 3.8h1.3v2.2h2.8v-2.2h1.3v2.2h4.1v9.1h1.7v1.3h-16.9v-1.3h1.7v-9.1h4.1v-2.2zm.4 13.1.7 1.2c-1.8.9-3.8 1.9-6 2.9-.2-.4-.5-.8-.8-1.3 2.3-1 4.3-1.9 6.1-2.8zm-3.1-6.4h2.8v-3.2h-2.8zm0 4.6h2.8v-3.3h-2.8zm4-4.6h2.8v-3.2h-2.8zm0 4.6h2.8v-3.3h-2.8zm3.7 1.9c2.1.9 4.1 1.8 6.1 2.7l-.7 1.3c-2.2-1.1-4.2-2-6.1-2.9zm3.2-9.7h-2.8v3.2h2.8zm-2.8 7.8h2.8v-3.3h-2.8z"/></g></svg>