<svg enable-background="new 0 0 400 400" viewBox="0 0 400 400" xmlns="http://www.w3.org/2000/svg"><path d="m268.21 204.59c-12.59-29.31-25.35-58.49-28.54-91.88-1.69 1.13-3.23 1.61-3.81 2.64-8.54 15.15-12.07 31.31-9.22 48.63.28 1.7 1.32 3.27 1.98 4.91 1.81 4.48 4.47 8.83 5.24 13.49 1.86 11.16 5.33 21.78 9.19 32.31 1.6 4.35 2.58 8.68 1.93 13.32-.96 6.86.15 13.94-2.88 20.64-.98 2.17-.05 5.21-.02 7.85.13 10.1-2.88 19.67-5.12 29.35-1.07 4.62-2.51 9.17-3.91 13.71-.94 3.07-2.26 5.82-1.64 9.42.5 2.91-1.08 6.17-1.7 9.28-1.35 6.76-2.89 13.48-6.53 19.44-1.51 2.48-3.26 4.74-1.87 7.93.23.53-.38 1.66-.91 2.22-1.45 1.53-2.91 3.13-4.66 4.27-1.49.97-3.37 1.34-5.08 1.98-.45-1.81-1.43-3.66-1.27-5.41 1.03-11.06 1.36-22.22 4.61-32.98.53-1.76.33-3.73.52-5.59.21-2.08.09-4.29.79-6.2 1.91-5.24 2.89-10.54 3.13-16.13.11-2.59 1.78-5.1 2.56-7.7.43-1.44.5-3 .71-4.5.43-3.13.92-6.25 1.26-9.38.77-7.16 1.46-14.32 2.18-21.49.54-5.35 1.33-10.69 1.54-16.05.14-3.54-.55-7.12-.89-10.68-.56-5.79-1.12-11.58-1.73-17.36-.11-1.04-.35-2.09-.68-3.08-1.6-4.82-3.06-9.7-4.93-14.42-2.34-5.92-3.36-11.95-3.04-18.31.09-1.72-1.18-3.47-1.45-5.26-.73-4.76-2.08-9.61-1.7-14.31 1.15-14.23 6.62-27.29 12.33-40.2 4.51-10.19 9-20.41 13.89-30.42 4.87-9.99 10.16-19.78 15.42-29.58 1.72-3.2 3.83-6.2 5.94-9.17 1.1-1.55 2.53-1.05 3.79.1 2.31 2.1 3.61 4.8 2.56 7.7-2.38 6.54-5.12 12.95-7.86 19.35-1.16 2.71-2.77 5.22-4.02 7.89-2.95 6.31-5.63 12.76-8.78 18.98-1.85 3.65-2.57 6.91-.52 10.77 6.28 11.75 7.74 25 11.41 37.57.58 2 2.07 3.72 2.99 5.64 1.02 2.15 2.06 4.33 2.73 6.61.81 2.74 1.12 5.62 4.31 6.91.59.24 1.07 1.25 1.22 1.99 1.81 8.68 3.55 17.38 5.32 26.07.11.52.47 1.05.39 1.53-.81 4.71-.1 9.27.91 13.88.17.77-1.42 2.21-2.49 2.89-.88.61-2.2.55-3.6.83z" fill="#010000"/><path d="m138.21 196.08c-4.99-1.39-6.07-5.24-7.18-9.2-1.43-5.09-2.99-10.16-4.74-15.15-.82-2.34-2.23-4.48-3.33-6.72-.36-.73-.82-1.52-.84-2.3-.55-16.04-.32-32.04 4.36-47.58 1.3-4.32 3.33-8.41 4.96-12.64.76-1.97 1.57-3.97 1.95-6.02 1.12-6.03 3.85-11.32 6.59-16.74 3.8-7.53 7.04-15.36 10.12-23.23 2.3-5.88 5.08-11.38 9.33-16.22 2.45.68 3.21 2.23 3.29 4.67.33 10.13-1.85 19.7-5.68 29.03-.83 2.03-.65 4.51-.79 6.79-.81 13.22 6.83 23.9 10.95 35.59 4.6 13.06 10.13 25.8 15.2 38.7.56 1.43.79 2.99 1.16 4.45-1.77-.14-3.19-.24-4.6-.35-.1.39-.2.79-.29 1.18 2.34 1.54 4.77 2.96 6.99 4.66 1.09.83 2.2 2.05 2.58 3.31 1.8 5.98 3.39 12.02 4.96 18.07.34 1.31.3 2.72.33 4.09.05 2.02.01 4.05.01 6.37-1.54.98-2.5-.04-3.61-1.63-7.69-11.07-12.16-23.41-15-36.48-.43-1.98-2.03-3.74-3.23-5.51-1.81-2.68-4.02-5.13-5.58-7.95-3.22-5.79-5.99-11.57-6.83-18.53-1.03-8.54-5.32-16.22-10.38-23.27-.55-.77-1.26-1.43-1.95-2.08-.37-.34-.86-.56-1.93-1.23-1.1 2.99-2.1 5.71-3.11 8.42-1.21 3.24-2.48 6.46-3.62 9.73-.92 2.63-2.11 5.28-2.41 8-.78 7.15-1.32 14.33-1.57 21.52-.09 2.45.67 5.04 1.55 7.38 3.28 8.72 6.77 17.36 10.17 26.03.31.79.97 1.68.81 2.37-1.7 7.22 2.62 13.6 2.65 20.7.04 8.41 1.83 16.81 2.81 25.22.83 7.13.72 14.17-2.17 20.93-.37.86-.67 1.82-.72 2.74-.62 13.19-1.18 26.39-1.8 39.59-.05 1.14-.21 2.37-.72 3.36-1.98 3.88-2.54 7.96-2.52 12.28.04 8.47-.55 16.84-3.02 25.1-2.44 8.18-3.89 16.64-5.89 24.96-.75 3.11-1.75 6.18-5.24 7.43-2.06.73-3.62.33-4.08-1.99-.32-1.64-.6-3.37-.45-5.02 1.74-19.62 3.49-39.25 5.41-58.85.37-3.82 1.63-7.54 2.14-11.35.38-2.8.61-5.73.2-8.5-.56-3.72-.2-7.17 1.35-10.51 1.88-4.03 1.97-8.19 1.01-12.38-2-8.75.1-17.27 1.19-25.86.12-.92.1-1.87-.01-2.79-.51-4.26-1.23-8.51-1.59-12.78-.36-4.22-.14-8.49-.66-12.69-.39-3.13-.46-5.71 3.47-7.12zm-4.77-26.86c3.79-1.59 1.58-3.71 1.29-5.72-3.93 1.18-1.18 3.46-1.29 5.72z" fill="#010000"/><g fill="#fafafb"><path d="m361.2 9.6.8-1c.9.7 1.9 1.4 2.9 2.3l-.9 1.1c-1-1-2-1.8-2.8-2.4zm.5 10.6c.9-2.1 1.6-4.3 2.3-6.7.4.2.8.4 1.3.6-.7 2.1-1.5 4.3-2.2 6.6zm.4-15.2.9-.9c1 .8 2 1.6 2.8 2.4l-1 1c-.9-.9-1.8-1.7-2.7-2.5zm12.5-1.2h1.2v1.4h2.7v1.1h-2.7v2.7h-1.2v-.6h-1.8v1.3h4.9v3.8h-1.2v-.5h-3.7c0 .4-.1.9-.1 1.2h5.1v1h-5.2c0 .5-.1.9-.2 1.2h6v1h-5.2c1.1 1.3 2.9 2 5.5 2.2-.4.4-.7.8-.9 1.3-2.9-.5-4.8-1.6-5.7-3.5h-.1c-.8 1.7-2.7 2.9-5.9 3.6-.2-.4-.6-.8-.9-1.1 2.8-.6 4.6-1.4 5.4-2.5h-4.8v-1h5.3c.1-.3.2-.7.2-1.2h-4.9v-1h5c0-.4 0-.8.1-1.2h-3.5v.5h-1.2v-3.8h4.9v-1.3h-1.8v.5h-1.2v-2.7h-2.7v-1h2.6v-1.4h1.2v1.4h4.7v-1.4zm-6.6 8.3h3.6c0-.4 0-.9 0-1.4h-3.6zm1.9-4.6h4.7v-1.3h-4.7zm6.6 3.2h-3.7v1.4h3.7z"/><path d="m385.3 3.8h1.3v2.2h2.8v-2.2h1.3v2.2h4.1v9.1h1.7v1.3h-16.9v-1.3h1.7v-9.1h4.1v-2.2zm.4 13.1.7 1.2c-1.8.9-3.8 1.9-6 2.9-.2-.4-.5-.8-.8-1.3 2.3-1 4.3-1.9 6.1-2.8zm-3.1-6.4h2.8v-3.2h-2.8zm0 4.6h2.8v-3.3h-2.8zm4-4.6h2.8v-3.2h-2.8zm0 4.6h2.8v-3.3h-2.8zm3.7 1.9c2.1.9 4.1 1.8 6.1 2.7l-.7 1.3c-2.2-1.1-4.2-2-6.1-2.9zm3.2-9.7h-2.8v3.2h2.8zm-2.8 7.8h2.8v-3.3h-2.8z"/></g></svg>