<svg enable-background="new 0 0 400 400" viewBox="0 0 400 400" xmlns="http://www.w3.org/2000/svg"><path d="m300.81 216.07c-2.08-1.63-4.56-2.95-6.15-4.98-2.47-3.15-5.06-6.53-6.3-10.25-4.4-13.2-13.99-24.09-16.69-38.03-.3-1.53-1.67-2.84-2.48-4.29-2.55-4.6-5.55-9.03-7.48-13.88-2.84-7.17-4.9-14.65-7.32-21.98-.86-2.6-3.43-4.06-6.96-3.81 3.33 2.84 2.34 5.88.78 8.93-.77 1.51-1.47 3.07-2.4 4.47-5.4 8.14-9.91 16.74-13.54 25.81-.42 1.05-.94 2.45-1.81 2.88-3.2 1.57-3.24 4.28-3.32 7.22-.14 5.08-.64 10.16-.7 15.24-.02 2.13.39 4.39 1.16 6.37 1.27 3.24 3.11 6.27 2.59 9.97-.07.48.02 1.3.32 1.48 3.28 1.98 3.82 5.63 5.57 8.57 2.1 3.52 4.96 6.59 7.6 9.76 6.29 7.55 11.68 15.7 14.79 25.02 1.48 4.42 1.56 9.31 2.35 13.97.54 3.24 1.79 6.48 1.68 9.68-.23 6.32 1.41 12.5.41 18.96-.84 5.4.54 11.11.49 16.68-.06 7.07-.56 14.14-.89 21.21-.03.63-.16 1.26-.21 1.9-.56 6.25-.72 6.55-6.15 10.95-.04-.55-.11-.89-.09-1.23.29-4.51.1-8.85-.81-13.42-1.34-6.78-.92-13.9-1.23-20.88-.03-.73.34-1.54.14-2.2-3.01-9.94-1.16-20.22-2.17-30.29-.3-3.02-.8-6.04-1.43-9.01-.45-2.12-1.76-4.1-.24-6.35.28-.41-.17-1.38-.41-2.05-1.59-4.34-3.2-8.66-4.83-12.99-.18-.47-.38-.98-.72-1.34-6.61-7.05-12.02-14.77-15.57-23.92-1.8-4.65-5.3-8.64-7.9-13-.79-1.32-1.34-2.85-1.67-4.36-3.49-15.98-1.18-31.37 6.57-45.5 3.5-6.38 5.89-13.4 10.63-19.24 2.41-2.97 4.01-7.19 3.2-11.61-.13-.69.16-1.8.66-2.22 6.31-5.18 7.71-12.74 9.47-19.99 1.59-6.57 2.78-13.28 3.6-19.99 1.46-12.04 2.43-24.13 3.77-36.18.27-2.38 1.3-4.68 2.08-7.34 4.15 2.81 4.9 6.29 5.51 10.07 1.87 11.61.62 23.02-1.52 34.42-.41 2.18-.39 4.45-.87 6.61-.2.9-1.2 1.62-2.38 3.11.9 3.79.81 3.78-.46 9.74-.36 1.69-.34 3.59.02 5.28 1.75 8.33 4.4 16.31 8.16 24.05 4.13 8.51 7.05 17.59 10.81 26.29 2.17 5.04 4.96 9.81 7.45 14.71.62 1.22 1.26 2.45 1.74 3.73 4.33 11.47 8.69 22.93 12.87 34.45.9 2.49 1.14 5.22 1.68 7.84-.43.3-.92.63-1.4.96zm-44.39 69.57c-.25 1.69-.48 3.17-.7 4.65.77-.2 1.91-.16 2.24-.66.87-1.32 1.47-2.9-1.54-3.99z" fill="#010000"/><path d="m127.16 139.11c-1.25 3.75-2.26 6.61-3.15 9.5-1.07 3.47-2.3 6.78-5.16 9.28-.71.62-1.2 1.79-1.31 2.76-1.12 9.92-5.34 18.9-8.4 28.23-1.51 4.6-2.58 9.35-4.07 13.96-1.06 3.29-2.12 6.69-3.87 9.63-1.96 3.28-4.69 6.11-7.49 8.95-.06-4.43-1.15-8.85 1.89-12.77.61-.79.51-2.17.65-3.29.43-3.42.6-6.89 1.26-10.27 1.23-6.31 2.59-12.6 4.19-18.82.74-2.88 2.14-5.58 3.27-8.35 1.34-3.28 1.81-7.02 5.04-9.32.49-.34.54-1.31.77-2 1.4-4.3 2.78-8.61 4.2-12.9 1.33-4 2.72-7.98 4.08-11.97.14-.4.11-.92.37-1.2 3.2-3.48 1.61-7.31.82-11.07-.52-2.49-1.03-4.98-1.65-7.44-1.94-7.73-3.49-15.46-1.62-23.49.45-1.91.32-4.04.09-6.02-1.42-12.69 2.34-24.51 6.02-36.34.09-.28.35-.5.86-1.21.57 1.07 1.19 1.84 1.4 2.71.21.9.13 1.91 0 2.84-2.47 18.39-.84 36.78.06 55.16.11 2.17.73 4.39 1.5 6.44 2.18 5.85 4.55 11.63 6.88 17.43.43 1.07.85 2.26 1.62 3.06 2.46 2.56 3.82 5.49 3.89 9.06.01.6.27 1.24.57 1.77 4.53 7.97 9.68 15.66 13.46 23.97 4.14 9.08 7.41 18.62 10.31 28.19 1.52 5.01.36 10.06-3.14 14.62-7.66 9.96-14.77 20.35-22.43 30.31-3.06 3.98-4.4 8.26-5.01 13.06-.39 3.03-1.53 5.98-1.79 9.01-.68 7.88-1.49 15.79-1.47 23.68.07 21.5.68 43 .74 64.5.01 4.57-1.29 9.16-2.18 13.71-.14.69-1.23 1.56-1.97 1.67-.65.1-1.84-.6-2.1-1.23-.88-2.13-1.72-4.34-2.08-6.6-.81-5.18-1.67-10.39-1.86-15.61-.18-4.85.61-9.72.75-14.59.16-5.39.02-10.79.08-16.18.13-12.28.15-24.56.52-36.83.2-6.64.94-13.26 1.63-19.87.91-8.78 4.63-16.38 9.8-23.45 2.39-3.27 3.98-7.11 6.23-10.5.87-1.31 2.65-1.99 3.8-3.17 1.09-1.11 1.94-2.47 2.81-3.79.45-.68.59-1.56 1.06-2.23 2.2-3.18 4.5-6.29 6.68-9.48 1.66-2.44 1.33-4.93.08-7.51-2.35-4.85-4.58-9.76-6.79-14.67-5.16-11.47-10.22-22.97-15.46-34.41-1.03-2.25-2.64-4.21-4.38-6.92z" fill="#010000"/><g fill="#fafafb"><path d="m361.2 9.6.8-1c.9.7 1.9 1.4 2.9 2.3l-.9 1.1c-1-1-2-1.8-2.8-2.4zm.5 10.6c.9-2.1 1.6-4.3 2.3-6.7.4.2.8.4 1.3.6-.7 2.1-1.5 4.3-2.2 6.6zm.4-15.2.9-.9c1 .8 2 1.6 2.8 2.4l-1 1c-.9-.9-1.8-1.7-2.7-2.5zm12.5-1.2h1.2v1.4h2.7v1.1h-2.7v2.7h-1.2v-.6h-1.8v1.3h4.9v3.8h-1.2v-.5h-3.7c0 .4-.1.9-.1 1.2h5.1v1h-5.2c0 .5-.1.9-.2 1.2h6v1h-5.2c1.1 1.3 2.9 2 5.5 2.2-.4.4-.7.8-.9 1.3-2.9-.5-4.8-1.6-5.7-3.5h-.1c-.8 1.7-2.7 2.9-5.9 3.6-.2-.4-.6-.8-.9-1.1 2.8-.6 4.6-1.4 5.4-2.5h-4.8v-1h5.3c.1-.3.2-.7.2-1.2h-4.9v-1h5c0-.4 0-.8.1-1.2h-3.5v.5h-1.2v-3.8h4.9v-1.3h-1.8v.5h-1.2v-2.7h-2.7v-1h2.6v-1.4h1.2v1.4h4.7v-1.4zm-6.6 8.3h3.6c0-.4 0-.9 0-1.4h-3.6zm1.9-4.6h4.7v-1.3h-4.7zm6.6 3.2h-3.7v1.4h3.7z"/><path d="m385.3 3.8h1.3v2.2h2.8v-2.2h1.3v2.2h4.1v9.1h1.7v1.3h-16.9v-1.3h1.7v-9.1h4.1v-2.2zm.4 13.1.7 1.2c-1.8.9-3.8 1.9-6 2.9-.2-.4-.5-.8-.8-1.3 2.3-1 4.3-1.9 6.1-2.8zm-3.1-6.4h2.8v-3.2h-2.8zm0 4.6h2.8v-3.3h-2.8zm4-4.6h2.8v-3.2h-2.8zm0 4.6h2.8v-3.3h-2.8zm3.7 1.9c2.1.9 4.1 1.8 6.1 2.7l-.7 1.3c-2.2-1.1-4.2-2-6.1-2.9zm3.2-9.7h-2.8v3.2h2.8zm-2.8 7.8h2.8v-3.3h-2.8z"/></g></svg>