<svg enable-background="new 0 0 400 400" viewBox="0 0 400 400" xmlns="http://www.w3.org/2000/svg"><path d="m378.6 9.2.8-1c.9.7 1.9 1.4 2.9 2.3l-.9 1.1c-1.1-.9-2-1.7-2.8-2.4zm.5 10.7c.9-2.1 1.6-4.3 2.3-6.7.4.2.8.4 1.3.6-.7 2.1-1.5 4.3-2.2 6.6zm.4-15.2.9-.9c1 .8 2 1.6 2.8 2.4l-1 1c-1-.9-1.9-1.8-2.7-2.5zm12.5-1.3h1.2v1.4h2.7v1.1h-2.7v2.7h-1.2v-.5h-1.8v1.3h4.9v3.8h-1.2v-.5h-3.7c0 .4-.1.9-.1 1.2h5.1v1h-5.2c0 .5-.1.9-.2 1.2h6v1h-5.2c1.1 1.3 2.9 2 5.5 2.2-.4.4-.7.8-.9 1.3-2.9-.5-4.8-1.6-5.7-3.5h-.1c-.8 1.7-2.7 2.9-5.9 3.6-.2-.4-.6-.8-.9-1.1 2.8-.6 4.6-1.4 5.4-2.5h-4.8v-1h5.3c.1-.3.2-.7.2-1.2h-4.9v-1h5c0-.4 0-.8.1-1.2h-3.6v.5h-1.2v-3.8h4.9v-1.3h-1.8v.5h-1.2v-2.7h-2.6v-1.1h2.6v-1.4h1.2v1.4h4.7v-1.4zm-6.7 8.4h3.6c0-.4 0-.9 0-1.4h-3.6zm1.9-4.7h4.7v-1.2h-4.7zm6.7 3.3h-3.7v1.4h3.7z" fill="#fafbfc"/><path d="m384.7 21.4h1.3v2.2h2.8v-2.2h1.3v2.2h4.1v9.1h1.7v1.3h-16.9v-1.3h1.7v-9.1h4.1v-2.2zm.3 13.2.7 1.2c-1.8.9-3.8 1.9-6 2.9-.2-.4-.5-.8-.8-1.3 2.4-1 4.4-2 6.1-2.8zm-3.1-6.5h2.8v-3.2h-2.8zm0 4.6h2.8v-3.3h-2.8zm4.1-4.6h2.8v-3.2h-2.8zm0 4.6h2.8v-3.3h-2.8zm3.6 1.9c2.1.9 4.1 1.8 6.1 2.7l-.7 1.3c-2.2-1.1-4.2-2-6.1-2.9zm3.3-9.7h-2.8v3.2h2.8zm-2.8 7.8h2.8v-3.3h-2.8z" fill="#fafbfc"/><g fill="#010104"><path d="m118.48 312.06c3.39-2.04 5.51-1.02 8.03 1.34 5.09 4.77 10.56 9.17 16.1 13.44 5.97 4.6 12.75 7.31 20.34 8.3 6.7.87 13.3 2.45 20.04 3.73 4.6-7.32 6.57-15.21 6.11-23.66-.45-8.36-1.32-16.7-1.64-25.06-.15-3.96-.21-8.22 1.04-11.88 3.88-11.4 8.42-22.57 12.65-33.85.91-2.44 2.53-2.67 4.75-2.15 5.02 1.17 7.66 4.07 8.01 9.28 1.27 19.24 2.47 38.48 3.74 57.72.38 5.82.82 11.63 1.42 17.43.08.82 1.1 1.99 1.9 2.21 3.16.87 6.38 1.61 9.62 2.01 1.09.13 2.54-.67 3.44-1.48 8.39-7.52 17.09-14.62 27.34-19.49 3.38-1.61 7.09-2.53 11.06-3.92 1.29 6.4 2.49 12.17 3.56 17.96.1.54-.51 1.33-.99 1.82-14.85 15.41-31.35 28.54-51.61 36.2-13.65 5.16-28.16 6.55-41.88 2.51-10.87-3.2-21.77-2.61-32.56-4.35-13.01-2.1-21.15-9.56-25.61-21.46-3.21-8.57-5.1-17.45-4.86-26.65z"/><path d="m221.75 152.58c1.2-3.52 1.99-6.38 3.16-9.06.78-1.78 1.8-3.68 3.24-4.9 8.81-7.48 18.52-13.38 29.86-16.23 1.5-.38 3.07-.49 5.28-.84-2.23 6.61-1.62 13.49-6.14 18.84-.2.24-.36.52-.56.77-3.9 4.82-7.81 9.65-11.71 14.47-13.98 6.6-27.78 13.91-43.91 13.23-13.33-.56-26.16-3.76-38.69-8.22-.57-.2-1.22-.58-1.51-1.07-4.76-7.85-9.79-15.57-14.01-23.7-1.53-2.95-1.1-6.92-1.55-10.32 2.87-.93 4.37-.23 5.79 1.63 3.41 4.46 7.03 8.76 10.61 13.09 4.38 5.3 10.06 6.6 16.2 3.55 1.22-.61 2.25-1.88 2.99-3.09 4.96-8.08 7.26-17.11 8.82-26.32 2.03-12 3.48-24.11 5.87-36.03 1.17-5.84 3.92-11.35 5.93-17.02.68-1.91 2-2.13 3.76-1.72 4.23.98 6.46 3.8 7.38 8.49 1.48 7.56-.33 14.69-2.09 21.92-.86 3.53-1.26 7.28-1.12 10.91.5 12.92 1.28 25.83 2.08 38.73.08 1.33.78 2.84 1.67 3.85 2.64 3 5.51 5.79 8.65 9.04z"/><path d="m247.73 205.81c4.15.61 7.11 2.79 9.39 5.8 5.5 7.22 8.77 15.41 9.96 24.4.16 1.19-.16 2.53-.55 3.7-.97 2.91-2.16 5.74-3.16 8.64-.77 2.24-1.81 4.02-4.01 5.37-3.68 2.26-3.82 4.56-1.05 8.15 1.58 2.04 3.14 4.19.33 6.23-1.3.94-4.29 1.91-4.57 1.51-1.42-2.04-3.31-4.7-2.97-6.81.54-3.28.06-5.96-1.09-8.87-2.22-5.6-4.38-11.22-6.29-16.93-3.66-10.89-1.12-21.07 4.01-31.19z"/><path d="m247.76 34.79c3.94 1.33 5.66 4.44 6.78 7.92 3.24 10.1 2.7 20.51 2.27 30.89-.13 3.17-.74 6.31-1 9.47-.41 5.04-3.18 8.65-6.97 11.59-1.05.81-2.38 1.41-3.68 1.73-2.39.6-3.94.19-4.69-2.85-4.86-19.82-3.43-38.86 6.32-57.02.29-.55.61-1.08.97-1.73z"/><path d="m139.98 200.68c5.58 1.31 8.66 5.61 9.63 12.25 1.29 8.86-.33 17.55-1.64 26.21-.99 6.57-2.8 13.02-4.08 19.55-.54 2.73-2.43 2.93-4.59 3.36-2.43.48-2.56-1.45-3.22-2.69-4.44-8.34-5.9-17.18-3.78-26.44 2.46-10.71 5.09-21.38 7.68-32.24z"/><path d="m168.7 49.2c8.89 6.17 12.02 14.65 9.57 24.51-2.29 9.22-4.37 18.49-6.49 27.75-.8 3.5-3.44 1.16-5.47 2.11-1.23-3.9-2.54-7.55-3.46-11.3-.25-1.03.41-2.48 1.04-3.5 2.38-3.87 2.74-7.93 1.43-12.17-2.95-9.56.02-18.33 3.38-27.4z"/></g></svg>