<svg enable-background="new 0 0 400 400" viewBox="0 0 400 400" xmlns="http://www.w3.org/2000/svg"><path d="m103.48 47.1c3 8.07 3.51 15.38 2.44 22.78-.77 5.34-2.09 10.6-2.84 15.95-.83 5.94-1.94 11.96-1.76 17.91.33 10.87-2.58 21.19-4.26 31.72-.13.82-.22 1.64-.42 3.11 2.03-.21 3.95.04 5.41-.65 3.89-1.86 7.61-4.07 11.34-6.24 5.37-3.13 10.33-7.49 16.11-9.31 22.02-6.96 40.99-19.56 60.57-31.14 8.9-5.27 18.14-9.98 27.38-14.65 2.98-1.51 6.47-1.96 9.66-3.09 5-1.76 8.74-4.97 11.06-10.32-5.99-.79-11.72-1.57-17.47-2.3-28.26-3.62-56.55-7.1-84.78-10.94-7.1-.97-14.1-2.88-21.05-4.72-2.35-.62-4.81-1.99-6.46-3.74-1.13-1.2-1.22-3.65-1.14-5.52.02-.44 2.59-1.16 3.95-1.11 24.66 1.06 49.31 2.19 73.97 3.42 2.28.11 4.55.88 6.78 1.49 18.46 5.1 36.92 10.17 55.34 15.4 9.07 2.57 17.44 6.48 24.13 14.29-4.43 1.24-8.55 2.3-12.61 3.58-2.4.76-4.81 1.67-7.02 2.87-22.05 11.99-43.93 24.3-66.16 35.94-6.56 3.43-14 5.33-21.19 7.36-5.12 1.44-9.49 3.68-13.56 7.11-2.68 2.26-6.11 3.73-9.38 5.18-10.26 4.54-20.63 8.82-30.88 13.36-2.89 1.28-5.62 2.98-8.27 4.72-6.63 4.35-11.86 9.55-13.17 18.05-1.43 9.25-4.46 18.05-10.05 25.78-.51.71-.87 1.84-.71 2.66 2.16 11.21-.96 21.87-3.28 32.61-4.78 22.16-8.96 44.41-11.69 66.94-.8 6.61-3.64 12.98-5.55 19.46-2.95 10.04-5.7 20.15-8.93 30.1-1.68 5.18-3.92 10.25-6.52 15.03-1.27 2.33-3.93 3.9-5.97 5.82-.33-.2-.67-.4-1-.59.75-4.17 1.45-8.35 2.24-12.52 2.65-13.94 5.67-27.82 7.86-41.83 1.19-7.6 1.27-15.42 1.33-23.14.08-10.1 3.17-19.62 5.01-29.37 1.77-9.36 3.9-18.65 5.86-27.98.13-.62.26-1.26.27-1.89.16-19.17 6.07-37.35 9.69-55.92 1.07-5.51 2.2-11.02 3.64-16.43.85-3.19 2.37-6.2 3.6-9.29.47-1.17 1.31-2.33 1.35-3.52.34-9.47 4.21-18.1 6.31-27.14 3.69-15.87 6.72-31.89 10.3-47.79 1.15-5.12 2.87-10.17 4.94-15 .96-2.31 3.37-4.02 5.58-6.5z" fill="#010000"/><path d="m246.22 213.76c3.01-.6 5.99-1.49 9.03-1.74 9.6-.77 17.71-6.36 26.92-8.15 11.11-2.16 22.31-4.03 33.55-5.34 5.62-.66 11.42.44 17.12.26 2.28-.07 4.68-1.18 6.75-2.32 2.34-1.29 3.32-3.43 3.21-6.37-.65-17.27-1.09-34.54-1.6-51.81-.02-.83 0-1.66 0-2.51 5.52.36 9.24 3.44 10.05 8.59.53 3.34.76 6.74.83 10.13.15 7.61 3.76 14.28 5.63 21.41 3.97 15.22 4.14 30.63 1.61 46.04-.76 4.64-2.73 9.12-4.49 13.54-1.14 2.88-1.1 5.58-.09 8.33 1.49 4.07 1.3 8.01-.07 12.1-2.25 6.72-4.3 13.52-6.25 20.33-.61 2.13-1.62 3.37-3.73 4.2-5.91 2.32-11.81 4.71-17.53 7.45-4.73 2.27-9.48 3.13-14.71 2.65-2.13-.2-4.43.75-6.56 1.45-1.38.46-2.69 1.29-3.86 2.18-3.78 2.85-7.85 3.46-12.51 2.7-2.85-.47-5.89.14-8.84.36-7.84.59-14.91-2.18-22.21-4.46-8.22-2.57-14.41-7.09-19.82-13.76-4.38-5.4-7.74-10.51-7.32-17.78.16-2.68-1.35-5.44-1.99-8.2-1.59-6.88-3.27-13.75-4.64-20.67-2.08-10.53-3.42-21.13-2-31.91.18-1.33-.14-2.74-.33-4.1-.57-4.03-1.33-7.8.63-12 1.23-2.63.23-6.37.01-9.6-.17-2.58.18-4.64 3.35-5.34.47 1.34.98 2.6 1.37 3.89 1.42 4.66 2.66 9.37 4.24 13.98 1.98 5.77 3.45 11.54 2.22 17.69-1 4.99.88 9.6 1.83 14.34 2.61 13.08 4.89 26.24 7.78 39.25 1.21 5.42 3.6 10.58 5.56 15.83 1.8 4.82 5.68 7.31 10.44 8.4 10.32 2.36 20.64 3.35 31.09.32 7.72-2.24 15.59-3.99 23.36-6.07 2.02-.54 4.01-1.34 5.89-2.28 5.88-2.92 11.58-6.23 17.58-8.87 3.58-1.57 5.19-3.9 5.67-7.58 1.97-15.12 2.11-30.2-.24-45.3-.76-4.9-2.23-5.98-8.44-4.93-3.62.61-7.27 1.58-10.9 1.54-15.14-.15-29.54 3.82-44.06 7.3-9.93 2.38-19.91 2.92-29.73-.74-1.34-.5-2.63-1.13-3.94-1.7.03-.24.09-.48.14-.73z" fill="#010000"/><g fill="#fafafb"><path d="m361.2 9.6.8-1c.9.7 1.9 1.4 2.9 2.3l-.9 1.1c-1-1-2-1.8-2.8-2.4zm.5 10.6c.9-2.1 1.6-4.3 2.3-6.7.4.2.8.4 1.3.6-.7 2.1-1.5 4.3-2.2 6.6zm.4-15.2.9-.9c1 .8 2 1.6 2.8 2.4l-1 1c-.9-.9-1.8-1.7-2.7-2.5zm12.5-1.2h1.2v1.4h2.7v1.1h-2.7v2.7h-1.2v-.6h-1.8v1.3h4.9v3.8h-1.2v-.5h-3.7c0 .4-.1.9-.1 1.2h5.1v1h-5.2c0 .5-.1.9-.2 1.2h6v1h-5.2c1.1 1.3 2.9 2 5.5 2.2-.4.4-.7.8-.9 1.3-2.9-.5-4.8-1.6-5.7-3.5h-.1c-.8 1.7-2.7 2.9-5.9 3.6-.2-.4-.6-.8-.9-1.1 2.8-.6 4.6-1.4 5.4-2.5h-4.8v-1h5.3c.1-.3.2-.7.2-1.2h-4.9v-1h5c0-.4 0-.8.1-1.2h-3.5v.5h-1.2v-3.8h4.9v-1.3h-1.8v.5h-1.2v-2.7h-2.7v-1h2.6v-1.4h1.2v1.4h4.7v-1.4zm-6.6 8.3h3.6c0-.4 0-.9 0-1.4h-3.6zm1.9-4.6h4.7v-1.3h-4.7zm6.6 3.2h-3.7v1.4h3.7z"/><path d="m385.3 3.8h1.3v2.2h2.8v-2.2h1.3v2.2h4.1v9.1h1.7v1.3h-16.9v-1.3h1.7v-9.1h4.1v-2.2zm.4 13.1.7 1.2c-1.8.9-3.8 1.9-6 2.9-.2-.4-.5-.8-.8-1.3 2.3-1 4.3-1.9 6.1-2.8zm-3.1-6.4h2.8v-3.2h-2.8zm0 4.6h2.8v-3.3h-2.8zm4-4.6h2.8v-3.2h-2.8zm0 4.6h2.8v-3.3h-2.8zm3.7 1.9c2.1.9 4.1 1.8 6.1 2.7l-.7 1.3c-2.2-1.1-4.2-2-6.1-2.9zm3.2-9.7h-2.8v3.2h2.8zm-2.8 7.8h2.8v-3.3h-2.8z"/></g></svg>