<svg enable-background="new 0 0 400 400" viewBox="0 0 400 400" xmlns="http://www.w3.org/2000/svg"><g fill="#010000"><path d="m282.53 181.86c-2.76 1.72-4.5.72-6.56-.84-8.18-6.21-16.54-12.2-24.87-18.23-1.02-.74-2.17-1.54-3.36-1.74-4.77-.79-8.07-3.86-11.56-6.81-7.36-6.22-14.83-12.32-22.39-18.3-1.82-1.44-4.16-2.23-6.67-2.75-.16-.37-.42-.74-.45-1.12-.51-5.72-.5-5.73-5.92-7.45-1.81-.58-3.63-1.1-5.62-1.7-2.28 4.04-3.44 8.17-2.13 12.56 1.29 4.34 1.18 8.52-.07 12.81-.29.99-.16 2.31.26 3.25 3.39 7.47 4.44 14.9 2 23.08-1.1 3.69.26 8.1.43 12.18.83 19.97 9.84 37.51 16.62 55.69 3.99 10.68 7.42 21.57 13.45 31.47 2.57 4.21 3.09 9.63 4.76 14.42 1.14 3.27 2.55 6.47 4.08 9.59 1.25 2.54 3.1 4.78 1.61 7.94-.33.7.31 2.02.78 2.9 1.49 2.81 3.03 5.59 4.7 8.29 3.65 5.95 6.06 12.32 7.05 19.24.92 6.47 3.34 12.4 6.31 18.2 1.45 2.84 1.96 6.17 2.76 9.31.13.51-.46 1.21-.71 1.82-.59-.28-1.4-.39-1.72-.85-3.36-4.75-6.66-9.55-9.93-14.37-.77-1.14-1.42-2.36-2.03-3.59-1.18-2.36-2.04-4.74 1.3-7.24-7.04-.57-8.83-5.79-11.38-10.35-1.45-2.58-3.15-5.03-4.87-7.45-2.59-3.65-4.32-7.43-5.15-12.01-.76-4.22-3.34-8.17-5.4-12.09-2.58-4.91-4.41-9.96-5.2-15.52-1.03-7.24-4.33-13.6-8.49-19.64-1.78-2.58-2.44-5.92-3.66-8.89-1.17-2.83-2.41-5.63-3.89-9.08-3.48 4.17-5 7.98-4.9 12.19.14 6.06-1.34 11.7-3.27 17.37-6.17 18.15-12.23 36.33-18.18 54.55-2.43 7.43-4.19 15.08-6.77 22.45-1.36 3.9-3.8 7.42-5.76 11.12-.39-.14-.78-.27-1.18-.41.38-1.62.49-3.36 1.19-4.82 1.38-2.87 1.67-5.73 1.51-8.9-.15-3.1.29-6.31 1.02-9.34 1.5-6.17 3.33-12.26 5.15-18.34.4-1.33 1.44-2.46 2.02-3.76.34-.77.72-1.83.45-2.5-1.35-3.36-.58-6.56.07-9.92 1.24-6.43 2.12-12.93 3.15-19.4.08-.52.1-1.1.34-1.54 5.01-9.28 5.44-19.66 7.12-29.74 1.64-9.8 3.37-19.59 4.84-29.42.21-1.39-.93-2.96-1.39-4.47-.68-2.23-2.49-4.97-1.78-6.63 3.54-8.34 2.25-16.93 2.13-25.44-.15-10.81-.79-21.62-.83-32.43-.02-4.61.81-9.25 1.52-13.83.41-2.61.54-4.97-1.11-7.23-1.39-1.92-2.18-3.97-1.41-6.52.4-1.33.36-3.16-.28-4.33-.64-1.16-2.19-2.2-3.5-2.47-.72-.15-2.01 1.26-2.66 2.23-1.67 2.5-2.86 5.36-4.74 7.67-3.86 4.73-8.55 8.72-11.03 14.61-.89 2.12-3.49 3.6-5.48 5.15-5.54 4.33-10.26 9.26-14.18 15.22-5.19 7.89-11.39 15.06-19.61 20.11-1.7 1.04-3.52 1.89-5.33 2.86-1.03-2.58-1.09-4.5 1.39-6.16 1.43-.96 2.79-2.5 3.44-4.09 4.51-11.04 12.98-19.27 19.88-28.6 6.05-8.18 12.26-16.27 17.71-24.84 6.44-10.11 14.88-18.46 22.63-27.43 1.38-1.6 2.11-2.96 1.32-5.05-3.58-9.5-1.68-19.27-1.2-28.94.46-9.42 1.19-18.82 1.81-28.26 7.15 2.01 9.21 16.38 3.77 22.04 1.65 4.33 3.73 8.31 4.6 12.53.7 3.42-.21 7.14-.12 10.72.1 4 .27 8.04.89 11.99.52 3.35 2.16 6.18 4.81 8.66 8.42 7.88 16.15 16.55 24.93 23.98 7.24 6.12 15.64 10.87 23.45 16.34 2.93 2.05 5.64 4.42 8.86 6.98-2.58.61-4.65 1.1-6.72 1.59.05.33.1.67.16 1 1.88-.19 3.76-.42 5.65-.56 3.92-.31 5.48 1.12 5.58 5.01.12 4.78.14 4.63 4.71 5.5 1.61.31 3.39 1.19 4.5 2.36 5.65 6 11.12 12.18 16.75 18.41zm-104.69 107.24c.23.18.45.36.68.54.7-.84 1.89-1.64 1.96-2.53.06-.76-1.14-1.63-1.79-2.46-.28.18-.57.36-.85.54z"/><path d="m156 199.02c4.41 2.84 4.64 6.93 3.39 10.46-3.56 10.04-7.66 19.9-11.8 29.72-.56 1.32-2.45 2.25-3.92 2.97-2.1 1.03-3.24 2.52-3.62 4.79-.9 5.33-3.39 9.81-6.71 14.11-3.27 4.24-5.76 9.07-8.56 13.67-2.2 3.59-4.54 4.57-9.26 3.45 2.78-5.43 3.07-11.74 7.48-16.51 1.54-1.67 2.3-4.26 2.9-6.56 1.07-4.06 2.24-7.91 5.99-10.44.73-.49 1.28-1.76 1.31-2.69.46-12.84 8.02-22.48 14.63-32.51 2.38-3.6 5.32-6.84 8.17-10.46z"/><path d="m225.69 178.7c3.14.32 5.69 1.73 7.35 4.37 11.62 18.54 23.18 37.12 34.76 55.69.05.08.05.21.24 1.17-1.24-.07-2.7.3-3.28-.26-12.38-11.86-24.95-23.61-33.91-38.46-4.38-7.25-6.17-15.9-5.16-22.51z"/></g><path d="m361.2 9.6.8-1c.9.7 1.9 1.4 2.9 2.3l-.9 1.1c-1-1-2-1.8-2.8-2.4zm.5 10.6c.9-2.1 1.6-4.3 2.3-6.7.4.2.8.4 1.3.6-.7 2.1-1.5 4.3-2.2 6.6zm.4-15.2.9-.9c1 .8 2 1.6 2.8 2.4l-1 1c-.9-.9-1.8-1.7-2.7-2.5zm12.5-1.2h1.2v1.4h2.7v1.1h-2.7v2.7h-1.2v-.6h-1.8v1.3h4.9v3.8h-1.2v-.5h-3.7c0 .4-.1.9-.1 1.2h5.1v1h-5.2c0 .5-.1.9-.2 1.2h6v1h-5.2c1.1 1.3 2.9 2 5.5 2.2-.4.4-.7.8-.9 1.3-2.9-.5-4.8-1.6-5.7-3.5h-.1c-.8 1.7-2.7 2.9-5.9 3.6-.2-.4-.6-.8-.9-1.1 2.8-.6 4.6-1.4 5.4-2.5h-4.8v-1h5.3c.1-.3.2-.7.2-1.2h-4.9v-1h5c0-.4 0-.8.1-1.2h-3.5v.5h-1.2v-3.8h4.9v-1.3h-1.8v.5h-1.2v-2.7h-2.7v-1h2.6v-1.4h1.2v1.4h4.7v-1.4zm-6.6 8.3h3.6c0-.4 0-.9 0-1.4h-3.6zm1.9-4.6h4.7v-1.3h-4.7zm6.6 3.2h-3.7v1.4h3.7z" fill="#fafafb"/><path d="m385.3 3.8h1.3v2.2h2.8v-2.2h1.3v2.2h4.1v9.1h1.7v1.3h-16.9v-1.3h1.7v-9.1h4.1v-2.2zm.4 13.1.7 1.2c-1.8.9-3.8 1.9-6 2.9-.2-.4-.5-.8-.8-1.3 2.3-1 4.3-1.9 6.1-2.8zm-3.1-6.4h2.8v-3.2h-2.8zm0 4.6h2.8v-3.3h-2.8zm4-4.6h2.8v-3.2h-2.8zm0 4.6h2.8v-3.3h-2.8zm3.7 1.9c2.1.9 4.1 1.8 6.1 2.7l-.7 1.3c-2.2-1.1-4.2-2-6.1-2.9zm3.2-9.7h-2.8v3.2h2.8zm-2.8 7.8h2.8v-3.3h-2.8z" fill="#fafafb"/></svg>