<svg enable-background="new 0 0 400 400" viewBox="0 0 400 400" xmlns="http://www.w3.org/2000/svg"><path d="m378.6 9.2.8-1c.9.7 1.9 1.4 2.9 2.3l-.9 1.1c-1.1-.9-2-1.7-2.8-2.4zm.5 10.7c.9-2.1 1.6-4.3 2.3-6.7.4.2.8.4 1.3.6-.7 2.1-1.5 4.3-2.2 6.6zm.4-15.2.9-.9c1 .8 2 1.6 2.8 2.4l-1 1c-1-.9-1.9-1.8-2.7-2.5zm12.5-1.3h1.2v1.4h2.7v1.1h-2.7v2.7h-1.2v-.5h-1.8v1.3h4.9v3.8h-1.2v-.5h-3.7c0 .4-.1.9-.1 1.2h5.1v1h-5.2c0 .5-.1.9-.2 1.2h6v1h-5.2c1.1 1.3 2.9 2 5.5 2.2-.4.4-.7.8-.9 1.3-2.9-.5-4.8-1.6-5.7-3.5h-.1c-.8 1.7-2.7 2.9-5.9 3.6-.2-.4-.6-.8-.9-1.1 2.8-.6 4.6-1.4 5.4-2.5h-4.8v-1h5.3c.1-.3.2-.7.2-1.2h-4.9v-1h5c0-.4 0-.8.1-1.2h-3.6v.5h-1.2v-3.8h4.9v-1.3h-1.8v.5h-1.2v-2.7h-2.6v-1.1h2.6v-1.4h1.2v1.4h4.7v-1.4zm-6.7 8.4h3.6c0-.4 0-.9 0-1.4h-3.6zm1.9-4.7h4.7v-1.2h-4.7zm6.7 3.3h-3.7v1.4h3.7z" fill="#fafbfc"/><path d="m384.7 21.4h1.3v2.2h2.8v-2.2h1.3v2.2h4.1v9.1h1.7v1.3h-16.9v-1.3h1.7v-9.1h4.1v-2.2zm.3 13.2.7 1.2c-1.8.9-3.8 1.9-6 2.9-.2-.4-.5-.8-.8-1.3 2.4-1 4.4-2 6.1-2.8zm-3.1-6.5h2.8v-3.2h-2.8zm0 4.6h2.8v-3.3h-2.8zm4.1-4.6h2.8v-3.2h-2.8zm0 4.6h2.8v-3.3h-2.8zm3.6 1.9c2.1.9 4.1 1.8 6.1 2.7l-.7 1.3c-2.2-1.1-4.2-2-6.1-2.9zm3.3-9.7h-2.8v3.2h2.8zm-2.8 7.8h2.8v-3.3h-2.8z" fill="#fafbfc"/><g fill="#010104"><path d="m39.28 265.2c9.45-3.82 18.86-5.83 28.74-3.48 2.85.68 5.12.31 7.08-1.99 3.96-4.64 9-6.06 15.12-6.32 19.15-.84 38.31-1.92 57.39-3.74 12.84-1.22 25.54-3.83 38.31-5.84 18.1-2.85 36.15-5.99 54.3-8.44 7.09-.96 14.39-.66 21.59-.43 6.58.2 12.79-.7 18.9-3.2 1.88-.77 4.52-1 6.36-.3 7.83 2.98 15.46 1.06 23.15-.25 5.53-.94 11.02-2.24 16.59-2.83 10.5-1.12 20.65.85 30.49 4.51.59.22 1.13.58 1.66.93 4.13 2.75 6.21 8.1 4.87 12.49-.79 2.58-6.46 6.17-10.23 5.89-4.2-.32-8.35-1.34-12.54-1.84-1.33-.16-2.85.14-4.11.66-1.74.73-3.49 1.66-4.93 2.86-6.43 5.33-13.77 5.87-21.74 5.21-9.28-.77-18.66-1.3-27.93-.79-7.65.42-15.23 2.45-22.82 3.87-11.45 2.14-22.88 4.38-34.32 6.52-1.11.21-2.39.25-3.43-.1-7.72-2.57-15.29-1.57-23.09-.01-18.37 3.67-36.78 7.31-55.31 9.99-12.86 1.86-25.96 2.09-38.94 3.09-4.65.36-9.33.55-13.91 1.35-8.26 1.43-16.44.89-24.66-.13-7.25-.89-14.53-1.58-21.79-2.47-.84-.1-2.17-.8-2.3-1.43-.99-4.56-1.7-9.15-2.5-13.78z"/><path d="m208.91 149.27c-18.44 0-36.88-.33-55.3.19-6.12.17-12.23 2.32-18.26 3.92-7.41 1.96-14.79 3.64-22.51 2.26-7.93-1.42-15.55.31-23.19 2.15-6.89 1.67-13.8 3.31-20.76 4.65-2.26.43-4.83.29-7.06-.31-8.99-2.42-17.92-5.07-26.83-7.78-1.05-.32-2.61-1.54-2.59-2.3.07-2.18-1.36-4.75 1.73-6.42 10.26-5.55 21.11-9.44 32.64-10.93 10.49-1.36 21.06-2.43 31.62-2.76 6.17-.19 12-1.03 17.57-3.46 4.67-2.03 9.32-2.65 14.12-.82 5.55 2.11 10.9.03 16.23-.86 21.58-3.6 43.26-5.84 65.16-4.96 4.36.18 8.31-.59 12.18-2.67 1.53-.82 3.66-1.03 5.42-.8 6.3.81 12.54 2.05 18.84 2.87 2.24.29 4.62.12 6.84-.33 5.81-1.17 11.51-2.92 17.36-3.81 3.37-.52 6.94.13 10.41.34 10.15.62 20.31 1.04 30.42 2.03 3.81.37 7.66 1.69 11.17 3.29 4.44 2.02 5.42 4.99 4.12 9.58-.26.92-.54 1.83-.8 2.74-2.24 7.73-2.24 7.68-10.35 8.36-17.21 1.44-34.4 3.11-51.62 4.34-8.02.58-16.1.44-24.15.5-10.81.07-21.62.02-32.43.02.02.34.02.66.02.97z"/></g></svg>