<svg enable-background="new 0 0 400 400" viewBox="0 0 400 400" xmlns="http://www.w3.org/2000/svg"><path d="m378.6 9.2.8-1c.9.7 1.9 1.4 2.9 2.3l-.9 1.1c-1.1-.9-2-1.7-2.8-2.4zm.5 10.7c.9-2.1 1.6-4.3 2.3-6.7.4.2.8.4 1.3.6-.7 2.1-1.5 4.3-2.2 6.6zm.4-15.2.9-.9c1 .8 2 1.6 2.8 2.4l-1 1c-1-.9-1.9-1.8-2.7-2.5zm12.5-1.3h1.2v1.4h2.7v1.1h-2.7v2.7h-1.2v-.5h-1.8v1.3h4.9v3.8h-1.2v-.5h-3.7c0 .4-.1.9-.1 1.2h5.1v1h-5.2c0 .5-.1.9-.2 1.2h6v1h-5.2c1.1 1.3 2.9 2 5.5 2.2-.4.4-.7.8-.9 1.3-2.9-.5-4.8-1.6-5.7-3.5h-.1c-.8 1.7-2.7 2.9-5.9 3.6-.2-.4-.6-.8-.9-1.1 2.8-.6 4.6-1.4 5.4-2.5h-4.8v-1h5.3c.1-.3.2-.7.2-1.2h-4.9v-1h5c0-.4 0-.8.1-1.2h-3.6v.5h-1.2v-3.8h4.9v-1.3h-1.8v.5h-1.2v-2.7h-2.6v-1.1h2.6v-1.4h1.2v1.4h4.7v-1.4zm-6.7 8.4h3.6c0-.4 0-.9 0-1.4h-3.6zm1.9-4.7h4.7v-1.2h-4.7zm6.7 3.3h-3.7v1.4h3.7z" fill="#fafbfc"/><path d="m384.7 21.4h1.3v2.2h2.8v-2.2h1.3v2.2h4.1v9.1h1.7v1.3h-16.9v-1.3h1.7v-9.1h4.1v-2.2zm.3 13.2.7 1.2c-1.8.9-3.8 1.9-6 2.9-.2-.4-.5-.8-.8-1.3 2.4-1 4.4-2 6.1-2.8zm-3.1-6.5h2.8v-3.2h-2.8zm0 4.6h2.8v-3.3h-2.8zm4.1-4.6h2.8v-3.2h-2.8zm0 4.6h2.8v-3.3h-2.8zm3.6 1.9c2.1.9 4.1 1.8 6.1 2.7l-.7 1.3c-2.2-1.1-4.2-2-6.1-2.9zm3.3-9.7h-2.8v3.2h2.8zm-2.8 7.8h2.8v-3.3h-2.8z" fill="#fafbfc"/><path d="m172.39 241.76c-1.08-3.03-2.95-6.03-3.07-9.1-.34-8.55-.4-17.15.23-25.68 1.18-15.94 2.34-31.91 5.94-47.57.72-3.13-.94-5.7-3.62-6.75-11.86-4.65-18.81-14.94-27-23.64-3.2-3.4-4.51-8.78-6.12-13.44-2.49-7.22-4.37-14.64-3.24-22.42.21-1.42.67-2.8 1.68-4.22.82 3.34 1.63 6.69 2.45 10.03l.93-.09c-.16-1.88.13-3.96-.56-5.62-3.35-8.04-1.96-16.27-1.32-24.47.08-1.07.77-2.16 1.39-3.12 2.56-3.96 3.95-8.25 3.4-12.95-.97-8.31 3.72-13.34 9.97-17.36.92-.59 3.1-.3 4.04.43 2.21 1.7 4.37 3.68 5.92 5.97 1.69 2.51 2.63 5.53 3.98 8.28 1.58 3.22 3.02 6.6 6.41 8.45 2.41 1.31 3.38 3.36 3.38 6.01 0 .85.08 1.7.2 2.53.32 2.11.73 4.14 3.89 2.6-.85.94-1.7 1.88-2.57 2.84.27.21.42.44.56.43 6.35-.39 9.64 3.49 12.29 8.54 1.41 2.69 3.28 5.15 4.98 7.78-.82.86-1.54 1.62-2.47 2.6 6.52 3.34 6.88 9.42 6.65 15.51-.2 5.28-.9 10.54-1.58 15.79-.22 1.71-1.05 3.33-1.6 5-.28-.01-.57-.02-.85-.02-.65-2.86-1.29-5.71-1.84-8.15-.96 11.49-1.34 23.42-3.1 35.13-2.04 13.59-5.39 26.98-7.97 40.5-.53 2.75-.3 5.67-.2 8.51.29 8 2.26 15.94.6 24.03-.37 1.79.28 3.78.35 5.68.42 10.78.75 21.56 1.25 32.34.09 1.93.45 4.04 1.35 5.72 2.88 5.41 4.74 11.04 5.21 17.18.5 6.58 4.61 11.73 7.15 17.51 2.56 5.82 6.43 10.62 10.82 15.14 4.28 4.41 8.39 8.99 12.37 13.67 1.62 1.91 3.13 4.14 3.91 6.48 1.49 4.47 4.88 6.22 8.93 7.15.86.2 2.42-.51 2.94-1.28 4.14-6.12 6.31-13.03 6.41-20.32.1-6.75-.67-13.51-1.19-20.26-.08-1.05-.8-2.12-1.41-3.06-5.29-8.14-8.29-17.08-9.35-26.69-.09-.82.1-1.68.16-2.48 5.31-1.53 8.25-.17 11.07 6.08 5.08 11.28 9.86 22.69 14.62 34.11.6 1.43.6 3.3.33 4.88-1.66 9.6-3.4 19.18-5.32 28.73-.3 1.47-1.36 3.12-2.57 4.01-2.89 2.13-5.17 4.39-6.11 8.09-.32 1.26-2.51 2.1-3.9 3.04-4 2.67-6.91 1.52-10.21-1.88-11.07-11.41-22.66-22.31-33.78-33.67-9.1-9.3-16.67-19.88-22.04-31.7-2.6-5.74-3.9-12.37-4.39-18.7-.83-10.76-.59-21.6-.66-32.41-.01-1.18.86-2.37 1.32-3.56.31-.07.64-.12.96-.16zm-14.55-184.15c-1.37 2.93-2.64 5.59-3.86 8.28-3.04 6.71-5.77 13.69-5.02 21.1 1.01 9.96 2.97 19.83 4.55 29.73.06.38.37.76.66 1.06 5.73 5.96 11.14 12.28 17.33 17.72 4.39 3.86 7.12 3.39 9.07-2.09.7-1.98 1.91-3.77 2.71-5.73.54-1.33 1.06-2.77 1.1-4.18.15-4.74-.43-9.54 1.91-14 .4-.76.23-1.87.16-2.81-.45-6.1-2.95-11.41-6.4-16.35-5.34-7.62-10.95-15.04-13.72-24.17-1.22-4.03-4.34-6.67-8.49-8.56zm34.47 52.8c2.15-4.07 2.06-5.09-.58-6.8.2 2.27.38 4.4.58 6.8z" fill="#010104"/></svg>